<svg xmlns="http://www.w3.org/2000/svg" version="1.1" width="150" height="210" viewBox="0 0 150 210"><defs/><ellipse cx="120" cy="60" rx="7.5" ry="7.5" fill="#6495ed" stroke="#6495ed" style="stroke-width: 2px" stroke-width="2"/><ellipse cx="90" cy="60" rx="7.5" ry="7.5" fill="#6495ed" stroke="#6495ed" style="stroke-width: 2px" stroke-width="2"/><ellipse cx="60" cy="60" rx="7.5" ry="7.5" fill="#6495ed" stroke="#6495ed" style="stroke-width: 2px" stroke-width="2"/><ellipse cx="30" cy="60" rx="7.5" ry="7.5" fill="#6495ed" stroke="#6495ed" style="stroke-width: 2px" stroke-width="2"/><ellipse cx="120" cy="90" rx="7.5" ry="7.5" fill="#6495ed" stroke="#6495ed" style="stroke-width: 2px" stroke-width="2"/><ellipse cx="90" cy="90" rx="7.5" ry="7.5" fill="#6495ed" stroke="#6495ed" style="stroke-width: 2px" stroke-width="2"/><ellipse cx="60" cy="90" rx="7.5" ry="7.5" fill="#6495ed" stroke="#6495ed" style="stroke-width: 2px" stroke-width="2"/><ellipse cx="30" cy="90" rx="7.5" ry="7.5" fill="#6495ed" stroke="#6495ed" style="stroke-width: 2px" stroke-width="2"/><ellipse cx="120" cy="120" rx="7.5" ry="7.5" fill="#6495ed" stroke="#6495ed" style="stroke-width: 2px" stroke-width="2"/><ellipse cx="90" cy="120" rx="7.5" ry="7.5" fill="#6495ed" stroke="#6495ed" style="stroke-width: 2px" stroke-width="2"/><ellipse cx="60" cy="120" rx="7.5" ry="7.5" fill="#6495ed" stroke="#6495ed" style="stroke-width: 2px" stroke-width="2"/><ellipse cx="30" cy="120" rx="7.5" ry="7.5" fill="#6495ed" stroke="#6495ed" style="stroke-width: 2px" stroke-width="2"/><ellipse cx="120" cy="150" rx="7.5" ry="7.5" fill="#6495ed" stroke="#6495ed" style="stroke-width: 2px" stroke-width="2"/><ellipse cx="90" cy="150" rx="7.5" ry="7.5" fill="#6495ed" stroke="#6495ed" style="stroke-width: 2px" stroke-width="2"/><ellipse cx="60" cy="150" rx="7.5" ry="7.5" fill="#6495ed" stroke="#6495ed" style="stroke-width: 2px" stroke-width="2"/><ellipse cx="30" cy="150" rx="7.5" ry="7.5" fill="#6495ed" stroke="#6495ed" style="stroke-width: 2px" stroke-width="2"/><ellipse cx="30" cy="180" rx="7.5" ry="7.5" fill="#6495ed" stroke="#6495ed" style="stroke-width: 2px" stroke-width="2"/></svg>