<svg xmlns="http://www.w3.org/2000/svg" width="270" height="67.5" viewBox="0 0 270 67.5"><path fill="none" stroke="#000" d="M11.25 56.25h112.5M11.25 33.75h112.5M11.25 11.25h112.5M11.25 56.25v-45M33.75 56.25v-45M56.25 56.25v-45M78.75 56.25v-45M101.25 56.25v-45M123.75 56.25v-45M146.25 56.25h112.5M146.25 33.75h112.5M146.25 11.25h112.5M146.25 56.25v-45M168.75 56.25v-45M191.25 56.25v-45M213.75 56.25v-45M236.25 56.25v-45M258.75 56.25v-45" stroke-width="2"/><ellipse cx="22.5" cy="22.5" rx="8.55" ry="8.55" fill="#0c7f99" stroke="#0c7f99" stroke-width="2" stroke-dasharray="0"/><ellipse cx="45" cy="22.5" rx="8.55" ry="8.55" fill="#0c7f99" stroke="#0c7f99" stroke-width="2" stroke-dasharray="0"/><ellipse cx="67.5" cy="22.5" rx="8.55" ry="8.55" fill="#0c7f99" stroke="#0c7f99" stroke-width="2" stroke-dasharray="0"/><ellipse cx="90" cy="22.5" rx="8.55" ry="8.55" fill="#0c7f99" stroke="#0c7f99" stroke-width="2" stroke-dasharray="0"/><ellipse cx="112.5" cy="22.5" rx="8.55" ry="8.55" fill="#0c7f99" stroke="#0c7f99" stroke-width="2" stroke-dasharray="0"/><ellipse cx="22.5" cy="45" rx="8.55" ry="8.55" fill="#0c7f99" stroke="#0c7f99" stroke-width="2" stroke-dasharray="0"/><ellipse cx="45" cy="45" rx="8.55" ry="8.55" fill="#0c7f99" stroke="#0c7f99" stroke-width="2" stroke-dasharray="0"/><ellipse cx="67.5" cy="45" rx="8.55" ry="8.55" fill="#0c7f99" stroke="#0c7f99" stroke-width="2" stroke-dasharray="0"/><ellipse cx="90" cy="45" rx="8.55" ry="8.55" fill="#0c7f99" stroke="#0c7f99" stroke-width="2" stroke-dasharray="0"/><ellipse cx="112.5" cy="45" rx="8.55" ry="8.55" fill="#0c7f99" stroke="#0c7f99" stroke-width="2" stroke-dasharray="0"/><ellipse cx="157.5" cy="22.5" rx="8.55" ry="8.55" fill="#0c7f99" stroke="#0c7f99" stroke-width="2" stroke-dasharray="0"/><ellipse cx="180" cy="22.5" rx="8.55" ry="8.55" fill="#0c7f99" stroke="#0c7f99" stroke-width="2" stroke-dasharray="0"/><ellipse cx="202.5" cy="22.5" rx="8.55" ry="8.55" fill="#0c7f99" stroke="#0c7f99" stroke-width="2" stroke-dasharray="0"/><ellipse cx="225" cy="22.5" rx="8.55" ry="8.55" fill="#0c7f99" stroke="#0c7f99" stroke-width="2" stroke-dasharray="0"/><ellipse cx="247.5" cy="22.5" rx="8.55" ry="8.55" fill="#0c7f99" stroke="#0c7f99" stroke-width="2" stroke-dasharray="0"/><ellipse cx="157.5" cy="45" rx="8.55" ry="8.55" fill="#0c7f99" stroke="#0c7f99" stroke-width="2" stroke-dasharray="0"/></svg>
