<svg xmlns="http://www.w3.org/2000/svg" width="90.909" height="200" viewBox="0 0 90.90909090909092 200.00000000000003"><path fill="#deb958" d="M30.086 183.739c-5.281 1.19-10.365 1.503-14.941-1.389-1.482-.937-2.535-2.314-2.407-3.949.056-.716.683-1.726 2.784-1.332 4.689.878 8.185.528 11.978-.546 4.009-1.136 7.091-4.146 8.232-6.894.961-2.314 2.444-4.759 4.807-3.879 1.28.477 1.603 5.557.943 7.99-1.323 4.875-6.115 8.808-11.396 9.999m0 0z"/><path fill="#ccaa4f" d="M40.99 166.296c.456 1.794.513 4.791.068 6.436-1.304 4.804-5.835 8.901-11.04 10.075-5.207 1.174-10.843 1.38-15.354-1.471-.633-.4-1.497-1.425-1.891-2.669.06 1.756 1.199 2.848 2.223 3.495 4.51 2.851 10.056 2.663 15.262 1.49 5.205-1.174 9.929-5.051 11.232-9.855.569-2.099.396-6.196-.5-7.501z"/><path fill="#eec65e" d="M23.089 180.072c9.589-.328 16.571-5.741 16.387-14.502-1.759.076-2.936 2.114-3.744 4.059-1.141 2.747-4.223 5.757-8.233 6.894-3.793 1.073-7.289 1.424-11.977.546-2.102-.394-2.729.616-2.785 1.332-.002.038 1.2-.476 1.198-.438 3.219 1.566 5.562 2.233 9.154 2.109z"/><path fill="#ccaa4f" d="M38.36 166.085l1.011.363s.388-.68 1.168-.698c-.139-1.462-.752-3.502-1.24-4.441-.53-1.016-1.454-.023-1.454-.023l-.693.97s1.206.855 1.207 3.829z"/><path fill="#eec65e" d="M38.36 166.085s.575.538 1.011.363c.456-3.835-1.526-5.162-1.526-5.162l-.693.97s1.206.855 1.207 3.829z"/><path fill="#eec65e" d="M39.372 166.448c.022-.181.106.007.118-.163.26-3.701-1.645-4.999-1.645-4.999l-.07.099c0 .001 1.724.982 1.597 5.063z"/><path fill="#ccaa4f" d="M13.764 177.118s.823 1.156.252 1.566c-.572.41-1.284-.19-1.284-.19s.094-1.024 1.032-1.376z"/><path fill="#deb958" d="M30.086 147.375c-5.281 1.19-10.365 1.503-14.941-1.389-1.482-.937-2.535-2.314-2.407-3.949.056-.716.683-1.726 2.784-1.332 4.689.878 8.185.528 11.978-.546 4.009-1.136 7.091-4.146 8.232-6.894.961-2.314 2.444-4.759 4.807-3.879 1.28.477 1.603 5.557.943 7.99-1.323 4.875-6.115 8.808-11.396 9.999m0 0z"/><path fill="#ccaa4f" d="M40.99 129.932c.456 1.794.513 4.791.068 6.436-1.304 4.804-5.835 8.901-11.04 10.075-5.207 1.174-10.843 1.38-15.354-1.471-.633-.4-1.497-1.425-1.891-2.669.06 1.756 1.199 2.848 2.223 3.495 4.51 2.851 10.056 2.663 15.262 1.49 5.205-1.174 9.929-5.051 11.232-9.855.569-2.099.396-6.196-.5-7.501z"/><path fill="#eec65e" d="M23.089 143.709c9.589-.328 16.571-5.741 16.387-14.502-1.759.076-2.936 2.114-3.744 4.059-1.141 2.747-4.223 5.757-8.233 6.894-3.793 1.073-7.289 1.424-11.977.546-2.102-.394-2.729.616-2.785 1.332-.002.038 1.2-.476 1.198-.438 3.219 1.566 5.562 2.233 9.154 2.109z"/><path fill="#ccaa4f" d="M38.36 129.721l1.011.363s.388-.68 1.168-.698c-.139-1.462-.752-3.502-1.24-4.441-.53-1.016-1.454-.023-1.454-.023l-.693.97s1.206.855 1.207 3.829z"/><path fill="#eec65e" d="M38.36 129.721s.575.538 1.011.363c.456-3.835-1.526-5.162-1.526-5.162l-.693.97s1.206.855 1.207 3.829z"/><path fill="#eec65e" d="M39.372 130.084c.022-.181.106.007.118-.163.26-3.701-1.645-4.999-1.645-4.999l-.07.099c0 .001 1.724.982 1.597 5.063z"/><path fill="#ccaa4f" d="M13.764 140.755s.823 1.156.252 1.566c-.572.41-1.284-.19-1.284-.19s.094-1.024 1.032-1.376z"/><path fill="#deb958" d="M30.086 111.012c-5.281 1.19-10.365 1.503-14.941-1.389-1.482-.937-2.535-2.314-2.407-3.949.056-.716.683-1.726 2.784-1.332 4.689.878 8.185.528 11.978-.546 4.009-1.136 7.091-4.146 8.232-6.894.961-2.314 2.444-4.76 4.807-3.88 1.28.478 1.603 5.558.943 7.991-1.323 4.875-6.115 8.808-11.396 9.999z"/><path fill="#ccaa4f" d="M40.99 93.569c.456 1.794.513 4.79.068 6.436-1.304 4.804-5.835 8.901-11.04 10.075-5.207 1.174-10.843 1.38-15.354-1.471-.633-.4-1.497-1.425-1.891-2.669.06 1.756 1.199 2.848 2.223 3.495 4.51 2.851 10.056 2.663 15.262 1.49 5.205-1.174 9.929-5.051 11.232-9.855.569-2.1.396-6.196-.5-7.501z"/><path fill="#eec65e" d="M23.089 107.345c9.589-.328 16.571-5.741 16.387-14.502-1.759.076-2.936 2.114-3.744 4.059-1.141 2.747-4.223 5.757-8.233 6.894-3.793 1.073-7.289 1.424-11.977.546-2.102-.394-2.729.616-2.785 1.332-.002.038 1.2-.476 1.198-.438 3.219 1.566 5.562 2.233 9.154 2.109z"/><path fill="#ccaa4f" d="M38.36 93.358l1.011.363s.388-.68 1.168-.698c-.139-1.462-.752-3.502-1.24-4.441-.53-1.016-1.454-.023-1.454-.023l-.693.97s1.206.855 1.207 3.829z"/><path fill="#eec65e" d="M38.36 93.358s.575.538 1.011.363c.456-3.835-1.526-5.162-1.526-5.162l-.693.97s1.206.855 1.207 3.829z"/><path fill="#eec65e" d="M39.372 93.72c.022-.18.106.008.118-.162.26-3.701-1.645-5-1.645-5l-.07.1s1.724.982 1.597 5.063z"/><path fill="#ccaa4f" d="M13.764 104.391s.823 1.156.252 1.566c-.572.41-1.284-.19-1.284-.19s.094-1.024 1.032-1.376z"/><path fill="#deb958" d="M30.086 74.648c-5.281 1.19-10.365 1.503-14.941-1.389-1.482-.937-2.535-2.314-2.407-3.949.056-.716.683-1.726 2.784-1.332 4.689.878 8.185.528 11.978-.546 4.009-1.136 7.091-4.146 8.232-6.894.961-2.314 2.444-4.759 4.807-3.879 1.28.477 1.603 5.557.943 7.99-1.323 4.875-6.115 8.808-11.396 10m0 0z"/><path fill="#ccaa4f" d="M40.99 57.205c.456 1.794.513 4.791.068 6.436-1.304 4.804-5.835 8.901-11.04 10.075-5.207 1.174-10.843 1.38-15.354-1.47-.633-.4-1.497-1.426-1.891-2.67.06 1.756 1.199 2.848 2.223 3.495 4.51 2.851 10.056 2.663 15.262 1.49 5.205-1.174 9.929-5.05 11.232-9.855.569-2.099.396-6.196-.5-7.5z"/><path fill="#eec65e" d="M23.089 70.981c9.589-.328 16.571-5.74 16.387-14.502-1.759.076-2.936 2.114-3.744 4.06-1.141 2.746-4.223 5.756-8.233 6.893-3.793 1.073-7.289 1.424-11.977.546-2.102-.394-2.729.616-2.785 1.332-.002.038 1.2-.476 1.198-.438 3.219 1.566 5.562 2.233 9.154 2.11z"/><path fill="#ccaa4f" d="M38.36 56.994l1.011.363s.388-.68 1.168-.698c-.139-1.462-.752-3.502-1.24-4.44-.53-1.017-1.454-.024-1.454-.024l-.693.97s1.206.855 1.207 3.83z"/><path fill="#eec65e" d="M38.36 56.994s.575.538 1.011.363c.456-3.835-1.526-5.162-1.526-5.162l-.693.97s1.206.855 1.207 3.83z"/><path fill="#eec65e" d="M39.372 57.357c.022-.181.106.007.118-.163.26-3.701-1.645-5-1.645-5l-.07.1s1.724.982 1.597 5.063z"/><path fill="#ccaa4f" d="M13.764 68.027s.823 1.156.252 1.566c-.572.41-1.284-.19-1.284-.19s.094-1.024 1.032-1.376z"/><path fill="#deb958" d="M30.086 38.285c-5.281 1.19-10.365 1.503-14.941-1.39-1.482-.936-2.535-2.313-2.407-3.948.056-.716.683-1.726 2.784-1.332 4.689.878 8.185.528 11.978-.546 4.009-1.136 7.091-4.146 8.232-6.894.961-2.314 2.444-4.76 4.807-3.88 1.28.478 1.603 5.558.943 7.99-1.323 4.876-6.115 8.809-11.396 10m0 0z"/><path fill="#ccaa4f" d="M40.99 20.841c.456 1.794.513 4.791.068 6.436-1.304 4.804-5.835 8.901-11.04 10.075-5.207 1.175-10.843 1.38-15.354-1.47-.633-.4-1.497-1.425-1.891-2.67.06 1.756 1.199 2.848 2.223 3.495 4.51 2.852 10.056 2.663 15.262 1.49 5.205-1.174 9.929-5.05 11.232-9.855.569-2.098.396-6.195-.5-7.5z"/><path fill="#eec65e" d="M23.089 34.618c9.589-.328 16.571-5.741 16.387-14.502-1.759.076-2.936 2.114-3.744 4.059-1.141 2.747-4.223 5.757-8.233 6.894-3.793 1.073-7.289 1.424-11.977.546-2.102-.394-2.729.616-2.785 1.332-.002.038 1.2-.476 1.198-.438 3.219 1.566 5.562 2.233 9.154 2.109z"/><path fill="#ccaa4f" d="M38.36 20.63l1.011.364s.388-.68 1.168-.698c-.139-1.462-.752-3.502-1.24-4.441-.53-1.017-1.454-.024-1.454-.024l-.693.97s1.206.856 1.207 3.83z"/><path fill="#eec65e" d="M38.36 20.63s.575.539 1.011.364c.456-3.835-1.526-5.162-1.526-5.162l-.693.97s1.206.855 1.207 3.829z"/><path fill="#eec65e" d="M39.372 20.993c.022-.18.106.007.118-.163.26-3.7-1.645-4.999-1.645-4.999l-.07.1s1.724.981 1.597 5.062z"/><path fill="#ccaa4f" d="M13.764 31.664s.823 1.156.252 1.566c-.572.41-1.284-.19-1.284-.19s.094-1.024 1.032-1.376z"/><path fill="#deb958" d="M66.45 183.739c-5.281 1.19-10.365 1.503-14.941-1.389-1.482-.937-2.535-2.314-2.407-3.949.056-.716.683-1.726 2.784-1.332 4.689.878 8.185.528 11.978-.546 4.009-1.136 7.09-4.146 8.232-6.894.96-2.314 2.444-4.759 4.807-3.879 1.28.477 1.603 5.557.943 7.99-1.323 4.875-6.115 8.808-11.396 9.999m0 0z"/><path fill="#ccaa4f" d="M77.353 166.296c.457 1.794.514 4.791.069 6.436-1.304 4.804-5.835 8.901-11.04 10.075-5.208 1.174-10.844 1.38-15.355-1.471-.633-.4-1.496-1.425-1.89-2.669.06 1.756 1.199 2.848 2.222 3.495 4.511 2.851 10.056 2.663 15.262 1.49 5.206-1.174 9.93-5.051 11.233-9.855.569-2.099.395-6.196-.5-7.501z"/><path fill="#eec65e" d="M59.453 180.072c9.589-.328 16.57-5.741 16.387-14.502-1.76.076-2.936 2.114-3.744 4.059-1.141 2.747-4.223 5.757-8.233 6.894-3.793 1.073-7.29 1.424-11.977.546-2.102-.394-2.73.616-2.785 1.332-.002.038 1.2-.476 1.198-.438 3.219 1.566 5.562 2.233 9.154 2.109z"/><path fill="#ccaa4f" d="M74.723 166.085l1.012.363s.388-.68 1.168-.698c-.14-1.462-.752-3.502-1.241-4.441-.53-1.016-1.453-.023-1.453-.023l-.693.97s1.206.855 1.207 3.829z"/><path fill="#eec65e" d="M74.723 166.085s.576.538 1.012.363c.456-3.835-1.526-5.162-1.526-5.162l-.693.97s1.206.855 1.207 3.829z"/><path fill="#eec65e" d="M75.735 166.448c.022-.181.106.007.118-.163.26-3.701-1.645-4.999-1.645-4.999l-.07.099c0 .001 1.724.982 1.597 5.063z"/><path fill="#ccaa4f" d="M50.127 177.118s.823 1.156.252 1.566c-.572.41-1.283-.19-1.283-.19s.094-1.024 1.032-1.376z"/><path fill="none" stroke="#000" d="M13.454 113.818l27.637-27.636M13.454 86.182l27.637 27.636M13.454 77.454l27.637-27.636M13.454 49.818l27.637 27.636M13.454 41.09l27.637-27.636M13.454 13.454l27.637 27.637M49.818 186.545l27.636-27.636M49.818 158.909l27.636 27.636" stroke-width="2"/></svg>
