<svg xmlns="http://www.w3.org/2000/svg" width="52.5" height="90" viewBox="0 0 52.499999999999986 90"><path fill="#deb958" d="M29.151 75.106c-5.446 1.227-10.689 1.55-15.408-1.432-1.528-.967-2.614-2.387-2.482-4.073.057-.738.704-1.779 2.871-1.374 4.835.906 8.441.545 12.352-.563 4.135-1.171 7.313-4.276 8.49-7.109.99-2.386 2.52-4.907 4.957-4 1.32.491 1.653 5.73.972 8.24-1.364 5.027-6.306 9.083-11.752 10.311m0 0z"/><path fill="#ccaa4f" d="M40.396 57.118c.47 1.85.529 4.94.07 6.637-1.345 4.954-6.018 9.18-11.385 10.39-5.37 1.21-11.182 1.423-15.834-1.517-.652-.413-1.544-1.47-1.95-2.753.062 1.812 1.237 2.937 2.293 3.605 4.652 2.94 10.37 2.746 15.738 1.536 5.368-1.211 10.24-5.208 11.583-10.162.587-2.165.409-6.39-.515-7.736z"/><path fill="#eec65e" d="M21.936 71.325c9.888-.338 17.089-5.92 16.899-14.957-1.814.08-3.028 2.181-3.861 4.188-1.177 2.833-4.355 5.937-8.49 7.109-3.911 1.106-7.517 1.467-12.352.563-2.167-.406-2.813.635-2.871 1.374-.003.037 1.237-.492 1.235-.453 3.32 1.615 5.735 2.302 9.44 2.175z"/><path fill="#ccaa4f" d="M37.683 56.9l1.044.374s.4-.7 1.204-.719c-.143-1.508-.775-3.612-1.279-4.58-.547-1.048-1.499-.024-1.499-.024l-.714 1c-.001 0 1.243.882 1.244 3.95z"/><path fill="#eec65e" d="M37.683 56.9s.594.554 1.044.374c.47-3.954-1.574-5.323-1.574-5.323l-.715 1s1.244.882 1.245 3.95z"/><path fill="#eec65e" d="M38.727 57.274c.023-.187.11.007.122-.168.268-3.816-1.696-5.155-1.696-5.155l-.073.102s1.778 1.013 1.647 5.221z"/><path fill="#ccaa4f" d="M12.319 68.278s.848 1.193.26 1.614c-.59.423-1.325-.195-1.325-.195s.098-1.056 1.065-1.419z"/><path fill="#deb958" d="M29.151 37.606c-5.446 1.227-10.689 1.55-15.408-1.432-1.528-.967-2.614-2.387-2.482-4.073.057-.738.704-1.779 2.871-1.374 4.835.906 8.441.545 12.352-.563 4.135-1.171 7.313-4.276 8.49-7.109.99-2.386 2.52-4.907 4.957-4 1.32.491 1.653 5.73.972 8.24-1.364 5.027-6.306 9.083-11.752 10.311m0 0z"/><path fill="#ccaa4f" d="M40.396 19.618c.47 1.85.529 4.94.07 6.637-1.345 4.954-6.018 9.18-11.385 10.39-5.37 1.21-11.182 1.423-15.834-1.517-.652-.413-1.544-1.47-1.95-2.753.062 1.812 1.237 2.937 2.293 3.605 4.652 2.94 10.37 2.746 15.738 1.536 5.368-1.211 10.24-5.208 11.583-10.162.587-2.165.409-6.39-.515-7.736z"/><path fill="#eec65e" d="M21.936 33.825c9.888-.339 17.089-5.92 16.899-14.957-1.814.08-3.028 2.181-3.861 4.188-1.177 2.832-4.355 5.936-8.49 7.108-3.911 1.107-7.517 1.468-12.352.563-2.167-.405-2.813.636-2.871 1.375-.003.038 1.237-.491 1.235-.452 3.32 1.614 5.735 2.302 9.44 2.175z"/><path fill="#ccaa4f" d="M37.683 19.4l1.044.374s.4-.7 1.204-.719c-.143-1.508-.775-3.612-1.279-4.58-.547-1.048-1.499-.024-1.499-.024l-.714 1c-.001 0 1.243.882 1.244 3.95z"/><path fill="#eec65e" d="M37.683 19.4s.594.554 1.044.374c.47-3.954-1.574-5.323-1.574-5.323l-.715 1s1.244.882 1.245 3.95z"/><path fill="#eec65e" d="M38.727 19.774c.023-.187.11.007.122-.168.268-3.816-1.696-5.155-1.696-5.155l-.073.102s1.778 1.013 1.647 5.221z"/><path fill="#ccaa4f" d="M12.319 30.778s.848 1.193.26 1.614c-.59.423-1.325-.195-1.325-.195s.098-1.056 1.065-1.419z"/></svg>
