<svg xmlns="http://www.w3.org/2000/svg" width="170" height="72.857" viewBox="0 0 170 72.85714285714286"><path fill="none" stroke="#000" d="M12.143 60.714H133.57M12.143 36.429H133.57M12.143 12.143H133.57M12.143 60.714V12.143M36.429 60.714V12.143M60.714 60.714V12.143M85 60.714V12.143M109.286 60.714V12.143M133.571 60.714V12.143" stroke-width="2"/><ellipse cx="24.286" cy="24.286" rx="9.229" ry="9.229" fill="#0c7f99" stroke="#0c7f99" stroke-width="2" stroke-dasharray="0"/><ellipse cx="48.571" cy="24.286" rx="9.229" ry="9.229" fill="#0c7f99" stroke="#0c7f99" stroke-width="2" stroke-dasharray="0"/><ellipse cx="72.857" cy="24.286" rx="9.229" ry="9.229" fill="#0c7f99" stroke="#0c7f99" stroke-width="2" stroke-dasharray="0"/><ellipse cx="97.143" cy="24.286" rx="9.229" ry="9.229" fill="#0c7f99" stroke="#0c7f99" stroke-width="2" stroke-dasharray="0"/><ellipse cx="121.429" cy="24.286" rx="9.229" ry="9.229" fill="#0c7f99" stroke="#0c7f99" stroke-width="2" stroke-dasharray="0"/><ellipse cx="24.286" cy="48.571" rx="9.229" ry="9.229" fill="#0c7f99" stroke="#0c7f99" stroke-width="2" stroke-dasharray="0"/><ellipse cx="48.571" cy="48.571" rx="9.229" ry="9.229" fill="#0c7f99" stroke="#0c7f99" stroke-width="2" stroke-dasharray="0"/><ellipse cx="72.857" cy="48.571" rx="9.229" ry="9.229" fill="#0c7f99" stroke="#0c7f99" stroke-width="2" stroke-dasharray="0"/><ellipse cx="97.143" cy="48.571" rx="9.229" ry="9.229" fill="#0c7f99" stroke="#0c7f99" stroke-width="2" stroke-dasharray="0"/><ellipse cx="121.429" cy="48.571" rx="9.229" ry="9.229" fill="#0c7f99" stroke="#0c7f99" stroke-width="2" stroke-dasharray="0"/></svg>
