<svg xmlns="http://www.w3.org/2000/svg" width="75.833" height="130" viewBox="0 0 75.83333333333334 130"><path fill="#ccfaff" stroke="#0c7f99" d="M6.019 116.759v12.037h12.037l6.018-6.018v-12.037H12.037z" stroke-width="2"/><path fill="#ccfaff" stroke="#0c7f99" d="M6.019 116.759h12.037v12.037M18.056 116.759l6.018-6.018" stroke-width="2"/><path fill="#ccfaff" stroke="#0c7f99" d="M6.019 104.722v12.037h12.037l6.018-6.018V98.704H12.037z" stroke-width="2"/><path fill="#ccfaff" stroke="#0c7f99" d="M6.019 104.722h12.037v12.037M18.056 104.722l6.018-6.018" stroke-width="2"/><path fill="#ccfaff" stroke="#0c7f99" d="M6.019 92.685v12.037h12.037l6.018-6.018V86.667H12.037z" stroke-width="2"/><path fill="#ccfaff" stroke="#0c7f99" d="M6.019 92.685h12.037v12.037M18.056 92.685l6.018-6.018" stroke-width="2"/><path fill="#ccfaff" stroke="#0c7f99" d="M6.019 80.648v12.037h12.037l6.018-6.018V74.63H12.037z" stroke-width="2"/><path fill="#ccfaff" stroke="#0c7f99" d="M6.019 80.648h12.037v12.037M18.056 80.648l6.018-6.018" stroke-width="2"/><path fill="#ccfaff" stroke="#0c7f99" d="M6.019 68.611v12.037h12.037l6.018-6.018V62.593H12.037z" stroke-width="2"/><path fill="#ccfaff" stroke="#0c7f99" d="M6.019 68.611h12.037v12.037M18.056 68.611l6.018-6.018" stroke-width="2"/><path fill="#ccfaff" stroke="#0c7f99" d="M6.019 56.574v12.037h12.037l6.018-6.018V50.556H12.037z" stroke-width="2"/><path fill="#ccfaff" stroke="#0c7f99" d="M6.019 56.574h12.037v12.037M18.056 56.574l6.018-6.018" stroke-width="2"/><path fill="#ccfaff" stroke="#0c7f99" d="M6.019 44.537v12.037h12.037l6.018-6.018V38.519H12.037z" stroke-width="2"/><path fill="#ccfaff" stroke="#0c7f99" d="M6.019 44.537h12.037v12.037M18.056 44.537l6.018-6.018" stroke-width="2"/><path fill="#ccfaff" stroke="#0c7f99" d="M6.019 32.5v12.037h12.037l6.018-6.018V26.482H12.037z" stroke-width="2"/><path fill="#ccfaff" stroke="#0c7f99" d="M6.019 32.5h12.037v12.037M18.056 32.5l6.018-6.018" stroke-width="2"/><path fill="#ccfaff" stroke="#0c7f99" d="M6.019 20.463V32.5h12.037l6.018-6.018V14.444H12.037z" stroke-width="2"/><path fill="#ccfaff" stroke="#0c7f99" d="M6.019 20.463h12.037V32.5M18.056 20.463l6.018-6.019" stroke-width="2"/><path fill="#ccfaff" stroke="#0c7f99" d="M6.019 8.426v12.037h12.037l6.018-6.019V2.407H12.037z" stroke-width="2"/><path fill="#ccfaff" stroke="#0c7f99" d="M6.019 8.426h12.037v12.037M18.056 8.426l6.018-6.019M30.093 116.759v12.037H42.13l6.018-6.018v-12.037H36.111z" stroke-width="2"/><path fill="#ccfaff" stroke="#0c7f99" d="M30.093 116.759H42.13v12.037M42.13 116.759l6.018-6.018M30.093 92.685v12.037H42.13l6.018-6.018V86.667H36.111z" stroke-width="2"/><path fill="#ccfaff" stroke="#0c7f99" d="M30.093 92.685H42.13v12.037M42.13 92.685l6.018-6.018M30.093 68.611v12.037H42.13l6.018-6.018V62.593H36.111z" stroke-width="2"/><path fill="#ccfaff" stroke="#0c7f99" d="M30.093 68.611H42.13v12.037M42.13 68.611l6.018-6.018M30.093 44.537v12.037H42.13l6.018-6.018V38.519H36.111z" stroke-width="2"/><path fill="#ccfaff" stroke="#0c7f99" d="M30.093 44.537H42.13v12.037M42.13 44.537l6.018-6.018M30.093 20.463V32.5H42.13l6.018-6.018V14.444H36.111z" stroke-width="2"/><path fill="#ccfaff" stroke="#0c7f99" d="M30.093 20.463H42.13V32.5M42.13 20.463l6.018-6.019M54.167 116.759v12.037h12.037l6.018-6.018v-12.037H60.185z" stroke-width="2"/><path fill="#ccfaff" stroke="#0c7f99" d="M54.167 116.759h12.037v12.037M66.204 116.759l6.018-6.018M54.167 92.685v12.037h12.037l6.018-6.018V86.667H60.185z" stroke-width="2"/><path fill="#ccfaff" stroke="#0c7f99" d="M54.167 92.685h12.037v12.037M66.204 92.685l6.018-6.018M54.167 68.611v12.037h12.037l6.018-6.018V62.593H60.185z" stroke-width="2"/><path fill="#ccfaff" stroke="#0c7f99" d="M54.167 68.611h12.037v12.037M66.204 68.611l6.018-6.018" stroke-width="2"/></svg>
