<svg xmlns="http://www.w3.org/2000/svg" width="170" height="72.857" viewBox="0 0 170 72.85714285714286"><path fill="none" stroke="#000" d="M12.143 60.714H133.57M12.143 36.429H133.57M12.143 12.143H133.57M12.143 60.714V12.143M36.429 60.714V12.143M60.714 60.714V12.143M85 60.714V12.143M109.286 60.714V12.143M133.571 60.714V12.143" stroke-width="2"/><ellipse cx="24.286" cy="24.286" rx="9.229" ry="9.229" fill="#0c7f99" stroke="#0c7f99" stroke-width="2" stroke-dasharray="0"/><ellipse cx="48.571" cy="24.286" rx="9.229" ry="9.229" fill="#0c7f99" stroke="#0c7f99" stroke-width="2" stroke-dasharray="0"/><ellipse cx="72.857" cy="24.286" rx="9.229" ry="9.229" fill="#0c7f99" stroke="#0c7f99" stroke-width="2" stroke-dasharray="0"/><path fill="none" stroke="#000" d="M12.143 60.714H133.57M12.143 36.429H133.57M12.143 12.143H133.57M12.143 60.714V12.143M36.429 60.714V12.143M60.714 60.714V12.143M85 60.714V12.143M109.286 60.714V12.143M133.571 60.714V12.143" stroke-width="2"/><ellipse cx="97.143" cy="24.286" rx="9.229" ry="9.229" fill="#ca337c" stroke="#ca337c" stroke-width="2" stroke-dasharray="0"/><path fill="none" stroke="#000" d="M87.914 33.514l18.457-18.457M87.914 15.057l18.457 18.457" stroke-width="2"/><ellipse cx="121.429" cy="24.286" rx="9.229" ry="9.229" fill="#ca337c" stroke="#ca337c" stroke-width="2" stroke-dasharray="0"/><path fill="none" stroke="#000" d="M112.2 33.514l18.457-18.457M112.2 15.057l18.457 18.457" stroke-width="2"/><ellipse cx="24.286" cy="48.571" rx="9.229" ry="9.229" fill="#ca337c" stroke="#ca337c" stroke-width="2" stroke-dasharray="0"/><path fill="none" stroke="#000" d="M15.057 57.8l18.457-18.457M15.057 39.343L33.514 57.8" stroke-width="2"/><ellipse cx="48.571" cy="48.571" rx="9.229" ry="9.229" fill="#ca337c" stroke="#ca337c" stroke-width="2" stroke-dasharray="0"/><path fill="none" stroke="#000" d="M39.343 57.8L57.8 39.343M39.343 39.343L57.8 57.8" stroke-width="2"/><ellipse cx="72.857" cy="48.571" rx="9.229" ry="9.229" fill="#ca337c" stroke="#ca337c" stroke-width="2" stroke-dasharray="0"/><path fill="none" stroke="#000" d="M63.629 57.8l18.457-18.457M63.629 39.343L82.086 57.8" stroke-width="2"/><ellipse cx="97.143" cy="48.571" rx="9.229" ry="9.229" fill="#ca337c" stroke="#ca337c" stroke-width="2" stroke-dasharray="0"/><path fill="none" stroke="#000" d="M87.914 57.8l18.457-18.457M87.914 39.343L106.371 57.8" stroke-width="2"/><ellipse cx="121.429" cy="48.571" rx="9.229" ry="9.229" fill="#ca337c" stroke="#ca337c" stroke-width="2" stroke-dasharray="0"/><path fill="none" stroke="#000" d="M112.2 57.8l18.457-18.457M112.2 39.343L130.657 57.8" stroke-width="2"/></svg>
