<svg xmlns="http://www.w3.org/2000/svg" width="53.945" height="140" viewBox="0 0 53.94495412844037 140"><path fill="#ccfaff" stroke="#0c7f99" d="M5.138 124.587v12.844h12.844l6.422-6.422v-12.844H11.56z" stroke-width="2"/><path fill="#ccfaff" stroke="#0c7f99" d="M5.138 124.587h12.844v12.844M17.982 124.587l6.422-6.422M5.138 98.9v12.843h12.844l6.422-6.422V92.477H11.56z" stroke-width="2"/><path fill="#ccfaff" stroke="#0c7f99" d="M5.138 98.9h12.844v12.843M17.982 98.9l6.422-6.423M5.138 73.211v12.844h12.844l6.422-6.422V66.789H11.56z" stroke-width="2"/><path fill="#ccfaff" stroke="#0c7f99" d="M5.138 73.211h12.844v12.844M17.982 73.211l6.422-6.422M5.138 47.523v12.844h12.844l6.422-6.422V41.101H11.56z" stroke-width="2"/><path fill="#ccfaff" stroke="#0c7f99" d="M5.138 47.523h12.844v12.844M17.982 47.523l6.422-6.422M5.138 21.835v12.844h12.844l6.422-6.422V15.413H11.56z" stroke-width="2"/><path fill="#ccfaff" stroke="#0c7f99" d="M5.138 21.835h12.844v12.844M17.982 21.835l6.422-6.422M30.826 124.587v12.844H43.67l6.422-6.422v-12.844H37.248z" stroke-width="2"/><path fill="#ccfaff" stroke="#0c7f99" d="M30.826 124.587H43.67v12.844M43.67 124.587l6.422-6.422M30.826 98.9v12.843H43.67l6.422-6.422V92.477H37.248z" stroke-width="2"/><path fill="#ccfaff" stroke="#0c7f99" d="M30.826 98.9H43.67v12.843M43.67 98.9l6.422-6.423" stroke-width="2"/></svg>
