<svg xmlns="http://www.w3.org/2000/svg" width="159.091" height="250" viewBox="0 0 159.0909090909091 250"><path fill="#ccaa4f" d="M29.813 226.29s-5.082 3.207-7.85 1.82c-1.233-.62-.33-2.08 1.322-1.825 1.82.282 3.726-2.662 3.726-2.662l2.802 2.667z" opacity=".8"/><path fill="#e2e2e2" d="M46.252 222.984a.862.862 0 0 0-.743-.383.317.317 0 0 0-.535-.048.862.862 0 0 0-1.157.306.76.76 0 0 0-.721.739l-.022.009a.318.318 0 0 0-.158.421l.014.027a.862.862 0 0 0 .259 1.009.311.311 0 0 0-.015.288l.003.004a.47.47 0 0 0 .503.781.471.471 0 0 0 .163-.124.319.319 0 0 0 .383.018.79.79 0 0 0 1.017-.123.517.517 0 0 0 .506-.292.724.724 0 0 0 .774-.737.228.228 0 0 0 .064-.313.575.575 0 0 0 .053-.829.575.575 0 0 0-.388-.753m-1.664 1.361l.006.001-.005.012-.001-.013z"/><path fill="#eec65e" d="M35.564 205.778s1.89-1.583 3.653-1.613c1.155-.02 2.715.077 4.2-.395 4.016-1.274.06 4.076-4.387 7.142-3.085 2.13-7.209 4.035-7.274 1.635-.054-2.032 3.808-6.769 3.808-6.769z"/><path fill="#f7a996" d="M34.657 209.539s1.675-2.346 3.642-2.8c2.312-.534 4.877-2.05 5.486-1.705.741.422-1.265 2.531-2.076 3.35-1.206 1.215-3.905 3.084-5.67 3.717-1.254.453-2.204.68-2.743-.453-.538-1.134 1.361-2.109 1.361-2.109z"/><path fill="#ccaa4f" d="M34.82 209.34c-.621-.322-1.13-.513-1.13-.513s-.525-.019-1.105.224c.238.844.922 1.74.922 1.74l1.313-1.451z"/><path fill="#eec65e" d="M31.603 218.829s1.463 1.018 3.63.887c3.978-.243 6.59.235 8.285 3.062 2.273 3.787-.379 11.01-7.883 9.169-11.003-2.699-10.01-15.044-10.01-15.044l5.978 1.926z"/><path fill="#ccaa4f" d="M26.68 224.308c2.944-.087 5.802-.226 8.554-4.592-.637-.041-.166-1.32-.896-1.304-2.11.046-3.489-1.015-3.489-1.015l-5.856-2.775c0-.001.401 4.509 1.687 9.686z" opacity=".5"/><path fill="#eec65e" d="M27.4 206.545s-.05-2.344-.856-3.826c-.53-.973-1.307-2.227-1.751-3.691-1.205-3.967-2.17 1.924-1.706 7.115.322 3.603 1.244 7.962 2.535 6.853 1.092-.937 1.778-6.451 1.778-6.451z"/><path fill="#f7a996" d="M26.089 210.284s.509-3.034-.246-5.238c-.89-2.591-1.332-6.011-1.852-6.406-.634-.48-.832 2.739-.891 4.022-.09 1.904.216 5.665.76 7.778.388 1.501.748 2.57 1.695 2.43s.534-2.586.534-2.586z"/><path fill="#eec65e" d="M26.827 209.564s1.804-1.062 3.604-.933c1.254.09 2.723.318 3.971 1.525 1.7 1.643 2.102 4.355 2.123 5.742.055 3.666-2.393 5.987-6.19 5.898-3.744-.087-6.76-2.534-6.509-6.186.143-2.083.815-4.77 3.001-6.046z"/><path fill="#eec65e" d="M29.521 208.78s.624-1.14 1.795-1.313c0 0-1.484.817-1.514 1.543l-.28-.23z"/><ellipse cx="27.436" cy="216.285" rx=".49" ry=".682" fill="#304454" transform="rotate(1.559 27.436 216.285)"/><ellipse cx="33.416" cy="216.285" rx=".49" ry=".682" fill="#304454" transform="rotate(1.559 33.416 216.285)"/><ellipse cx="30.912" cy="219.131" rx=".858" ry=".652" fill="#cda245" transform="rotate(187.048 30.912 219.13)"/><path fill="#eec65e" d="M29.877 208.651s1.015-.811 2.163-.519c0 0-1.685.181-1.993.84l-.17-.321z"/><path fill="#ccaa4f" d="M34.091 231.363l.02.002c.567.088 1.142-.137 1.665-.489-1.443-4.773 1.54-6.87 3.868-5.94 1.976.79 3.108 3.211 1.555 5.882a1.47 1.47 0 0 1-.572.54l.012.011s-.519.327-1.313.726c-1.02.171-2.19.133-3.515-.192-.612-.15-1.18-.334-1.72-.54z" opacity=".5"/><path fill="#eec65e" d="M35.049 231.919c.567.088 1.142-.137 1.666-.489-1.444-4.773 1.539-6.869 3.867-5.94 1.976.79 3.109 3.211 1.555 5.882a1.47 1.47 0 0 1-.572.54l.012.012s-1.583.998-3.463 1.64a.187.187 0 0 1-.187.061c-1.441.469-3.027.706-4.2.118-1.233-.62-.33-2.08 1.322-1.824z"/><path fill="#ccaa4f" d="M30.113 228.726c.901-.778 1.55-1.777 1.55-1.777l2.039 1.889s-.127 1.339-1.363 1.89a11.541 11.541 0 0 1-2.226-2.002z" opacity=".5"/><path fill="#eec65e" d="M33.95 228.765s-5.42 3.405-8.366 1.938c-1.314-.655-.35-2.204 1.41-1.934 1.939.296 3.974-2.826 3.974-2.826l2.982 2.822z"/><path fill="none" stroke="#cda245" d="M34.954 218.955s1.364.062 2.05.445M35.087 218.306s1.293-.438 2.07-.33" stroke-miterlimit="10"/><path fill="none" stroke="#cda245" d="M26.63 219.63s-1.407.062-2.116.445M26.493 218.98s-1.334-.438-2.137-.33" stroke-width=".384" stroke-miterlimit="10"/><path fill="#ccaa4f" d="M29.813 180.835s-5.082 3.207-7.85 1.82c-1.233-.62-.33-2.08 1.322-1.825 1.82.282 3.726-2.662 3.726-2.662l2.802 2.667z" opacity=".8"/><path fill="#e2e2e2" d="M46.252 177.529a.862.862 0 0 0-.743-.383.317.317 0 0 0-.535-.048.862.862 0 0 0-1.157.306.76.76 0 0 0-.721.739l-.022.009a.318.318 0 0 0-.158.421l.014.027a.862.862 0 0 0 .259 1.009.311.311 0 0 0-.015.288l.003.004a.47.47 0 0 0 .503.781.471.471 0 0 0 .163-.124.319.319 0 0 0 .383.018.79.79 0 0 0 1.017-.123.517.517 0 0 0 .506-.292.724.724 0 0 0 .774-.737.228.228 0 0 0 .064-.313.575.575 0 0 0 .053-.829.575.575 0 0 0-.388-.753m-1.664 1.361l.006.001-.005.012-.001-.013z"/><path fill="#eec65e" d="M35.564 160.323s1.89-1.583 3.653-1.613c1.155-.02 2.715.077 4.2-.395 4.016-1.274.06 4.076-4.387 7.142-3.085 2.13-7.209 4.035-7.274 1.635-.054-2.032 3.808-6.769 3.808-6.769z"/><path fill="#f7a996" d="M34.657 164.084s1.675-2.346 3.642-2.8c2.312-.534 4.877-2.05 5.486-1.705.741.422-1.265 2.531-2.076 3.35-1.206 1.215-3.905 3.084-5.67 3.717-1.254.453-2.204.68-2.743-.453-.538-1.134 1.361-2.109 1.361-2.109z"/><path fill="#ccaa4f" d="M34.82 163.885c-.621-.322-1.13-.513-1.13-.513s-.525-.019-1.105.224c.238.844.922 1.74.922 1.74l1.313-1.451z"/><path fill="#eec65e" d="M31.603 173.375s1.463 1.018 3.63.887c3.978-.243 6.59.235 8.285 3.062 2.273 3.787-.379 11.01-7.883 9.169-11.003-2.699-10.01-15.044-10.01-15.044l5.978 1.926z"/><path fill="#ccaa4f" d="M26.68 178.853c2.944-.087 5.802-.226 8.554-4.592-.637-.041-.166-1.32-.896-1.304-2.11.046-3.489-1.015-3.489-1.015l-5.856-2.775c0-.001.401 4.509 1.687 9.686z" opacity=".5"/><path fill="#eec65e" d="M27.4 161.091s-.05-2.344-.856-3.826c-.53-.973-1.307-2.227-1.751-3.691-1.205-3.967-2.17 1.924-1.706 7.115.322 3.603 1.244 7.962 2.535 6.853 1.092-.937 1.778-6.451 1.778-6.451z"/><path fill="#f7a996" d="M26.089 164.83s.509-3.034-.246-5.238c-.89-2.591-1.332-6.011-1.852-6.406-.634-.48-.832 2.739-.891 4.022-.09 1.904.216 5.665.76 7.778.388 1.501.748 2.57 1.695 2.43s.534-2.586.534-2.586z"/><path fill="#eec65e" d="M26.827 164.109s1.804-1.062 3.604-.933c1.254.09 2.723.318 3.971 1.525 1.7 1.643 2.102 4.355 2.123 5.742.055 3.666-2.393 5.987-6.19 5.898-3.744-.087-6.76-2.534-6.509-6.186.143-2.083.815-4.77 3.001-6.046z"/><path fill="#eec65e" d="M29.521 163.326s.624-1.14 1.795-1.313c0 0-1.484.817-1.514 1.543l-.28-.23z"/><ellipse cx="27.436" cy="170.83" rx=".49" ry=".682" fill="#304454" transform="rotate(1.559 27.436 170.83)"/><ellipse cx="33.416" cy="170.83" rx=".49" ry=".682" fill="#304454" transform="rotate(1.559 33.416 170.83)"/><ellipse cx="30.912" cy="173.676" rx=".858" ry=".652" fill="#cda245" transform="rotate(187.048 30.912 173.676)"/><path fill="#eec65e" d="M29.877 163.196s1.015-.811 2.163-.519c0 0-1.685.181-1.993.84l-.17-.321z"/><path fill="#ccaa4f" d="M34.091 185.908l.02.002c.567.088 1.142-.137 1.665-.489-1.443-4.773 1.54-6.87 3.868-5.94 1.976.79 3.108 3.211 1.555 5.882a1.47 1.47 0 0 1-.572.54l.012.011s-.519.327-1.313.726c-1.02.171-2.19.133-3.515-.192-.612-.15-1.18-.334-1.72-.54z" opacity=".5"/><path fill="#eec65e" d="M35.049 186.464c.567.088 1.142-.137 1.666-.489-1.444-4.773 1.539-6.869 3.867-5.94 1.976.79 3.109 3.211 1.555 5.882a1.47 1.47 0 0 1-.572.54l.012.012s-1.583.998-3.463 1.64a.187.187 0 0 1-.187.061c-1.441.469-3.027.706-4.2.118-1.233-.62-.33-2.08 1.322-1.824z"/><path fill="#ccaa4f" d="M30.113 183.271c.901-.778 1.55-1.777 1.55-1.777l2.039 1.889s-.127 1.339-1.363 1.89a11.541 11.541 0 0 1-2.226-2.002z" opacity=".5"/><path fill="#eec65e" d="M33.95 183.31s-5.42 3.405-8.366 1.938c-1.314-.655-.35-2.204 1.41-1.934 1.939.296 3.974-2.826 3.974-2.826l2.982 2.822z"/><path fill="none" stroke="#cda245" d="M34.954 173.501s1.364.062 2.05.445M35.087 172.851s1.293-.438 2.07-.33" stroke-miterlimit="10"/><path fill="none" stroke="#cda245" d="M26.63 174.176s-1.407.062-2.116.445M26.493 173.525s-1.334-.438-2.137-.33" stroke-width=".384" stroke-miterlimit="10"/><path fill="#ccaa4f" d="M29.813 135.38s-5.082 3.207-7.85 1.82c-1.233-.62-.33-2.08 1.322-1.825 1.82.282 3.726-2.662 3.726-2.662l2.802 2.667z" opacity=".8"/><path fill="#e2e2e2" d="M46.252 132.075a.862.862 0 0 0-.743-.383.317.317 0 0 0-.535-.048.862.862 0 0 0-1.157.306.76.76 0 0 0-.721.739l-.022.009a.318.318 0 0 0-.158.421l.014.027a.862.862 0 0 0 .259 1.009.311.311 0 0 0-.015.288l.003.004a.47.47 0 0 0 .503.781.471.471 0 0 0 .163-.124.319.319 0 0 0 .383.018.79.79 0 0 0 1.017-.123.517.517 0 0 0 .506-.292.724.724 0 0 0 .774-.737.228.228 0 0 0 .064-.313.575.575 0 0 0 .053-.829.575.575 0 0 0-.388-.753m-1.664 1.361l.006.001-.005.012-.001-.013z"/><path fill="#eec65e" d="M35.564 114.869s1.89-1.583 3.653-1.613c1.155-.02 2.715.077 4.2-.395 4.016-1.274.06 4.076-4.387 7.142-3.085 2.13-7.209 4.035-7.274 1.635-.054-2.032 3.808-6.769 3.808-6.769z"/><path fill="#f7a996" d="M34.657 118.63s1.675-2.346 3.642-2.8c2.312-.534 4.877-2.05 5.486-1.705.741.422-1.265 2.531-2.076 3.35-1.206 1.215-3.905 3.084-5.67 3.717-1.254.453-2.204.68-2.743-.453-.538-1.134 1.361-2.109 1.361-2.109z"/><path fill="#ccaa4f" d="M34.82 118.43c-.621-.322-1.13-.513-1.13-.513s-.525-.019-1.105.224c.238.844.922 1.74.922 1.74l1.313-1.451z"/><path fill="#eec65e" d="M31.603 127.92s1.463 1.018 3.63.887c3.978-.243 6.59.235 8.285 3.062 2.273 3.787-.379 11.01-7.883 9.169-11.003-2.699-10.01-15.044-10.01-15.044l5.978 1.926z"/><path fill="#ccaa4f" d="M26.68 133.399c2.944-.087 5.802-.226 8.554-4.592-.637-.041-.166-1.32-.896-1.304-2.11.046-3.489-1.015-3.489-1.015l-5.856-2.775c0-.001.401 4.509 1.687 9.686z" opacity=".5"/><path fill="#eec65e" d="M27.4 115.636s-.05-2.344-.856-3.826c-.53-.973-1.307-2.227-1.751-3.691-1.205-3.967-2.17 1.924-1.706 7.115.322 3.603 1.244 7.962 2.535 6.853 1.092-.937 1.778-6.451 1.778-6.451z"/><path fill="#f7a996" d="M26.089 119.375s.509-3.034-.246-5.238c-.89-2.591-1.332-6.011-1.852-6.406-.634-.48-.832 2.739-.891 4.022-.09 1.904.216 5.665.76 7.778.388 1.501.748 2.57 1.695 2.43.947-.14.534-2.586.534-2.586z"/><path fill="#eec65e" d="M26.827 118.655s1.804-1.062 3.604-.933c1.254.09 2.723.318 3.971 1.525 1.7 1.643 2.102 4.355 2.123 5.742.055 3.666-2.393 5.987-6.19 5.898-3.744-.087-6.76-2.534-6.509-6.186.143-2.083.815-4.77 3.001-6.046z"/><path fill="#eec65e" d="M29.521 117.871s.624-1.14 1.795-1.313c0 0-1.484.817-1.514 1.543l-.28-.23z"/><ellipse cx="27.436" cy="125.376" rx=".49" ry=".682" fill="#304454" transform="rotate(1.559 27.436 125.376)"/><ellipse cx="33.416" cy="125.376" rx=".49" ry=".682" fill="#304454" transform="rotate(1.559 33.416 125.376)"/><ellipse cx="30.912" cy="128.222" rx=".858" ry=".652" fill="#cda245" transform="rotate(187.048 30.912 128.222)"/><path fill="#eec65e" d="M29.877 117.742s1.015-.811 2.163-.519c0 0-1.685.181-1.993.84l-.17-.321z"/><path fill="#ccaa4f" d="M34.091 140.453l.02.002c.567.088 1.142-.137 1.665-.489-1.443-4.773 1.54-6.87 3.868-5.94 1.976.79 3.108 3.211 1.555 5.882a1.47 1.47 0 0 1-.572.54l.012.011s-.519.327-1.313.726c-1.02.171-2.19.133-3.515-.192-.612-.15-1.18-.334-1.72-.54z" opacity=".5"/><path fill="#eec65e" d="M35.049 141.01c.567.088 1.142-.137 1.666-.489-1.444-4.773 1.539-6.869 3.867-5.94 1.976.79 3.109 3.211 1.555 5.882a1.47 1.47 0 0 1-.572.54l.012.012s-1.583.998-3.463 1.64a.187.187 0 0 1-.187.061c-1.441.469-3.027.706-4.2.118-1.233-.62-.33-2.08 1.322-1.824z"/><path fill="#ccaa4f" d="M30.113 137.817c.901-.778 1.55-1.777 1.55-1.777l2.039 1.889s-.127 1.339-1.363 1.89a11.541 11.541 0 0 1-2.226-2.002z" opacity=".5"/><path fill="#eec65e" d="M33.95 137.856s-5.42 3.405-8.366 1.938c-1.314-.655-.35-2.204 1.41-1.934 1.939.296 3.974-2.826 3.974-2.826l2.982 2.822z"/><path fill="none" stroke="#cda245" d="M34.954 128.046s1.364.062 2.05.445M35.087 127.396s1.293-.438 2.07-.33" stroke-miterlimit="10"/><path fill="none" stroke="#cda245" d="M26.63 128.721s-1.407.062-2.116.445M26.493 128.071s-1.334-.438-2.137-.33" stroke-width=".384" stroke-miterlimit="10"/><path fill="#ccaa4f" d="M29.813 89.926s-5.082 3.207-7.85 1.82c-1.233-.62-.33-2.08 1.322-1.825 1.82.282 3.726-2.662 3.726-2.662l2.802 2.667z" opacity=".8"/><path fill="#e2e2e2" d="M46.252 86.62a.862.862 0 0 0-.743-.383.317.317 0 0 0-.535-.048.862.862 0 0 0-1.157.306.76.76 0 0 0-.721.74l-.022.008a.318.318 0 0 0-.158.421c.005.01.009.02.014.027a.862.862 0 0 0 .259 1.01.311.311 0 0 0-.015.287l.003.004a.47.47 0 0 0 .503.781.471.471 0 0 0 .163-.124.319.319 0 0 0 .383.018.79.79 0 0 0 1.017-.123.517.517 0 0 0 .506-.292.724.724 0 0 0 .774-.737.228.228 0 0 0 .064-.313.575.575 0 0 0 .053-.829.575.575 0 0 0-.388-.753m-1.664 1.361l.006.001-.005.012-.001-.013z"/><path fill="#eec65e" d="M35.564 69.414s1.89-1.583 3.653-1.613c1.155-.02 2.715.077 4.2-.395 4.016-1.274.06 4.076-4.387 7.142-3.085 2.13-7.209 4.035-7.274 1.635-.054-2.032 3.808-6.769 3.808-6.769z"/><path fill="#f7a996" d="M34.657 73.175s1.675-2.346 3.642-2.8c2.312-.534 4.877-2.05 5.486-1.705.741.422-1.265 2.531-2.076 3.35-1.206 1.215-3.905 3.084-5.67 3.717-1.254.453-2.204.68-2.743-.453-.538-1.134 1.361-2.109 1.361-2.109z"/><path fill="#ccaa4f" d="M34.82 72.976c-.621-.322-1.13-.513-1.13-.513s-.525-.02-1.105.224c.238.844.922 1.74.922 1.74l1.313-1.451z"/><path fill="#eec65e" d="M31.603 82.466s1.463 1.018 3.63.887c3.978-.243 6.59.235 8.285 3.062 2.273 3.787-.379 11.01-7.883 9.169-11.003-2.7-10.01-15.044-10.01-15.044l5.978 1.926z"/><path fill="#ccaa4f" d="M26.68 87.944c2.944-.087 5.802-.226 8.554-4.592-.637-.04-.166-1.32-.896-1.304-2.11.046-3.489-1.015-3.489-1.015l-5.856-2.775s.401 4.51 1.687 9.686z" opacity=".5"/><path fill="#eec65e" d="M27.4 70.182s-.05-2.344-.856-3.826c-.53-.973-1.307-2.227-1.751-3.691-1.205-3.967-2.17 1.924-1.706 7.115.322 3.603 1.244 7.962 2.535 6.853 1.092-.937 1.778-6.451 1.778-6.451z"/><path fill="#f7a996" d="M26.089 73.92s.509-3.034-.246-5.237c-.89-2.592-1.332-6.012-1.852-6.407-.634-.48-.832 2.74-.891 4.023-.09 1.903.216 5.664.76 7.777.388 1.502.748 2.57 1.695 2.43.947-.14.534-2.585.534-2.585z"/><path fill="#eec65e" d="M26.827 73.2s1.804-1.062 3.604-.933c1.254.09 2.723.318 3.971 1.525 1.7 1.643 2.102 4.355 2.123 5.742.055 3.666-2.393 5.987-6.19 5.898-3.744-.087-6.76-2.534-6.509-6.186.143-2.083.815-4.77 3.001-6.046z"/><path fill="#eec65e" d="M29.521 72.416s.624-1.14 1.795-1.313c0 0-1.484.818-1.514 1.544l-.28-.23z"/><ellipse cx="27.436" cy="79.921" rx=".49" ry=".682" fill="#304454" transform="rotate(1.559 27.436 79.921)"/><ellipse cx="33.416" cy="79.921" rx=".49" ry=".682" fill="#304454" transform="rotate(1.559 33.416 79.921)"/><ellipse cx="30.912" cy="82.767" rx=".858" ry=".652" fill="#cda245" transform="rotate(187.048 30.912 82.767)"/><path fill="#eec65e" d="M29.877 72.287s1.015-.81 2.163-.519c0 0-1.685.181-1.993.84l-.17-.32z"/><path fill="#ccaa4f" d="M34.091 94.999c.007 0 .013 0 .02.002.567.088 1.142-.137 1.665-.49-1.443-4.772 1.54-6.87 3.868-5.94 1.976.79 3.108 3.212 1.555 5.883a1.47 1.47 0 0 1-.572.54l.012.01s-.519.328-1.313.727c-1.02.17-2.19.133-3.515-.192-.612-.15-1.18-.334-1.72-.54z" opacity=".5"/><path fill="#eec65e" d="M35.049 95.555c.567.088 1.142-.137 1.666-.489-1.444-4.773 1.539-6.869 3.867-5.94 1.976.79 3.109 3.211 1.555 5.882a1.47 1.47 0 0 1-.572.54l.012.012s-1.583.998-3.463 1.64a.187.187 0 0 1-.187.061c-1.441.47-3.027.706-4.2.118-1.233-.62-.33-2.08 1.322-1.824z"/><path fill="#ccaa4f" d="M30.113 92.362c.901-.778 1.55-1.777 1.55-1.777l2.039 1.89s-.127 1.338-1.363 1.89a11.541 11.541 0 0 1-2.226-2.003z" opacity=".5"/><path fill="#eec65e" d="M33.95 92.401s-5.42 3.405-8.366 1.938c-1.314-.655-.35-2.204 1.41-1.934 1.939.296 3.974-2.826 3.974-2.826l2.982 2.822z"/><path fill="none" stroke="#cda245" d="M34.954 82.592s1.364.062 2.05.445M35.087 81.942s1.293-.438 2.07-.33" stroke-miterlimit="10"/><path fill="none" stroke="#cda245" d="M26.63 83.266s-1.407.063-2.116.445M26.493 82.616s-1.334-.438-2.137-.33" stroke-width=".384" stroke-miterlimit="10"/><path fill="#ccaa4f" d="M29.813 44.471s-5.082 3.207-7.85 1.82c-1.233-.62-.33-2.08 1.322-1.825 1.82.282 3.726-2.662 3.726-2.662l2.802 2.667z" opacity=".8"/><path fill="#e2e2e2" d="M46.252 41.166a.862.862 0 0 0-.743-.383.317.317 0 0 0-.535-.048.862.862 0 0 0-1.157.306.76.76 0 0 0-.721.739l-.022.009a.318.318 0 0 0-.158.42l.014.028a.862.862 0 0 0 .259 1.009.311.311 0 0 0-.015.288l.003.004a.47.47 0 0 0 .503.78.471.471 0 0 0 .163-.123.319.319 0 0 0 .383.018.79.79 0 0 0 1.017-.123.517.517 0 0 0 .506-.292.724.724 0 0 0 .774-.737.228.228 0 0 0 .064-.313.575.575 0 0 0 .053-.83.575.575 0 0 0-.388-.752m-1.664 1.36c.002.002.004.002.006.002l-.005.012-.001-.013z"/><path fill="#eec65e" d="M35.564 23.96s1.89-1.584 3.653-1.614c1.155-.02 2.715.077 4.2-.395 4.016-1.274.06 4.076-4.387 7.142-3.085 2.13-7.209 4.035-7.274 1.635-.054-2.032 3.808-6.769 3.808-6.769z"/><path fill="#f7a996" d="M34.657 27.72s1.675-2.345 3.642-2.8c2.312-.533 4.877-2.05 5.486-1.704.741.422-1.265 2.53-2.076 3.35-1.206 1.215-3.905 3.084-5.67 3.717-1.254.453-2.204.68-2.743-.453-.538-1.134 1.361-2.11 1.361-2.11z"/><path fill="#ccaa4f" d="M34.82 27.521c-.621-.322-1.13-.513-1.13-.513s-.525-.019-1.105.224c.238.844.922 1.74.922 1.74l1.313-1.45z"/><path fill="#eec65e" d="M31.603 37.011s1.463 1.018 3.63.887c3.978-.243 6.59.235 8.285 3.062 2.273 3.787-.379 11.01-7.883 9.17-11.003-2.7-10.01-15.045-10.01-15.045l5.978 1.926z"/><path fill="#ccaa4f" d="M26.68 42.49c2.944-.087 5.802-.226 8.554-4.592-.637-.041-.166-1.32-.896-1.304-2.11.046-3.489-1.015-3.489-1.015l-5.856-2.775c0-.001.401 4.509 1.687 9.686z" opacity=".5"/><path fill="#eec65e" d="M27.4 24.727s-.05-2.344-.856-3.826c-.53-.973-1.307-2.227-1.751-3.69-1.205-3.968-2.17 1.923-1.706 7.114.322 3.603 1.244 7.962 2.535 6.853 1.092-.937 1.778-6.45 1.778-6.45z"/><path fill="#f7a996" d="M26.089 28.466s.509-3.034-.246-5.238c-.89-2.591-1.332-6.011-1.852-6.406-.634-.48-.832 2.739-.891 4.022-.09 1.904.216 5.665.76 7.778.388 1.5.748 2.57 1.695 2.43s.534-2.586.534-2.586z"/><path fill="#eec65e" d="M26.827 27.746s1.804-1.062 3.604-.933c1.254.09 2.723.318 3.971 1.525 1.7 1.643 2.102 4.355 2.123 5.742.055 3.666-2.393 5.987-6.19 5.898-3.744-.087-6.76-2.534-6.509-6.186.143-2.083.815-4.77 3.001-6.046z"/><path fill="#eec65e" d="M29.521 26.962s.624-1.14 1.795-1.313c0 0-1.484.817-1.514 1.543l-.28-.23z"/><ellipse cx="27.436" cy="34.466" rx=".49" ry=".682" fill="#304454" transform="rotate(1.559 27.436 34.466)"/><ellipse cx="33.416" cy="34.466" rx=".49" ry=".682" fill="#304454" transform="rotate(1.559 33.416 34.466)"/><ellipse cx="30.912" cy="37.313" rx=".858" ry=".652" fill="#cda245" transform="rotate(187.048 30.912 37.313)"/><path fill="#eec65e" d="M29.877 26.833s1.015-.811 2.163-.52c0 0-1.685.182-1.993.84l-.17-.32z"/><path fill="#ccaa4f" d="M34.091 49.544l.02.002c.567.088 1.142-.137 1.665-.489-1.443-4.773 1.54-6.87 3.868-5.94 1.976.79 3.108 3.211 1.555 5.882a1.47 1.47 0 0 1-.572.54l.012.011s-.519.327-1.313.726c-1.02.171-2.19.133-3.515-.192-.612-.15-1.18-.334-1.72-.54z" opacity=".5"/><path fill="#eec65e" d="M35.049 50.1c.567.089 1.142-.136 1.666-.488-1.444-4.773 1.539-6.87 3.867-5.94 1.976.79 3.109 3.21 1.555 5.882a1.47 1.47 0 0 1-.572.54l.012.012s-1.583.998-3.463 1.64a.187.187 0 0 1-.187.06c-1.441.47-3.027.707-4.2.119-1.233-.62-.33-2.08 1.322-1.824z"/><path fill="#ccaa4f" d="M30.113 46.908c.901-.778 1.55-1.777 1.55-1.777l2.039 1.889s-.127 1.339-1.363 1.89a11.541 11.541 0 0 1-2.226-2.002z" opacity=".5"/><path fill="#eec65e" d="M33.95 46.947s-5.42 3.405-8.366 1.938c-1.314-.655-.35-2.204 1.41-1.934 1.939.296 3.974-2.826 3.974-2.826l2.982 2.822z"/><path fill="none" stroke="#cda245" d="M34.954 37.137s1.364.062 2.05.445M35.087 36.487s1.293-.438 2.07-.33" stroke-miterlimit="10"/><path fill="none" stroke="#cda245" d="M26.63 37.812s-1.407.062-2.116.445M26.493 37.162s-1.334-.438-2.137-.33" stroke-width=".384" stroke-miterlimit="10"/><path fill="#ccaa4f" d="M75.267 226.29s-5.082 3.207-7.849 1.82c-1.234-.62-.33-2.08 1.321-1.825 1.82.282 3.726-2.662 3.726-2.662l2.802 2.667z" opacity=".8"/><path fill="#e2e2e2" d="M91.707 222.984a.862.862 0 0 0-.743-.383.317.317 0 0 0-.535-.048.862.862 0 0 0-1.157.306.76.76 0 0 0-.721.739l-.022.009a.318.318 0 0 0-.158.421l.014.027a.862.862 0 0 0 .259 1.009.311.311 0 0 0-.015.288l.003.004a.47.47 0 0 0 .503.781.471.471 0 0 0 .163-.124.319.319 0 0 0 .383.018.79.79 0 0 0 1.017-.123.517.517 0 0 0 .506-.292.724.724 0 0 0 .774-.737.228.228 0 0 0 .064-.313.575.575 0 0 0 .053-.829.575.575 0 0 0-.388-.753m-1.664 1.361a.013.013 0 0 0 .006.001l-.005.012-.001-.013z"/><path fill="#eec65e" d="M81.019 205.778s1.89-1.583 3.653-1.613c1.155-.02 2.715.077 4.2-.395 4.016-1.274.059 4.076-4.387 7.142-3.085 2.13-7.21 4.035-7.274 1.635-.054-2.032 3.808-6.769 3.808-6.769z"/><path fill="#f7a996" d="M80.112 209.539s1.675-2.346 3.642-2.8c2.312-.534 4.877-2.05 5.486-1.705.74.422-1.265 2.531-2.076 3.35-1.206 1.215-3.905 3.084-5.67 3.717-1.254.453-2.204.68-2.743-.453-.538-1.134 1.36-2.109 1.36-2.109z"/><path fill="#ccaa4f" d="M80.274 209.34c-.62-.322-1.13-.513-1.13-.513s-.525-.019-1.105.224c.238.844.922 1.74.922 1.74l1.313-1.451z"/><path fill="#eec65e" d="M77.058 218.829s1.463 1.018 3.63.887c3.978-.243 6.589.235 8.285 3.062 2.273 3.787-.38 11.01-7.883 9.169-11.003-2.699-10.011-15.044-10.011-15.044l5.979 1.926z"/><path fill="#ccaa4f" d="M72.135 224.308c2.944-.087 5.802-.226 8.554-4.592-.637-.041-.166-1.32-.896-1.304-2.111.046-3.49-1.015-3.49-1.015l-5.855-2.775c0-.001.4 4.509 1.687 9.686z" opacity=".5"/><path fill="#eec65e" d="M72.854 206.545s-.049-2.344-.856-3.826c-.529-.973-1.307-2.227-1.75-3.691-1.206-3.967-2.17 1.924-1.707 7.115.322 3.603 1.244 7.962 2.535 6.853 1.092-.937 1.778-6.451 1.778-6.451z"/><path fill="#f7a996" d="M71.543 210.284s.51-3.034-.246-5.238c-.889-2.591-1.332-6.011-1.852-6.406-.634-.48-.832 2.739-.89 4.022-.09 1.904.215 5.665.76 7.778.387 1.501.747 2.57 1.694 2.43s.534-2.586.534-2.586z"/><path fill="#eec65e" d="M72.282 209.564s1.804-1.062 3.604-.933c1.254.09 2.723.318 3.97 1.525 1.7 1.643 2.103 4.355 2.124 5.742.055 3.666-2.393 5.987-6.191 5.898-3.743-.087-6.76-2.534-6.508-6.186.143-2.083.815-4.77 3-6.046z"/><path fill="#eec65e" d="M74.976 208.78s.624-1.14 1.795-1.313c0 0-1.484.817-1.514 1.543l-.281-.23z"/><ellipse cx="72.89" cy="216.285" rx=".49" ry=".682" fill="#304454" transform="rotate(1.559 72.89 216.285)"/><ellipse cx="78.871" cy="216.285" rx=".49" ry=".682" fill="#304454" transform="rotate(1.559 78.87 216.285)"/><ellipse cx="76.366" cy="219.131" rx=".858" ry=".652" fill="#cda245" transform="rotate(187.048 76.366 219.13)"/><path fill="#eec65e" d="M75.331 208.651s1.015-.811 2.163-.519c0 0-1.685.181-1.993.84l-.17-.321z"/><path fill="#ccaa4f" d="M79.546 231.363l.02.002c.567.088 1.142-.137 1.665-.489-1.443-4.773 1.54-6.87 3.868-5.94 1.976.79 3.108 3.211 1.555 5.882a1.47 1.47 0 0 1-.572.54l.012.011s-.52.327-1.313.726c-1.021.171-2.191.133-3.515-.192-.612-.15-1.18-.334-1.72-.54z" opacity=".5"/><path fill="#eec65e" d="M80.503 231.919c.567.088 1.142-.137 1.666-.489-1.444-4.773 1.54-6.869 3.867-5.94 1.976.79 3.11 3.211 1.555 5.882a1.47 1.47 0 0 1-.572.54l.012.012s-1.583.998-3.463 1.64a.187.187 0 0 1-.187.061c-1.44.469-3.027.706-4.199.118-1.234-.62-.33-2.08 1.321-1.824z"/><path fill="#ccaa4f" d="M75.567 228.726c.902-.778 1.55-1.777 1.55-1.777l2.04 1.889s-.127 1.339-1.364 1.89a11.541 11.541 0 0 1-2.226-2.002z" opacity=".5"/><path fill="#eec65e" d="M79.404 228.765s-5.419 3.405-8.366 1.938c-1.314-.655-.35-2.204 1.41-1.934 1.94.296 3.974-2.826 3.974-2.826l2.982 2.822z"/><path fill="none" stroke="#cda245" d="M80.408 218.955s1.364.062 2.051.445M80.541 218.306s1.294-.438 2.071-.33" stroke-miterlimit="10"/><path fill="none" stroke="#cda245" d="M72.084 219.63s-1.407.062-2.116.445M71.947 218.98s-1.334-.438-2.137-.33" stroke-width=".384" stroke-miterlimit="10"/><path fill="#ccaa4f" d="M75.267 180.835s-5.082 3.207-7.849 1.82c-1.234-.62-.33-2.08 1.321-1.825 1.82.282 3.726-2.662 3.726-2.662l2.802 2.667z" opacity=".8"/><path fill="#e2e2e2" d="M91.707 177.529a.862.862 0 0 0-.743-.383.317.317 0 0 0-.535-.048.862.862 0 0 0-1.157.306.76.76 0 0 0-.721.739l-.022.009a.318.318 0 0 0-.158.421l.014.027a.862.862 0 0 0 .259 1.009.311.311 0 0 0-.015.288l.003.004a.47.47 0 0 0 .503.781.471.471 0 0 0 .163-.124.319.319 0 0 0 .383.018.79.79 0 0 0 1.017-.123.517.517 0 0 0 .506-.292.724.724 0 0 0 .774-.737.228.228 0 0 0 .064-.313.575.575 0 0 0 .053-.829.575.575 0 0 0-.388-.753m-1.664 1.361a.013.013 0 0 0 .006.001l-.005.012-.001-.013z"/><path fill="#eec65e" d="M81.019 160.323s1.89-1.583 3.653-1.613c1.155-.02 2.715.077 4.2-.395 4.016-1.274.059 4.076-4.387 7.142-3.085 2.13-7.21 4.035-7.274 1.635-.054-2.032 3.808-6.769 3.808-6.769z"/><path fill="#f7a996" d="M80.112 164.084s1.675-2.346 3.642-2.8c2.312-.534 4.877-2.05 5.486-1.705.74.422-1.265 2.531-2.076 3.35-1.206 1.215-3.905 3.084-5.67 3.717-1.254.453-2.204.68-2.743-.453-.538-1.134 1.36-2.109 1.36-2.109z"/><path fill="#ccaa4f" d="M80.274 163.885c-.62-.322-1.13-.513-1.13-.513s-.525-.019-1.105.224c.238.844.922 1.74.922 1.74l1.313-1.451z"/><path fill="#eec65e" d="M77.058 173.375s1.463 1.018 3.63.887c3.978-.243 6.589.235 8.285 3.062 2.273 3.787-.38 11.01-7.883 9.169-11.003-2.699-10.011-15.044-10.011-15.044l5.979 1.926z"/><path fill="#ccaa4f" d="M72.135 178.853c2.944-.087 5.802-.226 8.554-4.592-.637-.041-.166-1.32-.896-1.304-2.111.046-3.49-1.015-3.49-1.015l-5.855-2.775c0-.001.4 4.509 1.687 9.686z" opacity=".5"/><path fill="#eec65e" d="M72.854 161.091s-.049-2.344-.856-3.826c-.529-.973-1.307-2.227-1.75-3.691-1.206-3.967-2.17 1.924-1.707 7.115.322 3.603 1.244 7.962 2.535 6.853 1.092-.937 1.778-6.451 1.778-6.451z"/><path fill="#f7a996" d="M71.543 164.83s.51-3.034-.246-5.238c-.889-2.591-1.332-6.011-1.852-6.406-.634-.48-.832 2.739-.89 4.022-.09 1.904.215 5.665.76 7.778.387 1.501.747 2.57 1.694 2.43s.534-2.586.534-2.586z"/><path fill="#eec65e" d="M72.282 164.109s1.804-1.062 3.604-.933c1.254.09 2.723.318 3.97 1.525 1.7 1.643 2.103 4.355 2.124 5.742.055 3.666-2.393 5.987-6.191 5.898-3.743-.087-6.76-2.534-6.508-6.186.143-2.083.815-4.77 3-6.046z"/><path fill="#eec65e" d="M74.976 163.326s.624-1.14 1.795-1.313c0 0-1.484.817-1.514 1.543l-.281-.23z"/><ellipse cx="72.89" cy="170.83" rx=".49" ry=".682" fill="#304454" transform="rotate(1.559 72.89 170.83)"/><ellipse cx="78.871" cy="170.83" rx=".49" ry=".682" fill="#304454" transform="rotate(1.559 78.87 170.83)"/><ellipse cx="76.366" cy="173.676" rx=".858" ry=".652" fill="#cda245" transform="rotate(187.048 76.366 173.676)"/><path fill="#eec65e" d="M75.331 163.196s1.015-.811 2.163-.519c0 0-1.685.181-1.993.84l-.17-.321z"/><path fill="#ccaa4f" d="M79.546 185.908l.02.002c.567.088 1.142-.137 1.665-.489-1.443-4.773 1.54-6.87 3.868-5.94 1.976.79 3.108 3.211 1.555 5.882a1.47 1.47 0 0 1-.572.54l.012.011s-.52.327-1.313.726c-1.021.171-2.191.133-3.515-.192-.612-.15-1.18-.334-1.72-.54z" opacity=".5"/><path fill="#eec65e" d="M80.503 186.464c.567.088 1.142-.137 1.666-.489-1.444-4.773 1.54-6.869 3.867-5.94 1.976.79 3.11 3.211 1.555 5.882a1.47 1.47 0 0 1-.572.54l.012.012s-1.583.998-3.463 1.64a.187.187 0 0 1-.187.061c-1.44.469-3.027.706-4.199.118-1.234-.62-.33-2.08 1.321-1.824z"/><path fill="#ccaa4f" d="M75.567 183.271c.902-.778 1.55-1.777 1.55-1.777l2.04 1.889s-.127 1.339-1.364 1.89a11.541 11.541 0 0 1-2.226-2.002z" opacity=".5"/><path fill="#eec65e" d="M79.404 183.31s-5.419 3.405-8.366 1.938c-1.314-.655-.35-2.204 1.41-1.934 1.94.296 3.974-2.826 3.974-2.826l2.982 2.822z"/><path fill="none" stroke="#cda245" d="M80.408 173.501s1.364.062 2.051.445M80.541 172.851s1.294-.438 2.071-.33" stroke-miterlimit="10"/><path fill="none" stroke="#cda245" d="M72.084 174.176s-1.407.062-2.116.445M71.947 173.525s-1.334-.438-2.137-.33" stroke-width=".384" stroke-miterlimit="10"/><path fill="#ccaa4f" d="M75.267 135.38s-5.082 3.207-7.849 1.82c-1.234-.62-.33-2.08 1.321-1.825 1.82.282 3.726-2.662 3.726-2.662l2.802 2.667z" opacity=".8"/><path fill="#e2e2e2" d="M91.707 132.075a.862.862 0 0 0-.743-.383.317.317 0 0 0-.535-.048.862.862 0 0 0-1.157.306.76.76 0 0 0-.721.739l-.022.009a.318.318 0 0 0-.158.421l.014.027a.862.862 0 0 0 .259 1.009.311.311 0 0 0-.015.288l.003.004a.47.47 0 0 0 .503.781.471.471 0 0 0 .163-.124.319.319 0 0 0 .383.018.79.79 0 0 0 1.017-.123.517.517 0 0 0 .506-.292.724.724 0 0 0 .774-.737.228.228 0 0 0 .064-.313.575.575 0 0 0 .053-.829.575.575 0 0 0-.388-.753m-1.664 1.361a.013.013 0 0 0 .006.001l-.005.012-.001-.013z"/><path fill="#eec65e" d="M81.019 114.869s1.89-1.583 3.653-1.613c1.155-.02 2.715.077 4.2-.395 4.016-1.274.059 4.076-4.387 7.142-3.085 2.13-7.21 4.035-7.274 1.635-.054-2.032 3.808-6.769 3.808-6.769z"/><path fill="#f7a996" d="M80.112 118.63s1.675-2.346 3.642-2.8c2.312-.534 4.877-2.05 5.486-1.705.74.422-1.265 2.531-2.076 3.35-1.206 1.215-3.905 3.084-5.67 3.717-1.254.453-2.204.68-2.743-.453-.538-1.134 1.36-2.109 1.36-2.109z"/><path fill="#ccaa4f" d="M80.274 118.43c-.62-.322-1.13-.513-1.13-.513s-.525-.019-1.105.224c.238.844.922 1.74.922 1.74l1.313-1.451z"/><path fill="#eec65e" d="M77.058 127.92s1.463 1.018 3.63.887c3.978-.243 6.589.235 8.285 3.062 2.273 3.787-.38 11.01-7.883 9.169-11.003-2.699-10.011-15.044-10.011-15.044l5.979 1.926z"/><path fill="#ccaa4f" d="M72.135 133.399c2.944-.087 5.802-.226 8.554-4.592-.637-.041-.166-1.32-.896-1.304-2.111.046-3.49-1.015-3.49-1.015l-5.855-2.775c0-.001.4 4.509 1.687 9.686z" opacity=".5"/><path fill="#eec65e" d="M72.854 115.636s-.049-2.344-.856-3.826c-.529-.973-1.307-2.227-1.75-3.691-1.206-3.967-2.17 1.924-1.707 7.115.322 3.603 1.244 7.962 2.535 6.853 1.092-.937 1.778-6.451 1.778-6.451z"/><path fill="#f7a996" d="M71.543 119.375s.51-3.034-.246-5.238c-.889-2.591-1.332-6.011-1.852-6.406-.634-.48-.832 2.739-.89 4.022-.09 1.904.215 5.665.76 7.778.387 1.501.747 2.57 1.694 2.43.947-.14.534-2.586.534-2.586z"/><path fill="#eec65e" d="M72.282 118.655s1.804-1.062 3.604-.933c1.254.09 2.723.318 3.97 1.525 1.7 1.643 2.103 4.355 2.124 5.742.055 3.666-2.393 5.987-6.191 5.898-3.743-.087-6.76-2.534-6.508-6.186.143-2.083.815-4.77 3-6.046z"/><path fill="#eec65e" d="M74.976 117.871s.624-1.14 1.795-1.313c0 0-1.484.817-1.514 1.543l-.281-.23z"/><ellipse cx="72.89" cy="125.376" rx=".49" ry=".682" fill="#304454" transform="rotate(1.559 72.89 125.376)"/><ellipse cx="78.871" cy="125.376" rx=".49" ry=".682" fill="#304454" transform="rotate(1.559 78.87 125.376)"/><ellipse cx="76.366" cy="128.222" rx=".858" ry=".652" fill="#cda245" transform="rotate(187.048 76.366 128.222)"/><path fill="#eec65e" d="M75.331 117.742s1.015-.811 2.163-.519c0 0-1.685.181-1.993.84l-.17-.321z"/><path fill="#ccaa4f" d="M79.546 140.453l.02.002c.567.088 1.142-.137 1.665-.489-1.443-4.773 1.54-6.87 3.868-5.94 1.976.79 3.108 3.211 1.555 5.882a1.47 1.47 0 0 1-.572.54l.012.011s-.52.327-1.313.726c-1.021.171-2.191.133-3.515-.192-.612-.15-1.18-.334-1.72-.54z" opacity=".5"/><path fill="#eec65e" d="M80.503 141.01c.567.088 1.142-.137 1.666-.489-1.444-4.773 1.54-6.869 3.867-5.94 1.976.79 3.11 3.211 1.555 5.882a1.47 1.47 0 0 1-.572.54l.012.012s-1.583.998-3.463 1.64a.187.187 0 0 1-.187.061c-1.44.469-3.027.706-4.199.118-1.234-.62-.33-2.08 1.321-1.824z"/><path fill="#ccaa4f" d="M75.567 137.817c.902-.778 1.55-1.777 1.55-1.777l2.04 1.889s-.127 1.339-1.364 1.89a11.541 11.541 0 0 1-2.226-2.002z" opacity=".5"/><path fill="#eec65e" d="M79.404 137.856s-5.419 3.405-8.366 1.938c-1.314-.655-.35-2.204 1.41-1.934 1.94.296 3.974-2.826 3.974-2.826l2.982 2.822z"/><path fill="none" stroke="#cda245" d="M80.408 128.046s1.364.062 2.051.445M80.541 127.396s1.294-.438 2.071-.33" stroke-miterlimit="10"/><path fill="none" stroke="#cda245" d="M72.084 128.721s-1.407.062-2.116.445M71.947 128.071s-1.334-.438-2.137-.33" stroke-width=".384" stroke-miterlimit="10"/><path fill="#ccaa4f" d="M75.267 89.926s-5.082 3.207-7.849 1.82c-1.234-.62-.33-2.08 1.321-1.825 1.82.282 3.726-2.662 3.726-2.662l2.802 2.667z" opacity=".8"/><path fill="#e2e2e2" d="M91.707 86.62a.862.862 0 0 0-.743-.383.317.317 0 0 0-.535-.048.862.862 0 0 0-1.157.306.76.76 0 0 0-.721.74l-.022.008a.318.318 0 0 0-.158.421c.005.01.009.02.014.027a.862.862 0 0 0 .259 1.01.311.311 0 0 0-.015.287l.003.004a.47.47 0 0 0 .503.781.471.471 0 0 0 .163-.124.319.319 0 0 0 .383.018.79.79 0 0 0 1.017-.123.517.517 0 0 0 .506-.292.724.724 0 0 0 .774-.737.228.228 0 0 0 .064-.313.575.575 0 0 0 .053-.829.575.575 0 0 0-.388-.753m-1.664 1.361a.013.013 0 0 0 .006.001l-.005.012-.001-.013z"/><path fill="#eec65e" d="M81.019 69.414s1.89-1.583 3.653-1.613c1.155-.02 2.715.077 4.2-.395 4.016-1.274.059 4.076-4.387 7.142-3.085 2.13-7.21 4.035-7.274 1.635-.054-2.032 3.808-6.769 3.808-6.769z"/><path fill="#f7a996" d="M80.112 73.175s1.675-2.346 3.642-2.8c2.312-.534 4.877-2.05 5.486-1.705.74.422-1.265 2.531-2.076 3.35-1.206 1.215-3.905 3.084-5.67 3.717-1.254.453-2.204.68-2.743-.453-.538-1.134 1.36-2.109 1.36-2.109z"/><path fill="#ccaa4f" d="M80.274 72.976c-.62-.322-1.13-.513-1.13-.513s-.525-.02-1.105.224c.238.844.922 1.74.922 1.74l1.313-1.451z"/><path fill="#eec65e" d="M77.058 82.466s1.463 1.018 3.63.887c3.978-.243 6.589.235 8.285 3.062 2.273 3.787-.38 11.01-7.883 9.169-11.003-2.7-10.011-15.044-10.011-15.044l5.979 1.926z"/><path fill="#ccaa4f" d="M72.135 87.944c2.944-.087 5.802-.226 8.554-4.592-.637-.04-.166-1.32-.896-1.304-2.111.046-3.49-1.015-3.49-1.015l-5.855-2.775s.4 4.51 1.687 9.686z" opacity=".5"/><path fill="#eec65e" d="M72.854 70.182s-.049-2.344-.856-3.826c-.529-.973-1.307-2.227-1.75-3.691-1.206-3.967-2.17 1.924-1.707 7.115.322 3.603 1.244 7.962 2.535 6.853 1.092-.937 1.778-6.451 1.778-6.451z"/><path fill="#f7a996" d="M71.543 73.92s.51-3.034-.246-5.237c-.889-2.592-1.332-6.012-1.852-6.407-.634-.48-.832 2.74-.89 4.023-.09 1.903.215 5.664.76 7.777.387 1.502.747 2.57 1.694 2.43.947-.14.534-2.585.534-2.585z"/><path fill="#eec65e" d="M72.282 73.2s1.804-1.062 3.604-.933c1.254.09 2.723.318 3.97 1.525 1.7 1.643 2.103 4.355 2.124 5.742.055 3.666-2.393 5.987-6.191 5.898-3.743-.087-6.76-2.534-6.508-6.186.143-2.083.815-4.77 3-6.046z"/><path fill="#eec65e" d="M74.976 72.416s.624-1.14 1.795-1.313c0 0-1.484.818-1.514 1.544l-.281-.23z"/><ellipse cx="72.89" cy="79.921" rx=".49" ry=".682" fill="#304454" transform="rotate(1.559 72.89 79.921)"/><ellipse cx="78.871" cy="79.921" rx=".49" ry=".682" fill="#304454" transform="rotate(1.559 78.87 79.921)"/><ellipse cx="76.366" cy="82.767" rx=".858" ry=".652" fill="#cda245" transform="rotate(187.048 76.366 82.767)"/><path fill="#eec65e" d="M75.331 72.287s1.015-.81 2.163-.519c0 0-1.685.181-1.993.84l-.17-.32z"/><path fill="#ccaa4f" d="M79.546 94.999c.007 0 .013 0 .02.002.567.088 1.142-.137 1.665-.49-1.443-4.772 1.54-6.87 3.868-5.94 1.976.79 3.108 3.212 1.555 5.883a1.47 1.47 0 0 1-.572.54l.012.01s-.52.328-1.313.727c-1.021.17-2.191.133-3.515-.192-.612-.15-1.18-.334-1.72-.54z" opacity=".5"/><path fill="#eec65e" d="M80.503 95.555c.567.088 1.142-.137 1.666-.489-1.444-4.773 1.54-6.869 3.867-5.94 1.976.79 3.11 3.211 1.555 5.882a1.47 1.47 0 0 1-.572.54l.012.012s-1.583.998-3.463 1.64a.187.187 0 0 1-.187.061c-1.44.47-3.027.706-4.199.118-1.234-.62-.33-2.08 1.321-1.824z"/><path fill="#ccaa4f" d="M75.567 92.362c.902-.778 1.55-1.777 1.55-1.777l2.04 1.89s-.127 1.338-1.364 1.89a11.541 11.541 0 0 1-2.226-2.003z" opacity=".5"/><path fill="#eec65e" d="M79.404 92.401s-5.419 3.405-8.366 1.938c-1.314-.655-.35-2.204 1.41-1.934 1.94.296 3.974-2.826 3.974-2.826l2.982 2.822z"/><path fill="none" stroke="#cda245" d="M80.408 82.592s1.364.062 2.051.445M80.541 81.942s1.294-.438 2.071-.33" stroke-miterlimit="10"/><path fill="none" stroke="#cda245" d="M72.084 83.266s-1.407.063-2.116.445M71.947 82.616s-1.334-.438-2.137-.33" stroke-width=".384" stroke-miterlimit="10"/><path fill="#ccaa4f" d="M75.267 44.471s-5.082 3.207-7.849 1.82c-1.234-.62-.33-2.08 1.321-1.825 1.82.282 3.726-2.662 3.726-2.662l2.802 2.667z" opacity=".8"/><path fill="#e2e2e2" d="M91.707 41.166a.862.862 0 0 0-.743-.383.317.317 0 0 0-.535-.048.862.862 0 0 0-1.157.306.76.76 0 0 0-.721.739l-.022.009a.318.318 0 0 0-.158.42l.014.028a.862.862 0 0 0 .259 1.009.311.311 0 0 0-.015.288l.003.004a.47.47 0 0 0 .503.78.471.471 0 0 0 .163-.123.319.319 0 0 0 .383.018.79.79 0 0 0 1.017-.123.517.517 0 0 0 .506-.292.724.724 0 0 0 .774-.737.228.228 0 0 0 .064-.313.575.575 0 0 0 .053-.83.575.575 0 0 0-.388-.752m-1.664 1.36a.013.013 0 0 0 .006.002l-.005.012-.001-.013z"/><path fill="#eec65e" d="M81.019 23.96s1.89-1.584 3.653-1.614c1.155-.02 2.715.077 4.2-.395 4.016-1.274.059 4.076-4.387 7.142-3.085 2.13-7.21 4.035-7.274 1.635-.054-2.032 3.808-6.769 3.808-6.769z"/><path fill="#f7a996" d="M80.112 27.72s1.675-2.345 3.642-2.8c2.312-.533 4.877-2.05 5.486-1.704.74.422-1.265 2.53-2.076 3.35-1.206 1.215-3.905 3.084-5.67 3.717-1.254.453-2.204.68-2.743-.453-.538-1.134 1.36-2.11 1.36-2.11z"/><path fill="#ccaa4f" d="M80.274 27.521c-.62-.322-1.13-.513-1.13-.513s-.525-.019-1.105.224c.238.844.922 1.74.922 1.74l1.313-1.45z"/><path fill="#eec65e" d="M77.058 37.011s1.463 1.018 3.63.887c3.978-.243 6.589.235 8.285 3.062 2.273 3.787-.38 11.01-7.883 9.17-11.003-2.7-10.011-15.045-10.011-15.045l5.979 1.926z"/><path fill="#ccaa4f" d="M72.135 42.49c2.944-.087 5.802-.226 8.554-4.592-.637-.041-.166-1.32-.896-1.304-2.111.046-3.49-1.015-3.49-1.015l-5.855-2.775c0-.001.4 4.509 1.687 9.686z" opacity=".5"/><path fill="#eec65e" d="M72.854 24.727s-.049-2.344-.856-3.826c-.529-.973-1.307-2.227-1.75-3.69-1.206-3.968-2.17 1.923-1.707 7.114.322 3.603 1.244 7.962 2.535 6.853 1.092-.937 1.778-6.45 1.778-6.45z"/><path fill="#f7a996" d="M71.543 28.466s.51-3.034-.246-5.238c-.889-2.591-1.332-6.011-1.852-6.406-.634-.48-.832 2.739-.89 4.022-.09 1.904.215 5.665.76 7.778.387 1.5.747 2.57 1.694 2.43s.534-2.586.534-2.586z"/><path fill="#eec65e" d="M72.282 27.746s1.804-1.062 3.604-.933c1.254.09 2.723.318 3.97 1.525 1.7 1.643 2.103 4.355 2.124 5.742.055 3.666-2.393 5.987-6.191 5.898-3.743-.087-6.76-2.534-6.508-6.186.143-2.083.815-4.77 3-6.046z"/><path fill="#eec65e" d="M74.976 26.962s.624-1.14 1.795-1.313c0 0-1.484.817-1.514 1.543l-.281-.23z"/><ellipse cx="72.89" cy="34.466" rx=".49" ry=".682" fill="#304454" transform="rotate(1.559 72.89 34.466)"/><ellipse cx="78.871" cy="34.466" rx=".49" ry=".682" fill="#304454" transform="rotate(1.559 78.87 34.466)"/><ellipse cx="76.366" cy="37.313" rx=".858" ry=".652" fill="#cda245" transform="rotate(187.048 76.366 37.313)"/><path fill="#eec65e" d="M75.331 26.833s1.015-.811 2.163-.52c0 0-1.685.182-1.993.84l-.17-.32z"/><path fill="#ccaa4f" d="M79.546 49.544l.02.002c.567.088 1.142-.137 1.665-.489-1.443-4.773 1.54-6.87 3.868-5.94 1.976.79 3.108 3.211 1.555 5.882a1.47 1.47 0 0 1-.572.54l.012.011s-.52.327-1.313.726c-1.021.171-2.191.133-3.515-.192-.612-.15-1.18-.334-1.72-.54z" opacity=".5"/><path fill="#eec65e" d="M80.503 50.1c.567.089 1.142-.136 1.666-.488-1.444-4.773 1.54-6.87 3.867-5.94 1.976.79 3.11 3.21 1.555 5.882a1.47 1.47 0 0 1-.572.54l.012.012s-1.583.998-3.463 1.64a.187.187 0 0 1-.187.06c-1.44.47-3.027.707-4.199.119-1.234-.62-.33-2.08 1.321-1.824z"/><path fill="#ccaa4f" d="M75.567 46.908c.902-.778 1.55-1.777 1.55-1.777l2.04 1.889s-.127 1.339-1.364 1.89a11.541 11.541 0 0 1-2.226-2.002z" opacity=".5"/><path fill="#eec65e" d="M79.404 46.947s-5.419 3.405-8.366 1.938c-1.314-.655-.35-2.204 1.41-1.934 1.94.296 3.974-2.826 3.974-2.826l2.982 2.822z"/><path fill="none" stroke="#cda245" d="M80.408 37.137s1.364.062 2.051.445M80.541 36.487s1.294-.438 2.071-.33" stroke-miterlimit="10"/><path fill="none" stroke="#cda245" d="M72.084 37.812s-1.407.062-2.116.445M71.947 37.162s-1.334-.438-2.137-.33" stroke-width=".384" stroke-miterlimit="10"/><path fill="#ccaa4f" d="M120.722 226.29s-5.082 3.207-7.849 1.82c-1.234-.62-.331-2.08 1.321-1.825 1.82.282 3.726-2.662 3.726-2.662l2.802 2.667z" opacity=".8"/><path fill="#e2e2e2" d="M137.161 222.984a.862.862 0 0 0-.743-.383.317.317 0 0 0-.535-.048.862.862 0 0 0-1.157.306.76.76 0 0 0-.721.739l-.022.009a.318.318 0 0 0-.158.421l.014.027a.862.862 0 0 0 .259 1.009.311.311 0 0 0-.015.288l.003.004a.47.47 0 0 0 .503.781.471.471 0 0 0 .163-.124.319.319 0 0 0 .383.018.79.79 0 0 0 1.017-.123.517.517 0 0 0 .506-.292.724.724 0 0 0 .774-.737.228.228 0 0 0 .064-.313.575.575 0 0 0 .053-.829.575.575 0 0 0-.388-.753m-1.664 1.361a.013.013 0 0 0 .006.001l-.005.012-.001-.013z"/><path fill="#eec65e" d="M126.473 205.778s1.89-1.583 3.653-1.613c1.155-.02 2.715.077 4.2-.395 4.016-1.274.059 4.076-4.387 7.142-3.085 2.13-7.209 4.035-7.274 1.635-.054-2.032 3.808-6.769 3.808-6.769z"/><path fill="#f7a996" d="M125.566 209.539s1.675-2.346 3.642-2.8c2.312-.534 4.877-2.05 5.486-1.705.741.422-1.265 2.531-2.076 3.35-1.206 1.215-3.905 3.084-5.67 3.717-1.254.453-2.204.68-2.743-.453-.538-1.134 1.361-2.109 1.361-2.109z"/><path fill="#ccaa4f" d="M125.729 209.34c-.621-.322-1.13-.513-1.13-.513s-.525-.019-1.105.224c.238.844.922 1.74.922 1.74l1.313-1.451z"/><path fill="#eec65e" d="M122.512 218.829s1.463 1.018 3.63.887c3.978-.243 6.589.235 8.285 3.062 2.273 3.787-.379 11.01-7.883 9.169-11.003-2.699-10.011-15.044-10.011-15.044l5.979 1.926z"/><path fill="#ccaa4f" d="M117.589 224.308c2.944-.087 5.802-.226 8.554-4.592-.637-.041-.166-1.32-.896-1.304-2.111.046-3.489-1.015-3.489-1.015l-5.856-2.775c0-.001.401 4.509 1.687 9.686z" opacity=".5"/><path fill="#eec65e" d="M118.309 206.545s-.049-2.344-.856-3.826c-.529-.973-1.307-2.227-1.751-3.691-1.205-3.967-2.169 1.924-1.706 7.115.322 3.603 1.244 7.962 2.535 6.853 1.092-.937 1.778-6.451 1.778-6.451z"/><path fill="#f7a996" d="M116.998 210.284s.509-3.034-.246-5.238c-.889-2.591-1.332-6.011-1.852-6.406-.634-.48-.832 2.739-.891 4.022-.089 1.904.216 5.665.761 7.778.387 1.501.747 2.57 1.694 2.43s.534-2.586.534-2.586z"/><path fill="#eec65e" d="M117.736 209.564s1.804-1.062 3.604-.933c1.254.09 2.723.318 3.971 1.525 1.699 1.643 2.102 4.355 2.123 5.742.055 3.666-2.393 5.987-6.191 5.898-3.743-.087-6.759-2.534-6.508-6.186.143-2.083.815-4.77 3.001-6.046z"/><path fill="#eec65e" d="M120.43 208.78s.624-1.14 1.795-1.313c0 0-1.484.817-1.514 1.543l-.281-.23z"/><ellipse cx="118.345" cy="216.285" rx=".49" ry=".682" fill="#304454" transform="rotate(1.559 118.345 216.285)"/><ellipse cx="124.325" cy="216.285" rx=".49" ry=".682" fill="#304454" transform="rotate(1.559 124.325 216.285)"/><ellipse cx="121.821" cy="219.131" rx=".858" ry=".652" fill="#cda245" transform="rotate(187.048 121.82 219.13)"/><path fill="#eec65e" d="M120.786 208.651s1.015-.811 2.163-.519c0 0-1.685.181-1.993.84l-.17-.321z"/><path fill="#ccaa4f" d="M125 231.363l.02.002c.567.088 1.142-.137 1.665-.489-1.443-4.773 1.54-6.87 3.868-5.94 1.976.79 3.108 3.211 1.555 5.882a1.47 1.47 0 0 1-.572.54l.012.011s-.519.327-1.313.726c-1.021.171-2.191.133-3.515-.192-.612-.15-1.18-.334-1.72-.54z" opacity=".5"/><path fill="#eec65e" d="M125.958 231.919c.567.088 1.142-.137 1.666-.489-1.444-4.773 1.539-6.869 3.867-5.94 1.976.79 3.109 3.211 1.555 5.882a1.47 1.47 0 0 1-.572.54l.012.012s-1.583.998-3.463 1.64a.187.187 0 0 1-.187.061c-1.441.469-3.027.706-4.199.118-1.234-.62-.331-2.08 1.321-1.824z"/><path fill="#ccaa4f" d="M121.022 228.726c.901-.778 1.55-1.777 1.55-1.777l2.039 1.889s-.127 1.339-1.363 1.89a11.541 11.541 0 0 1-2.226-2.002z" opacity=".5"/><path fill="#eec65e" d="M124.859 228.765s-5.419 3.405-8.366 1.938c-1.314-.655-.35-2.204 1.41-1.934 1.939.296 3.974-2.826 3.974-2.826l2.982 2.822z"/><path fill="none" stroke="#cda245" d="M125.863 218.955s1.364.062 2.051.445M125.996 218.306s1.294-.438 2.071-.33" stroke-miterlimit="10"/><path fill="none" stroke="#cda245" d="M117.539 219.63s-1.407.062-2.116.445M117.402 218.98s-1.334-.438-2.137-.33" stroke-width=".384" stroke-miterlimit="10"/><path fill="#ccaa4f" d="M120.722 180.835s-5.082 3.207-7.849 1.82c-1.234-.62-.331-2.08 1.321-1.825 1.82.282 3.726-2.662 3.726-2.662l2.802 2.667z" opacity=".8"/><path fill="#e2e2e2" d="M137.161 177.529a.862.862 0 0 0-.743-.383.317.317 0 0 0-.535-.048.862.862 0 0 0-1.157.306.76.76 0 0 0-.721.739l-.022.009a.318.318 0 0 0-.158.421l.014.027a.862.862 0 0 0 .259 1.009.311.311 0 0 0-.015.288l.003.004a.47.47 0 0 0 .503.781.471.471 0 0 0 .163-.124.319.319 0 0 0 .383.018.79.79 0 0 0 1.017-.123.517.517 0 0 0 .506-.292.724.724 0 0 0 .774-.737.228.228 0 0 0 .064-.313.575.575 0 0 0 .053-.829.575.575 0 0 0-.388-.753m-1.664 1.361a.013.013 0 0 0 .006.001l-.005.012-.001-.013z"/><path fill="#eec65e" d="M126.473 160.323s1.89-1.583 3.653-1.613c1.155-.02 2.715.077 4.2-.395 4.016-1.274.059 4.076-4.387 7.142-3.085 2.13-7.209 4.035-7.274 1.635-.054-2.032 3.808-6.769 3.808-6.769z"/><path fill="#f7a996" d="M125.566 164.084s1.675-2.346 3.642-2.8c2.312-.534 4.877-2.05 5.486-1.705.741.422-1.265 2.531-2.076 3.35-1.206 1.215-3.905 3.084-5.67 3.717-1.254.453-2.204.68-2.743-.453-.538-1.134 1.361-2.109 1.361-2.109z"/><path fill="#ccaa4f" d="M125.729 163.885c-.621-.322-1.13-.513-1.13-.513s-.525-.019-1.105.224c.238.844.922 1.74.922 1.74l1.313-1.451z"/><path fill="#eec65e" d="M122.512 173.375s1.463 1.018 3.63.887c3.978-.243 6.589.235 8.285 3.062 2.273 3.787-.379 11.01-7.883 9.169-11.003-2.699-10.011-15.044-10.011-15.044l5.979 1.926z"/><path fill="#ccaa4f" d="M117.589 178.853c2.944-.087 5.802-.226 8.554-4.592-.637-.041-.166-1.32-.896-1.304-2.111.046-3.489-1.015-3.489-1.015l-5.856-2.775c0-.001.401 4.509 1.687 9.686z" opacity=".5"/><path fill="#eec65e" d="M118.309 161.091s-.049-2.344-.856-3.826c-.529-.973-1.307-2.227-1.751-3.691-1.205-3.967-2.169 1.924-1.706 7.115.322 3.603 1.244 7.962 2.535 6.853 1.092-.937 1.778-6.451 1.778-6.451z"/><path fill="#f7a996" d="M116.998 164.83s.509-3.034-.246-5.238c-.889-2.591-1.332-6.011-1.852-6.406-.634-.48-.832 2.739-.891 4.022-.089 1.904.216 5.665.761 7.778.387 1.501.747 2.57 1.694 2.43s.534-2.586.534-2.586z"/><path fill="#eec65e" d="M117.736 164.109s1.804-1.062 3.604-.933c1.254.09 2.723.318 3.971 1.525 1.699 1.643 2.102 4.355 2.123 5.742.055 3.666-2.393 5.987-6.191 5.898-3.743-.087-6.759-2.534-6.508-6.186.143-2.083.815-4.77 3.001-6.046z"/><path fill="#eec65e" d="M120.43 163.326s.624-1.14 1.795-1.313c0 0-1.484.817-1.514 1.543l-.281-.23z"/><ellipse cx="118.345" cy="170.83" rx=".49" ry=".682" fill="#304454" transform="rotate(1.559 118.345 170.83)"/><ellipse cx="124.325" cy="170.83" rx=".49" ry=".682" fill="#304454" transform="rotate(1.559 124.325 170.83)"/><ellipse cx="121.821" cy="173.676" rx=".858" ry=".652" fill="#cda245" transform="rotate(187.048 121.82 173.676)"/><path fill="#eec65e" d="M120.786 163.196s1.015-.811 2.163-.519c0 0-1.685.181-1.993.84l-.17-.321z"/><path fill="#ccaa4f" d="M125 185.908l.02.002c.567.088 1.142-.137 1.665-.489-1.443-4.773 1.54-6.87 3.868-5.94 1.976.79 3.108 3.211 1.555 5.882a1.47 1.47 0 0 1-.572.54l.012.011s-.519.327-1.313.726c-1.021.171-2.191.133-3.515-.192-.612-.15-1.18-.334-1.72-.54z" opacity=".5"/><path fill="#eec65e" d="M125.958 186.464c.567.088 1.142-.137 1.666-.489-1.444-4.773 1.539-6.869 3.867-5.94 1.976.79 3.109 3.211 1.555 5.882a1.47 1.47 0 0 1-.572.54l.012.012s-1.583.998-3.463 1.64a.187.187 0 0 1-.187.061c-1.441.469-3.027.706-4.199.118-1.234-.62-.331-2.08 1.321-1.824z"/><path fill="#ccaa4f" d="M121.022 183.271c.901-.778 1.55-1.777 1.55-1.777l2.039 1.889s-.127 1.339-1.363 1.89a11.541 11.541 0 0 1-2.226-2.002z" opacity=".5"/><path fill="#eec65e" d="M124.859 183.31s-5.419 3.405-8.366 1.938c-1.314-.655-.35-2.204 1.41-1.934 1.939.296 3.974-2.826 3.974-2.826l2.982 2.822z"/><path fill="none" stroke="#cda245" d="M125.863 173.501s1.364.062 2.051.445M125.996 172.851s1.294-.438 2.071-.33" stroke-miterlimit="10"/><path fill="none" stroke="#cda245" d="M117.539 174.176s-1.407.062-2.116.445M117.402 173.525s-1.334-.438-2.137-.33" stroke-width=".384" stroke-miterlimit="10"/><path fill="#ccaa4f" d="M120.722 135.38s-5.082 3.207-7.849 1.82c-1.234-.62-.331-2.08 1.321-1.825 1.82.282 3.726-2.662 3.726-2.662l2.802 2.667z" opacity=".8"/><path fill="#e2e2e2" d="M137.161 132.075a.862.862 0 0 0-.743-.383.317.317 0 0 0-.535-.048.862.862 0 0 0-1.157.306.76.76 0 0 0-.721.739l-.022.009a.318.318 0 0 0-.158.421l.014.027a.862.862 0 0 0 .259 1.009.311.311 0 0 0-.015.288l.003.004a.47.47 0 0 0 .503.781.471.471 0 0 0 .163-.124.319.319 0 0 0 .383.018.79.79 0 0 0 1.017-.123.517.517 0 0 0 .506-.292.724.724 0 0 0 .774-.737.228.228 0 0 0 .064-.313.575.575 0 0 0 .053-.829.575.575 0 0 0-.388-.753m-1.664 1.361a.013.013 0 0 0 .006.001l-.005.012-.001-.013z"/><path fill="#eec65e" d="M126.473 114.869s1.89-1.583 3.653-1.613c1.155-.02 2.715.077 4.2-.395 4.016-1.274.059 4.076-4.387 7.142-3.085 2.13-7.209 4.035-7.274 1.635-.054-2.032 3.808-6.769 3.808-6.769z"/><path fill="#f7a996" d="M125.566 118.63s1.675-2.346 3.642-2.8c2.312-.534 4.877-2.05 5.486-1.705.741.422-1.265 2.531-2.076 3.35-1.206 1.215-3.905 3.084-5.67 3.717-1.254.453-2.204.68-2.743-.453-.538-1.134 1.361-2.109 1.361-2.109z"/><path fill="#ccaa4f" d="M125.729 118.43c-.621-.322-1.13-.513-1.13-.513s-.525-.019-1.105.224c.238.844.922 1.74.922 1.74l1.313-1.451z"/><path fill="#eec65e" d="M122.512 127.92s1.463 1.018 3.63.887c3.978-.243 6.589.235 8.285 3.062 2.273 3.787-.379 11.01-7.883 9.169-11.003-2.699-10.011-15.044-10.011-15.044l5.979 1.926z"/><path fill="#ccaa4f" d="M117.589 133.399c2.944-.087 5.802-.226 8.554-4.592-.637-.041-.166-1.32-.896-1.304-2.111.046-3.489-1.015-3.489-1.015l-5.856-2.775c0-.001.401 4.509 1.687 9.686z" opacity=".5"/><path fill="#eec65e" d="M118.309 115.636s-.049-2.344-.856-3.826c-.529-.973-1.307-2.227-1.751-3.691-1.205-3.967-2.169 1.924-1.706 7.115.322 3.603 1.244 7.962 2.535 6.853 1.092-.937 1.778-6.451 1.778-6.451z"/><path fill="#f7a996" d="M116.998 119.375s.509-3.034-.246-5.238c-.889-2.591-1.332-6.011-1.852-6.406-.634-.48-.832 2.739-.891 4.022-.089 1.904.216 5.665.761 7.778.387 1.501.747 2.57 1.694 2.43.947-.14.534-2.586.534-2.586z"/><path fill="#eec65e" d="M117.736 118.655s1.804-1.062 3.604-.933c1.254.09 2.723.318 3.971 1.525 1.699 1.643 2.102 4.355 2.123 5.742.055 3.666-2.393 5.987-6.191 5.898-3.743-.087-6.759-2.534-6.508-6.186.143-2.083.815-4.77 3.001-6.046z"/><path fill="#eec65e" d="M120.43 117.871s.624-1.14 1.795-1.313c0 0-1.484.817-1.514 1.543l-.281-.23z"/><ellipse cx="118.345" cy="125.376" rx=".49" ry=".682" fill="#304454" transform="rotate(1.559 118.345 125.376)"/><ellipse cx="124.325" cy="125.376" rx=".49" ry=".682" fill="#304454" transform="rotate(1.559 124.325 125.376)"/><ellipse cx="121.821" cy="128.222" rx=".858" ry=".652" fill="#cda245" transform="rotate(187.048 121.82 128.222)"/><path fill="#eec65e" d="M120.786 117.742s1.015-.811 2.163-.519c0 0-1.685.181-1.993.84l-.17-.321z"/><path fill="#ccaa4f" d="M125 140.453l.02.002c.567.088 1.142-.137 1.665-.489-1.443-4.773 1.54-6.87 3.868-5.94 1.976.79 3.108 3.211 1.555 5.882a1.47 1.47 0 0 1-.572.54l.012.011s-.519.327-1.313.726c-1.021.171-2.191.133-3.515-.192-.612-.15-1.18-.334-1.72-.54z" opacity=".5"/><path fill="#eec65e" d="M125.958 141.01c.567.088 1.142-.137 1.666-.489-1.444-4.773 1.539-6.869 3.867-5.94 1.976.79 3.109 3.211 1.555 5.882a1.47 1.47 0 0 1-.572.54l.012.012s-1.583.998-3.463 1.64a.187.187 0 0 1-.187.061c-1.441.469-3.027.706-4.199.118-1.234-.62-.331-2.08 1.321-1.824z"/><path fill="#ccaa4f" d="M121.022 137.817c.901-.778 1.55-1.777 1.55-1.777l2.039 1.889s-.127 1.339-1.363 1.89a11.541 11.541 0 0 1-2.226-2.002z" opacity=".5"/><path fill="#eec65e" d="M124.859 137.856s-5.419 3.405-8.366 1.938c-1.314-.655-.35-2.204 1.41-1.934 1.939.296 3.974-2.826 3.974-2.826l2.982 2.822z"/><path fill="none" stroke="#cda245" d="M125.863 128.046s1.364.062 2.051.445M125.996 127.396s1.294-.438 2.071-.33" stroke-miterlimit="10"/><path fill="none" stroke="#cda245" d="M117.539 128.721s-1.407.062-2.116.445M117.402 128.071s-1.334-.438-2.137-.33" stroke-width=".384" stroke-miterlimit="10"/><path fill="#ccaa4f" d="M120.722 89.926s-5.082 3.207-7.849 1.82c-1.234-.62-.331-2.08 1.321-1.825 1.82.282 3.726-2.662 3.726-2.662l2.802 2.667z" opacity=".8"/><path fill="#e2e2e2" d="M137.161 86.62a.862.862 0 0 0-.743-.383.317.317 0 0 0-.535-.048.862.862 0 0 0-1.157.306.76.76 0 0 0-.721.74l-.022.008a.318.318 0 0 0-.158.421c.005.01.009.02.014.027a.862.862 0 0 0 .259 1.01.311.311 0 0 0-.015.287l.003.004a.47.47 0 0 0 .503.781.471.471 0 0 0 .163-.124.319.319 0 0 0 .383.018.79.79 0 0 0 1.017-.123.517.517 0 0 0 .506-.292.724.724 0 0 0 .774-.737.228.228 0 0 0 .064-.313.575.575 0 0 0 .053-.829.575.575 0 0 0-.388-.753m-1.664 1.361a.013.013 0 0 0 .006.001l-.005.012-.001-.013z"/><path fill="#eec65e" d="M126.473 69.414s1.89-1.583 3.653-1.613c1.155-.02 2.715.077 4.2-.395 4.016-1.274.059 4.076-4.387 7.142-3.085 2.13-7.209 4.035-7.274 1.635-.054-2.032 3.808-6.769 3.808-6.769z"/><path fill="#f7a996" d="M125.566 73.175s1.675-2.346 3.642-2.8c2.312-.534 4.877-2.05 5.486-1.705.741.422-1.265 2.531-2.076 3.35-1.206 1.215-3.905 3.084-5.67 3.717-1.254.453-2.204.68-2.743-.453-.538-1.134 1.361-2.109 1.361-2.109z"/><path fill="#ccaa4f" d="M125.729 72.976c-.621-.322-1.13-.513-1.13-.513s-.525-.02-1.105.224c.238.844.922 1.74.922 1.74l1.313-1.451z"/><path fill="#eec65e" d="M122.512 82.466s1.463 1.018 3.63.887c3.978-.243 6.589.235 8.285 3.062 2.273 3.787-.379 11.01-7.883 9.169-11.003-2.7-10.011-15.044-10.011-15.044l5.979 1.926z"/><path fill="#ccaa4f" d="M117.589 87.944c2.944-.087 5.802-.226 8.554-4.592-.637-.04-.166-1.32-.896-1.304-2.111.046-3.489-1.015-3.489-1.015l-5.856-2.775s.401 4.51 1.687 9.686z" opacity=".5"/><path fill="#eec65e" d="M118.309 70.182s-.049-2.344-.856-3.826c-.529-.973-1.307-2.227-1.751-3.691-1.205-3.967-2.169 1.924-1.706 7.115.322 3.603 1.244 7.962 2.535 6.853 1.092-.937 1.778-6.451 1.778-6.451z"/><path fill="#f7a996" d="M116.998 73.92s.509-3.034-.246-5.237c-.889-2.592-1.332-6.012-1.852-6.407-.634-.48-.832 2.74-.891 4.023-.089 1.903.216 5.664.761 7.777.387 1.502.747 2.57 1.694 2.43.947-.14.534-2.585.534-2.585z"/><path fill="#eec65e" d="M117.736 73.2s1.804-1.062 3.604-.933c1.254.09 2.723.318 3.971 1.525 1.699 1.643 2.102 4.355 2.123 5.742.055 3.666-2.393 5.987-6.191 5.898-3.743-.087-6.759-2.534-6.508-6.186.143-2.083.815-4.77 3.001-6.046z"/><path fill="#eec65e" d="M120.43 72.416s.624-1.14 1.795-1.313c0 0-1.484.818-1.514 1.544l-.281-.23z"/><ellipse cx="118.345" cy="79.921" rx=".49" ry=".682" fill="#304454" transform="rotate(1.559 118.345 79.921)"/><ellipse cx="124.325" cy="79.921" rx=".49" ry=".682" fill="#304454" transform="rotate(1.559 124.325 79.921)"/><ellipse cx="121.821" cy="82.767" rx=".858" ry=".652" fill="#cda245" transform="rotate(187.048 121.82 82.767)"/><path fill="#eec65e" d="M120.786 72.287s1.015-.81 2.163-.519c0 0-1.685.181-1.993.84l-.17-.32z"/><path fill="#ccaa4f" d="M125 94.999c.007 0 .013 0 .02.002.567.088 1.142-.137 1.665-.49-1.443-4.772 1.54-6.87 3.868-5.94 1.976.79 3.108 3.212 1.555 5.883a1.47 1.47 0 0 1-.572.54l.012.01s-.519.328-1.313.727c-1.021.17-2.191.133-3.515-.192-.612-.15-1.18-.334-1.72-.54z" opacity=".5"/><path fill="#eec65e" d="M125.958 95.555c.567.088 1.142-.137 1.666-.489-1.444-4.773 1.539-6.869 3.867-5.94 1.976.79 3.109 3.211 1.555 5.882a1.47 1.47 0 0 1-.572.54l.012.012s-1.583.998-3.463 1.64a.187.187 0 0 1-.187.061c-1.441.47-3.027.706-4.199.118-1.234-.62-.331-2.08 1.321-1.824z"/><path fill="#ccaa4f" d="M121.022 92.362c.901-.778 1.55-1.777 1.55-1.777l2.039 1.89s-.127 1.338-1.363 1.89a11.541 11.541 0 0 1-2.226-2.003z" opacity=".5"/><path fill="#eec65e" d="M124.859 92.401s-5.419 3.405-8.366 1.938c-1.314-.655-.35-2.204 1.41-1.934 1.939.296 3.974-2.826 3.974-2.826l2.982 2.822z"/><path fill="none" stroke="#cda245" d="M125.863 82.592s1.364.062 2.051.445M125.996 81.942s1.294-.438 2.071-.33" stroke-miterlimit="10"/><path fill="none" stroke="#cda245" d="M117.539 83.266s-1.407.063-2.116.445M117.402 82.616s-1.334-.438-2.137-.33" stroke-width=".384" stroke-miterlimit="10"/><path fill="#ccaa4f" d="M120.722 44.471s-5.082 3.207-7.849 1.82c-1.234-.62-.331-2.08 1.321-1.825 1.82.282 3.726-2.662 3.726-2.662l2.802 2.667z" opacity=".8"/><path fill="#e2e2e2" d="M137.161 41.166a.862.862 0 0 0-.743-.383.317.317 0 0 0-.535-.048.862.862 0 0 0-1.157.306.76.76 0 0 0-.721.739l-.022.009a.318.318 0 0 0-.158.42l.014.028a.862.862 0 0 0 .259 1.009.311.311 0 0 0-.015.288l.003.004a.47.47 0 0 0 .503.78.471.471 0 0 0 .163-.123.319.319 0 0 0 .383.018.79.79 0 0 0 1.017-.123.517.517 0 0 0 .506-.292.724.724 0 0 0 .774-.737.228.228 0 0 0 .064-.313.575.575 0 0 0 .053-.83.575.575 0 0 0-.388-.752m-1.664 1.36a.013.013 0 0 0 .006.002l-.005.012-.001-.013z"/><path fill="#eec65e" d="M126.473 23.96s1.89-1.584 3.653-1.614c1.155-.02 2.715.077 4.2-.395 4.016-1.274.059 4.076-4.387 7.142-3.085 2.13-7.209 4.035-7.274 1.635-.054-2.032 3.808-6.769 3.808-6.769z"/><path fill="#f7a996" d="M125.566 27.72s1.675-2.345 3.642-2.8c2.312-.533 4.877-2.05 5.486-1.704.741.422-1.265 2.53-2.076 3.35-1.206 1.215-3.905 3.084-5.67 3.717-1.254.453-2.204.68-2.743-.453-.538-1.134 1.361-2.11 1.361-2.11z"/><path fill="#ccaa4f" d="M125.729 27.521c-.621-.322-1.13-.513-1.13-.513s-.525-.019-1.105.224c.238.844.922 1.74.922 1.74l1.313-1.45z"/><path fill="#eec65e" d="M122.512 37.011s1.463 1.018 3.63.887c3.978-.243 6.589.235 8.285 3.062 2.273 3.787-.379 11.01-7.883 9.17-11.003-2.7-10.011-15.045-10.011-15.045l5.979 1.926z"/><path fill="#ccaa4f" d="M117.589 42.49c2.944-.087 5.802-.226 8.554-4.592-.637-.041-.166-1.32-.896-1.304-2.111.046-3.489-1.015-3.489-1.015l-5.856-2.775c0-.001.401 4.509 1.687 9.686z" opacity=".5"/><path fill="#eec65e" d="M118.309 24.727s-.049-2.344-.856-3.826c-.529-.973-1.307-2.227-1.751-3.69-1.205-3.968-2.169 1.923-1.706 7.114.322 3.603 1.244 7.962 2.535 6.853 1.092-.937 1.778-6.45 1.778-6.45z"/><path fill="#f7a996" d="M116.998 28.466s.509-3.034-.246-5.238c-.889-2.591-1.332-6.011-1.852-6.406-.634-.48-.832 2.739-.891 4.022-.089 1.904.216 5.665.761 7.778.387 1.5.747 2.57 1.694 2.43s.534-2.586.534-2.586z"/><path fill="#eec65e" d="M117.736 27.746s1.804-1.062 3.604-.933c1.254.09 2.723.318 3.971 1.525 1.699 1.643 2.102 4.355 2.123 5.742.055 3.666-2.393 5.987-6.191 5.898-3.743-.087-6.759-2.534-6.508-6.186.143-2.083.815-4.77 3.001-6.046z"/><path fill="#eec65e" d="M120.43 26.962s.624-1.14 1.795-1.313c0 0-1.484.817-1.514 1.543l-.281-.23z"/><ellipse cx="118.345" cy="34.466" rx=".49" ry=".682" fill="#304454" transform="rotate(1.559 118.345 34.466)"/><ellipse cx="124.325" cy="34.466" rx=".49" ry=".682" fill="#304454" transform="rotate(1.559 124.325 34.466)"/><ellipse cx="121.821" cy="37.313" rx=".858" ry=".652" fill="#cda245" transform="rotate(187.048 121.82 37.313)"/><path fill="#eec65e" d="M120.786 26.833s1.015-.811 2.163-.52c0 0-1.685.182-1.993.84l-.17-.32z"/><path fill="#ccaa4f" d="M125 49.544l.02.002c.567.088 1.142-.137 1.665-.489-1.443-4.773 1.54-6.87 3.868-5.94 1.976.79 3.108 3.211 1.555 5.882a1.47 1.47 0 0 1-.572.54l.012.011s-.519.327-1.313.726c-1.021.171-2.191.133-3.515-.192-.612-.15-1.18-.334-1.72-.54z" opacity=".5"/><path fill="#eec65e" d="M125.958 50.1c.567.089 1.142-.136 1.666-.488-1.444-4.773 1.539-6.87 3.867-5.94 1.976.79 3.109 3.21 1.555 5.882a1.47 1.47 0 0 1-.572.54l.012.012s-1.583.998-3.463 1.64a.187.187 0 0 1-.187.06c-1.441.47-3.027.707-4.199.119-1.234-.62-.331-2.08 1.321-1.824z"/><path fill="#ccaa4f" d="M121.022 46.908c.901-.778 1.55-1.777 1.55-1.777l2.039 1.889s-.127 1.339-1.363 1.89a11.541 11.541 0 0 1-2.226-2.002z" opacity=".5"/><path fill="#eec65e" d="M124.859 46.947s-5.419 3.405-8.366 1.938c-1.314-.655-.35-2.204 1.41-1.934 1.939.296 3.974-2.826 3.974-2.826l2.982 2.822z"/><path fill="none" stroke="#cda245" d="M125.863 37.137s1.364.062 2.051.445M125.996 36.487s1.294-.438 2.071-.33" stroke-miterlimit="10"/><path fill="none" stroke="#cda245" d="M117.539 37.812s-1.407.062-2.116.445M117.402 37.162s-1.334-.438-2.137-.33" stroke-width=".384" stroke-miterlimit="10"/><path fill="none" stroke="#000" d="M62.273 187.727l34.545-34.545M62.273 153.182l34.545 34.545M62.273 142.273l34.545-34.546M62.273 107.727l34.545 34.546M62.273 96.818l34.545-34.545M62.273 62.273l34.545 34.545M62.273 51.364l34.545-34.546M62.273 16.818l34.545 34.546M107.727 233.182l34.546-34.546M107.727 198.636l34.546 34.546M107.727 187.727l34.546-34.545M107.727 153.182l34.546 34.545M107.727 142.273l34.546-34.546M107.727 107.727l34.546 34.546M107.727 96.818l34.546-34.545M107.727 62.273l34.546 34.545M107.727 51.364l34.546-34.546M107.727 16.818l34.546 34.546" stroke-width="2"/></svg>
