<svg xmlns="http://www.w3.org/2000/svg" width="320" height="50.526" viewBox="0 0 320 50.526315789473685"><path fill="none" stroke="#000" d="M8.421 42.105h84.21M8.421 25.263h84.21M8.421 8.421h84.21M8.421 42.105V8.421M25.263 42.105V8.421M42.105 42.105V8.421M58.947 42.105V8.421M75.79 42.105V8.421M92.632 42.105V8.421M109.474 42.105h84.21M109.474 25.263h84.21M109.474 8.421h84.21M109.474 42.105V8.421M126.316 42.105V8.421M143.158 42.105V8.421M160 42.105V8.421M176.842 42.105V8.421M193.684 42.105V8.421" stroke-width="2"/><ellipse cx="16.842" cy="16.842" rx="6.4" ry="6.4" fill="#0c7f99" stroke="#0c7f99" stroke-width="2" stroke-dasharray="0"/><ellipse cx="33.684" cy="16.842" rx="6.4" ry="6.4" fill="#0c7f99" stroke="#0c7f99" stroke-width="2" stroke-dasharray="0"/><ellipse cx="50.526" cy="16.842" rx="6.4" ry="6.4" fill="#0c7f99" stroke="#0c7f99" stroke-width="2" stroke-dasharray="0"/><ellipse cx="67.368" cy="16.842" rx="6.4" ry="6.4" fill="#0c7f99" stroke="#0c7f99" stroke-width="2" stroke-dasharray="0"/><ellipse cx="84.211" cy="16.842" rx="6.4" ry="6.4" fill="#0c7f99" stroke="#0c7f99" stroke-width="2" stroke-dasharray="0"/><ellipse cx="16.842" cy="33.684" rx="6.4" ry="6.4" fill="#0c7f99" stroke="#0c7f99" stroke-width="2" stroke-dasharray="0"/><ellipse cx="33.684" cy="33.684" rx="6.4" ry="6.4" fill="#0c7f99" stroke="#0c7f99" stroke-width="2" stroke-dasharray="0"/><ellipse cx="50.526" cy="33.684" rx="6.4" ry="6.4" fill="#0c7f99" stroke="#0c7f99" stroke-width="2" stroke-dasharray="0"/><ellipse cx="67.368" cy="33.684" rx="6.4" ry="6.4" fill="#0c7f99" stroke="#0c7f99" stroke-width="2" stroke-dasharray="0"/><ellipse cx="84.211" cy="33.684" rx="6.4" ry="6.4" fill="#0c7f99" stroke="#0c7f99" stroke-width="2" stroke-dasharray="0"/><ellipse cx="117.895" cy="16.842" rx="6.4" ry="6.4" fill="#0c7f99" stroke="#0c7f99" stroke-width="2" stroke-dasharray="0"/><ellipse cx="134.737" cy="16.842" rx="6.4" ry="6.4" fill="#0c7f99" stroke="#0c7f99" stroke-width="2" stroke-dasharray="0"/><ellipse cx="151.579" cy="16.842" rx="6.4" ry="6.4" fill="#0c7f99" stroke="#0c7f99" stroke-width="2" stroke-dasharray="0"/><path fill="none" stroke="#000" d="M227.368 42.105h84.211M227.368 25.263h84.211M227.368 8.421h84.211M227.368 42.105V8.421M244.211 42.105V8.421M261.053 42.105V8.421M277.895 42.105V8.421M294.737 42.105V8.421M311.579 42.105V8.421" stroke-width="2"/><ellipse cx="235.789" cy="16.842" rx="6.4" ry="6.4" fill="#ca337c" stroke="#ca337c" stroke-width="2" stroke-dasharray="0"/><ellipse cx="252.632" cy="16.842" rx="6.4" ry="6.4" fill="#ca337c" stroke="#ca337c" stroke-width="2" stroke-dasharray="0"/><ellipse cx="269.474" cy="16.842" rx="6.4" ry="6.4" fill="#ca337c" stroke="#ca337c" stroke-width="2" stroke-dasharray="0"/><ellipse cx="286.316" cy="16.842" rx="6.4" ry="6.4" fill="#ca337c" stroke="#ca337c" stroke-width="2" stroke-dasharray="0"/><ellipse cx="303.158" cy="16.842" rx="6.4" ry="6.4" fill="#ca337c" stroke="#ca337c" stroke-width="2" stroke-dasharray="0"/></svg>
