<svg xmlns="http://www.w3.org/2000/svg" width="166.667" height="250" viewBox="0 0 166.66666666666666 250"><path fill="#4d677a" d="M48.782 207.052s1.229-.887 1.467-.751c.239.136.035 1.024.035 1.024l-1.502-.273z"/><path fill="#bdcccc" d="M50.112 212.616s.62.155 1.01-.156c.387-.31.077-1.048.077-1.048l-1.087 1.204z"/><path fill="#4d677a" d="M35.164 216.848s-1.553 1.009-2.058 2.058c0 0 3.067-1.67 4.698-1.709 0 .001-1.747-.349-2.64-.349zM39.472 205.487s2.856-3.303 5.311-2.813c0 0-2.034 2.131-1.708 3.744.012.055.025.108.042.162.505 1.629-3.645-1.093-3.645-1.093z"/><path fill="#7a3440" d="M33.404 212.041s-2.575 3.451-1.792 4.288c1.225-.05 3.44-.914 3.44-.914l1.7-1.511-3.348-1.863z"/><path fill="#4d677a" d="M53.944 206.727c-.119-1.435.38-3.324.755-4.833l-.722-.335.975-.535c.375-1.12.94-2.222 1.751-3.263 0 0-2.347 1.034-4.174 2.91-1.696 1.74-.927 6.29-.927 6.29s-7.11.084-13.048-2.342c-7.21-2.944-13.756-6.424-13.549-3.428.167 2.426 3.094 8.363 4.433 9.284 1.338.919 5.655 2.164 5.52 2.677-.419 1.588-3.764 2.759-3.346 3.177.42.418 13.048 5.102 20.742-6.189 0 0 3.077 3.842 5.98 3.806-3.084-3.047-3.628-4.461-4.39-7.219z"/><path fill="#fffdfd" d="M34.268 212.5s-.054.729.027.81c.08.082.46-.512.46-.512l-.487-.298zM33.483 212.039s-.055.729.027.81c.081.081.46-.513.46-.513l-.487-.297zM32.82 215.608s-.536-.496-.651-.483c-.113.013.116.679.116.679l.535-.196z"/><path fill="#bdcccc" d="M53.275 207.547s-2.599 5.607-10.158 5.395c-7.49-.209-14.013-7.82-15.686-9.828-1.148-1.375-1.93-2.192-2.414-2.254a1.541 1.541 0 0 0-.011.331c.166 2.426 3.093 8.364 4.433 9.284 1.337.919 5.654 2.164 5.52 2.677-.42 1.588-3.765 2.759-3.347 3.177.416.416 13.179 5.156 20.743-6.189.55-1.345.92-2.593.92-2.593z"/><path fill="#688da7" d="M37.857 206.502s.556 1.363-.573 2.985c0 0 .604-1.531.573-2.985zM38.438 206.951s.555 1.362-.573 2.985c0 0 .603-1.531.573-2.985zM38.909 207.388s.556 1.362-.573 2.985c0 0 .604-1.532.573-2.985z"/><path fill="#304454" d="M41.213 214.815c-.223-1.473-.848-1.473-.982-2.634 0 0 .043-.08.09-.178 0 0 3.39 2.41 4.507 2.722 0 0 .14 2.824 2.678 3.571-.022.063-.022.121-.022.191 0 .001-5.708.044-6.271-3.672z"/><path fill="#4d677a" d="M41.302 214.636c-.223-1.473-.848-1.473-.982-2.633 0 0 1.384.624 2.366.536 0 0 1.115 1.696 2.23 2.009 0 0 .269 2.677 2.589 3.748 0 0-5.64.056-6.203-3.66z"/><ellipse cx="35.198" cy="207.023" rx=".444" ry=".737" fill="#304454"/><path fill="#4d677a" d="M48.782 165.385s1.229-.887 1.467-.751c.239.136.035 1.024.035 1.024l-1.502-.273z"/><path fill="#bdcccc" d="M50.112 170.949s.62.155 1.01-.156c.387-.31.077-1.048.077-1.048l-1.087 1.204z"/><path fill="#4d677a" d="M35.164 175.181s-1.553 1.009-2.058 2.058c0 0 3.067-1.67 4.698-1.709 0 .001-1.747-.349-2.64-.349zM39.472 163.82s2.856-3.303 5.311-2.813c0 0-2.034 2.131-1.708 3.744.012.055.025.108.042.162.505 1.629-3.645-1.093-3.645-1.093z"/><path fill="#7a3440" d="M33.404 170.374s-2.575 3.451-1.792 4.288c1.225-.05 3.44-.914 3.44-.914l1.7-1.511-3.348-1.863z"/><path fill="#4d677a" d="M53.944 165.061c-.119-1.435.38-3.324.755-4.833l-.722-.335.975-.535c.375-1.12.94-2.222 1.751-3.263 0 0-2.347 1.034-4.174 2.91-1.696 1.74-.927 6.29-.927 6.29s-7.11.084-13.048-2.342c-7.21-2.944-13.756-6.424-13.549-3.428.167 2.426 3.094 8.363 4.433 9.284 1.338.919 5.655 2.164 5.52 2.677-.419 1.588-3.764 2.759-3.346 3.177.42.418 13.048 5.102 20.742-6.189 0 0 3.077 3.842 5.98 3.806-3.084-3.047-3.628-4.461-4.39-7.219z"/><path fill="#fffdfd" d="M34.268 170.833s-.054.729.027.81c.08.082.46-.512.46-.512l-.487-.298zM33.483 170.372s-.055.729.027.81c.081.081.46-.513.46-.513l-.487-.297zM32.82 173.941s-.536-.496-.651-.483c-.113.013.116.679.116.679l.535-.196z"/><path fill="#bdcccc" d="M53.275 165.88s-2.599 5.607-10.158 5.395c-7.49-.209-14.013-7.82-15.686-9.828-1.148-1.375-1.93-2.192-2.414-2.254a1.541 1.541 0 0 0-.011.331c.166 2.426 3.093 8.364 4.433 9.284 1.337.919 5.654 2.164 5.52 2.677-.42 1.588-3.765 2.759-3.347 3.177.416.416 13.179 5.156 20.743-6.189.55-1.345.92-2.593.92-2.593z"/><path fill="#688da7" d="M37.857 164.835s.556 1.363-.573 2.985c0 0 .604-1.531.573-2.985zM38.438 165.284s.555 1.362-.573 2.985c0 0 .603-1.531.573-2.985zM38.909 165.721s.556 1.362-.573 2.985c0 0 .604-1.532.573-2.985z"/><path fill="#304454" d="M41.213 173.148c-.223-1.473-.848-1.473-.982-2.634 0 0 .043-.08.09-.178 0 0 3.39 2.41 4.507 2.722 0 0 .14 2.824 2.678 3.571-.022.063-.022.121-.022.191 0 .001-5.708.044-6.271-3.672z"/><path fill="#4d677a" d="M41.302 172.969c-.223-1.473-.848-1.473-.982-2.633 0 0 1.384.624 2.366.536 0 0 1.115 1.696 2.23 2.009 0 0 .269 2.677 2.589 3.748 0 0-5.64.056-6.203-3.66z"/><ellipse cx="35.198" cy="165.357" rx=".444" ry=".737" fill="#304454"/><path fill="#4d677a" d="M48.782 123.718s1.229-.887 1.467-.751c.239.136.035 1.024.035 1.024l-1.502-.273z"/><path fill="#bdcccc" d="M50.112 129.283s.62.155 1.01-.156c.387-.31.077-1.048.077-1.048l-1.087 1.204z"/><path fill="#4d677a" d="M35.164 133.514s-1.553 1.009-2.058 2.058c0 0 3.067-1.67 4.698-1.709 0 .001-1.747-.349-2.64-.349zM39.472 122.153s2.856-3.303 5.311-2.813c0 0-2.034 2.131-1.708 3.744.012.055.025.108.042.162.505 1.629-3.645-1.093-3.645-1.093z"/><path fill="#7a3440" d="M33.404 128.708s-2.575 3.451-1.792 4.288c1.225-.05 3.44-.914 3.44-.914l1.7-1.511-3.348-1.863z"/><path fill="#4d677a" d="M53.944 123.394c-.119-1.435.38-3.324.755-4.833l-.722-.335.975-.535c.375-1.12.94-2.222 1.751-3.263 0 0-2.347 1.034-4.174 2.91-1.696 1.74-.927 6.29-.927 6.29s-7.11.084-13.048-2.342c-7.21-2.944-13.756-6.424-13.549-3.428.167 2.426 3.094 8.363 4.433 9.284 1.338.919 5.655 2.164 5.52 2.677-.419 1.588-3.764 2.759-3.346 3.177.42.418 13.048 5.102 20.742-6.189 0 0 3.077 3.842 5.98 3.806-3.084-3.047-3.628-4.461-4.39-7.219z"/><path fill="#fffdfd" d="M34.268 129.166s-.054.729.027.81c.08.082.46-.512.46-.512l-.487-.298zM33.483 128.705s-.055.729.027.81c.081.081.46-.513.46-.513l-.487-.297zM32.82 132.275s-.536-.496-.651-.483c-.113.013.116.679.116.679l.535-.196z"/><path fill="#bdcccc" d="M53.275 124.214s-2.599 5.607-10.158 5.395c-7.49-.209-14.013-7.82-15.686-9.828-1.148-1.375-1.93-2.192-2.414-2.254a1.541 1.541 0 0 0-.011.331c.166 2.426 3.093 8.364 4.433 9.284 1.337.919 5.654 2.164 5.52 2.677-.42 1.588-3.765 2.759-3.347 3.177.416.416 13.179 5.156 20.743-6.189.55-1.345.92-2.593.92-2.593z"/><path fill="#688da7" d="M37.857 123.168s.556 1.363-.573 2.985c0 0 .604-1.531.573-2.985zM38.438 123.618s.555 1.362-.573 2.985c0 0 .603-1.531.573-2.985zM38.909 124.054s.556 1.362-.573 2.985c0 0 .604-1.532.573-2.985z"/><path fill="#304454" d="M41.213 131.481c-.223-1.473-.848-1.473-.982-2.634 0 0 .043-.08.09-.178 0 0 3.39 2.41 4.507 2.722 0 0 .14 2.824 2.678 3.571-.022.063-.022.121-.022.191 0 .001-5.708.044-6.271-3.672z"/><path fill="#4d677a" d="M41.302 131.302c-.223-1.473-.848-1.473-.982-2.633 0 0 1.384.624 2.366.536 0 0 1.115 1.696 2.23 2.009 0 0 .269 2.677 2.589 3.748 0 0-5.64.056-6.203-3.66z"/><ellipse cx="35.198" cy="123.69" rx=".444" ry=".737" fill="#304454"/><path fill="#4d677a" d="M48.782 82.052s1.229-.887 1.467-.751c.239.136.035 1.024.035 1.024l-1.502-.273z"/><path fill="#bdcccc" d="M50.112 87.616s.62.155 1.01-.156c.387-.31.077-1.048.077-1.048l-1.087 1.204z"/><path fill="#4d677a" d="M35.164 91.847s-1.553 1.01-2.058 2.059c0 0 3.067-1.67 4.698-1.71 0 .002-1.747-.349-2.64-.349zM39.472 80.487s2.856-3.303 5.311-2.813c0 0-2.034 2.13-1.708 3.744.012.055.025.108.042.162.505 1.629-3.645-1.093-3.645-1.093z"/><path fill="#7a3440" d="M33.404 87.041s-2.575 3.451-1.792 4.288c1.225-.05 3.44-.914 3.44-.914l1.7-1.51-3.348-1.864z"/><path fill="#4d677a" d="M53.944 81.727c-.119-1.435.38-3.324.755-4.833l-.722-.335.975-.535c.375-1.12.94-2.222 1.751-3.263 0 0-2.347 1.034-4.174 2.91-1.696 1.74-.927 6.29-.927 6.29s-7.11.084-13.048-2.342c-7.21-2.944-13.756-6.424-13.549-3.428.167 2.426 3.094 8.363 4.433 9.284 1.338.92 5.655 2.164 5.52 2.677-.419 1.588-3.764 2.76-3.346 3.177.42.418 13.048 5.102 20.742-6.189 0 0 3.077 3.842 5.98 3.806-3.084-3.047-3.628-4.46-4.39-7.219z"/><path fill="#fffdfd" d="M34.268 87.5s-.054.729.027.81c.08.082.46-.512.46-.512l-.487-.298zM33.483 87.039s-.055.729.027.81c.081.08.46-.513.46-.513l-.487-.297zM32.82 90.608s-.536-.496-.651-.483c-.113.013.116.679.116.679l.535-.196z"/><path fill="#bdcccc" d="M53.275 82.547s-2.599 5.607-10.158 5.395c-7.49-.209-14.013-7.82-15.686-9.828-1.148-1.375-1.93-2.192-2.414-2.254a1.541 1.541 0 0 0-.011.331c.166 2.426 3.093 8.364 4.433 9.284 1.337.92 5.654 2.164 5.52 2.677-.42 1.588-3.765 2.76-3.347 3.177.416.416 13.179 5.156 20.743-6.189.55-1.345.92-2.593.92-2.593z"/><path fill="#688da7" d="M37.857 81.502s.556 1.363-.573 2.985c0 0 .604-1.531.573-2.985zM38.438 81.951s.555 1.362-.573 2.985c0 0 .603-1.53.573-2.985zM38.909 82.388s.556 1.362-.573 2.985c0 0 .604-1.532.573-2.985z"/><path fill="#304454" d="M41.213 89.815c-.223-1.473-.848-1.473-.982-2.634 0 0 .043-.08.09-.178 0 0 3.39 2.41 4.507 2.722 0 0 .14 2.824 2.678 3.57-.022.064-.022.122-.022.192 0 0-5.708.044-6.271-3.672z"/><path fill="#4d677a" d="M41.302 89.636c-.223-1.473-.848-1.473-.982-2.633 0 0 1.384.624 2.366.536 0 0 1.115 1.696 2.23 2.009 0 0 .269 2.677 2.589 3.748 0 0-5.64.056-6.203-3.66z"/><ellipse cx="35.198" cy="82.023" rx=".444" ry=".737" fill="#304454"/><path fill="#4d677a" d="M48.782 40.385s1.229-.887 1.467-.751c.239.136.035 1.024.035 1.024l-1.502-.273z"/><path fill="#bdcccc" d="M50.112 45.95s.62.154 1.01-.157c.387-.31.077-1.048.077-1.048l-1.087 1.204z"/><path fill="#4d677a" d="M35.164 50.18s-1.553 1.01-2.058 2.059c0 0 3.067-1.67 4.698-1.71 0 .002-1.747-.348-2.64-.348zM39.472 38.82s2.856-3.303 5.311-2.813c0 0-2.034 2.131-1.708 3.744.012.055.025.108.042.162.505 1.63-3.645-1.093-3.645-1.093z"/><path fill="#7a3440" d="M33.404 45.374s-2.575 3.451-1.792 4.288c1.225-.05 3.44-.913 3.44-.913l1.7-1.512-3.348-1.863z"/><path fill="#4d677a" d="M53.944 40.06c-.119-1.434.38-3.323.755-4.832l-.722-.335.975-.535c.375-1.12.94-2.222 1.751-3.263 0 0-2.347 1.034-4.174 2.91-1.696 1.74-.927 6.29-.927 6.29s-7.11.084-13.048-2.342c-7.21-2.944-13.756-6.424-13.549-3.428.167 2.426 3.094 8.363 4.433 9.284 1.338.919 5.655 2.164 5.52 2.677-.419 1.588-3.764 2.759-3.346 3.177.42.418 13.048 5.102 20.742-6.19 0 0 3.077 3.843 5.98 3.807-3.084-3.047-3.628-4.461-4.39-7.22z"/><path fill="#fffdfd" d="M34.268 45.833s-.054.73.027.81c.08.082.46-.512.46-.512l-.487-.298zM33.483 45.372s-.055.729.027.81c.081.081.46-.513.46-.513l-.487-.297zM32.82 48.941s-.536-.496-.651-.483c-.113.013.116.68.116.68l.535-.197z"/><path fill="#bdcccc" d="M53.275 40.88s-2.599 5.607-10.158 5.395c-7.49-.209-14.013-7.82-15.686-9.828-1.148-1.375-1.93-2.192-2.414-2.254a1.541 1.541 0 0 0-.011.332c.166 2.425 3.093 8.364 4.433 9.284 1.337.919 5.654 2.163 5.52 2.677-.42 1.588-3.765 2.759-3.347 3.177.416.416 13.179 5.156 20.743-6.19.55-1.344.92-2.593.92-2.593z"/><path fill="#688da7" d="M37.857 39.835s.556 1.363-.573 2.985c0 0 .604-1.53.573-2.985zM38.438 40.285s.555 1.362-.573 2.985c0 0 .603-1.532.573-2.986zM38.909 40.721s.556 1.362-.573 2.985c0 0 .604-1.532.573-2.985z"/><path fill="#304454" d="M41.213 48.148c-.223-1.473-.848-1.473-.982-2.634 0 0 .043-.08.09-.178 0 0 3.39 2.41 4.507 2.722 0 0 .14 2.824 2.678 3.571-.022.063-.022.121-.022.191 0 .001-5.708.044-6.271-3.672z"/><path fill="#4d677a" d="M41.302 47.969c-.223-1.473-.848-1.473-.982-2.633 0 0 1.384.624 2.366.536 0 0 1.115 1.696 2.23 2.009 0 0 .269 2.677 2.589 3.748 0 0-5.64.056-6.203-3.66z"/><ellipse cx="35.198" cy="40.357" rx=".444" ry=".737" fill="#304454"/><path fill="#4d677a" d="M90.449 207.052s1.229-.887 1.467-.751c.239.136.035 1.024.035 1.024l-1.502-.273z"/><path fill="#bdcccc" d="M91.778 212.616s.621.155 1.01-.156c.387-.31.077-1.048.077-1.048l-1.087 1.204z"/><path fill="#4d677a" d="M76.83 216.848s-1.552 1.009-2.057 2.058c0 0 3.067-1.67 4.698-1.709 0 .001-1.747-.349-2.64-.349zM81.139 205.487s2.856-3.303 5.31-2.813c0 0-2.033 2.131-1.707 3.744.012.055.025.108.042.162.505 1.629-3.645-1.093-3.645-1.093z"/><path fill="#7a3440" d="M75.07 212.041s-2.574 3.451-1.791 4.288c1.225-.05 3.439-.914 3.439-.914l1.7-1.511-3.347-1.863z"/><path fill="#4d677a" d="M95.61 206.727c-.118-1.435.38-3.324.756-4.833l-.722-.335.975-.535c.375-1.12.939-2.222 1.75-3.263 0 0-2.346 1.034-4.173 2.91-1.696 1.74-.927 6.29-.927 6.29s-7.11.084-13.048-2.342c-7.21-2.944-13.756-6.424-13.55-3.428.168 2.426 3.095 8.363 4.434 9.284 1.338.919 5.655 2.164 5.52 2.677-.42 1.588-3.764 2.759-3.346 3.177.419.418 13.048 5.102 20.742-6.189 0 0 3.077 3.842 5.979 3.806-3.083-3.047-3.627-4.461-4.39-7.219z"/><path fill="#fffdfd" d="M75.935 212.5s-.054.729.027.81c.08.082.459-.512.459-.512l-.486-.298zM75.15 212.039s-.055.729.027.81c.08.081.459-.513.459-.513l-.486-.297zM74.487 215.608s-.536-.496-.651-.483c-.114.013.115.679.115.679l.536-.196z"/><path fill="#bdcccc" d="M94.941 207.547s-2.598 5.607-10.158 5.395c-7.489-.209-14.013-7.82-15.686-9.828-1.147-1.375-1.929-2.192-2.413-2.254a1.541 1.541 0 0 0-.012.331c.167 2.426 3.094 8.364 4.433 9.284 1.338.919 5.655 2.164 5.52 2.677-.419 1.588-3.764 2.759-3.346 3.177.415.416 13.178 5.156 20.742-6.189.551-1.345.92-2.593.92-2.593z"/><path fill="#688da7" d="M79.524 206.502s.556 1.363-.573 2.985c0 0 .604-1.531.573-2.985zM80.105 206.951s.555 1.362-.573 2.985c0 0 .603-1.531.573-2.985zM80.575 207.388s.556 1.362-.573 2.985c0 0 .604-1.532.573-2.985z"/><path fill="#304454" d="M82.88 214.815c-.224-1.473-.849-1.473-.983-2.634 0 0 .043-.08.09-.178 0 0 3.391 2.41 4.507 2.722 0 0 .141 2.824 2.678 3.571-.022.063-.022.121-.022.191 0 .001-5.708.044-6.27-3.672z"/><path fill="#4d677a" d="M82.969 214.636c-.223-1.473-.848-1.473-.982-2.633 0 0 1.384.624 2.366.536 0 0 1.115 1.696 2.23 2.009 0 0 .269 2.677 2.588 3.748.001 0-5.64.056-6.203-3.66z"/><ellipse cx="76.865" cy="207.023" rx=".444" ry=".737" fill="#304454"/><path fill="#4d677a" d="M90.449 165.385s1.229-.887 1.467-.751c.239.136.035 1.024.035 1.024l-1.502-.273z"/><path fill="#bdcccc" d="M91.778 170.949s.621.155 1.01-.156c.387-.31.077-1.048.077-1.048l-1.087 1.204z"/><path fill="#4d677a" d="M76.83 175.181s-1.552 1.009-2.057 2.058c0 0 3.067-1.67 4.698-1.709 0 .001-1.747-.349-2.64-.349zM81.139 163.82s2.856-3.303 5.31-2.813c0 0-2.033 2.131-1.707 3.744.012.055.025.108.042.162.505 1.629-3.645-1.093-3.645-1.093z"/><path fill="#7a3440" d="M75.07 170.374s-2.574 3.451-1.791 4.288c1.225-.05 3.439-.914 3.439-.914l1.7-1.511-3.347-1.863z"/><path fill="#4d677a" d="M95.61 165.061c-.118-1.435.38-3.324.756-4.833l-.722-.335.975-.535c.375-1.12.939-2.222 1.75-3.263 0 0-2.346 1.034-4.173 2.91-1.696 1.74-.927 6.29-.927 6.29s-7.11.084-13.048-2.342c-7.21-2.944-13.756-6.424-13.55-3.428.168 2.426 3.095 8.363 4.434 9.284 1.338.919 5.655 2.164 5.52 2.677-.42 1.588-3.764 2.759-3.346 3.177.419.418 13.048 5.102 20.742-6.189 0 0 3.077 3.842 5.979 3.806-3.083-3.047-3.627-4.461-4.39-7.219z"/><path fill="#fffdfd" d="M75.935 170.833s-.054.729.027.81c.08.082.459-.512.459-.512l-.486-.298zM75.15 170.372s-.055.729.027.81c.08.081.459-.513.459-.513l-.486-.297zM74.487 173.941s-.536-.496-.651-.483c-.114.013.115.679.115.679l.536-.196z"/><path fill="#bdcccc" d="M94.941 165.88s-2.598 5.607-10.158 5.395c-7.489-.209-14.013-7.82-15.686-9.828-1.147-1.375-1.929-2.192-2.413-2.254a1.541 1.541 0 0 0-.012.331c.167 2.426 3.094 8.364 4.433 9.284 1.338.919 5.655 2.164 5.52 2.677-.419 1.588-3.764 2.759-3.346 3.177.415.416 13.178 5.156 20.742-6.189.551-1.345.92-2.593.92-2.593z"/><path fill="#688da7" d="M79.524 164.835s.556 1.363-.573 2.985c0 0 .604-1.531.573-2.985zM80.105 165.284s.555 1.362-.573 2.985c0 0 .603-1.531.573-2.985zM80.575 165.721s.556 1.362-.573 2.985c0 0 .604-1.532.573-2.985z"/><path fill="#304454" d="M82.88 173.148c-.224-1.473-.849-1.473-.983-2.634 0 0 .043-.08.09-.178 0 0 3.391 2.41 4.507 2.722 0 0 .141 2.824 2.678 3.571-.022.063-.022.121-.022.191 0 .001-5.708.044-6.27-3.672z"/><path fill="#4d677a" d="M82.969 172.969c-.223-1.473-.848-1.473-.982-2.633 0 0 1.384.624 2.366.536 0 0 1.115 1.696 2.23 2.009 0 0 .269 2.677 2.588 3.748.001 0-5.64.056-6.203-3.66z"/><ellipse cx="76.865" cy="165.357" rx=".444" ry=".737" fill="#304454"/><path fill="#4d677a" d="M90.449 123.718s1.229-.887 1.467-.751c.239.136.035 1.024.035 1.024l-1.502-.273z"/><path fill="#bdcccc" d="M91.778 129.283s.621.155 1.01-.156c.387-.31.077-1.048.077-1.048l-1.087 1.204z"/><path fill="#4d677a" d="M76.83 133.514s-1.552 1.009-2.057 2.058c0 0 3.067-1.67 4.698-1.709 0 .001-1.747-.349-2.64-.349zM81.139 122.153s2.856-3.303 5.31-2.813c0 0-2.033 2.131-1.707 3.744.012.055.025.108.042.162.505 1.629-3.645-1.093-3.645-1.093z"/><path fill="#7a3440" d="M75.07 128.708s-2.574 3.451-1.791 4.288c1.225-.05 3.439-.914 3.439-.914l1.7-1.511-3.347-1.863z"/><path fill="#4d677a" d="M95.61 123.394c-.118-1.435.38-3.324.756-4.833l-.722-.335.975-.535c.375-1.12.939-2.222 1.75-3.263 0 0-2.346 1.034-4.173 2.91-1.696 1.74-.927 6.29-.927 6.29s-7.11.084-13.048-2.342c-7.21-2.944-13.756-6.424-13.55-3.428.168 2.426 3.095 8.363 4.434 9.284 1.338.919 5.655 2.164 5.52 2.677-.42 1.588-3.764 2.759-3.346 3.177.419.418 13.048 5.102 20.742-6.189 0 0 3.077 3.842 5.979 3.806-3.083-3.047-3.627-4.461-4.39-7.219z"/><path fill="#fffdfd" d="M75.935 129.166s-.054.729.027.81c.08.082.459-.512.459-.512l-.486-.298zM75.15 128.705s-.055.729.027.81c.08.081.459-.513.459-.513l-.486-.297zM74.487 132.275s-.536-.496-.651-.483c-.114.013.115.679.115.679l.536-.196z"/><path fill="#bdcccc" d="M94.941 124.214s-2.598 5.607-10.158 5.395c-7.489-.209-14.013-7.82-15.686-9.828-1.147-1.375-1.929-2.192-2.413-2.254a1.541 1.541 0 0 0-.012.331c.167 2.426 3.094 8.364 4.433 9.284 1.338.919 5.655 2.164 5.52 2.677-.419 1.588-3.764 2.759-3.346 3.177.415.416 13.178 5.156 20.742-6.189.551-1.345.92-2.593.92-2.593z"/><path fill="#688da7" d="M79.524 123.168s.556 1.363-.573 2.985c0 0 .604-1.531.573-2.985zM80.105 123.618s.555 1.362-.573 2.985c0 0 .603-1.531.573-2.985zM80.575 124.054s.556 1.362-.573 2.985c0 0 .604-1.532.573-2.985z"/><path fill="#304454" d="M82.88 131.481c-.224-1.473-.849-1.473-.983-2.634 0 0 .043-.08.09-.178 0 0 3.391 2.41 4.507 2.722 0 0 .141 2.824 2.678 3.571-.022.063-.022.121-.022.191 0 .001-5.708.044-6.27-3.672z"/><path fill="#4d677a" d="M82.969 131.302c-.223-1.473-.848-1.473-.982-2.633 0 0 1.384.624 2.366.536 0 0 1.115 1.696 2.23 2.009 0 0 .269 2.677 2.588 3.748.001 0-5.64.056-6.203-3.66z"/><ellipse cx="76.865" cy="123.69" rx=".444" ry=".737" fill="#304454"/><path fill="#4d677a" d="M90.449 82.052s1.229-.887 1.467-.751c.239.136.035 1.024.035 1.024l-1.502-.273z"/><path fill="#bdcccc" d="M91.778 87.616s.621.155 1.01-.156c.387-.31.077-1.048.077-1.048l-1.087 1.204z"/><path fill="#4d677a" d="M76.83 91.847s-1.552 1.01-2.057 2.059c0 0 3.067-1.67 4.698-1.71 0 .002-1.747-.349-2.64-.349zM81.139 80.487s2.856-3.303 5.31-2.813c0 0-2.033 2.13-1.707 3.744.012.055.025.108.042.162.505 1.629-3.645-1.093-3.645-1.093z"/><path fill="#7a3440" d="M75.07 87.041s-2.574 3.451-1.791 4.288c1.225-.05 3.439-.914 3.439-.914l1.7-1.51-3.347-1.864z"/><path fill="#4d677a" d="M95.61 81.727c-.118-1.435.38-3.324.756-4.833l-.722-.335.975-.535c.375-1.12.939-2.222 1.75-3.263 0 0-2.346 1.034-4.173 2.91-1.696 1.74-.927 6.29-.927 6.29s-7.11.084-13.048-2.342c-7.21-2.944-13.756-6.424-13.55-3.428.168 2.426 3.095 8.363 4.434 9.284 1.338.92 5.655 2.164 5.52 2.677-.42 1.588-3.764 2.76-3.346 3.177.419.418 13.048 5.102 20.742-6.189 0 0 3.077 3.842 5.979 3.806-3.083-3.047-3.627-4.46-4.39-7.219z"/><path fill="#fffdfd" d="M75.935 87.5s-.054.729.027.81c.08.082.459-.512.459-.512l-.486-.298zM75.15 87.039s-.055.729.027.81c.08.08.459-.513.459-.513l-.486-.297zM74.487 90.608s-.536-.496-.651-.483c-.114.013.115.679.115.679l.536-.196z"/><path fill="#bdcccc" d="M94.941 82.547s-2.598 5.607-10.158 5.395c-7.489-.209-14.013-7.82-15.686-9.828-1.147-1.375-1.929-2.192-2.413-2.254a1.541 1.541 0 0 0-.012.331c.167 2.426 3.094 8.364 4.433 9.284 1.338.92 5.655 2.164 5.52 2.677-.419 1.588-3.764 2.76-3.346 3.177.415.416 13.178 5.156 20.742-6.189.551-1.345.92-2.593.92-2.593z"/><path fill="#688da7" d="M79.524 81.502s.556 1.363-.573 2.985c0 0 .604-1.531.573-2.985zM80.105 81.951s.555 1.362-.573 2.985c0 0 .603-1.53.573-2.985zM80.575 82.388s.556 1.362-.573 2.985c0 0 .604-1.532.573-2.985z"/><path fill="#304454" d="M82.88 89.815c-.224-1.473-.849-1.473-.983-2.634 0 0 .043-.08.09-.178 0 0 3.391 2.41 4.507 2.722 0 0 .141 2.824 2.678 3.57-.022.064-.022.122-.022.192 0 0-5.708.044-6.27-3.672z"/><path fill="#4d677a" d="M82.969 89.636c-.223-1.473-.848-1.473-.982-2.633 0 0 1.384.624 2.366.536 0 0 1.115 1.696 2.23 2.009 0 0 .269 2.677 2.588 3.748.001 0-5.64.056-6.203-3.66z"/><ellipse cx="76.865" cy="82.023" rx=".444" ry=".737" fill="#304454"/><path fill="#4d677a" d="M90.449 40.385s1.229-.887 1.467-.751c.239.136.035 1.024.035 1.024l-1.502-.273z"/><path fill="#bdcccc" d="M91.778 45.95s.621.154 1.01-.157c.387-.31.077-1.048.077-1.048l-1.087 1.204z"/><path fill="#4d677a" d="M76.83 50.18s-1.552 1.01-2.057 2.059c0 0 3.067-1.67 4.698-1.71 0 .002-1.747-.348-2.64-.348zM81.139 38.82s2.856-3.303 5.31-2.813c0 0-2.033 2.131-1.707 3.744.012.055.025.108.042.162.505 1.63-3.645-1.093-3.645-1.093z"/><path fill="#7a3440" d="M75.07 45.374s-2.574 3.451-1.791 4.288c1.225-.05 3.439-.913 3.439-.913l1.7-1.512-3.347-1.863z"/><path fill="#4d677a" d="M95.61 40.06c-.118-1.434.38-3.323.756-4.832l-.722-.335.975-.535c.375-1.12.939-2.222 1.75-3.263 0 0-2.346 1.034-4.173 2.91-1.696 1.74-.927 6.29-.927 6.29s-7.11.084-13.048-2.342c-7.21-2.944-13.756-6.424-13.55-3.428.168 2.426 3.095 8.363 4.434 9.284 1.338.919 5.655 2.164 5.52 2.677-.42 1.588-3.764 2.759-3.346 3.177.419.418 13.048 5.102 20.742-6.19 0 0 3.077 3.843 5.979 3.807-3.083-3.047-3.627-4.461-4.39-7.22z"/><path fill="#fffdfd" d="M75.935 45.833s-.054.73.027.81c.08.082.459-.512.459-.512l-.486-.298zM75.15 45.372s-.055.729.027.81c.08.081.459-.513.459-.513l-.486-.297zM74.487 48.941s-.536-.496-.651-.483c-.114.013.115.68.115.68l.536-.197z"/><path fill="#bdcccc" d="M94.941 40.88s-2.598 5.607-10.158 5.395c-7.489-.209-14.013-7.82-15.686-9.828-1.147-1.375-1.929-2.192-2.413-2.254a1.541 1.541 0 0 0-.012.332c.167 2.425 3.094 8.364 4.433 9.284 1.338.919 5.655 2.163 5.52 2.677-.419 1.588-3.764 2.759-3.346 3.177.415.416 13.178 5.156 20.742-6.19.551-1.344.92-2.593.92-2.593z"/><path fill="#688da7" d="M79.524 39.835s.556 1.363-.573 2.985c0 0 .604-1.53.573-2.985zM80.105 40.285s.555 1.362-.573 2.985c0 0 .603-1.532.573-2.986zM80.575 40.721s.556 1.362-.573 2.985c0 0 .604-1.532.573-2.985z"/><path fill="#304454" d="M82.88 48.148c-.224-1.473-.849-1.473-.983-2.634 0 0 .043-.08.09-.178 0 0 3.391 2.41 4.507 2.722 0 0 .141 2.824 2.678 3.571-.022.063-.022.121-.022.191 0 .001-5.708.044-6.27-3.672z"/><path fill="#4d677a" d="M82.969 47.969c-.223-1.473-.848-1.473-.982-2.633 0 0 1.384.624 2.366.536 0 0 1.115 1.696 2.23 2.009 0 0 .269 2.677 2.588 3.748.001 0-5.64.056-6.203-3.66z"/><ellipse cx="76.865" cy="40.357" rx=".444" ry=".737" fill="#304454"/><path fill="#4d677a" d="M132.115 207.052s1.229-.887 1.467-.751c.239.136.035 1.024.035 1.024l-1.502-.273z"/><path fill="#bdcccc" d="M133.445 212.616s.621.155 1.01-.156c.387-.31.077-1.048.077-1.048l-1.087 1.204z"/><path fill="#4d677a" d="M118.497 216.848s-1.553 1.009-2.058 2.058c0 0 3.067-1.67 4.698-1.709 0 .001-1.747-.349-2.64-.349zM122.805 205.487s2.856-3.303 5.311-2.813c0 0-2.034 2.131-1.708 3.744.012.055.025.108.042.162.505 1.629-3.645-1.093-3.645-1.093z"/><path fill="#7a3440" d="M116.738 212.041s-2.575 3.451-1.792 4.288c1.225-.05 3.439-.914 3.439-.914l1.701-1.511-3.348-1.863z"/><path fill="#4d677a" d="M137.277 206.727c-.119-1.435.379-3.324.755-4.833l-.722-.335.975-.535c.375-1.12.939-2.222 1.751-3.263 0 0-2.347 1.034-4.174 2.91-1.696 1.74-.927 6.29-.927 6.29s-7.11.084-13.048-2.342c-7.21-2.944-13.756-6.424-13.549-3.428.167 2.426 3.094 8.363 4.433 9.284 1.338.919 5.655 2.164 5.52 2.677-.419 1.588-3.764 2.759-3.346 3.177.419.418 13.048 5.102 20.742-6.189 0 0 3.077 3.842 5.979 3.806-3.083-3.047-3.627-4.461-4.389-7.219z"/><path fill="#fffdfd" d="M117.602 212.5s-.054.729.027.81c.08.082.459-.512.459-.512l-.486-.298zM116.817 212.039s-.055.729.027.81c.081.081.459-.513.459-.513l-.486-.297zM116.153 215.608s-.536-.496-.651-.483c-.113.013.116.679.116.679l.535-.196z"/><path fill="#bdcccc" d="M136.608 207.547s-2.598 5.607-10.158 5.395c-7.489-.209-14.013-7.82-15.686-9.828-1.147-1.375-1.929-2.192-2.413-2.254a1.541 1.541 0 0 0-.012.331c.167 2.426 3.094 8.364 4.433 9.284 1.338.919 5.655 2.164 5.52 2.677-.419 1.588-3.764 2.759-3.346 3.177.415.416 13.178 5.156 20.742-6.189.551-1.345.92-2.593.92-2.593z"/><path fill="#688da7" d="M121.19 206.502s.556 1.363-.573 2.985c0 0 .604-1.531.573-2.985zM121.772 206.951s.555 1.362-.573 2.985c0 0 .603-1.531.573-2.985zM122.242 207.388s.556 1.362-.573 2.985c0 0 .604-1.532.573-2.985z"/><path fill="#304454" d="M124.546 214.815c-.223-1.473-.848-1.473-.982-2.634 0 0 .043-.08.09-.178 0 0 3.391 2.41 4.507 2.722 0 0 .141 2.824 2.678 3.571-.022.063-.022.121-.022.191 0 .001-5.708.044-6.271-3.672z"/><path fill="#4d677a" d="M124.635 214.636c-.223-1.473-.848-1.473-.982-2.633 0 0 1.384.624 2.366.536 0 0 1.115 1.696 2.231 2.009 0 0 .268 2.677 2.588 3.748.001 0-5.64.056-6.203-3.66z"/><ellipse cx="118.531" cy="207.023" rx=".444" ry=".737" fill="#304454"/><path fill="#4d677a" d="M132.115 165.385s1.229-.887 1.467-.751c.239.136.035 1.024.035 1.024l-1.502-.273z"/><path fill="#bdcccc" d="M133.445 170.949s.621.155 1.01-.156c.387-.31.077-1.048.077-1.048l-1.087 1.204z"/><path fill="#4d677a" d="M118.497 175.181s-1.553 1.009-2.058 2.058c0 0 3.067-1.67 4.698-1.709 0 .001-1.747-.349-2.64-.349zM122.805 163.82s2.856-3.303 5.311-2.813c0 0-2.034 2.131-1.708 3.744.012.055.025.108.042.162.505 1.629-3.645-1.093-3.645-1.093z"/><path fill="#7a3440" d="M116.738 170.374s-2.575 3.451-1.792 4.288c1.225-.05 3.439-.914 3.439-.914l1.701-1.511-3.348-1.863z"/><path fill="#4d677a" d="M137.277 165.061c-.119-1.435.379-3.324.755-4.833l-.722-.335.975-.535c.375-1.12.939-2.222 1.751-3.263 0 0-2.347 1.034-4.174 2.91-1.696 1.74-.927 6.29-.927 6.29s-7.11.084-13.048-2.342c-7.21-2.944-13.756-6.424-13.549-3.428.167 2.426 3.094 8.363 4.433 9.284 1.338.919 5.655 2.164 5.52 2.677-.419 1.588-3.764 2.759-3.346 3.177.419.418 13.048 5.102 20.742-6.189 0 0 3.077 3.842 5.979 3.806-3.083-3.047-3.627-4.461-4.389-7.219z"/><path fill="#fffdfd" d="M117.602 170.833s-.054.729.027.81c.08.082.459-.512.459-.512l-.486-.298zM116.817 170.372s-.055.729.027.81c.081.081.459-.513.459-.513l-.486-.297zM116.153 173.941s-.536-.496-.651-.483c-.113.013.116.679.116.679l.535-.196z"/><path fill="#bdcccc" d="M136.608 165.88s-2.598 5.607-10.158 5.395c-7.489-.209-14.013-7.82-15.686-9.828-1.147-1.375-1.929-2.192-2.413-2.254a1.541 1.541 0 0 0-.012.331c.167 2.426 3.094 8.364 4.433 9.284 1.338.919 5.655 2.164 5.52 2.677-.419 1.588-3.764 2.759-3.346 3.177.415.416 13.178 5.156 20.742-6.189.551-1.345.92-2.593.92-2.593z"/><path fill="#688da7" d="M121.19 164.835s.556 1.363-.573 2.985c0 0 .604-1.531.573-2.985zM121.772 165.284s.555 1.362-.573 2.985c0 0 .603-1.531.573-2.985zM122.242 165.721s.556 1.362-.573 2.985c0 0 .604-1.532.573-2.985z"/><path fill="#304454" d="M124.546 173.148c-.223-1.473-.848-1.473-.982-2.634 0 0 .043-.08.09-.178 0 0 3.391 2.41 4.507 2.722 0 0 .141 2.824 2.678 3.571-.022.063-.022.121-.022.191 0 .001-5.708.044-6.271-3.672z"/><path fill="#4d677a" d="M124.635 172.969c-.223-1.473-.848-1.473-.982-2.633 0 0 1.384.624 2.366.536 0 0 1.115 1.696 2.231 2.009 0 0 .268 2.677 2.588 3.748.001 0-5.64.056-6.203-3.66z"/><ellipse cx="118.531" cy="165.357" rx=".444" ry=".737" fill="#304454"/></svg>
