<svg xmlns="http://www.w3.org/2000/svg" width="270" height="67.5" viewBox="0 0 270 67.5"><path fill="none" stroke="#000" d="M11.25 56.25h112.5M11.25 33.75h112.5M11.25 11.25h112.5M11.25 56.25v-45M33.75 56.25v-45M56.25 56.25v-45M78.75 56.25v-45M101.25 56.25v-45M123.75 56.25v-45" stroke-width="2"/><ellipse cx="22.5" cy="22.5" rx="8.55" ry="8.55" fill="#0c7f99" stroke="#0c7f99" stroke-width="2" stroke-dasharray="0"/><ellipse cx="45" cy="22.5" rx="8.55" ry="8.55" fill="#0c7f99" stroke="#0c7f99" stroke-width="2" stroke-dasharray="0"/><ellipse cx="67.5" cy="22.5" rx="8.55" ry="8.55" fill="#0c7f99" stroke="#0c7f99" stroke-width="2" stroke-dasharray="0"/><path fill="none" stroke="#000" d="M11.25 56.25h112.5M11.25 33.75h112.5M11.25 11.25h112.5M11.25 56.25v-45M33.75 56.25v-45M56.25 56.25v-45M78.75 56.25v-45M101.25 56.25v-45M123.75 56.25v-45M146.25 56.25h112.5M146.25 33.75h112.5M146.25 11.25h112.5M146.25 56.25v-45M168.75 56.25v-45M191.25 56.25v-45M213.75 56.25v-45M236.25 56.25v-45M258.75 56.25v-45" stroke-width="2"/><ellipse cx="90" cy="22.5" rx="8.55" ry="8.55" fill="#ca337c" stroke="#ca337c" stroke-width="2" stroke-dasharray="0"/><path fill="none" stroke="#000" d="M81.45 31.05l17.1-17.1M81.45 13.95l17.1 17.1" stroke-width="2"/><ellipse cx="112.5" cy="22.5" rx="8.55" ry="8.55" fill="#ca337c" stroke="#ca337c" stroke-width="2" stroke-dasharray="0"/><path fill="none" stroke="#000" d="M103.95 31.05l17.1-17.1M103.95 13.95l17.1 17.1" stroke-width="2"/><ellipse cx="22.5" cy="45" rx="8.55" ry="8.55" fill="#ca337c" stroke="#ca337c" stroke-width="2" stroke-dasharray="0"/><path fill="none" stroke="#000" d="M13.95 53.55l17.1-17.1M13.95 36.45l17.1 17.1" stroke-width="2"/><ellipse cx="45" cy="45" rx="8.55" ry="8.55" fill="#ca337c" stroke="#ca337c" stroke-width="2" stroke-dasharray="0"/><path fill="none" stroke="#000" d="M36.45 53.55l17.1-17.1M36.45 36.45l17.1 17.1" stroke-width="2"/><ellipse cx="67.5" cy="45" rx="8.55" ry="8.55" fill="#ca337c" stroke="#ca337c" stroke-width="2" stroke-dasharray="0"/><path fill="none" stroke="#000" d="M58.95 53.55l17.1-17.1M58.95 36.45l17.1 17.1" stroke-width="2"/><ellipse cx="90" cy="45" rx="8.55" ry="8.55" fill="#ca337c" stroke="#ca337c" stroke-width="2" stroke-dasharray="0"/><path fill="none" stroke="#000" d="M81.45 53.55l17.1-17.1M81.45 36.45l17.1 17.1" stroke-width="2"/><ellipse cx="112.5" cy="45" rx="8.55" ry="8.55" fill="#ca337c" stroke="#ca337c" stroke-width="2" stroke-dasharray="0"/><path fill="none" stroke="#000" d="M103.95 53.55l17.1-17.1M103.95 36.45l17.1 17.1" stroke-width="2"/><ellipse cx="157.5" cy="22.5" rx="8.55" ry="8.55" fill="#ca337c" stroke="#ca337c" stroke-width="2" stroke-dasharray="0"/><path fill="none" stroke="#000" d="M148.95 31.05l17.1-17.1M148.95 13.95l17.1 17.1" stroke-width="2"/><ellipse cx="180" cy="22.5" rx="8.55" ry="8.55" fill="#ca337c" stroke="#ca337c" stroke-width="2" stroke-dasharray="0"/><path fill="none" stroke="#000" d="M171.45 31.05l17.1-17.1M171.45 13.95l17.1 17.1" stroke-width="2"/><ellipse cx="202.5" cy="22.5" rx="8.55" ry="8.55" fill="#ca337c" stroke="#ca337c" stroke-width="2" stroke-dasharray="0"/><path fill="none" stroke="#000" d="M193.95 31.05l17.1-17.1M193.95 13.95l17.1 17.1" stroke-width="2"/><ellipse cx="225" cy="22.5" rx="8.55" ry="8.55" fill="#ca337c" stroke="#ca337c" stroke-width="2" stroke-dasharray="0"/><path fill="none" stroke="#000" d="M216.45 31.05l17.1-17.1M216.45 13.95l17.1 17.1" stroke-width="2"/><ellipse cx="247.5" cy="22.5" rx="8.55" ry="8.55" fill="#ca337c" stroke="#ca337c" stroke-width="2" stroke-dasharray="0"/><path fill="none" stroke="#000" d="M238.95 31.05l17.1-17.1M238.95 13.95l17.1 17.1" stroke-width="2"/><ellipse cx="157.5" cy="45" rx="8.55" ry="8.55" fill="#ca337c" stroke="#ca337c" stroke-width="2" stroke-dasharray="0"/><path fill="none" stroke="#000" d="M148.95 53.55l17.1-17.1M148.95 36.45l17.1 17.1" stroke-width="2"/></svg>
