<svg xmlns="http://www.w3.org/2000/svg" width="163.636" height="200" viewBox="0 0 163.63636363636365 200.00000000000003"><path fill="#bed575" d="M23.075 176.267s.32-1.633-.252-2.948c-.4-.917-2.616.108-5.34 1.553-3.067 1.629-5.574-.828-4.505 1.995 1.054 2.784 3.685 4.399 6.357 3.246 1.524-.657 3.36-1.87 3.74-3.846z"/><path fill="#d0e285" d="M33.964 174.635s-.62-1.172-.489-2.307c.092-.792 2.02-.522 4.432-.049 2.716.533 4.061-1.921 3.898.481-.16 2.366-1.794 4.206-4.099 3.945-1.315-.149-2.996-.651-3.742-2.07zM26.082 180.026s-.32-1.633.252-2.948c.4-.917 2.616.108 5.34 1.553 3.067 1.629 5.574-.828 4.505 1.995-1.054 2.784-3.685 4.399-6.357 3.246-1.524-.657-3.36-1.87-3.74-3.846z"/><ellipse cx="28.051" cy="171.696" rx="11.153" ry="7.385" fill="#bed575"/><path fill="#bed575" d="M18.955 170.1c0 3.903 4.255 7.067 9.503 7.067s9.504-3.164 9.504-7.067-4.385-8.893-9.634-8.893-9.373 4.99-9.373 8.893z"/><path fill="#a9bc65" d="M25.696 170.964l2.72 1.717 2.847-1.496.128-3.214-2.72-1.718-2.847 1.497zM24.416 171.024l.128-3.214-2.72-1.718-2.06 1.083c-.518 1.07-.808 2.175-.808 3.205 0 .171.01.339.027.506l2.587 1.634 2.846-1.496zM29.247 162.473l.102 2.868 2.305 1.712 2.203-1.158-.092-2.563a9.967 9.967 0 0 0-3.214-1.544l-1.304.685zM32.289 171.626l2.72 1.717 2.728-1.433c.058-.195.104-.392.14-.592l.058-1.456a6.76 6.76 0 0 0-.31-1.456l-2.361-1.491-2.847 1.497-.128 3.214zM21.937 165.806l2.405 1.536 3.076-1.662.672-3.198-1.322-.844c-1.67.318-3.18 1.124-4.416 2.193l-.415 1.975zM35.181 164.54l-.045 1.14 1.77 1.118a10.81 10.81 0 0 0-1.725-2.258zM33.97 176.136l.072-1.809-2.72-1.717-2.847 1.496-.128 3.214.2.126c2.02-.014 3.89-.497 5.423-1.31zM27.625 176.874l.128-3.214-2.72-1.718-2.847 1.497-.087 2.192c1.283.86 2.884 1.462 4.655 1.701l.87-.458zM37.38 172.82l-2.447 1.286-.059 1.487c1.11-.755 1.977-1.703 2.506-2.773zM21.222 174.958l.066-1.672-2.09-1.32c.347 1.123 1.053 2.144 2.024 2.992z"/><path fill="#a9bc65" d="M22.287 168.672s1.434-.844 2.864-.742c.997.071 2.165.253 3.157 1.213 1.35 1.306 1.67 3.461 1.688 4.564.043 2.913-1.903 4.758-4.921 4.688-2.976-.07-5.373-2.014-5.174-4.918.114-1.655.648-3.79 2.386-4.805z" opacity=".7"/><path fill="#d0e285" d="M17.664 174.737s.518-1.392 1.55-2.139c.72-.521 1.614-1.064 2.816-.978 1.634.117-.927 2.241.423 4.576 1.522 2.629 4.516 1.884 2.418 3.559-2.068 1.651-4.765 1.697-6.213-.39-.826-1.19-1.626-2.947-.994-4.628z"/><path fill="#d0e285" d="M17.233 165.509s1.434-.844 2.864-.742c.998.071 2.165.253 3.157 1.213 1.351 1.306 1.671 3.461 1.688 4.564.043 2.913-1.902 4.758-4.92 4.688-2.975-.07-5.373-2.014-5.173-4.918.112-1.655.647-3.79 2.384-4.805z"/><ellipse cx="21.133" cy="170.282" rx=".377" ry=".524" fill="#304454" transform="rotate(188.893 21.133 170.282)"/><ellipse cx="16.727" cy="169.358" rx=".377" ry=".524" fill="#304454" transform="rotate(188.893 16.727 169.358)"/><ellipse cx="18.795" cy="172.562" rx="1.05" ry=".939" fill="#c75e72"/><ellipse cx="17.946" cy="171.623" rx="1.627" ry="1.101" fill="#d0e285"/><path fill="#bed575" d="M23.075 139.903s.32-1.633-.252-2.948c-.4-.917-2.616.108-5.34 1.553-3.067 1.629-5.574-.828-4.505 1.995 1.054 2.784 3.685 4.399 6.357 3.246 1.524-.657 3.36-1.87 3.74-3.846z"/><path fill="#d0e285" d="M33.964 138.272s-.62-1.172-.489-2.307c.092-.792 2.02-.522 4.432-.049 2.716.533 4.061-1.921 3.898.481-.16 2.366-1.794 4.206-4.099 3.945-1.315-.149-2.996-.651-3.742-2.07zM26.082 143.662s-.32-1.633.252-2.948c.4-.917 2.616.108 5.34 1.553 3.067 1.629 5.574-.828 4.505 1.995-1.054 2.784-3.685 4.399-6.357 3.246-1.524-.657-3.36-1.87-3.74-3.846z"/><ellipse cx="28.051" cy="135.332" rx="11.153" ry="7.385" fill="#bed575"/><path fill="#bed575" d="M18.955 133.736c0 3.903 4.255 7.067 9.503 7.067s9.504-3.164 9.504-7.067-4.385-8.893-9.634-8.893-9.373 4.99-9.373 8.893z"/><path fill="#a9bc65" d="M25.696 134.601l2.72 1.717 2.847-1.496.128-3.214-2.72-1.718-2.847 1.497zM24.416 134.66l.128-3.214-2.72-1.718-2.06 1.083c-.518 1.07-.808 2.175-.808 3.205 0 .171.01.339.027.506l2.587 1.634 2.846-1.496zM29.247 126.11l.102 2.868 2.305 1.712 2.203-1.158-.092-2.563a9.967 9.967 0 0 0-3.214-1.544l-1.304.685zM32.289 135.262l2.72 1.717 2.728-1.433c.058-.195.104-.392.14-.592l.058-1.456a6.76 6.76 0 0 0-.31-1.456l-2.361-1.491-2.847 1.497-.128 3.214zM21.937 129.442l2.405 1.536 3.076-1.662.672-3.198-1.322-.844c-1.67.318-3.18 1.124-4.416 2.193l-.415 1.975zM35.181 128.177l-.045 1.14 1.77 1.118a10.81 10.81 0 0 0-1.725-2.258zM33.97 139.773l.072-1.809-2.72-1.717-2.847 1.496-.128 3.214.2.126c2.02-.014 3.89-.497 5.423-1.31zM27.625 140.511l.128-3.214-2.72-1.718-2.847 1.497-.087 2.192c1.283.86 2.884 1.462 4.655 1.701l.87-.458zM37.38 136.457l-2.447 1.286-.059 1.487c1.11-.755 1.977-1.703 2.506-2.773zM21.222 138.595l.066-1.672-2.09-1.32c.347 1.123 1.053 2.144 2.024 2.992z"/><path fill="#a9bc65" d="M22.287 132.308s1.434-.844 2.864-.742c.997.071 2.165.253 3.157 1.213 1.35 1.306 1.67 3.461 1.688 4.564.043 2.913-1.903 4.758-4.921 4.688-2.976-.07-5.373-2.014-5.174-4.918.114-1.655.648-3.79 2.386-4.805z" opacity=".7"/><path fill="#d0e285" d="M17.664 138.373s.518-1.392 1.55-2.139c.72-.521 1.614-1.064 2.816-.978 1.634.117-.927 2.241.423 4.576 1.522 2.629 4.516 1.884 2.418 3.559-2.068 1.651-4.765 1.697-6.213-.39-.826-1.19-1.626-2.947-.994-4.628z"/><path fill="#d0e285" d="M17.233 129.145s1.434-.844 2.864-.742c.998.071 2.165.253 3.157 1.213 1.351 1.306 1.671 3.461 1.688 4.564.043 2.913-1.902 4.758-4.92 4.688-2.975-.07-5.373-2.014-5.173-4.918.112-1.655.647-3.79 2.384-4.805z"/><ellipse cx="21.133" cy="133.919" rx=".377" ry=".524" fill="#304454" transform="rotate(188.893 21.133 133.919)"/><ellipse cx="16.727" cy="132.994" rx=".377" ry=".524" fill="#304454" transform="rotate(188.893 16.727 132.994)"/><ellipse cx="18.795" cy="136.198" rx="1.05" ry=".939" fill="#c75e72"/><ellipse cx="17.946" cy="135.259" rx="1.627" ry="1.101" fill="#d0e285"/><path fill="#bed575" d="M23.075 103.539s.32-1.633-.252-2.948c-.4-.916-2.616.108-5.34 1.553-3.067 1.629-5.574-.828-4.505 1.995 1.054 2.784 3.685 4.399 6.357 3.246 1.524-.657 3.36-1.87 3.74-3.846z"/><path fill="#d0e285" d="M33.964 101.908s-.62-1.172-.489-2.307c.092-.792 2.02-.522 4.432-.05 2.716.534 4.061-1.92 3.898.482-.16 2.366-1.794 4.206-4.099 3.945-1.315-.149-2.996-.651-3.742-2.07zM26.082 107.299s-.32-1.633.252-2.948c.4-.917 2.616.108 5.34 1.553 3.067 1.629 5.574-.828 4.505 1.995-1.054 2.784-3.685 4.399-6.357 3.246-1.524-.657-3.36-1.87-3.74-3.846z"/><ellipse cx="28.051" cy="98.969" rx="11.153" ry="7.385" fill="#bed575"/><path fill="#bed575" d="M18.955 97.372c0 3.903 4.255 7.067 9.503 7.067s9.504-3.164 9.504-7.067-4.385-8.893-9.634-8.893-9.373 4.99-9.373 8.893z"/><path fill="#a9bc65" d="M25.696 98.237l2.72 1.717 2.847-1.496.128-3.214-2.72-1.718-2.847 1.497zM24.416 98.297l.128-3.214-2.72-1.718-2.06 1.083c-.518 1.07-.808 2.175-.808 3.205 0 .17.01.339.027.506l2.587 1.634 2.846-1.496zM29.247 89.746l.102 2.868 2.305 1.712 2.203-1.158-.092-2.563a9.967 9.967 0 0 0-3.214-1.544l-1.304.685zM32.289 98.898l2.72 1.717 2.728-1.433c.058-.195.104-.392.14-.592l.058-1.456a6.76 6.76 0 0 0-.31-1.456l-2.361-1.49-2.847 1.496-.128 3.214zM21.937 93.079l2.405 1.536 3.076-1.662.672-3.198-1.322-.844c-1.67.318-3.18 1.124-4.416 2.193l-.415 1.975zM35.181 91.813l-.045 1.14 1.77 1.118a10.81 10.81 0 0 0-1.725-2.258zM33.97 103.409l.072-1.809-2.72-1.717-2.847 1.496-.128 3.214.2.126c2.02-.014 3.89-.497 5.423-1.31zM27.625 104.147l.128-3.214-2.72-1.718-2.847 1.497-.087 2.192c1.283.86 2.884 1.462 4.655 1.701l.87-.458zM37.38 100.093l-2.447 1.286-.059 1.487c1.11-.755 1.977-1.703 2.506-2.773zM21.222 102.231l.066-1.672-2.09-1.32c.347 1.123 1.053 2.144 2.024 2.992z"/><path fill="#a9bc65" d="M22.287 95.944s1.434-.844 2.864-.742c.997.071 2.165.253 3.157 1.213 1.35 1.306 1.67 3.461 1.688 4.564.043 2.913-1.903 4.758-4.921 4.688-2.976-.07-5.373-2.014-5.174-4.918.114-1.655.648-3.79 2.386-4.805z" opacity=".7"/><path fill="#d0e285" d="M17.664 102.009s.518-1.392 1.55-2.139c.72-.52 1.614-1.064 2.816-.978 1.634.117-.927 2.241.423 4.576 1.522 2.629 4.516 1.884 2.418 3.559-2.068 1.651-4.765 1.697-6.213-.39-.826-1.19-1.626-2.947-.994-4.628z"/><path fill="#d0e285" d="M17.233 92.781s1.434-.844 2.864-.742c.998.072 2.165.254 3.157 1.213 1.351 1.306 1.671 3.462 1.688 4.565.043 2.913-1.902 4.758-4.92 4.688-2.975-.07-5.373-2.014-5.173-4.918.112-1.656.647-3.79 2.384-4.806z"/><ellipse cx="21.133" cy="97.555" rx=".377" ry=".524" fill="#304454" transform="rotate(188.893 21.133 97.555)"/><ellipse cx="16.727" cy="96.63" rx=".377" ry=".524" fill="#304454" transform="rotate(188.893 16.727 96.63)"/><ellipse cx="18.795" cy="99.835" rx="1.05" ry=".939" fill="#c75e72"/><ellipse cx="17.946" cy="98.896" rx="1.627" ry="1.101" fill="#d0e285"/><path fill="#bed575" d="M23.075 67.176s.32-1.633-.252-2.948c-.4-.917-2.616.108-5.34 1.553-3.067 1.629-5.574-.828-4.505 1.995 1.054 2.784 3.685 4.399 6.357 3.246 1.524-.657 3.36-1.87 3.74-3.846z"/><path fill="#d0e285" d="M33.964 65.544s-.62-1.172-.489-2.307c.092-.792 2.02-.522 4.432-.049 2.716.533 4.061-1.92 3.898.481-.16 2.366-1.794 4.206-4.099 3.945-1.315-.149-2.996-.65-3.742-2.07zM26.082 70.935s-.32-1.633.252-2.948c.4-.917 2.616.108 5.34 1.553 3.067 1.629 5.574-.828 4.505 1.995-1.054 2.784-3.685 4.399-6.357 3.246-1.524-.657-3.36-1.87-3.74-3.846z"/><ellipse cx="28.051" cy="62.605" rx="11.153" ry="7.385" fill="#bed575"/><path fill="#bed575" d="M18.955 61.009c0 3.903 4.255 7.067 9.503 7.067s9.504-3.164 9.504-7.067-4.385-8.893-9.634-8.893-9.373 4.99-9.373 8.893z"/><path fill="#a9bc65" d="M25.696 61.873l2.72 1.717 2.847-1.496.128-3.214-2.72-1.718-2.847 1.497zM24.416 61.933l.128-3.214-2.72-1.718-2.06 1.083c-.518 1.07-.808 2.175-.808 3.205 0 .171.01.34.027.506l2.587 1.634 2.846-1.496zM29.247 53.383l.102 2.867 2.305 1.712 2.203-1.158-.092-2.563a9.967 9.967 0 0 0-3.214-1.544l-1.304.685zM32.289 62.535l2.72 1.717 2.728-1.433c.058-.195.104-.392.14-.592l.058-1.456a6.76 6.76 0 0 0-.31-1.456l-2.361-1.491-2.847 1.497-.128 3.214zM21.937 56.715l2.405 1.536 3.076-1.662.672-3.198-1.322-.844c-1.67.318-3.18 1.124-4.416 2.193l-.415 1.975zM35.181 55.45l-.045 1.14 1.77 1.117a10.81 10.81 0 0 0-1.725-2.258zM33.97 67.046l.072-1.81-2.72-1.717-2.847 1.497-.128 3.213.2.127c2.02-.014 3.89-.497 5.423-1.31zM27.625 67.783l.128-3.214-2.72-1.718-2.847 1.497-.087 2.192c1.283.86 2.884 1.462 4.655 1.701l.87-.458zM37.38 63.73l-2.447 1.285-.059 1.487c1.11-.755 1.977-1.703 2.506-2.773zM21.222 65.868l.066-1.672-2.09-1.32c.347 1.123 1.053 2.143 2.024 2.992z"/><path fill="#a9bc65" d="M22.287 59.58s1.434-.843 2.864-.741c.997.07 2.165.253 3.157 1.213 1.35 1.306 1.67 3.46 1.688 4.564.043 2.913-1.903 4.758-4.921 4.688-2.976-.07-5.373-2.014-5.174-4.918.114-1.655.648-3.79 2.386-4.805z" opacity=".7"/><path fill="#d0e285" d="M17.664 65.646s.518-1.392 1.55-2.14c.72-.52 1.614-1.063 2.816-.977 1.634.117-.927 2.24.423 4.576 1.522 2.629 4.516 1.884 2.418 3.559-2.068 1.65-4.765 1.697-6.213-.39-.826-1.19-1.626-2.947-.994-4.628z"/><path fill="#d0e285" d="M17.233 56.418s1.434-.844 2.864-.742c.998.07 2.165.253 3.157 1.213 1.351 1.306 1.671 3.46 1.688 4.564.043 2.913-1.902 4.758-4.92 4.688-2.975-.07-5.373-2.014-5.173-4.918.112-1.655.647-3.79 2.384-4.805z"/><ellipse cx="21.133" cy="61.192" rx=".377" ry=".524" fill="#304454" transform="rotate(188.893 21.133 61.192)"/><ellipse cx="16.727" cy="60.267" rx=".377" ry=".524" fill="#304454" transform="rotate(188.893 16.727 60.267)"/><ellipse cx="18.795" cy="63.471" rx="1.05" ry=".939" fill="#c75e72"/><ellipse cx="17.946" cy="62.532" rx="1.627" ry="1.101" fill="#d0e285"/><path fill="#bed575" d="M23.075 30.812s.32-1.633-.252-2.948c-.4-.917-2.616.108-5.34 1.553-3.067 1.63-5.574-.828-4.505 1.995 1.054 2.784 3.685 4.4 6.357 3.246 1.524-.657 3.36-1.87 3.74-3.846z"/><path fill="#d0e285" d="M33.964 29.18s-.62-1.171-.489-2.306c.092-.792 2.02-.522 4.432-.05 2.716.534 4.061-1.92 3.898.482-.16 2.366-1.794 4.206-4.099 3.945-1.315-.15-2.996-.651-3.742-2.07zM26.082 34.571s-.32-1.633.252-2.948c.4-.917 2.616.108 5.34 1.553 3.067 1.63 5.574-.828 4.505 1.995-1.054 2.784-3.685 4.4-6.357 3.246-1.524-.657-3.36-1.87-3.74-3.846z"/><ellipse cx="28.051" cy="26.241" rx="11.153" ry="7.385" fill="#bed575"/><path fill="#bed575" d="M18.955 24.645c0 3.903 4.255 7.067 9.503 7.067s9.504-3.164 9.504-7.067-4.385-8.893-9.634-8.893-9.373 4.99-9.373 8.893z"/><path fill="#a9bc65" d="M25.696 25.51l2.72 1.717 2.847-1.496.128-3.214-2.72-1.718-2.847 1.497zM24.416 25.57l.128-3.215-2.72-1.718-2.06 1.084c-.518 1.07-.808 2.174-.808 3.204 0 .171.01.34.027.506l2.587 1.634 2.846-1.495zM29.247 17.019l.102 2.868 2.305 1.712 2.203-1.158-.092-2.563a9.967 9.967 0 0 0-3.214-1.544l-1.304.685zM32.289 26.171l2.72 1.717 2.728-1.433c.058-.195.104-.392.14-.592l.058-1.456a6.76 6.76 0 0 0-.31-1.456l-2.361-1.49-2.847 1.496-.128 3.214zM21.937 20.352l2.405 1.535 3.076-1.662.672-3.198-1.322-.844c-1.67.319-3.18 1.125-4.416 2.194l-.415 1.975zM35.181 19.086l-.045 1.14 1.77 1.118a10.81 10.81 0 0 0-1.725-2.258zM33.97 30.682l.072-1.81-2.72-1.716-2.847 1.496-.128 3.214.2.126c2.02-.014 3.89-.497 5.423-1.31zM27.625 31.42l.128-3.214-2.72-1.718-2.847 1.497-.087 2.192c1.283.86 2.884 1.462 4.655 1.7l.87-.457zM37.38 27.366l-2.447 1.286-.059 1.487c1.11-.755 1.977-1.703 2.506-2.773zM21.222 29.504l.066-1.672-2.09-1.32c.347 1.123 1.053 2.144 2.024 2.992z"/><path fill="#a9bc65" d="M22.287 23.217s1.434-.844 2.864-.742c.997.071 2.165.253 3.157 1.213 1.35 1.306 1.67 3.461 1.688 4.564.043 2.913-1.903 4.758-4.921 4.688-2.976-.07-5.373-2.014-5.174-4.918.114-1.655.648-3.79 2.386-4.805z" opacity=".7"/><path fill="#d0e285" d="M17.664 29.282s.518-1.392 1.55-2.139c.72-.52 1.614-1.064 2.816-.978 1.634.117-.927 2.241.423 4.576 1.522 2.63 4.516 1.884 2.418 3.56-2.068 1.65-4.765 1.696-6.213-.39-.826-1.19-1.626-2.948-.994-4.629z"/><path fill="#d0e285" d="M17.233 20.054s1.434-.844 2.864-.742c.998.071 2.165.253 3.157 1.213 1.351 1.306 1.671 3.461 1.688 4.564.043 2.913-1.902 4.758-4.92 4.688-2.975-.07-5.373-2.014-5.173-4.918.112-1.655.647-3.79 2.384-4.805z"/><ellipse cx="21.133" cy="24.828" rx=".377" ry=".524" fill="#304454" transform="rotate(188.893 21.133 24.828)"/><ellipse cx="16.727" cy="23.903" rx=".377" ry=".524" fill="#304454" transform="rotate(188.893 16.727 23.903)"/><ellipse cx="18.795" cy="27.107" rx="1.05" ry=".939" fill="#c75e72"/><ellipse cx="17.946" cy="26.168" rx="1.627" ry="1.101" fill="#d0e285"/><path fill="#bed575" d="M59.438 176.267s.32-1.633-.252-2.948c-.398-.917-2.615.108-5.339 1.553-3.068 1.629-5.575-.828-4.505 1.995 1.053 2.784 3.684 4.399 6.357 3.246 1.523-.657 3.36-1.87 3.74-3.846z"/><path fill="#d0e285" d="M70.328 174.635s-.621-1.172-.49-2.307c.093-.792 2.02-.522 4.433-.049 2.716.533 4.06-1.921 3.898.481-.161 2.366-1.794 4.206-4.1 3.945-1.314-.149-2.995-.651-3.741-2.07zM62.446 180.026s-.32-1.633.252-2.948c.399-.917 2.616.108 5.339 1.553 3.068 1.629 5.575-.828 4.506 1.995-1.054 2.784-3.685 4.399-6.357 3.246-1.524-.657-3.36-1.87-3.74-3.846z"/><ellipse cx="64.415" cy="171.696" rx="11.153" ry="7.385" fill="#bed575"/><path fill="#bed575" d="M55.319 170.1c0 3.903 4.255 7.067 9.503 7.067s9.504-3.164 9.504-7.067-4.385-8.893-9.634-8.893-9.373 4.99-9.373 8.893z"/><path fill="#a9bc65" d="M62.06 170.964l2.72 1.717 2.846-1.496.128-3.214-2.72-1.718-2.847 1.497zM60.78 171.024l.128-3.214-2.72-1.718-2.06 1.083c-.519 1.07-.809 2.175-.809 3.205 0 .171.011.339.027.506l2.587 1.634 2.847-1.496zM65.61 162.473l.103 2.868 2.305 1.712 2.203-1.158-.093-2.563a9.967 9.967 0 0 0-3.213-1.544l-1.305.685zM68.652 171.626l2.72 1.717 2.728-1.433c.058-.195.104-.392.14-.592l.058-1.456a6.76 6.76 0 0 0-.31-1.456l-2.36-1.491-2.848 1.497-.128 3.214zM58.3 165.806l2.406 1.536 3.076-1.662.672-3.198-1.322-.844c-1.67.318-3.18 1.124-4.416 2.193l-.415 1.975zM71.545 164.54l-.045 1.14 1.769 1.118a10.81 10.81 0 0 0-1.724-2.258zM70.334 176.136l.072-1.809-2.72-1.717-2.847 1.496-.128 3.214.2.126c2.02-.014 3.89-.497 5.423-1.31zM63.989 176.874l.128-3.214-2.72-1.718-2.847 1.497-.087 2.192c1.283.86 2.884 1.462 4.655 1.701l.87-.458zM73.744 172.82l-2.447 1.286-.059 1.487c1.11-.755 1.977-1.703 2.506-2.773zM57.585 174.958l.066-1.672-2.089-1.32c.346 1.123 1.052 2.144 2.023 2.992z"/><path fill="#a9bc65" d="M58.65 168.672s1.434-.844 2.864-.742c.998.071 2.165.253 3.157 1.213 1.351 1.306 1.671 3.461 1.688 4.564.043 2.913-1.903 4.758-4.92 4.688-2.976-.07-5.374-2.014-5.174-4.918.113-1.655.648-3.79 2.385-4.805z" opacity=".7"/><path fill="#d0e285" d="M54.028 174.737s.518-1.392 1.55-2.139c.719-.521 1.614-1.064 2.816-.978 1.634.117-.927 2.241.423 4.576 1.522 2.629 4.516 1.884 2.418 3.559-2.068 1.651-4.765 1.697-6.213-.39-.826-1.19-1.626-2.947-.994-4.628z"/><path fill="#d0e285" d="M53.597 165.509s1.434-.844 2.864-.742c.998.071 2.165.253 3.157 1.213 1.351 1.306 1.671 3.461 1.688 4.564.043 2.913-1.903 4.758-4.92 4.688-2.976-.07-5.374-2.014-5.174-4.918.113-1.655.648-3.79 2.385-4.805z"/><ellipse cx="57.497" cy="170.282" rx=".377" ry=".524" fill="#304454" transform="rotate(188.893 57.497 170.282)"/><ellipse cx="53.09" cy="169.358" rx=".377" ry=".524" fill="#304454" transform="rotate(188.893 53.09 169.358)"/><ellipse cx="55.159" cy="172.562" rx="1.05" ry=".939" fill="#c75e72"/><ellipse cx="54.309" cy="171.623" rx="1.627" ry="1.101" fill="#d0e285"/><path fill="#bed575" d="M59.438 139.903s.32-1.633-.252-2.948c-.398-.917-2.615.108-5.339 1.553-3.068 1.629-5.575-.828-4.505 1.995 1.053 2.784 3.684 4.399 6.357 3.246 1.523-.657 3.36-1.87 3.74-3.846z"/><path fill="#d0e285" d="M70.328 138.272s-.621-1.172-.49-2.307c.093-.792 2.02-.522 4.433-.049 2.716.533 4.06-1.921 3.898.481-.161 2.366-1.794 4.206-4.1 3.945-1.314-.149-2.995-.651-3.741-2.07zM62.446 143.662s-.32-1.633.252-2.948c.399-.917 2.616.108 5.339 1.553 3.068 1.629 5.575-.828 4.506 1.995-1.054 2.784-3.685 4.399-6.357 3.246-1.524-.657-3.36-1.87-3.74-3.846z"/><ellipse cx="64.415" cy="135.332" rx="11.153" ry="7.385" fill="#bed575"/><path fill="#bed575" d="M55.319 133.736c0 3.903 4.255 7.067 9.503 7.067s9.504-3.164 9.504-7.067-4.385-8.893-9.634-8.893-9.373 4.99-9.373 8.893z"/><path fill="#a9bc65" d="M62.06 134.601l2.72 1.717 2.846-1.496.128-3.214-2.72-1.718-2.847 1.497zM60.78 134.66l.128-3.214-2.72-1.718-2.06 1.083c-.519 1.07-.809 2.175-.809 3.205 0 .171.011.339.027.506l2.587 1.634 2.847-1.496zM65.61 126.11l.103 2.868 2.305 1.712 2.203-1.158-.093-2.563a9.967 9.967 0 0 0-3.213-1.544l-1.305.685zM68.652 135.262l2.72 1.717 2.728-1.433c.058-.195.104-.392.14-.592l.058-1.456a6.76 6.76 0 0 0-.31-1.456l-2.36-1.491-2.848 1.497-.128 3.214zM58.3 129.442l2.406 1.536 3.076-1.662.672-3.198-1.322-.844c-1.67.318-3.18 1.124-4.416 2.193l-.415 1.975zM71.545 128.177l-.045 1.14 1.769 1.118a10.81 10.81 0 0 0-1.724-2.258zM70.334 139.773l.072-1.809-2.72-1.717-2.847 1.496-.128 3.214.2.126c2.02-.014 3.89-.497 5.423-1.31zM63.989 140.511l.128-3.214-2.72-1.718-2.847 1.497-.087 2.192c1.283.86 2.884 1.462 4.655 1.701l.87-.458zM73.744 136.457l-2.447 1.286-.059 1.487c1.11-.755 1.977-1.703 2.506-2.773zM57.585 138.595l.066-1.672-2.089-1.32c.346 1.123 1.052 2.144 2.023 2.992z"/><path fill="#a9bc65" d="M58.65 132.308s1.434-.844 2.864-.742c.998.071 2.165.253 3.157 1.213 1.351 1.306 1.671 3.461 1.688 4.564.043 2.913-1.903 4.758-4.92 4.688-2.976-.07-5.374-2.014-5.174-4.918.113-1.655.648-3.79 2.385-4.805z" opacity=".7"/><path fill="#d0e285" d="M54.028 138.373s.518-1.392 1.55-2.139c.719-.521 1.614-1.064 2.816-.978 1.634.117-.927 2.241.423 4.576 1.522 2.629 4.516 1.884 2.418 3.559-2.068 1.651-4.765 1.697-6.213-.39-.826-1.19-1.626-2.947-.994-4.628z"/><path fill="#d0e285" d="M53.597 129.145s1.434-.844 2.864-.742c.998.071 2.165.253 3.157 1.213 1.351 1.306 1.671 3.461 1.688 4.564.043 2.913-1.903 4.758-4.92 4.688-2.976-.07-5.374-2.014-5.174-4.918.113-1.655.648-3.79 2.385-4.805z"/><ellipse cx="57.497" cy="133.919" rx=".377" ry=".524" fill="#304454" transform="rotate(188.893 57.497 133.919)"/><ellipse cx="53.09" cy="132.994" rx=".377" ry=".524" fill="#304454" transform="rotate(188.893 53.09 132.994)"/><ellipse cx="55.159" cy="136.198" rx="1.05" ry=".939" fill="#c75e72"/><ellipse cx="54.309" cy="135.259" rx="1.627" ry="1.101" fill="#d0e285"/><path fill="#bed575" d="M59.438 103.539s.32-1.633-.252-2.948c-.398-.916-2.615.108-5.339 1.553-3.068 1.629-5.575-.828-4.505 1.995 1.053 2.784 3.684 4.399 6.357 3.246 1.523-.657 3.36-1.87 3.74-3.846z"/><path fill="#d0e285" d="M70.328 101.908s-.621-1.172-.49-2.307c.093-.792 2.02-.522 4.433-.05 2.716.534 4.06-1.92 3.898.482-.161 2.366-1.794 4.206-4.1 3.945-1.314-.149-2.995-.651-3.741-2.07zM62.446 107.299s-.32-1.633.252-2.948c.399-.917 2.616.108 5.339 1.553 3.068 1.629 5.575-.828 4.506 1.995-1.054 2.784-3.685 4.399-6.357 3.246-1.524-.657-3.36-1.87-3.74-3.846z"/><ellipse cx="64.415" cy="98.969" rx="11.153" ry="7.385" fill="#bed575"/><path fill="#bed575" d="M55.319 97.372c0 3.903 4.255 7.067 9.503 7.067s9.504-3.164 9.504-7.067-4.385-8.893-9.634-8.893-9.373 4.99-9.373 8.893z"/><path fill="#a9bc65" d="M62.06 98.237l2.72 1.717 2.846-1.496.128-3.214-2.72-1.718-2.847 1.497zM60.78 98.297l.128-3.214-2.72-1.718-2.06 1.083c-.519 1.07-.809 2.175-.809 3.205 0 .17.011.339.027.506l2.587 1.634 2.847-1.496zM65.61 89.746l.103 2.868 2.305 1.712 2.203-1.158-.093-2.563a9.967 9.967 0 0 0-3.213-1.544l-1.305.685zM68.652 98.898l2.72 1.717 2.728-1.433c.058-.195.104-.392.14-.592l.058-1.456a6.76 6.76 0 0 0-.31-1.456l-2.36-1.49-2.848 1.496-.128 3.214zM58.3 93.079l2.406 1.536 3.076-1.662.672-3.198-1.322-.844c-1.67.318-3.18 1.124-4.416 2.193l-.415 1.975zM71.545 91.813l-.045 1.14 1.769 1.118a10.81 10.81 0 0 0-1.724-2.258zM70.334 103.409l.072-1.809-2.72-1.717-2.847 1.496-.128 3.214.2.126c2.02-.014 3.89-.497 5.423-1.31zM63.989 104.147l.128-3.214-2.72-1.718-2.847 1.497-.087 2.192c1.283.86 2.884 1.462 4.655 1.701l.87-.458zM73.744 100.093l-2.447 1.286-.059 1.487c1.11-.755 1.977-1.703 2.506-2.773zM57.585 102.231l.066-1.672-2.089-1.32c.346 1.123 1.052 2.144 2.023 2.992z"/><path fill="#a9bc65" d="M58.65 95.944s1.434-.844 2.864-.742c.998.071 2.165.253 3.157 1.213 1.351 1.306 1.671 3.461 1.688 4.564.043 2.913-1.903 4.758-4.92 4.688-2.976-.07-5.374-2.014-5.174-4.918.113-1.655.648-3.79 2.385-4.805z" opacity=".7"/><path fill="#d0e285" d="M54.028 102.009s.518-1.392 1.55-2.139c.719-.52 1.614-1.064 2.816-.978 1.634.117-.927 2.241.423 4.576 1.522 2.629 4.516 1.884 2.418 3.559-2.068 1.651-4.765 1.697-6.213-.39-.826-1.19-1.626-2.947-.994-4.628z"/><path fill="#d0e285" d="M53.597 92.781s1.434-.844 2.864-.742c.998.072 2.165.254 3.157 1.213 1.351 1.306 1.671 3.462 1.688 4.565.043 2.913-1.903 4.758-4.92 4.688-2.976-.07-5.374-2.014-5.174-4.918.113-1.656.648-3.79 2.385-4.806z"/><ellipse cx="57.497" cy="97.555" rx=".377" ry=".524" fill="#304454" transform="rotate(188.893 57.497 97.555)"/><ellipse cx="53.09" cy="96.63" rx=".377" ry=".524" fill="#304454" transform="rotate(188.893 53.09 96.63)"/><ellipse cx="55.159" cy="99.835" rx="1.05" ry=".939" fill="#c75e72"/><ellipse cx="54.309" cy="98.896" rx="1.627" ry="1.101" fill="#d0e285"/><path fill="#bed575" d="M59.438 67.176s.32-1.633-.252-2.948c-.398-.917-2.615.108-5.339 1.553-3.068 1.629-5.575-.828-4.505 1.995 1.053 2.784 3.684 4.399 6.357 3.246 1.523-.657 3.36-1.87 3.74-3.846z"/><path fill="#d0e285" d="M70.328 65.544s-.621-1.172-.49-2.307c.093-.792 2.02-.522 4.433-.049 2.716.533 4.06-1.92 3.898.481-.161 2.366-1.794 4.206-4.1 3.945-1.314-.149-2.995-.65-3.741-2.07zM62.446 70.935s-.32-1.633.252-2.948c.399-.917 2.616.108 5.339 1.553 3.068 1.629 5.575-.828 4.506 1.995-1.054 2.784-3.685 4.399-6.357 3.246-1.524-.657-3.36-1.87-3.74-3.846z"/><ellipse cx="64.415" cy="62.605" rx="11.153" ry="7.385" fill="#bed575"/><path fill="#bed575" d="M55.319 61.009c0 3.903 4.255 7.067 9.503 7.067s9.504-3.164 9.504-7.067-4.385-8.893-9.634-8.893-9.373 4.99-9.373 8.893z"/><path fill="#a9bc65" d="M62.06 61.873l2.72 1.717 2.846-1.496.128-3.214-2.72-1.718-2.847 1.497zM60.78 61.933l.128-3.214-2.72-1.718-2.06 1.083c-.519 1.07-.809 2.175-.809 3.205 0 .171.011.34.027.506l2.587 1.634 2.847-1.496zM65.61 53.383l.103 2.867 2.305 1.712 2.203-1.158-.093-2.563a9.967 9.967 0 0 0-3.213-1.544l-1.305.685zM68.652 62.535l2.72 1.717 2.728-1.433c.058-.195.104-.392.14-.592l.058-1.456a6.76 6.76 0 0 0-.31-1.456l-2.36-1.491-2.848 1.497-.128 3.214zM58.3 56.715l2.406 1.536 3.076-1.662.672-3.198-1.322-.844c-1.67.318-3.18 1.124-4.416 2.193l-.415 1.975zM71.545 55.45l-.045 1.14 1.769 1.117a10.81 10.81 0 0 0-1.724-2.258zM70.334 67.046l.072-1.81-2.72-1.717-2.847 1.497-.128 3.213.2.127c2.02-.014 3.89-.497 5.423-1.31zM63.989 67.783l.128-3.214-2.72-1.718-2.847 1.497-.087 2.192c1.283.86 2.884 1.462 4.655 1.701l.87-.458zM73.744 63.73l-2.447 1.285-.059 1.487c1.11-.755 1.977-1.703 2.506-2.773zM57.585 65.868l.066-1.672-2.089-1.32c.346 1.123 1.052 2.143 2.023 2.992z"/><path fill="#a9bc65" d="M58.65 59.58s1.434-.843 2.864-.741c.998.07 2.165.253 3.157 1.213 1.351 1.306 1.671 3.46 1.688 4.564.043 2.913-1.903 4.758-4.92 4.688-2.976-.07-5.374-2.014-5.174-4.918.113-1.655.648-3.79 2.385-4.805z" opacity=".7"/><path fill="#d0e285" d="M54.028 65.646s.518-1.392 1.55-2.14c.719-.52 1.614-1.063 2.816-.977 1.634.117-.927 2.24.423 4.576 1.522 2.629 4.516 1.884 2.418 3.559-2.068 1.65-4.765 1.697-6.213-.39-.826-1.19-1.626-2.947-.994-4.628z"/><path fill="#d0e285" d="M53.597 56.418s1.434-.844 2.864-.742c.998.07 2.165.253 3.157 1.213 1.351 1.306 1.671 3.46 1.688 4.564.043 2.913-1.903 4.758-4.92 4.688-2.976-.07-5.374-2.014-5.174-4.918.113-1.655.648-3.79 2.385-4.805z"/><ellipse cx="57.497" cy="61.192" rx=".377" ry=".524" fill="#304454" transform="rotate(188.893 57.497 61.192)"/><ellipse cx="53.09" cy="60.267" rx=".377" ry=".524" fill="#304454" transform="rotate(188.893 53.09 60.267)"/><ellipse cx="55.159" cy="63.471" rx="1.05" ry=".939" fill="#c75e72"/><ellipse cx="54.309" cy="62.532" rx="1.627" ry="1.101" fill="#d0e285"/><path fill="#bed575" d="M59.438 30.812s.32-1.633-.252-2.948c-.398-.917-2.615.108-5.339 1.553-3.068 1.63-5.575-.828-4.505 1.995 1.053 2.784 3.684 4.4 6.357 3.246 1.523-.657 3.36-1.87 3.74-3.846z"/><path fill="#d0e285" d="M70.328 29.18s-.621-1.171-.49-2.306c.093-.792 2.02-.522 4.433-.05 2.716.534 4.06-1.92 3.898.482-.161 2.366-1.794 4.206-4.1 3.945-1.314-.15-2.995-.651-3.741-2.07zM62.446 34.571s-.32-1.633.252-2.948c.399-.917 2.616.108 5.339 1.553 3.068 1.63 5.575-.828 4.506 1.995-1.054 2.784-3.685 4.4-6.357 3.246-1.524-.657-3.36-1.87-3.74-3.846z"/><ellipse cx="64.415" cy="26.241" rx="11.153" ry="7.385" fill="#bed575"/><path fill="#bed575" d="M55.319 24.645c0 3.903 4.255 7.067 9.503 7.067s9.504-3.164 9.504-7.067-4.385-8.893-9.634-8.893-9.373 4.99-9.373 8.893z"/><path fill="#a9bc65" d="M62.06 25.51l2.72 1.717 2.846-1.496.128-3.214-2.72-1.718-2.847 1.497zM60.78 25.57l.128-3.215-2.72-1.718-2.06 1.084c-.519 1.07-.809 2.174-.809 3.204 0 .171.011.34.027.506l2.587 1.634 2.847-1.495zM65.61 17.019l.103 2.868 2.305 1.712 2.203-1.158-.093-2.563a9.967 9.967 0 0 0-3.213-1.544l-1.305.685zM68.652 26.171l2.72 1.717 2.728-1.433c.058-.195.104-.392.14-.592l.058-1.456a6.76 6.76 0 0 0-.31-1.456l-2.36-1.49-2.848 1.496-.128 3.214zM58.3 20.352l2.406 1.535 3.076-1.662.672-3.198-1.322-.844c-1.67.319-3.18 1.125-4.416 2.194l-.415 1.975zM71.545 19.086l-.045 1.14 1.769 1.118a10.81 10.81 0 0 0-1.724-2.258zM70.334 30.682l.072-1.81-2.72-1.716-2.847 1.496-.128 3.214.2.126c2.02-.014 3.89-.497 5.423-1.31zM63.989 31.42l.128-3.214-2.72-1.718-2.847 1.497-.087 2.192c1.283.86 2.884 1.462 4.655 1.7l.87-.457zM73.744 27.366l-2.447 1.286-.059 1.487c1.11-.755 1.977-1.703 2.506-2.773zM57.585 29.504l.066-1.672-2.089-1.32c.346 1.123 1.052 2.144 2.023 2.992z"/><path fill="#a9bc65" d="M58.65 23.217s1.434-.844 2.864-.742c.998.071 2.165.253 3.157 1.213 1.351 1.306 1.671 3.461 1.688 4.564.043 2.913-1.903 4.758-4.92 4.688-2.976-.07-5.374-2.014-5.174-4.918.113-1.655.648-3.79 2.385-4.805z" opacity=".7"/><path fill="#d0e285" d="M54.028 29.282s.518-1.392 1.55-2.139c.719-.52 1.614-1.064 2.816-.978 1.634.117-.927 2.241.423 4.576 1.522 2.63 4.516 1.884 2.418 3.56-2.068 1.65-4.765 1.696-6.213-.39-.826-1.19-1.626-2.948-.994-4.629z"/><path fill="#d0e285" d="M53.597 20.054s1.434-.844 2.864-.742c.998.071 2.165.253 3.157 1.213 1.351 1.306 1.671 3.461 1.688 4.564.043 2.913-1.903 4.758-4.92 4.688-2.976-.07-5.374-2.014-5.174-4.918.113-1.655.648-3.79 2.385-4.805z"/><ellipse cx="57.497" cy="24.828" rx=".377" ry=".524" fill="#304454" transform="rotate(188.893 57.497 24.828)"/><ellipse cx="53.09" cy="23.903" rx=".377" ry=".524" fill="#304454" transform="rotate(188.893 53.09 23.903)"/><ellipse cx="55.159" cy="27.107" rx="1.05" ry=".939" fill="#c75e72"/><ellipse cx="54.309" cy="26.168" rx="1.627" ry="1.101" fill="#d0e285"/><path fill="#bed575" d="M95.802 176.267s.32-1.633-.252-2.948c-.399-.917-2.616.108-5.339 1.553-3.068 1.629-5.575-.828-4.506 1.995 1.054 2.784 3.685 4.399 6.357 3.246 1.524-.657 3.36-1.87 3.74-3.846z"/><path fill="#d0e285" d="M106.691 174.635s-.621-1.172-.489-2.307c.092-.792 2.02-.522 4.432-.049 2.716.533 4.061-1.921 3.898.481-.161 2.366-1.794 4.206-4.099 3.945-1.315-.149-2.996-.651-3.742-2.07zM98.81 180.026s-.32-1.633.252-2.948c.399-.917 2.616.108 5.339 1.553 3.068 1.629 5.575-.828 4.506 1.995-1.054 2.784-3.685 4.399-6.357 3.246-1.524-.657-3.36-1.87-3.74-3.846z"/><ellipse cx="100.778" cy="171.696" rx="11.153" ry="7.385" fill="#bed575"/><path fill="#bed575" d="M91.683 170.1c0 3.903 4.255 7.067 9.503 7.067s9.504-3.164 9.504-7.067-4.385-8.893-9.634-8.893-9.373 4.99-9.373 8.893z"/><path fill="#a9bc65" d="M98.423 170.964l2.72 1.717 2.847-1.496.128-3.214-2.72-1.718-2.847 1.497zM97.144 171.024l.128-3.214-2.72-1.718-2.06 1.083c-.52 1.07-.81 2.175-.81 3.205 0 .171.012.339.028.506l2.587 1.634 2.847-1.496zM101.974 162.473l.102 2.868 2.305 1.712 2.203-1.158-.092-2.563a9.967 9.967 0 0 0-3.214-1.544l-1.304.685zM105.016 171.626l2.72 1.717 2.728-1.433c.058-.195.104-.392.14-.592l.058-1.456a6.76 6.76 0 0 0-.31-1.456l-2.361-1.491-2.847 1.497-.128 3.214zM94.665 165.806l2.404 1.536 3.077-1.662.672-3.198-1.322-.844c-1.67.318-3.18 1.124-4.416 2.193l-.415 1.975zM107.908 164.54l-.045 1.14 1.769 1.118a10.81 10.81 0 0 0-1.724-2.258zM106.697 176.136l.072-1.809-2.72-1.717-2.847 1.496-.128 3.214.2.126c2.021-.014 3.891-.497 5.423-1.31zM100.352 176.874l.128-3.214-2.72-1.718-2.847 1.497-.087 2.192c1.283.86 2.884 1.462 4.655 1.701l.871-.458zM110.108 172.82l-2.447 1.286-.059 1.487c1.109-.755 1.977-1.703 2.506-2.773zM93.949 174.958l.066-1.672-2.09-1.32c.347 1.123 1.053 2.144 2.024 2.992z"/><path fill="#a9bc65" d="M95.014 168.672s1.434-.844 2.864-.742c.998.071 2.165.253 3.157 1.213 1.351 1.306 1.671 3.461 1.688 4.564.043 2.913-1.903 4.758-4.921 4.688-2.975-.07-5.373-2.014-5.173-4.918.113-1.655.648-3.79 2.385-4.805z" opacity=".7"/><path fill="#d0e285" d="M90.392 174.737s.518-1.392 1.55-2.139c.719-.521 1.614-1.064 2.816-.978 1.634.117-.927 2.241.423 4.576 1.522 2.629 4.516 1.884 2.418 3.559-2.068 1.651-4.765 1.697-6.213-.39-.826-1.19-1.626-2.947-.994-4.628z"/><path fill="#d0e285" d="M89.96 165.509s1.435-.844 2.865-.742c.998.071 2.165.253 3.157 1.213 1.35 1.306 1.67 3.461 1.688 4.564.043 2.913-1.903 4.758-4.921 4.688-2.975-.07-5.373-2.014-5.173-4.918.113-1.655.648-3.79 2.385-4.805z"/><ellipse cx="93.861" cy="170.282" rx=".377" ry=".524" fill="#304454" transform="rotate(188.893 93.86 170.282)"/><ellipse cx="89.454" cy="169.358" rx=".377" ry=".524" fill="#304454" transform="rotate(188.893 89.454 169.358)"/><ellipse cx="91.522" cy="172.562" rx="1.05" ry=".939" fill="#c75e72"/><ellipse cx="90.673" cy="171.623" rx="1.627" ry="1.101" fill="#d0e285"/><path fill="#bed575" d="M95.802 139.903s.32-1.633-.252-2.948c-.399-.917-2.616.108-5.339 1.553-3.068 1.629-5.575-.828-4.506 1.995 1.054 2.784 3.685 4.399 6.357 3.246 1.524-.657 3.36-1.87 3.74-3.846z"/><path fill="#d0e285" d="M106.691 138.272s-.621-1.172-.489-2.307c.092-.792 2.02-.522 4.432-.049 2.716.533 4.061-1.921 3.898.481-.161 2.366-1.794 4.206-4.099 3.945-1.315-.149-2.996-.651-3.742-2.07zM98.81 143.662s-.32-1.633.252-2.948c.399-.917 2.616.108 5.339 1.553 3.068 1.629 5.575-.828 4.506 1.995-1.054 2.784-3.685 4.399-6.357 3.246-1.524-.657-3.36-1.87-3.74-3.846z"/><ellipse cx="100.778" cy="135.332" rx="11.153" ry="7.385" fill="#bed575"/><path fill="#bed575" d="M91.683 133.736c0 3.903 4.255 7.067 9.503 7.067s9.504-3.164 9.504-7.067-4.385-8.893-9.634-8.893-9.373 4.99-9.373 8.893z"/><path fill="#a9bc65" d="M98.423 134.601l2.72 1.717 2.847-1.496.128-3.214-2.72-1.718-2.847 1.497zM97.144 134.66l.128-3.214-2.72-1.718-2.06 1.083c-.52 1.07-.81 2.175-.81 3.205 0 .171.012.339.028.506l2.587 1.634 2.847-1.496zM101.974 126.11l.102 2.868 2.305 1.712 2.203-1.158-.092-2.563a9.967 9.967 0 0 0-3.214-1.544l-1.304.685zM105.016 135.262l2.72 1.717 2.728-1.433c.058-.195.104-.392.14-.592l.058-1.456a6.76 6.76 0 0 0-.31-1.456l-2.361-1.491-2.847 1.497-.128 3.214zM94.665 129.442l2.404 1.536 3.077-1.662.672-3.198-1.322-.844c-1.67.318-3.18 1.124-4.416 2.193l-.415 1.975zM107.908 128.177l-.045 1.14 1.769 1.118a10.81 10.81 0 0 0-1.724-2.258zM106.697 139.773l.072-1.809-2.72-1.717-2.847 1.496-.128 3.214.2.126c2.021-.014 3.891-.497 5.423-1.31zM100.352 140.511l.128-3.214-2.72-1.718-2.847 1.497-.087 2.192c1.283.86 2.884 1.462 4.655 1.701l.871-.458zM110.108 136.457l-2.447 1.286-.059 1.487c1.109-.755 1.977-1.703 2.506-2.773zM93.949 138.595l.066-1.672-2.09-1.32c.347 1.123 1.053 2.144 2.024 2.992z"/><path fill="#a9bc65" d="M95.014 132.308s1.434-.844 2.864-.742c.998.071 2.165.253 3.157 1.213 1.351 1.306 1.671 3.461 1.688 4.564.043 2.913-1.903 4.758-4.921 4.688-2.975-.07-5.373-2.014-5.173-4.918.113-1.655.648-3.79 2.385-4.805z" opacity=".7"/><path fill="#d0e285" d="M90.392 138.373s.518-1.392 1.55-2.139c.719-.521 1.614-1.064 2.816-.978 1.634.117-.927 2.241.423 4.576 1.522 2.629 4.516 1.884 2.418 3.559-2.068 1.651-4.765 1.697-6.213-.39-.826-1.19-1.626-2.947-.994-4.628z"/><path fill="#d0e285" d="M89.96 129.145s1.435-.844 2.865-.742c.998.071 2.165.253 3.157 1.213 1.35 1.306 1.67 3.461 1.688 4.564.043 2.913-1.903 4.758-4.921 4.688-2.975-.07-5.373-2.014-5.173-4.918.113-1.655.648-3.79 2.385-4.805z"/><ellipse cx="93.861" cy="133.919" rx=".377" ry=".524" fill="#304454" transform="rotate(188.893 93.86 133.919)"/><ellipse cx="89.454" cy="132.994" rx=".377" ry=".524" fill="#304454" transform="rotate(188.893 89.454 132.994)"/><ellipse cx="91.522" cy="136.198" rx="1.05" ry=".939" fill="#c75e72"/><ellipse cx="90.673" cy="135.259" rx="1.627" ry="1.101" fill="#d0e285"/><path fill="#bed575" d="M95.802 103.539s.32-1.633-.252-2.948c-.399-.916-2.616.108-5.339 1.553-3.068 1.629-5.575-.828-4.506 1.995 1.054 2.784 3.685 4.399 6.357 3.246 1.524-.657 3.36-1.87 3.74-3.846z"/><path fill="#d0e285" d="M106.691 101.908s-.621-1.172-.489-2.307c.092-.792 2.02-.522 4.432-.05 2.716.534 4.061-1.92 3.898.482-.161 2.366-1.794 4.206-4.099 3.945-1.315-.149-2.996-.651-3.742-2.07zM98.81 107.299s-.32-1.633.252-2.948c.399-.917 2.616.108 5.339 1.553 3.068 1.629 5.575-.828 4.506 1.995-1.054 2.784-3.685 4.399-6.357 3.246-1.524-.657-3.36-1.87-3.74-3.846z"/><ellipse cx="100.778" cy="98.969" rx="11.153" ry="7.385" fill="#bed575"/><path fill="#bed575" d="M91.683 97.372c0 3.903 4.255 7.067 9.503 7.067s9.504-3.164 9.504-7.067-4.385-8.893-9.634-8.893-9.373 4.99-9.373 8.893z"/><path fill="#a9bc65" d="M98.423 98.237l2.72 1.717 2.847-1.496.128-3.214-2.72-1.718-2.847 1.497zM97.144 98.297l.128-3.214-2.72-1.718-2.06 1.083c-.52 1.07-.81 2.175-.81 3.205 0 .17.012.339.028.506l2.587 1.634 2.847-1.496zM101.974 89.746l.102 2.868 2.305 1.712 2.203-1.158-.092-2.563a9.967 9.967 0 0 0-3.214-1.544l-1.304.685zM105.016 98.898l2.72 1.717 2.728-1.433c.058-.195.104-.392.14-.592l.058-1.456a6.76 6.76 0 0 0-.31-1.456l-2.361-1.49-2.847 1.496-.128 3.214zM94.665 93.079l2.404 1.536 3.077-1.662.672-3.198-1.322-.844c-1.67.318-3.18 1.124-4.416 2.193l-.415 1.975zM107.908 91.813l-.045 1.14 1.769 1.118a10.81 10.81 0 0 0-1.724-2.258zM106.697 103.409l.072-1.809-2.72-1.717-2.847 1.496-.128 3.214.2.126c2.021-.014 3.891-.497 5.423-1.31zM100.352 104.147l.128-3.214-2.72-1.718-2.847 1.497-.087 2.192c1.283.86 2.884 1.462 4.655 1.701l.871-.458zM110.108 100.093l-2.447 1.286-.059 1.487c1.109-.755 1.977-1.703 2.506-2.773zM93.949 102.231l.066-1.672-2.09-1.32c.347 1.123 1.053 2.144 2.024 2.992z"/><path fill="#a9bc65" d="M95.014 95.944s1.434-.844 2.864-.742c.998.071 2.165.253 3.157 1.213 1.351 1.306 1.671 3.461 1.688 4.564.043 2.913-1.903 4.758-4.921 4.688-2.975-.07-5.373-2.014-5.173-4.918.113-1.655.648-3.79 2.385-4.805z" opacity=".7"/><path fill="#d0e285" d="M90.392 102.009s.518-1.392 1.55-2.139c.719-.52 1.614-1.064 2.816-.978 1.634.117-.927 2.241.423 4.576 1.522 2.629 4.516 1.884 2.418 3.559-2.068 1.651-4.765 1.697-6.213-.39-.826-1.19-1.626-2.947-.994-4.628z"/><path fill="#d0e285" d="M89.96 92.781s1.435-.844 2.865-.742c.998.072 2.165.254 3.157 1.213 1.35 1.306 1.67 3.462 1.688 4.565.043 2.913-1.903 4.758-4.921 4.688-2.975-.07-5.373-2.014-5.173-4.918.113-1.656.648-3.79 2.385-4.806z"/><ellipse cx="93.861" cy="97.555" rx=".377" ry=".524" fill="#304454" transform="rotate(188.893 93.86 97.555)"/><ellipse cx="89.454" cy="96.63" rx=".377" ry=".524" fill="#304454" transform="rotate(188.893 89.454 96.63)"/><ellipse cx="91.522" cy="99.835" rx="1.05" ry=".939" fill="#c75e72"/><ellipse cx="90.673" cy="98.896" rx="1.627" ry="1.101" fill="#d0e285"/><path fill="#bed575" d="M95.802 67.176s.32-1.633-.252-2.948c-.399-.917-2.616.108-5.339 1.553-3.068 1.629-5.575-.828-4.506 1.995 1.054 2.784 3.685 4.399 6.357 3.246 1.524-.657 3.36-1.87 3.74-3.846z"/><path fill="#d0e285" d="M106.691 65.544s-.621-1.172-.489-2.307c.092-.792 2.02-.522 4.432-.049 2.716.533 4.061-1.92 3.898.481-.161 2.366-1.794 4.206-4.099 3.945-1.315-.149-2.996-.65-3.742-2.07zM98.81 70.935s-.32-1.633.252-2.948c.399-.917 2.616.108 5.339 1.553 3.068 1.629 5.575-.828 4.506 1.995-1.054 2.784-3.685 4.399-6.357 3.246-1.524-.657-3.36-1.87-3.74-3.846z"/><ellipse cx="100.778" cy="62.605" rx="11.153" ry="7.385" fill="#bed575"/><path fill="#bed575" d="M91.683 61.009c0 3.903 4.255 7.067 9.503 7.067s9.504-3.164 9.504-7.067-4.385-8.893-9.634-8.893-9.373 4.99-9.373 8.893z"/><path fill="#a9bc65" d="M98.423 61.873l2.72 1.717 2.847-1.496.128-3.214-2.72-1.718-2.847 1.497zM97.144 61.933l.128-3.214-2.72-1.718-2.06 1.083c-.52 1.07-.81 2.175-.81 3.205 0 .171.012.34.028.506l2.587 1.634 2.847-1.496zM101.974 53.383l.102 2.867 2.305 1.712 2.203-1.158-.092-2.563a9.967 9.967 0 0 0-3.214-1.544l-1.304.685zM105.016 62.535l2.72 1.717 2.728-1.433c.058-.195.104-.392.14-.592l.058-1.456a6.76 6.76 0 0 0-.31-1.456l-2.361-1.491-2.847 1.497-.128 3.214zM94.665 56.715l2.404 1.536 3.077-1.662.672-3.198-1.322-.844c-1.67.318-3.18 1.124-4.416 2.193l-.415 1.975zM107.908 55.45l-.045 1.14 1.769 1.117a10.81 10.81 0 0 0-1.724-2.258zM106.697 67.046l.072-1.81-2.72-1.717-2.847 1.497-.128 3.213.2.127c2.021-.014 3.891-.497 5.423-1.31zM100.352 67.783l.128-3.214-2.72-1.718-2.847 1.497-.087 2.192c1.283.86 2.884 1.462 4.655 1.701l.871-.458zM110.108 63.73l-2.447 1.285-.059 1.487c1.109-.755 1.977-1.703 2.506-2.773zM93.949 65.868l.066-1.672-2.09-1.32c.347 1.123 1.053 2.143 2.024 2.992z"/><path fill="#a9bc65" d="M95.014 59.58s1.434-.843 2.864-.741c.998.07 2.165.253 3.157 1.213 1.351 1.306 1.671 3.46 1.688 4.564.043 2.913-1.903 4.758-4.921 4.688-2.975-.07-5.373-2.014-5.173-4.918.113-1.655.648-3.79 2.385-4.805z" opacity=".7"/><path fill="#d0e285" d="M90.392 65.646s.518-1.392 1.55-2.14c.719-.52 1.614-1.063 2.816-.977 1.634.117-.927 2.24.423 4.576 1.522 2.629 4.516 1.884 2.418 3.559-2.068 1.65-4.765 1.697-6.213-.39-.826-1.19-1.626-2.947-.994-4.628z"/><path fill="#d0e285" d="M89.96 56.418s1.435-.844 2.865-.742c.998.07 2.165.253 3.157 1.213 1.35 1.306 1.67 3.46 1.688 4.564.043 2.913-1.903 4.758-4.921 4.688-2.975-.07-5.373-2.014-5.173-4.918.113-1.655.648-3.79 2.385-4.805z"/><ellipse cx="93.861" cy="61.192" rx=".377" ry=".524" fill="#304454" transform="rotate(188.893 93.86 61.192)"/><ellipse cx="89.454" cy="60.267" rx=".377" ry=".524" fill="#304454" transform="rotate(188.893 89.454 60.267)"/><ellipse cx="91.522" cy="63.471" rx="1.05" ry=".939" fill="#c75e72"/><ellipse cx="90.673" cy="62.532" rx="1.627" ry="1.101" fill="#d0e285"/><path fill="#bed575" d="M95.802 30.812s.32-1.633-.252-2.948c-.399-.917-2.616.108-5.339 1.553-3.068 1.63-5.575-.828-4.506 1.995 1.054 2.784 3.685 4.4 6.357 3.246 1.524-.657 3.36-1.87 3.74-3.846z"/><path fill="#d0e285" d="M106.691 29.18s-.621-1.171-.489-2.306c.092-.792 2.02-.522 4.432-.05 2.716.534 4.061-1.92 3.898.482-.161 2.366-1.794 4.206-4.099 3.945-1.315-.15-2.996-.651-3.742-2.07zM98.81 34.571s-.32-1.633.252-2.948c.399-.917 2.616.108 5.339 1.553 3.068 1.63 5.575-.828 4.506 1.995-1.054 2.784-3.685 4.4-6.357 3.246-1.524-.657-3.36-1.87-3.74-3.846z"/><ellipse cx="100.778" cy="26.241" rx="11.153" ry="7.385" fill="#bed575"/><path fill="#bed575" d="M91.683 24.645c0 3.903 4.255 7.067 9.503 7.067s9.504-3.164 9.504-7.067-4.385-8.893-9.634-8.893-9.373 4.99-9.373 8.893z"/><path fill="#a9bc65" d="M98.423 25.51l2.72 1.717 2.847-1.496.128-3.214-2.72-1.718-2.847 1.497zM97.144 25.57l.128-3.215-2.72-1.718-2.06 1.084c-.52 1.07-.81 2.174-.81 3.204 0 .171.012.34.028.506l2.587 1.634 2.847-1.495zM101.974 17.019l.102 2.868 2.305 1.712 2.203-1.158-.092-2.563a9.967 9.967 0 0 0-3.214-1.544l-1.304.685zM105.016 26.171l2.72 1.717 2.728-1.433c.058-.195.104-.392.14-.592l.058-1.456a6.76 6.76 0 0 0-.31-1.456l-2.361-1.49-2.847 1.496-.128 3.214zM94.665 20.352l2.404 1.535 3.077-1.662.672-3.198-1.322-.844c-1.67.319-3.18 1.125-4.416 2.194l-.415 1.975zM107.908 19.086l-.045 1.14 1.769 1.118a10.81 10.81 0 0 0-1.724-2.258zM106.697 30.682l.072-1.81-2.72-1.716-2.847 1.496-.128 3.214.2.126c2.021-.014 3.891-.497 5.423-1.31zM100.352 31.42l.128-3.214-2.72-1.718-2.847 1.497-.087 2.192c1.283.86 2.884 1.462 4.655 1.7l.871-.457zM110.108 27.366l-2.447 1.286-.059 1.487c1.109-.755 1.977-1.703 2.506-2.773zM93.949 29.504l.066-1.672-2.09-1.32c.347 1.123 1.053 2.144 2.024 2.992z"/><path fill="#a9bc65" d="M95.014 23.217s1.434-.844 2.864-.742c.998.071 2.165.253 3.157 1.213 1.351 1.306 1.671 3.461 1.688 4.564.043 2.913-1.903 4.758-4.921 4.688-2.975-.07-5.373-2.014-5.173-4.918.113-1.655.648-3.79 2.385-4.805z" opacity=".7"/><path fill="#d0e285" d="M90.392 29.282s.518-1.392 1.55-2.139c.719-.52 1.614-1.064 2.816-.978 1.634.117-.927 2.241.423 4.576 1.522 2.63 4.516 1.884 2.418 3.56-2.068 1.65-4.765 1.696-6.213-.39-.826-1.19-1.626-2.948-.994-4.629z"/><path fill="#d0e285" d="M89.96 20.054s1.435-.844 2.865-.742c.998.071 2.165.253 3.157 1.213 1.35 1.306 1.67 3.461 1.688 4.564.043 2.913-1.903 4.758-4.921 4.688-2.975-.07-5.373-2.014-5.173-4.918.113-1.655.648-3.79 2.385-4.805z"/><ellipse cx="93.861" cy="24.828" rx=".377" ry=".524" fill="#304454" transform="rotate(188.893 93.86 24.828)"/><ellipse cx="89.454" cy="23.903" rx=".377" ry=".524" fill="#304454" transform="rotate(188.893 89.454 23.903)"/><ellipse cx="91.522" cy="27.107" rx="1.05" ry=".939" fill="#c75e72"/><ellipse cx="90.673" cy="26.168" rx="1.627" ry="1.101" fill="#d0e285"/><path fill="#bed575" d="M132.166 176.267s.32-1.633-.252-2.948c-.399-.917-2.616.108-5.339 1.553-3.068 1.629-5.575-.828-4.506 1.995 1.054 2.784 3.685 4.399 6.357 3.246 1.524-.657 3.36-1.87 3.74-3.846z"/><path fill="#d0e285" d="M143.055 174.635s-.621-1.172-.489-2.307c.092-.792 2.02-.522 4.432-.049 2.716.533 4.061-1.921 3.898.481-.161 2.366-1.794 4.206-4.099 3.945-1.315-.149-2.996-.651-3.742-2.07zM135.173 180.026s-.32-1.633.252-2.948c.399-.917 2.616.108 5.339 1.553 3.068 1.629 5.575-.828 4.506 1.995-1.054 2.784-3.685 4.399-6.357 3.246-1.524-.657-3.36-1.87-3.74-3.846z"/><ellipse cx="137.142" cy="171.696" rx="11.153" ry="7.385" fill="#bed575"/><path fill="#bed575" d="M128.046 170.1c0 3.903 4.255 7.067 9.503 7.067s9.504-3.164 9.504-7.067-4.385-8.893-9.634-8.893-9.373 4.99-9.373 8.893z"/><path fill="#a9bc65" d="M134.787 170.964l2.72 1.717 2.847-1.496.128-3.214-2.72-1.718-2.847 1.497zM133.507 171.024l.128-3.214-2.72-1.718-2.06 1.083c-.519 1.07-.809 2.175-.809 3.205 0 .171.011.339.027.506l2.587 1.634 2.847-1.496zM138.338 162.473l.102 2.868 2.305 1.712 2.203-1.158-.092-2.563a9.967 9.967 0 0 0-3.214-1.544l-1.304.685zM141.38 171.626l2.72 1.717 2.728-1.433c.058-.195.104-.392.14-.592l.058-1.456a6.76 6.76 0 0 0-.31-1.456l-2.361-1.491-2.847 1.497-.128 3.214zM131.028 165.806l2.405 1.536 3.076-1.662.672-3.198-1.322-.844c-1.67.318-3.18 1.124-4.416 2.193l-.415 1.975zM144.272 164.54l-.045 1.14 1.769 1.118a10.81 10.81 0 0 0-1.724-2.258zM143.061 176.136l.072-1.809-2.72-1.717-2.847 1.496-.128 3.214.2.126c2.021-.014 3.891-.497 5.423-1.31zM136.716 176.874l.128-3.214-2.72-1.718-2.847 1.497-.087 2.192c1.283.86 2.884 1.462 4.655 1.701l.871-.458zM146.471 172.82l-2.447 1.286-.059 1.487c1.109-.755 1.977-1.703 2.506-2.773zM130.313 174.958l.066-1.672-2.089-1.32c.346 1.123 1.052 2.144 2.023 2.992z"/><path fill="#a9bc65" d="M131.377 168.672s1.434-.844 2.864-.742c.998.071 2.165.253 3.157 1.213 1.351 1.306 1.671 3.461 1.688 4.564.043 2.913-1.903 4.758-4.921 4.688-2.975-.07-5.373-2.014-5.173-4.918.113-1.655.648-3.79 2.385-4.805z" opacity=".7"/><path fill="#d0e285" d="M126.755 174.737s.518-1.392 1.55-2.139c.719-.521 1.614-1.064 2.816-.978 1.634.117-.927 2.241.423 4.576 1.522 2.629 4.516 1.884 2.418 3.559-2.068 1.651-4.765 1.697-6.213-.39-.826-1.19-1.626-2.947-.994-4.628z"/><path fill="#d0e285" d="M126.324 165.509s1.434-.844 2.864-.742c.998.071 2.165.253 3.157 1.213 1.351 1.306 1.671 3.461 1.688 4.564.043 2.913-1.903 4.758-4.921 4.688-2.975-.07-5.373-2.014-5.173-4.918.113-1.655.648-3.79 2.385-4.805z"/><ellipse cx="130.224" cy="170.282" rx=".377" ry=".524" fill="#304454" transform="rotate(188.893 130.224 170.282)"/><ellipse cx="125.818" cy="169.358" rx=".377" ry=".524" fill="#304454" transform="rotate(188.893 125.818 169.358)"/><ellipse cx="127.886" cy="172.562" rx="1.05" ry=".939" fill="#c75e72"/><ellipse cx="127.037" cy="171.623" rx="1.627" ry="1.101" fill="#d0e285"/><path fill="none" stroke="#000" d="M86.182 77.454l27.636-27.636M86.182 49.818l27.636 27.636M86.182 41.09l27.636-27.636M86.182 13.454l27.636 27.637M122.545 186.545l27.637-27.636M122.545 158.909l27.637 27.636" stroke-width="2"/></svg>
