<svg xmlns="http://www.w3.org/2000/svg" width="163.636" height="200" viewBox="0 0 163.63636363636365 200.00000000000003"><path fill="#d14e3f" d="M23.653 171.709s1.49-2.428 2.428-3.311c3.532-3.366 6.953-3.641 6.953-3.641s.607-2.042-1.159-3.477c-.331-.275-.883-.441-1.49-.496-.055-.055-.221-.111-.331-.165-.221-.056-.442.055-.552.165-.11 0-.221.055-.331.055-.165-.11-.442-.221-.828-.055-.552.11-.772.442-.883.552-.055.055-.11.055-.11.055-.111-.111-.332-.331-.883 0-.442.22-.717.828-.717.828s-.552.055-.828.276-.442.552-.552.662c-.11.055-.551.165-.938.497-.386.441-.386.551-.386.551s-.497.111-.993.718c-.497.552-.441.662-.441.717 0 0 0 .056-.056.056-.11 0-.662.22-1.103.717-.276-.387-1.435-1.987-2.263-2.373-.441-.165-.882 0-1.269.221-.552-.166-1.214-.662-1.821-1.987l-2.373-2.096c0 .11.056.221.056.276.22 1.876.827 4.58 2.648 5.904v.055s-.276 1.158.717 1.325c.607.11 2.538 1.103 2.538 1.103l1.214-1.545c-.11.275-.055.386-.055.442l-.496.661.055-.11s-.166-.11-.607.607c-.497.663-.441 1.159-.441 1.159s-.11 0-.442.497c-.276.551-.22 1.048-.22 1.048s-.332.386-.497.717c-.165.331-.055.884-.055.884s-.496.441-.607.882c-.221.883.276.883.276.883s-.386.331-.386 1.104c-.056.717.441.883.441.883s-.331.386-.111.828c.166.386.718.551.718.551s-.111.607.11.828c.166.165.497.552.883.772.166.221.331.442.497.607 1.489 1.214 3.089.607 3.752.277-.552-.665-.717-5.962.938-9.107z"/><path fill="#f89c44" d="M23.653 171.709c-1.655 3.145-1.49 8.442-.938 9.105h.055s11.698 9.049 17.547 1.379c5.849-7.615-7.283-17.437-7.283-17.437s-3.421.276-6.953 3.642c-.938.883-2.428 3.311-2.428 3.311z"/><path fill="#d14e3f" d="M23.653 135.345s1.49-2.428 2.428-3.311c3.532-3.366 6.953-3.641 6.953-3.641s.607-2.042-1.159-3.477c-.331-.275-.883-.441-1.49-.496-.055-.055-.221-.111-.331-.165-.221-.056-.442.055-.552.165-.11 0-.221.055-.331.055-.165-.11-.442-.221-.828-.055-.552.11-.772.442-.883.552-.055.055-.11.055-.11.055-.111-.111-.332-.331-.883 0-.442.22-.717.828-.717.828s-.552.055-.828.276c-.276.221-.442.552-.552.662-.11.055-.551.165-.938.497-.386.441-.386.551-.386.551s-.497.111-.993.718c-.497.552-.441.662-.441.717 0 0 0 .056-.056.056-.11 0-.662.22-1.103.717-.276-.387-1.435-1.987-2.263-2.373-.441-.165-.882 0-1.269.221-.552-.166-1.214-.662-1.821-1.987l-2.373-2.096c0 .11.056.221.056.276.22 1.876.827 4.58 2.648 5.904v.055s-.276 1.158.717 1.325c.607.11 2.538 1.103 2.538 1.103l1.214-1.545c-.11.275-.055.386-.055.442l-.496.661.055-.11s-.166-.11-.607.607c-.497.663-.441 1.159-.441 1.159s-.11 0-.442.497c-.276.551-.22 1.048-.22 1.048s-.332.386-.497.717c-.165.331-.055.884-.055.884s-.496.441-.607.882c-.221.883.276.883.276.883s-.386.331-.386 1.104c-.056.717.441.883.441.883s-.331.386-.111.828c.166.386.718.551.718.551s-.111.607.11.828c.166.165.497.552.883.772.166.221.331.442.497.607 1.489 1.214 3.089.607 3.752.277-.552-.665-.717-5.962.938-9.107z"/><path fill="#f89c44" d="M23.653 135.345c-1.655 3.145-1.49 8.442-.938 9.105h.055s11.698 9.049 17.547 1.379c5.849-7.615-7.283-17.437-7.283-17.437s-3.421.276-6.953 3.642c-.938.883-2.428 3.311-2.428 3.311z"/><path fill="#d14e3f" d="M23.653 98.981s1.49-2.428 2.428-3.31c3.532-3.367 6.953-3.642 6.953-3.642s.607-2.042-1.159-3.477c-.331-.275-.883-.44-1.49-.496-.055-.055-.221-.11-.331-.165-.221-.056-.442.055-.552.165-.11 0-.221.055-.331.055-.165-.11-.442-.22-.828-.055-.552.11-.772.442-.883.552-.055.055-.11.055-.11.055-.111-.11-.332-.33-.883 0-.442.22-.717.828-.717.828s-.552.055-.828.276c-.276.221-.442.552-.552.662-.11.055-.551.165-.938.497-.386.441-.386.551-.386.551s-.497.111-.993.718c-.497.552-.441.662-.441.717 0 0 0 .056-.056.056-.11 0-.662.22-1.103.717-.276-.387-1.435-1.987-2.263-2.373-.441-.165-.882 0-1.269.221-.552-.166-1.214-.662-1.821-1.987l-2.373-2.096c0 .11.056.221.056.276.22 1.876.827 4.58 2.648 5.904v.055s-.276 1.158.717 1.325c.607.11 2.538 1.103 2.538 1.103l1.214-1.545c-.11.275-.055.386-.055.442l-.496.661.055-.11s-.166-.11-.607.607c-.497.663-.441 1.16-.441 1.16s-.11 0-.442.496c-.276.551-.22 1.048-.22 1.048s-.332.386-.497.717-.055.884-.055.884-.496.441-.607.882c-.221.883.276.883.276.883s-.386.331-.386 1.104c-.056.717.441.883.441.883s-.331.386-.111.828c.166.386.718.551.718.551s-.111.607.11.828c.166.165.497.552.883.772.166.221.331.442.497.607 1.489 1.214 3.089.607 3.752.277-.552-.665-.717-5.962.938-9.107z"/><path fill="#f89c44" d="M23.653 98.981c-1.655 3.145-1.49 8.442-.938 9.105h.055s11.698 9.049 17.547 1.379c5.849-7.615-7.283-17.437-7.283-17.437s-3.421.276-6.953 3.642c-.938.883-2.428 3.311-2.428 3.311m0 0z"/><path fill="#d14e3f" d="M23.653 62.618s1.49-2.428 2.428-3.311c3.532-3.366 6.953-3.641 6.953-3.641s.607-2.042-1.159-3.477c-.331-.275-.883-.441-1.49-.496-.055-.055-.221-.111-.331-.165-.221-.056-.442.055-.552.165-.11 0-.221.055-.331.055-.165-.11-.442-.221-.828-.055-.552.11-.772.442-.883.552-.055.055-.11.055-.11.055-.111-.111-.332-.331-.883 0-.442.22-.717.828-.717.828s-.552.055-.828.276c-.276.22-.442.552-.552.662-.11.055-.551.165-.938.497-.386.44-.386.55-.386.55s-.497.112-.993.719c-.497.552-.441.662-.441.717 0 0 0 .056-.056.056-.11 0-.662.22-1.103.717-.276-.387-1.435-1.987-2.263-2.373-.441-.165-.882 0-1.269.22-.552-.165-1.214-.661-1.821-1.986l-2.373-2.096c0 .11.056.22.056.276.22 1.876.827 4.58 2.648 5.904v.055s-.276 1.158.717 1.325c.607.11 2.538 1.103 2.538 1.103l1.214-1.545c-.11.275-.055.386-.055.442l-.496.66.055-.11s-.166-.11-.607.608c-.497.663-.441 1.159-.441 1.159s-.11 0-.442.497c-.276.55-.22 1.048-.22 1.048s-.332.386-.497.717c-.165.33-.055.884-.055.884s-.496.44-.607.882c-.221.883.276.883.276.883s-.386.33-.386 1.104c-.056.717.441.883.441.883s-.331.386-.111.828c.166.386.718.55.718.55s-.111.608.11.829c.166.165.497.552.883.772.166.22.331.442.497.607 1.489 1.214 3.089.607 3.752.277-.552-.665-.717-5.962.938-9.107z"/><path fill="#f89c44" d="M23.653 62.618c-1.655 3.145-1.49 8.442-.938 9.105h.055s11.698 9.049 17.547 1.379c5.849-7.615-7.283-17.437-7.283-17.437s-3.421.276-6.953 3.642c-.938.883-2.428 3.31-2.428 3.31z"/><path fill="#d14e3f" d="M23.653 26.254s1.49-2.428 2.428-3.311c3.532-3.366 6.953-3.641 6.953-3.641s.607-2.042-1.159-3.477c-.331-.275-.883-.441-1.49-.496-.055-.055-.221-.111-.331-.165-.221-.056-.442.055-.552.165-.11 0-.221.055-.331.055-.165-.11-.442-.221-.828-.055-.552.11-.772.442-.883.552-.055.055-.11.055-.11.055-.111-.111-.332-.331-.883 0-.442.22-.717.828-.717.828s-.552.055-.828.276-.442.552-.552.662c-.11.055-.551.165-.938.497-.386.441-.386.551-.386.551s-.497.111-.993.718c-.497.552-.441.662-.441.717 0 0 0 .056-.056.056-.11 0-.662.22-1.103.717-.276-.387-1.435-1.987-2.263-2.373-.441-.165-.882 0-1.269.221-.552-.166-1.214-.662-1.821-1.987l-2.373-2.096c0 .11.056.221.056.276.22 1.876.827 4.58 2.648 5.904v.055s-.276 1.158.717 1.325c.607.11 2.538 1.103 2.538 1.103l1.214-1.545c-.11.275-.055.386-.055.442l-.496.661.055-.11s-.166-.11-.607.607c-.497.663-.441 1.159-.441 1.159s-.11 0-.442.497c-.276.551-.22 1.048-.22 1.048s-.332.386-.497.717-.055.884-.055.884-.496.441-.607.882c-.221.883.276.883.276.883s-.386.331-.386 1.104c-.056.717.441.883.441.883s-.331.386-.111.828c.166.386.718.551.718.551s-.111.607.11.828c.166.165.497.552.883.772.166.221.331.442.497.607 1.489 1.214 3.089.607 3.752.277-.552-.665-.717-5.962.938-9.107z"/><path fill="#f89c44" d="M23.653 26.254c-1.655 3.145-1.49 8.442-.938 9.105h.055s11.698 9.049 17.547 1.379c5.849-7.615-7.283-17.437-7.283-17.437s-3.421.276-6.953 3.642c-.938.883-2.428 3.311-2.428 3.311z"/><path fill="#d14e3f" d="M60.017 171.709s1.49-2.428 2.428-3.311c3.532-3.366 6.953-3.641 6.953-3.641s.607-2.042-1.16-3.477c-.33-.275-.882-.441-1.49-.496-.054-.055-.22-.111-.33-.165-.221-.056-.442.055-.552.165-.11 0-.221.055-.331.055-.165-.11-.442-.221-.828-.055-.552.11-.772.442-.883.552-.055.055-.11.055-.11.055-.111-.111-.332-.331-.883 0-.442.22-.717.828-.717.828s-.552.055-.828.276-.442.552-.552.662c-.11.055-.551.165-.938.497-.386.441-.386.551-.386.551s-.497.111-.993.718c-.497.552-.441.662-.441.717 0 0 0 .056-.056.056-.11 0-.662.22-1.103.717-.276-.387-1.435-1.987-2.263-2.373-.441-.165-.882 0-1.27.221-.551-.166-1.213-.662-1.82-1.987l-2.373-2.096c0 .11.056.221.056.276.22 1.876.827 4.58 2.648 5.904v.055s-.276 1.158.717 1.325c.607.11 2.538 1.103 2.538 1.103l1.214-1.545c-.11.275-.055.386-.055.442l-.496.661.055-.11s-.166-.11-.607.607c-.497.663-.441 1.159-.441 1.159s-.11 0-.442.497c-.276.551-.22 1.048-.22 1.048s-.332.386-.497.717c-.165.331-.055.884-.055.884s-.496.441-.607.882c-.221.883.276.883.276.883s-.386.331-.386 1.104c-.056.717.44.883.44.883s-.33.386-.11.828c.166.386.718.551.718.551s-.111.607.11.828c.166.165.497.552.883.772.166.221.33.442.497.607 1.489 1.214 3.089.607 3.752.277-.552-.665-.717-5.962.938-9.107z"/><path fill="#f89c44" d="M60.017 171.709c-1.655 3.145-1.49 8.442-.938 9.105h.055s11.698 9.049 17.547 1.379c5.849-7.615-7.283-17.437-7.283-17.437s-3.421.276-6.953 3.642c-.938.883-2.428 3.311-2.428 3.311z"/><path fill="#d14e3f" d="M60.017 135.345s1.49-2.428 2.428-3.311c3.532-3.366 6.953-3.641 6.953-3.641s.607-2.042-1.16-3.477c-.33-.275-.882-.441-1.49-.496-.054-.055-.22-.111-.33-.165-.221-.056-.442.055-.552.165-.11 0-.221.055-.331.055-.165-.11-.442-.221-.828-.055-.552.11-.772.442-.883.552-.055.055-.11.055-.11.055-.111-.111-.332-.331-.883 0-.442.22-.717.828-.717.828s-.552.055-.828.276c-.276.221-.442.552-.552.662-.11.055-.551.165-.938.497-.386.441-.386.551-.386.551s-.497.111-.993.718c-.497.552-.441.662-.441.717 0 0 0 .056-.056.056-.11 0-.662.22-1.103.717-.276-.387-1.435-1.987-2.263-2.373-.441-.165-.882 0-1.27.221-.551-.166-1.213-.662-1.82-1.987l-2.373-2.096c0 .11.056.221.056.276.22 1.876.827 4.58 2.648 5.904v.055s-.276 1.158.717 1.325c.607.11 2.538 1.103 2.538 1.103l1.214-1.545c-.11.275-.055.386-.055.442l-.496.661.055-.11s-.166-.11-.607.607c-.497.663-.441 1.159-.441 1.159s-.11 0-.442.497c-.276.551-.22 1.048-.22 1.048s-.332.386-.497.717c-.165.331-.055.884-.055.884s-.496.441-.607.882c-.221.883.276.883.276.883s-.386.331-.386 1.104c-.056.717.44.883.44.883s-.33.386-.11.828c.166.386.718.551.718.551s-.111.607.11.828c.166.165.497.552.883.772.166.221.33.442.497.607 1.489 1.214 3.089.607 3.752.277-.552-.665-.717-5.962.938-9.107z"/><path fill="#f89c44" d="M60.017 135.345c-1.655 3.145-1.49 8.442-.938 9.105h.055s11.698 9.049 17.547 1.379c5.849-7.615-7.283-17.437-7.283-17.437s-3.421.276-6.953 3.642c-.938.883-2.428 3.311-2.428 3.311z"/><path fill="#d14e3f" d="M60.017 98.981s1.49-2.428 2.428-3.31c3.532-3.367 6.953-3.642 6.953-3.642s.607-2.042-1.16-3.477c-.33-.275-.882-.44-1.49-.496-.054-.055-.22-.11-.33-.165-.221-.056-.442.055-.552.165-.11 0-.221.055-.331.055-.165-.11-.442-.22-.828-.055-.552.11-.772.442-.883.552-.055.055-.11.055-.11.055-.111-.11-.332-.33-.883 0-.442.22-.717.828-.717.828s-.552.055-.828.276c-.276.221-.442.552-.552.662-.11.055-.551.165-.938.497-.386.441-.386.551-.386.551s-.497.111-.993.718c-.497.552-.441.662-.441.717 0 0 0 .056-.056.056-.11 0-.662.22-1.103.717-.276-.387-1.435-1.987-2.263-2.373-.441-.165-.882 0-1.27.221-.551-.166-1.213-.662-1.82-1.987L49.09 87.45c0 .11.056.221.056.276.22 1.876.827 4.58 2.648 5.904v.055s-.276 1.158.717 1.325c.607.11 2.538 1.103 2.538 1.103l1.214-1.545c-.11.275-.055.386-.055.442l-.496.661.055-.11s-.166-.11-.607.607c-.497.663-.441 1.16-.441 1.16s-.11 0-.442.496c-.276.551-.22 1.048-.22 1.048s-.332.386-.497.717-.055.884-.055.884-.496.441-.607.882c-.221.883.276.883.276.883s-.386.331-.386 1.104c-.056.717.44.883.44.883s-.33.386-.11.828c.166.386.718.551.718.551s-.111.607.11.828c.166.165.497.552.883.772.166.221.33.442.497.607 1.489 1.214 3.089.607 3.752.277-.552-.665-.717-5.962.938-9.107z"/><path fill="#f89c44" d="M60.017 98.981c-1.655 3.145-1.49 8.442-.938 9.105h.055s11.698 9.049 17.547 1.379c5.849-7.615-7.283-17.437-7.283-17.437s-3.421.276-6.953 3.642c-.938.883-2.428 3.311-2.428 3.311z"/><path fill="#d14e3f" d="M60.017 62.618s1.49-2.428 2.428-3.311c3.532-3.366 6.953-3.641 6.953-3.641s.607-2.042-1.16-3.477c-.33-.275-.882-.441-1.49-.496-.054-.055-.22-.111-.33-.165-.221-.056-.442.055-.552.165-.11 0-.221.055-.331.055-.165-.11-.442-.221-.828-.055-.552.11-.772.442-.883.552-.055.055-.11.055-.11.055-.111-.111-.332-.331-.883 0-.442.22-.717.828-.717.828s-.552.055-.828.276c-.276.22-.442.552-.552.662-.11.055-.551.165-.938.497-.386.44-.386.55-.386.55s-.497.112-.993.719c-.497.552-.441.662-.441.717 0 0 0 .056-.056.056-.11 0-.662.22-1.103.717-.276-.387-1.435-1.987-2.263-2.373-.441-.165-.882 0-1.27.22-.551-.165-1.213-.661-1.82-1.986l-2.373-2.096c0 .11.056.22.056.276.22 1.876.827 4.58 2.648 5.904v.055s-.276 1.158.717 1.325c.607.11 2.538 1.103 2.538 1.103l1.214-1.545c-.11.275-.055.386-.055.442l-.496.66.055-.11s-.166-.11-.607.608c-.497.663-.441 1.159-.441 1.159s-.11 0-.442.497c-.276.55-.22 1.048-.22 1.048s-.332.386-.497.717c-.165.33-.055.884-.055.884s-.496.44-.607.882c-.221.883.276.883.276.883s-.386.33-.386 1.104c-.056.717.44.883.44.883s-.33.386-.11.828c.166.386.718.55.718.55s-.111.608.11.829c.166.165.497.552.883.772.166.22.33.442.497.607 1.489 1.214 3.089.607 3.752.277-.552-.665-.717-5.962.938-9.107z"/><path fill="#f89c44" d="M60.017 62.618c-1.655 3.145-1.49 8.442-.938 9.105h.055s11.698 9.049 17.547 1.379c5.849-7.615-7.283-17.437-7.283-17.437s-3.421.276-6.953 3.642c-.938.883-2.428 3.31-2.428 3.31z"/><path fill="#d14e3f" d="M132.744 171.709s1.49-2.428 2.428-3.311c3.532-3.366 6.953-3.641 6.953-3.641s.607-2.042-1.159-3.477c-.331-.275-.883-.441-1.49-.496-.055-.055-.221-.111-.331-.165-.221-.056-.442.055-.552.165-.11 0-.221.055-.331.055-.165-.11-.442-.221-.828-.055-.552.11-.772.442-.883.552-.055.055-.11.055-.11.055-.111-.111-.332-.331-.883 0-.442.22-.717.828-.717.828s-.552.055-.828.276-.442.552-.552.662c-.11.055-.551.165-.938.497-.386.441-.386.551-.386.551s-.497.111-.993.718c-.497.552-.441.662-.441.717 0 0 0 .056-.056.056-.11 0-.662.22-1.103.717-.276-.387-1.435-1.987-2.263-2.373-.441-.165-.882 0-1.269.221-.552-.166-1.214-.662-1.821-1.987l-2.373-2.096c0 .11.056.221.056.276.22 1.876.827 4.58 2.648 5.904v.055s-.276 1.158.717 1.325c.607.11 2.538 1.103 2.538 1.103l1.214-1.545c-.11.275-.055.386-.055.442l-.496.661.055-.11s-.166-.11-.607.607c-.497.663-.441 1.159-.441 1.159s-.11 0-.442.497c-.276.551-.22 1.048-.22 1.048s-.332.386-.497.717c-.165.331-.055.884-.055.884s-.496.441-.607.882c-.221.883.276.883.276.883s-.386.331-.386 1.104c-.056.717.441.883.441.883s-.331.386-.111.828c.166.386.718.551.718.551s-.111.607.11.828c.166.165.497.552.883.772.166.221.331.442.497.607 1.489 1.214 3.089.607 3.752.277-.552-.665-.717-5.962.938-9.107z"/><path fill="#f89c44" d="M132.744 171.709c-1.655 3.145-1.49 8.442-.938 9.105h.055s11.698 9.049 17.547 1.379c5.849-7.615-7.283-17.437-7.283-17.437s-3.421.276-6.953 3.642c-.938.883-2.428 3.311-2.428 3.311z"/><path fill="#d14e3f" d="M132.744 135.345s1.49-2.428 2.428-3.311c3.532-3.366 6.953-3.641 6.953-3.641s.607-2.042-1.159-3.477c-.331-.275-.883-.441-1.49-.496-.055-.055-.221-.111-.331-.165-.221-.056-.442.055-.552.165-.11 0-.221.055-.331.055-.165-.11-.442-.221-.828-.055-.552.11-.772.442-.883.552-.055.055-.11.055-.11.055-.111-.111-.332-.331-.883 0-.442.22-.717.828-.717.828s-.552.055-.828.276c-.276.221-.442.552-.552.662-.11.055-.551.165-.938.497-.386.441-.386.551-.386.551s-.497.111-.993.718c-.497.552-.441.662-.441.717 0 0 0 .056-.056.056-.11 0-.662.22-1.103.717-.276-.387-1.435-1.987-2.263-2.373-.441-.165-.882 0-1.269.221-.552-.166-1.214-.662-1.821-1.987l-2.373-2.096c0 .11.056.221.056.276.22 1.876.827 4.58 2.648 5.904v.055s-.276 1.158.717 1.325c.607.11 2.538 1.103 2.538 1.103l1.214-1.545c-.11.275-.055.386-.055.442l-.496.661.055-.11s-.166-.11-.607.607c-.497.663-.441 1.159-.441 1.159s-.11 0-.442.497c-.276.551-.22 1.048-.22 1.048s-.332.386-.497.717c-.165.331-.055.884-.055.884s-.496.441-.607.882c-.221.883.276.883.276.883s-.386.331-.386 1.104c-.056.717.441.883.441.883s-.331.386-.111.828c.166.386.718.551.718.551s-.111.607.11.828c.166.165.497.552.883.772.166.221.331.442.497.607 1.489 1.214 3.089.607 3.752.277-.552-.665-.717-5.962.938-9.107z"/><path fill="#f89c44" d="M132.744 135.345c-1.655 3.145-1.49 8.442-.938 9.105h.055s11.698 9.049 17.547 1.379c5.849-7.615-7.283-17.437-7.283-17.437s-3.421.276-6.953 3.642c-.938.883-2.428 3.311-2.428 3.311z"/><path fill="#d14e3f" d="M132.744 98.981s1.49-2.428 2.428-3.31c3.532-3.367 6.953-3.642 6.953-3.642s.607-2.042-1.159-3.477c-.331-.275-.883-.44-1.49-.496-.055-.055-.221-.11-.331-.165-.221-.056-.442.055-.552.165-.11 0-.221.055-.331.055-.165-.11-.442-.22-.828-.055-.552.11-.772.442-.883.552-.055.055-.11.055-.11.055-.111-.11-.332-.33-.883 0-.442.22-.717.828-.717.828s-.552.055-.828.276c-.276.221-.442.552-.552.662-.11.055-.551.165-.938.497-.386.441-.386.551-.386.551s-.497.111-.993.718c-.497.552-.441.662-.441.717 0 0 0 .056-.056.056-.11 0-.662.22-1.103.717-.276-.387-1.435-1.987-2.263-2.373-.441-.165-.882 0-1.269.221-.552-.166-1.214-.662-1.821-1.987l-2.373-2.096c0 .11.056.221.056.276.22 1.876.827 4.58 2.648 5.904v.055s-.276 1.158.717 1.325c.607.11 2.538 1.103 2.538 1.103l1.214-1.545c-.11.275-.055.386-.055.442l-.496.661.055-.11s-.166-.11-.607.607c-.497.663-.441 1.16-.441 1.16s-.11 0-.442.496c-.276.551-.22 1.048-.22 1.048s-.332.386-.497.717-.055.884-.055.884-.496.441-.607.882c-.221.883.276.883.276.883s-.386.331-.386 1.104c-.056.717.441.883.441.883s-.331.386-.111.828c.166.386.718.551.718.551s-.111.607.11.828c.166.165.497.552.883.772.166.221.331.442.497.607 1.489 1.214 3.089.607 3.752.277-.552-.665-.717-5.962.938-9.107z"/><path fill="#f89c44" d="M132.744 98.981c-1.655 3.145-1.49 8.442-.938 9.105h.055s11.698 9.049 17.547 1.379c5.849-7.615-7.283-17.437-7.283-17.437s-3.421.276-6.953 3.642c-.938.883-2.428 3.311-2.428 3.311z"/></svg>
