<svg xmlns="http://www.w3.org/2000/svg" width="90.909" height="200" viewBox="0 0 90.90909090909092 200.00000000000003"><defs><linearGradient id="a" x2="1"><stop offset="0%" stop-color="#fdc075"/><stop offset="100%" stop-color="#de9354"/></linearGradient><linearGradient id="b" x2="1"><stop offset="0%" stop-color="#fdc075"/><stop offset="100%" stop-color="#de9354"/></linearGradient><linearGradient id="c" x2="1"><stop offset="0%" stop-color="#fdc075"/><stop offset="100%" stop-color="#de9354"/></linearGradient><linearGradient id="d" x2="1"><stop offset="0%" stop-color="#fdc075"/><stop offset="100%" stop-color="#de9354"/></linearGradient><linearGradient id="e" x2="1"><stop offset="0%" stop-color="#fdc075"/><stop offset="100%" stop-color="#de9354"/></linearGradient><linearGradient id="f" x2="1"><stop offset="0%" stop-color="#fdc075"/><stop offset="100%" stop-color="#de9354"/></linearGradient><linearGradient id="g" x2="1"><stop offset="0%" stop-color="#fdc075"/><stop offset="100%" stop-color="#de9354"/></linearGradient><linearGradient id="h" x2="1"><stop offset="0%" stop-color="#fdc075"/><stop offset="100%" stop-color="#de9354"/></linearGradient><linearGradient id="i" x2="1"><stop offset="0%" stop-color="#fdc075"/><stop offset="100%" stop-color="#de9354"/></linearGradient><linearGradient id="j" x2="1"><stop offset="0%" stop-color="#fdc075"/><stop offset="100%" stop-color="#de9354"/></linearGradient><linearGradient id="k" x2="1"><stop offset="0%" stop-color="#fdc075"/><stop offset="100%" stop-color="#de9354"/></linearGradient><linearGradient id="l" x2="1"><stop offset="0%" stop-color="#fdc075"/><stop offset="100%" stop-color="#de9354"/></linearGradient><linearGradient id="m" x2="1"><stop offset="0%" stop-color="#fdc075"/><stop offset="100%" stop-color="#de9354"/></linearGradient><linearGradient id="n" x2="1"><stop offset="0%" stop-color="#fdc075"/><stop offset="100%" stop-color="#de9354"/></linearGradient><linearGradient id="o" x2="1"><stop offset="0%" stop-color="#fdc075"/><stop offset="100%" stop-color="#de9354"/></linearGradient><linearGradient id="p" x2="1"><stop offset="0%" stop-color="#fdc075"/><stop offset="100%" stop-color="#de9354"/></linearGradient><linearGradient id="q" x2="1"><stop offset="0%" stop-color="#fdc075"/><stop offset="100%" stop-color="#de9354"/></linearGradient><linearGradient id="r" x2="1"><stop offset="0%" stop-color="#fdc075"/><stop offset="100%" stop-color="#de9354"/></linearGradient><linearGradient id="s" x2="1"><stop offset="0%" stop-color="#fdc075"/><stop offset="100%" stop-color="#de9354"/></linearGradient><linearGradient id="t" x2="1"><stop offset="0%" stop-color="#fdc075"/><stop offset="100%" stop-color="#de9354"/></linearGradient></defs><path fill="#fcd0a1" d="M41.33 175.399s1.149-1.625-.079-3.685-4.042-2.06-4.755-2.06-5.389-.555-8.044-1.387-7.41-2.814-8.163-3.21c-.753-.396-2.932-.436-2.972 3.645 0 0 7.014 4.121 9.867 4.716 2.853.594 7.608 2.06 8.717 2.179 1.11.119 3.646 1.03 5.429-.198z"/><path fill="#e8b986" d="M40.22 174.884s.952-3.249-3.644-3.447c-4.597-.198-8.757-1.149-10.858-1.902-2.1-.753-5.547-2.378-6.577-3.051-1.031-.674-1.744.753-1.823 2.219 0 0 10.976 4.834 12.957 5.19 2.399.433 9.035 1.585 9.946.991z"/><path fill="#b35138" d="M15.218 168.109c.872-.951 1.823-.674 2.298-.515.476.158.436.357 5.746 2.457 5.31 2.1 13.314 3.17 13.314 3.17.792.118.95.079 3.249.396 2.298.317 2.496 2.813.87 3.645-1.623.832-7.012 0-9.667-.277s-6.855-1.545-9.946-2.655c-3.09-1.109-5.706-3.605-5.864-3.764-.158-.159-.872-1.506 0-2.457z"/><path fill="#9b3924" d="M31.028 176.984c-2.655-.277-6.855-1.545-9.946-2.655-3.09-1.109-5.705-3.606-5.864-3.764-.15-.149-.79-1.351-.138-2.285.526.504 1.37 1.003 2.043 1.427.948.6 2.346.849 8.586 3.195 6.239 2.346 12.878 2.496 13.378 2.546.499.05.886.311.399.749-.408.367.43 1.017.995.959.2-.02.427-.094.639-.183a2.052 2.052 0 0 1-.424.288c-1.624.833-7.013.001-9.668-.277z"/><path fill="url(#a)" d="M20.29 165.058c.753.396 5.36 2.271 8.015 3.103 2.655.832 7.478 1.494 8.19 1.494.655 0 3.072.001 4.417 1.587-2.125-1.833-6.168-.335-12.757-1.883-3.952-.928-5.242-2.196-8.786-3.594-.58-.229-.943-.252-1.28-.128.72-1.01 1.733-.825 2.2-.579z"/><path fill="url(#b)" d="M39.974 177.478s-.527.361-2.448-.81c-2.058-1.255-4.398-1.427-6.023-1.744-1.625-.317-11.095-3.447-12.125-3.843-1.03-.397-3.897-1.923-4.398-2.1-1.229-.436-2.864-.274-2.02 2.021.712 1.941 2.06 3.764 7.131 6.657 5.072 2.892 13.23 3.558 16.92 2.377 1.981-.634 2.963-1.964 2.963-2.558z"/><path fill="#fcd0a1" d="M14.98 168.982c.502.178 3.369 1.704 4.398 2.1 1.032.396 10.502 3.527 12.127 3.844 1.624.317 3.964.488 6.021 1.743 1.921 1.172 2.448.81 2.448.81 0 .501-.7 1.523-2.104 2.212-.07-.423-.182-.749-.255-.847-.226-.299-1.574-.299-2.398-.674-.822-.374-4.566-1.048-5.84-1.273-1.272-.224-2.92-.299-3.518-.449-.6-.149-1.723-.674-2.247-.824-.523-.149-.3-.074-1.422-.299-1.123-.224-6.14-3.594-7.488-4.268-.931-.466-1.255-1.397-1.44-2.125.458-.229 1.133-.157 1.718.05z"/><path fill="#9b3924" d="M35.625 174.857a7.714 7.714 0 0 1 1.889-.246c.309 0 .642.02 1.002.068h-.001a.3.3 0 0 0 .082-.593 8.135 8.135 0 0 0-1.083-.074c-.827 0-1.498.133-2.032.264-.532.131-.937.25-1.18.246a.595.595 0 0 1-.173-.022c-.248-.068-.637-.437-1.096-.856-.465-.414-1.034-.872-1.79-1.06a2.812 2.812 0 0 0-.682-.082c-.937.009-1.748.379-2.517.37-.241 0-.477-.031-.721-.114-.621-.211-.973-.566-1.455-.986-.477-.416-1.08-.871-2.108-1.133a3.39 3.39 0 0 0-.845-.105c-.77.004-1.395.222-1.957.216-.15 0-.296-.013-.444-.046-.18-.044-.276-.123-.402-.286-.121-.162-.241-.401-.41-.667-.33-.537-.908-1.155-2.128-1.395a.301.301 0 0 0-.356.232.3.3 0 0 0 .235.354c.807.169 1.209.466 1.492.789.285.325.434.701.683 1.043.165.226.409.44.754.514.197.044.389.061.576.061.703-.005 1.313-.221 1.957-.217.223.001.45.024.694.086.927.241 1.404.608 1.863 1.004.454.393.894.843 1.656 1.102.314.106.62.146.916.146.944-.008 1.757-.378 2.517-.37.18 0 .357.019.537.063.594.147 1.087.527 1.533.926.45.394.82.813 1.316.981.117.036.237.05.356.05.4-.003.806-.14 1.322-.263z"/><path fill="#f6b21a" d="M35.63 174.744a7.624 7.624 0 0 1 1.877-.246c.308 0 .639.02.997.068a.3.3 0 0 0 .08-.593 8.024 8.024 0 0 0-1.077-.074c-.822 0-1.488.133-2.02.264-.53.131-.931.25-1.172.246a.58.58 0 0 1-.172-.022c-.248-.068-.635-.437-1.09-.856-.462-.414-1.028-.872-1.778-1.06a2.787 2.787 0 0 0-.68-.082c-.931.009-1.737.379-2.502.371a2.202 2.202 0 0 1-.718-.115c-.616-.211-.968-.565-1.447-.985-.473-.417-1.072-.871-2.095-1.133a3.353 3.353 0 0 0-.84-.105c-.765.004-1.386.221-1.945.216a1.99 1.99 0 0 1-.441-.046c-.18-.044-.276-.124-.4-.286-.12-.162-.24-.401-.407-.667-.329-.537-.904-1.155-2.117-1.395a.3.3 0 0 0-.121.586c.803.169 1.203.466 1.485.789.282.325.43.701.678 1.043.165.226.407.44.75.514.195.044.386.061.572.061.7-.005 1.306-.221 1.947-.216.22 0 .448.023.689.086.92.24 1.395.608 1.852 1.004.451.393.889.843 1.646 1.101.313.106.617.146.91.146.94-.008 1.747-.378 2.503-.37a2.2 2.2 0 0 1 .534.063c.59.147 1.08.527 1.525.926.447.394.816.813 1.309.981.115.036.234.05.352.05.398-.004.803-.141 1.316-.264m0 0z"/><path fill="#fbd702" d="M34.315 174.646c.674-.004 1.626-.511 3.193-.51.316 0 .657.021 1.024.071a.075.075 0 1 0 .021-.149 7.909 7.909 0 0 0-1.045-.072c-1.595.001-2.59.515-3.194.51a.794.794 0 0 1-.24-.033c-.688-.205-1.48-1.563-2.854-1.912a2.558 2.558 0 0 0-.625-.074c-.865.002-1.673.372-2.503.37-.26 0-.52-.035-.79-.127-1.332-.445-1.55-1.598-3.526-2.113a3.06 3.06 0 0 0-.784-.098c-.718.001-1.334.217-1.945.216-.163 0-.326-.015-.49-.052-.473-.103-.627-.539-.947-1.052-.319-.508-.814-1.059-1.973-1.295a.075.075 0 0 0-.088.058c-.008.04.018.08.059.088 1.122.234 1.564.739 1.875 1.228.308.485.473.987 1.04 1.119.178.04.352.056.524.056.646-.002 1.258-.218 1.945-.217.238 0 .485.026.746.093 1.915.49 2.1 1.618 3.517 2.111.286.097.564.134.837.134.873-.002 1.68-.372 2.503-.37.195 0 .39.02.588.069 1.307.322 2.059 1.647 2.846 1.91.088.028.182.04.281.04l.005.001z"/><path fill="#fcd0a1" d="M41.33 139.036s1.149-1.625-.079-3.685-4.042-2.06-4.755-2.06-5.389-.555-8.044-1.387-7.41-2.814-8.163-3.21c-.753-.396-2.932-.436-2.972 3.645 0 0 7.014 4.121 9.867 4.716 2.853.594 7.608 2.06 8.717 2.179 1.11.119 3.646 1.03 5.429-.198z"/><path fill="#e8b986" d="M40.22 138.521s.952-3.249-3.644-3.447c-4.597-.198-8.757-1.149-10.858-1.902-2.1-.753-5.547-2.378-6.577-3.051-1.031-.674-1.744.753-1.823 2.219 0 0 10.976 4.834 12.957 5.19 2.399.433 9.035 1.585 9.946.991z"/><path fill="#b35138" d="M15.218 131.745c.872-.951 1.823-.674 2.298-.515.476.158.436.357 5.746 2.457 5.31 2.1 13.314 3.17 13.314 3.17.792.118.95.079 3.249.396 2.298.317 2.496 2.813.87 3.645-1.623.832-7.012 0-9.667-.277s-6.855-1.545-9.946-2.655c-3.09-1.109-5.706-3.605-5.864-3.764-.158-.159-.872-1.506 0-2.457z"/><path fill="#9b3924" d="M31.028 140.621c-2.655-.277-6.855-1.545-9.946-2.655-3.09-1.109-5.705-3.606-5.864-3.764-.15-.149-.79-1.351-.138-2.285.526.504 1.37 1.003 2.043 1.427.948.6 2.346.849 8.586 3.195 6.239 2.346 12.878 2.496 13.378 2.546.499.05.886.311.399.749-.408.367.43 1.017.995.959.2-.02.427-.094.639-.183a2.052 2.052 0 0 1-.424.288c-1.624.833-7.013.001-9.668-.277z"/><path fill="url(#c)" d="M20.29 128.694c.753.396 5.36 2.271 8.015 3.103 2.655.832 7.478 1.494 8.19 1.494.655 0 3.072.001 4.417 1.587-2.125-1.833-6.168-.335-12.757-1.883-3.952-.928-5.242-2.196-8.786-3.594-.58-.229-.943-.252-1.28-.128.72-1.01 1.733-.825 2.2-.579z"/><path fill="url(#d)" d="M39.974 141.114s-.527.361-2.448-.81c-2.058-1.255-4.398-1.427-6.023-1.744-1.625-.317-11.095-3.447-12.125-3.843-1.03-.397-3.897-1.923-4.398-2.1-1.229-.436-2.864-.274-2.02 2.021.712 1.941 2.06 3.764 7.131 6.657 5.072 2.892 13.23 3.558 16.92 2.377 1.981-.634 2.963-1.964 2.963-2.558z"/><path fill="#fcd0a1" d="M14.98 132.619c.502.178 3.369 1.704 4.398 2.1 1.032.396 10.502 3.527 12.127 3.844 1.624.317 3.964.488 6.021 1.743 1.921 1.172 2.448.81 2.448.81 0 .501-.7 1.523-2.104 2.212-.07-.423-.182-.749-.255-.847-.226-.299-1.574-.299-2.398-.674-.822-.374-4.566-1.048-5.84-1.273-1.272-.224-2.92-.299-3.518-.449-.6-.149-1.723-.674-2.247-.824-.523-.149-.3-.074-1.422-.299-1.123-.224-6.14-3.594-7.488-4.268-.931-.466-1.255-1.397-1.44-2.125.458-.229 1.133-.157 1.718.05z"/><path fill="#9b3924" d="M35.625 138.493a7.714 7.714 0 0 1 1.889-.246c.309 0 .642.02 1.002.068h-.001a.3.3 0 0 0 .082-.593 8.135 8.135 0 0 0-1.083-.074c-.827 0-1.498.133-2.032.264-.532.131-.937.25-1.18.246a.595.595 0 0 1-.173-.022c-.248-.068-.637-.437-1.096-.856-.465-.414-1.034-.872-1.79-1.06a2.812 2.812 0 0 0-.682-.082c-.937.009-1.748.379-2.517.37-.241 0-.477-.031-.721-.114-.621-.211-.973-.566-1.455-.986-.477-.416-1.08-.871-2.108-1.133a3.39 3.39 0 0 0-.845-.105c-.77.004-1.395.222-1.957.216-.15 0-.296-.013-.444-.046-.18-.044-.276-.123-.402-.286-.121-.162-.241-.401-.41-.667-.33-.537-.908-1.155-2.128-1.395a.301.301 0 0 0-.356.232.3.3 0 0 0 .235.354c.807.169 1.209.466 1.492.789.285.325.434.701.683 1.043.165.226.409.44.754.514.197.044.389.061.576.061.703-.005 1.313-.221 1.957-.217.223.001.45.024.694.086.927.241 1.404.608 1.863 1.004.454.393.894.843 1.656 1.102.314.106.62.146.916.146.944-.008 1.757-.378 2.517-.37.18 0 .357.019.537.063.594.147 1.087.527 1.533.926.45.394.82.813 1.316.981.117.036.237.05.356.05.4-.003.806-.14 1.322-.263z"/><path fill="#f6b21a" d="M35.63 138.381a7.624 7.624 0 0 1 1.877-.246c.308 0 .639.02.997.068a.3.3 0 0 0 .08-.593 8.024 8.024 0 0 0-1.077-.074c-.822 0-1.488.133-2.02.264-.53.131-.931.25-1.172.246a.58.58 0 0 1-.172-.022c-.248-.068-.635-.437-1.09-.856-.462-.414-1.028-.872-1.778-1.06a2.787 2.787 0 0 0-.68-.082c-.931.009-1.737.379-2.502.371a2.202 2.202 0 0 1-.718-.115c-.616-.211-.968-.565-1.447-.985-.473-.417-1.072-.871-2.095-1.133a3.353 3.353 0 0 0-.84-.105c-.765.004-1.386.221-1.945.216a1.99 1.99 0 0 1-.441-.046c-.18-.044-.276-.124-.4-.286-.12-.162-.24-.401-.407-.667-.329-.537-.904-1.155-2.117-1.395a.3.3 0 0 0-.121.586c.803.169 1.203.466 1.485.789.282.325.43.701.678 1.043.165.226.407.44.75.514.195.044.386.061.572.061.7-.005 1.306-.221 1.947-.216.22 0 .448.023.689.086.92.24 1.395.608 1.852 1.004.451.393.889.843 1.646 1.101.313.106.617.146.91.146.94-.008 1.747-.378 2.503-.37a2.2 2.2 0 0 1 .534.063c.59.147 1.08.527 1.525.926.447.394.816.813 1.309.981.115.036.234.05.352.05.398-.004.803-.141 1.316-.264m0 0z"/><path fill="#fbd702" d="M34.315 138.282c.674-.004 1.626-.511 3.193-.51.316 0 .657.021 1.024.071a.075.075 0 1 0 .021-.149 7.909 7.909 0 0 0-1.045-.072c-1.595.001-2.59.515-3.194.51a.794.794 0 0 1-.24-.033c-.688-.205-1.48-1.563-2.854-1.912a2.558 2.558 0 0 0-.625-.074c-.865.002-1.673.372-2.503.37-.26 0-.52-.035-.79-.127-1.332-.445-1.55-1.598-3.526-2.113a3.06 3.06 0 0 0-.784-.098c-.718.001-1.334.217-1.945.216-.163 0-.326-.015-.49-.052-.473-.103-.627-.539-.947-1.052-.319-.508-.814-1.059-1.973-1.295a.075.075 0 0 0-.088.058c-.008.04.018.08.059.088 1.122.234 1.564.739 1.875 1.228.308.485.473.987 1.04 1.119.178.04.352.056.524.056.646-.002 1.258-.218 1.945-.217.238 0 .485.026.746.093 1.915.49 2.1 1.618 3.517 2.111.286.097.564.134.837.134.873-.002 1.68-.372 2.503-.37.195 0 .39.02.588.069 1.307.322 2.059 1.647 2.846 1.91.088.028.182.04.281.04l.005.001z"/><path fill="#fcd0a1" d="M41.33 102.672s1.149-1.625-.079-3.685-4.042-2.06-4.755-2.06-5.389-.555-8.044-1.387-7.41-2.814-8.163-3.21-2.932-.436-2.972 3.645c0 0 7.014 4.121 9.867 4.716 2.853.594 7.608 2.06 8.717 2.179 1.11.119 3.646 1.03 5.429-.198z"/><path fill="#e8b986" d="M40.22 102.157s.952-3.249-3.644-3.447c-4.597-.198-8.757-1.149-10.858-1.902-2.1-.753-5.547-2.378-6.577-3.05-1.031-.675-1.744.752-1.823 2.218 0 0 10.976 4.834 12.957 5.19 2.399.433 9.035 1.585 9.946.991z"/><path fill="#b35138" d="M15.218 95.381c.872-.95 1.823-.674 2.298-.515.476.158.436.357 5.746 2.457 5.31 2.1 13.314 3.17 13.314 3.17.792.118.95.079 3.249.396 2.298.317 2.496 2.813.87 3.645-1.623.832-7.012 0-9.667-.277s-6.855-1.545-9.946-2.655c-3.09-1.109-5.706-3.605-5.864-3.764-.158-.159-.872-1.506 0-2.457z"/><path fill="#9b3924" d="M31.028 104.257c-2.655-.277-6.855-1.545-9.946-2.655-3.09-1.109-5.705-3.606-5.864-3.764-.15-.149-.79-1.35-.138-2.285.526.504 1.37 1.003 2.043 1.427.948.6 2.346.85 8.586 3.195 6.239 2.346 12.878 2.496 13.378 2.546.499.05.886.311.399.749-.408.367.43 1.017.995.959.2-.02.427-.094.639-.183a2.052 2.052 0 0 1-.424.288c-1.624.833-7.013.001-9.668-.277z"/><path fill="url(#e)" d="M20.29 92.33c.753.397 5.36 2.272 8.015 3.103s7.478 1.494 8.19 1.494c.655 0 3.072.001 4.417 1.587-2.125-1.832-6.168-.334-12.757-1.882-3.952-.928-5.242-2.197-8.786-3.595-.58-.229-.943-.252-1.28-.128.72-1.01 1.733-.825 2.2-.579z"/><path fill="url(#f)" d="M39.974 104.75s-.527.361-2.448-.81c-2.058-1.255-4.398-1.427-6.023-1.744-1.625-.317-11.095-3.447-12.125-3.843-1.03-.396-3.897-1.922-4.398-2.1-1.229-.436-2.864-.273-2.02 2.022.712 1.94 2.06 3.763 7.131 6.656 5.072 2.892 13.23 3.558 16.92 2.377 1.981-.634 2.963-1.964 2.963-2.558z"/><path fill="#fcd0a1" d="M14.98 96.255c.502.178 3.369 1.704 4.398 2.1 1.032.396 10.502 3.527 12.127 3.844 1.624.317 3.964.488 6.021 1.743 1.921 1.172 2.448.81 2.448.81 0 .501-.7 1.523-2.104 2.212-.07-.423-.182-.749-.255-.847-.226-.299-1.574-.299-2.398-.674-.822-.374-4.566-1.048-5.84-1.273-1.272-.224-2.92-.299-3.518-.449-.6-.149-1.723-.674-2.247-.824-.523-.149-.3-.074-1.422-.299-1.123-.224-6.14-3.594-7.488-4.268-.931-.466-1.255-1.397-1.44-2.125.458-.229 1.133-.157 1.718.05z"/><path fill="#9b3924" d="M35.625 102.13a7.714 7.714 0 0 1 1.889-.246c.309 0 .642.02 1.002.068h-.001a.3.3 0 0 0 .082-.593 8.135 8.135 0 0 0-1.083-.074c-.827 0-1.498.133-2.032.264-.532.131-.937.25-1.18.246a.595.595 0 0 1-.173-.022c-.248-.068-.637-.437-1.096-.856-.465-.414-1.034-.872-1.79-1.06a2.812 2.812 0 0 0-.682-.082c-.937.009-1.748.379-2.517.37-.241 0-.477-.031-.721-.114-.621-.211-.973-.566-1.455-.986-.477-.416-1.08-.871-2.108-1.133a3.39 3.39 0 0 0-.845-.105c-.77.004-1.395.222-1.957.216-.15 0-.296-.013-.444-.046-.18-.044-.276-.123-.402-.286-.121-.162-.241-.401-.41-.667-.33-.537-.908-1.155-2.128-1.395a.301.301 0 0 0-.356.232.3.3 0 0 0 .235.354c.807.169 1.209.466 1.492.789.285.325.434.7.683 1.043.165.226.409.44.754.514.197.044.389.06.576.06.703-.004 1.313-.22 1.957-.216.223 0 .45.024.694.086.927.24 1.404.608 1.863 1.004.454.393.894.843 1.656 1.102.314.106.62.146.916.146.944-.008 1.757-.378 2.517-.37.18 0 .357.019.537.063.594.147 1.087.527 1.533.926.45.394.82.813 1.316.981.117.036.237.05.356.05.4-.003.806-.14 1.322-.263z"/><path fill="#f6b21a" d="M35.63 102.017a7.624 7.624 0 0 1 1.877-.246c.308 0 .639.02.997.068a.3.3 0 0 0 .08-.593 8.024 8.024 0 0 0-1.077-.074c-.822 0-1.488.133-2.02.264-.53.131-.931.25-1.172.246a.58.58 0 0 1-.172-.022c-.248-.068-.635-.437-1.09-.856-.462-.414-1.028-.872-1.778-1.06a2.787 2.787 0 0 0-.68-.082c-.931.01-1.737.379-2.502.371a2.208 2.208 0 0 1-.718-.115c-.616-.21-.968-.565-1.447-.985-.473-.417-1.072-.87-2.095-1.133a3.353 3.353 0 0 0-.84-.105c-.765.004-1.386.221-1.945.216a1.99 1.99 0 0 1-.441-.046c-.18-.044-.276-.124-.4-.286-.12-.162-.24-.4-.407-.667-.329-.537-.904-1.155-2.117-1.395a.3.3 0 0 0-.121.586c.803.17 1.203.466 1.485.79.282.324.43.7.678 1.042.165.226.407.44.75.514.195.044.386.061.572.061.7-.005 1.306-.22 1.947-.216.22 0 .448.023.689.086.92.24 1.395.608 1.852 1.004.451.393.889.843 1.646 1.101.313.106.617.146.91.146.94-.008 1.747-.378 2.503-.37a2.2 2.2 0 0 1 .534.063c.59.147 1.08.527 1.525.926.447.394.816.813 1.309.981.115.036.234.05.352.05.398-.004.803-.141 1.316-.264m0 0z"/><path fill="#fbd702" d="M34.315 101.919c.674-.004 1.626-.511 3.193-.51.316 0 .657.021 1.024.071a.075.075 0 1 0 .021-.149 7.909 7.909 0 0 0-1.045-.072c-1.595.001-2.59.515-3.194.51a.794.794 0 0 1-.24-.033c-.688-.205-1.48-1.563-2.854-1.912a2.558 2.558 0 0 0-.625-.074c-.865.002-1.673.372-2.503.37-.26 0-.52-.035-.79-.127-1.332-.445-1.55-1.598-3.526-2.113a3.06 3.06 0 0 0-.784-.098c-.718 0-1.334.217-1.945.216-.163 0-.326-.015-.49-.052-.473-.103-.627-.54-.947-1.052-.319-.508-.814-1.06-1.973-1.295a.075.075 0 0 0-.088.058c-.008.04.018.08.059.088 1.122.234 1.564.739 1.875 1.228.308.485.473.987 1.04 1.119.178.04.352.056.524.056.646-.002 1.258-.218 1.945-.217.238 0 .485.026.746.093 1.915.49 2.1 1.618 3.517 2.111.286.097.564.134.837.134.873-.002 1.68-.372 2.503-.37.195 0 .39.02.588.069 1.307.322 2.059 1.647 2.846 1.91.088.028.182.04.281.04l.005.001z"/><path fill="#fcd0a1" d="M41.33 66.309s1.149-1.625-.079-3.685-4.042-2.06-4.755-2.06-5.389-.555-8.044-1.387-7.41-2.814-8.163-3.21-2.932-.436-2.972 3.645c0 0 7.014 4.12 9.867 4.716 2.853.594 7.608 2.06 8.717 2.179 1.11.119 3.646 1.03 5.429-.198z"/><path fill="#e8b986" d="M40.22 65.793s.952-3.249-3.644-3.447c-4.597-.197-8.757-1.148-10.858-1.901-2.1-.754-5.547-2.379-6.577-3.051-1.031-.675-1.744.753-1.823 2.218 0 0 10.976 4.834 12.957 5.19 2.399.433 9.035 1.585 9.946.991z"/><path fill="#b35138" d="M15.218 59.018c.872-.951 1.823-.674 2.298-.515.476.158.436.357 5.746 2.457 5.31 2.1 13.314 3.17 13.314 3.17.792.118.95.079 3.249.396 2.298.317 2.496 2.813.87 3.645-1.623.832-7.012 0-9.667-.277s-6.855-1.545-9.946-2.655c-3.09-1.11-5.706-3.605-5.864-3.764-.158-.16-.872-1.506 0-2.457z"/><path fill="#9b3924" d="M31.028 67.894c-2.655-.277-6.855-1.545-9.946-2.655-3.09-1.11-5.705-3.606-5.864-3.764-.15-.15-.79-1.351-.138-2.285.526.504 1.37 1.003 2.043 1.427.948.6 2.346.849 8.586 3.195 6.239 2.346 12.878 2.496 13.378 2.546.499.05.886.31.399.749-.408.367.43 1.017.995.959.2-.02.427-.094.639-.183a2.052 2.052 0 0 1-.424.288c-1.624.833-7.013 0-9.668-.277z"/><path fill="url(#g)" d="M20.29 55.967c.753.396 5.36 2.27 8.015 3.103s7.478 1.494 8.19 1.494c.655 0 3.072 0 4.417 1.587-2.125-1.833-6.168-.335-12.757-1.883-3.952-.928-5.242-2.196-8.786-3.594-.58-.23-.943-.252-1.28-.128.72-1.01 1.733-.825 2.2-.58z"/><path fill="url(#h)" d="M39.974 68.387s-.527.36-2.448-.81c-2.058-1.255-4.398-1.427-6.023-1.744-1.625-.317-11.095-3.447-12.125-3.843-1.03-.397-3.897-1.923-4.398-2.1-1.229-.436-2.864-.274-2.02 2.02.712 1.942 2.06 3.765 7.131 6.658 5.072 2.892 13.23 3.558 16.92 2.377 1.981-.634 2.963-1.964 2.963-2.558z"/><path fill="#fcd0a1" d="M14.98 59.892c.502.177 3.369 1.703 4.398 2.1 1.032.396 10.502 3.527 12.127 3.843 1.624.318 3.964.489 6.021 1.744 1.921 1.172 2.448.81 2.448.81 0 .5-.7 1.523-2.104 2.212-.07-.424-.182-.75-.255-.847-.226-.3-1.574-.3-2.398-.675-.822-.373-4.566-1.047-5.84-1.272-1.272-.225-2.92-.3-3.518-.45-.6-.148-1.723-.674-2.247-.823-.523-.15-.3-.075-1.422-.3-1.123-.224-6.14-3.593-7.488-4.267-.931-.466-1.255-1.398-1.44-2.125.458-.23 1.133-.157 1.718.05z"/><path fill="#9b3924" d="M35.625 65.766a7.714 7.714 0 0 1 1.889-.246c.309 0 .642.02 1.002.068h-.001a.3.3 0 0 0 .082-.593 8.135 8.135 0 0 0-1.083-.074c-.827 0-1.498.133-2.032.264-.532.131-.937.25-1.18.246a.595.595 0 0 1-.173-.022c-.248-.068-.637-.437-1.096-.856-.465-.414-1.034-.872-1.79-1.06a2.812 2.812 0 0 0-.682-.082c-.937.009-1.748.379-2.517.37-.241 0-.477-.031-.721-.114-.621-.211-.973-.566-1.455-.986-.477-.416-1.08-.871-2.108-1.133a3.39 3.39 0 0 0-.845-.105c-.77.004-1.395.222-1.957.216-.15 0-.296-.013-.444-.046-.18-.044-.276-.123-.402-.286-.121-.162-.241-.401-.41-.667-.33-.537-.908-1.155-2.128-1.395a.301.301 0 0 0-.356.232.3.3 0 0 0 .235.354c.807.169 1.209.466 1.492.789.285.325.434.701.683 1.043.165.226.409.44.754.514.197.044.389.061.576.061.703-.005 1.313-.221 1.957-.217.223.001.45.024.694.086.927.241 1.404.608 1.863 1.004.454.393.894.843 1.656 1.102.314.106.62.146.916.146.944-.008 1.757-.378 2.517-.37.18 0 .357.019.537.063.594.147 1.087.527 1.533.926.45.394.82.813 1.316.981.117.036.237.05.356.05.4-.003.806-.14 1.322-.263z"/><path fill="#f6b21a" d="M35.63 65.653a7.624 7.624 0 0 1 1.877-.246c.308 0 .639.02.997.069a.3.3 0 0 0 .08-.593 8.024 8.024 0 0 0-1.077-.075c-.822 0-1.488.133-2.02.264-.53.132-.931.25-1.172.246a.58.58 0 0 1-.172-.022c-.248-.068-.635-.437-1.09-.856-.462-.413-1.028-.871-1.778-1.06a2.787 2.787 0 0 0-.68-.082c-.931.01-1.737.38-2.502.371a2.202 2.202 0 0 1-.718-.114c-.616-.212-.968-.566-1.447-.986-.473-.416-1.072-.87-2.095-1.133a3.353 3.353 0 0 0-.84-.105c-.765.005-1.386.221-1.945.216a1.99 1.99 0 0 1-.441-.045c-.18-.044-.276-.125-.4-.287-.12-.162-.24-.4-.407-.667-.329-.537-.904-1.154-2.117-1.395a.3.3 0 0 0-.121.586c.803.17 1.203.467 1.485.79.282.324.43.7.678 1.042.165.227.407.44.75.515.195.044.386.06.572.06.7-.005 1.306-.22 1.947-.215.22 0 .448.023.689.086.92.24 1.395.607 1.852 1.003.451.393.889.843 1.646 1.101.313.107.617.147.91.147.94-.008 1.747-.379 2.503-.37a2.2 2.2 0 0 1 .534.063c.59.147 1.08.526 1.525.925.447.395.816.814 1.309.982.115.035.234.05.352.05.398-.005.803-.142 1.316-.265z"/><path fill="#fbd702" d="M34.315 65.555c.674-.004 1.626-.511 3.193-.51.316 0 .657.02 1.024.07a.075.075 0 1 0 .021-.149 7.909 7.909 0 0 0-1.045-.071c-1.595 0-2.59.515-3.194.51a.794.794 0 0 1-.24-.033c-.688-.205-1.48-1.563-2.854-1.912a2.558 2.558 0 0 0-.625-.074c-.865.002-1.673.372-2.503.37-.26 0-.52-.035-.79-.127-1.332-.445-1.55-1.598-3.526-2.113a3.06 3.06 0 0 0-.784-.098c-.718 0-1.334.217-1.945.216-.163 0-.326-.015-.49-.052-.473-.103-.627-.54-.947-1.052-.319-.508-.814-1.06-1.973-1.295a.075.075 0 0 0-.088.058c-.008.04.018.08.059.088 1.122.234 1.564.739 1.875 1.228.308.485.473.987 1.04 1.119.178.04.352.056.524.056.646-.002 1.258-.218 1.945-.217.238 0 .485.026.746.093 1.915.49 2.1 1.618 3.517 2.11.286.098.564.135.837.135.873-.002 1.68-.372 2.503-.37.195 0 .39.02.588.069 1.307.322 2.059 1.647 2.846 1.91.088.028.182.04.281.04h.005z"/><path fill="#fcd0a1" d="M41.33 29.945s1.149-1.625-.079-3.685-4.042-2.06-4.755-2.06-5.389-.555-8.044-1.387-7.41-2.814-8.163-3.21-2.932-.436-2.972 3.645c0 0 7.014 4.12 9.867 4.716 2.853.594 7.608 2.06 8.717 2.179 1.11.119 3.646 1.03 5.429-.198z"/><path fill="#e8b986" d="M40.22 29.43s.952-3.25-3.644-3.447c-4.597-.198-8.757-1.15-10.858-1.902-2.1-.753-5.547-2.378-6.577-3.051-1.031-.674-1.744.753-1.823 2.219 0 0 10.976 4.834 12.957 5.19 2.399.433 9.035 1.585 9.946.99z"/><path fill="#b35138" d="M15.218 22.654c.872-.95 1.823-.674 2.298-.515.476.158.436.357 5.746 2.457 5.31 2.1 13.314 3.17 13.314 3.17.792.118.95.08 3.249.396s2.496 2.813.87 3.645c-1.623.832-7.012 0-9.667-.277s-6.855-1.545-9.946-2.655c-3.09-1.109-5.706-3.605-5.864-3.764-.158-.159-.872-1.506 0-2.457z"/><path fill="#9b3924" d="M31.028 31.53c-2.655-.277-6.855-1.545-9.946-2.655-3.09-1.11-5.705-3.606-5.864-3.764-.15-.15-.79-1.351-.138-2.285.526.504 1.37 1.003 2.043 1.427.948.6 2.346.849 8.586 3.195 6.239 2.346 12.878 2.496 13.378 2.546.499.05.886.31.399.749-.408.367.43 1.017.995.959.2-.02.427-.094.639-.183a2.052 2.052 0 0 1-.424.288c-1.624.833-7.013 0-9.668-.277z"/><path fill="url(#i)" d="M20.29 19.603c.753.396 5.36 2.271 8.015 3.103s7.478 1.494 8.19 1.494c.655 0 3.072.001 4.417 1.587-2.125-1.833-6.168-.335-12.757-1.883-3.952-.928-5.242-2.196-8.786-3.594-.58-.229-.943-.252-1.28-.128.72-1.01 1.733-.825 2.2-.579z"/><path fill="url(#j)" d="M39.974 32.023s-.527.361-2.448-.81c-2.058-1.255-4.398-1.427-6.023-1.744-1.625-.317-11.095-3.447-12.125-3.843-1.03-.397-3.897-1.923-4.398-2.1-1.229-.436-2.864-.274-2.02 2.021.712 1.941 2.06 3.764 7.131 6.657 5.072 2.892 13.23 3.558 16.92 2.377 1.981-.634 2.963-1.964 2.963-2.558z"/><path fill="#fcd0a1" d="M14.98 23.528c.502.178 3.369 1.704 4.398 2.1 1.032.396 10.502 3.527 12.127 3.844 1.624.317 3.964.488 6.021 1.743 1.921 1.172 2.448.81 2.448.81 0 .5-.7 1.523-2.104 2.212-.07-.423-.182-.75-.255-.847-.226-.3-1.574-.3-2.398-.674-.822-.374-4.566-1.048-5.84-1.273-1.272-.224-2.92-.3-3.518-.45-.6-.148-1.723-.673-2.247-.823-.523-.15-.3-.074-1.422-.3-1.123-.223-6.14-3.593-7.488-4.267-.931-.466-1.255-1.397-1.44-2.125.458-.23 1.133-.157 1.718.05z"/><path fill="#9b3924" d="M35.625 29.402a7.714 7.714 0 0 1 1.889-.246c.309 0 .642.02 1.002.068h-.001a.3.3 0 0 0 .082-.593 8.135 8.135 0 0 0-1.083-.074c-.827 0-1.498.133-2.032.264-.532.131-.937.25-1.18.246a.595.595 0 0 1-.173-.022c-.248-.068-.637-.437-1.096-.856-.465-.414-1.034-.872-1.79-1.06a2.812 2.812 0 0 0-.682-.082c-.937.01-1.748.38-2.517.37-.241 0-.477-.03-.721-.114-.621-.21-.973-.566-1.455-.986-.477-.416-1.08-.87-2.108-1.133a3.39 3.39 0 0 0-.845-.105c-.77.004-1.395.222-1.957.216-.15 0-.296-.013-.444-.046-.18-.044-.276-.123-.402-.286-.121-.162-.241-.4-.41-.667-.33-.537-.908-1.155-2.128-1.395a.301.301 0 0 0-.356.232.3.3 0 0 0 .235.354c.807.17 1.209.466 1.492.79.285.324.434.7.683 1.042.165.226.409.44.754.514.197.044.389.061.576.061.703-.005 1.313-.22 1.957-.217.223.001.45.024.694.086.927.241 1.404.608 1.863 1.004.454.393.894.843 1.656 1.102.314.106.62.146.916.146.944-.008 1.757-.378 2.517-.37.18 0 .357.02.537.063.594.147 1.087.527 1.533.926.45.394.82.813 1.316.981.117.036.237.05.356.05.4-.003.806-.14 1.322-.263z"/><path fill="#f6b21a" d="M35.63 29.29a7.624 7.624 0 0 1 1.877-.246c.308 0 .639.02.997.068a.3.3 0 0 0 .08-.593 8.024 8.024 0 0 0-1.077-.074c-.822 0-1.488.133-2.02.264-.53.13-.931.25-1.172.246a.58.58 0 0 1-.172-.022c-.248-.068-.635-.437-1.09-.856-.462-.414-1.028-.872-1.778-1.06a2.787 2.787 0 0 0-.68-.082c-.931.009-1.737.379-2.502.37a2.202 2.202 0 0 1-.718-.114c-.616-.211-.968-.565-1.447-.985-.473-.417-1.072-.871-2.095-1.133a3.353 3.353 0 0 0-.84-.105c-.765.004-1.386.22-1.945.216a1.99 1.99 0 0 1-.441-.046c-.18-.044-.276-.124-.4-.286-.12-.162-.24-.401-.407-.667-.329-.537-.904-1.155-2.117-1.395a.3.3 0 0 0-.121.586c.803.169 1.203.466 1.485.789.282.325.43.7.678 1.043.165.226.407.44.75.514.195.044.386.06.572.06.7-.004 1.306-.22 1.947-.215.22 0 .448.023.689.086.92.24 1.395.608 1.852 1.004.451.393.889.843 1.646 1.1.313.107.617.147.91.147.94-.008 1.747-.378 2.503-.37a2.2 2.2 0 0 1 .534.063c.59.147 1.08.527 1.525.926.447.394.816.813 1.309.98.115.037.234.05.352.05.398-.003.803-.14 1.316-.263z"/><path fill="#fbd702" d="M34.315 29.191c.674-.004 1.626-.51 3.193-.51.316 0 .657.021 1.024.071a.075.075 0 1 0 .021-.149 7.909 7.909 0 0 0-1.045-.072c-1.595.001-2.59.515-3.194.51a.794.794 0 0 1-.24-.033c-.688-.205-1.48-1.563-2.854-1.912a2.558 2.558 0 0 0-.625-.074c-.865.002-1.673.372-2.503.37-.26 0-.52-.035-.79-.127-1.332-.445-1.55-1.598-3.526-2.113a3.06 3.06 0 0 0-.784-.098c-.718.001-1.334.217-1.945.216-.163 0-.326-.015-.49-.052-.473-.103-.627-.539-.947-1.052-.319-.508-.814-1.059-1.973-1.295a.075.075 0 0 0-.088.058c-.008.04.018.08.059.088 1.122.234 1.564.74 1.875 1.228.308.485.473.987 1.04 1.12.178.04.352.055.524.055.646-.002 1.258-.218 1.945-.217.238 0 .485.026.746.093 1.915.49 2.1 1.618 3.517 2.111.286.097.564.134.837.134.873-.002 1.68-.372 2.503-.37.195 0 .39.02.588.07 1.307.321 2.059 1.646 2.846 1.91.088.027.182.04.281.04h.005z"/><path fill="#fcd0a1" d="M77.694 175.399s1.149-1.625-.08-3.685-4.041-2.06-4.754-2.06-5.39-.555-8.044-1.387-7.41-2.814-8.163-3.21c-.753-.396-2.932-.436-2.972 3.645 0 0 7.014 4.121 9.867 4.716 2.853.594 7.608 2.06 8.717 2.179 1.11.119 3.646 1.03 5.429-.198z"/><path fill="#e8b986" d="M76.584 174.884s.951-3.249-3.645-3.447c-4.597-.198-8.757-1.149-10.858-1.902-2.1-.753-5.547-2.378-6.577-3.051-1.03-.674-1.744.753-1.823 2.219 0 0 10.976 4.834 12.957 5.19 2.4.433 9.035 1.585 9.946.991z"/><path fill="#b35138" d="M51.581 168.109c.872-.951 1.823-.674 2.298-.515.476.158.436.357 5.746 2.457 5.31 2.1 13.314 3.17 13.314 3.17.792.118.951.079 3.25.396 2.297.317 2.495 2.813.87 3.645-1.624.832-7.013 0-9.668-.277-2.655-.277-6.855-1.545-9.946-2.655-3.09-1.109-5.706-3.605-5.864-3.764-.158-.159-.872-1.506 0-2.457z"/><path fill="#9b3924" d="M67.391 176.984c-2.655-.277-6.855-1.545-9.946-2.655-3.09-1.109-5.705-3.606-5.864-3.764-.15-.149-.789-1.351-.138-2.285.526.504 1.371 1.003 2.043 1.427.948.6 2.346.849 8.586 3.195s12.878 2.496 13.378 2.546c.5.05.886.311.4.749-.409.367.43 1.017.994.959.201-.02.427-.094.64-.183a2.052 2.052 0 0 1-.425.288c-1.624.833-7.013.001-9.668-.277z"/><path fill="url(#k)" d="M56.653 165.058c.753.396 5.36 2.271 8.015 3.103 2.655.832 7.478 1.494 8.191 1.494.654 0 3.071.001 4.416 1.587-2.125-1.833-6.168-.335-12.757-1.883-3.952-.928-5.242-2.196-8.786-3.594-.58-.229-.943-.252-1.28-.128.72-1.01 1.733-.825 2.201-.579z"/><path fill="url(#l)" d="M76.338 177.478s-.527.361-2.448-.81c-2.058-1.255-4.398-1.427-6.023-1.744s-11.095-3.447-12.125-3.843c-1.03-.397-3.897-1.923-4.398-2.1-1.23-.436-2.864-.274-2.021 2.021.713 1.941 2.06 3.764 7.132 6.657 5.072 2.892 13.229 3.558 16.92 2.377 1.98-.634 2.963-1.964 2.963-2.558z"/><path fill="#fcd0a1" d="M51.344 168.982c.501.178 3.368 1.704 4.398 2.1 1.031.396 10.501 3.527 12.126 3.844 1.624.317 3.965.488 6.022 1.743 1.921 1.172 2.448.81 2.448.81 0 .501-.7 1.523-2.105 2.212-.07-.423-.182-.749-.255-.847-.225-.299-1.573-.299-2.397-.674-.823-.374-4.567-1.048-5.84-1.273-1.273-.224-2.92-.299-3.519-.449-.599-.149-1.722-.674-2.246-.824-.524-.149-.3-.074-1.423-.299-1.123-.224-6.139-3.594-7.487-4.268-.932-.466-1.255-1.397-1.44-2.125.458-.229 1.133-.157 1.718.05z"/><path fill="#9b3924" d="M71.988 174.857a7.714 7.714 0 0 1 1.89-.246c.308 0 .641.02 1.001.068a.3.3 0 0 0 .082-.593 8.135 8.135 0 0 0-1.084-.074c-.827 0-1.498.133-2.032.264-.532.131-.937.25-1.179.246a.595.595 0 0 1-.174-.022c-.248-.068-.637-.437-1.096-.856-.465-.414-1.034-.872-1.789-1.06a2.812 2.812 0 0 0-.683-.082c-.937.009-1.748.379-2.517.37-.24 0-.477-.031-.72-.114-.622-.211-.974-.566-1.456-.986-.477-.416-1.079-.871-2.108-1.133a3.39 3.39 0 0 0-.845-.105c-.77.004-1.395.222-1.957.216-.15 0-.296-.013-.444-.046-.179-.044-.276-.123-.402-.286-.12-.162-.24-.401-.409-.667-.33-.537-.909-1.155-2.129-1.395a.301.301 0 0 0-.356.232.3.3 0 0 0 .235.354c.807.169 1.21.466 1.492.789.285.325.434.701.683 1.043.165.226.41.44.754.514.197.044.39.061.576.061.703-.005 1.313-.221 1.957-.217.223.001.451.024.694.086.927.241 1.404.608 1.863 1.004.454.393.894.843 1.656 1.102.314.106.621.146.916.146.944-.008 1.757-.378 2.517-.37.18 0 .357.019.537.063.594.147 1.087.527 1.533.926.451.394.821.813 1.316.981.117.036.237.05.356.05.4-.003.806-.14 1.322-.263z"/><path fill="#f6b21a" d="M71.993 174.744a7.624 7.624 0 0 1 1.878-.246c.307 0 .638.02.996.068a.3.3 0 0 0 .08-.593 8.024 8.024 0 0 0-1.076-.074c-.822 0-1.489.133-2.02.264-.53.131-.932.25-1.173.246a.58.58 0 0 1-.172-.022c-.248-.068-.634-.437-1.09-.856-.462-.414-1.028-.872-1.778-1.06a2.787 2.787 0 0 0-.679-.082c-.932.009-1.738.379-2.503.371a2.202 2.202 0 0 1-.717-.115c-.617-.211-.968-.565-1.447-.985-.473-.417-1.072-.871-2.095-1.133a3.353 3.353 0 0 0-.84-.105c-.766.004-1.387.221-1.946.216a1.99 1.99 0 0 1-.44-.046c-.18-.044-.276-.124-.4-.286-.12-.162-.24-.401-.407-.667-.329-.537-.904-1.155-2.117-1.395a.3.3 0 0 0-.121.586c.803.169 1.202.466 1.484.789.283.325.431.701.68 1.043.163.226.406.44.748.514.196.044.387.061.572.061.7-.005 1.307-.221 1.947-.216.221 0 .448.023.69.086.92.24 1.395.608 1.851 1.004.452.393.89.843 1.647 1.101.312.106.617.146.91.146.94-.008 1.747-.378 2.503-.37a2.2 2.2 0 0 1 .533.063c.591.147 1.081.527 1.525.926.448.394.817.813 1.31.981.115.036.234.05.352.05.398-.004.802-.141 1.315-.264m0 0z"/><path fill="#fbd702" d="M70.678 174.646c.674-.004 1.626-.511 3.193-.51.316 0 .658.021 1.025.071a.075.075 0 1 0 .021-.149 7.909 7.909 0 0 0-1.046-.072c-1.594.001-2.589.515-3.193.51a.794.794 0 0 1-.24-.033c-.689-.205-1.48-1.563-2.855-1.912a2.558 2.558 0 0 0-.625-.074c-.865.002-1.673.372-2.503.37-.259 0-.52-.035-.789-.127-1.333-.445-1.55-1.598-3.526-2.113a3.06 3.06 0 0 0-.784-.098c-.718.001-1.334.217-1.946.216-.162 0-.325-.015-.49-.052-.473-.103-.627-.539-.947-1.052-.318-.508-.814-1.059-1.972-1.295a.075.075 0 0 0-.088.058c-.009.04.017.08.058.088 1.122.234 1.564.739 1.875 1.228.31.485.474.987 1.041 1.119.178.04.352.056.523.056.647-.002 1.26-.218 1.946-.217.238 0 .485.026.746.093 1.914.49 2.1 1.618 3.516 2.111.286.097.564.134.837.134.874-.002 1.681-.372 2.503-.37.195 0 .39.02.588.069 1.308.322 2.06 1.647 2.846 1.91.09.028.183.04.282.04l.004.001z"/><path fill="#fcd0a1" d="M77.694 139.036s1.149-1.625-.08-3.685-4.041-2.06-4.754-2.06-5.39-.555-8.044-1.387-7.41-2.814-8.163-3.21c-.753-.396-2.932-.436-2.972 3.645 0 0 7.014 4.121 9.867 4.716 2.853.594 7.608 2.06 8.717 2.179 1.11.119 3.646 1.03 5.429-.198z"/><path fill="#e8b986" d="M76.584 138.521s.951-3.249-3.645-3.447c-4.597-.198-8.757-1.149-10.858-1.902-2.1-.753-5.547-2.378-6.577-3.051-1.03-.674-1.744.753-1.823 2.219 0 0 10.976 4.834 12.957 5.19 2.4.433 9.035 1.585 9.946.991z"/><path fill="#b35138" d="M51.581 131.745c.872-.951 1.823-.674 2.298-.515.476.158.436.357 5.746 2.457 5.31 2.1 13.314 3.17 13.314 3.17.792.118.951.079 3.25.396 2.297.317 2.495 2.813.87 3.645-1.624.832-7.013 0-9.668-.277-2.655-.277-6.855-1.545-9.946-2.655-3.09-1.109-5.706-3.605-5.864-3.764-.158-.159-.872-1.506 0-2.457z"/><path fill="#9b3924" d="M67.391 140.621c-2.655-.277-6.855-1.545-9.946-2.655-3.09-1.109-5.705-3.606-5.864-3.764-.15-.149-.789-1.351-.138-2.285.526.504 1.371 1.003 2.043 1.427.948.6 2.346.849 8.586 3.195s12.878 2.496 13.378 2.546c.5.05.886.311.4.749-.409.367.43 1.017.994.959.201-.02.427-.094.64-.183a2.052 2.052 0 0 1-.425.288c-1.624.833-7.013.001-9.668-.277z"/><path fill="url(#m)" d="M56.653 128.694c.753.396 5.36 2.271 8.015 3.103 2.655.832 7.478 1.494 8.191 1.494.654 0 3.071.001 4.416 1.587-2.125-1.833-6.168-.335-12.757-1.883-3.952-.928-5.242-2.196-8.786-3.594-.58-.229-.943-.252-1.28-.128.72-1.01 1.733-.825 2.201-.579z"/><path fill="url(#n)" d="M76.338 141.114s-.527.361-2.448-.81c-2.058-1.255-4.398-1.427-6.023-1.744s-11.095-3.447-12.125-3.843c-1.03-.397-3.897-1.923-4.398-2.1-1.23-.436-2.864-.274-2.021 2.021.713 1.941 2.06 3.764 7.132 6.657 5.072 2.892 13.229 3.558 16.92 2.377 1.98-.634 2.963-1.964 2.963-2.558z"/><path fill="#fcd0a1" d="M51.344 132.619c.501.178 3.368 1.704 4.398 2.1 1.031.396 10.501 3.527 12.126 3.844 1.624.317 3.965.488 6.022 1.743 1.921 1.172 2.448.81 2.448.81 0 .501-.7 1.523-2.105 2.212-.07-.423-.182-.749-.255-.847-.225-.299-1.573-.299-2.397-.674-.823-.374-4.567-1.048-5.84-1.273-1.273-.224-2.92-.299-3.519-.449-.599-.149-1.722-.674-2.246-.824-.524-.149-.3-.074-1.423-.299-1.123-.224-6.139-3.594-7.487-4.268-.932-.466-1.255-1.397-1.44-2.125.458-.229 1.133-.157 1.718.05z"/><path fill="#9b3924" d="M71.988 138.493a7.714 7.714 0 0 1 1.89-.246c.308 0 .641.02 1.001.068a.3.3 0 0 0 .082-.593 8.135 8.135 0 0 0-1.084-.074c-.827 0-1.498.133-2.032.264-.532.131-.937.25-1.179.246a.595.595 0 0 1-.174-.022c-.248-.068-.637-.437-1.096-.856-.465-.414-1.034-.872-1.789-1.06a2.812 2.812 0 0 0-.683-.082c-.937.009-1.748.379-2.517.37-.24 0-.477-.031-.72-.114-.622-.211-.974-.566-1.456-.986-.477-.416-1.079-.871-2.108-1.133a3.39 3.39 0 0 0-.845-.105c-.77.004-1.395.222-1.957.216-.15 0-.296-.013-.444-.046-.179-.044-.276-.123-.402-.286-.12-.162-.24-.401-.409-.667-.33-.537-.909-1.155-2.129-1.395a.301.301 0 0 0-.356.232.3.3 0 0 0 .235.354c.807.169 1.21.466 1.492.789.285.325.434.701.683 1.043.165.226.41.44.754.514.197.044.39.061.576.061.703-.005 1.313-.221 1.957-.217.223.001.451.024.694.086.927.241 1.404.608 1.863 1.004.454.393.894.843 1.656 1.102.314.106.621.146.916.146.944-.008 1.757-.378 2.517-.37.18 0 .357.019.537.063.594.147 1.087.527 1.533.926.451.394.821.813 1.316.981.117.036.237.05.356.05.4-.003.806-.14 1.322-.263z"/><path fill="#f6b21a" d="M71.993 138.381a7.624 7.624 0 0 1 1.878-.246c.307 0 .638.02.996.068a.3.3 0 0 0 .08-.593 8.024 8.024 0 0 0-1.076-.074c-.822 0-1.489.133-2.02.264-.53.131-.932.25-1.173.246a.58.58 0 0 1-.172-.022c-.248-.068-.634-.437-1.09-.856-.462-.414-1.028-.872-1.778-1.06a2.787 2.787 0 0 0-.679-.082c-.932.009-1.738.379-2.503.371a2.202 2.202 0 0 1-.717-.115c-.617-.211-.968-.565-1.447-.985-.473-.417-1.072-.871-2.095-1.133a3.353 3.353 0 0 0-.84-.105c-.766.004-1.387.221-1.946.216a1.99 1.99 0 0 1-.44-.046c-.18-.044-.276-.124-.4-.286-.12-.162-.24-.401-.407-.667-.329-.537-.904-1.155-2.117-1.395a.3.3 0 0 0-.121.586c.803.169 1.202.466 1.484.789.283.325.431.701.68 1.043.163.226.406.44.748.514.196.044.387.061.572.061.7-.005 1.307-.221 1.947-.216.221 0 .448.023.69.086.92.24 1.395.608 1.851 1.004.452.393.89.843 1.647 1.101.312.106.617.146.91.146.94-.008 1.747-.378 2.503-.37a2.2 2.2 0 0 1 .533.063c.591.147 1.081.527 1.525.926.448.394.817.813 1.31.981.115.036.234.05.352.05.398-.004.802-.141 1.315-.264m0 0z"/><path fill="#fbd702" d="M70.678 138.282c.674-.004 1.626-.511 3.193-.51.316 0 .658.021 1.025.071a.075.075 0 1 0 .021-.149 7.909 7.909 0 0 0-1.046-.072c-1.594.001-2.589.515-3.193.51a.794.794 0 0 1-.24-.033c-.689-.205-1.48-1.563-2.855-1.912a2.558 2.558 0 0 0-.625-.074c-.865.002-1.673.372-2.503.37-.259 0-.52-.035-.789-.127-1.333-.445-1.55-1.598-3.526-2.113a3.06 3.06 0 0 0-.784-.098c-.718.001-1.334.217-1.946.216-.162 0-.325-.015-.49-.052-.473-.103-.627-.539-.947-1.052-.318-.508-.814-1.059-1.972-1.295a.075.075 0 0 0-.088.058c-.009.04.017.08.058.088 1.122.234 1.564.739 1.875 1.228.31.485.474.987 1.041 1.119.178.04.352.056.523.056.647-.002 1.26-.218 1.946-.217.238 0 .485.026.746.093 1.914.49 2.1 1.618 3.516 2.111.286.097.564.134.837.134.874-.002 1.681-.372 2.503-.37.195 0 .39.02.588.069 1.308.322 2.06 1.647 2.846 1.91.09.028.183.04.282.04l.004.001z"/><path fill="#fcd0a1" d="M77.694 102.672s1.149-1.625-.08-3.685-4.041-2.06-4.754-2.06-5.39-.555-8.044-1.387-7.41-2.814-8.163-3.21-2.932-.436-2.972 3.645c0 0 7.014 4.121 9.867 4.716 2.853.594 7.608 2.06 8.717 2.179 1.11.119 3.646 1.03 5.429-.198z"/><path fill="#e8b986" d="M76.584 102.157s.951-3.249-3.645-3.447c-4.597-.198-8.757-1.149-10.858-1.902-2.1-.753-5.547-2.378-6.577-3.05-1.03-.675-1.744.752-1.823 2.218 0 0 10.976 4.834 12.957 5.19 2.4.433 9.035 1.585 9.946.991z"/><path fill="#b35138" d="M51.581 95.381c.872-.95 1.823-.674 2.298-.515.476.158.436.357 5.746 2.457 5.31 2.1 13.314 3.17 13.314 3.17.792.118.951.079 3.25.396 2.297.317 2.495 2.813.87 3.645-1.624.832-7.013 0-9.668-.277-2.655-.277-6.855-1.545-9.946-2.655-3.09-1.109-5.706-3.605-5.864-3.764-.158-.159-.872-1.506 0-2.457z"/><path fill="#9b3924" d="M67.391 104.257c-2.655-.277-6.855-1.545-9.946-2.655-3.09-1.109-5.705-3.606-5.864-3.764-.15-.149-.789-1.35-.138-2.285.526.504 1.371 1.003 2.043 1.427.948.6 2.346.85 8.586 3.195 6.24 2.346 12.878 2.496 13.378 2.546.5.05.886.311.4.749-.409.367.43 1.017.994.959.201-.02.427-.094.64-.183a2.052 2.052 0 0 1-.425.288c-1.624.833-7.013.001-9.668-.277z"/><path fill="url(#o)" d="M56.653 92.33c.753.397 5.36 2.272 8.015 3.103s7.478 1.494 8.191 1.494c.654 0 3.071.001 4.416 1.587-2.125-1.832-6.168-.334-12.757-1.882-3.952-.928-5.242-2.197-8.786-3.595-.58-.229-.943-.252-1.28-.128.72-1.01 1.733-.825 2.201-.579z"/><path fill="url(#p)" d="M76.338 104.75s-.527.361-2.448-.81c-2.058-1.255-4.398-1.427-6.023-1.744s-11.095-3.447-12.125-3.843c-1.03-.396-3.897-1.922-4.398-2.1-1.23-.436-2.864-.273-2.021 2.022.713 1.94 2.06 3.763 7.132 6.656 5.072 2.892 13.229 3.558 16.92 2.377 1.98-.634 2.963-1.964 2.963-2.558z"/><path fill="#fcd0a1" d="M51.344 96.255c.501.178 3.368 1.704 4.398 2.1 1.031.396 10.501 3.527 12.126 3.844 1.624.317 3.965.488 6.022 1.743 1.921 1.172 2.448.81 2.448.81 0 .501-.7 1.523-2.105 2.212-.07-.423-.182-.749-.255-.847-.225-.299-1.573-.299-2.397-.674-.823-.374-4.567-1.048-5.84-1.273-1.273-.224-2.92-.299-3.519-.449-.599-.149-1.722-.674-2.246-.824-.524-.149-.3-.074-1.423-.299-1.123-.224-6.139-3.594-7.487-4.268-.932-.466-1.255-1.397-1.44-2.125.458-.229 1.133-.157 1.718.05z"/><path fill="#9b3924" d="M71.988 102.13a7.714 7.714 0 0 1 1.89-.246c.308 0 .641.02 1.001.068a.3.3 0 0 0 .082-.593 8.135 8.135 0 0 0-1.084-.074c-.827 0-1.498.133-2.032.264-.532.131-.937.25-1.179.246a.595.595 0 0 1-.174-.022c-.248-.068-.637-.437-1.096-.856-.465-.414-1.034-.872-1.789-1.06a2.812 2.812 0 0 0-.683-.082c-.937.009-1.748.379-2.517.37-.24 0-.477-.031-.72-.114-.622-.211-.974-.566-1.456-.986-.477-.416-1.079-.871-2.108-1.133a3.39 3.39 0 0 0-.845-.105c-.77.004-1.395.222-1.957.216-.15 0-.296-.013-.444-.046-.179-.044-.276-.123-.402-.286-.12-.162-.24-.401-.409-.667-.33-.537-.909-1.155-2.129-1.395a.301.301 0 0 0-.356.232.3.3 0 0 0 .235.354c.807.169 1.21.466 1.492.789.285.325.434.7.683 1.043.165.226.41.44.754.514.197.044.39.06.576.06.703-.004 1.313-.22 1.957-.216.223 0 .451.024.694.086.927.24 1.404.608 1.863 1.004.454.393.894.843 1.656 1.102.314.106.621.146.916.146.944-.008 1.757-.378 2.517-.37.18 0 .357.019.537.063.594.147 1.087.527 1.533.926.451.394.821.813 1.316.981.117.036.237.05.356.05.4-.003.806-.14 1.322-.263z"/><path fill="#f6b21a" d="M71.993 102.017a7.624 7.624 0 0 1 1.878-.246c.307 0 .638.02.996.068a.3.3 0 0 0 .08-.593 8.024 8.024 0 0 0-1.076-.074c-.822 0-1.489.133-2.02.264-.53.131-.932.25-1.173.246a.58.58 0 0 1-.172-.022c-.248-.068-.634-.437-1.09-.856-.462-.414-1.028-.872-1.778-1.06a2.787 2.787 0 0 0-.679-.082c-.932.01-1.738.379-2.503.371a2.208 2.208 0 0 1-.717-.115c-.617-.21-.968-.565-1.447-.985-.473-.417-1.072-.87-2.095-1.133a3.353 3.353 0 0 0-.84-.105c-.766.004-1.387.221-1.946.216a1.99 1.99 0 0 1-.44-.046c-.18-.044-.276-.124-.4-.286-.12-.162-.24-.4-.407-.667-.329-.537-.904-1.155-2.117-1.395a.3.3 0 0 0-.121.586c.803.17 1.202.466 1.484.79.283.324.431.7.68 1.042.163.226.406.44.748.514.196.044.387.061.572.061.7-.005 1.307-.22 1.947-.216.221 0 .448.023.69.086.92.24 1.395.608 1.851 1.004.452.393.89.843 1.647 1.101.312.106.617.146.91.146.94-.008 1.747-.378 2.503-.37a2.2 2.2 0 0 1 .533.063c.591.147 1.081.527 1.525.926.448.394.817.813 1.31.981.115.036.234.05.352.05.398-.004.802-.141 1.315-.264m0 0z"/><path fill="#fbd702" d="M70.678 101.919c.674-.004 1.626-.511 3.193-.51.316 0 .658.021 1.025.071a.075.075 0 1 0 .021-.149 7.909 7.909 0 0 0-1.046-.072c-1.594.001-2.589.515-3.193.51a.794.794 0 0 1-.24-.033c-.689-.205-1.48-1.563-2.855-1.912a2.558 2.558 0 0 0-.625-.074c-.865.002-1.673.372-2.503.37-.259 0-.52-.035-.789-.127-1.333-.445-1.55-1.598-3.526-2.113a3.06 3.06 0 0 0-.784-.098c-.718 0-1.334.217-1.946.216-.162 0-.325-.015-.49-.052-.473-.103-.627-.54-.947-1.052-.318-.508-.814-1.06-1.972-1.295a.075.075 0 0 0-.088.058c-.009.04.017.08.058.088 1.122.234 1.564.739 1.875 1.228.31.485.474.987 1.041 1.119.178.04.352.056.523.056.647-.002 1.26-.218 1.946-.217.238 0 .485.026.746.093 1.914.49 2.1 1.618 3.516 2.111.286.097.564.134.837.134.874-.002 1.681-.372 2.503-.37.195 0 .39.02.588.069 1.308.322 2.06 1.647 2.846 1.91.09.028.183.04.282.04l.004.001z"/><path fill="#fcd0a1" d="M77.694 66.309s1.149-1.625-.08-3.685-4.041-2.06-4.754-2.06-5.39-.555-8.044-1.387-7.41-2.814-8.163-3.21-2.932-.436-2.972 3.645c0 0 7.014 4.12 9.867 4.716 2.853.594 7.608 2.06 8.717 2.179 1.11.119 3.646 1.03 5.429-.198z"/><path fill="#e8b986" d="M76.584 65.793s.951-3.249-3.645-3.447c-4.597-.197-8.757-1.148-10.858-1.901-2.1-.754-5.547-2.379-6.577-3.051-1.03-.675-1.744.753-1.823 2.218 0 0 10.976 4.834 12.957 5.19 2.4.433 9.035 1.585 9.946.991z"/><path fill="#b35138" d="M51.581 59.018c.872-.951 1.823-.674 2.298-.515.476.158.436.357 5.746 2.457 5.31 2.1 13.314 3.17 13.314 3.17.792.118.951.079 3.25.396 2.297.317 2.495 2.813.87 3.645-1.624.832-7.013 0-9.668-.277-2.655-.277-6.855-1.545-9.946-2.655-3.09-1.11-5.706-3.605-5.864-3.764-.158-.16-.872-1.506 0-2.457z"/><path fill="#9b3924" d="M67.391 67.894c-2.655-.277-6.855-1.545-9.946-2.655-3.09-1.11-5.705-3.606-5.864-3.764-.15-.15-.789-1.351-.138-2.285.526.504 1.371 1.003 2.043 1.427.948.6 2.346.849 8.586 3.195s12.878 2.496 13.378 2.546c.5.05.886.31.4.749-.409.367.43 1.017.994.959.201-.02.427-.094.64-.183a2.052 2.052 0 0 1-.425.288c-1.624.833-7.013 0-9.668-.277z"/><path fill="url(#q)" d="M56.653 55.967c.753.396 5.36 2.27 8.015 3.103s7.478 1.494 8.191 1.494c.654 0 3.071 0 4.416 1.587-2.125-1.833-6.168-.335-12.757-1.883-3.952-.928-5.242-2.196-8.786-3.594-.58-.23-.943-.252-1.28-.128.72-1.01 1.733-.825 2.201-.58z"/><path fill="url(#r)" d="M76.338 68.387s-.527.36-2.448-.81c-2.058-1.255-4.398-1.427-6.023-1.744s-11.095-3.447-12.125-3.843c-1.03-.397-3.897-1.923-4.398-2.1-1.23-.436-2.864-.274-2.021 2.02.713 1.942 2.06 3.765 7.132 6.658 5.072 2.892 13.229 3.558 16.92 2.377 1.98-.634 2.963-1.964 2.963-2.558z"/><path fill="#fcd0a1" d="M51.344 59.892c.501.177 3.368 1.703 4.398 2.1 1.031.396 10.501 3.527 12.126 3.843 1.624.318 3.965.489 6.022 1.744 1.921 1.172 2.448.81 2.448.81 0 .5-.7 1.523-2.105 2.212-.07-.424-.182-.75-.255-.847-.225-.3-1.573-.3-2.397-.675-.823-.373-4.567-1.047-5.84-1.272-1.273-.225-2.92-.3-3.519-.45-.599-.148-1.722-.674-2.246-.823-.524-.15-.3-.075-1.423-.3-1.123-.224-6.139-3.593-7.487-4.267-.932-.466-1.255-1.398-1.44-2.125.458-.23 1.133-.157 1.718.05z"/><path fill="#9b3924" d="M71.988 65.766a7.714 7.714 0 0 1 1.89-.246c.308 0 .641.02 1.001.068a.3.3 0 0 0 .082-.593 8.135 8.135 0 0 0-1.084-.074c-.827 0-1.498.133-2.032.264-.532.131-.937.25-1.179.246a.595.595 0 0 1-.174-.022c-.248-.068-.637-.437-1.096-.856-.465-.414-1.034-.872-1.789-1.06a2.812 2.812 0 0 0-.683-.082c-.937.009-1.748.379-2.517.37-.24 0-.477-.031-.72-.114-.622-.211-.974-.566-1.456-.986-.477-.416-1.079-.871-2.108-1.133a3.39 3.39 0 0 0-.845-.105c-.77.004-1.395.222-1.957.216-.15 0-.296-.013-.444-.046-.179-.044-.276-.123-.402-.286-.12-.162-.24-.401-.409-.667-.33-.537-.909-1.155-2.129-1.395a.301.301 0 0 0-.356.232.3.3 0 0 0 .235.354c.807.169 1.21.466 1.492.789.285.325.434.701.683 1.043.165.226.41.44.754.514.197.044.39.061.576.061.703-.005 1.313-.221 1.957-.217.223.001.451.024.694.086.927.241 1.404.608 1.863 1.004.454.393.894.843 1.656 1.102.314.106.621.146.916.146.944-.008 1.757-.378 2.517-.37.18 0 .357.019.537.063.594.147 1.087.527 1.533.926.451.394.821.813 1.316.981.117.036.237.05.356.05.4-.003.806-.14 1.322-.263z"/><path fill="#f6b21a" d="M71.993 65.653a7.624 7.624 0 0 1 1.878-.246c.307 0 .638.02.996.069a.3.3 0 0 0 .08-.593 8.024 8.024 0 0 0-1.076-.075c-.822 0-1.489.133-2.02.264-.53.132-.932.25-1.173.246a.58.58 0 0 1-.172-.022c-.248-.068-.634-.437-1.09-.856-.462-.413-1.028-.871-1.778-1.06a2.787 2.787 0 0 0-.679-.082c-.932.01-1.738.38-2.503.371a2.202 2.202 0 0 1-.717-.114c-.617-.212-.968-.566-1.447-.986-.473-.416-1.072-.87-2.095-1.133a3.353 3.353 0 0 0-.84-.105c-.766.005-1.387.221-1.946.216a1.99 1.99 0 0 1-.44-.045c-.18-.044-.276-.125-.4-.287-.12-.162-.24-.4-.407-.667-.329-.537-.904-1.154-2.117-1.395a.3.3 0 0 0-.121.586c.803.17 1.202.467 1.484.79.283.324.431.7.68 1.042.163.227.406.44.748.515.196.044.387.06.572.06.7-.005 1.307-.22 1.947-.215.221 0 .448.023.69.086.92.24 1.395.607 1.851 1.003.452.393.89.843 1.647 1.101.312.107.617.147.91.147.94-.008 1.747-.379 2.503-.37a2.2 2.2 0 0 1 .533.063c.591.147 1.081.526 1.525.925.448.395.817.814 1.31.982.115.035.234.05.352.05.398-.005.802-.142 1.315-.265z"/><path fill="#fbd702" d="M70.678 65.555c.674-.004 1.626-.511 3.193-.51.316 0 .658.02 1.025.07a.075.075 0 1 0 .021-.149 7.909 7.909 0 0 0-1.046-.071c-1.594 0-2.589.515-3.193.51a.794.794 0 0 1-.24-.033c-.689-.205-1.48-1.563-2.855-1.912a2.558 2.558 0 0 0-.625-.074c-.865.002-1.673.372-2.503.37-.259 0-.52-.035-.789-.127-1.333-.445-1.55-1.598-3.526-2.113a3.06 3.06 0 0 0-.784-.098c-.718 0-1.334.217-1.946.216-.162 0-.325-.015-.49-.052-.473-.103-.627-.54-.947-1.052-.318-.508-.814-1.06-1.972-1.295a.075.075 0 0 0-.088.058c-.009.04.017.08.058.088 1.122.234 1.564.739 1.875 1.228.31.485.474.987 1.041 1.119.178.04.352.056.523.056.647-.002 1.26-.218 1.946-.217.238 0 .485.026.746.093 1.914.49 2.1 1.618 3.516 2.11.286.098.564.135.837.135.874-.002 1.681-.372 2.503-.37.195 0 .39.02.588.069 1.308.322 2.06 1.647 2.846 1.91.09.028.183.04.282.04h.004z"/><path fill="#fcd0a1" d="M77.694 29.945s1.149-1.625-.08-3.685-4.041-2.06-4.754-2.06-5.39-.555-8.044-1.387-7.41-2.814-8.163-3.21-2.932-.436-2.972 3.645c0 0 7.014 4.12 9.867 4.716 2.853.594 7.608 2.06 8.717 2.179 1.11.119 3.646 1.03 5.429-.198z"/><path fill="#e8b986" d="M76.584 29.43s.951-3.25-3.645-3.447c-4.597-.198-8.757-1.15-10.858-1.902-2.1-.753-5.547-2.378-6.577-3.051-1.03-.674-1.744.753-1.823 2.219 0 0 10.976 4.834 12.957 5.19 2.4.433 9.035 1.585 9.946.99z"/><path fill="#b35138" d="M51.581 22.654c.872-.95 1.823-.674 2.298-.515.476.158.436.357 5.746 2.457 5.31 2.1 13.314 3.17 13.314 3.17.792.118.951.08 3.25.396s2.495 2.813.87 3.645c-1.624.832-7.013 0-9.668-.277-2.655-.277-6.855-1.545-9.946-2.655-3.09-1.109-5.706-3.605-5.864-3.764-.158-.159-.872-1.506 0-2.457z"/><path fill="#9b3924" d="M67.391 31.53c-2.655-.277-6.855-1.545-9.946-2.655-3.09-1.11-5.705-3.606-5.864-3.764-.15-.15-.789-1.351-.138-2.285.526.504 1.371 1.003 2.043 1.427.948.6 2.346.849 8.586 3.195s12.878 2.496 13.378 2.546c.5.05.886.31.4.749-.409.367.43 1.017.994.959.201-.02.427-.094.64-.183a2.052 2.052 0 0 1-.425.288c-1.624.833-7.013 0-9.668-.277z"/><path fill="url(#s)" d="M56.653 19.603c.753.396 5.36 2.271 8.015 3.103S72.146 24.2 72.86 24.2c.654 0 3.071.001 4.416 1.587-2.125-1.833-6.168-.335-12.757-1.883-3.952-.928-5.242-2.196-8.786-3.594-.58-.229-.943-.252-1.28-.128.72-1.01 1.733-.825 2.201-.579z"/><path fill="url(#t)" d="M76.338 32.023s-.527.361-2.448-.81c-2.058-1.255-4.398-1.427-6.023-1.744s-11.095-3.447-12.125-3.843c-1.03-.397-3.897-1.923-4.398-2.1-1.23-.436-2.864-.274-2.021 2.021.713 1.941 2.06 3.764 7.132 6.657 5.072 2.892 13.229 3.558 16.92 2.377 1.98-.634 2.963-1.964 2.963-2.558z"/><path fill="#fcd0a1" d="M51.344 23.528c.501.178 3.368 1.704 4.398 2.1 1.031.396 10.501 3.527 12.126 3.844 1.624.317 3.965.488 6.022 1.743 1.921 1.172 2.448.81 2.448.81 0 .5-.7 1.523-2.105 2.212-.07-.423-.182-.75-.255-.847-.225-.3-1.573-.3-2.397-.674-.823-.374-4.567-1.048-5.84-1.273-1.273-.224-2.92-.3-3.519-.45-.599-.148-1.722-.673-2.246-.823-.524-.15-.3-.074-1.423-.3-1.123-.223-6.139-3.593-7.487-4.267-.932-.466-1.255-1.397-1.44-2.125.458-.23 1.133-.157 1.718.05z"/><path fill="#9b3924" d="M71.988 29.402a7.714 7.714 0 0 1 1.89-.246c.308 0 .641.02 1.001.068a.3.3 0 0 0 .082-.593 8.135 8.135 0 0 0-1.084-.074c-.827 0-1.498.133-2.032.264-.532.131-.937.25-1.179.246a.595.595 0 0 1-.174-.022c-.248-.068-.637-.437-1.096-.856-.465-.414-1.034-.872-1.789-1.06a2.812 2.812 0 0 0-.683-.082c-.937.01-1.748.38-2.517.37-.24 0-.477-.03-.72-.114-.622-.21-.974-.566-1.456-.986-.477-.416-1.079-.87-2.108-1.133a3.39 3.39 0 0 0-.845-.105c-.77.004-1.395.222-1.957.216-.15 0-.296-.013-.444-.046-.179-.044-.276-.123-.402-.286-.12-.162-.24-.4-.409-.667-.33-.537-.909-1.155-2.129-1.395a.301.301 0 0 0-.356.232.3.3 0 0 0 .235.354c.807.17 1.21.466 1.492.79.285.324.434.7.683 1.042.165.226.41.44.754.514.197.044.39.061.576.061.703-.005 1.313-.22 1.957-.217.223.001.451.024.694.086.927.241 1.404.608 1.863 1.004.454.393.894.843 1.656 1.102.314.106.621.146.916.146.944-.008 1.757-.378 2.517-.37.18 0 .357.02.537.063.594.147 1.087.527 1.533.926.451.394.821.813 1.316.981.117.036.237.05.356.05.4-.003.806-.14 1.322-.263z"/><path fill="#f6b21a" d="M71.993 29.29a7.624 7.624 0 0 1 1.878-.246c.307 0 .638.02.996.068a.3.3 0 0 0 .08-.593 8.024 8.024 0 0 0-1.076-.074c-.822 0-1.489.133-2.02.264-.53.13-.932.25-1.173.246a.58.58 0 0 1-.172-.022c-.248-.068-.634-.437-1.09-.856-.462-.414-1.028-.872-1.778-1.06a2.787 2.787 0 0 0-.679-.082c-.932.009-1.738.379-2.503.37a2.202 2.202 0 0 1-.717-.114c-.617-.211-.968-.565-1.447-.985-.473-.417-1.072-.871-2.095-1.133a3.353 3.353 0 0 0-.84-.105c-.766.004-1.387.22-1.946.216a1.99 1.99 0 0 1-.44-.046c-.18-.044-.276-.124-.4-.286-.12-.162-.24-.401-.407-.667-.329-.537-.904-1.155-2.117-1.395a.3.3 0 0 0-.121.586c.803.169 1.202.466 1.484.789.283.325.431.7.68 1.043.163.226.406.44.748.514.196.044.387.06.572.06.7-.004 1.307-.22 1.947-.215.221 0 .448.023.69.086.92.24 1.395.608 1.851 1.004.452.393.89.843 1.647 1.1.312.107.617.147.91.147.94-.008 1.747-.378 2.503-.37a2.2 2.2 0 0 1 .533.063c.591.147 1.081.527 1.525.926.448.394.817.813 1.31.98.115.037.234.05.352.05.398-.003.802-.14 1.315-.263z"/><path fill="#fbd702" d="M70.678 29.191c.674-.004 1.626-.51 3.193-.51.316 0 .658.021 1.025.071a.075.075 0 1 0 .021-.149 7.909 7.909 0 0 0-1.046-.072c-1.594.001-2.589.515-3.193.51a.794.794 0 0 1-.24-.033c-.689-.205-1.48-1.563-2.855-1.912a2.558 2.558 0 0 0-.625-.074c-.865.002-1.673.372-2.503.37-.259 0-.52-.035-.789-.127-1.333-.445-1.55-1.598-3.526-2.113a3.06 3.06 0 0 0-.784-.098c-.718.001-1.334.217-1.946.216-.162 0-.325-.015-.49-.052-.473-.103-.627-.539-.947-1.052-.318-.508-.814-1.059-1.972-1.295a.075.075 0 0 0-.088.058c-.009.04.017.08.058.088 1.122.234 1.564.74 1.875 1.228.31.485.474.987 1.041 1.12.178.04.352.055.523.055.647-.002 1.26-.218 1.946-.217.238 0 .485.026.746.093 1.914.49 2.1 1.618 3.516 2.111.286.097.564.134.837.134.874-.002 1.681-.372 2.503-.37.195 0 .39.02.588.07 1.308.321 2.06 1.646 2.846 1.91.09.027.183.04.282.04h.004z"/></svg>
