<svg xmlns="http://www.w3.org/2000/svg" width="53.945" height="140" viewBox="0 0 53.94495412844037 140"><path fill="#ccfaff" stroke="#0c7f99" d="M5.138 124.587v12.844h12.844l6.422-6.422v-12.844H11.56z" stroke-width="2"/><path fill="#ccfaff" stroke="#0c7f99" d="M5.138 124.587h12.844v12.844M17.982 124.587l6.422-6.422M5.138 111.743v12.844h12.844l6.422-6.422v-12.844H11.56z" stroke-width="2"/><path fill="#ccfaff" stroke="#0c7f99" d="M5.138 111.743h12.844v12.844M17.982 111.743l6.422-6.422" stroke-width="2"/><path fill="#ccfaff" stroke="#0c7f99" d="M5.138 98.9v12.843h12.844l6.422-6.422V92.477H11.56z" stroke-width="2"/><path fill="#ccfaff" stroke="#0c7f99" d="M5.138 98.9h12.844v12.843M17.982 98.9l6.422-6.423M5.138 86.055v12.844h12.844l6.422-6.422V79.633H11.56z" stroke-width="2"/><path fill="#ccfaff" stroke="#0c7f99" d="M5.138 86.055h12.844v12.844M17.982 86.055l6.422-6.422M5.138 73.211v12.844h12.844l6.422-6.422V66.789H11.56z" stroke-width="2"/><path fill="#ccfaff" stroke="#0c7f99" d="M5.138 73.211h12.844v12.844M17.982 73.211l6.422-6.422" stroke-width="2"/><path fill="#ccfaff" stroke="#0c7f99" d="M5.138 60.367v12.844h12.844l6.422-6.422V53.945H11.56z" stroke-width="2"/><path fill="#ccfaff" stroke="#0c7f99" d="M5.138 60.367h12.844v12.844M17.982 60.367l6.422-6.422" stroke-width="2"/><path fill="#ffbde0" stroke="#9e034e" d="M5.138 47.523v12.844h12.844l6.422-6.422V41.101H11.56z" stroke-width="2"/><path fill="#ffbde0" stroke="#9e034e" d="M5.138 47.523h12.844v12.844M17.982 47.523l6.422-6.422" stroke-width="2"/><path fill="#ffbde0" stroke="#9e034e" d="M5.138 34.679v12.844h12.844l6.422-6.422V28.257H11.56z" stroke-width="2"/><path fill="#ffbde0" stroke="#9e034e" d="M5.138 34.679h12.844v12.844M17.982 34.679l6.422-6.422" stroke-width="2"/><path fill="#ffbde0" stroke="#9e034e" d="M5.138 21.835v12.844h12.844l6.422-6.422V15.413H11.56z" stroke-width="2"/><path fill="#ffbde0" stroke="#9e034e" d="M5.138 21.835h12.844v12.844M17.982 21.835l6.422-6.422" stroke-width="2"/><path fill="#ffbde0" stroke="#9e034e" d="M5.138 8.99v12.845h12.844l6.422-6.422V2.569H11.56z" stroke-width="2"/><path fill="#ffbde0" stroke="#9e034e" d="M5.138 8.99h12.844v12.845M17.982 8.99l6.422-6.421" stroke-width="2"/><path fill="#ffbde0" stroke="#000" d="M3.853 46.239L19.266 61.65M3.853 61.651l15.413-15.413M3.853 33.395l15.413 15.412M3.853 48.807l15.413-15.413M3.853 20.55l15.413 15.413M3.853 35.963L19.266 20.55M3.853 7.706L19.266 23.12M3.853 23.12L19.266 7.705" stroke-width="2"/><path fill="#ffbde0" stroke="#9e034e" d="M30.826 124.587v12.844H43.67l6.422-6.422v-12.844H37.248z" stroke-width="2"/><path fill="#ffbde0" stroke="#9e034e" d="M30.826 124.587H43.67v12.844M43.67 124.587l6.422-6.422" stroke-width="2"/><path fill="#ffbde0" stroke="#000" d="M29.541 123.303l15.413 15.413M29.541 138.716l15.413-15.413" stroke-width="2"/></svg>
