<svg xmlns="http://www.w3.org/2000/svg" width="204.545" height="250" viewBox="0 0 204.54545454545453 250"><path fill="#4d677a" d="M41.853 214.511s1.341-.968 1.601-.819c.26.148.037 1.116.037 1.116l-1.638-.297z"/><path fill="#bdcccc" d="M43.304 220.581s.678.169 1.1-.17c.424-.338.086-1.144.086-1.144l-1.186 1.314z"/><path fill="#4d677a" d="M26.997 225.197s-1.694 1.101-2.245 2.245c0 0 3.346-1.822 5.125-1.864 0 0-1.906-.381-2.88-.381zM31.697 212.804s3.116-3.603 5.793-3.068c0 0-2.218 2.324-1.862 4.084.012.059.027.118.045.176.552 1.777-3.976-1.192-3.976-1.192z"/><path fill="#7a3440" d="M25.077 219.954s-2.809 3.765-1.955 4.678c1.337-.054 3.752-.997 3.752-.997l1.855-1.649-3.652-2.032z"/><path fill="#4d677a" d="M47.484 214.157c-.13-1.566.413-3.626.823-5.272l-.787-.366 1.063-.584a11.9 11.9 0 0 1 1.912-3.559s-2.56 1.128-4.553 3.175c-1.852 1.898-1.013 6.862-1.013 6.862s-7.756.091-14.234-2.555c-7.864-3.212-15.007-7.008-14.78-3.741.181 2.647 3.376 9.124 4.835 10.129 1.46 1.002 6.17 2.361 6.023 2.92-.457 1.733-4.107 3.01-3.65 3.466.456.456 14.233 5.566 22.628-6.752 0 0 3.355 4.192 6.522 4.152-3.364-3.324-3.958-4.867-4.789-7.875z"/><path fill="#fffdfd" d="M26.02 220.454s-.059.795.029.884.501-.559.501-.559l-.53-.325zM25.163 219.951s-.058.795.03.884c.087.088.5-.56.5-.56l-.53-.324zM24.44 223.845s-.585-.541-.71-.527c-.124.014.126.741.126.741l.584-.214z"/><path fill="#bdcccc" d="M46.754 215.051s-2.834 6.117-11.081 5.886c-8.171-.229-15.288-8.532-17.112-10.722-1.251-1.5-2.105-2.391-2.633-2.459a1.69 1.69 0 0 0-.013.361c.182 2.646 3.375 9.124 4.836 10.128 1.459 1.003 6.169 2.361 6.022 2.92-.457 1.733-4.106 3.011-3.651 3.467.454.453 14.376 5.625 22.628-6.752.601-1.467 1.004-2.829 1.004-2.829z"/><path fill="#688da7" d="M29.935 213.911s.606 1.487-.625 3.257c0 0 .659-1.671.625-3.257zM30.569 214.401s.605 1.486-.625 3.257c0 0 .658-1.671.625-3.257zM31.082 214.878s.607 1.485-.625 3.257c0 0 .66-1.672.625-3.257z"/><path fill="#304454" d="M33.596 222.98c-.243-1.607-.925-1.607-1.071-2.873 0 0 .047-.088.096-.195 0 0 3.7 2.63 4.918 2.97 0 0 .154 3.08 2.922 3.895-.024.069-.024.133-.024.209 0 .001-6.227.047-6.841-4.006z"/><path fill="#4d677a" d="M33.693 222.784c-.243-1.606-.925-1.606-1.071-2.872 0 0 1.509.681 2.58.585 0 0 1.217 1.85 2.435 2.191 0 0 .292 2.92 2.823 4.089 0 0-6.153.06-6.767-3.993z"/><ellipse cx="27.034" cy="214.48" rx=".484" ry=".804" fill="#304454"/><path fill="#4d677a" d="M41.853 169.056s1.341-.968 1.601-.819c.26.148.037 1.116.037 1.116l-1.638-.297z"/><path fill="#bdcccc" d="M43.304 175.126s.678.169 1.1-.17c.424-.338.086-1.144.086-1.144l-1.186 1.314z"/><path fill="#4d677a" d="M26.997 179.743s-1.694 1.101-2.245 2.245c0 0 3.346-1.822 5.125-1.864 0 0-1.906-.381-2.88-.381zM31.697 167.349s3.116-3.603 5.793-3.068c0 0-2.218 2.324-1.862 4.084.012.059.027.118.045.176.552 1.777-3.976-1.192-3.976-1.192z"/><path fill="#7a3440" d="M25.077 174.499s-2.809 3.765-1.955 4.678c1.337-.054 3.752-.997 3.752-.997l1.855-1.649-3.652-2.032z"/><path fill="#4d677a" d="M47.484 168.703c-.13-1.566.413-3.626.823-5.272l-.787-.366 1.063-.584a11.9 11.9 0 0 1 1.912-3.559s-2.56 1.128-4.553 3.175c-1.852 1.898-1.013 6.862-1.013 6.862s-7.756.091-14.234-2.555c-7.864-3.212-15.007-7.008-14.78-3.741.181 2.647 3.376 9.124 4.835 10.129 1.46 1.002 6.17 2.361 6.023 2.92-.457 1.733-4.107 3.01-3.65 3.466.456.456 14.233 5.566 22.628-6.752 0 0 3.355 4.192 6.522 4.152-3.364-3.324-3.958-4.867-4.789-7.875z"/><path fill="#fffdfd" d="M26.02 175s-.059.795.029.884.501-.559.501-.559l-.53-.325zM25.163 174.497s-.058.795.03.884c.087.088.5-.56.5-.56l-.53-.324zM24.44 178.391s-.585-.541-.71-.527c-.124.014.126.741.126.741l.584-.214z"/><path fill="#bdcccc" d="M46.754 169.597s-2.834 6.117-11.081 5.886c-8.171-.229-15.288-8.532-17.112-10.722-1.251-1.5-2.105-2.391-2.633-2.459a1.69 1.69 0 0 0-.013.361c.182 2.646 3.375 9.124 4.836 10.128 1.459 1.003 6.169 2.361 6.022 2.92-.457 1.733-4.106 3.011-3.651 3.467.454.453 14.376 5.625 22.628-6.752a33.47 33.47 0 0 0 1.004-2.829z"/><path fill="#688da7" d="M29.935 168.456s.606 1.487-.625 3.257c0 0 .659-1.671.625-3.257zM30.569 168.947s.605 1.486-.625 3.257c0 0 .658-1.671.625-3.257zM31.082 169.423s.607 1.485-.625 3.257c0 0 .66-1.672.625-3.257z"/><path fill="#304454" d="M33.596 177.525c-.243-1.607-.925-1.607-1.071-2.873 0 0 .047-.088.096-.195 0 0 3.7 2.63 4.918 2.97 0 0 .154 3.08 2.922 3.895-.024.069-.024.133-.024.209 0 .001-6.227.047-6.841-4.006z"/><path fill="#4d677a" d="M33.693 177.33c-.243-1.606-.925-1.606-1.071-2.872 0 0 1.509.681 2.58.585 0 0 1.217 1.85 2.435 2.191 0 0 .292 2.92 2.823 4.089 0 0-6.153.06-6.767-3.993z"/><ellipse cx="27.034" cy="169.026" rx=".484" ry=".804" fill="#304454"/><path fill="#4d677a" d="M41.853 123.602s1.341-.968 1.601-.819c.26.148.037 1.116.037 1.116l-1.638-.297z"/><path fill="#bdcccc" d="M43.304 129.672s.678.169 1.1-.17c.424-.338.086-1.144.086-1.144l-1.186 1.314z"/><path fill="#4d677a" d="M26.997 134.288s-1.694 1.101-2.245 2.245c0 0 3.346-1.822 5.125-1.864 0 0-1.906-.381-2.88-.381zM31.697 121.895s3.116-3.603 5.793-3.068c0 0-2.218 2.324-1.862 4.084.012.059.027.118.045.176.552 1.777-3.976-1.192-3.976-1.192z"/><path fill="#7a3440" d="M25.077 129.045s-2.809 3.765-1.955 4.678c1.337-.054 3.752-.997 3.752-.997l1.855-1.649-3.652-2.032z"/><path fill="#4d677a" d="M47.484 123.248c-.13-1.566.413-3.626.823-5.272l-.787-.366 1.063-.584a11.9 11.9 0 0 1 1.912-3.559s-2.56 1.128-4.553 3.175c-1.852 1.898-1.013 6.862-1.013 6.862s-7.756.091-14.234-2.555c-7.864-3.212-15.007-7.008-14.78-3.741.181 2.647 3.376 9.124 4.835 10.129 1.46 1.002 6.17 2.361 6.023 2.92-.457 1.733-4.107 3.01-3.65 3.466.456.456 14.233 5.566 22.628-6.752 0 0 3.355 4.192 6.522 4.152-3.364-3.324-3.958-4.867-4.789-7.875z"/><path fill="#fffdfd" d="M26.02 129.545s-.059.795.029.884.501-.559.501-.559l-.53-.325zM25.163 129.042s-.058.795.03.884c.087.088.5-.56.5-.56l-.53-.324zM24.44 132.936s-.585-.541-.71-.527c-.124.014.126.741.126.741l.584-.214z"/><path fill="#bdcccc" d="M46.754 124.142s-2.834 6.117-11.081 5.886c-8.171-.229-15.288-8.532-17.112-10.722-1.251-1.5-2.105-2.391-2.633-2.459a1.69 1.69 0 0 0-.013.361c.182 2.646 3.375 9.124 4.836 10.128 1.459 1.003 6.169 2.361 6.022 2.92-.457 1.733-4.106 3.011-3.651 3.467.454.453 14.376 5.625 22.628-6.752.601-1.467 1.004-2.829 1.004-2.829z"/><path fill="#688da7" d="M29.935 123.002s.606 1.487-.625 3.257c0 0 .659-1.671.625-3.257zM30.569 123.492s.605 1.486-.625 3.257c0 0 .658-1.671.625-3.257zM31.082 123.968s.607 1.485-.625 3.257c0 0 .66-1.672.625-3.257z"/><path fill="#304454" d="M33.596 132.071c-.243-1.607-.925-1.607-1.071-2.873 0 0 .047-.088.096-.195 0 0 3.7 2.63 4.918 2.97 0 0 .154 3.08 2.922 3.895-.024.069-.024.133-.024.209 0 .001-6.227.047-6.841-4.006z"/><path fill="#4d677a" d="M33.693 131.875c-.243-1.606-.925-1.606-1.071-2.872 0 0 1.509.681 2.58.585 0 0 1.217 1.85 2.435 2.191 0 0 .292 2.92 2.823 4.089 0 0-6.153.06-6.767-3.993z"/><ellipse cx="27.034" cy="123.571" rx=".484" ry=".804" fill="#304454"/><path fill="#4d677a" d="M41.853 78.147s1.341-.968 1.601-.819c.26.148.037 1.116.037 1.116l-1.638-.297z"/><path fill="#bdcccc" d="M43.304 84.217s.678.17 1.1-.17c.424-.338.086-1.144.086-1.144l-1.186 1.314z"/><path fill="#4d677a" d="M26.997 88.834s-1.694 1.1-2.245 2.245c0 0 3.346-1.822 5.125-1.864 0 0-1.906-.381-2.88-.381zM31.697 76.44s3.116-3.603 5.793-3.068c0 0-2.218 2.324-1.862 4.084.012.06.027.118.045.176.552 1.777-3.976-1.192-3.976-1.192z"/><path fill="#7a3440" d="M25.077 83.59s-2.809 3.765-1.955 4.678c1.337-.054 3.752-.997 3.752-.997l1.855-1.649-3.652-2.032z"/><path fill="#4d677a" d="M47.484 77.793c-.13-1.566.413-3.626.823-5.272l-.787-.366 1.063-.584a11.9 11.9 0 0 1 1.912-3.559s-2.56 1.128-4.553 3.175c-1.852 1.898-1.013 6.862-1.013 6.862s-7.756.091-14.234-2.555c-7.864-3.212-15.007-7.008-14.78-3.74.181 2.646 3.376 9.123 4.835 10.128 1.46 1.002 6.17 2.361 6.023 2.92-.457 1.733-4.107 3.01-3.65 3.466.456.456 14.233 5.566 22.628-6.752 0 0 3.355 4.192 6.522 4.152-3.364-3.324-3.958-4.867-4.789-7.875z"/><path fill="#fffdfd" d="M26.02 84.09s-.059.796.029.885.501-.56.501-.56l-.53-.324zM25.163 83.588s-.058.795.03.884c.087.088.5-.56.5-.56l-.53-.324zM24.44 87.481s-.585-.54-.71-.526c-.124.014.126.74.126.74l.584-.213z"/><path fill="#bdcccc" d="M46.754 78.688s-2.834 6.117-11.081 5.886c-8.171-.23-15.288-8.532-17.112-10.722-1.251-1.5-2.105-2.391-2.633-2.46a1.69 1.69 0 0 0-.013.362c.182 2.646 3.375 9.124 4.836 10.128 1.459 1.003 6.169 2.36 6.022 2.92-.457 1.733-4.106 3.01-3.651 3.467.454.453 14.376 5.625 22.628-6.752.601-1.467 1.004-2.83 1.004-2.83z"/><path fill="#688da7" d="M29.935 77.547s.606 1.487-.625 3.257c0 0 .659-1.67.625-3.257zM30.569 78.038s.605 1.486-.625 3.257c0 0 .658-1.671.625-3.257zM31.082 78.514s.607 1.485-.625 3.257c0 0 .66-1.672.625-3.257z"/><path fill="#304454" d="M33.596 86.616c-.243-1.607-.925-1.607-1.071-2.873 0 0 .047-.088.096-.195 0 0 3.7 2.63 4.918 2.97 0 0 .154 3.08 2.922 3.895-.024.07-.024.133-.024.21 0 0-6.227.046-6.841-4.007z"/><path fill="#4d677a" d="M33.693 86.42c-.243-1.605-.925-1.605-1.071-2.871 0 0 1.509.68 2.58.585 0 0 1.217 1.85 2.435 2.19 0 0 .292 2.92 2.823 4.09 0 0-6.153.06-6.767-3.993z"/><ellipse cx="27.034" cy="78.116" rx=".484" ry=".804" fill="#304454"/><path fill="#4d677a" d="M41.853 32.693s1.341-.968 1.601-.82c.26.149.037 1.117.037 1.117l-1.638-.297z"/><path fill="#bdcccc" d="M43.304 38.763s.678.169 1.1-.17c.424-.338.086-1.144.086-1.144l-1.186 1.314z"/><path fill="#4d677a" d="M26.997 43.38s-1.694 1.1-2.245 2.244c0 0 3.346-1.822 5.125-1.864 0 0-1.906-.38-2.88-.38zM31.697 30.986s3.116-3.603 5.793-3.068c0 0-2.218 2.324-1.862 4.084.012.059.027.118.045.176.552 1.777-3.976-1.192-3.976-1.192z"/><path fill="#7a3440" d="M25.077 38.136s-2.809 3.765-1.955 4.678c1.337-.054 3.752-.997 3.752-.997l1.855-1.65-3.652-2.031z"/><path fill="#4d677a" d="M47.484 32.339c-.13-1.566.413-3.626.823-5.272l-.787-.366 1.063-.584a11.9 11.9 0 0 1 1.912-3.56s-2.56 1.129-4.553 3.176c-1.852 1.898-1.013 6.862-1.013 6.862s-7.756.09-14.234-2.555c-7.864-3.212-15.007-7.008-14.78-3.741.181 2.647 3.376 9.124 4.835 10.129 1.46 1.002 6.17 2.36 6.023 2.92-.457 1.733-4.107 3.01-3.65 3.466.456.456 14.233 5.566 22.628-6.752 0 0 3.355 4.192 6.522 4.152-3.364-3.324-3.958-4.867-4.789-7.875z"/><path fill="#fffdfd" d="M26.02 38.636s-.059.795.029.884.501-.559.501-.559l-.53-.325zM25.163 38.133s-.058.795.03.884c.087.088.5-.56.5-.56l-.53-.324zM24.44 42.027s-.585-.541-.71-.527c-.124.014.126.74.126.74l.584-.213z"/><path fill="#bdcccc" d="M46.754 33.233S43.92 39.35 35.673 39.12c-8.171-.229-15.288-8.532-17.112-10.722-1.251-1.5-2.105-2.39-2.633-2.459a1.69 1.69 0 0 0-.013.361c.182 2.646 3.375 9.124 4.836 10.128 1.459 1.003 6.169 2.361 6.022 2.92-.457 1.733-4.106 3.011-3.651 3.467.454.453 14.376 5.625 22.628-6.752.601-1.467 1.004-2.829 1.004-2.829z"/><path fill="#688da7" d="M29.935 32.093s.606 1.487-.625 3.257c0 0 .659-1.671.625-3.257zM30.569 32.583s.605 1.486-.625 3.257c0 0 .658-1.67.625-3.257zM31.082 33.06s.607 1.484-.625 3.256c0 0 .66-1.672.625-3.257z"/><path fill="#304454" d="M33.596 41.161c-.243-1.607-.925-1.607-1.071-2.873 0 0 .047-.087.096-.194 0 0 3.7 2.63 4.918 2.97 0 0 .154 3.08 2.922 3.895-.024.069-.024.133-.024.208 0 .002-6.227.047-6.841-4.006z"/><path fill="#4d677a" d="M33.693 40.966c-.243-1.606-.925-1.606-1.071-2.872 0 0 1.509.681 2.58.585 0 0 1.217 1.85 2.435 2.191 0 0 .292 2.92 2.823 4.09 0 0-6.153.06-6.767-3.994z"/><ellipse cx="27.034" cy="32.662" rx=".484" ry=".804" fill="#304454"/><path fill="#4d677a" d="M87.308 214.511s1.34-.968 1.6-.819c.26.148.037 1.116.037 1.116l-1.637-.297z"/><path fill="#bdcccc" d="M88.758 220.581s.678.169 1.101-.17c.423-.338.085-1.144.085-1.144l-1.186 1.314z"/><path fill="#4d677a" d="M72.451 225.197s-1.694 1.101-2.244 2.245c0 0 3.346-1.822 5.125-1.864 0 0-1.906-.381-2.88-.381zM77.151 212.804s3.116-3.603 5.793-3.068c0 0-2.218 2.324-1.862 4.084.012.059.027.118.045.176.552 1.777-3.976-1.192-3.976-1.192z"/><path fill="#7a3440" d="M70.532 219.954s-2.81 3.765-1.955 4.678c1.337-.054 3.752-.997 3.752-.997l1.855-1.649-3.652-2.032z"/><path fill="#4d677a" d="M92.94 214.157c-.13-1.566.412-3.626.822-5.272l-.787-.366 1.063-.584a11.9 11.9 0 0 1 1.911-3.559s-2.56 1.128-4.553 3.175c-1.85 1.898-1.012 6.862-1.012 6.862s-7.756.091-14.234-2.555c-7.865-3.212-15.007-7.008-14.78-3.741.181 2.647 3.375 9.124 4.835 10.129 1.46 1.002 6.17 2.361 6.022 2.92-.457 1.733-4.106 3.01-3.65 3.466.457.456 14.234 5.566 22.628-6.752 0 0 3.356 4.192 6.522 4.152-3.363-3.324-3.957-4.867-4.788-7.875z"/><path fill="#fffdfd" d="M71.475 220.454s-.06.795.029.884.5-.559.5-.559l-.53-.325zM70.618 219.951s-.059.795.029.884c.088.088.501-.56.501-.56l-.53-.324zM69.894 223.845s-.585-.541-.71-.527c-.124.014.126.741.126.741l.584-.214z"/><path fill="#bdcccc" d="M92.209 215.051s-2.835 6.117-11.082 5.886c-8.17-.229-15.287-8.532-17.111-10.722-1.252-1.5-2.106-2.391-2.634-2.459a1.69 1.69 0 0 0-.012.361c.181 2.646 3.375 9.124 4.836 10.128 1.459 1.003 6.168 2.361 6.022 2.92-.457 1.733-4.106 3.011-3.651 3.467.454.453 14.376 5.625 22.627-6.752.602-1.467 1.005-2.829 1.005-2.829z"/><path fill="#688da7" d="M75.39 213.911s.606 1.487-.625 3.257c0 0 .659-1.671.625-3.257zM76.024 214.401s.605 1.486-.625 3.257c0 0 .658-1.671.625-3.257zM76.537 214.878s.607 1.485-.625 3.257c0 0 .659-1.672.625-3.257z"/><path fill="#304454" d="M79.05 222.98c-.243-1.607-.925-1.607-1.07-2.873 0 0 .046-.088.096-.195 0 0 3.7 2.63 4.918 2.97 0 0 .153 3.08 2.921 3.895-.024.069-.024.133-.024.209 0 .001-6.227.047-6.84-4.006z"/><path fill="#4d677a" d="M79.147 222.784c-.243-1.606-.925-1.606-1.07-2.872 0 0 1.508.681 2.58.585 0 0 1.216 1.85 2.434 2.191 0 0 .292 2.92 2.823 4.089.001 0-6.153.06-6.767-3.993z"/><ellipse cx="72.489" cy="214.48" rx=".484" ry=".804" fill="#304454"/><path fill="#4d677a" d="M87.308 169.056s1.34-.968 1.6-.819c.26.148.037 1.116.037 1.116l-1.637-.297z"/><path fill="#bdcccc" d="M88.758 175.126s.678.169 1.101-.17c.423-.338.085-1.144.085-1.144l-1.186 1.314z"/><path fill="#4d677a" d="M72.451 179.743s-1.694 1.101-2.244 2.245c0 0 3.346-1.822 5.125-1.864 0 0-1.906-.381-2.88-.381zM77.151 167.349s3.116-3.603 5.793-3.068c0 0-2.218 2.324-1.862 4.084.012.059.027.118.045.176.552 1.777-3.976-1.192-3.976-1.192z"/><path fill="#7a3440" d="M70.532 174.499s-2.81 3.765-1.955 4.678c1.337-.054 3.752-.997 3.752-.997l1.855-1.649-3.652-2.032z"/><path fill="#4d677a" d="M92.94 168.703c-.13-1.566.412-3.626.822-5.272l-.787-.366 1.063-.584a11.9 11.9 0 0 1 1.911-3.559s-2.56 1.128-4.553 3.175c-1.85 1.898-1.012 6.862-1.012 6.862s-7.756.091-14.234-2.555c-7.865-3.212-15.007-7.008-14.78-3.741.181 2.647 3.375 9.124 4.835 10.129 1.46 1.002 6.17 2.361 6.022 2.92-.457 1.733-4.106 3.01-3.65 3.466.457.456 14.234 5.566 22.628-6.752 0 0 3.356 4.192 6.522 4.152-3.363-3.324-3.957-4.867-4.788-7.875z"/><path fill="#fffdfd" d="M71.475 175s-.06.795.029.884.5-.559.5-.559l-.53-.325zM70.618 174.497s-.059.795.029.884c.088.088.501-.56.501-.56l-.53-.324zM69.894 178.391s-.585-.541-.71-.527c-.124.014.126.741.126.741l.584-.214z"/><path fill="#bdcccc" d="M92.209 169.597s-2.835 6.117-11.082 5.886c-8.17-.229-15.287-8.532-17.111-10.722-1.252-1.5-2.106-2.391-2.634-2.459a1.69 1.69 0 0 0-.012.361c.181 2.646 3.375 9.124 4.836 10.128 1.459 1.003 6.168 2.361 6.022 2.92-.457 1.733-4.106 3.011-3.651 3.467.454.453 14.376 5.625 22.627-6.752.602-1.467 1.005-2.829 1.005-2.829z"/><path fill="#688da7" d="M75.39 168.456s.606 1.487-.625 3.257c0 0 .659-1.671.625-3.257zM76.024 168.947s.605 1.486-.625 3.257c0 0 .658-1.671.625-3.257zM76.537 169.423s.607 1.485-.625 3.257c0 0 .659-1.672.625-3.257z"/><path fill="#304454" d="M79.05 177.525c-.243-1.607-.925-1.607-1.07-2.873 0 0 .046-.088.096-.195 0 0 3.7 2.63 4.918 2.97 0 0 .153 3.08 2.921 3.895-.024.069-.024.133-.024.209 0 .001-6.227.047-6.84-4.006z"/><path fill="#4d677a" d="M79.147 177.33c-.243-1.606-.925-1.606-1.07-2.872 0 0 1.508.681 2.58.585 0 0 1.216 1.85 2.434 2.191 0 0 .292 2.92 2.823 4.089.001 0-6.153.06-6.767-3.993z"/><ellipse cx="72.489" cy="169.026" rx=".484" ry=".804" fill="#304454"/><path fill="#4d677a" d="M87.308 123.602s1.34-.968 1.6-.819c.26.148.037 1.116.037 1.116l-1.637-.297z"/><path fill="#bdcccc" d="M88.758 129.672s.678.169 1.101-.17c.423-.338.085-1.144.085-1.144l-1.186 1.314z"/><path fill="#4d677a" d="M72.451 134.288s-1.694 1.101-2.244 2.245c0 0 3.346-1.822 5.125-1.864 0 0-1.906-.381-2.88-.381zM77.151 121.895s3.116-3.603 5.793-3.068c0 0-2.218 2.324-1.862 4.084.012.059.027.118.045.176.552 1.777-3.976-1.192-3.976-1.192z"/><path fill="#7a3440" d="M70.532 129.045s-2.81 3.765-1.955 4.678c1.337-.054 3.752-.997 3.752-.997l1.855-1.649-3.652-2.032z"/><path fill="#4d677a" d="M92.94 123.248c-.13-1.566.412-3.626.822-5.272l-.787-.366 1.063-.584a11.9 11.9 0 0 1 1.911-3.559s-2.56 1.128-4.553 3.175c-1.85 1.898-1.012 6.862-1.012 6.862s-7.756.091-14.234-2.555c-7.865-3.212-15.007-7.008-14.78-3.741.181 2.647 3.375 9.124 4.835 10.129 1.46 1.002 6.17 2.361 6.022 2.92-.457 1.733-4.106 3.01-3.65 3.466.457.456 14.234 5.566 22.628-6.752 0 0 3.356 4.192 6.522 4.152-3.363-3.324-3.957-4.867-4.788-7.875z"/><path fill="#fffdfd" d="M71.475 129.545s-.06.795.029.884.5-.559.5-.559l-.53-.325zM70.618 129.042s-.059.795.029.884c.088.088.501-.56.501-.56l-.53-.324zM69.894 132.936s-.585-.541-.71-.527c-.124.014.126.741.126.741l.584-.214z"/><path fill="#bdcccc" d="M92.209 124.142s-2.835 6.117-11.082 5.886c-8.17-.229-15.287-8.532-17.111-10.722-1.252-1.5-2.106-2.391-2.634-2.459a1.69 1.69 0 0 0-.012.361c.181 2.646 3.375 9.124 4.836 10.128 1.459 1.003 6.168 2.361 6.022 2.92-.457 1.733-4.106 3.011-3.651 3.467.454.453 14.376 5.625 22.627-6.752.602-1.467 1.005-2.829 1.005-2.829z"/><path fill="#688da7" d="M75.39 123.002s.606 1.487-.625 3.257c0 0 .659-1.671.625-3.257zM76.024 123.492s.605 1.486-.625 3.257c0 0 .658-1.671.625-3.257zM76.537 123.968s.607 1.485-.625 3.257c0 0 .659-1.672.625-3.257z"/><path fill="#304454" d="M79.05 132.071c-.243-1.607-.925-1.607-1.07-2.873 0 0 .046-.088.096-.195 0 0 3.7 2.63 4.918 2.97 0 0 .153 3.08 2.921 3.895-.024.069-.024.133-.024.209 0 .001-6.227.047-6.84-4.006z"/><path fill="#4d677a" d="M79.147 131.875c-.243-1.606-.925-1.606-1.07-2.872 0 0 1.508.681 2.58.585 0 0 1.216 1.85 2.434 2.191 0 0 .292 2.92 2.823 4.089.001 0-6.153.06-6.767-3.993z"/><ellipse cx="72.489" cy="123.571" rx=".484" ry=".804" fill="#304454"/><path fill="#4d677a" d="M87.308 78.147s1.34-.968 1.6-.819c.26.148.037 1.116.037 1.116l-1.637-.297z"/><path fill="#bdcccc" d="M88.758 84.217s.678.17 1.101-.17c.423-.338.085-1.144.085-1.144l-1.186 1.314z"/><path fill="#4d677a" d="M72.451 88.834s-1.694 1.1-2.244 2.245c0 0 3.346-1.822 5.125-1.864 0 0-1.906-.381-2.88-.381zM77.151 76.44s3.116-3.603 5.793-3.068c0 0-2.218 2.324-1.862 4.084.012.06.027.118.045.176.552 1.777-3.976-1.192-3.976-1.192z"/><path fill="#7a3440" d="M70.532 83.59s-2.81 3.765-1.955 4.678c1.337-.054 3.752-.997 3.752-.997l1.855-1.649-3.652-2.032z"/><path fill="#4d677a" d="M92.94 77.793c-.13-1.566.412-3.626.822-5.272l-.787-.366 1.063-.584a11.9 11.9 0 0 1 1.911-3.559s-2.56 1.128-4.553 3.175c-1.85 1.898-1.012 6.862-1.012 6.862s-7.756.091-14.234-2.555c-7.865-3.212-15.007-7.008-14.78-3.74.181 2.646 3.375 9.123 4.835 10.128 1.46 1.002 6.17 2.361 6.022 2.92-.457 1.733-4.106 3.01-3.65 3.466.457.456 14.234 5.566 22.628-6.752 0 0 3.356 4.192 6.522 4.152-3.363-3.324-3.957-4.867-4.788-7.875z"/><path fill="#fffdfd" d="M71.475 84.09s-.06.796.029.885.5-.56.5-.56l-.53-.324zM70.618 83.588s-.059.795.029.884c.088.088.501-.56.501-.56l-.53-.324zM69.894 87.481s-.585-.54-.71-.526c-.124.014.126.74.126.74l.584-.213z"/><path fill="#bdcccc" d="M92.209 78.688s-2.835 6.117-11.082 5.886c-8.17-.23-15.287-8.532-17.111-10.722-1.252-1.5-2.106-2.391-2.634-2.46a1.69 1.69 0 0 0-.012.362c.181 2.646 3.375 9.124 4.836 10.128 1.459 1.003 6.168 2.36 6.022 2.92-.457 1.733-4.106 3.01-3.651 3.467.454.453 14.376 5.625 22.627-6.752.602-1.467 1.005-2.83 1.005-2.83z"/><path fill="#688da7" d="M75.39 77.547s.606 1.487-.625 3.257c0 0 .659-1.67.625-3.257zM76.024 78.038s.605 1.486-.625 3.257c0 0 .658-1.671.625-3.257zM76.537 78.514s.607 1.485-.625 3.257c0 0 .659-1.672.625-3.257z"/><path fill="#304454" d="M79.05 86.616c-.243-1.607-.925-1.607-1.07-2.873 0 0 .046-.088.096-.195 0 0 3.7 2.63 4.918 2.97 0 0 .153 3.08 2.921 3.895-.024.07-.024.133-.024.21 0 0-6.227.046-6.84-4.007z"/><path fill="#4d677a" d="M79.147 86.42c-.243-1.605-.925-1.605-1.07-2.871 0 0 1.508.68 2.58.585 0 0 1.216 1.85 2.434 2.19 0 0 .292 2.92 2.823 4.09.001 0-6.153.06-6.767-3.993z"/><ellipse cx="72.489" cy="78.116" rx=".484" ry=".804" fill="#304454"/><path fill="#4d677a" d="M87.308 32.693s1.34-.968 1.6-.82c.26.149.037 1.117.037 1.117l-1.637-.297z"/><path fill="#bdcccc" d="M88.758 38.763s.678.169 1.101-.17c.423-.338.085-1.144.085-1.144l-1.186 1.314z"/><path fill="#4d677a" d="M72.451 43.38s-1.694 1.1-2.244 2.244c0 0 3.346-1.822 5.125-1.864 0 0-1.906-.38-2.88-.38zM77.151 30.986s3.116-3.603 5.793-3.068c0 0-2.218 2.324-1.862 4.084.012.059.027.118.045.176.552 1.777-3.976-1.192-3.976-1.192z"/><path fill="#7a3440" d="M70.532 38.136s-2.81 3.765-1.955 4.678c1.337-.054 3.752-.997 3.752-.997l1.855-1.65-3.652-2.031z"/><path fill="#4d677a" d="M92.94 32.339c-.13-1.566.412-3.626.822-5.272l-.787-.366 1.063-.584a11.9 11.9 0 0 1 1.911-3.56s-2.56 1.129-4.553 3.176c-1.85 1.898-1.012 6.862-1.012 6.862s-7.756.09-14.234-2.555c-7.865-3.212-15.007-7.008-14.78-3.741.181 2.647 3.375 9.124 4.835 10.129 1.46 1.002 6.17 2.36 6.022 2.92-.457 1.733-4.106 3.01-3.65 3.466.457.456 14.234 5.566 22.628-6.752 0 0 3.356 4.192 6.522 4.152-3.363-3.324-3.957-4.867-4.788-7.875z"/><path fill="#fffdfd" d="M71.475 38.636s-.06.795.029.884.5-.559.5-.559l-.53-.325zM70.618 38.133s-.059.795.029.884c.088.088.501-.56.501-.56l-.53-.324zM69.894 42.027s-.585-.541-.71-.527c-.124.014.126.74.126.74l.584-.213z"/><path fill="#bdcccc" d="M92.209 33.233s-2.835 6.117-11.082 5.886c-8.17-.229-15.287-8.532-17.111-10.722-1.252-1.5-2.106-2.39-2.634-2.459a1.69 1.69 0 0 0-.012.361c.181 2.646 3.375 9.124 4.836 10.128 1.459 1.003 6.168 2.361 6.022 2.92-.457 1.733-4.106 3.011-3.651 3.467.454.453 14.376 5.625 22.627-6.752.602-1.467 1.005-2.829 1.005-2.829z"/><path fill="#688da7" d="M75.39 32.093s.606 1.487-.625 3.257c0 0 .659-1.671.625-3.257zM76.024 32.583s.605 1.486-.625 3.257c0 0 .658-1.67.625-3.257zM76.537 33.06s.607 1.484-.625 3.256c0 0 .659-1.672.625-3.257z"/><path fill="#304454" d="M79.05 41.161c-.243-1.607-.925-1.607-1.07-2.873 0 0 .046-.087.096-.194 0 0 3.7 2.63 4.918 2.97 0 0 .153 3.08 2.921 3.895-.024.069-.024.133-.024.208 0 .002-6.227.047-6.84-4.006z"/><path fill="#4d677a" d="M79.147 40.966c-.243-1.606-.925-1.606-1.07-2.872 0 0 1.508.681 2.58.585 0 0 1.216 1.85 2.434 2.191 0 0 .292 2.92 2.823 4.09.001 0-6.153.06-6.767-3.994z"/><ellipse cx="72.489" cy="32.662" rx=".484" ry=".804" fill="#304454"/><path fill="#4d677a" d="M132.762 214.511s1.341-.968 1.601-.819c.26.148.037 1.116.037 1.116l-1.638-.297z"/><path fill="#bdcccc" d="M134.213 220.581s.678.169 1.101-.17c.423-.338.085-1.144.085-1.144l-1.186 1.314z"/><path fill="#4d677a" d="M117.906 225.197s-1.694 1.101-2.245 2.245c0 0 3.346-1.822 5.125-1.864 0 0-1.906-.381-2.88-.381zM122.606 212.804s3.116-3.603 5.793-3.068c0 0-2.218 2.324-1.862 4.084.012.059.027.118.045.176.552 1.777-3.976-1.192-3.976-1.192z"/><path fill="#7a3440" d="M115.986 219.954s-2.809 3.765-1.955 4.678c1.337-.054 3.752-.997 3.752-.997l1.855-1.649-3.652-2.032z"/><path fill="#4d677a" d="M138.394 214.157c-.13-1.566.413-3.626.823-5.272l-.787-.366 1.063-.584a11.9 11.9 0 0 1 1.911-3.559s-2.56 1.128-4.553 3.175c-1.851 1.898-1.012 6.862-1.012 6.862s-7.756.091-14.234-2.555c-7.865-3.212-15.007-7.008-14.781-3.741.182 2.647 3.376 9.124 4.836 10.129 1.459 1.002 6.169 2.361 6.022 2.92-.457 1.733-4.106 3.01-3.65 3.466.457.456 14.234 5.566 22.628-6.752 0 0 3.356 4.192 6.522 4.152-3.363-3.324-3.957-4.867-4.788-7.875z"/><path fill="#fffdfd" d="M116.929 220.454s-.059.795.029.884.501-.559.501-.559l-.53-.325zM116.073 219.951s-.059.795.029.884c.088.088.501-.56.501-.56l-.53-.324zM115.349 223.845s-.585-.541-.71-.527c-.124.014.126.741.126.741l.584-.214z"/><path fill="#bdcccc" d="M137.663 215.051s-2.834 6.117-11.081 5.886c-8.171-.229-15.288-8.532-17.112-10.722-1.251-1.5-2.105-2.391-2.633-2.459a1.69 1.69 0 0 0-.013.361c.182 2.646 3.375 9.124 4.836 10.128 1.459 1.003 6.169 2.361 6.022 2.92-.457 1.733-4.106 3.011-3.651 3.467.454.453 14.376 5.625 22.628-6.752.601-1.467 1.004-2.829 1.004-2.829z"/><path fill="#688da7" d="M120.844 213.911s.606 1.487-.625 3.257c0 0 .659-1.671.625-3.257zM121.478 214.401s.605 1.486-.625 3.257c0 0 .658-1.671.625-3.257zM121.991 214.878s.607 1.485-.625 3.257c0 0 .659-1.672.625-3.257z"/><path fill="#304454" d="M124.505 222.98c-.243-1.607-.925-1.607-1.071-2.873 0 0 .047-.088.097-.195 0 0 3.7 2.63 4.918 2.97 0 0 .153 3.08 2.921 3.895-.024.069-.024.133-.024.209 0 .001-6.227.047-6.841-4.006z"/><path fill="#4d677a" d="M124.602 222.784c-.243-1.606-.925-1.606-1.071-2.872 0 0 1.509.681 2.581.585 0 0 1.216 1.85 2.434 2.191 0 0 .292 2.92 2.823 4.089.001 0-6.153.06-6.767-3.993z"/><ellipse cx="117.943" cy="214.48" rx=".484" ry=".804" fill="#304454"/><path fill="#4d677a" d="M132.762 169.056s1.341-.968 1.601-.819c.26.148.037 1.116.037 1.116l-1.638-.297z"/><path fill="#bdcccc" d="M134.213 175.126s.678.169 1.101-.17c.423-.338.085-1.144.085-1.144l-1.186 1.314z"/><path fill="#4d677a" d="M117.906 179.743s-1.694 1.101-2.245 2.245c0 0 3.346-1.822 5.125-1.864 0 0-1.906-.381-2.88-.381zM122.606 167.349s3.116-3.603 5.793-3.068c0 0-2.218 2.324-1.862 4.084.012.059.027.118.045.176.552 1.777-3.976-1.192-3.976-1.192z"/><path fill="#7a3440" d="M115.986 174.499s-2.809 3.765-1.955 4.678c1.337-.054 3.752-.997 3.752-.997l1.855-1.649-3.652-2.032z"/><path fill="#4d677a" d="M138.394 168.703c-.13-1.566.413-3.626.823-5.272l-.787-.366 1.063-.584a11.9 11.9 0 0 1 1.911-3.559s-2.56 1.128-4.553 3.175c-1.851 1.898-1.012 6.862-1.012 6.862s-7.756.091-14.234-2.555c-7.865-3.212-15.007-7.008-14.781-3.741.182 2.647 3.376 9.124 4.836 10.129 1.459 1.002 6.169 2.361 6.022 2.92-.457 1.733-4.106 3.01-3.65 3.466.457.456 14.234 5.566 22.628-6.752 0 0 3.356 4.192 6.522 4.152-3.363-3.324-3.957-4.867-4.788-7.875z"/><path fill="#fffdfd" d="M116.929 175s-.059.795.029.884.501-.559.501-.559l-.53-.325zM116.073 174.497s-.059.795.029.884c.088.088.501-.56.501-.56l-.53-.324zM115.349 178.391s-.585-.541-.71-.527c-.124.014.126.741.126.741l.584-.214z"/><path fill="#bdcccc" d="M137.663 169.597s-2.834 6.117-11.081 5.886c-8.171-.229-15.288-8.532-17.112-10.722-1.251-1.5-2.105-2.391-2.633-2.459a1.69 1.69 0 0 0-.013.361c.182 2.646 3.375 9.124 4.836 10.128 1.459 1.003 6.169 2.361 6.022 2.92-.457 1.733-4.106 3.011-3.651 3.467.454.453 14.376 5.625 22.628-6.752a33.47 33.47 0 0 0 1.004-2.829z"/><path fill="#688da7" d="M120.844 168.456s.606 1.487-.625 3.257c0 0 .659-1.671.625-3.257zM121.478 168.947s.605 1.486-.625 3.257c0 0 .658-1.671.625-3.257zM121.991 169.423s.607 1.485-.625 3.257c0 0 .659-1.672.625-3.257z"/><path fill="#304454" d="M124.505 177.525c-.243-1.607-.925-1.607-1.071-2.873 0 0 .047-.088.097-.195 0 0 3.7 2.63 4.918 2.97 0 0 .153 3.08 2.921 3.895-.024.069-.024.133-.024.209 0 .001-6.227.047-6.841-4.006z"/><path fill="#4d677a" d="M124.602 177.33c-.243-1.606-.925-1.606-1.071-2.872 0 0 1.509.681 2.581.585 0 0 1.216 1.85 2.434 2.191 0 0 .292 2.92 2.823 4.089.001 0-6.153.06-6.767-3.993z"/><ellipse cx="117.943" cy="169.026" rx=".484" ry=".804" fill="#304454"/><path fill="#4d677a" d="M132.762 123.602s1.341-.968 1.601-.819c.26.148.037 1.116.037 1.116l-1.638-.297z"/><path fill="#bdcccc" d="M134.213 129.672s.678.169 1.101-.17c.423-.338.085-1.144.085-1.144l-1.186 1.314z"/><path fill="#4d677a" d="M117.906 134.288s-1.694 1.101-2.245 2.245c0 0 3.346-1.822 5.125-1.864 0 0-1.906-.381-2.88-.381zM122.606 121.895s3.116-3.603 5.793-3.068c0 0-2.218 2.324-1.862 4.084.012.059.027.118.045.176.552 1.777-3.976-1.192-3.976-1.192z"/><path fill="#7a3440" d="M115.986 129.045s-2.809 3.765-1.955 4.678c1.337-.054 3.752-.997 3.752-.997l1.855-1.649-3.652-2.032z"/><path fill="#4d677a" d="M138.394 123.248c-.13-1.566.413-3.626.823-5.272l-.787-.366 1.063-.584a11.9 11.9 0 0 1 1.911-3.559s-2.56 1.128-4.553 3.175c-1.851 1.898-1.012 6.862-1.012 6.862s-7.756.091-14.234-2.555c-7.865-3.212-15.007-7.008-14.781-3.741.182 2.647 3.376 9.124 4.836 10.129 1.459 1.002 6.169 2.361 6.022 2.92-.457 1.733-4.106 3.01-3.65 3.466.457.456 14.234 5.566 22.628-6.752 0 0 3.356 4.192 6.522 4.152-3.363-3.324-3.957-4.867-4.788-7.875z"/><path fill="#fffdfd" d="M116.929 129.545s-.059.795.029.884.501-.559.501-.559l-.53-.325zM116.073 129.042s-.059.795.029.884c.088.088.501-.56.501-.56l-.53-.324zM115.349 132.936s-.585-.541-.71-.527c-.124.014.126.741.126.741l.584-.214z"/><path fill="#bdcccc" d="M137.663 124.142s-2.834 6.117-11.081 5.886c-8.171-.229-15.288-8.532-17.112-10.722-1.251-1.5-2.105-2.391-2.633-2.459a1.69 1.69 0 0 0-.013.361c.182 2.646 3.375 9.124 4.836 10.128 1.459 1.003 6.169 2.361 6.022 2.92-.457 1.733-4.106 3.011-3.651 3.467.454.453 14.376 5.625 22.628-6.752.601-1.467 1.004-2.829 1.004-2.829z"/><path fill="#688da7" d="M120.844 123.002s.606 1.487-.625 3.257c0 0 .659-1.671.625-3.257zM121.478 123.492s.605 1.486-.625 3.257c0 0 .658-1.671.625-3.257zM121.991 123.968s.607 1.485-.625 3.257c0 0 .659-1.672.625-3.257z"/><path fill="#304454" d="M124.505 132.071c-.243-1.607-.925-1.607-1.071-2.873 0 0 .047-.088.097-.195 0 0 3.7 2.63 4.918 2.97 0 0 .153 3.08 2.921 3.895-.024.069-.024.133-.024.209 0 .001-6.227.047-6.841-4.006z"/><path fill="#4d677a" d="M124.602 131.875c-.243-1.606-.925-1.606-1.071-2.872 0 0 1.509.681 2.581.585 0 0 1.216 1.85 2.434 2.191 0 0 .292 2.92 2.823 4.089.001 0-6.153.06-6.767-3.993z"/><ellipse cx="117.943" cy="123.571" rx=".484" ry=".804" fill="#304454"/><path fill="#4d677a" d="M132.762 78.147s1.341-.968 1.601-.819c.26.148.037 1.116.037 1.116l-1.638-.297z"/><path fill="#bdcccc" d="M134.213 84.217s.678.17 1.101-.17c.423-.338.085-1.144.085-1.144l-1.186 1.314z"/><path fill="#4d677a" d="M117.906 88.834s-1.694 1.1-2.245 2.245c0 0 3.346-1.822 5.125-1.864 0 0-1.906-.381-2.88-.381zM122.606 76.44s3.116-3.603 5.793-3.068c0 0-2.218 2.324-1.862 4.084.012.06.027.118.045.176.552 1.777-3.976-1.192-3.976-1.192z"/><path fill="#7a3440" d="M115.986 83.59s-2.809 3.765-1.955 4.678c1.337-.054 3.752-.997 3.752-.997l1.855-1.649-3.652-2.032z"/><path fill="#4d677a" d="M138.394 77.793c-.13-1.566.413-3.626.823-5.272l-.787-.366 1.063-.584a11.9 11.9 0 0 1 1.911-3.559s-2.56 1.128-4.553 3.175c-1.851 1.898-1.012 6.862-1.012 6.862s-7.756.091-14.234-2.555c-7.865-3.212-15.007-7.008-14.781-3.74.182 2.646 3.376 9.123 4.836 10.128 1.459 1.002 6.169 2.361 6.022 2.92-.457 1.733-4.106 3.01-3.65 3.466.457.456 14.234 5.566 22.628-6.752 0 0 3.356 4.192 6.522 4.152-3.363-3.324-3.957-4.867-4.788-7.875z"/><path fill="#fffdfd" d="M116.929 84.09s-.059.796.029.885.501-.56.501-.56l-.53-.324zM116.073 83.588s-.059.795.029.884c.088.088.501-.56.501-.56l-.53-.324zM115.349 87.481s-.585-.54-.71-.526c-.124.014.126.74.126.74l.584-.213z"/><path fill="#bdcccc" d="M137.663 78.688s-2.834 6.117-11.081 5.886c-8.171-.23-15.288-8.532-17.112-10.722-1.251-1.5-2.105-2.391-2.633-2.46a1.69 1.69 0 0 0-.013.362c.182 2.646 3.375 9.124 4.836 10.128 1.459 1.003 6.169 2.36 6.022 2.92-.457 1.733-4.106 3.01-3.651 3.467.454.453 14.376 5.625 22.628-6.752.601-1.467 1.004-2.83 1.004-2.83z"/><path fill="#688da7" d="M120.844 77.547s.606 1.487-.625 3.257c0 0 .659-1.67.625-3.257zM121.478 78.038s.605 1.486-.625 3.257c0 0 .658-1.671.625-3.257zM121.991 78.514s.607 1.485-.625 3.257c0 0 .659-1.672.625-3.257z"/><path fill="#304454" d="M124.505 86.616c-.243-1.607-.925-1.607-1.071-2.873 0 0 .047-.088.097-.195 0 0 3.7 2.63 4.918 2.97 0 0 .153 3.08 2.921 3.895-.024.07-.024.133-.024.21 0 0-6.227.046-6.841-4.007z"/><path fill="#4d677a" d="M124.602 86.42c-.243-1.605-.925-1.605-1.071-2.871 0 0 1.509.68 2.581.585 0 0 1.216 1.85 2.434 2.19 0 0 .292 2.92 2.823 4.09.001 0-6.153.06-6.767-3.993z"/><ellipse cx="117.943" cy="78.116" rx=".484" ry=".804" fill="#304454"/><path fill="#4d677a" d="M132.762 32.693s1.341-.968 1.601-.82c.26.149.037 1.117.037 1.117l-1.638-.297z"/><path fill="#bdcccc" d="M134.213 38.763s.678.169 1.101-.17c.423-.338.085-1.144.085-1.144l-1.186 1.314z"/><path fill="#4d677a" d="M117.906 43.38s-1.694 1.1-2.245 2.244c0 0 3.346-1.822 5.125-1.864 0 0-1.906-.38-2.88-.38zM122.606 30.986s3.116-3.603 5.793-3.068c0 0-2.218 2.324-1.862 4.084.012.059.027.118.045.176.552 1.777-3.976-1.192-3.976-1.192z"/><path fill="#7a3440" d="M115.986 38.136s-2.809 3.765-1.955 4.678c1.337-.054 3.752-.997 3.752-.997l1.855-1.65-3.652-2.031z"/><path fill="#4d677a" d="M138.394 32.339c-.13-1.566.413-3.626.823-5.272l-.787-.366 1.063-.584a11.9 11.9 0 0 1 1.911-3.56s-2.56 1.129-4.553 3.176c-1.851 1.898-1.012 6.862-1.012 6.862s-7.756.09-14.234-2.555c-7.865-3.212-15.007-7.008-14.781-3.741.182 2.647 3.376 9.124 4.836 10.129 1.459 1.002 6.169 2.36 6.022 2.92-.457 1.733-4.106 3.01-3.65 3.466.457.456 14.234 5.566 22.628-6.752 0 0 3.356 4.192 6.522 4.152-3.363-3.324-3.957-4.867-4.788-7.875z"/><path fill="#fffdfd" d="M116.929 38.636s-.059.795.029.884.501-.559.501-.559l-.53-.325zM116.073 38.133s-.059.795.029.884c.088.088.501-.56.501-.56l-.53-.324zM115.349 42.027s-.585-.541-.71-.527c-.124.014.126.74.126.74l.584-.213z"/><path fill="#bdcccc" d="M137.663 33.233s-2.834 6.117-11.081 5.886c-8.171-.229-15.288-8.532-17.112-10.722-1.251-1.5-2.105-2.39-2.633-2.459a1.69 1.69 0 0 0-.013.361c.182 2.646 3.375 9.124 4.836 10.128 1.459 1.003 6.169 2.361 6.022 2.92-.457 1.733-4.106 3.011-3.651 3.467.454.453 14.376 5.625 22.628-6.752.601-1.467 1.004-2.829 1.004-2.829z"/><path fill="#688da7" d="M120.844 32.093s.606 1.487-.625 3.257c0 0 .659-1.671.625-3.257zM121.478 32.583s.605 1.486-.625 3.257c0 0 .658-1.67.625-3.257zM121.991 33.06s.607 1.484-.625 3.256c0 0 .659-1.672.625-3.257z"/><path fill="#304454" d="M124.505 41.161c-.243-1.607-.925-1.607-1.071-2.873 0 0 .047-.087.097-.194 0 0 3.7 2.63 4.918 2.97 0 0 .153 3.08 2.921 3.895-.024.069-.024.133-.024.208 0 .002-6.227.047-6.841-4.006z"/><path fill="#4d677a" d="M124.602 40.966c-.243-1.606-.925-1.606-1.071-2.872 0 0 1.509.681 2.581.585 0 0 1.216 1.85 2.434 2.191 0 0 .292 2.92 2.823 4.09.001 0-6.153.06-6.767-3.994z"/><ellipse cx="117.943" cy="32.662" rx=".484" ry=".804" fill="#304454"/><path fill="#4d677a" d="M178.217 214.511s1.341-.968 1.601-.819c.26.148.037 1.116.037 1.116l-1.638-.297z"/><path fill="#bdcccc" d="M179.667 220.581s.678.169 1.101-.17c.423-.338.085-1.144.085-1.144l-1.186 1.314z"/><path fill="#4d677a" d="M163.361 225.197s-1.694 1.101-2.245 2.245c0 0 3.346-1.822 5.125-1.864 0 0-1.906-.381-2.88-.381zM168.06 212.804s3.116-3.603 5.793-3.068c0 0-2.218 2.324-1.862 4.084.012.059.027.118.045.176.552 1.777-3.976-1.192-3.976-1.192z"/><path fill="#7a3440" d="M161.441 219.954s-2.809 3.765-1.955 4.678c1.337-.054 3.752-.997 3.752-.997l1.855-1.649-3.652-2.032z"/><path fill="#4d677a" d="M183.848 214.157c-.13-1.566.413-3.626.823-5.272l-.787-.366 1.063-.584a11.9 11.9 0 0 1 1.911-3.559s-2.56 1.128-4.553 3.175c-1.851 1.898-1.012 6.862-1.012 6.862s-7.756.091-14.234-2.555c-7.865-3.212-15.007-7.008-14.781-3.741.182 2.647 3.376 9.124 4.836 10.129 1.459 1.002 6.169 2.361 6.022 2.92-.457 1.733-4.106 3.01-3.65 3.466.457.456 14.234 5.566 22.628-6.752 0 0 3.356 4.192 6.522 4.152-3.363-3.324-3.957-4.867-4.788-7.875z"/><path fill="#fffdfd" d="M162.384 220.454s-.059.795.029.884.501-.559.501-.559l-.53-.325zM161.527 219.951s-.059.795.029.884c.088.088.501-.56.501-.56l-.53-.324zM160.803 223.845s-.585-.541-.71-.527c-.124.014.126.741.126.741l.584-.214z"/><path fill="#bdcccc" d="M183.118 215.051s-2.834 6.117-11.081 5.886c-8.171-.229-15.288-8.532-17.112-10.722-1.251-1.5-2.105-2.391-2.633-2.459a1.69 1.69 0 0 0-.013.361c.182 2.646 3.375 9.124 4.836 10.128 1.459 1.003 6.169 2.361 6.022 2.92-.457 1.733-4.106 3.011-3.651 3.467.454.453 14.376 5.625 22.628-6.752.601-1.467 1.004-2.829 1.004-2.829z"/><path fill="#688da7" d="M166.299 213.911s.606 1.487-.625 3.257c0 0 .659-1.671.625-3.257zM166.933 214.401s.605 1.486-.625 3.257c0 0 .658-1.671.625-3.257zM167.446 214.878s.607 1.485-.625 3.257c0 0 .659-1.672.625-3.257z"/><path fill="#304454" d="M169.959 222.98c-.243-1.607-.925-1.607-1.071-2.873 0 0 .047-.088.097-.195 0 0 3.7 2.63 4.918 2.97 0 0 .153 3.08 2.921 3.895-.024.069-.024.133-.024.209 0 .001-6.227.047-6.841-4.006z"/><path fill="#4d677a" d="M170.057 222.784c-.243-1.606-.925-1.606-1.071-2.872 0 0 1.509.681 2.581.585 0 0 1.216 1.85 2.434 2.191 0 0 .292 2.92 2.823 4.089.001 0-6.153.06-6.767-3.993z"/><ellipse cx="163.398" cy="214.48" rx=".484" ry=".804" fill="#304454"/><path fill="#4d677a" d="M178.217 169.056s1.341-.968 1.601-.819c.26.148.037 1.116.037 1.116l-1.638-.297z"/><path fill="#bdcccc" d="M179.667 175.126s.678.169 1.101-.17c.423-.338.085-1.144.085-1.144l-1.186 1.314z"/><path fill="#4d677a" d="M163.361 179.743s-1.694 1.101-2.245 2.245c0 0 3.346-1.822 5.125-1.864 0 0-1.906-.381-2.88-.381zM168.06 167.349s3.116-3.603 5.793-3.068c0 0-2.218 2.324-1.862 4.084.012.059.027.118.045.176.552 1.777-3.976-1.192-3.976-1.192z"/><path fill="#7a3440" d="M161.441 174.499s-2.809 3.765-1.955 4.678c1.337-.054 3.752-.997 3.752-.997l1.855-1.649-3.652-2.032z"/><path fill="#4d677a" d="M183.848 168.703c-.13-1.566.413-3.626.823-5.272l-.787-.366 1.063-.584a11.9 11.9 0 0 1 1.911-3.559s-2.56 1.128-4.553 3.175c-1.851 1.898-1.012 6.862-1.012 6.862s-7.756.091-14.234-2.555c-7.865-3.212-15.007-7.008-14.781-3.741.182 2.647 3.376 9.124 4.836 10.129 1.459 1.002 6.169 2.361 6.022 2.92-.457 1.733-4.106 3.01-3.65 3.466.457.456 14.234 5.566 22.628-6.752 0 0 3.356 4.192 6.522 4.152-3.363-3.324-3.957-4.867-4.788-7.875z"/><path fill="#fffdfd" d="M162.384 175s-.059.795.029.884.501-.559.501-.559l-.53-.325zM161.527 174.497s-.059.795.029.884c.088.088.501-.56.501-.56l-.53-.324zM160.803 178.391s-.585-.541-.71-.527c-.124.014.126.741.126.741l.584-.214z"/><path fill="#bdcccc" d="M183.118 169.597s-2.834 6.117-11.081 5.886c-8.171-.229-15.288-8.532-17.112-10.722-1.251-1.5-2.105-2.391-2.633-2.459a1.69 1.69 0 0 0-.013.361c.182 2.646 3.375 9.124 4.836 10.128 1.459 1.003 6.169 2.361 6.022 2.92-.457 1.733-4.106 3.011-3.651 3.467.454.453 14.376 5.625 22.628-6.752.601-1.467 1.004-2.829 1.004-2.829z"/><path fill="#688da7" d="M166.299 168.456s.606 1.487-.625 3.257c0 0 .659-1.671.625-3.257zM166.933 168.947s.605 1.486-.625 3.257c0 0 .658-1.671.625-3.257zM167.446 169.423s.607 1.485-.625 3.257c0 0 .659-1.672.625-3.257z"/><path fill="#304454" d="M169.959 177.525c-.243-1.607-.925-1.607-1.071-2.873 0 0 .047-.088.097-.195 0 0 3.7 2.63 4.918 2.97 0 0 .153 3.08 2.921 3.895-.024.069-.024.133-.024.209 0 .001-6.227.047-6.841-4.006z"/><path fill="#4d677a" d="M170.057 177.33c-.243-1.606-.925-1.606-1.071-2.872 0 0 1.509.681 2.581.585 0 0 1.216 1.85 2.434 2.191 0 0 .292 2.92 2.823 4.089.001 0-6.153.06-6.767-3.993z"/><ellipse cx="163.398" cy="169.026" rx=".484" ry=".804" fill="#304454"/><path fill="#4d677a" d="M178.217 123.602s1.341-.968 1.601-.819c.26.148.037 1.116.037 1.116l-1.638-.297z"/><path fill="#bdcccc" d="M179.667 129.672s.678.169 1.101-.17c.423-.338.085-1.144.085-1.144l-1.186 1.314z"/><path fill="#4d677a" d="M163.361 134.288s-1.694 1.101-2.245 2.245c0 0 3.346-1.822 5.125-1.864 0 0-1.906-.381-2.88-.381zM168.06 121.895s3.116-3.603 5.793-3.068c0 0-2.218 2.324-1.862 4.084.012.059.027.118.045.176.552 1.777-3.976-1.192-3.976-1.192z"/><path fill="#7a3440" d="M161.441 129.045s-2.809 3.765-1.955 4.678c1.337-.054 3.752-.997 3.752-.997l1.855-1.649-3.652-2.032z"/><path fill="#4d677a" d="M183.848 123.248c-.13-1.566.413-3.626.823-5.272l-.787-.366 1.063-.584a11.9 11.9 0 0 1 1.911-3.559s-2.56 1.128-4.553 3.175c-1.851 1.898-1.012 6.862-1.012 6.862s-7.756.091-14.234-2.555c-7.865-3.212-15.007-7.008-14.781-3.741.182 2.647 3.376 9.124 4.836 10.129 1.459 1.002 6.169 2.361 6.022 2.92-.457 1.733-4.106 3.01-3.65 3.466.457.456 14.234 5.566 22.628-6.752 0 0 3.356 4.192 6.522 4.152-3.363-3.324-3.957-4.867-4.788-7.875z"/><path fill="#fffdfd" d="M162.384 129.545s-.059.795.029.884.501-.559.501-.559l-.53-.325zM161.527 129.042s-.059.795.029.884c.088.088.501-.56.501-.56l-.53-.324zM160.803 132.936s-.585-.541-.71-.527c-.124.014.126.741.126.741l.584-.214z"/><path fill="#bdcccc" d="M183.118 124.142s-2.834 6.117-11.081 5.886c-8.171-.229-15.288-8.532-17.112-10.722-1.251-1.5-2.105-2.391-2.633-2.459a1.69 1.69 0 0 0-.013.361c.182 2.646 3.375 9.124 4.836 10.128 1.459 1.003 6.169 2.361 6.022 2.92-.457 1.733-4.106 3.011-3.651 3.467.454.453 14.376 5.625 22.628-6.752.601-1.467 1.004-2.829 1.004-2.829z"/><path fill="#688da7" d="M166.299 123.002s.606 1.487-.625 3.257c0 0 .659-1.671.625-3.257zM166.933 123.492s.605 1.486-.625 3.257c0 0 .658-1.671.625-3.257zM167.446 123.968s.607 1.485-.625 3.257c0 0 .659-1.672.625-3.257z"/><path fill="#304454" d="M169.959 132.071c-.243-1.607-.925-1.607-1.071-2.873 0 0 .047-.088.097-.195 0 0 3.7 2.63 4.918 2.97 0 0 .153 3.08 2.921 3.895-.024.069-.024.133-.024.209 0 .001-6.227.047-6.841-4.006z"/><path fill="#4d677a" d="M170.057 131.875c-.243-1.606-.925-1.606-1.071-2.872 0 0 1.509.681 2.581.585 0 0 1.216 1.85 2.434 2.191 0 0 .292 2.92 2.823 4.089.001 0-6.153.06-6.767-3.993z"/><ellipse cx="163.398" cy="123.571" rx=".484" ry=".804" fill="#304454"/><path fill="#4d677a" d="M178.217 78.147s1.341-.968 1.601-.819c.26.148.037 1.116.037 1.116l-1.638-.297z"/><path fill="#bdcccc" d="M179.667 84.217s.678.17 1.101-.17c.423-.338.085-1.144.085-1.144l-1.186 1.314z"/><path fill="#4d677a" d="M163.361 88.834s-1.694 1.1-2.245 2.245c0 0 3.346-1.822 5.125-1.864 0 0-1.906-.381-2.88-.381zM168.06 76.44s3.116-3.603 5.793-3.068c0 0-2.218 2.324-1.862 4.084.012.06.027.118.045.176.552 1.777-3.976-1.192-3.976-1.192z"/><path fill="#7a3440" d="M161.441 83.59s-2.809 3.765-1.955 4.678c1.337-.054 3.752-.997 3.752-.997l1.855-1.649-3.652-2.032z"/><path fill="#4d677a" d="M183.848 77.793c-.13-1.566.413-3.626.823-5.272l-.787-.366 1.063-.584a11.9 11.9 0 0 1 1.911-3.559s-2.56 1.128-4.553 3.175c-1.851 1.898-1.012 6.862-1.012 6.862s-7.756.091-14.234-2.555c-7.865-3.212-15.007-7.008-14.781-3.74.182 2.646 3.376 9.123 4.836 10.128 1.459 1.002 6.169 2.361 6.022 2.92-.457 1.733-4.106 3.01-3.65 3.466.457.456 14.234 5.566 22.628-6.752 0 0 3.356 4.192 6.522 4.152-3.363-3.324-3.957-4.867-4.788-7.875z"/><path fill="#fffdfd" d="M162.384 84.09s-.059.796.029.885.501-.56.501-.56l-.53-.324zM161.527 83.588s-.059.795.029.884c.088.088.501-.56.501-.56l-.53-.324zM160.803 87.481s-.585-.54-.71-.526c-.124.014.126.74.126.74l.584-.213z"/><path fill="#bdcccc" d="M183.118 78.688s-2.834 6.117-11.081 5.886c-8.171-.23-15.288-8.532-17.112-10.722-1.251-1.5-2.105-2.391-2.633-2.46a1.69 1.69 0 0 0-.013.362c.182 2.646 3.375 9.124 4.836 10.128 1.459 1.003 6.169 2.36 6.022 2.92-.457 1.733-4.106 3.01-3.651 3.467.454.453 14.376 5.625 22.628-6.752.601-1.467 1.004-2.83 1.004-2.83z"/><path fill="#688da7" d="M166.299 77.547s.606 1.487-.625 3.257c0 0 .659-1.67.625-3.257zM166.933 78.038s.605 1.486-.625 3.257c0 0 .658-1.671.625-3.257zM167.446 78.514s.607 1.485-.625 3.257c0 0 .659-1.672.625-3.257z"/><path fill="#304454" d="M169.959 86.616c-.243-1.607-.925-1.607-1.071-2.873 0 0 .047-.088.097-.195 0 0 3.7 2.63 4.918 2.97 0 0 .153 3.08 2.921 3.895-.024.07-.024.133-.024.21 0 0-6.227.046-6.841-4.007z"/><path fill="#4d677a" d="M170.057 86.42c-.243-1.605-.925-1.605-1.071-2.871 0 0 1.509.68 2.581.585 0 0 1.216 1.85 2.434 2.19 0 0 .292 2.92 2.823 4.09.001 0-6.153.06-6.767-3.993z"/><ellipse cx="163.398" cy="78.116" rx=".484" ry=".804" fill="#304454"/></svg>
