<svg xmlns="http://www.w3.org/2000/svg" width="75" height="200" viewBox="0 0 74.99999999999997 199.99999999999997"><defs><linearGradient id="a" x2="1"><stop offset="0%" stop-color="#fdc075"/><stop offset="100%" stop-color="#de9354"/></linearGradient><linearGradient id="b" x2="1"><stop offset="0%" stop-color="#fdc075"/><stop offset="100%" stop-color="#de9354"/></linearGradient><linearGradient id="c" x2="1"><stop offset="0%" stop-color="#fdc075"/><stop offset="100%" stop-color="#de9354"/></linearGradient><linearGradient id="d" x2="1"><stop offset="0%" stop-color="#fdc075"/><stop offset="100%" stop-color="#de9354"/></linearGradient><linearGradient id="e" x2="1"><stop offset="0%" stop-color="#fdc075"/><stop offset="100%" stop-color="#de9354"/></linearGradient><linearGradient id="f" x2="1"><stop offset="0%" stop-color="#fdc075"/><stop offset="100%" stop-color="#de9354"/></linearGradient><linearGradient id="g" x2="1"><stop offset="0%" stop-color="#fdc075"/><stop offset="100%" stop-color="#de9354"/></linearGradient><linearGradient id="h" x2="1"><stop offset="0%" stop-color="#fdc075"/><stop offset="100%" stop-color="#de9354"/></linearGradient></defs><path fill="#fcd0a1" d="M53.607 165.562s1.317-1.862-.09-4.223c-1.408-2.36-4.632-2.36-5.449-2.36s-6.175-.636-9.217-1.589c-3.042-.954-8.49-3.224-9.353-3.678s-3.36-.5-3.405 4.177c0 0 8.036 4.722 11.305 5.403 3.27.681 8.717 2.361 9.99 2.497 1.271.137 4.176 1.181 6.22-.227z"/><path fill="#e8b986" d="M52.336 164.972s1.09-3.723-4.177-3.95c-5.267-.227-10.034-1.316-12.44-2.179-2.407-.863-6.357-2.725-7.538-3.496-1.18-.772-1.997.862-2.088 2.542 0 0 12.577 5.539 14.847 5.948 2.75.495 10.352 1.816 11.396 1.135z"/><path fill="#b35138" d="M23.687 157.208c.999-1.09 2.089-.772 2.633-.59.545.181.5.408 6.584 2.815 6.084 2.406 15.255 3.632 15.255 3.632.909.136 1.09.091 3.723.454 2.634.363 2.861 3.224.999 4.177-1.862.954-8.036 0-11.078-.317-3.042-.318-7.855-1.771-11.397-3.043-3.541-1.271-6.537-4.131-6.719-4.313-.182-.182-.999-1.726 0-2.815z"/><path fill="#9b3924" d="M41.803 167.378c-3.042-.318-7.855-1.771-11.396-3.042-3.541-1.271-6.538-4.132-6.72-4.313-.171-.171-.904-1.548-.158-2.618.603.577 1.57 1.149 2.34 1.635 1.088.687 2.69.973 9.839 3.661 7.15 2.688 14.757 2.86 15.329 2.917s1.016.356.457.858c-.467.421.493 1.166 1.14 1.099.23-.023.489-.108.732-.21a2.328 2.328 0 0 1-.485.331c-1.861.953-8.036 0-11.078-.318z"/><path fill="url(#a)" d="M29.499 153.712c.863.454 6.142 2.602 9.183 3.556 3.043.953 8.569 1.711 9.387 1.711.749 0 3.518.001 5.059 1.819-2.434-2.1-7.067-.384-14.617-2.158-4.528-1.063-6.006-2.516-10.067-4.118-.665-.262-1.081-.288-1.467-.147.825-1.157 1.986-.945 2.522-.663z"/><path fill="url(#b)" d="M52.054 167.943s-.604.414-2.805-.928c-2.358-1.439-5.04-1.635-6.901-1.998-1.862-.363-12.713-3.95-13.894-4.404-1.18-.454-4.465-2.203-5.04-2.407-1.407-.499-3.281-.313-2.315 2.316.817 2.225 2.36 4.313 8.173 7.628 5.81 3.315 15.158 4.078 19.387 2.724 2.27-.727 3.395-2.25 3.395-2.931z"/><path fill="#fcd0a1" d="M23.415 158.209c.574.204 3.86 1.952 5.04 2.406 1.18.454 12.032 4.041 13.893 4.404 1.862.364 4.543.56 6.901 1.998 2.202 1.343 2.805.929 2.805.929 0 .573-.802 1.744-2.412 2.533-.08-.483-.209-.858-.293-.969-.257-.343-1.8-.343-2.745-.773-.944-.429-5.234-1.201-6.692-1.458-1.459-.258-3.346-.343-4.033-.515-.686-.171-1.973-.772-2.574-.944-.6-.172-.343-.086-1.63-.343-1.286-.257-7.034-4.118-8.579-4.89-1.068-.534-1.438-1.601-1.65-2.436.525-.262 1.3-.18 1.97.058z"/><path fill="#9b3924" d="M47.07 164.94a8.857 8.857 0 0 1 2.165-.282c.353 0 .735.023 1.147.078a.344.344 0 0 0 .093-.68 9.232 9.232 0 0 0-1.24-.085c-.948 0-1.717.154-2.33.303-.61.151-1.072.287-1.35.282a.687.687 0 0 1-.2-.025c-.284-.078-.73-.501-1.255-.981-.533-.474-1.185-.999-2.05-1.215a3.24 3.24 0 0 0-.782-.093c-1.074.01-2.004.433-2.885.424-.275 0-.546-.036-.826-.132-.711-.241-1.115-.648-1.667-1.129-.546-.477-1.236-.998-2.416-1.298a3.784 3.784 0 0 0-.967-.12c-.883.005-1.6.254-2.243.248a2.3 2.3 0 0 1-.51-.054c-.204-.05-.315-.141-.46-.327-.138-.185-.276-.46-.468-.765-.38-.615-1.042-1.323-2.44-1.599a.346.346 0 0 0-.407.267.345.345 0 0 0 .269.406c.925.192 1.386.533 1.71.903.326.373.496.804.782 1.195.189.259.469.504.864.589.226.051.446.07.66.07.806-.006 1.505-.253 2.243-.248.255 0 .516.027.795.099 1.06.276 1.608.696 2.134 1.15.52.45 1.024.966 1.898 1.263.36.121.71.167 1.049.167 1.082-.009 2.013-.433 2.885-.424.206 0 .409.021.615.073.68.167 1.245.603 1.756 1.06.517.452.942.932 1.509 1.124.134.042.27.058.407.058.458-.004.924-.161 1.515-.302z"/><path fill="#f6b21a" d="M47.075 164.811a8.756 8.756 0 0 1 2.152-.282c.352 0 .73.023 1.142.078a.343.343 0 1 0 .092-.68 9.299 9.299 0 0 0-1.233-.085 9.45 9.45 0 0 0-2.316.303c-.606.151-1.066.287-1.343.282a.673.673 0 0 1-.198-.025c-.282-.078-.726-.501-1.248-.981-.53-.474-1.178-.999-2.038-1.215a3.2 3.2 0 0 0-.778-.093c-1.068.01-1.992.434-2.867.424a2.5 2.5 0 0 1-.822-.131c-.708-.241-1.108-.648-1.657-1.129-.544-.477-1.23-.998-2.402-1.298a3.741 3.741 0 0 0-.962-.12c-.878.004-1.59.253-2.23.247-.17 0-.338-.015-.506-.053-.204-.049-.314-.141-.457-.327-.139-.185-.276-.46-.466-.765-.377-.615-1.037-1.323-2.426-1.598a.343.343 0 0 0-.405.266.345.345 0 0 0 .267.406c.92.193 1.378.533 1.7.903.324.373.493.804.777 1.196.189.259.468.503.86.588.224.051.443.07.655.07.803-.006 1.497-.252 2.23-.247.255 0 .515.026.79.098 1.056.276 1.6.697 2.122 1.151.517.45 1.02.965 1.887 1.262.357.121.707.167 1.043.167 1.076-.009 2.002-.433 2.868-.424.206 0 .408.021.611.073.677.167 1.239.603 1.746 1.06.516.452.938.932 1.5 1.124.135.042.27.058.406.058.456-.005.918-.162 1.506-.303z"/><path fill="#fbd702" d="M45.569 164.698c.773-.005 1.864-.585 3.659-.585.362 0 .753.024 1.175.082a.086.086 0 0 0 .023-.171 8.935 8.935 0 0 0-1.198-.082c-1.827.001-2.967.59-3.66.585a.885.885 0 0 1-.275-.039c-.79-.235-1.696-1.791-3.271-2.191a2.952 2.952 0 0 0-.715-.085c-.992.003-1.917.427-2.868.425-.297 0-.597-.041-.905-.146-1.528-.51-1.776-1.831-4.04-2.421a3.526 3.526 0 0 0-.898-.112c-.823.001-1.528.249-2.23.247-.186 0-.372-.017-.562-.059-.542-.118-.718-.618-1.084-1.206-.365-.582-.933-1.213-2.26-1.484a.086.086 0 0 0-.101.067c-.01.046.02.092.066.101 1.286.267 1.793.847 2.149 1.407.354.555.543 1.131 1.193 1.282.203.045.403.064.6.064.74-.002 1.442-.25 2.229-.248.273 0 .556.029.855.106 2.193.562 2.405 1.853 4.028 2.419.328.111.647.154.96.154 1-.003 1.926-.427 2.868-.425.223.001.446.024.673.08 1.499.369 2.359 1.886 3.26 2.188.103.033.21.046.324.046a.009.009 0 0 0 .005.001z"/><path fill="#fcd0a1" d="M53.607 123.895s1.317-1.862-.09-4.223c-1.408-2.36-4.632-2.36-5.449-2.36s-6.175-.636-9.217-1.589c-3.042-.954-8.49-3.224-9.353-3.678s-3.36-.5-3.405 4.177c0 0 8.036 4.722 11.305 5.403 3.27.681 8.717 2.361 9.99 2.497 1.271.137 4.176 1.181 6.22-.227z"/><path fill="#e8b986" d="M52.336 123.305s1.09-3.723-4.177-3.95-10.034-1.316-12.44-2.179c-2.407-.863-6.357-2.725-7.538-3.496-1.18-.772-1.997.862-2.088 2.542 0 0 12.577 5.539 14.847 5.948 2.75.495 10.352 1.816 11.396 1.135z"/><path fill="#b35138" d="M23.687 115.541c.999-1.09 2.089-.772 2.633-.59.545.181.5.408 6.584 2.815 6.084 2.406 15.255 3.632 15.255 3.632.909.136 1.09.091 3.723.454 2.634.363 2.861 3.224.999 4.177-1.862.954-8.036 0-11.078-.317-3.042-.318-7.855-1.771-11.397-3.043-3.541-1.271-6.537-4.131-6.719-4.313-.182-.182-.999-1.726 0-2.815z"/><path fill="#9b3924" d="M41.803 125.711c-3.042-.318-7.855-1.771-11.396-3.042-3.541-1.271-6.538-4.132-6.72-4.313-.171-.171-.904-1.548-.158-2.618.603.577 1.57 1.149 2.34 1.635 1.088.687 2.69.973 9.839 3.661 7.15 2.688 14.757 2.86 15.329 2.917s1.016.356.457.858c-.467.421.493 1.166 1.14 1.099.23-.023.489-.108.732-.21a2.328 2.328 0 0 1-.485.331c-1.861.953-8.036 0-11.078-.318z"/><path fill="url(#c)" d="M29.499 112.045c.863.454 6.142 2.602 9.183 3.556 3.043.953 8.569 1.711 9.387 1.711.749 0 3.518.001 5.059 1.819-2.434-2.1-7.067-.384-14.617-2.158-4.528-1.063-6.006-2.516-10.067-4.118-.665-.262-1.081-.288-1.467-.147.825-1.157 1.986-.945 2.522-.663z"/><path fill="url(#d)" d="M52.054 126.277s-.604.414-2.805-.928c-2.358-1.439-5.04-1.635-6.901-1.998-1.862-.363-12.713-3.95-13.894-4.404-1.18-.454-4.465-2.203-5.04-2.407-1.407-.499-3.281-.313-2.315 2.316.817 2.225 2.36 4.313 8.173 7.628 5.81 3.315 15.158 4.078 19.387 2.724 2.27-.727 3.395-2.25 3.395-2.931z"/><path fill="#fcd0a1" d="M23.415 116.542c.574.204 3.86 1.952 5.04 2.406 1.18.454 12.032 4.041 13.893 4.404 1.862.364 4.543.56 6.901 1.998 2.202 1.343 2.805.929 2.805.929 0 .573-.802 1.744-2.412 2.533-.08-.483-.209-.858-.293-.969-.257-.343-1.8-.343-2.745-.773-.944-.429-5.234-1.201-6.692-1.458-1.459-.258-3.346-.343-4.033-.515-.686-.171-1.973-.772-2.574-.944-.6-.172-.343-.086-1.63-.343-1.286-.257-7.034-4.118-8.579-4.89-1.068-.534-1.438-1.601-1.65-2.436.525-.262 1.3-.18 1.97.058z"/><path fill="#9b3924" d="M47.07 123.274a8.857 8.857 0 0 1 2.165-.282c.353 0 .735.023 1.147.078a.344.344 0 0 0 .093-.68 9.232 9.232 0 0 0-1.24-.085c-.948 0-1.717.154-2.33.303-.61.151-1.072.287-1.35.282a.687.687 0 0 1-.2-.025c-.284-.078-.73-.501-1.255-.981-.533-.474-1.185-.999-2.05-1.215a3.24 3.24 0 0 0-.782-.093c-1.074.01-2.004.433-2.885.424-.275 0-.546-.036-.826-.132-.711-.241-1.115-.648-1.667-1.129-.546-.477-1.236-.998-2.416-1.298a3.784 3.784 0 0 0-.967-.12c-.883.005-1.6.254-2.243.248a2.3 2.3 0 0 1-.51-.054c-.204-.05-.315-.141-.46-.327-.138-.185-.276-.46-.468-.765-.38-.615-1.042-1.323-2.44-1.599a.346.346 0 0 0-.407.267.345.345 0 0 0 .269.406c.925.192 1.386.533 1.71.903.326.373.496.804.782 1.195.189.259.469.504.864.589.226.051.446.07.66.07.806-.006 1.505-.253 2.243-.248.255 0 .516.027.795.099 1.06.276 1.608.696 2.134 1.15.52.45 1.024.966 1.898 1.263.36.121.71.167 1.049.167 1.082-.009 2.013-.433 2.885-.424.206 0 .409.021.615.073.68.167 1.245.603 1.756 1.06.517.452.942.932 1.509 1.124.134.042.27.058.407.058.458-.004.924-.161 1.515-.302z"/><path fill="#f6b21a" d="M47.075 123.145a8.756 8.756 0 0 1 2.152-.282c.352 0 .73.023 1.142.078a.343.343 0 1 0 .092-.68 9.299 9.299 0 0 0-1.233-.085 9.45 9.45 0 0 0-2.316.303c-.606.151-1.066.287-1.343.282a.673.673 0 0 1-.198-.025c-.282-.078-.726-.501-1.248-.981-.53-.474-1.178-.999-2.038-1.215a3.2 3.2 0 0 0-.778-.093c-1.068.01-1.992.434-2.867.424a2.5 2.5 0 0 1-.822-.131c-.708-.241-1.108-.648-1.657-1.129-.544-.477-1.23-.998-2.402-1.298a3.741 3.741 0 0 0-.962-.12c-.878.004-1.59.253-2.23.247-.17 0-.338-.015-.506-.053-.204-.049-.314-.141-.457-.327-.139-.185-.276-.46-.466-.765-.377-.615-1.037-1.323-2.426-1.598a.343.343 0 0 0-.405.266.345.345 0 0 0 .267.406c.92.193 1.378.533 1.7.903.324.373.493.804.777 1.196.189.259.468.503.86.588.224.051.443.07.655.07.803-.006 1.497-.252 2.23-.247.255 0 .515.026.79.098 1.056.276 1.6.697 2.122 1.151.517.45 1.02.965 1.887 1.262.357.121.707.167 1.043.167 1.076-.009 2.002-.433 2.868-.424.206 0 .408.021.611.073.677.167 1.239.603 1.746 1.06.516.452.938.932 1.5 1.124.135.042.27.058.406.058.456-.005.918-.162 1.506-.303z"/><path fill="#fbd702" d="M45.569 123.032c.773-.005 1.864-.585 3.659-.585.362 0 .753.024 1.175.082a.086.086 0 0 0 .023-.171 8.935 8.935 0 0 0-1.198-.082c-1.827.001-2.967.59-3.66.585a.885.885 0 0 1-.275-.039c-.79-.235-1.696-1.791-3.271-2.191a2.952 2.952 0 0 0-.715-.085c-.992.003-1.917.427-2.868.425-.297 0-.597-.041-.905-.146-1.528-.51-1.776-1.831-4.04-2.421a3.526 3.526 0 0 0-.898-.112c-.823.001-1.528.249-2.23.247-.186 0-.372-.017-.562-.059-.542-.118-.718-.618-1.084-1.206-.365-.582-.933-1.213-2.26-1.484a.086.086 0 0 0-.101.067c-.01.046.02.092.066.101 1.286.267 1.793.847 2.149 1.407.354.555.543 1.131 1.193 1.282.203.045.403.064.6.064.74-.002 1.442-.25 2.229-.248.273 0 .556.029.855.106 2.193.562 2.405 1.853 4.028 2.419.328.111.647.154.96.154 1-.003 1.926-.427 2.868-.425.223.001.446.024.673.08 1.499.369 2.359 1.886 3.26 2.188.103.033.21.046.324.046a.009.009 0 0 0 .005.001z"/><path fill="#fcd0a1" d="M53.607 82.229s1.317-1.862-.09-4.223c-1.408-2.36-4.632-2.36-5.449-2.36s-6.175-.636-9.217-1.59c-3.042-.953-8.49-3.223-9.353-3.677s-3.36-.5-3.405 4.177c0 0 8.036 4.722 11.305 5.403 3.27.68 8.717 2.36 9.99 2.497 1.271.137 4.176 1.18 6.22-.227z"/><path fill="#e8b986" d="M52.336 81.638s1.09-3.723-4.177-3.95-10.034-1.316-12.44-2.179c-2.407-.863-6.357-2.725-7.538-3.496-1.18-.772-1.997.862-2.088 2.542 0 0 12.577 5.54 14.847 5.948 2.75.495 10.352 1.816 11.396 1.135z"/><path fill="#b35138" d="M23.687 73.874c.999-1.09 2.089-.771 2.633-.59.545.181.5.408 6.584 2.816 6.084 2.406 15.255 3.632 15.255 3.632.909.136 1.09.09 3.723.454 2.634.362 2.861 3.223.999 4.176-1.862.955-8.036 0-11.078-.316-3.042-.319-7.855-1.772-11.397-3.044-3.541-1.27-6.537-4.13-6.719-4.313-.182-.181-.999-1.725 0-2.814z"/><path fill="#9b3924" d="M41.803 84.045c-3.042-.318-7.855-1.771-11.396-3.042-3.541-1.271-6.538-4.132-6.72-4.313-.171-.171-.904-1.548-.158-2.618.603.577 1.57 1.149 2.34 1.635 1.088.687 2.69.973 9.839 3.66 7.15 2.689 14.757 2.86 15.329 2.918s1.016.356.457.858c-.467.42.493 1.166 1.14 1.099.23-.023.489-.108.732-.21a2.328 2.328 0 0 1-.485.33c-1.861.954-8.036 0-11.078-.317z"/><path fill="url(#e)" d="M29.499 70.379c.863.454 6.142 2.602 9.183 3.556 3.043.953 8.569 1.71 9.387 1.71.749 0 3.518.002 5.059 1.82-2.434-2.1-7.067-.384-14.617-2.158-4.528-1.063-6.006-2.516-10.067-4.118-.665-.262-1.081-.288-1.467-.147.825-1.157 1.986-.945 2.522-.663z"/><path fill="url(#f)" d="M52.054 84.61s-.604.414-2.805-.928c-2.358-1.44-5.04-1.635-6.901-1.998-1.862-.363-12.713-3.95-13.894-4.404-1.18-.454-4.465-2.203-5.04-2.407-1.407-.5-3.281-.313-2.315 2.316.817 2.225 2.36 4.313 8.173 7.628 5.81 3.315 15.158 4.078 19.387 2.724 2.27-.727 3.395-2.25 3.395-2.931z"/><path fill="#fcd0a1" d="M23.415 74.876c.574.204 3.86 1.952 5.04 2.406 1.18.454 12.032 4.04 13.893 4.404 1.862.364 4.543.56 6.901 1.998 2.202 1.343 2.805.929 2.805.929 0 .573-.802 1.744-2.412 2.533-.08-.483-.209-.858-.293-.97-.257-.342-1.8-.342-2.745-.772-.944-.43-5.234-1.201-6.692-1.458-1.459-.258-3.346-.343-4.033-.515-.686-.171-1.973-.772-2.574-.944-.6-.172-.343-.086-1.63-.343-1.286-.257-7.034-4.118-8.579-4.89-1.068-.534-1.438-1.601-1.65-2.436.525-.262 1.3-.18 1.97.058z"/><path fill="#9b3924" d="M47.07 81.607a8.857 8.857 0 0 1 2.165-.282c.353 0 .735.023 1.147.078a.344.344 0 0 0 .093-.68 9.232 9.232 0 0 0-1.24-.085c-.948 0-1.717.154-2.33.303-.61.15-1.072.287-1.35.282a.687.687 0 0 1-.2-.025c-.284-.078-.73-.501-1.255-.981-.533-.474-1.185-1-2.05-1.215a3.24 3.24 0 0 0-.782-.093c-1.074.01-2.004.433-2.885.424-.275 0-.546-.036-.826-.132-.711-.241-1.115-.648-1.667-1.13-.546-.476-1.236-.997-2.416-1.297a3.784 3.784 0 0 0-.967-.12c-.883.005-1.6.254-2.243.248a2.3 2.3 0 0 1-.51-.054c-.204-.05-.315-.141-.46-.327-.138-.185-.276-.46-.468-.765-.38-.615-1.042-1.323-2.44-1.6a.346.346 0 0 0-.407.268.345.345 0 0 0 .269.406c.925.192 1.386.533 1.71.903.326.373.496.804.782 1.195.189.259.469.504.864.589.226.05.446.07.66.07.806-.006 1.505-.253 2.243-.248.255 0 .516.027.795.099 1.06.276 1.608.696 2.134 1.15.52.45 1.024.966 1.898 1.263.36.12.71.167 1.049.167 1.082-.01 2.013-.433 2.885-.424.206 0 .409.02.615.073.68.167 1.245.603 1.756 1.06.517.452.942.932 1.509 1.124.134.042.27.058.407.058.458-.004.924-.161 1.515-.302z"/><path fill="#f6b21a" d="M47.075 81.478a8.756 8.756 0 0 1 2.152-.282c.352 0 .73.023 1.142.078a.343.343 0 1 0 .092-.68 9.299 9.299 0 0 0-1.233-.085 9.45 9.45 0 0 0-2.316.303c-.606.151-1.066.287-1.343.282a.673.673 0 0 1-.198-.025c-.282-.078-.726-.501-1.248-.981-.53-.474-1.178-.999-2.038-1.215a3.2 3.2 0 0 0-.778-.093c-1.068.01-1.992.434-2.867.424a2.5 2.5 0 0 1-.822-.131c-.708-.241-1.108-.648-1.657-1.129-.544-.477-1.23-.998-2.402-1.298a3.741 3.741 0 0 0-.962-.12c-.878.004-1.59.253-2.23.247-.17 0-.338-.015-.506-.053-.204-.049-.314-.141-.457-.327-.139-.185-.276-.46-.466-.765-.377-.615-1.037-1.323-2.426-1.598a.343.343 0 0 0-.405.266.345.345 0 0 0 .267.406c.92.193 1.378.533 1.7.903.324.373.493.804.777 1.196.189.259.468.503.86.588.224.051.443.07.655.07.803-.006 1.497-.252 2.23-.247.255 0 .515.026.79.098 1.056.276 1.6.697 2.122 1.151.517.45 1.02.965 1.887 1.262.357.121.707.167 1.043.167 1.076-.009 2.002-.433 2.868-.424.206 0 .408.021.611.073.677.167 1.239.603 1.746 1.06.516.452.938.932 1.5 1.124.135.042.27.058.406.058.456-.005.918-.162 1.506-.303z"/><path fill="#fbd702" d="M45.569 81.365c.773-.005 1.864-.585 3.659-.585.362 0 .753.024 1.175.082a.086.086 0 0 0 .023-.171 8.935 8.935 0 0 0-1.198-.082c-1.827.001-2.967.59-3.66.585a.885.885 0 0 1-.275-.039c-.79-.235-1.696-1.791-3.271-2.191a2.952 2.952 0 0 0-.715-.085c-.992.003-1.917.427-2.868.425-.297 0-.597-.041-.905-.146-1.528-.51-1.776-1.831-4.04-2.421a3.526 3.526 0 0 0-.898-.112c-.823.001-1.528.249-2.23.247-.186 0-.372-.017-.562-.059-.542-.118-.718-.618-1.084-1.206-.365-.582-.933-1.213-2.26-1.484a.086.086 0 0 0-.101.067c-.01.046.02.092.066.101 1.286.267 1.793.847 2.149 1.407.354.555.543 1.131 1.193 1.282.203.045.403.064.6.064.74-.002 1.442-.25 2.229-.248.273 0 .556.029.855.106 2.193.562 2.405 1.853 4.028 2.419.328.111.647.154.96.154 1-.003 1.926-.427 2.868-.425.223.001.446.024.673.08 1.499.369 2.359 1.886 3.26 2.188.103.033.21.046.324.046a.009.009 0 0 0 .005.001z"/><path fill="#fcd0a1" d="M53.607 40.562s1.317-1.862-.09-4.223c-1.408-2.36-4.632-2.36-5.449-2.36s-6.175-.636-9.217-1.59c-3.042-.953-8.49-3.223-9.353-3.677s-3.36-.5-3.405 4.177c0 0 8.036 4.722 11.305 5.403s8.717 2.36 9.99 2.497c1.271.137 4.176 1.18 6.22-.227z"/><path fill="#e8b986" d="M52.336 39.972s1.09-3.723-4.177-3.95c-5.267-.227-10.034-1.316-12.44-2.18-2.407-.862-6.357-2.724-7.538-3.495-1.18-.772-1.997.862-2.088 2.542 0 0 12.577 5.539 14.847 5.948 2.75.495 10.352 1.816 11.396 1.135z"/><path fill="#b35138" d="M23.687 32.208c.999-1.09 2.089-.772 2.633-.59.545.18.5.408 6.584 2.815 6.084 2.406 15.255 3.632 15.255 3.632.909.136 1.09.09 3.723.454 2.634.363 2.861 3.224.999 4.177-1.862.954-8.036 0-11.078-.317-3.042-.318-7.855-1.771-11.397-3.043-3.541-1.271-6.537-4.131-6.719-4.313-.182-.182-.999-1.726 0-2.815z"/><path fill="#9b3924" d="M41.803 42.378c-3.042-.318-7.855-1.771-11.396-3.042-3.541-1.271-6.538-4.132-6.72-4.313-.171-.171-.904-1.548-.158-2.618.603.577 1.57 1.149 2.34 1.635 1.088.687 2.69.973 9.839 3.661 7.15 2.688 14.757 2.86 15.329 2.917s1.016.356.457.858c-.467.421.493 1.166 1.14 1.099.23-.023.489-.108.732-.21a2.328 2.328 0 0 1-.485.331c-1.861.953-8.036 0-11.078-.318z"/><path fill="url(#g)" d="M29.499 28.712c.863.454 6.142 2.602 9.183 3.556 3.043.953 8.569 1.711 9.387 1.711.749 0 3.518.001 5.059 1.819-2.434-2.1-7.067-.384-14.617-2.158-4.528-1.063-6.006-2.516-10.067-4.118-.665-.262-1.081-.288-1.467-.147.825-1.157 1.986-.945 2.522-.663z"/><path fill="url(#h)" d="M52.054 42.943s-.604.414-2.805-.928c-2.358-1.439-5.04-1.635-6.901-1.998-1.862-.363-12.713-3.95-13.894-4.404-1.18-.454-4.465-2.203-5.04-2.407-1.407-.499-3.281-.313-2.315 2.316.817 2.225 2.36 4.313 8.173 7.628 5.81 3.315 15.158 4.078 19.387 2.724 2.27-.727 3.395-2.25 3.395-2.93z"/><path fill="#fcd0a1" d="M23.415 33.209c.574.204 3.86 1.952 5.04 2.406 1.18.454 12.032 4.041 13.893 4.404 1.862.364 4.543.56 6.901 1.998 2.202 1.343 2.805.929 2.805.929 0 .573-.802 1.744-2.412 2.533-.08-.483-.209-.858-.293-.969-.257-.343-1.8-.343-2.745-.773-.944-.429-5.234-1.201-6.692-1.458-1.459-.258-3.346-.343-4.033-.515-.686-.171-1.973-.772-2.574-.944-.6-.172-.343-.086-1.63-.343-1.286-.257-7.034-4.118-8.579-4.89-1.068-.534-1.438-1.601-1.65-2.436.525-.262 1.3-.18 1.97.058z"/><path fill="#9b3924" d="M47.07 39.94a8.857 8.857 0 0 1 2.165-.282c.353 0 .735.023 1.147.078a.344.344 0 0 0 .093-.68 9.232 9.232 0 0 0-1.24-.085c-.948 0-1.717.154-2.33.303-.61.151-1.072.287-1.35.282a.687.687 0 0 1-.2-.025c-.284-.078-.73-.5-1.255-.98-.533-.475-1.185-1-2.05-1.216a3.24 3.24 0 0 0-.782-.093c-1.074.01-2.004.433-2.885.424-.275 0-.546-.036-.826-.132-.711-.24-1.115-.648-1.667-1.129-.546-.477-1.236-.998-2.416-1.298a3.784 3.784 0 0 0-.967-.12c-.883.005-1.6.254-2.243.248a2.3 2.3 0 0 1-.51-.054c-.204-.05-.315-.14-.46-.327-.138-.185-.276-.46-.468-.765-.38-.615-1.042-1.323-2.44-1.599a.346.346 0 0 0-.407.267.345.345 0 0 0 .269.406c.925.192 1.386.533 1.71.903.326.373.496.804.782 1.195.189.26.469.504.864.59.226.05.446.07.66.07.806-.007 1.505-.254 2.243-.249.255 0 .516.027.795.1 1.06.275 1.608.695 2.134 1.15.52.45 1.024.965 1.898 1.262.36.121.71.167 1.049.167 1.082-.009 2.013-.433 2.885-.424.206 0 .409.021.615.073.68.167 1.245.603 1.756 1.06.517.452.942.932 1.509 1.124.134.042.27.058.407.058.458-.004.924-.16 1.515-.302z"/><path fill="#f6b21a" d="M47.075 39.811a8.756 8.756 0 0 1 2.152-.282c.352 0 .73.023 1.142.078a.343.343 0 1 0 .092-.68 9.299 9.299 0 0 0-1.233-.085 9.45 9.45 0 0 0-2.316.303c-.606.151-1.066.287-1.343.282a.673.673 0 0 1-.198-.025c-.282-.078-.726-.5-1.248-.98-.53-.475-1.178-1-2.038-1.216a3.2 3.2 0 0 0-.778-.093c-1.068.01-1.992.434-2.867.424a2.5 2.5 0 0 1-.822-.13c-.708-.242-1.108-.649-1.657-1.13-.544-.477-1.23-.998-2.402-1.298a3.741 3.741 0 0 0-.962-.12c-.878.004-1.59.253-2.23.247-.17 0-.338-.015-.506-.053-.204-.049-.314-.14-.457-.327-.139-.185-.276-.46-.466-.765-.377-.615-1.037-1.323-2.426-1.598a.343.343 0 0 0-.405.266.345.345 0 0 0 .267.406c.92.193 1.378.533 1.7.903.324.373.493.804.777 1.196.189.26.468.503.86.588.224.051.443.07.655.07.803-.006 1.497-.252 2.23-.247.255 0 .515.026.79.098 1.056.276 1.6.697 2.122 1.151.517.45 1.02.965 1.887 1.262.357.121.707.167 1.043.167 1.076-.009 2.002-.433 2.868-.424.206 0 .408.021.611.073.677.167 1.239.603 1.746 1.06.516.452.938.932 1.5 1.124.135.042.27.058.406.058.456-.005.918-.162 1.506-.303z"/><path fill="#fbd702" d="M45.569 39.698c.773-.005 1.864-.585 3.659-.585.362 0 .753.024 1.175.082a.086.086 0 0 0 .023-.171 8.935 8.935 0 0 0-1.198-.082c-1.827.001-2.967.59-3.66.585a.885.885 0 0 1-.275-.039c-.79-.235-1.696-1.79-3.271-2.19a2.952 2.952 0 0 0-.715-.086c-.992.003-1.917.427-2.868.425-.297 0-.597-.04-.905-.146-1.528-.51-1.776-1.83-4.04-2.42a3.526 3.526 0 0 0-.898-.113c-.823.001-1.528.25-2.23.247-.186 0-.372-.017-.562-.059-.542-.118-.718-.618-1.084-1.206-.365-.582-.933-1.213-2.26-1.484a.086.086 0 0 0-.101.067c-.01.046.02.092.066.101 1.286.267 1.793.847 2.149 1.407.354.555.543 1.131 1.193 1.282.203.045.403.064.6.064.74-.002 1.442-.25 2.229-.248.273 0 .556.03.855.106 2.193.562 2.405 1.853 4.028 2.42.328.11.647.153.96.153 1-.003 1.926-.427 2.868-.425.223.001.446.024.673.08 1.499.37 2.359 1.886 3.26 2.188.103.033.21.046.324.046a.009.009 0 0 0 .005.001z"/></svg>
