<svg xmlns="http://www.w3.org/2000/svg" width="27.685" height="130" viewBox="0 0 27.685185185185187 130"><path fill="#ccfaff" stroke="#0c7f99" d="M6.019 116.759v12.037h12.037l6.018-6.018v-12.037H12.037z" stroke-width="2"/><path fill="#ccfaff" stroke="#0c7f99" d="M6.019 116.759h12.037v12.037M18.056 116.759l6.018-6.018M6.019 92.685v12.037h12.037l6.018-6.018V86.667H12.037z" stroke-width="2"/><path fill="#ccfaff" stroke="#0c7f99" d="M6.019 92.685h12.037v12.037M18.056 92.685l6.018-6.018M6.019 68.611v12.037h12.037l6.018-6.018V62.593H12.037z" stroke-width="2"/><path fill="#ccfaff" stroke="#0c7f99" d="M6.019 68.611h12.037v12.037M18.056 68.611l6.018-6.018M6.019 44.537v12.037h12.037l6.018-6.018V38.519H12.037z" stroke-width="2"/><path fill="#ccfaff" stroke="#0c7f99" d="M6.019 44.537h12.037v12.037M18.056 44.537l6.018-6.018" stroke-width="2"/></svg>
