<svg xmlns="http://www.w3.org/2000/svg" width="140" height="70" viewBox="0 0 140 70"><path fill="none" stroke="#000" d="M11.667 58.333h116.666M11.667 35h116.666M11.667 11.667h116.666M11.667 58.333V11.667M35 58.333V11.667M58.333 58.333V11.667M81.667 58.333V11.667M105 58.333V11.667M128.333 58.333V11.667" stroke-width="2"/><ellipse cx="23.333" cy="23.333" rx="8.867" ry="8.867" fill="#0c7f99" stroke="#0c7f99" stroke-width="2" stroke-dasharray="0"/><ellipse cx="46.667" cy="23.333" rx="8.867" ry="8.867" fill="#0c7f99" stroke="#0c7f99" stroke-width="2" stroke-dasharray="0"/><path fill="none" stroke="#000" d="M11.667 58.333h116.666M11.667 35h116.666M11.667 11.667h116.666M11.667 58.333V11.667M35 58.333V11.667M58.333 58.333V11.667M81.667 58.333V11.667M105 58.333V11.667M128.333 58.333V11.667" stroke-width="2"/><ellipse cx="70" cy="23.333" rx="8.867" ry="8.867" fill="#ca337c" stroke="#ca337c" stroke-width="2" stroke-dasharray="0"/><path fill="none" stroke="#000" d="M61.133 32.2l17.734-17.733M61.133 14.467L78.867 32.2" stroke-width="2"/><ellipse cx="93.333" cy="23.333" rx="8.867" ry="8.867" fill="#ca337c" stroke="#ca337c" stroke-width="2" stroke-dasharray="0"/><path fill="none" stroke="#000" d="M84.467 32.2L102.2 14.467M84.467 14.467L102.2 32.2" stroke-width="2"/><ellipse cx="116.667" cy="23.333" rx="8.867" ry="8.867" fill="#ca337c" stroke="#ca337c" stroke-width="2" stroke-dasharray="0"/><path fill="none" stroke="#000" d="M107.8 32.2l17.733-17.733M107.8 14.467L125.533 32.2" stroke-width="2"/><ellipse cx="23.333" cy="46.667" rx="8.867" ry="8.867" fill="#ca337c" stroke="#ca337c" stroke-width="2" stroke-dasharray="0"/><path fill="none" stroke="#000" d="M14.467 55.533L32.2 37.8M14.467 37.8L32.2 55.533" stroke-width="2"/><ellipse cx="46.667" cy="46.667" rx="8.867" ry="8.867" fill="#ca337c" stroke="#ca337c" stroke-width="2" stroke-dasharray="0"/><path fill="none" stroke="#000" d="M37.8 55.533L55.533 37.8M37.8 37.8l17.733 17.733" stroke-width="2"/></svg>
