<svg xmlns="http://www.w3.org/2000/svg" width="130" height="65" viewBox="0 0 130 65"><path fill="none" stroke="#000" d="M10.833 54.167h108.334M10.833 32.5h108.334M10.833 10.833h108.334M10.833 54.167V10.833M32.5 54.167V10.833M54.167 54.167V10.833M75.833 54.167V10.833M97.5 54.167V10.833M119.167 54.167V10.833" stroke-width="2"/><ellipse cx="21.667" cy="21.667" rx="8.233" ry="8.233" fill="#0c7f99" stroke="#0c7f99" stroke-width="2" stroke-dasharray="0"/><ellipse cx="43.333" cy="21.667" rx="8.233" ry="8.233" fill="#0c7f99" stroke="#0c7f99" stroke-width="2" stroke-dasharray="0"/><ellipse cx="65" cy="21.667" rx="8.233" ry="8.233" fill="#0c7f99" stroke="#0c7f99" stroke-width="2" stroke-dasharray="0"/><ellipse cx="86.667" cy="21.667" rx="8.233" ry="8.233" fill="#0c7f99" stroke="#0c7f99" stroke-width="2" stroke-dasharray="0"/><ellipse cx="108.333" cy="21.667" rx="8.233" ry="8.233" fill="#0c7f99" stroke="#0c7f99" stroke-width="2" stroke-dasharray="0"/><ellipse cx="21.667" cy="43.333" rx="8.233" ry="8.233" fill="#0c7f99" stroke="#0c7f99" stroke-width="2" stroke-dasharray="0"/><path fill="none" stroke="#000" d="M10.833 54.167h108.334M10.833 32.5h108.334M10.833 10.833h108.334M10.833 54.167V10.833M32.5 54.167V10.833M54.167 54.167V10.833M75.833 54.167V10.833M97.5 54.167V10.833M119.167 54.167V10.833" stroke-width="2"/><ellipse cx="43.333" cy="43.333" rx="8.233" ry="8.233" fill="#ca337c" stroke="#ca337c" stroke-width="2" stroke-dasharray="0"/><path fill="none" stroke="#000" d="M35.1 51.567L51.567 35.1M35.1 35.1l16.467 16.467" stroke-width="2"/><ellipse cx="65" cy="43.333" rx="8.233" ry="8.233" fill="#ca337c" stroke="#ca337c" stroke-width="2" stroke-dasharray="0"/><path fill="none" stroke="#000" d="M56.767 51.567L73.233 35.1M56.767 35.1l16.466 16.467" stroke-width="2"/><ellipse cx="86.667" cy="43.333" rx="8.233" ry="8.233" fill="#ca337c" stroke="#ca337c" stroke-width="2" stroke-dasharray="0"/><path fill="none" stroke="#000" d="M78.433 51.567L94.9 35.1M78.433 35.1L94.9 51.567" stroke-width="2"/></svg>
