<svg xmlns="http://www.w3.org/2000/svg" width="135" height="270" viewBox="0 0 135 270"><path fill="#ccaa4f" d="M40.765 235.277s-5.032 3.175-7.771 1.802c-1.222-.614-.327-2.06 1.308-1.806 1.802.279 3.689-2.636 3.689-2.636l2.774 2.64z" opacity=".8"/><path fill="#e2e2e2" d="M57.04 232.004a.853.853 0 0 0-.736-.379.315.315 0 0 0-.53-.048.854.854 0 0 0-1.145.303.75.75 0 0 0-.713.732.315.315 0 0 0-.178.426l.013.027a.853.853 0 0 0 .257.998.305.305 0 0 0-.013.29.464.464 0 1 0 .66.649.312.312 0 0 0 .378.018.78.78 0 0 0 1.008-.121.516.516 0 0 0 .5-.289.72.72 0 0 0 .767-.73.224.224 0 0 0 .063-.31.568.568 0 0 0 .052-.82.564.564 0 0 0-.016-.432.563.563 0 0 0-.367-.314m-1.648 1.348h.006a.061.061 0 0 0-.005.012v-.012z"/><path fill="#eec65e" d="M46.458 214.97s1.871-1.567 3.616-1.597c1.144-.019 2.688.077 4.158-.391 3.977-1.261.06 4.036-4.343 7.071-3.054 2.108-7.136 3.995-7.2 1.618-.055-2.011 3.77-6.701 3.77-6.701z"/><path fill="#f7a996" d="M45.56 218.694s1.659-2.322 3.606-2.772c2.29-.529 4.829-2.03 5.432-1.688.734.418-1.252 2.505-2.056 3.317-1.193 1.203-3.866 3.053-5.613 3.68-1.241.448-2.182.672-2.715-.449-.533-1.123 1.347-2.088 1.347-2.088z"/><path fill="#ccaa4f" d="M45.721 218.496c-.614-.319-1.118-.508-1.118-.508s-.52-.019-1.095.222c.236.836.913 1.722.913 1.722l1.3-1.436z"/><path fill="#eec65e" d="M42.537 227.891s1.448 1.008 3.594.878c3.938-.24 6.523.233 8.202 3.031 2.25 3.75-.375 10.9-7.805 9.078-10.892-2.672-9.91-14.893-9.91-14.893l5.92 1.906z"/><path fill="#ccaa4f" d="M37.663 233.315c2.914-.086 5.744-.223 8.468-4.546-.63-.041-.164-1.307-.887-1.291-2.09.046-3.454-1.005-3.454-1.005l-5.798-2.747c0-.001.398 4.464 1.671 9.589z" opacity=".5"/><path fill="#eec65e" d="M38.376 215.73s-.048-2.32-.847-3.787c-.525-.964-1.295-2.205-1.734-3.655-1.193-3.927-2.147 1.905-1.69 7.044.319 3.567 1.233 7.883 2.51 6.784 1.082-.928 1.76-6.386 1.76-6.386z"/><path fill="#f7a996" d="M37.078 219.431s.504-3.004-.244-5.186c-.88-2.565-1.318-5.951-1.833-6.341-.628-.476-.823 2.711-.882 3.981-.088 1.885.214 5.609.753 7.7.383 1.486.74 2.544 1.677 2.406.938-.138.529-2.56.529-2.56z"/><path fill="#eec65e" d="M37.81 218.718s1.785-1.051 3.566-.924c1.242.089 2.697.315 3.933 1.51 1.682 1.627 2.08 4.311 2.101 5.685.054 3.629-2.369 5.926-6.129 5.839-3.705-.087-6.69-2.509-6.443-6.125.141-2.062.807-4.721 2.971-5.985z"/><path fill="#eec65e" d="M40.476 217.942s.617-1.129 1.777-1.3c0 0-1.47.809-1.5 1.528l-.277-.228z"/><ellipse cx="38.411" cy="225.372" rx=".486" ry=".675" fill="#304454" transform="rotate(1.559 38.411 225.372)"/><ellipse cx="44.332" cy="225.372" rx=".486" ry=".675" fill="#304454" transform="rotate(1.559 44.332 225.372)"/><ellipse cx="41.852" cy="228.19" rx=".849" ry=".645" fill="#cda245" transform="rotate(187.048 41.852 228.19)"/><path fill="#eec65e" d="M40.828 217.814s1.005-.803 2.141-.514c0 0-1.667.18-1.972.831l-.169-.317z"/><path fill="#ccaa4f" d="M45 240.299l.02.002c.561.087 1.13-.136 1.648-.485-1.429-4.725 1.525-6.8 3.83-5.879 1.956.781 3.077 3.178 1.54 5.822a1.462 1.462 0 0 1-.567.535l.011.011s-.513.324-1.299.719c-1.01.169-2.169.131-3.48-.19a14.409 14.409 0 0 1-1.703-.535z" opacity=".5"/><path fill="#eec65e" d="M45.948 240.85c.561.087 1.131-.136 1.65-.484-1.43-4.726 1.523-6.801 3.828-5.88 1.956.781 3.077 3.178 1.54 5.823a1.467 1.467 0 0 1-.567.534l.012.011s-1.567.989-3.429 1.624a.186.186 0 0 1-.185.061c-1.426.464-2.997.699-4.157.117-1.222-.614-.327-2.059 1.308-1.806z"/><path fill="#ccaa4f" d="M41.062 237.689c.892-.771 1.535-1.759 1.535-1.759l2.018 1.87s-.126 1.325-1.35 1.871a11.457 11.457 0 0 1-2.203-1.982z" opacity=".5"/><path fill="#eec65e" d="M44.86 237.727s-5.365 3.371-8.282 1.919c-1.3-.649-.346-2.182 1.396-1.915 1.92.293 3.934-2.798 3.934-2.798l2.952 2.794z"/><path fill="none" stroke="#cda245" d="M45.854 228.016s1.35.061 2.03.44M45.986 227.372s1.28-.434 2.05-.327" stroke-miterlimit="10"/><path fill="none" stroke="#cda245" d="M37.614 228.684s-1.393.061-2.095.44M37.478 228.04s-1.321-.434-2.116-.327" stroke-width=".381" stroke-miterlimit="10"/><path fill="#ccaa4f" d="M40.765 190.277s-5.032 3.175-7.771 1.802c-1.222-.614-.327-2.06 1.308-1.806 1.802.279 3.689-2.636 3.689-2.636l2.774 2.64z" opacity=".8"/><path fill="#e2e2e2" d="M57.04 187.004a.853.853 0 0 0-.736-.379.315.315 0 0 0-.53-.048.854.854 0 0 0-1.145.303.75.75 0 0 0-.713.732.315.315 0 0 0-.178.426l.013.027a.853.853 0 0 0 .257.998.305.305 0 0 0-.013.29.464.464 0 1 0 .66.649.312.312 0 0 0 .378.018.78.78 0 0 0 1.008-.121.516.516 0 0 0 .5-.289.72.72 0 0 0 .767-.73.224.224 0 0 0 .063-.31.568.568 0 0 0 .052-.82.564.564 0 0 0-.016-.432.563.563 0 0 0-.367-.314m-1.648 1.348h.006a.061.061 0 0 0-.005.012v-.012z"/><path fill="#eec65e" d="M46.458 169.97s1.871-1.567 3.616-1.597c1.144-.019 2.688.077 4.158-.391 3.977-1.261.06 4.036-4.343 7.071-3.054 2.108-7.136 3.995-7.2 1.618-.055-2.011 3.77-6.701 3.77-6.701z"/><path fill="#f7a996" d="M45.56 173.694s1.659-2.322 3.606-2.772c2.29-.529 4.829-2.03 5.432-1.688.734.418-1.252 2.505-2.056 3.317-1.193 1.203-3.866 3.053-5.613 3.68-1.241.448-2.182.672-2.715-.449-.533-1.123 1.347-2.088 1.347-2.088z"/><path fill="#ccaa4f" d="M45.721 173.496c-.614-.319-1.118-.508-1.118-.508s-.52-.019-1.095.222c.236.836.913 1.722.913 1.722l1.3-1.436z"/><path fill="#eec65e" d="M42.537 182.891s1.448 1.008 3.594.878c3.938-.24 6.523.233 8.202 3.031 2.25 3.75-.375 10.9-7.805 9.078-10.892-2.672-9.91-14.893-9.91-14.893l5.92 1.906z"/><path fill="#ccaa4f" d="M37.663 188.315c2.914-.086 5.744-.223 8.468-4.546-.63-.041-.164-1.307-.887-1.291-2.09.046-3.454-1.005-3.454-1.005l-5.798-2.747c0-.001.398 4.464 1.671 9.589z" opacity=".5"/><path fill="#eec65e" d="M38.376 170.73s-.048-2.32-.847-3.787c-.525-.964-1.295-2.205-1.734-3.655-1.193-3.927-2.147 1.905-1.69 7.044.319 3.567 1.233 7.883 2.51 6.784 1.082-.928 1.76-6.386 1.76-6.386z"/><path fill="#f7a996" d="M37.078 174.431s.504-3.004-.244-5.186c-.88-2.565-1.318-5.951-1.833-6.341-.628-.476-.823 2.711-.882 3.981-.088 1.885.214 5.609.753 7.7.383 1.486.74 2.544 1.677 2.406.938-.138.529-2.56.529-2.56z"/><path fill="#eec65e" d="M37.81 173.718s1.785-1.051 3.566-.924c1.242.089 2.697.315 3.933 1.51 1.682 1.627 2.08 4.311 2.101 5.685.054 3.629-2.369 5.926-6.129 5.839-3.705-.087-6.69-2.509-6.443-6.125.141-2.062.807-4.721 2.971-5.985z"/><path fill="#eec65e" d="M40.476 172.942s.617-1.129 1.777-1.3c0 0-1.47.809-1.5 1.528l-.277-.228z"/><ellipse cx="38.411" cy="180.372" rx=".486" ry=".675" fill="#304454" transform="rotate(1.559 38.411 180.372)"/><ellipse cx="44.332" cy="180.372" rx=".486" ry=".675" fill="#304454" transform="rotate(1.559 44.332 180.372)"/><ellipse cx="41.852" cy="183.19" rx=".849" ry=".645" fill="#cda245" transform="rotate(187.048 41.852 183.19)"/><path fill="#eec65e" d="M40.828 172.814s1.005-.803 2.141-.514c0 0-1.667.18-1.972.831l-.169-.317z"/><path fill="#ccaa4f" d="M45 195.299l.02.002c.561.087 1.13-.136 1.648-.485-1.429-4.725 1.525-6.8 3.83-5.879 1.956.781 3.077 3.178 1.54 5.822a1.462 1.462 0 0 1-.567.535l.011.011s-.513.324-1.299.719c-1.01.169-2.169.131-3.48-.19a14.409 14.409 0 0 1-1.703-.535z" opacity=".5"/><path fill="#eec65e" d="M45.948 195.85c.561.087 1.131-.136 1.65-.484-1.43-4.726 1.523-6.801 3.828-5.88 1.956.781 3.077 3.178 1.54 5.823a1.467 1.467 0 0 1-.567.534l.012.011s-1.567.989-3.429 1.624a.186.186 0 0 1-.185.061c-1.426.464-2.997.699-4.157.117-1.222-.614-.327-2.059 1.308-1.806z"/><path fill="#ccaa4f" d="M41.062 192.689c.892-.771 1.535-1.759 1.535-1.759l2.018 1.87s-.126 1.325-1.35 1.871a11.457 11.457 0 0 1-2.203-1.982z" opacity=".5"/><path fill="#eec65e" d="M44.86 192.727s-5.365 3.371-8.282 1.919c-1.3-.649-.346-2.182 1.396-1.915 1.92.293 3.934-2.798 3.934-2.798l2.952 2.794z"/><path fill="none" stroke="#cda245" d="M45.854 183.016s1.35.061 2.03.44M45.986 182.372s1.28-.434 2.05-.327" stroke-miterlimit="10"/><path fill="none" stroke="#cda245" d="M37.614 183.684s-1.393.061-2.095.44M37.478 183.04s-1.321-.434-2.116-.327" stroke-width=".381" stroke-miterlimit="10"/><path fill="#ccaa4f" d="M40.765 145.277s-5.032 3.175-7.771 1.802c-1.222-.614-.327-2.06 1.308-1.806 1.802.279 3.689-2.636 3.689-2.636l2.774 2.64z" opacity=".8"/><path fill="#e2e2e2" d="M57.04 142.004a.853.853 0 0 0-.736-.379.315.315 0 0 0-.53-.048.854.854 0 0 0-1.145.303.75.75 0 0 0-.713.732.315.315 0 0 0-.178.426l.013.027a.853.853 0 0 0 .257.998.305.305 0 0 0-.013.29.464.464 0 1 0 .66.649.312.312 0 0 0 .378.018.78.78 0 0 0 1.008-.121.516.516 0 0 0 .5-.289.72.72 0 0 0 .767-.73.224.224 0 0 0 .063-.31.568.568 0 0 0 .052-.82.564.564 0 0 0-.016-.432.563.563 0 0 0-.367-.314m-1.648 1.348h.006a.061.061 0 0 0-.005.012v-.012z"/><path fill="#eec65e" d="M46.458 124.97s1.871-1.567 3.616-1.597c1.144-.019 2.688.077 4.158-.391 3.977-1.261.06 4.036-4.343 7.071-3.054 2.108-7.136 3.995-7.2 1.618-.055-2.011 3.77-6.701 3.77-6.701z"/><path fill="#f7a996" d="M45.56 128.694s1.659-2.322 3.606-2.772c2.29-.529 4.829-2.03 5.432-1.688.734.418-1.252 2.505-2.056 3.317-1.193 1.203-3.866 3.053-5.613 3.68-1.241.448-2.182.672-2.715-.449-.533-1.123 1.347-2.088 1.347-2.088z"/><path fill="#ccaa4f" d="M45.721 128.496c-.614-.319-1.118-.508-1.118-.508s-.52-.019-1.095.222c.236.836.913 1.722.913 1.722l1.3-1.436z"/><path fill="#eec65e" d="M42.537 137.891s1.448 1.008 3.594.878c3.938-.24 6.523.233 8.202 3.031 2.25 3.75-.375 10.9-7.805 9.078-10.892-2.672-9.91-14.893-9.91-14.893l5.92 1.906z"/><path fill="#ccaa4f" d="M37.663 143.315c2.914-.086 5.744-.223 8.468-4.546-.63-.041-.164-1.307-.887-1.291-2.09.046-3.454-1.005-3.454-1.005l-5.798-2.747c0-.001.398 4.464 1.671 9.589z" opacity=".5"/><path fill="#eec65e" d="M38.376 125.73s-.048-2.32-.847-3.787c-.525-.964-1.295-2.205-1.734-3.655-1.193-3.927-2.147 1.905-1.69 7.044.319 3.567 1.233 7.883 2.51 6.784 1.082-.928 1.76-6.386 1.76-6.386z"/><path fill="#f7a996" d="M37.078 129.431s.504-3.004-.244-5.186c-.88-2.565-1.318-5.951-1.833-6.341-.628-.476-.823 2.711-.882 3.981-.088 1.885.214 5.609.753 7.7.383 1.486.74 2.544 1.677 2.406.938-.138.529-2.56.529-2.56z"/><path fill="#eec65e" d="M37.81 128.718s1.785-1.051 3.566-.924c1.242.089 2.697.315 3.933 1.51 1.682 1.627 2.08 4.311 2.101 5.685.054 3.629-2.369 5.926-6.129 5.839-3.705-.087-6.69-2.509-6.443-6.125.141-2.062.807-4.721 2.971-5.985z"/><path fill="#eec65e" d="M40.476 127.942s.617-1.129 1.777-1.3c0 0-1.47.809-1.5 1.528l-.277-.228z"/><ellipse cx="38.411" cy="135.372" rx=".486" ry=".675" fill="#304454" transform="rotate(1.559 38.411 135.372)"/><ellipse cx="44.332" cy="135.372" rx=".486" ry=".675" fill="#304454" transform="rotate(1.559 44.332 135.372)"/><ellipse cx="41.852" cy="138.19" rx=".849" ry=".645" fill="#cda245" transform="rotate(187.048 41.852 138.19)"/><path fill="#eec65e" d="M40.828 127.814s1.005-.803 2.141-.514c0 0-1.667.18-1.972.831l-.169-.317z"/><path fill="#ccaa4f" d="M45 150.299l.02.002c.561.087 1.13-.136 1.648-.485-1.429-4.725 1.525-6.8 3.83-5.879 1.956.781 3.077 3.178 1.54 5.822a1.462 1.462 0 0 1-.567.535l.011.011s-.513.324-1.299.719c-1.01.169-2.169.131-3.48-.19a14.409 14.409 0 0 1-1.703-.535z" opacity=".5"/><path fill="#eec65e" d="M45.948 150.85c.561.087 1.131-.136 1.65-.484-1.43-4.726 1.523-6.801 3.828-5.88 1.956.781 3.077 3.178 1.54 5.823a1.467 1.467 0 0 1-.567.534l.012.011s-1.567.989-3.429 1.624a.186.186 0 0 1-.185.061c-1.426.464-2.997.699-4.157.117-1.222-.614-.327-2.059 1.308-1.806z"/><path fill="#ccaa4f" d="M41.062 147.689c.892-.771 1.535-1.759 1.535-1.759l2.018 1.87s-.126 1.325-1.35 1.871a11.457 11.457 0 0 1-2.203-1.982z" opacity=".5"/><path fill="#eec65e" d="M44.86 147.727s-5.365 3.371-8.282 1.919c-1.3-.649-.346-2.182 1.396-1.915 1.92.293 3.934-2.798 3.934-2.798l2.952 2.794z"/><path fill="none" stroke="#cda245" d="M45.854 138.016s1.35.061 2.03.44M45.986 137.372s1.28-.434 2.05-.327" stroke-miterlimit="10"/><path fill="none" stroke="#cda245" d="M37.614 138.684s-1.393.061-2.095.44M37.478 138.04s-1.321-.434-2.116-.327" stroke-width=".381" stroke-miterlimit="10"/><path fill="#ccaa4f" d="M40.765 100.277s-5.032 3.175-7.771 1.802c-1.222-.614-.327-2.06 1.308-1.806 1.802.279 3.689-2.636 3.689-2.636l2.774 2.64z" opacity=".8"/><path fill="#e2e2e2" d="M57.04 97.004a.853.853 0 0 0-.736-.379.315.315 0 0 0-.53-.048.854.854 0 0 0-1.145.303.75.75 0 0 0-.713.732l-.022.009a.315.315 0 0 0-.157.417l.014.027a.853.853 0 0 0 .257.998.305.305 0 0 0-.013.29.464.464 0 1 0 .66.649.312.312 0 0 0 .378.018.78.78 0 0 0 1.008-.121.516.516 0 0 0 .5-.289.72.72 0 0 0 .767-.73.224.224 0 0 0 .063-.31.568.568 0 0 0 .052-.82.564.564 0 0 0-.016-.432.563.563 0 0 0-.367-.314m-1.648 1.348h.006l-.005.012v-.012z"/><path fill="#eec65e" d="M46.458 79.97s1.871-1.567 3.616-1.597c1.144-.02 2.688.077 4.158-.391 3.977-1.261.06 4.036-4.343 7.07-3.054 2.109-7.136 3.996-7.2 1.619-.055-2.011 3.77-6.701 3.77-6.701z"/><path fill="#f7a996" d="M45.56 83.694s1.659-2.322 3.606-2.772c2.29-.53 4.829-2.03 5.432-1.688.734.418-1.252 2.505-2.056 3.317-1.193 1.203-3.866 3.053-5.613 3.68-1.241.448-2.182.672-2.715-.45-.533-1.122 1.347-2.087 1.347-2.087z"/><path fill="#ccaa4f" d="M45.721 83.496c-.614-.319-1.118-.508-1.118-.508s-.52-.019-1.095.222c.236.836.913 1.722.913 1.722l1.3-1.436z"/><path fill="#eec65e" d="M42.537 92.891s1.448 1.008 3.594.878c3.938-.24 6.523.233 8.202 3.031 2.25 3.75-.375 10.9-7.805 9.078-10.892-2.672-9.91-14.893-9.91-14.893l5.92 1.906z"/><path fill="#ccaa4f" d="M37.663 98.315c2.914-.086 5.744-.223 8.468-4.546-.63-.041-.164-1.307-.887-1.291-2.09.046-3.454-1.005-3.454-1.005l-5.798-2.747c0-.001.398 4.464 1.671 9.589z" opacity=".5"/><path fill="#eec65e" d="M38.376 80.73s-.048-2.32-.847-3.787c-.525-.964-1.295-2.205-1.734-3.655-1.193-3.927-2.147 1.905-1.69 7.044.319 3.567 1.233 7.883 2.51 6.784 1.082-.928 1.76-6.386 1.76-6.386z"/><path fill="#f7a996" d="M37.078 84.431s.504-3.004-.244-5.186c-.88-2.565-1.318-5.95-1.833-6.34-.628-.477-.823 2.71-.882 3.98-.088 1.885.214 5.61.753 7.7.383 1.486.74 2.544 1.677 2.406.938-.138.529-2.56.529-2.56z"/><path fill="#eec65e" d="M37.81 83.718s1.785-1.05 3.566-.924c1.242.09 2.697.315 3.933 1.51 1.682 1.627 2.08 4.311 2.101 5.685.054 3.63-2.369 5.926-6.129 5.84-3.705-.088-6.69-2.51-6.443-6.126.141-2.062.807-4.72 2.971-5.985z"/><path fill="#eec65e" d="M40.476 82.942s.617-1.129 1.777-1.3c0 0-1.47.81-1.5 1.528l-.277-.228z"/><ellipse cx="38.411" cy="90.372" rx=".486" ry=".675" fill="#304454" transform="rotate(1.559 38.411 90.372)"/><ellipse cx="44.332" cy="90.372" rx=".486" ry=".675" fill="#304454" transform="rotate(1.559 44.332 90.372)"/><ellipse cx="41.852" cy="93.19" rx=".849" ry=".645" fill="#cda245" transform="rotate(187.048 41.852 93.19)"/><path fill="#eec65e" d="M40.828 82.814s1.005-.803 2.141-.514c0 0-1.667.18-1.972.831l-.169-.317z"/><path fill="#ccaa4f" d="M45 105.299l.02.002c.561.087 1.13-.136 1.648-.485-1.429-4.725 1.525-6.8 3.83-5.88 1.956.782 3.077 3.179 1.54 5.823a1.462 1.462 0 0 1-.567.535l.011.011s-.513.324-1.299.719c-1.01.169-2.169.131-3.48-.19a14.409 14.409 0 0 1-1.703-.535z" opacity=".5"/><path fill="#eec65e" d="M45.948 105.85c.561.087 1.131-.136 1.65-.484-1.43-4.726 1.523-6.801 3.828-5.88 1.956.781 3.077 3.178 1.54 5.823a1.467 1.467 0 0 1-.567.534l.012.011s-1.567.989-3.429 1.624a.186.186 0 0 1-.185.061c-1.426.464-2.997.699-4.157.117-1.222-.614-.327-2.059 1.308-1.806z"/><path fill="#ccaa4f" d="M41.062 102.689c.892-.771 1.535-1.759 1.535-1.759l2.018 1.87s-.126 1.325-1.35 1.871a11.457 11.457 0 0 1-2.203-1.982z" opacity=".5"/><path fill="#eec65e" d="M44.86 102.727s-5.365 3.371-8.282 1.919c-1.3-.649-.346-2.182 1.396-1.915 1.92.293 3.934-2.798 3.934-2.798l2.952 2.794z"/><path fill="none" stroke="#cda245" d="M45.854 93.016s1.35.06 2.03.44M45.986 92.373s1.28-.434 2.05-.328" stroke-miterlimit="10"/><path fill="none" stroke="#cda245" d="M37.614 93.684s-1.393.06-2.095.44M37.478 93.04s-1.321-.434-2.116-.327" stroke-width=".381" stroke-miterlimit="10"/><path fill="#ccaa4f" d="M40.765 55.277s-5.032 3.175-7.771 1.802c-1.222-.614-.327-2.06 1.308-1.806 1.802.279 3.689-2.636 3.689-2.636l2.774 2.64z" opacity=".8"/><path fill="#e2e2e2" d="M57.04 52.004a.853.853 0 0 0-.736-.379.315.315 0 0 0-.53-.048.854.854 0 0 0-1.145.303.75.75 0 0 0-.713.732l-.022.009a.315.315 0 0 0-.157.417l.014.027a.853.853 0 0 0 .257.998.305.305 0 0 0-.013.29.464.464 0 1 0 .66.649.312.312 0 0 0 .378.018.78.78 0 0 0 1.008-.121.516.516 0 0 0 .5-.289.72.72 0 0 0 .767-.73.224.224 0 0 0 .063-.31.568.568 0 0 0 .052-.82.564.564 0 0 0-.016-.432.563.563 0 0 0-.367-.314m-1.648 1.348h.006l-.005.012v-.012z"/><path fill="#eec65e" d="M46.458 34.97s1.871-1.567 3.616-1.597c1.144-.02 2.688.077 4.158-.391 3.977-1.261.06 4.036-4.343 7.07-3.054 2.109-7.136 3.996-7.2 1.619-.055-2.011 3.77-6.701 3.77-6.701z"/><path fill="#f7a996" d="M45.56 38.694s1.659-2.322 3.606-2.772c2.29-.53 4.829-2.03 5.432-1.688.734.418-1.252 2.505-2.056 3.317-1.193 1.203-3.866 3.053-5.613 3.68-1.241.448-2.182.672-2.715-.45-.533-1.122 1.347-2.087 1.347-2.087z"/><path fill="#ccaa4f" d="M45.721 38.496c-.614-.319-1.118-.508-1.118-.508s-.52-.019-1.095.222c.236.836.913 1.722.913 1.722l1.3-1.436z"/><path fill="#eec65e" d="M42.537 47.891s1.448 1.008 3.594.878c3.938-.24 6.523.233 8.202 3.031 2.25 3.75-.375 10.9-7.805 9.078-10.892-2.672-9.91-14.893-9.91-14.893l5.92 1.906z"/><path fill="#ccaa4f" d="M37.663 53.315c2.914-.086 5.744-.223 8.468-4.546-.63-.041-.164-1.307-.887-1.291-2.09.046-3.454-1.005-3.454-1.005l-5.798-2.747c0-.001.398 4.464 1.671 9.589z" opacity=".5"/><path fill="#eec65e" d="M38.376 35.73s-.048-2.32-.847-3.787c-.525-.964-1.295-2.205-1.734-3.655-1.193-3.927-2.147 1.905-1.69 7.044.319 3.567 1.233 7.883 2.51 6.784 1.082-.928 1.76-6.386 1.76-6.386z"/><path fill="#f7a996" d="M37.078 39.431s.504-3.004-.244-5.186c-.88-2.565-1.318-5.95-1.833-6.34-.628-.477-.823 2.71-.882 3.98-.088 1.885.214 5.61.753 7.7.383 1.486.74 2.544 1.677 2.406.938-.138.529-2.56.529-2.56z"/><path fill="#eec65e" d="M37.81 38.718s1.785-1.05 3.566-.924c1.242.09 2.697.315 3.933 1.51 1.682 1.627 2.08 4.311 2.101 5.685.054 3.63-2.369 5.926-6.129 5.84-3.705-.088-6.69-2.51-6.443-6.126.141-2.062.807-4.72 2.971-5.985z"/><path fill="#eec65e" d="M40.476 37.942s.617-1.129 1.777-1.3c0 0-1.47.81-1.5 1.528l-.277-.228z"/><ellipse cx="38.411" cy="45.372" rx=".486" ry=".675" fill="#304454" transform="rotate(1.559 38.411 45.372)"/><ellipse cx="44.332" cy="45.372" rx=".486" ry=".675" fill="#304454" transform="rotate(1.559 44.332 45.372)"/><ellipse cx="41.852" cy="48.19" rx=".849" ry=".645" fill="#cda245" transform="rotate(187.048 41.852 48.19)"/><path fill="#eec65e" d="M40.828 37.814s1.005-.803 2.141-.514c0 0-1.667.18-1.972.831l-.169-.317z"/><path fill="#ccaa4f" d="M45 60.299c.007 0 .013 0 .02.002.561.087 1.13-.136 1.648-.485-1.429-4.725 1.525-6.8 3.83-5.88 1.956.782 3.077 3.179 1.54 5.823a1.462 1.462 0 0 1-.567.535l.011.01s-.513.325-1.299.72c-1.01.169-2.169.13-3.48-.19A14.409 14.409 0 0 1 45 60.299z" opacity=".5"/><path fill="#eec65e" d="M45.948 60.85c.561.087 1.131-.136 1.65-.484-1.43-4.726 1.523-6.801 3.828-5.88 1.956.78 3.077 3.178 1.54 5.823a1.467 1.467 0 0 1-.567.534l.012.01s-1.567.99-3.429 1.625a.186.186 0 0 1-.185.06c-1.426.465-2.997.7-4.157.118-1.222-.614-.327-2.06 1.308-1.806z"/><path fill="#ccaa4f" d="M41.062 57.689c.892-.771 1.535-1.76 1.535-1.76l2.018 1.87s-.126 1.326-1.35 1.872a11.457 11.457 0 0 1-2.203-1.982z" opacity=".5"/><path fill="#eec65e" d="M44.86 57.727s-5.365 3.371-8.282 1.92c-1.3-.65-.346-2.183 1.396-1.916 1.92.293 3.934-2.798 3.934-2.798l2.952 2.794z"/><path fill="none" stroke="#cda245" d="M45.854 48.016s1.35.06 2.03.44M45.986 47.373s1.28-.434 2.05-.328" stroke-miterlimit="10"/><path fill="none" stroke="#cda245" d="M37.614 48.684s-1.393.06-2.095.44M37.478 48.04s-1.321-.434-2.116-.327" stroke-width=".381" stroke-miterlimit="10"/><path fill="#ccaa4f" d="M85.765 235.277s-5.032 3.175-7.771 1.802c-1.222-.614-.327-2.06 1.308-1.806 1.802.279 3.689-2.636 3.689-2.636l2.774 2.64z" opacity=".8"/><path fill="#e2e2e2" d="M102.04 232.004a.853.853 0 0 0-.735-.379.315.315 0 0 0-.53-.048.854.854 0 0 0-1.146.303.75.75 0 0 0-.714.732.315.315 0 0 0-.178.426l.014.027a.853.853 0 0 0 .256.998.305.305 0 0 0-.011.29.464.464 0 1 0 .659.649.312.312 0 0 0 .379.018.78.78 0 0 0 1.007-.121.516.516 0 0 0 .501-.289.72.72 0 0 0 .767-.73.224.224 0 0 0 .062-.31.568.568 0 0 0 .053-.82.564.564 0 0 0-.016-.432.563.563 0 0 0-.368-.314m-1.647 1.348h.006l-.005.012-.001-.012z"/><path fill="#eec65e" d="M91.458 214.97s1.871-1.567 3.616-1.597c1.144-.019 2.688.077 4.158-.391 3.977-1.261.06 4.036-4.343 7.071-3.054 2.108-7.136 3.995-7.2 1.618-.055-2.011 3.77-6.701 3.77-6.701z"/><path fill="#f7a996" d="M90.56 218.694s1.659-2.322 3.606-2.772c2.29-.529 4.829-2.03 5.432-1.688.734.418-1.252 2.505-2.056 3.317-1.193 1.203-3.866 3.053-5.613 3.68-1.241.448-2.182.672-2.715-.449-.533-1.123 1.347-2.088 1.347-2.088z"/><path fill="#ccaa4f" d="M90.722 218.496c-.615-.319-1.12-.508-1.12-.508s-.519-.019-1.094.222c.237.836.913 1.722.913 1.722l1.3-1.436z"/><path fill="#eec65e" d="M87.537 227.891s1.448 1.008 3.594.878c3.938-.24 6.523.233 8.202 3.031 2.25 3.75-.375 10.9-7.805 9.078-10.892-2.672-9.91-14.893-9.91-14.893l5.92 1.906z"/><path fill="#ccaa4f" d="M82.663 233.315c2.914-.086 5.744-.223 8.468-4.546-.63-.041-.164-1.307-.887-1.291-2.09.046-3.454-1.005-3.454-1.005l-5.798-2.747c0-.001.398 4.464 1.671 9.589z" opacity=".5"/><path fill="#eec65e" d="M83.376 215.73s-.048-2.32-.847-3.787c-.525-.964-1.295-2.205-1.734-3.655-1.193-3.927-2.147 1.905-1.69 7.044.319 3.567 1.233 7.883 2.51 6.784 1.082-.928 1.76-6.386 1.76-6.386z"/><path fill="#f7a996" d="M82.078 219.431s.504-3.004-.244-5.186c-.88-2.565-1.318-5.951-1.833-6.341-.628-.476-.823 2.711-.882 3.981-.088 1.885.214 5.609.753 7.7.383 1.486.74 2.544 1.677 2.406.938-.138.529-2.56.529-2.56z"/><path fill="#eec65e" d="M82.81 218.718s1.785-1.051 3.566-.924c1.242.089 2.697.315 3.933 1.51 1.682 1.627 2.08 4.311 2.101 5.685.054 3.629-2.369 5.926-6.129 5.839-3.705-.087-6.69-2.509-6.443-6.125.141-2.062.807-4.721 2.971-5.985z"/><path fill="#eec65e" d="M85.476 217.942s.617-1.129 1.777-1.3c0 0-1.47.809-1.5 1.528l-.277-.228z"/><ellipse cx="83.411" cy="225.372" rx=".486" ry=".675" fill="#304454" transform="rotate(1.559 83.411 225.372)"/><ellipse cx="89.332" cy="225.372" rx=".486" ry=".675" fill="#304454" transform="rotate(1.559 89.332 225.372)"/><ellipse cx="86.852" cy="228.19" rx=".849" ry=".645" fill="#cda245" transform="rotate(187.048 86.852 228.19)"/><path fill="#eec65e" d="M85.828 217.814s1.005-.803 2.141-.514c0 0-1.667.18-1.972.831l-.169-.317z"/><path fill="#ccaa4f" d="M90 240.299l.02.002c.561.087 1.13-.136 1.648-.485-1.429-4.725 1.525-6.8 3.83-5.879 1.956.781 3.077 3.178 1.54 5.822a1.462 1.462 0 0 1-.567.535l.011.011s-.513.324-1.299.719c-1.01.169-2.169.131-3.48-.19a14.409 14.409 0 0 1-1.703-.535z" opacity=".5"/><path fill="#eec65e" d="M90.948 240.85c.561.087 1.131-.136 1.65-.484-1.43-4.726 1.523-6.801 3.828-5.88 1.956.781 3.077 3.178 1.54 5.823a1.467 1.467 0 0 1-.567.534l.012.011s-1.567.989-3.429 1.624a.186.186 0 0 1-.185.061c-1.426.464-2.997.699-4.157.117-1.222-.614-.327-2.059 1.308-1.806z"/><path fill="#ccaa4f" d="M86.062 237.689c.892-.771 1.535-1.759 1.535-1.759l2.018 1.87s-.126 1.325-1.35 1.871a11.457 11.457 0 0 1-2.203-1.982z" opacity=".5"/><path fill="#eec65e" d="M89.86 237.727s-5.365 3.371-8.282 1.919c-1.3-.649-.346-2.182 1.396-1.915 1.92.293 3.934-2.798 3.934-2.798l2.952 2.794z"/><path fill="none" stroke="#cda245" d="M90.854 228.016s1.35.061 2.03.44M90.986 227.372s1.28-.434 2.05-.327" stroke-miterlimit="10"/><path fill="none" stroke="#cda245" d="M82.614 228.684s-1.394.061-2.096.44M82.478 228.04s-1.321-.434-2.116-.327" stroke-width=".381" stroke-miterlimit="10"/></svg>
