<svg xmlns="http://www.w3.org/2000/svg" width="380" height="100" viewBox="0 0 380 100"><path fill="none" stroke="#000" d="M369.45 65.6c.35-2.1 4.2-5.25 5.25-5.6-1.05-.35-4.9-3.5-5.25-5.6" stroke-width="2" stroke-linejoin="round" stroke-linecap="round"/><path fill="none" stroke="#000" d="M5 60h368.95" stroke-width="2"/><path fill="none" stroke="#000" d="M12.05 54.4c-.35 2.1-4.2 5.25-5.25 5.6 1.05.35 4.9 3.5 5.25 5.6" stroke-width="2" stroke-linejoin="round" stroke-linecap="round"/><path fill="none" stroke="#000" d="M375 60H6.05M350 68V52" stroke-width="2"/><ellipse cx="350" cy="60" rx="4" ry="4" stroke="#000" stroke-width="2" stroke-dasharray="0"/><path fill="none" stroke="#000" d="M30 68V52" stroke-width="2"/><path fill="none" stroke="#7854ab" d="M350 60a148.148 24 0 0 0-296.296 0M53.704 60l1.49-8M53.704 60l-1.49-8" stroke-width="2" stroke-dasharray="0"/><path fill="none" stroke="#000" d="M53.704 68V52" stroke-width="2" stroke-dasharray="0"/><path fill="none" stroke="#ca337c" d="M53.704 60A11.852 24 0 0 0 30 60M30 60l1.49-8M30 60l-1.49-8" stroke-width="2" stroke-dasharray="0"/><ellipse cx="30" cy="60" rx="4" ry="4" stroke="#000" stroke-width="2" stroke-dasharray="0"/></svg>
