<svg xmlns="http://www.w3.org/2000/svg" width="380" height="100" viewBox="0 0 380 100"><path fill="none" stroke="#000" d="M369.45 65.6c.35-2.1 4.2-5.25 5.25-5.6-1.05-.35-4.9-3.5-5.25-5.6" stroke-width="2" stroke-linejoin="round" stroke-linecap="round"/><path fill="none" stroke="#000" d="M5 60h368.95" stroke-width="2"/><path fill="none" stroke="#000" d="M12.05 54.4c-.35 2.1-4.2 5.25-5.25 5.6 1.05.35 4.9 3.5 5.25 5.6" stroke-width="2" stroke-linejoin="round" stroke-linecap="round"/><path fill="none" stroke="#000" d="M375 60H6.05M30 68V52M350 68V52" stroke-width="2"/><path fill="none" stroke="#a75a05" d="M148.4 68V52" stroke-width="2"/><path fill="none" stroke="#ca337c" d="M148.4 60a32 24 0 0 0-64 0M84.4 60l6.4-8M84.4 60L78 52M84.4 68V52" stroke-width="2" stroke-dasharray="0"/><path fill="none" stroke="#7854ab" d="M84.4 60a12.8 24 0 0 0-25.6 0M58.8 60l6.4-8M58.8 60l-6.4-8M58.8 68V52" stroke-width="2" stroke-dasharray="0"/></svg>
