<svg xmlns="http://www.w3.org/2000/svg" width="460" height="80" viewBox="0 0 460.00000000000006 80"><path fill="none" stroke="#000" d="M449.45 45.6c.35-2.1 4.2-5.25 5.25-5.6-1.05-.35-4.9-3.5-5.25-5.6" stroke-width="2" stroke-linejoin="round" stroke-linecap="round"/><path fill="none" stroke="#000" d="M5 40h448.95" stroke-width="2"/><path fill="none" stroke="#000" d="M12.05 34.4c-.35 2.1-4.2 5.25-5.25 5.6 1.05.35 4.9 3.5 5.25 5.6" stroke-width="2" stroke-linejoin="round" stroke-linecap="round"/><path fill="none" stroke="#000" d="M455 40H6.05M30 48V32" stroke-width="2"/><path fill="none" stroke="#000" d="M30 48V32M144.286 48V32M430 48V32" stroke-width="3.5"/><ellipse cx="430" cy="40" rx="5" ry="5"/><ellipse cx="30" cy="40" rx="5" ry="5" fill="#ca337c"/><path fill="none" stroke="#ca337c" d="M144.286 40A57.143 24 0 0 0 30 40M30 40l4.949-8M30 40l-5.37-5.472" stroke-width="2" stroke-dasharray="0"/><path fill="none" stroke="#7854ab" d="M430 40a142.857 24 0 0 0-285.714 0M144.286 40l4.949-8M144.286 40l-5.37-5.473" stroke-width="2" stroke-dasharray="0"/></svg>
