<svg xmlns="http://www.w3.org/2000/svg" version="1.1" width="400" height="340.74074074074076" viewBox="0 0 400 340.74074074074076"><defs/><path fill="#28ae7b" stroke="#000000" d="M 74.0741,237.037 L 74.0741,148.148 L 271.605,148.148 L 271.605,237.037 Z" style="stroke-width: 2px;fill-opacity: 1;stroke-opacity: 1" stroke-width="2" fill-opacity="1" stroke-opacity="1" stroke-dasharray="0"/><path fill="#ff00af" stroke="#000000" d="M 271.605,237.037 L 271.605,148.148 L 370.37,148.148 L 370.37,237.037 Z" style="stroke-width: 2px;fill-opacity: 1;stroke-opacity: 1" stroke-width="2" fill-opacity="1" stroke-opacity="1" stroke-dasharray="0"/><path fill="#28ae7b" stroke="#000000" d="M 74.0741,133.333 L 74.0741,44.4444 L 271.605,44.4444 L 271.605,133.333 Z" style="stroke-width: 2px;fill-opacity: 1;stroke-opacity: 1" stroke-width="2" fill-opacity="1" stroke-opacity="1" stroke-dasharray="0"/><path fill="none" stroke="#000000" d="M 271.605,254.815 C 272.605,251.815 277.605,249.815 281.605,248.815 C 281.605,248.815 284.605,247.815 287.605,247.815 L 307.988,247.815 C 312.988,247.815 317.988,244.815 317.988,244.815 L 320.988,240.815 L 323.988,244.815 S 328.988,247.815 333.988,247.815 L 354.37,247.815 C 357.37,248.815 360.37,248.815 360.37,248.815 C 364.37,249.815 369.37,251.815 370.37,254.815" transform="rotate(180 320.9874382716049 247.8148148148148)"/><path fill="none" stroke="#000000" d="M 74.0741,254.815 C 75.0741,251.815 80.0741,249.815 84.0741,248.815 C 84.0741,248.815 87.0741,247.815 90.0741,247.815 L 159.839,247.815 C 164.839,247.815 169.839,244.815 169.839,244.815 L 172.839,240.815 L 175.839,244.815 S 180.839,247.815 185.839,247.815 L 255.605,247.815 C 258.605,248.815 261.605,248.815 261.605,248.815 C 265.605,249.815 270.605,251.815 271.605,254.815" transform="rotate(180 172.83957407407408 247.8148148148148)"/><path fill="none" stroke="#000000" d="M 74.0741,302.222 C 75.0741,299.222 80.0741,297.222 84.0741,296.222 C 84.0741,296.222 87.0741,295.222 90.0741,295.222 L 209.222,295.222 C 214.222,295.222 219.222,292.222 219.222,292.222 L 222.222,288.222 L 225.222,292.222 S 230.222,295.222 235.222,295.222 L 354.37,295.222 C 357.37,296.222 360.37,296.222 360.37,296.222 C 364.37,297.222 369.37,299.222 370.37,302.222" transform="rotate(180 222.22207407407407 295.22222222222223)"/><path fill="none" stroke="#000000" d="M 74.0741,41.4815 C 75.0741,38.4815 80.0741,36.4815 84.0741,35.4815 C 84.0741,35.4815 87.0741,34.4815 90.0741,34.4815 L 159.839,34.4815 C 164.839,34.4815 169.839,31.4815 169.839,31.4815 L 172.839,27.4815 L 175.839,31.4815 S 180.839,34.4815 185.839,34.4815 L 255.605,34.4815 C 258.605,35.4815 261.605,35.4815 261.605,35.4815 C 265.605,36.4815 270.605,38.4815 271.605,41.4815" transform=""/></svg>