<svg xmlns="http://www.w3.org/2000/svg" version="1.1" width="400" height="314.2857142857143" viewBox="0 0 400 314.2857142857143"><defs/><path fill="#28ae7b" stroke="#000000" d="M 85.7143,228.571 L 85.7143,142.857 L 200,142.857 L 200,228.571 Z" style="stroke-width: 2px;fill-opacity: 1;stroke-opacity: 1" stroke-width="2" fill-opacity="1" stroke-opacity="1" stroke-dasharray="0"/><path fill="#ff00af" stroke="#000000" d="M 200,228.571 L 200,142.857 L 285.714,142.857 L 285.714,228.571 Z" style="stroke-width: 2px;fill-opacity: 1;stroke-opacity: 1" stroke-width="2" fill-opacity="1" stroke-opacity="1" stroke-dasharray="0"/><path fill="#28ae7b" stroke="#000000" d="M 85.7143,128.571 L 85.7143,42.8571 L 200,42.8571 L 200,128.571 Z" style="stroke-width: 2px;fill-opacity: 1;stroke-opacity: 1" stroke-width="2" fill-opacity="1" stroke-opacity="1" stroke-dasharray="0"/><path fill="none" stroke="#000000" d="M 200,245.714 C 201,242.714 206,240.714 210,239.714 C 210,239.714 213,238.714 216,238.714 L 229.857,238.714 C 234.857,238.714 239.857,235.714 239.857,235.714 L 242.857,231.714 L 245.857,235.714 S 250.857,238.714 255.857,238.714 L 269.714,238.714 C 272.714,239.714 275.714,239.714 275.714,239.714 C 279.714,240.714 284.714,242.714 285.714,245.714" transform="rotate(180 242.857 238.71428571428572)"/><path fill="none" stroke="#000000" d="M 85.7143,285.714 C 86.7143,282.714 91.7143,280.714 95.7143,279.714 C 95.7143,279.714 98.7143,278.714 101.714,278.714 L 172.714,278.714 C 177.714,278.714 182.714,275.714 182.714,275.714 L 185.714,271.714 L 188.714,275.714 S 193.714,278.714 198.714,278.714 L 269.714,278.714 C 272.714,279.714 275.714,279.714 275.714,279.714 C 279.714,280.714 284.714,282.714 285.714,285.714" transform="rotate(180 185.71428571428572 278.7142857142857)"/><path fill="none" stroke="#000000" d="M 85.7143,40 C 86.7143,37 91.7143,35 95.7143,34 C 95.7143,34 98.7143,33 101.714,33 L 129.857,33 C 134.857,33 139.857,30 139.857,30 L 142.857,26 L 145.857,30 S 150.857,33 155.857,33 L 184,33 C 187,34 190,34 190,34 C 194,35 199,37 200,40" transform=""/></svg>