<svg xmlns="http://www.w3.org/2000/svg" width="408" height="200" viewBox="0 0 408 200"><path fill="none" stroke="#28ae7b" d="M4 96h50V56H4zM54 96h50V56H54zM104 96h50V56h-50zM154 96h50V56h-50zM204 96h50V56h-50zM254 96h50V56h-50zM304 96h50V56h-50zM354 96h50V56h-50z" stroke-width="2"/><path fill="none" stroke="#6495ed" d="M4 140h50v-40H4zM54 140h50v-40H54zM104 140h50v-40h-50zM154 140h50v-40h-50zM204 140h50v-40h-50zM254 140h50v-40h-50z" stroke-width="2"/><path fill="none" stroke="gray" d="M6 44c1-3 6-5 10-6 0 0 3-1 6-1h169c5 0 10-3 10-3l3-4 3 4s5 3 10 3h169c3 1 6 1 6 1 4 1 9 3 10 6M302 146c-1 3-6 5-10 6 0 0-3 1-6 1H167c-5 0-10 3-10 3l-3 4-3-4s-5-3-10-3H22c-3-1-6-1-6-1-4-1-9-3-10-6" stroke-width="1.5"/><ellipse cx="354" cy="76" rx="48" ry="30" fill="none" stroke="#df0030" stroke-width="2" stroke-dasharray="0"/></svg>
