<svg xmlns="http://www.w3.org/2000/svg" width="408" height="200" viewBox="0 0 408 200"><path fill="none" stroke="#28ae7b" d="M4 96h57.143V56H4zM61.143 96h57.143V56H61.143zM118.286 96h57.143V56h-57.143zM175.429 96h57.142V56h-57.142zM232.571 96h57.143V56h-57.143z" stroke-width="2"/><path fill="none" stroke="#28ae7b" d="M289.714 96h57.143V56h-57.143zM346.857 96H404V56h-57.143z" stroke-width="2"/><path fill="none" stroke="#6495ed" d="M4 140h57.143v-40H4zM61.143 140h57.143v-40H61.143zM118.286 140h57.143v-40h-57.143zM175.429 140h57.142v-40h-57.142zM232.571 140h57.143v-40h-57.143z" stroke-width="2"/><path fill="none" stroke="gray" d="M6 44c1-3 6-5 10-6 0 0 3-1 6-1h169c5 0 10-3 10-3l3-4 3 4s5 3 10 3h169c3 1 6 1 6 1 4 1 9 3 10 6M287.714 146c-1 3-6 5-10 6 0 0-3 1-6 1H159.857c-5 0-10 3-10 3l-3 4-3-4s-5-3-10-3H22c-3-1-6-1-6-1-4-1-9-3-10-6" stroke-width="1.5"/><ellipse cx="348" cy="76" rx="54" ry="32" fill="none" stroke="#df0030" stroke-width="2" stroke-dasharray="0"/></svg>
