<svg xmlns="http://www.w3.org/2000/svg" version="1.1" width="408" height="200" viewBox="0 0 408 200"><defs/><path fill="none" stroke="#28ae7b" d="M 4,96 L 48.4444,96 L 48.4444,56 L 4,56 Z" style="stroke-width: 2px" stroke-width="2"/><path fill="none" stroke="#28ae7b" d="M 48.4444,96 L 92.8889,96 L 92.8889,56 L 48.4444,56 Z" style="stroke-width: 2px" stroke-width="2"/><path fill="none" stroke="#28ae7b" d="M 92.8889,96 L 137.333,96 L 137.333,56 L 92.8889,56 Z" style="stroke-width: 2px" stroke-width="2"/><path fill="none" stroke="#28ae7b" d="M 137.333,96 L 181.778,96 L 181.778,56 L 137.333,56 Z" style="stroke-width: 2px" stroke-width="2"/><path fill="none" stroke="#28ae7b" d="M 181.778,96 L 226.222,96 L 226.222,56 L 181.778,56 Z" style="stroke-width: 2px" stroke-width="2"/><path fill="none" stroke="#28ae7b" d="M 226.222,96 L 270.667,96 L 270.667,56 L 226.222,56 Z" style="stroke-width: 2px" stroke-width="2"/><path fill="none" stroke="#28ae7b" d="M 270.667,96 L 315.111,96 L 315.111,56 L 270.667,56 Z" style="stroke-width: 2px" stroke-width="2"/><path fill="none" stroke="#28ae7b" d="M 315.111,96 L 359.556,96 L 359.556,56 L 315.111,56 Z" style="stroke-width: 2px" stroke-width="2"/><path fill="none" stroke="#28ae7b" d="M 359.556,96 L 404,96 L 404,56 L 359.556,56 Z" style="stroke-width: 2px" stroke-width="2"/><path fill="none" stroke="#6495ed" d="M 4,140 L 48.4444,140 L 48.4444,100 L 4,100 Z" style="stroke-width: 2px" stroke-width="2"/><path fill="none" stroke="#6495ed" d="M 48.4444,140 L 92.8889,140 L 92.8889,100 L 48.4444,100 Z" style="stroke-width: 2px" stroke-width="2"/><path fill="none" stroke="#6495ed" d="M 92.8889,140 L 137.333,140 L 137.333,100 L 92.8889,100 Z" style="stroke-width: 2px" stroke-width="2"/><path fill="none" stroke="#6495ed" d="M 137.333,140 L 181.778,140 L 181.778,100 L 137.333,100 Z" style="stroke-width: 2px" stroke-width="2"/><path fill="none" stroke="#6495ed" d="M 181.778,140 L 226.222,140 L 226.222,100 L 181.778,100 Z" style="stroke-width: 2px" stroke-width="2"/><path fill="none" stroke="#808080" d="M 6,44 C 7,41 12,39 16,38 C 16,38 19,37 22,37 L 191,37 C 196,37 201,34 201,34 L 204,30 L 207,34 S 212,37 217,37 L 386,37 C 389,38 392,38 392,38 C 396,39 401,41 402,44" transform="" style="stroke-width: 1.5px" stroke-width="1.5"/><path fill="none" stroke="#808080" d="M 6,160 C 7,157 12,155 16,154 C 16,154 19,153 22,153 L 102.111,153 C 107.111,153 112.111,150 112.111,150 L 115.111,146 L 118.111,150 S 123.111,153 128.111,153 L 208.222,153 C 211.222,154 214.222,154 214.222,154 C 218.222,155 223.222,157 224.222,160" transform="rotate(180 115.11099999999999 153)" style="stroke-width: 1.5px" stroke-width="1.5"/><ellipse cx="316" cy="76" rx="86" ry="32" fill="#df0030" stroke="#df0030" style="stroke-width: 2px;stroke-opacity: 1;fill-opacity: 0" stroke-width="2" stroke-opacity="1" stroke-dasharray="0" fill-opacity="0"/></svg>