<svg xmlns="http://www.w3.org/2000/svg" width="408" height="200" viewBox="0 0 408 200"><path fill="none" stroke="#28ae7b" d="M4 96h57.143V56H4zM61.143 96h57.143V56H61.143z" stroke-width="2"/><path fill="none" stroke="#6495ed" d="M4 140h57.143v-40H4zM61.143 140h57.143v-40H61.143zM118.286 140h57.143v-40h-57.143zM175.429 140h57.142v-40h-57.142zM232.571 140h57.143v-40h-57.143z" stroke-width="2"/><path fill="none" stroke="#6495ed" d="M289.714 140h57.143v-40h-57.143zM346.857 140H404v-40h-57.143z" stroke-width="2"/><path fill="none" stroke="gray" d="M6 44c1-3 6-5 10-6 0 0 3-1 6-1h26.143c5 0 10-3 10-3l3-4 3 4s5 3 10 3h26.143c3 1 6 1 6 1 4 1 9 3 10 6M402 154c-1 3-6 5-10 6 0 0-3 1-6 1H217c-5 0-10 3-10 3l-3 4-3-4s-5-3-10-3H22c-3-1-6-1-6-1-4-1-9-3-10-6" stroke-width="1.5"/></svg>
