<svg xmlns="http://www.w3.org/2000/svg" width="123.981" height="130" viewBox="0 0 123.9814814814815 130"><path fill="#ccfaff" stroke="#0c7f99" d="M6.019 116.759v12.037h12.037l6.018-6.018v-12.037H12.037z" stroke-width="2"/><path fill="#ccfaff" stroke="#0c7f99" d="M6.019 116.759h12.037v12.037M18.056 116.759l6.018-6.018M6.019 92.685v12.037h12.037l6.018-6.018V86.667H12.037z" stroke-width="2"/><path fill="#ccfaff" stroke="#0c7f99" d="M6.019 92.685h12.037v12.037M18.056 92.685l6.018-6.018" stroke-width="2"/><path fill="#ffbde0" stroke="#9e034e" d="M54.167 116.759v12.037h12.037l6.018-6.018v-12.037H60.185z" stroke-width="2"/><path fill="#ffbde0" stroke="#9e034e" d="M54.167 116.759h12.037v12.037M66.204 116.759l6.018-6.018M54.167 92.685v12.037h12.037l6.018-6.018V86.667H60.185z" stroke-width="2"/><path fill="#ffbde0" stroke="#9e034e" d="M54.167 92.685h12.037v12.037M66.204 92.685l6.018-6.018M54.167 68.611v12.037h12.037l6.018-6.018V62.593H60.185z" stroke-width="2"/><path fill="#ffbde0" stroke="#9e034e" d="M54.167 68.611h12.037v12.037M66.204 68.611l6.018-6.018" stroke-width="2"/><path fill="#ccfaff" stroke="#0c7f99" d="M102.315 116.759v12.037h12.037l6.018-6.018v-12.037h-12.037z" stroke-width="2"/><path fill="#ccfaff" stroke="#0c7f99" d="M102.315 116.759h12.037v12.037M114.352 116.759l6.018-6.018M102.315 92.685v12.037h12.037l6.018-6.018V86.667h-12.037z" stroke-width="2"/><path fill="#ccfaff" stroke="#0c7f99" d="M102.315 92.685h12.037v12.037M114.352 92.685l6.018-6.018" stroke-width="2"/><path fill="#ffbde0" stroke="#9e034e" d="M102.315 68.611v12.037h12.037l6.018-6.018V62.593h-12.037z" stroke-width="2"/><path fill="#ffbde0" stroke="#9e034e" d="M102.315 68.611h12.037v12.037M114.352 68.611l6.018-6.018M102.315 44.537v12.037h12.037l6.018-6.018V38.519h-12.037z" stroke-width="2"/><path fill="#ffbde0" stroke="#9e034e" d="M102.315 44.537h12.037v12.037M114.352 44.537l6.018-6.018M102.315 20.463V32.5h12.037l6.018-6.018V14.444h-12.037z" stroke-width="2"/><path fill="#ffbde0" stroke="#9e034e" d="M102.315 20.463h12.037V32.5M114.352 20.463l6.018-6.019" stroke-width="2"/></svg>
