<svg xmlns="http://www.w3.org/2000/svg" width="408" height="200" viewBox="0 0 408 200"><path fill="none" stroke="#28ae7b" d="M4 96h80V56H4zM84 96h80V56H84zM164 96h80V56h-80zM244 96h80V56h-80zM324 96h80V56h-80z" stroke-width="2"/><path fill="none" stroke="#6495ed" d="M4 140h80v-40H4zM84 140h80v-40H84zM164 140h80v-40h-80z" stroke-width="2"/><path fill="none" stroke="gray" d="M6 44c1-3 6-5 10-6 0 0 3-1 6-1h169c5 0 10-3 10-3l3-4 3 4s5 3 10 3h169c3 1 6 1 6 1 4 1 9 3 10 6M242 146c-1 3-6 5-10 6 0 0-3 1-6 1h-89c-5 0-10 3-10 3l-3 4-3-4s-5-3-10-3H22c-3-1-6-1-6-1-4-1-9-3-10-6" stroke-width="1.5"/><ellipse cx="324" cy="76" rx="80" ry="32" fill="none" stroke="#df0030" stroke-width="2" stroke-dasharray="0"/></svg>
