<svg xmlns="http://www.w3.org/2000/svg" width="320" height="176" viewBox="0 0 320 176"><path fill="#e07d10" stroke="#000" d="M6.154 44v36h307.692V44H6.154" stroke-width="2" fill-opacity=".3"/><path fill="#0c7f99" stroke="#000" d="M6.154 84v36h27.972V84H6.154" stroke-width="2" fill-opacity=".3"/><path fill="#ca337c" stroke="#000" d="M34.126 84v36h279.72V84H34.126" stroke-width="2" fill-opacity=".3"/><path fill="none" stroke="#000" d="M6.154 44c1-3 6-5 10-6 0 0 3-1 6-1H147c5 0 10-3 10-3l3-4 3 4s5 3 10 3h124.846c3 1 6 1 6 1 4 1 9 3 10 6M34.126 120c-.482 3-2.894 5-4.823 6 0 0-1.447 1-2.893 1-2.412 0-4.823 3-4.823 3l-1.447 4-1.447-4s-2.411-3-4.823-3c-1.446-1-2.893-1-2.893-1-1.93-1-4.341-3-4.823-6M313.846 120c-1 3-6 5-10 6 0 0-3 1-6 1h-110.86c-5 0-10 3-10 3l-3 4-3-4s-5-3-10-3H50.126c-3-1-6-1-6-1-4-1-9-3-10-6"/></svg>
