<svg xmlns="http://www.w3.org/2000/svg" width="380" height="100" viewBox="0 0 380 100"><path fill="none" stroke="#000" d="M369.45 65.6c.35-2.1 4.2-5.25 5.25-5.6-1.05-.35-4.9-3.5-5.25-5.6" stroke-width="2" stroke-linejoin="round" stroke-linecap="round"/><path fill="none" stroke="#000" d="M5 60h368.95" stroke-width="2"/><path fill="none" stroke="#000" d="M12.05 54.4c-.35 2.1-4.2 5.25-5.25 5.6 1.05.35 4.9 3.5 5.25 5.6" stroke-width="2" stroke-linejoin="round" stroke-linecap="round"/><path fill="none" stroke="#000" d="M375 60H6.05M30 66V54M34.324 66V54" stroke-width="2"/><path fill="none" stroke="#000" d="M34.324 68V52" stroke-width="3"/><path fill="none" stroke="#000" d="M38.649 66V54M42.973 66V54M47.297 66V54M51.622 66V54M55.946 66V54M60.27 66V54M64.595 66V54M68.919 66V54M73.243 66V54M77.568 66V54" stroke-width="2"/><path fill="none" stroke="#000" d="M77.568 68V52" stroke-width="3"/><path fill="none" stroke="#000" d="M81.892 66V54M86.216 66V54M90.54 66V54M94.865 66V54M99.19 66V54M103.514 66V54M107.838 66V54M112.162 66V54M116.486 66V54M120.811 66V54" stroke-width="2"/><path fill="none" stroke="#000" d="M120.811 68V52" stroke-width="3"/><path fill="none" stroke="#000" d="M125.135 66V54M129.459 66V54M133.784 66V54M138.108 66V54M142.432 66V54M146.757 66V54M151.081 66V54M155.405 66V54M159.73 66V54M164.054 66V54" stroke-width="2"/><path fill="none" stroke="#000" d="M164.054 68V52" stroke-width="3"/><path fill="none" stroke="#000" d="M168.378 66V54M172.703 66V54M177.027 66V54M181.351 66V54M185.676 66V54M190 66V54M194.324 66V54M198.649 66V54M202.973 66V54M207.297 66V54" stroke-width="2"/><path fill="none" stroke="#000" d="M207.297 68V52" stroke-width="3"/><path fill="none" stroke="#000" d="M211.622 66V54M215.946 66V54M220.27 66V54M224.595 66V54M228.919 66V54M233.243 66V54M237.568 66V54M241.892 66V54M246.216 66V54M250.541 66V54" stroke-width="2"/><path fill="none" stroke="#000" d="M250.541 68V52" stroke-width="3"/><path fill="none" stroke="#000" d="M254.865 66V54M259.189 66V54M263.514 66V54M267.838 66V54M272.162 66V54M276.486 66V54M280.811 66V54M285.135 66V54M289.459 66V54M293.784 66V54" stroke-width="2"/><path fill="none" stroke="#000" d="M293.784 68V52" stroke-width="3"/><path fill="none" stroke="#000" d="M298.108 66V54M302.432 66V54M306.757 66V54M311.081 66V54M315.405 66V54M319.73 66V54M324.054 66V54M328.378 66V54M332.703 66V54M337.027 66V54" stroke-width="2"/><path fill="none" stroke="#000" d="M337.027 68V52" stroke-width="3"/><path fill="none" stroke="#000" d="M341.351 66V54M345.676 66V54M350 66V54" stroke-width="2"/><path fill="none" stroke="#ca337c" d="M168.378 60A69.19 24 0 0 0 30 60M168.378 60l1.498-8M168.378 60l-1.625-5.472" stroke-width="2" stroke-dasharray="0"/><path fill="none" stroke="#000" d="M30 68V52" stroke-width="2" stroke-dasharray="0"/><path fill="none" stroke="#0c7f99" d="M272.162 60a51.892 24 0 0 0-103.784 0M272.162 60l1.498-8M272.162 60l-1.625-5.473" stroke-width="2" stroke-dasharray="0"/><path fill="none" stroke="#000" d="M168.378 68V52" stroke-width="2" stroke-dasharray="0"/><path fill="none" stroke="#7854ab" d="M350 60a38.919 24 0 0 0-77.838 0M350 60l1.498-8M350 60l-1.626-5.473" stroke-width="2" stroke-dasharray="0"/><path fill="none" stroke="#000" d="M272.162 68V52M350 68V52" stroke-width="2" stroke-dasharray="0"/></svg>
