<svg xmlns="http://www.w3.org/2000/svg" width="380" height="100" viewBox="0 0 380 100"><path fill="none" stroke="#000" d="M369.45 65.6c.35-2.1 4.2-5.25 5.25-5.6-1.05-.35-4.9-3.5-5.25-5.6" stroke-width="2" stroke-linejoin="round" stroke-linecap="round"/><path fill="none" stroke="#000" d="M5 60h368.95" stroke-width="2"/><path fill="none" stroke="#000" d="M12.05 54.4c-.35 2.1-4.2 5.25-5.25 5.6 1.05.35 4.9 3.5 5.25 5.6" stroke-width="2" stroke-linejoin="round" stroke-linecap="round"/><path fill="none" stroke="#000" d="M375 60H6.05M30 66V54M37.805 66V54" stroke-width="2"/><path fill="none" stroke="#000" d="M37.805 68V52" stroke-width="3"/><path fill="none" stroke="#000" d="M45.61 66V54M53.415 66V54M61.22 66V54M69.024 66V54M76.83 66V54M84.634 66V54M92.439 66V54M100.244 66V54M108.049 66V54M115.854 66V54" stroke-width="2"/><path fill="none" stroke="#000" d="M115.854 68V52" stroke-width="3"/><path fill="none" stroke="#000" d="M123.659 66V54M131.463 66V54M139.268 66V54M147.073 66V54M154.878 66V54M162.683 66V54M170.488 66V54M178.293 66V54M186.098 66V54M193.902 66V54" stroke-width="2"/><path fill="none" stroke="#000" d="M193.902 68V52" stroke-width="3"/><path fill="none" stroke="#000" d="M201.707 66V54M209.512 66V54M217.317 66V54M225.122 66V54M232.927 66V54M240.732 66V54M248.537 66V54M256.341 66V54M264.146 66V54M271.951 66V54" stroke-width="2"/><path fill="none" stroke="#000" d="M271.951 68V52" stroke-width="3"/><path fill="none" stroke="#000" d="M279.756 66V54M287.561 66V54M295.366 66V54M303.171 66V54M310.976 66V54M318.78 66V54M326.585 66V54M334.39 66V54M342.195 66V54M350 66V54" stroke-width="2"/><path fill="none" stroke="#000" d="M350 68V52" stroke-width="3"/><path fill="none" stroke="#a75a05" d="M350 68V52" stroke-width="2"/><path fill="none" stroke="#ca337c" d="M350 60a58.537 24 0 0 0-117.073 0M232.927 60l9.365-8M232.927 60l-9.366-8M232.927 68V52" stroke-width="2" stroke-dasharray="0"/><path fill="none" stroke="#7854ab" d="M232.927 60a58.537 24 0 0 0-117.073 0M115.854 60l9.365-8M115.853 60l-9.365-8M115.854 68V52" stroke-width="2" stroke-dasharray="0"/><path fill="none" stroke="#0c7f99" d="M115.854 60A42.927 24 0 0 0 30 60M30 60l9.366-8M30 60l-9.366-8M30 68V52" stroke-width="2" stroke-dasharray="0"/></svg>
