<svg xmlns="http://www.w3.org/2000/svg" width="380" height="100" viewBox="0 0 380 100"><path fill="none" stroke="#000" d="M369.45 65.6c.35-2.1 4.2-5.25 5.25-5.6-1.05-.35-4.9-3.5-5.25-5.6" stroke-width="2" stroke-linejoin="round" stroke-linecap="round"/><path fill="none" stroke="#000" d="M5 60h368.95" stroke-width="2"/><path fill="none" stroke="#000" d="M12.05 54.4c-.35 2.1-4.2 5.25-5.25 5.6 1.05.35 4.9 3.5 5.25 5.6" stroke-width="2" stroke-linejoin="round" stroke-linecap="round"/><path fill="none" stroke="#000" d="M375 60H6.05M30 66V54M34.507 66V54M39.014 66V54M43.521 66V54M48.028 66V54M52.535 66V54M57.042 66V54M61.55 66V54M66.056 66V54" stroke-width="2"/><path fill="none" stroke="#000" d="M66.056 68V52" stroke-width="3"/><path fill="none" stroke="#000" d="M70.563 66V54M75.07 66V54M79.578 66V54M84.085 66V54M88.591 66V54M93.099 66V54M97.606 66V54M102.113 66V54M106.62 66V54M111.127 66V54" stroke-width="2"/><path fill="none" stroke="#000" d="M111.127 68V52" stroke-width="3"/><path fill="none" stroke="#000" d="M115.634 66V54M120.141 66V54M124.648 66V54M129.155 66V54M133.662 66V54M138.169 66V54M142.676 66V54M147.183 66V54M151.69 66V54M156.197 66V54" stroke-width="2"/><path fill="none" stroke="#000" d="M156.197 68V52" stroke-width="3"/><path fill="none" stroke="#000" d="M160.704 66V54M165.211 66V54M169.718 66V54M174.225 66V54M178.732 66V54M183.239 66V54M187.746 66V54M192.254 66V54M196.761 66V54M201.268 66V54" stroke-width="2"/><path fill="none" stroke="#000" d="M201.268 68V52" stroke-width="3"/><path fill="none" stroke="#000" d="M205.775 66V54M210.282 66V54M214.789 66V54M219.296 66V54M223.803 66V54M228.31 66V54M232.817 66V54M237.324 66V54M241.831 66V54M246.338 66V54" stroke-width="2"/><path fill="none" stroke="#000" d="M246.338 68V52" stroke-width="3"/><path fill="none" stroke="#000" d="M250.845 66V54M255.352 66V54M259.859 66V54M264.366 66V54M268.873 66V54M273.38 66V54M277.887 66V54M282.394 66V54M286.901 66V54M291.408 66V54" stroke-width="2"/><path fill="none" stroke="#000" d="M291.408 68V52" stroke-width="3"/><path fill="none" stroke="#000" d="M295.915 66V54M300.423 66V54M304.93 66V54M309.437 66V54M313.944 66V54M318.451 66V54M322.958 66V54M327.465 66V54M331.972 66V54M336.479 66V54" stroke-width="2"/><path fill="none" stroke="#000" d="M336.479 68V52" stroke-width="3"/><path fill="none" stroke="#000" d="M340.986 66V54M345.493 66V54M350 66V54" stroke-width="2"/><path fill="none" stroke="#a75a05" d="M350 68V52" stroke-width="2"/><path fill="none" stroke="#ca337c" d="M350 60a56.338 24 0 0 0-112.676 0M237.324 60l8.383-8M237.324 60l-8.383-8M237.324 68V52" stroke-width="2" stroke-dasharray="0"/><path fill="none" stroke="#7854ab" d="M237.324 60a74.366 24 0 0 0-148.733 0M88.592 60l8.382-8M88.592 60l-8.383-8M88.591 68V52" stroke-width="2" stroke-dasharray="0"/><path fill="none" stroke="#0c7f99" d="M88.591 60A29.296 24 0 0 0 30 60M30 60l8.383-8M30 60l-8.383-8" stroke-width="2" stroke-dasharray="0"/><path fill="none" stroke="#000" d="M30 68V52" stroke-width="2" stroke-dasharray="0"/></svg>
