<svg xmlns="http://www.w3.org/2000/svg" width="380" height="100" viewBox="0 0 380 100"><path fill="none" stroke="#000" d="M369.45 65.6c.35-2.1 4.2-5.25 5.25-5.6-1.05-.35-4.9-3.5-5.25-5.6" stroke-width="2" stroke-linejoin="round" stroke-linecap="round"/><path fill="none" stroke="#000" d="M5 60h368.95" stroke-width="2"/><path fill="none" stroke="#000" d="M12.05 54.4c-.35 2.1-4.2 5.25-5.25 5.6 1.05.35 4.9 3.5 5.25 5.6" stroke-width="2" stroke-linejoin="round" stroke-linecap="round"/><path fill="none" stroke="#000" d="M375 60H6.05M30 66V54M35.08 66V54M40.159 66V54M45.238 66V54M50.318 66V54" stroke-width="2"/><path fill="none" stroke="#000" d="M50.318 68V52" stroke-width="3"/><path fill="none" stroke="#000" d="M55.397 66V54M60.476 66V54M65.556 66V54M70.635 66V54M75.714 66V54M80.794 66V54M85.873 66V54M90.952 66V54M96.032 66V54M101.111 66V54" stroke-width="2"/><path fill="none" stroke="#000" d="M101.111 68V52" stroke-width="3"/><path fill="none" stroke="#000" d="M106.19 66V54M111.27 66V54M116.349 66V54M121.429 66V54M126.508 66V54M131.587 66V54M136.667 66V54M141.746 66V54M146.825 66V54M151.905 66V54" stroke-width="2"/><path fill="none" stroke="#000" d="M151.905 68V52" stroke-width="3"/><path fill="none" stroke="#000" d="M156.984 66V54M162.063 66V54M167.143 66V54M172.222 66V54M177.302 66V54M182.381 66V54M187.46 66V54M192.54 66V54M197.619 66V54M202.698 66V54" stroke-width="2"/><path fill="none" stroke="#000" d="M202.698 68V52" stroke-width="3"/><path fill="none" stroke="#000" d="M207.778 66V54M212.857 66V54M217.937 66V54M223.016 66V54M228.095 66V54M233.175 66V54M238.254 66V54M243.333 66V54M248.413 66V54M253.492 66V54" stroke-width="2"/><path fill="none" stroke="#000" d="M253.492 68V52" stroke-width="3"/><path fill="none" stroke="#000" d="M258.571 66V54M263.651 66V54M268.73 66V54M273.81 66V54M278.889 66V54M283.968 66V54M289.048 66V54M294.127 66V54M299.206 66V54M304.286 66V54" stroke-width="2"/><path fill="none" stroke="#000" d="M304.286 68V52" stroke-width="3"/><path fill="none" stroke="#000" d="M309.365 66V54M314.444 66V54M319.524 66V54M324.603 66V54M329.683 66V54M334.762 66V54M339.841 66V54M344.921 66V54M350 66V54" stroke-width="2"/><path fill="none" stroke="#a75a05" d="M350 68V52" stroke-width="2"/><path fill="none" stroke="#ca337c" d="M350 60a35.556 24 0 0 0-71.111 0M278.889 60l8.026-8M278.889 60l-8.026-8M278.889 68V52" stroke-width="2" stroke-dasharray="0"/><path fill="none" stroke="#7854ab" d="M278.889 60a43.175 24 0 0 0-86.349 0M192.54 60l8.025-8M192.54 60l-8.025-8M192.54 68V52" stroke-width="2" stroke-dasharray="0"/><path fill="none" stroke="#0c7f99" d="M192.54 60A81.27 24 0 0 0 30 60M30 60l8.025-8M30 60l-8.025-8" stroke-width="2" stroke-dasharray="0"/><path fill="none" stroke="#000" d="M30 68V52" stroke-width="2" stroke-dasharray="0"/></svg>
