<svg xmlns="http://www.w3.org/2000/svg" width="380" height="100" viewBox="0 0 380 100"><path fill="none" stroke="#000" d="M369.45 65.6c.35-2.1 4.2-5.25 5.25-5.6-1.05-.35-4.9-3.5-5.25-5.6" stroke-width="2" stroke-linejoin="round" stroke-linecap="round"/><path fill="none" stroke="#000" d="M5 60h368.95" stroke-width="2"/><path fill="none" stroke="#000" d="M12.05 54.4c-.35 2.1-4.2 5.25-5.25 5.6 1.05.35 4.9 3.5 5.25 5.6" stroke-width="2" stroke-linejoin="round" stroke-linecap="round"/><path fill="none" stroke="#000" d="M375 60H6.05M30 66V54M34.324 66V54M38.649 66V54M42.973 66V54" stroke-width="2"/><path fill="none" stroke="#000" d="M42.973 68V52" stroke-width="3"/><path fill="none" stroke="#000" d="M47.297 66V54M51.622 66V54M55.946 66V54M60.27 66V54M64.595 66V54M68.919 66V54M73.243 66V54M77.568 66V54M81.892 66V54M86.216 66V54" stroke-width="2"/><path fill="none" stroke="#000" d="M86.216 68V52" stroke-width="3"/><path fill="none" stroke="#000" d="M90.54 66V54M94.865 66V54M99.19 66V54M103.514 66V54M107.838 66V54M112.162 66V54M116.486 66V54M120.811 66V54M125.135 66V54M129.459 66V54" stroke-width="2"/><path fill="none" stroke="#000" d="M129.459 68V52" stroke-width="3"/><path fill="none" stroke="#000" d="M133.784 66V54M138.108 66V54M142.432 66V54M146.757 66V54M151.081 66V54M155.405 66V54M159.73 66V54M164.054 66V54M168.378 66V54M172.703 66V54" stroke-width="2"/><path fill="none" stroke="#000" d="M172.703 68V52" stroke-width="3"/><path fill="none" stroke="#000" d="M177.027 66V54M181.351 66V54M185.676 66V54M190 66V54M194.324 66V54M198.649 66V54M202.973 66V54M207.297 66V54M211.622 66V54M215.946 66V54" stroke-width="2"/><path fill="none" stroke="#000" d="M215.946 68V52" stroke-width="3"/><path fill="none" stroke="#000" d="M220.27 66V54M224.595 66V54M228.919 66V54M233.243 66V54M237.568 66V54M241.892 66V54M246.216 66V54M250.541 66V54M254.865 66V54M259.189 66V54" stroke-width="2"/><path fill="none" stroke="#000" d="M259.189 68V52" stroke-width="3"/><path fill="none" stroke="#000" d="M263.514 66V54M267.838 66V54M272.162 66V54M276.486 66V54M280.811 66V54M285.135 66V54M289.459 66V54M293.784 66V54M298.108 66V54M302.432 66V54" stroke-width="2"/><path fill="none" stroke="#000" d="M302.432 68V52" stroke-width="3"/><path fill="none" stroke="#000" d="M306.757 66V54M311.081 66V54M315.405 66V54M319.73 66V54M324.054 66V54M328.378 66V54M332.703 66V54M337.027 66V54M341.351 66V54M345.676 66V54" stroke-width="2"/><path fill="none" stroke="#000" d="M345.676 68V52" stroke-width="3"/><path fill="none" stroke="#000" d="M350 66V54" stroke-width="2"/><path fill="none" stroke="#ca337c" d="M146.757 60A58.378 24 0 0 0 30 60M146.757 60l1.498-8M146.757 60l-1.626-5.472" stroke-width="2" stroke-dasharray="0"/><path fill="none" stroke="#000" d="M30 68V52" stroke-width="2" stroke-dasharray="0"/><path fill="none" stroke="#0c7f99" d="M228.919 60a41.081 24 0 0 0-82.162 0M228.919 60l1.498-8M228.919 60l-1.626-5.473" stroke-width="2" stroke-dasharray="0"/><path fill="none" stroke="#000" d="M146.757 68V52" stroke-width="2" stroke-dasharray="0"/><path fill="none" stroke="#7854ab" d="M350 60a60.54 24 0 0 0-121.081 0M350 60l1.498-8M350 60l-1.626-5.473" stroke-width="2" stroke-dasharray="0"/><path fill="none" stroke="#000" d="M228.919 68V52M350 68V52" stroke-width="2" stroke-dasharray="0"/></svg>
