<svg xmlns="http://www.w3.org/2000/svg" width="380" height="100" viewBox="0 0 380 100"><path fill="none" stroke="#000" d="M369.45 65.6c.35-2.1 4.2-5.25 5.25-5.6-1.05-.35-4.9-3.5-5.25-5.6" stroke-width="2" stroke-linejoin="round" stroke-linecap="round"/><path fill="none" stroke="#000" d="M5 60h368.95" stroke-width="2"/><path fill="none" stroke="#000" d="M12.05 54.4c-.35 2.1-4.2 5.25-5.25 5.6 1.05.35 4.9 3.5 5.25 5.6" stroke-width="2" stroke-linejoin="round" stroke-linecap="round"/><path fill="none" stroke="#000" d="M375 60H6.05M30 66V54M39.143 66V54M48.286 66V54M57.429 66V54M66.571 66V54M75.714 66V54M84.857 66V54M94 66V54" stroke-width="2"/><path fill="none" stroke="#000" d="M94 68V52" stroke-width="3"/><path fill="none" stroke="#000" d="M103.143 66V54M112.286 66V54M121.429 66V54M130.571 66V54M139.714 66V54M148.857 66V54M158 66V54M167.143 66V54M176.286 66V54M185.429 66V54" stroke-width="2"/><path fill="none" stroke="#000" d="M185.429 68V52" stroke-width="3"/><path fill="none" stroke="#000" d="M194.571 66V54M203.714 66V54M212.857 66V54M222 66V54M231.143 66V54M240.286 66V54M249.429 66V54M258.571 66V54M267.714 66V54M276.857 66V54" stroke-width="2"/><path fill="none" stroke="#000" d="M276.857 68V52" stroke-width="3"/><path fill="none" stroke="#000" d="M286 66V54M295.143 66V54M304.286 66V54M313.429 66V54M322.571 66V54M331.714 66V54M340.857 66V54M350 66V54" stroke-width="2"/><path fill="none" stroke="#ca337c" d="M158 60a64 24 0 0 0-128 0M158 60l3.167-8M158 60l-3.437-5.472" stroke-width="2" stroke-dasharray="0"/><path fill="none" stroke="#000" d="M30 68V52" stroke-width="2" stroke-dasharray="0"/><path fill="none" stroke="#0c7f99" d="M350 60a96 24 0 0 0-192 0M350 60l3.167-8M350 60l-3.437-5.472" stroke-width="2" stroke-dasharray="0"/><path fill="none" stroke="#000" d="M158 68V52M350 68V52" stroke-width="2" stroke-dasharray="0"/></svg>
