<svg xmlns="http://www.w3.org/2000/svg" width="380" height="100" viewBox="0 0 380 100"><path fill="none" stroke="#000" d="M369.45 65.6c.35-2.1 4.2-5.25 5.25-5.6-1.05-.35-4.9-3.5-5.25-5.6" stroke-width="2" stroke-linejoin="round" stroke-linecap="round"/><path fill="none" stroke="#000" d="M5 60h368.95" stroke-width="2"/><path fill="none" stroke="#000" d="M12.05 54.4c-.35 2.1-4.2 5.25-5.25 5.6 1.05.35 4.9 3.5 5.25 5.6" stroke-width="2" stroke-linejoin="round" stroke-linecap="round"/><path fill="none" stroke="#000" d="M375 60H6.05M30 66V54M34.638 66V54" stroke-width="2"/><path fill="none" stroke="#000" d="M34.638 68V52" stroke-width="3"/><path fill="none" stroke="#000" d="M39.275 66V54M43.913 66V54M48.55 66V54M53.188 66V54M57.826 66V54M62.464 66V54M67.101 66V54M71.74 66V54M76.377 66V54M81.014 66V54" stroke-width="2"/><path fill="none" stroke="#000" d="M81.014 68V52" stroke-width="3"/><path fill="none" stroke="#000" d="M85.652 66V54M90.29 66V54M94.927 66V54M99.565 66V54M104.203 66V54M108.841 66V54M113.478 66V54M118.116 66V54M122.754 66V54M127.391 66V54" stroke-width="2"/><path fill="none" stroke="#000" d="M127.391 68V52" stroke-width="3"/><path fill="none" stroke="#000" d="M132.029 66V54M136.667 66V54M141.304 66V54M145.942 66V54M150.58 66V54M155.217 66V54M159.855 66V54M164.493 66V54M169.13 66V54M173.768 66V54" stroke-width="2"/><path fill="none" stroke="#000" d="M173.768 68V52" stroke-width="3"/><path fill="none" stroke="#000" d="M178.406 66V54M183.043 66V54M187.681 66V54M192.319 66V54M196.957 66V54M201.594 66V54M206.232 66V54M210.87 66V54M215.507 66V54M220.145 66V54" stroke-width="2"/><path fill="none" stroke="#000" d="M220.145 68V52" stroke-width="3"/><path fill="none" stroke="#000" d="M224.783 66V54M229.42 66V54M234.058 66V54M238.696 66V54M243.333 66V54M247.971 66V54M252.609 66V54M257.246 66V54M261.884 66V54M266.522 66V54" stroke-width="2"/><path fill="none" stroke="#000" d="M266.522 68V52" stroke-width="3"/><path fill="none" stroke="#000" d="M271.159 66V54M275.797 66V54M280.435 66V54M285.072 66V54M289.71 66V54M294.348 66V54M298.986 66V54M303.623 66V54M308.261 66V54M312.899 66V54" stroke-width="2"/><path fill="none" stroke="#000" d="M312.899 68V52" stroke-width="3"/><path fill="none" stroke="#000" d="M317.536 66V54M322.174 66V54M326.812 66V54M331.449 66V54M336.087 66V54M340.725 66V54M345.362 66V54M350 66V54" stroke-width="2"/><path fill="none" stroke="#ca337c" d="M136.667 60A53.333 24 0 0 0 30 60M136.667 60l1.606-8M136.667 60l-1.744-5.472" stroke-width="2" stroke-dasharray="0"/><path fill="none" stroke="#000" d="M30 68V52M136.667 68V52" stroke-width="2" stroke-dasharray="0"/></svg>
