<svg xmlns="http://www.w3.org/2000/svg" width="380" height="100" viewBox="0 0 380 100"><path fill="none" stroke="#000" d="M369.45 65.6c.35-2.1 4.2-5.25 5.25-5.6-1.05-.35-4.9-3.5-5.25-5.6" stroke-width="2" stroke-linejoin="round" stroke-linecap="round"/><path fill="none" stroke="#000" d="M5 60h368.95" stroke-width="2"/><path fill="none" stroke="#000" d="M12.05 54.4c-.35 2.1-4.2 5.25-5.25 5.6 1.05.35 4.9 3.5 5.25 5.6" stroke-width="2" stroke-linejoin="round" stroke-linecap="round"/><path fill="none" stroke="#000" d="M375 60H6.05M30 66V54" stroke-width="2"/><path fill="none" stroke="#000" d="M30 68V52" stroke-width="3"/><path fill="none" stroke="#000" d="M34.923 66V54M39.846 66V54M44.77 66V54M49.692 66V54M54.615 66V54M59.538 66V54M64.462 66V54M69.385 66V54M74.308 66V54M79.23 66V54" stroke-width="2"/><path fill="none" stroke="#000" d="M79.23 68V52" stroke-width="3"/><path fill="none" stroke="#000" d="M84.154 66V54M89.077 66V54M94 66V54M98.923 66V54M103.846 66V54M108.769 66V54M113.692 66V54M118.615 66V54M123.538 66V54M128.462 66V54" stroke-width="2"/><path fill="none" stroke="#000" d="M128.462 68V52" stroke-width="3"/><path fill="none" stroke="#000" d="M133.385 66V54M138.308 66V54M143.231 66V54M148.154 66V54M153.077 66V54M158 66V54M162.923 66V54M167.846 66V54M172.769 66V54M177.692 66V54" stroke-width="2"/><path fill="none" stroke="#000" d="M177.692 68V52" stroke-width="3"/><path fill="none" stroke="#000" d="M182.615 66V54M187.538 66V54M192.462 66V54M197.385 66V54M202.308 66V54M207.231 66V54M212.154 66V54M217.077 66V54M222 66V54M226.923 66V54" stroke-width="2"/><path fill="none" stroke="#000" d="M226.923 68V52" stroke-width="3"/><path fill="none" stroke="#000" d="M231.846 66V54M236.769 66V54M241.692 66V54M246.615 66V54M251.538 66V54M256.462 66V54M261.385 66V54M266.308 66V54M271.231 66V54M276.154 66V54" stroke-width="2"/><path fill="none" stroke="#000" d="M276.154 68V52" stroke-width="3"/><path fill="none" stroke="#000" d="M281.077 66V54M286 66V54M290.923 66V54M295.846 66V54M300.769 66V54M305.692 66V54M310.615 66V54M315.538 66V54M320.462 66V54M325.385 66V54" stroke-width="2"/><path fill="none" stroke="#000" d="M325.385 68V52" stroke-width="3"/><path fill="none" stroke="#000" d="M330.308 66V54M335.231 66V54M340.154 66V54M345.077 66V54M350 66V54" stroke-width="2"/><path fill="none" stroke="#ca337c" d="M84.154 60A27.077 24 0 0 0 30 60M84.154 60l1.705-8M84.154 60l-1.85-5.472" stroke-width="2" stroke-dasharray="0"/><path fill="none" stroke="#000" d="M30 68V52" stroke-width="2" stroke-dasharray="0"/><path fill="none" stroke="#0c7f99" d="M261.385 60a88.615 24 0 0 0-177.231 0M261.385 60l1.705-8M261.384 60l-1.85-5.472" stroke-width="2" stroke-dasharray="0"/><path fill="none" stroke="#000" d="M84.154 68V52M261.385 68V52" stroke-width="2" stroke-dasharray="0"/></svg>
