<svg xmlns="http://www.w3.org/2000/svg" width="380" height="100" viewBox="0 0 380 100"><path fill="none" stroke="#000" d="M369.45 65.6c.35-2.1 4.2-5.25 5.25-5.6-1.05-.35-4.9-3.5-5.25-5.6" stroke-width="2" stroke-linejoin="round" stroke-linecap="round"/><path fill="none" stroke="#000" d="M5 60h368.95" stroke-width="2"/><path fill="none" stroke="#000" d="M12.05 54.4c-.35 2.1-4.2 5.25-5.25 5.6 1.05.35 4.9 3.5 5.25 5.6" stroke-width="2" stroke-linejoin="round" stroke-linecap="round"/><path fill="none" stroke="#000" d="M375 60H6.05M30 66V54M36.667 66V54M43.333 66V54M50 66V54M56.667 66V54M63.333 66V54M70 66V54M76.667 66V54" stroke-width="2"/><path fill="none" stroke="#000" d="M76.667 68V52" stroke-width="3"/><path fill="none" stroke="#000" d="M83.333 66V54M90 66V54M96.667 66V54M103.333 66V54M110 66V54M116.667 66V54M123.333 66V54M130 66V54M136.667 66V54M143.333 66V54" stroke-width="2"/><path fill="none" stroke="#000" d="M143.333 68V52" stroke-width="3"/><path fill="none" stroke="#000" d="M150 66V54M156.667 66V54M163.333 66V54M170 66V54M176.667 66V54M183.333 66V54M190 66V54M196.667 66V54M203.333 66V54M210 66V54" stroke-width="2"/><path fill="none" stroke="#000" d="M210 68V52" stroke-width="3"/><path fill="none" stroke="#000" d="M216.667 66V54M223.333 66V54M230 66V54M236.667 66V54M243.333 66V54M250 66V54M256.667 66V54M263.333 66V54M270 66V54M276.667 66V54" stroke-width="2"/><path fill="none" stroke="#000" d="M276.667 68V52" stroke-width="3"/><path fill="none" stroke="#000" d="M283.333 66V54M290 66V54M296.667 66V54M303.333 66V54M310 66V54M316.667 66V54M323.333 66V54M330 66V54M336.667 66V54M343.333 66V54" stroke-width="2"/><path fill="none" stroke="#000" d="M343.333 68V52" stroke-width="3"/><path fill="none" stroke="#000" d="M350 66V54" stroke-width="2"/><path fill="none" stroke="#a75a05" d="M30 68V52" stroke-width="2"/></svg>
