<svg xmlns="http://www.w3.org/2000/svg" width="460" height="80" viewBox="0 0 459.99999999999994 80"><path fill="none" stroke="#000" d="M449.45 45.6c.35-2.1 4.2-5.25 5.25-5.6-1.05-.35-4.9-3.5-5.25-5.6" stroke-width="2" stroke-linejoin="round" stroke-linecap="round"/><path fill="none" stroke="#000" d="M5 40h448.95" stroke-width="2"/><path fill="none" stroke="#000" d="M12.05 34.4c-.35 2.1-4.2 5.25-5.25 5.6 1.05.35 4.9 3.5 5.25 5.6" stroke-width="2" stroke-linejoin="round" stroke-linecap="round"/><path fill="none" stroke="#000" d="M455 40H6.05M30 48V32M39.524 48V32M49.048 48V32M58.571 48V32M68.095 48V32M77.619 48V32M87.143 48V32M96.667 48V32M106.19 48V32M115.714 48V32M125.238 48V32M134.762 48V32M144.286 48V32M153.81 48V32M163.333 48V32M172.857 48V32M182.381 48V32M191.905 48V32M201.429 48V32M210.952 48V32M220.476 48V32M230 48V32M239.524 48V32M249.048 48V32M258.571 48V32M268.095 48V32M277.619 48V32M287.143 48V32M296.667 48V32M306.19 48V32M315.714 48V32M325.238 48V32M334.762 48V32M344.286 48V32M353.81 48V32M363.333 48V32M372.857 48V32M382.381 48V32M391.905 48V32M401.429 48V32M410.952 48V32M420.476 48V32M430 48V32" stroke-width="2"/><path fill="none" stroke="#000" d="M30 48V32M144.286 48V32M277.619 48V32M430 48V32" stroke-width="3.5"/><ellipse cx="430" cy="40" rx="5" ry="5"/><ellipse cx="30" cy="40" rx="5" ry="5" fill="#ca337c"/><path fill="none" stroke="#ca337c" d="M144.286 40A57.143 24 0 0 0 30 40M30 40l3.3-8M30 40l-3.58-5.472" stroke-width="2" stroke-dasharray="0"/><path fill="none" stroke="#7854ab" d="M277.619 40a66.667 24 0 0 0-133.333 0M277.619 40l3.3-8M277.62 40l-3.58-5.472" stroke-width="2" stroke-dasharray="0"/><path fill="none" stroke="#0c7f99" d="M430 40a76.19 24 0 0 0-152.381 0M430 40l3.3-8M430 40l-3.58-5.472" stroke-width="2" stroke-dasharray="0"/></svg>
