<svg xmlns="http://www.w3.org/2000/svg" width="380" height="100" viewBox="0 0 379.99999999999994 100"><path fill="none" stroke="#000" d="M369.45 65.6c.35-2.1 4.2-5.25 5.25-5.6-1.05-.35-4.9-3.5-5.25-5.6" stroke-width="2" stroke-linejoin="round" stroke-linecap="round"/><path fill="none" stroke="#000" d="M5 60h368.95" stroke-width="2"/><path fill="none" stroke="#000" d="M12.05 54.4c-.35 2.1-4.2 5.25-5.25 5.6 1.05.35 4.9 3.5 5.25 5.6" stroke-width="2" stroke-linejoin="round" stroke-linecap="round"/><path fill="none" stroke="#000" d="M375 60H6.05M30 66V54M34.776 66V54M39.552 66V54M44.328 66V54M49.105 66V54M53.88 66V54M58.657 66V54M63.433 66V54" stroke-width="2"/><path fill="none" stroke="#000" d="M63.433 68V52" stroke-width="3"/><path fill="none" stroke="#000" d="M68.209 66V54M72.985 66V54M77.761 66V54M82.537 66V54M87.313 66V54M92.09 66V54M96.866 66V54M101.642 66V54M106.418 66V54M111.194 66V54" stroke-width="2"/><path fill="none" stroke="#000" d="M111.194 68V52" stroke-width="3"/><path fill="none" stroke="#000" d="M115.97 66V54M120.746 66V54M125.522 66V54M130.299 66V54M135.075 66V54M139.851 66V54M144.627 66V54M149.403 66V54M154.179 66V54M158.955 66V54" stroke-width="2"/><path fill="none" stroke="#000" d="M158.955 68V52" stroke-width="3"/><path fill="none" stroke="#000" d="M163.731 66V54M168.507 66V54M173.284 66V54M178.06 66V54M182.836 66V54M187.612 66V54M192.388 66V54M197.164 66V54M201.94 66V54M206.716 66V54" stroke-width="2"/><path fill="none" stroke="#000" d="M206.716 68V52" stroke-width="3"/><path fill="none" stroke="#000" d="M211.493 66V54M216.269 66V54M221.045 66V54M225.821 66V54M230.597 66V54M235.373 66V54M240.149 66V54M244.925 66V54M249.701 66V54M254.478 66V54" stroke-width="2"/><path fill="none" stroke="#000" d="M254.478 68V52" stroke-width="3"/><path fill="none" stroke="#000" d="M259.254 66V54M264.03 66V54M268.806 66V54M273.582 66V54M278.358 66V54M283.134 66V54M287.91 66V54M292.687 66V54M297.463 66V54M302.239 66V54" stroke-width="2"/><path fill="none" stroke="#000" d="M302.239 68V52" stroke-width="3"/><path fill="none" stroke="#000" d="M307.015 66V54M311.791 66V54M316.567 66V54M321.343 66V54M326.119 66V54M330.896 66V54M335.672 66V54M340.448 66V54M345.224 66V54M350 66V54" stroke-width="2"/><path fill="none" stroke="#000" d="M350 68V52" stroke-width="3"/><path fill="none" stroke="#a75a05" d="M350 68V52" stroke-width="2"/><path fill="none" stroke="#ca337c" d="M350 60a28.657 24 0 0 0-57.313 0M292.687 60l9.552-8M292.686 60l-9.551-8M292.687 68V52" stroke-width="2" stroke-dasharray="0"/><path fill="none" stroke="#7854ab" d="M292.687 60a78.806 24 0 0 0-157.612 0M135.075 60l9.552-8M135.074 60l-9.551-8M135.075 68V52" stroke-width="2" stroke-dasharray="0"/><path fill="none" stroke="#0c7f99" d="M135.075 60A52.537 24 0 0 0 30 60M30 60l9.552-8M30 60l-9.552-8" stroke-width="2" stroke-dasharray="0"/><path fill="none" stroke="#000" d="M30 68V52" stroke-width="2" stroke-dasharray="0"/></svg>
