<svg xmlns="http://www.w3.org/2000/svg" width="380" height="100" viewBox="0 0 380 100"><path fill="none" stroke="#000" d="M369.45 65.6c.35-2.1 4.2-5.25 5.25-5.6-1.05-.35-4.9-3.5-5.25-5.6" stroke-width="2" stroke-linejoin="round" stroke-linecap="round"/><path fill="none" stroke="#000" d="M5 60h368.95" stroke-width="2"/><path fill="none" stroke="#000" d="M12.05 54.4c-.35 2.1-4.2 5.25-5.25 5.6 1.05.35 4.9 3.5 5.25 5.6" stroke-width="2" stroke-linejoin="round" stroke-linecap="round"/><path fill="none" stroke="#000" d="M375 60H6.05M30 66V54M37.619 66V54M45.238 66V54M52.857 66V54M60.476 66V54M68.095 66V54M75.714 66V54M83.333 66V54M90.952 66V54" stroke-width="2"/><path fill="none" stroke="#000" d="M90.952 68V52" stroke-width="3"/><path fill="none" stroke="#000" d="M98.571 66V54M106.19 66V54M113.81 66V54M121.429 66V54M129.048 66V54M136.667 66V54M144.286 66V54M151.905 66V54M159.524 66V54M167.143 66V54" stroke-width="2"/><path fill="none" stroke="#000" d="M167.143 68V52" stroke-width="3"/><path fill="none" stroke="#000" d="M174.762 66V54M182.381 66V54M190 66V54M197.619 66V54M205.238 66V54M212.857 66V54M220.476 66V54M228.095 66V54M235.714 66V54M243.333 66V54" stroke-width="2"/><path fill="none" stroke="#000" d="M243.333 68V52" stroke-width="3"/><path fill="none" stroke="#000" d="M250.952 66V54M258.571 66V54M266.19 66V54M273.81 66V54M281.429 66V54M289.048 66V54M296.667 66V54M304.286 66V54M311.905 66V54M319.524 66V54" stroke-width="2"/><path fill="none" stroke="#000" d="M319.524 68V52" stroke-width="3"/><path fill="none" stroke="#000" d="M327.143 66V54M334.762 66V54M342.381 66V54M350 66V54" stroke-width="2"/><path fill="none" stroke="#ca337c" d="M121.429 60A45.714 24 0 0 0 30 60M121.429 60l2.639-8M121.428 60l-2.863-5.472" stroke-width="2" stroke-dasharray="0"/><path fill="none" stroke="#000" d="M30 68V52M121.429 68V52" stroke-width="2" stroke-dasharray="0"/></svg>
