<svg xmlns="http://www.w3.org/2000/svg" width="75" height="115" viewBox="0 0 75 115"><path fill="#ccfaff" stroke="#0c7f99" d="M5 100v10h10l5-5V95H10z" stroke-width="2"/><path fill="#ccfaff" stroke="#0c7f99" d="M5 100h10v10M15 100l5-5" stroke-width="2"/><path fill="#ccfaff" stroke="#0c7f99" d="M5 90v10h10l5-5V85H10z" stroke-width="2"/><path fill="#ccfaff" stroke="#0c7f99" d="M5 90h10v10M15 90l5-5" stroke-width="2"/><path fill="#ccfaff" stroke="#0c7f99" d="M5 80v10h10l5-5V75H10z" stroke-width="2"/><path fill="#ccfaff" stroke="#0c7f99" d="M5 80h10v10M15 80l5-5" stroke-width="2"/><path fill="#ccfaff" stroke="#0c7f99" d="M5 70v10h10l5-5V65H10z" stroke-width="2"/><path fill="#ccfaff" stroke="#0c7f99" d="M5 70h10v10M15 70l5-5" stroke-width="2"/><path fill="#ccfaff" stroke="#0c7f99" d="M5 60v10h10l5-5V55H10z" stroke-width="2"/><path fill="#ccfaff" stroke="#0c7f99" d="M5 60h10v10M15 60l5-5" stroke-width="2"/><path fill="#ccfaff" stroke="#0c7f99" d="M5 50v10h10l5-5V45H10z" stroke-width="2"/><path fill="#ccfaff" stroke="#0c7f99" d="M5 50h10v10M15 50l5-5" stroke-width="2"/><path fill="#ccfaff" stroke="#0c7f99" d="M5 40v10h10l5-5V35H10z" stroke-width="2"/><path fill="#ccfaff" stroke="#0c7f99" d="M5 40h10v10M15 40l5-5" stroke-width="2"/><path fill="#ccfaff" stroke="#0c7f99" d="M5 30v10h10l5-5V25H10z" stroke-width="2"/><path fill="#ccfaff" stroke="#0c7f99" d="M5 30h10v10M15 30l5-5" stroke-width="2"/><path fill="#ccfaff" stroke="#0c7f99" d="M5 20v10h10l5-5V15H10z" stroke-width="2"/><path fill="#ccfaff" stroke="#0c7f99" d="M5 20h10v10M15 20l5-5" stroke-width="2"/><path fill="#ccfaff" stroke="#0c7f99" d="M5 10v10h10l5-5V5H10z" stroke-width="2"/><path fill="#ccfaff" stroke="#0c7f99" d="M5 10h10v10M15 10l5-5M25 100v10h10l5-5V95H30z" stroke-width="2"/><path fill="#ccfaff" stroke="#0c7f99" d="M25 100h10v10M35 100l5-5" stroke-width="2"/><path fill="#ccfaff" stroke="#0c7f99" d="M25 90v10h10l5-5V85H30z" stroke-width="2"/><path fill="#ccfaff" stroke="#0c7f99" d="M25 90h10v10M35 90l5-5" stroke-width="2"/><path fill="#ccfaff" stroke="#0c7f99" d="M25 80v10h10l5-5V75H30z" stroke-width="2"/><path fill="#ccfaff" stroke="#0c7f99" d="M25 80h10v10M35 80l5-5" stroke-width="2"/><path fill="#ccfaff" stroke="#0c7f99" d="M25 70v10h10l5-5V65H30z" stroke-width="2"/><path fill="#ccfaff" stroke="#0c7f99" d="M25 70h10v10M35 70l5-5" stroke-width="2"/><path fill="#ccfaff" stroke="#0c7f99" d="M25 60v10h10l5-5V55H30z" stroke-width="2"/><path fill="#ccfaff" stroke="#0c7f99" d="M25 60h10v10M35 60l5-5" stroke-width="2"/><path fill="#ccfaff" stroke="#0c7f99" d="M25 50v10h10l5-5V45H30z" stroke-width="2"/><path fill="#ccfaff" stroke="#0c7f99" d="M25 50h10v10M35 50l5-5" stroke-width="2"/><path fill="#ccfaff" stroke="#0c7f99" d="M25 40v10h10l5-5V35H30z" stroke-width="2"/><path fill="#ccfaff" stroke="#0c7f99" d="M25 40h10v10M35 40l5-5" stroke-width="2"/><path fill="#ccfaff" stroke="#0c7f99" d="M25 30v10h10l5-5V25H30z" stroke-width="2"/><path fill="#ccfaff" stroke="#0c7f99" d="M25 30h10v10M35 30l5-5" stroke-width="2"/><path fill="#ccfaff" stroke="#0c7f99" d="M25 20v10h10l5-5V15H30z" stroke-width="2"/><path fill="#ccfaff" stroke="#0c7f99" d="M25 20h10v10M35 20l5-5" stroke-width="2"/><path fill="#ccfaff" stroke="#0c7f99" d="M25 10v10h10l5-5V5H30z" stroke-width="2"/><path fill="#ccfaff" stroke="#0c7f99" d="M25 10h10v10M35 10l5-5" stroke-width="2"/><path fill="#ffbde0" stroke="#9e034e" d="M50 100v10h10l5-5V95H55z" stroke-width="2"/><path fill="#ffbde0" stroke="#9e034e" d="M50 100h10v10M60 100l5-5M50 80v10h10l5-5V75H55z" stroke-width="2"/><path fill="#ffbde0" stroke="#9e034e" d="M50 80h10v10M60 80l5-5M50 60v10h10l5-5V55H55z" stroke-width="2"/><path fill="#ffbde0" stroke="#9e034e" d="M50 60h10v10M60 60l5-5M50 40v10h10l5-5V35H55z" stroke-width="2"/><path fill="#ffbde0" stroke="#9e034e" d="M50 40h10v10M60 40l5-5M50 20v10h10l5-5V15H55z" stroke-width="2"/><path fill="#ffbde0" stroke="#9e034e" d="M50 20h10v10M60 20l5-5" stroke-width="2"/></svg>
