<svg xmlns="http://www.w3.org/2000/svg" width="195" height="115" viewBox="0 0 195 115"><path fill="#ccfaff" stroke="#0c7f99" d="M5 100v10h10l5-5V95H10z" stroke-width="2"/><path fill="#ccfaff" stroke="#0c7f99" d="M5 100h10v10M15 100l5-5" stroke-width="2"/><path fill="#ccfaff" stroke="#0c7f99" d="M5 90v10h10l5-5V85H10z" stroke-width="2"/><path fill="#ccfaff" stroke="#0c7f99" d="M5 90h10v10M15 90l5-5" stroke-width="2"/><path fill="#ccfaff" stroke="#0c7f99" d="M5 80v10h10l5-5V75H10z" stroke-width="2"/><path fill="#ccfaff" stroke="#0c7f99" d="M5 80h10v10M15 80l5-5" stroke-width="2"/><path fill="#ccfaff" stroke="#0c7f99" d="M5 70v10h10l5-5V65H10z" stroke-width="2"/><path fill="#ccfaff" stroke="#0c7f99" d="M5 70h10v10M15 70l5-5" stroke-width="2"/><path fill="#ccfaff" stroke="#0c7f99" d="M5 60v10h10l5-5V55H10z" stroke-width="2"/><path fill="#ccfaff" stroke="#0c7f99" d="M5 60h10v10M15 60l5-5" stroke-width="2"/><path fill="#ccfaff" stroke="#0c7f99" d="M5 50v10h10l5-5V45H10z" stroke-width="2"/><path fill="#ccfaff" stroke="#0c7f99" d="M5 50h10v10M15 50l5-5" stroke-width="2"/><path fill="#ccfaff" stroke="#0c7f99" d="M5 40v10h10l5-5V35H10z" stroke-width="2"/><path fill="#ccfaff" stroke="#0c7f99" d="M5 40h10v10M15 40l5-5" stroke-width="2"/><path fill="#ccfaff" stroke="#0c7f99" d="M5 30v10h10l5-5V25H10z" stroke-width="2"/><path fill="#ccfaff" stroke="#0c7f99" d="M5 30h10v10M15 30l5-5" stroke-width="2"/><path fill="#ccfaff" stroke="#0c7f99" d="M5 20v10h10l5-5V15H10z" stroke-width="2"/><path fill="#ccfaff" stroke="#0c7f99" d="M5 20h10v10M15 20l5-5" stroke-width="2"/><path fill="#ccfaff" stroke="#0c7f99" d="M5 10v10h10l5-5V5H10z" stroke-width="2"/><path fill="#ccfaff" stroke="#0c7f99" d="M5 10h10v10M15 10l5-5M25 100v10h10l5-5V95H30z" stroke-width="2"/><path fill="#ccfaff" stroke="#0c7f99" d="M25 100h10v10M35 100l5-5" stroke-width="2"/><path fill="#ccfaff" stroke="#0c7f99" d="M25 90v10h10l5-5V85H30z" stroke-width="2"/><path fill="#ccfaff" stroke="#0c7f99" d="M25 90h10v10M35 90l5-5" stroke-width="2"/><path fill="#ccfaff" stroke="#0c7f99" d="M25 80v10h10l5-5V75H30z" stroke-width="2"/><path fill="#ccfaff" stroke="#0c7f99" d="M25 80h10v10M35 80l5-5" stroke-width="2"/><path fill="#ccfaff" stroke="#0c7f99" d="M25 70v10h10l5-5V65H30z" stroke-width="2"/><path fill="#ccfaff" stroke="#0c7f99" d="M25 70h10v10M35 70l5-5" stroke-width="2"/><path fill="#ccfaff" stroke="#0c7f99" d="M25 60v10h10l5-5V55H30z" stroke-width="2"/><path fill="#ccfaff" stroke="#0c7f99" d="M25 60h10v10M35 60l5-5" stroke-width="2"/><path fill="#ccfaff" stroke="#0c7f99" d="M25 50v10h10l5-5V45H30z" stroke-width="2"/><path fill="#ccfaff" stroke="#0c7f99" d="M25 50h10v10M35 50l5-5" stroke-width="2"/><path fill="#ccfaff" stroke="#0c7f99" d="M25 40v10h10l5-5V35H30z" stroke-width="2"/><path fill="#ccfaff" stroke="#0c7f99" d="M25 40h10v10M35 40l5-5" stroke-width="2"/><path fill="#ccfaff" stroke="#0c7f99" d="M25 30v10h10l5-5V25H30z" stroke-width="2"/><path fill="#ccfaff" stroke="#0c7f99" d="M25 30h10v10M35 30l5-5" stroke-width="2"/><path fill="#ccfaff" stroke="#0c7f99" d="M25 20v10h10l5-5V15H30z" stroke-width="2"/><path fill="#ccfaff" stroke="#0c7f99" d="M25 20h10v10M35 20l5-5" stroke-width="2"/><path fill="#ccfaff" stroke="#0c7f99" d="M25 10v10h10l5-5V5H30z" stroke-width="2"/><path fill="#ccfaff" stroke="#0c7f99" d="M25 10h10v10M35 10l5-5M45 100v10h10l5-5V95H50z" stroke-width="2"/><path fill="#ccfaff" stroke="#0c7f99" d="M45 100h10v10M55 100l5-5" stroke-width="2"/><path fill="#ccfaff" stroke="#0c7f99" d="M45 90v10h10l5-5V85H50z" stroke-width="2"/><path fill="#ccfaff" stroke="#0c7f99" d="M45 90h10v10M55 90l5-5" stroke-width="2"/><path fill="#ccfaff" stroke="#0c7f99" d="M45 80v10h10l5-5V75H50z" stroke-width="2"/><path fill="#ccfaff" stroke="#0c7f99" d="M45 80h10v10M55 80l5-5" stroke-width="2"/><path fill="#ccfaff" stroke="#0c7f99" d="M45 70v10h10l5-5V65H50z" stroke-width="2"/><path fill="#ccfaff" stroke="#0c7f99" d="M45 70h10v10M55 70l5-5" stroke-width="2"/><path fill="#ccfaff" stroke="#0c7f99" d="M45 60v10h10l5-5V55H50z" stroke-width="2"/><path fill="#ccfaff" stroke="#0c7f99" d="M45 60h10v10M55 60l5-5" stroke-width="2"/><path fill="#ccfaff" stroke="#0c7f99" d="M45 50v10h10l5-5V45H50z" stroke-width="2"/><path fill="#ccfaff" stroke="#0c7f99" d="M45 50h10v10M55 50l5-5" stroke-width="2"/><path fill="#ccfaff" stroke="#0c7f99" d="M45 40v10h10l5-5V35H50z" stroke-width="2"/><path fill="#ccfaff" stroke="#0c7f99" d="M45 40h10v10M55 40l5-5" stroke-width="2"/><path fill="#ccfaff" stroke="#0c7f99" d="M45 30v10h10l5-5V25H50z" stroke-width="2"/><path fill="#ccfaff" stroke="#0c7f99" d="M45 30h10v10M55 30l5-5" stroke-width="2"/><path fill="#ccfaff" stroke="#0c7f99" d="M45 20v10h10l5-5V15H50z" stroke-width="2"/><path fill="#ccfaff" stroke="#0c7f99" d="M45 20h10v10M55 20l5-5" stroke-width="2"/><path fill="#ccfaff" stroke="#0c7f99" d="M45 10v10h10l5-5V5H50z" stroke-width="2"/><path fill="#ccfaff" stroke="#0c7f99" d="M45 10h10v10M55 10l5-5M65 100v10h10l5-5V95H70z" stroke-width="2"/><path fill="#ccfaff" stroke="#0c7f99" d="M65 100h10v10M75 100l5-5" stroke-width="2"/><path fill="#ccfaff" stroke="#0c7f99" d="M65 90v10h10l5-5V85H70z" stroke-width="2"/><path fill="#ccfaff" stroke="#0c7f99" d="M65 90h10v10M75 90l5-5" stroke-width="2"/><path fill="#ccfaff" stroke="#0c7f99" d="M65 80v10h10l5-5V75H70z" stroke-width="2"/><path fill="#ccfaff" stroke="#0c7f99" d="M65 80h10v10M75 80l5-5" stroke-width="2"/><path fill="#ccfaff" stroke="#0c7f99" d="M65 70v10h10l5-5V65H70z" stroke-width="2"/><path fill="#ccfaff" stroke="#0c7f99" d="M65 70h10v10M75 70l5-5" stroke-width="2"/><path fill="#ccfaff" stroke="#0c7f99" d="M65 60v10h10l5-5V55H70z" stroke-width="2"/><path fill="#ccfaff" stroke="#0c7f99" d="M65 60h10v10M75 60l5-5" stroke-width="2"/><path fill="#ccfaff" stroke="#0c7f99" d="M65 50v10h10l5-5V45H70z" stroke-width="2"/><path fill="#ccfaff" stroke="#0c7f99" d="M65 50h10v10M75 50l5-5" stroke-width="2"/><path fill="#ccfaff" stroke="#0c7f99" d="M65 40v10h10l5-5V35H70z" stroke-width="2"/><path fill="#ccfaff" stroke="#0c7f99" d="M65 40h10v10M75 40l5-5" stroke-width="2"/><path fill="#ccfaff" stroke="#0c7f99" d="M65 30v10h10l5-5V25H70z" stroke-width="2"/><path fill="#ccfaff" stroke="#0c7f99" d="M65 30h10v10M75 30l5-5" stroke-width="2"/><path fill="#ccfaff" stroke="#0c7f99" d="M65 20v10h10l5-5V15H70z" stroke-width="2"/><path fill="#ccfaff" stroke="#0c7f99" d="M65 20h10v10M75 20l5-5" stroke-width="2"/><path fill="#ccfaff" stroke="#0c7f99" d="M65 10v10h10l5-5V5H70z" stroke-width="2"/><path fill="#ccfaff" stroke="#0c7f99" d="M65 10h10v10M75 10l5-5M85 100v10h10l5-5V95H90z" stroke-width="2"/><path fill="#ccfaff" stroke="#0c7f99" d="M85 100h10v10M95 100l5-5" stroke-width="2"/><path fill="#ccfaff" stroke="#0c7f99" d="M85 90v10h10l5-5V85H90z" stroke-width="2"/><path fill="#ccfaff" stroke="#0c7f99" d="M85 90h10v10M95 90l5-5" stroke-width="2"/><path fill="#ccfaff" stroke="#0c7f99" d="M85 80v10h10l5-5V75H90z" stroke-width="2"/><path fill="#ccfaff" stroke="#0c7f99" d="M85 80h10v10M95 80l5-5" stroke-width="2"/><path fill="#ccfaff" stroke="#0c7f99" d="M85 70v10h10l5-5V65H90z" stroke-width="2"/><path fill="#ccfaff" stroke="#0c7f99" d="M85 70h10v10M95 70l5-5" stroke-width="2"/><path fill="#ccfaff" stroke="#0c7f99" d="M85 60v10h10l5-5V55H90z" stroke-width="2"/><path fill="#ccfaff" stroke="#0c7f99" d="M85 60h10v10M95 60l5-5" stroke-width="2"/><path fill="#ccfaff" stroke="#0c7f99" d="M85 50v10h10l5-5V45H90z" stroke-width="2"/><path fill="#ccfaff" stroke="#0c7f99" d="M85 50h10v10M95 50l5-5" stroke-width="2"/><path fill="#ccfaff" stroke="#0c7f99" d="M85 40v10h10l5-5V35H90z" stroke-width="2"/><path fill="#ccfaff" stroke="#0c7f99" d="M85 40h10v10M95 40l5-5" stroke-width="2"/><path fill="#ccfaff" stroke="#0c7f99" d="M85 30v10h10l5-5V25H90z" stroke-width="2"/><path fill="#ccfaff" stroke="#0c7f99" d="M85 30h10v10M95 30l5-5" stroke-width="2"/><path fill="#ccfaff" stroke="#0c7f99" d="M85 20v10h10l5-5V15H90z" stroke-width="2"/><path fill="#ccfaff" stroke="#0c7f99" d="M85 20h10v10M95 20l5-5" stroke-width="2"/><path fill="#ccfaff" stroke="#0c7f99" d="M85 10v10h10l5-5V5H90z" stroke-width="2"/><path fill="#ccfaff" stroke="#0c7f99" d="M85 10h10v10M95 10l5-5M105 100v10h10l5-5V95h-10z" stroke-width="2"/><path fill="#ccfaff" stroke="#0c7f99" d="M105 100h10v10M115 100l5-5" stroke-width="2"/><path fill="#ccfaff" stroke="#0c7f99" d="M105 90v10h10l5-5V85h-10z" stroke-width="2"/><path fill="#ccfaff" stroke="#0c7f99" d="M105 90h10v10M115 90l5-5" stroke-width="2"/><path fill="#ccfaff" stroke="#0c7f99" d="M105 80v10h10l5-5V75h-10z" stroke-width="2"/><path fill="#ccfaff" stroke="#0c7f99" d="M105 80h10v10M115 80l5-5" stroke-width="2"/><path fill="#ccfaff" stroke="#0c7f99" d="M105 70v10h10l5-5V65h-10z" stroke-width="2"/><path fill="#ccfaff" stroke="#0c7f99" d="M105 70h10v10M115 70l5-5" stroke-width="2"/><path fill="#ccfaff" stroke="#0c7f99" d="M105 60v10h10l5-5V55h-10z" stroke-width="2"/><path fill="#ccfaff" stroke="#0c7f99" d="M105 60h10v10M115 60l5-5" stroke-width="2"/><path fill="#ccfaff" stroke="#0c7f99" d="M105 50v10h10l5-5V45h-10z" stroke-width="2"/><path fill="#ccfaff" stroke="#0c7f99" d="M105 50h10v10M115 50l5-5" stroke-width="2"/><path fill="#ccfaff" stroke="#0c7f99" d="M105 40v10h10l5-5V35h-10z" stroke-width="2"/><path fill="#ccfaff" stroke="#0c7f99" d="M105 40h10v10M115 40l5-5" stroke-width="2"/><path fill="#ccfaff" stroke="#0c7f99" d="M105 30v10h10l5-5V25h-10z" stroke-width="2"/><path fill="#ccfaff" stroke="#0c7f99" d="M105 30h10v10M115 30l5-5" stroke-width="2"/><path fill="#ccfaff" stroke="#0c7f99" d="M105 20v10h10l5-5V15h-10z" stroke-width="2"/><path fill="#ccfaff" stroke="#0c7f99" d="M105 20h10v10M115 20l5-5" stroke-width="2"/><path fill="#ccfaff" stroke="#0c7f99" d="M105 10v10h10l5-5V5h-10z" stroke-width="2"/><path fill="#ccfaff" stroke="#0c7f99" d="M105 10h10v10M115 10l5-5M125 100v10h10l5-5V95h-10z" stroke-width="2"/><path fill="#ccfaff" stroke="#0c7f99" d="M125 100h10v10M135 100l5-5" stroke-width="2"/><path fill="#ccfaff" stroke="#0c7f99" d="M125 90v10h10l5-5V85h-10z" stroke-width="2"/><path fill="#ccfaff" stroke="#0c7f99" d="M125 90h10v10M135 90l5-5" stroke-width="2"/><path fill="#ccfaff" stroke="#0c7f99" d="M125 80v10h10l5-5V75h-10z" stroke-width="2"/><path fill="#ccfaff" stroke="#0c7f99" d="M125 80h10v10M135 80l5-5" stroke-width="2"/><path fill="#ccfaff" stroke="#0c7f99" d="M125 70v10h10l5-5V65h-10z" stroke-width="2"/><path fill="#ccfaff" stroke="#0c7f99" d="M125 70h10v10M135 70l5-5" stroke-width="2"/><path fill="#ccfaff" stroke="#0c7f99" d="M125 60v10h10l5-5V55h-10z" stroke-width="2"/><path fill="#ccfaff" stroke="#0c7f99" d="M125 60h10v10M135 60l5-5" stroke-width="2"/><path fill="#ccfaff" stroke="#0c7f99" d="M125 50v10h10l5-5V45h-10z" stroke-width="2"/><path fill="#ccfaff" stroke="#0c7f99" d="M125 50h10v10M135 50l5-5" stroke-width="2"/><path fill="#ccfaff" stroke="#0c7f99" d="M125 40v10h10l5-5V35h-10z" stroke-width="2"/><path fill="#ccfaff" stroke="#0c7f99" d="M125 40h10v10M135 40l5-5" stroke-width="2"/><path fill="#ccfaff" stroke="#0c7f99" d="M125 30v10h10l5-5V25h-10z" stroke-width="2"/><path fill="#ccfaff" stroke="#0c7f99" d="M125 30h10v10M135 30l5-5" stroke-width="2"/><path fill="#ccfaff" stroke="#0c7f99" d="M125 20v10h10l5-5V15h-10z" stroke-width="2"/><path fill="#ccfaff" stroke="#0c7f99" d="M125 20h10v10M135 20l5-5" stroke-width="2"/><path fill="#ccfaff" stroke="#0c7f99" d="M125 10v10h10l5-5V5h-10z" stroke-width="2"/><path fill="#ccfaff" stroke="#0c7f99" d="M125 10h10v10M135 10l5-5M145 100v10h10l5-5V95h-10z" stroke-width="2"/><path fill="#ccfaff" stroke="#0c7f99" d="M145 100h10v10M155 100l5-5" stroke-width="2"/><path fill="#ccfaff" stroke="#0c7f99" d="M145 90v10h10l5-5V85h-10z" stroke-width="2"/><path fill="#ccfaff" stroke="#0c7f99" d="M145 90h10v10M155 90l5-5" stroke-width="2"/><path fill="#ccfaff" stroke="#0c7f99" d="M145 80v10h10l5-5V75h-10z" stroke-width="2"/><path fill="#ccfaff" stroke="#0c7f99" d="M145 80h10v10M155 80l5-5" stroke-width="2"/><path fill="#ccfaff" stroke="#0c7f99" d="M145 70v10h10l5-5V65h-10z" stroke-width="2"/><path fill="#ccfaff" stroke="#0c7f99" d="M145 70h10v10M155 70l5-5" stroke-width="2"/><path fill="#ccfaff" stroke="#0c7f99" d="M145 60v10h10l5-5V55h-10z" stroke-width="2"/><path fill="#ccfaff" stroke="#0c7f99" d="M145 60h10v10M155 60l5-5" stroke-width="2"/><path fill="#ccfaff" stroke="#0c7f99" d="M145 50v10h10l5-5V45h-10z" stroke-width="2"/><path fill="#ccfaff" stroke="#0c7f99" d="M145 50h10v10M155 50l5-5" stroke-width="2"/><path fill="#ccfaff" stroke="#0c7f99" d="M145 40v10h10l5-5V35h-10z" stroke-width="2"/><path fill="#ccfaff" stroke="#0c7f99" d="M145 40h10v10M155 40l5-5" stroke-width="2"/><path fill="#ccfaff" stroke="#0c7f99" d="M145 30v10h10l5-5V25h-10z" stroke-width="2"/><path fill="#ccfaff" stroke="#0c7f99" d="M145 30h10v10M155 30l5-5" stroke-width="2"/><path fill="#ccfaff" stroke="#0c7f99" d="M145 20v10h10l5-5V15h-10z" stroke-width="2"/><path fill="#ccfaff" stroke="#0c7f99" d="M145 20h10v10M155 20l5-5" stroke-width="2"/><path fill="#ccfaff" stroke="#0c7f99" d="M145 10v10h10l5-5V5h-10z" stroke-width="2"/><path fill="#ccfaff" stroke="#0c7f99" d="M145 10h10v10M155 10l5-5" stroke-width="2"/><path fill="#ffbde0" stroke="#9e034e" d="M170 100v10h10l5-5V95h-10z" stroke-width="2"/><path fill="#ffbde0" stroke="#9e034e" d="M170 100h10v10M180 100l5-5M170 80v10h10l5-5V75h-10z" stroke-width="2"/><path fill="#ffbde0" stroke="#9e034e" d="M170 80h10v10M180 80l5-5M170 60v10h10l5-5V55h-10z" stroke-width="2"/><path fill="#ffbde0" stroke="#9e034e" d="M170 60h10v10M180 60l5-5M170 40v10h10l5-5V35h-10z" stroke-width="2"/><path fill="#ffbde0" stroke="#9e034e" d="M170 40h10v10M180 40l5-5" stroke-width="2"/></svg>
