<svg xmlns="http://www.w3.org/2000/svg" width="115" height="115" viewBox="0 0 115 115"><path fill="#ccfaff" stroke="#0c7f99" d="M5 100v10h10l5-5V95H10z" stroke-width="2"/><path fill="#ccfaff" stroke="#0c7f99" d="M5 100h10v10M15 100l5-5" stroke-width="2"/><path fill="#ccfaff" stroke="#0c7f99" d="M5 90v10h10l5-5V85H10z" stroke-width="2"/><path fill="#ccfaff" stroke="#0c7f99" d="M5 90h10v10M15 90l5-5" stroke-width="2"/><path fill="#ccfaff" stroke="#0c7f99" d="M5 80v10h10l5-5V75H10z" stroke-width="2"/><path fill="#ccfaff" stroke="#0c7f99" d="M5 80h10v10M15 80l5-5" stroke-width="2"/><path fill="#ccfaff" stroke="#0c7f99" d="M5 70v10h10l5-5V65H10z" stroke-width="2"/><path fill="#ccfaff" stroke="#0c7f99" d="M5 70h10v10M15 70l5-5" stroke-width="2"/><path fill="#ccfaff" stroke="#0c7f99" d="M5 60v10h10l5-5V55H10z" stroke-width="2"/><path fill="#ccfaff" stroke="#0c7f99" d="M5 60h10v10M15 60l5-5" stroke-width="2"/><path fill="#ccfaff" stroke="#0c7f99" d="M5 50v10h10l5-5V45H10z" stroke-width="2"/><path fill="#ccfaff" stroke="#0c7f99" d="M5 50h10v10M15 50l5-5" stroke-width="2"/><path fill="#ccfaff" stroke="#0c7f99" d="M5 40v10h10l5-5V35H10z" stroke-width="2"/><path fill="#ccfaff" stroke="#0c7f99" d="M5 40h10v10M15 40l5-5" stroke-width="2"/><path fill="#ccfaff" stroke="#0c7f99" d="M5 30v10h10l5-5V25H10z" stroke-width="2"/><path fill="#ccfaff" stroke="#0c7f99" d="M5 30h10v10M15 30l5-5" stroke-width="2"/><path fill="#ccfaff" stroke="#0c7f99" d="M5 20v10h10l5-5V15H10z" stroke-width="2"/><path fill="#ccfaff" stroke="#0c7f99" d="M5 20h10v10M15 20l5-5" stroke-width="2"/><path fill="#ccfaff" stroke="#0c7f99" d="M5 10v10h10l5-5V5H10z" stroke-width="2"/><path fill="#ccfaff" stroke="#0c7f99" d="M5 10h10v10M15 10l5-5M25 100v10h10l5-5V95H30z" stroke-width="2"/><path fill="#ccfaff" stroke="#0c7f99" d="M25 100h10v10M35 100l5-5" stroke-width="2"/><path fill="#ccfaff" stroke="#0c7f99" d="M25 90v10h10l5-5V85H30z" stroke-width="2"/><path fill="#ccfaff" stroke="#0c7f99" d="M25 90h10v10M35 90l5-5" stroke-width="2"/><path fill="#ccfaff" stroke="#0c7f99" d="M25 80v10h10l5-5V75H30z" stroke-width="2"/><path fill="#ccfaff" stroke="#0c7f99" d="M25 80h10v10M35 80l5-5" stroke-width="2"/><path fill="#ccfaff" stroke="#0c7f99" d="M25 70v10h10l5-5V65H30z" stroke-width="2"/><path fill="#ccfaff" stroke="#0c7f99" d="M25 70h10v10M35 70l5-5" stroke-width="2"/><path fill="#ccfaff" stroke="#0c7f99" d="M25 60v10h10l5-5V55H30z" stroke-width="2"/><path fill="#ccfaff" stroke="#0c7f99" d="M25 60h10v10M35 60l5-5" stroke-width="2"/><path fill="#ccfaff" stroke="#0c7f99" d="M25 50v10h10l5-5V45H30z" stroke-width="2"/><path fill="#ccfaff" stroke="#0c7f99" d="M25 50h10v10M35 50l5-5" stroke-width="2"/><path fill="#ccfaff" stroke="#0c7f99" d="M25 40v10h10l5-5V35H30z" stroke-width="2"/><path fill="#ccfaff" stroke="#0c7f99" d="M25 40h10v10M35 40l5-5" stroke-width="2"/><path fill="#ccfaff" stroke="#0c7f99" d="M25 30v10h10l5-5V25H30z" stroke-width="2"/><path fill="#ccfaff" stroke="#0c7f99" d="M25 30h10v10M35 30l5-5" stroke-width="2"/><path fill="#ccfaff" stroke="#0c7f99" d="M25 20v10h10l5-5V15H30z" stroke-width="2"/><path fill="#ccfaff" stroke="#0c7f99" d="M25 20h10v10M35 20l5-5" stroke-width="2"/><path fill="#ccfaff" stroke="#0c7f99" d="M25 10v10h10l5-5V5H30z" stroke-width="2"/><path fill="#ccfaff" stroke="#0c7f99" d="M25 10h10v10M35 10l5-5M45 100v10h10l5-5V95H50z" stroke-width="2"/><path fill="#ccfaff" stroke="#0c7f99" d="M45 100h10v10M55 100l5-5" stroke-width="2"/><path fill="#ccfaff" stroke="#0c7f99" d="M45 90v10h10l5-5V85H50z" stroke-width="2"/><path fill="#ccfaff" stroke="#0c7f99" d="M45 90h10v10M55 90l5-5" stroke-width="2"/><path fill="#ccfaff" stroke="#0c7f99" d="M45 80v10h10l5-5V75H50z" stroke-width="2"/><path fill="#ccfaff" stroke="#0c7f99" d="M45 80h10v10M55 80l5-5" stroke-width="2"/><path fill="#ccfaff" stroke="#0c7f99" d="M45 70v10h10l5-5V65H50z" stroke-width="2"/><path fill="#ccfaff" stroke="#0c7f99" d="M45 70h10v10M55 70l5-5" stroke-width="2"/><path fill="#ccfaff" stroke="#0c7f99" d="M45 60v10h10l5-5V55H50z" stroke-width="2"/><path fill="#ccfaff" stroke="#0c7f99" d="M45 60h10v10M55 60l5-5" stroke-width="2"/><path fill="#ccfaff" stroke="#0c7f99" d="M45 50v10h10l5-5V45H50z" stroke-width="2"/><path fill="#ccfaff" stroke="#0c7f99" d="M45 50h10v10M55 50l5-5" stroke-width="2"/><path fill="#ccfaff" stroke="#0c7f99" d="M45 40v10h10l5-5V35H50z" stroke-width="2"/><path fill="#ccfaff" stroke="#0c7f99" d="M45 40h10v10M55 40l5-5" stroke-width="2"/><path fill="#ccfaff" stroke="#0c7f99" d="M45 30v10h10l5-5V25H50z" stroke-width="2"/><path fill="#ccfaff" stroke="#0c7f99" d="M45 30h10v10M55 30l5-5" stroke-width="2"/><path fill="#ccfaff" stroke="#0c7f99" d="M45 20v10h10l5-5V15H50z" stroke-width="2"/><path fill="#ccfaff" stroke="#0c7f99" d="M45 20h10v10M55 20l5-5" stroke-width="2"/><path fill="#ccfaff" stroke="#0c7f99" d="M45 10v10h10l5-5V5H50z" stroke-width="2"/><path fill="#ccfaff" stroke="#0c7f99" d="M45 10h10v10M55 10l5-5M65 100v10h10l5-5V95H70z" stroke-width="2"/><path fill="#ccfaff" stroke="#0c7f99" d="M65 100h10v10M75 100l5-5" stroke-width="2"/><path fill="#ccfaff" stroke="#0c7f99" d="M65 90v10h10l5-5V85H70z" stroke-width="2"/><path fill="#ccfaff" stroke="#0c7f99" d="M65 90h10v10M75 90l5-5" stroke-width="2"/><path fill="#ccfaff" stroke="#0c7f99" d="M65 80v10h10l5-5V75H70z" stroke-width="2"/><path fill="#ccfaff" stroke="#0c7f99" d="M65 80h10v10M75 80l5-5" stroke-width="2"/><path fill="#ccfaff" stroke="#0c7f99" d="M65 70v10h10l5-5V65H70z" stroke-width="2"/><path fill="#ccfaff" stroke="#0c7f99" d="M65 70h10v10M75 70l5-5" stroke-width="2"/><path fill="#ccfaff" stroke="#0c7f99" d="M65 60v10h10l5-5V55H70z" stroke-width="2"/><path fill="#ccfaff" stroke="#0c7f99" d="M65 60h10v10M75 60l5-5" stroke-width="2"/><path fill="#ccfaff" stroke="#0c7f99" d="M65 50v10h10l5-5V45H70z" stroke-width="2"/><path fill="#ccfaff" stroke="#0c7f99" d="M65 50h10v10M75 50l5-5" stroke-width="2"/><path fill="#ccfaff" stroke="#0c7f99" d="M65 40v10h10l5-5V35H70z" stroke-width="2"/><path fill="#ccfaff" stroke="#0c7f99" d="M65 40h10v10M75 40l5-5" stroke-width="2"/><path fill="#ccfaff" stroke="#0c7f99" d="M65 30v10h10l5-5V25H70z" stroke-width="2"/><path fill="#ccfaff" stroke="#0c7f99" d="M65 30h10v10M75 30l5-5" stroke-width="2"/><path fill="#ccfaff" stroke="#0c7f99" d="M65 20v10h10l5-5V15H70z" stroke-width="2"/><path fill="#ccfaff" stroke="#0c7f99" d="M65 20h10v10M75 20l5-5" stroke-width="2"/><path fill="#ccfaff" stroke="#0c7f99" d="M65 10v10h10l5-5V5H70z" stroke-width="2"/><path fill="#ccfaff" stroke="#0c7f99" d="M65 10h10v10M75 10l5-5" stroke-width="2"/><path fill="#ffbde0" stroke="#9e034e" d="M90 100v10h10l5-5V95H95z" stroke-width="2"/><path fill="#ffbde0" stroke="#9e034e" d="M90 100h10v10M100 100l5-5M90 80v10h10l5-5V75H95z" stroke-width="2"/><path fill="#ffbde0" stroke="#9e034e" d="M90 80h10v10M100 80l5-5" stroke-width="2"/></svg>
