<svg xmlns="http://www.w3.org/2000/svg" width="222.385" height="120" viewBox="0 0 222.38532110091745 120"><path fill="#ccfaff" stroke="#0c7f99" d="M4.404 106.789v11.009h11.009l5.504-5.504v-11.01H9.908z" stroke-width="2"/><path fill="#ccfaff" stroke="#0c7f99" d="M4.404 106.789h11.009v11.009M15.413 106.789l5.504-5.505" stroke-width="2"/><path fill="#ccfaff" stroke="#0c7f99" d="M4.404 95.78v11.009h11.009l5.504-5.505V90.275H9.908z" stroke-width="2"/><path fill="#ccfaff" stroke="#0c7f99" d="M4.404 95.78h11.009v11.009M15.413 95.78l5.504-5.505" stroke-width="2"/><path fill="#ccfaff" stroke="#0c7f99" d="M4.404 84.77v11.01h11.009l5.504-5.505V79.266H9.908z" stroke-width="2"/><path fill="#ccfaff" stroke="#0c7f99" d="M4.404 84.77h11.009v11.01M15.413 84.77l5.504-5.504" stroke-width="2"/><path fill="#ccfaff" stroke="#0c7f99" d="M4.404 73.761v11.01h11.009l5.504-5.505v-11.01H9.908z" stroke-width="2"/><path fill="#ccfaff" stroke="#0c7f99" d="M4.404 73.761h11.009v11.01M15.413 73.761l5.504-5.504" stroke-width="2"/><path fill="#ccfaff" stroke="#0c7f99" d="M4.404 62.752v11.01h11.009l5.504-5.505v-11.01H9.908z" stroke-width="2"/><path fill="#ccfaff" stroke="#0c7f99" d="M4.404 62.752h11.009v11.01M15.413 62.752l5.504-5.504" stroke-width="2"/><path fill="#ccfaff" stroke="#0c7f99" d="M4.404 51.743v11.01h11.009l5.504-5.505v-11.01H9.908z" stroke-width="2"/><path fill="#ccfaff" stroke="#0c7f99" d="M4.404 51.743h11.009v11.01M15.413 51.743l5.504-5.505" stroke-width="2"/><path fill="#ccfaff" stroke="#0c7f99" d="M4.404 40.734v11.01h11.009l5.504-5.505v-11.01H9.908z" stroke-width="2"/><path fill="#ccfaff" stroke="#0c7f99" d="M4.404 40.734h11.009v11.01M15.413 40.734l5.504-5.505" stroke-width="2"/><path fill="#ccfaff" stroke="#0c7f99" d="M4.404 29.725v11.009h11.009l5.504-5.505V24.22H9.908z" stroke-width="2"/><path fill="#ccfaff" stroke="#0c7f99" d="M4.404 29.725h11.009v11.009M15.413 29.725l5.504-5.505" stroke-width="2"/><path fill="#ccfaff" stroke="#0c7f99" d="M4.404 18.716v11.009h11.009l5.504-5.505V13.211H9.908z" stroke-width="2"/><path fill="#ccfaff" stroke="#0c7f99" d="M4.404 18.716h11.009v11.009M15.413 18.716l5.504-5.505" stroke-width="2"/><path fill="#ccfaff" stroke="#0c7f99" d="M4.404 7.706v11.01h11.009l5.504-5.505V2.201H9.908z" stroke-width="2"/><path fill="#ccfaff" stroke="#0c7f99" d="M4.404 7.706h11.009v11.01M15.413 7.706l5.504-5.504M26.422 106.789v11.009h11.01l5.504-5.504v-11.01h-11.01z" stroke-width="2"/><path fill="#ccfaff" stroke="#0c7f99" d="M26.422 106.789h11.01v11.009M37.431 106.789l5.505-5.505" stroke-width="2"/><path fill="#ccfaff" stroke="#0c7f99" d="M26.422 95.78v11.009h11.01l5.504-5.505V90.275h-11.01z" stroke-width="2"/><path fill="#ccfaff" stroke="#0c7f99" d="M26.422 95.78h11.01v11.009M37.431 95.78l5.505-5.505" stroke-width="2"/><path fill="#ccfaff" stroke="#0c7f99" d="M26.422 84.77v11.01h11.01l5.504-5.505V79.266h-11.01z" stroke-width="2"/><path fill="#ccfaff" stroke="#0c7f99" d="M26.422 84.77h11.01v11.01M37.431 84.77l5.505-5.504" stroke-width="2"/><path fill="#ccfaff" stroke="#0c7f99" d="M26.422 73.761v11.01h11.01l5.504-5.505v-11.01h-11.01z" stroke-width="2"/><path fill="#ccfaff" stroke="#0c7f99" d="M26.422 73.761h11.01v11.01M37.431 73.761l5.505-5.504" stroke-width="2"/><path fill="#ccfaff" stroke="#0c7f99" d="M26.422 62.752v11.01h11.01l5.504-5.505v-11.01h-11.01z" stroke-width="2"/><path fill="#ccfaff" stroke="#0c7f99" d="M26.422 62.752h11.01v11.01M37.431 62.752l5.505-5.504" stroke-width="2"/><path fill="#ccfaff" stroke="#0c7f99" d="M26.422 51.743v11.01h11.01l5.504-5.505v-11.01h-11.01z" stroke-width="2"/><path fill="#ccfaff" stroke="#0c7f99" d="M26.422 51.743h11.01v11.01M37.431 51.743l5.505-5.505" stroke-width="2"/><path fill="#ffbde0" stroke="#9e034e" d="M26.422 40.734v11.01h11.01l5.504-5.505v-11.01h-11.01z" stroke-width="2"/><path fill="#ffbde0" stroke="#9e034e" d="M26.422 40.734h11.01v11.01M37.431 40.734l5.505-5.505" stroke-width="2"/><path fill="#ffbde0" stroke="#9e034e" d="M26.422 29.725v11.009h11.01l5.504-5.505V24.22h-11.01z" stroke-width="2"/><path fill="#ffbde0" stroke="#9e034e" d="M26.422 29.725h11.01v11.009M37.431 29.725l5.505-5.505" stroke-width="2"/><path fill="#ffbde0" stroke="#9e034e" d="M26.422 18.716v11.009h11.01l5.504-5.505V13.211h-11.01z" stroke-width="2"/><path fill="#ffbde0" stroke="#9e034e" d="M26.422 18.716h11.01v11.009M37.431 18.716l5.505-5.505" stroke-width="2"/><path fill="#ffbde0" stroke="#9e034e" d="M26.422 7.706v11.01h11.01l5.504-5.505V2.201h-11.01z" stroke-width="2"/><path fill="#ffbde0" stroke="#9e034e" d="M26.422 7.706h11.01v11.01M37.431 7.706l5.505-5.504" stroke-width="2"/><path fill="#ffbde0" stroke="#000" d="M25.321 39.633l13.211 13.211M25.321 52.844l13.211-13.211M25.321 28.624l13.211 13.21M25.321 41.835l13.211-13.211M25.321 17.615l13.211 13.21M25.321 30.826l13.211-13.211M25.321 6.606l13.211 13.21M25.321 19.817L38.532 6.605" stroke-width="2"/><path fill="#ffbde0" stroke="#9e034e" d="M48.44 106.789v11.009h11.01l5.504-5.504v-11.01H53.945z" stroke-width="2"/><path fill="#ffbde0" stroke="#9e034e" d="M48.44 106.789h11.01v11.009M59.45 106.789l5.504-5.505" stroke-width="2"/><path fill="#ffbde0" stroke="#9e034e" d="M48.44 95.78v11.009h11.01l5.504-5.505V90.275H53.945z" stroke-width="2"/><path fill="#ffbde0" stroke="#9e034e" d="M48.44 95.78h11.01v11.009M59.45 95.78l5.504-5.505" stroke-width="2"/><path fill="#ffbde0" stroke="#9e034e" d="M48.44 84.77v11.01h11.01l5.504-5.505V79.266H53.945z" stroke-width="2"/><path fill="#ffbde0" stroke="#9e034e" d="M48.44 84.77h11.01v11.01M59.45 84.77l5.504-5.504" stroke-width="2"/><path fill="#ffbde0" stroke="#9e034e" d="M48.44 73.761v11.01h11.01l5.504-5.505v-11.01H53.945z" stroke-width="2"/><path fill="#ffbde0" stroke="#9e034e" d="M48.44 73.761h11.01v11.01M59.45 73.761l5.504-5.504" stroke-width="2"/><path fill="#ffbde0" stroke="#9e034e" d="M48.44 62.752v11.01h11.01l5.504-5.505v-11.01H53.945z" stroke-width="2"/><path fill="#ffbde0" stroke="#9e034e" d="M48.44 62.752h11.01v11.01M59.45 62.752l5.504-5.504" stroke-width="2"/><path fill="#ffbde0" stroke="#9e034e" d="M48.44 51.743v11.01h11.01l5.504-5.505v-11.01H53.945z" stroke-width="2"/><path fill="#ffbde0" stroke="#9e034e" d="M48.44 51.743h11.01v11.01M59.45 51.743l5.504-5.505" stroke-width="2"/><path fill="#ffbde0" stroke="#9e034e" d="M48.44 40.734v11.01h11.01l5.504-5.505v-11.01H53.945z" stroke-width="2"/><path fill="#ffbde0" stroke="#9e034e" d="M48.44 40.734h11.01v11.01M59.45 40.734l5.504-5.505" stroke-width="2"/><path fill="#ffbde0" stroke="#9e034e" d="M48.44 29.725v11.009h11.01l5.504-5.505V24.22H53.945z" stroke-width="2"/><path fill="#ffbde0" stroke="#9e034e" d="M48.44 29.725h11.01v11.009M59.45 29.725l5.504-5.505" stroke-width="2"/><path fill="#ffbde0" stroke="#9e034e" d="M48.44 18.716v11.009h11.01l5.504-5.505V13.211H53.945z" stroke-width="2"/><path fill="#ffbde0" stroke="#9e034e" d="M48.44 18.716h11.01v11.009M59.45 18.716l5.504-5.505" stroke-width="2"/><path fill="#ffbde0" stroke="#9e034e" d="M48.44 7.706v11.01h11.01l5.504-5.505V2.201H53.945z" stroke-width="2"/><path fill="#ffbde0" stroke="#9e034e" d="M48.44 7.706h11.01v11.01M59.45 7.706l5.504-5.504" stroke-width="2"/><path fill="#ffbde0" stroke="#000" d="M47.34 105.688l13.21 13.211M47.34 118.899l13.21-13.211M47.34 94.679l13.21 13.211M47.34 107.89l13.21-13.211M47.34 83.67l13.21 13.21M47.34 96.88l13.21-13.21M47.34 72.66l13.21 13.212M47.34 85.872L60.55 72.66M47.34 61.651l13.21 13.211M47.34 74.862l13.21-13.21M47.34 50.642l13.21 13.211M47.34 63.853l13.21-13.21M47.34 39.633l13.21 13.211M47.34 52.844l13.21-13.211M47.34 28.624l13.21 13.21M47.34 41.835l13.21-13.211M47.34 17.615l13.21 13.21M47.34 30.826l13.21-13.211M47.34 6.606l13.21 13.21M47.34 19.817L60.55 6.605" stroke-width="2"/><path fill="#ffbde0" stroke="#9e034e" d="M70.459 106.789v11.009h11.009l5.504-5.504v-11.01H75.963z" stroke-width="2"/><path fill="#ffbde0" stroke="#9e034e" d="M70.459 106.789h11.009v11.009M81.468 106.789l5.504-5.505" stroke-width="2"/><path fill="#ffbde0" stroke="#9e034e" d="M70.459 95.78v11.009h11.009l5.504-5.505V90.275H75.963z" stroke-width="2"/><path fill="#ffbde0" stroke="#9e034e" d="M70.459 95.78h11.009v11.009M81.468 95.78l5.504-5.505" stroke-width="2"/><path fill="#ffbde0" stroke="#9e034e" d="M70.459 84.77v11.01h11.009l5.504-5.505V79.266H75.963z" stroke-width="2"/><path fill="#ffbde0" stroke="#9e034e" d="M70.459 84.77h11.009v11.01M81.468 84.77l5.504-5.504" stroke-width="2"/><path fill="#ffbde0" stroke="#9e034e" d="M70.459 73.761v11.01h11.009l5.504-5.505v-11.01H75.963z" stroke-width="2"/><path fill="#ffbde0" stroke="#9e034e" d="M70.459 73.761h11.009v11.01M81.468 73.761l5.504-5.504" stroke-width="2"/><path fill="#ffbde0" stroke="#9e034e" d="M70.459 62.752v11.01h11.009l5.504-5.505v-11.01H75.963z" stroke-width="2"/><path fill="#ffbde0" stroke="#9e034e" d="M70.459 62.752h11.009v11.01M81.468 62.752l5.504-5.504" stroke-width="2"/><path fill="#ffbde0" stroke="#9e034e" d="M70.459 51.743v11.01h11.009l5.504-5.505v-11.01H75.963z" stroke-width="2"/><path fill="#ffbde0" stroke="#9e034e" d="M70.459 51.743h11.009v11.01M81.468 51.743l5.504-5.505" stroke-width="2"/><path fill="#ffbde0" stroke="#9e034e" d="M70.459 40.734v11.01h11.009l5.504-5.505v-11.01H75.963z" stroke-width="2"/><path fill="#ffbde0" stroke="#9e034e" d="M70.459 40.734h11.009v11.01M81.468 40.734l5.504-5.505" stroke-width="2"/><path fill="#ffbde0" stroke="#9e034e" d="M70.459 29.725v11.009h11.009l5.504-5.505V24.22H75.963z" stroke-width="2"/><path fill="#ffbde0" stroke="#9e034e" d="M70.459 29.725h11.009v11.009M81.468 29.725l5.504-5.505" stroke-width="2"/><path fill="#ffbde0" stroke="#9e034e" d="M70.459 18.716v11.009h11.009l5.504-5.505V13.211H75.963z" stroke-width="2"/><path fill="#ffbde0" stroke="#9e034e" d="M70.459 18.716h11.009v11.009M81.468 18.716l5.504-5.505" stroke-width="2"/><path fill="#ffbde0" stroke="#9e034e" d="M70.459 7.706v11.01h11.009l5.504-5.505V2.201H75.963z" stroke-width="2"/><path fill="#ffbde0" stroke="#9e034e" d="M70.459 7.706h11.009v11.01M81.468 7.706l5.504-5.504" stroke-width="2"/><path fill="#ffbde0" stroke="#000" d="M69.358 105.688l13.21 13.211M69.358 118.899l13.21-13.211M69.358 94.679l13.21 13.211M69.358 107.89l13.21-13.211M69.358 83.67l13.21 13.21M69.358 96.88l13.21-13.21M69.358 72.66l13.21 13.212M69.358 85.872l13.21-13.211M69.358 61.651l13.21 13.211M69.358 74.862l13.21-13.21M69.358 50.642l13.21 13.211M69.358 63.853l13.21-13.21M69.358 39.633l13.21 13.211M69.358 52.844l13.21-13.211M69.358 28.624l13.21 13.21M69.358 41.835l13.21-13.211M69.358 17.615l13.21 13.21M69.358 30.826l13.21-13.211M69.358 6.606l13.21 13.21M69.358 19.817l13.21-13.212" stroke-width="2"/><path fill="#ffbde0" stroke="#9e034e" d="M92.477 106.789v11.009h11.009l5.505-5.504v-11.01h-11.01z" stroke-width="2"/><path fill="#ffbde0" stroke="#9e034e" d="M92.477 106.789h11.009v11.009M103.486 106.789l5.505-5.505" stroke-width="2"/><path fill="#ffbde0" stroke="#9e034e" d="M92.477 95.78v11.009h11.009l5.505-5.505V90.275h-11.01z" stroke-width="2"/><path fill="#ffbde0" stroke="#9e034e" d="M92.477 95.78h11.009v11.009M103.486 95.78l5.505-5.505" stroke-width="2"/><path fill="#ffbde0" stroke="#9e034e" d="M92.477 84.77v11.01h11.009l5.505-5.505V79.266h-11.01z" stroke-width="2"/><path fill="#ffbde0" stroke="#9e034e" d="M92.477 84.77h11.009v11.01M103.486 84.77l5.505-5.504" stroke-width="2"/><path fill="#ffbde0" stroke="#9e034e" d="M92.477 73.761v11.01h11.009l5.505-5.505v-11.01h-11.01z" stroke-width="2"/><path fill="#ffbde0" stroke="#9e034e" d="M92.477 73.761h11.009v11.01M103.486 73.761l5.505-5.504" stroke-width="2"/><path fill="#ffbde0" stroke="#9e034e" d="M92.477 62.752v11.01h11.009l5.505-5.505v-11.01h-11.01z" stroke-width="2"/><path fill="#ffbde0" stroke="#9e034e" d="M92.477 62.752h11.009v11.01M103.486 62.752l5.505-5.504" stroke-width="2"/><path fill="#ffbde0" stroke="#9e034e" d="M92.477 51.743v11.01h11.009l5.505-5.505v-11.01h-11.01z" stroke-width="2"/><path fill="#ffbde0" stroke="#9e034e" d="M92.477 51.743h11.009v11.01M103.486 51.743l5.505-5.505" stroke-width="2"/><path fill="#ffbde0" stroke="#9e034e" d="M92.477 40.734v11.01h11.009l5.505-5.505v-11.01h-11.01z" stroke-width="2"/><path fill="#ffbde0" stroke="#9e034e" d="M92.477 40.734h11.009v11.01M103.486 40.734l5.505-5.505" stroke-width="2"/><path fill="#ffbde0" stroke="#9e034e" d="M92.477 29.725v11.009h11.009l5.505-5.505V24.22h-11.01z" stroke-width="2"/><path fill="#ffbde0" stroke="#9e034e" d="M92.477 29.725h11.009v11.009M103.486 29.725l5.505-5.505" stroke-width="2"/><path fill="#ffbde0" stroke="#9e034e" d="M92.477 18.716v11.009h11.009l5.505-5.505V13.211h-11.01z" stroke-width="2"/><path fill="#ffbde0" stroke="#9e034e" d="M92.477 18.716h11.009v11.009M103.486 18.716l5.505-5.505" stroke-width="2"/><path fill="#ffbde0" stroke="#9e034e" d="M92.477 7.706v11.01h11.009l5.505-5.505V2.201h-11.01z" stroke-width="2"/><path fill="#ffbde0" stroke="#9e034e" d="M92.477 7.706h11.009v11.01M103.486 7.706l5.505-5.504" stroke-width="2"/><path fill="#ffbde0" stroke="#000" d="M91.376 105.688l13.211 13.211M91.376 118.899l13.211-13.211M91.376 94.679l13.211 13.211M91.376 107.89l13.211-13.211M91.376 83.67l13.211 13.21M91.376 96.88l13.211-13.21M91.376 72.66l13.211 13.212M91.376 85.872l13.211-13.211M91.376 61.651l13.211 13.211M91.376 74.862l13.211-13.21M91.376 50.642l13.211 13.211M91.376 63.853l13.211-13.21M91.376 39.633l13.211 13.211M91.376 52.844l13.211-13.211M91.376 28.624l13.211 13.21M91.376 41.835l13.211-13.211M91.376 17.615l13.211 13.21M91.376 30.826l13.211-13.211M91.376 6.606l13.211 13.21M91.376 19.817l13.211-13.212" stroke-width="2"/><path fill="#ffbde0" stroke="#9e034e" d="M114.495 106.789v11.009h11.01l5.504-5.504v-11.01H120z" stroke-width="2"/><path fill="#ffbde0" stroke="#9e034e" d="M114.495 106.789h11.01v11.009M125.505 106.789l5.504-5.505" stroke-width="2"/><path fill="#ffbde0" stroke="#9e034e" d="M114.495 95.78v11.009h11.01l5.504-5.505V90.275H120z" stroke-width="2"/><path fill="#ffbde0" stroke="#9e034e" d="M114.495 95.78h11.01v11.009M125.505 95.78l5.504-5.505" stroke-width="2"/><path fill="#ffbde0" stroke="#9e034e" d="M114.495 84.77v11.01h11.01l5.504-5.505V79.266H120z" stroke-width="2"/><path fill="#ffbde0" stroke="#9e034e" d="M114.495 84.77h11.01v11.01M125.505 84.77l5.504-5.504" stroke-width="2"/><path fill="#ffbde0" stroke="#9e034e" d="M114.495 73.761v11.01h11.01l5.504-5.505v-11.01H120z" stroke-width="2"/><path fill="#ffbde0" stroke="#9e034e" d="M114.495 73.761h11.01v11.01M125.505 73.761l5.504-5.504" stroke-width="2"/><path fill="#ffbde0" stroke="#9e034e" d="M114.495 62.752v11.01h11.01l5.504-5.505v-11.01H120z" stroke-width="2"/><path fill="#ffbde0" stroke="#9e034e" d="M114.495 62.752h11.01v11.01M125.505 62.752l5.504-5.504" stroke-width="2"/><path fill="#ffbde0" stroke="#9e034e" d="M114.495 51.743v11.01h11.01l5.504-5.505v-11.01H120z" stroke-width="2"/><path fill="#ffbde0" stroke="#9e034e" d="M114.495 51.743h11.01v11.01M125.505 51.743l5.504-5.505" stroke-width="2"/><path fill="#ffbde0" stroke="#9e034e" d="M114.495 40.734v11.01h11.01l5.504-5.505v-11.01H120z" stroke-width="2"/><path fill="#ffbde0" stroke="#9e034e" d="M114.495 40.734h11.01v11.01M125.505 40.734l5.504-5.505" stroke-width="2"/><path fill="#ffbde0" stroke="#9e034e" d="M114.495 29.725v11.009h11.01l5.504-5.505V24.22H120z" stroke-width="2"/><path fill="#ffbde0" stroke="#9e034e" d="M114.495 29.725h11.01v11.009M125.505 29.725l5.504-5.505" stroke-width="2"/><path fill="#ffbde0" stroke="#9e034e" d="M114.495 18.716v11.009h11.01l5.504-5.505V13.211H120z" stroke-width="2"/><path fill="#ffbde0" stroke="#9e034e" d="M114.495 18.716h11.01v11.009M125.505 18.716l5.504-5.505" stroke-width="2"/><path fill="#ffbde0" stroke="#9e034e" d="M114.495 7.706v11.01h11.01l5.504-5.505V2.201H120z" stroke-width="2"/><path fill="#ffbde0" stroke="#9e034e" d="M114.495 7.706h11.01v11.01M125.505 7.706l5.504-5.504" stroke-width="2"/><path fill="#ffbde0" stroke="#000" d="M113.394 105.688l13.212 13.211M113.394 118.899l13.212-13.211M113.394 94.679l13.212 13.211M113.394 107.89l13.212-13.211M113.394 83.67l13.212 13.21M113.394 96.88l13.212-13.21M113.394 72.66l13.212 13.212M113.394 85.872l13.212-13.211M113.394 61.651l13.212 13.211M113.394 74.862l13.212-13.21M113.394 50.642l13.212 13.211M113.394 63.853l13.212-13.21M113.394 39.633l13.212 13.211M113.394 52.844l13.212-13.211M113.394 28.624l13.212 13.21M113.394 41.835l13.212-13.211M113.394 17.615l13.212 13.21M113.394 30.826l13.212-13.211M113.394 6.606l13.212 13.21M113.394 19.817l13.212-13.212" stroke-width="2"/><path fill="#ffbde0" stroke="#9e034e" d="M136.514 106.789v11.009h11.009l5.505-5.504v-11.01h-11.01z" stroke-width="2"/><path fill="#ffbde0" stroke="#9e034e" d="M136.514 106.789h11.009v11.009M147.523 106.789l5.505-5.505" stroke-width="2"/><path fill="#ffbde0" stroke="#9e034e" d="M136.514 95.78v11.009h11.009l5.505-5.505V90.275h-11.01z" stroke-width="2"/><path fill="#ffbde0" stroke="#9e034e" d="M136.514 95.78h11.009v11.009M147.523 95.78l5.505-5.505" stroke-width="2"/><path fill="#ffbde0" stroke="#9e034e" d="M136.514 84.77v11.01h11.009l5.505-5.505V79.266h-11.01z" stroke-width="2"/><path fill="#ffbde0" stroke="#9e034e" d="M136.514 84.77h11.009v11.01M147.523 84.77l5.505-5.504" stroke-width="2"/><path fill="#ffbde0" stroke="#9e034e" d="M136.514 73.761v11.01h11.009l5.505-5.505v-11.01h-11.01z" stroke-width="2"/><path fill="#ffbde0" stroke="#9e034e" d="M136.514 73.761h11.009v11.01M147.523 73.761l5.505-5.504" stroke-width="2"/><path fill="#ffbde0" stroke="#9e034e" d="M136.514 62.752v11.01h11.009l5.505-5.505v-11.01h-11.01z" stroke-width="2"/><path fill="#ffbde0" stroke="#9e034e" d="M136.514 62.752h11.009v11.01M147.523 62.752l5.505-5.504" stroke-width="2"/><path fill="#ffbde0" stroke="#9e034e" d="M136.514 51.743v11.01h11.009l5.505-5.505v-11.01h-11.01z" stroke-width="2"/><path fill="#ffbde0" stroke="#9e034e" d="M136.514 51.743h11.009v11.01M147.523 51.743l5.505-5.505" stroke-width="2"/><path fill="#ffbde0" stroke="#9e034e" d="M136.514 40.734v11.01h11.009l5.505-5.505v-11.01h-11.01z" stroke-width="2"/><path fill="#ffbde0" stroke="#9e034e" d="M136.514 40.734h11.009v11.01M147.523 40.734l5.505-5.505" stroke-width="2"/><path fill="#ffbde0" stroke="#9e034e" d="M136.514 29.725v11.009h11.009l5.505-5.505V24.22h-11.01z" stroke-width="2"/><path fill="#ffbde0" stroke="#9e034e" d="M136.514 29.725h11.009v11.009M147.523 29.725l5.505-5.505" stroke-width="2"/><path fill="#ffbde0" stroke="#9e034e" d="M136.514 18.716v11.009h11.009l5.505-5.505V13.211h-11.01z" stroke-width="2"/><path fill="#ffbde0" stroke="#9e034e" d="M136.514 18.716h11.009v11.009M147.523 18.716l5.505-5.505" stroke-width="2"/><path fill="#ffbde0" stroke="#9e034e" d="M136.514 7.706v11.01h11.009l5.505-5.505V2.201h-11.01z" stroke-width="2"/><path fill="#ffbde0" stroke="#9e034e" d="M136.514 7.706h11.009v11.01M147.523 7.706l5.505-5.504" stroke-width="2"/><path fill="#ffbde0" stroke="#000" d="M135.413 105.688l13.211 13.211M135.413 118.899l13.211-13.211M135.413 94.679l13.211 13.211M135.413 107.89l13.211-13.211M135.413 83.67l13.211 13.21M135.413 96.88l13.211-13.21M135.413 72.66l13.211 13.212M135.413 85.872l13.211-13.211M135.413 61.651l13.211 13.211M135.413 74.862l13.211-13.21M135.413 50.642l13.211 13.211M135.413 63.853l13.211-13.21M135.413 39.633l13.211 13.211M135.413 52.844l13.211-13.211M135.413 28.624l13.211 13.21M135.413 41.835l13.211-13.211M135.413 17.615l13.211 13.21M135.413 30.826l13.211-13.211M135.413 6.606l13.211 13.21M135.413 19.817l13.211-13.212" stroke-width="2"/><path fill="#ffbde0" stroke="#9e034e" d="M158.532 106.789v11.009h11.009l5.505-5.504v-11.01h-11.009z" stroke-width="2"/><path fill="#ffbde0" stroke="#9e034e" d="M158.532 106.789h11.009v11.009M169.541 106.789l5.505-5.505" stroke-width="2"/><path fill="#ffbde0" stroke="#9e034e" d="M158.532 95.78v11.009h11.009l5.505-5.505V90.275h-11.009z" stroke-width="2"/><path fill="#ffbde0" stroke="#9e034e" d="M158.532 95.78h11.009v11.009M169.541 95.78l5.505-5.505" stroke-width="2"/><path fill="#ffbde0" stroke="#9e034e" d="M158.532 84.77v11.01h11.009l5.505-5.505V79.266h-11.009z" stroke-width="2"/><path fill="#ffbde0" stroke="#9e034e" d="M158.532 84.77h11.009v11.01M169.541 84.77l5.505-5.504" stroke-width="2"/><path fill="#ffbde0" stroke="#9e034e" d="M158.532 73.761v11.01h11.009l5.505-5.505v-11.01h-11.009z" stroke-width="2"/><path fill="#ffbde0" stroke="#9e034e" d="M158.532 73.761h11.009v11.01M169.541 73.761l5.505-5.504" stroke-width="2"/><path fill="#ffbde0" stroke="#9e034e" d="M158.532 62.752v11.01h11.009l5.505-5.505v-11.01h-11.009z" stroke-width="2"/><path fill="#ffbde0" stroke="#9e034e" d="M158.532 62.752h11.009v11.01M169.541 62.752l5.505-5.504" stroke-width="2"/><path fill="#ffbde0" stroke="#9e034e" d="M158.532 51.743v11.01h11.009l5.505-5.505v-11.01h-11.009z" stroke-width="2"/><path fill="#ffbde0" stroke="#9e034e" d="M158.532 51.743h11.009v11.01M169.541 51.743l5.505-5.505" stroke-width="2"/><path fill="#ffbde0" stroke="#9e034e" d="M158.532 40.734v11.01h11.009l5.505-5.505v-11.01h-11.009z" stroke-width="2"/><path fill="#ffbde0" stroke="#9e034e" d="M158.532 40.734h11.009v11.01M169.541 40.734l5.505-5.505" stroke-width="2"/><path fill="#ffbde0" stroke="#9e034e" d="M158.532 29.725v11.009h11.009l5.505-5.505V24.22h-11.009z" stroke-width="2"/><path fill="#ffbde0" stroke="#9e034e" d="M158.532 29.725h11.009v11.009M169.541 29.725l5.505-5.505" stroke-width="2"/><path fill="#ffbde0" stroke="#9e034e" d="M158.532 18.716v11.009h11.009l5.505-5.505V13.211h-11.009z" stroke-width="2"/><path fill="#ffbde0" stroke="#9e034e" d="M158.532 18.716h11.009v11.009M169.541 18.716l5.505-5.505" stroke-width="2"/><path fill="#ffbde0" stroke="#9e034e" d="M158.532 7.706v11.01h11.009l5.505-5.505V2.201h-11.009z" stroke-width="2"/><path fill="#ffbde0" stroke="#9e034e" d="M158.532 7.706h11.009v11.01M169.541 7.706l5.505-5.504" stroke-width="2"/><path fill="#ffbde0" stroke="#000" d="M157.431 105.688l13.211 13.211M157.431 118.899l13.211-13.211M157.431 94.679l13.211 13.211M157.431 107.89l13.211-13.211M157.431 83.67l13.211 13.21M157.431 96.88l13.211-13.21M157.431 72.66l13.211 13.212M157.431 85.872l13.211-13.211M157.431 61.651l13.211 13.211M157.431 74.862l13.211-13.21M157.431 50.642l13.211 13.211M157.431 63.853l13.211-13.21M157.431 39.633l13.211 13.211M157.431 52.844l13.211-13.211M157.431 28.624l13.211 13.21M157.431 41.835l13.211-13.211M157.431 17.615l13.211 13.21M157.431 30.826l13.211-13.211M157.431 6.606l13.211 13.21M157.431 19.817l13.211-13.212" stroke-width="2"/><path fill="#ffbde0" stroke="#9e034e" d="M180.55 106.789v11.009h11.01l5.504-5.504v-11.01h-11.009z" stroke-width="2"/><path fill="#ffbde0" stroke="#9e034e" d="M180.55 106.789h11.01v11.009M191.56 106.789l5.504-5.505M180.55 84.77v11.01h11.01l5.504-5.505V79.266h-11.009z" stroke-width="2"/><path fill="#ffbde0" stroke="#9e034e" d="M180.55 84.77h11.01v11.01M191.56 84.77l5.504-5.504M180.55 62.752v11.01h11.01l5.504-5.505v-11.01h-11.009z" stroke-width="2"/><path fill="#ffbde0" stroke="#9e034e" d="M180.55 62.752h11.01v11.01M191.56 62.752l5.504-5.504M180.55 40.734v11.01h11.01l5.504-5.505v-11.01h-11.009z" stroke-width="2"/><path fill="#ffbde0" stroke="#9e034e" d="M180.55 40.734h11.01v11.01M191.56 40.734l5.504-5.505M180.55 18.716v11.009h11.01l5.504-5.505V13.211h-11.009z" stroke-width="2"/><path fill="#ffbde0" stroke="#9e034e" d="M180.55 18.716h11.01v11.009M191.56 18.716l5.504-5.505" stroke-width="2"/><path fill="#ffbde0" stroke="#000" d="M179.45 105.688l13.211 13.211M179.45 118.899l13.211-13.211M179.45 83.67l13.211 13.21M179.45 96.88l13.211-13.21M179.45 61.651l13.211 13.211M179.45 74.862l13.211-13.21M179.45 39.633l13.211 13.211M179.45 52.844l13.211-13.211M179.45 17.615l13.211 13.21M179.45 30.826l13.211-13.211" stroke-width="2"/><path fill="#ffbde0" stroke="#9e034e" d="M202.569 106.789v11.009h11.009l5.505-5.504v-11.01h-11.01z" stroke-width="2"/><path fill="#ffbde0" stroke="#9e034e" d="M202.569 106.789h11.009v11.009M213.578 106.789l5.505-5.505" stroke-width="2"/><path fill="#ffbde0" stroke="#000" d="M201.468 105.688l13.211 13.211M201.468 118.899l13.211-13.211" stroke-width="2"/></svg>
