<svg xmlns="http://www.w3.org/2000/svg" width="288.44" height="120" viewBox="0 0 288.4403669724771 120"><path fill="#ccfaff" stroke="#0c7f99" d="M4.404 106.789v11.009h11.009l5.504-5.504v-11.01H9.908z" stroke-width="2"/><path fill="#ccfaff" stroke="#0c7f99" d="M4.404 106.789h11.009v11.009M15.413 106.789l5.504-5.505" stroke-width="2"/><path fill="#ccfaff" stroke="#0c7f99" d="M4.404 95.78v11.009h11.009l5.504-5.505V90.275H9.908z" stroke-width="2"/><path fill="#ccfaff" stroke="#0c7f99" d="M4.404 95.78h11.009v11.009M15.413 95.78l5.504-5.505" stroke-width="2"/><path fill="#ccfaff" stroke="#0c7f99" d="M4.404 84.77v11.01h11.009l5.504-5.505V79.266H9.908z" stroke-width="2"/><path fill="#ccfaff" stroke="#0c7f99" d="M4.404 84.77h11.009v11.01M15.413 84.77l5.504-5.504" stroke-width="2"/><path fill="#ccfaff" stroke="#0c7f99" d="M4.404 73.761v11.01h11.009l5.504-5.505v-11.01H9.908z" stroke-width="2"/><path fill="#ccfaff" stroke="#0c7f99" d="M4.404 73.761h11.009v11.01M15.413 73.761l5.504-5.504" stroke-width="2"/><path fill="#ccfaff" stroke="#0c7f99" d="M4.404 62.752v11.01h11.009l5.504-5.505v-11.01H9.908z" stroke-width="2"/><path fill="#ccfaff" stroke="#0c7f99" d="M4.404 62.752h11.009v11.01M15.413 62.752l5.504-5.504" stroke-width="2"/><path fill="#ccfaff" stroke="#0c7f99" d="M4.404 51.743v11.01h11.009l5.504-5.505v-11.01H9.908z" stroke-width="2"/><path fill="#ccfaff" stroke="#0c7f99" d="M4.404 51.743h11.009v11.01M15.413 51.743l5.504-5.505" stroke-width="2"/><path fill="#ccfaff" stroke="#0c7f99" d="M4.404 40.734v11.01h11.009l5.504-5.505v-11.01H9.908z" stroke-width="2"/><path fill="#ccfaff" stroke="#0c7f99" d="M4.404 40.734h11.009v11.01M15.413 40.734l5.504-5.505" stroke-width="2"/><path fill="#ccfaff" stroke="#0c7f99" d="M4.404 29.725v11.009h11.009l5.504-5.505V24.22H9.908z" stroke-width="2"/><path fill="#ccfaff" stroke="#0c7f99" d="M4.404 29.725h11.009v11.009M15.413 29.725l5.504-5.505" stroke-width="2"/><path fill="#ccfaff" stroke="#0c7f99" d="M4.404 18.716v11.009h11.009l5.504-5.505V13.211H9.908z" stroke-width="2"/><path fill="#ccfaff" stroke="#0c7f99" d="M4.404 18.716h11.009v11.009M15.413 18.716l5.504-5.505" stroke-width="2"/><path fill="#ccfaff" stroke="#0c7f99" d="M4.404 7.706v11.01h11.009l5.504-5.505V2.201H9.908z" stroke-width="2"/><path fill="#ccfaff" stroke="#0c7f99" d="M4.404 7.706h11.009v11.01M15.413 7.706l5.504-5.504M26.422 106.789v11.009h11.01l5.504-5.504v-11.01h-11.01z" stroke-width="2"/><path fill="#ccfaff" stroke="#0c7f99" d="M26.422 106.789h11.01v11.009M37.431 106.789l5.505-5.505" stroke-width="2"/><path fill="#ccfaff" stroke="#0c7f99" d="M26.422 95.78v11.009h11.01l5.504-5.505V90.275h-11.01z" stroke-width="2"/><path fill="#ccfaff" stroke="#0c7f99" d="M26.422 95.78h11.01v11.009M37.431 95.78l5.505-5.505" stroke-width="2"/><path fill="#ccfaff" stroke="#0c7f99" d="M26.422 84.77v11.01h11.01l5.504-5.505V79.266h-11.01z" stroke-width="2"/><path fill="#ccfaff" stroke="#0c7f99" d="M26.422 84.77h11.01v11.01M37.431 84.77l5.505-5.504" stroke-width="2"/><path fill="#ccfaff" stroke="#0c7f99" d="M26.422 73.761v11.01h11.01l5.504-5.505v-11.01h-11.01z" stroke-width="2"/><path fill="#ccfaff" stroke="#0c7f99" d="M26.422 73.761h11.01v11.01M37.431 73.761l5.505-5.504" stroke-width="2"/><path fill="#ccfaff" stroke="#0c7f99" d="M26.422 62.752v11.01h11.01l5.504-5.505v-11.01h-11.01z" stroke-width="2"/><path fill="#ccfaff" stroke="#0c7f99" d="M26.422 62.752h11.01v11.01M37.431 62.752l5.505-5.504" stroke-width="2"/><path fill="#ccfaff" stroke="#0c7f99" d="M26.422 51.743v11.01h11.01l5.504-5.505v-11.01h-11.01z" stroke-width="2"/><path fill="#ccfaff" stroke="#0c7f99" d="M26.422 51.743h11.01v11.01M37.431 51.743l5.505-5.505" stroke-width="2"/><path fill="#ccfaff" stroke="#0c7f99" d="M26.422 40.734v11.01h11.01l5.504-5.505v-11.01h-11.01z" stroke-width="2"/><path fill="#ccfaff" stroke="#0c7f99" d="M26.422 40.734h11.01v11.01M37.431 40.734l5.505-5.505" stroke-width="2"/><path fill="#ccfaff" stroke="#0c7f99" d="M26.422 29.725v11.009h11.01l5.504-5.505V24.22h-11.01z" stroke-width="2"/><path fill="#ccfaff" stroke="#0c7f99" d="M26.422 29.725h11.01v11.009M37.431 29.725l5.505-5.505" stroke-width="2"/><path fill="#ccfaff" stroke="#0c7f99" d="M26.422 18.716v11.009h11.01l5.504-5.505V13.211h-11.01z" stroke-width="2"/><path fill="#ccfaff" stroke="#0c7f99" d="M26.422 18.716h11.01v11.009M37.431 18.716l5.505-5.505" stroke-width="2"/><path fill="#ccfaff" stroke="#0c7f99" d="M26.422 7.706v11.01h11.01l5.504-5.505V2.201h-11.01z" stroke-width="2"/><path fill="#ccfaff" stroke="#0c7f99" d="M26.422 7.706h11.01v11.01M37.431 7.706l5.505-5.504M48.44 106.789v11.009h11.01l5.504-5.504v-11.01H53.945z" stroke-width="2"/><path fill="#ccfaff" stroke="#0c7f99" d="M48.44 106.789h11.01v11.009M59.45 106.789l5.504-5.505" stroke-width="2"/><path fill="#ccfaff" stroke="#0c7f99" d="M48.44 95.78v11.009h11.01l5.504-5.505V90.275H53.945z" stroke-width="2"/><path fill="#ccfaff" stroke="#0c7f99" d="M48.44 95.78h11.01v11.009M59.45 95.78l5.504-5.505" stroke-width="2"/><path fill="#ccfaff" stroke="#0c7f99" d="M48.44 84.77v11.01h11.01l5.504-5.505V79.266H53.945z" stroke-width="2"/><path fill="#ccfaff" stroke="#0c7f99" d="M48.44 84.77h11.01v11.01M59.45 84.77l5.504-5.504" stroke-width="2"/><path fill="#ccfaff" stroke="#0c7f99" d="M48.44 73.761v11.01h11.01l5.504-5.505v-11.01H53.945z" stroke-width="2"/><path fill="#ccfaff" stroke="#0c7f99" d="M48.44 73.761h11.01v11.01M59.45 73.761l5.504-5.504" stroke-width="2"/><path fill="#ccfaff" stroke="#0c7f99" d="M48.44 62.752v11.01h11.01l5.504-5.505v-11.01H53.945z" stroke-width="2"/><path fill="#ccfaff" stroke="#0c7f99" d="M48.44 62.752h11.01v11.01M59.45 62.752l5.504-5.504" stroke-width="2"/><path fill="#ccfaff" stroke="#0c7f99" d="M48.44 51.743v11.01h11.01l5.504-5.505v-11.01H53.945z" stroke-width="2"/><path fill="#ccfaff" stroke="#0c7f99" d="M48.44 51.743h11.01v11.01M59.45 51.743l5.504-5.505" stroke-width="2"/><path fill="#ccfaff" stroke="#0c7f99" d="M48.44 40.734v11.01h11.01l5.504-5.505v-11.01H53.945z" stroke-width="2"/><path fill="#ccfaff" stroke="#0c7f99" d="M48.44 40.734h11.01v11.01M59.45 40.734l5.504-5.505" stroke-width="2"/><path fill="#ccfaff" stroke="#0c7f99" d="M48.44 29.725v11.009h11.01l5.504-5.505V24.22H53.945z" stroke-width="2"/><path fill="#ccfaff" stroke="#0c7f99" d="M48.44 29.725h11.01v11.009M59.45 29.725l5.504-5.505" stroke-width="2"/><path fill="#ccfaff" stroke="#0c7f99" d="M48.44 18.716v11.009h11.01l5.504-5.505V13.211H53.945z" stroke-width="2"/><path fill="#ccfaff" stroke="#0c7f99" d="M48.44 18.716h11.01v11.009M59.45 18.716l5.504-5.505" stroke-width="2"/><path fill="#ccfaff" stroke="#0c7f99" d="M48.44 7.706v11.01h11.01l5.504-5.505V2.201H53.945z" stroke-width="2"/><path fill="#ccfaff" stroke="#0c7f99" d="M48.44 7.706h11.01v11.01M59.45 7.706l5.504-5.504M70.459 106.789v11.009h11.009l5.504-5.504v-11.01H75.963z" stroke-width="2"/><path fill="#ccfaff" stroke="#0c7f99" d="M70.459 106.789h11.009v11.009M81.468 106.789l5.504-5.505" stroke-width="2"/><path fill="#ccfaff" stroke="#0c7f99" d="M70.459 95.78v11.009h11.009l5.504-5.505V90.275H75.963z" stroke-width="2"/><path fill="#ccfaff" stroke="#0c7f99" d="M70.459 95.78h11.009v11.009M81.468 95.78l5.504-5.505" stroke-width="2"/><path fill="#ccfaff" stroke="#0c7f99" d="M70.459 84.77v11.01h11.009l5.504-5.505V79.266H75.963z" stroke-width="2"/><path fill="#ccfaff" stroke="#0c7f99" d="M70.459 84.77h11.009v11.01M81.468 84.77l5.504-5.504" stroke-width="2"/><path fill="#ccfaff" stroke="#0c7f99" d="M70.459 73.761v11.01h11.009l5.504-5.505v-11.01H75.963z" stroke-width="2"/><path fill="#ccfaff" stroke="#0c7f99" d="M70.459 73.761h11.009v11.01M81.468 73.761l5.504-5.504" stroke-width="2"/><path fill="#ccfaff" stroke="#0c7f99" d="M70.459 62.752v11.01h11.009l5.504-5.505v-11.01H75.963z" stroke-width="2"/><path fill="#ccfaff" stroke="#0c7f99" d="M70.459 62.752h11.009v11.01M81.468 62.752l5.504-5.504" stroke-width="2"/><path fill="#ccfaff" stroke="#0c7f99" d="M70.459 51.743v11.01h11.009l5.504-5.505v-11.01H75.963z" stroke-width="2"/><path fill="#ccfaff" stroke="#0c7f99" d="M70.459 51.743h11.009v11.01M81.468 51.743l5.504-5.505" stroke-width="2"/><path fill="#ccfaff" stroke="#0c7f99" d="M70.459 40.734v11.01h11.009l5.504-5.505v-11.01H75.963z" stroke-width="2"/><path fill="#ccfaff" stroke="#0c7f99" d="M70.459 40.734h11.009v11.01M81.468 40.734l5.504-5.505" stroke-width="2"/><path fill="#ccfaff" stroke="#0c7f99" d="M70.459 29.725v11.009h11.009l5.504-5.505V24.22H75.963z" stroke-width="2"/><path fill="#ccfaff" stroke="#0c7f99" d="M70.459 29.725h11.009v11.009M81.468 29.725l5.504-5.505" stroke-width="2"/><path fill="#ccfaff" stroke="#0c7f99" d="M70.459 18.716v11.009h11.009l5.504-5.505V13.211H75.963z" stroke-width="2"/><path fill="#ccfaff" stroke="#0c7f99" d="M70.459 18.716h11.009v11.009M81.468 18.716l5.504-5.505" stroke-width="2"/><path fill="#ccfaff" stroke="#0c7f99" d="M70.459 7.706v11.01h11.009l5.504-5.505V2.201H75.963z" stroke-width="2"/><path fill="#ccfaff" stroke="#0c7f99" d="M70.459 7.706h11.009v11.01M81.468 7.706l5.504-5.504M92.477 106.789v11.009h11.009l5.505-5.504v-11.01h-11.01z" stroke-width="2"/><path fill="#ccfaff" stroke="#0c7f99" d="M92.477 106.789h11.009v11.009M103.486 106.789l5.505-5.505" stroke-width="2"/><path fill="#ccfaff" stroke="#0c7f99" d="M92.477 95.78v11.009h11.009l5.505-5.505V90.275h-11.01z" stroke-width="2"/><path fill="#ccfaff" stroke="#0c7f99" d="M92.477 95.78h11.009v11.009M103.486 95.78l5.505-5.505" stroke-width="2"/><path fill="#ccfaff" stroke="#0c7f99" d="M92.477 84.77v11.01h11.009l5.505-5.505V79.266h-11.01z" stroke-width="2"/><path fill="#ccfaff" stroke="#0c7f99" d="M92.477 84.77h11.009v11.01M103.486 84.77l5.505-5.504" stroke-width="2"/><path fill="#ccfaff" stroke="#0c7f99" d="M92.477 73.761v11.01h11.009l5.505-5.505v-11.01h-11.01z" stroke-width="2"/><path fill="#ccfaff" stroke="#0c7f99" d="M92.477 73.761h11.009v11.01M103.486 73.761l5.505-5.504" stroke-width="2"/><path fill="#ccfaff" stroke="#0c7f99" d="M92.477 62.752v11.01h11.009l5.505-5.505v-11.01h-11.01z" stroke-width="2"/><path fill="#ccfaff" stroke="#0c7f99" d="M92.477 62.752h11.009v11.01M103.486 62.752l5.505-5.504" stroke-width="2"/><path fill="#ccfaff" stroke="#0c7f99" d="M92.477 51.743v11.01h11.009l5.505-5.505v-11.01h-11.01z" stroke-width="2"/><path fill="#ccfaff" stroke="#0c7f99" d="M92.477 51.743h11.009v11.01M103.486 51.743l5.505-5.505" stroke-width="2"/><path fill="#ccfaff" stroke="#0c7f99" d="M92.477 40.734v11.01h11.009l5.505-5.505v-11.01h-11.01z" stroke-width="2"/><path fill="#ccfaff" stroke="#0c7f99" d="M92.477 40.734h11.009v11.01M103.486 40.734l5.505-5.505" stroke-width="2"/><path fill="#ccfaff" stroke="#0c7f99" d="M92.477 29.725v11.009h11.009l5.505-5.505V24.22h-11.01z" stroke-width="2"/><path fill="#ccfaff" stroke="#0c7f99" d="M92.477 29.725h11.009v11.009M103.486 29.725l5.505-5.505" stroke-width="2"/><path fill="#ccfaff" stroke="#0c7f99" d="M92.477 18.716v11.009h11.009l5.505-5.505V13.211h-11.01z" stroke-width="2"/><path fill="#ccfaff" stroke="#0c7f99" d="M92.477 18.716h11.009v11.009M103.486 18.716l5.505-5.505" stroke-width="2"/><path fill="#ccfaff" stroke="#0c7f99" d="M92.477 7.706v11.01h11.009l5.505-5.505V2.201h-11.01z" stroke-width="2"/><path fill="#ccfaff" stroke="#0c7f99" d="M92.477 7.706h11.009v11.01M103.486 7.706l5.505-5.504M114.495 106.789v11.009h11.01l5.504-5.504v-11.01H120z" stroke-width="2"/><path fill="#ccfaff" stroke="#0c7f99" d="M114.495 106.789h11.01v11.009M125.505 106.789l5.504-5.505M114.495 84.77v11.01h11.01l5.504-5.505V79.266H120z" stroke-width="2"/><path fill="#ccfaff" stroke="#0c7f99" d="M114.495 84.77h11.01v11.01M125.505 84.77l5.504-5.504M114.495 62.752v11.01h11.01l5.504-5.505v-11.01H120z" stroke-width="2"/><path fill="#ccfaff" stroke="#0c7f99" d="M114.495 62.752h11.01v11.01M125.505 62.752l5.504-5.504M114.495 40.734v11.01h11.01l5.504-5.505v-11.01H120z" stroke-width="2"/><path fill="#ccfaff" stroke="#0c7f99" d="M114.495 40.734h11.01v11.01M125.505 40.734l5.504-5.505M114.495 18.716v11.009h11.01l5.504-5.505V13.211H120z" stroke-width="2"/><path fill="#ccfaff" stroke="#0c7f99" d="M114.495 18.716h11.01v11.009M125.505 18.716l5.504-5.505M136.514 106.789v11.009h11.009l5.505-5.504v-11.01h-11.01z" stroke-width="2"/><path fill="#ccfaff" stroke="#0c7f99" d="M136.514 106.789h11.009v11.009M147.523 106.789l5.505-5.505M136.514 84.77v11.01h11.009l5.505-5.505V79.266h-11.01z" stroke-width="2"/><path fill="#ccfaff" stroke="#0c7f99" d="M136.514 84.77h11.009v11.01M147.523 84.77l5.505-5.504M136.514 62.752v11.01h11.009l5.505-5.505v-11.01h-11.01z" stroke-width="2"/><path fill="#ccfaff" stroke="#0c7f99" d="M136.514 62.752h11.009v11.01M147.523 62.752l5.505-5.504" stroke-width="2"/><path fill="#ffbde0" stroke="#9e034e" d="M180.55 106.789v11.009h11.01l5.504-5.504v-11.01h-11.009z" stroke-width="2"/><path fill="#ffbde0" stroke="#9e034e" d="M180.55 106.789h11.01v11.009M191.56 106.789l5.504-5.505" stroke-width="2"/><path fill="#ffbde0" stroke="#9e034e" d="M180.55 95.78v11.009h11.01l5.504-5.505V90.275h-11.009z" stroke-width="2"/><path fill="#ffbde0" stroke="#9e034e" d="M180.55 95.78h11.01v11.009M191.56 95.78l5.504-5.505" stroke-width="2"/><path fill="#ffbde0" stroke="#9e034e" d="M180.55 84.77v11.01h11.01l5.504-5.505V79.266h-11.009z" stroke-width="2"/><path fill="#ffbde0" stroke="#9e034e" d="M180.55 84.77h11.01v11.01M191.56 84.77l5.504-5.504" stroke-width="2"/><path fill="#ffbde0" stroke="#9e034e" d="M180.55 73.761v11.01h11.01l5.504-5.505v-11.01h-11.009z" stroke-width="2"/><path fill="#ffbde0" stroke="#9e034e" d="M180.55 73.761h11.01v11.01M191.56 73.761l5.504-5.504" stroke-width="2"/><path fill="#ffbde0" stroke="#9e034e" d="M180.55 62.752v11.01h11.01l5.504-5.505v-11.01h-11.009z" stroke-width="2"/><path fill="#ffbde0" stroke="#9e034e" d="M180.55 62.752h11.01v11.01M191.56 62.752l5.504-5.504" stroke-width="2"/><path fill="#ffbde0" stroke="#9e034e" d="M180.55 51.743v11.01h11.01l5.504-5.505v-11.01h-11.009z" stroke-width="2"/><path fill="#ffbde0" stroke="#9e034e" d="M180.55 51.743h11.01v11.01M191.56 51.743l5.504-5.505" stroke-width="2"/><path fill="#ffbde0" stroke="#9e034e" d="M180.55 40.734v11.01h11.01l5.504-5.505v-11.01h-11.009z" stroke-width="2"/><path fill="#ffbde0" stroke="#9e034e" d="M180.55 40.734h11.01v11.01M191.56 40.734l5.504-5.505" stroke-width="2"/><path fill="#ffbde0" stroke="#9e034e" d="M180.55 29.725v11.009h11.01l5.504-5.505V24.22h-11.009z" stroke-width="2"/><path fill="#ffbde0" stroke="#9e034e" d="M180.55 29.725h11.01v11.009M191.56 29.725l5.504-5.505" stroke-width="2"/><path fill="#ffbde0" stroke="#9e034e" d="M180.55 18.716v11.009h11.01l5.504-5.505V13.211h-11.009z" stroke-width="2"/><path fill="#ffbde0" stroke="#9e034e" d="M180.55 18.716h11.01v11.009M191.56 18.716l5.504-5.505" stroke-width="2"/><path fill="#ffbde0" stroke="#9e034e" d="M180.55 7.706v11.01h11.01l5.504-5.505V2.201h-11.009z" stroke-width="2"/><path fill="#ffbde0" stroke="#9e034e" d="M180.55 7.706h11.01v11.01M191.56 7.706l5.504-5.504M202.569 106.789v11.009h11.009l5.505-5.504v-11.01h-11.01z" stroke-width="2"/><path fill="#ffbde0" stroke="#9e034e" d="M202.569 106.789h11.009v11.009M213.578 106.789l5.505-5.505" stroke-width="2"/><path fill="#ffbde0" stroke="#9e034e" d="M202.569 95.78v11.009h11.009l5.505-5.505V90.275h-11.01z" stroke-width="2"/><path fill="#ffbde0" stroke="#9e034e" d="M202.569 95.78h11.009v11.009M213.578 95.78l5.505-5.505" stroke-width="2"/><path fill="#ffbde0" stroke="#9e034e" d="M202.569 84.77v11.01h11.009l5.505-5.505V79.266h-11.01z" stroke-width="2"/><path fill="#ffbde0" stroke="#9e034e" d="M202.569 84.77h11.009v11.01M213.578 84.77l5.505-5.504" stroke-width="2"/><path fill="#ffbde0" stroke="#9e034e" d="M202.569 73.761v11.01h11.009l5.505-5.505v-11.01h-11.01z" stroke-width="2"/><path fill="#ffbde0" stroke="#9e034e" d="M202.569 73.761h11.009v11.01M213.578 73.761l5.505-5.504" stroke-width="2"/><path fill="#ffbde0" stroke="#9e034e" d="M202.569 62.752v11.01h11.009l5.505-5.505v-11.01h-11.01z" stroke-width="2"/><path fill="#ffbde0" stroke="#9e034e" d="M202.569 62.752h11.009v11.01M213.578 62.752l5.505-5.504" stroke-width="2"/><path fill="#ffbde0" stroke="#9e034e" d="M202.569 51.743v11.01h11.009l5.505-5.505v-11.01h-11.01z" stroke-width="2"/><path fill="#ffbde0" stroke="#9e034e" d="M202.569 51.743h11.009v11.01M213.578 51.743l5.505-5.505" stroke-width="2"/><path fill="#ffbde0" stroke="#9e034e" d="M202.569 40.734v11.01h11.009l5.505-5.505v-11.01h-11.01z" stroke-width="2"/><path fill="#ffbde0" stroke="#9e034e" d="M202.569 40.734h11.009v11.01M213.578 40.734l5.505-5.505" stroke-width="2"/><path fill="#ffbde0" stroke="#9e034e" d="M202.569 29.725v11.009h11.009l5.505-5.505V24.22h-11.01z" stroke-width="2"/><path fill="#ffbde0" stroke="#9e034e" d="M202.569 29.725h11.009v11.009M213.578 29.725l5.505-5.505" stroke-width="2"/><path fill="#ffbde0" stroke="#9e034e" d="M202.569 18.716v11.009h11.009l5.505-5.505V13.211h-11.01z" stroke-width="2"/><path fill="#ffbde0" stroke="#9e034e" d="M202.569 18.716h11.009v11.009M213.578 18.716l5.505-5.505" stroke-width="2"/><path fill="#ffbde0" stroke="#9e034e" d="M202.569 7.706v11.01h11.009l5.505-5.505V2.201h-11.01z" stroke-width="2"/><path fill="#ffbde0" stroke="#9e034e" d="M202.569 7.706h11.009v11.01M213.578 7.706l5.505-5.504M224.587 106.789v11.009h11.009l5.505-5.504v-11.01h-11.009z" stroke-width="2"/><path fill="#ffbde0" stroke="#9e034e" d="M224.587 106.789h11.009v11.009M235.596 106.789l5.505-5.505" stroke-width="2"/><path fill="#ffbde0" stroke="#9e034e" d="M224.587 95.78v11.009h11.009l5.505-5.505V90.275h-11.009z" stroke-width="2"/><path fill="#ffbde0" stroke="#9e034e" d="M224.587 95.78h11.009v11.009M235.596 95.78l5.505-5.505" stroke-width="2"/><path fill="#ffbde0" stroke="#9e034e" d="M224.587 84.77v11.01h11.009l5.505-5.505V79.266h-11.009z" stroke-width="2"/><path fill="#ffbde0" stroke="#9e034e" d="M224.587 84.77h11.009v11.01M235.596 84.77l5.505-5.504" stroke-width="2"/><path fill="#ffbde0" stroke="#9e034e" d="M224.587 73.761v11.01h11.009l5.505-5.505v-11.01h-11.009z" stroke-width="2"/><path fill="#ffbde0" stroke="#9e034e" d="M224.587 73.761h11.009v11.01M235.596 73.761l5.505-5.504" stroke-width="2"/><path fill="#ffbde0" stroke="#9e034e" d="M224.587 62.752v11.01h11.009l5.505-5.505v-11.01h-11.009z" stroke-width="2"/><path fill="#ffbde0" stroke="#9e034e" d="M224.587 62.752h11.009v11.01M235.596 62.752l5.505-5.504" stroke-width="2"/><path fill="#ffbde0" stroke="#9e034e" d="M224.587 51.743v11.01h11.009l5.505-5.505v-11.01h-11.009z" stroke-width="2"/><path fill="#ffbde0" stroke="#9e034e" d="M224.587 51.743h11.009v11.01M235.596 51.743l5.505-5.505" stroke-width="2"/><path fill="#ffbde0" stroke="#9e034e" d="M224.587 40.734v11.01h11.009l5.505-5.505v-11.01h-11.009z" stroke-width="2"/><path fill="#ffbde0" stroke="#9e034e" d="M224.587 40.734h11.009v11.01M235.596 40.734l5.505-5.505" stroke-width="2"/><path fill="#ffbde0" stroke="#9e034e" d="M224.587 29.725v11.009h11.009l5.505-5.505V24.22h-11.009z" stroke-width="2"/><path fill="#ffbde0" stroke="#9e034e" d="M224.587 29.725h11.009v11.009M235.596 29.725l5.505-5.505" stroke-width="2"/><path fill="#ffbde0" stroke="#9e034e" d="M224.587 18.716v11.009h11.009l5.505-5.505V13.211h-11.009z" stroke-width="2"/><path fill="#ffbde0" stroke="#9e034e" d="M224.587 18.716h11.009v11.009M235.596 18.716l5.505-5.505" stroke-width="2"/><path fill="#ffbde0" stroke="#9e034e" d="M224.587 7.706v11.01h11.009l5.505-5.505V2.201h-11.009z" stroke-width="2"/><path fill="#ffbde0" stroke="#9e034e" d="M224.587 7.706h11.009v11.01M235.596 7.706l5.505-5.504M246.606 106.789v11.009h11.009l5.504-5.504v-11.01H252.11z" stroke-width="2"/><path fill="#ffbde0" stroke="#9e034e" d="M246.606 106.789h11.009v11.009M257.615 106.789l5.504-5.505M246.606 84.77v11.01h11.009l5.504-5.505V79.266H252.11z" stroke-width="2"/><path fill="#ffbde0" stroke="#9e034e" d="M246.606 84.77h11.009v11.01M257.615 84.77l5.504-5.504M246.606 62.752v11.01h11.009l5.504-5.505v-11.01H252.11z" stroke-width="2"/><path fill="#ffbde0" stroke="#9e034e" d="M246.606 62.752h11.009v11.01M257.615 62.752l5.504-5.504M246.606 40.734v11.01h11.009l5.504-5.505v-11.01H252.11z" stroke-width="2"/><path fill="#ffbde0" stroke="#9e034e" d="M246.606 40.734h11.009v11.01M257.615 40.734l5.504-5.505M246.606 18.716v11.009h11.009l5.504-5.505V13.211H252.11z" stroke-width="2"/><path fill="#ffbde0" stroke="#9e034e" d="M246.606 18.716h11.009v11.009M257.615 18.716l5.504-5.505M268.624 106.789v11.009h11.009l5.505-5.504v-11.01h-11.01z" stroke-width="2"/><path fill="#ffbde0" stroke="#9e034e" d="M268.624 106.789h11.009v11.009M279.633 106.789l5.505-5.505" stroke-width="2"/></svg>
