<svg xmlns="http://www.w3.org/2000/svg" width="46.239" height="120" viewBox="0 0 46.238532110091754 120"><path fill="#ccfaff" stroke="#0c7f99" d="M4.404 106.789v11.009h11.009l5.504-5.504v-11.01H9.908z" stroke-width="2"/><path fill="#ccfaff" stroke="#0c7f99" d="M4.404 106.789h11.009v11.009M15.413 106.789l5.504-5.505" stroke-width="2"/><path fill="#ccfaff" stroke="#0c7f99" d="M4.404 95.78v11.009h11.009l5.504-5.505V90.275H9.908z" stroke-width="2"/><path fill="#ccfaff" stroke="#0c7f99" d="M4.404 95.78h11.009v11.009M15.413 95.78l5.504-5.505" stroke-width="2"/><path fill="#ccfaff" stroke="#0c7f99" d="M4.404 84.77v11.01h11.009l5.504-5.505V79.266H9.908z" stroke-width="2"/><path fill="#ccfaff" stroke="#0c7f99" d="M4.404 84.77h11.009v11.01M15.413 84.77l5.504-5.504" stroke-width="2"/><path fill="#ccfaff" stroke="#0c7f99" d="M4.404 73.761v11.01h11.009l5.504-5.505v-11.01H9.908z" stroke-width="2"/><path fill="#ccfaff" stroke="#0c7f99" d="M4.404 73.761h11.009v11.01M15.413 73.761l5.504-5.504" stroke-width="2"/><path fill="#ccfaff" stroke="#0c7f99" d="M4.404 62.752v11.01h11.009l5.504-5.505v-11.01H9.908z" stroke-width="2"/><path fill="#ccfaff" stroke="#0c7f99" d="M4.404 62.752h11.009v11.01M15.413 62.752l5.504-5.504" stroke-width="2"/><path fill="#ccfaff" stroke="#0c7f99" d="M4.404 51.743v11.01h11.009l5.504-5.505v-11.01H9.908z" stroke-width="2"/><path fill="#ccfaff" stroke="#0c7f99" d="M4.404 51.743h11.009v11.01M15.413 51.743l5.504-5.505" stroke-width="2"/><path fill="#ccfaff" stroke="#0c7f99" d="M4.404 40.734v11.01h11.009l5.504-5.505v-11.01H9.908z" stroke-width="2"/><path fill="#ccfaff" stroke="#0c7f99" d="M4.404 40.734h11.009v11.01M15.413 40.734l5.504-5.505" stroke-width="2"/><path fill="#ccfaff" stroke="#0c7f99" d="M4.404 29.725v11.009h11.009l5.504-5.505V24.22H9.908z" stroke-width="2"/><path fill="#ccfaff" stroke="#0c7f99" d="M4.404 29.725h11.009v11.009M15.413 29.725l5.504-5.505" stroke-width="2"/><path fill="#ccfaff" stroke="#0c7f99" d="M4.404 18.716v11.009h11.009l5.504-5.505V13.211H9.908z" stroke-width="2"/><path fill="#ccfaff" stroke="#0c7f99" d="M4.404 18.716h11.009v11.009M15.413 18.716l5.504-5.505" stroke-width="2"/><path fill="#ccfaff" stroke="#0c7f99" d="M4.404 7.706v11.01h11.009l5.504-5.505V2.201H9.908z" stroke-width="2"/><path fill="#ccfaff" stroke="#0c7f99" d="M4.404 7.706h11.009v11.01M15.413 7.706l5.504-5.504M26.422 106.789v11.009h11.01l5.504-5.504v-11.01h-11.01z" stroke-width="2"/><path fill="#ccfaff" stroke="#0c7f99" d="M26.422 106.789h11.01v11.009M37.431 106.789l5.505-5.505" stroke-width="2"/><path fill="#ccfaff" stroke="#0c7f99" d="M26.422 95.78v11.009h11.01l5.504-5.505V90.275h-11.01z" stroke-width="2"/><path fill="#ccfaff" stroke="#0c7f99" d="M26.422 95.78h11.01v11.009M37.431 95.78l5.505-5.505" stroke-width="2"/></svg>
