<svg xmlns="http://www.w3.org/2000/svg" width="300" height="42.857" viewBox="0 0 300 42.857142857142854"><path fill="#bed575" d="M15.244 26.643s.471-2.405-.37-4.343c-.589-1.351-3.855.159-7.867 2.288-4.52 2.399-8.213-1.22-6.638 2.939 1.553 4.101 5.428 6.48 9.365 4.782 2.245-.968 4.95-2.755 5.51-5.666z"/><path fill="#d0e285" d="M31.287 24.24s-.915-1.727-.72-3.4c.134-1.166 2.975-.769 6.527-.072 4.003.785 5.983-2.83 5.743.708-.237 3.487-2.643 6.197-6.039 5.812-1.936-.219-4.413-.958-5.512-3.049zM19.675 32.18s-.471-2.404.37-4.342c.589-1.351 3.855.159 7.867 2.288 4.52 2.399 8.213-1.22 6.638 2.939-1.553 4.1-5.428 6.48-9.365 4.782-2.245-.968-4.951-2.755-5.51-5.666z"/><ellipse cx="22.575" cy="19.909" rx="16.43" ry="10.879" fill="#bed575"/><path fill="#bed575" d="M9.175 17.557c0 5.75 6.27 10.411 14.001 10.411s14-4.66 14-10.41-6.46-13.102-14.192-13.102S9.175 11.807 9.175 17.557z"/><path fill="#a9bc65" d="M19.105 18.831l4.006 2.53 4.195-2.204.188-4.735-4.006-2.53-4.195 2.204zM17.22 18.92l.189-4.736-4.006-2.53-3.035 1.594c-.765 1.577-1.192 3.205-1.192 4.723 0 .25.016.5.04.745l3.81 2.407 4.195-2.204zM24.337 6.322l.15 4.226 3.396 2.521 3.245-1.706-.135-3.775c-1.42-1.019-3.02-1.815-4.735-2.276l-1.921 1.01zM28.818 19.806l4.006 2.53 4.02-2.112c.085-.286.153-.577.206-.872l.085-2.144a9.905 9.905 0 0 0-.457-2.145l-3.477-2.197-4.195 2.205-.188 4.735zM13.568 11.232l3.543 2.263 4.532-2.448.99-4.712-1.948-1.244c-2.46.47-4.684 1.656-6.506 3.231l-.61 2.91zM33.08 9.367l-.067 1.68 2.605 1.646a15.923 15.923 0 0 0-2.538-3.326zM31.295 26.45l.106-2.664-4.007-2.53L23.2 23.46l-.189 4.734.294.186c2.979-.021 5.733-.733 7.99-1.93zM21.947 27.538l.188-4.735-4.006-2.53-4.195 2.204-.128 3.23c1.89 1.267 4.248 2.154 6.857 2.505l1.284-.674zM36.32 21.566l-3.605 1.894-.087 2.19c1.633-1.111 2.911-2.508 3.691-4.084zM12.514 24.715l.098-2.463-3.078-1.944c.51 1.654 1.549 3.159 2.98 4.407z"/><path fill="#a9bc65" d="M14.083 15.454s2.112-1.243 4.22-1.093c1.469.105 3.189.372 4.65 1.786 1.99 1.924 2.462 5.099 2.487 6.724.064 4.293-2.803 7.01-7.25 6.906-4.383-.102-7.915-2.966-7.621-7.244.167-2.44.955-5.584 3.514-7.08z" opacity=".7"/><path fill="#d0e285" d="M7.273 24.389s.763-2.051 2.283-3.151c1.06-.768 2.38-1.568 4.148-1.441 2.408.172-1.365 3.302.625 6.74 2.241 3.875 6.652 2.776 3.562 5.244-3.047 2.433-7.02 2.5-9.153-.574-1.217-1.753-2.396-4.341-1.465-6.818z"/><path fill="#d0e285" d="M6.639 10.794s2.112-1.243 4.22-1.093c1.469.105 3.189.372 4.65 1.786 1.99 1.924 2.462 5.1 2.487 6.724.064 4.293-2.803 7.01-7.25 6.906-4.383-.102-7.915-2.966-7.621-7.244.167-2.439.955-5.584 3.514-7.079z"/><ellipse cx="12.384" cy="17.827" rx=".555" ry=".772" fill="#304454" transform="rotate(188.893 12.384 17.827)"/><ellipse cx="5.892" cy="16.464" rx=".555" ry=".772" fill="#304454" transform="rotate(188.893 5.892 16.464)"/><ellipse cx="8.939" cy="21.185" rx="1.548" ry="1.383" fill="#c75e72"/><ellipse cx="7.688" cy="19.802" rx="2.398" ry="1.623" fill="#d0e285"/><path fill="#bed575" d="M58.101 26.643s.471-2.405-.37-4.343c-.589-1.351-3.855.159-7.867 2.288-4.52 2.399-8.213-1.22-6.638 2.939 1.553 4.101 5.428 6.48 9.365 4.782 2.245-.968 4.95-2.755 5.51-5.666z"/><path fill="#d0e285" d="M74.144 24.24s-.915-1.727-.72-3.4c.135-1.166 2.976-.769 6.528-.072 4.003.785 5.983-2.83 5.743.708-.237 3.487-2.643 6.197-6.04 5.812-1.935-.219-4.412-.958-5.511-3.049zM62.532 32.18s-.47-2.404.371-4.342c.588-1.351 3.854.159 7.866 2.288 4.52 2.399 8.213-1.22 6.638 2.939-1.553 4.1-5.428 6.48-9.365 4.782-2.245-.968-4.95-2.755-5.51-5.666z"/><ellipse cx="65.432" cy="19.909" rx="16.43" ry="10.879" fill="#bed575"/><path fill="#bed575" d="M52.032 17.557c0 5.75 6.27 10.411 14.002 10.411s14-4.66 14-10.41S73.574 4.455 65.84 4.455s-13.808 7.351-13.808 13.101z"/><path fill="#a9bc65" d="M61.962 18.831l4.006 2.53 4.195-2.204.188-4.735-4.006-2.53-4.195 2.204zM60.078 18.92l.188-4.736-4.006-2.53-3.035 1.594c-.765 1.577-1.192 3.205-1.192 4.723 0 .25.016.5.04.745l3.81 2.407 4.195-2.204zM67.194 6.322l.151 4.226 3.395 2.521 3.245-1.706-.135-3.775c-1.419-1.019-3.02-1.815-4.735-2.276l-1.92 1.01zM71.675 19.806l4.006 2.53 4.02-2.112c.085-.286.153-.577.206-.872l.085-2.144a9.905 9.905 0 0 0-.457-2.145l-3.477-2.197-4.195 2.205-.188 4.735zM56.425 11.232l3.543 2.263 4.532-2.448.99-4.712-1.948-1.244c-2.46.47-4.684 1.656-6.506 3.231l-.61 2.91zM75.937 9.367l-.067 1.68 2.606 1.646a15.923 15.923 0 0 0-2.54-3.326zM74.152 26.45l.106-2.664-4.007-2.53-4.194 2.205-.189 4.734.294.186c2.98-.021 5.733-.733 7.99-1.93zM64.805 27.538l.188-4.735-4.006-2.53-4.195 2.204-.128 3.23c1.89 1.267 4.248 2.154 6.857 2.505l1.284-.674zM79.177 21.566l-3.604 1.894-.087 2.19c1.633-1.111 2.91-2.508 3.69-4.084zM55.371 24.715l.098-2.463-3.078-1.944c.51 1.654 1.55 3.159 2.98 4.407z"/><path fill="#a9bc65" d="M56.94 15.454s2.112-1.243 4.22-1.093c1.469.105 3.189.372 4.65 1.786 1.99 1.924 2.462 5.099 2.487 6.724.064 4.293-2.803 7.01-7.25 6.906-4.383-.102-7.915-2.966-7.621-7.244.167-2.44.955-5.584 3.514-7.08z" opacity=".7"/><path fill="#d0e285" d="M50.13 24.389s.764-2.051 2.283-3.151c1.06-.768 2.38-1.568 4.149-1.441 2.407.172-1.365 3.302.625 6.74 2.24 3.875 6.652 2.776 3.562 5.244-3.047 2.433-7.02 2.5-9.154-.574-1.216-1.753-2.395-4.341-1.465-6.818z"/><path fill="#d0e285" d="M49.496 10.794s2.112-1.243 4.22-1.093c1.469.105 3.189.372 4.65 1.786 1.99 1.924 2.462 5.1 2.487 6.724.064 4.293-2.803 7.01-7.25 6.906-4.383-.102-7.915-2.966-7.621-7.244.167-2.439.955-5.584 3.514-7.079z"/><ellipse cx="55.241" cy="17.827" rx=".555" ry=".772" fill="#304454" transform="rotate(188.893 55.241 17.827)"/><ellipse cx="48.749" cy="16.464" rx=".555" ry=".772" fill="#304454" transform="rotate(188.893 48.75 16.464)"/><ellipse cx="51.796" cy="21.185" rx="1.548" ry="1.383" fill="#c75e72"/><ellipse cx="50.545" cy="19.802" rx="2.398" ry="1.623" fill="#d0e285"/><path fill="#bed575" d="M100.959 26.643s.471-2.405-.371-4.343c-.588-1.351-3.854.159-7.866 2.288-4.52 2.399-8.213-1.22-6.638 2.939 1.552 4.101 5.427 6.48 9.364 4.782 2.246-.968 4.951-2.755 5.511-5.666z"/><path fill="#d0e285" d="M117.001 24.24s-.915-1.727-.72-3.4c.135-1.166 2.976-.769 6.528-.072 4.003.785 5.983-2.83 5.743.708-.237 3.487-2.643 6.197-6.039 5.812-1.936-.219-4.413-.958-5.512-3.049zM105.389 32.18s-.471-2.404.371-4.342c.588-1.351 3.854.159 7.866 2.288 4.52 2.399 8.213-1.22 6.638 2.939-1.553 4.1-5.428 6.48-9.365 4.782-2.245-.968-4.951-2.755-5.51-5.666z"/><ellipse cx="108.289" cy="19.909" rx="16.43" ry="10.879" fill="#bed575"/><path fill="#bed575" d="M94.89 17.557c0 5.75 6.269 10.411 14.001 10.411s14-4.66 14-10.41-6.46-13.102-14.192-13.102-13.81 7.351-13.81 13.101z"/><path fill="#a9bc65" d="M104.82 18.831l4.006 2.53 4.195-2.204.188-4.735-4.006-2.53-4.195 2.204zM102.935 18.92l.188-4.736-4.006-2.53-3.035 1.594c-.765 1.577-1.192 3.205-1.192 4.723 0 .25.016.5.04.745l3.811 2.407 4.194-2.204zM110.051 6.322l.151 4.226 3.395 2.521 3.245-1.706-.135-3.775c-1.419-1.019-3.02-1.815-4.735-2.276l-1.921 1.01zM114.532 19.806l4.006 2.53 4.02-2.112c.085-.286.153-.577.206-.872l.085-2.144a9.905 9.905 0 0 0-.457-2.145l-3.477-2.197-4.195 2.205-.188 4.735zM99.283 11.232l3.543 2.263 4.532-2.448.989-4.712-1.947-1.244c-2.46.47-4.684 1.656-6.506 3.231l-.611 2.91zM118.794 9.367l-.067 1.68 2.606 1.646a15.923 15.923 0 0 0-2.539-3.326zM117.009 26.45l.106-2.664-4.007-2.53-4.194 2.205-.189 4.734.294.186c2.979-.021 5.733-.733 7.99-1.93zM107.662 27.538l.188-4.735-4.006-2.53-4.195 2.204-.128 3.23c1.89 1.267 4.248 2.154 6.857 2.505l1.284-.674zM122.034 21.566l-3.604 1.894-.087 2.19c1.633-1.111 2.911-2.508 3.691-4.084zM98.228 24.715l.098-2.463-3.078-1.944c.51 1.654 1.55 3.159 2.98 4.407z"/><path fill="#a9bc65" d="M99.797 15.454s2.112-1.243 4.22-1.093c1.469.105 3.189.372 4.651 1.786 1.99 1.924 2.461 5.099 2.486 6.724.064 4.293-2.803 7.01-7.25 6.906-4.383-.102-7.915-2.966-7.621-7.244.167-2.44.955-5.584 3.514-7.08z" opacity=".7"/><path fill="#d0e285" d="M92.988 24.389s.763-2.051 2.283-3.151c1.06-.768 2.379-1.568 4.148-1.441 2.408.172-1.365 3.302.625 6.74 2.241 3.875 6.652 2.776 3.562 5.244-3.047 2.433-7.02 2.5-9.153-.574-1.217-1.753-2.396-4.341-1.465-6.818z"/><path fill="#d0e285" d="M92.353 10.794s2.112-1.243 4.22-1.093c1.469.105 3.189.372 4.651 1.786 1.99 1.924 2.461 5.1 2.486 6.724.064 4.293-2.803 7.01-7.25 6.906-4.383-.102-7.915-2.966-7.621-7.244.167-2.439.955-5.584 3.514-7.079z"/><ellipse cx="98.098" cy="17.827" rx=".555" ry=".772" fill="#304454" transform="rotate(188.893 98.098 17.827)"/><ellipse cx="91.606" cy="16.464" rx=".555" ry=".772" fill="#304454" transform="rotate(188.893 91.606 16.464)"/><ellipse cx="94.654" cy="21.185" rx="1.548" ry="1.383" fill="#c75e72"/><ellipse cx="93.402" cy="19.802" rx="2.398" ry="1.623" fill="#d0e285"/><path fill="#bed575" d="M143.816 26.643s.471-2.405-.371-4.343c-.588-1.351-3.854.159-7.866 2.288-4.52 2.399-8.213-1.22-6.638 2.939 1.553 4.101 5.428 6.48 9.365 4.782 2.245-.968 4.95-2.755 5.51-5.666z"/><path fill="#d0e285" d="M159.858 24.24s-.915-1.727-.72-3.4c.135-1.166 2.976-.769 6.528-.072 4.003.785 5.983-2.83 5.743.708-.237 3.487-2.643 6.197-6.039 5.812-1.936-.219-4.413-.958-5.512-3.049zM148.246 32.18s-.471-2.404.371-4.342c.588-1.351 3.854.159 7.866 2.288 4.52 2.399 8.213-1.22 6.638 2.939-1.553 4.1-5.428 6.48-9.365 4.782-2.245-.968-4.951-2.755-5.51-5.666z"/><ellipse cx="151.147" cy="19.909" rx="16.43" ry="10.879" fill="#bed575"/><path fill="#bed575" d="M137.747 17.557c0 5.75 6.269 10.411 14.001 10.411s14-4.66 14-10.41-6.46-13.102-14.192-13.102-13.809 7.351-13.809 13.101z"/><path fill="#a9bc65" d="M147.677 18.831l4.006 2.53 4.195-2.204.188-4.735-4.006-2.53-4.195 2.204zM145.792 18.92l.188-4.736-4.006-2.53-3.035 1.594c-.765 1.577-1.192 3.205-1.192 4.723 0 .25.016.5.04.745l3.811 2.407 4.194-2.204zM152.908 6.322l.151 4.226 3.395 2.521 3.245-1.706-.135-3.775c-1.419-1.019-3.02-1.815-4.735-2.276l-1.921 1.01zM157.39 19.806l4.006 2.53 4.02-2.112c.085-.286.153-.577.206-.872l.085-2.144a9.905 9.905 0 0 0-.457-2.145l-3.477-2.197-4.195 2.205-.188 4.735zM142.14 11.232l3.543 2.263 4.532-2.448.989-4.712-1.947-1.244c-2.46.47-4.684 1.656-6.506 3.231l-.611 2.91zM161.651 9.367l-.067 1.68 2.606 1.646a15.923 15.923 0 0 0-2.539-3.326zM159.866 26.45l.106-2.664-4.007-2.53-4.194 2.205-.189 4.734.294.186c2.979-.021 5.733-.733 7.99-1.93zM150.519 27.538l.188-4.735-4.006-2.53-4.195 2.204-.128 3.23c1.89 1.267 4.248 2.154 6.857 2.505l1.284-.674zM164.891 21.566l-3.604 1.894-.087 2.19c1.633-1.111 2.911-2.508 3.691-4.084zM141.085 24.715l.098-2.463-3.078-1.944c.51 1.654 1.549 3.159 2.98 4.407z"/><path fill="#a9bc65" d="M142.654 15.454s2.112-1.243 4.22-1.093c1.469.105 3.189.372 4.651 1.786 1.99 1.924 2.461 5.099 2.486 6.724.064 4.293-2.803 7.01-7.25 6.906-4.383-.102-7.915-2.966-7.621-7.244.167-2.44.955-5.584 3.514-7.08z" opacity=".7"/><path fill="#d0e285" d="M135.845 24.389s.763-2.051 2.283-3.151c1.06-.768 2.379-1.568 4.148-1.441 2.408.172-1.365 3.302.625 6.74 2.241 3.875 6.652 2.776 3.562 5.244-3.047 2.433-7.02 2.5-9.153-.574-1.217-1.753-2.396-4.341-1.465-6.818z"/><path fill="#d0e285" d="M135.21 10.794s2.112-1.243 4.22-1.093c1.469.105 3.189.372 4.651 1.786 1.99 1.924 2.461 5.1 2.486 6.724.064 4.293-2.803 7.01-7.25 6.906-4.383-.102-7.915-2.966-7.621-7.244.167-2.439.955-5.584 3.514-7.079z"/><ellipse cx="140.956" cy="17.827" rx=".555" ry=".772" fill="#304454" transform="rotate(188.893 140.956 17.827)"/><ellipse cx="134.463" cy="16.464" rx=".555" ry=".772" fill="#304454" transform="rotate(188.893 134.463 16.464)"/><ellipse cx="137.511" cy="21.185" rx="1.548" ry="1.383" fill="#c75e72"/><ellipse cx="136.259" cy="19.802" rx="2.398" ry="1.623" fill="#d0e285"/><path fill="#bed575" d="M186.673 26.643s.471-2.405-.371-4.343c-.588-1.351-3.854.159-7.866 2.288-4.52 2.399-8.213-1.22-6.638 2.939 1.553 4.101 5.428 6.48 9.365 4.782 2.245-.968 4.95-2.755 5.51-5.666z"/><path fill="#d0e285" d="M202.715 24.24s-.915-1.727-.72-3.4c.135-1.166 2.976-.769 6.528-.072 4.003.785 5.983-2.83 5.743.708-.237 3.487-2.643 6.197-6.039 5.812-1.936-.219-4.413-.958-5.512-3.049zM191.104 32.18s-.471-2.404.371-4.342c.588-1.351 3.854.159 7.866 2.288 4.52 2.399 8.213-1.22 6.638 2.939-1.553 4.1-5.428 6.48-9.365 4.782-2.245-.968-4.951-2.755-5.51-5.666z"/><ellipse cx="194.004" cy="19.909" rx="16.43" ry="10.879" fill="#bed575"/><path fill="#bed575" d="M180.604 17.557c0 5.75 6.269 10.411 14.001 10.411s14-4.66 14-10.41-6.46-13.102-14.192-13.102-13.809 7.351-13.809 13.101z"/><path fill="#a9bc65" d="M190.534 18.831l4.006 2.53 4.195-2.204.188-4.735-4.006-2.53-4.195 2.204zM188.649 18.92l.188-4.736-4.006-2.53-3.035 1.594c-.765 1.577-1.192 3.205-1.192 4.723 0 .25.016.5.04.745l3.811 2.407 4.194-2.204zM195.766 6.322l.151 4.226 3.395 2.521 3.245-1.706-.135-3.775c-1.419-1.019-3.02-1.815-4.735-2.276l-1.921 1.01zM200.247 19.806l4.006 2.53 4.02-2.112c.085-.286.153-.577.206-.872l.085-2.144a9.905 9.905 0 0 0-.457-2.145l-3.477-2.197-4.195 2.205-.188 4.735zM184.997 11.232l3.543 2.263 4.532-2.448.989-4.712-1.947-1.244c-2.46.47-4.684 1.656-6.506 3.231l-.611 2.91zM204.508 9.367l-.067 1.68 2.606 1.646a15.923 15.923 0 0 0-2.539-3.326zM202.724 26.45l.106-2.664-4.007-2.53-4.194 2.205-.189 4.734.294.186c2.979-.021 5.733-.733 7.99-1.93zM193.376 27.538l.188-4.735-4.006-2.53-4.195 2.204-.128 3.23c1.89 1.267 4.248 2.154 6.857 2.505l1.284-.674zM207.748 21.566l-3.604 1.894-.087 2.19c1.633-1.111 2.911-2.508 3.691-4.084zM183.943 24.715l.098-2.463-3.078-1.944c.51 1.654 1.549 3.159 2.98 4.407z"/><path fill="#a9bc65" d="M185.511 15.454s2.112-1.243 4.22-1.093c1.469.105 3.189.372 4.651 1.786 1.99 1.924 2.461 5.099 2.486 6.724.064 4.293-2.803 7.01-7.25 6.906-4.383-.102-7.915-2.966-7.621-7.244.167-2.44.955-5.584 3.514-7.08z" opacity=".7"/><path fill="#d0e285" d="M178.702 24.389s.763-2.051 2.283-3.151c1.06-.768 2.379-1.568 4.148-1.441 2.408.172-1.365 3.302.625 6.74 2.241 3.875 6.652 2.776 3.562 5.244-3.047 2.433-7.02 2.5-9.153-.574-1.217-1.753-2.396-4.341-1.465-6.818z"/><path fill="#d0e285" d="M178.067 10.794s2.112-1.243 4.22-1.093c1.469.105 3.189.372 4.651 1.786 1.99 1.924 2.461 5.1 2.486 6.724.064 4.293-2.803 7.01-7.25 6.906-4.383-.102-7.915-2.966-7.621-7.244.167-2.439.955-5.584 3.514-7.079z"/><ellipse cx="183.813" cy="17.827" rx=".555" ry=".772" fill="#304454" transform="rotate(188.893 183.813 17.827)"/><ellipse cx="177.321" cy="16.464" rx=".555" ry=".772" fill="#304454" transform="rotate(188.893 177.32 16.464)"/><ellipse cx="180.368" cy="21.185" rx="1.548" ry="1.383" fill="#c75e72"/><ellipse cx="179.116" cy="19.802" rx="2.398" ry="1.623" fill="#d0e285"/><path fill="#bed575" d="M15.244-16.214s.471-2.405-.37-4.343c-.589-1.351-3.855.159-7.867 2.288C2.487-15.87-1.206-19.49.37-15.33c1.553 4.1 5.428 6.48 9.365 4.782 2.245-.968 4.95-2.755 5.51-5.666z"/><path fill="#d0e285" d="M31.287-18.618s-.915-1.726-.72-3.399c.134-1.166 2.975-.769 6.527-.072 4.003.785 5.983-2.83 5.743.708-.237 3.487-2.643 6.197-6.039 5.812-1.936-.219-4.413-.958-5.512-3.049zM19.675-10.676s-.471-2.405.37-4.343c.589-1.351 3.855.159 7.867 2.288 4.52 2.399 8.213-1.22 6.638 2.939-1.553 4.1-5.428 6.48-9.365 4.782-2.245-.968-4.951-2.755-5.51-5.666z"/><ellipse cx="22.575" cy="-22.948" rx="16.43" ry="10.879" fill="#bed575"/><path fill="#bed575" d="M9.175-25.3c0 5.75 6.27 10.411 14.001 10.411s14-4.66 14-10.41-6.46-13.102-14.192-13.102S9.175-31.05 9.175-25.3z"/><path fill="#a9bc65" d="M19.105-24.026l4.006 2.53 4.195-2.204.188-4.735-4.006-2.531-4.195 2.205zM17.22-23.938l.189-4.735-4.006-2.53-3.035 1.594c-.765 1.577-1.192 3.205-1.192 4.723 0 .25.016.5.04.745l3.81 2.407 4.195-2.204zM24.337-36.535l.15 4.226 3.396 2.521 3.245-1.706-.135-3.775c-1.42-1.019-3.02-1.815-4.735-2.276l-1.921 1.01zM28.818-23.051l4.006 2.53 4.02-2.112c.085-.286.153-.577.206-.872l.085-2.144a9.905 9.905 0 0 0-.457-2.145l-3.477-2.197-4.195 2.205-.188 4.735zM13.568-31.625l3.543 2.263 4.532-2.448.99-4.712-1.948-1.244c-2.46.469-4.684 1.656-6.506 3.231l-.61 2.91zM33.08-33.49l-.067 1.68 2.605 1.646a15.922 15.922 0 0 0-2.538-3.326zM31.295-16.406l.106-2.665-4.007-2.53-4.194 2.205-.189 4.734.294.186c2.979-.021 5.733-.733 7.99-1.93zM21.947-15.32l.188-4.734-4.006-2.53-4.195 2.204-.128 3.23c1.89 1.267 4.248 2.154 6.857 2.505l1.284-.674zM36.32-21.291l-3.605 1.893-.087 2.192c1.633-1.113 2.911-2.51 3.691-4.085zM12.514-18.142l.098-2.464-3.078-1.944c.51 1.655 1.549 3.16 2.98 4.408z"/><path fill="#a9bc65" d="M14.083-27.403s2.112-1.243 4.22-1.093c1.469.105 3.189.372 4.65 1.786 1.99 1.924 2.462 5.099 2.487 6.724.064 4.293-2.803 7.01-7.25 6.906-4.383-.102-7.915-2.966-7.621-7.244.167-2.44.955-5.584 3.514-7.08z" opacity=".7"/><path fill="#d0e285" d="M7.273-18.468s.763-2.051 2.283-3.151c1.06-.768 2.38-1.568 4.148-1.441 2.408.172-1.365 3.302.625 6.74 2.241 3.875 6.652 2.776 3.562 5.244-3.047 2.433-7.02 2.5-9.153-.574-1.217-1.753-2.396-4.341-1.465-6.818z"/><path fill="#d0e285" d="M6.639-32.063s2.112-1.243 4.22-1.093c1.469.105 3.189.372 4.65 1.786 1.99 1.924 2.462 5.1 2.487 6.724.064 4.293-2.803 7.01-7.25 6.906-4.383-.102-7.915-2.966-7.621-7.244.167-2.439.955-5.584 3.514-7.079z"/><ellipse cx="12.384" cy="-25.03" rx=".555" ry=".772" fill="#304454" transform="rotate(188.893 12.384 -25.03)"/><ellipse cx="5.892" cy="-26.393" rx=".555" ry=".772" fill="#304454" transform="rotate(188.893 5.892 -26.393)"/><ellipse cx="8.939" cy="-21.672" rx="1.548" ry="1.383" fill="#c75e72"/><ellipse cx="7.688" cy="-23.056" rx="2.398" ry="1.623" fill="#d0e285"/><path fill="#bed575" d="M58.101-16.214s.471-2.405-.37-4.343c-.589-1.351-3.855.159-7.867 2.288-4.52 2.399-8.213-1.22-6.638 2.939 1.553 4.1 5.428 6.48 9.365 4.782 2.245-.968 4.95-2.755 5.51-5.666z"/><path fill="#d0e285" d="M74.144-18.618s-.915-1.726-.72-3.399c.135-1.166 2.976-.769 6.528-.072 4.003.785 5.983-2.83 5.743.708-.237 3.487-2.643 6.197-6.04 5.812-1.935-.219-4.412-.958-5.511-3.049zM62.532-10.676s-.47-2.405.371-4.343c.588-1.351 3.854.159 7.866 2.288 4.52 2.399 8.213-1.22 6.638 2.939-1.553 4.1-5.428 6.48-9.365 4.782-2.245-.968-4.95-2.755-5.51-5.666z"/><ellipse cx="65.432" cy="-22.948" rx="16.43" ry="10.879" fill="#bed575"/><path fill="#bed575" d="M52.032-25.3c0 5.75 6.27 10.411 14.002 10.411s14-4.66 14-10.41-6.46-13.102-14.193-13.102S52.033-31.05 52.033-25.3z"/><path fill="#a9bc65" d="M61.962-24.026l4.006 2.53 4.195-2.204.188-4.735-4.006-2.531-4.195 2.205zM60.078-23.938l.188-4.735-4.006-2.53-3.035 1.594c-.765 1.577-1.192 3.205-1.192 4.723 0 .25.016.5.04.745l3.81 2.407 4.195-2.204zM67.194-36.535l.151 4.226 3.395 2.521 3.245-1.706-.135-3.775c-1.419-1.019-3.02-1.815-4.735-2.276l-1.92 1.01zM71.675-23.051l4.006 2.53 4.02-2.112c.085-.286.153-.577.206-.872l.085-2.144a9.905 9.905 0 0 0-.457-2.145l-3.477-2.197-4.195 2.205-.188 4.735zM56.425-31.625l3.543 2.263L64.5-31.81l.99-4.712-1.948-1.244c-2.46.469-4.684 1.656-6.506 3.231l-.61 2.91zM75.937-33.49l-.067 1.68 2.606 1.646a15.922 15.922 0 0 0-2.54-3.326zM74.152-16.406l.106-2.665-4.007-2.53-4.194 2.205-.189 4.734.294.186c2.98-.021 5.733-.733 7.99-1.93zM64.805-15.32l.188-4.734-4.006-2.53-4.195 2.204-.128 3.23c1.89 1.267 4.248 2.154 6.857 2.505l1.284-.674zM79.177-21.291l-3.604 1.893-.087 2.192c1.633-1.113 2.91-2.51 3.69-4.085zM55.371-18.142l.098-2.464-3.078-1.944c.51 1.655 1.55 3.16 2.98 4.408z"/><path fill="#a9bc65" d="M56.94-27.403s2.112-1.243 4.22-1.093c1.469.105 3.189.372 4.65 1.786 1.99 1.924 2.462 5.099 2.487 6.724.064 4.293-2.803 7.01-7.25 6.906-4.383-.102-7.915-2.966-7.621-7.244.167-2.44.955-5.584 3.514-7.08z" opacity=".7"/><path fill="#d0e285" d="M50.13-18.468s.764-2.051 2.283-3.151c1.06-.768 2.38-1.568 4.149-1.441 2.407.172-1.365 3.302.625 6.74 2.24 3.875 6.652 2.776 3.562 5.244-3.047 2.433-7.02 2.5-9.154-.574-1.216-1.753-2.395-4.341-1.465-6.818z"/><path fill="#d0e285" d="M49.496-32.063s2.112-1.243 4.22-1.093c1.469.105 3.189.372 4.65 1.786 1.99 1.924 2.462 5.1 2.487 6.724.064 4.293-2.803 7.01-7.25 6.906-4.383-.102-7.915-2.966-7.621-7.244.167-2.439.955-5.584 3.514-7.079z"/><ellipse cx="55.241" cy="-25.03" rx=".555" ry=".772" fill="#304454" transform="rotate(188.893 55.241 -25.03)"/><ellipse cx="48.749" cy="-26.393" rx=".555" ry=".772" fill="#304454" transform="rotate(188.893 48.75 -26.393)"/><ellipse cx="51.796" cy="-21.672" rx="1.548" ry="1.383" fill="#c75e72"/><ellipse cx="50.545" cy="-23.056" rx="2.398" ry="1.623" fill="#d0e285"/><path fill="#bed575" d="M100.959-16.214s.471-2.405-.371-4.343c-.588-1.351-3.854.159-7.866 2.288-4.52 2.399-8.213-1.22-6.638 2.939 1.552 4.1 5.427 6.48 9.364 4.782 2.246-.968 4.951-2.755 5.511-5.666z"/><path fill="#d0e285" d="M117.001-18.618s-.915-1.726-.72-3.399c.135-1.166 2.976-.769 6.528-.072 4.003.785 5.983-2.83 5.743.708-.237 3.487-2.643 6.197-6.039 5.812-1.936-.219-4.413-.958-5.512-3.049zM105.389-10.676s-.471-2.405.371-4.343c.588-1.351 3.854.159 7.866 2.288 4.52 2.399 8.213-1.22 6.638 2.939-1.553 4.1-5.428 6.48-9.365 4.782-2.245-.968-4.951-2.755-5.51-5.666z"/><ellipse cx="108.289" cy="-22.948" rx="16.43" ry="10.879" fill="#bed575"/><path fill="#bed575" d="M94.89-25.3c0 5.75 6.269 10.411 14.001 10.411s14-4.66 14-10.41-6.46-13.102-14.192-13.102-13.81 7.351-13.81 13.101z"/><path fill="#a9bc65" d="M104.82-24.026l4.006 2.53 4.195-2.204.188-4.735-4.006-2.531-4.195 2.205zM102.935-23.938l.188-4.735-4.006-2.53-3.035 1.594c-.765 1.577-1.192 3.205-1.192 4.723 0 .25.016.5.04.745l3.811 2.407 4.194-2.204zM110.051-36.535l.151 4.226 3.395 2.521 3.245-1.706-.135-3.775c-1.419-1.019-3.02-1.815-4.735-2.276l-1.921 1.01zM114.532-23.051l4.006 2.53 4.02-2.112c.085-.286.153-.577.206-.872l.085-2.144a9.905 9.905 0 0 0-.457-2.145l-3.477-2.197-4.195 2.205-.188 4.735zM99.283-31.625l3.543 2.263 4.532-2.448.989-4.712-1.947-1.244c-2.46.469-4.684 1.656-6.506 3.231l-.611 2.91zM118.794-33.49l-.067 1.68 2.606 1.646a15.922 15.922 0 0 0-2.539-3.326zM117.009-16.406l.106-2.665-4.007-2.53-4.194 2.205-.189 4.734.294.186c2.979-.021 5.733-.733 7.99-1.93zM107.662-15.32l.188-4.734-4.006-2.53-4.195 2.204-.128 3.23c1.89 1.267 4.248 2.154 6.857 2.505l1.284-.674zM122.034-21.291l-3.604 1.893-.087 2.192c1.633-1.113 2.911-2.51 3.691-4.085zM98.228-18.142l.098-2.464-3.078-1.944c.51 1.655 1.55 3.16 2.98 4.408z"/><path fill="#a9bc65" d="M99.797-27.403s2.112-1.243 4.22-1.093c1.469.105 3.189.372 4.651 1.786 1.99 1.924 2.461 5.099 2.486 6.724.064 4.293-2.803 7.01-7.25 6.906-4.383-.102-7.915-2.966-7.621-7.244.167-2.44.955-5.584 3.514-7.08z" opacity=".7"/><path fill="#d0e285" d="M92.988-18.468s.763-2.051 2.283-3.151c1.06-.768 2.379-1.568 4.148-1.441 2.408.172-1.365 3.302.625 6.74 2.241 3.875 6.652 2.776 3.562 5.244-3.047 2.433-7.02 2.5-9.153-.574-1.217-1.753-2.396-4.341-1.465-6.818z"/><path fill="#d0e285" d="M92.353-32.063s2.112-1.243 4.22-1.093c1.469.105 3.189.372 4.651 1.786 1.99 1.924 2.461 5.1 2.486 6.724.064 4.293-2.803 7.01-7.25 6.906-4.383-.102-7.915-2.966-7.621-7.244.167-2.439.955-5.584 3.514-7.079z"/><ellipse cx="98.098" cy="-25.03" rx=".555" ry=".772" fill="#304454" transform="rotate(188.893 98.098 -25.03)"/><ellipse cx="91.606" cy="-26.393" rx=".555" ry=".772" fill="#304454" transform="rotate(188.893 91.606 -26.393)"/><ellipse cx="94.654" cy="-21.672" rx="1.548" ry="1.383" fill="#c75e72"/><ellipse cx="93.402" cy="-23.056" rx="2.398" ry="1.623" fill="#d0e285"/><path fill="#bed575" d="M143.816-16.214s.471-2.405-.371-4.343c-.588-1.351-3.854.159-7.866 2.288-4.52 2.399-8.213-1.22-6.638 2.939 1.553 4.1 5.428 6.48 9.365 4.782 2.245-.968 4.95-2.755 5.51-5.666z"/><path fill="#d0e285" d="M159.858-18.618s-.915-1.726-.72-3.399c.135-1.166 2.976-.769 6.528-.072 4.003.785 5.983-2.83 5.743.708-.237 3.487-2.643 6.197-6.039 5.812-1.936-.219-4.413-.958-5.512-3.049zM148.246-10.676s-.471-2.405.371-4.343c.588-1.351 3.854.159 7.866 2.288 4.52 2.399 8.213-1.22 6.638 2.939-1.553 4.1-5.428 6.48-9.365 4.782-2.245-.968-4.951-2.755-5.51-5.666z"/><ellipse cx="151.147" cy="-22.948" rx="16.43" ry="10.879" fill="#bed575"/><path fill="#bed575" d="M137.747-25.3c0 5.75 6.269 10.411 14.001 10.411s14-4.66 14-10.41-6.46-13.102-14.192-13.102-13.809 7.351-13.809 13.101z"/><path fill="#a9bc65" d="M147.677-24.026l4.006 2.53 4.195-2.204.188-4.735-4.006-2.531-4.195 2.205zM145.792-23.938l.188-4.735-4.006-2.53-3.035 1.594c-.765 1.577-1.192 3.205-1.192 4.723 0 .25.016.5.04.745l3.811 2.407 4.194-2.204zM152.908-36.535l.151 4.226 3.395 2.521 3.245-1.706-.135-3.775c-1.419-1.019-3.02-1.815-4.735-2.276l-1.921 1.01zM157.39-23.051l4.006 2.53 4.02-2.112c.085-.286.153-.577.206-.872l.085-2.144a9.905 9.905 0 0 0-.457-2.145l-3.477-2.197-4.195 2.205-.188 4.735zM142.14-31.625l3.543 2.263 4.532-2.448.989-4.712-1.947-1.244c-2.46.469-4.684 1.656-6.506 3.231l-.611 2.91zM161.651-33.49l-.067 1.68 2.606 1.646a15.922 15.922 0 0 0-2.539-3.326zM159.866-16.406l.106-2.665-4.007-2.53-4.194 2.205-.189 4.734.294.186c2.979-.021 5.733-.733 7.99-1.93zM150.519-15.32l.188-4.734-4.006-2.53-4.195 2.204-.128 3.23c1.89 1.267 4.248 2.154 6.857 2.505l1.284-.674zM164.891-21.291l-3.604 1.893-.087 2.192c1.633-1.113 2.911-2.51 3.691-4.085zM141.085-18.142l.098-2.464-3.078-1.944c.51 1.655 1.549 3.16 2.98 4.408z"/><path fill="#a9bc65" d="M142.654-27.403s2.112-1.243 4.22-1.093c1.469.105 3.189.372 4.651 1.786 1.99 1.924 2.461 5.099 2.486 6.724.064 4.293-2.803 7.01-7.25 6.906-4.383-.102-7.915-2.966-7.621-7.244.167-2.44.955-5.584 3.514-7.08z" opacity=".7"/><path fill="#d0e285" d="M135.845-18.468s.763-2.051 2.283-3.151c1.06-.768 2.379-1.568 4.148-1.441 2.408.172-1.365 3.302.625 6.74 2.241 3.875 6.652 2.776 3.562 5.244-3.047 2.433-7.02 2.5-9.153-.574-1.217-1.753-2.396-4.341-1.465-6.818z"/><path fill="#d0e285" d="M135.21-32.063s2.112-1.243 4.22-1.093c1.469.105 3.189.372 4.651 1.786 1.99 1.924 2.461 5.1 2.486 6.724.064 4.293-2.803 7.01-7.25 6.906-4.383-.102-7.915-2.966-7.621-7.244.167-2.439.955-5.584 3.514-7.079z"/><ellipse cx="140.956" cy="-25.03" rx=".555" ry=".772" fill="#304454" transform="rotate(188.893 140.956 -25.03)"/><ellipse cx="134.463" cy="-26.393" rx=".555" ry=".772" fill="#304454" transform="rotate(188.893 134.463 -26.393)"/><ellipse cx="137.511" cy="-21.672" rx="1.548" ry="1.383" fill="#c75e72"/><ellipse cx="136.259" cy="-23.056" rx="2.398" ry="1.623" fill="#d0e285"/><path fill="#bed575" d="M186.673-16.214s.471-2.405-.371-4.343c-.588-1.351-3.854.159-7.866 2.288-4.52 2.399-8.213-1.22-6.638 2.939 1.553 4.1 5.428 6.48 9.365 4.782 2.245-.968 4.95-2.755 5.51-5.666z"/><path fill="#d0e285" d="M202.715-18.618s-.915-1.726-.72-3.399c.135-1.166 2.976-.769 6.528-.072 4.003.785 5.983-2.83 5.743.708-.237 3.487-2.643 6.197-6.039 5.812-1.936-.219-4.413-.958-5.512-3.049zM191.104-10.676s-.471-2.405.371-4.343c.588-1.351 3.854.159 7.866 2.288 4.52 2.399 8.213-1.22 6.638 2.939-1.553 4.1-5.428 6.48-9.365 4.782-2.245-.968-4.951-2.755-5.51-5.666z"/><ellipse cx="194.004" cy="-22.948" rx="16.43" ry="10.879" fill="#bed575"/><path fill="#bed575" d="M180.604-25.3c0 5.75 6.269 10.411 14.001 10.411s14-4.66 14-10.41-6.46-13.102-14.192-13.102-13.809 7.351-13.809 13.101z"/><path fill="#a9bc65" d="M190.534-24.026l4.006 2.53 4.195-2.204.188-4.735-4.006-2.531-4.195 2.205zM188.649-23.938l.188-4.735-4.006-2.53-3.035 1.594c-.765 1.577-1.192 3.205-1.192 4.723 0 .25.016.5.04.745l3.811 2.407 4.194-2.204zM195.766-36.535l.151 4.226 3.395 2.521 3.245-1.706-.135-3.775c-1.419-1.019-3.02-1.815-4.735-2.276l-1.921 1.01zM200.247-23.051l4.006 2.53 4.02-2.112c.085-.286.153-.577.206-.872l.085-2.144a9.905 9.905 0 0 0-.457-2.145l-3.477-2.197-4.195 2.205-.188 4.735zM184.997-31.625l3.543 2.263 4.532-2.448.989-4.712-1.947-1.244c-2.46.469-4.684 1.656-6.506 3.231l-.611 2.91zM204.508-33.49l-.067 1.68 2.606 1.646a15.922 15.922 0 0 0-2.539-3.326zM202.724-16.406l.106-2.665-4.007-2.53-4.194 2.205-.189 4.734.294.186c2.979-.021 5.733-.733 7.99-1.93zM193.376-15.32l.188-4.734-4.006-2.53-4.195 2.204-.128 3.23c1.89 1.267 4.248 2.154 6.857 2.505l1.284-.674zM207.748-21.291l-3.604 1.893-.087 2.192c1.633-1.113 2.911-2.51 3.691-4.085zM183.943-18.142l.098-2.464-3.078-1.944c.51 1.655 1.549 3.16 2.98 4.408z"/><path fill="#a9bc65" d="M185.511-27.403s2.112-1.243 4.22-1.093c1.469.105 3.189.372 4.651 1.786 1.99 1.924 2.461 5.099 2.486 6.724.064 4.293-2.803 7.01-7.25 6.906-4.383-.102-7.915-2.966-7.621-7.244.167-2.44.955-5.584 3.514-7.08z" opacity=".7"/><path fill="#d0e285" d="M178.702-18.468s.763-2.051 2.283-3.151c1.06-.768 2.379-1.568 4.148-1.441 2.408.172-1.365 3.302.625 6.74 2.241 3.875 6.652 2.776 3.562 5.244-3.047 2.433-7.02 2.5-9.153-.574-1.217-1.753-2.396-4.341-1.465-6.818z"/><path fill="#d0e285" d="M178.067-32.063s2.112-1.243 4.22-1.093c1.469.105 3.189.372 4.651 1.786 1.99 1.924 2.461 5.1 2.486 6.724.064 4.293-2.803 7.01-7.25 6.906-4.383-.102-7.915-2.966-7.621-7.244.167-2.439.955-5.584 3.514-7.079z"/><ellipse cx="183.813" cy="-25.03" rx=".555" ry=".772" fill="#304454" transform="rotate(188.893 183.813 -25.03)"/><ellipse cx="177.321" cy="-26.393" rx=".555" ry=".772" fill="#304454" transform="rotate(188.893 177.32 -26.393)"/><ellipse cx="180.368" cy="-21.672" rx="1.548" ry="1.383" fill="#c75e72"/><ellipse cx="179.116" cy="-23.056" rx="2.398" ry="1.623" fill="#d0e285"/></svg>
