<svg xmlns="http://www.w3.org/2000/svg" width="100" height="50" viewBox="0 0 100 50"><defs><linearGradient id="a" y1=".095" x2="1"><stop offset="0%" stop-color="#fdd1b0"/><stop offset="24.44%" stop-color="#f3c2a0"/><stop offset="65.91%" stop-color="#dfa27e"/><stop offset="100%" stop-color="#cc8461"/></linearGradient><linearGradient id="b" x2="1" y2=".132"><stop offset="0%" stop-color="#fdd1b0"/><stop offset="24.44%" stop-color="#f3c2a0"/><stop offset="65.91%" stop-color="#dfa27e"/><stop offset="100%" stop-color="#cc8461"/></linearGradient><radialGradient id="c" fx=".5" fy=".5"><stop offset="0%" stop-color="#fee6d3"/><stop offset="100%" stop-color="#fdd1b0"/></radialGradient><radialGradient id="d" fx=".5" fy=".5"><stop offset="0%" stop-color="#f69896"/><stop offset="43.76%" stop-color="#f9b2a2"/><stop offset="100%" stop-color="#fdd1b0"/></radialGradient><radialGradient id="e" fx=".5" fy=".5"><stop offset="0%" stop-color="#fee6d3"/><stop offset="100%" stop-color="#fdd1b0"/></radialGradient><radialGradient id="f" fx=".5" fy=".5"><stop offset="0%" stop-color="#fee6d3"/><stop offset="100%" stop-color="#fdd1b0"/></radialGradient><radialGradient id="g" fx=".5" fy=".5"><stop offset="0%" stop-color="#fee6d3"/><stop offset="100%" stop-color="#fdd1b0"/></radialGradient><linearGradient id="h" x1="1" y1=".164" x2="0"><stop offset="0%" stop-color="#fdd1b0"/><stop offset="35.75%" stop-color="#f3bf9c"/><stop offset="100%" stop-color="#e19a75"/></linearGradient><radialGradient id="i" fx=".5" fy=".5"><stop offset="0%" stop-color="#fee6d3"/><stop offset="100%" stop-color="#fdd1b0"/></radialGradient><radialGradient id="j" fx=".5" fy=".5"><stop offset="0%" stop-color="#fee6d3"/><stop offset="100%" stop-color="#fdd1b0"/></radialGradient><radialGradient id="k" fx=".5" fy=".5"><stop offset="0%" stop-color="#fee6d3"/><stop offset="100%" stop-color="#fdd1b0"/></radialGradient><radialGradient id="l" fx=".5" fy=".5"><stop offset="0%" stop-color="#fee6d3"/><stop offset="100%" stop-color="#fdd1b0"/></radialGradient><radialGradient id="m" fx=".5" fy=".5"><stop offset="0%" stop-color="#fee6d3"/><stop offset="100%" stop-color="#fcc7a3"/></radialGradient></defs><path fill="url(#a)" d="M86.064 49.269s.518-.072.867.174c.5.348 1.087 0 .646-.537-.442-.538-2.169-.768-2.587-.597-.419.172 1.074.96 1.074.96z"/><path fill="url(#b)" d="M85.916 49.467s.516-.073.865.172c.5.351 1.09.002.647-.535-.44-.537-1.777-.916-2.197-.743-.419.173.685 1.106.685 1.106z"/><path fill="url(#c)" d="M84.86 47.38s.173.976 1.222 1.107c.643.08 1.178 1.026.727 1.377-.402.311-.398.042-.872-.352-.304-.258-.73-.178-1.164-.135-.496.05-.868-.458-1.342-.42-.471.032-1.138.525-1.34.345-.186-.165-.265-.897 1.373-1.91.155-.097.14-.46.323-.579.429-.274 1.074.566 1.074.566z"/><path fill="#d14e3f" d="M75.62 35.99s5.322 2 7.707 5.27c2.06 2.826 2.031 5.038 1.571 6.32l-.355-.393-.404.303-.253-.45-.423.353s.521-3.286-2.69-6.24c-3.638-3.334-5.915-2.37-5.915-2.37l.761-2.793zM71.66 36.54s-5.652-.63-9.26 1.207c-3.116 1.587-4.092 3.57-4.266 4.922l.495-.19.224.452.43-.284.217.504s1.022-3.163 5.225-4.34c4.753-1.327 6.347.566 6.347.566l.587-2.836zM69.94 7.741s.49-2.467-.951-3.497c-1.357-.97-2.342-2.82-1.608-3.38.735-.559 1.368-1.066 1.943-.495.554.543.452 1.434 1.51 2.204.288.212.686.463 1.346.771.559.261.784 1.074.348 1.714-.644.945-.52 2.41-1.251 3.332-1.263 1.592-1.337-.649-1.337-.649z"/><path fill="#d14e3f" d="M73.722 18.323s-3.83-2.612-4.031-7.527c-.025-.656.058-1.972.146-2.77.016-.142-.452-.591-.721-.996.13.038.588.255.873.44.136-.133.212-.318.347-.488l.242.509.328-.544.312.51.271-.436s.168.134.284.285c.136-.067.305-.033.726-.251-.524.589-.766.855-.794.994-.164.79-.662 2.192-.345 3.286.299 1.043.47 3.991 3.658 4.922.996.291-1.296 2.066-1.296 2.066zM67.558 2s-.703-.543-.559-.946c.148-.406 1.194-.442 1.356.234"/><path fill="#d14e3f" d="M67.844 1.695s-.705-.542-.56-.946c.147-.405 1.196-.44 1.357.233"/><path fill="#d14e3f" d="M68.237 1.408s-.704-.543-.56-.946c.147-.406 1.196-.444 1.358.236"/><path fill="#d14e3f" d="M68.598 1.238s-.705-.54-.56-.948c.147-.403 1.196-.44 1.357.235M87.234 14.462s1.367-2.11 3.118-1.849c1.65.246 3.647-.394 3.506-1.306-.14-.914-.24-1.718-1.049-1.71-.776.006-1.325.716-2.619.535-.353-.05-.814-.145-1.502-.383-.584-.202-1.312.225-1.444.987-.195 1.128-1.304 2.093-1.422 3.263-.2 2.021 1.412.463 1.412.463z"/><path fill="#d14e3f" d="M77.154 19.428s4.568.791 8.13-2.597c.479-.457 1.335-1.459 1.827-2.093.089-.113.737-.107 1.21-.212-.118-.065-.598-.226-.934-.292-.003-.19.072-.376.092-.59l-.527.193.142-.617-.58.15.11-.505s-.214-.017-.403.008c-.05-.142-.196-.235-.346-.683-.035.786-.043 1.145-.122 1.264-.433.682-1.05 2.034-2.037 2.602-.942.539-3.118 2.537-6.055.987-.918-.484-.507 2.385-.507 2.385zM92.94 11.998s.883.1 1.06-.29c.177-.392-.549-1.148-1.137-.774"/><path fill="#d14e3f" d="M92.948 11.581s.883.103 1.06-.288c.177-.394-.55-1.147-1.136-.775"/><path fill="#d14e3f" d="M92.867 11.101s.882.103 1.058-.29c.178-.392-.55-1.148-1.136-.774"/><path fill="#d14e3f" d="M92.725 10.728s.883.1 1.06-.29c.176-.392-.55-1.148-1.139-.775M71.64 24.52s-1.543-7.238 1.792-8.97c2.429-1.263 6.588-.117 6.426 3.66-.172 4.002-5.4 6.464-5.4 6.464L71.64 24.52z"/><path fill="url(#d)" d="M79.514 17.32c-.926-2.01-3.511-2.659-5.45-2.032a2.435 2.435 0 0 0-.288 1.14c0 1.468 1.323 2.658 2.955 2.658 1.285 0 2.373-.735 2.783-1.766z"/><path fill="url(#e)" d="M79.085 29.676c.122-1.126-.529-2.351-1.005-2.701-1.517-1.118-1.079-3.157.132-4.211 1.354-1.177 3.037-.961 3.822-.724 2.775.83 3.924 4.61 3.231 7.186-.685 2.556-2.852 5.16-5.211 3.685-1.146-.716-1.161-1.478-.969-3.235z"/><path fill="#e2bda1" d="M78.23 26.386c-.321-.598-.214-2.835 2.113-3.393 2.51-.6 4.737 2.139 4.828 3.966.12 2.434-1.157 5.067-3.03 5.777-.698.264.512-1.957-1.231-1.94-1.39.018-1.378-1.406-.882-2.37.496-.963-1.257-1.02-1.798-2.04z"/><path fill="#fcc7a3" d="M82.283 27.956c-.804-.755-1.837-.484-2.379-.258.204.188.29.408.123.728-.496.964-.508 2.39.881 2.371.664-.007.9.311.976.691.714-.967 1.27-2.715.4-3.532z"/><path fill="#db9e75" d="M81.978 28.325c-.609-.57-1.359-.5-1.88-.34.035.125.02.27-.07.441-.012.024-.025.05-.036.077a.693.693 0 0 1-.077.253 2.634 2.634 0 0 0-.102.223c-.24.878-.043 1.834 1.096 1.818.521-.005.78.19.901.461.546-.912.88-2.262.168-2.933z"/><path fill="url(#f)" d="M63.472 33.911c-.674-.907-.734-2.294-.499-2.837.743-1.73-.663-3.269-2.24-3.566-1.767-.33-3.107.707-3.666 1.308-1.974 2.12-1.054 5.958.845 7.833 1.885 1.86 5.07 3.011 6.36.544.626-1.196.254-1.86-.8-3.282z"/><path fill="#e2bda1" d="M62.547 30.645c-.026-.682-1.25-2.558-3.54-1.863-2.47.75-3.005 4.239-2.158 5.862 1.126 2.163 3.56 3.788 5.535 3.455.733-.127-1.434-1.432.083-2.297 1.206-.687.476-1.91-.44-2.49-.918-.58.566-1.518.52-2.667z"/><path fill="#fcc7a3" d="M59.844 34.045c.311-1.06 1.34-1.346 1.92-1.424-.082.266-.04.497.261.692.916.578 1.647 1.802.441 2.489-.579.33-.62.723-.495 1.09-1.105-.473-2.467-1.702-2.127-2.847z"/><path fill="#db9e75" d="M60.293 34.21c.237-.8.92-1.118 1.45-1.245.032.127.12.242.283.348a.34.34 0 0 1 .069.045.631.631 0 0 0 .196.18c.067.045.135.093.2.142.65.636.964 1.56-.025 2.122-.455.26-.577.558-.547.855-.932-.511-1.901-1.507-1.626-2.447z"/><path fill="url(#g)" d="M80.959 29.651c1.407 5.184-1.656 10.532-6.841 11.938a9.73 9.73 0 1 1-5.097-18.78 9.73 9.73 0 0 1 11.938 6.842z"/><path fill="#d14e3f" d="M69.5 25.13c2.388-2.726 6.273-1.702 6.273-1.702a9.677 9.677 0 0 0-6.752-.618 9.687 9.687 0 0 0-5.513 3.944s2.707-2.822 5.993-1.625z"/><path fill="#eeb490" d="M73.314 36.484c.065.238-.165.504-.511.6-.347.092-.68-.023-.743-.257-.065-.236.165-.503.51-.598.348-.093.682.022.744.255z"/><path fill="#fee6d3" d="M72.163 40.322c-1.698.963-4.232.535-4.057-.762.175-1.3 2.41-1.545 3.46-1.147.517.196 1.098.044 1.098.044s.581-.128.952-.543c.753-.835 2.851-1.638 3.602-.566.75 1.076-1.31 2.618-3.258 2.536-.407-.015-.686.01-.924.073 0 .001-.522.164-.873.365z"/><path fill="#eeb490" d="M72.09 40.024c-1.695.964-4.233.537-4.057-.762.175-1.299 2.41-1.545 3.46-1.145.519.197 1.097.044 1.097.044s.584-.129.955-.542c.75-.837 2.848-1.639 3.6-.566.75 1.074-1.31 2.615-3.258 2.536-.405-.016-.686.009-.923.072 0 .001-.521.164-.873.363z"/><path fill="#7a3440" d="M72.12 40.141c-1.698.964-4.234.537-4.059-.764.177-1.298 2.411-1.544 3.46-1.145.517.198 1.098.046 1.098.046s.582-.129.953-.54c.751-.838 2.851-1.642 3.601-.568.752 1.074-1.309 2.614-3.257 2.536-.407-.016-.687.008-.924.072a5.345 5.345 0 0 0-.872.363z"/><path fill="#f16253" d="M72.89 39.417c-1.952-.44-3.074.667-3.074.667.365.315 1.38.034 2.268-.028.076-.039.25-.093.327-.135.44-.252.88-.313 1.654-.282.119.005.237.003.358-.003.858-.459 1.642-1.102 1.642-1.102-1.21-.554-3.175.883-3.175.883z"/><path fill="#fffdfd" d="M74.859 37.518c.064-.14.062-.413.027-.628-.535.207-1.023.524-1.314.847-.371.413-.953.54-.953.54s-.581.153-1.098-.044c-.412-.155-1.002-.212-1.581-.147.04.24.114.48.259.56.837.466 4.242-.255 4.66-1.128z"/><path fill="#fffdfd" d="M76.321 38.02c.018.341-.416.63-1.525 1.113-.703.306-2.658.82-3.528.856-.912.035-1.765.235-2.054-.164-.334-.454-.727-.34-.836-.065-.018.23.12.45.36.645.838.4 2.286.36 3.383-.264.35-.198.871-.363.871-.363.238-.065.518-.089.924-.072 1.141.046 2.322-.465 2.951-1.113.028-.028.054-.057.078-.086.143-.294.188-.573.121-.808-.13-.339-.783-.42-.745.32z"/><path fill="#d14e3f" d="M72.923 25.877s1.844-.613 2.929 1.134c0 0-.46-.33-.672-.352 0 0 .44.334.449.96 0 0-.312-.5-.671-.698 0 0 .428.499.35 1.225 0 0-.824-1.995-2.385-2.27z"/><path fill="#d14e3f" d="M72.923 25.728s1.844-.615 2.929 1.136c0 0-.46-.33-.672-.354 0 0 .44.336.449.962 0 0-.312-.5-.671-.699 0 0 .428.5.35 1.224 0 0-.824-1.993-2.385-2.269zM68.228 27.516s-1.9-.408-2.787 1.448c0 0 .42-.376.629-.423 0 0-.402.381-.341 1.004 0 0 .256-.532.59-.768 0 0-.368.545-.214 1.254 0 0 .602-2.07 2.123-2.515z"/><path fill="#d14e3f" d="M68.212 27.369s-1.9-.408-2.788 1.448c0 0 .422-.376.63-.424 0 0-.402.382-.34 1.005 0 0 .255-.532.59-.768 0 0-.37.545-.214 1.256-.001 0 .6-2.071 2.122-2.517z"/><path fill="none" stroke="#d14e3f" d="M76.13 16.601s-1.648-1.713-2.155-4.755c-.408-2.455.982-4.795 2.989-5.782 4.155-2.038 7.662 3.24 3.45 5.688" stroke-width="2.548" stroke-linecap="round" stroke-linejoin="round"/><path fill="url(#h)" d="M59.892 45.303s.938-1.13.41-2.043c-.292-.506-.91-.357-1.188-.798-.304-.486-.864-.69-1.201-.605-.7.175-1.32 1.3-1.32 1.3l3.3 2.146z"/><path fill="url(#i)" d="M56.995 44.339c-.272.177-.881-.051-.853-.591.02-.364 1.334-1.931 1.951-1.53.312.204-.157 1.499-1.098 2.12z"/><path fill="url(#j)" d="M57.74 44.991c-.27.177-.88-.052-.852-.59.02-.365 1.331-1.932 1.95-1.53.314.203-.156 1.498-1.098 2.12z"/><path fill="url(#k)" d="M58.549 45.493c-.27.18-.882-.049-.853-.589.02-.362 1.333-1.933 1.95-1.529.313.203-.155 1.5-1.097 2.118z"/><path fill="url(#l)" d="M59.357 45.892c-.271.178-.882-.05-.854-.59.019-.364 1.155-1.774 1.773-1.373.312.203.022 1.343-.92 1.962z"/><path fill="url(#m)" d="M57.433 42.756c-.234-.227-.143-.872.389-.963.359-.06 1.767.788 1.509 1.48-.131.348-1.088.266-1.898-.517z"/><ellipse cx="67.265" cy="34.579" rx=".664" ry="1.102" fill="#304454" transform="rotate(-12.92 67.265 34.579)"/><ellipse cx="75.569" cy="32.861" rx=".664" ry="1.102" fill="#304454" transform="rotate(-12.92 75.569 32.861)"/></svg>
