<svg xmlns="http://www.w3.org/2000/svg" width="200" height="120" viewBox="0 0 200 120"><path fill="#f89c44" d="M21.976 115.079c.398.141.964 2.361 1.165 2.86.148.363.213.726-.286.79-.292.037-1.03-.099-.99.418.045.552 1.459.189 1.787.346.237.113.287.407.567.446.45.062.396-.444.377-.723.366-.135 2.14.444 2.547.545.814.111.427-.542.225-.643-.322-.159-.661-.349-1.012-.473-.475-.167-.962-.281-1.427-.488-1.304-.045-1.784-3.322-1.7-3.518M13.775 115.079c-.004.664-.323 2.8-.484 3.145-.392.845-1.769.443-2.396.989-.488.425.152.545.505.51.385-.038.755-.207 1.122-.33.161-.054.315-.15.395.017.09.188-.109.389.132.525.432.242.651-.248.682-.568.012-.128-.023-.156.071-.219.073-.05.254-.032.341-.023.23.022.48.097.687.203.396.204.611.473 1.1.479.701.008.027-.727-.29-.875-1.755-.62-1.083-2.908-.766-3.984"/><path fill="#f4d038" d="M26.758 95.633c.552.429 1.763.062 2.376-.106 1.09-.3 1.717-.967 2.465-1.782.694-.758 1.095-1.682 1.384-2.662.156-.527.234-1.07.24-1.624.002-.29-.055-.691.022-.95.152.377.397.53.44.956.032.339-.017.702-.095 1.012.136-.24.178-.526.291-.77.416.582-.016 1.13-.168 1.695.354-.322.92-.796.894-1.332.14.482.268.93.174 1.44-.088.482-.447.866-.56 1.31.34-.182.608-.455.775-.805.068.664-.364 1.164-.676 1.703.234-.09.48-.184.711-.284.024.335-.275.83-.453 1.105.444-.127.895-.277 1.22-.642.051.799-.905 1.335-1.22 1.963.192-.105.421-.156.621-.257.307-.154.53-.431.788-.628.072.526-.613 1.189-.926 1.548-.43.495-1.069.805-1.639 1.082.388.03.858.024 1.223-.112-.423.528-1 .857-1.679.91.197.027.43.329.417.52-.374.154-1.01.196-1.402.077.637.647-.734.43-1.072.206.15.16.366.395.137.558-.278.198-.665-.206-.886-.33.012.225.084.325-.11.462-.25.177-.543 0-.689-.197-.1.273-.52.059-.69-.073-.517-.401-.434-.965-.758-1.454"/><path fill="#fee05f" d="M29.233 105.963c-.024.061-.045.12-.072.182a.852.852 0 0 0 .072-.182z"/><path fill="#fee05f" d="M12.605 95.295a.742.742 0 0 0-.066.362c-.142-.252-.087-.547-.103-.824-.172.122-.205.416-.2.611-.13-.126-.198-.499-.184-.682-.098.05-.138.165-.194.248-.056-.197-.05-.385-.08-.58-.038-.236-.102-.46-.117-.702-.022-.368.02-.736.126-1.089.08-.266.2-.515.323-.763.048-.097.204-.315.17-.432-.002-.005-1.58-5.476 3.595-8.278.368-.199.526-.958.387-1.385-.15-.463-.649-.65-1.046-.716.498-.138.877-.244 1.245.223.311.394.277.826.27 1.307.172-.58.49-1.178.96-1.564.636-.524 1.39-.733 2.152-.923-.44.15-.885.407-1.232.652-.533.376-.71.826-.992 1.372.354-.48 1.06-.75 1.61-.952.54-.197 1.495-.427 2.044-.19-1.006-.008-2.344.14-2.716 1.216.42-.145.794-.365 1.241-.466.6-.136 1.166-.163 1.78-.157 1.054.01 2.221.425 3.024 1.09-.643-.087-1.263-.392-1.934-.43-.665-.04-1.362-.094-1.946.296.345-.23 1.41.04 1.764.113 1.287.266 2.458.94 3.29 1.965.373.461.672.98.906 1.525.11.258.164.667.384.846.222.181.587.127.845.226.503.193.661.47.986.854a1.113 1.113 0 0 0-.529-.372c.295.387.606.665.784 1.114-.224-.172-.466-.286-.704-.424.165.2.553.611.513.871-.129-.114-.277-.22-.393-.343.124.296.42.577.427.911a9.21 9.21 0 0 0-.394-.316c.065.665.4 1.281.194 1.964-.233-.174-.163-.54-.35-.746-.034.245.073.495.028.747-.055.307-.258.651-.43.9a7.646 7.646 0 0 1-.605.78c-2.187 1.96 2.386 3.103 2.576 8.915.17.43.171.882.206 1.337.028.379.15.873.092 1.245-.154-.298-.26-.555-.49-.81-.039-.043-.089-.088-.134-.137.135.381.248.751.235 1.179-.002-.431-.42-.745-.522-1.138.218.824.131 1.45-.169 2.217.09-.311.033-.699-.035-.988.028.974.451 4.871-4.808 7.387-.527.547-.214 1.549-.7 2.209-.467.636-1.318.944-2.012.395-.388-.307-1-1.102-1.018-1.615-.68 1.013-3.066.749-3.855.126-.18.488-.51.94-.82 1.357-.414.553-1.09.856-1.758.578-.709-.295-.762-.854-.98-1.5-.229-.669-.959-1.358-1.592-1.625-.748-.315-1.39-.869-1.915-1.474.004.245.31.595.495.71-.358-.17-.849-.439-1.187-.713-.439-.354-1.112-1.013-1.25-1.579-.189.396.028.928.32 1.23-.782-.484-1.027-1.502-1.087-2.329-.13.232-.2.543-.197.824-.119-.227-.269-.484-.294-.764-.028-.321.127-.637.097-.95-.51.264-.555.862-.629 1.376-.145-.612-.099-1.23-.129-1.863-.37.396-.503.87-.68 1.37-.074-1.099.09-1.823.972-2.496-.207.139-.41.341-.606.515.535-.87 1.102-1.36 2.161-1.446 2.841-4.261 6.182-5.272 6.494-6.897.217-.404.422-1.062.39-1.594-.062-.038-.127-.073-.185-.115-.139-.102-.325-.377-.52-.319-.328.098-.303.693-.309.94-.218-.178-.25-.583-.265-.846-.132.126-.187.338-.198.523a.772.772 0 0 1-.197-.457c-.03.05-.088.083-.118.155-.067-.265-.103-.544-.172-.804"/><path fill="#fee05f" d="M19.845 80.11l.44-.11a2.442 2.442 0 0 0-.44.11z"/><path fill="#f4d038" d="M13.525 98.366c-.285.185-.616.305-.845.556.386.33.157.327-.226.572-.28.178-.39.324-.561.591-.456.707-1.277 1.259-2.004 1.675a7.89 7.89 0 0 1-3.048.996 5.588 5.588 0 0 1-1.55-.006c-.456-.07-.855-.292-1.283-.384.174.612.857.924 1.445.957-.084.158-.303.201-.431.322.219.44 1.168.436 1.577.429-.233.128-.554.202-.74.39.378.205.81.172 1.23.172a3.753 3.753 0 0 0-1.095.196c.366.399 1.614.547 2.09.33-.281-.01-.67.227-.877.407.68.416 1.846.272 2.534-.095-.284.229-.586.498-.853.738.65.042 1.24-.092 1.844-.316.42-.155.939-.295 1.192-.69-.14.233-.443.411-.53.652.329.161 1.069-.329 1.359-.496.385-.222.747-.436 1.054-.758 1.074-1.126 1.886-2.93 1.962-4.484.036-.726-.126-1.707-.74-2.192-.593-.469-1.721-.23-2.06.457.145.036.419.07.556-.019z"/><path fill="#f89c44" d="M21.249 90.93c-.733.796-1.764.728-2.74.593l-1.153-.066c.255-.033 1.066.782 1.352.99.455.33.915.647 1.459.751.462.088 1.134.253 1.55-.05.372-.274.615-.912.784-1.328.288-.71.258-1.546.623-2.236-.8.01-1.397.827-1.875 1.346z"/><ellipse cx="16.506" cy="89.209" rx=".57" ry=".792" fill="#304454" transform="rotate(-8.893 16.506 89.21)"/><ellipse cx="23.163" cy="87.812" rx=".57" ry=".792" fill="#304454" transform="rotate(-8.893 23.163 87.812)"/><path fill="#d14e3f" d="M18.213 91.655c.908.228 1.86 1.538 2.87 1.12.821-.34 1.24-1.926 1.476-2.703.024-.082.065-.154.103-.228-.788.273-1.223.978-1.844 1.457-.294.227-.728.31-1.089.347-.407.04-.613-.111-.988-.191"/><path fill="#f89c44" d="M17.215 91.462v-.033c.56.172 1.17.208 1.748.331.126.027.27.06.423.09.407.082.876.152 1.226.073.468-.104.787-.575 1.046-.963.25-.372.506-.633.835-.877.215-.159.466-.285.63-.502-.146-.226-.495-.173-.73-.139-.33.05-.529.085-.858-.017-.368-.115-.69-.272-1.049-.332-.87-.144-1.432.425-1.893 1.08-.152.217-.345.374-.542.52-.2.148-.405.286-.579.464-.095.098-.157.205-.257.305zM61.976 115.079c.398.141.964 2.361 1.165 2.86.148.363.213.726-.286.79-.292.037-1.03-.099-.99.418.045.552 1.459.189 1.787.346.237.113.287.407.567.446.45.062.396-.444.377-.723.366-.135 2.14.444 2.547.545.814.111.427-.542.225-.643-.322-.159-.661-.349-1.012-.473-.475-.167-.962-.281-1.427-.488-1.304-.045-1.784-3.322-1.7-3.518M53.775 115.079c-.004.664-.323 2.8-.484 3.145-.392.845-1.769.443-2.396.989-.488.425.152.545.505.51.385-.038.755-.207 1.122-.33.161-.054.315-.15.395.017.09.188-.109.389.132.525.432.242.651-.248.682-.568.012-.128-.023-.156.071-.219.073-.05.254-.032.341-.023.23.022.48.097.687.203.396.204.611.473 1.1.479.701.008.027-.727-.29-.875-1.755-.62-1.083-2.908-.766-3.984"/><path fill="#f4d038" d="M66.758 95.633c.552.429 1.763.062 2.376-.106 1.09-.3 1.717-.967 2.465-1.782.694-.758 1.095-1.682 1.384-2.662.156-.527.234-1.07.24-1.624.002-.29-.055-.691.022-.95.152.377.397.53.44.956.032.339-.017.702-.095 1.012.136-.24.178-.526.291-.77.416.582-.016 1.13-.168 1.695.354-.322.92-.796.894-1.332.14.482.268.93.174 1.44-.088.482-.447.866-.56 1.31.34-.182.608-.455.775-.805.068.664-.364 1.164-.676 1.703.234-.09.48-.184.711-.284.024.335-.275.83-.453 1.105.444-.127.895-.277 1.22-.642.051.799-.905 1.335-1.22 1.963.192-.105.421-.156.621-.257.307-.154.53-.431.788-.628.072.526-.613 1.189-.926 1.548-.43.495-1.069.805-1.639 1.082.388.03.858.024 1.223-.112-.423.528-1 .857-1.679.91.197.027.43.329.417.52-.374.154-1.01.196-1.402.077.637.647-.734.43-1.072.206.15.16.366.395.137.558-.278.198-.665-.206-.886-.33.012.225.084.325-.11.462-.25.177-.543 0-.689-.197-.1.273-.52.059-.69-.073-.517-.401-.434-.965-.758-1.454"/><path fill="#fee05f" d="M69.233 105.963c-.024.061-.045.12-.072.182a.852.852 0 0 0 .072-.182z"/><path fill="#fee05f" d="M52.605 95.295a.742.742 0 0 0-.066.362c-.142-.252-.087-.547-.103-.824-.172.122-.205.416-.2.611-.13-.126-.198-.499-.184-.682-.098.05-.138.165-.194.248-.056-.197-.05-.385-.08-.58-.038-.236-.102-.46-.117-.702-.022-.368.02-.736.126-1.089.08-.266.2-.515.323-.763.048-.097.204-.315.17-.432-.002-.005-1.58-5.476 3.595-8.278.368-.199.526-.958.387-1.385-.15-.463-.649-.65-1.046-.716.498-.138.877-.244 1.245.223.311.394.277.826.27 1.307.172-.58.49-1.178.96-1.564.636-.524 1.39-.733 2.152-.923-.44.15-.885.407-1.232.652-.533.376-.71.826-.992 1.372.354-.48 1.06-.75 1.61-.952.54-.197 1.495-.427 2.044-.19-1.006-.008-2.344.14-2.716 1.216.42-.145.794-.365 1.241-.466.6-.136 1.166-.163 1.78-.157 1.054.01 2.221.425 3.024 1.09-.643-.087-1.263-.392-1.934-.43-.665-.04-1.362-.094-1.946.296.345-.23 1.41.04 1.764.113 1.287.266 2.458.94 3.29 1.965.373.461.672.98.906 1.525.11.258.164.667.384.846.222.181.587.127.845.226.503.193.661.47.986.854a1.113 1.113 0 0 0-.529-.372c.295.387.606.665.784 1.114-.224-.172-.466-.286-.704-.424.165.2.553.611.513.871-.129-.114-.277-.22-.393-.343.124.296.42.577.427.911a9.21 9.21 0 0 0-.394-.316c.065.665.4 1.281.194 1.964-.233-.174-.163-.54-.35-.746-.034.245.073.495.028.747-.055.307-.258.651-.43.9a7.646 7.646 0 0 1-.605.78c-2.187 1.96 2.386 3.103 2.576 8.915.17.43.171.882.206 1.337.028.379.15.873.092 1.245-.154-.298-.26-.555-.49-.81-.039-.043-.089-.088-.134-.137.135.381.248.751.235 1.179-.002-.431-.42-.745-.522-1.138.218.824.131 1.45-.169 2.217.09-.311.033-.699-.035-.988.028.974.451 4.871-4.808 7.387-.527.547-.214 1.549-.7 2.209-.467.636-1.318.944-2.012.395-.388-.307-1-1.102-1.018-1.615-.68 1.013-3.066.749-3.855.126-.18.488-.51.94-.82 1.357-.414.553-1.09.856-1.758.578-.709-.295-.762-.854-.98-1.5-.229-.669-.959-1.358-1.592-1.625-.748-.315-1.39-.869-1.915-1.474.004.245.31.595.495.71-.358-.17-.849-.439-1.187-.713-.439-.354-1.112-1.013-1.25-1.579-.189.396.028.928.32 1.23-.782-.484-1.027-1.502-1.087-2.329-.13.232-.2.543-.197.824-.119-.227-.269-.484-.294-.764-.028-.321.127-.637.097-.95-.51.264-.555.862-.629 1.376-.145-.612-.099-1.23-.129-1.863-.37.396-.503.87-.68 1.37-.074-1.099.09-1.823.972-2.496-.207.139-.41.341-.606.515.535-.87 1.102-1.36 2.161-1.446 2.841-4.261 6.182-5.272 6.494-6.897.217-.404.422-1.062.39-1.594-.062-.038-.127-.073-.185-.115-.139-.102-.325-.377-.52-.319-.328.098-.303.693-.309.94-.218-.178-.25-.583-.265-.846-.132.126-.187.338-.198.523a.772.772 0 0 1-.197-.457c-.03.05-.088.083-.118.155-.067-.265-.103-.544-.172-.804"/><path fill="#fee05f" d="M59.845 80.11l.44-.11a2.442 2.442 0 0 0-.44.11z"/><path fill="#f4d038" d="M53.525 98.366c-.285.185-.616.305-.845.556.386.33.157.327-.226.572-.28.178-.39.324-.561.591-.456.707-1.277 1.259-2.004 1.675a7.89 7.89 0 0 1-3.048.996 5.588 5.588 0 0 1-1.55-.006c-.456-.07-.855-.292-1.283-.384.174.612.857.924 1.445.957-.084.158-.303.201-.431.322.219.44 1.168.436 1.577.429-.233.128-.554.202-.74.39.378.205.81.172 1.23.172a3.753 3.753 0 0 0-1.095.196c.366.399 1.614.547 2.09.33-.281-.01-.67.227-.877.407.68.416 1.846.272 2.534-.095-.284.229-.586.498-.853.738.65.042 1.24-.092 1.844-.316.42-.155.939-.295 1.192-.69-.14.233-.443.411-.53.652.329.161 1.069-.329 1.359-.496.385-.222.747-.436 1.054-.758 1.074-1.126 1.886-2.93 1.962-4.484.036-.726-.126-1.707-.74-2.192-.593-.469-1.721-.23-2.06.457.145.036.419.07.556-.019z"/><path fill="#f89c44" d="M61.249 90.93c-.733.796-1.764.728-2.74.593l-1.153-.066c.255-.033 1.066.782 1.352.99.455.33.915.647 1.459.751.462.088 1.134.253 1.55-.05.372-.274.615-.912.784-1.328.288-.71.258-1.546.623-2.236-.8.01-1.397.827-1.875 1.346z"/><ellipse cx="56.506" cy="89.209" rx=".57" ry=".792" fill="#304454" transform="rotate(-8.893 56.506 89.21)"/><ellipse cx="63.163" cy="87.812" rx=".57" ry=".792" fill="#304454" transform="rotate(-8.893 63.163 87.812)"/><path fill="#d14e3f" d="M58.213 91.655c.908.228 1.86 1.538 2.87 1.12.821-.34 1.24-1.926 1.476-2.703.024-.082.065-.154.103-.228-.788.273-1.223.978-1.844 1.457-.294.227-.728.31-1.089.347-.407.04-.613-.111-.988-.191"/><path fill="#f89c44" d="M57.215 91.462v-.033c.56.172 1.17.208 1.748.331.126.027.27.06.423.09.407.082.876.152 1.226.073.468-.104.787-.575 1.046-.963.25-.372.506-.633.835-.877.215-.159.466-.285.63-.502-.146-.226-.495-.173-.73-.139-.33.05-.529.085-.858-.017-.368-.115-.69-.272-1.049-.332-.87-.144-1.432.425-1.893 1.08-.152.217-.345.374-.542.52-.2.148-.405.286-.579.464-.095.098-.157.205-.257.305zM101.976 115.079c.398.141.964 2.361 1.165 2.86.148.363.213.726-.286.79-.292.037-1.03-.099-.989.418.044.552 1.458.189 1.786.346.237.113.287.407.567.446.45.062.396-.444.377-.723.366-.135 2.14.444 2.547.545.814.111.427-.542.225-.643-.322-.159-.661-.349-1.012-.473-.475-.167-.962-.281-1.427-.488-1.304-.045-1.784-3.322-1.699-3.518M93.775 115.079c-.004.664-.323 2.8-.484 3.145-.392.845-1.769.443-2.396.989-.488.425.152.545.505.51.385-.038.755-.207 1.122-.33.161-.054.315-.15.395.017.09.188-.109.389.132.525.432.242.651-.248.682-.568.012-.128-.023-.156.071-.219.073-.05.254-.032.341-.023.23.022.48.097.687.203.396.204.611.473 1.1.479.701.008.027-.727-.29-.875-1.755-.62-1.083-2.908-.766-3.984"/><path fill="#f4d038" d="M106.758 95.633c.552.429 1.763.062 2.376-.106 1.09-.3 1.717-.967 2.465-1.782.694-.758 1.095-1.682 1.384-2.662.156-.527.234-1.07.239-1.624.003-.29-.054-.691.023-.95.152.377.397.53.439.956.033.339-.016.702-.094 1.012.136-.24.178-.526.291-.77.416.582-.016 1.13-.168 1.695.354-.322.919-.796.894-1.332.139.482.268.93.174 1.44-.088.482-.447.866-.56 1.31.34-.182.608-.455.775-.805.068.664-.364 1.164-.676 1.703.234-.09.48-.184.711-.284.024.335-.275.83-.453 1.105.444-.127.895-.277 1.219-.642.052.799-.904 1.335-1.22 1.963.193-.105.422-.156.622-.257.307-.154.53-.431.788-.628.072.526-.613 1.189-.926 1.548-.431.495-1.069.805-1.639 1.082.388.03.858.024 1.223-.112-.423.528-1.001.857-1.679.91.197.027.429.329.417.52-.374.154-1.011.196-1.402.077.637.647-.734.43-1.072.206.15.16.366.395.137.558-.278.198-.665-.206-.886-.33.012.225.084.325-.111.462-.25.177-.542 0-.688-.197-.101.273-.52.059-.69-.073-.517-.401-.434-.965-.758-1.454"/><path fill="#fee05f" d="M109.233 105.963c-.024.061-.045.12-.072.182a.852.852 0 0 0 .072-.182z"/><path fill="#fee05f" d="M92.605 95.295a.742.742 0 0 0-.066.362c-.142-.252-.087-.547-.103-.824-.172.122-.205.416-.2.611-.13-.126-.198-.499-.184-.682-.098.05-.138.165-.194.248-.056-.197-.05-.385-.08-.58-.038-.236-.102-.46-.117-.702-.022-.368.02-.736.126-1.089.08-.266.2-.515.323-.763.048-.097.204-.315.17-.432-.002-.005-1.58-5.476 3.595-8.278.368-.199.526-.958.387-1.385-.15-.463-.649-.65-1.046-.716.498-.138.877-.244 1.245.223.311.394.277.826.27 1.307.172-.58.49-1.178.96-1.564.636-.524 1.39-.733 2.152-.923-.44.15-.885.407-1.232.652-.533.376-.71.826-.992 1.372.354-.48 1.06-.75 1.61-.952.54-.197 1.495-.427 2.044-.19-1.006-.008-2.344.14-2.716 1.216.42-.145.794-.365 1.241-.466.599-.136 1.166-.163 1.78-.157 1.054.01 2.221.425 3.024 1.09-.643-.087-1.263-.392-1.934-.43-.665-.04-1.362-.094-1.946.296.345-.23 1.41.04 1.764.113 1.287.266 2.458.94 3.289 1.965.374.461.673.98.907 1.525.11.258.164.667.384.846.222.181.587.127.845.226.503.193.661.47.986.854a1.113 1.113 0 0 0-.529-.372c.295.387.606.665.784 1.114-.224-.172-.466-.286-.704-.424.165.2.553.611.513.871-.129-.114-.277-.22-.393-.343.124.296.419.577.427.911a9.21 9.21 0 0 0-.394-.316c.065.665.4 1.281.194 1.964-.233-.174-.163-.54-.351-.746-.033.245.074.495.029.747-.055.307-.258.651-.431.9a7.646 7.646 0 0 1-.604.78c-2.187 1.96 2.386 3.103 2.576 8.915.17.43.171.882.206 1.337.028.379.149.873.092 1.245-.154-.298-.261-.555-.491-.81-.038-.043-.088-.088-.133-.137.135.381.248.751.235 1.179-.002-.431-.421-.745-.522-1.138.218.824.131 1.45-.169 2.217.089-.311.033-.699-.035-.988.028.974.451 4.871-4.808 7.387-.527.547-.214 1.549-.7 2.209-.467.636-1.318.944-2.012.395-.388-.307-1-1.102-1.018-1.615-.68 1.013-3.066.749-3.855.126-.18.488-.51.94-.82 1.357-.414.553-1.09.856-1.758.578-.709-.295-.762-.854-.98-1.5-.229-.669-.959-1.358-1.592-1.625-.748-.315-1.39-.869-1.915-1.474.004.245.31.595.495.71-.358-.17-.849-.439-1.187-.713-.439-.354-1.112-1.013-1.25-1.579-.189.396.028.928.32 1.23-.782-.484-1.027-1.502-1.087-2.329-.13.232-.2.543-.197.824-.119-.227-.269-.484-.294-.764-.028-.321.127-.637.097-.95-.51.264-.555.862-.629 1.376-.145-.612-.099-1.23-.129-1.863-.37.396-.503.87-.68 1.37-.074-1.099.09-1.823.972-2.496-.207.139-.41.341-.606.515.535-.87 1.102-1.36 2.161-1.446 2.841-4.261 6.182-5.272 6.494-6.897.217-.404.422-1.062.39-1.594-.062-.038-.127-.073-.185-.115-.139-.102-.325-.377-.52-.319-.328.098-.303.693-.309.94-.218-.178-.25-.583-.265-.846-.132.126-.187.338-.198.523a.772.772 0 0 1-.197-.457c-.03.05-.088.083-.118.155-.067-.265-.103-.544-.172-.804"/><path fill="#fee05f" d="M99.845 80.11l.44-.11a2.446 2.446 0 0 0-.44.11z"/><path fill="#f4d038" d="M93.525 98.366c-.285.185-.616.305-.845.556.386.33.157.327-.226.572-.28.178-.39.324-.561.591-.456.707-1.277 1.259-2.004 1.675a7.89 7.89 0 0 1-3.048.996 5.588 5.588 0 0 1-1.55-.006c-.456-.07-.855-.292-1.283-.384.174.612.857.924 1.445.957-.084.158-.303.201-.431.322.219.44 1.168.436 1.577.429-.233.128-.554.202-.74.39.378.205.81.172 1.23.172a3.753 3.753 0 0 0-1.095.196c.366.399 1.614.547 2.09.33-.281-.01-.67.227-.877.407.68.416 1.846.272 2.534-.095-.284.229-.586.498-.853.738.65.042 1.24-.092 1.844-.316.42-.155.939-.295 1.192-.69-.14.233-.443.411-.53.652.329.161 1.069-.329 1.359-.496.385-.222.747-.436 1.054-.758 1.074-1.126 1.886-2.93 1.962-4.484.036-.726-.126-1.707-.74-2.192-.593-.469-1.721-.23-2.06.457.145.036.419.07.556-.019z"/><path fill="#f89c44" d="M101.249 90.93c-.733.796-1.764.728-2.74.593l-1.153-.066c.255-.033 1.066.782 1.352.99.455.33.915.647 1.459.751.462.088 1.134.253 1.55-.05.372-.274.615-.912.784-1.328.288-.71.258-1.546.623-2.236-.8.01-1.397.827-1.875 1.346z"/><ellipse cx="96.506" cy="89.209" rx=".57" ry=".792" fill="#304454" transform="rotate(-8.893 96.506 89.21)"/><ellipse cx="103.163" cy="87.812" rx=".57" ry=".792" fill="#304454" transform="rotate(-8.893 103.163 87.812)"/><path fill="#d14e3f" d="M98.213 91.655c.908.228 1.859 1.538 2.869 1.12.822-.34 1.241-1.926 1.477-2.703.024-.082.065-.154.103-.228-.788.273-1.223.978-1.844 1.457-.294.227-.728.31-1.089.347-.407.04-.613-.111-.988-.191"/><path fill="#f89c44" d="M97.215 91.462v-.033c.56.172 1.17.208 1.748.331.126.027.27.06.423.09.407.082.876.152 1.226.073.468-.104.787-.575 1.046-.963.249-.372.506-.633.835-.877.215-.159.466-.285.63-.502-.146-.226-.495-.173-.73-.139-.33.05-.529.085-.858-.017-.368-.115-.69-.272-1.049-.332-.87-.144-1.432.425-1.893 1.08-.152.217-.345.374-.542.52-.2.148-.405.286-.579.464-.095.098-.157.205-.257.305zM141.976 115.079c.398.141.964 2.361 1.165 2.86.148.363.213.726-.286.79-.292.037-1.03-.099-.989.418.044.552 1.458.189 1.786.346.237.113.287.407.567.446.45.062.396-.444.377-.723.366-.135 2.14.444 2.547.545.814.111.427-.542.225-.643-.322-.159-.661-.349-1.012-.473-.475-.167-.962-.281-1.427-.488-1.304-.045-1.784-3.322-1.699-3.518M133.775 115.079c-.004.664-.323 2.8-.484 3.145-.392.845-1.769.443-2.396.989-.488.425.152.545.505.51.385-.038.755-.207 1.122-.33.161-.054.315-.15.395.017.09.188-.109.389.132.525.432.242.651-.248.682-.568.012-.128-.023-.156.071-.219.073-.05.254-.032.341-.023.23.022.48.097.687.203.396.204.611.473 1.099.479.702.008.028-.727-.29-.875-1.754-.62-1.082-2.908-.765-3.984"/><path fill="#f4d038" d="M146.758 95.633c.552.429 1.763.062 2.376-.106 1.09-.3 1.717-.967 2.465-1.782.694-.758 1.095-1.682 1.384-2.662.156-.527.234-1.07.239-1.624.003-.29-.054-.691.023-.95.152.377.397.53.439.956.033.339-.016.702-.094 1.012.136-.24.178-.526.291-.77.416.582-.016 1.13-.168 1.695.354-.322.919-.796.894-1.332.139.482.268.93.174 1.44-.088.482-.447.866-.56 1.31.34-.182.608-.455.775-.805.068.664-.364 1.164-.676 1.703.234-.09.48-.184.711-.284.024.335-.275.83-.453 1.105.444-.127.895-.277 1.219-.642.052.799-.904 1.335-1.22 1.963.193-.105.422-.156.622-.257.307-.154.53-.431.788-.628.072.526-.613 1.189-.926 1.548-.431.495-1.069.805-1.639 1.082.388.03.858.024 1.223-.112-.423.528-1.001.857-1.679.91.197.027.429.329.417.52-.374.154-1.011.196-1.402.077.637.647-.734.43-1.072.206.15.16.366.395.137.558-.278.198-.665-.206-.886-.33.012.225.084.325-.111.462-.25.177-.542 0-.688-.197-.101.273-.52.059-.69-.073-.517-.401-.434-.965-.758-1.454"/><path fill="#fee05f" d="M149.233 105.963c-.024.061-.045.12-.072.182a.852.852 0 0 0 .072-.182z"/><path fill="#fee05f" d="M132.605 95.295a.742.742 0 0 0-.066.362c-.142-.252-.087-.547-.103-.824-.172.122-.205.416-.2.611-.131-.126-.198-.499-.184-.682-.098.05-.138.165-.194.248-.056-.197-.051-.385-.081-.58-.037-.236-.101-.46-.116-.702-.022-.368.02-.736.126-1.089.08-.266.199-.515.323-.763.048-.097.204-.315.17-.432-.002-.005-1.58-5.476 3.595-8.278.368-.199.526-.958.387-1.385-.15-.463-.649-.65-1.046-.716.498-.138.877-.244 1.245.223.311.394.277.826.269 1.307.173-.58.491-1.178.96-1.564.637-.524 1.39-.733 2.153-.923-.44.15-.885.407-1.232.652-.533.376-.711.826-.992 1.372.354-.48 1.06-.75 1.609-.952.54-.197 1.496-.427 2.045-.19-1.006-.008-2.344.14-2.716 1.216.419-.145.794-.365 1.241-.466.599-.136 1.166-.163 1.78-.157 1.054.01 2.221.425 3.024 1.09-.643-.087-1.263-.392-1.934-.43-.665-.04-1.362-.094-1.946.296.345-.23 1.41.04 1.764.113 1.287.266 2.458.94 3.289 1.965.374.461.673.98.907 1.525.11.258.164.667.384.846.222.181.587.127.845.226.503.193.661.47.986.854a1.113 1.113 0 0 0-.529-.372c.295.387.606.665.784 1.114-.224-.172-.466-.286-.704-.424.165.2.553.611.513.871-.129-.114-.277-.22-.393-.343.124.296.419.577.427.911a9.21 9.21 0 0 0-.394-.316c.065.665.4 1.281.194 1.964-.233-.174-.163-.54-.351-.746-.033.245.074.495.029.747-.055.307-.258.651-.431.9a7.646 7.646 0 0 1-.604.78c-2.187 1.96 2.386 3.103 2.576 8.915.17.43.171.882.206 1.337.028.379.149.873.092 1.245-.154-.298-.261-.555-.491-.81-.038-.043-.088-.088-.133-.137.135.381.248.751.235 1.179-.002-.431-.421-.745-.522-1.138.218.824.131 1.45-.169 2.217.089-.311.033-.699-.035-.988.028.974.451 4.871-4.808 7.387-.527.547-.214 1.549-.7 2.209-.467.636-1.318.944-2.012.395-.388-.307-1-1.102-1.018-1.615-.68 1.013-3.066.749-3.855.126-.18.488-.511.94-.821 1.357-.413.553-1.089.856-1.757.578-.709-.295-.762-.854-.981-1.5-.228-.669-.958-1.358-1.591-1.625-.748-.315-1.391-.869-1.915-1.474.004.245.31.595.495.71-.358-.17-.849-.439-1.187-.713-.439-.354-1.112-1.013-1.25-1.579-.189.396.028.928.319 1.23-.781-.484-1.026-1.502-1.086-2.329-.13.232-.201.543-.197.824-.119-.227-.269-.484-.294-.764-.028-.321.127-.637.097-.95-.51.264-.555.862-.629 1.376-.145-.612-.099-1.23-.129-1.863-.37.396-.503.87-.681 1.37-.073-1.099.091-1.823.973-2.496-.207.139-.411.341-.606.515.535-.87 1.102-1.36 2.161-1.446 2.841-4.261 6.182-5.272 6.494-6.897.217-.404.422-1.062.389-1.594-.061-.038-.126-.073-.184-.115-.139-.102-.325-.377-.52-.319-.328.098-.303.693-.309.94-.218-.178-.251-.583-.265-.846-.132.126-.187.338-.198.523a.772.772 0 0 1-.197-.457c-.031.05-.088.083-.118.155-.067-.265-.103-.544-.172-.804"/><path fill="#fee05f" d="M139.845 80.11l.44-.11a2.442 2.442 0 0 0-.44.11z"/><path fill="#f4d038" d="M133.525 98.366c-.285.185-.616.305-.845.556.386.33.157.327-.226.572-.28.178-.389.324-.561.591-.456.707-1.277 1.259-2.004 1.675a7.89 7.89 0 0 1-3.048.996 5.588 5.588 0 0 1-1.55-.006c-.456-.07-.855-.292-1.283-.384.174.612.857.924 1.445.957-.084.158-.303.201-.431.322.219.44 1.168.436 1.577.429-.233.128-.554.202-.739.39.377.205.81.172 1.229.172a3.753 3.753 0 0 0-1.095.196c.366.399 1.614.547 2.091.33-.282-.01-.671.227-.878.407.681.416 1.846.272 2.534-.095-.284.229-.586.498-.853.738.65.042 1.24-.092 1.844-.316.421-.155.939-.295 1.192-.69-.139.233-.443.411-.529.652.328.161 1.068-.329 1.358-.496.385-.222.747-.436 1.054-.758 1.074-1.126 1.886-2.93 1.962-4.484.036-.726-.126-1.707-.74-2.192-.593-.469-1.721-.23-2.059.457.144.036.418.07.555-.019z"/><path fill="#f89c44" d="M141.249 90.93c-.733.796-1.764.728-2.739.593l-1.154-.066c.255-.033 1.066.782 1.352.99.455.33.915.647 1.459.751.462.088 1.134.253 1.55-.05.372-.274.615-.912.784-1.328.288-.71.258-1.546.623-2.236-.8.01-1.397.827-1.875 1.346z"/><ellipse cx="136.506" cy="89.209" rx=".57" ry=".792" fill="#304454" transform="rotate(-8.893 136.506 89.21)"/><ellipse cx="143.163" cy="87.812" rx=".57" ry=".792" fill="#304454" transform="rotate(-8.893 143.163 87.812)"/><path fill="#d14e3f" d="M138.213 91.655c.908.228 1.859 1.538 2.869 1.12.822-.34 1.241-1.926 1.477-2.703.024-.082.065-.154.103-.228-.788.273-1.223.978-1.844 1.457-.294.227-.728.31-1.089.347-.407.04-.613-.111-.988-.191"/><path fill="#f89c44" d="M137.215 91.462v-.033c.559.172 1.169.208 1.748.331.126.027.27.06.423.09.407.082.876.152 1.226.073.468-.104.787-.575 1.046-.963.249-.372.506-.633.835-.877.215-.159.466-.285.63-.502-.146-.226-.495-.173-.73-.139-.33.05-.529.085-.858-.017-.368-.115-.69-.272-1.049-.332-.871-.144-1.432.425-1.893 1.08-.152.217-.345.374-.542.52-.2.148-.405.286-.579.464-.095.098-.157.205-.257.305zM181.976 115.079c.398.141.964 2.361 1.165 2.86.148.363.213.726-.286.79-.292.037-1.03-.099-.989.418.044.552 1.458.189 1.786.346.237.113.287.407.567.446.45.062.396-.444.377-.723.366-.135 2.14.444 2.547.545.814.111.427-.542.225-.643-.322-.159-.661-.349-1.012-.473-.475-.167-.962-.281-1.427-.488-1.304-.045-1.784-3.322-1.699-3.518M173.775 115.079c-.004.664-.323 2.8-.484 3.145-.392.845-1.769.443-2.396.989-.488.425.152.545.505.51.385-.038.755-.207 1.122-.33.161-.054.315-.15.395.017.09.188-.109.389.132.525.432.242.651-.248.682-.568.012-.128-.023-.156.071-.219.073-.05.254-.032.341-.023.23.022.48.097.687.203.396.204.611.473 1.099.479.702.008.028-.727-.29-.875-1.754-.62-1.082-2.908-.765-3.984"/><path fill="#f4d038" d="M186.758 95.633c.552.429 1.763.062 2.376-.106 1.09-.3 1.717-.967 2.465-1.782.694-.758 1.095-1.682 1.384-2.662.156-.527.234-1.07.239-1.624.003-.29-.054-.691.023-.95.152.377.397.53.439.956.033.339-.016.702-.094 1.012.136-.24.178-.526.291-.77.416.582-.016 1.13-.168 1.695.354-.322.919-.796.894-1.332.139.482.268.93.174 1.44-.088.482-.447.866-.56 1.31.34-.182.608-.455.775-.805.068.664-.364 1.164-.676 1.703.234-.09.48-.184.711-.284.024.335-.275.83-.453 1.105.444-.127.895-.277 1.219-.642.052.799-.904 1.335-1.22 1.963.193-.105.422-.156.622-.257.307-.154.53-.431.788-.628.072.526-.613 1.189-.926 1.548-.431.495-1.069.805-1.639 1.082.388.03.858.024 1.223-.112-.423.528-1.001.857-1.679.91.197.027.429.329.417.52-.374.154-1.011.196-1.402.077.637.647-.734.43-1.072.206.15.16.366.395.137.558-.278.198-.665-.206-.886-.33.012.225.084.325-.111.462-.25.177-.542 0-.688-.197-.101.273-.52.059-.69-.073-.517-.401-.434-.965-.758-1.454"/><path fill="#fee05f" d="M189.233 105.963c-.024.061-.045.12-.072.182a.852.852 0 0 0 .072-.182z"/><path fill="#fee05f" d="M172.605 95.295a.742.742 0 0 0-.066.362c-.142-.252-.087-.547-.103-.824-.172.122-.205.416-.2.611-.131-.126-.198-.499-.184-.682-.098.05-.138.165-.194.248-.056-.197-.051-.385-.081-.58-.037-.236-.101-.46-.116-.702-.022-.368.02-.736.126-1.089.08-.266.199-.515.323-.763.048-.097.204-.315.17-.432-.002-.005-1.58-5.476 3.595-8.278.368-.199.526-.958.387-1.385-.15-.463-.649-.65-1.046-.716.498-.138.877-.244 1.245.223.311.394.277.826.269 1.307.173-.58.491-1.178.96-1.564.637-.524 1.39-.733 2.153-.923-.44.15-.885.407-1.232.652-.533.376-.711.826-.992 1.372.354-.48 1.06-.75 1.609-.952.54-.197 1.496-.427 2.045-.19-1.006-.008-2.344.14-2.716 1.216.419-.145.794-.365 1.241-.466.599-.136 1.166-.163 1.78-.157 1.054.01 2.221.425 3.024 1.09-.643-.087-1.263-.392-1.934-.43-.665-.04-1.362-.094-1.946.296.345-.23 1.41.04 1.764.113 1.287.266 2.458.94 3.289 1.965.374.461.673.98.907 1.525.11.258.164.667.384.846.222.181.587.127.845.226.503.193.661.47.986.854a1.113 1.113 0 0 0-.529-.372c.295.387.606.665.784 1.114-.224-.172-.466-.286-.704-.424.165.2.553.611.513.871-.129-.114-.277-.22-.393-.343.124.296.419.577.427.911a9.21 9.21 0 0 0-.394-.316c.065.665.4 1.281.194 1.964-.233-.174-.163-.54-.351-.746-.033.245.074.495.029.747-.055.307-.258.651-.431.9a7.646 7.646 0 0 1-.604.78c-2.187 1.96 2.386 3.103 2.576 8.915.17.43.171.882.206 1.337.028.379.149.873.092 1.245-.154-.298-.261-.555-.491-.81-.038-.043-.088-.088-.133-.137.135.381.248.751.235 1.179-.002-.431-.421-.745-.522-1.138.218.824.131 1.45-.169 2.217.089-.311.033-.699-.035-.988.028.974.451 4.871-4.808 7.387-.527.547-.214 1.549-.7 2.209-.467.636-1.318.944-2.012.395-.388-.307-1-1.102-1.018-1.615-.68 1.013-3.066.749-3.855.126-.18.488-.511.94-.821 1.357-.413.553-1.089.856-1.757.578-.709-.295-.762-.854-.981-1.5-.228-.669-.958-1.358-1.591-1.625-.748-.315-1.391-.869-1.915-1.474.004.245.31.595.495.71-.358-.17-.849-.439-1.187-.713-.439-.354-1.112-1.013-1.25-1.579-.189.396.028.928.319 1.23-.781-.484-1.026-1.502-1.086-2.329-.13.232-.201.543-.197.824-.119-.227-.269-.484-.294-.764-.028-.321.127-.637.097-.95-.51.264-.555.862-.629 1.376-.145-.612-.099-1.23-.129-1.863-.37.396-.503.87-.681 1.37-.073-1.099.091-1.823.973-2.496-.207.139-.411.341-.606.515.535-.87 1.102-1.36 2.161-1.446 2.841-4.261 6.182-5.272 6.494-6.897.217-.404.422-1.062.389-1.594-.061-.038-.126-.073-.184-.115-.139-.102-.325-.377-.52-.319-.328.098-.303.693-.309.94-.218-.178-.251-.583-.265-.846-.132.126-.187.338-.198.523a.772.772 0 0 1-.197-.457c-.031.05-.088.083-.118.155-.067-.265-.103-.544-.172-.804"/><path fill="#fee05f" d="M179.845 80.11l.44-.11a2.442 2.442 0 0 0-.44.11z"/><path fill="#f4d038" d="M173.525 98.366c-.285.185-.616.305-.845.556.386.33.157.327-.226.572-.28.178-.389.324-.561.591-.456.707-1.277 1.259-2.004 1.675a7.89 7.89 0 0 1-3.048.996 5.588 5.588 0 0 1-1.55-.006c-.456-.07-.855-.292-1.283-.384.174.612.857.924 1.445.957-.084.158-.303.201-.431.322.219.44 1.168.436 1.577.429-.233.128-.554.202-.739.39.377.205.81.172 1.229.172a3.753 3.753 0 0 0-1.095.196c.366.399 1.614.547 2.091.33-.282-.01-.671.227-.878.407.681.416 1.846.272 2.534-.095-.284.229-.586.498-.853.738.65.042 1.24-.092 1.844-.316.421-.155.939-.295 1.192-.69-.139.233-.443.411-.529.652.328.161 1.068-.329 1.358-.496.385-.222.747-.436 1.054-.758 1.074-1.126 1.886-2.93 1.962-4.484.036-.726-.126-1.707-.74-2.192-.593-.469-1.721-.23-2.059.457.144.036.418.07.555-.019z"/><path fill="#f89c44" d="M181.249 90.93c-.733.796-1.764.728-2.739.593l-1.154-.066c.255-.033 1.066.782 1.352.99.455.33.915.647 1.459.751.462.088 1.134.253 1.55-.05.372-.274.615-.912.784-1.328.288-.71.258-1.546.623-2.236-.8.01-1.397.827-1.875 1.346z"/><ellipse cx="176.506" cy="89.209" rx=".57" ry=".792" fill="#304454" transform="rotate(-8.893 176.506 89.21)"/><ellipse cx="183.163" cy="87.812" rx=".57" ry=".792" fill="#304454" transform="rotate(-8.893 183.163 87.812)"/><path fill="#d14e3f" d="M178.213 91.655c.908.228 1.859 1.538 2.869 1.12.822-.34 1.241-1.926 1.477-2.703.024-.082.065-.154.103-.228-.788.273-1.223.978-1.844 1.457-.294.227-.728.31-1.089.347-.407.04-.613-.111-.988-.191"/><path fill="#f89c44" d="M177.215 91.462v-.033c.559.172 1.169.208 1.748.331.126.027.27.06.423.09.407.082.876.152 1.226.073.468-.104.787-.575 1.046-.963.249-.372.506-.633.835-.877.215-.159.466-.285.63-.502-.146-.226-.495-.173-.73-.139-.33.05-.529.085-.858-.017-.368-.115-.69-.272-1.049-.332-.871-.144-1.432.425-1.893 1.08-.152.217-.345.374-.542.52-.2.148-.405.286-.579.464-.095.098-.157.205-.257.305zM21.976 75.079c.398.141.964 2.361 1.165 2.86.148.363.213.726-.286.79-.292.037-1.03-.099-.99.418.045.552 1.459.189 1.787.346.237.113.287.407.567.446.45.062.396-.444.377-.723.366-.135 2.14.444 2.547.545.814.111.427-.542.225-.643-.322-.159-.661-.349-1.012-.473-.475-.167-.962-.281-1.427-.488-1.304-.045-1.784-3.322-1.7-3.518M13.775 75.079c-.004.664-.323 2.8-.484 3.145-.392.845-1.769.443-2.396.989-.488.425.152.545.505.51.385-.038.755-.207 1.122-.33.161-.054.315-.15.395.017.09.188-.109.389.132.525.432.242.651-.248.682-.568.012-.128-.023-.156.071-.219.073-.05.254-.032.341-.023.23.022.48.097.687.203.396.204.611.473 1.1.479.701.008.027-.727-.29-.875-1.755-.62-1.083-2.908-.766-3.984"/><path fill="#f4d038" d="M26.758 55.633c.552.429 1.763.062 2.376-.106 1.09-.3 1.717-.967 2.465-1.782.694-.758 1.095-1.682 1.384-2.662.156-.527.234-1.07.24-1.624.002-.29-.055-.691.022-.95.152.377.397.53.44.956.032.339-.017.702-.095 1.012.136-.24.178-.526.291-.77.416.582-.016 1.13-.168 1.695.354-.322.92-.796.894-1.332.14.482.268.93.174 1.44-.088.482-.447.866-.56 1.31.34-.182.608-.455.775-.805.068.664-.364 1.164-.676 1.703.234-.09.48-.184.711-.284.024.335-.275.83-.453 1.105.444-.127.895-.277 1.22-.642.051.799-.905 1.335-1.22 1.963.192-.105.421-.156.621-.257.307-.154.53-.431.788-.628.072.526-.613 1.189-.926 1.548-.43.495-1.069.805-1.639 1.082.388.03.858.024 1.223-.112-.423.528-1 .857-1.679.91.197.027.43.329.417.52-.374.154-1.01.196-1.402.077.637.647-.734.43-1.072.206.15.16.366.395.137.558-.278.198-.665-.206-.886-.33.012.225.084.325-.11.462-.25.177-.543 0-.689-.197-.1.273-.52.059-.69-.073-.517-.401-.434-.965-.758-1.454"/><path fill="#fee05f" d="M29.233 65.963c-.024.061-.045.12-.072.182a.852.852 0 0 0 .072-.182z"/><path fill="#fee05f" d="M12.605 55.295a.742.742 0 0 0-.066.362c-.142-.252-.087-.547-.103-.824-.172.122-.205.416-.2.611-.13-.126-.198-.499-.184-.682-.098.05-.138.165-.194.248-.056-.197-.05-.385-.08-.58-.038-.236-.102-.46-.117-.702-.022-.368.02-.736.126-1.089.08-.266.2-.515.323-.763.048-.097.204-.315.17-.432-.002-.005-1.58-5.476 3.595-8.278.368-.199.526-.958.387-1.385-.15-.463-.649-.65-1.046-.716.498-.138.877-.244 1.245.223.311.394.277.826.27 1.307.172-.58.49-1.178.96-1.564.636-.524 1.39-.733 2.152-.923-.44.15-.885.407-1.232.652-.533.376-.71.826-.992 1.372.354-.48 1.06-.75 1.61-.952.54-.197 1.495-.427 2.044-.19-1.006-.008-2.344.14-2.716 1.216.42-.145.794-.365 1.241-.466.6-.136 1.166-.163 1.78-.157 1.054.01 2.221.425 3.024 1.09-.643-.087-1.263-.392-1.934-.43-.665-.04-1.362-.094-1.946.296.345-.23 1.41.04 1.764.113 1.287.266 2.458.94 3.29 1.965.373.461.672.98.906 1.525.11.258.164.667.384.846.222.181.587.127.845.226.503.193.661.47.986.854a1.113 1.113 0 0 0-.529-.372c.295.387.606.665.784 1.114-.224-.172-.466-.286-.704-.424.165.2.553.611.513.871-.129-.114-.277-.22-.393-.343.124.296.42.577.427.911a9.21 9.21 0 0 0-.394-.316c.065.665.4 1.281.194 1.964-.233-.174-.163-.54-.35-.746-.034.245.073.495.028.747-.055.307-.258.651-.43.9a7.646 7.646 0 0 1-.605.78c-2.187 1.96 2.386 3.103 2.576 8.915.17.43.171.882.206 1.337.028.38.15.873.092 1.245-.154-.298-.26-.555-.49-.81-.039-.043-.089-.088-.134-.137.135.381.248.751.235 1.18-.002-.432-.42-.746-.522-1.139.218.824.131 1.45-.169 2.217.09-.31.033-.699-.035-.988.028.974.451 4.871-4.808 7.387-.527.547-.214 1.55-.7 2.21-.467.635-1.318.943-2.012.394-.388-.307-1-1.102-1.018-1.615-.68 1.013-3.066.75-3.855.126-.18.488-.51.94-.82 1.357-.414.553-1.09.856-1.758.578-.709-.295-.762-.854-.98-1.5-.229-.669-.959-1.358-1.592-1.625-.748-.315-1.39-.869-1.915-1.474.004.245.31.595.495.71-.358-.17-.849-.439-1.187-.713-.439-.354-1.112-1.013-1.25-1.579-.189.396.028.928.32 1.23-.782-.484-1.027-1.502-1.087-2.329-.13.232-.2.543-.197.824-.119-.227-.269-.484-.294-.764-.028-.32.127-.637.097-.95-.51.264-.555.862-.629 1.376-.145-.612-.099-1.23-.129-1.863-.37.396-.503.87-.68 1.37-.074-1.099.09-1.823.972-2.496-.207.14-.41.341-.606.515.535-.87 1.102-1.36 2.161-1.446 2.841-4.26 6.182-5.272 6.494-6.897.217-.404.422-1.062.39-1.594-.062-.038-.127-.073-.185-.115-.139-.102-.325-.377-.52-.319-.328.098-.303.693-.309.94-.218-.178-.25-.583-.265-.846-.132.126-.187.338-.198.523a.772.772 0 0 1-.197-.457c-.03.05-.088.083-.118.155-.067-.265-.103-.544-.172-.804"/><path fill="#fee05f" d="M19.845 40.11l.44-.11a2.442 2.442 0 0 0-.44.11z"/><path fill="#f4d038" d="M13.525 58.366c-.285.185-.616.305-.845.556.386.33.157.327-.226.572-.28.178-.39.324-.561.591-.456.707-1.277 1.26-2.004 1.675a7.89 7.89 0 0 1-3.048.996 5.588 5.588 0 0 1-1.55-.006c-.456-.07-.855-.292-1.283-.384.174.612.857.924 1.445.957-.084.158-.303.201-.431.322.219.44 1.168.436 1.577.43-.233.127-.554.201-.74.39.378.204.81.171 1.23.171a3.753 3.753 0 0 0-1.095.196c.366.4 1.614.547 2.09.33-.281-.01-.67.227-.877.407.68.416 1.846.272 2.534-.095-.284.23-.586.498-.853.738.65.042 1.24-.092 1.844-.316.42-.155.939-.295 1.192-.69-.14.233-.443.411-.53.652.329.161 1.069-.329 1.359-.496.385-.222.747-.436 1.054-.758 1.074-1.126 1.886-2.93 1.962-4.484.036-.726-.126-1.707-.74-2.192-.593-.469-1.721-.23-2.06.457.145.036.419.07.556-.019z"/><path fill="#f89c44" d="M21.249 50.93c-.733.796-1.764.728-2.74.593l-1.153-.066c.255-.033 1.066.782 1.352.99.455.33.915.647 1.459.751.462.088 1.134.253 1.55-.05.372-.274.615-.912.784-1.328.288-.71.258-1.546.623-2.236-.8.01-1.397.827-1.875 1.346z"/><ellipse cx="16.506" cy="49.209" rx=".57" ry=".792" fill="#304454" transform="rotate(-8.893 16.506 49.21)"/><ellipse cx="23.163" cy="47.812" rx=".57" ry=".792" fill="#304454" transform="rotate(-8.893 23.163 47.812)"/><path fill="#d14e3f" d="M18.213 51.655c.908.228 1.86 1.538 2.87 1.12.821-.34 1.24-1.926 1.476-2.703.024-.082.065-.154.103-.228-.788.273-1.223.978-1.844 1.457-.294.227-.728.31-1.089.347-.407.04-.613-.111-.988-.191"/><path fill="#f89c44" d="M17.215 51.462v-.033c.56.172 1.17.208 1.748.331.126.027.27.06.423.09.407.082.876.152 1.226.073.468-.104.787-.575 1.046-.963.25-.372.506-.633.835-.877.215-.159.466-.285.63-.502-.146-.226-.495-.173-.73-.139-.33.05-.529.085-.858-.017-.368-.115-.69-.272-1.049-.332-.87-.144-1.432.425-1.893 1.08-.152.217-.345.374-.542.52-.2.148-.405.286-.579.464-.095.098-.157.205-.257.305zM61.976 75.079c.398.141.964 2.361 1.165 2.86.148.363.213.726-.286.79-.292.037-1.03-.099-.99.418.045.552 1.459.189 1.787.346.237.113.287.407.567.446.45.062.396-.444.377-.723.366-.135 2.14.444 2.547.545.814.111.427-.542.225-.643-.322-.159-.661-.349-1.012-.473-.475-.167-.962-.281-1.427-.488-1.304-.045-1.784-3.322-1.7-3.518M53.775 75.079c-.004.664-.323 2.8-.484 3.145-.392.845-1.769.443-2.396.989-.488.425.152.545.505.51.385-.038.755-.207 1.122-.33.161-.054.315-.15.395.017.09.188-.109.389.132.525.432.242.651-.248.682-.568.012-.128-.023-.156.071-.219.073-.05.254-.032.341-.023.23.022.48.097.687.203.396.204.611.473 1.1.479.701.008.027-.727-.29-.875-1.755-.62-1.083-2.908-.766-3.984"/><path fill="#f4d038" d="M66.758 55.633c.552.429 1.763.062 2.376-.106 1.09-.3 1.717-.967 2.465-1.782.694-.758 1.095-1.682 1.384-2.662.156-.527.234-1.07.24-1.624.002-.29-.055-.691.022-.95.152.377.397.53.44.956.032.339-.017.702-.095 1.012.136-.24.178-.526.291-.77.416.582-.016 1.13-.168 1.695.354-.322.92-.796.894-1.332.14.482.268.93.174 1.44-.088.482-.447.866-.56 1.31.34-.182.608-.455.775-.805.068.664-.364 1.164-.676 1.703.234-.09.48-.184.711-.284.024.335-.275.83-.453 1.105.444-.127.895-.277 1.22-.642.051.799-.905 1.335-1.22 1.963.192-.105.421-.156.621-.257.307-.154.53-.431.788-.628.072.526-.613 1.189-.926 1.548-.43.495-1.069.805-1.639 1.082.388.03.858.024 1.223-.112-.423.528-1 .857-1.679.91.197.027.43.329.417.52-.374.154-1.01.196-1.402.077.637.647-.734.43-1.072.206.15.16.366.395.137.558-.278.198-.665-.206-.886-.33.012.225.084.325-.11.462-.25.177-.543 0-.689-.197-.1.273-.52.059-.69-.073-.517-.401-.434-.965-.758-1.454"/><path fill="#fee05f" d="M69.233 65.963c-.024.061-.045.12-.072.182a.852.852 0 0 0 .072-.182z"/><path fill="#fee05f" d="M52.605 55.295a.742.742 0 0 0-.066.362c-.142-.252-.087-.547-.103-.824-.172.122-.205.416-.2.611-.13-.126-.198-.499-.184-.682-.098.05-.138.165-.194.248-.056-.197-.05-.385-.08-.58-.038-.236-.102-.46-.117-.702-.022-.368.02-.736.126-1.089.08-.266.2-.515.323-.763.048-.097.204-.315.17-.432-.002-.005-1.58-5.476 3.595-8.278.368-.199.526-.958.387-1.385-.15-.463-.649-.65-1.046-.716.498-.138.877-.244 1.245.223.311.394.277.826.27 1.307.172-.58.49-1.178.96-1.564.636-.524 1.39-.733 2.152-.923-.44.15-.885.407-1.232.652-.533.376-.71.826-.992 1.372.354-.48 1.06-.75 1.61-.952.54-.197 1.495-.427 2.044-.19-1.006-.008-2.344.14-2.716 1.216.42-.145.794-.365 1.241-.466.6-.136 1.166-.163 1.78-.157 1.054.01 2.221.425 3.024 1.09-.643-.087-1.263-.392-1.934-.43-.665-.04-1.362-.094-1.946.296.345-.23 1.41.04 1.764.113 1.287.266 2.458.94 3.29 1.965.373.461.672.98.906 1.525.11.258.164.667.384.846.222.181.587.127.845.226.503.193.661.47.986.854a1.113 1.113 0 0 0-.529-.372c.295.387.606.665.784 1.114-.224-.172-.466-.286-.704-.424.165.2.553.611.513.871-.129-.114-.277-.22-.393-.343.124.296.42.577.427.911a9.21 9.21 0 0 0-.394-.316c.065.665.4 1.281.194 1.964-.233-.174-.163-.54-.35-.746-.034.245.073.495.028.747-.055.307-.258.651-.43.9a7.646 7.646 0 0 1-.605.78c-2.187 1.96 2.386 3.103 2.576 8.915.17.43.171.882.206 1.337.028.38.15.873.092 1.245-.154-.298-.26-.555-.49-.81-.039-.043-.089-.088-.134-.137.135.381.248.751.235 1.18-.002-.432-.42-.746-.522-1.139.218.824.131 1.45-.169 2.217.09-.31.033-.699-.035-.988.028.974.451 4.871-4.808 7.387-.527.547-.214 1.55-.7 2.21-.467.635-1.318.943-2.012.394-.388-.307-1-1.102-1.018-1.615-.68 1.013-3.066.75-3.855.126-.18.488-.51.94-.82 1.357-.414.553-1.09.856-1.758.578-.709-.295-.762-.854-.98-1.5-.229-.669-.959-1.358-1.592-1.625-.748-.315-1.39-.869-1.915-1.474.004.245.31.595.495.71-.358-.17-.849-.439-1.187-.713-.439-.354-1.112-1.013-1.25-1.579-.189.396.028.928.32 1.23-.782-.484-1.027-1.502-1.087-2.329-.13.232-.2.543-.197.824-.119-.227-.269-.484-.294-.764-.028-.32.127-.637.097-.95-.51.264-.555.862-.629 1.376-.145-.612-.099-1.23-.129-1.863-.37.396-.503.87-.68 1.37-.074-1.099.09-1.823.972-2.496-.207.14-.41.341-.606.515.535-.87 1.102-1.36 2.161-1.446 2.841-4.26 6.182-5.272 6.494-6.897.217-.404.422-1.062.39-1.594-.062-.038-.127-.073-.185-.115-.139-.102-.325-.377-.52-.319-.328.098-.303.693-.309.94-.218-.178-.25-.583-.265-.846-.132.126-.187.338-.198.523a.772.772 0 0 1-.197-.457c-.03.05-.088.083-.118.155-.067-.265-.103-.544-.172-.804"/><path fill="#fee05f" d="M59.845 40.11l.44-.11a2.442 2.442 0 0 0-.44.11z"/><path fill="#f4d038" d="M53.525 58.366c-.285.185-.616.305-.845.556.386.33.157.327-.226.572-.28.178-.39.324-.561.591-.456.707-1.277 1.26-2.004 1.675a7.89 7.89 0 0 1-3.048.996 5.588 5.588 0 0 1-1.55-.006c-.456-.07-.855-.292-1.283-.384.174.612.857.924 1.445.957-.084.158-.303.201-.431.322.219.44 1.168.436 1.577.43-.233.127-.554.201-.74.39.378.204.81.171 1.23.171a3.753 3.753 0 0 0-1.095.196c.366.4 1.614.547 2.09.33-.281-.01-.67.227-.877.407.68.416 1.846.272 2.534-.095-.284.23-.586.498-.853.738.65.042 1.24-.092 1.844-.316.42-.155.939-.295 1.192-.69-.14.233-.443.411-.53.652.329.161 1.069-.329 1.359-.496.385-.222.747-.436 1.054-.758 1.074-1.126 1.886-2.93 1.962-4.484.036-.726-.126-1.707-.74-2.192-.593-.469-1.721-.23-2.06.457.145.036.419.07.556-.019z"/><path fill="#f89c44" d="M61.249 50.93c-.733.796-1.764.728-2.74.593l-1.153-.066c.255-.033 1.066.782 1.352.99.455.33.915.647 1.459.751.462.088 1.134.253 1.55-.05.372-.274.615-.912.784-1.328.288-.71.258-1.546.623-2.236-.8.01-1.397.827-1.875 1.346z"/><ellipse cx="56.506" cy="49.209" rx=".57" ry=".792" fill="#304454" transform="rotate(-8.893 56.506 49.21)"/><ellipse cx="63.163" cy="47.812" rx=".57" ry=".792" fill="#304454" transform="rotate(-8.893 63.163 47.812)"/><path fill="#d14e3f" d="M58.213 51.655c.908.228 1.86 1.538 2.87 1.12.821-.34 1.24-1.926 1.476-2.703.024-.082.065-.154.103-.228-.788.273-1.223.978-1.844 1.457-.294.227-.728.31-1.089.347-.407.04-.613-.111-.988-.191"/><path fill="#f89c44" d="M57.215 51.462v-.033c.56.172 1.17.208 1.748.331.126.027.27.06.423.09.407.082.876.152 1.226.073.468-.104.787-.575 1.046-.963.25-.372.506-.633.835-.877.215-.159.466-.285.63-.502-.146-.226-.495-.173-.73-.139-.33.05-.529.085-.858-.017-.368-.115-.69-.272-1.049-.332-.87-.144-1.432.425-1.893 1.08-.152.217-.345.374-.542.52-.2.148-.405.286-.579.464-.095.098-.157.205-.257.305zM101.976 75.079c.398.141.964 2.361 1.165 2.86.148.363.213.726-.286.79-.292.037-1.03-.099-.989.418.044.552 1.458.189 1.786.346.237.113.287.407.567.446.45.062.396-.444.377-.723.366-.135 2.14.444 2.547.545.814.111.427-.542.225-.643-.322-.159-.661-.349-1.012-.473-.475-.167-.962-.281-1.427-.488-1.304-.045-1.784-3.322-1.699-3.518M93.775 75.079c-.004.664-.323 2.8-.484 3.145-.392.845-1.769.443-2.396.989-.488.425.152.545.505.51.385-.038.755-.207 1.122-.33.161-.054.315-.15.395.017.09.188-.109.389.132.525.432.242.651-.248.682-.568.012-.128-.023-.156.071-.219.073-.05.254-.032.341-.023.23.022.48.097.687.203.396.204.611.473 1.1.479.701.008.027-.727-.29-.875-1.755-.62-1.083-2.908-.766-3.984"/><path fill="#f4d038" d="M106.758 55.633c.552.429 1.763.062 2.376-.106 1.09-.3 1.717-.967 2.465-1.782.694-.758 1.095-1.682 1.384-2.662.156-.527.234-1.07.239-1.624.003-.29-.054-.691.023-.95.152.377.397.53.439.956.033.339-.016.702-.094 1.012.136-.24.178-.526.291-.77.416.582-.016 1.13-.168 1.695.354-.322.919-.796.894-1.332.139.482.268.93.174 1.44-.088.482-.447.866-.56 1.31.34-.182.608-.455.775-.805.068.664-.364 1.164-.676 1.703.234-.09.48-.184.711-.284.024.335-.275.83-.453 1.105.444-.127.895-.277 1.219-.642.052.799-.904 1.335-1.22 1.963.193-.105.422-.156.622-.257.307-.154.53-.431.788-.628.072.526-.613 1.189-.926 1.548-.431.495-1.069.805-1.639 1.082.388.03.858.024 1.223-.112-.423.528-1.001.857-1.679.91.197.027.429.329.417.52-.374.154-1.011.196-1.402.077.637.647-.734.43-1.072.206.15.16.366.395.137.558-.278.198-.665-.206-.886-.33.012.225.084.325-.111.462-.25.177-.542 0-.688-.197-.101.273-.52.059-.69-.073-.517-.401-.434-.965-.758-1.454"/><path fill="#fee05f" d="M109.233 65.963c-.024.061-.045.12-.072.182a.852.852 0 0 0 .072-.182z"/><path fill="#fee05f" d="M92.605 55.295a.742.742 0 0 0-.066.362c-.142-.252-.087-.547-.103-.824-.172.122-.205.416-.2.611-.13-.126-.198-.499-.184-.682-.098.05-.138.165-.194.248-.056-.197-.05-.385-.08-.58-.038-.236-.102-.46-.117-.702-.022-.368.02-.736.126-1.089.08-.266.2-.515.323-.763.048-.097.204-.315.17-.432-.002-.005-1.58-5.476 3.595-8.278.368-.199.526-.958.387-1.385-.15-.463-.649-.65-1.046-.716.498-.138.877-.244 1.245.223.311.394.277.826.27 1.307.172-.58.49-1.178.96-1.564.636-.524 1.39-.733 2.152-.923-.44.15-.885.407-1.232.652-.533.376-.71.826-.992 1.372.354-.48 1.06-.75 1.61-.952.54-.197 1.495-.427 2.044-.19-1.006-.008-2.344.14-2.716 1.216.42-.145.794-.365 1.241-.466.599-.136 1.166-.163 1.78-.157 1.054.01 2.221.425 3.024 1.09-.643-.087-1.263-.392-1.934-.43-.665-.04-1.362-.094-1.946.296.345-.23 1.41.04 1.764.113 1.287.266 2.458.94 3.289 1.965.374.461.673.98.907 1.525.11.258.164.667.384.846.222.181.587.127.845.226.503.193.661.47.986.854a1.113 1.113 0 0 0-.529-.372c.295.387.606.665.784 1.114-.224-.172-.466-.286-.704-.424.165.2.553.611.513.871-.129-.114-.277-.22-.393-.343.124.296.419.577.427.911a9.21 9.21 0 0 0-.394-.316c.065.665.4 1.281.194 1.964-.233-.174-.163-.54-.351-.746-.033.245.074.495.029.747-.055.307-.258.651-.431.9a7.646 7.646 0 0 1-.604.78c-2.187 1.96 2.386 3.103 2.576 8.915.17.43.171.882.206 1.337.028.38.149.873.092 1.245-.154-.298-.261-.555-.491-.81-.038-.043-.088-.088-.133-.137.135.381.248.751.235 1.18-.002-.432-.421-.746-.522-1.139.218.824.131 1.45-.169 2.217.089-.31.033-.699-.035-.988.028.974.451 4.871-4.808 7.387-.527.547-.214 1.55-.7 2.21-.467.635-1.318.943-2.012.394-.388-.307-1-1.102-1.018-1.615-.68 1.013-3.066.75-3.855.126-.18.488-.51.94-.82 1.357-.414.553-1.09.856-1.758.578-.709-.295-.762-.854-.98-1.5-.229-.669-.959-1.358-1.592-1.625-.748-.315-1.39-.869-1.915-1.474.004.245.31.595.495.71-.358-.17-.849-.439-1.187-.713-.439-.354-1.112-1.013-1.25-1.579-.189.396.028.928.32 1.23-.782-.484-1.027-1.502-1.087-2.329-.13.232-.2.543-.197.824-.119-.227-.269-.484-.294-.764-.028-.32.127-.637.097-.95-.51.264-.555.862-.629 1.376-.145-.612-.099-1.23-.129-1.863-.37.396-.503.87-.68 1.37-.074-1.099.09-1.823.972-2.496-.207.14-.41.341-.606.515.535-.87 1.102-1.36 2.161-1.446 2.841-4.26 6.182-5.272 6.494-6.897.217-.404.422-1.062.39-1.594-.062-.038-.127-.073-.185-.115-.139-.102-.325-.377-.52-.319-.328.098-.303.693-.309.94-.218-.178-.25-.583-.265-.846-.132.126-.187.338-.198.523a.772.772 0 0 1-.197-.457c-.03.05-.088.083-.118.155-.067-.265-.103-.544-.172-.804"/><path fill="#fee05f" d="M99.845 40.11l.44-.11a2.446 2.446 0 0 0-.44.11z"/><path fill="#f4d038" d="M93.525 58.366c-.285.185-.616.305-.845.556.386.33.157.327-.226.572-.28.178-.39.324-.561.591-.456.707-1.277 1.26-2.004 1.675a7.89 7.89 0 0 1-3.048.996 5.588 5.588 0 0 1-1.55-.006c-.456-.07-.855-.292-1.283-.384.174.612.857.924 1.445.957-.084.158-.303.201-.431.322.219.44 1.168.436 1.577.43-.233.127-.554.201-.74.39.378.204.81.171 1.23.171a3.753 3.753 0 0 0-1.095.196c.366.4 1.614.547 2.09.33-.281-.01-.67.227-.877.407.68.416 1.846.272 2.534-.095-.284.23-.586.498-.853.738.65.042 1.24-.092 1.844-.316.42-.155.939-.295 1.192-.69-.14.233-.443.411-.53.652.329.161 1.069-.329 1.359-.496.385-.222.747-.436 1.054-.758 1.074-1.126 1.886-2.93 1.962-4.484.036-.726-.126-1.707-.74-2.192-.593-.469-1.721-.23-2.06.457.145.036.419.07.556-.019z"/><path fill="#f89c44" d="M101.249 50.93c-.733.796-1.764.728-2.74.593l-1.153-.066c.255-.033 1.066.782 1.352.99.455.33.915.647 1.459.751.462.088 1.134.253 1.55-.05.372-.274.615-.912.784-1.328.288-.71.258-1.546.623-2.236-.8.01-1.397.827-1.875 1.346z"/><ellipse cx="96.506" cy="49.209" rx=".57" ry=".792" fill="#304454" transform="rotate(-8.893 96.506 49.21)"/><ellipse cx="103.163" cy="47.812" rx=".57" ry=".792" fill="#304454" transform="rotate(-8.893 103.163 47.812)"/><path fill="#d14e3f" d="M98.213 51.655c.908.228 1.859 1.538 2.869 1.12.822-.34 1.241-1.926 1.477-2.703.024-.082.065-.154.103-.228-.788.273-1.223.978-1.844 1.457-.294.227-.728.31-1.089.347-.407.04-.613-.111-.988-.191"/><path fill="#f89c44" d="M97.215 51.462v-.033c.56.172 1.17.208 1.748.331.126.027.27.06.423.09.407.082.876.152 1.226.073.468-.104.787-.575 1.046-.963.249-.372.506-.633.835-.877.215-.159.466-.285.63-.502-.146-.226-.495-.173-.73-.139-.33.05-.529.085-.858-.017-.368-.115-.69-.272-1.049-.332-.87-.144-1.432.425-1.893 1.08-.152.217-.345.374-.542.52-.2.148-.405.286-.579.464-.095.098-.157.205-.257.305zM141.976 75.079c.398.141.964 2.361 1.165 2.86.148.363.213.726-.286.79-.292.037-1.03-.099-.989.418.044.552 1.458.189 1.786.346.237.113.287.407.567.446.45.062.396-.444.377-.723.366-.135 2.14.444 2.547.545.814.111.427-.542.225-.643-.322-.159-.661-.349-1.012-.473-.475-.167-.962-.281-1.427-.488-1.304-.045-1.784-3.322-1.699-3.518M133.775 75.079c-.004.664-.323 2.8-.484 3.145-.392.845-1.769.443-2.396.989-.488.425.152.545.505.51.385-.038.755-.207 1.122-.33.161-.054.315-.15.395.017.09.188-.109.389.132.525.432.242.651-.248.682-.568.012-.128-.023-.156.071-.219.073-.05.254-.032.341-.023.23.022.48.097.687.203.396.204.611.473 1.099.479.702.008.028-.727-.29-.875-1.754-.62-1.082-2.908-.765-3.984"/><path fill="#f4d038" d="M146.758 55.633c.552.429 1.763.062 2.376-.106 1.09-.3 1.717-.967 2.465-1.782.694-.758 1.095-1.682 1.384-2.662.156-.527.234-1.07.239-1.624.003-.29-.054-.691.023-.95.152.377.397.53.439.956.033.339-.016.702-.094 1.012.136-.24.178-.526.291-.77.416.582-.016 1.13-.168 1.695.354-.322.919-.796.894-1.332.139.482.268.93.174 1.44-.088.482-.447.866-.56 1.31.34-.182.608-.455.775-.805.068.664-.364 1.164-.676 1.703.234-.09.48-.184.711-.284.024.335-.275.83-.453 1.105.444-.127.895-.277 1.219-.642.052.799-.904 1.335-1.22 1.963.193-.105.422-.156.622-.257.307-.154.53-.431.788-.628.072.526-.613 1.189-.926 1.548-.431.495-1.069.805-1.639 1.082.388.03.858.024 1.223-.112-.423.528-1.001.857-1.679.91.197.027.429.329.417.52-.374.154-1.011.196-1.402.077.637.647-.734.43-1.072.206.15.16.366.395.137.558-.278.198-.665-.206-.886-.33.012.225.084.325-.111.462-.25.177-.542 0-.688-.197-.101.273-.52.059-.69-.073-.517-.401-.434-.965-.758-1.454"/><path fill="#fee05f" d="M149.233 65.963c-.024.061-.045.12-.072.182a.852.852 0 0 0 .072-.182z"/><path fill="#fee05f" d="M132.605 55.295a.742.742 0 0 0-.066.362c-.142-.252-.087-.547-.103-.824-.172.122-.205.416-.2.611-.131-.126-.198-.499-.184-.682-.098.05-.138.165-.194.248-.056-.197-.051-.385-.081-.58-.037-.236-.101-.46-.116-.702-.022-.368.02-.736.126-1.089.08-.266.199-.515.323-.763.048-.097.204-.315.17-.432-.002-.005-1.58-5.476 3.595-8.278.368-.199.526-.958.387-1.385-.15-.463-.649-.65-1.046-.716.498-.138.877-.244 1.245.223.311.394.277.826.269 1.307.173-.58.491-1.178.96-1.564.637-.524 1.39-.733 2.153-.923-.44.15-.885.407-1.232.652-.533.376-.711.826-.992 1.372.354-.48 1.06-.75 1.609-.952.54-.197 1.496-.427 2.045-.19-1.006-.008-2.344.14-2.716 1.216.419-.145.794-.365 1.241-.466.599-.136 1.166-.163 1.78-.157 1.054.01 2.221.425 3.024 1.09-.643-.087-1.263-.392-1.934-.43-.665-.04-1.362-.094-1.946.296.345-.23 1.41.04 1.764.113 1.287.266 2.458.94 3.289 1.965.374.461.673.98.907 1.525.11.258.164.667.384.846.222.181.587.127.845.226.503.193.661.47.986.854a1.113 1.113 0 0 0-.529-.372c.295.387.606.665.784 1.114-.224-.172-.466-.286-.704-.424.165.2.553.611.513.871-.129-.114-.277-.22-.393-.343.124.296.419.577.427.911a9.21 9.21 0 0 0-.394-.316c.065.665.4 1.281.194 1.964-.233-.174-.163-.54-.351-.746-.033.245.074.495.029.747-.055.307-.258.651-.431.9a7.646 7.646 0 0 1-.604.78c-2.187 1.96 2.386 3.103 2.576 8.915.17.43.171.882.206 1.337.028.38.149.873.092 1.245-.154-.298-.261-.555-.491-.81-.038-.043-.088-.088-.133-.137.135.381.248.751.235 1.18-.002-.432-.421-.746-.522-1.139.218.824.131 1.45-.169 2.217.089-.31.033-.699-.035-.988.028.974.451 4.871-4.808 7.387-.527.547-.214 1.55-.7 2.21-.467.635-1.318.943-2.012.394-.388-.307-1-1.102-1.018-1.615-.68 1.013-3.066.75-3.855.126-.18.488-.511.94-.821 1.357-.413.553-1.089.856-1.757.578-.709-.295-.762-.854-.981-1.5-.228-.669-.958-1.358-1.591-1.625-.748-.315-1.391-.869-1.915-1.474.004.245.31.595.495.71-.358-.17-.849-.439-1.187-.713-.439-.354-1.112-1.013-1.25-1.579-.189.396.028.928.319 1.23-.781-.484-1.026-1.502-1.086-2.329-.13.232-.201.543-.197.824-.119-.227-.269-.484-.294-.764-.028-.32.127-.637.097-.95-.51.264-.555.862-.629 1.376-.145-.612-.099-1.23-.129-1.863-.37.396-.503.87-.681 1.37-.073-1.099.091-1.823.973-2.496-.207.14-.411.341-.606.515.535-.87 1.102-1.36 2.161-1.446 2.841-4.26 6.182-5.272 6.494-6.897.217-.404.422-1.062.389-1.594-.061-.038-.126-.073-.184-.115-.139-.102-.325-.377-.52-.319-.328.098-.303.693-.309.94-.218-.178-.251-.583-.265-.846-.132.126-.187.338-.198.523a.772.772 0 0 1-.197-.457c-.031.05-.088.083-.118.155-.067-.265-.103-.544-.172-.804"/><path fill="#fee05f" d="M139.845 40.11l.44-.11a2.442 2.442 0 0 0-.44.11z"/><path fill="#f4d038" d="M133.525 58.366c-.285.185-.616.305-.845.556.386.33.157.327-.226.572-.28.178-.389.324-.561.591-.456.707-1.277 1.26-2.004 1.675a7.89 7.89 0 0 1-3.048.996 5.588 5.588 0 0 1-1.55-.006c-.456-.07-.855-.292-1.283-.384.174.612.857.924 1.445.957-.084.158-.303.201-.431.322.219.44 1.168.436 1.577.43-.233.127-.554.201-.739.39.377.204.81.171 1.229.171a3.753 3.753 0 0 0-1.095.196c.366.4 1.614.547 2.091.33-.282-.01-.671.227-.878.407.681.416 1.846.272 2.534-.095-.284.23-.586.498-.853.738.65.042 1.24-.092 1.844-.316.421-.155.939-.295 1.192-.69-.139.233-.443.411-.529.652.328.161 1.068-.329 1.358-.496.385-.222.747-.436 1.054-.758 1.074-1.126 1.886-2.93 1.962-4.484.036-.726-.126-1.707-.74-2.192-.593-.469-1.721-.23-2.059.457.144.036.418.07.555-.019z"/><path fill="#f89c44" d="M141.249 50.93c-.733.796-1.764.728-2.739.593l-1.154-.066c.255-.033 1.066.782 1.352.99.455.33.915.647 1.459.751.462.088 1.134.253 1.55-.05.372-.274.615-.912.784-1.328.288-.71.258-1.546.623-2.236-.8.01-1.397.827-1.875 1.346z"/><ellipse cx="136.506" cy="49.209" rx=".57" ry=".792" fill="#304454" transform="rotate(-8.893 136.506 49.21)"/><ellipse cx="143.163" cy="47.812" rx=".57" ry=".792" fill="#304454" transform="rotate(-8.893 143.163 47.812)"/><path fill="#d14e3f" d="M138.213 51.655c.908.228 1.859 1.538 2.869 1.12.822-.34 1.241-1.926 1.477-2.703.024-.082.065-.154.103-.228-.788.273-1.223.978-1.844 1.457-.294.227-.728.31-1.089.347-.407.04-.613-.111-.988-.191"/><path fill="#f89c44" d="M137.215 51.462v-.033c.559.172 1.169.208 1.748.331.126.027.27.06.423.09.407.082.876.152 1.226.073.468-.104.787-.575 1.046-.963.249-.372.506-.633.835-.877.215-.159.466-.285.63-.502-.146-.226-.495-.173-.73-.139-.33.05-.529.085-.858-.017-.368-.115-.69-.272-1.049-.332-.871-.144-1.432.425-1.893 1.08-.152.217-.345.374-.542.52-.2.148-.405.286-.579.464-.095.098-.157.205-.257.305zM181.976 75.079c.398.141.964 2.361 1.165 2.86.148.363.213.726-.286.79-.292.037-1.03-.099-.989.418.044.552 1.458.189 1.786.346.237.113.287.407.567.446.45.062.396-.444.377-.723.366-.135 2.14.444 2.547.545.814.111.427-.542.225-.643-.322-.159-.661-.349-1.012-.473-.475-.167-.962-.281-1.427-.488-1.304-.045-1.784-3.322-1.699-3.518M173.775 75.079c-.004.664-.323 2.8-.484 3.145-.392.845-1.769.443-2.396.989-.488.425.152.545.505.51.385-.038.755-.207 1.122-.33.161-.054.315-.15.395.017.09.188-.109.389.132.525.432.242.651-.248.682-.568.012-.128-.023-.156.071-.219.073-.05.254-.032.341-.023.23.022.48.097.687.203.396.204.611.473 1.099.479.702.008.028-.727-.29-.875-1.754-.62-1.082-2.908-.765-3.984"/><path fill="#f4d038" d="M186.758 55.633c.552.429 1.763.062 2.376-.106 1.09-.3 1.717-.967 2.465-1.782.694-.758 1.095-1.682 1.384-2.662.156-.527.234-1.07.239-1.624.003-.29-.054-.691.023-.95.152.377.397.53.439.956.033.339-.016.702-.094 1.012.136-.24.178-.526.291-.77.416.582-.016 1.13-.168 1.695.354-.322.919-.796.894-1.332.139.482.268.93.174 1.44-.088.482-.447.866-.56 1.31.34-.182.608-.455.775-.805.068.664-.364 1.164-.676 1.703.234-.09.48-.184.711-.284.024.335-.275.83-.453 1.105.444-.127.895-.277 1.219-.642.052.799-.904 1.335-1.22 1.963.193-.105.422-.156.622-.257.307-.154.53-.431.788-.628.072.526-.613 1.189-.926 1.548-.431.495-1.069.805-1.639 1.082.388.03.858.024 1.223-.112-.423.528-1.001.857-1.679.91.197.027.429.329.417.52-.374.154-1.011.196-1.402.077.637.647-.734.43-1.072.206.15.16.366.395.137.558-.278.198-.665-.206-.886-.33.012.225.084.325-.111.462-.25.177-.542 0-.688-.197-.101.273-.52.059-.69-.073-.517-.401-.434-.965-.758-1.454"/><path fill="#fee05f" d="M189.233 65.963c-.024.061-.045.12-.072.182a.852.852 0 0 0 .072-.182z"/><path fill="#fee05f" d="M172.605 55.295a.742.742 0 0 0-.066.362c-.142-.252-.087-.547-.103-.824-.172.122-.205.416-.2.611-.131-.126-.198-.499-.184-.682-.098.05-.138.165-.194.248-.056-.197-.051-.385-.081-.58-.037-.236-.101-.46-.116-.702-.022-.368.02-.736.126-1.089.08-.266.199-.515.323-.763.048-.097.204-.315.17-.432-.002-.005-1.58-5.476 3.595-8.278.368-.199.526-.958.387-1.385-.15-.463-.649-.65-1.046-.716.498-.138.877-.244 1.245.223.311.394.277.826.269 1.307.173-.58.491-1.178.96-1.564.637-.524 1.39-.733 2.153-.923-.44.15-.885.407-1.232.652-.533.376-.711.826-.992 1.372.354-.48 1.06-.75 1.609-.952.54-.197 1.496-.427 2.045-.19-1.006-.008-2.344.14-2.716 1.216.419-.145.794-.365 1.241-.466.599-.136 1.166-.163 1.78-.157 1.054.01 2.221.425 3.024 1.09-.643-.087-1.263-.392-1.934-.43-.665-.04-1.362-.094-1.946.296.345-.23 1.41.04 1.764.113 1.287.266 2.458.94 3.289 1.965.374.461.673.98.907 1.525.11.258.164.667.384.846.222.181.587.127.845.226.503.193.661.47.986.854a1.113 1.113 0 0 0-.529-.372c.295.387.606.665.784 1.114-.224-.172-.466-.286-.704-.424.165.2.553.611.513.871-.129-.114-.277-.22-.393-.343.124.296.419.577.427.911a9.21 9.21 0 0 0-.394-.316c.065.665.4 1.281.194 1.964-.233-.174-.163-.54-.351-.746-.033.245.074.495.029.747-.055.307-.258.651-.431.9a7.646 7.646 0 0 1-.604.78c-2.187 1.96 2.386 3.103 2.576 8.915.17.43.171.882.206 1.337.028.38.149.873.092 1.245-.154-.298-.261-.555-.491-.81-.038-.043-.088-.088-.133-.137.135.381.248.751.235 1.18-.002-.432-.421-.746-.522-1.139.218.824.131 1.45-.169 2.217.089-.31.033-.699-.035-.988.028.974.451 4.871-4.808 7.387-.527.547-.214 1.55-.7 2.21-.467.635-1.318.943-2.012.394-.388-.307-1-1.102-1.018-1.615-.68 1.013-3.066.75-3.855.126-.18.488-.511.94-.821 1.357-.413.553-1.089.856-1.757.578-.709-.295-.762-.854-.981-1.5-.228-.669-.958-1.358-1.591-1.625-.748-.315-1.391-.869-1.915-1.474.004.245.31.595.495.71-.358-.17-.849-.439-1.187-.713-.439-.354-1.112-1.013-1.25-1.579-.189.396.028.928.319 1.23-.781-.484-1.026-1.502-1.086-2.329-.13.232-.201.543-.197.824-.119-.227-.269-.484-.294-.764-.028-.32.127-.637.097-.95-.51.264-.555.862-.629 1.376-.145-.612-.099-1.23-.129-1.863-.37.396-.503.87-.681 1.37-.073-1.099.091-1.823.973-2.496-.207.14-.411.341-.606.515.535-.87 1.102-1.36 2.161-1.446 2.841-4.26 6.182-5.272 6.494-6.897.217-.404.422-1.062.389-1.594-.061-.038-.126-.073-.184-.115-.139-.102-.325-.377-.52-.319-.328.098-.303.693-.309.94-.218-.178-.251-.583-.265-.846-.132.126-.187.338-.198.523a.772.772 0 0 1-.197-.457c-.031.05-.088.083-.118.155-.067-.265-.103-.544-.172-.804"/><path fill="#fee05f" d="M179.845 40.11l.44-.11a2.442 2.442 0 0 0-.44.11z"/><path fill="#f4d038" d="M173.525 58.366c-.285.185-.616.305-.845.556.386.33.157.327-.226.572-.28.178-.389.324-.561.591-.456.707-1.277 1.26-2.004 1.675a7.89 7.89 0 0 1-3.048.996 5.588 5.588 0 0 1-1.55-.006c-.456-.07-.855-.292-1.283-.384.174.612.857.924 1.445.957-.084.158-.303.201-.431.322.219.44 1.168.436 1.577.43-.233.127-.554.201-.739.39.377.204.81.171 1.229.171a3.753 3.753 0 0 0-1.095.196c.366.4 1.614.547 2.091.33-.282-.01-.671.227-.878.407.681.416 1.846.272 2.534-.095-.284.23-.586.498-.853.738.65.042 1.24-.092 1.844-.316.421-.155.939-.295 1.192-.69-.139.233-.443.411-.529.652.328.161 1.068-.329 1.358-.496.385-.222.747-.436 1.054-.758 1.074-1.126 1.886-2.93 1.962-4.484.036-.726-.126-1.707-.74-2.192-.593-.469-1.721-.23-2.059.457.144.036.418.07.555-.019z"/><path fill="#f89c44" d="M181.249 50.93c-.733.796-1.764.728-2.739.593l-1.154-.066c.255-.033 1.066.782 1.352.99.455.33.915.647 1.459.751.462.088 1.134.253 1.55-.05.372-.274.615-.912.784-1.328.288-.71.258-1.546.623-2.236-.8.01-1.397.827-1.875 1.346z"/><ellipse cx="176.506" cy="49.209" rx=".57" ry=".792" fill="#304454" transform="rotate(-8.893 176.506 49.21)"/><ellipse cx="183.163" cy="47.812" rx=".57" ry=".792" fill="#304454" transform="rotate(-8.893 183.163 47.812)"/><path fill="#d14e3f" d="M178.213 51.655c.908.228 1.859 1.538 2.869 1.12.822-.34 1.241-1.926 1.477-2.703.024-.082.065-.154.103-.228-.788.273-1.223.978-1.844 1.457-.294.227-.728.31-1.089.347-.407.04-.613-.111-.988-.191"/><path fill="#f89c44" d="M177.215 51.462v-.033c.559.172 1.169.208 1.748.331.126.027.27.06.423.09.407.082.876.152 1.226.073.468-.104.787-.575 1.046-.963.249-.372.506-.633.835-.877.215-.159.466-.285.63-.502-.146-.226-.495-.173-.73-.139-.33.05-.529.085-.858-.017-.368-.115-.69-.272-1.049-.332-.871-.144-1.432.425-1.893 1.08-.152.217-.345.374-.542.52-.2.148-.405.286-.579.464-.095.098-.157.205-.257.305zM21.976 35.079c.398.141.964 2.361 1.165 2.86.148.363.213.726-.286.79-.292.037-1.03-.099-.99.418.045.552 1.459.189 1.787.346.237.113.287.407.567.446.45.062.396-.444.377-.723.366-.135 2.14.444 2.547.545.814.111.427-.542.225-.643-.322-.159-.661-.349-1.012-.473-.475-.167-.962-.281-1.427-.488-1.304-.045-1.784-3.322-1.7-3.518M13.775 35.079c-.004.664-.323 2.8-.484 3.145-.392.845-1.769.443-2.396.989-.488.425.152.545.505.51.385-.038.755-.207 1.122-.33.161-.054.315-.15.395.017.09.188-.109.389.132.525.432.242.651-.248.682-.568.012-.128-.023-.156.071-.219.073-.05.254-.032.341-.023.23.022.48.097.687.203.396.204.611.473 1.1.479.701.008.027-.727-.29-.875-1.755-.62-1.083-2.908-.766-3.984"/><path fill="#f4d038" d="M26.758 15.633c.552.429 1.763.062 2.376-.106 1.09-.3 1.717-.967 2.465-1.782.694-.758 1.095-1.682 1.384-2.662.156-.527.234-1.07.24-1.624.002-.29-.055-.691.022-.95.152.377.397.53.44.956.032.339-.017.702-.095 1.012.136-.24.178-.526.291-.77.416.582-.016 1.13-.168 1.695.354-.322.92-.796.894-1.332.14.482.268.93.174 1.44-.088.482-.447.866-.56 1.31.34-.182.608-.455.775-.805.068.664-.364 1.164-.676 1.703.234-.09.48-.184.711-.284.024.335-.275.83-.453 1.105.444-.127.895-.277 1.22-.642.051.799-.905 1.335-1.22 1.963.192-.105.421-.156.621-.257.307-.154.53-.431.788-.628.072.526-.613 1.189-.926 1.548-.43.495-1.069.805-1.639 1.082.388.03.858.024 1.223-.112-.423.528-1 .857-1.679.91.197.027.43.329.417.52-.374.154-1.01.196-1.402.077.637.647-.734.43-1.072.206.15.16.366.395.137.558-.278.198-.665-.206-.886-.33.012.225.084.325-.11.462-.25.177-.543 0-.689-.197-.1.273-.52.059-.69-.073-.517-.401-.434-.965-.758-1.454"/><path fill="#fee05f" d="M29.233 25.963c-.024.061-.045.12-.072.182a.852.852 0 0 0 .072-.182z"/><path fill="#fee05f" d="M12.605 15.295a.742.742 0 0 0-.066.362c-.142-.252-.087-.547-.103-.824-.172.122-.205.416-.2.611-.13-.126-.198-.499-.184-.682-.098.05-.138.165-.194.248-.056-.197-.05-.385-.08-.58-.038-.236-.102-.46-.117-.702-.022-.368.02-.736.126-1.089.08-.266.2-.515.323-.763.048-.097.204-.315.17-.432-.002-.005-1.58-5.476 3.595-8.278.368-.199.526-.958.387-1.385-.15-.463-.649-.65-1.046-.716.498-.138.877-.244 1.245.223.311.394.277.826.27 1.307.172-.58.49-1.178.96-1.564.636-.524 1.39-.733 2.152-.923-.44.15-.885.407-1.232.652-.533.376-.71.826-.992 1.372.354-.48 1.06-.75 1.61-.952.54-.197 1.495-.427 2.044-.19-1.006-.008-2.344.14-2.716 1.216.42-.145.794-.365 1.241-.466.6-.136 1.166-.163 1.78-.157 1.054.01 2.221.425 3.024 1.09-.643-.087-1.263-.392-1.934-.43-.665-.04-1.362-.094-1.946.296.345-.23 1.41.04 1.764.113 1.287.266 2.458.94 3.29 1.965.373.461.672.98.906 1.525.11.258.164.667.384.846.222.181.587.127.845.226.503.193.661.47.986.854a1.113 1.113 0 0 0-.529-.372c.295.387.606.665.784 1.114-.224-.172-.466-.286-.704-.424.165.2.553.611.513.871-.129-.114-.277-.22-.393-.343.124.296.42.577.427.911a9.21 9.21 0 0 0-.394-.316c.065.665.4 1.281.194 1.964-.233-.174-.163-.54-.35-.746-.034.245.073.495.028.747-.055.307-.258.651-.43.9a7.646 7.646 0 0 1-.605.78c-2.187 1.96 2.386 3.103 2.576 8.915.17.43.171.882.206 1.337.028.38.15.873.092 1.245-.154-.298-.26-.555-.49-.81-.039-.043-.089-.088-.134-.137.135.381.248.751.235 1.18-.002-.432-.42-.746-.522-1.139.218.824.131 1.45-.169 2.217.09-.31.033-.699-.035-.988.028.974.451 4.871-4.808 7.387-.527.547-.214 1.55-.7 2.21-.467.635-1.318.943-2.012.394-.388-.307-1-1.102-1.018-1.615-.68 1.013-3.066.75-3.855.126-.18.488-.51.94-.82 1.357-.414.553-1.09.856-1.758.578-.709-.295-.762-.854-.98-1.5-.229-.669-.959-1.358-1.592-1.625-.748-.315-1.39-.869-1.915-1.474.004.245.31.595.495.71-.358-.17-.849-.439-1.187-.713-.439-.354-1.112-1.013-1.25-1.579-.189.396.028.928.32 1.23-.782-.484-1.027-1.502-1.087-2.329-.13.232-.2.543-.197.824-.119-.227-.269-.484-.294-.764-.028-.32.127-.637.097-.95-.51.264-.555.862-.629 1.376-.145-.612-.099-1.23-.129-1.863-.37.396-.503.87-.68 1.37-.074-1.099.09-1.823.972-2.496-.207.14-.41.341-.606.515.535-.87 1.102-1.36 2.161-1.446 2.841-4.26 6.182-5.272 6.494-6.897.217-.404.422-1.062.39-1.594-.062-.038-.127-.073-.185-.115-.139-.102-.325-.377-.52-.319-.328.098-.303.693-.309.94-.218-.178-.25-.583-.265-.846-.132.126-.187.338-.198.523a.772.772 0 0 1-.197-.457c-.03.05-.088.083-.118.155-.067-.265-.103-.544-.172-.804"/><path fill="#fee05f" d="M19.845.11l.44-.11a2.442 2.442 0 0 0-.44.11z"/><path fill="#f4d038" d="M13.525 18.366c-.285.185-.616.305-.845.556.386.33.157.327-.226.572-.28.178-.39.324-.561.591-.456.707-1.277 1.26-2.004 1.675a7.89 7.89 0 0 1-3.048.996 5.588 5.588 0 0 1-1.55-.006c-.456-.07-.855-.292-1.283-.384.174.612.857.924 1.445.957-.084.158-.303.201-.431.322.219.44 1.168.436 1.577.43-.233.127-.554.201-.74.39.378.204.81.171 1.23.171a3.753 3.753 0 0 0-1.095.196c.366.4 1.614.547 2.09.33-.281-.01-.67.227-.877.407.68.416 1.846.272 2.534-.095-.284.23-.586.498-.853.738.65.042 1.24-.092 1.844-.316.42-.155.939-.295 1.192-.69-.14.233-.443.411-.53.652.329.161 1.069-.329 1.359-.496.385-.222.747-.436 1.054-.758 1.074-1.126 1.886-2.93 1.962-4.484.036-.726-.126-1.707-.74-2.192-.593-.469-1.721-.23-2.06.457.145.036.419.07.556-.019z"/><path fill="#f89c44" d="M21.249 10.93c-.733.796-1.764.728-2.74.593l-1.153-.066c.255-.033 1.066.782 1.352.99.455.33.915.647 1.459.751.462.088 1.134.253 1.55-.05.372-.274.615-.912.784-1.328.288-.71.258-1.546.623-2.236-.8.01-1.397.827-1.875 1.346z"/><ellipse cx="16.506" cy="9.209" rx=".57" ry=".792" fill="#304454" transform="rotate(-8.893 16.506 9.21)"/><ellipse cx="23.163" cy="7.812" rx=".57" ry=".792" fill="#304454" transform="rotate(-8.893 23.163 7.812)"/><path fill="#d14e3f" d="M18.213 11.655c.908.228 1.86 1.538 2.87 1.12.821-.34 1.24-1.926 1.476-2.703.024-.082.065-.154.103-.228-.788.273-1.223.978-1.844 1.457-.294.227-.728.31-1.089.347-.407.04-.613-.111-.988-.191"/><path fill="#f89c44" d="M17.215 11.462v-.033c.56.172 1.17.208 1.748.331.126.027.27.06.423.09.407.082.876.152 1.226.073.468-.104.787-.575 1.046-.963.25-.372.506-.633.835-.877.215-.159.466-.285.63-.502-.146-.226-.495-.173-.73-.139-.33.05-.529.085-.858-.017-.368-.115-.69-.272-1.049-.332-.87-.144-1.432.425-1.893 1.08-.152.217-.345.374-.542.52-.2.148-.405.286-.579.464-.095.098-.157.205-.257.305zM61.976 35.079c.398.141.964 2.361 1.165 2.86.148.363.213.726-.286.79-.292.037-1.03-.099-.99.418.045.552 1.459.189 1.787.346.237.113.287.407.567.446.45.062.396-.444.377-.723.366-.135 2.14.444 2.547.545.814.111.427-.542.225-.643-.322-.159-.661-.349-1.012-.473-.475-.167-.962-.281-1.427-.488-1.304-.045-1.784-3.322-1.7-3.518M53.775 35.079c-.004.664-.323 2.8-.484 3.145-.392.845-1.769.443-2.396.989-.488.425.152.545.505.51.385-.038.755-.207 1.122-.33.161-.054.315-.15.395.017.09.188-.109.389.132.525.432.242.651-.248.682-.568.012-.128-.023-.156.071-.219.073-.05.254-.032.341-.023.23.022.48.097.687.203.396.204.611.473 1.1.479.701.008.027-.727-.29-.875-1.755-.62-1.083-2.908-.766-3.984"/><path fill="#f4d038" d="M66.758 15.633c.552.429 1.763.062 2.376-.106 1.09-.3 1.717-.967 2.465-1.782.694-.758 1.095-1.682 1.384-2.662.156-.527.234-1.07.24-1.624.002-.29-.055-.691.022-.95.152.377.397.53.44.956.032.339-.017.702-.095 1.012.136-.24.178-.526.291-.77.416.582-.016 1.13-.168 1.695.354-.322.92-.796.894-1.332.14.482.268.93.174 1.44-.088.482-.447.866-.56 1.31.34-.182.608-.455.775-.805.068.664-.364 1.164-.676 1.703.234-.09.48-.184.711-.284.024.335-.275.83-.453 1.105.444-.127.895-.277 1.22-.642.051.799-.905 1.335-1.22 1.963.192-.105.421-.156.621-.257.307-.154.53-.431.788-.628.072.526-.613 1.189-.926 1.548-.43.495-1.069.805-1.639 1.082.388.03.858.024 1.223-.112-.423.528-1 .857-1.679.91.197.027.43.329.417.52-.374.154-1.01.196-1.402.077.637.647-.734.43-1.072.206.15.16.366.395.137.558-.278.198-.665-.206-.886-.33.012.225.084.325-.11.462-.25.177-.543 0-.689-.197-.1.273-.52.059-.69-.073-.517-.401-.434-.965-.758-1.454"/><path fill="#fee05f" d="M69.233 25.963c-.024.061-.045.12-.072.182a.852.852 0 0 0 .072-.182z"/><path fill="#fee05f" d="M52.605 15.295a.742.742 0 0 0-.066.362c-.142-.252-.087-.547-.103-.824-.172.122-.205.416-.2.611-.13-.126-.198-.499-.184-.682-.098.05-.138.165-.194.248-.056-.197-.05-.385-.08-.58-.038-.236-.102-.46-.117-.702-.022-.368.02-.736.126-1.089.08-.266.2-.515.323-.763.048-.097.204-.315.17-.432-.002-.005-1.58-5.476 3.595-8.278.368-.199.526-.958.387-1.385-.15-.463-.649-.65-1.046-.716.498-.138.877-.244 1.245.223.311.394.277.826.27 1.307.172-.58.49-1.178.96-1.564.636-.524 1.39-.733 2.152-.923-.44.15-.885.407-1.232.652-.533.376-.71.826-.992 1.372.354-.48 1.06-.75 1.61-.952.54-.197 1.495-.427 2.044-.19-1.006-.008-2.344.14-2.716 1.216.42-.145.794-.365 1.241-.466.6-.136 1.166-.163 1.78-.157 1.054.01 2.221.425 3.024 1.09-.643-.087-1.263-.392-1.934-.43-.665-.04-1.362-.094-1.946.296.345-.23 1.41.04 1.764.113 1.287.266 2.458.94 3.29 1.965.373.461.672.98.906 1.525.11.258.164.667.384.846.222.181.587.127.845.226.503.193.661.47.986.854a1.113 1.113 0 0 0-.529-.372c.295.387.606.665.784 1.114-.224-.172-.466-.286-.704-.424.165.2.553.611.513.871-.129-.114-.277-.22-.393-.343.124.296.42.577.427.911a9.21 9.21 0 0 0-.394-.316c.065.665.4 1.281.194 1.964-.233-.174-.163-.54-.35-.746-.034.245.073.495.028.747-.055.307-.258.651-.43.9a7.646 7.646 0 0 1-.605.78c-2.187 1.96 2.386 3.103 2.576 8.915.17.43.171.882.206 1.337.028.38.15.873.092 1.245-.154-.298-.26-.555-.49-.81-.039-.043-.089-.088-.134-.137.135.381.248.751.235 1.18-.002-.432-.42-.746-.522-1.139.218.824.131 1.45-.169 2.217.09-.31.033-.699-.035-.988.028.974.451 4.871-4.808 7.387-.527.547-.214 1.55-.7 2.21-.467.635-1.318.943-2.012.394-.388-.307-1-1.102-1.018-1.615-.68 1.013-3.066.75-3.855.126-.18.488-.51.94-.82 1.357-.414.553-1.09.856-1.758.578-.709-.295-.762-.854-.98-1.5-.229-.669-.959-1.358-1.592-1.625-.748-.315-1.39-.869-1.915-1.474.004.245.31.595.495.71-.358-.17-.849-.439-1.187-.713-.439-.354-1.112-1.013-1.25-1.579-.189.396.028.928.32 1.23-.782-.484-1.027-1.502-1.087-2.329-.13.232-.2.543-.197.824-.119-.227-.269-.484-.294-.764-.028-.32.127-.637.097-.95-.51.264-.555.862-.629 1.376-.145-.612-.099-1.23-.129-1.863-.37.396-.503.87-.68 1.37-.074-1.099.09-1.823.972-2.496-.207.14-.41.341-.606.515.535-.87 1.102-1.36 2.161-1.446 2.841-4.26 6.182-5.272 6.494-6.897.217-.404.422-1.062.39-1.594-.062-.038-.127-.073-.185-.115-.139-.102-.325-.377-.52-.319-.328.098-.303.693-.309.94-.218-.178-.25-.583-.265-.846-.132.126-.187.338-.198.523a.772.772 0 0 1-.197-.457c-.03.05-.088.083-.118.155-.067-.265-.103-.544-.172-.804"/><path fill="#fee05f" d="M59.845.11l.44-.11a2.442 2.442 0 0 0-.44.11z"/><path fill="#f4d038" d="M53.525 18.366c-.285.185-.616.305-.845.556.386.33.157.327-.226.572-.28.178-.39.324-.561.591-.456.707-1.277 1.26-2.004 1.675a7.89 7.89 0 0 1-3.048.996 5.588 5.588 0 0 1-1.55-.006c-.456-.07-.855-.292-1.283-.384.174.612.857.924 1.445.957-.084.158-.303.201-.431.322.219.44 1.168.436 1.577.43-.233.127-.554.201-.74.39.378.204.81.171 1.23.171a3.753 3.753 0 0 0-1.095.196c.366.4 1.614.547 2.09.33-.281-.01-.67.227-.877.407.68.416 1.846.272 2.534-.095-.284.23-.586.498-.853.738.65.042 1.24-.092 1.844-.316.42-.155.939-.295 1.192-.69-.14.233-.443.411-.53.652.329.161 1.069-.329 1.359-.496.385-.222.747-.436 1.054-.758 1.074-1.126 1.886-2.93 1.962-4.484.036-.726-.126-1.707-.74-2.192-.593-.469-1.721-.23-2.06.457.145.036.419.07.556-.019z"/><path fill="#f89c44" d="M61.249 10.93c-.733.796-1.764.728-2.74.593l-1.153-.066c.255-.033 1.066.782 1.352.99.455.33.915.647 1.459.751.462.088 1.134.253 1.55-.05.372-.274.615-.912.784-1.328.288-.71.258-1.546.623-2.236-.8.01-1.397.827-1.875 1.346z"/><ellipse cx="56.506" cy="9.209" rx=".57" ry=".792" fill="#304454" transform="rotate(-8.893 56.506 9.21)"/><ellipse cx="63.163" cy="7.812" rx=".57" ry=".792" fill="#304454" transform="rotate(-8.893 63.163 7.812)"/><path fill="#d14e3f" d="M58.213 11.655c.908.228 1.86 1.538 2.87 1.12.821-.34 1.24-1.926 1.476-2.703.024-.082.065-.154.103-.228-.788.273-1.223.978-1.844 1.457-.294.227-.728.31-1.089.347-.407.04-.613-.111-.988-.191"/><path fill="#f89c44" d="M57.215 11.462v-.033c.56.172 1.17.208 1.748.331.126.027.27.06.423.09.407.082.876.152 1.226.073.468-.104.787-.575 1.046-.963.25-.372.506-.633.835-.877.215-.159.466-.285.63-.502-.146-.226-.495-.173-.73-.139-.33.05-.529.085-.858-.017-.368-.115-.69-.272-1.049-.332-.87-.144-1.432.425-1.893 1.08-.152.217-.345.374-.542.52-.2.148-.405.286-.579.464-.095.098-.157.205-.257.305zM101.976 35.079c.398.141.964 2.361 1.165 2.86.148.363.213.726-.286.79-.292.037-1.03-.099-.989.418.044.552 1.458.189 1.786.346.237.113.287.407.567.446.45.062.396-.444.377-.723.366-.135 2.14.444 2.547.545.814.111.427-.542.225-.643-.322-.159-.661-.349-1.012-.473-.475-.167-.962-.281-1.427-.488-1.304-.045-1.784-3.322-1.699-3.518M93.775 35.079c-.004.664-.323 2.8-.484 3.145-.392.845-1.769.443-2.396.989-.488.425.152.545.505.51.385-.038.755-.207 1.122-.33.161-.054.315-.15.395.017.09.188-.109.389.132.525.432.242.651-.248.682-.568.012-.128-.023-.156.071-.219.073-.05.254-.032.341-.023.23.022.48.097.687.203.396.204.611.473 1.1.479.701.008.027-.727-.29-.875-1.755-.62-1.083-2.908-.766-3.984"/><path fill="#f4d038" d="M106.758 15.633c.552.429 1.763.062 2.376-.106 1.09-.3 1.717-.967 2.465-1.782.694-.758 1.095-1.682 1.384-2.662.156-.527.234-1.07.239-1.624.003-.29-.054-.691.023-.95.152.377.397.53.439.956.033.339-.016.702-.094 1.012.136-.24.178-.526.291-.77.416.582-.016 1.13-.168 1.695.354-.322.919-.796.894-1.332.139.482.268.93.174 1.44-.088.482-.447.866-.56 1.31.34-.182.608-.455.775-.805.068.664-.364 1.164-.676 1.703.234-.09.48-.184.711-.284.024.335-.275.83-.453 1.105.444-.127.895-.277 1.219-.642.052.799-.904 1.335-1.22 1.963.193-.105.422-.156.622-.257.307-.154.53-.431.788-.628.072.526-.613 1.189-.926 1.548-.431.495-1.069.805-1.639 1.082.388.03.858.024 1.223-.112-.423.528-1.001.857-1.679.91.197.027.429.329.417.52-.374.154-1.011.196-1.402.077.637.647-.734.43-1.072.206.15.16.366.395.137.558-.278.198-.665-.206-.886-.33.012.225.084.325-.111.462-.25.177-.542 0-.688-.197-.101.273-.52.059-.69-.073-.517-.401-.434-.965-.758-1.454"/><path fill="#fee05f" d="M109.233 25.963c-.024.061-.045.12-.072.182a.852.852 0 0 0 .072-.182z"/><path fill="#fee05f" d="M92.605 15.295a.742.742 0 0 0-.066.362c-.142-.252-.087-.547-.103-.824-.172.122-.205.416-.2.611-.13-.126-.198-.499-.184-.682-.098.05-.138.165-.194.248-.056-.197-.05-.385-.08-.58-.038-.236-.102-.46-.117-.702-.022-.368.02-.736.126-1.089.08-.266.2-.515.323-.763.048-.097.204-.315.17-.432-.002-.005-1.58-5.476 3.595-8.278.368-.199.526-.958.387-1.385-.15-.463-.649-.65-1.046-.716.498-.138.877-.244 1.245.223.311.394.277.826.27 1.307.172-.58.49-1.178.96-1.564.636-.524 1.39-.733 2.152-.923-.44.15-.885.407-1.232.652-.533.376-.71.826-.992 1.372.354-.48 1.06-.75 1.61-.952.54-.197 1.495-.427 2.044-.19-1.006-.008-2.344.14-2.716 1.216.42-.145.794-.365 1.241-.466.599-.136 1.166-.163 1.78-.157 1.054.01 2.221.425 3.024 1.09-.643-.087-1.263-.392-1.934-.43-.665-.04-1.362-.094-1.946.296.345-.23 1.41.04 1.764.113 1.287.266 2.458.94 3.289 1.965.374.461.673.98.907 1.525.11.258.164.667.384.846.222.181.587.127.845.226.503.193.661.47.986.854a1.113 1.113 0 0 0-.529-.372c.295.387.606.665.784 1.114-.224-.172-.466-.286-.704-.424.165.2.553.611.513.871-.129-.114-.277-.22-.393-.343.124.296.419.577.427.911a9.21 9.21 0 0 0-.394-.316c.065.665.4 1.281.194 1.964-.233-.174-.163-.54-.351-.746-.033.245.074.495.029.747-.055.307-.258.651-.431.9a7.646 7.646 0 0 1-.604.78c-2.187 1.96 2.386 3.103 2.576 8.915.17.43.171.882.206 1.337.028.38.149.873.092 1.245-.154-.298-.261-.555-.491-.81-.038-.043-.088-.088-.133-.137.135.381.248.751.235 1.18-.002-.432-.421-.746-.522-1.139.218.824.131 1.45-.169 2.217.089-.31.033-.699-.035-.988.028.974.451 4.871-4.808 7.387-.527.547-.214 1.55-.7 2.21-.467.635-1.318.943-2.012.394-.388-.307-1-1.102-1.018-1.615-.68 1.013-3.066.75-3.855.126-.18.488-.51.94-.82 1.357-.414.553-1.09.856-1.758.578-.709-.295-.762-.854-.98-1.5-.229-.669-.959-1.358-1.592-1.625-.748-.315-1.39-.869-1.915-1.474.004.245.31.595.495.71-.358-.17-.849-.439-1.187-.713-.439-.354-1.112-1.013-1.25-1.579-.189.396.028.928.32 1.23-.782-.484-1.027-1.502-1.087-2.329-.13.232-.2.543-.197.824-.119-.227-.269-.484-.294-.764-.028-.32.127-.637.097-.95-.51.264-.555.862-.629 1.376-.145-.612-.099-1.23-.129-1.863-.37.396-.503.87-.68 1.37-.074-1.099.09-1.823.972-2.496-.207.14-.41.341-.606.515.535-.87 1.102-1.36 2.161-1.446 2.841-4.26 6.182-5.272 6.494-6.897.217-.404.422-1.062.39-1.594-.062-.038-.127-.073-.185-.115-.139-.102-.325-.377-.52-.319-.328.098-.303.693-.309.94-.218-.178-.25-.583-.265-.846-.132.126-.187.338-.198.523a.772.772 0 0 1-.197-.457c-.03.05-.088.083-.118.155-.067-.265-.103-.544-.172-.804"/><path fill="#fee05f" d="M99.845.11l.44-.11a2.446 2.446 0 0 0-.44.11z"/><path fill="#f4d038" d="M93.525 18.366c-.285.185-.616.305-.845.556.386.33.157.327-.226.572-.28.178-.39.324-.561.591-.456.707-1.277 1.26-2.004 1.675a7.89 7.89 0 0 1-3.048.996 5.588 5.588 0 0 1-1.55-.006c-.456-.07-.855-.292-1.283-.384.174.612.857.924 1.445.957-.084.158-.303.201-.431.322.219.44 1.168.436 1.577.43-.233.127-.554.201-.74.39.378.204.81.171 1.23.171a3.753 3.753 0 0 0-1.095.196c.366.4 1.614.547 2.09.33-.281-.01-.67.227-.877.407.68.416 1.846.272 2.534-.095-.284.23-.586.498-.853.738.65.042 1.24-.092 1.844-.316.42-.155.939-.295 1.192-.69-.14.233-.443.411-.53.652.329.161 1.069-.329 1.359-.496.385-.222.747-.436 1.054-.758 1.074-1.126 1.886-2.93 1.962-4.484.036-.726-.126-1.707-.74-2.192-.593-.469-1.721-.23-2.06.457.145.036.419.07.556-.019z"/><path fill="#f89c44" d="M101.249 10.93c-.733.796-1.764.728-2.74.593l-1.153-.066c.255-.033 1.066.782 1.352.99.455.33.915.647 1.459.751.462.088 1.134.253 1.55-.05.372-.274.615-.912.784-1.328.288-.71.258-1.546.623-2.236-.8.01-1.397.827-1.875 1.346z"/><ellipse cx="96.506" cy="9.209" rx=".57" ry=".792" fill="#304454" transform="rotate(-8.893 96.506 9.21)"/><ellipse cx="103.163" cy="7.812" rx=".57" ry=".792" fill="#304454" transform="rotate(-8.893 103.163 7.812)"/><path fill="#d14e3f" d="M98.213 11.655c.908.228 1.859 1.538 2.869 1.12.822-.34 1.241-1.926 1.477-2.703.024-.082.065-.154.103-.228-.788.273-1.223.978-1.844 1.457-.294.227-.728.31-1.089.347-.407.04-.613-.111-.988-.191"/><path fill="#f89c44" d="M97.215 11.462v-.033c.56.172 1.17.208 1.748.331.126.027.27.06.423.09.407.082.876.152 1.226.073.468-.104.787-.575 1.046-.963.249-.372.506-.633.835-.877.215-.159.466-.285.63-.502-.146-.226-.495-.173-.73-.139-.33.05-.529.085-.858-.017-.368-.115-.69-.272-1.049-.332-.87-.144-1.432.425-1.893 1.08-.152.217-.345.374-.542.52-.2.148-.405.286-.579.464-.095.098-.157.205-.257.305zM141.976 35.079c.398.141.964 2.361 1.165 2.86.148.363.213.726-.286.79-.292.037-1.03-.099-.989.418.044.552 1.458.189 1.786.346.237.113.287.407.567.446.45.062.396-.444.377-.723.366-.135 2.14.444 2.547.545.814.111.427-.542.225-.643-.322-.159-.661-.349-1.012-.473-.475-.167-.962-.281-1.427-.488-1.304-.045-1.784-3.322-1.699-3.518M133.775 35.079c-.004.664-.323 2.8-.484 3.145-.392.845-1.769.443-2.396.989-.488.425.152.545.505.51.385-.038.755-.207 1.122-.33.161-.054.315-.15.395.017.09.188-.109.389.132.525.432.242.651-.248.682-.568.012-.128-.023-.156.071-.219.073-.05.254-.032.341-.023.23.022.48.097.687.203.396.204.611.473 1.099.479.702.008.028-.727-.29-.875-1.754-.62-1.082-2.908-.765-3.984"/><path fill="#f4d038" d="M146.758 15.633c.552.429 1.763.062 2.376-.106 1.09-.3 1.717-.967 2.465-1.782.694-.758 1.095-1.682 1.384-2.662.156-.527.234-1.07.239-1.624.003-.29-.054-.691.023-.95.152.377.397.53.439.956.033.339-.016.702-.094 1.012.136-.24.178-.526.291-.77.416.582-.016 1.13-.168 1.695.354-.322.919-.796.894-1.332.139.482.268.93.174 1.44-.088.482-.447.866-.56 1.31.34-.182.608-.455.775-.805.068.664-.364 1.164-.676 1.703.234-.09.48-.184.711-.284.024.335-.275.83-.453 1.105.444-.127.895-.277 1.219-.642.052.799-.904 1.335-1.22 1.963.193-.105.422-.156.622-.257.307-.154.53-.431.788-.628.072.526-.613 1.189-.926 1.548-.431.495-1.069.805-1.639 1.082.388.03.858.024 1.223-.112-.423.528-1.001.857-1.679.91.197.027.429.329.417.52-.374.154-1.011.196-1.402.077.637.647-.734.43-1.072.206.15.16.366.395.137.558-.278.198-.665-.206-.886-.33.012.225.084.325-.111.462-.25.177-.542 0-.688-.197-.101.273-.52.059-.69-.073-.517-.401-.434-.965-.758-1.454"/><path fill="#fee05f" d="M149.233 25.963c-.024.061-.045.12-.072.182a.852.852 0 0 0 .072-.182z"/><path fill="#fee05f" d="M132.605 15.295a.742.742 0 0 0-.066.362c-.142-.252-.087-.547-.103-.824-.172.122-.205.416-.2.611-.131-.126-.198-.499-.184-.682-.098.05-.138.165-.194.248-.056-.197-.051-.385-.081-.58-.037-.236-.101-.46-.116-.702-.022-.368.02-.736.126-1.089.08-.266.199-.515.323-.763.048-.097.204-.315.17-.432-.002-.005-1.58-5.476 3.595-8.278.368-.199.526-.958.387-1.385-.15-.463-.649-.65-1.046-.716.498-.138.877-.244 1.245.223.311.394.277.826.269 1.307.173-.58.491-1.178.96-1.564.637-.524 1.39-.733 2.153-.923-.44.15-.885.407-1.232.652-.533.376-.711.826-.992 1.372.354-.48 1.06-.75 1.609-.952.54-.197 1.496-.427 2.045-.19-1.006-.008-2.344.14-2.716 1.216.419-.145.794-.365 1.241-.466.599-.136 1.166-.163 1.78-.157 1.054.01 2.221.425 3.024 1.09-.643-.087-1.263-.392-1.934-.43-.665-.04-1.362-.094-1.946.296.345-.23 1.41.04 1.764.113 1.287.266 2.458.94 3.289 1.965.374.461.673.98.907 1.525.11.258.164.667.384.846.222.181.587.127.845.226.503.193.661.47.986.854a1.113 1.113 0 0 0-.529-.372c.295.387.606.665.784 1.114-.224-.172-.466-.286-.704-.424.165.2.553.611.513.871-.129-.114-.277-.22-.393-.343.124.296.419.577.427.911a9.21 9.21 0 0 0-.394-.316c.065.665.4 1.281.194 1.964-.233-.174-.163-.54-.351-.746-.033.245.074.495.029.747-.055.307-.258.651-.431.9a7.646 7.646 0 0 1-.604.78c-2.187 1.96 2.386 3.103 2.576 8.915.17.43.171.882.206 1.337.028.38.149.873.092 1.245-.154-.298-.261-.555-.491-.81-.038-.043-.088-.088-.133-.137.135.381.248.751.235 1.18-.002-.432-.421-.746-.522-1.139.218.824.131 1.45-.169 2.217.089-.31.033-.699-.035-.988.028.974.451 4.871-4.808 7.387-.527.547-.214 1.55-.7 2.21-.467.635-1.318.943-2.012.394-.388-.307-1-1.102-1.018-1.615-.68 1.013-3.066.75-3.855.126-.18.488-.511.94-.821 1.357-.413.553-1.089.856-1.757.578-.709-.295-.762-.854-.981-1.5-.228-.669-.958-1.358-1.591-1.625-.748-.315-1.391-.869-1.915-1.474.004.245.31.595.495.71-.358-.17-.849-.439-1.187-.713-.439-.354-1.112-1.013-1.25-1.579-.189.396.028.928.319 1.23-.781-.484-1.026-1.502-1.086-2.329-.13.232-.201.543-.197.824-.119-.227-.269-.484-.294-.764-.028-.32.127-.637.097-.95-.51.264-.555.862-.629 1.376-.145-.612-.099-1.23-.129-1.863-.37.396-.503.87-.681 1.37-.073-1.099.091-1.823.973-2.496-.207.14-.411.341-.606.515.535-.87 1.102-1.36 2.161-1.446 2.841-4.26 6.182-5.272 6.494-6.897.217-.404.422-1.062.389-1.594-.061-.038-.126-.073-.184-.115-.139-.102-.325-.377-.52-.319-.328.098-.303.693-.309.94-.218-.178-.251-.583-.265-.846-.132.126-.187.338-.198.523a.772.772 0 0 1-.197-.457c-.031.05-.088.083-.118.155-.067-.265-.103-.544-.172-.804"/><path fill="#fee05f" d="M139.845.11l.44-.11a2.442 2.442 0 0 0-.44.11z"/><path fill="#f4d038" d="M133.525 18.366c-.285.185-.616.305-.845.556.386.33.157.327-.226.572-.28.178-.389.324-.561.591-.456.707-1.277 1.26-2.004 1.675a7.89 7.89 0 0 1-3.048.996 5.588 5.588 0 0 1-1.55-.006c-.456-.07-.855-.292-1.283-.384.174.612.857.924 1.445.957-.084.158-.303.201-.431.322.219.44 1.168.436 1.577.43-.233.127-.554.201-.739.39.377.204.81.171 1.229.171a3.753 3.753 0 0 0-1.095.196c.366.4 1.614.547 2.091.33-.282-.01-.671.227-.878.407.681.416 1.846.272 2.534-.095-.284.23-.586.498-.853.738.65.042 1.24-.092 1.844-.316.421-.155.939-.295 1.192-.69-.139.233-.443.411-.529.652.328.161 1.068-.329 1.358-.496.385-.222.747-.436 1.054-.758 1.074-1.126 1.886-2.93 1.962-4.484.036-.726-.126-1.707-.74-2.192-.593-.469-1.721-.23-2.059.457.144.036.418.07.555-.019z"/><path fill="#f89c44" d="M141.249 10.93c-.733.796-1.764.728-2.739.593l-1.154-.066c.255-.033 1.066.782 1.352.99.455.33.915.647 1.459.751.462.088 1.134.253 1.55-.05.372-.274.615-.912.784-1.328.288-.71.258-1.546.623-2.236-.8.01-1.397.827-1.875 1.346z"/><ellipse cx="136.506" cy="9.209" rx=".57" ry=".792" fill="#304454" transform="rotate(-8.893 136.506 9.21)"/><ellipse cx="143.163" cy="7.812" rx=".57" ry=".792" fill="#304454" transform="rotate(-8.893 143.163 7.812)"/><path fill="#d14e3f" d="M138.213 11.655c.908.228 1.859 1.538 2.869 1.12.822-.34 1.241-1.926 1.477-2.703.024-.082.065-.154.103-.228-.788.273-1.223.978-1.844 1.457-.294.227-.728.31-1.089.347-.407.04-.613-.111-.988-.191"/><path fill="#f89c44" d="M137.215 11.462v-.033c.559.172 1.169.208 1.748.331.126.027.27.06.423.09.407.082.876.152 1.226.073.468-.104.787-.575 1.046-.963.249-.372.506-.633.835-.877.215-.159.466-.285.63-.502-.146-.226-.495-.173-.73-.139-.33.05-.529.085-.858-.017-.368-.115-.69-.272-1.049-.332-.871-.144-1.432.425-1.893 1.08-.152.217-.345.374-.542.52-.2.148-.405.286-.579.464-.095.098-.157.205-.257.305z"/></svg>
