<svg xmlns="http://www.w3.org/2000/svg" version="1.1" width="50" height="50" viewBox="0 0 50 50"><defs/><path fill="#304454" stroke="none" d="M 13.7007,29.4578 C 12.0947,30.5288 10.3417,31.3018 8.3907,31.8428 C 7.4347,32.1068 6.5547,32.2858 5.5607,32.3528 C 4.7117,32.4098 3.9277,32.2388 3.1227,32.2558 C 3.5947,33.0368 4.9197,33.2358 5.9997,33.0838 C 5.8857,33.3288 5.4977,33.4608 5.2947,33.6708 C 5.8047,34.1988 15.2307,35.3528 16.2777,34.8458 C 17.0067,34.4928 17.9157,34.1278 18.2797,33.5008 C 18.0827,33.8668 17.5737,34.2118 17.4787,34.5718 C 18.1177,34.6828 19.3447,33.7628 19.8297,33.4378 C 20.4777,33.0038 21.0837,32.5908 21.5627,32.0468 C 23.2387,30.1438 24.2667,27.3998 24.0157,25.2438 C 23.8987,24.2368 23.3547,22.9468 22.1127,22.4868 C 20.9147,22.0428 14.9227,28.6438 13.7007,29.4578 Z" transform=""/><path fill="#f89c44" stroke="none" d="M 31.9752,43.6285 C 32.4892,43.8105 33.2212,46.6815 33.4822,47.3255 C 33.6732,47.7965 33.7562,48.2645 33.1122,48.3475 C 32.7342,48.3965 31.7792,48.2195 31.8322,48.8885 C 31.8892,49.6025 33.0502,49.4485 33.4752,49.6515 C 33.7802,49.7975 34.5132,49.8625 34.8742,49.9125 C 35.4552,49.9925 36.8392,50.0115 36.8152,49.6515 C 37.2892,49.4765 38.1292,49.5525 38.6552,49.6835 C 39.7072,49.8265 39.2082,48.9815 38.9462,48.8515 C 38.5292,48.6465 38.0912,48.4005 37.6382,48.2405 C 37.0232,48.0235 36.3942,47.8765 35.7912,47.6085 C 34.1062,47.5515 33.4852,43.3145 33.5942,43.0605" transform=""/><path fill="#f89c44" stroke="none" d="M 21.3713,43.6285 C 21.3663,44.4865 20.9533,47.2485 20.7463,47.6955 C 20.2393,48.7885 18.4583,48.2685 17.6473,48.9735 C 17.0163,49.5235 17.8443,49.6785 18.3013,49.6335 C 18.7983,49.5845 20.1213,49.7315 20.4343,49.9075 C 20.9933,50.2205 22.0553,49.6475 22.1763,49.5655 C 22.2713,49.5015 23.5273,49.7335 24.1583,49.7405 C 25.0653,49.7515 24.1933,48.8015 23.7823,48.6095 C 21.5143,47.8075 22.3833,44.8495 22.7943,43.4585" transform=""/><path fill="#304454" stroke="none" d="M 41.9064,31.7354 C 41.9794,31.2554 41.8244,30.6164 41.7874,30.1254 C 41.7434,29.5374 41.7404,28.9534 41.5214,28.3974 C 41.2754,20.8824 34.9234,22.2354 37.7574,17.3364 C 38.1484,16.4834 38.9704,14.8704 38.3504,11.5814 C 36.7704,3.2074 29.9524,2.8454 29.5054,3.1434 C 30.2614,2.6394 31.1614,2.7074 32.0214,2.7584 C 32.8894,2.8094 33.6914,3.2034 34.5224,3.3164 C 33.4844,2.4564 31.9764,1.9184 30.6124,1.9064 C 29.8184,1.8994 29.0864,1.9334 28.3114,2.1094 C 27.7334,2.2394 27.2484,2.5244 26.7064,2.7124 C 27.1884,1.3194 28.9174,1.1294 30.2184,1.1404 C 29.5094,0.833398 28.2724,1.1304 27.5744,1.3854 C 26.8644,1.6454 25.9514,1.9954 25.4934,2.6164 C 25.8574,1.9104 26.0864,1.3284 26.7754,0.843398 C 27.2254,0.526398 27.7994,0.193398 28.3694,0.000398159 C 27.3824,0.245398 26.4084,0.516398 25.5844,1.1944 C 24.9784,1.6924 24.5674,2.4654 24.3434,3.2164 C 24.3544,2.5934 24.3984,2.0344 23.9964,1.5254 C 23.5194,0.922398 23.0294,1.0574 22.3854,1.2364 C 22.8984,1.3214 23.5444,1.5644 23.7384,2.1634 C 23.9164,2.7154 23.6964,3.6664 23.2374,3.9544 C 13.0904,10.3044 21.1814,20.5324 21.3604,20.6654 C 21.4354,20.7204 21.3754,22.3534 21.0954,22.8754 C 20.6924,24.9764 6.36635,47.1044 28.3574,49.3984 C 35.5994,50.1544 41.5404,44.0984 41.5404,37.5594 C 41.5404,36.0074 40.9834,31.5334 40.7274,30.5634 C 40.8584,31.0724 41.3994,31.4794 41.4024,32.0364 C 41.4194,31.4824 41.2734,31.0034 41.0984,30.5124 C 41.1574,30.5744 41.2214,30.6344 41.2714,30.6894 C 41.5684,31.0184 41.7074,31.3504 41.9064,31.7354 Z" transform=""/><path fill="#304454" stroke="none" d="M 36.454,27.2643 C 36.792,27.7463 37.052,28.3273 37.462,28.6923 C 37.805,27.9133 37.868,28.3343 38.314,28.9843 C 38.639,29.4583 38.873,29.6273 39.289,29.8843 C 40.394,30.5663 41.389,31.9513 42.173,33.1943 C 43.202,34.8263 43.931,36.5983 44.421,38.5623 C 44.662,39.5253 44.817,40.4093 44.859,41.4043 C 44.895,42.2553 44.705,43.0343 44.7,43.8393 C 45.493,43.3873 45.726,42.0683 45.601,40.9843 C 45.843,41.1043 45.966,41.4953 46.17,41.7033 C 47.734,36.9613 47.351,27.0873 38.222,22.7743 C 37.304,22.3413 35.908,23.3763 35.417,24.6063 C 34.943,25.7933 35.596,27.8093 36.64,28.2793 C 36.649,28.0063 36.617,27.4963 36.454,27.2643 Z" transform=""/><path fill="#efefef" stroke="none" d="M 35.8,13.5232 C 35.761,13.1222 35.662,12.7392 35.518,12.3732 C 35.836,11.3582 35.867,10.1252 35.53,8.86915 C 34.806,6.16315 32.667,4.38515 30.755,4.89715 C 29.312,5.28315 28.411,6.86215 28.366,8.77615 C 28.316,8.78015 28.268,8.78015 28.218,8.78515 C 27.799,8.82615 27.393,8.90015 26.999,8.99315 C 26.371,7.52615 25.235,6.54215 23.933,6.54215 C 21.953,6.54215 20.348,8.81215 20.348,11.6132 C 20.348,13.3412 20.96,14.8652 21.893,15.7812 C 22.695,18.3062 25.785,19.9912 29.286,19.6462 C 33.179,19.2642 36.094,16.5232 35.8,13.5232 Z" transform=""/><ellipse cx="24.053720081677547" cy="11.766212747292311" rx="0.736857304306108" ry="1.0241963966551406" fill="#304454" stroke="none" transform="rotate(-8.8934 24.053722012761774 11.76621264866468)" r="NaN"/><ellipse cx="32.662141638646844" cy="9.959325368569193" rx="0.736857304306108" ry="1.0241963966551406" fill="#304454" stroke="none" transform="rotate(-8.8934 32.66214267311622 9.959325718248985)" r="NaN"/><ellipse cx="28.689930386210268" cy="35.7199519544217" rx="13.453815661397647" ry="9.8141871583099" fill="#efefef" stroke="none" transform="rotate(84.3875 28.689929453730826 35.719951093671455)" r="NaN"/><path fill="#f89c44" stroke="none" d="M 30.2818,14.5356 C 29.4638,15.4236 28.3138,15.3486 27.2258,15.1976 L 25.9378,15.1236 C 26.2218,15.0866 27.1268,15.9956 27.4468,16.2276 C 27.9538,16.5956 28.4678,16.9496 29.0748,17.0656 C 29.5898,17.1636 30.3398,17.3486 30.8038,17.0096 C 31.2198,16.7046 31.4908,15.9926 31.6788,15.5286 C 31.9998,14.7346 31.9668,13.8036 32.3738,13.0346 C 31.4808,13.0456 30.8158,13.9566 30.2818,14.5356 Z" transform=""/><path fill="#d14e3f" stroke="none" d="M 26.8942,15.3441 C 27.9072,15.5981 28.9682,17.0601 30.0952,16.5941 C 31.0132,16.2151 31.4802,14.4441 31.7432,13.5781 C 31.7712,13.4861 31.8162,13.4051 31.8592,13.3241 C 30.9792,13.6281 30.4932,14.4151 29.8002,14.9491 C 29.4722,15.2021 28.9882,15.2961 28.5852,15.3361 C 28.1312,15.3801 27.9012,15.2121 27.4832,15.1231" transform=""/><path fill="#f89c44" stroke="none" d="M 25.7813,15.1291 L 25.7813,15.0921 C 26.4053,15.2841 27.0853,15.3241 27.7313,15.4621 C 27.8723,15.4921 28.0333,15.5281 28.2033,15.5621 C 28.6583,15.6541 29.1803,15.7311 29.5713,15.6441 C 30.0943,15.5271 30.4493,15.0011 30.7393,14.5681 C 31.0163,14.1541 31.3033,13.8631 31.6713,13.5911 C 31.9103,13.4131 32.1903,13.2731 32.3733,13.0301 C 32.2103,12.7791 31.8203,12.8371 31.5583,12.8761 C 31.1903,12.9311 30.9683,12.9701 30.6023,12.8561 C 30.1903,12.7281 29.8313,12.5521 29.4313,12.4861 C 28.4593,12.3251 27.8333,12.9601 27.3193,13.6911 C 27.1493,13.9331 26.9343,14.1081 26.7143,14.2711 C 26.4913,14.4361 26.2623,14.5901 26.0683,14.7891 C 25.9613,14.8981 25.8913,15.0181 25.7813,15.1291 Z" transform=""/></svg>