<svg xmlns="http://www.w3.org/2000/svg" version="1.1" width="250" height="62.5" viewBox="0 0 250 62.5"><defs/><path fill="#d14e3f" stroke="none" d="M 11.7366,45.7807 S 13.3366,43.1727 14.3446,42.2247 C 18.1386,38.6087 21.8136,38.3127 21.8136,38.3127 S 22.4656,36.1187 20.5686,34.5777 C 20.2126,34.2817 19.6206,34.1037 18.9676,34.0447 C 18.9096,33.9857 18.7316,33.9257 18.6126,33.8667 C 18.3756,33.8077 18.1376,33.9267 18.0196,34.0447 C 17.9016,34.0447 17.7826,34.1037 17.6636,34.1037 C 17.4866,33.9857 17.1896,33.8667 16.7746,34.0447 C 16.1816,34.1637 15.9446,34.5197 15.8266,34.6377 C 15.7666,34.6967 15.7076,34.6967 15.7076,34.6967 C 15.5896,34.5777 15.3516,34.3417 14.7596,34.6967 C 14.2846,34.9337 13.9886,35.5857 13.9886,35.5857 L 13.9886,35.5857 S 13.3966,35.6457 13.0996,35.8827 C 12.8036,36.1197 12.6256,36.4757 12.5076,36.5937 L 12.5076,36.5937 C 12.3886,36.6537 11.9146,36.7717 11.4996,37.1277 C 11.0846,37.6017 11.0846,37.7207 11.0846,37.7207 L 11.0846,37.7207 S 10.5516,37.8387 10.0176,38.4907 C 9.48457,39.0837 9.54357,39.2027 9.54357,39.2617 C 9.54357,39.2617 9.54357,39.3207 9.48457,39.3207 C 9.36557,39.3207 8.77257,39.5587 8.29857,40.0917 C 8.00257,39.6767 6.75757,37.9577 5.86857,37.5427 C 5.39457,37.3647 4.92057,37.5427 4.50557,37.7797 C 3.91257,37.6017 3.20057,37.0687 2.54857,35.6457 L -0.000425388,33.3937 C -0.000425388,33.5127 0.0595746,33.6307 0.0595746,33.6907 C 0.296575,35.7057 0.948575,38.6097 2.90457,40.0327 L 2.90457,40.0917 S 2.60857,41.3357 3.67457,41.5147 C 4.32757,41.6327 6.40157,42.6997 6.40157,42.6997 L 7.70557,41.0397 C 7.58657,41.3357 7.64657,41.4547 7.64657,41.5147 C 7.46857,41.7517 7.29057,41.9887 7.11257,42.2257 L 7.17257,42.1067 S 6.99457,41.9887 6.52057,42.7597 C 5.98657,43.4707 6.04557,44.0037 6.04557,44.0037 S 5.92757,44.0037 5.57157,44.5377 C 5.27557,45.1297 5.33557,45.6637 5.33557,45.6637 S 4.97957,46.0787 4.80157,46.4347 C 4.62357,46.7897 4.74257,47.3827 4.74257,47.3827 S 4.20857,47.8567 4.09057,48.3307 C 3.85257,49.2797 4.38657,49.2797 4.38657,49.2797 S 3.97157,49.6357 3.97157,50.4657 C 3.91257,51.2357 4.44557,51.4137 4.44557,51.4137 S 4.08957,51.8287 4.32757,52.3027 C 4.50457,52.7177 5.09757,52.8957 5.09757,52.8957 S 4.97957,53.5477 5.21657,53.7847 C 5.39357,53.9627 5.74957,54.3777 6.16457,54.6147 C 6.34257,54.8517 6.52057,55.0887 6.69757,55.2667 C 8.29857,56.5707 10.0176,55.9187 10.7286,55.5627 C 10.1366,54.8497 9.95857,49.1597 11.7366,45.7807 L 11.7366,45.7807 Z" transform=""/><path fill="#f89c44" stroke="none" d="M 11.7366,45.7807 C 9.95857,49.1597 10.1366,54.8497 10.7296,55.5607 L 10.7886,55.5607 S 23.3546,65.2817 29.6376,57.0427 C 35.9206,48.8627 21.8136,38.3117 21.8136,38.3117 S 18.1386,38.6077 14.3446,42.2237 C 13.3376,43.1727 11.7366,45.7807 11.7366,45.7807 M 11.7366,45.7807 L 11.7366,45.7807 Z" transform=""/><path fill="#d14e3f" stroke="none" d="M 42.9866,45.7807 S 44.5866,43.1727 45.5946,42.2247 C 49.3886,38.6087 53.0636,38.3127 53.0636,38.3127 S 53.7156,36.1187 51.8186,34.5777 C 51.4626,34.2817 50.8706,34.1037 50.2176,34.0447 C 50.1596,33.9857 49.9816,33.9257 49.8626,33.8667 C 49.6256,33.8077 49.3876,33.9267 49.2696,34.0447 C 49.1516,34.0447 49.0326,34.1037 48.9136,34.1037 C 48.7366,33.9857 48.4396,33.8667 48.0246,34.0447 C 47.4316,34.1637 47.1946,34.5197 47.0766,34.6377 C 47.0166,34.6967 46.9576,34.6967 46.9576,34.6967 C 46.8396,34.5777 46.6016,34.3417 46.0096,34.6967 C 45.5346,34.9337 45.2386,35.5857 45.2386,35.5857 L 45.2386,35.5857 S 44.6466,35.6457 44.3496,35.8827 C 44.0536,36.1197 43.8756,36.4757 43.7576,36.5937 L 43.7576,36.5937 C 43.6386,36.6537 43.1646,36.7717 42.7496,37.1277 C 42.3346,37.6017 42.3346,37.7207 42.3346,37.7207 L 42.3346,37.7207 S 41.8016,37.8387 41.2676,38.4907 C 40.7346,39.0837 40.7936,39.2027 40.7936,39.2617 C 40.7936,39.2617 40.7936,39.3207 40.7346,39.3207 C 40.6156,39.3207 40.0226,39.5587 39.5486,40.0917 C 39.2526,39.6767 38.0076,37.9577 37.1186,37.5427 C 36.6446,37.3647 36.1706,37.5427 35.7556,37.7797 C 35.1626,37.6017 34.4506,37.0687 33.7986,35.6457 L 31.2496,33.3937 C 31.2496,33.5127 31.3096,33.6307 31.3096,33.6907 C 31.5466,35.7057 32.1986,38.6097 34.1546,40.0327 L 34.1546,40.0917 S 33.8586,41.3357 34.9246,41.5147 C 35.5776,41.6327 37.6516,42.6997 37.6516,42.6997 L 38.9556,41.0397 C 38.8366,41.3357 38.8966,41.4547 38.8966,41.5147 C 38.7186,41.7517 38.5406,41.9887 38.3626,42.2257 L 38.4226,42.1067 S 38.2446,41.9887 37.7706,42.7597 C 37.2366,43.4707 37.2956,44.0037 37.2956,44.0037 S 37.1776,44.0037 36.8216,44.5377 C 36.5256,45.1297 36.5856,45.6637 36.5856,45.6637 S 36.2296,46.0787 36.0516,46.4347 C 35.8736,46.7897 35.9926,47.3827 35.9926,47.3827 S 35.4586,47.8567 35.3406,48.3307 C 35.1026,49.2797 35.6366,49.2797 35.6366,49.2797 S 35.2216,49.6357 35.2216,50.4657 C 35.1626,51.2357 35.6956,51.4137 35.6956,51.4137 S 35.3396,51.8287 35.5776,52.3027 C 35.7546,52.7177 36.3476,52.8957 36.3476,52.8957 S 36.2296,53.5477 36.4666,53.7847 C 36.6436,53.9627 36.9996,54.3777 37.4146,54.6147 C 37.5926,54.8517 37.7706,55.0887 37.9476,55.2667 C 39.5486,56.5707 41.2676,55.9187 41.9786,55.5627 C 41.3866,54.8497 41.2086,49.1597 42.9866,45.7807 L 42.9866,45.7807 Z" transform=""/><path fill="#f89c44" stroke="none" d="M 42.9866,45.7807 C 41.2086,49.1597 41.3866,54.8497 41.9796,55.5607 L 42.0386,55.5607 S 54.6046,65.2817 60.8876,57.0427 C 67.1706,48.8627 53.0636,38.3117 53.0636,38.3117 S 49.3886,38.6077 45.5946,42.2237 C 44.5876,43.1727 42.9866,45.7807 42.9866,45.7807 L 42.9866,45.7807 Z" transform=""/><path fill="#d14e3f" stroke="none" d="M 74.2366,45.7807 S 75.8366,43.1727 76.8446,42.2247 C 80.6386,38.6087 84.3136,38.3127 84.3136,38.3127 S 84.9656,36.1187 83.0686,34.5777 C 82.7126,34.2817 82.1206,34.1037 81.4676,34.0447 C 81.4096,33.9857 81.2316,33.9257 81.1126,33.8667 C 80.8756,33.8077 80.6376,33.9267 80.5196,34.0447 C 80.4016,34.0447 80.2826,34.1037 80.1636,34.1037 C 79.9866,33.9857 79.6896,33.8667 79.2746,34.0447 C 78.6816,34.1637 78.4446,34.5197 78.3266,34.6377 C 78.2666,34.6967 78.2076,34.6967 78.2076,34.6967 C 78.0896,34.5777 77.8516,34.3417 77.2596,34.6967 C 76.7846,34.9337 76.4886,35.5857 76.4886,35.5857 L 76.4886,35.5857 S 75.8966,35.6457 75.5996,35.8827 C 75.3036,36.1197 75.1256,36.4757 75.0076,36.5937 L 75.0076,36.5937 C 74.8886,36.6537 74.4146,36.7717 73.9996,37.1277 C 73.5846,37.6017 73.5846,37.7207 73.5846,37.7207 L 73.5846,37.7207 S 73.0516,37.8387 72.5176,38.4907 C 71.9846,39.0837 72.0436,39.2027 72.0436,39.2617 C 72.0436,39.2617 72.0436,39.3207 71.9846,39.3207 C 71.8656,39.3207 71.2726,39.5587 70.7986,40.0917 C 70.5026,39.6767 69.2576,37.9577 68.3686,37.5427 C 67.8946,37.3647 67.4206,37.5427 67.0056,37.7797 C 66.4126,37.6017 65.7006,37.0687 65.0486,35.6457 L 62.4996,33.3937 C 62.4996,33.5127 62.5596,33.6307 62.5596,33.6907 C 62.7966,35.7057 63.4486,38.6097 65.4046,40.0327 L 65.4046,40.0917 S 65.1086,41.3357 66.1746,41.5147 C 66.8276,41.6327 68.9016,42.6997 68.9016,42.6997 L 70.2056,41.0397 C 70.0866,41.3357 70.1466,41.4547 70.1466,41.5147 C 69.9686,41.7517 69.7906,41.9887 69.6126,42.2257 L 69.6726,42.1067 S 69.4946,41.9887 69.0206,42.7597 C 68.4866,43.4707 68.5456,44.0037 68.5456,44.0037 S 68.4276,44.0037 68.0716,44.5377 C 67.7756,45.1297 67.8356,45.6637 67.8356,45.6637 S 67.4796,46.0787 67.3016,46.4347 C 67.1236,46.7897 67.2426,47.3827 67.2426,47.3827 S 66.7086,47.8567 66.5906,48.3307 C 66.3526,49.2797 66.8866,49.2797 66.8866,49.2797 S 66.4716,49.6357 66.4716,50.4657 C 66.4126,51.2357 66.9456,51.4137 66.9456,51.4137 S 66.5896,51.8287 66.8276,52.3027 C 67.0046,52.7177 67.5976,52.8957 67.5976,52.8957 S 67.4796,53.5477 67.7166,53.7847 C 67.8936,53.9627 68.2496,54.3777 68.6646,54.6147 C 68.8426,54.8517 69.0206,55.0887 69.1976,55.2667 C 70.7986,56.5707 72.5176,55.9187 73.2286,55.5627 C 72.6366,54.8497 72.4586,49.1597 74.2366,45.7807 L 74.2366,45.7807 Z" transform=""/><path fill="#f89c44" stroke="none" d="M 74.2366,45.7807 C 72.4586,49.1597 72.6366,54.8497 73.2296,55.5607 L 73.2886,55.5607 S 85.8546,65.2817 92.1376,57.0427 C 98.4206,48.8627 84.3136,38.3117 84.3136,38.3117 S 80.6386,38.6077 76.8446,42.2237 C 75.8376,43.1727 74.2366,45.7807 74.2366,45.7807 M 74.2366,45.7807 L 74.2366,45.7807 Z" transform=""/><path fill="#d14e3f" stroke="none" d="M 105.487,45.7807 S 107.087,43.1727 108.095,42.2247 C 111.889,38.6087 115.564,38.3127 115.564,38.3127 S 116.216,36.1187 114.319,34.5777 C 113.963,34.2817 113.371,34.1037 112.718,34.0447 C 112.66,33.9857 112.482,33.9257 112.363,33.8667 C 112.126,33.8077 111.888,33.9267 111.77,34.0447 C 111.652,34.0447 111.533,34.1037 111.414,34.1037 C 111.237,33.9857 110.94,33.8667 110.525,34.0447 C 109.932,34.1637 109.695,34.5197 109.577,34.6377 C 109.517,34.6967 109.458,34.6967 109.458,34.6967 C 109.34,34.5777 109.102,34.3417 108.51,34.6967 C 108.035,34.9337 107.739,35.5857 107.739,35.5857 L 107.739,35.5857 S 107.147,35.6457 106.85,35.8827 C 106.554,36.1197 106.376,36.4757 106.258,36.5937 L 106.258,36.5937 C 106.139,36.6537 105.665,36.7717 105.25,37.1277 C 104.835,37.6017 104.835,37.7207 104.835,37.7207 L 104.835,37.7207 S 104.302,37.8387 103.768,38.4907 C 103.235,39.0837 103.294,39.2027 103.294,39.2617 C 103.294,39.2617 103.294,39.3207 103.235,39.3207 C 103.116,39.3207 102.523,39.5587 102.049,40.0917 C 101.753,39.6767 100.508,37.9577 99.6186,37.5427 C 99.1446,37.3647 98.6706,37.5427 98.2556,37.7797 C 97.6626,37.6017 96.9506,37.0687 96.2986,35.6457 L 93.7496,33.3937 C 93.7496,33.5127 93.8096,33.6307 93.8096,33.6907 C 94.0466,35.7057 94.6986,38.6097 96.6546,40.0327 L 96.6546,40.0917 S 96.3586,41.3357 97.4246,41.5147 C 98.0776,41.6327 100.152,42.6997 100.152,42.6997 L 101.456,41.0397 C 101.337,41.3357 101.397,41.4547 101.397,41.5147 C 101.219,41.7517 101.041,41.9887 100.863,42.2257 L 100.923,42.1067 S 100.745,41.9887 100.271,42.7597 C 99.7366,43.4707 99.7956,44.0037 99.7956,44.0037 S 99.6776,44.0037 99.3216,44.5377 C 99.0256,45.1297 99.0856,45.6637 99.0856,45.6637 S 98.7296,46.0787 98.5516,46.4347 C 98.3736,46.7897 98.4926,47.3827 98.4926,47.3827 S 97.9586,47.8567 97.8406,48.3307 C 97.6026,49.2797 98.1366,49.2797 98.1366,49.2797 S 97.7216,49.6357 97.7216,50.4657 C 97.6626,51.2357 98.1956,51.4137 98.1956,51.4137 S 97.8396,51.8287 98.0776,52.3027 C 98.2546,52.7177 98.8476,52.8957 98.8476,52.8957 S 98.7296,53.5477 98.9666,53.7847 C 99.1436,53.9627 99.4996,54.3777 99.9146,54.6147 C 100.093,54.8517 100.271,55.0887 100.448,55.2667 C 102.049,56.5707 103.768,55.9187 104.479,55.5627 C 103.887,54.8497 103.709,49.1597 105.487,45.7807 M 105.487,45.7807 L 105.487,45.7807 Z" transform=""/><path fill="#f89c44" stroke="none" d="M 105.487,45.7807 C 103.709,49.1597 103.887,54.8497 104.48,55.5607 L 104.539,55.5607 S 117.105,65.2817 123.388,57.0427 C 129.671,48.8627 115.564,38.3117 115.564,38.3117 S 111.889,38.6077 108.095,42.2237 C 107.088,43.1727 105.487,45.7807 105.487,45.7807 M 105.487,45.7807 L 105.487,45.7807 Z" transform=""/><path fill="#d14e3f" stroke="none" d="M 136.737,45.7807 S 138.337,43.1727 139.345,42.2247 C 143.139,38.6087 146.814,38.3127 146.814,38.3127 S 147.466,36.1187 145.569,34.5777 C 145.213,34.2817 144.621,34.1037 143.968,34.0447 C 143.91,33.9857 143.732,33.9257 143.613,33.8667 C 143.376,33.8077 143.138,33.9267 143.02,34.0447 C 142.902,34.0447 142.783,34.1037 142.664,34.1037 C 142.487,33.9857 142.19,33.8667 141.775,34.0447 C 141.182,34.1637 140.945,34.5197 140.827,34.6377 C 140.767,34.6967 140.708,34.6967 140.708,34.6967 C 140.59,34.5777 140.352,34.3417 139.76,34.6967 C 139.285,34.9337 138.989,35.5857 138.989,35.5857 L 138.989,35.5857 S 138.397,35.6457 138.1,35.8827 C 137.804,36.1197 137.626,36.4757 137.508,36.5937 L 137.508,36.5937 C 137.389,36.6537 136.915,36.7717 136.5,37.1277 C 136.085,37.6017 136.085,37.7207 136.085,37.7207 L 136.085,37.7207 S 135.552,37.8387 135.018,38.4907 C 134.485,39.0837 134.544,39.2027 134.544,39.2617 C 134.544,39.2617 134.544,39.3207 134.485,39.3207 C 134.366,39.3207 133.773,39.5587 133.299,40.0917 C 133.003,39.6767 131.758,37.9577 130.869,37.5427 C 130.395,37.3647 129.921,37.5427 129.506,37.7797 C 128.913,37.6017 128.201,37.0687 127.549,35.6457 L 125,33.3937 C 125,33.5127 125.06,33.6307 125.06,33.6907 C 125.297,35.7057 125.949,38.6097 127.905,40.0327 L 127.905,40.0917 S 127.609,41.3357 128.675,41.5147 C 129.328,41.6327 131.402,42.6997 131.402,42.6997 L 132.706,41.0397 C 132.587,41.3357 132.647,41.4547 132.647,41.5147 C 132.469,41.7517 132.291,41.9887 132.113,42.2257 L 132.173,42.1067 S 131.995,41.9887 131.521,42.7597 C 130.987,43.4707 131.046,44.0037 131.046,44.0037 S 130.928,44.0037 130.572,44.5377 C 130.276,45.1297 130.336,45.6637 130.336,45.6637 S 129.98,46.0787 129.802,46.4347 C 129.624,46.7897 129.743,47.3827 129.743,47.3827 S 129.209,47.8567 129.091,48.3307 C 128.853,49.2797 129.387,49.2797 129.387,49.2797 S 128.972,49.6357 128.972,50.4657 C 128.913,51.2357 129.446,51.4137 129.446,51.4137 S 129.09,51.8287 129.328,52.3027 C 129.505,52.7177 130.098,52.8957 130.098,52.8957 S 129.98,53.5477 130.217,53.7847 C 130.394,53.9627 130.75,54.3777 131.165,54.6147 C 131.343,54.8517 131.521,55.0887 131.698,55.2667 C 133.299,56.5707 135.018,55.9187 135.729,55.5627 C 135.137,54.8497 134.959,49.1597 136.737,45.7807 L 136.737,45.7807 Z" transform=""/><path fill="#f89c44" stroke="none" d="M 136.737,45.7807 C 134.959,49.1597 135.137,54.8497 135.73,55.5607 L 135.789,55.5607 S 148.355,65.2817 154.638,57.0427 C 160.921,48.8627 146.814,38.3117 146.814,38.3117 S 143.139,38.6077 139.345,42.2237 C 138.338,43.1727 136.737,45.7807 136.737,45.7807 L 136.737,45.7807 Z" transform=""/><path fill="#d14e3f" stroke="none" d="M 167.987,45.7807 S 169.587,43.1727 170.595,42.2247 C 174.389,38.6087 178.064,38.3127 178.064,38.3127 S 178.716,36.1187 176.819,34.5777 C 176.463,34.2817 175.871,34.1037 175.218,34.0447 C 175.16,33.9857 174.982,33.9257 174.863,33.8667 C 174.626,33.8077 174.388,33.9267 174.27,34.0447 C 174.152,34.0447 174.033,34.1037 173.914,34.1037 C 173.737,33.9857 173.44,33.8667 173.025,34.0447 C 172.432,34.1637 172.195,34.5197 172.077,34.6377 C 172.017,34.6967 171.958,34.6967 171.958,34.6967 C 171.84,34.5777 171.602,34.3417 171.01,34.6967 C 170.535,34.9337 170.239,35.5857 170.239,35.5857 L 170.239,35.5857 S 169.647,35.6457 169.35,35.8827 C 169.054,36.1197 168.876,36.4757 168.758,36.5937 L 168.758,36.5937 C 168.639,36.6537 168.165,36.7717 167.75,37.1277 C 167.335,37.6017 167.335,37.7207 167.335,37.7207 L 167.335,37.7207 S 166.802,37.8387 166.268,38.4907 C 165.735,39.0837 165.794,39.2027 165.794,39.2617 C 165.794,39.2617 165.794,39.3207 165.735,39.3207 C 165.616,39.3207 165.023,39.5587 164.549,40.0917 C 164.253,39.6767 163.008,37.9577 162.119,37.5427 C 161.645,37.3647 161.171,37.5427 160.756,37.7797 C 160.163,37.6017 159.451,37.0687 158.799,35.6457 L 156.25,33.3937 C 156.25,33.5127 156.31,33.6307 156.31,33.6907 C 156.547,35.7057 157.199,38.6097 159.155,40.0327 L 159.155,40.0917 S 158.859,41.3357 159.925,41.5147 C 160.578,41.6327 162.652,42.6997 162.652,42.6997 L 163.956,41.0397 C 163.837,41.3357 163.897,41.4547 163.897,41.5147 C 163.719,41.7517 163.541,41.9887 163.363,42.2257 L 163.423,42.1067 S 163.245,41.9887 162.771,42.7597 C 162.237,43.4707 162.296,44.0037 162.296,44.0037 S 162.178,44.0037 161.822,44.5377 C 161.526,45.1297 161.586,45.6637 161.586,45.6637 S 161.23,46.0787 161.052,46.4347 C 160.874,46.7897 160.993,47.3827 160.993,47.3827 S 160.459,47.8567 160.341,48.3307 C 160.103,49.2797 160.637,49.2797 160.637,49.2797 S 160.222,49.6357 160.222,50.4657 C 160.163,51.2357 160.696,51.4137 160.696,51.4137 S 160.34,51.8287 160.578,52.3027 C 160.755,52.7177 161.348,52.8957 161.348,52.8957 S 161.23,53.5477 161.467,53.7847 C 161.644,53.9627 162,54.3777 162.415,54.6147 C 162.593,54.8517 162.771,55.0887 162.948,55.2667 C 164.549,56.5707 166.268,55.9187 166.979,55.5627 C 166.387,54.8497 166.209,49.1597 167.987,45.7807 L 167.987,45.7807 Z" transform=""/><path fill="#f89c44" stroke="none" d="M 167.987,45.7807 C 166.209,49.1597 166.387,54.8497 166.98,55.5607 L 167.039,55.5607 S 179.605,65.2817 185.888,57.0427 C 192.171,48.8627 178.064,38.3117 178.064,38.3117 S 174.389,38.6077 170.595,42.2237 C 169.588,43.1727 167.987,45.7807 167.987,45.7807 L 167.987,45.7807 Z" transform=""/><path fill="#d14e3f" stroke="none" d="M 199.237,45.7807 S 200.837,43.1727 201.845,42.2247 C 205.639,38.6087 209.314,38.3127 209.314,38.3127 S 209.966,36.1187 208.069,34.5777 C 207.713,34.2817 207.121,34.1037 206.468,34.0447 C 206.41,33.9857 206.232,33.9257 206.113,33.8667 C 205.876,33.8077 205.638,33.9267 205.52,34.0447 C 205.402,34.0447 205.283,34.1037 205.164,34.1037 C 204.987,33.9857 204.69,33.8667 204.275,34.0447 C 203.682,34.1637 203.445,34.5197 203.327,34.6377 C 203.267,34.6967 203.208,34.6967 203.208,34.6967 C 203.09,34.5777 202.852,34.3417 202.26,34.6967 C 201.785,34.9337 201.489,35.5857 201.489,35.5857 L 201.489,35.5857 S 200.897,35.6457 200.6,35.8827 C 200.304,36.1197 200.126,36.4757 200.008,36.5937 L 200.008,36.5937 C 199.889,36.6537 199.415,36.7717 199,37.1277 C 198.585,37.6017 198.585,37.7207 198.585,37.7207 L 198.585,37.7207 S 198.052,37.8387 197.518,38.4907 C 196.985,39.0837 197.044,39.2027 197.044,39.2617 C 197.044,39.2617 197.044,39.3207 196.985,39.3207 C 196.866,39.3207 196.273,39.5587 195.799,40.0917 C 195.503,39.6767 194.258,37.9577 193.369,37.5427 C 192.895,37.3647 192.421,37.5427 192.006,37.7797 C 191.413,37.6017 190.701,37.0687 190.049,35.6457 L 187.5,33.3937 C 187.5,33.5127 187.56,33.6307 187.56,33.6907 C 187.797,35.7057 188.449,38.6097 190.405,40.0327 L 190.405,40.0917 S 190.109,41.3357 191.175,41.5147 C 191.828,41.6327 193.902,42.6997 193.902,42.6997 L 195.206,41.0397 C 195.087,41.3357 195.147,41.4547 195.147,41.5147 C 194.969,41.7517 194.791,41.9887 194.613,42.2257 L 194.673,42.1067 S 194.495,41.9887 194.021,42.7597 C 193.487,43.4707 193.546,44.0037 193.546,44.0037 S 193.428,44.0037 193.072,44.5377 C 192.776,45.1297 192.836,45.6637 192.836,45.6637 S 192.48,46.0787 192.302,46.4347 C 192.124,46.7897 192.243,47.3827 192.243,47.3827 S 191.709,47.8567 191.591,48.3307 C 191.353,49.2797 191.887,49.2797 191.887,49.2797 S 191.472,49.6357 191.472,50.4657 C 191.413,51.2357 191.946,51.4137 191.946,51.4137 S 191.59,51.8287 191.828,52.3027 C 192.005,52.7177 192.598,52.8957 192.598,52.8957 S 192.48,53.5477 192.717,53.7847 C 192.894,53.9627 193.25,54.3777 193.665,54.6147 C 193.843,54.8517 194.021,55.0887 194.198,55.2667 C 195.799,56.5707 197.518,55.9187 198.229,55.5627 C 197.637,54.8497 197.459,49.1597 199.237,45.7807 L 199.237,45.7807 Z" transform=""/><path fill="#f89c44" stroke="none" d="M 199.237,45.7807 C 197.459,49.1597 197.637,54.8497 198.23,55.5607 L 198.289,55.5607 S 210.855,65.2817 217.138,57.0427 C 223.421,48.8627 209.314,38.3117 209.314,38.3117 S 205.639,38.6077 201.845,42.2237 C 200.838,43.1727 199.237,45.7807 199.237,45.7807 L 199.237,45.7807 Z" transform=""/><path fill="#d14e3f" stroke="none" d="M 230.487,45.7807 S 232.087,43.1727 233.095,42.2247 C 236.889,38.6087 240.564,38.3127 240.564,38.3127 S 241.216,36.1187 239.319,34.5777 C 238.963,34.2817 238.371,34.1037 237.718,34.0447 C 237.66,33.9857 237.482,33.9257 237.363,33.8667 C 237.126,33.8077 236.888,33.9267 236.77,34.0447 C 236.652,34.0447 236.533,34.1037 236.414,34.1037 C 236.237,33.9857 235.94,33.8667 235.525,34.0447 C 234.932,34.1637 234.695,34.5197 234.577,34.6377 C 234.517,34.6967 234.458,34.6967 234.458,34.6967 C 234.34,34.5777 234.102,34.3417 233.51,34.6967 C 233.035,34.9337 232.739,35.5857 232.739,35.5857 L 232.739,35.5857 S 232.147,35.6457 231.85,35.8827 C 231.554,36.1197 231.376,36.4757 231.258,36.5937 L 231.258,36.5937 C 231.139,36.6537 230.665,36.7717 230.25,37.1277 C 229.835,37.6017 229.835,37.7207 229.835,37.7207 L 229.835,37.7207 S 229.302,37.8387 228.768,38.4907 C 228.235,39.0837 228.294,39.2027 228.294,39.2617 C 228.294,39.2617 228.294,39.3207 228.235,39.3207 C 228.116,39.3207 227.523,39.5587 227.049,40.0917 C 226.753,39.6767 225.508,37.9577 224.619,37.5427 C 224.145,37.3647 223.671,37.5427 223.256,37.7797 C 222.663,37.6017 221.951,37.0687 221.299,35.6457 L 218.75,33.3937 C 218.75,33.5127 218.81,33.6307 218.81,33.6907 C 219.047,35.7057 219.699,38.6097 221.655,40.0327 L 221.655,40.0917 S 221.359,41.3357 222.425,41.5147 C 223.078,41.6327 225.152,42.6997 225.152,42.6997 L 226.456,41.0397 C 226.337,41.3357 226.397,41.4547 226.397,41.5147 C 226.219,41.7517 226.041,41.9887 225.863,42.2257 L 225.923,42.1067 S 225.745,41.9887 225.271,42.7597 C 224.737,43.4707 224.796,44.0037 224.796,44.0037 S 224.678,44.0037 224.322,44.5377 C 224.026,45.1297 224.086,45.6637 224.086,45.6637 S 223.73,46.0787 223.552,46.4347 C 223.374,46.7897 223.493,47.3827 223.493,47.3827 S 222.959,47.8567 222.841,48.3307 C 222.603,49.2797 223.137,49.2797 223.137,49.2797 S 222.722,49.6357 222.722,50.4657 C 222.663,51.2357 223.196,51.4137 223.196,51.4137 S 222.84,51.8287 223.078,52.3027 C 223.255,52.7177 223.848,52.8957 223.848,52.8957 S 223.73,53.5477 223.967,53.7847 C 224.144,53.9627 224.5,54.3777 224.915,54.6147 C 225.093,54.8517 225.271,55.0887 225.448,55.2667 C 227.049,56.5707 228.768,55.9187 229.479,55.5627 C 228.887,54.8497 228.709,49.1597 230.487,45.7807 L 230.487,45.7807 Z" transform=""/><path fill="#f89c44" stroke="none" d="M 230.487,45.7807 C 228.709,49.1597 228.887,54.8497 229.48,55.5607 L 229.539,55.5607 S 242.105,65.2817 248.388,57.0427 C 254.671,48.8627 240.564,38.3117 240.564,38.3117 S 236.889,38.6077 233.095,42.2237 C 232.088,43.1727 230.487,45.7807 230.487,45.7807 L 230.487,45.7807 Z" transform=""/><path fill="#d14e3f" stroke="none" d="M 11.7366,14.5307 S 13.3366,11.9227 14.3446,10.9747 C 18.1386,7.35868 21.8136,7.06268 21.8136,7.06268 S 22.4656,4.86868 20.5686,3.32768 C 20.2126,3.03168 19.6206,2.85368 18.9676,2.79468 C 18.9096,2.73568 18.7316,2.67568 18.6126,2.61668 C 18.3756,2.55768 18.1376,2.67668 18.0196,2.79468 C 17.9016,2.79468 17.7826,2.85368 17.6636,2.85368 C 17.4866,2.73568 17.1896,2.61668 16.7746,2.79468 C 16.1816,2.91368 15.9446,3.26968 15.8266,3.38768 C 15.7666,3.44668 15.7076,3.44668 15.7076,3.44668 C 15.5896,3.32768 15.3516,3.09168 14.7596,3.44668 C 14.2846,3.68368 13.9886,4.33568 13.9886,4.33568 L 13.9886,4.33568 S 13.3966,4.39568 13.0996,4.63268 C 12.8036,4.86968 12.6256,5.22568 12.5076,5.34368 L 12.5076,5.34368 C 12.3886,5.40368 11.9146,5.52168 11.4996,5.87768 C 11.0846,6.35168 11.0846,6.47068 11.0846,6.47068 L 11.0846,6.47068 S 10.5516,6.58868 10.0176,7.24068 C 9.48457,7.83368 9.54357,7.95268 9.54357,8.01168 C 9.54357,8.01168 9.54357,8.07068 9.48457,8.07068 C 9.36557,8.07068 8.77257,8.30868 8.29857,8.84168 C 8.00257,8.42668 6.75757,6.70768 5.86857,6.29268 C 5.39457,6.11468 4.92057,6.29268 4.50557,6.52968 C 3.91257,6.35168 3.20057,5.81868 2.54857,4.39568 L -0.000425388,2.14368 C -0.000425388,2.26268 0.0595746,2.38068 0.0595746,2.44068 C 0.296575,4.45568 0.948575,7.35968 2.90457,8.78268 L 2.90457,8.84168 S 2.60857,10.0857 3.67457,10.2647 C 4.32757,10.3827 6.40157,11.4497 6.40157,11.4497 L 7.70557,9.78968 C 7.58657,10.0857 7.64657,10.2047 7.64657,10.2647 C 7.46857,10.5017 7.29057,10.7387 7.11257,10.9757 L 7.17257,10.8567 S 6.99457,10.7387 6.52057,11.5097 C 5.98657,12.2207 6.04557,12.7537 6.04557,12.7537 S 5.92757,12.7537 5.57157,13.2877 C 5.27557,13.8797 5.33557,14.4137 5.33557,14.4137 S 4.97957,14.8287 4.80157,15.1847 C 4.62357,15.5397 4.74257,16.1327 4.74257,16.1327 S 4.20857,16.6067 4.09057,17.0807 C 3.85257,18.0297 4.38657,18.0297 4.38657,18.0297 S 3.97157,18.3857 3.97157,19.2157 C 3.91257,19.9857 4.44557,20.1637 4.44557,20.1637 S 4.08957,20.5787 4.32757,21.0527 C 4.50457,21.4677 5.09757,21.6457 5.09757,21.6457 S 4.97957,22.2977 5.21657,22.5347 C 5.39357,22.7127 5.74957,23.1277 6.16457,23.3647 C 6.34257,23.6017 6.52057,23.8387 6.69757,24.0167 C 8.29857,25.3207 10.0176,24.6687 10.7286,24.3127 C 10.1366,23.5997 9.95857,17.9097 11.7366,14.5307 L 11.7366,14.5307 Z" transform=""/><path fill="#f89c44" stroke="none" d="M 11.7366,14.5307 C 9.95857,17.9097 10.1366,23.5997 10.7296,24.3107 L 10.7886,24.3107 S 23.3546,34.0317 29.6376,25.7927 C 35.9206,17.6127 21.8136,7.06168 21.8136,7.06168 S 18.1386,7.35768 14.3446,10.9737 C 13.3376,11.9227 11.7366,14.5307 11.7366,14.5307 L 11.7366,14.5307 Z" transform=""/><path fill="#d14e3f" stroke="none" d="M 42.9866,14.5307 S 44.5866,11.9227 45.5946,10.9747 C 49.3886,7.35868 53.0636,7.06268 53.0636,7.06268 S 53.7156,4.86868 51.8186,3.32768 C 51.4626,3.03168 50.8706,2.85368 50.2176,2.79468 C 50.1596,2.73568 49.9816,2.67568 49.8626,2.61668 C 49.6256,2.55768 49.3876,2.67668 49.2696,2.79468 C 49.1516,2.79468 49.0326,2.85368 48.9136,2.85368 C 48.7366,2.73568 48.4396,2.61668 48.0246,2.79468 C 47.4316,2.91368 47.1946,3.26968 47.0766,3.38768 C 47.0166,3.44668 46.9576,3.44668 46.9576,3.44668 C 46.8396,3.32768 46.6016,3.09168 46.0096,3.44668 C 45.5346,3.68368 45.2386,4.33568 45.2386,4.33568 L 45.2386,4.33568 S 44.6466,4.39568 44.3496,4.63268 C 44.0536,4.86968 43.8756,5.22568 43.7576,5.34368 L 43.7576,5.34368 C 43.6386,5.40368 43.1646,5.52168 42.7496,5.87768 C 42.3346,6.35168 42.3346,6.47068 42.3346,6.47068 L 42.3346,6.47068 S 41.8016,6.58868 41.2676,7.24068 C 40.7346,7.83368 40.7936,7.95268 40.7936,8.01168 C 40.7936,8.01168 40.7936,8.07068 40.7346,8.07068 C 40.6156,8.07068 40.0226,8.30868 39.5486,8.84168 C 39.2526,8.42668 38.0076,6.70768 37.1186,6.29268 C 36.6446,6.11468 36.1706,6.29268 35.7556,6.52968 C 35.1626,6.35168 34.4506,5.81868 33.7986,4.39568 L 31.2496,2.14368 C 31.2496,2.26268 31.3096,2.38068 31.3096,2.44068 C 31.5466,4.45568 32.1986,7.35968 34.1546,8.78268 L 34.1546,8.84168 S 33.8586,10.0857 34.9246,10.2647 C 35.5776,10.3827 37.6516,11.4497 37.6516,11.4497 L 38.9556,9.78968 C 38.8366,10.0857 38.8966,10.2047 38.8966,10.2647 C 38.7186,10.5017 38.5406,10.7387 38.3626,10.9757 L 38.4226,10.8567 S 38.2446,10.7387 37.7706,11.5097 C 37.2366,12.2207 37.2956,12.7537 37.2956,12.7537 S 37.1776,12.7537 36.8216,13.2877 C 36.5256,13.8797 36.5856,14.4137 36.5856,14.4137 S 36.2296,14.8287 36.0516,15.1847 C 35.8736,15.5397 35.9926,16.1327 35.9926,16.1327 S 35.4586,16.6067 35.3406,17.0807 C 35.1026,18.0297 35.6366,18.0297 35.6366,18.0297 S 35.2216,18.3857 35.2216,19.2157 C 35.1626,19.9857 35.6956,20.1637 35.6956,20.1637 S 35.3396,20.5787 35.5776,21.0527 C 35.7546,21.4677 36.3476,21.6457 36.3476,21.6457 S 36.2296,22.2977 36.4666,22.5347 C 36.6436,22.7127 36.9996,23.1277 37.4146,23.3647 C 37.5926,23.6017 37.7706,23.8387 37.9476,24.0167 C 39.5486,25.3207 41.2676,24.6687 41.9786,24.3127 C 41.3866,23.5997 41.2086,17.9097 42.9866,14.5307 L 42.9866,14.5307 Z" transform=""/><path fill="#f89c44" stroke="none" d="M 42.9866,14.5307 C 41.2086,17.9097 41.3866,23.5997 41.9796,24.3107 L 42.0386,24.3107 S 54.6046,34.0317 60.8876,25.7927 C 67.1706,17.6127 53.0636,7.06168 53.0636,7.06168 S 49.3886,7.35768 45.5946,10.9737 C 44.5876,11.9227 42.9866,14.5307 42.9866,14.5307 L 42.9866,14.5307 Z" transform=""/><path fill="#d14e3f" stroke="none" d="M 74.2366,14.5307 S 75.8366,11.9227 76.8446,10.9747 C 80.6386,7.35868 84.3136,7.06268 84.3136,7.06268 S 84.9656,4.86868 83.0686,3.32768 C 82.7126,3.03168 82.1206,2.85368 81.4676,2.79468 C 81.4096,2.73568 81.2316,2.67568 81.1126,2.61668 C 80.8756,2.55768 80.6376,2.67668 80.5196,2.79468 C 80.4016,2.79468 80.2826,2.85368 80.1636,2.85368 C 79.9866,2.73568 79.6896,2.61668 79.2746,2.79468 C 78.6816,2.91368 78.4446,3.26968 78.3266,3.38768 C 78.2666,3.44668 78.2076,3.44668 78.2076,3.44668 C 78.0896,3.32768 77.8516,3.09168 77.2596,3.44668 C 76.7846,3.68368 76.4886,4.33568 76.4886,4.33568 L 76.4886,4.33568 S 75.8966,4.39568 75.5996,4.63268 C 75.3036,4.86968 75.1256,5.22568 75.0076,5.34368 L 75.0076,5.34368 C 74.8886,5.40368 74.4146,5.52168 73.9996,5.87768 C 73.5846,6.35168 73.5846,6.47068 73.5846,6.47068 L 73.5846,6.47068 S 73.0516,6.58868 72.5176,7.24068 C 71.9846,7.83368 72.0436,7.95268 72.0436,8.01168 C 72.0436,8.01168 72.0436,8.07068 71.9846,8.07068 C 71.8656,8.07068 71.2726,8.30868 70.7986,8.84168 C 70.5026,8.42668 69.2576,6.70768 68.3686,6.29268 C 67.8946,6.11468 67.4206,6.29268 67.0056,6.52968 C 66.4126,6.35168 65.7006,5.81868 65.0486,4.39568 L 62.4996,2.14368 C 62.4996,2.26268 62.5596,2.38068 62.5596,2.44068 C 62.7966,4.45568 63.4486,7.35968 65.4046,8.78268 L 65.4046,8.84168 S 65.1086,10.0857 66.1746,10.2647 C 66.8276,10.3827 68.9016,11.4497 68.9016,11.4497 L 70.2056,9.78968 C 70.0866,10.0857 70.1466,10.2047 70.1466,10.2647 C 69.9686,10.5017 69.7906,10.7387 69.6126,10.9757 L 69.6726,10.8567 S 69.4946,10.7387 69.0206,11.5097 C 68.4866,12.2207 68.5456,12.7537 68.5456,12.7537 S 68.4276,12.7537 68.0716,13.2877 C 67.7756,13.8797 67.8356,14.4137 67.8356,14.4137 S 67.4796,14.8287 67.3016,15.1847 C 67.1236,15.5397 67.2426,16.1327 67.2426,16.1327 S 66.7086,16.6067 66.5906,17.0807 C 66.3526,18.0297 66.8866,18.0297 66.8866,18.0297 S 66.4716,18.3857 66.4716,19.2157 C 66.4126,19.9857 66.9456,20.1637 66.9456,20.1637 S 66.5896,20.5787 66.8276,21.0527 C 67.0046,21.4677 67.5976,21.6457 67.5976,21.6457 S 67.4796,22.2977 67.7166,22.5347 C 67.8936,22.7127 68.2496,23.1277 68.6646,23.3647 C 68.8426,23.6017 69.0206,23.8387 69.1976,24.0167 C 70.7986,25.3207 72.5176,24.6687 73.2286,24.3127 C 72.6366,23.5997 72.4586,17.9097 74.2366,14.5307 L 74.2366,14.5307 Z" transform=""/><path fill="#f89c44" stroke="none" d="M 74.2366,14.5307 C 72.4586,17.9097 72.6366,23.5997 73.2296,24.3107 L 73.2886,24.3107 S 85.8546,34.0317 92.1376,25.7927 C 98.4206,17.6127 84.3136,7.06168 84.3136,7.06168 S 80.6386,7.35768 76.8446,10.9737 C 75.8376,11.9227 74.2366,14.5307 74.2366,14.5307 L 74.2366,14.5307 Z" transform=""/><path fill="#d14e3f" stroke="none" d="M 105.487,14.5307 S 107.087,11.9227 108.095,10.9747 C 111.889,7.35868 115.564,7.06268 115.564,7.06268 S 116.216,4.86868 114.319,3.32768 C 113.963,3.03168 113.371,2.85368 112.718,2.79468 C 112.66,2.73568 112.482,2.67568 112.363,2.61668 C 112.126,2.55768 111.888,2.67668 111.77,2.79468 C 111.652,2.79468 111.533,2.85368 111.414,2.85368 C 111.237,2.73568 110.94,2.61668 110.525,2.79468 C 109.932,2.91368 109.695,3.26968 109.577,3.38768 C 109.517,3.44668 109.458,3.44668 109.458,3.44668 C 109.34,3.32768 109.102,3.09168 108.51,3.44668 C 108.035,3.68368 107.739,4.33568 107.739,4.33568 L 107.739,4.33568 S 107.147,4.39568 106.85,4.63268 C 106.554,4.86968 106.376,5.22568 106.258,5.34368 L 106.258,5.34368 C 106.139,5.40368 105.665,5.52168 105.25,5.87768 C 104.835,6.35168 104.835,6.47068 104.835,6.47068 L 104.835,6.47068 S 104.302,6.58868 103.768,7.24068 C 103.235,7.83368 103.294,7.95268 103.294,8.01168 C 103.294,8.01168 103.294,8.07068 103.235,8.07068 C 103.116,8.07068 102.523,8.30868 102.049,8.84168 C 101.753,8.42668 100.508,6.70768 99.6186,6.29268 C 99.1446,6.11468 98.6706,6.29268 98.2556,6.52968 C 97.6626,6.35168 96.9506,5.81868 96.2986,4.39568 L 93.7496,2.14368 C 93.7496,2.26268 93.8096,2.38068 93.8096,2.44068 C 94.0466,4.45568 94.6986,7.35968 96.6546,8.78268 L 96.6546,8.84168 S 96.3586,10.0857 97.4246,10.2647 C 98.0776,10.3827 100.152,11.4497 100.152,11.4497 L 101.456,9.78968 C 101.337,10.0857 101.397,10.2047 101.397,10.2647 C 101.219,10.5017 101.041,10.7387 100.863,10.9757 L 100.923,10.8567 S 100.745,10.7387 100.271,11.5097 C 99.7366,12.2207 99.7956,12.7537 99.7956,12.7537 S 99.6776,12.7537 99.3216,13.2877 C 99.0256,13.8797 99.0856,14.4137 99.0856,14.4137 S 98.7296,14.8287 98.5516,15.1847 C 98.3736,15.5397 98.4926,16.1327 98.4926,16.1327 S 97.9586,16.6067 97.8406,17.0807 C 97.6026,18.0297 98.1366,18.0297 98.1366,18.0297 S 97.7216,18.3857 97.7216,19.2157 C 97.6626,19.9857 98.1956,20.1637 98.1956,20.1637 S 97.8396,20.5787 98.0776,21.0527 C 98.2546,21.4677 98.8476,21.6457 98.8476,21.6457 S 98.7296,22.2977 98.9666,22.5347 C 99.1436,22.7127 99.4996,23.1277 99.9146,23.3647 C 100.093,23.6017 100.271,23.8387 100.448,24.0167 C 102.049,25.3207 103.768,24.6687 104.479,24.3127 C 103.887,23.5997 103.709,17.9097 105.487,14.5307 L 105.487,14.5307 Z" transform=""/><path fill="#f89c44" stroke="none" d="M 105.487,14.5307 C 103.709,17.9097 103.887,23.5997 104.48,24.3107 L 104.539,24.3107 S 117.105,34.0317 123.388,25.7927 C 129.671,17.6127 115.564,7.06168 115.564,7.06168 S 111.889,7.35768 108.095,10.9737 C 107.088,11.9227 105.487,14.5307 105.487,14.5307 L 105.487,14.5307 Z" transform=""/><path fill="#d14e3f" stroke="none" d="M 136.737,14.5307 S 138.337,11.9227 139.345,10.9747 C 143.139,7.35868 146.814,7.06268 146.814,7.06268 S 147.466,4.86868 145.569,3.32768 C 145.213,3.03168 144.621,2.85368 143.968,2.79468 C 143.91,2.73568 143.732,2.67568 143.613,2.61668 C 143.376,2.55768 143.138,2.67668 143.02,2.79468 C 142.902,2.79468 142.783,2.85368 142.664,2.85368 C 142.487,2.73568 142.19,2.61668 141.775,2.79468 C 141.182,2.91368 140.945,3.26968 140.827,3.38768 C 140.767,3.44668 140.708,3.44668 140.708,3.44668 C 140.59,3.32768 140.352,3.09168 139.76,3.44668 C 139.285,3.68368 138.989,4.33568 138.989,4.33568 L 138.989,4.33568 S 138.397,4.39568 138.1,4.63268 C 137.804,4.86968 137.626,5.22568 137.508,5.34368 L 137.508,5.34368 C 137.389,5.40368 136.915,5.52168 136.5,5.87768 C 136.085,6.35168 136.085,6.47068 136.085,6.47068 L 136.085,6.47068 S 135.552,6.58868 135.018,7.24068 C 134.485,7.83368 134.544,7.95268 134.544,8.01168 C 134.544,8.01168 134.544,8.07068 134.485,8.07068 C 134.366,8.07068 133.773,8.30868 133.299,8.84168 C 133.003,8.42668 131.758,6.70768 130.869,6.29268 C 130.395,6.11468 129.921,6.29268 129.506,6.52968 C 128.913,6.35168 128.201,5.81868 127.549,4.39568 L 125,2.14368 C 125,2.26268 125.06,2.38068 125.06,2.44068 C 125.297,4.45568 125.949,7.35968 127.905,8.78268 L 127.905,8.84168 S 127.609,10.0857 128.675,10.2647 C 129.328,10.3827 131.402,11.4497 131.402,11.4497 L 132.706,9.78968 C 132.587,10.0857 132.647,10.2047 132.647,10.2647 C 132.469,10.5017 132.291,10.7387 132.113,10.9757 L 132.173,10.8567 S 131.995,10.7387 131.521,11.5097 C 130.987,12.2207 131.046,12.7537 131.046,12.7537 S 130.928,12.7537 130.572,13.2877 C 130.276,13.8797 130.336,14.4137 130.336,14.4137 S 129.98,14.8287 129.802,15.1847 C 129.624,15.5397 129.743,16.1327 129.743,16.1327 S 129.209,16.6067 129.091,17.0807 C 128.853,18.0297 129.387,18.0297 129.387,18.0297 S 128.972,18.3857 128.972,19.2157 C 128.913,19.9857 129.446,20.1637 129.446,20.1637 S 129.09,20.5787 129.328,21.0527 C 129.505,21.4677 130.098,21.6457 130.098,21.6457 S 129.98,22.2977 130.217,22.5347 C 130.394,22.7127 130.75,23.1277 131.165,23.3647 C 131.343,23.6017 131.521,23.8387 131.698,24.0167 C 133.299,25.3207 135.018,24.6687 135.729,24.3127 C 135.137,23.5997 134.959,17.9097 136.737,14.5307 L 136.737,14.5307 Z" transform=""/><path fill="#f89c44" stroke="none" d="M 136.737,14.5307 C 134.959,17.9097 135.137,23.5997 135.73,24.3107 L 135.789,24.3107 S 148.355,34.0317 154.638,25.7927 C 160.921,17.6127 146.814,7.06168 146.814,7.06168 S 143.139,7.35768 139.345,10.9737 C 138.338,11.9227 136.737,14.5307 136.737,14.5307 L 136.737,14.5307 Z" transform=""/><path fill="#d14e3f" stroke="none" d="M 167.987,14.5307 S 169.587,11.9227 170.595,10.9747 C 174.389,7.35868 178.064,7.06268 178.064,7.06268 S 178.716,4.86868 176.819,3.32768 C 176.463,3.03168 175.871,2.85368 175.218,2.79468 C 175.16,2.73568 174.982,2.67568 174.863,2.61668 C 174.626,2.55768 174.388,2.67668 174.27,2.79468 C 174.152,2.79468 174.033,2.85368 173.914,2.85368 C 173.737,2.73568 173.44,2.61668 173.025,2.79468 C 172.432,2.91368 172.195,3.26968 172.077,3.38768 C 172.017,3.44668 171.958,3.44668 171.958,3.44668 C 171.84,3.32768 171.602,3.09168 171.01,3.44668 C 170.535,3.68368 170.239,4.33568 170.239,4.33568 L 170.239,4.33568 S 169.647,4.39568 169.35,4.63268 C 169.054,4.86968 168.876,5.22568 168.758,5.34368 L 168.758,5.34368 C 168.639,5.40368 168.165,5.52168 167.75,5.87768 C 167.335,6.35168 167.335,6.47068 167.335,6.47068 L 167.335,6.47068 S 166.802,6.58868 166.268,7.24068 C 165.735,7.83368 165.794,7.95268 165.794,8.01168 C 165.794,8.01168 165.794,8.07068 165.735,8.07068 C 165.616,8.07068 165.023,8.30868 164.549,8.84168 C 164.253,8.42668 163.008,6.70768 162.119,6.29268 C 161.645,6.11468 161.171,6.29268 160.756,6.52968 C 160.163,6.35168 159.451,5.81868 158.799,4.39568 L 156.25,2.14368 C 156.25,2.26268 156.31,2.38068 156.31,2.44068 C 156.547,4.45568 157.199,7.35968 159.155,8.78268 L 159.155,8.84168 S 158.859,10.0857 159.925,10.2647 C 160.578,10.3827 162.652,11.4497 162.652,11.4497 L 163.956,9.78968 C 163.837,10.0857 163.897,10.2047 163.897,10.2647 C 163.719,10.5017 163.541,10.7387 163.363,10.9757 L 163.423,10.8567 S 163.245,10.7387 162.771,11.5097 C 162.237,12.2207 162.296,12.7537 162.296,12.7537 S 162.178,12.7537 161.822,13.2877 C 161.526,13.8797 161.586,14.4137 161.586,14.4137 S 161.23,14.8287 161.052,15.1847 C 160.874,15.5397 160.993,16.1327 160.993,16.1327 S 160.459,16.6067 160.341,17.0807 C 160.103,18.0297 160.637,18.0297 160.637,18.0297 S 160.222,18.3857 160.222,19.2157 C 160.163,19.9857 160.696,20.1637 160.696,20.1637 S 160.34,20.5787 160.578,21.0527 C 160.755,21.4677 161.348,21.6457 161.348,21.6457 S 161.23,22.2977 161.467,22.5347 C 161.644,22.7127 162,23.1277 162.415,23.3647 C 162.593,23.6017 162.771,23.8387 162.948,24.0167 C 164.549,25.3207 166.268,24.6687 166.979,24.3127 C 166.387,23.5997 166.209,17.9097 167.987,14.5307 L 167.987,14.5307 Z" transform=""/><path fill="#f89c44" stroke="none" d="M 167.987,14.5307 C 166.209,17.9097 166.387,23.5997 166.98,24.3107 L 167.039,24.3107 S 179.605,34.0317 185.888,25.7927 C 192.171,17.6127 178.064,7.06168 178.064,7.06168 S 174.389,7.35768 170.595,10.9737 C 169.588,11.9227 167.987,14.5307 167.987,14.5307 L 167.987,14.5307 Z" transform=""/><path fill="#d14e3f" stroke="none" d="M 199.237,14.5307 S 200.837,11.9227 201.845,10.9747 C 205.639,7.35868 209.314,7.06268 209.314,7.06268 S 209.966,4.86868 208.069,3.32768 C 207.713,3.03168 207.121,2.85368 206.468,2.79468 C 206.41,2.73568 206.232,2.67568 206.113,2.61668 C 205.876,2.55768 205.638,2.67668 205.52,2.79468 C 205.402,2.79468 205.283,2.85368 205.164,2.85368 C 204.987,2.73568 204.69,2.61668 204.275,2.79468 C 203.682,2.91368 203.445,3.26968 203.327,3.38768 C 203.267,3.44668 203.208,3.44668 203.208,3.44668 C 203.09,3.32768 202.852,3.09168 202.26,3.44668 C 201.785,3.68368 201.489,4.33568 201.489,4.33568 L 201.489,4.33568 S 200.897,4.39568 200.6,4.63268 C 200.304,4.86968 200.126,5.22568 200.008,5.34368 L 200.008,5.34368 C 199.889,5.40368 199.415,5.52168 199,5.87768 C 198.585,6.35168 198.585,6.47068 198.585,6.47068 L 198.585,6.47068 S 198.052,6.58868 197.518,7.24068 C 196.985,7.83368 197.044,7.95268 197.044,8.01168 C 197.044,8.01168 197.044,8.07068 196.985,8.07068 C 196.866,8.07068 196.273,8.30868 195.799,8.84168 C 195.503,8.42668 194.258,6.70768 193.369,6.29268 C 192.895,6.11468 192.421,6.29268 192.006,6.52968 C 191.413,6.35168 190.701,5.81868 190.049,4.39568 L 187.5,2.14368 C 187.5,2.26268 187.56,2.38068 187.56,2.44068 C 187.797,4.45568 188.449,7.35968 190.405,8.78268 L 190.405,8.84168 S 190.109,10.0857 191.175,10.2647 C 191.828,10.3827 193.902,11.4497 193.902,11.4497 L 195.206,9.78968 C 195.087,10.0857 195.147,10.2047 195.147,10.2647 C 194.969,10.5017 194.791,10.7387 194.613,10.9757 L 194.673,10.8567 S 194.495,10.7387 194.021,11.5097 C 193.487,12.2207 193.546,12.7537 193.546,12.7537 S 193.428,12.7537 193.072,13.2877 C 192.776,13.8797 192.836,14.4137 192.836,14.4137 S 192.48,14.8287 192.302,15.1847 C 192.124,15.5397 192.243,16.1327 192.243,16.1327 S 191.709,16.6067 191.591,17.0807 C 191.353,18.0297 191.887,18.0297 191.887,18.0297 S 191.472,18.3857 191.472,19.2157 C 191.413,19.9857 191.946,20.1637 191.946,20.1637 S 191.59,20.5787 191.828,21.0527 C 192.005,21.4677 192.598,21.6457 192.598,21.6457 S 192.48,22.2977 192.717,22.5347 C 192.894,22.7127 193.25,23.1277 193.665,23.3647 C 193.843,23.6017 194.021,23.8387 194.198,24.0167 C 195.799,25.3207 197.518,24.6687 198.229,24.3127 C 197.637,23.5997 197.459,17.9097 199.237,14.5307 L 199.237,14.5307 Z" transform=""/><path fill="#f89c44" stroke="none" d="M 199.237,14.5307 C 197.459,17.9097 197.637,23.5997 198.23,24.3107 L 198.289,24.3107 S 210.855,34.0317 217.138,25.7927 C 223.421,17.6127 209.314,7.06168 209.314,7.06168 S 205.639,7.35768 201.845,10.9737 C 200.838,11.9227 199.237,14.5307 199.237,14.5307 L 199.237,14.5307 Z" transform=""/><path fill="#d14e3f" stroke="none" d="M 230.487,14.5307 S 232.087,11.9227 233.095,10.9747 C 236.889,7.35868 240.564,7.06268 240.564,7.06268 S 241.216,4.86868 239.319,3.32768 C 238.963,3.03168 238.371,2.85368 237.718,2.79468 C 237.66,2.73568 237.482,2.67568 237.363,2.61668 C 237.126,2.55768 236.888,2.67668 236.77,2.79468 C 236.652,2.79468 236.533,2.85368 236.414,2.85368 C 236.237,2.73568 235.94,2.61668 235.525,2.79468 C 234.932,2.91368 234.695,3.26968 234.577,3.38768 C 234.517,3.44668 234.458,3.44668 234.458,3.44668 C 234.34,3.32768 234.102,3.09168 233.51,3.44668 C 233.035,3.68368 232.739,4.33568 232.739,4.33568 L 232.739,4.33568 S 232.147,4.39568 231.85,4.63268 C 231.554,4.86968 231.376,5.22568 231.258,5.34368 L 231.258,5.34368 C 231.139,5.40368 230.665,5.52168 230.25,5.87768 C 229.835,6.35168 229.835,6.47068 229.835,6.47068 L 229.835,6.47068 S 229.302,6.58868 228.768,7.24068 C 228.235,7.83368 228.294,7.95268 228.294,8.01168 C 228.294,8.01168 228.294,8.07068 228.235,8.07068 C 228.116,8.07068 227.523,8.30868 227.049,8.84168 C 226.753,8.42668 225.508,6.70768 224.619,6.29268 C 224.145,6.11468 223.671,6.29268 223.256,6.52968 C 222.663,6.35168 221.951,5.81868 221.299,4.39568 L 218.75,2.14368 C 218.75,2.26268 218.81,2.38068 218.81,2.44068 C 219.047,4.45568 219.699,7.35968 221.655,8.78268 L 221.655,8.84168 S 221.359,10.0857 222.425,10.2647 C 223.078,10.3827 225.152,11.4497 225.152,11.4497 L 226.456,9.78968 C 226.337,10.0857 226.397,10.2047 226.397,10.2647 C 226.219,10.5017 226.041,10.7387 225.863,10.9757 L 225.923,10.8567 S 225.745,10.7387 225.271,11.5097 C 224.737,12.2207 224.796,12.7537 224.796,12.7537 S 224.678,12.7537 224.322,13.2877 C 224.026,13.8797 224.086,14.4137 224.086,14.4137 S 223.73,14.8287 223.552,15.1847 C 223.374,15.5397 223.493,16.1327 223.493,16.1327 S 222.959,16.6067 222.841,17.0807 C 222.603,18.0297 223.137,18.0297 223.137,18.0297 S 222.722,18.3857 222.722,19.2157 C 222.663,19.9857 223.196,20.1637 223.196,20.1637 S 222.84,20.5787 223.078,21.0527 C 223.255,21.4677 223.848,21.6457 223.848,21.6457 S 223.73,22.2977 223.967,22.5347 C 224.144,22.7127 224.5,23.1277 224.915,23.3647 C 225.093,23.6017 225.271,23.8387 225.448,24.0167 C 227.049,25.3207 228.768,24.6687 229.479,24.3127 C 228.887,23.5997 228.709,17.9097 230.487,14.5307 L 230.487,14.5307 Z" transform=""/><path fill="#f89c44" stroke="none" d="M 230.487,14.5307 C 228.709,17.9097 228.887,23.5997 229.48,24.3107 L 229.539,24.3107 S 242.105,34.0317 248.388,25.7927 C 254.671,17.6127 240.564,7.06168 240.564,7.06168 S 236.889,7.35768 233.095,10.9737 C 232.088,11.9227 230.487,14.5307 230.487,14.5307 L 230.487,14.5307 Z" transform=""/></svg>