<svg xmlns="http://www.w3.org/2000/svg" version="1.1" width="100" height="50" viewBox="0 0 100 50"><defs><linearGradient id="r-223ace1bb49f42578789c97050700334" x1="0" y1="0" x2="1" y2="2.4492935982947064e-16"><stop offset="0%" stop-color="#df1f26"/><stop offset="100%" stop-color="#531210"/></linearGradient><linearGradient id="r-d59dd06dd05748b68faffc0b0e265c99" x1="0" y1="1" x2="3.061616997868383e-16" y2="0"><stop offset="0%" stop-color="#df1f26"/><stop offset="100%" stop-color="#531210"/></linearGradient><linearGradient id="r-682d61a71b44427d815b307e6095e7f1" x1="0" y1="1" x2="3.061616997868383e-16" y2="0"><stop offset="0%" stop-color="#df1f26"/><stop offset="100%" stop-color="#531210"/></linearGradient><linearGradient id="r-7096397e43a543b48723f8d2f39d0b91" x1="0" y1="0" x2="1" y2="2.4492935982947064e-16"><stop offset="0%" stop-color="#df1f26"/><stop offset="100%" stop-color="#531210"/></linearGradient><linearGradient id="r-30d0c490815f48d3b167fdc2b9a794d0" x1="0" y1="0" x2="1" y2="2.4492935982947064e-16"><stop offset="0%" stop-color="#df1f26"/><stop offset="100%" stop-color="#531210"/></linearGradient><linearGradient id="r-888687d6b6634f91a2a97c5a6c1dd7cd" x1="0" y1="0.8390996311772799" x2="0.9999999999999999" y2="0"><stop offset="0%" stop-color="#df1f26"/><stop offset="100%" stop-color="#531210"/></linearGradient><linearGradient id="r-de21c7845ea94b53b5798cd616520530" x1="0" y1="0" x2="1" y2="2.4492935982947064e-16"><stop offset="0%" stop-color="#df1f26"/><stop offset="100%" stop-color="#531210"/></linearGradient><linearGradient id="r-f9896706ee3b418387324acca6f143d4" x1="1.8369701987210297e-16" y1="0" x2="0" y2="1"><stop offset="0%" stop-color="#df1f26"/><stop offset="100%" stop-color="#531210"/></linearGradient><linearGradient id="r-8dfa68ae094047b5a8d8ed4752c8c1d1" x1="0" y1="0.8390996311772799" x2="0.9999999999999999" y2="0"><stop offset="0%" stop-color="#df1f26"/><stop offset="100%" stop-color="#531210"/></linearGradient><linearGradient id="r-57978e929a0f489489e0a68adb8e427c" x1="1.8369701987210297e-16" y1="0" x2="0" y2="1"><stop offset="0%" stop-color="#df1f26"/><stop offset="100%" stop-color="#531210"/></linearGradient></defs><path fill="#ffffff" stroke="none" d="M 81.0923,22.9032 C 81.1363,23.0232 81.1373,23.1442 81.1153,23.2612 C 81.0703,23.4882 80.9553,23.7132 80.8483,23.9242 C 82.7083,24.1712 84.8443,23.7522 86.7523,23.4662 C 89.0723,23.0532 91.3593,22.5332 93.6173,21.9392 C 91.3973,22.6062 89.1453,23.2042 86.8413,23.6972 C 84.8523,24.0292 82.8623,24.6002 80.6763,24.3352 C 80.6673,24.3682 80.6493,24.4032 80.6453,24.4342 C 80.6373,24.4822 80.6333,24.5272 80.6373,24.5702 C 80.6403,24.6352 80.6733,24.7122 80.7153,24.7942 L 95.2433,27.2262 L 81.0663,25.3222 C 81.2393,25.5702 81.4143,25.8382 81.3643,26.1552 C 81.3473,26.2462 81.3113,26.3272 81.2653,26.4022 C 83.1163,26.7492 84.7003,27.6012 86.3323,28.2712 C 88.4513,29.2562 90.4973,30.3302 92.4823,31.4632 C 90.4453,30.3962 88.3463,29.3872 86.1953,28.4762 C 84.5193,27.8202 82.6793,27.0122 80.9143,26.7712 C 80.8543,26.8182 80.7933,26.8642 80.7333,26.9092 C 80.4593,27.1042 80.2003,27.2952 80.1303,27.4602 C 80.1123,27.4982 80.0993,27.5422 80.0933,27.5902 C 80.0283,27.9122 80.2023,28.4072 80.1343,28.8362 C 81.0543,29.6432 81.9683,30.6702 82.8343,31.8092 C 87.0703,34.1762 92.0583,35.8992 94.2033,35.5902 C 101.362,34.5602 96.4753,28.3472 96.6003,27.4902 C 96.7073,26.7662 103.838,21.3002 97.1223,19.0812 C 94.8353,18.3262 88.4073,18.7332 83.2103,20.0862 C 82.1133,20.8502 81.0043,21.5232 79.9363,22.0462 C 80.3143,22.2552 80.8973,22.4512 81.0923,22.9032 Z" transform=""/><path fill="#c75e72" stroke="none" d="M 81.0923,22.9032 C 81.1363,23.0232 81.1373,23.1442 81.1153,23.2612 C 81.0703,23.4882 80.9553,23.7132 80.8483,23.9242 C 82.7083,24.1712 84.8443,23.7522 86.7523,23.4662 C 89.0723,23.0532 91.3593,22.5332 93.6173,21.9392 C 91.3973,22.6062 89.1453,23.2042 86.8413,23.6972 C 84.8523,24.0292 82.8623,24.6002 80.6763,24.3352 C 80.6673,24.3682 80.6493,24.4032 80.6453,24.4342 C 80.6373,24.4822 80.6333,24.5272 80.6373,24.5702 C 80.6403,24.6352 80.6733,24.7122 80.7153,24.7942 L 95.2433,27.2262 L 81.0663,25.3222 C 81.2393,25.5702 81.4143,25.8382 81.3643,26.1552 C 81.3473,26.2462 81.3113,26.3272 81.2653,26.4022 C 83.1163,26.7492 84.7003,27.6012 86.3323,28.2712 C 88.4513,29.2562 90.4973,30.3302 92.4823,31.4632 C 90.4453,30.3962 88.3463,29.3872 86.1953,28.4762 C 84.5193,27.8202 82.6793,27.0122 80.9143,26.7712 C 80.8543,26.8182 80.7933,26.8642 80.7333,26.9092 C 80.4593,27.1042 80.2003,27.2952 80.1303,27.4602 C 80.1123,27.4982 80.0993,27.5422 80.0933,27.5902 C 80.0283,27.9122 80.2023,28.4072 80.1343,28.8362 C 81.0543,29.6432 81.9683,30.6702 82.8343,31.8092 C 87.0703,34.1762 92.0583,35.8992 94.2033,35.5902 C 101.362,34.5602 96.4753,28.3472 96.6003,27.4902 C 96.7073,26.7662 103.838,21.3002 97.1223,19.0812 C 94.8353,18.3262 88.4073,18.7332 83.2103,20.0862 C 82.1133,20.8502 81.0043,21.5232 79.9363,22.0462 C 80.3143,22.2552 80.8973,22.4512 81.0923,22.9032 Z" transform=""/><path fill="#7a3440" stroke="none" d="M 81.0659,25.3221 L 95.2429,27.2261 L 80.7149,24.7941 C 80.7879,24.9351 80.9009,25.0951 81.0229,25.2601 C 81.0369,25.2811 81.0519,25.3021 81.0659,25.3221 Z" transform=""/><path fill="#7a3440" stroke="none" d="M 86.8413,23.6981 C 89.1463,23.2051 91.3973,22.6071 93.6173,21.9401 C 91.3603,22.5331 89.0733,23.0531 86.7523,23.4661 C 84.8443,23.7531 82.7083,24.1721 80.8483,23.9241 C 80.7733,24.0711 80.7133,24.2081 80.6763,24.3351 C 82.8613,24.6011 84.8533,24.0301 86.8413,23.6981 Z" transform=""/><path fill="#7a3440" stroke="none" d="M 80.915,26.771 C 82.68,27.012 84.52,27.82 86.196,28.476 C 88.347,29.387 90.446,30.396 92.483,31.463 C 90.497,30.33 88.452,29.256 86.333,28.271 C 84.701,27.601 83.117,26.749 81.266,26.402 C 81.178,26.545 81.052,26.664 80.915,26.771 Z" transform=""/><path fill="#ffffff" stroke="none" d="M 73.8838,19.3966 C 73.9678,19.4086 74.0418,19.4116 74.1038,19.4046 C 74.3048,19.3836 74.5788,19.2056 74.8648,19.0226 C 75.0018,18.9376 75.1448,18.8516 75.2978,18.7876 C 76.2888,17.2326 76.5168,15.1146 76.8258,13.2686 C 77.1078,11.1506 77.2648,9.02857 77.3358,6.90857 C 77.3558,9.01757 77.2898,11.1356 77.0968,13.2656 C 76.8338,15.0596 76.8168,16.9286 75.8838,18.7096 C 76.0558,18.7446 76.1998,18.8206 76.3238,18.9226 L 83.4138,7.14557 L 76.6968,19.3156 C 76.8948,19.5566 77.0838,19.7816 77.2578,19.8536 C 77.3168,19.8796 77.3878,19.8986 77.4708,19.9106 C 77.5378,19.9206 77.6128,19.9226 77.6898,19.9256 C 78.5538,17.8846 80.2828,16.5686 81.7588,15.1156 C 83.4528,13.6016 85.2188,12.1786 87.0258,10.8246 C 85.2718,12.2446 83.5608,13.7316 81.9368,15.2956 C 80.5528,16.7086 78.8908,18.2416 78.2058,19.9226 C 78.3548,19.9216 78.5038,19.9236 78.6478,19.9426 C 78.8238,19.9686 79.0018,20.0206 79.1408,20.1386 C 79.4788,20.4536 79.4668,20.9416 79.5018,21.3296 C 80.5918,20.8526 81.8598,20.4376 83.2118,20.0856 C 87.4848,17.1086 91.5378,12.7626 91.9108,10.6256 C 93.0358,4.16257 84.9778,6.43557 84.1118,6.06357 C 83.3798,5.74857 79.8218,-2.05943 75.4078,3.01757 C 73.8188,4.84557 72.1668,11.0496 72.1498,16.0966 C 72.5938,17.1596 72.9618,18.2156 73.2198,19.2166 C 73.4588,19.2906 73.6888,19.3706 73.8838,19.3966 Z" transform=""/><path fill="#c75e72" stroke="none" d="M 73.8838,19.3966 C 73.9678,19.4086 74.0418,19.4116 74.1038,19.4046 C 74.3048,19.3836 74.5788,19.2056 74.8648,19.0226 C 75.0018,18.9376 75.1448,18.8516 75.2978,18.7876 C 76.2888,17.2326 76.5168,15.1146 76.8258,13.2686 C 77.1078,11.1506 77.2648,9.02857 77.3358,6.90857 C 77.3558,9.01757 77.2898,11.1356 77.0968,13.2656 C 76.8338,15.0596 76.8168,16.9286 75.8838,18.7096 C 76.0558,18.7446 76.1998,18.8206 76.3238,18.9226 L 83.4138,7.14557 L 76.6968,19.3156 C 76.8948,19.5566 77.0838,19.7816 77.2578,19.8536 C 77.3168,19.8796 77.3878,19.8986 77.4708,19.9106 C 77.5378,19.9206 77.6128,19.9226 77.6898,19.9256 C 78.5538,17.8846 80.2828,16.5686 81.7588,15.1156 C 83.4528,13.6016 85.2188,12.1786 87.0258,10.8246 C 85.2718,12.2446 83.5608,13.7316 81.9368,15.2956 C 80.5528,16.7086 78.8908,18.2416 78.2058,19.9226 C 78.3548,19.9216 78.5038,19.9236 78.6478,19.9426 C 78.8238,19.9686 79.0018,20.0206 79.1408,20.1386 C 79.4788,20.4536 79.4668,20.9416 79.5018,21.3296 C 80.5918,20.8526 81.8598,20.4376 83.2118,20.0856 C 87.4848,17.1086 91.5378,12.7626 91.9108,10.6256 C 93.0358,4.16257 84.9778,6.43557 84.1118,6.06357 C 83.3798,5.74857 79.8218,-2.05943 75.4078,3.01757 C 73.8188,4.84557 72.1668,11.0496 72.1498,16.0966 C 72.5938,17.1596 72.9618,18.2156 73.2198,19.2166 C 73.4588,19.2906 73.6888,19.3706 73.8838,19.3966 Z" transform=""/><path fill="#ffffff" stroke="none" d="M 79.6358,21.7989 C 79.6888,21.8919 79.8008,21.9699 79.9378,22.0459 C 81.0048,21.5229 82.1148,20.8499 83.2108,20.0859 C 81.8588,20.4379 80.5908,20.8529 79.5008,21.3299 C 79.5178,21.5219 79.5448,21.6919 79.6358,21.7989 Z" transform=""/><path fill="url(#r-223ace1bb49f42578789c97050700334)" stroke="none" d="M 79.6358,21.7989 C 79.6888,21.8919 79.8008,21.9699 79.9378,22.0459 C 81.0048,21.5229 82.1148,20.8499 83.2108,20.0859 C 81.8588,20.4379 80.5908,20.8529 79.5008,21.3299 C 79.5178,21.5219 79.5448,21.6919 79.6358,21.7989 Z" opacity="1" fill-opacity="1" style="opacity: 1;fill-opacity: 1" transform=""/><path fill="url(#r-d59dd06dd05748b68faffc0b0e265c99)" stroke="none" d="M 79.6358,21.7989 C 79.6888,21.8919 79.8008,21.9699 79.9378,22.0459 C 81.0048,21.5229 82.1148,20.8499 83.2108,20.0859 C 81.8588,20.4379 80.5908,20.8529 79.5008,21.3299 C 79.5178,21.5219 79.5448,21.6919 79.6358,21.7989 Z" opacity="1" fill-opacity="1" style="opacity: 1;fill-opacity: 1" transform=""/><path fill="#7a3440" stroke="none" d="M 76.667,19.2804 C 76.678,19.2924 76.687,19.3034 76.696,19.3154 L 83.412,7.14541 L 76.322,18.9224 C 76.453,19.0284 76.562,19.1574 76.667,19.2804 Z" transform=""/><path fill="#7a3440" stroke="none" d="M 75.8818,18.7102 C 76.8158,16.9292 76.8328,15.0602 77.0958,13.2662 C 77.2888,11.1362 77.3548,9.01819 77.3348,6.90919 C 77.2638,9.02919 77.1058,11.1522 76.8238,13.2692 C 76.5158,15.1152 76.2878,17.2332 75.2968,18.7882 C 75.4648,18.7182 75.6448,18.6752 75.8448,18.6992 C 75.8588,18.7002 75.8688,18.7072 75.8818,18.7102 Z" transform=""/><path fill="#7a3440" stroke="none" d="M 78.205,19.9223 C 78.89,18.2413 80.552,16.7073 81.936,15.2953 C 83.56,13.7303 85.271,12.2443 87.025,10.8233 C 85.218,12.1793 83.453,13.6013 81.758,15.1143 C 80.283,16.5683 78.554,17.8833 77.689,19.9243 C 77.849,19.9293 78.025,19.9243 78.205,19.9223 Z" transform=""/><path fill="#ffffff" stroke="none" d="M 68.2743,24.9849 C 68.1263,24.7649 67.9993,24.5259 68.0423,24.2509 C 68.1083,23.9119 68.4053,23.6969 68.6743,23.4969 C 68.7473,23.4449 68.8183,23.3929 68.8863,23.3419 C 67.6123,21.7809 65.2063,20.8519 63.1813,19.9379 C 61.0343,19.0439 58.8453,18.2509 56.6333,17.5349 C 58.8643,18.1719 61.0733,18.8819 63.2603,19.7059 C 65.3123,20.5879 67.5593,21.2329 69.2333,23.0129 C 69.2483,22.9909 69.2673,22.9679 69.2763,22.9479 C 69.2943,22.9089 69.3073,22.8659 69.3163,22.8169 C 69.3383,22.7059 69.3293,22.5709 69.3133,22.4289 L 58.7623,12.3959 L 69.2643,21.6959 C 69.2673,21.6529 69.2623,21.6079 69.2693,21.5669 C 69.2893,21.4519 69.3343,21.3349 69.4143,21.2349 C 69.5703,21.0639 69.7853,20.9689 70.0123,20.9039 C 68.4353,19.5699 67.6393,17.8489 66.6523,16.2769 C 65.5813,14.3569 64.6273,12.4019 63.7553,10.4319 C 64.7103,12.3769 65.7493,14.3049 66.8973,16.1829 C 67.9503,17.7909 69.0423,19.6719 70.5803,20.7859 C 70.8353,20.7429 71.0603,20.6989 71.1793,20.5929 C 71.5463,20.3599 71.5763,19.4569 72.2193,19.1509 C 72.2713,19.1289 72.3253,19.1239 72.3783,19.1149 C 72.2173,18.1969 72.1463,17.1739 72.1493,16.0969 C 70.2953,11.6559 67.1213,7.12792 65.0553,6.18092 C 58.5913,3.21792 58.4963,10.8339 57.8353,11.4629 C 57.2783,11.9929 47.9473,12.6319 51.9343,17.9889 C 53.3923,19.9459 59.5743,23.3489 64.9453,24.8939 C 66.1053,24.8639 67.2323,24.8909 68.2743,24.9849 Z" transform=""/><path fill="#c75e72" stroke="none" d="M 68.2743,24.9849 C 68.1263,24.7649 67.9993,24.5259 68.0423,24.2509 C 68.1083,23.9119 68.4053,23.6969 68.6743,23.4969 C 68.7473,23.4449 68.8183,23.3929 68.8863,23.3419 C 67.6123,21.7809 65.2063,20.8519 63.1813,19.9379 C 61.0343,19.0439 58.8453,18.2509 56.6333,17.5349 C 58.8643,18.1719 61.0733,18.8819 63.2603,19.7059 C 65.3123,20.5879 67.5593,21.2329 69.2333,23.0129 C 69.2483,22.9909 69.2673,22.9679 69.2763,22.9479 C 69.2943,22.9089 69.3073,22.8659 69.3163,22.8169 C 69.3383,22.7059 69.3293,22.5709 69.3133,22.4289 L 58.7623,12.3959 L 69.2643,21.6959 C 69.2673,21.6529 69.2623,21.6079 69.2693,21.5669 C 69.2893,21.4519 69.3343,21.3349 69.4143,21.2349 C 69.5703,21.0639 69.7853,20.9689 70.0123,20.9039 C 68.4353,19.5699 67.6393,17.8489 66.6523,16.2769 C 65.5813,14.3569 64.6273,12.4019 63.7553,10.4319 C 64.7103,12.3769 65.7493,14.3049 66.8973,16.1829 C 67.9503,17.7909 69.0423,19.6719 70.5803,20.7859 C 70.8353,20.7429 71.0603,20.6989 71.1793,20.5929 C 71.5463,20.3599 71.5763,19.4569 72.2193,19.1509 C 72.2713,19.1289 72.3253,19.1239 72.3783,19.1149 C 72.2173,18.1969 72.1463,17.1739 72.1493,16.0969 C 70.2953,11.6559 67.1213,7.12792 65.0553,6.18092 C 58.5913,3.21792 58.4963,10.8339 57.8353,11.4629 C 57.2783,11.9929 47.9473,12.6319 51.9343,17.9889 C 53.3923,19.9459 59.5743,23.3489 64.9453,24.8939 C 66.1053,24.8639 67.2323,24.8909 68.2743,24.9849 Z" transform=""/><path fill="#ffffff" stroke="none" d="M 72.3775,19.1137 C 72.5035,19.0897 72.6305,19.0837 72.7535,19.1017 C 72.9105,19.1247 73.0665,19.1697 73.2185,19.2167 C 72.9595,18.2137 72.5925,17.1587 72.1485,16.0957 C 72.1455,17.1727 72.2165,18.1957 72.3775,19.1137 Z" transform=""/><path fill="url(#r-682d61a71b44427d815b307e6095e7f1)" stroke="none" d="M 72.3775,19.1137 C 72.5035,19.0897 72.6305,19.0837 72.7535,19.1017 C 72.9105,19.1247 73.0665,19.1697 73.2185,19.2167 C 72.9595,18.2137 72.5925,17.1587 72.1485,16.0957 C 72.1455,17.1727 72.2165,18.1957 72.3775,19.1137 Z" opacity="1" fill-opacity="1" style="opacity: 1;fill-opacity: 1" transform=""/><path fill="url(#r-7096397e43a543b48723f8d2f39d0b91)" stroke="none" d="M 72.3775,19.1137 C 72.5035,19.0897 72.6305,19.0837 72.7535,19.1017 C 72.9105,19.1247 73.0665,19.1697 73.2185,19.2167 C 72.9595,18.2137 72.5925,17.1587 72.1485,16.0957 C 72.1455,17.1727 72.2165,18.1957 72.3775,19.1137 Z" opacity="1" fill-opacity="1" style="opacity: 1;fill-opacity: 1" transform=""/><path fill="#7a3440" stroke="none" d="M 69.2646,21.6956 L 58.7626,12.3956 L 69.3136,22.4296 C 69.2896,22.1976 69.2516,21.9426 69.2646,21.6956 Z" transform=""/><path fill="#7a3440" stroke="none" d="M 69.2345,23.014 C 67.5605,21.235 65.3135,20.59 63.2615,19.707 C 61.0745,18.883 58.8645,18.172 56.6335,17.537 C 58.8465,18.253 61.0345,19.045 63.1825,19.94 C 65.2075,20.853 67.6125,21.782 68.8865,23.344 C 69.0405,23.227 69.1655,23.117 69.2345,23.014 Z" transform=""/><path fill="#7a3440" stroke="none" d="M 66.897,16.1826 C 65.75,14.3056 64.71,12.3776 63.755,10.4316 C 64.627,12.4016 65.581,14.3576 66.653,16.2766 C 67.64,17.8486 68.436,19.5696 70.012,20.9046 C 70.201,20.8506 70.398,20.8156 70.58,20.7856 C 69.042,19.6716 67.949,17.7906 66.897,16.1826 Z" transform=""/><path fill="#ffffff" stroke="none" d="M 72.1474,30.5529 C 72.0884,30.5269 72.0184,30.5079 71.9354,30.4959 C 71.6184,30.4479 71.1644,30.5169 70.7604,30.4639 C 70.5864,30.4369 70.4114,30.3859 70.2674,30.2689 C 70.2544,30.2569 70.2484,30.2429 70.2364,30.2309 C 68.5174,30.9999 67.0234,32.5199 65.6324,33.7949 C 64.0244,35.3609 62.5134,36.9939 61.0744,38.6719 C 62.4344,36.9549 63.8674,35.2759 65.4114,33.6549 C 66.8114,32.3249 68.0554,30.7969 70.0144,29.8539 C 69.9674,29.7069 69.9474,29.5509 69.9344,29.3979 L 56.3154,35.2559 L 69.8774,28.8779 C 69.8574,28.7709 69.8284,28.6769 69.7714,28.6089 C 69.6644,28.4209 69.3264,28.2929 68.9964,28.1189 C 67.0394,29.1689 64.8874,29.3089 62.8424,29.6859 C 60.4884,30.0109 58.1304,30.2259 55.7864,30.3659 C 58.1324,30.1469 60.4854,29.8519 62.8194,29.4479 C 64.7464,29.0579 66.9494,28.7189 68.5794,27.8429 C 68.4684,27.7469 68.3734,27.6389 68.3154,27.5049 C 68.2704,27.3849 68.2714,27.2629 68.2934,27.1469 C 68.3744,26.7209 68.7124,26.2939 68.7614,25.9709 C 68.7694,25.9229 68.7734,25.8769 68.7684,25.8369 C 68.7664,25.7819 68.7424,25.7169 68.7114,25.6489 C 67.5624,25.5449 66.2804,25.2779 64.9464,24.8939 C 59.5394,25.0319 53.4044,26.3999 51.7054,27.9359 C 46.5844,32.5669 54.5844,35.0019 55.0424,35.7619 C 55.4294,36.4039 53.2204,44.6069 60.1004,42.8419 C 62.4214,42.2459 67.2884,38.5719 70.6104,34.7599 C 71.0474,33.2549 71.5954,31.8219 72.2354,30.6069 C 72.2054,30.5879 72.1764,30.5649 72.1474,30.5529 Z" transform=""/><path fill="#c75e72" stroke="none" d="M 72.1474,30.5529 C 72.0884,30.5269 72.0184,30.5079 71.9354,30.4959 C 71.6184,30.4479 71.1644,30.5169 70.7604,30.4639 C 70.5864,30.4369 70.4114,30.3859 70.2674,30.2689 C 70.2544,30.2569 70.2484,30.2429 70.2364,30.2309 C 68.5174,30.9999 67.0234,32.5199 65.6324,33.7949 C 64.0244,35.3609 62.5134,36.9939 61.0744,38.6719 C 62.4344,36.9549 63.8674,35.2759 65.4114,33.6549 C 66.8114,32.3249 68.0554,30.7969 70.0144,29.8539 C 69.9674,29.7069 69.9474,29.5509 69.9344,29.3979 L 56.3154,35.2559 L 69.8774,28.8779 C 69.8574,28.7709 69.8284,28.6769 69.7714,28.6089 C 69.6644,28.4209 69.3264,28.2929 68.9964,28.1189 C 67.0394,29.1689 64.8874,29.3089 62.8424,29.6859 C 60.4884,30.0109 58.1304,30.2259 55.7864,30.3659 C 58.1324,30.1469 60.4854,29.8519 62.8194,29.4479 C 64.7464,29.0579 66.9494,28.7189 68.5794,27.8429 C 68.4684,27.7469 68.3734,27.6389 68.3154,27.5049 C 68.2704,27.3849 68.2714,27.2629 68.2934,27.1469 C 68.3744,26.7209 68.7124,26.2939 68.7614,25.9709 C 68.7694,25.9229 68.7734,25.8769 68.7684,25.8369 C 68.7664,25.7819 68.7424,25.7169 68.7114,25.6489 C 67.5624,25.5449 66.2804,25.2779 64.9464,24.8939 C 59.5394,25.0319 53.4044,26.3999 51.7054,27.9359 C 46.5844,32.5669 54.5844,35.0019 55.0424,35.7619 C 55.4294,36.4039 53.2204,44.6069 60.1004,42.8419 C 62.4214,42.2459 67.2884,38.5719 70.6104,34.7599 C 71.0474,33.2549 71.5954,31.8219 72.2354,30.6069 C 72.2054,30.5879 72.1764,30.5649 72.1474,30.5529 Z" transform=""/><path fill="#ffffff" stroke="none" d="M 68.3852,25.1456 C 68.3482,25.0936 68.3112,25.0396 68.2752,24.9846 C 67.2322,24.8906 66.1062,24.8636 64.9462,24.8936 C 66.2812,25.2776 67.5622,25.5446 68.7112,25.6486 C 68.6412,25.5006 68.5162,25.3266 68.3852,25.1456 Z" transform=""/><path fill="url(#r-30d0c490815f48d3b167fdc2b9a794d0)" stroke="none" d="M 68.3852,25.1456 C 68.3482,25.0936 68.3112,25.0396 68.2752,24.9846 C 67.2322,24.8906 66.1062,24.8636 64.9462,24.8936 C 66.2812,25.2776 67.5622,25.5446 68.7112,25.6486 C 68.6412,25.5006 68.5162,25.3266 68.3852,25.1456 Z" opacity="1" fill-opacity="1" style="opacity: 1;fill-opacity: 1" transform=""/><path fill="url(#r-888687d6b6634f91a2a97c5a6c1dd7cd)" stroke="none" d="M 68.3852,25.1456 C 68.3482,25.0936 68.3112,25.0396 68.2752,24.9846 C 67.2322,24.8906 66.1062,24.8636 64.9462,24.8936 C 66.2812,25.2776 67.5622,25.5446 68.7112,25.6486 C 68.6412,25.5006 68.5162,25.3266 68.3852,25.1456 Z" opacity="1" fill-opacity="1" style="opacity: 1;fill-opacity: 1" transform=""/><path fill="#7a3440" stroke="none" d="M 56.3139,35.2573 L 69.9329,29.3993 C 69.9159,29.2103 69.9079,29.0313 69.8789,28.8783 L 56.3139,35.2573 Z" transform=""/><path fill="#7a3440" stroke="none" d="M 65.4096,33.656 C 63.8666,35.277 62.4336,36.955 61.0736,38.673 C 62.5126,36.995 64.0236,35.361 65.6306,33.796 C 67.0226,32.521 68.5166,31.001 70.2346,30.232 C 70.1286,30.121 70.0566,29.993 70.0116,29.855 C 68.0536,30.797 66.8106,32.325 65.4096,33.656 Z" transform=""/><path fill="#7a3440" stroke="none" d="M 62.8194,29.4479 C 60.4854,29.8519 58.1334,30.1469 55.7864,30.3659 C 58.1304,30.2259 60.4884,30.0109 62.8424,29.6859 C 64.8874,29.3089 67.0394,29.1679 68.9964,28.1189 C 68.8464,28.0409 68.7024,27.9509 68.5784,27.8429 C 66.9494,28.7189 64.7454,29.0589 62.8194,29.4479 Z" transform=""/><path fill="#ffffff" stroke="none" d="M 88.3061,43.5866 C 88.3971,41.3636 85.9201,35.8656 82.8351,31.8096 C 81.5571,31.0956 80.3501,30.3236 79.3081,29.5296 C 78.8941,29.6326 78.4581,29.6466 78.2551,29.8016 C 78.3691,31.6676 79.6331,33.6046 80.6361,35.3436 C 81.7881,37.2066 83.0431,39.0086 84.3691,40.7606 C 82.9761,39.0646 81.6501,37.3156 80.4191,35.4906 C 79.4601,33.8956 78.2501,32.3716 77.8491,30.4266 C 77.7111,30.7386 77.5461,31.0746 77.2061,31.2456 L 79.1371,44.4896 L 76.6841,31.3056 C 76.6741,31.3046 76.6651,31.3056 76.6551,31.3046 C 76.2491,31.2446 75.8421,31.0506 75.5221,31.0096 C 75.4781,31.0036 75.4441,31.0066 75.4071,31.0066 C 76.0901,33.1566 75.5341,35.1736 75.2831,37.1666 C 74.8981,39.2876 74.3971,41.3786 73.8191,43.4306 C 74.3151,41.3516 74.7291,39.2416 75.0241,37.1136 C 75.2321,35.1466 75.6011,32.9086 74.9401,31.1436 C 74.8151,31.2126 74.6811,31.2986 74.5441,31.3846 C 74.2591,31.5626 73.9441,31.7566 73.5641,31.7086 C 73.3471,31.6736 73.1801,31.5656 73.0341,31.4356 C 72.4291,32.5056 71.5891,33.6386 70.6111,34.7606 C 69.3061,39.2516 68.9711,44.3706 69.9981,46.1816 C 73.2981,52.0076 78.3361,45.8946 79.2791,45.7366 C 80.0751,45.6056 88.0411,50.0336 88.3061,43.5866 Z" transform=""/><path fill="#c75e72" stroke="none" d="M 88.3061,43.5866 C 88.3971,41.3636 85.9201,35.8656 82.8351,31.8096 C 81.5571,31.0956 80.3501,30.3236 79.3081,29.5296 C 78.8941,29.6326 78.4581,29.6466 78.2551,29.8016 C 78.3691,31.6676 79.6331,33.6046 80.6361,35.3436 C 81.7881,37.2066 83.0431,39.0086 84.3691,40.7606 C 82.9761,39.0646 81.6501,37.3156 80.4191,35.4906 C 79.4601,33.8956 78.2501,32.3716 77.8491,30.4266 C 77.7111,30.7386 77.5461,31.0746 77.2061,31.2456 L 79.1371,44.4896 L 76.6841,31.3056 C 76.6741,31.3046 76.6651,31.3056 76.6551,31.3046 C 76.2491,31.2446 75.8421,31.0506 75.5221,31.0096 C 75.4781,31.0036 75.4441,31.0066 75.4071,31.0066 C 76.0901,33.1566 75.5341,35.1736 75.2831,37.1666 C 74.8981,39.2876 74.3971,41.3786 73.8191,43.4306 C 74.3151,41.3516 74.7291,39.2416 75.0241,37.1136 C 75.2321,35.1466 75.6011,32.9086 74.9401,31.1436 C 74.8151,31.2126 74.6811,31.2986 74.5441,31.3846 C 74.2591,31.5626 73.9441,31.7566 73.5641,31.7086 C 73.3471,31.6736 73.1801,31.5656 73.0341,31.4356 C 72.4291,32.5056 71.5891,33.6386 70.6111,34.7606 C 69.3061,39.2516 68.9711,44.3706 69.9981,46.1816 C 73.2981,52.0076 78.3361,45.8946 79.2791,45.7366 C 80.0751,45.6056 88.0411,50.0336 88.3061,43.5866 Z" transform=""/><path fill="#ffffff" stroke="none" d="M 80.1351,28.8362 S 80.1351,28.8372 80.1351,28.8372 C 80.1161,28.9532 80.0731,29.0682 79.9931,29.1722 C 79.8181,29.3642 79.5691,29.4642 79.3091,29.5292 C 80.3511,30.3232 81.5571,31.0952 82.8361,31.8092 C 81.9681,30.6702 81.0541,29.6432 80.1351,28.8362 Z" transform=""/><path fill="url(#r-de21c7845ea94b53b5798cd616520530)" stroke="none" d="M 80.1351,28.8362 S 80.1351,28.8372 80.1351,28.8372 C 80.1161,28.9532 80.0731,29.0682 79.9931,29.1722 C 79.8181,29.3642 79.5691,29.4642 79.3091,29.5292 C 80.3511,30.3232 81.5571,31.0952 82.8361,31.8092 C 81.9681,30.6702 81.0541,29.6432 80.1351,28.8362 Z" opacity="1" fill-opacity="1" style="opacity: 1;fill-opacity: 1" transform=""/><path fill="url(#r-f9896706ee3b418387324acca6f143d4)" stroke="none" d="M 80.1351,28.8362 S 80.1351,28.8372 80.1351,28.8372 C 80.1161,28.9532 80.0731,29.0682 79.9931,29.1722 C 79.8181,29.3642 79.5691,29.4642 79.3091,29.5292 C 80.3511,30.3232 81.5571,31.0952 82.8361,31.8092 C 81.9681,30.6702 81.0541,29.6432 80.1351,28.8362 Z" opacity="1" fill-opacity="1" style="opacity: 1;fill-opacity: 1" transform=""/><path fill="#ffffff" stroke="none" d="M 72.738,31.1269 C 72.563,30.9129 72.393,30.7109 72.235,30.6069 C 71.594,31.8229 71.047,33.2559 70.609,34.7599 C 71.588,33.6389 72.428,32.5059 73.033,31.4349 C 72.926,31.3399 72.829,31.2329 72.738,31.1269 Z" transform=""/><path fill="url(#r-8dfa68ae094047b5a8d8ed4752c8c1d1)" stroke="none" d="M 72.738,31.1269 C 72.563,30.9129 72.393,30.7109 72.235,30.6069 C 71.594,31.8229 71.047,33.2559 70.609,34.7599 C 71.588,33.6389 72.428,32.5059 73.033,31.4349 C 72.926,31.3399 72.829,31.2329 72.738,31.1269 Z" opacity="1" fill-opacity="1" style="opacity: 1;fill-opacity: 1" transform=""/><path fill="url(#r-57978e929a0f489489e0a68adb8e427c)" stroke="none" d="M 72.738,31.1269 C 72.563,30.9129 72.393,30.7109 72.235,30.6069 C 71.594,31.8229 71.047,33.2559 70.609,34.7599 C 71.588,33.6389 72.428,32.5059 73.033,31.4349 C 72.926,31.3399 72.829,31.2329 72.738,31.1269 Z" opacity="1" fill-opacity="1" style="opacity: 1;fill-opacity: 1" transform=""/><path fill="#7a3440" stroke="none" d="M 76.6836,31.3057 L 79.1376,44.4897 L 77.2066,31.2457 C 77.1996,31.2487 77.1946,31.2547 77.1886,31.2577 C 77.0226,31.3247 76.8476,31.3277 76.6836,31.3057 Z" transform=""/><path fill="#7a3440" stroke="none" d="M 77.8482,30.4269 C 78.2492,32.3709 79.4592,33.8959 80.4192,35.4899 C 81.6502,37.3159 82.9762,39.0649 84.3682,40.7599 C 83.0422,39.0089 81.7872,37.2059 80.6352,35.3429 C 79.6322,33.6039 78.3682,31.6669 78.2552,29.8019 C 78.2472,29.8079 78.2362,29.8109 78.2302,29.8169 C 78.0642,29.9219 77.9652,30.1649 77.8482,30.4269 Z" transform=""/><path fill="#7a3440" stroke="none" d="M 74.9382,31.1435 C 75.5992,32.9095 75.2312,35.1475 75.0222,37.1135 C 74.7282,39.2405 74.3132,41.3505 73.8172,43.4305 C 74.3962,41.3785 74.8972,39.2885 75.2812,37.1675 C 75.5322,35.1735 76.0882,33.1565 75.4052,31.0065 C 75.3702,31.0065 75.3322,31.0005 75.3012,31.0035 C 75.1982,31.0155 75.0742,31.0685 74.9382,31.1435 Z" transform=""/><path fill="#7a3440" stroke="none" d="M 79.7421,27.5404 C 79.7551,27.4714 79.7741,27.4044 79.8031,27.3394 C 79.9431,27.0454 80.2481,26.8564 80.5121,26.6614 C 80.7811,26.4704 80.9911,26.2804 81.0151,26.1054 C 81.0531,25.9304 80.9161,25.6944 80.7251,25.4364 C 80.5441,25.1774 80.3161,24.9114 80.2851,24.5954 C 80.2771,24.5224 80.2841,24.4534 80.2961,24.3844 C 80.3811,23.9494 80.7191,23.5224 80.7661,23.2084 C 80.7811,23.1284 80.7771,23.0594 80.7551,23.0024 C 80.6711,22.6384 79.7311,22.4684 79.3371,21.9704 C 79.0011,21.4274 79.2201,20.5814 78.8991,20.3734 C 78.8301,20.3144 78.7281,20.2774 78.5921,20.2584 C 78.2731,20.2094 77.8191,20.2794 77.4151,20.2244 C 77.3081,20.2094 77.2041,20.1854 77.1031,20.1414 C 76.7891,19.9974 76.5941,19.7144 76.3841,19.4724 C 76.1811,19.2234 75.9791,19.0344 75.7901,19.0144 C 75.6011,18.9804 75.3441,19.1044 75.0661,19.2824 C 74.7861,19.4554 74.5011,19.6704 74.1501,19.7184 C 74.0421,19.7324 73.9341,19.7264 73.8261,19.7114 C 73.4251,19.6504 73.0151,19.4584 72.6991,19.4174 C 72.5601,19.3974 72.4511,19.4044 72.3641,19.4414 C 71.9901,19.5494 71.9091,20.4134 71.4031,20.8364 C 70.8551,21.2014 69.9071,21.1024 69.6991,21.4244 C 69.6601,21.4724 69.6331,21.5374 69.6181,21.6174 C 69.5561,21.9284 69.7331,22.4294 69.6651,22.8674 C 69.6521,22.9354 69.6331,23.0044 69.6041,23.0684 C 69.4641,23.3634 69.1581,23.5504 68.8961,23.7464 C 68.6271,23.9394 68.4151,24.1274 68.3921,24.3034 C 68.3561,24.4754 68.4911,24.7144 68.6811,24.9724 C 68.8621,25.2324 69.0911,25.4974 69.1231,25.8154 C 69.1271,25.8854 69.1231,25.9534 69.1111,26.0224 C 69.0281,26.4564 68.6881,26.8834 68.6411,27.1974 C 68.6271,27.2784 68.6301,27.3484 68.6521,27.4064 C 68.7371,27.7684 69.6741,27.9404 70.0701,28.4404 C 70.4061,28.9834 70.1871,29.8274 70.5071,30.0364 C 70.5761,30.0924 70.6791,30.1294 70.8151,30.1504 C 71.1341,30.1974 71.5861,30.1294 71.9901,30.1844 C 72.0981,30.2004 72.2051,30.2244 72.3031,30.2684 C 72.6161,30.4104 72.8161,30.6944 73.0211,30.9374 C 73.2251,31.1874 73.4271,31.3744 73.6191,31.3964 C 73.8061,31.4284 74.0641,31.3054 74.3421,31.1264 C 74.6211,30.9544 74.9061,30.7394 75.2521,30.6894 C 75.3621,30.6764 75.4731,30.6814 75.5781,30.6964 C 75.9831,30.7554 76.3891,30.9494 76.7081,30.9924 C 76.8461,31.0104 76.9561,31.0044 77.0421,30.9684 C 77.4171,30.8604 77.4971,29.9964 78.0041,29.5734 C 78.5521,29.2084 79.5011,29.3064 79.7061,28.9864 C 79.7491,28.9354 79.7721,28.8714 79.7881,28.7894 C 79.8511,28.4764 79.6731,27.9754 79.7421,27.5404 L 79.7421,27.5404 M 76.4431,29.4424 C 76.3181,29.4914 76.1901,29.4924 76.0681,29.4754 C 75.7851,29.4334 75.4991,29.2974 75.2761,29.2674 C 75.2201,29.2584 75.1701,29.2564 75.1221,29.2644 C 74.8201,29.2784 74.4211,29.8044 73.9051,29.7574 C 73.3961,29.6584 73.2001,29.0454 72.9151,28.9474 C 72.8741,28.9324 72.8241,28.9184 72.7661,28.9104 C 72.5431,28.8734 72.2261,28.9224 71.9441,28.8864 C 71.8191,28.8684 71.6991,28.8314 71.5981,28.7484 C 71.2441,28.4184 71.4411,27.8124 71.2511,27.5864 C 71.1131,27.3424 70.4171,27.2464 70.2321,26.8124 C 70.2011,26.7304 70.2011,26.6444 70.2161,26.5624 C 70.2741,26.2634 70.5111,25.9664 70.5441,25.7404 C 70.5501,25.7064 70.5541,25.6734 70.5511,25.6454 C 70.5571,25.3784 69.9891,25.0014 70.0411,24.5374 C 70.1501,24.0814 70.8201,23.8804 70.9061,23.6254 C 70.9171,23.5974 70.9251,23.5674 70.9321,23.5334 C 70.9771,23.3074 70.8531,22.9574 70.9011,22.6584 C 70.9161,22.5774 70.9431,22.4954 71.0011,22.4254 C 71.3281,22.0664 72.0221,22.1684 72.2371,21.9744 C 72.4941,21.8124 72.5161,21.1804 72.9651,20.9674 C 73.0871,20.9174 73.2171,20.9154 73.3411,20.9324 C 73.6221,20.9754 73.9061,21.1084 74.1311,21.1394 C 74.1881,21.1464 74.2421,21.1494 74.2861,21.1454 C 74.5881,21.1294 74.9871,20.6054 75.5051,20.6514 C 76.0111,20.7514 76.2101,21.3634 76.4931,21.4594 C 76.5341,21.4774 76.5831,21.4904 76.6421,21.4984 C 76.8631,21.5324 77.1811,21.4824 77.4631,21.5214 C 77.5881,21.5394 77.7101,21.5764 77.8091,21.6594 C 78.1641,21.9894 77.9661,22.5944 78.1561,22.8214 C 78.2941,23.0644 78.9911,23.1614 79.1771,23.5944 C 79.2061,23.6784 79.2061,23.7624 79.1931,23.8434 C 79.1361,24.1414 78.8981,24.4404 78.8631,24.6654 C 78.8571,24.6994 78.8561,24.7304 78.8581,24.7614 C 78.8521,25.0284 79.4181,25.4054 79.3681,25.8704 C 79.2571,26.3264 78.5901,26.5294 78.5031,26.7834 C 78.4911,26.8114 78.4831,26.8404 78.4761,26.8734 C 78.4321,27.1004 78.5551,27.4484 78.5071,27.7464 C 78.4931,27.8294 78.4631,27.9094 78.4071,27.9834 C 78.0831,28.3414 77.3861,28.2414 77.1731,28.4354 C 76.9131,28.5944 76.8921,29.2264 76.4431,29.4424 Z" transform=""/><path fill="#ffffff" stroke="none" d="M 80.1351,28.837 S 80.1351,28.836 80.1351,28.836 C 80.2031,28.407 80.0291,27.912 80.0941,27.59 C 80.1001,27.543 80.1121,27.498 80.1311,27.46 C 80.2011,27.295 80.4601,27.104 80.7341,26.909 C 80.7941,26.865 80.8551,26.819 80.9151,26.771 C 81.0511,26.664 81.1791,26.545 81.2661,26.401 C 81.3121,26.326 81.3471,26.245 81.3651,26.154 C 81.4141,25.837 81.2401,25.57 81.0671,25.321 C 81.0511,25.301 81.0381,25.279 81.0241,25.26 C 80.9011,25.094 80.7881,24.934 80.7161,24.793 C 80.6741,24.712 80.6411,24.634 80.6381,24.569 C 80.6341,24.526 80.6381,24.481 80.6461,24.434 C 80.6501,24.403 80.6681,24.367 80.6771,24.334 C 80.7141,24.207 80.7751,24.07 80.8501,23.923 C 80.9571,23.712 81.0721,23.486 81.1161,23.26 C 81.1381,23.143 81.1371,23.022 81.0941,22.902 C 80.8981,22.45 80.3161,22.255 79.9391,22.045 C 79.8021,21.969 79.6901,21.89 79.6371,21.797 C 79.5471,21.69 79.5201,21.521 79.5021,21.328 C 79.4671,20.941 79.4801,20.452 79.1421,20.137 C 79.0011,20.019 78.8241,19.966 78.6481,19.941 C 78.5041,19.922 78.3551,19.92 78.2061,19.922 C 78.0261,19.923 77.8501,19.928 77.6911,19.925 C 77.6131,19.922 77.5391,19.92 77.4721,19.91 C 77.3891,19.897 77.3181,19.879 77.2591,19.853 C 77.0861,19.781 76.8961,19.556 76.6981,19.315 C 76.6881,19.303 76.6791,19.292 76.6681,19.28 C 76.5641,19.157 76.4541,19.028 76.3241,18.921 C 76.2001,18.82 76.0561,18.744 75.8831,18.709 C 75.8701,18.706 75.8611,18.7 75.8471,18.697 C 75.6471,18.673 75.4671,18.716 75.2991,18.786 C 75.1461,18.851 75.0021,18.937 74.8651,19.022 C 74.5791,19.205 74.3051,19.383 74.1051,19.403 C 74.0421,19.411 73.9681,19.408 73.8841,19.396 C 73.6891,19.37 73.4611,19.29 73.2201,19.216 C 73.0681,19.17 72.9121,19.125 72.7551,19.102 C 72.6321,19.084 72.5051,19.09 72.3791,19.114 C 72.3261,19.124 72.2721,19.128 72.2201,19.15 C 71.5771,19.456 71.5471,20.359 71.1801,20.592 C 71.0601,20.698 70.8361,20.742 70.5811,20.785 C 70.3991,20.816 70.2021,20.85 70.0131,20.904 C 69.7861,20.969 69.5711,21.064 69.4151,21.235 C 69.3351,21.335 69.2901,21.452 69.2701,21.567 C 69.2631,21.608 69.2681,21.653 69.2651,21.696 C 69.2521,21.942 69.2901,22.198 69.3141,22.43 C 69.3301,22.572 69.3381,22.707 69.3171,22.818 C 69.3081,22.867 69.2951,22.909 69.2771,22.948 C 69.2681,22.97 69.2491,22.992 69.2341,23.013 C 69.1651,23.117 69.0411,23.228 68.8871,23.343 C 68.8191,23.393 68.7481,23.446 68.6751,23.498 C 68.4071,23.697 68.1091,23.912 68.0431,24.252 C 68.0001,24.527 68.1261,24.765 68.2751,24.986 C 68.3121,25.04 68.3491,25.094 68.3851,25.146 C 68.5171,25.327 68.6421,25.5 68.7111,25.649 C 68.7431,25.717 68.7661,25.782 68.7681,25.837 C 68.7731,25.878 68.7691,25.923 68.7611,25.972 C 68.7121,26.295 68.3741,26.721 68.2931,27.147 C 68.2721,27.263 68.2711,27.385 68.3151,27.506 C 68.3721,27.639 68.4681,27.748 68.5791,27.844 C 68.7031,27.951 68.8471,28.041 68.9971,28.12 C 69.3271,28.294 69.6661,28.422 69.7721,28.61 C 69.8281,28.677 69.8571,28.772 69.8781,28.878 C 69.9081,29.031 69.9161,29.21 69.9331,29.4 C 69.9461,29.552 69.9671,29.708 70.0131,29.855 C 70.0581,29.993 70.1301,30.122 70.2361,30.232 C 70.2481,30.244 70.2541,30.258 70.2671,30.27 C 70.4111,30.386 70.5871,30.438 70.7601,30.465 C 71.1641,30.518 71.6181,30.449 71.9351,30.496 C 72.0181,30.508 72.0881,30.528 72.1471,30.554 C 72.1761,30.566 72.2051,30.588 72.2351,30.607 C 72.3931,30.713 72.5631,30.913 72.7381,31.128 C 72.8291,31.233 72.9261,31.34 73.0331,31.436 C 73.1781,31.567 73.3451,31.675 73.5621,31.709 C 73.9421,31.758 74.2581,31.563 74.5421,31.386 C 74.6801,31.298 74.8141,31.213 74.9381,31.144 C 75.0741,31.07 75.1981,31.016 75.3021,31.005 C 75.3331,31 75.3711,31.007 75.4061,31.008 C 75.4431,31.008 75.4781,31.004 75.5211,31.01 C 75.8411,31.052 76.2481,31.245 76.6541,31.305 C 76.6641,31.306 76.6731,31.305 76.6831,31.306 C 76.8471,31.328 77.0211,31.325 77.1881,31.259 C 77.1951,31.256 77.1991,31.251 77.2051,31.247 C 77.5441,31.076 77.7101,30.739 77.8481,30.428 C 77.9641,30.166 78.0631,29.922 78.2301,29.818 C 78.2371,29.812 78.2471,29.808 78.2551,29.802 C 78.4581,29.648 78.8931,29.633 79.3081,29.53 C 79.5671,29.465 79.8171,29.366 79.9921,29.173 C 80.0731,29.069 80.1151,28.953 80.1351,28.837 L 80.1351,28.837 M 79.7051,28.985 C 79.5011,29.305 78.5511,29.207 78.0031,29.572 C 77.4971,29.995 77.4171,30.859 77.0411,30.967 C 76.9551,31.003 76.8451,31.009 76.7071,30.991 C 76.3891,30.948 75.9821,30.754 75.5781,30.695 C 75.4721,30.68 75.3621,30.675 75.2511,30.688 C 74.9061,30.738 74.6211,30.952 74.3411,31.125 C 74.0631,31.305 73.8051,31.428 73.6181,31.395 C 73.4271,31.372 73.2241,31.185 73.0201,30.936 C 72.8151,30.694 72.6151,30.409 72.3031,30.267 C 72.2051,30.223 72.0981,30.198 71.9901,30.183 C 71.5861,30.128 71.1331,30.196 70.8151,30.149 C 70.6781,30.128 70.5751,30.091 70.5061,30.035 C 70.1861,29.826 70.4061,28.982 70.0691,28.439 C 69.6741,27.939 68.7361,27.767 68.6511,27.405 C 68.6301,27.347 68.6261,27.277 68.6411,27.196 C 68.6881,26.881 69.0271,26.455 69.1101,26.021 C 69.1221,25.952 69.1261,25.884 69.1221,25.814 C 69.0901,25.496 68.8621,25.23 68.6801,24.971 C 68.4901,24.713 68.3551,24.474 68.3911,24.302 C 68.4141,24.127 68.6261,23.938 68.8951,23.745 C 69.1581,23.549 69.4641,23.362 69.6031,23.067 C 69.6331,23.003 69.6511,22.934 69.6641,22.866 C 69.7331,22.428 69.5551,21.927 69.6181,21.616 C 69.6331,21.536 69.6611,21.472 69.6981,21.423 C 69.9061,21.102 70.8551,21.201 71.4021,20.835 C 71.9091,20.412 71.9891,19.548 72.3631,19.44 C 72.4501,19.403 72.5601,19.396 72.6981,19.415 C 73.0151,19.457 73.4241,19.649 73.8261,19.71 C 73.9331,19.725 74.0411,19.731 74.1491,19.717 C 74.5001,19.669 74.7861,19.453 75.0661,19.281 C 75.3431,19.102 75.6001,18.979 75.7891,19.013 C 75.9781,19.032 76.1811,19.222 76.3831,19.471 C 76.5931,19.713 76.7881,19.996 77.1021,20.14 C 77.2031,20.184 77.3071,20.208 77.4141,20.223 C 77.8181,20.278 78.2731,20.207 78.5911,20.257 C 78.7281,20.276 78.8291,20.313 78.8991,20.372 C 79.2191,20.58 79.0001,21.426 79.3361,21.969 C 79.7301,22.466 80.6701,22.637 80.7541,23 C 80.7751,23.059 80.7801,23.127 80.7651,23.207 C 80.7181,23.52 80.3801,23.947 80.2951,24.383 C 80.2841,24.452 80.2771,24.521 80.2841,24.594 C 80.3151,24.91 80.5431,25.175 80.7241,25.435 C 80.9161,25.692 81.0521,25.929 81.0141,26.104 C 80.9901,26.278 80.7811,26.468 80.5111,26.66 C 80.2471,26.855 79.9411,27.044 79.8021,27.338 C 79.7731,27.402 79.7541,27.47 79.7411,27.539 C 79.6721,27.975 79.8511,28.475 79.7871,28.786 C 79.7711,28.869 79.7481,28.934 79.7051,28.985 Z" transform=""/><path fill="#eec65e" stroke="none" d="M 78.4063,27.9824 C 78.4623,27.9084 78.4923,27.8284 78.5063,27.7454 C 78.5543,27.4484 78.4313,27.0994 78.4753,26.8724 C 78.4823,26.8394 78.4903,26.8104 78.5033,26.7824 C 78.5893,26.5274 79.2563,26.3264 79.3673,25.8694 C 79.4173,25.4054 78.8513,25.0284 78.8573,24.7614 C 78.8563,24.7294 78.8563,24.6984 78.8623,24.6654 C 78.8973,24.4384 79.1343,24.1414 79.1923,23.8424 C 79.2063,23.7614 79.2063,23.6774 79.1763,23.5934 C 78.9913,23.1614 78.2933,23.0634 78.1553,22.8204 C 77.9653,22.5944 78.1633,21.9884 77.8083,21.6584 C 77.7093,21.5754 77.5873,21.5384 77.4623,21.5204 C 77.1803,21.4824 76.8623,21.5314 76.6413,21.4974 C 76.5823,21.4894 76.5323,21.4764 76.4923,21.4584 C 76.2093,21.3634 76.0103,20.7504 75.5043,20.6504 C 74.9853,20.6054 74.5873,21.1294 74.2853,21.1454 C 74.2413,21.1484 74.1873,21.1464 74.1303,21.1384 C 73.9053,21.1084 73.6213,20.9744 73.3403,20.9314 C 73.2163,20.9154 73.0863,20.9164 72.9643,20.9664 C 72.5153,21.1804 72.4933,21.8114 72.2363,21.9744 C 72.0223,22.1674 71.3283,22.0664 71.0003,22.4244 C 70.9433,22.4954 70.9153,22.5764 70.9003,22.6574 C 70.8523,22.9574 70.9763,23.3064 70.9313,23.5324 C 70.9243,23.5674 70.9153,23.5974 70.9053,23.6244 C 70.8193,23.8794 70.1493,24.0804 70.0403,24.5364 C 69.9883,25.0004 70.5563,25.3784 70.5503,25.6454 C 70.5533,25.6724 70.5493,25.7054 70.5443,25.7404 C 70.5103,25.9664 70.2743,26.2624 70.2153,26.5614 C 70.2003,26.6434 70.2003,26.7294 70.2313,26.8114 C 70.4163,27.2454 71.1123,27.3424 71.2503,27.5854 C 71.4403,27.8124 71.2433,28.4174 71.5973,28.7484 C 71.6983,28.8294 71.8183,28.8664 71.9433,28.8854 C 72.2253,28.9204 72.5423,28.8724 72.7653,28.9094 C 72.8233,28.9174 72.8733,28.9314 72.9143,28.9474 C 73.1993,29.0444 73.3953,29.6564 73.9053,29.7564 C 74.4203,29.8034 74.8193,29.2774 75.1213,29.2634 C 75.1693,29.2564 75.2193,29.2574 75.2753,29.2674 C 75.4983,29.2964 75.7843,29.4324 76.0673,29.4744 C 76.1893,29.4914 76.3173,29.4914 76.4423,29.4414 C 76.8913,29.2254 76.9123,28.5944 77.1713,28.4334 C 77.3853,28.2404 78.0823,28.3404 78.4063,27.9824 Z" transform=""/></svg>