<svg xmlns="http://www.w3.org/2000/svg" version="1.1" width="170" height="127.5" viewBox="0 0 170 127.5"><defs/><path fill="#bdcccc" stroke="none" d="M 37.649,116.375 C 36.462,115.3 33.792,117.198 33.792,117.198 S 34.466,114.629 33.159,113.845 C 31.895,113.086 31.895,113.023 31.073,112.075 C 31.073,112.075 29.983,113.777 30.694,115.553 C 31.073,116.502 31.642,116.945 32.528,117.45 C 32.528,117.45 32.517,117.463 32.507,117.475 C 32.504,117.478 32.5,117.483 32.496,117.487 C 32.478,117.507 32.451,117.535 32.417,117.569 C 32.412,117.574 32.406,117.579 32.401,117.584 C 32.365,117.619 32.32,117.659 32.268,117.704 C 32.262,117.708 32.257,117.712 32.252,117.717 C 32.195,117.764 32.127,117.816 32.051,117.87 C 32.036,117.881 32.02,117.892 32.005,117.903 C 31.924,117.959 31.833,118.019 31.73,118.08 C 31.722,118.085 31.711,118.09 31.702,118.096 C 31.606,118.151 31.499,118.208 31.384,118.265 C 31.358,118.278 31.332,118.292 31.304,118.305 C 31.181,118.363 31.046,118.422 30.901,118.479 C 30.863,118.494 30.823,118.509 30.784,118.523 C 30.65,118.573 30.507,118.621 30.355,118.668 C 29.945,118.793 29.471,118.903 28.916,118.98 C 28.916,118.98 33.545,102.351 16.795,101.001 C 5.93903,100.124 2.68403,107.969 2.32003,110.28 C 1.50503,115.459 2.44503,120.421 3.18903,121.707 L 3.18803,121.707 C 3.19103,121.711 3.19303,121.716 3.19603,121.72 C 5.16103,125.065 9.90703,127.381 16.036,127.498 C 18.059,127.536 22.452,127.185 26.073,125.965 C 26.42,125.848 26.754,125.718 27.078,125.577 C 27.083,125.574 27.088,125.572 27.094,125.569 C 27.412,125.43 27.719,125.281 28.015,125.122 C 28.024,125.117 28.033,125.112 28.042,125.107 C 28.334,124.95 28.616,124.784 28.887,124.613 C 28.896,124.607 28.905,124.601 28.914,124.595 C 29.184,124.423 29.444,124.245 29.693,124.062 C 29.701,124.056 29.708,124.051 29.715,124.045 C 29.966,123.86 30.206,123.672 30.435,123.48 C 30.439,123.478 30.442,123.475 30.445,123.473 C 31.017,122.994 31.523,122.502 31.963,122.027 L 31.963,122.027 C 31.968,122.022 31.972,122.017 31.977,122.012 C 32.064,121.917 32.149,121.823 32.231,121.73 C 32.231,121.729 32.232,121.729 32.232,121.729 C 33.431,120.37 34.071,119.217 34.16,119.052 C 34.167,119.039 34.172,119.03 34.172,119.03 S 38.408,120.486 40.495,117.83 C 40.495,117.83 38.942,117.547 37.649,116.375 Z" transform=""/><ellipse cx="16.060369251123817" cy="101.85516467507479" rx="0.5488194953437698" ry="0.2534863050360795" fill="#6e6f71" stroke="none" r="NaN" transform=""/><path fill="#688da7" stroke="none" d="M 31.5682,112.645 C 31.5202,112.852 31.4882,112.967 31.4882,112.967 C 31.6042,112.95 31.7152,112.932 31.8242,112.913 C 31.7412,112.833 31.6582,112.746 31.5682,112.645 Z" style="opacity: 0.1" opacity="0.1" transform=""/><path fill="#688da7" stroke="none" d="M 33.7919,117.197 S 33.8469,116.984 33.8949,116.666 C 33.6209,116.932 33.3319,117.197 33.0179,117.46 C 33.0149,117.462 33.0119,117.465 33.0089,117.467 C 32.7789,117.659 32.5389,117.847 32.2889,118.032 C 32.2809,118.038 32.2739,118.043 32.2669,118.049 C 32.0179,118.232 31.7569,118.41 31.4869,118.582 C 31.4779,118.588 31.4689,118.594 31.4609,118.6 C 31.1889,118.772 30.9069,118.937 30.6149,119.094 C 30.6059,119.099 30.5969,119.104 30.5889,119.109 C 30.2919,119.267 29.9849,119.417 29.6669,119.556 C 29.6619,119.559 29.6569,119.561 29.6509,119.564 C 29.3269,119.704 28.9929,119.835 28.6469,119.952 C 25.0259,121.172 20.6319,121.523 18.6089,121.485 C 12.4799,121.368 7.7339,119.052 5.7689,115.707 C 5.7669,115.703 5.7639,115.698 5.7619,115.694 L 5.7619,115.694 C 5.0719,114.501 4.2169,110.148 4.7449,105.393 C 3.1629,107.291 2.4749,109.291 2.3199,110.28 C 1.5049,115.459 2.4439,120.421 3.1879,121.707 L 3.1879,121.707 C 3.1899,121.711 3.1929,121.716 3.1949,121.72 C 5.1609,125.065 9.9069,127.381 16.0349,127.498 C 18.0589,127.536 22.4519,127.185 26.0729,125.965 C 26.4189,125.848 26.7539,125.718 27.0769,125.576 C 27.0829,125.574 27.0879,125.572 27.0939,125.569 C 27.4119,125.43 27.7179,125.281 28.0149,125.122 C 28.0239,125.117 28.0329,125.112 28.0409,125.107 C 28.3339,124.95 28.6149,124.784 28.8869,124.613 C 28.8959,124.607 28.9049,124.601 28.9129,124.595 C 29.1839,124.423 29.4439,124.245 29.6929,124.062 C 29.7009,124.056 29.7079,124.051 29.7149,124.045 C 29.9659,123.86 30.2059,123.672 30.4349,123.48 C 30.4379,123.478 30.4409,123.475 30.4439,123.473 C 31.0169,122.994 31.5229,122.502 31.9629,122.027 L 31.9629,122.027 C 31.9679,122.022 31.9709,122.017 31.9759,122.012 C 32.0639,121.917 32.1479,121.823 32.2309,121.73 C 32.2309,121.729 32.2309,121.729 32.2309,121.729 C 33.4309,120.37 34.0699,119.217 34.1589,119.052 C 34.1669,119.039 34.1719,119.03 34.1719,119.03 S 38.4079,120.486 40.4949,117.83 C 40.4949,117.83 38.9419,117.547 37.6489,116.374 C 36.4629,115.3 33.7919,117.197 33.7919,117.197 Z" style="opacity: 0.1" opacity="0.1" transform=""/><path fill="#808184" stroke="none" d="M 15.563,101.961 C 15.65,102.048 15.839,102.109 16.061,102.109 C 16.282,102.109 16.472,102.048 16.558,101.961 C 16.471,101.875 16.282,101.814 16.061,101.814 C 15.839,101.814 15.65,101.875 15.563,101.961 Z" transform=""/><ellipse cx="14.562539432838356" cy="120.36351283284682" rx="0.6026913476474527" ry="1.001439254430963" fill="#304454" stroke="none" r="NaN" transform=""/><ellipse cx="5.42308329528667" cy="120.36351283284682" rx="0.6026913476474527" ry="1.001439254430963" fill="#304454" stroke="none" r="NaN" transform=""/><path fill="#49bbd6" stroke="none" d="M 15.8381,101.381 S 14.7571,94.3989 18.5111,92.3409 C 21.9841,90.4359 24.1851,93.7129 24.1751,94.6319 C 24.1681,95.1919 23.6901,95.6009 22.9551,95.0659 C 22.2201,94.5319 22.2371,92.9119 20.8341,92.6269 C 19.5221,92.3619 17.5741,92.6579 16.5071,95.8499 C 15.6051,98.5479 15.8381,101.381 15.8381,101.381 Z" transform=""/><path fill="#49bbd6" stroke="none" d="M 15.8381,94.2477 S 14.8181,91.2257 12.7891,91.0157 C 10.4961,90.7777 8.31615,92.5357 8.30415,93.9467 C 8.29715,94.6487 9.19315,94.7997 10.0951,93.7967 C 10.9981,92.7947 11.4731,91.5667 13.1901,91.7797 C 14.5201,91.9437 15.8381,94.2477 15.8381,94.2477 Z" transform=""/><path fill="#49bbd6" stroke="none" d="M 16.6068,92.0596 S 17.2838,90.1386 18.8538,89.0356 C 20.4238,87.9336 22.2338,87.9966 22.1398,88.7976 C 22.0488,89.5746 20.5308,89.0676 19.0448,89.8356 C 17.5228,90.6216 16.6068,92.0596 16.6068,92.0596 Z" transform=""/><path fill="#49bbd6" stroke="none" d="M 15.1195,90.8711 S 14.6675,88.6571 12.8805,87.8471 C 11.4775,87.2121 10.2675,87.3611 10.2655,88.0311 C 10.2645,88.6991 11.8465,88.3581 12.9475,88.8001 C 14.5495,89.4421 15.1195,90.8711 15.1195,90.8711 Z" transform=""/><path fill="#49bbd6" stroke="none" d="M 16.2215,90.0524 S 18.2275,85.1014 16.3985,85.0014 C 14.5685,84.9014 16.2215,90.0524 16.2215,90.0524 Z" transform=""/><path fill="#bdcccc" stroke="none" d="M 80.149,116.375 C 78.962,115.3 76.292,117.198 76.292,117.198 S 76.966,114.629 75.659,113.845 C 74.395,113.086 74.395,113.023 73.573,112.075 C 73.573,112.075 72.483,113.777 73.194,115.553 C 73.573,116.502 74.142,116.945 75.028,117.45 C 75.028,117.45 75.017,117.463 75.007,117.475 C 75.004,117.478 75,117.483 74.996,117.487 C 74.978,117.507 74.951,117.535 74.917,117.569 C 74.912,117.574 74.906,117.579 74.901,117.584 C 74.865,117.619 74.82,117.659 74.768,117.704 C 74.762,117.708 74.757,117.712 74.752,117.717 C 74.695,117.764 74.627,117.816 74.551,117.87 C 74.536,117.881 74.52,117.892 74.505,117.903 C 74.424,117.959 74.333,118.019 74.23,118.08 C 74.222,118.085 74.211,118.09 74.202,118.096 C 74.106,118.151 73.999,118.208 73.884,118.265 C 73.858,118.278 73.832,118.292 73.804,118.305 C 73.681,118.363 73.546,118.422 73.401,118.479 C 73.363,118.494 73.323,118.509 73.284,118.523 C 73.15,118.573 73.007,118.621 72.855,118.668 C 72.445,118.793 71.971,118.903 71.416,118.98 C 71.416,118.98 76.045,102.351 59.295,101.001 C 48.439,100.124 45.184,107.969 44.82,110.28 C 44.005,115.459 44.945,120.421 45.689,121.707 L 45.688,121.707 C 45.691,121.711 45.693,121.716 45.696,121.72 C 47.661,125.065 52.407,127.381 58.536,127.498 C 60.559,127.536 64.952,127.185 68.573,125.965 C 68.92,125.848 69.254,125.718 69.578,125.577 C 69.583,125.574 69.588,125.572 69.594,125.569 C 69.912,125.43 70.219,125.281 70.515,125.122 C 70.524,125.117 70.533,125.112 70.542,125.107 C 70.834,124.95 71.116,124.784 71.387,124.613 C 71.396,124.607 71.405,124.601 71.414,124.595 C 71.684,124.423 71.944,124.245 72.193,124.062 C 72.201,124.056 72.208,124.051 72.215,124.045 C 72.466,123.86 72.706,123.672 72.935,123.48 C 72.939,123.478 72.942,123.475 72.945,123.473 C 73.517,122.994 74.023,122.502 74.463,122.027 L 74.463,122.027 C 74.468,122.022 74.472,122.017 74.477,122.012 C 74.564,121.917 74.649,121.823 74.731,121.73 C 74.731,121.729 74.732,121.729 74.732,121.729 C 75.931,120.37 76.571,119.217 76.66,119.052 C 76.667,119.039 76.672,119.03 76.672,119.03 S 80.908,120.486 82.995,117.83 C 82.995,117.83 81.442,117.547 80.149,116.375 Z" transform=""/><ellipse cx="58.56036925112382" cy="101.85516467507479" rx="0.5488194953437698" ry="0.2534863050360795" fill="#6e6f71" stroke="none" r="NaN" transform=""/><path fill="#688da7" stroke="none" d="M 74.0682,112.645 C 74.0202,112.852 73.9882,112.967 73.9882,112.967 C 74.1042,112.95 74.2152,112.932 74.3242,112.913 C 74.2412,112.833 74.1582,112.746 74.0682,112.645 Z" style="opacity: 0.1" opacity="0.1" transform=""/><path fill="#688da7" stroke="none" d="M 76.2919,117.197 S 76.3469,116.984 76.3949,116.666 C 76.1209,116.932 75.8319,117.197 75.5179,117.46 C 75.5149,117.462 75.5119,117.465 75.5089,117.467 C 75.2789,117.659 75.0389,117.847 74.7889,118.032 C 74.7809,118.038 74.7739,118.043 74.7669,118.049 C 74.5179,118.232 74.2569,118.41 73.9869,118.582 C 73.9779,118.588 73.9689,118.594 73.9609,118.6 C 73.6889,118.772 73.4069,118.937 73.1149,119.094 C 73.1059,119.099 73.0969,119.104 73.0889,119.109 C 72.7919,119.267 72.4849,119.417 72.1669,119.556 C 72.1619,119.559 72.1569,119.561 72.1509,119.564 C 71.8269,119.704 71.4929,119.835 71.1469,119.952 C 67.5259,121.172 63.1319,121.523 61.1089,121.485 C 54.9799,121.368 50.2339,119.052 48.2689,115.707 C 48.2669,115.703 48.2639,115.698 48.2619,115.694 L 48.2619,115.694 C 47.5719,114.501 46.7169,110.148 47.2449,105.393 C 45.6629,107.291 44.9749,109.291 44.8199,110.28 C 44.0049,115.459 44.9439,120.421 45.6879,121.707 L 45.6879,121.707 C 45.6899,121.711 45.6929,121.716 45.6949,121.72 C 47.6609,125.065 52.4069,127.381 58.5349,127.498 C 60.5589,127.536 64.9519,127.185 68.5729,125.965 C 68.9189,125.848 69.2539,125.718 69.5769,125.576 C 69.5829,125.574 69.5879,125.572 69.5939,125.569 C 69.9119,125.43 70.2179,125.281 70.5149,125.122 C 70.5239,125.117 70.5329,125.112 70.5409,125.107 C 70.8339,124.95 71.1149,124.784 71.3869,124.613 C 71.3959,124.607 71.4049,124.601 71.4129,124.595 C 71.6839,124.423 71.9439,124.245 72.1929,124.062 C 72.2009,124.056 72.2079,124.051 72.2149,124.045 C 72.4659,123.86 72.7059,123.672 72.9349,123.48 C 72.9379,123.478 72.9409,123.475 72.9439,123.473 C 73.5169,122.994 74.0229,122.502 74.4629,122.027 L 74.4629,122.027 C 74.4679,122.022 74.4709,122.017 74.4759,122.012 C 74.5639,121.917 74.6479,121.823 74.7309,121.73 C 74.7309,121.729 74.7309,121.729 74.7309,121.729 C 75.9309,120.37 76.5699,119.217 76.6589,119.052 C 76.6669,119.039 76.6719,119.03 76.6719,119.03 S 80.9079,120.486 82.9949,117.83 C 82.9949,117.83 81.4419,117.547 80.1489,116.374 C 78.9629,115.3 76.2919,117.197 76.2919,117.197 Z" style="opacity: 0.1" opacity="0.1" transform=""/><path fill="#808184" stroke="none" d="M 58.063,101.961 C 58.15,102.048 58.339,102.109 58.561,102.109 C 58.782,102.109 58.972,102.048 59.058,101.961 C 58.971,101.875 58.782,101.814 58.561,101.814 C 58.339,101.814 58.15,101.875 58.063,101.961 Z" transform=""/><ellipse cx="57.062539432838356" cy="120.36351283284682" rx="0.6026913476474527" ry="1.001439254430963" fill="#304454" stroke="none" r="NaN" transform=""/><ellipse cx="47.923083295286666" cy="120.36351283284682" rx="0.6026913476474527" ry="1.001439254430963" fill="#304454" stroke="none" r="NaN" transform=""/><path fill="#49bbd6" stroke="none" d="M 58.3381,101.381 S 57.2571,94.3989 61.0111,92.3409 C 64.4841,90.4359 66.6851,93.7129 66.6751,94.6319 C 66.6681,95.1919 66.1901,95.6009 65.4551,95.0659 C 64.7201,94.5319 64.7371,92.9119 63.3341,92.6269 C 62.0221,92.3619 60.0741,92.6579 59.0071,95.8499 C 58.1051,98.5479 58.3381,101.381 58.3381,101.381 Z" transform=""/><path fill="#49bbd6" stroke="none" d="M 58.3381,94.2477 S 57.3181,91.2257 55.2891,91.0157 C 52.9961,90.7777 50.8161,92.5357 50.8041,93.9467 C 50.7971,94.6487 51.6931,94.7997 52.5951,93.7967 C 53.4981,92.7947 53.9731,91.5667 55.6901,91.7797 C 57.0201,91.9437 58.3381,94.2477 58.3381,94.2477 Z" transform=""/><path fill="#49bbd6" stroke="none" d="M 59.1068,92.0596 S 59.7838,90.1386 61.3538,89.0356 C 62.9238,87.9336 64.7338,87.9966 64.6398,88.7976 C 64.5488,89.5746 63.0308,89.0676 61.5448,89.8356 C 60.0228,90.6216 59.1068,92.0596 59.1068,92.0596 Z" transform=""/><path fill="#49bbd6" stroke="none" d="M 57.6195,90.8711 S 57.1675,88.6571 55.3805,87.8471 C 53.9775,87.2121 52.7675,87.3611 52.7655,88.0311 C 52.7645,88.6991 54.3465,88.3581 55.4475,88.8001 C 57.0495,89.4421 57.6195,90.8711 57.6195,90.8711 Z" transform=""/><path fill="#49bbd6" stroke="none" d="M 58.7215,90.0524 S 60.7275,85.1014 58.8985,85.0014 C 57.0685,84.9014 58.7215,90.0524 58.7215,90.0524 Z" transform=""/><path fill="#bdcccc" stroke="none" d="M 122.649,116.375 C 121.462,115.3 118.792,117.198 118.792,117.198 S 119.466,114.629 118.159,113.845 C 116.895,113.086 116.895,113.023 116.073,112.075 C 116.073,112.075 114.983,113.777 115.694,115.553 C 116.073,116.502 116.642,116.945 117.528,117.45 C 117.528,117.45 117.517,117.463 117.507,117.475 C 117.504,117.478 117.5,117.483 117.496,117.487 C 117.478,117.507 117.451,117.535 117.417,117.569 C 117.412,117.574 117.406,117.579 117.401,117.584 C 117.365,117.619 117.32,117.659 117.268,117.704 C 117.262,117.708 117.257,117.712 117.252,117.717 C 117.195,117.764 117.127,117.816 117.051,117.87 C 117.036,117.881 117.02,117.892 117.005,117.903 C 116.924,117.959 116.833,118.019 116.73,118.08 C 116.722,118.085 116.711,118.09 116.702,118.096 C 116.606,118.151 116.499,118.208 116.384,118.265 C 116.358,118.278 116.332,118.292 116.304,118.305 C 116.181,118.363 116.046,118.422 115.901,118.479 C 115.863,118.494 115.823,118.509 115.784,118.523 C 115.65,118.573 115.507,118.621 115.355,118.668 C 114.945,118.793 114.471,118.903 113.916,118.98 C 113.916,118.98 118.545,102.351 101.795,101.001 C 90.939,100.124 87.684,107.969 87.32,110.28 C 86.505,115.459 87.445,120.421 88.189,121.707 L 88.188,121.707 C 88.191,121.711 88.193,121.716 88.196,121.72 C 90.161,125.065 94.907,127.381 101.036,127.498 C 103.059,127.536 107.452,127.185 111.073,125.965 C 111.42,125.848 111.754,125.718 112.078,125.577 C 112.083,125.574 112.088,125.572 112.094,125.569 C 112.412,125.43 112.719,125.281 113.015,125.122 C 113.024,125.117 113.033,125.112 113.042,125.107 C 113.334,124.95 113.616,124.784 113.887,124.613 C 113.896,124.607 113.905,124.601 113.914,124.595 C 114.184,124.423 114.444,124.245 114.693,124.062 C 114.701,124.056 114.708,124.051 114.715,124.045 C 114.966,123.86 115.206,123.672 115.435,123.48 C 115.439,123.478 115.442,123.475 115.445,123.473 C 116.017,122.994 116.523,122.502 116.963,122.027 L 116.963,122.027 C 116.968,122.022 116.972,122.017 116.977,122.012 C 117.064,121.917 117.149,121.823 117.231,121.73 C 117.231,121.729 117.232,121.729 117.232,121.729 C 118.431,120.37 119.071,119.217 119.16,119.052 C 119.167,119.039 119.172,119.03 119.172,119.03 S 123.408,120.486 125.495,117.83 C 125.495,117.83 123.942,117.547 122.649,116.375 Z" transform=""/><ellipse cx="101.06036925112382" cy="101.85516467507479" rx="0.5488194953437698" ry="0.2534863050360795" fill="#6e6f71" stroke="none" r="NaN" transform=""/><path fill="#688da7" stroke="none" d="M 116.568,112.645 C 116.52,112.852 116.488,112.967 116.488,112.967 C 116.604,112.95 116.715,112.932 116.824,112.913 C 116.741,112.833 116.658,112.746 116.568,112.645 Z" style="opacity: 0.1" opacity="0.1" transform=""/><path fill="#688da7" stroke="none" d="M 118.792,117.197 S 118.847,116.984 118.895,116.666 C 118.621,116.932 118.332,117.197 118.018,117.46 C 118.015,117.462 118.012,117.465 118.009,117.467 C 117.779,117.659 117.539,117.847 117.289,118.032 C 117.281,118.038 117.274,118.043 117.267,118.049 C 117.018,118.232 116.757,118.41 116.487,118.582 C 116.478,118.588 116.469,118.594 116.461,118.6 C 116.189,118.772 115.907,118.937 115.615,119.094 C 115.606,119.099 115.597,119.104 115.589,119.109 C 115.292,119.267 114.985,119.417 114.667,119.556 C 114.662,119.559 114.657,119.561 114.651,119.564 C 114.327,119.704 113.993,119.835 113.647,119.952 C 110.026,121.172 105.632,121.523 103.609,121.485 C 97.4799,121.368 92.7339,119.052 90.7689,115.707 C 90.7669,115.703 90.7639,115.698 90.7619,115.694 L 90.7619,115.694 C 90.0719,114.501 89.2169,110.148 89.7449,105.393 C 88.1629,107.291 87.4749,109.291 87.3199,110.28 C 86.5049,115.459 87.4439,120.421 88.1879,121.707 L 88.1879,121.707 C 88.1899,121.711 88.1929,121.716 88.1949,121.72 C 90.1609,125.065 94.9069,127.381 101.035,127.498 C 103.059,127.536 107.452,127.185 111.073,125.965 C 111.419,125.848 111.754,125.718 112.077,125.576 C 112.083,125.574 112.088,125.572 112.094,125.569 C 112.412,125.43 112.718,125.281 113.015,125.122 C 113.024,125.117 113.033,125.112 113.041,125.107 C 113.334,124.95 113.615,124.784 113.887,124.613 C 113.896,124.607 113.905,124.601 113.913,124.595 C 114.184,124.423 114.444,124.245 114.693,124.062 C 114.701,124.056 114.708,124.051 114.715,124.045 C 114.966,123.86 115.206,123.672 115.435,123.48 C 115.438,123.478 115.441,123.475 115.444,123.473 C 116.017,122.994 116.523,122.502 116.963,122.027 L 116.963,122.027 C 116.968,122.022 116.971,122.017 116.976,122.012 C 117.064,121.917 117.148,121.823 117.231,121.73 C 117.231,121.729 117.231,121.729 117.231,121.729 C 118.431,120.37 119.07,119.217 119.159,119.052 C 119.167,119.039 119.172,119.03 119.172,119.03 S 123.408,120.486 125.495,117.83 C 125.495,117.83 123.942,117.547 122.649,116.374 C 121.463,115.3 118.792,117.197 118.792,117.197 Z" style="opacity: 0.1" opacity="0.1" transform=""/><path fill="#808184" stroke="none" d="M 100.563,101.961 C 100.65,102.048 100.839,102.109 101.061,102.109 C 101.282,102.109 101.472,102.048 101.558,101.961 C 101.471,101.875 101.282,101.814 101.061,101.814 C 100.839,101.814 100.65,101.875 100.563,101.961 Z" transform=""/><ellipse cx="99.56253943283835" cy="120.36351283284682" rx="0.6026913476474527" ry="1.001439254430963" fill="#304454" stroke="none" r="NaN" transform=""/><ellipse cx="90.42308329528667" cy="120.36351283284682" rx="0.6026913476474527" ry="1.001439254430963" fill="#304454" stroke="none" r="NaN" transform=""/><path fill="#49bbd6" stroke="none" d="M 100.838,101.381 S 99.7571,94.3989 103.511,92.3409 C 106.984,90.4359 109.185,93.7129 109.175,94.6319 C 109.168,95.1919 108.69,95.6009 107.955,95.0659 C 107.22,94.5319 107.237,92.9119 105.834,92.6269 C 104.522,92.3619 102.574,92.6579 101.507,95.8499 C 100.605,98.5479 100.838,101.381 100.838,101.381 Z" transform=""/><path fill="#49bbd6" stroke="none" d="M 100.838,94.2477 S 99.8181,91.2257 97.7891,91.0157 C 95.4961,90.7777 93.3161,92.5357 93.3041,93.9467 C 93.2971,94.6487 94.1931,94.7997 95.0951,93.7967 C 95.9981,92.7947 96.4731,91.5667 98.1901,91.7797 C 99.5201,91.9437 100.838,94.2477 100.838,94.2477 Z" transform=""/><path fill="#49bbd6" stroke="none" d="M 101.607,92.0596 S 102.284,90.1386 103.854,89.0356 C 105.424,87.9336 107.234,87.9966 107.14,88.7976 C 107.049,89.5746 105.531,89.0676 104.045,89.8356 C 102.523,90.6216 101.607,92.0596 101.607,92.0596 Z" transform=""/><path fill="#49bbd6" stroke="none" d="M 100.12,90.8711 S 99.6675,88.6571 97.8805,87.8471 C 96.4775,87.2121 95.2675,87.3611 95.2655,88.0311 C 95.2645,88.6991 96.8465,88.3581 97.9475,88.8001 C 99.5495,89.4421 100.12,90.8711 100.12,90.8711 Z" transform=""/><path fill="#49bbd6" stroke="none" d="M 101.222,90.0524 S 103.228,85.1014 101.399,85.0014 C 99.5685,84.9014 101.222,90.0524 101.222,90.0524 Z" transform=""/><path fill="#bdcccc" stroke="none" d="M 165.149,116.375 C 163.962,115.3 161.292,117.198 161.292,117.198 S 161.966,114.629 160.659,113.845 C 159.395,113.086 159.395,113.023 158.573,112.075 C 158.573,112.075 157.483,113.777 158.194,115.553 C 158.573,116.502 159.142,116.945 160.028,117.45 C 160.028,117.45 160.017,117.463 160.007,117.475 C 160.004,117.478 160,117.483 159.996,117.487 C 159.978,117.507 159.951,117.535 159.917,117.569 C 159.912,117.574 159.906,117.579 159.901,117.584 C 159.865,117.619 159.82,117.659 159.768,117.704 C 159.762,117.708 159.757,117.712 159.752,117.717 C 159.695,117.764 159.627,117.816 159.551,117.87 C 159.536,117.881 159.52,117.892 159.505,117.903 C 159.424,117.959 159.333,118.019 159.23,118.08 C 159.222,118.085 159.211,118.09 159.202,118.096 C 159.106,118.151 158.999,118.208 158.884,118.265 C 158.858,118.278 158.832,118.292 158.804,118.305 C 158.681,118.363 158.546,118.422 158.401,118.479 C 158.363,118.494 158.323,118.509 158.284,118.523 C 158.15,118.573 158.007,118.621 157.855,118.668 C 157.445,118.793 156.971,118.903 156.416,118.98 C 156.416,118.98 161.045,102.351 144.295,101.001 C 133.439,100.124 130.184,107.969 129.82,110.28 C 129.005,115.459 129.945,120.421 130.689,121.707 L 130.688,121.707 C 130.691,121.711 130.693,121.716 130.696,121.72 C 132.661,125.065 137.407,127.381 143.536,127.498 C 145.559,127.536 149.952,127.185 153.573,125.965 C 153.92,125.848 154.254,125.718 154.578,125.577 C 154.583,125.574 154.588,125.572 154.594,125.569 C 154.912,125.43 155.219,125.281 155.515,125.122 C 155.524,125.117 155.533,125.112 155.542,125.107 C 155.834,124.95 156.116,124.784 156.387,124.613 C 156.396,124.607 156.405,124.601 156.414,124.595 C 156.684,124.423 156.944,124.245 157.193,124.062 C 157.201,124.056 157.208,124.051 157.215,124.045 C 157.466,123.86 157.706,123.672 157.935,123.48 C 157.939,123.478 157.942,123.475 157.945,123.473 C 158.517,122.994 159.023,122.502 159.463,122.027 L 159.463,122.027 C 159.468,122.022 159.472,122.017 159.477,122.012 C 159.564,121.917 159.649,121.823 159.731,121.73 C 159.731,121.729 159.732,121.729 159.732,121.729 C 160.931,120.37 161.571,119.217 161.66,119.052 C 161.667,119.039 161.672,119.03 161.672,119.03 S 165.908,120.486 167.995,117.83 C 167.995,117.83 166.442,117.547 165.149,116.375 Z" transform=""/><ellipse cx="143.5603692511238" cy="101.85516467507479" rx="0.5488194953437698" ry="0.2534863050360795" fill="#6e6f71" stroke="none" r="NaN" transform=""/><path fill="#688da7" stroke="none" d="M 159.068,112.645 C 159.02,112.852 158.988,112.967 158.988,112.967 C 159.104,112.95 159.215,112.932 159.324,112.913 C 159.241,112.833 159.158,112.746 159.068,112.645 Z" style="opacity: 0.1" opacity="0.1" transform=""/><path fill="#688da7" stroke="none" d="M 161.292,117.197 S 161.347,116.984 161.395,116.666 C 161.121,116.932 160.832,117.197 160.518,117.46 C 160.515,117.462 160.512,117.465 160.509,117.467 C 160.279,117.659 160.039,117.847 159.789,118.032 C 159.781,118.038 159.774,118.043 159.767,118.049 C 159.518,118.232 159.257,118.41 158.987,118.582 C 158.978,118.588 158.969,118.594 158.961,118.6 C 158.689,118.772 158.407,118.937 158.115,119.094 C 158.106,119.099 158.097,119.104 158.089,119.109 C 157.792,119.267 157.485,119.417 157.167,119.556 C 157.162,119.559 157.157,119.561 157.151,119.564 C 156.827,119.704 156.493,119.835 156.147,119.952 C 152.526,121.172 148.132,121.523 146.109,121.485 C 139.98,121.368 135.234,119.052 133.269,115.707 C 133.267,115.703 133.264,115.698 133.262,115.694 L 133.262,115.694 C 132.572,114.501 131.717,110.148 132.245,105.393 C 130.663,107.291 129.975,109.291 129.82,110.28 C 129.005,115.459 129.944,120.421 130.688,121.707 L 130.688,121.707 C 130.69,121.711 130.693,121.716 130.695,121.72 C 132.661,125.065 137.407,127.381 143.535,127.498 C 145.559,127.536 149.952,127.185 153.573,125.965 C 153.919,125.848 154.254,125.718 154.577,125.576 C 154.583,125.574 154.588,125.572 154.594,125.569 C 154.912,125.43 155.218,125.281 155.515,125.122 C 155.524,125.117 155.533,125.112 155.541,125.107 C 155.834,124.95 156.115,124.784 156.387,124.613 C 156.396,124.607 156.405,124.601 156.413,124.595 C 156.684,124.423 156.944,124.245 157.193,124.062 C 157.201,124.056 157.208,124.051 157.215,124.045 C 157.466,123.86 157.706,123.672 157.935,123.48 C 157.938,123.478 157.941,123.475 157.944,123.473 C 158.517,122.994 159.023,122.502 159.463,122.027 L 159.463,122.027 C 159.468,122.022 159.471,122.017 159.476,122.012 C 159.564,121.917 159.648,121.823 159.731,121.73 C 159.731,121.729 159.731,121.729 159.731,121.729 C 160.931,120.37 161.57,119.217 161.659,119.052 C 161.667,119.039 161.672,119.03 161.672,119.03 S 165.908,120.486 167.995,117.83 C 167.995,117.83 166.442,117.547 165.149,116.374 C 163.963,115.3 161.292,117.197 161.292,117.197 Z" style="opacity: 0.1" opacity="0.1" transform=""/><path fill="#808184" stroke="none" d="M 143.063,101.961 C 143.15,102.048 143.339,102.109 143.561,102.109 C 143.782,102.109 143.972,102.048 144.058,101.961 C 143.971,101.875 143.782,101.814 143.561,101.814 C 143.339,101.814 143.15,101.875 143.063,101.961 Z" transform=""/><ellipse cx="142.06253943283835" cy="120.36351283284682" rx="0.6026913476474527" ry="1.001439254430963" fill="#304454" stroke="none" r="NaN" transform=""/><ellipse cx="132.92308329528666" cy="120.36351283284682" rx="0.6026913476474527" ry="1.001439254430963" fill="#304454" stroke="none" r="NaN" transform=""/><path fill="#49bbd6" stroke="none" d="M 143.338,101.381 S 142.257,94.3989 146.011,92.3409 C 149.484,90.4359 151.685,93.7129 151.675,94.6319 C 151.668,95.1919 151.19,95.6009 150.455,95.0659 C 149.72,94.5319 149.737,92.9119 148.334,92.6269 C 147.022,92.3619 145.074,92.6579 144.007,95.8499 C 143.105,98.5479 143.338,101.381 143.338,101.381 Z" transform=""/><path fill="#49bbd6" stroke="none" d="M 143.338,94.2477 S 142.318,91.2257 140.289,91.0157 C 137.996,90.7777 135.816,92.5357 135.804,93.9467 C 135.797,94.6487 136.693,94.7997 137.595,93.7967 C 138.498,92.7947 138.973,91.5667 140.69,91.7797 C 142.02,91.9437 143.338,94.2477 143.338,94.2477 Z" transform=""/><path fill="#49bbd6" stroke="none" d="M 144.107,92.0596 S 144.784,90.1386 146.354,89.0356 C 147.924,87.9336 149.734,87.9966 149.64,88.7976 C 149.549,89.5746 148.031,89.0676 146.545,89.8356 C 145.023,90.6216 144.107,92.0596 144.107,92.0596 Z" transform=""/><path fill="#49bbd6" stroke="none" d="M 142.62,90.8711 S 142.168,88.6571 140.381,87.8471 C 138.978,87.2121 137.768,87.3611 137.766,88.0311 C 137.765,88.6991 139.347,88.3581 140.448,88.8001 C 142.05,89.4421 142.62,90.8711 142.62,90.8711 Z" transform=""/><path fill="#49bbd6" stroke="none" d="M 143.722,90.0524 S 145.728,85.1014 143.899,85.0014 C 142.069,84.9014 143.722,90.0524 143.722,90.0524 Z" transform=""/><path fill="#bdcccc" stroke="none" d="M 37.649,73.8746 C 36.462,72.7996 33.792,74.6976 33.792,74.6976 S 34.466,72.1286 33.159,71.3446 C 31.895,70.5856 31.895,70.5226 31.073,69.5746 C 31.073,69.5746 29.983,71.2766 30.694,73.0526 C 31.073,74.0016 31.642,74.4446 32.528,74.9496 C 32.528,74.9496 32.517,74.9626 32.507,74.9746 C 32.504,74.9776 32.5,74.9826 32.496,74.9866 C 32.478,75.0066 32.451,75.0346 32.417,75.0686 C 32.412,75.0736 32.406,75.0786 32.401,75.0836 C 32.365,75.1186 32.32,75.1586 32.268,75.2036 C 32.262,75.2076 32.257,75.2116 32.252,75.2166 C 32.195,75.2636 32.127,75.3156 32.051,75.3696 C 32.036,75.3806 32.02,75.3916 32.005,75.4026 C 31.924,75.4586 31.833,75.5186 31.73,75.5796 C 31.722,75.5846 31.711,75.5896 31.702,75.5956 C 31.606,75.6506 31.499,75.7076 31.384,75.7646 C 31.358,75.7776 31.332,75.7916 31.304,75.8046 C 31.181,75.8626 31.046,75.9216 30.901,75.9786 C 30.863,75.9936 30.823,76.0086 30.784,76.0226 C 30.65,76.0726 30.507,76.1206 30.355,76.1676 C 29.945,76.2926 29.471,76.4026 28.916,76.4796 C 28.916,76.4796 33.545,59.8506 16.795,58.5006 C 5.93903,57.6236 2.68403,65.4686 2.32003,67.7796 C 1.50503,72.9586 2.44503,77.9206 3.18903,79.2066 L 3.18803,79.2066 C 3.19103,79.2106 3.19303,79.2156 3.19603,79.2196 C 5.16103,82.5646 9.90703,84.8806 16.036,84.9976 C 18.059,85.0356 22.452,84.6846 26.073,83.4646 C 26.42,83.3476 26.754,83.2176 27.078,83.0766 C 27.083,83.0736 27.088,83.0716 27.094,83.0686 C 27.412,82.9296 27.719,82.7806 28.015,82.6216 C 28.024,82.6166 28.033,82.6116 28.042,82.6066 C 28.334,82.4496 28.616,82.2836 28.887,82.1126 C 28.896,82.1066 28.905,82.1006 28.914,82.0946 C 29.184,81.9226 29.444,81.7446 29.693,81.5616 C 29.701,81.5556 29.708,81.5506 29.715,81.5446 C 29.966,81.3596 30.206,81.1716 30.435,80.9796 C 30.439,80.9776 30.442,80.9746 30.445,80.9726 C 31.017,80.4936 31.523,80.0016 31.963,79.5266 L 31.963,79.5266 C 31.968,79.5216 31.972,79.5166 31.977,79.5116 C 32.064,79.4166 32.149,79.3226 32.231,79.2296 C 32.231,79.2286 32.232,79.2286 32.232,79.2286 C 33.431,77.8696 34.071,76.7166 34.16,76.5516 C 34.167,76.5386 34.172,76.5296 34.172,76.5296 S 38.408,77.9856 40.495,75.3296 C 40.495,75.3296 38.942,75.0466 37.649,73.8746 Z" transform=""/><ellipse cx="16.060369251123817" cy="59.35516467507479" rx="0.5488194953437698" ry="0.2534863050360795" fill="#6e6f71" stroke="none" r="NaN" transform=""/><path fill="#688da7" stroke="none" d="M 31.5682,70.1449 C 31.5202,70.3519 31.4882,70.4669 31.4882,70.4669 C 31.6042,70.4499 31.7152,70.4319 31.8242,70.4129 C 31.7412,70.3329 31.6582,70.2459 31.5682,70.1449 Z" style="opacity: 0.1" opacity="0.1" transform=""/><path fill="#688da7" stroke="none" d="M 33.7919,74.6966 S 33.8469,74.4836 33.8949,74.1656 C 33.6209,74.4316 33.3319,74.6966 33.0179,74.9596 C 33.0149,74.9616 33.0119,74.9646 33.0089,74.9666 C 32.7789,75.1586 32.5389,75.3466 32.2889,75.5316 C 32.2809,75.5376 32.2739,75.5426 32.2669,75.5486 C 32.0179,75.7316 31.7569,75.9096 31.4869,76.0816 C 31.4779,76.0876 31.4689,76.0936 31.4609,76.0996 C 31.1889,76.2716 30.9069,76.4366 30.6149,76.5936 C 30.6059,76.5986 30.5969,76.6036 30.5889,76.6086 C 30.2919,76.7666 29.9849,76.9166 29.6669,77.0556 C 29.6619,77.0586 29.6569,77.0606 29.6509,77.0636 C 29.3269,77.2036 28.9929,77.3346 28.6469,77.4516 C 25.0259,78.6716 20.6319,79.0226 18.6089,78.9846 C 12.4799,78.8676 7.7339,76.5516 5.7689,73.2066 C 5.7669,73.2026 5.7639,73.1976 5.7619,73.1936 L 5.7619,73.1936 C 5.0719,72.0006 4.2169,67.6476 4.7449,62.8926 C 3.1629,64.7906 2.4749,66.7906 2.3199,67.7796 C 1.5049,72.9586 2.4439,77.9206 3.1879,79.2066 L 3.1879,79.2066 C 3.1899,79.2106 3.1929,79.2156 3.1949,79.2196 C 5.1609,82.5646 9.9069,84.8806 16.0349,84.9976 C 18.0589,85.0356 22.4519,84.6846 26.0729,83.4646 C 26.4189,83.3476 26.7539,83.2176 27.0769,83.0756 C 27.0829,83.0736 27.0879,83.0716 27.0939,83.0686 C 27.4119,82.9296 27.7179,82.7806 28.0149,82.6216 C 28.0239,82.6166 28.0329,82.6116 28.0409,82.6066 C 28.3339,82.4496 28.6149,82.2836 28.8869,82.1126 C 28.8959,82.1066 28.9049,82.1006 28.9129,82.0946 C 29.1839,81.9226 29.4439,81.7446 29.6929,81.5616 C 29.7009,81.5556 29.7079,81.5506 29.7149,81.5446 C 29.9659,81.3596 30.2059,81.1716 30.4349,80.9796 C 30.4379,80.9776 30.4409,80.9746 30.4439,80.9726 C 31.0169,80.4936 31.5229,80.0016 31.9629,79.5266 L 31.9629,79.5266 C 31.9679,79.5216 31.9709,79.5166 31.9759,79.5116 C 32.0639,79.4166 32.1479,79.3226 32.2309,79.2296 C 32.2309,79.2286 32.2309,79.2286 32.2309,79.2286 C 33.4309,77.8696 34.0699,76.7166 34.1589,76.5516 C 34.1669,76.5386 34.1719,76.5296 34.1719,76.5296 S 38.4079,77.9856 40.4949,75.3296 C 40.4949,75.3296 38.9419,75.0466 37.6489,73.8736 C 36.4629,72.7996 33.7919,74.6966 33.7919,74.6966 Z" style="opacity: 0.1" opacity="0.1" transform=""/><path fill="#808184" stroke="none" d="M 15.563,59.461 C 15.65,59.548 15.839,59.609 16.061,59.609 C 16.282,59.609 16.472,59.548 16.558,59.461 C 16.471,59.375 16.282,59.314 16.061,59.314 C 15.839,59.314 15.65,59.375 15.563,59.461 Z" transform=""/><ellipse cx="14.562539432838356" cy="77.86351283284682" rx="0.6026913476474527" ry="1.001439254430963" fill="#304454" stroke="none" r="NaN" transform=""/><ellipse cx="5.42308329528667" cy="77.86351283284682" rx="0.6026913476474527" ry="1.001439254430963" fill="#304454" stroke="none" r="NaN" transform=""/><path fill="#49bbd6" stroke="none" d="M 15.8381,58.8809 S 14.7571,51.8989 18.5111,49.8409 C 21.9841,47.9359 24.1851,51.2129 24.1751,52.1319 C 24.1681,52.6919 23.6901,53.1009 22.9551,52.5659 C 22.2201,52.0319 22.2371,50.4119 20.8341,50.1269 C 19.5221,49.8619 17.5741,50.1579 16.5071,53.3499 C 15.6051,56.0479 15.8381,58.8809 15.8381,58.8809 Z" transform=""/><path fill="#49bbd6" stroke="none" d="M 15.8381,51.7477 S 14.8181,48.7257 12.7891,48.5157 C 10.4961,48.2777 8.31615,50.0357 8.30415,51.4467 C 8.29715,52.1487 9.19315,52.2997 10.0951,51.2967 C 10.9981,50.2947 11.4731,49.0667 13.1901,49.2797 C 14.5201,49.4437 15.8381,51.7477 15.8381,51.7477 Z" transform=""/><path fill="#49bbd6" stroke="none" d="M 16.6068,49.5596 S 17.2838,47.6386 18.8538,46.5356 C 20.4238,45.4336 22.2338,45.4966 22.1398,46.2976 C 22.0488,47.0746 20.5308,46.5676 19.0448,47.3356 C 17.5228,48.1216 16.6068,49.5596 16.6068,49.5596 Z" transform=""/><path fill="#49bbd6" stroke="none" d="M 15.1195,48.3711 S 14.6675,46.1571 12.8805,45.3471 C 11.4775,44.7121 10.2675,44.8611 10.2655,45.5311 C 10.2645,46.1991 11.8465,45.8581 12.9475,46.3001 C 14.5495,46.9421 15.1195,48.3711 15.1195,48.3711 Z" transform=""/><path fill="#49bbd6" stroke="none" d="M 16.2215,47.5524 S 18.2275,42.6014 16.3985,42.5014 C 14.5685,42.4014 16.2215,47.5524 16.2215,47.5524 Z" transform=""/><path fill="#bdcccc" stroke="none" d="M 80.149,73.8746 C 78.962,72.7996 76.292,74.6976 76.292,74.6976 S 76.966,72.1286 75.659,71.3446 C 74.395,70.5856 74.395,70.5226 73.573,69.5746 C 73.573,69.5746 72.483,71.2766 73.194,73.0526 C 73.573,74.0016 74.142,74.4446 75.028,74.9496 C 75.028,74.9496 75.017,74.9626 75.007,74.9746 C 75.004,74.9776 75,74.9826 74.996,74.9866 C 74.978,75.0066 74.951,75.0346 74.917,75.0686 C 74.912,75.0736 74.906,75.0786 74.901,75.0836 C 74.865,75.1186 74.82,75.1586 74.768,75.2036 C 74.762,75.2076 74.757,75.2116 74.752,75.2166 C 74.695,75.2636 74.627,75.3156 74.551,75.3696 C 74.536,75.3806 74.52,75.3916 74.505,75.4026 C 74.424,75.4586 74.333,75.5186 74.23,75.5796 C 74.222,75.5846 74.211,75.5896 74.202,75.5956 C 74.106,75.6506 73.999,75.7076 73.884,75.7646 C 73.858,75.7776 73.832,75.7916 73.804,75.8046 C 73.681,75.8626 73.546,75.9216 73.401,75.9786 C 73.363,75.9936 73.323,76.0086 73.284,76.0226 C 73.15,76.0726 73.007,76.1206 72.855,76.1676 C 72.445,76.2926 71.971,76.4026 71.416,76.4796 C 71.416,76.4796 76.045,59.8506 59.295,58.5006 C 48.439,57.6236 45.184,65.4686 44.82,67.7796 C 44.005,72.9586 44.945,77.9206 45.689,79.2066 L 45.688,79.2066 C 45.691,79.2106 45.693,79.2156 45.696,79.2196 C 47.661,82.5646 52.407,84.8806 58.536,84.9976 C 60.559,85.0356 64.952,84.6846 68.573,83.4646 C 68.92,83.3476 69.254,83.2176 69.578,83.0766 C 69.583,83.0736 69.588,83.0716 69.594,83.0686 C 69.912,82.9296 70.219,82.7806 70.515,82.6216 C 70.524,82.6166 70.533,82.6116 70.542,82.6066 C 70.834,82.4496 71.116,82.2836 71.387,82.1126 C 71.396,82.1066 71.405,82.1006 71.414,82.0946 C 71.684,81.9226 71.944,81.7446 72.193,81.5616 C 72.201,81.5556 72.208,81.5506 72.215,81.5446 C 72.466,81.3596 72.706,81.1716 72.935,80.9796 C 72.939,80.9776 72.942,80.9746 72.945,80.9726 C 73.517,80.4936 74.023,80.0016 74.463,79.5266 L 74.463,79.5266 C 74.468,79.5216 74.472,79.5166 74.477,79.5116 C 74.564,79.4166 74.649,79.3226 74.731,79.2296 C 74.731,79.2286 74.732,79.2286 74.732,79.2286 C 75.931,77.8696 76.571,76.7166 76.66,76.5516 C 76.667,76.5386 76.672,76.5296 76.672,76.5296 S 80.908,77.9856 82.995,75.3296 C 82.995,75.3296 81.442,75.0466 80.149,73.8746 Z" transform=""/><ellipse cx="58.56036925112382" cy="59.35516467507479" rx="0.5488194953437698" ry="0.2534863050360795" fill="#6e6f71" stroke="none" r="NaN" transform=""/><path fill="#688da7" stroke="none" d="M 74.0682,70.1449 C 74.0202,70.3519 73.9882,70.4669 73.9882,70.4669 C 74.1042,70.4499 74.2152,70.4319 74.3242,70.4129 C 74.2412,70.3329 74.1582,70.2459 74.0682,70.1449 Z" style="opacity: 0.1" opacity="0.1" transform=""/><path fill="#688da7" stroke="none" d="M 76.2919,74.6966 S 76.3469,74.4836 76.3949,74.1656 C 76.1209,74.4316 75.8319,74.6966 75.5179,74.9596 C 75.5149,74.9616 75.5119,74.9646 75.5089,74.9666 C 75.2789,75.1586 75.0389,75.3466 74.7889,75.5316 C 74.7809,75.5376 74.7739,75.5426 74.7669,75.5486 C 74.5179,75.7316 74.2569,75.9096 73.9869,76.0816 C 73.9779,76.0876 73.9689,76.0936 73.9609,76.0996 C 73.6889,76.2716 73.4069,76.4366 73.1149,76.5936 C 73.1059,76.5986 73.0969,76.6036 73.0889,76.6086 C 72.7919,76.7666 72.4849,76.9166 72.1669,77.0556 C 72.1619,77.0586 72.1569,77.0606 72.1509,77.0636 C 71.8269,77.2036 71.4929,77.3346 71.1469,77.4516 C 67.5259,78.6716 63.1319,79.0226 61.1089,78.9846 C 54.9799,78.8676 50.2339,76.5516 48.2689,73.2066 C 48.2669,73.2026 48.2639,73.1976 48.2619,73.1936 L 48.2619,73.1936 C 47.5719,72.0006 46.7169,67.6476 47.2449,62.8926 C 45.6629,64.7906 44.9749,66.7906 44.8199,67.7796 C 44.0049,72.9586 44.9439,77.9206 45.6879,79.2066 L 45.6879,79.2066 C 45.6899,79.2106 45.6929,79.2156 45.6949,79.2196 C 47.6609,82.5646 52.4069,84.8806 58.5349,84.9976 C 60.5589,85.0356 64.9519,84.6846 68.5729,83.4646 C 68.9189,83.3476 69.2539,83.2176 69.5769,83.0756 C 69.5829,83.0736 69.5879,83.0716 69.5939,83.0686 C 69.9119,82.9296 70.2179,82.7806 70.5149,82.6216 C 70.5239,82.6166 70.5329,82.6116 70.5409,82.6066 C 70.8339,82.4496 71.1149,82.2836 71.3869,82.1126 C 71.3959,82.1066 71.4049,82.1006 71.4129,82.0946 C 71.6839,81.9226 71.9439,81.7446 72.1929,81.5616 C 72.2009,81.5556 72.2079,81.5506 72.2149,81.5446 C 72.4659,81.3596 72.7059,81.1716 72.9349,80.9796 C 72.9379,80.9776 72.9409,80.9746 72.9439,80.9726 C 73.5169,80.4936 74.0229,80.0016 74.4629,79.5266 L 74.4629,79.5266 C 74.4679,79.5216 74.4709,79.5166 74.4759,79.5116 C 74.5639,79.4166 74.6479,79.3226 74.7309,79.2296 C 74.7309,79.2286 74.7309,79.2286 74.7309,79.2286 C 75.9309,77.8696 76.5699,76.7166 76.6589,76.5516 C 76.6669,76.5386 76.6719,76.5296 76.6719,76.5296 S 80.9079,77.9856 82.9949,75.3296 C 82.9949,75.3296 81.4419,75.0466 80.1489,73.8736 C 78.9629,72.7996 76.2919,74.6966 76.2919,74.6966 Z" style="opacity: 0.1" opacity="0.1" transform=""/><path fill="#808184" stroke="none" d="M 58.063,59.461 C 58.15,59.548 58.339,59.609 58.561,59.609 C 58.782,59.609 58.972,59.548 59.058,59.461 C 58.971,59.375 58.782,59.314 58.561,59.314 C 58.339,59.314 58.15,59.375 58.063,59.461 Z" transform=""/><ellipse cx="57.062539432838356" cy="77.86351283284682" rx="0.6026913476474527" ry="1.001439254430963" fill="#304454" stroke="none" r="NaN" transform=""/><ellipse cx="47.923083295286666" cy="77.86351283284682" rx="0.6026913476474527" ry="1.001439254430963" fill="#304454" stroke="none" r="NaN" transform=""/><path fill="#49bbd6" stroke="none" d="M 58.3381,58.8809 S 57.2571,51.8989 61.0111,49.8409 C 64.4841,47.9359 66.6851,51.2129 66.6751,52.1319 C 66.6681,52.6919 66.1901,53.1009 65.4551,52.5659 C 64.7201,52.0319 64.7371,50.4119 63.3341,50.1269 C 62.0221,49.8619 60.0741,50.1579 59.0071,53.3499 C 58.1051,56.0479 58.3381,58.8809 58.3381,58.8809 Z" transform=""/><path fill="#49bbd6" stroke="none" d="M 58.3381,51.7477 S 57.3181,48.7257 55.2891,48.5157 C 52.9961,48.2777 50.8161,50.0357 50.8041,51.4467 C 50.7971,52.1487 51.6931,52.2997 52.5951,51.2967 C 53.4981,50.2947 53.9731,49.0667 55.6901,49.2797 C 57.0201,49.4437 58.3381,51.7477 58.3381,51.7477 Z" transform=""/><path fill="#49bbd6" stroke="none" d="M 59.1068,49.5596 S 59.7838,47.6386 61.3538,46.5356 C 62.9238,45.4336 64.7338,45.4966 64.6398,46.2976 C 64.5488,47.0746 63.0308,46.5676 61.5448,47.3356 C 60.0228,48.1216 59.1068,49.5596 59.1068,49.5596 Z" transform=""/><path fill="#49bbd6" stroke="none" d="M 57.6195,48.3711 S 57.1675,46.1571 55.3805,45.3471 C 53.9775,44.7121 52.7675,44.8611 52.7655,45.5311 C 52.7645,46.1991 54.3465,45.8581 55.4475,46.3001 C 57.0495,46.9421 57.6195,48.3711 57.6195,48.3711 Z" transform=""/><path fill="#49bbd6" stroke="none" d="M 58.7215,47.5524 S 60.7275,42.6014 58.8985,42.5014 C 57.0685,42.4014 58.7215,47.5524 58.7215,47.5524 Z" transform=""/><path fill="#bdcccc" stroke="none" d="M 122.649,73.8746 C 121.462,72.7996 118.792,74.6976 118.792,74.6976 S 119.466,72.1286 118.159,71.3446 C 116.895,70.5856 116.895,70.5226 116.073,69.5746 C 116.073,69.5746 114.983,71.2766 115.694,73.0526 C 116.073,74.0016 116.642,74.4446 117.528,74.9496 C 117.528,74.9496 117.517,74.9626 117.507,74.9746 C 117.504,74.9776 117.5,74.9826 117.496,74.9866 C 117.478,75.0066 117.451,75.0346 117.417,75.0686 C 117.412,75.0736 117.406,75.0786 117.401,75.0836 C 117.365,75.1186 117.32,75.1586 117.268,75.2036 C 117.262,75.2076 117.257,75.2116 117.252,75.2166 C 117.195,75.2636 117.127,75.3156 117.051,75.3696 C 117.036,75.3806 117.02,75.3916 117.005,75.4026 C 116.924,75.4586 116.833,75.5186 116.73,75.5796 C 116.722,75.5846 116.711,75.5896 116.702,75.5956 C 116.606,75.6506 116.499,75.7076 116.384,75.7646 C 116.358,75.7776 116.332,75.7916 116.304,75.8046 C 116.181,75.8626 116.046,75.9216 115.901,75.9786 C 115.863,75.9936 115.823,76.0086 115.784,76.0226 C 115.65,76.0726 115.507,76.1206 115.355,76.1676 C 114.945,76.2926 114.471,76.4026 113.916,76.4796 C 113.916,76.4796 118.545,59.8506 101.795,58.5006 C 90.939,57.6236 87.684,65.4686 87.32,67.7796 C 86.505,72.9586 87.445,77.9206 88.189,79.2066 L 88.188,79.2066 C 88.191,79.2106 88.193,79.2156 88.196,79.2196 C 90.161,82.5646 94.907,84.8806 101.036,84.9976 C 103.059,85.0356 107.452,84.6846 111.073,83.4646 C 111.42,83.3476 111.754,83.2176 112.078,83.0766 C 112.083,83.0736 112.088,83.0716 112.094,83.0686 C 112.412,82.9296 112.719,82.7806 113.015,82.6216 C 113.024,82.6166 113.033,82.6116 113.042,82.6066 C 113.334,82.4496 113.616,82.2836 113.887,82.1126 C 113.896,82.1066 113.905,82.1006 113.914,82.0946 C 114.184,81.9226 114.444,81.7446 114.693,81.5616 C 114.701,81.5556 114.708,81.5506 114.715,81.5446 C 114.966,81.3596 115.206,81.1716 115.435,80.9796 C 115.439,80.9776 115.442,80.9746 115.445,80.9726 C 116.017,80.4936 116.523,80.0016 116.963,79.5266 L 116.963,79.5266 C 116.968,79.5216 116.972,79.5166 116.977,79.5116 C 117.064,79.4166 117.149,79.3226 117.231,79.2296 C 117.231,79.2286 117.232,79.2286 117.232,79.2286 C 118.431,77.8696 119.071,76.7166 119.16,76.5516 C 119.167,76.5386 119.172,76.5296 119.172,76.5296 S 123.408,77.9856 125.495,75.3296 C 125.495,75.3296 123.942,75.0466 122.649,73.8746 Z" transform=""/><ellipse cx="101.06036925112382" cy="59.35516467507479" rx="0.5488194953437698" ry="0.2534863050360795" fill="#6e6f71" stroke="none" r="NaN" transform=""/><path fill="#688da7" stroke="none" d="M 116.568,70.1449 C 116.52,70.3519 116.488,70.4669 116.488,70.4669 C 116.604,70.4499 116.715,70.4319 116.824,70.4129 C 116.741,70.3329 116.658,70.2459 116.568,70.1449 Z" style="opacity: 0.1" opacity="0.1" transform=""/><path fill="#688da7" stroke="none" d="M 118.792,74.6966 S 118.847,74.4836 118.895,74.1656 C 118.621,74.4316 118.332,74.6966 118.018,74.9596 C 118.015,74.9616 118.012,74.9646 118.009,74.9666 C 117.779,75.1586 117.539,75.3466 117.289,75.5316 C 117.281,75.5376 117.274,75.5426 117.267,75.5486 C 117.018,75.7316 116.757,75.9096 116.487,76.0816 C 116.478,76.0876 116.469,76.0936 116.461,76.0996 C 116.189,76.2716 115.907,76.4366 115.615,76.5936 C 115.606,76.5986 115.597,76.6036 115.589,76.6086 C 115.292,76.7666 114.985,76.9166 114.667,77.0556 C 114.662,77.0586 114.657,77.0606 114.651,77.0636 C 114.327,77.2036 113.993,77.3346 113.647,77.4516 C 110.026,78.6716 105.632,79.0226 103.609,78.9846 C 97.4799,78.8676 92.7339,76.5516 90.7689,73.2066 C 90.7669,73.2026 90.7639,73.1976 90.7619,73.1936 L 90.7619,73.1936 C 90.0719,72.0006 89.2169,67.6476 89.7449,62.8926 C 88.1629,64.7906 87.4749,66.7906 87.3199,67.7796 C 86.5049,72.9586 87.4439,77.9206 88.1879,79.2066 L 88.1879,79.2066 C 88.1899,79.2106 88.1929,79.2156 88.1949,79.2196 C 90.1609,82.5646 94.9069,84.8806 101.035,84.9976 C 103.059,85.0356 107.452,84.6846 111.073,83.4646 C 111.419,83.3476 111.754,83.2176 112.077,83.0756 C 112.083,83.0736 112.088,83.0716 112.094,83.0686 C 112.412,82.9296 112.718,82.7806 113.015,82.6216 C 113.024,82.6166 113.033,82.6116 113.041,82.6066 C 113.334,82.4496 113.615,82.2836 113.887,82.1126 C 113.896,82.1066 113.905,82.1006 113.913,82.0946 C 114.184,81.9226 114.444,81.7446 114.693,81.5616 C 114.701,81.5556 114.708,81.5506 114.715,81.5446 C 114.966,81.3596 115.206,81.1716 115.435,80.9796 C 115.438,80.9776 115.441,80.9746 115.444,80.9726 C 116.017,80.4936 116.523,80.0016 116.963,79.5266 L 116.963,79.5266 C 116.968,79.5216 116.971,79.5166 116.976,79.5116 C 117.064,79.4166 117.148,79.3226 117.231,79.2296 C 117.231,79.2286 117.231,79.2286 117.231,79.2286 C 118.431,77.8696 119.07,76.7166 119.159,76.5516 C 119.167,76.5386 119.172,76.5296 119.172,76.5296 S 123.408,77.9856 125.495,75.3296 C 125.495,75.3296 123.942,75.0466 122.649,73.8736 C 121.463,72.7996 118.792,74.6966 118.792,74.6966 Z" style="opacity: 0.1" opacity="0.1" transform=""/><path fill="#808184" stroke="none" d="M 100.563,59.461 C 100.65,59.548 100.839,59.609 101.061,59.609 C 101.282,59.609 101.472,59.548 101.558,59.461 C 101.471,59.375 101.282,59.314 101.061,59.314 C 100.839,59.314 100.65,59.375 100.563,59.461 Z" transform=""/><ellipse cx="99.56253943283835" cy="77.86351283284682" rx="0.6026913476474527" ry="1.001439254430963" fill="#304454" stroke="none" r="NaN" transform=""/><ellipse cx="90.42308329528667" cy="77.86351283284682" rx="0.6026913476474527" ry="1.001439254430963" fill="#304454" stroke="none" r="NaN" transform=""/><path fill="#49bbd6" stroke="none" d="M 100.838,58.8809 S 99.7571,51.8989 103.511,49.8409 C 106.984,47.9359 109.185,51.2129 109.175,52.1319 C 109.168,52.6919 108.69,53.1009 107.955,52.5659 C 107.22,52.0319 107.237,50.4119 105.834,50.1269 C 104.522,49.8619 102.574,50.1579 101.507,53.3499 C 100.605,56.0479 100.838,58.8809 100.838,58.8809 Z" transform=""/><path fill="#49bbd6" stroke="none" d="M 100.838,51.7477 S 99.8181,48.7257 97.7891,48.5157 C 95.4961,48.2777 93.3161,50.0357 93.3041,51.4467 C 93.2971,52.1487 94.1931,52.2997 95.0951,51.2967 C 95.9981,50.2947 96.4731,49.0667 98.1901,49.2797 C 99.5201,49.4437 100.838,51.7477 100.838,51.7477 Z" transform=""/><path fill="#49bbd6" stroke="none" d="M 101.607,49.5596 S 102.284,47.6386 103.854,46.5356 C 105.424,45.4336 107.234,45.4966 107.14,46.2976 C 107.049,47.0746 105.531,46.5676 104.045,47.3356 C 102.523,48.1216 101.607,49.5596 101.607,49.5596 Z" transform=""/><path fill="#49bbd6" stroke="none" d="M 100.12,48.3711 S 99.6675,46.1571 97.8805,45.3471 C 96.4775,44.7121 95.2675,44.8611 95.2655,45.5311 C 95.2645,46.1991 96.8465,45.8581 97.9475,46.3001 C 99.5495,46.9421 100.12,48.3711 100.12,48.3711 Z" transform=""/><path fill="#49bbd6" stroke="none" d="M 101.222,47.5524 S 103.228,42.6014 101.399,42.5014 C 99.5685,42.4014 101.222,47.5524 101.222,47.5524 Z" transform=""/><path fill="#bdcccc" stroke="none" d="M 165.149,73.8746 C 163.962,72.7996 161.292,74.6976 161.292,74.6976 S 161.966,72.1286 160.659,71.3446 C 159.395,70.5856 159.395,70.5226 158.573,69.5746 C 158.573,69.5746 157.483,71.2766 158.194,73.0526 C 158.573,74.0016 159.142,74.4446 160.028,74.9496 C 160.028,74.9496 160.017,74.9626 160.007,74.9746 C 160.004,74.9776 160,74.9826 159.996,74.9866 C 159.978,75.0066 159.951,75.0346 159.917,75.0686 C 159.912,75.0736 159.906,75.0786 159.901,75.0836 C 159.865,75.1186 159.82,75.1586 159.768,75.2036 C 159.762,75.2076 159.757,75.2116 159.752,75.2166 C 159.695,75.2636 159.627,75.3156 159.551,75.3696 C 159.536,75.3806 159.52,75.3916 159.505,75.4026 C 159.424,75.4586 159.333,75.5186 159.23,75.5796 C 159.222,75.5846 159.211,75.5896 159.202,75.5956 C 159.106,75.6506 158.999,75.7076 158.884,75.7646 C 158.858,75.7776 158.832,75.7916 158.804,75.8046 C 158.681,75.8626 158.546,75.9216 158.401,75.9786 C 158.363,75.9936 158.323,76.0086 158.284,76.0226 C 158.15,76.0726 158.007,76.1206 157.855,76.1676 C 157.445,76.2926 156.971,76.4026 156.416,76.4796 C 156.416,76.4796 161.045,59.8506 144.295,58.5006 C 133.439,57.6236 130.184,65.4686 129.82,67.7796 C 129.005,72.9586 129.945,77.9206 130.689,79.2066 L 130.688,79.2066 C 130.691,79.2106 130.693,79.2156 130.696,79.2196 C 132.661,82.5646 137.407,84.8806 143.536,84.9976 C 145.559,85.0356 149.952,84.6846 153.573,83.4646 C 153.92,83.3476 154.254,83.2176 154.578,83.0766 C 154.583,83.0736 154.588,83.0716 154.594,83.0686 C 154.912,82.9296 155.219,82.7806 155.515,82.6216 C 155.524,82.6166 155.533,82.6116 155.542,82.6066 C 155.834,82.4496 156.116,82.2836 156.387,82.1126 C 156.396,82.1066 156.405,82.1006 156.414,82.0946 C 156.684,81.9226 156.944,81.7446 157.193,81.5616 C 157.201,81.5556 157.208,81.5506 157.215,81.5446 C 157.466,81.3596 157.706,81.1716 157.935,80.9796 C 157.939,80.9776 157.942,80.9746 157.945,80.9726 C 158.517,80.4936 159.023,80.0016 159.463,79.5266 L 159.463,79.5266 C 159.468,79.5216 159.472,79.5166 159.477,79.5116 C 159.564,79.4166 159.649,79.3226 159.731,79.2296 C 159.731,79.2286 159.732,79.2286 159.732,79.2286 C 160.931,77.8696 161.571,76.7166 161.66,76.5516 C 161.667,76.5386 161.672,76.5296 161.672,76.5296 S 165.908,77.9856 167.995,75.3296 C 167.995,75.3296 166.442,75.0466 165.149,73.8746 Z" transform=""/><ellipse cx="143.5603692511238" cy="59.35516467507479" rx="0.5488194953437698" ry="0.2534863050360795" fill="#6e6f71" stroke="none" r="NaN" transform=""/><path fill="#688da7" stroke="none" d="M 159.068,70.1449 C 159.02,70.3519 158.988,70.4669 158.988,70.4669 C 159.104,70.4499 159.215,70.4319 159.324,70.4129 C 159.241,70.3329 159.158,70.2459 159.068,70.1449 Z" style="opacity: 0.1" opacity="0.1" transform=""/><path fill="#688da7" stroke="none" d="M 161.292,74.6966 S 161.347,74.4836 161.395,74.1656 C 161.121,74.4316 160.832,74.6966 160.518,74.9596 C 160.515,74.9616 160.512,74.9646 160.509,74.9666 C 160.279,75.1586 160.039,75.3466 159.789,75.5316 C 159.781,75.5376 159.774,75.5426 159.767,75.5486 C 159.518,75.7316 159.257,75.9096 158.987,76.0816 C 158.978,76.0876 158.969,76.0936 158.961,76.0996 C 158.689,76.2716 158.407,76.4366 158.115,76.5936 C 158.106,76.5986 158.097,76.6036 158.089,76.6086 C 157.792,76.7666 157.485,76.9166 157.167,77.0556 C 157.162,77.0586 157.157,77.0606 157.151,77.0636 C 156.827,77.2036 156.493,77.3346 156.147,77.4516 C 152.526,78.6716 148.132,79.0226 146.109,78.9846 C 139.98,78.8676 135.234,76.5516 133.269,73.2066 C 133.267,73.2026 133.264,73.1976 133.262,73.1936 L 133.262,73.1936 C 132.572,72.0006 131.717,67.6476 132.245,62.8926 C 130.663,64.7906 129.975,66.7906 129.82,67.7796 C 129.005,72.9586 129.944,77.9206 130.688,79.2066 L 130.688,79.2066 C 130.69,79.2106 130.693,79.2156 130.695,79.2196 C 132.661,82.5646 137.407,84.8806 143.535,84.9976 C 145.559,85.0356 149.952,84.6846 153.573,83.4646 C 153.919,83.3476 154.254,83.2176 154.577,83.0756 C 154.583,83.0736 154.588,83.0716 154.594,83.0686 C 154.912,82.9296 155.218,82.7806 155.515,82.6216 C 155.524,82.6166 155.533,82.6116 155.541,82.6066 C 155.834,82.4496 156.115,82.2836 156.387,82.1126 C 156.396,82.1066 156.405,82.1006 156.413,82.0946 C 156.684,81.9226 156.944,81.7446 157.193,81.5616 C 157.201,81.5556 157.208,81.5506 157.215,81.5446 C 157.466,81.3596 157.706,81.1716 157.935,80.9796 C 157.938,80.9776 157.941,80.9746 157.944,80.9726 C 158.517,80.4936 159.023,80.0016 159.463,79.5266 L 159.463,79.5266 C 159.468,79.5216 159.471,79.5166 159.476,79.5116 C 159.564,79.4166 159.648,79.3226 159.731,79.2296 C 159.731,79.2286 159.731,79.2286 159.731,79.2286 C 160.931,77.8696 161.57,76.7166 161.659,76.5516 C 161.667,76.5386 161.672,76.5296 161.672,76.5296 S 165.908,77.9856 167.995,75.3296 C 167.995,75.3296 166.442,75.0466 165.149,73.8736 C 163.963,72.7996 161.292,74.6966 161.292,74.6966 Z" style="opacity: 0.1" opacity="0.1" transform=""/><path fill="#808184" stroke="none" d="M 143.063,59.461 C 143.15,59.548 143.339,59.609 143.561,59.609 C 143.782,59.609 143.972,59.548 144.058,59.461 C 143.971,59.375 143.782,59.314 143.561,59.314 C 143.339,59.314 143.15,59.375 143.063,59.461 Z" transform=""/><ellipse cx="142.06253943283835" cy="77.86351283284682" rx="0.6026913476474527" ry="1.001439254430963" fill="#304454" stroke="none" r="NaN" transform=""/><ellipse cx="132.92308329528666" cy="77.86351283284682" rx="0.6026913476474527" ry="1.001439254430963" fill="#304454" stroke="none" r="NaN" transform=""/><path fill="#49bbd6" stroke="none" d="M 143.338,58.8809 S 142.257,51.8989 146.011,49.8409 C 149.484,47.9359 151.685,51.2129 151.675,52.1319 C 151.668,52.6919 151.19,53.1009 150.455,52.5659 C 149.72,52.0319 149.737,50.4119 148.334,50.1269 C 147.022,49.8619 145.074,50.1579 144.007,53.3499 C 143.105,56.0479 143.338,58.8809 143.338,58.8809 Z" transform=""/><path fill="#49bbd6" stroke="none" d="M 143.338,51.7477 S 142.318,48.7257 140.289,48.5157 C 137.996,48.2777 135.816,50.0357 135.804,51.4467 C 135.797,52.1487 136.693,52.2997 137.595,51.2967 C 138.498,50.2947 138.973,49.0667 140.69,49.2797 C 142.02,49.4437 143.338,51.7477 143.338,51.7477 Z" transform=""/><path fill="#49bbd6" stroke="none" d="M 144.107,49.5596 S 144.784,47.6386 146.354,46.5356 C 147.924,45.4336 149.734,45.4966 149.64,46.2976 C 149.549,47.0746 148.031,46.5676 146.545,47.3356 C 145.023,48.1216 144.107,49.5596 144.107,49.5596 Z" transform=""/><path fill="#49bbd6" stroke="none" d="M 142.62,48.3711 S 142.168,46.1571 140.381,45.3471 C 138.978,44.7121 137.768,44.8611 137.766,45.5311 C 137.765,46.1991 139.347,45.8581 140.448,46.3001 C 142.05,46.9421 142.62,48.3711 142.62,48.3711 Z" transform=""/><path fill="#49bbd6" stroke="none" d="M 143.722,47.5524 S 145.728,42.6014 143.899,42.5014 C 142.069,42.4014 143.722,47.5524 143.722,47.5524 Z" transform=""/><path fill="#bdcccc" stroke="none" d="M 37.649,31.3746 C 36.462,30.2996 33.792,32.1976 33.792,32.1976 S 34.466,29.6286 33.159,28.8446 C 31.895,28.0856 31.895,28.0226 31.073,27.0746 C 31.073,27.0746 29.983,28.7766 30.694,30.5526 C 31.073,31.5016 31.642,31.9446 32.528,32.4496 C 32.528,32.4496 32.517,32.4626 32.507,32.4746 C 32.504,32.4776 32.5,32.4826 32.496,32.4866 C 32.478,32.5066 32.451,32.5346 32.417,32.5686 C 32.412,32.5736 32.406,32.5786 32.401,32.5836 C 32.365,32.6186 32.32,32.6586 32.268,32.7036 C 32.262,32.7076 32.257,32.7116 32.252,32.7166 C 32.195,32.7636 32.127,32.8156 32.051,32.8696 C 32.036,32.8806 32.02,32.8916 32.005,32.9026 C 31.924,32.9586 31.833,33.0186 31.73,33.0796 C 31.722,33.0846 31.711,33.0896 31.702,33.0956 C 31.606,33.1506 31.499,33.2076 31.384,33.2646 C 31.358,33.2776 31.332,33.2916 31.304,33.3046 C 31.181,33.3626 31.046,33.4216 30.901,33.4786 C 30.863,33.4936 30.823,33.5086 30.784,33.5226 C 30.65,33.5726 30.507,33.6206 30.355,33.6676 C 29.945,33.7926 29.471,33.9026 28.916,33.9796 C 28.916,33.9796 33.545,17.3506 16.795,16.0006 C 5.93903,15.1236 2.68403,22.9686 2.32003,25.2796 C 1.50503,30.4586 2.44503,35.4206 3.18903,36.7066 L 3.18803,36.7066 C 3.19103,36.7106 3.19303,36.7156 3.19603,36.7196 C 5.16103,40.0646 9.90703,42.3806 16.036,42.4976 C 18.059,42.5356 22.452,42.1846 26.073,40.9646 C 26.42,40.8476 26.754,40.7176 27.078,40.5766 C 27.083,40.5736 27.088,40.5716 27.094,40.5686 C 27.412,40.4296 27.719,40.2806 28.015,40.1216 C 28.024,40.1166 28.033,40.1116 28.042,40.1066 C 28.334,39.9496 28.616,39.7836 28.887,39.6126 C 28.896,39.6066 28.905,39.6006 28.914,39.5946 C 29.184,39.4226 29.444,39.2446 29.693,39.0616 C 29.701,39.0556 29.708,39.0506 29.715,39.0446 C 29.966,38.8596 30.206,38.6716 30.435,38.4796 C 30.439,38.4776 30.442,38.4746 30.445,38.4726 C 31.017,37.9936 31.523,37.5016 31.963,37.0266 L 31.963,37.0266 C 31.968,37.0216 31.972,37.0166 31.977,37.0116 C 32.064,36.9166 32.149,36.8226 32.231,36.7296 C 32.231,36.7286 32.232,36.7286 32.232,36.7286 C 33.431,35.3696 34.071,34.2166 34.16,34.0516 C 34.167,34.0386 34.172,34.0296 34.172,34.0296 S 38.408,35.4856 40.495,32.8296 C 40.495,32.8296 38.942,32.5466 37.649,31.3746 Z" transform=""/><ellipse cx="16.060369251123817" cy="16.85516467507479" rx="0.5488194953437698" ry="0.2534863050360795" fill="#6e6f71" stroke="none" r="NaN" transform=""/><path fill="#688da7" stroke="none" d="M 31.5682,27.6449 C 31.5202,27.8519 31.4882,27.9669 31.4882,27.9669 C 31.6042,27.9499 31.7152,27.9319 31.8242,27.9129 C 31.7412,27.8329 31.6582,27.7459 31.5682,27.6449 Z" style="opacity: 0.1" opacity="0.1" transform=""/><path fill="#688da7" stroke="none" d="M 33.7919,32.1966 S 33.8469,31.9836 33.8949,31.6656 C 33.6209,31.9316 33.3319,32.1966 33.0179,32.4596 C 33.0149,32.4616 33.0119,32.4646 33.0089,32.4666 C 32.7789,32.6586 32.5389,32.8466 32.2889,33.0316 C 32.2809,33.0376 32.2739,33.0426 32.2669,33.0486 C 32.0179,33.2316 31.7569,33.4096 31.4869,33.5816 C 31.4779,33.5876 31.4689,33.5936 31.4609,33.5996 C 31.1889,33.7716 30.9069,33.9366 30.6149,34.0936 C 30.6059,34.0986 30.5969,34.1036 30.5889,34.1086 C 30.2919,34.2666 29.9849,34.4166 29.6669,34.5556 C 29.6619,34.5586 29.6569,34.5606 29.6509,34.5636 C 29.3269,34.7036 28.9929,34.8346 28.6469,34.9516 C 25.0259,36.1716 20.6319,36.5226 18.6089,36.4846 C 12.4799,36.3676 7.7339,34.0516 5.7689,30.7066 C 5.7669,30.7026 5.7639,30.6976 5.7619,30.6936 L 5.7619,30.6936 C 5.0719,29.5006 4.2169,25.1476 4.7449,20.3926 C 3.1629,22.2906 2.4749,24.2906 2.3199,25.2796 C 1.5049,30.4586 2.4439,35.4206 3.1879,36.7066 L 3.1879,36.7066 C 3.1899,36.7106 3.1929,36.7156 3.1949,36.7196 C 5.1609,40.0646 9.9069,42.3806 16.0349,42.4976 C 18.0589,42.5356 22.4519,42.1846 26.0729,40.9646 C 26.4189,40.8476 26.7539,40.7176 27.0769,40.5756 C 27.0829,40.5736 27.0879,40.5716 27.0939,40.5686 C 27.4119,40.4296 27.7179,40.2806 28.0149,40.1216 C 28.0239,40.1166 28.0329,40.1116 28.0409,40.1066 C 28.3339,39.9496 28.6149,39.7836 28.8869,39.6126 C 28.8959,39.6066 28.9049,39.6006 28.9129,39.5946 C 29.1839,39.4226 29.4439,39.2446 29.6929,39.0616 C 29.7009,39.0556 29.7079,39.0506 29.7149,39.0446 C 29.9659,38.8596 30.2059,38.6716 30.4349,38.4796 C 30.4379,38.4776 30.4409,38.4746 30.4439,38.4726 C 31.0169,37.9936 31.5229,37.5016 31.9629,37.0266 L 31.9629,37.0266 C 31.9679,37.0216 31.9709,37.0166 31.9759,37.0116 C 32.0639,36.9166 32.1479,36.8226 32.2309,36.7296 C 32.2309,36.7286 32.2309,36.7286 32.2309,36.7286 C 33.4309,35.3696 34.0699,34.2166 34.1589,34.0516 C 34.1669,34.0386 34.1719,34.0296 34.1719,34.0296 S 38.4079,35.4856 40.4949,32.8296 C 40.4949,32.8296 38.9419,32.5466 37.6489,31.3736 C 36.4629,30.2996 33.7919,32.1966 33.7919,32.1966 Z" style="opacity: 0.1" opacity="0.1" transform=""/><path fill="#808184" stroke="none" d="M 15.563,16.961 C 15.65,17.048 15.839,17.109 16.061,17.109 C 16.282,17.109 16.472,17.048 16.558,16.961 C 16.471,16.875 16.282,16.814 16.061,16.814 C 15.839,16.814 15.65,16.875 15.563,16.961 Z" transform=""/><ellipse cx="14.562539432838356" cy="35.36351283284682" rx="0.6026913476474527" ry="1.001439254430963" fill="#304454" stroke="none" r="NaN" transform=""/><ellipse cx="5.42308329528667" cy="35.36351283284682" rx="0.6026913476474527" ry="1.001439254430963" fill="#304454" stroke="none" r="NaN" transform=""/><path fill="#49bbd6" stroke="none" d="M 15.8381,16.3809 S 14.7571,9.3989 18.5111,7.3409 C 21.9841,5.4359 24.1851,8.7129 24.1751,9.6319 C 24.1681,10.1919 23.6901,10.6009 22.9551,10.0659 C 22.2201,9.5319 22.2371,7.9119 20.8341,7.6269 C 19.5221,7.3619 17.5741,7.6579 16.5071,10.8499 C 15.6051,13.5479 15.8381,16.3809 15.8381,16.3809 Z" transform=""/><path fill="#49bbd6" stroke="none" d="M 15.8381,9.24769 S 14.8181,6.22569 12.7891,6.01569 C 10.4961,5.77769 8.31615,7.53569 8.30415,8.94669 C 8.29715,9.64869 9.19315,9.79969 10.0951,8.79669 C 10.9981,7.79469 11.4731,6.56669 13.1901,6.77969 C 14.5201,6.94369 15.8381,9.24769 15.8381,9.24769 Z" transform=""/><path fill="#49bbd6" stroke="none" d="M 16.6068,7.05963 S 17.2838,5.13863 18.8538,4.03563 C 20.4238,2.93363 22.2338,2.99663 22.1398,3.79763 C 22.0488,4.57463 20.5308,4.06763 19.0448,4.83563 C 17.5228,5.62163 16.6068,7.05963 16.6068,7.05963 Z" transform=""/><path fill="#49bbd6" stroke="none" d="M 15.1195,5.87108 S 14.6675,3.65708 12.8805,2.84708 C 11.4775,2.21208 10.2675,2.36108 10.2655,3.03108 C 10.2645,3.69908 11.8465,3.35808 12.9475,3.80008 C 14.5495,4.44208 15.1195,5.87108 15.1195,5.87108 Z" transform=""/><path fill="#49bbd6" stroke="none" d="M 16.2215,5.05242 S 18.2275,0.10142 16.3985,0.00141957 C 14.5685,-0.0985804 16.2215,5.05242 16.2215,5.05242 Z" transform=""/><path fill="#bdcccc" stroke="none" d="M 80.149,31.3746 C 78.962,30.2996 76.292,32.1976 76.292,32.1976 S 76.966,29.6286 75.659,28.8446 C 74.395,28.0856 74.395,28.0226 73.573,27.0746 C 73.573,27.0746 72.483,28.7766 73.194,30.5526 C 73.573,31.5016 74.142,31.9446 75.028,32.4496 C 75.028,32.4496 75.017,32.4626 75.007,32.4746 C 75.004,32.4776 75,32.4826 74.996,32.4866 C 74.978,32.5066 74.951,32.5346 74.917,32.5686 C 74.912,32.5736 74.906,32.5786 74.901,32.5836 C 74.865,32.6186 74.82,32.6586 74.768,32.7036 C 74.762,32.7076 74.757,32.7116 74.752,32.7166 C 74.695,32.7636 74.627,32.8156 74.551,32.8696 C 74.536,32.8806 74.52,32.8916 74.505,32.9026 C 74.424,32.9586 74.333,33.0186 74.23,33.0796 C 74.222,33.0846 74.211,33.0896 74.202,33.0956 C 74.106,33.1506 73.999,33.2076 73.884,33.2646 C 73.858,33.2776 73.832,33.2916 73.804,33.3046 C 73.681,33.3626 73.546,33.4216 73.401,33.4786 C 73.363,33.4936 73.323,33.5086 73.284,33.5226 C 73.15,33.5726 73.007,33.6206 72.855,33.6676 C 72.445,33.7926 71.971,33.9026 71.416,33.9796 C 71.416,33.9796 76.045,17.3506 59.295,16.0006 C 48.439,15.1236 45.184,22.9686 44.82,25.2796 C 44.005,30.4586 44.945,35.4206 45.689,36.7066 L 45.688,36.7066 C 45.691,36.7106 45.693,36.7156 45.696,36.7196 C 47.661,40.0646 52.407,42.3806 58.536,42.4976 C 60.559,42.5356 64.952,42.1846 68.573,40.9646 C 68.92,40.8476 69.254,40.7176 69.578,40.5766 C 69.583,40.5736 69.588,40.5716 69.594,40.5686 C 69.912,40.4296 70.219,40.2806 70.515,40.1216 C 70.524,40.1166 70.533,40.1116 70.542,40.1066 C 70.834,39.9496 71.116,39.7836 71.387,39.6126 C 71.396,39.6066 71.405,39.6006 71.414,39.5946 C 71.684,39.4226 71.944,39.2446 72.193,39.0616 C 72.201,39.0556 72.208,39.0506 72.215,39.0446 C 72.466,38.8596 72.706,38.6716 72.935,38.4796 C 72.939,38.4776 72.942,38.4746 72.945,38.4726 C 73.517,37.9936 74.023,37.5016 74.463,37.0266 L 74.463,37.0266 C 74.468,37.0216 74.472,37.0166 74.477,37.0116 C 74.564,36.9166 74.649,36.8226 74.731,36.7296 C 74.731,36.7286 74.732,36.7286 74.732,36.7286 C 75.931,35.3696 76.571,34.2166 76.66,34.0516 C 76.667,34.0386 76.672,34.0296 76.672,34.0296 S 80.908,35.4856 82.995,32.8296 C 82.995,32.8296 81.442,32.5466 80.149,31.3746 Z" transform=""/><ellipse cx="58.56036925112382" cy="16.85516467507479" rx="0.5488194953437698" ry="0.2534863050360795" fill="#6e6f71" stroke="none" r="NaN" transform=""/><path fill="#688da7" stroke="none" d="M 74.0682,27.6449 C 74.0202,27.8519 73.9882,27.9669 73.9882,27.9669 C 74.1042,27.9499 74.2152,27.9319 74.3242,27.9129 C 74.2412,27.8329 74.1582,27.7459 74.0682,27.6449 Z" style="opacity: 0.1" opacity="0.1" transform=""/><path fill="#688da7" stroke="none" d="M 76.2919,32.1966 S 76.3469,31.9836 76.3949,31.6656 C 76.1209,31.9316 75.8319,32.1966 75.5179,32.4596 C 75.5149,32.4616 75.5119,32.4646 75.5089,32.4666 C 75.2789,32.6586 75.0389,32.8466 74.7889,33.0316 C 74.7809,33.0376 74.7739,33.0426 74.7669,33.0486 C 74.5179,33.2316 74.2569,33.4096 73.9869,33.5816 C 73.9779,33.5876 73.9689,33.5936 73.9609,33.5996 C 73.6889,33.7716 73.4069,33.9366 73.1149,34.0936 C 73.1059,34.0986 73.0969,34.1036 73.0889,34.1086 C 72.7919,34.2666 72.4849,34.4166 72.1669,34.5556 C 72.1619,34.5586 72.1569,34.5606 72.1509,34.5636 C 71.8269,34.7036 71.4929,34.8346 71.1469,34.9516 C 67.5259,36.1716 63.1319,36.5226 61.1089,36.4846 C 54.9799,36.3676 50.2339,34.0516 48.2689,30.7066 C 48.2669,30.7026 48.2639,30.6976 48.2619,30.6936 L 48.2619,30.6936 C 47.5719,29.5006 46.7169,25.1476 47.2449,20.3926 C 45.6629,22.2906 44.9749,24.2906 44.8199,25.2796 C 44.0049,30.4586 44.9439,35.4206 45.6879,36.7066 L 45.6879,36.7066 C 45.6899,36.7106 45.6929,36.7156 45.6949,36.7196 C 47.6609,40.0646 52.4069,42.3806 58.5349,42.4976 C 60.5589,42.5356 64.9519,42.1846 68.5729,40.9646 C 68.9189,40.8476 69.2539,40.7176 69.5769,40.5756 C 69.5829,40.5736 69.5879,40.5716 69.5939,40.5686 C 69.9119,40.4296 70.2179,40.2806 70.5149,40.1216 C 70.5239,40.1166 70.5329,40.1116 70.5409,40.1066 C 70.8339,39.9496 71.1149,39.7836 71.3869,39.6126 C 71.3959,39.6066 71.4049,39.6006 71.4129,39.5946 C 71.6839,39.4226 71.9439,39.2446 72.1929,39.0616 C 72.2009,39.0556 72.2079,39.0506 72.2149,39.0446 C 72.4659,38.8596 72.7059,38.6716 72.9349,38.4796 C 72.9379,38.4776 72.9409,38.4746 72.9439,38.4726 C 73.5169,37.9936 74.0229,37.5016 74.4629,37.0266 L 74.4629,37.0266 C 74.4679,37.0216 74.4709,37.0166 74.4759,37.0116 C 74.5639,36.9166 74.6479,36.8226 74.7309,36.7296 C 74.7309,36.7286 74.7309,36.7286 74.7309,36.7286 C 75.9309,35.3696 76.5699,34.2166 76.6589,34.0516 C 76.6669,34.0386 76.6719,34.0296 76.6719,34.0296 S 80.9079,35.4856 82.9949,32.8296 C 82.9949,32.8296 81.4419,32.5466 80.1489,31.3736 C 78.9629,30.2996 76.2919,32.1966 76.2919,32.1966 Z" style="opacity: 0.1" opacity="0.1" transform=""/><path fill="#808184" stroke="none" d="M 58.063,16.961 C 58.15,17.048 58.339,17.109 58.561,17.109 C 58.782,17.109 58.972,17.048 59.058,16.961 C 58.971,16.875 58.782,16.814 58.561,16.814 C 58.339,16.814 58.15,16.875 58.063,16.961 Z" transform=""/><ellipse cx="57.062539432838356" cy="35.36351283284682" rx="0.6026913476474527" ry="1.001439254430963" fill="#304454" stroke="none" r="NaN" transform=""/><ellipse cx="47.923083295286666" cy="35.36351283284682" rx="0.6026913476474527" ry="1.001439254430963" fill="#304454" stroke="none" r="NaN" transform=""/><path fill="#49bbd6" stroke="none" d="M 58.3381,16.3809 S 57.2571,9.3989 61.0111,7.3409 C 64.4841,5.4359 66.6851,8.7129 66.6751,9.6319 C 66.6681,10.1919 66.1901,10.6009 65.4551,10.0659 C 64.7201,9.5319 64.7371,7.9119 63.3341,7.6269 C 62.0221,7.3619 60.0741,7.6579 59.0071,10.8499 C 58.1051,13.5479 58.3381,16.3809 58.3381,16.3809 Z" transform=""/><path fill="#49bbd6" stroke="none" d="M 58.3381,9.24769 S 57.3181,6.22569 55.2891,6.01569 C 52.9961,5.77769 50.8161,7.53569 50.8041,8.94669 C 50.7971,9.64869 51.6931,9.79969 52.5951,8.79669 C 53.4981,7.79469 53.9731,6.56669 55.6901,6.77969 C 57.0201,6.94369 58.3381,9.24769 58.3381,9.24769 Z" transform=""/><path fill="#49bbd6" stroke="none" d="M 59.1068,7.05963 S 59.7838,5.13863 61.3538,4.03563 C 62.9238,2.93363 64.7338,2.99663 64.6398,3.79763 C 64.5488,4.57463 63.0308,4.06763 61.5448,4.83563 C 60.0228,5.62163 59.1068,7.05963 59.1068,7.05963 Z" transform=""/><path fill="#49bbd6" stroke="none" d="M 57.6195,5.87108 S 57.1675,3.65708 55.3805,2.84708 C 53.9775,2.21208 52.7675,2.36108 52.7655,3.03108 C 52.7645,3.69908 54.3465,3.35808 55.4475,3.80008 C 57.0495,4.44208 57.6195,5.87108 57.6195,5.87108 Z" transform=""/><path fill="#49bbd6" stroke="none" d="M 58.7215,5.05242 S 60.7275,0.10142 58.8985,0.00141957 C 57.0685,-0.0985804 58.7215,5.05242 58.7215,5.05242 Z" transform=""/><path fill="#bdcccc" stroke="none" d="M 122.649,31.3746 C 121.462,30.2996 118.792,32.1976 118.792,32.1976 S 119.466,29.6286 118.159,28.8446 C 116.895,28.0856 116.895,28.0226 116.073,27.0746 C 116.073,27.0746 114.983,28.7766 115.694,30.5526 C 116.073,31.5016 116.642,31.9446 117.528,32.4496 C 117.528,32.4496 117.517,32.4626 117.507,32.4746 C 117.504,32.4776 117.5,32.4826 117.496,32.4866 C 117.478,32.5066 117.451,32.5346 117.417,32.5686 C 117.412,32.5736 117.406,32.5786 117.401,32.5836 C 117.365,32.6186 117.32,32.6586 117.268,32.7036 C 117.262,32.7076 117.257,32.7116 117.252,32.7166 C 117.195,32.7636 117.127,32.8156 117.051,32.8696 C 117.036,32.8806 117.02,32.8916 117.005,32.9026 C 116.924,32.9586 116.833,33.0186 116.73,33.0796 C 116.722,33.0846 116.711,33.0896 116.702,33.0956 C 116.606,33.1506 116.499,33.2076 116.384,33.2646 C 116.358,33.2776 116.332,33.2916 116.304,33.3046 C 116.181,33.3626 116.046,33.4216 115.901,33.4786 C 115.863,33.4936 115.823,33.5086 115.784,33.5226 C 115.65,33.5726 115.507,33.6206 115.355,33.6676 C 114.945,33.7926 114.471,33.9026 113.916,33.9796 C 113.916,33.9796 118.545,17.3506 101.795,16.0006 C 90.939,15.1236 87.684,22.9686 87.32,25.2796 C 86.505,30.4586 87.445,35.4206 88.189,36.7066 L 88.188,36.7066 C 88.191,36.7106 88.193,36.7156 88.196,36.7196 C 90.161,40.0646 94.907,42.3806 101.036,42.4976 C 103.059,42.5356 107.452,42.1846 111.073,40.9646 C 111.42,40.8476 111.754,40.7176 112.078,40.5766 C 112.083,40.5736 112.088,40.5716 112.094,40.5686 C 112.412,40.4296 112.719,40.2806 113.015,40.1216 C 113.024,40.1166 113.033,40.1116 113.042,40.1066 C 113.334,39.9496 113.616,39.7836 113.887,39.6126 C 113.896,39.6066 113.905,39.6006 113.914,39.5946 C 114.184,39.4226 114.444,39.2446 114.693,39.0616 C 114.701,39.0556 114.708,39.0506 114.715,39.0446 C 114.966,38.8596 115.206,38.6716 115.435,38.4796 C 115.439,38.4776 115.442,38.4746 115.445,38.4726 C 116.017,37.9936 116.523,37.5016 116.963,37.0266 L 116.963,37.0266 C 116.968,37.0216 116.972,37.0166 116.977,37.0116 C 117.064,36.9166 117.149,36.8226 117.231,36.7296 C 117.231,36.7286 117.232,36.7286 117.232,36.7286 C 118.431,35.3696 119.071,34.2166 119.16,34.0516 C 119.167,34.0386 119.172,34.0296 119.172,34.0296 S 123.408,35.4856 125.495,32.8296 C 125.495,32.8296 123.942,32.5466 122.649,31.3746 Z" transform=""/><ellipse cx="101.06036925112382" cy="16.85516467507479" rx="0.5488194953437698" ry="0.2534863050360795" fill="#6e6f71" stroke="none" r="NaN" transform=""/><path fill="#688da7" stroke="none" d="M 116.568,27.6449 C 116.52,27.8519 116.488,27.9669 116.488,27.9669 C 116.604,27.9499 116.715,27.9319 116.824,27.9129 C 116.741,27.8329 116.658,27.7459 116.568,27.6449 Z" style="opacity: 0.1" opacity="0.1" transform=""/><path fill="#688da7" stroke="none" d="M 118.792,32.1966 S 118.847,31.9836 118.895,31.6656 C 118.621,31.9316 118.332,32.1966 118.018,32.4596 C 118.015,32.4616 118.012,32.4646 118.009,32.4666 C 117.779,32.6586 117.539,32.8466 117.289,33.0316 C 117.281,33.0376 117.274,33.0426 117.267,33.0486 C 117.018,33.2316 116.757,33.4096 116.487,33.5816 C 116.478,33.5876 116.469,33.5936 116.461,33.5996 C 116.189,33.7716 115.907,33.9366 115.615,34.0936 C 115.606,34.0986 115.597,34.1036 115.589,34.1086 C 115.292,34.2666 114.985,34.4166 114.667,34.5556 C 114.662,34.5586 114.657,34.5606 114.651,34.5636 C 114.327,34.7036 113.993,34.8346 113.647,34.9516 C 110.026,36.1716 105.632,36.5226 103.609,36.4846 C 97.4799,36.3676 92.7339,34.0516 90.7689,30.7066 C 90.7669,30.7026 90.7639,30.6976 90.7619,30.6936 L 90.7619,30.6936 C 90.0719,29.5006 89.2169,25.1476 89.7449,20.3926 C 88.1629,22.2906 87.4749,24.2906 87.3199,25.2796 C 86.5049,30.4586 87.4439,35.4206 88.1879,36.7066 L 88.1879,36.7066 C 88.1899,36.7106 88.1929,36.7156 88.1949,36.7196 C 90.1609,40.0646 94.9069,42.3806 101.035,42.4976 C 103.059,42.5356 107.452,42.1846 111.073,40.9646 C 111.419,40.8476 111.754,40.7176 112.077,40.5756 C 112.083,40.5736 112.088,40.5716 112.094,40.5686 C 112.412,40.4296 112.718,40.2806 113.015,40.1216 C 113.024,40.1166 113.033,40.1116 113.041,40.1066 C 113.334,39.9496 113.615,39.7836 113.887,39.6126 C 113.896,39.6066 113.905,39.6006 113.913,39.5946 C 114.184,39.4226 114.444,39.2446 114.693,39.0616 C 114.701,39.0556 114.708,39.0506 114.715,39.0446 C 114.966,38.8596 115.206,38.6716 115.435,38.4796 C 115.438,38.4776 115.441,38.4746 115.444,38.4726 C 116.017,37.9936 116.523,37.5016 116.963,37.0266 L 116.963,37.0266 C 116.968,37.0216 116.971,37.0166 116.976,37.0116 C 117.064,36.9166 117.148,36.8226 117.231,36.7296 C 117.231,36.7286 117.231,36.7286 117.231,36.7286 C 118.431,35.3696 119.07,34.2166 119.159,34.0516 C 119.167,34.0386 119.172,34.0296 119.172,34.0296 S 123.408,35.4856 125.495,32.8296 C 125.495,32.8296 123.942,32.5466 122.649,31.3736 C 121.463,30.2996 118.792,32.1966 118.792,32.1966 Z" style="opacity: 0.1" opacity="0.1" transform=""/><path fill="#808184" stroke="none" d="M 100.563,16.961 C 100.65,17.048 100.839,17.109 101.061,17.109 C 101.282,17.109 101.472,17.048 101.558,16.961 C 101.471,16.875 101.282,16.814 101.061,16.814 C 100.839,16.814 100.65,16.875 100.563,16.961 Z" transform=""/><ellipse cx="99.56253943283835" cy="35.36351283284682" rx="0.6026913476474527" ry="1.001439254430963" fill="#304454" stroke="none" r="NaN" transform=""/><ellipse cx="90.42308329528667" cy="35.36351283284682" rx="0.6026913476474527" ry="1.001439254430963" fill="#304454" stroke="none" r="NaN" transform=""/><path fill="#49bbd6" stroke="none" d="M 100.838,16.3809 S 99.7571,9.3989 103.511,7.3409 C 106.984,5.4359 109.185,8.7129 109.175,9.6319 C 109.168,10.1919 108.69,10.6009 107.955,10.0659 C 107.22,9.5319 107.237,7.9119 105.834,7.6269 C 104.522,7.3619 102.574,7.6579 101.507,10.8499 C 100.605,13.5479 100.838,16.3809 100.838,16.3809 Z" transform=""/><path fill="#49bbd6" stroke="none" d="M 100.838,9.24769 S 99.8181,6.22569 97.7891,6.01569 C 95.4961,5.77769 93.3161,7.53569 93.3041,8.94669 C 93.2971,9.64869 94.1931,9.79969 95.0951,8.79669 C 95.9981,7.79469 96.4731,6.56669 98.1901,6.77969 C 99.5201,6.94369 100.838,9.24769 100.838,9.24769 Z" transform=""/><path fill="#49bbd6" stroke="none" d="M 101.607,7.05963 S 102.284,5.13863 103.854,4.03563 C 105.424,2.93363 107.234,2.99663 107.14,3.79763 C 107.049,4.57463 105.531,4.06763 104.045,4.83563 C 102.523,5.62163 101.607,7.05963 101.607,7.05963 Z" transform=""/><path fill="#49bbd6" stroke="none" d="M 100.12,5.87108 S 99.6675,3.65708 97.8805,2.84708 C 96.4775,2.21208 95.2675,2.36108 95.2655,3.03108 C 95.2645,3.69908 96.8465,3.35808 97.9475,3.80008 C 99.5495,4.44208 100.12,5.87108 100.12,5.87108 Z" transform=""/><path fill="#49bbd6" stroke="none" d="M 101.222,5.05242 S 103.228,0.10142 101.399,0.00141957 C 99.5685,-0.0985804 101.222,5.05242 101.222,5.05242 Z" transform=""/><path fill="#bdcccc" stroke="none" d="M 165.149,31.3746 C 163.962,30.2996 161.292,32.1976 161.292,32.1976 S 161.966,29.6286 160.659,28.8446 C 159.395,28.0856 159.395,28.0226 158.573,27.0746 C 158.573,27.0746 157.483,28.7766 158.194,30.5526 C 158.573,31.5016 159.142,31.9446 160.028,32.4496 C 160.028,32.4496 160.017,32.4626 160.007,32.4746 C 160.004,32.4776 160,32.4826 159.996,32.4866 C 159.978,32.5066 159.951,32.5346 159.917,32.5686 C 159.912,32.5736 159.906,32.5786 159.901,32.5836 C 159.865,32.6186 159.82,32.6586 159.768,32.7036 C 159.762,32.7076 159.757,32.7116 159.752,32.7166 C 159.695,32.7636 159.627,32.8156 159.551,32.8696 C 159.536,32.8806 159.52,32.8916 159.505,32.9026 C 159.424,32.9586 159.333,33.0186 159.23,33.0796 C 159.222,33.0846 159.211,33.0896 159.202,33.0956 C 159.106,33.1506 158.999,33.2076 158.884,33.2646 C 158.858,33.2776 158.832,33.2916 158.804,33.3046 C 158.681,33.3626 158.546,33.4216 158.401,33.4786 C 158.363,33.4936 158.323,33.5086 158.284,33.5226 C 158.15,33.5726 158.007,33.6206 157.855,33.6676 C 157.445,33.7926 156.971,33.9026 156.416,33.9796 C 156.416,33.9796 161.045,17.3506 144.295,16.0006 C 133.439,15.1236 130.184,22.9686 129.82,25.2796 C 129.005,30.4586 129.945,35.4206 130.689,36.7066 L 130.688,36.7066 C 130.691,36.7106 130.693,36.7156 130.696,36.7196 C 132.661,40.0646 137.407,42.3806 143.536,42.4976 C 145.559,42.5356 149.952,42.1846 153.573,40.9646 C 153.92,40.8476 154.254,40.7176 154.578,40.5766 C 154.583,40.5736 154.588,40.5716 154.594,40.5686 C 154.912,40.4296 155.219,40.2806 155.515,40.1216 C 155.524,40.1166 155.533,40.1116 155.542,40.1066 C 155.834,39.9496 156.116,39.7836 156.387,39.6126 C 156.396,39.6066 156.405,39.6006 156.414,39.5946 C 156.684,39.4226 156.944,39.2446 157.193,39.0616 C 157.201,39.0556 157.208,39.0506 157.215,39.0446 C 157.466,38.8596 157.706,38.6716 157.935,38.4796 C 157.939,38.4776 157.942,38.4746 157.945,38.4726 C 158.517,37.9936 159.023,37.5016 159.463,37.0266 L 159.463,37.0266 C 159.468,37.0216 159.472,37.0166 159.477,37.0116 C 159.564,36.9166 159.649,36.8226 159.731,36.7296 C 159.731,36.7286 159.732,36.7286 159.732,36.7286 C 160.931,35.3696 161.571,34.2166 161.66,34.0516 C 161.667,34.0386 161.672,34.0296 161.672,34.0296 S 165.908,35.4856 167.995,32.8296 C 167.995,32.8296 166.442,32.5466 165.149,31.3746 Z" transform=""/><ellipse cx="143.5603692511238" cy="16.85516467507479" rx="0.5488194953437698" ry="0.2534863050360795" fill="#6e6f71" stroke="none" r="NaN" transform=""/><path fill="#688da7" stroke="none" d="M 159.068,27.6449 C 159.02,27.8519 158.988,27.9669 158.988,27.9669 C 159.104,27.9499 159.215,27.9319 159.324,27.9129 C 159.241,27.8329 159.158,27.7459 159.068,27.6449 Z" style="opacity: 0.1" opacity="0.1" transform=""/><path fill="#688da7" stroke="none" d="M 161.292,32.1966 S 161.347,31.9836 161.395,31.6656 C 161.121,31.9316 160.832,32.1966 160.518,32.4596 C 160.515,32.4616 160.512,32.4646 160.509,32.4666 C 160.279,32.6586 160.039,32.8466 159.789,33.0316 C 159.781,33.0376 159.774,33.0426 159.767,33.0486 C 159.518,33.2316 159.257,33.4096 158.987,33.5816 C 158.978,33.5876 158.969,33.5936 158.961,33.5996 C 158.689,33.7716 158.407,33.9366 158.115,34.0936 C 158.106,34.0986 158.097,34.1036 158.089,34.1086 C 157.792,34.2666 157.485,34.4166 157.167,34.5556 C 157.162,34.5586 157.157,34.5606 157.151,34.5636 C 156.827,34.7036 156.493,34.8346 156.147,34.9516 C 152.526,36.1716 148.132,36.5226 146.109,36.4846 C 139.98,36.3676 135.234,34.0516 133.269,30.7066 C 133.267,30.7026 133.264,30.6976 133.262,30.6936 L 133.262,30.6936 C 132.572,29.5006 131.717,25.1476 132.245,20.3926 C 130.663,22.2906 129.975,24.2906 129.82,25.2796 C 129.005,30.4586 129.944,35.4206 130.688,36.7066 L 130.688,36.7066 C 130.69,36.7106 130.693,36.7156 130.695,36.7196 C 132.661,40.0646 137.407,42.3806 143.535,42.4976 C 145.559,42.5356 149.952,42.1846 153.573,40.9646 C 153.919,40.8476 154.254,40.7176 154.577,40.5756 C 154.583,40.5736 154.588,40.5716 154.594,40.5686 C 154.912,40.4296 155.218,40.2806 155.515,40.1216 C 155.524,40.1166 155.533,40.1116 155.541,40.1066 C 155.834,39.9496 156.115,39.7836 156.387,39.6126 C 156.396,39.6066 156.405,39.6006 156.413,39.5946 C 156.684,39.4226 156.944,39.2446 157.193,39.0616 C 157.201,39.0556 157.208,39.0506 157.215,39.0446 C 157.466,38.8596 157.706,38.6716 157.935,38.4796 C 157.938,38.4776 157.941,38.4746 157.944,38.4726 C 158.517,37.9936 159.023,37.5016 159.463,37.0266 L 159.463,37.0266 C 159.468,37.0216 159.471,37.0166 159.476,37.0116 C 159.564,36.9166 159.648,36.8226 159.731,36.7296 C 159.731,36.7286 159.731,36.7286 159.731,36.7286 C 160.931,35.3696 161.57,34.2166 161.659,34.0516 C 161.667,34.0386 161.672,34.0296 161.672,34.0296 S 165.908,35.4856 167.995,32.8296 C 167.995,32.8296 166.442,32.5466 165.149,31.3736 C 163.963,30.2996 161.292,32.1966 161.292,32.1966 Z" style="opacity: 0.1" opacity="0.1" transform=""/><path fill="#808184" stroke="none" d="M 143.063,16.961 C 143.15,17.048 143.339,17.109 143.561,17.109 C 143.782,17.109 143.972,17.048 144.058,16.961 C 143.971,16.875 143.782,16.814 143.561,16.814 C 143.339,16.814 143.15,16.875 143.063,16.961 Z" transform=""/><ellipse cx="142.06253943283835" cy="35.36351283284682" rx="0.6026913476474527" ry="1.001439254430963" fill="#304454" stroke="none" r="NaN" transform=""/><ellipse cx="132.92308329528666" cy="35.36351283284682" rx="0.6026913476474527" ry="1.001439254430963" fill="#304454" stroke="none" r="NaN" transform=""/><path fill="#49bbd6" stroke="none" d="M 143.338,16.3809 S 142.257,9.3989 146.011,7.3409 C 149.484,5.4359 151.685,8.7129 151.675,9.6319 C 151.668,10.1919 151.19,10.6009 150.455,10.0659 C 149.72,9.5319 149.737,7.9119 148.334,7.6269 C 147.022,7.3619 145.074,7.6579 144.007,10.8499 C 143.105,13.5479 143.338,16.3809 143.338,16.3809 Z" transform=""/><path fill="#49bbd6" stroke="none" d="M 143.338,9.24769 S 142.318,6.22569 140.289,6.01569 C 137.996,5.77769 135.816,7.53569 135.804,8.94669 C 135.797,9.64869 136.693,9.79969 137.595,8.79669 C 138.498,7.79469 138.973,6.56669 140.69,6.77969 C 142.02,6.94369 143.338,9.24769 143.338,9.24769 Z" transform=""/><path fill="#49bbd6" stroke="none" d="M 144.107,7.05963 S 144.784,5.13863 146.354,4.03563 C 147.924,2.93363 149.734,2.99663 149.64,3.79763 C 149.549,4.57463 148.031,4.06763 146.545,4.83563 C 145.023,5.62163 144.107,7.05963 144.107,7.05963 Z" transform=""/><path fill="#49bbd6" stroke="none" d="M 142.62,5.87108 S 142.168,3.65708 140.381,2.84708 C 138.978,2.21208 137.768,2.36108 137.766,3.03108 C 137.765,3.69908 139.347,3.35808 140.448,3.80008 C 142.05,4.44208 142.62,5.87108 142.62,5.87108 Z" transform=""/><path fill="#49bbd6" stroke="none" d="M 143.722,5.05242 S 145.728,0.10142 143.899,0.00141957 C 142.069,-0.0985804 143.722,5.05242 143.722,5.05242 Z" transform=""/></svg>