<svg xmlns="http://www.w3.org/2000/svg" version="1.1" width="350" height="58.333333333333336" viewBox="0 0 350 58.333333333333336"><defs/><path fill="#d1d3d4" stroke="none" d="M 44.8988,16.6033 C 44.6928,16.6863 44.5938,16.9213 44.6768,17.1263 C 44.7618,17.3323 44.9948,17.4303 45.2008,17.3483 C 45.2328,17.3353 48.3908,16.0823 50.3948,17.1543 C 51.1958,17.5833 51.7148,18.3473 51.9388,19.4273 L 52.4558,22.0703 C 53.0348,25.1483 53.2998,26.5533 54.6778,27.3183 C 54.8718,27.4263 55.1168,27.3563 55.2248,27.1623 C 55.3318,26.9683 55.2618,26.7243 55.0688,26.6153 C 54.0218,26.0343 53.7958,24.8293 53.2468,21.9213 L 52.7278,19.2653 C 52.4528,17.9393 51.7968,16.9893 50.7738,16.4443 C 48.4358,15.1953 45.0428,16.5453 44.8988,16.6033 Z" transform=""/><path fill="#304454" stroke="none" d="M 54.9686,29.756 C 54.3616,28.845 53.8376,27.28 55.0496,26.48 C 55.8946,25.924 57.1306,26.148 57.8096,27.592 C 58.6926,29.466 57.6766,30.42 58.3336,31.651 C 58.3336,31.651 55.9526,31.233 54.9686,29.756 Z" transform=""/><path fill="#304454" stroke="none" d="M 53.0026,20.6782 L 52.7266,19.2662 C 52.4516,17.9402 51.7956,16.9902 50.7726,16.4452 C 50.7556,16.4362 50.7366,16.4282 50.7216,16.4192 C 50.8156,16.6072 50.9416,16.7722 51.1096,16.8882 C 51.9296,17.4632 52.3396,18.6942 52.3396,19.5162 C 52.3396,19.9272 52.5876,20.3812 53.0026,20.6782 Z" transform=""/><path fill="#d78334" stroke="none" d="M 31.2112,55.2011 L 33.7962,54.5751 L 34.0312,52.1461 L 32.6992,50.9711 L 31.6042,51.9891 Z" transform=""/><path fill="#d1d3d4" stroke="none" d="M 38.096,34.25 S 35.284,36.402 36.803,40.23 C 37.578,42.183 36.229,45.678 35.51,46.049 C 33.248,47.212 32.079,49.438 31.916,50.893 C 31.916,50.893 37.324,54.465 38.81,54.809 C 40.911,55.294 41.317,51.363 39.389,47.178 C 38.693,45.668 39.43,43.786 40.455,42.981 C 42.718,41.204 43.159,37.25 41.865,35.149" transform=""/><path fill="#304454" stroke="none" d="M 38.7968,42.6615 C 38.2918,43.0535 38.6308,44.4085 39.2118,45.0655 C 39.4078,44.2045 39.8858,43.4275 40.4548,42.9815 C 41.6168,42.0685 42.2958,40.5815 42.5078,39.0665 L 41.5038,37.9825 L 40.1918,38.1475 S 38.5498,38.9675 38.7958,40.0345 C 39.0428,41.1005 39.5358,42.0865 38.7968,42.6615 Z" transform=""/><path fill="#f3b37c" stroke="none" d="M 30.5054,54.8877 S 30.2714,49.0917 34.5024,49.0117 C 37.7334,48.9517 39.6644,52.6877 39.8274,55.4357 L 33.2474,55.5137 L 32.1504,51.9097 L 31.2104,55.2007 L 30.5054,54.8877 Z" transform=""/><path fill="#d78334" stroke="none" d="M 10.6921,55.2011 L 13.2771,54.5751 L 13.5111,52.1461 L 12.1791,50.9711 L 11.0831,51.9891 Z" transform=""/><path fill="#d1d3d4" stroke="none" d="M 17.5762,34.25 S 14.7652,36.402 16.2842,40.23 C 17.0582,42.183 15.7092,45.678 14.9902,46.049 C 12.7282,47.212 11.5572,49.438 11.3962,50.893 C 11.3962,50.893 16.8032,54.465 18.2882,54.809 C 20.3892,55.294 20.7962,51.363 18.8682,47.178 C 18.1732,45.668 18.9092,43.786 19.9342,42.981 C 22.1972,41.204 22.6362,37.25 21.3452,35.149" transform=""/><path fill="#304454" stroke="none" d="M 14.0576,50.3391 S 15.4116,46.9511 16.7676,47.4591 C 18.1226,47.9681 17.2756,49.1531 18.6306,49.1531 S 20.3246,50.3391 20.3246,50.3391 L 17.2106,51.7721 L 14.0576,50.3391 Z" transform=""/><path fill="#f3b37c" stroke="none" d="M 9.98699,54.8877 S 9.75299,49.0917 13.981,49.0117 C 17.213,48.9517 19.145,52.6877 19.308,55.4357 L 12.729,55.5137 L 11.632,51.9097 L 10.693,55.2007 L 9.98699,54.8877 Z" transform=""/><path fill="#d78334" stroke="none" d="M 15.6505,56.2039 L 18.3595,55.5469 L 18.6055,53.0019 L 17.2105,51.7729 L 16.0605,52.8389 Z" transform=""/><path fill="#efefef" stroke="none" d="M 19.816,15.7903 S 25.758,18.2743 31.492,18.2013 C 37.893,18.1183 43.474,11.7983 47.76,15.1133 C 51.781,18.2233 51.883,39.5643 34.718,42.0403 C 18.292,44.4113 9.65998,31.3343 14.994,24.1933 C 20.111,17.3433 19.816,15.7903 19.816,15.7903 Z" transform=""/><path fill="#d1d3d4" stroke="none" d="M 49.6602,19.1895 C 47.8802,16.9925 46.2442,17.1725 46.2442,17.1725 L 47.6522,22.0235 S 49.0172,22.4485 49.9782,22.3405 C 49.9542,21.2065 49.8432,20.1425 49.6602,19.1895 Z" transform=""/><path fill="#d1d3d4" stroke="none" d="M 28.29,37.6543 C 27.306,35.1093 26.156,35.3553 26.156,35.3553 L 24.879,41.5333 C 25.865,41.8093 26.909,42.0163 28.006,42.1523 C 28.444,41.0113 28.897,39.2243 28.29,37.6543 Z" transform=""/><path fill="#efefef" stroke="none" d="M 22.8652,34.25 S 19.9192,36.506 21.5092,40.517 C 22.3212,42.563 20.9082,46.226 20.1542,46.612 C 17.7842,47.832 16.5572,50.166 16.3892,51.689 C 16.3892,51.689 22.0562,55.433 23.6122,55.793 C 25.8142,56.301 26.2382,52.181 24.2192,47.798 C 23.4902,46.215 24.2622,44.242 25.3342,43.4 C 27.7052,41.537 28.1682,37.393 26.8132,35.191" transform=""/><path fill="#f3b37c" stroke="none" d="M 14.9115,55.8746 S 14.6645,49.8016 19.0975,49.7186 C 22.4845,49.6566 24.5095,53.5696 24.6795,56.4506 L 17.7835,56.5326 L 16.6355,52.7566 L 15.6505,56.2026 L 14.9115,55.8746 Z" transform=""/><path fill="#304454" stroke="none" d="M 23.7752,37.1612 C 23.3072,36.2752 22.0442,36.6142 21.1842,36.9782 C 20.9522,37.9292 20.9542,39.1152 21.5092,40.5162 C 21.8822,41.4552 21.7862,42.7352 21.4992,43.8812 C 22.8742,43.8092 23.1812,42.9952 23.0382,42.6612 C 22.7912,42.0862 22.5442,40.8542 23.0382,40.1972 C 23.5302,39.5422 24.5152,38.5562 23.7752,37.1612 Z" transform=""/><path fill="#d78334" stroke="none" d="M 36.171,56.2039 L 38.879,55.5469 L 39.125,53.0019 L 37.729,51.7729 L 36.581,52.8389 Z" transform=""/><path fill="#efefef" stroke="none" d="M 46.923,17.1345 S 50.534,19.5155 51.191,24.3575 C 51.847,29.1995 47.333,35.1915 47.333,35.1915 C 48.688,37.3945 48.226,41.5385 45.856,43.4005 C 44.782,44.2425 44.011,46.2165 44.739,47.7985 C 46.758,52.1815 46.333,56.3015 44.13,55.7945 C 42.574,55.4345 36.909,51.6895 36.909,51.6895 C 37.077,50.1655 38.304,47.8315 40.674,46.6125 C 41.427,46.2265 42.84,42.5635 42.028,40.5175 C 40.437,36.5065 43.384,34.2505 43.384,34.2505 S 37.647,31.7455 38.139,26.4915 C 38.632,21.2375 43.639,15.9855 46.923,17.1345 Z" transform=""/><path fill="#f3b37c" stroke="none" d="M 35.4321,55.8746 S 35.1841,49.8016 39.6181,49.7186 C 43.0041,49.6566 45.0301,53.5696 45.2001,56.4506 L 38.3051,56.5326 L 37.1561,52.7566 L 36.1711,56.2026 L 35.4321,55.8746 Z" transform=""/><path fill="#304454" stroke="none" d="M 44.295,37.1612 C 43.827,36.2752 42.563,36.6142 41.703,36.9782 C 41.472,37.9292 41.474,39.1152 42.028,40.5162 C 42.401,41.4552 42.305,42.7352 42.019,43.8812 C 43.392,43.8092 43.7,42.9952 43.558,42.6612 C 43.311,42.0862 43.064,40.8542 43.558,40.1972 C 44.049,39.5422 45.034,38.5562 44.295,37.1612 Z" transform=""/><path fill="#304454" stroke="none" d="M 28.9513,20.1757 C 29.1883,19.3237 30.7573,17.7137 31.7423,18.7807 C 33.0463,20.1927 31.6613,20.9157 32.0703,21.6537 C 32.4803,22.3917 33.5473,21.8177 33.9583,22.6387 C 34.3693,23.4597 32.9733,24.8547 31.3323,24.0337 C 29.6903,23.2127 28.5413,21.6537 28.9513,20.1757 Z" transform=""/><path fill="#304454" stroke="none" d="M 51.2524,25.1822 C 50.9014,24.4332 50.4094,23.7682 49.7954,23.8652 C 48.2374,24.1122 48.0724,25.6712 48.8104,26.9012 C 49.5494,28.1332 48.7274,28.9542 47.9904,28.9542 C 47.2504,28.9542 45.4774,28.6392 45.0344,29.6932 C 44.3784,31.2522 46.5934,32.8112 48.2364,31.4162 C 48.8784,30.8692 49.4844,30.5872 50.0224,30.4812 C 50.7314,28.8402 51.2904,26.9622 51.2524,25.1822 Z" transform=""/><path fill="#304454" stroke="none" d="M 42.6791,47.9677 C 42.3411,49.3227 44.3471,48.9757 44.9241,49.9357 C 45.2881,50.5437 45.5481,51.7117 45.9941,52.1767 C 45.8651,50.8797 45.4561,49.3567 44.7391,47.7977 C 44.6731,47.6557 44.6251,47.5117 44.5821,47.3627 C 43.7211,47.2517 42.8431,47.3127 42.6791,47.9677 Z" transform=""/><path fill="#304454" stroke="none" d="M 41.5693,14.9141 C 38.5363,16.0731 35.1473,18.1551 31.4923,18.2011 C 31.0393,18.2071 30.5853,18.1951 30.1333,18.1731 C 30.1463,18.1951 30.1603,18.2181 30.1733,18.2391 C 28.7163,18.0901 26.4953,19.7761 26.4033,21.1341 C 26.2443,23.5431 27.7023,24.9261 26.0053,26.2251 C 24.3083,27.5231 27.1033,30.5161 28.1023,29.3191 C 28.3913,28.9721 28.8603,28.8621 29.3743,28.8151 C 29.1033,30.2271 31.1483,32.1001 31.9743,31.1091 C 32.6313,30.3211 34.2023,30.7341 35.1683,30.4111 C 36.6653,29.9131 36.6653,28.7141 37.2653,27.2171 C 37.8643,25.7201 39.3603,26.4191 39.9583,25.5211 C 40.5583,24.6221 39.2603,23.2251 37.9633,23.4241 C 36.8263,23.5981 36.7613,21.7081 35.2233,20.5651 C 37.4253,19.4101 38.3523,17.2331 40.2743,17.3821 C 41.8573,17.5021 42.3103,16.0001 41.5693,14.9141 Z" transform=""/><ellipse cx="18.339542580641343" cy="20.56963762381826" rx="6.680606823321747" ry="7.022759701296907" fill="#d1d3d4" stroke="none" r="NaN" transform=""/><ellipse cx="17.995233896665034" cy="27.59239628314108" rx="6.680606823321747" ry="7.022759701296907" fill="#d1d3d4" stroke="none" transform="rotate(7.9381 17.995234160623014 27.59239686073368)" r="NaN"/><path fill="#304454" stroke="none" d="M 14.1935,32.7937 C 14.9055,34.5447 16.0985,36.2377 17.7225,37.6987 C 18.9035,37.5807 19.3395,35.8437 18.6885,35.1917 C 17.9485,34.4537 17.2115,34.9457 16.6365,34.2077 C 16.0615,33.4677 16.8825,32.1557 15.7315,31.7457 C 15.1125,31.5237 14.5675,32.1587 14.1935,32.7937 Z" transform=""/><path fill="#304454" stroke="none" d="M 20.3788,13.1084 S 20.5888,6.7174 24.9948,6.5604 C 29.4018,6.4044 32.7578,10.4584 30.6608,12.7954 C 28.5618,15.1344 21.8498,14.9784 21.8498,14.9784 L 20.3788,13.1084 Z" transform=""/><path fill="#304454" stroke="none" d="M 8.91309,9.51364 S 3.44909,4.78364 1.10009,7.11764 C -1.24991,9.45364 0.456088,14.3976 3.47409,15.0006 C 6.49109,15.6066 9.74009,11.7496 9.74009,11.7496 L 8.91309,9.51364 Z" transform=""/><ellipse cx="14.176922590406312" cy="16.945404959741158" rx="10.024504277818492" ry="11.114936874222526" fill="#efefef" stroke="none" r="NaN" transform=""/><path fill="#304454" stroke="none" d="M 21.6834,9.58409 C 19.8464,7.28209 17.1664,5.83009 14.1764,5.83009 C 13.5574,5.83009 12.9554,5.89509 12.3674,6.01509 C 11.8384,6.78209 11.4904,7.70609 11.6204,8.34709 C 11.9454,9.91209 13.1394,9.86109 14.3504,9.24009 C 15.5594,8.61609 17.3414,8.72409 18.4204,10.1291 C 19.0284,10.9141 21.6964,11.2251 21.6834,9.58409 Z" transform=""/><path fill="#f4dbc5" stroke="none" d="M 18.1634,8.82287 C 17.6124,8.45387 17.3154,8.18287 17.2054,7.52087 C 17.2054,7.52087 18.2914,6.19987 18.3034,5.04787 C 18.3204,3.64187 17.4644,2.31287 17.8304,1.92587 C 18.1814,1.55287 20.1434,1.89787 20.7544,4.59287 C 21.2454,6.76887 19.8234,9.18587 19.8234,9.18587 S 18.9134,9.32287 18.1634,8.82287 Z" transform=""/><path fill="#f4dbc5" stroke="none" d="M 10.3593,8.82287 C 10.9103,8.45387 11.2083,8.18287 11.3163,7.52087 C 11.3163,7.52087 10.2323,6.19987 10.2173,5.04787 C 10.2023,3.64187 11.0583,2.31287 10.6933,1.92587 C 10.3423,1.55287 8.37833,1.89787 7.76933,4.59287 C 7.27733,6.76887 8.69933,9.18587 8.69933,9.18587 S 9.60933,9.32287 10.3593,8.82287 Z" transform=""/><ellipse cx="9.49101035949245" cy="20.65876908136004" rx="0.7777508696830353" ry="1.0810880850307625" fill="#304454" stroke="none" transform="rotate(1.5587 9.49101000237903 20.658769421766433)" r="NaN"/><ellipse cx="18.77298477868724" cy="20.432345369833357" rx="0.7777508696830353" ry="1.0810880850307625" fill="#304454" stroke="none" transform="rotate(1.5587 18.772985030306046 20.432344723106404)" r="NaN"/><path fill="#f4dbc5" stroke="none" d="M 22.4583,27.9518 C 22.4583,31.3828 18.7983,34.1628 14.2833,34.1628 C 9.77132,34.1628 6.11232,31.3828 6.11232,27.9518 C 6.11232,24.5208 9.77132,21.7388 14.2833,21.7388 C 18.7993,21.7398 22.4583,24.5208 22.4583,27.9518 Z" transform=""/><ellipse cx="7.134036693438518" cy="26.87358788734369" rx="1.9185000657892985" ry="1.45774377423031" fill="#f4dbc5" stroke="none" transform="rotate(24.8096 7.134036710613158 26.87358829355897)" r="NaN"/><ellipse cx="7.7011765062403805" cy="27.6312123886075" rx="1.6288202132178908" ry="1.237788352674849" fill="#c75e72" stroke="none" style="opacity: 0.7" opacity="0.7" transform="rotate(40.5186 7.701176670114002 27.63121252336111)" r="NaN"/><ellipse cx="21.43976407619383" cy="26.572408019021942" rx="1.9185000657892985" ry="1.45774377423031" fill="#f4dbc5" stroke="none" transform="rotate(-14.7325 21.439764814524217 26.572407503912764)" r="NaN"/><ellipse cx="20.954568670380997" cy="27.079166290266198" rx="1.6288202132178908" ry="1.237788352674849" fill="#c75e72" stroke="none" style="opacity: 0.7" opacity="0.7" transform="rotate(-35.0728 20.954569031681288 27.079167543770936)" r="NaN"/><path fill="#304454" stroke="none" d="M 41.7943,39.7309 C 41.2893,38.4129 40.3083,37.5009 39.7053,38.4149 C 39.3803,38.9089 38.8993,39.0389 38.3823,39.0709 C 38.8053,36.9939 36.9673,34.0639 36.0373,35.4739 C 35.2963,36.5969 33.7743,35.8699 32.7773,36.2789 C 31.2303,36.9099 31.1003,38.6889 30.3403,40.8699 C 30.0043,41.8339 29.5393,42.1459 29.0653,42.3069 C 30.9043,42.4669 32.8813,42.4209 34.9903,42.1159 C 37.6593,41.7309 39.9093,40.8889 41.7943,39.7309 Z" transform=""/><path fill="#d1d3d4" stroke="none" d="M 103.232,16.6033 C 103.026,16.6863 102.927,16.9213 103.01,17.1263 C 103.095,17.3323 103.328,17.4303 103.534,17.3483 C 103.566,17.3353 106.724,16.0823 108.728,17.1543 C 109.529,17.5833 110.048,18.3473 110.272,19.4273 L 110.789,22.0703 C 111.368,25.1483 111.633,26.5533 113.011,27.3183 C 113.205,27.4263 113.45,27.3563 113.558,27.1623 C 113.665,26.9683 113.595,26.7243 113.402,26.6153 C 112.355,26.0343 112.129,24.8293 111.58,21.9213 L 111.061,19.2653 C 110.786,17.9393 110.13,16.9893 109.107,16.4443 C 106.769,15.1953 103.376,16.5453 103.232,16.6033 Z" transform=""/><path fill="#304454" stroke="none" d="M 113.302,29.756 C 112.695,28.845 112.171,27.28 113.383,26.48 C 114.228,25.924 115.464,26.148 116.143,27.592 C 117.026,29.466 116.01,30.42 116.667,31.651 C 116.667,31.651 114.286,31.233 113.302,29.756 Z" transform=""/><path fill="#304454" stroke="none" d="M 111.336,20.6782 L 111.06,19.2662 C 110.785,17.9402 110.129,16.9902 109.106,16.4452 C 109.089,16.4362 109.07,16.4282 109.055,16.4192 C 109.149,16.6072 109.275,16.7722 109.443,16.8882 C 110.263,17.4632 110.673,18.6942 110.673,19.5162 C 110.673,19.9272 110.921,20.3812 111.336,20.6782 Z" transform=""/><path fill="#d78334" stroke="none" d="M 89.5446,55.2011 L 92.1296,54.5751 L 92.3646,52.1461 L 91.0326,50.9711 L 89.9376,51.9891 Z" transform=""/><path fill="#d1d3d4" stroke="none" d="M 96.4293,34.25 S 93.6173,36.402 95.1363,40.23 C 95.9113,42.183 94.5623,45.678 93.8433,46.049 C 91.5813,47.212 90.4123,49.438 90.2493,50.893 C 90.2493,50.893 95.6573,54.465 97.1433,54.809 C 99.2443,55.294 99.6503,51.363 97.7223,47.178 C 97.0263,45.668 97.7633,43.786 98.7883,42.981 C 101.051,41.204 101.492,37.25 100.198,35.149" transform=""/><path fill="#304454" stroke="none" d="M 97.1302,42.6615 C 96.6252,43.0535 96.9642,44.4085 97.5452,45.0655 C 97.7412,44.2045 98.2192,43.4275 98.7882,42.9815 C 99.9502,42.0685 100.629,40.5815 100.841,39.0665 L 99.8372,37.9825 L 98.5252,38.1475 S 96.8832,38.9675 97.1292,40.0345 C 97.3762,41.1005 97.8692,42.0865 97.1302,42.6615 Z" transform=""/><path fill="#f3b37c" stroke="none" d="M 88.8387,54.8877 S 88.6047,49.0917 92.8357,49.0117 C 96.0667,48.9517 97.9977,52.6877 98.1607,55.4357 L 91.5807,55.5137 L 90.4837,51.9097 L 89.5437,55.2007 L 88.8387,54.8877 Z" transform=""/><path fill="#d78334" stroke="none" d="M 69.0255,55.2011 L 71.6105,54.5751 L 71.8445,52.1461 L 70.5125,50.9711 L 69.4165,51.9891 Z" transform=""/><path fill="#d1d3d4" stroke="none" d="M 75.9095,34.25 S 73.0985,36.402 74.6175,40.23 C 75.3915,42.183 74.0425,45.678 73.3235,46.049 C 71.0615,47.212 69.8905,49.438 69.7295,50.893 C 69.7295,50.893 75.1365,54.465 76.6215,54.809 C 78.7225,55.294 79.1295,51.363 77.2015,47.178 C 76.5065,45.668 77.2425,43.786 78.2675,42.981 C 80.5305,41.204 80.9695,37.25 79.6785,35.149" transform=""/><path fill="#304454" stroke="none" d="M 72.3909,50.3391 S 73.7449,46.9511 75.1009,47.4591 C 76.4559,47.9681 75.6089,49.1531 76.9639,49.1531 S 78.6579,50.3391 78.6579,50.3391 L 75.5439,51.7721 L 72.3909,50.3391 Z" transform=""/><path fill="#f3b37c" stroke="none" d="M 68.3203,54.8877 S 68.0863,49.0917 72.3143,49.0117 C 75.5463,48.9517 77.4783,52.6877 77.6413,55.4357 L 71.0623,55.5137 L 69.9653,51.9097 L 69.0263,55.2007 L 68.3203,54.8877 Z" transform=""/><path fill="#d78334" stroke="none" d="M 73.9838,56.2039 L 76.6928,55.5469 L 76.9388,53.0019 L 75.5438,51.7729 L 74.3938,52.8389 Z" transform=""/><path fill="#efefef" stroke="none" d="M 78.1493,15.7903 S 84.0913,18.2743 89.8253,18.2013 C 96.2263,18.1183 101.807,11.7983 106.093,15.1133 C 110.114,18.2233 110.216,39.5643 93.0513,42.0403 C 76.6253,44.4113 67.9933,31.3343 73.3273,24.1933 C 78.4443,17.3433 78.1493,15.7903 78.1493,15.7903 Z" transform=""/><path fill="#d1d3d4" stroke="none" d="M 107.994,19.1895 C 106.214,16.9925 104.578,17.1725 104.578,17.1725 L 105.986,22.0235 S 107.351,22.4485 108.312,22.3405 C 108.288,21.2065 108.177,20.1425 107.994,19.1895 Z" transform=""/><path fill="#d1d3d4" stroke="none" d="M 86.6233,37.6543 C 85.6393,35.1093 84.4893,35.3553 84.4893,35.3553 L 83.2123,41.5333 C 84.1983,41.8093 85.2423,42.0163 86.3393,42.1523 C 86.7773,41.0113 87.2303,39.2243 86.6233,37.6543 Z" transform=""/><path fill="#efefef" stroke="none" d="M 81.1985,34.25 S 78.2525,36.506 79.8425,40.517 C 80.6545,42.563 79.2415,46.226 78.4875,46.612 C 76.1175,47.832 74.8905,50.166 74.7225,51.689 C 74.7225,51.689 80.3895,55.433 81.9455,55.793 C 84.1475,56.301 84.5715,52.181 82.5525,47.798 C 81.8235,46.215 82.5955,44.242 83.6675,43.4 C 86.0385,41.537 86.5015,37.393 85.1465,35.191" transform=""/><path fill="#f3b37c" stroke="none" d="M 73.2449,55.8746 S 72.9979,49.8016 77.4309,49.7186 C 80.8179,49.6566 82.8429,53.5696 83.0129,56.4506 L 76.1169,56.5326 L 74.9689,52.7566 L 73.9839,56.2026 L 73.2449,55.8746 Z" transform=""/><path fill="#304454" stroke="none" d="M 82.1085,37.1612 C 81.6405,36.2752 80.3775,36.6142 79.5175,36.9782 C 79.2855,37.9292 79.2875,39.1152 79.8425,40.5162 C 80.2155,41.4552 80.1195,42.7352 79.8325,43.8812 C 81.2075,43.8092 81.5145,42.9952 81.3715,42.6612 C 81.1245,42.0862 80.8775,40.8542 81.3715,40.1972 C 81.8635,39.5422 82.8485,38.5562 82.1085,37.1612 Z" transform=""/><path fill="#d78334" stroke="none" d="M 94.5044,56.2039 L 97.2124,55.5469 L 97.4584,53.0019 L 96.0624,51.7729 L 94.9144,52.8389 Z" transform=""/><path fill="#efefef" stroke="none" d="M 105.256,17.1345 S 108.867,19.5155 109.524,24.3575 C 110.18,29.1995 105.666,35.1915 105.666,35.1915 C 107.021,37.3945 106.559,41.5385 104.189,43.4005 C 103.115,44.2425 102.344,46.2165 103.072,47.7985 C 105.091,52.1815 104.666,56.3015 102.463,55.7945 C 100.907,55.4345 95.2423,51.6895 95.2423,51.6895 C 95.4103,50.1655 96.6373,47.8315 99.0073,46.6125 C 99.7603,46.2265 101.173,42.5635 100.361,40.5175 C 98.7703,36.5065 101.717,34.2505 101.717,34.2505 S 95.9803,31.7455 96.4723,26.4915 C 96.9653,21.2375 101.972,15.9855 105.256,17.1345 Z" transform=""/><path fill="#f3b37c" stroke="none" d="M 93.7654,55.8746 S 93.5174,49.8016 97.9514,49.7186 C 101.337,49.6566 103.363,53.5696 103.533,56.4506 L 96.6384,56.5326 L 95.4894,52.7566 L 94.5044,56.2026 L 93.7654,55.8746 Z" transform=""/><path fill="#304454" stroke="none" d="M 102.628,37.1612 C 102.16,36.2752 100.896,36.6142 100.036,36.9782 C 99.8053,37.9292 99.8073,39.1152 100.361,40.5162 C 100.734,41.4552 100.638,42.7352 100.352,43.8812 C 101.725,43.8092 102.033,42.9952 101.891,42.6612 C 101.644,42.0862 101.397,40.8542 101.891,40.1972 C 102.382,39.5422 103.367,38.5562 102.628,37.1612 Z" transform=""/><path fill="#304454" stroke="none" d="M 87.2846,20.1757 C 87.5216,19.3237 89.0906,17.7137 90.0756,18.7807 C 91.3796,20.1927 89.9946,20.9157 90.4036,21.6537 C 90.8136,22.3917 91.8806,21.8177 92.2916,22.6387 C 92.7026,23.4597 91.3066,24.8547 89.6656,24.0337 C 88.0236,23.2127 86.8746,21.6537 87.2846,20.1757 Z" transform=""/><path fill="#304454" stroke="none" d="M 109.586,25.1822 C 109.235,24.4332 108.743,23.7682 108.129,23.8652 C 106.571,24.1122 106.406,25.6712 107.144,26.9012 C 107.883,28.1332 107.061,28.9542 106.324,28.9542 C 105.584,28.9542 103.811,28.6392 103.368,29.6932 C 102.712,31.2522 104.927,32.8112 106.57,31.4162 C 107.212,30.8692 107.818,30.5872 108.356,30.4812 C 109.065,28.8402 109.624,26.9622 109.586,25.1822 Z" transform=""/><path fill="#304454" stroke="none" d="M 101.012,47.9677 C 100.674,49.3227 102.68,48.9757 103.257,49.9357 C 103.621,50.5437 103.881,51.7117 104.327,52.1767 C 104.198,50.8797 103.789,49.3567 103.072,47.7977 C 103.006,47.6557 102.958,47.5117 102.915,47.3627 C 102.054,47.2517 101.176,47.3127 101.012,47.9677 Z" transform=""/><path fill="#304454" stroke="none" d="M 99.9026,14.9141 C 96.8696,16.0731 93.4806,18.1551 89.8256,18.2011 C 89.3726,18.2071 88.9186,18.1951 88.4666,18.1731 C 88.4796,18.1951 88.4936,18.2181 88.5066,18.2391 C 87.0496,18.0901 84.8286,19.7761 84.7366,21.1341 C 84.5776,23.5431 86.0356,24.9261 84.3386,26.2251 C 82.6416,27.5231 85.4366,30.5161 86.4356,29.3191 C 86.7246,28.9721 87.1936,28.8621 87.7076,28.8151 C 87.4366,30.2271 89.4816,32.1001 90.3076,31.1091 C 90.9646,30.3211 92.5356,30.7341 93.5016,30.4111 C 94.9986,29.9131 94.9986,28.7141 95.5986,27.2171 C 96.1976,25.7201 97.6936,26.4191 98.2916,25.5211 C 98.8916,24.6221 97.5936,23.2251 96.2966,23.4241 C 95.1596,23.5981 95.0946,21.7081 93.5566,20.5651 C 95.7586,19.4101 96.6856,17.2331 98.6076,17.3821 C 100.191,17.5021 100.644,16.0001 99.9026,14.9141 Z" transform=""/><ellipse cx="76.67287591397468" cy="20.56963762381826" rx="6.680606823321747" ry="7.022759701296907" fill="#d1d3d4" stroke="none" r="NaN" transform=""/><ellipse cx="76.32856722999836" cy="27.59239628314108" rx="6.680606823321747" ry="7.022759701296907" fill="#d1d3d4" stroke="none" transform="rotate(7.9381 76.32856749395634 27.59239686073368)" r="NaN"/><path fill="#304454" stroke="none" d="M 72.5268,32.7937 C 73.2388,34.5447 74.4318,36.2377 76.0558,37.6987 C 77.2368,37.5807 77.6728,35.8437 77.0218,35.1917 C 76.2818,34.4537 75.5448,34.9457 74.9698,34.2077 C 74.3948,33.4677 75.2158,32.1557 74.0648,31.7457 C 73.4458,31.5237 72.9008,32.1587 72.5268,32.7937 Z" transform=""/><path fill="#304454" stroke="none" d="M 78.7121,13.1084 S 78.9221,6.7174 83.3281,6.5604 C 87.7351,6.4044 91.0911,10.4584 88.9941,12.7954 C 86.8951,15.1344 80.1831,14.9784 80.1831,14.9784 L 78.7121,13.1084 Z" transform=""/><path fill="#304454" stroke="none" d="M 67.2464,9.51364 S 61.7824,4.78364 59.4334,7.11764 C 57.0834,9.45364 58.7894,14.3976 61.8074,15.0006 C 64.8244,15.6066 68.0734,11.7496 68.0734,11.7496 L 67.2464,9.51364 Z" transform=""/><ellipse cx="72.51025592373963" cy="16.945404959741158" rx="10.024504277818492" ry="11.114936874222526" fill="#efefef" stroke="none" r="NaN" transform=""/><path fill="#304454" stroke="none" d="M 80.0168,9.58409 C 78.1798,7.28209 75.4998,5.83009 72.5098,5.83009 C 71.8908,5.83009 71.2888,5.89509 70.7008,6.01509 C 70.1718,6.78209 69.8238,7.70609 69.9538,8.34709 C 70.2788,9.91209 71.4728,9.86109 72.6838,9.24009 C 73.8928,8.61609 75.6748,8.72409 76.7538,10.1291 C 77.3618,10.9141 80.0298,11.2251 80.0168,9.58409 Z" transform=""/><path fill="#f4dbc5" stroke="none" d="M 76.4968,8.82287 C 75.9458,8.45387 75.6488,8.18287 75.5388,7.52087 C 75.5388,7.52087 76.6248,6.19987 76.6368,5.04787 C 76.6538,3.64187 75.7978,2.31287 76.1638,1.92587 C 76.5148,1.55287 78.4768,1.89787 79.0878,4.59287 C 79.5788,6.76887 78.1568,9.18587 78.1568,9.18587 S 77.2468,9.32287 76.4968,8.82287 Z" transform=""/><path fill="#f4dbc5" stroke="none" d="M 68.6927,8.82287 C 69.2437,8.45387 69.5417,8.18287 69.6497,7.52087 C 69.6497,7.52087 68.5657,6.19987 68.5507,5.04787 C 68.5357,3.64187 69.3917,2.31287 69.0267,1.92587 C 68.6757,1.55287 66.7117,1.89787 66.1027,4.59287 C 65.6107,6.76887 67.0327,9.18587 67.0327,9.18587 S 67.9427,9.32287 68.6927,8.82287 Z" transform=""/><ellipse cx="67.82434369282578" cy="20.65876908136004" rx="0.7777508696830353" ry="1.0810880850307625" fill="#304454" stroke="none" transform="rotate(1.5587 67.82434333571236 20.658769421766433)" r="NaN"/><ellipse cx="77.10631811202057" cy="20.432345369833357" rx="0.7777508696830353" ry="1.0810880850307625" fill="#304454" stroke="none" transform="rotate(1.5587 77.10631836363937 20.432344723106404)" r="NaN"/><path fill="#f4dbc5" stroke="none" d="M 80.7916,27.9518 C 80.7916,31.3828 77.1316,34.1628 72.6166,34.1628 C 68.1046,34.1628 64.4456,31.3828 64.4456,27.9518 C 64.4456,24.5208 68.1046,21.7388 72.6166,21.7388 C 77.1326,21.7398 80.7916,24.5208 80.7916,27.9518 Z" transform=""/><ellipse cx="65.46737002677185" cy="26.87358788734369" rx="1.9185000657892985" ry="1.45774377423031" fill="#f4dbc5" stroke="none" transform="rotate(24.8096 65.46737004394649 26.87358829355897)" r="NaN"/><ellipse cx="66.03450983957372" cy="27.6312123886075" rx="1.6288202132178908" ry="1.237788352674849" fill="#c75e72" stroke="none" style="opacity: 0.7" opacity="0.7" transform="rotate(40.5186 66.03451000344734 27.63121252336111)" r="NaN"/><ellipse cx="79.77309740952715" cy="26.572408019021942" rx="1.9185000657892985" ry="1.45774377423031" fill="#f4dbc5" stroke="none" transform="rotate(-14.7325 79.77309814785755 26.572407503912764)" r="NaN"/><ellipse cx="79.28790200371432" cy="27.079166290266198" rx="1.6288202132178908" ry="1.237788352674849" fill="#c75e72" stroke="none" style="opacity: 0.7" opacity="0.7" transform="rotate(-35.0728 79.28790236501462 27.079167543770936)" r="NaN"/><path fill="#304454" stroke="none" d="M 100.128,39.7309 C 99.6226,38.4129 98.6416,37.5009 98.0386,38.4149 C 97.7136,38.9089 97.2326,39.0389 96.7156,39.0709 C 97.1386,36.9939 95.3006,34.0639 94.3706,35.4739 C 93.6296,36.5969 92.1076,35.8699 91.1106,36.2789 C 89.5636,36.9099 89.4336,38.6889 88.6736,40.8699 C 88.3376,41.8339 87.8726,42.1459 87.3986,42.3069 C 89.2376,42.4669 91.2146,42.4209 93.3236,42.1159 C 95.9926,41.7309 98.2426,40.8889 100.128,39.7309 Z" transform=""/><path fill="#d1d3d4" stroke="none" d="M 161.565,16.6033 C 161.359,16.6863 161.26,16.9213 161.343,17.1263 C 161.428,17.3323 161.661,17.4303 161.867,17.3483 C 161.899,17.3353 165.057,16.0823 167.061,17.1543 C 167.862,17.5833 168.381,18.3473 168.605,19.4273 L 169.122,22.0703 C 169.701,25.1483 169.966,26.5533 171.344,27.3183 C 171.538,27.4263 171.783,27.3563 171.891,27.1623 C 171.998,26.9683 171.928,26.7243 171.735,26.6153 C 170.688,26.0343 170.462,24.8293 169.913,21.9213 L 169.394,19.2653 C 169.119,17.9393 168.463,16.9893 167.44,16.4443 C 165.102,15.1953 161.709,16.5453 161.565,16.6033 Z" transform=""/><path fill="#304454" stroke="none" d="M 171.635,29.756 C 171.028,28.845 170.504,27.28 171.716,26.48 C 172.561,25.924 173.797,26.148 174.476,27.592 C 175.359,29.466 174.343,30.42 175,31.651 C 175,31.651 172.619,31.233 171.635,29.756 Z" transform=""/><path fill="#304454" stroke="none" d="M 169.669,20.6782 L 169.393,19.2662 C 169.118,17.9402 168.462,16.9902 167.439,16.4452 C 167.422,16.4362 167.403,16.4282 167.388,16.4192 C 167.482,16.6072 167.608,16.7722 167.776,16.8882 C 168.596,17.4632 169.006,18.6942 169.006,19.5162 C 169.006,19.9272 169.254,20.3812 169.669,20.6782 Z" transform=""/><path fill="#d78334" stroke="none" d="M 147.878,55.2011 L 150.463,54.5751 L 150.698,52.1461 L 149.366,50.9711 L 148.271,51.9891 Z" transform=""/><path fill="#d1d3d4" stroke="none" d="M 154.763,34.25 S 151.951,36.402 153.47,40.23 C 154.245,42.183 152.896,45.678 152.177,46.049 C 149.915,47.212 148.746,49.438 148.583,50.893 C 148.583,50.893 153.991,54.465 155.477,54.809 C 157.578,55.294 157.984,51.363 156.056,47.178 C 155.36,45.668 156.097,43.786 157.122,42.981 C 159.385,41.204 159.826,37.25 158.532,35.149" transform=""/><path fill="#304454" stroke="none" d="M 155.464,42.6615 C 154.959,43.0535 155.298,44.4085 155.879,45.0655 C 156.075,44.2045 156.553,43.4275 157.122,42.9815 C 158.284,42.0685 158.963,40.5815 159.175,39.0665 L 158.171,37.9825 L 156.859,38.1475 S 155.217,38.9675 155.463,40.0345 C 155.71,41.1005 156.203,42.0865 155.464,42.6615 Z" transform=""/><path fill="#f3b37c" stroke="none" d="M 147.172,54.8877 S 146.938,49.0917 151.169,49.0117 C 154.4,48.9517 156.331,52.6877 156.494,55.4357 L 149.914,55.5137 L 148.817,51.9097 L 147.877,55.2007 L 147.172,54.8877 Z" transform=""/><path fill="#d78334" stroke="none" d="M 127.359,55.2011 L 129.944,54.5751 L 130.178,52.1461 L 128.846,50.9711 L 127.75,51.9891 Z" transform=""/><path fill="#d1d3d4" stroke="none" d="M 134.243,34.25 S 131.432,36.402 132.951,40.23 C 133.725,42.183 132.376,45.678 131.657,46.049 C 129.395,47.212 128.224,49.438 128.063,50.893 C 128.063,50.893 133.47,54.465 134.955,54.809 C 137.056,55.294 137.463,51.363 135.535,47.178 C 134.84,45.668 135.576,43.786 136.601,42.981 C 138.864,41.204 139.303,37.25 138.012,35.149" transform=""/><path fill="#304454" stroke="none" d="M 130.724,50.3391 S 132.078,46.9511 133.434,47.4591 C 134.789,47.9681 133.942,49.1531 135.297,49.1531 S 136.991,50.3391 136.991,50.3391 L 133.877,51.7721 L 130.724,50.3391 Z" transform=""/><path fill="#f3b37c" stroke="none" d="M 126.654,54.8877 S 126.42,49.0917 130.648,49.0117 C 133.88,48.9517 135.812,52.6877 135.975,55.4357 L 129.396,55.5137 L 128.299,51.9097 L 127.36,55.2007 L 126.654,54.8877 Z" transform=""/><path fill="#d78334" stroke="none" d="M 132.317,56.2039 L 135.026,55.5469 L 135.272,53.0019 L 133.877,51.7729 L 132.727,52.8389 Z" transform=""/><path fill="#efefef" stroke="none" d="M 136.483,15.7903 S 142.425,18.2743 148.159,18.2013 C 154.56,18.1183 160.141,11.7983 164.427,15.1133 C 168.448,18.2233 168.55,39.5643 151.385,42.0403 C 134.959,44.4113 126.327,31.3343 131.661,24.1933 C 136.778,17.3433 136.483,15.7903 136.483,15.7903 Z" transform=""/><path fill="#d1d3d4" stroke="none" d="M 166.327,19.1895 C 164.547,16.9925 162.911,17.1725 162.911,17.1725 L 164.319,22.0235 S 165.684,22.4485 166.645,22.3405 C 166.621,21.2065 166.51,20.1425 166.327,19.1895 Z" transform=""/><path fill="#d1d3d4" stroke="none" d="M 144.957,37.6543 C 143.973,35.1093 142.823,35.3553 142.823,35.3553 L 141.546,41.5333 C 142.532,41.8093 143.576,42.0163 144.673,42.1523 C 145.111,41.0113 145.564,39.2243 144.957,37.6543 Z" transform=""/><path fill="#efefef" stroke="none" d="M 139.532,34.25 S 136.586,36.506 138.176,40.517 C 138.988,42.563 137.575,46.226 136.821,46.612 C 134.451,47.832 133.224,50.166 133.056,51.689 C 133.056,51.689 138.723,55.433 140.279,55.793 C 142.481,56.301 142.905,52.181 140.886,47.798 C 140.157,46.215 140.929,44.242 142.001,43.4 C 144.372,41.537 144.835,37.393 143.48,35.191" transform=""/><path fill="#f3b37c" stroke="none" d="M 131.578,55.8746 S 131.331,49.8016 135.764,49.7186 C 139.151,49.6566 141.176,53.5696 141.346,56.4506 L 134.45,56.5326 L 133.302,52.7566 L 132.317,56.2026 L 131.578,55.8746 Z" transform=""/><path fill="#304454" stroke="none" d="M 140.442,37.1612 C 139.974,36.2752 138.711,36.6142 137.851,36.9782 C 137.619,37.9292 137.621,39.1152 138.176,40.5162 C 138.549,41.4552 138.453,42.7352 138.166,43.8812 C 139.541,43.8092 139.848,42.9952 139.705,42.6612 C 139.458,42.0862 139.211,40.8542 139.705,40.1972 C 140.197,39.5422 141.182,38.5562 140.442,37.1612 Z" transform=""/><path fill="#d78334" stroke="none" d="M 152.838,56.2039 L 155.546,55.5469 L 155.792,53.0019 L 154.396,51.7729 L 153.248,52.8389 Z" transform=""/><path fill="#efefef" stroke="none" d="M 163.59,17.1345 S 167.201,19.5155 167.858,24.3575 C 168.514,29.1995 164,35.1915 164,35.1915 C 165.355,37.3945 164.893,41.5385 162.523,43.4005 C 161.449,44.2425 160.678,46.2165 161.406,47.7985 C 163.425,52.1815 163,56.3015 160.797,55.7945 C 159.241,55.4345 153.576,51.6895 153.576,51.6895 C 153.744,50.1655 154.971,47.8315 157.341,46.6125 C 158.094,46.2265 159.507,42.5635 158.695,40.5175 C 157.104,36.5065 160.051,34.2505 160.051,34.2505 S 154.314,31.7455 154.806,26.4915 C 155.299,21.2375 160.306,15.9855 163.59,17.1345 Z" transform=""/><path fill="#f3b37c" stroke="none" d="M 152.099,55.8746 S 151.851,49.8016 156.285,49.7186 C 159.671,49.6566 161.697,53.5696 161.867,56.4506 L 154.972,56.5326 L 153.823,52.7566 L 152.838,56.2026 L 152.099,55.8746 Z" transform=""/><path fill="#304454" stroke="none" d="M 160.962,37.1612 C 160.494,36.2752 159.23,36.6142 158.37,36.9782 C 158.139,37.9292 158.141,39.1152 158.695,40.5162 C 159.068,41.4552 158.972,42.7352 158.686,43.8812 C 160.059,43.8092 160.367,42.9952 160.225,42.6612 C 159.978,42.0862 159.731,40.8542 160.225,40.1972 C 160.716,39.5422 161.701,38.5562 160.962,37.1612 Z" transform=""/><path fill="#304454" stroke="none" d="M 145.618,20.1757 C 145.855,19.3237 147.424,17.7137 148.409,18.7807 C 149.713,20.1927 148.328,20.9157 148.737,21.6537 C 149.147,22.3917 150.214,21.8177 150.625,22.6387 C 151.036,23.4597 149.64,24.8547 147.999,24.0337 C 146.357,23.2127 145.208,21.6537 145.618,20.1757 Z" transform=""/><path fill="#304454" stroke="none" d="M 167.919,25.1822 C 167.568,24.4332 167.076,23.7682 166.462,23.8652 C 164.904,24.1122 164.739,25.6712 165.477,26.9012 C 166.216,28.1332 165.394,28.9542 164.657,28.9542 C 163.917,28.9542 162.144,28.6392 161.701,29.6932 C 161.045,31.2522 163.26,32.8112 164.903,31.4162 C 165.545,30.8692 166.151,30.5872 166.689,30.4812 C 167.398,28.8402 167.957,26.9622 167.919,25.1822 Z" transform=""/><path fill="#304454" stroke="none" d="M 159.346,47.9677 C 159.008,49.3227 161.014,48.9757 161.591,49.9357 C 161.955,50.5437 162.215,51.7117 162.661,52.1767 C 162.532,50.8797 162.123,49.3567 161.406,47.7977 C 161.34,47.6557 161.292,47.5117 161.249,47.3627 C 160.388,47.2517 159.51,47.3127 159.346,47.9677 Z" transform=""/><path fill="#304454" stroke="none" d="M 158.236,14.9141 C 155.203,16.0731 151.814,18.1551 148.159,18.2011 C 147.706,18.2071 147.252,18.1951 146.8,18.1731 C 146.813,18.1951 146.827,18.2181 146.84,18.2391 C 145.383,18.0901 143.162,19.7761 143.07,21.1341 C 142.911,23.5431 144.369,24.9261 142.672,26.2251 C 140.975,27.5231 143.77,30.5161 144.769,29.3191 C 145.058,28.9721 145.527,28.8621 146.041,28.8151 C 145.77,30.2271 147.815,32.1001 148.641,31.1091 C 149.298,30.3211 150.869,30.7341 151.835,30.4111 C 153.332,29.9131 153.332,28.7141 153.932,27.2171 C 154.531,25.7201 156.027,26.4191 156.625,25.5211 C 157.225,24.6221 155.927,23.2251 154.63,23.4241 C 153.493,23.5981 153.428,21.7081 151.89,20.5651 C 154.092,19.4101 155.019,17.2331 156.941,17.3821 C 158.524,17.5021 158.977,16.0001 158.236,14.9141 Z" transform=""/><ellipse cx="135.00620924730802" cy="20.56963762381826" rx="6.680606823321747" ry="7.022759701296907" fill="#d1d3d4" stroke="none" r="NaN" transform=""/><ellipse cx="134.6619005633317" cy="27.59239628314108" rx="6.680606823321747" ry="7.022759701296907" fill="#d1d3d4" stroke="none" transform="rotate(7.9381 134.66190082728968 27.59239686073368)" r="NaN"/><path fill="#304454" stroke="none" d="M 130.86,32.7937 C 131.572,34.5447 132.765,36.2377 134.389,37.6987 C 135.57,37.5807 136.006,35.8437 135.355,35.1917 C 134.615,34.4537 133.878,34.9457 133.303,34.2077 C 132.728,33.4677 133.549,32.1557 132.398,31.7457 C 131.779,31.5237 131.234,32.1587 130.86,32.7937 Z" transform=""/><path fill="#304454" stroke="none" d="M 137.045,13.1084 S 137.255,6.7174 141.661,6.5604 C 146.068,6.4044 149.424,10.4584 147.327,12.7954 C 145.228,15.1344 138.516,14.9784 138.516,14.9784 L 137.045,13.1084 Z" transform=""/><path fill="#304454" stroke="none" d="M 125.58,9.51364 S 120.116,4.78364 117.767,7.11764 C 115.417,9.45364 117.123,14.3976 120.141,15.0006 C 123.158,15.6066 126.407,11.7496 126.407,11.7496 L 125.58,9.51364 Z" transform=""/><ellipse cx="130.84358925707298" cy="16.945404959741158" rx="10.024504277818492" ry="11.114936874222526" fill="#efefef" stroke="none" r="NaN" transform=""/><path fill="#304454" stroke="none" d="M 138.35,9.58409 C 136.513,7.28209 133.833,5.83009 130.843,5.83009 C 130.224,5.83009 129.622,5.89509 129.034,6.01509 C 128.505,6.78209 128.157,7.70609 128.287,8.34709 C 128.612,9.91209 129.806,9.86109 131.017,9.24009 C 132.226,8.61609 134.008,8.72409 135.087,10.1291 C 135.695,10.9141 138.363,11.2251 138.35,9.58409 Z" transform=""/><path fill="#f4dbc5" stroke="none" d="M 134.83,8.82287 C 134.279,8.45387 133.982,8.18287 133.872,7.52087 C 133.872,7.52087 134.958,6.19987 134.97,5.04787 C 134.987,3.64187 134.131,2.31287 134.497,1.92587 C 134.848,1.55287 136.81,1.89787 137.421,4.59287 C 137.912,6.76887 136.49,9.18587 136.49,9.18587 S 135.58,9.32287 134.83,8.82287 Z" transform=""/><path fill="#f4dbc5" stroke="none" d="M 127.026,8.82287 C 127.577,8.45387 127.875,8.18287 127.983,7.52087 C 127.983,7.52087 126.899,6.19987 126.884,5.04787 C 126.869,3.64187 127.725,2.31287 127.36,1.92587 C 127.009,1.55287 125.045,1.89787 124.436,4.59287 C 123.944,6.76887 125.366,9.18587 125.366,9.18587 S 126.276,9.32287 127.026,8.82287 Z" transform=""/><ellipse cx="126.15767702615912" cy="20.65876908136004" rx="0.7777508696830353" ry="1.0810880850307625" fill="#304454" stroke="none" transform="rotate(1.5587 126.1576766690457 20.658769421766433)" r="NaN"/><ellipse cx="135.43965144535392" cy="20.432345369833357" rx="0.7777508696830353" ry="1.0810880850307625" fill="#304454" stroke="none" transform="rotate(1.5587 135.4396516969727 20.432344723106404)" r="NaN"/><path fill="#f4dbc5" stroke="none" d="M 139.125,27.9518 C 139.125,31.3828 135.465,34.1628 130.95,34.1628 C 126.438,34.1628 122.779,31.3828 122.779,27.9518 C 122.779,24.5208 126.438,21.7388 130.95,21.7388 C 135.466,21.7398 139.125,24.5208 139.125,27.9518 Z" transform=""/><ellipse cx="123.80070336010519" cy="26.87358788734369" rx="1.9185000657892985" ry="1.45774377423031" fill="#f4dbc5" stroke="none" transform="rotate(24.8096 123.80070337727983 26.87358829355897)" r="NaN"/><ellipse cx="124.36784317290706" cy="27.6312123886075" rx="1.6288202132178908" ry="1.237788352674849" fill="#c75e72" stroke="none" style="opacity: 0.7" opacity="0.7" transform="rotate(40.5186 124.36784333678068 27.63121252336111)" r="NaN"/><ellipse cx="138.1064307428605" cy="26.572408019021942" rx="1.9185000657892985" ry="1.45774377423031" fill="#f4dbc5" stroke="none" transform="rotate(-14.7325 138.1064314811909 26.572407503912764)" r="NaN"/><ellipse cx="137.62123533704766" cy="27.079166290266198" rx="1.6288202132178908" ry="1.237788352674849" fill="#c75e72" stroke="none" style="opacity: 0.7" opacity="0.7" transform="rotate(-35.0728 137.62123569834796 27.079167543770936)" r="NaN"/><path fill="#304454" stroke="none" d="M 158.461,39.7309 C 157.956,38.4129 156.975,37.5009 156.372,38.4149 C 156.047,38.9089 155.566,39.0389 155.049,39.0709 C 155.472,36.9939 153.634,34.0639 152.704,35.4739 C 151.963,36.5969 150.441,35.8699 149.444,36.2789 C 147.897,36.9099 147.767,38.6889 147.007,40.8699 C 146.671,41.8339 146.206,42.1459 145.732,42.3069 C 147.571,42.4669 149.548,42.4209 151.657,42.1159 C 154.326,41.7309 156.576,40.8889 158.461,39.7309 Z" transform=""/><path fill="#d1d3d4" stroke="none" d="M 219.899,16.6033 C 219.693,16.6863 219.594,16.9213 219.677,17.1263 C 219.762,17.3323 219.995,17.4303 220.201,17.3483 C 220.233,17.3353 223.391,16.0823 225.395,17.1543 C 226.196,17.5833 226.715,18.3473 226.939,19.4273 L 227.456,22.0703 C 228.035,25.1483 228.3,26.5533 229.678,27.3183 C 229.872,27.4263 230.117,27.3563 230.225,27.1623 C 230.332,26.9683 230.262,26.7243 230.069,26.6153 C 229.022,26.0343 228.796,24.8293 228.247,21.9213 L 227.728,19.2653 C 227.453,17.9393 226.797,16.9893 225.774,16.4443 C 223.436,15.1953 220.043,16.5453 219.899,16.6033 Z" transform=""/><path fill="#304454" stroke="none" d="M 229.969,29.756 C 229.362,28.845 228.838,27.28 230.05,26.48 C 230.895,25.924 232.131,26.148 232.81,27.592 C 233.693,29.466 232.677,30.42 233.334,31.651 C 233.334,31.651 230.953,31.233 229.969,29.756 Z" transform=""/><path fill="#304454" stroke="none" d="M 228.003,20.6782 L 227.727,19.2662 C 227.452,17.9402 226.796,16.9902 225.773,16.4452 C 225.756,16.4362 225.737,16.4282 225.722,16.4192 C 225.816,16.6072 225.942,16.7722 226.11,16.8882 C 226.93,17.4632 227.34,18.6942 227.34,19.5162 C 227.34,19.9272 227.588,20.3812 228.003,20.6782 Z" transform=""/><path fill="#d78334" stroke="none" d="M 206.211,55.2011 L 208.796,54.5751 L 209.031,52.1461 L 207.699,50.9711 L 206.604,51.9891 Z" transform=""/><path fill="#d1d3d4" stroke="none" d="M 213.096,34.25 S 210.284,36.402 211.803,40.23 C 212.578,42.183 211.229,45.678 210.51,46.049 C 208.248,47.212 207.079,49.438 206.916,50.893 C 206.916,50.893 212.324,54.465 213.81,54.809 C 215.911,55.294 216.317,51.363 214.389,47.178 C 213.693,45.668 214.43,43.786 215.455,42.981 C 217.718,41.204 218.159,37.25 216.865,35.149" transform=""/><path fill="#304454" stroke="none" d="M 213.797,42.6615 C 213.292,43.0535 213.631,44.4085 214.212,45.0655 C 214.408,44.2045 214.886,43.4275 215.455,42.9815 C 216.617,42.0685 217.296,40.5815 217.508,39.0665 L 216.504,37.9825 L 215.192,38.1475 S 213.55,38.9675 213.796,40.0345 C 214.043,41.1005 214.536,42.0865 213.797,42.6615 Z" transform=""/><path fill="#f3b37c" stroke="none" d="M 205.505,54.8877 S 205.271,49.0917 209.502,49.0117 C 212.733,48.9517 214.664,52.6877 214.827,55.4357 L 208.247,55.5137 L 207.15,51.9097 L 206.21,55.2007 L 205.505,54.8877 Z" transform=""/><path fill="#d78334" stroke="none" d="M 185.692,55.2011 L 188.277,54.5751 L 188.511,52.1461 L 187.179,50.9711 L 186.083,51.9891 Z" transform=""/><path fill="#d1d3d4" stroke="none" d="M 192.576,34.25 S 189.765,36.402 191.284,40.23 C 192.058,42.183 190.709,45.678 189.99,46.049 C 187.728,47.212 186.557,49.438 186.396,50.893 C 186.396,50.893 191.803,54.465 193.288,54.809 C 195.389,55.294 195.796,51.363 193.868,47.178 C 193.173,45.668 193.909,43.786 194.934,42.981 C 197.197,41.204 197.636,37.25 196.345,35.149" transform=""/><path fill="#304454" stroke="none" d="M 189.058,50.3391 S 190.412,46.9511 191.768,47.4591 C 193.123,47.9681 192.276,49.1531 193.631,49.1531 S 195.325,50.3391 195.325,50.3391 L 192.211,51.7721 L 189.058,50.3391 Z" transform=""/><path fill="#f3b37c" stroke="none" d="M 184.987,54.8877 S 184.753,49.0917 188.981,49.0117 C 192.213,48.9517 194.145,52.6877 194.308,55.4357 L 187.729,55.5137 L 186.632,51.9097 L 185.693,55.2007 L 184.987,54.8877 Z" transform=""/><path fill="#d78334" stroke="none" d="M 190.65,56.2039 L 193.359,55.5469 L 193.605,53.0019 L 192.21,51.7729 L 191.06,52.8389 Z" transform=""/><path fill="#efefef" stroke="none" d="M 194.816,15.7903 S 200.758,18.2743 206.492,18.2013 C 212.893,18.1183 218.474,11.7983 222.76,15.1133 C 226.781,18.2233 226.883,39.5643 209.718,42.0403 C 193.292,44.4113 184.66,31.3343 189.994,24.1933 C 195.111,17.3433 194.816,15.7903 194.816,15.7903 Z" transform=""/><path fill="#d1d3d4" stroke="none" d="M 224.66,19.1895 C 222.88,16.9925 221.244,17.1725 221.244,17.1725 L 222.652,22.0235 S 224.017,22.4485 224.978,22.3405 C 224.954,21.2065 224.843,20.1425 224.66,19.1895 Z" transform=""/><path fill="#d1d3d4" stroke="none" d="M 203.29,37.6543 C 202.306,35.1093 201.156,35.3553 201.156,35.3553 L 199.879,41.5333 C 200.865,41.8093 201.909,42.0163 203.006,42.1523 C 203.444,41.0113 203.897,39.2243 203.29,37.6543 Z" transform=""/><path fill="#efefef" stroke="none" d="M 197.865,34.25 S 194.919,36.506 196.509,40.517 C 197.321,42.563 195.908,46.226 195.154,46.612 C 192.784,47.832 191.557,50.166 191.389,51.689 C 191.389,51.689 197.056,55.433 198.612,55.793 C 200.814,56.301 201.238,52.181 199.219,47.798 C 198.49,46.215 199.262,44.242 200.334,43.4 C 202.705,41.537 203.168,37.393 201.813,35.191" transform=""/><path fill="#f3b37c" stroke="none" d="M 189.912,55.8746 S 189.665,49.8016 194.098,49.7186 C 197.485,49.6566 199.51,53.5696 199.68,56.4506 L 192.784,56.5326 L 191.636,52.7566 L 190.651,56.2026 L 189.912,55.8746 Z" transform=""/><path fill="#304454" stroke="none" d="M 198.775,37.1612 C 198.307,36.2752 197.044,36.6142 196.184,36.9782 C 195.952,37.9292 195.954,39.1152 196.509,40.5162 C 196.882,41.4552 196.786,42.7352 196.499,43.8812 C 197.874,43.8092 198.181,42.9952 198.038,42.6612 C 197.791,42.0862 197.544,40.8542 198.038,40.1972 C 198.53,39.5422 199.515,38.5562 198.775,37.1612 Z" transform=""/><path fill="#d78334" stroke="none" d="M 211.171,56.2039 L 213.879,55.5469 L 214.125,53.0019 L 212.729,51.7729 L 211.581,52.8389 Z" transform=""/><path fill="#efefef" stroke="none" d="M 221.923,17.1345 S 225.534,19.5155 226.191,24.3575 C 226.847,29.1995 222.333,35.1915 222.333,35.1915 C 223.688,37.3945 223.226,41.5385 220.856,43.4005 C 219.782,44.2425 219.011,46.2165 219.739,47.7985 C 221.758,52.1815 221.333,56.3015 219.13,55.7945 C 217.574,55.4345 211.909,51.6895 211.909,51.6895 C 212.077,50.1655 213.304,47.8315 215.674,46.6125 C 216.427,46.2265 217.84,42.5635 217.028,40.5175 C 215.437,36.5065 218.384,34.2505 218.384,34.2505 S 212.647,31.7455 213.139,26.4915 C 213.632,21.2375 218.639,15.9855 221.923,17.1345 Z" transform=""/><path fill="#f3b37c" stroke="none" d="M 210.432,55.8746 S 210.184,49.8016 214.618,49.7186 C 218.004,49.6566 220.03,53.5696 220.2,56.4506 L 213.305,56.5326 L 212.156,52.7566 L 211.171,56.2026 L 210.432,55.8746 Z" transform=""/><path fill="#304454" stroke="none" d="M 219.295,37.1612 C 218.827,36.2752 217.563,36.6142 216.703,36.9782 C 216.472,37.9292 216.474,39.1152 217.028,40.5162 C 217.401,41.4552 217.305,42.7352 217.019,43.8812 C 218.392,43.8092 218.7,42.9952 218.558,42.6612 C 218.311,42.0862 218.064,40.8542 218.558,40.1972 C 219.049,39.5422 220.034,38.5562 219.295,37.1612 Z" transform=""/><path fill="#304454" stroke="none" d="M 203.951,20.1757 C 204.188,19.3237 205.757,17.7137 206.742,18.7807 C 208.046,20.1927 206.661,20.9157 207.07,21.6537 C 207.48,22.3917 208.547,21.8177 208.958,22.6387 C 209.369,23.4597 207.973,24.8547 206.332,24.0337 C 204.69,23.2127 203.541,21.6537 203.951,20.1757 Z" transform=""/><path fill="#304454" stroke="none" d="M 226.252,25.1822 C 225.901,24.4332 225.409,23.7682 224.795,23.8652 C 223.237,24.1122 223.072,25.6712 223.81,26.9012 C 224.549,28.1332 223.727,28.9542 222.99,28.9542 C 222.25,28.9542 220.477,28.6392 220.034,29.6932 C 219.378,31.2522 221.593,32.8112 223.236,31.4162 C 223.878,30.8692 224.484,30.5872 225.022,30.4812 C 225.731,28.8402 226.29,26.9622 226.252,25.1822 Z" transform=""/><path fill="#304454" stroke="none" d="M 217.679,47.9677 C 217.341,49.3227 219.347,48.9757 219.924,49.9357 C 220.288,50.5437 220.548,51.7117 220.994,52.1767 C 220.865,50.8797 220.456,49.3567 219.739,47.7977 C 219.673,47.6557 219.625,47.5117 219.582,47.3627 C 218.721,47.2517 217.843,47.3127 217.679,47.9677 Z" transform=""/><path fill="#304454" stroke="none" d="M 216.569,14.9141 C 213.536,16.0731 210.147,18.1551 206.492,18.2011 C 206.039,18.2071 205.585,18.1951 205.133,18.1731 C 205.146,18.1951 205.16,18.2181 205.173,18.2391 C 203.716,18.0901 201.495,19.7761 201.403,21.1341 C 201.244,23.5431 202.702,24.9261 201.005,26.2251 C 199.308,27.5231 202.103,30.5161 203.102,29.3191 C 203.391,28.9721 203.86,28.8621 204.374,28.8151 C 204.103,30.2271 206.148,32.1001 206.974,31.1091 C 207.631,30.3211 209.202,30.7341 210.168,30.4111 C 211.665,29.9131 211.665,28.7141 212.265,27.2171 C 212.864,25.7201 214.36,26.4191 214.958,25.5211 C 215.558,24.6221 214.26,23.2251 212.963,23.4241 C 211.826,23.5981 211.761,21.7081 210.223,20.5651 C 212.425,19.4101 213.352,17.2331 215.274,17.3821 C 216.857,17.5021 217.31,16.0001 216.569,14.9141 Z" transform=""/><ellipse cx="193.33954258064136" cy="20.56963762381826" rx="6.680606823321747" ry="7.022759701296907" fill="#d1d3d4" stroke="none" r="NaN" transform=""/><ellipse cx="192.99523389666507" cy="27.59239628314108" rx="6.680606823321747" ry="7.022759701296907" fill="#d1d3d4" stroke="none" transform="rotate(7.9381 192.99523416062306 27.59239686073368)" r="NaN"/><path fill="#304454" stroke="none" d="M 189.193,32.7937 C 189.905,34.5447 191.098,36.2377 192.722,37.6987 C 193.903,37.5807 194.339,35.8437 193.688,35.1917 C 192.948,34.4537 192.211,34.9457 191.636,34.2077 C 191.061,33.4677 191.882,32.1557 190.731,31.7457 C 190.112,31.5237 189.567,32.1587 189.193,32.7937 Z" transform=""/><path fill="#304454" stroke="none" d="M 195.379,13.1084 S 195.589,6.7174 199.995,6.5604 C 204.402,6.4044 207.758,10.4584 205.661,12.7954 C 203.562,15.1344 196.85,14.9784 196.85,14.9784 L 195.379,13.1084 Z" transform=""/><path fill="#304454" stroke="none" d="M 183.913,9.51364 S 178.449,4.78364 176.1,7.11764 C 173.75,9.45364 175.456,14.3976 178.474,15.0006 C 181.491,15.6066 184.74,11.7496 184.74,11.7496 L 183.913,9.51364 Z" transform=""/><ellipse cx="189.17692259040635" cy="16.945404959741158" rx="10.024504277818492" ry="11.114936874222526" fill="#efefef" stroke="none" r="NaN" transform=""/><path fill="#304454" stroke="none" d="M 196.683,9.58409 C 194.846,7.28209 192.166,5.83009 189.176,5.83009 C 188.557,5.83009 187.955,5.89509 187.367,6.01509 C 186.838,6.78209 186.49,7.70609 186.62,8.34709 C 186.945,9.91209 188.139,9.86109 189.35,9.24009 C 190.559,8.61609 192.341,8.72409 193.42,10.1291 C 194.028,10.9141 196.696,11.2251 196.683,9.58409 Z" transform=""/><path fill="#f4dbc5" stroke="none" d="M 193.163,8.82287 C 192.612,8.45387 192.315,8.18287 192.205,7.52087 C 192.205,7.52087 193.291,6.19987 193.303,5.04787 C 193.32,3.64187 192.464,2.31287 192.83,1.92587 C 193.181,1.55287 195.143,1.89787 195.754,4.59287 C 196.245,6.76887 194.823,9.18587 194.823,9.18587 S 193.913,9.32287 193.163,8.82287 Z" transform=""/><path fill="#f4dbc5" stroke="none" d="M 185.359,8.82287 C 185.91,8.45387 186.208,8.18287 186.316,7.52087 C 186.316,7.52087 185.232,6.19987 185.217,5.04787 C 185.202,3.64187 186.058,2.31287 185.693,1.92587 C 185.342,1.55287 183.378,1.89787 182.769,4.59287 C 182.277,6.76887 183.699,9.18587 183.699,9.18587 S 184.609,9.32287 185.359,8.82287 Z" transform=""/><ellipse cx="184.49101035949246" cy="20.65876908136004" rx="0.7777508696830353" ry="1.0810880850307625" fill="#304454" stroke="none" transform="rotate(1.5587 184.49101000237906 20.658769421766433)" r="NaN"/><ellipse cx="193.77298477868726" cy="20.432345369833357" rx="0.7777508696830353" ry="1.0810880850307625" fill="#304454" stroke="none" transform="rotate(1.5587 193.77298503030607 20.432344723106404)" r="NaN"/><path fill="#f4dbc5" stroke="none" d="M 197.458,27.9518 C 197.458,31.3828 193.798,34.1628 189.283,34.1628 C 184.771,34.1628 181.112,31.3828 181.112,27.9518 C 181.112,24.5208 184.771,21.7388 189.283,21.7388 C 193.799,21.7398 197.458,24.5208 197.458,27.9518 Z" transform=""/><ellipse cx="182.13403669343856" cy="26.87358788734369" rx="1.9185000657892985" ry="1.45774377423031" fill="#f4dbc5" stroke="none" transform="rotate(24.8096 182.13403671061317 26.87358829355897)" r="NaN"/><ellipse cx="182.70117650624042" cy="27.6312123886075" rx="1.6288202132178908" ry="1.237788352674849" fill="#c75e72" stroke="none" style="opacity: 0.7" opacity="0.7" transform="rotate(40.5186 182.70117667011402 27.63121252336111)" r="NaN"/><ellipse cx="196.43976407619385" cy="26.572408019021942" rx="1.9185000657892985" ry="1.45774377423031" fill="#f4dbc5" stroke="none" transform="rotate(-14.7325 196.43976481452424 26.572407503912764)" r="NaN"/><ellipse cx="195.95456867038104" cy="27.079166290266198" rx="1.6288202132178908" ry="1.237788352674849" fill="#c75e72" stroke="none" style="opacity: 0.7" opacity="0.7" transform="rotate(-35.0728 195.95456903168133 27.079167543770936)" r="NaN"/><path fill="#304454" stroke="none" d="M 216.794,39.7309 C 216.289,38.4129 215.308,37.5009 214.705,38.4149 C 214.38,38.9089 213.899,39.0389 213.382,39.0709 C 213.805,36.9939 211.967,34.0639 211.037,35.4739 C 210.296,36.5969 208.774,35.8699 207.777,36.2789 C 206.23,36.9099 206.1,38.6889 205.34,40.8699 C 205.004,41.8339 204.539,42.1459 204.065,42.3069 C 205.904,42.4669 207.881,42.4209 209.99,42.1159 C 212.659,41.7309 214.909,40.8889 216.794,39.7309 Z" transform=""/><path fill="#d1d3d4" stroke="none" d="M 278.232,16.6033 C 278.026,16.6863 277.927,16.9213 278.01,17.1263 C 278.095,17.3323 278.328,17.4303 278.534,17.3483 C 278.566,17.3353 281.724,16.0823 283.728,17.1543 C 284.529,17.5833 285.048,18.3473 285.272,19.4273 L 285.789,22.0703 C 286.368,25.1483 286.633,26.5533 288.011,27.3183 C 288.205,27.4263 288.45,27.3563 288.558,27.1623 C 288.665,26.9683 288.595,26.7243 288.402,26.6153 C 287.355,26.0343 287.129,24.8293 286.58,21.9213 L 286.061,19.2653 C 285.786,17.9393 285.13,16.9893 284.107,16.4443 C 281.769,15.1953 278.376,16.5453 278.232,16.6033 Z" transform=""/><path fill="#304454" stroke="none" d="M 288.302,29.756 C 287.695,28.845 287.171,27.28 288.383,26.48 C 289.228,25.924 290.464,26.148 291.143,27.592 C 292.026,29.466 291.01,30.42 291.667,31.651 C 291.667,31.651 289.286,31.233 288.302,29.756 Z" transform=""/><path fill="#304454" stroke="none" d="M 286.336,20.6782 L 286.06,19.2662 C 285.785,17.9402 285.129,16.9902 284.106,16.4452 C 284.089,16.4362 284.07,16.4282 284.055,16.4192 C 284.149,16.6072 284.275,16.7722 284.443,16.8882 C 285.263,17.4632 285.673,18.6942 285.673,19.5162 C 285.673,19.9272 285.921,20.3812 286.336,20.6782 Z" transform=""/><path fill="#d78334" stroke="none" d="M 264.545,55.2011 L 267.13,54.5751 L 267.365,52.1461 L 266.033,50.9711 L 264.938,51.9891 Z" transform=""/><path fill="#d1d3d4" stroke="none" d="M 271.429,34.25 S 268.617,36.402 270.136,40.23 C 270.911,42.183 269.562,45.678 268.843,46.049 C 266.581,47.212 265.412,49.438 265.249,50.893 C 265.249,50.893 270.657,54.465 272.143,54.809 C 274.244,55.294 274.65,51.363 272.722,47.178 C 272.026,45.668 272.763,43.786 273.788,42.981 C 276.051,41.204 276.492,37.25 275.198,35.149" transform=""/><path fill="#304454" stroke="none" d="M 272.13,42.6615 C 271.625,43.0535 271.964,44.4085 272.545,45.0655 C 272.741,44.2045 273.219,43.4275 273.788,42.9815 C 274.95,42.0685 275.629,40.5815 275.841,39.0665 L 274.837,37.9825 L 273.525,38.1475 S 271.883,38.9675 272.129,40.0345 C 272.376,41.1005 272.869,42.0865 272.13,42.6615 Z" transform=""/><path fill="#f3b37c" stroke="none" d="M 263.839,54.8877 S 263.605,49.0917 267.836,49.0117 C 271.067,48.9517 272.998,52.6877 273.161,55.4357 L 266.581,55.5137 L 265.484,51.9097 L 264.544,55.2007 L 263.839,54.8877 Z" transform=""/><path fill="#d78334" stroke="none" d="M 244.025,55.2011 L 246.61,54.5751 L 246.844,52.1461 L 245.512,50.9711 L 244.416,51.9891 Z" transform=""/><path fill="#d1d3d4" stroke="none" d="M 250.91,34.25 S 248.099,36.402 249.618,40.23 C 250.392,42.183 249.043,45.678 248.324,46.049 C 246.062,47.212 244.891,49.438 244.73,50.893 C 244.73,50.893 250.137,54.465 251.622,54.809 C 253.723,55.294 254.13,51.363 252.202,47.178 C 251.507,45.668 252.243,43.786 253.268,42.981 C 255.531,41.204 255.97,37.25 254.679,35.149" transform=""/><path fill="#304454" stroke="none" d="M 247.391,50.3391 S 248.745,46.9511 250.101,47.4591 C 251.456,47.9681 250.609,49.1531 251.964,49.1531 S 253.658,50.3391 253.658,50.3391 L 250.544,51.7721 L 247.391,50.3391 Z" transform=""/><path fill="#f3b37c" stroke="none" d="M 243.32,54.8877 S 243.086,49.0917 247.314,49.0117 C 250.546,48.9517 252.478,52.6877 252.641,55.4357 L 246.062,55.5137 L 244.965,51.9097 L 244.026,55.2007 L 243.32,54.8877 Z" transform=""/><path fill="#d78334" stroke="none" d="M 248.984,56.2039 L 251.693,55.5469 L 251.939,53.0019 L 250.544,51.7729 L 249.394,52.8389 Z" transform=""/><path fill="#efefef" stroke="none" d="M 253.149,15.7903 S 259.091,18.2743 264.825,18.2013 C 271.226,18.1183 276.807,11.7983 281.093,15.1133 C 285.114,18.2233 285.216,39.5643 268.051,42.0403 C 251.625,44.4113 242.993,31.3343 248.327,24.1933 C 253.444,17.3433 253.149,15.7903 253.149,15.7903 Z" transform=""/><path fill="#d1d3d4" stroke="none" d="M 282.994,19.1895 C 281.214,16.9925 279.578,17.1725 279.578,17.1725 L 280.986,22.0235 S 282.351,22.4485 283.312,22.3405 C 283.288,21.2065 283.177,20.1425 282.994,19.1895 Z" transform=""/><path fill="#d1d3d4" stroke="none" d="M 261.623,37.6543 C 260.639,35.1093 259.489,35.3553 259.489,35.3553 L 258.212,41.5333 C 259.198,41.8093 260.242,42.0163 261.339,42.1523 C 261.777,41.0113 262.23,39.2243 261.623,37.6543 Z" transform=""/><path fill="#efefef" stroke="none" d="M 256.198,34.25 S 253.252,36.506 254.842,40.517 C 255.654,42.563 254.241,46.226 253.487,46.612 C 251.117,47.832 249.89,50.166 249.722,51.689 C 249.722,51.689 255.389,55.433 256.945,55.793 C 259.147,56.301 259.571,52.181 257.552,47.798 C 256.823,46.215 257.595,44.242 258.667,43.4 C 261.038,41.537 261.501,37.393 260.146,35.191" transform=""/><path fill="#f3b37c" stroke="none" d="M 248.245,55.8746 S 247.998,49.8016 252.431,49.7186 C 255.818,49.6566 257.843,53.5696 258.013,56.4506 L 251.117,56.5326 L 249.969,52.7566 L 248.984,56.2026 L 248.245,55.8746 Z" transform=""/><path fill="#304454" stroke="none" d="M 257.109,37.1612 C 256.641,36.2752 255.378,36.6142 254.518,36.9782 C 254.286,37.9292 254.288,39.1152 254.843,40.5162 C 255.216,41.4552 255.12,42.7352 254.833,43.8812 C 256.208,43.8092 256.515,42.9952 256.372,42.6612 C 256.125,42.0862 255.878,40.8542 256.372,40.1972 C 256.864,39.5422 257.849,38.5562 257.109,37.1612 Z" transform=""/><path fill="#d78334" stroke="none" d="M 269.504,56.2039 L 272.212,55.5469 L 272.458,53.0019 L 271.062,51.7729 L 269.914,52.8389 Z" transform=""/><path fill="#efefef" stroke="none" d="M 280.256,17.1345 S 283.867,19.5155 284.524,24.3575 C 285.18,29.1995 280.666,35.1915 280.666,35.1915 C 282.021,37.3945 281.559,41.5385 279.189,43.4005 C 278.115,44.2425 277.344,46.2165 278.072,47.7985 C 280.091,52.1815 279.666,56.3015 277.463,55.7945 C 275.907,55.4345 270.242,51.6895 270.242,51.6895 C 270.41,50.1655 271.637,47.8315 274.007,46.6125 C 274.76,46.2265 276.173,42.5635 275.361,40.5175 C 273.77,36.5065 276.717,34.2505 276.717,34.2505 S 270.98,31.7455 271.472,26.4915 C 271.965,21.2375 276.972,15.9855 280.256,17.1345 Z" transform=""/><path fill="#f3b37c" stroke="none" d="M 268.765,55.8746 S 268.517,49.8016 272.951,49.7186 C 276.337,49.6566 278.363,53.5696 278.533,56.4506 L 271.638,56.5326 L 270.489,52.7566 L 269.504,56.2026 L 268.765,55.8746 Z" transform=""/><path fill="#304454" stroke="none" d="M 277.628,37.1612 C 277.16,36.2752 275.896,36.6142 275.036,36.9782 C 274.805,37.9292 274.807,39.1152 275.361,40.5162 C 275.734,41.4552 275.638,42.7352 275.352,43.8812 C 276.725,43.8092 277.033,42.9952 276.891,42.6612 C 276.644,42.0862 276.397,40.8542 276.891,40.1972 C 277.382,39.5422 278.367,38.5562 277.628,37.1612 Z" transform=""/><path fill="#304454" stroke="none" d="M 262.285,20.1757 C 262.522,19.3237 264.091,17.7137 265.076,18.7807 C 266.38,20.1927 264.995,20.9157 265.404,21.6537 C 265.814,22.3917 266.881,21.8177 267.292,22.6387 C 267.703,23.4597 266.307,24.8547 264.666,24.0337 C 263.024,23.2127 261.875,21.6537 262.285,20.1757 Z" transform=""/><path fill="#304454" stroke="none" d="M 284.586,25.1822 C 284.235,24.4332 283.743,23.7682 283.129,23.8652 C 281.571,24.1122 281.406,25.6712 282.144,26.9012 C 282.883,28.1332 282.061,28.9542 281.324,28.9542 C 280.584,28.9542 278.811,28.6392 278.368,29.6932 C 277.712,31.2522 279.927,32.8112 281.57,31.4162 C 282.212,30.8692 282.818,30.5872 283.356,30.4812 C 284.065,28.8402 284.624,26.9622 284.586,25.1822 Z" transform=""/><path fill="#304454" stroke="none" d="M 276.012,47.9677 C 275.674,49.3227 277.68,48.9757 278.257,49.9357 C 278.621,50.5437 278.881,51.7117 279.327,52.1767 C 279.198,50.8797 278.789,49.3567 278.072,47.7977 C 278.006,47.6557 277.958,47.5117 277.915,47.3627 C 277.054,47.2517 276.176,47.3127 276.012,47.9677 Z" transform=""/><path fill="#304454" stroke="none" d="M 274.903,14.9141 C 271.87,16.0731 268.481,18.1551 264.826,18.2011 C 264.373,18.2071 263.919,18.1951 263.467,18.1731 C 263.48,18.1951 263.494,18.2181 263.507,18.2391 C 262.05,18.0901 259.829,19.7761 259.737,21.1341 C 259.578,23.5431 261.036,24.9261 259.339,26.2251 C 257.642,27.5231 260.437,30.5161 261.436,29.3191 C 261.725,28.9721 262.194,28.8621 262.708,28.8151 C 262.437,30.2271 264.482,32.1001 265.308,31.1091 C 265.965,30.3211 267.536,30.7341 268.502,30.4111 C 269.999,29.9131 269.999,28.7141 270.599,27.2171 C 271.198,25.7201 272.694,26.4191 273.292,25.5211 C 273.892,24.6221 272.594,23.2251 271.297,23.4241 C 270.16,23.5981 270.095,21.7081 268.557,20.5651 C 270.759,19.4101 271.686,17.2331 273.608,17.3821 C 275.191,17.5021 275.644,16.0001 274.903,14.9141 Z" transform=""/><ellipse cx="251.67287591397468" cy="20.56963762381826" rx="6.680606823321747" ry="7.022759701296907" fill="#d1d3d4" stroke="none" r="NaN" transform=""/><ellipse cx="251.32856722999838" cy="27.59239628314108" rx="6.680606823321747" ry="7.022759701296907" fill="#d1d3d4" stroke="none" transform="rotate(7.9381 251.32856749395637 27.59239686073368)" r="NaN"/><path fill="#304454" stroke="none" d="M 247.527,32.7937 C 248.239,34.5447 249.432,36.2377 251.056,37.6987 C 252.237,37.5807 252.673,35.8437 252.022,35.1917 C 251.282,34.4537 250.545,34.9457 249.97,34.2077 C 249.395,33.4677 250.216,32.1557 249.065,31.7457 C 248.446,31.5237 247.901,32.1587 247.527,32.7937 Z" transform=""/><path fill="#304454" stroke="none" d="M 253.712,13.1084 S 253.922,6.7174 258.328,6.5604 C 262.735,6.4044 266.091,10.4584 263.994,12.7954 C 261.895,15.1344 255.183,14.9784 255.183,14.9784 L 253.712,13.1084 Z" transform=""/><path fill="#304454" stroke="none" d="M 242.246,9.51364 S 236.782,4.78364 234.433,7.11764 C 232.083,9.45364 233.789,14.3976 236.807,15.0006 C 239.824,15.6066 243.073,11.7496 243.073,11.7496 L 242.246,9.51364 Z" transform=""/><ellipse cx="247.51025592373966" cy="16.945404959741158" rx="10.024504277818492" ry="11.114936874222526" fill="#efefef" stroke="none" r="NaN" transform=""/><path fill="#304454" stroke="none" d="M 255.017,9.58409 C 253.18,7.28209 250.5,5.83009 247.51,5.83009 C 246.891,5.83009 246.289,5.89509 245.701,6.01509 C 245.172,6.78209 244.824,7.70609 244.954,8.34709 C 245.279,9.91209 246.473,9.86109 247.684,9.24009 C 248.893,8.61609 250.675,8.72409 251.754,10.1291 C 252.362,10.9141 255.03,11.2251 255.017,9.58409 Z" transform=""/><path fill="#f4dbc5" stroke="none" d="M 251.497,8.82287 C 250.946,8.45387 250.649,8.18287 250.539,7.52087 C 250.539,7.52087 251.625,6.19987 251.637,5.04787 C 251.654,3.64187 250.798,2.31287 251.164,1.92587 C 251.515,1.55287 253.477,1.89787 254.088,4.59287 C 254.579,6.76887 253.157,9.18587 253.157,9.18587 S 252.247,9.32287 251.497,8.82287 Z" transform=""/><path fill="#f4dbc5" stroke="none" d="M 243.693,8.82287 C 244.244,8.45387 244.542,8.18287 244.65,7.52087 C 244.65,7.52087 243.566,6.19987 243.551,5.04787 C 243.536,3.64187 244.392,2.31287 244.027,1.92587 C 243.676,1.55287 241.712,1.89787 241.103,4.59287 C 240.611,6.76887 242.033,9.18587 242.033,9.18587 S 242.943,9.32287 243.693,8.82287 Z" transform=""/><ellipse cx="242.82434369282578" cy="20.65876908136004" rx="0.7777508696830353" ry="1.0810880850307625" fill="#304454" stroke="none" transform="rotate(1.5587 242.82434333571237 20.658769421766433)" r="NaN"/><ellipse cx="252.10631811202057" cy="20.432345369833357" rx="0.7777508696830353" ry="1.0810880850307625" fill="#304454" stroke="none" transform="rotate(1.5587 252.1063183636394 20.432344723106404)" r="NaN"/><path fill="#f4dbc5" stroke="none" d="M 255.792,27.9518 C 255.792,31.3828 252.132,34.1628 247.617,34.1628 C 243.105,34.1628 239.446,31.3828 239.446,27.9518 C 239.446,24.5208 243.105,21.7388 247.617,21.7388 C 252.133,21.7398 255.792,24.5208 255.792,27.9518 Z" transform=""/><ellipse cx="240.46737002677187" cy="26.87358788734369" rx="1.9185000657892985" ry="1.45774377423031" fill="#f4dbc5" stroke="none" transform="rotate(24.8096 240.4673700439465 26.87358829355897)" r="NaN"/><ellipse cx="241.03450983957373" cy="27.6312123886075" rx="1.6288202132178908" ry="1.237788352674849" fill="#c75e72" stroke="none" style="opacity: 0.7" opacity="0.7" transform="rotate(40.5186 241.03451000344734 27.63121252336111)" r="NaN"/><ellipse cx="254.77309740952717" cy="26.572408019021942" rx="1.9185000657892985" ry="1.45774377423031" fill="#f4dbc5" stroke="none" transform="rotate(-14.7325 254.77309814785755 26.572407503912764)" r="NaN"/><ellipse cx="254.28790200371435" cy="27.079166290266198" rx="1.6288202132178908" ry="1.237788352674849" fill="#c75e72" stroke="none" style="opacity: 0.7" opacity="0.7" transform="rotate(-35.0728 254.28790236501465 27.079167543770936)" r="NaN"/><path fill="#304454" stroke="none" d="M 275.128,39.7309 C 274.623,38.4129 273.642,37.5009 273.039,38.4149 C 272.714,38.9089 272.233,39.0389 271.716,39.0709 C 272.139,36.9939 270.301,34.0639 269.371,35.4739 C 268.63,36.5969 267.108,35.8699 266.111,36.2789 C 264.564,36.9099 264.434,38.6889 263.674,40.8699 C 263.338,41.8339 262.873,42.1459 262.399,42.3069 C 264.238,42.4669 266.215,42.4209 268.324,42.1159 C 270.993,41.7309 273.243,40.8889 275.128,39.7309 Z" transform=""/><path fill="#d1d3d4" stroke="none" d="M 336.565,16.6033 C 336.359,16.6863 336.26,16.9213 336.343,17.1263 C 336.428,17.3323 336.661,17.4303 336.867,17.3483 C 336.899,17.3353 340.057,16.0823 342.061,17.1543 C 342.862,17.5833 343.381,18.3473 343.605,19.4273 L 344.122,22.0703 C 344.701,25.1483 344.966,26.5533 346.344,27.3183 C 346.538,27.4263 346.783,27.3563 346.891,27.1623 C 346.998,26.9683 346.928,26.7243 346.735,26.6153 C 345.688,26.0343 345.462,24.8293 344.913,21.9213 L 344.394,19.2653 C 344.119,17.9393 343.463,16.9893 342.44,16.4443 C 340.102,15.1953 336.709,16.5453 336.565,16.6033 Z" transform=""/><path fill="#304454" stroke="none" d="M 346.635,29.756 C 346.028,28.845 345.504,27.28 346.716,26.48 C 347.561,25.924 348.797,26.148 349.476,27.592 C 350.359,29.466 349.343,30.42 350,31.651 C 350,31.651 347.619,31.233 346.635,29.756 Z" transform=""/><path fill="#304454" stroke="none" d="M 344.669,20.6782 L 344.393,19.2662 C 344.118,17.9402 343.462,16.9902 342.439,16.4452 C 342.422,16.4362 342.403,16.4282 342.388,16.4192 C 342.482,16.6072 342.608,16.7722 342.776,16.8882 C 343.596,17.4632 344.006,18.6942 344.006,19.5162 C 344.006,19.9272 344.254,20.3812 344.669,20.6782 Z" transform=""/><path fill="#d78334" stroke="none" d="M 322.878,55.2011 L 325.463,54.5751 L 325.698,52.1461 L 324.366,50.9711 L 323.271,51.9891 Z" transform=""/><path fill="#d1d3d4" stroke="none" d="M 329.763,34.25 S 326.951,36.402 328.47,40.23 C 329.245,42.183 327.896,45.678 327.177,46.049 C 324.915,47.212 323.746,49.438 323.583,50.893 C 323.583,50.893 328.991,54.465 330.477,54.809 C 332.578,55.294 332.984,51.363 331.056,47.178 C 330.36,45.668 331.097,43.786 332.122,42.981 C 334.385,41.204 334.826,37.25 333.532,35.149" transform=""/><path fill="#304454" stroke="none" d="M 330.464,42.6615 C 329.959,43.0535 330.298,44.4085 330.879,45.0655 C 331.075,44.2045 331.553,43.4275 332.122,42.9815 C 333.284,42.0685 333.963,40.5815 334.175,39.0665 L 333.171,37.9825 L 331.859,38.1475 S 330.217,38.9675 330.463,40.0345 C 330.71,41.1005 331.203,42.0865 330.464,42.6615 Z" transform=""/><path fill="#f3b37c" stroke="none" d="M 322.172,54.8877 S 321.938,49.0917 326.169,49.0117 C 329.4,48.9517 331.331,52.6877 331.494,55.4357 L 324.914,55.5137 L 323.817,51.9097 L 322.877,55.2007 L 322.172,54.8877 Z" transform=""/><path fill="#d78334" stroke="none" d="M 302.359,55.2011 L 304.944,54.5751 L 305.178,52.1461 L 303.846,50.9711 L 302.75,51.9891 Z" transform=""/><path fill="#d1d3d4" stroke="none" d="M 309.243,34.25 S 306.432,36.402 307.951,40.23 C 308.725,42.183 307.376,45.678 306.657,46.049 C 304.395,47.212 303.224,49.438 303.063,50.893 C 303.063,50.893 308.47,54.465 309.955,54.809 C 312.056,55.294 312.463,51.363 310.535,47.178 C 309.84,45.668 310.576,43.786 311.601,42.981 C 313.864,41.204 314.303,37.25 313.012,35.149" transform=""/><path fill="#304454" stroke="none" d="M 305.724,50.3391 S 307.078,46.9511 308.434,47.4591 C 309.789,47.9681 308.942,49.1531 310.297,49.1531 S 311.991,50.3391 311.991,50.3391 L 308.877,51.7721 L 305.724,50.3391 Z" transform=""/><path fill="#f3b37c" stroke="none" d="M 301.654,54.8877 S 301.42,49.0917 305.648,49.0117 C 308.88,48.9517 310.812,52.6877 310.975,55.4357 L 304.396,55.5137 L 303.299,51.9097 L 302.36,55.2007 L 301.654,54.8877 Z" transform=""/><path fill="#d78334" stroke="none" d="M 307.317,56.2039 L 310.026,55.5469 L 310.272,53.0019 L 308.877,51.7729 L 307.727,52.8389 Z" transform=""/><path fill="#efefef" stroke="none" d="M 311.483,15.7903 S 317.425,18.2743 323.159,18.2013 C 329.56,18.1183 335.141,11.7983 339.427,15.1133 C 343.448,18.2233 343.55,39.5643 326.385,42.0403 C 309.959,44.4113 301.327,31.3343 306.661,24.1933 C 311.778,17.3433 311.483,15.7903 311.483,15.7903 Z" transform=""/><path fill="#d1d3d4" stroke="none" d="M 341.327,19.1895 C 339.547,16.9925 337.911,17.1725 337.911,17.1725 L 339.319,22.0235 S 340.684,22.4485 341.645,22.3405 C 341.621,21.2065 341.51,20.1425 341.327,19.1895 Z" transform=""/><path fill="#d1d3d4" stroke="none" d="M 319.957,37.6543 C 318.973,35.1093 317.823,35.3553 317.823,35.3553 L 316.546,41.5333 C 317.532,41.8093 318.576,42.0163 319.673,42.1523 C 320.111,41.0113 320.564,39.2243 319.957,37.6543 Z" transform=""/><path fill="#efefef" stroke="none" d="M 314.532,34.25 S 311.586,36.506 313.176,40.517 C 313.988,42.563 312.575,46.226 311.821,46.612 C 309.451,47.832 308.224,50.166 308.056,51.689 C 308.056,51.689 313.723,55.433 315.279,55.793 C 317.481,56.301 317.905,52.181 315.886,47.798 C 315.157,46.215 315.929,44.242 317.001,43.4 C 319.372,41.537 319.835,37.393 318.48,35.191" transform=""/><path fill="#f3b37c" stroke="none" d="M 306.578,55.8746 S 306.331,49.8016 310.764,49.7186 C 314.151,49.6566 316.176,53.5696 316.346,56.4506 L 309.45,56.5326 L 308.302,52.7566 L 307.317,56.2026 L 306.578,55.8746 Z" transform=""/><path fill="#304454" stroke="none" d="M 315.442,37.1612 C 314.974,36.2752 313.711,36.6142 312.851,36.9782 C 312.619,37.9292 312.621,39.1152 313.176,40.5162 C 313.549,41.4552 313.453,42.7352 313.166,43.8812 C 314.541,43.8092 314.848,42.9952 314.705,42.6612 C 314.458,42.0862 314.211,40.8542 314.705,40.1972 C 315.197,39.5422 316.182,38.5562 315.442,37.1612 Z" transform=""/><path fill="#d78334" stroke="none" d="M 327.838,56.2039 L 330.546,55.5469 L 330.792,53.0019 L 329.396,51.7729 L 328.248,52.8389 Z" transform=""/><path fill="#efefef" stroke="none" d="M 338.59,17.1345 S 342.201,19.5155 342.858,24.3575 C 343.514,29.1995 339,35.1915 339,35.1915 C 340.355,37.3945 339.893,41.5385 337.523,43.4005 C 336.449,44.2425 335.678,46.2165 336.406,47.7985 C 338.425,52.1815 338,56.3015 335.797,55.7945 C 334.241,55.4345 328.576,51.6895 328.576,51.6895 C 328.744,50.1655 329.971,47.8315 332.341,46.6125 C 333.094,46.2265 334.507,42.5635 333.695,40.5175 C 332.104,36.5065 335.051,34.2505 335.051,34.2505 S 329.314,31.7455 329.806,26.4915 C 330.299,21.2375 335.306,15.9855 338.59,17.1345 Z" transform=""/><path fill="#f3b37c" stroke="none" d="M 327.099,55.8746 S 326.851,49.8016 331.285,49.7186 C 334.671,49.6566 336.697,53.5696 336.867,56.4506 L 329.972,56.5326 L 328.823,52.7566 L 327.838,56.2026 L 327.099,55.8746 Z" transform=""/><path fill="#304454" stroke="none" d="M 335.962,37.1612 C 335.494,36.2752 334.23,36.6142 333.37,36.9782 C 333.139,37.9292 333.141,39.1152 333.695,40.5162 C 334.068,41.4552 333.972,42.7352 333.686,43.8812 C 335.059,43.8092 335.367,42.9952 335.225,42.6612 C 334.978,42.0862 334.731,40.8542 335.225,40.1972 C 335.716,39.5422 336.701,38.5562 335.962,37.1612 Z" transform=""/><path fill="#304454" stroke="none" d="M 320.618,20.1757 C 320.855,19.3237 322.424,17.7137 323.409,18.7807 C 324.713,20.1927 323.328,20.9157 323.737,21.6537 C 324.147,22.3917 325.214,21.8177 325.625,22.6387 C 326.036,23.4597 324.64,24.8547 322.999,24.0337 C 321.357,23.2127 320.208,21.6537 320.618,20.1757 Z" transform=""/><path fill="#304454" stroke="none" d="M 342.919,25.1822 C 342.568,24.4332 342.076,23.7682 341.462,23.8652 C 339.904,24.1122 339.739,25.6712 340.477,26.9012 C 341.216,28.1332 340.394,28.9542 339.657,28.9542 C 338.917,28.9542 337.144,28.6392 336.701,29.6932 C 336.045,31.2522 338.26,32.8112 339.903,31.4162 C 340.545,30.8692 341.151,30.5872 341.689,30.4812 C 342.398,28.8402 342.957,26.9622 342.919,25.1822 Z" transform=""/><path fill="#304454" stroke="none" d="M 334.346,47.9677 C 334.008,49.3227 336.014,48.9757 336.591,49.9357 C 336.955,50.5437 337.215,51.7117 337.661,52.1767 C 337.532,50.8797 337.123,49.3567 336.406,47.7977 C 336.34,47.6557 336.292,47.5117 336.249,47.3627 C 335.388,47.2517 334.51,47.3127 334.346,47.9677 Z" transform=""/><path fill="#304454" stroke="none" d="M 333.236,14.9141 C 330.203,16.0731 326.814,18.1551 323.159,18.2011 C 322.706,18.2071 322.252,18.1951 321.8,18.1731 C 321.813,18.1951 321.827,18.2181 321.84,18.2391 C 320.383,18.0901 318.162,19.7761 318.07,21.1341 C 317.911,23.5431 319.369,24.9261 317.672,26.2251 C 315.975,27.5231 318.77,30.5161 319.769,29.3191 C 320.058,28.9721 320.527,28.8621 321.041,28.8151 C 320.77,30.2271 322.815,32.1001 323.641,31.1091 C 324.298,30.3211 325.869,30.7341 326.835,30.4111 C 328.332,29.9131 328.332,28.7141 328.932,27.2171 C 329.531,25.7201 331.027,26.4191 331.625,25.5211 C 332.225,24.6221 330.927,23.2251 329.63,23.4241 C 328.493,23.5981 328.428,21.7081 326.89,20.5651 C 329.092,19.4101 330.019,17.2331 331.941,17.3821 C 333.524,17.5021 333.977,16.0001 333.236,14.9141 Z" transform=""/><ellipse cx="310.00620924730805" cy="20.56963762381826" rx="6.680606823321747" ry="7.022759701296907" fill="#d1d3d4" stroke="none" r="NaN" transform=""/><ellipse cx="309.6619005633317" cy="27.59239628314108" rx="6.680606823321747" ry="7.022759701296907" fill="#d1d3d4" stroke="none" transform="rotate(7.9381 309.6619008272897 27.59239686073368)" r="NaN"/><path fill="#304454" stroke="none" d="M 305.86,32.7937 C 306.572,34.5447 307.765,36.2377 309.389,37.6987 C 310.57,37.5807 311.006,35.8437 310.355,35.1917 C 309.615,34.4537 308.878,34.9457 308.303,34.2077 C 307.728,33.4677 308.549,32.1557 307.398,31.7457 C 306.779,31.5237 306.234,32.1587 305.86,32.7937 Z" transform=""/><path fill="#304454" stroke="none" d="M 312.045,13.1084 S 312.255,6.7174 316.661,6.5604 C 321.068,6.4044 324.424,10.4584 322.327,12.7954 C 320.228,15.1344 313.516,14.9784 313.516,14.9784 L 312.045,13.1084 Z" transform=""/><path fill="#304454" stroke="none" d="M 300.58,9.51364 S 295.116,4.78364 292.767,7.11764 C 290.417,9.45364 292.123,14.3976 295.141,15.0006 C 298.158,15.6066 301.407,11.7496 301.407,11.7496 L 300.58,9.51364 Z" transform=""/><ellipse cx="305.843589257073" cy="16.945404959741158" rx="10.024504277818492" ry="11.114936874222526" fill="#efefef" stroke="none" r="NaN" transform=""/><path fill="#304454" stroke="none" d="M 313.35,9.58409 C 311.513,7.28209 308.833,5.83009 305.843,5.83009 C 305.224,5.83009 304.622,5.89509 304.034,6.01509 C 303.505,6.78209 303.157,7.70609 303.287,8.34709 C 303.612,9.91209 304.806,9.86109 306.017,9.24009 C 307.226,8.61609 309.008,8.72409 310.087,10.1291 C 310.695,10.9141 313.363,11.2251 313.35,9.58409 Z" transform=""/><path fill="#f4dbc5" stroke="none" d="M 309.83,8.82287 C 309.279,8.45387 308.982,8.18287 308.872,7.52087 C 308.872,7.52087 309.958,6.19987 309.97,5.04787 C 309.987,3.64187 309.131,2.31287 309.497,1.92587 C 309.848,1.55287 311.81,1.89787 312.421,4.59287 C 312.912,6.76887 311.49,9.18587 311.49,9.18587 S 310.58,9.32287 309.83,8.82287 Z" transform=""/><path fill="#f4dbc5" stroke="none" d="M 302.026,8.82287 C 302.577,8.45387 302.875,8.18287 302.983,7.52087 C 302.983,7.52087 301.899,6.19987 301.884,5.04787 C 301.869,3.64187 302.725,2.31287 302.36,1.92587 C 302.009,1.55287 300.045,1.89787 299.436,4.59287 C 298.944,6.76887 300.366,9.18587 300.366,9.18587 S 301.276,9.32287 302.026,8.82287 Z" transform=""/><ellipse cx="301.15767702615915" cy="20.65876908136004" rx="0.7777508696830353" ry="1.0810880850307625" fill="#304454" stroke="none" transform="rotate(1.5587 301.1576766690457 20.658769421766433)" r="NaN"/><ellipse cx="310.43965144535395" cy="20.432345369833357" rx="0.7777508696830353" ry="1.0810880850307625" fill="#304454" stroke="none" transform="rotate(1.5587 310.43965169697276 20.432344723106404)" r="NaN"/><path fill="#f4dbc5" stroke="none" d="M 314.125,27.9518 C 314.125,31.3828 310.465,34.1628 305.95,34.1628 C 301.438,34.1628 297.779,31.3828 297.779,27.9518 C 297.779,24.5208 301.438,21.7388 305.95,21.7388 C 310.466,21.7398 314.125,24.5208 314.125,27.9518 Z" transform=""/><ellipse cx="298.8007033601052" cy="26.87358788734369" rx="1.9185000657892985" ry="1.45774377423031" fill="#f4dbc5" stroke="none" transform="rotate(24.8096 298.80070337727983 26.87358829355897)" r="NaN"/><ellipse cx="299.36784317290704" cy="27.6312123886075" rx="1.6288202132178908" ry="1.237788352674849" fill="#c75e72" stroke="none" style="opacity: 0.7" opacity="0.7" transform="rotate(40.5186 299.3678433367807 27.63121252336111)" r="NaN"/><ellipse cx="313.10643074286054" cy="26.572408019021942" rx="1.9185000657892985" ry="1.45774377423031" fill="#f4dbc5" stroke="none" transform="rotate(-14.7325 313.1064314811909 26.572407503912764)" r="NaN"/><ellipse cx="312.62123533704766" cy="27.079166290266198" rx="1.6288202132178908" ry="1.237788352674849" fill="#c75e72" stroke="none" style="opacity: 0.7" opacity="0.7" transform="rotate(-35.0728 312.62123569834796 27.079167543770936)" r="NaN"/><path fill="#304454" stroke="none" d="M 333.461,39.7309 C 332.956,38.4129 331.975,37.5009 331.372,38.4149 C 331.047,38.9089 330.566,39.0389 330.049,39.0709 C 330.472,36.9939 328.634,34.0639 327.704,35.4739 C 326.963,36.5969 325.441,35.8699 324.444,36.2789 C 322.897,36.9099 322.767,38.6889 322.007,40.8699 C 321.671,41.8339 321.206,42.1459 320.732,42.3069 C 322.571,42.4669 324.548,42.4209 326.657,42.1159 C 329.326,41.7309 331.576,40.8889 333.461,39.7309 Z" transform=""/></svg>