<svg xmlns="http://www.w3.org/2000/svg" version="1.1" width="140" height="93.33333333333333" viewBox="0 0 140 93.33333333333333"><defs/><ellipse cx="83.9021672306121" cy="56.829814206911564" rx="9.234013702222981" ry="3.766350524441918" fill="#42a8c1" stroke="none" transform="rotate(203.0782 83.9021651912504 56.829815168278984)" r="NaN"/><path fill="#49bbd6" stroke="none" d="M 67.1146,43.012 C 66.0326,33.237 69.9966,27.492 74.9086,27.203 C 81.5466,26.812 85.5636,30.988 84.4926,40.022 C 84.2736,41.866 93.4906,55.714 84.6516,60.121 C 77.0856,62.197 51.9486,63.457 51.4676,54.065 C 50.8786,42.561 67.2606,44.33 67.1146,43.012 Z" transform=""/><ellipse cx="54.358463617944444" cy="54.95654988900847" rx="7.6917973517937" ry="3.1374648018285187" fill="#49bbd6" stroke="none" transform="rotate(180.2177 54.358463850897586 54.956549945128174)" r="NaN"/><path fill="#42a8c1" stroke="none" d="M 74.8433,58.2333 C 70.5093,55.5453 67.9093,52.3303 66.8133,54.0983 C 66.1113,55.2293 63.9683,59.0913 64.9203,61.2843 C 68.9373,61.7863 75.3343,62.2053 79.1553,61.8023 C 78.0923,60.5843 76.6143,59.3323 74.8433,58.2333 Z" transform=""/><path fill="#49bbd6" stroke="none" d="M 79.5787,64.8725 C 81.2297,63.6435 79.6857,59.5575 76.1277,55.7465 S 68.3467,49.8435 66.6957,51.0725 C 65.0437,52.3025 66.5887,56.3875 70.1467,60.1985 S 77.9277,66.1015 79.5787,64.8725 Z" transform=""/><path fill="#42a8c1" stroke="none" d="M 69.7774,37.6359 C 70.5724,35.5839 72.7514,34.4549 74.6434,35.1149 C 75.5194,35.4199 77.7284,35.2979 78.7084,35.0289 C 80.6444,34.4959 82.7354,35.7659 83.3774,37.8659 S 82.9704,42.0989 81.0334,42.6319 C 79.2404,43.1259 73.5874,43.1809 71.7644,42.5459 C 69.8724,41.8859 68.9824,39.6879 69.7774,37.6359 Z" transform=""/><path fill="#49bbd6" stroke="none" d="M 70.3383,36.8089 C 71.1063,34.8259 73.2113,33.7349 75.0403,34.3729 C 75.8873,34.6679 78.0213,34.5499 78.9683,34.2899 C 80.8393,33.7749 82.8593,35.0019 83.4793,37.0309 C 84.1003,39.0599 83.0863,41.1219 81.2153,41.6369 C 79.4833,42.1139 77.6663,41.8959 76.9063,40.1319 C 76.0743,41.9769 74.0193,42.1679 72.2583,41.5539 C 70.4303,40.9159 69.5703,38.7919 70.3383,36.8089 Z" transform=""/><ellipse cx="73.9840895529989" cy="34.945234909849646" rx="0.5790676883688968" ry="0.8045880369380972" fill="#304454" stroke="none" transform="rotate(1.5587 73.98409095429378 34.94523483467778)" r="NaN"/><ellipse cx="79.7345909295715" cy="34.945234909849646" rx="0.5790676883688968" ry="0.8045880369380972" fill="#304454" stroke="none" transform="rotate(1.5587 79.7345920039146 34.94523483467778)" r="NaN"/><path fill="#42a8c1" stroke="none" d="M 79.0859,37.4758 S 78.1919,38.9918 77.1659,38.9948 C 76.5459,38.9958 76.1339,38.3738 75.7579,37.4128 C 75.3269,36.3058 76.7769,35.9018 77.4469,35.9258 C 78.0559,35.9488 79.4869,36.0908 79.0859,37.4758 Z" transform=""/><path fill="#49bbd6" stroke="none" d="M 79.1261,36.5871 S 78.4241,38.2011 77.4061,38.3301 C 76.7921,38.4071 76.3071,37.8401 75.8161,36.9331 C 75.2511,35.8861 76.6421,35.3081 77.3101,35.2491 C 77.9171,35.1981 79.3551,35.1641 79.1261,36.5871 Z" transform=""/><path fill="none" stroke="#378fa4" d="M 81.0395,38.9891 S 83.4915,40.7711 84.3075,42.3011" style="stroke-miterlimit: 10" stroke-miterlimit="10" transform=""/><path fill="none" stroke="#378fa4" d="M 82.0578,37.9852 S 84.9728,38.7842 86.2838,39.9322" style="stroke-miterlimit: 10" stroke-miterlimit="10" transform=""/><path fill="none" stroke="#378fa4" d="M 72.5945,38.6532 S 70.1425,40.4352 69.3265,41.9652" style="stroke-miterlimit: 10" stroke-miterlimit="10" transform=""/><path fill="none" stroke="#378fa4" d="M 71.5762,37.6493 S 68.6612,38.4483 67.3502,39.5963" style="stroke-miterlimit: 10" stroke-miterlimit="10" transform=""/><path fill="#49bbd6" stroke="none" d="M 80.4342,62.0446 C 79.6122,61.0856 78.6772,60.6606 78.3452,61.0956 C 78.1532,61.3476 78.2112,61.8356 78.4492,62.3856 C 77.8312,61.8956 77.2532,61.7426 77.0072,62.0656 C 76.8652,62.2516 76.8632,62.5676 76.9632,62.9396 C 76.3002,62.3676 75.6592,62.1676 75.3962,62.5116 C 75.0642,62.9466 75.4612,64.0766 76.2822,65.0356 C 77.1042,65.9956 78.0402,66.4196 78.3722,65.9846 C 78.5142,65.7996 78.5162,65.4836 78.4162,65.1116 C 79.0792,65.6836 79.7192,65.8836 79.9822,65.5396 C 80.1752,65.2876 80.1162,64.8006 79.8792,64.2496 C 80.4962,64.7396 81.0742,64.8926 81.3212,64.5696 C 81.6522,64.1346 81.2562,63.0036 80.4342,62.0446 Z" transform=""/><path fill="#42a8c1" stroke="none" d="M 92.0289,57.7024 C 91.0789,56.8704 90.0929,56.5824 89.8259,57.0614 C 89.6709,57.3384 89.7979,57.8124 90.1119,58.3234 C 89.4309,57.9254 88.8369,57.8574 88.6389,58.2124 C 88.5249,58.4164 88.5689,58.7294 88.7209,59.0824 C 87.9829,58.6124 87.3199,58.5044 87.1089,58.8834 C 86.8419,59.3604 87.3959,60.4234 88.3459,61.2554 C 89.2969,62.0874 90.2829,62.3754 90.5489,61.8964 C 90.6639,61.6924 90.6199,61.3794 90.4679,61.0264 C 91.2059,61.4974 91.8689,61.6044 92.0799,61.2264 C 92.2339,60.9494 92.1069,60.4744 91.7929,59.9644 C 92.4739,60.3614 93.0679,60.4294 93.2659,60.0754 C 93.5329,59.5964 92.9789,58.5344 92.0289,57.7024 Z" transform=""/></svg>