<svg xmlns="http://www.w3.org/2000/svg" version="1.1" width="400" height="48" viewBox="0 0 400 48"><defs/><path fill="#4d677a" stroke="none" d="M 30.8306,22.7696 S 32.0106,21.9176 32.2396,22.0486 S 32.2726,23.0316 32.2726,23.0316 L 30.8306,22.7696 Z" transform=""/><path fill="#bdcccc" stroke="none" d="M 32.1072,28.1113 S 32.7032,28.2603 33.0762,27.9613 C 33.4482,27.6643 33.1502,26.9553 33.1502,26.9553 L 32.1072,28.1113 Z" transform=""/><path fill="#4d677a" stroke="none" d="M 17.7574,32.1736 S 16.2664,33.1426 15.7814,34.1486 C 15.7814,34.1486 18.7264,32.5456 20.2924,32.5086 C 20.2924,32.5096 18.6144,32.1736 17.7574,32.1736 Z" transform=""/><path fill="#4d677a" stroke="none" d="M 21.8931,21.2673 S 24.6351,18.0963 26.9911,18.5673 C 26.9911,18.5673 25.0391,20.6123 25.3521,22.1613 C 25.3631,22.2133 25.3761,22.2653 25.3921,22.3163 C 25.8771,23.8803 21.8931,21.2673 21.8931,21.2673 Z" transform=""/><path fill="#7a3440" stroke="none" d="M 16.068,27.5595 S 13.596,30.8725 14.348,31.6755 C 15.524,31.6285 17.649,30.7985 17.649,30.7985 L 19.282,29.3475 L 16.068,27.5595 Z" transform=""/><path fill="#4d677a" stroke="none" d="M 35.7864,22.4582 C 35.6714,21.0802 36.1494,19.2672 36.5104,17.8182 L 35.8174,17.4962 L 36.7544,16.9832 C 37.1144,15.9082 37.6554,14.8502 38.4354,13.8512 C 38.4354,13.8512 36.1824,14.8442 34.4284,16.6442 C 32.8004,18.3152 33.5374,22.6832 33.5374,22.6832 S 26.7124,22.7642 21.0124,20.4342 C 14.0904,17.6082 7.80639,14.2682 8.00439,17.1432 C 8.16539,19.4722 10.9754,25.1722 12.2604,26.0562 C 13.5444,26.9382 17.6894,28.1342 17.5594,28.6262 C 17.1584,30.1512 13.9464,31.2752 14.3474,31.6762 C 14.7494,32.0772 26.8734,36.5742 34.2604,25.7342 C 34.2604,25.7342 37.2144,29.4232 40.0004,29.3882 C 37.0404,26.4632 36.5184,25.1052 35.7864,22.4582 Z" transform=""/><path fill="#fffdfd" stroke="none" d="M 16.8976,27.9998 S 16.8456,28.6998 16.9226,28.7778 C 17.0006,28.8558 17.3636,28.2858 17.3636,28.2858 L 16.8976,27.9998 Z" transform=""/><path fill="#fffdfd" stroke="none" d="M 16.1438,27.5571 S 16.0918,28.2571 16.1698,28.3351 C 16.2468,28.4121 16.6098,27.8421 16.6098,27.8421 L 16.1438,27.5571 Z" transform=""/><path fill="#fffdfd" stroke="none" d="M 15.5071,30.9837 S 14.9921,30.5077 14.8821,30.5207 C 14.7731,30.5327 14.9931,31.1717 14.9931,31.1717 L 15.5071,30.9837 Z" transform=""/><path fill="#bdcccc" stroke="none" d="M 35.1435,23.2453 S 32.6495,28.6283 25.3925,28.4243 C 18.2025,28.2243 11.9395,20.9173 10.3335,18.9893 C 9.2325,17.6693 8.4815,16.8853 8.0165,16.8263 C 8.0035,16.9223 7.9965,17.0273 8.0045,17.1433 C 8.1655,19.4723 10.9755,25.1723 12.2605,26.0563 C 13.5455,26.9383 17.6895,28.1343 17.5595,28.6263 C 17.1575,30.1513 13.9465,31.2753 14.3475,31.6763 C 14.7465,32.0753 26.9985,36.6263 34.2605,25.7343 C 34.7885,24.4433 35.1435,23.2453 35.1435,23.2453 Z" transform=""/><path fill="#688da7" stroke="none" d="M 20.3428,22.2417 S 20.8758,23.5497 19.7928,25.1077 C 19.7928,25.1077 20.3728,23.6377 20.3428,22.2417 Z" transform=""/><path fill="#688da7" stroke="none" d="M 20.9007,22.6731 S 21.4337,23.9811 20.3507,25.5391 C 20.3507,25.5391 20.9297,24.0691 20.9007,22.6731 Z" transform=""/><path fill="#688da7" stroke="none" d="M 21.3522,23.0923 S 21.8862,24.3993 20.8022,25.9583 C 20.8022,25.9583 21.3822,24.4873 21.3522,23.0923 Z" transform=""/><path fill="#304454" stroke="none" d="M 23.5641,30.2222 C 23.3501,28.8082 22.7501,28.8082 22.6211,27.6942 C 22.6211,27.6942 22.6631,27.6162 22.7071,27.5222 C 22.7071,27.5222 25.9631,29.8362 27.0341,30.1362 C 27.0341,30.1362 27.1691,32.8462 29.6051,33.5642 C 29.5841,33.6242 29.5841,33.6802 29.5841,33.7482 C 29.5841,33.7482 24.1051,33.7892 23.5641,30.2222 Z" transform=""/><path fill="#4d677a" stroke="none" d="M 23.6497,30.0501 C 23.4357,28.6361 22.8357,28.6361 22.7077,27.5231 C 22.7077,27.5231 24.0357,28.1221 24.9787,28.0371 C 24.9787,28.0371 26.0487,29.6651 27.1197,29.9651 C 27.1197,29.9651 27.3767,32.5351 29.6047,33.5641 C 29.6057,33.5641 24.1907,33.6171 23.6497,30.0501 Z" transform=""/><ellipse cx="17.789987557387235" cy="22.742444318044654" rx="0.4259845668564665" ry="0.7078211238588694" fill="#304454" stroke="none" r="NaN" transform=""/><path fill="#4d677a" stroke="none" d="M 70.8306,22.7696 S 72.0106,21.9176 72.2396,22.0486 S 72.2726,23.0316 72.2726,23.0316 L 70.8306,22.7696 Z" transform=""/><path fill="#bdcccc" stroke="none" d="M 72.1072,28.1113 S 72.7032,28.2603 73.0762,27.9613 C 73.4482,27.6643 73.1502,26.9553 73.1502,26.9553 L 72.1072,28.1113 Z" transform=""/><path fill="#4d677a" stroke="none" d="M 57.7574,32.1736 S 56.2664,33.1426 55.7814,34.1486 C 55.7814,34.1486 58.7264,32.5456 60.2924,32.5086 C 60.2924,32.5096 58.6144,32.1736 57.7574,32.1736 Z" transform=""/><path fill="#4d677a" stroke="none" d="M 61.8931,21.2673 S 64.6351,18.0963 66.9911,18.5673 C 66.9911,18.5673 65.0391,20.6123 65.3521,22.1613 C 65.3631,22.2133 65.3761,22.2653 65.3921,22.3163 C 65.8771,23.8803 61.8931,21.2673 61.8931,21.2673 Z" transform=""/><path fill="#7a3440" stroke="none" d="M 56.068,27.5595 S 53.596,30.8725 54.348,31.6755 C 55.524,31.6285 57.649,30.7985 57.649,30.7985 L 59.282,29.3475 L 56.068,27.5595 Z" transform=""/><path fill="#4d677a" stroke="none" d="M 75.7864,22.4582 C 75.6714,21.0802 76.1494,19.2672 76.5104,17.8182 L 75.8174,17.4962 L 76.7544,16.9832 C 77.1144,15.9082 77.6554,14.8502 78.4354,13.8512 C 78.4354,13.8512 76.1824,14.8442 74.4284,16.6442 C 72.8004,18.3152 73.5374,22.6832 73.5374,22.6832 S 66.7124,22.7642 61.0124,20.4342 C 54.0904,17.6082 47.8064,14.2682 48.0044,17.1432 C 48.1654,19.4722 50.9754,25.1722 52.2604,26.0562 C 53.5444,26.9382 57.6894,28.1342 57.5594,28.6262 C 57.1584,30.1512 53.9464,31.2752 54.3474,31.6762 C 54.7494,32.0772 66.8734,36.5742 74.2604,25.7342 C 74.2604,25.7342 77.2144,29.4232 80.0004,29.3882 C 77.0404,26.4632 76.5184,25.1052 75.7864,22.4582 Z" transform=""/><path fill="#fffdfd" stroke="none" d="M 56.8976,27.9998 S 56.8456,28.6998 56.9226,28.7778 C 57.0006,28.8558 57.3636,28.2858 57.3636,28.2858 L 56.8976,27.9998 Z" transform=""/><path fill="#fffdfd" stroke="none" d="M 56.1438,27.5571 S 56.0918,28.2571 56.1698,28.3351 C 56.2468,28.4121 56.6098,27.8421 56.6098,27.8421 L 56.1438,27.5571 Z" transform=""/><path fill="#fffdfd" stroke="none" d="M 55.5071,30.9837 S 54.9921,30.5077 54.8821,30.5207 C 54.7731,30.5327 54.9931,31.1717 54.9931,31.1717 L 55.5071,30.9837 Z" transform=""/><path fill="#bdcccc" stroke="none" d="M 75.1435,23.2453 S 72.6495,28.6283 65.3925,28.4243 C 58.2025,28.2243 51.9395,20.9173 50.3335,18.9893 C 49.2325,17.6693 48.4815,16.8853 48.0165,16.8263 C 48.0035,16.9223 47.9965,17.0273 48.0045,17.1433 C 48.1655,19.4723 50.9755,25.1723 52.2605,26.0563 C 53.5455,26.9383 57.6895,28.1343 57.5595,28.6263 C 57.1575,30.1513 53.9465,31.2753 54.3475,31.6763 C 54.7465,32.0753 66.9985,36.6263 74.2605,25.7343 C 74.7885,24.4433 75.1435,23.2453 75.1435,23.2453 Z" transform=""/><path fill="#688da7" stroke="none" d="M 60.3428,22.2417 S 60.8758,23.5497 59.7928,25.1077 C 59.7928,25.1077 60.3728,23.6377 60.3428,22.2417 Z" transform=""/><path fill="#688da7" stroke="none" d="M 60.9007,22.6731 S 61.4337,23.9811 60.3507,25.5391 C 60.3507,25.5391 60.9297,24.0691 60.9007,22.6731 Z" transform=""/><path fill="#688da7" stroke="none" d="M 61.3522,23.0923 S 61.8862,24.3993 60.8022,25.9583 C 60.8022,25.9583 61.3822,24.4873 61.3522,23.0923 Z" transform=""/><path fill="#304454" stroke="none" d="M 63.5641,30.2222 C 63.3501,28.8082 62.7501,28.8082 62.6211,27.6942 C 62.6211,27.6942 62.6631,27.6162 62.7071,27.5222 C 62.7071,27.5222 65.9631,29.8362 67.0341,30.1362 C 67.0341,30.1362 67.1691,32.8462 69.6051,33.5642 C 69.5841,33.6242 69.5841,33.6802 69.5841,33.7482 C 69.5841,33.7482 64.1051,33.7892 63.5641,30.2222 Z" transform=""/><path fill="#4d677a" stroke="none" d="M 63.6497,30.0501 C 63.4357,28.6361 62.8357,28.6361 62.7077,27.5231 C 62.7077,27.5231 64.0357,28.1221 64.9787,28.0371 C 64.9787,28.0371 66.0487,29.6651 67.1197,29.9651 C 67.1197,29.9651 67.3767,32.5351 69.6047,33.5641 C 69.6057,33.5641 64.1907,33.6171 63.6497,30.0501 Z" transform=""/><ellipse cx="57.789987557387235" cy="22.742444318044654" rx="0.4259845668564665" ry="0.7078211238588694" fill="#304454" stroke="none" r="NaN" transform=""/><path fill="#4d677a" stroke="none" d="M 110.831,22.7696 S 112.011,21.9176 112.24,22.0486 S 112.273,23.0316 112.273,23.0316 L 110.831,22.7696 Z" transform=""/><path fill="#bdcccc" stroke="none" d="M 112.107,28.1113 S 112.703,28.2603 113.076,27.9613 C 113.448,27.6643 113.15,26.9553 113.15,26.9553 L 112.107,28.1113 Z" transform=""/><path fill="#4d677a" stroke="none" d="M 97.7574,32.1736 S 96.2664,33.1426 95.7814,34.1486 C 95.7814,34.1486 98.7264,32.5456 100.292,32.5086 C 100.292,32.5096 98.6144,32.1736 97.7574,32.1736 Z" transform=""/><path fill="#4d677a" stroke="none" d="M 101.893,21.2673 S 104.635,18.0963 106.991,18.5673 C 106.991,18.5673 105.039,20.6123 105.352,22.1613 C 105.363,22.2133 105.376,22.2653 105.392,22.3163 C 105.877,23.8803 101.893,21.2673 101.893,21.2673 Z" transform=""/><path fill="#7a3440" stroke="none" d="M 96.068,27.5595 S 93.596,30.8725 94.348,31.6755 C 95.524,31.6285 97.649,30.7985 97.649,30.7985 L 99.282,29.3475 L 96.068,27.5595 Z" transform=""/><path fill="#4d677a" stroke="none" d="M 115.786,22.4582 C 115.671,21.0802 116.149,19.2672 116.51,17.8182 L 115.817,17.4962 L 116.754,16.9832 C 117.114,15.9082 117.655,14.8502 118.435,13.8512 C 118.435,13.8512 116.182,14.8442 114.428,16.6442 C 112.8,18.3152 113.537,22.6832 113.537,22.6832 S 106.712,22.7642 101.012,20.4342 C 94.0904,17.6082 87.8064,14.2682 88.0044,17.1432 C 88.1654,19.4722 90.9754,25.1722 92.2604,26.0562 C 93.5444,26.9382 97.6894,28.1342 97.5594,28.6262 C 97.1584,30.1512 93.9464,31.2752 94.3474,31.6762 C 94.7494,32.0772 106.873,36.5742 114.26,25.7342 C 114.26,25.7342 117.214,29.4232 120,29.3882 C 117.04,26.4632 116.518,25.1052 115.786,22.4582 Z" transform=""/><path fill="#fffdfd" stroke="none" d="M 96.8976,27.9998 S 96.8456,28.6998 96.9226,28.7778 C 97.0006,28.8558 97.3636,28.2858 97.3636,28.2858 L 96.8976,27.9998 Z" transform=""/><path fill="#fffdfd" stroke="none" d="M 96.1438,27.5571 S 96.0918,28.2571 96.1698,28.3351 C 96.2468,28.4121 96.6098,27.8421 96.6098,27.8421 L 96.1438,27.5571 Z" transform=""/><path fill="#fffdfd" stroke="none" d="M 95.5071,30.9837 S 94.9921,30.5077 94.8821,30.5207 C 94.7731,30.5327 94.9931,31.1717 94.9931,31.1717 L 95.5071,30.9837 Z" transform=""/><path fill="#bdcccc" stroke="none" d="M 115.144,23.2453 S 112.65,28.6283 105.393,28.4243 C 98.2025,28.2243 91.9395,20.9173 90.3335,18.9893 C 89.2325,17.6693 88.4815,16.8853 88.0165,16.8263 C 88.0035,16.9223 87.9965,17.0273 88.0045,17.1433 C 88.1655,19.4723 90.9755,25.1723 92.2605,26.0563 C 93.5455,26.9383 97.6895,28.1343 97.5595,28.6263 C 97.1575,30.1513 93.9465,31.2753 94.3475,31.6763 C 94.7465,32.0753 106.999,36.6263 114.261,25.7343 C 114.789,24.4433 115.144,23.2453 115.144,23.2453 Z" transform=""/><path fill="#688da7" stroke="none" d="M 100.343,22.2417 S 100.876,23.5497 99.7928,25.1077 C 99.7928,25.1077 100.373,23.6377 100.343,22.2417 Z" transform=""/><path fill="#688da7" stroke="none" d="M 100.901,22.6731 S 101.434,23.9811 100.351,25.5391 C 100.351,25.5391 100.93,24.0691 100.901,22.6731 Z" transform=""/><path fill="#688da7" stroke="none" d="M 101.352,23.0923 S 101.886,24.3993 100.802,25.9583 C 100.802,25.9583 101.382,24.4873 101.352,23.0923 Z" transform=""/><path fill="#304454" stroke="none" d="M 103.564,30.2222 C 103.35,28.8082 102.75,28.8082 102.621,27.6942 C 102.621,27.6942 102.663,27.6162 102.707,27.5222 C 102.707,27.5222 105.963,29.8362 107.034,30.1362 C 107.034,30.1362 107.169,32.8462 109.605,33.5642 C 109.584,33.6242 109.584,33.6802 109.584,33.7482 C 109.584,33.7482 104.105,33.7892 103.564,30.2222 Z" transform=""/><path fill="#4d677a" stroke="none" d="M 103.65,30.0501 C 103.436,28.6361 102.836,28.6361 102.708,27.5231 C 102.708,27.5231 104.036,28.1221 104.979,28.0371 C 104.979,28.0371 106.049,29.6651 107.12,29.9651 C 107.12,29.9651 107.377,32.5351 109.605,33.5641 C 109.606,33.5641 104.191,33.6171 103.65,30.0501 Z" transform=""/><ellipse cx="97.78998755738724" cy="22.742444318044654" rx="0.4259845668564665" ry="0.7078211238588694" fill="#304454" stroke="none" r="NaN" transform=""/><path fill="#4d677a" stroke="none" d="M 150.831,22.7696 S 152.011,21.9176 152.24,22.0486 C 152.469,22.1796 152.273,23.0316 152.273,23.0316 L 150.831,22.7696 Z" transform=""/><path fill="#bdcccc" stroke="none" d="M 152.107,28.1113 S 152.703,28.2603 153.076,27.9613 C 153.448,27.6643 153.15,26.9553 153.15,26.9553 L 152.107,28.1113 Z" transform=""/><path fill="#4d677a" stroke="none" d="M 137.757,32.1736 S 136.266,33.1426 135.781,34.1486 C 135.781,34.1486 138.726,32.5456 140.292,32.5086 C 140.292,32.5096 138.614,32.1736 137.757,32.1736 Z" transform=""/><path fill="#4d677a" stroke="none" d="M 141.893,21.2673 S 144.635,18.0963 146.991,18.5673 C 146.991,18.5673 145.039,20.6123 145.352,22.1613 C 145.363,22.2133 145.376,22.2653 145.392,22.3163 C 145.877,23.8803 141.893,21.2673 141.893,21.2673 Z" transform=""/><path fill="#7a3440" stroke="none" d="M 136.068,27.5595 S 133.596,30.8725 134.348,31.6755 C 135.524,31.6285 137.649,30.7985 137.649,30.7985 L 139.282,29.3475 L 136.068,27.5595 Z" transform=""/><path fill="#4d677a" stroke="none" d="M 155.786,22.4582 C 155.671,21.0802 156.149,19.2672 156.51,17.8182 L 155.817,17.4962 L 156.754,16.9832 C 157.114,15.9082 157.655,14.8502 158.435,13.8512 C 158.435,13.8512 156.182,14.8442 154.428,16.6442 C 152.8,18.3152 153.537,22.6832 153.537,22.6832 S 146.712,22.7642 141.012,20.4342 C 134.09,17.6082 127.806,14.2682 128.004,17.1432 C 128.165,19.4722 130.975,25.1722 132.26,26.0562 C 133.544,26.9382 137.689,28.1342 137.559,28.6262 C 137.158,30.1512 133.946,31.2752 134.347,31.6762 C 134.749,32.0772 146.873,36.5742 154.26,25.7342 C 154.26,25.7342 157.214,29.4232 160,29.3882 C 157.04,26.4632 156.518,25.1052 155.786,22.4582 Z" transform=""/><path fill="#fffdfd" stroke="none" d="M 136.898,27.9998 S 136.846,28.6998 136.923,28.7778 C 137.001,28.8558 137.364,28.2858 137.364,28.2858 L 136.898,27.9998 Z" transform=""/><path fill="#fffdfd" stroke="none" d="M 136.144,27.5571 S 136.092,28.2571 136.17,28.3351 C 136.247,28.4121 136.61,27.8421 136.61,27.8421 L 136.144,27.5571 Z" transform=""/><path fill="#fffdfd" stroke="none" d="M 135.507,30.9837 S 134.992,30.5077 134.882,30.5207 C 134.773,30.5327 134.993,31.1717 134.993,31.1717 L 135.507,30.9837 Z" transform=""/><path fill="#bdcccc" stroke="none" d="M 155.144,23.2453 S 152.65,28.6283 145.393,28.4243 C 138.203,28.2243 131.94,20.9173 130.334,18.9893 C 129.233,17.6693 128.482,16.8853 128.017,16.8263 C 128.004,16.9223 127.997,17.0273 128.005,17.1433 C 128.166,19.4723 130.976,25.1723 132.261,26.0563 C 133.546,26.9383 137.69,28.1343 137.56,28.6263 C 137.158,30.1513 133.947,31.2753 134.348,31.6763 C 134.747,32.0753 146.999,36.6263 154.261,25.7343 C 154.789,24.4433 155.144,23.2453 155.144,23.2453 Z" transform=""/><path fill="#688da7" stroke="none" d="M 140.343,22.2417 S 140.876,23.5497 139.793,25.1077 C 139.793,25.1077 140.373,23.6377 140.343,22.2417 Z" transform=""/><path fill="#688da7" stroke="none" d="M 140.901,22.6731 S 141.434,23.9811 140.351,25.5391 C 140.351,25.5391 140.93,24.0691 140.901,22.6731 Z" transform=""/><path fill="#688da7" stroke="none" d="M 141.352,23.0923 S 141.886,24.3993 140.802,25.9583 C 140.802,25.9583 141.382,24.4873 141.352,23.0923 Z" transform=""/><path fill="#304454" stroke="none" d="M 143.564,30.2222 C 143.35,28.8082 142.75,28.8082 142.621,27.6942 C 142.621,27.6942 142.663,27.6162 142.707,27.5222 C 142.707,27.5222 145.963,29.8362 147.034,30.1362 C 147.034,30.1362 147.169,32.8462 149.605,33.5642 C 149.584,33.6242 149.584,33.6802 149.584,33.7482 C 149.584,33.7482 144.105,33.7892 143.564,30.2222 Z" transform=""/><path fill="#4d677a" stroke="none" d="M 143.65,30.0501 C 143.436,28.6361 142.836,28.6361 142.708,27.5231 C 142.708,27.5231 144.036,28.1221 144.979,28.0371 C 144.979,28.0371 146.049,29.6651 147.12,29.9651 C 147.12,29.9651 147.377,32.5351 149.605,33.5641 C 149.606,33.5641 144.191,33.6171 143.65,30.0501 Z" transform=""/><ellipse cx="137.78998755738724" cy="22.742444318044654" rx="0.4259845668564665" ry="0.7078211238588694" fill="#304454" stroke="none" r="NaN" transform=""/><path fill="#4d677a" stroke="none" d="M 190.831,22.7696 S 192.011,21.9176 192.24,22.0486 C 192.469,22.1796 192.273,23.0316 192.273,23.0316 L 190.831,22.7696 Z" transform=""/><path fill="#bdcccc" stroke="none" d="M 192.107,28.1113 S 192.703,28.2603 193.076,27.9613 C 193.448,27.6643 193.15,26.9553 193.15,26.9553 L 192.107,28.1113 Z" transform=""/><path fill="#4d677a" stroke="none" d="M 177.757,32.1736 S 176.266,33.1426 175.781,34.1486 C 175.781,34.1486 178.726,32.5456 180.292,32.5086 C 180.292,32.5096 178.614,32.1736 177.757,32.1736 Z" transform=""/><path fill="#4d677a" stroke="none" d="M 181.893,21.2673 S 184.635,18.0963 186.991,18.5673 C 186.991,18.5673 185.039,20.6123 185.352,22.1613 C 185.363,22.2133 185.376,22.2653 185.392,22.3163 C 185.877,23.8803 181.893,21.2673 181.893,21.2673 Z" transform=""/><path fill="#7a3440" stroke="none" d="M 176.068,27.5595 S 173.596,30.8725 174.348,31.6755 C 175.524,31.6285 177.649,30.7985 177.649,30.7985 L 179.282,29.3475 L 176.068,27.5595 Z" transform=""/><path fill="#4d677a" stroke="none" d="M 195.786,22.4582 C 195.671,21.0802 196.149,19.2672 196.51,17.8182 L 195.817,17.4962 L 196.754,16.9832 C 197.114,15.9082 197.655,14.8502 198.435,13.8512 C 198.435,13.8512 196.182,14.8442 194.428,16.6442 C 192.8,18.3152 193.537,22.6832 193.537,22.6832 S 186.712,22.7642 181.012,20.4342 C 174.09,17.6082 167.806,14.2682 168.004,17.1432 C 168.165,19.4722 170.975,25.1722 172.26,26.0562 C 173.544,26.9382 177.689,28.1342 177.559,28.6262 C 177.158,30.1512 173.946,31.2752 174.347,31.6762 C 174.749,32.0772 186.873,36.5742 194.26,25.7342 C 194.26,25.7342 197.214,29.4232 200,29.3882 C 197.04,26.4632 196.518,25.1052 195.786,22.4582 Z" transform=""/><path fill="#fffdfd" stroke="none" d="M 176.898,27.9998 S 176.846,28.6998 176.923,28.7778 C 177.001,28.8558 177.364,28.2858 177.364,28.2858 L 176.898,27.9998 Z" transform=""/><path fill="#fffdfd" stroke="none" d="M 176.144,27.5571 S 176.092,28.2571 176.17,28.3351 C 176.247,28.4121 176.61,27.8421 176.61,27.8421 L 176.144,27.5571 Z" transform=""/><path fill="#fffdfd" stroke="none" d="M 175.507,30.9837 S 174.992,30.5077 174.882,30.5207 C 174.773,30.5327 174.993,31.1717 174.993,31.1717 L 175.507,30.9837 Z" transform=""/><path fill="#bdcccc" stroke="none" d="M 195.144,23.2453 S 192.65,28.6283 185.393,28.4243 C 178.203,28.2243 171.94,20.9173 170.334,18.9893 C 169.233,17.6693 168.482,16.8853 168.017,16.8263 C 168.004,16.9223 167.997,17.0273 168.005,17.1433 C 168.166,19.4723 170.976,25.1723 172.261,26.0563 C 173.546,26.9383 177.69,28.1343 177.56,28.6263 C 177.158,30.1513 173.947,31.2753 174.348,31.6763 C 174.747,32.0753 186.999,36.6263 194.261,25.7343 C 194.789,24.4433 195.144,23.2453 195.144,23.2453 Z" transform=""/><path fill="#688da7" stroke="none" d="M 180.343,22.2417 S 180.876,23.5497 179.793,25.1077 C 179.793,25.1077 180.373,23.6377 180.343,22.2417 Z" transform=""/><path fill="#688da7" stroke="none" d="M 180.901,22.6731 S 181.434,23.9811 180.351,25.5391 C 180.351,25.5391 180.93,24.0691 180.901,22.6731 Z" transform=""/><path fill="#688da7" stroke="none" d="M 181.352,23.0923 S 181.886,24.3993 180.802,25.9583 C 180.802,25.9583 181.382,24.4873 181.352,23.0923 Z" transform=""/><path fill="#304454" stroke="none" d="M 183.564,30.2222 C 183.35,28.8082 182.75,28.8082 182.621,27.6942 C 182.621,27.6942 182.663,27.6162 182.707,27.5222 C 182.707,27.5222 185.963,29.8362 187.034,30.1362 C 187.034,30.1362 187.169,32.8462 189.605,33.5642 C 189.584,33.6242 189.584,33.6802 189.584,33.7482 C 189.584,33.7482 184.105,33.7892 183.564,30.2222 Z" transform=""/><path fill="#4d677a" stroke="none" d="M 183.65,30.0501 C 183.436,28.6361 182.836,28.6361 182.708,27.5231 C 182.708,27.5231 184.036,28.1221 184.979,28.0371 C 184.979,28.0371 186.049,29.6651 187.12,29.9651 C 187.12,29.9651 187.377,32.5351 189.605,33.5641 C 189.606,33.5641 184.191,33.6171 183.65,30.0501 Z" transform=""/><ellipse cx="177.78998755738724" cy="22.742444318044654" rx="0.4259845668564665" ry="0.7078211238588694" fill="#304454" stroke="none" r="NaN" transform=""/><path fill="#4d677a" stroke="none" d="M 230.831,22.7696 S 232.011,21.9176 232.24,22.0486 C 232.469,22.1796 232.273,23.0316 232.273,23.0316 L 230.831,22.7696 Z" transform=""/><path fill="#bdcccc" stroke="none" d="M 232.107,28.1113 S 232.703,28.2603 233.076,27.9613 C 233.448,27.6643 233.15,26.9553 233.15,26.9553 L 232.107,28.1113 Z" transform=""/><path fill="#4d677a" stroke="none" d="M 217.757,32.1736 S 216.266,33.1426 215.781,34.1486 C 215.781,34.1486 218.726,32.5456 220.292,32.5086 C 220.292,32.5096 218.614,32.1736 217.757,32.1736 Z" transform=""/><path fill="#4d677a" stroke="none" d="M 221.893,21.2673 S 224.635,18.0963 226.991,18.5673 C 226.991,18.5673 225.039,20.6123 225.352,22.1613 C 225.363,22.2133 225.376,22.2653 225.392,22.3163 C 225.877,23.8803 221.893,21.2673 221.893,21.2673 Z" transform=""/><path fill="#7a3440" stroke="none" d="M 216.068,27.5595 S 213.596,30.8725 214.348,31.6755 C 215.524,31.6285 217.649,30.7985 217.649,30.7985 L 219.282,29.3475 L 216.068,27.5595 Z" transform=""/><path fill="#4d677a" stroke="none" d="M 235.786,22.4582 C 235.671,21.0802 236.149,19.2672 236.51,17.8182 L 235.817,17.4962 L 236.754,16.9832 C 237.114,15.9082 237.655,14.8502 238.435,13.8512 C 238.435,13.8512 236.182,14.8442 234.428,16.6442 C 232.8,18.3152 233.537,22.6832 233.537,22.6832 S 226.712,22.7642 221.012,20.4342 C 214.09,17.6082 207.806,14.2682 208.004,17.1432 C 208.165,19.4722 210.975,25.1722 212.26,26.0562 C 213.544,26.9382 217.689,28.1342 217.559,28.6262 C 217.158,30.1512 213.946,31.2752 214.347,31.6762 C 214.749,32.0772 226.873,36.5742 234.26,25.7342 C 234.26,25.7342 237.214,29.4232 240,29.3882 C 237.04,26.4632 236.518,25.1052 235.786,22.4582 Z" transform=""/><path fill="#fffdfd" stroke="none" d="M 216.898,27.9998 S 216.846,28.6998 216.923,28.7778 C 217.001,28.8558 217.364,28.2858 217.364,28.2858 L 216.898,27.9998 Z" transform=""/><path fill="#fffdfd" stroke="none" d="M 216.144,27.5571 S 216.092,28.2571 216.17,28.3351 C 216.247,28.4121 216.61,27.8421 216.61,27.8421 L 216.144,27.5571 Z" transform=""/><path fill="#fffdfd" stroke="none" d="M 215.507,30.9837 S 214.992,30.5077 214.882,30.5207 C 214.773,30.5327 214.993,31.1717 214.993,31.1717 L 215.507,30.9837 Z" transform=""/><path fill="#bdcccc" stroke="none" d="M 235.144,23.2453 S 232.65,28.6283 225.393,28.4243 C 218.203,28.2243 211.94,20.9173 210.334,18.9893 C 209.233,17.6693 208.482,16.8853 208.017,16.8263 C 208.004,16.9223 207.997,17.0273 208.005,17.1433 C 208.166,19.4723 210.976,25.1723 212.261,26.0563 C 213.546,26.9383 217.69,28.1343 217.56,28.6263 C 217.158,30.1513 213.947,31.2753 214.348,31.6763 C 214.747,32.0753 226.999,36.6263 234.261,25.7343 C 234.789,24.4433 235.144,23.2453 235.144,23.2453 Z" transform=""/><path fill="#688da7" stroke="none" d="M 220.343,22.2417 S 220.876,23.5497 219.793,25.1077 C 219.793,25.1077 220.373,23.6377 220.343,22.2417 Z" transform=""/><path fill="#688da7" stroke="none" d="M 220.901,22.6731 S 221.434,23.9811 220.351,25.5391 C 220.351,25.5391 220.93,24.0691 220.901,22.6731 Z" transform=""/><path fill="#688da7" stroke="none" d="M 221.352,23.0923 S 221.886,24.3993 220.802,25.9583 C 220.802,25.9583 221.382,24.4873 221.352,23.0923 Z" transform=""/><path fill="#304454" stroke="none" d="M 223.564,30.2222 C 223.35,28.8082 222.75,28.8082 222.621,27.6942 C 222.621,27.6942 222.663,27.6162 222.707,27.5222 C 222.707,27.5222 225.963,29.8362 227.034,30.1362 C 227.034,30.1362 227.169,32.8462 229.605,33.5642 C 229.584,33.6242 229.584,33.6802 229.584,33.7482 C 229.584,33.7482 224.105,33.7892 223.564,30.2222 Z" transform=""/><path fill="#4d677a" stroke="none" d="M 223.65,30.0501 C 223.436,28.6361 222.836,28.6361 222.708,27.5231 C 222.708,27.5231 224.036,28.1221 224.979,28.0371 C 224.979,28.0371 226.049,29.6651 227.12,29.9651 C 227.12,29.9651 227.377,32.5351 229.605,33.5641 C 229.606,33.5641 224.191,33.6171 223.65,30.0501 Z" transform=""/><ellipse cx="217.78998755738724" cy="22.742444318044654" rx="0.4259845668564665" ry="0.7078211238588694" fill="#304454" stroke="none" r="NaN" transform=""/><path fill="#4d677a" stroke="none" d="M 270.831,22.7696 S 272.011,21.9176 272.24,22.0486 S 272.273,23.0316 272.273,23.0316 L 270.831,22.7696 Z" transform=""/><path fill="#bdcccc" stroke="none" d="M 272.107,28.1113 S 272.703,28.2603 273.076,27.9613 C 273.448,27.6643 273.15,26.9553 273.15,26.9553 L 272.107,28.1113 Z" transform=""/><path fill="#4d677a" stroke="none" d="M 257.757,32.1736 S 256.266,33.1426 255.781,34.1486 C 255.781,34.1486 258.726,32.5456 260.292,32.5086 C 260.292,32.5096 258.614,32.1736 257.757,32.1736 Z" transform=""/><path fill="#4d677a" stroke="none" d="M 261.893,21.2673 S 264.635,18.0963 266.991,18.5673 C 266.991,18.5673 265.039,20.6123 265.352,22.1613 C 265.363,22.2133 265.376,22.2653 265.392,22.3163 C 265.877,23.8803 261.893,21.2673 261.893,21.2673 Z" transform=""/><path fill="#7a3440" stroke="none" d="M 256.068,27.5595 S 253.596,30.8725 254.348,31.6755 C 255.524,31.6285 257.649,30.7985 257.649,30.7985 L 259.282,29.3475 L 256.068,27.5595 Z" transform=""/><path fill="#4d677a" stroke="none" d="M 275.786,22.4582 C 275.671,21.0802 276.149,19.2672 276.51,17.8182 L 275.817,17.4962 L 276.754,16.9832 C 277.114,15.9082 277.655,14.8502 278.435,13.8512 C 278.435,13.8512 276.182,14.8442 274.428,16.6442 C 272.8,18.3152 273.537,22.6832 273.537,22.6832 S 266.712,22.7642 261.012,20.4342 C 254.09,17.6082 247.806,14.2682 248.004,17.1432 C 248.165,19.4722 250.975,25.1722 252.26,26.0562 C 253.544,26.9382 257.689,28.1342 257.559,28.6262 C 257.158,30.1512 253.946,31.2752 254.347,31.6762 C 254.749,32.0772 266.873,36.5742 274.26,25.7342 C 274.26,25.7342 277.214,29.4232 280,29.3882 C 277.04,26.4632 276.518,25.1052 275.786,22.4582 Z" transform=""/><path fill="#fffdfd" stroke="none" d="M 256.898,27.9998 S 256.846,28.6998 256.923,28.7778 C 257.001,28.8558 257.364,28.2858 257.364,28.2858 L 256.898,27.9998 Z" transform=""/><path fill="#fffdfd" stroke="none" d="M 256.144,27.5571 S 256.092,28.2571 256.17,28.3351 C 256.247,28.4121 256.61,27.8421 256.61,27.8421 L 256.144,27.5571 Z" transform=""/><path fill="#fffdfd" stroke="none" d="M 255.507,30.9837 S 254.992,30.5077 254.882,30.5207 C 254.773,30.5327 254.993,31.1717 254.993,31.1717 L 255.507,30.9837 Z" transform=""/><path fill="#bdcccc" stroke="none" d="M 275.144,23.2453 S 272.65,28.6283 265.393,28.4243 C 258.203,28.2243 251.94,20.9173 250.334,18.9893 C 249.233,17.6693 248.482,16.8853 248.017,16.8263 C 248.004,16.9223 247.997,17.0273 248.005,17.1433 C 248.166,19.4723 250.976,25.1723 252.261,26.0563 C 253.546,26.9383 257.69,28.1343 257.56,28.6263 C 257.158,30.1513 253.947,31.2753 254.348,31.6763 C 254.747,32.0753 266.999,36.6263 274.261,25.7343 C 274.789,24.4433 275.144,23.2453 275.144,23.2453 Z" transform=""/><path fill="#688da7" stroke="none" d="M 260.343,22.2417 S 260.876,23.5497 259.793,25.1077 C 259.793,25.1077 260.373,23.6377 260.343,22.2417 Z" transform=""/><path fill="#688da7" stroke="none" d="M 260.901,22.6731 S 261.434,23.9811 260.351,25.5391 C 260.351,25.5391 260.93,24.0691 260.901,22.6731 Z" transform=""/><path fill="#688da7" stroke="none" d="M 261.352,23.0923 S 261.886,24.3993 260.802,25.9583 C 260.802,25.9583 261.382,24.4873 261.352,23.0923 Z" transform=""/><path fill="#304454" stroke="none" d="M 263.564,30.2222 C 263.35,28.8082 262.75,28.8082 262.621,27.6942 C 262.621,27.6942 262.663,27.6162 262.707,27.5222 C 262.707,27.5222 265.963,29.8362 267.034,30.1362 C 267.034,30.1362 267.169,32.8462 269.605,33.5642 C 269.584,33.6242 269.584,33.6802 269.584,33.7482 C 269.584,33.7482 264.105,33.7892 263.564,30.2222 Z" transform=""/><path fill="#4d677a" stroke="none" d="M 263.65,30.0501 C 263.436,28.6361 262.836,28.6361 262.708,27.5231 C 262.708,27.5231 264.036,28.1221 264.979,28.0371 C 264.979,28.0371 266.049,29.6651 267.12,29.9651 C 267.12,29.9651 267.377,32.5351 269.605,33.5641 C 269.606,33.5641 264.191,33.6171 263.65,30.0501 Z" transform=""/><ellipse cx="257.78998755738724" cy="22.742444318044654" rx="0.4259845668564665" ry="0.7078211238588694" fill="#304454" stroke="none" r="NaN" transform=""/><path fill="#4d677a" stroke="none" d="M 310.831,22.7696 S 312.011,21.9176 312.24,22.0486 S 312.273,23.0316 312.273,23.0316 L 310.831,22.7696 Z" transform=""/><path fill="#bdcccc" stroke="none" d="M 312.107,28.1113 S 312.703,28.2603 313.076,27.9613 C 313.448,27.6643 313.15,26.9553 313.15,26.9553 L 312.107,28.1113 Z" transform=""/><path fill="#4d677a" stroke="none" d="M 297.757,32.1736 S 296.266,33.1426 295.781,34.1486 C 295.781,34.1486 298.726,32.5456 300.292,32.5086 C 300.292,32.5096 298.614,32.1736 297.757,32.1736 Z" transform=""/><path fill="#4d677a" stroke="none" d="M 301.893,21.2673 S 304.635,18.0963 306.991,18.5673 C 306.991,18.5673 305.039,20.6123 305.352,22.1613 C 305.363,22.2133 305.376,22.2653 305.392,22.3163 C 305.877,23.8803 301.893,21.2673 301.893,21.2673 Z" transform=""/><path fill="#7a3440" stroke="none" d="M 296.068,27.5595 S 293.596,30.8725 294.348,31.6755 C 295.524,31.6285 297.649,30.7985 297.649,30.7985 L 299.282,29.3475 L 296.068,27.5595 Z" transform=""/><path fill="#4d677a" stroke="none" d="M 315.786,22.4582 C 315.671,21.0802 316.149,19.2672 316.51,17.8182 L 315.817,17.4962 L 316.754,16.9832 C 317.114,15.9082 317.655,14.8502 318.435,13.8512 C 318.435,13.8512 316.182,14.8442 314.428,16.6442 C 312.8,18.3152 313.537,22.6832 313.537,22.6832 S 306.712,22.7642 301.012,20.4342 C 294.09,17.6082 287.806,14.2682 288.004,17.1432 C 288.165,19.4722 290.975,25.1722 292.26,26.0562 C 293.544,26.9382 297.689,28.1342 297.559,28.6262 C 297.158,30.1512 293.946,31.2752 294.347,31.6762 C 294.749,32.0772 306.873,36.5742 314.26,25.7342 C 314.26,25.7342 317.214,29.4232 320,29.3882 C 317.04,26.4632 316.518,25.1052 315.786,22.4582 Z" transform=""/><path fill="#fffdfd" stroke="none" d="M 296.898,27.9998 S 296.846,28.6998 296.923,28.7778 C 297.001,28.8558 297.364,28.2858 297.364,28.2858 L 296.898,27.9998 Z" transform=""/><path fill="#fffdfd" stroke="none" d="M 296.144,27.5571 S 296.092,28.2571 296.17,28.3351 C 296.247,28.4121 296.61,27.8421 296.61,27.8421 L 296.144,27.5571 Z" transform=""/><path fill="#fffdfd" stroke="none" d="M 295.507,30.9837 S 294.992,30.5077 294.882,30.5207 C 294.773,30.5327 294.993,31.1717 294.993,31.1717 L 295.507,30.9837 Z" transform=""/><path fill="#bdcccc" stroke="none" d="M 315.144,23.2453 S 312.65,28.6283 305.393,28.4243 C 298.203,28.2243 291.94,20.9173 290.334,18.9893 C 289.233,17.6693 288.482,16.8853 288.017,16.8263 C 288.004,16.9223 287.997,17.0273 288.005,17.1433 C 288.166,19.4723 290.976,25.1723 292.261,26.0563 C 293.546,26.9383 297.69,28.1343 297.56,28.6263 C 297.158,30.1513 293.947,31.2753 294.348,31.6763 C 294.747,32.0753 306.999,36.6263 314.261,25.7343 C 314.789,24.4433 315.144,23.2453 315.144,23.2453 Z" transform=""/><path fill="#688da7" stroke="none" d="M 300.343,22.2417 S 300.876,23.5497 299.793,25.1077 C 299.793,25.1077 300.373,23.6377 300.343,22.2417 Z" transform=""/><path fill="#688da7" stroke="none" d="M 300.901,22.6731 S 301.434,23.9811 300.351,25.5391 C 300.351,25.5391 300.93,24.0691 300.901,22.6731 Z" transform=""/><path fill="#688da7" stroke="none" d="M 301.352,23.0923 S 301.886,24.3993 300.802,25.9583 C 300.802,25.9583 301.382,24.4873 301.352,23.0923 Z" transform=""/><path fill="#304454" stroke="none" d="M 303.564,30.2222 C 303.35,28.8082 302.75,28.8082 302.621,27.6942 C 302.621,27.6942 302.663,27.6162 302.707,27.5222 C 302.707,27.5222 305.963,29.8362 307.034,30.1362 C 307.034,30.1362 307.169,32.8462 309.605,33.5642 C 309.584,33.6242 309.584,33.6802 309.584,33.7482 C 309.584,33.7482 304.105,33.7892 303.564,30.2222 Z" transform=""/><path fill="#4d677a" stroke="none" d="M 303.65,30.0501 C 303.436,28.6361 302.836,28.6361 302.708,27.5231 C 302.708,27.5231 304.036,28.1221 304.979,28.0371 C 304.979,28.0371 306.049,29.6651 307.12,29.9651 C 307.12,29.9651 307.377,32.5351 309.605,33.5641 C 309.606,33.5641 304.191,33.6171 303.65,30.0501 Z" transform=""/><ellipse cx="297.78998755738724" cy="22.742444318044654" rx="0.4259845668564665" ry="0.7078211238588694" fill="#304454" stroke="none" r="NaN" transform=""/><path fill="#4d677a" stroke="none" d="M 350.831,22.7696 S 352.011,21.9176 352.24,22.0486 S 352.273,23.0316 352.273,23.0316 L 350.831,22.7696 Z" transform=""/><path fill="#bdcccc" stroke="none" d="M 352.107,28.1113 S 352.703,28.2603 353.076,27.9613 C 353.448,27.6643 353.15,26.9553 353.15,26.9553 L 352.107,28.1113 Z" transform=""/><path fill="#4d677a" stroke="none" d="M 337.757,32.1736 S 336.266,33.1426 335.781,34.1486 C 335.781,34.1486 338.726,32.5456 340.292,32.5086 C 340.292,32.5096 338.614,32.1736 337.757,32.1736 Z" transform=""/><path fill="#4d677a" stroke="none" d="M 341.893,21.2673 S 344.635,18.0963 346.991,18.5673 C 346.991,18.5673 345.039,20.6123 345.352,22.1613 C 345.363,22.2133 345.376,22.2653 345.392,22.3163 C 345.877,23.8803 341.893,21.2673 341.893,21.2673 Z" transform=""/><path fill="#7a3440" stroke="none" d="M 336.068,27.5595 S 333.596,30.8725 334.348,31.6755 C 335.524,31.6285 337.649,30.7985 337.649,30.7985 L 339.282,29.3475 L 336.068,27.5595 Z" transform=""/><path fill="#4d677a" stroke="none" d="M 355.786,22.4582 C 355.671,21.0802 356.149,19.2672 356.51,17.8182 L 355.817,17.4962 L 356.754,16.9832 C 357.114,15.9082 357.655,14.8502 358.435,13.8512 C 358.435,13.8512 356.182,14.8442 354.428,16.6442 C 352.8,18.3152 353.537,22.6832 353.537,22.6832 S 346.712,22.7642 341.012,20.4342 C 334.09,17.6082 327.806,14.2682 328.004,17.1432 C 328.165,19.4722 330.975,25.1722 332.26,26.0562 C 333.544,26.9382 337.689,28.1342 337.559,28.6262 C 337.158,30.1512 333.946,31.2752 334.347,31.6762 C 334.749,32.0772 346.873,36.5742 354.26,25.7342 C 354.26,25.7342 357.214,29.4232 360,29.3882 C 357.04,26.4632 356.518,25.1052 355.786,22.4582 Z" transform=""/><path fill="#fffdfd" stroke="none" d="M 336.898,27.9998 S 336.846,28.6998 336.923,28.7778 C 337.001,28.8558 337.364,28.2858 337.364,28.2858 L 336.898,27.9998 Z" transform=""/><path fill="#fffdfd" stroke="none" d="M 336.144,27.5571 S 336.092,28.2571 336.17,28.3351 C 336.247,28.4121 336.61,27.8421 336.61,27.8421 L 336.144,27.5571 Z" transform=""/><path fill="#fffdfd" stroke="none" d="M 335.507,30.9837 S 334.992,30.5077 334.882,30.5207 C 334.773,30.5327 334.993,31.1717 334.993,31.1717 L 335.507,30.9837 Z" transform=""/><path fill="#bdcccc" stroke="none" d="M 355.144,23.2453 S 352.65,28.6283 345.393,28.4243 C 338.203,28.2243 331.94,20.9173 330.334,18.9893 C 329.233,17.6693 328.482,16.8853 328.017,16.8263 C 328.004,16.9223 327.997,17.0273 328.005,17.1433 C 328.166,19.4723 330.976,25.1723 332.261,26.0563 C 333.546,26.9383 337.69,28.1343 337.56,28.6263 C 337.158,30.1513 333.947,31.2753 334.348,31.6763 C 334.747,32.0753 346.999,36.6263 354.261,25.7343 C 354.789,24.4433 355.144,23.2453 355.144,23.2453 Z" transform=""/><path fill="#688da7" stroke="none" d="M 340.343,22.2417 S 340.876,23.5497 339.793,25.1077 C 339.793,25.1077 340.373,23.6377 340.343,22.2417 Z" transform=""/><path fill="#688da7" stroke="none" d="M 340.901,22.6731 S 341.434,23.9811 340.351,25.5391 C 340.351,25.5391 340.93,24.0691 340.901,22.6731 Z" transform=""/><path fill="#688da7" stroke="none" d="M 341.352,23.0923 S 341.886,24.3993 340.802,25.9583 C 340.802,25.9583 341.382,24.4873 341.352,23.0923 Z" transform=""/><path fill="#304454" stroke="none" d="M 343.564,30.2222 C 343.35,28.8082 342.75,28.8082 342.621,27.6942 C 342.621,27.6942 342.663,27.6162 342.707,27.5222 C 342.707,27.5222 345.963,29.8362 347.034,30.1362 C 347.034,30.1362 347.169,32.8462 349.605,33.5642 C 349.584,33.6242 349.584,33.6802 349.584,33.7482 C 349.584,33.7482 344.105,33.7892 343.564,30.2222 Z" transform=""/><path fill="#4d677a" stroke="none" d="M 343.65,30.0501 C 343.436,28.6361 342.836,28.6361 342.708,27.5231 C 342.708,27.5231 344.036,28.1221 344.979,28.0371 C 344.979,28.0371 346.049,29.6651 347.12,29.9651 C 347.12,29.9651 347.377,32.5351 349.605,33.5641 C 349.606,33.5641 344.191,33.6171 343.65,30.0501 Z" transform=""/><ellipse cx="337.78998755738724" cy="22.742444318044654" rx="0.4259845668564665" ry="0.7078211238588694" fill="#304454" stroke="none" r="NaN" transform=""/><path fill="#4d677a" stroke="none" d="M 390.831,22.7696 S 392.011,21.9176 392.24,22.0486 S 392.273,23.0316 392.273,23.0316 L 390.831,22.7696 Z" transform=""/><path fill="#bdcccc" stroke="none" d="M 392.107,28.1113 S 392.703,28.2603 393.076,27.9613 C 393.448,27.6643 393.15,26.9553 393.15,26.9553 L 392.107,28.1113 Z" transform=""/><path fill="#4d677a" stroke="none" d="M 377.757,32.1736 S 376.266,33.1426 375.781,34.1486 C 375.781,34.1486 378.726,32.5456 380.292,32.5086 C 380.292,32.5096 378.614,32.1736 377.757,32.1736 Z" transform=""/><path fill="#4d677a" stroke="none" d="M 381.893,21.2673 S 384.635,18.0963 386.991,18.5673 C 386.991,18.5673 385.039,20.6123 385.352,22.1613 C 385.363,22.2133 385.376,22.2653 385.392,22.3163 C 385.877,23.8803 381.893,21.2673 381.893,21.2673 Z" transform=""/><path fill="#7a3440" stroke="none" d="M 376.068,27.5595 S 373.596,30.8725 374.348,31.6755 C 375.524,31.6285 377.649,30.7985 377.649,30.7985 L 379.282,29.3475 L 376.068,27.5595 Z" transform=""/><path fill="#4d677a" stroke="none" d="M 395.786,22.4582 C 395.671,21.0802 396.149,19.2672 396.51,17.8182 L 395.817,17.4962 L 396.754,16.9832 C 397.114,15.9082 397.655,14.8502 398.435,13.8512 C 398.435,13.8512 396.182,14.8442 394.428,16.6442 C 392.8,18.3152 393.537,22.6832 393.537,22.6832 S 386.712,22.7642 381.012,20.4342 C 374.09,17.6082 367.806,14.2682 368.004,17.1432 C 368.165,19.4722 370.975,25.1722 372.26,26.0562 C 373.544,26.9382 377.689,28.1342 377.559,28.6262 C 377.158,30.1512 373.946,31.2752 374.347,31.6762 C 374.749,32.0772 386.873,36.5742 394.26,25.7342 C 394.26,25.7342 397.214,29.4232 400,29.3882 C 397.04,26.4632 396.518,25.1052 395.786,22.4582 Z" transform=""/><path fill="#fffdfd" stroke="none" d="M 376.898,27.9998 S 376.846,28.6998 376.923,28.7778 C 377.001,28.8558 377.364,28.2858 377.364,28.2858 L 376.898,27.9998 Z" transform=""/><path fill="#fffdfd" stroke="none" d="M 376.144,27.5571 S 376.092,28.2571 376.17,28.3351 C 376.247,28.4121 376.61,27.8421 376.61,27.8421 L 376.144,27.5571 Z" transform=""/><path fill="#fffdfd" stroke="none" d="M 375.507,30.9837 S 374.992,30.5077 374.882,30.5207 C 374.773,30.5327 374.993,31.1717 374.993,31.1717 L 375.507,30.9837 Z" transform=""/><path fill="#bdcccc" stroke="none" d="M 395.144,23.2453 S 392.65,28.6283 385.393,28.4243 C 378.203,28.2243 371.94,20.9173 370.334,18.9893 C 369.233,17.6693 368.482,16.8853 368.017,16.8263 C 368.004,16.9223 367.997,17.0273 368.005,17.1433 C 368.166,19.4723 370.976,25.1723 372.261,26.0563 C 373.546,26.9383 377.69,28.1343 377.56,28.6263 C 377.158,30.1513 373.947,31.2753 374.348,31.6763 C 374.747,32.0753 386.999,36.6263 394.261,25.7343 C 394.789,24.4433 395.144,23.2453 395.144,23.2453 Z" transform=""/><path fill="#688da7" stroke="none" d="M 380.343,22.2417 S 380.876,23.5497 379.793,25.1077 C 379.793,25.1077 380.373,23.6377 380.343,22.2417 Z" transform=""/><path fill="#688da7" stroke="none" d="M 380.901,22.6731 S 381.434,23.9811 380.351,25.5391 C 380.351,25.5391 380.93,24.0691 380.901,22.6731 Z" transform=""/><path fill="#688da7" stroke="none" d="M 381.352,23.0923 S 381.886,24.3993 380.802,25.9583 C 380.802,25.9583 381.382,24.4873 381.352,23.0923 Z" transform=""/><path fill="#304454" stroke="none" d="M 383.564,30.2222 C 383.35,28.8082 382.75,28.8082 382.621,27.6942 C 382.621,27.6942 382.663,27.6162 382.707,27.5222 C 382.707,27.5222 385.963,29.8362 387.034,30.1362 C 387.034,30.1362 387.169,32.8462 389.605,33.5642 C 389.584,33.6242 389.584,33.6802 389.584,33.7482 C 389.584,33.7482 384.105,33.7892 383.564,30.2222 Z" transform=""/><path fill="#4d677a" stroke="none" d="M 383.65,30.0501 C 383.436,28.6361 382.836,28.6361 382.708,27.5231 C 382.708,27.5231 384.036,28.1221 384.979,28.0371 C 384.979,28.0371 386.049,29.6651 387.12,29.9651 C 387.12,29.9651 387.377,32.5351 389.605,33.5641 C 389.606,33.5641 384.191,33.6171 383.65,30.0501 Z" transform=""/><ellipse cx="377.78998755738724" cy="22.742444318044654" rx="0.4259845668564665" ry="0.7078211238588694" fill="#304454" stroke="none" r="NaN" transform=""/></svg>