<svg xmlns="http://www.w3.org/2000/svg" version="1.1" width="400" height="52.17391304347826" viewBox="0 0 400 52.17391304347826"><defs><linearGradient id="r-85d19a960792465282ada0f53e2be165" x1="0" y1="0.0948800277469175" x2="1" y2="0"><stop offset="0%" stop-color="#fdd1b0"/><stop offset="24.44%" stop-color="#f3c2a0"/><stop offset="65.91%" stop-color="#dfa27e"/><stop offset="100%" stop-color="#cc8461"/></linearGradient><linearGradient id="r-b2229ac3c7dc4b4f8cfc7577425e9f93" x1="0" y1="0" x2="1" y2="0.1321852083460825"><stop offset="0%" stop-color="#fdd1b0"/><stop offset="24.44%" stop-color="#f3c2a0"/><stop offset="65.91%" stop-color="#dfa27e"/><stop offset="100%" stop-color="#cc8461"/></linearGradient><radialGradient id="r-b172ce7a169b4098a051be9564f90d15" fx="0.5" fy="0.5"><stop offset="0%" stop-color="#fee6d3"/><stop offset="100%" stop-color="#fdd1b0"/></radialGradient><radialGradient id="r-754bc9087cda47d08c3867c58f62e59d" fx="0.5" fy="0.5"><stop offset="0%" stop-color="#f69896"/><stop offset="43.76%" stop-color="#f9b2a2"/><stop offset="100%" stop-color="#fdd1b0"/></radialGradient><radialGradient id="r-b7ce3e0ed7b94b1a8f40587801bfb8bd" fx="0.5" fy="0.5"><stop offset="0%" stop-color="#fee6d3"/><stop offset="100%" stop-color="#fdd1b0"/></radialGradient><radialGradient id="r-e334e7c4bec14ab187ba7fe9f523c72f" fx="0.5" fy="0.5"><stop offset="0%" stop-color="#fee6d3"/><stop offset="100%" stop-color="#fdd1b0"/></radialGradient><radialGradient id="r-2fa577a8a2524af086a7258280bb5afe" fx="0.5" fy="0.5"><stop offset="0%" stop-color="#fee6d3"/><stop offset="100%" stop-color="#fdd1b0"/></radialGradient><linearGradient id="r-beba618a55a844ad8f0b54c20739b3ca" x1="1" y1="0.1642939659035408" x2="0" y2="0"><stop offset="0%" stop-color="#fdd1b0"/><stop offset="35.75%" stop-color="#f3bf9c"/><stop offset="100%" stop-color="#e19a75"/></linearGradient><radialGradient id="r-797a8e01080744c28f287e69af2063dd" fx="0.5" fy="0.5"><stop offset="0%" stop-color="#fee6d3"/><stop offset="100%" stop-color="#fdd1b0"/></radialGradient><radialGradient id="r-d641502fcd4f44b886d0b8bb7bb95a3c" fx="0.5" fy="0.5"><stop offset="0%" stop-color="#fee6d3"/><stop offset="100%" stop-color="#fdd1b0"/></radialGradient><radialGradient id="r-7d9c07b2b6c94be39790060ff30aec49" fx="0.5" fy="0.5"><stop offset="0%" stop-color="#fee6d3"/><stop offset="100%" stop-color="#fdd1b0"/></radialGradient><radialGradient id="r-ca7d6b9427754e338664d301969f075f" fx="0.5" fy="0.5"><stop offset="0%" stop-color="#fee6d3"/><stop offset="100%" stop-color="#fdd1b0"/></radialGradient><radialGradient id="r-c17ec8a4f2cf4e7a8231ddc0039a6d47" fx="0.5" fy="0.5"><stop offset="0%" stop-color="#fee6d3"/><stop offset="100%" stop-color="#fcc7a3"/></radialGradient><linearGradient id="r-bb3a6ce2b36c4fea870950bc4713d05a" x1="0" y1="0.0948800277469175" x2="1" y2="0"><stop offset="0%" stop-color="#fdd1b0"/><stop offset="24.44%" stop-color="#f3c2a0"/><stop offset="65.91%" stop-color="#dfa27e"/><stop offset="100%" stop-color="#cc8461"/></linearGradient><linearGradient id="r-8980f4990842405080384ee1fa856229" x1="0" y1="0" x2="1" y2="0.1321852083460825"><stop offset="0%" stop-color="#fdd1b0"/><stop offset="24.44%" stop-color="#f3c2a0"/><stop offset="65.91%" stop-color="#dfa27e"/><stop offset="100%" stop-color="#cc8461"/></linearGradient><radialGradient id="r-3c8ecf5d12ff451084b6d064b1f90523" fx="0.5" fy="0.5"><stop offset="0%" stop-color="#fee6d3"/><stop offset="100%" stop-color="#fdd1b0"/></radialGradient><radialGradient id="r-9c225522b8ad4aa99d8f96622b8bf844" fx="0.5" fy="0.5"><stop offset="0%" stop-color="#f69896"/><stop offset="43.76%" stop-color="#f9b2a2"/><stop offset="100%" stop-color="#fdd1b0"/></radialGradient><radialGradient id="r-3f00403379df41a493211ce5fb6eda85" fx="0.5" fy="0.5"><stop offset="0%" stop-color="#fee6d3"/><stop offset="100%" stop-color="#fdd1b0"/></radialGradient><radialGradient id="r-5257fe390bb749c78d6e1b0a4e6edfda" fx="0.5" fy="0.5"><stop offset="0%" stop-color="#fee6d3"/><stop offset="100%" stop-color="#fdd1b0"/></radialGradient><radialGradient id="r-2c3ea341a2b24315bc302e585ef0be53" fx="0.5" fy="0.5"><stop offset="0%" stop-color="#fee6d3"/><stop offset="100%" stop-color="#fdd1b0"/></radialGradient><linearGradient id="r-dee5b16311e64637b652f16b709e7040" x1="1" y1="0.1642939659035408" x2="0" y2="0"><stop offset="0%" stop-color="#fdd1b0"/><stop offset="35.75%" stop-color="#f3bf9c"/><stop offset="100%" stop-color="#e19a75"/></linearGradient><radialGradient id="r-da6da12bc069421ba850154e41eb6ad7" fx="0.5" fy="0.5"><stop offset="0%" stop-color="#fee6d3"/><stop offset="100%" stop-color="#fdd1b0"/></radialGradient><radialGradient id="r-4c2200eac5ab414f8bce495daf7ad664" fx="0.5" fy="0.5"><stop offset="0%" stop-color="#fee6d3"/><stop offset="100%" stop-color="#fdd1b0"/></radialGradient><radialGradient id="r-d4791eccfdb34b439005bad7902d6da0" fx="0.5" fy="0.5"><stop offset="0%" stop-color="#fee6d3"/><stop offset="100%" stop-color="#fdd1b0"/></radialGradient><radialGradient id="r-dfc90b5b53c94f5794a177e912412e6a" fx="0.5" fy="0.5"><stop offset="0%" stop-color="#fee6d3"/><stop offset="100%" stop-color="#fdd1b0"/></radialGradient><radialGradient id="r-c25f630a71a04ce79d018a003706ea12" fx="0.5" fy="0.5"><stop offset="0%" stop-color="#fee6d3"/><stop offset="100%" stop-color="#fcc7a3"/></radialGradient></defs><path fill="url(#r-85d19a960792465282ada0f53e2be165)" stroke="none" d="M 33.7839,42.9694 S 34.1439,42.9194 34.3869,43.0904 C 34.7339,43.3324 35.1429,43.0904 34.8359,42.7174 C 34.5289,42.3424 33.3279,42.1824 33.0369,42.3014 C 32.7449,42.4224 33.7839,42.9694 33.7839,42.9694 Z" opacity="1" fill-opacity="1" style="opacity: 1;fill-opacity: 1" transform=""/><path fill="url(#r-b2229ac3c7dc4b4f8cfc7577425e9f93)" stroke="none" d="M 33.681,43.1075 S 34.04,43.0565 34.283,43.2265 C 34.631,43.4715 35.04,43.2285 34.733,42.8545 C 34.426,42.4815 33.496,42.2185 33.205,42.3385 C 32.913,42.4585 33.681,43.1075 33.681,43.1075 Z" opacity="1" fill-opacity="1" style="opacity: 1;fill-opacity: 1" transform=""/><path fill="url(#r-b172ce7a169b4098a051be9564f90d15)" stroke="none" d="M 32.9466,41.6551 S 33.0656,42.3351 33.7966,42.4251 C 34.2426,42.4811 34.6156,43.1391 34.3016,43.3841 C 34.0216,43.6001 34.0246,43.4131 33.6946,43.1391 C 33.4836,42.9591 33.1876,43.0151 32.8856,43.0451 C 32.5396,43.0791 32.2816,42.7261 31.9516,42.7531 C 31.6246,42.7751 31.1596,43.1181 31.0196,42.9931 C 30.8906,42.8781 30.8346,42.3691 31.9746,41.6641 C 32.0826,41.5971 32.0726,41.3441 32.1996,41.2611 C 32.4976,41.0701 32.9466,41.6551 32.9466,41.6551 Z" opacity="1" fill-opacity="1" style="opacity: 1;fill-opacity: 1" transform=""/><path fill="#d14e3f" stroke="none" d="M 26.5178,33.7319 S 30.2208,35.1229 31.8798,37.3979 C 33.3118,39.3639 33.2928,40.9029 32.9728,41.7949 L 32.7258,41.5209 L 32.4448,41.7319 L 32.2688,41.4189 L 31.9748,41.6639 S 32.3368,39.3789 30.1028,37.3249 C 27.5728,35.0039 25.9888,35.6759 25.9888,35.6759 L 26.5178,33.7319 Z" transform=""/><path fill="#d14e3f" stroke="none" d="M 23.7629,34.1154 S 19.8319,33.6774 17.3209,34.9544 C 15.1539,36.0584 14.4749,37.4384 14.3539,38.3784 L 14.6989,38.2464 L 14.8549,38.5604 L 15.1529,38.3634 L 15.3049,38.7144 S 16.0159,36.5134 18.9389,35.6954 C 22.2459,34.7714 23.3549,36.0884 23.3549,36.0884 L 23.7629,34.1154 Z" transform=""/><path fill="#d14e3f" stroke="none" d="M 22.5668,14.0808 S 22.9078,12.3648 21.9058,11.6478 C 20.9608,10.9728 20.2758,9.6858 20.7868,9.2968 S 21.7378,8.5558 22.1378,8.9528 C 22.5238,9.3298 22.4528,9.9498 23.1888,10.4858 C 23.3898,10.6328 23.6658,10.8078 24.1248,11.0228 C 24.5138,11.2038 24.6698,11.7698 24.3668,12.2138 C 23.9188,12.8718 24.0048,13.8898 23.4968,14.5328 C 22.6178,15.6398 22.5668,14.0808 22.5668,14.0808 Z" transform=""/><path fill="#d14e3f" stroke="none" d="M 25.1979,21.4425 S 22.5329,19.6255 22.3939,16.2065 C 22.3759,15.7495 22.4339,14.8335 22.4949,14.2785 C 22.5069,14.1795 22.1809,13.8675 21.9939,13.5865 C 22.0839,13.6125 22.4029,13.7635 22.6009,13.8925 C 22.6959,13.7995 22.7479,13.6705 22.8419,13.5525 L 23.0109,13.9065 L 23.2389,13.5285 L 23.4559,13.8835 L 23.6439,13.5795 S 23.7609,13.6725 23.8419,13.7785 C 23.9369,13.7315 24.0539,13.7555 24.3469,13.6035 C 23.9829,14.0125 23.8139,14.1975 23.7949,14.2945 C 23.6799,14.8445 23.3339,15.8195 23.5549,16.5805 C 23.7629,17.3065 23.8819,19.3575 26.0999,20.0055 C 26.7919,20.2075 25.1979,21.4425 25.1979,21.4425 Z" transform=""/><path fill="#d14e3f" stroke="none" d="M 20.9099,10.0868 S 20.4209,9.70883 20.5209,9.42883 C 20.6239,9.14683 21.3519,9.12183 21.4649,9.59083" transform=""/><path fill="#d14e3f" stroke="none" d="M 21.1088,9.87488 S 20.6188,9.49788 20.7198,9.21688 C 20.8208,8.93488 21.5508,8.90988 21.6628,9.37888" transform=""/><path fill="#d14e3f" stroke="none" d="M 21.382,9.67509 S 20.893,9.29709 20.993,9.01709 C 21.094,8.73509 21.824,8.70809 21.937,9.18109" transform=""/><path fill="#d14e3f" stroke="none" d="M 21.6335,9.55696 S 21.1435,9.17996 21.2435,8.89796 C 21.3465,8.61696 22.0765,8.59196 22.1875,9.06096" transform=""/><path fill="#d14e3f" stroke="none" d="M 34.5978,18.7562 S 35.5488,17.2872 36.7668,17.4702 C 37.9138,17.6412 39.3038,17.1962 39.2058,16.5612 C 39.1088,15.9262 39.0388,15.3662 38.4758,15.3722 C 37.9368,15.3762 37.5538,15.8702 36.6538,15.7442 C 36.4088,15.7092 36.0878,15.6432 35.6098,15.4772 C 35.2028,15.3372 34.6968,15.6342 34.6048,16.1642 C 34.4688,16.9482 33.6978,17.6202 33.6158,18.4342 C 33.4758,19.8402 34.5978,18.7562 34.5978,18.7562 Z" transform=""/><path fill="#d14e3f" stroke="none" d="M 27.5854,22.2108 S 30.7624,22.7608 33.2424,20.4038 C 33.5744,20.0868 34.1704,19.3898 34.5124,18.9478 C 34.5744,18.8698 35.0244,18.8738 35.3544,18.8008 C 35.2714,18.7558 34.9384,18.6438 34.7044,18.5978 C 34.7024,18.4648 34.7544,18.3358 34.7684,18.1868 L 34.4014,18.3208 L 34.5004,17.8918 L 34.0964,17.9958 L 34.1744,17.6448 S 34.0244,17.6328 33.8924,17.6508 C 33.8584,17.5528 33.7564,17.4868 33.6524,17.1758 C 33.6284,17.7228 33.6224,17.9718 33.5674,18.0548 C 33.2654,18.5298 32.8374,19.4698 32.1504,19.8648 C 31.4954,20.2398 29.9814,21.6298 27.9384,20.5518 C 27.2994,20.2148 27.5854,22.2108 27.5854,22.2108 Z" transform=""/><path fill="#d14e3f" stroke="none" d="M 38.567,17.0424 S 39.181,17.1114 39.304,16.8404 C 39.428,16.5684 38.922,16.0414 38.514,16.3014" transform=""/><path fill="#d14e3f" stroke="none" d="M 38.5727,16.7523 S 39.1877,16.8243 39.3097,16.5513 C 39.4337,16.2783 38.9267,15.7543 38.5197,16.0123" transform=""/><path fill="#d14e3f" stroke="none" d="M 38.5158,16.4183 S 39.1298,16.4903 39.2528,16.2163 C 39.3758,15.9443 38.8698,15.4173 38.4618,15.6783" transform=""/><path fill="#d14e3f" stroke="none" d="M 38.4176,16.1586 S 39.0316,16.2286 39.1546,15.9566 C 39.2776,15.6846 38.7716,15.1576 38.3626,15.4176" transform=""/><path fill="#d14e3f" stroke="none" d="M 23.7495,25.7526 S 22.6765,20.7186 24.9965,19.5126 C 26.6855,18.6346 29.5785,19.4316 29.4665,22.0586 C 29.3465,24.8436 25.7095,26.5556 25.7095,26.5556 L 23.7495,25.7526 Z" transform=""/><path fill="url(#r-754bc9087cda47d08c3867c58f62e59d)" stroke="none" d="M 29.2271,20.7445 C 28.5831,19.3465 26.7851,18.8945 25.4351,19.3305 C 25.3081,19.5725 25.2351,19.8405 25.2351,20.1245 C 25.2351,21.1455 26.1561,21.9725 27.2911,21.9725 C 28.1851,21.9725 28.9421,21.4615 29.2271,20.7445 Z" opacity="1" fill-opacity="1" style="opacity: 1;fill-opacity: 1" transform=""/><path fill="url(#r-b7ce3e0ed7b94b1a8f40587801bfb8bd)" stroke="none" d="M 28.9287,29.3396 C 29.0137,28.5566 28.5607,27.7046 28.2297,27.4606 C 27.1737,26.6826 27.4787,25.2646 28.3207,24.5316 C 29.2637,23.7126 30.4337,23.8626 30.9807,24.0276 C 32.9107,24.6056 33.7097,27.2346 33.2277,29.0266 C 32.7517,30.8046 31.2437,32.6166 29.6027,31.5906 C 28.8057,31.0916 28.7947,30.5626 28.9287,29.3396 Z" opacity="1" fill-opacity="1" style="opacity: 1;fill-opacity: 1" transform=""/><path fill="#e2bda1" stroke="none" d="M 28.3337,27.0508 C 28.1107,26.6358 28.1847,25.0788 29.8037,24.6898 C 31.5507,24.2728 33.0987,26.1778 33.1627,27.4488 C 33.2467,29.1438 32.3577,30.9748 31.0547,31.4688 C 30.5687,31.6518 31.4107,30.1068 30.1977,30.1188 C 29.2307,30.1318 29.2397,29.1408 29.5847,28.4698 C 29.9297,27.7998 28.7107,27.7598 28.3337,27.0508 Z" transform=""/><path fill="#fcc7a3" stroke="none" d="M 31.1537,28.1435 C 30.5947,27.6175 29.8757,27.8065 29.4987,27.9645 C 29.6407,28.0945 29.6997,28.2475 29.5837,28.4705 C 29.2397,29.1415 29.2307,30.1325 30.1977,30.1195 C 30.6587,30.1155 30.8227,30.3365 30.8757,30.6005 C 31.3727,29.9275 31.7587,28.7125 31.1537,28.1435 Z" transform=""/><path fill="#db9e75" stroke="none" d="M 30.9413,28.4002 C 30.5183,28.0032 29.9953,28.0522 29.6333,28.1632 C 29.6583,28.2512 29.6473,28.3502 29.5843,28.4702 C 29.5763,28.4872 29.5673,28.5042 29.5593,28.5242 C 29.5553,28.5762 29.5393,28.6342 29.5063,28.7002 C 29.4803,28.7512 29.4563,28.8022 29.4353,28.8552 C 29.2673,29.4662 29.4053,30.1312 30.1973,30.1192 C 30.5603,30.1162 30.7403,30.2522 30.8243,30.4402 C 31.2043,29.8062 31.4363,28.8662 30.9413,28.4002 Z" transform=""/><path fill="url(#r-e334e7c4bec14ab187ba7fe9f523c72f)" stroke="none" d="M 18.0677,32.286 C 17.5987,31.655 17.5577,30.69 17.7207,30.312 C 18.2377,29.109 17.2597,28.038 16.1617,27.832 C 14.9327,27.601 14.0007,28.323 13.6117,28.742 C 12.2387,30.216 12.8787,32.886 14.1997,34.19 C 15.5107,35.484 17.7267,36.285 18.6237,34.569 C 19.0597,33.737 18.8007,33.275 18.0677,32.286 Z" opacity="1" fill-opacity="1" style="opacity: 1;fill-opacity: 1" transform=""/><path fill="#e2bda1" stroke="none" d="M 17.4237,30.0137 C 17.4057,29.5397 16.5547,28.2347 14.9617,28.7177 C 13.2437,29.2397 12.8717,31.6667 13.4597,32.7957 C 14.2437,34.3007 15.9367,35.4307 17.3107,35.1987 C 17.8207,35.1107 16.3127,34.2027 17.3677,33.6007 C 18.2067,33.1237 17.6987,32.2717 17.0617,31.8697 C 16.4247,31.4647 17.4567,30.8127 17.4237,30.0137 Z" transform=""/><path fill="#fcc7a3" stroke="none" d="M 15.5439,32.379 C 15.7599,31.642 16.4759,31.443 16.8799,31.388 C 16.8229,31.573 16.8509,31.734 17.0619,31.87 C 17.6989,32.272 18.2069,33.123 17.3679,33.601 C 16.9659,33.83 16.9359,34.104 17.0239,34.359 C 16.2549,34.03 15.3069,33.176 15.5439,32.379 Z" transform=""/><path fill="#db9e75" stroke="none" d="M 15.8558,32.4936 C 16.0208,31.9376 16.4958,31.7166 16.8648,31.6276 C 16.8868,31.7166 16.9478,31.7956 17.0618,31.8696 C 17.0778,31.8786 17.0948,31.8886 17.1098,31.9016 C 17.1398,31.9456 17.1828,31.9876 17.2458,32.0276 C 17.2928,32.0576 17.3398,32.0906 17.3858,32.1246 C 17.8368,32.5676 18.0558,33.2096 17.3668,33.6016 C 17.0508,33.7816 16.9658,33.9896 16.9868,34.1956 C 16.3388,33.8406 15.6648,33.1476 15.8558,32.4936 Z" transform=""/><path fill="url(#r-2fa577a8a2524af086a7258280bb5afe)" stroke="none" d="M 30.2321,29.3227 C 31.2111,32.9297 29.0801,36.6487 25.4731,37.6277 C 21.8641,38.6057 18.1471,36.4757 17.1681,32.8667 C 16.1891,29.2587 18.3201,25.5427 21.9271,24.5627 C 25.5361,23.5837 29.2531,25.7147 30.2321,29.3227 Z" opacity="1" fill-opacity="1" style="opacity: 1;fill-opacity: 1" transform=""/><path fill="#d14e3f" stroke="none" d="M 22.2615,26.1769 C 23.9225,24.2819 26.6245,24.9929 26.6245,24.9929 C 25.2105,24.3149 23.5595,24.1209 21.9275,24.5639 C 20.2965,25.0059 18.9695,26.0079 18.0925,27.3079 C 18.0925,27.3069 19.9755,25.3439 22.2615,26.1769 Z" transform=""/><path fill="#eeb490" stroke="none" d="M 24.9139,34.0759 C 24.9589,34.2419 24.7989,34.4259 24.5579,34.4929 C 24.3169,34.5569 24.0859,34.4769 24.0419,34.3139 C 23.9969,34.1509 24.1569,33.9649 24.3969,33.8989 C 24.6379,33.8339 24.8709,33.9139 24.9139,34.0759 Z" transform=""/><path fill="#fee6d3" stroke="none" d="M 24.1134,36.746 C 22.9324,37.416 21.1694,37.118 21.2914,36.216 C 21.4124,35.311 22.9664,35.141 23.6974,35.418 C 24.0574,35.554 24.4614,35.449 24.4614,35.449 S 24.8664,35.359 25.1244,35.071 C 25.6474,34.49 27.1074,33.931 27.6304,34.677 C 28.1514,35.426 26.7184,36.498 25.3634,36.442 C 25.0804,36.431 24.8864,36.448 24.7204,36.492 C 24.7204,36.493 24.3584,36.606 24.1134,36.746 Z" transform=""/><path fill="#eeb490" stroke="none" d="M 24.063,36.5384 C 22.883,37.2094 21.118,36.9124 21.24,36.0084 S 22.916,34.9334 23.647,35.2114 C 24.008,35.3484 24.41,35.2424 24.41,35.2424 S 24.817,35.1524 25.075,34.8654 C 25.597,34.2834 27.056,33.7244 27.579,34.4714 C 28.1,35.2184 26.668,36.2904 25.313,36.2364 C 25.031,36.2244 24.835,36.2414 24.67,36.2864 C 24.67,36.2864 24.308,36.3994 24.063,36.5384 Z" transform=""/><path fill="#7a3440" stroke="none" d="M 24.0835,36.6201 C 22.9025,37.2911 21.1385,36.9941 21.2605,36.0891 C 21.3825,35.1851 22.9375,35.0141 23.6665,35.2921 C 24.0265,35.4301 24.4305,35.3241 24.4305,35.3241 S 24.8355,35.2351 25.0935,34.9471 C 25.6165,34.3651 27.0765,33.8061 27.5985,34.5541 C 28.1215,35.3011 26.6885,36.3721 25.3325,36.3171 C 25.0495,36.3061 24.8555,36.3231 24.6895,36.3671 C 24.6895,36.3671 24.3275,36.4811 24.0835,36.6201 Z" transform=""/><path fill="#f16253" stroke="none" d="M 24.619,36.1163 C 23.261,35.8093 22.48,36.5803 22.48,36.5803 C 22.735,36.7993 23.441,36.6043 24.058,36.5613 C 24.111,36.5333 24.233,36.4963 24.285,36.4673 C 24.592,36.2913 24.899,36.2493 25.436,36.2713 C 25.519,36.2743 25.601,36.2733 25.685,36.2683 C 26.282,35.9493 26.828,35.5013 26.828,35.5013 C 25.987,35.1163 24.619,36.1163 24.619,36.1163 Z" transform=""/><path fill="#fffdfd" stroke="none" d="M 25.9888,34.7951 C 26.0338,34.6991 26.0318,34.5081 26.0078,34.3581 C 25.6358,34.5021 25.2958,34.7221 25.0928,34.9471 C 24.8348,35.2351 24.4308,35.3241 24.4308,35.3241 S 24.0258,35.4301 23.6668,35.2921 C 23.3798,35.1851 22.9698,35.1451 22.5668,35.1901 C 22.5948,35.3571 22.6468,35.5241 22.7468,35.5811 C 23.3298,35.9041 25.6978,35.4021 25.9888,34.7951 Z" transform=""/><path fill="#fffdfd" stroke="none" d="M 27.006,35.1438 C 27.019,35.3818 26.716,35.5828 25.945,35.9188 C 25.456,36.1318 24.096,36.4888 23.491,36.5148 C 22.857,36.5388 22.263,36.6778 22.062,36.3998 C 21.83,36.0848 21.556,36.1638 21.48,36.3548 C 21.468,36.5148 21.564,36.6668 21.73,36.8038 C 22.314,37.0818 23.321,37.0538 24.084,36.6198 C 24.328,36.4818 24.69,36.3668 24.69,36.3668 C 24.856,36.3228 25.05,36.3058 25.333,36.3178 C 26.127,36.3488 26.948,35.9938 27.386,35.5438 C 27.406,35.5238 27.423,35.5038 27.44,35.4828 C 27.539,35.2788 27.571,35.0848 27.525,34.9218 C 27.434,34.6848 26.98,34.6278 27.006,35.1438 Z" transform=""/><path fill="#d14e3f" stroke="none" d="M 24.642,26.6968 S 25.925,26.2708 26.679,27.4858 C 26.679,27.4858 26.359,27.2558 26.212,27.2408 C 26.212,27.2408 26.519,27.4728 26.525,27.9088 C 26.525,27.9088 26.308,27.5618 26.058,27.4228 C 26.058,27.4228 26.355,27.7708 26.302,28.2748 C 26.302,28.2748 25.728,26.8878 24.642,26.6968 Z" transform=""/><path fill="#d14e3f" stroke="none" d="M 24.642,26.5935 S 25.925,26.1655 26.679,27.3835 C 26.679,27.3835 26.359,27.1545 26.212,27.1375 C 26.212,27.1375 26.519,27.3715 26.525,27.8065 C 26.525,27.8065 26.308,27.4585 26.058,27.3205 C 26.058,27.3205 26.355,27.6685 26.302,28.1725 C 26.302,28.1725 25.728,26.7855 24.642,26.5935 Z" transform=""/><path fill="#d14e3f" stroke="none" d="M 21.3759,27.8373 S 20.0549,27.5533 19.4369,28.8453 C 19.4369,28.8453 19.7299,28.5833 19.8749,28.5503 C 19.8749,28.5503 19.5949,28.8153 19.6379,29.2493 C 19.6379,29.2493 19.8159,28.8783 20.0489,28.7143 C 20.0489,28.7143 19.7919,29.0933 19.8989,29.5863 C 19.8989,29.5873 20.3179,28.1473 21.3759,27.8373 Z" transform=""/><path fill="#d14e3f" stroke="none" d="M 21.3646,27.7348 S 20.0436,27.4508 19.4256,28.7428 C 19.4256,28.7428 19.7186,28.4808 19.8636,28.4468 C 19.8636,28.4468 19.5836,28.7128 19.6266,29.1468 C 19.6266,29.1468 19.8046,28.7758 20.0386,28.6118 C 20.0386,28.6118 19.7806,28.9908 19.8886,29.4858 C 19.8876,29.4858 20.3056,28.0448 21.3646,27.7348 Z" transform=""/><path fill="none" stroke="#d14e3f" d="M 26.8735,20.2442 S 25.7265,19.0522 25.3735,16.9362 C 25.0895,15.2292 26.0565,13.6012 27.4525,12.9142 C 30.3435,11.4962 32.7835,15.1682 29.8525,16.8712" style="stroke-linecap: round;stroke-linejoin: round;stroke-width: 1.772662622413871px" stroke-width="1.772662622413871" stroke-linecap="round" stroke-linejoin="round" transform=""/><path fill="url(#r-beba618a55a844ad8f0b54c20739b3ca)" stroke="none" d="M 15.5774,40.2106 S 16.2304,39.4256 15.8624,38.7896 C 15.6584,38.4376 15.2284,38.5406 15.0364,38.2346 C 14.8234,37.8966 14.4344,37.7546 14.1994,37.8136 C 13.7124,37.9346 13.2824,38.7186 13.2824,38.7186 L 15.5774,40.2106 Z" opacity="1" fill-opacity="1" style="opacity: 1;fill-opacity: 1" transform=""/><path fill="url(#r-797a8e01080744c28f287e69af2063dd)" stroke="none" d="M 13.5617,39.54 C 13.3727,39.663 12.9487,39.505 12.9687,39.129 C 12.9817,38.876 13.8957,37.785 14.3257,38.065 C 14.5427,38.206 14.2167,39.107 13.5617,39.54 Z" opacity="1" fill-opacity="1" style="opacity: 1;fill-opacity: 1" transform=""/><path fill="url(#r-d641502fcd4f44b886d0b8bb7bb95a3c)" stroke="none" d="M 14.0803,39.9939 C 13.8923,40.1169 13.4683,39.9579 13.4883,39.5829 C 13.5013,39.3299 14.4143,38.2389 14.8443,38.5189 C 15.0623,38.6609 14.7353,39.5609 14.0803,39.9939 Z" opacity="1" fill-opacity="1" style="opacity: 1;fill-opacity: 1" transform=""/><path fill="url(#r-7d9c07b2b6c94be39790060ff30aec49)" stroke="none" d="M 14.6427,40.343 C 14.4547,40.468 14.0297,40.309 14.0497,39.933 C 14.0627,39.682 14.9767,38.589 15.4067,38.869 C 15.6237,39.011 15.2977,39.912 14.6427,40.343 Z" opacity="1" fill-opacity="1" style="opacity: 1;fill-opacity: 1" transform=""/><path fill="url(#r-ca7d6b9427754e338664d301969f075f)" stroke="none" d="M 15.2047,40.6201 C 15.0167,40.7451 14.5917,40.5861 14.6107,40.2101 C 14.6237,39.9571 15.4137,38.9761 15.8437,39.2551 C 16.0607,39.3971 15.8597,40.1891 15.2047,40.6201 Z" opacity="1" fill-opacity="1" style="opacity: 1;fill-opacity: 1" transform=""/><path fill="url(#r-c17ec8a4f2cf4e7a8231ddc0039a6d47)" stroke="none" d="M 13.8662,38.439 C 13.7032,38.281 13.7672,37.832 14.1372,37.769 C 14.3862,37.727 15.3662,38.317 15.1862,38.799 C 15.0962,39.041 14.4292,38.984 13.8662,38.439 Z" opacity="1" fill-opacity="1" style="opacity: 1;fill-opacity: 1" transform=""/><ellipse cx="20.70578006367934" cy="32.750328362028064" rx="0.46167839461618154" ry="0.7665685479751273" fill="#304454" stroke="none" transform="rotate(-12.9203 20.705780286121716 32.750327683831735)" r="NaN"/><ellipse cx="26.482623527020177" cy="31.555524025262685" rx="0.46167839461618154" ry="0.7665685479751273" fill="#304454" stroke="none" transform="rotate(-12.9203 26.482623491003963 31.555523108489197)" r="NaN"/><path fill="url(#r-bb3a6ce2b36c4fea870950bc4713d05a)" stroke="none" d="M 77.2622,42.9694 S 77.6222,42.9194 77.8652,43.0904 C 78.2122,43.3324 78.6212,43.0904 78.3142,42.7174 C 78.0072,42.3424 76.8062,42.1824 76.5152,42.3014 C 76.2232,42.4224 77.2622,42.9694 77.2622,42.9694 Z" opacity="1" fill-opacity="1" style="opacity: 1;fill-opacity: 1" transform=""/><path fill="url(#r-8980f4990842405080384ee1fa856229)" stroke="none" d="M 77.1592,43.1075 S 77.5182,43.0565 77.7612,43.2265 C 78.1092,43.4715 78.5182,43.2285 78.2112,42.8545 C 77.9042,42.4815 76.9742,42.2185 76.6832,42.3385 C 76.3912,42.4585 77.1592,43.1075 77.1592,43.1075 Z" opacity="1" fill-opacity="1" style="opacity: 1;fill-opacity: 1" transform=""/><path fill="url(#r-3c8ecf5d12ff451084b6d064b1f90523)" stroke="none" d="M 76.4248,41.6551 S 76.5438,42.3351 77.2748,42.4251 C 77.7208,42.4811 78.0938,43.1391 77.7798,43.3841 C 77.4998,43.6001 77.5028,43.4131 77.1728,43.1391 C 76.9618,42.9591 76.6658,43.0151 76.3638,43.0451 C 76.0178,43.0791 75.7598,42.7261 75.4298,42.7531 C 75.1028,42.7751 74.6378,43.1181 74.4978,42.9931 C 74.3688,42.8781 74.3128,42.3691 75.4528,41.6641 C 75.5608,41.5971 75.5508,41.3441 75.6778,41.2611 C 75.9758,41.0701 76.4248,41.6551 76.4248,41.6551 Z" opacity="1" fill-opacity="1" style="opacity: 1;fill-opacity: 1" transform=""/><path fill="#d14e3f" stroke="none" d="M 69.9961,33.7319 S 73.6991,35.1229 75.3581,37.3979 C 76.7901,39.3639 76.7711,40.9029 76.4511,41.7949 L 76.2041,41.5209 L 75.9231,41.7319 L 75.7471,41.4189 L 75.4531,41.6639 S 75.8151,39.3789 73.5811,37.3249 C 71.0511,35.0039 69.4671,35.6759 69.4671,35.6759 L 69.9961,33.7319 Z" transform=""/><path fill="#d14e3f" stroke="none" d="M 67.2412,34.1154 S 63.3102,33.6774 60.7992,34.9544 C 58.6322,36.0584 57.9532,37.4384 57.8322,38.3784 L 58.1772,38.2464 L 58.3332,38.5604 L 58.6312,38.3634 L 58.7832,38.7144 S 59.4942,36.5134 62.4172,35.6954 C 65.7242,34.7714 66.8332,36.0884 66.8332,36.0884 L 67.2412,34.1154 Z" transform=""/><path fill="#d14e3f" stroke="none" d="M 66.0451,14.0808 S 66.3861,12.3648 65.3841,11.6478 C 64.4391,10.9728 63.7541,9.6858 64.2651,9.2968 C 64.7761,8.9078 65.2161,8.5558 65.6161,8.9528 C 66.0021,9.3298 65.9311,9.9498 66.6671,10.4858 C 66.8681,10.6328 67.1441,10.8078 67.6031,11.0228 C 67.9921,11.2038 68.1481,11.7698 67.8451,12.2138 C 67.3971,12.8718 67.4831,13.8898 66.9751,14.5328 C 66.0961,15.6398 66.0451,14.0808 66.0451,14.0808 Z" transform=""/><path fill="#d14e3f" stroke="none" d="M 68.6762,21.4425 S 66.0112,19.6255 65.8722,16.2065 C 65.8542,15.7495 65.9122,14.8335 65.9732,14.2785 C 65.9852,14.1795 65.6592,13.8675 65.4722,13.5865 C 65.5622,13.6125 65.8812,13.7635 66.0792,13.8925 C 66.1742,13.7995 66.2262,13.6705 66.3202,13.5525 L 66.4892,13.9065 L 66.7172,13.5285 L 66.9342,13.8835 L 67.1222,13.5795 S 67.2392,13.6725 67.3202,13.7785 C 67.4152,13.7315 67.5322,13.7555 67.8252,13.6035 C 67.4612,14.0125 67.2922,14.1975 67.2732,14.2945 C 67.1582,14.8445 66.8122,15.8195 67.0332,16.5805 C 67.2412,17.3065 67.3602,19.3575 69.5782,20.0055 C 70.2702,20.2075 68.6762,21.4425 68.6762,21.4425 Z" transform=""/><path fill="#d14e3f" stroke="none" d="M 64.3882,10.0868 S 63.8992,9.70883 63.9992,9.42883 C 64.1022,9.14683 64.8302,9.12183 64.9432,9.59083" transform=""/><path fill="#d14e3f" stroke="none" d="M 64.5871,9.87488 S 64.0971,9.49788 64.1981,9.21688 C 64.2991,8.93488 65.0291,8.90988 65.1411,9.37888" transform=""/><path fill="#d14e3f" stroke="none" d="M 64.8603,9.67509 S 64.3713,9.29709 64.4713,9.01709 C 64.5723,8.73509 65.3023,8.70809 65.4153,9.18109" transform=""/><path fill="#d14e3f" stroke="none" d="M 65.1117,9.55696 S 64.6217,9.17996 64.7217,8.89796 C 64.8247,8.61696 65.5547,8.59196 65.6657,9.06096" transform=""/><path fill="#d14e3f" stroke="none" d="M 78.0761,18.7562 S 79.0271,17.2872 80.2451,17.4702 C 81.3921,17.6412 82.7821,17.1962 82.6841,16.5612 C 82.5871,15.9262 82.5171,15.3662 81.9541,15.3722 C 81.4151,15.3762 81.0321,15.8702 80.1321,15.7442 C 79.8871,15.7092 79.5661,15.6432 79.0881,15.4772 C 78.6811,15.3372 78.1751,15.6342 78.0831,16.1642 C 77.9471,16.9482 77.1761,17.6202 77.0941,18.4342 C 76.9541,19.8402 78.0761,18.7562 78.0761,18.7562 Z" transform=""/><path fill="#d14e3f" stroke="none" d="M 71.0636,22.2108 S 74.2406,22.7608 76.7206,20.4038 C 77.0526,20.0868 77.6486,19.3898 77.9906,18.9478 C 78.0526,18.8698 78.5026,18.8738 78.8326,18.8008 C 78.7496,18.7558 78.4166,18.6438 78.1826,18.5978 C 78.1806,18.4648 78.2326,18.3358 78.2466,18.1868 L 77.8796,18.3208 L 77.9786,17.8918 L 77.5746,17.9958 L 77.6526,17.6448 S 77.5026,17.6328 77.3706,17.6508 C 77.3366,17.5528 77.2346,17.4868 77.1306,17.1758 C 77.1066,17.7228 77.1006,17.9718 77.0456,18.0548 C 76.7436,18.5298 76.3156,19.4698 75.6286,19.8648 C 74.9736,20.2398 73.4596,21.6298 71.4166,20.5518 C 70.7776,20.2148 71.0636,22.2108 71.0636,22.2108 Z" transform=""/><path fill="#d14e3f" stroke="none" d="M 82.0453,17.0424 S 82.6593,17.1114 82.7823,16.8404 C 82.9063,16.5684 82.4003,16.0414 81.9923,16.3014" transform=""/><path fill="#d14e3f" stroke="none" d="M 82.051,16.7523 S 82.666,16.8243 82.788,16.5513 C 82.912,16.2783 82.405,15.7543 81.998,16.0123" transform=""/><path fill="#d14e3f" stroke="none" d="M 81.9941,16.4183 S 82.6081,16.4903 82.7311,16.2163 C 82.8541,15.9443 82.3481,15.4173 81.9401,15.6783" transform=""/><path fill="#d14e3f" stroke="none" d="M 81.8959,16.1586 S 82.5099,16.2286 82.6329,15.9566 C 82.7559,15.6846 82.2499,15.1576 81.8409,15.4176" transform=""/><path fill="#d14e3f" stroke="none" d="M 67.2277,25.7526 S 66.1547,20.7186 68.4747,19.5126 C 70.1637,18.6346 73.0567,19.4316 72.9447,22.0586 C 72.8247,24.8436 69.1877,26.5556 69.1877,26.5556 L 67.2277,25.7526 Z" transform=""/><path fill="url(#r-9c225522b8ad4aa99d8f96622b8bf844)" stroke="none" d="M 72.7053,20.7445 C 72.0613,19.3465 70.2633,18.8945 68.9133,19.3305 C 68.7863,19.5725 68.7133,19.8405 68.7133,20.1245 C 68.7133,21.1455 69.6343,21.9725 70.7693,21.9725 C 71.6633,21.9725 72.4203,21.4615 72.7053,20.7445 Z" opacity="1" fill-opacity="1" style="opacity: 1;fill-opacity: 1" transform=""/><path fill="url(#r-3f00403379df41a493211ce5fb6eda85)" stroke="none" d="M 72.407,29.3396 C 72.492,28.5566 72.039,27.7046 71.708,27.4606 C 70.652,26.6826 70.957,25.2646 71.799,24.5316 C 72.742,23.7126 73.912,23.8626 74.459,24.0276 C 76.389,24.6056 77.188,27.2346 76.706,29.0266 C 76.23,30.8046 74.722,32.6166 73.081,31.5906 C 72.284,31.0916 72.273,30.5626 72.407,29.3396 Z" opacity="1" fill-opacity="1" style="opacity: 1;fill-opacity: 1" transform=""/><path fill="#e2bda1" stroke="none" d="M 71.8119,27.0508 C 71.5889,26.6358 71.6629,25.0788 73.2819,24.6898 C 75.0289,24.2728 76.5769,26.1778 76.6409,27.4488 C 76.7249,29.1438 75.8359,30.9748 74.5329,31.4688 C 74.0469,31.6518 74.8889,30.1068 73.6759,30.1188 C 72.7089,30.1318 72.7179,29.1408 73.0629,28.4698 C 73.4079,27.7998 72.1889,27.7598 71.8119,27.0508 Z" transform=""/><path fill="#fcc7a3" stroke="none" d="M 74.632,28.1435 C 74.073,27.6175 73.354,27.8065 72.977,27.9645 C 73.119,28.0945 73.178,28.2475 73.062,28.4705 C 72.718,29.1415 72.709,30.1325 73.676,30.1195 C 74.137,30.1155 74.301,30.3365 74.354,30.6005 C 74.851,29.9275 75.237,28.7125 74.632,28.1435 Z" transform=""/><path fill="#db9e75" stroke="none" d="M 74.4196,28.4002 C 73.9966,28.0032 73.4736,28.0522 73.1116,28.1632 C 73.1366,28.2512 73.1256,28.3502 73.0626,28.4702 C 73.0546,28.4872 73.0456,28.5042 73.0376,28.5242 C 73.0336,28.5762 73.0176,28.6342 72.9846,28.7002 C 72.9586,28.7512 72.9346,28.8022 72.9136,28.8552 C 72.7456,29.4662 72.8836,30.1312 73.6756,30.1192 C 74.0386,30.1162 74.2186,30.2522 74.3026,30.4402 C 74.6826,29.8062 74.9146,28.8662 74.4196,28.4002 Z" transform=""/><path fill="url(#r-5257fe390bb749c78d6e1b0a4e6edfda)" stroke="none" d="M 61.546,32.286 C 61.077,31.655 61.036,30.69 61.199,30.312 C 61.716,29.109 60.738,28.038 59.64,27.832 C 58.411,27.601 57.479,28.323 57.09,28.742 C 55.717,30.216 56.357,32.886 57.678,34.19 C 58.989,35.484 61.205,36.285 62.102,34.569 C 62.538,33.737 62.279,33.275 61.546,32.286 Z" opacity="1" fill-opacity="1" style="opacity: 1;fill-opacity: 1" transform=""/><path fill="#e2bda1" stroke="none" d="M 60.9019,30.0137 C 60.8839,29.5397 60.0329,28.2347 58.4399,28.7177 C 56.7219,29.2397 56.3499,31.6667 56.9379,32.7957 C 57.7219,34.3007 59.4149,35.4307 60.7889,35.1987 C 61.2989,35.1107 59.7909,34.2027 60.8459,33.6007 C 61.6849,33.1237 61.1769,32.2717 60.5399,31.8697 C 59.9029,31.4647 60.9349,30.8127 60.9019,30.0137 Z" transform=""/><path fill="#fcc7a3" stroke="none" d="M 59.0222,32.379 C 59.2382,31.642 59.9542,31.443 60.3582,31.388 C 60.3012,31.573 60.3292,31.734 60.5402,31.87 C 61.1772,32.272 61.6852,33.123 60.8462,33.601 C 60.4442,33.83 60.4142,34.104 60.5022,34.359 C 59.7332,34.03 58.7852,33.176 59.0222,32.379 Z" transform=""/><path fill="#db9e75" stroke="none" d="M 59.334,32.4936 C 59.499,31.9376 59.974,31.7166 60.343,31.6276 C 60.365,31.7166 60.426,31.7956 60.54,31.8696 C 60.556,31.8786 60.573,31.8886 60.588,31.9016 C 60.618,31.9456 60.661,31.9876 60.724,32.0276 C 60.771,32.0576 60.818,32.0906 60.864,32.1246 C 61.315,32.5676 61.534,33.2096 60.845,33.6016 C 60.529,33.7816 60.444,33.9896 60.465,34.1956 C 59.817,33.8406 59.143,33.1476 59.334,32.4936 Z" transform=""/><path fill="url(#r-2c3ea341a2b24315bc302e585ef0be53)" stroke="none" d="M 73.7103,29.3227 C 74.6893,32.9297 72.5583,36.6487 68.9513,37.6277 C 65.3423,38.6057 61.6253,36.4757 60.6463,32.8667 C 59.6673,29.2587 61.7983,25.5427 65.4053,24.5627 C 69.0143,23.5837 72.7313,25.7147 73.7103,29.3227 Z" opacity="1" fill-opacity="1" style="opacity: 1;fill-opacity: 1" transform=""/><path fill="#d14e3f" stroke="none" d="M 65.7398,26.1769 C 67.4008,24.2819 70.1028,24.9929 70.1028,24.9929 C 68.6888,24.3149 67.0378,24.1209 65.4058,24.5639 C 63.7748,25.0059 62.4478,26.0079 61.5708,27.3079 C 61.5708,27.3069 63.4538,25.3439 65.7398,26.1769 Z" transform=""/><path fill="#eeb490" stroke="none" d="M 68.3921,34.0759 C 68.4371,34.2419 68.2771,34.4259 68.0361,34.4929 C 67.7951,34.5569 67.5641,34.4769 67.5201,34.3139 C 67.4751,34.1509 67.6351,33.9649 67.8751,33.8989 C 68.1161,33.8339 68.3491,33.9139 68.3921,34.0759 Z" transform=""/><path fill="#fee6d3" stroke="none" d="M 67.5917,36.746 C 66.4107,37.416 64.6477,37.118 64.7697,36.216 C 64.8907,35.311 66.4447,35.141 67.1757,35.418 C 67.5357,35.554 67.9397,35.449 67.9397,35.449 S 68.3447,35.359 68.6027,35.071 C 69.1257,34.49 70.5857,33.931 71.1087,34.677 C 71.6297,35.426 70.1967,36.498 68.8417,36.442 C 68.5587,36.431 68.3647,36.448 68.1987,36.492 C 68.1987,36.493 67.8367,36.606 67.5917,36.746 Z" transform=""/><path fill="#eeb490" stroke="none" d="M 67.5413,36.5384 C 66.3613,37.2094 64.5963,36.9124 64.7183,36.0084 S 66.3943,34.9334 67.1253,35.2114 C 67.4863,35.3484 67.8883,35.2424 67.8883,35.2424 S 68.2953,35.1524 68.5533,34.8654 C 69.0753,34.2834 70.5343,33.7244 71.0573,34.4714 C 71.5783,35.2184 70.1463,36.2904 68.7913,36.2364 C 68.5093,36.2244 68.3133,36.2414 68.1483,36.2864 C 68.1483,36.2864 67.7863,36.3994 67.5413,36.5384 Z" transform=""/><path fill="#7a3440" stroke="none" d="M 67.5617,36.6201 C 66.3807,37.2911 64.6167,36.9941 64.7387,36.0891 C 64.8607,35.1851 66.4157,35.0141 67.1447,35.2921 C 67.5047,35.4301 67.9087,35.3241 67.9087,35.3241 S 68.3137,35.2351 68.5717,34.9471 C 69.0947,34.3651 70.5547,33.8061 71.0767,34.5541 C 71.5997,35.3011 70.1667,36.3721 68.8107,36.3171 C 68.5277,36.3061 68.3337,36.3231 68.1677,36.3671 C 68.1677,36.3671 67.8057,36.4811 67.5617,36.6201 Z" transform=""/><path fill="#f16253" stroke="none" d="M 68.0972,36.1163 C 66.7392,35.8093 65.9582,36.5803 65.9582,36.5803 C 66.2132,36.7993 66.9192,36.6043 67.5362,36.5613 C 67.5892,36.5333 67.7112,36.4963 67.7632,36.4673 C 68.0702,36.2913 68.3772,36.2493 68.9142,36.2713 C 68.9972,36.2743 69.0792,36.2733 69.1632,36.2683 C 69.7602,35.9493 70.3062,35.5013 70.3062,35.5013 C 69.4652,35.1163 68.0972,36.1163 68.0972,36.1163 Z" transform=""/><path fill="#fffdfd" stroke="none" d="M 69.4671,34.7951 C 69.5121,34.6991 69.5101,34.5081 69.4861,34.3581 C 69.1141,34.5021 68.7741,34.7221 68.5711,34.9471 C 68.3131,35.2351 67.9091,35.3241 67.9091,35.3241 S 67.5041,35.4301 67.1451,35.2921 C 66.8581,35.1851 66.4481,35.1451 66.0451,35.1901 C 66.0731,35.3571 66.1251,35.5241 66.2251,35.5811 C 66.8081,35.9041 69.1761,35.4021 69.4671,34.7951 Z" transform=""/><path fill="#fffdfd" stroke="none" d="M 70.4842,35.1438 C 70.4972,35.3818 70.1942,35.5828 69.4232,35.9188 C 68.9342,36.1318 67.5742,36.4888 66.9692,36.5148 C 66.3352,36.5388 65.7412,36.6778 65.5402,36.3998 C 65.3082,36.0848 65.0342,36.1638 64.9582,36.3548 C 64.9462,36.5148 65.0422,36.6668 65.2082,36.8038 C 65.7922,37.0818 66.7992,37.0538 67.5622,36.6198 C 67.8062,36.4818 68.1682,36.3668 68.1682,36.3668 C 68.3342,36.3228 68.5282,36.3058 68.8112,36.3178 C 69.6052,36.3488 70.4262,35.9938 70.8642,35.5438 C 70.8842,35.5238 70.9012,35.5038 70.9182,35.4828 C 71.0172,35.2788 71.0492,35.0848 71.0032,34.9218 C 70.9122,34.6848 70.4582,34.6278 70.4842,35.1438 Z" transform=""/><path fill="#d14e3f" stroke="none" d="M 68.1203,26.6968 S 69.4033,26.2708 70.1573,27.4858 C 70.1573,27.4858 69.8373,27.2558 69.6903,27.2408 C 69.6903,27.2408 69.9973,27.4728 70.0033,27.9088 C 70.0033,27.9088 69.7863,27.5618 69.5363,27.4228 C 69.5363,27.4228 69.8333,27.7708 69.7803,28.2748 C 69.7803,28.2748 69.2063,26.8878 68.1203,26.6968 Z" transform=""/><path fill="#d14e3f" stroke="none" d="M 68.1203,26.5935 S 69.4033,26.1655 70.1573,27.3835 C 70.1573,27.3835 69.8373,27.1545 69.6903,27.1375 C 69.6903,27.1375 69.9973,27.3715 70.0033,27.8065 C 70.0033,27.8065 69.7863,27.4585 69.5363,27.3205 C 69.5363,27.3205 69.8333,27.6685 69.7803,28.1725 C 69.7803,28.1725 69.2063,26.7855 68.1203,26.5935 Z" transform=""/><path fill="#d14e3f" stroke="none" d="M 64.8542,27.8373 S 63.5332,27.5533 62.9152,28.8453 C 62.9152,28.8453 63.2082,28.5833 63.3532,28.5503 C 63.3532,28.5503 63.0732,28.8153 63.1162,29.2493 C 63.1162,29.2493 63.2942,28.8783 63.5272,28.7143 C 63.5272,28.7143 63.2702,29.0933 63.3772,29.5863 C 63.3772,29.5873 63.7962,28.1473 64.8542,27.8373 Z" transform=""/><path fill="#d14e3f" stroke="none" d="M 64.8429,27.7348 S 63.5219,27.4508 62.9039,28.7428 C 62.9039,28.7428 63.1969,28.4808 63.3419,28.4468 C 63.3419,28.4468 63.0619,28.7128 63.1049,29.1468 C 63.1049,29.1468 63.2829,28.7758 63.5169,28.6118 C 63.5169,28.6118 63.2589,28.9908 63.3669,29.4858 C 63.3659,29.4858 63.7839,28.0448 64.8429,27.7348 Z" transform=""/><path fill="none" stroke="#d14e3f" d="M 70.3518,20.2442 S 69.2048,19.0522 68.8518,16.9362 C 68.5678,15.2292 69.5348,13.6012 70.9308,12.9142 C 73.8218,11.4962 76.2618,15.1682 73.3308,16.8712" style="stroke-linecap: round;stroke-linejoin: round;stroke-width: 1.772662622413871px" stroke-width="1.772662622413871" stroke-linecap="round" stroke-linejoin="round" transform=""/><path fill="url(#r-dee5b16311e64637b652f16b709e7040)" stroke="none" d="M 59.0556,40.2106 S 59.7086,39.4256 59.3406,38.7896 C 59.1366,38.4376 58.7066,38.5406 58.5146,38.2346 C 58.3016,37.8966 57.9126,37.7546 57.6776,37.8136 C 57.1906,37.9346 56.7606,38.7186 56.7606,38.7186 L 59.0556,40.2106 Z" opacity="1" fill-opacity="1" style="opacity: 1;fill-opacity: 1" transform=""/><path fill="url(#r-da6da12bc069421ba850154e41eb6ad7)" stroke="none" d="M 57.04,39.54 C 56.851,39.663 56.427,39.505 56.447,39.129 C 56.46,38.876 57.374,37.785 57.804,38.065 C 58.021,38.206 57.695,39.107 57.04,39.54 Z" opacity="1" fill-opacity="1" style="opacity: 1;fill-opacity: 1" transform=""/><path fill="url(#r-4c2200eac5ab414f8bce495daf7ad664)" stroke="none" d="M 57.5585,39.9939 C 57.3705,40.1169 56.9465,39.9579 56.9665,39.5829 C 56.9795,39.3299 57.8925,38.2389 58.3225,38.5189 C 58.5405,38.6609 58.2135,39.5609 57.5585,39.9939 Z" opacity="1" fill-opacity="1" style="opacity: 1;fill-opacity: 1" transform=""/><path fill="url(#r-d4791eccfdb34b439005bad7902d6da0)" stroke="none" d="M 58.121,40.343 C 57.933,40.468 57.508,40.309 57.528,39.933 C 57.541,39.682 58.455,38.589 58.885,38.869 C 59.102,39.011 58.776,39.912 58.121,40.343 Z" opacity="1" fill-opacity="1" style="opacity: 1;fill-opacity: 1" transform=""/><path fill="url(#r-dfc90b5b53c94f5794a177e912412e6a)" stroke="none" d="M 58.683,40.6201 C 58.495,40.7451 58.07,40.5861 58.089,40.2101 C 58.102,39.9571 58.892,38.9761 59.322,39.2551 C 59.539,39.3971 59.338,40.1891 58.683,40.6201 Z" opacity="1" fill-opacity="1" style="opacity: 1;fill-opacity: 1" transform=""/><path fill="url(#r-c25f630a71a04ce79d018a003706ea12)" stroke="none" d="M 57.3444,38.439 C 57.1814,38.281 57.2454,37.832 57.6154,37.769 C 57.8644,37.727 58.8444,38.317 58.6644,38.799 C 58.5744,39.041 57.9074,38.984 57.3444,38.439 Z" opacity="1" fill-opacity="1" style="opacity: 1;fill-opacity: 1" transform=""/><ellipse cx="64.18404093324456" cy="32.750328362028064" rx="0.46167839461618154" ry="0.7665685479751273" fill="#304454" stroke="none" transform="rotate(-12.9203 64.18404115568693 32.750327683831735)" r="NaN"/><ellipse cx="69.9608843965854" cy="31.555524025262685" rx="0.46167839461618154" ry="0.7665685479751273" fill="#304454" stroke="none" transform="rotate(-12.9203 69.96088436056918 31.555523108489197)" r="NaN"/></svg>