<svg xmlns="http://www.w3.org/2000/svg" version="1.1" width="400" height="75" viewBox="0 0 400 75"><defs><linearGradient id="r-36d3bc8787d44f6888b568eca06f48ba" x1="0" y1="0" x2="1" y2="2.4492935982947064e-16"><stop offset="0%" stop-color="#f89d6c"/><stop offset="28.83%" stop-color="#fbb069"/><stop offset="65.73%" stop-color="#ffcc5f"/><stop offset="100%" stop-color="#ffcc5f"/></linearGradient><linearGradient id="r-d8c9c5ce81a54f528de2c99295d340e1" x1="0" y1="0" x2="1" y2="2.4492935982947064e-16"><stop offset="0%" stop-color="#f89d6c"/><stop offset="28.83%" stop-color="#fbb069"/><stop offset="65.73%" stop-color="#ffcc5f"/><stop offset="100%" stop-color="#ffcc5f"/></linearGradient><linearGradient id="r-c1ed3b5946c24d2d830c7a7f8d748196" x1="0" y1="0" x2="1" y2="2.4492935982947064e-16"><stop offset="0%" stop-color="#f89d6c"/><stop offset="28.83%" stop-color="#fbb069"/><stop offset="65.73%" stop-color="#ffcc5f"/><stop offset="100%" stop-color="#ffcc5f"/></linearGradient><linearGradient id="r-37f9a67e0b8e4ffe9ac528db7956d04a" x1="0" y1="0" x2="1" y2="2.4492935982947064e-16"><stop offset="0%" stop-color="#f89d6c"/><stop offset="28.83%" stop-color="#fbb069"/><stop offset="65.73%" stop-color="#ffcc5f"/><stop offset="100%" stop-color="#ffcc5f"/></linearGradient><linearGradient id="r-a27d385429ad42a3992df889cbd4ecab" x1="0" y1="0" x2="1" y2="2.4492935982947064e-16"><stop offset="0%" stop-color="#f89d6c"/><stop offset="28.83%" stop-color="#fbb069"/><stop offset="65.73%" stop-color="#ffcc5f"/><stop offset="100%" stop-color="#ffcc5f"/></linearGradient><linearGradient id="r-1c3e9df3d951461e869bfef17777f106" x1="0" y1="0" x2="1" y2="2.4492935982947064e-16"><stop offset="0%" stop-color="#f89d6c"/><stop offset="28.83%" stop-color="#fbb069"/><stop offset="65.73%" stop-color="#ffcc5f"/><stop offset="100%" stop-color="#ffcc5f"/></linearGradient></defs><path fill="#ccaa4f" stroke="none" d="M 62.5,30.1617 L 60.221,30.5397 L 12.842,38.4517 L 12.916,38.3837 L 12.501,38.4527 L 12.501,45.0757 C 12.744,44.9787 13.006,44.9227 13.283,44.9227 C 14.495,44.9227 15.479,45.9517 15.479,47.2187 C 15.479,48.4827 14.495,49.5107 13.283,49.5107 C 13.006,49.5107 12.743,49.4557 12.501,49.3577 L 12.501,56.5427 L 62.375,48.1277 L 62.5,30.1617" transform=""/><path fill="#f89c44" stroke="none" d="M 22.6128,29.8536 S 22.6458,32.4986 22.6458,34.0286 L 26.6128,30.0606 L 22.6128,29.8536 Z" transform=""/><path fill="#d78334" stroke="none" d="M 58.1035,37.3737 C 58.1035,38.5877 57.1205,39.5707 55.9065,39.5707 C 54.6925,39.5707 53.7065,38.5877 53.7065,37.3737 C 53.7065,36.1577 54.6915,35.1747 55.9065,35.1747 C 57.1205,35.1747 58.1035,36.1577 58.1035,37.3737 Z" transform=""/><path fill="#eec65e" stroke="none" d="M 36.7782,18.4577 C 36.2692,18.4577 35.9932,18.4767 35.9932,18.4767 L 22.6132,29.8527 C 23.5522,30.2167 24.1762,30.8587 24.1762,31.5897 C 24.1762,32.7257 22.6802,33.6467 20.8312,33.6467 C 20.0232,33.6467 19.2832,33.4687 18.7052,33.1777 L 12.5002,38.4527 L 12.9152,38.3837 L 13.8952,37.4837 L 60.7242,28.6277 L 62.2142,30.2057 L 60.2212,30.5387 L 62.4992,30.1607 C 52.4152,19.2067 39.9882,18.4577 36.7782,18.4577" transform=""/><ellipse cx="35.740160798074655" cy="27.290024102203944" rx="3.1533544595216814" ry="2.2460117548278755" fill="#f89c44" stroke="none" r="NaN" transform=""/><ellipse cx="26.660640035463807" cy="42.6782857344664" rx="3.6320793044608757" ry="3.4878524416998453" fill="#d78334" stroke="none" r="NaN" transform=""/><path fill="url(#r-36d3bc8787d44f6888b568eca06f48ba)" stroke="none" d="M 60.2215,30.5395 L 12.9155,38.3835 L 12.8415,38.4515 L 60.2215,30.5395" opacity="1" fill-opacity="1" style="opacity: 1;fill-opacity: 1" transform=""/><path fill="#eec65e" stroke="none" d="M 60.7253,28.628 L 13.8953,37.484 L 12.9153,38.384 L 60.2213,30.54 L 62.2153,30.206 L 60.7253,28.628" transform=""/><ellipse cx="43.14719276049037" cy="34.9354026422273" rx="3.3930554427019852" ry="3.2975813222827117" fill="#d78334" stroke="none" r="NaN" transform=""/><path fill="#ccaa4f" stroke="none" d="M 125,30.1617 L 122.721,30.5397 L 75.342,38.4517 L 75.416,38.3837 L 75.001,38.4527 L 75.001,45.0757 C 75.244,44.9787 75.506,44.9227 75.783,44.9227 C 76.995,44.9227 77.979,45.9517 77.979,47.2187 C 77.979,48.4827 76.995,49.5107 75.783,49.5107 C 75.506,49.5107 75.243,49.4557 75.001,49.3577 L 75.001,56.5427 L 124.875,48.1277 L 125,30.1617" transform=""/><path fill="#f89c44" stroke="none" d="M 85.1128,29.8536 S 85.1458,32.4986 85.1458,34.0286 L 89.1128,30.0606 L 85.1128,29.8536 Z" transform=""/><path fill="#d78334" stroke="none" d="M 120.603,37.3737 C 120.603,38.5877 119.62,39.5707 118.406,39.5707 S 116.206,38.5877 116.206,37.3737 C 116.206,36.1577 117.191,35.1747 118.406,35.1747 C 119.62,35.1747 120.603,36.1577 120.603,37.3737 Z" transform=""/><path fill="#eec65e" stroke="none" d="M 99.2782,18.4577 C 98.7692,18.4577 98.4932,18.4767 98.4932,18.4767 L 85.1132,29.8527 C 86.0522,30.2167 86.6762,30.8587 86.6762,31.5897 C 86.6762,32.7257 85.1802,33.6467 83.3312,33.6467 C 82.5232,33.6467 81.7832,33.4687 81.2052,33.1777 L 75.0002,38.4527 L 75.4152,38.3837 L 76.3952,37.4837 L 123.224,28.6277 L 124.714,30.2057 L 122.721,30.5387 L 124.999,30.1607 C 114.915,19.2067 102.488,18.4577 99.2782,18.4577" transform=""/><ellipse cx="98.24016079807464" cy="27.290024102203944" rx="3.1533544595216814" ry="2.2460117548278755" fill="#f89c44" stroke="none" r="NaN" transform=""/><ellipse cx="89.1606400354638" cy="42.6782857344664" rx="3.6320793044608757" ry="3.4878524416998453" fill="#d78334" stroke="none" r="NaN" transform=""/><path fill="url(#r-d8c9c5ce81a54f528de2c99295d340e1)" stroke="none" d="M 122.721,30.5395 L 75.4155,38.3835 L 75.3415,38.4515 L 122.721,30.5395" opacity="1" fill-opacity="1" style="opacity: 1;fill-opacity: 1" transform=""/><path fill="#eec65e" stroke="none" d="M 123.225,28.628 L 76.3953,37.484 L 75.4153,38.384 L 122.721,30.54 L 124.715,30.206 L 123.225,28.628" transform=""/><ellipse cx="105.64719276049036" cy="34.9354026422273" rx="3.3930554427019852" ry="3.2975813222827117" fill="#d78334" stroke="none" r="NaN" transform=""/><path fill="#ccaa4f" stroke="none" d="M 187.5,30.1617 L 185.221,30.5397 L 137.842,38.4517 L 137.916,38.3837 L 137.501,38.4527 L 137.501,45.0757 C 137.744,44.9787 138.006,44.9227 138.283,44.9227 C 139.495,44.9227 140.479,45.9517 140.479,47.2187 C 140.479,48.4827 139.495,49.5107 138.283,49.5107 C 138.006,49.5107 137.743,49.4557 137.501,49.3577 L 137.501,56.5427 L 187.375,48.1277 L 187.5,30.1617" transform=""/><path fill="#f89c44" stroke="none" d="M 147.613,29.8536 S 147.646,32.4986 147.646,34.0286 L 151.613,30.0606 L 147.613,29.8536 Z" transform=""/><path fill="#d78334" stroke="none" d="M 183.103,37.3737 C 183.103,38.5877 182.12,39.5707 180.906,39.5707 S 178.706,38.5877 178.706,37.3737 C 178.706,36.1577 179.691,35.1747 180.906,35.1747 C 182.12,35.1747 183.103,36.1577 183.103,37.3737 Z" transform=""/><path fill="#eec65e" stroke="none" d="M 161.778,18.4577 C 161.269,18.4577 160.993,18.4767 160.993,18.4767 L 147.613,29.8527 C 148.552,30.2167 149.176,30.8587 149.176,31.5897 C 149.176,32.7257 147.68,33.6467 145.831,33.6467 C 145.023,33.6467 144.283,33.4687 143.705,33.1777 L 137.5,38.4527 L 137.915,38.3837 L 138.895,37.4837 L 185.724,28.6277 L 187.214,30.2057 L 185.221,30.5387 L 187.499,30.1607 C 177.415,19.2067 164.988,18.4577 161.778,18.4577" transform=""/><ellipse cx="160.74016079807464" cy="27.290024102203944" rx="3.1533544595216814" ry="2.2460117548278755" fill="#f89c44" stroke="none" r="NaN" transform=""/><ellipse cx="151.6606400354638" cy="42.6782857344664" rx="3.6320793044608757" ry="3.4878524416998453" fill="#d78334" stroke="none" r="NaN" transform=""/><path fill="url(#r-c1ed3b5946c24d2d830c7a7f8d748196)" stroke="none" d="M 185.221,30.5395 L 137.915,38.3835 L 137.841,38.4515 L 185.221,30.5395" opacity="1" fill-opacity="1" style="opacity: 1;fill-opacity: 1" transform=""/><path fill="#eec65e" stroke="none" d="M 185.725,28.628 L 138.895,37.484 L 137.915,38.384 L 185.221,30.54 L 187.215,30.206 L 185.725,28.628" transform=""/><ellipse cx="168.14719276049036" cy="34.9354026422273" rx="3.3930554427019852" ry="3.2975813222827117" fill="#d78334" stroke="none" r="NaN" transform=""/><path fill="#ccaa4f" stroke="none" d="M 250,30.1617 L 247.721,30.5397 L 200.342,38.4517 L 200.416,38.3837 L 200.001,38.4527 L 200.001,45.0757 C 200.244,44.9787 200.506,44.9227 200.783,44.9227 C 201.995,44.9227 202.979,45.9517 202.979,47.2187 C 202.979,48.4827 201.995,49.5107 200.783,49.5107 C 200.506,49.5107 200.243,49.4557 200.001,49.3577 L 200.001,56.5427 L 249.875,48.1277 L 250,30.1617" transform=""/><path fill="#f89c44" stroke="none" d="M 210.113,29.8536 S 210.146,32.4986 210.146,34.0286 L 214.113,30.0606 L 210.113,29.8536 Z" transform=""/><path fill="#d78334" stroke="none" d="M 245.603,37.3737 C 245.603,38.5877 244.62,39.5707 243.406,39.5707 S 241.206,38.5877 241.206,37.3737 C 241.206,36.1577 242.191,35.1747 243.406,35.1747 C 244.62,35.1747 245.603,36.1577 245.603,37.3737 Z" transform=""/><path fill="#eec65e" stroke="none" d="M 224.278,18.4577 C 223.769,18.4577 223.493,18.4767 223.493,18.4767 L 210.113,29.8527 C 211.052,30.2167 211.676,30.8587 211.676,31.5897 C 211.676,32.7257 210.18,33.6467 208.331,33.6467 C 207.523,33.6467 206.783,33.4687 206.205,33.1777 L 200,38.4527 L 200.415,38.3837 L 201.395,37.4837 L 248.224,28.6277 L 249.714,30.2057 L 247.721,30.5387 L 249.999,30.1607 C 239.915,19.2067 227.488,18.4577 224.278,18.4577" transform=""/><ellipse cx="223.24016079807464" cy="27.290024102203944" rx="3.1533544595216814" ry="2.2460117548278755" fill="#f89c44" stroke="none" r="NaN" transform=""/><ellipse cx="214.1606400354638" cy="42.6782857344664" rx="3.6320793044608757" ry="3.4878524416998453" fill="#d78334" stroke="none" r="NaN" transform=""/><path fill="url(#r-37f9a67e0b8e4ffe9ac528db7956d04a)" stroke="none" d="M 247.721,30.5395 L 200.415,38.3835 L 200.341,38.4515 L 247.721,30.5395" opacity="1" fill-opacity="1" style="opacity: 1;fill-opacity: 1" transform=""/><path fill="#eec65e" stroke="none" d="M 248.225,28.628 L 201.395,37.484 L 200.415,38.384 L 247.721,30.54 L 249.715,30.206 L 248.225,28.628" transform=""/><ellipse cx="230.64719276049036" cy="34.9354026422273" rx="3.3930554427019852" ry="3.2975813222827117" fill="#d78334" stroke="none" r="NaN" transform=""/><path fill="#ccaa4f" stroke="none" d="M 312.5,30.1617 L 310.221,30.5397 L 262.842,38.4517 L 262.916,38.3837 L 262.501,38.4527 L 262.501,45.0757 C 262.744,44.9787 263.006,44.9227 263.283,44.9227 C 264.495,44.9227 265.479,45.9517 265.479,47.2187 C 265.479,48.4827 264.495,49.5107 263.283,49.5107 C 263.006,49.5107 262.743,49.4557 262.501,49.3577 L 262.501,56.5427 L 312.375,48.1277 L 312.5,30.1617" transform=""/><path fill="#f89c44" stroke="none" d="M 272.613,29.8536 S 272.646,32.4986 272.646,34.0286 L 276.613,30.0606 L 272.613,29.8536 Z" transform=""/><path fill="#d78334" stroke="none" d="M 308.103,37.3737 C 308.103,38.5877 307.12,39.5707 305.906,39.5707 S 303.706,38.5877 303.706,37.3737 C 303.706,36.1577 304.691,35.1747 305.906,35.1747 C 307.12,35.1747 308.103,36.1577 308.103,37.3737 Z" transform=""/><path fill="#eec65e" stroke="none" d="M 286.778,18.4577 C 286.269,18.4577 285.993,18.4767 285.993,18.4767 L 272.613,29.8527 C 273.552,30.2167 274.176,30.8587 274.176,31.5897 C 274.176,32.7257 272.68,33.6467 270.831,33.6467 C 270.023,33.6467 269.283,33.4687 268.705,33.1777 L 262.5,38.4527 L 262.915,38.3837 L 263.895,37.4837 L 310.724,28.6277 L 312.214,30.2057 L 310.221,30.5387 L 312.499,30.1607 C 302.415,19.2067 289.988,18.4577 286.778,18.4577" transform=""/><ellipse cx="285.74016079807467" cy="27.290024102203944" rx="3.1533544595216814" ry="2.2460117548278755" fill="#f89c44" stroke="none" r="NaN" transform=""/><ellipse cx="276.6606400354638" cy="42.6782857344664" rx="3.6320793044608757" ry="3.4878524416998453" fill="#d78334" stroke="none" r="NaN" transform=""/><path fill="url(#r-a27d385429ad42a3992df889cbd4ecab)" stroke="none" d="M 310.221,30.5395 L 262.915,38.3835 L 262.841,38.4515 L 310.221,30.5395" opacity="1" fill-opacity="1" style="opacity: 1;fill-opacity: 1" transform=""/><path fill="#eec65e" stroke="none" d="M 310.725,28.628 L 263.895,37.484 L 262.915,38.384 L 310.221,30.54 L 312.215,30.206 L 310.725,28.628" transform=""/><ellipse cx="293.1471927604904" cy="34.9354026422273" rx="3.3930554427019852" ry="3.2975813222827117" fill="#d78334" stroke="none" r="NaN" transform=""/><path fill="#ccaa4f" stroke="none" d="M 375,30.1617 L 372.721,30.5397 L 325.342,38.4517 L 325.416,38.3837 L 325.001,38.4527 L 325.001,45.0757 C 325.244,44.9787 325.506,44.9227 325.783,44.9227 C 326.995,44.9227 327.979,45.9517 327.979,47.2187 C 327.979,48.4827 326.995,49.5107 325.783,49.5107 C 325.506,49.5107 325.243,49.4557 325.001,49.3577 L 325.001,56.5427 L 374.875,48.1277 L 375,30.1617" transform=""/><path fill="#f89c44" stroke="none" d="M 335.113,29.8536 S 335.146,32.4986 335.146,34.0286 L 339.113,30.0606 L 335.113,29.8536 Z" transform=""/><path fill="#d78334" stroke="none" d="M 370.603,37.3737 C 370.603,38.5877 369.62,39.5707 368.406,39.5707 S 366.206,38.5877 366.206,37.3737 C 366.206,36.1577 367.191,35.1747 368.406,35.1747 C 369.62,35.1747 370.603,36.1577 370.603,37.3737 Z" transform=""/><path fill="#eec65e" stroke="none" d="M 349.278,18.4577 C 348.769,18.4577 348.493,18.4767 348.493,18.4767 L 335.113,29.8527 C 336.052,30.2167 336.676,30.8587 336.676,31.5897 C 336.676,32.7257 335.18,33.6467 333.331,33.6467 C 332.523,33.6467 331.783,33.4687 331.205,33.1777 L 325,38.4527 L 325.415,38.3837 L 326.395,37.4837 L 373.224,28.6277 L 374.714,30.2057 L 372.721,30.5387 L 374.999,30.1607 C 364.915,19.2067 352.488,18.4577 349.278,18.4577" transform=""/><ellipse cx="348.24016079807467" cy="27.290024102203944" rx="3.1533544595216814" ry="2.2460117548278755" fill="#f89c44" stroke="none" r="NaN" transform=""/><ellipse cx="339.1606400354638" cy="42.6782857344664" rx="3.6320793044608757" ry="3.4878524416998453" fill="#d78334" stroke="none" r="NaN" transform=""/><path fill="url(#r-1c3e9df3d951461e869bfef17777f106)" stroke="none" d="M 372.721,30.5395 L 325.415,38.3835 L 325.341,38.4515 L 372.721,30.5395" opacity="1" fill-opacity="1" style="opacity: 1;fill-opacity: 1" transform=""/><path fill="#eec65e" stroke="none" d="M 373.225,28.628 L 326.395,37.484 L 325.415,38.384 L 372.721,30.54 L 374.715,30.206 L 373.225,28.628" transform=""/><ellipse cx="355.6471927604904" cy="34.9354026422273" rx="3.3930554427019852" ry="3.2975813222827117" fill="#d78334" stroke="none" r="NaN" transform=""/></svg>