<svg xmlns="http://www.w3.org/2000/svg" version="1.1" width="400" height="60" viewBox="0 0 400 60"><defs/><path fill="#deb958" stroke="none" d="M 33.8682,45.1413 C 26.6062,46.7773 19.6162,47.2083 13.3232,43.2323 C 11.2862,41.9433 9.83919,40.0493 10.0142,37.8013 C 10.0912,36.8173 10.9532,35.4293 13.8432,35.9693 C 20.2902,37.1773 25.0972,36.6953 30.3122,35.2193 C 35.8252,33.6573 40.0632,29.5183 41.6322,25.7403 C 42.9522,22.5593 44.9922,19.1973 48.2412,20.4063 C 50.0012,21.0613 50.4452,28.0473 49.5372,31.3933 C 47.7192,38.0953 41.1292,43.5033 33.8682,45.1413 L 33.8682,45.1413 Z" transform=""/><path fill="#ccaa4f" stroke="none" d="M 48.861,21.157 C 49.489,23.624 49.567,27.745 48.954,30.006 C 47.161,36.612 40.931,42.246 33.774,43.86 C 26.615,45.474 18.865,45.757 12.663,41.837 C 11.793,41.286 10.604,39.878 10.062,38.166 C 10.145,40.582 11.711,42.083 13.119,42.973 C 19.322,46.893 26.946,46.634 34.104,45.021 C 41.261,43.407 47.756,38.077 49.548,31.471 C 50.331,28.585 50.094,22.952 48.861,21.157 Z" transform=""/><path fill="#eec65e" stroke="none" d="M 24.2474,40.0994 C 37.4314,39.6484 47.0324,32.2054 46.7804,20.1584 C 44.3604,20.2634 42.7414,23.0654 41.6314,25.7404 C 40.0624,29.5184 35.8244,33.6564 30.3114,35.2194 C 25.0964,36.6944 20.2884,37.1774 13.8424,35.9694 C 10.9534,35.4284 10.0904,36.8164 10.0134,37.8014 C 10.0104,37.8534 11.6634,37.1474 11.6604,37.1994 C 16.0864,39.3524 19.3084,40.2694 24.2474,40.0994 Z" transform=""/><path fill="#ccaa4f" stroke="none" d="M 45.2441,20.8669 L 46.6361,21.3659 S 47.1691,20.4309 48.2411,20.4069 C 48.0501,18.3959 47.2081,15.5909 46.5351,14.3009 C 45.8071,12.9039 44.5381,14.2679 44.5381,14.2679 L 43.5851,15.6019 C 43.5841,15.6019 45.2421,16.7769 45.2441,20.8669 Z" transform=""/><path fill="#eec65e" stroke="none" d="M 45.2441,20.8669 S 46.0351,21.6059 46.6361,21.3659 C 47.2621,16.0929 44.5371,14.2679 44.5371,14.2679 L 43.5841,15.6019 S 45.2421,16.7769 45.2441,20.8669 Z" transform=""/><path fill="#eec65e" stroke="none" d="M 46.6362,21.3658 C 46.6662,21.1168 46.7822,21.3758 46.7992,21.1408 C 47.1552,16.0528 44.5372,14.2688 44.5372,14.2688 L 44.4402,14.4048 S 46.8112,15.7548 46.6362,21.3658 Z" transform=""/><path fill="#ccaa4f" stroke="none" d="M 11.4254,36.0376 S 12.5564,37.6276 11.7724,38.1906 C 10.9864,38.7536 10.0064,37.9296 10.0064,37.9296 S 10.1354,36.5216 11.4254,36.0376 Z" transform=""/><path fill="#deb958" stroke="none" d="M 83.8682,45.1413 C 76.6062,46.7773 69.6162,47.2083 63.3232,43.2323 C 61.2862,41.9433 59.8392,40.0493 60.0142,37.8013 C 60.0912,36.8173 60.9532,35.4293 63.8432,35.9693 C 70.2902,37.1773 75.0972,36.6953 80.3122,35.2193 C 85.8252,33.6573 90.0632,29.5183 91.6322,25.7403 C 92.9522,22.5593 94.9922,19.1973 98.2412,20.4063 C 100.001,21.0613 100.445,28.0473 99.5372,31.3933 C 97.7192,38.0953 91.1292,43.5033 83.8682,45.1413 L 83.8682,45.1413 Z" transform=""/><path fill="#ccaa4f" stroke="none" d="M 98.861,21.157 C 99.489,23.624 99.567,27.745 98.954,30.006 C 97.161,36.612 90.931,42.246 83.774,43.86 C 76.615,45.474 68.865,45.757 62.663,41.837 C 61.793,41.286 60.604,39.878 60.062,38.166 C 60.145,40.582 61.711,42.083 63.119,42.973 C 69.322,46.893 76.946,46.634 84.104,45.021 C 91.261,43.407 97.756,38.077 99.548,31.471 C 100.331,28.585 100.094,22.952 98.861,21.157 Z" transform=""/><path fill="#eec65e" stroke="none" d="M 74.2474,40.0994 C 87.4314,39.6484 97.0324,32.2054 96.7804,20.1584 C 94.3604,20.2634 92.7414,23.0654 91.6314,25.7404 C 90.0624,29.5184 85.8244,33.6564 80.3114,35.2194 C 75.0964,36.6944 70.2884,37.1774 63.8424,35.9694 C 60.9534,35.4284 60.0904,36.8164 60.0134,37.8014 C 60.0104,37.8534 61.6634,37.1474 61.6604,37.1994 C 66.0864,39.3524 69.3084,40.2694 74.2474,40.0994 Z" transform=""/><path fill="#ccaa4f" stroke="none" d="M 95.2441,20.8669 L 96.6361,21.3659 S 97.1691,20.4309 98.2411,20.4069 C 98.0501,18.3959 97.2081,15.5909 96.5351,14.3009 C 95.8071,12.9039 94.5381,14.2679 94.5381,14.2679 L 93.5851,15.6019 C 93.5841,15.6019 95.2421,16.7769 95.2441,20.8669 Z" transform=""/><path fill="#eec65e" stroke="none" d="M 95.2441,20.8669 S 96.0351,21.6059 96.6361,21.3659 C 97.2621,16.0929 94.5371,14.2679 94.5371,14.2679 L 93.5841,15.6019 S 95.2421,16.7769 95.2441,20.8669 Z" transform=""/><path fill="#eec65e" stroke="none" d="M 96.6362,21.3658 C 96.6662,21.1168 96.7822,21.3758 96.7992,21.1408 C 97.1552,16.0528 94.5372,14.2688 94.5372,14.2688 L 94.4402,14.4048 S 96.8112,15.7548 96.6362,21.3658 Z" transform=""/><path fill="#ccaa4f" stroke="none" d="M 61.4254,36.0376 S 62.5564,37.6276 61.7724,38.1906 C 60.9864,38.7536 60.0064,37.9296 60.0064,37.9296 S 60.1354,36.5216 61.4254,36.0376 Z" transform=""/></svg>