<svg xmlns="http://www.w3.org/2000/svg" version="1.1" width="400" height="60" viewBox="0 0 400 60"><defs/><path fill="#deb958" stroke="none" d="M 33.8682,45.1413 C 26.6062,46.7773 19.6162,47.2083 13.3232,43.2323 C 11.2862,41.9433 9.83919,40.0493 10.0142,37.8013 C 10.0912,36.8173 10.9532,35.4293 13.8432,35.9693 C 20.2902,37.1773 25.0972,36.6953 30.3122,35.2193 C 35.8252,33.6573 40.0632,29.5183 41.6322,25.7403 C 42.9522,22.5593 44.9922,19.1973 48.2412,20.4063 C 50.0012,21.0613 50.4452,28.0473 49.5372,31.3933 C 47.7192,38.0953 41.1292,43.5033 33.8682,45.1413 L 33.8682,45.1413 Z" transform=""/><path fill="#ccaa4f" stroke="none" d="M 48.861,21.157 C 49.489,23.624 49.567,27.745 48.954,30.006 C 47.161,36.612 40.931,42.246 33.774,43.86 C 26.615,45.474 18.865,45.757 12.663,41.837 C 11.793,41.286 10.604,39.878 10.062,38.166 C 10.145,40.582 11.711,42.083 13.119,42.973 C 19.322,46.893 26.946,46.634 34.104,45.021 C 41.261,43.407 47.756,38.077 49.548,31.471 C 50.331,28.585 50.094,22.952 48.861,21.157 Z" transform=""/><path fill="#eec65e" stroke="none" d="M 24.2474,40.0994 C 37.4314,39.6484 47.0324,32.2054 46.7804,20.1584 C 44.3604,20.2634 42.7414,23.0654 41.6314,25.7404 C 40.0624,29.5184 35.8244,33.6564 30.3114,35.2194 C 25.0964,36.6944 20.2884,37.1774 13.8424,35.9694 C 10.9534,35.4284 10.0904,36.8164 10.0134,37.8014 C 10.0104,37.8534 11.6634,37.1474 11.6604,37.1994 C 16.0864,39.3524 19.3084,40.2694 24.2474,40.0994 Z" transform=""/><path fill="#ccaa4f" stroke="none" d="M 45.2441,20.8669 L 46.6361,21.3659 S 47.1691,20.4309 48.2411,20.4069 C 48.0501,18.3959 47.2081,15.5909 46.5351,14.3009 C 45.8071,12.9039 44.5381,14.2679 44.5381,14.2679 L 43.5851,15.6019 C 43.5841,15.6019 45.2421,16.7769 45.2441,20.8669 Z" transform=""/><path fill="#eec65e" stroke="none" d="M 45.2441,20.8669 S 46.0351,21.6059 46.6361,21.3659 C 47.2621,16.0929 44.5371,14.2679 44.5371,14.2679 L 43.5841,15.6019 S 45.2421,16.7769 45.2441,20.8669 Z" transform=""/><path fill="#eec65e" stroke="none" d="M 46.6362,21.3658 C 46.6662,21.1168 46.7822,21.3758 46.7992,21.1408 C 47.1552,16.0528 44.5372,14.2688 44.5372,14.2688 L 44.4402,14.4048 S 46.8112,15.7548 46.6362,21.3658 Z" transform=""/><path fill="#ccaa4f" stroke="none" d="M 11.4254,36.0376 S 12.5564,37.6276 11.7724,38.1906 C 10.9864,38.7536 10.0064,37.9296 10.0064,37.9296 S 10.1354,36.5216 11.4254,36.0376 Z" transform=""/><path fill="#deb958" stroke="none" d="M 83.8682,45.1413 C 76.6062,46.7773 69.6162,47.2083 63.3232,43.2323 C 61.2862,41.9433 59.8392,40.0493 60.0142,37.8013 C 60.0912,36.8173 60.9532,35.4293 63.8432,35.9693 C 70.2902,37.1773 75.0972,36.6953 80.3122,35.2193 C 85.8252,33.6573 90.0632,29.5183 91.6322,25.7403 C 92.9522,22.5593 94.9922,19.1973 98.2412,20.4063 C 100.001,21.0613 100.445,28.0473 99.5372,31.3933 C 97.7192,38.0953 91.1292,43.5033 83.8682,45.1413 L 83.8682,45.1413 Z" transform=""/><path fill="#ccaa4f" stroke="none" d="M 98.861,21.157 C 99.489,23.624 99.567,27.745 98.954,30.006 C 97.161,36.612 90.931,42.246 83.774,43.86 C 76.615,45.474 68.865,45.757 62.663,41.837 C 61.793,41.286 60.604,39.878 60.062,38.166 C 60.145,40.582 61.711,42.083 63.119,42.973 C 69.322,46.893 76.946,46.634 84.104,45.021 C 91.261,43.407 97.756,38.077 99.548,31.471 C 100.331,28.585 100.094,22.952 98.861,21.157 Z" transform=""/><path fill="#eec65e" stroke="none" d="M 74.2474,40.0994 C 87.4314,39.6484 97.0324,32.2054 96.7804,20.1584 C 94.3604,20.2634 92.7414,23.0654 91.6314,25.7404 C 90.0624,29.5184 85.8244,33.6564 80.3114,35.2194 C 75.0964,36.6944 70.2884,37.1774 63.8424,35.9694 C 60.9534,35.4284 60.0904,36.8164 60.0134,37.8014 C 60.0104,37.8534 61.6634,37.1474 61.6604,37.1994 C 66.0864,39.3524 69.3084,40.2694 74.2474,40.0994 Z" transform=""/><path fill="#ccaa4f" stroke="none" d="M 95.2441,20.8669 L 96.6361,21.3659 S 97.1691,20.4309 98.2411,20.4069 C 98.0501,18.3959 97.2081,15.5909 96.5351,14.3009 C 95.8071,12.9039 94.5381,14.2679 94.5381,14.2679 L 93.5851,15.6019 C 93.5841,15.6019 95.2421,16.7769 95.2441,20.8669 Z" transform=""/><path fill="#eec65e" stroke="none" d="M 95.2441,20.8669 S 96.0351,21.6059 96.6361,21.3659 C 97.2621,16.0929 94.5371,14.2679 94.5371,14.2679 L 93.5841,15.6019 S 95.2421,16.7769 95.2441,20.8669 Z" transform=""/><path fill="#eec65e" stroke="none" d="M 96.6362,21.3658 C 96.6662,21.1168 96.7822,21.3758 96.7992,21.1408 C 97.1552,16.0528 94.5372,14.2688 94.5372,14.2688 L 94.4402,14.4048 S 96.8112,15.7548 96.6362,21.3658 Z" transform=""/><path fill="#ccaa4f" stroke="none" d="M 61.4254,36.0376 S 62.5564,37.6276 61.7724,38.1906 C 60.9864,38.7536 60.0064,37.9296 60.0064,37.9296 S 60.1354,36.5216 61.4254,36.0376 Z" transform=""/><path fill="#deb958" stroke="none" d="M 133.868,45.1413 C 126.606,46.7773 119.616,47.2083 113.323,43.2323 C 111.286,41.9433 109.839,40.0493 110.014,37.8013 C 110.091,36.8173 110.953,35.4293 113.843,35.9693 C 120.29,37.1773 125.097,36.6953 130.312,35.2193 C 135.825,33.6573 140.063,29.5183 141.632,25.7403 C 142.952,22.5593 144.992,19.1973 148.241,20.4063 C 150.001,21.0613 150.445,28.0473 149.537,31.3933 C 147.719,38.0953 141.129,43.5033 133.868,45.1413 L 133.868,45.1413 Z" transform=""/><path fill="#ccaa4f" stroke="none" d="M 148.861,21.157 C 149.489,23.624 149.567,27.745 148.954,30.006 C 147.161,36.612 140.931,42.246 133.774,43.86 C 126.615,45.474 118.865,45.757 112.663,41.837 C 111.793,41.286 110.604,39.878 110.062,38.166 C 110.145,40.582 111.711,42.083 113.119,42.973 C 119.322,46.893 126.946,46.634 134.104,45.021 C 141.261,43.407 147.756,38.077 149.548,31.471 C 150.331,28.585 150.094,22.952 148.861,21.157 Z" transform=""/><path fill="#eec65e" stroke="none" d="M 124.247,40.0994 C 137.431,39.6484 147.032,32.2054 146.78,20.1584 C 144.36,20.2634 142.741,23.0654 141.631,25.7404 C 140.062,29.5184 135.824,33.6564 130.311,35.2194 C 125.096,36.6944 120.288,37.1774 113.842,35.9694 C 110.953,35.4284 110.09,36.8164 110.013,37.8014 C 110.01,37.8534 111.663,37.1474 111.66,37.1994 C 116.086,39.3524 119.308,40.2694 124.247,40.0994 Z" transform=""/><path fill="#ccaa4f" stroke="none" d="M 145.244,20.8669 L 146.636,21.3659 S 147.169,20.4309 148.241,20.4069 C 148.05,18.3959 147.208,15.5909 146.535,14.3009 C 145.807,12.9039 144.538,14.2679 144.538,14.2679 L 143.585,15.6019 C 143.584,15.6019 145.242,16.7769 145.244,20.8669 Z" transform=""/><path fill="#eec65e" stroke="none" d="M 145.244,20.8669 S 146.035,21.6059 146.636,21.3659 C 147.262,16.0929 144.537,14.2679 144.537,14.2679 L 143.584,15.6019 S 145.242,16.7769 145.244,20.8669 Z" transform=""/><path fill="#eec65e" stroke="none" d="M 146.636,21.3658 C 146.666,21.1168 146.782,21.3758 146.799,21.1408 C 147.155,16.0528 144.537,14.2688 144.537,14.2688 L 144.44,14.4048 S 146.811,15.7548 146.636,21.3658 Z" transform=""/><path fill="#ccaa4f" stroke="none" d="M 111.425,36.0376 S 112.556,37.6276 111.772,38.1906 C 110.986,38.7536 110.006,37.9296 110.006,37.9296 S 110.135,36.5216 111.425,36.0376 Z" transform=""/><path fill="#deb958" stroke="none" d="M 183.868,45.1413 C 176.606,46.7773 169.616,47.2083 163.323,43.2323 C 161.286,41.9433 159.839,40.0493 160.014,37.8013 C 160.091,36.8173 160.953,35.4293 163.843,35.9693 C 170.29,37.1773 175.097,36.6953 180.312,35.2193 C 185.825,33.6573 190.063,29.5183 191.632,25.7403 C 192.952,22.5593 194.992,19.1973 198.241,20.4063 C 200.001,21.0613 200.445,28.0473 199.537,31.3933 C 197.719,38.0953 191.129,43.5033 183.868,45.1413 L 183.868,45.1413 Z" transform=""/><path fill="#ccaa4f" stroke="none" d="M 198.861,21.157 C 199.489,23.624 199.567,27.745 198.954,30.006 C 197.161,36.612 190.931,42.246 183.774,43.86 C 176.615,45.474 168.865,45.757 162.663,41.837 C 161.793,41.286 160.604,39.878 160.062,38.166 C 160.145,40.582 161.711,42.083 163.119,42.973 C 169.322,46.893 176.946,46.634 184.104,45.021 C 191.261,43.407 197.756,38.077 199.548,31.471 C 200.331,28.585 200.094,22.952 198.861,21.157 Z" transform=""/><path fill="#eec65e" stroke="none" d="M 174.247,40.0994 C 187.431,39.6484 197.032,32.2054 196.78,20.1584 C 194.36,20.2634 192.741,23.0654 191.631,25.7404 C 190.062,29.5184 185.824,33.6564 180.311,35.2194 C 175.096,36.6944 170.288,37.1774 163.842,35.9694 C 160.953,35.4284 160.09,36.8164 160.013,37.8014 C 160.01,37.8534 161.663,37.1474 161.66,37.1994 C 166.086,39.3524 169.308,40.2694 174.247,40.0994 Z" transform=""/><path fill="#ccaa4f" stroke="none" d="M 195.244,20.8669 L 196.636,21.3659 S 197.169,20.4309 198.241,20.4069 C 198.05,18.3959 197.208,15.5909 196.535,14.3009 C 195.807,12.9039 194.538,14.2679 194.538,14.2679 L 193.585,15.6019 C 193.584,15.6019 195.242,16.7769 195.244,20.8669 Z" transform=""/><path fill="#eec65e" stroke="none" d="M 195.244,20.8669 S 196.035,21.6059 196.636,21.3659 C 197.262,16.0929 194.537,14.2679 194.537,14.2679 L 193.584,15.6019 S 195.242,16.7769 195.244,20.8669 Z" transform=""/><path fill="#eec65e" stroke="none" d="M 196.636,21.3658 C 196.666,21.1168 196.782,21.3758 196.799,21.1408 C 197.155,16.0528 194.537,14.2688 194.537,14.2688 L 194.44,14.4048 S 196.811,15.7548 196.636,21.3658 Z" transform=""/><path fill="#ccaa4f" stroke="none" d="M 161.425,36.0376 S 162.556,37.6276 161.772,38.1906 C 160.986,38.7536 160.006,37.9296 160.006,37.9296 S 160.135,36.5216 161.425,36.0376 Z" transform=""/><path fill="#deb958" stroke="none" d="M 233.868,45.1413 C 226.606,46.7773 219.616,47.2083 213.323,43.2323 C 211.286,41.9433 209.839,40.0493 210.014,37.8013 C 210.091,36.8173 210.953,35.4293 213.843,35.9693 C 220.29,37.1773 225.097,36.6953 230.312,35.2193 C 235.825,33.6573 240.063,29.5183 241.632,25.7403 C 242.952,22.5593 244.992,19.1973 248.241,20.4063 C 250.001,21.0613 250.445,28.0473 249.537,31.3933 C 247.719,38.0953 241.129,43.5033 233.868,45.1413 L 233.868,45.1413 Z" transform=""/><path fill="#ccaa4f" stroke="none" d="M 248.861,21.157 C 249.489,23.624 249.567,27.745 248.954,30.006 C 247.161,36.612 240.931,42.246 233.774,43.86 C 226.615,45.474 218.865,45.757 212.663,41.837 C 211.793,41.286 210.604,39.878 210.062,38.166 C 210.145,40.582 211.711,42.083 213.119,42.973 C 219.322,46.893 226.946,46.634 234.104,45.021 C 241.261,43.407 247.756,38.077 249.548,31.471 C 250.331,28.585 250.094,22.952 248.861,21.157 Z" transform=""/><path fill="#eec65e" stroke="none" d="M 224.247,40.0994 C 237.431,39.6484 247.032,32.2054 246.78,20.1584 C 244.36,20.2634 242.741,23.0654 241.631,25.7404 C 240.062,29.5184 235.824,33.6564 230.311,35.2194 C 225.096,36.6944 220.288,37.1774 213.842,35.9694 C 210.953,35.4284 210.09,36.8164 210.013,37.8014 C 210.01,37.8534 211.663,37.1474 211.66,37.1994 C 216.086,39.3524 219.308,40.2694 224.247,40.0994 Z" transform=""/><path fill="#ccaa4f" stroke="none" d="M 245.244,20.8669 L 246.636,21.3659 S 247.169,20.4309 248.241,20.4069 C 248.05,18.3959 247.208,15.5909 246.535,14.3009 C 245.807,12.9039 244.538,14.2679 244.538,14.2679 L 243.585,15.6019 C 243.584,15.6019 245.242,16.7769 245.244,20.8669 Z" transform=""/><path fill="#eec65e" stroke="none" d="M 245.244,20.8669 S 246.035,21.6059 246.636,21.3659 C 247.262,16.0929 244.537,14.2679 244.537,14.2679 L 243.584,15.6019 S 245.242,16.7769 245.244,20.8669 Z" transform=""/><path fill="#eec65e" stroke="none" d="M 246.636,21.3658 C 246.666,21.1168 246.782,21.3758 246.799,21.1408 C 247.155,16.0528 244.537,14.2688 244.537,14.2688 L 244.44,14.4048 S 246.811,15.7548 246.636,21.3658 Z" transform=""/><path fill="#ccaa4f" stroke="none" d="M 211.425,36.0376 S 212.556,37.6276 211.772,38.1906 C 210.986,38.7536 210.006,37.9296 210.006,37.9296 S 210.135,36.5216 211.425,36.0376 Z" transform=""/><path fill="#deb958" stroke="none" d="M 283.868,45.1413 C 276.606,46.7773 269.616,47.2083 263.323,43.2323 C 261.286,41.9433 259.839,40.0493 260.014,37.8013 C 260.091,36.8173 260.953,35.4293 263.843,35.9693 C 270.29,37.1773 275.097,36.6953 280.312,35.2193 C 285.825,33.6573 290.063,29.5183 291.632,25.7403 C 292.952,22.5593 294.992,19.1973 298.241,20.4063 C 300.001,21.0613 300.445,28.0473 299.537,31.3933 C 297.719,38.0953 291.129,43.5033 283.868,45.1413 L 283.868,45.1413 Z" transform=""/><path fill="#ccaa4f" stroke="none" d="M 298.861,21.157 C 299.489,23.624 299.567,27.745 298.954,30.006 C 297.161,36.612 290.931,42.246 283.774,43.86 C 276.615,45.474 268.865,45.757 262.663,41.837 C 261.793,41.286 260.604,39.878 260.062,38.166 C 260.145,40.582 261.711,42.083 263.119,42.973 C 269.322,46.893 276.946,46.634 284.104,45.021 C 291.261,43.407 297.756,38.077 299.548,31.471 C 300.331,28.585 300.094,22.952 298.861,21.157 Z" transform=""/><path fill="#eec65e" stroke="none" d="M 274.247,40.0994 C 287.431,39.6484 297.032,32.2054 296.78,20.1584 C 294.36,20.2634 292.741,23.0654 291.631,25.7404 C 290.062,29.5184 285.824,33.6564 280.311,35.2194 C 275.096,36.6944 270.288,37.1774 263.842,35.9694 C 260.953,35.4284 260.09,36.8164 260.013,37.8014 C 260.01,37.8534 261.663,37.1474 261.66,37.1994 C 266.086,39.3524 269.308,40.2694 274.247,40.0994 Z" transform=""/><path fill="#ccaa4f" stroke="none" d="M 295.244,20.8669 L 296.636,21.3659 S 297.169,20.4309 298.241,20.4069 C 298.05,18.3959 297.208,15.5909 296.535,14.3009 C 295.807,12.9039 294.538,14.2679 294.538,14.2679 L 293.585,15.6019 C 293.584,15.6019 295.242,16.7769 295.244,20.8669 Z" transform=""/><path fill="#eec65e" stroke="none" d="M 295.244,20.8669 S 296.035,21.6059 296.636,21.3659 C 297.262,16.0929 294.537,14.2679 294.537,14.2679 L 293.584,15.6019 S 295.242,16.7769 295.244,20.8669 Z" transform=""/><path fill="#eec65e" stroke="none" d="M 296.636,21.3658 C 296.666,21.1168 296.782,21.3758 296.799,21.1408 C 297.155,16.0528 294.537,14.2688 294.537,14.2688 L 294.44,14.4048 S 296.811,15.7548 296.636,21.3658 Z" transform=""/><path fill="#ccaa4f" stroke="none" d="M 261.425,36.0376 S 262.556,37.6276 261.772,38.1906 C 260.986,38.7536 260.006,37.9296 260.006,37.9296 S 260.135,36.5216 261.425,36.0376 Z" transform=""/></svg>