<svg xmlns="http://www.w3.org/2000/svg" version="1.1" width="400" height="80" viewBox="0 0 400 80"><defs/><path fill="#deb958" stroke="none" d="M 45.1576,60.1884 C 35.4756,62.3704 26.1546,62.9444 17.7646,57.6424 C 15.0486,55.9244 13.1186,53.3984 13.3526,50.4024 C 13.4556,49.0894 14.6046,47.2384 18.4576,47.9594 C 27.0536,49.5694 33.4636,48.9274 40.4156,46.9584 C 47.7676,44.8754 53.4176,39.3574 55.5096,34.3204 C 57.2696,30.0784 59.9896,25.5954 64.3216,27.2084 C 66.6676,28.0824 67.2596,37.3954 66.0496,41.8574 C 63.6256,50.7944 54.8396,58.0044 45.1576,60.1884 M 45.1576,60.1884 L 45.1576,60.1884 Z" transform=""/><path fill="#ccaa4f" stroke="none" d="M 65.148,28.2094 C 65.985,31.4984 66.089,36.9924 65.272,40.0074 C 62.882,48.8154 54.575,56.3284 45.032,58.4794 C 35.487,60.6324 25.153,61.0094 16.884,55.7824 C 15.723,55.0484 14.139,53.1704 13.416,50.8884 C 13.526,54.1094 15.615,56.1104 17.492,57.2974 C 25.763,62.5234 35.928,62.1794 45.472,60.0284 C 55.015,57.8754 63.675,50.7694 66.064,41.9624 C 67.108,38.1134 66.791,30.6024 65.148,28.2094 Z" transform=""/><path fill="#eec65e" stroke="none" d="M 32.3299,53.4658 C 49.9089,52.8648 62.7099,42.9408 62.3739,26.8778 C 59.1469,27.0178 56.9889,30.7538 55.5089,34.3198 C 53.4169,39.3568 47.7659,44.8758 40.4149,46.9588 C 33.4619,48.9268 27.0519,49.5698 18.4569,47.9598 C 14.6039,47.2388 13.4549,49.0888 13.3519,50.4018 C 13.3469,50.4708 15.5519,49.5298 15.5479,49.5988 C 21.4489,52.4698 25.7439,53.6928 32.3299,53.4658 Z" transform=""/><path fill="#ccaa4f" stroke="none" d="M 60.3254,27.8226 L 62.1814,28.4876 S 62.8924,27.2406 64.3214,27.2096 C 64.0674,24.5286 62.9434,20.7886 62.0474,19.0676 C 61.0764,17.2046 59.3834,19.0246 59.3834,19.0246 L 58.1134,20.8026 C 58.1124,20.8026 60.3234,22.3696 60.3254,27.8226 Z" transform=""/><path fill="#eec65e" stroke="none" d="M 60.3254,27.8226 S 61.3804,28.8086 62.1814,28.4876 C 63.0164,21.4576 59.3824,19.0246 59.3824,19.0246 L 58.1124,20.8026 S 60.3234,22.3696 60.3254,27.8226 Z" transform=""/><path fill="#eec65e" stroke="none" d="M 62.1816,28.4877 C 62.2216,28.1547 62.3766,28.5007 62.3986,28.1887 C 62.8746,21.4047 59.3826,19.0247 59.3826,19.0247 L 59.2536,19.2057 C 59.2536,19.2067 62.4146,21.0057 62.1816,28.4877 Z" transform=""/><path fill="#ccaa4f" stroke="none" d="M 15.2338,48.0501 S 16.7418,50.1701 15.6958,50.9201 C 14.6478,51.6721 13.3408,50.5731 13.3408,50.5731 S 13.5148,48.6951 15.2338,48.0501 Z" transform=""/><path fill="#deb958" stroke="none" d="M 111.824,60.1884 C 102.142,62.3704 92.8213,62.9444 84.4313,57.6424 C 81.7153,55.9244 79.7853,53.3984 80.0193,50.4024 C 80.1223,49.0894 81.2713,47.2384 85.1243,47.9594 C 93.7203,49.5694 100.13,48.9274 107.082,46.9584 C 114.434,44.8754 120.084,39.3574 122.176,34.3204 C 123.936,30.0784 126.656,25.5954 130.988,27.2084 C 133.334,28.0824 133.926,37.3954 132.716,41.8574 C 130.292,50.7944 121.506,58.0044 111.824,60.1884 M 111.824,60.1884 L 111.824,60.1884 Z" transform=""/><path fill="#ccaa4f" stroke="none" d="M 131.815,28.2094 C 132.652,31.4984 132.756,36.9924 131.939,40.0074 C 129.549,48.8154 121.242,56.3284 111.699,58.4794 C 102.154,60.6324 91.8197,61.0094 83.5507,55.7824 C 82.3897,55.0484 80.8057,53.1704 80.0827,50.8884 C 80.1927,54.1094 82.2817,56.1104 84.1587,57.2974 C 92.4297,62.5234 102.595,62.1794 112.139,60.0284 C 121.682,57.8754 130.342,50.7694 132.731,41.9624 C 133.775,38.1134 133.458,30.6024 131.815,28.2094 Z" transform=""/><path fill="#eec65e" stroke="none" d="M 98.9965,53.4658 C 116.576,52.8648 129.377,42.9408 129.041,26.8778 C 125.814,27.0178 123.656,30.7538 122.176,34.3198 C 120.084,39.3568 114.433,44.8758 107.082,46.9588 C 100.129,48.9268 93.7185,49.5698 85.1235,47.9598 C 81.2705,47.2388 80.1215,49.0888 80.0185,50.4018 C 80.0135,50.4708 82.2185,49.5298 82.2145,49.5988 C 88.1155,52.4698 92.4105,53.6928 98.9965,53.4658 Z" transform=""/><path fill="#ccaa4f" stroke="none" d="M 126.992,27.8226 L 128.848,28.4876 S 129.559,27.2406 130.988,27.2096 C 130.734,24.5286 129.61,20.7886 128.714,19.0676 C 127.743,17.2046 126.05,19.0246 126.05,19.0246 L 124.78,20.8026 C 124.779,20.8026 126.99,22.3696 126.992,27.8226 Z" transform=""/><path fill="#eec65e" stroke="none" d="M 126.992,27.8226 S 128.047,28.8086 128.848,28.4876 C 129.683,21.4576 126.049,19.0246 126.049,19.0246 L 124.779,20.8026 S 126.99,22.3696 126.992,27.8226 Z" transform=""/><path fill="#eec65e" stroke="none" d="M 128.848,28.4877 C 128.888,28.1547 129.043,28.5007 129.065,28.1887 C 129.541,21.4047 126.049,19.0247 126.049,19.0247 L 125.92,19.2057 C 125.92,19.2067 129.081,21.0057 128.848,28.4877 Z" transform=""/><path fill="#ccaa4f" stroke="none" d="M 81.9005,48.0501 S 83.4085,50.1701 82.3625,50.9201 C 81.3145,51.6721 80.0075,50.5731 80.0075,50.5731 S 80.1815,48.6951 81.9005,48.0501 Z" transform=""/><path fill="#deb958" stroke="none" d="M 178.491,60.1884 C 168.809,62.3704 159.488,62.9444 151.098,57.6424 C 148.382,55.9244 146.452,53.3984 146.686,50.4024 C 146.789,49.0894 147.938,47.2384 151.791,47.9594 C 160.387,49.5694 166.797,48.9274 173.749,46.9584 C 181.101,44.8754 186.751,39.3574 188.843,34.3204 C 190.603,30.0784 193.323,25.5954 197.655,27.2084 C 200.001,28.0824 200.593,37.3954 199.383,41.8574 C 196.959,50.7944 188.173,58.0044 178.491,60.1884 M 178.491,60.1884 L 178.491,60.1884 Z" transform=""/><path fill="#ccaa4f" stroke="none" d="M 198.481,28.2094 C 199.318,31.4984 199.422,36.9924 198.605,40.0074 C 196.215,48.8154 187.908,56.3284 178.365,58.4794 C 168.82,60.6324 158.486,61.0094 150.217,55.7824 C 149.056,55.0484 147.472,53.1704 146.749,50.8884 C 146.859,54.1094 148.948,56.1104 150.825,57.2974 C 159.096,62.5234 169.261,62.1794 178.805,60.0284 C 188.348,57.8754 197.008,50.7694 199.397,41.9624 C 200.441,38.1134 200.124,30.6024 198.481,28.2094 Z" transform=""/><path fill="#eec65e" stroke="none" d="M 165.663,53.4658 C 183.242,52.8648 196.043,42.9408 195.707,26.8778 C 192.48,27.0178 190.322,30.7538 188.842,34.3198 C 186.75,39.3568 181.099,44.8758 173.748,46.9588 C 166.795,48.9268 160.385,49.5698 151.79,47.9598 C 147.937,47.2388 146.788,49.0888 146.685,50.4018 C 146.68,50.4708 148.885,49.5298 148.881,49.5988 C 154.782,52.4698 159.077,53.6928 165.663,53.4658 Z" transform=""/><path fill="#ccaa4f" stroke="none" d="M 193.659,27.8226 L 195.515,28.4876 S 196.226,27.2406 197.655,27.2096 C 197.401,24.5286 196.277,20.7886 195.381,19.0676 C 194.41,17.2046 192.717,19.0246 192.717,19.0246 L 191.447,20.8026 C 191.446,20.8026 193.657,22.3696 193.659,27.8226 Z" transform=""/><path fill="#eec65e" stroke="none" d="M 193.659,27.8226 S 194.714,28.8086 195.515,28.4876 C 196.35,21.4576 192.716,19.0246 192.716,19.0246 L 191.446,20.8026 S 193.657,22.3696 193.659,27.8226 Z" transform=""/><path fill="#eec65e" stroke="none" d="M 195.515,28.4877 C 195.555,28.1547 195.71,28.5007 195.732,28.1887 C 196.208,21.4047 192.716,19.0247 192.716,19.0247 L 192.587,19.2057 C 192.587,19.2067 195.748,21.0057 195.515,28.4877 Z" transform=""/><path fill="#ccaa4f" stroke="none" d="M 148.567,48.0501 S 150.075,50.1701 149.029,50.9201 C 147.981,51.6721 146.674,50.5731 146.674,50.5731 S 146.848,48.6951 148.567,48.0501 Z" transform=""/></svg>