<svg xmlns="http://www.w3.org/2000/svg" version="1.1" width="400" height="66.66666666666666" viewBox="0 0 400 66.66666666666666"><defs><linearGradient id="r-33d19944870b444e8a241edb84f99fcb" x1="0" y1="1" x2="0.8284485439887714" y2="0"><stop offset="0%" stop-color="#fdd1b0"/><stop offset="100%" stop-color="#eeb490"/></linearGradient><linearGradient id="r-f36af552eb5941688d08983a96c7493f" x1="0" y1="1" x2="0.8284485439887714" y2="0"><stop offset="0%" stop-color="#fdd1b0"/><stop offset="100%" stop-color="#eeb490"/></linearGradient><linearGradient id="r-7288b70dfdda43c39626fc82839c53c7" x1="0" y1="1" x2="0.8284485439887714" y2="0"><stop offset="0%" stop-color="#fdd1b0"/><stop offset="100%" stop-color="#eeb490"/></linearGradient><linearGradient id="r-85b1119f037e402b9f714e0f4ee52d0a" x1="0" y1="1" x2="0.8284485439887714" y2="0"><stop offset="0%" stop-color="#fdd1b0"/><stop offset="100%" stop-color="#eeb490"/></linearGradient><linearGradient id="r-fa79923df1f841c3a6fe6679cc0d6d86" x1="0" y1="1" x2="0.8284485439887714" y2="0"><stop offset="0%" stop-color="#fdd1b0"/><stop offset="100%" stop-color="#eeb490"/></linearGradient><linearGradient id="r-e171aac003984270962aad276be2b731" x1="0" y1="1" x2="0.8284485439887714" y2="0"><stop offset="0%" stop-color="#fdd1b0"/><stop offset="100%" stop-color="#eeb490"/></linearGradient><linearGradient id="r-81b846409332419ca373a04f66bb531e" x1="0" y1="1" x2="0.8284485439887714" y2="0"><stop offset="0%" stop-color="#fdd1b0"/><stop offset="100%" stop-color="#eeb490"/></linearGradient></defs><path fill="none" stroke="#edaa84" d="M 38.4051,29.471 S 41.2501,28.592 43.0521,28.909" style="stroke-linecap: round;stroke-linejoin: round;stroke-width: 0.36719169962863235px" stroke-width="0.36719169962863235" stroke-linecap="round" stroke-linejoin="round" transform=""/><path fill="none" stroke="#edaa84" d="M 38.8462,29.423 S 41.8232,29.455 43.4412,30.31" style="stroke-linecap: round;stroke-linejoin: round;stroke-width: 0.36719169962863235px" stroke-width="0.36719169962863235" stroke-linecap="round" stroke-linejoin="round" transform=""/><path fill="#d78334" stroke="none" d="M 47.9207,15.3468 C 45.1197,16.0658 43.9997,17.7028 43.5557,18.9478 C 42.7637,21.1698 43.5187,23.6738 44.6207,25.1708 C 44.8517,25.4858 45.2927,25.5538 45.6057,25.3228 C 45.9207,25.0918 45.9887,24.6498 45.7577,24.3358 C 44.9067,23.1768 44.2697,21.1458 44.8847,19.4218 C 45.3647,18.0788 46.5037,17.1678 48.2717,16.7138 C 50.8217,16.0598 52.2757,17.2848 53.0487,18.4278 C 54.3337,20.3338 54.4147,23.0538 53.6267,24.1228 C 53.0347,24.9278 52.2937,25.4348 51.5777,25.9248 C 50.0497,26.9708 48.4687,28.0518 49.1527,31.6108 C 49.4077,32.9308 49.1887,33.9608 48.4837,34.7598 C 46.5337,36.9708 41.5957,36.6758 41.5467,36.6728 C 41.1577,36.6488 40.8217,36.9428 40.7967,37.3318 C 40.7707,37.7218 41.0647,38.0568 41.4537,38.0818 C 41.6847,38.0978 47.1297,38.4258 49.5417,35.6958 C 50.5417,34.5628 50.8767,33.0978 50.5387,31.3428 C 50.0297,28.6938 50.9117,28.0898 52.3747,27.0888 C 53.1497,26.5598 54.0287,25.9578 54.7647,24.9598 C 56.0077,23.2728 55.7567,19.9198 54.2157,17.6388 C 52.7677,15.4898 50.5317,14.6758 47.9207,15.3468 Z" transform=""/><path fill="#d78334" stroke="none" d="M 35.0076,39.1961 C 34.5486,38.6331 31.8246,37.7441 29.6896,41.9361 C 27.5536,46.1261 25.6806,42.9971 24.2656,44.3171 C 22.8506,45.6361 27.9746,45.1851 29.4616,45.4541 C 30.8316,45.7051 29.5346,44.6621 30.1226,43.8131 C 30.6276,43.0811 31.2806,42.9431 33.0496,42.5921 C 34.8376,42.2401 35.8286,40.2061 35.0076,39.1961 Z" transform=""/><path fill="#d78334" stroke="none" d="M 39.5869,42.0155 C 40.0469,44.6615 43.4479,46.5455 47.3539,43.5845 C 51.2599,40.6245 51.5959,44.4085 53.5189,43.8125 C 55.4439,43.2175 50.4349,41.3165 49.1659,40.3865 C 47.9949,39.5305 48.7379,41.0965 47.8009,41.6255 C 46.9959,42.0815 46.0109,38.6365 44.1559,38.3275 C 40.7989,37.7785 39.1989,39.7795 39.5869,42.0155 Z" transform=""/><path fill="#d78334" stroke="none" d="M 30.6716,25.6095 S 33.0326,21.7175 31.3836,18.5825 C 29.2526,14.5345 22.5586,16.8505 23.3206,21.7425 C 23.7196,24.3055 26.2226,25.9885 26.2226,25.9885 L 30.6716,25.6095 Z" transform=""/><path fill="#f4953f" stroke="none" d="M 33.9808,37.3718 S 36.6828,39.3148 38.4258,37.7138 C 41.0568,35.2918 42.7478,35.6238 43.8798,35.8438 C 47.1438,36.4758 50.0118,44.9368 41.6888,47.0818 C 33.7188,49.1338 29.1618,40.3448 29.1618,40.3448 L 33.9808,37.3718 Z" transform=""/><path fill="url(#r-33d19944870b444e8a241edb84f99fcb)" stroke="none" d="M 29.5793,41.056 L 31.2663,40.03 S 31.9663,42.714 35.4773,42.872 C 38.4423,43.004 41.0573,38.239 43.4783,40.239 C 44.7933,41.325 45.9523,43.003 45.8253,44.749 C 44.9623,45.745 43.6343,46.581 41.6893,47.081 C 35.1193,48.774 30.8703,43.102 29.5793,41.056 Z" opacity="1" fill-opacity="1" style="opacity: 1;fill-opacity: 1" transform=""/><path fill="#eeb490" stroke="none" d="M 43.1688,44.1493 L 45.5188,45.0733 C 44.6588,45.9263 43.4178,46.6373 41.6888,47.0823 C 41.3518,47.1703 41.0248,47.2313 40.7008,47.2813 C 41.7758,46.2283 41.3998,44.9623 41.3998,44.9623 L 43.1688,44.1493 Z" transform=""/><path fill="#eeb490" stroke="none" d="M 43.4777,40.2399 C 44.7927,41.3249 45.9517,43.0029 45.8247,44.7499 C 45.2667,45.3929 44.5087,45.9739 43.5147,46.4369 C 40.2207,45.3839 39.0877,42.9749 39.5017,40.9819 C 40.8937,39.9979 42.2117,39.1949 43.4777,40.2399 Z" transform=""/><path fill="#f4953f" stroke="none" d="M 36.2339,39.1826 C 35.6139,38.6776 32.7519,38.2516 31.3769,43.2486 C 30.0019,48.2476 27.2849,45.2856 26.0519,47.0236 C 24.8169,48.7616 30.2499,47.1346 31.9119,47.0996 C 33.4479,47.0636 31.8169,46.2266 32.2609,45.1806 C 32.6439,44.2766 33.2719,43.7746 35.1039,43.0056 C 36.9559,42.2266 37.3439,40.0896 36.2339,39.1826 Z" transform=""/><path fill="#f4953f" stroke="none" d="M 41.2719,26.1256 C 41.0059,24.3706 39.4349,23.3746 38.5399,23.7476 C 33.8109,25.7196 31.6769,23.5476 27.7589,23.9026 C 28.3839,23.3976 29.0909,23.0346 29.0909,23.0346 C 28.2349,23.0566 27.4529,23.5376 26.8769,24.0216 C 26.8149,24.0336 26.7529,24.0436 26.6899,24.0556 C 27.2229,23.2006 28.4159,22.3786 28.4159,22.3786 C 27.2329,22.5616 26.3019,23.6246 25.8409,24.2636 C 21.7979,25.4826 19.5279,29.9856 20.0959,33.9396 C 20.2679,35.1446 20.8519,36.9396 21.7769,38.2896 C 21.6159,39.1656 21.6139,40.1946 22.1009,41.1126 C 22.1009,41.1126 22.0659,40.0976 22.2369,39.1386 C 22.1789,39.8666 22.2569,40.6516 22.6379,41.3686 C 22.6379,41.3686 22.6029,40.3666 22.7719,39.4136 C 22.7739,39.4156 22.7739,39.4166 22.7769,39.4186 C 22.8019,40.0326 22.9399,40.6666 23.2849,41.2446 C 23.2849,41.2446 23.2279,40.5696 23.2749,39.7966 C 25.9589,41.6986 28.6839,41.4056 30.9269,40.9056 C 33.1349,40.4116 34.3289,40.8006 35.7349,39.2356 C 36.1399,38.7846 36.0009,37.0466 36.3469,36.4796 C 36.7009,35.9036 41.7579,29.3106 41.2719,26.1256 Z" transform=""/><path fill="#f4953f" stroke="none" d="M 21.0553,31.5585 L 20.5533,29.6975 L 20.5053,29.7235 C 20.1373,30.8185 19.9673,31.9765 20.0193,33.1125 C 20.3713,32.2215 21.0553,31.5585 21.0553,31.5585 Z" transform=""/><path fill="none" stroke="#edaa84" d="M 35.7348,28.6028 S 31.2118,30.8568 29.1158,36.2348" style="stroke-linecap: round;stroke-linejoin: round;stroke-width: 0.36719169962863235px" stroke-width="0.36719169962863235" stroke-linecap="round" stroke-linejoin="round" transform=""/><path fill="none" stroke="#edaa84" d="M 36.5194,29.5646 S 32.7344,32.1046 31.4704,36.2576" style="stroke-linecap: round;stroke-linejoin: round;stroke-width: 0.36719169962863235px" stroke-width="0.36719169962863235" stroke-linecap="round" stroke-linejoin="round" transform=""/><path fill="none" stroke="#edaa84" d="M 37.325,30.3995 S 34.74,33.3555 35.071,37.0845" style="stroke-linecap: round;stroke-linejoin: round;stroke-width: 0.36719169962863235px" stroke-width="0.36719169962863235" stroke-linecap="round" stroke-linejoin="round" transform=""/><path fill="#cc8461" stroke="none" d="M 37.466,28.8596 C 37.537,28.8856 37.615,28.8476 37.637,28.7766 C 37.661,28.7076 37.623,28.6286 37.552,28.6036 C 37.481,28.5796 37.405,28.6176 37.381,28.6886 C 37.356,28.7616 37.393,28.8376 37.466,28.8596 Z" transform=""/><path fill="#cc8461" stroke="none" d="M 36.5902,28.5659 C 36.6602,28.5909 36.7382,28.5509 36.7632,28.4779 C 36.7872,28.4099 36.7492,28.3349 36.6772,28.3089 C 36.6062,28.2839 36.5292,28.3209 36.5062,28.3929 C 36.4822,28.4639 36.5192,28.5409 36.5902,28.5659 Z" transform=""/><path fill="#cc8461" stroke="none" d="M 38.4665,28.0224 C 38.5375,28.0484 38.6135,28.0134 38.6375,27.9374 C 38.6615,27.8684 38.6255,27.7914 38.5545,27.7664 C 38.4825,27.7444 38.4055,27.7804 38.3815,27.8524 C 38.3575,27.9224 38.3935,28.0004 38.4665,28.0224 Z" transform=""/><path fill="#cc8461" stroke="none" d="M 39.9286,26.7797 C 39.9996,26.8027 40.0746,26.7657 40.0996,26.6937 C 40.1256,26.6227 40.0866,26.5477 40.0146,26.5227 C 39.9436,26.4987 39.8676,26.5347 39.8416,26.6067 C 39.8176,26.6787 39.8556,26.7547 39.9286,26.7797 Z" transform=""/><path fill="#cc8461" stroke="none" d="M 38.7895,27.2588 C 38.8595,27.2818 38.9365,27.2448 38.9605,27.1728 C 38.9845,27.1018 38.9475,27.0258 38.8775,27.0018 C 38.8045,26.9758 38.7285,27.0158 38.7055,27.0868 C 38.6805,27.1568 38.7175,27.2338 38.7895,27.2588 Z" transform=""/><path fill="#cc8461" stroke="none" d="M 39.2868,29.5278 C 39.3578,29.5538 39.4338,29.5158 39.4578,29.4428 C 39.4838,29.3738 39.4438,29.2948 39.3748,29.2708 C 39.3028,29.2488 39.2268,29.2848 39.2028,29.3568 C 39.1778,29.4298 39.2158,29.5048 39.2868,29.5278 Z" transform=""/><path fill="#cc8461" stroke="none" d="M 40.2527,28.6501 C 40.3237,28.6751 40.3997,28.6351 40.4247,28.5671 C 40.4497,28.4941 40.4097,28.4181 40.3397,28.3931 C 40.2697,28.3701 40.1917,28.4071 40.1667,28.4781 C 40.1447,28.5471 40.1817,28.6271 40.2527,28.6501 Z" transform=""/><path fill="#cc8461" stroke="none" d="M 38.0815,29.8759 C 38.1505,29.8989 38.2285,29.8619 38.2545,29.7929 C 38.2765,29.7199 38.2395,29.6439 38.1695,29.6189 C 38.0985,29.5959 38.0185,29.6339 37.9975,29.7039 C 37.9725,29.7739 38.0095,29.8539 38.0815,29.8759 Z" transform=""/><path fill="#cc8461" stroke="none" d="M 38.525,28.7952 C 38.596,28.8212 38.674,28.7832 38.698,28.7122 C 38.722,28.6432 38.683,28.5642 38.613,28.5392 C 38.542,28.5172 38.465,28.5522 38.44,28.6242 C 38.417,28.6962 38.454,28.7722 38.525,28.7952 Z" transform=""/><path fill="#cc8461" stroke="none" d="M 36.9307,29.5816 C 37.0007,29.6066 37.0787,29.5676 37.1007,29.4976 C 37.1257,29.4276 37.0887,29.3496 37.0157,29.3246 C 36.9457,29.3036 36.8697,29.3396 36.8437,29.4086 C 36.8217,29.4816 36.8587,29.5586 36.9307,29.5816 Z" transform=""/><ellipse cx="39.371630668910996" cy="28.19671195632621" rx="0.13573689342549827" ry="0.13573689342549827" fill="#cc8461" stroke="none" r="0.13573689342549827" transform=""/><path fill="#f4953f" stroke="none" d="M 24.0919,26.5304 S 21.9819,19.8734 16.5039,19.9704 C 10.9449,20.0674 8.83287,29.5074 14.2939,31.7344 C 17.5029,33.0424 21.1629,31.7244 21.1629,31.7244 L 24.0919,26.5304 Z" transform=""/><path fill="#f4dbc5" stroke="none" d="M 23.7163,27.559 S 21.6583,27.317 20.7143,25.302 C 19.9123,23.588 20.2643,22.117 18.8253,21.273 C 17.3873,20.426 15.0313,20.746 13.8253,21.729 C 12.5283,22.78 10.1093,27.032 12.9023,30.215 C 15.5023,33.177 21.2583,31.278 21.2583,31.278 L 23.7163,27.559 Z" transform=""/><path fill="#e2bda1" stroke="none" d="M 23.2821,27.4648 C 22.6911,27.2918 21.6221,26.8398 20.9261,25.6958 C 20.2431,25.7448 18.8621,27.5148 19.9011,29.1878 C 20.4471,30.0638 21.3861,30.3578 22.0611,30.3888 L 23.5971,27.7248 L 23.2821,27.4648 Z" transform=""/><path fill="#f4953f" stroke="none" d="M 24.6805,25.4463 S 21.5495,27.2553 20.7925,30.8053 C 20.0365,34.3603 22.8945,30.4833 22.8945,30.4833 L 24.0405,29.0473 L 24.6805,25.4463 Z" transform=""/><path fill="#304454" stroke="none" d="M 38.5402,23.7466 S 40.1382,22.4786 41.0202,23.2076 C 42.2442,24.2206 41.2722,26.1246 41.2722,26.1246 S 38.9922,25.2846 38.5402,23.7466 Z" transform=""/><path fill="#f4953f" stroke="none" d="M 40.5915,38.8591 C 38.7565,41.0311 39.5375,45.0701 44.5915,46.2291 C 49.6435,47.3871 46.8025,50.2291 48.5915,51.3871 C 50.3825,52.5441 48.5225,47.1881 48.4155,45.5281 C 48.3155,43.9971 47.5485,45.6601 46.4835,45.2621 C 45.5655,44.9171 47.6935,41.7771 46.6815,40.0661 C 44.8505,36.9691 42.1395,37.0271 40.5915,38.8591 Z" transform=""/><ellipse cx="30.37262459902973" cy="28.53254395406907" rx="0.6219324039280372" ry="1.0326535211034673" fill="#304454" stroke="none" transform="rotate(-18.3661 30.3726245195319 28.532543476318484)" r="NaN"/><path fill="none" stroke="#edaa84" d="M 93.9606,29.471 S 96.8056,28.592 98.6076,28.909" style="stroke-linecap: round;stroke-linejoin: round;stroke-width: 0.36719169962863235px" stroke-width="0.36719169962863235" stroke-linecap="round" stroke-linejoin="round" transform=""/><path fill="none" stroke="#edaa84" d="M 94.4018,29.423 S 97.3788,29.455 98.9968,30.31" style="stroke-linecap: round;stroke-linejoin: round;stroke-width: 0.36719169962863235px" stroke-width="0.36719169962863235" stroke-linecap="round" stroke-linejoin="round" transform=""/><path fill="#d78334" stroke="none" d="M 103.476,15.3468 C 100.675,16.0658 99.5553,17.7028 99.1113,18.9478 C 98.3193,21.1698 99.0743,23.6738 100.176,25.1708 C 100.407,25.4858 100.848,25.5538 101.161,25.3228 C 101.476,25.0918 101.544,24.6498 101.313,24.3358 C 100.462,23.1768 99.8253,21.1458 100.44,19.4218 C 100.92,18.0788 102.059,17.1678 103.827,16.7138 C 106.377,16.0598 107.831,17.2848 108.604,18.4278 C 109.889,20.3338 109.97,23.0538 109.182,24.1228 C 108.59,24.9278 107.849,25.4348 107.133,25.9248 C 105.605,26.9708 104.024,28.0518 104.708,31.6108 C 104.963,32.9308 104.744,33.9608 104.039,34.7598 C 102.089,36.9708 97.1513,36.6758 97.1023,36.6728 C 96.7133,36.6488 96.3773,36.9428 96.3523,37.3318 C 96.3263,37.7218 96.6203,38.0568 97.0093,38.0818 C 97.2403,38.0978 102.685,38.4258 105.097,35.6958 C 106.097,34.5628 106.432,33.0978 106.094,31.3428 C 105.585,28.6938 106.467,28.0898 107.93,27.0888 C 108.705,26.5598 109.584,25.9578 110.32,24.9598 C 111.563,23.2728 111.312,19.9198 109.771,17.6388 C 108.323,15.4898 106.087,14.6758 103.476,15.3468 Z" transform=""/><path fill="#d78334" stroke="none" d="M 90.5631,39.1961 C 90.1041,38.6331 87.3801,37.7441 85.2451,41.9361 C 83.1091,46.1261 81.2361,42.9971 79.8211,44.3171 C 78.4061,45.6361 83.5301,45.1851 85.0171,45.4541 C 86.3871,45.7051 85.0901,44.6621 85.6781,43.8131 C 86.1831,43.0811 86.8361,42.9431 88.6051,42.5921 C 90.3931,42.2401 91.3841,40.2061 90.5631,39.1961 Z" transform=""/><path fill="#d78334" stroke="none" d="M 95.1425,42.0155 C 95.6025,44.6615 99.0035,46.5455 102.909,43.5845 C 106.815,40.6245 107.151,44.4085 109.074,43.8125 C 110.999,43.2175 105.99,41.3165 104.721,40.3865 C 103.55,39.5305 104.293,41.0965 103.356,41.6255 C 102.551,42.0815 101.566,38.6365 99.7115,38.3275 C 96.3545,37.7785 94.7545,39.7795 95.1425,42.0155 Z" transform=""/><path fill="#d78334" stroke="none" d="M 86.2272,25.6095 S 88.5882,21.7175 86.9392,18.5825 C 84.8082,14.5345 78.1142,16.8505 78.8762,21.7425 C 79.2752,24.3055 81.7782,25.9885 81.7782,25.9885 L 86.2272,25.6095 Z" transform=""/><path fill="#f4953f" stroke="none" d="M 89.5363,37.3718 S 92.2383,39.3148 93.9813,37.7138 C 96.6123,35.2918 98.3033,35.6238 99.4353,35.8438 C 102.699,36.4758 105.567,44.9368 97.2443,47.0818 C 89.2743,49.1338 84.7173,40.3448 84.7173,40.3448 L 89.5363,37.3718 Z" transform=""/><path fill="url(#r-f36af552eb5941688d08983a96c7493f)" stroke="none" d="M 85.1348,41.056 L 86.8218,40.03 S 87.5218,42.714 91.0328,42.872 C 93.9978,43.004 96.6128,38.239 99.0338,40.239 C 100.349,41.325 101.508,43.003 101.381,44.749 C 100.518,45.745 99.1898,46.581 97.2448,47.081 C 90.6748,48.774 86.4258,43.102 85.1348,41.056 Z" opacity="1" fill-opacity="1" style="opacity: 1;fill-opacity: 1" transform=""/><path fill="#eeb490" stroke="none" d="M 98.7243,44.1493 L 101.074,45.0733 C 100.214,45.9263 98.9733,46.6373 97.2443,47.0823 C 96.9073,47.1703 96.5803,47.2313 96.2563,47.2813 C 97.3313,46.2283 96.9553,44.9623 96.9553,44.9623 L 98.7243,44.1493 Z" transform=""/><path fill="#eeb490" stroke="none" d="M 99.0332,40.2399 C 100.348,41.3249 101.507,43.0029 101.38,44.7499 C 100.822,45.3929 100.064,45.9739 99.0702,46.4369 C 95.7762,45.3839 94.6432,42.9749 95.0572,40.9819 C 96.4492,39.9979 97.7672,39.1949 99.0332,40.2399 Z" transform=""/><path fill="#f4953f" stroke="none" d="M 91.7894,39.1826 C 91.1694,38.6776 88.3074,38.2516 86.9324,43.2486 C 85.5574,48.2476 82.8404,45.2856 81.6074,47.0236 C 80.3724,48.7616 85.8054,47.1346 87.4674,47.0996 C 89.0034,47.0636 87.3724,46.2266 87.8164,45.1806 C 88.1994,44.2766 88.8274,43.7746 90.6594,43.0056 C 92.5114,42.2266 92.8994,40.0896 91.7894,39.1826 Z" transform=""/><path fill="#f4953f" stroke="none" d="M 96.8275,26.1256 C 96.5615,24.3706 94.9905,23.3746 94.0955,23.7476 C 89.3665,25.7196 87.2325,23.5476 83.3145,23.9026 C 83.9395,23.3976 84.6465,23.0346 84.6465,23.0346 C 83.7905,23.0566 83.0085,23.5376 82.4325,24.0216 C 82.3705,24.0336 82.3085,24.0436 82.2455,24.0556 C 82.7785,23.2006 83.9715,22.3786 83.9715,22.3786 C 82.7885,22.5616 81.8575,23.6246 81.3965,24.2636 C 77.3535,25.4826 75.0835,29.9856 75.6515,33.9396 C 75.8235,35.1446 76.4075,36.9396 77.3325,38.2896 C 77.1715,39.1656 77.1695,40.1946 77.6565,41.1126 C 77.6565,41.1126 77.6215,40.0976 77.7925,39.1386 C 77.7345,39.8666 77.8125,40.6516 78.1935,41.3686 C 78.1935,41.3686 78.1585,40.3666 78.3275,39.4136 C 78.3295,39.4156 78.3295,39.4166 78.3325,39.4186 C 78.3575,40.0326 78.4955,40.6666 78.8405,41.2446 C 78.8405,41.2446 78.7835,40.5696 78.8305,39.7966 C 81.5145,41.6986 84.2395,41.4056 86.4825,40.9056 C 88.6905,40.4116 89.8845,40.8006 91.2905,39.2356 C 91.6955,38.7846 91.5565,37.0466 91.9025,36.4796 C 92.2565,35.9036 97.3135,29.3106 96.8275,26.1256 Z" transform=""/><path fill="#f4953f" stroke="none" d="M 76.6109,31.5585 L 76.1089,29.6975 L 76.0609,29.7235 C 75.6929,30.8185 75.5229,31.9765 75.5749,33.1125 C 75.9269,32.2215 76.6109,31.5585 76.6109,31.5585 Z" transform=""/><path fill="none" stroke="#edaa84" d="M 91.2904,28.6028 S 86.7674,30.8568 84.6714,36.2348" style="stroke-linecap: round;stroke-linejoin: round;stroke-width: 0.36719169962863235px" stroke-width="0.36719169962863235" stroke-linecap="round" stroke-linejoin="round" transform=""/><path fill="none" stroke="#edaa84" d="M 92.075,29.5646 S 88.29,32.1046 87.026,36.2576" style="stroke-linecap: round;stroke-linejoin: round;stroke-width: 0.36719169962863235px" stroke-width="0.36719169962863235" stroke-linecap="round" stroke-linejoin="round" transform=""/><path fill="none" stroke="#edaa84" d="M 92.8806,30.3995 S 90.2956,33.3555 90.6266,37.0845" style="stroke-linecap: round;stroke-linejoin: round;stroke-width: 0.36719169962863235px" stroke-width="0.36719169962863235" stroke-linecap="round" stroke-linejoin="round" transform=""/><path fill="#cc8461" stroke="none" d="M 93.0216,28.8596 C 93.0926,28.8856 93.1706,28.8476 93.1926,28.7766 C 93.2166,28.7076 93.1786,28.6286 93.1076,28.6036 C 93.0366,28.5796 92.9606,28.6176 92.9366,28.6886 C 92.9116,28.7616 92.9486,28.8376 93.0216,28.8596 Z" transform=""/><path fill="#cc8461" stroke="none" d="M 92.1457,28.5659 C 92.2157,28.5909 92.2937,28.5509 92.3187,28.4779 C 92.3427,28.4099 92.3047,28.3349 92.2327,28.3089 C 92.1617,28.2839 92.0847,28.3209 92.0617,28.3929 C 92.0377,28.4639 92.0747,28.5409 92.1457,28.5659 Z" transform=""/><path fill="#cc8461" stroke="none" d="M 94.0221,28.0224 C 94.0931,28.0484 94.1691,28.0134 94.1931,27.9374 C 94.2171,27.8684 94.1811,27.7914 94.1101,27.7664 C 94.0381,27.7444 93.9611,27.7804 93.9371,27.8524 C 93.9131,27.9224 93.9491,28.0004 94.0221,28.0224 Z" transform=""/><path fill="#cc8461" stroke="none" d="M 95.4842,26.7797 C 95.5552,26.8027 95.6302,26.7657 95.6552,26.6937 C 95.6812,26.6227 95.6422,26.5477 95.5702,26.5227 C 95.4992,26.4987 95.4232,26.5347 95.3972,26.6067 C 95.3732,26.6787 95.4112,26.7547 95.4842,26.7797 Z" transform=""/><path fill="#cc8461" stroke="none" d="M 94.345,27.2588 C 94.415,27.2818 94.492,27.2448 94.516,27.1728 C 94.54,27.1018 94.503,27.0258 94.433,27.0018 C 94.36,26.9758 94.284,27.0158 94.261,27.0868 C 94.236,27.1568 94.273,27.2338 94.345,27.2588 Z" transform=""/><path fill="#cc8461" stroke="none" d="M 94.8423,29.5278 C 94.9133,29.5538 94.9893,29.5158 95.0133,29.4428 C 95.0393,29.3738 94.9993,29.2948 94.9303,29.2708 C 94.8583,29.2488 94.7823,29.2848 94.7583,29.3568 C 94.7333,29.4298 94.7713,29.5048 94.8423,29.5278 Z" transform=""/><path fill="#cc8461" stroke="none" d="M 95.8083,28.6501 C 95.8793,28.6751 95.9553,28.6351 95.9803,28.5671 C 96.0053,28.4941 95.9653,28.4181 95.8953,28.3931 C 95.8253,28.3701 95.7473,28.4071 95.7223,28.4781 C 95.7003,28.5471 95.7373,28.6271 95.8083,28.6501 Z" transform=""/><path fill="#cc8461" stroke="none" d="M 93.6371,29.8759 C 93.7061,29.8989 93.7841,29.8619 93.8101,29.7929 C 93.8321,29.7199 93.7951,29.6439 93.7251,29.6189 C 93.6541,29.5959 93.5741,29.6339 93.5531,29.7039 C 93.5281,29.7739 93.5651,29.8539 93.6371,29.8759 Z" transform=""/><path fill="#cc8461" stroke="none" d="M 94.0806,28.7952 C 94.1516,28.8212 94.2296,28.7832 94.2536,28.7122 C 94.2776,28.6432 94.2386,28.5642 94.1686,28.5392 C 94.0976,28.5172 94.0206,28.5522 93.9956,28.6242 C 93.9726,28.6962 94.0096,28.7722 94.0806,28.7952 Z" transform=""/><path fill="#cc8461" stroke="none" d="M 92.4863,29.5816 C 92.5563,29.6066 92.6343,29.5676 92.6563,29.4976 C 92.6813,29.4276 92.6443,29.3496 92.5713,29.3246 C 92.5013,29.3036 92.4253,29.3396 92.3993,29.4086 C 92.3773,29.4816 92.4143,29.5586 92.4863,29.5816 Z" transform=""/><ellipse cx="94.92718622446654" cy="28.19671195632621" rx="0.13573689342549827" ry="0.13573689342549827" fill="#cc8461" stroke="none" r="0.13573689342549827" transform=""/><path fill="#f4953f" stroke="none" d="M 79.6474,26.5304 S 77.5374,19.8734 72.0594,19.9704 C 66.5004,20.0674 64.3884,29.5074 69.8494,31.7344 C 73.0584,33.0424 76.7184,31.7244 76.7184,31.7244 L 79.6474,26.5304 Z" transform=""/><path fill="#f4dbc5" stroke="none" d="M 79.2718,27.559 S 77.2138,27.317 76.2698,25.302 C 75.4678,23.588 75.8198,22.117 74.3808,21.273 C 72.9428,20.426 70.5868,20.746 69.3808,21.729 C 68.0838,22.78 65.6648,27.032 68.4578,30.215 C 71.0578,33.177 76.8138,31.278 76.8138,31.278 L 79.2718,27.559 Z" transform=""/><path fill="#e2bda1" stroke="none" d="M 78.8377,27.4648 C 78.2467,27.2918 77.1777,26.8398 76.4817,25.6958 C 75.7987,25.7448 74.4177,27.5148 75.4567,29.1878 C 76.0027,30.0638 76.9417,30.3578 77.6167,30.3888 L 79.1527,27.7248 L 78.8377,27.4648 Z" transform=""/><path fill="#f4953f" stroke="none" d="M 80.236,25.4463 S 77.105,27.2553 76.348,30.8053 C 75.592,34.3603 78.45,30.4833 78.45,30.4833 L 79.596,29.0473 L 80.236,25.4463 Z" transform=""/><path fill="#304454" stroke="none" d="M 94.0958,23.7466 S 95.6938,22.4786 96.5758,23.2076 C 97.7998,24.2206 96.8278,26.1246 96.8278,26.1246 S 94.5478,25.2846 94.0958,23.7466 Z" transform=""/><path fill="#f4953f" stroke="none" d="M 96.1471,38.8591 C 94.3121,41.0311 95.0931,45.0701 100.147,46.2291 C 105.199,47.3871 102.358,50.2291 104.147,51.3871 C 105.938,52.5441 104.078,47.1881 103.971,45.5281 C 103.871,43.9971 103.104,45.6601 102.039,45.2621 C 101.121,44.9171 103.249,41.7771 102.237,40.0661 C 100.406,36.9691 97.6951,37.0271 96.1471,38.8591 Z" transform=""/><ellipse cx="85.92818015458528" cy="28.53254395406907" rx="0.6219324039280372" ry="1.0326535211034673" fill="#304454" stroke="none" transform="rotate(-18.3661 85.92818007508745 28.532543476318484)" r="NaN"/><path fill="none" stroke="#edaa84" d="M 149.516,29.471 S 152.361,28.592 154.163,28.909" style="stroke-linecap: round;stroke-linejoin: round;stroke-width: 0.36719169962863235px" stroke-width="0.36719169962863235" stroke-linecap="round" stroke-linejoin="round" transform=""/><path fill="none" stroke="#edaa84" d="M 149.957,29.423 S 152.934,29.455 154.552,30.31" style="stroke-linecap: round;stroke-linejoin: round;stroke-width: 0.36719169962863235px" stroke-width="0.36719169962863235" stroke-linecap="round" stroke-linejoin="round" transform=""/><path fill="#d78334" stroke="none" d="M 159.032,15.3468 C 156.231,16.0658 155.111,17.7028 154.667,18.9478 C 153.875,21.1698 154.63,23.6738 155.732,25.1708 C 155.963,25.4858 156.404,25.5538 156.717,25.3228 C 157.032,25.0918 157.1,24.6498 156.869,24.3358 C 156.018,23.1768 155.381,21.1458 155.996,19.4218 C 156.476,18.0788 157.615,17.1678 159.383,16.7138 C 161.933,16.0598 163.387,17.2848 164.16,18.4278 C 165.445,20.3338 165.526,23.0538 164.738,24.1228 C 164.146,24.9278 163.405,25.4348 162.689,25.9248 C 161.161,26.9708 159.58,28.0518 160.264,31.6108 C 160.519,32.9308 160.3,33.9608 159.595,34.7598 C 157.645,36.9708 152.707,36.6758 152.658,36.6728 C 152.269,36.6488 151.933,36.9428 151.908,37.3318 C 151.882,37.7218 152.176,38.0568 152.565,38.0818 C 152.796,38.0978 158.241,38.4258 160.653,35.6958 C 161.653,34.5628 161.988,33.0978 161.65,31.3428 C 161.141,28.6938 162.023,28.0898 163.486,27.0888 C 164.261,26.5598 165.14,25.9578 165.876,24.9598 C 167.119,23.2728 166.868,19.9198 165.327,17.6388 C 163.879,15.4898 161.643,14.6758 159.032,15.3468 Z" transform=""/><path fill="#d78334" stroke="none" d="M 146.119,39.1961 C 145.66,38.6331 142.936,37.7441 140.801,41.9361 C 138.665,46.1261 136.792,42.9971 135.377,44.3171 C 133.962,45.6361 139.086,45.1851 140.573,45.4541 C 141.943,45.7051 140.646,44.6621 141.234,43.8131 C 141.739,43.0811 142.392,42.9431 144.161,42.5921 C 145.949,42.2401 146.94,40.2061 146.119,39.1961 Z" transform=""/><path fill="#d78334" stroke="none" d="M 150.698,42.0155 C 151.158,44.6615 154.559,46.5455 158.465,43.5845 C 162.371,40.6245 162.707,44.4085 164.63,43.8125 C 166.555,43.2175 161.546,41.3165 160.277,40.3865 C 159.106,39.5305 159.849,41.0965 158.912,41.6255 C 158.107,42.0815 157.122,38.6365 155.267,38.3275 C 151.91,37.7785 150.31,39.7795 150.698,42.0155 Z" transform=""/><path fill="#d78334" stroke="none" d="M 141.783,25.6095 S 144.144,21.7175 142.495,18.5825 C 140.364,14.5345 133.67,16.8505 134.432,21.7425 C 134.831,24.3055 137.334,25.9885 137.334,25.9885 L 141.783,25.6095 Z" transform=""/><path fill="#f4953f" stroke="none" d="M 145.092,37.3718 S 147.794,39.3148 149.537,37.7138 C 152.168,35.2918 153.859,35.6238 154.991,35.8438 C 158.255,36.4758 161.123,44.9368 152.8,47.0818 C 144.83,49.1338 140.273,40.3448 140.273,40.3448 L 145.092,37.3718 Z" transform=""/><path fill="url(#r-7288b70dfdda43c39626fc82839c53c7)" stroke="none" d="M 140.69,41.056 L 142.377,40.03 S 143.077,42.714 146.588,42.872 C 149.553,43.004 152.168,38.239 154.589,40.239 C 155.904,41.325 157.063,43.003 156.936,44.749 C 156.073,45.745 154.745,46.581 152.8,47.081 C 146.23,48.774 141.981,43.102 140.69,41.056 Z" opacity="1" fill-opacity="1" style="opacity: 1;fill-opacity: 1" transform=""/><path fill="#eeb490" stroke="none" d="M 154.28,44.1493 L 156.63,45.0733 C 155.77,45.9263 154.529,46.6373 152.8,47.0823 C 152.463,47.1703 152.136,47.2313 151.812,47.2813 C 152.887,46.2283 152.511,44.9623 152.511,44.9623 L 154.28,44.1493 Z" transform=""/><path fill="#eeb490" stroke="none" d="M 154.589,40.2399 C 155.904,41.3249 157.063,43.0029 156.936,44.7499 C 156.378,45.3929 155.62,45.9739 154.626,46.4369 C 151.332,45.3839 150.199,42.9749 150.613,40.9819 C 152.005,39.9979 153.323,39.1949 154.589,40.2399 Z" transform=""/><path fill="#f4953f" stroke="none" d="M 147.345,39.1826 C 146.725,38.6776 143.863,38.2516 142.488,43.2486 C 141.113,48.2476 138.396,45.2856 137.163,47.0236 C 135.928,48.7616 141.361,47.1346 143.023,47.0996 C 144.559,47.0636 142.928,46.2266 143.372,45.1806 C 143.755,44.2766 144.383,43.7746 146.215,43.0056 C 148.067,42.2266 148.455,40.0896 147.345,39.1826 Z" transform=""/><path fill="#f4953f" stroke="none" d="M 152.383,26.1256 C 152.117,24.3706 150.546,23.3746 149.651,23.7476 C 144.922,25.7196 142.788,23.5476 138.87,23.9026 C 139.495,23.3976 140.202,23.0346 140.202,23.0346 C 139.346,23.0566 138.564,23.5376 137.988,24.0216 C 137.926,24.0336 137.864,24.0436 137.801,24.0556 C 138.334,23.2006 139.527,22.3786 139.527,22.3786 C 138.344,22.5616 137.413,23.6246 136.952,24.2636 C 132.909,25.4826 130.639,29.9856 131.207,33.9396 C 131.379,35.1446 131.963,36.9396 132.888,38.2896 C 132.727,39.1656 132.725,40.1946 133.212,41.1126 C 133.212,41.1126 133.177,40.0976 133.348,39.1386 C 133.29,39.8666 133.368,40.6516 133.749,41.3686 C 133.749,41.3686 133.714,40.3666 133.883,39.4136 C 133.885,39.4156 133.885,39.4166 133.888,39.4186 C 133.913,40.0326 134.051,40.6666 134.396,41.2446 C 134.396,41.2446 134.339,40.5696 134.386,39.7966 C 137.07,41.6986 139.795,41.4056 142.038,40.9056 C 144.246,40.4116 145.44,40.8006 146.846,39.2356 C 147.251,38.7846 147.112,37.0466 147.458,36.4796 C 147.812,35.9036 152.869,29.3106 152.383,26.1256 Z" transform=""/><path fill="#f4953f" stroke="none" d="M 132.166,31.5585 L 131.664,29.6975 L 131.616,29.7235 C 131.248,30.8185 131.078,31.9765 131.13,33.1125 C 131.482,32.2215 132.166,31.5585 132.166,31.5585 Z" transform=""/><path fill="none" stroke="#edaa84" d="M 146.846,28.6028 S 142.323,30.8568 140.227,36.2348" style="stroke-linecap: round;stroke-linejoin: round;stroke-width: 0.36719169962863235px" stroke-width="0.36719169962863235" stroke-linecap="round" stroke-linejoin="round" transform=""/><path fill="none" stroke="#edaa84" d="M 147.631,29.5646 S 143.846,32.1046 142.582,36.2576" style="stroke-linecap: round;stroke-linejoin: round;stroke-width: 0.36719169962863235px" stroke-width="0.36719169962863235" stroke-linecap="round" stroke-linejoin="round" transform=""/><path fill="none" stroke="#edaa84" d="M 148.436,30.3995 S 145.851,33.3555 146.182,37.0845" style="stroke-linecap: round;stroke-linejoin: round;stroke-width: 0.36719169962863235px" stroke-width="0.36719169962863235" stroke-linecap="round" stroke-linejoin="round" transform=""/><path fill="#cc8461" stroke="none" d="M 148.577,28.8596 C 148.648,28.8856 148.726,28.8476 148.748,28.7766 C 148.772,28.7076 148.734,28.6286 148.663,28.6036 C 148.592,28.5796 148.516,28.6176 148.492,28.6886 C 148.467,28.7616 148.504,28.8376 148.577,28.8596 Z" transform=""/><path fill="#cc8461" stroke="none" d="M 147.701,28.5659 C 147.771,28.5909 147.849,28.5509 147.874,28.4779 C 147.898,28.4099 147.86,28.3349 147.788,28.3089 C 147.717,28.2839 147.64,28.3209 147.617,28.3929 C 147.593,28.4639 147.63,28.5409 147.701,28.5659 Z" transform=""/><path fill="#cc8461" stroke="none" d="M 149.578,28.0224 C 149.649,28.0484 149.725,28.0134 149.749,27.9374 C 149.773,27.8684 149.737,27.7914 149.666,27.7664 C 149.594,27.7444 149.517,27.7804 149.493,27.8524 C 149.469,27.9224 149.505,28.0004 149.578,28.0224 Z" transform=""/><path fill="#cc8461" stroke="none" d="M 151.04,26.7797 C 151.111,26.8027 151.186,26.7657 151.211,26.6937 C 151.237,26.6227 151.198,26.5477 151.126,26.5227 C 151.055,26.4987 150.979,26.5347 150.953,26.6067 C 150.929,26.6787 150.967,26.7547 151.04,26.7797 Z" transform=""/><path fill="#cc8461" stroke="none" d="M 149.901,27.2588 C 149.971,27.2818 150.048,27.2448 150.072,27.1728 C 150.096,27.1018 150.059,27.0258 149.989,27.0018 C 149.916,26.9758 149.84,27.0158 149.817,27.0868 C 149.792,27.1568 149.829,27.2338 149.901,27.2588 Z" transform=""/><path fill="#cc8461" stroke="none" d="M 150.398,29.5278 C 150.469,29.5538 150.545,29.5158 150.569,29.4428 C 150.595,29.3738 150.555,29.2948 150.486,29.2708 C 150.414,29.2488 150.338,29.2848 150.314,29.3568 C 150.289,29.4298 150.327,29.5048 150.398,29.5278 Z" transform=""/><path fill="#cc8461" stroke="none" d="M 151.364,28.6501 C 151.435,28.6751 151.511,28.6351 151.536,28.5671 C 151.561,28.4941 151.521,28.4181 151.451,28.3931 C 151.381,28.3701 151.303,28.4071 151.278,28.4781 C 151.256,28.5471 151.293,28.6271 151.364,28.6501 Z" transform=""/><path fill="#cc8461" stroke="none" d="M 149.193,29.8759 C 149.262,29.8989 149.34,29.8619 149.366,29.7929 C 149.388,29.7199 149.351,29.6439 149.281,29.6189 C 149.21,29.5959 149.13,29.6339 149.109,29.7039 C 149.084,29.7739 149.121,29.8539 149.193,29.8759 Z" transform=""/><path fill="#cc8461" stroke="none" d="M 149.636,28.7952 C 149.707,28.8212 149.785,28.7832 149.809,28.7122 C 149.833,28.6432 149.794,28.5642 149.724,28.5392 C 149.653,28.5172 149.576,28.5522 149.551,28.6242 C 149.528,28.6962 149.565,28.7722 149.636,28.7952 Z" transform=""/><path fill="#cc8461" stroke="none" d="M 148.042,29.5816 C 148.112,29.6066 148.19,29.5676 148.212,29.4976 C 148.237,29.4276 148.2,29.3496 148.127,29.3246 C 148.057,29.3036 147.981,29.3396 147.955,29.4086 C 147.933,29.4816 147.97,29.5586 148.042,29.5816 Z" transform=""/><ellipse cx="150.48274178002208" cy="28.19671195632621" rx="0.13573689342549827" ry="0.13573689342549827" fill="#cc8461" stroke="none" r="0.13573689342549827" transform=""/><path fill="#f4953f" stroke="none" d="M 135.203,26.5304 S 133.093,19.8734 127.615,19.9704 C 122.056,20.0674 119.944,29.5074 125.405,31.7344 C 128.614,33.0424 132.274,31.7244 132.274,31.7244 L 135.203,26.5304 Z" transform=""/><path fill="#f4dbc5" stroke="none" d="M 134.827,27.559 S 132.769,27.317 131.825,25.302 C 131.023,23.588 131.375,22.117 129.936,21.273 C 128.498,20.426 126.142,20.746 124.936,21.729 C 123.639,22.78 121.22,27.032 124.013,30.215 C 126.613,33.177 132.369,31.278 132.369,31.278 L 134.827,27.559 Z" transform=""/><path fill="#e2bda1" stroke="none" d="M 134.393,27.4648 C 133.802,27.2918 132.733,26.8398 132.037,25.6958 C 131.354,25.7448 129.973,27.5148 131.012,29.1878 C 131.558,30.0638 132.497,30.3578 133.172,30.3888 L 134.708,27.7248 L 134.393,27.4648 Z" transform=""/><path fill="#f4953f" stroke="none" d="M 135.792,25.4463 S 132.661,27.2553 131.904,30.8053 C 131.148,34.3603 134.006,30.4833 134.006,30.4833 L 135.152,29.0473 L 135.792,25.4463 Z" transform=""/><path fill="#304454" stroke="none" d="M 149.651,23.7466 S 151.249,22.4786 152.131,23.2076 C 153.355,24.2206 152.383,26.1246 152.383,26.1246 S 150.103,25.2846 149.651,23.7466 Z" transform=""/><path fill="#f4953f" stroke="none" d="M 151.703,38.8591 C 149.868,41.0311 150.649,45.0701 155.703,46.2291 C 160.755,47.3871 157.914,50.2291 159.703,51.3871 C 161.494,52.5441 159.634,47.1881 159.527,45.5281 C 159.427,43.9971 158.66,45.6601 157.595,45.2621 C 156.677,44.9171 158.805,41.7771 157.793,40.0661 C 155.962,36.9691 153.251,37.0271 151.703,38.8591 Z" transform=""/><ellipse cx="141.48373571014082" cy="28.53254395406907" rx="0.6219324039280372" ry="1.0326535211034673" fill="#304454" stroke="none" transform="rotate(-18.3661 141.483735630643 28.532543476318484)" r="NaN"/><path fill="none" stroke="#edaa84" d="M 205.072,29.471 S 207.917,28.592 209.719,28.909" style="stroke-linecap: round;stroke-linejoin: round;stroke-width: 0.36719169962863235px" stroke-width="0.36719169962863235" stroke-linecap="round" stroke-linejoin="round" transform=""/><path fill="none" stroke="#edaa84" d="M 205.513,29.423 S 208.49,29.455 210.108,30.31" style="stroke-linecap: round;stroke-linejoin: round;stroke-width: 0.36719169962863235px" stroke-width="0.36719169962863235" stroke-linecap="round" stroke-linejoin="round" transform=""/><path fill="#d78334" stroke="none" d="M 214.587,15.3468 C 211.786,16.0658 210.666,17.7028 210.222,18.9478 C 209.43,21.1698 210.185,23.6738 211.287,25.1708 C 211.518,25.4858 211.959,25.5538 212.272,25.3228 C 212.587,25.0918 212.655,24.6498 212.424,24.3358 C 211.573,23.1768 210.936,21.1458 211.551,19.4218 C 212.031,18.0788 213.17,17.1678 214.938,16.7138 C 217.488,16.0598 218.942,17.2848 219.715,18.4278 C 221,20.3338 221.081,23.0538 220.293,24.1228 C 219.701,24.9278 218.96,25.4348 218.244,25.9248 C 216.716,26.9708 215.135,28.0518 215.819,31.6108 C 216.074,32.9308 215.855,33.9608 215.15,34.7598 C 213.2,36.9708 208.262,36.6758 208.213,36.6728 C 207.824,36.6488 207.488,36.9428 207.463,37.3318 C 207.437,37.7218 207.731,38.0568 208.12,38.0818 C 208.351,38.0978 213.796,38.4258 216.208,35.6958 C 217.208,34.5628 217.543,33.0978 217.205,31.3428 C 216.696,28.6938 217.578,28.0898 219.041,27.0888 C 219.816,26.5598 220.695,25.9578 221.431,24.9598 C 222.674,23.2728 222.423,19.9198 220.882,17.6388 C 219.434,15.4898 217.198,14.6758 214.587,15.3468 Z" transform=""/><path fill="#d78334" stroke="none" d="M 201.674,39.1961 C 201.215,38.6331 198.491,37.7441 196.356,41.9361 C 194.22,46.1261 192.347,42.9971 190.932,44.3171 C 189.517,45.6361 194.641,45.1851 196.128,45.4541 C 197.498,45.7051 196.201,44.6621 196.789,43.8131 C 197.294,43.0811 197.947,42.9431 199.716,42.5921 C 201.504,42.2401 202.495,40.2061 201.674,39.1961 Z" transform=""/><path fill="#d78334" stroke="none" d="M 206.254,42.0155 C 206.714,44.6615 210.115,46.5455 214.021,43.5845 C 217.927,40.6245 218.263,44.4085 220.186,43.8125 C 222.111,43.2175 217.102,41.3165 215.833,40.3865 C 214.662,39.5305 215.405,41.0965 214.468,41.6255 C 213.663,42.0815 212.678,38.6365 210.823,38.3275 C 207.466,37.7785 205.866,39.7795 206.254,42.0155 Z" transform=""/><path fill="#d78334" stroke="none" d="M 197.338,25.6095 S 199.699,21.7175 198.05,18.5825 C 195.919,14.5345 189.225,16.8505 189.987,21.7425 C 190.386,24.3055 192.889,25.9885 192.889,25.9885 L 197.338,25.6095 Z" transform=""/><path fill="#f4953f" stroke="none" d="M 200.647,37.3718 S 203.349,39.3148 205.092,37.7138 C 207.723,35.2918 209.414,35.6238 210.546,35.8438 C 213.81,36.4758 216.678,44.9368 208.355,47.0818 C 200.385,49.1338 195.828,40.3448 195.828,40.3448 L 200.647,37.3718 Z" transform=""/><path fill="url(#r-85b1119f037e402b9f714e0f4ee52d0a)" stroke="none" d="M 196.246,41.056 L 197.933,40.03 S 198.633,42.714 202.144,42.872 C 205.109,43.004 207.724,38.239 210.145,40.239 C 211.46,41.325 212.619,43.003 212.492,44.749 C 211.629,45.745 210.301,46.581 208.356,47.081 C 201.786,48.774 197.537,43.102 196.246,41.056 Z" opacity="1" fill-opacity="1" style="opacity: 1;fill-opacity: 1" transform=""/><path fill="#eeb490" stroke="none" d="M 209.835,44.1493 L 212.185,45.0733 C 211.325,45.9263 210.084,46.6373 208.355,47.0823 C 208.018,47.1703 207.691,47.2313 207.367,47.2813 C 208.442,46.2283 208.066,44.9623 208.066,44.9623 L 209.835,44.1493 Z" transform=""/><path fill="#eeb490" stroke="none" d="M 210.144,40.2399 C 211.459,41.3249 212.618,43.0029 212.491,44.7499 C 211.933,45.3929 211.175,45.9739 210.181,46.4369 C 206.887,45.3839 205.754,42.9749 206.168,40.9819 C 207.56,39.9979 208.878,39.1949 210.144,40.2399 Z" transform=""/><path fill="#f4953f" stroke="none" d="M 202.901,39.1826 C 202.281,38.6776 199.419,38.2516 198.044,43.2486 C 196.669,48.2476 193.952,45.2856 192.719,47.0236 C 191.484,48.7616 196.917,47.1346 198.579,47.0996 C 200.115,47.0636 198.484,46.2266 198.928,45.1806 C 199.311,44.2766 199.939,43.7746 201.771,43.0056 C 203.623,42.2266 204.011,40.0896 202.901,39.1826 Z" transform=""/><path fill="#f4953f" stroke="none" d="M 207.939,26.1256 C 207.673,24.3706 206.102,23.3746 205.207,23.7476 C 200.478,25.7196 198.344,23.5476 194.426,23.9026 C 195.051,23.3976 195.758,23.0346 195.758,23.0346 C 194.902,23.0566 194.12,23.5376 193.544,24.0216 C 193.482,24.0336 193.42,24.0436 193.357,24.0556 C 193.89,23.2006 195.083,22.3786 195.083,22.3786 C 193.9,22.5616 192.969,23.6246 192.508,24.2636 C 188.465,25.4826 186.195,29.9856 186.763,33.9396 C 186.935,35.1446 187.519,36.9396 188.444,38.2896 C 188.283,39.1656 188.281,40.1946 188.768,41.1126 C 188.768,41.1126 188.733,40.0976 188.904,39.1386 C 188.846,39.8666 188.924,40.6516 189.305,41.3686 C 189.305,41.3686 189.27,40.3666 189.439,39.4136 C 189.441,39.4156 189.441,39.4166 189.444,39.4186 C 189.469,40.0326 189.607,40.6666 189.952,41.2446 C 189.952,41.2446 189.895,40.5696 189.942,39.7966 C 192.626,41.6986 195.351,41.4056 197.594,40.9056 C 199.802,40.4116 200.996,40.8006 202.402,39.2356 C 202.807,38.7846 202.668,37.0466 203.014,36.4796 C 203.368,35.9036 208.425,29.3106 207.939,26.1256 Z" transform=""/><path fill="#f4953f" stroke="none" d="M 187.722,31.5585 L 187.22,29.6975 L 187.172,29.7235 C 186.804,30.8185 186.634,31.9765 186.686,33.1125 C 187.038,32.2215 187.722,31.5585 187.722,31.5585 Z" transform=""/><path fill="none" stroke="#edaa84" d="M 202.401,28.6028 S 197.878,30.8568 195.782,36.2348" style="stroke-linecap: round;stroke-linejoin: round;stroke-width: 0.36719169962863235px" stroke-width="0.36719169962863235" stroke-linecap="round" stroke-linejoin="round" transform=""/><path fill="none" stroke="#edaa84" d="M 203.186,29.5646 S 199.401,32.1046 198.137,36.2576" style="stroke-linecap: round;stroke-linejoin: round;stroke-width: 0.36719169962863235px" stroke-width="0.36719169962863235" stroke-linecap="round" stroke-linejoin="round" transform=""/><path fill="none" stroke="#edaa84" d="M 203.992,30.3995 S 201.407,33.3555 201.738,37.0845" style="stroke-linecap: round;stroke-linejoin: round;stroke-width: 0.36719169962863235px" stroke-width="0.36719169962863235" stroke-linecap="round" stroke-linejoin="round" transform=""/><path fill="#cc8461" stroke="none" d="M 204.133,28.8596 C 204.204,28.8856 204.282,28.8476 204.304,28.7766 C 204.328,28.7076 204.29,28.6286 204.219,28.6036 C 204.148,28.5796 204.072,28.6176 204.048,28.6886 C 204.023,28.7616 204.06,28.8376 204.133,28.8596 Z" transform=""/><path fill="#cc8461" stroke="none" d="M 203.257,28.5659 C 203.327,28.5909 203.405,28.5509 203.43,28.4779 C 203.454,28.4099 203.416,28.3349 203.344,28.3089 C 203.273,28.2839 203.196,28.3209 203.173,28.3929 C 203.149,28.4639 203.186,28.5409 203.257,28.5659 Z" transform=""/><path fill="#cc8461" stroke="none" d="M 205.133,28.0224 C 205.204,28.0484 205.28,28.0134 205.304,27.9374 C 205.328,27.8684 205.292,27.7914 205.221,27.7664 C 205.149,27.7444 205.072,27.7804 205.048,27.8524 C 205.024,27.9224 205.06,28.0004 205.133,28.0224 Z" transform=""/><path fill="#cc8461" stroke="none" d="M 206.595,26.7797 C 206.666,26.8027 206.741,26.7657 206.766,26.6937 C 206.792,26.6227 206.753,26.5477 206.681,26.5227 C 206.61,26.4987 206.534,26.5347 206.508,26.6067 C 206.484,26.6787 206.522,26.7547 206.595,26.7797 Z" transform=""/><path fill="#cc8461" stroke="none" d="M 205.456,27.2588 C 205.526,27.2818 205.603,27.2448 205.627,27.1728 C 205.651,27.1018 205.614,27.0258 205.544,27.0018 C 205.471,26.9758 205.395,27.0158 205.372,27.0868 C 205.347,27.1568 205.384,27.2338 205.456,27.2588 Z" transform=""/><path fill="#cc8461" stroke="none" d="M 205.953,29.5278 C 206.024,29.5538 206.1,29.5158 206.124,29.4428 C 206.15,29.3738 206.11,29.2948 206.041,29.2708 C 205.969,29.2488 205.893,29.2848 205.869,29.3568 C 205.844,29.4298 205.882,29.5048 205.953,29.5278 Z" transform=""/><path fill="#cc8461" stroke="none" d="M 206.919,28.6501 C 206.99,28.6751 207.066,28.6351 207.091,28.5671 C 207.116,28.4941 207.076,28.4181 207.006,28.3931 C 206.936,28.3701 206.858,28.4071 206.833,28.4781 C 206.811,28.5471 206.848,28.6271 206.919,28.6501 Z" transform=""/><path fill="#cc8461" stroke="none" d="M 204.748,29.8759 C 204.817,29.8989 204.895,29.8619 204.921,29.7929 C 204.943,29.7199 204.906,29.6439 204.836,29.6189 C 204.765,29.5959 204.685,29.6339 204.664,29.7039 C 204.639,29.7739 204.676,29.8539 204.748,29.8759 Z" transform=""/><path fill="#cc8461" stroke="none" d="M 205.192,28.7952 C 205.263,28.8212 205.341,28.7832 205.365,28.7122 C 205.389,28.6432 205.35,28.5642 205.28,28.5392 C 205.209,28.5172 205.132,28.5522 205.107,28.6242 C 205.084,28.6962 205.121,28.7722 205.192,28.7952 Z" transform=""/><path fill="#cc8461" stroke="none" d="M 203.597,29.5816 C 203.667,29.6066 203.745,29.5676 203.767,29.4976 C 203.792,29.4276 203.755,29.3496 203.682,29.3246 C 203.612,29.3036 203.536,29.3396 203.51,29.4086 C 203.488,29.4816 203.525,29.5586 203.597,29.5816 Z" transform=""/><ellipse cx="206.03829733557765" cy="28.19671195632621" rx="0.13573689342549827" ry="0.13573689342549827" fill="#cc8461" stroke="none" r="0.13573689342549827" transform=""/><path fill="#f4953f" stroke="none" d="M 190.759,26.5304 S 188.649,19.8734 183.171,19.9704 C 177.612,20.0674 175.5,29.5074 180.961,31.7344 C 184.17,33.0424 187.83,31.7244 187.83,31.7244 L 190.759,26.5304 Z" transform=""/><path fill="#f4dbc5" stroke="none" d="M 190.383,27.559 S 188.325,27.317 187.381,25.302 C 186.579,23.588 186.931,22.117 185.492,21.273 C 184.054,20.426 181.698,20.746 180.492,21.729 C 179.195,22.78 176.776,27.032 179.569,30.215 C 182.169,33.177 187.925,31.278 187.925,31.278 L 190.383,27.559 Z" transform=""/><path fill="#e2bda1" stroke="none" d="M 189.949,27.4648 C 189.358,27.2918 188.289,26.8398 187.593,25.6958 C 186.91,25.7448 185.529,27.5148 186.568,29.1878 C 187.114,30.0638 188.053,30.3578 188.728,30.3888 L 190.264,27.7248 L 189.949,27.4648 Z" transform=""/><path fill="#f4953f" stroke="none" d="M 191.347,25.4463 S 188.216,27.2553 187.459,30.8053 C 186.703,34.3603 189.561,30.4833 189.561,30.4833 L 190.707,29.0473 L 191.347,25.4463 Z" transform=""/><path fill="#304454" stroke="none" d="M 205.207,23.7466 S 206.805,22.4786 207.687,23.2076 C 208.911,24.2206 207.939,26.1246 207.939,26.1246 S 205.659,25.2846 205.207,23.7466 Z" transform=""/><path fill="#f4953f" stroke="none" d="M 207.258,38.8591 C 205.423,41.0311 206.204,45.0701 211.258,46.2291 C 216.31,47.3871 213.469,50.2291 215.258,51.3871 C 217.049,52.5441 215.189,47.1881 215.082,45.5281 C 214.982,43.9971 214.215,45.6601 213.15,45.2621 C 212.232,44.9171 214.36,41.7771 213.348,40.0661 C 211.517,36.9691 208.806,37.0271 207.258,38.8591 Z" transform=""/><ellipse cx="197.0392912656964" cy="28.53254395406907" rx="0.6219324039280372" ry="1.0326535211034673" fill="#304454" stroke="none" transform="rotate(-18.3661 197.03929118619857 28.532543476318484)" r="NaN"/><path fill="none" stroke="#edaa84" d="M 260.627,29.471 S 263.472,28.592 265.274,28.909" style="stroke-linecap: round;stroke-linejoin: round;stroke-width: 0.36719169962863235px" stroke-width="0.36719169962863235" stroke-linecap="round" stroke-linejoin="round" transform=""/><path fill="none" stroke="#edaa84" d="M 261.068,29.423 S 264.045,29.455 265.663,30.31" style="stroke-linecap: round;stroke-linejoin: round;stroke-width: 0.36719169962863235px" stroke-width="0.36719169962863235" stroke-linecap="round" stroke-linejoin="round" transform=""/><path fill="#d78334" stroke="none" d="M 270.143,15.3468 C 267.342,16.0658 266.222,17.7028 265.778,18.9478 C 264.986,21.1698 265.741,23.6738 266.843,25.1708 C 267.074,25.4858 267.515,25.5538 267.828,25.3228 C 268.143,25.0918 268.211,24.6498 267.98,24.3358 C 267.129,23.1768 266.492,21.1458 267.107,19.4218 C 267.587,18.0788 268.726,17.1678 270.494,16.7138 C 273.044,16.0598 274.498,17.2848 275.271,18.4278 C 276.556,20.3338 276.637,23.0538 275.849,24.1228 C 275.257,24.9278 274.516,25.4348 273.8,25.9248 C 272.272,26.9708 270.691,28.0518 271.375,31.6108 C 271.63,32.9308 271.411,33.9608 270.706,34.7598 C 268.756,36.9708 263.818,36.6758 263.769,36.6728 C 263.38,36.6488 263.044,36.9428 263.019,37.3318 C 262.993,37.7218 263.287,38.0568 263.676,38.0818 C 263.907,38.0978 269.352,38.4258 271.764,35.6958 C 272.764,34.5628 273.099,33.0978 272.761,31.3428 C 272.252,28.6938 273.134,28.0898 274.597,27.0888 C 275.372,26.5598 276.251,25.9578 276.987,24.9598 C 278.23,23.2728 277.979,19.9198 276.438,17.6388 C 274.99,15.4898 272.754,14.6758 270.143,15.3468 Z" transform=""/><path fill="#d78334" stroke="none" d="M 257.23,39.1961 C 256.771,38.6331 254.047,37.7441 251.912,41.9361 C 249.776,46.1261 247.903,42.9971 246.488,44.3171 C 245.073,45.6361 250.197,45.1851 251.684,45.4541 C 253.054,45.7051 251.757,44.6621 252.345,43.8131 C 252.85,43.0811 253.503,42.9431 255.272,42.5921 C 257.06,42.2401 258.051,40.2061 257.23,39.1961 Z" transform=""/><path fill="#d78334" stroke="none" d="M 261.809,42.0155 C 262.269,44.6615 265.67,46.5455 269.576,43.5845 C 273.482,40.6245 273.818,44.4085 275.741,43.8125 C 277.666,43.2175 272.657,41.3165 271.388,40.3865 C 270.217,39.5305 270.96,41.0965 270.023,41.6255 C 269.218,42.0815 268.233,38.6365 266.378,38.3275 C 263.021,37.7785 261.421,39.7795 261.809,42.0155 Z" transform=""/><path fill="#d78334" stroke="none" d="M 252.894,25.6095 S 255.255,21.7175 253.606,18.5825 C 251.475,14.5345 244.781,16.8505 245.543,21.7425 C 245.942,24.3055 248.445,25.9885 248.445,25.9885 L 252.894,25.6095 Z" transform=""/><path fill="#f4953f" stroke="none" d="M 256.203,37.3718 S 258.905,39.3148 260.648,37.7138 C 263.279,35.2918 264.97,35.6238 266.102,35.8438 C 269.366,36.4758 272.234,44.9368 263.911,47.0818 C 255.941,49.1338 251.384,40.3448 251.384,40.3448 L 256.203,37.3718 Z" transform=""/><path fill="url(#r-fa79923df1f841c3a6fe6679cc0d6d86)" stroke="none" d="M 251.801,41.056 L 253.488,40.03 S 254.188,42.714 257.699,42.872 C 260.664,43.004 263.279,38.239 265.7,40.239 C 267.015,41.325 268.174,43.003 268.047,44.749 C 267.184,45.745 265.856,46.581 263.911,47.081 C 257.341,48.774 253.092,43.102 251.801,41.056 Z" opacity="1" fill-opacity="1" style="opacity: 1;fill-opacity: 1" transform=""/><path fill="#eeb490" stroke="none" d="M 265.391,44.1493 L 267.741,45.0733 C 266.881,45.9263 265.64,46.6373 263.911,47.0823 C 263.574,47.1703 263.247,47.2313 262.923,47.2813 C 263.998,46.2283 263.622,44.9623 263.622,44.9623 L 265.391,44.1493 Z" transform=""/><path fill="#eeb490" stroke="none" d="M 265.7,40.2399 C 267.015,41.3249 268.174,43.0029 268.047,44.7499 C 267.489,45.3929 266.731,45.9739 265.737,46.4369 C 262.443,45.3839 261.31,42.9749 261.724,40.9819 C 263.116,39.9979 264.434,39.1949 265.7,40.2399 Z" transform=""/><path fill="#f4953f" stroke="none" d="M 258.456,39.1826 C 257.836,38.6776 254.974,38.2516 253.599,43.2486 C 252.224,48.2476 249.507,45.2856 248.274,47.0236 C 247.039,48.7616 252.472,47.1346 254.134,47.0996 C 255.67,47.0636 254.039,46.2266 254.483,45.1806 C 254.866,44.2766 255.494,43.7746 257.326,43.0056 C 259.178,42.2266 259.566,40.0896 258.456,39.1826 Z" transform=""/><path fill="#f4953f" stroke="none" d="M 263.494,26.1256 C 263.228,24.3706 261.657,23.3746 260.762,23.7476 C 256.033,25.7196 253.899,23.5476 249.981,23.9026 C 250.606,23.3976 251.313,23.0346 251.313,23.0346 C 250.457,23.0566 249.675,23.5376 249.099,24.0216 C 249.037,24.0336 248.975,24.0436 248.912,24.0556 C 249.445,23.2006 250.638,22.3786 250.638,22.3786 C 249.455,22.5616 248.524,23.6246 248.063,24.2636 C 244.02,25.4826 241.75,29.9856 242.318,33.9396 C 242.49,35.1446 243.074,36.9396 243.999,38.2896 C 243.838,39.1656 243.836,40.1946 244.323,41.1126 C 244.323,41.1126 244.288,40.0976 244.459,39.1386 C 244.401,39.8666 244.479,40.6516 244.86,41.3686 C 244.86,41.3686 244.825,40.3666 244.994,39.4136 C 244.996,39.4156 244.996,39.4166 244.999,39.4186 C 245.024,40.0326 245.162,40.6666 245.507,41.2446 C 245.507,41.2446 245.45,40.5696 245.497,39.7966 C 248.181,41.6986 250.906,41.4056 253.149,40.9056 C 255.357,40.4116 256.551,40.8006 257.957,39.2356 C 258.362,38.7846 258.223,37.0466 258.569,36.4796 C 258.923,35.9036 263.98,29.3106 263.494,26.1256 Z" transform=""/><path fill="#f4953f" stroke="none" d="M 243.278,31.5585 L 242.776,29.6975 L 242.728,29.7235 C 242.36,30.8185 242.19,31.9765 242.242,33.1125 C 242.594,32.2215 243.278,31.5585 243.278,31.5585 Z" transform=""/><path fill="none" stroke="#edaa84" d="M 257.957,28.6028 S 253.434,30.8568 251.338,36.2348" style="stroke-linecap: round;stroke-linejoin: round;stroke-width: 0.36719169962863235px" stroke-width="0.36719169962863235" stroke-linecap="round" stroke-linejoin="round" transform=""/><path fill="none" stroke="#edaa84" d="M 258.742,29.5646 S 254.957,32.1046 253.693,36.2576" style="stroke-linecap: round;stroke-linejoin: round;stroke-width: 0.36719169962863235px" stroke-width="0.36719169962863235" stroke-linecap="round" stroke-linejoin="round" transform=""/><path fill="none" stroke="#edaa84" d="M 259.547,30.3995 S 256.962,33.3555 257.293,37.0845" style="stroke-linecap: round;stroke-linejoin: round;stroke-width: 0.36719169962863235px" stroke-width="0.36719169962863235" stroke-linecap="round" stroke-linejoin="round" transform=""/><path fill="#cc8461" stroke="none" d="M 259.688,28.8596 C 259.759,28.8856 259.837,28.8476 259.859,28.7766 C 259.883,28.7076 259.845,28.6286 259.774,28.6036 C 259.703,28.5796 259.627,28.6176 259.603,28.6886 C 259.578,28.7616 259.615,28.8376 259.688,28.8596 Z" transform=""/><path fill="#cc8461" stroke="none" d="M 258.812,28.5659 C 258.882,28.5909 258.96,28.5509 258.985,28.4779 C 259.009,28.4099 258.971,28.3349 258.899,28.3089 C 258.828,28.2839 258.751,28.3209 258.728,28.3929 C 258.704,28.4639 258.741,28.5409 258.812,28.5659 Z" transform=""/><path fill="#cc8461" stroke="none" d="M 260.689,28.0224 C 260.76,28.0484 260.836,28.0134 260.86,27.9374 C 260.884,27.8684 260.848,27.7914 260.777,27.7664 C 260.705,27.7444 260.628,27.7804 260.604,27.8524 C 260.58,27.9224 260.616,28.0004 260.689,28.0224 Z" transform=""/><path fill="#cc8461" stroke="none" d="M 262.151,26.7797 C 262.222,26.8027 262.297,26.7657 262.322,26.6937 C 262.348,26.6227 262.309,26.5477 262.237,26.5227 C 262.166,26.4987 262.09,26.5347 262.064,26.6067 C 262.04,26.6787 262.078,26.7547 262.151,26.7797 Z" transform=""/><path fill="#cc8461" stroke="none" d="M 261.012,27.2588 C 261.082,27.2818 261.159,27.2448 261.183,27.1728 C 261.207,27.1018 261.17,27.0258 261.1,27.0018 C 261.027,26.9758 260.951,27.0158 260.928,27.0868 C 260.903,27.1568 260.94,27.2338 261.012,27.2588 Z" transform=""/><path fill="#cc8461" stroke="none" d="M 261.509,29.5278 C 261.58,29.5538 261.656,29.5158 261.68,29.4428 C 261.706,29.3738 261.666,29.2948 261.597,29.2708 C 261.525,29.2488 261.449,29.2848 261.425,29.3568 C 261.4,29.4298 261.438,29.5048 261.509,29.5278 Z" transform=""/><path fill="#cc8461" stroke="none" d="M 262.475,28.6501 C 262.546,28.6751 262.622,28.6351 262.647,28.5671 C 262.672,28.4941 262.632,28.4181 262.562,28.3931 C 262.492,28.3701 262.414,28.4071 262.389,28.4781 C 262.367,28.5471 262.404,28.6271 262.475,28.6501 Z" transform=""/><path fill="#cc8461" stroke="none" d="M 260.304,29.8759 C 260.373,29.8989 260.451,29.8619 260.477,29.7929 C 260.499,29.7199 260.462,29.6439 260.392,29.6189 C 260.321,29.5959 260.241,29.6339 260.22,29.7039 C 260.195,29.7739 260.232,29.8539 260.304,29.8759 Z" transform=""/><path fill="#cc8461" stroke="none" d="M 260.747,28.7952 C 260.818,28.8212 260.896,28.7832 260.92,28.7122 C 260.944,28.6432 260.905,28.5642 260.835,28.5392 C 260.764,28.5172 260.687,28.5522 260.662,28.6242 C 260.639,28.6962 260.676,28.7722 260.747,28.7952 Z" transform=""/><path fill="#cc8461" stroke="none" d="M 259.153,29.5816 C 259.223,29.6066 259.301,29.5676 259.323,29.4976 C 259.348,29.4276 259.311,29.3496 259.238,29.3246 C 259.168,29.3036 259.092,29.3396 259.066,29.4086 C 259.044,29.4816 259.081,29.5586 259.153,29.5816 Z" transform=""/><ellipse cx="261.5938528911332" cy="28.19671195632621" rx="0.13573689342549827" ry="0.13573689342549827" fill="#cc8461" stroke="none" r="0.13573689342549827" transform=""/><path fill="#f4953f" stroke="none" d="M 246.314,26.5304 S 244.204,19.8734 238.726,19.9704 C 233.167,20.0674 231.055,29.5074 236.516,31.7344 C 239.725,33.0424 243.385,31.7244 243.385,31.7244 L 246.314,26.5304 Z" transform=""/><path fill="#f4dbc5" stroke="none" d="M 245.938,27.559 S 243.88,27.317 242.936,25.302 C 242.134,23.588 242.486,22.117 241.047,21.273 C 239.609,20.426 237.253,20.746 236.047,21.729 C 234.75,22.78 232.331,27.032 235.124,30.215 C 237.724,33.177 243.48,31.278 243.48,31.278 L 245.938,27.559 Z" transform=""/><path fill="#e2bda1" stroke="none" d="M 245.504,27.4648 C 244.913,27.2918 243.844,26.8398 243.148,25.6958 C 242.465,25.7448 241.084,27.5148 242.123,29.1878 C 242.669,30.0638 243.608,30.3578 244.283,30.3888 L 245.819,27.7248 L 245.504,27.4648 Z" transform=""/><path fill="#f4953f" stroke="none" d="M 246.903,25.4463 S 243.772,27.2553 243.015,30.8053 C 242.259,34.3603 245.117,30.4833 245.117,30.4833 L 246.263,29.0473 L 246.903,25.4463 Z" transform=""/><path fill="#304454" stroke="none" d="M 260.762,23.7466 S 262.36,22.4786 263.242,23.2076 C 264.466,24.2206 263.494,26.1246 263.494,26.1246 S 261.214,25.2846 260.762,23.7466 Z" transform=""/><path fill="#f4953f" stroke="none" d="M 262.814,38.8591 C 260.979,41.0311 261.76,45.0701 266.814,46.2291 C 271.866,47.3871 269.025,50.2291 270.814,51.3871 C 272.605,52.5441 270.745,47.1881 270.638,45.5281 C 270.538,43.9971 269.771,45.6601 268.706,45.2621 C 267.788,44.9171 269.916,41.7771 268.904,40.0661 C 267.073,36.9691 264.362,37.0271 262.814,38.8591 Z" transform=""/><ellipse cx="252.59484682125193" cy="28.53254395406907" rx="0.6219324039280372" ry="1.0326535211034673" fill="#304454" stroke="none" transform="rotate(-18.3661 252.5948467417541 28.532543476318484)" r="NaN"/><path fill="none" stroke="#edaa84" d="M 316.183,29.471 S 319.028,28.592 320.83,28.909" style="stroke-linecap: round;stroke-linejoin: round;stroke-width: 0.36719169962863235px" stroke-width="0.36719169962863235" stroke-linecap="round" stroke-linejoin="round" transform=""/><path fill="none" stroke="#edaa84" d="M 316.624,29.423 S 319.601,29.455 321.219,30.31" style="stroke-linecap: round;stroke-linejoin: round;stroke-width: 0.36719169962863235px" stroke-width="0.36719169962863235" stroke-linecap="round" stroke-linejoin="round" transform=""/><path fill="#d78334" stroke="none" d="M 325.698,15.3468 C 322.897,16.0658 321.777,17.7028 321.333,18.9478 C 320.541,21.1698 321.296,23.6738 322.398,25.1708 C 322.629,25.4858 323.07,25.5538 323.383,25.3228 C 323.698,25.0918 323.766,24.6498 323.535,24.3358 C 322.684,23.1768 322.047,21.1458 322.662,19.4218 C 323.142,18.0788 324.281,17.1678 326.049,16.7138 C 328.599,16.0598 330.053,17.2848 330.826,18.4278 C 332.111,20.3338 332.192,23.0538 331.404,24.1228 C 330.812,24.9278 330.071,25.4348 329.355,25.9248 C 327.827,26.9708 326.246,28.0518 326.93,31.6108 C 327.185,32.9308 326.966,33.9608 326.261,34.7598 C 324.311,36.9708 319.373,36.6758 319.324,36.6728 C 318.935,36.6488 318.599,36.9428 318.574,37.3318 C 318.548,37.7218 318.842,38.0568 319.231,38.0818 C 319.462,38.0978 324.907,38.4258 327.319,35.6958 C 328.319,34.5628 328.654,33.0978 328.316,31.3428 C 327.807,28.6938 328.689,28.0898 330.152,27.0888 C 330.927,26.5598 331.806,25.9578 332.542,24.9598 C 333.785,23.2728 333.534,19.9198 331.993,17.6388 C 330.545,15.4898 328.309,14.6758 325.698,15.3468 Z" transform=""/><path fill="#d78334" stroke="none" d="M 312.785,39.1961 C 312.326,38.6331 309.602,37.7441 307.467,41.9361 C 305.331,46.1261 303.458,42.9971 302.043,44.3171 C 300.628,45.6361 305.752,45.1851 307.239,45.4541 C 308.609,45.7051 307.312,44.6621 307.9,43.8131 C 308.405,43.0811 309.058,42.9431 310.827,42.5921 C 312.615,42.2401 313.606,40.2061 312.785,39.1961 Z" transform=""/><path fill="#d78334" stroke="none" d="M 317.365,42.0155 C 317.825,44.6615 321.226,46.5455 325.132,43.5845 C 329.038,40.6245 329.374,44.4085 331.297,43.8125 C 333.222,43.2175 328.213,41.3165 326.944,40.3865 C 325.773,39.5305 326.516,41.0965 325.579,41.6255 C 324.774,42.0815 323.789,38.6365 321.934,38.3275 C 318.577,37.7785 316.977,39.7795 317.365,42.0155 Z" transform=""/><path fill="#d78334" stroke="none" d="M 308.449,25.6095 S 310.81,21.7175 309.161,18.5825 C 307.03,14.5345 300.336,16.8505 301.098,21.7425 C 301.497,24.3055 304,25.9885 304,25.9885 L 308.449,25.6095 Z" transform=""/><path fill="#f4953f" stroke="none" d="M 311.759,37.3718 S 314.461,39.3148 316.204,37.7138 C 318.835,35.2918 320.526,35.6238 321.658,35.8438 C 324.922,36.4758 327.79,44.9368 319.467,47.0818 C 311.497,49.1338 306.94,40.3448 306.94,40.3448 L 311.759,37.3718 Z" transform=""/><path fill="url(#r-e171aac003984270962aad276be2b731)" stroke="none" d="M 307.357,41.056 L 309.044,40.03 S 309.744,42.714 313.255,42.872 C 316.22,43.004 318.835,38.239 321.256,40.239 C 322.571,41.325 323.73,43.003 323.603,44.749 C 322.74,45.745 321.412,46.581 319.467,47.081 C 312.897,48.774 308.648,43.102 307.357,41.056 Z" opacity="1" fill-opacity="1" style="opacity: 1;fill-opacity: 1" transform=""/><path fill="#eeb490" stroke="none" d="M 320.947,44.1493 L 323.297,45.0733 C 322.437,45.9263 321.196,46.6373 319.467,47.0823 C 319.13,47.1703 318.803,47.2313 318.479,47.2813 C 319.554,46.2283 319.178,44.9623 319.178,44.9623 L 320.947,44.1493 Z" transform=""/><path fill="#eeb490" stroke="none" d="M 321.255,40.2399 C 322.57,41.3249 323.729,43.0029 323.602,44.7499 C 323.044,45.3929 322.286,45.9739 321.292,46.4369 C 317.998,45.3839 316.865,42.9749 317.279,40.9819 C 318.671,39.9979 319.989,39.1949 321.255,40.2399 Z" transform=""/><path fill="#f4953f" stroke="none" d="M 314.012,39.1826 C 313.392,38.6776 310.53,38.2516 309.155,43.2486 C 307.78,48.2476 305.063,45.2856 303.83,47.0236 C 302.595,48.7616 308.028,47.1346 309.69,47.0996 C 311.226,47.0636 309.595,46.2266 310.039,45.1806 C 310.422,44.2766 311.05,43.7746 312.882,43.0056 C 314.734,42.2266 315.122,40.0896 314.012,39.1826 Z" transform=""/><path fill="#f4953f" stroke="none" d="M 319.05,26.1256 C 318.784,24.3706 317.213,23.3746 316.318,23.7476 C 311.589,25.7196 309.455,23.5476 305.537,23.9026 C 306.162,23.3976 306.869,23.0346 306.869,23.0346 C 306.013,23.0566 305.231,23.5376 304.655,24.0216 C 304.593,24.0336 304.531,24.0436 304.468,24.0556 C 305.001,23.2006 306.194,22.3786 306.194,22.3786 C 305.011,22.5616 304.08,23.6246 303.619,24.2636 C 299.576,25.4826 297.306,29.9856 297.874,33.9396 C 298.046,35.1446 298.63,36.9396 299.555,38.2896 C 299.394,39.1656 299.392,40.1946 299.879,41.1126 C 299.879,41.1126 299.844,40.0976 300.015,39.1386 C 299.957,39.8666 300.035,40.6516 300.416,41.3686 C 300.416,41.3686 300.381,40.3666 300.55,39.4136 C 300.552,39.4156 300.552,39.4166 300.555,39.4186 C 300.58,40.0326 300.718,40.6666 301.063,41.2446 C 301.063,41.2446 301.006,40.5696 301.053,39.7966 C 303.737,41.6986 306.462,41.4056 308.705,40.9056 C 310.913,40.4116 312.107,40.8006 313.513,39.2356 C 313.918,38.7846 313.779,37.0466 314.125,36.4796 C 314.479,35.9036 319.536,29.3106 319.05,26.1256 Z" transform=""/><path fill="#f4953f" stroke="none" d="M 298.833,31.5585 L 298.331,29.6975 L 298.283,29.7235 C 297.915,30.8185 297.745,31.9765 297.797,33.1125 C 298.149,32.2215 298.833,31.5585 298.833,31.5585 Z" transform=""/><path fill="none" stroke="#edaa84" d="M 313.513,28.6028 S 308.99,30.8568 306.894,36.2348" style="stroke-linecap: round;stroke-linejoin: round;stroke-width: 0.36719169962863235px" stroke-width="0.36719169962863235" stroke-linecap="round" stroke-linejoin="round" transform=""/><path fill="none" stroke="#edaa84" d="M 314.297,29.5646 S 310.512,32.1046 309.248,36.2576" style="stroke-linecap: round;stroke-linejoin: round;stroke-width: 0.36719169962863235px" stroke-width="0.36719169962863235" stroke-linecap="round" stroke-linejoin="round" transform=""/><path fill="none" stroke="#edaa84" d="M 315.103,30.3995 S 312.518,33.3555 312.849,37.0845" style="stroke-linecap: round;stroke-linejoin: round;stroke-width: 0.36719169962863235px" stroke-width="0.36719169962863235" stroke-linecap="round" stroke-linejoin="round" transform=""/><path fill="#cc8461" stroke="none" d="M 315.244,28.8596 C 315.315,28.8856 315.393,28.8476 315.415,28.7766 C 315.439,28.7076 315.401,28.6286 315.33,28.6036 C 315.259,28.5796 315.183,28.6176 315.159,28.6886 C 315.134,28.7616 315.171,28.8376 315.244,28.8596 Z" transform=""/><path fill="#cc8461" stroke="none" d="M 314.368,28.5659 C 314.438,28.5909 314.516,28.5509 314.541,28.4779 C 314.565,28.4099 314.527,28.3349 314.455,28.3089 C 314.384,28.2839 314.307,28.3209 314.284,28.3929 C 314.26,28.4639 314.297,28.5409 314.368,28.5659 Z" transform=""/><path fill="#cc8461" stroke="none" d="M 316.244,28.0224 C 316.315,28.0484 316.391,28.0134 316.415,27.9374 C 316.439,27.8684 316.403,27.7914 316.332,27.7664 C 316.26,27.7444 316.183,27.7804 316.159,27.8524 C 316.135,27.9224 316.171,28.0004 316.244,28.0224 Z" transform=""/><path fill="#cc8461" stroke="none" d="M 317.706,26.7797 C 317.777,26.8027 317.852,26.7657 317.877,26.6937 C 317.903,26.6227 317.864,26.5477 317.792,26.5227 C 317.721,26.4987 317.645,26.5347 317.619,26.6067 C 317.595,26.6787 317.633,26.7547 317.706,26.7797 Z" transform=""/><path fill="#cc8461" stroke="none" d="M 316.567,27.2588 C 316.637,27.2818 316.714,27.2448 316.738,27.1728 C 316.762,27.1018 316.725,27.0258 316.655,27.0018 C 316.582,26.9758 316.506,27.0158 316.483,27.0868 C 316.458,27.1568 316.495,27.2338 316.567,27.2588 Z" transform=""/><path fill="#cc8461" stroke="none" d="M 317.065,29.5278 C 317.136,29.5538 317.212,29.5158 317.236,29.4428 C 317.262,29.3738 317.222,29.2948 317.153,29.2708 C 317.081,29.2488 317.005,29.2848 316.981,29.3568 C 316.956,29.4298 316.994,29.5048 317.065,29.5278 Z" transform=""/><path fill="#cc8461" stroke="none" d="M 318.031,28.6501 C 318.102,28.6751 318.178,28.6351 318.203,28.5671 C 318.228,28.4941 318.188,28.4181 318.118,28.3931 C 318.048,28.3701 317.97,28.4071 317.945,28.4781 C 317.923,28.5471 317.96,28.6271 318.031,28.6501 Z" transform=""/><path fill="#cc8461" stroke="none" d="M 315.859,29.8759 C 315.928,29.8989 316.006,29.8619 316.032,29.7929 C 316.054,29.7199 316.017,29.6439 315.947,29.6189 C 315.876,29.5959 315.796,29.6339 315.775,29.7039 C 315.75,29.7739 315.787,29.8539 315.859,29.8759 Z" transform=""/><path fill="#cc8461" stroke="none" d="M 316.303,28.7952 C 316.374,28.8212 316.452,28.7832 316.476,28.7122 C 316.5,28.6432 316.461,28.5642 316.391,28.5392 C 316.32,28.5172 316.243,28.5522 316.218,28.6242 C 316.195,28.6962 316.232,28.7722 316.303,28.7952 Z" transform=""/><path fill="#cc8461" stroke="none" d="M 314.708,29.5816 C 314.778,29.6066 314.856,29.5676 314.878,29.4976 C 314.903,29.4276 314.866,29.3496 314.793,29.3246 C 314.723,29.3036 314.647,29.3396 314.621,29.4086 C 314.599,29.4816 314.636,29.5586 314.708,29.5816 Z" transform=""/><ellipse cx="317.14940844668877" cy="28.19671195632621" rx="0.13573689342549827" ry="0.13573689342549827" fill="#cc8461" stroke="none" r="0.13573689342549827" transform=""/><path fill="#f4953f" stroke="none" d="M 301.87,26.5304 S 299.76,19.8734 294.282,19.9704 C 288.723,20.0674 286.611,29.5074 292.072,31.7344 C 295.281,33.0424 298.941,31.7244 298.941,31.7244 L 301.87,26.5304 Z" transform=""/><path fill="#f4dbc5" stroke="none" d="M 301.494,27.559 S 299.436,27.317 298.492,25.302 C 297.69,23.588 298.042,22.117 296.603,21.273 C 295.165,20.426 292.809,20.746 291.603,21.729 C 290.306,22.78 287.887,27.032 290.68,30.215 C 293.28,33.177 299.036,31.278 299.036,31.278 L 301.494,27.559 Z" transform=""/><path fill="#e2bda1" stroke="none" d="M 301.06,27.4648 C 300.469,27.2918 299.4,26.8398 298.704,25.6958 C 298.021,25.7448 296.64,27.5148 297.679,29.1878 C 298.225,30.0638 299.164,30.3578 299.839,30.3888 L 301.375,27.7248 L 301.06,27.4648 Z" transform=""/><path fill="#f4953f" stroke="none" d="M 302.458,25.4463 S 299.327,27.2553 298.57,30.8053 C 297.814,34.3603 300.672,30.4833 300.672,30.4833 L 301.818,29.0473 L 302.458,25.4463 Z" transform=""/><path fill="#304454" stroke="none" d="M 316.318,23.7466 S 317.916,22.4786 318.798,23.2076 C 320.022,24.2206 319.05,26.1246 319.05,26.1246 S 316.77,25.2846 316.318,23.7466 Z" transform=""/><path fill="#f4953f" stroke="none" d="M 318.369,38.8591 C 316.534,41.0311 317.315,45.0701 322.369,46.2291 C 327.421,47.3871 324.58,50.2291 326.369,51.3871 C 328.16,52.5441 326.3,47.1881 326.193,45.5281 C 326.093,43.9971 325.326,45.6601 324.261,45.2621 C 323.343,44.9171 325.471,41.7771 324.459,40.0661 C 322.628,36.9691 319.917,37.0271 318.369,38.8591 Z" transform=""/><ellipse cx="308.1504023768075" cy="28.53254395406907" rx="0.6219324039280372" ry="1.0326535211034673" fill="#304454" stroke="none" transform="rotate(-18.3661 308.15040229730965 28.532543476318484)" r="NaN"/><path fill="none" stroke="#edaa84" d="M 371.738,29.471 S 374.583,28.592 376.385,28.909" style="stroke-linecap: round;stroke-linejoin: round;stroke-width: 0.36719169962863235px" stroke-width="0.36719169962863235" stroke-linecap="round" stroke-linejoin="round" transform=""/><path fill="none" stroke="#edaa84" d="M 372.18,29.423 S 375.157,29.455 376.775,30.31" style="stroke-linecap: round;stroke-linejoin: round;stroke-width: 0.36719169962863235px" stroke-width="0.36719169962863235" stroke-linecap="round" stroke-linejoin="round" transform=""/><path fill="#d78334" stroke="none" d="M 381.254,15.3468 C 378.453,16.0658 377.333,17.7028 376.889,18.9478 C 376.097,21.1698 376.852,23.6738 377.954,25.1708 C 378.185,25.4858 378.626,25.5538 378.939,25.3228 C 379.254,25.0918 379.322,24.6498 379.091,24.3358 C 378.24,23.1768 377.603,21.1458 378.218,19.4218 C 378.698,18.0788 379.837,17.1678 381.605,16.7138 C 384.155,16.0598 385.609,17.2848 386.382,18.4278 C 387.667,20.3338 387.748,23.0538 386.96,24.1228 C 386.368,24.9278 385.627,25.4348 384.911,25.9248 C 383.383,26.9708 381.802,28.0518 382.486,31.6108 C 382.741,32.9308 382.522,33.9608 381.817,34.7598 C 379.867,36.9708 374.929,36.6758 374.88,36.6728 C 374.491,36.6488 374.155,36.9428 374.13,37.3318 C 374.104,37.7218 374.398,38.0568 374.787,38.0818 C 375.018,38.0978 380.463,38.4258 382.875,35.6958 C 383.875,34.5628 384.21,33.0978 383.872,31.3428 C 383.363,28.6938 384.245,28.0898 385.708,27.0888 C 386.483,26.5598 387.362,25.9578 388.098,24.9598 C 389.341,23.2728 389.09,19.9198 387.549,17.6388 C 386.101,15.4898 383.865,14.6758 381.254,15.3468 Z" transform=""/><path fill="#d78334" stroke="none" d="M 368.341,39.1961 C 367.882,38.6331 365.158,37.7441 363.023,41.9361 C 360.887,46.1261 359.014,42.9971 357.599,44.3171 C 356.184,45.6361 361.308,45.1851 362.795,45.4541 C 364.165,45.7051 362.868,44.6621 363.456,43.8131 C 363.961,43.0811 364.614,42.9431 366.383,42.5921 C 368.171,42.2401 369.162,40.2061 368.341,39.1961 Z" transform=""/><path fill="#d78334" stroke="none" d="M 372.92,42.0155 C 373.38,44.6615 376.781,46.5455 380.687,43.5845 C 384.593,40.6245 384.929,44.4085 386.852,43.8125 C 388.777,43.2175 383.768,41.3165 382.499,40.3865 C 381.328,39.5305 382.071,41.0965 381.134,41.6255 C 380.329,42.0815 379.344,38.6365 377.489,38.3275 C 374.132,37.7785 372.532,39.7795 372.92,42.0155 Z" transform=""/><path fill="#d78334" stroke="none" d="M 364.005,25.6095 S 366.366,21.7175 364.717,18.5825 C 362.586,14.5345 355.892,16.8505 356.654,21.7425 C 357.053,24.3055 359.556,25.9885 359.556,25.9885 L 364.005,25.6095 Z" transform=""/><path fill="#f4953f" stroke="none" d="M 367.314,37.3718 S 370.016,39.3148 371.759,37.7138 C 374.39,35.2918 376.081,35.6238 377.213,35.8438 C 380.477,36.4758 383.345,44.9368 375.022,47.0818 C 367.052,49.1338 362.495,40.3448 362.495,40.3448 L 367.314,37.3718 Z" transform=""/><path fill="url(#r-81b846409332419ca373a04f66bb531e)" stroke="none" d="M 362.913,41.056 L 364.6,40.03 S 365.3,42.714 368.811,42.872 C 371.776,43.004 374.391,38.239 376.812,40.239 C 378.127,41.325 379.286,43.003 379.159,44.749 C 378.296,45.745 376.968,46.581 375.023,47.081 C 368.453,48.774 364.204,43.102 362.913,41.056 Z" opacity="1" fill-opacity="1" style="opacity: 1;fill-opacity: 1" transform=""/><path fill="#eeb490" stroke="none" d="M 376.502,44.1493 L 378.852,45.0733 C 377.992,45.9263 376.751,46.6373 375.022,47.0823 C 374.685,47.1703 374.358,47.2313 374.034,47.2813 C 375.109,46.2283 374.733,44.9623 374.733,44.9623 L 376.502,44.1493 Z" transform=""/><path fill="#eeb490" stroke="none" d="M 376.811,40.2399 C 378.126,41.3249 379.285,43.0029 379.158,44.7499 C 378.6,45.3929 377.842,45.9739 376.848,46.4369 C 373.554,45.3839 372.421,42.9749 372.835,40.9819 C 374.227,39.9979 375.545,39.1949 376.811,40.2399 Z" transform=""/><path fill="#f4953f" stroke="none" d="M 369.567,39.1826 C 368.947,38.6776 366.085,38.2516 364.71,43.2486 C 363.335,48.2476 360.618,45.2856 359.385,47.0236 C 358.15,48.7616 363.583,47.1346 365.245,47.0996 C 366.781,47.0636 365.15,46.2266 365.594,45.1806 C 365.977,44.2766 366.605,43.7746 368.437,43.0056 C 370.289,42.2266 370.677,40.0896 369.567,39.1826 Z" transform=""/><path fill="#f4953f" stroke="none" d="M 374.605,26.1256 C 374.339,24.3706 372.768,23.3746 371.873,23.7476 C 367.144,25.7196 365.01,23.5476 361.092,23.9026 C 361.717,23.3976 362.424,23.0346 362.424,23.0346 C 361.568,23.0566 360.786,23.5376 360.21,24.0216 C 360.148,24.0336 360.086,24.0436 360.023,24.0556 C 360.556,23.2006 361.749,22.3786 361.749,22.3786 C 360.566,22.5616 359.635,23.6246 359.174,24.2636 C 355.131,25.4826 352.861,29.9856 353.429,33.9396 C 353.601,35.1446 354.185,36.9396 355.11,38.2896 C 354.949,39.1656 354.947,40.1946 355.434,41.1126 C 355.434,41.1126 355.399,40.0976 355.57,39.1386 C 355.512,39.8666 355.59,40.6516 355.971,41.3686 C 355.971,41.3686 355.936,40.3666 356.105,39.4136 C 356.107,39.4156 356.107,39.4166 356.11,39.4186 C 356.135,40.0326 356.273,40.6666 356.618,41.2446 C 356.618,41.2446 356.561,40.5696 356.608,39.7966 C 359.292,41.6986 362.017,41.4056 364.26,40.9056 C 366.468,40.4116 367.662,40.8006 369.068,39.2356 C 369.473,38.7846 369.334,37.0466 369.68,36.4796 C 370.034,35.9036 375.091,29.3106 374.605,26.1256 Z" transform=""/><path fill="#f4953f" stroke="none" d="M 354.389,31.5585 L 353.887,29.6975 L 353.839,29.7235 C 353.471,30.8185 353.301,31.9765 353.353,33.1125 C 353.705,32.2215 354.389,31.5585 354.389,31.5585 Z" transform=""/><path fill="none" stroke="#edaa84" d="M 369.068,28.6028 S 364.545,30.8568 362.449,36.2348" style="stroke-linecap: round;stroke-linejoin: round;stroke-width: 0.36719169962863235px" stroke-width="0.36719169962863235" stroke-linecap="round" stroke-linejoin="round" transform=""/><path fill="none" stroke="#edaa84" d="M 369.853,29.5646 S 366.068,32.1046 364.804,36.2576" style="stroke-linecap: round;stroke-linejoin: round;stroke-width: 0.36719169962863235px" stroke-width="0.36719169962863235" stroke-linecap="round" stroke-linejoin="round" transform=""/><path fill="none" stroke="#edaa84" d="M 370.658,30.3995 S 368.073,33.3555 368.404,37.0845" style="stroke-linecap: round;stroke-linejoin: round;stroke-width: 0.36719169962863235px" stroke-width="0.36719169962863235" stroke-linecap="round" stroke-linejoin="round" transform=""/><path fill="#cc8461" stroke="none" d="M 370.799,28.8596 C 370.87,28.8856 370.948,28.8476 370.97,28.7766 C 370.994,28.7076 370.956,28.6286 370.885,28.6036 C 370.814,28.5796 370.738,28.6176 370.714,28.6886 C 370.689,28.7616 370.726,28.8376 370.799,28.8596 Z" transform=""/><path fill="#cc8461" stroke="none" d="M 369.924,28.5659 C 369.994,28.5909 370.072,28.5509 370.097,28.4779 C 370.121,28.4099 370.083,28.3349 370.011,28.3089 C 369.94,28.2839 369.863,28.3209 369.84,28.3929 C 369.816,28.4639 369.853,28.5409 369.924,28.5659 Z" transform=""/><path fill="#cc8461" stroke="none" d="M 371.8,28.0224 C 371.871,28.0484 371.947,28.0134 371.971,27.9374 C 371.995,27.8684 371.959,27.7914 371.888,27.7664 C 371.816,27.7444 371.739,27.7804 371.715,27.8524 C 371.691,27.9224 371.727,28.0004 371.8,28.0224 Z" transform=""/><path fill="#cc8461" stroke="none" d="M 373.262,26.7797 C 373.333,26.8027 373.408,26.7657 373.433,26.6937 C 373.459,26.6227 373.42,26.5477 373.348,26.5227 C 373.277,26.4987 373.201,26.5347 373.175,26.6067 C 373.151,26.6787 373.189,26.7547 373.262,26.7797 Z" transform=""/><path fill="#cc8461" stroke="none" d="M 372.123,27.2588 C 372.193,27.2818 372.27,27.2448 372.294,27.1728 C 372.318,27.1018 372.281,27.0258 372.211,27.0018 C 372.138,26.9758 372.062,27.0158 372.039,27.0868 C 372.014,27.1568 372.051,27.2338 372.123,27.2588 Z" transform=""/><path fill="#cc8461" stroke="none" d="M 372.62,29.5278 C 372.691,29.5538 372.767,29.5158 372.791,29.4428 C 372.817,29.3738 372.777,29.2948 372.708,29.2708 C 372.636,29.2488 372.56,29.2848 372.536,29.3568 C 372.511,29.4298 372.549,29.5048 372.62,29.5278 Z" transform=""/><path fill="#cc8461" stroke="none" d="M 373.586,28.6501 C 373.657,28.6751 373.733,28.6351 373.758,28.5671 C 373.783,28.4941 373.743,28.4181 373.673,28.3931 C 373.603,28.3701 373.525,28.4071 373.5,28.4781 C 373.478,28.5471 373.515,28.6271 373.586,28.6501 Z" transform=""/><path fill="#cc8461" stroke="none" d="M 371.415,29.8759 C 371.484,29.8989 371.562,29.8619 371.588,29.7929 C 371.61,29.7199 371.573,29.6439 371.503,29.6189 C 371.432,29.5959 371.352,29.6339 371.331,29.7039 C 371.306,29.7739 371.343,29.8539 371.415,29.8759 Z" transform=""/><path fill="#cc8461" stroke="none" d="M 371.858,28.7952 C 371.929,28.8212 372.007,28.7832 372.031,28.7122 C 372.055,28.6432 372.016,28.5642 371.946,28.5392 C 371.875,28.5172 371.798,28.5522 371.773,28.6242 C 371.75,28.6962 371.787,28.7722 371.858,28.7952 Z" transform=""/><path fill="#cc8461" stroke="none" d="M 370.264,29.5816 C 370.334,29.6066 370.412,29.5676 370.434,29.4976 C 370.459,29.4276 370.422,29.3496 370.349,29.3246 C 370.279,29.3036 370.203,29.3396 370.177,29.4086 C 370.155,29.4816 370.192,29.5586 370.264,29.5816 Z" transform=""/><ellipse cx="372.7049640022443" cy="28.19671195632621" rx="0.13573689342549827" ry="0.13573689342549827" fill="#cc8461" stroke="none" r="0.13573689342549827" transform=""/><path fill="#f4953f" stroke="none" d="M 357.425,26.5304 S 355.315,19.8734 349.837,19.9704 C 344.278,20.0674 342.166,29.5074 347.627,31.7344 C 350.836,33.0424 354.496,31.7244 354.496,31.7244 L 357.425,26.5304 Z" transform=""/><path fill="#f4dbc5" stroke="none" d="M 357.05,27.559 S 354.992,27.317 354.048,25.302 C 353.246,23.588 353.598,22.117 352.159,21.273 C 350.721,20.426 348.365,20.746 347.159,21.729 C 345.862,22.78 343.443,27.032 346.236,30.215 C 348.836,33.177 354.592,31.278 354.592,31.278 L 357.05,27.559 Z" transform=""/><path fill="#e2bda1" stroke="none" d="M 356.615,27.4648 C 356.024,27.2918 354.955,26.8398 354.259,25.6958 C 353.576,25.7448 352.195,27.5148 353.234,29.1878 C 353.78,30.0638 354.719,30.3578 355.394,30.3888 L 356.93,27.7248 L 356.615,27.4648 Z" transform=""/><path fill="#f4953f" stroke="none" d="M 358.014,25.4463 S 354.883,27.2553 354.126,30.8053 C 353.37,34.3603 356.228,30.4833 356.228,30.4833 L 357.374,29.0473 L 358.014,25.4463 Z" transform=""/><path fill="#304454" stroke="none" d="M 371.874,23.7466 S 373.472,22.4786 374.354,23.2076 C 375.578,24.2206 374.606,26.1246 374.606,26.1246 S 372.326,25.2846 371.874,23.7466 Z" transform=""/><path fill="#f4953f" stroke="none" d="M 373.925,38.8591 C 372.09,41.0311 372.871,45.0701 377.925,46.2291 C 382.977,47.3871 380.136,50.2291 381.925,51.3871 C 383.716,52.5441 381.856,47.1881 381.749,45.5281 C 381.649,43.9971 380.882,45.6601 379.817,45.2621 C 378.899,44.9171 381.027,41.7771 380.015,40.0661 C 378.184,36.9691 375.473,37.0271 373.925,38.8591 Z" transform=""/><ellipse cx="363.70595793236305" cy="28.53254395406907" rx="0.6219324039280372" ry="1.0326535211034673" fill="#304454" stroke="none" transform="rotate(-18.3661 363.7059578528652 28.532543476318484)" r="NaN"/></svg>