<svg xmlns="http://www.w3.org/2000/svg" version="1.1" width="350" height="77.77777777777779" viewBox="0 0 350 77.77777777777779"><defs/><path fill="#bdcccc" stroke="none" d="M 58.8964,51.2413 C 57.4484,49.9293 54.1904,52.2443 54.1904,52.2443 S 55.0124,49.1113 53.4184,48.1553 C 51.8764,47.2293 51.8764,47.1513 50.8734,45.9953 C 50.8734,45.9953 49.5444,48.0713 50.4114,50.2393 C 50.8734,51.3953 51.5684,51.9363 52.6484,52.5533 C 52.6484,52.5533 52.6354,52.5683 52.6234,52.5833 C 52.6194,52.5873 52.6144,52.5923 52.6094,52.5983 C 52.5874,52.6223 52.5554,52.6563 52.5124,52.6983 C 52.5064,52.7043 52.4994,52.7103 52.4934,52.7163 C 52.4494,52.7593 52.3954,52.8073 52.3304,52.8623 C 52.3234,52.8683 52.3184,52.8723 52.3114,52.8783 C 52.2424,52.9353 52.1584,52.9993 52.0664,53.0653 C 52.0484,53.0783 52.0294,53.0913 52.0104,53.1053 C 51.9114,53.1743 51.8014,53.2463 51.6754,53.3213 C 51.6644,53.3273 51.6514,53.3343 51.6404,53.3403 C 51.5244,53.4083 51.3934,53.4773 51.2524,53.5473 C 51.2204,53.5633 51.1894,53.5803 51.1554,53.5953 C 51.0054,53.6673 50.8404,53.7393 50.6634,53.8083 C 50.6174,53.8273 50.5684,53.8443 50.5204,53.8623 C 50.3574,53.9233 50.1834,53.9823 49.9974,54.0383 C 49.4974,54.1913 48.9184,54.3253 48.2424,54.4193 C 48.2424,54.4193 53.8894,34.1323 33.4534,32.4843 C 20.2094,31.4153 16.2374,40.9853 15.7934,43.8053 C 14.7994,50.1243 15.9454,56.1773 16.8534,57.7463 L 16.8524,57.7463 C 16.8554,57.7513 16.8584,57.7573 16.8614,57.7623 C 19.2594,61.8433 25.0504,64.6693 32.5274,64.8113 C 34.9954,64.8583 40.3554,64.4303 44.7734,62.9413 C 45.1964,62.7983 45.6044,62.6403 45.9984,62.4673 C 46.0054,62.4643 46.0114,62.4613 46.0184,62.4583 C 46.4064,62.2893 46.7814,62.1063 47.1424,61.9133 C 47.1534,61.9073 47.1644,61.9003 47.1744,61.8943 C 47.5314,61.7033 47.8754,61.5013 48.2064,61.2913 C 48.2174,61.2843 48.2284,61.2773 48.2384,61.2703 C 48.5684,61.0603 48.8864,60.8423 49.1904,60.6193 C 49.1994,60.6123 49.2084,60.6063 49.2174,60.5993 C 49.5224,60.3733 49.8154,60.1433 50.0954,59.9103 C 50.0994,59.9073 50.1034,59.9033 50.1064,59.9003 C 50.8054,59.3163 51.4224,58.7163 51.9594,58.1363 L 51.9594,58.1363 C 51.9654,58.1303 51.9704,58.1253 51.9754,58.1183 C 52.0824,58.0033 52.1854,57.8883 52.2864,57.7743 C 52.2864,57.7743 52.2864,57.7743 52.2864,57.7733 C 53.7504,56.1153 54.5314,54.7093 54.6394,54.5073 C 54.6484,54.4913 54.6544,54.4803 54.6544,54.4803 S 59.8224,56.2563 62.3684,53.0163 C 62.3684,53.0163 60.4734,52.6713 58.8964,51.2413 Z" transform=""/><ellipse cx="32.55731324755847" cy="33.526998296387546" rx="0.6695836980229" ry="0.3092643372989205" fill="#6e6f71" stroke="none" r="NaN" transform=""/><path fill="#688da7" stroke="none" d="M 51.4776,46.691 C 51.4186,46.944 51.3806,47.084 51.3806,47.084 C 51.5216,47.064 51.6566,47.041 51.7896,47.018 C 51.6886,46.92 51.5876,46.814 51.4776,46.691 Z" style="opacity: 0.1" opacity="0.1" transform=""/><path fill="#688da7" stroke="none" d="M 54.1906,52.2442 S 54.2576,51.9842 54.3166,51.5972 C 53.9826,51.9212 53.6286,52.2452 53.2466,52.5642 C 53.2426,52.5672 53.2386,52.5712 53.2356,52.5742 C 52.9556,52.8072 52.6626,53.0372 52.3566,53.2632 C 52.3476,53.2702 52.3386,53.2762 52.3296,53.2832 C 52.0256,53.5062 51.7086,53.7242 51.3786,53.9342 C 51.3676,53.9412 51.3566,53.9482 51.3466,53.9552 C 51.0156,54.1652 50.6716,54.3672 50.3146,54.5582 C 50.3036,54.5642 50.2926,54.5712 50.2826,54.5772 C 49.9206,54.7702 49.5466,54.9522 49.1586,55.1222 C 49.1516,55.1252 49.1456,55.1282 49.1386,55.1312 C 48.7436,55.3032 48.3356,55.4622 47.9136,55.6052 C 43.4956,57.0942 38.1356,57.5222 35.6666,57.4752 C 28.1896,57.3332 22.3986,54.5072 20.0016,50.4262 C 19.9986,50.4212 19.9956,50.4152 19.9926,50.4102 L 19.9936,50.4102 C 19.1506,48.9552 18.1076,43.6442 18.7516,37.8422 C 16.8216,40.1582 15.9826,42.5992 15.7936,43.8052 C 14.7986,50.1242 15.9456,56.1772 16.8526,57.7462 L 16.8526,57.7462 C 16.8556,57.7512 16.8586,57.7572 16.8616,57.7622 C 19.2586,61.8432 25.0496,64.6692 32.5266,64.8112 C 34.9946,64.8582 40.3556,64.4302 44.7726,62.9412 C 45.1956,62.7982 45.6036,62.6402 45.9986,62.4672 C 46.0046,62.4642 46.0116,62.4612 46.0186,62.4592 C 46.4066,62.2892 46.7806,62.1062 47.1416,61.9132 C 47.1536,61.9072 47.1636,61.9002 47.1746,61.8952 C 47.5316,61.7032 47.8746,61.5012 48.2056,61.2912 C 48.2176,61.2842 48.2276,61.2772 48.2386,61.2702 C 48.5676,61.0602 48.8856,60.8422 49.1896,60.6192 C 49.1986,60.6122 49.2076,60.6062 49.2166,60.5992 C 49.5226,60.3732 49.8156,60.1432 50.0946,59.9102 C 50.0996,59.9072 50.1026,59.9032 50.1066,59.9002 C 50.8046,59.3172 51.4216,58.7162 51.9586,58.1362 L 51.9586,58.1362 C 51.9646,58.1312 51.9696,58.1252 51.9756,58.1182 C 52.0816,58.0032 52.1856,57.8882 52.2856,57.7742 C 52.2856,57.7742 52.2866,57.7742 52.2866,57.7732 C 53.7496,56.1152 54.5306,54.7092 54.6386,54.5072 C 54.6476,54.4912 54.6536,54.4802 54.6536,54.4802 S 59.8216,56.2562 62.3686,53.0162 C 62.3686,53.0162 60.4736,52.6712 58.8956,51.2412 C 57.4486,49.9302 54.1906,52.2442 54.1906,52.2442 Z" style="opacity: 0.1" opacity="0.1" transform=""/><path fill="#808184" stroke="none" d="M 31.9505,33.6561 C 32.0565,33.7621 32.2875,33.8361 32.5575,33.8361 C 32.8275,33.8361 33.0595,33.7621 33.1645,33.6561 C 33.0585,33.5511 32.8275,33.4771 32.5575,33.4771 C 32.2875,33.4761 32.0565,33.5511 31.9505,33.6561 Z" transform=""/><ellipse cx="30.72989560433438" cy="56.10798951284144" rx="0.735309705190792" ry="1.2217995261031356" fill="#304454" stroke="none" r="NaN" transform=""/><ellipse cx="19.579360883138424" cy="56.10798951284144" rx="0.735309705190792" ry="1.2217995261031356" fill="#304454" stroke="none" r="NaN" transform=""/><path fill="#49bbd6" stroke="none" d="M 32.2862,32.9484 S 30.9672,24.4294 35.5472,21.9194 C 39.7852,19.5954 42.4702,23.5934 42.4572,24.7144 C 42.4492,25.3974 41.8662,25.8964 40.9692,25.2444 C 40.0732,24.5924 40.0932,22.6154 38.3812,22.2684 C 36.7812,21.9454 34.4042,22.3064 33.1022,26.1994 C 32.0012,29.4924 32.2862,32.9484 32.2862,32.9484 Z" transform=""/><path fill="#49bbd6" stroke="none" d="M 32.2862,24.2455 S 31.0412,20.5585 28.5662,20.3015 C 25.7692,20.0115 23.1092,22.1565 23.0942,23.8785 C 23.0862,24.7345 24.1792,24.9185 25.2802,23.6955 S 26.9612,20.9745 29.0552,21.2345 C 30.6772,21.4355 32.2862,24.2455 32.2862,24.2455 Z" transform=""/><path fill="#49bbd6" stroke="none" d="M 33.224,21.576 S 34.05,19.232 35.965,17.887 C 37.881,16.542 40.089,16.62 39.974,17.597 C 39.863,18.544 38.012,17.925 36.198,18.862 C 34.342,19.821 33.224,21.576 33.224,21.576 Z" transform=""/><path fill="#49bbd6" stroke="none" d="M 31.4095,20.1259 S 30.8585,17.4249 28.6775,16.4369 C 26.9665,15.6609 25.4895,15.8429 25.4875,16.6609 C 25.4855,17.4759 27.4165,17.0599 28.7595,17.5989 C 30.7145,18.3829 31.4095,20.1259 31.4095,20.1259 Z" transform=""/><path fill="#49bbd6" stroke="none" d="M 32.7539,19.1271 S 35.2009,13.0871 32.9689,12.9651 C 30.7379,12.8421 32.7539,19.1271 32.7539,19.1271 Z" transform=""/><path fill="#bdcccc" stroke="none" d="M 123.711,51.2413 C 122.263,49.9293 119.005,52.2443 119.005,52.2443 S 119.827,49.1113 118.233,48.1553 C 116.691,47.2293 116.691,47.1513 115.688,45.9953 C 115.688,45.9953 114.359,48.0713 115.226,50.2393 C 115.688,51.3953 116.383,51.9363 117.463,52.5533 C 117.463,52.5533 117.45,52.5683 117.438,52.5833 C 117.434,52.5873 117.429,52.5923 117.424,52.5983 C 117.402,52.6223 117.37,52.6563 117.327,52.6983 C 117.321,52.7043 117.314,52.7103 117.308,52.7163 C 117.264,52.7593 117.21,52.8073 117.145,52.8623 C 117.138,52.8683 117.133,52.8723 117.126,52.8783 C 117.057,52.9353 116.973,52.9993 116.881,53.0653 C 116.863,53.0783 116.844,53.0913 116.825,53.1053 C 116.726,53.1743 116.616,53.2463 116.49,53.3213 C 116.479,53.3273 116.466,53.3343 116.455,53.3403 C 116.339,53.4083 116.208,53.4773 116.067,53.5473 C 116.035,53.5633 116.004,53.5803 115.97,53.5953 C 115.82,53.6673 115.655,53.7393 115.478,53.8083 C 115.432,53.8273 115.383,53.8443 115.335,53.8623 C 115.172,53.9233 114.998,53.9823 114.812,54.0383 C 114.312,54.1913 113.733,54.3253 113.057,54.4193 C 113.057,54.4193 118.704,34.1323 98.2682,32.4843 C 85.0242,31.4153 81.0522,40.9853 80.6082,43.8053 C 79.6142,50.1243 80.7602,56.1773 81.6682,57.7463 L 81.6672,57.7463 C 81.6702,57.7513 81.6732,57.7573 81.6762,57.7623 C 84.0742,61.8433 89.8652,64.6693 97.3422,64.8113 C 99.8102,64.8583 105.17,64.4303 109.588,62.9413 C 110.011,62.7983 110.419,62.6403 110.813,62.4673 C 110.82,62.4643 110.826,62.4613 110.833,62.4583 C 111.221,62.2893 111.596,62.1063 111.957,61.9133 C 111.968,61.9073 111.979,61.9003 111.989,61.8943 C 112.346,61.7033 112.69,61.5013 113.021,61.2913 C 113.032,61.2843 113.043,61.2773 113.053,61.2703 C 113.383,61.0603 113.701,60.8423 114.005,60.6193 C 114.014,60.6123 114.023,60.6063 114.032,60.5993 C 114.337,60.3733 114.63,60.1433 114.91,59.9103 C 114.914,59.9073 114.918,59.9033 114.921,59.9003 C 115.62,59.3163 116.237,58.7163 116.774,58.1363 L 116.774,58.1363 C 116.78,58.1303 116.785,58.1253 116.79,58.1183 C 116.897,58.0033 117,57.8883 117.101,57.7743 C 117.101,57.7743 117.101,57.7743 117.101,57.7733 C 118.565,56.1153 119.346,54.7093 119.454,54.5073 C 119.463,54.4913 119.469,54.4803 119.469,54.4803 S 124.637,56.2563 127.183,53.0163 C 127.183,53.0163 125.288,52.6713 123.711,51.2413 Z" transform=""/><ellipse cx="97.37212806237328" cy="33.526998296387546" rx="0.6695836980229" ry="0.3092643372989205" fill="#6e6f71" stroke="none" r="NaN" transform=""/><path fill="#688da7" stroke="none" d="M 116.292,46.691 C 116.233,46.944 116.195,47.084 116.195,47.084 C 116.336,47.064 116.471,47.041 116.604,47.018 C 116.503,46.92 116.402,46.814 116.292,46.691 Z" style="opacity: 0.1" opacity="0.1" transform=""/><path fill="#688da7" stroke="none" d="M 119.005,52.2442 S 119.072,51.9842 119.131,51.5972 C 118.797,51.9212 118.443,52.2452 118.061,52.5642 C 118.057,52.5672 118.053,52.5712 118.05,52.5742 C 117.77,52.8072 117.477,53.0372 117.171,53.2632 C 117.162,53.2702 117.153,53.2762 117.144,53.2832 C 116.84,53.5062 116.523,53.7242 116.193,53.9342 C 116.182,53.9412 116.171,53.9482 116.161,53.9552 C 115.83,54.1652 115.486,54.3672 115.129,54.5582 C 115.118,54.5642 115.107,54.5712 115.097,54.5772 C 114.735,54.7702 114.361,54.9522 113.973,55.1222 C 113.966,55.1252 113.96,55.1282 113.953,55.1312 C 113.558,55.3032 113.15,55.4622 112.728,55.6052 C 108.31,57.0942 102.95,57.5222 100.481,57.4752 C 93.0044,57.3332 87.2134,54.5072 84.8164,50.4262 C 84.8134,50.4212 84.8104,50.4152 84.8074,50.4102 L 84.8084,50.4102 C 83.9654,48.9552 82.9224,43.6442 83.5664,37.8422 C 81.6364,40.1582 80.7974,42.5992 80.6084,43.8052 C 79.6134,50.1242 80.7604,56.1772 81.6674,57.7462 L 81.6674,57.7462 C 81.6704,57.7512 81.6734,57.7572 81.6764,57.7622 C 84.0734,61.8432 89.8644,64.6692 97.3414,64.8112 C 99.8094,64.8582 105.17,64.4302 109.587,62.9412 C 110.01,62.7982 110.418,62.6402 110.813,62.4672 C 110.819,62.4642 110.826,62.4612 110.833,62.4592 C 111.221,62.2892 111.595,62.1062 111.956,61.9132 C 111.968,61.9072 111.978,61.9002 111.989,61.8952 C 112.346,61.7032 112.689,61.5012 113.02,61.2912 C 113.032,61.2842 113.042,61.2772 113.053,61.2702 C 113.382,61.0602 113.7,60.8422 114.004,60.6192 C 114.013,60.6122 114.022,60.6062 114.031,60.5992 C 114.337,60.3732 114.63,60.1432 114.909,59.9102 C 114.914,59.9072 114.917,59.9032 114.921,59.9002 C 115.619,59.3172 116.236,58.7162 116.773,58.1362 L 116.773,58.1362 C 116.779,58.1312 116.784,58.1252 116.79,58.1182 C 116.896,58.0032 117,57.8882 117.1,57.7742 C 117.1,57.7742 117.101,57.7742 117.101,57.7732 C 118.564,56.1152 119.345,54.7092 119.453,54.5072 C 119.462,54.4912 119.468,54.4802 119.468,54.4802 S 124.636,56.2562 127.183,53.0162 C 127.183,53.0162 125.288,52.6712 123.71,51.2412 C 122.263,49.9302 119.005,52.2442 119.005,52.2442 Z" style="opacity: 0.1" opacity="0.1" transform=""/><path fill="#808184" stroke="none" d="M 96.7653,33.6561 C 96.8713,33.7621 97.1023,33.8361 97.3723,33.8361 S 97.8743,33.7621 97.9793,33.6561 C 97.8733,33.5511 97.6423,33.4771 97.3723,33.4771 C 97.1023,33.4761 96.8713,33.5511 96.7653,33.6561 Z" transform=""/><ellipse cx="95.5447104191492" cy="56.10798951284144" rx="0.735309705190792" ry="1.2217995261031356" fill="#304454" stroke="none" r="NaN" transform=""/><ellipse cx="84.39417569795323" cy="56.10798951284144" rx="0.735309705190792" ry="1.2217995261031356" fill="#304454" stroke="none" r="NaN" transform=""/><path fill="#49bbd6" stroke="none" d="M 97.101,32.9484 S 95.782,24.4294 100.362,21.9194 C 104.6,19.5954 107.285,23.5934 107.272,24.7144 C 107.264,25.3974 106.681,25.8964 105.784,25.2444 C 104.888,24.5924 104.908,22.6154 103.196,22.2684 C 101.596,21.9454 99.219,22.3064 97.917,26.1994 C 96.816,29.4924 97.101,32.9484 97.101,32.9484 Z" transform=""/><path fill="#49bbd6" stroke="none" d="M 97.101,24.2455 S 95.856,20.5585 93.381,20.3015 C 90.584,20.0115 87.924,22.1565 87.909,23.8785 C 87.901,24.7345 88.994,24.9185 90.095,23.6955 S 91.776,20.9745 93.87,21.2345 C 95.492,21.4355 97.101,24.2455 97.101,24.2455 Z" transform=""/><path fill="#49bbd6" stroke="none" d="M 98.0388,21.576 S 98.8648,19.232 100.78,17.887 C 102.696,16.542 104.904,16.62 104.789,17.597 C 104.678,18.544 102.827,17.925 101.013,18.862 C 99.1568,19.821 98.0388,21.576 98.0388,21.576 Z" transform=""/><path fill="#49bbd6" stroke="none" d="M 96.2243,20.1259 S 95.6733,17.4249 93.4923,16.4369 C 91.7813,15.6609 90.3043,15.8429 90.3023,16.6609 C 90.3003,17.4759 92.2313,17.0599 93.5743,17.5989 C 95.5293,18.3829 96.2243,20.1259 96.2243,20.1259 Z" transform=""/><path fill="#49bbd6" stroke="none" d="M 97.5687,19.1271 S 100.016,13.0871 97.7837,12.9651 C 95.5527,12.8421 97.5687,19.1271 97.5687,19.1271 Z" transform=""/><path fill="#bdcccc" stroke="none" d="M 188.526,51.2413 C 187.078,49.9293 183.82,52.2443 183.82,52.2443 S 184.642,49.1113 183.048,48.1553 C 181.506,47.2293 181.506,47.1513 180.503,45.9953 C 180.503,45.9953 179.174,48.0713 180.041,50.2393 C 180.503,51.3953 181.198,51.9363 182.278,52.5533 C 182.278,52.5533 182.265,52.5683 182.253,52.5833 C 182.249,52.5873 182.244,52.5923 182.239,52.5983 C 182.217,52.6223 182.185,52.6563 182.142,52.6983 C 182.136,52.7043 182.129,52.7103 182.123,52.7163 C 182.079,52.7593 182.025,52.8073 181.96,52.8623 C 181.953,52.8683 181.948,52.8723 181.941,52.8783 C 181.872,52.9353 181.788,52.9993 181.696,53.0653 C 181.678,53.0783 181.659,53.0913 181.64,53.1053 C 181.541,53.1743 181.431,53.2463 181.305,53.3213 C 181.294,53.3273 181.281,53.3343 181.27,53.3403 C 181.154,53.4083 181.023,53.4773 180.882,53.5473 C 180.85,53.5633 180.819,53.5803 180.785,53.5953 C 180.635,53.6673 180.47,53.7393 180.293,53.8083 C 180.247,53.8273 180.198,53.8443 180.15,53.8623 C 179.987,53.9233 179.813,53.9823 179.627,54.0383 C 179.127,54.1913 178.548,54.3253 177.872,54.4193 C 177.872,54.4193 183.519,34.1323 163.083,32.4843 C 149.839,31.4153 145.867,40.9853 145.423,43.8053 C 144.429,50.1243 145.575,56.1773 146.483,57.7463 L 146.482,57.7463 C 146.485,57.7513 146.488,57.7573 146.491,57.7623 C 148.889,61.8433 154.68,64.6693 162.157,64.8113 C 164.625,64.8583 169.985,64.4303 174.403,62.9413 C 174.826,62.7983 175.234,62.6403 175.628,62.4673 C 175.635,62.4643 175.641,62.4613 175.648,62.4583 C 176.036,62.2893 176.411,62.1063 176.772,61.9133 C 176.783,61.9073 176.794,61.9003 176.804,61.8943 C 177.161,61.7033 177.505,61.5013 177.836,61.2913 C 177.847,61.2843 177.858,61.2773 177.868,61.2703 C 178.198,61.0603 178.516,60.8423 178.82,60.6193 C 178.829,60.6123 178.838,60.6063 178.847,60.5993 C 179.152,60.3733 179.445,60.1433 179.725,59.9103 C 179.729,59.9073 179.733,59.9033 179.736,59.9003 C 180.435,59.3163 181.052,58.7163 181.589,58.1363 L 181.589,58.1363 C 181.595,58.1303 181.6,58.1253 181.605,58.1183 C 181.712,58.0033 181.815,57.8883 181.916,57.7743 C 181.916,57.7743 181.916,57.7743 181.916,57.7733 C 183.38,56.1153 184.161,54.7093 184.269,54.5073 C 184.278,54.4913 184.284,54.4803 184.284,54.4803 S 189.452,56.2563 191.998,53.0163 C 191.998,53.0163 190.103,52.6713 188.526,51.2413 Z" transform=""/><ellipse cx="162.18694287718813" cy="33.526998296387546" rx="0.6695836980229" ry="0.3092643372989205" fill="#6e6f71" stroke="none" r="NaN" transform=""/><path fill="#688da7" stroke="none" d="M 181.107,46.691 C 181.048,46.944 181.01,47.084 181.01,47.084 C 181.151,47.064 181.286,47.041 181.419,47.018 C 181.318,46.92 181.217,46.814 181.107,46.691 Z" style="opacity: 0.1" opacity="0.1" transform=""/><path fill="#688da7" stroke="none" d="M 183.82,52.2442 S 183.887,51.9842 183.946,51.5972 C 183.612,51.9212 183.258,52.2452 182.876,52.5642 C 182.872,52.5672 182.868,52.5712 182.865,52.5742 C 182.585,52.8072 182.292,53.0372 181.986,53.2632 C 181.977,53.2702 181.968,53.2762 181.959,53.2832 C 181.655,53.5062 181.338,53.7242 181.008,53.9342 C 180.997,53.9412 180.986,53.9482 180.976,53.9552 C 180.645,54.1652 180.301,54.3672 179.944,54.5582 C 179.933,54.5642 179.922,54.5712 179.912,54.5772 C 179.55,54.7702 179.176,54.9522 178.788,55.1222 C 178.781,55.1252 178.775,55.1282 178.768,55.1312 C 178.373,55.3032 177.965,55.4622 177.543,55.6052 C 173.125,57.0942 167.765,57.5222 165.296,57.4752 C 157.819,57.3332 152.028,54.5072 149.631,50.4262 C 149.628,50.4212 149.625,50.4152 149.622,50.4102 L 149.623,50.4102 C 148.78,48.9552 147.737,43.6442 148.381,37.8422 C 146.451,40.1582 145.612,42.5992 145.423,43.8052 C 144.428,50.1242 145.575,56.1772 146.482,57.7462 L 146.482,57.7462 C 146.485,57.7512 146.488,57.7572 146.491,57.7622 C 148.888,61.8432 154.679,64.6692 162.156,64.8112 C 164.624,64.8582 169.985,64.4302 174.402,62.9412 C 174.825,62.7982 175.233,62.6402 175.628,62.4672 C 175.634,62.4642 175.641,62.4612 175.648,62.4592 C 176.036,62.2892 176.41,62.1062 176.771,61.9132 C 176.783,61.9072 176.793,61.9002 176.804,61.8952 C 177.161,61.7032 177.504,61.5012 177.835,61.2912 C 177.847,61.2842 177.857,61.2772 177.868,61.2702 C 178.197,61.0602 178.515,60.8422 178.819,60.6192 C 178.828,60.6122 178.837,60.6062 178.846,60.5992 C 179.152,60.3732 179.445,60.1432 179.724,59.9102 C 179.729,59.9072 179.732,59.9032 179.736,59.9002 C 180.434,59.3172 181.051,58.7162 181.588,58.1362 L 181.588,58.1362 C 181.594,58.1312 181.599,58.1252 181.605,58.1182 C 181.711,58.0032 181.815,57.8882 181.915,57.7742 C 181.915,57.7742 181.916,57.7742 181.916,57.7732 C 183.379,56.1152 184.16,54.7092 184.268,54.5072 C 184.277,54.4912 184.283,54.4802 184.283,54.4802 S 189.451,56.2562 191.998,53.0162 C 191.998,53.0162 190.103,52.6712 188.525,51.2412 C 187.078,49.9302 183.82,52.2442 183.82,52.2442 Z" style="opacity: 0.1" opacity="0.1" transform=""/><path fill="#808184" stroke="none" d="M 161.58,33.6561 C 161.686,33.7621 161.917,33.8361 162.187,33.8361 S 162.689,33.7621 162.794,33.6561 C 162.688,33.5511 162.457,33.4771 162.187,33.4771 C 161.917,33.4761 161.686,33.5511 161.58,33.6561 Z" transform=""/><ellipse cx="160.35952523396404" cy="56.10798951284144" rx="0.735309705190792" ry="1.2217995261031356" fill="#304454" stroke="none" r="NaN" transform=""/><ellipse cx="149.20899051276808" cy="56.10798951284144" rx="0.735309705190792" ry="1.2217995261031356" fill="#304454" stroke="none" r="NaN" transform=""/><path fill="#49bbd6" stroke="none" d="M 161.916,32.9484 S 160.597,24.4294 165.177,21.9194 C 169.415,19.5954 172.1,23.5934 172.087,24.7144 C 172.079,25.3974 171.496,25.8964 170.599,25.2444 C 169.703,24.5924 169.723,22.6154 168.011,22.2684 C 166.411,21.9454 164.034,22.3064 162.732,26.1994 C 161.631,29.4924 161.916,32.9484 161.916,32.9484 Z" transform=""/><path fill="#49bbd6" stroke="none" d="M 161.916,24.2455 S 160.671,20.5585 158.196,20.3015 C 155.399,20.0115 152.739,22.1565 152.724,23.8785 C 152.716,24.7345 153.809,24.9185 154.91,23.6955 S 156.591,20.9745 158.685,21.2345 C 160.307,21.4355 161.916,24.2455 161.916,24.2455 Z" transform=""/><path fill="#49bbd6" stroke="none" d="M 162.854,21.576 S 163.68,19.232 165.595,17.887 C 167.511,16.542 169.719,16.62 169.604,17.597 C 169.493,18.544 167.642,17.925 165.828,18.862 C 163.972,19.821 162.854,21.576 162.854,21.576 Z" transform=""/><path fill="#49bbd6" stroke="none" d="M 161.039,20.1259 S 160.488,17.4249 158.307,16.4369 C 156.596,15.6609 155.119,15.8429 155.117,16.6609 C 155.115,17.4759 157.046,17.0599 158.389,17.5989 C 160.344,18.3829 161.039,20.1259 161.039,20.1259 Z" transform=""/><path fill="#49bbd6" stroke="none" d="M 162.384,19.1271 S 164.831,13.0871 162.599,12.9651 C 160.368,12.8421 162.384,19.1271 162.384,19.1271 Z" transform=""/><path fill="#bdcccc" stroke="none" d="M 253.341,51.2413 C 251.893,49.9293 248.635,52.2443 248.635,52.2443 S 249.457,49.1113 247.863,48.1553 C 246.321,47.2293 246.321,47.1513 245.318,45.9953 C 245.318,45.9953 243.989,48.0713 244.856,50.2393 C 245.318,51.3953 246.013,51.9363 247.093,52.5533 C 247.093,52.5533 247.08,52.5683 247.068,52.5833 C 247.064,52.5873 247.059,52.5923 247.054,52.5983 C 247.032,52.6223 247,52.6563 246.957,52.6983 C 246.951,52.7043 246.944,52.7103 246.938,52.7163 C 246.894,52.7593 246.84,52.8073 246.775,52.8623 C 246.768,52.8683 246.763,52.8723 246.756,52.8783 C 246.687,52.9353 246.603,52.9993 246.511,53.0653 C 246.493,53.0783 246.474,53.0913 246.455,53.1053 C 246.356,53.1743 246.246,53.2463 246.12,53.3213 C 246.109,53.3273 246.096,53.3343 246.085,53.3403 C 245.969,53.4083 245.838,53.4773 245.697,53.5473 C 245.665,53.5633 245.634,53.5803 245.6,53.5953 C 245.45,53.6673 245.285,53.7393 245.108,53.8083 C 245.062,53.8273 245.013,53.8443 244.965,53.8623 C 244.802,53.9233 244.628,53.9823 244.442,54.0383 C 243.942,54.1913 243.363,54.3253 242.687,54.4193 C 242.687,54.4193 248.334,34.1323 227.898,32.4843 C 214.654,31.4153 210.682,40.9853 210.238,43.8053 C 209.244,50.1243 210.39,56.1773 211.298,57.7463 L 211.297,57.7463 C 211.3,57.7513 211.303,57.7573 211.306,57.7623 C 213.704,61.8433 219.495,64.6693 226.972,64.8113 C 229.44,64.8583 234.8,64.4303 239.218,62.9413 C 239.641,62.7983 240.049,62.6403 240.443,62.4673 C 240.45,62.4643 240.456,62.4613 240.463,62.4583 C 240.851,62.2893 241.226,62.1063 241.587,61.9133 C 241.598,61.9073 241.609,61.9003 241.619,61.8943 C 241.976,61.7033 242.32,61.5013 242.651,61.2913 C 242.662,61.2843 242.673,61.2773 242.683,61.2703 C 243.013,61.0603 243.331,60.8423 243.635,60.6193 C 243.644,60.6123 243.653,60.6063 243.662,60.5993 C 243.967,60.3733 244.26,60.1433 244.54,59.9103 C 244.544,59.9073 244.548,59.9033 244.551,59.9003 C 245.25,59.3163 245.867,58.7163 246.404,58.1363 L 246.404,58.1363 C 246.41,58.1303 246.415,58.1253 246.42,58.1183 C 246.527,58.0033 246.63,57.8883 246.731,57.7743 C 246.731,57.7743 246.731,57.7743 246.731,57.7733 C 248.195,56.1153 248.976,54.7093 249.084,54.5073 C 249.093,54.4913 249.099,54.4803 249.099,54.4803 S 254.267,56.2563 256.813,53.0163 C 256.813,53.0163 254.918,52.6713 253.341,51.2413 Z" transform=""/><ellipse cx="227.00175769200294" cy="33.526998296387546" rx="0.6695836980229" ry="0.3092643372989205" fill="#6e6f71" stroke="none" r="NaN" transform=""/><path fill="#688da7" stroke="none" d="M 245.922,46.691 C 245.863,46.944 245.825,47.084 245.825,47.084 C 245.966,47.064 246.101,47.041 246.234,47.018 C 246.133,46.92 246.032,46.814 245.922,46.691 Z" style="opacity: 0.1" opacity="0.1" transform=""/><path fill="#688da7" stroke="none" d="M 248.635,52.2442 S 248.702,51.9842 248.761,51.5972 C 248.427,51.9212 248.073,52.2452 247.691,52.5642 C 247.687,52.5672 247.683,52.5712 247.68,52.5742 C 247.4,52.8072 247.107,53.0372 246.801,53.2632 C 246.792,53.2702 246.783,53.2762 246.774,53.2832 C 246.47,53.5062 246.153,53.7242 245.823,53.9342 C 245.812,53.9412 245.801,53.9482 245.791,53.9552 C 245.46,54.1652 245.116,54.3672 244.759,54.5582 C 244.748,54.5642 244.737,54.5712 244.727,54.5772 C 244.365,54.7702 243.991,54.9522 243.603,55.1222 C 243.596,55.1252 243.59,55.1282 243.583,55.1312 C 243.188,55.3032 242.78,55.4622 242.358,55.6052 C 237.94,57.0942 232.58,57.5222 230.111,57.4752 C 222.634,57.3332 216.843,54.5072 214.446,50.4262 C 214.443,50.4212 214.44,50.4152 214.437,50.4102 L 214.438,50.4102 C 213.595,48.9552 212.552,43.6442 213.196,37.8422 C 211.266,40.1582 210.427,42.5992 210.238,43.8052 C 209.243,50.1242 210.39,56.1772 211.297,57.7462 L 211.297,57.7462 C 211.3,57.7512 211.303,57.7572 211.306,57.7622 C 213.703,61.8432 219.494,64.6692 226.971,64.8112 C 229.439,64.8582 234.8,64.4302 239.217,62.9412 C 239.64,62.7982 240.048,62.6402 240.443,62.4672 C 240.449,62.4642 240.456,62.4612 240.463,62.4592 C 240.851,62.2892 241.225,62.1062 241.586,61.9132 C 241.598,61.9072 241.608,61.9002 241.619,61.8952 C 241.976,61.7032 242.319,61.5012 242.65,61.2912 C 242.662,61.2842 242.672,61.2772 242.683,61.2702 C 243.012,61.0602 243.33,60.8422 243.634,60.6192 C 243.643,60.6122 243.652,60.6062 243.661,60.5992 C 243.967,60.3732 244.26,60.1432 244.539,59.9102 C 244.544,59.9072 244.547,59.9032 244.551,59.9002 C 245.249,59.3172 245.866,58.7162 246.403,58.1362 L 246.403,58.1362 C 246.409,58.1312 246.414,58.1252 246.42,58.1182 C 246.526,58.0032 246.63,57.8882 246.73,57.7742 C 246.73,57.7742 246.731,57.7742 246.731,57.7732 C 248.194,56.1152 248.975,54.7092 249.083,54.5072 C 249.092,54.4912 249.098,54.4802 249.098,54.4802 S 254.266,56.2562 256.813,53.0162 C 256.813,53.0162 254.918,52.6712 253.34,51.2412 C 251.893,49.9302 248.635,52.2442 248.635,52.2442 Z" style="opacity: 0.1" opacity="0.1" transform=""/><path fill="#808184" stroke="none" d="M 226.395,33.6561 C 226.501,33.7621 226.732,33.8361 227.002,33.8361 S 227.504,33.7621 227.609,33.6561 C 227.503,33.5511 227.272,33.4771 227.002,33.4771 C 226.732,33.4761 226.501,33.5511 226.395,33.6561 Z" transform=""/><ellipse cx="225.17434004877884" cy="56.10798951284144" rx="0.735309705190792" ry="1.2217995261031356" fill="#304454" stroke="none" r="NaN" transform=""/><ellipse cx="214.0238053275829" cy="56.10798951284144" rx="0.735309705190792" ry="1.2217995261031356" fill="#304454" stroke="none" r="NaN" transform=""/><path fill="#49bbd6" stroke="none" d="M 226.731,32.9484 S 225.412,24.4294 229.992,21.9194 C 234.23,19.5954 236.915,23.5934 236.902,24.7144 C 236.894,25.3974 236.311,25.8964 235.414,25.2444 C 234.518,24.5924 234.538,22.6154 232.826,22.2684 C 231.226,21.9454 228.849,22.3064 227.547,26.1994 C 226.446,29.4924 226.731,32.9484 226.731,32.9484 Z" transform=""/><path fill="#49bbd6" stroke="none" d="M 226.731,24.2455 S 225.486,20.5585 223.011,20.3015 C 220.214,20.0115 217.554,22.1565 217.539,23.8785 C 217.531,24.7345 218.624,24.9185 219.725,23.6955 S 221.406,20.9745 223.5,21.2345 C 225.122,21.4355 226.731,24.2455 226.731,24.2455 Z" transform=""/><path fill="#49bbd6" stroke="none" d="M 227.668,21.576 S 228.494,19.232 230.409,17.887 C 232.325,16.542 234.533,16.62 234.418,17.597 C 234.307,18.544 232.456,17.925 230.642,18.862 C 228.786,19.821 227.668,21.576 227.668,21.576 Z" transform=""/><path fill="#49bbd6" stroke="none" d="M 225.854,20.1259 S 225.303,17.4249 223.122,16.4369 C 221.411,15.6609 219.934,15.8429 219.932,16.6609 C 219.93,17.4759 221.861,17.0599 223.204,17.5989 C 225.159,18.3829 225.854,20.1259 225.854,20.1259 Z" transform=""/><path fill="#49bbd6" stroke="none" d="M 227.198,19.1271 S 229.645,13.0871 227.413,12.9651 C 225.182,12.8421 227.198,19.1271 227.198,19.1271 Z" transform=""/><path fill="#bdcccc" stroke="none" d="M 318.156,51.2413 C 316.708,49.9293 313.45,52.2443 313.45,52.2443 S 314.272,49.1113 312.678,48.1553 C 311.136,47.2293 311.136,47.1513 310.133,45.9953 C 310.133,45.9953 308.804,48.0713 309.671,50.2393 C 310.133,51.3953 310.828,51.9363 311.908,52.5533 C 311.908,52.5533 311.895,52.5683 311.883,52.5833 C 311.879,52.5873 311.874,52.5923 311.869,52.5983 C 311.847,52.6223 311.815,52.6563 311.772,52.6983 C 311.766,52.7043 311.759,52.7103 311.753,52.7163 C 311.709,52.7593 311.655,52.8073 311.59,52.8623 C 311.583,52.8683 311.578,52.8723 311.571,52.8783 C 311.502,52.9353 311.418,52.9993 311.326,53.0653 C 311.308,53.0783 311.289,53.0913 311.27,53.1053 C 311.171,53.1743 311.061,53.2463 310.935,53.3213 C 310.924,53.3273 310.911,53.3343 310.9,53.3403 C 310.784,53.4083 310.653,53.4773 310.512,53.5473 C 310.48,53.5633 310.449,53.5803 310.415,53.5953 C 310.265,53.6673 310.1,53.7393 309.923,53.8083 C 309.877,53.8273 309.828,53.8443 309.78,53.8623 C 309.617,53.9233 309.443,53.9823 309.257,54.0383 C 308.757,54.1913 308.178,54.3253 307.502,54.4193 C 307.502,54.4193 313.149,34.1323 292.713,32.4843 C 279.469,31.4153 275.497,40.9853 275.053,43.8053 C 274.059,50.1243 275.205,56.1773 276.113,57.7463 L 276.112,57.7463 C 276.115,57.7513 276.118,57.7573 276.121,57.7623 C 278.519,61.8433 284.31,64.6693 291.787,64.8113 C 294.255,64.8583 299.615,64.4303 304.033,62.9413 C 304.456,62.7983 304.864,62.6403 305.258,62.4673 C 305.265,62.4643 305.271,62.4613 305.278,62.4583 C 305.666,62.2893 306.041,62.1063 306.402,61.9133 C 306.413,61.9073 306.424,61.9003 306.434,61.8943 C 306.791,61.7033 307.135,61.5013 307.466,61.2913 C 307.477,61.2843 307.488,61.2773 307.498,61.2703 C 307.828,61.0603 308.146,60.8423 308.45,60.6193 C 308.459,60.6123 308.468,60.6063 308.477,60.5993 C 308.782,60.3733 309.075,60.1433 309.355,59.9103 C 309.359,59.9073 309.363,59.9033 309.366,59.9003 C 310.065,59.3163 310.682,58.7163 311.219,58.1363 L 311.219,58.1363 C 311.225,58.1303 311.23,58.1253 311.235,58.1183 C 311.342,58.0033 311.445,57.8883 311.546,57.7743 C 311.546,57.7743 311.546,57.7743 311.546,57.7733 C 313.01,56.1153 313.791,54.7093 313.899,54.5073 C 313.908,54.4913 313.914,54.4803 313.914,54.4803 S 319.082,56.2563 321.628,53.0163 C 321.628,53.0163 319.733,52.6713 318.156,51.2413 Z" transform=""/><ellipse cx="291.8165725068177" cy="33.526998296387546" rx="0.6695836980229" ry="0.3092643372989205" fill="#6e6f71" stroke="none" r="NaN" transform=""/><path fill="#688da7" stroke="none" d="M 310.737,46.691 C 310.678,46.944 310.64,47.084 310.64,47.084 C 310.781,47.064 310.916,47.041 311.049,47.018 C 310.948,46.92 310.847,46.814 310.737,46.691 Z" style="opacity: 0.1" opacity="0.1" transform=""/><path fill="#688da7" stroke="none" d="M 313.45,52.2442 S 313.517,51.9842 313.576,51.5972 C 313.242,51.9212 312.888,52.2452 312.506,52.5642 C 312.502,52.5672 312.498,52.5712 312.495,52.5742 C 312.215,52.8072 311.922,53.0372 311.616,53.2632 C 311.607,53.2702 311.598,53.2762 311.589,53.2832 C 311.285,53.5062 310.968,53.7242 310.638,53.9342 C 310.627,53.9412 310.616,53.9482 310.606,53.9552 C 310.275,54.1652 309.931,54.3672 309.574,54.5582 C 309.563,54.5642 309.552,54.5712 309.542,54.5772 C 309.18,54.7702 308.806,54.9522 308.418,55.1222 C 308.411,55.1252 308.405,55.1282 308.398,55.1312 C 308.003,55.3032 307.595,55.4622 307.173,55.6052 C 302.755,57.0942 297.395,57.5222 294.926,57.4752 C 287.449,57.3332 281.658,54.5072 279.261,50.4262 C 279.258,50.4212 279.255,50.4152 279.252,50.4102 L 279.253,50.4102 C 278.41,48.9552 277.367,43.6442 278.011,37.8422 C 276.081,40.1582 275.242,42.5992 275.053,43.8052 C 274.058,50.1242 275.205,56.1772 276.112,57.7462 L 276.112,57.7462 C 276.115,57.7512 276.118,57.7572 276.121,57.7622 C 278.518,61.8432 284.309,64.6692 291.786,64.8112 C 294.254,64.8582 299.615,64.4302 304.032,62.9412 C 304.455,62.7982 304.863,62.6402 305.258,62.4672 C 305.264,62.4642 305.271,62.4612 305.278,62.4592 C 305.666,62.2892 306.04,62.1062 306.401,61.9132 C 306.413,61.9072 306.423,61.9002 306.434,61.8952 C 306.791,61.7032 307.134,61.5012 307.465,61.2912 C 307.477,61.2842 307.487,61.2772 307.498,61.2702 C 307.827,61.0602 308.145,60.8422 308.449,60.6192 C 308.458,60.6122 308.467,60.6062 308.476,60.5992 C 308.782,60.3732 309.075,60.1432 309.354,59.9102 C 309.359,59.9072 309.362,59.9032 309.366,59.9002 C 310.064,59.3172 310.681,58.7162 311.218,58.1362 L 311.218,58.1362 C 311.224,58.1312 311.229,58.1252 311.235,58.1182 C 311.341,58.0032 311.445,57.8882 311.545,57.7742 C 311.545,57.7742 311.546,57.7742 311.546,57.7732 C 313.009,56.1152 313.79,54.7092 313.898,54.5072 C 313.907,54.4912 313.913,54.4802 313.913,54.4802 S 319.081,56.2562 321.628,53.0162 C 321.628,53.0162 319.733,52.6712 318.155,51.2412 C 316.708,49.9302 313.45,52.2442 313.45,52.2442 Z" style="opacity: 0.1" opacity="0.1" transform=""/><path fill="#808184" stroke="none" d="M 291.21,33.6561 C 291.316,33.7621 291.547,33.8361 291.817,33.8361 C 292.087,33.8361 292.319,33.7621 292.424,33.6561 C 292.318,33.5511 292.087,33.4771 291.817,33.4771 C 291.547,33.4761 291.316,33.5511 291.21,33.6561 Z" transform=""/><ellipse cx="289.9891548635936" cy="56.10798951284144" rx="0.735309705190792" ry="1.2217995261031356" fill="#304454" stroke="none" r="NaN" transform=""/><ellipse cx="278.83862014239764" cy="56.10798951284144" rx="0.735309705190792" ry="1.2217995261031356" fill="#304454" stroke="none" r="NaN" transform=""/><path fill="#49bbd6" stroke="none" d="M 291.545,32.9484 S 290.226,24.4294 294.806,21.9194 C 299.044,19.5954 301.729,23.5934 301.716,24.7144 C 301.708,25.3974 301.125,25.8964 300.228,25.2444 C 299.332,24.5924 299.352,22.6154 297.64,22.2684 C 296.04,21.9454 293.663,22.3064 292.361,26.1994 C 291.26,29.4924 291.545,32.9484 291.545,32.9484 Z" transform=""/><path fill="#49bbd6" stroke="none" d="M 291.545,24.2455 S 290.3,20.5585 287.825,20.3015 C 285.028,20.0115 282.368,22.1565 282.353,23.8785 C 282.345,24.7345 283.438,24.9185 284.539,23.6955 S 286.22,20.9745 288.314,21.2345 C 289.936,21.4355 291.545,24.2455 291.545,24.2455 Z" transform=""/><path fill="#49bbd6" stroke="none" d="M 292.483,21.576 S 293.309,19.232 295.224,17.887 C 297.14,16.542 299.348,16.62 299.233,17.597 C 299.122,18.544 297.271,17.925 295.457,18.862 C 293.601,19.821 292.483,21.576 292.483,21.576 Z" transform=""/><path fill="#49bbd6" stroke="none" d="M 290.669,20.1259 S 290.118,17.4249 287.937,16.4369 C 286.226,15.6609 284.749,15.8429 284.747,16.6609 C 284.745,17.4759 286.676,17.0599 288.019,17.5989 C 289.974,18.3829 290.669,20.1259 290.669,20.1259 Z" transform=""/><path fill="#49bbd6" stroke="none" d="M 292.013,19.1271 S 294.46,13.0871 292.228,12.9651 C 289.997,12.8421 292.013,19.1271 292.013,19.1271 Z" transform=""/><path fill="#000000" stroke="#000000" d="M 51.8519,12.963 L 127.438,12.963" style="stroke-width: 2px;stroke-opacity: 1;fill-opacity: 0" stroke-width="2" stroke-opacity="1" stroke-dasharray="0" fill-opacity="0" transform="rotate(120.96375653207349 51.851851851851855 12.962962962962964)"/><path fill="#000000" stroke="#000000" d="M 116.667,12.963 L 192.253,12.963" style="stroke-width: 2px;stroke-opacity: 1;fill-opacity: 0" stroke-width="2" stroke-opacity="1" stroke-dasharray="0" fill-opacity="0" transform="rotate(120.96375653207349 116.66666666666667 12.962962962962964)"/></svg>