<svg xmlns="http://www.w3.org/2000/svg" version="1.1" width="38" height="38" viewBox="0 0 38 38"><defs><linearGradient id="r-a58b456dbf5f49418117600c6468d3c6" x1="0" y1="0.9999999999999999" x2="0.8284485439887713" y2="0"><stop offset="0%" stop-color="#fdd1b0"/><stop offset="100%" stop-color="#eeb490"/></linearGradient></defs><path fill="none" stroke="#edaa84" d="M 22.4234,16.3929 S 24.3434,15.7989 25.5594,16.0139" style="stroke-linecap: round;stroke-linejoin: round;stroke-width: 0.2478543972493269px" stroke-width="0.2478543972493269" stroke-linecap="round" stroke-linejoin="round" transform=""/><path fill="none" stroke="#edaa84" d="M 22.7212,16.3605 S 24.7312,16.3825 25.8222,16.9595" style="stroke-linecap: round;stroke-linejoin: round;stroke-width: 0.2478543972493269px" stroke-width="0.2478543972493269" stroke-linecap="round" stroke-linejoin="round" transform=""/><path fill="#d78334" stroke="none" d="M 28.8465,6.85906 C 26.9555,7.34406 26.1995,8.44906 25.8995,9.29006 C 25.3655,10.7891 25.8755,12.4801 26.6185,13.4901 C 26.7745,13.7031 27.0725,13.7491 27.2845,13.5931 S 27.5425,13.1391 27.3865,12.9271 C 26.8125,12.1441 26.3825,10.7731 26.7975,9.61006 C 27.1215,8.70306 27.8895,8.08806 29.0835,7.78206 C 30.8045,7.34006 31.7855,8.16706 32.3075,8.93906 C 33.1755,10.2251 33.2305,12.0611 32.6985,12.7831 C 32.2985,13.3261 31.7985,13.6681 31.3155,13.9991 C 30.2835,14.7051 29.2165,15.4351 29.6775,17.8371 C 29.8505,18.7281 29.7025,19.4241 29.2265,19.9631 C 27.9105,21.4551 24.5775,21.2561 24.5445,21.2541 C 24.2815,21.2381 24.0545,21.4361 24.0375,21.6991 C 24.0205,21.9621 24.2185,22.1881 24.4815,22.2051 C 24.6375,22.2161 28.3125,22.4371 29.9405,20.5941 C 30.6155,19.8291 30.8425,18.8411 30.6135,17.6571 C 30.2695,15.8681 30.8655,15.4611 31.8535,14.7851 C 32.3765,14.4281 32.9695,14.0211 33.4655,13.3481 C 34.3055,12.2091 34.1355,9.94606 33.0955,8.40606 C 32.1185,6.95606 30.6095,6.40606 28.8465,6.85906 Z" transform=""/><path fill="#d78334" stroke="none" d="M 20.1301,22.9574 C 19.8201,22.5774 17.9821,21.9774 16.5401,24.8074 C 15.0991,27.6344 13.8341,25.5234 12.8791,26.4134 C 11.9241,27.3044 15.3831,26.9994 16.3861,27.1814 C 17.3111,27.3514 16.4361,26.6474 16.8331,26.0734 C 17.1731,25.5804 17.6141,25.4864 18.8091,25.2494 C 20.0151,25.0124 20.6841,23.6394 20.1301,22.9574 Z" transform=""/><path fill="#d78334" stroke="none" d="M 23.2212,24.8605 C 23.5322,26.6465 25.8272,27.9185 28.4642,25.9195 C 31.1002,23.9215 31.3272,26.4755 32.6252,26.0735 C 33.9252,25.6725 30.5432,24.3885 29.6872,23.7615 C 28.8962,23.1835 29.3982,24.2405 28.7652,24.5975 C 28.2222,24.9055 27.5572,22.5795 26.3052,22.3715 C 24.0392,22.0005 22.9592,23.3515 23.2212,24.8605 Z" transform=""/><path fill="#d78334" stroke="none" d="M 17.2033,13.7864 S 18.7973,11.1594 17.6843,9.04343 C 16.2453,6.31043 11.7273,7.87443 12.2413,11.1764 C 12.5103,12.9064 14.2003,14.0424 14.2003,14.0424 L 17.2033,13.7864 Z" transform=""/><path fill="#f4953f" stroke="none" d="M 19.437,21.726 S 21.261,23.038 22.437,21.957 C 24.213,20.322 25.355,20.546 26.119,20.695 C 28.322,21.121 30.258,26.832 24.64,28.28 C 19.26,29.666 16.184,23.733 16.184,23.733 L 19.437,21.726 Z" transform=""/><path fill="url(#r-a58b456dbf5f49418117600c6468d3c6)" stroke="none" d="M 16.466,24.2128 L 17.605,23.5208 S 18.077,25.3318 20.447,25.4388 C 22.448,25.5278 24.214,22.3118 25.848,23.6618 C 26.736,24.3938 27.518,25.5268 27.432,26.7058 C 26.85,27.3778 25.953,27.9418 24.641,28.2798 C 20.206,29.4218 17.338,25.5938 16.466,24.2128 Z" opacity="1" fill-opacity="1" style="opacity: 1;fill-opacity: 1" transform=""/><path fill="#eeb490" stroke="none" d="M 25.6389,26.3008 L 27.2249,26.9248 C 26.6449,27.4998 25.8069,27.9798 24.6399,28.2808 C 24.4129,28.3398 24.1919,28.3808 23.9729,28.4148 C 24.6989,27.7038 24.4449,26.8498 24.4449,26.8498 L 25.6389,26.3008 Z" transform=""/><path fill="#eeb490" stroke="none" d="M 25.8474,23.6619 C 26.7354,24.3949 27.5174,25.5269 27.4314,26.7059 C 27.0544,27.1399 26.5434,27.5319 25.8724,27.8449 C 23.6484,27.1339 22.8844,25.5079 23.1634,24.1629 C 24.1034,23.4989 24.9934,22.9569 25.8474,23.6619 Z" transform=""/><path fill="#f4953f" stroke="none" d="M 20.9579,22.9483 C 20.5389,22.6073 18.6069,22.3193 17.6789,25.6933 C 16.7509,29.0673 14.9169,27.0673 14.0849,28.2413 C 13.2519,29.4143 16.9189,28.3153 18.0409,28.2923 C 19.0769,28.2683 17.9759,27.7023 18.2759,26.9973 C 18.5349,26.3873 18.9579,26.0483 20.1949,25.5283 C 21.4449,25.0023 21.7079,23.5603 20.9579,22.9483 Z" transform=""/><path fill="#f4953f" stroke="none" d="M 24.3586,14.1347 C 24.1786,12.9497 23.1186,12.2777 22.5146,12.5297 C 19.3226,13.8607 17.8826,12.3947 15.2376,12.6347 C 15.6596,12.2937 16.1366,12.0487 16.1366,12.0487 C 15.5586,12.0627 15.0306,12.3877 14.6426,12.7147 C 14.6006,12.7227 14.5586,12.7287 14.5156,12.7377 C 14.8756,12.1607 15.6806,11.6057 15.6806,11.6057 C 14.8826,11.7297 14.2536,12.4467 13.9426,12.8777 C 11.2136,13.7007 9.68156,16.7407 10.0646,19.4087 C 10.1816,20.2227 10.5746,21.4337 11.1996,22.3457 C 11.0916,22.9367 11.0896,23.6307 11.4186,24.2507 C 11.4186,24.2507 11.3946,23.5657 11.5106,22.9187 C 11.4706,23.4097 11.5236,23.9397 11.7806,24.4237 C 11.7806,24.4237 11.7576,23.7477 11.8706,23.1047 C 11.8726,23.1057 11.8726,23.1057 11.8746,23.1077 C 11.8916,23.5217 11.9846,23.9497 12.2166,24.3397 C 12.2166,24.3397 12.1786,23.8847 12.2106,23.3627 C 14.0226,24.6467 15.8616,24.4487 17.3756,24.1117 C 18.8656,23.7777 19.6716,24.0407 20.6206,22.9837 C 20.8946,22.6797 20.8006,21.5067 21.0346,21.1237 C 21.2736,20.7347 24.6866,16.2847 24.3586,14.1347 Z" transform=""/><path fill="#f4953f" stroke="none" d="M 10.7124,17.802 L 10.3734,16.546 L 10.3414,16.564 C 10.0924,17.302 9.97835,18.084 10.0134,18.851 C 10.2504,18.25 10.7124,17.802 10.7124,17.802 Z" transform=""/><path fill="none" stroke="#edaa84" d="M 20.621,15.8069 S 17.568,17.3279 16.153,20.9579" style="stroke-linecap: round;stroke-linejoin: round;stroke-width: 0.2478543972493269px" stroke-width="0.2478543972493269" stroke-linecap="round" stroke-linejoin="round" transform=""/><path fill="none" stroke="#edaa84" d="M 21.1506,16.4561 S 18.5956,18.1711 17.7426,20.9741" style="stroke-linecap: round;stroke-linejoin: round;stroke-width: 0.2478543972493269px" stroke-width="0.2478543972493269" stroke-linecap="round" stroke-linejoin="round" transform=""/><path fill="none" stroke="#edaa84" d="M 21.6944,17.0197 S 19.9494,19.0147 20.1734,21.5317" style="stroke-linecap: round;stroke-linejoin: round;stroke-width: 0.2478543972493269px" stroke-width="0.2478543972493269" stroke-linecap="round" stroke-linejoin="round" transform=""/><path fill="#cc8461" stroke="none" d="M 21.7896,15.9802 C 21.8376,15.9982 21.8896,15.9722 21.9056,15.9242 C 21.9216,15.8772 21.8956,15.8242 21.8476,15.8072 C 21.7996,15.7912 21.7486,15.8172 21.7316,15.8652 C 21.7156,15.9142 21.7406,15.9652 21.7896,15.9802 Z" transform=""/><path fill="#cc8461" stroke="none" d="M 21.1984,15.782 C 21.2454,15.799 21.2984,15.772 21.3154,15.723 C 21.3314,15.677 21.3054,15.626 21.2574,15.608 C 21.2094,15.592 21.1574,15.617 21.1424,15.665 C 21.1254,15.713 21.1504,15.765 21.1984,15.782 Z" transform=""/><path fill="#cc8461" stroke="none" d="M 22.4649,15.4151 C 22.5129,15.4331 22.5649,15.4091 22.5809,15.3581 C 22.5969,15.3111 22.5719,15.2591 22.5239,15.2421 C 22.4759,15.2271 22.4239,15.2521 22.4069,15.3001 C 22.3919,15.3471 22.4159,15.4001 22.4649,15.4151 Z" transform=""/><path fill="#cc8461" stroke="none" d="M 23.4518,14.5763 C 23.4998,14.5913 23.5508,14.5673 23.5668,14.5183 C 23.5848,14.4703 23.5588,14.4193 23.5098,14.4033 C 23.4618,14.3863 23.4108,14.4113 23.3938,14.4593 C 23.3768,14.5083 23.4028,14.5593 23.4518,14.5763 Z" transform=""/><path fill="#cc8461" stroke="none" d="M 22.6829,14.8997 C 22.7299,14.9147 22.7829,14.8907 22.7979,14.8417 C 22.8149,14.7937 22.7899,14.7417 22.7419,14.7267 C 22.6929,14.7087 22.6419,14.7357 22.6269,14.7837 C 22.6089,14.8307 22.6339,14.8827 22.6829,14.8997 Z" transform=""/><path fill="#cc8461" stroke="none" d="M 23.0186,16.4312 C 23.0666,16.4492 23.1186,16.4232 23.1346,16.3742 C 23.1516,16.3272 23.1246,16.2742 23.0776,16.2572 C 23.0296,16.2432 22.9776,16.2672 22.9626,16.3152 C 22.9456,16.3652 22.9706,16.4162 23.0186,16.4312 Z" transform=""/><path fill="#cc8461" stroke="none" d="M 23.6706,15.8388 C 23.7186,15.8558 23.7696,15.8288 23.7866,15.7828 C 23.8036,15.7338 23.7766,15.6818 23.7296,15.6658 C 23.6816,15.6498 23.6296,15.6748 23.6126,15.7228 C 23.5976,15.7688 23.6226,15.8238 23.6706,15.8388 Z" transform=""/><path fill="#cc8461" stroke="none" d="M 22.205,16.6662 C 22.252,16.6812 22.305,16.6572 22.322,16.6102 C 22.337,16.5612 22.312,16.5092 22.264,16.4932 C 22.216,16.4772 22.163,16.5032 22.149,16.5502 C 22.131,16.5972 22.156,16.6512 22.205,16.6662 Z" transform=""/><path fill="#cc8461" stroke="none" d="M 22.5044,15.9368 C 22.5524,15.9548 22.6044,15.9288 22.6214,15.8808 C 22.6374,15.8338 22.6114,15.7808 22.5634,15.7638 C 22.5154,15.7488 22.4634,15.7728 22.4474,15.8218 C 22.4314,15.8698 22.4564,15.9208 22.5044,15.9368 Z" transform=""/><path fill="#cc8461" stroke="none" d="M 21.4282,16.4676 C 21.4752,16.4846 21.5282,16.4586 21.5432,16.4106 C 21.5602,16.3636 21.5352,16.3106 21.4862,16.2946 C 21.4382,16.2796 21.3872,16.3046 21.3702,16.3506 C 21.3542,16.3996 21.3792,16.4526 21.4282,16.4676 Z" transform=""/><ellipse cx="23.075850701514923" cy="15.532780570520194" rx="0.09162240306221134" ry="0.09162240306221134" fill="#cc8461" stroke="none" r="0.09162240306221134" transform=""/><path fill="#f4953f" stroke="none" d="M 12.762,14.408 S 11.338,9.91504 7.64001,9.98004 C 3.88801,10.045 2.46201,16.418 6.14801,17.92 C 8.31501,18.804 10.785,17.914 10.785,17.914 L 12.762,14.408 Z" transform=""/><path fill="#f4dbc5" stroke="none" d="M 12.5085,15.1023 S 11.1195,14.9393 10.4825,13.5783 C 9.94047,12.4223 10.1785,11.4283 9.20747,10.8593 C 8.23647,10.2873 6.64547,10.5043 5.83147,11.1673 C 4.95647,11.8763 3.32347,14.7473 5.20947,16.8953 C 6.96447,18.8943 10.8495,17.6133 10.8495,17.6133 L 12.5085,15.1023 Z" transform=""/><path fill="#e2bda1" stroke="none" d="M 12.2154,15.0387 C 11.8164,14.9217 11.0954,14.6167 10.6254,13.8447 C 10.1634,13.8777 9.23244,15.0727 9.93344,16.2017 C 10.3014,16.7927 10.9354,16.9917 11.3914,17.0117 L 12.4274,15.2147 L 12.2154,15.0387 Z" transform=""/><path fill="#f4953f" stroke="none" d="M 13.1593,13.6762 S 11.0453,14.8972 10.5343,17.2942 C 10.0243,19.6932 11.9533,17.0762 11.9533,17.0762 L 12.7273,16.1072 L 13.1593,13.6762 Z" transform=""/><path fill="#304454" stroke="none" d="M 22.5147,12.529 S 23.5937,11.673 24.1887,12.165 C 25.0147,12.849 24.3587,14.134 24.3587,14.134 S 22.8197,13.567 22.5147,12.529 Z" transform=""/><path fill="#f4953f" stroke="none" d="M 23.8993,22.7299 C 22.6603,24.1959 23.1883,26.9219 26.5993,27.7049 C 30.0093,28.4859 28.0923,30.4049 29.2993,31.1859 C 30.5083,31.9679 29.2533,28.3519 29.1803,27.2319 C 29.1123,26.1979 28.5953,27.3209 27.8763,27.0519 C 27.2563,26.8189 28.6933,24.6989 28.0103,23.5449 C 26.7743,21.4539 24.9443,21.4929 23.8993,22.7299 Z" transform=""/><ellipse cx="17.001521604345072" cy="15.759467168996624" rx="0.4198043726514252" ry="0.6970411267448405" fill="#304454" stroke="none" transform="rotate(-18.3661 17.001521550684036 15.759466846514979)" r="NaN"/></svg>