<svg xmlns="http://www.w3.org/2000/svg" version="1.1" width="400" height="56.06469002695417" viewBox="0 0 400 56.06469002695417"><defs/><path fill="#eee8aa" stroke="#000000" d="M 1.07817,11.8598 L 11.8598,1.07817 L 54.9865,1.07817 L 44.2049,11.8598 Z" style="stroke-width: 2px;fill-opacity: 1;stroke-opacity: 1" stroke-width="2" fill-opacity="1" stroke-opacity="1" stroke-dasharray="0"/><path fill="#eee8aa" stroke="#000000" d="M 1.07817,54.9865 L 44.2049,54.9865 L 44.2049,11.8598 L 1.07817,11.8598 Z" style="stroke-width: 2px;fill-opacity: 1;stroke-opacity: 1" stroke-width="2" fill-opacity="1" stroke-opacity="1" stroke-dasharray="0"/><path fill="#eee8aa" stroke="#000000" d="M 44.2049,54.9865 L 44.2049,11.8598 L 54.9865,1.07817 L 54.9865,44.2049 Z" style="stroke-width: 2px;fill-opacity: 1;stroke-opacity: 1" stroke-width="2" fill-opacity="1" stroke-opacity="1" stroke-dasharray="0"/><path fill="#d78334" stroke="none" d="M 23.6711,42.6118 C 21.4311,45.7308 14.6811,51.3098 14.4031,51.0738 C 13.9061,50.6538 17.3521,42.0808 19.5931,38.9618 S 22.2411,36.6478 23.8551,37.7058 C 25.3311,38.6738 25.9111,39.4928 23.6711,42.6118 Z" transform=""/><path fill="#f4953f" stroke="none" d="M 23.95,37.6524 C 22.251,36.5804 21.822,35.7654 19.464,38.9244 C 19.274,39.1784 19.075,39.4724 18.872,39.7904 C 19.294,41.5524 20.931,42.8664 22.889,42.8664 C 23.138,42.8664 23.38,42.8424 23.617,42.8014 C 23.664,42.7414 23.712,42.6804 23.756,42.6214 C 26.114,39.4624 25.504,38.6324 23.95,37.6524 Z" transform=""/><path fill="#f4953f" stroke="none" d="M 16.0325,45.4736 C 14.6705,48.4856 13.5985,51.5066 13.8825,51.7456 C 14.0505,51.8866 16.7105,49.8036 19.1715,47.5116 C 17.7945,47.4416 16.6175,46.6326 16.0325,45.4736 Z" transform=""/><path fill="#f4953f" stroke="none" d="M 23.1947,43.3505 C 22.9677,43.3905 22.7347,43.4145 22.4957,43.4145 C 20.6157,43.4145 19.0457,42.1265 18.6397,40.4015 C 17.8677,41.6345 17.0157,43.3065 16.2497,44.9805 C 16.8707,46.1995 18.1227,47.0495 19.5857,47.1225 C 21.0027,45.8175 22.3567,44.4485 23.1947,43.3505 Z" transform=""/><path fill="#d78334" stroke="none" d="M 23.9951,37.9991 C 23.1831,37.3601 22.8941,36.8261 21.9731,37.4281 C 21.7851,38.0761 22.1051,38.8971 22.8131,39.4381 C 23.3511,39.8481 23.9871,40.0001 24.5131,39.8951 C 24.9091,39.0811 24.6831,38.5401 23.9951,37.9991 Z" transform=""/><path fill="#64c4ad" stroke="none" d="M 31.4023,34.9926 C 31.7343,34.3826 30.1413,33.7086 28.4003,34.0536 C 27.5353,34.2256 26.8043,34.6356 26.2883,35.0036 C 26.0933,35.0756 25.9083,35.1676 25.7303,35.2746 C 26.6783,33.8516 28.6123,30.7196 27.6143,30.2326 C 26.5183,29.6986 25.5883,34.1526 25.3243,35.5606 C 25.3093,35.5726 25.2933,35.5846 25.2783,35.5966 C 25.3363,35.2326 25.6063,33.1606 24.4453,31.8666 C 23.4443,30.7496 22.3103,30.4836 22.0503,31.1536 C 21.7913,31.8216 23.3293,32.0226 24.1373,32.8416 C 25.1933,33.9126 25.2643,35.3276 25.2683,35.6056 C 25.2603,35.6126 25.2523,35.6196 25.2443,35.6266 C 25.2223,35.0946 25.0793,33.9106 24.2683,33.4976 C 23.0733,32.8876 21.5203,33.3866 21.2183,34.1496 C 21.0673,34.5296 21.5233,34.7996 22.2223,34.4436 C 22.9223,34.0886 23.4383,33.5206 24.3263,33.9966 C 24.8483,34.2756 25.1083,35.2216 25.2033,35.6626 C 24.2383,36.4946 23.5683,37.7976 23.1473,38.8546 C 23.1873,38.8716 23.2273,38.8876 23.2683,38.9046 C 23.5793,38.2616 23.9993,37.5216 24.5363,36.8426 C 26.1113,34.8496 27.4733,35.1336 28.2633,35.6546 C 29.1093,36.2126 28.6543,37.3576 28.9923,37.9236 C 29.3293,38.4886 29.7553,38.3206 29.9133,37.9246 C 30.1393,37.3556 29.7433,35.0686 27.7503,34.8316 C 27.9343,34.7986 28.1253,34.7746 28.3223,34.7616 C 29.8853,34.6556 31.0813,35.5846 31.4023,34.9926 Z" transform=""/><path fill="#eee8aa" stroke="#000000" d="M 60.3774,11.8598 L 71.159,1.07817 L 114.286,1.07817 L 103.504,11.8598 Z" style="stroke-width: 2px;fill-opacity: 1;stroke-opacity: 1" stroke-width="2" fill-opacity="1" stroke-opacity="1" stroke-dasharray="0"/><path fill="#eee8aa" stroke="#000000" d="M 60.3774,54.9865 L 103.504,54.9865 L 103.504,11.8598 L 60.3774,11.8598 Z" style="stroke-width: 2px;fill-opacity: 1;stroke-opacity: 1" stroke-width="2" fill-opacity="1" stroke-opacity="1" stroke-dasharray="0"/><path fill="#eee8aa" stroke="#000000" d="M 103.504,54.9865 L 103.504,11.8598 L 114.286,1.07817 L 114.286,44.2049 Z" style="stroke-width: 2px;fill-opacity: 1;stroke-opacity: 1" stroke-width="2" fill-opacity="1" stroke-opacity="1" stroke-dasharray="0"/><path fill="#d78334" stroke="none" d="M 82.9703,42.6118 C 80.7303,45.7308 73.9803,51.3098 73.7023,51.0738 C 73.2053,50.6538 76.6513,42.0808 78.8923,38.9618 S 81.5403,36.6478 83.1543,37.7058 C 84.6303,38.6738 85.2103,39.4928 82.9703,42.6118 Z" transform=""/><path fill="#f4953f" stroke="none" d="M 83.2492,37.6524 C 81.5502,36.5804 81.1212,35.7654 78.7632,38.9244 C 78.5732,39.1784 78.3742,39.4724 78.1712,39.7904 C 78.5932,41.5524 80.2302,42.8664 82.1882,42.8664 C 82.4372,42.8664 82.6792,42.8424 82.9162,42.8014 C 82.9632,42.7414 83.0112,42.6804 83.0552,42.6214 C 85.4132,39.4624 84.8032,38.6324 83.2492,37.6524 Z" transform=""/><path fill="#f4953f" stroke="none" d="M 75.3317,45.4736 C 73.9697,48.4856 72.8977,51.5066 73.1817,51.7456 C 73.3497,51.8866 76.0097,49.8036 78.4707,47.5116 C 77.0937,47.4416 75.9167,46.6326 75.3317,45.4736 Z" transform=""/><path fill="#f4953f" stroke="none" d="M 82.4939,43.3505 C 82.2669,43.3905 82.0339,43.4145 81.7949,43.4145 C 79.9149,43.4145 78.3449,42.1265 77.9389,40.4015 C 77.1669,41.6345 76.3149,43.3065 75.5489,44.9805 C 76.1699,46.1995 77.4219,47.0495 78.8849,47.1225 C 80.3019,45.8175 81.6559,44.4485 82.4939,43.3505 Z" transform=""/><path fill="#d78334" stroke="none" d="M 83.2943,37.9991 C 82.4823,37.3601 82.1933,36.8261 81.2723,37.4281 C 81.0843,38.0761 81.4043,38.8971 82.1123,39.4381 C 82.6503,39.8481 83.2863,40.0001 83.8123,39.8951 C 84.2083,39.0811 83.9823,38.5401 83.2943,37.9991 Z" transform=""/><path fill="#64c4ad" stroke="none" d="M 90.7015,34.9926 C 91.0335,34.3826 89.4405,33.7086 87.6995,34.0536 C 86.8345,34.2256 86.1035,34.6356 85.5875,35.0036 C 85.3925,35.0756 85.2075,35.1676 85.0295,35.2746 C 85.9775,33.8516 87.9115,30.7196 86.9135,30.2326 C 85.8175,29.6986 84.8875,34.1526 84.6235,35.5606 C 84.6085,35.5726 84.5925,35.5846 84.5775,35.5966 C 84.6355,35.2326 84.9055,33.1606 83.7445,31.8666 C 82.7435,30.7496 81.6095,30.4836 81.3495,31.1536 C 81.0905,31.8216 82.6285,32.0226 83.4365,32.8416 C 84.4925,33.9126 84.5635,35.3276 84.5675,35.6056 C 84.5595,35.6126 84.5515,35.6196 84.5435,35.6266 C 84.5215,35.0946 84.3785,33.9106 83.5675,33.4976 C 82.3725,32.8876 80.8195,33.3866 80.5175,34.1496 C 80.3665,34.5296 80.8225,34.7996 81.5215,34.4436 C 82.2215,34.0886 82.7375,33.5206 83.6255,33.9966 C 84.1475,34.2756 84.4075,35.2216 84.5025,35.6626 C 83.5375,36.4946 82.8675,37.7976 82.4465,38.8546 C 82.4865,38.8716 82.5265,38.8876 82.5675,38.9046 C 82.8785,38.2616 83.2985,37.5216 83.8355,36.8426 C 85.4105,34.8496 86.7725,35.1336 87.5625,35.6546 C 88.4085,36.2126 87.9535,37.3576 88.2915,37.9236 C 88.6285,38.4886 89.0545,38.3206 89.2125,37.9246 C 89.4385,37.3556 89.0425,35.0686 87.0495,34.8316 C 87.2335,34.7986 87.4245,34.7746 87.6215,34.7616 C 89.1845,34.6556 90.3805,35.5846 90.7015,34.9926 Z" transform=""/><path fill="#eee8aa" stroke="#000000" d="M 119.677,11.8598 L 130.458,1.07817 L 173.585,1.07817 L 162.803,11.8598 Z" style="stroke-width: 2px;fill-opacity: 1;stroke-opacity: 1" stroke-width="2" fill-opacity="1" stroke-opacity="1" stroke-dasharray="0"/><path fill="#eee8aa" stroke="#000000" d="M 119.677,54.9865 L 162.803,54.9865 L 162.803,11.8598 L 119.677,11.8598 Z" style="stroke-width: 2px;fill-opacity: 1;stroke-opacity: 1" stroke-width="2" fill-opacity="1" stroke-opacity="1" stroke-dasharray="0"/><path fill="#eee8aa" stroke="#000000" d="M 162.803,54.9865 L 162.803,11.8598 L 173.585,1.07817 L 173.585,44.2049 Z" style="stroke-width: 2px;fill-opacity: 1;stroke-opacity: 1" stroke-width="2" fill-opacity="1" stroke-opacity="1" stroke-dasharray="0"/><path fill="#d78334" stroke="none" d="M 142.269,42.6118 C 140.029,45.7308 133.279,51.3098 133.001,51.0738 C 132.504,50.6538 135.95,42.0808 138.191,38.9618 S 140.839,36.6478 142.453,37.7058 C 143.929,38.6738 144.509,39.4928 142.269,42.6118 Z" transform=""/><path fill="#f4953f" stroke="none" d="M 142.548,37.6524 C 140.849,36.5804 140.42,35.7654 138.062,38.9244 C 137.872,39.1784 137.673,39.4724 137.47,39.7904 C 137.892,41.5524 139.529,42.8664 141.487,42.8664 C 141.736,42.8664 141.978,42.8424 142.215,42.8014 C 142.262,42.7414 142.31,42.6804 142.354,42.6214 C 144.712,39.4624 144.102,38.6324 142.548,37.6524 Z" transform=""/><path fill="#f4953f" stroke="none" d="M 134.631,45.4736 C 133.269,48.4856 132.197,51.5066 132.481,51.7456 C 132.649,51.8866 135.309,49.8036 137.77,47.5116 C 136.393,47.4416 135.216,46.6326 134.631,45.4736 Z" transform=""/><path fill="#f4953f" stroke="none" d="M 141.793,43.3505 C 141.566,43.3905 141.333,43.4145 141.094,43.4145 C 139.214,43.4145 137.644,42.1265 137.238,40.4015 C 136.466,41.6345 135.614,43.3065 134.848,44.9805 C 135.469,46.1995 136.721,47.0495 138.184,47.1225 C 139.601,45.8175 140.955,44.4485 141.793,43.3505 Z" transform=""/><path fill="#d78334" stroke="none" d="M 142.593,37.9991 C 141.781,37.3601 141.492,36.8261 140.571,37.4281 C 140.383,38.0761 140.703,38.8971 141.411,39.4381 C 141.949,39.8481 142.585,40.0001 143.111,39.8951 C 143.507,39.0811 143.281,38.5401 142.593,37.9991 Z" transform=""/><path fill="#64c4ad" stroke="none" d="M 150.001,34.9926 C 150.333,34.3826 148.74,33.7086 146.999,34.0536 C 146.134,34.2256 145.403,34.6356 144.887,35.0036 C 144.692,35.0756 144.507,35.1676 144.329,35.2746 C 145.277,33.8516 147.211,30.7196 146.213,30.2326 C 145.117,29.6986 144.187,34.1526 143.923,35.5606 C 143.908,35.5726 143.892,35.5846 143.877,35.5966 C 143.935,35.2326 144.205,33.1606 143.044,31.8666 C 142.043,30.7496 140.909,30.4836 140.649,31.1536 C 140.39,31.8216 141.928,32.0226 142.736,32.8416 C 143.792,33.9126 143.863,35.3276 143.867,35.6056 C 143.859,35.6126 143.851,35.6196 143.843,35.6266 C 143.821,35.0946 143.678,33.9106 142.867,33.4976 C 141.672,32.8876 140.119,33.3866 139.817,34.1496 C 139.666,34.5296 140.122,34.7996 140.821,34.4436 C 141.521,34.0886 142.037,33.5206 142.925,33.9966 C 143.447,34.2756 143.707,35.2216 143.802,35.6626 C 142.837,36.4946 142.167,37.7976 141.746,38.8546 C 141.786,38.8716 141.826,38.8876 141.867,38.9046 C 142.178,38.2616 142.598,37.5216 143.135,36.8426 C 144.71,34.8496 146.072,35.1336 146.862,35.6546 C 147.708,36.2126 147.253,37.3576 147.591,37.9236 C 147.928,38.4886 148.354,38.3206 148.512,37.9246 C 148.738,37.3556 148.342,35.0686 146.349,34.8316 C 146.533,34.7986 146.724,34.7746 146.921,34.7616 C 148.484,34.6556 149.68,35.5846 150.001,34.9926 Z" transform=""/><path fill="#eee8aa" stroke="#000000" d="M 178.976,11.8598 L 189.757,1.07817 L 232.884,1.07817 L 222.102,11.8598 Z" style="stroke-width: 2px;fill-opacity: 1;stroke-opacity: 1" stroke-width="2" fill-opacity="1" stroke-opacity="1" stroke-dasharray="0"/><path fill="#eee8aa" stroke="#000000" d="M 178.976,54.9865 L 222.102,54.9865 L 222.102,11.8598 L 178.976,11.8598 Z" style="stroke-width: 2px;fill-opacity: 1;stroke-opacity: 1" stroke-width="2" fill-opacity="1" stroke-opacity="1" stroke-dasharray="0"/><path fill="#eee8aa" stroke="#000000" d="M 222.102,54.9865 L 222.102,11.8598 L 232.884,1.07817 L 232.884,44.2049 Z" style="stroke-width: 2px;fill-opacity: 1;stroke-opacity: 1" stroke-width="2" fill-opacity="1" stroke-opacity="1" stroke-dasharray="0"/><path fill="#d78334" stroke="none" d="M 201.569,42.6118 C 199.329,45.7308 192.579,51.3098 192.301,51.0738 C 191.804,50.6538 195.25,42.0808 197.491,38.9618 S 200.139,36.6478 201.753,37.7058 C 203.229,38.6738 203.809,39.4928 201.569,42.6118 Z" transform=""/><path fill="#f4953f" stroke="none" d="M 201.848,37.6524 C 200.149,36.5804 199.72,35.7654 197.362,38.9244 C 197.172,39.1784 196.973,39.4724 196.77,39.7904 C 197.192,41.5524 198.829,42.8664 200.787,42.8664 C 201.036,42.8664 201.278,42.8424 201.515,42.8014 C 201.562,42.7414 201.61,42.6804 201.654,42.6214 C 204.012,39.4624 203.402,38.6324 201.848,37.6524 Z" transform=""/><path fill="#f4953f" stroke="none" d="M 193.93,45.4736 C 192.568,48.4856 191.496,51.5066 191.78,51.7456 C 191.948,51.8866 194.608,49.8036 197.069,47.5116 C 195.692,47.4416 194.515,46.6326 193.93,45.4736 Z" transform=""/><path fill="#f4953f" stroke="none" d="M 201.092,43.3505 C 200.865,43.3905 200.632,43.4145 200.393,43.4145 C 198.513,43.4145 196.943,42.1265 196.537,40.4015 C 195.765,41.6345 194.913,43.3065 194.147,44.9805 C 194.768,46.1995 196.02,47.0495 197.483,47.1225 C 198.9,45.8175 200.254,44.4485 201.092,43.3505 Z" transform=""/><path fill="#d78334" stroke="none" d="M 201.893,37.9991 C 201.081,37.3601 200.792,36.8261 199.871,37.4281 C 199.683,38.0761 200.003,38.8971 200.711,39.4381 C 201.249,39.8481 201.885,40.0001 202.411,39.8951 C 202.807,39.0811 202.581,38.5401 201.893,37.9991 Z" transform=""/><path fill="#64c4ad" stroke="none" d="M 209.3,34.9926 C 209.632,34.3826 208.039,33.7086 206.298,34.0536 C 205.433,34.2256 204.702,34.6356 204.186,35.0036 C 203.991,35.0756 203.806,35.1676 203.628,35.2746 C 204.576,33.8516 206.51,30.7196 205.512,30.2326 C 204.416,29.6986 203.486,34.1526 203.222,35.5606 C 203.207,35.5726 203.191,35.5846 203.176,35.5966 C 203.234,35.2326 203.504,33.1606 202.343,31.8666 C 201.342,30.7496 200.208,30.4836 199.948,31.1536 C 199.689,31.8216 201.227,32.0226 202.035,32.8416 C 203.091,33.9126 203.162,35.3276 203.166,35.6056 C 203.158,35.6126 203.15,35.6196 203.142,35.6266 C 203.12,35.0946 202.977,33.9106 202.166,33.4976 C 200.971,32.8876 199.418,33.3866 199.116,34.1496 C 198.965,34.5296 199.421,34.7996 200.12,34.4436 C 200.82,34.0886 201.336,33.5206 202.224,33.9966 C 202.746,34.2756 203.006,35.2216 203.101,35.6626 C 202.136,36.4946 201.466,37.7976 201.045,38.8546 C 201.085,38.8716 201.125,38.8876 201.166,38.9046 C 201.477,38.2616 201.897,37.5216 202.434,36.8426 C 204.009,34.8496 205.371,35.1336 206.161,35.6546 C 207.007,36.2126 206.552,37.3576 206.89,37.9236 C 207.227,38.4886 207.653,38.3206 207.811,37.9246 C 208.037,37.3556 207.641,35.0686 205.648,34.8316 C 205.832,34.7986 206.023,34.7746 206.22,34.7616 C 207.783,34.6556 208.979,35.5846 209.3,34.9926 Z" transform=""/><path fill="#eee8aa" stroke="#000000" d="M 238.275,11.8598 L 249.057,1.07817 L 292.183,1.07817 L 281.402,11.8598 Z" style="stroke-width: 2px;fill-opacity: 1;stroke-opacity: 1" stroke-width="2" fill-opacity="1" stroke-opacity="1" stroke-dasharray="0"/><path fill="#eee8aa" stroke="#000000" d="M 238.275,54.9865 L 281.402,54.9865 L 281.402,11.8598 L 238.275,11.8598 Z" style="stroke-width: 2px;fill-opacity: 1;stroke-opacity: 1" stroke-width="2" fill-opacity="1" stroke-opacity="1" stroke-dasharray="0"/><path fill="#eee8aa" stroke="#000000" d="M 281.402,54.9865 L 281.402,11.8598 L 292.183,1.07817 L 292.183,44.2049 Z" style="stroke-width: 2px;fill-opacity: 1;stroke-opacity: 1" stroke-width="2" fill-opacity="1" stroke-opacity="1" stroke-dasharray="0"/><path fill="#d78334" stroke="none" d="M 260.868,42.6118 C 258.628,45.7308 251.878,51.3098 251.6,51.0738 C 251.103,50.6538 254.549,42.0808 256.79,38.9618 C 259.031,35.8428 259.438,36.6478 261.052,37.7058 C 262.528,38.6738 263.108,39.4928 260.868,42.6118 Z" transform=""/><path fill="#f4953f" stroke="none" d="M 261.147,37.6524 C 259.448,36.5804 259.019,35.7654 256.661,38.9244 C 256.471,39.1784 256.272,39.4724 256.069,39.7904 C 256.491,41.5524 258.128,42.8664 260.086,42.8664 C 260.335,42.8664 260.577,42.8424 260.814,42.8014 C 260.861,42.7414 260.909,42.6804 260.953,42.6214 C 263.311,39.4624 262.701,38.6324 261.147,37.6524 Z" transform=""/><path fill="#f4953f" stroke="none" d="M 253.229,45.4736 C 251.867,48.4856 250.795,51.5066 251.079,51.7456 C 251.247,51.8866 253.907,49.8036 256.368,47.5116 C 254.991,47.4416 253.814,46.6326 253.229,45.4736 Z" transform=""/><path fill="#f4953f" stroke="none" d="M 260.391,43.3505 C 260.164,43.3905 259.931,43.4145 259.692,43.4145 C 257.812,43.4145 256.242,42.1265 255.836,40.4015 C 255.064,41.6345 254.212,43.3065 253.446,44.9805 C 254.067,46.1995 255.319,47.0495 256.782,47.1225 C 258.199,45.8175 259.553,44.4485 260.391,43.3505 Z" transform=""/><path fill="#d78334" stroke="none" d="M 261.192,37.9991 C 260.38,37.3601 260.091,36.8261 259.17,37.4281 C 258.982,38.0761 259.302,38.8971 260.01,39.4381 C 260.548,39.8481 261.184,40.0001 261.71,39.8951 C 262.106,39.0811 261.88,38.5401 261.192,37.9991 Z" transform=""/><path fill="#64c4ad" stroke="none" d="M 268.599,34.9926 C 268.931,34.3826 267.338,33.7086 265.597,34.0536 C 264.732,34.2256 264.001,34.6356 263.485,35.0036 C 263.29,35.0756 263.105,35.1676 262.927,35.2746 C 263.875,33.8516 265.809,30.7196 264.811,30.2326 C 263.715,29.6986 262.785,34.1526 262.521,35.5606 C 262.506,35.5726 262.49,35.5846 262.475,35.5966 C 262.533,35.2326 262.803,33.1606 261.642,31.8666 C 260.641,30.7496 259.507,30.4836 259.247,31.1536 C 258.988,31.8216 260.526,32.0226 261.334,32.8416 C 262.39,33.9126 262.461,35.3276 262.465,35.6056 C 262.457,35.6126 262.449,35.6196 262.441,35.6266 C 262.419,35.0946 262.276,33.9106 261.465,33.4976 C 260.27,32.8876 258.717,33.3866 258.415,34.1496 C 258.264,34.5296 258.72,34.7996 259.419,34.4436 C 260.119,34.0886 260.635,33.5206 261.523,33.9966 C 262.045,34.2756 262.305,35.2216 262.4,35.6626 C 261.435,36.4946 260.765,37.7976 260.344,38.8546 C 260.384,38.8716 260.424,38.8876 260.465,38.9046 C 260.776,38.2616 261.196,37.5216 261.733,36.8426 C 263.308,34.8496 264.67,35.1336 265.46,35.6546 C 266.306,36.2126 265.851,37.3576 266.189,37.9236 C 266.526,38.4886 266.952,38.3206 267.11,37.9246 C 267.336,37.3556 266.94,35.0686 264.947,34.8316 C 265.131,34.7986 265.322,34.7746 265.519,34.7616 C 267.082,34.6556 268.278,35.5846 268.599,34.9926 Z" transform=""/><path fill="#d78334" stroke="none" d="M 309.385,42.6118 C 307.145,45.7308 300.395,51.3098 300.117,51.0738 C 299.62,50.6538 303.066,42.0808 305.307,38.9618 S 307.955,36.6478 309.569,37.7058 C 311.045,38.6738 311.625,39.4928 309.385,42.6118 Z" transform=""/><path fill="#f4953f" stroke="none" d="M 309.664,37.6524 C 307.965,36.5804 307.536,35.7654 305.178,38.9244 C 304.988,39.1784 304.789,39.4724 304.586,39.7904 C 305.008,41.5524 306.645,42.8664 308.603,42.8664 C 308.852,42.8664 309.094,42.8424 309.331,42.8014 C 309.378,42.7414 309.426,42.6804 309.47,42.6214 C 311.828,39.4624 311.218,38.6324 309.664,37.6524 Z" transform=""/><path fill="#f4953f" stroke="none" d="M 301.747,45.4736 C 300.385,48.4856 299.313,51.5066 299.597,51.7456 C 299.765,51.8866 302.425,49.8036 304.886,47.5116 C 303.509,47.4416 302.332,46.6326 301.747,45.4736 Z" transform=""/><path fill="#f4953f" stroke="none" d="M 308.909,43.3505 C 308.682,43.3905 308.449,43.4145 308.21,43.4145 C 306.33,43.4145 304.76,42.1265 304.354,40.4015 C 303.582,41.6345 302.73,43.3065 301.964,44.9805 C 302.585,46.1995 303.837,47.0495 305.3,47.1225 C 306.717,45.8175 308.071,44.4485 308.909,43.3505 Z" transform=""/><path fill="#d78334" stroke="none" d="M 309.709,37.9991 C 308.897,37.3601 308.608,36.8261 307.687,37.4281 C 307.499,38.0761 307.819,38.8971 308.527,39.4381 C 309.065,39.8481 309.701,40.0001 310.227,39.8951 C 310.623,39.0811 310.397,38.5401 309.709,37.9991 Z" transform=""/><path fill="#64c4ad" stroke="none" d="M 317.117,34.9926 C 317.449,34.3826 315.856,33.7086 314.115,34.0536 C 313.25,34.2256 312.519,34.6356 312.003,35.0036 C 311.808,35.0756 311.623,35.1676 311.445,35.2746 C 312.393,33.8516 314.327,30.7196 313.329,30.2326 C 312.233,29.6986 311.303,34.1526 311.039,35.5606 C 311.024,35.5726 311.008,35.5846 310.993,35.5966 C 311.051,35.2326 311.321,33.1606 310.16,31.8666 C 309.159,30.7496 308.025,30.4836 307.765,31.1536 C 307.506,31.8216 309.044,32.0226 309.852,32.8416 C 310.908,33.9126 310.979,35.3276 310.983,35.6056 C 310.975,35.6126 310.967,35.6196 310.959,35.6266 C 310.937,35.0946 310.794,33.9106 309.983,33.4976 C 308.788,32.8876 307.235,33.3866 306.933,34.1496 C 306.782,34.5296 307.238,34.7996 307.937,34.4436 C 308.637,34.0886 309.153,33.5206 310.041,33.9966 C 310.563,34.2756 310.823,35.2216 310.918,35.6626 C 309.953,36.4946 309.283,37.7976 308.862,38.8546 C 308.902,38.8716 308.942,38.8876 308.983,38.9046 C 309.294,38.2616 309.714,37.5216 310.251,36.8426 C 311.826,34.8496 313.188,35.1336 313.978,35.6546 C 314.824,36.2126 314.369,37.3576 314.707,37.9236 C 315.044,38.4886 315.47,38.3206 315.628,37.9246 C 315.854,37.3556 315.458,35.0686 313.465,34.8316 C 313.649,34.7986 313.84,34.7746 314.037,34.7616 C 315.6,34.6556 316.796,35.5846 317.117,34.9926 Z" transform=""/><path fill="#d78334" stroke="none" d="M 341.73,42.6118 C 339.49,45.7308 332.74,51.3098 332.462,51.0738 C 331.965,50.6538 335.411,42.0808 337.652,38.9618 S 340.3,36.6478 341.914,37.7058 C 343.39,38.6738 343.97,39.4928 341.73,42.6118 Z" transform=""/><path fill="#f4953f" stroke="none" d="M 342.009,37.6524 C 340.31,36.5804 339.881,35.7654 337.523,38.9244 C 337.333,39.1784 337.134,39.4724 336.931,39.7904 C 337.353,41.5524 338.99,42.8664 340.948,42.8664 C 341.197,42.8664 341.439,42.8424 341.676,42.8014 C 341.723,42.7414 341.771,42.6804 341.815,42.6214 C 344.173,39.4624 343.563,38.6324 342.009,37.6524 Z" transform=""/><path fill="#f4953f" stroke="none" d="M 334.092,45.4736 C 332.73,48.4856 331.658,51.5066 331.942,51.7456 C 332.11,51.8866 334.77,49.8036 337.231,47.5116 C 335.854,47.4416 334.677,46.6326 334.092,45.4736 Z" transform=""/><path fill="#f4953f" stroke="none" d="M 341.254,43.3505 C 341.027,43.3905 340.794,43.4145 340.555,43.4145 C 338.675,43.4145 337.105,42.1265 336.699,40.4015 C 335.927,41.6345 335.075,43.3065 334.309,44.9805 C 334.93,46.1995 336.182,47.0495 337.645,47.1225 C 339.062,45.8175 340.416,44.4485 341.254,43.3505 Z" transform=""/><path fill="#d78334" stroke="none" d="M 342.054,37.9991 C 341.242,37.3601 340.953,36.8261 340.032,37.4281 C 339.844,38.0761 340.164,38.8971 340.872,39.4381 C 341.41,39.8481 342.046,40.0001 342.572,39.8951 C 342.968,39.0811 342.742,38.5401 342.054,37.9991 Z" transform=""/><path fill="#64c4ad" stroke="none" d="M 349.462,34.9926 C 349.794,34.3826 348.201,33.7086 346.46,34.0536 C 345.595,34.2256 344.864,34.6356 344.348,35.0036 C 344.153,35.0756 343.968,35.1676 343.79,35.2746 C 344.738,33.8516 346.672,30.7196 345.674,30.2326 C 344.578,29.6986 343.648,34.1526 343.384,35.5606 C 343.369,35.5726 343.353,35.5846 343.338,35.5966 C 343.396,35.2326 343.666,33.1606 342.505,31.8666 C 341.504,30.7496 340.37,30.4836 340.11,31.1536 C 339.851,31.8216 341.389,32.0226 342.197,32.8416 C 343.253,33.9126 343.324,35.3276 343.328,35.6056 C 343.32,35.6126 343.312,35.6196 343.304,35.6266 C 343.282,35.0946 343.139,33.9106 342.328,33.4976 C 341.133,32.8876 339.58,33.3866 339.278,34.1496 C 339.127,34.5296 339.583,34.7996 340.282,34.4436 C 340.982,34.0886 341.498,33.5206 342.386,33.9966 C 342.908,34.2756 343.168,35.2216 343.263,35.6626 C 342.298,36.4946 341.628,37.7976 341.207,38.8546 C 341.247,38.8716 341.287,38.8876 341.328,38.9046 C 341.639,38.2616 342.059,37.5216 342.596,36.8426 C 344.171,34.8496 345.533,35.1336 346.323,35.6546 C 347.169,36.2126 346.714,37.3576 347.052,37.9236 C 347.389,38.4886 347.815,38.3206 347.973,37.9246 C 348.199,37.3556 347.803,35.0686 345.81,34.8316 C 345.994,34.7986 346.185,34.7746 346.382,34.7616 C 347.945,34.6556 349.141,35.5846 349.462,34.9926 Z" transform=""/></svg>