<svg xmlns="http://www.w3.org/2000/svg" version="1.1" width="400" height="78.26086956521739" viewBox="0 0 400 78.26086956521739"><defs/><path fill="#000000" stroke="#000000" d="M 13.0435,65.2174 L 13.0435,13.0435 L 58.2609,13.0435 L 58.2609,65.2174 Z" style="stroke-width: 2px;fill-opacity: 0;stroke-opacity: 1" stroke-width="2" fill-opacity="0" stroke-opacity="1" stroke-dasharray="0"/><path fill="#ffd700" stroke="#000000" d="M 8.69565,69.5652 L 8.69565,17.3913 L 53.913,17.3913 L 53.913,69.5652 Z" style="stroke-width: 2px;fill-opacity: 1;stroke-opacity: 1" stroke-width="2" fill-opacity="1" stroke-opacity="1" stroke-dasharray="0"/><path fill="#000000" stroke="#000000" d="M 8.69565,17.3913 L 14.8444,17.3913" style="stroke-width: 2px;stroke-opacity: 1;fill-opacity: 0" stroke-width="2" stroke-opacity="1" stroke-dasharray="0" fill-opacity="0" transform="rotate(315 8.695652173913043 17.391304347826086)"/><path fill="#40e0d0" stroke="#000000" d="M 13.0435,17.3913 L 18.2609,6.95652 L 23.4783,17.3913 Z" style="stroke-width: 2px;fill-opacity: 1;stroke-opacity: 1" stroke-width="2" fill-opacity="1" stroke-opacity="1" stroke-dasharray="0"/><path fill="#ffa500" stroke="#000000" d="M 21.7391,17.3913 L 26.9565,6.95652 L 32.1739,17.3913 Z" style="stroke-width: 2px;fill-opacity: 1;stroke-opacity: 1" stroke-width="2" fill-opacity="1" stroke-opacity="1" stroke-dasharray="0"/><path fill="#a52a2a" stroke="#000000" d="M 30.4348,17.3913 L 35.6522,6.95652 L 40.8696,17.3913 Z" style="stroke-width: 2px;fill-opacity: 1;stroke-opacity: 1" stroke-width="2" fill-opacity="1" stroke-opacity="1" stroke-dasharray="0"/><path fill="#000000" stroke="#000000" d="M 39.1304,17.3913 L 44.3478,6.95652 L 49.5652,17.3913 Z" style="stroke-width: 2px;fill-opacity: 1;stroke-opacity: 1" stroke-width="2" fill-opacity="1" stroke-opacity="1" stroke-dasharray="0"/><path fill="#ff00ff" stroke="#000000" d="M 47.8261,17.3913 L 53.0435,6.95652 L 58.2609,17.3913 Z" style="stroke-width: 2px;fill-opacity: 1;stroke-opacity: 1" stroke-width="2" fill-opacity="1" stroke-opacity="1" stroke-dasharray="0"/><path fill="#ff8080" stroke="#000000" d="M 9.56522,17.3913 L 13.913,8.69565 L 18.2609,17.3913 Z" style="stroke-width: 2px;fill-opacity: 1;stroke-opacity: 1" stroke-width="2" fill-opacity="1" stroke-opacity="1" stroke-dasharray="0"/><path fill="#9a72ac" stroke="#000000" d="M 18.2609,17.3913 L 22.6087,8.69565 L 26.9565,17.3913 Z" style="stroke-width: 2px;fill-opacity: 1;stroke-opacity: 1" stroke-width="2" fill-opacity="1" stroke-opacity="1" stroke-dasharray="0"/><path fill="#58c4dd" stroke="#000000" d="M 26.9565,17.3913 L 31.3043,8.69565 L 35.6522,17.3913 Z" style="stroke-width: 2px;fill-opacity: 1;stroke-opacity: 1" stroke-width="2" fill-opacity="1" stroke-opacity="1" stroke-dasharray="0"/><path fill="#83c167" stroke="#000000" d="M 35.6522,17.3913 L 40,8.69565 L 44.3478,17.3913 Z" style="stroke-width: 2px;fill-opacity: 1;stroke-opacity: 1" stroke-width="2" fill-opacity="1" stroke-opacity="1" stroke-dasharray="0"/><path fill="#e65a4c" stroke="#000000" d="M 44.3478,17.3913 L 48.6957,8.69565 L 53.0435,17.3913 Z" style="stroke-width: 2px;fill-opacity: 1;stroke-opacity: 1" stroke-width="2" fill-opacity="1" stroke-opacity="1" stroke-dasharray="0"/><path fill="#e1a158" stroke="#000000" d="M 53.913,69.5652 L 53.913,17.3913 L 58.2609,13.0435 L 58.2609,65.2174 Z" style="stroke-width: 2px;fill-opacity: 1;stroke-opacity: 1" stroke-width="2" fill-opacity="1" stroke-opacity="1" stroke-dasharray="0"/><path fill="#000000" stroke="#000000" d="M 66.9565,65.2174 L 66.9565,13.0435 L 112.174,13.0435 L 112.174,65.2174 Z" style="stroke-width: 2px;fill-opacity: 0;stroke-opacity: 1" stroke-width="2" fill-opacity="0" stroke-opacity="1" stroke-dasharray="0"/><path fill="#ffd700" stroke="#000000" d="M 62.6087,69.5652 L 62.6087,17.3913 L 107.826,17.3913 L 107.826,69.5652 Z" style="stroke-width: 2px;fill-opacity: 1;stroke-opacity: 1" stroke-width="2" fill-opacity="1" stroke-opacity="1" stroke-dasharray="0"/><path fill="#000000" stroke="#000000" d="M 62.6087,17.3913 L 68.7575,17.3913" style="stroke-width: 2px;stroke-opacity: 1;fill-opacity: 0" stroke-width="2" stroke-opacity="1" stroke-dasharray="0" fill-opacity="0" transform="rotate(315 62.608695652173914 17.391304347826086)"/><path fill="#40e0d0" stroke="#000000" d="M 66.9565,17.3913 L 72.1739,6.95652 L 77.3913,17.3913 Z" style="stroke-width: 2px;fill-opacity: 1;stroke-opacity: 1" stroke-width="2" fill-opacity="1" stroke-opacity="1" stroke-dasharray="0"/><path fill="#ffa500" stroke="#000000" d="M 75.6522,17.3913 L 80.8696,6.95652 L 86.087,17.3913 Z" style="stroke-width: 2px;fill-opacity: 1;stroke-opacity: 1" stroke-width="2" fill-opacity="1" stroke-opacity="1" stroke-dasharray="0"/><path fill="#a52a2a" stroke="#000000" d="M 84.3478,17.3913 L 89.5652,6.95652 L 94.7826,17.3913 Z" style="stroke-width: 2px;fill-opacity: 1;stroke-opacity: 1" stroke-width="2" fill-opacity="1" stroke-opacity="1" stroke-dasharray="0"/><path fill="#000000" stroke="#000000" d="M 93.0435,17.3913 L 98.2609,6.95652 L 103.478,17.3913 Z" style="stroke-width: 2px;fill-opacity: 1;stroke-opacity: 1" stroke-width="2" fill-opacity="1" stroke-opacity="1" stroke-dasharray="0"/><path fill="#ff00ff" stroke="#000000" d="M 101.739,17.3913 L 106.957,6.95652 L 112.174,17.3913 Z" style="stroke-width: 2px;fill-opacity: 1;stroke-opacity: 1" stroke-width="2" fill-opacity="1" stroke-opacity="1" stroke-dasharray="0"/><path fill="#ff8080" stroke="#000000" d="M 63.4783,17.3913 L 67.8261,8.69565 L 72.1739,17.3913 Z" style="stroke-width: 2px;fill-opacity: 1;stroke-opacity: 1" stroke-width="2" fill-opacity="1" stroke-opacity="1" stroke-dasharray="0"/><path fill="#9a72ac" stroke="#000000" d="M 72.1739,17.3913 L 76.5217,8.69565 L 80.8696,17.3913 Z" style="stroke-width: 2px;fill-opacity: 1;stroke-opacity: 1" stroke-width="2" fill-opacity="1" stroke-opacity="1" stroke-dasharray="0"/><path fill="#58c4dd" stroke="#000000" d="M 80.8696,17.3913 L 85.2174,8.69565 L 89.5652,17.3913 Z" style="stroke-width: 2px;fill-opacity: 1;stroke-opacity: 1" stroke-width="2" fill-opacity="1" stroke-opacity="1" stroke-dasharray="0"/><path fill="#83c167" stroke="#000000" d="M 89.5652,17.3913 L 93.913,8.69565 L 98.2609,17.3913 Z" style="stroke-width: 2px;fill-opacity: 1;stroke-opacity: 1" stroke-width="2" fill-opacity="1" stroke-opacity="1" stroke-dasharray="0"/><path fill="#e65a4c" stroke="#000000" d="M 98.2609,17.3913 L 102.609,8.69565 L 106.957,17.3913 Z" style="stroke-width: 2px;fill-opacity: 1;stroke-opacity: 1" stroke-width="2" fill-opacity="1" stroke-opacity="1" stroke-dasharray="0"/><path fill="#e1a158" stroke="#000000" d="M 107.826,69.5652 L 107.826,17.3913 L 112.174,13.0435 L 112.174,65.2174 Z" style="stroke-width: 2px;fill-opacity: 1;stroke-opacity: 1" stroke-width="2" fill-opacity="1" stroke-opacity="1" stroke-dasharray="0"/><path fill="#000000" stroke="#000000" d="M 120.87,65.2174 L 120.87,13.0435 L 166.087,13.0435 L 166.087,65.2174 Z" style="stroke-width: 2px;fill-opacity: 0;stroke-opacity: 1" stroke-width="2" fill-opacity="0" stroke-opacity="1" stroke-dasharray="0"/><path fill="#ffd700" stroke="#000000" d="M 116.522,69.5652 L 116.522,17.3913 L 161.739,17.3913 L 161.739,69.5652 Z" style="stroke-width: 2px;fill-opacity: 1;stroke-opacity: 1" stroke-width="2" fill-opacity="1" stroke-opacity="1" stroke-dasharray="0"/><path fill="#000000" stroke="#000000" d="M 116.522,17.3913 L 122.67,17.3913" style="stroke-width: 2px;stroke-opacity: 1;fill-opacity: 0" stroke-width="2" stroke-opacity="1" stroke-dasharray="0" fill-opacity="0" transform="rotate(315 116.52173913043478 17.391304347826086)"/><path fill="#40e0d0" stroke="#000000" d="M 120.87,17.3913 L 126.087,6.95652 L 131.304,17.3913 Z" style="stroke-width: 2px;fill-opacity: 1;stroke-opacity: 1" stroke-width="2" fill-opacity="1" stroke-opacity="1" stroke-dasharray="0"/><path fill="#ffa500" stroke="#000000" d="M 129.565,17.3913 L 134.783,6.95652 L 140,17.3913 Z" style="stroke-width: 2px;fill-opacity: 1;stroke-opacity: 1" stroke-width="2" fill-opacity="1" stroke-opacity="1" stroke-dasharray="0"/><path fill="#a52a2a" stroke="#000000" d="M 138.261,17.3913 L 143.478,6.95652 L 148.696,17.3913 Z" style="stroke-width: 2px;fill-opacity: 1;stroke-opacity: 1" stroke-width="2" fill-opacity="1" stroke-opacity="1" stroke-dasharray="0"/><path fill="#000000" stroke="#000000" d="M 146.957,17.3913 L 152.174,6.95652 L 157.391,17.3913 Z" style="stroke-width: 2px;fill-opacity: 1;stroke-opacity: 1" stroke-width="2" fill-opacity="1" stroke-opacity="1" stroke-dasharray="0"/><path fill="#ff00ff" stroke="#000000" d="M 155.652,17.3913 L 160.87,6.95652 L 166.087,17.3913 Z" style="stroke-width: 2px;fill-opacity: 1;stroke-opacity: 1" stroke-width="2" fill-opacity="1" stroke-opacity="1" stroke-dasharray="0"/><path fill="#ff8080" stroke="#000000" d="M 117.391,17.3913 L 121.739,8.69565 L 126.087,17.3913 Z" style="stroke-width: 2px;fill-opacity: 1;stroke-opacity: 1" stroke-width="2" fill-opacity="1" stroke-opacity="1" stroke-dasharray="0"/><path fill="#9a72ac" stroke="#000000" d="M 126.087,17.3913 L 130.435,8.69565 L 134.783,17.3913 Z" style="stroke-width: 2px;fill-opacity: 1;stroke-opacity: 1" stroke-width="2" fill-opacity="1" stroke-opacity="1" stroke-dasharray="0"/><path fill="#58c4dd" stroke="#000000" d="M 134.783,17.3913 L 139.13,8.69565 L 143.478,17.3913 Z" style="stroke-width: 2px;fill-opacity: 1;stroke-opacity: 1" stroke-width="2" fill-opacity="1" stroke-opacity="1" stroke-dasharray="0"/><path fill="#83c167" stroke="#000000" d="M 143.478,17.3913 L 147.826,8.69565 L 152.174,17.3913 Z" style="stroke-width: 2px;fill-opacity: 1;stroke-opacity: 1" stroke-width="2" fill-opacity="1" stroke-opacity="1" stroke-dasharray="0"/><path fill="#e65a4c" stroke="#000000" d="M 152.174,17.3913 L 156.522,8.69565 L 160.87,17.3913 Z" style="stroke-width: 2px;fill-opacity: 1;stroke-opacity: 1" stroke-width="2" fill-opacity="1" stroke-opacity="1" stroke-dasharray="0"/><path fill="#e1a158" stroke="#000000" d="M 161.739,69.5652 L 161.739,17.3913 L 166.087,13.0435 L 166.087,65.2174 Z" style="stroke-width: 2px;fill-opacity: 1;stroke-opacity: 1" stroke-width="2" fill-opacity="1" stroke-opacity="1" stroke-dasharray="0"/><path fill="#000000" stroke="#000000" d="M 174.783,65.2174 L 174.783,13.0435 L 220,13.0435 L 220,65.2174 Z" style="stroke-width: 2px;fill-opacity: 0;stroke-opacity: 1" stroke-width="2" fill-opacity="0" stroke-opacity="1" stroke-dasharray="0"/><path fill="#ffd700" stroke="#000000" d="M 170.435,69.5652 L 170.435,17.3913 L 215.652,17.3913 L 215.652,69.5652 Z" style="stroke-width: 2px;fill-opacity: 1;stroke-opacity: 1" stroke-width="2" fill-opacity="1" stroke-opacity="1" stroke-dasharray="0"/><path fill="#000000" stroke="#000000" d="M 170.435,17.3913 L 176.584,17.3913" style="stroke-width: 2px;stroke-opacity: 1;fill-opacity: 0" stroke-width="2" stroke-opacity="1" stroke-dasharray="0" fill-opacity="0" transform="rotate(315.0000000000001 170.43478260869566 17.391304347826086)"/><path fill="#40e0d0" stroke="#000000" d="M 174.783,17.3913 L 180,6.95652 L 185.217,17.3913 Z" style="stroke-width: 2px;fill-opacity: 1;stroke-opacity: 1" stroke-width="2" fill-opacity="1" stroke-opacity="1" stroke-dasharray="0"/><path fill="#ffa500" stroke="#000000" d="M 183.478,17.3913 L 188.696,6.95652 L 193.913,17.3913 Z" style="stroke-width: 2px;fill-opacity: 1;stroke-opacity: 1" stroke-width="2" fill-opacity="1" stroke-opacity="1" stroke-dasharray="0"/><path fill="#a52a2a" stroke="#000000" d="M 192.174,17.3913 L 197.391,6.95652 L 202.609,17.3913 Z" style="stroke-width: 2px;fill-opacity: 1;stroke-opacity: 1" stroke-width="2" fill-opacity="1" stroke-opacity="1" stroke-dasharray="0"/><path fill="#000000" stroke="#000000" d="M 200.87,17.3913 L 206.087,6.95652 L 211.304,17.3913 Z" style="stroke-width: 2px;fill-opacity: 1;stroke-opacity: 1" stroke-width="2" fill-opacity="1" stroke-opacity="1" stroke-dasharray="0"/><path fill="#ff00ff" stroke="#000000" d="M 209.565,17.3913 L 214.783,6.95652 L 220,17.3913 Z" style="stroke-width: 2px;fill-opacity: 1;stroke-opacity: 1" stroke-width="2" fill-opacity="1" stroke-opacity="1" stroke-dasharray="0"/><path fill="#ff8080" stroke="#000000" d="M 171.304,17.3913 L 175.652,8.69565 L 180,17.3913 Z" style="stroke-width: 2px;fill-opacity: 1;stroke-opacity: 1" stroke-width="2" fill-opacity="1" stroke-opacity="1" stroke-dasharray="0"/><path fill="#9a72ac" stroke="#000000" d="M 180,17.3913 L 184.348,8.69565 L 188.696,17.3913 Z" style="stroke-width: 2px;fill-opacity: 1;stroke-opacity: 1" stroke-width="2" fill-opacity="1" stroke-opacity="1" stroke-dasharray="0"/><path fill="#58c4dd" stroke="#000000" d="M 188.696,17.3913 L 193.043,8.69565 L 197.391,17.3913 Z" style="stroke-width: 2px;fill-opacity: 1;stroke-opacity: 1" stroke-width="2" fill-opacity="1" stroke-opacity="1" stroke-dasharray="0"/><path fill="#83c167" stroke="#000000" d="M 197.391,17.3913 L 201.739,8.69565 L 206.087,17.3913 Z" style="stroke-width: 2px;fill-opacity: 1;stroke-opacity: 1" stroke-width="2" fill-opacity="1" stroke-opacity="1" stroke-dasharray="0"/><path fill="#e65a4c" stroke="#000000" d="M 206.087,17.3913 L 210.435,8.69565 L 214.783,17.3913 Z" style="stroke-width: 2px;fill-opacity: 1;stroke-opacity: 1" stroke-width="2" fill-opacity="1" stroke-opacity="1" stroke-dasharray="0"/><path fill="#e1a158" stroke="#000000" d="M 215.652,69.5652 L 215.652,17.3913 L 220,13.0435 L 220,65.2174 Z" style="stroke-width: 2px;fill-opacity: 1;stroke-opacity: 1" stroke-width="2" fill-opacity="1" stroke-opacity="1" stroke-dasharray="0"/><path fill="#808080" stroke="#000000" d="M 233.043,69.5652 L 233.043,17.3913 L 224.348,17.3913 L 224.348,69.5652 Z" style="stroke-width: 2px;fill-opacity: 0.5;stroke-opacity: 1" stroke-width="2" fill-opacity="0.5" stroke-opacity="1" stroke-dasharray="0"/><path fill="#58c4dd" stroke="#000000" d="M 224.348,17.3913 L 228.696,8.69565 L 233.043,17.3913 Z" style="stroke-width: 2px;fill-opacity: 1;stroke-opacity: 1" stroke-width="2" fill-opacity="1" stroke-opacity="1" stroke-dasharray="0"/><path fill="#808080" stroke="#000000" d="M 250.435,69.5652 L 250.435,17.3913 L 241.739,17.3913 L 241.739,69.5652 Z" style="stroke-width: 2px;fill-opacity: 0.5;stroke-opacity: 1" stroke-width="2" fill-opacity="0.5" stroke-opacity="1" stroke-dasharray="0"/><path fill="#58c4dd" stroke="#000000" d="M 241.739,17.3913 L 246.087,8.69565 L 250.435,17.3913 Z" style="stroke-width: 2px;fill-opacity: 1;stroke-opacity: 1" stroke-width="2" fill-opacity="1" stroke-opacity="1" stroke-dasharray="0"/><path fill="#808080" stroke="#000000" d="M 267.826,69.5652 L 267.826,17.3913 L 259.13,17.3913 L 259.13,69.5652 Z" style="stroke-width: 2px;fill-opacity: 0.5;stroke-opacity: 1" stroke-width="2" fill-opacity="0.5" stroke-opacity="1" stroke-dasharray="0"/><path fill="#58c4dd" stroke="#000000" d="M 259.13,17.3913 L 263.478,8.69565 L 267.826,17.3913 Z" style="stroke-width: 2px;fill-opacity: 1;stroke-opacity: 1" stroke-width="2" fill-opacity="1" stroke-opacity="1" stroke-dasharray="0"/><path fill="#808080" stroke="#000000" d="M 285.217,69.5652 L 285.217,17.3913 L 276.522,17.3913 L 276.522,69.5652 Z" style="stroke-width: 2px;fill-opacity: 0.5;stroke-opacity: 1" stroke-width="2" fill-opacity="0.5" stroke-opacity="1" stroke-dasharray="0"/><path fill="#58c4dd" stroke="#000000" d="M 276.522,17.3913 L 280.87,8.69565 L 285.217,17.3913 Z" style="stroke-width: 2px;fill-opacity: 1;stroke-opacity: 1" stroke-width="2" fill-opacity="1" stroke-opacity="1" stroke-dasharray="0"/><path fill="#808080" stroke="#000000" d="M 302.609,69.5652 L 302.609,17.3913 L 293.913,17.3913 L 293.913,69.5652 Z" style="stroke-width: 2px;fill-opacity: 0.5;stroke-opacity: 1" stroke-width="2" fill-opacity="0.5" stroke-opacity="1" stroke-dasharray="0"/><path fill="#58c4dd" stroke="#000000" d="M 293.913,17.3913 L 298.261,8.69565 L 302.609,17.3913 Z" style="stroke-width: 2px;fill-opacity: 1;stroke-opacity: 1" stroke-width="2" fill-opacity="1" stroke-opacity="1" stroke-dasharray="0"/></svg>