<svg xmlns="http://www.w3.org/2000/svg" width="195" height="187.5" viewBox="0 0 195 187.5"><path fill="#ccfaff" stroke="#11accd" d="M15 150v15h15l7.5-7.5v-15h-15z" stroke-width="2"/><path fill="#ccfaff" stroke="#11accd" d="M15 150h15v15M30 150l7.5-7.5" stroke-width="2"/><path fill="#ccfaff" stroke="#11accd" d="M15 135v15h15l7.5-7.5v-15h-15z" stroke-width="2"/><path fill="#ccfaff" stroke="#11accd" d="M15 135h15v15M30 135l7.5-7.5" stroke-width="2"/><path fill="#ccfaff" stroke="#11accd" d="M15 120v15h15l7.5-7.5v-15h-15z" stroke-width="2"/><path fill="#ccfaff" stroke="#11accd" d="M15 120h15v15M30 120l7.5-7.5" stroke-width="2"/><path fill="#ccfaff" stroke="#11accd" d="M15 105v15h15l7.5-7.5v-15h-15z" stroke-width="2"/><path fill="#ccfaff" stroke="#11accd" d="M15 105h15v15M30 105l7.5-7.5" stroke-width="2"/><path fill="#ccfaff" stroke="#11accd" d="M15 90v15h15l7.5-7.5v-15h-15z" stroke-width="2"/><path fill="#ccfaff" stroke="#11accd" d="M15 90h15v15M30 90l7.5-7.5" stroke-width="2"/><path fill="#ccfaff" stroke="#11accd" d="M15 75v15h15l7.5-7.5v-15h-15z" stroke-width="2"/><path fill="#ccfaff" stroke="#11accd" d="M15 75h15v15M30 75l7.5-7.5" stroke-width="2"/><path fill="#ccfaff" stroke="#11accd" d="M15 60v15h15l7.5-7.5v-15h-15z" stroke-width="2"/><path fill="#ccfaff" stroke="#11accd" d="M15 60h15v15M30 60l7.5-7.5" stroke-width="2"/><path fill="#ccfaff" stroke="#11accd" d="M15 45v15h15l7.5-7.5v-15h-15z" stroke-width="2"/><path fill="#ccfaff" stroke="#11accd" d="M15 45h15v15M30 45l7.5-7.5" stroke-width="2"/><path fill="#ccfaff" stroke="#11accd" d="M15 30v15h15l7.5-7.5v-15h-15z" stroke-width="2"/><path fill="#ccfaff" stroke="#11accd" d="M15 30h15v15M30 30l7.5-7.5" stroke-width="2"/><path fill="#ccfaff" stroke="#11accd" d="M15 15v15h15l7.5-7.5v-15h-15z" stroke-width="2"/><path fill="#ccfaff" stroke="#11accd" d="M15 15h15v15M30 15l7.5-7.5M45 150v15h15l7.5-7.5v-15h-15z" stroke-width="2"/><path fill="#ccfaff" stroke="#11accd" d="M45 150h15v15M60 150l7.5-7.5" stroke-width="2"/><path fill="#ccfaff" stroke="#11accd" d="M45 135v15h15l7.5-7.5v-15h-15z" stroke-width="2"/><path fill="#ccfaff" stroke="#11accd" d="M45 135h15v15M60 135l7.5-7.5" stroke-width="2"/><path fill="#ccfaff" stroke="#11accd" d="M45 120v15h15l7.5-7.5v-15h-15z" stroke-width="2"/><path fill="#ccfaff" stroke="#11accd" d="M45 120h15v15M60 120l7.5-7.5" stroke-width="2"/><path fill="#ccfaff" stroke="#11accd" d="M45 105v15h15l7.5-7.5v-15h-15z" stroke-width="2"/><path fill="#ccfaff" stroke="#11accd" d="M45 105h15v15M60 105l7.5-7.5" stroke-width="2"/><path fill="#ccfaff" stroke="#11accd" d="M45 90v15h15l7.5-7.5v-15h-15z" stroke-width="2"/><path fill="#ccfaff" stroke="#11accd" d="M45 90h15v15M60 90l7.5-7.5" stroke-width="2"/><path fill="#ccfaff" stroke="#11accd" d="M45 75v15h15l7.5-7.5v-15h-15z" stroke-width="2"/><path fill="#ccfaff" stroke="#11accd" d="M45 75h15v15M60 75l7.5-7.5" stroke-width="2"/><path fill="#ccfaff" stroke="#11accd" d="M45 60v15h15l7.5-7.5v-15h-15z" stroke-width="2"/><path fill="#ccfaff" stroke="#11accd" d="M45 60h15v15M60 60l7.5-7.5" stroke-width="2"/><path fill="#ccfaff" stroke="#11accd" d="M45 45v15h15l7.5-7.5v-15h-15z" stroke-width="2"/><path fill="#ccfaff" stroke="#11accd" d="M45 45h15v15M60 45l7.5-7.5" stroke-width="2"/><path fill="#ccfaff" stroke="#11accd" d="M45 30v15h15l7.5-7.5v-15h-15z" stroke-width="2"/><path fill="#ccfaff" stroke="#11accd" d="M45 30h15v15M60 30l7.5-7.5" stroke-width="2"/><path fill="#ccfaff" stroke="#11accd" d="M45 15v15h15l7.5-7.5v-15h-15z" stroke-width="2"/><path fill="#ccfaff" stroke="#11accd" d="M45 15h15v15M60 15l7.5-7.5M75 150v15h15l7.5-7.5v-15h-15z" stroke-width="2"/><path fill="#ccfaff" stroke="#11accd" d="M75 150h15v15M90 150l7.5-7.5" stroke-width="2"/><path fill="#ccfaff" stroke="#11accd" d="M75 135v15h15l7.5-7.5v-15h-15z" stroke-width="2"/><path fill="#ccfaff" stroke="#11accd" d="M75 135h15v15M90 135l7.5-7.5" stroke-width="2"/><path fill="#ccfaff" stroke="#11accd" d="M75 120v15h15l7.5-7.5v-15h-15z" stroke-width="2"/><path fill="#ccfaff" stroke="#11accd" d="M75 120h15v15M90 120l7.5-7.5" stroke-width="2"/><path fill="#ccfaff" stroke="#11accd" d="M75 105v15h15l7.5-7.5v-15h-15z" stroke-width="2"/><path fill="#ccfaff" stroke="#11accd" d="M75 105h15v15M90 105l7.5-7.5" stroke-width="2"/><path fill="#ccfaff" stroke="#11accd" d="M75 90v15h15l7.5-7.5v-15h-15z" stroke-width="2"/><path fill="#ccfaff" stroke="#11accd" d="M75 90h15v15M90 90l7.5-7.5" stroke-width="2"/><path fill="#ccfaff" stroke="#11accd" d="M75 75v15h15l7.5-7.5v-15h-15z" stroke-width="2"/><path fill="#ccfaff" stroke="#11accd" d="M75 75h15v15M90 75l7.5-7.5" stroke-width="2"/><path fill="#ccfaff" stroke="#11accd" d="M75 60v15h15l7.5-7.5v-15h-15z" stroke-width="2"/><path fill="#ccfaff" stroke="#11accd" d="M75 60h15v15M90 60l7.5-7.5" stroke-width="2"/><path fill="#ccfaff" stroke="#11accd" d="M75 45v15h15l7.5-7.5v-15h-15z" stroke-width="2"/><path fill="#ccfaff" stroke="#11accd" d="M75 45h15v15M90 45l7.5-7.5" stroke-width="2"/><path fill="#ccfaff" stroke="#11accd" d="M75 30v15h15l7.5-7.5v-15h-15z" stroke-width="2"/><path fill="#ccfaff" stroke="#11accd" d="M75 30h15v15M90 30l7.5-7.5" stroke-width="2"/><path fill="#ccfaff" stroke="#11accd" d="M75 15v15h15l7.5-7.5v-15h-15z" stroke-width="2"/><path fill="#ccfaff" stroke="#11accd" d="M75 15h15v15M90 15l7.5-7.5M105 150v15h15l7.5-7.5v-15h-15z" stroke-width="2"/><path fill="#ccfaff" stroke="#11accd" d="M105 150h15v15M120 150l7.5-7.5" stroke-width="2"/><path fill="#ccfaff" stroke="#11accd" d="M105 135v15h15l7.5-7.5v-15h-15z" stroke-width="2"/><path fill="#ccfaff" stroke="#11accd" d="M105 135h15v15M120 135l7.5-7.5" stroke-width="2"/><path fill="#ccfaff" stroke="#11accd" d="M105 120v15h15l7.5-7.5v-15h-15z" stroke-width="2"/><path fill="#ccfaff" stroke="#11accd" d="M105 120h15v15M120 120l7.5-7.5" stroke-width="2"/><path fill="#ccfaff" stroke="#11accd" d="M105 105v15h15l7.5-7.5v-15h-15z" stroke-width="2"/><path fill="#ccfaff" stroke="#11accd" d="M105 105h15v15M120 105l7.5-7.5" stroke-width="2"/><path fill="#ccfaff" stroke="#11accd" d="M105 90v15h15l7.5-7.5v-15h-15z" stroke-width="2"/><path fill="#ccfaff" stroke="#11accd" d="M105 90h15v15M120 90l7.5-7.5" stroke-width="2"/><path fill="#ccfaff" stroke="#11accd" d="M105 75v15h15l7.5-7.5v-15h-15z" stroke-width="2"/><path fill="#ccfaff" stroke="#11accd" d="M105 75h15v15M120 75l7.5-7.5" stroke-width="2"/><path fill="#ccfaff" stroke="#11accd" d="M105 60v15h15l7.5-7.5v-15h-15z" stroke-width="2"/><path fill="#ccfaff" stroke="#11accd" d="M105 60h15v15M120 60l7.5-7.5" stroke-width="2"/><path fill="#ccfaff" stroke="#11accd" d="M105 45v15h15l7.5-7.5v-15h-15z" stroke-width="2"/><path fill="#ccfaff" stroke="#11accd" d="M105 45h15v15M120 45l7.5-7.5" stroke-width="2"/><path fill="#ccfaff" stroke="#11accd" d="M105 30v15h15l7.5-7.5v-15h-15z" stroke-width="2"/><path fill="#ccfaff" stroke="#11accd" d="M105 30h15v15M120 30l7.5-7.5" stroke-width="2"/><path fill="#ccfaff" stroke="#11accd" d="M105 15v15h15l7.5-7.5v-15h-15z" stroke-width="2"/><path fill="#ccfaff" stroke="#11accd" d="M105 15h15v15M120 15l7.5-7.5M135 150v15h15l7.5-7.5v-15h-15z" stroke-width="2"/><path fill="#ccfaff" stroke="#11accd" d="M135 150h15v15M150 150l7.5-7.5" stroke-width="2"/><path fill="#ccfaff" stroke="#11accd" d="M135 135v15h15l7.5-7.5v-15h-15z" stroke-width="2"/><path fill="#ccfaff" stroke="#11accd" d="M135 135h15v15M150 135l7.5-7.5" stroke-width="2"/><path fill="#ccfaff" stroke="#11accd" d="M135 120v15h15l7.5-7.5v-15h-15z" stroke-width="2"/><path fill="#ccfaff" stroke="#11accd" d="M135 120h15v15M150 120l7.5-7.5" stroke-width="2"/><path fill="#ccfaff" stroke="#11accd" d="M135 105v15h15l7.5-7.5v-15h-15z" stroke-width="2"/><path fill="#ccfaff" stroke="#11accd" d="M135 105h15v15M150 105l7.5-7.5" stroke-width="2"/><path fill="#ccfaff" stroke="#11accd" d="M135 90v15h15l7.5-7.5v-15h-15z" stroke-width="2"/><path fill="#ccfaff" stroke="#11accd" d="M135 90h15v15M150 90l7.5-7.5" stroke-width="2"/><path fill="#ccfaff" stroke="#11accd" d="M135 75v15h15l7.5-7.5v-15h-15z" stroke-width="2"/><path fill="#ccfaff" stroke="#11accd" d="M135 75h15v15M150 75l7.5-7.5" stroke-width="2"/><path fill="#ccfaff" stroke="#11accd" d="M135 60v15h15l7.5-7.5v-15h-15z" stroke-width="2"/><path fill="#ccfaff" stroke="#11accd" d="M135 60h15v15M150 60l7.5-7.5" stroke-width="2"/><path fill="#ccfaff" stroke="#11accd" d="M135 45v15h15l7.5-7.5v-15h-15z" stroke-width="2"/><path fill="#ccfaff" stroke="#11accd" d="M135 45h15v15M150 45l7.5-7.5" stroke-width="2"/><path fill="#ccfaff" stroke="#11accd" d="M135 30v15h15l7.5-7.5v-15h-15z" stroke-width="2"/><path fill="#ccfaff" stroke="#11accd" d="M135 30h15v15M150 30l7.5-7.5" stroke-width="2"/><path fill="#ccfaff" stroke="#11accd" d="M135 15v15h15l7.5-7.5v-15h-15z" stroke-width="2"/><path fill="#ccfaff" stroke="#11accd" d="M135 15h15v15M150 15l7.5-7.5M165 150v15h15l7.5-7.5v-15h-15z" stroke-width="2"/><path fill="#ccfaff" stroke="#11accd" d="M165 150h15v15M180 150l7.5-7.5" stroke-width="2"/><path fill="#ccfaff" stroke="#11accd" d="M165 135v15h15l7.5-7.5v-15h-15z" stroke-width="2"/><path fill="#ccfaff" stroke="#11accd" d="M165 135h15v15M180 135l7.5-7.5" stroke-width="2"/><path fill="#ccfaff" stroke="#11accd" d="M165 120v15h15l7.5-7.5v-15h-15z" stroke-width="2"/><path fill="#ccfaff" stroke="#11accd" d="M165 120h15v15M180 120l7.5-7.5" stroke-width="2"/></svg>
