<svg xmlns="http://www.w3.org/2000/svg" version="1.1" width="400" height="56.06469002695417" viewBox="0 0 400 56.06469002695417"><defs/><path fill="#eee8aa" stroke="#000000" d="M 1.07817,11.8598 L 11.8598,1.07817 L 54.9865,1.07817 L 44.2049,11.8598 Z" style="stroke-width: 2px;fill-opacity: 1;stroke-opacity: 1" stroke-width="2" fill-opacity="1" stroke-opacity="1" stroke-dasharray="0"/><path fill="#eee8aa" stroke="#000000" d="M 1.07817,54.9865 L 44.2049,54.9865 L 44.2049,11.8598 L 1.07817,11.8598 Z" style="stroke-width: 2px;fill-opacity: 1;stroke-opacity: 1" stroke-width="2" fill-opacity="1" stroke-opacity="1" stroke-dasharray="0"/><path fill="#eee8aa" stroke="#000000" d="M 44.2049,54.9865 L 44.2049,11.8598 L 54.9865,1.07817 L 54.9865,44.2049 Z" style="stroke-width: 2px;fill-opacity: 1;stroke-opacity: 1" stroke-width="2" fill-opacity="1" stroke-opacity="1" stroke-dasharray="0"/><ellipse cx="22.641509433962263" cy="40.97035040431267" rx="10.781671448590071" ry="10.781671448590071" fill="#deb958" stroke="none" r="10.781671448590071" transform=""/><ellipse cx="23.254978130776102" cy="40.35688170749883" rx="10.168202751776233" ry="10.168202751776233" fill="#eec65e" stroke="none" r="10.168202751776233" transform=""/><ellipse cx="19.24632777969771" cy="40.35688147347909" rx="1.0060886627746932" ry="1.0060886627746932" fill="#deb958" stroke="none" r="1.0060886627746932" transform=""/><ellipse cx="25.324412472289517" cy="35.626138420793595" rx="2.069434403918678" ry="2.069434403918678" fill="#deb958" stroke="none" r="2.069434403918678" transform=""/><ellipse cx="29.356618703950456" cy="42.37004023099744" rx="1.4150677939839182" ry="1.4150677939839182" fill="#deb958" stroke="none" r="1.4150677939839182" transform=""/><ellipse cx="22.612717205772924" cy="46.68428018394067" rx="1.329672951387432" ry="1.329672951387432" fill="#deb958" stroke="none" r="1.329672951387432" transform=""/><ellipse cx="14.41644803833067" cy="43.45399905454342" rx="1.329672951387432" ry="1.329672951387432" fill="#deb958" stroke="none" r="1.329672951387432" transform=""/><ellipse cx="18.532086986280394" cy="33.55670407928017" rx="1.329672951387432" ry="1.329672951387432" fill="#deb958" stroke="none" r="1.329672951387432" transform=""/><ellipse cx="29.1112313032315" cy="47.85396020277406" rx="1.1696803152583832" ry="1.1696803152583832" fill="#deb958" stroke="none" r="1.1696803152583832" transform=""/><ellipse cx="31.433906513785242" cy="36.6322270991696" rx="1.0060886627746932" ry="1.0060886627746932" fill="#deb958" stroke="none" r="1.0060886627746932" transform=""/><ellipse cx="25.69282100598194" cy="35.626138420793595" rx="1.595018611715977" ry="1.595018611715977" fill="#7a3440" stroke="none" r="1.595018611715977" transform=""/><ellipse cx="18.53208651824092" cy="34.03111965306446" rx="1.115367886633798" ry="1.115367886633798" fill="#7a3440" stroke="none" r="1.115367886633798" transform=""/><ellipse cx="22.85319666658132" cy="46.89858438126115" rx="1.115367886633798" ry="1.115367886633798" fill="#7a3440" stroke="none" r="1.115367886633798" transform=""/><ellipse cx="19.570566102300333" cy="40.66377924566834" rx="0.8241747452128301" ry="0.8241747452128301" fill="#7a3440" stroke="none" r="0.8241747452128301" transform=""/><ellipse cx="14.41644803833067" cy="43.453999210556574" rx="0.9982362634554761" ry="0.9982362634554761" fill="#7a3440" stroke="none" r="0.9982362634554761" transform=""/><ellipse cx="29.356619484016242" cy="42.37004101106322" rx="0.9982362634554761" ry="0.9982362634554761" fill="#7a3440" stroke="none" r="0.9982362634554761" transform=""/><ellipse cx="29.30786911665947" cy="47.938046614192146" rx="0.9494859510153365" ry="0.9226569200080112" fill="#7a3440" stroke="none" r="NaN" transform=""/><ellipse cx="31.10672328682444" cy="36.566790500581384" rx="0.9494859510153365" ry="0.9226569200080112" fill="#7a3440" stroke="none" r="NaN" transform=""/><path fill="#eee8aa" stroke="#000000" d="M 60.3774,11.8598 L 71.159,1.07817 L 114.286,1.07817 L 103.504,11.8598 Z" style="stroke-width: 2px;fill-opacity: 1;stroke-opacity: 1" stroke-width="2" fill-opacity="1" stroke-opacity="1" stroke-dasharray="0"/><path fill="#eee8aa" stroke="#000000" d="M 60.3774,54.9865 L 103.504,54.9865 L 103.504,11.8598 L 60.3774,11.8598 Z" style="stroke-width: 2px;fill-opacity: 1;stroke-opacity: 1" stroke-width="2" fill-opacity="1" stroke-opacity="1" stroke-dasharray="0"/><path fill="#eee8aa" stroke="#000000" d="M 103.504,54.9865 L 103.504,11.8598 L 114.286,1.07817 L 114.286,44.2049 Z" style="stroke-width: 2px;fill-opacity: 1;stroke-opacity: 1" stroke-width="2" fill-opacity="1" stroke-opacity="1" stroke-dasharray="0"/><ellipse cx="81.94070080862534" cy="40.97035040431267" rx="10.781671448590071" ry="10.781671448590071" fill="#deb958" stroke="none" r="10.781671448590071" transform=""/><ellipse cx="82.55416950543916" cy="40.35688170749883" rx="10.168202751776233" ry="10.168202751776233" fill="#eec65e" stroke="none" r="10.168202751776233" transform=""/><ellipse cx="78.54551915436078" cy="40.35688147347909" rx="1.0060886627746932" ry="1.0060886627746932" fill="#deb958" stroke="none" r="1.0060886627746932" transform=""/><ellipse cx="84.62360384695259" cy="35.626138420793595" rx="2.069434403918678" ry="2.069434403918678" fill="#deb958" stroke="none" r="2.069434403918678" transform=""/><ellipse cx="88.65581007861353" cy="42.37004023099744" rx="1.4150677939839182" ry="1.4150677939839182" fill="#deb958" stroke="none" r="1.4150677939839182" transform=""/><ellipse cx="81.91190858043599" cy="46.68428018394067" rx="1.329672951387432" ry="1.329672951387432" fill="#deb958" stroke="none" r="1.329672951387432" transform=""/><ellipse cx="73.71563941299374" cy="43.45399905454342" rx="1.329672951387432" ry="1.329672951387432" fill="#deb958" stroke="none" r="1.329672951387432" transform=""/><ellipse cx="77.83127836094346" cy="33.55670407928017" rx="1.329672951387432" ry="1.329672951387432" fill="#deb958" stroke="none" r="1.329672951387432" transform=""/><ellipse cx="88.41042267789456" cy="47.85396020277406" rx="1.1696803152583832" ry="1.1696803152583832" fill="#deb958" stroke="none" r="1.1696803152583832" transform=""/><ellipse cx="90.73309788844831" cy="36.6322270991696" rx="1.0060886627746932" ry="1.0060886627746932" fill="#deb958" stroke="none" r="1.0060886627746932" transform=""/><ellipse cx="84.99201238064501" cy="35.626138420793595" rx="1.595018611715977" ry="1.595018611715977" fill="#7a3440" stroke="none" r="1.595018611715977" transform=""/><ellipse cx="77.83127789290398" cy="34.03111965306446" rx="1.115367886633798" ry="1.115367886633798" fill="#7a3440" stroke="none" r="1.115367886633798" transform=""/><ellipse cx="82.15238804124438" cy="46.89858438126115" rx="1.115367886633798" ry="1.115367886633798" fill="#7a3440" stroke="none" r="1.115367886633798" transform=""/><ellipse cx="78.8697574769634" cy="40.66377924566834" rx="0.8241747452128301" ry="0.8241747452128301" fill="#7a3440" stroke="none" r="0.8241747452128301" transform=""/><ellipse cx="73.71563941299374" cy="43.453999210556574" rx="0.9982362634554761" ry="0.9982362634554761" fill="#7a3440" stroke="none" r="0.9982362634554761" transform=""/><ellipse cx="88.6558108586793" cy="42.37004101106322" rx="0.9982362634554761" ry="0.9982362634554761" fill="#7a3440" stroke="none" r="0.9982362634554761" transform=""/><ellipse cx="88.60706049132254" cy="47.938046614192146" rx="0.9494859510153365" ry="0.9226569200080112" fill="#7a3440" stroke="none" r="NaN" transform=""/><ellipse cx="90.40591466148751" cy="36.566790500581384" rx="0.9494859510153365" ry="0.9226569200080112" fill="#7a3440" stroke="none" r="NaN" transform=""/><path fill="#eee8aa" stroke="#000000" d="M 119.677,11.8598 L 130.458,1.07817 L 173.585,1.07817 L 162.803,11.8598 Z" style="stroke-width: 2px;fill-opacity: 1;stroke-opacity: 1" stroke-width="2" fill-opacity="1" stroke-opacity="1" stroke-dasharray="0"/><path fill="#eee8aa" stroke="#000000" d="M 119.677,54.9865 L 162.803,54.9865 L 162.803,11.8598 L 119.677,11.8598 Z" style="stroke-width: 2px;fill-opacity: 1;stroke-opacity: 1" stroke-width="2" fill-opacity="1" stroke-opacity="1" stroke-dasharray="0"/><path fill="#eee8aa" stroke="#000000" d="M 162.803,54.9865 L 162.803,11.8598 L 173.585,1.07817 L 173.585,44.2049 Z" style="stroke-width: 2px;fill-opacity: 1;stroke-opacity: 1" stroke-width="2" fill-opacity="1" stroke-opacity="1" stroke-dasharray="0"/><ellipse cx="141.2398921832884" cy="40.97035040431267" rx="10.781671448590071" ry="10.781671448590071" fill="#deb958" stroke="none" r="10.781671448590071" transform=""/><ellipse cx="141.85336088010223" cy="40.35688170749883" rx="10.168202751776233" ry="10.168202751776233" fill="#eec65e" stroke="none" r="10.168202751776233" transform=""/><ellipse cx="137.84471052902384" cy="40.35688147347909" rx="1.0060886627746932" ry="1.0060886627746932" fill="#deb958" stroke="none" r="1.0060886627746932" transform=""/><ellipse cx="143.92279522161564" cy="35.626138420793595" rx="2.069434403918678" ry="2.069434403918678" fill="#deb958" stroke="none" r="2.069434403918678" transform=""/><ellipse cx="147.95500145327657" cy="42.37004023099744" rx="1.4150677939839182" ry="1.4150677939839182" fill="#deb958" stroke="none" r="1.4150677939839182" transform=""/><ellipse cx="141.21109995509903" cy="46.68428018394067" rx="1.329672951387432" ry="1.329672951387432" fill="#deb958" stroke="none" r="1.329672951387432" transform=""/><ellipse cx="133.0148307876568" cy="43.45399905454342" rx="1.329672951387432" ry="1.329672951387432" fill="#deb958" stroke="none" r="1.329672951387432" transform=""/><ellipse cx="137.1304697356065" cy="33.55670407928017" rx="1.329672951387432" ry="1.329672951387432" fill="#deb958" stroke="none" r="1.329672951387432" transform=""/><ellipse cx="147.7096140525576" cy="47.85396020277406" rx="1.1696803152583832" ry="1.1696803152583832" fill="#deb958" stroke="none" r="1.1696803152583832" transform=""/><ellipse cx="150.03228926311135" cy="36.6322270991696" rx="1.0060886627746932" ry="1.0060886627746932" fill="#deb958" stroke="none" r="1.0060886627746932" transform=""/><ellipse cx="144.29120375530806" cy="35.626138420793595" rx="1.595018611715977" ry="1.595018611715977" fill="#7a3440" stroke="none" r="1.595018611715977" transform=""/><ellipse cx="137.13046926756704" cy="34.03111965306446" rx="1.115367886633798" ry="1.115367886633798" fill="#7a3440" stroke="none" r="1.115367886633798" transform=""/><ellipse cx="141.45157941590745" cy="46.89858438126115" rx="1.115367886633798" ry="1.115367886633798" fill="#7a3440" stroke="none" r="1.115367886633798" transform=""/><ellipse cx="138.16894885162645" cy="40.66377924566834" rx="0.8241747452128301" ry="0.8241747452128301" fill="#7a3440" stroke="none" r="0.8241747452128301" transform=""/><ellipse cx="133.0148307876568" cy="43.453999210556574" rx="0.9982362634554761" ry="0.9982362634554761" fill="#7a3440" stroke="none" r="0.9982362634554761" transform=""/><ellipse cx="147.95500223334236" cy="42.37004101106322" rx="0.9982362634554761" ry="0.9982362634554761" fill="#7a3440" stroke="none" r="0.9982362634554761" transform=""/><ellipse cx="147.90625186598558" cy="47.938046614192146" rx="0.9494859510153365" ry="0.9226569200080112" fill="#7a3440" stroke="none" r="NaN" transform=""/><ellipse cx="149.70510603615057" cy="36.566790500581384" rx="0.9494859510153365" ry="0.9226569200080112" fill="#7a3440" stroke="none" r="NaN" transform=""/><ellipse cx="189.75741239892184" cy="40.97035040431267" rx="10.781671448590071" ry="10.781671448590071" fill="#deb958" stroke="none" r="10.781671448590071" transform=""/><ellipse cx="190.37088109573568" cy="40.35688170749883" rx="10.168202751776233" ry="10.168202751776233" fill="#eec65e" stroke="none" r="10.168202751776233" transform=""/><ellipse cx="186.3622307446573" cy="40.35688147347909" rx="1.0060886627746932" ry="1.0060886627746932" fill="#deb958" stroke="none" r="1.0060886627746932" transform=""/><ellipse cx="192.4403154372491" cy="35.626138420793595" rx="2.069434403918678" ry="2.069434403918678" fill="#deb958" stroke="none" r="2.069434403918678" transform=""/><ellipse cx="196.47252166891002" cy="42.37004023099744" rx="1.4150677939839182" ry="1.4150677939839182" fill="#deb958" stroke="none" r="1.4150677939839182" transform=""/><ellipse cx="189.72862017073248" cy="46.68428018394067" rx="1.329672951387432" ry="1.329672951387432" fill="#deb958" stroke="none" r="1.329672951387432" transform=""/><ellipse cx="181.53235100329024" cy="43.45399905454342" rx="1.329672951387432" ry="1.329672951387432" fill="#deb958" stroke="none" r="1.329672951387432" transform=""/><ellipse cx="185.64798995123996" cy="33.55670407928017" rx="1.329672951387432" ry="1.329672951387432" fill="#deb958" stroke="none" r="1.329672951387432" transform=""/><ellipse cx="196.22713426819107" cy="47.85396020277406" rx="1.1696803152583832" ry="1.1696803152583832" fill="#deb958" stroke="none" r="1.1696803152583832" transform=""/><ellipse cx="198.5498094787448" cy="36.6322270991696" rx="1.0060886627746932" ry="1.0060886627746932" fill="#deb958" stroke="none" r="1.0060886627746932" transform=""/><ellipse cx="192.80872397094151" cy="35.626138420793595" rx="1.595018611715977" ry="1.595018611715977" fill="#7a3440" stroke="none" r="1.595018611715977" transform=""/><ellipse cx="185.6479894832005" cy="34.03111965306446" rx="1.115367886633798" ry="1.115367886633798" fill="#7a3440" stroke="none" r="1.115367886633798" transform=""/><ellipse cx="189.9690996315409" cy="46.89858438126115" rx="1.115367886633798" ry="1.115367886633798" fill="#7a3440" stroke="none" r="1.115367886633798" transform=""/><ellipse cx="186.6864690672599" cy="40.66377924566834" rx="0.8241747452128301" ry="0.8241747452128301" fill="#7a3440" stroke="none" r="0.8241747452128301" transform=""/><ellipse cx="181.53235100329024" cy="43.453999210556574" rx="0.9982362634554761" ry="0.9982362634554761" fill="#7a3440" stroke="none" r="0.9982362634554761" transform=""/><ellipse cx="196.4725224489758" cy="42.37004101106322" rx="0.9982362634554761" ry="0.9982362634554761" fill="#7a3440" stroke="none" r="0.9982362634554761" transform=""/><ellipse cx="196.42377208161903" cy="47.938046614192146" rx="0.9494859510153365" ry="0.9226569200080112" fill="#7a3440" stroke="none" r="NaN" transform=""/><ellipse cx="198.22262625178402" cy="36.566790500581384" rx="0.9494859510153365" ry="0.9226569200080112" fill="#7a3440" stroke="none" r="NaN" transform=""/><ellipse cx="222.10242587601078" cy="40.97035040431267" rx="10.781671448590071" ry="10.781671448590071" fill="#deb958" stroke="none" r="10.781671448590071" transform=""/><ellipse cx="222.71589457282462" cy="40.35688170749883" rx="10.168202751776233" ry="10.168202751776233" fill="#eec65e" stroke="none" r="10.168202751776233" transform=""/><ellipse cx="218.70724422174624" cy="40.35688147347909" rx="1.0060886627746932" ry="1.0060886627746932" fill="#deb958" stroke="none" r="1.0060886627746932" transform=""/><ellipse cx="224.78532891433804" cy="35.626138420793595" rx="2.069434403918678" ry="2.069434403918678" fill="#deb958" stroke="none" r="2.069434403918678" transform=""/><ellipse cx="228.81753514599896" cy="42.37004023099744" rx="1.4150677939839182" ry="1.4150677939839182" fill="#deb958" stroke="none" r="1.4150677939839182" transform=""/><ellipse cx="222.07363364782145" cy="46.68428018394067" rx="1.329672951387432" ry="1.329672951387432" fill="#deb958" stroke="none" r="1.329672951387432" transform=""/><ellipse cx="213.87736448037919" cy="43.45399905454342" rx="1.329672951387432" ry="1.329672951387432" fill="#deb958" stroke="none" r="1.329672951387432" transform=""/><ellipse cx="217.9930034283289" cy="33.55670407928017" rx="1.329672951387432" ry="1.329672951387432" fill="#deb958" stroke="none" r="1.329672951387432" transform=""/><ellipse cx="228.57214774528" cy="47.85396020277406" rx="1.1696803152583832" ry="1.1696803152583832" fill="#deb958" stroke="none" r="1.1696803152583832" transform=""/><ellipse cx="230.89482295583375" cy="36.6322270991696" rx="1.0060886627746932" ry="1.0060886627746932" fill="#deb958" stroke="none" r="1.0060886627746932" transform=""/><ellipse cx="225.15373744803045" cy="35.626138420793595" rx="1.595018611715977" ry="1.595018611715977" fill="#7a3440" stroke="none" r="1.595018611715977" transform=""/><ellipse cx="217.99300296028943" cy="34.03111965306446" rx="1.115367886633798" ry="1.115367886633798" fill="#7a3440" stroke="none" r="1.115367886633798" transform=""/><ellipse cx="222.31411310862984" cy="46.89858438126115" rx="1.115367886633798" ry="1.115367886633798" fill="#7a3440" stroke="none" r="1.115367886633798" transform=""/><ellipse cx="219.03148254434885" cy="40.66377924566834" rx="0.8241747452128301" ry="0.8241747452128301" fill="#7a3440" stroke="none" r="0.8241747452128301" transform=""/><ellipse cx="213.87736448037919" cy="43.453999210556574" rx="0.9982362634554761" ry="0.9982362634554761" fill="#7a3440" stroke="none" r="0.9982362634554761" transform=""/><ellipse cx="228.81753592606475" cy="42.37004101106322" rx="0.9982362634554761" ry="0.9982362634554761" fill="#7a3440" stroke="none" r="0.9982362634554761" transform=""/><ellipse cx="228.76878555870798" cy="47.938046614192146" rx="0.9494859510153365" ry="0.9226569200080112" fill="#7a3440" stroke="none" r="NaN" transform=""/><ellipse cx="230.56763972887296" cy="36.566790500581384" rx="0.9494859510153365" ry="0.9226569200080112" fill="#7a3440" stroke="none" r="NaN" transform=""/><ellipse cx="254.44743935309972" cy="40.97035040431267" rx="10.781671448590071" ry="10.781671448590071" fill="#deb958" stroke="none" r="10.781671448590071" transform=""/><ellipse cx="255.06090804991356" cy="40.35688170749883" rx="10.168202751776233" ry="10.168202751776233" fill="#eec65e" stroke="none" r="10.168202751776233" transform=""/><ellipse cx="251.05225769883518" cy="40.35688147347909" rx="1.0060886627746932" ry="1.0060886627746932" fill="#deb958" stroke="none" r="1.0060886627746932" transform=""/><ellipse cx="257.13034239142695" cy="35.626138420793595" rx="2.069434403918678" ry="2.069434403918678" fill="#deb958" stroke="none" r="2.069434403918678" transform=""/><ellipse cx="261.1625486230879" cy="42.37004023099744" rx="1.4150677939839182" ry="1.4150677939839182" fill="#deb958" stroke="none" r="1.4150677939839182" transform=""/><ellipse cx="254.41864712491036" cy="46.68428018394067" rx="1.329672951387432" ry="1.329672951387432" fill="#deb958" stroke="none" r="1.329672951387432" transform=""/><ellipse cx="246.22237795746813" cy="43.45399905454342" rx="1.329672951387432" ry="1.329672951387432" fill="#deb958" stroke="none" r="1.329672951387432" transform=""/><ellipse cx="250.33801690541785" cy="33.55670407928017" rx="1.329672951387432" ry="1.329672951387432" fill="#deb958" stroke="none" r="1.329672951387432" transform=""/><ellipse cx="260.917161222369" cy="47.85396020277406" rx="1.1696803152583832" ry="1.1696803152583832" fill="#deb958" stroke="none" r="1.1696803152583832" transform=""/><ellipse cx="263.2398364329227" cy="36.6322270991696" rx="1.0060886627746932" ry="1.0060886627746932" fill="#deb958" stroke="none" r="1.0060886627746932" transform=""/><ellipse cx="257.4987509251194" cy="35.626138420793595" rx="1.595018611715977" ry="1.595018611715977" fill="#7a3440" stroke="none" r="1.595018611715977" transform=""/><ellipse cx="250.33801643737837" cy="34.03111965306446" rx="1.115367886633798" ry="1.115367886633798" fill="#7a3440" stroke="none" r="1.115367886633798" transform=""/><ellipse cx="254.65912658571878" cy="46.89858438126115" rx="1.115367886633798" ry="1.115367886633798" fill="#7a3440" stroke="none" r="1.115367886633798" transform=""/><ellipse cx="251.3764960214378" cy="40.66377924566834" rx="0.8241747452128301" ry="0.8241747452128301" fill="#7a3440" stroke="none" r="0.8241747452128301" transform=""/><ellipse cx="246.22237795746813" cy="43.453999210556574" rx="0.9982362634554761" ry="0.9982362634554761" fill="#7a3440" stroke="none" r="0.9982362634554761" transform=""/><ellipse cx="261.1625494031537" cy="42.37004101106322" rx="0.9982362634554761" ry="0.9982362634554761" fill="#7a3440" stroke="none" r="0.9982362634554761" transform=""/><ellipse cx="261.11379903579694" cy="47.938046614192146" rx="0.9494859510153365" ry="0.9226569200080112" fill="#7a3440" stroke="none" r="NaN" transform=""/><ellipse cx="262.9126532059619" cy="36.566790500581384" rx="0.9494859510153365" ry="0.9226569200080112" fill="#7a3440" stroke="none" r="NaN" transform=""/><ellipse cx="286.79245283018867" cy="40.97035040431267" rx="10.781671448590071" ry="10.781671448590071" fill="#deb958" stroke="none" r="10.781671448590071" transform=""/><ellipse cx="287.4059215270025" cy="40.35688170749883" rx="10.168202751776233" ry="10.168202751776233" fill="#eec65e" stroke="none" r="10.168202751776233" transform=""/><ellipse cx="283.3972711759241" cy="40.35688147347909" rx="1.0060886627746932" ry="1.0060886627746932" fill="#deb958" stroke="none" r="1.0060886627746932" transform=""/><ellipse cx="289.4753558685159" cy="35.626138420793595" rx="2.069434403918678" ry="2.069434403918678" fill="#deb958" stroke="none" r="2.069434403918678" transform=""/><ellipse cx="293.50756210017687" cy="42.37004023099744" rx="1.4150677939839182" ry="1.4150677939839182" fill="#deb958" stroke="none" r="1.4150677939839182" transform=""/><ellipse cx="286.76366060199933" cy="46.68428018394067" rx="1.329672951387432" ry="1.329672951387432" fill="#deb958" stroke="none" r="1.329672951387432" transform=""/><ellipse cx="278.56739143455707" cy="43.45399905454342" rx="1.329672951387432" ry="1.329672951387432" fill="#deb958" stroke="none" r="1.329672951387432" transform=""/><ellipse cx="282.6830303825068" cy="33.55670407928017" rx="1.329672951387432" ry="1.329672951387432" fill="#deb958" stroke="none" r="1.329672951387432" transform=""/><ellipse cx="293.2621746994579" cy="47.85396020277406" rx="1.1696803152583832" ry="1.1696803152583832" fill="#deb958" stroke="none" r="1.1696803152583832" transform=""/><ellipse cx="295.58484991001166" cy="36.6322270991696" rx="1.0060886627746932" ry="1.0060886627746932" fill="#deb958" stroke="none" r="1.0060886627746932" transform=""/><ellipse cx="289.84376440220836" cy="35.626138420793595" rx="1.595018611715977" ry="1.595018611715977" fill="#7a3440" stroke="none" r="1.595018611715977" transform=""/><ellipse cx="282.68302991446734" cy="34.03111965306446" rx="1.115367886633798" ry="1.115367886633798" fill="#7a3440" stroke="none" r="1.115367886633798" transform=""/><ellipse cx="287.0041400628077" cy="46.89858438126115" rx="1.115367886633798" ry="1.115367886633798" fill="#7a3440" stroke="none" r="1.115367886633798" transform=""/><ellipse cx="283.72150949852676" cy="40.66377924566834" rx="0.8241747452128301" ry="0.8241747452128301" fill="#7a3440" stroke="none" r="0.8241747452128301" transform=""/><ellipse cx="278.56739143455707" cy="43.453999210556574" rx="0.9982362634554761" ry="0.9982362634554761" fill="#7a3440" stroke="none" r="0.9982362634554761" transform=""/><ellipse cx="293.50756288024263" cy="42.37004101106322" rx="0.9982362634554761" ry="0.9982362634554761" fill="#7a3440" stroke="none" r="0.9982362634554761" transform=""/><ellipse cx="293.45881251288586" cy="47.938046614192146" rx="0.9494859510153365" ry="0.9226569200080112" fill="#7a3440" stroke="none" r="NaN" transform=""/><ellipse cx="295.25766668305084" cy="36.566790500581384" rx="0.9494859510153365" ry="0.9226569200080112" fill="#7a3440" stroke="none" r="NaN" transform=""/><ellipse cx="319.13746630727763" cy="40.97035040431267" rx="10.781671448590071" ry="10.781671448590071" fill="#deb958" stroke="none" r="10.781671448590071" transform=""/><ellipse cx="319.75093500409145" cy="40.35688170749883" rx="10.168202751776233" ry="10.168202751776233" fill="#eec65e" stroke="none" r="10.168202751776233" transform=""/><ellipse cx="315.7422846530131" cy="40.35688147347909" rx="1.0060886627746932" ry="1.0060886627746932" fill="#deb958" stroke="none" r="1.0060886627746932" transform=""/><ellipse cx="321.8203693456049" cy="35.626138420793595" rx="2.069434403918678" ry="2.069434403918678" fill="#deb958" stroke="none" r="2.069434403918678" transform=""/><ellipse cx="325.85257557726584" cy="42.37004023099744" rx="1.4150677939839182" ry="1.4150677939839182" fill="#deb958" stroke="none" r="1.4150677939839182" transform=""/><ellipse cx="319.1086740790883" cy="46.68428018394067" rx="1.329672951387432" ry="1.329672951387432" fill="#deb958" stroke="none" r="1.329672951387432" transform=""/><ellipse cx="310.91240491164604" cy="43.45399905454342" rx="1.329672951387432" ry="1.329672951387432" fill="#deb958" stroke="none" r="1.329672951387432" transform=""/><ellipse cx="315.02804385959575" cy="33.55670407928017" rx="1.329672951387432" ry="1.329672951387432" fill="#deb958" stroke="none" r="1.329672951387432" transform=""/><ellipse cx="325.60718817654686" cy="47.85396020277406" rx="1.1696803152583832" ry="1.1696803152583832" fill="#deb958" stroke="none" r="1.1696803152583832" transform=""/><ellipse cx="327.9298633871006" cy="36.6322270991696" rx="1.0060886627746932" ry="1.0060886627746932" fill="#deb958" stroke="none" r="1.0060886627746932" transform=""/><ellipse cx="322.18877787929733" cy="35.626138420793595" rx="1.595018611715977" ry="1.595018611715977" fill="#7a3440" stroke="none" r="1.595018611715977" transform=""/><ellipse cx="315.0280433915563" cy="34.03111965306446" rx="1.115367886633798" ry="1.115367886633798" fill="#7a3440" stroke="none" r="1.115367886633798" transform=""/><ellipse cx="319.3491535398967" cy="46.89858438126115" rx="1.115367886633798" ry="1.115367886633798" fill="#7a3440" stroke="none" r="1.115367886633798" transform=""/><ellipse cx="316.0665229756157" cy="40.66377924566834" rx="0.8241747452128301" ry="0.8241747452128301" fill="#7a3440" stroke="none" r="0.8241747452128301" transform=""/><ellipse cx="310.91240491164604" cy="43.453999210556574" rx="0.9982362634554761" ry="0.9982362634554761" fill="#7a3440" stroke="none" r="0.9982362634554761" transform=""/><ellipse cx="325.8525763573316" cy="42.37004101106322" rx="0.9982362634554761" ry="0.9982362634554761" fill="#7a3440" stroke="none" r="0.9982362634554761" transform=""/><ellipse cx="325.8038259899748" cy="47.938046614192146" rx="0.9494859510153365" ry="0.9226569200080112" fill="#7a3440" stroke="none" r="NaN" transform=""/><ellipse cx="327.6026801601398" cy="36.566790500581384" rx="0.9494859510153365" ry="0.9226569200080112" fill="#7a3440" stroke="none" r="NaN" transform=""/><ellipse cx="351.4824797843666" cy="40.97035040431267" rx="10.781671448590071" ry="10.781671448590071" fill="#deb958" stroke="none" r="10.781671448590071" transform=""/><ellipse cx="352.0959484811804" cy="40.35688170749883" rx="10.168202751776233" ry="10.168202751776233" fill="#eec65e" stroke="none" r="10.168202751776233" transform=""/><ellipse cx="348.08729813010206" cy="40.35688147347909" rx="1.0060886627746932" ry="1.0060886627746932" fill="#deb958" stroke="none" r="1.0060886627746932" transform=""/><ellipse cx="354.16538282269386" cy="35.626138420793595" rx="2.069434403918678" ry="2.069434403918678" fill="#deb958" stroke="none" r="2.069434403918678" transform=""/><ellipse cx="358.1975890543548" cy="42.37004023099744" rx="1.4150677939839182" ry="1.4150677939839182" fill="#deb958" stroke="none" r="1.4150677939839182" transform=""/><ellipse cx="351.4536875561773" cy="46.68428018394067" rx="1.329672951387432" ry="1.329672951387432" fill="#deb958" stroke="none" r="1.329672951387432" transform=""/><ellipse cx="343.257418388735" cy="43.45399905454342" rx="1.329672951387432" ry="1.329672951387432" fill="#deb958" stroke="none" r="1.329672951387432" transform=""/><ellipse cx="347.3730573366847" cy="33.55670407928017" rx="1.329672951387432" ry="1.329672951387432" fill="#deb958" stroke="none" r="1.329672951387432" transform=""/><ellipse cx="357.9522016536358" cy="47.85396020277406" rx="1.1696803152583832" ry="1.1696803152583832" fill="#deb958" stroke="none" r="1.1696803152583832" transform=""/><ellipse cx="360.2748768641896" cy="36.6322270991696" rx="1.0060886627746932" ry="1.0060886627746932" fill="#deb958" stroke="none" r="1.0060886627746932" transform=""/><ellipse cx="354.5337913563863" cy="35.626138420793595" rx="1.595018611715977" ry="1.595018611715977" fill="#7a3440" stroke="none" r="1.595018611715977" transform=""/><ellipse cx="347.3730568686453" cy="34.03111965306446" rx="1.115367886633798" ry="1.115367886633798" fill="#7a3440" stroke="none" r="1.115367886633798" transform=""/><ellipse cx="351.69416701698566" cy="46.89858438126115" rx="1.115367886633798" ry="1.115367886633798" fill="#7a3440" stroke="none" r="1.115367886633798" transform=""/><ellipse cx="348.4115364527047" cy="40.66377924566834" rx="0.8241747452128301" ry="0.8241747452128301" fill="#7a3440" stroke="none" r="0.8241747452128301" transform=""/><ellipse cx="343.257418388735" cy="43.453999210556574" rx="0.9982362634554761" ry="0.9982362634554761" fill="#7a3440" stroke="none" r="0.9982362634554761" transform=""/><ellipse cx="358.19758983442057" cy="42.37004101106322" rx="0.9982362634554761" ry="0.9982362634554761" fill="#7a3440" stroke="none" r="0.9982362634554761" transform=""/><ellipse cx="358.1488394670638" cy="47.938046614192146" rx="0.9494859510153365" ry="0.9226569200080112" fill="#7a3440" stroke="none" r="NaN" transform=""/><ellipse cx="359.9476936372288" cy="36.566790500581384" rx="0.9494859510153365" ry="0.9226569200080112" fill="#7a3440" stroke="none" r="NaN" transform=""/></svg>