<svg xmlns="http://www.w3.org/2000/svg" version="1.1" width="225" height="187.5" viewBox="0 0 225 187.5"><defs/><path fill="#c7e9f1" stroke="#29abca" d="M 15,150 L 15,165 L 30,165 L 37.5,157.5 L 37.5,142.5 L 22.5,142.5 Z" style="stroke-width: 2px" stroke-width="2"/><path fill="#c7e9f1" stroke="#29abca" d="M 15,150 L 30,150 L 30,165" style="stroke-width: 2px" stroke-width="2"/><path fill="#c7e9f1" stroke="#29abca" d="M 30,150 L 37.5,142.5" style="stroke-width: 2px" stroke-width="2"/><path fill="#c7e9f1" stroke="#29abca" d="M 15,135 L 15,150 L 30,150 L 37.5,142.5 L 37.5,127.5 L 22.5,127.5 Z" style="stroke-width: 2px" stroke-width="2"/><path fill="#c7e9f1" stroke="#29abca" d="M 15,135 L 30,135 L 30,150" style="stroke-width: 2px" stroke-width="2"/><path fill="#c7e9f1" stroke="#29abca" d="M 30,135 L 37.5,127.5" style="stroke-width: 2px" stroke-width="2"/><path fill="#c7e9f1" stroke="#29abca" d="M 15,120 L 15,135 L 30,135 L 37.5,127.5 L 37.5,112.5 L 22.5,112.5 Z" style="stroke-width: 2px" stroke-width="2"/><path fill="#c7e9f1" stroke="#29abca" d="M 15,120 L 30,120 L 30,135" style="stroke-width: 2px" stroke-width="2"/><path fill="#c7e9f1" stroke="#29abca" d="M 30,120 L 37.5,112.5" style="stroke-width: 2px" stroke-width="2"/><path fill="#c7e9f1" stroke="#29abca" d="M 15,105 L 15,120 L 30,120 L 37.5,112.5 L 37.5,97.5 L 22.5,97.5 Z" style="stroke-width: 2px" stroke-width="2"/><path fill="#c7e9f1" stroke="#29abca" d="M 15,105 L 30,105 L 30,120" style="stroke-width: 2px" stroke-width="2"/><path fill="#c7e9f1" stroke="#29abca" d="M 30,105 L 37.5,97.5" style="stroke-width: 2px" stroke-width="2"/><path fill="#c7e9f1" stroke="#29abca" d="M 15,90 L 15,105 L 30,105 L 37.5,97.5 L 37.5,82.5 L 22.5,82.5 Z" style="stroke-width: 2px" stroke-width="2"/><path fill="#c7e9f1" stroke="#29abca" d="M 15,90 L 30,90 L 30,105" style="stroke-width: 2px" stroke-width="2"/><path fill="#c7e9f1" stroke="#29abca" d="M 30,90 L 37.5,82.5" style="stroke-width: 2px" stroke-width="2"/><path fill="#c7e9f1" stroke="#29abca" d="M 15,75 L 15,90 L 30,90 L 37.5,82.5 L 37.5,67.5 L 22.5,67.5 Z" style="stroke-width: 2px" stroke-width="2"/><path fill="#c7e9f1" stroke="#29abca" d="M 15,75 L 30,75 L 30,90" style="stroke-width: 2px" stroke-width="2"/><path fill="#c7e9f1" stroke="#29abca" d="M 30,75 L 37.5,67.5" style="stroke-width: 2px" stroke-width="2"/><path fill="#c7e9f1" stroke="#29abca" d="M 15,60 L 15,75 L 30,75 L 37.5,67.5 L 37.5,52.5 L 22.5,52.5 Z" style="stroke-width: 2px" stroke-width="2"/><path fill="#c7e9f1" stroke="#29abca" d="M 15,60 L 30,60 L 30,75" style="stroke-width: 2px" stroke-width="2"/><path fill="#c7e9f1" stroke="#29abca" d="M 30,60 L 37.5,52.5" style="stroke-width: 2px" stroke-width="2"/><path fill="#c7e9f1" stroke="#29abca" d="M 15,45 L 15,60 L 30,60 L 37.5,52.5 L 37.5,37.5 L 22.5,37.5 Z" style="stroke-width: 2px" stroke-width="2"/><path fill="#c7e9f1" stroke="#29abca" d="M 15,45 L 30,45 L 30,60" style="stroke-width: 2px" stroke-width="2"/><path fill="#c7e9f1" stroke="#29abca" d="M 30,45 L 37.5,37.5" style="stroke-width: 2px" stroke-width="2"/><path fill="#c7e9f1" stroke="#29abca" d="M 15,30 L 15,45 L 30,45 L 37.5,37.5 L 37.5,22.5 L 22.5,22.5 Z" style="stroke-width: 2px" stroke-width="2"/><path fill="#c7e9f1" stroke="#29abca" d="M 15,30 L 30,30 L 30,45" style="stroke-width: 2px" stroke-width="2"/><path fill="#c7e9f1" stroke="#29abca" d="M 30,30 L 37.5,22.5" style="stroke-width: 2px" stroke-width="2"/><path fill="#c7e9f1" stroke="#29abca" d="M 15,15 L 15,30 L 30,30 L 37.5,22.5 L 37.5,7.5 L 22.5,7.5 Z" style="stroke-width: 2px" stroke-width="2"/><path fill="#c7e9f1" stroke="#29abca" d="M 15,15 L 30,15 L 30,30" style="stroke-width: 2px" stroke-width="2"/><path fill="#c7e9f1" stroke="#29abca" d="M 30,15 L 37.5,7.5" style="stroke-width: 2px" stroke-width="2"/><path fill="#c7e9f1" stroke="#29abca" d="M 45,150 L 45,165 L 60,165 L 67.5,157.5 L 67.5,142.5 L 52.5,142.5 Z" style="stroke-width: 2px" stroke-width="2"/><path fill="#c7e9f1" stroke="#29abca" d="M 45,150 L 60,150 L 60,165" style="stroke-width: 2px" stroke-width="2"/><path fill="#c7e9f1" stroke="#29abca" d="M 60,150 L 67.5,142.5" style="stroke-width: 2px" stroke-width="2"/><path fill="#c7e9f1" stroke="#29abca" d="M 45,135 L 45,150 L 60,150 L 67.5,142.5 L 67.5,127.5 L 52.5,127.5 Z" style="stroke-width: 2px" stroke-width="2"/><path fill="#c7e9f1" stroke="#29abca" d="M 45,135 L 60,135 L 60,150" style="stroke-width: 2px" stroke-width="2"/><path fill="#c7e9f1" stroke="#29abca" d="M 60,135 L 67.5,127.5" style="stroke-width: 2px" stroke-width="2"/><path fill="#c7e9f1" stroke="#29abca" d="M 45,120 L 45,135 L 60,135 L 67.5,127.5 L 67.5,112.5 L 52.5,112.5 Z" style="stroke-width: 2px" stroke-width="2"/><path fill="#c7e9f1" stroke="#29abca" d="M 45,120 L 60,120 L 60,135" style="stroke-width: 2px" stroke-width="2"/><path fill="#c7e9f1" stroke="#29abca" d="M 60,120 L 67.5,112.5" style="stroke-width: 2px" stroke-width="2"/><path fill="#c7e9f1" stroke="#29abca" d="M 45,105 L 45,120 L 60,120 L 67.5,112.5 L 67.5,97.5 L 52.5,97.5 Z" style="stroke-width: 2px" stroke-width="2"/><path fill="#c7e9f1" stroke="#29abca" d="M 45,105 L 60,105 L 60,120" style="stroke-width: 2px" stroke-width="2"/><path fill="#c7e9f1" stroke="#29abca" d="M 60,105 L 67.5,97.5" style="stroke-width: 2px" stroke-width="2"/><path fill="#c7e9f1" stroke="#29abca" d="M 45,90 L 45,105 L 60,105 L 67.5,97.5 L 67.5,82.5 L 52.5,82.5 Z" style="stroke-width: 2px" stroke-width="2"/><path fill="#c7e9f1" stroke="#29abca" d="M 45,90 L 60,90 L 60,105" style="stroke-width: 2px" stroke-width="2"/><path fill="#c7e9f1" stroke="#29abca" d="M 60,90 L 67.5,82.5" style="stroke-width: 2px" stroke-width="2"/><path fill="#c7e9f1" stroke="#29abca" d="M 45,75 L 45,90 L 60,90 L 67.5,82.5 L 67.5,67.5 L 52.5,67.5 Z" style="stroke-width: 2px" stroke-width="2"/><path fill="#c7e9f1" stroke="#29abca" d="M 45,75 L 60,75 L 60,90" style="stroke-width: 2px" stroke-width="2"/><path fill="#c7e9f1" stroke="#29abca" d="M 60,75 L 67.5,67.5" style="stroke-width: 2px" stroke-width="2"/><path fill="#c7e9f1" stroke="#29abca" d="M 45,60 L 45,75 L 60,75 L 67.5,67.5 L 67.5,52.5 L 52.5,52.5 Z" style="stroke-width: 2px" stroke-width="2"/><path fill="#c7e9f1" stroke="#29abca" d="M 45,60 L 60,60 L 60,75" style="stroke-width: 2px" stroke-width="2"/><path fill="#c7e9f1" stroke="#29abca" d="M 60,60 L 67.5,52.5" style="stroke-width: 2px" stroke-width="2"/><path fill="#c7e9f1" stroke="#29abca" d="M 45,45 L 45,60 L 60,60 L 67.5,52.5 L 67.5,37.5 L 52.5,37.5 Z" style="stroke-width: 2px" stroke-width="2"/><path fill="#c7e9f1" stroke="#29abca" d="M 45,45 L 60,45 L 60,60" style="stroke-width: 2px" stroke-width="2"/><path fill="#c7e9f1" stroke="#29abca" d="M 60,45 L 67.5,37.5" style="stroke-width: 2px" stroke-width="2"/><path fill="#c7e9f1" stroke="#29abca" d="M 45,30 L 45,45 L 60,45 L 67.5,37.5 L 67.5,22.5 L 52.5,22.5 Z" style="stroke-width: 2px" stroke-width="2"/><path fill="#c7e9f1" stroke="#29abca" d="M 45,30 L 60,30 L 60,45" style="stroke-width: 2px" stroke-width="2"/><path fill="#c7e9f1" stroke="#29abca" d="M 60,30 L 67.5,22.5" style="stroke-width: 2px" stroke-width="2"/><path fill="#c7e9f1" stroke="#29abca" d="M 45,15 L 45,30 L 60,30 L 67.5,22.5 L 67.5,7.5 L 52.5,7.5 Z" style="stroke-width: 2px" stroke-width="2"/><path fill="#c7e9f1" stroke="#29abca" d="M 45,15 L 60,15 L 60,30" style="stroke-width: 2px" stroke-width="2"/><path fill="#c7e9f1" stroke="#29abca" d="M 60,15 L 67.5,7.5" style="stroke-width: 2px" stroke-width="2"/><path fill="#c7e9f1" stroke="#29abca" d="M 75,150 L 75,165 L 90,165 L 97.5,157.5 L 97.5,142.5 L 82.5,142.5 Z" style="stroke-width: 2px" stroke-width="2"/><path fill="#c7e9f1" stroke="#29abca" d="M 75,150 L 90,150 L 90,165" style="stroke-width: 2px" stroke-width="2"/><path fill="#c7e9f1" stroke="#29abca" d="M 90,150 L 97.5,142.5" style="stroke-width: 2px" stroke-width="2"/><path fill="#c7e9f1" stroke="#29abca" d="M 75,135 L 75,150 L 90,150 L 97.5,142.5 L 97.5,127.5 L 82.5,127.5 Z" style="stroke-width: 2px" stroke-width="2"/><path fill="#c7e9f1" stroke="#29abca" d="M 75,135 L 90,135 L 90,150" style="stroke-width: 2px" stroke-width="2"/><path fill="#c7e9f1" stroke="#29abca" d="M 90,135 L 97.5,127.5" style="stroke-width: 2px" stroke-width="2"/><path fill="#c7e9f1" stroke="#29abca" d="M 75,120 L 75,135 L 90,135 L 97.5,127.5 L 97.5,112.5 L 82.5,112.5 Z" style="stroke-width: 2px" stroke-width="2"/><path fill="#c7e9f1" stroke="#29abca" d="M 75,120 L 90,120 L 90,135" style="stroke-width: 2px" stroke-width="2"/><path fill="#c7e9f1" stroke="#29abca" d="M 90,120 L 97.5,112.5" style="stroke-width: 2px" stroke-width="2"/><path fill="#c7e9f1" stroke="#29abca" d="M 75,105 L 75,120 L 90,120 L 97.5,112.5 L 97.5,97.5 L 82.5,97.5 Z" style="stroke-width: 2px" stroke-width="2"/><path fill="#c7e9f1" stroke="#29abca" d="M 75,105 L 90,105 L 90,120" style="stroke-width: 2px" stroke-width="2"/><path fill="#c7e9f1" stroke="#29abca" d="M 90,105 L 97.5,97.5" style="stroke-width: 2px" stroke-width="2"/><path fill="#c7e9f1" stroke="#29abca" d="M 75,90 L 75,105 L 90,105 L 97.5,97.5 L 97.5,82.5 L 82.5,82.5 Z" style="stroke-width: 2px" stroke-width="2"/><path fill="#c7e9f1" stroke="#29abca" d="M 75,90 L 90,90 L 90,105" style="stroke-width: 2px" stroke-width="2"/><path fill="#c7e9f1" stroke="#29abca" d="M 90,90 L 97.5,82.5" style="stroke-width: 2px" stroke-width="2"/><path fill="#c7e9f1" stroke="#29abca" d="M 75,75 L 75,90 L 90,90 L 97.5,82.5 L 97.5,67.5 L 82.5,67.5 Z" style="stroke-width: 2px" stroke-width="2"/><path fill="#c7e9f1" stroke="#29abca" d="M 75,75 L 90,75 L 90,90" style="stroke-width: 2px" stroke-width="2"/><path fill="#c7e9f1" stroke="#29abca" d="M 90,75 L 97.5,67.5" style="stroke-width: 2px" stroke-width="2"/><path fill="#c7e9f1" stroke="#29abca" d="M 75,60 L 75,75 L 90,75 L 97.5,67.5 L 97.5,52.5 L 82.5,52.5 Z" style="stroke-width: 2px" stroke-width="2"/><path fill="#c7e9f1" stroke="#29abca" d="M 75,60 L 90,60 L 90,75" style="stroke-width: 2px" stroke-width="2"/><path fill="#c7e9f1" stroke="#29abca" d="M 90,60 L 97.5,52.5" style="stroke-width: 2px" stroke-width="2"/><path fill="#c7e9f1" stroke="#29abca" d="M 75,45 L 75,60 L 90,60 L 97.5,52.5 L 97.5,37.5 L 82.5,37.5 Z" style="stroke-width: 2px" stroke-width="2"/><path fill="#c7e9f1" stroke="#29abca" d="M 75,45 L 90,45 L 90,60" style="stroke-width: 2px" stroke-width="2"/><path fill="#c7e9f1" stroke="#29abca" d="M 90,45 L 97.5,37.5" style="stroke-width: 2px" stroke-width="2"/><path fill="#c7e9f1" stroke="#29abca" d="M 75,30 L 75,45 L 90,45 L 97.5,37.5 L 97.5,22.5 L 82.5,22.5 Z" style="stroke-width: 2px" stroke-width="2"/><path fill="#c7e9f1" stroke="#29abca" d="M 75,30 L 90,30 L 90,45" style="stroke-width: 2px" stroke-width="2"/><path fill="#c7e9f1" stroke="#29abca" d="M 90,30 L 97.5,22.5" style="stroke-width: 2px" stroke-width="2"/><path fill="#c7e9f1" stroke="#29abca" d="M 75,15 L 75,30 L 90,30 L 97.5,22.5 L 97.5,7.5 L 82.5,7.5 Z" style="stroke-width: 2px" stroke-width="2"/><path fill="#c7e9f1" stroke="#29abca" d="M 75,15 L 90,15 L 90,30" style="stroke-width: 2px" stroke-width="2"/><path fill="#c7e9f1" stroke="#29abca" d="M 90,15 L 97.5,7.5" style="stroke-width: 2px" stroke-width="2"/><path fill="#c7e9f1" stroke="#29abca" d="M 105,150 L 105,165 L 120,165 L 127.5,157.5 L 127.5,142.5 L 112.5,142.5 Z" style="stroke-width: 2px" stroke-width="2"/><path fill="#c7e9f1" stroke="#29abca" d="M 105,150 L 120,150 L 120,165" style="stroke-width: 2px" stroke-width="2"/><path fill="#c7e9f1" stroke="#29abca" d="M 120,150 L 127.5,142.5" style="stroke-width: 2px" stroke-width="2"/><path fill="#c7e9f1" stroke="#29abca" d="M 105,135 L 105,150 L 120,150 L 127.5,142.5 L 127.5,127.5 L 112.5,127.5 Z" style="stroke-width: 2px" stroke-width="2"/><path fill="#c7e9f1" stroke="#29abca" d="M 105,135 L 120,135 L 120,150" style="stroke-width: 2px" stroke-width="2"/><path fill="#c7e9f1" stroke="#29abca" d="M 120,135 L 127.5,127.5" style="stroke-width: 2px" stroke-width="2"/><path fill="#c7e9f1" stroke="#29abca" d="M 105,120 L 105,135 L 120,135 L 127.5,127.5 L 127.5,112.5 L 112.5,112.5 Z" style="stroke-width: 2px" stroke-width="2"/><path fill="#c7e9f1" stroke="#29abca" d="M 105,120 L 120,120 L 120,135" style="stroke-width: 2px" stroke-width="2"/><path fill="#c7e9f1" stroke="#29abca" d="M 120,120 L 127.5,112.5" style="stroke-width: 2px" stroke-width="2"/><path fill="#c7e9f1" stroke="#29abca" d="M 105,105 L 105,120 L 120,120 L 127.5,112.5 L 127.5,97.5 L 112.5,97.5 Z" style="stroke-width: 2px" stroke-width="2"/><path fill="#c7e9f1" stroke="#29abca" d="M 105,105 L 120,105 L 120,120" style="stroke-width: 2px" stroke-width="2"/><path fill="#c7e9f1" stroke="#29abca" d="M 120,105 L 127.5,97.5" style="stroke-width: 2px" stroke-width="2"/><path fill="#c7e9f1" stroke="#29abca" d="M 105,90 L 105,105 L 120,105 L 127.5,97.5 L 127.5,82.5 L 112.5,82.5 Z" style="stroke-width: 2px" stroke-width="2"/><path fill="#c7e9f1" stroke="#29abca" d="M 105,90 L 120,90 L 120,105" style="stroke-width: 2px" stroke-width="2"/><path fill="#c7e9f1" stroke="#29abca" d="M 120,90 L 127.5,82.5" style="stroke-width: 2px" stroke-width="2"/><path fill="#c7e9f1" stroke="#29abca" d="M 105,75 L 105,90 L 120,90 L 127.5,82.5 L 127.5,67.5 L 112.5,67.5 Z" style="stroke-width: 2px" stroke-width="2"/><path fill="#c7e9f1" stroke="#29abca" d="M 105,75 L 120,75 L 120,90" style="stroke-width: 2px" stroke-width="2"/><path fill="#c7e9f1" stroke="#29abca" d="M 120,75 L 127.5,67.5" style="stroke-width: 2px" stroke-width="2"/><path fill="#c7e9f1" stroke="#29abca" d="M 105,60 L 105,75 L 120,75 L 127.5,67.5 L 127.5,52.5 L 112.5,52.5 Z" style="stroke-width: 2px" stroke-width="2"/><path fill="#c7e9f1" stroke="#29abca" d="M 105,60 L 120,60 L 120,75" style="stroke-width: 2px" stroke-width="2"/><path fill="#c7e9f1" stroke="#29abca" d="M 120,60 L 127.5,52.5" style="stroke-width: 2px" stroke-width="2"/><path fill="#c7e9f1" stroke="#29abca" d="M 105,45 L 105,60 L 120,60 L 127.5,52.5 L 127.5,37.5 L 112.5,37.5 Z" style="stroke-width: 2px" stroke-width="2"/><path fill="#c7e9f1" stroke="#29abca" d="M 105,45 L 120,45 L 120,60" style="stroke-width: 2px" stroke-width="2"/><path fill="#c7e9f1" stroke="#29abca" d="M 120,45 L 127.5,37.5" style="stroke-width: 2px" stroke-width="2"/><path fill="#c7e9f1" stroke="#29abca" d="M 105,30 L 105,45 L 120,45 L 127.5,37.5 L 127.5,22.5 L 112.5,22.5 Z" style="stroke-width: 2px" stroke-width="2"/><path fill="#c7e9f1" stroke="#29abca" d="M 105,30 L 120,30 L 120,45" style="stroke-width: 2px" stroke-width="2"/><path fill="#c7e9f1" stroke="#29abca" d="M 120,30 L 127.5,22.5" style="stroke-width: 2px" stroke-width="2"/><path fill="#c7e9f1" stroke="#29abca" d="M 105,15 L 105,30 L 120,30 L 127.5,22.5 L 127.5,7.5 L 112.5,7.5 Z" style="stroke-width: 2px" stroke-width="2"/><path fill="#c7e9f1" stroke="#29abca" d="M 105,15 L 120,15 L 120,30" style="stroke-width: 2px" stroke-width="2"/><path fill="#c7e9f1" stroke="#29abca" d="M 120,15 L 127.5,7.5" style="stroke-width: 2px" stroke-width="2"/><path fill="#c7e9f1" stroke="#29abca" d="M 135,150 L 135,165 L 150,165 L 157.5,157.5 L 157.5,142.5 L 142.5,142.5 Z" style="stroke-width: 2px" stroke-width="2"/><path fill="#c7e9f1" stroke="#29abca" d="M 135,150 L 150,150 L 150,165" style="stroke-width: 2px" stroke-width="2"/><path fill="#c7e9f1" stroke="#29abca" d="M 150,150 L 157.5,142.5" style="stroke-width: 2px" stroke-width="2"/><path fill="#c7e9f1" stroke="#29abca" d="M 135,135 L 135,150 L 150,150 L 157.5,142.5 L 157.5,127.5 L 142.5,127.5 Z" style="stroke-width: 2px" stroke-width="2"/><path fill="#c7e9f1" stroke="#29abca" d="M 135,135 L 150,135 L 150,150" style="stroke-width: 2px" stroke-width="2"/><path fill="#c7e9f1" stroke="#29abca" d="M 150,135 L 157.5,127.5" style="stroke-width: 2px" stroke-width="2"/><path fill="#c7e9f1" stroke="#29abca" d="M 135,120 L 135,135 L 150,135 L 157.5,127.5 L 157.5,112.5 L 142.5,112.5 Z" style="stroke-width: 2px" stroke-width="2"/><path fill="#c7e9f1" stroke="#29abca" d="M 135,120 L 150,120 L 150,135" style="stroke-width: 2px" stroke-width="2"/><path fill="#c7e9f1" stroke="#29abca" d="M 150,120 L 157.5,112.5" style="stroke-width: 2px" stroke-width="2"/><path fill="#c7e9f1" stroke="#29abca" d="M 135,105 L 135,120 L 150,120 L 157.5,112.5 L 157.5,97.5 L 142.5,97.5 Z" style="stroke-width: 2px" stroke-width="2"/><path fill="#c7e9f1" stroke="#29abca" d="M 135,105 L 150,105 L 150,120" style="stroke-width: 2px" stroke-width="2"/><path fill="#c7e9f1" stroke="#29abca" d="M 150,105 L 157.5,97.5" style="stroke-width: 2px" stroke-width="2"/><path fill="#c7e9f1" stroke="#29abca" d="M 135,90 L 135,105 L 150,105 L 157.5,97.5 L 157.5,82.5 L 142.5,82.5 Z" style="stroke-width: 2px" stroke-width="2"/><path fill="#c7e9f1" stroke="#29abca" d="M 135,90 L 150,90 L 150,105" style="stroke-width: 2px" stroke-width="2"/><path fill="#c7e9f1" stroke="#29abca" d="M 150,90 L 157.5,82.5" style="stroke-width: 2px" stroke-width="2"/><path fill="#c7e9f1" stroke="#29abca" d="M 135,75 L 135,90 L 150,90 L 157.5,82.5 L 157.5,67.5 L 142.5,67.5 Z" style="stroke-width: 2px" stroke-width="2"/><path fill="#c7e9f1" stroke="#29abca" d="M 135,75 L 150,75 L 150,90" style="stroke-width: 2px" stroke-width="2"/><path fill="#c7e9f1" stroke="#29abca" d="M 150,75 L 157.5,67.5" style="stroke-width: 2px" stroke-width="2"/><path fill="#c7e9f1" stroke="#29abca" d="M 135,60 L 135,75 L 150,75 L 157.5,67.5 L 157.5,52.5 L 142.5,52.5 Z" style="stroke-width: 2px" stroke-width="2"/><path fill="#c7e9f1" stroke="#29abca" d="M 135,60 L 150,60 L 150,75" style="stroke-width: 2px" stroke-width="2"/><path fill="#c7e9f1" stroke="#29abca" d="M 150,60 L 157.5,52.5" style="stroke-width: 2px" stroke-width="2"/><path fill="#c7e9f1" stroke="#29abca" d="M 135,45 L 135,60 L 150,60 L 157.5,52.5 L 157.5,37.5 L 142.5,37.5 Z" style="stroke-width: 2px" stroke-width="2"/><path fill="#c7e9f1" stroke="#29abca" d="M 135,45 L 150,45 L 150,60" style="stroke-width: 2px" stroke-width="2"/><path fill="#c7e9f1" stroke="#29abca" d="M 150,45 L 157.5,37.5" style="stroke-width: 2px" stroke-width="2"/><path fill="#c7e9f1" stroke="#29abca" d="M 135,30 L 135,45 L 150,45 L 157.5,37.5 L 157.5,22.5 L 142.5,22.5 Z" style="stroke-width: 2px" stroke-width="2"/><path fill="#c7e9f1" stroke="#29abca" d="M 135,30 L 150,30 L 150,45" style="stroke-width: 2px" stroke-width="2"/><path fill="#c7e9f1" stroke="#29abca" d="M 150,30 L 157.5,22.5" style="stroke-width: 2px" stroke-width="2"/><path fill="#c7e9f1" stroke="#29abca" d="M 135,15 L 135,30 L 150,30 L 157.5,22.5 L 157.5,7.5 L 142.5,7.5 Z" style="stroke-width: 2px" stroke-width="2"/><path fill="#c7e9f1" stroke="#29abca" d="M 135,15 L 150,15 L 150,30" style="stroke-width: 2px" stroke-width="2"/><path fill="#c7e9f1" stroke="#29abca" d="M 150,15 L 157.5,7.5" style="stroke-width: 2px" stroke-width="2"/><path fill="#c7e9f1" stroke="#29abca" d="M 165,150 L 165,165 L 180,165 L 187.5,157.5 L 187.5,142.5 L 172.5,142.5 Z" style="stroke-width: 2px" stroke-width="2"/><path fill="#c7e9f1" stroke="#29abca" d="M 165,150 L 180,150 L 180,165" style="stroke-width: 2px" stroke-width="2"/><path fill="#c7e9f1" stroke="#29abca" d="M 180,150 L 187.5,142.5" style="stroke-width: 2px" stroke-width="2"/><path fill="#c7e9f1" stroke="#29abca" d="M 165,135 L 165,150 L 180,150 L 187.5,142.5 L 187.5,127.5 L 172.5,127.5 Z" style="stroke-width: 2px" stroke-width="2"/><path fill="#c7e9f1" stroke="#29abca" d="M 165,135 L 180,135 L 180,150" style="stroke-width: 2px" stroke-width="2"/><path fill="#c7e9f1" stroke="#29abca" d="M 180,135 L 187.5,127.5" style="stroke-width: 2px" stroke-width="2"/><path fill="#c7e9f1" stroke="#29abca" d="M 165,120 L 165,135 L 180,135 L 187.5,127.5 L 187.5,112.5 L 172.5,112.5 Z" style="stroke-width: 2px" stroke-width="2"/><path fill="#c7e9f1" stroke="#29abca" d="M 165,120 L 180,120 L 180,135" style="stroke-width: 2px" stroke-width="2"/><path fill="#c7e9f1" stroke="#29abca" d="M 180,120 L 187.5,112.5" style="stroke-width: 2px" stroke-width="2"/><path fill="#c7e9f1" stroke="#29abca" d="M 165,105 L 165,120 L 180,120 L 187.5,112.5 L 187.5,97.5 L 172.5,97.5 Z" style="stroke-width: 2px" stroke-width="2"/><path fill="#c7e9f1" stroke="#29abca" d="M 165,105 L 180,105 L 180,120" style="stroke-width: 2px" stroke-width="2"/><path fill="#c7e9f1" stroke="#29abca" d="M 180,105 L 187.5,97.5" style="stroke-width: 2px" stroke-width="2"/><path fill="#c7e9f1" stroke="#29abca" d="M 165,90 L 165,105 L 180,105 L 187.5,97.5 L 187.5,82.5 L 172.5,82.5 Z" style="stroke-width: 2px" stroke-width="2"/><path fill="#c7e9f1" stroke="#29abca" d="M 165,90 L 180,90 L 180,105" style="stroke-width: 2px" stroke-width="2"/><path fill="#c7e9f1" stroke="#29abca" d="M 180,90 L 187.5,82.5" style="stroke-width: 2px" stroke-width="2"/><path fill="#c7e9f1" stroke="#29abca" d="M 165,75 L 165,90 L 180,90 L 187.5,82.5 L 187.5,67.5 L 172.5,67.5 Z" style="stroke-width: 2px" stroke-width="2"/><path fill="#c7e9f1" stroke="#29abca" d="M 165,75 L 180,75 L 180,90" style="stroke-width: 2px" stroke-width="2"/><path fill="#c7e9f1" stroke="#29abca" d="M 180,75 L 187.5,67.5" style="stroke-width: 2px" stroke-width="2"/><path fill="#c7e9f1" stroke="#29abca" d="M 165,60 L 165,75 L 180,75 L 187.5,67.5 L 187.5,52.5 L 172.5,52.5 Z" style="stroke-width: 2px" stroke-width="2"/><path fill="#c7e9f1" stroke="#29abca" d="M 165,60 L 180,60 L 180,75" style="stroke-width: 2px" stroke-width="2"/><path fill="#c7e9f1" stroke="#29abca" d="M 180,60 L 187.5,52.5" style="stroke-width: 2px" stroke-width="2"/><path fill="#c7e9f1" stroke="#29abca" d="M 165,45 L 165,60 L 180,60 L 187.5,52.5 L 187.5,37.5 L 172.5,37.5 Z" style="stroke-width: 2px" stroke-width="2"/><path fill="#c7e9f1" stroke="#29abca" d="M 165,45 L 180,45 L 180,60" style="stroke-width: 2px" stroke-width="2"/><path fill="#c7e9f1" stroke="#29abca" d="M 180,45 L 187.5,37.5" style="stroke-width: 2px" stroke-width="2"/><path fill="#c7e9f1" stroke="#29abca" d="M 165,30 L 165,45 L 180,45 L 187.5,37.5 L 187.5,22.5 L 172.5,22.5 Z" style="stroke-width: 2px" stroke-width="2"/><path fill="#c7e9f1" stroke="#29abca" d="M 165,30 L 180,30 L 180,45" style="stroke-width: 2px" stroke-width="2"/><path fill="#c7e9f1" stroke="#29abca" d="M 180,30 L 187.5,22.5" style="stroke-width: 2px" stroke-width="2"/><path fill="#c7e9f1" stroke="#29abca" d="M 165,15 L 165,30 L 180,30 L 187.5,22.5 L 187.5,7.5 L 172.5,7.5 Z" style="stroke-width: 2px" stroke-width="2"/><path fill="#c7e9f1" stroke="#29abca" d="M 165,15 L 180,15 L 180,30" style="stroke-width: 2px" stroke-width="2"/><path fill="#c7e9f1" stroke="#29abca" d="M 180,15 L 187.5,7.5" style="stroke-width: 2px" stroke-width="2"/><path fill="#c7e9f1" stroke="#29abca" d="M 195,150 L 195,165 L 210,165 L 217.5,157.5 L 217.5,142.5 L 202.5,142.5 Z" style="stroke-width: 2px" stroke-width="2"/><path fill="#c7e9f1" stroke="#29abca" d="M 195,150 L 210,150 L 210,165" style="stroke-width: 2px" stroke-width="2"/><path fill="#c7e9f1" stroke="#29abca" d="M 210,150 L 217.5,142.5" style="stroke-width: 2px" stroke-width="2"/><path fill="#c7e9f1" stroke="#29abca" d="M 195,135 L 195,150 L 210,150 L 217.5,142.5 L 217.5,127.5 L 202.5,127.5 Z" style="stroke-width: 2px" stroke-width="2"/><path fill="#c7e9f1" stroke="#29abca" d="M 195,135 L 210,135 L 210,150" style="stroke-width: 2px" stroke-width="2"/><path fill="#c7e9f1" stroke="#29abca" d="M 210,135 L 217.5,127.5" style="stroke-width: 2px" stroke-width="2"/><path fill="#c7e9f1" stroke="#29abca" d="M 195,120 L 195,135 L 210,135 L 217.5,127.5 L 217.5,112.5 L 202.5,112.5 Z" style="stroke-width: 2px" stroke-width="2"/><path fill="#c7e9f1" stroke="#29abca" d="M 195,120 L 210,120 L 210,135" style="stroke-width: 2px" stroke-width="2"/><path fill="#c7e9f1" stroke="#29abca" d="M 210,120 L 217.5,112.5" style="stroke-width: 2px" stroke-width="2"/><path fill="#c7e9f1" stroke="#29abca" d="M 195,105 L 195,120 L 210,120 L 217.5,112.5 L 217.5,97.5 L 202.5,97.5 Z" style="stroke-width: 2px" stroke-width="2"/><path fill="#c7e9f1" stroke="#29abca" d="M 195,105 L 210,105 L 210,120" style="stroke-width: 2px" stroke-width="2"/><path fill="#c7e9f1" stroke="#29abca" d="M 210,105 L 217.5,97.5" style="stroke-width: 2px" stroke-width="2"/></svg>