<svg xmlns="http://www.w3.org/2000/svg" version="1.1" width="105" height="172.5" viewBox="0 0 105 172.5"><defs/><path fill="#c7e9f1" stroke="#29abca" d="M 15,150 L 15,165 L 30,165 L 37.5,157.5 L 37.5,142.5 L 22.5,142.5 Z" style="stroke-width: 2px" stroke-width="2"/><path fill="#c7e9f1" stroke="#29abca" d="M 15,150 L 30,150 L 30,165" style="stroke-width: 2px" stroke-width="2"/><path fill="#c7e9f1" stroke="#29abca" d="M 30,150 L 37.5,142.5" style="stroke-width: 2px" stroke-width="2"/><path fill="#c7e9f1" stroke="#29abca" d="M 15,135 L 15,150 L 30,150 L 37.5,142.5 L 37.5,127.5 L 22.5,127.5 Z" style="stroke-width: 2px" stroke-width="2"/><path fill="#c7e9f1" stroke="#29abca" d="M 15,135 L 30,135 L 30,150" style="stroke-width: 2px" stroke-width="2"/><path fill="#c7e9f1" stroke="#29abca" d="M 30,135 L 37.5,127.5" style="stroke-width: 2px" stroke-width="2"/><path fill="#c7e9f1" stroke="#29abca" d="M 15,120 L 15,135 L 30,135 L 37.5,127.5 L 37.5,112.5 L 22.5,112.5 Z" style="stroke-width: 2px" stroke-width="2"/><path fill="#c7e9f1" stroke="#29abca" d="M 15,120 L 30,120 L 30,135" style="stroke-width: 2px" stroke-width="2"/><path fill="#c7e9f1" stroke="#29abca" d="M 30,120 L 37.5,112.5" style="stroke-width: 2px" stroke-width="2"/><path fill="#c7e9f1" stroke="#29abca" d="M 15,105 L 15,120 L 30,120 L 37.5,112.5 L 37.5,97.5 L 22.5,97.5 Z" style="stroke-width: 2px" stroke-width="2"/><path fill="#c7e9f1" stroke="#29abca" d="M 15,105 L 30,105 L 30,120" style="stroke-width: 2px" stroke-width="2"/><path fill="#c7e9f1" stroke="#29abca" d="M 30,105 L 37.5,97.5" style="stroke-width: 2px" stroke-width="2"/><path fill="#c7e9f1" stroke="#29abca" d="M 15,90 L 15,105 L 30,105 L 37.5,97.5 L 37.5,82.5 L 22.5,82.5 Z" style="stroke-width: 2px" stroke-width="2"/><path fill="#c7e9f1" stroke="#29abca" d="M 15,90 L 30,90 L 30,105" style="stroke-width: 2px" stroke-width="2"/><path fill="#c7e9f1" stroke="#29abca" d="M 30,90 L 37.5,82.5" style="stroke-width: 2px" stroke-width="2"/><path fill="#c7e9f1" stroke="#29abca" d="M 15,75 L 15,90 L 30,90 L 37.5,82.5 L 37.5,67.5 L 22.5,67.5 Z" style="stroke-width: 2px" stroke-width="2"/><path fill="#c7e9f1" stroke="#29abca" d="M 15,75 L 30,75 L 30,90" style="stroke-width: 2px" stroke-width="2"/><path fill="#c7e9f1" stroke="#29abca" d="M 30,75 L 37.5,67.5" style="stroke-width: 2px" stroke-width="2"/><path fill="#c7e9f1" stroke="#29abca" d="M 15,60 L 15,75 L 30,75 L 37.5,67.5 L 37.5,52.5 L 22.5,52.5 Z" style="stroke-width: 2px" stroke-width="2"/><path fill="#c7e9f1" stroke="#29abca" d="M 15,60 L 30,60 L 30,75" style="stroke-width: 2px" stroke-width="2"/><path fill="#c7e9f1" stroke="#29abca" d="M 30,60 L 37.5,52.5" style="stroke-width: 2px" stroke-width="2"/><path fill="#c7e9f1" stroke="#29abca" d="M 15,45 L 15,60 L 30,60 L 37.5,52.5 L 37.5,37.5 L 22.5,37.5 Z" style="stroke-width: 2px" stroke-width="2"/><path fill="#c7e9f1" stroke="#29abca" d="M 15,45 L 30,45 L 30,60" style="stroke-width: 2px" stroke-width="2"/><path fill="#c7e9f1" stroke="#29abca" d="M 30,45 L 37.5,37.5" style="stroke-width: 2px" stroke-width="2"/><path fill="#c7e9f1" stroke="#29abca" d="M 15,30 L 15,45 L 30,45 L 37.5,37.5 L 37.5,22.5 L 22.5,22.5 Z" style="stroke-width: 2px" stroke-width="2"/><path fill="#c7e9f1" stroke="#29abca" d="M 15,30 L 30,30 L 30,45" style="stroke-width: 2px" stroke-width="2"/><path fill="#c7e9f1" stroke="#29abca" d="M 30,30 L 37.5,22.5" style="stroke-width: 2px" stroke-width="2"/><path fill="#c7e9f1" stroke="#29abca" d="M 15,15 L 15,30 L 30,30 L 37.5,22.5 L 37.5,7.5 L 22.5,7.5 Z" style="stroke-width: 2px" stroke-width="2"/><path fill="#c7e9f1" stroke="#29abca" d="M 15,15 L 30,15 L 30,30" style="stroke-width: 2px" stroke-width="2"/><path fill="#c7e9f1" stroke="#29abca" d="M 30,15 L 37.5,7.5" style="stroke-width: 2px" stroke-width="2"/><path fill="#c7e9f1" stroke="#29abca" d="M 45,150 L 45,165 L 60,165 L 67.5,157.5 L 67.5,142.5 L 52.5,142.5 Z" style="stroke-width: 2px" stroke-width="2"/><path fill="#c7e9f1" stroke="#29abca" d="M 45,150 L 60,150 L 60,165" style="stroke-width: 2px" stroke-width="2"/><path fill="#c7e9f1" stroke="#29abca" d="M 60,150 L 67.5,142.5" style="stroke-width: 2px" stroke-width="2"/><path fill="#c7e9f1" stroke="#29abca" d="M 45,135 L 45,150 L 60,150 L 67.5,142.5 L 67.5,127.5 L 52.5,127.5 Z" style="stroke-width: 2px" stroke-width="2"/><path fill="#c7e9f1" stroke="#29abca" d="M 45,135 L 60,135 L 60,150" style="stroke-width: 2px" stroke-width="2"/><path fill="#c7e9f1" stroke="#29abca" d="M 60,135 L 67.5,127.5" style="stroke-width: 2px" stroke-width="2"/><path fill="#c7e9f1" stroke="#29abca" d="M 45,120 L 45,135 L 60,135 L 67.5,127.5 L 67.5,112.5 L 52.5,112.5 Z" style="stroke-width: 2px" stroke-width="2"/><path fill="#c7e9f1" stroke="#29abca" d="M 45,120 L 60,120 L 60,135" style="stroke-width: 2px" stroke-width="2"/><path fill="#c7e9f1" stroke="#29abca" d="M 60,120 L 67.5,112.5" style="stroke-width: 2px" stroke-width="2"/><path fill="#c7e9f1" stroke="#29abca" d="M 45,105 L 45,120 L 60,120 L 67.5,112.5 L 67.5,97.5 L 52.5,97.5 Z" style="stroke-width: 2px" stroke-width="2"/><path fill="#c7e9f1" stroke="#29abca" d="M 45,105 L 60,105 L 60,120" style="stroke-width: 2px" stroke-width="2"/><path fill="#c7e9f1" stroke="#29abca" d="M 60,105 L 67.5,97.5" style="stroke-width: 2px" stroke-width="2"/><path fill="#c7e9f1" stroke="#29abca" d="M 45,90 L 45,105 L 60,105 L 67.5,97.5 L 67.5,82.5 L 52.5,82.5 Z" style="stroke-width: 2px" stroke-width="2"/><path fill="#c7e9f1" stroke="#29abca" d="M 45,90 L 60,90 L 60,105" style="stroke-width: 2px" stroke-width="2"/><path fill="#c7e9f1" stroke="#29abca" d="M 60,90 L 67.5,82.5" style="stroke-width: 2px" stroke-width="2"/><path fill="#c7e9f1" stroke="#29abca" d="M 45,75 L 45,90 L 60,90 L 67.5,82.5 L 67.5,67.5 L 52.5,67.5 Z" style="stroke-width: 2px" stroke-width="2"/><path fill="#c7e9f1" stroke="#29abca" d="M 45,75 L 60,75 L 60,90" style="stroke-width: 2px" stroke-width="2"/><path fill="#c7e9f1" stroke="#29abca" d="M 60,75 L 67.5,67.5" style="stroke-width: 2px" stroke-width="2"/><path fill="#c7e9f1" stroke="#29abca" d="M 45,60 L 45,75 L 60,75 L 67.5,67.5 L 67.5,52.5 L 52.5,52.5 Z" style="stroke-width: 2px" stroke-width="2"/><path fill="#c7e9f1" stroke="#29abca" d="M 45,60 L 60,60 L 60,75" style="stroke-width: 2px" stroke-width="2"/><path fill="#c7e9f1" stroke="#29abca" d="M 60,60 L 67.5,52.5" style="stroke-width: 2px" stroke-width="2"/><path fill="#c7e9f1" stroke="#29abca" d="M 45,45 L 45,60 L 60,60 L 67.5,52.5 L 67.5,37.5 L 52.5,37.5 Z" style="stroke-width: 2px" stroke-width="2"/><path fill="#c7e9f1" stroke="#29abca" d="M 45,45 L 60,45 L 60,60" style="stroke-width: 2px" stroke-width="2"/><path fill="#c7e9f1" stroke="#29abca" d="M 60,45 L 67.5,37.5" style="stroke-width: 2px" stroke-width="2"/><path fill="#c7e9f1" stroke="#29abca" d="M 45,30 L 45,45 L 60,45 L 67.5,37.5 L 67.5,22.5 L 52.5,22.5 Z" style="stroke-width: 2px" stroke-width="2"/><path fill="#c7e9f1" stroke="#29abca" d="M 45,30 L 60,30 L 60,45" style="stroke-width: 2px" stroke-width="2"/><path fill="#c7e9f1" stroke="#29abca" d="M 60,30 L 67.5,22.5" style="stroke-width: 2px" stroke-width="2"/><path fill="#c7e9f1" stroke="#29abca" d="M 45,15 L 45,30 L 60,30 L 67.5,22.5 L 67.5,7.5 L 52.5,7.5 Z" style="stroke-width: 2px" stroke-width="2"/><path fill="#c7e9f1" stroke="#29abca" d="M 45,15 L 60,15 L 60,30" style="stroke-width: 2px" stroke-width="2"/><path fill="#c7e9f1" stroke="#29abca" d="M 60,15 L 67.5,7.5" style="stroke-width: 2px" stroke-width="2"/><path fill="#c7e9f1" stroke="#29abca" d="M 75,150 L 75,165 L 90,165 L 97.5,157.5 L 97.5,142.5 L 82.5,142.5 Z" style="stroke-width: 2px" stroke-width="2"/><path fill="#c7e9f1" stroke="#29abca" d="M 75,150 L 90,150 L 90,165" style="stroke-width: 2px" stroke-width="2"/><path fill="#c7e9f1" stroke="#29abca" d="M 90,150 L 97.5,142.5" style="stroke-width: 2px" stroke-width="2"/><path fill="#c7e9f1" stroke="#29abca" d="M 75,135 L 75,150 L 90,150 L 97.5,142.5 L 97.5,127.5 L 82.5,127.5 Z" style="stroke-width: 2px" stroke-width="2"/><path fill="#c7e9f1" stroke="#29abca" d="M 75,135 L 90,135 L 90,150" style="stroke-width: 2px" stroke-width="2"/><path fill="#c7e9f1" stroke="#29abca" d="M 90,135 L 97.5,127.5" style="stroke-width: 2px" stroke-width="2"/><path fill="#c7e9f1" stroke="#29abca" d="M 75,120 L 75,135 L 90,135 L 97.5,127.5 L 97.5,112.5 L 82.5,112.5 Z" style="stroke-width: 2px" stroke-width="2"/><path fill="#c7e9f1" stroke="#29abca" d="M 75,120 L 90,120 L 90,135" style="stroke-width: 2px" stroke-width="2"/><path fill="#c7e9f1" stroke="#29abca" d="M 90,120 L 97.5,112.5" style="stroke-width: 2px" stroke-width="2"/><path fill="#c7e9f1" stroke="#29abca" d="M 75,105 L 75,120 L 90,120 L 97.5,112.5 L 97.5,97.5 L 82.5,97.5 Z" style="stroke-width: 2px" stroke-width="2"/><path fill="#c7e9f1" stroke="#29abca" d="M 75,105 L 90,105 L 90,120" style="stroke-width: 2px" stroke-width="2"/><path fill="#c7e9f1" stroke="#29abca" d="M 90,105 L 97.5,97.5" style="stroke-width: 2px" stroke-width="2"/><path fill="#c7e9f1" stroke="#29abca" d="M 75,90 L 75,105 L 90,105 L 97.5,97.5 L 97.5,82.5 L 82.5,82.5 Z" style="stroke-width: 2px" stroke-width="2"/><path fill="#c7e9f1" stroke="#29abca" d="M 75,90 L 90,90 L 90,105" style="stroke-width: 2px" stroke-width="2"/><path fill="#c7e9f1" stroke="#29abca" d="M 90,90 L 97.5,82.5" style="stroke-width: 2px" stroke-width="2"/></svg>