<svg xmlns="http://www.w3.org/2000/svg" width="105" height="187.5" viewBox="0 0 105 187.5"><path fill="#ccfaff" stroke="#11accd" d="M15 150v15h15l7.5-7.5v-15h-15z" stroke-width="2"/><path fill="#ccfaff" stroke="#11accd" d="M15 150h15v15M30 150l7.5-7.5" stroke-width="2"/><path fill="#ccfaff" stroke="#11accd" d="M15 135v15h15l7.5-7.5v-15h-15z" stroke-width="2"/><path fill="#ccfaff" stroke="#11accd" d="M15 135h15v15M30 135l7.5-7.5" stroke-width="2"/><path fill="#ccfaff" stroke="#11accd" d="M15 120v15h15l7.5-7.5v-15h-15z" stroke-width="2"/><path fill="#ccfaff" stroke="#11accd" d="M15 120h15v15M30 120l7.5-7.5" stroke-width="2"/><path fill="#ccfaff" stroke="#11accd" d="M15 105v15h15l7.5-7.5v-15h-15z" stroke-width="2"/><path fill="#ccfaff" stroke="#11accd" d="M15 105h15v15M30 105l7.5-7.5" stroke-width="2"/><path fill="#ccfaff" stroke="#11accd" d="M15 90v15h15l7.5-7.5v-15h-15z" stroke-width="2"/><path fill="#ccfaff" stroke="#11accd" d="M15 90h15v15M30 90l7.5-7.5" stroke-width="2"/><path fill="#ccfaff" stroke="#11accd" d="M15 75v15h15l7.5-7.5v-15h-15z" stroke-width="2"/><path fill="#ccfaff" stroke="#11accd" d="M15 75h15v15M30 75l7.5-7.5" stroke-width="2"/><path fill="#ccfaff" stroke="#11accd" d="M15 60v15h15l7.5-7.5v-15h-15z" stroke-width="2"/><path fill="#ccfaff" stroke="#11accd" d="M15 60h15v15M30 60l7.5-7.5" stroke-width="2"/><path fill="#ccfaff" stroke="#11accd" d="M15 45v15h15l7.5-7.5v-15h-15z" stroke-width="2"/><path fill="#ccfaff" stroke="#11accd" d="M15 45h15v15M30 45l7.5-7.5" stroke-width="2"/><path fill="#ccfaff" stroke="#11accd" d="M15 30v15h15l7.5-7.5v-15h-15z" stroke-width="2"/><path fill="#ccfaff" stroke="#11accd" d="M15 30h15v15M30 30l7.5-7.5" stroke-width="2"/><path fill="#ccfaff" stroke="#11accd" d="M15 15v15h15l7.5-7.5v-15h-15z" stroke-width="2"/><path fill="#ccfaff" stroke="#11accd" d="M15 15h15v15M30 15l7.5-7.5M45 150v15h15l7.5-7.5v-15h-15z" stroke-width="2"/><path fill="#ccfaff" stroke="#11accd" d="M45 150h15v15M60 150l7.5-7.5" stroke-width="2"/><path fill="#ccfaff" stroke="#11accd" d="M45 135v15h15l7.5-7.5v-15h-15z" stroke-width="2"/><path fill="#ccfaff" stroke="#11accd" d="M45 135h15v15M60 135l7.5-7.5" stroke-width="2"/><path fill="#ccfaff" stroke="#11accd" d="M45 120v15h15l7.5-7.5v-15h-15z" stroke-width="2"/><path fill="#ccfaff" stroke="#11accd" d="M45 120h15v15M60 120l7.5-7.5" stroke-width="2"/><path fill="#ccfaff" stroke="#11accd" d="M45 105v15h15l7.5-7.5v-15h-15z" stroke-width="2"/><path fill="#ccfaff" stroke="#11accd" d="M45 105h15v15M60 105l7.5-7.5" stroke-width="2"/><path fill="#ccfaff" stroke="#11accd" d="M45 90v15h15l7.5-7.5v-15h-15z" stroke-width="2"/><path fill="#ccfaff" stroke="#11accd" d="M45 90h15v15M60 90l7.5-7.5" stroke-width="2"/><path fill="#ccfaff" stroke="#11accd" d="M45 75v15h15l7.5-7.5v-15h-15z" stroke-width="2"/><path fill="#ccfaff" stroke="#11accd" d="M45 75h15v15M60 75l7.5-7.5" stroke-width="2"/><path fill="#ccfaff" stroke="#11accd" d="M45 60v15h15l7.5-7.5v-15h-15z" stroke-width="2"/><path fill="#ccfaff" stroke="#11accd" d="M45 60h15v15M60 60l7.5-7.5" stroke-width="2"/><path fill="#ccfaff" stroke="#11accd" d="M45 45v15h15l7.5-7.5v-15h-15z" stroke-width="2"/><path fill="#ccfaff" stroke="#11accd" d="M45 45h15v15M60 45l7.5-7.5" stroke-width="2"/><path fill="#ccfaff" stroke="#11accd" d="M45 30v15h15l7.5-7.5v-15h-15z" stroke-width="2"/><path fill="#ccfaff" stroke="#11accd" d="M45 30h15v15M60 30l7.5-7.5" stroke-width="2"/><path fill="#ccfaff" stroke="#11accd" d="M45 15v15h15l7.5-7.5v-15h-15z" stroke-width="2"/><path fill="#ccfaff" stroke="#11accd" d="M45 15h15v15M60 15l7.5-7.5M75 150v15h15l7.5-7.5v-15h-15z" stroke-width="2"/><path fill="#ccfaff" stroke="#11accd" d="M75 150h15v15M90 150l7.5-7.5" stroke-width="2"/><path fill="#ccfaff" stroke="#11accd" d="M75 135v15h15l7.5-7.5v-15h-15z" stroke-width="2"/><path fill="#ccfaff" stroke="#11accd" d="M75 135h15v15M90 135l7.5-7.5" stroke-width="2"/><path fill="#ccfaff" stroke="#11accd" d="M75 120v15h15l7.5-7.5v-15h-15z" stroke-width="2"/><path fill="#ccfaff" stroke="#11accd" d="M75 120h15v15M90 120l7.5-7.5" stroke-width="2"/><path fill="#ccfaff" stroke="#11accd" d="M75 105v15h15l7.5-7.5v-15h-15z" stroke-width="2"/><path fill="#ccfaff" stroke="#11accd" d="M75 105h15v15M90 105l7.5-7.5" stroke-width="2"/><path fill="#ccfaff" stroke="#11accd" d="M75 90v15h15l7.5-7.5v-15h-15z" stroke-width="2"/><path fill="#ccfaff" stroke="#11accd" d="M75 90h15v15M90 90l7.5-7.5" stroke-width="2"/></svg>
