<svg xmlns="http://www.w3.org/2000/svg" width="200" height="169.697" viewBox="0 0 200 169.6969696969697"><path fill="#4d677a" d="M29.417 144.522s.894-.645 1.067-.546c.174.099.025.744.025.744l-1.092-.198z"/><path fill="#bdcccc" d="M30.384 148.569s.452.113.734-.113.056-.763.056-.763l-.79.876z"/><path fill="#4d677a" d="M19.513 151.647s-1.129.734-1.497 1.496c0 0 2.231-1.214 3.417-1.242 0 0-1.27-.254-1.92-.254zM22.646 143.384s2.077-2.402 3.862-2.045c0 0-1.479 1.549-1.24 2.722.007.04.016.079.03.118.367 1.184-2.652-.795-2.652-.795z"/><path fill="#7a3440" d="M18.233 148.151s-1.873 2.51-1.303 3.118c.891-.036 2.501-.664 2.501-.664l1.237-1.099-2.435-1.355z"/><path fill="#4d677a" d="M33.172 144.287c-.087-1.044.275-2.418.549-3.515l-.525-.244.709-.389a7.924 7.924 0 0 1 1.273-2.373s-1.706.753-3.035 2.117c-1.233 1.265-.675 4.575-.675 4.575s-5.17.061-9.49-1.704c-5.243-2.141-10.004-4.672-9.854-2.493.122 1.764 2.252 6.082 3.224 6.752.973.668 4.114 1.574 4.015 1.947-.303 1.155-2.736 2.006-2.433 2.31s9.49 3.711 15.086-4.501c0 0 2.236 2.795 4.348 2.768-2.242-2.216-2.639-3.244-3.192-5.25z"/><path fill="#fffdfd" d="M18.862 148.485s-.04.53.019.589c.059.06.334-.372.334-.372l-.353-.217zM18.29 148.149s-.04.53.02.589c.059.059.334-.373.334-.373l-.353-.216zM17.808 150.745s-.39-.361-.473-.351c-.083.009.084.493.084.493l.39-.142z"/><path fill="#bdcccc" d="M32.684 144.883s-1.888 4.078-7.386 3.924c-5.447-.152-10.192-5.688-11.41-7.148-.833-1-1.402-1.594-1.755-1.639-.01.073-.014.152-.008.24.121 1.765 2.25 6.083 3.225 6.752.973.669 4.112 1.575 4.013 1.947-.303 1.155-2.736 2.007-2.433 2.311.303.302 9.585 3.75 15.086-4.501.4-.978.669-1.886.669-1.886z"/><path fill="#688da7" d="M21.472 144.122s.404.991-.417 2.171c0 0 .439-1.114.417-2.171zM21.895 144.449s.404.991-.418 2.171c0 0 .44-1.114.418-2.171zM22.236 144.767s.404.99-.416 2.171c0 0 .439-1.114.416-2.171z"/><path fill="#304454" d="M23.912 150.168c-.162-1.071-.617-1.071-.714-1.915 0 0 .031-.059.065-.13 0 0 2.466 1.753 3.278 1.98 0 0 .102 2.053 1.948 2.597-.016.046-.016.088-.016.139 0 0-4.15.031-4.56-2.671z"/><path fill="#4d677a" d="M23.977 150.038c-.162-1.071-.617-1.071-.714-1.915 0 0 1.006.454 1.721.39 0 0 .811 1.233 1.622 1.461 0 0 .195 1.947 1.883 2.726 0 0-4.102.04-4.512-2.662z"/><ellipse cx="19.538" cy="144.502" rx=".323" ry=".536" fill="#304454"/><path fill="#4d677a" d="M29.417 114.219s.894-.645 1.067-.546c.174.099.025.744.025.744l-1.092-.198z"/><path fill="#bdcccc" d="M30.384 118.266s.452.113.734-.113.056-.763.056-.763l-.79.876z"/><path fill="#4d677a" d="M19.513 121.344s-1.129.734-1.497 1.496c0 0 2.231-1.214 3.417-1.242 0 0-1.27-.254-1.92-.254zM22.646 113.081s2.077-2.402 3.862-2.045c0 0-1.479 1.549-1.24 2.722.007.04.016.079.03.118.367 1.184-2.652-.795-2.652-.795z"/><path fill="#7a3440" d="M18.233 117.848s-1.873 2.51-1.303 3.118c.891-.036 2.501-.664 2.501-.664l1.237-1.099-2.435-1.355z"/><path fill="#4d677a" d="M33.172 113.984c-.087-1.044.275-2.418.549-3.515l-.525-.244.709-.389a7.924 7.924 0 0 1 1.273-2.373s-1.706.753-3.035 2.117c-1.233 1.265-.675 4.575-.675 4.575s-5.17.061-9.49-1.704c-5.243-2.141-10.004-4.672-9.854-2.493.122 1.764 2.252 6.082 3.224 6.752.973.668 4.114 1.574 4.015 1.947-.303 1.155-2.736 2.006-2.433 2.31s9.49 3.711 15.086-4.501c0 0 2.236 2.795 4.348 2.768-2.242-2.216-2.639-3.244-3.192-5.25z"/><path fill="#fffdfd" d="M18.862 118.182s-.04.53.019.589c.059.06.334-.372.334-.372l-.353-.217zM18.29 117.846s-.04.53.02.589c.059.059.334-.373.334-.373l-.353-.216zM17.808 120.442s-.39-.361-.473-.351c-.083.009.084.493.084.493l.39-.142z"/><path fill="#bdcccc" d="M32.684 114.58s-1.888 4.078-7.386 3.924c-5.447-.152-10.192-5.688-11.41-7.148-.833-1-1.402-1.594-1.755-1.639-.01.073-.014.152-.008.24.121 1.765 2.25 6.083 3.225 6.752.973.669 4.112 1.575 4.013 1.947-.303 1.155-2.736 2.007-2.433 2.311.303.302 9.585 3.75 15.086-4.501.4-.978.669-1.886.669-1.886z"/><path fill="#688da7" d="M21.472 113.819s.404.991-.417 2.171c0 0 .439-1.114.417-2.171zM21.895 114.146s.404.991-.418 2.171c0 0 .44-1.114.418-2.171zM22.236 114.464s.404.99-.416 2.171c0 0 .439-1.114.416-2.171z"/><path fill="#304454" d="M23.912 119.865c-.162-1.071-.617-1.071-.714-1.915 0 0 .031-.059.065-.13 0 0 2.466 1.753 3.278 1.98 0 0 .102 2.053 1.948 2.597-.016.046-.016.088-.016.139 0 0-4.15.031-4.56-2.671z"/><path fill="#4d677a" d="M23.977 119.735c-.162-1.071-.617-1.071-.714-1.915 0 0 1.006.454 1.721.39 0 0 .811 1.233 1.622 1.461 0 0 .195 1.947 1.883 2.726 0 0-4.102.04-4.512-2.662z"/><ellipse cx="19.538" cy="114.199" rx=".323" ry=".536" fill="#304454"/><path fill="#4d677a" d="M29.417 83.916s.894-.645 1.067-.546c.174.1.025.744.025.744l-1.092-.198z"/><path fill="#bdcccc" d="M30.384 87.963s.452.113.734-.113.056-.763.056-.763l-.79.876z"/><path fill="#4d677a" d="M19.513 91.04s-1.129.735-1.497 1.497c0 0 2.231-1.214 3.417-1.242 0 0-1.27-.254-1.92-.254zM22.646 82.778s2.077-2.402 3.862-2.045c0 0-1.479 1.55-1.24 2.722.007.04.016.08.03.118.367 1.184-2.652-.795-2.652-.795z"/><path fill="#7a3440" d="M18.233 87.545s-1.873 2.51-1.303 3.118c.891-.036 2.501-.664 2.501-.664l1.237-1.099-2.435-1.355z"/><path fill="#4d677a" d="M33.172 83.68c-.087-1.044.275-2.418.549-3.515l-.525-.244.709-.389a7.924 7.924 0 0 1 1.273-2.373s-1.706.753-3.035 2.117c-1.233 1.266-.675 4.576-.675 4.576s-5.17.06-9.49-1.705c-5.243-2.14-10.004-4.672-9.854-2.493.122 1.764 2.252 6.083 3.224 6.752.973.668 4.114 1.575 4.015 1.947-.303 1.156-2.736 2.007-2.433 2.31s9.49 3.712 15.086-4.5c0 0 2.236 2.794 4.348 2.767-2.242-2.216-2.639-3.244-3.192-5.25z"/><path fill="#fffdfd" d="M18.862 87.879s-.04.53.019.589c.059.06.334-.372.334-.372l-.353-.217zM18.29 87.543s-.04.53.02.59c.059.058.334-.374.334-.374l-.353-.216zM17.808 90.14s-.39-.362-.473-.352c-.083.01.084.493.084.493l.39-.142z"/><path fill="#bdcccc" d="M32.684 84.277s-1.888 4.078-7.386 3.924c-5.447-.152-10.192-5.688-11.41-7.148-.833-1-1.402-1.594-1.755-1.64-.01.074-.014.153-.008.24.121 1.766 2.25 6.084 3.225 6.753.973.669 4.112 1.575 4.013 1.947-.303 1.155-2.736 2.007-2.433 2.31.303.303 9.585 3.75 15.086-4.5.4-.978.669-1.886.669-1.886z"/><path fill="#688da7" d="M21.472 83.516s.404.991-.417 2.171c0 0 .439-1.114.417-2.17zM21.895 83.843s.404.991-.418 2.171c0 0 .44-1.114.418-2.17zM22.236 84.16s.404.99-.416 2.172c0 0 .439-1.114.416-2.171z"/><path fill="#304454" d="M23.912 89.562c-.162-1.07-.617-1.07-.714-1.915 0 0 .031-.059.065-.13 0 0 2.466 1.753 3.278 1.98 0 0 .102 2.053 1.948 2.597-.016.046-.016.088-.016.14 0 0-4.15.03-4.56-2.672z"/><path fill="#4d677a" d="M23.977 89.432c-.162-1.071-.617-1.071-.714-1.915 0 0 1.006.454 1.721.39 0 0 .811 1.233 1.622 1.46 0 0 .195 1.948 1.883 2.727 0 0-4.102.04-4.512-2.662z"/><ellipse cx="19.538" cy="83.896" rx=".323" ry=".536" fill="#304454"/><path fill="#4d677a" d="M29.417 53.613s.894-.645 1.067-.546c.174.1.025.744.025.744l-1.092-.198z"/><path fill="#bdcccc" d="M30.384 57.66s.452.113.734-.113.056-.763.056-.763l-.79.876z"/><path fill="#4d677a" d="M19.513 60.738s-1.129.734-1.497 1.496c0 0 2.231-1.214 3.417-1.242 0 0-1.27-.254-1.92-.254zM22.646 52.475s2.077-2.402 3.862-2.045c0 0-1.479 1.55-1.24 2.722.007.04.016.08.03.118.367 1.184-2.652-.795-2.652-.795z"/><path fill="#7a3440" d="M18.233 57.242s-1.873 2.51-1.303 3.118c.891-.036 2.501-.664 2.501-.664l1.237-1.099-2.435-1.355z"/><path fill="#4d677a" d="M33.172 53.377c-.087-1.044.275-2.418.549-3.515l-.525-.244.709-.389a7.924 7.924 0 0 1 1.273-2.373s-1.706.753-3.035 2.117c-1.233 1.265-.675 4.575-.675 4.575s-5.17.061-9.49-1.704c-5.243-2.14-10.004-4.672-9.854-2.493.122 1.764 2.252 6.082 3.224 6.752.973.668 4.114 1.574 4.015 1.947-.303 1.155-2.736 2.006-2.433 2.31s9.49 3.711 15.086-4.5c0 0 2.236 2.794 4.348 2.767-2.242-2.216-2.639-3.244-3.192-5.25z"/><path fill="#fffdfd" d="M18.862 57.576s-.04.53.019.589c.059.06.334-.372.334-.372l-.353-.217zM18.29 57.24s-.04.53.02.59c.059.058.334-.374.334-.374l-.353-.216zM17.808 59.836s-.39-.36-.473-.35c-.083.008.084.492.084.492l.39-.142z"/><path fill="#bdcccc" d="M32.684 53.974s-1.888 4.078-7.386 3.924c-5.447-.152-10.192-5.688-11.41-7.148-.833-1-1.402-1.594-1.755-1.64-.01.074-.014.153-.008.24.121 1.766 2.25 6.084 3.225 6.753.973.669 4.112 1.575 4.013 1.947-.303 1.155-2.736 2.007-2.433 2.31.303.303 9.585 3.75 15.086-4.5.4-.978.669-1.886.669-1.886z"/><path fill="#688da7" d="M21.472 53.213s.404.991-.417 2.171c0 0 .439-1.114.417-2.17zM21.895 53.54s.404.991-.418 2.171c0 0 .44-1.114.418-2.17zM22.236 53.858s.404.99-.416 2.17c0 0 .439-1.113.416-2.17z"/><path fill="#304454" d="M23.912 59.26c-.162-1.072-.617-1.072-.714-1.916 0 0 .031-.059.065-.13 0 0 2.466 1.753 3.278 1.98 0 0 .102 2.053 1.948 2.597-.016.046-.016.088-.016.14 0 0-4.15.03-4.56-2.672z"/><path fill="#4d677a" d="M23.977 59.129c-.162-1.071-.617-1.071-.714-1.915 0 0 1.006.454 1.721.39 0 0 .811 1.233 1.622 1.46 0 0 .195 1.948 1.883 2.727 0 0-4.102.04-4.512-2.662z"/><ellipse cx="19.538" cy="53.593" rx=".323" ry=".536" fill="#304454"/><path fill="#4d677a" d="M29.417 23.31s.894-.645 1.067-.546c.174.1.025.744.025.744l-1.092-.198z"/><path fill="#bdcccc" d="M30.384 27.357s.452.113.734-.113.056-.763.056-.763l-.79.876z"/><path fill="#4d677a" d="M19.513 30.434s-1.129.735-1.497 1.496c0 0 2.231-1.213 3.417-1.241 0 0-1.27-.255-1.92-.255zM22.646 22.172s2.077-2.402 3.862-2.045c0 0-1.479 1.55-1.24 2.722.007.04.016.08.03.118.367 1.184-2.652-.795-2.652-.795z"/><path fill="#7a3440" d="M18.233 26.939s-1.873 2.51-1.303 3.118c.891-.036 2.501-.664 2.501-.664l1.237-1.099-2.435-1.355z"/><path fill="#4d677a" d="M33.172 23.074c-.087-1.044.275-2.418.549-3.515l-.525-.244.709-.389a7.924 7.924 0 0 1 1.273-2.373s-1.706.753-3.035 2.117c-1.233 1.265-.675 4.575-.675 4.575s-5.17.061-9.49-1.704c-5.243-2.14-10.004-4.672-9.854-2.493.122 1.764 2.252 6.082 3.224 6.752.973.668 4.114 1.574 4.015 1.947-.303 1.155-2.736 2.006-2.433 2.31s9.49 3.711 15.086-4.5c0 0 2.236 2.794 4.348 2.767-2.242-2.216-2.639-3.244-3.192-5.25z"/><path fill="#fffdfd" d="M18.862 27.273s-.04.53.019.589c.059.06.334-.372.334-.372l-.353-.217zM18.29 26.937s-.04.53.02.59c.059.058.334-.374.334-.374l-.353-.216zM17.808 29.533s-.39-.36-.473-.35c-.083.008.084.492.084.492l.39-.142z"/><path fill="#bdcccc" d="M32.684 23.67s-1.888 4.079-7.386 3.925c-5.447-.152-10.192-5.688-11.41-7.148-.833-1-1.402-1.594-1.755-1.64-.01.074-.014.153-.008.24.121 1.766 2.25 6.084 3.225 6.753.973.669 4.112 1.575 4.013 1.947-.303 1.155-2.736 2.007-2.433 2.31.303.303 9.585 3.75 15.086-4.5.4-.978.669-1.886.669-1.886z"/><path fill="#688da7" d="M21.472 22.91s.404.991-.417 2.171c0 0 .439-1.114.417-2.17zM21.895 23.237s.404.991-.418 2.171c0 0 .44-1.114.418-2.17zM22.236 23.555s.404.99-.416 2.17c0 0 .439-1.113.416-2.17z"/><path fill="#304454" d="M23.912 28.956c-.162-1.07-.617-1.07-.714-1.915 0 0 .031-.059.065-.13 0 0 2.466 1.753 3.278 1.98 0 0 .102 2.053 1.948 2.597-.016.046-.016.088-.016.14 0 0-4.15.03-4.56-2.672z"/><path fill="#4d677a" d="M23.977 28.826c-.162-1.071-.617-1.071-.714-1.915 0 0 1.006.454 1.721.39 0 0 .811 1.233 1.622 1.46 0 0 .195 1.948 1.883 2.727 0 0-4.102.04-4.512-2.662z"/><ellipse cx="19.538" cy="23.29" rx=".323" ry=".536" fill="#304454"/><path fill="#4d677a" d="M59.72 144.522s.894-.645 1.067-.546c.174.099.025.744.025.744l-1.092-.198z"/><path fill="#bdcccc" d="M60.687 148.569s.452.113.734-.113.056-.763.056-.763l-.79.876z"/><path fill="#4d677a" d="M49.816 151.647s-1.129.734-1.497 1.496c0 0 2.231-1.214 3.417-1.242 0 0-1.27-.254-1.92-.254zM52.95 143.384s2.076-2.402 3.861-2.045c0 0-1.479 1.549-1.24 2.722.007.04.016.079.03.118.367 1.184-2.652-.795-2.652-.795z"/><path fill="#7a3440" d="M48.536 148.151s-1.873 2.51-1.303 3.118c.891-.036 2.501-.664 2.501-.664l1.237-1.099-2.435-1.355z"/><path fill="#4d677a" d="M63.474 144.287c-.086-1.044.276-2.418.55-3.515l-.526-.244.71-.389a7.924 7.924 0 0 1 1.273-2.373s-1.706.753-3.035 2.117c-1.233 1.265-.674 4.575-.674 4.575s-5.172.061-9.49-1.704c-5.243-2.141-10.004-4.672-9.854-2.493.122 1.764 2.25 6.082 3.224 6.752.972.668 4.112 1.574 4.014 1.947-.303 1.155-2.736 2.006-2.432 2.31s9.488 3.711 15.084-4.501c0 0 2.237 2.795 4.349 2.768-2.243-2.216-2.639-3.244-3.193-5.25z"/><path fill="#fffdfd" d="M49.165 148.485s-.04.53.019.589c.059.06.334-.372.334-.372l-.353-.217zM48.594 148.149s-.04.53.02.589c.058.059.333-.373.333-.373l-.353-.216zM48.111 150.745s-.39-.361-.473-.351c-.083.009.084.493.084.493l.39-.142z"/><path fill="#bdcccc" d="M62.987 144.883s-1.889 4.078-7.387 3.924c-5.447-.152-10.192-5.688-11.409-7.148-.834-1-1.403-1.594-1.755-1.639-.01.073-.014.152-.008.24.122 1.765 2.25 6.083 3.225 6.752.973.669 4.111 1.575 4.014 1.947-.305 1.155-2.738 2.007-2.434 2.311.303.302 9.585 3.75 15.086-4.501.4-.978.668-1.886.668-1.886z"/><path fill="#688da7" d="M51.775 144.122s.404.991-.417 2.171c0 0 .439-1.114.417-2.171zM52.197 144.449s.404.991-.416 2.171c0 0 .438-1.114.416-2.171zM52.54 144.767s.404.99-.417 2.171c0 0 .439-1.114.417-2.171z"/><path fill="#304454" d="M54.215 150.168c-.162-1.071-.617-1.071-.714-1.915 0 0 .031-.059.065-.13 0 0 2.466 1.753 3.278 1.98 0 0 .102 2.053 1.948 2.597-.016.046-.016.088-.016.139 0 0-4.15.031-4.56-2.671z"/><path fill="#4d677a" d="M54.28 150.038c-.162-1.071-.617-1.071-.714-1.915 0 0 1.006.454 1.721.39 0 0 .811 1.233 1.622 1.461 0 0 .195 1.947 1.883 2.726 0 0-4.102.04-4.512-2.662z"/><ellipse cx="49.841" cy="144.502" rx=".323" ry=".536" fill="#304454"/><path fill="#4d677a" d="M59.72 114.219s.894-.645 1.067-.546c.174.099.025.744.025.744l-1.092-.198z"/><path fill="#bdcccc" d="M60.687 118.266s.452.113.734-.113.056-.763.056-.763l-.79.876z"/><path fill="#4d677a" d="M49.816 121.344s-1.129.734-1.497 1.496c0 0 2.231-1.214 3.417-1.242 0 0-1.27-.254-1.92-.254zM52.95 113.081s2.076-2.402 3.861-2.045c0 0-1.479 1.549-1.24 2.722.007.04.016.079.03.118.367 1.184-2.652-.795-2.652-.795z"/><path fill="#7a3440" d="M48.536 117.848s-1.873 2.51-1.303 3.118c.891-.036 2.501-.664 2.501-.664l1.237-1.099-2.435-1.355z"/><path fill="#4d677a" d="M63.474 113.984c-.086-1.044.276-2.418.55-3.515l-.526-.244.71-.389a7.924 7.924 0 0 1 1.273-2.373s-1.706.753-3.035 2.117c-1.233 1.265-.674 4.575-.674 4.575s-5.172.061-9.49-1.704c-5.243-2.141-10.004-4.672-9.854-2.493.122 1.764 2.25 6.082 3.224 6.752.972.668 4.112 1.574 4.014 1.947-.303 1.155-2.736 2.006-2.432 2.31s9.488 3.711 15.084-4.501c0 0 2.237 2.795 4.349 2.768-2.243-2.216-2.639-3.244-3.193-5.25z"/><path fill="#fffdfd" d="M49.165 118.182s-.04.53.019.589c.059.06.334-.372.334-.372l-.353-.217zM48.594 117.846s-.04.53.02.589c.058.059.333-.373.333-.373l-.353-.216zM48.111 120.442s-.39-.361-.473-.351c-.083.009.084.493.084.493l.39-.142z"/><path fill="#bdcccc" d="M62.987 114.58s-1.889 4.078-7.387 3.924c-5.447-.152-10.192-5.688-11.409-7.148-.834-1-1.403-1.594-1.755-1.639-.01.073-.014.152-.008.24.122 1.765 2.25 6.083 3.225 6.752.973.669 4.111 1.575 4.014 1.947-.305 1.155-2.738 2.007-2.434 2.311.303.302 9.585 3.75 15.086-4.501.4-.978.668-1.886.668-1.886z"/><path fill="#688da7" d="M51.775 113.819s.404.991-.417 2.171c0 0 .439-1.114.417-2.171zM52.197 114.146s.404.991-.416 2.171c0 0 .438-1.114.416-2.171zM52.54 114.464s.404.99-.417 2.171c0 0 .439-1.114.417-2.171z"/><path fill="#304454" d="M54.215 119.865c-.162-1.071-.617-1.071-.714-1.915 0 0 .031-.059.065-.13 0 0 2.466 1.753 3.278 1.98 0 0 .102 2.053 1.948 2.597-.016.046-.016.088-.016.139 0 0-4.15.031-4.56-2.671z"/><path fill="#4d677a" d="M54.28 119.735c-.162-1.071-.617-1.071-.714-1.915 0 0 1.006.454 1.721.39 0 0 .811 1.233 1.622 1.461 0 0 .195 1.947 1.883 2.726 0 0-4.102.04-4.512-2.662z"/><ellipse cx="49.841" cy="114.199" rx=".323" ry=".536" fill="#304454"/><path fill="#4d677a" d="M59.72 83.916s.894-.645 1.067-.546c.174.1.025.744.025.744l-1.092-.198z"/><path fill="#bdcccc" d="M60.687 87.963s.452.113.734-.113.056-.763.056-.763l-.79.876z"/><path fill="#4d677a" d="M49.816 91.04s-1.129.735-1.497 1.497c0 0 2.231-1.214 3.417-1.242 0 0-1.27-.254-1.92-.254zM52.95 82.778s2.076-2.402 3.861-2.045c0 0-1.479 1.55-1.24 2.722.007.04.016.08.03.118.367 1.184-2.652-.795-2.652-.795z"/><path fill="#7a3440" d="M48.536 87.545s-1.873 2.51-1.303 3.118c.891-.036 2.501-.664 2.501-.664l1.237-1.099-2.435-1.355z"/><path fill="#4d677a" d="M63.474 83.68c-.086-1.044.276-2.418.55-3.515l-.526-.244.71-.389a7.924 7.924 0 0 1 1.273-2.373s-1.706.753-3.035 2.117c-1.233 1.266-.674 4.576-.674 4.576s-5.172.06-9.49-1.705c-5.243-2.14-10.004-4.672-9.854-2.493.122 1.764 2.25 6.083 3.224 6.752.972.668 4.112 1.575 4.014 1.947-.303 1.156-2.736 2.007-2.432 2.31s9.488 3.712 15.084-4.5c0 0 2.237 2.794 4.349 2.767-2.243-2.216-2.639-3.244-3.193-5.25z"/><path fill="#fffdfd" d="M49.165 87.879s-.04.53.019.589c.059.06.334-.372.334-.372l-.353-.217zM48.594 87.543s-.04.53.02.59c.058.058.333-.374.333-.374l-.353-.216zM48.111 90.14s-.39-.362-.473-.352c-.083.01.084.493.084.493l.39-.142z"/><path fill="#bdcccc" d="M62.987 84.277S61.098 88.355 55.6 88.2c-5.447-.152-10.192-5.688-11.409-7.148-.834-1-1.403-1.594-1.755-1.64-.01.074-.014.153-.008.24.122 1.766 2.25 6.084 3.225 6.753.973.669 4.111 1.575 4.014 1.947-.305 1.155-2.738 2.007-2.434 2.31.303.303 9.585 3.75 15.086-4.5.4-.978.668-1.886.668-1.886z"/><path fill="#688da7" d="M51.775 83.516s.404.991-.417 2.171c0 0 .439-1.114.417-2.17zM52.197 83.843s.404.991-.416 2.171c0 0 .438-1.114.416-2.17zM52.54 84.16s.404.99-.417 2.172c0 0 .439-1.114.417-2.171z"/><path fill="#304454" d="M54.215 89.562c-.162-1.07-.617-1.07-.714-1.915 0 0 .031-.059.065-.13 0 0 2.466 1.753 3.278 1.98 0 0 .102 2.053 1.948 2.597-.016.046-.016.088-.016.14 0 0-4.15.03-4.56-2.672z"/><path fill="#4d677a" d="M54.28 89.432c-.162-1.071-.617-1.071-.714-1.915 0 0 1.006.454 1.721.39 0 0 .811 1.233 1.622 1.46 0 0 .195 1.948 1.883 2.727 0 0-4.102.04-4.512-2.662z"/><ellipse cx="49.841" cy="83.896" rx=".323" ry=".536" fill="#304454"/><path fill="#4d677a" d="M59.72 53.613s.894-.645 1.067-.546c.174.1.025.744.025.744l-1.092-.198z"/><path fill="#bdcccc" d="M60.687 57.66s.452.113.734-.113.056-.763.056-.763l-.79.876z"/><path fill="#4d677a" d="M49.816 60.738s-1.129.734-1.497 1.496c0 0 2.231-1.214 3.417-1.242 0 0-1.27-.254-1.92-.254zM52.95 52.475s2.076-2.402 3.861-2.045c0 0-1.479 1.55-1.24 2.722.007.04.016.08.03.118.367 1.184-2.652-.795-2.652-.795z"/><path fill="#7a3440" d="M48.536 57.242s-1.873 2.51-1.303 3.118c.891-.036 2.501-.664 2.501-.664l1.237-1.099-2.435-1.355z"/><path fill="#4d677a" d="M63.474 53.377c-.086-1.044.276-2.418.55-3.515l-.526-.244.71-.389a7.924 7.924 0 0 1 1.273-2.373s-1.706.753-3.035 2.117c-1.233 1.265-.674 4.575-.674 4.575s-5.172.061-9.49-1.704c-5.243-2.14-10.004-4.672-9.854-2.493.122 1.764 2.25 6.082 3.224 6.752.972.668 4.112 1.574 4.014 1.947-.303 1.155-2.736 2.006-2.432 2.31s9.488 3.711 15.084-4.5c0 0 2.237 2.794 4.349 2.767-2.243-2.216-2.639-3.244-3.193-5.25z"/><path fill="#fffdfd" d="M49.165 57.576s-.04.53.019.589c.059.06.334-.372.334-.372l-.353-.217zM48.594 57.24s-.04.53.02.59c.058.058.333-.374.333-.374l-.353-.216zM48.111 59.836s-.39-.36-.473-.35c-.083.008.084.492.084.492l.39-.142z"/><path fill="#bdcccc" d="M62.987 53.974s-1.889 4.078-7.387 3.924c-5.447-.152-10.192-5.688-11.409-7.148-.834-1-1.403-1.594-1.755-1.64-.01.074-.014.153-.008.24.122 1.766 2.25 6.084 3.225 6.753.973.669 4.111 1.575 4.014 1.947-.305 1.155-2.738 2.007-2.434 2.31.303.303 9.585 3.75 15.086-4.5.4-.978.668-1.886.668-1.886z"/><path fill="#688da7" d="M51.775 53.213s.404.991-.417 2.171c0 0 .439-1.114.417-2.17zM52.197 53.54s.404.991-.416 2.171c0 0 .438-1.114.416-2.17zM52.54 53.858s.404.99-.417 2.17c0 0 .439-1.113.417-2.17z"/><path fill="#304454" d="M54.215 59.26c-.162-1.072-.617-1.072-.714-1.916 0 0 .031-.059.065-.13 0 0 2.466 1.753 3.278 1.98 0 0 .102 2.053 1.948 2.597-.016.046-.016.088-.016.14 0 0-4.15.03-4.56-2.672z"/><path fill="#4d677a" d="M54.28 59.129c-.162-1.071-.617-1.071-.714-1.915 0 0 1.006.454 1.721.39 0 0 .811 1.233 1.622 1.46 0 0 .195 1.948 1.883 2.727 0 0-4.102.04-4.512-2.662z"/><ellipse cx="49.841" cy="53.593" rx=".323" ry=".536" fill="#304454"/><path fill="#4d677a" d="M59.72 23.31s.894-.645 1.067-.546c.174.1.025.744.025.744l-1.092-.198z"/><path fill="#bdcccc" d="M60.687 27.357s.452.113.734-.113.056-.763.056-.763l-.79.876z"/><path fill="#4d677a" d="M49.816 30.434s-1.129.735-1.497 1.496c0 0 2.231-1.213 3.417-1.241 0 0-1.27-.255-1.92-.255zM52.95 22.172s2.076-2.402 3.861-2.045c0 0-1.479 1.55-1.24 2.722.007.04.016.08.03.118.367 1.184-2.652-.795-2.652-.795z"/><path fill="#7a3440" d="M48.536 26.939s-1.873 2.51-1.303 3.118c.891-.036 2.501-.664 2.501-.664l1.237-1.099-2.435-1.355z"/><path fill="#4d677a" d="M63.474 23.074c-.086-1.044.276-2.418.55-3.515l-.526-.244.71-.389a7.924 7.924 0 0 1 1.273-2.373s-1.706.753-3.035 2.117c-1.233 1.265-.674 4.575-.674 4.575s-5.172.061-9.49-1.704c-5.243-2.14-10.004-4.672-9.854-2.493.122 1.764 2.25 6.082 3.224 6.752.972.668 4.112 1.574 4.014 1.947-.303 1.155-2.736 2.006-2.432 2.31s9.488 3.711 15.084-4.5c0 0 2.237 2.794 4.349 2.767-2.243-2.216-2.639-3.244-3.193-5.25z"/><path fill="#fffdfd" d="M49.165 27.273s-.04.53.019.589c.059.06.334-.372.334-.372l-.353-.217zM48.594 26.937s-.04.53.02.59c.058.058.333-.374.333-.374l-.353-.216zM48.111 29.533s-.39-.36-.473-.35c-.083.008.084.492.084.492l.39-.142z"/><path fill="#bdcccc" d="M62.987 23.67s-1.889 4.079-7.387 3.925c-5.447-.152-10.192-5.688-11.409-7.148-.834-1-1.403-1.594-1.755-1.64-.01.074-.014.153-.008.24.122 1.766 2.25 6.084 3.225 6.753.973.669 4.111 1.575 4.014 1.947-.305 1.155-2.738 2.007-2.434 2.31.303.303 9.585 3.75 15.086-4.5.4-.978.668-1.886.668-1.886z"/><path fill="#688da7" d="M51.775 22.91s.404.991-.417 2.171c0 0 .439-1.114.417-2.17zM52.197 23.237s.404.991-.416 2.171c0 0 .438-1.114.416-2.17zM52.54 23.555s.404.99-.417 2.17c0 0 .439-1.113.417-2.17z"/><path fill="#304454" d="M54.215 28.956c-.162-1.07-.617-1.07-.714-1.915 0 0 .031-.059.065-.13 0 0 2.466 1.753 3.278 1.98 0 0 .102 2.053 1.948 2.597-.016.046-.016.088-.016.14 0 0-4.15.03-4.56-2.672z"/><path fill="#4d677a" d="M54.28 28.826c-.162-1.071-.617-1.071-.714-1.915 0 0 1.006.454 1.721.39 0 0 .811 1.233 1.622 1.46 0 0 .195 1.948 1.883 2.727 0 0-4.102.04-4.512-2.662z"/><ellipse cx="49.841" cy="23.29" rx=".323" ry=".536" fill="#304454"/><path fill="#4d677a" d="M90.023 144.522s.894-.645 1.067-.546c.174.099.025.744.025.744l-1.092-.198z"/><path fill="#bdcccc" d="M90.99 148.569s.452.113.734-.113.056-.763.056-.763l-.79.876z"/><path fill="#4d677a" d="M80.12 151.647s-1.13.734-1.498 1.496c0 0 2.231-1.214 3.417-1.242 0 0-1.27-.254-1.92-.254zM83.252 143.384s2.077-2.402 3.862-2.045c0 0-1.479 1.549-1.24 2.722.007.04.016.079.03.118.367 1.184-2.652-.795-2.652-.795z"/><path fill="#7a3440" d="M78.84 148.151s-1.874 2.51-1.304 3.118c.891-.036 2.501-.664 2.501-.664l1.237-1.099-2.435-1.355z"/><path fill="#4d677a" d="M93.778 144.287c-.087-1.044.275-2.418.549-3.515l-.525-.244.709-.389a7.924 7.924 0 0 1 1.274-2.373s-1.707.753-3.036 2.117c-1.233 1.265-.674 4.575-.674 4.575s-5.171.061-9.49-1.704c-5.243-2.141-10.004-4.672-9.854-2.493.122 1.764 2.25 6.082 3.224 6.752.973.668 4.113 1.574 4.015 1.947-.304 1.155-2.737 2.006-2.433 2.31s9.489 3.711 15.085-4.501c0 0 2.237 2.795 4.348 2.768-2.242-2.216-2.638-3.244-3.192-5.25z"/><path fill="#fffdfd" d="M79.468 148.485s-.04.53.019.589c.059.06.334-.372.334-.372l-.353-.217zM78.897 148.149s-.04.53.02.589c.058.059.333-.373.333-.373l-.353-.216zM78.415 150.745s-.39-.361-.474-.351c-.082.009.084.493.084.493l.39-.142z"/><path fill="#bdcccc" d="M93.29 144.883s-1.889 4.078-7.387 3.924c-5.447-.152-10.192-5.688-11.409-7.148-.834-1-1.403-1.594-1.754-1.639-.01.073-.015.152-.01.24.123 1.765 2.251 6.083 3.225 6.752.974.669 4.112 1.575 4.014 1.947-.303 1.155-2.736 2.007-2.432 2.311.301.302 9.584 3.75 15.084-4.501.4-.978.67-1.886.67-1.886z"/><path fill="#688da7" d="M82.078 144.122s.404.991-.417 2.171c0 0 .439-1.114.417-2.171zM82.5 144.449s.405.991-.416 2.171c0 0 .439-1.114.417-2.171zM82.843 144.767s.404.99-.417 2.171c0 0 .439-1.114.417-2.171z"/><path fill="#304454" d="M84.518 150.168c-.162-1.071-.617-1.071-.714-1.915 0 0 .031-.059.065-.13 0 0 2.466 1.753 3.278 1.98 0 0 .102 2.053 1.948 2.597-.016.046-.016.088-.016.139 0 0-4.15.031-4.56-2.671z"/><path fill="#4d677a" d="M84.583 150.038c-.162-1.071-.617-1.071-.714-1.915 0 0 1.006.454 1.721.39 0 0 .811 1.233 1.622 1.461 0 0 .195 1.947 1.883 2.726 0 0-4.102.04-4.512-2.662z"/><ellipse cx="80.144" cy="144.502" rx=".323" ry=".536" fill="#304454"/><path fill="#4d677a" d="M90.023 114.219s.894-.645 1.067-.546c.174.099.025.744.025.744l-1.092-.198z"/><path fill="#bdcccc" d="M90.99 118.266s.452.113.734-.113.056-.763.056-.763l-.79.876z"/><path fill="#4d677a" d="M80.12 121.344s-1.13.734-1.498 1.496c0 0 2.231-1.214 3.417-1.242 0 0-1.27-.254-1.92-.254zM83.252 113.081s2.077-2.402 3.862-2.045c0 0-1.479 1.549-1.24 2.722.007.04.016.079.03.118.367 1.184-2.652-.795-2.652-.795z"/><path fill="#7a3440" d="M78.84 117.848s-1.874 2.51-1.304 3.118c.891-.036 2.501-.664 2.501-.664l1.237-1.099-2.435-1.355z"/><path fill="#4d677a" d="M93.778 113.984c-.087-1.044.275-2.418.549-3.515l-.525-.244.709-.389a7.924 7.924 0 0 1 1.274-2.373s-1.707.753-3.036 2.117c-1.233 1.265-.674 4.575-.674 4.575s-5.171.061-9.49-1.704c-5.243-2.141-10.004-4.672-9.854-2.493.122 1.764 2.25 6.082 3.224 6.752.973.668 4.113 1.574 4.015 1.947-.304 1.155-2.737 2.006-2.433 2.31s9.489 3.711 15.085-4.501c0 0 2.237 2.795 4.348 2.768-2.242-2.216-2.638-3.244-3.192-5.25z"/><path fill="#fffdfd" d="M79.468 118.182s-.04.53.019.589c.059.06.334-.372.334-.372l-.353-.217zM78.897 117.846s-.04.53.02.589c.058.059.333-.373.333-.373l-.353-.216zM78.415 120.442s-.39-.361-.474-.351c-.082.009.084.493.084.493l.39-.142z"/><path fill="#bdcccc" d="M93.29 114.58s-1.889 4.078-7.387 3.924c-5.447-.152-10.192-5.688-11.409-7.148-.834-1-1.403-1.594-1.754-1.639-.01.073-.015.152-.01.24.123 1.765 2.251 6.083 3.225 6.752.974.669 4.112 1.575 4.014 1.947-.303 1.155-2.736 2.007-2.432 2.311.301.302 9.584 3.75 15.084-4.501.4-.978.67-1.886.67-1.886z"/><path fill="#688da7" d="M82.078 113.819s.404.991-.417 2.171c0 0 .439-1.114.417-2.171zM82.5 114.146s.405.991-.416 2.171c0 0 .439-1.114.417-2.171zM82.843 114.464s.404.99-.417 2.171c0 0 .439-1.114.417-2.171z"/><path fill="#304454" d="M84.518 119.865c-.162-1.071-.617-1.071-.714-1.915 0 0 .031-.059.065-.13 0 0 2.466 1.753 3.278 1.98 0 0 .102 2.053 1.948 2.597-.016.046-.016.088-.016.139 0 0-4.15.031-4.56-2.671z"/><path fill="#4d677a" d="M84.583 119.735c-.162-1.071-.617-1.071-.714-1.915 0 0 1.006.454 1.721.39 0 0 .811 1.233 1.622 1.461 0 0 .195 1.947 1.883 2.726 0 0-4.102.04-4.512-2.662z"/><ellipse cx="80.144" cy="114.199" rx=".323" ry=".536" fill="#304454"/><path fill="#4d677a" d="M150.629 144.522s.894-.645 1.067-.546c.174.099.025.744.025.744l-1.092-.198z"/><path fill="#bdcccc" d="M151.596 148.569s.452.113.734-.113.056-.763.056-.763l-.79.876z"/><path fill="#4d677a" d="M140.725 151.647s-1.129.734-1.497 1.496c0 0 2.231-1.214 3.417-1.242 0 0-1.271-.254-1.92-.254zM143.858 143.384s2.077-2.402 3.862-2.045c0 0-1.479 1.549-1.241 2.722.008.04.017.079.03.118.368 1.184-2.651-.795-2.651-.795z"/><path fill="#7a3440" d="M139.445 148.151s-1.873 2.51-1.303 3.118c.891-.036 2.501-.664 2.501-.664l1.237-1.099-2.435-1.355z"/><path fill="#4d677a" d="M154.384 144.287c-.087-1.044.275-2.418.549-3.515l-.525-.244.709-.389a7.924 7.924 0 0 1 1.274-2.373s-1.707.753-3.036 2.117c-1.233 1.265-.674 4.575-.674 4.575s-5.171.061-9.49-1.704c-5.243-2.141-10.004-4.672-9.854-2.493.122 1.764 2.251 6.082 3.224 6.752.973.668 4.113 1.574 4.015 1.947-.304 1.155-2.737 2.006-2.433 2.31s9.489 3.711 15.085-4.501c0 0 2.237 2.795 4.348 2.768-2.242-2.216-2.638-3.244-3.192-5.25z"/><path fill="#fffdfd" d="M140.074 148.485s-.039.53.019.589c.059.06.334-.372.334-.372l-.353-.217zM139.503 148.149s-.04.53.02.589c.058.059.333-.373.333-.373l-.353-.216zM139.021 150.745s-.39-.361-.473-.351c-.083.009.084.493.084.493l.389-.142z"/><path fill="#bdcccc" d="M153.897 144.883s-1.889 4.078-7.387 3.924c-5.447-.152-10.192-5.688-11.409-7.148-.834-1-1.403-1.594-1.755-1.639-.01.073-.015.152-.009.24.122 1.765 2.251 6.083 3.225 6.752.973.669 4.112 1.575 4.014 1.947-.304 1.155-2.737 2.007-2.433 2.311.302.302 9.584 3.75 15.085-4.501.4-.978.669-1.886.669-1.886z"/><path fill="#688da7" d="M142.684 144.122s.404.991-.417 2.171c0 0 .439-1.114.417-2.171zM143.107 144.449s.404.991-.417 2.171c0 0 .439-1.114.417-2.171zM143.449 144.767s.404.99-.417 2.171c0 0 .439-1.114.417-2.171z"/><path fill="#304454" d="M145.124 150.168c-.162-1.071-.617-1.071-.714-1.915 0 0 .031-.059.065-.13 0 0 2.466 1.753 3.278 1.98 0 0 .102 2.053 1.948 2.597-.016.046-.016.088-.016.139 0 0-4.151.031-4.561-2.671z"/><path fill="#4d677a" d="M145.189 150.038c-.162-1.071-.617-1.071-.714-1.915 0 0 1.006.454 1.721.39 0 0 .811 1.233 1.622 1.461 0 0 .195 1.947 1.883 2.726 0 0-4.102.04-4.512-2.662z"/><ellipse cx="140.75" cy="144.502" rx=".323" ry=".536" fill="#304454"/><path fill="#4d677a" d="M150.629 114.219s.894-.645 1.067-.546c.174.099.025.744.025.744l-1.092-.198z"/><path fill="#bdcccc" d="M151.596 118.266s.452.113.734-.113.056-.763.056-.763l-.79.876z"/><path fill="#4d677a" d="M140.725 121.344s-1.129.734-1.497 1.496c0 0 2.231-1.214 3.417-1.242 0 0-1.271-.254-1.92-.254zM143.858 113.081s2.077-2.402 3.862-2.045c0 0-1.479 1.549-1.241 2.722.008.04.017.079.03.118.368 1.184-2.651-.795-2.651-.795z"/><path fill="#7a3440" d="M139.445 117.848s-1.873 2.51-1.303 3.118c.891-.036 2.501-.664 2.501-.664l1.237-1.099-2.435-1.355z"/><path fill="#4d677a" d="M154.384 113.984c-.087-1.044.275-2.418.549-3.515l-.525-.244.709-.389a7.924 7.924 0 0 1 1.274-2.373s-1.707.753-3.036 2.117c-1.233 1.265-.674 4.575-.674 4.575s-5.171.061-9.49-1.704c-5.243-2.141-10.004-4.672-9.854-2.493.122 1.764 2.251 6.082 3.224 6.752.973.668 4.113 1.574 4.015 1.947-.304 1.155-2.737 2.006-2.433 2.31s9.489 3.711 15.085-4.501c0 0 2.237 2.795 4.348 2.768-2.242-2.216-2.638-3.244-3.192-5.25z"/><path fill="#fffdfd" d="M140.074 118.182s-.039.53.019.589c.059.06.334-.372.334-.372l-.353-.217zM139.503 117.846s-.04.53.02.589c.058.059.333-.373.333-.373l-.353-.216zM139.021 120.442s-.39-.361-.473-.351c-.083.009.084.493.084.493l.389-.142z"/><path fill="#bdcccc" d="M153.897 114.58s-1.889 4.078-7.387 3.924c-5.447-.152-10.192-5.688-11.409-7.148-.834-1-1.403-1.594-1.755-1.639-.01.073-.015.152-.009.24.122 1.765 2.251 6.083 3.225 6.752.973.669 4.112 1.575 4.014 1.947-.304 1.155-2.737 2.007-2.433 2.311.302.302 9.584 3.75 15.085-4.501.4-.978.669-1.886.669-1.886z"/><path fill="#688da7" d="M142.684 113.819s.404.991-.417 2.171c0 0 .439-1.114.417-2.171zM143.107 114.146s.404.991-.417 2.171c0 0 .439-1.114.417-2.171zM143.449 114.464s.404.99-.417 2.171c0 0 .439-1.114.417-2.171z"/><path fill="#304454" d="M145.124 119.865c-.162-1.071-.617-1.071-.714-1.915 0 0 .031-.059.065-.13 0 0 2.466 1.753 3.278 1.98 0 0 .102 2.053 1.948 2.597-.016.046-.016.088-.016.139 0 0-4.151.031-4.561-2.671z"/><path fill="#4d677a" d="M145.189 119.735c-.162-1.071-.617-1.071-.714-1.915 0 0 1.006.454 1.721.39 0 0 .811 1.233 1.622 1.461 0 0 .195 1.947 1.883 2.726 0 0-4.102.04-4.512-2.662z"/><ellipse cx="140.75" cy="114.199" rx=".323" ry=".536" fill="#304454"/><path fill="#4d677a" d="M150.629 83.916s.894-.645 1.067-.546c.174.1.025.744.025.744l-1.092-.198z"/><path fill="#bdcccc" d="M151.596 87.963s.452.113.734-.113.056-.763.056-.763l-.79.876z"/><path fill="#4d677a" d="M140.725 91.04s-1.129.735-1.497 1.497c0 0 2.231-1.214 3.417-1.242 0 0-1.271-.254-1.92-.254zM143.858 82.778s2.077-2.402 3.862-2.045c0 0-1.479 1.55-1.241 2.722.008.04.017.08.03.118.368 1.184-2.651-.795-2.651-.795z"/><path fill="#7a3440" d="M139.445 87.545s-1.873 2.51-1.303 3.118c.891-.036 2.501-.664 2.501-.664l1.237-1.099-2.435-1.355z"/><path fill="#4d677a" d="M154.384 83.68c-.087-1.044.275-2.418.549-3.515l-.525-.244.709-.389a7.924 7.924 0 0 1 1.274-2.373s-1.707.753-3.036 2.117c-1.233 1.266-.674 4.576-.674 4.576s-5.171.06-9.49-1.705c-5.243-2.14-10.004-4.672-9.854-2.493.122 1.764 2.251 6.083 3.224 6.752.973.668 4.113 1.575 4.015 1.947-.304 1.156-2.737 2.007-2.433 2.31s9.489 3.712 15.085-4.5c0 0 2.237 2.794 4.348 2.767-2.242-2.216-2.638-3.244-3.192-5.25z"/><path fill="#fffdfd" d="M140.074 87.879s-.039.53.019.589c.059.06.334-.372.334-.372l-.353-.217zM139.503 87.543s-.04.53.02.59c.058.058.333-.374.333-.374l-.353-.216zM139.021 90.14s-.39-.362-.473-.352c-.083.01.084.493.084.493l.389-.142z"/><path fill="#bdcccc" d="M153.897 84.277s-1.889 4.078-7.387 3.924c-5.447-.152-10.192-5.688-11.409-7.148-.834-1-1.403-1.594-1.755-1.64-.01.074-.015.153-.009.24.122 1.766 2.251 6.084 3.225 6.753.973.669 4.112 1.575 4.014 1.947-.304 1.155-2.737 2.007-2.433 2.31.302.303 9.584 3.75 15.085-4.5.4-.978.669-1.886.669-1.886z"/><path fill="#688da7" d="M142.684 83.516s.404.991-.417 2.171c0 0 .439-1.114.417-2.17zM143.107 83.843s.404.991-.417 2.171c0 0 .439-1.114.417-2.17zM143.449 84.16s.404.99-.417 2.172c0 0 .439-1.114.417-2.171z"/><path fill="#304454" d="M145.124 89.562c-.162-1.07-.617-1.07-.714-1.915 0 0 .031-.059.065-.13 0 0 2.466 1.753 3.278 1.98 0 0 .102 2.053 1.948 2.597-.016.046-.016.088-.016.14 0 0-4.151.03-4.561-2.672z"/><path fill="#4d677a" d="M145.189 89.432c-.162-1.071-.617-1.071-.714-1.915 0 0 1.006.454 1.721.39 0 0 .811 1.233 1.622 1.46 0 0 .195 1.948 1.883 2.727 0 0-4.102.04-4.512-2.662z"/><ellipse cx="140.75" cy="83.896" rx=".323" ry=".536" fill="#304454"/><path fill="#4d677a" d="M150.629 53.613s.894-.645 1.067-.546c.174.1.025.744.025.744l-1.092-.198z"/><path fill="#bdcccc" d="M151.596 57.66s.452.113.734-.113.056-.763.056-.763l-.79.876z"/><path fill="#4d677a" d="M140.725 60.738s-1.129.734-1.497 1.496c0 0 2.231-1.214 3.417-1.242 0 0-1.271-.254-1.92-.254zM143.858 52.475s2.077-2.402 3.862-2.045c0 0-1.479 1.55-1.241 2.722.008.04.017.08.03.118.368 1.184-2.651-.795-2.651-.795z"/><path fill="#7a3440" d="M139.445 57.242s-1.873 2.51-1.303 3.118c.891-.036 2.501-.664 2.501-.664l1.237-1.099-2.435-1.355z"/><path fill="#4d677a" d="M154.384 53.377c-.087-1.044.275-2.418.549-3.515l-.525-.244.709-.389a7.924 7.924 0 0 1 1.274-2.373s-1.707.753-3.036 2.117c-1.233 1.265-.674 4.575-.674 4.575s-5.171.061-9.49-1.704c-5.243-2.14-10.004-4.672-9.854-2.493.122 1.764 2.251 6.082 3.224 6.752.973.668 4.113 1.574 4.015 1.947-.304 1.155-2.737 2.006-2.433 2.31s9.489 3.711 15.085-4.5c0 0 2.237 2.794 4.348 2.767-2.242-2.216-2.638-3.244-3.192-5.25z"/><path fill="#fffdfd" d="M140.074 57.576s-.039.53.019.589c.059.06.334-.372.334-.372l-.353-.217zM139.503 57.24s-.04.53.02.59c.058.058.333-.374.333-.374l-.353-.216zM139.021 59.836s-.39-.36-.473-.35c-.083.008.084.492.084.492l.389-.142z"/><path fill="#bdcccc" d="M153.897 53.974s-1.889 4.078-7.387 3.924c-5.447-.152-10.192-5.688-11.409-7.148-.834-1-1.403-1.594-1.755-1.64-.01.074-.015.153-.009.24.122 1.766 2.251 6.084 3.225 6.753.973.669 4.112 1.575 4.014 1.947-.304 1.155-2.737 2.007-2.433 2.31.302.303 9.584 3.75 15.085-4.5.4-.978.669-1.886.669-1.886z"/><path fill="#688da7" d="M142.684 53.213s.404.991-.417 2.171c0 0 .439-1.114.417-2.17zM143.107 53.54s.404.991-.417 2.171c0 0 .439-1.114.417-2.17zM143.449 53.858s.404.99-.417 2.17c0 0 .439-1.113.417-2.17z"/><path fill="#304454" d="M145.124 59.26c-.162-1.072-.617-1.072-.714-1.916 0 0 .031-.059.065-.13 0 0 2.466 1.753 3.278 1.98 0 0 .102 2.053 1.948 2.597-.016.046-.016.088-.016.14 0 0-4.151.03-4.561-2.672z"/><path fill="#4d677a" d="M145.189 59.129c-.162-1.071-.617-1.071-.714-1.915 0 0 1.006.454 1.721.39 0 0 .811 1.233 1.622 1.46 0 0 .195 1.948 1.883 2.727 0 0-4.102.04-4.512-2.662z"/><ellipse cx="140.75" cy="53.593" rx=".323" ry=".536" fill="#304454"/><path fill="#4d677a" d="M150.629 23.31s.894-.645 1.067-.546c.174.1.025.744.025.744l-1.092-.198z"/><path fill="#bdcccc" d="M151.596 27.357s.452.113.734-.113.056-.763.056-.763l-.79.876z"/><path fill="#4d677a" d="M140.725 30.434s-1.129.735-1.497 1.496c0 0 2.231-1.213 3.417-1.241 0 0-1.271-.255-1.92-.255zM143.858 22.172s2.077-2.402 3.862-2.045c0 0-1.479 1.55-1.241 2.722.008.04.017.08.03.118.368 1.184-2.651-.795-2.651-.795z"/><path fill="#7a3440" d="M139.445 26.939s-1.873 2.51-1.303 3.118c.891-.036 2.501-.664 2.501-.664l1.237-1.099-2.435-1.355z"/><path fill="#4d677a" d="M154.384 23.074c-.087-1.044.275-2.418.549-3.515l-.525-.244.709-.389a7.924 7.924 0 0 1 1.274-2.373s-1.707.753-3.036 2.117c-1.233 1.265-.674 4.575-.674 4.575s-5.171.061-9.49-1.704c-5.243-2.14-10.004-4.672-9.854-2.493.122 1.764 2.251 6.082 3.224 6.752.973.668 4.113 1.574 4.015 1.947-.304 1.155-2.737 2.006-2.433 2.31s9.489 3.711 15.085-4.5c0 0 2.237 2.794 4.348 2.767-2.242-2.216-2.638-3.244-3.192-5.25z"/><path fill="#fffdfd" d="M140.074 27.273s-.039.53.019.589c.059.06.334-.372.334-.372l-.353-.217zM139.503 26.937s-.04.53.02.59c.058.058.333-.374.333-.374l-.353-.216zM139.021 29.533s-.39-.36-.473-.35c-.083.008.084.492.084.492l.389-.142z"/><path fill="#bdcccc" d="M153.897 23.67s-1.889 4.079-7.387 3.925c-5.447-.152-10.192-5.688-11.409-7.148-.834-1-1.403-1.594-1.755-1.64-.01.074-.015.153-.009.24.122 1.766 2.251 6.084 3.225 6.753.973.669 4.112 1.575 4.014 1.947-.304 1.155-2.737 2.007-2.433 2.31.302.303 9.584 3.75 15.085-4.5.4-.978.669-1.886.669-1.886z"/><path fill="#688da7" d="M142.684 22.91s.404.991-.417 2.171c0 0 .439-1.114.417-2.17zM143.107 23.237s.404.991-.417 2.171c0 0 .439-1.114.417-2.17zM143.449 23.555s.404.99-.417 2.17c0 0 .439-1.113.417-2.17z"/><path fill="#304454" d="M145.124 28.956c-.162-1.07-.617-1.07-.714-1.915 0 0 .031-.059.065-.13 0 0 2.466 1.753 3.278 1.98 0 0 .102 2.053 1.948 2.597-.016.046-.016.088-.016.14 0 0-4.151.03-4.561-2.672z"/><path fill="#4d677a" d="M145.189 28.826c-.162-1.071-.617-1.071-.714-1.915 0 0 1.006.454 1.721.39 0 0 .811 1.233 1.622 1.46 0 0 .195 1.948 1.883 2.727 0 0-4.102.04-4.512-2.662z"/><ellipse cx="140.75" cy="23.29" rx=".323" ry=".536" fill="#304454"/><path fill="#4d677a" d="M180.932 144.522s.894-.645 1.067-.546c.174.099.025.744.025.744l-1.092-.198z"/><path fill="#bdcccc" d="M181.899 148.569s.452.113.734-.113.056-.763.056-.763l-.79.876z"/><path fill="#4d677a" d="M171.028 151.647s-1.129.734-1.497 1.496c0 0 2.231-1.214 3.417-1.242 0 0-1.271-.254-1.92-.254zM174.161 143.384s2.077-2.402 3.862-2.045c0 0-1.479 1.549-1.241 2.722.008.04.017.079.03.118.368 1.184-2.651-.795-2.651-.795z"/><path fill="#7a3440" d="M169.749 148.151s-1.873 2.51-1.303 3.118c.891-.036 2.501-.664 2.501-.664l1.237-1.099-2.435-1.355z"/><path fill="#4d677a" d="M184.687 144.287c-.087-1.044.275-2.418.549-3.515l-.525-.244.709-.389a7.924 7.924 0 0 1 1.274-2.373s-1.707.753-3.036 2.117c-1.233 1.265-.674 4.575-.674 4.575s-5.171.061-9.49-1.704c-5.243-2.141-10.004-4.672-9.854-2.493.122 1.764 2.251 6.082 3.224 6.752.973.668 4.113 1.574 4.015 1.947-.304 1.155-2.737 2.006-2.433 2.31s9.489 3.711 15.085-4.501c0 0 2.237 2.795 4.348 2.768-2.242-2.216-2.638-3.244-3.192-5.25z"/><path fill="#fffdfd" d="M170.377 148.485s-.039.53.019.589c.059.06.334-.372.334-.372l-.353-.217zM169.806 148.149s-.04.53.02.589c.058.059.333-.373.333-.373l-.353-.216zM169.324 150.745s-.39-.361-.473-.351c-.083.009.084.493.084.493l.389-.142z"/><path fill="#bdcccc" d="M184.2 144.883s-1.889 4.078-7.387 3.924c-5.447-.152-10.192-5.688-11.409-7.148-.834-1-1.403-1.594-1.755-1.639-.01.073-.015.152-.009.24.122 1.765 2.251 6.083 3.225 6.752.973.669 4.112 1.575 4.014 1.947-.304 1.155-2.737 2.007-2.433 2.311.302.302 9.584 3.75 15.085-4.501.4-.978.669-1.886.669-1.886z"/><path fill="#688da7" d="M172.987 144.122s.404.991-.417 2.171c0 0 .439-1.114.417-2.171zM173.41 144.449s.404.991-.417 2.171c0 0 .439-1.114.417-2.171zM173.752 144.767s.404.99-.417 2.171c0 0 .439-1.114.417-2.171z"/><path fill="#304454" d="M175.427 150.168c-.162-1.071-.617-1.071-.714-1.915 0 0 .031-.059.065-.13 0 0 2.466 1.753 3.278 1.98 0 0 .102 2.053 1.948 2.597-.016.046-.016.088-.016.139 0 0-4.151.031-4.561-2.671z"/><path fill="#4d677a" d="M175.492 150.038c-.162-1.071-.617-1.071-.714-1.915 0 0 1.006.454 1.721.39 0 0 .811 1.233 1.622 1.461 0 0 .195 1.947 1.883 2.726 0 0-4.102.04-4.512-2.662z"/><ellipse cx="171.053" cy="144.502" rx=".323" ry=".536" fill="#304454"/><path fill="#4d677a" d="M180.932 114.219s.894-.645 1.067-.546c.174.099.025.744.025.744l-1.092-.198z"/><path fill="#bdcccc" d="M181.899 118.266s.452.113.734-.113.056-.763.056-.763l-.79.876z"/><path fill="#4d677a" d="M171.028 121.344s-1.129.734-1.497 1.496c0 0 2.231-1.214 3.417-1.242 0 0-1.271-.254-1.92-.254zM174.161 113.081s2.077-2.402 3.862-2.045c0 0-1.479 1.549-1.241 2.722.008.04.017.079.03.118.368 1.184-2.651-.795-2.651-.795z"/><path fill="#7a3440" d="M169.749 117.848s-1.873 2.51-1.303 3.118c.891-.036 2.501-.664 2.501-.664l1.237-1.099-2.435-1.355z"/><path fill="#4d677a" d="M184.687 113.984c-.087-1.044.275-2.418.549-3.515l-.525-.244.709-.389a7.924 7.924 0 0 1 1.274-2.373s-1.707.753-3.036 2.117c-1.233 1.265-.674 4.575-.674 4.575s-5.171.061-9.49-1.704c-5.243-2.141-10.004-4.672-9.854-2.493.122 1.764 2.251 6.082 3.224 6.752.973.668 4.113 1.574 4.015 1.947-.304 1.155-2.737 2.006-2.433 2.31s9.489 3.711 15.085-4.501c0 0 2.237 2.795 4.348 2.768-2.242-2.216-2.638-3.244-3.192-5.25z"/><path fill="#fffdfd" d="M170.377 118.182s-.039.53.019.589c.059.06.334-.372.334-.372l-.353-.217zM169.806 117.846s-.04.53.02.589c.058.059.333-.373.333-.373l-.353-.216zM169.324 120.442s-.39-.361-.473-.351c-.083.009.084.493.084.493l.389-.142z"/><path fill="#bdcccc" d="M184.2 114.58s-1.889 4.078-7.387 3.924c-5.447-.152-10.192-5.688-11.409-7.148-.834-1-1.403-1.594-1.755-1.639-.01.073-.015.152-.009.24.122 1.765 2.251 6.083 3.225 6.752.973.669 4.112 1.575 4.014 1.947-.304 1.155-2.737 2.007-2.433 2.311.302.302 9.584 3.75 15.085-4.501.4-.978.669-1.886.669-1.886z"/><path fill="#688da7" d="M172.987 113.819s.404.991-.417 2.171c0 0 .439-1.114.417-2.171zM173.41 114.146s.404.991-.417 2.171c0 0 .439-1.114.417-2.171zM173.752 114.464s.404.99-.417 2.171c0 0 .439-1.114.417-2.171z"/><path fill="#304454" d="M175.427 119.865c-.162-1.071-.617-1.071-.714-1.915 0 0 .031-.059.065-.13 0 0 2.466 1.753 3.278 1.98 0 0 .102 2.053 1.948 2.597-.016.046-.016.088-.016.139 0 0-4.151.031-4.561-2.671z"/><path fill="#4d677a" d="M175.492 119.735c-.162-1.071-.617-1.071-.714-1.915 0 0 1.006.454 1.721.39 0 0 .811 1.233 1.622 1.461 0 0 .195 1.947 1.883 2.726 0 0-4.102.04-4.512-2.662z"/><ellipse cx="171.053" cy="114.199" rx=".323" ry=".536" fill="#304454"/><path fill="#4d677a" d="M180.932 83.916s.894-.645 1.067-.546c.174.1.025.744.025.744l-1.092-.198z"/><path fill="#bdcccc" d="M181.899 87.963s.452.113.734-.113.056-.763.056-.763l-.79.876z"/><path fill="#4d677a" d="M171.028 91.04s-1.129.735-1.497 1.497c0 0 2.231-1.214 3.417-1.242 0 0-1.271-.254-1.92-.254zM174.161 82.778s2.077-2.402 3.862-2.045c0 0-1.479 1.55-1.241 2.722.008.04.017.08.03.118.368 1.184-2.651-.795-2.651-.795z"/><path fill="#7a3440" d="M169.749 87.545s-1.873 2.51-1.303 3.118c.891-.036 2.501-.664 2.501-.664l1.237-1.099-2.435-1.355z"/><path fill="#4d677a" d="M184.687 83.68c-.087-1.044.275-2.418.549-3.515l-.525-.244.709-.389a7.924 7.924 0 0 1 1.274-2.373s-1.707.753-3.036 2.117c-1.233 1.266-.674 4.576-.674 4.576s-5.171.06-9.49-1.705c-5.243-2.14-10.004-4.672-9.854-2.493.122 1.764 2.251 6.083 3.224 6.752.973.668 4.113 1.575 4.015 1.947-.304 1.156-2.737 2.007-2.433 2.31s9.489 3.712 15.085-4.5c0 0 2.237 2.794 4.348 2.767-2.242-2.216-2.638-3.244-3.192-5.25z"/><path fill="#fffdfd" d="M170.377 87.879s-.039.53.019.589c.059.06.334-.372.334-.372l-.353-.217zM169.806 87.543s-.04.53.02.59c.058.058.333-.374.333-.374l-.353-.216zM169.324 90.14s-.39-.362-.473-.352c-.083.01.084.493.084.493l.389-.142z"/><path fill="#bdcccc" d="M184.2 84.277s-1.889 4.078-7.387 3.924c-5.447-.152-10.192-5.688-11.409-7.148-.834-1-1.403-1.594-1.755-1.64-.01.074-.015.153-.009.24.122 1.766 2.251 6.084 3.225 6.753.973.669 4.112 1.575 4.014 1.947-.304 1.155-2.737 2.007-2.433 2.31.302.303 9.584 3.75 15.085-4.5.4-.978.669-1.886.669-1.886z"/><path fill="#688da7" d="M172.987 83.516s.404.991-.417 2.171c0 0 .439-1.114.417-2.17zM173.41 83.843s.404.991-.417 2.171c0 0 .439-1.114.417-2.17zM173.752 84.16s.404.99-.417 2.172c0 0 .439-1.114.417-2.171z"/><path fill="#304454" d="M175.427 89.562c-.162-1.07-.617-1.07-.714-1.915 0 0 .031-.059.065-.13 0 0 2.466 1.753 3.278 1.98 0 0 .102 2.053 1.948 2.597-.016.046-.016.088-.016.14 0 0-4.151.03-4.561-2.672z"/><path fill="#4d677a" d="M175.492 89.432c-.162-1.071-.617-1.071-.714-1.915 0 0 1.006.454 1.721.39 0 0 .811 1.233 1.622 1.46 0 0 .195 1.948 1.883 2.727 0 0-4.102.04-4.512-2.662z"/><ellipse cx="171.053" cy="83.896" rx=".323" ry=".536" fill="#304454"/></svg>
