<svg xmlns="http://www.w3.org/2000/svg" width="150" height="85.714" viewBox="0 0 150 85.71428571428571"><path fill="none" stroke="#000" d="M21.429 64.286H128.57M21.429 42.857H128.57M21.429 21.429H128.57M21.429 64.286V21.429M42.857 64.286V21.429M64.286 64.286V21.429M85.714 64.286V21.429M107.143 64.286V21.429M128.571 64.286V21.429" stroke-width="2"/><ellipse cx="32.143" cy="32.143" rx="8.143" ry="8.143" fill="#0c7f99" stroke="#0c7f99" stroke-width="2" stroke-dasharray="0"/><ellipse cx="53.571" cy="32.143" rx="8.143" ry="8.143" fill="#0c7f99" stroke="#0c7f99" stroke-width="2" stroke-dasharray="0"/><ellipse cx="75" cy="32.143" rx="8.143" ry="8.143" fill="#0c7f99" stroke="#0c7f99" stroke-width="2" stroke-dasharray="0"/><ellipse cx="96.429" cy="32.143" rx="8.143" ry="8.143" fill="#0c7f99" stroke="#0c7f99" stroke-width="2" stroke-dasharray="0"/><ellipse cx="117.857" cy="32.143" rx="8.143" ry="8.143" fill="#0c7f99" stroke="#0c7f99" stroke-width="2" stroke-dasharray="0"/><ellipse cx="32.143" cy="53.571" rx="8.143" ry="8.143" fill="#0c7f99" stroke="#0c7f99" stroke-width="2" stroke-dasharray="0"/><ellipse cx="53.571" cy="53.571" rx="8.143" ry="8.143" fill="#0c7f99" stroke="#0c7f99" stroke-width="2" stroke-dasharray="0"/><ellipse cx="75" cy="53.571" rx="8.143" ry="8.143" fill="#0c7f99" stroke="#0c7f99" stroke-width="2" stroke-dasharray="0"/><ellipse cx="96.429" cy="53.571" rx="8.143" ry="8.143" fill="#0c7f99" stroke="#0c7f99" stroke-width="2" stroke-dasharray="0"/></svg>
