<svg xmlns="http://www.w3.org/2000/svg" width="58.333" height="150" viewBox="0 0 58.33333333333334 150"><path fill="#ccfaff" stroke="#0c7f99" d="M4.167 134.722v13.889h13.889L25 141.667v-13.889H11.111z" stroke-width="2"/><path fill="#ccfaff" stroke="#0c7f99" d="M4.167 134.722h13.889v13.889M18.056 134.722L25 127.778" stroke-width="2"/><path fill="#ccfaff" stroke="#0c7f99" d="M4.167 120.833v13.889h13.889L25 127.778v-13.889H11.111z" stroke-width="2"/><path fill="#ccfaff" stroke="#0c7f99" d="M4.167 120.833h13.889v13.889M18.056 120.833L25 113.889" stroke-width="2"/><path fill="#ccfaff" stroke="#0c7f99" d="M4.167 106.944v13.889h13.889L25 113.889V100H11.111z" stroke-width="2"/><path fill="#ccfaff" stroke="#0c7f99" d="M4.167 106.944h13.889v13.889M18.056 106.944L25 100" stroke-width="2"/><path fill="#ccfaff" stroke="#0c7f99" d="M4.167 93.056v13.888h13.889L25 100V86.111H11.111z" stroke-width="2"/><path fill="#ccfaff" stroke="#0c7f99" d="M4.167 93.056h13.889v13.888M18.056 93.056L25 86.11" stroke-width="2"/><path fill="#ccfaff" stroke="#0c7f99" d="M4.167 79.167v13.889h13.889L25 86.11V72.222H11.111z" stroke-width="2"/><path fill="#ccfaff" stroke="#0c7f99" d="M4.167 79.167h13.889v13.889M18.056 79.167L25 72.222" stroke-width="2"/><path fill="#ccfaff" stroke="#0c7f99" d="M4.167 65.278v13.889h13.889L25 72.222V58.333H11.111z" stroke-width="2"/><path fill="#ccfaff" stroke="#0c7f99" d="M4.167 65.278h13.889v13.889M18.056 65.278L25 58.333" stroke-width="2"/><path fill="#ccfaff" stroke="#0c7f99" d="M4.167 51.389v13.889h13.889L25 58.333V44.444H11.111z" stroke-width="2"/><path fill="#ccfaff" stroke="#0c7f99" d="M4.167 51.389h13.889v13.889M18.056 51.389L25 44.444M4.167 37.5v13.889h13.889L25 44.444V30.556H11.111z" stroke-width="2"/><path fill="#ccfaff" stroke="#0c7f99" d="M4.167 37.5h13.889v13.889M18.056 37.5L25 30.556" stroke-width="2"/><path fill="#ccfaff" stroke="#0c7f99" d="M4.167 23.611V37.5h13.889L25 30.556v-13.89H11.111z" stroke-width="2"/><path fill="#ccfaff" stroke="#0c7f99" d="M4.167 23.611h13.889V37.5M18.056 23.611L25 16.667" stroke-width="2"/><path fill="#ccfaff" stroke="#0c7f99" d="M4.167 9.722v13.89h13.889L25 16.666V2.777H11.111z" stroke-width="2"/><path fill="#ccfaff" stroke="#0c7f99" d="M4.167 9.722h13.889v13.89M18.056 9.722L25 2.778M31.944 134.722v13.889h13.89l6.944-6.944v-13.889h-13.89z" stroke-width="2"/><path fill="#ccfaff" stroke="#0c7f99" d="M31.944 134.722h13.89v13.889M45.833 134.722l6.945-6.944" stroke-width="2"/><path fill="#ccfaff" stroke="#0c7f99" d="M31.944 120.833v13.889h13.89l6.944-6.944v-13.889h-13.89z" stroke-width="2"/><path fill="#ccfaff" stroke="#0c7f99" d="M31.944 120.833h13.89v13.889M45.833 120.833l6.945-6.944" stroke-width="2"/><path fill="#ffbde0" stroke="#9e034e" d="M31.944 106.944v13.889h13.89l6.944-6.944V100h-13.89z" stroke-width="2"/><path fill="#ffbde0" stroke="#9e034e" d="M31.944 106.944h13.89v13.889M45.833 106.944L52.778 100" stroke-width="2"/><path fill="#ffbde0" stroke="#9e034e" d="M31.944 93.056v13.888h13.89L52.777 100V86.111h-13.89z" stroke-width="2"/><path fill="#ffbde0" stroke="#9e034e" d="M31.944 93.056h13.89v13.888M45.833 93.056l6.945-6.945" stroke-width="2"/><path fill="#ffbde0" stroke="#9e034e" d="M31.944 79.167v13.889h13.89l6.944-6.945V72.222h-13.89z" stroke-width="2"/><path fill="#ffbde0" stroke="#9e034e" d="M31.944 79.167h13.89v13.889M45.833 79.167l6.945-6.945" stroke-width="2"/><path fill="#ffbde0" stroke="#9e034e" d="M31.944 65.278v13.889h13.89l6.944-6.945V58.333h-13.89z" stroke-width="2"/><path fill="#ffbde0" stroke="#9e034e" d="M31.944 65.278h13.89v13.889M45.833 65.278l6.945-6.945" stroke-width="2"/><path fill="#ffbde0" stroke="#9e034e" d="M31.944 51.389v13.889h13.89l6.944-6.945V44.444h-13.89z" stroke-width="2"/><path fill="#ffbde0" stroke="#9e034e" d="M31.944 51.389h13.89v13.889M45.833 51.389l6.945-6.945M31.944 37.5v13.889h13.89l6.944-6.945V30.556h-13.89z" stroke-width="2"/><path fill="#ffbde0" stroke="#9e034e" d="M31.944 37.5h13.89v13.889M45.833 37.5l6.945-6.944" stroke-width="2"/><path fill="#ffbde0" stroke="#9e034e" d="M31.944 23.611V37.5h13.89l6.944-6.944v-13.89h-13.89z" stroke-width="2"/><path fill="#ffbde0" stroke="#9e034e" d="M31.944 23.611h13.89V37.5M45.833 23.611l6.945-6.944" stroke-width="2"/><path fill="#ffbde0" stroke="#9e034e" d="M31.944 9.722v13.89h13.89l6.944-6.945V2.777h-13.89z" stroke-width="2"/><path fill="#ffbde0" stroke="#9e034e" d="M31.944 9.722h13.89v13.89M45.833 9.722l6.945-6.944" stroke-width="2"/></svg>
