<svg xmlns="http://www.w3.org/2000/svg" width="280" height="86.154" viewBox="0 0 280 86.15384615384616"><path fill="none" stroke="#000" d="M21.538 64.615h107.693M21.538 43.077h107.693M21.538 21.538h107.693M21.538 64.615V21.54M43.077 64.615V21.54M64.615 64.615V21.54M86.154 64.615V21.54M107.692 64.615V21.54M129.231 64.615V21.54" stroke-width="2"/><ellipse cx="32.308" cy="32.308" rx="8.185" ry="8.185" fill="#a75a05" stroke="#a75a05" stroke-width="2" stroke-dasharray="0"/><ellipse cx="53.846" cy="32.308" rx="8.185" ry="8.185" fill="#a75a05" stroke="#a75a05" stroke-width="2" stroke-dasharray="0"/><ellipse cx="75.385" cy="32.308" rx="8.185" ry="8.185" fill="#a75a05" stroke="#a75a05" stroke-width="2" stroke-dasharray="0"/><ellipse cx="96.923" cy="32.308" rx="8.185" ry="8.185" fill="#a75a05" stroke="#a75a05" stroke-width="2" stroke-dasharray="0"/><ellipse cx="118.462" cy="32.308" rx="8.185" ry="8.185" fill="#a75a05" stroke="#a75a05" stroke-width="2" stroke-dasharray="0"/><ellipse cx="32.308" cy="53.846" rx="8.185" ry="8.185" fill="#a75a05" stroke="#a75a05" stroke-width="2" stroke-dasharray="0"/><ellipse cx="53.846" cy="53.846" rx="8.185" ry="8.185" fill="#a75a05" stroke="#a75a05" stroke-width="2" stroke-dasharray="0"/><ellipse cx="75.385" cy="53.846" rx="8.185" ry="8.185" fill="#a75a05" stroke="#a75a05" stroke-width="2" stroke-dasharray="0"/><ellipse cx="96.923" cy="53.846" rx="8.185" ry="8.185" fill="#a75a05" stroke="#a75a05" stroke-width="2" stroke-dasharray="0"/><ellipse cx="118.462" cy="53.846" rx="8.185" ry="8.185" fill="#a75a05" stroke="#a75a05" stroke-width="2" stroke-dasharray="0"/><path fill="none" stroke="#000" d="M150.769 64.615h107.693M150.769 43.077h107.693M150.769 21.538h107.693M150.769 64.615V21.54M172.308 64.615V21.54M193.846 64.615V21.54M215.385 64.615V21.54M236.923 64.615V21.54M258.462 64.615V21.54" stroke-width="2"/><ellipse cx="161.538" cy="32.308" rx="8.185" ry="8.185" fill="#a75a05" stroke="#a75a05" stroke-width="2" stroke-dasharray="0"/><ellipse cx="183.077" cy="32.308" rx="8.185" ry="8.185" fill="#a75a05" stroke="#a75a05" stroke-width="2" stroke-dasharray="0"/><ellipse cx="204.615" cy="32.308" rx="8.185" ry="8.185" fill="#a75a05" stroke="#a75a05" stroke-width="2" stroke-dasharray="0"/><ellipse cx="226.154" cy="32.308" rx="8.185" ry="8.185" fill="#a75a05" stroke="#a75a05" stroke-width="2" stroke-dasharray="0"/></svg>
