<svg xmlns="http://www.w3.org/2000/svg" width="200" height="200" viewBox="0 0 200.00000000000003 200.00000000000003"><path fill="#d78334" d="M28.662 174.942c-3.022 4.208-12.128 11.734-12.503 11.417-.67-.567 3.979-12.134 7-16.341s3.574-3.122 5.752-1.694c1.99 1.306 2.773 2.41-.25 6.618z"/><path fill="#f4953f" d="M29.038 168.251c-2.293-1.447-2.871-2.546-6.052 1.716-.257.343-.525.739-.799 1.169.57 2.376 2.777 4.15 5.419 4.15.336 0 .663-.034.982-.089.064-.081.129-.163.188-.242 3.181-4.262 2.358-5.382.262-6.704zM18.357 178.803c-1.838 4.063-3.284 8.139-2.9 8.461.227.191 3.815-2.619 7.135-5.711a5.022 5.022 0 0 1-4.235-2.75z"/><path fill="#f4953f" d="M28.019 175.938c-.306.054-.62.087-.943.087-2.536 0-4.655-1.738-5.202-4.066-1.041 1.665-2.191 3.92-3.225 6.179a5.343 5.343 0 0 0 4.501 2.889c1.912-1.761 3.739-3.608 4.869-5.089z"/><path fill="#d78334" d="M29.099 168.719c-1.095-.862-1.486-1.582-2.727-.77-.255.874.177 1.982 1.133 2.711.726.554 1.583.759 2.293.617.535-1.099.229-1.828-.7-2.558z"/><path fill="#64c4ad" d="M39.092 164.663c.448-.823-1.702-1.732-4.05-1.266-1.168.231-2.153.784-2.85 1.281a4.381 4.381 0 0 0-.751.366c1.278-1.92 3.887-6.146 2.54-6.802-1.478-.721-2.732 5.288-3.09 7.187l-.061.049c.079-.491.442-3.286-1.124-5.032-1.351-1.507-2.88-1.866-3.23-.962-.35.901 1.725 1.172 2.815 2.277 1.425 1.444 1.52 3.354 1.525 3.729l-.031.028c-.03-.717-.223-2.314-1.317-2.872-1.613-.823-3.707-.15-4.115.88-.203.513.41.876 1.355.396.944-.479 1.64-1.244 2.838-.603.704.377 1.055 1.653 1.183 2.247-1.302 1.124-2.206 2.881-2.774 4.308l.163.066c.42-.867.987-1.865 1.71-2.781 2.126-2.689 3.963-2.305 5.03-1.603 1.14.753.527 2.298.982 3.061s1.03.535 1.243.002c.305-.768-.23-3.853-2.918-4.173.249-.044.507-.077.77-.095 2.11-.143 3.723 1.111 4.157.312z"/><path fill="#d78334" d="M28.662 138.578c-3.022 4.208-12.128 11.734-12.503 11.417-.67-.567 3.979-12.134 7-16.341s3.574-3.122 5.752-1.694c1.99 1.306 2.773 2.41-.25 6.618z"/><path fill="#f4953f" d="M29.038 131.887c-2.293-1.447-2.871-2.546-6.052 1.716-.257.343-.525.739-.799 1.169.57 2.376 2.777 4.15 5.419 4.15.336 0 .663-.034.982-.089.064-.081.129-.163.188-.242 3.181-4.262 2.358-5.382.262-6.704zM18.357 142.439c-1.838 4.063-3.284 8.139-2.9 8.461.227.191 3.815-2.619 7.135-5.711a5.022 5.022 0 0 1-4.235-2.75z"/><path fill="#f4953f" d="M28.019 139.575c-.306.054-.62.087-.943.087-2.536 0-4.655-1.738-5.202-4.066-1.041 1.665-2.191 3.92-3.225 6.179a5.343 5.343 0 0 0 4.501 2.889c1.912-1.761 3.739-3.608 4.869-5.089z"/><path fill="#d78334" d="M29.099 132.355c-1.095-.862-1.486-1.582-2.727-.77-.255.874.177 1.982 1.133 2.711.726.554 1.583.759 2.293.617.535-1.099.229-1.828-.7-2.558z"/><path fill="#64c4ad" d="M39.092 128.299c.448-.823-1.702-1.732-4.05-1.266-1.168.231-2.153.784-2.85 1.281a4.381 4.381 0 0 0-.751.366c1.278-1.92 3.887-6.146 2.54-6.802-1.478-.721-2.732 5.288-3.09 7.187l-.061.049c.079-.491.442-3.286-1.124-5.032-1.351-1.507-2.88-1.866-3.23-.962-.35.901 1.725 1.172 2.815 2.277 1.425 1.444 1.52 3.354 1.525 3.729l-.031.028c-.03-.717-.223-2.314-1.317-2.872-1.613-.823-3.707-.15-4.115.88-.203.513.41.876 1.355.396.944-.479 1.64-1.244 2.838-.603.704.377 1.055 1.653 1.183 2.247-1.302 1.124-2.206 2.881-2.774 4.308l.163.066c.42-.867.987-1.865 1.71-2.781 2.126-2.689 3.963-2.305 5.03-1.603 1.14.753.527 2.298.982 3.061s1.03.535 1.243.002c.305-.768-.23-3.853-2.918-4.173.249-.044.507-.077.77-.095 2.11-.143 3.723 1.111 4.157.312z"/><path fill="#d78334" d="M28.662 102.214c-3.022 4.208-12.128 11.734-12.503 11.417-.67-.567 3.979-12.134 7-16.34s3.574-3.123 5.752-1.695c1.99 1.306 2.773 2.41-.25 6.618z"/><path fill="#f4953f" d="M29.038 95.524c-2.293-1.447-2.871-2.546-6.052 1.716-.257.343-.525.739-.799 1.169.57 2.376 2.777 4.15 5.419 4.15.336 0 .663-.034.982-.089.064-.081.129-.163.188-.242 3.181-4.262 2.358-5.382.262-6.704zM18.357 106.075c-1.838 4.063-3.284 8.139-2.9 8.461.227.191 3.815-2.619 7.135-5.711a5.022 5.022 0 0 1-4.235-2.75z"/><path fill="#f4953f" d="M28.019 103.211c-.306.054-.62.087-.943.087-2.536 0-4.655-1.738-5.202-4.066-1.041 1.665-2.191 3.92-3.225 6.179a5.343 5.343 0 0 0 4.501 2.889c1.912-1.761 3.739-3.608 4.869-5.089z"/><path fill="#d78334" d="M29.099 95.992c-1.095-.862-1.486-1.582-2.727-.77-.255.874.177 1.982 1.133 2.71.726.555 1.583.76 2.293.618.535-1.1.229-1.828-.7-2.558z"/><path fill="#64c4ad" d="M39.092 91.935c.448-.823-1.702-1.732-4.05-1.266-1.168.231-2.153.784-2.85 1.281a4.381 4.381 0 0 0-.751.366c1.278-1.92 3.887-6.146 2.54-6.802-1.478-.72-2.732 5.288-3.09 7.187l-.061.05c.079-.492.442-3.287-1.124-5.033-1.351-1.507-2.88-1.866-3.23-.962-.35.901 1.725 1.172 2.815 2.277 1.425 1.444 1.52 3.354 1.525 3.73l-.031.027c-.03-.717-.223-2.314-1.317-2.872-1.613-.823-3.707-.15-4.115.88-.203.513.41.876 1.355.396.944-.479 1.64-1.244 2.838-.603.704.377 1.055 1.653 1.183 2.247-1.302 1.124-2.206 2.881-2.774 4.308l.163.066c.42-.867.987-1.865 1.71-2.78 2.126-2.69 3.963-2.306 5.03-1.604 1.14.753.527 2.298.982 3.061.455.763 1.03.535 1.243.002.305-.768-.23-3.853-2.918-4.173.249-.044.507-.077.77-.095 2.11-.143 3.723 1.111 4.157.312z"/><path fill="#d78334" d="M28.662 65.85C25.64 70.06 16.534 77.586 16.159 77.269c-.67-.567 3.979-12.134 7-16.341s3.574-3.122 5.752-1.694c1.99 1.306 2.773 2.41-.25 6.618z"/><path fill="#f4953f" d="M29.038 59.16c-2.293-1.447-2.871-2.546-6.052 1.716-.257.343-.525.74-.799 1.17.57 2.375 2.777 4.15 5.419 4.15.336 0 .663-.035.982-.09.064-.08.129-.163.188-.242 3.181-4.262 2.358-5.382.262-6.704zM18.357 69.712c-1.838 4.063-3.284 8.139-2.9 8.46.227.192 3.815-2.618 7.135-5.71a5.022 5.022 0 0 1-4.235-2.75z"/><path fill="#f4953f" d="M28.019 66.847c-.306.055-.62.088-.943.088-2.536 0-4.655-1.739-5.202-4.067-1.041 1.666-2.191 3.92-3.225 6.18a5.343 5.343 0 0 0 4.501 2.888c1.912-1.76 3.739-3.608 4.869-5.089z"/><path fill="#d78334" d="M29.099 59.628c-1.095-.862-1.486-1.582-2.727-.77-.255.874.177 1.982 1.133 2.71.726.555 1.583.76 2.293.618.535-1.1.229-1.828-.7-2.558z"/><path fill="#64c4ad" d="M39.092 55.572c.448-.823-1.702-1.732-4.05-1.266-1.168.23-2.153.784-2.85 1.28a4.381 4.381 0 0 0-.751.367c1.278-1.92 3.887-6.146 2.54-6.802-1.478-.721-2.732 5.288-3.09 7.187l-.061.049c.079-.491.442-3.286-1.124-5.032-1.351-1.507-2.88-1.866-3.23-.962-.35.9 1.725 1.172 2.815 2.277 1.425 1.444 1.52 3.354 1.525 3.729l-.031.028c-.03-.717-.223-2.314-1.317-2.872-1.613-.823-3.707-.15-4.115.88-.203.513.41.876 1.355.396.944-.48 1.64-1.244 2.838-.603.704.377 1.055 1.653 1.183 2.247-1.302 1.124-2.206 2.88-2.774 4.308l.163.066c.42-.867.987-1.865 1.71-2.781 2.126-2.69 3.963-2.305 5.03-1.603 1.14.753.527 2.298.982 3.06s1.03.536 1.243.003c.305-.768-.23-3.853-2.918-4.173.249-.044.507-.077.77-.095 2.11-.143 3.723 1.11 4.157.312z"/><path fill="#d78334" d="M28.662 29.487c-3.022 4.208-12.128 11.734-12.503 11.417-.67-.567 3.979-12.134 7-16.34s3.574-3.123 5.752-1.695c1.99 1.306 2.773 2.41-.25 6.618z"/><path fill="#f4953f" d="M29.038 22.797c-2.293-1.447-2.871-2.546-6.052 1.716-.257.343-.525.739-.799 1.169.57 2.376 2.777 4.15 5.419 4.15.336 0 .663-.034.982-.09.064-.08.129-.162.188-.241 3.181-4.262 2.358-5.382.262-6.704zM18.357 33.348c-1.838 4.063-3.284 8.139-2.9 8.461.227.191 3.815-2.619 7.135-5.711a5.022 5.022 0 0 1-4.235-2.75z"/><path fill="#f4953f" d="M28.019 30.484c-.306.054-.62.087-.943.087-2.536 0-4.655-1.738-5.202-4.066-1.041 1.665-2.191 3.92-3.225 6.179a5.343 5.343 0 0 0 4.501 2.889c1.912-1.761 3.739-3.608 4.869-5.09z"/><path fill="#d78334" d="M29.099 23.264c-1.095-.862-1.486-1.582-2.727-.77-.255.874.177 1.982 1.133 2.711.726.554 1.583.76 2.293.617.535-1.099.229-1.828-.7-2.558z"/><path fill="#64c4ad" d="M39.092 19.208c.448-.823-1.702-1.732-4.05-1.266-1.168.231-2.153.784-2.85 1.281a4.381 4.381 0 0 0-.751.366c1.278-1.92 3.887-6.146 2.54-6.802-1.478-.72-2.732 5.288-3.09 7.187l-.061.05c.079-.492.442-3.287-1.124-5.033-1.351-1.507-2.88-1.866-3.23-.962-.35.901 1.725 1.172 2.815 2.277 1.425 1.444 1.52 3.354 1.525 3.73l-.031.027c-.03-.717-.223-2.314-1.317-2.872-1.613-.823-3.707-.15-4.115.88-.203.513.41.876 1.355.396.944-.479 1.64-1.244 2.838-.603.704.377 1.055 1.653 1.183 2.247-1.302 1.124-2.206 2.881-2.774 4.308l.163.066c.42-.867.987-1.865 1.71-2.78 2.126-2.69 3.963-2.306 5.03-1.604 1.14.753.527 2.298.982 3.061s1.03.535 1.243.002c.305-.768-.23-3.853-2.918-4.173.249-.044.507-.077.77-.095 2.11-.143 3.723 1.111 4.157.312z"/><path fill="#d78334" d="M65.025 174.942c-3.022 4.208-12.128 11.734-12.503 11.417-.67-.567 3.98-12.134 7.001-16.341s3.573-3.122 5.751-1.694c1.991 1.306 2.773 2.41-.249 6.618z"/><path fill="#f4953f" d="M65.402 168.251c-2.293-1.447-2.871-2.546-6.052 1.716-.257.343-.525.739-.8 1.169.57 2.376 2.778 4.15 5.42 4.15.336 0 .663-.034.982-.089.064-.081.129-.163.188-.242 3.18-4.262 2.358-5.382.262-6.704zM54.72 178.803c-1.838 4.063-3.284 8.139-2.9 8.461.227.191 3.815-2.619 7.135-5.711a5.022 5.022 0 0 1-4.235-2.75z"/><path fill="#f4953f" d="M64.383 175.938c-.306.054-.62.087-.943.087-2.536 0-4.655-1.738-5.202-4.066-1.041 1.665-2.191 3.92-3.225 6.179a5.343 5.343 0 0 0 4.5 2.889c1.913-1.761 3.74-3.608 4.87-5.089z"/><path fill="#d78334" d="M65.462 168.719c-1.095-.862-1.486-1.582-2.727-.77-.255.874.177 1.982 1.133 2.711.726.554 1.583.759 2.293.617.535-1.099.23-1.828-.699-2.558z"/><path fill="#64c4ad" d="M75.456 164.663c.447-.823-1.703-1.732-4.05-1.266-1.169.231-2.154.784-2.85 1.281a4.381 4.381 0 0 0-.751.366c1.277-1.92 3.886-6.146 2.54-6.802-1.478-.721-2.733 5.288-3.09 7.187l-.061.049c.078-.491.441-3.286-1.124-5.032-1.351-1.507-2.88-1.866-3.23-.962-.35.901 1.724 1.172 2.814 2.277 1.425 1.444 1.522 3.354 1.526 3.729l-.032.028c-.03-.717-.222-2.314-1.316-2.872-1.613-.823-3.707-.15-4.115.88-.203.513.41.876 1.355.396.944-.479 1.64-1.244 2.837-.603.704.377 1.055 1.653 1.183 2.247-1.302 1.124-2.206 2.881-2.773 4.308l.162.066c.422-.867.988-1.865 1.712-2.781 2.124-2.689 3.962-2.305 5.029-1.603 1.14.753.527 2.298.982 3.061s1.03.535 1.243.002c.304-.768-.23-3.853-2.919-4.173.25-.044.507-.077.771-.095 2.11-.143 3.722 1.111 4.156.312z"/><path fill="#d78334" d="M65.025 138.578c-3.022 4.208-12.128 11.734-12.503 11.417-.67-.567 3.98-12.134 7.001-16.341s3.573-3.122 5.751-1.694c1.991 1.306 2.773 2.41-.249 6.618z"/><path fill="#f4953f" d="M65.402 131.887c-2.293-1.447-2.871-2.546-6.052 1.716-.257.343-.525.739-.8 1.169.57 2.376 2.778 4.15 5.42 4.15.336 0 .663-.034.982-.089.064-.081.129-.163.188-.242 3.18-4.262 2.358-5.382.262-6.704zM54.72 142.439c-1.838 4.063-3.284 8.139-2.9 8.461.227.191 3.815-2.619 7.135-5.711a5.022 5.022 0 0 1-4.235-2.75z"/><path fill="#f4953f" d="M64.383 139.575c-.306.054-.62.087-.943.087-2.536 0-4.655-1.738-5.202-4.066-1.041 1.665-2.191 3.92-3.225 6.179a5.343 5.343 0 0 0 4.5 2.889c1.913-1.761 3.74-3.608 4.87-5.089z"/><path fill="#d78334" d="M65.462 132.355c-1.095-.862-1.486-1.582-2.727-.77-.255.874.177 1.982 1.133 2.711.726.554 1.583.759 2.293.617.535-1.099.23-1.828-.699-2.558z"/><path fill="#64c4ad" d="M75.456 128.299c.447-.823-1.703-1.732-4.05-1.266-1.169.231-2.154.784-2.85 1.281a4.381 4.381 0 0 0-.751.366c1.277-1.92 3.886-6.146 2.54-6.802-1.478-.721-2.733 5.288-3.09 7.187l-.061.049c.078-.491.441-3.286-1.124-5.032-1.351-1.507-2.88-1.866-3.23-.962-.35.901 1.724 1.172 2.814 2.277 1.425 1.444 1.522 3.354 1.526 3.729l-.032.028c-.03-.717-.222-2.314-1.316-2.872-1.613-.823-3.707-.15-4.115.88-.203.513.41.876 1.355.396.944-.479 1.64-1.244 2.837-.603.704.377 1.055 1.653 1.183 2.247-1.302 1.124-2.206 2.881-2.773 4.308l.162.066c.422-.867.988-1.865 1.712-2.781 2.124-2.689 3.962-2.305 5.029-1.603 1.14.753.527 2.298.982 3.061s1.03.535 1.243.002c.304-.768-.23-3.853-2.919-4.173.25-.044.507-.077.771-.095 2.11-.143 3.722 1.111 4.156.312z"/><path fill="#d78334" d="M65.025 102.214c-3.022 4.208-12.128 11.734-12.503 11.417-.67-.567 3.98-12.134 7.001-16.34s3.573-3.123 5.751-1.695c1.991 1.306 2.773 2.41-.249 6.618z"/><path fill="#f4953f" d="M65.402 95.524c-2.293-1.447-2.871-2.546-6.052 1.716-.257.343-.525.739-.8 1.169.57 2.376 2.778 4.15 5.42 4.15.336 0 .663-.034.982-.089.064-.081.129-.163.188-.242 3.18-4.262 2.358-5.382.262-6.704zM54.72 106.075c-1.838 4.063-3.284 8.139-2.9 8.461.227.191 3.815-2.619 7.135-5.711a5.022 5.022 0 0 1-4.235-2.75z"/><path fill="#f4953f" d="M64.383 103.211c-.306.054-.62.087-.943.087-2.536 0-4.655-1.738-5.202-4.066-1.041 1.665-2.191 3.92-3.225 6.179a5.343 5.343 0 0 0 4.5 2.889c1.913-1.761 3.74-3.608 4.87-5.089z"/><path fill="#d78334" d="M65.462 95.992c-1.095-.862-1.486-1.582-2.727-.77-.255.874.177 1.982 1.133 2.71.726.555 1.583.76 2.293.618.535-1.1.23-1.828-.699-2.558z"/><path fill="#64c4ad" d="M75.456 91.935c.447-.823-1.703-1.732-4.05-1.266-1.169.231-2.154.784-2.85 1.281a4.381 4.381 0 0 0-.751.366c1.277-1.92 3.886-6.146 2.54-6.802-1.478-.72-2.733 5.288-3.09 7.187l-.061.05c.078-.492.441-3.287-1.124-5.033-1.351-1.507-2.88-1.866-3.23-.962-.35.901 1.724 1.172 2.814 2.277 1.425 1.444 1.522 3.354 1.526 3.73l-.032.027c-.03-.717-.222-2.314-1.316-2.872-1.613-.823-3.707-.15-4.115.88-.203.513.41.876 1.355.396.944-.479 1.64-1.244 2.837-.603.704.377 1.055 1.653 1.183 2.247-1.302 1.124-2.206 2.881-2.773 4.308l.162.066c.422-.867.988-1.865 1.712-2.78 2.124-2.69 3.962-2.306 5.029-1.604 1.14.753.527 2.298.982 3.061.455.763 1.03.535 1.243.002.304-.768-.23-3.853-2.919-4.173.25-.044.507-.077.771-.095 2.11-.143 3.722 1.111 4.156.312z"/><path fill="#d78334" d="M65.025 65.85c-3.022 4.209-12.128 11.735-12.503 11.418-.67-.567 3.98-12.134 7.001-16.341s3.573-3.122 5.751-1.694c1.991 1.306 2.773 2.41-.249 6.618z"/><path fill="#f4953f" d="M65.402 59.16c-2.293-1.447-2.871-2.546-6.052 1.716-.257.343-.525.74-.8 1.17.57 2.375 2.778 4.15 5.42 4.15.336 0 .663-.035.982-.09.064-.08.129-.163.188-.242 3.18-4.262 2.358-5.382.262-6.704zM54.72 69.712c-1.838 4.063-3.284 8.139-2.9 8.46.227.192 3.815-2.618 7.135-5.71a5.022 5.022 0 0 1-4.235-2.75z"/><path fill="#f4953f" d="M64.383 66.847c-.306.055-.62.088-.943.088-2.536 0-4.655-1.739-5.202-4.067-1.041 1.666-2.191 3.92-3.225 6.18a5.343 5.343 0 0 0 4.5 2.888c1.913-1.76 3.74-3.608 4.87-5.089z"/><path fill="#d78334" d="M65.462 59.628c-1.095-.862-1.486-1.582-2.727-.77-.255.874.177 1.982 1.133 2.71.726.555 1.583.76 2.293.618.535-1.1.23-1.828-.699-2.558z"/><path fill="#64c4ad" d="M75.456 55.572c.447-.823-1.703-1.732-4.05-1.266-1.169.23-2.154.784-2.85 1.28a4.381 4.381 0 0 0-.751.367c1.277-1.92 3.886-6.146 2.54-6.802-1.478-.721-2.733 5.288-3.09 7.187l-.061.049c.078-.491.441-3.286-1.124-5.032-1.351-1.507-2.88-1.866-3.23-.962-.35.9 1.724 1.172 2.814 2.277 1.425 1.444 1.522 3.354 1.526 3.729l-.032.028c-.03-.717-.222-2.314-1.316-2.872-1.613-.823-3.707-.15-4.115.88-.203.513.41.876 1.355.396.944-.48 1.64-1.244 2.837-.603.704.377 1.055 1.653 1.183 2.247-1.302 1.124-2.206 2.88-2.773 4.308l.162.066c.422-.867.988-1.865 1.712-2.781 2.124-2.69 3.962-2.305 5.029-1.603 1.14.753.527 2.298.982 3.06s1.03.536 1.243.003c.304-.768-.23-3.853-2.919-4.173.25-.044.507-.077.771-.095 2.11-.143 3.722 1.11 4.156.312z"/><path fill="#d78334" d="M65.025 29.487c-3.022 4.208-12.128 11.734-12.503 11.417-.67-.567 3.98-12.134 7.001-16.34s3.573-3.123 5.751-1.695c1.991 1.306 2.773 2.41-.249 6.618z"/><path fill="#f4953f" d="M65.402 22.797c-2.293-1.447-2.871-2.546-6.052 1.716-.257.343-.525.739-.8 1.169.57 2.376 2.778 4.15 5.42 4.15.336 0 .663-.034.982-.09.064-.08.129-.162.188-.241 3.18-4.262 2.358-5.382.262-6.704zM54.72 33.348c-1.838 4.063-3.284 8.139-2.9 8.461.227.191 3.815-2.619 7.135-5.711a5.022 5.022 0 0 1-4.235-2.75z"/><path fill="#f4953f" d="M64.383 30.484c-.306.054-.62.087-.943.087-2.536 0-4.655-1.738-5.202-4.066-1.041 1.665-2.191 3.92-3.225 6.179a5.343 5.343 0 0 0 4.5 2.889c1.913-1.761 3.74-3.608 4.87-5.09z"/><path fill="#d78334" d="M65.462 23.264c-1.095-.862-1.486-1.582-2.727-.77-.255.874.177 1.982 1.133 2.711.726.554 1.583.76 2.293.617.535-1.099.23-1.828-.699-2.558z"/><path fill="#64c4ad" d="M75.456 19.208c.447-.823-1.703-1.732-4.05-1.266-1.169.231-2.154.784-2.85 1.281a4.381 4.381 0 0 0-.751.366c1.277-1.92 3.886-6.146 2.54-6.802-1.478-.72-2.733 5.288-3.09 7.187l-.061.05c.078-.492.441-3.287-1.124-5.033-1.351-1.507-2.88-1.866-3.23-.962-.35.901 1.724 1.172 2.814 2.277 1.425 1.444 1.522 3.354 1.526 3.73l-.032.027c-.03-.717-.222-2.314-1.316-2.872-1.613-.823-3.707-.15-4.115.88-.203.513.41.876 1.355.396.944-.479 1.64-1.244 2.837-.603.704.377 1.055 1.653 1.183 2.247-1.302 1.124-2.206 2.881-2.773 4.308l.162.066c.422-.867.988-1.865 1.712-2.78 2.124-2.69 3.962-2.306 5.029-1.604 1.14.753.527 2.298.982 3.061s1.03.535 1.243.002c.304-.768-.23-3.853-2.919-4.173.25-.044.507-.077.771-.095 2.11-.143 3.722 1.111 4.156.312z"/><path fill="#d78334" d="M137.753 174.942c-3.022 4.208-12.128 11.734-12.503 11.417-.67-.567 3.979-12.134 7.001-16.341s3.573-3.122 5.751-1.694c1.991 1.306 2.773 2.41-.249 6.618z"/><path fill="#f4953f" d="M138.129 168.251c-2.293-1.447-2.871-2.546-6.052 1.716-.257.343-.525.739-.799 1.169.57 2.376 2.777 4.15 5.419 4.15.336 0 .663-.034.982-.089.064-.081.129-.163.188-.242 3.181-4.262 2.358-5.382.262-6.704zM127.447 178.803c-1.838 4.063-3.284 8.139-2.9 8.461.227.191 3.815-2.619 7.135-5.711a5.022 5.022 0 0 1-4.235-2.75z"/><path fill="#f4953f" d="M137.11 175.938c-.306.054-.62.087-.943.087-2.536 0-4.655-1.738-5.202-4.066-1.041 1.665-2.191 3.92-3.225 6.179a5.343 5.343 0 0 0 4.501 2.889c1.912-1.761 3.739-3.608 4.869-5.089z"/><path fill="#d78334" d="M138.19 168.719c-1.095-.862-1.486-1.582-2.727-.77-.255.874.177 1.982 1.133 2.711.726.554 1.583.759 2.293.617.535-1.099.229-1.828-.699-2.558z"/><path fill="#64c4ad" d="M148.183 164.663c.448-.823-1.702-1.732-4.05-1.266-1.168.231-2.153.784-2.85 1.281a4.381 4.381 0 0 0-.751.366c1.278-1.92 3.887-6.146 2.54-6.802-1.478-.721-2.732 5.288-3.089 7.187l-.062.049c.079-.491.442-3.286-1.124-5.032-1.351-1.507-2.88-1.866-3.23-.962-.35.901 1.725 1.172 2.815 2.277 1.425 1.444 1.521 3.354 1.525 3.729l-.031.028c-.03-.717-.223-2.314-1.317-2.872-1.613-.823-3.707-.15-4.115.88-.203.513.411.876 1.355.396.944-.479 1.64-1.244 2.838-.603.704.377 1.055 1.653 1.183 2.247-1.302 1.124-2.206 2.881-2.774 4.308l.163.066c.421-.867.987-1.865 1.711-2.781 2.125-2.689 3.962-2.305 5.029-1.603 1.14.753.527 2.298.982 3.061s1.03.535 1.243.002c.305-.768-.229-3.853-2.918-4.173.249-.044.507-.077.771-.095 2.109-.143 3.722 1.111 4.156.312z"/><path fill="#d78334" d="M137.753 138.578c-3.022 4.208-12.128 11.734-12.503 11.417-.67-.567 3.979-12.134 7.001-16.341s3.573-3.122 5.751-1.694c1.991 1.306 2.773 2.41-.249 6.618z"/><path fill="#f4953f" d="M138.129 131.887c-2.293-1.447-2.871-2.546-6.052 1.716-.257.343-.525.739-.799 1.169.57 2.376 2.777 4.15 5.419 4.15.336 0 .663-.034.982-.089.064-.081.129-.163.188-.242 3.181-4.262 2.358-5.382.262-6.704zM127.447 142.439c-1.838 4.063-3.284 8.139-2.9 8.461.227.191 3.815-2.619 7.135-5.711a5.022 5.022 0 0 1-4.235-2.75z"/><path fill="#f4953f" d="M137.11 139.575c-.306.054-.62.087-.943.087-2.536 0-4.655-1.738-5.202-4.066-1.041 1.665-2.191 3.92-3.225 6.179a5.343 5.343 0 0 0 4.501 2.889c1.912-1.761 3.739-3.608 4.869-5.089z"/><path fill="#d78334" d="M138.19 132.355c-1.095-.862-1.486-1.582-2.727-.77-.255.874.177 1.982 1.133 2.711.726.554 1.583.759 2.293.617.535-1.099.229-1.828-.699-2.558z"/><path fill="#64c4ad" d="M148.183 128.299c.448-.823-1.702-1.732-4.05-1.266-1.168.231-2.153.784-2.85 1.281a4.381 4.381 0 0 0-.751.366c1.278-1.92 3.887-6.146 2.54-6.802-1.478-.721-2.732 5.288-3.089 7.187l-.062.049c.079-.491.442-3.286-1.124-5.032-1.351-1.507-2.88-1.866-3.23-.962-.35.901 1.725 1.172 2.815 2.277 1.425 1.444 1.521 3.354 1.525 3.729l-.031.028c-.03-.717-.223-2.314-1.317-2.872-1.613-.823-3.707-.15-4.115.88-.203.513.411.876 1.355.396.944-.479 1.64-1.244 2.838-.603.704.377 1.055 1.653 1.183 2.247-1.302 1.124-2.206 2.881-2.774 4.308l.163.066c.421-.867.987-1.865 1.711-2.781 2.125-2.689 3.962-2.305 5.029-1.603 1.14.753.527 2.298.982 3.061s1.03.535 1.243.002c.305-.768-.229-3.853-2.918-4.173.249-.044.507-.077.771-.095 2.109-.143 3.722 1.111 4.156.312z"/><path fill="#d78334" d="M137.753 102.214c-3.022 4.208-12.128 11.734-12.503 11.417-.67-.567 3.979-12.134 7.001-16.34s3.573-3.123 5.751-1.695c1.991 1.306 2.773 2.41-.249 6.618z"/><path fill="#f4953f" d="M138.129 95.524c-2.293-1.447-2.871-2.546-6.052 1.716-.257.343-.525.739-.799 1.169.57 2.376 2.777 4.15 5.419 4.15.336 0 .663-.034.982-.089.064-.081.129-.163.188-.242 3.181-4.262 2.358-5.382.262-6.704zM127.447 106.075c-1.838 4.063-3.284 8.139-2.9 8.461.227.191 3.815-2.619 7.135-5.711a5.022 5.022 0 0 1-4.235-2.75z"/><path fill="#f4953f" d="M137.11 103.211c-.306.054-.62.087-.943.087-2.536 0-4.655-1.738-5.202-4.066-1.041 1.665-2.191 3.92-3.225 6.179a5.343 5.343 0 0 0 4.501 2.889c1.912-1.761 3.739-3.608 4.869-5.089z"/><path fill="#d78334" d="M138.19 95.992c-1.095-.862-1.486-1.582-2.727-.77-.255.874.177 1.982 1.133 2.71.726.555 1.583.76 2.293.618.535-1.1.229-1.828-.699-2.558z"/><path fill="#64c4ad" d="M148.183 91.935c.448-.823-1.702-1.732-4.05-1.266-1.168.231-2.153.784-2.85 1.281a4.381 4.381 0 0 0-.751.366c1.278-1.92 3.887-6.146 2.54-6.802-1.478-.72-2.732 5.288-3.089 7.187l-.062.05c.079-.492.442-3.287-1.124-5.033-1.351-1.507-2.88-1.866-3.23-.962-.35.901 1.725 1.172 2.815 2.277 1.425 1.444 1.521 3.354 1.525 3.73l-.031.027c-.03-.717-.223-2.314-1.317-2.872-1.613-.823-3.707-.15-4.115.88-.203.513.411.876 1.355.396.944-.479 1.64-1.244 2.838-.603.704.377 1.055 1.653 1.183 2.247-1.302 1.124-2.206 2.881-2.774 4.308l.163.066c.421-.867.987-1.865 1.711-2.78 2.125-2.69 3.962-2.306 5.029-1.604 1.14.753.527 2.298.982 3.061.455.763 1.03.535 1.243.002.305-.768-.229-3.853-2.918-4.173.249-.044.507-.077.771-.095 2.109-.143 3.722 1.111 4.156.312z"/><path fill="#d78334" d="M137.753 65.85c-3.022 4.209-12.128 11.735-12.503 11.418-.67-.567 3.979-12.134 7.001-16.341s3.573-3.122 5.751-1.694c1.991 1.306 2.773 2.41-.249 6.618z"/><path fill="#f4953f" d="M138.129 59.16c-2.293-1.447-2.871-2.546-6.052 1.716-.257.343-.525.74-.799 1.17.57 2.375 2.777 4.15 5.419 4.15.336 0 .663-.035.982-.09.064-.08.129-.163.188-.242 3.181-4.262 2.358-5.382.262-6.704zM127.447 69.712c-1.838 4.063-3.284 8.139-2.9 8.46.227.192 3.815-2.618 7.135-5.71a5.022 5.022 0 0 1-4.235-2.75z"/><path fill="#f4953f" d="M137.11 66.847c-.306.055-.62.088-.943.088-2.536 0-4.655-1.739-5.202-4.067-1.041 1.666-2.191 3.92-3.225 6.18a5.343 5.343 0 0 0 4.501 2.888c1.912-1.76 3.739-3.608 4.869-5.089z"/><path fill="#d78334" d="M138.19 59.628c-1.095-.862-1.486-1.582-2.727-.77-.255.874.177 1.982 1.133 2.71.726.555 1.583.76 2.293.618.535-1.1.229-1.828-.699-2.558z"/><path fill="#64c4ad" d="M148.183 55.572c.448-.823-1.702-1.732-4.05-1.266-1.168.23-2.153.784-2.85 1.28a4.381 4.381 0 0 0-.751.367c1.278-1.92 3.887-6.146 2.54-6.802-1.478-.721-2.732 5.288-3.089 7.187l-.062.049c.079-.491.442-3.286-1.124-5.032-1.351-1.507-2.88-1.866-3.23-.962-.35.9 1.725 1.172 2.815 2.277 1.425 1.444 1.521 3.354 1.525 3.729l-.031.028c-.03-.717-.223-2.314-1.317-2.872-1.613-.823-3.707-.15-4.115.88-.203.513.411.876 1.355.396s1.64-1.244 2.838-.603c.704.377 1.055 1.653 1.183 2.247-1.302 1.124-2.206 2.88-2.774 4.308l.163.066c.421-.867.987-1.865 1.711-2.781 2.125-2.69 3.962-2.305 5.029-1.603 1.14.753.527 2.298.982 3.06s1.03.536 1.243.003c.305-.768-.229-3.853-2.918-4.173.249-.044.507-.077.771-.095 2.109-.143 3.722 1.11 4.156.312z"/><path fill="#d78334" d="M137.753 29.487c-3.022 4.208-12.128 11.734-12.503 11.417-.67-.567 3.979-12.134 7.001-16.34s3.573-3.123 5.751-1.695c1.991 1.306 2.773 2.41-.249 6.618z"/><path fill="#f4953f" d="M138.129 22.797c-2.293-1.447-2.871-2.546-6.052 1.716-.257.343-.525.739-.799 1.169.57 2.376 2.777 4.15 5.419 4.15.336 0 .663-.034.982-.09.064-.08.129-.162.188-.241 3.181-4.262 2.358-5.382.262-6.704zM127.447 33.348c-1.838 4.063-3.284 8.139-2.9 8.461.227.191 3.815-2.619 7.135-5.711a5.022 5.022 0 0 1-4.235-2.75z"/><path fill="#f4953f" d="M137.11 30.484c-.306.054-.62.087-.943.087-2.536 0-4.655-1.738-5.202-4.066-1.041 1.665-2.191 3.92-3.225 6.179a5.343 5.343 0 0 0 4.501 2.889c1.912-1.761 3.739-3.608 4.869-5.09z"/><path fill="#d78334" d="M138.19 23.264c-1.095-.862-1.486-1.582-2.727-.77-.255.874.177 1.982 1.133 2.711.726.554 1.583.76 2.293.617.535-1.099.229-1.828-.699-2.558z"/><path fill="#64c4ad" d="M148.183 19.208c.448-.823-1.702-1.732-4.05-1.266-1.168.231-2.153.784-2.85 1.281a4.381 4.381 0 0 0-.751.366c1.278-1.92 3.887-6.146 2.54-6.802-1.478-.72-2.732 5.288-3.089 7.187l-.062.05c.079-.492.442-3.287-1.124-5.033-1.351-1.507-2.88-1.866-3.23-.962-.35.901 1.725 1.172 2.815 2.277 1.425 1.444 1.521 3.354 1.525 3.73l-.031.027c-.03-.717-.223-2.314-1.317-2.872-1.613-.823-3.707-.15-4.115.88-.203.513.411.876 1.355.396.944-.479 1.64-1.244 2.838-.603.704.377 1.055 1.653 1.183 2.247-1.302 1.124-2.206 2.881-2.774 4.308l.163.066c.421-.867.987-1.865 1.711-2.78 2.125-2.69 3.962-2.306 5.029-1.604 1.14.753.527 2.298.982 3.061s1.03.535 1.243.002c.305-.768-.229-3.853-2.918-4.173.249-.044.507-.077.771-.095 2.109-.143 3.722 1.111 4.156.312z"/><path fill="#d78334" d="M174.116 174.942c-3.022 4.208-12.128 11.734-12.503 11.417-.67-.567 3.979-12.134 7.001-16.341s3.573-3.122 5.751-1.694c1.991 1.306 2.773 2.41-.249 6.618z"/><path fill="#f4953f" d="M174.493 168.251c-2.293-1.447-2.871-2.546-6.052 1.716-.257.343-.525.739-.799 1.169.57 2.376 2.777 4.15 5.419 4.15.336 0 .663-.034.982-.089.064-.081.129-.163.188-.242 3.181-4.262 2.358-5.382.262-6.704zM163.811 178.803c-1.838 4.063-3.284 8.139-2.9 8.461.227.191 3.815-2.619 7.135-5.711a5.022 5.022 0 0 1-4.235-2.75z"/><path fill="#f4953f" d="M173.474 175.938c-.306.054-.62.087-.943.087-2.536 0-4.655-1.738-5.202-4.066-1.041 1.665-2.191 3.92-3.225 6.179a5.343 5.343 0 0 0 4.501 2.889c1.912-1.761 3.739-3.608 4.869-5.089z"/><path fill="#d78334" d="M174.553 168.719c-1.095-.862-1.486-1.582-2.727-.77-.255.874.177 1.982 1.133 2.711.726.554 1.583.759 2.293.617.535-1.099.229-1.828-.699-2.558z"/><path fill="#64c4ad" d="M184.546 164.663c.448-.823-1.702-1.732-4.05-1.266-1.168.231-2.153.784-2.85 1.281a4.381 4.381 0 0 0-.751.366c1.278-1.92 3.887-6.146 2.54-6.802-1.478-.721-2.732 5.288-3.089 7.187l-.062.049c.079-.491.442-3.286-1.124-5.032-1.351-1.507-2.88-1.866-3.23-.962-.35.901 1.725 1.172 2.815 2.277 1.425 1.444 1.521 3.354 1.525 3.729l-.031.028c-.03-.717-.223-2.314-1.317-2.872-1.613-.823-3.707-.15-4.115.88-.203.513.411.876 1.355.396.944-.479 1.64-1.244 2.838-.603.704.377 1.055 1.653 1.183 2.247-1.302 1.124-2.206 2.881-2.774 4.308l.163.066c.421-.867.987-1.865 1.711-2.781 2.125-2.689 3.962-2.305 5.029-1.603 1.14.753.527 2.298.982 3.061s1.03.535 1.243.002c.305-.768-.229-3.853-2.918-4.173.249-.044.507-.077.771-.095 2.109-.143 3.722 1.111 4.156.312z"/></svg>
