<svg xmlns="http://www.w3.org/2000/svg" width="200" height="200" viewBox="0 0 200.00000000000003 200.00000000000003"><ellipse cx="27.273" cy="172.727" rx="14.545" ry="14.545" fill="#deb958"/><ellipse cx="28.1" cy="171.9" rx="13.718" ry="13.718" fill="#eec65e"/><ellipse cx="22.692" cy="171.9" rx="1.357" ry="1.357" fill="#deb958"/><ellipse cx="30.892" cy="165.517" rx="2.792" ry="2.792" fill="#deb958"/><ellipse cx="36.332" cy="174.616" rx="1.909" ry="1.909" fill="#deb958"/><ellipse cx="27.234" cy="180.436" rx="1.794" ry="1.794" fill="#deb958"/><ellipse cx="16.176" cy="176.078" rx="1.794" ry="1.794" fill="#deb958"/><ellipse cx="21.729" cy="162.726" rx="1.794" ry="1.794" fill="#deb958"/><ellipse cx="36.001" cy="182.014" rx="1.578" ry="1.578" fill="#deb958"/><ellipse cx="39.134" cy="166.875" rx="1.357" ry="1.357" fill="#deb958"/><ellipse cx="31.389" cy="165.517" rx="2.152" ry="2.152" fill="#7a3440"/><ellipse cx="21.729" cy="163.366" rx="1.505" ry="1.505" fill="#7a3440"/><ellipse cx="27.558" cy="180.725" rx="1.505" ry="1.505" fill="#7a3440"/><ellipse cx="23.13" cy="172.314" rx="1.112" ry="1.112" fill="#7a3440"/><ellipse cx="16.176" cy="176.078" rx="1.347" ry="1.347" fill="#7a3440"/><ellipse cx="36.332" cy="174.616" rx="1.347" ry="1.347" fill="#7a3440"/><ellipse cx="36.266" cy="182.127" rx="1.281" ry="1.245" fill="#7a3440"/><ellipse cx="38.693" cy="166.786" rx="1.281" ry="1.245" fill="#7a3440"/><ellipse cx="27.273" cy="136.364" rx="14.545" ry="14.545" fill="#deb958"/><ellipse cx="28.1" cy="135.536" rx="13.718" ry="13.718" fill="#eec65e"/><ellipse cx="22.692" cy="135.536" rx="1.357" ry="1.357" fill="#deb958"/><ellipse cx="30.892" cy="129.154" rx="2.792" ry="2.792" fill="#deb958"/><ellipse cx="36.332" cy="138.252" rx="1.909" ry="1.909" fill="#deb958"/><ellipse cx="27.234" cy="144.072" rx="1.794" ry="1.794" fill="#deb958"/><ellipse cx="16.176" cy="139.714" rx="1.794" ry="1.794" fill="#deb958"/><ellipse cx="21.729" cy="126.362" rx="1.794" ry="1.794" fill="#deb958"/><ellipse cx="36.001" cy="145.65" rx="1.578" ry="1.578" fill="#deb958"/><ellipse cx="39.134" cy="130.511" rx="1.357" ry="1.357" fill="#deb958"/><ellipse cx="31.389" cy="129.154" rx="2.152" ry="2.152" fill="#7a3440"/><ellipse cx="21.729" cy="127.002" rx="1.505" ry="1.505" fill="#7a3440"/><ellipse cx="27.558" cy="144.361" rx="1.505" ry="1.505" fill="#7a3440"/><ellipse cx="23.13" cy="135.95" rx="1.112" ry="1.112" fill="#7a3440"/><ellipse cx="16.176" cy="139.714" rx="1.347" ry="1.347" fill="#7a3440"/><ellipse cx="36.332" cy="138.252" rx="1.347" ry="1.347" fill="#7a3440"/><ellipse cx="36.266" cy="145.764" rx="1.281" ry="1.245" fill="#7a3440"/><ellipse cx="38.693" cy="130.423" rx="1.281" ry="1.245" fill="#7a3440"/><ellipse cx="27.273" cy="100" rx="14.545" ry="14.545" fill="#deb958"/><ellipse cx="28.1" cy="99.172" rx="13.718" ry="13.718" fill="#eec65e"/><ellipse cx="22.692" cy="99.172" rx="1.357" ry="1.357" fill="#deb958"/><ellipse cx="30.892" cy="92.79" rx="2.792" ry="2.792" fill="#deb958"/><ellipse cx="36.332" cy="101.888" rx="1.909" ry="1.909" fill="#deb958"/><ellipse cx="27.234" cy="107.709" rx="1.794" ry="1.794" fill="#deb958"/><ellipse cx="16.176" cy="103.351" rx="1.794" ry="1.794" fill="#deb958"/><ellipse cx="21.729" cy="89.998" rx="1.794" ry="1.794" fill="#deb958"/><ellipse cx="36.001" cy="109.287" rx="1.578" ry="1.578" fill="#deb958"/><ellipse cx="39.134" cy="94.147" rx="1.357" ry="1.357" fill="#deb958"/><ellipse cx="31.389" cy="92.79" rx="2.152" ry="2.152" fill="#7a3440"/><ellipse cx="21.729" cy="90.638" rx="1.505" ry="1.505" fill="#7a3440"/><ellipse cx="27.558" cy="107.998" rx="1.505" ry="1.505" fill="#7a3440"/><ellipse cx="23.13" cy="99.586" rx="1.112" ry="1.112" fill="#7a3440"/><ellipse cx="16.176" cy="103.351" rx="1.347" ry="1.347" fill="#7a3440"/><ellipse cx="36.332" cy="101.888" rx="1.347" ry="1.347" fill="#7a3440"/><ellipse cx="36.266" cy="109.4" rx="1.281" ry="1.245" fill="#7a3440"/><ellipse cx="38.693" cy="94.059" rx="1.281" ry="1.245" fill="#7a3440"/><ellipse cx="27.273" cy="63.636" rx="14.545" ry="14.545" fill="#deb958"/><ellipse cx="28.1" cy="62.809" rx="13.718" ry="13.718" fill="#eec65e"/><ellipse cx="22.692" cy="62.809" rx="1.357" ry="1.357" fill="#deb958"/><ellipse cx="30.892" cy="56.427" rx="2.792" ry="2.792" fill="#deb958"/><ellipse cx="36.332" cy="65.525" rx="1.909" ry="1.909" fill="#deb958"/><ellipse cx="27.234" cy="71.345" rx="1.794" ry="1.794" fill="#deb958"/><ellipse cx="16.176" cy="66.987" rx="1.794" ry="1.794" fill="#deb958"/><ellipse cx="21.729" cy="53.635" rx="1.794" ry="1.794" fill="#deb958"/><ellipse cx="36.001" cy="72.923" rx="1.578" ry="1.578" fill="#deb958"/><ellipse cx="39.134" cy="57.784" rx="1.357" ry="1.357" fill="#deb958"/><ellipse cx="31.389" cy="56.427" rx="2.152" ry="2.152" fill="#7a3440"/><ellipse cx="21.729" cy="54.275" rx="1.505" ry="1.505" fill="#7a3440"/><ellipse cx="27.558" cy="71.634" rx="1.505" ry="1.505" fill="#7a3440"/><ellipse cx="23.13" cy="63.223" rx="1.112" ry="1.112" fill="#7a3440"/><ellipse cx="16.176" cy="66.987" rx="1.347" ry="1.347" fill="#7a3440"/><ellipse cx="36.332" cy="65.525" rx="1.347" ry="1.347" fill="#7a3440"/><ellipse cx="36.266" cy="73.036" rx="1.281" ry="1.245" fill="#7a3440"/><ellipse cx="38.693" cy="57.696" rx="1.281" ry="1.245" fill="#7a3440"/><ellipse cx="27.273" cy="27.273" rx="14.545" ry="14.545" fill="#deb958"/><ellipse cx="28.1" cy="26.445" rx="13.718" ry="13.718" fill="#eec65e"/><ellipse cx="22.692" cy="26.445" rx="1.357" ry="1.357" fill="#deb958"/><ellipse cx="30.892" cy="20.063" rx="2.792" ry="2.792" fill="#deb958"/><ellipse cx="36.332" cy="29.161" rx="1.909" ry="1.909" fill="#deb958"/><ellipse cx="27.234" cy="34.981" rx="1.794" ry="1.794" fill="#deb958"/><ellipse cx="16.176" cy="30.623" rx="1.794" ry="1.794" fill="#deb958"/><ellipse cx="21.729" cy="17.271" rx="1.794" ry="1.794" fill="#deb958"/><ellipse cx="36.001" cy="36.559" rx="1.578" ry="1.578" fill="#deb958"/><ellipse cx="39.134" cy="21.42" rx="1.357" ry="1.357" fill="#deb958"/><ellipse cx="31.389" cy="20.063" rx="2.152" ry="2.152" fill="#7a3440"/><ellipse cx="21.729" cy="17.911" rx="1.505" ry="1.505" fill="#7a3440"/><ellipse cx="27.558" cy="35.27" rx="1.505" ry="1.505" fill="#7a3440"/><ellipse cx="23.13" cy="26.859" rx="1.112" ry="1.112" fill="#7a3440"/><ellipse cx="16.176" cy="30.623" rx="1.347" ry="1.347" fill="#7a3440"/><ellipse cx="36.332" cy="29.161" rx="1.347" ry="1.347" fill="#7a3440"/><ellipse cx="36.266" cy="36.673" rx="1.281" ry="1.245" fill="#7a3440"/><ellipse cx="38.693" cy="21.332" rx="1.281" ry="1.245" fill="#7a3440"/><ellipse cx="63.636" cy="172.727" rx="14.545" ry="14.545" fill="#deb958"/><ellipse cx="64.464" cy="171.9" rx="13.718" ry="13.718" fill="#eec65e"/><ellipse cx="59.056" cy="171.9" rx="1.357" ry="1.357" fill="#deb958"/><ellipse cx="67.256" cy="165.517" rx="2.792" ry="2.792" fill="#deb958"/><ellipse cx="72.696" cy="174.616" rx="1.909" ry="1.909" fill="#deb958"/><ellipse cx="63.598" cy="180.436" rx="1.794" ry="1.794" fill="#deb958"/><ellipse cx="52.54" cy="176.078" rx="1.794" ry="1.794" fill="#deb958"/><ellipse cx="58.092" cy="162.726" rx="1.794" ry="1.794" fill="#deb958"/><ellipse cx="72.365" cy="182.014" rx="1.578" ry="1.578" fill="#deb958"/><ellipse cx="75.498" cy="166.875" rx="1.357" ry="1.357" fill="#deb958"/><ellipse cx="67.753" cy="165.517" rx="2.152" ry="2.152" fill="#7a3440"/><ellipse cx="58.092" cy="163.366" rx="1.505" ry="1.505" fill="#7a3440"/><ellipse cx="63.922" cy="180.725" rx="1.505" ry="1.505" fill="#7a3440"/><ellipse cx="59.493" cy="172.314" rx="1.112" ry="1.112" fill="#7a3440"/><ellipse cx="52.54" cy="176.078" rx="1.347" ry="1.347" fill="#7a3440"/><ellipse cx="72.696" cy="174.616" rx="1.347" ry="1.347" fill="#7a3440"/><ellipse cx="72.63" cy="182.127" rx="1.281" ry="1.245" fill="#7a3440"/><ellipse cx="75.057" cy="166.786" rx="1.281" ry="1.245" fill="#7a3440"/><ellipse cx="136.364" cy="172.727" rx="14.545" ry="14.545" fill="#deb958"/><ellipse cx="137.191" cy="171.9" rx="13.718" ry="13.718" fill="#eec65e"/><ellipse cx="131.783" cy="171.9" rx="1.357" ry="1.357" fill="#deb958"/><ellipse cx="139.983" cy="165.517" rx="2.792" ry="2.792" fill="#deb958"/><ellipse cx="145.423" cy="174.616" rx="1.909" ry="1.909" fill="#deb958"/><ellipse cx="136.325" cy="180.436" rx="1.794" ry="1.794" fill="#deb958"/><ellipse cx="125.267" cy="176.078" rx="1.794" ry="1.794" fill="#deb958"/><ellipse cx="130.82" cy="162.726" rx="1.794" ry="1.794" fill="#deb958"/><ellipse cx="145.092" cy="182.014" rx="1.578" ry="1.578" fill="#deb958"/><ellipse cx="148.225" cy="166.875" rx="1.357" ry="1.357" fill="#deb958"/><ellipse cx="140.48" cy="165.517" rx="2.152" ry="2.152" fill="#7a3440"/><ellipse cx="130.82" cy="163.366" rx="1.505" ry="1.505" fill="#7a3440"/><ellipse cx="136.649" cy="180.725" rx="1.505" ry="1.505" fill="#7a3440"/><ellipse cx="132.221" cy="172.314" rx="1.112" ry="1.112" fill="#7a3440"/><ellipse cx="125.267" cy="176.078" rx="1.347" ry="1.347" fill="#7a3440"/><ellipse cx="145.423" cy="174.616" rx="1.347" ry="1.347" fill="#7a3440"/><ellipse cx="145.357" cy="182.127" rx="1.281" ry="1.245" fill="#7a3440"/><ellipse cx="147.784" cy="166.786" rx="1.281" ry="1.245" fill="#7a3440"/><ellipse cx="136.364" cy="136.364" rx="14.545" ry="14.545" fill="#deb958"/><ellipse cx="137.191" cy="135.536" rx="13.718" ry="13.718" fill="#eec65e"/><ellipse cx="131.783" cy="135.536" rx="1.357" ry="1.357" fill="#deb958"/><ellipse cx="139.983" cy="129.154" rx="2.792" ry="2.792" fill="#deb958"/><ellipse cx="145.423" cy="138.252" rx="1.909" ry="1.909" fill="#deb958"/><ellipse cx="136.325" cy="144.072" rx="1.794" ry="1.794" fill="#deb958"/><ellipse cx="125.267" cy="139.714" rx="1.794" ry="1.794" fill="#deb958"/><ellipse cx="130.82" cy="126.362" rx="1.794" ry="1.794" fill="#deb958"/><ellipse cx="145.092" cy="145.65" rx="1.578" ry="1.578" fill="#deb958"/><ellipse cx="148.225" cy="130.511" rx="1.357" ry="1.357" fill="#deb958"/><ellipse cx="140.48" cy="129.154" rx="2.152" ry="2.152" fill="#7a3440"/><ellipse cx="130.82" cy="127.002" rx="1.505" ry="1.505" fill="#7a3440"/><ellipse cx="136.649" cy="144.361" rx="1.505" ry="1.505" fill="#7a3440"/><ellipse cx="132.221" cy="135.95" rx="1.112" ry="1.112" fill="#7a3440"/><ellipse cx="125.267" cy="139.714" rx="1.347" ry="1.347" fill="#7a3440"/><ellipse cx="145.423" cy="138.252" rx="1.347" ry="1.347" fill="#7a3440"/><ellipse cx="145.357" cy="145.764" rx="1.281" ry="1.245" fill="#7a3440"/><ellipse cx="147.784" cy="130.423" rx="1.281" ry="1.245" fill="#7a3440"/><ellipse cx="136.364" cy="100" rx="14.545" ry="14.545" fill="#deb958"/><ellipse cx="137.191" cy="99.172" rx="13.718" ry="13.718" fill="#eec65e"/><ellipse cx="131.783" cy="99.172" rx="1.357" ry="1.357" fill="#deb958"/><ellipse cx="139.983" cy="92.79" rx="2.792" ry="2.792" fill="#deb958"/><ellipse cx="145.423" cy="101.888" rx="1.909" ry="1.909" fill="#deb958"/><ellipse cx="136.325" cy="107.709" rx="1.794" ry="1.794" fill="#deb958"/><ellipse cx="125.267" cy="103.351" rx="1.794" ry="1.794" fill="#deb958"/><ellipse cx="130.82" cy="89.998" rx="1.794" ry="1.794" fill="#deb958"/><ellipse cx="145.092" cy="109.287" rx="1.578" ry="1.578" fill="#deb958"/><ellipse cx="148.225" cy="94.147" rx="1.357" ry="1.357" fill="#deb958"/><ellipse cx="140.48" cy="92.79" rx="2.152" ry="2.152" fill="#7a3440"/><ellipse cx="130.82" cy="90.638" rx="1.505" ry="1.505" fill="#7a3440"/><ellipse cx="136.649" cy="107.998" rx="1.505" ry="1.505" fill="#7a3440"/><ellipse cx="132.221" cy="99.586" rx="1.112" ry="1.112" fill="#7a3440"/><ellipse cx="125.267" cy="103.351" rx="1.347" ry="1.347" fill="#7a3440"/><ellipse cx="145.423" cy="101.888" rx="1.347" ry="1.347" fill="#7a3440"/><ellipse cx="145.357" cy="109.4" rx="1.281" ry="1.245" fill="#7a3440"/><ellipse cx="147.784" cy="94.059" rx="1.281" ry="1.245" fill="#7a3440"/><ellipse cx="136.364" cy="63.636" rx="14.545" ry="14.545" fill="#deb958"/><ellipse cx="137.191" cy="62.809" rx="13.718" ry="13.718" fill="#eec65e"/><ellipse cx="131.783" cy="62.809" rx="1.357" ry="1.357" fill="#deb958"/><ellipse cx="139.983" cy="56.427" rx="2.792" ry="2.792" fill="#deb958"/><ellipse cx="145.423" cy="65.525" rx="1.909" ry="1.909" fill="#deb958"/><ellipse cx="136.325" cy="71.345" rx="1.794" ry="1.794" fill="#deb958"/><ellipse cx="125.267" cy="66.987" rx="1.794" ry="1.794" fill="#deb958"/><ellipse cx="130.82" cy="53.635" rx="1.794" ry="1.794" fill="#deb958"/><ellipse cx="145.092" cy="72.923" rx="1.578" ry="1.578" fill="#deb958"/><ellipse cx="148.225" cy="57.784" rx="1.357" ry="1.357" fill="#deb958"/><ellipse cx="140.48" cy="56.427" rx="2.152" ry="2.152" fill="#7a3440"/><ellipse cx="130.82" cy="54.275" rx="1.505" ry="1.505" fill="#7a3440"/><ellipse cx="136.649" cy="71.634" rx="1.505" ry="1.505" fill="#7a3440"/><ellipse cx="132.221" cy="63.223" rx="1.112" ry="1.112" fill="#7a3440"/><ellipse cx="125.267" cy="66.987" rx="1.347" ry="1.347" fill="#7a3440"/><ellipse cx="145.423" cy="65.525" rx="1.347" ry="1.347" fill="#7a3440"/><ellipse cx="145.357" cy="73.036" rx="1.281" ry="1.245" fill="#7a3440"/><ellipse cx="147.784" cy="57.696" rx="1.281" ry="1.245" fill="#7a3440"/><ellipse cx="136.364" cy="27.273" rx="14.545" ry="14.545" fill="#deb958"/><ellipse cx="137.191" cy="26.445" rx="13.718" ry="13.718" fill="#eec65e"/><ellipse cx="131.783" cy="26.445" rx="1.357" ry="1.357" fill="#deb958"/><ellipse cx="139.983" cy="20.063" rx="2.792" ry="2.792" fill="#deb958"/><ellipse cx="145.423" cy="29.161" rx="1.909" ry="1.909" fill="#deb958"/><ellipse cx="136.325" cy="34.981" rx="1.794" ry="1.794" fill="#deb958"/><ellipse cx="125.267" cy="30.623" rx="1.794" ry="1.794" fill="#deb958"/><ellipse cx="130.82" cy="17.271" rx="1.794" ry="1.794" fill="#deb958"/><ellipse cx="145.092" cy="36.559" rx="1.578" ry="1.578" fill="#deb958"/><ellipse cx="148.225" cy="21.42" rx="1.357" ry="1.357" fill="#deb958"/><ellipse cx="140.48" cy="20.063" rx="2.152" ry="2.152" fill="#7a3440"/><ellipse cx="130.82" cy="17.911" rx="1.505" ry="1.505" fill="#7a3440"/><ellipse cx="136.649" cy="35.27" rx="1.505" ry="1.505" fill="#7a3440"/><ellipse cx="132.221" cy="26.859" rx="1.112" ry="1.112" fill="#7a3440"/><ellipse cx="125.267" cy="30.623" rx="1.347" ry="1.347" fill="#7a3440"/><ellipse cx="145.423" cy="29.161" rx="1.347" ry="1.347" fill="#7a3440"/><ellipse cx="145.357" cy="36.673" rx="1.281" ry="1.245" fill="#7a3440"/><ellipse cx="147.784" cy="21.332" rx="1.281" ry="1.245" fill="#7a3440"/><ellipse cx="172.727" cy="172.727" rx="14.545" ry="14.545" fill="#deb958"/><ellipse cx="173.555" cy="171.9" rx="13.718" ry="13.718" fill="#eec65e"/><ellipse cx="168.147" cy="171.9" rx="1.357" ry="1.357" fill="#deb958"/><ellipse cx="176.347" cy="165.517" rx="2.792" ry="2.792" fill="#deb958"/><ellipse cx="181.787" cy="174.616" rx="1.909" ry="1.909" fill="#deb958"/><ellipse cx="172.688" cy="180.436" rx="1.794" ry="1.794" fill="#deb958"/><ellipse cx="161.631" cy="176.078" rx="1.794" ry="1.794" fill="#deb958"/><ellipse cx="167.183" cy="162.726" rx="1.794" ry="1.794" fill="#deb958"/><ellipse cx="181.456" cy="182.014" rx="1.578" ry="1.578" fill="#deb958"/><ellipse cx="184.589" cy="166.875" rx="1.357" ry="1.357" fill="#deb958"/><ellipse cx="176.844" cy="165.517" rx="2.152" ry="2.152" fill="#7a3440"/><ellipse cx="167.183" cy="163.366" rx="1.505" ry="1.505" fill="#7a3440"/><ellipse cx="173.013" cy="180.725" rx="1.505" ry="1.505" fill="#7a3440"/><ellipse cx="168.584" cy="172.314" rx="1.112" ry="1.112" fill="#7a3440"/><ellipse cx="161.631" cy="176.078" rx="1.347" ry="1.347" fill="#7a3440"/><ellipse cx="181.787" cy="174.616" rx="1.347" ry="1.347" fill="#7a3440"/><ellipse cx="181.721" cy="182.127" rx="1.281" ry="1.245" fill="#7a3440"/><ellipse cx="184.148" cy="166.786" rx="1.281" ry="1.245" fill="#7a3440"/></svg>
