<svg xmlns="http://www.w3.org/2000/svg" width="320" height="98.462" viewBox="0 0 320 98.46153846153847"><path fill="none" stroke="#000" d="M24.615 73.846h123.077M24.615 49.23h123.077M24.615 24.615h123.077M24.615 73.846v-49.23M49.23 73.846v-49.23M73.846 73.846v-49.23M98.462 73.846v-49.23M123.077 73.846v-49.23M147.692 73.846v-49.23" stroke-width="2"/><ellipse cx="36.923" cy="36.923" rx="9.354" ry="9.354" fill="#0c7f99" stroke="#0c7f99" stroke-width="2" stroke-dasharray="0"/><ellipse cx="61.538" cy="36.923" rx="9.354" ry="9.354" fill="#0c7f99" stroke="#0c7f99" stroke-width="2" stroke-dasharray="0"/><ellipse cx="86.154" cy="36.923" rx="9.354" ry="9.354" fill="#0c7f99" stroke="#0c7f99" stroke-width="2" stroke-dasharray="0"/><ellipse cx="110.769" cy="36.923" rx="9.354" ry="9.354" fill="#0c7f99" stroke="#0c7f99" stroke-width="2" stroke-dasharray="0"/><ellipse cx="135.385" cy="36.923" rx="9.354" ry="9.354" fill="#0c7f99" stroke="#0c7f99" stroke-width="2" stroke-dasharray="0"/><ellipse cx="36.923" cy="61.538" rx="9.354" ry="9.354" fill="#0c7f99" stroke="#0c7f99" stroke-width="2" stroke-dasharray="0"/><ellipse cx="61.538" cy="61.538" rx="9.354" ry="9.354" fill="#0c7f99" stroke="#0c7f99" stroke-width="2" stroke-dasharray="0"/><ellipse cx="86.154" cy="61.538" rx="9.354" ry="9.354" fill="#0c7f99" stroke="#0c7f99" stroke-width="2" stroke-dasharray="0"/><ellipse cx="110.769" cy="61.538" rx="9.354" ry="9.354" fill="#0c7f99" stroke="#0c7f99" stroke-width="2" stroke-dasharray="0"/><ellipse cx="135.385" cy="61.538" rx="9.354" ry="9.354" fill="#ca337c" stroke="#ca337c" stroke-width="2" stroke-dasharray="0"/><path fill="none" stroke="#000" d="M172.308 73.846h123.077M172.308 49.23h123.077M172.308 24.615h123.077M172.308 73.846v-49.23M196.923 73.846v-49.23M221.538 73.846v-49.23M246.154 73.846v-49.23M270.769 73.846v-49.23M295.385 73.846v-49.23" stroke-width="2"/><ellipse cx="184.615" cy="36.923" rx="9.354" ry="9.354" fill="#ca337c" stroke="#ca337c" stroke-width="2" stroke-dasharray="0"/></svg>
