<svg xmlns="http://www.w3.org/2000/svg" width="103.478" height="170" viewBox="0 0 103.47826086956522 170"><path fill="#ccfaff" stroke="#0c7f99" d="M7.391 147.826v14.783h14.783l7.391-7.392v-14.782H14.783z" stroke-width="2"/><path fill="#ccfaff" stroke="#0c7f99" d="M7.391 147.826h14.783v14.783M22.174 147.826l7.391-7.391" stroke-width="2"/><path fill="#ccfaff" stroke="#0c7f99" d="M7.391 133.043v14.783h14.783l7.391-7.391v-14.783H14.783z" stroke-width="2"/><path fill="#ccfaff" stroke="#0c7f99" d="M7.391 133.043h14.783v14.783M22.174 133.043l7.391-7.391" stroke-width="2"/><path fill="#ccfaff" stroke="#0c7f99" d="M7.391 118.261v14.782h14.783l7.391-7.391V110.87H14.783z" stroke-width="2"/><path fill="#ccfaff" stroke="#0c7f99" d="M7.391 118.261h14.783v14.782M22.174 118.261l7.391-7.391" stroke-width="2"/><path fill="#ccfaff" stroke="#0c7f99" d="M7.391 103.478v14.783h14.783l7.391-7.391V96.087H14.783z" stroke-width="2"/><path fill="#ccfaff" stroke="#0c7f99" d="M7.391 103.478h14.783v14.783M22.174 103.478l7.391-7.391" stroke-width="2"/><path fill="#ccfaff" stroke="#0c7f99" d="M7.391 88.696v14.782h14.783l7.391-7.391V81.304H14.783z" stroke-width="2"/><path fill="#ccfaff" stroke="#0c7f99" d="M7.391 88.696h14.783v14.782M22.174 88.696l7.391-7.392" stroke-width="2"/><path fill="#ccfaff" stroke="#0c7f99" d="M7.391 73.913v14.783h14.783l7.391-7.392V66.522H14.783z" stroke-width="2"/><path fill="#ccfaff" stroke="#0c7f99" d="M7.391 73.913h14.783v14.783M22.174 73.913l7.391-7.391" stroke-width="2"/><path fill="#ccfaff" stroke="#0c7f99" d="M7.391 59.13v14.783h14.783l7.391-7.391V51.739H14.783z" stroke-width="2"/><path fill="#ccfaff" stroke="#0c7f99" d="M7.391 59.13h14.783v14.783M22.174 59.13l7.391-7.39" stroke-width="2"/><path fill="#ccfaff" stroke="#0c7f99" d="M7.391 44.348V59.13h14.783l7.391-7.39V36.955H14.783z" stroke-width="2"/><path fill="#ccfaff" stroke="#0c7f99" d="M7.391 44.348h14.783V59.13M22.174 44.348l7.391-7.392" stroke-width="2"/><path fill="#ccfaff" stroke="#0c7f99" d="M7.391 29.565v14.783h14.783l7.391-7.392V22.174H14.783z" stroke-width="2"/><path fill="#ccfaff" stroke="#0c7f99" d="M7.391 29.565h14.783v14.783M22.174 29.565l7.391-7.391M7.391 14.783v14.782h14.783l7.391-7.391V7.39H14.783z" stroke-width="2"/><path fill="#ccfaff" stroke="#0c7f99" d="M7.391 14.783h14.783v14.782M22.174 14.783l7.391-7.392M36.956 147.826v14.783H51.74l7.391-7.392v-14.782H44.348z" stroke-width="2"/><path fill="#ccfaff" stroke="#0c7f99" d="M36.956 147.826H51.74v14.783M51.74 147.826l7.39-7.391M36.956 118.261v14.782H51.74l7.391-7.391V110.87H44.348z" stroke-width="2"/><path fill="#ccfaff" stroke="#0c7f99" d="M36.956 118.261H51.74v14.782M51.74 118.261l7.39-7.391M36.956 88.696v14.782H51.74l7.391-7.391V81.304H44.348z" stroke-width="2"/><path fill="#ccfaff" stroke="#0c7f99" d="M36.956 88.696H51.74v14.782M51.74 88.696l7.39-7.392" stroke-width="2"/><path fill="#ffbde0" stroke="#9e034e" d="M36.956 59.13v14.783H51.74l7.391-7.391V51.739H44.348z" stroke-width="2"/><path fill="#ffbde0" stroke="#9e034e" d="M36.956 59.13H51.74v14.783M51.74 59.13l7.39-7.39M36.956 29.565v14.783H51.74l7.391-7.392V22.174H44.348z" stroke-width="2"/><path fill="#ffbde0" stroke="#9e034e" d="M36.956 29.565H51.74v14.783M51.74 29.565l7.39-7.391M66.522 147.826v14.783h14.782l7.392-7.392v-14.782H73.913z" stroke-width="2"/><path fill="#ffbde0" stroke="#9e034e" d="M66.522 147.826h14.782v14.783M81.304 147.826l7.392-7.391M66.522 118.261v14.782h14.782l7.392-7.391V110.87H73.913z" stroke-width="2"/><path fill="#ffbde0" stroke="#9e034e" d="M66.522 118.261h14.782v14.782M81.304 118.261l7.392-7.391" stroke-width="2"/></svg>
