<svg xmlns="http://www.w3.org/2000/svg" width="43.636" height="80" viewBox="0 0 43.63636363636364 80"><path fill="#bdcccc" d="M36.364 59.009c0-.955-.385-1.82-1.006-2.45a3.475 3.475 0 0 0-1.203-3.85c1.532-1.465.4-3.93.4-3.93-.071.867-1.167 1.915-1.76 2.423a1.38 1.38 0 0 0-.96-.653 4.4 4.4 0 0 0-3.851-2.641 2.053 2.053 0 0 0-3.43-.08 3.165 3.165 0 0 0-2.381.265 4.79 4.79 0 0 0-1.861-.374 4.783 4.783 0 0 0-4.063 2.256 1.909 1.909 0 0 0-1.176.167 1.574 1.574 0 0 0-2.49.65 2.849 2.849 0 0 0-2.465 2.822 2.85 2.85 0 0 0 2.034 2.727l-.002.034c0 .642.318 1.209.805 1.552a5.22 5.22 0 0 0 .043 4.824c-.23.276-.374.625-.374 1.013 0 .877.71 1.587 1.588 1.587.046 0 .089-.01.134-.014a1.92 1.92 0 0 0 1.784.916 4.62 4.62 0 0 0 4.147 2.59c.6 0 1.172-.117 1.698-.325a5.21 5.21 0 0 0 2.94.904 5.214 5.214 0 0 0 2.905-.88c.324.237.72.38 1.153.38.963 0 1.76-.695 1.925-1.612a1.925 1.925 0 0 0 1.065-1.628 5.237 5.237 0 0 0 2.523-2.257 2.06 2.06 0 0 0 1.492-2.827 3.47 3.47 0 0 0 .386-1.59m-13.875-.638c-.011-.023-.02-.046-.028-.07a.654.654 0 0 0 .057.05c-.01.009-.02.013-.03.02z"/><path fill="#563f32" d="M15.858 55.356s1.663-2.144.474-4.197c-1.225-2.116-4.509-1.675-4.88.665-.389 2.44 2.713 2.943 3.142 1.432.398-1.407-.779-1.873-1.489-1.306 0 0 .414-.038.678.133.181.117.287.371.16.644-.349.732-1.696.27-1.383-.848.26-.928 3.3-.973 2.118 2.174l1.18 1.303z"/><path fill="#f4dbc5" d="M18.102 54.623s-3.832-1.201-6.158-.371c-2.306.826-1.708 2.997-3.507 4.088-1.877 1.14-1.491 4.437 1.206 4.557.513.022.912-.232 1.432-.205.48.027.109.493.674.644 2.194.579 4.53-.5 5.31-.818 1.288-.53 1.043-7.895 1.043-7.895z"/><path fill="#e3ac8a" d="M18.102 54.623s-3.832-1.201-6.158-.371a3.234 3.234 0 0 0-.81.42 2.642 2.642 0 0 0 1.846 2.067l-.001.033c0 .595.296 1.12.749 1.44a4.836 4.836 0 0 0 .033 4.478c-.186.22-.308.5-.335.804 1.606-.08 3.052-.738 3.633-.977 1.288-.528 1.043-7.894 1.043-7.894z"/><path fill="#f4dbc5" d="M15.767 63.504s-4.144 1.178-2.563 2.893c.955 1.037 2.503-.512 2.83-2.505l-.267-.389zM18.394 65.622s-4.565 1.297-2.823 3.187c1.052 1.14 2.757-.562 3.12-2.76l-.297-.427zM32.468 62.313s1.593 4.284 3.274 2.465c1.017-1.096-.75-2.603-2.886-2.782l-.388.316z"/><path fill="#f4dbc5" d="M30.818 64.52s1.654 4.447 3.4 2.562c1.055-1.139-.78-2.704-2.999-2.89l-.401.328z"/><path fill="#efefef" d="M28.073 49.6a1.913 1.913 0 1 1-3.827.001 1.913 1.913 0 0 1 3.827-.002z"/><path fill="#e2e2e2" d="M35.354 61.12a1.914 1.914 0 1 1-3.827-.001 1.914 1.914 0 0 1 3.827.001z"/><ellipse cx="28.694" cy="66.281" rx="1.82" ry="1.82" fill="#e2e2e2"/><path fill="#efefef" d="M16.322 51.788a1.475 1.475 0 1 1-2.95.001 1.475 1.475 0 0 1 2.95 0z"/><path fill="#e2e2e2" d="M16.46 63.31a1.474 1.474 0 1 1-2.951 0 1.474 1.474 0 0 1 2.952 0z"/><path fill="#efefef" d="M31.898 51.928s1.888-1.429 1.98-2.535c0 0 1.291 2.811-.922 4.055l-1.059-1.52z"/><path fill="#efefef" d="M35.558 58.895c0-.887-.357-1.69-.935-2.275a3.24 3.24 0 0 0-2.213-4.123 1.282 1.282 0 0 0-1.057-1.46 4.093 4.093 0 0 0-5.696-1.968 2.936 2.936 0 0 0-3.278-.312 4.46 4.46 0 0 0-1.728-.347 4.442 4.442 0 0 0-3.773 2.094 1.789 1.789 0 0 0-1.922.989 2.63 2.63 0 0 0-1.127-.255 2.646 2.646 0 0 0-2.646 2.646c0 1.196.798 2.206 1.889 2.533l-.001.03c0 .597.295 1.124.747 1.443a4.84 4.84 0 0 0-.529 2.208c0 1.41.601 2.68 1.56 3.569a1.79 1.79 0 0 0 1.784 1.961c.046 0 .09-.003.135-.006a4.29 4.29 0 0 0 3.851 2.406c.558 0 1.088-.11 1.576-.302a4.86 4.86 0 0 0 6.645-1.137 1.791 1.791 0 0 0 2.632-1.497 4.864 4.864 0 0 0 2.913-3.702 3.226 3.226 0 0 0 1.173-2.495m-12.911-.658a.775.775 0 0 0 .053.047c-.01.007-.019.01-.028.017l-.025-.064z"/><path fill="#563f32" d="M14.554 54.503s2.58-2.842 5.73-1.688c3.247 1.188 3.436 5.869.27 6.96-3.305 1.138-4.765-3.06-2.765-4.027 1.862-.9 2.8.627 2.183 1.753 0 0-.048-.585-.35-.911-.208-.223-.589-.31-.936-.064-.935.664.04 2.427 1.518 1.717 1.23-.59.547-4.834-3.545-2.417l-2.105-1.323z"/><path fill="#efefef" d="M15.77 55.844a1.153 1.153 0 1 1-2.305 0 1.153 1.153 0 0 1 2.305 0z"/><ellipse cx="11.756" cy="58.619" rx=".332" ry=".552" fill="#304454" transform="rotate(7.944 11.756 58.619)"/><path fill="#e2e2e2" d="M34.623 56.612a3.222 3.222 0 0 0-.185-2.454 3.521 3.521 0 0 1-1.149 3.657 5.301 5.301 0 0 1-3.176 4.035 1.952 1.952 0 0 1-2.869 1.633 5.294 5.294 0 0 1-4.267 2.153 5.276 5.276 0 0 1-2.976-.915 4.67 4.67 0 0 1-1.718.33 4.675 4.675 0 0 1-4.198-2.623c-.049.003-.098.007-.148.007l-.042-.002c.253.458.574.872.955 1.225a1.79 1.79 0 0 0 1.919 1.955 4.288 4.288 0 0 0 3.85 2.407c.558 0 1.088-.11 1.576-.303.78.53 1.72.84 2.732.84a4.857 4.857 0 0 0 3.913-1.976 1.792 1.792 0 0 0 2.633-1.498 4.86 4.86 0 0 0 2.913-3.7 3.235 3.235 0 0 0 .238-4.77zM20.55 54.43a.698.698 0 0 1-.057-.053c.009.024.017.047.028.07.009-.006.019-.01.03-.018z"/><path fill="#bdcccc" d="M36.364 22.645c0-.955-.385-1.819-1.006-2.449a3.475 3.475 0 0 0-1.203-3.85c1.532-1.466.4-3.931.4-3.931-.071.867-1.167 1.915-1.76 2.423a1.38 1.38 0 0 0-.96-.653 4.4 4.4 0 0 0-3.851-2.641 2.053 2.053 0 0 0-3.43-.08 3.165 3.165 0 0 0-2.381.265 4.79 4.79 0 0 0-1.861-.374 4.783 4.783 0 0 0-4.063 2.256 1.909 1.909 0 0 0-1.176.167 1.574 1.574 0 0 0-2.49.651 2.849 2.849 0 0 0-2.465 2.821 2.85 2.85 0 0 0 2.034 2.727l-.002.034c0 .642.318 1.209.805 1.552a5.22 5.22 0 0 0 .043 4.824c-.23.276-.374.625-.374 1.013 0 .877.71 1.587 1.588 1.587.046 0 .089-.01.134-.014a1.92 1.92 0 0 0 1.784.916 4.62 4.62 0 0 0 4.147 2.591c.6 0 1.172-.118 1.698-.326a5.21 5.21 0 0 0 2.94.904 5.214 5.214 0 0 0 2.905-.88c.324.237.72.381 1.153.381.963 0 1.76-.696 1.925-1.613a1.925 1.925 0 0 0 1.065-1.628 5.237 5.237 0 0 0 2.523-2.257 2.06 2.06 0 0 0 1.492-2.827 3.47 3.47 0 0 0 .386-1.589m-13.875-.639c-.011-.023-.02-.046-.028-.07a.654.654 0 0 0 .057.051c-.01.008-.02.012-.03.019z"/><path fill="#563f32" d="M15.858 18.993s1.663-2.144.474-4.197c-1.225-2.116-4.509-1.675-4.88.665-.389 2.44 2.713 2.943 3.142 1.432.398-1.407-.779-1.873-1.489-1.306 0 0 .414-.038.678.133.181.117.287.37.16.644-.349.732-1.696.269-1.383-.848.26-.928 3.3-.973 2.118 2.174l1.18 1.303z"/><path fill="#f4dbc5" d="M18.102 18.259s-3.832-1.201-6.158-.371c-2.306.826-1.708 2.997-3.507 4.088-1.877 1.14-1.491 4.437 1.206 4.557.513.022.912-.232 1.432-.205.48.027.109.493.674.644 2.194.579 4.53-.5 5.31-.818 1.288-.53 1.043-7.895 1.043-7.895z"/><path fill="#e3ac8a" d="M18.102 18.259s-3.832-1.201-6.158-.371a3.234 3.234 0 0 0-.81.42 2.642 2.642 0 0 0 1.846 2.067l-.001.033c0 .595.296 1.12.749 1.44a4.836 4.836 0 0 0 .033 4.478c-.186.22-.308.5-.335.804 1.606-.08 3.052-.738 3.633-.977 1.288-.528 1.043-7.894 1.043-7.894z"/><path fill="#f4dbc5" d="M15.767 27.14s-4.144 1.178-2.563 2.893c.955 1.038 2.503-.511 2.83-2.504l-.267-.39zM18.394 29.258s-4.565 1.297-2.823 3.187c1.052 1.141 2.757-.562 3.12-2.76l-.297-.427zM32.468 25.949s1.593 4.284 3.274 2.466c1.017-1.096-.75-2.603-2.886-2.782l-.388.316z"/><path fill="#f4dbc5" d="M30.818 28.157s1.654 4.447 3.4 2.562c1.055-1.14-.78-2.704-2.999-2.89l-.401.328z"/><path fill="#efefef" d="M28.073 13.236a1.913 1.913 0 1 1-3.827.001 1.913 1.913 0 0 1 3.827-.002z"/><path fill="#e2e2e2" d="M35.354 24.756a1.914 1.914 0 1 1-3.827 0 1.914 1.914 0 0 1 3.827 0z"/><ellipse cx="28.694" cy="29.917" rx="1.82" ry="1.82" fill="#e2e2e2"/><path fill="#efefef" d="M16.322 15.425a1.475 1.475 0 1 1-2.95 0 1.475 1.475 0 0 1 2.95 0z"/><path fill="#e2e2e2" d="M16.46 26.946a1.474 1.474 0 1 1-2.951 0 1.474 1.474 0 0 1 2.952 0z"/><path fill="#efefef" d="M31.898 15.564s1.888-1.429 1.98-2.535c0 0 1.291 2.811-.922 4.055l-1.059-1.52z"/><path fill="#efefef" d="M35.558 22.531c0-.887-.357-1.69-.935-2.275a3.24 3.24 0 0 0-2.213-4.123 1.282 1.282 0 0 0-1.057-1.46 4.093 4.093 0 0 0-5.696-1.968 2.936 2.936 0 0 0-3.278-.312 4.46 4.46 0 0 0-1.728-.347 4.442 4.442 0 0 0-3.773 2.094 1.789 1.789 0 0 0-1.922.989 2.63 2.63 0 0 0-1.127-.255 2.646 2.646 0 0 0-2.646 2.646c0 1.196.798 2.206 1.889 2.533l-.001.031c0 .596.295 1.123.747 1.442a4.84 4.84 0 0 0-.529 2.208c0 1.411.601 2.68 1.56 3.569a1.79 1.79 0 0 0 1.784 1.961c.046 0 .09-.003.135-.006a4.29 4.29 0 0 0 3.851 2.406c.558 0 1.088-.11 1.576-.302a4.86 4.86 0 0 0 6.645-1.137 1.791 1.791 0 0 0 2.632-1.497 4.864 4.864 0 0 0 2.913-3.702 3.226 3.226 0 0 0 1.173-2.495m-12.911-.658a.775.775 0 0 0 .053.047l-.028.017-.025-.064z"/><path fill="#563f32" d="M14.554 18.14s2.58-2.843 5.73-1.689c3.247 1.188 3.436 5.87.27 6.96-3.305 1.138-4.765-3.059-2.765-4.027 1.862-.899 2.8.627 2.183 1.753 0 0-.048-.585-.35-.91-.208-.224-.589-.31-.936-.065-.935.664.04 2.427 1.518 1.717 1.23-.589.547-4.834-3.545-2.417l-2.105-1.323z"/><path fill="#efefef" d="M15.77 19.48a1.153 1.153 0 1 1-2.305 0 1.153 1.153 0 0 1 2.305 0z"/><ellipse cx="11.756" cy="22.255" rx=".332" ry=".552" fill="#304454" transform="rotate(7.944 11.756 22.255)"/><path fill="#e2e2e2" d="M34.623 20.248a3.222 3.222 0 0 0-.185-2.454 3.521 3.521 0 0 1-1.149 3.657 5.301 5.301 0 0 1-3.176 4.035 1.952 1.952 0 0 1-2.869 1.633 5.294 5.294 0 0 1-4.267 2.153 5.276 5.276 0 0 1-2.976-.915 4.67 4.67 0 0 1-1.718.33 4.675 4.675 0 0 1-4.198-2.623c-.049.003-.098.007-.148.007l-.042-.002c.253.458.574.872.955 1.225a1.79 1.79 0 0 0 1.919 1.955 4.288 4.288 0 0 0 3.85 2.407c.558 0 1.088-.11 1.576-.303.78.53 1.72.84 2.732.84a4.857 4.857 0 0 0 3.913-1.976 1.792 1.792 0 0 0 2.633-1.498 4.86 4.86 0 0 0 2.913-3.7 3.235 3.235 0 0 0 .238-4.77zM20.55 18.066a.698.698 0 0 1-.057-.052c.009.024.017.047.028.07l.03-.018z"/></svg>
