<svg xmlns="http://www.w3.org/2000/svg" width="380" height="100" viewBox="0 0 380 100"><path fill="none" stroke="#000" d="M369.45 65.6c.35-2.1 4.2-5.25 5.25-5.6-1.05-.35-4.9-3.5-5.25-5.6" stroke-width="2" stroke-linejoin="round" stroke-linecap="round"/><path fill="none" stroke="#000" d="M5 60h368.95" stroke-width="2"/><path fill="none" stroke="#000" d="M12.05 54.4c-.35 2.1-4.2 5.25-5.25 5.6 1.05.35 4.9 3.5 5.25 5.6" stroke-width="2" stroke-linejoin="round" stroke-linecap="round"/><path fill="none" stroke="#000" d="M375 60H6.05M30 68V52M62 68V52M94 68V52M126 68V52M158 68V52M190 68V52M222 68V52M254 68V52M286 68V52M318 68V52M350 68V52" stroke-width="2"/><path fill="none" stroke="#0c7f99" d="M126 60a48 24 0 0 0-96 0M126 60l11.085-8M126 60l-12.028-5.472" stroke-width="2" stroke-dasharray="0"/><path fill="none" stroke="#ca337c" d="M158 60a16 24 0 0 0-32 0M158 60l11.085-8M158 60l-12.028-5.472" stroke-width="2" stroke-dasharray="0"/></svg>
