<svg xmlns="http://www.w3.org/2000/svg" width="380" height="100" viewBox="0 0 380 100"><path fill="none" stroke="#000" d="M369.45 65.6c.35-2.1 4.2-5.25 5.25-5.6-1.05-.35-4.9-3.5-5.25-5.6" stroke-width="2" stroke-linejoin="round" stroke-linecap="round"/><path fill="none" stroke="#000" d="M5 60h368.95" stroke-width="2"/><path fill="none" stroke="#000" d="M12.05 54.4c-.35 2.1-4.2 5.25-5.25 5.6 1.05.35 4.9 3.5 5.25 5.6" stroke-width="2" stroke-linejoin="round" stroke-linecap="round"/><path fill="none" stroke="#000" d="M375 60H6.05" stroke-width="2"/><path fill="none" stroke="#0c7f99" d="M126 60a48 24 0 0 0-96 0M126 60l5.542-8M126 60l-6.014-5.472" stroke-width="2" stroke-dasharray="0"/><path fill="none" stroke="#ca337c" d="M318 60a96 24 0 0 0-192 0M318 60l5.542-8M318 60l-6.014-5.472" stroke-width="2" stroke-dasharray="0"/><path fill="none" stroke="#000" d="M30 68V52M46 68V52M62 68V52M78 68V52M94 68V52M110 68V52M126 68V52M142 68V52M158 68V52M174 68V52M190 68V52M206 68V52M222 68V52M238 68V52M254 68V52M270 68V52M286 68V52M302 68V52M318 68V52M334 68V52M350 68V52" stroke-width="2" stroke-dasharray="0"/></svg>
