<svg xmlns="http://www.w3.org/2000/svg" width="127.273" height="200" viewBox="0 0 127.27272727272728 200.00000000000003"><path fill="#4d677a" d="M33.482 171.609s1.072-.775 1.28-.656c.21.119.031.894.031.894l-1.31-.238z"/><path fill="#bdcccc" d="M34.643 176.465s.542.135.88-.136c.339-.27.069-.915.069-.915l-.95 1.051z"/><path fill="#4d677a" d="M21.598 180.158s-1.355.881-1.796 1.796c0 0 2.677-1.458 4.1-1.491 0 0-1.525-.305-2.304-.305zM25.357 170.243s2.493-2.882 4.635-2.455c0 0-1.775 1.859-1.49 3.268.01.047.021.094.036.141.441 1.421-3.18-.954-3.18-.954z"/><path fill="#7a3440" d="M20.062 175.963s-2.247 3.012-1.564 3.742c1.069-.043 3-.798 3-.798l1.486-1.318-2.922-1.626z"/><path fill="#4d677a" d="M37.988 171.326c-.104-1.253.33-2.901.659-4.218l-.631-.292.852-.467a9.48 9.48 0 0 1 1.528-2.848s-2.048.903-3.643 2.54c-1.48 1.519-.81 5.49-.81 5.49s-6.204.073-11.386-2.045c-6.292-2.569-12.006-5.606-11.825-2.992.146 2.117 2.7 7.3 3.869 8.103 1.167.802 4.935 1.889 4.817 2.336-.365 1.386-3.284 2.408-2.92 2.773.366.365 11.387 4.453 18.103-5.402 0 0 2.685 3.354 5.218 3.322-2.691-2.659-3.166-3.893-3.831-6.3z"/><path fill="#fffdfd" d="M20.816 176.363s-.047.636.023.707c.071.071.401-.447.401-.447l-.424-.26zM20.13 175.961s-.047.636.024.707c.07.071.4-.448.4-.448l-.423-.259zM19.552 179.076s-.468-.433-.568-.421c-.1.011.1.592.1.592l.468-.171z"/><path fill="#bdcccc" d="M37.403 172.041s-2.267 4.894-8.865 4.709c-6.536-.183-12.23-6.825-13.69-8.578-1-1.2-1.683-1.913-2.106-1.967a1.354 1.354 0 0 0-.01.289c.145 2.117 2.7 7.299 3.868 8.102s4.936 1.889 4.818 2.337c-.365 1.386-3.285 2.408-2.92 2.773.362.362 11.5 4.499 18.102-5.402.481-1.174.803-2.263.803-2.263z"/><path fill="#688da7" d="M23.948 171.129s.485 1.189-.5 2.605c0 0 .527-1.336.5-2.605zM24.455 171.521s.484 1.189-.5 2.605c0 0 .527-1.336.5-2.605zM24.866 171.902s.485 1.188-.5 2.605c0 0 .527-1.337.5-2.605z"/><path fill="#304454" d="M26.876 178.384c-.195-1.285-.74-1.285-.857-2.299 0 0 .038-.07.078-.155 0 0 2.96 2.103 3.934 2.375 0 0 .123 2.465 2.337 3.117-.019.055-.019.106-.019.167 0 0-4.982.038-5.473-3.205z"/><path fill="#4d677a" d="M26.954 178.227c-.195-1.285-.74-1.285-.857-2.298 0 0 1.207.545 2.065.468 0 0 .973 1.48 1.947 1.753 0 0 .234 2.336 2.26 3.271 0 0-4.924.049-5.415-3.194z"/><ellipse cx="21.627" cy="171.584" rx=".387" ry=".643" fill="#304454"/><path fill="#4d677a" d="M33.482 135.245s1.072-.775 1.28-.656c.21.119.031.894.031.894l-1.31-.238z"/><path fill="#bdcccc" d="M34.643 140.101s.542.135.88-.136c.339-.27.069-.915.069-.915l-.95 1.051z"/><path fill="#4d677a" d="M21.598 143.794s-1.355.881-1.796 1.796c0 0 2.677-1.458 4.1-1.491 0 0-1.525-.305-2.304-.305zM25.357 133.879s2.493-2.882 4.635-2.455c0 0-1.775 1.859-1.49 3.268.01.047.021.094.036.141.441 1.421-3.18-.954-3.18-.954z"/><path fill="#7a3440" d="M20.062 139.6s-2.247 3.012-1.564 3.742c1.069-.043 3-.798 3-.798l1.486-1.318-2.922-1.626z"/><path fill="#4d677a" d="M37.988 134.962c-.104-1.253.33-2.901.659-4.218l-.631-.292.852-.467a9.48 9.48 0 0 1 1.528-2.848s-2.048.903-3.643 2.54c-1.48 1.519-.81 5.49-.81 5.49s-6.204.073-11.386-2.045c-6.292-2.569-12.006-5.606-11.825-2.992.146 2.117 2.7 7.3 3.869 8.103 1.167.802 4.935 1.889 4.817 2.336-.365 1.386-3.284 2.408-2.92 2.773.366.365 11.387 4.453 18.103-5.402 0 0 2.685 3.354 5.218 3.322-2.691-2.659-3.166-3.893-3.831-6.3z"/><path fill="#fffdfd" d="M20.816 140s-.047.636.023.707c.071.071.401-.447.401-.447l-.424-.26zM20.13 139.597s-.047.636.024.707c.07.071.4-.448.4-.448l-.423-.259zM19.552 142.712s-.468-.433-.568-.421c-.1.011.1.592.1.592l.468-.171z"/><path fill="#bdcccc" d="M37.403 135.678s-2.267 4.894-8.865 4.709c-6.536-.183-12.23-6.825-13.69-8.578-1-1.2-1.683-1.913-2.106-1.967a1.354 1.354 0 0 0-.01.289c.145 2.117 2.7 7.299 3.868 8.102s4.936 1.889 4.818 2.337c-.365 1.386-3.285 2.408-2.92 2.773.362.362 11.5 4.499 18.102-5.402.481-1.174.803-2.263.803-2.263z"/><path fill="#688da7" d="M23.948 134.765s.485 1.189-.5 2.605c0 0 .527-1.336.5-2.605zM24.455 135.157s.484 1.189-.5 2.605c0 0 .527-1.336.5-2.605zM24.866 135.538s.485 1.188-.5 2.605c0 0 .527-1.337.5-2.605z"/><path fill="#304454" d="M26.876 142.02c-.195-1.285-.74-1.285-.857-2.299 0 0 .038-.07.078-.155 0 0 2.96 2.103 3.934 2.375 0 0 .123 2.465 2.337 3.117-.019.055-.019.106-.019.167 0 0-4.982.038-5.473-3.205z"/><path fill="#4d677a" d="M26.954 141.864c-.195-1.285-.74-1.285-.857-2.298 0 0 1.207.545 2.065.468 0 0 .973 1.48 1.947 1.753 0 0 .234 2.336 2.26 3.271 0 0-4.924.049-5.415-3.194z"/><ellipse cx="21.627" cy="135.22" rx=".387" ry=".643" fill="#304454"/><path fill="#4d677a" d="M33.482 98.882s1.072-.776 1.28-.657c.21.12.031.895.031.895l-1.31-.239z"/><path fill="#bdcccc" d="M34.643 103.738s.542.135.88-.136c.339-.27.069-.915.069-.915l-.95 1.051z"/><path fill="#4d677a" d="M21.598 107.431s-1.355.881-1.796 1.796c0 0 2.677-1.458 4.1-1.491 0 0-1.525-.305-2.304-.305zM25.357 97.516s2.493-2.882 4.635-2.455c0 0-1.775 1.859-1.49 3.268.01.047.021.094.036.14.441 1.422-3.18-.953-3.18-.953z"/><path fill="#7a3440" d="M20.062 103.236s-2.247 3.012-1.564 3.742c1.069-.043 3-.798 3-.798l1.486-1.318-2.922-1.626z"/><path fill="#4d677a" d="M37.988 98.598c-.104-1.253.33-2.9.659-4.218l-.631-.292.852-.467a9.48 9.48 0 0 1 1.528-2.848s-2.048.903-3.643 2.54c-1.48 1.52-.81 5.49-.81 5.49s-6.204.073-11.386-2.045c-6.292-2.569-12.006-5.606-11.825-2.992.146 2.117 2.7 7.3 3.869 8.103 1.167.802 4.935 1.889 4.817 2.336-.365 1.386-3.284 2.408-2.92 2.773.366.365 11.387 4.453 18.103-5.402 0 0 2.685 3.354 5.218 3.322-2.691-2.659-3.166-3.893-3.831-6.3z"/><path fill="#fffdfd" d="M20.816 103.636s-.047.636.023.707c.071.071.401-.447.401-.447l-.424-.26zM20.13 103.234s-.047.636.024.707c.07.071.4-.448.4-.448l-.423-.259zM19.552 106.349s-.468-.433-.568-.421c-.1.011.1.592.1.592l.468-.171z"/><path fill="#bdcccc" d="M37.403 99.314s-2.267 4.894-8.865 4.709c-6.536-.183-12.23-6.825-13.69-8.578-1-1.2-1.683-1.913-2.106-1.967a1.354 1.354 0 0 0-.01.289c.145 2.117 2.7 7.299 3.868 8.102s4.936 1.889 4.818 2.337c-.365 1.386-3.285 2.408-2.92 2.773.362.362 11.5 4.499 18.102-5.402.481-1.174.803-2.263.803-2.263z"/><path fill="#688da7" d="M23.948 98.401s.485 1.19-.5 2.606c0 0 .527-1.337.5-2.606zM24.455 98.794s.484 1.189-.5 2.605c0 0 .527-1.336.5-2.605zM24.866 99.175s.485 1.188-.5 2.605c0 0 .527-1.337.5-2.605z"/><path fill="#304454" d="M26.876 105.657c-.195-1.285-.74-1.285-.857-2.299 0 0 .038-.07.078-.155 0 0 2.96 2.103 3.934 2.375 0 0 .123 2.465 2.337 3.117-.019.055-.019.106-.019.167 0 0-4.982.038-5.473-3.205z"/><path fill="#4d677a" d="M26.954 105.5c-.195-1.285-.74-1.285-.857-2.298 0 0 1.207.545 2.065.468 0 0 .973 1.48 1.947 1.753 0 0 .234 2.336 2.26 3.271 0 0-4.924.049-5.415-3.194z"/><ellipse cx="21.627" cy="98.857" rx=".387" ry=".643" fill="#304454"/><path fill="#4d677a" d="M33.482 62.518s1.072-.775 1.28-.656c.21.119.031.894.031.894l-1.31-.238z"/><path fill="#bdcccc" d="M34.643 67.374s.542.135.88-.136c.339-.27.069-.915.069-.915l-.95 1.05z"/><path fill="#4d677a" d="M21.598 71.067s-1.355.88-1.796 1.796c0 0 2.677-1.458 4.1-1.491 0 0-1.525-.305-2.304-.305zM25.357 61.152s2.493-2.882 4.635-2.455c0 0-1.775 1.86-1.49 3.268.01.047.021.094.036.141.441 1.421-3.18-.954-3.18-.954z"/><path fill="#7a3440" d="M20.062 66.872s-2.247 3.012-1.564 3.742c1.069-.043 3-.798 3-.798l1.486-1.318-2.922-1.626z"/><path fill="#4d677a" d="M37.988 62.235c-.104-1.253.33-2.901.659-4.218l-.631-.292.852-.467a9.48 9.48 0 0 1 1.528-2.848s-2.048.903-3.643 2.54c-1.48 1.519-.81 5.49-.81 5.49s-6.204.073-11.386-2.045c-6.292-2.57-12.006-5.606-11.825-2.992.146 2.117 2.7 7.3 3.869 8.103 1.167.802 4.935 1.889 4.817 2.336-.365 1.386-3.284 2.408-2.92 2.773.366.365 11.387 4.453 18.103-5.402 0 0 2.685 3.354 5.218 3.322-2.691-2.66-3.166-3.893-3.831-6.3z"/><path fill="#fffdfd" d="M20.816 67.272s-.047.636.023.707c.071.072.401-.447.401-.447l-.424-.26zM20.13 66.87s-.047.636.024.707c.07.071.4-.448.4-.448l-.423-.259zM19.552 69.985s-.468-.433-.568-.42c-.1.01.1.591.1.591l.468-.17z"/><path fill="#bdcccc" d="M37.403 62.95s-2.267 4.894-8.865 4.71c-6.536-.184-12.23-6.826-13.69-8.579-1-1.2-1.683-1.913-2.106-1.967a1.354 1.354 0 0 0-.01.29c.145 2.116 2.7 7.298 3.868 8.101s4.936 1.89 4.818 2.337c-.365 1.386-3.285 2.408-2.92 2.773.362.362 11.5 4.5 18.102-5.402.481-1.174.803-2.263.803-2.263z"/><path fill="#688da7" d="M23.948 62.038s.485 1.189-.5 2.605c0 0 .527-1.336.5-2.605zM24.455 62.43s.484 1.19-.5 2.605c0 0 .527-1.336.5-2.605zM24.866 62.811s.485 1.188-.5 2.605c0 0 .527-1.337.5-2.605z"/><path fill="#304454" d="M26.876 69.293c-.195-1.285-.74-1.285-.857-2.3 0 0 .038-.07.078-.154 0 0 2.96 2.103 3.934 2.375 0 0 .123 2.465 2.337 3.117-.019.055-.019.106-.019.167 0 0-4.982.038-5.473-3.205z"/><path fill="#4d677a" d="M26.954 69.136c-.195-1.284-.74-1.284-.857-2.297 0 0 1.207.544 2.065.468 0 0 .973 1.48 1.947 1.752 0 0 .234 2.337 2.26 3.272 0 0-4.924.048-5.415-3.195z"/><ellipse cx="21.627" cy="62.493" rx=".387" ry=".643" fill="#304454"/><path fill="#4d677a" d="M33.482 26.154s1.072-.775 1.28-.656c.21.12.031.894.031.894l-1.31-.238z"/><path fill="#bdcccc" d="M34.643 31.01s.542.135.88-.136c.339-.27.069-.915.069-.915l-.95 1.051z"/><path fill="#4d677a" d="M21.598 34.703s-1.355.881-1.796 1.796c0 0 2.677-1.458 4.1-1.49 0 0-1.525-.306-2.304-.306zM25.357 24.788s2.493-2.881 4.635-2.454c0 0-1.775 1.858-1.49 3.268.01.046.021.093.036.14.441 1.421-3.18-.954-3.18-.954z"/><path fill="#7a3440" d="M20.062 30.509s-2.247 3.012-1.564 3.742c1.069-.043 3-.798 3-.798l1.486-1.318-2.922-1.626z"/><path fill="#4d677a" d="M37.988 25.871c-.104-1.253.33-2.9.659-4.218l-.631-.292.852-.467a9.48 9.48 0 0 1 1.528-2.848s-2.048.903-3.643 2.54c-1.48 1.52-.81 5.49-.81 5.49s-6.204.073-11.386-2.045c-6.292-2.569-12.006-5.606-11.825-2.992.146 2.117 2.7 7.3 3.869 8.103 1.167.802 4.935 1.89 4.817 2.336-.365 1.386-3.284 2.408-2.92 2.773.366.365 11.387 4.453 18.103-5.402 0 0 2.685 3.354 5.218 3.322-2.691-2.659-3.166-3.893-3.831-6.3z"/><path fill="#fffdfd" d="M20.816 30.909s-.047.636.023.707c.071.07.401-.447.401-.447l-.424-.26zM20.13 30.506s-.047.636.024.707c.07.072.4-.448.4-.448l-.423-.259zM19.552 33.621s-.468-.433-.568-.42c-.1.01.1.591.1.591l.468-.17z"/><path fill="#bdcccc" d="M37.403 26.587s-2.267 4.894-8.865 4.709c-6.536-.183-12.23-6.825-13.69-8.578-1-1.2-1.683-1.913-2.106-1.967a1.354 1.354 0 0 0-.01.289c.145 2.117 2.7 7.299 3.868 8.102s4.936 1.889 4.818 2.337c-.365 1.386-3.285 2.408-2.92 2.773.362.362 11.5 4.499 18.102-5.402.481-1.174.803-2.263.803-2.263z"/><path fill="#688da7" d="M23.948 25.674s.485 1.19-.5 2.605c0 0 .527-1.336.5-2.605zM24.455 26.066s.484 1.19-.5 2.605c0 0 .527-1.336.5-2.605zM24.866 26.448s.485 1.188-.5 2.604c0 0 .527-1.337.5-2.604z"/><path fill="#304454" d="M26.876 32.93c-.195-1.286-.74-1.286-.857-2.3 0 0 .038-.07.078-.155 0 0 2.96 2.103 3.934 2.375 0 0 .123 2.465 2.337 3.117-.019.055-.019.106-.019.167 0 0-4.982.038-5.473-3.205z"/><path fill="#4d677a" d="M26.954 32.773c-.195-1.285-.74-1.285-.857-2.298 0 0 1.207.545 2.065.468 0 0 .973 1.48 1.947 1.753 0 0 .234 2.336 2.26 3.27 0 0-4.924.05-5.415-3.193z"/><ellipse cx="21.627" cy="26.129" rx=".387" ry=".643" fill="#304454"/><path fill="#4d677a" d="M69.846 171.609s1.072-.775 1.28-.656c.209.119.031.894.031.894l-1.311-.238z"/><path fill="#bdcccc" d="M71.007 176.465s.542.135.88-.136c.339-.27.069-.915.069-.915l-.95 1.051z"/><path fill="#4d677a" d="M57.961 180.158s-1.355.881-1.796 1.796c0 0 2.677-1.458 4.1-1.491 0 0-1.525-.305-2.304-.305zM61.721 170.243s2.493-2.882 4.635-2.455c0 0-1.775 1.859-1.49 3.268.01.047.021.094.036.141.441 1.421-3.181-.954-3.181-.954z"/><path fill="#7a3440" d="M56.425 175.963s-2.246 3.012-1.563 3.742c1.069-.043 3-.798 3-.798l1.485-1.318-2.922-1.626z"/><path fill="#4d677a" d="M74.351 171.326c-.104-1.253.33-2.901.66-4.218l-.632-.292.852-.467a9.48 9.48 0 0 1 1.528-2.848s-2.048.903-3.643 2.54c-1.48 1.519-.809 5.49-.809 5.49s-6.205.073-11.387-2.045c-6.292-2.569-12.006-5.606-11.825-2.992.146 2.117 2.7 7.3 3.87 8.103 1.166.802 4.934 1.889 4.816 2.336-.365 1.386-3.284 2.408-2.92 2.773.366.365 11.387 4.453 18.103-5.402 0 0 2.685 3.354 5.218 3.322-2.69-2.659-3.166-3.893-3.83-6.3z"/><path fill="#fffdfd" d="M57.18 176.363s-.047.636.023.707c.07.071.4-.447.4-.447l-.423-.26zM56.494 175.961s-.048.636.023.707c.071.071.401-.448.401-.448l-.424-.259zM55.916 179.076s-.468-.433-.569-.421c-.099.011.102.592.102.592l.467-.171z"/><path fill="#bdcccc" d="M73.767 172.041s-2.267 4.894-8.865 4.709c-6.536-.183-12.23-6.825-13.69-8.578-1-1.2-1.683-1.913-2.106-1.967a1.354 1.354 0 0 0-.01.289c.145 2.117 2.7 7.299 3.868 8.102s4.936 1.889 4.818 2.337c-.365 1.386-3.285 2.408-2.92 2.773.362.362 11.5 4.499 18.102-5.402.48-1.174.803-2.263.803-2.263z"/><path fill="#688da7" d="M60.312 171.129s.485 1.189-.5 2.605c0 0 .527-1.336.5-2.605zM60.819 171.521s.484 1.189-.5 2.605c0 0 .527-1.336.5-2.605zM61.23 171.902s.484 1.188-.5 2.605c0 0 .526-1.337.5-2.605z"/><path fill="#304454" d="M63.24 178.384c-.195-1.285-.74-1.285-.857-2.299 0 0 .038-.07.078-.155 0 0 2.96 2.103 3.934 2.375 0 0 .123 2.465 2.337 3.117-.019.055-.019.106-.019.167 0 0-4.982.038-5.473-3.205z"/><path fill="#4d677a" d="M63.318 178.227c-.195-1.285-.74-1.285-.857-2.298 0 0 1.207.545 2.065.468 0 0 .973 1.48 1.947 1.753 0 0 .234 2.336 2.259 3.271 0 0-4.923.049-5.414-3.194z"/><ellipse cx="57.991" cy="171.584" rx=".387" ry=".643" fill="#304454"/><path fill="#4d677a" d="M69.846 135.245s1.072-.775 1.28-.656c.209.119.031.894.031.894l-1.311-.238z"/><path fill="#bdcccc" d="M71.007 140.101s.542.135.88-.136c.339-.27.069-.915.069-.915l-.95 1.051z"/><path fill="#4d677a" d="M57.961 143.794s-1.355.881-1.796 1.796c0 0 2.677-1.458 4.1-1.491 0 0-1.525-.305-2.304-.305zM61.721 133.879s2.493-2.882 4.635-2.455c0 0-1.775 1.859-1.49 3.268.01.047.021.094.036.141.441 1.421-3.181-.954-3.181-.954z"/><path fill="#7a3440" d="M56.425 139.6s-2.246 3.012-1.563 3.742c1.069-.043 3-.798 3-.798l1.485-1.318-2.922-1.626z"/><path fill="#4d677a" d="M74.351 134.962c-.104-1.253.33-2.901.66-4.218l-.632-.292.852-.467a9.48 9.48 0 0 1 1.528-2.848s-2.048.903-3.643 2.54c-1.48 1.519-.809 5.49-.809 5.49s-6.205.073-11.387-2.045c-6.292-2.569-12.006-5.606-11.825-2.992.146 2.117 2.7 7.3 3.87 8.103 1.166.802 4.934 1.889 4.816 2.336-.365 1.386-3.284 2.408-2.92 2.773.366.365 11.387 4.453 18.103-5.402 0 0 2.685 3.354 5.218 3.322-2.69-2.659-3.166-3.893-3.83-6.3z"/><path fill="#fffdfd" d="M57.18 140s-.047.636.023.707c.07.071.4-.447.4-.447l-.423-.26zM56.494 139.597s-.048.636.023.707c.071.071.401-.448.401-.448l-.424-.259zM55.916 142.712s-.468-.433-.569-.421c-.099.011.102.592.102.592l.467-.171z"/><path fill="#bdcccc" d="M73.767 135.678s-2.267 4.894-8.865 4.709c-6.536-.183-12.23-6.825-13.69-8.578-1-1.2-1.683-1.913-2.106-1.967a1.354 1.354 0 0 0-.01.289c.145 2.117 2.7 7.299 3.868 8.102s4.936 1.889 4.818 2.337c-.365 1.386-3.285 2.408-2.92 2.773.362.362 11.5 4.499 18.102-5.402.48-1.174.803-2.263.803-2.263z"/><path fill="#688da7" d="M60.312 134.765s.485 1.189-.5 2.605c0 0 .527-1.336.5-2.605zM60.819 135.157s.484 1.189-.5 2.605c0 0 .527-1.336.5-2.605zM61.23 135.538s.484 1.188-.5 2.605c0 0 .526-1.337.5-2.605z"/><path fill="#304454" d="M63.24 142.02c-.195-1.285-.74-1.285-.857-2.299 0 0 .038-.07.078-.155 0 0 2.96 2.103 3.934 2.375 0 0 .123 2.465 2.337 3.117-.019.055-.019.106-.019.167 0 0-4.982.038-5.473-3.205z"/><path fill="#4d677a" d="M63.318 141.864c-.195-1.285-.74-1.285-.857-2.298 0 0 1.207.545 2.065.468 0 0 .973 1.48 1.947 1.753 0 0 .234 2.336 2.259 3.271 0 0-4.923.049-5.414-3.194z"/><ellipse cx="57.991" cy="135.22" rx=".387" ry=".643" fill="#304454"/><path fill="#4d677a" d="M69.846 98.882s1.072-.776 1.28-.657c.209.12.031.895.031.895l-1.311-.239z"/><path fill="#bdcccc" d="M71.007 103.738s.542.135.88-.136c.339-.27.069-.915.069-.915l-.95 1.051z"/><path fill="#4d677a" d="M57.961 107.431s-1.355.881-1.796 1.796c0 0 2.677-1.458 4.1-1.491 0 0-1.525-.305-2.304-.305zM61.721 97.516s2.493-2.882 4.635-2.455c0 0-1.775 1.859-1.49 3.268.01.047.021.094.036.14.441 1.422-3.181-.953-3.181-.953z"/><path fill="#7a3440" d="M56.425 103.236s-2.246 3.012-1.563 3.742c1.069-.043 3-.798 3-.798l1.485-1.318-2.922-1.626z"/><path fill="#4d677a" d="M74.351 98.598c-.104-1.253.33-2.9.66-4.218l-.632-.292.852-.467a9.48 9.48 0 0 1 1.528-2.848s-2.048.903-3.643 2.54c-1.48 1.52-.809 5.49-.809 5.49s-6.205.073-11.387-2.045c-6.292-2.569-12.006-5.606-11.825-2.992.146 2.117 2.7 7.3 3.87 8.103 1.166.802 4.934 1.889 4.816 2.336-.365 1.386-3.284 2.408-2.92 2.773.366.365 11.387 4.453 18.103-5.402 0 0 2.685 3.354 5.218 3.322-2.69-2.659-3.166-3.893-3.83-6.3z"/><path fill="#fffdfd" d="M57.18 103.636s-.047.636.023.707c.07.071.4-.447.4-.447l-.423-.26zM56.494 103.234s-.048.636.023.707c.071.071.401-.448.401-.448l-.424-.259zM55.916 106.349s-.468-.433-.569-.421c-.099.011.102.592.102.592l.467-.171z"/><path fill="#bdcccc" d="M73.767 99.314s-2.267 4.894-8.865 4.709c-6.536-.183-12.23-6.825-13.69-8.578-1-1.2-1.683-1.913-2.106-1.967a1.354 1.354 0 0 0-.01.289c.145 2.117 2.7 7.299 3.868 8.102s4.936 1.889 4.818 2.337c-.365 1.386-3.285 2.408-2.92 2.773.362.362 11.5 4.499 18.102-5.402.48-1.174.803-2.263.803-2.263z"/><path fill="#688da7" d="M60.312 98.401s.485 1.19-.5 2.606c0 0 .527-1.337.5-2.606zM60.819 98.794s.484 1.189-.5 2.605c0 0 .527-1.336.5-2.605zM61.23 99.175s.484 1.188-.5 2.605c0 0 .526-1.337.5-2.605z"/><path fill="#304454" d="M63.24 105.657c-.195-1.285-.74-1.285-.857-2.299 0 0 .038-.07.078-.155 0 0 2.96 2.103 3.934 2.375 0 0 .123 2.465 2.337 3.117-.019.055-.019.106-.019.167 0 0-4.982.038-5.473-3.205z"/><path fill="#4d677a" d="M63.318 105.5c-.195-1.285-.74-1.285-.857-2.298 0 0 1.207.545 2.065.468 0 0 .973 1.48 1.947 1.753 0 0 .234 2.336 2.259 3.271 0 0-4.923.049-5.414-3.194z"/><ellipse cx="57.991" cy="98.857" rx=".387" ry=".643" fill="#304454"/><path fill="#4d677a" d="M69.846 62.518s1.072-.775 1.28-.656c.209.119.031.894.031.894l-1.311-.238z"/><path fill="#bdcccc" d="M71.007 67.374s.542.135.88-.136c.339-.27.069-.915.069-.915l-.95 1.05z"/><path fill="#4d677a" d="M57.961 71.067s-1.355.88-1.796 1.796c0 0 2.677-1.458 4.1-1.491 0 0-1.525-.305-2.304-.305zM61.721 61.152s2.493-2.882 4.635-2.455c0 0-1.775 1.86-1.49 3.268.01.047.021.094.036.141.441 1.421-3.181-.954-3.181-.954z"/><path fill="#7a3440" d="M56.425 66.872s-2.246 3.012-1.563 3.742c1.069-.043 3-.798 3-.798l1.485-1.318-2.922-1.626z"/><path fill="#4d677a" d="M74.351 62.235c-.104-1.253.33-2.901.66-4.218l-.632-.292.852-.467a9.48 9.48 0 0 1 1.528-2.848s-2.048.903-3.643 2.54c-1.48 1.519-.809 5.49-.809 5.49s-6.205.073-11.387-2.045c-6.292-2.57-12.006-5.606-11.825-2.992.146 2.117 2.7 7.3 3.87 8.103 1.166.802 4.934 1.889 4.816 2.336-.365 1.386-3.284 2.408-2.92 2.773.366.365 11.387 4.453 18.103-5.402 0 0 2.685 3.354 5.218 3.322-2.69-2.66-3.166-3.893-3.83-6.3z"/><path fill="#fffdfd" d="M57.18 67.272s-.047.636.023.707c.07.072.4-.447.4-.447l-.423-.26zM56.494 66.87s-.048.636.023.707c.071.071.401-.448.401-.448l-.424-.259zM55.916 69.985s-.468-.433-.569-.42c-.099.01.102.591.102.591l.467-.17z"/><path fill="#bdcccc" d="M73.767 62.95s-2.267 4.894-8.865 4.71c-6.536-.184-12.23-6.826-13.69-8.579-1-1.2-1.683-1.913-2.106-1.967a1.354 1.354 0 0 0-.01.29c.145 2.116 2.7 7.298 3.868 8.101s4.936 1.89 4.818 2.337c-.365 1.386-3.285 2.408-2.92 2.773.362.362 11.5 4.5 18.102-5.402.48-1.174.803-2.263.803-2.263z"/><path fill="#688da7" d="M60.312 62.038s.485 1.189-.5 2.605c0 0 .527-1.336.5-2.605zM60.819 62.43s.484 1.19-.5 2.605c0 0 .527-1.336.5-2.605zM61.23 62.811s.484 1.188-.5 2.605c0 0 .526-1.337.5-2.605z"/><path fill="#304454" d="M63.24 69.293c-.195-1.285-.74-1.285-.857-2.3 0 0 .038-.07.078-.154 0 0 2.96 2.103 3.934 2.375 0 0 .123 2.465 2.337 3.117-.019.055-.019.106-.019.167 0 0-4.982.038-5.473-3.205z"/><path fill="#4d677a" d="M63.318 69.136c-.195-1.284-.74-1.284-.857-2.297 0 0 1.207.544 2.065.468 0 0 .973 1.48 1.947 1.752 0 0 .234 2.337 2.259 3.272 0 0-4.923.048-5.414-3.195z"/><ellipse cx="57.991" cy="62.493" rx=".387" ry=".643" fill="#304454"/><path fill="#4d677a" d="M69.846 26.154s1.072-.775 1.28-.656c.209.12.031.894.031.894l-1.311-.238z"/><path fill="#bdcccc" d="M71.007 31.01s.542.135.88-.136c.339-.27.069-.915.069-.915l-.95 1.051z"/><path fill="#4d677a" d="M57.961 34.703s-1.355.881-1.796 1.796c0 0 2.677-1.458 4.1-1.49 0 0-1.525-.306-2.304-.306zM61.721 24.788s2.493-2.881 4.635-2.454c0 0-1.775 1.858-1.49 3.268.01.046.021.093.036.14.441 1.421-3.181-.954-3.181-.954z"/><path fill="#7a3440" d="M56.425 30.509s-2.246 3.012-1.563 3.742c1.069-.043 3-.798 3-.798l1.485-1.318-2.922-1.626z"/><path fill="#4d677a" d="M74.351 25.871c-.104-1.253.33-2.9.66-4.218l-.632-.292.852-.467a9.48 9.48 0 0 1 1.528-2.848s-2.048.903-3.643 2.54c-1.48 1.52-.809 5.49-.809 5.49s-6.205.073-11.387-2.045c-6.292-2.569-12.006-5.606-11.825-2.992.146 2.117 2.7 7.3 3.87 8.103 1.166.802 4.934 1.89 4.816 2.336-.365 1.386-3.284 2.408-2.92 2.773.366.365 11.387 4.453 18.103-5.402 0 0 2.685 3.354 5.218 3.322-2.69-2.659-3.166-3.893-3.83-6.3z"/><path fill="#fffdfd" d="M57.18 30.909s-.047.636.023.707c.07.07.4-.447.4-.447l-.423-.26zM56.494 30.506s-.048.636.023.707c.071.072.401-.448.401-.448l-.424-.259zM55.916 33.621s-.468-.433-.569-.42c-.099.01.102.591.102.591l.467-.17z"/><path fill="#bdcccc" d="M73.767 26.587s-2.267 4.894-8.865 4.709c-6.536-.183-12.23-6.825-13.69-8.578-1-1.2-1.683-1.913-2.106-1.967a1.354 1.354 0 0 0-.01.289c.145 2.117 2.7 7.299 3.868 8.102s4.936 1.889 4.818 2.337c-.365 1.386-3.285 2.408-2.92 2.773.362.362 11.5 4.499 18.102-5.402.48-1.174.803-2.263.803-2.263z"/><path fill="#688da7" d="M60.312 25.674s.485 1.19-.5 2.605c0 0 .527-1.336.5-2.605zM60.819 26.066s.484 1.19-.5 2.605c0 0 .527-1.336.5-2.605zM61.23 26.448s.484 1.188-.5 2.604c0 0 .526-1.337.5-2.604z"/><path fill="#304454" d="M63.24 32.93c-.195-1.286-.74-1.286-.857-2.3 0 0 .038-.07.078-.155 0 0 2.96 2.103 3.934 2.375 0 0 .123 2.465 2.337 3.117-.019.055-.019.106-.019.167 0 0-4.982.038-5.473-3.205z"/><path fill="#4d677a" d="M63.318 32.773c-.195-1.285-.74-1.285-.857-2.298 0 0 1.207.545 2.065.468 0 0 .973 1.48 1.947 1.753 0 0 .234 2.336 2.259 3.27 0 0-4.923.05-5.414-3.193z"/><ellipse cx="57.991" cy="26.129" rx=".387" ry=".643" fill="#304454"/><path fill="#4d677a" d="M106.21 171.609s1.072-.775 1.28-.656c.209.119.031.894.031.894l-1.311-.238z"/><path fill="#bdcccc" d="M107.37 176.465s.542.135.881-.136c.338-.27.068-.915.068-.915l-.949 1.051z"/><path fill="#4d677a" d="M94.325 180.158s-1.355.881-1.796 1.796c0 0 2.677-1.458 4.1-1.491 0 0-1.525-.305-2.304-.305zM98.085 170.243s2.493-2.882 4.635-2.455c0 0-1.775 1.859-1.49 3.268.01.047.021.094.036.141.441 1.421-3.181-.954-3.181-.954z"/><path fill="#7a3440" d="M92.79 175.963s-2.248 3.012-1.565 3.742c1.07-.043 3.001-.798 3.001-.798l1.485-1.318-2.922-1.626z"/><path fill="#4d677a" d="M110.715 171.326c-.104-1.253.33-2.901.659-4.218l-.631-.292.852-.467a9.48 9.48 0 0 1 1.528-2.848s-2.048.903-3.643 2.54c-1.48 1.519-.809 5.49-.809 5.49s-6.205.073-11.387-2.045c-6.292-2.569-12.006-5.606-11.825-2.992.146 2.117 2.7 7.3 3.869 8.103 1.167.802 4.935 1.889 4.817 2.336-.365 1.386-3.284 2.408-2.92 2.773.366.365 11.387 4.453 18.103-5.402 0 0 2.685 3.354 5.218 3.322-2.691-2.659-3.166-3.893-3.831-6.3z"/><path fill="#fffdfd" d="M93.543 176.363s-.047.636.023.707c.071.071.401-.447.401-.447l-.424-.26zM92.858 175.961s-.048.636.023.707.401-.448.401-.448l-.424-.259zM92.28 179.076s-.469-.433-.569-.421c-.099.011.101.592.101.592l.467-.171z"/><path fill="#bdcccc" d="M110.13 172.041s-2.267 4.894-8.865 4.709c-6.535-.183-12.23-6.825-13.69-8.578-1-1.2-1.683-1.913-2.106-1.967a1.354 1.354 0 0 0-.01.289c.145 2.117 2.7 7.299 3.868 8.102 1.169.803 4.936 1.889 4.819 2.337-.365 1.386-3.285 2.408-2.92 2.773.362.362 11.499 4.499 18.101-5.402.481-1.174.803-2.263.803-2.263z"/><path fill="#688da7" d="M96.675 171.129s.485 1.189-.5 2.605c0 0 .527-1.336.5-2.605zM97.183 171.521s.483 1.189-.5 2.605c0 0 .526-1.336.5-2.605zM97.593 171.902s.485 1.188-.5 2.605c0 0 .527-1.337.5-2.605z"/><path fill="#304454" d="M99.604 178.384c-.195-1.285-.74-1.285-.857-2.299 0 0 .038-.07.078-.155 0 0 2.96 2.103 3.934 2.375 0 0 .123 2.465 2.337 3.117-.019.055-.019.106-.019.167 0 0-4.982.038-5.473-3.205z"/><path fill="#4d677a" d="M99.682 178.227c-.195-1.285-.74-1.285-.857-2.298 0 0 1.207.545 2.065.468 0 0 .973 1.48 1.947 1.753 0 0 .234 2.336 2.259 3.271 0 0-4.923.049-5.414-3.194z"/><ellipse cx="94.355" cy="171.584" rx=".387" ry=".643" fill="#304454"/><path fill="#4d677a" d="M106.21 135.245s1.072-.775 1.28-.656c.209.119.031.894.031.894l-1.311-.238z"/><path fill="#bdcccc" d="M107.37 140.101s.542.135.881-.136c.338-.27.068-.915.068-.915l-.949 1.051z"/><path fill="#4d677a" d="M94.325 143.794s-1.355.881-1.796 1.796c0 0 2.677-1.458 4.1-1.491 0 0-1.525-.305-2.304-.305zM98.085 133.879s2.493-2.882 4.635-2.455c0 0-1.775 1.859-1.49 3.268.01.047.021.094.036.141.441 1.421-3.181-.954-3.181-.954z"/><path fill="#7a3440" d="M92.79 139.6s-2.248 3.012-1.565 3.742c1.07-.043 3.001-.798 3.001-.798l1.485-1.318-2.922-1.626z"/><path fill="#4d677a" d="M110.715 134.962c-.104-1.253.33-2.901.659-4.218l-.631-.292.852-.467a9.48 9.48 0 0 1 1.528-2.848s-2.048.903-3.643 2.54c-1.48 1.519-.809 5.49-.809 5.49s-6.205.073-11.387-2.045c-6.292-2.569-12.006-5.606-11.825-2.992.146 2.117 2.7 7.3 3.869 8.103 1.167.802 4.935 1.889 4.817 2.336-.365 1.386-3.284 2.408-2.92 2.773.366.365 11.387 4.453 18.103-5.402 0 0 2.685 3.354 5.218 3.322-2.691-2.659-3.166-3.893-3.831-6.3z"/><path fill="#fffdfd" d="M93.543 140s-.047.636.023.707c.071.071.401-.447.401-.447l-.424-.26zM92.858 139.597s-.048.636.023.707.401-.448.401-.448l-.424-.259zM92.28 142.712s-.469-.433-.569-.421c-.099.011.101.592.101.592l.467-.171z"/><path fill="#bdcccc" d="M110.13 135.678s-2.267 4.894-8.865 4.709c-6.535-.183-12.23-6.825-13.69-8.578-1-1.2-1.683-1.913-2.106-1.967a1.354 1.354 0 0 0-.01.289c.145 2.117 2.7 7.299 3.868 8.102 1.169.803 4.936 1.889 4.819 2.337-.365 1.386-3.285 2.408-2.92 2.773.362.362 11.499 4.499 18.101-5.402.481-1.174.803-2.263.803-2.263z"/><path fill="#688da7" d="M96.675 134.765s.485 1.189-.5 2.605c0 0 .527-1.336.5-2.605zM97.183 135.157s.483 1.189-.5 2.605c0 0 .526-1.336.5-2.605zM97.593 135.538s.485 1.188-.5 2.605c0 0 .527-1.337.5-2.605z"/><path fill="#304454" d="M99.604 142.02c-.195-1.285-.74-1.285-.857-2.299 0 0 .038-.07.078-.155 0 0 2.96 2.103 3.934 2.375 0 0 .123 2.465 2.337 3.117-.019.055-.019.106-.019.167 0 0-4.982.038-5.473-3.205z"/><path fill="#4d677a" d="M99.682 141.864c-.195-1.285-.74-1.285-.857-2.298 0 0 1.207.545 2.065.468 0 0 .973 1.48 1.947 1.753 0 0 .234 2.336 2.259 3.271 0 0-4.923.049-5.414-3.194z"/><ellipse cx="94.355" cy="135.22" rx=".387" ry=".643" fill="#304454"/></svg>
