<svg xmlns="http://www.w3.org/2000/svg" width="58.333" height="150" viewBox="0 0 58.33333333333334 150"><path fill="#ccfaff" stroke="#0c7f99" d="M4.167 134.722v13.889h13.889L25 141.667v-13.889H11.111z" stroke-width="2"/><path fill="#ccfaff" stroke="#0c7f99" d="M4.167 134.722h13.889v13.889M18.056 134.722L25 127.778M4.167 106.944v13.889h13.889L25 113.889V100H11.111z" stroke-width="2"/><path fill="#ccfaff" stroke="#0c7f99" d="M4.167 106.944h13.889v13.889M18.056 106.944L25 100M4.167 79.167v13.889h13.889L25 86.11V72.222H11.111z" stroke-width="2"/><path fill="#ccfaff" stroke="#0c7f99" d="M4.167 79.167h13.889v13.889M18.056 79.167L25 72.222M4.167 51.389v13.889h13.889L25 58.333V44.444H11.111z" stroke-width="2"/><path fill="#ccfaff" stroke="#0c7f99" d="M4.167 51.389h13.889v13.889M18.056 51.389L25 44.444M4.167 23.611V37.5h13.889L25 30.556v-13.89H11.111z" stroke-width="2"/><path fill="#ccfaff" stroke="#0c7f99" d="M4.167 23.611h13.889V37.5M18.056 23.611L25 16.667M31.944 134.722v13.889h13.89l6.944-6.944v-13.889h-13.89z" stroke-width="2"/><path fill="#ccfaff" stroke="#0c7f99" d="M31.944 134.722h13.89v13.889M45.833 134.722l6.945-6.944" stroke-width="2"/></svg>
