<svg xmlns="http://www.w3.org/2000/svg" width="127.273" height="200" viewBox="0 0 127.27272727272728 200.00000000000003"><path fill="#bdcccc" d="M41.818 173.554c0-.955-.385-1.819-1.006-2.449a3.475 3.475 0 0 0-1.203-3.85c1.532-1.466.401-3.931.401-3.931-.072.867-1.168 1.915-1.76 2.423a1.38 1.38 0 0 0-.96-.653 4.4 4.4 0 0 0-3.852-2.641 2.053 2.053 0 0 0-3.429-.08 3.165 3.165 0 0 0-2.382.265 4.79 4.79 0 0 0-1.86-.374 4.783 4.783 0 0 0-4.064 2.256 1.909 1.909 0 0 0-1.176.167 1.574 1.574 0 0 0-2.489.651 2.849 2.849 0 0 0-2.466 2.821 2.85 2.85 0 0 0 2.034 2.727l-.002.034c0 .642.318 1.209.805 1.552a5.22 5.22 0 0 0 .043 4.824c-.23.276-.374.625-.374 1.013 0 .877.711 1.587 1.588 1.587.046 0 .09-.01.134-.014a1.92 1.92 0 0 0 1.784.916 4.62 4.62 0 0 0 4.147 2.591c.601 0 1.172-.118 1.698-.326a5.21 5.21 0 0 0 2.94.904 5.214 5.214 0 0 0 2.905-.88c.324.237.72.381 1.153.381.963 0 1.76-.696 1.925-1.613a1.925 1.925 0 0 0 1.065-1.628 5.237 5.237 0 0 0 2.523-2.257 2.06 2.06 0 0 0 1.492-2.827 3.47 3.47 0 0 0 .386-1.589m-13.875-.639l-.028-.07a.654.654 0 0 0 .057.051c-.01.008-.02.012-.029.019z"/><path fill="#563f32" d="M21.313 169.902s1.663-2.144.474-4.197c-1.225-2.116-4.51-1.675-4.881.665-.388 2.44 2.714 2.943 3.143 1.432.398-1.407-.78-1.873-1.49-1.306 0 0 .415-.038.679.133.18.117.287.371.159.644-.348.732-1.695.269-1.382-.848.26-.928 3.3-.973 2.118 2.174l1.18 1.303z"/><path fill="#f4dbc5" d="M23.556 169.168s-3.832-1.201-6.158-.371c-2.306.826-1.708 2.997-3.507 4.088-1.877 1.14-1.49 4.437 1.206 4.557.513.022.912-.232 1.432-.205.481.027.11.493.674.644 2.194.579 4.53-.499 5.31-.818 1.288-.529 1.043-7.895 1.043-7.895z"/><path fill="#e3ac8a" d="M23.556 169.168s-3.832-1.201-6.158-.371a3.234 3.234 0 0 0-.81.42 2.642 2.642 0 0 0 1.846 2.067v.033c0 .595.295 1.12.748 1.44a4.836 4.836 0 0 0 .033 4.478c-.186.221-.308.5-.335.804 1.606-.08 3.052-.738 3.633-.977 1.288-.528 1.043-7.894 1.043-7.894z"/><path fill="#f4dbc5" d="M21.222 178.049s-4.144 1.178-2.563 2.893c.955 1.038 2.503-.511 2.83-2.504l-.267-.389zM23.849 180.167s-4.565 1.297-2.823 3.187c1.052 1.141 2.757-.562 3.119-2.76l-.296-.427zM37.923 176.858s1.593 4.284 3.274 2.466c1.016-1.096-.75-2.603-2.887-2.782l-.387.316z"/><path fill="#f4dbc5" d="M36.273 179.066s1.654 4.447 3.4 2.562c1.055-1.139-.78-2.704-3-2.89l-.4.328z"/><path fill="#efefef" d="M33.527 164.145a1.913 1.913 0 1 1-3.826.002 1.913 1.913 0 0 1 3.826-.002z"/><path fill="#e2e2e2" d="M40.809 175.666a1.914 1.914 0 1 1-3.828-.001 1.914 1.914 0 0 1 3.828.001z"/><ellipse cx="34.149" cy="180.826" rx="1.82" ry="1.82" fill="#e2e2e2"/><path fill="#efefef" d="M21.776 166.334a1.475 1.475 0 1 1-2.949 0 1.475 1.475 0 0 1 2.95 0z"/><path fill="#e2e2e2" d="M21.915 177.855c0 .815-.66 1.474-1.475 1.474a1.474 1.474 0 1 1 0-2.949c.815 0 1.475.659 1.475 1.475z"/><path fill="#efefef" d="M37.352 166.473s1.889-1.429 1.981-2.535c0 0 1.291 2.811-.922 4.055l-1.059-1.52z"/><path fill="#efefef" d="M41.013 173.44c0-.887-.357-1.69-.935-2.275a3.24 3.24 0 0 0-2.213-4.123 1.282 1.282 0 0 0-1.057-1.46 4.093 4.093 0 0 0-5.696-1.968 2.936 2.936 0 0 0-3.278-.312 4.46 4.46 0 0 0-1.728-.347 4.442 4.442 0 0 0-3.773 2.094 1.789 1.789 0 0 0-1.922.989 2.63 2.63 0 0 0-1.127-.255 2.646 2.646 0 0 0-2.646 2.646c0 1.196.798 2.206 1.889 2.533l-.001.031c0 .596.295 1.123.747 1.442a4.84 4.84 0 0 0-.53 2.208c0 1.411.602 2.68 1.56 3.569a1.79 1.79 0 0 0 1.784 1.961c.047 0 .09-.003.136-.006a4.29 4.29 0 0 0 3.85 2.406c.559 0 1.089-.11 1.577-.302a4.86 4.86 0 0 0 6.645-1.137 1.791 1.791 0 0 0 2.632-1.497 4.864 4.864 0 0 0 2.913-3.702 3.226 3.226 0 0 0 1.173-2.495m-12.911-.658c.017.017.035.032.053.047l-.028.017c-.01-.021-.017-.043-.025-.064z"/><path fill="#563f32" d="M20.009 169.048s2.579-2.842 5.729-1.688c3.248 1.188 3.437 5.869.27 6.96-3.304 1.138-4.764-3.059-2.764-4.027 1.862-.899 2.799.627 2.183 1.753 0 0-.048-.585-.351-.911-.207-.223-.588-.309-.935-.064-.935.664.039 2.427 1.518 1.717 1.229-.589.547-4.834-3.545-2.417l-2.105-1.323z"/><path fill="#efefef" d="M21.224 170.39a1.153 1.153 0 1 1-2.305-.001 1.153 1.153 0 0 1 2.305.001z"/><ellipse cx="17.211" cy="173.164" rx=".332" ry=".552" fill="#304454" transform="rotate(7.944 17.21 173.164)"/><path fill="#e2e2e2" d="M40.078 171.158a3.222 3.222 0 0 0-.186-2.454 3.521 3.521 0 0 1-1.149 3.657 5.301 5.301 0 0 1-3.175 4.035 1.952 1.952 0 0 1-2.869 1.633 5.294 5.294 0 0 1-4.267 2.153 5.276 5.276 0 0 1-2.976-.915 4.67 4.67 0 0 1-1.718.33 4.675 4.675 0 0 1-4.198-2.623c-.049.003-.098.007-.148.007l-.043-.002c.253.458.574.872.955 1.225a1.79 1.79 0 0 0 1.919 1.955 4.288 4.288 0 0 0 3.851 2.407c.558 0 1.088-.11 1.576-.303a4.857 4.857 0 0 0 6.645-1.136 1.792 1.792 0 0 0 2.632-1.498 4.86 4.86 0 0 0 2.913-3.701 3.235 3.235 0 0 0 .238-4.77zM26.005 168.975a.698.698 0 0 1-.058-.052c.01.024.017.047.028.07l.03-.018z"/><path fill="#bdcccc" d="M41.818 137.19c0-.955-.385-1.819-1.006-2.449a3.475 3.475 0 0 0-1.203-3.85c1.532-1.466.401-3.931.401-3.931-.072.867-1.168 1.915-1.76 2.423a1.38 1.38 0 0 0-.96-.653 4.4 4.4 0 0 0-3.852-2.641 2.053 2.053 0 0 0-3.429-.08 3.165 3.165 0 0 0-2.382.265 4.79 4.79 0 0 0-1.86-.374 4.783 4.783 0 0 0-4.064 2.256 1.909 1.909 0 0 0-1.176.167 1.574 1.574 0 0 0-2.489.651 2.849 2.849 0 0 0-2.466 2.821 2.85 2.85 0 0 0 2.034 2.727l-.002.034c0 .642.318 1.209.805 1.552a5.22 5.22 0 0 0 .043 4.824c-.23.276-.374.625-.374 1.013 0 .877.711 1.587 1.588 1.587.046 0 .09-.01.134-.014a1.92 1.92 0 0 0 1.784.916 4.62 4.62 0 0 0 4.147 2.591c.601 0 1.172-.118 1.698-.326a5.21 5.21 0 0 0 2.94.904 5.214 5.214 0 0 0 2.905-.88c.324.237.72.381 1.153.381.963 0 1.76-.696 1.925-1.613a1.925 1.925 0 0 0 1.065-1.628 5.237 5.237 0 0 0 2.523-2.257 2.06 2.06 0 0 0 1.492-2.827 3.47 3.47 0 0 0 .386-1.589m-13.875-.639l-.028-.07a.654.654 0 0 0 .057.051c-.01.008-.02.012-.029.019z"/><path fill="#563f32" d="M21.313 133.538s1.663-2.144.474-4.197c-1.225-2.116-4.51-1.675-4.881.665-.388 2.44 2.714 2.943 3.143 1.432.398-1.407-.78-1.873-1.49-1.306 0 0 .415-.038.679.133.18.117.287.371.159.644-.348.732-1.695.269-1.382-.848.26-.928 3.3-.973 2.118 2.174l1.18 1.303z"/><path fill="#f4dbc5" d="M23.556 132.804s-3.832-1.201-6.158-.371c-2.306.826-1.708 2.997-3.507 4.088-1.877 1.14-1.49 4.437 1.206 4.557.513.022.912-.232 1.432-.205.481.027.11.493.674.644 2.194.579 4.53-.499 5.31-.818 1.288-.529 1.043-7.895 1.043-7.895z"/><path fill="#e3ac8a" d="M23.556 132.804s-3.832-1.201-6.158-.371a3.234 3.234 0 0 0-.81.42 2.642 2.642 0 0 0 1.846 2.067v.033c0 .595.295 1.12.748 1.44a4.836 4.836 0 0 0 .033 4.478c-.186.221-.308.5-.335.804 1.606-.08 3.052-.738 3.633-.977 1.288-.528 1.043-7.894 1.043-7.894z"/><path fill="#f4dbc5" d="M21.222 141.685s-4.144 1.178-2.563 2.893c.955 1.038 2.503-.511 2.83-2.504l-.267-.389zM23.849 143.803s-4.565 1.297-2.823 3.187c1.052 1.141 2.757-.562 3.119-2.76l-.296-.427zM37.923 140.494s1.593 4.284 3.274 2.466c1.016-1.096-.75-2.603-2.887-2.782l-.387.316z"/><path fill="#f4dbc5" d="M36.273 142.702s1.654 4.447 3.4 2.562c1.055-1.139-.78-2.704-3-2.89l-.4.328z"/><path fill="#efefef" d="M33.527 127.781a1.913 1.913 0 1 1-3.826.002 1.913 1.913 0 0 1 3.826-.002z"/><path fill="#e2e2e2" d="M40.809 139.302a1.914 1.914 0 1 1-3.828-.001 1.914 1.914 0 0 1 3.828.001z"/><ellipse cx="34.149" cy="144.462" rx="1.82" ry="1.82" fill="#e2e2e2"/><path fill="#efefef" d="M21.776 129.97a1.475 1.475 0 1 1-2.949 0 1.475 1.475 0 0 1 2.95 0z"/><path fill="#e2e2e2" d="M21.915 141.491c0 .815-.66 1.474-1.475 1.474a1.474 1.474 0 1 1 0-2.949c.815 0 1.475.659 1.475 1.475z"/><path fill="#efefef" d="M37.352 130.11s1.889-1.429 1.981-2.535c0 0 1.291 2.811-.922 4.055l-1.059-1.52z"/><path fill="#efefef" d="M41.013 137.076c0-.887-.357-1.69-.935-2.275a3.24 3.24 0 0 0-2.213-4.123 1.282 1.282 0 0 0-1.057-1.46 4.093 4.093 0 0 0-5.696-1.968 2.936 2.936 0 0 0-3.278-.312 4.46 4.46 0 0 0-1.728-.347 4.442 4.442 0 0 0-3.773 2.094 1.789 1.789 0 0 0-1.922.989 2.63 2.63 0 0 0-1.127-.255 2.646 2.646 0 0 0-2.646 2.646c0 1.196.798 2.206 1.889 2.533l-.001.031c0 .596.295 1.123.747 1.442a4.84 4.84 0 0 0-.53 2.208c0 1.411.602 2.68 1.56 3.569a1.79 1.79 0 0 0 1.784 1.961c.047 0 .09-.003.136-.006a4.29 4.29 0 0 0 3.85 2.406c.559 0 1.089-.11 1.577-.302a4.86 4.86 0 0 0 6.645-1.137 1.791 1.791 0 0 0 2.632-1.497 4.864 4.864 0 0 0 2.913-3.702 3.226 3.226 0 0 0 1.173-2.495m-12.911-.658c.017.017.035.032.053.047l-.028.017c-.01-.021-.017-.043-.025-.064z"/><path fill="#563f32" d="M20.009 132.685s2.579-2.842 5.729-1.688c3.248 1.188 3.437 5.869.27 6.96-3.304 1.138-4.764-3.059-2.764-4.027 1.862-.899 2.799.627 2.183 1.753 0 0-.048-.585-.351-.911-.207-.223-.588-.309-.935-.064-.935.664.039 2.427 1.518 1.717 1.229-.589.547-4.834-3.545-2.417l-2.105-1.323z"/><path fill="#efefef" d="M21.224 134.026a1.153 1.153 0 1 1-2.305-.001 1.153 1.153 0 0 1 2.305.001z"/><ellipse cx="17.211" cy="136.801" rx=".332" ry=".552" fill="#304454" transform="rotate(7.944 17.21 136.8)"/><path fill="#e2e2e2" d="M40.078 134.794a3.222 3.222 0 0 0-.186-2.454 3.521 3.521 0 0 1-1.149 3.657 5.301 5.301 0 0 1-3.175 4.035 1.952 1.952 0 0 1-2.869 1.633 5.294 5.294 0 0 1-4.267 2.153 5.276 5.276 0 0 1-2.976-.915 4.67 4.67 0 0 1-1.718.33 4.675 4.675 0 0 1-4.198-2.623c-.049.003-.098.007-.148.007l-.043-.002c.253.458.574.872.955 1.225a1.79 1.79 0 0 0 1.919 1.955 4.288 4.288 0 0 0 3.851 2.407c.558 0 1.088-.11 1.576-.303a4.857 4.857 0 0 0 6.645-1.136 1.792 1.792 0 0 0 2.632-1.498 4.86 4.86 0 0 0 2.913-3.701 3.235 3.235 0 0 0 .238-4.77zM26.005 132.611a.698.698 0 0 1-.058-.052c.01.024.017.047.028.07l.03-.018z"/><path fill="#bdcccc" d="M41.818 100.827c0-.955-.385-1.82-1.006-2.45a3.475 3.475 0 0 0-1.203-3.85c1.532-1.465.401-3.93.401-3.93-.072.867-1.168 1.915-1.76 2.423a1.38 1.38 0 0 0-.96-.653 4.4 4.4 0 0 0-3.852-2.641 2.053 2.053 0 0 0-3.429-.08 3.165 3.165 0 0 0-2.382.265 4.79 4.79 0 0 0-1.86-.374 4.783 4.783 0 0 0-4.064 2.256 1.909 1.909 0 0 0-1.176.167 1.574 1.574 0 0 0-2.489.65 2.849 2.849 0 0 0-2.466 2.822 2.85 2.85 0 0 0 2.034 2.727l-.002.034c0 .642.318 1.209.805 1.552a5.222 5.222 0 0 0 .043 4.824c-.23.276-.374.625-.374 1.013 0 .877.711 1.587 1.588 1.587.046 0 .09-.01.134-.014a1.92 1.92 0 0 0 1.784.916 4.62 4.62 0 0 0 4.147 2.591c.601 0 1.172-.118 1.698-.326a5.21 5.21 0 0 0 2.94.904 5.214 5.214 0 0 0 2.905-.88c.324.237.72.381 1.153.381.963 0 1.76-.696 1.925-1.613a1.925 1.925 0 0 0 1.065-1.628 5.237 5.237 0 0 0 2.523-2.257 2.06 2.06 0 0 0 1.492-2.827 3.47 3.47 0 0 0 .386-1.589m-13.875-.639l-.028-.07a.654.654 0 0 0 .057.051c-.01.008-.02.012-.029.019z"/><path fill="#563f32" d="M21.313 97.174s1.663-2.144.474-4.197c-1.225-2.116-4.51-1.675-4.881.665-.388 2.44 2.714 2.943 3.143 1.432.398-1.407-.78-1.873-1.49-1.306 0 0 .415-.038.679.133.18.117.287.371.159.644-.348.732-1.695.27-1.382-.848.26-.928 3.3-.973 2.118 2.174l1.18 1.303z"/><path fill="#f4dbc5" d="M23.556 96.44s-3.832-1.2-6.158-.37c-2.306.826-1.708 2.997-3.507 4.088-1.877 1.14-1.49 4.437 1.206 4.557.513.022.912-.232 1.432-.205.481.027.11.493.674.644 2.194.579 4.53-.499 5.31-.818 1.288-.529 1.043-7.895 1.043-7.895z"/><path fill="#e3ac8a" d="M23.556 96.44s-3.832-1.2-6.158-.37a3.234 3.234 0 0 0-.81.42 2.642 2.642 0 0 0 1.846 2.067v.033c0 .595.295 1.12.748 1.44a4.836 4.836 0 0 0 .033 4.478c-.186.221-.308.5-.335.804 1.606-.08 3.052-.738 3.633-.977 1.288-.528 1.043-7.894 1.043-7.894z"/><path fill="#f4dbc5" d="M21.222 105.322s-4.144 1.178-2.563 2.893c.955 1.038 2.503-.511 2.83-2.504l-.267-.389zM23.849 107.44s-4.565 1.297-2.823 3.187c1.052 1.141 2.757-.562 3.119-2.76l-.296-.427zM37.923 104.131s1.593 4.284 3.274 2.466c1.016-1.096-.75-2.603-2.887-2.782l-.387.316z"/><path fill="#f4dbc5" d="M36.273 106.338s1.654 4.447 3.4 2.562c1.055-1.139-.78-2.704-3-2.89l-.4.328z"/><path fill="#efefef" d="M33.527 91.417a1.913 1.913 0 1 1-3.826.002 1.913 1.913 0 0 1 3.826-.002z"/><path fill="#e2e2e2" d="M40.809 102.938a1.914 1.914 0 1 1-3.828-.001 1.914 1.914 0 0 1 3.828.001z"/><ellipse cx="34.149" cy="108.099" rx="1.82" ry="1.82" fill="#e2e2e2"/><path fill="#efefef" d="M21.776 93.607a1.475 1.475 0 1 1-2.949 0 1.475 1.475 0 0 1 2.95 0z"/><path fill="#e2e2e2" d="M21.915 105.128c0 .815-.66 1.474-1.475 1.474a1.474 1.474 0 1 1 0-2.949c.815 0 1.475.659 1.475 1.475z"/><path fill="#efefef" d="M37.352 93.746s1.889-1.429 1.981-2.535c0 0 1.291 2.811-.922 4.055l-1.059-1.52z"/><path fill="#efefef" d="M41.013 100.713c0-.887-.357-1.69-.935-2.275a3.24 3.24 0 0 0-2.213-4.123 1.282 1.282 0 0 0-1.057-1.46 4.093 4.093 0 0 0-5.696-1.968 2.936 2.936 0 0 0-3.278-.312 4.46 4.46 0 0 0-1.728-.347 4.442 4.442 0 0 0-3.773 2.094 1.789 1.789 0 0 0-1.922.989 2.63 2.63 0 0 0-1.127-.255 2.646 2.646 0 0 0-2.646 2.646c0 1.196.798 2.206 1.889 2.533l-.001.03c0 .597.295 1.124.747 1.443a4.842 4.842 0 0 0-.53 2.208c0 1.411.602 2.68 1.56 3.569a1.79 1.79 0 0 0 1.784 1.961c.047 0 .09-.003.136-.006a4.29 4.29 0 0 0 3.85 2.406c.559 0 1.089-.11 1.577-.302a4.86 4.86 0 0 0 6.645-1.137 1.791 1.791 0 0 0 2.632-1.497 4.864 4.864 0 0 0 2.913-3.702 3.226 3.226 0 0 0 1.173-2.495m-12.911-.658c.017.017.035.032.053.047l-.028.017c-.01-.021-.017-.043-.025-.064z"/><path fill="#563f32" d="M20.009 96.321s2.579-2.842 5.729-1.688c3.248 1.188 3.437 5.869.27 6.96-3.304 1.138-4.764-3.059-2.764-4.027 1.862-.899 2.799.627 2.183 1.753 0 0-.048-.585-.351-.911-.207-.223-.588-.309-.935-.064-.935.664.039 2.427 1.518 1.717 1.229-.589.547-4.834-3.545-2.417l-2.105-1.323z"/><path fill="#efefef" d="M21.224 97.663a1.153 1.153 0 1 1-2.305-.001 1.153 1.153 0 0 1 2.305 0z"/><ellipse cx="17.211" cy="100.437" rx=".332" ry=".552" fill="#304454" transform="rotate(7.944 17.21 100.437)"/><path fill="#e2e2e2" d="M40.078 98.43a3.222 3.222 0 0 0-.186-2.454 3.521 3.521 0 0 1-1.149 3.657 5.301 5.301 0 0 1-3.175 4.035 1.952 1.952 0 0 1-2.869 1.633 5.294 5.294 0 0 1-4.267 2.153 5.276 5.276 0 0 1-2.976-.915 4.67 4.67 0 0 1-1.718.33 4.675 4.675 0 0 1-4.198-2.623c-.049.003-.098.007-.148.007l-.043-.002c.253.458.574.872.955 1.225a1.79 1.79 0 0 0 1.919 1.955 4.288 4.288 0 0 0 3.851 2.407c.558 0 1.088-.11 1.576-.303a4.857 4.857 0 0 0 6.645-1.136 1.792 1.792 0 0 0 2.632-1.498 4.86 4.86 0 0 0 2.913-3.701 3.235 3.235 0 0 0 .238-4.77zM26.005 96.247a.698.698 0 0 1-.058-.052c.01.024.017.047.028.07.01-.006.02-.01.03-.018z"/><path fill="#bdcccc" d="M41.818 64.463c0-.955-.385-1.819-1.006-2.449a3.475 3.475 0 0 0-1.203-3.85c1.532-1.466.401-3.93.401-3.93-.072.866-1.168 1.914-1.76 2.422a1.38 1.38 0 0 0-.96-.653 4.4 4.4 0 0 0-3.852-2.64 2.053 2.053 0 0 0-3.429-.08 3.165 3.165 0 0 0-2.382.264 4.79 4.79 0 0 0-1.86-.374 4.783 4.783 0 0 0-4.064 2.256 1.909 1.909 0 0 0-1.176.167 1.574 1.574 0 0 0-2.489.651 2.849 2.849 0 0 0-2.466 2.821 2.85 2.85 0 0 0 2.034 2.727l-.002.034c0 .642.318 1.21.805 1.552a5.22 5.22 0 0 0 .043 4.824c-.23.276-.374.625-.374 1.013 0 .877.711 1.587 1.588 1.587.046 0 .09-.01.134-.014a1.92 1.92 0 0 0 1.784.916 4.62 4.62 0 0 0 4.147 2.591c.601 0 1.172-.118 1.698-.326a5.21 5.21 0 0 0 2.94.904 5.214 5.214 0 0 0 2.905-.88c.324.237.72.381 1.153.381.963 0 1.76-.696 1.925-1.613a1.925 1.925 0 0 0 1.065-1.628 5.237 5.237 0 0 0 2.523-2.257 2.06 2.06 0 0 0 1.492-2.827 3.47 3.47 0 0 0 .386-1.589m-13.875-.639l-.028-.07a.654.654 0 0 0 .057.051c-.01.008-.02.012-.029.02z"/><path fill="#563f32" d="M21.313 60.81s1.663-2.143.474-4.196c-1.225-2.116-4.51-1.675-4.881.665-.388 2.44 2.714 2.943 3.143 1.432.398-1.407-.78-1.873-1.49-1.306 0 0 .415-.038.679.133.18.117.287.37.159.644-.348.732-1.695.269-1.382-.848.26-.928 3.3-.973 2.118 2.174l1.18 1.303z"/><path fill="#f4dbc5" d="M23.556 60.077s-3.832-1.2-6.158-.37c-2.306.825-1.708 2.996-3.507 4.087-1.877 1.14-1.49 4.437 1.206 4.557.513.022.912-.232 1.432-.205.481.027.11.493.674.644 2.194.58 4.53-.499 5.31-.818 1.288-.529 1.043-7.895 1.043-7.895z"/><path fill="#e3ac8a" d="M23.556 60.077s-3.832-1.2-6.158-.37a3.234 3.234 0 0 0-.81.42 2.642 2.642 0 0 0 1.846 2.066v.033c0 .595.295 1.12.748 1.44a4.836 4.836 0 0 0 .033 4.478c-.186.221-.308.5-.335.804 1.606-.08 3.052-.738 3.633-.977 1.288-.528 1.043-7.894 1.043-7.894z"/><path fill="#f4dbc5" d="M21.222 68.958s-4.144 1.178-2.563 2.893c.955 1.038 2.503-.51 2.83-2.504l-.267-.389zM23.849 71.076s-4.565 1.297-2.823 3.187c1.052 1.141 2.757-.562 3.119-2.76l-.296-.427zM37.923 67.767s1.593 4.284 3.274 2.466c1.016-1.096-.75-2.603-2.887-2.782l-.387.316z"/><path fill="#f4dbc5" d="M36.273 69.975s1.654 4.447 3.4 2.562c1.055-1.14-.78-2.704-3-2.89l-.4.328z"/><path fill="#efefef" d="M33.527 55.054a1.913 1.913 0 1 1-3.826.002 1.913 1.913 0 0 1 3.826-.002z"/><path fill="#e2e2e2" d="M40.809 66.575a1.914 1.914 0 1 1-3.828-.002 1.914 1.914 0 0 1 3.828.002z"/><ellipse cx="34.149" cy="71.735" rx="1.82" ry="1.82" fill="#e2e2e2"/><path fill="#efefef" d="M21.776 57.243a1.475 1.475 0 1 1-2.949 0 1.475 1.475 0 0 1 2.95 0z"/><path fill="#e2e2e2" d="M21.915 68.764c0 .815-.66 1.474-1.475 1.474a1.474 1.474 0 1 1 0-2.95c.815 0 1.475.66 1.475 1.476z"/><path fill="#efefef" d="M37.352 57.383s1.889-1.43 1.981-2.535c0 0 1.291 2.81-.922 4.055l-1.059-1.52z"/><path fill="#efefef" d="M41.013 64.35c0-.888-.357-1.69-.935-2.276a3.24 3.24 0 0 0-2.213-4.123 1.282 1.282 0 0 0-1.057-1.46 4.093 4.093 0 0 0-5.696-1.968 2.936 2.936 0 0 0-3.278-.312 4.46 4.46 0 0 0-1.728-.347 4.442 4.442 0 0 0-3.773 2.094 1.789 1.789 0 0 0-1.922.989 2.63 2.63 0 0 0-1.127-.255 2.646 2.646 0 0 0-2.646 2.646c0 1.196.798 2.206 1.889 2.533l-.001.031c0 .596.295 1.123.747 1.442a4.84 4.84 0 0 0-.53 2.208c0 1.411.602 2.68 1.56 3.57a1.79 1.79 0 0 0 1.784 1.961c.047 0 .09-.004.136-.007a4.29 4.29 0 0 0 3.85 2.406c.559 0 1.089-.11 1.577-.302a4.86 4.86 0 0 0 6.645-1.137 1.791 1.791 0 0 0 2.632-1.497 4.864 4.864 0 0 0 2.913-3.702 3.226 3.226 0 0 0 1.173-2.495m-12.911-.658c.017.017.035.032.053.047l-.028.017c-.01-.02-.017-.043-.025-.064z"/><path fill="#563f32" d="M20.009 59.957s2.579-2.842 5.729-1.688c3.248 1.188 3.437 5.87.27 6.96-3.304 1.138-4.764-3.059-2.764-4.027 1.862-.899 2.799.627 2.183 1.753 0 0-.048-.585-.351-.91-.207-.224-.588-.31-.935-.065-.935.664.039 2.427 1.518 1.717 1.229-.589.547-4.834-3.545-2.417l-2.105-1.323z"/><path fill="#efefef" d="M21.224 61.299a1.153 1.153 0 1 1-2.305-.001 1.153 1.153 0 0 1 2.305 0z"/><ellipse cx="17.211" cy="64.074" rx=".332" ry=".552" fill="#304454" transform="rotate(7.944 17.21 64.074)"/><path fill="#e2e2e2" d="M40.078 62.067a3.222 3.222 0 0 0-.186-2.454 3.521 3.521 0 0 1-1.149 3.657 5.301 5.301 0 0 1-3.175 4.035 1.952 1.952 0 0 1-2.869 1.633 5.294 5.294 0 0 1-4.267 2.153 5.276 5.276 0 0 1-2.976-.915 4.67 4.67 0 0 1-1.718.33 4.675 4.675 0 0 1-4.198-2.623c-.049.003-.098.007-.148.007l-.043-.002c.253.458.574.872.955 1.225a1.79 1.79 0 0 0 1.919 1.955 4.288 4.288 0 0 0 3.851 2.407c.558 0 1.088-.11 1.576-.303a4.857 4.857 0 0 0 6.645-1.136 1.792 1.792 0 0 0 2.632-1.498 4.86 4.86 0 0 0 2.913-3.701 3.235 3.235 0 0 0 .238-4.77zM26.005 59.884a.698.698 0 0 1-.058-.052c.01.024.017.047.028.07l.03-.018z"/><path fill="#bdcccc" d="M41.818 28.1c0-.955-.385-1.82-1.006-2.45a3.475 3.475 0 0 0-1.203-3.85c1.532-1.465.401-3.93.401-3.93-.072.867-1.168 1.915-1.76 2.423a1.38 1.38 0 0 0-.96-.653 4.4 4.4 0 0 0-3.852-2.641 2.053 2.053 0 0 0-3.429-.08 3.165 3.165 0 0 0-2.382.265 4.79 4.79 0 0 0-1.86-.374 4.783 4.783 0 0 0-4.064 2.256 1.909 1.909 0 0 0-1.176.167 1.574 1.574 0 0 0-2.489.65 2.849 2.849 0 0 0-2.466 2.822 2.85 2.85 0 0 0 2.034 2.727l-.002.034c0 .642.318 1.209.805 1.552a5.22 5.22 0 0 0 .043 4.824c-.23.276-.374.625-.374 1.013 0 .877.711 1.587 1.588 1.587.046 0 .09-.01.134-.014a1.92 1.92 0 0 0 1.784.916 4.62 4.62 0 0 0 4.147 2.59c.601 0 1.172-.117 1.698-.325a5.21 5.21 0 0 0 2.94.904 5.214 5.214 0 0 0 2.905-.88c.324.237.72.38 1.153.38.963 0 1.76-.695 1.925-1.612a1.925 1.925 0 0 0 1.065-1.628 5.237 5.237 0 0 0 2.523-2.257 2.06 2.06 0 0 0 1.492-2.827 3.47 3.47 0 0 0 .386-1.59m-13.875-.638l-.028-.07a.654.654 0 0 0 .057.05c-.01.009-.02.013-.029.02z"/><path fill="#563f32" d="M21.313 24.447s1.663-2.144.474-4.197c-1.225-2.116-4.51-1.675-4.881.665-.388 2.44 2.714 2.943 3.143 1.432.398-1.407-.78-1.873-1.49-1.306 0 0 .415-.038.679.133.18.117.287.371.159.644-.348.732-1.695.27-1.382-.848.26-.928 3.3-.973 2.118 2.174l1.18 1.303z"/><path fill="#f4dbc5" d="M23.556 23.713s-3.832-1.2-6.158-.37c-2.306.826-1.708 2.997-3.507 4.087-1.877 1.14-1.49 4.438 1.206 4.558.513.022.912-.232 1.432-.206.481.027.11.494.674.644 2.194.58 4.53-.499 5.31-.818 1.288-.529 1.043-7.895 1.043-7.895z"/><path fill="#e3ac8a" d="M23.556 23.713s-3.832-1.2-6.158-.37a3.234 3.234 0 0 0-.81.42 2.642 2.642 0 0 0 1.846 2.066v.034c0 .595.295 1.12.748 1.44a4.836 4.836 0 0 0 .033 4.477c-.186.221-.308.5-.335.804 1.606-.08 3.052-.738 3.633-.977 1.288-.527 1.043-7.893 1.043-7.893z"/><path fill="#f4dbc5" d="M21.222 32.594s-4.144 1.178-2.563 2.893c.955 1.038 2.503-.51 2.83-2.504l-.267-.389zM23.849 34.713s-4.565 1.297-2.823 3.187c1.052 1.14 2.757-.562 3.119-2.76l-.296-.427zM37.923 31.403s1.593 4.284 3.274 2.466c1.016-1.096-.75-2.603-2.887-2.782l-.387.316z"/><path fill="#f4dbc5" d="M36.273 33.611s1.654 4.447 3.4 2.562c1.055-1.139-.78-2.704-3-2.89l-.4.328z"/><path fill="#efefef" d="M33.527 18.69a1.913 1.913 0 1 1-3.826.002 1.913 1.913 0 0 1 3.826-.002z"/><path fill="#e2e2e2" d="M40.809 30.211a1.914 1.914 0 1 1-3.828-.001 1.914 1.914 0 0 1 3.828.001z"/><ellipse cx="34.149" cy="35.372" rx="1.82" ry="1.82" fill="#e2e2e2"/><path fill="#efefef" d="M21.776 20.88a1.475 1.475 0 1 1-2.949 0 1.475 1.475 0 0 1 2.95 0z"/><path fill="#e2e2e2" d="M21.915 32.4c0 .815-.66 1.474-1.475 1.474a1.474 1.474 0 1 1 0-2.949c.815 0 1.475.66 1.475 1.475z"/><path fill="#efefef" d="M37.352 21.019s1.889-1.43 1.981-2.535c0 0 1.291 2.81-.922 4.055l-1.059-1.52z"/><path fill="#efefef" d="M41.013 27.985c0-.886-.357-1.69-.935-2.274a3.24 3.24 0 0 0-2.213-4.123 1.282 1.282 0 0 0-1.057-1.46 4.093 4.093 0 0 0-5.696-1.968 2.936 2.936 0 0 0-3.278-.312 4.46 4.46 0 0 0-1.728-.348 4.442 4.442 0 0 0-3.773 2.095 1.789 1.789 0 0 0-1.922.989 2.63 2.63 0 0 0-1.127-.256 2.646 2.646 0 0 0-2.646 2.646c0 1.197.798 2.206 1.889 2.534l-.001.03c0 .596.295 1.123.747 1.442a4.84 4.84 0 0 0-.53 2.209c0 1.41.602 2.68 1.56 3.569a1.79 1.79 0 0 0 1.784 1.961c.047 0 .09-.003.136-.006a4.29 4.29 0 0 0 3.85 2.405c.559 0 1.089-.11 1.577-.302a4.86 4.86 0 0 0 6.645-1.137 1.791 1.791 0 0 0 2.632-1.497 4.864 4.864 0 0 0 2.913-3.702 3.226 3.226 0 0 0 1.173-2.495m-12.911-.657c.017.017.035.032.053.047-.01.006-.02.01-.028.017-.01-.021-.017-.043-.025-.064z"/><path fill="#563f32" d="M20.009 23.594s2.579-2.842 5.729-1.688c3.248 1.188 3.437 5.869.27 6.96-3.304 1.138-4.764-3.06-2.764-4.027 1.862-.9 2.799.627 2.183 1.753 0 0-.048-.585-.351-.911-.207-.223-.588-.31-.935-.064-.935.664.039 2.427 1.518 1.717 1.229-.59.547-4.834-3.545-2.417l-2.105-1.323z"/><path fill="#efefef" d="M21.224 24.935a1.153 1.153 0 1 1-2.305 0 1.153 1.153 0 0 1 2.305 0z"/><ellipse cx="17.211" cy="27.71" rx=".332" ry=".552" fill="#304454" transform="rotate(7.944 17.21 27.71)"/><path fill="#e2e2e2" d="M40.078 25.703a3.222 3.222 0 0 0-.186-2.454 3.521 3.521 0 0 1-1.149 3.657 5.301 5.301 0 0 1-3.175 4.035 1.952 1.952 0 0 1-2.869 1.633 5.294 5.294 0 0 1-4.267 2.153 5.276 5.276 0 0 1-2.976-.915 4.67 4.67 0 0 1-1.718.33 4.675 4.675 0 0 1-4.198-2.623c-.049.003-.098.007-.148.007l-.043-.002c.253.458.574.872.955 1.225a1.79 1.79 0 0 0 1.919 1.955 4.288 4.288 0 0 0 3.851 2.407c.558 0 1.088-.11 1.576-.303a4.857 4.857 0 0 0 6.645-1.136 1.792 1.792 0 0 0 2.632-1.498 4.86 4.86 0 0 0 2.913-3.701 3.235 3.235 0 0 0 .238-4.77zM26.005 23.52a.698.698 0 0 1-.058-.052c.01.024.017.047.028.07l.03-.018z"/><path fill="#bdcccc" d="M78.182 173.554c0-.955-.385-1.819-1.006-2.449a3.475 3.475 0 0 0-1.203-3.85c1.532-1.466.4-3.931.4-3.931-.071.867-1.167 1.915-1.76 2.423a1.38 1.38 0 0 0-.96-.653 4.4 4.4 0 0 0-3.851-2.641 2.053 2.053 0 0 0-3.43-.08 3.165 3.165 0 0 0-2.381.265 4.79 4.79 0 0 0-1.861-.374 4.783 4.783 0 0 0-4.063 2.256 1.909 1.909 0 0 0-1.176.167 1.574 1.574 0 0 0-2.49.651 2.849 2.849 0 0 0-2.465 2.821 2.85 2.85 0 0 0 2.034 2.727l-.002.034c0 .642.318 1.209.805 1.552a5.22 5.22 0 0 0 .043 4.824c-.23.276-.374.625-.374 1.013 0 .877.71 1.587 1.588 1.587.046 0 .089-.01.134-.014a1.92 1.92 0 0 0 1.784.916 4.62 4.62 0 0 0 4.147 2.591c.6 0 1.172-.118 1.698-.326a5.21 5.21 0 0 0 2.94.904 5.214 5.214 0 0 0 2.905-.88c.324.237.72.381 1.153.381.963 0 1.76-.696 1.925-1.613a1.925 1.925 0 0 0 1.065-1.628 5.237 5.237 0 0 0 2.523-2.257 2.06 2.06 0 0 0 1.492-2.827 3.47 3.47 0 0 0 .386-1.589m-13.875-.639c-.011-.023-.02-.046-.028-.07a.654.654 0 0 0 .057.051c-.01.008-.02.012-.03.019z"/><path fill="#563f32" d="M57.676 169.902s1.663-2.144.474-4.197c-1.225-2.116-4.509-1.675-4.88.665-.389 2.44 2.713 2.943 3.142 1.432.398-1.407-.779-1.873-1.489-1.306 0 0 .414-.038.678.133.181.117.287.371.16.644-.349.732-1.696.269-1.383-.848.26-.928 3.3-.973 2.118 2.174l1.18 1.303z"/><path fill="#f4dbc5" d="M59.92 169.168s-3.832-1.201-6.158-.371c-2.306.826-1.708 2.997-3.507 4.088-1.877 1.14-1.491 4.437 1.206 4.557.513.022.912-.232 1.432-.205.481.027.109.493.674.644 2.194.579 4.53-.499 5.31-.818 1.288-.529 1.043-7.895 1.043-7.895z"/><path fill="#e3ac8a" d="M59.92 169.168s-3.832-1.201-6.158-.371a3.234 3.234 0 0 0-.81.42 2.642 2.642 0 0 0 1.846 2.067l-.001.033c0 .595.296 1.12.749 1.44a4.836 4.836 0 0 0 .033 4.478c-.186.221-.308.5-.335.804 1.606-.08 3.052-.738 3.633-.977 1.288-.528 1.043-7.894 1.043-7.894z"/><path fill="#f4dbc5" d="M57.585 178.049s-4.144 1.178-2.563 2.893c.955 1.038 2.503-.511 2.83-2.504l-.267-.389zM60.213 180.167s-4.565 1.297-2.823 3.187c1.052 1.141 2.757-.562 3.119-2.76l-.296-.427zM74.287 176.858s1.593 4.284 3.274 2.466c1.016-1.096-.75-2.603-2.887-2.782l-.387.316z"/><path fill="#f4dbc5" d="M72.636 179.066s1.654 4.447 3.4 2.562c1.055-1.139-.78-2.704-2.999-2.89l-.4.328z"/><path fill="#efefef" d="M69.89 164.145a1.913 1.913 0 1 1-3.825.002 1.913 1.913 0 0 1 3.826-.002z"/><path fill="#e2e2e2" d="M77.172 175.666a1.914 1.914 0 1 1-3.827-.001 1.914 1.914 0 0 1 3.827.001z"/><ellipse cx="70.512" cy="180.826" rx="1.82" ry="1.82" fill="#e2e2e2"/><path fill="#efefef" d="M58.14 166.334a1.475 1.475 0 1 1-2.95 0 1.475 1.475 0 0 1 2.95 0z"/><path fill="#e2e2e2" d="M58.279 177.855c0 .815-.66 1.474-1.475 1.474a1.474 1.474 0 1 1 0-2.949c.815 0 1.475.659 1.475 1.475z"/><path fill="#efefef" d="M73.716 166.473s1.889-1.429 1.98-2.535c0 0 1.292 2.811-.921 4.055l-1.06-1.52z"/><path fill="#efefef" d="M77.376 173.44c0-.887-.357-1.69-.935-2.275a3.24 3.24 0 0 0-2.213-4.123 1.282 1.282 0 0 0-1.057-1.46 4.093 4.093 0 0 0-5.696-1.968 2.936 2.936 0 0 0-3.278-.312 4.46 4.46 0 0 0-1.728-.347 4.442 4.442 0 0 0-3.773 2.094 1.789 1.789 0 0 0-1.922.989 2.63 2.63 0 0 0-1.127-.255 2.646 2.646 0 0 0-2.646 2.646c0 1.196.798 2.206 1.89 2.533l-.002.031c0 .596.295 1.123.747 1.442a4.84 4.84 0 0 0-.529 2.208c0 1.411.601 2.68 1.56 3.569a1.79 1.79 0 0 0 1.784 1.961c.046 0 .09-.003.135-.006a4.29 4.29 0 0 0 3.851 2.406c.558 0 1.088-.11 1.576-.302a4.86 4.86 0 0 0 6.645-1.137 1.791 1.791 0 0 0 2.632-1.497 4.864 4.864 0 0 0 2.913-3.702 3.226 3.226 0 0 0 1.173-2.495m-12.91-.658c.016.017.034.032.052.047l-.028.017-.025-.064z"/><path fill="#563f32" d="M56.372 169.048s2.58-2.842 5.73-1.688c3.247 1.188 3.436 5.869.27 6.96-3.305 1.138-4.765-3.059-2.765-4.027 1.862-.899 2.8.627 2.183 1.753 0 0-.048-.585-.35-.911-.208-.223-.589-.309-.936-.064-.935.664.04 2.427 1.518 1.717 1.23-.589.547-4.834-3.545-2.417l-2.105-1.323z"/><path fill="#efefef" d="M57.588 170.39a1.153 1.153 0 1 1-2.305-.001 1.153 1.153 0 0 1 2.305.001z"/><ellipse cx="53.574" cy="173.164" rx=".332" ry=".552" fill="#304454" transform="rotate(7.944 53.574 173.164)"/><path fill="#e2e2e2" d="M76.442 171.158a3.222 3.222 0 0 0-.186-2.454 3.521 3.521 0 0 1-1.149 3.657 5.301 5.301 0 0 1-3.175 4.035 1.952 1.952 0 0 1-2.87 1.633 5.294 5.294 0 0 1-4.266 2.153 5.276 5.276 0 0 1-2.976-.915 4.67 4.67 0 0 1-1.718.33 4.675 4.675 0 0 1-4.198-2.623c-.05.003-.098.007-.148.007l-.043-.002c.253.458.574.872.955 1.225a1.79 1.79 0 0 0 1.919 1.955 4.288 4.288 0 0 0 3.85 2.407c.559 0 1.089-.11 1.577-.303a4.857 4.857 0 0 0 6.645-1.136 1.792 1.792 0 0 0 2.632-1.498 4.86 4.86 0 0 0 2.913-3.701 3.235 3.235 0 0 0 .238-4.77zM62.369 168.975a.698.698 0 0 1-.058-.052c.009.024.017.047.028.07l.03-.018z"/><path fill="#bdcccc" d="M78.182 137.19c0-.955-.385-1.819-1.006-2.449a3.475 3.475 0 0 0-1.203-3.85c1.532-1.466.4-3.931.4-3.931-.071.867-1.167 1.915-1.76 2.423a1.38 1.38 0 0 0-.96-.653 4.4 4.4 0 0 0-3.851-2.641 2.053 2.053 0 0 0-3.43-.08 3.165 3.165 0 0 0-2.381.265 4.79 4.79 0 0 0-1.861-.374 4.783 4.783 0 0 0-4.063 2.256 1.909 1.909 0 0 0-1.176.167 1.574 1.574 0 0 0-2.49.651 2.849 2.849 0 0 0-2.465 2.821 2.85 2.85 0 0 0 2.034 2.727l-.002.034c0 .642.318 1.209.805 1.552a5.22 5.22 0 0 0 .043 4.824c-.23.276-.374.625-.374 1.013 0 .877.71 1.587 1.588 1.587.046 0 .089-.01.134-.014a1.92 1.92 0 0 0 1.784.916 4.62 4.62 0 0 0 4.147 2.591c.6 0 1.172-.118 1.698-.326a5.21 5.21 0 0 0 2.94.904 5.214 5.214 0 0 0 2.905-.88c.324.237.72.381 1.153.381.963 0 1.76-.696 1.925-1.613a1.925 1.925 0 0 0 1.065-1.628 5.237 5.237 0 0 0 2.523-2.257 2.06 2.06 0 0 0 1.492-2.827 3.47 3.47 0 0 0 .386-1.589m-13.875-.639c-.011-.023-.02-.046-.028-.07a.654.654 0 0 0 .057.051c-.01.008-.02.012-.03.019z"/><path fill="#563f32" d="M57.676 133.538s1.663-2.144.474-4.197c-1.225-2.116-4.509-1.675-4.88.665-.389 2.44 2.713 2.943 3.142 1.432.398-1.407-.779-1.873-1.489-1.306 0 0 .414-.038.678.133.181.117.287.371.16.644-.349.732-1.696.269-1.383-.848.26-.928 3.3-.973 2.118 2.174l1.18 1.303z"/><path fill="#f4dbc5" d="M59.92 132.804s-3.832-1.201-6.158-.371c-2.306.826-1.708 2.997-3.507 4.088-1.877 1.14-1.491 4.437 1.206 4.557.513.022.912-.232 1.432-.205.481.027.109.493.674.644 2.194.579 4.53-.499 5.31-.818 1.288-.529 1.043-7.895 1.043-7.895z"/><path fill="#e3ac8a" d="M59.92 132.804s-3.832-1.201-6.158-.371a3.234 3.234 0 0 0-.81.42 2.642 2.642 0 0 0 1.846 2.067l-.001.033c0 .595.296 1.12.749 1.44a4.836 4.836 0 0 0 .033 4.478c-.186.221-.308.5-.335.804 1.606-.08 3.052-.738 3.633-.977 1.288-.528 1.043-7.894 1.043-7.894z"/><path fill="#f4dbc5" d="M57.585 141.685s-4.144 1.178-2.563 2.893c.955 1.038 2.503-.511 2.83-2.504l-.267-.389zM60.213 143.803s-4.565 1.297-2.823 3.187c1.052 1.141 2.757-.562 3.119-2.76l-.296-.427zM74.287 140.494s1.593 4.284 3.274 2.466c1.016-1.096-.75-2.603-2.887-2.782l-.387.316z"/><path fill="#f4dbc5" d="M72.636 142.702s1.654 4.447 3.4 2.562c1.055-1.139-.78-2.704-2.999-2.89l-.4.328z"/><path fill="#efefef" d="M69.89 127.781a1.913 1.913 0 1 1-3.825.002 1.913 1.913 0 0 1 3.826-.002z"/><path fill="#e2e2e2" d="M77.172 139.302a1.914 1.914 0 1 1-3.827-.001 1.914 1.914 0 0 1 3.827.001z"/><ellipse cx="70.512" cy="144.462" rx="1.82" ry="1.82" fill="#e2e2e2"/><path fill="#efefef" d="M58.14 129.97a1.475 1.475 0 1 1-2.95 0 1.475 1.475 0 0 1 2.95 0z"/><path fill="#e2e2e2" d="M58.279 141.491c0 .815-.66 1.474-1.475 1.474a1.474 1.474 0 1 1 0-2.949c.815 0 1.475.659 1.475 1.475z"/><path fill="#efefef" d="M73.716 130.11s1.889-1.429 1.98-2.535c0 0 1.292 2.811-.921 4.055l-1.06-1.52z"/><path fill="#efefef" d="M77.376 137.076c0-.887-.357-1.69-.935-2.275a3.24 3.24 0 0 0-2.213-4.123 1.282 1.282 0 0 0-1.057-1.46 4.093 4.093 0 0 0-5.696-1.968 2.936 2.936 0 0 0-3.278-.312 4.46 4.46 0 0 0-1.728-.347 4.442 4.442 0 0 0-3.773 2.094 1.789 1.789 0 0 0-1.922.989 2.63 2.63 0 0 0-1.127-.255 2.646 2.646 0 0 0-2.646 2.646c0 1.196.798 2.206 1.89 2.533l-.002.031c0 .596.295 1.123.747 1.442a4.84 4.84 0 0 0-.529 2.208c0 1.411.601 2.68 1.56 3.569a1.79 1.79 0 0 0 1.784 1.961c.046 0 .09-.003.135-.006a4.29 4.29 0 0 0 3.851 2.406c.558 0 1.088-.11 1.576-.302a4.86 4.86 0 0 0 6.645-1.137 1.791 1.791 0 0 0 2.632-1.497 4.864 4.864 0 0 0 2.913-3.702 3.226 3.226 0 0 0 1.173-2.495m-12.91-.658c.016.017.034.032.052.047l-.028.017-.025-.064z"/><path fill="#563f32" d="M56.372 132.685s2.58-2.842 5.73-1.688c3.247 1.188 3.436 5.869.27 6.96-3.305 1.138-4.765-3.059-2.765-4.027 1.862-.899 2.8.627 2.183 1.753 0 0-.048-.585-.35-.911-.208-.223-.589-.309-.936-.064-.935.664.04 2.427 1.518 1.717 1.23-.589.547-4.834-3.545-2.417l-2.105-1.323z"/><path fill="#efefef" d="M57.588 134.026a1.153 1.153 0 1 1-2.305-.001 1.153 1.153 0 0 1 2.305.001z"/><ellipse cx="53.574" cy="136.801" rx=".332" ry=".552" fill="#304454" transform="rotate(7.944 53.574 136.8)"/><path fill="#e2e2e2" d="M76.442 134.794a3.222 3.222 0 0 0-.186-2.454 3.521 3.521 0 0 1-1.149 3.657 5.301 5.301 0 0 1-3.175 4.035 1.952 1.952 0 0 1-2.87 1.633 5.294 5.294 0 0 1-4.266 2.153 5.276 5.276 0 0 1-2.976-.915 4.67 4.67 0 0 1-1.718.33 4.675 4.675 0 0 1-4.198-2.623c-.05.003-.098.007-.148.007l-.043-.002c.253.458.574.872.955 1.225a1.79 1.79 0 0 0 1.919 1.955 4.288 4.288 0 0 0 3.85 2.407c.559 0 1.089-.11 1.577-.303a4.857 4.857 0 0 0 6.645-1.136 1.792 1.792 0 0 0 2.632-1.498 4.86 4.86 0 0 0 2.913-3.701 3.235 3.235 0 0 0 .238-4.77zM62.369 132.611a.698.698 0 0 1-.058-.052c.009.024.017.047.028.07l.03-.018z"/><path fill="#bdcccc" d="M78.182 100.827c0-.955-.385-1.82-1.006-2.45a3.475 3.475 0 0 0-1.203-3.85c1.532-1.465.4-3.93.4-3.93-.071.867-1.167 1.915-1.76 2.423a1.38 1.38 0 0 0-.96-.653 4.4 4.4 0 0 0-3.851-2.641 2.053 2.053 0 0 0-3.43-.08 3.165 3.165 0 0 0-2.381.265 4.79 4.79 0 0 0-1.861-.374 4.783 4.783 0 0 0-4.063 2.256 1.909 1.909 0 0 0-1.176.167 1.574 1.574 0 0 0-2.49.65 2.849 2.849 0 0 0-2.465 2.822 2.85 2.85 0 0 0 2.034 2.727l-.002.034c0 .642.318 1.209.805 1.552a5.222 5.222 0 0 0 .043 4.824c-.23.276-.374.625-.374 1.013 0 .877.71 1.587 1.588 1.587.046 0 .089-.01.134-.014a1.92 1.92 0 0 0 1.784.916 4.62 4.62 0 0 0 4.147 2.591c.6 0 1.172-.118 1.698-.326a5.21 5.21 0 0 0 2.94.904 5.214 5.214 0 0 0 2.905-.88c.324.237.72.381 1.153.381.963 0 1.76-.696 1.925-1.613a1.925 1.925 0 0 0 1.065-1.628 5.237 5.237 0 0 0 2.523-2.257 2.06 2.06 0 0 0 1.492-2.827 3.47 3.47 0 0 0 .386-1.589m-13.875-.639c-.011-.023-.02-.046-.028-.07a.654.654 0 0 0 .057.051c-.01.008-.02.012-.03.019z"/><path fill="#563f32" d="M57.676 97.174s1.663-2.144.474-4.197c-1.225-2.116-4.509-1.675-4.88.665-.389 2.44 2.713 2.943 3.142 1.432.398-1.407-.779-1.873-1.489-1.306 0 0 .414-.038.678.133.181.117.287.371.16.644-.349.732-1.696.27-1.383-.848.26-.928 3.3-.973 2.118 2.174l1.18 1.303z"/><path fill="#f4dbc5" d="M59.92 96.44s-3.832-1.2-6.158-.37c-2.306.826-1.708 2.997-3.507 4.088-1.877 1.14-1.491 4.437 1.206 4.557.513.022.912-.232 1.432-.205.481.027.109.493.674.644 2.194.579 4.53-.499 5.31-.818 1.288-.529 1.043-7.895 1.043-7.895z"/><path fill="#e3ac8a" d="M59.92 96.44s-3.832-1.2-6.158-.37a3.234 3.234 0 0 0-.81.42 2.642 2.642 0 0 0 1.846 2.067l-.001.033c0 .595.296 1.12.749 1.44a4.836 4.836 0 0 0 .033 4.478c-.186.221-.308.5-.335.804 1.606-.08 3.052-.738 3.633-.977 1.288-.528 1.043-7.894 1.043-7.894z"/><path fill="#f4dbc5" d="M57.585 105.322s-4.144 1.178-2.563 2.893c.955 1.038 2.503-.511 2.83-2.504l-.267-.389zM60.213 107.44s-4.565 1.297-2.823 3.187c1.052 1.141 2.757-.562 3.119-2.76l-.296-.427zM74.287 104.131s1.593 4.284 3.274 2.466c1.016-1.096-.75-2.603-2.887-2.782l-.387.316z"/><path fill="#f4dbc5" d="M72.636 106.338s1.654 4.447 3.4 2.562c1.055-1.139-.78-2.704-2.999-2.89l-.4.328z"/><path fill="#efefef" d="M69.89 91.417a1.913 1.913 0 1 1-3.825.002 1.913 1.913 0 0 1 3.826-.002z"/><path fill="#e2e2e2" d="M77.172 102.938a1.914 1.914 0 1 1-3.827-.001 1.914 1.914 0 0 1 3.827.001z"/><ellipse cx="70.512" cy="108.099" rx="1.82" ry="1.82" fill="#e2e2e2"/><path fill="#efefef" d="M58.14 93.607a1.475 1.475 0 1 1-2.95 0 1.475 1.475 0 0 1 2.95 0z"/><path fill="#e2e2e2" d="M58.279 105.128c0 .815-.66 1.474-1.475 1.474a1.474 1.474 0 1 1 0-2.949c.815 0 1.475.659 1.475 1.475z"/><path fill="#efefef" d="M73.716 93.746s1.889-1.429 1.98-2.535c0 0 1.292 2.811-.921 4.055l-1.06-1.52z"/><path fill="#efefef" d="M77.376 100.713c0-.887-.357-1.69-.935-2.275a3.24 3.24 0 0 0-2.213-4.123 1.282 1.282 0 0 0-1.057-1.46 4.093 4.093 0 0 0-5.696-1.968 2.936 2.936 0 0 0-3.278-.312 4.46 4.46 0 0 0-1.728-.347 4.442 4.442 0 0 0-3.773 2.094 1.789 1.789 0 0 0-1.922.989 2.63 2.63 0 0 0-1.127-.255 2.646 2.646 0 0 0-2.646 2.646c0 1.196.798 2.206 1.89 2.533l-.002.03c0 .597.295 1.124.747 1.443a4.842 4.842 0 0 0-.529 2.208c0 1.411.601 2.68 1.56 3.569a1.79 1.79 0 0 0 1.784 1.961c.046 0 .09-.003.135-.006a4.29 4.29 0 0 0 3.851 2.406c.558 0 1.088-.11 1.576-.302a4.86 4.86 0 0 0 6.645-1.137 1.791 1.791 0 0 0 2.632-1.497 4.864 4.864 0 0 0 2.913-3.702 3.226 3.226 0 0 0 1.173-2.495m-12.91-.658c.016.017.034.032.052.047l-.028.017-.025-.064z"/><path fill="#563f32" d="M56.372 96.321s2.58-2.842 5.73-1.688c3.247 1.188 3.436 5.869.27 6.96-3.305 1.138-4.765-3.059-2.765-4.027 1.862-.899 2.8.627 2.183 1.753 0 0-.048-.585-.35-.911-.208-.223-.589-.309-.936-.064-.935.664.04 2.427 1.518 1.717 1.23-.589.547-4.834-3.545-2.417l-2.105-1.323z"/><path fill="#efefef" d="M57.588 97.663a1.153 1.153 0 1 1-2.305-.001 1.153 1.153 0 0 1 2.305 0z"/><ellipse cx="53.574" cy="100.437" rx=".332" ry=".552" fill="#304454" transform="rotate(7.944 53.574 100.437)"/><path fill="#e2e2e2" d="M76.442 98.43a3.222 3.222 0 0 0-.186-2.454 3.521 3.521 0 0 1-1.149 3.657 5.301 5.301 0 0 1-3.175 4.035 1.952 1.952 0 0 1-2.87 1.633 5.294 5.294 0 0 1-4.266 2.153 5.276 5.276 0 0 1-2.976-.915 4.67 4.67 0 0 1-1.718.33 4.675 4.675 0 0 1-4.198-2.623c-.05.003-.098.007-.148.007l-.043-.002c.253.458.574.872.955 1.225a1.79 1.79 0 0 0 1.919 1.955 4.288 4.288 0 0 0 3.85 2.407c.559 0 1.089-.11 1.577-.303a4.857 4.857 0 0 0 6.645-1.136 1.792 1.792 0 0 0 2.632-1.498 4.86 4.86 0 0 0 2.913-3.701 3.235 3.235 0 0 0 .238-4.77zM62.369 96.247a.698.698 0 0 1-.058-.052c.009.024.017.047.028.07.009-.006.019-.01.03-.018z"/><path fill="#bdcccc" d="M78.182 64.463c0-.955-.385-1.819-1.006-2.449a3.475 3.475 0 0 0-1.203-3.85c1.532-1.466.4-3.93.4-3.93-.071.866-1.167 1.914-1.76 2.422a1.38 1.38 0 0 0-.96-.653 4.4 4.4 0 0 0-3.851-2.64 2.053 2.053 0 0 0-3.43-.08 3.165 3.165 0 0 0-2.381.264 4.79 4.79 0 0 0-1.861-.374 4.783 4.783 0 0 0-4.063 2.256 1.909 1.909 0 0 0-1.176.167 1.574 1.574 0 0 0-2.49.651 2.849 2.849 0 0 0-2.465 2.821 2.85 2.85 0 0 0 2.034 2.727l-.002.034c0 .642.318 1.21.805 1.552a5.22 5.22 0 0 0 .043 4.824c-.23.276-.374.625-.374 1.013 0 .877.71 1.587 1.588 1.587.046 0 .089-.01.134-.014a1.92 1.92 0 0 0 1.784.916 4.62 4.62 0 0 0 4.147 2.591c.6 0 1.172-.118 1.698-.326a5.21 5.21 0 0 0 2.94.904 5.214 5.214 0 0 0 2.905-.88c.324.237.72.381 1.153.381.963 0 1.76-.696 1.925-1.613a1.925 1.925 0 0 0 1.065-1.628 5.237 5.237 0 0 0 2.523-2.257 2.06 2.06 0 0 0 1.492-2.827 3.47 3.47 0 0 0 .386-1.589m-13.875-.639c-.011-.023-.02-.046-.028-.07a.654.654 0 0 0 .057.051c-.01.008-.02.012-.03.02z"/><path fill="#563f32" d="M57.676 60.81s1.663-2.143.474-4.196c-1.225-2.116-4.509-1.675-4.88.665-.389 2.44 2.713 2.943 3.142 1.432.398-1.407-.779-1.873-1.489-1.306 0 0 .414-.038.678.133.181.117.287.37.16.644-.349.732-1.696.269-1.383-.848.26-.928 3.3-.973 2.118 2.174l1.18 1.303z"/><path fill="#f4dbc5" d="M59.92 60.077s-3.832-1.2-6.158-.37c-2.306.825-1.708 2.996-3.507 4.087-1.877 1.14-1.491 4.437 1.206 4.557.513.022.912-.232 1.432-.205.481.027.109.493.674.644 2.194.58 4.53-.499 5.31-.818 1.288-.529 1.043-7.895 1.043-7.895z"/><path fill="#e3ac8a" d="M59.92 60.077s-3.832-1.2-6.158-.37a3.234 3.234 0 0 0-.81.42 2.642 2.642 0 0 0 1.846 2.066l-.001.033c0 .595.296 1.12.749 1.44a4.836 4.836 0 0 0 .033 4.478c-.186.221-.308.5-.335.804 1.606-.08 3.052-.738 3.633-.977 1.288-.528 1.043-7.894 1.043-7.894z"/><path fill="#f4dbc5" d="M57.585 68.958s-4.144 1.178-2.563 2.893c.955 1.038 2.503-.51 2.83-2.504l-.267-.389zM60.213 71.076s-4.565 1.297-2.823 3.187c1.052 1.141 2.757-.562 3.119-2.76l-.296-.427zM74.287 67.767s1.593 4.284 3.274 2.466c1.016-1.096-.75-2.603-2.887-2.782l-.387.316z"/><path fill="#f4dbc5" d="M72.636 69.975s1.654 4.447 3.4 2.562c1.055-1.14-.78-2.704-2.999-2.89l-.4.328z"/><path fill="#efefef" d="M69.89 55.054a1.913 1.913 0 1 1-3.825.002 1.913 1.913 0 0 1 3.826-.002z"/><path fill="#e2e2e2" d="M77.172 66.575a1.914 1.914 0 1 1-3.827-.002 1.914 1.914 0 0 1 3.827.002z"/><ellipse cx="70.512" cy="71.735" rx="1.82" ry="1.82" fill="#e2e2e2"/><path fill="#efefef" d="M58.14 57.243a1.475 1.475 0 1 1-2.95 0 1.475 1.475 0 0 1 2.95 0z"/><path fill="#e2e2e2" d="M58.279 68.764c0 .815-.66 1.474-1.475 1.474a1.474 1.474 0 1 1 0-2.95c.815 0 1.475.66 1.475 1.476z"/><path fill="#efefef" d="M73.716 57.383s1.889-1.43 1.98-2.535c0 0 1.292 2.81-.921 4.055l-1.06-1.52z"/><path fill="#efefef" d="M77.376 64.35c0-.888-.357-1.69-.935-2.276a3.24 3.24 0 0 0-2.213-4.123 1.282 1.282 0 0 0-1.057-1.46 4.093 4.093 0 0 0-5.696-1.968 2.936 2.936 0 0 0-3.278-.312 4.46 4.46 0 0 0-1.728-.347 4.442 4.442 0 0 0-3.773 2.094 1.789 1.789 0 0 0-1.922.989 2.63 2.63 0 0 0-1.127-.255 2.646 2.646 0 0 0-2.646 2.646c0 1.196.798 2.206 1.89 2.533l-.002.031c0 .596.295 1.123.747 1.442a4.84 4.84 0 0 0-.529 2.208c0 1.411.601 2.68 1.56 3.57a1.79 1.79 0 0 0 1.784 1.961c.046 0 .09-.004.135-.007a4.29 4.29 0 0 0 3.851 2.406c.558 0 1.088-.11 1.576-.302a4.86 4.86 0 0 0 6.645-1.137 1.791 1.791 0 0 0 2.632-1.497 4.864 4.864 0 0 0 2.913-3.702 3.226 3.226 0 0 0 1.173-2.495m-12.91-.658c.016.017.034.032.052.047l-.028.017c-.009-.02-.017-.043-.025-.064z"/><path fill="#563f32" d="M56.372 59.957s2.58-2.842 5.73-1.688c3.247 1.188 3.436 5.87.27 6.96-3.305 1.138-4.765-3.059-2.765-4.027 1.862-.899 2.8.627 2.183 1.753 0 0-.048-.585-.35-.91-.208-.224-.589-.31-.936-.065-.935.664.04 2.427 1.518 1.717 1.23-.589.547-4.834-3.545-2.417l-2.105-1.323z"/><path fill="#efefef" d="M57.588 61.299a1.153 1.153 0 1 1-2.305-.001 1.153 1.153 0 0 1 2.305 0z"/><ellipse cx="53.574" cy="64.074" rx=".332" ry=".552" fill="#304454" transform="rotate(7.944 53.574 64.074)"/><path fill="#e2e2e2" d="M76.442 62.067a3.222 3.222 0 0 0-.186-2.454 3.521 3.521 0 0 1-1.149 3.657 5.301 5.301 0 0 1-3.175 4.035 1.952 1.952 0 0 1-2.87 1.633 5.294 5.294 0 0 1-4.266 2.153 5.276 5.276 0 0 1-2.976-.915 4.67 4.67 0 0 1-1.718.33 4.675 4.675 0 0 1-4.198-2.623c-.05.003-.098.007-.148.007l-.043-.002c.253.458.574.872.955 1.225a1.79 1.79 0 0 0 1.919 1.955 4.288 4.288 0 0 0 3.85 2.407c.559 0 1.089-.11 1.577-.303a4.857 4.857 0 0 0 6.645-1.136 1.792 1.792 0 0 0 2.632-1.498 4.86 4.86 0 0 0 2.913-3.701 3.235 3.235 0 0 0 .238-4.77zM62.369 59.884a.698.698 0 0 1-.058-.052c.009.024.017.047.028.07l.03-.018z"/><path fill="#bdcccc" d="M78.182 28.1c0-.955-.385-1.82-1.006-2.45a3.475 3.475 0 0 0-1.203-3.85c1.532-1.465.4-3.93.4-3.93-.071.867-1.167 1.915-1.76 2.423a1.38 1.38 0 0 0-.96-.653 4.4 4.4 0 0 0-3.851-2.641 2.053 2.053 0 0 0-3.43-.08 3.165 3.165 0 0 0-2.381.265 4.79 4.79 0 0 0-1.861-.374 4.783 4.783 0 0 0-4.063 2.256 1.909 1.909 0 0 0-1.176.167 1.574 1.574 0 0 0-2.49.65 2.849 2.849 0 0 0-2.465 2.822 2.85 2.85 0 0 0 2.034 2.727l-.002.034c0 .642.318 1.209.805 1.552a5.22 5.22 0 0 0 .043 4.824c-.23.276-.374.625-.374 1.013 0 .877.71 1.587 1.588 1.587.046 0 .089-.01.134-.014a1.92 1.92 0 0 0 1.784.916 4.62 4.62 0 0 0 4.147 2.59c.6 0 1.172-.117 1.698-.325a5.21 5.21 0 0 0 2.94.904 5.214 5.214 0 0 0 2.905-.88c.324.237.72.38 1.153.38.963 0 1.76-.695 1.925-1.612a1.925 1.925 0 0 0 1.065-1.628 5.237 5.237 0 0 0 2.523-2.257 2.06 2.06 0 0 0 1.492-2.827 3.47 3.47 0 0 0 .386-1.59m-13.875-.638c-.011-.023-.02-.046-.028-.07a.654.654 0 0 0 .057.05c-.01.009-.02.013-.03.02z"/><path fill="#563f32" d="M57.676 24.447s1.663-2.144.474-4.197c-1.225-2.116-4.509-1.675-4.88.665-.389 2.44 2.713 2.943 3.142 1.432.398-1.407-.779-1.873-1.489-1.306 0 0 .414-.038.678.133.181.117.287.371.16.644-.349.732-1.696.27-1.383-.848.26-.928 3.3-.973 2.118 2.174l1.18 1.303z"/><path fill="#f4dbc5" d="M59.92 23.713s-3.832-1.2-6.158-.37c-2.306.826-1.708 2.997-3.507 4.087-1.877 1.14-1.491 4.438 1.206 4.558.513.022.912-.232 1.432-.206.481.027.109.494.674.644 2.194.58 4.53-.499 5.31-.818 1.288-.529 1.043-7.895 1.043-7.895z"/><path fill="#e3ac8a" d="M59.92 23.713s-3.832-1.2-6.158-.37a3.234 3.234 0 0 0-.81.42 2.642 2.642 0 0 0 1.846 2.066l-.001.034c0 .595.296 1.12.749 1.44a4.836 4.836 0 0 0 .033 4.477c-.186.221-.308.5-.335.804 1.606-.08 3.052-.738 3.633-.977 1.288-.527 1.043-7.893 1.043-7.893z"/><path fill="#f4dbc5" d="M57.585 32.594s-4.144 1.178-2.563 2.893c.955 1.038 2.503-.51 2.83-2.504l-.267-.389zM60.213 34.713S55.648 36.01 57.39 37.9c1.052 1.14 2.757-.562 3.119-2.76l-.296-.427zM74.287 31.403s1.593 4.284 3.274 2.466c1.016-1.096-.75-2.603-2.887-2.782l-.387.316z"/><path fill="#f4dbc5" d="M72.636 33.611s1.654 4.447 3.4 2.562c1.055-1.139-.78-2.704-2.999-2.89l-.4.328z"/><path fill="#efefef" d="M69.89 18.69a1.913 1.913 0 1 1-3.825.002 1.913 1.913 0 0 1 3.826-.002z"/><path fill="#e2e2e2" d="M77.172 30.211a1.914 1.914 0 1 1-3.827-.001 1.914 1.914 0 0 1 3.827.001z"/><ellipse cx="70.512" cy="35.372" rx="1.82" ry="1.82" fill="#e2e2e2"/><path fill="#efefef" d="M58.14 20.88a1.475 1.475 0 1 1-2.95 0 1.475 1.475 0 0 1 2.95 0z"/><path fill="#e2e2e2" d="M58.279 32.4c0 .815-.66 1.474-1.475 1.474a1.474 1.474 0 1 1 0-2.949c.815 0 1.475.66 1.475 1.475z"/><path fill="#efefef" d="M73.716 21.019s1.889-1.43 1.98-2.535c0 0 1.292 2.81-.921 4.055l-1.06-1.52z"/><path fill="#efefef" d="M77.376 27.985c0-.886-.357-1.69-.935-2.274a3.24 3.24 0 0 0-2.213-4.123 1.282 1.282 0 0 0-1.057-1.46 4.093 4.093 0 0 0-5.696-1.968 2.936 2.936 0 0 0-3.278-.312 4.46 4.46 0 0 0-1.728-.348 4.442 4.442 0 0 0-3.773 2.095 1.789 1.789 0 0 0-1.922.989 2.63 2.63 0 0 0-1.127-.256 2.646 2.646 0 0 0-2.646 2.646c0 1.197.798 2.206 1.89 2.534l-.002.03c0 .596.295 1.123.747 1.442a4.84 4.84 0 0 0-.529 2.209c0 1.41.601 2.68 1.56 3.569a1.79 1.79 0 0 0 1.784 1.961c.046 0 .09-.003.135-.006a4.29 4.29 0 0 0 3.851 2.405c.558 0 1.088-.11 1.576-.302a4.86 4.86 0 0 0 6.645-1.137 1.791 1.791 0 0 0 2.632-1.497 4.864 4.864 0 0 0 2.913-3.702 3.226 3.226 0 0 0 1.173-2.495m-12.91-.657c.016.017.034.032.052.047-.01.006-.019.01-.028.017l-.025-.064z"/><path fill="#563f32" d="M56.372 23.594s2.58-2.842 5.73-1.688c3.247 1.188 3.436 5.869.27 6.96-3.305 1.138-4.765-3.06-2.765-4.027 1.862-.9 2.8.627 2.183 1.753 0 0-.048-.585-.35-.911-.208-.223-.589-.31-.936-.064-.935.664.04 2.427 1.518 1.717 1.23-.59.547-4.834-3.545-2.417l-2.105-1.323z"/><path fill="#efefef" d="M57.588 24.935a1.153 1.153 0 1 1-2.305 0 1.153 1.153 0 0 1 2.305 0z"/><ellipse cx="53.574" cy="27.71" rx=".332" ry=".552" fill="#304454" transform="rotate(7.944 53.574 27.71)"/><path fill="#e2e2e2" d="M76.442 25.703a3.222 3.222 0 0 0-.186-2.454 3.521 3.521 0 0 1-1.149 3.657 5.301 5.301 0 0 1-3.175 4.035 1.952 1.952 0 0 1-2.87 1.633 5.294 5.294 0 0 1-4.266 2.153 5.276 5.276 0 0 1-2.976-.915 4.67 4.67 0 0 1-1.718.33 4.675 4.675 0 0 1-4.198-2.623c-.05.003-.098.007-.148.007l-.043-.002c.253.458.574.872.955 1.225a1.79 1.79 0 0 0 1.919 1.955 4.288 4.288 0 0 0 3.85 2.407c.559 0 1.089-.11 1.577-.303a4.857 4.857 0 0 0 6.645-1.136 1.792 1.792 0 0 0 2.632-1.498 4.86 4.86 0 0 0 2.913-3.701 3.235 3.235 0 0 0 .238-4.77zM62.369 23.52a.698.698 0 0 1-.058-.052c.009.024.017.047.028.07l.03-.018z"/><path fill="#bdcccc" d="M114.545 173.554c0-.955-.385-1.819-1.006-2.449a3.475 3.475 0 0 0-1.203-3.85c1.532-1.466.401-3.931.401-3.931-.072.867-1.168 1.915-1.76 2.423a1.38 1.38 0 0 0-.961-.653 4.4 4.4 0 0 0-3.851-2.641 2.053 2.053 0 0 0-3.429-.08 3.165 3.165 0 0 0-2.382.265 4.785 4.785 0 0 0-1.86-.374 4.783 4.783 0 0 0-4.064 2.256 1.909 1.909 0 0 0-1.176.167 1.574 1.574 0 0 0-2.489.651 2.849 2.849 0 0 0-2.466 2.821 2.85 2.85 0 0 0 2.034 2.727l-.001.034c0 .642.318 1.209.805 1.552a5.22 5.22 0 0 0 .043 4.824c-.23.276-.375.625-.375 1.013 0 .877.711 1.587 1.588 1.587.046 0 .09-.01.135-.014a1.92 1.92 0 0 0 1.783.916 4.62 4.62 0 0 0 4.147 2.591c.602 0 1.172-.118 1.698-.326a5.21 5.21 0 0 0 2.94.904 5.214 5.214 0 0 0 2.905-.88c.324.237.72.381 1.153.381.963 0 1.76-.696 1.925-1.613a1.925 1.925 0 0 0 1.065-1.628 5.237 5.237 0 0 0 2.523-2.257 2.06 2.06 0 0 0 1.492-2.827 3.47 3.47 0 0 0 .386-1.589m-13.875-.639c-.011-.023-.019-.046-.028-.07a.654.654 0 0 0 .057.051c-.01.008-.02.012-.029.019z"/><path fill="#563f32" d="M94.04 169.902s1.663-2.144.474-4.197c-1.225-2.116-4.509-1.675-4.88.665-.389 2.44 2.713 2.943 3.142 1.432.398-1.407-.779-1.873-1.489-1.306 0 0 .414-.038.678.133.181.117.287.371.16.644-.349.732-1.696.269-1.383-.848.26-.928 3.3-.973 2.118 2.174l1.18 1.303z"/><path fill="#f4dbc5" d="M96.284 169.168s-3.832-1.201-6.158-.371c-2.306.826-1.708 2.997-3.507 4.088-1.877 1.14-1.491 4.437 1.206 4.557.513.022.912-.232 1.432-.205.48.027.109.493.674.644 2.194.579 4.53-.499 5.31-.818 1.288-.529 1.043-7.895 1.043-7.895z"/><path fill="#e3ac8a" d="M96.284 169.168s-3.832-1.201-6.158-.371a3.234 3.234 0 0 0-.81.42 2.642 2.642 0 0 0 1.846 2.067l-.001.033c0 .595.296 1.12.749 1.44a4.836 4.836 0 0 0 .033 4.478c-.186.221-.308.5-.335.804 1.606-.08 3.052-.738 3.633-.977 1.288-.528 1.043-7.894 1.043-7.894z"/><path fill="#f4dbc5" d="M93.949 178.049s-4.144 1.178-2.563 2.893c.955 1.038 2.503-.511 2.83-2.504l-.267-.389zM96.576 180.167s-4.565 1.297-2.823 3.187c1.052 1.141 2.757-.562 3.12-2.76l-.297-.427zM110.65 176.858s1.593 4.284 3.274 2.466c1.016-1.096-.75-2.603-2.887-2.782l-.387.316z"/><path fill="#f4dbc5" d="M109 179.066s1.654 4.447 3.4 2.562c1.055-1.139-.78-2.704-2.999-2.89l-.401.328z"/><path fill="#efefef" d="M106.254 164.145a1.913 1.913 0 1 1-3.826.002 1.913 1.913 0 0 1 3.826-.002z"/><path fill="#e2e2e2" d="M113.536 175.666a1.914 1.914 0 1 1-3.827-.001 1.914 1.914 0 0 1 3.827.001z"/><ellipse cx="106.876" cy="180.826" rx="1.82" ry="1.82" fill="#e2e2e2"/><path fill="#efefef" d="M94.504 166.334a1.475 1.475 0 1 1-2.95 0 1.475 1.475 0 0 1 2.95 0z"/><path fill="#e2e2e2" d="M94.643 177.855c0 .815-.66 1.474-1.475 1.474a1.474 1.474 0 1 1 0-2.949c.815 0 1.475.659 1.475 1.475z"/><path fill="#efefef" d="M110.079 166.473s1.889-1.429 1.981-2.535c0 0 1.291 2.811-.922 4.055l-1.059-1.52z"/><path fill="#efefef" d="M113.74 173.44c0-.887-.357-1.69-.935-2.275a3.24 3.24 0 0 0-2.213-4.123 1.282 1.282 0 0 0-1.057-1.46 4.093 4.093 0 0 0-5.696-1.968 2.936 2.936 0 0 0-3.278-.312 4.461 4.461 0 0 0-1.728-.347 4.442 4.442 0 0 0-3.773 2.094 1.789 1.789 0 0 0-1.922.989 2.63 2.63 0 0 0-1.127-.255 2.646 2.646 0 0 0-2.646 2.646c0 1.196.798 2.206 1.889 2.533l-.001.031c0 .596.295 1.123.747 1.442a4.84 4.84 0 0 0-.53 2.208c0 1.411.602 2.68 1.56 3.569a1.79 1.79 0 0 0 1.784 1.961c.047 0 .09-.003.136-.006a4.29 4.29 0 0 0 3.85 2.406c.559 0 1.089-.11 1.577-.302a4.86 4.86 0 0 0 6.645-1.137 1.791 1.791 0 0 0 2.632-1.497 4.864 4.864 0 0 0 2.913-3.702 3.226 3.226 0 0 0 1.173-2.495m-12.911-.658c.017.017.035.032.053.047l-.028.017-.025-.064z"/><path fill="#563f32" d="M92.736 169.048s2.579-2.842 5.729-1.688c3.248 1.188 3.437 5.869.27 6.96-3.304 1.138-4.764-3.059-2.764-4.027 1.862-.899 2.799.627 2.183 1.753 0 0-.048-.585-.351-.911-.207-.223-.588-.309-.935-.064-.935.664.039 2.427 1.518 1.717 1.229-.589.547-4.834-3.545-2.417l-2.105-1.323z"/><path fill="#efefef" d="M93.951 170.39a1.153 1.153 0 1 1-2.305-.001 1.153 1.153 0 0 1 2.305.001z"/><ellipse cx="89.938" cy="173.164" rx=".332" ry=".552" fill="#304454" transform="rotate(7.944 89.938 173.164)"/><path fill="#e2e2e2" d="M112.805 171.158a3.222 3.222 0 0 0-.186-2.454 3.521 3.521 0 0 1-1.149 3.657 5.301 5.301 0 0 1-3.175 4.035 1.952 1.952 0 0 1-2.869 1.633 5.294 5.294 0 0 1-4.267 2.153 5.275 5.275 0 0 1-2.976-.915 4.67 4.67 0 0 1-1.718.33 4.675 4.675 0 0 1-4.198-2.623c-.049.003-.098.007-.148.007l-.043-.002c.253.458.574.872.955 1.225a1.79 1.79 0 0 0 1.919 1.955 4.288 4.288 0 0 0 3.851 2.407c.558 0 1.088-.11 1.576-.303a4.857 4.857 0 0 0 6.645-1.136 1.792 1.792 0 0 0 2.632-1.498 4.86 4.86 0 0 0 2.913-3.701 3.235 3.235 0 0 0 .238-4.77zM98.733 168.975a.698.698 0 0 1-.058-.052c.009.024.017.047.028.07l.03-.018z"/><path fill="#bdcccc" d="M114.545 137.19c0-.955-.385-1.819-1.006-2.449a3.475 3.475 0 0 0-1.203-3.85c1.532-1.466.401-3.931.401-3.931-.072.867-1.168 1.915-1.76 2.423a1.38 1.38 0 0 0-.961-.653 4.4 4.4 0 0 0-3.851-2.641 2.053 2.053 0 0 0-3.429-.08 3.165 3.165 0 0 0-2.382.265 4.785 4.785 0 0 0-1.86-.374 4.783 4.783 0 0 0-4.064 2.256 1.909 1.909 0 0 0-1.176.167 1.574 1.574 0 0 0-2.489.651 2.849 2.849 0 0 0-2.466 2.821 2.85 2.85 0 0 0 2.034 2.727l-.001.034c0 .642.318 1.209.805 1.552a5.22 5.22 0 0 0 .043 4.824c-.23.276-.375.625-.375 1.013 0 .877.711 1.587 1.588 1.587.046 0 .09-.01.135-.014a1.92 1.92 0 0 0 1.783.916 4.62 4.62 0 0 0 4.147 2.591c.602 0 1.172-.118 1.698-.326a5.21 5.21 0 0 0 2.94.904 5.214 5.214 0 0 0 2.905-.88c.324.237.72.381 1.153.381.963 0 1.76-.696 1.925-1.613a1.925 1.925 0 0 0 1.065-1.628 5.237 5.237 0 0 0 2.523-2.257 2.06 2.06 0 0 0 1.492-2.827 3.47 3.47 0 0 0 .386-1.589m-13.875-.639c-.011-.023-.019-.046-.028-.07a.654.654 0 0 0 .057.051c-.01.008-.02.012-.029.019z"/><path fill="#563f32" d="M94.04 133.538s1.663-2.144.474-4.197c-1.225-2.116-4.509-1.675-4.88.665-.389 2.44 2.713 2.943 3.142 1.432.398-1.407-.779-1.873-1.489-1.306 0 0 .414-.038.678.133.181.117.287.371.16.644-.349.732-1.696.269-1.383-.848.26-.928 3.3-.973 2.118 2.174l1.18 1.303z"/><path fill="#f4dbc5" d="M96.284 132.804s-3.832-1.201-6.158-.371c-2.306.826-1.708 2.997-3.507 4.088-1.877 1.14-1.491 4.437 1.206 4.557.513.022.912-.232 1.432-.205.48.027.109.493.674.644 2.194.579 4.53-.499 5.31-.818 1.288-.529 1.043-7.895 1.043-7.895z"/><path fill="#e3ac8a" d="M96.284 132.804s-3.832-1.201-6.158-.371a3.234 3.234 0 0 0-.81.42 2.642 2.642 0 0 0 1.846 2.067l-.001.033c0 .595.296 1.12.749 1.44a4.836 4.836 0 0 0 .033 4.478c-.186.221-.308.5-.335.804 1.606-.08 3.052-.738 3.633-.977 1.288-.528 1.043-7.894 1.043-7.894z"/><path fill="#f4dbc5" d="M93.949 141.685s-4.144 1.178-2.563 2.893c.955 1.038 2.503-.511 2.83-2.504l-.267-.389zM96.576 143.803s-4.565 1.297-2.823 3.187c1.052 1.141 2.757-.562 3.12-2.76l-.297-.427zM110.65 140.494s1.593 4.284 3.274 2.466c1.016-1.096-.75-2.603-2.887-2.782l-.387.316z"/><path fill="#f4dbc5" d="M109 142.702s1.654 4.447 3.4 2.562c1.055-1.139-.78-2.704-2.999-2.89l-.401.328z"/><path fill="#efefef" d="M106.254 127.781a1.913 1.913 0 1 1-3.826.002 1.913 1.913 0 0 1 3.826-.002z"/><path fill="#e2e2e2" d="M113.536 139.302a1.914 1.914 0 1 1-3.827-.001 1.914 1.914 0 0 1 3.827.001z"/><ellipse cx="106.876" cy="144.462" rx="1.82" ry="1.82" fill="#e2e2e2"/><path fill="#efefef" d="M94.504 129.97a1.475 1.475 0 1 1-2.95 0 1.475 1.475 0 0 1 2.95 0z"/><path fill="#e2e2e2" d="M94.643 141.491c0 .815-.66 1.474-1.475 1.474a1.474 1.474 0 1 1 0-2.949c.815 0 1.475.659 1.475 1.475z"/><path fill="#efefef" d="M110.079 130.11s1.889-1.429 1.981-2.535c0 0 1.291 2.811-.922 4.055l-1.059-1.52z"/><path fill="#efefef" d="M113.74 137.076c0-.887-.357-1.69-.935-2.275a3.24 3.24 0 0 0-2.213-4.123 1.282 1.282 0 0 0-1.057-1.46 4.093 4.093 0 0 0-5.696-1.968 2.936 2.936 0 0 0-3.278-.312 4.461 4.461 0 0 0-1.728-.347 4.442 4.442 0 0 0-3.773 2.094 1.789 1.789 0 0 0-1.922.989 2.63 2.63 0 0 0-1.127-.255 2.646 2.646 0 0 0-2.646 2.646c0 1.196.798 2.206 1.889 2.533l-.001.031c0 .596.295 1.123.747 1.442a4.84 4.84 0 0 0-.53 2.208c0 1.411.602 2.68 1.56 3.569a1.79 1.79 0 0 0 1.784 1.961c.047 0 .09-.003.136-.006a4.29 4.29 0 0 0 3.85 2.406c.559 0 1.089-.11 1.577-.302a4.86 4.86 0 0 0 6.645-1.137 1.791 1.791 0 0 0 2.632-1.497 4.864 4.864 0 0 0 2.913-3.702 3.226 3.226 0 0 0 1.173-2.495m-12.911-.658c.017.017.035.032.053.047l-.028.017-.025-.064z"/><path fill="#563f32" d="M92.736 132.685s2.579-2.842 5.729-1.688c3.248 1.188 3.437 5.869.27 6.96-3.304 1.138-4.764-3.059-2.764-4.027 1.862-.899 2.799.627 2.183 1.753 0 0-.048-.585-.351-.911-.207-.223-.588-.309-.935-.064-.935.664.039 2.427 1.518 1.717 1.229-.589.547-4.834-3.545-2.417l-2.105-1.323z"/><path fill="#efefef" d="M93.951 134.026a1.153 1.153 0 1 1-2.305-.001 1.153 1.153 0 0 1 2.305.001z"/><ellipse cx="89.938" cy="136.801" rx=".332" ry=".552" fill="#304454" transform="rotate(7.944 89.938 136.8)"/><path fill="#e2e2e2" d="M112.805 134.794a3.222 3.222 0 0 0-.186-2.454 3.521 3.521 0 0 1-1.149 3.657 5.301 5.301 0 0 1-3.175 4.035 1.952 1.952 0 0 1-2.869 1.633 5.294 5.294 0 0 1-4.267 2.153 5.275 5.275 0 0 1-2.976-.915 4.67 4.67 0 0 1-1.718.33 4.675 4.675 0 0 1-4.198-2.623c-.049.003-.098.007-.148.007l-.043-.002c.253.458.574.872.955 1.225a1.79 1.79 0 0 0 1.919 1.955 4.288 4.288 0 0 0 3.851 2.407c.558 0 1.088-.11 1.576-.303a4.857 4.857 0 0 0 6.645-1.136 1.792 1.792 0 0 0 2.632-1.498 4.86 4.86 0 0 0 2.913-3.701 3.235 3.235 0 0 0 .238-4.77zM98.733 132.611a.698.698 0 0 1-.058-.052c.009.024.017.047.028.07l.03-.018z"/><path fill="#bdcccc" d="M114.545 100.827c0-.955-.385-1.82-1.006-2.45a3.475 3.475 0 0 0-1.203-3.85c1.532-1.465.401-3.93.401-3.93-.072.867-1.168 1.915-1.76 2.423a1.38 1.38 0 0 0-.961-.653 4.4 4.4 0 0 0-3.851-2.641 2.053 2.053 0 0 0-3.429-.08 3.165 3.165 0 0 0-2.382.265 4.785 4.785 0 0 0-1.86-.374 4.783 4.783 0 0 0-4.064 2.256 1.909 1.909 0 0 0-1.176.167 1.574 1.574 0 0 0-2.489.65 2.849 2.849 0 0 0-2.466 2.822 2.85 2.85 0 0 0 2.034 2.727l-.001.034c0 .642.318 1.209.805 1.552a5.222 5.222 0 0 0 .043 4.824c-.23.276-.375.625-.375 1.013 0 .877.711 1.587 1.588 1.587.046 0 .09-.01.135-.014a1.92 1.92 0 0 0 1.783.916 4.62 4.62 0 0 0 4.147 2.591c.602 0 1.172-.118 1.698-.326a5.21 5.21 0 0 0 2.94.904 5.214 5.214 0 0 0 2.905-.88c.324.237.72.381 1.153.381.963 0 1.76-.696 1.925-1.613a1.925 1.925 0 0 0 1.065-1.628 5.237 5.237 0 0 0 2.523-2.257 2.06 2.06 0 0 0 1.492-2.827 3.47 3.47 0 0 0 .386-1.589m-13.875-.639c-.011-.023-.019-.046-.028-.07a.654.654 0 0 0 .057.051c-.01.008-.02.012-.029.019z"/><path fill="#563f32" d="M94.04 97.174s1.663-2.144.474-4.197c-1.225-2.116-4.509-1.675-4.88.665-.389 2.44 2.713 2.943 3.142 1.432.398-1.407-.779-1.873-1.489-1.306 0 0 .414-.038.678.133.181.117.287.371.16.644-.349.732-1.696.27-1.383-.848.26-.928 3.3-.973 2.118 2.174l1.18 1.303z"/><path fill="#f4dbc5" d="M96.284 96.44s-3.832-1.2-6.158-.37c-2.306.826-1.708 2.997-3.507 4.088-1.877 1.14-1.491 4.437 1.206 4.557.513.022.912-.232 1.432-.205.48.027.109.493.674.644 2.194.579 4.53-.499 5.31-.818 1.288-.529 1.043-7.895 1.043-7.895z"/><path fill="#e3ac8a" d="M96.284 96.44s-3.832-1.2-6.158-.37a3.234 3.234 0 0 0-.81.42 2.642 2.642 0 0 0 1.846 2.067l-.001.033c0 .595.296 1.12.749 1.44a4.836 4.836 0 0 0 .033 4.478c-.186.221-.308.5-.335.804 1.606-.08 3.052-.738 3.633-.977 1.288-.528 1.043-7.894 1.043-7.894z"/><path fill="#f4dbc5" d="M93.949 105.322s-4.144 1.178-2.563 2.893c.955 1.038 2.503-.511 2.83-2.504l-.267-.389zM96.576 107.44s-4.565 1.297-2.823 3.187c1.052 1.141 2.757-.562 3.12-2.76l-.297-.427zM110.65 104.131s1.593 4.284 3.274 2.466c1.016-1.096-.75-2.603-2.887-2.782l-.387.316z"/><path fill="#f4dbc5" d="M109 106.338s1.654 4.447 3.4 2.562c1.055-1.139-.78-2.704-2.999-2.89l-.401.328z"/><path fill="#efefef" d="M106.254 91.417a1.913 1.913 0 1 1-3.826.002 1.913 1.913 0 0 1 3.826-.002z"/><path fill="#e2e2e2" d="M113.536 102.938a1.914 1.914 0 1 1-3.827-.001 1.914 1.914 0 0 1 3.827.001z"/><ellipse cx="106.876" cy="108.099" rx="1.82" ry="1.82" fill="#e2e2e2"/><path fill="#efefef" d="M94.504 93.607a1.475 1.475 0 1 1-2.95 0 1.475 1.475 0 0 1 2.95 0z"/><path fill="#e2e2e2" d="M94.643 105.128c0 .815-.66 1.474-1.475 1.474a1.474 1.474 0 1 1 0-2.949c.815 0 1.475.659 1.475 1.475z"/><path fill="#efefef" d="M110.079 93.746s1.889-1.429 1.981-2.535c0 0 1.291 2.811-.922 4.055l-1.059-1.52z"/><path fill="#efefef" d="M113.74 100.713c0-.887-.357-1.69-.935-2.275a3.24 3.24 0 0 0-2.213-4.123 1.282 1.282 0 0 0-1.057-1.46 4.093 4.093 0 0 0-5.696-1.968 2.936 2.936 0 0 0-3.278-.312 4.461 4.461 0 0 0-1.728-.347 4.442 4.442 0 0 0-3.773 2.094 1.789 1.789 0 0 0-1.922.989 2.63 2.63 0 0 0-1.127-.255 2.646 2.646 0 0 0-2.646 2.646c0 1.196.798 2.206 1.889 2.533l-.001.03c0 .597.295 1.124.747 1.443a4.842 4.842 0 0 0-.53 2.208c0 1.411.602 2.68 1.56 3.569a1.79 1.79 0 0 0 1.784 1.961c.047 0 .09-.003.136-.006a4.29 4.29 0 0 0 3.85 2.406c.559 0 1.089-.11 1.577-.302a4.86 4.86 0 0 0 6.645-1.137 1.791 1.791 0 0 0 2.632-1.497 4.864 4.864 0 0 0 2.913-3.702 3.226 3.226 0 0 0 1.173-2.495m-12.911-.658a.775.775 0 0 0 .053.047l-.028.017-.025-.064z"/><path fill="#563f32" d="M92.736 96.321s2.579-2.842 5.729-1.688c3.248 1.188 3.437 5.869.27 6.96-3.304 1.138-4.764-3.059-2.764-4.027 1.862-.899 2.799.627 2.183 1.753 0 0-.048-.585-.351-.911-.207-.223-.588-.309-.935-.064-.935.664.039 2.427 1.518 1.717 1.229-.589.547-4.834-3.545-2.417l-2.105-1.323z"/><path fill="#efefef" d="M93.951 97.663a1.153 1.153 0 1 1-2.305-.001 1.153 1.153 0 0 1 2.305 0z"/><ellipse cx="89.938" cy="100.437" rx=".332" ry=".552" fill="#304454" transform="rotate(7.944 89.938 100.437)"/><path fill="#e2e2e2" d="M112.805 98.43a3.222 3.222 0 0 0-.186-2.454 3.521 3.521 0 0 1-1.149 3.657 5.301 5.301 0 0 1-3.175 4.035 1.952 1.952 0 0 1-2.869 1.633 5.294 5.294 0 0 1-4.267 2.153 5.275 5.275 0 0 1-2.976-.915 4.67 4.67 0 0 1-1.718.33 4.675 4.675 0 0 1-4.198-2.623c-.049.003-.098.007-.148.007l-.043-.002c.253.458.574.872.955 1.225a1.79 1.79 0 0 0 1.919 1.955 4.288 4.288 0 0 0 3.851 2.407c.558 0 1.088-.11 1.576-.303a4.857 4.857 0 0 0 6.645-1.136 1.792 1.792 0 0 0 2.632-1.498 4.86 4.86 0 0 0 2.913-3.701 3.235 3.235 0 0 0 .238-4.77zM98.733 96.247a.698.698 0 0 1-.058-.052c.009.024.017.047.028.07.009-.006.019-.01.03-.018z"/></svg>
