<svg xmlns="http://www.w3.org/2000/svg" width="98.691" height="130" viewBox="0 0 98.6910994764398 130"><defs><linearGradient id="a" x2="1" y2=".81"><stop offset="0%" stop-color="#f7a996"/><stop offset="100%" stop-color="#f15d4e"/></linearGradient><linearGradient id="b" x2="1" y2=".81"><stop offset="0%" stop-color="#f7a996"/><stop offset="100%" stop-color="#f15d4e"/></linearGradient><linearGradient id="c" x2="1" y2=".81"><stop offset="0%" stop-color="#f7a996"/><stop offset="100%" stop-color="#f15d4e"/></linearGradient><linearGradient id="d" x2="1" y2=".81"><stop offset="0%" stop-color="#f7a996"/><stop offset="100%" stop-color="#f15d4e"/></linearGradient><linearGradient id="e" x2="1" y2=".81"><stop offset="0%" stop-color="#f7a996"/><stop offset="100%" stop-color="#f15d4e"/></linearGradient><linearGradient id="f" x2="1" y2=".81"><stop offset="0%" stop-color="#f7a996"/><stop offset="100%" stop-color="#f15d4e"/></linearGradient><linearGradient id="g" x2="1" y2=".81"><stop offset="0%" stop-color="#f7a996"/><stop offset="100%" stop-color="#f15d4e"/></linearGradient><linearGradient id="h" x2="1" y2=".81"><stop offset="0%" stop-color="#f7a996"/><stop offset="100%" stop-color="#f15d4e"/></linearGradient><linearGradient id="i" x2="1" y2=".81"><stop offset="0%" stop-color="#f7a996"/><stop offset="100%" stop-color="#f15d4e"/></linearGradient><linearGradient id="j" x2="1" y2=".81"><stop offset="0%" stop-color="#f7a996"/><stop offset="100%" stop-color="#f15d4e"/></linearGradient><linearGradient id="k" x2="1" y2=".81"><stop offset="0%" stop-color="#f7a996"/><stop offset="100%" stop-color="#f15d4e"/></linearGradient><linearGradient id="l" x2="1" y2=".81"><stop offset="0%" stop-color="#f7a996"/><stop offset="100%" stop-color="#f15d4e"/></linearGradient></defs><path fill="#d67b72" d="M29.22 25.275s.628.147.637.293c.008.147-.276.497-.45.53-.174.032-.762-.297-.762-.297l.575-.526z"/><path fill="#d67b72" d="M28.992 25.575s.59.12.647.348c.04.16-.822.807-1.424.636-.366-.102-.517-.291-.517-.291l1.294-.693z"/><path fill="#e59585" d="M25.923 20.84c.204.11 1.834 1.375.368 3.41-.362.504 1.73 1.065 1.73 1.065s.535-.24 1.052-.054c.694.247-1.488 1.078-1.488 1.078s.123.298.044.318c-.078.018-.359-.393-.396-.483-.162-.103-1.36-.377-1.956-.788-.604-.416-2.958-1.706-2.249-3.435.823-2.004 2.455-1.352 2.895-1.111z"/><path fill="#d67b72" d="M8.966 25.307s-.49.102-.538.008-.062-.39.043-.46c.106-.073.519-.053.519-.053l-.024.505z"/><path fill="#d67b72" d="M8.951 25.06s-.47.084-.573-.05c-.072-.096.23-.772.676-.835.272-.038.425.044.425.044l-.528.841z"/><path fill="#e59585" d="M15.603 22.246c-.552 3.417-4.027 2.013-4.525 2.433-.83.7-2.112.628-2.112.628-.308-.01.475-1.094.475-1.094l.316.096s-.314-.176-.268-.212c.083-.063.257.026.477.135.696-.123.674-.968.97-1.039 1.146-.276.976-.758.976-.758-1.619-1.97 1.085-2.558 1.085-2.558s3.22-1.427 2.606 2.37z"/><path fill="#e59585" d="M12.12 20.206s-.546-1.075-1.466-1.046c-.921.027-.918.867-.395 1.125.513.253.81-.608.81-.608s.039.985-.825.855c-.918-.136-.927-1.695.466-1.692.992.002 1.727.94 1.727.94l-.316.425z"/><path fill="#f7a996" d="M23.91 20.924s-1.638.265-3.404-.718c-3.24-1.808-5.625-2.457-8.186-.768-3.434 2.264-4.118 9.393 2.922 10.87 10.321 2.167 14.462-8.593 14.462-8.593l-5.794-.791z"/><path fill="#e59585" d="M20.885 30.2c-.641-2.682.4-3.541.4-3.541l1.742 2.693c-.66.345-1.373.635-2.142.848zM15.242 30.309a9.05 9.05 0 0 1-2.177-.789l.55-1.006c.751 1.137 1.898 1.709 2.525 1.952a8.112 8.112 0 0 1-.898-.157z"/><path fill="#d67b72" d="M7.498 30.89s-.566.117-.623.007c-.054-.108-.072-.449.05-.532s.6-.06.6-.06l-.027.584z"/><path fill="#d67b72" d="M7.48 30.604s-.542.097-.661-.06c-.083-.108.265-.89.782-.963.313-.043.49.05.49.05l-.61.973z"/><path fill="#f7a996" d="M15.343 27.306c-.484 3.85-4.828 2.371-5.405 2.857-.958.81-2.44.726-2.44.726-.355-.014.549-1.265.549-1.265l.364.113s-.362-.205-.308-.246c.095-.073.297.03.55.156.804-.142.78-1.119 1.12-1.2 1.328-.32 1.13-.877 1.13-.877-1.871-2.277-.48-4.818-.48-4.818s5.472.146 4.92 4.554z"/><path fill="#e59585" d="M24.367 28.533c-2.453-1.39-5.222-4.36-5.61-9.22.556.252 1.138.55 1.75.892 1.765.984 3.403.719 3.403.719l5.793.792s-1.613 4.193-5.336 6.817z"/><path fill="#d67b72" d="M27.66 29.11s.642-.067.698.07c.055.135-.099.56-.253.646s-.818-.033-.818-.033l.373-.684z"/><path fill="#d67b72" d="M27.542 29.467s.598-.079.725.119c.089.138-.514 1.029-1.139 1.065-.38.022-.583-.108-.583-.108l.997-1.076z"/><path fill="#f7a996" d="M23.243 25.954c.229.038 2.182.703 1.458 3.105-.178.595 1.982.444 1.982.444s.429-.4.978-.393c.736.008-1.056 1.503-1.056 1.503s.213.242.144.287c-.067.042-.466-.255-.531-.328-.186-.046-1.41.087-2.106-.11-.707-.195-3.352-.65-3.244-2.514.125-2.163 1.88-2.079 2.375-1.994zM29.18 13.962s-.004-1.102.856-1.78c.564-.445 1.397-1.016 1.855-1.694 1.24-1.838 2.454.958 2.067 3.39-.269 1.688-1.187 3.717-2.647 3.164-1.235-.468-2.132-3.08-2.132-3.08z"/><path fill="url(#a)" d="M29.62 15.008c-.28-.576-.441-1.046-.441-1.046s-.001-.478.244-.998c.778.245 1.589.897 1.589.897l-1.392 1.147z"/><path fill="#e59585" d="M29.62 15.008c-.28-.576-.441-1.046-.441-1.046s-.001-.478.244-.998c.778.245 1.589.897 1.589.897l-1.392 1.147z"/><path fill="#d67b72" d="M30.726 15.753s-.639-1.44.146-2.459c.923-1.199 1.331-2.797 1.9-2.97.691-.21.99 1.31 1.086 1.914.147.9-.1 2.662-.654 3.643-.393.697-.766 1.191-1.82 1.102-1.057-.089-.658-1.23-.658-1.23z"/><path fill="#f7a996" d="M23.663 14.172s-.082-1.098-.99-1.71c-.595-.4-1.47-.906-1.978-1.548-1.377-1.738-2.375 1.142-1.803 3.537.396 1.663 1.466 3.617 2.88 2.955 1.197-.561 1.892-3.234 1.892-3.234z"/><path fill="#e59585" d="M23.11 15.777c.235-.596.553-1.604.553-1.604s-.035-.477-.319-.977c-.756.303-1.516 1.015-1.516 1.015l1.282 1.566z"/><path fill="#d67b72" d="M22.257 16.076s.528-1.485-.333-2.44c-1.012-1.125-1.54-2.688-2.118-2.818-.707-.157-.888 1.382-.94 1.992-.075.907.304 2.646.93 3.582.445.665.856 1.13 1.9.96 1.047-.169.56-1.276.56-1.276z"/><path fill="#f7a996" d="M29.827 13.758s-1.68-.988-3.355-.868c-1.168.083-2.535.295-3.697 1.42-1.582 1.53-1.956 4.053-1.976 5.345-.051 3.412 2.227 5.573 5.763 5.49 3.484-.08 6.292-2.358 6.058-5.759-.132-1.939-.758-4.44-2.793-5.628z"/><path fill="#d67b72" d="M28.72 21.742s-.802-1.793-2.036-1.746c-.745.03-1.559.81-1.964 1.985-.465 1.353 1.3 1.767 2.105 1.706.731-.058 2.445-.3 1.894-1.945z"/><path fill="#fff" d="M25.883 22.51a.417.417 0 1 1-.031-.833.417.417 0 0 1 .031.832z" opacity=".4"/><ellipse cx="27.603" cy="22.027" rx=".416" ry=".416" fill="#fff" opacity=".4"/><path fill="#f7a996" d="M27.091 13.078s.083-.741-.714-.803c0 0 .64.345.547.773l.167.03z"/><path fill="#f7a996" d="M26.9 12.984s-.158-.289-.456-.333c0 0 .377.207.384.391l.072-.058z"/><ellipse cx="29.46" cy="19.38" rx=".457" ry=".635" fill="#304454" transform="rotate(178.441 29.46 19.38)"/><ellipse cx="24.011" cy="19.247" rx=".457" ry=".635" fill="#304454" transform="rotate(178.441 24.01 19.247)"/><ellipse cx="26.058" cy="22.052" rx=".176" ry=".176" fill="#304454"/><path fill="#304454" d="M27.42 22.177a.176.176 0 1 0-.015-.351.177.177 0 0 0-.17.182.177.177 0 0 0 .184.169z"/><path fill="#d67b72" d="M60.53 25.275s.627.147.636.293c.008.147-.276.497-.45.53-.174.032-.762-.297-.762-.297l.575-.526z"/><path fill="#d67b72" d="M60.301 25.575s.59.12.647.348c.039.16-.822.807-1.424.636-.366-.102-.517-.291-.517-.291l1.294-.693z"/><path fill="#e59585" d="M57.232 20.84c.204.11 1.834 1.375.368 3.41-.362.504 1.73 1.065 1.73 1.065s.535-.24 1.052-.054c.694.247-1.488 1.078-1.488 1.078s.123.298.044.318c-.078.018-.359-.393-.396-.483-.162-.103-1.36-.377-1.956-.788-.604-.416-2.958-1.706-2.249-3.435.823-2.004 2.455-1.352 2.895-1.111z"/><path fill="#d67b72" d="M40.275 25.307s-.49.102-.538.008c-.048-.094-.062-.39.043-.46.106-.073.519-.053.519-.053l-.024.505z"/><path fill="#d67b72" d="M40.26 25.06s-.47.084-.573-.05c-.072-.096.23-.772.676-.835.272-.038.425.044.425.044l-.528.841z"/><path fill="#e59585" d="M46.912 22.246c-.552 3.417-4.027 2.013-4.525 2.433-.83.7-2.112.628-2.112.628-.308-.01.475-1.094.475-1.094l.316.096s-.314-.176-.268-.212c.083-.063.257.026.477.135.696-.123.674-.968.969-1.039 1.147-.276.977-.758.977-.758-1.619-1.97 1.085-2.558 1.085-2.558s3.22-1.427 2.606 2.37z"/><path fill="#e59585" d="M43.43 20.206s-.547-1.075-1.467-1.046c-.921.027-.918.867-.395 1.125.513.253.81-.608.81-.608s.039.985-.825.855c-.918-.136-.927-1.695.466-1.692.992.002 1.727.94 1.727.94l-.316.425z"/><path fill="#f7a996" d="M55.219 20.924s-1.638.265-3.404-.718c-3.241-1.808-5.625-2.457-8.186-.768-3.434 2.264-4.118 9.393 2.922 10.87 10.321 2.167 14.462-8.593 14.462-8.593l-5.794-.791z"/><path fill="#e59585" d="M52.194 30.2c-.641-2.682.4-3.541.4-3.541l1.742 2.693c-.66.345-1.373.635-2.142.848zM46.551 30.309a9.05 9.05 0 0 1-2.177-.789l.55-1.006c.751 1.137 1.898 1.709 2.525 1.952a8.112 8.112 0 0 1-.898-.157z"/><path fill="#d67b72" d="M38.807 30.89s-.566.117-.623.007c-.054-.108-.072-.449.05-.532s.6-.06.6-.06l-.027.584z"/><path fill="#d67b72" d="M38.79 30.604s-.544.097-.663-.06c-.083-.108.265-.89.782-.963.313-.043.492.05.492.05l-.612.973z"/><path fill="#f7a996" d="M46.652 27.306c-.484 3.85-4.828 2.371-5.405 2.857-.958.81-2.44.726-2.44.726-.355-.014.549-1.265.549-1.265l.364.113s-.362-.205-.308-.246c.095-.073.297.03.55.156.804-.142.78-1.119 1.12-1.2 1.328-.32 1.13-.877 1.13-.877-1.871-2.277-.48-4.818-.48-4.818s5.472.146 4.92 4.554z"/><path fill="#e59585" d="M55.676 28.533c-2.453-1.39-5.222-4.36-5.61-9.22.556.252 1.138.55 1.75.892 1.765.984 3.403.719 3.403.719l5.793.792s-1.613 4.193-5.336 6.817z"/><path fill="#d67b72" d="M58.969 29.11s.642-.067.698.07c.055.135-.1.56-.253.646s-.818-.033-.818-.033l.373-.684z"/><path fill="#d67b72" d="M58.85 29.467s.599-.079.726.119c.089.138-.514 1.029-1.14 1.065-.38.022-.582-.108-.582-.108l.997-1.076z"/><path fill="#f7a996" d="M54.552 25.954c.229.038 2.182.703 1.458 3.105-.178.595 1.982.444 1.982.444s.429-.4.978-.393c.736.008-1.056 1.503-1.056 1.503s.213.242.144.287c-.067.042-.466-.255-.531-.328-.186-.046-1.41.087-2.106-.11-.707-.195-3.352-.65-3.244-2.514.125-2.163 1.88-2.079 2.375-1.994zM60.488 13.962s-.003-1.102.857-1.78c.564-.445 1.397-1.016 1.855-1.694 1.24-1.838 2.454.958 2.067 3.39-.269 1.688-1.187 3.717-2.647 3.164-1.235-.468-2.132-3.08-2.132-3.08z"/><path fill="url(#b)" d="M60.929 15.008c-.28-.576-.441-1.046-.441-1.046s-.001-.478.244-.998c.778.245 1.589.897 1.589.897l-1.392 1.147z"/><path fill="#e59585" d="M60.929 15.008c-.28-.576-.441-1.046-.441-1.046s-.001-.478.244-.998c.778.245 1.589.897 1.589.897l-1.392 1.147z"/><path fill="#d67b72" d="M62.035 15.753s-.639-1.44.146-2.459c.923-1.199 1.331-2.797 1.9-2.97.691-.21.99 1.31 1.086 1.914.147.9-.1 2.662-.654 3.643-.393.697-.766 1.191-1.82 1.102-1.057-.089-.658-1.23-.658-1.23z"/><path fill="#f7a996" d="M54.972 14.172s-.082-1.098-.99-1.71c-.596-.4-1.47-.906-1.979-1.548-1.376-1.738-2.374 1.142-1.802 3.537.396 1.663 1.466 3.617 2.88 2.955 1.196-.561 1.891-3.234 1.891-3.234z"/><path fill="#e59585" d="M54.42 15.777c.234-.596.552-1.604.552-1.604s-.035-.477-.319-.977c-.756.303-1.516 1.015-1.516 1.015l1.282 1.566z"/><path fill="#d67b72" d="M53.566 16.076s.528-1.485-.333-2.44c-1.012-1.125-1.54-2.688-2.118-2.818-.707-.157-.888 1.382-.94 1.992-.075.907.304 2.646.93 3.582.445.665.856 1.13 1.9.96 1.047-.169.56-1.276.56-1.276z"/><path fill="#f7a996" d="M61.136 13.758s-1.68-.988-3.355-.868c-1.168.083-2.535.295-3.697 1.42-1.582 1.53-1.956 4.053-1.976 5.345-.051 3.412 2.227 5.573 5.763 5.49 3.484-.08 6.292-2.358 6.058-5.759-.132-1.939-.758-4.44-2.793-5.628z"/><path fill="#d67b72" d="M60.028 21.742s-.8-1.793-2.035-1.746c-.745.03-1.559.81-1.964 1.985-.465 1.353 1.3 1.767 2.105 1.706.731-.058 2.445-.3 1.894-1.945z"/><path fill="#fff" d="M57.192 22.51a.417.417 0 1 1-.031-.833.417.417 0 0 1 .03.832z" opacity=".4"/><ellipse cx="58.912" cy="22.027" rx=".416" ry=".416" fill="#fff" opacity=".4"/><path fill="#f7a996" d="M58.4 13.078s.083-.741-.714-.803c0 0 .64.345.547.773l.167.03z"/><path fill="#f7a996" d="M58.209 12.984s-.158-.289-.456-.333c0 0 .377.207.384.391l.072-.058z"/><ellipse cx="60.769" cy="19.38" rx=".457" ry=".635" fill="#304454" transform="rotate(178.441 60.769 19.38)"/><ellipse cx="55.319" cy="19.247" rx=".457" ry=".635" fill="#304454" transform="rotate(178.441 55.32 19.247)"/><ellipse cx="57.367" cy="22.052" rx=".176" ry=".176" fill="#304454"/><path fill="#304454" d="M58.728 22.177a.176.176 0 1 0-.014-.351.177.177 0 0 0-.17.182.177.177 0 0 0 .184.169z"/><path fill="#d67b72" d="M91.838 25.275s.628.147.637.293c.008.147-.276.497-.45.53-.174.032-.762-.297-.762-.297l.575-.526z"/><path fill="#d67b72" d="M91.61 25.575s.59.12.647.348c.039.16-.822.807-1.424.636-.366-.102-.517-.291-.517-.291l1.294-.693z"/><path fill="#e59585" d="M88.541 20.84c.204.11 1.834 1.375.368 3.41-.362.504 1.73 1.065 1.73 1.065s.535-.24 1.052-.054c.694.247-1.488 1.078-1.488 1.078s.123.298.044.318c-.078.018-.359-.393-.396-.483-.162-.103-1.361-.377-1.956-.788-.604-.416-2.958-1.706-2.249-3.435.823-2.004 2.455-1.352 2.895-1.111z"/><path fill="#d67b72" d="M71.584 25.307s-.49.102-.538.008-.062-.39.043-.46c.106-.073.519-.053.519-.053l-.024.505z"/><path fill="#d67b72" d="M71.569 25.06s-.47.084-.573-.05c-.072-.096.229-.772.676-.835.272-.038.425.044.425.044l-.528.841z"/><path fill="#e59585" d="M78.22 22.246c-.551 3.417-4.026 2.013-4.524 2.433-.83.7-2.112.628-2.112.628-.308-.01.475-1.094.475-1.094l.316.096s-.314-.176-.268-.212c.083-.063.257.026.477.135.696-.123.674-.968.969-1.039 1.147-.276.977-.758.977-.758-1.62-1.97 1.085-2.558 1.085-2.558s3.22-1.427 2.606 2.37z"/><path fill="#e59585" d="M74.739 20.206s-.547-1.075-1.467-1.046c-.921.027-.918.867-.395 1.125.513.253.81-.608.81-.608s.039.985-.825.855c-.918-.136-.927-1.695.466-1.692.992.002 1.727.94 1.727.94l-.316.425z"/><path fill="#f7a996" d="M86.528 20.924s-1.638.265-3.404-.718c-3.241-1.808-5.625-2.457-8.186-.768-3.434 2.264-4.118 9.393 2.922 10.87 10.32 2.167 14.462-8.593 14.462-8.593l-5.794-.791z"/><path fill="#e59585" d="M83.503 30.2c-.641-2.682.4-3.541.4-3.541l1.742 2.693c-.66.345-1.373.635-2.142.848zM77.86 30.309a9.05 9.05 0 0 1-2.177-.789l.55-1.006c.751 1.137 1.898 1.709 2.525 1.952a8.112 8.112 0 0 1-.898-.157z"/><path fill="#d67b72" d="M70.116 30.89s-.566.117-.623.007c-.054-.108-.072-.449.05-.532s.6-.06.6-.06l-.027.584z"/><path fill="#d67b72" d="M70.098 30.604s-.543.097-.662-.06c-.083-.108.265-.89.782-.963.313-.043.491.05.491.05l-.61.973z"/><path fill="#f7a996" d="M77.96 27.306c-.483 3.85-4.828 2.371-5.404 2.857-.959.81-2.44.726-2.44.726-.356-.014.549-1.265.549-1.265l.363.113s-.362-.205-.308-.246c.096-.073.297.03.55.156.805-.142.78-1.119 1.121-1.2 1.328-.32 1.13-.877 1.13-.877-1.871-2.277-.48-4.818-.48-4.818s5.472.146 4.92 4.554z"/><path fill="#e59585" d="M86.985 28.533c-2.453-1.39-5.222-4.36-5.61-9.22.556.252 1.138.55 1.75.892 1.765.984 3.403.719 3.403.719l5.793.792s-1.613 4.193-5.336 6.817z"/><path fill="#d67b72" d="M90.278 29.11s.642-.067.698.07c.055.135-.1.56-.253.646s-.818-.033-.818-.033l.373-.684z"/><path fill="#d67b72" d="M90.16 29.467s.598-.079.725.119c.089.138-.514 1.029-1.14 1.065-.38.022-.582-.108-.582-.108l.997-1.076z"/><path fill="#f7a996" d="M85.86 25.954c.23.038 2.183.703 1.459 3.105-.178.595 1.982.444 1.982.444s.429-.4.978-.393c.736.008-1.056 1.503-1.056 1.503s.213.242.144.287c-.067.042-.466-.255-.531-.328-.186-.046-1.41.087-2.106-.11-.707-.195-3.352-.65-3.244-2.514.125-2.163 1.88-2.079 2.375-1.994zM91.797 13.962s-.003-1.102.857-1.78c.564-.445 1.397-1.016 1.855-1.694 1.24-1.838 2.454.958 2.067 3.39-.269 1.688-1.187 3.717-2.647 3.164-1.235-.468-2.132-3.08-2.132-3.08z"/><path fill="url(#c)" d="M92.238 15.008c-.28-.576-.441-1.046-.441-1.046s-.001-.478.244-.998c.778.245 1.589.897 1.589.897l-1.392 1.147z"/><path fill="#e59585" d="M92.238 15.008c-.28-.576-.441-1.046-.441-1.046s-.001-.478.244-.998c.778.245 1.589.897 1.589.897l-1.392 1.147z"/><path fill="#d67b72" d="M93.344 15.753s-.639-1.44.146-2.459c.923-1.199 1.331-2.797 1.899-2.97.692-.21.99 1.31 1.087 1.914.147.9-.1 2.662-.654 3.643-.393.697-.766 1.191-1.821 1.102-1.056-.089-.657-1.23-.657-1.23z"/><path fill="#f7a996" d="M86.281 14.172s-.082-1.098-.99-1.71c-.596-.4-1.47-.906-1.979-1.548-1.376-1.738-2.374 1.142-1.802 3.537.396 1.663 1.466 3.617 2.88 2.955 1.196-.561 1.891-3.234 1.891-3.234z"/><path fill="#e59585" d="M85.728 15.777c.235-.596.553-1.604.553-1.604s-.035-.477-.319-.977c-.756.303-1.516 1.015-1.516 1.015l1.282 1.566z"/><path fill="#d67b72" d="M84.874 16.076s.529-1.485-.332-2.44c-1.013-1.125-1.54-2.688-2.118-2.818-.708-.157-.889 1.382-.94 1.992-.075.907.303 2.646.93 3.582.445.665.855 1.13 1.9.96 1.047-.169.56-1.276.56-1.276z"/><path fill="#f7a996" d="M92.445 13.758s-1.68-.988-3.355-.868c-1.169.083-2.535.295-3.698 1.42-1.581 1.53-1.956 4.053-1.975 5.345-.052 3.412 2.227 5.573 5.763 5.49 3.483-.08 6.291-2.358 6.057-5.759-.131-1.939-.757-4.44-2.792-5.628z"/><path fill="#d67b72" d="M91.337 21.742s-.8-1.793-2.035-1.746c-.745.03-1.559.81-1.964 1.985-.465 1.353 1.3 1.767 2.105 1.706.731-.058 2.445-.3 1.894-1.945z"/><path fill="#fff" d="M88.5 22.51a.417.417 0 1 1-.03-.833.417.417 0 0 1 .03.832z" opacity=".4"/><ellipse cx="90.22" cy="22.027" rx=".416" ry=".416" fill="#fff" opacity=".4"/><path fill="#f7a996" d="M89.709 13.078s.083-.741-.714-.803c0 0 .64.345.547.773l.167.03z"/><path fill="#f7a996" d="M89.518 12.984s-.158-.289-.456-.333c0 0 .377.207.384.391l.072-.058z"/><ellipse cx="92.078" cy="19.38" rx=".457" ry=".635" fill="#304454" transform="rotate(178.441 92.078 19.38)"/><ellipse cx="86.628" cy="19.247" rx=".457" ry=".635" fill="#304454" transform="rotate(178.441 86.628 19.247)"/><ellipse cx="88.676" cy="22.052" rx=".176" ry=".176" fill="#304454"/><path fill="#304454" d="M90.037 22.177a.176.176 0 1 0-.014-.351.177.177 0 0 0-.17.182.177.177 0 0 0 .184.169z"/><path fill="#d67b72" d="M29.22 56.584s.628.147.637.293c.008.147-.276.497-.45.53-.174.032-.762-.297-.762-.297l.575-.526z"/><path fill="#d67b72" d="M28.992 56.884s.59.12.647.348c.04.16-.822.807-1.424.636-.366-.102-.517-.291-.517-.291l1.294-.693z"/><path fill="#e59585" d="M25.923 52.149c.204.11 1.834 1.375.368 3.41-.362.504 1.73 1.065 1.73 1.065s.535-.24 1.052-.054c.694.247-1.488 1.078-1.488 1.078s.123.298.044.318c-.078.018-.359-.393-.396-.483-.162-.103-1.36-.377-1.956-.788-.604-.416-2.958-1.706-2.249-3.435.823-2.004 2.455-1.352 2.895-1.111z"/><path fill="#d67b72" d="M8.966 56.616s-.49.102-.538.008c-.048-.094-.062-.39.043-.46.106-.073.519-.053.519-.053l-.024.505z"/><path fill="#d67b72" d="M8.951 56.37s-.47.083-.573-.052c-.072-.095.23-.77.676-.834.272-.038.425.044.425.044l-.528.841z"/><path fill="#e59585" d="M15.603 53.555c-.552 3.417-4.027 2.013-4.525 2.433-.83.7-2.112.628-2.112.628-.308-.011.475-1.094.475-1.094l.316.096s-.314-.176-.268-.212c.083-.063.257.026.477.135.696-.123.674-.968.97-1.039 1.146-.276.976-.758.976-.758-1.619-1.971 1.085-2.558 1.085-2.558s3.22-1.427 2.606 2.369z"/><path fill="#e59585" d="M12.12 51.514s-.546-1.074-1.466-1.046c-.921.028-.918.868-.395 1.126.513.252.81-.609.81-.609s.039.985-.825.856c-.918-.136-.927-1.695.466-1.693.992.002 1.727.941 1.727.941l-.316.425z"/><path fill="#f7a996" d="M23.91 52.232s-1.638.265-3.404-.718c-3.24-1.807-5.625-2.457-8.186-.768-3.434 2.264-4.118 9.394 2.922 10.871 10.321 2.167 14.462-8.593 14.462-8.593l-5.794-.792z"/><path fill="#e59585" d="M20.885 61.509c-.641-2.682.4-3.541.4-3.541l1.742 2.693c-.66.345-1.373.635-2.142.848zM15.242 61.618a9.05 9.05 0 0 1-2.177-.79l.55-1.005c.751 1.137 1.898 1.709 2.525 1.952a8.112 8.112 0 0 1-.898-.157z"/><path fill="#d67b72" d="M7.498 62.198s-.566.118-.623.008c-.054-.108-.072-.449.05-.532s.6-.06.6-.06l-.027.584z"/><path fill="#d67b72" d="M7.48 61.912s-.542.097-.661-.06c-.083-.108.265-.89.782-.962.313-.044.49.05.49.05l-.61.972z"/><path fill="#f7a996" d="M15.343 58.615c-.484 3.85-4.828 2.371-5.405 2.857-.958.81-2.44.726-2.44.726-.355-.014.549-1.265.549-1.265l.364.113s-.362-.205-.308-.246c.095-.073.297.03.55.156.804-.142.78-1.119 1.12-1.2 1.328-.32 1.13-.877 1.13-.877-1.871-2.277-.48-4.818-.48-4.818s5.472.146 4.92 4.554z"/><path fill="#e59585" d="M24.367 59.842c-2.453-1.39-5.222-4.36-5.61-9.22.556.252 1.138.55 1.75.892 1.765.984 3.403.719 3.403.719l5.793.792s-1.613 4.193-5.336 6.817z"/><path fill="#d67b72" d="M27.66 60.418s.642-.066.698.07c.055.136-.099.56-.253.647-.154.087-.818-.033-.818-.033l.373-.684z"/><path fill="#d67b72" d="M27.542 60.776s.598-.08.725.119c.089.138-.514 1.029-1.139 1.065-.38.022-.583-.108-.583-.108l.997-1.076z"/><path fill="#f7a996" d="M23.243 57.263c.229.038 2.182.703 1.458 3.105-.178.594 1.982.443 1.982.443s.429-.399.978-.393c.736.008-1.056 1.503-1.056 1.503s.213.242.144.287c-.067.042-.466-.254-.531-.328-.186-.045-1.41.087-2.106-.109-.707-.196-3.352-.65-3.244-2.515.125-2.163 1.88-2.078 2.375-1.993zM29.18 45.27s-.004-1.102.856-1.78c.564-.445 1.397-1.016 1.855-1.694 1.24-1.837 2.454.959 2.067 3.39-.269 1.688-1.187 3.718-2.647 3.164-1.235-.468-2.132-3.08-2.132-3.08z"/><path fill="url(#d)" d="M29.62 46.316c-.28-.576-.441-1.046-.441-1.046s-.001-.478.244-.998c.778.245 1.589.898 1.589.898l-1.392 1.146z"/><path fill="#e59585" d="M29.62 46.316c-.28-.576-.441-1.046-.441-1.046s-.001-.478.244-.998c.778.245 1.589.898 1.589.898l-1.392 1.146z"/><path fill="#d67b72" d="M30.726 47.062s-.639-1.44.146-2.459c.923-1.199 1.331-2.797 1.9-2.97.691-.21.99 1.31 1.086 1.914.147.9-.1 2.662-.654 3.643-.393.697-.766 1.191-1.82 1.102-1.057-.089-.658-1.23-.658-1.23z"/><path fill="#f7a996" d="M23.663 45.48s-.082-1.097-.99-1.708c-.595-.401-1.47-.907-1.978-1.55-1.377-1.737-2.375 1.143-1.803 3.538.396 1.663 1.466 3.617 2.88 2.955 1.197-.561 1.892-3.234 1.892-3.234z"/><path fill="#e59585" d="M23.11 47.086c.235-.596.553-1.604.553-1.604s-.035-.477-.319-.977c-.756.303-1.516 1.015-1.516 1.015l1.282 1.566z"/><path fill="#d67b72" d="M22.257 47.385s.528-1.485-.333-2.44c-1.012-1.126-1.54-2.689-2.118-2.819-.707-.157-.888 1.382-.94 1.993-.075.907.304 2.646.93 3.581.445.665.856 1.13 1.9.961 1.047-.169.56-1.276.56-1.276z"/><path fill="#f7a996" d="M29.827 45.067s-1.68-.988-3.355-.868c-1.168.083-2.535.295-3.697 1.42-1.582 1.53-1.956 4.053-1.976 5.345-.051 3.412 2.227 5.573 5.763 5.49 3.484-.08 6.292-2.358 6.058-5.759-.132-1.939-.758-4.44-2.793-5.628z"/><path fill="#d67b72" d="M28.72 53.051s-.802-1.793-2.036-1.746c-.745.03-1.559.81-1.964 1.985-.465 1.353 1.3 1.767 2.105 1.706.731-.058 2.445-.3 1.894-1.945z"/><path fill="#fff" d="M25.883 53.818a.417.417 0 1 1-.031-.832.417.417 0 0 1 .031.832z" opacity=".4"/><ellipse cx="27.603" cy="53.336" rx=".416" ry=".416" fill="#fff" opacity=".4"/><path fill="#f7a996" d="M27.091 44.387s.083-.741-.714-.803c0 0 .64.345.547.773l.167.03z"/><path fill="#f7a996" d="M26.9 44.293s-.158-.29-.456-.333c0 0 .377.207.384.39l.072-.057z"/><ellipse cx="29.46" cy="50.689" rx=".457" ry=".635" fill="#304454" transform="rotate(178.441 29.46 50.689)"/><ellipse cx="24.011" cy="50.556" rx=".457" ry=".635" fill="#304454" transform="rotate(178.441 24.01 50.556)"/><ellipse cx="26.058" cy="53.361" rx=".176" ry=".176" fill="#304454"/><path fill="#304454" d="M27.42 53.486a.176.176 0 1 0-.015-.351.177.177 0 0 0-.17.182.177.177 0 0 0 .184.169z"/><path fill="#d67b72" d="M60.53 56.584s.627.147.636.293c.008.147-.276.497-.45.53-.174.032-.762-.297-.762-.297l.575-.526z"/><path fill="#d67b72" d="M60.301 56.884s.59.12.647.348c.039.16-.822.807-1.424.636-.366-.102-.517-.291-.517-.291l1.294-.693z"/><path fill="#e59585" d="M57.232 52.149c.204.11 1.834 1.375.368 3.41-.362.504 1.73 1.065 1.73 1.065s.535-.24 1.052-.054c.694.247-1.488 1.078-1.488 1.078s.123.298.044.318c-.078.018-.359-.393-.396-.483-.162-.103-1.36-.377-1.956-.788-.604-.416-2.958-1.706-2.249-3.435.823-2.004 2.455-1.352 2.895-1.111z"/><path fill="#d67b72" d="M40.275 56.616s-.49.102-.538.008c-.048-.094-.062-.39.043-.46.106-.073.519-.053.519-.053l-.024.505z"/><path fill="#d67b72" d="M40.26 56.37s-.47.083-.573-.052c-.072-.095.23-.77.676-.834.272-.038.425.044.425.044l-.528.841z"/><path fill="#e59585" d="M46.912 53.555c-.552 3.417-4.027 2.013-4.525 2.433-.83.7-2.112.628-2.112.628-.308-.011.475-1.094.475-1.094l.316.096s-.314-.176-.268-.212c.083-.063.257.026.477.135.696-.123.674-.968.969-1.039 1.147-.276.977-.758.977-.758-1.619-1.971 1.085-2.558 1.085-2.558s3.22-1.427 2.606 2.369z"/><path fill="#e59585" d="M43.43 51.514s-.547-1.074-1.467-1.046c-.921.028-.918.868-.395 1.126.513.252.81-.609.81-.609s.039.985-.825.856c-.918-.136-.927-1.695.466-1.693.992.002 1.727.941 1.727.941l-.316.425z"/><path fill="#f7a996" d="M55.219 52.232s-1.638.265-3.404-.718c-3.241-1.807-5.625-2.457-8.186-.768-3.434 2.264-4.118 9.394 2.922 10.871 10.321 2.167 14.462-8.593 14.462-8.593l-5.794-.792z"/><path fill="#e59585" d="M52.194 61.509c-.641-2.682.4-3.541.4-3.541l1.742 2.693c-.66.345-1.373.635-2.142.848zM46.551 61.618a9.05 9.05 0 0 1-2.177-.79l.55-1.005c.751 1.137 1.898 1.709 2.525 1.952a8.112 8.112 0 0 1-.898-.157z"/><path fill="#d67b72" d="M38.807 62.198s-.566.118-.623.008c-.054-.108-.072-.449.05-.532s.6-.06.6-.06l-.027.584z"/><path fill="#d67b72" d="M38.79 61.912s-.544.097-.663-.06c-.083-.108.265-.89.782-.962.313-.044.492.05.492.05l-.612.972z"/><path fill="#f7a996" d="M46.652 58.615c-.484 3.85-4.828 2.371-5.405 2.857-.958.81-2.44.726-2.44.726-.355-.014.549-1.265.549-1.265l.364.113s-.362-.205-.308-.246c.095-.073.297.03.55.156.804-.142.78-1.119 1.12-1.2 1.328-.32 1.13-.877 1.13-.877-1.871-2.277-.48-4.818-.48-4.818s5.472.146 4.92 4.554z"/><path fill="#e59585" d="M55.676 59.842c-2.453-1.39-5.222-4.36-5.61-9.22.556.252 1.138.55 1.75.892 1.765.984 3.403.719 3.403.719l5.793.792s-1.613 4.193-5.336 6.817z"/><path fill="#d67b72" d="M58.969 60.418s.642-.066.698.07c.055.136-.1.56-.253.647-.154.087-.818-.033-.818-.033l.373-.684z"/><path fill="#d67b72" d="M58.85 60.776s.599-.08.726.119c.089.138-.514 1.029-1.14 1.065-.38.022-.582-.108-.582-.108l.997-1.076z"/><path fill="#f7a996" d="M54.552 57.263c.229.038 2.182.703 1.458 3.105-.178.594 1.982.443 1.982.443s.429-.399.978-.393c.736.008-1.056 1.503-1.056 1.503s.213.242.144.287c-.067.042-.466-.254-.531-.328-.186-.045-1.41.087-2.106-.109-.707-.196-3.352-.65-3.244-2.515.125-2.163 1.88-2.078 2.375-1.993zM60.488 45.27s-.003-1.102.857-1.78c.564-.445 1.397-1.016 1.855-1.694 1.24-1.837 2.454.959 2.067 3.39-.269 1.688-1.187 3.718-2.647 3.164-1.235-.468-2.132-3.08-2.132-3.08z"/><path fill="url(#e)" d="M60.929 46.316c-.28-.576-.441-1.046-.441-1.046s-.001-.478.244-.998c.778.245 1.589.898 1.589.898l-1.392 1.146z"/><path fill="#e59585" d="M60.929 46.316c-.28-.576-.441-1.046-.441-1.046s-.001-.478.244-.998c.778.245 1.589.898 1.589.898l-1.392 1.146z"/><path fill="#d67b72" d="M62.035 47.062s-.639-1.44.146-2.459c.923-1.199 1.331-2.797 1.9-2.97.691-.21.99 1.31 1.086 1.914.147.9-.1 2.662-.654 3.643-.393.697-.766 1.191-1.82 1.102-1.057-.089-.658-1.23-.658-1.23z"/><path fill="#f7a996" d="M54.972 45.48s-.082-1.097-.99-1.708c-.596-.401-1.47-.907-1.979-1.55-1.376-1.737-2.374 1.143-1.802 3.538.396 1.663 1.466 3.617 2.88 2.955 1.196-.561 1.891-3.234 1.891-3.234z"/><path fill="#e59585" d="M54.42 47.086c.234-.596.552-1.604.552-1.604s-.035-.477-.319-.977c-.756.303-1.516 1.015-1.516 1.015l1.282 1.566z"/><path fill="#d67b72" d="M53.566 47.385s.528-1.485-.333-2.44c-1.012-1.126-1.54-2.689-2.118-2.819-.707-.157-.888 1.382-.94 1.993-.075.907.304 2.646.93 3.581.445.665.856 1.13 1.9.961 1.047-.169.56-1.276.56-1.276z"/><path fill="#f7a996" d="M61.136 45.067s-1.68-.988-3.355-.868c-1.168.083-2.535.295-3.697 1.42-1.582 1.53-1.956 4.053-1.976 5.345-.051 3.412 2.227 5.573 5.763 5.49 3.484-.08 6.292-2.358 6.058-5.759-.132-1.939-.758-4.44-2.793-5.628z"/><path fill="#d67b72" d="M60.028 53.051s-.8-1.793-2.035-1.746c-.745.03-1.559.81-1.964 1.985-.465 1.353 1.3 1.767 2.105 1.706.731-.058 2.445-.3 1.894-1.945z"/><path fill="#fff" d="M57.192 53.818a.417.417 0 1 1-.031-.832.417.417 0 0 1 .03.832z" opacity=".4"/><ellipse cx="58.912" cy="53.336" rx=".416" ry=".416" fill="#fff" opacity=".4"/><path fill="#f7a996" d="M58.4 44.387s.083-.741-.714-.803c0 0 .64.345.547.773l.167.03z"/><path fill="#f7a996" d="M58.209 44.293s-.158-.29-.456-.333c0 0 .377.207.384.39l.072-.057z"/><ellipse cx="60.769" cy="50.689" rx=".457" ry=".635" fill="#304454" transform="rotate(178.441 60.769 50.689)"/><ellipse cx="55.319" cy="50.556" rx=".457" ry=".635" fill="#304454" transform="rotate(178.441 55.32 50.556)"/><ellipse cx="57.367" cy="53.361" rx=".176" ry=".176" fill="#304454"/><path fill="#304454" d="M58.728 53.486a.176.176 0 1 0-.014-.351.177.177 0 0 0-.17.182.177.177 0 0 0 .184.169z"/><path fill="#d67b72" d="M91.838 56.584s.628.147.637.293c.008.147-.276.497-.45.53-.174.032-.762-.297-.762-.297l.575-.526z"/><path fill="#d67b72" d="M91.61 56.884s.59.12.647.348c.039.16-.822.807-1.424.636-.366-.102-.517-.291-.517-.291l1.294-.693z"/><path fill="#e59585" d="M88.541 52.149c.204.11 1.834 1.375.368 3.41-.362.504 1.73 1.065 1.73 1.065s.535-.24 1.052-.054c.694.247-1.488 1.078-1.488 1.078s.123.298.044.318c-.078.018-.359-.393-.396-.483-.162-.103-1.361-.377-1.956-.788-.604-.416-2.958-1.706-2.249-3.435.823-2.004 2.455-1.352 2.895-1.111z"/><path fill="#d67b72" d="M71.584 56.616s-.49.102-.538.008c-.048-.094-.062-.39.043-.46.106-.073.519-.053.519-.053l-.024.505z"/><path fill="#d67b72" d="M71.569 56.37s-.47.083-.573-.052c-.072-.095.229-.77.676-.834.272-.038.425.044.425.044l-.528.841z"/><path fill="#e59585" d="M78.22 53.555c-.551 3.417-4.026 2.013-4.524 2.433-.83.7-2.112.628-2.112.628-.308-.011.475-1.094.475-1.094l.316.096s-.314-.176-.268-.212c.083-.063.257.026.477.135.696-.123.674-.968.969-1.039 1.147-.276.977-.758.977-.758-1.62-1.971 1.085-2.558 1.085-2.558s3.22-1.427 2.606 2.369z"/><path fill="#e59585" d="M74.739 51.514s-.547-1.074-1.467-1.046c-.921.028-.918.868-.395 1.126.513.252.81-.609.81-.609s.039.985-.825.856c-.918-.136-.927-1.695.466-1.693.992.002 1.727.941 1.727.941l-.316.425z"/><path fill="#f7a996" d="M86.528 52.232s-1.638.265-3.404-.718c-3.241-1.807-5.625-2.457-8.186-.768-3.434 2.264-4.118 9.394 2.922 10.871 10.32 2.167 14.462-8.593 14.462-8.593l-5.794-.792z"/><path fill="#e59585" d="M83.503 61.509c-.641-2.682.4-3.541.4-3.541l1.742 2.693c-.66.345-1.373.635-2.142.848zM77.86 61.618a9.05 9.05 0 0 1-2.177-.79l.55-1.005c.751 1.137 1.898 1.709 2.525 1.952a8.112 8.112 0 0 1-.898-.157z"/><path fill="#d67b72" d="M70.116 62.198s-.566.118-.623.008c-.054-.108-.072-.449.05-.532s.6-.06.6-.06l-.027.584z"/><path fill="#d67b72" d="M70.098 61.912s-.543.097-.662-.06c-.083-.108.265-.89.782-.962.313-.044.491.05.491.05l-.61.972z"/><path fill="#f7a996" d="M77.96 58.615c-.483 3.85-4.828 2.371-5.404 2.857-.959.81-2.44.726-2.44.726-.356-.014.549-1.265.549-1.265l.363.113s-.362-.205-.308-.246c.096-.073.297.03.55.156.805-.142.78-1.119 1.121-1.2 1.328-.32 1.13-.877 1.13-.877-1.871-2.277-.48-4.818-.48-4.818s5.472.146 4.92 4.554z"/><path fill="#e59585" d="M86.985 59.842c-2.453-1.39-5.222-4.36-5.61-9.22.556.252 1.138.55 1.75.892 1.765.984 3.403.719 3.403.719l5.793.792s-1.613 4.193-5.336 6.817z"/><path fill="#d67b72" d="M90.278 60.418s.642-.066.698.07c.055.136-.1.56-.253.647-.154.087-.818-.033-.818-.033l.373-.684z"/><path fill="#d67b72" d="M90.16 60.776s.598-.08.725.119c.089.138-.514 1.029-1.14 1.065-.38.022-.582-.108-.582-.108l.997-1.076z"/><path fill="#f7a996" d="M85.86 57.263c.23.038 2.183.703 1.459 3.105-.178.594 1.982.443 1.982.443s.429-.399.978-.393c.736.008-1.056 1.503-1.056 1.503s.213.242.144.287c-.067.042-.466-.254-.531-.328-.186-.045-1.41.087-2.106-.109-.707-.196-3.352-.65-3.244-2.515.125-2.163 1.88-2.078 2.375-1.993zM91.797 45.27s-.003-1.102.857-1.78c.564-.445 1.397-1.016 1.855-1.694 1.24-1.837 2.454.959 2.067 3.39-.269 1.688-1.187 3.718-2.647 3.164-1.235-.468-2.132-3.08-2.132-3.08z"/><path fill="url(#f)" d="M92.238 46.316c-.28-.576-.441-1.046-.441-1.046s-.001-.478.244-.998c.778.245 1.589.898 1.589.898l-1.392 1.146z"/><path fill="#e59585" d="M92.238 46.316c-.28-.576-.441-1.046-.441-1.046s-.001-.478.244-.998c.778.245 1.589.898 1.589.898l-1.392 1.146z"/><path fill="#d67b72" d="M93.344 47.062s-.639-1.44.146-2.459c.923-1.199 1.331-2.797 1.899-2.97.692-.21.99 1.31 1.087 1.914.147.9-.1 2.662-.654 3.643-.393.697-.766 1.191-1.821 1.102-1.056-.089-.657-1.23-.657-1.23z"/><path fill="#f7a996" d="M86.281 45.48s-.082-1.097-.99-1.708c-.596-.401-1.47-.907-1.979-1.55-1.376-1.737-2.374 1.143-1.802 3.538.396 1.663 1.466 3.617 2.88 2.955 1.196-.561 1.891-3.234 1.891-3.234z"/><path fill="#e59585" d="M85.728 47.086c.235-.596.553-1.604.553-1.604s-.035-.477-.319-.977c-.756.303-1.516 1.015-1.516 1.015l1.282 1.566z"/><path fill="#d67b72" d="M84.874 47.385s.529-1.485-.332-2.44c-1.013-1.126-1.54-2.689-2.118-2.819-.708-.157-.889 1.382-.94 1.993-.075.907.303 2.646.93 3.581.445.665.855 1.13 1.9.961 1.047-.169.56-1.276.56-1.276z"/><path fill="#f7a996" d="M92.445 45.067s-1.68-.988-3.355-.868c-1.169.083-2.535.295-3.698 1.42-1.581 1.53-1.956 4.053-1.975 5.345-.052 3.412 2.227 5.573 5.763 5.49 3.483-.08 6.291-2.358 6.057-5.759-.131-1.939-.757-4.44-2.792-5.628z"/><path fill="#d67b72" d="M91.337 53.051s-.8-1.793-2.035-1.746c-.745.03-1.559.81-1.964 1.985-.465 1.353 1.3 1.767 2.105 1.706.731-.058 2.445-.3 1.894-1.945z"/><path fill="#fff" d="M88.5 53.818a.417.417 0 1 1-.03-.832.417.417 0 0 1 .03.832z" opacity=".4"/><ellipse cx="90.22" cy="53.336" rx=".416" ry=".416" fill="#fff" opacity=".4"/><path fill="#f7a996" d="M89.709 44.387s.083-.741-.714-.803c0 0 .64.345.547.773l.167.03z"/><path fill="#f7a996" d="M89.518 44.293s-.158-.29-.456-.333c0 0 .377.207.384.39l.072-.057z"/><ellipse cx="92.078" cy="50.689" rx=".457" ry=".635" fill="#304454" transform="rotate(178.441 92.078 50.689)"/><ellipse cx="86.628" cy="50.556" rx=".457" ry=".635" fill="#304454" transform="rotate(178.441 86.628 50.556)"/><ellipse cx="88.676" cy="53.361" rx=".176" ry=".176" fill="#304454"/><path fill="#304454" d="M90.037 53.486a.176.176 0 1 0-.014-.351.177.177 0 0 0-.17.182.177.177 0 0 0 .184.169z"/><path fill="#d67b72" d="M29.22 87.893s.628.147.637.293c.008.147-.276.497-.45.53-.174.032-.762-.297-.762-.297l.575-.526z"/><path fill="#d67b72" d="M28.992 88.192s.59.12.647.349c.04.16-.822.806-1.424.636-.366-.103-.517-.292-.517-.292l1.294-.693z"/><path fill="#e59585" d="M25.923 83.457c.204.112 1.834 1.376.368 3.41-.362.504 1.73 1.066 1.73 1.066s.535-.24 1.052-.055c.694.248-1.488 1.079-1.488 1.079s.123.297.044.318c-.078.017-.359-.394-.396-.484-.162-.102-1.36-.376-1.956-.787-.604-.416-2.958-1.707-2.249-3.436.823-2.004 2.455-1.352 2.895-1.11z"/><path fill="#d67b72" d="M8.966 87.925s-.49.102-.538.008c-.048-.094-.062-.39.043-.46.106-.073.519-.053.519-.053l-.024.505z"/><path fill="#d67b72" d="M8.951 87.678s-.47.084-.573-.05c-.072-.096.23-.772.676-.835.272-.038.425.044.425.044l-.528.841z"/><path fill="#e59585" d="M15.603 84.864c-.552 3.417-4.027 2.013-4.525 2.433-.83.7-2.112.628-2.112.628-.308-.011.475-1.094.475-1.094l.316.096s-.314-.176-.268-.212c.083-.063.257.026.477.135.696-.123.674-.968.97-1.04 1.146-.275.976-.757.976-.757-1.619-1.971 1.085-2.558 1.085-2.558s3.22-1.427 2.606 2.369z"/><path fill="#e59585" d="M12.12 82.823s-.546-1.074-1.466-1.046c-.921.028-.918.868-.395 1.126.513.252.81-.609.81-.609s.039.985-.825.856c-.918-.136-.927-1.695.466-1.693.992.002 1.727.941 1.727.941l-.316.425z"/><path fill="#f7a996" d="M23.91 83.541s-1.638.265-3.404-.718c-3.24-1.807-5.625-2.457-8.186-.768-3.434 2.264-4.118 9.394 2.922 10.871 10.321 2.167 14.462-8.593 14.462-8.593l-5.794-.792z"/><path fill="#e59585" d="M20.885 92.818c-.641-2.682.4-3.541.4-3.541l1.742 2.693c-.66.345-1.373.635-2.142.848zM15.242 92.927a9.05 9.05 0 0 1-2.177-.79l.55-1.005c.751 1.137 1.898 1.709 2.525 1.952a8.112 8.112 0 0 1-.898-.157z"/><path fill="#d67b72" d="M7.498 93.507s-.566.118-.623.008c-.054-.108-.072-.449.05-.532s.6-.06.6-.06l-.027.584z"/><path fill="#d67b72" d="M7.48 93.221s-.542.097-.661-.06c-.083-.108.265-.89.782-.962.313-.044.49.05.49.05l-.61.972z"/><path fill="#f7a996" d="M15.343 89.924c-.484 3.85-4.828 2.371-5.405 2.857-.958.81-2.44.726-2.44.726-.355-.014.549-1.265.549-1.265l.364.113s-.362-.205-.308-.246c.095-.073.297.03.55.156.804-.142.78-1.119 1.12-1.2 1.328-.32 1.13-.877 1.13-.877-1.871-2.277-.48-4.818-.48-4.818s5.472.146 4.92 4.554z"/><path fill="#e59585" d="M24.367 91.15c-2.453-1.39-5.222-4.359-5.61-9.219.556.252 1.138.55 1.75.892 1.765.984 3.403.719 3.403.719l5.793.791c0 .002-1.613 4.194-5.336 6.817z"/><path fill="#d67b72" d="M27.66 91.727s.642-.066.698.07c.055.136-.099.56-.253.647s-.818-.033-.818-.033l.373-.684z"/><path fill="#d67b72" d="M27.542 92.085s.598-.08.725.119c.089.138-.514 1.029-1.139 1.065-.38.022-.583-.108-.583-.108l.997-1.076z"/><path fill="#f7a996" d="M23.243 88.572c.229.038 2.182.703 1.458 3.105-.178.594 1.982.443 1.982.443s.429-.399.978-.393c.736.008-1.056 1.503-1.056 1.503s.213.242.144.287c-.067.042-.466-.254-.531-.328-.186-.045-1.41.087-2.106-.109-.707-.196-3.352-.65-3.244-2.515.125-2.163 1.88-2.078 2.375-1.993zM29.18 76.58s-.004-1.103.856-1.78c.564-.446 1.397-1.017 1.855-1.695 1.24-1.838 2.454.958 2.067 3.39-.269 1.688-1.187 3.717-2.647 3.164-1.235-.468-2.132-3.08-2.132-3.08z"/><path fill="url(#g)" d="M29.62 77.625c-.28-.576-.441-1.046-.441-1.046s-.001-.478.244-.998c.778.245 1.589.897 1.589.897l-1.392 1.147z"/><path fill="#e59585" d="M29.62 77.625c-.28-.576-.441-1.046-.441-1.046s-.001-.478.244-.998c.778.245 1.589.897 1.589.897l-1.392 1.147z"/><path fill="#d67b72" d="M30.726 78.371s-.639-1.44.146-2.459c.923-1.199 1.331-2.797 1.9-2.97.691-.21.99 1.31 1.086 1.914.147.9-.1 2.662-.654 3.643-.393.697-.766 1.191-1.82 1.102-1.057-.089-.658-1.23-.658-1.23z"/><path fill="#f7a996" d="M23.663 76.79s-.082-1.098-.99-1.71c-.595-.4-1.47-.906-1.978-1.548-1.377-1.738-2.375 1.142-1.803 3.537.396 1.663 1.466 3.617 2.88 2.955 1.197-.561 1.892-3.234 1.892-3.234z"/><path fill="#e59585" d="M23.11 78.394c.235-.596.553-1.604.553-1.604s-.035-.477-.319-.977c-.756.303-1.516 1.016-1.516 1.016l1.282 1.566z"/><path fill="#d67b72" d="M22.257 78.694s.528-1.485-.333-2.44c-1.012-1.126-1.54-2.689-2.118-2.819-.707-.157-.888 1.382-.94 1.993-.075.907.304 2.646.93 3.581.445.665.856 1.13 1.9.961 1.047-.169.56-1.276.56-1.276z"/><path fill="#f7a996" d="M29.827 76.376s-1.68-.988-3.355-.868c-1.168.083-2.535.295-3.697 1.42-1.582 1.53-1.956 4.053-1.976 5.345-.051 3.412 2.227 5.573 5.763 5.49 3.484-.08 6.292-2.358 6.058-5.759-.132-1.939-.758-4.44-2.793-5.628z"/><path fill="#d67b72" d="M28.72 84.36s-.802-1.793-2.036-1.746c-.745.03-1.559.81-1.964 1.985-.465 1.353 1.3 1.767 2.105 1.706.731-.058 2.445-.3 1.894-1.945z"/><path fill="#fff" d="M25.883 85.127a.417.417 0 1 1-.031-.833.417.417 0 0 1 .031.833z" opacity=".4"/><ellipse cx="27.603" cy="84.645" rx=".416" ry=".416" fill="#fff" opacity=".4"/><path fill="#f7a996" d="M27.091 75.695s.083-.74-.714-.802c0 0 .64.344.547.772l.167.03z"/><path fill="#f7a996" d="M26.9 75.602s-.158-.29-.456-.333c0 0 .377.207.384.39l.072-.057z"/><ellipse cx="29.46" cy="81.998" rx=".457" ry=".635" fill="#304454" transform="rotate(178.441 29.46 81.998)"/><ellipse cx="24.011" cy="81.865" rx=".457" ry=".635" fill="#304454" transform="rotate(178.441 24.01 81.865)"/><ellipse cx="26.058" cy="84.67" rx=".176" ry=".176" fill="#304454"/><path fill="#304454" d="M27.42 84.794a.176.176 0 1 0-.015-.35.177.177 0 0 0-.17.181.177.177 0 0 0 .184.17z"/><path fill="#d67b72" d="M60.53 87.893s.627.147.636.293c.008.147-.276.497-.45.53-.174.032-.762-.297-.762-.297l.575-.526z"/><path fill="#d67b72" d="M60.301 88.192s.59.12.647.349c.039.16-.822.806-1.424.636-.366-.103-.517-.292-.517-.292l1.294-.693z"/><path fill="#e59585" d="M57.232 83.457c.204.112 1.834 1.376.368 3.41-.362.504 1.73 1.066 1.73 1.066s.535-.24 1.052-.055c.694.248-1.488 1.079-1.488 1.079s.123.297.044.318c-.078.017-.359-.394-.396-.484-.162-.102-1.36-.376-1.956-.787-.604-.416-2.958-1.707-2.249-3.436.823-2.004 2.455-1.352 2.895-1.11z"/><path fill="#d67b72" d="M40.275 87.925s-.49.102-.538.008c-.048-.094-.062-.39.043-.46.106-.073.519-.053.519-.053l-.024.505z"/><path fill="#d67b72" d="M40.26 87.678s-.47.084-.573-.05c-.072-.096.23-.772.676-.835.272-.038.425.044.425.044l-.528.841z"/><path fill="#e59585" d="M46.912 84.864c-.552 3.417-4.027 2.013-4.525 2.433-.83.7-2.112.628-2.112.628-.308-.011.475-1.094.475-1.094l.316.096s-.314-.176-.268-.212c.083-.063.257.026.477.135.696-.123.674-.968.969-1.04 1.147-.275.977-.757.977-.757-1.619-1.971 1.085-2.558 1.085-2.558s3.22-1.427 2.606 2.369z"/><path fill="#e59585" d="M43.43 82.823s-.547-1.074-1.467-1.046c-.921.028-.918.868-.395 1.126.513.252.81-.609.81-.609s.039.985-.825.856c-.918-.136-.927-1.695.466-1.693.992.002 1.727.941 1.727.941l-.316.425z"/><path fill="#f7a996" d="M55.219 83.541s-1.638.265-3.404-.718c-3.241-1.807-5.625-2.457-8.186-.768-3.434 2.264-4.118 9.394 2.922 10.871 10.321 2.167 14.462-8.593 14.462-8.593l-5.794-.792z"/><path fill="#e59585" d="M52.194 92.818c-.641-2.682.4-3.541.4-3.541l1.742 2.693c-.66.345-1.373.635-2.142.848zM46.551 92.927a9.05 9.05 0 0 1-2.177-.79l.55-1.005c.751 1.137 1.898 1.709 2.525 1.952a8.112 8.112 0 0 1-.898-.157z"/><path fill="#d67b72" d="M38.807 93.507s-.566.118-.623.008c-.054-.108-.072-.449.05-.532s.6-.06.6-.06l-.027.584z"/><path fill="#d67b72" d="M38.79 93.221s-.544.097-.663-.06c-.083-.108.265-.89.782-.962.313-.044.492.05.492.05l-.612.972z"/><path fill="#f7a996" d="M46.652 89.924c-.484 3.85-4.828 2.371-5.405 2.857-.958.81-2.44.726-2.44.726-.355-.014.549-1.265.549-1.265l.364.113s-.362-.205-.308-.246c.095-.073.297.03.55.156.804-.142.78-1.119 1.12-1.2 1.328-.32 1.13-.877 1.13-.877-1.871-2.277-.48-4.818-.48-4.818s5.472.146 4.92 4.554z"/><path fill="#e59585" d="M55.676 91.15c-2.453-1.39-5.222-4.359-5.61-9.219.556.252 1.138.55 1.75.892 1.765.984 3.403.719 3.403.719l5.793.791c0 .002-1.613 4.194-5.336 6.817z"/><path fill="#d67b72" d="M58.969 91.727s.642-.066.698.07c.055.136-.1.56-.253.647s-.818-.033-.818-.033l.373-.684z"/><path fill="#d67b72" d="M58.85 92.085s.599-.08.726.119c.089.138-.514 1.029-1.14 1.065-.38.022-.582-.108-.582-.108l.997-1.076z"/><path fill="#f7a996" d="M54.552 88.572c.229.038 2.182.703 1.458 3.105-.178.594 1.982.443 1.982.443s.429-.399.978-.393c.736.008-1.056 1.503-1.056 1.503s.213.242.144.287c-.067.042-.466-.254-.531-.328-.186-.045-1.41.087-2.106-.109-.707-.196-3.352-.65-3.244-2.515.125-2.163 1.88-2.078 2.375-1.993zM60.488 76.58s-.003-1.103.857-1.78c.564-.446 1.397-1.017 1.855-1.695 1.24-1.838 2.454.958 2.067 3.39-.269 1.688-1.187 3.717-2.647 3.164-1.235-.468-2.132-3.08-2.132-3.08z"/><path fill="url(#h)" d="M60.929 77.625c-.28-.576-.441-1.046-.441-1.046s-.001-.478.244-.998c.778.245 1.589.897 1.589.897l-1.392 1.147z"/><path fill="#e59585" d="M60.929 77.625c-.28-.576-.441-1.046-.441-1.046s-.001-.478.244-.998c.778.245 1.589.897 1.589.897l-1.392 1.147z"/><path fill="#d67b72" d="M62.035 78.371s-.639-1.44.146-2.459c.923-1.199 1.331-2.797 1.9-2.97.691-.21.99 1.31 1.086 1.914.147.9-.1 2.662-.654 3.643-.393.697-.766 1.191-1.82 1.102-1.057-.089-.658-1.23-.658-1.23z"/><path fill="#f7a996" d="M54.972 76.79s-.082-1.098-.99-1.71c-.596-.4-1.47-.906-1.979-1.548-1.376-1.738-2.374 1.142-1.802 3.537.396 1.663 1.466 3.617 2.88 2.955 1.196-.561 1.891-3.234 1.891-3.234z"/><path fill="#e59585" d="M54.42 78.394c.234-.596.552-1.604.552-1.604s-.035-.477-.319-.977c-.756.303-1.516 1.016-1.516 1.016l1.282 1.566z"/><path fill="#d67b72" d="M53.566 78.694s.528-1.485-.333-2.44c-1.012-1.126-1.54-2.689-2.118-2.819-.707-.157-.888 1.382-.94 1.993-.075.907.304 2.646.93 3.581.445.665.856 1.13 1.9.961 1.047-.169.56-1.276.56-1.276z"/><path fill="#f7a996" d="M61.136 76.376s-1.68-.988-3.355-.868c-1.168.083-2.535.295-3.697 1.42-1.582 1.53-1.956 4.053-1.976 5.345-.051 3.412 2.227 5.573 5.763 5.49 3.484-.08 6.292-2.358 6.058-5.759-.132-1.939-.758-4.44-2.793-5.628z"/><path fill="#d67b72" d="M60.028 84.36s-.8-1.793-2.035-1.746c-.745.03-1.559.81-1.964 1.985-.465 1.353 1.3 1.767 2.105 1.706.731-.058 2.445-.3 1.894-1.945z"/><path fill="#fff" d="M57.192 85.127a.417.417 0 1 1-.031-.833.417.417 0 0 1 .03.833z" opacity=".4"/><ellipse cx="58.912" cy="84.645" rx=".416" ry=".416" fill="#fff" opacity=".4"/><path fill="#f7a996" d="M58.4 75.695s.083-.74-.714-.802c0 0 .64.344.547.772l.167.03z"/><path fill="#f7a996" d="M58.209 75.602s-.158-.29-.456-.333c0 0 .377.207.384.39l.072-.057z"/><ellipse cx="60.769" cy="81.998" rx=".457" ry=".635" fill="#304454" transform="rotate(178.441 60.769 81.998)"/><ellipse cx="55.319" cy="81.865" rx=".457" ry=".635" fill="#304454" transform="rotate(178.441 55.32 81.865)"/><ellipse cx="57.367" cy="84.67" rx=".176" ry=".176" fill="#304454"/><path fill="#304454" d="M58.728 84.794a.176.176 0 1 0-.014-.35.177.177 0 0 0-.17.181.177.177 0 0 0 .184.17z"/><path fill="#d67b72" d="M91.838 87.893s.628.147.637.293c.008.147-.276.497-.45.53-.174.032-.762-.297-.762-.297l.575-.526z"/><path fill="#d67b72" d="M91.61 88.192s.59.12.647.349c.039.16-.822.806-1.424.636-.366-.103-.517-.292-.517-.292l1.294-.693z"/><path fill="#e59585" d="M88.541 83.457c.204.112 1.834 1.376.368 3.41-.362.504 1.73 1.066 1.73 1.066s.535-.24 1.052-.055c.694.248-1.488 1.079-1.488 1.079s.123.297.044.318c-.078.017-.359-.394-.396-.484-.162-.102-1.361-.376-1.956-.787-.604-.416-2.958-1.707-2.249-3.436.823-2.004 2.455-1.352 2.895-1.11z"/><path fill="#d67b72" d="M71.584 87.925s-.49.102-.538.008c-.048-.094-.062-.39.043-.46.106-.073.519-.053.519-.053l-.024.505z"/><path fill="#d67b72" d="M71.569 87.678s-.47.084-.573-.05c-.072-.096.229-.772.676-.835.272-.038.425.044.425.044l-.528.841z"/><path fill="#e59585" d="M78.22 84.864c-.551 3.417-4.026 2.013-4.524 2.433-.83.7-2.112.628-2.112.628-.308-.011.475-1.094.475-1.094l.316.096s-.314-.176-.268-.212c.083-.063.257.026.477.135.696-.123.674-.968.969-1.04 1.147-.275.977-.757.977-.757-1.62-1.971 1.085-2.558 1.085-2.558s3.22-1.427 2.606 2.369z"/><path fill="#e59585" d="M74.739 82.823s-.547-1.074-1.467-1.046c-.921.028-.918.868-.395 1.126.513.252.81-.609.81-.609s.039.985-.825.856c-.918-.136-.927-1.695.466-1.693.992.002 1.727.941 1.727.941l-.316.425z"/><path fill="#f7a996" d="M86.528 83.541s-1.638.265-3.404-.718c-3.241-1.807-5.625-2.457-8.186-.768-3.434 2.264-4.118 9.394 2.922 10.871 10.32 2.167 14.462-8.593 14.462-8.593l-5.794-.792z"/><path fill="#e59585" d="M83.503 92.818c-.641-2.682.4-3.541.4-3.541l1.742 2.693c-.66.345-1.373.635-2.142.848zM77.86 92.927a9.05 9.05 0 0 1-2.177-.79l.55-1.005c.751 1.137 1.898 1.709 2.525 1.952a8.112 8.112 0 0 1-.898-.157z"/><path fill="#d67b72" d="M70.116 93.507s-.566.118-.623.008c-.054-.108-.072-.449.05-.532s.6-.06.6-.06l-.027.584z"/><path fill="#d67b72" d="M70.098 93.221s-.543.097-.662-.06c-.083-.108.265-.89.782-.962.313-.044.491.05.491.05l-.61.972z"/><path fill="#f7a996" d="M77.96 89.924c-.483 3.85-4.828 2.371-5.404 2.857-.959.81-2.44.726-2.44.726-.356-.014.549-1.265.549-1.265l.363.113s-.362-.205-.308-.246c.096-.073.297.03.55.156.805-.142.78-1.119 1.121-1.2 1.328-.32 1.13-.877 1.13-.877-1.871-2.277-.48-4.818-.48-4.818s5.472.146 4.92 4.554z"/><path fill="#e59585" d="M86.985 91.15c-2.453-1.39-5.222-4.359-5.61-9.219.556.252 1.138.55 1.75.892 1.765.984 3.403.719 3.403.719l5.793.791c0 .002-1.613 4.194-5.336 6.817z"/><path fill="#d67b72" d="M90.278 91.727s.642-.066.698.07c.055.136-.1.56-.253.647s-.818-.033-.818-.033l.373-.684z"/><path fill="#d67b72" d="M90.16 92.085s.598-.08.725.119c.089.138-.514 1.029-1.14 1.065-.38.022-.582-.108-.582-.108l.997-1.076z"/><path fill="#f7a996" d="M85.86 88.572c.23.038 2.183.703 1.459 3.105-.178.594 1.982.443 1.982.443s.429-.399.978-.393c.736.008-1.056 1.503-1.056 1.503s.213.242.144.287c-.067.042-.466-.254-.531-.328-.186-.045-1.41.087-2.106-.109-.707-.196-3.352-.65-3.244-2.515.125-2.163 1.88-2.078 2.375-1.993zM91.797 76.58s-.003-1.103.857-1.78c.564-.446 1.397-1.017 1.855-1.695 1.24-1.838 2.454.958 2.067 3.39-.269 1.688-1.187 3.717-2.647 3.164-1.235-.468-2.132-3.08-2.132-3.08z"/><path fill="url(#i)" d="M92.238 77.625c-.28-.576-.441-1.046-.441-1.046s-.001-.478.244-.998c.778.245 1.589.897 1.589.897l-1.392 1.147z"/><path fill="#e59585" d="M92.238 77.625c-.28-.576-.441-1.046-.441-1.046s-.001-.478.244-.998c.778.245 1.589.897 1.589.897l-1.392 1.147z"/><path fill="#d67b72" d="M93.344 78.371s-.639-1.44.146-2.459c.923-1.199 1.331-2.797 1.899-2.97.692-.21.99 1.31 1.087 1.914.147.9-.1 2.662-.654 3.643-.393.697-.766 1.191-1.821 1.102-1.056-.089-.657-1.23-.657-1.23z"/><path fill="#f7a996" d="M86.281 76.79s-.082-1.098-.99-1.71c-.596-.4-1.47-.906-1.979-1.548-1.376-1.738-2.374 1.142-1.802 3.537.396 1.663 1.466 3.617 2.88 2.955 1.196-.561 1.891-3.234 1.891-3.234z"/><path fill="#e59585" d="M85.728 78.394c.235-.596.553-1.604.553-1.604s-.035-.477-.319-.977c-.756.303-1.516 1.016-1.516 1.016l1.282 1.566z"/><path fill="#d67b72" d="M84.874 78.694s.529-1.485-.332-2.44c-1.013-1.126-1.54-2.689-2.118-2.819-.708-.157-.889 1.382-.94 1.993-.075.907.303 2.646.93 3.581.445.665.855 1.13 1.9.961 1.047-.169.56-1.276.56-1.276z"/><path fill="#f7a996" d="M92.445 76.376s-1.68-.988-3.355-.868c-1.169.083-2.535.295-3.698 1.42-1.581 1.53-1.956 4.053-1.975 5.345-.052 3.412 2.227 5.573 5.763 5.49 3.483-.08 6.291-2.358 6.057-5.759-.131-1.939-.757-4.44-2.792-5.628z"/><path fill="#d67b72" d="M91.337 84.36s-.8-1.793-2.035-1.746c-.745.03-1.559.81-1.964 1.985-.465 1.353 1.3 1.767 2.105 1.706.731-.058 2.445-.3 1.894-1.945z"/><path fill="#fff" d="M88.5 85.127a.417.417 0 1 1-.03-.833.417.417 0 0 1 .03.833z" opacity=".4"/><ellipse cx="90.22" cy="84.645" rx=".416" ry=".416" fill="#fff" opacity=".4"/><path fill="#f7a996" d="M89.709 75.695s.083-.74-.714-.802c0 0 .64.344.547.772l.167.03z"/><path fill="#f7a996" d="M89.518 75.602s-.158-.29-.456-.333c0 0 .377.207.384.39l.072-.057z"/><ellipse cx="92.078" cy="81.998" rx=".457" ry=".635" fill="#304454" transform="rotate(178.441 92.078 81.998)"/><ellipse cx="86.628" cy="81.865" rx=".457" ry=".635" fill="#304454" transform="rotate(178.441 86.628 81.865)"/><ellipse cx="88.676" cy="84.67" rx=".176" ry=".176" fill="#304454"/><path fill="#304454" d="M90.037 84.794a.176.176 0 1 0-.014-.35.177.177 0 0 0-.17.181.177.177 0 0 0 .184.17z"/><path fill="#d67b72" d="M29.22 119.202s.628.147.637.293c.008.147-.276.497-.45.53-.174.032-.762-.297-.762-.297l.575-.526z"/><path fill="#d67b72" d="M28.992 119.501s.59.12.647.348c.04.16-.822.807-1.424.636-.366-.102-.517-.291-.517-.291l1.294-.693z"/><path fill="#e59585" d="M25.923 114.766c.204.111 1.834 1.375.368 3.41-.362.504 1.73 1.065 1.73 1.065s.535-.239 1.052-.054c.694.247-1.488 1.078-1.488 1.078s.123.298.044.318c-.078.018-.359-.393-.396-.483-.162-.103-1.36-.377-1.956-.788-.604-.416-2.958-1.706-2.249-3.435.823-2.004 2.455-1.352 2.895-1.111z"/><path fill="#d67b72" d="M8.966 119.234s-.49.102-.538.008c-.048-.094-.062-.39.043-.461.106-.072.519-.052.519-.052l-.024.505z"/><path fill="#d67b72" d="M8.951 118.987s-.47.084-.573-.051c-.072-.095.23-.771.676-.834.272-.038.425.044.425.044l-.528.841z"/><path fill="#e59585" d="M15.603 116.173c-.552 3.417-4.027 2.013-4.525 2.433-.83.7-2.112.628-2.112.628-.308-.011.475-1.094.475-1.094l.316.096s-.314-.176-.268-.212c.083-.063.257.026.477.135.696-.123.674-.968.97-1.039 1.146-.276.976-.758.976-.758-1.619-1.971 1.085-2.558 1.085-2.558s3.22-1.427 2.606 2.369z"/><path fill="#e59585" d="M12.12 114.132s-.546-1.074-1.466-1.046c-.921.028-.918.868-.395 1.126.513.252.81-.609.81-.609s.039.985-.825.856c-.918-.136-.927-1.695.466-1.693.992.002 1.727.941 1.727.941l-.316.425z"/><path fill="#f7a996" d="M23.91 114.85s-1.638.265-3.404-.718c-3.24-1.807-5.625-2.457-8.186-.768-3.434 2.264-4.118 9.394 2.922 10.871 10.321 2.167 14.462-8.593 14.462-8.593l-5.794-.792z"/><path fill="#e59585" d="M20.885 124.126c-.641-2.682.4-3.541.4-3.541l1.742 2.693c-.66.345-1.373.635-2.142.848zM15.242 124.236a9.05 9.05 0 0 1-2.177-.789l.55-1.006c.751 1.137 1.898 1.709 2.525 1.952a8.112 8.112 0 0 1-.898-.157z"/><path fill="#d67b72" d="M7.498 124.816s-.566.118-.623.008c-.054-.108-.072-.449.05-.532s.6-.06.6-.06l-.027.584z"/><path fill="#d67b72" d="M7.48 124.53s-.542.097-.661-.06c-.083-.108.265-.89.782-.962.313-.044.49.05.49.05l-.61.972z"/><path fill="#f7a996" d="M15.343 121.233c-.484 3.85-4.828 2.371-5.405 2.857-.958.809-2.44.726-2.44.726-.355-.014.549-1.265.549-1.265l.364.113s-.362-.205-.308-.246c.095-.073.297.03.55.156.804-.142.78-1.119 1.12-1.201 1.328-.319 1.13-.876 1.13-.876-1.871-2.277-.48-4.818-.48-4.818s5.472.146 4.92 4.554z"/><path fill="#e59585" d="M24.367 122.459c-2.453-1.39-5.222-4.359-5.61-9.219.556.251 1.138.55 1.75.891 1.765.984 3.403.719 3.403.719l5.793.792c0 .001-1.613 4.193-5.336 6.817z"/><path fill="#d67b72" d="M27.66 123.036s.642-.066.698.07c.055.136-.099.56-.253.647s-.818-.033-.818-.033l.373-.684z"/><path fill="#d67b72" d="M27.542 123.394s.598-.079.725.119c.089.138-.514 1.029-1.139 1.065-.38.022-.583-.108-.583-.108l.997-1.076z"/><path fill="#f7a996" d="M23.243 119.881c.229.038 2.182.703 1.458 3.105-.178.594 1.982.443 1.982.443s.429-.399.978-.393c.736.008-1.056 1.503-1.056 1.503s.213.242.144.287c-.067.042-.466-.254-.531-.328-.186-.045-1.41.087-2.106-.109-.707-.196-3.352-.65-3.244-2.515.125-2.163 1.88-2.078 2.375-1.993zM29.18 107.888s-.004-1.102.856-1.78c.564-.445 1.397-1.016 1.855-1.694 1.24-1.838 2.454.958 2.067 3.39-.269 1.688-1.187 3.717-2.647 3.164-1.235-.468-2.132-3.08-2.132-3.08z"/><path fill="url(#j)" d="M29.62 108.934c-.28-.576-.441-1.046-.441-1.046s-.001-.478.244-.998c.778.245 1.589.897 1.589.897l-1.392 1.147z"/><path fill="#e59585" d="M29.62 108.934c-.28-.576-.441-1.046-.441-1.046s-.001-.478.244-.998c.778.245 1.589.897 1.589.897l-1.392 1.147z"/><path fill="#d67b72" d="M30.726 109.68s-.639-1.441.146-2.459c.923-1.199 1.331-2.797 1.9-2.97.691-.211.99 1.309 1.086 1.914.147.899-.1 2.662-.654 3.643-.393.697-.766 1.191-1.82 1.102-1.057-.089-.658-1.23-.658-1.23z"/><path fill="#f7a996" d="M23.663 108.099s-.082-1.098-.99-1.709c-.595-.401-1.47-.907-1.978-1.549-1.377-1.738-2.375 1.142-1.803 3.537.396 1.663 1.466 3.617 2.88 2.955 1.197-.561 1.892-3.234 1.892-3.234z"/><path fill="#e59585" d="M23.11 109.703c.235-.596.553-1.604.553-1.604s-.035-.477-.319-.977c-.756.303-1.516 1.015-1.516 1.015l1.282 1.566z"/><path fill="#d67b72" d="M22.257 110.003s.528-1.485-.333-2.441c-1.012-1.125-1.54-2.688-2.118-2.818-.707-.157-.888 1.382-.94 1.993-.075.907.304 2.646.93 3.581.445.665.856 1.13 1.9.961 1.047-.169.56-1.276.56-1.276z"/><path fill="#f7a996" d="M29.827 107.685s-1.68-.988-3.355-.868c-1.168.083-2.535.295-3.697 1.419-1.582 1.53-1.956 4.054-1.976 5.346-.051 3.412 2.227 5.573 5.763 5.49 3.484-.081 6.292-2.358 6.058-5.759-.132-1.939-.758-4.44-2.793-5.628z"/><path fill="#d67b72" d="M28.72 115.669s-.802-1.793-2.036-1.746c-.745.029-1.559.81-1.964 1.985-.465 1.353 1.3 1.767 2.105 1.706.731-.058 2.445-.3 1.894-1.945z"/><path fill="#fff" d="M25.883 116.436a.417.417 0 1 1-.031-.833.417.417 0 0 1 .031.833z" opacity=".4"/><ellipse cx="27.603" cy="115.954" rx=".416" ry=".416" fill="#fff" opacity=".4"/><path fill="#f7a996" d="M27.091 107.004s.083-.741-.714-.803c0 0 .64.345.547.773l.167.03z"/><path fill="#f7a996" d="M26.9 106.911s-.158-.289-.456-.333c0 0 .377.207.384.391l.072-.058z"/><ellipse cx="29.46" cy="113.307" rx=".457" ry=".635" fill="#304454" transform="rotate(178.441 29.46 113.307)"/><ellipse cx="24.011" cy="113.174" rx=".457" ry=".635" fill="#304454" transform="rotate(178.441 24.01 113.174)"/><ellipse cx="26.058" cy="115.979" rx=".176" ry=".176" fill="#304454"/><path fill="#304454" d="M27.42 116.103a.176.176 0 1 0-.015-.351.177.177 0 0 0-.17.182.177.177 0 0 0 .184.169z"/><path fill="#d67b72" d="M60.53 119.202s.627.147.636.293c.008.147-.276.497-.45.53-.174.032-.762-.297-.762-.297l.575-.526z"/><path fill="#d67b72" d="M60.301 119.501s.59.12.647.348c.039.16-.822.807-1.424.636-.366-.102-.517-.291-.517-.291l1.294-.693z"/><path fill="#e59585" d="M57.232 114.766c.204.111 1.834 1.375.368 3.41-.362.504 1.73 1.065 1.73 1.065s.535-.239 1.052-.054c.694.247-1.488 1.078-1.488 1.078s.123.298.044.318c-.078.018-.359-.393-.396-.483-.162-.103-1.36-.377-1.956-.788-.604-.416-2.958-1.706-2.249-3.435.823-2.004 2.455-1.352 2.895-1.111z"/><path fill="#d67b72" d="M40.275 119.234s-.49.102-.538.008c-.048-.094-.062-.39.043-.461.106-.072.519-.052.519-.052l-.024.505z"/><path fill="#d67b72" d="M40.26 118.987s-.47.084-.573-.051c-.072-.095.23-.771.676-.834.272-.038.425.044.425.044l-.528.841z"/><path fill="#e59585" d="M46.912 116.173c-.552 3.417-4.027 2.013-4.525 2.433-.83.7-2.112.628-2.112.628-.308-.011.475-1.094.475-1.094l.316.096s-.314-.176-.268-.212c.083-.063.257.026.477.135.696-.123.674-.968.969-1.039 1.147-.276.977-.758.977-.758-1.619-1.971 1.085-2.558 1.085-2.558s3.22-1.427 2.606 2.369z"/><path fill="#e59585" d="M43.43 114.132s-.547-1.074-1.467-1.046c-.921.028-.918.868-.395 1.126.513.252.81-.609.81-.609s.039.985-.825.856c-.918-.136-.927-1.695.466-1.693.992.002 1.727.941 1.727.941l-.316.425z"/><path fill="#f7a996" d="M55.219 114.85s-1.638.265-3.404-.718c-3.241-1.807-5.625-2.457-8.186-.768-3.434 2.264-4.118 9.394 2.922 10.871 10.321 2.167 14.462-8.593 14.462-8.593l-5.794-.792z"/><path fill="#e59585" d="M52.194 124.126c-.641-2.682.4-3.541.4-3.541l1.742 2.693c-.66.345-1.373.635-2.142.848zM46.551 124.236a9.05 9.05 0 0 1-2.177-.789l.55-1.006c.751 1.137 1.898 1.709 2.525 1.952a8.112 8.112 0 0 1-.898-.157z"/><path fill="#d67b72" d="M38.807 124.816s-.566.118-.623.008c-.054-.108-.072-.449.05-.532s.6-.06.6-.06l-.027.584z"/><path fill="#d67b72" d="M38.79 124.53s-.544.097-.663-.06c-.083-.108.265-.89.782-.962.313-.044.492.05.492.05l-.612.972z"/><path fill="#f7a996" d="M46.652 121.233c-.484 3.85-4.828 2.371-5.405 2.857-.958.809-2.44.726-2.44.726-.355-.014.549-1.265.549-1.265l.364.113s-.362-.205-.308-.246c.095-.073.297.03.55.156.804-.142.78-1.119 1.12-1.201 1.328-.319 1.13-.876 1.13-.876-1.871-2.277-.48-4.818-.48-4.818s5.472.146 4.92 4.554z"/><path fill="#e59585" d="M55.676 122.459c-2.453-1.39-5.222-4.359-5.61-9.219.556.251 1.138.55 1.75.891 1.765.984 3.403.719 3.403.719l5.793.792c0 .001-1.613 4.193-5.336 6.817z"/><path fill="#d67b72" d="M58.969 123.036s.642-.066.698.07c.055.136-.1.56-.253.647s-.818-.033-.818-.033l.373-.684z"/><path fill="#d67b72" d="M58.85 123.394s.599-.079.726.119c.089.138-.514 1.029-1.14 1.065-.38.022-.582-.108-.582-.108l.997-1.076z"/><path fill="#f7a996" d="M54.552 119.881c.229.038 2.182.703 1.458 3.105-.178.594 1.982.443 1.982.443s.429-.399.978-.393c.736.008-1.056 1.503-1.056 1.503s.213.242.144.287c-.067.042-.466-.254-.531-.328-.186-.045-1.41.087-2.106-.109-.707-.196-3.352-.65-3.244-2.515.125-2.163 1.88-2.078 2.375-1.993zM60.488 107.888s-.003-1.102.857-1.78c.564-.445 1.397-1.016 1.855-1.694 1.24-1.838 2.454.958 2.067 3.39-.269 1.688-1.187 3.717-2.647 3.164-1.235-.468-2.132-3.08-2.132-3.08z"/><path fill="url(#k)" d="M60.929 108.934c-.28-.576-.441-1.046-.441-1.046s-.001-.478.244-.998c.778.245 1.589.897 1.589.897l-1.392 1.147z"/><path fill="#e59585" d="M60.929 108.934c-.28-.576-.441-1.046-.441-1.046s-.001-.478.244-.998c.778.245 1.589.897 1.589.897l-1.392 1.147z"/><path fill="#d67b72" d="M62.035 109.68s-.639-1.441.146-2.459c.923-1.199 1.331-2.797 1.9-2.97.691-.211.99 1.309 1.086 1.914.147.899-.1 2.662-.654 3.643-.393.697-.766 1.191-1.82 1.102-1.057-.089-.658-1.23-.658-1.23z"/><path fill="#f7a996" d="M54.972 108.099s-.082-1.098-.99-1.709c-.596-.401-1.47-.907-1.979-1.549-1.376-1.738-2.374 1.142-1.802 3.537.396 1.663 1.466 3.617 2.88 2.955 1.196-.561 1.891-3.234 1.891-3.234z"/><path fill="#e59585" d="M54.42 109.703c.234-.596.552-1.604.552-1.604s-.035-.477-.319-.977c-.756.303-1.516 1.015-1.516 1.015l1.282 1.566z"/><path fill="#d67b72" d="M53.566 110.003s.528-1.485-.333-2.441c-1.012-1.125-1.54-2.688-2.118-2.818-.707-.157-.888 1.382-.94 1.993-.075.907.304 2.646.93 3.581.445.665.856 1.13 1.9.961 1.047-.169.56-1.276.56-1.276z"/><path fill="#f7a996" d="M61.136 107.685s-1.68-.988-3.355-.868c-1.168.083-2.535.295-3.697 1.419-1.582 1.53-1.956 4.054-1.976 5.346-.051 3.412 2.227 5.573 5.763 5.49 3.484-.081 6.292-2.358 6.058-5.759-.132-1.939-.758-4.44-2.793-5.628z"/><path fill="#d67b72" d="M60.028 115.669s-.8-1.793-2.035-1.746c-.745.029-1.559.81-1.964 1.985-.465 1.353 1.3 1.767 2.105 1.706.731-.058 2.445-.3 1.894-1.945z"/><path fill="#fff" d="M57.192 116.436a.417.417 0 1 1-.031-.833.417.417 0 0 1 .03.833z" opacity=".4"/><ellipse cx="58.912" cy="115.954" rx=".416" ry=".416" fill="#fff" opacity=".4"/><path fill="#f7a996" d="M58.4 107.004s.083-.741-.714-.803c0 0 .64.345.547.773l.167.03z"/><path fill="#f7a996" d="M58.209 106.911s-.158-.289-.456-.333c0 0 .377.207.384.391l.072-.058z"/><ellipse cx="60.769" cy="113.307" rx=".457" ry=".635" fill="#304454" transform="rotate(178.441 60.769 113.307)"/><ellipse cx="55.319" cy="113.174" rx=".457" ry=".635" fill="#304454" transform="rotate(178.441 55.32 113.174)"/><ellipse cx="57.367" cy="115.979" rx=".176" ry=".176" fill="#304454"/><path fill="#304454" d="M58.728 116.103a.176.176 0 1 0-.014-.351.177.177 0 0 0-.17.182.177.177 0 0 0 .184.169z"/><path fill="#d67b72" d="M91.838 119.202s.628.147.637.293c.008.147-.276.497-.45.53-.174.032-.762-.297-.762-.297l.575-.526z"/><path fill="#d67b72" d="M91.61 119.501s.59.12.647.348c.039.16-.822.807-1.424.636-.366-.102-.517-.291-.517-.291l1.294-.693z"/><path fill="#e59585" d="M88.541 114.766c.204.111 1.834 1.375.368 3.41-.362.504 1.73 1.065 1.73 1.065s.535-.239 1.052-.054c.694.247-1.488 1.078-1.488 1.078s.123.298.044.318c-.078.018-.359-.393-.396-.483-.162-.103-1.361-.377-1.956-.788-.604-.416-2.958-1.706-2.249-3.435.823-2.004 2.455-1.352 2.895-1.111z"/><path fill="#d67b72" d="M71.584 119.234s-.49.102-.538.008c-.048-.094-.062-.39.043-.461.106-.072.519-.052.519-.052l-.024.505z"/><path fill="#d67b72" d="M71.569 118.987s-.47.084-.573-.051c-.072-.095.229-.771.676-.834.272-.038.425.044.425.044l-.528.841z"/><path fill="#e59585" d="M78.22 116.173c-.551 3.417-4.026 2.013-4.524 2.433-.83.7-2.112.628-2.112.628-.308-.011.475-1.094.475-1.094l.316.096s-.314-.176-.268-.212c.083-.063.257.026.477.135.696-.123.674-.968.969-1.039 1.147-.276.977-.758.977-.758-1.62-1.971 1.085-2.558 1.085-2.558s3.22-1.427 2.606 2.369z"/><path fill="#e59585" d="M74.739 114.132s-.547-1.074-1.467-1.046c-.921.028-.918.868-.395 1.126.513.252.81-.609.81-.609s.039.985-.825.856c-.918-.136-.927-1.695.466-1.693.992.002 1.727.941 1.727.941l-.316.425z"/><path fill="#f7a996" d="M86.528 114.85s-1.638.265-3.404-.718c-3.241-1.807-5.625-2.457-8.186-.768-3.434 2.264-4.118 9.394 2.922 10.871 10.32 2.167 14.462-8.593 14.462-8.593l-5.794-.792z"/><path fill="#e59585" d="M83.503 124.126c-.641-2.682.4-3.541.4-3.541l1.742 2.693c-.66.345-1.373.635-2.142.848zM77.86 124.236a9.05 9.05 0 0 1-2.177-.789l.55-1.006c.751 1.137 1.898 1.709 2.525 1.952a8.112 8.112 0 0 1-.898-.157z"/><path fill="#d67b72" d="M70.116 124.816s-.566.118-.623.008c-.054-.108-.072-.449.05-.532s.6-.06.6-.06l-.027.584z"/><path fill="#d67b72" d="M70.098 124.53s-.543.097-.662-.06c-.083-.108.265-.89.782-.962.313-.044.491.05.491.05l-.61.972z"/><path fill="#f7a996" d="M77.96 121.233c-.483 3.85-4.828 2.371-5.404 2.857-.959.809-2.44.726-2.44.726-.356-.014.549-1.265.549-1.265l.363.113s-.362-.205-.308-.246c.096-.073.297.03.55.156.805-.142.78-1.119 1.121-1.201 1.328-.319 1.13-.876 1.13-.876-1.871-2.277-.48-4.818-.48-4.818s5.472.146 4.92 4.554z"/><path fill="#e59585" d="M86.985 122.459c-2.453-1.39-5.222-4.359-5.61-9.219.556.251 1.138.55 1.75.891 1.765.984 3.403.719 3.403.719l5.793.792c0 .001-1.613 4.193-5.336 6.817z"/><path fill="#d67b72" d="M90.278 123.036s.642-.066.698.07c.055.136-.1.56-.253.647s-.818-.033-.818-.033l.373-.684z"/><path fill="#d67b72" d="M90.16 123.394s.598-.079.725.119c.089.138-.514 1.029-1.14 1.065-.38.022-.582-.108-.582-.108l.997-1.076z"/><path fill="#f7a996" d="M85.86 119.881c.23.038 2.183.703 1.459 3.105-.178.594 1.982.443 1.982.443s.429-.399.978-.393c.736.008-1.056 1.503-1.056 1.503s.213.242.144.287c-.067.042-.466-.254-.531-.328-.186-.045-1.41.087-2.106-.109-.707-.196-3.352-.65-3.244-2.515.125-2.163 1.88-2.078 2.375-1.993zM91.797 107.888s-.003-1.102.857-1.78c.564-.445 1.397-1.016 1.855-1.694 1.24-1.838 2.454.958 2.067 3.39-.269 1.688-1.187 3.717-2.647 3.164-1.235-.468-2.132-3.08-2.132-3.08z"/><path fill="url(#l)" d="M92.238 108.934c-.28-.576-.441-1.046-.441-1.046s-.001-.478.244-.998c.778.245 1.589.897 1.589.897l-1.392 1.147z"/><path fill="#e59585" d="M92.238 108.934c-.28-.576-.441-1.046-.441-1.046s-.001-.478.244-.998c.778.245 1.589.897 1.589.897l-1.392 1.147z"/><path fill="#d67b72" d="M93.344 109.68s-.639-1.441.146-2.459c.923-1.199 1.331-2.797 1.899-2.97.692-.211.99 1.309 1.087 1.914.147.899-.1 2.662-.654 3.643-.393.697-.766 1.191-1.821 1.102-1.056-.089-.657-1.23-.657-1.23z"/><path fill="#f7a996" d="M86.281 108.099s-.082-1.098-.99-1.709c-.596-.401-1.47-.907-1.979-1.549-1.376-1.738-2.374 1.142-1.802 3.537.396 1.663 1.466 3.617 2.88 2.955 1.196-.561 1.891-3.234 1.891-3.234z"/><path fill="#e59585" d="M85.728 109.703c.235-.596.553-1.604.553-1.604s-.035-.477-.319-.977c-.756.303-1.516 1.015-1.516 1.015l1.282 1.566z"/><path fill="#d67b72" d="M84.874 110.003s.529-1.485-.332-2.441c-1.013-1.125-1.54-2.688-2.118-2.818-.708-.157-.889 1.382-.94 1.993-.075.907.303 2.646.93 3.581.445.665.855 1.13 1.9.961 1.047-.169.56-1.276.56-1.276z"/><path fill="#f7a996" d="M92.445 107.685s-1.68-.988-3.355-.868c-1.169.083-2.535.295-3.698 1.419-1.581 1.53-1.956 4.054-1.975 5.346-.052 3.412 2.227 5.573 5.763 5.49 3.483-.081 6.291-2.358 6.057-5.759-.131-1.939-.757-4.44-2.792-5.628z"/><path fill="#d67b72" d="M91.337 115.669s-.8-1.793-2.035-1.746c-.745.029-1.559.81-1.964 1.985-.465 1.353 1.3 1.767 2.105 1.706.731-.058 2.445-.3 1.894-1.945z"/><path fill="#fff" d="M88.5 116.436a.417.417 0 1 1-.03-.833.417.417 0 0 1 .03.833z" opacity=".4"/><ellipse cx="90.22" cy="115.954" rx=".416" ry=".416" fill="#fff" opacity=".4"/><path fill="#f7a996" d="M89.709 107.004s.083-.741-.714-.803c0 0 .64.345.547.773l.167.03z"/><path fill="#f7a996" d="M89.518 106.911s-.158-.289-.456-.333c0 0 .377.207.384.391l.072-.058z"/><ellipse cx="92.078" cy="113.307" rx=".457" ry=".635" fill="#304454" transform="rotate(178.441 92.078 113.307)"/><ellipse cx="86.628" cy="113.174" rx=".457" ry=".635" fill="#304454" transform="rotate(178.441 86.628 113.174)"/><ellipse cx="88.676" cy="115.979" rx=".176" ry=".176" fill="#304454"/><path fill="#304454" d="M90.037 116.103a.176.176 0 1 0-.014-.351.177.177 0 0 0-.17.182.177.177 0 0 0 .184.169z"/></svg>
