<svg xmlns="http://www.w3.org/2000/svg" width="35.781" height="160" viewBox="0 0 35.780590717299575 160"><path fill="#4d677a" d="M26.017 19.215s.996-.72 1.19-.61c.192.112.027.83.027.83l-1.217-.22z"/><path fill="#bdcccc" d="M27.095 23.723s.503.126.818-.126c.314-.251.062-.85.062-.85l-.88.976z"/><path fill="#4d677a" d="M14.985 27.15s-1.258.818-1.667 1.668c0 0 2.485-1.353 3.806-1.384 0 0-1.416-.283-2.139-.283zM18.475 17.947s2.314-2.676 4.302-2.279c0 0-1.647 1.726-1.383 3.034.01.043.02.087.034.13.41 1.32-2.953-.885-2.953-.885z"/><path fill="#7a3440" d="M13.56 23.257s-2.087 2.796-1.453 3.474c.994-.04 2.787-.741 2.787-.741l1.377-1.224-2.712-1.509z"/><path fill="#4d677a" d="M30.2 18.952c-.098-1.163.306-2.693.61-3.915l-.584-.272.79-.433c.304-.908.76-1.8 1.419-2.643 0 0-1.902.837-3.382 2.357-1.373 1.41-.752 5.096-.752 5.096s-5.758.068-10.57-1.898c-5.84-2.385-11.144-5.204-10.977-2.777.136 1.965 2.507 6.776 3.593 7.521 1.084.745 4.58 1.754 4.472 2.17-.34 1.286-3.05 2.234-2.712 2.573.34.34 10.57 4.133 16.805-5.014 0 0 2.492 3.113 4.843 3.083-2.498-2.468-2.939-3.614-3.556-5.848z"/><path fill="#fffdfd" d="M14.26 23.628s-.044.59.021.657c.066.066.371-.416.371-.416l-.393-.24zM13.623 23.255s-.043.59.023.656c.064.066.371-.416.371-.416l-.393-.24zM13.086 26.147s-.434-.402-.527-.391c-.092.01.094.55.094.55l.433-.16z"/><path fill="#bdcccc" d="M29.657 19.616s-2.104 4.543-8.229 4.371c-6.068-.17-11.353-6.336-12.708-7.962-.929-1.114-1.563-1.776-1.955-1.826a1.285 1.285 0 0 0-.01.268c.136 1.965 2.507 6.775 3.592 7.521 1.083.745 4.581 1.754 4.471 2.17-.339 1.285-3.049 2.234-2.71 2.573.336.337 10.676 4.177 16.804-5.014.446-1.09.745-2.1.745-2.1z"/><path fill="#688da7" d="M17.167 18.77s.45 1.103-.464 2.418c0 0 .489-1.24.464-2.419zM17.638 19.133s.45 1.104-.464 2.42c0 0 .489-1.242.464-2.42zM18.019 19.487s.45 1.103-.464 2.42c0 0 .489-1.243.464-2.42z"/><path fill="#304454" d="M19.885 25.504c-.18-1.193-.687-1.193-.796-2.134 0 0 .035-.065.073-.144 0 0 2.747 1.952 3.652 2.205 0 0 .114 2.288 2.17 2.893-.019.05-.019.098-.019.155 0 0-4.624.035-5.08-2.975z"/><path fill="#4d677a" d="M19.958 25.359c-.181-1.193-.687-1.193-.795-2.133 0 0 1.12.506 1.916.434 0 0 .904 1.374 1.808 1.628 0 0 .217 2.168 2.097 3.036 0 0-4.57.045-5.026-2.965z"/><ellipse cx="15.013" cy="19.192" rx=".359" ry=".597" fill="#304454"/><path fill="#4d677a" d="M26.017 50.27s.996-.72 1.19-.61c.192.112.027.83.027.83l-1.217-.22z"/><path fill="#bdcccc" d="M27.095 54.777s.503.126.818-.126c.314-.25.062-.85.062-.85l-.88.976z"/><path fill="#4d677a" d="M14.985 58.206s-1.258.817-1.667 1.667c0 0 2.485-1.353 3.806-1.384 0 0-1.416-.283-2.139-.283zM18.475 49.002s2.314-2.676 4.302-2.28c0 0-1.647 1.727-1.383 3.035.01.043.02.087.034.13.41 1.32-2.953-.885-2.953-.885z"/><path fill="#7a3440" d="M13.56 54.312s-2.087 2.796-1.453 3.474c.994-.04 2.787-.741 2.787-.741l1.377-1.224-2.712-1.51z"/><path fill="#4d677a" d="M30.2 50.007c-.098-1.163.306-2.693.61-3.915l-.584-.272.79-.433c.304-.908.76-1.8 1.419-2.643 0 0-1.902.837-3.382 2.357-1.373 1.41-.752 5.096-.752 5.096s-5.758.068-10.57-1.898c-5.84-2.385-11.144-5.204-10.977-2.777.136 1.965 2.507 6.776 3.593 7.52 1.084.746 4.58 1.755 4.472 2.17-.34 1.287-3.05 2.235-2.712 2.574.34.339 10.57 4.133 16.805-5.014 0 0 2.492 3.113 4.843 3.083-2.498-2.468-2.939-3.614-3.556-5.848z"/><path fill="#fffdfd" d="M14.26 54.683s-.044.59.021.656c.066.066.371-.415.371-.415l-.393-.24zM13.623 54.31s-.043.59.023.656c.064.066.371-.416.371-.416l-.393-.24zM13.086 57.201s-.434-.402-.527-.39c-.092.01.094.55.094.55l.433-.16z"/><path fill="#bdcccc" d="M29.657 50.671s-2.104 4.543-8.229 4.371c-6.068-.17-11.353-6.336-12.708-7.962-.929-1.114-1.563-1.776-1.955-1.826a1.285 1.285 0 0 0-.01.268c.136 1.965 2.507 6.775 3.592 7.521 1.083.745 4.581 1.754 4.471 2.17-.339 1.285-3.049 2.234-2.71 2.573.336.337 10.676 4.177 16.804-5.014.446-1.09.745-2.1.745-2.1z"/><path fill="#688da7" d="M17.167 49.824s.45 1.104-.464 2.42c0 0 .489-1.242.464-2.42zM17.638 50.188s.45 1.104-.464 2.42c0 0 .489-1.242.464-2.42zM18.019 50.542s.45 1.103-.464 2.419c0 0 .489-1.242.464-2.419z"/><path fill="#304454" d="M19.885 56.559c-.18-1.193-.687-1.193-.796-2.134 0 0 .035-.065.073-.144 0 0 2.747 1.952 3.652 2.205 0 0 .114 2.288 2.17 2.893-.019.05-.019.098-.019.155 0 0-4.624.035-5.08-2.975z"/><path fill="#4d677a" d="M19.958 56.414c-.181-1.193-.687-1.193-.795-2.133 0 0 1.12.506 1.916.434 0 0 .904 1.374 1.808 1.628 0 0 .217 2.168 2.097 3.036 0 0-4.57.045-5.026-2.965z"/><ellipse cx="15.013" cy="50.247" rx=".359" ry=".597" fill="#304454"/><path fill="#4d677a" d="M26.017 81.325s.996-.72 1.19-.61c.192.112.027.83.027.83l-1.217-.22z"/><path fill="#bdcccc" d="M27.095 85.832s.503.126.818-.126c.314-.25.062-.85.062-.85l-.88.976z"/><path fill="#4d677a" d="M14.985 89.26s-1.258.817-1.667 1.667c0 0 2.485-1.353 3.806-1.384 0 0-1.416-.283-2.139-.283zM18.475 80.057s2.314-2.676 4.302-2.28c0 0-1.647 1.727-1.383 3.035.01.043.02.087.034.13.41 1.32-2.953-.885-2.953-.885z"/><path fill="#7a3440" d="M13.56 85.367s-2.087 2.796-1.453 3.474c.994-.04 2.787-.741 2.787-.741l1.377-1.224-2.712-1.51z"/><path fill="#4d677a" d="M30.2 81.062c-.098-1.163.306-2.693.61-3.915l-.584-.272.79-.433c.304-.908.76-1.8 1.419-2.643 0 0-1.902.837-3.382 2.357-1.373 1.41-.752 5.096-.752 5.096s-5.758.068-10.57-1.898c-5.84-2.385-11.144-5.204-10.977-2.777.136 1.965 2.507 6.776 3.593 7.52 1.084.746 4.58 1.755 4.472 2.17-.34 1.287-3.05 2.235-2.712 2.574.34.339 10.57 4.133 16.805-5.014 0 0 2.492 3.113 4.843 3.083-2.498-2.468-2.939-3.614-3.556-5.848z"/><path fill="#fffdfd" d="M14.26 85.738s-.044.59.021.656c.066.066.371-.415.371-.415l-.393-.24zM13.623 85.365s-.043.59.023.656c.064.066.371-.416.371-.416l-.393-.24zM13.086 88.256s-.434-.402-.527-.39c-.092.01.094.55.094.55l.433-.16z"/><path fill="#bdcccc" d="M29.657 81.726s-2.104 4.543-8.229 4.371c-6.068-.17-11.353-6.336-12.708-7.962-.929-1.114-1.563-1.776-1.955-1.826a1.285 1.285 0 0 0-.01.268c.136 1.965 2.507 6.775 3.592 7.521 1.083.745 4.581 1.754 4.471 2.169-.339 1.286-3.049 2.235-2.71 2.574.336.337 10.676 4.177 16.804-5.014.446-1.09.745-2.101.745-2.101z"/><path fill="#688da7" d="M17.167 80.879s.45 1.104-.464 2.419c0 0 .489-1.241.464-2.419zM17.638 81.243s.45 1.104-.464 2.42c0 0 .489-1.242.464-2.42zM18.019 81.597s.45 1.103-.464 2.419c0 0 .489-1.242.464-2.42z"/><path fill="#304454" d="M19.885 87.614c-.18-1.193-.687-1.193-.796-2.134 0 0 .035-.065.073-.144 0 0 2.747 1.952 3.652 2.205 0 0 .114 2.288 2.17 2.893-.019.05-.019.098-.019.155 0 0-4.624.035-5.08-2.975z"/><path fill="#4d677a" d="M19.958 87.469c-.181-1.194-.687-1.194-.795-2.133 0 0 1.12.505 1.916.433 0 0 .904 1.374 1.808 1.628 0 0 .217 2.168 2.097 3.036 0 0-4.57.045-5.026-2.965z"/><ellipse cx="15.013" cy="81.302" rx=".359" ry=".597" fill="#304454"/><path fill="#4d677a" d="M26.017 112.379s.996-.719 1.19-.609c.192.111.027.83.027.83l-1.217-.221z"/><path fill="#bdcccc" d="M27.095 116.887s.503.126.818-.126c.314-.251.062-.85.062-.85l-.88.976z"/><path fill="#4d677a" d="M14.985 120.315s-1.258.817-1.667 1.667c0 0 2.485-1.353 3.806-1.384 0 0-1.416-.283-2.139-.283zM18.475 111.112s2.314-2.676 4.302-2.279c0 0-1.647 1.726-1.383 3.034.01.043.02.087.034.13.41 1.32-2.953-.885-2.953-.885z"/><path fill="#7a3440" d="M13.56 116.422s-2.087 2.796-1.453 3.474c.994-.04 2.787-.741 2.787-.741l1.377-1.224-2.712-1.509z"/><path fill="#4d677a" d="M30.2 112.117c-.098-1.163.306-2.693.61-3.915l-.584-.272.79-.433c.304-.908.76-1.8 1.419-2.643 0 0-1.902.837-3.382 2.357-1.373 1.41-.752 5.096-.752 5.096s-5.758.068-10.57-1.898c-5.84-2.385-11.144-5.204-10.977-2.777.136 1.965 2.507 6.776 3.593 7.521 1.084.745 4.58 1.754 4.472 2.169-.34 1.287-3.05 2.235-2.712 2.574.34.339 10.57 4.133 16.805-5.014 0 0 2.492 3.113 4.843 3.083-2.498-2.468-2.939-3.614-3.556-5.848z"/><path fill="#fffdfd" d="M14.26 116.793s-.044.59.021.656c.066.066.371-.415.371-.415l-.393-.241zM13.623 116.42s-.043.59.023.656c.064.066.371-.416.371-.416l-.393-.24zM13.086 119.311s-.434-.402-.527-.391c-.092.01.094.55.094.55l.433-.159z"/><path fill="#bdcccc" d="M29.657 112.781s-2.104 4.543-8.229 4.371c-6.068-.17-11.353-6.336-12.708-7.962-.929-1.114-1.563-1.776-1.955-1.826a1.285 1.285 0 0 0-.01.268c.136 1.965 2.507 6.775 3.592 7.521 1.083.745 4.581 1.754 4.471 2.169-.339 1.286-3.049 2.235-2.71 2.574.336.337 10.676 4.177 16.804-5.014.446-1.09.745-2.101.745-2.101z"/><path fill="#688da7" d="M17.167 111.934s.45 1.104-.464 2.419c0 0 .489-1.241.464-2.419zM17.638 112.298s.45 1.104-.464 2.419c0 0 .489-1.241.464-2.419zM18.019 112.652s.45 1.103-.464 2.419c0 0 .489-1.242.464-2.419z"/><path fill="#304454" d="M19.885 118.668c-.18-1.193-.687-1.193-.796-2.134 0 0 .035-.065.073-.144 0 0 2.747 1.952 3.652 2.205 0 0 .114 2.288 2.17 2.893-.019.051-.019.098-.019.155 0 0-4.624.035-5.08-2.975z"/><path fill="#4d677a" d="M19.958 118.523c-.181-1.193-.687-1.193-.795-2.133 0 0 1.12.506 1.916.434 0 0 .904 1.374 1.808 1.628 0 0 .217 2.168 2.097 3.036 0 0-4.57.045-5.026-2.965z"/><ellipse cx="15.013" cy="112.356" rx=".359" ry=".597" fill="#304454"/><path fill="#4d677a" d="M26.017 143.434s.996-.719 1.19-.609c.192.111.027.83.027.83l-1.217-.221z"/><path fill="#bdcccc" d="M27.095 147.942s.503.126.818-.126c.314-.251.062-.85.062-.85l-.88.976z"/><path fill="#4d677a" d="M14.985 151.37s-1.258.817-1.667 1.667c0 0 2.485-1.353 3.806-1.384 0 0-1.416-.283-2.139-.283zM18.475 142.167s2.314-2.676 4.302-2.279c0 0-1.647 1.726-1.383 3.034.01.043.02.087.034.13.41 1.32-2.953-.885-2.953-.885z"/><path fill="#7a3440" d="M13.56 147.476s-2.087 2.796-1.453 3.474c.994-.04 2.787-.741 2.787-.741l1.377-1.224-2.712-1.509z"/><path fill="#4d677a" d="M30.2 143.172c-.098-1.163.306-2.693.61-3.915l-.584-.272.79-.433c.304-.908.76-1.8 1.419-2.643 0 0-1.902.837-3.382 2.357-1.373 1.41-.752 5.096-.752 5.096s-5.758.068-10.57-1.898c-5.84-2.385-11.144-5.204-10.977-2.777.136 1.965 2.507 6.776 3.593 7.521 1.084.745 4.58 1.754 4.472 2.169-.34 1.287-3.05 2.235-2.712 2.574.34.339 10.57 4.133 16.805-5.014 0 0 2.492 3.113 4.843 3.083-2.498-2.468-2.939-3.614-3.556-5.848z"/><path fill="#fffdfd" d="M14.26 147.848s-.044.59.021.656c.066.066.371-.415.371-.415l-.393-.241zM13.623 147.474s-.043.59.023.656c.064.066.371-.416.371-.416l-.393-.24zM13.086 150.366s-.434-.402-.527-.391c-.092.01.094.55.094.55l.433-.159z"/><path fill="#bdcccc" d="M29.657 143.836s-2.104 4.543-8.229 4.371c-6.068-.17-11.353-6.336-12.708-7.962-.929-1.114-1.563-1.776-1.955-1.826a1.285 1.285 0 0 0-.01.268c.136 1.965 2.507 6.775 3.592 7.521 1.083.745 4.581 1.754 4.471 2.169-.339 1.286-3.049 2.235-2.71 2.574.336.337 10.676 4.177 16.804-5.014.446-1.09.745-2.101.745-2.101z"/><path fill="#688da7" d="M17.167 142.989s.45 1.104-.464 2.419c0 0 .489-1.241.464-2.419zM17.638 143.353s.45 1.104-.464 2.419c0 0 .489-1.241.464-2.419zM18.019 143.707s.45 1.103-.464 2.419c0 0 .489-1.242.464-2.419z"/><path fill="#304454" d="M19.885 149.723c-.18-1.193-.687-1.193-.796-2.134 0 0 .035-.065.073-.144 0 0 2.747 1.952 3.652 2.205 0 0 .114 2.288 2.17 2.893-.019.051-.019.098-.019.155 0 0-4.624.035-5.08-2.975z"/><path fill="#4d677a" d="M19.958 149.578c-.181-1.193-.687-1.193-.795-2.133 0 0 1.12.506 1.916.434 0 0 .904 1.374 1.808 1.628 0 0 .217 2.168 2.097 3.036 0 0-4.57.045-5.026-2.965z"/><ellipse cx="15.013" cy="143.411" rx=".359" ry=".597" fill="#304454"/></svg>
