<svg xmlns="http://www.w3.org/2000/svg" width="140" height="140" viewBox="0 0 140 140"><path fill="#9e034e" stroke="#9e034e" d="M31.044 52.956V31.043h21.912v21.913zM59.044 52.956V31.043h21.913v21.913zM87.043 52.956V31.043h21.914v21.913zM115.043 52.956V31.043h21.914v21.913zM31.044 80.957V59.044h21.912v21.913zM59.044 80.957V59.044h21.913v21.913zM87.043 80.957V59.044h21.914v21.913zM115.043 80.957V59.044h21.914v21.913zM31.044 108.957V87.044h21.912v21.913zM59.044 108.957V87.044h21.913v21.913zM87.043 108.957V87.044h21.914v21.913zM115.043 108.957V87.044h21.914v21.913zM31.044 136.957v-21.914h21.912v21.914zM59.044 136.957v-21.914h21.913v21.914zM87.043 136.957v-21.914h21.914v21.914zM115.043 136.957v-21.914h21.914v21.914z" stroke-width="2" stroke-dasharray="0"/><path fill="none" stroke="gray" d="M29.826 56H154M29.826 84H154M29.826 112H154" stroke-width="2" stroke-opacity=".5"/></svg>
