<svg xmlns="http://www.w3.org/2000/svg" width="120" height="73.418" viewBox="0 0 120 73.41772151898735"><path fill="#0c7f99" stroke="#0c7f99" d="M6.076 24.304V6.076h18.228v18.228zM29.367 24.304V6.076h18.228v18.228zM52.658 24.304V6.076h18.228v18.228zM75.95 24.304V6.076h18.227v18.228zM99.24 24.304V6.076h18.228v18.228zM6.076 47.595V29.367h18.228v18.228zM29.367 47.595V29.367h18.228v18.228zM52.658 47.595V29.367h18.228v18.228zM75.95 47.595V29.367h18.227v18.228zM99.24 47.595V29.367h18.228v18.228zM6.076 70.886V52.658h18.228v18.228zM29.367 70.886V52.658h18.228v18.228zM52.658 70.886V52.658h18.228v18.228zM75.95 70.886V52.658h18.227v18.228zM99.24 70.886V52.658h18.228v18.228z" stroke-width="2" stroke-dasharray="0"/></svg>
