<svg xmlns="http://www.w3.org/2000/svg" width="170" height="71.013" viewBox="0 0 170 71.01265822784809"><defs><radialGradient id="a" fx=".5" fy=".5"><stop offset="0%" stop-color="#fee6d3"/><stop offset="29.16%" stop-color="#fee4d0"/><stop offset="52.23%" stop-color="#fedec6"/><stop offset="73.2%" stop-color="#fdd3b6"/><stop offset="92.83%" stop-color="#fcc4a0"/><stop offset="100%" stop-color="#fbbd97"/></radialGradient><radialGradient id="b" fx=".5" fy=".5"><stop offset="0%" stop-color="#ffe600"/><stop offset="29.16%" stop-color="#ffe400"/><stop offset="52.23%" stop-color="#fd0"/><stop offset="73.2%" stop-color="#ffd100"/><stop offset="92.83%" stop-color="#fec00f"/><stop offset="100%" stop-color="#fdb913"/></radialGradient><radialGradient id="c" fx=".5" fy=".5"><stop offset="0%" stop-color="#fee6d3"/><stop offset="29.16%" stop-color="#fee4d0"/><stop offset="52.23%" stop-color="#fedec6"/><stop offset="73.2%" stop-color="#fdd3b6"/><stop offset="92.83%" stop-color="#fcc4a0"/><stop offset="100%" stop-color="#fbbd97"/></radialGradient><radialGradient id="d" fx=".5" fy=".5"><stop offset="0%" stop-color="#ffe600"/><stop offset="29.16%" stop-color="#ffe400"/><stop offset="52.23%" stop-color="#fd0"/><stop offset="73.2%" stop-color="#ffd100"/><stop offset="92.83%" stop-color="#fec00f"/><stop offset="100%" stop-color="#fdb913"/></radialGradient><radialGradient id="e" fx=".5" fy=".5"><stop offset="0%" stop-color="#fee6d3"/><stop offset="29.16%" stop-color="#fee4d0"/><stop offset="52.23%" stop-color="#fedec6"/><stop offset="73.2%" stop-color="#fdd3b6"/><stop offset="92.83%" stop-color="#fcc4a0"/><stop offset="100%" stop-color="#fbbd97"/></radialGradient><radialGradient id="f" fx=".5" fy=".5"><stop offset="0%" stop-color="#ffe600"/><stop offset="29.16%" stop-color="#ffe400"/><stop offset="52.23%" stop-color="#fd0"/><stop offset="73.2%" stop-color="#ffd100"/><stop offset="92.83%" stop-color="#fec00f"/><stop offset="100%" stop-color="#fdb913"/></radialGradient><radialGradient id="g" fx=".5" fy=".5"><stop offset="0%" stop-color="#fee6d3"/><stop offset="29.16%" stop-color="#fee4d0"/><stop offset="52.23%" stop-color="#fedec6"/><stop offset="73.2%" stop-color="#fdd3b6"/><stop offset="92.83%" stop-color="#fcc4a0"/><stop offset="100%" stop-color="#fbbd97"/></radialGradient><radialGradient id="h" fx=".5" fy=".5"><stop offset="0%" stop-color="#ffe600"/><stop offset="29.16%" stop-color="#ffe400"/><stop offset="52.23%" stop-color="#fd0"/><stop offset="73.2%" stop-color="#ffd100"/><stop offset="92.83%" stop-color="#fec00f"/><stop offset="100%" stop-color="#fdb913"/></radialGradient><radialGradient id="i" fx=".5" fy=".5"><stop offset="0%" stop-color="#fee6d3"/><stop offset="29.16%" stop-color="#fee4d0"/><stop offset="52.23%" stop-color="#fedec6"/><stop offset="73.2%" stop-color="#fdd3b6"/><stop offset="92.83%" stop-color="#fcc4a0"/><stop offset="100%" stop-color="#fbbd97"/></radialGradient><radialGradient id="j" fx=".5" fy=".5"><stop offset="0%" stop-color="#ffe600"/><stop offset="29.16%" stop-color="#ffe400"/><stop offset="52.23%" stop-color="#fd0"/><stop offset="73.2%" stop-color="#ffd100"/><stop offset="92.83%" stop-color="#fec00f"/><stop offset="100%" stop-color="#fdb913"/></radialGradient><radialGradient id="k" fx=".5" fy=".5"><stop offset="0%" stop-color="#fee6d3"/><stop offset="29.16%" stop-color="#fee4d0"/><stop offset="52.23%" stop-color="#fedec6"/><stop offset="73.2%" stop-color="#fdd3b6"/><stop offset="92.83%" stop-color="#fcc4a0"/><stop offset="100%" stop-color="#fbbd97"/></radialGradient><radialGradient id="l" fx=".5" fy=".5"><stop offset="0%" stop-color="#ffe600"/><stop offset="29.16%" stop-color="#ffe400"/><stop offset="52.23%" stop-color="#fd0"/><stop offset="73.2%" stop-color="#ffd100"/><stop offset="92.83%" stop-color="#fec00f"/><stop offset="100%" stop-color="#fdb913"/></radialGradient><radialGradient id="m" fx=".5" fy=".5"><stop offset="0%" stop-color="#fee6d3"/><stop offset="29.16%" stop-color="#fee4d0"/><stop offset="52.23%" stop-color="#fedec6"/><stop offset="73.2%" stop-color="#fdd3b6"/><stop offset="92.83%" stop-color="#fcc4a0"/><stop offset="100%" stop-color="#fbbd97"/></radialGradient><radialGradient id="n" fx=".5" fy=".5"><stop offset="0%" stop-color="#ffe600"/><stop offset="29.16%" stop-color="#ffe400"/><stop offset="52.23%" stop-color="#fd0"/><stop offset="73.2%" stop-color="#ffd100"/><stop offset="92.83%" stop-color="#fec00f"/><stop offset="100%" stop-color="#fdb913"/></radialGradient><radialGradient id="o" fx=".5" fy=".5"><stop offset="0%" stop-color="#fee6d3"/><stop offset="29.16%" stop-color="#fee4d0"/><stop offset="52.23%" stop-color="#fedec6"/><stop offset="73.2%" stop-color="#fdd3b6"/><stop offset="92.83%" stop-color="#fcc4a0"/><stop offset="100%" stop-color="#fbbd97"/></radialGradient><radialGradient id="p" fx=".5" fy=".5"><stop offset="0%" stop-color="#ffe600"/><stop offset="29.16%" stop-color="#ffe400"/><stop offset="52.23%" stop-color="#fd0"/><stop offset="73.2%" stop-color="#ffd100"/><stop offset="92.83%" stop-color="#fec00f"/><stop offset="100%" stop-color="#fdb913"/></radialGradient><radialGradient id="q" fx=".5" fy=".5"><stop offset="0%" stop-color="#fee6d3"/><stop offset="29.16%" stop-color="#fee4d0"/><stop offset="52.23%" stop-color="#fedec6"/><stop offset="73.2%" stop-color="#fdd3b6"/><stop offset="92.83%" stop-color="#fcc4a0"/><stop offset="100%" stop-color="#fbbd97"/></radialGradient><radialGradient id="r" fx=".5" fy=".5"><stop offset="0%" stop-color="#ffe600"/><stop offset="29.16%" stop-color="#ffe400"/><stop offset="52.23%" stop-color="#fd0"/><stop offset="73.2%" stop-color="#ffd100"/><stop offset="92.83%" stop-color="#fec00f"/><stop offset="100%" stop-color="#fdb913"/></radialGradient><radialGradient id="s" fx=".5" fy=".5"><stop offset="0%" stop-color="#fee6d3"/><stop offset="29.16%" stop-color="#fee4d0"/><stop offset="52.23%" stop-color="#fedec6"/><stop offset="73.2%" stop-color="#fdd3b6"/><stop offset="92.83%" stop-color="#fcc4a0"/><stop offset="100%" stop-color="#fbbd97"/></radialGradient><radialGradient id="t" fx=".5" fy=".5"><stop offset="0%" stop-color="#ffe600"/><stop offset="29.16%" stop-color="#ffe400"/><stop offset="52.23%" stop-color="#fd0"/><stop offset="73.2%" stop-color="#ffd100"/><stop offset="92.83%" stop-color="#fec00f"/><stop offset="100%" stop-color="#fdb913"/></radialGradient></defs><path fill="#d78334" d="M22.094 29.779c.494.447 3.204 1.09 4.895-1.1 1.1-1.425-1.465-.687-2.052-.77-.603-.085-1.078-1.138-2.192-.874-1.204.286-1.721 1.776-.651 2.744zM24.672 31.481s.754-.978 1.034-.755c.171.137-.11 1.93-.39 2.488-.28.56-1.343-.112-1.343-.112l.7-1.62z"/><path fill="#f89c44" d="M18.816 31.068s-3.646-1.203-4.218-4.752c-.708-4.383-5.966-3.367-7.338-2.298 0 0 2.886 1.384 3.091 5.387.17 3.33 5.194 5.09 7.992 2.345l.473-.682z"/><path fill="#f4953f" d="M20.254 27.12s-3.88 4.055-2.942 6.47c.843 2.165 6.364 2.46 7.861 2.192.745-.133 1.82-4.078 1.23-4.278-.529-.18-1.176.802-1.176.802s-1.054-5.393-3.193-5.553c-2.139-.16-1.78.366-1.78.366z"/><path fill="url(#a)" d="M25.227 32.306s-1.036-5.293-3.137-5.544l.227 2.184s1.362 3.005 2.91 3.36z"/><path fill="#d14e3f" d="M22.355 26.822c-.627-.052-1.42-.124-1.982.379-.922.825-.663 2.381.74 2.72.393.096 1.96-.207 3.046-.977-.455-.991-1.055-1.874-1.804-2.122z"/><path fill="#fedcbd" d="M22.344 26.82a15.97 15.97 0 0 0-.25-.019l.224 2.145s.135.298.367.716a5.62 5.62 0 0 0 1.474-.719c-.457-.994-1.061-1.88-1.815-2.123z"/><path fill="url(#b)" d="M16.892 12.495s2.65-1.974 5.819-1.61c0 0 1.207-3.036 3.182-3.712 0 0 1.326 2.343 1.37 4.508 0 0 4.02 5.334 4.332 7.984 0 0 2.598-.052 3.169-.363 0 0 .992-.424.248.492-1.238 1.526-4.897 4.878-8.404 6.21-4.255 1.615-8.105 2.285-10.911 0-2.66-2.168-2.39-9.56-2.39-9.56s-1.507-3.065-1.56-5.35c1.682-.429 5.145 1.401 5.145 1.401z"/><path fill="#f89c44" d="M16.892 12.495s2.776-2.124 5.945-1.76c0 0 1.08-2.886 3.055-3.562 0 0 1.326 2.343 1.37 4.508 0 0 4.02 5.334 4.333 7.984 0 0 2.597-.052 3.169-.363 0 0 .99-.424.248.492-1.24 1.526-4.898 4.878-8.405 6.21-4.255 1.615-8.105 2.285-10.911 0-2.66-2.168-2.39-9.56-2.39-9.56s-1.506-3.065-1.558-5.35c1.68-.429 5.144 1.401 5.144 1.401z"/><path fill="#f4dbc5" d="M12.895 23.648l-.074.958-.802-.16v.856l-.909-.054v.856l-.963-.107-.349.918c-.895-2.108-2.538-2.897-2.538-2.897.95-.74 3.76-1.453 5.635-.37z"/><path fill="#f4953f" d="M20.158 29.779c.494.447 3.204 1.09 4.895-1.1 1.101-1.425-1.465-.687-2.052-.77-.603-.085-1.078-1.138-2.192-.874-1.204.286-1.72 1.776-.65 2.744z"/><path fill="#f4dbc5" d="M24.117 10.82s1.856.118 3.146.861c-.045-2.165-1.37-4.508-1.37-4.508s-1.86 1.51-1.776 3.647z"/><ellipse cx="23.659" cy="20.294" rx=".504" ry=".837" fill="#304454"/><ellipse cx="28.388" cy="18.6" rx=".378" ry=".837" fill="#304454" transform="rotate(-10.532 28.388 18.6)"/><path fill="#d78334" d="M24.718 8.192s.07-.186.205-.473a4.803 4.803 0 0 0-.493.453c.096.007.191.009.288.02zM34.947 19.238c-1.712 1.546-4.117 3.334-6.458 4.223-4.255 1.615-8.105 2.285-10.91 0-2.66-2.168-2.39-9.561-2.39-9.561s-.555-1.13-1.002-2.528c-.877-.272-1.79-.444-2.438-.28.051 2.287 1.557 5.352 1.557 5.352s-.27 7.392 2.39 9.56c2.807 2.285 6.656 1.615 10.912 0 3.506-1.332 7.167-4.683 8.405-6.21.528-.651.18-.625-.066-.556z" opacity=".5"/><path fill="none" stroke="#414042" d="M18.867 26.637s-.902.492-1.312 1.107M18.089 26.391s-1.025.287-1.393.615" stroke-width=".181" stroke-linecap="round" stroke-linejoin="round"/><path fill="#f4dbc5" d="M11.793 11.196c-.013.03-.024.062-.036.092.128 2.262 1.55 5.156 1.55 5.156.718-1.558 2.42-2.773 2.42-2.773-1.061-1.37-3.934-2.475-3.934-2.475z"/><ellipse cx="34.765" cy="19.457" rx="1.013" ry=".857" fill="#304454"/><path fill="#d78334" d="M55.09 29.779c.493.447 3.203 1.09 4.894-1.1 1.101-1.425-1.465-.687-2.052-.77-.603-.085-1.078-1.138-2.192-.874-1.204.286-1.72 1.776-.65 2.744zM57.668 31.481s.754-.978 1.034-.755c.171.137-.11 1.93-.39 2.488-.28.56-1.343-.112-1.343-.112l.7-1.62z"/><path fill="#f89c44" d="M51.811 31.068s-3.646-1.203-4.218-4.752c-.707-4.383-5.966-3.367-7.337-2.298 0 0 2.885 1.384 3.091 5.387.17 3.33 5.194 5.09 7.991 2.345l.473-.682z"/><path fill="#f4953f" d="M53.25 27.12s-3.881 4.055-2.942 6.47c.843 2.165 6.364 2.46 7.861 2.192.745-.133 1.819-4.078 1.23-4.278-.529-.18-1.176.802-1.176.802s-1.054-5.393-3.193-5.553c-2.139-.16-1.78.366-1.78.366z"/><path fill="url(#c)" d="M58.223 32.306s-1.036-5.293-3.137-5.544l.227 2.184s1.362 3.005 2.91 3.36z"/><path fill="#d14e3f" d="M55.351 26.822c-.627-.052-1.421-.124-1.982.379-.922.825-.663 2.381.74 2.72.393.096 1.959-.207 3.046-.977-.455-.991-1.055-1.874-1.804-2.122z"/><path fill="#fedcbd" d="M55.34 26.82a15.97 15.97 0 0 0-.25-.019l.223 2.145s.135.298.367.716a5.62 5.62 0 0 0 1.474-.719c-.457-.994-1.06-1.88-1.815-2.123z"/><path fill="url(#d)" d="M49.887 12.495s2.65-1.974 5.82-1.61c0 0 1.206-3.036 3.181-3.712 0 0 1.326 2.343 1.37 4.508 0 0 4.021 5.334 4.332 7.984 0 0 2.598-.052 3.17-.363 0 0 .991-.424.247.492-1.238 1.526-4.897 4.878-8.404 6.21-4.255 1.615-8.105 2.285-10.91 0-2.66-2.168-2.39-9.56-2.39-9.56s-1.508-3.065-1.56-5.35c1.681-.429 5.144 1.401 5.144 1.401z"/><path fill="#f89c44" d="M49.887 12.495s2.776-2.124 5.945-1.76c0 0 1.081-2.886 3.055-3.562 0 0 1.326 2.343 1.371 4.508 0 0 4.02 5.334 4.332 7.984 0 0 2.597-.052 3.17-.363 0 0 .99-.424.247.492-1.239 1.526-4.898 4.878-8.405 6.21-4.255 1.615-8.105 2.285-10.91 0-2.66-2.168-2.39-9.56-2.39-9.56s-1.507-3.065-1.559-5.35c1.681-.429 5.144 1.401 5.144 1.401z"/><path fill="#f4dbc5" d="M45.891 23.648l-.074.958-.802-.16v.856l-.909-.054v.856l-.963-.107-.349.918c-.895-2.108-2.538-2.897-2.538-2.897.95-.74 3.76-1.453 5.635-.37z"/><path fill="#f4953f" d="M53.154 29.779c.494.447 3.204 1.09 4.895-1.1 1.1-1.425-1.465-.687-2.052-.77-.603-.085-1.078-1.138-2.192-.874-1.204.286-1.721 1.776-.651 2.744z"/><path fill="#f4dbc5" d="M57.113 10.82s1.856.118 3.146.861c-.045-2.165-1.371-4.508-1.371-4.508s-1.86 1.51-1.775 3.647z"/><ellipse cx="56.654" cy="20.294" rx=".504" ry=".837" fill="#304454"/><ellipse cx="61.384" cy="18.6" rx=".378" ry=".837" fill="#304454" transform="rotate(-10.532 61.384 18.6)"/><path fill="#d78334" d="M57.714 8.192s.07-.186.205-.473a4.803 4.803 0 0 0-.493.453c.096.007.19.009.288.02zM67.943 19.238c-1.712 1.546-4.117 3.334-6.458 4.223-4.255 1.615-8.105 2.285-10.91 0-2.66-2.168-2.39-9.561-2.39-9.561s-.555-1.13-1.003-2.528c-.877-.272-1.79-.444-2.438-.28.052 2.287 1.558 5.352 1.558 5.352s-.27 7.392 2.39 9.56c2.806 2.285 6.656 1.615 10.911 0 3.507-1.332 7.167-4.683 8.405-6.21.528-.651.181-.625-.065-.556z" opacity=".5"/><path fill="none" stroke="#414042" d="M51.863 26.637s-.902.492-1.312 1.107M51.084 26.391s-1.025.287-1.393.615" stroke-width=".181" stroke-linecap="round" stroke-linejoin="round"/><path fill="#f4dbc5" d="M44.788 11.196l-.035.092c.127 2.262 1.55 5.156 1.55 5.156.718-1.558 2.42-2.773 2.42-2.773-1.062-1.37-3.934-2.475-3.934-2.475z"/><ellipse cx="67.76" cy="19.457" rx="1.013" ry=".857" fill="#304454"/><path fill="#d78334" d="M88.085 29.779c.494.447 3.204 1.09 4.895-1.1 1.101-1.425-1.465-.687-2.052-.77-.603-.085-1.078-1.138-2.192-.874-1.204.286-1.72 1.776-.65 2.744zM90.664 31.481s.754-.978 1.034-.755c.171.137-.111 1.93-.391 2.488-.28.56-1.342-.112-1.342-.112l.699-1.62z"/><path fill="#f89c44" d="M84.807 31.068s-3.646-1.203-4.218-4.752c-.707-4.383-5.966-3.367-7.337-2.298 0 0 2.885 1.384 3.091 5.387.17 3.33 5.194 5.09 7.991 2.345l.473-.682z"/><path fill="#f4953f" d="M86.246 27.12s-3.881 4.055-2.942 6.47c.843 2.165 6.364 2.46 7.86 2.192.746-.133 1.82-4.078 1.23-4.278-.528-.18-1.175.802-1.175.802s-1.054-5.393-3.193-5.553c-2.14-.16-1.78.366-1.78.366z"/><path fill="url(#e)" d="M91.218 32.306s-1.036-5.293-3.137-5.544l.227 2.184s1.362 3.005 2.91 3.36z"/><path fill="#d14e3f" d="M88.347 26.822c-.627-.052-1.421-.124-1.982.379-.922.825-.663 2.381.74 2.72.393.096 1.959-.207 3.046-.977-.455-.991-1.055-1.874-1.804-2.122z"/><path fill="#fedcbd" d="M88.335 26.82a15.97 15.97 0 0 0-.249-.019l.223 2.145s.135.298.367.716a5.62 5.62 0 0 0 1.474-.719c-.457-.994-1.06-1.88-1.815-2.123z"/><path fill="url(#f)" d="M82.883 12.495s2.65-1.974 5.82-1.61c0 0 1.206-3.036 3.181-3.712 0 0 1.326 2.343 1.37 4.508 0 0 4.021 5.334 4.332 7.984 0 0 2.598-.052 3.169-.363 0 0 .992-.424.248.492-1.238 1.526-4.897 4.878-8.404 6.21-4.255 1.615-8.105 2.285-10.91 0-2.66-2.168-2.39-9.56-2.39-9.56s-1.508-3.065-1.56-5.35c1.681-.429 5.144 1.401 5.144 1.401z"/><path fill="#f89c44" d="M82.883 12.495s2.776-2.124 5.945-1.76c0 0 1.081-2.886 3.055-3.562 0 0 1.326 2.343 1.371 4.508 0 0 4.02 5.334 4.332 7.984 0 0 2.597-.052 3.169-.363 0 0 .991-.424.248.492-1.239 1.526-4.898 4.878-8.405 6.21-4.255 1.615-8.105 2.285-10.91 0-2.66-2.168-2.39-9.56-2.39-9.56s-1.507-3.065-1.559-5.35c1.681-.429 5.144 1.401 5.144 1.401z"/><path fill="#f4dbc5" d="M78.887 23.648l-.074.958-.802-.16v.856l-.909-.054v.856l-.963-.107-.349.918c-.895-2.108-2.538-2.897-2.538-2.897.949-.74 3.759-1.453 5.635-.37z"/><path fill="#f4953f" d="M86.15 29.779c.494.447 3.204 1.09 4.895-1.1 1.1-1.425-1.465-.687-2.052-.77-.603-.085-1.078-1.138-2.192-.874-1.204.286-1.721 1.776-.651 2.744z"/><path fill="#f4dbc5" d="M90.109 10.82s1.856.118 3.146.861c-.045-2.165-1.371-4.508-1.371-4.508s-1.86 1.51-1.775 3.647z"/><ellipse cx="89.65" cy="20.294" rx=".504" ry=".837" fill="#304454"/><ellipse cx="94.38" cy="18.6" rx=".378" ry=".837" fill="#304454" transform="rotate(-10.532 94.38 18.6)"/><path fill="#d78334" d="M90.71 8.192s.07-.186.205-.473a4.803 4.803 0 0 0-.493.453c.096.007.19.009.288.02zM100.939 19.238c-1.712 1.546-4.117 3.334-6.458 4.223-4.255 1.615-8.105 2.285-10.91 0-2.66-2.168-2.39-9.561-2.39-9.561s-.555-1.13-1.003-2.528c-.877-.272-1.79-.444-2.438-.28.052 2.287 1.558 5.352 1.558 5.352s-.27 7.392 2.39 9.56c2.806 2.285 6.656 1.615 10.911 0 3.507-1.332 7.167-4.683 8.405-6.21.528-.651.181-.625-.065-.556z" opacity=".5"/><path fill="none" stroke="#414042" d="M84.859 26.637s-.902.492-1.312 1.107M84.08 26.391s-1.025.287-1.393.615" stroke-width=".181" stroke-linecap="round" stroke-linejoin="round"/><path fill="#f4dbc5" d="M77.784 11.196c-.013.03-.024.062-.036.092.128 2.262 1.55 5.156 1.55 5.156.718-1.558 2.42-2.773 2.42-2.773-1.06-1.37-3.934-2.475-3.934-2.475z"/><ellipse cx="100.756" cy="19.457" rx="1.013" ry=".857" fill="#304454"/><path fill="#d78334" d="M121.081 29.779c.494.447 3.204 1.09 4.895-1.1 1.101-1.425-1.465-.687-2.052-.77-.603-.085-1.078-1.138-2.192-.874-1.204.286-1.721 1.776-.651 2.744zM123.66 31.481s.754-.978 1.034-.755c.171.137-.111 1.93-.391 2.488-.28.56-1.342-.112-1.342-.112l.699-1.62z"/><path fill="#f89c44" d="M117.803 31.068s-3.646-1.203-4.218-4.752c-.707-4.383-5.966-3.367-7.337-2.298 0 0 2.885 1.384 3.091 5.387.17 3.33 5.194 5.09 7.991 2.345l.473-.682z"/><path fill="#f4953f" d="M119.242 27.12s-3.881 4.055-2.942 6.47c.843 2.165 6.364 2.46 7.861 2.192.745-.133 1.819-4.078 1.23-4.278-.529-.18-1.176.802-1.176.802s-1.054-5.393-3.193-5.553c-2.139-.16-1.78.366-1.78.366z"/><path fill="url(#g)" d="M124.214 32.306s-1.036-5.293-3.137-5.544l.227 2.184s1.362 3.005 2.91 3.36z"/><path fill="#d14e3f" d="M121.343 26.822c-.627-.052-1.421-.124-1.982.379-.922.825-.663 2.381.74 2.72.393.096 1.959-.207 3.046-.977-.455-.991-1.055-1.874-1.804-2.122z"/><path fill="#fedcbd" d="M121.331 26.82a15.97 15.97 0 0 0-.249-.019l.223 2.145s.135.298.367.716a5.62 5.62 0 0 0 1.474-.719c-.457-.994-1.061-1.88-1.815-2.123z"/><path fill="url(#h)" d="M115.879 12.495s2.65-1.974 5.819-1.61c0 0 1.207-3.036 3.182-3.712 0 0 1.326 2.343 1.37 4.508 0 0 4.021 5.334 4.332 7.984 0 0 2.598-.052 3.169-.363 0 0 .992-.424.248.492-1.238 1.526-4.897 4.878-8.404 6.21-4.255 1.615-8.105 2.285-10.911 0-2.66-2.168-2.39-9.56-2.39-9.56s-1.507-3.065-1.559-5.35c1.681-.429 5.144 1.401 5.144 1.401z"/><path fill="#f89c44" d="M115.879 12.495s2.776-2.124 5.945-1.76c0 0 1.081-2.886 3.055-3.562 0 0 1.326 2.343 1.371 4.508 0 0 4.02 5.334 4.332 7.984 0 0 2.597-.052 3.169-.363 0 0 .991-.424.248.492-1.239 1.526-4.898 4.878-8.405 6.21-4.255 1.615-8.105 2.285-10.911 0-2.66-2.168-2.389-9.56-2.389-9.56s-1.507-3.065-1.559-5.35c1.681-.429 5.144 1.401 5.144 1.401z"/><path fill="#f4dbc5" d="M111.883 23.648l-.074.958-.802-.16v.856l-.909-.054v.856l-.963-.107-.349.918c-.895-2.108-2.538-2.897-2.538-2.897.949-.74 3.759-1.453 5.635-.37z"/><path fill="#f4953f" d="M119.145 29.779c.494.447 3.204 1.09 4.895-1.1 1.101-1.425-1.465-.687-2.052-.77-.603-.085-1.078-1.138-2.192-.874-1.204.286-1.721 1.776-.651 2.744z"/><path fill="#f4dbc5" d="M123.105 10.82s1.856.118 3.146.861c-.045-2.165-1.371-4.508-1.371-4.508s-1.86 1.51-1.775 3.647z"/><ellipse cx="122.646" cy="20.294" rx=".504" ry=".837" fill="#304454"/><ellipse cx="127.376" cy="18.6" rx=".378" ry=".837" fill="#304454" transform="rotate(-10.532 127.376 18.6)"/><path fill="#d78334" d="M123.705 8.192s.07-.186.205-.473a4.803 4.803 0 0 0-.493.453c.096.007.191.009.288.02zM133.935 19.238c-1.712 1.546-4.117 3.334-6.458 4.223-4.255 1.615-8.105 2.285-10.911 0-2.66-2.168-2.39-9.561-2.39-9.561s-.554-1.13-1.002-2.528c-.877-.272-1.79-.444-2.438-.28.052 2.287 1.558 5.352 1.558 5.352s-.27 7.392 2.39 9.56c2.806 2.285 6.656 1.615 10.911 0 3.507-1.332 7.167-4.683 8.405-6.21.528-.651.181-.625-.065-.556z" opacity=".5"/><path fill="none" stroke="#414042" d="M117.855 26.637s-.902.492-1.312 1.107M117.076 26.391s-1.025.287-1.393.615" stroke-width=".181" stroke-linecap="round" stroke-linejoin="round"/><path fill="#f4dbc5" d="M110.78 11.196c-.013.03-.024.062-.036.092.128 2.262 1.55 5.156 1.55 5.156.718-1.558 2.42-2.773 2.42-2.773-1.061-1.37-3.934-2.475-3.934-2.475z"/><ellipse cx="133.752" cy="19.457" rx="1.013" ry=".857" fill="#304454"/><path fill="#d78334" d="M154.077 29.779c.494.447 3.204 1.09 4.895-1.1 1.101-1.425-1.465-.687-2.052-.77-.603-.085-1.078-1.138-2.192-.874-1.204.286-1.721 1.776-.651 2.744zM156.656 31.481s.754-.978 1.034-.755c.171.137-.111 1.93-.391 2.488-.28.56-1.342-.112-1.342-.112l.699-1.62z"/><path fill="#f89c44" d="M150.799 31.068s-3.646-1.203-4.218-4.752c-.707-4.383-5.966-3.367-7.337-2.298 0 0 2.885 1.384 3.091 5.387.17 3.33 5.194 5.09 7.991 2.345l.473-.682z"/><path fill="#f4953f" d="M152.237 27.12s-3.881 4.055-2.942 6.47c.843 2.165 6.364 2.46 7.861 2.192.745-.133 1.819-4.078 1.23-4.278-.529-.18-1.176.802-1.176.802s-1.054-5.393-3.193-5.553c-2.139-.16-1.78.366-1.78.366z"/><path fill="url(#i)" d="M157.21 32.306s-1.036-5.293-3.137-5.544l.227 2.184s1.362 3.005 2.91 3.36z"/><path fill="#d14e3f" d="M154.338 26.822c-.627-.052-1.421-.124-1.982.379-.922.825-.663 2.381.74 2.72.393.096 1.959-.207 3.046-.977-.455-.991-1.055-1.874-1.804-2.122z"/><path fill="#fedcbd" d="M154.327 26.82a15.97 15.97 0 0 0-.249-.019l.223 2.145s.135.298.367.716a5.62 5.62 0 0 0 1.474-.719c-.457-.994-1.061-1.88-1.815-2.123z"/><path fill="url(#j)" d="M148.875 12.495s2.65-1.974 5.819-1.61c0 0 1.207-3.036 3.182-3.712 0 0 1.326 2.343 1.37 4.508 0 0 4.021 5.334 4.332 7.984 0 0 2.598-.052 3.169-.363 0 0 .992-.424.248.492-1.238 1.526-4.897 4.878-8.404 6.21-4.255 1.615-8.105 2.285-10.911 0-2.66-2.168-2.39-9.56-2.39-9.56s-1.507-3.065-1.559-5.35c1.681-.429 5.144 1.401 5.144 1.401z"/><path fill="#f89c44" d="M148.875 12.495s2.776-2.124 5.945-1.76c0 0 1.081-2.886 3.055-3.562 0 0 1.326 2.343 1.371 4.508 0 0 4.02 5.334 4.332 7.984 0 0 2.597-.052 3.169-.363 0 0 .991-.424.248.492-1.239 1.526-4.898 4.878-8.405 6.21-4.255 1.615-8.105 2.285-10.911 0-2.66-2.168-2.389-9.56-2.389-9.56s-1.507-3.065-1.559-5.35c1.681-.429 5.144 1.401 5.144 1.401z"/><path fill="#f4dbc5" d="M144.879 23.648l-.074.958-.802-.16v.856l-.909-.054v.856l-.963-.107-.349.918c-.895-2.108-2.538-2.897-2.538-2.897.949-.74 3.759-1.453 5.635-.37z"/><path fill="#f4953f" d="M152.141 29.779c.494.447 3.204 1.09 4.895-1.1 1.101-1.425-1.465-.687-2.052-.77-.603-.085-1.078-1.138-2.192-.874-1.204.286-1.721 1.776-.651 2.744z"/><path fill="#f4dbc5" d="M156.1 10.82s1.856.118 3.146.861c-.045-2.165-1.371-4.508-1.371-4.508s-1.86 1.51-1.775 3.647z"/><ellipse cx="155.642" cy="20.294" rx=".504" ry=".837" fill="#304454"/><ellipse cx="160.372" cy="18.6" rx=".378" ry=".837" fill="#304454" transform="rotate(-10.532 160.372 18.6)"/><path fill="#d78334" d="M156.701 8.192s.07-.186.205-.473a4.803 4.803 0 0 0-.493.453c.096.007.191.009.288.02zM166.931 19.238c-1.712 1.546-4.117 3.334-6.458 4.223-4.255 1.615-8.105 2.285-10.911 0-2.66-2.168-2.39-9.561-2.39-9.561s-.554-1.13-1.002-2.528c-.877-.272-1.79-.444-2.438-.28.052 2.287 1.558 5.352 1.558 5.352s-.27 7.392 2.39 9.56c2.806 2.285 6.656 1.615 10.911 0 3.507-1.332 7.167-4.683 8.405-6.21.528-.651.181-.625-.065-.556z" opacity=".5"/><path fill="none" stroke="#414042" d="M150.851 26.637s-.902.492-1.312 1.107M150.072 26.391s-1.025.287-1.393.615" stroke-width=".181" stroke-linecap="round" stroke-linejoin="round"/><path fill="#f4dbc5" d="M143.776 11.196c-.013.03-.024.062-.036.092.128 2.262 1.55 5.156 1.55 5.156.718-1.558 2.42-2.773 2.42-2.773-1.061-1.37-3.934-2.475-3.934-2.475z"/><ellipse cx="166.748" cy="19.457" rx="1.013" ry=".857" fill="#304454"/><path fill="#d78334" d="M22.094 62.775c.494.447 3.204 1.09 4.895-1.1 1.1-1.425-1.465-.687-2.052-.77-.603-.085-1.078-1.138-2.192-.874-1.204.286-1.721 1.776-.651 2.744zM24.672 64.477s.754-.978 1.034-.755c.171.137-.11 1.93-.39 2.488-.28.56-1.343-.112-1.343-.112l.7-1.62z"/><path fill="#f89c44" d="M18.816 64.064s-3.646-1.203-4.218-4.752c-.708-4.383-5.966-3.367-7.338-2.298 0 0 2.886 1.383 3.091 5.386.17 3.33 5.194 5.092 7.992 2.346l.473-.682z"/><path fill="#f4953f" d="M20.254 60.115s-3.88 4.056-2.942 6.471c.843 2.165 6.364 2.46 7.861 2.192.745-.133 1.82-4.078 1.23-4.278-.529-.18-1.176.802-1.176.802s-1.054-5.393-3.193-5.553c-2.139-.16-1.78.366-1.78.366z"/><path fill="url(#k)" d="M25.227 65.302s-1.036-5.294-3.137-5.545l.227 2.185s1.362 3.005 2.91 3.36z"/><path fill="#d14e3f" d="M22.355 59.817c-.627-.052-1.42-.124-1.982.38-.922.825-.663 2.381.74 2.72.393.095 1.96-.208 3.046-.978-.455-.99-1.055-1.874-1.804-2.122z"/><path fill="#fedcbd" d="M22.344 59.816a15.97 15.97 0 0 0-.25-.019l.224 2.145s.135.298.367.716a5.62 5.62 0 0 0 1.474-.719c-.457-.994-1.061-1.88-1.815-2.123z"/><path fill="url(#l)" d="M16.892 45.49s2.65-1.973 5.819-1.61c0 0 1.207-3.035 3.182-3.711 0 0 1.326 2.343 1.37 4.508 0 0 4.02 5.334 4.332 7.984 0 0 2.598-.052 3.169-.363 0 0 .992-.424.248.492-1.238 1.526-4.897 4.878-8.404 6.21-4.255 1.615-8.105 2.285-10.911 0-2.66-2.168-2.39-9.56-2.39-9.56s-1.507-3.065-1.56-5.351c1.682-.428 5.145 1.402 5.145 1.402z"/><path fill="#f89c44" d="M16.892 45.49s2.776-2.123 5.945-1.76c0 0 1.08-2.885 3.055-3.561 0 0 1.326 2.343 1.37 4.508 0 0 4.02 5.334 4.333 7.984 0 0 2.597-.052 3.169-.363 0 0 .99-.424.248.492-1.24 1.526-4.898 4.878-8.405 6.21-4.255 1.615-8.105 2.285-10.911 0-2.66-2.168-2.39-9.56-2.39-9.56s-1.506-3.065-1.558-5.351c1.68-.428 5.144 1.402 5.144 1.402z"/><path fill="#f4dbc5" d="M12.895 56.644l-.074.958-.802-.16v.856l-.909-.054v.856l-.963-.107-.349.918c-.895-2.108-2.538-2.897-2.538-2.897.95-.74 3.76-1.453 5.635-.37z"/><path fill="#f4953f" d="M20.158 62.775c.494.447 3.204 1.09 4.895-1.1 1.101-1.425-1.465-.687-2.052-.77-.603-.085-1.078-1.138-2.192-.874-1.204.286-1.72 1.776-.65 2.744z"/><path fill="#f4dbc5" d="M24.117 43.816s1.856.118 3.146.86c-.045-2.164-1.37-4.507-1.37-4.507s-1.86 1.509-1.776 3.647z"/><ellipse cx="23.659" cy="53.29" rx=".504" ry=".837" fill="#304454"/><ellipse cx="28.388" cy="51.596" rx=".378" ry=".837" fill="#304454" transform="rotate(-10.532 28.388 51.596)"/><path fill="#d78334" d="M24.718 41.187s.07-.186.205-.473a4.803 4.803 0 0 0-.493.453c.096.007.191.01.288.02zM34.947 52.233c-1.712 1.547-4.117 3.335-6.458 4.224-4.255 1.614-8.105 2.285-10.91 0-2.66-2.169-2.39-9.562-2.39-9.562s-.555-1.13-1.002-2.528c-.877-.271-1.79-.444-2.438-.278.051 2.285 1.557 5.35 1.557 5.35s-.27 7.392 2.39 9.56c2.807 2.285 6.656 1.615 10.912 0 3.506-1.332 7.167-4.683 8.405-6.21.528-.65.18-.625-.066-.556z" opacity=".5"/><path fill="none" stroke="#414042" d="M18.867 59.633s-.902.492-1.312 1.107M18.089 59.387s-1.025.287-1.393.615" stroke-width=".181" stroke-linecap="round" stroke-linejoin="round"/><path fill="#f4dbc5" d="M11.793 44.191c-.013.03-.024.062-.036.092.128 2.262 1.55 5.156 1.55 5.156.718-1.558 2.42-2.773 2.42-2.773-1.061-1.37-3.934-2.475-3.934-2.475z"/><ellipse cx="34.765" cy="52.453" rx="1.013" ry=".857" fill="#304454"/><path fill="#d78334" d="M55.09 62.775c.493.447 3.203 1.09 4.894-1.1 1.101-1.425-1.465-.687-2.052-.77-.603-.085-1.078-1.138-2.192-.874-1.204.286-1.72 1.776-.65 2.744zM57.668 64.477s.754-.978 1.034-.755c.171.137-.11 1.93-.39 2.488-.28.56-1.343-.112-1.343-.112l.7-1.62z"/><path fill="#f89c44" d="M51.811 64.064s-3.646-1.203-4.218-4.752c-.707-4.383-5.966-3.367-7.337-2.298 0 0 2.885 1.383 3.091 5.386.17 3.33 5.194 5.092 7.991 2.346l.473-.682z"/><path fill="#f4953f" d="M53.25 60.115s-3.881 4.056-2.942 6.471c.843 2.165 6.364 2.46 7.861 2.192.745-.133 1.819-4.078 1.23-4.278-.529-.18-1.176.802-1.176.802s-1.054-5.393-3.193-5.553c-2.139-.16-1.78.366-1.78.366z"/><path fill="url(#m)" d="M58.223 65.302s-1.036-5.294-3.137-5.545l.227 2.185s1.362 3.005 2.91 3.36z"/><path fill="#d14e3f" d="M55.351 59.817c-.627-.052-1.421-.124-1.982.38-.922.825-.663 2.381.74 2.72.393.095 1.959-.208 3.046-.978-.455-.99-1.055-1.874-1.804-2.122z"/><path fill="#fedcbd" d="M55.34 59.816a15.97 15.97 0 0 0-.25-.019l.223 2.145s.135.298.367.716a5.62 5.62 0 0 0 1.474-.719c-.457-.994-1.06-1.88-1.815-2.123z"/><path fill="url(#n)" d="M49.887 45.49s2.65-1.973 5.82-1.61c0 0 1.206-3.035 3.181-3.711 0 0 1.326 2.343 1.37 4.508 0 0 4.021 5.334 4.332 7.984 0 0 2.598-.052 3.17-.363 0 0 .991-.424.247.492-1.238 1.526-4.897 4.878-8.404 6.21-4.255 1.615-8.105 2.285-10.91 0-2.66-2.168-2.39-9.56-2.39-9.56s-1.508-3.065-1.56-5.351c1.681-.428 5.144 1.402 5.144 1.402z"/><path fill="#f89c44" d="M49.887 45.49s2.776-2.123 5.945-1.76c0 0 1.081-2.885 3.055-3.561 0 0 1.326 2.343 1.371 4.508 0 0 4.02 5.334 4.332 7.984 0 0 2.597-.052 3.17-.363 0 0 .99-.424.247.492-1.239 1.526-4.898 4.878-8.405 6.21-4.255 1.615-8.105 2.285-10.91 0-2.66-2.168-2.39-9.56-2.39-9.56s-1.507-3.065-1.559-5.351c1.681-.428 5.144 1.402 5.144 1.402z"/><path fill="#f4dbc5" d="M45.891 56.644l-.074.958-.802-.16v.856l-.909-.054v.856l-.963-.107-.349.918c-.895-2.108-2.538-2.897-2.538-2.897.95-.74 3.76-1.453 5.635-.37z"/><path fill="#f4953f" d="M53.154 62.775c.494.447 3.204 1.09 4.895-1.1 1.1-1.425-1.465-.687-2.052-.77-.603-.085-1.078-1.138-2.192-.874-1.204.286-1.721 1.776-.651 2.744z"/><path fill="#f4dbc5" d="M57.113 43.816s1.856.118 3.146.86c-.045-2.164-1.371-4.507-1.371-4.507s-1.86 1.509-1.775 3.647z"/><ellipse cx="56.654" cy="53.29" rx=".504" ry=".837" fill="#304454"/><ellipse cx="61.384" cy="51.596" rx=".378" ry=".837" fill="#304454" transform="rotate(-10.532 61.384 51.596)"/><path fill="#d78334" d="M57.714 41.187s.07-.186.205-.473a4.803 4.803 0 0 0-.493.453c.096.007.19.01.288.02zM67.943 52.233c-1.712 1.547-4.117 3.335-6.458 4.224-4.255 1.614-8.105 2.285-10.91 0-2.66-2.169-2.39-9.562-2.39-9.562s-.555-1.13-1.003-2.528c-.877-.271-1.79-.444-2.438-.278.052 2.285 1.558 5.35 1.558 5.35s-.27 7.392 2.39 9.56c2.806 2.285 6.656 1.615 10.911 0 3.507-1.332 7.167-4.683 8.405-6.21.528-.65.181-.625-.065-.556z" opacity=".5"/><path fill="none" stroke="#414042" d="M51.863 59.633s-.902.492-1.312 1.107M51.084 59.387s-1.025.287-1.393.615" stroke-width=".181" stroke-linecap="round" stroke-linejoin="round"/><path fill="#f4dbc5" d="M44.788 44.191l-.035.092c.127 2.262 1.55 5.156 1.55 5.156.718-1.558 2.42-2.773 2.42-2.773-1.062-1.37-3.934-2.475-3.934-2.475z"/><ellipse cx="67.76" cy="52.453" rx="1.013" ry=".857" fill="#304454"/><path fill="#d78334" d="M88.085 62.775c.494.447 3.204 1.09 4.895-1.1 1.101-1.425-1.465-.687-2.052-.77-.603-.085-1.078-1.138-2.192-.874-1.204.286-1.72 1.776-.65 2.744zM90.664 64.477s.754-.978 1.034-.755c.171.137-.111 1.93-.391 2.488-.28.56-1.342-.112-1.342-.112l.699-1.62z"/><path fill="#f89c44" d="M84.807 64.064s-3.646-1.203-4.218-4.752c-.707-4.383-5.966-3.367-7.337-2.298 0 0 2.885 1.383 3.091 5.386.17 3.33 5.194 5.092 7.991 2.346l.473-.682z"/><path fill="#f4953f" d="M86.246 60.115s-3.881 4.056-2.942 6.471c.843 2.165 6.364 2.46 7.86 2.192.746-.133 1.82-4.078 1.23-4.278-.528-.18-1.175.802-1.175.802s-1.054-5.393-3.193-5.553c-2.14-.16-1.78.366-1.78.366z"/><path fill="url(#o)" d="M91.218 65.302s-1.036-5.294-3.137-5.545l.227 2.185s1.362 3.005 2.91 3.36z"/><path fill="#d14e3f" d="M88.347 59.817c-.627-.052-1.421-.124-1.982.38-.922.825-.663 2.381.74 2.72.393.095 1.959-.208 3.046-.978-.455-.99-1.055-1.874-1.804-2.122z"/><path fill="#fedcbd" d="M88.335 59.816a15.97 15.97 0 0 0-.249-.019l.223 2.145s.135.298.367.716a5.62 5.62 0 0 0 1.474-.719c-.457-.994-1.06-1.88-1.815-2.123z"/><path fill="url(#p)" d="M82.883 45.49s2.65-1.973 5.82-1.61c0 0 1.206-3.035 3.181-3.711 0 0 1.326 2.343 1.37 4.508 0 0 4.021 5.334 4.332 7.984 0 0 2.598-.052 3.169-.363 0 0 .992-.424.248.492-1.238 1.526-4.897 4.878-8.404 6.21-4.255 1.615-8.105 2.285-10.91 0-2.66-2.168-2.39-9.56-2.39-9.56s-1.508-3.065-1.56-5.351c1.681-.428 5.144 1.402 5.144 1.402z"/><path fill="#f89c44" d="M82.883 45.49s2.776-2.123 5.945-1.76c0 0 1.081-2.885 3.055-3.561 0 0 1.326 2.343 1.371 4.508 0 0 4.02 5.334 4.332 7.984 0 0 2.597-.052 3.169-.363 0 0 .991-.424.248.492-1.239 1.526-4.898 4.878-8.405 6.21-4.255 1.615-8.105 2.285-10.91 0-2.66-2.168-2.39-9.56-2.39-9.56s-1.507-3.065-1.559-5.351c1.681-.428 5.144 1.402 5.144 1.402z"/><path fill="#f4dbc5" d="M78.887 56.644l-.074.958-.802-.16v.856l-.909-.054v.856l-.963-.107-.349.918c-.895-2.108-2.538-2.897-2.538-2.897.949-.74 3.759-1.453 5.635-.37z"/><path fill="#f4953f" d="M86.15 62.775c.494.447 3.204 1.09 4.895-1.1 1.1-1.425-1.465-.687-2.052-.77-.603-.085-1.078-1.138-2.192-.874-1.204.286-1.721 1.776-.651 2.744z"/><path fill="#f4dbc5" d="M90.109 43.816s1.856.118 3.146.86c-.045-2.164-1.371-4.507-1.371-4.507s-1.86 1.509-1.775 3.647z"/><ellipse cx="89.65" cy="53.29" rx=".504" ry=".837" fill="#304454"/><ellipse cx="94.38" cy="51.596" rx=".378" ry=".837" fill="#304454" transform="rotate(-10.532 94.38 51.596)"/><path fill="#d78334" d="M90.71 41.187s.07-.186.205-.473a4.803 4.803 0 0 0-.493.453c.096.007.19.01.288.02zM100.939 52.233c-1.712 1.547-4.117 3.335-6.458 4.224-4.255 1.614-8.105 2.285-10.91 0-2.66-2.169-2.39-9.562-2.39-9.562s-.555-1.13-1.003-2.528c-.877-.271-1.79-.444-2.438-.278.052 2.285 1.558 5.35 1.558 5.35s-.27 7.392 2.39 9.56c2.806 2.285 6.656 1.615 10.911 0 3.507-1.332 7.167-4.683 8.405-6.21.528-.65.181-.625-.065-.556z" opacity=".5"/><path fill="none" stroke="#414042" d="M84.859 59.633s-.902.492-1.312 1.107M84.08 59.387s-1.025.287-1.393.615" stroke-width=".181" stroke-linecap="round" stroke-linejoin="round"/><path fill="#f4dbc5" d="M77.784 44.191c-.013.03-.024.062-.036.092.128 2.262 1.55 5.156 1.55 5.156.718-1.558 2.42-2.773 2.42-2.773-1.06-1.37-3.934-2.475-3.934-2.475z"/><ellipse cx="100.756" cy="52.453" rx="1.013" ry=".857" fill="#304454"/><path fill="#d78334" d="M121.081 62.775c.494.447 3.204 1.09 4.895-1.1 1.101-1.425-1.465-.687-2.052-.77-.603-.085-1.078-1.138-2.192-.874-1.204.286-1.721 1.776-.651 2.744zM123.66 64.477s.754-.978 1.034-.755c.171.137-.111 1.93-.391 2.488-.28.56-1.342-.112-1.342-.112l.699-1.62z"/><path fill="#f89c44" d="M117.803 64.064s-3.646-1.203-4.218-4.752c-.707-4.383-5.966-3.367-7.337-2.298 0 0 2.885 1.383 3.091 5.386.17 3.33 5.194 5.092 7.991 2.346l.473-.682z"/><path fill="#f4953f" d="M119.242 60.115s-3.881 4.056-2.942 6.471c.843 2.165 6.364 2.46 7.861 2.192.745-.133 1.819-4.078 1.23-4.278-.529-.18-1.176.802-1.176.802s-1.054-5.393-3.193-5.553c-2.139-.16-1.78.366-1.78.366z"/><path fill="url(#q)" d="M124.214 65.302s-1.036-5.294-3.137-5.545l.227 2.185s1.362 3.005 2.91 3.36z"/><path fill="#d14e3f" d="M121.343 59.817c-.627-.052-1.421-.124-1.982.38-.922.825-.663 2.381.74 2.72.393.095 1.959-.208 3.046-.978-.455-.99-1.055-1.874-1.804-2.122z"/><path fill="#fedcbd" d="M121.331 59.816a15.97 15.97 0 0 0-.249-.019l.223 2.145s.135.298.367.716a5.62 5.62 0 0 0 1.474-.719c-.457-.994-1.061-1.88-1.815-2.123z"/><path fill="url(#r)" d="M115.879 45.49s2.65-1.973 5.819-1.61c0 0 1.207-3.035 3.182-3.711 0 0 1.326 2.343 1.37 4.508 0 0 4.021 5.334 4.332 7.984 0 0 2.598-.052 3.169-.363 0 0 .992-.424.248.492-1.238 1.526-4.897 4.878-8.404 6.21-4.255 1.615-8.105 2.285-10.911 0-2.66-2.168-2.39-9.56-2.39-9.56s-1.507-3.065-1.559-5.351c1.681-.428 5.144 1.402 5.144 1.402z"/><path fill="#f89c44" d="M115.879 45.49s2.776-2.123 5.945-1.76c0 0 1.081-2.885 3.055-3.561 0 0 1.326 2.343 1.371 4.508 0 0 4.02 5.334 4.332 7.984 0 0 2.597-.052 3.169-.363 0 0 .991-.424.248.492-1.239 1.526-4.898 4.878-8.405 6.21-4.255 1.615-8.105 2.285-10.911 0-2.66-2.168-2.389-9.56-2.389-9.56s-1.507-3.065-1.559-5.351c1.681-.428 5.144 1.402 5.144 1.402z"/><path fill="#f4dbc5" d="M111.883 56.644l-.074.958-.802-.16v.856l-.909-.054v.856l-.963-.107-.349.918c-.895-2.108-2.538-2.897-2.538-2.897.949-.74 3.759-1.453 5.635-.37z"/><path fill="#f4953f" d="M119.145 62.775c.494.447 3.204 1.09 4.895-1.1 1.101-1.425-1.465-.687-2.052-.77-.603-.085-1.078-1.138-2.192-.874-1.204.286-1.721 1.776-.651 2.744z"/><path fill="#f4dbc5" d="M123.105 43.816s1.856.118 3.146.86c-.045-2.164-1.371-4.507-1.371-4.507s-1.86 1.509-1.775 3.647z"/><ellipse cx="122.646" cy="53.29" rx=".504" ry=".837" fill="#304454"/><ellipse cx="127.376" cy="51.596" rx=".378" ry=".837" fill="#304454" transform="rotate(-10.532 127.376 51.596)"/><path fill="#d78334" d="M123.705 41.187s.07-.186.205-.473a4.803 4.803 0 0 0-.493.453c.096.007.191.01.288.02zM133.935 52.233c-1.712 1.547-4.117 3.335-6.458 4.224-4.255 1.614-8.105 2.285-10.911 0-2.66-2.169-2.39-9.562-2.39-9.562s-.554-1.13-1.002-2.528c-.877-.271-1.79-.444-2.438-.278.052 2.285 1.558 5.35 1.558 5.35s-.27 7.392 2.39 9.56c2.806 2.285 6.656 1.615 10.911 0 3.507-1.332 7.167-4.683 8.405-6.21.528-.65.181-.625-.065-.556z" opacity=".5"/><path fill="none" stroke="#414042" d="M117.855 59.633s-.902.492-1.312 1.107M117.076 59.387s-1.025.287-1.393.615" stroke-width=".181" stroke-linecap="round" stroke-linejoin="round"/><path fill="#f4dbc5" d="M110.78 44.191c-.013.03-.024.062-.036.092.128 2.262 1.55 5.156 1.55 5.156.718-1.558 2.42-2.773 2.42-2.773-1.061-1.37-3.934-2.475-3.934-2.475z"/><ellipse cx="133.752" cy="52.453" rx="1.013" ry=".857" fill="#304454"/><path fill="#d78334" d="M154.077 62.775c.494.447 3.204 1.09 4.895-1.1 1.101-1.425-1.465-.687-2.052-.77-.603-.085-1.078-1.138-2.192-.874-1.204.286-1.721 1.776-.651 2.744zM156.656 64.477s.754-.978 1.034-.755c.171.137-.111 1.93-.391 2.488-.28.56-1.342-.112-1.342-.112l.699-1.62z"/><path fill="#f89c44" d="M150.799 64.064s-3.646-1.203-4.218-4.752c-.707-4.383-5.966-3.367-7.337-2.298 0 0 2.885 1.383 3.091 5.386.17 3.33 5.194 5.092 7.991 2.346l.473-.682z"/><path fill="#f4953f" d="M152.237 60.115s-3.881 4.056-2.942 6.471c.843 2.165 6.364 2.46 7.861 2.192.745-.133 1.819-4.078 1.23-4.278-.529-.18-1.176.802-1.176.802s-1.054-5.393-3.193-5.553c-2.139-.16-1.78.366-1.78.366z"/><path fill="url(#s)" d="M157.21 65.302s-1.036-5.294-3.137-5.545l.227 2.185s1.362 3.005 2.91 3.36z"/><path fill="#d14e3f" d="M154.338 59.817c-.627-.052-1.421-.124-1.982.38-.922.825-.663 2.381.74 2.72.393.095 1.959-.208 3.046-.978-.455-.99-1.055-1.874-1.804-2.122z"/><path fill="#fedcbd" d="M154.327 59.816a15.97 15.97 0 0 0-.249-.019l.223 2.145s.135.298.367.716a5.62 5.62 0 0 0 1.474-.719c-.457-.994-1.061-1.88-1.815-2.123z"/><path fill="url(#t)" d="M148.875 45.49s2.65-1.973 5.819-1.61c0 0 1.207-3.035 3.182-3.711 0 0 1.326 2.343 1.37 4.508 0 0 4.021 5.334 4.332 7.984 0 0 2.598-.052 3.169-.363 0 0 .992-.424.248.492-1.238 1.526-4.897 4.878-8.404 6.21-4.255 1.615-8.105 2.285-10.911 0-2.66-2.168-2.39-9.56-2.39-9.56s-1.507-3.065-1.559-5.351c1.681-.428 5.144 1.402 5.144 1.402z"/><path fill="#f89c44" d="M148.875 45.49s2.776-2.123 5.945-1.76c0 0 1.081-2.885 3.055-3.561 0 0 1.326 2.343 1.371 4.508 0 0 4.02 5.334 4.332 7.984 0 0 2.597-.052 3.169-.363 0 0 .991-.424.248.492-1.239 1.526-4.898 4.878-8.405 6.21-4.255 1.615-8.105 2.285-10.911 0-2.66-2.168-2.389-9.56-2.389-9.56s-1.507-3.065-1.559-5.351c1.681-.428 5.144 1.402 5.144 1.402z"/><path fill="#f4dbc5" d="M144.879 56.644l-.074.958-.802-.16v.856l-.909-.054v.856l-.963-.107-.349.918c-.895-2.108-2.538-2.897-2.538-2.897.949-.74 3.759-1.453 5.635-.37z"/><path fill="#f4953f" d="M152.141 62.775c.494.447 3.204 1.09 4.895-1.1 1.101-1.425-1.465-.687-2.052-.77-.603-.085-1.078-1.138-2.192-.874-1.204.286-1.721 1.776-.651 2.744z"/><path fill="#f4dbc5" d="M156.1 43.816s1.856.118 3.146.86c-.045-2.164-1.371-4.507-1.371-4.507s-1.86 1.509-1.775 3.647z"/><ellipse cx="155.642" cy="53.29" rx=".504" ry=".837" fill="#304454"/><ellipse cx="160.372" cy="51.596" rx=".378" ry=".837" fill="#304454" transform="rotate(-10.532 160.372 51.596)"/><path fill="#d78334" d="M156.701 41.187s.07-.186.205-.473a4.803 4.803 0 0 0-.493.453c.096.007.191.01.288.02zM166.931 52.233c-1.712 1.547-4.117 3.335-6.458 4.224-4.255 1.614-8.105 2.285-10.911 0-2.66-2.169-2.39-9.562-2.39-9.562s-.554-1.13-1.002-2.528c-.877-.271-1.79-.444-2.438-.278.052 2.285 1.558 5.35 1.558 5.35s-.27 7.392 2.39 9.56c2.806 2.285 6.656 1.615 10.911 0 3.507-1.332 7.167-4.683 8.405-6.21.528-.65.181-.625-.065-.556z" opacity=".5"/><path fill="none" stroke="#414042" d="M150.851 59.633s-.902.492-1.312 1.107M150.072 59.387s-1.025.287-1.393.615" stroke-width=".181" stroke-linecap="round" stroke-linejoin="round"/><path fill="#f4dbc5" d="M143.776 44.191c-.013.03-.024.062-.036.092.128 2.262 1.55 5.156 1.55 5.156.718-1.558 2.42-2.773 2.42-2.773-1.061-1.37-3.934-2.475-3.934-2.475z"/><ellipse cx="166.748" cy="52.453" rx="1.013" ry=".857" fill="#304454"/></svg>
