<svg xmlns="http://www.w3.org/2000/svg" width="144" height="180" viewBox="0 0 144 180"><path fill="#304454" d="M46.926 56.791c-1.005.67-2.103 1.155-3.324 1.493a8.66 8.66 0 0 1-1.772.319c-.532.036-1.023-.071-1.527-.06.296.488 1.125.614 1.8.518-.07.153-.313.236-.44.367.32.331 6.22 1.054 6.877.736.456-.221 1.025-.449 1.253-.842-.123.229-.442.446-.502.671.4.069 1.169-.506 1.472-.71.406-.272.785-.531 1.085-.871 1.05-1.192 1.693-2.909 1.536-4.259-.073-.631-.414-1.439-1.191-1.726-.75-.278-4.502 3.854-5.267 4.364z"/><path fill="#f89c44" d="M58.367 65.663c.322.114.78 1.912.943 2.315.12.294.172.588-.23.64-.238.03-.836-.08-.802.338.035.447.762.351 1.028.478.191.091.65.132.876.163.364.051 1.23.062 1.215-.163.297-.109.823-.062 1.153.02.658.09.345-.44.181-.52-.26-.13-.535-.283-.819-.383-.384-.136-.778-.229-1.156-.396-1.055-.036-1.444-2.689-1.375-2.848M51.728 65.663c-.003.537-.262 2.266-.39 2.546-.319.684-1.434.36-1.94.801-.397.344.122.441.408.412.311-.03 1.14.062 1.335.172.35.196 1.015-.162 1.091-.214.06-.04.846.105 1.241.11.568.006.022-.588-.236-.708-1.42-.503-.875-2.355-.618-3.226"/><path fill="#304454" d="M64.585 58.217c.046-.301-.052-.701-.075-1.008-.027-.368-.03-.734-.166-1.082-.154-4.705-4.131-3.858-2.357-6.925.245-.534.76-1.544.372-3.603-.99-5.243-5.258-5.47-5.538-5.283.473-.316 1.037-.273 1.575-.241.543.032 1.046.279 1.566.349-.65-.538-1.594-.875-2.448-.883-.497-.004-.955.018-1.441.127-.362.082-.665.26-1.004.378.3-.872 1.384-.991 2.198-.984-.444-.192-1.218-.006-1.655.153-.445.163-1.016.382-1.303.77.228-.441.372-.805.803-1.11.28-.198.64-.406.998-.527-.618.154-1.228.323-1.744.747-.38.312-.637.796-.777 1.266.007-.39.034-.74-.217-1.058-.3-.378-.606-.293-1.01-.181.322.053.727.205.848.58.112.346-.026.942-.314 1.12-6.352 3.978-1.287 10.38-1.174 10.464.046.035.009 1.057-.167 1.384-.252 1.316-9.221 15.169 4.547 16.606 4.534.473 8.254-3.32 8.254-7.413 0-.971-.35-3.772-.51-4.38.083.319.422.574.424.922.01-.347-.081-.646-.191-.954.037.039.077.077.109.11.185.207.273.415.397.656z"/><path fill="#304454" d="M61.171 55.418c.212.302.375.666.631.894.215-.488.254-.224.533.183.204.297.35.402.611.563.692.427 1.315 1.295 1.805 2.072.645 1.023 1.101 2.132 1.408 3.362.151.602.248 1.156.274 1.779.023.533-.096 1.02-.099 1.525.496-.283.642-1.11.564-1.788.152.075.228.32.356.45.98-2.97.74-9.151-4.976-11.851-.575-.271-1.449.377-1.756 1.147-.297.743.112 2.005.766 2.299.005-.171-.015-.49-.117-.635z"/><path fill="#efefef" d="M60.762 46.815a2.655 2.655 0 0 0-.177-.72c.199-.636.219-1.407.008-2.194-.453-1.695-1.792-2.808-2.99-2.488-.903.243-1.467 1.232-1.496 2.43-.03.001-.061.001-.092.004a5.676 5.676 0 0 0-.763.131c-.394-.919-1.105-1.535-1.92-1.535-1.24 0-2.244 1.422-2.244 3.175 0 1.082.383 2.036.967 2.61.502 1.58 2.437 2.636 4.629 2.42 2.437-.239 4.262-1.956 4.078-3.834z"/><ellipse cx="53.408" cy="45.714" rx=".461" ry=".641" fill="#304454" transform="rotate(-8.893 53.408 45.714)"/><ellipse cx="58.797" cy="44.583" rx=".461" ry=".641" fill="#304454" transform="rotate(-8.893 58.797 44.583)"/><ellipse cx="56.31" cy="60.712" rx="8.423" ry="6.145" fill="#efefef" transform="rotate(84.388 56.31 60.712)"/><path fill="#f89c44" d="M57.307 47.448c-.512.556-1.232.51-1.913.414l-.807-.046c.178-.023.745.546.945.691.317.23.639.453 1.019.525.323.062.792.177 1.083-.035.26-.19.43-.637.547-.927.202-.497.18-1.08.436-1.562-.56.007-.976.578-1.31.94z"/><path fill="#d14e3f" d="M55.186 47.955c.634.159 1.299 1.075 2.004.783.575-.237.867-1.346 1.032-1.89.017-.056.045-.107.072-.158-.55.19-.855.683-1.288 1.018-.206.158-.51.217-.761.242-.285.028-.428-.077-.69-.133"/><path fill="#f89c44" d="M54.49 47.82v-.023c.39.12.815.145 1.22.23.088.02.19.043.295.064.285.058.612.106.857.05.327-.072.55-.401.731-.672.174-.26.353-.442.583-.612.15-.111.326-.2.44-.351-.102-.158-.346-.121-.51-.097-.23.035-.37.059-.599-.012-.257-.08-.482-.19-.733-.232-.608-.101-1 .297-1.322.755a1.626 1.626 0 0 1-.379.363c-.14.103-.283.199-.404.324-.067.068-.11.143-.18.213z"/><path fill="#304454" d="M82.926 56.791c-1.005.67-2.103 1.155-3.324 1.493a8.66 8.66 0 0 1-1.772.319c-.532.036-1.023-.071-1.527-.06.296.488 1.125.614 1.8.518-.07.153-.313.236-.44.367.32.331 6.22 1.054 6.877.736.456-.221 1.025-.449 1.253-.842-.123.229-.442.446-.502.671.4.069 1.169-.506 1.472-.71.406-.272.785-.531 1.085-.871 1.05-1.192 1.693-2.909 1.536-4.259-.073-.631-.414-1.439-1.191-1.726-.75-.278-4.502 3.854-5.267 4.364z"/><path fill="#f89c44" d="M94.367 65.663c.322.114.78 1.912.943 2.315.12.294.172.588-.23.64-.238.03-.836-.08-.802.338.035.447.762.351 1.028.478.191.091.65.132.876.163.364.051 1.23.062 1.215-.163.297-.109.823-.062 1.153.02.658.09.345-.44.181-.52-.26-.13-.535-.283-.819-.383-.384-.136-.778-.229-1.156-.396-1.055-.036-1.444-2.689-1.375-2.848M87.728 65.663c-.003.537-.262 2.266-.39 2.546-.319.684-1.434.36-1.94.801-.397.344.122.441.408.412.311-.03 1.14.062 1.335.172.35.196 1.015-.162 1.091-.214.06-.04.846.105 1.241.11.568.006.022-.588-.236-.708-1.42-.503-.875-2.355-.618-3.226"/><path fill="#304454" d="M100.585 58.217c.046-.301-.052-.701-.075-1.008-.027-.368-.029-.734-.166-1.082-.154-4.705-4.131-3.858-2.357-6.925.245-.534.76-1.544.372-3.603-.99-5.243-5.258-5.47-5.538-5.283.473-.316 1.037-.273 1.575-.241.543.032 1.046.279 1.566.349-.65-.538-1.594-.875-2.448-.883-.497-.004-.955.018-1.441.127-.362.082-.665.26-1.004.378.3-.872 1.384-.991 2.198-.984-.444-.192-1.218-.006-1.655.153-.445.163-1.016.382-1.303.77.228-.441.372-.805.803-1.11.28-.198.64-.406.998-.527-.618.154-1.228.323-1.744.747-.38.312-.637.796-.777 1.266.007-.39.034-.74-.217-1.058-.3-.378-.606-.293-1.01-.181.322.053.727.205.848.58.112.346-.026.942-.314 1.12-6.352 3.978-1.287 10.38-1.174 10.464.046.035.009 1.057-.167 1.384-.252 1.316-9.221 15.169 4.547 16.606 4.534.473 8.254-3.32 8.254-7.413 0-.971-.349-3.772-.51-4.38.083.319.422.574.424.922.01-.347-.081-.646-.191-.954.037.039.077.077.109.11.185.207.273.415.397.656z"/><path fill="#304454" d="M97.171 55.418c.212.302.375.666.631.894.215-.488.254-.224.533.183.204.297.35.402.611.563.692.427 1.315 1.295 1.805 2.072.645 1.023 1.101 2.132 1.408 3.362.151.602.248 1.156.274 1.779.023.533-.096 1.02-.099 1.525.496-.283.642-1.11.564-1.788.152.075.228.32.356.45.979-2.97.74-9.151-4.976-11.851-.575-.271-1.449.377-1.756 1.147-.297.743.112 2.005.766 2.299.005-.171-.015-.49-.117-.635z"/><path fill="#efefef" d="M96.762 46.815a2.655 2.655 0 0 0-.177-.72c.199-.636.219-1.407.008-2.194-.453-1.695-1.792-2.808-2.99-2.488-.903.243-1.467 1.232-1.496 2.43-.03.001-.061.001-.092.004a5.676 5.676 0 0 0-.763.131c-.394-.919-1.105-1.535-1.92-1.535-1.24 0-2.244 1.422-2.244 3.175 0 1.082.383 2.036.967 2.61.502 1.58 2.437 2.636 4.629 2.42 2.437-.239 4.262-1.956 4.078-3.834z"/><ellipse cx="89.408" cy="45.714" rx=".461" ry=".641" fill="#304454" transform="rotate(-8.893 89.408 45.714)"/><ellipse cx="94.797" cy="44.583" rx=".461" ry=".641" fill="#304454" transform="rotate(-8.893 94.797 44.583)"/><ellipse cx="92.31" cy="60.712" rx="8.423" ry="6.145" fill="#efefef" transform="rotate(84.388 92.31 60.712)"/><path fill="#f89c44" d="M93.307 47.448c-.512.556-1.232.51-1.913.414l-.807-.046c.178-.023.745.546.945.691.317.23.639.453 1.019.525.323.062.792.177 1.083-.035.26-.19.43-.637.547-.927.202-.497.18-1.08.436-1.562-.56.007-.976.578-1.31.94z"/><path fill="#d14e3f" d="M91.186 47.955c.634.159 1.299 1.075 2.004.783.575-.237.867-1.346 1.032-1.89.017-.056.045-.107.072-.158-.55.19-.855.683-1.288 1.018-.206.158-.51.217-.761.242-.285.028-.428-.077-.69-.133"/><path fill="#f89c44" d="M90.49 47.82v-.023c.39.12.815.145 1.22.23.088.02.19.043.295.064.285.058.612.106.857.05.327-.072.55-.401.731-.672.174-.26.353-.442.583-.612.15-.111.326-.2.44-.351-.102-.158-.346-.121-.51-.097-.23.035-.37.059-.599-.012-.257-.08-.482-.19-.733-.232-.608-.101-1 .297-1.322.755a1.626 1.626 0 0 1-.379.363c-.14.103-.283.199-.404.324-.067.068-.11.143-.18.213z"/><path fill="#304454" d="M118.926 56.791c-1.005.67-2.103 1.155-3.324 1.493a8.66 8.66 0 0 1-1.772.319c-.532.036-1.023-.071-1.527-.06.296.488 1.125.614 1.801.518-.071.153-.314.236-.441.367.32.331 6.221 1.054 6.877.736.456-.221 1.025-.449 1.253-.842-.123.229-.442.446-.502.671.4.069 1.169-.506 1.472-.71.406-.272.785-.531 1.085-.871 1.05-1.192 1.693-2.909 1.536-4.259-.073-.631-.414-1.439-1.191-1.726-.75-.278-4.502 3.854-5.267 4.364z"/><path fill="#f89c44" d="M130.367 65.663c.322.114.78 1.912.943 2.315.12.294.172.588-.231.64-.237.03-.835-.08-.801.338.035.447.762.351 1.028.478.191.091.65.132.876.163.364.051 1.23.062 1.215-.163.297-.109.823-.062 1.153.02.658.09.345-.44.181-.52-.261-.13-.535-.283-.819-.383-.384-.136-.778-.229-1.156-.396-1.055-.036-1.444-2.689-1.375-2.848M123.728 65.663c-.003.537-.262 2.266-.391 2.546-.318.684-1.433.36-1.94.801-.396.344.123.441.409.412.311-.03 1.139.062 1.335.172.35.196 1.015-.162 1.091-.214.059-.04.846.105 1.241.11.568.006.022-.588-.236-.708-1.42-.503-.875-2.355-.618-3.226"/><path fill="#304454" d="M136.585 58.217c.046-.301-.052-.701-.075-1.008-.027-.368-.029-.734-.166-1.082-.154-4.705-4.131-3.858-2.357-6.925.245-.534.76-1.544.372-3.603-.989-5.243-5.258-5.47-5.538-5.283.473-.316 1.037-.273 1.575-.241.543.032 1.046.279 1.566.349-.65-.538-1.594-.875-2.448-.883-.497-.004-.955.018-1.441.127-.362.082-.665.26-1.004.378.301-.872 1.384-.991 2.198-.984-.444-.192-1.218-.006-1.655.153-.445.163-1.016.382-1.303.77.228-.441.372-.805.803-1.11.281-.198.641-.406.998-.527-.618.154-1.228.323-1.744.747-.379.312-.637.796-.777 1.266.007-.39.034-.74-.217-1.058-.299-.378-.606-.293-1.009-.181.321.053.726.205.847.58.112.346-.026.942-.314 1.12-6.352 3.978-1.287 10.38-1.174 10.464.046.035.009 1.057-.167 1.384-.252 1.316-9.221 15.169 4.547 16.606 4.534.473 8.254-3.32 8.254-7.413 0-.971-.349-3.772-.509-4.38.082.319.421.574.423.922.01-.347-.081-.646-.191-.954.037.039.077.077.109.11.185.207.273.415.397.656z"/><path fill="#304454" d="M133.171 55.418c.212.302.375.666.631.894.215-.488.254-.224.533.183.204.297.35.402.611.563.692.427 1.315 1.295 1.805 2.072.645 1.023 1.101 2.132 1.408 3.362.151.602.248 1.156.274 1.779.023.533-.096 1.02-.099 1.525.496-.283.642-1.11.564-1.788.152.075.228.32.356.45.979-2.97.74-9.151-4.976-11.851-.575-.271-1.449.377-1.756 1.147-.297.743.112 2.005.766 2.299.005-.171-.015-.49-.117-.635z"/><path fill="#efefef" d="M132.762 46.815a2.655 2.655 0 0 0-.177-.72c.199-.636.219-1.407.008-2.194-.453-1.695-1.792-2.808-2.99-2.488-.903.243-1.467 1.232-1.496 2.43-.03.001-.061.001-.092.004a5.676 5.676 0 0 0-.763.131c-.394-.919-1.105-1.535-1.92-1.535-1.239 0-2.244 1.422-2.244 3.175 0 1.082.383 2.036.967 2.61.502 1.58 2.437 2.636 4.629 2.42 2.437-.239 4.262-1.956 4.078-3.834z"/><ellipse cx="125.408" cy="45.714" rx=".461" ry=".641" fill="#304454" transform="rotate(-8.893 125.408 45.714)"/><ellipse cx="130.797" cy="44.583" rx=".461" ry=".641" fill="#304454" transform="rotate(-8.893 130.797 44.583)"/><ellipse cx="128.31" cy="60.712" rx="8.423" ry="6.145" fill="#efefef" transform="rotate(84.388 128.31 60.712)"/><path fill="#f89c44" d="M129.307 47.448c-.512.556-1.232.51-1.913.414l-.807-.046c.178-.023.745.546.945.691.317.23.639.453 1.019.525.323.062.792.177 1.083-.035.26-.19.43-.637.547-.927.202-.497.181-1.08.436-1.562-.559.007-.976.578-1.31.94z"/><path fill="#d14e3f" d="M127.186 47.955c.634.159 1.299 1.075 2.004.783.575-.237.867-1.346 1.032-1.89.017-.056.045-.107.072-.158-.55.19-.855.683-1.288 1.018-.206.158-.509.217-.761.242-.285.028-.428-.077-.69-.133"/><path fill="#f89c44" d="M126.489 47.82v-.023c.391.12.816.145 1.221.23.088.02.189.043.295.064.285.058.612.106.857.05.327-.072.55-.401.731-.672.174-.26.353-.442.583-.612.15-.111.326-.2.44-.351-.102-.158-.346-.121-.51-.097-.23.035-.37.059-.599-.012-.257-.08-.482-.19-.733-.232-.608-.101-1 .297-1.322.755a1.626 1.626 0 0 1-.379.363c-.14.103-.283.199-.404.324-.067.068-.111.143-.18.213z"/><path fill="#304454" d="M46.926 92.791c-1.005.67-2.103 1.155-3.324 1.493a8.66 8.66 0 0 1-1.772.319c-.532.036-1.023-.071-1.527-.06.296.488 1.125.614 1.8.518-.07.153-.313.236-.44.367.32.331 6.22 1.054 6.877.736.456-.221 1.025-.449 1.253-.842-.123.229-.442.446-.502.671.4.069 1.169-.506 1.472-.71.406-.272.785-.531 1.085-.871 1.05-1.192 1.693-2.909 1.536-4.259-.073-.631-.414-1.439-1.191-1.726-.75-.278-4.502 3.854-5.267 4.364z"/><path fill="#f89c44" d="M58.367 101.663c.322.114.78 1.912.943 2.315.12.294.172.588-.23.64-.238.03-.836-.081-.802.338.035.447.762.351 1.028.478.191.091.65.132.876.163.364.051 1.23.062 1.215-.163.297-.109.823-.062 1.153.02.658.09.345-.44.181-.521-.26-.129-.535-.282-.819-.382-.384-.136-.778-.229-1.156-.396-1.055-.036-1.444-2.689-1.375-2.848M51.728 101.663c-.003.537-.262 2.266-.39 2.546-.319.684-1.434.359-1.94.801-.397.344.122.441.408.412.311-.03 1.14.062 1.335.172.35.196 1.015-.162 1.091-.214.06-.04.846.105 1.241.11.568.006.022-.588-.236-.708-1.42-.503-.875-2.355-.618-3.226"/><path fill="#304454" d="M64.585 94.217c.046-.301-.052-.701-.075-1.008-.027-.368-.03-.734-.166-1.082-.154-4.705-4.131-3.858-2.357-6.925.245-.534.76-1.544.372-3.603-.99-5.243-5.258-5.47-5.538-5.283.473-.316 1.037-.273 1.575-.241.543.032 1.046.279 1.566.349-.65-.538-1.594-.875-2.448-.883-.497-.004-.955.018-1.441.127-.362.082-.665.26-1.004.378.3-.872 1.384-.991 2.198-.984-.444-.192-1.218-.006-1.655.153-.445.163-1.016.382-1.303.77.228-.441.372-.805.803-1.11.28-.198.64-.406.998-.527-.618.154-1.228.323-1.744.747-.38.312-.637.796-.777 1.266.007-.39.034-.74-.217-1.058-.3-.378-.606-.293-1.01-.181.322.053.727.205.848.58.112.346-.026.942-.314 1.12-6.352 3.978-1.287 10.38-1.174 10.464.046.035.009 1.057-.167 1.384-.252 1.316-9.221 15.169 4.547 16.606 4.534.473 8.254-3.319 8.254-7.413 0-.971-.35-3.772-.51-4.38.083.319.422.574.424.922.01-.347-.081-.646-.191-.954.037.039.077.077.109.11.185.207.273.415.397.656z"/><path fill="#304454" d="M61.171 91.418c.212.302.375.666.631.894.215-.488.254-.224.533.183.204.297.35.402.611.563.692.427 1.315 1.295 1.805 2.072.645 1.023 1.101 2.132 1.408 3.362.151.602.248 1.156.274 1.779.023.533-.096 1.02-.099 1.525.496-.283.642-1.11.564-1.788.152.075.228.32.356.45.98-2.97.74-9.151-4.976-11.851-.575-.271-1.449.377-1.756 1.147-.297.743.112 2.005.766 2.299.005-.171-.015-.49-.117-.635z"/><path fill="#efefef" d="M60.762 82.814a2.655 2.655 0 0 0-.177-.72c.199-.634.219-1.406.008-2.194-.453-1.694-1.792-2.806-2.99-2.487-.903.243-1.467 1.231-1.496 2.43-.03.001-.061.001-.092.004a5.676 5.676 0 0 0-.763.132c-.394-.92-1.105-1.535-1.92-1.535-1.24 0-2.244 1.421-2.244 3.174 0 1.083.383 2.037.967 2.61.502 1.58 2.437 2.636 4.629 2.42 2.437-.239 4.262-1.956 4.078-3.834z"/><ellipse cx="53.408" cy="81.714" rx=".461" ry=".641" fill="#304454" transform="rotate(-8.893 53.408 81.714)"/><ellipse cx="58.797" cy="80.583" rx=".461" ry=".641" fill="#304454" transform="rotate(-8.893 58.797 80.583)"/><ellipse cx="56.31" cy="96.712" rx="8.423" ry="6.145" fill="#efefef" transform="rotate(84.388 56.31 96.712)"/><path fill="#f89c44" d="M57.307 83.448c-.512.556-1.232.51-1.913.414l-.807-.046c.178-.023.745.546.945.691.317.23.639.453 1.019.525.323.062.792.177 1.083-.035.26-.19.43-.637.547-.927.202-.497.18-1.08.436-1.562-.56.007-.976.578-1.31.94z"/><path fill="#d14e3f" d="M55.186 83.955c.634.159 1.299 1.075 2.004.783.575-.237.867-1.346 1.032-1.89.017-.056.045-.107.072-.158-.55.19-.855.683-1.288 1.018-.206.158-.51.217-.761.242-.285.028-.428-.077-.69-.133"/><path fill="#f89c44" d="M54.49 83.82v-.023c.39.12.815.145 1.22.23.088.02.19.043.295.064.285.058.612.106.857.05.327-.072.55-.401.731-.672.174-.26.353-.442.583-.612.15-.111.326-.2.44-.351-.102-.158-.346-.121-.51-.097-.23.035-.37.059-.599-.012-.257-.08-.482-.19-.733-.232-.608-.101-1 .297-1.322.755a1.626 1.626 0 0 1-.379.363c-.14.103-.283.199-.404.324-.067.068-.11.143-.18.213z"/><path fill="#304454" d="M82.926 92.791c-1.005.67-2.103 1.155-3.324 1.493a8.66 8.66 0 0 1-1.772.319c-.532.036-1.023-.071-1.527-.06.296.488 1.125.614 1.8.518-.07.153-.313.236-.44.367.32.331 6.22 1.054 6.877.736.456-.221 1.025-.449 1.253-.842-.123.229-.442.446-.502.671.4.069 1.169-.506 1.472-.71.406-.272.785-.531 1.085-.871 1.05-1.192 1.693-2.909 1.536-4.259-.073-.631-.414-1.439-1.191-1.726-.75-.278-4.502 3.854-5.267 4.364z"/><path fill="#f89c44" d="M94.367 101.663c.322.114.78 1.912.943 2.315.12.294.172.588-.23.64-.238.03-.836-.081-.802.338.035.447.762.351 1.028.478.191.091.65.132.876.163.364.051 1.23.062 1.215-.163.297-.109.823-.062 1.153.02.658.09.345-.44.181-.521-.26-.129-.535-.282-.819-.382-.384-.136-.778-.229-1.156-.396-1.055-.036-1.444-2.689-1.375-2.848M87.728 101.663c-.003.537-.262 2.266-.39 2.546-.319.684-1.434.359-1.94.801-.397.344.122.441.408.412.311-.03 1.14.062 1.335.172.35.196 1.015-.162 1.091-.214.06-.04.846.105 1.241.11.568.006.022-.588-.236-.708-1.42-.503-.875-2.355-.618-3.226"/><path fill="#304454" d="M100.585 94.217c.046-.301-.052-.701-.075-1.008-.027-.368-.029-.734-.166-1.082-.154-4.705-4.131-3.858-2.357-6.925.245-.534.76-1.544.372-3.603-.99-5.243-5.258-5.47-5.538-5.283.473-.316 1.037-.273 1.575-.241.543.032 1.046.279 1.566.349-.65-.538-1.594-.875-2.448-.883-.497-.004-.955.018-1.441.127-.362.082-.665.26-1.004.378.3-.872 1.384-.991 2.198-.984-.444-.192-1.218-.006-1.655.153-.445.163-1.016.382-1.303.77.228-.441.372-.805.803-1.11.28-.198.64-.406.998-.527-.618.154-1.228.323-1.744.747-.38.312-.637.796-.777 1.266.007-.39.034-.74-.217-1.058-.3-.378-.606-.293-1.01-.181.322.053.727.205.848.58.112.346-.026.942-.314 1.12-6.352 3.978-1.287 10.38-1.174 10.464.046.035.009 1.057-.167 1.384-.252 1.316-9.221 15.169 4.547 16.606 4.534.473 8.254-3.319 8.254-7.413 0-.971-.349-3.772-.51-4.38.083.319.422.574.424.922.01-.347-.081-.646-.191-.954.037.039.077.077.109.11.185.207.273.415.397.656z"/><path fill="#304454" d="M97.171 91.418c.212.302.375.666.631.894.215-.488.254-.224.533.183.204.297.35.402.611.563.692.427 1.315 1.295 1.805 2.072.645 1.023 1.101 2.132 1.408 3.362.151.602.248 1.156.274 1.779.023.533-.096 1.02-.099 1.525.496-.283.642-1.11.564-1.788.152.075.228.32.356.45.979-2.97.74-9.151-4.976-11.851-.575-.271-1.449.377-1.756 1.147-.297.743.112 2.005.766 2.299.005-.171-.015-.49-.117-.635z"/><path fill="#efefef" d="M96.762 82.814a2.655 2.655 0 0 0-.177-.72c.199-.634.219-1.406.008-2.194-.453-1.694-1.792-2.806-2.99-2.487-.903.243-1.467 1.231-1.496 2.43-.03.001-.061.001-.092.004a5.676 5.676 0 0 0-.763.132c-.394-.92-1.105-1.535-1.92-1.535-1.24 0-2.244 1.421-2.244 3.174 0 1.083.383 2.037.967 2.61.502 1.58 2.437 2.636 4.629 2.42 2.437-.239 4.262-1.956 4.078-3.834z"/><ellipse cx="89.408" cy="81.714" rx=".461" ry=".641" fill="#304454" transform="rotate(-8.893 89.408 81.714)"/><ellipse cx="94.797" cy="80.583" rx=".461" ry=".641" fill="#304454" transform="rotate(-8.893 94.797 80.583)"/><ellipse cx="92.31" cy="96.712" rx="8.423" ry="6.145" fill="#efefef" transform="rotate(84.388 92.31 96.712)"/><path fill="#f89c44" d="M93.307 83.448c-.512.556-1.232.51-1.913.414l-.807-.046c.178-.023.745.546.945.691.317.23.639.453 1.019.525.323.062.792.177 1.083-.035.26-.19.43-.637.547-.927.202-.497.18-1.08.436-1.562-.56.007-.976.578-1.31.94z"/><path fill="#d14e3f" d="M91.186 83.955c.634.159 1.299 1.075 2.004.783.575-.237.867-1.346 1.032-1.89.017-.056.045-.107.072-.158-.55.19-.855.683-1.288 1.018-.206.158-.51.217-.761.242-.285.028-.428-.077-.69-.133"/><path fill="#f89c44" d="M90.49 83.82v-.023c.39.12.815.145 1.22.23.088.02.19.043.295.064.285.058.612.106.857.05.327-.072.55-.401.731-.672.174-.26.353-.442.583-.612.15-.111.326-.2.44-.351-.102-.158-.346-.121-.51-.097-.23.035-.37.059-.599-.012-.257-.08-.482-.19-.733-.232-.608-.101-1 .297-1.322.755a1.626 1.626 0 0 1-.379.363c-.14.103-.283.199-.404.324-.067.068-.11.143-.18.213z"/><path fill="#304454" d="M118.926 92.791c-1.005.67-2.103 1.155-3.324 1.493a8.66 8.66 0 0 1-1.772.319c-.532.036-1.023-.071-1.527-.06.296.488 1.125.614 1.801.518-.071.153-.314.236-.441.367.32.331 6.221 1.054 6.877.736.456-.221 1.025-.449 1.253-.842-.123.229-.442.446-.502.671.4.069 1.169-.506 1.472-.71.406-.272.785-.531 1.085-.871 1.05-1.192 1.693-2.909 1.536-4.259-.073-.631-.414-1.439-1.191-1.726-.75-.278-4.502 3.854-5.267 4.364z"/><path fill="#f89c44" d="M130.367 101.663c.322.114.78 1.912.943 2.315.12.294.172.588-.231.64-.237.03-.835-.081-.801.338.035.447.762.351 1.028.478.191.091.65.132.876.163.364.051 1.23.062 1.215-.163.297-.109.823-.062 1.153.02.658.09.345-.44.181-.521-.261-.129-.535-.282-.819-.382-.384-.136-.778-.229-1.156-.396-1.055-.036-1.444-2.689-1.375-2.848M123.728 101.663c-.003.537-.262 2.266-.391 2.546-.318.684-1.433.359-1.94.801-.396.344.123.441.409.412.311-.03 1.139.062 1.335.172.35.196 1.015-.162 1.091-.214.059-.04.846.105 1.241.11.568.006.022-.588-.236-.708-1.42-.503-.875-2.355-.618-3.226"/><path fill="#304454" d="M136.585 94.217c.046-.301-.052-.701-.075-1.008-.027-.368-.029-.734-.166-1.082-.154-4.705-4.131-3.858-2.357-6.925.245-.534.76-1.544.372-3.603-.989-5.243-5.258-5.47-5.538-5.283.473-.316 1.037-.273 1.575-.241.543.032 1.046.279 1.566.349-.65-.538-1.594-.875-2.448-.883-.497-.004-.955.018-1.441.127-.362.082-.665.26-1.004.378.301-.872 1.384-.991 2.198-.984-.444-.192-1.218-.006-1.655.153-.445.163-1.016.382-1.303.77.228-.441.372-.805.803-1.11.281-.198.641-.406.998-.527-.618.154-1.228.323-1.744.747-.379.312-.637.796-.777 1.266.007-.39.034-.74-.217-1.058-.299-.378-.606-.293-1.009-.181.321.053.726.205.847.58.112.346-.026.942-.314 1.12-6.352 3.978-1.287 10.38-1.174 10.464.046.035.009 1.057-.167 1.384-.252 1.316-9.221 15.169 4.547 16.606 4.534.473 8.254-3.319 8.254-7.413 0-.971-.349-3.772-.509-4.38.082.319.421.574.423.922.01-.347-.081-.646-.191-.954.037.039.077.077.109.11.185.207.273.415.397.656z"/><path fill="#304454" d="M133.171 91.418c.212.302.375.666.631.894.215-.488.254-.224.533.183.204.297.35.402.611.563.692.427 1.315 1.295 1.805 2.072.645 1.023 1.101 2.132 1.408 3.362.151.602.248 1.156.274 1.779.023.533-.096 1.02-.099 1.525.496-.283.642-1.11.564-1.788.152.075.228.32.356.45.979-2.97.74-9.151-4.976-11.851-.575-.271-1.449.377-1.756 1.147-.297.743.112 2.005.766 2.299.005-.171-.015-.49-.117-.635z"/><path fill="#efefef" d="M132.762 82.814a2.655 2.655 0 0 0-.177-.72c.199-.634.219-1.406.008-2.194-.453-1.694-1.792-2.806-2.99-2.487-.903.243-1.467 1.231-1.496 2.43-.03.001-.061.001-.092.004a5.676 5.676 0 0 0-.763.132c-.394-.92-1.105-1.535-1.92-1.535-1.239 0-2.244 1.421-2.244 3.174 0 1.083.383 2.037.967 2.61.502 1.58 2.437 2.636 4.629 2.42 2.437-.239 4.262-1.956 4.078-3.834z"/><ellipse cx="125.408" cy="81.714" rx=".461" ry=".641" fill="#304454" transform="rotate(-8.893 125.408 81.714)"/><ellipse cx="130.797" cy="80.583" rx=".461" ry=".641" fill="#304454" transform="rotate(-8.893 130.797 80.583)"/><ellipse cx="128.31" cy="96.712" rx="8.423" ry="6.145" fill="#efefef" transform="rotate(84.388 128.31 96.712)"/><path fill="#f89c44" d="M129.307 83.448c-.512.556-1.232.51-1.913.414l-.807-.046c.178-.023.745.546.945.691.317.23.639.453 1.019.525.323.062.792.177 1.083-.035.26-.19.43-.637.547-.927.202-.497.181-1.08.436-1.562-.559.007-.976.578-1.31.94z"/><path fill="#d14e3f" d="M127.186 83.955c.634.159 1.299 1.075 2.004.783.575-.237.867-1.346 1.032-1.89.017-.056.045-.107.072-.158-.55.19-.855.683-1.288 1.018-.206.158-.509.217-.761.242-.285.028-.428-.077-.69-.133"/><path fill="#f89c44" d="M126.489 83.82v-.023c.391.12.816.145 1.221.23.088.02.189.043.295.064.285.058.612.106.857.05.327-.072.55-.401.731-.672.174-.26.353-.442.583-.612.15-.111.326-.2.44-.351-.102-.158-.346-.121-.51-.097-.23.035-.37.059-.599-.012-.257-.08-.482-.19-.733-.232-.608-.101-1 .297-1.322.755a1.626 1.626 0 0 1-.379.363c-.14.103-.283.199-.404.324-.067.068-.111.143-.18.213z"/><path fill="#304454" d="M46.926 128.791c-1.005.67-2.103 1.155-3.324 1.493a8.66 8.66 0 0 1-1.772.319c-.532.036-1.023-.071-1.527-.06.296.488 1.125.614 1.8.518-.07.153-.313.236-.44.367.32.331 6.22 1.054 6.877.736.456-.221 1.025-.449 1.253-.842-.123.229-.442.446-.502.671.4.069 1.169-.506 1.472-.71.406-.272.785-.531 1.085-.871 1.05-1.192 1.693-2.909 1.536-4.259-.073-.631-.414-1.439-1.191-1.726-.75-.278-4.502 3.854-5.267 4.364z"/><path fill="#f89c44" d="M58.367 137.663c.322.114.78 1.912.943 2.315.12.294.172.588-.23.64-.238.03-.836-.081-.802.338.035.447.762.351 1.028.478.191.091.65.132.876.163.364.051 1.23.062 1.215-.163.297-.109.823-.062 1.153.02.658.09.345-.44.181-.521-.26-.129-.535-.282-.819-.382-.384-.136-.778-.229-1.156-.396-1.055-.036-1.444-2.689-1.375-2.848M51.728 137.663c-.003.537-.262 2.266-.39 2.546-.319.684-1.434.359-1.94.801-.397.344.122.441.408.412.311-.03 1.14.062 1.335.172.35.196 1.015-.162 1.091-.214.06-.04.846.105 1.241.11.568.006.022-.588-.236-.708-1.42-.503-.875-2.355-.618-3.226"/><path fill="#304454" d="M64.585 130.217c.046-.301-.052-.701-.075-1.008-.027-.368-.03-.734-.166-1.082-.154-4.705-4.131-3.858-2.357-6.925.245-.534.76-1.544.372-3.603-.99-5.243-5.258-5.47-5.538-5.283.473-.316 1.037-.273 1.575-.241.543.032 1.046.279 1.566.349-.65-.538-1.594-.875-2.448-.883-.497-.004-.955.018-1.441.127-.362.082-.665.26-1.004.378.3-.872 1.384-.991 2.198-.984-.444-.192-1.218-.006-1.655.153-.445.163-1.016.382-1.303.771.228-.442.372-.806.803-1.11.28-.199.64-.407.998-.528-.618.154-1.228.323-1.744.747-.38.312-.637.796-.777 1.266.007-.39.034-.739-.217-1.058-.3-.378-.606-.293-1.01-.181.322.053.727.205.848.58.112.346-.026.942-.314 1.121-6.352 3.977-1.287 10.38-1.174 10.463.046.035.009 1.057-.167 1.384-.252 1.316-9.221 15.169 4.547 16.606 4.534.473 8.254-3.319 8.254-7.413 0-.971-.35-3.772-.51-4.38.083.319.422.574.424.922.01-.347-.081-.646-.191-.954l.109.111c.185.206.273.414.397.655z"/><path fill="#304454" d="M61.171 127.418c.212.302.375.666.631.894.215-.488.254-.224.533.183.204.297.35.402.611.563.692.427 1.315 1.295 1.805 2.072.645 1.023 1.101 2.132 1.408 3.362.151.602.248 1.156.274 1.779.023.533-.096 1.02-.099 1.525.496-.283.642-1.11.564-1.788.152.075.228.32.356.45.98-2.969.74-9.151-4.976-11.851-.575-.271-1.449.377-1.756 1.147-.297.743.112 2.005.766 2.299.005-.171-.015-.49-.117-.635z"/><path fill="#efefef" d="M60.762 118.814a2.655 2.655 0 0 0-.177-.72c.199-.635.219-1.407.008-2.194-.453-1.694-1.792-2.807-2.99-2.487-.903.242-1.467 1.231-1.496 2.429-.03.002-.061.002-.092.005a5.676 5.676 0 0 0-.763.131c-.394-.919-1.105-1.535-1.92-1.535-1.24 0-2.244 1.422-2.244 3.175 0 1.082.383 2.036.967 2.609.502 1.581 2.437 2.636 4.629 2.421 2.437-.239 4.262-1.956 4.078-3.834z"/><ellipse cx="53.408" cy="117.714" rx=".461" ry=".641" fill="#304454" transform="rotate(-8.893 53.408 117.714)"/><ellipse cx="58.797" cy="116.583" rx=".461" ry=".641" fill="#304454" transform="rotate(-8.893 58.797 116.583)"/><ellipse cx="56.31" cy="132.712" rx="8.423" ry="6.145" fill="#efefef" transform="rotate(84.388 56.31 132.712)"/><path fill="#f89c44" d="M57.307 119.448c-.512.556-1.232.509-1.913.414l-.807-.046c.178-.023.745.546.945.691.317.23.639.453 1.019.525.323.062.792.177 1.083-.035.26-.191.43-.637.547-.927.202-.497.18-1.08.436-1.562-.56.007-.976.578-1.31.94z"/><path fill="#d14e3f" d="M55.186 119.955c.634.159 1.299 1.075 2.004.783.575-.237.867-1.346 1.032-1.889.017-.057.045-.108.072-.159-.55.191-.855.683-1.288 1.018-.206.158-.51.217-.761.242-.285.028-.428-.077-.69-.133"/><path fill="#f89c44" d="M54.49 119.82v-.023c.39.12.815.145 1.22.231.088.019.19.042.295.063.285.058.612.106.857.051.327-.073.55-.402.731-.673.174-.259.353-.442.583-.612.15-.111.326-.199.44-.351-.102-.158-.346-.121-.51-.097-.23.035-.37.059-.599-.012-.257-.08-.482-.19-.733-.232-.608-.101-1 .297-1.322.755a1.626 1.626 0 0 1-.379.363c-.14.103-.283.199-.404.324-.067.068-.11.143-.18.213z"/><path fill="#304454" d="M82.926 128.791c-1.005.67-2.103 1.155-3.324 1.493a8.66 8.66 0 0 1-1.772.319c-.532.036-1.023-.071-1.527-.06.296.488 1.125.614 1.8.518-.07.153-.313.236-.44.367.32.331 6.22 1.054 6.877.736.456-.221 1.025-.449 1.253-.842-.123.229-.442.446-.502.671.4.069 1.169-.506 1.472-.71.406-.272.785-.531 1.085-.871 1.05-1.192 1.693-2.909 1.536-4.259-.073-.631-.414-1.439-1.191-1.726-.75-.278-4.502 3.854-5.267 4.364z"/><path fill="#f89c44" d="M94.367 137.663c.322.114.78 1.912.943 2.315.12.294.172.588-.23.64-.238.03-.836-.081-.802.338.035.447.762.351 1.028.478.191.091.65.132.876.163.364.051 1.23.062 1.215-.163.297-.109.823-.062 1.153.02.658.09.345-.44.181-.521-.26-.129-.535-.282-.819-.382-.384-.136-.778-.229-1.156-.396-1.055-.036-1.444-2.689-1.375-2.848M87.728 137.663c-.003.537-.262 2.266-.39 2.546-.319.684-1.434.359-1.94.801-.397.344.122.441.408.412.311-.03 1.14.062 1.335.172.35.196 1.015-.162 1.091-.214.06-.04.846.105 1.241.11.568.006.022-.588-.236-.708-1.42-.503-.875-2.355-.618-3.226"/><path fill="#304454" d="M100.585 130.217c.046-.301-.052-.701-.075-1.008-.027-.368-.029-.734-.166-1.082-.154-4.705-4.131-3.858-2.357-6.925.245-.534.76-1.544.372-3.603-.99-5.243-5.258-5.47-5.538-5.283.473-.316 1.037-.273 1.575-.241.543.032 1.046.279 1.566.349-.65-.538-1.594-.875-2.448-.883-.497-.004-.955.018-1.441.127-.362.082-.665.26-1.004.378.3-.872 1.384-.991 2.198-.984-.444-.192-1.218-.006-1.655.153-.445.163-1.016.382-1.303.771.228-.442.372-.806.803-1.11.28-.199.64-.407.998-.528-.618.154-1.228.323-1.744.747-.38.312-.637.796-.777 1.266.007-.39.034-.739-.217-1.058-.3-.378-.606-.293-1.01-.181.322.053.727.205.848.58.112.346-.026.942-.314 1.121-6.352 3.977-1.287 10.38-1.174 10.463.046.035.009 1.057-.167 1.384-.252 1.316-9.221 15.169 4.547 16.606 4.534.473 8.254-3.319 8.254-7.413 0-.971-.349-3.772-.51-4.38.083.319.422.574.424.922.01-.347-.081-.646-.191-.954l.109.111c.185.206.273.414.397.655z"/><path fill="#304454" d="M97.171 127.418c.212.302.375.666.631.894.215-.488.254-.224.533.183.204.297.35.402.611.563.692.427 1.315 1.295 1.805 2.072.645 1.023 1.101 2.132 1.408 3.362.151.602.248 1.156.274 1.779.023.533-.096 1.02-.099 1.525.496-.283.642-1.11.564-1.788.152.075.228.32.356.45.979-2.969.74-9.151-4.976-11.851-.575-.271-1.449.377-1.756 1.147-.297.743.112 2.005.766 2.299.005-.171-.015-.49-.117-.635z"/><path fill="#efefef" d="M96.762 118.814a2.655 2.655 0 0 0-.177-.72c.199-.635.219-1.407.008-2.194-.453-1.694-1.792-2.807-2.99-2.487-.903.242-1.467 1.231-1.496 2.429-.03.002-.061.002-.092.005a5.676 5.676 0 0 0-.763.131c-.394-.919-1.105-1.535-1.92-1.535-1.24 0-2.244 1.422-2.244 3.175 0 1.082.383 2.036.967 2.609.502 1.581 2.437 2.636 4.629 2.421 2.437-.239 4.262-1.956 4.078-3.834z"/><ellipse cx="89.408" cy="117.714" rx=".461" ry=".641" fill="#304454" transform="rotate(-8.893 89.408 117.714)"/><ellipse cx="94.797" cy="116.583" rx=".461" ry=".641" fill="#304454" transform="rotate(-8.893 94.797 116.583)"/><ellipse cx="92.31" cy="132.712" rx="8.423" ry="6.145" fill="#efefef" transform="rotate(84.388 92.31 132.712)"/><path fill="#f89c44" d="M93.307 119.448c-.512.556-1.232.509-1.913.414l-.807-.046c.178-.023.745.546.945.691.317.23.639.453 1.019.525.323.062.792.177 1.083-.035.26-.191.43-.637.547-.927.202-.497.18-1.08.436-1.562-.56.007-.976.578-1.31.94z"/><path fill="#d14e3f" d="M91.186 119.955c.634.159 1.299 1.075 2.004.783.575-.237.867-1.346 1.032-1.889.017-.057.045-.108.072-.159-.55.191-.855.683-1.288 1.018-.206.158-.51.217-.761.242-.285.028-.428-.077-.69-.133"/><path fill="#f89c44" d="M90.49 119.82v-.023c.39.12.815.145 1.22.231.088.019.19.042.295.063.285.058.612.106.857.051.327-.073.55-.402.731-.673.174-.259.353-.442.583-.612.15-.111.326-.199.44-.351-.102-.158-.346-.121-.51-.097-.23.035-.37.059-.599-.012-.257-.08-.482-.19-.733-.232-.608-.101-1 .297-1.322.755a1.626 1.626 0 0 1-.379.363c-.14.103-.283.199-.404.324-.067.068-.11.143-.18.213z"/><path fill="#304454" d="M118.926 128.791c-1.005.67-2.103 1.155-3.324 1.493a8.66 8.66 0 0 1-1.772.319c-.532.036-1.023-.071-1.527-.06.296.488 1.125.614 1.801.518-.071.153-.314.236-.441.367.32.331 6.221 1.054 6.877.736.456-.221 1.025-.449 1.253-.842-.123.229-.442.446-.502.671.4.069 1.169-.506 1.472-.71.406-.272.785-.531 1.085-.871 1.05-1.192 1.693-2.909 1.536-4.259-.073-.631-.414-1.439-1.191-1.726-.75-.278-4.502 3.854-5.267 4.364z"/><path fill="#f89c44" d="M130.367 137.663c.322.114.78 1.912.943 2.315.12.294.172.588-.231.64-.237.03-.835-.081-.801.338.035.447.762.351 1.028.478.191.091.65.132.876.163.364.051 1.23.062 1.215-.163.297-.109.823-.062 1.153.02.658.09.345-.44.181-.521-.261-.129-.535-.282-.819-.382-.384-.136-.778-.229-1.156-.396-1.055-.036-1.444-2.689-1.375-2.848M123.728 137.663c-.003.537-.262 2.266-.391 2.546-.318.684-1.433.359-1.94.801-.396.344.123.441.409.412.311-.03 1.139.062 1.335.172.35.196 1.015-.162 1.091-.214.059-.04.846.105 1.241.11.568.006.022-.588-.236-.708-1.42-.503-.875-2.355-.618-3.226"/><path fill="#304454" d="M136.585 130.217c.046-.301-.052-.701-.075-1.008-.027-.368-.029-.734-.166-1.082-.154-4.705-4.131-3.858-2.357-6.925.245-.534.76-1.544.372-3.603-.989-5.243-5.258-5.47-5.538-5.283.473-.316 1.037-.273 1.575-.241.543.032 1.046.279 1.566.349-.65-.538-1.594-.875-2.448-.883-.497-.004-.955.018-1.441.127-.362.082-.665.26-1.004.378.301-.872 1.384-.991 2.198-.984-.444-.192-1.218-.006-1.655.153-.445.163-1.016.382-1.303.771.228-.442.372-.806.803-1.11.281-.199.641-.407.998-.528-.618.154-1.228.323-1.744.747-.379.312-.637.796-.777 1.266.007-.39.034-.739-.217-1.058-.299-.378-.606-.293-1.009-.181.321.053.726.205.847.58.112.346-.026.942-.314 1.121-6.352 3.977-1.287 10.38-1.174 10.463.046.035.009 1.057-.167 1.384-.252 1.316-9.221 15.169 4.547 16.606 4.534.473 8.254-3.319 8.254-7.413 0-.971-.349-3.772-.509-4.38.082.319.421.574.423.922.01-.347-.081-.646-.191-.954l.109.111c.185.206.273.414.397.655z"/><path fill="#304454" d="M133.171 127.418c.212.302.375.666.631.894.215-.488.254-.224.533.183.204.297.35.402.611.563.692.427 1.315 1.295 1.805 2.072.645 1.023 1.101 2.132 1.408 3.362.151.602.248 1.156.274 1.779.023.533-.096 1.02-.099 1.525.496-.283.642-1.11.564-1.788.152.075.228.32.356.45.979-2.969.74-9.151-4.976-11.851-.575-.271-1.449.377-1.756 1.147-.297.743.112 2.005.766 2.299.005-.171-.015-.49-.117-.635z"/><path fill="#efefef" d="M132.762 118.814a2.655 2.655 0 0 0-.177-.72c.199-.635.219-1.407.008-2.194-.453-1.694-1.792-2.807-2.99-2.487-.903.242-1.467 1.231-1.496 2.429-.03.002-.061.002-.092.005a5.676 5.676 0 0 0-.763.131c-.394-.919-1.105-1.535-1.92-1.535-1.239 0-2.244 1.422-2.244 3.175 0 1.082.383 2.036.967 2.609.502 1.581 2.437 2.636 4.629 2.421 2.437-.239 4.262-1.956 4.078-3.834z"/><ellipse cx="125.408" cy="117.714" rx=".461" ry=".641" fill="#304454" transform="rotate(-8.893 125.408 117.714)"/><ellipse cx="130.797" cy="116.583" rx=".461" ry=".641" fill="#304454" transform="rotate(-8.893 130.797 116.583)"/><ellipse cx="128.31" cy="132.712" rx="8.423" ry="6.145" fill="#efefef" transform="rotate(84.388 128.31 132.712)"/><path fill="#f89c44" d="M129.307 119.448c-.512.556-1.232.509-1.913.414l-.807-.046c.178-.023.745.546.945.691.317.23.639.453 1.019.525.323.062.792.177 1.083-.035.26-.191.43-.637.547-.927.202-.497.181-1.08.436-1.562-.559.007-.976.578-1.31.94z"/><path fill="#d14e3f" d="M127.186 119.955c.634.159 1.299 1.075 2.004.783.575-.237.867-1.346 1.032-1.889.017-.057.045-.108.072-.159-.55.191-.855.683-1.288 1.018-.206.158-.509.217-.761.242-.285.028-.428-.077-.69-.133"/><path fill="#f89c44" d="M126.489 119.82v-.023c.391.12.816.145 1.221.231.088.019.189.042.295.063.285.058.612.106.857.051.327-.073.55-.402.731-.673.174-.259.353-.442.583-.612.15-.111.326-.199.44-.351-.102-.158-.346-.121-.51-.097-.23.035-.37.059-.599-.012-.257-.08-.482-.19-.733-.232-.608-.101-1 .297-1.322.755a1.626 1.626 0 0 1-.379.363c-.14.103-.283.199-.404.324-.067.068-.111.143-.18.213z"/><path fill="#304454" d="M46.926 164.791c-1.005.67-2.103 1.155-3.324 1.493a8.66 8.66 0 0 1-1.772.319c-.532.036-1.023-.071-1.527-.06.296.488 1.125.614 1.8.518-.07.153-.313.236-.44.367.32.331 6.22 1.054 6.877.736.456-.221 1.025-.449 1.253-.842-.123.229-.442.446-.502.671.4.069 1.169-.506 1.472-.71.406-.272.785-.531 1.085-.871 1.05-1.192 1.693-2.909 1.536-4.259-.073-.631-.414-1.439-1.191-1.726-.75-.278-4.502 3.854-5.267 4.364z"/><path fill="#f89c44" d="M58.367 173.663c.322.114.78 1.912.943 2.315.12.294.172.588-.23.64-.238.03-.836-.081-.802.338.035.447.762.351 1.028.478.191.091.65.132.876.163.364.051 1.23.062 1.215-.163.297-.109.823-.062 1.153.02.658.09.345-.44.181-.521-.26-.129-.535-.282-.819-.382-.384-.136-.778-.229-1.156-.396-1.055-.036-1.444-2.689-1.375-2.848M51.728 173.663c-.003.537-.262 2.266-.39 2.546-.319.684-1.434.359-1.94.801-.397.344.122.441.408.412.311-.03 1.14.062 1.335.172.35.196 1.015-.162 1.091-.214.06-.04.846.105 1.241.11.568.006.022-.588-.236-.708-1.42-.503-.875-2.355-.618-3.226"/><path fill="#304454" d="M64.585 166.217c.046-.301-.052-.701-.075-1.008-.027-.368-.03-.734-.166-1.082-.154-4.705-4.131-3.858-2.357-6.925.245-.534.76-1.544.372-3.603-.99-5.243-5.258-5.47-5.538-5.283.473-.316 1.037-.273 1.575-.241.543.032 1.046.279 1.566.349-.65-.538-1.594-.875-2.448-.883-.497-.004-.955.018-1.441.127-.362.082-.665.26-1.004.378.3-.872 1.384-.991 2.198-.984-.444-.192-1.218-.006-1.655.153-.445.163-1.016.382-1.303.771.228-.442.372-.806.803-1.11.28-.199.64-.407.998-.528-.618.154-1.228.323-1.744.747-.38.312-.637.796-.777 1.266.007-.39.034-.739-.217-1.058-.3-.378-.606-.293-1.01-.181.322.053.727.205.848.58.112.346-.026.942-.314 1.121-6.352 3.977-1.287 10.38-1.174 10.463.046.035.009 1.057-.167 1.384-.252 1.316-9.221 15.169 4.547 16.606 4.534.473 8.254-3.319 8.254-7.413 0-.971-.35-3.772-.51-4.38.083.319.422.574.424.922.01-.347-.081-.646-.191-.954l.109.111c.185.206.273.414.397.655z"/><path fill="#304454" d="M61.171 163.418c.212.302.375.666.631.894.215-.488.254-.224.533.183.204.297.35.402.611.563.692.427 1.315 1.295 1.805 2.072.645 1.023 1.101 2.132 1.408 3.362.151.602.248 1.156.274 1.779.023.533-.096 1.02-.099 1.525.496-.283.642-1.11.564-1.788.152.075.228.32.356.45.98-2.969.74-9.151-4.976-11.851-.575-.271-1.449.377-1.756 1.147-.297.743.112 2.005.766 2.299.005-.171-.015-.49-.117-.635z"/><path fill="#efefef" d="M60.762 154.814a2.655 2.655 0 0 0-.177-.72c.199-.635.219-1.407.008-2.194-.453-1.694-1.792-2.807-2.99-2.487-.903.242-1.467 1.231-1.496 2.429-.03.002-.061.002-.092.005a5.676 5.676 0 0 0-.763.131c-.394-.919-1.105-1.535-1.92-1.535-1.24 0-2.244 1.422-2.244 3.175 0 1.082.383 2.036.967 2.609.502 1.581 2.437 2.636 4.629 2.421 2.437-.239 4.262-1.956 4.078-3.834z"/><ellipse cx="53.408" cy="153.714" rx=".461" ry=".641" fill="#304454" transform="rotate(-8.893 53.408 153.714)"/><ellipse cx="58.797" cy="152.583" rx=".461" ry=".641" fill="#304454" transform="rotate(-8.893 58.797 152.583)"/><ellipse cx="56.31" cy="168.712" rx="8.423" ry="6.145" fill="#efefef" transform="rotate(84.388 56.31 168.712)"/><path fill="#f89c44" d="M57.307 155.448c-.512.556-1.232.509-1.913.414l-.807-.046c.178-.023.745.546.945.691.317.23.639.453 1.019.525.323.062.792.177 1.083-.035.26-.191.43-.637.547-.927.202-.497.18-1.08.436-1.562-.56.007-.976.578-1.31.94z"/><path fill="#d14e3f" d="M55.186 155.955c.634.159 1.299 1.075 2.004.783.575-.237.867-1.346 1.032-1.889.017-.057.045-.108.072-.159-.55.191-.855.683-1.288 1.018-.206.158-.51.217-.761.242-.285.028-.428-.077-.69-.133"/><path fill="#f89c44" d="M54.49 155.82v-.023c.39.12.815.145 1.22.231.088.019.19.042.295.063.285.058.612.106.857.051.327-.073.55-.402.731-.673.174-.259.353-.442.583-.612.15-.111.326-.199.44-.351-.102-.158-.346-.121-.51-.097-.23.035-.37.059-.599-.012-.257-.08-.482-.19-.733-.232-.608-.101-1 .297-1.322.755a1.626 1.626 0 0 1-.379.363c-.14.103-.283.199-.404.324-.067.068-.11.143-.18.213z"/><path fill="#304454" d="M82.926 164.791c-1.005.67-2.103 1.155-3.324 1.493a8.66 8.66 0 0 1-1.772.319c-.532.036-1.023-.071-1.527-.06.296.488 1.125.614 1.8.518-.07.153-.313.236-.44.367.32.331 6.22 1.054 6.877.736.456-.221 1.025-.449 1.253-.842-.123.229-.442.446-.502.671.4.069 1.169-.506 1.472-.71.406-.272.785-.531 1.085-.871 1.05-1.192 1.693-2.909 1.536-4.259-.073-.631-.414-1.439-1.191-1.726-.75-.278-4.502 3.854-5.267 4.364z"/><path fill="#f89c44" d="M94.367 173.663c.322.114.78 1.912.943 2.315.12.294.172.588-.23.64-.238.03-.836-.081-.802.338.035.447.762.351 1.028.478.191.091.65.132.876.163.364.051 1.23.062 1.215-.163.297-.109.823-.062 1.153.02.658.09.345-.44.181-.521-.26-.129-.535-.282-.819-.382-.384-.136-.778-.229-1.156-.396-1.055-.036-1.444-2.689-1.375-2.848M87.728 173.663c-.003.537-.262 2.266-.39 2.546-.319.684-1.434.359-1.94.801-.397.344.122.441.408.412.311-.03 1.14.062 1.335.172.35.196 1.015-.162 1.091-.214.06-.04.846.105 1.241.11.568.006.022-.588-.236-.708-1.42-.503-.875-2.355-.618-3.226"/><path fill="#304454" d="M100.585 166.217c.046-.301-.052-.701-.075-1.008-.027-.368-.029-.734-.166-1.082-.154-4.705-4.131-3.858-2.357-6.925.245-.534.76-1.544.372-3.603-.99-5.243-5.258-5.47-5.538-5.283.473-.316 1.037-.273 1.575-.241.543.032 1.046.279 1.566.349-.65-.538-1.594-.875-2.448-.883-.497-.004-.955.018-1.441.127-.362.082-.665.26-1.004.378.3-.872 1.384-.991 2.198-.984-.444-.192-1.218-.006-1.655.153-.445.163-1.016.382-1.303.771.228-.442.372-.806.803-1.11.28-.199.64-.407.998-.528-.618.154-1.228.323-1.744.747-.38.312-.637.796-.777 1.266.007-.39.034-.739-.217-1.058-.3-.378-.606-.293-1.01-.181.322.053.727.205.848.58.112.346-.026.942-.314 1.121-6.352 3.977-1.287 10.38-1.174 10.463.046.035.009 1.057-.167 1.384-.252 1.316-9.221 15.169 4.547 16.606 4.534.473 8.254-3.319 8.254-7.413 0-.971-.349-3.772-.51-4.38.083.319.422.574.424.922.01-.347-.081-.646-.191-.954l.109.111c.185.206.273.414.397.655z"/><path fill="#304454" d="M97.171 163.418c.212.302.375.666.631.894.215-.488.254-.224.533.183.204.297.35.402.611.563.692.427 1.315 1.295 1.805 2.072.645 1.023 1.101 2.132 1.408 3.362.151.602.248 1.156.274 1.779.023.533-.096 1.02-.099 1.525.496-.283.642-1.11.564-1.788.152.075.228.32.356.45.979-2.969.74-9.151-4.976-11.851-.575-.271-1.449.377-1.756 1.147-.297.743.112 2.005.766 2.299.005-.171-.015-.49-.117-.635z"/><path fill="#efefef" d="M96.762 154.814a2.655 2.655 0 0 0-.177-.72c.199-.635.219-1.407.008-2.194-.453-1.694-1.792-2.807-2.99-2.487-.903.242-1.467 1.231-1.496 2.429-.03.002-.061.002-.092.005a5.676 5.676 0 0 0-.763.131c-.394-.919-1.105-1.535-1.92-1.535-1.24 0-2.244 1.422-2.244 3.175 0 1.082.383 2.036.967 2.609.502 1.581 2.437 2.636 4.629 2.421 2.437-.239 4.262-1.956 4.078-3.834z"/><ellipse cx="89.408" cy="153.714" rx=".461" ry=".641" fill="#304454" transform="rotate(-8.893 89.408 153.714)"/><ellipse cx="94.797" cy="152.583" rx=".461" ry=".641" fill="#304454" transform="rotate(-8.893 94.797 152.583)"/><ellipse cx="92.31" cy="168.712" rx="8.423" ry="6.145" fill="#efefef" transform="rotate(84.388 92.31 168.712)"/><path fill="#f89c44" d="M93.307 155.448c-.512.556-1.232.509-1.913.414l-.807-.046c.178-.023.745.546.945.691.317.23.639.453 1.019.525.323.062.792.177 1.083-.035.26-.191.43-.637.547-.927.202-.497.18-1.08.436-1.562-.56.007-.976.578-1.31.94z"/><path fill="#d14e3f" d="M91.186 155.955c.634.159 1.299 1.075 2.004.783.575-.237.867-1.346 1.032-1.889.017-.057.045-.108.072-.159-.55.191-.855.683-1.288 1.018-.206.158-.51.217-.761.242-.285.028-.428-.077-.69-.133"/><path fill="#f89c44" d="M90.49 155.82v-.023c.39.12.815.145 1.22.231.088.019.19.042.295.063.285.058.612.106.857.051.327-.073.55-.402.731-.673.174-.259.353-.442.583-.612.15-.111.326-.199.44-.351-.102-.158-.346-.121-.51-.097-.23.035-.37.059-.599-.012-.257-.08-.482-.19-.733-.232-.608-.101-1 .297-1.322.755a1.626 1.626 0 0 1-.379.363c-.14.103-.283.199-.404.324-.067.068-.11.143-.18.213z"/><path fill="#304454" d="M118.926 164.791c-1.005.67-2.103 1.155-3.324 1.493a8.66 8.66 0 0 1-1.772.319c-.532.036-1.023-.071-1.527-.06.296.488 1.125.614 1.801.518-.071.153-.314.236-.441.367.32.331 6.221 1.054 6.877.736.456-.221 1.025-.449 1.253-.842-.123.229-.442.446-.502.671.4.069 1.169-.506 1.472-.71.406-.272.785-.531 1.085-.871 1.05-1.192 1.693-2.909 1.536-4.259-.073-.631-.414-1.439-1.191-1.726-.75-.278-4.502 3.854-5.267 4.364z"/><path fill="#f89c44" d="M130.367 173.663c.322.114.78 1.912.943 2.315.12.294.172.588-.231.64-.237.03-.835-.081-.801.338.035.447.762.351 1.028.478.191.091.65.132.876.163.364.051 1.23.062 1.215-.163.297-.109.823-.062 1.153.02.658.09.345-.44.181-.521-.261-.129-.535-.282-.819-.382-.384-.136-.778-.229-1.156-.396-1.055-.036-1.444-2.689-1.375-2.848M123.728 173.663c-.003.537-.262 2.266-.391 2.546-.318.684-1.433.359-1.94.801-.396.344.123.441.409.412.311-.03 1.139.062 1.335.172.35.196 1.015-.162 1.091-.214.059-.04.846.105 1.241.11.568.006.022-.588-.236-.708-1.42-.503-.875-2.355-.618-3.226"/><path fill="#304454" d="M136.585 166.217c.046-.301-.052-.701-.075-1.008-.027-.368-.029-.734-.166-1.082-.154-4.705-4.131-3.858-2.357-6.925.245-.534.76-1.544.372-3.603-.989-5.243-5.258-5.47-5.538-5.283.473-.316 1.037-.273 1.575-.241.543.032 1.046.279 1.566.349-.65-.538-1.594-.875-2.448-.883-.497-.004-.955.018-1.441.127-.362.082-.665.26-1.004.378.301-.872 1.384-.991 2.198-.984-.444-.192-1.218-.006-1.655.153-.445.163-1.016.382-1.303.771.228-.442.372-.806.803-1.11.281-.199.641-.407.998-.528-.618.154-1.228.323-1.744.747-.379.312-.637.796-.777 1.266.007-.39.034-.739-.217-1.058-.299-.378-.606-.293-1.009-.181.321.053.726.205.847.58.112.346-.026.942-.314 1.121-6.352 3.977-1.287 10.38-1.174 10.463.046.035.009 1.057-.167 1.384-.252 1.316-9.221 15.169 4.547 16.606 4.534.473 8.254-3.319 8.254-7.413 0-.971-.349-3.772-.509-4.38.082.319.421.574.423.922.01-.347-.081-.646-.191-.954l.109.111c.185.206.273.414.397.655z"/><path fill="#304454" d="M133.171 163.418c.212.302.375.666.631.894.215-.488.254-.224.533.183.204.297.35.402.611.563.692.427 1.315 1.295 1.805 2.072.645 1.023 1.101 2.132 1.408 3.362.151.602.248 1.156.274 1.779.023.533-.096 1.02-.099 1.525.496-.283.642-1.11.564-1.788.152.075.228.32.356.45.979-2.969.74-9.151-4.976-11.851-.575-.271-1.449.377-1.756 1.147-.297.743.112 2.005.766 2.299.005-.171-.015-.49-.117-.635z"/><path fill="#efefef" d="M132.762 154.814a2.655 2.655 0 0 0-.177-.72c.199-.635.219-1.407.008-2.194-.453-1.694-1.792-2.807-2.99-2.487-.903.242-1.467 1.231-1.496 2.429-.03.002-.061.002-.092.005a5.676 5.676 0 0 0-.763.131c-.394-.919-1.105-1.535-1.92-1.535-1.239 0-2.244 1.422-2.244 3.175 0 1.082.383 2.036.967 2.609.502 1.581 2.437 2.636 4.629 2.421 2.437-.239 4.262-1.956 4.078-3.834z"/><ellipse cx="125.408" cy="153.714" rx=".461" ry=".641" fill="#304454" transform="rotate(-8.893 125.408 153.714)"/><ellipse cx="130.797" cy="152.583" rx=".461" ry=".641" fill="#304454" transform="rotate(-8.893 130.797 152.583)"/><ellipse cx="128.31" cy="168.712" rx="8.423" ry="6.145" fill="#efefef" transform="rotate(84.388 128.31 168.712)"/><path fill="#f89c44" d="M129.307 155.448c-.512.556-1.232.509-1.913.414l-.807-.046c.178-.023.745.546.945.691.317.23.639.453 1.019.525.323.062.792.177 1.083-.035.26-.191.43-.637.547-.927.202-.497.181-1.08.436-1.562-.559.007-.976.578-1.31.94z"/><path fill="#d14e3f" d="M127.186 155.955c.634.159 1.299 1.075 2.004.783.575-.237.867-1.346 1.032-1.889.017-.057.045-.108.072-.159-.55.191-.855.683-1.288 1.018-.206.158-.509.217-.761.242-.285.028-.428-.077-.69-.133"/><path fill="#f89c44" d="M126.489 155.82v-.023c.391.12.816.145 1.221.231.088.019.189.042.295.063.285.058.612.106.857.051.327-.073.55-.402.731-.673.174-.259.353-.442.583-.612.15-.111.326-.199.44-.351-.102-.158-.346-.121-.51-.097-.23.035-.37.059-.599-.012-.257-.08-.482-.19-.733-.232-.608-.101-1 .297-1.322.755a1.626 1.626 0 0 1-.379.363c-.14.103-.283.199-.404.324-.067.068-.111.143-.18.213z"/><path fill="none" stroke="gray" d="M38.348 72H162M38.348 108H162M38.348 144H162" stroke-width="2" stroke-opacity=".5"/></svg>
