<svg xmlns="http://www.w3.org/2000/svg" width="104.008" height="170" viewBox="0 0 104.00843881856541 170"><defs><radialGradient id="a" fx=".5" fy=".5"><stop offset="0%" stop-color="#fee6d3"/><stop offset="29.16%" stop-color="#fee4d0"/><stop offset="52.23%" stop-color="#fedec6"/><stop offset="73.2%" stop-color="#fdd3b6"/><stop offset="92.83%" stop-color="#fcc4a0"/><stop offset="100%" stop-color="#fbbd97"/></radialGradient><radialGradient id="b" fx=".5" fy=".5"><stop offset="0%" stop-color="#ffe600"/><stop offset="29.16%" stop-color="#ffe400"/><stop offset="52.23%" stop-color="#fd0"/><stop offset="73.2%" stop-color="#ffd100"/><stop offset="92.83%" stop-color="#fec00f"/><stop offset="100%" stop-color="#fdb913"/></radialGradient><radialGradient id="c" fx=".5" fy=".5"><stop offset="0%" stop-color="#fee6d3"/><stop offset="29.16%" stop-color="#fee4d0"/><stop offset="52.23%" stop-color="#fedec6"/><stop offset="73.2%" stop-color="#fdd3b6"/><stop offset="92.83%" stop-color="#fcc4a0"/><stop offset="100%" stop-color="#fbbd97"/></radialGradient><radialGradient id="d" fx=".5" fy=".5"><stop offset="0%" stop-color="#ffe600"/><stop offset="29.16%" stop-color="#ffe400"/><stop offset="52.23%" stop-color="#fd0"/><stop offset="73.2%" stop-color="#ffd100"/><stop offset="92.83%" stop-color="#fec00f"/><stop offset="100%" stop-color="#fdb913"/></radialGradient><radialGradient id="e" fx=".5" fy=".5"><stop offset="0%" stop-color="#fee6d3"/><stop offset="29.16%" stop-color="#fee4d0"/><stop offset="52.23%" stop-color="#fedec6"/><stop offset="73.2%" stop-color="#fdd3b6"/><stop offset="92.83%" stop-color="#fcc4a0"/><stop offset="100%" stop-color="#fbbd97"/></radialGradient><radialGradient id="f" fx=".5" fy=".5"><stop offset="0%" stop-color="#ffe600"/><stop offset="29.16%" stop-color="#ffe400"/><stop offset="52.23%" stop-color="#fd0"/><stop offset="73.2%" stop-color="#ffd100"/><stop offset="92.83%" stop-color="#fec00f"/><stop offset="100%" stop-color="#fdb913"/></radialGradient><radialGradient id="g" fx=".5" fy=".5"><stop offset="0%" stop-color="#fee6d3"/><stop offset="29.16%" stop-color="#fee4d0"/><stop offset="52.23%" stop-color="#fedec6"/><stop offset="73.2%" stop-color="#fdd3b6"/><stop offset="92.83%" stop-color="#fcc4a0"/><stop offset="100%" stop-color="#fbbd97"/></radialGradient><radialGradient id="h" fx=".5" fy=".5"><stop offset="0%" stop-color="#ffe600"/><stop offset="29.16%" stop-color="#ffe400"/><stop offset="52.23%" stop-color="#fd0"/><stop offset="73.2%" stop-color="#ffd100"/><stop offset="92.83%" stop-color="#fec00f"/><stop offset="100%" stop-color="#fdb913"/></radialGradient><radialGradient id="i" fx=".5" fy=".5"><stop offset="0%" stop-color="#fee6d3"/><stop offset="29.16%" stop-color="#fee4d0"/><stop offset="52.23%" stop-color="#fedec6"/><stop offset="73.2%" stop-color="#fdd3b6"/><stop offset="92.83%" stop-color="#fcc4a0"/><stop offset="100%" stop-color="#fbbd97"/></radialGradient><radialGradient id="j" fx=".5" fy=".5"><stop offset="0%" stop-color="#ffe600"/><stop offset="29.16%" stop-color="#ffe400"/><stop offset="52.23%" stop-color="#fd0"/><stop offset="73.2%" stop-color="#ffd100"/><stop offset="92.83%" stop-color="#fec00f"/><stop offset="100%" stop-color="#fdb913"/></radialGradient><radialGradient id="k" fx=".5" fy=".5"><stop offset="0%" stop-color="#fee6d3"/><stop offset="29.16%" stop-color="#fee4d0"/><stop offset="52.23%" stop-color="#fedec6"/><stop offset="73.2%" stop-color="#fdd3b6"/><stop offset="92.83%" stop-color="#fcc4a0"/><stop offset="100%" stop-color="#fbbd97"/></radialGradient><radialGradient id="l" fx=".5" fy=".5"><stop offset="0%" stop-color="#ffe600"/><stop offset="29.16%" stop-color="#ffe400"/><stop offset="52.23%" stop-color="#fd0"/><stop offset="73.2%" stop-color="#ffd100"/><stop offset="92.83%" stop-color="#fec00f"/><stop offset="100%" stop-color="#fdb913"/></radialGradient><radialGradient id="m" fx=".5" fy=".5"><stop offset="0%" stop-color="#fee6d3"/><stop offset="29.16%" stop-color="#fee4d0"/><stop offset="52.23%" stop-color="#fedec6"/><stop offset="73.2%" stop-color="#fdd3b6"/><stop offset="92.83%" stop-color="#fcc4a0"/><stop offset="100%" stop-color="#fbbd97"/></radialGradient><radialGradient id="n" fx=".5" fy=".5"><stop offset="0%" stop-color="#ffe600"/><stop offset="29.16%" stop-color="#ffe400"/><stop offset="52.23%" stop-color="#fd0"/><stop offset="73.2%" stop-color="#ffd100"/><stop offset="92.83%" stop-color="#fec00f"/><stop offset="100%" stop-color="#fdb913"/></radialGradient><radialGradient id="o" fx=".5" fy=".5"><stop offset="0%" stop-color="#fee6d3"/><stop offset="29.16%" stop-color="#fee4d0"/><stop offset="52.23%" stop-color="#fedec6"/><stop offset="73.2%" stop-color="#fdd3b6"/><stop offset="92.83%" stop-color="#fcc4a0"/><stop offset="100%" stop-color="#fbbd97"/></radialGradient><radialGradient id="p" fx=".5" fy=".5"><stop offset="0%" stop-color="#ffe600"/><stop offset="29.16%" stop-color="#ffe400"/><stop offset="52.23%" stop-color="#fd0"/><stop offset="73.2%" stop-color="#ffd100"/><stop offset="92.83%" stop-color="#fec00f"/><stop offset="100%" stop-color="#fdb913"/></radialGradient><radialGradient id="q" fx=".5" fy=".5"><stop offset="0%" stop-color="#fee6d3"/><stop offset="29.16%" stop-color="#fee4d0"/><stop offset="52.23%" stop-color="#fedec6"/><stop offset="73.2%" stop-color="#fdd3b6"/><stop offset="92.83%" stop-color="#fcc4a0"/><stop offset="100%" stop-color="#fbbd97"/></radialGradient><radialGradient id="r" fx=".5" fy=".5"><stop offset="0%" stop-color="#ffe600"/><stop offset="29.16%" stop-color="#ffe400"/><stop offset="52.23%" stop-color="#fd0"/><stop offset="73.2%" stop-color="#ffd100"/><stop offset="92.83%" stop-color="#fec00f"/><stop offset="100%" stop-color="#fdb913"/></radialGradient><radialGradient id="s" fx=".5" fy=".5"><stop offset="0%" stop-color="#fee6d3"/><stop offset="29.16%" stop-color="#fee4d0"/><stop offset="52.23%" stop-color="#fedec6"/><stop offset="73.2%" stop-color="#fdd3b6"/><stop offset="92.83%" stop-color="#fcc4a0"/><stop offset="100%" stop-color="#fbbd97"/></radialGradient><radialGradient id="t" fx=".5" fy=".5"><stop offset="0%" stop-color="#ffe600"/><stop offset="29.16%" stop-color="#ffe400"/><stop offset="52.23%" stop-color="#fd0"/><stop offset="73.2%" stop-color="#ffd100"/><stop offset="92.83%" stop-color="#fec00f"/><stop offset="100%" stop-color="#fdb913"/></radialGradient><radialGradient id="u" fx=".5" fy=".5"><stop offset="0%" stop-color="#fee6d3"/><stop offset="29.16%" stop-color="#fee4d0"/><stop offset="52.23%" stop-color="#fedec6"/><stop offset="73.2%" stop-color="#fdd3b6"/><stop offset="92.83%" stop-color="#fcc4a0"/><stop offset="100%" stop-color="#fbbd97"/></radialGradient><radialGradient id="v" fx=".5" fy=".5"><stop offset="0%" stop-color="#ffe600"/><stop offset="29.16%" stop-color="#ffe400"/><stop offset="52.23%" stop-color="#fd0"/><stop offset="73.2%" stop-color="#ffd100"/><stop offset="92.83%" stop-color="#fec00f"/><stop offset="100%" stop-color="#fdb913"/></radialGradient><radialGradient id="w" fx=".5" fy=".5"><stop offset="0%" stop-color="#fee6d3"/><stop offset="29.16%" stop-color="#fee4d0"/><stop offset="52.23%" stop-color="#fedec6"/><stop offset="73.2%" stop-color="#fdd3b6"/><stop offset="92.83%" stop-color="#fcc4a0"/><stop offset="100%" stop-color="#fbbd97"/></radialGradient><radialGradient id="x" fx=".5" fy=".5"><stop offset="0%" stop-color="#ffe600"/><stop offset="29.16%" stop-color="#ffe400"/><stop offset="52.23%" stop-color="#fd0"/><stop offset="73.2%" stop-color="#ffd100"/><stop offset="92.83%" stop-color="#fec00f"/><stop offset="100%" stop-color="#fdb913"/></radialGradient><radialGradient id="y" fx=".5" fy=".5"><stop offset="0%" stop-color="#fee6d3"/><stop offset="29.16%" stop-color="#fee4d0"/><stop offset="52.23%" stop-color="#fedec6"/><stop offset="73.2%" stop-color="#fdd3b6"/><stop offset="92.83%" stop-color="#fcc4a0"/><stop offset="100%" stop-color="#fbbd97"/></radialGradient><radialGradient id="z" fx=".5" fy=".5"><stop offset="0%" stop-color="#ffe600"/><stop offset="29.16%" stop-color="#ffe400"/><stop offset="52.23%" stop-color="#fd0"/><stop offset="73.2%" stop-color="#ffd100"/><stop offset="92.83%" stop-color="#fec00f"/><stop offset="100%" stop-color="#fdb913"/></radialGradient><radialGradient id="A" fx=".5" fy=".5"><stop offset="0%" stop-color="#fee6d3"/><stop offset="29.16%" stop-color="#fee4d0"/><stop offset="52.23%" stop-color="#fedec6"/><stop offset="73.2%" stop-color="#fdd3b6"/><stop offset="92.83%" stop-color="#fcc4a0"/><stop offset="100%" stop-color="#fbbd97"/></radialGradient><radialGradient id="B" fx=".5" fy=".5"><stop offset="0%" stop-color="#ffe600"/><stop offset="29.16%" stop-color="#ffe400"/><stop offset="52.23%" stop-color="#fd0"/><stop offset="73.2%" stop-color="#ffd100"/><stop offset="92.83%" stop-color="#fec00f"/><stop offset="100%" stop-color="#fdb913"/></radialGradient><radialGradient id="C" fx=".5" fy=".5"><stop offset="0%" stop-color="#fee6d3"/><stop offset="29.16%" stop-color="#fee4d0"/><stop offset="52.23%" stop-color="#fedec6"/><stop offset="73.2%" stop-color="#fdd3b6"/><stop offset="92.83%" stop-color="#fcc4a0"/><stop offset="100%" stop-color="#fbbd97"/></radialGradient><radialGradient id="D" fx=".5" fy=".5"><stop offset="0%" stop-color="#ffe600"/><stop offset="29.16%" stop-color="#ffe400"/><stop offset="52.23%" stop-color="#fd0"/><stop offset="73.2%" stop-color="#ffd100"/><stop offset="92.83%" stop-color="#fec00f"/><stop offset="100%" stop-color="#fdb913"/></radialGradient></defs><path fill="#d78334" d="M22.094 29.779c.494.447 3.204 1.09 4.895-1.1 1.1-1.425-1.465-.687-2.052-.77-.603-.085-1.078-1.138-2.192-.874-1.204.286-1.721 1.776-.651 2.744zM24.672 31.481s.754-.978 1.034-.755c.171.137-.11 1.93-.39 2.488-.28.56-1.343-.112-1.343-.112l.7-1.62z"/><path fill="#f89c44" d="M18.816 31.068s-3.646-1.203-4.218-4.752c-.708-4.383-5.966-3.367-7.338-2.298 0 0 2.886 1.384 3.091 5.387.17 3.33 5.194 5.09 7.992 2.345l.473-.682z"/><path fill="#f4953f" d="M20.254 27.12s-3.88 4.055-2.942 6.47c.843 2.165 6.364 2.46 7.861 2.192.745-.133 1.82-4.078 1.23-4.278-.529-.18-1.176.802-1.176.802s-1.054-5.393-3.193-5.553c-2.139-.16-1.78.366-1.78.366z"/><path fill="url(#a)" d="M25.227 32.306s-1.036-5.293-3.137-5.544l.227 2.184s1.362 3.005 2.91 3.36z"/><path fill="#d14e3f" d="M22.355 26.822c-.627-.052-1.42-.124-1.982.379-.922.825-.663 2.381.74 2.72.393.096 1.96-.207 3.046-.977-.455-.991-1.055-1.874-1.804-2.122z"/><path fill="#fedcbd" d="M22.344 26.82a15.97 15.97 0 0 0-.25-.019l.224 2.145s.135.298.367.716a5.62 5.62 0 0 0 1.474-.719c-.457-.994-1.061-1.88-1.815-2.123z"/><path fill="url(#b)" d="M16.892 12.495s2.65-1.974 5.819-1.61c0 0 1.207-3.036 3.182-3.712 0 0 1.326 2.343 1.37 4.508 0 0 4.02 5.334 4.332 7.984 0 0 2.598-.052 3.169-.363 0 0 .992-.424.248.492-1.238 1.526-4.897 4.878-8.404 6.21-4.255 1.615-8.105 2.285-10.911 0-2.66-2.168-2.39-9.56-2.39-9.56s-1.507-3.065-1.56-5.35c1.682-.429 5.145 1.401 5.145 1.401z"/><path fill="#f89c44" d="M16.892 12.495s2.776-2.124 5.945-1.76c0 0 1.08-2.886 3.055-3.562 0 0 1.326 2.343 1.37 4.508 0 0 4.02 5.334 4.333 7.984 0 0 2.597-.052 3.169-.363 0 0 .99-.424.248.492-1.24 1.526-4.898 4.878-8.405 6.21-4.255 1.615-8.105 2.285-10.911 0-2.66-2.168-2.39-9.56-2.39-9.56s-1.506-3.065-1.558-5.35c1.68-.429 5.144 1.401 5.144 1.401z"/><path fill="#f4dbc5" d="M12.895 23.648l-.074.958-.802-.16v.856l-.909-.054v.856l-.963-.107-.349.918c-.895-2.108-2.538-2.897-2.538-2.897.95-.74 3.76-1.453 5.635-.37z"/><path fill="#f4953f" d="M20.158 29.779c.494.447 3.204 1.09 4.895-1.1 1.101-1.425-1.465-.687-2.052-.77-.603-.085-1.078-1.138-2.192-.874-1.204.286-1.72 1.776-.65 2.744z"/><path fill="#f4dbc5" d="M24.117 10.82s1.856.118 3.146.861c-.045-2.165-1.37-4.508-1.37-4.508s-1.86 1.51-1.776 3.647z"/><ellipse cx="23.659" cy="20.294" rx=".504" ry=".837" fill="#304454"/><ellipse cx="28.388" cy="18.6" rx=".378" ry=".837" fill="#304454" transform="rotate(-10.532 28.388 18.6)"/><path fill="#d78334" d="M24.718 8.192s.07-.186.205-.473a4.803 4.803 0 0 0-.493.453c.096.007.191.009.288.02zM34.947 19.238c-1.712 1.546-4.117 3.334-6.458 4.223-4.255 1.615-8.105 2.285-10.91 0-2.66-2.168-2.39-9.561-2.39-9.561s-.555-1.13-1.002-2.528c-.877-.272-1.79-.444-2.438-.28.051 2.287 1.557 5.352 1.557 5.352s-.27 7.392 2.39 9.56c2.807 2.285 6.656 1.615 10.912 0 3.506-1.332 7.167-4.683 8.405-6.21.528-.651.18-.625-.066-.556z" opacity=".5"/><path fill="none" stroke="#414042" d="M18.867 26.637s-.902.492-1.312 1.107M18.089 26.391s-1.025.287-1.393.615" stroke-width=".181" stroke-linecap="round" stroke-linejoin="round"/><path fill="#f4dbc5" d="M11.793 11.196c-.013.03-.024.062-.036.092.128 2.262 1.55 5.156 1.55 5.156.718-1.558 2.42-2.773 2.42-2.773-1.061-1.37-3.934-2.475-3.934-2.475z"/><ellipse cx="34.765" cy="19.457" rx="1.013" ry=".857" fill="#304454"/><path fill="#d78334" d="M55.09 29.779c.493.447 3.203 1.09 4.894-1.1 1.101-1.425-1.465-.687-2.052-.77-.603-.085-1.078-1.138-2.192-.874-1.204.286-1.72 1.776-.65 2.744zM57.668 31.481s.754-.978 1.034-.755c.171.137-.11 1.93-.39 2.488-.28.56-1.343-.112-1.343-.112l.7-1.62z"/><path fill="#f89c44" d="M51.811 31.068s-3.646-1.203-4.218-4.752c-.707-4.383-5.966-3.367-7.337-2.298 0 0 2.885 1.384 3.091 5.387.17 3.33 5.194 5.09 7.991 2.345l.473-.682z"/><path fill="#f4953f" d="M53.25 27.12s-3.881 4.055-2.942 6.47c.843 2.165 6.364 2.46 7.861 2.192.745-.133 1.819-4.078 1.23-4.278-.529-.18-1.176.802-1.176.802s-1.054-5.393-3.193-5.553c-2.139-.16-1.78.366-1.78.366z"/><path fill="url(#c)" d="M58.223 32.306s-1.036-5.293-3.137-5.544l.227 2.184s1.362 3.005 2.91 3.36z"/><path fill="#d14e3f" d="M55.351 26.822c-.627-.052-1.421-.124-1.982.379-.922.825-.663 2.381.74 2.72.393.096 1.959-.207 3.046-.977-.455-.991-1.055-1.874-1.804-2.122z"/><path fill="#fedcbd" d="M55.34 26.82a15.97 15.97 0 0 0-.25-.019l.223 2.145s.135.298.367.716a5.62 5.62 0 0 0 1.474-.719c-.457-.994-1.06-1.88-1.815-2.123z"/><path fill="url(#d)" d="M49.887 12.495s2.65-1.974 5.82-1.61c0 0 1.206-3.036 3.181-3.712 0 0 1.326 2.343 1.37 4.508 0 0 4.021 5.334 4.332 7.984 0 0 2.598-.052 3.17-.363 0 0 .991-.424.247.492-1.238 1.526-4.897 4.878-8.404 6.21-4.255 1.615-8.105 2.285-10.91 0-2.66-2.168-2.39-9.56-2.39-9.56s-1.508-3.065-1.56-5.35c1.681-.429 5.144 1.401 5.144 1.401z"/><path fill="#f89c44" d="M49.887 12.495s2.776-2.124 5.945-1.76c0 0 1.081-2.886 3.055-3.562 0 0 1.326 2.343 1.371 4.508 0 0 4.02 5.334 4.332 7.984 0 0 2.597-.052 3.17-.363 0 0 .99-.424.247.492-1.239 1.526-4.898 4.878-8.405 6.21-4.255 1.615-8.105 2.285-10.91 0-2.66-2.168-2.39-9.56-2.39-9.56s-1.507-3.065-1.559-5.35c1.681-.429 5.144 1.401 5.144 1.401z"/><path fill="#f4dbc5" d="M45.891 23.648l-.074.958-.802-.16v.856l-.909-.054v.856l-.963-.107-.349.918c-.895-2.108-2.538-2.897-2.538-2.897.95-.74 3.76-1.453 5.635-.37z"/><path fill="#f4953f" d="M53.154 29.779c.494.447 3.204 1.09 4.895-1.1 1.1-1.425-1.465-.687-2.052-.77-.603-.085-1.078-1.138-2.192-.874-1.204.286-1.721 1.776-.651 2.744z"/><path fill="#f4dbc5" d="M57.113 10.82s1.856.118 3.146.861c-.045-2.165-1.371-4.508-1.371-4.508s-1.86 1.51-1.775 3.647z"/><ellipse cx="56.654" cy="20.294" rx=".504" ry=".837" fill="#304454"/><ellipse cx="61.384" cy="18.6" rx=".378" ry=".837" fill="#304454" transform="rotate(-10.532 61.384 18.6)"/><path fill="#d78334" d="M57.714 8.192s.07-.186.205-.473a4.803 4.803 0 0 0-.493.453c.096.007.19.009.288.02zM67.943 19.238c-1.712 1.546-4.117 3.334-6.458 4.223-4.255 1.615-8.105 2.285-10.91 0-2.66-2.168-2.39-9.561-2.39-9.561s-.555-1.13-1.003-2.528c-.877-.272-1.79-.444-2.438-.28.052 2.287 1.558 5.352 1.558 5.352s-.27 7.392 2.39 9.56c2.806 2.285 6.656 1.615 10.911 0 3.507-1.332 7.167-4.683 8.405-6.21.528-.651.181-.625-.065-.556z" opacity=".5"/><path fill="none" stroke="#414042" d="M51.863 26.637s-.902.492-1.312 1.107M51.084 26.391s-1.025.287-1.393.615" stroke-width=".181" stroke-linecap="round" stroke-linejoin="round"/><path fill="#f4dbc5" d="M44.788 11.196l-.035.092c.127 2.262 1.55 5.156 1.55 5.156.718-1.558 2.42-2.773 2.42-2.773-1.062-1.37-3.934-2.475-3.934-2.475z"/><ellipse cx="67.76" cy="19.457" rx="1.013" ry=".857" fill="#304454"/><path fill="#d78334" d="M88.085 29.779c.494.447 3.204 1.09 4.895-1.1 1.101-1.425-1.465-.687-2.052-.77-.603-.085-1.078-1.138-2.192-.874-1.204.286-1.72 1.776-.65 2.744zM90.664 31.481s.754-.978 1.034-.755c.171.137-.111 1.93-.391 2.488-.28.56-1.342-.112-1.342-.112l.699-1.62z"/><path fill="#f89c44" d="M84.807 31.068s-3.646-1.203-4.218-4.752c-.707-4.383-5.966-3.367-7.337-2.298 0 0 2.885 1.384 3.091 5.387.17 3.33 5.194 5.09 7.991 2.345l.473-.682z"/><path fill="#f4953f" d="M86.246 27.12s-3.881 4.055-2.942 6.47c.843 2.165 6.364 2.46 7.86 2.192.746-.133 1.82-4.078 1.23-4.278-.528-.18-1.175.802-1.175.802s-1.054-5.393-3.193-5.553c-2.14-.16-1.78.366-1.78.366z"/><path fill="url(#e)" d="M91.218 32.306s-1.036-5.293-3.137-5.544l.227 2.184s1.362 3.005 2.91 3.36z"/><path fill="#d14e3f" d="M88.347 26.822c-.627-.052-1.421-.124-1.982.379-.922.825-.663 2.381.74 2.72.393.096 1.959-.207 3.046-.977-.455-.991-1.055-1.874-1.804-2.122z"/><path fill="#fedcbd" d="M88.335 26.82a15.97 15.97 0 0 0-.249-.019l.223 2.145s.135.298.367.716a5.62 5.62 0 0 0 1.474-.719c-.457-.994-1.06-1.88-1.815-2.123z"/><path fill="url(#f)" d="M82.883 12.495s2.65-1.974 5.82-1.61c0 0 1.206-3.036 3.181-3.712 0 0 1.326 2.343 1.37 4.508 0 0 4.021 5.334 4.332 7.984 0 0 2.598-.052 3.169-.363 0 0 .992-.424.248.492-1.238 1.526-4.897 4.878-8.404 6.21-4.255 1.615-8.105 2.285-10.91 0-2.66-2.168-2.39-9.56-2.39-9.56s-1.508-3.065-1.56-5.35c1.681-.429 5.144 1.401 5.144 1.401z"/><path fill="#f89c44" d="M82.883 12.495s2.776-2.124 5.945-1.76c0 0 1.081-2.886 3.055-3.562 0 0 1.326 2.343 1.371 4.508 0 0 4.02 5.334 4.332 7.984 0 0 2.597-.052 3.169-.363 0 0 .991-.424.248.492-1.239 1.526-4.898 4.878-8.405 6.21-4.255 1.615-8.105 2.285-10.91 0-2.66-2.168-2.39-9.56-2.39-9.56s-1.507-3.065-1.559-5.35c1.681-.429 5.144 1.401 5.144 1.401z"/><path fill="#f4dbc5" d="M78.887 23.648l-.074.958-.802-.16v.856l-.909-.054v.856l-.963-.107-.349.918c-.895-2.108-2.538-2.897-2.538-2.897.949-.74 3.759-1.453 5.635-.37z"/><path fill="#f4953f" d="M86.15 29.779c.494.447 3.204 1.09 4.895-1.1 1.1-1.425-1.465-.687-2.052-.77-.603-.085-1.078-1.138-2.192-.874-1.204.286-1.721 1.776-.651 2.744z"/><path fill="#f4dbc5" d="M90.109 10.82s1.856.118 3.146.861c-.045-2.165-1.371-4.508-1.371-4.508s-1.86 1.51-1.775 3.647z"/><ellipse cx="89.65" cy="20.294" rx=".504" ry=".837" fill="#304454"/><ellipse cx="94.38" cy="18.6" rx=".378" ry=".837" fill="#304454" transform="rotate(-10.532 94.38 18.6)"/><path fill="#d78334" d="M90.71 8.192s.07-.186.205-.473a4.803 4.803 0 0 0-.493.453c.096.007.19.009.288.02zM100.939 19.238c-1.712 1.546-4.117 3.334-6.458 4.223-4.255 1.615-8.105 2.285-10.91 0-2.66-2.168-2.39-9.561-2.39-9.561s-.555-1.13-1.003-2.528c-.877-.272-1.79-.444-2.438-.28.052 2.287 1.558 5.352 1.558 5.352s-.27 7.392 2.39 9.56c2.806 2.285 6.656 1.615 10.911 0 3.507-1.332 7.167-4.683 8.405-6.21.528-.651.181-.625-.065-.556z" opacity=".5"/><path fill="none" stroke="#414042" d="M84.859 26.637s-.902.492-1.312 1.107M84.08 26.391s-1.025.287-1.393.615" stroke-width=".181" stroke-linecap="round" stroke-linejoin="round"/><path fill="#f4dbc5" d="M77.784 11.196c-.013.03-.024.062-.036.092.128 2.262 1.55 5.156 1.55 5.156.718-1.558 2.42-2.773 2.42-2.773-1.06-1.37-3.934-2.475-3.934-2.475z"/><ellipse cx="100.756" cy="19.457" rx="1.013" ry=".857" fill="#304454"/><path fill="#d78334" d="M22.094 62.775c.494.447 3.204 1.09 4.895-1.1 1.1-1.425-1.465-.687-2.052-.77-.603-.085-1.078-1.138-2.192-.874-1.204.286-1.721 1.776-.651 2.744zM24.672 64.477s.754-.978 1.034-.755c.171.137-.11 1.93-.39 2.488-.28.56-1.343-.112-1.343-.112l.7-1.62z"/><path fill="#f89c44" d="M18.816 64.064s-3.646-1.203-4.218-4.752c-.708-4.383-5.966-3.367-7.338-2.298 0 0 2.886 1.383 3.091 5.386.17 3.33 5.194 5.092 7.992 2.346l.473-.682z"/><path fill="#f4953f" d="M20.254 60.115s-3.88 4.056-2.942 6.471c.843 2.165 6.364 2.46 7.861 2.192.745-.133 1.82-4.078 1.23-4.278-.529-.18-1.176.802-1.176.802s-1.054-5.393-3.193-5.553c-2.139-.16-1.78.366-1.78.366z"/><path fill="url(#g)" d="M25.227 65.302s-1.036-5.294-3.137-5.545l.227 2.185s1.362 3.005 2.91 3.36z"/><path fill="#d14e3f" d="M22.355 59.817c-.627-.052-1.42-.124-1.982.38-.922.825-.663 2.381.74 2.72.393.095 1.96-.208 3.046-.978-.455-.99-1.055-1.874-1.804-2.122z"/><path fill="#fedcbd" d="M22.344 59.816a15.97 15.97 0 0 0-.25-.019l.224 2.145s.135.298.367.716a5.62 5.62 0 0 0 1.474-.719c-.457-.994-1.061-1.88-1.815-2.123z"/><path fill="url(#h)" d="M16.892 45.49s2.65-1.973 5.819-1.61c0 0 1.207-3.035 3.182-3.711 0 0 1.326 2.343 1.37 4.508 0 0 4.02 5.334 4.332 7.984 0 0 2.598-.052 3.169-.363 0 0 .992-.424.248.492-1.238 1.526-4.897 4.878-8.404 6.21-4.255 1.615-8.105 2.285-10.911 0-2.66-2.168-2.39-9.56-2.39-9.56s-1.507-3.065-1.56-5.351c1.682-.428 5.145 1.402 5.145 1.402z"/><path fill="#f89c44" d="M16.892 45.49s2.776-2.123 5.945-1.76c0 0 1.08-2.885 3.055-3.561 0 0 1.326 2.343 1.37 4.508 0 0 4.02 5.334 4.333 7.984 0 0 2.597-.052 3.169-.363 0 0 .99-.424.248.492-1.24 1.526-4.898 4.878-8.405 6.21-4.255 1.615-8.105 2.285-10.911 0-2.66-2.168-2.39-9.56-2.39-9.56s-1.506-3.065-1.558-5.351c1.68-.428 5.144 1.402 5.144 1.402z"/><path fill="#f4dbc5" d="M12.895 56.644l-.074.958-.802-.16v.856l-.909-.054v.856l-.963-.107-.349.918c-.895-2.108-2.538-2.897-2.538-2.897.95-.74 3.76-1.453 5.635-.37z"/><path fill="#f4953f" d="M20.158 62.775c.494.447 3.204 1.09 4.895-1.1 1.101-1.425-1.465-.687-2.052-.77-.603-.085-1.078-1.138-2.192-.874-1.204.286-1.72 1.776-.65 2.744z"/><path fill="#f4dbc5" d="M24.117 43.816s1.856.118 3.146.86c-.045-2.164-1.37-4.507-1.37-4.507s-1.86 1.509-1.776 3.647z"/><ellipse cx="23.659" cy="53.29" rx=".504" ry=".837" fill="#304454"/><ellipse cx="28.388" cy="51.596" rx=".378" ry=".837" fill="#304454" transform="rotate(-10.532 28.388 51.596)"/><path fill="#d78334" d="M24.718 41.187s.07-.186.205-.473a4.803 4.803 0 0 0-.493.453c.096.007.191.01.288.02zM34.947 52.233c-1.712 1.547-4.117 3.335-6.458 4.224-4.255 1.614-8.105 2.285-10.91 0-2.66-2.169-2.39-9.562-2.39-9.562s-.555-1.13-1.002-2.528c-.877-.271-1.79-.444-2.438-.278.051 2.285 1.557 5.35 1.557 5.35s-.27 7.392 2.39 9.56c2.807 2.285 6.656 1.615 10.912 0 3.506-1.332 7.167-4.683 8.405-6.21.528-.65.18-.625-.066-.556z" opacity=".5"/><path fill="none" stroke="#414042" d="M18.867 59.633s-.902.492-1.312 1.107M18.089 59.387s-1.025.287-1.393.615" stroke-width=".181" stroke-linecap="round" stroke-linejoin="round"/><path fill="#f4dbc5" d="M11.793 44.191c-.013.03-.024.062-.036.092.128 2.262 1.55 5.156 1.55 5.156.718-1.558 2.42-2.773 2.42-2.773-1.061-1.37-3.934-2.475-3.934-2.475z"/><ellipse cx="34.765" cy="52.453" rx="1.013" ry=".857" fill="#304454"/><path fill="#d78334" d="M55.09 62.775c.493.447 3.203 1.09 4.894-1.1 1.101-1.425-1.465-.687-2.052-.77-.603-.085-1.078-1.138-2.192-.874-1.204.286-1.72 1.776-.65 2.744zM57.668 64.477s.754-.978 1.034-.755c.171.137-.11 1.93-.39 2.488-.28.56-1.343-.112-1.343-.112l.7-1.62z"/><path fill="#f89c44" d="M51.811 64.064s-3.646-1.203-4.218-4.752c-.707-4.383-5.966-3.367-7.337-2.298 0 0 2.885 1.383 3.091 5.386.17 3.33 5.194 5.092 7.991 2.346l.473-.682z"/><path fill="#f4953f" d="M53.25 60.115s-3.881 4.056-2.942 6.471c.843 2.165 6.364 2.46 7.861 2.192.745-.133 1.819-4.078 1.23-4.278-.529-.18-1.176.802-1.176.802s-1.054-5.393-3.193-5.553c-2.139-.16-1.78.366-1.78.366z"/><path fill="url(#i)" d="M58.223 65.302s-1.036-5.294-3.137-5.545l.227 2.185s1.362 3.005 2.91 3.36z"/><path fill="#d14e3f" d="M55.351 59.817c-.627-.052-1.421-.124-1.982.38-.922.825-.663 2.381.74 2.72.393.095 1.959-.208 3.046-.978-.455-.99-1.055-1.874-1.804-2.122z"/><path fill="#fedcbd" d="M55.34 59.816a15.97 15.97 0 0 0-.25-.019l.223 2.145s.135.298.367.716a5.62 5.62 0 0 0 1.474-.719c-.457-.994-1.06-1.88-1.815-2.123z"/><path fill="url(#j)" d="M49.887 45.49s2.65-1.973 5.82-1.61c0 0 1.206-3.035 3.181-3.711 0 0 1.326 2.343 1.37 4.508 0 0 4.021 5.334 4.332 7.984 0 0 2.598-.052 3.17-.363 0 0 .991-.424.247.492-1.238 1.526-4.897 4.878-8.404 6.21-4.255 1.615-8.105 2.285-10.91 0-2.66-2.168-2.39-9.56-2.39-9.56s-1.508-3.065-1.56-5.351c1.681-.428 5.144 1.402 5.144 1.402z"/><path fill="#f89c44" d="M49.887 45.49s2.776-2.123 5.945-1.76c0 0 1.081-2.885 3.055-3.561 0 0 1.326 2.343 1.371 4.508 0 0 4.02 5.334 4.332 7.984 0 0 2.597-.052 3.17-.363 0 0 .99-.424.247.492-1.239 1.526-4.898 4.878-8.405 6.21-4.255 1.615-8.105 2.285-10.91 0-2.66-2.168-2.39-9.56-2.39-9.56s-1.507-3.065-1.559-5.351c1.681-.428 5.144 1.402 5.144 1.402z"/><path fill="#f4dbc5" d="M45.891 56.644l-.074.958-.802-.16v.856l-.909-.054v.856l-.963-.107-.349.918c-.895-2.108-2.538-2.897-2.538-2.897.95-.74 3.76-1.453 5.635-.37z"/><path fill="#f4953f" d="M53.154 62.775c.494.447 3.204 1.09 4.895-1.1 1.1-1.425-1.465-.687-2.052-.77-.603-.085-1.078-1.138-2.192-.874-1.204.286-1.721 1.776-.651 2.744z"/><path fill="#f4dbc5" d="M57.113 43.816s1.856.118 3.146.86c-.045-2.164-1.371-4.507-1.371-4.507s-1.86 1.509-1.775 3.647z"/><ellipse cx="56.654" cy="53.29" rx=".504" ry=".837" fill="#304454"/><ellipse cx="61.384" cy="51.596" rx=".378" ry=".837" fill="#304454" transform="rotate(-10.532 61.384 51.596)"/><path fill="#d78334" d="M57.714 41.187s.07-.186.205-.473a4.803 4.803 0 0 0-.493.453c.096.007.19.01.288.02zM67.943 52.233c-1.712 1.547-4.117 3.335-6.458 4.224-4.255 1.614-8.105 2.285-10.91 0-2.66-2.169-2.39-9.562-2.39-9.562s-.555-1.13-1.003-2.528c-.877-.271-1.79-.444-2.438-.278.052 2.285 1.558 5.35 1.558 5.35s-.27 7.392 2.39 9.56c2.806 2.285 6.656 1.615 10.911 0 3.507-1.332 7.167-4.683 8.405-6.21.528-.65.181-.625-.065-.556z" opacity=".5"/><path fill="none" stroke="#414042" d="M51.863 59.633s-.902.492-1.312 1.107M51.084 59.387s-1.025.287-1.393.615" stroke-width=".181" stroke-linecap="round" stroke-linejoin="round"/><path fill="#f4dbc5" d="M44.788 44.191l-.035.092c.127 2.262 1.55 5.156 1.55 5.156.718-1.558 2.42-2.773 2.42-2.773-1.062-1.37-3.934-2.475-3.934-2.475z"/><ellipse cx="67.76" cy="52.453" rx="1.013" ry=".857" fill="#304454"/><path fill="#d78334" d="M88.085 62.775c.494.447 3.204 1.09 4.895-1.1 1.101-1.425-1.465-.687-2.052-.77-.603-.085-1.078-1.138-2.192-.874-1.204.286-1.72 1.776-.65 2.744zM90.664 64.477s.754-.978 1.034-.755c.171.137-.111 1.93-.391 2.488-.28.56-1.342-.112-1.342-.112l.699-1.62z"/><path fill="#f89c44" d="M84.807 64.064s-3.646-1.203-4.218-4.752c-.707-4.383-5.966-3.367-7.337-2.298 0 0 2.885 1.383 3.091 5.386.17 3.33 5.194 5.092 7.991 2.346l.473-.682z"/><path fill="#f4953f" d="M86.246 60.115s-3.881 4.056-2.942 6.471c.843 2.165 6.364 2.46 7.86 2.192.746-.133 1.82-4.078 1.23-4.278-.528-.18-1.175.802-1.175.802s-1.054-5.393-3.193-5.553c-2.14-.16-1.78.366-1.78.366z"/><path fill="url(#k)" d="M91.218 65.302s-1.036-5.294-3.137-5.545l.227 2.185s1.362 3.005 2.91 3.36z"/><path fill="#d14e3f" d="M88.347 59.817c-.627-.052-1.421-.124-1.982.38-.922.825-.663 2.381.74 2.72.393.095 1.959-.208 3.046-.978-.455-.99-1.055-1.874-1.804-2.122z"/><path fill="#fedcbd" d="M88.335 59.816a15.97 15.97 0 0 0-.249-.019l.223 2.145s.135.298.367.716a5.62 5.62 0 0 0 1.474-.719c-.457-.994-1.06-1.88-1.815-2.123z"/><path fill="url(#l)" d="M82.883 45.49s2.65-1.973 5.82-1.61c0 0 1.206-3.035 3.181-3.711 0 0 1.326 2.343 1.37 4.508 0 0 4.021 5.334 4.332 7.984 0 0 2.598-.052 3.169-.363 0 0 .992-.424.248.492-1.238 1.526-4.897 4.878-8.404 6.21-4.255 1.615-8.105 2.285-10.91 0-2.66-2.168-2.39-9.56-2.39-9.56s-1.508-3.065-1.56-5.351c1.681-.428 5.144 1.402 5.144 1.402z"/><path fill="#f89c44" d="M82.883 45.49s2.776-2.123 5.945-1.76c0 0 1.081-2.885 3.055-3.561 0 0 1.326 2.343 1.371 4.508 0 0 4.02 5.334 4.332 7.984 0 0 2.597-.052 3.169-.363 0 0 .991-.424.248.492-1.239 1.526-4.898 4.878-8.405 6.21-4.255 1.615-8.105 2.285-10.91 0-2.66-2.168-2.39-9.56-2.39-9.56s-1.507-3.065-1.559-5.351c1.681-.428 5.144 1.402 5.144 1.402z"/><path fill="#f4dbc5" d="M78.887 56.644l-.074.958-.802-.16v.856l-.909-.054v.856l-.963-.107-.349.918c-.895-2.108-2.538-2.897-2.538-2.897.949-.74 3.759-1.453 5.635-.37z"/><path fill="#f4953f" d="M86.15 62.775c.494.447 3.204 1.09 4.895-1.1 1.1-1.425-1.465-.687-2.052-.77-.603-.085-1.078-1.138-2.192-.874-1.204.286-1.721 1.776-.651 2.744z"/><path fill="#f4dbc5" d="M90.109 43.816s1.856.118 3.146.86c-.045-2.164-1.371-4.507-1.371-4.507s-1.86 1.509-1.775 3.647z"/><ellipse cx="89.65" cy="53.29" rx=".504" ry=".837" fill="#304454"/><ellipse cx="94.38" cy="51.596" rx=".378" ry=".837" fill="#304454" transform="rotate(-10.532 94.38 51.596)"/><path fill="#d78334" d="M90.71 41.187s.07-.186.205-.473a4.803 4.803 0 0 0-.493.453c.096.007.19.01.288.02zM100.939 52.233c-1.712 1.547-4.117 3.335-6.458 4.224-4.255 1.614-8.105 2.285-10.91 0-2.66-2.169-2.39-9.562-2.39-9.562s-.555-1.13-1.003-2.528c-.877-.271-1.79-.444-2.438-.278.052 2.285 1.558 5.35 1.558 5.35s-.27 7.392 2.39 9.56c2.806 2.285 6.656 1.615 10.911 0 3.507-1.332 7.167-4.683 8.405-6.21.528-.65.181-.625-.065-.556z" opacity=".5"/><path fill="none" stroke="#414042" d="M84.859 59.633s-.902.492-1.312 1.107M84.08 59.387s-1.025.287-1.393.615" stroke-width=".181" stroke-linecap="round" stroke-linejoin="round"/><path fill="#f4dbc5" d="M77.784 44.191c-.013.03-.024.062-.036.092.128 2.262 1.55 5.156 1.55 5.156.718-1.558 2.42-2.773 2.42-2.773-1.06-1.37-3.934-2.475-3.934-2.475z"/><ellipse cx="100.756" cy="52.453" rx="1.013" ry=".857" fill="#304454"/><path fill="#d78334" d="M22.094 95.77c.494.447 3.204 1.091 4.895-1.099 1.1-1.426-1.465-.688-2.052-.77-.603-.086-1.078-1.139-2.192-.875-1.204.286-1.721 1.776-.651 2.744zM24.672 97.473s.754-.978 1.034-.755c.171.137-.11 1.929-.39 2.488-.28.559-1.343-.112-1.343-.112l.7-1.621z"/><path fill="#f89c44" d="M18.816 97.06s-3.646-1.204-4.218-4.753c-.708-4.383-5.966-3.367-7.338-2.298 0 0 2.886 1.384 3.091 5.387.17 3.33 5.194 5.091 7.992 2.345l.473-.682z"/><path fill="#f4953f" d="M20.254 93.111s-3.88 4.056-2.942 6.471c.843 2.165 6.364 2.459 7.861 2.192.745-.133 1.82-4.078 1.23-4.278-.529-.18-1.176.802-1.176.802s-1.054-5.393-3.193-5.553c-2.139-.161-1.78.366-1.78.366z"/><path fill="url(#m)" d="M25.227 98.298s-1.036-5.294-3.137-5.545l.227 2.185s1.362 3.005 2.91 3.36z"/><path fill="#d14e3f" d="M22.355 92.813c-.627-.052-1.42-.124-1.982.38-.922.825-.663 2.381.74 2.72.393.095 1.96-.208 3.046-.978-.455-.99-1.055-1.874-1.804-2.122z"/><path fill="#fedcbd" d="M22.344 92.812a15.97 15.97 0 0 0-.25-.019l.224 2.145s.135.298.367.716a5.62 5.62 0 0 0 1.474-.719c-.457-.994-1.061-1.881-1.815-2.123z"/><path fill="url(#n)" d="M16.892 78.487s2.65-1.974 5.819-1.61c0 0 1.207-3.036 3.182-3.712 0 0 1.326 2.343 1.37 4.508 0 0 4.02 5.334 4.332 7.984 0 0 2.598-.052 3.169-.363 0 0 .992-.424.248.492-1.238 1.526-4.897 4.878-8.404 6.21-4.255 1.615-8.105 2.285-10.911 0-2.66-2.168-2.39-9.56-2.39-9.56s-1.507-3.065-1.56-5.351c1.682-.428 5.145 1.402 5.145 1.402z"/><path fill="#f89c44" d="M16.892 78.487s2.776-2.124 5.945-1.761c0 0 1.08-2.885 3.055-3.561 0 0 1.326 2.343 1.37 4.508 0 0 4.02 5.334 4.333 7.984 0 0 2.597-.052 3.169-.363 0 0 .99-.424.248.492-1.24 1.526-4.898 4.878-8.405 6.21-4.255 1.615-8.105 2.285-10.911 0-2.66-2.168-2.39-9.56-2.39-9.56s-1.506-3.065-1.558-5.351c1.68-.428 5.144 1.402 5.144 1.402z"/><path fill="#f4dbc5" d="M12.895 89.64l-.074.957-.802-.16v.856l-.909-.053v.856l-.963-.108-.349.918C8.903 90.798 7.26 90.01 7.26 90.01c.95-.74 3.76-1.453 5.635-.37z"/><path fill="#f4953f" d="M20.158 95.77c.494.447 3.204 1.091 4.895-1.099 1.101-1.426-1.465-.688-2.052-.77-.603-.086-1.078-1.139-2.192-.875-1.204.286-1.72 1.776-.65 2.744z"/><path fill="#f4dbc5" d="M24.117 76.812s1.856.118 3.146.86c-.045-2.164-1.37-4.507-1.37-4.507s-1.86 1.509-1.776 3.647z"/><ellipse cx="23.659" cy="86.286" rx=".504" ry=".837" fill="#304454"/><ellipse cx="28.388" cy="84.591" rx=".378" ry=".837" fill="#304454" transform="rotate(-10.532 28.388 84.591)"/><path fill="#d78334" d="M24.718 74.183s.07-.186.205-.473a4.803 4.803 0 0 0-.493.453c.096.007.191.01.288.02zM34.947 85.23c-1.712 1.545-4.117 3.333-6.458 4.222-4.255 1.615-8.105 2.285-10.91 0-2.66-2.168-2.39-9.56-2.39-9.56s-.555-1.13-1.002-2.529c-.877-.272-1.79-.444-2.438-.279.051 2.286 1.557 5.351 1.557 5.351s-.27 7.392 2.39 9.56c2.807 2.285 6.656 1.615 10.912 0 3.506-1.332 7.167-4.683 8.405-6.21.528-.65.18-.625-.066-.556z" opacity=".5"/><path fill="none" stroke="#414042" d="M18.867 92.628s-.902.492-1.312 1.107M18.089 92.383s-1.025.287-1.393.615" stroke-width=".181" stroke-linecap="round" stroke-linejoin="round"/><path fill="#f4dbc5" d="M11.793 77.187c-.013.03-.024.062-.036.092.128 2.262 1.55 5.156 1.55 5.156.718-1.558 2.42-2.773 2.42-2.773-1.061-1.37-3.934-2.475-3.934-2.475z"/><ellipse cx="34.765" cy="85.449" rx="1.013" ry=".857" fill="#304454"/><path fill="#d78334" d="M55.09 95.77c.493.447 3.203 1.091 4.894-1.099 1.101-1.426-1.465-.688-2.052-.77-.603-.086-1.078-1.139-2.192-.875-1.204.286-1.72 1.776-.65 2.744zM57.668 97.473s.754-.978 1.034-.755c.171.137-.11 1.929-.39 2.488s-1.343-.112-1.343-.112l.7-1.621z"/><path fill="#f89c44" d="M51.811 97.06s-3.646-1.204-4.218-4.753c-.707-4.383-5.966-3.367-7.337-2.298 0 0 2.885 1.384 3.091 5.387.17 3.33 5.194 5.091 7.991 2.345l.473-.682z"/><path fill="#f4953f" d="M53.25 93.111s-3.881 4.056-2.942 6.471c.843 2.165 6.364 2.459 7.861 2.192.745-.133 1.819-4.078 1.23-4.278-.529-.18-1.176.802-1.176.802s-1.054-5.393-3.193-5.553c-2.139-.161-1.78.366-1.78.366z"/><path fill="url(#o)" d="M58.223 98.298s-1.036-5.294-3.137-5.545l.227 2.185s1.362 3.005 2.91 3.36z"/><path fill="#d14e3f" d="M55.351 92.813c-.627-.052-1.421-.124-1.982.38-.922.825-.663 2.381.74 2.72.393.095 1.959-.208 3.046-.978-.455-.99-1.055-1.874-1.804-2.122z"/><path fill="#fedcbd" d="M55.34 92.812a15.97 15.97 0 0 0-.25-.019l.223 2.145s.135.298.367.716a5.62 5.62 0 0 0 1.474-.719c-.457-.994-1.06-1.881-1.815-2.123z"/><path fill="url(#p)" d="M49.887 78.487s2.65-1.974 5.82-1.61c0 0 1.206-3.036 3.181-3.712 0 0 1.326 2.343 1.37 4.508 0 0 4.021 5.334 4.332 7.984 0 0 2.598-.052 3.17-.363 0 0 .991-.424.247.492-1.238 1.526-4.897 4.878-8.404 6.21-4.255 1.615-8.105 2.285-10.91 0-2.66-2.168-2.39-9.56-2.39-9.56s-1.508-3.065-1.56-5.351c1.681-.428 5.144 1.402 5.144 1.402z"/><path fill="#f89c44" d="M49.887 78.487s2.776-2.124 5.945-1.761c0 0 1.081-2.885 3.055-3.561 0 0 1.326 2.343 1.371 4.508 0 0 4.02 5.334 4.332 7.984 0 0 2.597-.052 3.17-.363 0 0 .99-.424.247.492-1.239 1.526-4.898 4.878-8.405 6.21-4.255 1.615-8.105 2.285-10.91 0-2.66-2.168-2.39-9.56-2.39-9.56s-1.507-3.065-1.559-5.351c1.681-.428 5.144 1.402 5.144 1.402z"/><path fill="#f4dbc5" d="M45.891 89.64l-.074.957-.802-.16v.856l-.909-.053v.856l-.963-.108-.349.918c-.895-2.108-2.538-2.897-2.538-2.897.95-.74 3.76-1.453 5.635-.37z"/><path fill="#f4953f" d="M53.154 95.77c.494.447 3.204 1.091 4.895-1.099 1.1-1.426-1.465-.688-2.052-.77-.603-.086-1.078-1.139-2.192-.875-1.204.286-1.721 1.776-.651 2.744z"/><path fill="#f4dbc5" d="M57.113 76.812s1.856.118 3.146.86c-.045-2.164-1.371-4.507-1.371-4.507s-1.86 1.509-1.775 3.647z"/><ellipse cx="56.654" cy="86.286" rx=".504" ry=".837" fill="#304454"/><ellipse cx="61.384" cy="84.591" rx=".378" ry=".837" fill="#304454" transform="rotate(-10.532 61.384 84.591)"/><path fill="#d78334" d="M57.714 74.183s.07-.186.205-.473a4.803 4.803 0 0 0-.493.453c.096.007.19.01.288.02zM67.943 85.23c-1.712 1.545-4.117 3.333-6.458 4.222-4.255 1.615-8.105 2.285-10.91 0-2.66-2.168-2.39-9.56-2.39-9.56s-.555-1.13-1.003-2.529c-.877-.272-1.79-.444-2.438-.279.052 2.286 1.558 5.351 1.558 5.351s-.27 7.392 2.39 9.56c2.806 2.285 6.656 1.615 10.911 0 3.507-1.332 7.167-4.683 8.405-6.21.528-.65.181-.625-.065-.556z" opacity=".5"/><path fill="none" stroke="#414042" d="M51.863 92.628s-.902.492-1.312 1.107M51.084 92.383s-1.025.287-1.393.615" stroke-width=".181" stroke-linecap="round" stroke-linejoin="round"/><path fill="#f4dbc5" d="M44.788 77.187l-.035.092c.127 2.262 1.55 5.156 1.55 5.156.718-1.558 2.42-2.773 2.42-2.773-1.062-1.37-3.934-2.475-3.934-2.475z"/><ellipse cx="67.76" cy="85.449" rx="1.013" ry=".857" fill="#304454"/><path fill="#d78334" d="M88.085 95.77c.494.447 3.204 1.091 4.895-1.099 1.101-1.426-1.465-.688-2.052-.77-.603-.086-1.078-1.139-2.192-.875-1.204.286-1.72 1.776-.65 2.744zM90.664 97.473s.754-.978 1.034-.755c.171.137-.111 1.929-.391 2.488s-1.342-.112-1.342-.112l.699-1.621z"/><path fill="#f89c44" d="M84.807 97.06s-3.646-1.204-4.218-4.753c-.707-4.383-5.966-3.367-7.337-2.298 0 0 2.885 1.384 3.091 5.387.17 3.33 5.194 5.091 7.991 2.345l.473-.682z"/><path fill="#f4953f" d="M86.246 93.111s-3.881 4.056-2.942 6.471c.843 2.165 6.364 2.459 7.86 2.192.746-.133 1.82-4.078 1.23-4.278-.528-.18-1.175.802-1.175.802s-1.054-5.393-3.193-5.553c-2.14-.161-1.78.366-1.78.366z"/><path fill="url(#q)" d="M91.218 98.298s-1.036-5.294-3.137-5.545l.227 2.185s1.362 3.005 2.91 3.36z"/><path fill="#d14e3f" d="M88.347 92.813c-.627-.052-1.421-.124-1.982.38-.922.825-.663 2.381.74 2.72.393.095 1.959-.208 3.046-.978-.455-.99-1.055-1.874-1.804-2.122z"/><path fill="#fedcbd" d="M88.335 92.812a15.97 15.97 0 0 0-.249-.019l.223 2.145s.135.298.367.716a5.62 5.62 0 0 0 1.474-.719c-.457-.994-1.06-1.881-1.815-2.123z"/><path fill="url(#r)" d="M82.883 78.487s2.65-1.974 5.82-1.61c0 0 1.206-3.036 3.181-3.712 0 0 1.326 2.343 1.37 4.508 0 0 4.021 5.334 4.332 7.984 0 0 2.598-.052 3.169-.363 0 0 .992-.424.248.492-1.238 1.526-4.897 4.878-8.404 6.21-4.255 1.615-8.105 2.285-10.91 0-2.66-2.168-2.39-9.56-2.39-9.56s-1.508-3.065-1.56-5.351c1.681-.428 5.144 1.402 5.144 1.402z"/><path fill="#f89c44" d="M82.883 78.487s2.776-2.124 5.945-1.761c0 0 1.081-2.885 3.055-3.561 0 0 1.326 2.343 1.371 4.508 0 0 4.02 5.334 4.332 7.984 0 0 2.597-.052 3.169-.363 0 0 .991-.424.248.492-1.239 1.526-4.898 4.878-8.405 6.21-4.255 1.615-8.105 2.285-10.91 0-2.66-2.168-2.39-9.56-2.39-9.56s-1.507-3.065-1.559-5.351c1.681-.428 5.144 1.402 5.144 1.402z"/><path fill="#f4dbc5" d="M78.887 89.64l-.074.957-.802-.16v.856l-.909-.053v.856l-.963-.108-.349.918c-.895-2.108-2.538-2.897-2.538-2.897.949-.74 3.759-1.453 5.635-.37z"/><path fill="#f4953f" d="M86.15 95.77c.494.447 3.204 1.091 4.895-1.099 1.1-1.426-1.465-.688-2.052-.77-.603-.086-1.078-1.139-2.192-.875-1.204.286-1.721 1.776-.651 2.744z"/><path fill="#f4dbc5" d="M90.109 76.812s1.856.118 3.146.86c-.045-2.164-1.371-4.507-1.371-4.507s-1.86 1.509-1.775 3.647z"/><ellipse cx="89.65" cy="86.286" rx=".504" ry=".837" fill="#304454"/><ellipse cx="94.38" cy="84.591" rx=".378" ry=".837" fill="#304454" transform="rotate(-10.532 94.38 84.591)"/><path fill="#d78334" d="M90.71 74.183s.07-.186.205-.473a4.803 4.803 0 0 0-.493.453c.096.007.19.01.288.02zM100.939 85.23c-1.712 1.545-4.117 3.333-6.458 4.222-4.255 1.615-8.105 2.285-10.91 0-2.66-2.168-2.39-9.56-2.39-9.56s-.555-1.13-1.003-2.529c-.877-.272-1.79-.444-2.438-.279.052 2.286 1.558 5.351 1.558 5.351s-.27 7.392 2.39 9.56c2.806 2.285 6.656 1.615 10.911 0 3.507-1.332 7.167-4.683 8.405-6.21.528-.65.181-.625-.065-.556z" opacity=".5"/><path fill="none" stroke="#414042" d="M84.859 92.628s-.902.492-1.312 1.107M84.08 92.383s-1.025.287-1.393.615" stroke-width=".181" stroke-linecap="round" stroke-linejoin="round"/><path fill="#f4dbc5" d="M77.784 77.187c-.013.03-.024.062-.036.092.128 2.262 1.55 5.156 1.55 5.156.718-1.558 2.42-2.773 2.42-2.773-1.06-1.37-3.934-2.475-3.934-2.475z"/><ellipse cx="100.756" cy="85.449" rx="1.013" ry=".857" fill="#304454"/><path fill="#d78334" d="M22.094 128.766c.494.447 3.204 1.091 4.895-1.099 1.1-1.426-1.465-.688-2.052-.77-.603-.086-1.078-1.139-2.192-.875-1.204.286-1.721 1.776-.651 2.744zM24.672 130.469s.754-.978 1.034-.755c.171.137-.11 1.929-.39 2.488-.28.559-1.343-.112-1.343-.112l.7-1.621z"/><path fill="#f89c44" d="M18.816 130.055s-3.646-1.203-4.218-4.752c-.708-4.383-5.966-3.367-7.338-2.298 0 0 2.886 1.384 3.091 5.387.17 3.33 5.194 5.091 7.992 2.345l.473-.682z"/><path fill="#f4953f" d="M20.254 126.107s-3.88 4.056-2.942 6.471c.843 2.165 6.364 2.459 7.861 2.192.745-.133 1.82-4.078 1.23-4.278-.529-.18-1.176.802-1.176.802s-1.054-5.393-3.193-5.553c-2.139-.161-1.78.366-1.78.366z"/><path fill="url(#s)" d="M25.227 131.294S24.19 126 22.09 125.749l.227 2.185s1.362 3.005 2.91 3.36z"/><path fill="#d14e3f" d="M22.355 125.809c-.627-.052-1.42-.124-1.982.379-.922.826-.663 2.382.74 2.721.393.095 1.96-.208 3.046-.978-.455-.991-1.055-1.874-1.804-2.122z"/><path fill="#fedcbd" d="M22.344 125.808a15.97 15.97 0 0 0-.25-.019l.224 2.145s.135.298.367.716a5.62 5.62 0 0 0 1.474-.719c-.457-.994-1.061-1.881-1.815-2.123z"/><path fill="url(#t)" d="M16.892 111.482s2.65-1.974 5.819-1.61c0 0 1.207-3.036 3.182-3.712 0 0 1.326 2.343 1.37 4.508 0 0 4.02 5.334 4.332 7.984 0 0 2.598-.052 3.169-.363 0 0 .992-.424.248.492-1.238 1.526-4.897 4.878-8.404 6.21-4.255 1.615-8.105 2.285-10.911 0-2.66-2.168-2.39-9.56-2.39-9.56s-1.507-3.065-1.56-5.351c1.682-.428 5.145 1.402 5.145 1.402z"/><path fill="#f89c44" d="M16.892 111.482s2.776-2.124 5.945-1.761c0 0 1.08-2.885 3.055-3.561 0 0 1.326 2.343 1.37 4.508 0 0 4.02 5.334 4.333 7.984 0 0 2.597-.052 3.169-.363 0 0 .99-.424.248.492-1.24 1.526-4.898 4.878-8.405 6.21-4.255 1.615-8.105 2.285-10.911 0-2.66-2.168-2.39-9.56-2.39-9.56s-1.506-3.065-1.558-5.351c1.68-.428 5.144 1.402 5.144 1.402z"/><path fill="#f4dbc5" d="M12.895 122.635l-.074.958-.802-.16v.856l-.909-.054v.856l-.963-.107-.349.918c-.895-2.108-2.538-2.897-2.538-2.897.95-.74 3.76-1.453 5.635-.37z"/><path fill="#f4953f" d="M20.158 128.766c.494.447 3.204 1.091 4.895-1.099 1.101-1.426-1.465-.688-2.052-.77-.603-.086-1.078-1.139-2.192-.875-1.204.286-1.72 1.776-.65 2.744z"/><path fill="#f4dbc5" d="M24.117 109.807s1.856.118 3.146.861c-.045-2.165-1.37-4.508-1.37-4.508s-1.86 1.509-1.776 3.647z"/><ellipse cx="23.659" cy="119.282" rx=".504" ry=".837" fill="#304454"/><ellipse cx="28.388" cy="117.587" rx=".378" ry=".837" fill="#304454" transform="rotate(-10.532 28.388 117.587)"/><path fill="#d78334" d="M24.718 107.179s.07-.186.205-.473a4.803 4.803 0 0 0-.493.453c.096.007.191.009.288.02zM34.947 118.225c-1.712 1.546-4.117 3.334-6.458 4.223-4.255 1.615-8.105 2.285-10.91 0-2.66-2.168-2.39-9.561-2.39-9.561s-.555-1.13-1.002-2.528c-.877-.272-1.79-.444-2.438-.279.051 2.286 1.557 5.351 1.557 5.351s-.27 7.392 2.39 9.56c2.807 2.285 6.656 1.615 10.912 0 3.506-1.332 7.167-4.683 8.405-6.21.528-.651.18-.625-.066-.556z" opacity=".5"/><path fill="none" stroke="#414042" d="M18.867 125.624s-.902.492-1.312 1.107M18.089 125.378s-1.025.287-1.393.615" stroke-width=".181" stroke-linecap="round" stroke-linejoin="round"/><path fill="#f4dbc5" d="M11.793 110.183c-.013.03-.024.062-.036.092.128 2.262 1.55 5.156 1.55 5.156.718-1.558 2.42-2.773 2.42-2.773-1.061-1.37-3.934-2.475-3.934-2.475z"/><ellipse cx="34.765" cy="118.445" rx="1.013" ry=".857" fill="#304454"/><path fill="#d78334" d="M55.09 128.766c.493.447 3.203 1.091 4.894-1.099 1.101-1.426-1.465-.688-2.052-.77-.603-.086-1.078-1.139-2.192-.875-1.204.286-1.72 1.776-.65 2.744zM57.668 130.469s.754-.978 1.034-.755c.171.137-.11 1.929-.39 2.488s-1.343-.112-1.343-.112l.7-1.621z"/><path fill="#f89c44" d="M51.811 130.055s-3.646-1.203-4.218-4.752c-.707-4.383-5.966-3.367-7.337-2.298 0 0 2.885 1.384 3.091 5.387.17 3.33 5.194 5.091 7.991 2.345l.473-.682z"/><path fill="#f4953f" d="M53.25 126.107s-3.881 4.056-2.942 6.471c.843 2.165 6.364 2.459 7.861 2.192.745-.133 1.819-4.078 1.23-4.278-.529-.18-1.176.802-1.176.802s-1.054-5.393-3.193-5.553c-2.139-.161-1.78.366-1.78.366z"/><path fill="url(#u)" d="M58.223 131.294s-1.036-5.294-3.137-5.545l.227 2.185s1.362 3.005 2.91 3.36z"/><path fill="#d14e3f" d="M55.351 125.809c-.627-.052-1.421-.124-1.982.379-.922.826-.663 2.382.74 2.721.393.095 1.959-.208 3.046-.978-.455-.991-1.055-1.874-1.804-2.122z"/><path fill="#fedcbd" d="M55.34 125.808a15.97 15.97 0 0 0-.25-.019l.223 2.145s.135.298.367.716a5.62 5.62 0 0 0 1.474-.719c-.457-.994-1.06-1.881-1.815-2.123z"/><path fill="url(#v)" d="M49.887 111.482s2.65-1.974 5.82-1.61c0 0 1.206-3.036 3.181-3.712 0 0 1.326 2.343 1.37 4.508 0 0 4.021 5.334 4.332 7.984 0 0 2.598-.052 3.17-.363 0 0 .991-.424.247.492-1.238 1.526-4.897 4.878-8.404 6.21-4.255 1.615-8.105 2.285-10.91 0-2.66-2.168-2.39-9.56-2.39-9.56s-1.508-3.065-1.56-5.351c1.681-.428 5.144 1.402 5.144 1.402z"/><path fill="#f89c44" d="M49.887 111.482s2.776-2.124 5.945-1.761c0 0 1.081-2.885 3.055-3.561 0 0 1.326 2.343 1.371 4.508 0 0 4.02 5.334 4.332 7.984 0 0 2.597-.052 3.17-.363 0 0 .99-.424.247.492-1.239 1.526-4.898 4.878-8.405 6.21-4.255 1.615-8.105 2.285-10.91 0-2.66-2.168-2.39-9.56-2.39-9.56s-1.507-3.065-1.559-5.351c1.681-.428 5.144 1.402 5.144 1.402z"/><path fill="#f4dbc5" d="M45.891 122.635l-.074.958-.802-.16v.856l-.909-.054v.856l-.963-.107-.349.918c-.895-2.108-2.538-2.897-2.538-2.897.95-.74 3.76-1.453 5.635-.37z"/><path fill="#f4953f" d="M53.154 128.766c.494.447 3.204 1.091 4.895-1.099 1.1-1.426-1.465-.688-2.052-.77-.603-.086-1.078-1.139-2.192-.875-1.204.286-1.721 1.776-.651 2.744z"/><path fill="#f4dbc5" d="M57.113 109.807s1.856.118 3.146.861c-.045-2.165-1.371-4.508-1.371-4.508s-1.86 1.509-1.775 3.647z"/><ellipse cx="56.654" cy="119.282" rx=".504" ry=".837" fill="#304454"/><ellipse cx="61.384" cy="117.587" rx=".378" ry=".837" fill="#304454" transform="rotate(-10.532 61.384 117.587)"/><path fill="#d78334" d="M57.714 107.179s.07-.186.205-.473a4.803 4.803 0 0 0-.493.453c.096.007.19.009.288.02zM67.943 118.225c-1.712 1.546-4.117 3.334-6.458 4.223-4.255 1.615-8.105 2.285-10.91 0-2.66-2.168-2.39-9.561-2.39-9.561s-.555-1.13-1.003-2.528c-.877-.272-1.79-.444-2.438-.279.052 2.286 1.558 5.351 1.558 5.351s-.27 7.392 2.39 9.56c2.806 2.285 6.656 1.615 10.911 0 3.507-1.332 7.167-4.683 8.405-6.21.528-.651.181-.625-.065-.556z" opacity=".5"/><path fill="none" stroke="#414042" d="M51.863 125.624s-.902.492-1.312 1.107M51.084 125.378s-1.025.287-1.393.615" stroke-width=".181" stroke-linecap="round" stroke-linejoin="round"/><path fill="#f4dbc5" d="M44.788 110.183l-.035.092c.127 2.262 1.55 5.156 1.55 5.156.718-1.558 2.42-2.773 2.42-2.773-1.062-1.37-3.934-2.475-3.934-2.475z"/><ellipse cx="67.76" cy="118.445" rx="1.013" ry=".857" fill="#304454"/><path fill="#d78334" d="M88.085 128.766c.494.447 3.204 1.091 4.895-1.099 1.101-1.426-1.465-.688-2.052-.77-.603-.086-1.078-1.139-2.192-.875-1.204.286-1.72 1.776-.65 2.744zM90.664 130.469s.754-.978 1.034-.755c.171.137-.111 1.929-.391 2.488s-1.342-.112-1.342-.112l.699-1.621z"/><path fill="#f89c44" d="M84.807 130.055s-3.646-1.203-4.218-4.752c-.707-4.383-5.966-3.367-7.337-2.298 0 0 2.885 1.384 3.091 5.387.17 3.33 5.194 5.091 7.991 2.345l.473-.682z"/><path fill="#f4953f" d="M86.246 126.107s-3.881 4.056-2.942 6.471c.843 2.165 6.364 2.459 7.86 2.192.746-.133 1.82-4.078 1.23-4.278-.528-.18-1.175.802-1.175.802s-1.054-5.393-3.193-5.553c-2.14-.161-1.78.366-1.78.366z"/><path fill="url(#w)" d="M91.218 131.294s-1.036-5.294-3.137-5.545l.227 2.185s1.362 3.005 2.91 3.36z"/><path fill="#d14e3f" d="M88.347 125.809c-.627-.052-1.421-.124-1.982.379-.922.826-.663 2.382.74 2.721.393.095 1.959-.208 3.046-.978-.455-.991-1.055-1.874-1.804-2.122z"/><path fill="#fedcbd" d="M88.335 125.808a15.97 15.97 0 0 0-.249-.019l.223 2.145s.135.298.367.716a5.62 5.62 0 0 0 1.474-.719c-.457-.994-1.06-1.881-1.815-2.123z"/><path fill="url(#x)" d="M82.883 111.482s2.65-1.974 5.82-1.61c0 0 1.206-3.036 3.181-3.712 0 0 1.326 2.343 1.37 4.508 0 0 4.021 5.334 4.332 7.984 0 0 2.598-.052 3.169-.363 0 0 .992-.424.248.492-1.238 1.526-4.897 4.878-8.404 6.21-4.255 1.615-8.105 2.285-10.91 0-2.66-2.168-2.39-9.56-2.39-9.56s-1.508-3.065-1.56-5.351c1.681-.428 5.144 1.402 5.144 1.402z"/><path fill="#f89c44" d="M82.883 111.482s2.776-2.124 5.945-1.761c0 0 1.081-2.885 3.055-3.561 0 0 1.326 2.343 1.371 4.508 0 0 4.02 5.334 4.332 7.984 0 0 2.597-.052 3.169-.363 0 0 .991-.424.248.492-1.239 1.526-4.898 4.878-8.405 6.21-4.255 1.615-8.105 2.285-10.91 0-2.66-2.168-2.39-9.56-2.39-9.56s-1.507-3.065-1.559-5.351c1.681-.428 5.144 1.402 5.144 1.402z"/><path fill="#f4dbc5" d="M78.887 122.635l-.074.958-.802-.16v.856l-.909-.054v.856l-.963-.107-.349.918c-.895-2.108-2.538-2.897-2.538-2.897.949-.74 3.759-1.453 5.635-.37z"/><path fill="#f4953f" d="M86.15 128.766c.494.447 3.204 1.091 4.895-1.099 1.1-1.426-1.465-.688-2.052-.77-.603-.086-1.078-1.139-2.192-.875-1.204.286-1.721 1.776-.651 2.744z"/><path fill="#f4dbc5" d="M90.109 109.807s1.856.118 3.146.861c-.045-2.165-1.371-4.508-1.371-4.508s-1.86 1.509-1.775 3.647z"/><ellipse cx="89.65" cy="119.282" rx=".504" ry=".837" fill="#304454"/><ellipse cx="94.38" cy="117.587" rx=".378" ry=".837" fill="#304454" transform="rotate(-10.532 94.38 117.587)"/><path fill="#d78334" d="M90.71 107.179s.07-.186.205-.473a4.803 4.803 0 0 0-.493.453c.096.007.19.009.288.02zM100.939 118.225c-1.712 1.546-4.117 3.334-6.458 4.223-4.255 1.615-8.105 2.285-10.91 0-2.66-2.168-2.39-9.561-2.39-9.561s-.555-1.13-1.003-2.528c-.877-.272-1.79-.444-2.438-.279.052 2.286 1.558 5.351 1.558 5.351s-.27 7.392 2.39 9.56c2.806 2.285 6.656 1.615 10.911 0 3.507-1.332 7.167-4.683 8.405-6.21.528-.651.181-.625-.065-.556z" opacity=".5"/><path fill="none" stroke="#414042" d="M84.859 125.624s-.902.492-1.312 1.107M84.08 125.378s-1.025.287-1.393.615" stroke-width=".181" stroke-linecap="round" stroke-linejoin="round"/><path fill="#f4dbc5" d="M77.784 110.183c-.013.03-.024.062-.036.092.128 2.262 1.55 5.156 1.55 5.156.718-1.558 2.42-2.773 2.42-2.773-1.06-1.37-3.934-2.475-3.934-2.475z"/><ellipse cx="100.756" cy="118.445" rx="1.013" ry=".857" fill="#304454"/><path fill="#d78334" d="M22.094 161.762c.494.447 3.204 1.091 4.895-1.099 1.1-1.426-1.465-.688-2.052-.77-.603-.086-1.078-1.139-2.192-.875-1.204.286-1.721 1.776-.651 2.744zM24.672 163.464s.754-.978 1.034-.755c.171.137-.11 1.929-.39 2.488-.28.559-1.343-.112-1.343-.112l.7-1.621z"/><path fill="#f89c44" d="M18.816 163.051s-3.646-1.203-4.218-4.752c-.708-4.383-5.966-3.367-7.338-2.298 0 0 2.886 1.384 3.091 5.387.17 3.33 5.194 5.091 7.992 2.345l.473-.682z"/><path fill="#f4953f" d="M20.254 159.103s-3.88 4.056-2.942 6.471c.843 2.165 6.364 2.459 7.861 2.192.745-.133 1.82-4.078 1.23-4.278-.529-.18-1.176.802-1.176.802s-1.054-5.393-3.193-5.553c-2.139-.161-1.78.366-1.78.366z"/><path fill="url(#y)" d="M25.227 164.29s-1.036-5.294-3.137-5.545l.227 2.185s1.362 3.005 2.91 3.36z"/><path fill="#d14e3f" d="M22.355 158.805c-.627-.052-1.42-.124-1.982.379-.922.826-.663 2.382.74 2.721.393.095 1.96-.208 3.046-.978-.455-.991-1.055-1.874-1.804-2.122z"/><path fill="#fedcbd" d="M22.344 158.804a15.97 15.97 0 0 0-.25-.019l.224 2.145s.135.298.367.716a5.62 5.62 0 0 0 1.474-.719c-.457-.994-1.061-1.881-1.815-2.123z"/><path fill="url(#z)" d="M16.892 144.478s2.65-1.974 5.819-1.61c0 0 1.207-3.036 3.182-3.712 0 0 1.326 2.343 1.37 4.508 0 0 4.02 5.334 4.332 7.984 0 0 2.598-.052 3.169-.363 0 0 .992-.424.248.492-1.238 1.526-4.897 4.878-8.404 6.21-4.255 1.615-8.105 2.285-10.911 0-2.66-2.168-2.39-9.56-2.39-9.56s-1.507-3.065-1.56-5.351c1.682-.428 5.145 1.402 5.145 1.402z"/><path fill="#f89c44" d="M16.892 144.478s2.776-2.124 5.945-1.761c0 0 1.08-2.885 3.055-3.561 0 0 1.326 2.343 1.37 4.508 0 0 4.02 5.334 4.333 7.984 0 0 2.597-.052 3.169-.363 0 0 .99-.424.248.492-1.24 1.526-4.898 4.878-8.405 6.21-4.255 1.615-8.105 2.285-10.911 0-2.66-2.168-2.39-9.56-2.39-9.56s-1.506-3.065-1.558-5.351c1.68-.428 5.144 1.402 5.144 1.402z"/><path fill="#f4dbc5" d="M12.895 155.631l-.074.958-.802-.16v.856l-.909-.054v.856l-.963-.107-.349.918c-.895-2.108-2.538-2.897-2.538-2.897.95-.74 3.76-1.453 5.635-.37z"/><path fill="#f4953f" d="M20.158 161.762c.494.447 3.204 1.091 4.895-1.099 1.101-1.426-1.465-.688-2.052-.77-.603-.086-1.078-1.139-2.192-.875-1.204.286-1.72 1.776-.65 2.744z"/><path fill="#f4dbc5" d="M24.117 142.803s1.856.118 3.146.861c-.045-2.165-1.37-4.508-1.37-4.508s-1.86 1.509-1.776 3.647z"/><ellipse cx="23.659" cy="152.277" rx=".504" ry=".837" fill="#304454"/><ellipse cx="28.388" cy="150.583" rx=".378" ry=".837" fill="#304454" transform="rotate(-10.532 28.388 150.583)"/><path fill="#d78334" d="M24.718 140.175s.07-.186.205-.473a4.803 4.803 0 0 0-.493.453c.096.007.191.009.288.02zM34.947 151.221c-1.712 1.546-4.117 3.334-6.458 4.223-4.255 1.615-8.105 2.285-10.91 0-2.66-2.168-2.39-9.561-2.39-9.561s-.555-1.13-1.002-2.528c-.877-.272-1.79-.444-2.438-.279.051 2.286 1.557 5.351 1.557 5.351s-.27 7.392 2.39 9.56c2.807 2.285 6.656 1.615 10.912 0 3.506-1.332 7.167-4.683 8.405-6.21.528-.651.18-.625-.066-.556z" opacity=".5"/><path fill="none" stroke="#414042" d="M18.867 158.62s-.902.492-1.312 1.107M18.089 158.374s-1.025.287-1.393.615" stroke-width=".181" stroke-linecap="round" stroke-linejoin="round"/><path fill="#f4dbc5" d="M11.793 143.179c-.013.03-.024.062-.036.092.128 2.262 1.55 5.156 1.55 5.156.718-1.558 2.42-2.773 2.42-2.773-1.061-1.37-3.934-2.475-3.934-2.475z"/><ellipse cx="34.765" cy="151.44" rx="1.013" ry=".857" fill="#304454"/><path fill="#d78334" d="M55.09 161.762c.493.447 3.203 1.091 4.894-1.099 1.101-1.426-1.465-.688-2.052-.77-.603-.086-1.078-1.139-2.192-.875-1.204.286-1.72 1.776-.65 2.744zM57.668 163.464s.754-.978 1.034-.755c.171.137-.11 1.929-.39 2.488s-1.343-.112-1.343-.112l.7-1.621z"/><path fill="#f89c44" d="M51.811 163.051s-3.646-1.203-4.218-4.752c-.707-4.383-5.966-3.367-7.337-2.298 0 0 2.885 1.384 3.091 5.387.17 3.33 5.194 5.091 7.991 2.345l.473-.682z"/><path fill="#f4953f" d="M53.25 159.103s-3.881 4.056-2.942 6.471c.843 2.165 6.364 2.459 7.861 2.192.745-.133 1.819-4.078 1.23-4.278-.529-.18-1.176.802-1.176.802s-1.054-5.393-3.193-5.553c-2.139-.161-1.78.366-1.78.366z"/><path fill="url(#A)" d="M58.223 164.29s-1.036-5.294-3.137-5.545l.227 2.185s1.362 3.005 2.91 3.36z"/><path fill="#d14e3f" d="M55.351 158.805c-.627-.052-1.421-.124-1.982.379-.922.826-.663 2.382.74 2.721.393.095 1.959-.208 3.046-.978-.455-.991-1.055-1.874-1.804-2.122z"/><path fill="#fedcbd" d="M55.34 158.804a15.97 15.97 0 0 0-.25-.019l.223 2.145s.135.298.367.716a5.62 5.62 0 0 0 1.474-.719c-.457-.994-1.06-1.881-1.815-2.123z"/><path fill="url(#B)" d="M49.887 144.478s2.65-1.974 5.82-1.61c0 0 1.206-3.036 3.181-3.712 0 0 1.326 2.343 1.37 4.508 0 0 4.021 5.334 4.332 7.984 0 0 2.598-.052 3.17-.363 0 0 .991-.424.247.492-1.238 1.526-4.897 4.878-8.404 6.21-4.255 1.615-8.105 2.285-10.91 0-2.66-2.168-2.39-9.56-2.39-9.56s-1.508-3.065-1.56-5.351c1.681-.428 5.144 1.402 5.144 1.402z"/><path fill="#f89c44" d="M49.887 144.478s2.776-2.124 5.945-1.761c0 0 1.081-2.885 3.055-3.561 0 0 1.326 2.343 1.371 4.508 0 0 4.02 5.334 4.332 7.984 0 0 2.597-.052 3.17-.363 0 0 .99-.424.247.492-1.239 1.526-4.898 4.878-8.405 6.21-4.255 1.615-8.105 2.285-10.91 0-2.66-2.168-2.39-9.56-2.39-9.56s-1.507-3.065-1.559-5.351c1.681-.428 5.144 1.402 5.144 1.402z"/><path fill="#f4dbc5" d="M45.891 155.631l-.074.958-.802-.16v.856l-.909-.054v.856l-.963-.107-.349.918c-.895-2.108-2.538-2.897-2.538-2.897.95-.74 3.76-1.453 5.635-.37z"/><path fill="#f4953f" d="M53.154 161.762c.494.447 3.204 1.091 4.895-1.099 1.1-1.426-1.465-.688-2.052-.77-.603-.086-1.078-1.139-2.192-.875-1.204.286-1.721 1.776-.651 2.744z"/><path fill="#f4dbc5" d="M57.113 142.803s1.856.118 3.146.861c-.045-2.165-1.371-4.508-1.371-4.508s-1.86 1.509-1.775 3.647z"/><ellipse cx="56.654" cy="152.277" rx=".504" ry=".837" fill="#304454"/><ellipse cx="61.384" cy="150.583" rx=".378" ry=".837" fill="#304454" transform="rotate(-10.532 61.384 150.583)"/><path fill="#d78334" d="M57.714 140.175s.07-.186.205-.473a4.803 4.803 0 0 0-.493.453c.096.007.19.009.288.02zM67.943 151.221c-1.712 1.546-4.117 3.334-6.458 4.223-4.255 1.615-8.105 2.285-10.91 0-2.66-2.168-2.39-9.561-2.39-9.561s-.555-1.13-1.003-2.528c-.877-.272-1.79-.444-2.438-.279.052 2.286 1.558 5.351 1.558 5.351s-.27 7.392 2.39 9.56c2.806 2.285 6.656 1.615 10.911 0 3.507-1.332 7.167-4.683 8.405-6.21.528-.651.181-.625-.065-.556z" opacity=".5"/><path fill="none" stroke="#414042" d="M51.863 158.62s-.902.492-1.312 1.107M51.084 158.374s-1.025.287-1.393.615" stroke-width=".181" stroke-linecap="round" stroke-linejoin="round"/><path fill="#f4dbc5" d="M44.788 143.179l-.035.092c.127 2.262 1.55 5.156 1.55 5.156.718-1.558 2.42-2.773 2.42-2.773-1.062-1.37-3.934-2.475-3.934-2.475z"/><ellipse cx="67.76" cy="151.44" rx="1.013" ry=".857" fill="#304454"/><path fill="#d78334" d="M88.085 161.762c.494.447 3.204 1.091 4.895-1.099 1.101-1.426-1.465-.688-2.052-.77-.603-.086-1.078-1.139-2.192-.875-1.204.286-1.72 1.776-.65 2.744zM90.664 163.464s.754-.978 1.034-.755c.171.137-.111 1.929-.391 2.488s-1.342-.112-1.342-.112l.699-1.621z"/><path fill="#f89c44" d="M84.807 163.051s-3.646-1.203-4.218-4.752c-.707-4.383-5.966-3.367-7.337-2.298 0 0 2.885 1.384 3.091 5.387.17 3.33 5.194 5.091 7.991 2.345l.473-.682z"/><path fill="#f4953f" d="M86.246 159.103s-3.881 4.056-2.942 6.471c.843 2.165 6.364 2.459 7.86 2.192.746-.133 1.82-4.078 1.23-4.278-.528-.18-1.175.802-1.175.802s-1.054-5.393-3.193-5.553c-2.14-.161-1.78.366-1.78.366z"/><path fill="url(#C)" d="M91.218 164.29s-1.036-5.294-3.137-5.545l.227 2.185s1.362 3.005 2.91 3.36z"/><path fill="#d14e3f" d="M88.347 158.805c-.627-.052-1.421-.124-1.982.379-.922.826-.663 2.382.74 2.721.393.095 1.959-.208 3.046-.978-.455-.991-1.055-1.874-1.804-2.122z"/><path fill="#fedcbd" d="M88.335 158.804a15.97 15.97 0 0 0-.249-.019l.223 2.145s.135.298.367.716a5.62 5.62 0 0 0 1.474-.719c-.457-.994-1.06-1.881-1.815-2.123z"/><path fill="url(#D)" d="M82.883 144.478s2.65-1.974 5.82-1.61c0 0 1.206-3.036 3.181-3.712 0 0 1.326 2.343 1.37 4.508 0 0 4.021 5.334 4.332 7.984 0 0 2.598-.052 3.169-.363 0 0 .992-.424.248.492-1.238 1.526-4.897 4.878-8.404 6.21-4.255 1.615-8.105 2.285-10.91 0-2.66-2.168-2.39-9.56-2.39-9.56s-1.508-3.065-1.56-5.351c1.681-.428 5.144 1.402 5.144 1.402z"/><path fill="#f89c44" d="M82.883 144.478s2.776-2.124 5.945-1.761c0 0 1.081-2.885 3.055-3.561 0 0 1.326 2.343 1.371 4.508 0 0 4.02 5.334 4.332 7.984 0 0 2.597-.052 3.169-.363 0 0 .991-.424.248.492-1.239 1.526-4.898 4.878-8.405 6.21-4.255 1.615-8.105 2.285-10.91 0-2.66-2.168-2.39-9.56-2.39-9.56s-1.507-3.065-1.559-5.351c1.681-.428 5.144 1.402 5.144 1.402z"/><path fill="#f4dbc5" d="M78.887 155.631l-.074.958-.802-.16v.856l-.909-.054v.856l-.963-.107-.349.918c-.895-2.108-2.538-2.897-2.538-2.897.949-.74 3.759-1.453 5.635-.37z"/><path fill="#f4953f" d="M86.15 161.762c.494.447 3.204 1.091 4.895-1.099 1.1-1.426-1.465-.688-2.052-.77-.603-.086-1.078-1.139-2.192-.875-1.204.286-1.721 1.776-.651 2.744z"/><path fill="#f4dbc5" d="M90.109 142.803s1.856.118 3.146.861c-.045-2.165-1.371-4.508-1.371-4.508s-1.86 1.509-1.775 3.647z"/><ellipse cx="89.65" cy="152.277" rx=".504" ry=".837" fill="#304454"/><ellipse cx="94.38" cy="150.583" rx=".378" ry=".837" fill="#304454" transform="rotate(-10.532 94.38 150.583)"/><path fill="#d78334" d="M90.71 140.175s.07-.186.205-.473a4.803 4.803 0 0 0-.493.453c.096.007.19.009.288.02zM100.939 151.221c-1.712 1.546-4.117 3.334-6.458 4.223-4.255 1.615-8.105 2.285-10.91 0-2.66-2.168-2.39-9.561-2.39-9.561s-.555-1.13-1.003-2.528c-.877-.272-1.79-.444-2.438-.279.052 2.286 1.558 5.351 1.558 5.351s-.27 7.392 2.39 9.56c2.806 2.285 6.656 1.615 10.911 0 3.507-1.332 7.167-4.683 8.405-6.21.528-.651.181-.625-.065-.556z" opacity=".5"/><path fill="none" stroke="#414042" d="M84.859 158.62s-.902.492-1.312 1.107M84.08 158.374s-1.025.287-1.393.615" stroke-width=".181" stroke-linecap="round" stroke-linejoin="round"/><path fill="#f4dbc5" d="M77.784 143.179c-.013.03-.024.062-.036.092.128 2.262 1.55 5.156 1.55 5.156.718-1.558 2.42-2.773 2.42-2.773-1.06-1.37-3.934-2.475-3.934-2.475z"/><ellipse cx="100.756" cy="151.44" rx="1.013" ry=".857" fill="#304454"/></svg>
