<svg xmlns="http://www.w3.org/2000/svg" width="110" height="110" viewBox="0 0 110 110"><ellipse cx="17.277" cy="17.277" rx="11.518" ry="11.518" fill="#208170" stroke="#208170" stroke-width="2" stroke-dasharray="0"/><ellipse cx="43.77" cy="17.277" rx="11.518" ry="11.518" fill="#208170" stroke="#208170" stroke-width="2" stroke-dasharray="0"/><ellipse cx="70.262" cy="17.277" rx="11.518" ry="11.518" fill="#208170" stroke="#208170" stroke-width="2" stroke-dasharray="0"/><ellipse cx="96.754" cy="17.277" rx="11.518" ry="11.518" fill="#208170" stroke="#208170" stroke-width="2" stroke-dasharray="0"/><ellipse cx="17.277" cy="43.77" rx="11.518" ry="11.518" fill="#208170" stroke="#208170" stroke-width="2" stroke-dasharray="0"/><ellipse cx="43.77" cy="43.77" rx="11.518" ry="11.518" fill="#208170" stroke="#208170" stroke-width="2" stroke-dasharray="0"/><ellipse cx="70.262" cy="43.77" rx="11.518" ry="11.518" fill="#208170" stroke="#208170" stroke-width="2" stroke-dasharray="0"/><ellipse cx="96.754" cy="43.77" rx="11.518" ry="11.518" fill="#208170" stroke="#208170" stroke-width="2" stroke-dasharray="0"/><ellipse cx="17.277" cy="70.262" rx="11.518" ry="11.518" fill="#208170" stroke="#208170" stroke-width="2" stroke-dasharray="0"/><ellipse cx="43.77" cy="70.262" rx="11.518" ry="11.518" fill="#208170" stroke="#208170" stroke-width="2" stroke-dasharray="0"/><ellipse cx="70.262" cy="70.262" rx="11.518" ry="11.518" fill="#208170" stroke="#208170" stroke-width="2" stroke-dasharray="0"/><ellipse cx="96.754" cy="70.262" rx="11.518" ry="11.518" fill="#208170" stroke="#208170" stroke-width="2" stroke-dasharray="0"/><ellipse cx="17.277" cy="96.754" rx="11.518" ry="11.518" fill="#208170" stroke="#208170" stroke-width="2" stroke-dasharray="0"/><ellipse cx="43.77" cy="96.754" rx="11.518" ry="11.518" fill="#208170" stroke="#208170" stroke-width="2" stroke-dasharray="0"/><ellipse cx="70.262" cy="96.754" rx="11.518" ry="11.518" fill="#208170" stroke="#208170" stroke-width="2" stroke-dasharray="0"/><ellipse cx="96.754" cy="96.754" rx="11.518" ry="11.518" fill="#208170" stroke="#208170" stroke-width="2" stroke-dasharray="0"/></svg>
