<svg xmlns="http://www.w3.org/2000/svg" width="130" height="130" viewBox="0 0 130 130"><ellipse cx="39" cy="39" rx="11.304" ry="11.304" fill="#208170" stroke="#208170" stroke-width="2" stroke-dasharray="0"/><ellipse cx="65" cy="39" rx="11.304" ry="11.304" fill="#208170" stroke="#208170" stroke-width="2" stroke-dasharray="0"/><ellipse cx="91" cy="39" rx="11.304" ry="11.304" fill="#208170" stroke="#208170" stroke-width="2" stroke-dasharray="0"/><ellipse cx="117" cy="39" rx="11.304" ry="11.304" fill="#208170" stroke="#208170" stroke-width="2" stroke-dasharray="0"/><ellipse cx="39" cy="65" rx="11.304" ry="11.304" fill="#208170" stroke="#208170" stroke-width="2" stroke-dasharray="0"/><ellipse cx="65" cy="65" rx="11.304" ry="11.304" fill="#208170" stroke="#208170" stroke-width="2" stroke-dasharray="0"/><ellipse cx="91" cy="65" rx="11.304" ry="11.304" fill="#208170" stroke="#208170" stroke-width="2" stroke-dasharray="0"/><ellipse cx="117" cy="65" rx="11.304" ry="11.304" fill="#208170" stroke="#208170" stroke-width="2" stroke-dasharray="0"/><ellipse cx="39" cy="91" rx="11.304" ry="11.304" fill="#208170" stroke="#208170" stroke-width="2" stroke-dasharray="0"/><ellipse cx="65" cy="91" rx="11.304" ry="11.304" fill="#208170" stroke="#208170" stroke-width="2" stroke-dasharray="0"/><ellipse cx="91" cy="91" rx="11.304" ry="11.304" fill="#208170" stroke="#208170" stroke-width="2" stroke-dasharray="0"/><ellipse cx="117" cy="91" rx="11.304" ry="11.304" fill="#208170" stroke="#208170" stroke-width="2" stroke-dasharray="0"/><ellipse cx="39" cy="117" rx="11.304" ry="11.304" fill="#208170" stroke="#208170" stroke-width="2" stroke-dasharray="0"/><ellipse cx="65" cy="117" rx="11.304" ry="11.304" fill="#208170" stroke="#208170" stroke-width="2" stroke-dasharray="0"/><ellipse cx="91" cy="117" rx="11.304" ry="11.304" fill="#208170" stroke="#208170" stroke-width="2" stroke-dasharray="0"/><ellipse cx="117" cy="117" rx="11.304" ry="11.304" fill="#208170" stroke="#208170" stroke-width="2" stroke-dasharray="0"/><path fill="none" stroke="gray" d="M27.696 52H143M27.696 78H143M27.696 104H143" stroke-width="2" stroke-opacity=".5"/></svg>
