<svg xmlns="http://www.w3.org/2000/svg" width="110" height="110" viewBox="0 0 110 110"><path fill="#9e034e" stroke="#9e034e" d="M6.911 27.644V6.911h20.733v20.733zM33.403 27.644V6.911h20.733v20.733zM59.895 27.644V6.911h20.733v20.733zM86.387 27.644V6.911h20.733v20.733zM6.911 54.136V33.403h20.733v20.733zM33.403 54.136V33.403h20.733v20.733zM59.895 54.136V33.403h20.733v20.733zM86.387 54.136V33.403h20.733v20.733zM6.911 80.628V59.895h20.733v20.733zM33.403 80.628V59.895h20.733v20.733zM59.895 80.628V59.895h20.733v20.733zM86.387 80.628V59.895h20.733v20.733zM6.911 107.12V86.387h20.733v20.733zM33.403 107.12V86.387h20.733v20.733zM59.895 107.12V86.387h20.733v20.733zM86.387 107.12V86.387h20.733v20.733z" stroke-width="2" stroke-dasharray="0"/></svg>
