<svg xmlns="http://www.w3.org/2000/svg" width="79.536" height="130" viewBox="0 0 79.53586497890296 130"><path fill="#a75a05" stroke="#a75a05" d="M6.582 26.33V6.581H26.33V26.33zM31.814 26.33V6.581h19.747V26.33zM57.046 26.33V6.581h19.747V26.33zM6.582 51.561V31.814H26.33v19.747zM31.814 51.561V31.814h19.747v19.747zM57.046 51.561V31.814h19.747v19.747zM6.582 76.793V57.046H26.33v19.747zM31.814 76.793V57.046h19.747v19.747zM57.046 76.793V57.046h19.747v19.747zM6.582 102.025V82.278H26.33v19.747zM31.814 102.025V82.278h19.747v19.747zM57.046 102.025V82.278h19.747v19.747zM6.582 127.257v-19.746H26.33v19.746zM31.814 127.257v-19.746h19.747v19.746zM57.046 127.257v-19.746h19.747v19.746z" stroke-width="2" stroke-dasharray="0"/></svg>
