<svg xmlns="http://www.w3.org/2000/svg" width="67.382" height="130" viewBox="0 0 67.38219895287958 130"><defs><radialGradient id="a" fx=".5" fy=".5"><stop offset="0%" stop-color="#fee6d3"/><stop offset="29.16%" stop-color="#fee4d0"/><stop offset="52.23%" stop-color="#fedec6"/><stop offset="73.2%" stop-color="#fdd3b6"/><stop offset="92.83%" stop-color="#fcc4a0"/><stop offset="100%" stop-color="#fbbd97"/></radialGradient><radialGradient id="b" fx=".5" fy=".5"><stop offset="0%" stop-color="#ffe600"/><stop offset="29.16%" stop-color="#ffe400"/><stop offset="52.23%" stop-color="#fd0"/><stop offset="73.2%" stop-color="#ffd100"/><stop offset="92.83%" stop-color="#fec00f"/><stop offset="100%" stop-color="#fdb913"/></radialGradient><radialGradient id="c" fx=".5" fy=".5"><stop offset="0%" stop-color="#fee6d3"/><stop offset="29.16%" stop-color="#fee4d0"/><stop offset="52.23%" stop-color="#fedec6"/><stop offset="73.2%" stop-color="#fdd3b6"/><stop offset="92.83%" stop-color="#fcc4a0"/><stop offset="100%" stop-color="#fbbd97"/></radialGradient><radialGradient id="d" fx=".5" fy=".5"><stop offset="0%" stop-color="#ffe600"/><stop offset="29.16%" stop-color="#ffe400"/><stop offset="52.23%" stop-color="#fd0"/><stop offset="73.2%" stop-color="#ffd100"/><stop offset="92.83%" stop-color="#fec00f"/><stop offset="100%" stop-color="#fdb913"/></radialGradient><radialGradient id="e" fx=".5" fy=".5"><stop offset="0%" stop-color="#fee6d3"/><stop offset="29.16%" stop-color="#fee4d0"/><stop offset="52.23%" stop-color="#fedec6"/><stop offset="73.2%" stop-color="#fdd3b6"/><stop offset="92.83%" stop-color="#fcc4a0"/><stop offset="100%" stop-color="#fbbd97"/></radialGradient><radialGradient id="f" fx=".5" fy=".5"><stop offset="0%" stop-color="#ffe600"/><stop offset="29.16%" stop-color="#ffe400"/><stop offset="52.23%" stop-color="#fd0"/><stop offset="73.2%" stop-color="#ffd100"/><stop offset="92.83%" stop-color="#fec00f"/><stop offset="100%" stop-color="#fdb913"/></radialGradient><radialGradient id="g" fx=".5" fy=".5"><stop offset="0%" stop-color="#fee6d3"/><stop offset="29.16%" stop-color="#fee4d0"/><stop offset="52.23%" stop-color="#fedec6"/><stop offset="73.2%" stop-color="#fdd3b6"/><stop offset="92.83%" stop-color="#fcc4a0"/><stop offset="100%" stop-color="#fbbd97"/></radialGradient><radialGradient id="h" fx=".5" fy=".5"><stop offset="0%" stop-color="#ffe600"/><stop offset="29.16%" stop-color="#ffe400"/><stop offset="52.23%" stop-color="#fd0"/><stop offset="73.2%" stop-color="#ffd100"/><stop offset="92.83%" stop-color="#fec00f"/><stop offset="100%" stop-color="#fdb913"/></radialGradient><radialGradient id="i" fx=".5" fy=".5"><stop offset="0%" stop-color="#fee6d3"/><stop offset="29.16%" stop-color="#fee4d0"/><stop offset="52.23%" stop-color="#fedec6"/><stop offset="73.2%" stop-color="#fdd3b6"/><stop offset="92.83%" stop-color="#fcc4a0"/><stop offset="100%" stop-color="#fbbd97"/></radialGradient><radialGradient id="j" fx=".5" fy=".5"><stop offset="0%" stop-color="#ffe600"/><stop offset="29.16%" stop-color="#ffe400"/><stop offset="52.23%" stop-color="#fd0"/><stop offset="73.2%" stop-color="#ffd100"/><stop offset="92.83%" stop-color="#fec00f"/><stop offset="100%" stop-color="#fdb913"/></radialGradient><radialGradient id="k" fx=".5" fy=".5"><stop offset="0%" stop-color="#fee6d3"/><stop offset="29.16%" stop-color="#fee4d0"/><stop offset="52.23%" stop-color="#fedec6"/><stop offset="73.2%" stop-color="#fdd3b6"/><stop offset="92.83%" stop-color="#fcc4a0"/><stop offset="100%" stop-color="#fbbd97"/></radialGradient><radialGradient id="l" fx=".5" fy=".5"><stop offset="0%" stop-color="#ffe600"/><stop offset="29.16%" stop-color="#ffe400"/><stop offset="52.23%" stop-color="#fd0"/><stop offset="73.2%" stop-color="#ffd100"/><stop offset="92.83%" stop-color="#fec00f"/><stop offset="100%" stop-color="#fdb913"/></radialGradient><radialGradient id="m" fx=".5" fy=".5"><stop offset="0%" stop-color="#fee6d3"/><stop offset="29.16%" stop-color="#fee4d0"/><stop offset="52.23%" stop-color="#fedec6"/><stop offset="73.2%" stop-color="#fdd3b6"/><stop offset="92.83%" stop-color="#fcc4a0"/><stop offset="100%" stop-color="#fbbd97"/></radialGradient><radialGradient id="n" fx=".5" fy=".5"><stop offset="0%" stop-color="#ffe600"/><stop offset="29.16%" stop-color="#ffe400"/><stop offset="52.23%" stop-color="#fd0"/><stop offset="73.2%" stop-color="#ffd100"/><stop offset="92.83%" stop-color="#fec00f"/><stop offset="100%" stop-color="#fdb913"/></radialGradient><radialGradient id="o" fx=".5" fy=".5"><stop offset="0%" stop-color="#fee6d3"/><stop offset="29.16%" stop-color="#fee4d0"/><stop offset="52.23%" stop-color="#fedec6"/><stop offset="73.2%" stop-color="#fdd3b6"/><stop offset="92.83%" stop-color="#fcc4a0"/><stop offset="100%" stop-color="#fbbd97"/></radialGradient><radialGradient id="p" fx=".5" fy=".5"><stop offset="0%" stop-color="#ffe600"/><stop offset="29.16%" stop-color="#ffe400"/><stop offset="52.23%" stop-color="#fd0"/><stop offset="73.2%" stop-color="#ffd100"/><stop offset="92.83%" stop-color="#fec00f"/><stop offset="100%" stop-color="#fdb913"/></radialGradient></defs><path fill="#d78334" d="M20.964 28.256c.47.424 3.04 1.035 4.645-1.043 1.045-1.353-1.39-.653-1.947-.73-.572-.082-1.024-1.08-2.08-.83-1.143.27-1.633 1.685-.618 2.603zM23.411 29.872s.716-.928.981-.716c.162.13-.105 1.83-.37 2.36-.266.53-1.274-.106-1.274-.106l.663-1.538z"/><path fill="#f89c44" d="M17.854 29.48s-3.46-1.142-4.002-4.51c-.671-4.159-5.661-3.195-6.963-2.18 0 0 2.738 1.312 2.933 5.111.162 3.16 4.929 4.83 7.583 2.225l.449-.647z"/><path fill="#f4953f" d="M19.219 25.733s-3.682 3.849-2.791 6.14c.8 2.055 6.039 2.334 7.459 2.08.706-.126 1.725-3.87 1.167-4.06-.502-.17-1.117.762-1.117.762s-1-5.117-3.03-5.27c-2.028-.152-1.688.348-1.688.348z"/><path fill="url(#a)" d="M23.937 30.655s-.983-5.024-2.976-5.261l.215 2.073s1.292 2.85 2.761 3.188z"/><path fill="#d14e3f" d="M21.212 25.45c-.595-.049-1.349-.118-1.88.36-.876.783-.629 2.26.701 2.582.373.09 1.86-.198 2.891-.928-.432-.94-1.002-1.779-1.712-2.014z"/><path fill="#fedcbd" d="M21.201 25.45c-.076-.008-.156-.013-.236-.019l.211 2.035s.128.283.35.68a5.37 5.37 0 0 0 1.397-.682c-.434-.944-1.007-1.785-1.722-2.015z"/><path fill="url(#b)" d="M16.028 11.856s2.514-1.873 5.521-1.528c0 0 1.146-2.88 3.02-3.522 0 0 1.258 2.223 1.3 4.278 0 0 3.815 5.061 4.11 7.576 0 0 2.465-.05 3.007-.345 0 0 .941-.402.236.467-1.175 1.448-4.647 4.63-7.975 5.892-4.037 1.533-7.691 2.17-10.353 0-2.524-2.057-2.268-9.07-2.268-9.07s-1.429-2.91-1.479-5.079c1.595-.405 4.881 1.331 4.881 1.331z"/><path fill="#f89c44" d="M16.028 11.856s2.634-2.016 5.641-1.67c0 0 1.026-2.739 2.899-3.38 0 0 1.258 2.223 1.3 4.278 0 0 3.816 5.061 4.111 7.576 0 0 2.465-.05 3.007-.345 0 0 .941-.402.236.467-1.176 1.448-4.648 4.63-7.975 5.892-4.038 1.533-7.691 2.17-10.353 0-2.525-2.057-2.268-9.07-2.268-9.07s-1.43-2.91-1.479-5.079c1.595-.405 4.881 1.331 4.881 1.331z"/><path fill="#f4dbc5" d="M12.236 22.439l-.07.909-.76-.152v.812l-.864-.051v.813l-.913-.102-.332.87c-.849-2-2.408-2.748-2.408-2.748.901-.702 3.567-1.378 5.347-.351z"/><path fill="#f4953f" d="M19.128 28.256c.468.424 3.04 1.035 4.645-1.043 1.044-1.353-1.39-.653-1.947-.73-.573-.082-1.024-1.08-2.08-.83-1.143.27-1.633 1.685-.618 2.603z"/><path fill="#f4dbc5" d="M22.884 10.267s1.761.112 2.985.817c-.043-2.055-1.3-4.278-1.3-4.278s-1.766 1.433-1.685 3.46z"/><ellipse cx="22.449" cy="19.257" rx=".478" ry=".795" fill="#304454"/><ellipse cx="26.937" cy="17.649" rx=".358" ry=".795" fill="#304454" transform="rotate(-10.532 26.937 17.649)"/><path fill="#d78334" d="M23.454 7.773s.066-.176.195-.45a4.649 4.649 0 0 0-.468.43c.091.008.181.009.273.02zM33.16 18.254c-1.623 1.467-3.905 3.163-6.127 4.007-4.037 1.532-7.69 2.168-10.353 0-2.524-2.057-2.268-9.072-2.268-9.072s-.525-1.072-.95-2.399c-.833-.258-1.7-.42-2.314-.265.049 2.17 1.479 5.077 1.479 5.077s-.257 7.015 2.267 9.072c2.663 2.168 6.316 1.533 10.353 0 3.328-1.264 6.8-4.444 7.976-5.893.5-.617.17-.593-.062-.527z" opacity=".5"/><path fill="none" stroke="#414042" d="M17.903 25.275s-.856.467-1.245 1.05M17.164 25.042s-.972.272-1.322.583" stroke-width=".172" stroke-linecap="round" stroke-linejoin="round"/><path fill="#f4dbc5" d="M11.19 10.623c-.013.03-.023.06-.034.087.12 2.147 1.47 4.893 1.47 4.893.682-1.479 2.297-2.63 2.297-2.63-1.006-1.302-3.733-2.35-3.733-2.35z"/><ellipse cx="32.987" cy="18.463" rx=".961" ry=".814" fill="#304454"/><path fill="#d78334" d="M52.273 28.256c.469.424 3.04 1.035 4.645-1.043 1.045-1.353-1.39-.653-1.947-.73-.572-.082-1.024-1.08-2.08-.83-1.143.27-1.633 1.685-.618 2.603zM54.72 29.872s.716-.928.981-.716c.162.13-.105 1.83-.371 2.36-.265.53-1.273-.106-1.273-.106l.663-1.538z"/><path fill="#f89c44" d="M49.163 29.48s-3.46-1.142-4.002-4.51c-.672-4.159-5.662-3.195-6.964-2.18 0 0 2.738 1.312 2.933 5.111.162 3.16 4.93 4.83 7.584 2.225l.449-.647z"/><path fill="#f4953f" d="M50.528 25.733s-3.682 3.849-2.791 6.14c.8 2.055 6.039 2.334 7.459 2.08.706-.126 1.725-3.87 1.167-4.06-.502-.17-1.117.762-1.117.762s-1-5.117-3.03-5.27c-2.028-.152-1.688.348-1.688.348z"/><path fill="url(#c)" d="M55.246 30.655s-.983-5.024-2.976-5.261l.215 2.073s1.292 2.85 2.761 3.188z"/><path fill="#d14e3f" d="M52.521 25.45c-.595-.049-1.349-.118-1.88.36-.876.783-.629 2.26.701 2.582.373.09 1.86-.198 2.891-.928-.432-.94-1.002-1.779-1.712-2.014z"/><path fill="#fedcbd" d="M52.51 25.45c-.076-.008-.156-.013-.236-.019l.211 2.035s.128.283.35.68a5.37 5.37 0 0 0 1.397-.682c-.434-.944-1.007-1.785-1.722-2.015z"/><path fill="url(#d)" d="M47.337 11.856s2.514-1.873 5.52-1.528c0 0 1.147-2.88 3.02-3.522 0 0 1.259 2.223 1.3 4.278 0 0 3.816 5.061 4.11 7.576 0 0 2.466-.05 3.008-.345 0 0 .94-.402.236.467-1.175 1.448-4.647 4.63-7.975 5.892-4.037 1.533-7.691 2.17-10.353 0-2.524-2.057-2.268-9.07-2.268-9.07s-1.43-2.91-1.48-5.079c1.596-.405 4.882 1.331 4.882 1.331z"/><path fill="#f89c44" d="M47.337 11.856s2.634-2.016 5.64-1.67c0 0 1.027-2.739 2.9-3.38 0 0 1.258 2.223 1.3 4.278 0 0 3.816 5.061 4.11 7.576 0 0 2.466-.05 3.008-.345 0 0 .94-.402.236.467-1.176 1.448-4.648 4.63-7.975 5.892-4.038 1.533-7.691 2.17-10.353 0-2.525-2.057-2.268-9.07-2.268-9.07s-1.43-2.91-1.48-5.079c1.596-.405 4.882 1.331 4.882 1.331z"/><path fill="#f4dbc5" d="M43.545 22.439l-.07.909-.76-.152v.812l-.864-.051v.813l-.913-.102-.332.87c-.849-2-2.408-2.748-2.408-2.748.901-.702 3.567-1.378 5.347-.351z"/><path fill="#f4953f" d="M50.436 28.256c.47.424 3.04 1.035 4.645-1.043 1.045-1.353-1.39-.653-1.947-.73-.572-.082-1.024-1.08-2.08-.83-1.143.27-1.633 1.685-.618 2.603z"/><path fill="#f4dbc5" d="M54.193 10.267s1.761.112 2.985.817c-.043-2.055-1.3-4.278-1.3-4.278s-1.766 1.433-1.685 3.46z"/><ellipse cx="53.758" cy="19.257" rx=".478" ry=".795" fill="#304454"/><ellipse cx="58.246" cy="17.649" rx=".358" ry=".795" fill="#304454" transform="rotate(-10.532 58.246 17.649)"/><path fill="#d78334" d="M54.763 7.773s.066-.176.195-.45a4.649 4.649 0 0 0-.468.43c.091.008.181.009.273.02zM64.47 18.254c-1.624 1.467-3.906 3.163-6.128 4.007-4.037 1.532-7.69 2.168-10.353 0-2.524-2.057-2.268-9.072-2.268-9.072s-.525-1.072-.95-2.399c-.833-.258-1.7-.42-2.314-.265.049 2.17 1.479 5.077 1.479 5.077s-.257 7.015 2.267 9.072c2.663 2.168 6.316 1.533 10.353 0 3.328-1.264 6.8-4.444 7.976-5.893.5-.617.17-.593-.062-.527z" opacity=".5"/><path fill="none" stroke="#414042" d="M49.212 25.275s-.856.467-1.245 1.05M48.473 25.042s-.972.272-1.322.583" stroke-width=".172" stroke-linecap="round" stroke-linejoin="round"/><path fill="#f4dbc5" d="M42.499 10.623c-.013.03-.023.06-.034.087.12 2.147 1.47 4.893 1.47 4.893.682-1.479 2.297-2.63 2.297-2.63-1.006-1.302-3.733-2.35-3.733-2.35z"/><ellipse cx="64.296" cy="18.463" rx=".961" ry=".814" fill="#304454"/><path fill="#d78334" d="M20.964 59.565c.47.424 3.04 1.035 4.645-1.043 1.045-1.353-1.39-.653-1.947-.73-.572-.082-1.024-1.08-2.08-.83-1.143.27-1.633 1.685-.618 2.603zM23.411 61.18s.716-.927.981-.715c.162.13-.105 1.83-.37 2.36-.266.53-1.274-.106-1.274-.106l.663-1.538z"/><path fill="#f89c44" d="M17.854 60.788s-3.46-1.14-4.002-4.509c-.671-4.159-5.661-3.195-6.963-2.18 0 0 2.738 1.312 2.933 5.111.162 3.16 4.929 4.83 7.583 2.225l.449-.647z"/><path fill="#f4953f" d="M19.219 57.042s-3.682 3.849-2.791 6.14c.8 2.055 6.039 2.334 7.459 2.08.706-.126 1.725-3.87 1.167-4.06-.502-.17-1.117.762-1.117.762s-1-5.117-3.03-5.27c-2.028-.152-1.688.348-1.688.348z"/><path fill="url(#e)" d="M23.937 61.964s-.983-5.024-2.976-5.261l.215 2.073s1.292 2.85 2.761 3.188z"/><path fill="#d14e3f" d="M21.212 56.76c-.595-.05-1.349-.119-1.88.36-.876.782-.629 2.26.701 2.581.373.09 1.86-.198 2.891-.928-.432-.94-1.002-1.779-1.712-2.014z"/><path fill="#fedcbd" d="M21.201 56.758c-.076-.007-.156-.012-.236-.018l.211 2.035s.128.283.35.68a5.37 5.37 0 0 0 1.397-.682c-.434-.944-1.007-1.785-1.722-2.015z"/><path fill="url(#f)" d="M16.028 43.165s2.514-1.873 5.521-1.528c0 0 1.146-2.88 3.02-3.522 0 0 1.258 2.223 1.3 4.278 0 0 3.815 5.061 4.11 7.576 0 0 2.465-.05 3.007-.345 0 0 .941-.402.236.467-1.175 1.448-4.647 4.63-7.975 5.892-4.037 1.533-7.691 2.17-10.353 0-2.524-2.057-2.268-9.07-2.268-9.07s-1.429-2.91-1.479-5.079c1.595-.405 4.881 1.331 4.881 1.331z"/><path fill="#f89c44" d="M16.028 43.165s2.634-2.016 5.641-1.67c0 0 1.026-2.739 2.899-3.38 0 0 1.258 2.223 1.3 4.278 0 0 3.816 5.061 4.111 7.576 0 0 2.465-.05 3.007-.345 0 0 .941-.402.236.467-1.176 1.448-4.648 4.63-7.975 5.892-4.038 1.533-7.691 2.17-10.353 0-2.525-2.057-2.268-9.07-2.268-9.07s-1.43-2.91-1.479-5.079c1.595-.405 4.881 1.331 4.881 1.331z"/><path fill="#f4dbc5" d="M12.236 53.748l-.07.909-.76-.152v.812l-.864-.051v.813l-.913-.102-.332.87c-.849-2-2.408-2.748-2.408-2.748.901-.702 3.567-1.378 5.347-.351z"/><path fill="#f4953f" d="M19.128 59.565c.468.424 3.04 1.035 4.645-1.043 1.044-1.353-1.39-.653-1.947-.73-.573-.082-1.024-1.08-2.08-.83-1.143.27-1.633 1.685-.618 2.603z"/><path fill="#f4dbc5" d="M22.884 41.576s1.761.112 2.985.817c-.043-2.055-1.3-4.278-1.3-4.278s-1.766 1.433-1.685 3.46z"/><ellipse cx="22.449" cy="50.566" rx=".478" ry=".795" fill="#304454"/><ellipse cx="26.937" cy="48.958" rx=".358" ry=".795" fill="#304454" transform="rotate(-10.532 26.937 48.958)"/><path fill="#d78334" d="M23.454 39.082s.066-.176.195-.45a4.649 4.649 0 0 0-.468.43c.091.008.181.009.273.02zM33.16 49.563c-1.623 1.467-3.905 3.163-6.127 4.007-4.037 1.532-7.69 2.168-10.353 0-2.524-2.057-2.268-9.072-2.268-9.072s-.525-1.072-.95-2.399c-.833-.258-1.7-.42-2.314-.265.049 2.17 1.479 5.077 1.479 5.077s-.257 7.015 2.267 9.072c2.663 2.168 6.316 1.533 10.353 0 3.328-1.264 6.8-4.444 7.976-5.893.5-.617.17-.593-.062-.527z" opacity=".5"/><path fill="none" stroke="#414042" d="M17.903 56.584s-.856.467-1.245 1.05M17.164 56.35s-.972.273-1.322.584" stroke-width=".172" stroke-linecap="round" stroke-linejoin="round"/><path fill="#f4dbc5" d="M11.19 41.932c-.013.03-.023.06-.034.087.12 2.147 1.47 4.893 1.47 4.893.682-1.479 2.297-2.63 2.297-2.63-1.006-1.302-3.733-2.35-3.733-2.35z"/><ellipse cx="32.987" cy="49.771" rx=".961" ry=".814" fill="#304454"/><path fill="#d78334" d="M52.273 59.565c.469.424 3.04 1.035 4.645-1.043 1.045-1.353-1.39-.653-1.947-.73-.572-.082-1.024-1.08-2.08-.83-1.143.27-1.633 1.685-.618 2.603zM54.72 61.18s.716-.927.981-.715c.162.13-.105 1.83-.371 2.36-.265.53-1.273-.106-1.273-.106l.663-1.538z"/><path fill="#f89c44" d="M49.163 60.788s-3.46-1.14-4.002-4.509c-.672-4.159-5.662-3.195-6.964-2.18 0 0 2.738 1.312 2.933 5.111.162 3.16 4.93 4.83 7.584 2.225l.449-.647z"/><path fill="#f4953f" d="M50.528 57.042s-3.682 3.849-2.791 6.14c.8 2.055 6.039 2.334 7.459 2.08.706-.126 1.725-3.87 1.167-4.06-.502-.17-1.117.762-1.117.762s-1-5.117-3.03-5.27c-2.028-.152-1.688.348-1.688.348z"/><path fill="url(#g)" d="M55.246 61.964s-.983-5.024-2.976-5.261l.215 2.073s1.292 2.85 2.761 3.188z"/><path fill="#d14e3f" d="M52.521 56.76c-.595-.05-1.349-.119-1.88.36-.876.782-.629 2.26.701 2.581.373.09 1.86-.198 2.891-.928-.432-.94-1.002-1.779-1.712-2.014z"/><path fill="#fedcbd" d="M52.51 56.758c-.076-.007-.156-.012-.236-.018l.211 2.035s.128.283.35.68a5.37 5.37 0 0 0 1.397-.682c-.434-.944-1.007-1.785-1.722-2.015z"/><path fill="url(#h)" d="M47.337 43.165s2.514-1.873 5.52-1.528c0 0 1.147-2.88 3.02-3.522 0 0 1.259 2.223 1.3 4.278 0 0 3.816 5.061 4.11 7.576 0 0 2.466-.05 3.008-.345 0 0 .94-.402.236.467-1.175 1.448-4.647 4.63-7.975 5.892-4.037 1.533-7.691 2.17-10.353 0-2.524-2.057-2.268-9.07-2.268-9.07s-1.43-2.91-1.48-5.079c1.596-.405 4.882 1.331 4.882 1.331z"/><path fill="#f89c44" d="M47.337 43.165s2.634-2.016 5.64-1.67c0 0 1.027-2.739 2.9-3.38 0 0 1.258 2.223 1.3 4.278 0 0 3.816 5.061 4.11 7.576 0 0 2.466-.05 3.008-.345 0 0 .94-.402.236.467-1.176 1.448-4.648 4.63-7.975 5.892-4.038 1.533-7.691 2.17-10.353 0-2.525-2.057-2.268-9.07-2.268-9.07s-1.43-2.91-1.48-5.079c1.596-.405 4.882 1.331 4.882 1.331z"/><path fill="#f4dbc5" d="M43.545 53.748l-.07.909-.76-.152v.812l-.864-.051v.813l-.913-.102-.332.87c-.849-2-2.408-2.748-2.408-2.748.901-.702 3.567-1.378 5.347-.351z"/><path fill="#f4953f" d="M50.436 59.565c.47.424 3.04 1.035 4.645-1.043 1.045-1.353-1.39-.653-1.947-.73-.572-.082-1.024-1.08-2.08-.83-1.143.27-1.633 1.685-.618 2.603z"/><path fill="#f4dbc5" d="M54.193 41.576s1.761.112 2.985.817c-.043-2.055-1.3-4.278-1.3-4.278s-1.766 1.433-1.685 3.46z"/><ellipse cx="53.758" cy="50.566" rx=".478" ry=".795" fill="#304454"/><ellipse cx="58.246" cy="48.958" rx=".358" ry=".795" fill="#304454" transform="rotate(-10.532 58.246 48.958)"/><path fill="#d78334" d="M54.763 39.082s.066-.176.195-.45a4.649 4.649 0 0 0-.468.43c.091.008.181.009.273.02zM64.47 49.563c-1.624 1.467-3.906 3.163-6.128 4.007-4.037 1.532-7.69 2.168-10.353 0-2.524-2.057-2.268-9.072-2.268-9.072s-.525-1.072-.95-2.399c-.833-.258-1.7-.42-2.314-.265.049 2.17 1.479 5.077 1.479 5.077s-.257 7.015 2.267 9.072c2.663 2.168 6.316 1.533 10.353 0 3.328-1.264 6.8-4.444 7.976-5.893.5-.617.17-.593-.062-.527z" opacity=".5"/><path fill="none" stroke="#414042" d="M49.212 56.584s-.856.467-1.245 1.05M48.473 56.35s-.972.273-1.322.584" stroke-width=".172" stroke-linecap="round" stroke-linejoin="round"/><path fill="#f4dbc5" d="M42.499 41.932c-.013.03-.023.06-.034.087.12 2.147 1.47 4.893 1.47 4.893.682-1.479 2.297-2.63 2.297-2.63-1.006-1.302-3.733-2.35-3.733-2.35z"/><ellipse cx="64.296" cy="49.771" rx=".961" ry=".814" fill="#304454"/><path fill="#d78334" d="M20.964 90.874c.47.424 3.04 1.035 4.645-1.043 1.045-1.353-1.39-.653-1.947-.73-.572-.082-1.024-1.08-2.08-.83-1.143.27-1.633 1.685-.618 2.603zM23.411 92.49s.716-.928.981-.716c.162.13-.105 1.83-.37 2.36-.266.53-1.274-.106-1.274-.106l.663-1.538z"/><path fill="#f89c44" d="M17.854 92.097s-3.46-1.14-4.002-4.509c-.671-4.159-5.661-3.195-6.963-2.18 0 0 2.738 1.312 2.933 5.111.162 3.16 4.929 4.83 7.583 2.225l.449-.647z"/><path fill="#f4953f" d="M19.219 88.35s-3.682 3.85-2.791 6.14c.8 2.056 6.039 2.335 7.459 2.08.706-.125 1.725-3.868 1.167-4.058-.502-.171-1.117.76-1.117.76s-1-5.116-3.03-5.27c-2.028-.151-1.688.349-1.688.349z"/><path fill="url(#i)" d="M23.937 93.273s-.983-5.024-2.976-5.261l.215 2.073s1.292 2.85 2.761 3.188z"/><path fill="#d14e3f" d="M21.212 88.068c-.595-.049-1.349-.118-1.88.36-.876.783-.629 2.26.701 2.582.373.09 1.86-.198 2.891-.928-.432-.94-1.002-1.779-1.712-2.014z"/><path fill="#fedcbd" d="M21.201 88.067c-.076-.007-.156-.012-.236-.018l.211 2.035s.128.283.35.68a5.37 5.37 0 0 0 1.397-.682c-.434-.944-1.007-1.785-1.722-2.015z"/><path fill="url(#j)" d="M16.028 74.474s2.514-1.873 5.521-1.528c0 0 1.146-2.88 3.02-3.522 0 0 1.258 2.223 1.3 4.278 0 0 3.815 5.061 4.11 7.576 0 0 2.465-.05 3.007-.345 0 0 .941-.402.236.467-1.175 1.448-4.647 4.63-7.975 5.892-4.037 1.533-7.691 2.17-10.353 0-2.524-2.057-2.268-9.07-2.268-9.07s-1.429-2.91-1.479-5.079c1.595-.405 4.881 1.331 4.881 1.331z"/><path fill="#f89c44" d="M16.028 74.474s2.634-2.016 5.641-1.67c0 0 1.026-2.739 2.899-3.38 0 0 1.258 2.223 1.3 4.278 0 0 3.816 5.061 4.111 7.576 0 0 2.465-.05 3.007-.345 0 0 .941-.402.236.467-1.176 1.448-4.648 4.63-7.975 5.892-4.038 1.533-7.691 2.17-10.353 0-2.525-2.057-2.268-9.07-2.268-9.07s-1.43-2.91-1.479-5.079c1.595-.405 4.881 1.331 4.881 1.331z"/><path fill="#f4dbc5" d="M12.236 85.057l-.07.909-.76-.152v.812l-.864-.051v.813l-.913-.102-.332.87c-.849-2-2.408-2.748-2.408-2.748.901-.702 3.567-1.378 5.347-.351z"/><path fill="#f4953f" d="M19.128 90.874c.468.424 3.04 1.035 4.645-1.043 1.044-1.353-1.39-.653-1.947-.73-.573-.082-1.024-1.08-2.08-.83-1.143.27-1.633 1.685-.618 2.603z"/><path fill="#f4dbc5" d="M22.884 72.885s1.761.112 2.985.817c-.043-2.055-1.3-4.278-1.3-4.278s-1.766 1.433-1.685 3.46z"/><ellipse cx="22.449" cy="81.875" rx=".478" ry=".795" fill="#304454"/><ellipse cx="26.937" cy="80.267" rx=".358" ry=".795" fill="#304454" transform="rotate(-10.532 26.937 80.267)"/><path fill="#d78334" d="M23.454 70.39s.066-.175.195-.448a4.649 4.649 0 0 0-.468.43c.091.007.181.008.273.019zM33.16 80.872c-1.623 1.467-3.905 3.163-6.127 4.007-4.037 1.532-7.69 2.168-10.353 0-2.524-2.057-2.268-9.072-2.268-9.072s-.525-1.072-.95-2.399c-.833-.258-1.7-.421-2.314-.265.049 2.169 1.479 5.077 1.479 5.077s-.257 7.015 2.267 9.072c2.663 2.168 6.316 1.533 10.353 0 3.328-1.264 6.8-4.444 7.976-5.893.5-.617.17-.593-.062-.527z" opacity=".5"/><path fill="none" stroke="#414042" d="M17.903 87.893s-.856.467-1.245 1.05M17.164 87.66s-.972.272-1.322.583" stroke-width=".172" stroke-linecap="round" stroke-linejoin="round"/><path fill="#f4dbc5" d="M11.19 73.241c-.013.03-.023.06-.034.087.12 2.147 1.47 4.893 1.47 4.893.682-1.479 2.297-2.63 2.297-2.63-1.006-1.302-3.733-2.35-3.733-2.35z"/><ellipse cx="32.987" cy="81.08" rx=".961" ry=".814" fill="#304454"/><path fill="#d78334" d="M52.273 90.874c.469.424 3.04 1.035 4.645-1.043 1.045-1.353-1.39-.653-1.947-.73-.572-.082-1.024-1.08-2.08-.83-1.143.27-1.633 1.685-.618 2.603zM54.72 92.49s.716-.928.981-.716c.162.13-.105 1.83-.371 2.36-.265.53-1.273-.106-1.273-.106l.663-1.538z"/><path fill="#f89c44" d="M49.163 92.097s-3.46-1.14-4.002-4.509c-.672-4.159-5.662-3.195-6.964-2.18 0 0 2.738 1.312 2.933 5.111.162 3.16 4.93 4.83 7.584 2.225l.449-.647z"/><path fill="#f4953f" d="M50.528 88.35s-3.682 3.85-2.791 6.14c.8 2.056 6.039 2.335 7.459 2.08.706-.125 1.725-3.868 1.167-4.058-.502-.171-1.117.76-1.117.76s-1-5.116-3.03-5.27c-2.028-.151-1.688.349-1.688.349z"/><path fill="url(#k)" d="M55.246 93.273s-.983-5.024-2.976-5.261l.215 2.073s1.292 2.85 2.761 3.188z"/><path fill="#d14e3f" d="M52.521 88.068c-.595-.049-1.349-.118-1.88.36-.876.783-.629 2.26.701 2.582.373.09 1.86-.198 2.891-.928-.432-.94-1.002-1.779-1.712-2.014z"/><path fill="#fedcbd" d="M52.51 88.067c-.076-.007-.156-.012-.236-.018l.211 2.035s.128.283.35.68a5.37 5.37 0 0 0 1.397-.682c-.434-.944-1.007-1.785-1.722-2.015z"/><path fill="url(#l)" d="M47.337 74.474s2.514-1.873 5.52-1.528c0 0 1.147-2.88 3.02-3.522 0 0 1.259 2.223 1.3 4.278 0 0 3.816 5.061 4.11 7.576 0 0 2.466-.05 3.008-.345 0 0 .94-.402.236.467-1.175 1.448-4.647 4.63-7.975 5.892-4.037 1.533-7.691 2.17-10.353 0-2.524-2.057-2.268-9.07-2.268-9.07s-1.43-2.91-1.48-5.079c1.596-.405 4.882 1.331 4.882 1.331z"/><path fill="#f89c44" d="M47.337 74.474s2.634-2.016 5.64-1.67c0 0 1.027-2.739 2.9-3.38 0 0 1.258 2.223 1.3 4.278 0 0 3.816 5.061 4.11 7.576 0 0 2.466-.05 3.008-.345 0 0 .94-.402.236.467-1.176 1.448-4.648 4.63-7.975 5.892-4.038 1.533-7.691 2.17-10.353 0-2.525-2.057-2.268-9.07-2.268-9.07s-1.43-2.91-1.48-5.079c1.596-.405 4.882 1.331 4.882 1.331z"/><path fill="#f4dbc5" d="M43.545 85.057l-.07.909-.76-.152v.812l-.864-.051v.813l-.913-.102-.332.87c-.849-2-2.408-2.748-2.408-2.748.901-.702 3.567-1.378 5.347-.351z"/><path fill="#f4953f" d="M50.436 90.874c.47.424 3.04 1.035 4.645-1.043 1.045-1.353-1.39-.653-1.947-.73-.572-.082-1.024-1.08-2.08-.83-1.143.27-1.633 1.685-.618 2.603z"/><path fill="#f4dbc5" d="M54.193 72.885s1.761.112 2.985.817c-.043-2.055-1.3-4.278-1.3-4.278s-1.766 1.433-1.685 3.46z"/><ellipse cx="53.758" cy="81.875" rx=".478" ry=".795" fill="#304454"/><ellipse cx="58.246" cy="80.267" rx=".358" ry=".795" fill="#304454" transform="rotate(-10.532 58.246 80.267)"/><path fill="#d78334" d="M54.763 70.39s.066-.175.195-.448a4.649 4.649 0 0 0-.468.43c.091.007.181.008.273.019zM64.47 80.872c-1.624 1.467-3.906 3.163-6.128 4.007-4.037 1.532-7.69 2.168-10.353 0-2.524-2.057-2.268-9.072-2.268-9.072s-.525-1.072-.95-2.399c-.833-.258-1.7-.421-2.314-.265.049 2.169 1.479 5.077 1.479 5.077s-.257 7.015 2.267 9.072c2.663 2.168 6.316 1.533 10.353 0 3.328-1.264 6.8-4.444 7.976-5.893.5-.617.17-.593-.062-.527z" opacity=".5"/><path fill="none" stroke="#414042" d="M49.212 87.893s-.856.467-1.245 1.05M48.473 87.66s-.972.272-1.322.583" stroke-width=".172" stroke-linecap="round" stroke-linejoin="round"/><path fill="#f4dbc5" d="M42.499 73.241c-.013.03-.023.06-.034.087.12 2.147 1.47 4.893 1.47 4.893.682-1.479 2.297-2.63 2.297-2.63-1.006-1.302-3.733-2.35-3.733-2.35z"/><ellipse cx="64.296" cy="81.08" rx=".961" ry=".814" fill="#304454"/><path fill="#d78334" d="M20.964 122.183c.47.424 3.04 1.035 4.645-1.043 1.045-1.353-1.39-.653-1.947-.731-.572-.081-1.024-1.08-2.08-.83-1.143.271-1.633 1.686-.618 2.604zM23.411 123.799s.716-.928.981-.716c.162.13-.105 1.83-.37 2.361-.266.53-1.274-.107-1.274-.107l.663-1.538z"/><path fill="#f89c44" d="M17.854 123.406s-3.46-1.141-4.002-4.509c-.671-4.159-5.661-3.195-6.963-2.18 0 0 2.738 1.312 2.933 5.111.162 3.159 4.929 4.83 7.583 2.225l.449-.647z"/><path fill="#f4953f" d="M19.219 119.66s-3.682 3.849-2.791 6.14c.8 2.055 6.039 2.334 7.459 2.08.706-.126 1.725-3.869 1.167-4.059-.502-.171-1.117.761-1.117.761s-1-5.117-3.03-5.27c-2.028-.152-1.688.348-1.688.348z"/><path fill="url(#m)" d="M23.937 124.582s-.983-5.024-2.976-5.261l.215 2.073s1.292 2.851 2.761 3.188z"/><path fill="#d14e3f" d="M21.212 119.377c-.595-.049-1.349-.118-1.88.36-.876.783-.629 2.26.701 2.582.373.09 1.86-.198 2.891-.928-.432-.94-1.002-1.779-1.712-2.014z"/><path fill="#fedcbd" d="M21.201 119.376c-.076-.007-.156-.012-.236-.018l.211 2.035s.128.283.35.68a5.37 5.37 0 0 0 1.397-.682c-.434-.944-1.007-1.785-1.722-2.015z"/><path fill="url(#n)" d="M16.028 105.783s2.514-1.873 5.521-1.528c0 0 1.146-2.881 3.02-3.522 0 0 1.258 2.223 1.3 4.278 0 0 3.815 5.061 4.11 7.576 0 0 2.465-.05 3.007-.345 0 0 .941-.402.236.467-1.175 1.448-4.647 4.629-7.975 5.892-4.037 1.533-7.691 2.169-10.353 0-2.524-2.057-2.268-9.071-2.268-9.071s-1.429-2.909-1.479-5.078c1.595-.405 4.881 1.331 4.881 1.331z"/><path fill="#f89c44" d="M16.028 105.783s2.634-2.016 5.641-1.671c0 0 1.026-2.738 2.899-3.379 0 0 1.258 2.223 1.3 4.278 0 0 3.816 5.061 4.111 7.576 0 0 2.465-.05 3.007-.345 0 0 .941-.402.236.467-1.176 1.448-4.648 4.629-7.975 5.892-4.038 1.533-7.691 2.169-10.353 0-2.525-2.057-2.268-9.071-2.268-9.071s-1.43-2.909-1.479-5.078c1.595-.405 4.881 1.331 4.881 1.331z"/><path fill="#f4dbc5" d="M12.236 116.366l-.07.909-.76-.152v.812l-.864-.051v.813l-.913-.102-.332.871c-.849-2-2.408-2.749-2.408-2.749.901-.702 3.567-1.378 5.347-.351z"/><path fill="#f4953f" d="M19.128 122.183c.468.424 3.04 1.035 4.645-1.043 1.044-1.353-1.39-.653-1.947-.731-.573-.081-1.024-1.08-2.08-.83-1.143.271-1.633 1.686-.618 2.604z"/><path fill="#f4dbc5" d="M22.884 104.194s1.761.112 2.985.817c-.043-2.055-1.3-4.278-1.3-4.278s-1.766 1.433-1.685 3.461z"/><ellipse cx="22.449" cy="113.184" rx=".478" ry=".795" fill="#304454"/><ellipse cx="26.937" cy="111.576" rx=".358" ry=".795" fill="#304454" transform="rotate(-10.532 26.937 111.576)"/><path fill="#d78334" d="M23.454 101.699s.066-.176.195-.449a4.649 4.649 0 0 0-.468.43c.091.007.181.008.273.019zM33.16 112.181c-1.623 1.467-3.905 3.163-6.127 4.007-4.037 1.532-7.69 2.168-10.353 0-2.524-2.057-2.268-9.072-2.268-9.072s-.525-1.072-.95-2.399c-.833-.258-1.7-.421-2.314-.265.049 2.169 1.479 5.077 1.479 5.077s-.257 7.015 2.267 9.072c2.663 2.168 6.316 1.533 10.353 0 3.328-1.264 6.8-4.444 7.976-5.893.5-.617.17-.593-.062-.527z" opacity=".5"/><path fill="none" stroke="#414042" d="M17.903 119.202s-.856.467-1.245 1.05M17.164 118.969s-.972.272-1.322.583" stroke-width=".172" stroke-linecap="round" stroke-linejoin="round"/><path fill="#f4dbc5" d="M11.19 104.55c-.013.029-.023.059-.034.087.12 2.147 1.47 4.893 1.47 4.893.682-1.479 2.297-2.631 2.297-2.631-1.006-1.301-3.733-2.349-3.733-2.349z"/><ellipse cx="32.987" cy="112.389" rx=".961" ry=".814" fill="#304454"/><path fill="#d78334" d="M52.273 122.183c.469.424 3.04 1.035 4.645-1.043 1.045-1.353-1.39-.653-1.947-.731-.572-.081-1.024-1.08-2.08-.83-1.143.271-1.633 1.686-.618 2.604zM54.72 123.799s.716-.928.981-.716c.162.13-.105 1.83-.371 2.361-.265.53-1.273-.107-1.273-.107l.663-1.538z"/><path fill="#f89c44" d="M49.163 123.406s-3.46-1.141-4.002-4.509c-.672-4.159-5.662-3.195-6.964-2.18 0 0 2.738 1.312 2.933 5.111.162 3.159 4.93 4.83 7.584 2.225l.449-.647z"/><path fill="#f4953f" d="M50.528 119.66s-3.682 3.849-2.791 6.14c.8 2.055 6.039 2.334 7.459 2.08.706-.126 1.725-3.869 1.167-4.059-.502-.171-1.117.761-1.117.761s-1-5.117-3.03-5.27c-2.028-.152-1.688.348-1.688.348z"/><path fill="url(#o)" d="M55.246 124.582s-.983-5.024-2.976-5.261l.215 2.073s1.292 2.851 2.761 3.188z"/><path fill="#d14e3f" d="M52.521 119.377c-.595-.049-1.349-.118-1.88.36-.876.783-.629 2.26.701 2.582.373.09 1.86-.198 2.891-.928-.432-.94-1.002-1.779-1.712-2.014z"/><path fill="#fedcbd" d="M52.51 119.376c-.076-.007-.156-.012-.236-.018l.211 2.035s.128.283.35.68a5.37 5.37 0 0 0 1.397-.682c-.434-.944-1.007-1.785-1.722-2.015z"/><path fill="url(#p)" d="M47.337 105.783s2.514-1.873 5.52-1.528c0 0 1.147-2.881 3.02-3.522 0 0 1.259 2.223 1.3 4.278 0 0 3.816 5.061 4.11 7.576 0 0 2.466-.05 3.008-.345 0 0 .94-.402.236.467-1.175 1.448-4.647 4.629-7.975 5.892-4.037 1.533-7.691 2.169-10.353 0-2.524-2.057-2.268-9.071-2.268-9.071s-1.43-2.909-1.48-5.078c1.596-.405 4.882 1.331 4.882 1.331z"/><path fill="#f89c44" d="M47.337 105.783s2.634-2.016 5.64-1.671c0 0 1.027-2.738 2.9-3.379 0 0 1.258 2.223 1.3 4.278 0 0 3.816 5.061 4.11 7.576 0 0 2.466-.05 3.008-.345 0 0 .94-.402.236.467-1.176 1.448-4.648 4.629-7.975 5.892-4.038 1.533-7.691 2.169-10.353 0-2.525-2.057-2.268-9.071-2.268-9.071s-1.43-2.909-1.48-5.078c1.596-.405 4.882 1.331 4.882 1.331z"/><path fill="#f4dbc5" d="M43.545 116.366l-.07.909-.76-.152v.812l-.864-.051v.813l-.913-.102-.332.871c-.849-2-2.408-2.749-2.408-2.749.901-.702 3.567-1.378 5.347-.351z"/><path fill="#f4953f" d="M50.436 122.183c.47.424 3.04 1.035 4.645-1.043 1.045-1.353-1.39-.653-1.947-.731-.572-.081-1.024-1.08-2.08-.83-1.143.271-1.633 1.686-.618 2.604z"/><path fill="#f4dbc5" d="M54.193 104.194s1.761.112 2.985.817c-.043-2.055-1.3-4.278-1.3-4.278s-1.766 1.433-1.685 3.461z"/><ellipse cx="53.758" cy="113.184" rx=".478" ry=".795" fill="#304454"/><ellipse cx="58.246" cy="111.576" rx=".358" ry=".795" fill="#304454" transform="rotate(-10.532 58.246 111.576)"/><path fill="#d78334" d="M54.763 101.699s.066-.176.195-.449a4.649 4.649 0 0 0-.468.43c.091.007.181.008.273.019zM64.47 112.181c-1.624 1.467-3.906 3.163-6.128 4.007-4.037 1.532-7.69 2.168-10.353 0-2.524-2.057-2.268-9.072-2.268-9.072s-.525-1.072-.95-2.399c-.833-.258-1.7-.421-2.314-.265.049 2.169 1.479 5.077 1.479 5.077s-.257 7.015 2.267 9.072c2.663 2.168 6.316 1.533 10.353 0 3.328-1.264 6.8-4.444 7.976-5.893.5-.617.17-.593-.062-.527z" opacity=".5"/><path fill="none" stroke="#414042" d="M49.212 119.202s-.856.467-1.245 1.05M48.473 118.969s-.972.272-1.322.583" stroke-width=".172" stroke-linecap="round" stroke-linejoin="round"/><path fill="#f4dbc5" d="M42.499 104.55c-.013.029-.023.059-.034.087.12 2.147 1.47 4.893 1.47 4.893.682-1.479 2.297-2.631 2.297-2.631-1.006-1.301-3.733-2.349-3.733-2.349z"/><ellipse cx="64.296" cy="112.389" rx=".961" ry=".814" fill="#304454"/></svg>
