<svg xmlns="http://www.w3.org/2000/svg" width="81.931" height="120" viewBox="0 0 81.93103448275862 120.00000000000001"><path fill="#4d677a" d="M31.894 23.555s1.22-.881 1.457-.746c.237.135.035 1.017.035 1.017l-1.492-.271z"/><path fill="#bdcccc" d="M33.214 29.08s.617.155 1.003-.154c.384-.307.076-1.041.076-1.041l-1.079 1.196z"/><path fill="#4d677a" d="M18.37 33.283s-1.542 1.002-2.044 2.043c0 0 3.046-1.658 4.666-1.696 0 0-1.735-.347-2.622-.347zM22.648 22s2.836-3.28 5.274-2.792c0 0-2.02 2.115-1.696 3.718.012.054.025.107.042.16.502 1.618-3.62-1.085-3.62-1.085z"/><path fill="#7a3440" d="M16.622 28.51s-2.557 3.427-1.78 4.258c1.217-.05 3.416-.907 3.416-.907l1.69-1.501-3.326-1.85z"/><path fill="#4d677a" d="M37.02 23.233c-.119-1.425.376-3.301.75-4.8l-.718-.333.97-.531a10.808 10.808 0 0 1 1.738-3.24s-2.33 1.027-4.145 2.89c-1.684 1.728-.92 6.247-.92 6.247s-7.06.083-12.959-2.326c-7.16-2.924-13.66-6.38-13.456-3.405.166 2.409 3.073 8.306 4.403 9.22 1.328.913 5.616 2.15 5.482 2.658-.416 1.578-3.738 2.74-3.323 3.156.416.415 12.958 5.067 20.6-6.147 0 0 3.055 3.816 5.937 3.78-3.062-3.026-3.602-4.43-4.359-7.17z"/><path fill="#fffdfd" d="M17.48 28.965s-.053.724.026.805c.081.081.456-.509.456-.509l-.482-.296zM16.7 28.507s-.053.724.027.805c.08.08.456-.51.456-.51l-.482-.295zM16.042 32.052s-.532-.492-.646-.479c-.113.012.115.673.115.673l.53-.194z"/><path fill="#bdcccc" d="M36.355 24.047s-2.58 5.569-10.088 5.358c-7.438-.208-13.917-7.766-15.578-9.761-1.138-1.365-1.916-2.176-2.396-2.238-.014.1-.02.208-.012.329.166 2.409 3.073 8.306 4.402 9.22 1.33.913 5.616 2.149 5.482 2.658-.416 1.578-3.738 2.74-3.323 3.156.413.413 13.087 5.12 20.6-6.147.546-1.335.913-2.575.913-2.575z"/><path fill="#688da7" d="M21.044 23.009s.552 1.353-.569 2.965c0 0 .6-1.521.57-2.965zM21.621 23.455s.551 1.353-.569 2.965c0 0 .6-1.521.57-2.965zM22.088 23.889s.552 1.352-.569 2.965c0 0 .6-1.522.57-2.965z"/><path fill="#304454" d="M24.377 31.264c-.222-1.463-.842-1.463-.975-2.616 0 0 .043-.079.089-.177 0 0 3.368 2.394 4.476 2.704 0 0 .14 2.804 2.66 3.546-.023.063-.023.12-.023.19 0 0-5.668.043-6.227-3.647z"/><path fill="#4d677a" d="M24.465 31.086c-.222-1.462-.842-1.462-.975-2.614 0 0 1.374.62 2.35.532 0 0 1.107 1.684 2.215 1.994 0 0 .266 2.66 2.571 3.723 0 0-5.602.055-6.16-3.635z"/><ellipse cx="18.403" cy="23.527" rx=".441" ry=".732" fill="#304454"/><path fill="#4d677a" d="M69.963 23.555s1.22-.881 1.457-.746.035 1.017.035 1.017l-1.492-.271z"/><path fill="#bdcccc" d="M71.283 29.08s.617.155 1.003-.154c.384-.307.076-1.041.076-1.041l-1.079 1.196z"/><path fill="#4d677a" d="M56.439 33.283s-1.542 1.002-2.044 2.043c0 0 3.046-1.658 4.666-1.696 0 0-1.735-.347-2.622-.347zM60.717 22s2.836-3.28 5.274-2.792c0 0-2.02 2.115-1.696 3.718.012.054.025.107.042.16.502 1.618-3.62-1.085-3.62-1.085z"/><path fill="#7a3440" d="M54.691 28.51s-2.557 3.427-1.78 4.258c1.217-.05 3.416-.907 3.416-.907l1.69-1.501-3.326-1.85z"/><path fill="#4d677a" d="M75.09 23.233c-.12-1.425.375-3.301.748-4.8l-.717-.333.97-.531a10.808 10.808 0 0 1 1.738-3.24s-2.33 1.027-4.145 2.89c-1.684 1.728-.92 6.247-.92 6.247s-7.06.083-12.959-2.326c-7.16-2.924-13.66-6.38-13.456-3.405.166 2.409 3.073 8.306 4.403 9.22 1.328.913 5.616 2.15 5.482 2.658-.416 1.578-3.738 2.74-3.323 3.156.416.415 12.958 5.067 20.6-6.147 0 0 3.055 3.816 5.937 3.78-3.062-3.026-3.602-4.43-4.359-7.17z"/><path fill="#fffdfd" d="M55.55 28.965s-.054.724.025.805c.081.081.456-.509.456-.509l-.482-.296zM54.77 28.507s-.055.724.026.805c.08.08.456-.51.456-.51l-.483-.295zM54.11 32.052s-.531-.492-.645-.479c-.113.012.115.673.115.673l.53-.194z"/><path fill="#bdcccc" d="M74.424 24.047s-2.58 5.569-10.088 5.358c-7.438-.208-13.917-7.766-15.578-9.761-1.138-1.365-1.916-2.176-2.396-2.238-.014.1-.02.208-.012.329.166 2.409 3.073 8.306 4.402 9.22 1.33.913 5.616 2.149 5.482 2.658-.416 1.578-3.738 2.74-3.323 3.156.413.413 13.087 5.12 20.6-6.147.546-1.335.913-2.575.913-2.575z"/><path fill="#688da7" d="M59.113 23.009s.552 1.353-.569 2.965c0 0 .6-1.521.57-2.965zM59.69 23.455s.551 1.353-.569 2.965c0 0 .6-1.521.57-2.965zM60.157 23.889s.553 1.352-.568 2.965c0 0 .6-1.522.569-2.965z"/><path fill="#304454" d="M62.446 31.264c-.222-1.463-.842-1.463-.975-2.616 0 0 .043-.079.089-.177 0 0 3.368 2.394 4.476 2.704 0 0 .14 2.804 2.66 3.546-.023.063-.023.12-.023.19 0 0-5.668.043-6.227-3.647z"/><path fill="#4d677a" d="M62.534 31.086c-.222-1.462-.842-1.462-.975-2.614 0 0 1.374.62 2.35.532 0 0 1.107 1.684 2.215 1.994 0 0 .266 2.66 2.571 3.723 0 0-5.602.055-6.16-3.635z"/><ellipse cx="56.472" cy="23.527" rx=".441" ry=".732" fill="#304454"/><path fill="#4d677a" d="M31.894 61.624s1.22-.881 1.457-.746c.237.135.035 1.017.035 1.017l-1.492-.271z"/><path fill="#bdcccc" d="M33.214 67.15s.617.154 1.003-.155c.384-.307.076-1.041.076-1.041l-1.079 1.196z"/><path fill="#4d677a" d="M18.37 71.352s-1.542 1.002-2.044 2.043c0 0 3.046-1.658 4.666-1.696 0 0-1.735-.347-2.622-.347zM22.648 60.07s2.836-3.28 5.274-2.793c0 0-2.02 2.115-1.696 3.718.012.054.025.107.042.16.502 1.618-3.62-1.085-3.62-1.085z"/><path fill="#7a3440" d="M16.622 66.579s-2.557 3.427-1.78 4.258c1.217-.05 3.416-.907 3.416-.907l1.69-1.501-3.326-1.85z"/><path fill="#4d677a" d="M37.02 61.302c-.119-1.425.376-3.301.75-4.8l-.718-.333.97-.531a10.808 10.808 0 0 1 1.738-3.24s-2.33 1.027-4.145 2.89c-1.684 1.728-.92 6.247-.92 6.247s-7.06.083-12.959-2.326c-7.16-2.924-13.66-6.38-13.456-3.405.166 2.409 3.073 8.306 4.403 9.22 1.328.913 5.616 2.15 5.482 2.658-.416 1.578-3.738 2.74-3.323 3.156.416.415 12.958 5.067 20.6-6.147 0 0 3.055 3.816 5.937 3.78-3.062-3.026-3.602-4.43-4.359-7.17z"/><path fill="#fffdfd" d="M17.48 67.034s-.053.724.026.805c.081.081.456-.509.456-.509l-.482-.296zM16.7 66.576s-.053.724.027.805c.08.08.456-.51.456-.51l-.482-.295zM16.042 70.121s-.532-.492-.646-.479c-.113.012.115.673.115.673l.53-.194z"/><path fill="#bdcccc" d="M36.355 62.116s-2.58 5.569-10.088 5.358c-7.438-.208-13.917-7.766-15.578-9.761-1.138-1.365-1.916-2.176-2.396-2.238-.014.1-.02.208-.012.329.166 2.409 3.073 8.306 4.402 9.22 1.33.913 5.616 2.149 5.482 2.658-.416 1.578-3.738 2.74-3.323 3.156.413.413 13.087 5.12 20.6-6.147.546-1.335.913-2.575.913-2.575z"/><path fill="#688da7" d="M21.044 61.078s.552 1.353-.569 2.965c0 0 .6-1.521.57-2.965zM21.621 61.524s.551 1.353-.569 2.965c0 0 .6-1.521.57-2.965zM22.088 61.958s.552 1.352-.569 2.965c0 0 .6-1.523.57-2.965z"/><path fill="#304454" d="M24.377 69.333c-.222-1.463-.842-1.463-.975-2.616 0 0 .043-.079.089-.177 0 0 3.368 2.394 4.476 2.704 0 0 .14 2.804 2.66 3.546-.023.063-.023.12-.023.19 0 0-5.668.043-6.227-3.647z"/><path fill="#4d677a" d="M24.465 69.155c-.222-1.462-.842-1.462-.975-2.614 0 0 1.374.62 2.35.532 0 0 1.107 1.684 2.215 1.994 0 0 .266 2.66 2.571 3.723 0 0-5.602.055-6.16-3.635z"/><ellipse cx="18.403" cy="61.596" rx=".441" ry=".732" fill="#304454"/><path fill="#4d677a" d="M69.963 61.624s1.22-.881 1.457-.746.035 1.017.035 1.017l-1.492-.271z"/><path fill="#bdcccc" d="M71.283 67.15s.617.154 1.003-.155c.384-.307.076-1.041.076-1.041l-1.079 1.196z"/><path fill="#4d677a" d="M56.439 71.352s-1.542 1.002-2.044 2.043c0 0 3.046-1.658 4.666-1.696 0 0-1.735-.347-2.622-.347zM60.717 60.07s2.836-3.28 5.274-2.793c0 0-2.02 2.115-1.696 3.718.012.054.025.107.042.16.502 1.618-3.62-1.085-3.62-1.085z"/><path fill="#7a3440" d="M54.691 66.579s-2.557 3.427-1.78 4.258c1.217-.05 3.416-.907 3.416-.907l1.69-1.501-3.326-1.85z"/><path fill="#4d677a" d="M75.09 61.302c-.12-1.425.375-3.301.748-4.8l-.717-.333.97-.531a10.808 10.808 0 0 1 1.738-3.24s-2.33 1.027-4.145 2.89c-1.684 1.728-.92 6.247-.92 6.247s-7.06.083-12.959-2.326c-7.16-2.924-13.66-6.38-13.456-3.405.166 2.409 3.073 8.306 4.403 9.22 1.328.913 5.616 2.15 5.482 2.658-.416 1.578-3.738 2.74-3.323 3.156.416.415 12.958 5.067 20.6-6.147 0 0 3.055 3.816 5.937 3.78-3.062-3.026-3.602-4.43-4.359-7.17z"/><path fill="#fffdfd" d="M55.55 67.034s-.054.724.025.805c.081.081.456-.509.456-.509l-.482-.296zM54.77 66.576s-.055.724.026.805c.08.08.456-.51.456-.51l-.483-.295zM54.11 70.121s-.531-.492-.645-.479c-.113.012.115.673.115.673l.53-.194z"/><path fill="#bdcccc" d="M74.424 62.116s-2.58 5.569-10.088 5.358c-7.438-.208-13.917-7.766-15.578-9.761-1.138-1.365-1.916-2.176-2.396-2.238-.014.1-.02.208-.012.329.166 2.409 3.073 8.306 4.402 9.22 1.33.913 5.616 2.149 5.482 2.658-.416 1.578-3.738 2.74-3.323 3.156.413.413 13.087 5.12 20.6-6.147.546-1.335.913-2.575.913-2.575z"/><path fill="#688da7" d="M59.113 61.078s.552 1.353-.569 2.965c0 0 .6-1.521.57-2.965zM59.69 61.524s.551 1.353-.569 2.965c0 0 .6-1.521.57-2.965zM60.157 61.958s.553 1.352-.568 2.965c0 0 .6-1.523.569-2.965z"/><path fill="#304454" d="M62.446 69.333c-.222-1.463-.842-1.463-.975-2.616 0 0 .043-.079.089-.177 0 0 3.368 2.394 4.476 2.704 0 0 .14 2.804 2.66 3.546-.023.063-.023.12-.023.19 0 0-5.668.043-6.227-3.647z"/><path fill="#4d677a" d="M62.534 69.155c-.222-1.462-.842-1.462-.975-2.614 0 0 1.374.62 2.35.532 0 0 1.107 1.684 2.215 1.994 0 0 .266 2.66 2.571 3.723 0 0-5.602.055-6.16-3.635z"/><ellipse cx="56.472" cy="61.596" rx=".441" ry=".732" fill="#304454"/><path fill="#4d677a" d="M31.894 99.693s1.22-.881 1.457-.746c.237.135.035 1.017.035 1.017l-1.492-.271z"/><path fill="#bdcccc" d="M33.214 105.219s.617.154 1.003-.155c.384-.307.076-1.041.076-1.041l-1.079 1.196z"/><path fill="#4d677a" d="M18.37 109.421s-1.542 1.002-2.044 2.043c0 0 3.046-1.658 4.666-1.696 0 0-1.735-.347-2.622-.347zM22.648 98.139s2.836-3.28 5.274-2.793c0 0-2.02 2.115-1.696 3.718.012.054.025.107.042.16.502 1.618-3.62-1.085-3.62-1.085z"/><path fill="#7a3440" d="M16.622 104.648s-2.557 3.427-1.78 4.258c1.217-.049 3.416-.907 3.416-.907l1.69-1.501-3.326-1.85z"/><path fill="#4d677a" d="M37.02 99.37c-.119-1.424.376-3.3.75-4.8l-.718-.332.97-.531a10.808 10.808 0 0 1 1.738-3.24s-2.33 1.027-4.145 2.89c-1.684 1.728-.92 6.247-.92 6.247s-7.06.083-12.959-2.326c-7.16-2.924-13.66-6.38-13.456-3.405.166 2.409 3.073 8.306 4.403 9.22 1.328.913 5.616 2.15 5.482 2.658-.416 1.578-3.738 2.741-3.323 3.156.416.415 12.958 5.067 20.6-6.147 0 0 3.055 3.816 5.937 3.78-3.062-3.026-3.602-4.43-4.359-7.17z"/><path fill="#fffdfd" d="M17.48 105.103s-.053.724.026.805c.081.081.456-.509.456-.509l-.482-.296zM16.7 104.645s-.053.724.027.805c.08.08.456-.51.456-.51l-.482-.295zM16.042 108.19s-.532-.492-.646-.479c-.113.012.115.673.115.673l.53-.194z"/><path fill="#bdcccc" d="M36.355 100.185s-2.58 5.569-10.088 5.358c-7.438-.208-13.917-7.766-15.578-9.761-1.138-1.365-1.916-2.176-2.396-2.238-.014.1-.02.208-.012.329.166 2.409 3.073 8.306 4.402 9.22 1.33.913 5.616 2.149 5.482 2.658-.416 1.578-3.738 2.741-3.323 3.156.413.413 13.087 5.12 20.6-6.147.546-1.335.913-2.575.913-2.575z"/><path fill="#688da7" d="M21.044 99.147s.552 1.353-.569 2.965c0 0 .6-1.521.57-2.965zM21.621 99.593s.551 1.353-.569 2.965c0 0 .6-1.521.57-2.965zM22.088 100.026s.552 1.352-.569 2.965c0 0 .6-1.522.57-2.965z"/><path fill="#304454" d="M24.377 107.402c-.222-1.463-.842-1.463-.975-2.616 0 0 .043-.079.089-.177 0 0 3.368 2.394 4.476 2.704 0 0 .14 2.804 2.66 3.546-.023.063-.023.12-.023.19 0 0-5.668.043-6.227-3.647z"/><path fill="#4d677a" d="M24.465 107.224c-.222-1.462-.842-1.462-.975-2.614 0 0 1.374.619 2.35.532 0 0 1.107 1.684 2.215 1.994 0 0 .266 2.659 2.571 3.723 0 0-5.602.055-6.16-3.635z"/><ellipse cx="18.403" cy="99.665" rx=".441" ry=".732" fill="#304454"/><path fill="#4d677a" d="M69.963 99.693s1.22-.881 1.457-.746.035 1.017.035 1.017l-1.492-.271z"/><path fill="#bdcccc" d="M71.283 105.219s.617.154 1.003-.155c.384-.307.076-1.041.076-1.041l-1.079 1.196z"/><path fill="#4d677a" d="M56.439 109.421s-1.542 1.002-2.044 2.043c0 0 3.046-1.658 4.666-1.696 0 0-1.735-.347-2.622-.347zM60.717 98.139s2.836-3.28 5.274-2.793c0 0-2.02 2.115-1.696 3.718.012.054.025.107.042.16.502 1.618-3.62-1.085-3.62-1.085z"/><path fill="#7a3440" d="M54.691 104.648s-2.557 3.427-1.78 4.258c1.217-.049 3.416-.907 3.416-.907l1.69-1.501-3.326-1.85z"/><path fill="#4d677a" d="M75.09 99.37c-.12-1.424.375-3.3.748-4.8l-.717-.332.97-.531a10.808 10.808 0 0 1 1.738-3.24s-2.33 1.027-4.145 2.89c-1.684 1.728-.92 6.247-.92 6.247s-7.06.083-12.959-2.326c-7.16-2.924-13.66-6.38-13.456-3.405.166 2.409 3.073 8.306 4.403 9.22 1.328.913 5.616 2.15 5.482 2.658-.416 1.578-3.738 2.741-3.323 3.156.416.415 12.958 5.067 20.6-6.147 0 0 3.055 3.816 5.937 3.78-3.062-3.026-3.602-4.43-4.359-7.17z"/><path fill="#fffdfd" d="M55.55 105.103s-.054.724.025.805c.081.081.456-.509.456-.509l-.482-.296zM54.77 104.645s-.055.724.026.805c.08.08.456-.51.456-.51l-.483-.295zM54.11 108.19s-.531-.492-.645-.479c-.113.012.115.673.115.673l.53-.194z"/><path fill="#bdcccc" d="M74.424 100.185s-2.58 5.569-10.088 5.358c-7.438-.208-13.917-7.766-15.578-9.761-1.138-1.365-1.916-2.176-2.396-2.238-.014.1-.02.208-.012.329.166 2.409 3.073 8.306 4.402 9.22 1.33.913 5.616 2.149 5.482 2.658-.416 1.578-3.738 2.741-3.323 3.156.413.413 13.087 5.12 20.6-6.147.546-1.335.913-2.575.913-2.575z"/><path fill="#688da7" d="M59.113 99.147s.552 1.353-.569 2.965c0 0 .6-1.521.57-2.965zM59.69 99.593s.551 1.353-.569 2.965c0 0 .6-1.521.57-2.965zM60.157 100.026s.553 1.352-.568 2.965c0 0 .6-1.522.569-2.965z"/><path fill="#304454" d="M62.446 107.402c-.222-1.463-.842-1.463-.975-2.616 0 0 .043-.079.089-.177 0 0 3.368 2.394 4.476 2.704 0 0 .14 2.804 2.66 3.546-.023.063-.023.12-.023.19 0 0-5.668.043-6.227-3.647z"/><path fill="#4d677a" d="M62.534 107.224c-.222-1.462-.842-1.462-.975-2.614 0 0 1.374.619 2.35.532 0 0 1.107 1.684 2.215 1.994 0 0 .266 2.659 2.571 3.723 0 0-5.602.055-6.16-3.635z"/><ellipse cx="56.472" cy="99.665" rx=".441" ry=".732" fill="#304454"/></svg>
