<svg xmlns="http://www.w3.org/2000/svg" width="160" height="128.945" viewBox="0 0 160 128.9451476793249"><path fill="#d14e3f" d="M16.893 19.308s1.383-2.253 2.254-3.073c3.278-3.125 6.454-3.381 6.454-3.381s.563-1.895-1.076-3.227c-.307-.255-.819-.41-1.383-.461-.051-.05-.205-.102-.307-.153a.57.57 0 0 0-.512.153c-.103 0-.205.052-.308.052-.153-.103-.41-.205-.768-.052-.513.103-.717.41-.82.513-.051.05-.102.05-.102.05-.103-.102-.308-.306-.82 0-.41.206-.666.769-.666.769s-.512.052-.768.257-.41.511-.512.614c-.103.052-.512.154-.871.46-.358.41-.358.513-.358.513s-.461.102-.922.666c-.461.513-.41.615-.41.667 0 0 0 .05-.051.05-.103 0-.615.206-1.025.667-.256-.36-1.332-1.845-2.1-2.204-.409-.152-.819 0-1.178.205-.512-.152-1.127-.614-1.69-1.844L6.751 8.604c0 .102.051.205.051.256.205 1.74.769 4.252 2.459 5.48v.052s-.256 1.075.666 1.229c.563.102 2.356 1.024 2.356 1.024l1.127-1.434c-.103.255-.052.358-.052.41l-.461.614.052-.101s-.154-.104-.564.563c-.461.614-.409 1.076-.409 1.076s-.103 0-.41.46c-.256.512-.205.973-.205.973s-.307.358-.461.666c-.153.308-.051.82-.051.82s-.461.41-.563.82c-.205.82.255.82.255.82s-.358.306-.358 1.023c-.051.666.41.82.41.82s-.308.358-.103.768c.154.358.666.512.666.512s-.102.565.103.77c.153.152.461.511.819.716.154.206.308.41.461.564 1.383 1.127 2.868.564 3.483.256-.512-.616-.666-5.534.871-8.453z"/><path fill="#f89c44" d="M16.893 19.308c-1.537 2.92-1.383 7.837-.871 8.451h.052s10.858 8.4 16.288 1.28c5.429-7.069-6.761-16.186-6.761-16.186s-3.176.257-6.454 3.38c-.871.822-2.254 3.075-2.254 3.075m0 0z"/><path fill="#d14e3f" d="M47.948 19.308s1.383-2.253 2.254-3.073c3.278-3.125 6.454-3.381 6.454-3.381s.563-1.895-1.076-3.227c-.307-.255-.82-.41-1.383-.461-.051-.05-.205-.102-.307-.153a.57.57 0 0 0-.512.153c-.103 0-.205.052-.308.052-.153-.103-.41-.205-.768-.052-.513.103-.717.41-.82.513-.051.05-.102.05-.102.05-.103-.102-.308-.306-.82 0-.41.206-.666.769-.666.769s-.512.052-.768.257-.41.511-.512.614c-.103.052-.512.154-.871.46-.358.41-.358.513-.358.513s-.461.102-.922.666c-.461.513-.41.615-.41.667 0 0 0 .05-.051.05-.103 0-.615.206-1.025.667-.256-.36-1.332-1.845-2.1-2.204-.41-.152-.82 0-1.178.205-.512-.152-1.127-.614-1.69-1.844l-2.203-1.945c0 .102.05.205.05.256.206 1.74.77 4.252 2.46 5.48v.052s-.256 1.075.666 1.229c.563.102 2.356 1.024 2.356 1.024l1.127-1.434c-.103.255-.052.358-.052.41l-.461.614.052-.101s-.154-.104-.564.563c-.461.614-.41 1.076-.41 1.076s-.102 0-.41.46c-.255.512-.204.973-.204.973s-.307.358-.461.666c-.153.308-.051.82-.051.82s-.461.41-.563.82c-.205.82.255.82.255.82s-.358.306-.358 1.023c-.051.666.41.82.41.82s-.308.358-.103.768c.154.358.666.512.666.512s-.102.565.103.77c.153.152.46.511.819.716.154.206.308.41.46.564 1.384 1.127 2.869.564 3.484.256-.512-.616-.666-5.534.87-8.453z"/><path fill="#f89c44" d="M47.948 19.308c-1.537 2.92-1.383 7.837-.871 8.451h.052s10.858 8.4 16.288 1.28c5.429-7.069-6.761-16.186-6.761-16.186s-3.176.257-6.454 3.38c-.871.822-2.254 3.075-2.254 3.075z"/><path fill="#d14e3f" d="M79.003 19.308s1.383-2.253 2.254-3.073c3.278-3.125 6.454-3.381 6.454-3.381s.563-1.895-1.076-3.227c-.307-.255-.82-.41-1.383-.461-.051-.05-.205-.102-.307-.153a.57.57 0 0 0-.512.153c-.103 0-.205.052-.308.052-.153-.103-.41-.205-.768-.052-.513.103-.717.41-.82.513a.158.158 0 0 1-.102.05c-.103-.102-.308-.306-.82 0-.41.206-.666.769-.666.769s-.512.052-.768.257-.41.511-.512.614c-.103.052-.512.154-.871.46-.358.41-.358.513-.358.513s-.461.102-.922.666c-.461.513-.41.615-.41.667 0 0 0 .05-.051.05-.103 0-.615.206-1.025.667-.256-.36-1.332-1.845-2.1-2.204-.41-.152-.82 0-1.178.205-.512-.152-1.127-.614-1.69-1.844L68.86 8.604c0 .102.05.205.05.256.206 1.74.77 4.252 2.46 5.48v.052s-.256 1.075.666 1.229c.563.102 2.356 1.024 2.356 1.024l1.127-1.434c-.103.255-.052.358-.052.41l-.461.614.052-.101s-.154-.104-.564.563c-.461.614-.41 1.076-.41 1.076s-.102 0-.41.46c-.255.512-.204.973-.204.973s-.307.358-.461.666c-.153.308-.051.82-.051.82s-.461.41-.563.82c-.205.82.255.82.255.82s-.358.306-.358 1.023c-.051.666.41.82.41.82s-.308.358-.103.768c.154.358.666.512.666.512s-.102.565.103.77c.153.152.46.511.819.716.154.206.308.41.46.564 1.384 1.127 2.869.564 3.484.256-.512-.616-.666-5.534.87-8.453z"/><path fill="#f89c44" d="M79.003 19.308c-1.537 2.92-1.383 7.837-.871 8.451h.052s10.858 8.4 16.288 1.28C99.9 21.97 87.71 12.854 87.71 12.854s-3.176.257-6.454 3.38c-.871.822-2.254 3.075-2.254 3.075z"/><path fill="#d14e3f" d="M110.058 19.308s1.383-2.253 2.254-3.073c3.278-3.125 6.454-3.381 6.454-3.381s.563-1.895-1.076-3.227c-.307-.255-.819-.41-1.383-.461-.051-.05-.205-.102-.307-.153a.57.57 0 0 0-.512.153c-.103 0-.205.052-.308.052-.153-.103-.41-.205-.768-.052-.513.103-.717.41-.82.513-.051.05-.102.05-.102.05-.103-.102-.308-.306-.82 0-.41.206-.666.769-.666.769s-.512.052-.768.257-.41.511-.512.614c-.103.052-.512.154-.871.46-.358.41-.358.513-.358.513s-.461.102-.922.666c-.461.513-.41.615-.41.667 0 0 0 .05-.051.05-.103 0-.615.206-1.025.667-.256-.36-1.332-1.845-2.1-2.204-.409-.152-.819 0-1.178.205-.512-.152-1.127-.614-1.69-1.844l-2.203-1.945c0 .102.05.205.05.256.206 1.74.77 4.252 2.46 5.48v.052s-.256 1.075.666 1.229c.563.102 2.356 1.024 2.356 1.024l1.127-1.434c-.103.255-.052.358-.052.41l-.461.614.052-.101s-.154-.104-.564.563c-.461.614-.409 1.076-.409 1.076s-.103 0-.41.46c-.256.512-.205.973-.205.973s-.307.358-.461.666c-.153.308-.051.82-.051.82s-.461.41-.563.82c-.205.82.255.82.255.82s-.358.306-.358 1.023c-.051.666.41.82.41.82s-.308.358-.103.768c.154.358.666.512.666.512s-.102.565.103.77c.153.152.461.511.819.716.154.206.308.41.461.564 1.383 1.127 2.868.564 3.483.256-.512-.616-.666-5.534.871-8.453z"/><path fill="#f89c44" d="M110.058 19.308c-1.537 2.92-1.383 7.837-.871 8.451h.052s10.858 8.4 16.288 1.28c5.429-7.069-6.761-16.186-6.761-16.186s-3.176.257-6.454 3.38c-.871.822-2.254 3.075-2.254 3.075z"/><path fill="#d14e3f" d="M141.112 19.308s1.383-2.253 2.254-3.073c3.278-3.125 6.454-3.381 6.454-3.381s.563-1.895-1.076-3.227c-.307-.255-.819-.41-1.383-.461-.051-.05-.205-.102-.307-.153a.57.57 0 0 0-.512.153c-.103 0-.205.052-.308.052-.153-.103-.41-.205-.768-.052-.513.103-.717.41-.82.513-.051.05-.102.05-.102.05-.103-.102-.308-.306-.82 0-.41.206-.666.769-.666.769s-.512.052-.768.257-.41.511-.512.614c-.103.052-.512.154-.871.46-.358.41-.358.513-.358.513s-.461.102-.922.666c-.461.513-.41.615-.41.667 0 0 0 .05-.051.05-.103 0-.615.206-1.025.667-.256-.36-1.332-1.845-2.1-2.204-.409-.152-.819 0-1.178.205-.512-.152-1.127-.614-1.69-1.844l-2.203-1.945c0 .102.051.205.051.256.205 1.74.769 4.252 2.459 5.48v.052s-.256 1.075.666 1.229c.563.102 2.356 1.024 2.356 1.024l1.127-1.434c-.103.255-.052.358-.052.41l-.461.614.052-.101s-.154-.104-.564.563c-.461.614-.409 1.076-.409 1.076s-.103 0-.41.46c-.256.512-.205.973-.205.973s-.307.358-.461.666c-.153.308-.051.82-.051.82s-.461.41-.563.82c-.205.82.255.82.255.82s-.358.306-.358 1.023c-.051.666.41.82.41.82s-.308.358-.103.768c.154.358.666.512.666.512s-.102.565.103.77c.153.152.461.511.819.716.154.206.308.41.461.564 1.383 1.127 2.868.564 3.483.256-.512-.616-.666-5.534.871-8.453z"/><path fill="#f89c44" d="M141.112 19.308c-1.537 2.92-1.383 7.837-.871 8.451h.052s10.858 8.4 16.288 1.28c5.429-7.069-6.761-16.186-6.761-16.186s-3.176.257-6.454 3.38c-.871.822-2.254 3.075-2.254 3.075m0 0z"/><path fill="#d14e3f" d="M16.893 50.362s1.383-2.253 2.254-3.073c3.278-3.125 6.454-3.38 6.454-3.38s.563-1.896-1.076-3.228c-.307-.255-.819-.409-1.383-.46-.051-.05-.205-.103-.307-.154a.57.57 0 0 0-.512.153c-.103 0-.205.052-.308.052-.153-.103-.41-.205-.768-.052-.513.103-.717.411-.82.513-.051.051-.102.051-.102.051-.103-.103-.308-.307-.82 0-.41.205-.666.768-.666.768s-.512.052-.768.257-.41.512-.512.615c-.103.051-.512.153-.871.46-.358.41-.358.513-.358.513s-.461.102-.922.666c-.461.512-.41.614-.41.666 0 0 0 .051-.051.051-.103 0-.615.205-1.025.666-.256-.359-1.332-1.844-2.1-2.203-.409-.153-.819 0-1.178.205-.512-.153-1.127-.614-1.69-1.844l-2.203-1.946c0 .102.051.205.051.256.205 1.741.769 4.252 2.459 5.481v.051s-.256 1.075.666 1.23c.563.102 2.356 1.024 2.356 1.024l1.127-1.435c-.103.256-.052.36-.052.41l-.461.615.052-.102s-.154-.103-.564.563c-.461.615-.409 1.076-.409 1.076s-.103 0-.41.461c-.256.512-.205.973-.205.973s-.307.358-.461.666c-.153.307-.051.82-.051.82s-.461.41-.563.82c-.205.82.255.82.255.82s-.358.306-.358 1.023c-.051.666.41.82.41.82s-.308.358-.103.768c.154.358.666.512.666.512s-.102.564.103.77c.153.152.461.511.819.716.154.205.308.41.461.563 1.383 1.127 2.868.564 3.483.256-.512-.616-.666-5.533.871-8.453z"/><path fill="#f89c44" d="M16.893 50.362c-1.537 2.92-1.383 7.837-.871 8.452h.052s10.858 8.4 16.288 1.28c5.429-7.069-6.761-16.186-6.761-16.186s-3.176.256-6.454 3.38c-.871.821-2.254 3.074-2.254 3.074m0 0z"/><path fill="#d14e3f" d="M47.948 50.362s1.383-2.253 2.254-3.073c3.278-3.125 6.454-3.38 6.454-3.38s.563-1.896-1.076-3.228c-.307-.255-.82-.409-1.383-.46-.051-.05-.205-.103-.307-.154a.57.57 0 0 0-.512.153c-.103 0-.205.052-.308.052-.153-.103-.41-.205-.768-.052-.513.103-.717.411-.82.513-.051.051-.102.051-.102.051-.103-.103-.308-.307-.82 0-.41.205-.666.768-.666.768s-.512.052-.768.257-.41.512-.512.615c-.103.051-.512.153-.871.46-.358.41-.358.513-.358.513s-.461.102-.922.666c-.461.512-.41.614-.41.666 0 0 0 .051-.051.051-.103 0-.615.205-1.025.666-.256-.359-1.332-1.844-2.1-2.203-.41-.153-.82 0-1.178.205-.512-.153-1.127-.614-1.69-1.844l-2.203-1.946c0 .102.05.205.05.256.206 1.741.77 4.252 2.46 5.481v.051s-.256 1.075.666 1.23c.563.102 2.356 1.024 2.356 1.024l1.127-1.435c-.103.256-.052.36-.052.41l-.461.615.052-.102s-.154-.103-.564.563c-.461.615-.41 1.076-.41 1.076s-.102 0-.41.461c-.255.512-.204.973-.204.973s-.307.358-.461.666c-.153.307-.051.82-.051.82s-.461.41-.563.82c-.205.82.255.82.255.82s-.358.306-.358 1.023c-.051.666.41.82.41.82s-.308.358-.103.768c.154.358.666.512.666.512s-.102.564.103.77c.153.152.46.511.819.716.154.205.308.41.46.563 1.384 1.127 2.869.564 3.484.256-.512-.616-.666-5.533.87-8.453z"/><path fill="#f89c44" d="M47.948 50.362c-1.537 2.92-1.383 7.837-.871 8.452h.052s10.858 8.4 16.288 1.28c5.429-7.069-6.761-16.186-6.761-16.186s-3.176.256-6.454 3.38c-.871.821-2.254 3.074-2.254 3.074z"/><path fill="#d14e3f" d="M79.003 50.362s1.383-2.253 2.254-3.073c3.278-3.125 6.454-3.38 6.454-3.38s.563-1.896-1.076-3.228c-.307-.255-.82-.409-1.383-.46-.051-.05-.205-.103-.307-.154a.57.57 0 0 0-.512.153c-.103 0-.205.052-.308.052-.153-.103-.41-.205-.768-.052-.513.103-.717.411-.82.513-.051.051-.102.051-.102.051-.103-.103-.308-.307-.82 0-.41.205-.666.768-.666.768s-.512.052-.768.257-.41.512-.512.615c-.103.051-.512.153-.871.46-.358.41-.358.513-.358.513s-.461.102-.922.666c-.461.512-.41.614-.41.666 0 0 0 .051-.051.051-.103 0-.615.205-1.025.666-.256-.359-1.332-1.844-2.1-2.203-.41-.153-.82 0-1.178.205-.512-.153-1.127-.614-1.69-1.844l-2.203-1.946c0 .102.05.205.05.256.206 1.741.77 4.252 2.46 5.481v.051s-.256 1.075.666 1.23c.563.102 2.356 1.024 2.356 1.024l1.127-1.435c-.103.256-.052.36-.052.41l-.461.615.052-.102s-.154-.103-.564.563c-.461.615-.41 1.076-.41 1.076s-.102 0-.41.461c-.255.512-.204.973-.204.973s-.307.358-.461.666c-.153.307-.051.82-.051.82s-.461.41-.563.82c-.205.82.255.82.255.82s-.358.306-.358 1.023c-.051.666.41.82.41.82s-.308.358-.103.768c.154.358.666.512.666.512s-.102.564.103.77c.153.152.46.511.819.716.154.205.308.41.46.563 1.384 1.127 2.869.564 3.484.256-.512-.616-.666-5.533.87-8.453z"/><path fill="#f89c44" d="M79.003 50.362c-1.537 2.92-1.383 7.837-.871 8.452h.052s10.858 8.4 16.288 1.28c5.429-7.069-6.761-16.186-6.761-16.186s-3.176.256-6.454 3.38c-.871.821-2.254 3.074-2.254 3.074z"/><path fill="#d14e3f" d="M110.058 50.362s1.383-2.253 2.254-3.073c3.278-3.125 6.454-3.38 6.454-3.38s.563-1.896-1.076-3.228c-.307-.255-.819-.409-1.383-.46-.051-.05-.205-.103-.307-.154a.57.57 0 0 0-.512.153c-.103 0-.205.052-.308.052-.153-.103-.41-.205-.768-.052-.513.103-.717.411-.82.513-.051.051-.102.051-.102.051-.103-.103-.308-.307-.82 0-.41.205-.666.768-.666.768s-.512.052-.768.257-.41.512-.512.615c-.103.051-.512.153-.871.46-.358.41-.358.513-.358.513s-.461.102-.922.666c-.461.512-.41.614-.41.666 0 0 0 .051-.051.051-.103 0-.615.205-1.025.666-.256-.359-1.332-1.844-2.1-2.203-.409-.153-.819 0-1.178.205-.512-.153-1.127-.614-1.69-1.844l-2.203-1.946c0 .102.05.205.05.256.206 1.741.77 4.252 2.46 5.481v.051s-.256 1.075.666 1.23c.563.102 2.356 1.024 2.356 1.024l1.127-1.435c-.103.256-.052.36-.052.41l-.461.615.052-.102s-.154-.103-.564.563c-.461.615-.409 1.076-.409 1.076s-.103 0-.41.461c-.256.512-.205.973-.205.973s-.307.358-.461.666c-.153.307-.051.82-.051.82s-.461.41-.563.82c-.205.82.255.82.255.82s-.358.306-.358 1.023c-.051.666.41.82.41.82s-.308.358-.103.768c.154.358.666.512.666.512s-.102.564.103.77c.153.152.461.511.819.716.154.205.308.41.461.563 1.383 1.127 2.868.564 3.483.256-.512-.616-.666-5.533.871-8.453z"/><path fill="#f89c44" d="M110.058 50.362c-1.537 2.92-1.383 7.837-.871 8.452h.052s10.858 8.4 16.288 1.28c5.429-7.069-6.761-16.186-6.761-16.186s-3.176.256-6.454 3.38c-.871.821-2.254 3.074-2.254 3.074z"/><path fill="#d14e3f" d="M141.112 50.362s1.383-2.253 2.254-3.073c3.278-3.125 6.454-3.38 6.454-3.38s.563-1.896-1.076-3.228c-.307-.255-.819-.409-1.383-.46-.051-.05-.205-.103-.307-.154a.57.57 0 0 0-.512.153c-.103 0-.205.052-.308.052-.153-.103-.41-.205-.768-.052-.513.103-.717.411-.82.513-.051.051-.102.051-.102.051-.103-.103-.308-.307-.82 0-.41.205-.666.768-.666.768s-.512.052-.768.257-.41.512-.512.615c-.103.051-.512.153-.871.46-.358.41-.358.513-.358.513s-.461.102-.922.666c-.461.512-.41.614-.41.666 0 0 0 .051-.051.051-.103 0-.615.205-1.025.666-.256-.359-1.332-1.844-2.1-2.203-.409-.153-.819 0-1.178.205-.512-.153-1.127-.614-1.69-1.844l-2.203-1.946c0 .102.051.205.051.256.205 1.741.769 4.252 2.459 5.481v.051s-.256 1.075.666 1.23c.563.102 2.356 1.024 2.356 1.024l1.127-1.435c-.103.256-.052.36-.052.41l-.461.615.052-.102s-.154-.103-.564.563c-.461.615-.409 1.076-.409 1.076s-.103 0-.41.461c-.256.512-.205.973-.205.973s-.307.358-.461.666c-.153.307-.051.82-.051.82s-.461.41-.563.82c-.205.82.255.82.255.82s-.358.306-.358 1.023c-.051.666.41.82.41.82s-.308.358-.103.768c.154.358.666.512.666.512s-.102.564.103.77c.153.152.461.511.819.716.154.205.308.41.461.563 1.383 1.127 2.868.564 3.483.256-.512-.616-.666-5.533.871-8.453z"/><path fill="#f89c44" d="M141.112 50.362c-1.537 2.92-1.383 7.837-.871 8.452h.052s10.858 8.4 16.288 1.28c5.429-7.069-6.761-16.186-6.761-16.186s-3.176.256-6.454 3.38c-.871.821-2.254 3.074-2.254 3.074m0 0z"/><path fill="#d14e3f" d="M16.893 81.417s1.383-2.253 2.254-3.073c3.278-3.125 6.454-3.38 6.454-3.38s.563-1.896-1.076-3.228c-.307-.255-.819-.409-1.383-.46-.051-.05-.205-.103-.307-.154a.57.57 0 0 0-.512.153c-.103 0-.205.052-.308.052-.153-.103-.41-.205-.768-.052-.513.103-.717.411-.82.513-.051.051-.102.051-.102.051-.103-.103-.308-.307-.82 0-.41.205-.666.768-.666.768s-.512.052-.768.257-.41.512-.512.615c-.103.051-.512.153-.871.46-.358.41-.358.513-.358.513s-.461.102-.922.666c-.461.512-.41.614-.41.666 0 0 0 .051-.051.051-.103 0-.615.205-1.025.666-.256-.359-1.332-1.844-2.1-2.203-.409-.153-.819 0-1.178.205-.512-.153-1.127-.614-1.69-1.844l-2.203-1.946c0 .102.051.205.051.256.205 1.741.769 4.252 2.459 5.481v.051s-.256 1.075.666 1.23c.563.102 2.356 1.024 2.356 1.024l1.127-1.435c-.103.256-.052.36-.052.41l-.461.615.052-.102s-.154-.103-.564.563c-.461.615-.409 1.076-.409 1.076s-.103 0-.41.461c-.256.512-.205.973-.205.973s-.307.358-.461.666c-.153.307-.051.82-.051.82s-.461.41-.563.82c-.205.82.255.82.255.82s-.358.306-.358 1.023c-.051.666.41.82.41.82s-.308.358-.103.768c.154.358.666.512.666.512s-.102.564.103.77c.153.152.461.511.819.716.154.205.308.41.461.563 1.383 1.127 2.868.564 3.483.256-.512-.616-.666-5.533.871-8.453z"/><path fill="#f89c44" d="M16.893 81.417c-1.537 2.92-1.383 7.837-.871 8.452h.052s10.858 8.4 16.288 1.28c5.429-7.069-6.761-16.186-6.761-16.186s-3.176.256-6.454 3.38c-.871.821-2.254 3.074-2.254 3.074z"/><path fill="#d14e3f" d="M47.948 81.417s1.383-2.253 2.254-3.073c3.278-3.125 6.454-3.38 6.454-3.38s.563-1.896-1.076-3.228c-.307-.255-.82-.409-1.383-.46-.051-.05-.205-.103-.307-.154a.57.57 0 0 0-.512.153c-.103 0-.205.052-.308.052-.153-.103-.41-.205-.768-.052-.513.103-.717.411-.82.513-.051.051-.102.051-.102.051-.103-.103-.308-.307-.82 0-.41.205-.666.768-.666.768s-.512.052-.768.257-.41.512-.512.615c-.103.051-.512.153-.871.46-.358.41-.358.513-.358.513s-.461.102-.922.666c-.461.512-.41.614-.41.666 0 0 0 .051-.051.051-.103 0-.615.205-1.025.666-.256-.359-1.332-1.844-2.1-2.203-.41-.153-.82 0-1.178.205-.512-.153-1.127-.614-1.69-1.844l-2.203-1.946c0 .102.05.205.05.256.206 1.741.77 4.252 2.46 5.481v.051s-.256 1.075.666 1.23c.563.102 2.356 1.024 2.356 1.024l1.127-1.435c-.103.256-.052.36-.052.41l-.461.615.052-.102s-.154-.103-.564.563c-.461.615-.41 1.076-.41 1.076s-.102 0-.41.461c-.255.512-.204.973-.204.973s-.307.358-.461.666c-.153.307-.051.82-.051.82s-.461.41-.563.82c-.205.82.255.82.255.82s-.358.306-.358 1.023c-.051.666.41.82.41.82s-.308.358-.103.768c.154.358.666.512.666.512s-.102.564.103.77c.153.152.46.511.819.716.154.205.308.41.46.563 1.384 1.127 2.869.564 3.484.256-.512-.616-.666-5.533.87-8.453z"/><path fill="#f89c44" d="M47.948 81.417c-1.537 2.92-1.383 7.837-.871 8.452h.052s10.858 8.4 16.288 1.28c5.429-7.069-6.761-16.186-6.761-16.186s-3.176.256-6.454 3.38c-.871.821-2.254 3.074-2.254 3.074z"/><path fill="#d14e3f" d="M79.003 81.417s1.383-2.253 2.254-3.073c3.278-3.125 6.454-3.38 6.454-3.38s.563-1.896-1.076-3.228c-.307-.255-.82-.409-1.383-.46-.051-.05-.205-.103-.307-.154a.57.57 0 0 0-.512.153c-.103 0-.205.052-.308.052-.153-.103-.41-.205-.768-.052-.513.103-.717.411-.82.513-.051.051-.102.051-.102.051-.103-.103-.308-.307-.82 0-.41.205-.666.768-.666.768s-.512.052-.768.257-.41.512-.512.615c-.103.051-.512.153-.871.46-.358.41-.358.513-.358.513s-.461.102-.922.666c-.461.512-.41.614-.41.666 0 0 0 .051-.051.051-.103 0-.615.205-1.025.666-.256-.359-1.332-1.844-2.1-2.203-.41-.153-.82 0-1.178.205-.512-.153-1.127-.614-1.69-1.844l-2.203-1.946c0 .102.05.205.05.256.206 1.741.77 4.252 2.46 5.481v.051s-.256 1.075.666 1.23c.563.102 2.356 1.024 2.356 1.024l1.127-1.435c-.103.256-.052.36-.052.41l-.461.615.052-.102s-.154-.103-.564.563c-.461.615-.41 1.076-.41 1.076s-.102 0-.41.461c-.255.512-.204.973-.204.973s-.307.358-.461.666c-.153.307-.051.82-.051.82s-.461.41-.563.82c-.205.82.255.82.255.82s-.358.306-.358 1.023c-.051.666.41.82.41.82s-.308.358-.103.768c.154.358.666.512.666.512s-.102.564.103.77c.153.152.46.511.819.716.154.205.308.41.46.563 1.384 1.127 2.869.564 3.484.256-.512-.616-.666-5.533.87-8.453z"/><path fill="#f89c44" d="M79.003 81.417c-1.537 2.92-1.383 7.837-.871 8.452h.052s10.858 8.4 16.288 1.28C99.9 84.08 87.71 74.963 87.71 74.963s-3.176.256-6.454 3.38c-.871.821-2.254 3.074-2.254 3.074z"/><path fill="#d14e3f" d="M110.058 81.417s1.383-2.253 2.254-3.073c3.278-3.125 6.454-3.38 6.454-3.38s.563-1.896-1.076-3.228c-.307-.255-.819-.409-1.383-.46-.051-.05-.205-.103-.307-.154a.57.57 0 0 0-.512.153c-.103 0-.205.052-.308.052-.153-.103-.41-.205-.768-.052-.513.103-.717.411-.82.513-.051.051-.102.051-.102.051-.103-.103-.308-.307-.82 0-.41.205-.666.768-.666.768s-.512.052-.768.257-.41.512-.512.615c-.103.051-.512.153-.871.46-.358.41-.358.513-.358.513s-.461.102-.922.666c-.461.512-.41.614-.41.666 0 0 0 .051-.051.051-.103 0-.615.205-1.025.666-.256-.359-1.332-1.844-2.1-2.203-.409-.153-.819 0-1.178.205-.512-.153-1.127-.614-1.69-1.844l-2.203-1.946c0 .102.05.205.05.256.206 1.741.77 4.252 2.46 5.481v.051s-.256 1.075.666 1.23c.563.102 2.356 1.024 2.356 1.024l1.127-1.435c-.103.256-.052.36-.052.41l-.461.615.052-.102s-.154-.103-.564.563c-.461.615-.409 1.076-.409 1.076s-.103 0-.41.461c-.256.512-.205.973-.205.973s-.307.358-.461.666c-.153.307-.051.82-.051.82s-.461.41-.563.82c-.205.82.255.82.255.82s-.358.306-.358 1.023c-.051.666.41.82.41.82s-.308.358-.103.768c.154.358.666.512.666.512s-.102.564.103.77c.153.152.461.511.819.716.154.205.308.41.461.563 1.383 1.127 2.868.564 3.483.256-.512-.616-.666-5.533.871-8.453z"/><path fill="#f89c44" d="M110.058 81.417c-1.537 2.92-1.383 7.837-.871 8.452h.052s10.858 8.4 16.288 1.28c5.429-7.069-6.761-16.186-6.761-16.186s-3.176.256-6.454 3.38c-.871.821-2.254 3.074-2.254 3.074z"/><path fill="#d14e3f" d="M141.112 81.417s1.383-2.253 2.254-3.073c3.278-3.125 6.454-3.38 6.454-3.38s.563-1.896-1.076-3.228c-.307-.255-.819-.409-1.383-.46-.051-.05-.205-.103-.307-.154a.57.57 0 0 0-.512.153c-.103 0-.205.052-.308.052-.153-.103-.41-.205-.768-.052-.513.103-.717.411-.82.513-.051.051-.102.051-.102.051-.103-.103-.308-.307-.82 0-.41.205-.666.768-.666.768s-.512.052-.768.257-.41.512-.512.615c-.103.051-.512.153-.871.46-.358.41-.358.513-.358.513s-.461.102-.922.666c-.461.512-.41.614-.41.666 0 0 0 .051-.051.051-.103 0-.615.205-1.025.666-.256-.359-1.332-1.844-2.1-2.203-.409-.153-.819 0-1.178.205-.512-.153-1.127-.614-1.69-1.844l-2.203-1.946c0 .102.051.205.051.256.205 1.741.769 4.252 2.459 5.481v.051s-.256 1.075.666 1.23c.563.102 2.356 1.024 2.356 1.024l1.127-1.435c-.103.256-.052.36-.052.41l-.461.615.052-.102s-.154-.103-.564.563c-.461.615-.409 1.076-.409 1.076s-.103 0-.41.461c-.256.512-.205.973-.205.973s-.307.358-.461.666c-.153.307-.051.82-.051.82s-.461.41-.563.82c-.205.82.255.82.255.82s-.358.306-.358 1.023c-.051.666.41.82.41.82s-.308.358-.103.768c.154.358.666.512.666.512s-.102.564.103.77c.153.152.461.511.819.716.154.205.308.41.461.563 1.383 1.127 2.868.564 3.483.256-.512-.616-.666-5.533.871-8.453z"/><path fill="#f89c44" d="M141.112 81.417c-1.537 2.92-1.383 7.837-.871 8.452h.052s10.858 8.4 16.288 1.28c5.429-7.069-6.761-16.186-6.761-16.186s-3.176.256-6.454 3.38c-.871.821-2.254 3.074-2.254 3.074z"/><path fill="#d14e3f" d="M16.893 112.472s1.383-2.253 2.254-3.073c3.278-3.125 6.454-3.381 6.454-3.381s.563-1.895-1.076-3.227c-.307-.255-.819-.409-1.383-.461-.051-.05-.205-.102-.307-.153a.57.57 0 0 0-.512.153c-.103 0-.205.052-.308.052-.153-.103-.41-.205-.768-.052-.513.103-.717.411-.82.513-.051.051-.102.051-.102.051-.103-.103-.308-.307-.82 0-.41.205-.666.768-.666.768s-.512.052-.768.257-.41.512-.512.615c-.103.051-.512.153-.871.46-.358.41-.358.513-.358.513s-.461.102-.922.666c-.461.512-.41.614-.41.666 0 0 0 .051-.051.051-.103 0-.615.205-1.025.666-.256-.359-1.332-1.844-2.1-2.203-.409-.153-.819 0-1.178.205-.512-.153-1.127-.614-1.69-1.844l-2.203-1.946c0 .102.051.205.051.256.205 1.741.769 4.252 2.459 5.481v.051s-.256 1.075.666 1.229c.563.103 2.356 1.025 2.356 1.025l1.127-1.435c-.103.256-.052.359-.052.41l-.461.615.052-.102s-.154-.103-.564.563c-.461.615-.409 1.076-.409 1.076s-.103 0-.41.461c-.256.512-.205.973-.205.973s-.307.358-.461.666c-.153.307-.051.82-.051.82s-.461.409-.563.819c-.205.82.255.82.255.82s-.358.307-.358 1.024c-.051.666.41.819.41.819s-.308.359-.103.769c.154.358.666.512.666.512s-.102.564.103.769c.153.153.461.512.819.717.154.205.308.409.461.563 1.383 1.127 2.868.564 3.483.256-.512-.616-.666-5.533.871-8.453z"/><path fill="#f89c44" d="M16.893 112.472c-1.537 2.92-1.383 7.837-.871 8.452h.052s10.858 8.4 16.288 1.28c5.429-7.069-6.761-16.186-6.761-16.186s-3.176.256-6.454 3.38c-.871.821-2.254 3.074-2.254 3.074z"/><path fill="#d14e3f" d="M47.948 112.472s1.383-2.253 2.254-3.073c3.278-3.125 6.454-3.381 6.454-3.381s.563-1.895-1.076-3.227c-.307-.255-.82-.409-1.383-.461-.051-.05-.205-.102-.307-.153a.57.57 0 0 0-.512.153c-.103 0-.205.052-.308.052-.153-.103-.41-.205-.768-.052-.513.103-.717.411-.82.513-.051.051-.102.051-.102.051-.103-.103-.308-.307-.82 0-.41.205-.666.768-.666.768s-.512.052-.768.257-.41.512-.512.615c-.103.051-.512.153-.871.46-.358.41-.358.513-.358.513s-.461.102-.922.666c-.461.512-.41.614-.41.666 0 0 0 .051-.051.051-.103 0-.615.205-1.025.666-.256-.359-1.332-1.844-2.1-2.203-.41-.153-.82 0-1.178.205-.512-.153-1.127-.614-1.69-1.844l-2.203-1.946c0 .102.05.205.05.256.206 1.741.77 4.252 2.46 5.481v.051s-.256 1.075.666 1.229c.563.103 2.356 1.025 2.356 1.025l1.127-1.435c-.103.256-.052.359-.052.41l-.461.615.052-.102s-.154-.103-.564.563c-.461.615-.41 1.076-.41 1.076s-.102 0-.41.461c-.255.512-.204.973-.204.973s-.307.358-.461.666c-.153.307-.051.82-.051.82s-.461.409-.563.819c-.205.82.255.82.255.82s-.358.307-.358 1.024c-.051.666.41.819.41.819s-.308.359-.103.769c.154.358.666.512.666.512s-.102.564.103.769c.153.153.46.512.819.717.154.205.308.409.46.563 1.384 1.127 2.869.564 3.484.256-.512-.616-.666-5.533.87-8.453z"/><path fill="#f89c44" d="M47.948 112.472c-1.537 2.92-1.383 7.837-.871 8.452h.052s10.858 8.4 16.288 1.28c5.429-7.069-6.761-16.186-6.761-16.186s-3.176.256-6.454 3.38c-.871.821-2.254 3.074-2.254 3.074z"/><path fill="#d14e3f" d="M79.003 112.472s1.383-2.253 2.254-3.073c3.278-3.125 6.454-3.381 6.454-3.381s.563-1.895-1.076-3.227c-.307-.255-.82-.409-1.383-.461-.051-.05-.205-.102-.307-.153a.57.57 0 0 0-.512.153c-.103 0-.205.052-.308.052-.153-.103-.41-.205-.768-.052-.513.103-.717.411-.82.513-.051.051-.102.051-.102.051-.103-.103-.308-.307-.82 0-.41.205-.666.768-.666.768s-.512.052-.768.257-.41.512-.512.615c-.103.051-.512.153-.871.46-.358.41-.358.513-.358.513s-.461.102-.922.666c-.461.512-.41.614-.41.666 0 0 0 .051-.051.051-.103 0-.615.205-1.025.666-.256-.359-1.332-1.844-2.1-2.203-.41-.153-.82 0-1.178.205-.512-.153-1.127-.614-1.69-1.844l-2.203-1.946c0 .102.05.205.05.256.206 1.741.77 4.252 2.46 5.481v.051s-.256 1.075.666 1.229c.563.103 2.356 1.025 2.356 1.025l1.127-1.435c-.103.256-.052.359-.052.41l-.461.615.052-.102s-.154-.103-.564.563c-.461.615-.41 1.076-.41 1.076s-.102 0-.41.461c-.255.512-.204.973-.204.973s-.307.358-.461.666c-.153.307-.051.82-.051.82s-.461.409-.563.819c-.205.82.255.82.255.82s-.358.307-.358 1.024c-.051.666.41.819.41.819s-.308.359-.103.769c.154.358.666.512.666.512s-.102.564.103.769c.153.153.46.512.819.717.154.205.308.409.46.563 1.384 1.127 2.869.564 3.484.256-.512-.616-.666-5.533.87-8.453z"/><path fill="#f89c44" d="M79.003 112.472c-1.537 2.92-1.383 7.837-.871 8.452h.052s10.858 8.4 16.288 1.28c5.429-7.069-6.761-16.186-6.761-16.186s-3.176.256-6.454 3.38c-.871.821-2.254 3.074-2.254 3.074z"/><path fill="#d14e3f" d="M110.058 112.472s1.383-2.253 2.254-3.073c3.278-3.125 6.454-3.381 6.454-3.381s.563-1.895-1.076-3.227c-.307-.255-.819-.409-1.383-.461-.051-.05-.205-.102-.307-.153a.57.57 0 0 0-.512.153c-.103 0-.205.052-.308.052-.153-.103-.41-.205-.768-.052-.513.103-.717.411-.82.513-.051.051-.102.051-.102.051-.103-.103-.308-.307-.82 0-.41.205-.666.768-.666.768s-.512.052-.768.257-.41.512-.512.615c-.103.051-.512.153-.871.46-.358.41-.358.513-.358.513s-.461.102-.922.666c-.461.512-.41.614-.41.666 0 0 0 .051-.051.051-.103 0-.615.205-1.025.666-.256-.359-1.332-1.844-2.1-2.203-.409-.153-.819 0-1.178.205-.512-.153-1.127-.614-1.69-1.844l-2.203-1.946c0 .102.05.205.05.256.206 1.741.77 4.252 2.46 5.481v.051s-.256 1.075.666 1.229c.563.103 2.356 1.025 2.356 1.025l1.127-1.435c-.103.256-.052.359-.052.41l-.461.615.052-.102s-.154-.103-.564.563c-.461.615-.409 1.076-.409 1.076s-.103 0-.41.461c-.256.512-.205.973-.205.973s-.307.358-.461.666c-.153.307-.051.82-.051.82s-.461.409-.563.819c-.205.82.255.82.255.82s-.358.307-.358 1.024c-.051.666.41.819.41.819s-.308.359-.103.769c.154.358.666.512.666.512s-.102.564.103.769c.153.153.461.512.819.717.154.205.308.409.461.563 1.383 1.127 2.868.564 3.483.256-.512-.616-.666-5.533.871-8.453z"/><path fill="#f89c44" d="M110.058 112.472c-1.537 2.92-1.383 7.837-.871 8.452h.052s10.858 8.4 16.288 1.28c5.429-7.069-6.761-16.186-6.761-16.186s-3.176.256-6.454 3.38c-.871.821-2.254 3.074-2.254 3.074z"/><path fill="#d14e3f" d="M141.112 112.472s1.383-2.253 2.254-3.073c3.278-3.125 6.454-3.381 6.454-3.381s.563-1.895-1.076-3.227c-.307-.255-.819-.409-1.383-.461-.051-.05-.205-.102-.307-.153a.57.57 0 0 0-.512.153c-.103 0-.205.052-.308.052-.153-.103-.41-.205-.768-.052-.513.103-.717.411-.82.513-.051.051-.102.051-.102.051-.103-.103-.308-.307-.82 0-.41.205-.666.768-.666.768s-.512.052-.768.257-.41.512-.512.615c-.103.051-.512.153-.871.46-.358.41-.358.513-.358.513s-.461.102-.922.666c-.461.512-.41.614-.41.666 0 0 0 .051-.051.051-.103 0-.615.205-1.025.666-.256-.359-1.332-1.844-2.1-2.203-.409-.153-.819 0-1.178.205-.512-.153-1.127-.614-1.69-1.844l-2.203-1.946c0 .102.051.205.051.256.205 1.741.769 4.252 2.459 5.481v.051s-.256 1.075.666 1.229c.563.103 2.356 1.025 2.356 1.025l1.127-1.435c-.103.256-.052.359-.052.41l-.461.615.052-.102s-.154-.103-.564.563c-.461.615-.409 1.076-.409 1.076s-.103 0-.41.461c-.256.512-.205.973-.205.973s-.307.358-.461.666c-.153.307-.051.82-.051.82s-.461.409-.563.819c-.205.82.255.82.255.82s-.358.307-.358 1.024c-.051.666.41.819.41.819s-.308.359-.103.769c.154.358.666.512.666.512s-.102.564.103.769c.153.153.461.512.819.717.154.205.308.409.461.563 1.383 1.127 2.868.564 3.483.256-.512-.616-.666-5.533.871-8.453z"/><path fill="#f89c44" d="M141.112 112.472c-1.537 2.92-1.383 7.837-.871 8.452h.052s10.858 8.4 16.288 1.28c5.429-7.069-6.761-16.186-6.761-16.186s-3.176.256-6.454 3.38c-.871.821-2.254 3.074-2.254 3.074z"/></svg>
