<svg xmlns="http://www.w3.org/2000/svg" width="125" height="150" viewBox="0 0 124.99999999999999 150"><path fill="#543b78" stroke="#543b78" d="M27.717 47.283V27.717h19.566v19.566zM52.717 47.283V27.717h19.566v19.566zM77.717 47.283V27.717h19.566v19.566zM102.717 47.283V27.717h19.566v19.566zM27.717 72.283V52.717h19.566v19.566zM52.717 72.283V52.717h19.566v19.566zM77.717 72.283V52.717h19.566v19.566zM102.717 72.283V52.717h19.566v19.566zM27.717 97.283V77.717h19.566v19.566zM52.717 97.283V77.717h19.566v19.566zM77.717 97.283V77.717h19.566v19.566zM102.717 97.283V77.717h19.566v19.566zM27.717 122.283v-19.566h19.566v19.566zM52.717 122.283v-19.566h19.566v19.566zM77.717 122.283v-19.566h19.566v19.566zM102.717 122.283v-19.566h19.566v19.566zM27.717 147.283v-19.566h19.566v19.566zM52.717 147.283v-19.566h19.566v19.566zM77.717 147.283v-19.566h19.566v19.566zM102.717 147.283v-19.566h19.566v19.566z" stroke-width="2" stroke-dasharray="0"/><path fill="none" stroke="gray" d="M26.63 50H137.5M26.63 75H137.5M26.63 100H137.5M26.63 125H137.5" stroke-width="2" stroke-opacity=".5"/></svg>
