<svg xmlns="http://www.w3.org/2000/svg" width="180" height="150" viewBox="0 0 180 150"><path fill="#d14e3f" d="M41.754 44.087s1.336-2.178 2.177-2.97c3.167-3.017 6.235-3.264 6.235-3.264s.544-1.831-1.039-3.119c-.297-.247-.792-.395-1.336-.445-.049-.049-.198-.099-.297-.148a.55.55 0 0 0-.495.148c-.099 0-.198.05-.297.05-.148-.1-.396-.198-.742-.05-.495.1-.693.396-.792.495-.049.05-.099.05-.099.05-.099-.1-.297-.297-.791 0-.397.197-.644.742-.644.742s-.495.05-.742.248-.396.495-.495.593c-.099.05-.494.148-.841.445-.346.396-.346.495-.346.495s-.446.1-.891.645c-.445.493-.396.592-.396.642 0 0 0 .05-.049.05-.099 0-.594.198-.99.643-.247-.347-1.287-1.782-2.029-2.128-.395-.148-.791 0-1.138.198-.495-.147-1.088-.593-1.633-1.78l-2.127-1.882c0 .1.049.2.049.248.198 1.682.742 4.107 2.375 5.294v.05s-.247 1.04.643 1.188c.545.1 2.276.99 2.276.99l1.089-1.386c-.099.248-.05.346-.05.397l-.445.592.05-.099s-.149-.099-.545.546c-.445.593-.395 1.038-.395 1.038s-.099 0-.396.445c-.248.495-.198.94-.198.94s-.297.346-.445.645c-.149.295-.05.791-.05.791s-.445.395-.544.791c-.198.792.247.792.247.792s-.346.297-.346.99c-.05.644.396.791.396.791s-.297.347-.099.744c.148.346.643.494.643.494s-.099.544.099.742c.148.148.445.495.792.693.148.197.297.395.445.544 1.336 1.088 2.771.544 3.365.247-.495-.595-.643-5.345.841-8.166z"/><path fill="#f89c44" d="M41.754 44.087c-1.484 2.82-1.336 7.57-.841 8.164h.049s10.49 8.114 15.736 1.236c5.244-6.828-6.532-15.636-6.532-15.636s-3.068.248-6.235 3.267c-.841.791-2.177 2.968-2.177 2.968m0 0z"/><path fill="#d14e3f" d="M71.754 44.087s1.336-2.178 2.177-2.97c3.167-3.017 6.235-3.264 6.235-3.264s.544-1.831-1.039-3.119c-.297-.247-.792-.395-1.336-.445-.049-.049-.198-.099-.297-.148a.55.55 0 0 0-.495.148c-.099 0-.198.05-.297.05-.148-.1-.396-.198-.742-.05-.495.1-.693.396-.792.495-.049.05-.099.05-.099.05-.099-.1-.297-.297-.791 0-.397.197-.644.742-.644.742s-.495.05-.742.248-.396.495-.495.593c-.099.05-.494.148-.841.445-.346.396-.346.495-.346.495s-.446.1-.891.645c-.445.493-.396.592-.396.642 0 0 0 .05-.049.05-.099 0-.594.198-.99.643-.247-.347-1.287-1.782-2.029-2.128-.395-.148-.791 0-1.138.198-.495-.147-1.088-.593-1.633-1.78l-2.127-1.882c0 .1.049.2.049.248.198 1.682.742 4.107 2.375 5.294v.05s-.247 1.04.643 1.188c.545.1 2.276.99 2.276.99l1.089-1.386c-.099.248-.05.346-.05.397l-.445.592.05-.099s-.149-.099-.545.546c-.445.593-.395 1.038-.395 1.038s-.099 0-.396.445c-.248.495-.198.94-.198.94s-.297.346-.445.645c-.149.295-.05.791-.05.791s-.445.395-.544.791c-.198.792.247.792.247.792s-.346.297-.346.99c-.05.644.396.791.396.791s-.297.347-.099.744c.148.346.643.494.643.494s-.099.544.099.742c.148.148.445.495.792.693.148.197.297.395.445.544 1.336 1.088 2.771.544 3.365.247-.495-.595-.643-5.345.841-8.166z"/><path fill="#f89c44" d="M71.754 44.087c-1.484 2.82-1.336 7.57-.841 8.164h.049s10.49 8.114 15.736 1.236c5.244-6.828-6.532-15.636-6.532-15.636s-3.068.248-6.235 3.267c-.841.791-2.177 2.968-2.177 2.968z"/><path fill="#d14e3f" d="M101.754 44.087s1.336-2.178 2.177-2.97c3.167-3.017 6.235-3.264 6.235-3.264s.544-1.831-1.039-3.119c-.297-.247-.792-.395-1.336-.445-.049-.049-.198-.099-.297-.148a.55.55 0 0 0-.495.148c-.099 0-.198.05-.297.05-.148-.1-.396-.198-.742-.05-.495.1-.693.396-.792.495-.049.05-.099.05-.099.05-.099-.1-.297-.297-.791 0-.397.197-.644.742-.644.742s-.495.05-.742.248-.396.495-.495.593c-.099.05-.494.148-.841.445-.346.396-.346.495-.346.495s-.446.1-.891.645c-.445.493-.396.592-.396.642 0 0 0 .05-.049.05-.099 0-.594.198-.99.643-.247-.347-1.287-1.782-2.029-2.128-.395-.148-.791 0-1.138.198-.495-.147-1.088-.593-1.633-1.78l-2.127-1.882c0 .1.049.2.049.248.198 1.682.742 4.107 2.375 5.294v.05s-.247 1.04.643 1.188c.545.1 2.276.99 2.276.99l1.089-1.386c-.099.248-.05.346-.05.397l-.445.592.05-.099s-.149-.099-.545.546c-.445.593-.395 1.038-.395 1.038s-.099 0-.396.445c-.248.495-.198.94-.198.94s-.297.346-.445.645c-.149.295-.05.791-.05.791s-.445.395-.544.791c-.198.792.247.792.247.792s-.346.297-.346.99c-.05.644.396.791.396.791s-.297.347-.099.744c.148.346.643.494.643.494s-.099.544.099.742c.148.148.445.495.792.693.148.197.297.395.445.544 1.336 1.088 2.771.544 3.365.247-.495-.595-.643-5.345.841-8.166z"/><path fill="#f89c44" d="M101.754 44.087c-1.484 2.82-1.336 7.57-.841 8.164h.049s10.49 8.114 15.736 1.236c5.244-6.828-6.532-15.636-6.532-15.636s-3.068.248-6.235 3.267c-.841.791-2.177 2.968-2.177 2.968z"/><path fill="#d14e3f" d="M131.754 44.087s1.336-2.178 2.177-2.97c3.167-3.017 6.235-3.264 6.235-3.264s.544-1.831-1.039-3.119c-.297-.247-.792-.395-1.336-.445-.049-.049-.198-.099-.297-.148a.55.55 0 0 0-.495.148c-.099 0-.198.05-.297.05-.148-.1-.396-.198-.742-.05-.495.1-.693.396-.792.495-.049.05-.099.05-.099.05-.099-.1-.297-.297-.791 0-.397.197-.644.742-.644.742s-.495.05-.742.248-.396.495-.495.593c-.099.05-.494.148-.841.445-.346.396-.346.495-.346.495s-.446.1-.891.645c-.445.493-.396.592-.396.642 0 0 0 .05-.049.05-.099 0-.594.198-.99.643-.247-.347-1.287-1.782-2.029-2.128-.395-.148-.791 0-1.138.198-.495-.147-1.088-.593-1.633-1.78l-2.127-1.882c0 .1.049.2.049.248.198 1.682.742 4.107 2.375 5.294v.05s-.247 1.04.643 1.188c.545.1 2.276.99 2.276.99l1.089-1.386c-.099.248-.05.346-.05.397l-.445.592.05-.099s-.149-.099-.545.546c-.445.593-.395 1.038-.395 1.038s-.099 0-.396.445c-.248.495-.198.94-.198.94s-.297.346-.445.645c-.149.295-.05.791-.05.791s-.445.395-.544.791c-.198.792.247.792.247.792s-.346.297-.346.99c-.05.644.396.791.396.791s-.297.347-.099.744c.148.346.643.494.643.494s-.099.544.099.742c.148.148.445.495.792.693.148.197.297.395.445.544 1.336 1.088 2.771.544 3.365.247-.495-.595-.643-5.345.841-8.166z"/><path fill="#f89c44" d="M131.754 44.087c-1.484 2.82-1.336 7.57-.841 8.164h.049s10.49 8.114 15.736 1.236c5.244-6.828-6.532-15.636-6.532-15.636s-3.068.248-6.235 3.267c-.841.791-2.177 2.968-2.177 2.968z"/><path fill="#d14e3f" d="M161.754 44.087s1.336-2.178 2.177-2.97c3.167-3.017 6.235-3.264 6.235-3.264s.544-1.831-1.039-3.119c-.297-.247-.792-.395-1.336-.445-.049-.049-.198-.099-.297-.148a.55.55 0 0 0-.495.148c-.099 0-.198.05-.297.05-.148-.1-.396-.198-.742-.05-.495.1-.693.396-.792.495-.049.05-.099.05-.099.05-.099-.1-.297-.297-.791 0-.397.197-.644.742-.644.742s-.495.05-.742.248-.396.495-.495.593c-.099.05-.494.148-.841.445-.346.396-.346.495-.346.495s-.446.1-.891.645c-.445.493-.396.592-.396.642 0 0 0 .05-.049.05-.099 0-.594.198-.99.643-.247-.347-1.287-1.782-2.029-2.128-.395-.148-.791 0-1.138.198-.495-.147-1.088-.593-1.633-1.78l-2.127-1.882c0 .1.049.2.049.248.198 1.682.742 4.107 2.375 5.294v.05s-.247 1.04.643 1.188c.545.1 2.276.99 2.276.99l1.089-1.386c-.099.248-.05.346-.05.397l-.445.592.05-.099s-.149-.099-.545.546c-.445.593-.395 1.038-.395 1.038s-.099 0-.396.445c-.248.495-.198.94-.198.94s-.297.346-.445.645c-.149.295-.05.791-.05.791s-.445.395-.544.791c-.198.792.247.792.247.792s-.346.297-.346.99c-.05.644.396.791.396.791s-.297.347-.099.744c.148.346.643.494.643.494s-.099.544.099.742c.148.148.445.495.792.693.148.197.297.395.445.544 1.336 1.088 2.771.544 3.365.247-.495-.595-.643-5.345.841-8.166z"/><path fill="#f89c44" d="M161.754 44.087c-1.484 2.82-1.336 7.57-.841 8.164h.049s10.49 8.114 15.736 1.236c5.244-6.828-6.532-15.636-6.532-15.636s-3.068.248-6.235 3.267c-.841.791-2.177 2.968-2.177 2.968z"/><path fill="#d14e3f" d="M41.754 74.087s1.336-2.178 2.177-2.97c3.167-3.017 6.235-3.264 6.235-3.264s.544-1.831-1.039-3.118c-.297-.248-.792-.397-1.336-.445-.049-.05-.198-.1-.297-.149a.55.55 0 0 0-.495.148c-.099 0-.198.05-.297.05-.148-.1-.396-.198-.742-.05-.495.1-.693.397-.792.495-.049.05-.099.05-.099.05-.099-.1-.297-.297-.791 0-.397.197-.644.742-.644.742s-.495.05-.742.248-.396.495-.495.594c-.099.05-.494.147-.841.444-.346.397-.346.496-.346.496s-.446.099-.891.643c-.445.495-.396.593-.396.643 0 0 0 .05-.049.05-.099 0-.594.198-.99.644-.247-.347-1.287-1.782-2.029-2.128-.395-.148-.791 0-1.138.198-.495-.148-1.088-.594-1.633-1.782l-2.127-1.88c0 .1.049.198.049.247.198 1.682.742 4.107 2.375 5.294v.05s-.247 1.04.643 1.188c.545.1 2.276.99 2.276.99l1.089-1.386c-.099.247-.05.346-.05.396l-.445.593.05-.099s-.149-.099-.545.545c-.445.595-.395 1.04-.395 1.04s-.099 0-.396.445c-.248.494-.198.94-.198.94s-.297.346-.445.643c-.149.296-.05.792-.05.792s-.445.395-.544.791c-.198.792.247.792.247.792s-.346.297-.346.99c-.05.644.396.791.396.791s-.297.347-.099.743c.148.346.643.494.643.494s-.099.545.099.743c.148.148.445.495.792.692.148.199.297.397.445.546 1.336 1.088 2.771.543 3.365.246-.495-.594-.643-5.344.841-8.165z"/><path fill="#f89c44" d="M41.754 74.087c-1.484 2.82-1.336 7.57-.841 8.164h.049s10.49 8.114 15.736 1.236c5.244-6.828-6.532-15.635-6.532-15.635s-3.068.246-6.235 3.266c-.841.791-2.177 2.969-2.177 2.969m0 0z"/><path fill="#d14e3f" d="M71.754 74.087s1.336-2.178 2.177-2.97c3.167-3.017 6.235-3.264 6.235-3.264s.544-1.831-1.039-3.118c-.297-.248-.792-.397-1.336-.445-.049-.05-.198-.1-.297-.149a.55.55 0 0 0-.495.148c-.099 0-.198.05-.297.05-.148-.1-.396-.198-.742-.05-.495.1-.693.397-.792.495-.049.05-.099.05-.099.05-.099-.1-.297-.297-.791 0-.397.197-.644.742-.644.742s-.495.05-.742.248-.396.495-.495.594c-.099.05-.494.147-.841.444-.346.397-.346.496-.346.496s-.446.099-.891.643c-.445.495-.396.593-.396.643 0 0 0 .05-.049.05-.099 0-.594.198-.99.644-.247-.347-1.287-1.782-2.029-2.128-.395-.148-.791 0-1.138.198-.495-.148-1.088-.594-1.633-1.782l-2.127-1.88c0 .1.049.198.049.247.198 1.682.742 4.107 2.375 5.294v.05s-.247 1.04.643 1.188c.545.1 2.276.99 2.276.99l1.089-1.386c-.099.247-.05.346-.05.396l-.445.593.05-.099s-.149-.099-.545.545c-.445.595-.395 1.04-.395 1.04s-.099 0-.396.445c-.248.494-.198.94-.198.94s-.297.346-.445.643c-.149.296-.05.792-.05.792s-.445.395-.544.791c-.198.792.247.792.247.792s-.346.297-.346.99c-.05.644.396.791.396.791s-.297.347-.099.743c.148.346.643.494.643.494s-.099.545.099.743c.148.148.445.495.792.692.148.199.297.397.445.546 1.336 1.088 2.771.543 3.365.246-.495-.594-.643-5.344.841-8.165z"/><path fill="#f89c44" d="M71.754 74.087c-1.484 2.82-1.336 7.57-.841 8.164h.049s10.49 8.114 15.736 1.236c5.244-6.828-6.532-15.635-6.532-15.635s-3.068.246-6.235 3.266c-.841.791-2.177 2.969-2.177 2.969z"/><path fill="#d14e3f" d="M101.754 74.087s1.336-2.178 2.177-2.97c3.167-3.017 6.235-3.264 6.235-3.264s.544-1.831-1.039-3.118c-.297-.248-.792-.397-1.336-.445-.049-.05-.198-.1-.297-.149a.55.55 0 0 0-.495.148c-.099 0-.198.05-.297.05-.148-.1-.396-.198-.742-.05-.495.1-.693.397-.792.495-.049.05-.099.05-.099.05-.099-.1-.297-.297-.791 0-.397.197-.644.742-.644.742s-.495.05-.742.248-.396.495-.495.594c-.099.05-.494.147-.841.444-.346.397-.346.496-.346.496s-.446.099-.891.643c-.445.495-.396.593-.396.643 0 0 0 .05-.049.05-.099 0-.594.198-.99.644-.247-.347-1.287-1.782-2.029-2.128-.395-.148-.791 0-1.138.198-.495-.148-1.088-.594-1.633-1.782l-2.127-1.88c0 .1.049.198.049.247.198 1.682.742 4.107 2.375 5.294v.05s-.247 1.04.643 1.188c.545.1 2.276.99 2.276.99l1.089-1.386c-.099.247-.05.346-.05.396l-.445.593.05-.099s-.149-.099-.545.545c-.445.595-.395 1.04-.395 1.04s-.099 0-.396.445c-.248.494-.198.94-.198.94s-.297.346-.445.643c-.149.296-.05.792-.05.792s-.445.395-.544.791c-.198.792.247.792.247.792s-.346.297-.346.99c-.05.644.396.791.396.791s-.297.347-.099.743c.148.346.643.494.643.494s-.099.545.099.743c.148.148.445.495.792.692.148.199.297.397.445.546 1.336 1.088 2.771.543 3.365.246-.495-.594-.643-5.344.841-8.165m0 0z"/><path fill="#f89c44" d="M101.754 74.087c-1.484 2.82-1.336 7.57-.841 8.164h.049s10.49 8.114 15.736 1.236c5.244-6.828-6.532-15.635-6.532-15.635s-3.068.246-6.235 3.266c-.841.791-2.177 2.969-2.177 2.969z"/><path fill="#d14e3f" d="M131.754 74.087s1.336-2.178 2.177-2.97c3.167-3.017 6.235-3.264 6.235-3.264s.544-1.831-1.039-3.118c-.297-.248-.792-.397-1.336-.445-.049-.05-.198-.1-.297-.149a.55.55 0 0 0-.495.148c-.099 0-.198.05-.297.05-.148-.1-.396-.198-.742-.05-.495.1-.693.397-.792.495-.049.05-.099.05-.099.05-.099-.1-.297-.297-.791 0-.397.197-.644.742-.644.742s-.495.05-.742.248-.396.495-.495.594c-.099.05-.494.147-.841.444-.346.397-.346.496-.346.496s-.446.099-.891.643c-.445.495-.396.593-.396.643 0 0 0 .05-.049.05-.099 0-.594.198-.99.644-.247-.347-1.287-1.782-2.029-2.128-.395-.148-.791 0-1.138.198-.495-.148-1.088-.594-1.633-1.782l-2.127-1.88c0 .1.049.198.049.247.198 1.682.742 4.107 2.375 5.294v.05s-.247 1.04.643 1.188c.545.1 2.276.99 2.276.99l1.089-1.386c-.099.247-.05.346-.05.396l-.445.593.05-.099s-.149-.099-.545.545c-.445.595-.395 1.04-.395 1.04s-.099 0-.396.445c-.248.494-.198.94-.198.94s-.297.346-.445.643c-.149.296-.05.792-.05.792s-.445.395-.544.791c-.198.792.247.792.247.792s-.346.297-.346.99c-.05.644.396.791.396.791s-.297.347-.099.743c.148.346.643.494.643.494s-.099.545.099.743c.148.148.445.495.792.692.148.199.297.397.445.546 1.336 1.088 2.771.543 3.365.246-.495-.594-.643-5.344.841-8.165z"/><path fill="#f89c44" d="M131.754 74.087c-1.484 2.82-1.336 7.57-.841 8.164h.049s10.49 8.114 15.736 1.236c5.244-6.828-6.532-15.635-6.532-15.635s-3.068.246-6.235 3.266c-.841.791-2.177 2.969-2.177 2.969z"/><path fill="#d14e3f" d="M161.754 74.087s1.336-2.178 2.177-2.97c3.167-3.017 6.235-3.264 6.235-3.264s.544-1.831-1.039-3.118c-.297-.248-.792-.397-1.336-.445-.049-.05-.198-.1-.297-.149a.55.55 0 0 0-.495.148c-.099 0-.198.05-.297.05-.148-.1-.396-.198-.742-.05-.495.1-.693.397-.792.495-.049.05-.099.05-.099.05-.099-.1-.297-.297-.791 0-.397.197-.644.742-.644.742s-.495.05-.742.248-.396.495-.495.594c-.099.05-.494.147-.841.444-.346.397-.346.496-.346.496s-.446.099-.891.643c-.445.495-.396.593-.396.643 0 0 0 .05-.049.05-.099 0-.594.198-.99.644-.247-.347-1.287-1.782-2.029-2.128-.395-.148-.791 0-1.138.198-.495-.148-1.088-.594-1.633-1.782l-2.127-1.88c0 .1.049.198.049.247.198 1.682.742 4.107 2.375 5.294v.05s-.247 1.04.643 1.188c.545.1 2.276.99 2.276.99l1.089-1.386c-.099.247-.05.346-.05.396l-.445.593.05-.099s-.149-.099-.545.545c-.445.595-.395 1.04-.395 1.04s-.099 0-.396.445c-.248.494-.198.94-.198.94s-.297.346-.445.643c-.149.296-.05.792-.05.792s-.445.395-.544.791c-.198.792.247.792.247.792s-.346.297-.346.99c-.05.644.396.791.396.791s-.297.347-.099.743c.148.346.643.494.643.494s-.099.545.099.743c.148.148.445.495.792.692.148.199.297.397.445.546 1.336 1.088 2.771.543 3.365.246-.495-.594-.643-5.344.841-8.165z"/><path fill="#f89c44" d="M161.754 74.087c-1.484 2.82-1.336 7.57-.841 8.164h.049s10.49 8.114 15.736 1.236c5.244-6.828-6.532-15.635-6.532-15.635s-3.068.246-6.235 3.266c-.841.791-2.177 2.969-2.177 2.969z"/><path fill="#d14e3f" d="M41.754 104.086s1.336-2.177 2.177-2.969c3.167-3.017 6.235-3.264 6.235-3.264s.544-1.831-1.039-3.118c-.297-.248-.792-.397-1.336-.445-.049-.05-.198-.1-.297-.149a.55.55 0 0 0-.495.148c-.099 0-.198.05-.297.05-.148-.1-.396-.198-.742-.05-.495.1-.693.397-.792.495-.049.05-.099.05-.099.05-.099-.1-.297-.297-.791 0-.397.197-.644.742-.644.742s-.495.05-.742.248-.396.495-.495.594c-.099.05-.494.147-.841.444-.346.397-.346.496-.346.496s-.446.099-.891.643c-.445.495-.396.593-.396.643 0 0 0 .05-.049.05-.099 0-.594.198-.99.644-.247-.347-1.287-1.782-2.029-2.128-.395-.148-.791 0-1.138.198-.495-.148-1.088-.594-1.633-1.782l-2.127-1.88c0 .1.049.199.049.248.198 1.681.742 4.106 2.375 5.293v.05s-.247 1.039.643 1.188c.545.099 2.276.989 2.276.989l1.089-1.386c-.099.248-.05.347-.05.397l-.445.593.05-.099s-.149-.099-.545.545c-.445.594-.395 1.039-.395 1.039s-.099 0-.396.445c-.248.495-.198.94-.198.94s-.297.346-.445.644c-.149.296-.05.792-.05.792s-.445.395-.544.791c-.198.792.247.792.247.792s-.346.297-.346.99c-.05.643.396.791.396.791s-.297.346-.099.743c.148.346.643.494.643.494s-.099.545.099.743c.148.148.445.495.792.692.148.198.297.396.445.545 1.336 1.088 2.771.544 3.365.247-.495-.595-.643-5.345.841-8.166z"/><path fill="#f89c44" d="M41.754 104.086c-1.484 2.821-1.336 7.571-.841 8.165h.049s10.49 8.114 15.736 1.236c5.244-6.828-6.532-15.635-6.532-15.635s-3.068.246-6.235 3.265c-.841.792-2.177 2.969-2.177 2.969m0 0z"/><path fill="#d14e3f" d="M71.754 104.086s1.336-2.177 2.177-2.969c3.167-3.017 6.235-3.264 6.235-3.264s.544-1.831-1.039-3.118c-.297-.248-.792-.397-1.336-.445-.049-.05-.198-.1-.297-.149a.55.55 0 0 0-.495.148c-.099 0-.198.05-.297.05-.148-.1-.396-.198-.742-.05-.495.1-.693.397-.792.495-.049.05-.099.05-.099.05-.099-.1-.297-.297-.791 0-.397.197-.644.742-.644.742s-.495.05-.742.248-.396.495-.495.594c-.099.05-.494.147-.841.444-.346.397-.346.496-.346.496s-.446.099-.891.643c-.445.495-.396.593-.396.643 0 0 0 .05-.049.05-.099 0-.594.198-.99.644-.247-.347-1.287-1.782-2.029-2.128-.395-.148-.791 0-1.138.198-.495-.148-1.088-.594-1.633-1.782l-2.127-1.88c0 .1.049.199.049.248.198 1.681.742 4.106 2.375 5.293v.05s-.247 1.039.643 1.188c.545.099 2.276.989 2.276.989l1.089-1.386c-.099.248-.05.347-.05.397l-.445.593.05-.099s-.149-.099-.545.545c-.445.594-.395 1.039-.395 1.039s-.099 0-.396.445c-.248.495-.198.94-.198.94s-.297.346-.445.644c-.149.296-.05.792-.05.792s-.445.395-.544.791c-.198.792.247.792.247.792s-.346.297-.346.99c-.05.643.396.791.396.791s-.297.346-.099.743c.148.346.643.494.643.494s-.099.545.099.743c.148.148.445.495.792.692.148.198.297.396.445.545 1.336 1.088 2.771.544 3.365.247-.495-.595-.643-5.345.841-8.166z"/><path fill="#f89c44" d="M71.754 104.086c-1.484 2.821-1.336 7.571-.841 8.165h.049s10.49 8.114 15.736 1.236c5.244-6.828-6.532-15.635-6.532-15.635s-3.068.246-6.235 3.265c-.841.792-2.177 2.969-2.177 2.969z"/><path fill="#d14e3f" d="M101.754 104.086s1.336-2.177 2.177-2.969c3.167-3.017 6.235-3.264 6.235-3.264s.544-1.831-1.039-3.118c-.297-.248-.792-.397-1.336-.445-.049-.05-.198-.1-.297-.149a.55.55 0 0 0-.495.148c-.099 0-.198.05-.297.05-.148-.1-.396-.198-.742-.05-.495.1-.693.397-.792.495-.049.05-.099.05-.099.05-.099-.1-.297-.297-.791 0-.397.197-.644.742-.644.742s-.495.05-.742.248-.396.495-.495.594c-.099.05-.494.147-.841.444-.346.397-.346.496-.346.496s-.446.099-.891.643c-.445.495-.396.593-.396.643 0 0 0 .05-.049.05-.099 0-.594.198-.99.644-.247-.347-1.287-1.782-2.029-2.128-.395-.148-.791 0-1.138.198-.495-.148-1.088-.594-1.633-1.782l-2.127-1.88c0 .1.049.199.049.248.198 1.681.742 4.106 2.375 5.293v.05s-.247 1.039.643 1.188c.545.099 2.276.989 2.276.989l1.089-1.386c-.099.248-.05.347-.05.397l-.445.593.05-.099s-.149-.099-.545.545c-.445.594-.395 1.039-.395 1.039s-.099 0-.396.445c-.248.495-.198.94-.198.94s-.297.346-.445.644c-.149.296-.05.792-.05.792s-.445.395-.544.791c-.198.792.247.792.247.792s-.346.297-.346.99c-.05.643.396.791.396.791s-.297.346-.099.743c.148.346.643.494.643.494s-.099.545.099.743c.148.148.445.495.792.692.148.198.297.396.445.545 1.336 1.088 2.771.544 3.365.247-.495-.595-.643-5.345.841-8.166m0 0z"/><path fill="#f89c44" d="M101.754 104.086c-1.484 2.821-1.336 7.571-.841 8.165h.049s10.49 8.114 15.736 1.236c5.244-6.828-6.532-15.635-6.532-15.635s-3.068.246-6.235 3.265c-.841.792-2.177 2.969-2.177 2.969z"/><path fill="#d14e3f" d="M131.754 104.086s1.336-2.177 2.177-2.969c3.167-3.017 6.235-3.264 6.235-3.264s.544-1.831-1.039-3.118c-.297-.248-.792-.397-1.336-.445-.049-.05-.198-.1-.297-.149a.55.55 0 0 0-.495.148c-.099 0-.198.05-.297.05-.148-.1-.396-.198-.742-.05-.495.1-.693.397-.792.495-.049.05-.099.05-.099.05-.099-.1-.297-.297-.791 0-.397.197-.644.742-.644.742s-.495.05-.742.248-.396.495-.495.594c-.099.05-.494.147-.841.444-.346.397-.346.496-.346.496s-.446.099-.891.643c-.445.495-.396.593-.396.643 0 0 0 .05-.049.05-.099 0-.594.198-.99.644-.247-.347-1.287-1.782-2.029-2.128-.395-.148-.791 0-1.138.198-.495-.148-1.088-.594-1.633-1.782l-2.127-1.88c0 .1.049.199.049.248.198 1.681.742 4.106 2.375 5.293v.05s-.247 1.039.643 1.188c.545.099 2.276.989 2.276.989l1.089-1.386c-.099.248-.05.347-.05.397l-.445.593.05-.099s-.149-.099-.545.545c-.445.594-.395 1.039-.395 1.039s-.099 0-.396.445c-.248.495-.198.94-.198.94s-.297.346-.445.644c-.149.296-.05.792-.05.792s-.445.395-.544.791c-.198.792.247.792.247.792s-.346.297-.346.99c-.05.643.396.791.396.791s-.297.346-.099.743c.148.346.643.494.643.494s-.099.545.099.743c.148.148.445.495.792.692.148.198.297.396.445.545 1.336 1.088 2.771.544 3.365.247-.495-.595-.643-5.345.841-8.166z"/><path fill="#f89c44" d="M131.754 104.086c-1.484 2.821-1.336 7.571-.841 8.165h.049s10.49 8.114 15.736 1.236c5.244-6.828-6.532-15.635-6.532-15.635s-3.068.246-6.235 3.265c-.841.792-2.177 2.969-2.177 2.969z"/><path fill="#d14e3f" d="M161.754 104.086s1.336-2.177 2.177-2.969c3.167-3.017 6.235-3.264 6.235-3.264s.544-1.831-1.039-3.118c-.297-.248-.792-.397-1.336-.445-.049-.05-.198-.1-.297-.149a.55.55 0 0 0-.495.148c-.099 0-.198.05-.297.05-.148-.1-.396-.198-.742-.05-.495.1-.693.397-.792.495-.049.05-.099.05-.099.05-.099-.1-.297-.297-.791 0-.397.197-.644.742-.644.742s-.495.05-.742.248-.396.495-.495.594c-.099.05-.494.147-.841.444-.346.397-.346.496-.346.496s-.446.099-.891.643c-.445.495-.396.593-.396.643 0 0 0 .05-.049.05-.099 0-.594.198-.99.644-.247-.347-1.287-1.782-2.029-2.128-.395-.148-.791 0-1.138.198-.495-.148-1.088-.594-1.633-1.782l-2.127-1.88c0 .1.049.199.049.248.198 1.681.742 4.106 2.375 5.293v.05s-.247 1.039.643 1.188c.545.099 2.276.989 2.276.989l1.089-1.386c-.099.248-.05.347-.05.397l-.445.593.05-.099s-.149-.099-.545.545c-.445.594-.395 1.039-.395 1.039s-.099 0-.396.445c-.248.495-.198.94-.198.94s-.297.346-.445.644c-.149.296-.05.792-.05.792s-.445.395-.544.791c-.198.792.247.792.247.792s-.346.297-.346.99c-.05.643.396.791.396.791s-.297.346-.099.743c.148.346.643.494.643.494s-.099.545.099.743c.148.148.445.495.792.692.148.198.297.396.445.545 1.336 1.088 2.771.544 3.365.247-.495-.595-.643-5.345.841-8.166z"/><path fill="#f89c44" d="M161.754 104.086c-1.484 2.821-1.336 7.571-.841 8.165h.049s10.49 8.114 15.736 1.236c5.244-6.828-6.532-15.635-6.532-15.635s-3.068.246-6.235 3.265c-.841.792-2.177 2.969-2.177 2.969z"/><path fill="#d14e3f" d="M41.754 134.086s1.336-2.177 2.177-2.969c3.167-3.018 6.235-3.265 6.235-3.265s.544-1.831-1.039-3.118c-.297-.247-.792-.396-1.336-.445-.049-.049-.198-.099-.297-.148a.55.55 0 0 0-.495.148c-.099 0-.198.049-.297.049-.148-.099-.396-.198-.742-.049-.495.099-.693.396-.792.495-.049.049-.099.049-.099.049-.099-.099-.297-.296-.791 0-.397.198-.644.743-.644.743s-.495.049-.742.247-.396.495-.495.594c-.099.05-.494.148-.841.445-.346.396-.346.495-.346.495s-.446.099-.891.644c-.445.494-.396.593-.396.643 0 0 0 .05-.049.05-.099 0-.594.198-.99.643-.247-.347-1.287-1.782-2.029-2.128-.395-.148-.791 0-1.138.198-.495-.148-1.088-.594-1.633-1.781l-2.127-1.881c0 .1.049.199.049.248.198 1.682.742 4.107 2.375 5.294v.05s-.247 1.039.643 1.188c.545.099 2.276.989 2.276.989l1.089-1.386c-.099.248-.05.347-.05.397l-.445.593.05-.099s-.149-.099-.545.545c-.445.594-.395 1.039-.395 1.039s-.099 0-.396.445c-.248.495-.198.94-.198.94s-.297.346-.445.644c-.149.296-.05.792-.05.792s-.445.395-.544.791c-.198.792.247.792.247.792s-.346.297-.346.99c-.05.643.396.791.396.791s-.297.346-.099.743c.148.346.643.494.643.494s-.099.545.099.743c.148.148.445.495.792.692.148.198.297.396.445.545 1.336 1.088 2.771.544 3.365.247-.495-.595-.643-5.345.841-8.166z"/><path fill="#f89c44" d="M41.754 134.086c-1.484 2.821-1.336 7.571-.841 8.165h.049s10.49 8.114 15.736 1.236c5.244-6.828-6.532-15.636-6.532-15.636s-3.068.247-6.235 3.266c-.841.792-2.177 2.969-2.177 2.969z"/><path fill="#d14e3f" d="M71.754 134.086s1.336-2.177 2.177-2.969c3.167-3.018 6.235-3.265 6.235-3.265s.544-1.831-1.039-3.118c-.297-.247-.792-.396-1.336-.445-.049-.049-.198-.099-.297-.148a.55.55 0 0 0-.495.148c-.099 0-.198.049-.297.049-.148-.099-.396-.198-.742-.049-.495.099-.693.396-.792.495-.049.049-.099.049-.099.049-.099-.099-.297-.296-.791 0-.397.198-.644.743-.644.743s-.495.049-.742.247-.396.495-.495.594c-.099.05-.494.148-.841.445-.346.396-.346.495-.346.495s-.446.099-.891.644c-.445.494-.396.593-.396.643 0 0 0 .05-.049.05-.099 0-.594.198-.99.643-.247-.347-1.287-1.782-2.029-2.128-.395-.148-.791 0-1.138.198-.495-.148-1.088-.594-1.633-1.781l-2.127-1.881c0 .1.049.199.049.248.198 1.682.742 4.107 2.375 5.294v.05s-.247 1.039.643 1.188c.545.099 2.276.989 2.276.989l1.089-1.386c-.099.248-.05.347-.05.397l-.445.593.05-.099s-.149-.099-.545.545c-.445.594-.395 1.039-.395 1.039s-.099 0-.396.445c-.248.495-.198.94-.198.94s-.297.346-.445.644c-.149.296-.05.792-.05.792s-.445.395-.544.791c-.198.792.247.792.247.792s-.346.297-.346.99c-.05.643.396.791.396.791s-.297.346-.099.743c.148.346.643.494.643.494s-.099.545.099.743c.148.148.445.495.792.692.148.198.297.396.445.545 1.336 1.088 2.771.544 3.365.247-.495-.595-.643-5.345.841-8.166z"/><path fill="#f89c44" d="M71.754 134.086c-1.484 2.821-1.336 7.571-.841 8.165h.049s10.49 8.114 15.736 1.236c5.244-6.828-6.532-15.636-6.532-15.636s-3.068.247-6.235 3.266c-.841.792-2.177 2.969-2.177 2.969z"/><path fill="#d14e3f" d="M101.754 134.086s1.336-2.177 2.177-2.969c3.167-3.018 6.235-3.265 6.235-3.265s.544-1.831-1.039-3.118c-.297-.247-.792-.396-1.336-.445-.049-.049-.198-.099-.297-.148a.55.55 0 0 0-.495.148c-.099 0-.198.049-.297.049-.148-.099-.396-.198-.742-.049-.495.099-.693.396-.792.495-.049.049-.099.049-.099.049-.099-.099-.297-.296-.791 0-.397.198-.644.743-.644.743s-.495.049-.742.247-.396.495-.495.594c-.099.05-.494.148-.841.445-.346.396-.346.495-.346.495s-.446.099-.891.644c-.445.494-.396.593-.396.643 0 0 0 .05-.049.05-.099 0-.594.198-.99.643-.247-.347-1.287-1.782-2.029-2.128-.395-.148-.791 0-1.138.198-.495-.148-1.088-.594-1.633-1.781l-2.127-1.881c0 .1.049.199.049.248.198 1.682.742 4.107 2.375 5.294v.05s-.247 1.039.643 1.188c.545.099 2.276.989 2.276.989l1.089-1.386c-.099.248-.05.347-.05.397l-.445.593.05-.099s-.149-.099-.545.545c-.445.594-.395 1.039-.395 1.039s-.099 0-.396.445c-.248.495-.198.94-.198.94s-.297.346-.445.644c-.149.296-.05.792-.05.792s-.445.395-.544.791c-.198.792.247.792.247.792s-.346.297-.346.99c-.05.643.396.791.396.791s-.297.346-.099.743c.148.346.643.494.643.494s-.099.545.099.743c.148.148.445.495.792.692.148.198.297.396.445.545 1.336 1.088 2.771.544 3.365.247-.495-.595-.643-5.345.841-8.166m0 0z"/><path fill="#f89c44" d="M101.754 134.086c-1.484 2.821-1.336 7.571-.841 8.165h.049s10.49 8.114 15.736 1.236c5.244-6.828-6.532-15.636-6.532-15.636s-3.068.247-6.235 3.266c-.841.792-2.177 2.969-2.177 2.969z"/><path fill="#d14e3f" d="M131.754 134.086s1.336-2.177 2.177-2.969c3.167-3.018 6.235-3.265 6.235-3.265s.544-1.831-1.039-3.118c-.297-.247-.792-.396-1.336-.445-.049-.049-.198-.099-.297-.148a.55.55 0 0 0-.495.148c-.099 0-.198.049-.297.049-.148-.099-.396-.198-.742-.049-.495.099-.693.396-.792.495-.049.049-.099.049-.099.049-.099-.099-.297-.296-.791 0-.397.198-.644.743-.644.743s-.495.049-.742.247-.396.495-.495.594c-.099.05-.494.148-.841.445-.346.396-.346.495-.346.495s-.446.099-.891.644c-.445.494-.396.593-.396.643 0 0 0 .05-.049.05-.099 0-.594.198-.99.643-.247-.347-1.287-1.782-2.029-2.128-.395-.148-.791 0-1.138.198-.495-.148-1.088-.594-1.633-1.781l-2.127-1.881c0 .1.049.199.049.248.198 1.682.742 4.107 2.375 5.294v.05s-.247 1.039.643 1.188c.545.099 2.276.989 2.276.989l1.089-1.386c-.099.248-.05.347-.05.397l-.445.593.05-.099s-.149-.099-.545.545c-.445.594-.395 1.039-.395 1.039s-.099 0-.396.445c-.248.495-.198.94-.198.94s-.297.346-.445.644c-.149.296-.05.792-.05.792s-.445.395-.544.791c-.198.792.247.792.247.792s-.346.297-.346.99c-.05.643.396.791.396.791s-.297.346-.099.743c.148.346.643.494.643.494s-.099.545.099.743c.148.148.445.495.792.692.148.198.297.396.445.545 1.336 1.088 2.771.544 3.365.247-.495-.595-.643-5.345.841-8.166z"/><path fill="#f89c44" d="M131.754 134.086c-1.484 2.821-1.336 7.571-.841 8.165h.049s10.49 8.114 15.736 1.236c5.244-6.828-6.532-15.636-6.532-15.636s-3.068.247-6.235 3.266c-.841.792-2.177 2.969-2.177 2.969z"/><path fill="#d14e3f" d="M161.754 134.086s1.336-2.177 2.177-2.969c3.167-3.018 6.235-3.265 6.235-3.265s.544-1.831-1.039-3.118c-.297-.247-.792-.396-1.336-.445-.049-.049-.198-.099-.297-.148a.55.55 0 0 0-.495.148c-.099 0-.198.049-.297.049-.148-.099-.396-.198-.742-.049-.495.099-.693.396-.792.495-.049.049-.099.049-.099.049-.099-.099-.297-.296-.791 0-.397.198-.644.743-.644.743s-.495.049-.742.247-.396.495-.495.594c-.099.05-.494.148-.841.445-.346.396-.346.495-.346.495s-.446.099-.891.644c-.445.494-.396.593-.396.643 0 0 0 .05-.049.05-.099 0-.594.198-.99.643-.247-.347-1.287-1.782-2.029-2.128-.395-.148-.791 0-1.138.198-.495-.148-1.088-.594-1.633-1.781l-2.127-1.881c0 .1.049.199.049.248.198 1.682.742 4.107 2.375 5.294v.05s-.247 1.039.643 1.188c.545.099 2.276.989 2.276.989l1.089-1.386c-.099.248-.05.347-.05.397l-.445.593.05-.099s-.149-.099-.545.545c-.445.594-.395 1.039-.395 1.039s-.099 0-.396.445c-.248.495-.198.94-.198.94s-.297.346-.445.644c-.149.296-.05.792-.05.792s-.445.395-.544.791c-.198.792.247.792.247.792s-.346.297-.346.99c-.05.643.396.791.396.791s-.297.346-.099.743c.148.346.643.494.643.494s-.099.545.099.743c.148.148.445.495.792.692.148.198.297.396.445.545 1.336 1.088 2.771.544 3.365.247-.495-.595-.643-5.345.841-8.166z"/><path fill="#f89c44" d="M161.754 134.086c-1.484 2.821-1.336 7.571-.841 8.165h.049s10.49 8.114 15.736 1.236c5.244-6.828-6.532-15.636-6.532-15.636s-3.068.247-6.235 3.266c-.841.792-2.177 2.969-2.177 2.969z"/><path fill="none" stroke="gray" d="M31.956 60H195M31.956 90H195M31.956 120H195" stroke-width="2" stroke-opacity=".5"/></svg>
