<svg xmlns="http://www.w3.org/2000/svg" width="170" height="85" viewBox="0 0 170 85"><defs><radialGradient id="a" fx=".5" fy=".5"><stop offset="0%" stop-color="#fee6d3"/><stop offset="29.16%" stop-color="#fee4d0"/><stop offset="52.23%" stop-color="#fedec6"/><stop offset="73.2%" stop-color="#fdd3b6"/><stop offset="92.83%" stop-color="#fcc4a0"/><stop offset="100%" stop-color="#fbbd97"/></radialGradient><radialGradient id="b" fx=".5" fy=".5"><stop offset="0%" stop-color="#ffe600"/><stop offset="29.16%" stop-color="#ffe400"/><stop offset="52.23%" stop-color="#fd0"/><stop offset="73.2%" stop-color="#ffd100"/><stop offset="92.83%" stop-color="#fec00f"/><stop offset="100%" stop-color="#fdb913"/></radialGradient><radialGradient id="c" fx=".5" fy=".5"><stop offset="0%" stop-color="#fee6d3"/><stop offset="29.16%" stop-color="#fee4d0"/><stop offset="52.23%" stop-color="#fedec6"/><stop offset="73.2%" stop-color="#fdd3b6"/><stop offset="92.83%" stop-color="#fcc4a0"/><stop offset="100%" stop-color="#fbbd97"/></radialGradient><radialGradient id="d" fx=".5" fy=".5"><stop offset="0%" stop-color="#ffe600"/><stop offset="29.16%" stop-color="#ffe400"/><stop offset="52.23%" stop-color="#fd0"/><stop offset="73.2%" stop-color="#ffd100"/><stop offset="92.83%" stop-color="#fec00f"/><stop offset="100%" stop-color="#fdb913"/></radialGradient><radialGradient id="e" fx=".5" fy=".5"><stop offset="0%" stop-color="#fee6d3"/><stop offset="29.16%" stop-color="#fee4d0"/><stop offset="52.23%" stop-color="#fedec6"/><stop offset="73.2%" stop-color="#fdd3b6"/><stop offset="92.83%" stop-color="#fcc4a0"/><stop offset="100%" stop-color="#fbbd97"/></radialGradient><radialGradient id="f" fx=".5" fy=".5"><stop offset="0%" stop-color="#ffe600"/><stop offset="29.16%" stop-color="#ffe400"/><stop offset="52.23%" stop-color="#fd0"/><stop offset="73.2%" stop-color="#ffd100"/><stop offset="92.83%" stop-color="#fec00f"/><stop offset="100%" stop-color="#fdb913"/></radialGradient><radialGradient id="g" fx=".5" fy=".5"><stop offset="0%" stop-color="#fee6d3"/><stop offset="29.16%" stop-color="#fee4d0"/><stop offset="52.23%" stop-color="#fedec6"/><stop offset="73.2%" stop-color="#fdd3b6"/><stop offset="92.83%" stop-color="#fcc4a0"/><stop offset="100%" stop-color="#fbbd97"/></radialGradient><radialGradient id="h" fx=".5" fy=".5"><stop offset="0%" stop-color="#ffe600"/><stop offset="29.16%" stop-color="#ffe400"/><stop offset="52.23%" stop-color="#fd0"/><stop offset="73.2%" stop-color="#ffd100"/><stop offset="92.83%" stop-color="#fec00f"/><stop offset="100%" stop-color="#fdb913"/></radialGradient><radialGradient id="i" fx=".5" fy=".5"><stop offset="0%" stop-color="#fee6d3"/><stop offset="29.16%" stop-color="#fee4d0"/><stop offset="52.23%" stop-color="#fedec6"/><stop offset="73.2%" stop-color="#fdd3b6"/><stop offset="92.83%" stop-color="#fcc4a0"/><stop offset="100%" stop-color="#fbbd97"/></radialGradient><radialGradient id="j" fx=".5" fy=".5"><stop offset="0%" stop-color="#ffe600"/><stop offset="29.16%" stop-color="#ffe400"/><stop offset="52.23%" stop-color="#fd0"/><stop offset="73.2%" stop-color="#ffd100"/><stop offset="92.83%" stop-color="#fec00f"/><stop offset="100%" stop-color="#fdb913"/></radialGradient><radialGradient id="k" fx=".5" fy=".5"><stop offset="0%" stop-color="#fee6d3"/><stop offset="29.16%" stop-color="#fee4d0"/><stop offset="52.23%" stop-color="#fedec6"/><stop offset="73.2%" stop-color="#fdd3b6"/><stop offset="92.83%" stop-color="#fcc4a0"/><stop offset="100%" stop-color="#fbbd97"/></radialGradient><radialGradient id="l" fx=".5" fy=".5"><stop offset="0%" stop-color="#ffe600"/><stop offset="29.16%" stop-color="#ffe400"/><stop offset="52.23%" stop-color="#fd0"/><stop offset="73.2%" stop-color="#ffd100"/><stop offset="92.83%" stop-color="#fec00f"/><stop offset="100%" stop-color="#fdb913"/></radialGradient><radialGradient id="m" fx=".5" fy=".5"><stop offset="0%" stop-color="#fee6d3"/><stop offset="29.16%" stop-color="#fee4d0"/><stop offset="52.23%" stop-color="#fedec6"/><stop offset="73.2%" stop-color="#fdd3b6"/><stop offset="92.83%" stop-color="#fcc4a0"/><stop offset="100%" stop-color="#fbbd97"/></radialGradient><radialGradient id="n" fx=".5" fy=".5"><stop offset="0%" stop-color="#ffe600"/><stop offset="29.16%" stop-color="#ffe400"/><stop offset="52.23%" stop-color="#fd0"/><stop offset="73.2%" stop-color="#ffd100"/><stop offset="92.83%" stop-color="#fec00f"/><stop offset="100%" stop-color="#fdb913"/></radialGradient><radialGradient id="o" fx=".5" fy=".5"><stop offset="0%" stop-color="#fee6d3"/><stop offset="29.16%" stop-color="#fee4d0"/><stop offset="52.23%" stop-color="#fedec6"/><stop offset="73.2%" stop-color="#fdd3b6"/><stop offset="92.83%" stop-color="#fcc4a0"/><stop offset="100%" stop-color="#fbbd97"/></radialGradient><radialGradient id="p" fx=".5" fy=".5"><stop offset="0%" stop-color="#ffe600"/><stop offset="29.16%" stop-color="#ffe400"/><stop offset="52.23%" stop-color="#fd0"/><stop offset="73.2%" stop-color="#ffd100"/><stop offset="92.83%" stop-color="#fec00f"/><stop offset="100%" stop-color="#fdb913"/></radialGradient><radialGradient id="q" fx=".5" fy=".5"><stop offset="0%" stop-color="#fee6d3"/><stop offset="29.16%" stop-color="#fee4d0"/><stop offset="52.23%" stop-color="#fedec6"/><stop offset="73.2%" stop-color="#fdd3b6"/><stop offset="92.83%" stop-color="#fcc4a0"/><stop offset="100%" stop-color="#fbbd97"/></radialGradient><radialGradient id="r" fx=".5" fy=".5"><stop offset="0%" stop-color="#ffe600"/><stop offset="29.16%" stop-color="#ffe400"/><stop offset="52.23%" stop-color="#fd0"/><stop offset="73.2%" stop-color="#ffd100"/><stop offset="92.83%" stop-color="#fec00f"/><stop offset="100%" stop-color="#fdb913"/></radialGradient><radialGradient id="s" fx=".5" fy=".5"><stop offset="0%" stop-color="#fee6d3"/><stop offset="29.16%" stop-color="#fee4d0"/><stop offset="52.23%" stop-color="#fedec6"/><stop offset="73.2%" stop-color="#fdd3b6"/><stop offset="92.83%" stop-color="#fcc4a0"/><stop offset="100%" stop-color="#fbbd97"/></radialGradient><radialGradient id="t" fx=".5" fy=".5"><stop offset="0%" stop-color="#ffe600"/><stop offset="29.16%" stop-color="#ffe400"/><stop offset="52.23%" stop-color="#fd0"/><stop offset="73.2%" stop-color="#ffd100"/><stop offset="92.83%" stop-color="#fec00f"/><stop offset="100%" stop-color="#fdb913"/></radialGradient></defs><path fill="#d78334" d="M42.993 49.593c.424.384 2.751.937 4.203-.943.946-1.225-1.258-.592-1.76-.662-.519-.074-.928-.978-1.884-.751-1.034.245-1.478 1.525-.559 2.356zM45.208 51.055s.648-.84.888-.648c.146.117-.096 1.656-.336 2.136-.24.48-1.152-.096-1.152-.096l.6-1.392z"/><path fill="#f89c44" d="M40.178 50.7s-3.13-1.034-3.621-4.082c-.608-3.763-5.124-2.89-6.3-1.972 0 0 2.476 1.187 2.653 4.625.147 2.86 4.46 4.371 6.863 2.013l.405-.585z"/><path fill="#f4953f" d="M41.414 47.31s-3.332 3.482-2.526 5.555c.724 1.86 5.465 2.112 6.75 1.883.639-.115 1.562-3.5 1.056-3.674-.454-.154-1.01.69-1.01.69s-.905-4.632-2.742-4.77c-1.836-.137-1.528.315-1.528.315z"/><path fill="url(#a)" d="M45.684 51.763s-.89-4.546-2.693-4.76l.194 1.875s1.17 2.58 2.499 2.885z"/><path fill="#d14e3f" d="M43.218 47.053c-.538-.044-1.22-.107-1.702.326-.792.71-.569 2.045.635 2.336.338.082 1.683-.179 2.616-.84-.39-.85-.906-1.609-1.549-1.822z"/><path fill="#fedcbd" d="M43.208 47.052c-.069-.006-.14-.01-.213-.017l.191 1.843s.115.255.315.615a4.83 4.83 0 0 0 1.265-.618c-.392-.853-.91-1.615-1.558-1.823z"/><path fill="url(#b)" d="M38.526 34.751s2.275-1.695 4.997-1.383c0 0 1.036-2.607 2.732-3.187 0 0 1.139 2.012 1.176 3.871 0 0 3.454 4.58 3.72 6.856 0 0 2.231-.045 2.722-.312 0 0 .852-.364.214.423-1.065 1.31-4.207 4.19-7.218 5.332-3.654 1.387-6.96 1.962-9.368 0-2.285-1.86-2.052-8.209-2.052-8.209s-1.294-2.632-1.34-4.595c1.444-.367 4.417 1.204 4.417 1.204z"/><path fill="#f89c44" d="M38.526 34.751s2.383-1.824 5.105-1.512c0 0 .928-2.478 2.624-3.058 0 0 1.139 2.012 1.176 3.871 0 0 3.454 4.58 3.72 6.856 0 0 2.231-.045 2.721-.312 0 0 .852-.364.215.423-1.065 1.31-4.207 4.19-7.219 5.332-3.653 1.387-6.959 1.962-9.369 0-2.284-1.86-2.052-8.209-2.052-8.209s-1.293-2.632-1.338-4.595c1.444-.367 4.417 1.204 4.417 1.204z"/><path fill="#f4dbc5" d="M35.095 44.328l-.064.823-.688-.138v.735l-.781-.046v.735l-.826-.092-.3.788c-.769-1.81-2.18-2.487-2.18-2.487.815-.636 3.228-1.248 4.839-.318z"/><path fill="#f4953f" d="M41.331 49.593c.424.384 2.751.937 4.203-.943.946-1.225-1.258-.592-1.76-.662-.519-.074-.928-.978-1.884-.751-1.034.245-1.478 1.525-.559 2.356z"/><path fill="#f4dbc5" d="M44.731 33.313s1.594.1 2.701.739c-.038-1.86-1.176-3.871-1.176-3.871s-1.598 1.296-1.525 3.132z"/><ellipse cx="44.337" cy="41.448" rx=".433" ry=".719" fill="#304454"/><ellipse cx="48.399" cy="39.993" rx=".324" ry=".719" fill="#304454" transform="rotate(-10.532 48.399 39.993)"/><path fill="#d78334" d="M45.247 31.056s.06-.16.176-.406c-.15.119-.29.25-.423.389.082.006.164.007.247.017zM54.031 40.541c-1.47 1.327-3.535 2.863-5.546 3.626-3.653 1.387-6.959 1.962-9.369 0-2.284-1.86-2.052-8.209-2.052-8.209s-.476-.97-.86-2.172c-.754-.233-1.537-.38-2.094-.239.045 1.963 1.338 4.594 1.338 4.594s-.232 6.348 2.052 8.21c2.41 1.962 5.716 1.387 9.37 0 3.011-1.144 6.153-4.02 7.217-5.333.453-.559.155-.537-.056-.477z" opacity=".5"/><path fill="none" stroke="#414042" d="M40.223 46.895s-.774.423-1.126.95M39.554 46.684s-.88.246-1.196.528" stroke-width=".156" stroke-linecap="round" stroke-linejoin="round"/><path fill="#f4dbc5" d="M34.148 33.635c-.012.026-.02.053-.03.08.11 1.941 1.33 4.426 1.33 4.426.617-1.337 2.078-2.38 2.078-2.38-.91-1.177-3.378-2.126-3.378-2.126z"/><ellipse cx="53.874" cy="40.73" rx=".87" ry=".736" fill="#304454"/><path fill="#d78334" d="M71.327 49.593c.424.384 2.75.937 4.203-.943.946-1.225-1.258-.592-1.761-.662-.518-.074-.927-.978-1.883-.751-1.034.245-1.478 1.525-.56 2.356zM73.541 51.055s.648-.84.888-.648c.146.117-.096 1.656-.336 2.136-.24.48-1.152-.096-1.152-.096l.6-1.392z"/><path fill="#f89c44" d="M68.512 50.7s-3.131-1.034-3.622-4.082c-.607-3.763-5.123-2.89-6.3-1.972 0 0 2.477 1.187 2.654 4.625.146 2.86 4.46 4.371 6.862 2.013l.406-.585z"/><path fill="#f4953f" d="M69.747 47.31s-3.332 3.482-2.526 5.555c.724 1.86 5.465 2.112 6.75 1.883.64-.115 1.562-3.5 1.056-3.674-.454-.154-1.01.69-1.01.69s-.905-4.632-2.742-4.77c-1.836-.137-1.528.315-1.528.315z"/><path fill="url(#c)" d="M74.017 51.763s-.89-4.546-2.693-4.76l.194 1.875s1.17 2.58 2.5 2.885z"/><path fill="#d14e3f" d="M71.551 47.053c-.538-.044-1.22-.107-1.702.326-.792.71-.569 2.045.635 2.336.338.082 1.683-.179 2.616-.84-.39-.85-.906-1.609-1.549-1.822z"/><path fill="#fedcbd" d="M71.541 47.052c-.069-.006-.14-.01-.213-.017l.191 1.843s.115.255.315.615a4.83 4.83 0 0 0 1.265-.618c-.392-.853-.91-1.615-1.558-1.823z"/><path fill="url(#d)" d="M66.86 34.751s2.275-1.695 4.997-1.383c0 0 1.036-2.607 2.732-3.187 0 0 1.138 2.012 1.176 3.871 0 0 3.453 4.58 3.72 6.856 0 0 2.23-.045 2.722-.312 0 0 .85-.364.213.423-1.064 1.31-4.206 4.19-7.217 5.332-3.654 1.387-6.96 1.962-9.37 0-2.284-1.86-2.051-8.209-2.051-8.209s-1.294-2.632-1.34-4.595c1.444-.367 4.418 1.204 4.418 1.204z"/><path fill="#f89c44" d="M66.86 34.751s2.383-1.824 5.105-1.512c0 0 .928-2.478 2.624-3.058 0 0 1.138 2.012 1.176 3.871 0 0 3.453 4.58 3.72 6.856 0 0 2.23-.045 2.72-.312 0 0 .853-.364.215.423-1.064 1.31-4.206 4.19-7.218 5.332-3.653 1.387-6.96 1.962-9.37 0-2.283-1.86-2.051-8.209-2.051-8.209s-1.293-2.632-1.338-4.595c1.443-.367 4.417 1.204 4.417 1.204z"/><path fill="#f4dbc5" d="M63.428 44.328l-.064.823-.688-.138v.735l-.78-.046v.735l-.827-.092-.3.788c-.769-1.81-2.18-2.487-2.18-2.487.815-.636 3.228-1.248 4.84-.318z"/><path fill="#f4953f" d="M69.665 49.593c.424.384 2.75.937 4.203-.943.946-1.225-1.258-.592-1.761-.662-.518-.074-.927-.978-1.883-.751-1.034.245-1.478 1.525-.56 2.356z"/><path fill="#f4dbc5" d="M73.064 33.313s1.594.1 2.701.739c-.038-1.86-1.176-3.871-1.176-3.871s-1.598 1.296-1.525 3.132z"/><ellipse cx="72.671" cy="41.448" rx=".433" ry=".719" fill="#304454"/><ellipse cx="76.732" cy="39.993" rx=".324" ry=".719" fill="#304454" transform="rotate(-10.532 76.732 39.993)"/><path fill="#d78334" d="M73.58 31.056s.06-.16.176-.406c-.15.119-.29.25-.423.389.082.006.164.007.247.017zM82.364 40.541c-1.47 1.327-3.535 2.863-5.546 3.626-3.653 1.387-6.959 1.962-9.369 0-2.284-1.86-2.052-8.209-2.052-8.209s-.476-.97-.86-2.172c-.754-.233-1.537-.38-2.094-.239.045 1.963 1.338 4.594 1.338 4.594s-.232 6.348 2.052 8.21c2.41 1.962 5.716 1.387 9.37 0 3.011-1.144 6.153-4.02 7.217-5.333.453-.559.155-.537-.056-.477z" opacity=".5"/><path fill="none" stroke="#414042" d="M68.556 46.895s-.774.423-1.126.95M67.888 46.684s-.88.246-1.196.528" stroke-width=".156" stroke-linecap="round" stroke-linejoin="round"/><path fill="#f4dbc5" d="M62.481 33.635c-.012.026-.02.053-.03.08.11 1.941 1.33 4.426 1.33 4.426.617-1.337 2.078-2.38 2.078-2.38-.91-1.177-3.378-2.126-3.378-2.126z"/><ellipse cx="82.207" cy="40.73" rx=".87" ry=".736" fill="#304454"/><path fill="#d78334" d="M99.66 49.593c.424.384 2.751.937 4.203-.943.946-1.225-1.258-.592-1.761-.662-.518-.074-.927-.978-1.883-.751-1.034.245-1.478 1.525-.559 2.356zM101.875 51.055s.648-.84.888-.648c.146.117-.096 1.656-.336 2.136-.24.48-1.152-.096-1.152-.096l.6-1.392z"/><path fill="#f89c44" d="M96.845 50.7s-3.13-1.034-3.622-4.082c-.607-3.763-5.123-2.89-6.3-1.972 0 0 2.477 1.187 2.654 4.625.146 2.86 4.46 4.371 6.862 2.013l.406-.585z"/><path fill="#f4953f" d="M98.08 47.31s-3.331 3.482-2.525 5.555c.724 1.86 5.465 2.112 6.75 1.883.639-.115 1.562-3.5 1.056-3.674-.454-.154-1.01.69-1.01.69s-.905-4.632-2.742-4.77c-1.836-.137-1.528.315-1.528.315z"/><path fill="url(#e)" d="M102.351 51.763s-.89-4.546-2.693-4.76l.194 1.875s1.17 2.58 2.499 2.885z"/><path fill="#d14e3f" d="M99.885 47.053c-.538-.044-1.22-.107-1.702.326-.792.71-.57 2.045.635 2.336.338.082 1.683-.179 2.616-.84-.39-.85-.906-1.609-1.55-1.822z"/><path fill="#fedcbd" d="M99.875 47.052c-.07-.006-.141-.01-.213-.017l.19 1.843s.116.255.316.615a4.83 4.83 0 0 0 1.265-.618c-.392-.853-.911-1.615-1.558-1.823z"/><path fill="url(#f)" d="M95.193 34.751s2.275-1.695 4.997-1.383c0 0 1.036-2.607 2.732-3.187 0 0 1.138 2.012 1.176 3.871 0 0 3.453 4.58 3.72 6.856 0 0 2.231-.045 2.722-.312 0 0 .851-.364.213.423-1.064 1.31-4.206 4.19-7.217 5.332-3.654 1.387-6.96 1.962-9.369 0-2.285-1.86-2.052-8.209-2.052-8.209s-1.294-2.632-1.339-4.595c1.443-.367 4.417 1.204 4.417 1.204z"/><path fill="#f89c44" d="M95.193 34.751s2.383-1.824 5.105-1.512c0 0 .928-2.478 2.624-3.058 0 0 1.138 2.012 1.176 3.871 0 0 3.453 4.58 3.72 6.856 0 0 2.231-.045 2.721-.312 0 0 .852-.364.214.423-1.064 1.31-4.206 4.19-7.218 5.332-3.653 1.387-6.959 1.962-9.369 0-2.284-1.86-2.052-8.209-2.052-8.209s-1.293-2.632-1.338-4.595c1.443-.367 4.417 1.204 4.417 1.204z"/><path fill="#f4dbc5" d="M91.762 44.328l-.064.823-.688-.138v.735l-.781-.046v.735l-.826-.092-.3.788c-.77-1.81-2.18-2.487-2.18-2.487.815-.636 3.228-1.248 4.839-.318z"/><path fill="#f4953f" d="M97.998 49.593c.424.384 2.751.937 4.203-.943.946-1.225-1.258-.592-1.761-.662-.518-.074-.927-.978-1.883-.751-1.034.245-1.478 1.525-.559 2.356z"/><path fill="#f4dbc5" d="M101.398 33.313s1.594.1 2.701.739c-.038-1.86-1.176-3.871-1.176-3.871s-1.598 1.296-1.525 3.132z"/><ellipse cx="101.004" cy="41.448" rx=".433" ry=".719" fill="#304454"/><ellipse cx="105.065" cy="39.993" rx=".324" ry=".719" fill="#304454" transform="rotate(-10.532 105.065 39.993)"/><path fill="#d78334" d="M101.914 31.056s.06-.16.176-.406c-.15.119-.291.25-.423.389.082.006.164.007.247.017zM110.698 40.541c-1.47 1.327-3.535 2.863-5.546 3.626-3.653 1.387-6.96 1.962-9.37 0-2.283-1.86-2.051-8.209-2.051-8.209s-.476-.97-.86-2.172c-.754-.233-1.537-.38-2.094-.239.045 1.963 1.338 4.594 1.338 4.594s-.232 6.348 2.052 8.21c2.41 1.962 5.716 1.387 9.37 0 3.011-1.144 6.153-4.02 7.217-5.333.453-.559.155-.537-.056-.477z" opacity=".5"/><path fill="none" stroke="#414042" d="M96.89 46.895s-.774.423-1.126.95M96.221 46.684s-.88.246-1.196.528" stroke-width=".156" stroke-linecap="round" stroke-linejoin="round"/><path fill="#f4dbc5" d="M90.815 33.635c-.012.026-.021.053-.031.08.11 1.941 1.33 4.426 1.33 4.426.618-1.337 2.079-2.38 2.079-2.38-.911-1.177-3.378-2.126-3.378-2.126z"/><ellipse cx="110.541" cy="40.73" rx=".87" ry=".736" fill="#304454"/><path fill="#d78334" d="M127.993 49.593c.424.384 2.751.937 4.203-.943.946-1.225-1.258-.592-1.761-.662-.518-.074-.927-.978-1.883-.751-1.034.245-1.478 1.525-.559 2.356zM130.208 51.055s.648-.84.888-.648c.146.117-.096 1.656-.336 2.136-.24.48-1.152-.096-1.152-.096l.6-1.392z"/><path fill="#f89c44" d="M125.179 50.7s-3.131-1.034-3.622-4.082c-.607-3.763-5.123-2.89-6.3-1.972 0 0 2.477 1.187 2.654 4.625.146 2.86 4.46 4.371 6.862 2.013l.406-.585z"/><path fill="#f4953f" d="M126.414 47.31s-3.332 3.482-2.526 5.555c.724 1.86 5.465 2.112 6.75 1.883.639-.115 1.562-3.5 1.056-3.674-.454-.154-1.01.69-1.01.69s-.905-4.632-2.742-4.77c-1.836-.137-1.528.315-1.528.315z"/><path fill="url(#g)" d="M130.684 51.763s-.89-4.546-2.693-4.76l.194 1.875s1.17 2.58 2.499 2.885z"/><path fill="#d14e3f" d="M128.218 47.053c-.538-.044-1.22-.107-1.702.326-.792.71-.569 2.045.635 2.336.338.082 1.683-.179 2.616-.84-.39-.85-.906-1.609-1.549-1.822z"/><path fill="#fedcbd" d="M128.208 47.052c-.069-.006-.141-.01-.213-.017l.191 1.843s.115.255.315.615a4.83 4.83 0 0 0 1.265-.618c-.392-.853-.911-1.615-1.558-1.823z"/><path fill="url(#h)" d="M123.526 34.751s2.275-1.695 4.997-1.383c0 0 1.036-2.607 2.732-3.187 0 0 1.138 2.012 1.176 3.871 0 0 3.453 4.58 3.72 6.856 0 0 2.231-.045 2.722-.312 0 0 .851-.364.213.423-1.064 1.31-4.206 4.19-7.217 5.332-3.654 1.387-6.96 1.962-9.369 0-2.285-1.86-2.052-8.209-2.052-8.209s-1.294-2.632-1.339-4.595c1.443-.367 4.417 1.204 4.417 1.204z"/><path fill="#f89c44" d="M123.526 34.751s2.383-1.824 5.105-1.512c0 0 .928-2.478 2.624-3.058 0 0 1.138 2.012 1.176 3.871 0 0 3.453 4.58 3.72 6.856 0 0 2.231-.045 2.721-.312 0 0 .852-.364.214.423-1.064 1.31-4.206 4.19-7.218 5.332-3.653 1.387-6.959 1.962-9.369 0-2.284-1.86-2.052-8.209-2.052-8.209s-1.293-2.632-1.338-4.595c1.443-.367 4.417 1.204 4.417 1.204z"/><path fill="#f4dbc5" d="M120.095 44.328l-.064.823-.688-.138v.735l-.781-.046v.735l-.826-.092-.3.788c-.769-1.81-2.18-2.487-2.18-2.487.815-.636 3.228-1.248 4.839-.318z"/><path fill="#f4953f" d="M126.331 49.593c.424.384 2.751.937 4.203-.943.946-1.225-1.258-.592-1.761-.662-.518-.074-.927-.978-1.883-.751-1.034.245-1.478 1.525-.559 2.356z"/><path fill="#f4dbc5" d="M129.731 33.313s1.594.1 2.701.739c-.038-1.86-1.176-3.871-1.176-3.871s-1.598 1.296-1.525 3.132z"/><ellipse cx="129.337" cy="41.448" rx=".433" ry=".719" fill="#304454"/><ellipse cx="133.399" cy="39.993" rx=".324" ry=".719" fill="#304454" transform="rotate(-10.532 133.399 39.993)"/><path fill="#d78334" d="M130.247 31.056s.06-.16.176-.406c-.15.119-.291.25-.423.389.082.006.164.007.247.017zM139.031 40.541c-1.47 1.327-3.535 2.863-5.546 3.626-3.653 1.387-6.959 1.962-9.369 0-2.284-1.86-2.052-8.209-2.052-8.209s-.476-.97-.86-2.172c-.754-.233-1.537-.38-2.094-.239.045 1.963 1.338 4.594 1.338 4.594s-.232 6.348 2.052 8.21c2.41 1.962 5.716 1.387 9.37 0 3.011-1.144 6.153-4.02 7.217-5.333.453-.559.155-.537-.056-.477z" opacity=".5"/><path fill="none" stroke="#414042" d="M125.223 46.895s-.774.423-1.126.95M124.554 46.684s-.88.246-1.196.528" stroke-width=".156" stroke-linecap="round" stroke-linejoin="round"/><path fill="#f4dbc5" d="M119.148 33.635c-.012.026-.021.053-.031.08.11 1.941 1.331 4.426 1.331 4.426.617-1.337 2.078-2.38 2.078-2.38-.911-1.177-3.378-2.126-3.378-2.126z"/><ellipse cx="138.874" cy="40.73" rx=".87" ry=".736" fill="#304454"/><path fill="#d78334" d="M156.327 49.593c.424.384 2.751.937 4.203-.943.946-1.225-1.258-.592-1.761-.662-.518-.074-.927-.978-1.883-.751-1.034.245-1.478 1.525-.559 2.356zM158.541 51.055s.648-.84.888-.648c.146.117-.096 1.656-.336 2.136-.24.48-1.152-.096-1.152-.096l.6-1.392z"/><path fill="#f89c44" d="M153.512 50.7s-3.131-1.034-3.622-4.082c-.607-3.763-5.123-2.89-6.3-1.972 0 0 2.477 1.187 2.654 4.625.146 2.86 4.46 4.371 6.862 2.013l.406-.585z"/><path fill="#f4953f" d="M154.747 47.31s-3.332 3.482-2.526 5.555c.724 1.86 5.465 2.112 6.75 1.883.639-.115 1.562-3.5 1.056-3.674-.454-.154-1.01.69-1.01.69s-.905-4.632-2.742-4.77c-1.836-.137-1.528.315-1.528.315z"/><path fill="url(#i)" d="M159.017 51.763s-.89-4.546-2.693-4.76l.194 1.875s1.17 2.58 2.499 2.885z"/><path fill="#d14e3f" d="M156.551 47.053c-.538-.044-1.22-.107-1.702.326-.792.71-.569 2.045.635 2.336.338.082 1.683-.179 2.616-.84-.39-.85-.906-1.609-1.549-1.822z"/><path fill="#fedcbd" d="M156.541 47.052c-.069-.006-.141-.01-.213-.017l.191 1.843s.115.255.315.615a4.83 4.83 0 0 0 1.265-.618c-.392-.853-.911-1.615-1.558-1.823z"/><path fill="url(#j)" d="M151.86 34.751s2.275-1.695 4.997-1.383c0 0 1.036-2.607 2.732-3.187 0 0 1.138 2.012 1.176 3.871 0 0 3.453 4.58 3.72 6.856 0 0 2.231-.045 2.722-.312 0 0 .851-.364.213.423-1.064 1.31-4.206 4.19-7.217 5.332-3.654 1.387-6.96 1.962-9.369 0-2.285-1.86-2.052-8.209-2.052-8.209s-1.294-2.632-1.339-4.595c1.443-.367 4.417 1.204 4.417 1.204z"/><path fill="#f89c44" d="M151.86 34.751s2.383-1.824 5.105-1.512c0 0 .928-2.478 2.624-3.058 0 0 1.138 2.012 1.176 3.871 0 0 3.453 4.58 3.72 6.856 0 0 2.231-.045 2.721-.312 0 0 .852-.364.214.423-1.064 1.31-4.206 4.19-7.218 5.332-3.653 1.387-6.959 1.962-9.369 0-2.284-1.86-2.052-8.209-2.052-8.209s-1.293-2.632-1.338-4.595c1.443-.367 4.417 1.204 4.417 1.204z"/><path fill="#f4dbc5" d="M148.428 44.328l-.064.823-.688-.138v.735l-.781-.046v.735l-.826-.092-.3.788c-.769-1.81-2.18-2.487-2.18-2.487.815-.636 3.228-1.248 4.839-.318z"/><path fill="#f4953f" d="M154.665 49.593c.424.384 2.751.937 4.203-.943.946-1.225-1.258-.592-1.761-.662-.518-.074-.927-.978-1.883-.751-1.034.245-1.478 1.525-.559 2.356z"/><path fill="#f4dbc5" d="M158.064 33.313s1.594.1 2.701.739c-.038-1.86-1.176-3.871-1.176-3.871s-1.598 1.296-1.525 3.132z"/><ellipse cx="157.671" cy="41.448" rx=".433" ry=".719" fill="#304454"/><ellipse cx="161.732" cy="39.993" rx=".324" ry=".719" fill="#304454" transform="rotate(-10.532 161.732 39.993)"/><path fill="#d78334" d="M158.58 31.056s.06-.16.176-.406c-.15.119-.291.25-.423.389.082.006.164.007.247.017zM167.364 40.541c-1.47 1.327-3.535 2.863-5.546 3.626-3.653 1.387-6.959 1.962-9.369 0-2.284-1.86-2.052-8.209-2.052-8.209s-.476-.97-.86-2.172c-.754-.233-1.537-.38-2.094-.239.045 1.963 1.338 4.594 1.338 4.594s-.232 6.348 2.052 8.21c2.41 1.962 5.716 1.387 9.37 0 3.011-1.144 6.153-4.02 7.217-5.333.453-.559.155-.537-.056-.477z" opacity=".5"/><path fill="none" stroke="#414042" d="M153.556 46.895s-.774.423-1.126.95M152.888 46.684s-.88.246-1.196.528" stroke-width=".156" stroke-linecap="round" stroke-linejoin="round"/><path fill="#f4dbc5" d="M147.481 33.635c-.012.026-.021.053-.031.08.11 1.941 1.331 4.426 1.331 4.426.617-1.337 2.078-2.38 2.078-2.38-.911-1.177-3.378-2.126-3.378-2.126z"/><ellipse cx="167.207" cy="40.73" rx=".87" ry=".736" fill="#304454"/><path fill="#d78334" d="M42.993 77.926c.424.384 2.751.937 4.203-.943.946-1.225-1.258-.592-1.76-.662-.519-.074-.928-.978-1.884-.751-1.034.245-1.478 1.525-.559 2.356zM45.208 79.388s.648-.84.888-.648c.146.117-.096 1.656-.336 2.136-.24.48-1.152-.096-1.152-.096l.6-1.392z"/><path fill="#f89c44" d="M40.178 79.033s-3.13-1.033-3.621-4.081c-.608-3.763-5.124-2.89-6.3-1.972 0 0 2.476 1.187 2.653 4.625.147 2.859 4.46 4.37 6.863 2.013l.405-.585z"/><path fill="#f4953f" d="M41.414 75.642s-3.332 3.483-2.526 5.556c.724 1.86 5.465 2.112 6.75 1.883.639-.115 1.562-3.5 1.056-3.674-.454-.154-1.01.69-1.01.69s-.905-4.632-2.742-4.77c-1.836-.137-1.528.315-1.528.315z"/><path fill="url(#k)" d="M45.684 80.097s-.89-4.546-2.693-4.761l.194 1.876s1.17 2.58 2.499 2.885z"/><path fill="#d14e3f" d="M43.218 75.387c-.538-.044-1.22-.107-1.702.326-.792.709-.569 2.045.635 2.336.338.082 1.683-.18 2.616-.84-.39-.85-.906-1.61-1.549-1.822z"/><path fill="#fedcbd" d="M43.208 75.386l-.213-.017.191 1.843s.115.255.315.615a4.83 4.83 0 0 0 1.265-.618c-.392-.853-.91-1.615-1.558-1.823z"/><path fill="url(#l)" d="M38.526 63.084s2.275-1.695 4.997-1.383c0 0 1.036-2.607 2.732-3.187 0 0 1.139 2.012 1.176 3.871 0 0 3.454 4.58 3.72 6.857 0 0 2.231-.046 2.722-.313 0 0 .852-.364.214.424-1.065 1.31-4.207 4.189-7.218 5.332-3.654 1.386-6.96 1.962-9.368 0-2.285-1.862-2.052-8.21-2.052-8.21s-1.294-2.631-1.34-4.594c1.444-.367 4.417 1.203 4.417 1.203z"/><path fill="#f89c44" d="M38.526 63.084s2.383-1.824 5.105-1.512c0 0 .928-2.478 2.624-3.058 0 0 1.139 2.012 1.176 3.871 0 0 3.454 4.58 3.72 6.857 0 0 2.231-.046 2.721-.313 0 0 .852-.364.215.424-1.065 1.31-4.207 4.189-7.219 5.332-3.653 1.386-6.959 1.962-9.369 0-2.284-1.862-2.052-8.21-2.052-8.21s-1.293-2.631-1.338-4.594c1.444-.367 4.417 1.203 4.417 1.203z"/><path fill="#f4dbc5" d="M35.095 72.661l-.064.823-.688-.138v.735l-.781-.046v.735l-.826-.092-.3.788c-.769-1.81-2.18-2.487-2.18-2.487.815-.636 3.228-1.248 4.839-.318z"/><path fill="#f4953f" d="M41.331 77.926c.424.384 2.751.937 4.203-.943.946-1.225-1.258-.592-1.76-.662-.519-.074-.928-.978-1.884-.751-1.034.245-1.478 1.525-.559 2.356z"/><path fill="#f4dbc5" d="M44.731 61.646s1.594.101 2.701.74c-.038-1.86-1.176-3.872-1.176-3.872s-1.598 1.296-1.525 3.132z"/><ellipse cx="44.337" cy="69.782" rx=".433" ry=".719" fill="#304454"/><ellipse cx="48.399" cy="68.327" rx=".324" ry=".719" fill="#304454" transform="rotate(-10.532 48.399 68.327)"/><path fill="#d78334" d="M45.247 59.39s.06-.16.176-.407c-.15.12-.29.251-.423.39.082.005.164.006.247.016zM54.031 68.874c-1.47 1.327-3.535 2.863-5.546 3.626-3.653 1.387-6.959 1.962-9.369 0-2.284-1.86-2.052-8.209-2.052-8.209s-.476-.97-.86-2.172c-.754-.233-1.537-.38-2.094-.239.045 1.963 1.338 4.594 1.338 4.594s-.232 6.348 2.052 8.21c2.41 1.962 5.716 1.387 9.37 0 3.011-1.144 6.153-4.02 7.217-5.333.453-.559.155-.537-.056-.477z" opacity=".5"/><path fill="none" stroke="#414042" d="M40.223 75.228s-.774.423-1.126.95M39.554 75.017s-.88.246-1.196.528" stroke-width=".156" stroke-linecap="round" stroke-linejoin="round"/><path fill="#f4dbc5" d="M34.148 61.969c-.012.026-.02.053-.03.079.11 1.942 1.33 4.427 1.33 4.427.617-1.337 2.078-2.381 2.078-2.381-.91-1.176-3.378-2.125-3.378-2.125z"/><ellipse cx="53.874" cy="69.063" rx=".87" ry=".736" fill="#304454"/><path fill="#d78334" d="M71.327 77.926c.424.384 2.75.937 4.203-.943.946-1.225-1.258-.592-1.761-.662-.518-.074-.927-.978-1.883-.751-1.034.245-1.478 1.525-.56 2.356zM73.541 79.388s.648-.84.888-.648c.146.117-.096 1.656-.336 2.136-.24.48-1.152-.096-1.152-.096l.6-1.392z"/><path fill="#f89c44" d="M68.512 79.033S65.38 78 64.89 74.952c-.607-3.763-5.123-2.89-6.3-1.972 0 0 2.477 1.187 2.654 4.625.146 2.859 4.46 4.37 6.862 2.013l.406-.585z"/><path fill="#f4953f" d="M69.747 75.642s-3.332 3.483-2.526 5.556c.724 1.86 5.465 2.112 6.75 1.883.64-.115 1.562-3.5 1.056-3.674-.454-.154-1.01.69-1.01.69s-.905-4.632-2.742-4.77c-1.836-.137-1.528.315-1.528.315z"/><path fill="url(#m)" d="M74.017 80.097s-.89-4.546-2.693-4.761l.194 1.876s1.17 2.58 2.5 2.885z"/><path fill="#d14e3f" d="M71.551 75.387c-.538-.044-1.22-.107-1.702.326-.792.709-.569 2.045.635 2.336.338.082 1.683-.18 2.616-.84-.39-.85-.906-1.61-1.549-1.822z"/><path fill="#fedcbd" d="M71.541 75.386l-.213-.017.191 1.843s.115.255.315.615a4.83 4.83 0 0 0 1.265-.618c-.392-.853-.91-1.615-1.558-1.823z"/><path fill="url(#n)" d="M66.86 63.084s2.275-1.695 4.997-1.383c0 0 1.036-2.607 2.732-3.187 0 0 1.138 2.012 1.176 3.871 0 0 3.453 4.58 3.72 6.857 0 0 2.23-.046 2.722-.313 0 0 .85-.364.213.424-1.064 1.31-4.206 4.189-7.217 5.332-3.654 1.386-6.96 1.962-9.37 0-2.284-1.862-2.051-8.21-2.051-8.21s-1.294-2.631-1.34-4.594c1.444-.367 4.418 1.203 4.418 1.203z"/><path fill="#f89c44" d="M66.86 63.084s2.383-1.824 5.105-1.512c0 0 .928-2.478 2.624-3.058 0 0 1.138 2.012 1.176 3.871 0 0 3.453 4.58 3.72 6.857 0 0 2.23-.046 2.72-.313 0 0 .853-.364.215.424-1.064 1.31-4.206 4.189-7.218 5.332-3.653 1.386-6.96 1.962-9.37 0-2.283-1.862-2.051-8.21-2.051-8.21s-1.293-2.631-1.338-4.594c1.443-.367 4.417 1.203 4.417 1.203z"/><path fill="#f4dbc5" d="M63.428 72.661l-.064.823-.688-.138v.735l-.78-.046v.735l-.827-.092-.3.788c-.769-1.81-2.18-2.487-2.18-2.487.815-.636 3.228-1.248 4.84-.318z"/><path fill="#f4953f" d="M69.665 77.926c.424.384 2.75.937 4.203-.943.946-1.225-1.258-.592-1.761-.662-.518-.074-.927-.978-1.883-.751-1.034.245-1.478 1.525-.56 2.356z"/><path fill="#f4dbc5" d="M73.064 61.646s1.594.101 2.701.74c-.038-1.86-1.176-3.872-1.176-3.872s-1.598 1.296-1.525 3.132z"/><ellipse cx="72.671" cy="69.782" rx=".433" ry=".719" fill="#304454"/><ellipse cx="76.732" cy="68.327" rx=".324" ry=".719" fill="#304454" transform="rotate(-10.532 76.732 68.327)"/><path fill="#d78334" d="M73.58 59.39s.06-.16.176-.407c-.15.12-.29.251-.423.39.082.005.164.006.247.016zM82.364 68.874c-1.47 1.327-3.535 2.863-5.546 3.626-3.653 1.387-6.959 1.962-9.369 0-2.284-1.86-2.052-8.209-2.052-8.209s-.476-.97-.86-2.172c-.754-.233-1.537-.38-2.094-.239.045 1.963 1.338 4.594 1.338 4.594s-.232 6.348 2.052 8.21c2.41 1.962 5.716 1.387 9.37 0 3.011-1.144 6.153-4.02 7.217-5.333.453-.559.155-.537-.056-.477z" opacity=".5"/><path fill="none" stroke="#414042" d="M68.556 75.228s-.774.423-1.126.95M67.888 75.017s-.88.246-1.196.528" stroke-width=".156" stroke-linecap="round" stroke-linejoin="round"/><path fill="#f4dbc5" d="M62.481 61.969c-.012.026-.02.053-.03.079.11 1.942 1.33 4.427 1.33 4.427.617-1.337 2.078-2.381 2.078-2.381-.91-1.176-3.378-2.125-3.378-2.125z"/><ellipse cx="82.207" cy="69.063" rx=".87" ry=".736" fill="#304454"/><path fill="#d78334" d="M99.66 77.926c.424.384 2.751.937 4.203-.943.946-1.225-1.258-.592-1.761-.662-.518-.074-.927-.978-1.883-.751-1.034.245-1.478 1.525-.559 2.356zM101.875 79.388s.648-.84.888-.648c.146.117-.096 1.656-.336 2.136-.24.48-1.152-.096-1.152-.096l.6-1.392z"/><path fill="#f89c44" d="M96.845 79.033s-3.13-1.033-3.622-4.081c-.607-3.763-5.123-2.89-6.3-1.972 0 0 2.477 1.187 2.654 4.625.146 2.859 4.46 4.37 6.862 2.013l.406-.585z"/><path fill="#f4953f" d="M98.08 75.642s-3.331 3.483-2.525 5.556c.724 1.86 5.465 2.112 6.75 1.883.639-.115 1.562-3.5 1.056-3.674-.454-.154-1.01.69-1.01.69s-.905-4.632-2.742-4.77c-1.836-.137-1.528.315-1.528.315z"/><path fill="url(#o)" d="M102.351 80.097s-.89-4.546-2.693-4.761l.194 1.876s1.17 2.58 2.499 2.885z"/><path fill="#d14e3f" d="M99.885 75.387c-.538-.044-1.22-.107-1.702.326-.792.709-.57 2.045.635 2.336.338.082 1.683-.18 2.616-.84-.39-.85-.906-1.61-1.55-1.822z"/><path fill="#fedcbd" d="M99.875 75.386l-.213-.017.19 1.843s.116.255.316.615a4.83 4.83 0 0 0 1.265-.618c-.392-.853-.911-1.615-1.558-1.823z"/><path fill="url(#p)" d="M95.193 63.084s2.275-1.695 4.997-1.383c0 0 1.036-2.607 2.732-3.187 0 0 1.138 2.012 1.176 3.871 0 0 3.453 4.58 3.72 6.857 0 0 2.231-.046 2.722-.313 0 0 .851-.364.213.424-1.064 1.31-4.206 4.189-7.217 5.332-3.654 1.386-6.96 1.962-9.369 0-2.285-1.862-2.052-8.21-2.052-8.21s-1.294-2.631-1.339-4.594c1.443-.367 4.417 1.203 4.417 1.203z"/><path fill="#f89c44" d="M95.193 63.084s2.383-1.824 5.105-1.512c0 0 .928-2.478 2.624-3.058 0 0 1.138 2.012 1.176 3.871 0 0 3.453 4.58 3.72 6.857 0 0 2.231-.046 2.721-.313 0 0 .852-.364.214.424-1.064 1.31-4.206 4.189-7.218 5.332-3.653 1.386-6.959 1.962-9.369 0-2.284-1.862-2.052-8.21-2.052-8.21s-1.293-2.631-1.338-4.594c1.443-.367 4.417 1.203 4.417 1.203z"/><path fill="#f4dbc5" d="M91.762 72.661l-.064.823-.688-.138v.735l-.781-.046v.735l-.826-.092-.3.788c-.77-1.81-2.18-2.487-2.18-2.487.815-.636 3.228-1.248 4.839-.318z"/><path fill="#f4953f" d="M97.998 77.926c.424.384 2.751.937 4.203-.943.946-1.225-1.258-.592-1.761-.662-.518-.074-.927-.978-1.883-.751-1.034.245-1.478 1.525-.559 2.356z"/><path fill="#f4dbc5" d="M101.398 61.646s1.594.101 2.701.74c-.038-1.86-1.176-3.872-1.176-3.872s-1.598 1.296-1.525 3.132z"/><ellipse cx="101.004" cy="69.782" rx=".433" ry=".719" fill="#304454"/><ellipse cx="105.065" cy="68.327" rx=".324" ry=".719" fill="#304454" transform="rotate(-10.532 105.065 68.327)"/><path fill="#d78334" d="M101.914 59.39s.06-.16.176-.407c-.15.12-.291.251-.423.39.082.005.164.006.247.016zM110.698 68.874c-1.47 1.327-3.535 2.863-5.546 3.626-3.653 1.387-6.96 1.962-9.37 0-2.283-1.86-2.051-8.209-2.051-8.209s-.476-.97-.86-2.172c-.754-.233-1.537-.38-2.094-.239.045 1.963 1.338 4.594 1.338 4.594s-.232 6.348 2.052 8.21c2.41 1.962 5.716 1.387 9.37 0 3.011-1.144 6.153-4.02 7.217-5.333.453-.559.155-.537-.056-.477z" opacity=".5"/><path fill="none" stroke="#414042" d="M96.89 75.228s-.774.423-1.126.95M96.221 75.017s-.88.246-1.196.528" stroke-width=".156" stroke-linecap="round" stroke-linejoin="round"/><path fill="#f4dbc5" d="M90.815 61.969c-.012.026-.021.053-.031.079.11 1.942 1.33 4.427 1.33 4.427.618-1.337 2.079-2.381 2.079-2.381-.911-1.176-3.378-2.125-3.378-2.125z"/><ellipse cx="110.541" cy="69.063" rx=".87" ry=".736" fill="#304454"/><path fill="#d78334" d="M127.993 77.926c.424.384 2.751.937 4.203-.943.946-1.225-1.258-.592-1.761-.662-.518-.074-.927-.978-1.883-.751-1.034.245-1.478 1.525-.559 2.356zM130.208 79.388s.648-.84.888-.648c.146.117-.096 1.656-.336 2.136-.24.48-1.152-.096-1.152-.096l.6-1.392z"/><path fill="#f89c44" d="M125.179 79.033s-3.131-1.033-3.622-4.081c-.607-3.763-5.123-2.89-6.3-1.972 0 0 2.477 1.187 2.654 4.625.146 2.859 4.46 4.37 6.862 2.013l.406-.585z"/><path fill="#f4953f" d="M126.414 75.642s-3.332 3.483-2.526 5.556c.724 1.86 5.465 2.112 6.75 1.883.639-.115 1.562-3.5 1.056-3.674-.454-.154-1.01.69-1.01.69s-.905-4.632-2.742-4.77c-1.836-.137-1.528.315-1.528.315z"/><path fill="url(#q)" d="M130.684 80.097s-.89-4.546-2.693-4.761l.194 1.876s1.17 2.58 2.499 2.885z"/><path fill="#d14e3f" d="M128.218 75.387c-.538-.044-1.22-.107-1.702.326-.792.709-.569 2.045.635 2.336.338.082 1.683-.18 2.616-.84-.39-.85-.906-1.61-1.549-1.822z"/><path fill="#fedcbd" d="M128.208 75.386l-.213-.017.191 1.843s.115.255.315.615a4.83 4.83 0 0 0 1.265-.618c-.392-.853-.911-1.615-1.558-1.823z"/><path fill="url(#r)" d="M123.526 63.084s2.275-1.695 4.997-1.383c0 0 1.036-2.607 2.732-3.187 0 0 1.138 2.012 1.176 3.871 0 0 3.453 4.58 3.72 6.857 0 0 2.231-.046 2.722-.313 0 0 .851-.364.213.424-1.064 1.31-4.206 4.189-7.217 5.332-3.654 1.386-6.96 1.962-9.369 0-2.285-1.862-2.052-8.21-2.052-8.21s-1.294-2.631-1.339-4.594c1.443-.367 4.417 1.203 4.417 1.203z"/><path fill="#f89c44" d="M123.526 63.084s2.383-1.824 5.105-1.512c0 0 .928-2.478 2.624-3.058 0 0 1.138 2.012 1.176 3.871 0 0 3.453 4.58 3.72 6.857 0 0 2.231-.046 2.721-.313 0 0 .852-.364.214.424-1.064 1.31-4.206 4.189-7.218 5.332-3.653 1.386-6.959 1.962-9.369 0-2.284-1.862-2.052-8.21-2.052-8.21s-1.293-2.631-1.338-4.594c1.443-.367 4.417 1.203 4.417 1.203z"/><path fill="#f4dbc5" d="M120.095 72.661l-.064.823-.688-.138v.735l-.781-.046v.735l-.826-.092-.3.788c-.769-1.81-2.18-2.487-2.18-2.487.815-.636 3.228-1.248 4.839-.318z"/><path fill="#f4953f" d="M126.331 77.926c.424.384 2.751.937 4.203-.943.946-1.225-1.258-.592-1.761-.662-.518-.074-.927-.978-1.883-.751-1.034.245-1.478 1.525-.559 2.356z"/><path fill="#f4dbc5" d="M129.731 61.646s1.594.101 2.701.74c-.038-1.86-1.176-3.872-1.176-3.872s-1.598 1.296-1.525 3.132z"/><ellipse cx="129.337" cy="69.782" rx=".433" ry=".719" fill="#304454"/><ellipse cx="133.399" cy="68.327" rx=".324" ry=".719" fill="#304454" transform="rotate(-10.532 133.399 68.327)"/><path fill="#d78334" d="M130.247 59.39s.06-.16.176-.407c-.15.12-.291.251-.423.39.082.005.164.006.247.016zM139.031 68.874c-1.47 1.327-3.535 2.863-5.546 3.626-3.653 1.387-6.959 1.962-9.369 0-2.284-1.86-2.052-8.209-2.052-8.209s-.476-.97-.86-2.172c-.754-.233-1.537-.38-2.094-.239.045 1.963 1.338 4.594 1.338 4.594s-.232 6.348 2.052 8.21c2.41 1.962 5.716 1.387 9.37 0 3.011-1.144 6.153-4.02 7.217-5.333.453-.559.155-.537-.056-.477z" opacity=".5"/><path fill="none" stroke="#414042" d="M125.223 75.228s-.774.423-1.126.95M124.554 75.017s-.88.246-1.196.528" stroke-width=".156" stroke-linecap="round" stroke-linejoin="round"/><path fill="#f4dbc5" d="M119.148 61.969c-.012.026-.021.053-.031.079.11 1.942 1.331 4.427 1.331 4.427.617-1.337 2.078-2.381 2.078-2.381-.911-1.176-3.378-2.125-3.378-2.125z"/><ellipse cx="138.874" cy="69.063" rx=".87" ry=".736" fill="#304454"/><path fill="#d78334" d="M156.327 77.926c.424.384 2.751.937 4.203-.943.946-1.225-1.258-.592-1.761-.662-.518-.074-.927-.978-1.883-.751-1.034.245-1.478 1.525-.559 2.356zM158.541 79.388s.648-.84.888-.648c.146.117-.096 1.656-.336 2.136-.24.48-1.152-.096-1.152-.096l.6-1.392z"/><path fill="#f89c44" d="M153.512 79.033s-3.131-1.033-3.622-4.081c-.607-3.763-5.123-2.89-6.3-1.972 0 0 2.477 1.187 2.654 4.625.146 2.859 4.46 4.37 6.862 2.013l.406-.585z"/><path fill="#f4953f" d="M154.747 75.642s-3.332 3.483-2.526 5.556c.724 1.86 5.465 2.112 6.75 1.883.639-.115 1.562-3.5 1.056-3.674-.454-.154-1.01.69-1.01.69s-.905-4.632-2.742-4.77c-1.836-.137-1.528.315-1.528.315z"/><path fill="url(#s)" d="M159.017 80.097s-.89-4.546-2.693-4.761l.194 1.876s1.17 2.58 2.499 2.885z"/><path fill="#d14e3f" d="M156.551 75.387c-.538-.044-1.22-.107-1.702.326-.792.709-.569 2.045.635 2.336.338.082 1.683-.18 2.616-.84-.39-.85-.906-1.61-1.549-1.822z"/><path fill="#fedcbd" d="M156.541 75.386l-.213-.017.191 1.843s.115.255.315.615a4.83 4.83 0 0 0 1.265-.618c-.392-.853-.911-1.615-1.558-1.823z"/><path fill="url(#t)" d="M151.86 63.084s2.275-1.695 4.997-1.383c0 0 1.036-2.607 2.732-3.187 0 0 1.138 2.012 1.176 3.871 0 0 3.453 4.58 3.72 6.857 0 0 2.231-.046 2.722-.313 0 0 .851-.364.213.424-1.064 1.31-4.206 4.189-7.217 5.332-3.654 1.386-6.96 1.962-9.369 0-2.285-1.862-2.052-8.21-2.052-8.21s-1.294-2.631-1.339-4.594c1.443-.367 4.417 1.203 4.417 1.203z"/><path fill="#f89c44" d="M151.86 63.084s2.383-1.824 5.105-1.512c0 0 .928-2.478 2.624-3.058 0 0 1.138 2.012 1.176 3.871 0 0 3.453 4.58 3.72 6.857 0 0 2.231-.046 2.721-.313 0 0 .852-.364.214.424-1.064 1.31-4.206 4.189-7.218 5.332-3.653 1.386-6.959 1.962-9.369 0-2.284-1.862-2.052-8.21-2.052-8.21s-1.293-2.631-1.338-4.594c1.443-.367 4.417 1.203 4.417 1.203z"/><path fill="#f4dbc5" d="M148.428 72.661l-.064.823-.688-.138v.735l-.781-.046v.735l-.826-.092-.3.788c-.769-1.81-2.18-2.487-2.18-2.487.815-.636 3.228-1.248 4.839-.318z"/><path fill="#f4953f" d="M154.665 77.926c.424.384 2.751.937 4.203-.943.946-1.225-1.258-.592-1.761-.662-.518-.074-.927-.978-1.883-.751-1.034.245-1.478 1.525-.559 2.356z"/><path fill="#f4dbc5" d="M158.064 61.646s1.594.101 2.701.74c-.038-1.86-1.176-3.872-1.176-3.872s-1.598 1.296-1.525 3.132z"/><ellipse cx="157.671" cy="69.782" rx=".433" ry=".719" fill="#304454"/><ellipse cx="161.732" cy="68.327" rx=".324" ry=".719" fill="#304454" transform="rotate(-10.532 161.732 68.327)"/><path fill="#d78334" d="M158.58 59.39s.06-.16.176-.407c-.15.12-.291.251-.423.39.082.005.164.006.247.016zM167.364 68.874c-1.47 1.327-3.535 2.863-5.546 3.626-3.653 1.387-6.959 1.962-9.369 0-2.284-1.86-2.052-8.209-2.052-8.209s-.476-.97-.86-2.172c-.754-.233-1.537-.38-2.094-.239.045 1.963 1.338 4.594 1.338 4.594s-.232 6.348 2.052 8.21c2.41 1.962 5.716 1.387 9.37 0 3.011-1.144 6.153-4.02 7.217-5.333.453-.559.155-.537-.056-.477z" opacity=".5"/><path fill="none" stroke="#414042" d="M153.556 75.228s-.774.423-1.126.95M152.888 75.017s-.88.246-1.196.528" stroke-width=".156" stroke-linecap="round" stroke-linejoin="round"/><path fill="#f4dbc5" d="M147.481 61.969c-.012.026-.021.053-.031.079.11 1.942 1.331 4.427 1.331 4.427.617-1.337 2.078-2.381 2.078-2.381-.911-1.176-3.378-2.125-3.378-2.125z"/><ellipse cx="167.207" cy="69.063" rx=".87" ry=".736" fill="#304454"/><path fill="none" stroke="gray" d="M56.667 30.181v68.986M85 30.181v68.986M113.333 30.181v68.986M141.667 30.181v68.986" stroke-width="2" stroke-opacity=".5"/></svg>
