<svg xmlns="http://www.w3.org/2000/svg" width="121.466" height="160" viewBox="0 0 121.46596858638746 160.00000000000003"><path fill="#304454" d="M17.559 28.118c-1.076.717-2.251 1.236-3.558 1.598a9.244 9.244 0 0 1-1.897.342c-.57.038-1.094-.076-1.634-.065.316.523 1.204.657 1.928.555-.076.164-.336.252-.472.393.342.354 6.658 1.128 7.36.788.488-.237 1.098-.482 1.34-.9-.13.244-.472.475-.535.716.428.075 1.25-.542 1.576-.76.434-.29.84-.568 1.16-.932 1.124-1.275 1.813-3.114 1.645-4.559-.08-.675-.443-1.54-1.276-1.848-.802-.297-4.818 4.126-5.637 4.672z"/><path fill="#f89c44" d="M29.805 37.615c.345.122.835 2.046 1.01 2.478.128.315.184.629-.248.685-.254.032-.893-.086-.858.362.04.479.817.375 1.101.51.205.099.696.143.938.176.39.054 1.317.066 1.301-.175.317-.117.88-.066 1.233.022.705.096.37-.471.195-.558-.28-.137-.573-.302-.877-.41-.412-.144-.834-.243-1.237-.422-1.13-.04-1.546-2.88-1.473-3.05M22.7 37.615c-.004.575-.28 2.426-.42 2.725-.34.733-1.533.384-2.076.857-.424.368.131.472.438.442.333-.033 1.22.066 1.43.184.373.21 1.085-.174 1.166-.23.064-.042.906.113 1.33.118.607.007.022-.63-.253-.758-1.52-.537-.938-2.52-.663-3.452"/><path fill="#304454" d="M36.46 29.645c.05-.322-.054-.75-.08-1.08-.028-.393-.03-.784-.177-1.157-.165-5.036-4.421-4.13-2.523-7.412.263-.573.814-1.653.398-3.858-1.06-5.611-5.628-5.854-5.928-5.654.507-.338 1.11-.293 1.687-.258.58.034 1.119.298 1.676.374-.696-.577-1.707-.937-2.621-.945-.532-.005-1.022.018-1.542.136-.387.087-.712.278-1.075.404.322-.933 1.48-1.061 2.353-1.054-.475-.205-1.304-.006-1.771.165-.477.174-1.088.409-1.395.825.243-.473.397-.863.859-1.19a4.428 4.428 0 0 1 1.068-.564c-.661.165-1.314.346-1.866.8-.406.334-.682.852-.832 1.356.007-.418.037-.792-.233-1.133-.32-.405-.648-.314-1.08-.194.344.057.778.22.907.62.12.37-.027 1.009-.335 1.2-6.8 4.257-1.378 11.11-1.258 11.2.05.037.01 1.13-.178 1.48-.27 1.41-9.87 16.239 4.867 17.776 4.853.507 8.835-3.552 8.835-7.934 0-1.04-.373-4.038-.545-4.688.087.34.45.613.453.987.01-.372-.087-.692-.204-1.022.039.042.082.082.116.119.199.22.292.443.425.7z"/><path fill="#304454" d="M32.807 26.648c.226.323.4.712.676.957.229-.522.27-.24.57.196.218.317.375.43.654.603.74.457 1.407 1.385 1.932 2.218.69 1.094 1.179 2.281 1.507 3.598.16.645.266 1.237.294 1.904.024.57-.104 1.092-.107 1.632.532-.303.688-1.187.604-1.913.162.08.244.342.38.482 1.05-3.178.793-9.796-5.325-12.686-.615-.29-1.551.404-1.88 1.228-.317.795.12 2.146.82 2.461.006-.183-.016-.524-.125-.68z"/><path fill="#efefef" d="M32.369 17.44a2.864 2.864 0 0 0-.19-.771c.214-.68.235-1.506.009-2.348-.485-1.814-1.918-3.005-3.2-2.662-.967.259-1.571 1.317-1.601 2.6-.033.002-.066.002-.1.005a6.301 6.301 0 0 0-.816.14c-.421-.983-1.182-1.643-2.055-1.643-1.327 0-2.402 1.522-2.402 3.399 0 1.158.41 2.179 1.035 2.793.537 1.692 2.608 2.82 4.955 2.59 2.608-.255 4.562-2.093 4.365-4.103z"/><ellipse cx="24.497" cy="16.262" rx=".494" ry=".686" fill="#304454" transform="rotate(-8.893 24.497 16.262)"/><ellipse cx="30.266" cy="15.051" rx=".494" ry=".686" fill="#304454" transform="rotate(-8.893 30.266 15.051)"/><ellipse cx="27.604" cy="32.315" rx="9.016" ry="6.577" fill="#efefef" transform="rotate(84.388 27.604 32.315)"/><path fill="#f89c44" d="M28.67 18.118c-.548.595-1.319.545-2.048.443l-.863-.049c.19-.025.797.585 1.011.74.34.246.684.484 1.091.562.345.065.848.19 1.16-.038.277-.205.46-.68.585-.992.215-.533.193-1.157.466-1.672-.598.008-1.043.618-1.401 1.006z"/><path fill="#d14e3f" d="M26.4 18.66c.68.17 1.39 1.15 2.145.838.615-.254.928-1.441 1.105-2.022.018-.061.048-.115.077-.17-.589.204-.915.73-1.379 1.089-.22.17-.545.233-.815.259-.304.03-.458-.082-.738-.142"/><path fill="#f89c44" d="M25.654 18.516v-.025c.419.129.875.156 1.308.248.093.02.201.044.316.067.305.062.655.114.917.055.35-.078.587-.43.782-.721a2.51 2.51 0 0 1 .625-.655c.16-.12.348-.213.47-.376-.11-.168-.37-.13-.546-.103-.247.037-.395.063-.64-.013-.276-.086-.517-.204-.785-.248-.651-.108-1.072.317-1.415.807-.114.162-.259.28-.407.389-.148.11-.302.214-.433.347-.07.073-.117.154-.192.228z"/><path fill="#304454" d="M56.093 28.118c-1.076.717-2.251 1.236-3.558 1.598a9.244 9.244 0 0 1-1.897.342c-.57.038-1.094-.076-1.634-.065.316.523 1.204.657 1.928.555-.076.164-.336.252-.472.393.342.354 6.658 1.128 7.36.788.488-.237 1.098-.482 1.34-.9-.13.244-.472.475-.535.716.428.075 1.25-.542 1.576-.76.434-.29.84-.568 1.16-.932 1.124-1.275 1.813-3.114 1.645-4.559-.08-.675-.443-1.54-1.276-1.848-.802-.297-4.818 4.126-5.637 4.672z"/><path fill="#f89c44" d="M68.34 37.615c.344.122.834 2.046 1.01 2.478.127.315.183.629-.249.685-.254.032-.893-.086-.858.362.04.479.817.375 1.101.51.205.099.696.143.938.176.39.054 1.317.066 1.301-.175.317-.117.88-.066 1.233.022.705.096.37-.471.195-.558-.28-.137-.573-.302-.877-.41-.412-.144-.834-.243-1.237-.422-1.13-.04-1.546-2.88-1.473-3.05M61.233 37.615c-.003.575-.28 2.426-.419 2.725-.34.733-1.533.384-2.076.857-.424.368.131.472.438.442.333-.033 1.22.066 1.43.184.373.21 1.085-.174 1.166-.23.064-.042.906.113 1.33.118.607.007.022-.63-.253-.758-1.52-.537-.938-2.52-.663-3.452"/><path fill="#304454" d="M74.995 29.645c.049-.322-.055-.75-.08-1.08-.03-.393-.031-.784-.178-1.157-.165-5.036-4.421-4.13-2.523-7.412.263-.573.814-1.653.398-3.858-1.06-5.611-5.628-5.854-5.928-5.654.507-.338 1.11-.293 1.687-.258.58.034 1.119.298 1.676.374-.696-.577-1.707-.937-2.621-.945-.532-.005-1.022.018-1.542.136-.387.087-.712.278-1.075.404.322-.933 1.48-1.061 2.353-1.054-.475-.205-1.304-.006-1.771.165-.477.174-1.088.409-1.395.825.243-.473.397-.863.859-1.19a4.428 4.428 0 0 1 1.068-.564c-.661.165-1.314.346-1.866.8-.406.334-.682.852-.832 1.356.007-.418.037-.792-.233-1.133-.32-.405-.648-.314-1.08-.194.344.057.778.22.907.62.12.37-.027 1.009-.335 1.2-6.8 4.257-1.378 11.11-1.258 11.2.05.037.01 1.13-.178 1.48-.27 1.41-9.87 16.239 4.867 17.776 4.853.507 8.835-3.552 8.835-7.934 0-1.04-.373-4.038-.545-4.688.087.34.45.613.453.987.01-.372-.087-.692-.204-1.022.039.042.082.082.116.119.199.22.292.443.425.7z"/><path fill="#304454" d="M71.34 26.648c.227.323.402.712.677.957.229-.522.27-.24.57.196.218.317.375.43.654.603.74.457 1.407 1.385 1.932 2.218.69 1.094 1.179 2.281 1.507 3.598.16.645.266 1.237.294 1.904.024.57-.104 1.092-.107 1.632.532-.303.688-1.187.604-1.913.162.08.244.342.38.482 1.05-3.178.793-9.796-5.325-12.686-.615-.29-1.551.404-1.88 1.228-.317.795.12 2.146.82 2.461.006-.183-.016-.524-.125-.68z"/><path fill="#efefef" d="M70.903 17.44a2.864 2.864 0 0 0-.19-.771c.214-.68.235-1.506.009-2.348-.485-1.814-1.918-3.005-3.2-2.662-.967.259-1.571 1.317-1.601 2.6-.033.002-.066.002-.1.005a6.301 6.301 0 0 0-.816.14c-.421-.983-1.182-1.643-2.055-1.643-1.327 0-2.402 1.522-2.402 3.399 0 1.158.41 2.179 1.035 2.793.537 1.692 2.608 2.82 4.955 2.59 2.608-.255 4.562-2.093 4.365-4.103z"/><ellipse cx="63.031" cy="16.262" rx=".494" ry=".686" fill="#304454" transform="rotate(-8.893 63.03 16.262)"/><ellipse cx="68.8" cy="15.051" rx=".494" ry=".686" fill="#304454" transform="rotate(-8.893 68.8 15.051)"/><ellipse cx="66.138" cy="32.315" rx="9.016" ry="6.577" fill="#efefef" transform="rotate(84.388 66.138 32.315)"/><path fill="#f89c44" d="M67.204 18.118c-.547.595-1.319.545-2.047.443l-.864-.049c.19-.025.797.585 1.011.74.34.246.684.484 1.091.562.346.065.849.19 1.16-.038.277-.205.46-.68.585-.992.216-.533.194-1.157.466-1.672-.597.008-1.043.618-1.401 1.006z"/><path fill="#d14e3f" d="M64.934 18.66c.68.17 1.39 1.15 2.145.838.615-.254.928-1.441 1.105-2.022.018-.061.048-.115.077-.17-.589.204-.915.73-1.379 1.089-.22.17-.545.233-.815.259-.304.03-.458-.082-.738-.142"/><path fill="#f89c44" d="M64.189 18.516v-.025c.418.129.874.156 1.307.248.094.02.202.044.316.067.305.062.654.114.916.055.35-.078.589-.43.782-.721a2.51 2.51 0 0 1 .625-.655c.161-.12.349-.213.471-.376-.11-.168-.37-.13-.545-.103-.248.037-.397.063-.642-.013-.275-.086-.516-.204-.784-.248-.651-.108-1.072.317-1.416.807-.113.162-.257.28-.405.389-.15.11-.302.214-.433.347-.072.073-.118.154-.192.228z"/><path fill="#304454" d="M94.627 28.118c-1.076.717-2.251 1.236-3.558 1.598a9.244 9.244 0 0 1-1.897.342c-.57.038-1.094-.076-1.634-.065.316.523 1.204.657 1.928.555-.076.164-.336.252-.472.393.342.354 6.658 1.128 7.36.788.488-.237 1.098-.482 1.34-.9-.13.244-.472.475-.535.716.428.075 1.25-.542 1.576-.76.434-.29.84-.568 1.16-.932 1.124-1.275 1.813-3.114 1.645-4.559-.079-.675-.443-1.54-1.276-1.848-.802-.297-4.818 4.126-5.637 4.672z"/><path fill="#f89c44" d="M106.873 37.615c.345.122.835 2.046 1.01 2.478.128.315.184.629-.248.685-.254.032-.893-.086-.858.362.039.479.817.375 1.101.51.205.099.696.143.938.176.389.054 1.317.066 1.301-.175.317-.117.88-.066 1.233.022.705.096.37-.471.195-.558-.28-.137-.573-.302-.877-.41-.412-.144-.834-.243-1.237-.422-1.13-.04-1.546-2.88-1.473-3.05M99.767 37.615c-.003.575-.28 2.426-.419 2.725-.34.733-1.533.384-2.076.857-.424.368.131.472.438.442.333-.033 1.22.066 1.43.184.373.21 1.085-.174 1.166-.23.064-.042.906.113 1.329.118.608.007.023-.63-.252-.758-1.52-.537-.938-2.52-.663-3.452"/><path fill="#304454" d="M113.529 29.645c.049-.322-.055-.75-.08-1.08-.029-.393-.031-.784-.178-1.157-.165-5.036-4.421-4.13-2.523-7.412.263-.573.814-1.653.398-3.858-1.059-5.611-5.628-5.854-5.928-5.654.507-.338 1.11-.293 1.687-.258.581.034 1.119.298 1.676.374-.696-.577-1.707-.937-2.621-.945-.532-.005-1.022.018-1.542.136-.387.087-.712.278-1.075.404.322-.933 1.481-1.061 2.353-1.054-.475-.205-1.304-.006-1.771.165-.477.174-1.088.409-1.395.825.243-.473.397-.863.859-1.19a4.428 4.428 0 0 1 1.068-.564c-.661.165-1.314.346-1.866.8-.406.334-.682.852-.832 1.356.007-.418.037-.792-.233-1.133-.319-.405-.648-.314-1.079-.194.343.057.777.22.906.62.12.37-.027 1.009-.335 1.2-6.8 4.257-1.378 11.11-1.258 11.2.05.037.01 1.13-.178 1.48-.27 1.41-9.87 16.239 4.867 17.776 4.853.507 8.835-3.552 8.835-7.934 0-1.04-.373-4.038-.545-4.688.087.34.451.613.453.987.011-.372-.087-.692-.204-1.022.039.042.082.082.116.119.199.22.292.443.425.7z"/><path fill="#304454" d="M109.875 26.648c.226.323.401.712.676.957.229-.522.271-.24.57.196.218.317.375.43.654.603.741.457 1.407 1.385 1.932 2.218.69 1.094 1.179 2.281 1.507 3.598.161.645.266 1.237.294 1.904.024.57-.104 1.092-.107 1.632.532-.303.688-1.187.604-1.913.162.08.244.342.381.482 1.049-3.178.792-9.796-5.326-12.686-.615-.29-1.551.404-1.88 1.228-.317.795.12 2.146.82 2.461.006-.183-.016-.524-.125-.68z"/><path fill="#efefef" d="M109.437 17.44a2.864 2.864 0 0 0-.189-.771c.213-.68.234-1.506.008-2.348-.485-1.814-1.918-3.005-3.2-2.662-.967.259-1.571 1.317-1.601 2.6-.033.002-.066.002-.099.005a6.301 6.301 0 0 0-.817.14c-.421-.983-1.182-1.643-2.055-1.643-1.327 0-2.402 1.522-2.402 3.399 0 1.158.41 2.179 1.035 2.793.537 1.692 2.608 2.82 4.955 2.59 2.608-.255 4.562-2.093 4.365-4.103z"/><ellipse cx="101.565" cy="16.262" rx=".494" ry=".686" fill="#304454" transform="rotate(-8.893 101.565 16.262)"/><ellipse cx="107.334" cy="15.051" rx=".494" ry=".686" fill="#304454" transform="rotate(-8.893 107.334 15.051)"/><ellipse cx="104.672" cy="32.315" rx="9.016" ry="6.577" fill="#efefef" transform="rotate(84.388 104.672 32.315)"/><path fill="#f89c44" d="M105.739 18.118c-.548.595-1.319.545-2.048.443l-.863-.049c.19-.025.797.585 1.011.74.34.246.684.484 1.091.562.345.065.848.19 1.159-.038.278-.205.46-.68.586-.992.215-.533.193-1.157.466-1.672-.598.008-1.044.618-1.402 1.006z"/><path fill="#d14e3f" d="M103.468 18.66c.679.17 1.39 1.15 2.145.838.615-.254.928-1.441 1.105-2.022.018-.061.048-.115.077-.17-.589.204-.915.73-1.379 1.089-.22.17-.545.233-.815.259-.304.03-.458-.082-.738-.142"/><path fill="#f89c44" d="M102.723 18.516v-.025c.418.129.874.156 1.307.248.094.02.202.044.316.067.305.062.655.114.917.055.35-.078.588-.43.782-.721a2.51 2.51 0 0 1 .625-.655c.161-.12.348-.213.471-.376-.11-.168-.371-.13-.546-.103-.247.037-.396.063-.641-.013-.276-.086-.517-.204-.785-.248-.651-.108-1.071.317-1.415.807-.114.162-.258.28-.406.389-.149.11-.302.214-.433.347-.071.073-.118.154-.192.228z"/><path fill="#304454" d="M17.559 66.652c-1.076.717-2.251 1.236-3.558 1.598a9.244 9.244 0 0 1-1.897.342c-.57.038-1.094-.076-1.634-.065.316.523 1.204.657 1.928.555-.076.164-.336.252-.472.393.342.354 6.658 1.128 7.36.788.488-.237 1.098-.482 1.34-.9-.13.244-.472.475-.535.716.428.075 1.25-.542 1.576-.76.434-.29.84-.568 1.16-.932 1.124-1.275 1.813-3.114 1.645-4.559-.08-.675-.443-1.54-1.276-1.848-.802-.297-4.818 4.126-5.637 4.672z"/><path fill="#f89c44" d="M29.805 76.149c.345.122.835 2.046 1.01 2.478.128.315.184.629-.248.685-.254.032-.893-.086-.858.362.04.479.817.375 1.101.511.205.098.696.142.938.175.39.054 1.317.066 1.301-.175.317-.117.88-.066 1.233.022.705.096.37-.471.195-.558-.28-.137-.573-.302-.877-.409-.412-.145-.834-.244-1.237-.423-1.13-.039-1.546-2.879-1.473-3.049M22.7 76.149c-.004.575-.28 2.426-.42 2.725-.34.733-1.533.384-2.076.857-.424.368.131.472.438.442.333-.033 1.22.066 1.43.184.373.21 1.085-.174 1.166-.229.064-.043.906.112 1.33.117.607.007.022-.629-.253-.758-1.52-.537-.938-2.52-.663-3.452"/><path fill="#304454" d="M36.46 68.179c.05-.322-.054-.75-.08-1.08-.028-.393-.03-.784-.177-1.157-.165-5.036-4.421-4.13-2.523-7.412.263-.573.814-1.653.398-3.858-1.06-5.611-5.628-5.854-5.928-5.654.507-.338 1.11-.293 1.687-.258.58.034 1.119.298 1.676.374-.696-.577-1.707-.937-2.621-.945-.532-.005-1.022.018-1.542.136-.387.087-.712.278-1.075.404.322-.933 1.48-1.061 2.353-1.054-.475-.205-1.304-.006-1.771.165-.477.174-1.088.409-1.395.825.243-.473.397-.863.859-1.19a4.428 4.428 0 0 1 1.068-.564c-.661.165-1.314.346-1.866.8-.406.334-.682.852-.832 1.356.007-.418.037-.792-.233-1.133-.32-.405-.648-.314-1.08-.194.344.057.778.22.907.62.12.37-.027 1.009-.335 1.2-6.8 4.257-1.378 11.11-1.258 11.2.05.037.01 1.13-.178 1.48-.27 1.41-9.87 16.239 4.867 17.776 4.853.507 8.835-3.552 8.835-7.934 0-1.04-.373-4.038-.545-4.688.087.34.45.613.453.987.01-.372-.087-.692-.204-1.022.039.042.082.082.116.119.199.22.292.443.425.7z"/><path fill="#304454" d="M32.807 65.182c.226.323.4.712.676.957.229-.522.27-.24.57.196.218.317.375.43.654.603.74.457 1.407 1.385 1.932 2.218.69 1.094 1.179 2.281 1.507 3.598.16.645.266 1.237.294 1.904.024.57-.104 1.092-.107 1.632.532-.303.688-1.187.604-1.913.162.08.244.342.38.482 1.05-3.178.793-9.796-5.325-12.686-.615-.29-1.551.404-1.88 1.228-.317.795.12 2.146.82 2.461.006-.183-.016-.524-.125-.68z"/><path fill="#efefef" d="M32.369 55.974a2.864 2.864 0 0 0-.19-.771c.214-.68.235-1.506.009-2.348-.485-1.814-1.918-3.005-3.2-2.662-.967.259-1.571 1.317-1.601 2.6-.033.002-.066.002-.1.005a6.301 6.301 0 0 0-.816.14c-.421-.983-1.182-1.643-2.055-1.643-1.327 0-2.402 1.522-2.402 3.399 0 1.158.41 2.179 1.035 2.793.537 1.692 2.608 2.82 4.955 2.59 2.608-.255 4.562-2.093 4.365-4.103z"/><ellipse cx="24.497" cy="54.796" rx=".494" ry=".686" fill="#304454" transform="rotate(-8.893 24.497 54.796)"/><ellipse cx="30.266" cy="53.585" rx=".494" ry=".686" fill="#304454" transform="rotate(-8.893 30.266 53.585)"/><ellipse cx="27.604" cy="70.849" rx="9.016" ry="6.577" fill="#efefef" transform="rotate(84.388 27.604 70.849)"/><path fill="#f89c44" d="M28.67 56.652c-.548.595-1.319.545-2.048.443l-.863-.049c.19-.025.797.585 1.011.74.34.246.684.484 1.091.562.345.065.848.19 1.16-.038.277-.205.46-.68.585-.992.215-.533.193-1.157.466-1.672-.598.008-1.043.618-1.401 1.006z"/><path fill="#d14e3f" d="M26.4 57.194c.68.171 1.39 1.15 2.145.838.615-.254.928-1.441 1.105-2.022.018-.061.048-.115.077-.17-.589.204-.915.731-1.379 1.089-.22.17-.545.233-.815.259-.304.03-.458-.082-.738-.142"/><path fill="#f89c44" d="M25.654 57.05v-.025c.419.129.875.156 1.308.248.093.02.201.044.316.067.305.062.655.114.917.055.35-.078.587-.43.782-.721a2.51 2.51 0 0 1 .625-.655c.16-.12.348-.213.47-.376-.11-.168-.37-.13-.546-.103-.247.037-.395.063-.64-.013-.276-.086-.517-.204-.785-.248-.651-.108-1.072.317-1.415.807-.114.162-.259.28-.407.389-.148.11-.302.214-.433.347-.07.073-.117.154-.192.228z"/><path fill="#304454" d="M56.093 66.652c-1.076.717-2.251 1.236-3.558 1.598a9.244 9.244 0 0 1-1.897.342c-.57.038-1.094-.076-1.634-.065.316.523 1.204.657 1.928.555-.076.164-.336.252-.472.393.342.354 6.658 1.128 7.36.788.488-.237 1.098-.482 1.34-.9-.13.244-.472.475-.535.716.428.075 1.25-.542 1.576-.76.434-.29.84-.568 1.16-.932 1.124-1.275 1.813-3.114 1.645-4.559-.08-.675-.443-1.54-1.276-1.848-.802-.297-4.818 4.126-5.637 4.672z"/><path fill="#f89c44" d="M68.34 76.149c.344.122.834 2.046 1.01 2.478.127.315.183.629-.249.685-.254.032-.893-.086-.858.362.04.479.817.375 1.101.511.205.098.696.142.938.175.39.054 1.317.066 1.301-.175.317-.117.88-.066 1.233.022.705.096.37-.471.195-.558-.28-.137-.573-.302-.877-.409-.412-.145-.834-.244-1.237-.423-1.13-.039-1.546-2.879-1.473-3.049M61.233 76.149c-.003.575-.28 2.426-.419 2.725-.34.733-1.533.384-2.076.857-.424.368.131.472.438.442.333-.033 1.22.066 1.43.184.373.21 1.085-.174 1.166-.229.064-.043.906.112 1.33.117.607.007.022-.629-.253-.758-1.52-.537-.938-2.52-.663-3.452"/><path fill="#304454" d="M74.995 68.179c.049-.322-.055-.75-.08-1.08-.03-.393-.031-.784-.178-1.157-.165-5.036-4.421-4.13-2.523-7.412.263-.573.814-1.653.398-3.858-1.06-5.611-5.628-5.854-5.928-5.654.507-.338 1.11-.293 1.687-.258.58.034 1.119.298 1.676.374-.696-.577-1.707-.937-2.621-.945-.532-.005-1.022.018-1.542.136-.387.087-.712.278-1.075.404.322-.933 1.48-1.061 2.353-1.054-.475-.205-1.304-.006-1.771.165-.477.174-1.088.409-1.395.825.243-.473.397-.863.859-1.19a4.428 4.428 0 0 1 1.068-.564c-.661.165-1.314.346-1.866.8-.406.334-.682.852-.832 1.356.007-.418.037-.792-.233-1.133-.32-.405-.648-.314-1.08-.194.344.057.778.22.907.62.12.37-.027 1.009-.335 1.2-6.8 4.257-1.378 11.11-1.258 11.2.05.037.01 1.13-.178 1.48-.27 1.41-9.87 16.239 4.867 17.776 4.853.507 8.835-3.552 8.835-7.934 0-1.04-.373-4.038-.545-4.688.087.34.45.613.453.987.01-.372-.087-.692-.204-1.022.039.042.082.082.116.119.199.22.292.443.425.7z"/><path fill="#304454" d="M71.34 65.182c.227.323.402.712.677.957.229-.522.27-.24.57.196.218.317.375.43.654.603.74.457 1.407 1.385 1.932 2.218.69 1.094 1.179 2.281 1.507 3.598.16.645.266 1.237.294 1.904.024.57-.104 1.092-.107 1.632.532-.303.688-1.187.604-1.913.162.08.244.342.38.482 1.05-3.178.793-9.796-5.325-12.686-.615-.29-1.551.404-1.88 1.228-.317.795.12 2.146.82 2.461.006-.183-.016-.524-.125-.68z"/><path fill="#efefef" d="M70.903 55.974a2.864 2.864 0 0 0-.19-.771c.214-.68.235-1.506.009-2.348-.485-1.814-1.918-3.005-3.2-2.662-.967.259-1.571 1.317-1.601 2.6-.033.002-.066.002-.1.005a6.301 6.301 0 0 0-.816.14c-.421-.983-1.182-1.643-2.055-1.643-1.327 0-2.402 1.522-2.402 3.399 0 1.158.41 2.179 1.035 2.793.537 1.692 2.608 2.82 4.955 2.59 2.608-.255 4.562-2.093 4.365-4.103z"/><ellipse cx="63.031" cy="54.796" rx=".494" ry=".686" fill="#304454" transform="rotate(-8.893 63.03 54.796)"/><ellipse cx="68.8" cy="53.585" rx=".494" ry=".686" fill="#304454" transform="rotate(-8.893 68.8 53.585)"/><ellipse cx="66.138" cy="70.849" rx="9.016" ry="6.577" fill="#efefef" transform="rotate(84.388 66.138 70.849)"/><path fill="#f89c44" d="M67.204 56.652c-.547.595-1.319.545-2.047.443l-.864-.049c.19-.025.797.585 1.011.74.34.246.684.484 1.091.562.346.065.849.19 1.16-.038.277-.205.46-.68.585-.992.216-.533.194-1.157.466-1.672-.597.008-1.043.618-1.401 1.006z"/><path fill="#d14e3f" d="M64.934 57.194c.68.171 1.39 1.15 2.145.838.615-.254.928-1.441 1.105-2.022.018-.061.048-.115.077-.17-.589.204-.915.731-1.379 1.089-.22.17-.545.233-.815.259-.304.03-.458-.082-.738-.142"/><path fill="#f89c44" d="M64.189 57.05v-.025c.418.129.874.156 1.307.248.094.02.202.044.316.067.305.062.654.114.916.055.35-.078.589-.43.782-.721a2.51 2.51 0 0 1 .625-.655c.161-.12.349-.213.471-.376-.11-.168-.37-.13-.545-.103-.248.037-.397.063-.642-.013-.275-.086-.516-.204-.784-.248-.651-.108-1.072.317-1.416.807-.113.162-.257.28-.405.389-.15.11-.302.214-.433.347-.072.073-.118.154-.192.228z"/><path fill="#304454" d="M94.627 66.652c-1.076.717-2.251 1.236-3.558 1.598a9.244 9.244 0 0 1-1.897.342c-.57.038-1.094-.076-1.634-.065.316.523 1.204.657 1.928.555-.076.164-.336.252-.472.393.342.354 6.658 1.128 7.36.788.488-.237 1.098-.482 1.34-.9-.13.244-.472.475-.535.716.428.075 1.25-.542 1.576-.76.434-.29.84-.568 1.16-.932 1.124-1.275 1.813-3.114 1.645-4.559-.079-.675-.443-1.54-1.276-1.848-.802-.297-4.818 4.126-5.637 4.672z"/><path fill="#f89c44" d="M106.873 76.149c.345.122.835 2.046 1.01 2.478.128.315.184.629-.248.685-.254.032-.893-.086-.858.362.039.479.817.375 1.101.511.205.098.696.142.938.175.389.054 1.317.066 1.301-.175.317-.117.88-.066 1.233.022.705.096.37-.471.195-.558-.28-.137-.573-.302-.877-.409-.412-.145-.834-.244-1.237-.423-1.13-.039-1.546-2.879-1.473-3.049M99.767 76.149c-.003.575-.28 2.426-.419 2.725-.34.733-1.533.384-2.076.857-.424.368.131.472.438.442.333-.033 1.22.066 1.43.184.373.21 1.085-.174 1.166-.229.064-.043.906.112 1.329.117.608.007.023-.629-.252-.758-1.52-.537-.938-2.52-.663-3.452"/><path fill="#304454" d="M113.529 68.179c.049-.322-.055-.75-.08-1.08-.029-.393-.031-.784-.178-1.157-.165-5.036-4.421-4.13-2.523-7.412.263-.573.814-1.653.398-3.858-1.059-5.611-5.628-5.854-5.928-5.654.507-.338 1.11-.293 1.687-.258.581.034 1.119.298 1.676.374-.696-.577-1.707-.937-2.621-.945-.532-.005-1.022.018-1.542.136-.387.087-.712.278-1.075.404.322-.933 1.481-1.061 2.353-1.054-.475-.205-1.304-.006-1.771.165-.477.174-1.088.409-1.395.825.243-.473.397-.863.859-1.19a4.428 4.428 0 0 1 1.068-.564c-.661.165-1.314.346-1.866.8-.406.334-.682.852-.832 1.356.007-.418.037-.792-.233-1.133-.319-.405-.648-.314-1.079-.194.343.057.777.22.906.62.12.37-.027 1.009-.335 1.2-6.8 4.257-1.378 11.11-1.258 11.2.05.037.01 1.13-.178 1.48-.27 1.41-9.87 16.239 4.867 17.776 4.853.507 8.835-3.552 8.835-7.934 0-1.04-.373-4.038-.545-4.688.087.34.451.613.453.987.011-.372-.087-.692-.204-1.022.039.042.082.082.116.119.199.22.292.443.425.7z"/><path fill="#304454" d="M109.875 65.182c.226.323.401.712.676.957.229-.522.271-.24.57.196.218.317.375.43.654.603.741.457 1.407 1.385 1.932 2.218.69 1.094 1.179 2.281 1.507 3.598.161.645.266 1.237.294 1.904.024.57-.104 1.092-.107 1.632.532-.303.688-1.187.604-1.913.162.08.244.342.381.482 1.049-3.178.792-9.796-5.326-12.686-.615-.29-1.551.404-1.88 1.228-.317.795.12 2.146.82 2.461.006-.183-.016-.524-.125-.68z"/><path fill="#efefef" d="M109.437 55.974a2.864 2.864 0 0 0-.189-.771c.213-.68.234-1.506.008-2.348-.485-1.814-1.918-3.005-3.2-2.662-.967.259-1.571 1.317-1.601 2.6-.033.002-.066.002-.099.005a6.301 6.301 0 0 0-.817.14c-.421-.983-1.182-1.643-2.055-1.643-1.327 0-2.402 1.522-2.402 3.399 0 1.158.41 2.179 1.035 2.793.537 1.692 2.608 2.82 4.955 2.59 2.608-.255 4.562-2.093 4.365-4.103z"/><ellipse cx="101.565" cy="54.796" rx=".494" ry=".686" fill="#304454" transform="rotate(-8.893 101.565 54.796)"/><ellipse cx="107.334" cy="53.585" rx=".494" ry=".686" fill="#304454" transform="rotate(-8.893 107.334 53.585)"/><ellipse cx="104.672" cy="70.849" rx="9.016" ry="6.577" fill="#efefef" transform="rotate(84.388 104.672 70.849)"/><path fill="#f89c44" d="M105.739 56.652c-.548.595-1.319.545-2.048.443l-.863-.049c.19-.025.797.585 1.011.74.34.246.684.484 1.091.562.345.065.848.19 1.159-.038.278-.205.46-.68.586-.992.215-.533.193-1.157.466-1.672-.598.008-1.044.618-1.402 1.006z"/><path fill="#d14e3f" d="M103.468 57.194c.679.171 1.39 1.15 2.145.838.615-.254.928-1.441 1.105-2.022.018-.061.048-.115.077-.17-.589.204-.915.731-1.379 1.089-.22.17-.545.233-.815.259-.304.03-.458-.082-.738-.142"/><path fill="#f89c44" d="M102.723 57.05v-.025c.418.129.874.156 1.307.248.094.02.202.044.316.067.305.062.655.114.917.055.35-.078.588-.43.782-.721a2.51 2.51 0 0 1 .625-.655c.161-.12.348-.213.471-.376-.11-.168-.371-.13-.546-.103-.247.037-.396.063-.641-.013-.276-.086-.517-.204-.785-.248-.651-.108-1.071.317-1.415.807-.114.162-.258.28-.406.389-.149.11-.302.214-.433.347-.071.073-.118.154-.192.228z"/><path fill="#304454" d="M17.559 105.186c-1.076.717-2.251 1.236-3.558 1.598a9.244 9.244 0 0 1-1.897.342c-.57.038-1.094-.076-1.634-.065.316.523 1.204.657 1.928.555-.076.164-.336.252-.472.393.342.354 6.658 1.128 7.36.788.488-.237 1.098-.482 1.34-.901-.13.245-.472.476-.535.717.428.075 1.25-.542 1.576-.76.434-.29.84-.568 1.16-.932 1.124-1.275 1.813-3.114 1.645-4.559-.08-.675-.443-1.54-1.276-1.848-.802-.297-4.818 4.126-5.637 4.672z"/><path fill="#f89c44" d="M29.805 114.683c.345.122.835 2.046 1.01 2.478.128.315.184.629-.248.685-.254.032-.893-.086-.858.362.04.479.817.375 1.101.511.205.098.696.142.938.175.39.054 1.317.066 1.301-.175.317-.117.88-.066 1.233.022.705.096.37-.471.195-.558-.28-.137-.573-.302-.877-.409-.412-.145-.834-.244-1.237-.423-1.13-.039-1.546-2.879-1.473-3.049M22.7 114.683c-.004.575-.28 2.426-.42 2.725-.34.733-1.533.384-2.076.857-.424.368.131.472.438.442.333-.033 1.22.066 1.43.184.373.21 1.085-.174 1.166-.229.064-.043.906.112 1.33.117.607.007.022-.629-.253-.758-1.52-.537-.938-2.52-.663-3.452"/><path fill="#304454" d="M36.46 106.713c.05-.322-.054-.75-.08-1.079-.028-.394-.03-.785-.177-1.158-.165-5.036-4.421-4.129-2.523-7.412.263-.573.814-1.653.398-3.858-1.06-5.611-5.628-5.854-5.928-5.654.507-.338 1.11-.293 1.687-.258.58.034 1.119.298 1.676.374-.696-.577-1.707-.937-2.621-.945-.532-.005-1.022.018-1.542.136-.387.087-.712.278-1.075.404.322-.933 1.48-1.061 2.353-1.054-.475-.205-1.304-.006-1.771.165-.477.174-1.088.409-1.395.825.243-.473.397-.863.859-1.19a4.428 4.428 0 0 1 1.068-.564c-.661.165-1.314.346-1.866.8-.406.334-.682.852-.832 1.356.007-.418.037-.792-.233-1.133-.32-.405-.648-.314-1.08-.194.344.057.778.22.907.62.12.37-.027 1.009-.335 1.2-6.8 4.257-1.378 11.11-1.258 11.2.05.037.01 1.131-.178 1.481-.27 1.409-9.87 16.238 4.867 17.775 4.853.507 8.835-3.552 8.835-7.934 0-1.04-.373-4.038-.545-4.688.087.34.45.613.453.987.01-.372-.087-.692-.204-1.022.039.042.082.082.116.119.199.221.292.443.425.701z"/><path fill="#304454" d="M32.807 103.716c.226.323.4.712.676.957.229-.522.27-.24.57.196.218.317.375.43.654.603.74.457 1.407 1.385 1.932 2.218.69 1.094 1.179 2.281 1.507 3.598.16.645.266 1.237.294 1.904.024.57-.104 1.092-.107 1.632.532-.303.688-1.187.604-1.913.162.08.244.342.38.482 1.05-3.178.793-9.796-5.325-12.686-.615-.29-1.551.404-1.88 1.228-.317.795.12 2.146.82 2.461.006-.183-.016-.524-.125-.68z"/><path fill="#efefef" d="M32.369 94.508a2.864 2.864 0 0 0-.19-.771c.214-.68.235-1.506.009-2.348-.485-1.814-1.918-3.005-3.2-2.662-.967.259-1.571 1.317-1.601 2.6-.033.002-.066.002-.1.005a6.301 6.301 0 0 0-.816.14c-.421-.983-1.182-1.643-2.055-1.643-1.327 0-2.402 1.522-2.402 3.399 0 1.158.41 2.179 1.035 2.793.537 1.692 2.608 2.82 4.955 2.59 2.608-.255 4.562-2.093 4.365-4.103z"/><ellipse cx="24.497" cy="93.33" rx=".494" ry=".686" fill="#304454" transform="rotate(-8.893 24.497 93.33)"/><ellipse cx="30.266" cy="92.119" rx=".494" ry=".686" fill="#304454" transform="rotate(-8.893 30.266 92.12)"/><ellipse cx="27.604" cy="109.383" rx="9.016" ry="6.577" fill="#efefef" transform="rotate(84.388 27.604 109.383)"/><path fill="#f89c44" d="M28.67 95.186c-.548.595-1.319.545-2.048.443l-.863-.049c.19-.025.797.585 1.011.74.34.246.684.484 1.091.562.345.065.848.19 1.16-.038.277-.205.46-.68.585-.992.215-.533.193-1.157.466-1.672-.598.008-1.043.618-1.401 1.006z"/><path fill="#d14e3f" d="M26.4 95.728c.68.171 1.39 1.15 2.145.838.615-.254.928-1.441 1.105-2.022.018-.061.048-.115.077-.17-.589.204-.915.731-1.379 1.089-.22.17-.545.233-.815.259-.304.03-.458-.082-.738-.142"/><path fill="#f89c44" d="M25.654 95.584v-.025c.419.129.875.156 1.308.248.093.02.201.044.316.067.305.062.655.114.917.055.35-.078.587-.43.782-.721a2.51 2.51 0 0 1 .625-.655c.16-.12.348-.213.47-.376-.11-.168-.37-.13-.546-.103-.247.037-.395.063-.64-.013-.276-.086-.517-.204-.785-.248-.651-.108-1.072.317-1.415.807-.114.162-.259.28-.407.389-.148.11-.302.214-.433.347-.07.073-.117.154-.192.228z"/><path fill="#304454" d="M56.093 105.186c-1.076.717-2.251 1.236-3.558 1.598a9.244 9.244 0 0 1-1.897.342c-.57.038-1.094-.076-1.634-.065.316.523 1.204.657 1.928.555-.076.164-.336.252-.472.393.342.354 6.658 1.128 7.36.788.488-.237 1.098-.482 1.34-.901-.13.245-.472.476-.535.717.428.075 1.25-.542 1.576-.76.434-.29.84-.568 1.16-.932 1.124-1.275 1.813-3.114 1.645-4.559-.08-.675-.443-1.54-1.276-1.848-.802-.297-4.818 4.126-5.637 4.672z"/><path fill="#f89c44" d="M68.34 114.683c.344.122.834 2.046 1.01 2.478.127.315.183.629-.249.685-.254.032-.893-.086-.858.362.04.479.817.375 1.101.511.205.098.696.142.938.175.39.054 1.317.066 1.301-.175.317-.117.88-.066 1.233.022.705.096.37-.471.195-.558-.28-.137-.573-.302-.877-.409-.412-.145-.834-.244-1.237-.423-1.13-.039-1.546-2.879-1.473-3.049M61.233 114.683c-.003.575-.28 2.426-.419 2.725-.34.733-1.533.384-2.076.857-.424.368.131.472.438.442.333-.033 1.22.066 1.43.184.373.21 1.085-.174 1.166-.229.064-.043.906.112 1.33.117.607.007.022-.629-.253-.758-1.52-.537-.938-2.52-.663-3.452"/><path fill="#304454" d="M74.995 106.713c.049-.322-.055-.75-.08-1.079-.03-.394-.031-.785-.178-1.158-.165-5.036-4.421-4.129-2.523-7.412.263-.573.814-1.653.398-3.858-1.06-5.611-5.628-5.854-5.928-5.654.507-.338 1.11-.293 1.687-.258.58.034 1.119.298 1.676.374-.696-.577-1.707-.937-2.621-.945-.532-.005-1.022.018-1.542.136-.387.087-.712.278-1.075.404.322-.933 1.48-1.061 2.353-1.054-.475-.205-1.304-.006-1.771.165-.477.174-1.088.409-1.395.825.243-.473.397-.863.859-1.19a4.428 4.428 0 0 1 1.068-.564c-.661.165-1.314.346-1.866.8-.406.334-.682.852-.832 1.356.007-.418.037-.792-.233-1.133-.32-.405-.648-.314-1.08-.194.344.057.778.22.907.62.12.37-.027 1.009-.335 1.2-6.8 4.257-1.378 11.11-1.258 11.2.05.037.01 1.131-.178 1.481-.27 1.409-9.87 16.238 4.867 17.775 4.853.507 8.835-3.552 8.835-7.934 0-1.04-.373-4.038-.545-4.688.087.34.45.613.453.987.01-.372-.087-.692-.204-1.022.039.042.082.082.116.119.199.221.292.443.425.701z"/><path fill="#304454" d="M71.34 103.716c.227.323.402.712.677.957.229-.522.27-.24.57.196.218.317.375.43.654.603.74.457 1.407 1.385 1.932 2.218.69 1.094 1.179 2.281 1.507 3.598.16.645.266 1.237.294 1.904.024.57-.104 1.092-.107 1.632.532-.303.688-1.187.604-1.913.162.08.244.342.38.482 1.05-3.178.793-9.796-5.325-12.686-.615-.29-1.551.404-1.88 1.228-.317.795.12 2.146.82 2.461.006-.183-.016-.524-.125-.68z"/><path fill="#efefef" d="M70.903 94.508a2.864 2.864 0 0 0-.19-.771c.214-.68.235-1.506.009-2.348-.485-1.814-1.918-3.005-3.2-2.662-.967.259-1.571 1.317-1.601 2.6-.033.002-.066.002-.1.005a6.301 6.301 0 0 0-.816.14c-.421-.983-1.182-1.643-2.055-1.643-1.327 0-2.402 1.522-2.402 3.399 0 1.158.41 2.179 1.035 2.793.537 1.692 2.608 2.82 4.955 2.59 2.608-.255 4.562-2.093 4.365-4.103z"/><ellipse cx="63.031" cy="93.33" rx=".494" ry=".686" fill="#304454" transform="rotate(-8.893 63.03 93.33)"/><ellipse cx="68.8" cy="92.119" rx=".494" ry=".686" fill="#304454" transform="rotate(-8.893 68.8 92.12)"/><ellipse cx="66.138" cy="109.383" rx="9.016" ry="6.577" fill="#efefef" transform="rotate(84.388 66.138 109.383)"/><path fill="#f89c44" d="M67.204 95.186c-.547.595-1.319.545-2.047.443l-.864-.049c.19-.025.797.585 1.011.74.34.246.684.484 1.091.562.346.065.849.19 1.16-.038.277-.205.46-.68.585-.992.216-.533.194-1.157.466-1.672-.597.008-1.043.618-1.401 1.006z"/><path fill="#d14e3f" d="M64.934 95.728c.68.171 1.39 1.15 2.145.838.615-.254.928-1.441 1.105-2.022.018-.061.048-.115.077-.17-.589.204-.915.731-1.379 1.089-.22.17-.545.233-.815.259-.304.03-.458-.082-.738-.142"/><path fill="#f89c44" d="M64.189 95.584v-.025c.418.129.874.156 1.307.248.094.02.202.044.316.067.305.062.654.114.916.055.35-.078.589-.43.782-.721a2.51 2.51 0 0 1 .625-.655c.161-.12.349-.213.471-.376-.11-.168-.37-.13-.545-.103-.248.037-.397.063-.642-.013-.275-.086-.516-.204-.784-.248-.651-.108-1.072.317-1.416.807-.113.162-.257.28-.405.389-.15.11-.302.214-.433.347-.072.073-.118.154-.192.228z"/><path fill="#304454" d="M94.627 105.186c-1.076.717-2.251 1.236-3.558 1.598a9.244 9.244 0 0 1-1.897.342c-.57.038-1.094-.076-1.634-.065.316.523 1.204.657 1.928.555-.076.164-.336.252-.472.393.342.354 6.658 1.128 7.36.788.488-.237 1.098-.482 1.34-.901-.13.245-.472.476-.535.717.428.075 1.25-.542 1.576-.76.434-.29.84-.568 1.16-.932 1.124-1.275 1.813-3.114 1.645-4.559-.079-.675-.443-1.54-1.276-1.848-.802-.297-4.818 4.126-5.637 4.672z"/><path fill="#f89c44" d="M106.873 114.683c.345.122.835 2.046 1.01 2.478.128.315.184.629-.248.685-.254.032-.893-.086-.858.362.039.479.817.375 1.101.511.205.098.696.142.938.175.389.054 1.317.066 1.301-.175.317-.117.88-.066 1.233.022.705.096.37-.471.195-.558-.28-.137-.573-.302-.877-.409-.412-.145-.834-.244-1.237-.423-1.13-.039-1.546-2.879-1.473-3.049M99.767 114.683c-.003.575-.28 2.426-.419 2.725-.34.733-1.533.384-2.076.857-.424.368.131.472.438.442.333-.033 1.22.066 1.43.184.373.21 1.085-.174 1.166-.229.064-.043.906.112 1.329.117.608.007.023-.629-.252-.758-1.52-.537-.938-2.52-.663-3.452"/><path fill="#304454" d="M113.529 106.713c.049-.322-.055-.75-.08-1.079-.029-.394-.031-.785-.178-1.158-.165-5.036-4.421-4.129-2.523-7.412.263-.573.814-1.653.398-3.858-1.059-5.611-5.628-5.854-5.928-5.654.507-.338 1.11-.293 1.687-.258.581.034 1.119.298 1.676.374-.696-.577-1.707-.937-2.621-.945-.532-.005-1.022.018-1.542.136-.387.087-.712.278-1.075.404.322-.933 1.481-1.061 2.353-1.054-.475-.205-1.304-.006-1.771.165-.477.174-1.088.409-1.395.825.243-.473.397-.863.859-1.19a4.428 4.428 0 0 1 1.068-.564c-.661.165-1.314.346-1.866.8-.406.334-.682.852-.832 1.356.007-.418.037-.792-.233-1.133-.319-.405-.648-.314-1.079-.194.343.057.777.22.906.62.12.37-.027 1.009-.335 1.2-6.8 4.257-1.378 11.11-1.258 11.2.05.037.01 1.131-.178 1.481-.27 1.409-9.87 16.238 4.867 17.775 4.853.507 8.835-3.552 8.835-7.934 0-1.04-.373-4.038-.545-4.688.087.34.451.613.453.987.011-.372-.087-.692-.204-1.022.039.042.082.082.116.119.199.221.292.443.425.701z"/><path fill="#304454" d="M109.875 103.716c.226.323.401.712.676.957.229-.522.271-.24.57.196.218.317.375.43.654.603.741.457 1.407 1.385 1.932 2.218.69 1.094 1.179 2.281 1.507 3.598.161.645.266 1.237.294 1.904.024.57-.104 1.092-.107 1.632.532-.303.688-1.187.604-1.913.162.08.244.342.381.482 1.049-3.178.792-9.796-5.326-12.686-.615-.29-1.551.404-1.88 1.228-.317.795.12 2.146.82 2.461.006-.183-.016-.524-.125-.68z"/><path fill="#efefef" d="M109.437 94.508a2.864 2.864 0 0 0-.189-.771c.213-.68.234-1.506.008-2.348-.485-1.814-1.918-3.005-3.2-2.662-.967.259-1.571 1.317-1.601 2.6-.033.002-.066.002-.099.005a6.301 6.301 0 0 0-.817.14c-.421-.983-1.182-1.643-2.055-1.643-1.327 0-2.402 1.522-2.402 3.399 0 1.158.41 2.179 1.035 2.793.537 1.692 2.608 2.82 4.955 2.59 2.608-.255 4.562-2.093 4.365-4.103z"/><ellipse cx="101.565" cy="93.33" rx=".494" ry=".686" fill="#304454" transform="rotate(-8.893 101.565 93.33)"/><ellipse cx="107.334" cy="92.119" rx=".494" ry=".686" fill="#304454" transform="rotate(-8.893 107.334 92.12)"/><ellipse cx="104.672" cy="109.383" rx="9.016" ry="6.577" fill="#efefef" transform="rotate(84.388 104.672 109.383)"/><path fill="#f89c44" d="M105.739 95.186c-.548.595-1.319.545-2.048.443l-.863-.049c.19-.025.797.585 1.011.74.34.246.684.484 1.091.562.345.065.848.19 1.159-.038.278-.205.46-.68.586-.992.215-.533.193-1.157.466-1.672-.598.008-1.044.618-1.402 1.006z"/><path fill="#d14e3f" d="M103.468 95.728c.679.171 1.39 1.15 2.145.838.615-.254.928-1.441 1.105-2.022.018-.061.048-.115.077-.17-.589.204-.915.731-1.379 1.089-.22.17-.545.233-.815.259-.304.03-.458-.082-.738-.142"/><path fill="#f89c44" d="M102.723 95.584v-.025c.418.129.874.156 1.307.248.094.02.202.044.316.067.305.062.655.114.917.055.35-.078.588-.43.782-.721a2.51 2.51 0 0 1 .625-.655c.161-.12.348-.213.471-.376-.11-.168-.371-.13-.546-.103-.247.037-.396.063-.641-.013-.276-.086-.517-.204-.785-.248-.651-.108-1.071.317-1.415.807-.114.162-.258.28-.406.389-.149.11-.302.214-.433.347-.071.073-.118.154-.192.228z"/><path fill="#304454" d="M17.559 143.72c-1.076.717-2.251 1.236-3.558 1.598a9.244 9.244 0 0 1-1.897.342c-.57.038-1.094-.076-1.634-.065.316.523 1.204.657 1.928.555-.076.164-.336.252-.472.393.342.354 6.658 1.128 7.36.788.488-.237 1.098-.482 1.34-.901-.13.245-.472.476-.535.717.428.075 1.25-.542 1.576-.76.434-.29.84-.568 1.16-.932 1.124-1.275 1.813-3.114 1.645-4.559-.08-.675-.443-1.54-1.276-1.848-.802-.297-4.818 4.126-5.637 4.672z"/><path fill="#f89c44" d="M29.805 153.217c.345.122.835 2.046 1.01 2.478.128.315.184.629-.248.685-.254.032-.893-.086-.858.362.04.479.817.375 1.101.511.205.098.696.142.938.175.39.054 1.317.066 1.301-.175.317-.117.88-.066 1.233.022.705.096.37-.471.195-.558-.28-.137-.573-.302-.877-.409-.412-.145-.834-.244-1.237-.423-1.13-.039-1.546-2.879-1.473-3.049M22.7 153.217c-.004.575-.28 2.426-.42 2.725-.34.733-1.533.384-2.076.857-.424.368.131.472.438.442.333-.033 1.22.066 1.43.184.373.21 1.085-.174 1.166-.229.064-.043.906.112 1.33.117.607.007.022-.629-.253-.758-1.52-.537-.938-2.52-.663-3.452"/><path fill="#304454" d="M36.46 145.247c.05-.322-.054-.75-.08-1.079-.028-.394-.03-.785-.177-1.158-.165-5.036-4.421-4.129-2.523-7.412.263-.573.814-1.653.398-3.858-1.06-5.611-5.628-5.854-5.928-5.654.507-.338 1.11-.293 1.687-.258.58.034 1.119.298 1.676.374-.696-.577-1.707-.937-2.621-.945-.532-.005-1.022.018-1.542.136-.387.087-.712.278-1.075.404.322-.933 1.48-1.061 2.353-1.054-.475-.205-1.304-.006-1.771.165-.477.174-1.088.409-1.395.825.243-.473.397-.863.859-1.189a4.428 4.428 0 0 1 1.068-.565c-.661.165-1.314.346-1.866.8-.406.334-.682.852-.832 1.356.007-.418.037-.792-.233-1.133-.32-.405-.648-.314-1.08-.194.344.057.778.22.907.621.12.37-.027 1.008-.335 1.2-6.8 4.256-1.378 11.11-1.258 11.199.05.037.01 1.131-.178 1.481-.27 1.409-9.87 16.238 4.867 17.775 4.853.507 8.835-3.552 8.835-7.934 0-1.04-.373-4.038-.545-4.688.087.34.45.613.453.987.01-.372-.087-.692-.204-1.022.039.042.082.082.116.119.199.221.292.443.425.701z"/><path fill="#304454" d="M32.807 142.25c.226.323.4.712.676.957.229-.522.27-.24.57.196.218.317.375.43.654.603.74.457 1.407 1.385 1.932 2.218.69 1.094 1.179 2.281 1.507 3.598.16.645.266 1.237.294 1.904.024.57-.104 1.092-.107 1.632.532-.303.688-1.187.604-1.913.162.08.244.342.38.482 1.05-3.178.793-9.796-5.325-12.686-.615-.29-1.551.404-1.88 1.228-.317.795.12 2.146.82 2.461.006-.183-.016-.524-.125-.68z"/><path fill="#efefef" d="M32.369 133.042a2.864 2.864 0 0 0-.19-.771c.214-.68.235-1.506.009-2.348-.485-1.814-1.918-3.005-3.2-2.662-.967.259-1.571 1.317-1.601 2.6-.033.002-.066.002-.1.005a6.301 6.301 0 0 0-.816.14c-.421-.983-1.182-1.643-2.055-1.643-1.327 0-2.402 1.522-2.402 3.399 0 1.158.41 2.179 1.035 2.793.537 1.692 2.608 2.821 4.955 2.591 2.608-.256 4.562-2.094 4.365-4.104z"/><ellipse cx="24.497" cy="131.864" rx=".494" ry=".686" fill="#304454" transform="rotate(-8.893 24.497 131.864)"/><ellipse cx="30.266" cy="130.653" rx=".494" ry=".686" fill="#304454" transform="rotate(-8.893 30.266 130.653)"/><ellipse cx="27.604" cy="147.917" rx="9.016" ry="6.577" fill="#efefef" transform="rotate(84.388 27.604 147.917)"/><path fill="#f89c44" d="M28.67 133.72c-.548.595-1.319.545-2.048.443l-.863-.049c.19-.025.797.585 1.011.74.34.246.684.484 1.091.562.345.065.848.189 1.16-.038.277-.205.46-.681.585-.992.215-.533.193-1.157.466-1.672-.598.008-1.043.618-1.401 1.006z"/><path fill="#d14e3f" d="M26.4 134.262c.68.171 1.39 1.15 2.145.838.615-.254.928-1.441 1.105-2.022.018-.061.048-.115.077-.17-.589.204-.915.731-1.379 1.089-.22.17-.545.233-.815.259-.304.03-.458-.082-.738-.142"/><path fill="#f89c44" d="M25.654 134.118v-.025c.419.129.875.156 1.308.248.093.02.201.044.316.067.305.062.655.114.917.055.35-.078.587-.43.782-.721a2.51 2.51 0 0 1 .625-.655c.16-.119.348-.213.47-.376-.11-.168-.37-.129-.546-.103-.247.037-.395.063-.64-.013-.276-.086-.517-.204-.785-.248-.651-.108-1.072.317-1.415.807-.114.162-.259.28-.407.389-.148.111-.302.214-.433.347-.07.073-.117.154-.192.228z"/><path fill="#304454" d="M56.093 143.72c-1.076.717-2.251 1.236-3.558 1.598a9.244 9.244 0 0 1-1.897.342c-.57.038-1.094-.076-1.634-.065.316.523 1.204.657 1.928.555-.076.164-.336.252-.472.393.342.354 6.658 1.128 7.36.788.488-.237 1.098-.482 1.34-.901-.13.245-.472.476-.535.717.428.075 1.25-.542 1.576-.76.434-.29.84-.568 1.16-.932 1.124-1.275 1.813-3.114 1.645-4.559-.08-.675-.443-1.54-1.276-1.848-.802-.297-4.818 4.126-5.637 4.672z"/><path fill="#f89c44" d="M68.34 153.217c.344.122.834 2.046 1.01 2.478.127.315.183.629-.249.685-.254.032-.893-.086-.858.362.04.479.817.375 1.101.511.205.098.696.142.938.175.39.054 1.317.066 1.301-.175.317-.117.88-.066 1.233.022.705.096.37-.471.195-.558-.28-.137-.573-.302-.877-.409-.412-.145-.834-.244-1.237-.423-1.13-.039-1.546-2.879-1.473-3.049M61.233 153.217c-.003.575-.28 2.426-.419 2.725-.34.733-1.533.384-2.076.857-.424.368.131.472.438.442.333-.033 1.22.066 1.43.184.373.21 1.085-.174 1.166-.229.064-.043.906.112 1.33.117.607.007.022-.629-.253-.758-1.52-.537-.938-2.52-.663-3.452"/><path fill="#304454" d="M74.995 145.247c.049-.322-.055-.75-.08-1.079-.03-.394-.031-.785-.178-1.158-.165-5.036-4.421-4.129-2.523-7.412.263-.573.814-1.653.398-3.858-1.06-5.611-5.628-5.854-5.928-5.654.507-.338 1.11-.293 1.687-.258.58.034 1.119.298 1.676.374-.696-.577-1.707-.937-2.621-.945-.532-.005-1.022.018-1.542.136-.387.087-.712.278-1.075.404.322-.933 1.48-1.061 2.353-1.054-.475-.205-1.304-.006-1.771.165-.477.174-1.088.409-1.395.825.243-.473.397-.863.859-1.189a4.428 4.428 0 0 1 1.068-.565c-.661.165-1.314.346-1.866.8-.406.334-.682.852-.832 1.356.007-.418.037-.792-.233-1.133-.32-.405-.648-.314-1.08-.194.344.057.778.22.907.621.12.37-.027 1.008-.335 1.2-6.8 4.256-1.378 11.11-1.258 11.199.05.037.01 1.131-.178 1.481-.27 1.409-9.87 16.238 4.867 17.775 4.853.507 8.835-3.552 8.835-7.934 0-1.04-.373-4.038-.545-4.688.087.34.45.613.453.987.01-.372-.087-.692-.204-1.022.039.042.082.082.116.119.199.221.292.443.425.701z"/><path fill="#304454" d="M71.34 142.25c.227.323.402.712.677.957.229-.522.27-.24.57.196.218.317.375.43.654.603.74.457 1.407 1.385 1.932 2.218.69 1.094 1.179 2.281 1.507 3.598.16.645.266 1.237.294 1.904.024.57-.104 1.092-.107 1.632.532-.303.688-1.187.604-1.913.162.08.244.342.38.482 1.05-3.178.793-9.796-5.325-12.686-.615-.29-1.551.404-1.88 1.228-.317.795.12 2.146.82 2.461.006-.183-.016-.524-.125-.68z"/><path fill="#efefef" d="M70.903 133.042a2.864 2.864 0 0 0-.19-.771c.214-.68.235-1.506.009-2.348-.485-1.814-1.918-3.005-3.2-2.662-.967.259-1.571 1.317-1.601 2.6-.033.002-.066.002-.1.005a6.301 6.301 0 0 0-.816.14c-.421-.983-1.182-1.643-2.055-1.643-1.327 0-2.402 1.522-2.402 3.399 0 1.158.41 2.179 1.035 2.793.537 1.692 2.608 2.821 4.955 2.591 2.608-.256 4.562-2.094 4.365-4.104z"/><ellipse cx="63.031" cy="131.864" rx=".494" ry=".686" fill="#304454" transform="rotate(-8.893 63.03 131.864)"/><ellipse cx="68.8" cy="130.653" rx=".494" ry=".686" fill="#304454" transform="rotate(-8.893 68.8 130.653)"/><ellipse cx="66.138" cy="147.917" rx="9.016" ry="6.577" fill="#efefef" transform="rotate(84.388 66.138 147.917)"/><path fill="#f89c44" d="M67.204 133.72c-.547.595-1.319.545-2.047.443l-.864-.049c.19-.025.797.585 1.011.74.34.246.684.484 1.091.562.346.065.849.189 1.16-.038.277-.205.46-.681.585-.992.216-.533.194-1.157.466-1.672-.597.008-1.043.618-1.401 1.006z"/><path fill="#d14e3f" d="M64.934 134.262c.68.171 1.39 1.15 2.145.838.615-.254.928-1.441 1.105-2.022.018-.061.048-.115.077-.17-.589.204-.915.731-1.379 1.089-.22.17-.545.233-.815.259-.304.03-.458-.082-.738-.142"/><path fill="#f89c44" d="M64.189 134.118v-.025c.418.129.874.156 1.307.248.094.02.202.044.316.067.305.062.654.114.916.055.35-.078.589-.43.782-.721a2.51 2.51 0 0 1 .625-.655c.161-.119.349-.213.471-.376-.11-.168-.37-.129-.545-.103-.248.037-.397.063-.642-.013-.275-.086-.516-.204-.784-.248-.651-.108-1.072.317-1.416.807-.113.162-.257.28-.405.389-.15.111-.302.214-.433.347-.072.073-.118.154-.192.228z"/><path fill="#304454" d="M94.627 143.72c-1.076.717-2.251 1.236-3.558 1.598a9.244 9.244 0 0 1-1.897.342c-.57.038-1.094-.076-1.634-.065.316.523 1.204.657 1.928.555-.076.164-.336.252-.472.393.342.354 6.658 1.128 7.36.788.488-.237 1.098-.482 1.34-.901-.13.245-.472.476-.535.717.428.075 1.25-.542 1.576-.76.434-.29.84-.568 1.16-.932 1.124-1.275 1.813-3.114 1.645-4.559-.079-.675-.443-1.54-1.276-1.848-.802-.297-4.818 4.126-5.637 4.672z"/><path fill="#f89c44" d="M106.873 153.217c.345.122.835 2.046 1.01 2.478.128.315.184.629-.248.685-.254.032-.893-.086-.858.362.039.479.817.375 1.101.511.205.098.696.142.938.175.389.054 1.317.066 1.301-.175.317-.117.88-.066 1.233.022.705.096.37-.471.195-.558-.28-.137-.573-.302-.877-.409-.412-.145-.834-.244-1.237-.423-1.13-.039-1.546-2.879-1.473-3.049M99.767 153.217c-.003.575-.28 2.426-.419 2.725-.34.733-1.533.384-2.076.857-.424.368.131.472.438.442.333-.033 1.22.066 1.43.184.373.21 1.085-.174 1.166-.229.064-.043.906.112 1.329.117.608.007.023-.629-.252-.758-1.52-.537-.938-2.52-.663-3.452"/><path fill="#304454" d="M113.529 145.247c.049-.322-.055-.75-.08-1.079-.029-.394-.031-.785-.178-1.158-.165-5.036-4.421-4.129-2.523-7.412.263-.573.814-1.653.398-3.858-1.059-5.611-5.628-5.854-5.928-5.654.507-.338 1.11-.293 1.687-.258.581.034 1.119.298 1.676.374-.696-.577-1.707-.937-2.621-.945-.532-.005-1.022.018-1.542.136-.387.087-.712.278-1.075.404.322-.933 1.481-1.061 2.353-1.054-.475-.205-1.304-.006-1.771.165-.477.174-1.088.409-1.395.825.243-.473.397-.863.859-1.189a4.428 4.428 0 0 1 1.068-.565c-.661.165-1.314.346-1.866.8-.406.334-.682.852-.832 1.356.007-.418.037-.792-.233-1.133-.319-.405-.648-.314-1.079-.194.343.057.777.22.906.621.12.37-.027 1.008-.335 1.2-6.8 4.256-1.378 11.11-1.258 11.199.05.037.01 1.131-.178 1.481-.27 1.409-9.87 16.238 4.867 17.775 4.853.507 8.835-3.552 8.835-7.934 0-1.04-.373-4.038-.545-4.688.087.34.451.613.453.987.011-.372-.087-.692-.204-1.022.039.042.082.082.116.119.199.221.292.443.425.701z"/><path fill="#304454" d="M109.875 142.25c.226.323.401.712.676.957.229-.522.271-.24.57.196.218.317.375.43.654.603.741.457 1.407 1.385 1.932 2.218.69 1.094 1.179 2.281 1.507 3.598.161.645.266 1.237.294 1.904.024.57-.104 1.092-.107 1.632.532-.303.688-1.187.604-1.913.162.08.244.342.381.482 1.049-3.178.792-9.796-5.326-12.686-.615-.29-1.551.404-1.88 1.228-.317.795.12 2.146.82 2.461.006-.183-.016-.524-.125-.68z"/><path fill="#efefef" d="M109.437 133.042a2.864 2.864 0 0 0-.189-.771c.213-.68.234-1.506.008-2.348-.485-1.814-1.918-3.005-3.2-2.662-.967.259-1.571 1.317-1.601 2.6-.033.002-.066.002-.099.005a6.301 6.301 0 0 0-.817.14c-.421-.983-1.182-1.643-2.055-1.643-1.327 0-2.402 1.522-2.402 3.399 0 1.158.41 2.179 1.035 2.793.537 1.692 2.608 2.821 4.955 2.591 2.608-.256 4.562-2.094 4.365-4.104z"/><ellipse cx="101.565" cy="131.864" rx=".494" ry=".686" fill="#304454" transform="rotate(-8.893 101.565 131.864)"/><ellipse cx="107.334" cy="130.653" rx=".494" ry=".686" fill="#304454" transform="rotate(-8.893 107.334 130.653)"/><ellipse cx="104.672" cy="147.917" rx="9.016" ry="6.577" fill="#efefef" transform="rotate(84.388 104.672 147.917)"/><path fill="#f89c44" d="M105.739 133.72c-.548.595-1.319.545-2.048.443l-.863-.049c.19-.025.797.585 1.011.74.34.246.684.484 1.091.562.345.065.848.189 1.159-.038.278-.205.46-.681.586-.992.215-.533.193-1.157.466-1.672-.598.008-1.044.618-1.402 1.006z"/><path fill="#d14e3f" d="M103.468 134.262c.679.171 1.39 1.15 2.145.838.615-.254.928-1.441 1.105-2.022.018-.061.048-.115.077-.17-.589.204-.915.731-1.379 1.089-.22.17-.545.233-.815.259-.304.03-.458-.082-.738-.142"/><path fill="#f89c44" d="M102.723 134.118v-.025c.418.129.874.156 1.307.248.094.02.202.044.316.067.305.062.655.114.917.055.35-.078.588-.43.782-.721a2.51 2.51 0 0 1 .625-.655c.161-.119.348-.213.471-.376-.11-.168-.371-.129-.546-.103-.247.037-.396.063-.641-.013-.276-.086-.517-.204-.785-.248-.651-.108-1.071.317-1.415.807-.114.162-.258.28-.406.389-.149.111-.302.214-.433.347-.071.073-.118.154-.192.228z"/></svg>
