<svg xmlns="http://www.w3.org/2000/svg" width="200" height="83.544" viewBox="0 0 200 83.54430379746834"><defs><linearGradient id="a" x2="1"><stop offset="0%" stop-color="#f89d6c"/><stop offset="28.83%" stop-color="#fbb069"/><stop offset="65.73%" stop-color="#ffcc5f"/><stop offset="100%" stop-color="#ffcc5f"/></linearGradient><linearGradient id="b" x2="1"><stop offset="0%" stop-color="#f89d6c"/><stop offset="28.83%" stop-color="#fbb069"/><stop offset="65.73%" stop-color="#ffcc5f"/><stop offset="100%" stop-color="#ffcc5f"/></linearGradient><linearGradient id="c" x2="1"><stop offset="0%" stop-color="#f89d6c"/><stop offset="28.83%" stop-color="#fbb069"/><stop offset="65.73%" stop-color="#ffcc5f"/><stop offset="100%" stop-color="#ffcc5f"/></linearGradient><linearGradient id="d" x2="1"><stop offset="0%" stop-color="#f89d6c"/><stop offset="28.83%" stop-color="#fbb069"/><stop offset="65.73%" stop-color="#ffcc5f"/><stop offset="100%" stop-color="#ffcc5f"/></linearGradient><linearGradient id="e" x2="1"><stop offset="0%" stop-color="#f89d6c"/><stop offset="28.83%" stop-color="#fbb069"/><stop offset="65.73%" stop-color="#ffcc5f"/><stop offset="100%" stop-color="#ffcc5f"/></linearGradient><linearGradient id="f" x2="1"><stop offset="0%" stop-color="#f89d6c"/><stop offset="28.83%" stop-color="#fbb069"/><stop offset="65.73%" stop-color="#ffcc5f"/><stop offset="100%" stop-color="#ffcc5f"/></linearGradient><linearGradient id="g" x2="1"><stop offset="0%" stop-color="#f89d6c"/><stop offset="28.83%" stop-color="#fbb069"/><stop offset="65.73%" stop-color="#ffcc5f"/><stop offset="100%" stop-color="#ffcc5f"/></linearGradient><linearGradient id="h" x2="1"><stop offset="0%" stop-color="#f89d6c"/><stop offset="28.83%" stop-color="#fbb069"/><stop offset="65.73%" stop-color="#ffcc5f"/><stop offset="100%" stop-color="#ffcc5f"/></linearGradient><linearGradient id="i" x2="1"><stop offset="0%" stop-color="#f89d6c"/><stop offset="28.83%" stop-color="#fbb069"/><stop offset="65.73%" stop-color="#ffcc5f"/><stop offset="100%" stop-color="#ffcc5f"/></linearGradient><linearGradient id="j" x2="1"><stop offset="0%" stop-color="#f89d6c"/><stop offset="28.83%" stop-color="#fbb069"/><stop offset="65.73%" stop-color="#ffcc5f"/><stop offset="100%" stop-color="#ffcc5f"/></linearGradient></defs><path fill="#ccaa4f" d="M42.194 20.362l-1.538.255L8.67 25.96l.05-.046-.28.047v4.471c.163-.066.341-.104.527-.104.82 0 1.483.695 1.483 1.55 0 .854-.664 1.548-1.483 1.548a1.43 1.43 0 0 1-.528-.103v4.85l33.67-5.68.085-12.13"/><path fill="#f89c44" d="M15.266 20.154s.022 1.786.022 2.82l2.678-2.68-2.7-.14z"/><path fill="#d78334" d="M39.226 25.231a1.483 1.483 0 1 1-1.483-1.485c.82 0 1.483.664 1.483 1.485z"/><path fill="#eec65e" d="M24.83 12.46c-.344 0-.53.014-.53.014l-9.034 7.68c.634.245 1.055.679 1.055 1.173 0 .766-1.01 1.388-2.258 1.388-.545 0-1.045-.12-1.435-.316l-4.189 3.56.28-.046.661-.607 31.615-5.98 1.006 1.066-1.346.225 1.538-.255c-6.808-7.395-15.197-7.901-17.364-7.901"/><ellipse cx="24.128" cy="18.424" rx="2.129" ry="1.516" fill="#f89c44"/><ellipse cx="17.999" cy="28.812" rx="2.452" ry="2.355" fill="#d78334"/><path fill="url(#a)" d="M40.656 20.617L8.719 25.913l-.05.046 31.987-5.342"/><path fill="#eec65e" d="M40.996 19.327L9.381 25.306l-.662.607 31.937-5.296 1.346-.224-1.006-1.066"/><ellipse cx="29.129" cy="23.585" rx="2.291" ry="2.226" fill="#d78334"/><path fill="#ccaa4f" d="M81.013 20.362l-1.538.255-31.986 5.342.049-.046-.28.047v4.471c.164-.066.342-.104.528-.104.819 0 1.483.695 1.483 1.55 0 .854-.664 1.548-1.483 1.548a1.43 1.43 0 0 1-.528-.103v4.85l33.67-5.68.085-12.13"/><path fill="#f89c44" d="M54.085 20.154s.022 1.786.022 2.82l2.678-2.68-2.7-.14z"/><path fill="#d78334" d="M78.044 25.231a1.483 1.483 0 1 1-1.483-1.485c.82 0 1.483.664 1.483 1.485z"/><path fill="#eec65e" d="M63.648 12.46c-.343 0-.53.014-.53.014l-9.033 7.68c.634.245 1.055.679 1.055 1.173 0 .766-1.01 1.388-2.258 1.388-.545 0-1.045-.12-1.435-.316l-4.19 3.56.28-.046.662-.607 31.615-5.98 1.006 1.066-1.346.225 1.538-.255c-6.808-7.395-15.197-7.901-17.364-7.901"/><ellipse cx="62.947" cy="18.424" rx="2.129" ry="1.516" fill="#f89c44"/><ellipse cx="56.817" cy="28.812" rx="2.452" ry="2.355" fill="#d78334"/><path fill="url(#b)" d="M79.474 20.617l-31.937 5.296-.049.046 31.986-5.342"/><path fill="#eec65e" d="M79.814 19.327L48.2 25.306l-.663.607 31.938-5.296 1.346-.224-1.007-1.066"/><ellipse cx="67.947" cy="23.585" rx="2.291" ry="2.226" fill="#d78334"/><path fill="#ccaa4f" d="M119.831 20.362l-1.538.255-31.986 5.342.05-.046-.28.047v4.471c.163-.066.341-.104.527-.104.82 0 1.483.695 1.483 1.55 0 .854-.664 1.548-1.483 1.548a1.43 1.43 0 0 1-.528-.103v4.85l33.67-5.68.085-12.13"/><path fill="#f89c44" d="M92.903 20.154s.022 1.786.022 2.82l2.678-2.68-2.7-.14z"/><path fill="#d78334" d="M116.863 25.231a1.483 1.483 0 1 1-1.483-1.485c.82 0 1.483.664 1.483 1.485z"/><path fill="#eec65e" d="M102.466 12.46c-.343 0-.53.014-.53.014l-9.033 7.68c.634.245 1.055.679 1.055 1.173 0 .766-1.01 1.388-2.258 1.388-.545 0-1.045-.12-1.435-.316l-4.189 3.56.28-.046.661-.607 31.615-5.98 1.006 1.066-1.346.225 1.538-.255c-6.808-7.395-15.197-7.901-17.364-7.901"/><ellipse cx="101.766" cy="18.424" rx="2.129" ry="1.516" fill="#f89c44"/><ellipse cx="95.636" cy="28.812" rx="2.452" ry="2.355" fill="#d78334"/><path fill="url(#c)" d="M118.293 20.617l-31.937 5.296-.049.046 31.986-5.342"/><path fill="#eec65e" d="M118.633 19.327l-31.615 5.979-.662.607 31.937-5.296 1.346-.224-1.006-1.066"/><ellipse cx="106.766" cy="23.585" rx="2.291" ry="2.226" fill="#d78334"/><path fill="#ccaa4f" d="M158.65 20.362l-1.538.255-31.986 5.342.049-.046-.28.047v4.471c.164-.066.342-.104.528-.104.819 0 1.483.695 1.483 1.55 0 .854-.664 1.548-1.483 1.548a1.43 1.43 0 0 1-.528-.103v4.85l33.67-5.68.085-12.13"/><path fill="#f89c44" d="M131.722 20.154s.022 1.786.022 2.82l2.678-2.68-2.7-.14z"/><path fill="#d78334" d="M155.682 25.231a1.483 1.483 0 1 1-1.483-1.485c.82 0 1.483.664 1.483 1.485z"/><path fill="#eec65e" d="M141.285 12.46c-.343 0-.53.014-.53.014l-9.033 7.68c.634.245 1.055.679 1.055 1.173 0 .766-1.01 1.388-2.258 1.388-.545 0-1.045-.12-1.435-.316l-4.189 3.56.28-.046.661-.607 31.615-5.98 1.006 1.066-1.346.225 1.538-.255c-6.808-7.395-15.197-7.901-17.364-7.901"/><ellipse cx="140.584" cy="18.424" rx="2.129" ry="1.516" fill="#f89c44"/><ellipse cx="134.454" cy="28.812" rx="2.452" ry="2.355" fill="#d78334"/><path fill="url(#d)" d="M157.112 20.617l-31.937 5.296-.049.046 31.986-5.342"/><path fill="#eec65e" d="M157.452 19.327l-31.615 5.979-.662.607 31.937-5.296 1.346-.224-1.006-1.066"/><ellipse cx="145.585" cy="23.585" rx="2.291" ry="2.226" fill="#d78334"/><path fill="#ccaa4f" d="M197.468 20.362l-1.538.255-31.986 5.342.049-.046-.28.047v4.471c.164-.066.342-.104.528-.104.819 0 1.483.695 1.483 1.55 0 .854-.664 1.548-1.483 1.548a1.43 1.43 0 0 1-.528-.103v4.85l33.67-5.68.085-12.13"/><path fill="#f89c44" d="M170.54 20.154s.022 1.786.022 2.82l2.678-2.68-2.7-.14z"/><path fill="#d78334" d="M194.5 25.231a1.483 1.483 0 1 1-1.483-1.485c.82 0 1.483.664 1.483 1.485z"/><path fill="#eec65e" d="M180.103 12.46c-.343 0-.53.014-.53.014l-9.033 7.68c.634.245 1.055.679 1.055 1.173 0 .766-1.01 1.388-2.258 1.388-.545 0-1.045-.12-1.435-.316l-4.189 3.56.28-.046.661-.607 31.615-5.98 1.006 1.066-1.346.225 1.538-.255c-6.808-7.395-15.197-7.901-17.364-7.901"/><ellipse cx="179.403" cy="18.424" rx="2.129" ry="1.516" fill="#f89c44"/><ellipse cx="173.273" cy="28.812" rx="2.452" ry="2.355" fill="#d78334"/><path fill="url(#e)" d="M195.93 20.617l-31.937 5.296-.049.046 31.986-5.342"/><path fill="#eec65e" d="M196.27 19.327l-31.615 5.979-.662.607 31.937-5.296 1.346-.224-1.006-1.066"/><ellipse cx="184.403" cy="23.585" rx="2.291" ry="2.226" fill="#d78334"/><path fill="#ccaa4f" d="M42.194 59.18l-1.538.256L8.67 64.778l.05-.046-.28.047v4.47c.163-.065.341-.103.527-.103.82 0 1.483.695 1.483 1.55 0 .854-.664 1.548-1.483 1.548a1.43 1.43 0 0 1-.528-.103v4.85l33.67-5.681.085-12.13"/><path fill="#f89c44" d="M15.266 58.973s.022 1.786.022 2.819l2.678-2.68-2.7-.14z"/><path fill="#d78334" d="M39.226 64.05a1.483 1.483 0 1 1-1.483-1.485c.82 0 1.483.664 1.483 1.485z"/><path fill="#eec65e" d="M24.83 51.28c-.344 0-.53.012-.53.012l-9.034 7.68c.634.245 1.055.68 1.055 1.173 0 .766-1.01 1.388-2.258 1.388-.545 0-1.045-.12-1.435-.316L8.44 64.778l.28-.047.661-.607 31.615-5.979 1.006 1.065-1.346.225 1.538-.255c-6.808-7.395-15.197-7.9-17.364-7.9"/><ellipse cx="24.128" cy="57.242" rx="2.129" ry="1.516" fill="#f89c44"/><ellipse cx="17.999" cy="67.631" rx="2.452" ry="2.355" fill="#d78334"/><path fill="url(#f)" d="M40.656 59.436L8.719 64.732l-.05.046 31.987-5.342"/><path fill="#eec65e" d="M40.996 58.145l-31.615 5.98-.662.606 31.937-5.295 1.346-.224-1.006-1.067"/><ellipse cx="29.129" cy="62.404" rx="2.291" ry="2.226" fill="#d78334"/><path fill="#ccaa4f" d="M81.013 59.18l-1.538.256-31.986 5.342.049-.046-.28.047v4.47c.164-.065.342-.103.528-.103.819 0 1.483.695 1.483 1.55 0 .854-.664 1.548-1.483 1.548a1.43 1.43 0 0 1-.528-.103v4.85l33.67-5.681.085-12.13"/><path fill="#f89c44" d="M54.085 58.973s.022 1.786.022 2.819l2.678-2.68-2.7-.14z"/><path fill="#d78334" d="M78.044 64.05a1.483 1.483 0 1 1-1.483-1.485c.82 0 1.483.664 1.483 1.485z"/><path fill="#eec65e" d="M63.648 51.28c-.343 0-.53.012-.53.012l-9.033 7.68c.634.245 1.055.68 1.055 1.173 0 .766-1.01 1.388-2.258 1.388-.545 0-1.045-.12-1.435-.316l-4.19 3.561.28-.047.662-.607 31.615-5.979 1.006 1.065-1.346.225 1.538-.255c-6.808-7.395-15.197-7.9-17.364-7.9"/><ellipse cx="62.947" cy="57.242" rx="2.129" ry="1.516" fill="#f89c44"/><ellipse cx="56.817" cy="67.631" rx="2.452" ry="2.355" fill="#d78334"/><path fill="url(#g)" d="M79.474 59.436l-31.937 5.296-.049.046 31.986-5.342"/><path fill="#eec65e" d="M79.814 58.145L48.2 64.126l-.663.606 31.938-5.295 1.346-.224-1.007-1.067"/><ellipse cx="67.947" cy="62.404" rx="2.291" ry="2.226" fill="#d78334"/><path fill="#ccaa4f" d="M119.831 59.18l-1.538.256-31.986 5.342.05-.046-.28.047v4.47c.163-.065.341-.103.527-.103.82 0 1.483.695 1.483 1.55 0 .854-.664 1.548-1.483 1.548a1.43 1.43 0 0 1-.528-.103v4.85l33.67-5.681.085-12.13"/><path fill="#f89c44" d="M92.903 58.973s.022 1.786.022 2.819l2.678-2.68-2.7-.14z"/><path fill="#d78334" d="M116.863 64.05a1.483 1.483 0 1 1-1.483-1.485c.82 0 1.483.664 1.483 1.485z"/><path fill="#eec65e" d="M102.466 51.28c-.343 0-.53.012-.53.012l-9.033 7.68c.634.245 1.055.68 1.055 1.173 0 .766-1.01 1.388-2.258 1.388-.545 0-1.045-.12-1.435-.316l-4.189 3.561.28-.047.661-.607 31.615-5.979 1.006 1.065-1.346.225 1.538-.255c-6.808-7.395-15.197-7.9-17.364-7.9"/><ellipse cx="101.766" cy="57.242" rx="2.129" ry="1.516" fill="#f89c44"/><ellipse cx="95.636" cy="67.631" rx="2.452" ry="2.355" fill="#d78334"/><path fill="url(#h)" d="M118.293 59.436l-31.937 5.296-.049.046 31.986-5.342"/><path fill="#eec65e" d="M118.633 58.145l-31.615 5.98-.662.606 31.937-5.295 1.346-.224-1.006-1.067"/><ellipse cx="106.766" cy="62.404" rx="2.291" ry="2.226" fill="#d78334"/><path fill="#ccaa4f" d="M158.65 59.18l-1.538.256-31.986 5.342.049-.046-.28.047v4.47c.164-.065.342-.103.528-.103.819 0 1.483.695 1.483 1.55 0 .854-.664 1.548-1.483 1.548a1.43 1.43 0 0 1-.528-.103v4.85l33.67-5.681.085-12.13"/><path fill="#f89c44" d="M131.722 58.973s.022 1.786.022 2.819l2.678-2.68-2.7-.14z"/><path fill="#d78334" d="M155.682 64.05a1.483 1.483 0 1 1-1.483-1.485c.82 0 1.483.664 1.483 1.485z"/><path fill="#eec65e" d="M141.285 51.28c-.343 0-.53.012-.53.012l-9.033 7.68c.634.245 1.055.68 1.055 1.173 0 .766-1.01 1.388-2.258 1.388-.545 0-1.045-.12-1.435-.316l-4.189 3.561.28-.047.661-.607 31.615-5.979 1.006 1.065-1.346.225 1.538-.255c-6.808-7.395-15.197-7.9-17.364-7.9"/><ellipse cx="140.584" cy="57.242" rx="2.129" ry="1.516" fill="#f89c44"/><ellipse cx="134.454" cy="67.631" rx="2.452" ry="2.355" fill="#d78334"/><path fill="url(#i)" d="M157.112 59.436l-31.937 5.296-.049.046 31.986-5.342"/><path fill="#eec65e" d="M157.452 58.145l-31.615 5.98-.662.606 31.937-5.295 1.346-.224-1.006-1.067"/><ellipse cx="145.585" cy="62.404" rx="2.291" ry="2.226" fill="#d78334"/><path fill="#ccaa4f" d="M197.468 59.18l-1.538.256-31.986 5.342.049-.046-.28.047v4.47c.164-.065.342-.103.528-.103.819 0 1.483.695 1.483 1.55 0 .854-.664 1.548-1.483 1.548a1.43 1.43 0 0 1-.528-.103v4.85l33.67-5.681.085-12.13"/><path fill="#f89c44" d="M170.54 58.973s.022 1.786.022 2.819l2.678-2.68-2.7-.14z"/><path fill="#d78334" d="M194.5 64.05a1.483 1.483 0 1 1-1.483-1.485c.82 0 1.483.664 1.483 1.485z"/><path fill="#eec65e" d="M180.103 51.28c-.343 0-.53.012-.53.012l-9.033 7.68c.634.245 1.055.68 1.055 1.173 0 .766-1.01 1.388-2.258 1.388-.545 0-1.045-.12-1.435-.316l-4.189 3.561.28-.047.661-.607 31.615-5.979 1.006 1.065-1.346.225 1.538-.255c-6.808-7.395-15.197-7.9-17.364-7.9"/><ellipse cx="179.403" cy="57.242" rx="2.129" ry="1.516" fill="#f89c44"/><ellipse cx="173.273" cy="67.631" rx="2.452" ry="2.355" fill="#d78334"/><path fill="url(#j)" d="M195.93 59.436l-31.937 5.296-.049.046 31.986-5.342"/><path fill="#eec65e" d="M196.27 58.145l-31.615 5.98-.662.606 31.937-5.295 1.346-.224-1.006-1.067"/><ellipse cx="184.403" cy="62.404" rx="2.291" ry="2.226" fill="#d78334"/></svg>
