<svg xmlns="http://www.w3.org/2000/svg" width="200" height="100" viewBox="0 0 200 100"><defs><linearGradient id="a" x2="1"><stop offset="0%" stop-color="#f89d6c"/><stop offset="28.83%" stop-color="#fbb069"/><stop offset="65.73%" stop-color="#ffcc5f"/><stop offset="100%" stop-color="#ffcc5f"/></linearGradient><linearGradient id="b" x2="1"><stop offset="0%" stop-color="#f89d6c"/><stop offset="28.83%" stop-color="#fbb069"/><stop offset="65.73%" stop-color="#ffcc5f"/><stop offset="100%" stop-color="#ffcc5f"/></linearGradient><linearGradient id="c" x2="1"><stop offset="0%" stop-color="#f89d6c"/><stop offset="28.83%" stop-color="#fbb069"/><stop offset="65.73%" stop-color="#ffcc5f"/><stop offset="100%" stop-color="#ffcc5f"/></linearGradient><linearGradient id="d" x2="1"><stop offset="0%" stop-color="#f89d6c"/><stop offset="28.83%" stop-color="#fbb069"/><stop offset="65.73%" stop-color="#ffcc5f"/><stop offset="100%" stop-color="#ffcc5f"/></linearGradient><linearGradient id="e" x2="1"><stop offset="0%" stop-color="#f89d6c"/><stop offset="28.83%" stop-color="#fbb069"/><stop offset="65.73%" stop-color="#ffcc5f"/><stop offset="100%" stop-color="#ffcc5f"/></linearGradient><linearGradient id="f" x2="1"><stop offset="0%" stop-color="#f89d6c"/><stop offset="28.83%" stop-color="#fbb069"/><stop offset="65.73%" stop-color="#ffcc5f"/><stop offset="100%" stop-color="#ffcc5f"/></linearGradient><linearGradient id="g" x2="1"><stop offset="0%" stop-color="#f89d6c"/><stop offset="28.83%" stop-color="#fbb069"/><stop offset="65.73%" stop-color="#ffcc5f"/><stop offset="100%" stop-color="#ffcc5f"/></linearGradient><linearGradient id="h" x2="1"><stop offset="0%" stop-color="#f89d6c"/><stop offset="28.83%" stop-color="#fbb069"/><stop offset="65.73%" stop-color="#ffcc5f"/><stop offset="100%" stop-color="#ffcc5f"/></linearGradient><linearGradient id="i" x2="1"><stop offset="0%" stop-color="#f89d6c"/><stop offset="28.83%" stop-color="#fbb069"/><stop offset="65.73%" stop-color="#ffcc5f"/><stop offset="100%" stop-color="#ffcc5f"/></linearGradient><linearGradient id="j" x2="1"><stop offset="0%" stop-color="#f89d6c"/><stop offset="28.83%" stop-color="#fbb069"/><stop offset="65.73%" stop-color="#ffcc5f"/><stop offset="100%" stop-color="#ffcc5f"/></linearGradient></defs><path fill="#ccaa4f" d="M64.493 45.746l-1.321.219-27.466 4.587.043-.04-.241.04v3.84c.14-.057.293-.09.453-.09.703 0 1.274.598 1.274 1.332 0 .733-.571 1.329-1.274 1.329a1.2 1.2 0 0 1-.453-.09v4.166L64.42 56.16l.073-10.415"/><path fill="#f89c44" d="M41.37 45.567s.019 1.533.019 2.42l2.3-2.3-2.32-.12z"/><path fill="#d78334" d="M61.944 49.927a1.274 1.274 0 1 1-2.549 0 1.275 1.275 0 1 1 2.549 0z"/><path fill="#eec65e" d="M49.582 38.961a7.4 7.4 0 0 0-.455.011l-7.757 6.595c.545.211.907.583.907 1.007 0 .658-.868 1.192-1.94 1.192-.468 0-.897-.103-1.232-.272l-3.597 3.059.24-.041.568-.521 27.148-5.135.864.915-1.156.194 1.32-.219c-5.845-6.351-13.05-6.785-14.91-6.785"/><ellipse cx="48.98" cy="44.081" rx="1.828" ry="1.302" fill="#f89c44"/><ellipse cx="43.716" cy="53.002" rx="2.106" ry="2.022" fill="#d78334"/><path fill="url(#a)" d="M63.172 45.965l-27.424 4.548-.042.039 27.466-4.587"/><path fill="#eec65e" d="M63.464 44.857L36.316 49.99l-.568.522 27.424-4.548 1.156-.193-.864-.915"/><ellipse cx="53.274" cy="48.513" rx="1.967" ry="1.912" fill="#d78334"/><path fill="#ccaa4f" d="M97.826 45.746l-1.32.219-27.467 4.587.043-.04-.24.04v3.84c.14-.057.292-.09.452-.09.703 0 1.274.598 1.274 1.332 0 .733-.57 1.329-1.274 1.329a1.2 1.2 0 0 1-.453-.09v4.166l28.912-4.878.073-10.415"/><path fill="#f89c44" d="M74.703 45.567s.02 1.533.02 2.42l2.3-2.3-2.32-.12z"/><path fill="#d78334" d="M95.277 49.927a1.274 1.274 0 1 1-2.549 0 1.275 1.275 0 1 1 2.55 0z"/><path fill="#eec65e" d="M82.915 38.961a7.4 7.4 0 0 0-.455.011l-7.757 6.595c.545.211.907.583.907 1.007 0 .658-.868 1.192-1.94 1.192-.468 0-.897-.103-1.232-.272l-3.597 3.059.24-.041.568-.521 27.148-5.135.864.915-1.156.194 1.32-.219c-5.845-6.351-13.05-6.785-14.91-6.785"/><ellipse cx="82.313" cy="44.081" rx="1.828" ry="1.302" fill="#f89c44"/><ellipse cx="77.05" cy="53.002" rx="2.106" ry="2.022" fill="#d78334"/><path fill="url(#b)" d="M96.505 45.965l-27.424 4.548-.042.039 27.466-4.587"/><path fill="#eec65e" d="M96.797 44.857L69.65 49.99l-.568.522 27.424-4.548 1.156-.193-.864-.915"/><ellipse cx="86.607" cy="48.513" rx="1.967" ry="1.912" fill="#d78334"/><path fill="#ccaa4f" d="M131.159 45.746l-1.321.219-27.466 4.587.043-.04-.241.04v3.84c.141-.057.293-.09.453-.09.703 0 1.274.598 1.274 1.332 0 .733-.571 1.329-1.274 1.329a1.2 1.2 0 0 1-.453-.09v4.166l28.912-4.878.073-10.415"/><path fill="#f89c44" d="M108.036 45.567s.019 1.533.019 2.42l2.3-2.3-2.319-.12z"/><path fill="#d78334" d="M128.611 49.927a1.274 1.274 0 1 1-2.549 0 1.275 1.275 0 1 1 2.549 0z"/><path fill="#eec65e" d="M116.248 38.961a7.4 7.4 0 0 0-.455.011l-7.757 6.595c.545.211.907.583.907 1.007 0 .658-.868 1.192-1.94 1.192-.468 0-.897-.103-1.232-.272l-3.597 3.059.24-.041.568-.521 27.148-5.135.864.915-1.156.194 1.321-.219c-5.846-6.351-13.05-6.785-14.911-6.785"/><ellipse cx="115.646" cy="44.081" rx="1.828" ry="1.302" fill="#f89c44"/><ellipse cx="110.383" cy="53.002" rx="2.106" ry="2.022" fill="#d78334"/><path fill="url(#c)" d="M129.839 45.965l-27.424 4.548-.042.039 27.466-4.587"/><path fill="#eec65e" d="M130.131 44.857l-27.148 5.134-.568.522 27.424-4.548 1.156-.193-.864-.915"/><ellipse cx="119.94" cy="48.513" rx="1.967" ry="1.912" fill="#d78334"/><path fill="#ccaa4f" d="M164.493 45.746l-1.321.219-27.466 4.587.043-.04-.241.04v3.84c.141-.057.293-.09.453-.09.703 0 1.274.598 1.274 1.332 0 .733-.571 1.329-1.274 1.329a1.2 1.2 0 0 1-.453-.09v4.166l28.912-4.878.073-10.415"/><path fill="#f89c44" d="M141.37 45.567s.019 1.533.019 2.42l2.3-2.3-2.319-.12z"/><path fill="#d78334" d="M161.944 49.927a1.274 1.274 0 1 1-2.549 0 1.275 1.275 0 1 1 2.549 0z"/><path fill="#eec65e" d="M149.582 38.961c-.295 0-.455.011-.455.011l-7.757 6.595c.545.211.907.583.907 1.007 0 .658-.868 1.192-1.94 1.192-.468 0-.897-.103-1.232-.272l-3.597 3.059.24-.041.568-.521 27.148-5.135.864.915-1.156.194 1.321-.219c-5.846-6.351-13.05-6.785-14.911-6.785"/><ellipse cx="148.98" cy="44.081" rx="1.828" ry="1.302" fill="#f89c44"/><ellipse cx="143.716" cy="53.002" rx="2.106" ry="2.022" fill="#d78334"/><path fill="url(#d)" d="M163.172 45.965l-27.424 4.548-.042.039 27.466-4.587"/><path fill="#eec65e" d="M163.464 44.857l-27.148 5.134-.568.522 27.424-4.548 1.156-.193-.864-.915"/><ellipse cx="153.274" cy="48.513" rx="1.967" ry="1.912" fill="#d78334"/><path fill="#ccaa4f" d="M197.826 45.746l-1.321.219-27.466 4.587.043-.04-.241.04v3.84c.141-.057.293-.09.453-.09.703 0 1.274.598 1.274 1.332 0 .733-.571 1.329-1.274 1.329a1.2 1.2 0 0 1-.453-.09v4.166l28.912-4.878.073-10.415"/><path fill="#f89c44" d="M174.703 45.567s.019 1.533.019 2.42l2.3-2.3-2.319-.12z"/><path fill="#d78334" d="M195.277 49.927a1.274 1.274 0 1 1-2.549 0 1.275 1.275 0 1 1 2.549 0z"/><path fill="#eec65e" d="M182.915 38.961c-.295 0-.455.011-.455.011l-7.757 6.595c.545.211.907.583.907 1.007 0 .658-.868 1.192-1.94 1.192-.468 0-.897-.103-1.232-.272l-3.597 3.059.24-.041.568-.521 27.148-5.135.864.915-1.156.194 1.321-.219c-5.846-6.351-13.05-6.785-14.911-6.785"/><ellipse cx="182.313" cy="44.081" rx="1.828" ry="1.302" fill="#f89c44"/><ellipse cx="177.05" cy="53.002" rx="2.106" ry="2.022" fill="#d78334"/><path fill="url(#e)" d="M196.505 45.965l-27.424 4.548-.042.039 27.466-4.587"/><path fill="#eec65e" d="M196.797 44.857l-27.148 5.134-.568.522 27.424-4.548 1.156-.193-.864-.915"/><ellipse cx="186.607" cy="48.513" rx="1.967" ry="1.912" fill="#d78334"/><path fill="#ccaa4f" d="M64.493 79.08l-1.321.218-27.466 4.587.043-.039-.241.04v3.84c.14-.058.293-.09.453-.09.703 0 1.274.597 1.274 1.331 0 .733-.571 1.33-1.274 1.33a1.2 1.2 0 0 1-.453-.09v4.165l28.912-4.878.073-10.415"/><path fill="#f89c44" d="M41.37 78.9s.019 1.534.019 2.42l2.3-2.3-2.32-.12z"/><path fill="#d78334" d="M61.944 83.26a1.274 1.274 0 1 1-2.549 0 1.275 1.275 0 1 1 2.549 0z"/><path fill="#eec65e" d="M49.582 72.294c-.295 0-.455.011-.455.011L41.37 78.9c.545.211.907.583.907 1.007 0 .658-.868 1.192-1.94 1.192-.468 0-.897-.103-1.232-.272l-3.597 3.06.24-.042.568-.52 27.148-5.136.864.915-1.156.194 1.32-.219c-5.845-6.35-13.05-6.785-14.91-6.785"/><ellipse cx="48.98" cy="77.415" rx="1.828" ry="1.302" fill="#f89c44"/><ellipse cx="43.716" cy="86.335" rx="2.106" ry="2.022" fill="#d78334"/><path fill="url(#f)" d="M63.172 79.298l-27.424 4.548-.042.04 27.466-4.588"/><path fill="#eec65e" d="M63.464 78.19l-27.148 5.134-.568.522 27.424-4.548 1.156-.193-.864-.915"/><ellipse cx="53.274" cy="81.847" rx="1.967" ry="1.912" fill="#d78334"/><path fill="#ccaa4f" d="M97.826 79.08l-1.32.218-27.467 4.587.043-.039-.24.04v3.84c.14-.058.292-.09.452-.09.703 0 1.274.597 1.274 1.331 0 .733-.57 1.33-1.274 1.33a1.2 1.2 0 0 1-.453-.09v4.165l28.912-4.878.073-10.415"/><path fill="#f89c44" d="M74.703 78.9s.02 1.534.02 2.42l2.3-2.3-2.32-.12z"/><path fill="#d78334" d="M95.277 83.26a1.274 1.274 0 1 1-2.549 0 1.275 1.275 0 1 1 2.55 0z"/><path fill="#eec65e" d="M82.915 72.294c-.295 0-.455.011-.455.011L74.703 78.9c.545.211.907.583.907 1.007 0 .658-.868 1.192-1.94 1.192-.468 0-.897-.103-1.232-.272l-3.597 3.06.24-.042.568-.52 27.148-5.136.864.915-1.156.194 1.32-.219c-5.845-6.35-13.05-6.785-14.91-6.785"/><ellipse cx="82.313" cy="77.415" rx="1.828" ry="1.302" fill="#f89c44"/><ellipse cx="77.05" cy="86.335" rx="2.106" ry="2.022" fill="#d78334"/><path fill="url(#g)" d="M96.505 79.298l-27.424 4.548-.042.04 27.466-4.588"/><path fill="#eec65e" d="M96.797 78.19L69.65 83.324l-.568.522 27.424-4.548 1.156-.193-.864-.915"/><ellipse cx="86.607" cy="81.847" rx="1.967" ry="1.912" fill="#d78334"/><path fill="#ccaa4f" d="M131.159 79.08l-1.321.218-27.466 4.587.043-.039-.241.04v3.84c.141-.058.293-.09.453-.09.703 0 1.274.597 1.274 1.331 0 .733-.571 1.33-1.274 1.33a1.2 1.2 0 0 1-.453-.09v4.165l28.912-4.878.073-10.415"/><path fill="#f89c44" d="M108.036 78.9s.019 1.534.019 2.42l2.3-2.3-2.319-.12z"/><path fill="#d78334" d="M128.611 83.26a1.274 1.274 0 1 1-2.549 0 1.275 1.275 0 1 1 2.549 0z"/><path fill="#eec65e" d="M116.248 72.294c-.295 0-.455.011-.455.011l-7.757 6.595c.545.211.907.583.907 1.007 0 .658-.868 1.192-1.94 1.192-.468 0-.897-.103-1.232-.272l-3.597 3.06.24-.042.568-.52 27.148-5.136.864.915-1.156.194 1.321-.219c-5.846-6.35-13.05-6.785-14.911-6.785"/><ellipse cx="115.646" cy="77.415" rx="1.828" ry="1.302" fill="#f89c44"/><ellipse cx="110.383" cy="86.335" rx="2.106" ry="2.022" fill="#d78334"/><path fill="url(#h)" d="M129.839 79.298l-27.424 4.548-.042.04 27.466-4.588"/><path fill="#eec65e" d="M130.131 78.19l-27.148 5.134-.568.522 27.424-4.548 1.156-.193-.864-.915"/><ellipse cx="119.94" cy="81.847" rx="1.967" ry="1.912" fill="#d78334"/><path fill="#ccaa4f" d="M164.493 79.08l-1.321.218-27.466 4.587.043-.039-.241.04v3.84c.141-.058.293-.09.453-.09.703 0 1.274.597 1.274 1.331 0 .733-.571 1.33-1.274 1.33a1.2 1.2 0 0 1-.453-.09v4.165l28.912-4.878.073-10.415"/><path fill="#f89c44" d="M141.37 78.9s.019 1.534.019 2.42l2.3-2.3-2.319-.12z"/><path fill="#d78334" d="M161.944 83.26a1.274 1.274 0 1 1-2.549 0 1.275 1.275 0 1 1 2.549 0z"/><path fill="#eec65e" d="M149.582 72.294c-.295 0-.455.011-.455.011L141.37 78.9c.545.211.907.583.907 1.007 0 .658-.868 1.192-1.94 1.192-.468 0-.897-.103-1.232-.272l-3.597 3.06.24-.042.568-.52 27.148-5.136.864.915-1.156.194 1.321-.219c-5.846-6.35-13.05-6.785-14.911-6.785"/><ellipse cx="148.98" cy="77.415" rx="1.828" ry="1.302" fill="#f89c44"/><ellipse cx="143.716" cy="86.335" rx="2.106" ry="2.022" fill="#d78334"/><path fill="url(#i)" d="M163.172 79.298l-27.424 4.548-.042.04 27.466-4.588"/><path fill="#eec65e" d="M163.464 78.19l-27.148 5.134-.568.522 27.424-4.548 1.156-.193-.864-.915"/><ellipse cx="153.274" cy="81.847" rx="1.967" ry="1.912" fill="#d78334"/><path fill="#ccaa4f" d="M197.826 79.08l-1.321.218-27.466 4.587.043-.039-.241.04v3.84c.141-.058.293-.09.453-.09.703 0 1.274.597 1.274 1.331 0 .733-.571 1.33-1.274 1.33a1.2 1.2 0 0 1-.453-.09v4.165l28.912-4.878.073-10.415"/><path fill="#f89c44" d="M174.703 78.9s.019 1.534.019 2.42l2.3-2.3-2.319-.12z"/><path fill="#d78334" d="M195.277 83.26a1.274 1.274 0 1 1-2.549 0 1.275 1.275 0 1 1 2.549 0z"/><path fill="#eec65e" d="M182.915 72.294c-.295 0-.455.011-.455.011l-7.757 6.595c.545.211.907.583.907 1.007 0 .658-.868 1.192-1.94 1.192-.468 0-.897-.103-1.232-.272l-3.597 3.06.24-.042.568-.52 27.148-5.136.864.915-1.156.194 1.321-.219c-5.846-6.35-13.05-6.785-14.911-6.785"/><ellipse cx="182.313" cy="77.415" rx="1.828" ry="1.302" fill="#f89c44"/><ellipse cx="177.05" cy="86.335" rx="2.106" ry="2.022" fill="#d78334"/><path fill="url(#j)" d="M196.505 79.298l-27.424 4.548-.042.04 27.466-4.588"/><path fill="#eec65e" d="M196.797 78.19l-27.148 5.134-.568.522 27.424-4.548 1.156-.193-.864-.915"/><ellipse cx="186.607" cy="81.847" rx="1.967" ry="1.912" fill="#d78334"/><path fill="none" stroke="gray" d="M35.507 66.667h181.16" stroke-width="2" stroke-opacity=".5"/></svg>
