<svg xmlns="http://www.w3.org/2000/svg" width="120" height="96.709" viewBox="0 0 120 96.70886075949366"><path fill="#0d923f" stroke="#0d923f" d="M6.076 24.304V6.076h18.228v18.228zM29.367 24.304V6.076h18.228v18.228zM52.658 24.304V6.076h18.228v18.228zM75.95 24.304V6.076h18.227v18.228zM99.24 24.304V6.076h18.228v18.228zM6.076 47.595V29.367h18.228v18.228zM29.367 47.595V29.367h18.228v18.228zM52.658 47.595V29.367h18.228v18.228zM75.95 47.595V29.367h18.227v18.228zM99.24 47.595V29.367h18.228v18.228zM6.076 70.886V52.658h18.228v18.228zM29.367 70.886V52.658h18.228v18.228zM52.658 70.886V52.658h18.228v18.228zM75.95 70.886V52.658h18.227v18.228zM99.24 70.886V52.658h18.228v18.228zM6.076 94.177V75.95h18.228v18.228zM29.367 94.177V75.95h18.228v18.228zM52.658 94.177V75.95h18.228v18.228zM75.95 94.177V75.95h18.227v18.228zM99.24 94.177V75.95h18.228v18.228z" stroke-width="2" stroke-dasharray="0"/></svg>
