<svg xmlns="http://www.w3.org/2000/svg" width="146.667" height="220" viewBox="0 0 146.66666666666666 220"><defs><linearGradient id="a" x2="1" y2=".81"><stop offset="0%" stop-color="#f7a996"/><stop offset="100%" stop-color="#f15d4e"/></linearGradient><linearGradient id="b" x2="1" y2=".81"><stop offset="0%" stop-color="#f7a996"/><stop offset="100%" stop-color="#f15d4e"/></linearGradient><linearGradient id="c" x2="1" y2=".81"><stop offset="0%" stop-color="#f7a996"/><stop offset="100%" stop-color="#f15d4e"/></linearGradient><linearGradient id="d" x2="1" y2=".81"><stop offset="0%" stop-color="#f7a996"/><stop offset="100%" stop-color="#f15d4e"/></linearGradient><linearGradient id="e" x2="1" y2=".81"><stop offset="0%" stop-color="#f7a996"/><stop offset="100%" stop-color="#f15d4e"/></linearGradient><linearGradient id="f" x2="1" y2=".81"><stop offset="0%" stop-color="#f7a996"/><stop offset="100%" stop-color="#f15d4e"/></linearGradient><linearGradient id="g" x2="1" y2=".81"><stop offset="0%" stop-color="#f7a996"/><stop offset="100%" stop-color="#f15d4e"/></linearGradient><linearGradient id="h" x2="1" y2=".81"><stop offset="0%" stop-color="#f7a996"/><stop offset="100%" stop-color="#f15d4e"/></linearGradient><linearGradient id="i" x2="1" y2=".81"><stop offset="0%" stop-color="#f7a996"/><stop offset="100%" stop-color="#f15d4e"/></linearGradient><linearGradient id="j" x2="1" y2=".81"><stop offset="0%" stop-color="#f7a996"/><stop offset="100%" stop-color="#f15d4e"/></linearGradient><linearGradient id="k" x2="1" y2=".81"><stop offset="0%" stop-color="#f7a996"/><stop offset="100%" stop-color="#f15d4e"/></linearGradient><linearGradient id="l" x2="1" y2=".81"><stop offset="0%" stop-color="#f7a996"/><stop offset="100%" stop-color="#f15d4e"/></linearGradient><linearGradient id="m" x2="1" y2=".81"><stop offset="0%" stop-color="#f7a996"/><stop offset="100%" stop-color="#f15d4e"/></linearGradient><linearGradient id="n" x2="1" y2=".81"><stop offset="0%" stop-color="#f7a996"/><stop offset="100%" stop-color="#f15d4e"/></linearGradient><linearGradient id="o" x2="1" y2=".81"><stop offset="0%" stop-color="#f7a996"/><stop offset="100%" stop-color="#f15d4e"/></linearGradient></defs><path fill="#d67b72" d="M65.308 60.687s.736.172.746.344c.009.171-.324.581-.527.62-.204.037-.893-.348-.893-.348l.674-.616z"/><path fill="#d67b72" d="M65.04 61.038s.692.14.758.408c.045.187-.963.944-1.668.745-.428-.12-.605-.342-.605-.342l1.515-.81z"/><path fill="#e59585" d="M61.446 55.493c.24.13 2.148 1.61.431 3.994-.424.59 2.026 1.247 2.026 1.247s.627-.28 1.232-.064c.813.29-1.742 1.263-1.742 1.263s.144.349.05.372c-.09.022-.419-.46-.463-.565-.189-.121-1.594-.441-2.29-.923-.708-.488-3.465-1.998-2.634-4.023.963-2.347 2.874-1.583 3.39-1.301z"/><path fill="#d67b72" d="M41.587 60.725s-.574.12-.63.009c-.056-.11-.072-.456.05-.54.124-.083.608-.061.608-.061l-.028.592z"/><path fill="#d67b72" d="M41.57 60.436s-.55.098-.671-.06c-.084-.11.268-.903.79-.976.32-.045.499.05.499.05l-.618.986z"/><path fill="#e59585" d="M49.36 57.14c-.647 4-4.716 2.358-5.299 2.849-.972.82-2.474.736-2.474.736-.36-.014.556-1.282.556-1.282l.37.114s-.367-.207-.313-.25c.097-.073.301.03.558.159.815-.144.79-1.134 1.136-1.217 1.343-.323 1.144-.888 1.144-.888-1.896-2.308 1.27-2.995 1.27-2.995s3.771-1.672 3.052 2.774z"/><path fill="#e59585" d="M45.282 54.75s-.641-1.258-1.718-1.225c-1.079.033-1.076 1.016-.463 1.318.601.296.951-.712.951-.712s.044 1.153-.968 1.002c-1.076-.159-1.085-1.986.546-1.983 1.161.003 2.023 1.103 2.023 1.103l-.371.497z"/><path fill="#f7a996" d="M59.089 55.591s-1.918.31-3.986-.84c-3.796-2.117-6.588-2.878-9.588-.9-4.021 2.651-4.822 11.001 3.423 12.732C61.025 69.12 65.874 56.52 65.874 56.52l-6.785-.928z"/><path fill="#e59585" d="M55.546 66.455c-.751-3.141.469-4.147.469-4.147l2.04 3.154a12.81 12.81 0 0 1-2.51.993zM48.938 66.583c-.98-.23-1.826-.543-2.55-.924l.644-1.178c.88 1.33 2.223 2 2.958 2.286a9.382 9.382 0 0 1-1.052-.184z"/><path fill="#d67b72" d="M39.868 67.262s-.663.138-.73.01c-.063-.127-.084-.527.059-.623.143-.098.703-.07.703-.07l-.032.683z"/><path fill="#d67b72" d="M39.848 66.927s-.635.113-.775-.07c-.098-.126.31-1.043.916-1.126.366-.052.574.058.574.058l-.715 1.138z"/><path fill="#f7a996" d="M49.055 63.066c-.567 4.51-5.655 2.776-6.33 3.346-1.122.948-2.857.851-2.857.851-.417-.017.643-1.482.643-1.482l.426.132s-.424-.24-.36-.288c.111-.085.347.035.644.183.941-.167.913-1.31 1.312-1.406 1.554-.375 1.322-1.027 1.322-1.027-2.19-2.667-.56-5.642-.56-5.642s6.407.171 5.76 5.333z"/><path fill="#e59585" d="M59.624 64.502c-2.873-1.628-6.116-5.105-6.57-10.797a27.12 27.12 0 0 1 2.048 1.044c2.068 1.152 3.986.841 3.986.841l6.786.93s-1.89 4.91-6.25 7.982z"/><path fill="#d67b72" d="M63.48 65.178s.751-.077.817.082c.065.159-.116.655-.296.758-.18.102-.958-.04-.958-.04l.437-.8z"/><path fill="#d67b72" d="M63.342 65.597s.7-.093.85.139c.103.161-.603 1.206-1.335 1.246-.445.026-.683-.126-.683-.126l1.168-1.26z"/><path fill="#f7a996" d="M58.307 61.483c.268.045 2.555.823 1.707 3.636-.208.696 2.322.52 2.322.52s.502-.47 1.145-.462c.862.01-1.237 1.76-1.237 1.76s.25.284.17.337c-.079.05-.547-.298-.623-.384-.218-.052-1.65.102-2.467-.127-.827-.231-3.925-.762-3.798-2.946.146-2.533 2.201-2.433 2.781-2.334zM65.26 47.438s-.004-1.291 1.003-2.084c.66-.522 1.636-1.191 2.172-1.985 1.453-2.152 2.874 1.122 2.421 3.97-.314 1.978-1.39 4.354-3.1 3.705-1.447-.547-2.496-3.606-2.496-3.606z"/><path fill="url(#a)" d="M65.776 48.663c-.327-.675-.516-1.225-.516-1.225s-.001-.56.285-1.17c.91.288 1.86 1.052 1.86 1.052l-1.63 1.343z"/><path fill="#e59585" d="M65.776 48.663c-.327-.675-.516-1.225-.516-1.225s-.001-.56.285-1.17c.91.288 1.86 1.052 1.86 1.052l-1.63 1.343z"/><path fill="#d67b72" d="M67.071 49.536s-.749-1.687.17-2.88c1.082-1.404 1.56-3.276 2.225-3.479.811-.246 1.16 1.534 1.273 2.243.172 1.052-.118 3.117-.765 4.265-.46.817-.899 1.396-2.134 1.292-1.236-.105-.769-1.44-.769-1.44z"/><path fill="#f7a996" d="M58.8 47.684s-.097-1.286-1.16-2.002c-.698-.469-1.722-1.062-2.317-1.814-1.612-2.035-2.78 1.338-2.11 4.143.463 1.948 1.716 4.236 3.372 3.46 1.4-.657 2.215-3.787 2.215-3.787z"/><path fill="#e59585" d="M58.152 49.563c.276-.698.648-1.879.648-1.879s-.042-.557-.374-1.143c-.885.355-1.776 1.189-1.776 1.189l1.502 1.834z"/><path fill="#d67b72" d="M57.152 49.915s.618-1.74-.39-2.86c-1.185-1.316-1.803-3.147-2.48-3.3-.829-.183-1.04 1.619-1.1 2.335-.09 1.062.355 3.099 1.09 4.194.52.779 1 1.323 2.224 1.126 1.225-.198.656-1.495.656-1.495z"/><path fill="#f7a996" d="M66.018 47.2s-1.966-1.157-3.93-1.017c-1.366.098-2.968.346-4.33 1.663-1.851 1.79-2.29 4.747-2.313 6.26-.06 3.996 2.609 6.526 6.749 6.43 4.08-.095 7.369-2.762 7.095-6.745-.155-2.271-.888-5.2-3.271-6.591z"/><path fill="#d67b72" d="M64.721 56.55s-.938-2.1-2.383-2.045c-.873.034-1.826.949-2.3 2.325-.545 1.585 1.522 2.07 2.464 1.998.857-.068 2.864-.351 2.219-2.278z"/><path fill="#fff" d="M61.4 57.448a.487.487 0 1 1-.037-.973.487.487 0 0 1 .036.973z" opacity=".4"/><ellipse cx="63.413" cy="56.883" rx=".487" ry=".487" fill="#fff" opacity=".4"/><path fill="#f7a996" d="M62.814 46.403s.097-.868-.836-.94c0 0 .749.404.64.905l.196.035z"/><path fill="#f7a996" d="M62.59 46.293s-.185-.34-.533-.39c0 0 .441.242.45.458l.083-.068z"/><ellipse cx="65.588" cy="53.783" rx=".535" ry=".743" fill="#304454" transform="rotate(178.441 65.588 53.783)"/><ellipse cx="59.206" cy="53.628" rx=".535" ry=".743" fill="#304454" transform="rotate(178.441 59.206 53.628)"/><ellipse cx="61.604" cy="56.913" rx=".206" ry=".206" fill="#304454"/><path fill="#304454" d="M63.199 57.059a.205.205 0 1 0-.017-.411.206.206 0 1 0 .017.41z"/><path fill="#d67b72" d="M101.974 60.687s.736.172.746.344c.009.171-.324.581-.527.62-.204.037-.893-.348-.893-.348l.674-.616z"/><path fill="#d67b72" d="M101.707 61.038s.692.14.758.408c.045.187-.963.944-1.668.745-.428-.12-.605-.342-.605-.342l1.515-.81z"/><path fill="#e59585" d="M98.113 55.493c.239.13 2.148 1.61.43 3.994-.423.59 2.027 1.247 2.027 1.247s.627-.28 1.232-.064c.813.29-1.742 1.263-1.742 1.263s.144.349.05.372c-.09.022-.42-.46-.463-.565-.19-.121-1.594-.441-2.291-.923-.707-.488-3.464-1.998-2.633-4.023.963-2.347 2.874-1.583 3.39-1.301z"/><path fill="#d67b72" d="M78.254 60.725s-.574.12-.63.009c-.056-.11-.072-.456.05-.54.124-.083.608-.061.608-.061l-.028.592z"/><path fill="#d67b72" d="M78.237 60.436s-.55.098-.671-.06c-.084-.11.268-.903.79-.976.32-.045.499.05.499.05l-.618.986z"/><path fill="#e59585" d="M86.027 57.14c-.647 4-4.716 2.358-5.3 2.849-.971.82-2.473.736-2.473.736-.36-.014.556-1.282.556-1.282l.37.114s-.367-.207-.313-.25c.097-.073.3.03.558.159.815-.144.79-1.134 1.136-1.217 1.343-.323 1.144-.888 1.144-.888-1.896-2.308 1.27-2.995 1.27-2.995s3.77-1.672 3.052 2.774z"/><path fill="#e59585" d="M81.949 54.75s-.641-1.258-1.718-1.225c-1.08.033-1.076 1.016-.463 1.318.6.296.95-.712.95-.712s.045 1.153-.967 1.002c-1.076-.159-1.085-1.986.546-1.983 1.16.003 2.023 1.103 2.023 1.103l-.371.497z"/><path fill="#f7a996" d="M95.755 55.591s-1.918.31-3.986-.84c-3.796-2.117-6.588-2.878-9.588-.9-4.02 2.651-4.822 11.001 3.423 12.732C97.691 69.12 102.54 56.52 102.54 56.52l-6.785-.928z"/><path fill="#e59585" d="M92.212 66.455c-.75-3.141.47-4.147.47-4.147l2.04 3.154a12.81 12.81 0 0 1-2.51.993zM85.604 66.583c-.98-.23-1.826-.543-2.55-.924l.644-1.178c.88 1.33 2.223 2 2.958 2.286a9.382 9.382 0 0 1-1.052-.184z"/><path fill="#d67b72" d="M76.535 67.262s-.663.138-.73.01c-.063-.127-.084-.527.059-.623.143-.098.703-.07.703-.07l-.032.683z"/><path fill="#d67b72" d="M76.514 66.927s-.635.113-.775-.07c-.098-.126.31-1.043.916-1.126.366-.052.574.058.574.058l-.715 1.138z"/><path fill="#f7a996" d="M85.722 63.066c-.567 4.51-5.655 2.776-6.33 3.346-1.122.948-2.857.851-2.857.851-.417-.017.643-1.482.643-1.482l.426.132s-.424-.24-.361-.288c.112-.085.348.035.645.183.94-.167.913-1.31 1.312-1.406 1.554-.375 1.322-1.027 1.322-1.027-2.191-2.667-.561-5.642-.561-5.642s6.408.171 5.76 5.333z"/><path fill="#e59585" d="M96.29 64.502c-2.872-1.628-6.115-5.105-6.57-10.797a27.12 27.12 0 0 1 2.049 1.044c2.068 1.152 3.986.841 3.986.841l6.786.93s-1.89 4.91-6.25 7.982z"/><path fill="#d67b72" d="M100.147 65.178s.751-.077.817.082c.065.159-.116.655-.296.758-.181.102-.958-.04-.958-.04l.437-.8z"/><path fill="#d67b72" d="M100.009 65.597s.7-.093.85.139c.103.161-.603 1.206-1.335 1.246-.445.026-.683-.126-.683-.126l1.168-1.26z"/><path fill="#f7a996" d="M94.974 61.483c.268.045 2.555.823 1.707 3.636-.208.696 2.322.52 2.322.52s.502-.47 1.145-.462c.862.01-1.237 1.76-1.237 1.76s.25.284.169.337c-.078.05-.546-.298-.622-.384-.218-.052-1.65.102-2.467-.127-.827-.231-3.925-.762-3.798-2.946.146-2.533 2.2-2.433 2.78-2.334zM101.926 47.438s-.003-1.291 1.004-2.084c.66-.522 1.636-1.191 2.172-1.985 1.452-2.152 2.874 1.122 2.421 3.97-.315 1.978-1.39 4.354-3.1 3.705-1.447-.547-2.497-3.606-2.497-3.606z"/><path fill="url(#b)" d="M102.442 48.663c-.327-.675-.516-1.225-.516-1.225s-.001-.56.285-1.17c.911.288 1.861 1.052 1.861 1.052l-1.63 1.343z"/><path fill="#e59585" d="M102.442 48.663c-.327-.675-.516-1.225-.516-1.225s-.001-.56.285-1.17c.911.288 1.861 1.052 1.861 1.052l-1.63 1.343z"/><path fill="#d67b72" d="M103.738 49.536s-.749-1.687.17-2.88c1.082-1.404 1.56-3.276 2.225-3.479.811-.246 1.16 1.534 1.273 2.243.172 1.052-.118 3.117-.765 4.265-.461.817-.899 1.396-2.134 1.292-1.236-.105-.769-1.44-.769-1.44z"/><path fill="#f7a996" d="M95.466 47.684s-.096-1.286-1.16-2.002c-.697-.469-1.721-1.062-2.316-1.814-1.612-2.035-2.78 1.338-2.11 4.143.463 1.948 1.716 4.236 3.371 3.46 1.401-.657 2.215-3.787 2.215-3.787z"/><path fill="#e59585" d="M94.819 49.563c.276-.698.648-1.879.648-1.879s-.042-.557-.374-1.143c-.885.355-1.776 1.189-1.776 1.189l1.502 1.834z"/><path fill="#d67b72" d="M93.819 49.915s.618-1.74-.39-2.86c-1.185-1.316-1.803-3.147-2.481-3.3-.828-.183-1.04 1.619-1.1 2.335-.089 1.062.356 3.099 1.09 4.194.521.779 1.001 1.323 2.225 1.126 1.225-.198.656-1.495.656-1.495z"/><path fill="#f7a996" d="M102.684 47.2s-1.966-1.157-3.928-1.017c-1.368.098-2.97.346-4.33 1.663-1.853 1.79-2.291 4.747-2.314 6.26-.06 3.996 2.609 6.526 6.749 6.43 4.08-.095 7.368-2.762 7.094-6.745-.155-2.271-.888-5.2-3.271-6.591z"/><path fill="#d67b72" d="M101.388 56.55s-.938-2.1-2.383-2.045c-.873.034-1.826.949-2.3 2.325-.545 1.585 1.522 2.07 2.464 1.998.857-.068 2.864-.351 2.219-2.278z"/><path fill="#fff" d="M98.066 57.448a.487.487 0 1 1-.037-.973.487.487 0 0 1 .037.973z" opacity=".4"/><ellipse cx="100.08" cy="56.883" rx=".487" ry=".487" fill="#fff" opacity=".4"/><path fill="#f7a996" d="M99.48 46.403s.098-.868-.835-.94c0 0 .749.404.64.905l.196.035z"/><path fill="#f7a996" d="M99.257 46.293s-.185-.34-.533-.39c0 0 .441.242.45.458l.083-.068z"/><ellipse cx="102.255" cy="53.783" rx=".535" ry=".743" fill="#304454" transform="rotate(178.441 102.255 53.783)"/><ellipse cx="95.873" cy="53.628" rx=".535" ry=".743" fill="#304454" transform="rotate(178.441 95.873 53.628)"/><ellipse cx="98.271" cy="56.913" rx=".206" ry=".206" fill="#304454"/><path fill="#304454" d="M99.865 57.059a.206.206 0 1 0-.016-.412.206.206 0 0 0 .016.412z"/><path fill="#d67b72" d="M138.641 60.687s.736.172.746.344c.009.171-.324.581-.527.62-.204.037-.893-.348-.893-.348l.674-.616z"/><path fill="#d67b72" d="M138.374 61.038s.692.14.758.408c.045.187-.963.944-1.668.745-.428-.12-.605-.342-.605-.342l1.515-.81z"/><path fill="#e59585" d="M134.78 55.493c.239.13 2.148 1.61.431 3.994-.424.59 2.026 1.247 2.026 1.247s.627-.28 1.232-.064c.813.29-1.742 1.263-1.742 1.263s.144.349.05.372c-.09.022-.419-.46-.463-.565-.189-.121-1.594-.441-2.291-.923-.707-.488-3.464-1.998-2.633-4.023.963-2.347 2.874-1.583 3.39-1.301z"/><path fill="#d67b72" d="M114.921 60.725s-.574.12-.63.009c-.056-.11-.072-.456.05-.54.124-.083.608-.061.608-.061l-.028.592z"/><path fill="#d67b72" d="M114.903 60.436s-.55.098-.671-.06c-.084-.11.268-.903.791-.976.319-.045.498.05.498.05l-.618.986z"/><path fill="#e59585" d="M122.693 57.14c-.647 4-4.716 2.358-5.299 2.849-.972.82-2.474.736-2.474.736-.36-.014.556-1.282.556-1.282l.37.114s-.367-.207-.313-.25c.097-.073.301.03.558.159.815-.144.79-1.134 1.136-1.217 1.343-.323 1.144-.888 1.144-.888-1.896-2.308 1.27-2.995 1.27-2.995s3.771-1.672 3.052 2.774z"/><path fill="#e59585" d="M118.615 54.75s-.641-1.258-1.718-1.225c-1.079.033-1.076 1.016-.463 1.318.601.296.951-.712.951-.712s.044 1.153-.968 1.002c-1.076-.159-1.085-1.986.546-1.983 1.161.003 2.023 1.103 2.023 1.103l-.371.497z"/><path fill="#f7a996" d="M132.422 55.591s-1.918.31-3.986-.84c-3.796-2.117-6.588-2.878-9.588-.9-4.021 2.651-4.822 11.001 3.423 12.732 12.087 2.537 16.936-10.064 16.936-10.064l-6.785-.928z"/><path fill="#e59585" d="M128.879 66.455c-.751-3.141.469-4.147.469-4.147l2.04 3.154a12.81 12.81 0 0 1-2.509.993zM122.271 66.583c-.98-.23-1.826-.543-2.55-.924l.644-1.178c.88 1.33 2.223 2 2.958 2.286a9.382 9.382 0 0 1-1.052-.184z"/><path fill="#d67b72" d="M113.201 67.262s-.663.138-.729.01c-.064-.127-.085-.527.058-.623.143-.098.703-.07.703-.07l-.032.683z"/><path fill="#d67b72" d="M113.181 66.927s-.635.113-.775-.07c-.098-.126.31-1.043.916-1.126.366-.052.574.058.574.058l-.715 1.138z"/><path fill="#f7a996" d="M122.389 63.066c-.567 4.51-5.655 2.776-6.33 3.346-1.122.948-2.857.851-2.857.851-.417-.017.643-1.482.643-1.482l.426.132s-.424-.24-.361-.288c.112-.085.348.035.645.183.941-.167.913-1.31 1.312-1.406 1.554-.375 1.322-1.027 1.322-1.027-2.191-2.667-.561-5.642-.561-5.642s6.408.171 5.761 5.333z"/><path fill="#e59585" d="M132.958 64.502c-2.873-1.628-6.116-5.105-6.571-10.797a27.12 27.12 0 0 1 2.049 1.044c2.068 1.152 3.986.841 3.986.841l6.786.93s-1.89 4.91-6.25 7.982z"/><path fill="#d67b72" d="M136.814 65.178s.751-.077.817.082c.065.159-.116.655-.296.758-.181.102-.958-.04-.958-.04l.437-.8z"/><path fill="#d67b72" d="M136.675 65.597s.7-.093.85.139c.103.161-.603 1.206-1.335 1.246-.445.026-.683-.126-.683-.126l1.168-1.26z"/><path fill="#f7a996" d="M131.641 61.483c.268.045 2.555.823 1.707 3.636-.208.696 2.322.52 2.322.52s.502-.47 1.145-.462c.862.01-1.237 1.76-1.237 1.76s.25.284.169.337c-.078.05-.546-.298-.622-.384-.218-.052-1.65.102-2.467-.127-.827-.231-3.925-.762-3.798-2.946.146-2.533 2.201-2.433 2.781-2.334zM138.593 47.438s-.003-1.291 1.004-2.084c.66-.522 1.636-1.191 2.172-1.985 1.452-2.152 2.874 1.122 2.421 3.97-.315 1.978-1.39 4.354-3.1 3.705-1.447-.547-2.497-3.606-2.497-3.606z"/><path fill="url(#c)" d="M139.109 48.663c-.327-.675-.516-1.225-.516-1.225s-.001-.56.285-1.17c.911.288 1.861 1.052 1.861 1.052l-1.63 1.343z"/><path fill="#e59585" d="M139.109 48.663c-.327-.675-.516-1.225-.516-1.225s-.001-.56.285-1.17c.911.288 1.861 1.052 1.861 1.052l-1.63 1.343z"/><path fill="#d67b72" d="M140.405 49.536s-.749-1.687.17-2.88c1.082-1.404 1.56-3.276 2.225-3.479.811-.246 1.16 1.534 1.273 2.243.172 1.052-.118 3.117-.765 4.265-.461.817-.899 1.396-2.134 1.292-1.236-.105-.769-1.44-.769-1.44z"/><path fill="#f7a996" d="M132.133 47.684s-.097-1.286-1.16-2.002c-.698-.469-1.722-1.062-2.317-1.814-1.612-2.035-2.78 1.338-2.11 4.143.463 1.948 1.716 4.236 3.372 3.46 1.401-.657 2.215-3.787 2.215-3.787z"/><path fill="#e59585" d="M131.485 49.563c.276-.698.648-1.879.648-1.879s-.042-.557-.374-1.143c-.885.355-1.776 1.189-1.776 1.189l1.502 1.834z"/><path fill="#d67b72" d="M130.486 49.915s.618-1.74-.39-2.86c-1.185-1.316-1.803-3.147-2.481-3.3-.828-.183-1.04 1.619-1.1 2.335-.089 1.062.356 3.099 1.09 4.194.521.779 1.001 1.323 2.225 1.126 1.225-.198.656-1.495.656-1.495z"/><path fill="#f7a996" d="M139.351 47.2s-1.966-1.157-3.929-1.017c-1.367.098-2.969.346-4.33 1.663-1.852 1.79-2.291 4.747-2.314 6.26-.06 3.996 2.609 6.526 6.749 6.43 4.081-.095 7.369-2.762 7.095-6.745-.155-2.271-.888-5.2-3.271-6.591z"/><path fill="#d67b72" d="M138.054 56.55s-.938-2.1-2.383-2.045c-.873.034-1.826.949-2.3 2.325-.545 1.585 1.522 2.07 2.464 1.998.857-.068 2.864-.351 2.219-2.278z"/><path fill="#fff" d="M134.733 57.448a.487.487 0 1 1-.036-.973.487.487 0 0 1 .036.973z" opacity=".4"/><ellipse cx="136.746" cy="56.883" rx=".487" ry=".487" fill="#fff" opacity=".4"/><path fill="#f7a996" d="M136.147 46.403s.097-.868-.836-.94c0 0 .749.404.64.905l.196.035z"/><path fill="#f7a996" d="M135.924 46.293s-.185-.34-.533-.39c0 0 .441.242.449.458l.084-.068z"/><ellipse cx="138.922" cy="53.783" rx=".535" ry=".743" fill="#304454" transform="rotate(178.441 138.922 53.783)"/><ellipse cx="132.54" cy="53.628" rx=".535" ry=".743" fill="#304454" transform="rotate(178.441 132.54 53.628)"/><ellipse cx="134.938" cy="56.913" rx=".206" ry=".206" fill="#304454"/><path fill="#304454" d="M136.532 57.059a.205.205 0 1 0-.017-.411.206.206 0 1 0 .017.41z"/><path fill="#d67b72" d="M65.308 97.354s.736.172.746.344c.009.171-.324.581-.527.62-.204.037-.893-.348-.893-.348l.674-.616z"/><path fill="#d67b72" d="M65.04 97.705s.692.14.758.408c.045.187-.963.944-1.668.745-.428-.12-.605-.342-.605-.342l1.515-.811z"/><path fill="#e59585" d="M61.446 92.16c.24.13 2.148 1.61.431 3.993-.424.59 2.026 1.247 2.026 1.247s.627-.28 1.232-.064c.813.29-1.742 1.264-1.742 1.264s.144.349.05.372c-.09.022-.419-.46-.463-.566-.189-.12-1.594-.44-2.29-.922-.708-.488-3.465-1.998-2.634-4.023.963-2.347 2.874-1.584 3.39-1.302z"/><path fill="#d67b72" d="M41.587 97.392s-.574.12-.63.009c-.056-.11-.072-.456.05-.54.124-.083.608-.061.608-.061l-.028.592z"/><path fill="#d67b72" d="M41.57 97.102s-.55.098-.671-.06c-.084-.11.268-.903.79-.976.32-.045.499.051.499.051l-.618.985z"/><path fill="#e59585" d="M49.36 93.807c-.647 4-4.716 2.358-5.299 2.849-.972.82-2.474.736-2.474.736-.36-.014.556-1.282.556-1.282l.37.114s-.367-.207-.313-.25c.097-.073.301.03.558.159.815-.144.79-1.134 1.136-1.217 1.343-.323 1.144-.888 1.144-.888-1.896-2.308 1.27-2.995 1.27-2.995s3.771-1.672 3.052 2.774z"/><path fill="#e59585" d="M45.282 91.417s-.641-1.258-1.718-1.225c-1.079.033-1.076 1.016-.463 1.318.601.296.951-.712.951-.712s.044 1.153-.968 1.002c-1.076-.16-1.085-1.986.546-1.983 1.161.003 2.023 1.103 2.023 1.103l-.371.497z"/><path fill="#f7a996" d="M59.089 92.258s-1.918.31-3.986-.841c-3.796-2.116-6.588-2.877-9.588-.9-4.021 2.652-4.822 11.002 3.423 12.733 12.087 2.537 16.936-10.064 16.936-10.064l-6.785-.928z"/><path fill="#e59585" d="M55.546 103.121c-.751-3.14.469-4.147.469-4.147l2.04 3.154a12.81 12.81 0 0 1-2.51.993zM48.938 103.249c-.98-.229-1.826-.543-2.55-.924l.644-1.178c.88 1.331 2.223 2.001 2.958 2.286a9.382 9.382 0 0 1-1.052-.184z"/><path fill="#d67b72" d="M39.868 103.929s-.663.138-.73.01c-.063-.127-.084-.527.059-.623.143-.098.703-.071.703-.071l-.032.684z"/><path fill="#d67b72" d="M39.848 103.594s-.635.113-.775-.071c-.098-.126.31-1.042.916-1.126.366-.052.574.058.574.058l-.715 1.139z"/><path fill="#f7a996" d="M49.055 99.733c-.567 4.509-5.655 2.776-6.33 3.346-1.122.948-2.857.851-2.857.851-.417-.017.643-1.482.643-1.482l.426.132s-.424-.24-.36-.288c.111-.085.347.035.644.183.941-.167.913-1.311 1.312-1.406 1.554-.375 1.322-1.027 1.322-1.027-2.19-2.667-.56-5.642-.56-5.642s6.407.17 5.76 5.333z"/><path fill="#e59585" d="M59.624 101.169c-2.873-1.628-6.116-5.105-6.57-10.797a27.12 27.12 0 0 1 2.048 1.044c2.068 1.152 3.986.841 3.986.841l6.786.929s-1.89 4.91-6.25 7.983z"/><path fill="#d67b72" d="M63.48 101.844s.751-.077.817.082c.065.159-.116.655-.296.758-.18.102-.958-.039-.958-.039l.437-.801z"/><path fill="#d67b72" d="M63.342 102.263s.7-.092.85.139c.103.162-.603 1.206-1.335 1.247-.445.026-.683-.126-.683-.126l1.168-1.26z"/><path fill="#f7a996" d="M58.307 98.15c.268.045 2.555.823 1.707 3.636-.208.696 2.322.52 2.322.52s.502-.469 1.145-.462c.862.01-1.237 1.761-1.237 1.761s.25.283.17.336c-.079.05-.547-.298-.623-.384-.218-.052-1.65.102-2.467-.127-.827-.231-3.925-.762-3.798-2.946.146-2.533 2.201-2.433 2.781-2.334zM65.26 84.104s-.004-1.29 1.003-2.084c.66-.522 1.636-1.19 2.172-1.985 1.453-2.152 2.874 1.122 2.421 3.97-.314 1.978-1.39 4.354-3.1 3.705-1.447-.547-2.496-3.606-2.496-3.606z"/><path fill="url(#d)" d="M65.776 85.33c-.327-.676-.516-1.226-.516-1.226s-.001-.559.285-1.169c.91.287 1.86 1.051 1.86 1.051l-1.63 1.343z"/><path fill="#e59585" d="M65.776 85.33c-.327-.676-.516-1.226-.516-1.226s-.001-.559.285-1.169c.91.287 1.86 1.051 1.86 1.051l-1.63 1.343z"/><path fill="#d67b72" d="M67.071 86.203s-.749-1.687.17-2.88c1.082-1.404 1.56-3.276 2.225-3.48.811-.245 1.16 1.535 1.273 2.244.172 1.052-.118 3.117-.765 4.265-.46.817-.899 1.396-2.134 1.292-1.236-.105-.769-1.441-.769-1.441z"/><path fill="#f7a996" d="M58.8 84.35s-.097-1.285-1.16-2.001c-.698-.47-1.722-1.062-2.317-1.814-1.612-2.035-2.78 1.338-2.11 4.143.463 1.948 1.716 4.236 3.372 3.46 1.4-.657 2.215-3.787 2.215-3.787z"/><path fill="#e59585" d="M58.152 86.23c.276-.698.648-1.879.648-1.879s-.042-.558-.374-1.144c-.885.355-1.776 1.19-1.776 1.19l1.502 1.833z"/><path fill="#d67b72" d="M57.152 86.581s.618-1.74-.39-2.859c-1.185-1.317-1.803-3.148-2.48-3.3-.829-.184-1.04 1.618-1.1 2.334-.09 1.062.355 3.1 1.09 4.194.52.78 1 1.323 2.224 1.126 1.225-.198.656-1.495.656-1.495z"/><path fill="#f7a996" d="M66.018 83.866s-1.966-1.157-3.93-1.017c-1.366.098-2.968.346-4.33 1.663-1.851 1.791-2.29 4.747-2.313 6.26-.06 3.996 2.609 6.526 6.749 6.43 4.08-.095 7.369-2.762 7.095-6.745-.155-2.27-.888-5.199-3.271-6.59z"/><path fill="#d67b72" d="M64.721 93.217s-.938-2.1-2.383-2.045c-.873.034-1.826.949-2.3 2.325-.545 1.585 1.522 2.07 2.464 1.998.857-.068 2.864-.351 2.219-2.278z"/><path fill="#fff" d="M61.4 94.115a.487.487 0 1 1-.037-.974.487.487 0 0 1 .036.974z" opacity=".4"/><ellipse cx="63.413" cy="93.55" rx=".487" ry=".487" fill="#fff" opacity=".4"/><path fill="#f7a996" d="M62.814 83.07s.097-.869-.836-.94c0 0 .749.403.64.904l.196.035z"/><path fill="#f7a996" d="M62.59 82.96s-.185-.34-.533-.39c0 0 .441.242.45.458l.083-.069z"/><ellipse cx="65.588" cy="90.45" rx=".535" ry=".743" fill="#304454" transform="rotate(178.441 65.588 90.45)"/><ellipse cx="59.206" cy="90.295" rx=".535" ry=".743" fill="#304454" transform="rotate(178.441 59.206 90.295)"/><ellipse cx="61.604" cy="93.58" rx=".206" ry=".206" fill="#304454"/><path fill="#304454" d="M63.199 93.725a.205.205 0 1 0-.017-.411.206.206 0 1 0 .017.411z"/><path fill="#d67b72" d="M101.974 97.354s.736.172.746.344c.009.171-.324.581-.527.62-.204.037-.893-.348-.893-.348l.674-.616z"/><path fill="#d67b72" d="M101.707 97.705s.692.14.758.408c.045.187-.963.944-1.668.745-.428-.12-.605-.342-.605-.342l1.515-.811z"/><path fill="#e59585" d="M98.113 92.16c.239.13 2.148 1.61.43 3.993-.423.59 2.027 1.247 2.027 1.247s.627-.28 1.232-.064c.813.29-1.742 1.264-1.742 1.264s.144.349.05.372c-.09.022-.42-.46-.463-.566-.19-.12-1.594-.44-2.291-.922-.707-.488-3.464-1.998-2.633-4.023.963-2.347 2.874-1.584 3.39-1.302z"/><path fill="#d67b72" d="M78.254 97.392s-.574.12-.63.009c-.056-.11-.072-.456.05-.54.124-.083.608-.061.608-.061l-.028.592z"/><path fill="#d67b72" d="M78.237 97.102s-.55.098-.671-.06c-.084-.11.268-.903.79-.976.32-.045.499.051.499.051l-.618.985z"/><path fill="#e59585" d="M86.027 93.807c-.647 4-4.716 2.358-5.3 2.849-.971.82-2.473.736-2.473.736-.36-.014.556-1.282.556-1.282l.37.114s-.367-.207-.313-.25c.097-.073.3.03.558.159.815-.144.79-1.134 1.136-1.217 1.343-.323 1.144-.888 1.144-.888-1.896-2.308 1.27-2.995 1.27-2.995s3.77-1.672 3.052 2.774z"/><path fill="#e59585" d="M81.949 91.417s-.641-1.258-1.718-1.225c-1.08.033-1.076 1.016-.463 1.318.6.296.95-.712.95-.712s.045 1.153-.967 1.002c-1.076-.16-1.085-1.986.546-1.983 1.16.003 2.023 1.103 2.023 1.103l-.371.497z"/><path fill="#f7a996" d="M95.755 92.258s-1.918.31-3.986-.841c-3.796-2.116-6.588-2.877-9.588-.9-4.02 2.652-4.822 11.002 3.423 12.733 12.087 2.537 16.936-10.064 16.936-10.064l-6.785-.928z"/><path fill="#e59585" d="M92.212 103.121c-.75-3.14.47-4.147.47-4.147l2.04 3.154a12.81 12.81 0 0 1-2.51.993zM85.604 103.249c-.98-.229-1.826-.543-2.55-.924l.644-1.178c.88 1.331 2.223 2.001 2.958 2.286a9.382 9.382 0 0 1-1.052-.184z"/><path fill="#d67b72" d="M76.535 103.929s-.663.138-.73.01c-.063-.127-.084-.527.059-.623.143-.098.703-.071.703-.071l-.032.684z"/><path fill="#d67b72" d="M76.514 103.594s-.635.113-.775-.071c-.098-.126.31-1.042.916-1.126.366-.052.574.058.574.058l-.715 1.139z"/><path fill="#f7a996" d="M85.722 99.733c-.567 4.509-5.655 2.776-6.33 3.346-1.122.948-2.857.851-2.857.851-.417-.017.643-1.482.643-1.482l.426.132s-.424-.24-.361-.288c.112-.085.348.035.645.183.94-.167.913-1.311 1.312-1.406 1.554-.375 1.322-1.027 1.322-1.027-2.191-2.667-.561-5.642-.561-5.642s6.408.17 5.76 5.333z"/><path fill="#e59585" d="M96.29 101.169c-2.872-1.628-6.115-5.105-6.57-10.797a27.12 27.12 0 0 1 2.049 1.044c2.068 1.152 3.986.841 3.986.841l6.786.929s-1.89 4.91-6.25 7.983z"/><path fill="#d67b72" d="M100.147 101.844s.751-.077.817.082c.065.159-.116.655-.296.758-.181.102-.958-.039-.958-.039l.437-.801z"/><path fill="#d67b72" d="M100.009 102.263s.7-.092.85.139c.103.162-.603 1.206-1.335 1.247-.445.026-.683-.126-.683-.126l1.168-1.26z"/><path fill="#f7a996" d="M94.974 98.15c.268.045 2.555.823 1.707 3.636-.208.696 2.322.52 2.322.52s.502-.469 1.145-.462c.862.01-1.237 1.761-1.237 1.761s.25.283.169.336c-.078.05-.546-.298-.622-.384-.218-.052-1.65.102-2.467-.127-.827-.231-3.925-.762-3.798-2.946.146-2.533 2.2-2.433 2.78-2.334zM101.926 84.104s-.003-1.29 1.004-2.084c.66-.522 1.636-1.19 2.172-1.985 1.452-2.152 2.874 1.122 2.421 3.97-.315 1.978-1.39 4.354-3.1 3.705-1.447-.547-2.497-3.606-2.497-3.606z"/><path fill="url(#e)" d="M102.442 85.33c-.327-.676-.516-1.226-.516-1.226s-.001-.559.285-1.169c.911.287 1.861 1.051 1.861 1.051l-1.63 1.343z"/><path fill="#e59585" d="M102.442 85.33c-.327-.676-.516-1.226-.516-1.226s-.001-.559.285-1.169c.911.287 1.861 1.051 1.861 1.051l-1.63 1.343z"/><path fill="#d67b72" d="M103.738 86.203s-.749-1.687.17-2.88c1.082-1.404 1.56-3.276 2.225-3.48.811-.245 1.16 1.535 1.273 2.244.172 1.052-.118 3.117-.765 4.265-.461.817-.899 1.396-2.134 1.292-1.236-.105-.769-1.441-.769-1.441z"/><path fill="#f7a996" d="M95.466 84.35s-.096-1.285-1.16-2.001c-.697-.47-1.721-1.062-2.316-1.814-1.612-2.035-2.78 1.338-2.11 4.143.463 1.948 1.716 4.236 3.371 3.46 1.401-.657 2.215-3.787 2.215-3.787z"/><path fill="#e59585" d="M94.819 86.23c.276-.698.648-1.879.648-1.879s-.042-.558-.374-1.144c-.885.355-1.776 1.19-1.776 1.19l1.502 1.833z"/><path fill="#d67b72" d="M93.819 86.581s.618-1.74-.39-2.859c-1.185-1.317-1.803-3.148-2.481-3.3-.828-.184-1.04 1.618-1.1 2.334-.089 1.062.356 3.1 1.09 4.194.521.78 1.001 1.323 2.225 1.126 1.225-.198.656-1.495.656-1.495z"/><path fill="#f7a996" d="M102.684 83.866s-1.966-1.157-3.928-1.017c-1.368.098-2.97.346-4.33 1.663-1.853 1.791-2.291 4.747-2.314 6.26-.06 3.996 2.609 6.526 6.749 6.43 4.08-.095 7.368-2.762 7.094-6.745-.155-2.27-.888-5.199-3.271-6.59z"/><path fill="#d67b72" d="M101.388 93.217s-.938-2.1-2.383-2.045c-.873.034-1.826.949-2.3 2.325-.545 1.585 1.522 2.07 2.464 1.998.857-.068 2.864-.351 2.219-2.278z"/><path fill="#fff" d="M98.066 94.115a.487.487 0 1 1-.037-.974.487.487 0 0 1 .037.974z" opacity=".4"/><ellipse cx="100.08" cy="93.55" rx=".487" ry=".487" fill="#fff" opacity=".4"/><path fill="#f7a996" d="M99.48 83.07s.098-.869-.835-.94c0 0 .749.403.64.904l.196.035z"/><path fill="#f7a996" d="M99.257 82.96s-.185-.34-.533-.39c0 0 .441.242.45.458l.083-.069z"/><ellipse cx="102.255" cy="90.45" rx=".535" ry=".743" fill="#304454" transform="rotate(178.441 102.255 90.45)"/><ellipse cx="95.873" cy="90.295" rx=".535" ry=".743" fill="#304454" transform="rotate(178.441 95.873 90.295)"/><ellipse cx="98.271" cy="93.58" rx=".206" ry=".206" fill="#304454"/><path fill="#304454" d="M99.865 93.725a.206.206 0 1 0-.016-.412.206.206 0 0 0 .016.412z"/><path fill="#d67b72" d="M138.641 97.354s.736.172.746.344c.009.171-.324.581-.527.62-.204.037-.893-.348-.893-.348l.674-.616z"/><path fill="#d67b72" d="M138.374 97.705s.692.14.758.408c.045.187-.963.944-1.668.745-.428-.12-.605-.342-.605-.342l1.515-.811z"/><path fill="#e59585" d="M134.78 92.16c.239.13 2.148 1.61.431 3.993-.424.59 2.026 1.247 2.026 1.247s.627-.28 1.232-.064c.813.29-1.742 1.264-1.742 1.264s.144.349.05.372c-.09.022-.419-.46-.463-.566-.189-.12-1.594-.44-2.291-.922-.707-.488-3.464-1.998-2.633-4.023.963-2.347 2.874-1.584 3.39-1.302z"/><path fill="#d67b72" d="M114.921 97.392s-.574.12-.63.009c-.056-.11-.072-.456.05-.54.124-.083.608-.061.608-.061l-.028.592z"/><path fill="#d67b72" d="M114.903 97.102s-.55.098-.671-.06c-.084-.11.268-.903.791-.976.319-.045.498.051.498.051l-.618.985z"/><path fill="#e59585" d="M122.693 93.807c-.647 4-4.716 2.358-5.299 2.849-.972.82-2.474.736-2.474.736-.36-.014.556-1.282.556-1.282l.37.114s-.367-.207-.313-.25c.097-.073.301.03.558.159.815-.144.79-1.134 1.136-1.217 1.343-.323 1.144-.888 1.144-.888-1.896-2.308 1.27-2.995 1.27-2.995s3.771-1.672 3.052 2.774z"/><path fill="#e59585" d="M118.615 91.417s-.641-1.258-1.718-1.225c-1.079.033-1.076 1.016-.463 1.318.601.296.951-.712.951-.712s.044 1.153-.968 1.002c-1.076-.16-1.085-1.986.546-1.983 1.161.003 2.023 1.103 2.023 1.103l-.371.497z"/><path fill="#f7a996" d="M132.422 92.258s-1.918.31-3.986-.841c-3.796-2.116-6.588-2.877-9.588-.9-4.021 2.652-4.822 11.002 3.423 12.733 12.087 2.537 16.936-10.064 16.936-10.064l-6.785-.928z"/><path fill="#e59585" d="M128.879 103.121c-.751-3.14.469-4.147.469-4.147l2.04 3.154a12.81 12.81 0 0 1-2.509.993zM122.271 103.249c-.98-.229-1.826-.543-2.55-.924l.644-1.178c.88 1.331 2.223 2.001 2.958 2.286a9.382 9.382 0 0 1-1.052-.184z"/><path fill="#d67b72" d="M113.201 103.929s-.663.138-.729.01c-.064-.127-.085-.527.058-.623.143-.098.703-.071.703-.071l-.032.684z"/><path fill="#d67b72" d="M113.181 103.594s-.635.113-.775-.071c-.098-.126.31-1.042.916-1.126.366-.052.574.058.574.058l-.715 1.139z"/><path fill="#f7a996" d="M122.389 99.733c-.567 4.509-5.655 2.776-6.33 3.346-1.122.948-2.857.851-2.857.851-.417-.017.643-1.482.643-1.482l.426.132s-.424-.24-.361-.288c.112-.085.348.035.645.183.941-.167.913-1.311 1.312-1.406 1.554-.375 1.322-1.027 1.322-1.027-2.191-2.667-.561-5.642-.561-5.642s6.408.17 5.761 5.333z"/><path fill="#e59585" d="M132.958 101.169c-2.873-1.628-6.116-5.105-6.571-10.797a27.12 27.12 0 0 1 2.049 1.044c2.068 1.152 3.986.841 3.986.841l6.786.929s-1.89 4.91-6.25 7.983z"/><path fill="#d67b72" d="M136.814 101.844s.751-.077.817.082c.065.159-.116.655-.296.758-.181.102-.958-.039-.958-.039l.437-.801z"/><path fill="#d67b72" d="M136.675 102.263s.7-.092.85.139c.103.162-.603 1.206-1.335 1.247-.445.026-.683-.126-.683-.126l1.168-1.26z"/><path fill="#f7a996" d="M131.641 98.15c.268.045 2.555.823 1.707 3.636-.208.696 2.322.52 2.322.52s.502-.469 1.145-.462c.862.01-1.237 1.761-1.237 1.761s.25.283.169.336c-.078.05-.546-.298-.622-.384-.218-.052-1.65.102-2.467-.127-.827-.231-3.925-.762-3.798-2.946.146-2.533 2.201-2.433 2.781-2.334zM138.593 84.104s-.003-1.29 1.004-2.084c.66-.522 1.636-1.19 2.172-1.985 1.452-2.152 2.874 1.122 2.421 3.97-.315 1.978-1.39 4.354-3.1 3.705-1.447-.547-2.497-3.606-2.497-3.606z"/><path fill="url(#f)" d="M139.109 85.33c-.327-.676-.516-1.226-.516-1.226s-.001-.559.285-1.169c.911.287 1.861 1.051 1.861 1.051l-1.63 1.343z"/><path fill="#e59585" d="M139.109 85.33c-.327-.676-.516-1.226-.516-1.226s-.001-.559.285-1.169c.911.287 1.861 1.051 1.861 1.051l-1.63 1.343z"/><path fill="#d67b72" d="M140.405 86.203s-.749-1.687.17-2.88c1.082-1.404 1.56-3.276 2.225-3.48.811-.245 1.16 1.535 1.273 2.244.172 1.052-.118 3.117-.765 4.265-.461.817-.899 1.396-2.134 1.292-1.236-.105-.769-1.441-.769-1.441z"/><path fill="#f7a996" d="M132.133 84.35s-.097-1.285-1.16-2.001c-.698-.47-1.722-1.062-2.317-1.814-1.612-2.035-2.78 1.338-2.11 4.143.463 1.948 1.716 4.236 3.372 3.46 1.401-.657 2.215-3.787 2.215-3.787z"/><path fill="#e59585" d="M131.485 86.23c.276-.698.648-1.879.648-1.879s-.042-.558-.374-1.144c-.885.355-1.776 1.19-1.776 1.19l1.502 1.833z"/><path fill="#d67b72" d="M130.486 86.581s.618-1.74-.39-2.859c-1.185-1.317-1.803-3.148-2.481-3.3-.828-.184-1.04 1.618-1.1 2.334-.089 1.062.356 3.1 1.09 4.194.521.78 1.001 1.323 2.225 1.126 1.225-.198.656-1.495.656-1.495z"/><path fill="#f7a996" d="M139.351 83.866s-1.966-1.157-3.929-1.017c-1.367.098-2.969.346-4.33 1.663-1.852 1.791-2.291 4.747-2.314 6.26-.06 3.996 2.609 6.526 6.749 6.43 4.081-.095 7.369-2.762 7.095-6.745-.155-2.27-.888-5.199-3.271-6.59z"/><path fill="#d67b72" d="M138.054 93.217s-.938-2.1-2.383-2.045c-.873.034-1.826.949-2.3 2.325-.545 1.585 1.522 2.07 2.464 1.998.857-.068 2.864-.351 2.219-2.278z"/><path fill="#fff" d="M134.733 94.115a.487.487 0 1 1-.036-.974.487.487 0 0 1 .036.974z" opacity=".4"/><ellipse cx="136.746" cy="93.55" rx=".487" ry=".487" fill="#fff" opacity=".4"/><path fill="#f7a996" d="M136.147 83.07s.097-.869-.836-.94c0 0 .749.403.64.904l.196.035z"/><path fill="#f7a996" d="M135.924 82.96s-.185-.34-.533-.39c0 0 .441.242.449.458l.084-.069z"/><ellipse cx="138.922" cy="90.45" rx=".535" ry=".743" fill="#304454" transform="rotate(178.441 138.922 90.45)"/><ellipse cx="132.54" cy="90.295" rx=".535" ry=".743" fill="#304454" transform="rotate(178.441 132.54 90.295)"/><ellipse cx="134.938" cy="93.58" rx=".206" ry=".206" fill="#304454"/><path fill="#304454" d="M136.532 93.725a.205.205 0 1 0-.017-.411.206.206 0 1 0 .017.411z"/><path fill="#d67b72" d="M65.308 134.021s.736.172.746.344c.009.171-.324.581-.527.62-.204.037-.893-.348-.893-.348l.674-.616z"/><path fill="#d67b72" d="M65.04 134.371s.692.14.758.408c.045.187-.963.944-1.668.745-.428-.12-.605-.342-.605-.342l1.515-.811z"/><path fill="#e59585" d="M61.446 128.826c.24.13 2.148 1.61.431 3.994-.424.59 2.026 1.247 2.026 1.247s.627-.28 1.232-.064c.813.29-1.742 1.263-1.742 1.263s.144.349.05.372c-.09.022-.419-.459-.463-.565-.189-.121-1.594-.441-2.29-.923-.708-.488-3.465-1.998-2.634-4.023.963-2.347 2.874-1.583 3.39-1.301z"/><path fill="#d67b72" d="M41.587 134.058s-.574.12-.63.009c-.056-.11-.072-.456.05-.54.124-.083.608-.061.608-.061l-.028.592z"/><path fill="#d67b72" d="M41.57 133.769s-.55.098-.671-.06c-.084-.11.268-.903.79-.976.32-.045.499.051.499.051l-.618.985z"/><path fill="#e59585" d="M49.36 130.473c-.647 4.001-4.716 2.358-5.299 2.849-.972.821-2.474.736-2.474.736-.36-.014.556-1.282.556-1.282l.37.114s-.367-.207-.313-.25c.097-.073.301.031.558.159.815-.144.79-1.134 1.136-1.217 1.343-.323 1.144-.888 1.144-.888-1.896-2.308 1.27-2.995 1.27-2.995s3.771-1.672 3.052 2.774z"/><path fill="#e59585" d="M45.282 128.084s-.641-1.258-1.718-1.225c-1.079.033-1.076 1.016-.463 1.318.601.296.951-.712.951-.712s.044 1.153-.968 1.002c-1.076-.159-1.085-1.986.546-1.983 1.161.003 2.023 1.103 2.023 1.103l-.371.497z"/><path fill="#f7a996" d="M59.089 128.924s-1.918.31-3.986-.841c-3.796-2.116-6.588-2.877-9.588-.899-4.021 2.651-4.822 11.001 3.423 12.732 12.087 2.537 16.936-10.064 16.936-10.064l-6.785-.928z"/><path fill="#e59585" d="M55.546 139.788c-.751-3.141.469-4.147.469-4.147l2.04 3.154a12.81 12.81 0 0 1-2.51.993zM48.938 139.916c-.98-.229-1.826-.543-2.55-.924l.644-1.178c.88 1.331 2.223 2.001 2.958 2.286a9.382 9.382 0 0 1-1.052-.184z"/><path fill="#d67b72" d="M39.868 140.595s-.663.138-.73.01c-.063-.127-.084-.527.059-.623.143-.098.703-.071.703-.071l-.032.684z"/><path fill="#d67b72" d="M39.848 140.261s-.635.113-.775-.071c-.098-.126.31-1.042.916-1.126.366-.052.574.058.574.058l-.715 1.139z"/><path fill="#f7a996" d="M49.055 136.399c-.567 4.509-5.655 2.776-6.33 3.346-1.122.948-2.857.851-2.857.851-.417-.017.643-1.482.643-1.482l.426.132s-.424-.24-.36-.288c.111-.085.347.035.644.183.941-.167.913-1.311 1.312-1.406 1.554-.375 1.322-1.027 1.322-1.027-2.19-2.667-.56-5.642-.56-5.642s6.407.171 5.76 5.333z"/><path fill="#e59585" d="M59.624 137.836c-2.873-1.628-6.116-5.105-6.57-10.797a27.12 27.12 0 0 1 2.048 1.044c2.068 1.152 3.986.841 3.986.841l6.786.929s-1.89 4.91-6.25 7.983z"/><path fill="#d67b72" d="M63.48 138.511s.751-.077.817.082c.065.159-.116.655-.296.758-.18.102-.958-.039-.958-.039l.437-.801z"/><path fill="#d67b72" d="M63.342 138.93s.7-.092.85.139c.103.162-.603 1.206-1.335 1.247-.445.026-.683-.126-.683-.126l1.168-1.26z"/><path fill="#f7a996" d="M58.307 134.816c.268.045 2.555.823 1.707 3.636-.208.696 2.322.52 2.322.52s.502-.469 1.145-.462c.862.01-1.237 1.761-1.237 1.761s.25.283.17.336c-.079.05-.547-.298-.623-.384-.218-.052-1.65.102-2.467-.127-.827-.231-3.925-.762-3.798-2.946.146-2.533 2.201-2.433 2.781-2.334zM65.26 120.771s-.004-1.291 1.003-2.084c.66-.522 1.636-1.191 2.172-1.985 1.453-2.152 2.874 1.122 2.421 3.97-.314 1.978-1.39 4.354-3.1 3.705-1.447-.547-2.496-3.606-2.496-3.606z"/><path fill="url(#g)" d="M65.776 121.996c-.327-.675-.516-1.225-.516-1.225s-.001-.559.285-1.169c.91.287 1.86 1.051 1.86 1.051l-1.63 1.343z"/><path fill="#e59585" d="M65.776 121.996c-.327-.675-.516-1.225-.516-1.225s-.001-.559.285-1.169c.91.287 1.86 1.051 1.86 1.051l-1.63 1.343z"/><path fill="#d67b72" d="M67.071 122.87s-.749-1.687.17-2.88c1.082-1.404 1.56-3.276 2.225-3.479.811-.246 1.16 1.534 1.273 2.243.172 1.052-.118 3.117-.765 4.265-.46.817-.899 1.396-2.134 1.292-1.236-.105-.769-1.441-.769-1.441z"/><path fill="#f7a996" d="M58.8 121.017s-.097-1.286-1.16-2.002c-.698-.469-1.722-1.062-2.317-1.814-1.612-2.035-2.78 1.338-2.11 4.143.463 1.948 1.716 4.236 3.372 3.46 1.4-.657 2.215-3.787 2.215-3.787z"/><path fill="#e59585" d="M58.152 122.897c.276-.698.648-1.879.648-1.879s-.042-.558-.374-1.144c-.885.355-1.776 1.189-1.776 1.189l1.502 1.834z"/><path fill="#d67b72" d="M57.152 123.248s.618-1.74-.39-2.859c-1.185-1.317-1.803-3.148-2.48-3.3-.829-.184-1.04 1.618-1.1 2.334-.09 1.062.355 3.099 1.09 4.194.52.779 1 1.323 2.224 1.126 1.225-.198.656-1.495.656-1.495z"/><path fill="#f7a996" d="M66.018 120.533s-1.966-1.157-3.93-1.017c-1.366.098-2.968.346-4.33 1.663-1.851 1.791-2.29 4.747-2.313 6.26-.06 3.996 2.609 6.526 6.749 6.43 4.08-.095 7.369-2.762 7.095-6.745-.155-2.271-.888-5.199-3.271-6.591z"/><path fill="#d67b72" d="M64.721 129.883s-.938-2.1-2.383-2.045c-.873.034-1.826.949-2.3 2.325-.545 1.585 1.522 2.07 2.464 1.998.857-.068 2.864-.351 2.219-2.278z"/><path fill="#fff" d="M61.4 130.781a.487.487 0 1 1-.037-.974.487.487 0 0 1 .036.974z" opacity=".4"/><ellipse cx="63.413" cy="130.217" rx=".487" ry=".487" fill="#fff" opacity=".4"/><path fill="#f7a996" d="M62.814 119.736s.097-.868-.836-.94c0 0 .749.404.64.905l.196.035z"/><path fill="#f7a996" d="M62.59 119.626s-.185-.339-.533-.39c0 0 .441.242.45.458l.083-.068z"/><ellipse cx="65.588" cy="127.117" rx=".535" ry=".743" fill="#304454" transform="rotate(178.441 65.588 127.117)"/><ellipse cx="59.206" cy="126.961" rx=".535" ry=".743" fill="#304454" transform="rotate(178.441 59.206 126.961)"/><ellipse cx="61.604" cy="130.246" rx=".206" ry=".206" fill="#304454"/><path fill="#304454" d="M63.199 130.392a.205.205 0 1 0-.017-.411.206.206 0 1 0 .017.411z"/><path fill="#d67b72" d="M101.974 134.021s.736.172.746.344c.009.171-.324.581-.527.62-.204.037-.893-.348-.893-.348l.674-.616z"/><path fill="#d67b72" d="M101.707 134.371s.692.14.758.408c.045.187-.963.944-1.668.745-.428-.12-.605-.342-.605-.342l1.515-.811z"/><path fill="#e59585" d="M98.113 128.826c.239.13 2.148 1.61.43 3.994-.423.59 2.027 1.247 2.027 1.247s.627-.28 1.232-.064c.813.29-1.742 1.263-1.742 1.263s.144.349.05.372c-.09.022-.42-.459-.463-.565-.19-.121-1.594-.441-2.291-.923-.707-.488-3.464-1.998-2.633-4.023.963-2.347 2.874-1.583 3.39-1.301z"/><path fill="#d67b72" d="M78.254 134.058s-.574.12-.63.009c-.056-.11-.072-.456.05-.54.124-.083.608-.061.608-.061l-.028.592z"/><path fill="#d67b72" d="M78.237 133.769s-.55.098-.671-.06c-.084-.11.268-.903.79-.976.32-.045.499.051.499.051l-.618.985z"/><path fill="#e59585" d="M86.027 130.473c-.647 4.001-4.716 2.358-5.3 2.849-.971.821-2.473.736-2.473.736-.36-.014.556-1.282.556-1.282l.37.114s-.367-.207-.313-.25c.097-.073.3.031.558.159.815-.144.79-1.134 1.136-1.217 1.343-.323 1.144-.888 1.144-.888-1.896-2.308 1.27-2.995 1.27-2.995s3.77-1.672 3.052 2.774z"/><path fill="#e59585" d="M81.949 128.084s-.641-1.258-1.718-1.225c-1.08.033-1.076 1.016-.463 1.318.6.296.95-.712.95-.712s.045 1.153-.967 1.002c-1.076-.159-1.085-1.986.546-1.983 1.16.003 2.023 1.103 2.023 1.103l-.371.497z"/><path fill="#f7a996" d="M95.755 128.924s-1.918.31-3.986-.841c-3.796-2.116-6.588-2.877-9.588-.899-4.02 2.651-4.822 11.001 3.423 12.732 12.087 2.537 16.936-10.064 16.936-10.064l-6.785-.928z"/><path fill="#e59585" d="M92.212 139.788c-.75-3.141.47-4.147.47-4.147l2.04 3.154a12.81 12.81 0 0 1-2.51.993zM85.604 139.916c-.98-.229-1.826-.543-2.55-.924l.644-1.178c.88 1.331 2.223 2.001 2.958 2.286a9.382 9.382 0 0 1-1.052-.184z"/><path fill="#d67b72" d="M76.535 140.595s-.663.138-.73.01c-.063-.127-.084-.527.059-.623.143-.098.703-.071.703-.071l-.032.684z"/><path fill="#d67b72" d="M76.514 140.261s-.635.113-.775-.071c-.098-.126.31-1.042.916-1.126.366-.052.574.058.574.058l-.715 1.139z"/><path fill="#f7a996" d="M85.722 136.399c-.567 4.509-5.655 2.776-6.33 3.346-1.122.948-2.857.851-2.857.851-.417-.017.643-1.482.643-1.482l.426.132s-.424-.24-.361-.288c.112-.085.348.035.645.183.94-.167.913-1.311 1.312-1.406 1.554-.375 1.322-1.027 1.322-1.027-2.191-2.667-.561-5.642-.561-5.642s6.408.171 5.76 5.333z"/><path fill="#e59585" d="M96.29 137.836c-2.872-1.628-6.115-5.105-6.57-10.797a27.12 27.12 0 0 1 2.049 1.044c2.068 1.152 3.986.841 3.986.841l6.786.929s-1.89 4.91-6.25 7.983z"/><path fill="#d67b72" d="M100.147 138.511s.751-.077.817.082c.065.159-.116.655-.296.758-.181.102-.958-.039-.958-.039l.437-.801z"/><path fill="#d67b72" d="M100.009 138.93s.7-.092.85.139c.103.162-.603 1.206-1.335 1.247-.445.026-.683-.126-.683-.126l1.168-1.26z"/><path fill="#f7a996" d="M94.974 134.816c.268.045 2.555.823 1.707 3.636-.208.696 2.322.52 2.322.52s.502-.469 1.145-.462c.862.01-1.237 1.761-1.237 1.761s.25.283.169.336c-.078.05-.546-.298-.622-.384-.218-.052-1.65.102-2.467-.127-.827-.231-3.925-.762-3.798-2.946.146-2.533 2.2-2.433 2.78-2.334zM101.926 120.771s-.003-1.291 1.004-2.084c.66-.522 1.636-1.191 2.172-1.985 1.452-2.152 2.874 1.122 2.421 3.97-.315 1.978-1.39 4.354-3.1 3.705-1.447-.547-2.497-3.606-2.497-3.606z"/><path fill="url(#h)" d="M102.442 121.996c-.327-.675-.516-1.225-.516-1.225s-.001-.559.285-1.169c.911.287 1.861 1.051 1.861 1.051l-1.63 1.343z"/><path fill="#e59585" d="M102.442 121.996c-.327-.675-.516-1.225-.516-1.225s-.001-.559.285-1.169c.911.287 1.861 1.051 1.861 1.051l-1.63 1.343z"/><path fill="#d67b72" d="M103.738 122.87s-.749-1.687.17-2.88c1.082-1.404 1.56-3.276 2.225-3.479.811-.246 1.16 1.534 1.273 2.243.172 1.052-.118 3.117-.765 4.265-.461.817-.899 1.396-2.134 1.292-1.236-.105-.769-1.441-.769-1.441z"/><path fill="#f7a996" d="M95.466 121.017s-.096-1.286-1.16-2.002c-.697-.469-1.721-1.062-2.316-1.814-1.612-2.035-2.78 1.338-2.11 4.143.463 1.948 1.716 4.236 3.371 3.46 1.401-.657 2.215-3.787 2.215-3.787z"/><path fill="#e59585" d="M94.819 122.897c.276-.698.648-1.879.648-1.879s-.042-.558-.374-1.144c-.885.355-1.776 1.189-1.776 1.189l1.502 1.834z"/><path fill="#d67b72" d="M93.819 123.248s.618-1.74-.39-2.859c-1.185-1.317-1.803-3.148-2.481-3.3-.828-.184-1.04 1.618-1.1 2.334-.089 1.062.356 3.099 1.09 4.194.521.779 1.001 1.323 2.225 1.126 1.225-.198.656-1.495.656-1.495z"/><path fill="#f7a996" d="M102.684 120.533s-1.966-1.157-3.928-1.017c-1.368.098-2.97.346-4.33 1.663-1.853 1.791-2.291 4.747-2.314 6.26-.06 3.996 2.609 6.526 6.749 6.43 4.08-.095 7.368-2.762 7.094-6.745-.155-2.271-.888-5.199-3.271-6.591z"/><path fill="#d67b72" d="M101.388 129.883s-.938-2.1-2.383-2.045c-.873.034-1.826.949-2.3 2.325-.545 1.585 1.522 2.07 2.464 1.998.857-.068 2.864-.351 2.219-2.278z"/><path fill="#fff" d="M98.066 130.781a.487.487 0 1 1-.037-.974.487.487 0 0 1 .037.974z" opacity=".4"/><ellipse cx="100.08" cy="130.217" rx=".487" ry=".487" fill="#fff" opacity=".4"/><path fill="#f7a996" d="M99.48 119.736s.098-.868-.835-.94c0 0 .749.404.64.905l.196.035z"/><path fill="#f7a996" d="M99.257 119.626s-.185-.339-.533-.39c0 0 .441.242.45.458l.083-.068z"/><ellipse cx="102.255" cy="127.117" rx=".535" ry=".743" fill="#304454" transform="rotate(178.441 102.255 127.117)"/><ellipse cx="95.873" cy="126.961" rx=".535" ry=".743" fill="#304454" transform="rotate(178.441 95.873 126.961)"/><ellipse cx="98.271" cy="130.246" rx=".206" ry=".206" fill="#304454"/><path fill="#304454" d="M99.865 130.392a.206.206 0 1 0-.016-.412.206.206 0 0 0 .016.412z"/><path fill="#d67b72" d="M138.641 134.021s.736.172.746.344c.009.171-.324.581-.527.62-.204.037-.893-.348-.893-.348l.674-.616z"/><path fill="#d67b72" d="M138.374 134.371s.692.14.758.408c.045.187-.963.944-1.668.745-.428-.12-.605-.342-.605-.342l1.515-.811z"/><path fill="#e59585" d="M134.78 128.826c.239.13 2.148 1.61.431 3.994-.424.59 2.026 1.247 2.026 1.247s.627-.28 1.232-.064c.813.29-1.742 1.263-1.742 1.263s.144.349.05.372c-.09.022-.419-.459-.463-.565-.189-.121-1.594-.441-2.291-.923-.707-.488-3.464-1.998-2.633-4.023.963-2.347 2.874-1.583 3.39-1.301z"/><path fill="#d67b72" d="M114.921 134.058s-.574.12-.63.009c-.056-.11-.072-.456.05-.54.124-.083.608-.061.608-.061l-.028.592z"/><path fill="#d67b72" d="M114.903 133.769s-.55.098-.671-.06c-.084-.11.268-.903.791-.976.319-.045.498.051.498.051l-.618.985z"/><path fill="#e59585" d="M122.693 130.473c-.647 4.001-4.716 2.358-5.299 2.849-.972.821-2.474.736-2.474.736-.36-.014.556-1.282.556-1.282l.37.114s-.367-.207-.313-.25c.097-.073.301.031.558.159.815-.144.79-1.134 1.136-1.217 1.343-.323 1.144-.888 1.144-.888-1.896-2.308 1.27-2.995 1.27-2.995s3.771-1.672 3.052 2.774z"/><path fill="#e59585" d="M118.615 128.084s-.641-1.258-1.718-1.225c-1.079.033-1.076 1.016-.463 1.318.601.296.951-.712.951-.712s.044 1.153-.968 1.002c-1.076-.159-1.085-1.986.546-1.983 1.161.003 2.023 1.103 2.023 1.103l-.371.497z"/><path fill="#f7a996" d="M132.422 128.924s-1.918.31-3.986-.841c-3.796-2.116-6.588-2.877-9.588-.899-4.021 2.651-4.822 11.001 3.423 12.732 12.087 2.537 16.936-10.064 16.936-10.064l-6.785-.928z"/><path fill="#e59585" d="M128.879 139.788c-.751-3.141.469-4.147.469-4.147l2.04 3.154a12.81 12.81 0 0 1-2.509.993zM122.271 139.916c-.98-.229-1.826-.543-2.55-.924l.644-1.178c.88 1.331 2.223 2.001 2.958 2.286a9.382 9.382 0 0 1-1.052-.184z"/><path fill="#d67b72" d="M113.201 140.595s-.663.138-.729.01c-.064-.127-.085-.527.058-.623.143-.098.703-.071.703-.071l-.032.684z"/><path fill="#d67b72" d="M113.181 140.261s-.635.113-.775-.071c-.098-.126.31-1.042.916-1.126.366-.052.574.058.574.058l-.715 1.139z"/><path fill="#f7a996" d="M122.389 136.399c-.567 4.509-5.655 2.776-6.33 3.346-1.122.948-2.857.851-2.857.851-.417-.017.643-1.482.643-1.482l.426.132s-.424-.24-.361-.288c.112-.085.348.035.645.183.941-.167.913-1.311 1.312-1.406 1.554-.375 1.322-1.027 1.322-1.027-2.191-2.667-.561-5.642-.561-5.642s6.408.171 5.761 5.333z"/><path fill="#e59585" d="M132.958 137.836c-2.873-1.628-6.116-5.105-6.571-10.797a27.12 27.12 0 0 1 2.049 1.044c2.068 1.152 3.986.841 3.986.841l6.786.929s-1.89 4.91-6.25 7.983z"/><path fill="#d67b72" d="M136.814 138.511s.751-.077.817.082c.065.159-.116.655-.296.758-.181.102-.958-.039-.958-.039l.437-.801z"/><path fill="#d67b72" d="M136.675 138.93s.7-.092.85.139c.103.162-.603 1.206-1.335 1.247-.445.026-.683-.126-.683-.126l1.168-1.26z"/><path fill="#f7a996" d="M131.641 134.816c.268.045 2.555.823 1.707 3.636-.208.696 2.322.52 2.322.52s.502-.469 1.145-.462c.862.01-1.237 1.761-1.237 1.761s.25.283.169.336c-.078.05-.546-.298-.622-.384-.218-.052-1.65.102-2.467-.127-.827-.231-3.925-.762-3.798-2.946.146-2.533 2.201-2.433 2.781-2.334zM138.593 120.771s-.003-1.291 1.004-2.084c.66-.522 1.636-1.191 2.172-1.985 1.452-2.152 2.874 1.122 2.421 3.97-.315 1.978-1.39 4.354-3.1 3.705-1.447-.547-2.497-3.606-2.497-3.606z"/><path fill="url(#i)" d="M139.109 121.996c-.327-.675-.516-1.225-.516-1.225s-.001-.559.285-1.169c.911.287 1.861 1.051 1.861 1.051l-1.63 1.343z"/><path fill="#e59585" d="M139.109 121.996c-.327-.675-.516-1.225-.516-1.225s-.001-.559.285-1.169c.911.287 1.861 1.051 1.861 1.051l-1.63 1.343z"/><path fill="#d67b72" d="M140.405 122.87s-.749-1.687.17-2.88c1.082-1.404 1.56-3.276 2.225-3.479.811-.246 1.16 1.534 1.273 2.243.172 1.052-.118 3.117-.765 4.265-.461.817-.899 1.396-2.134 1.292-1.236-.105-.769-1.441-.769-1.441z"/><path fill="#f7a996" d="M132.133 121.017s-.097-1.286-1.16-2.002c-.698-.469-1.722-1.062-2.317-1.814-1.612-2.035-2.78 1.338-2.11 4.143.463 1.948 1.716 4.236 3.372 3.46 1.401-.657 2.215-3.787 2.215-3.787z"/><path fill="#e59585" d="M131.485 122.897c.276-.698.648-1.879.648-1.879s-.042-.558-.374-1.144c-.885.355-1.776 1.189-1.776 1.189l1.502 1.834z"/><path fill="#d67b72" d="M130.486 123.248s.618-1.74-.39-2.859c-1.185-1.317-1.803-3.148-2.481-3.3-.828-.184-1.04 1.618-1.1 2.334-.089 1.062.356 3.099 1.09 4.194.521.779 1.001 1.323 2.225 1.126 1.225-.198.656-1.495.656-1.495z"/><path fill="#f7a996" d="M139.351 120.533s-1.966-1.157-3.929-1.017c-1.367.098-2.969.346-4.33 1.663-1.852 1.791-2.291 4.747-2.314 6.26-.06 3.996 2.609 6.526 6.749 6.43 4.081-.095 7.369-2.762 7.095-6.745-.155-2.271-.888-5.199-3.271-6.591z"/><path fill="#d67b72" d="M138.054 129.883s-.938-2.1-2.383-2.045c-.873.034-1.826.949-2.3 2.325-.545 1.585 1.522 2.07 2.464 1.998.857-.068 2.864-.351 2.219-2.278z"/><path fill="#fff" d="M134.733 130.781a.487.487 0 1 1-.036-.974.487.487 0 0 1 .036.974z" opacity=".4"/><ellipse cx="136.746" cy="130.217" rx=".487" ry=".487" fill="#fff" opacity=".4"/><path fill="#f7a996" d="M136.147 119.736s.097-.868-.836-.94c0 0 .749.404.64.905l.196.035z"/><path fill="#f7a996" d="M135.924 119.626s-.185-.339-.533-.39c0 0 .441.242.449.458l.084-.068z"/><ellipse cx="138.922" cy="127.117" rx=".535" ry=".743" fill="#304454" transform="rotate(178.441 138.922 127.117)"/><ellipse cx="132.54" cy="126.961" rx=".535" ry=".743" fill="#304454" transform="rotate(178.441 132.54 126.961)"/><ellipse cx="134.938" cy="130.246" rx=".206" ry=".206" fill="#304454"/><path fill="#304454" d="M136.532 130.392a.205.205 0 1 0-.017-.411.206.206 0 1 0 .017.411z"/><path fill="#d67b72" d="M65.308 170.687s.736.172.746.344c.009.171-.324.581-.527.62-.204.037-.893-.348-.893-.348l.674-.616z"/><path fill="#d67b72" d="M65.04 171.038s.692.14.758.408c.045.187-.963.944-1.668.745-.428-.12-.605-.342-.605-.342l1.515-.811z"/><path fill="#e59585" d="M61.446 165.493c.24.13 2.148 1.61.431 3.994-.424.59 2.026 1.247 2.026 1.247s.627-.28 1.232-.064c.813.29-1.742 1.263-1.742 1.263s.144.349.05.372c-.09.022-.419-.459-.463-.565-.189-.121-1.594-.441-2.29-.923-.708-.488-3.465-1.998-2.634-4.023.963-2.347 2.874-1.583 3.39-1.301z"/><path fill="#d67b72" d="M41.587 170.725s-.574.12-.63.009c-.056-.11-.072-.456.05-.54.124-.083.608-.061.608-.061l-.028.592z"/><path fill="#d67b72" d="M41.57 170.436s-.55.098-.671-.06c-.084-.11.268-.903.79-.976.32-.045.499.051.499.051l-.618.985z"/><path fill="#e59585" d="M49.36 167.14c-.647 4.001-4.716 2.358-5.299 2.849-.972.821-2.474.736-2.474.736-.36-.014.556-1.282.556-1.282l.37.114s-.367-.207-.313-.25c.097-.073.301.031.558.159.815-.144.79-1.134 1.136-1.217 1.343-.323 1.144-.888 1.144-.888-1.896-2.308 1.27-2.995 1.27-2.995s3.771-1.672 3.052 2.774z"/><path fill="#e59585" d="M45.282 164.75s-.641-1.258-1.718-1.225c-1.079.033-1.076 1.016-.463 1.318.601.296.951-.712.951-.712s.044 1.153-.968 1.002c-1.076-.159-1.085-1.986.546-1.983 1.161.003 2.023 1.103 2.023 1.103l-.371.497z"/><path fill="#f7a996" d="M59.089 165.591s-1.918.31-3.986-.841c-3.796-2.116-6.588-2.877-9.588-.899-4.021 2.651-4.822 11.001 3.423 12.732 12.087 2.537 16.936-10.064 16.936-10.064l-6.785-.928z"/><path fill="#e59585" d="M55.546 176.455c-.751-3.141.469-4.147.469-4.147l2.04 3.154a12.81 12.81 0 0 1-2.51.993zM48.938 176.583c-.98-.229-1.826-.543-2.55-.924l.644-1.178c.88 1.331 2.223 2.001 2.958 2.286a9.382 9.382 0 0 1-1.052-.184z"/><path fill="#d67b72" d="M39.868 177.262s-.663.138-.73.01c-.063-.127-.084-.527.059-.623.143-.098.703-.071.703-.071l-.032.684z"/><path fill="#d67b72" d="M39.848 176.928s-.635.113-.775-.071c-.098-.126.31-1.042.916-1.126.366-.052.574.058.574.058l-.715 1.139z"/><path fill="#f7a996" d="M49.055 173.066c-.567 4.509-5.655 2.776-6.33 3.346-1.122.948-2.857.851-2.857.851-.417-.017.643-1.482.643-1.482l.426.132s-.424-.24-.36-.288c.111-.085.347.035.644.183.941-.167.913-1.311 1.312-1.406 1.554-.375 1.322-1.027 1.322-1.027-2.19-2.667-.56-5.642-.56-5.642s6.407.171 5.76 5.333z"/><path fill="#e59585" d="M59.624 174.502c-2.873-1.628-6.116-5.105-6.57-10.797a27.12 27.12 0 0 1 2.048 1.044c2.068 1.152 3.986.841 3.986.841l6.786.929s-1.89 4.91-6.25 7.983z"/><path fill="#d67b72" d="M63.48 175.178s.751-.077.817.082c.065.159-.116.655-.296.758-.18.102-.958-.039-.958-.039l.437-.801z"/><path fill="#d67b72" d="M63.342 175.597s.7-.092.85.139c.103.162-.603 1.206-1.335 1.247-.445.026-.683-.126-.683-.126l1.168-1.26z"/><path fill="#f7a996" d="M58.307 171.483c.268.045 2.555.823 1.707 3.636-.208.696 2.322.52 2.322.52s.502-.469 1.145-.462c.862.01-1.237 1.761-1.237 1.761s.25.283.17.336c-.079.05-.547-.298-.623-.384-.218-.052-1.65.102-2.467-.127-.827-.231-3.925-.762-3.798-2.946.146-2.533 2.201-2.433 2.781-2.334zM65.26 157.438s-.004-1.291 1.003-2.084c.66-.522 1.636-1.191 2.172-1.985 1.453-2.152 2.874 1.122 2.421 3.97-.314 1.978-1.39 4.354-3.1 3.705-1.447-.547-2.496-3.606-2.496-3.606z"/><path fill="url(#j)" d="M65.776 158.663c-.327-.675-.516-1.225-.516-1.225s-.001-.559.285-1.169c.91.287 1.86 1.051 1.86 1.051l-1.63 1.343z"/><path fill="#e59585" d="M65.776 158.663c-.327-.675-.516-1.225-.516-1.225s-.001-.559.285-1.169c.91.287 1.86 1.051 1.86 1.051l-1.63 1.343z"/><path fill="#d67b72" d="M67.071 159.536s-.749-1.687.17-2.88c1.082-1.404 1.56-3.276 2.225-3.479.811-.246 1.16 1.534 1.273 2.243.172 1.052-.118 3.117-.765 4.265-.46.817-.899 1.396-2.134 1.292-1.236-.105-.769-1.441-.769-1.441z"/><path fill="#f7a996" d="M58.8 157.684s-.097-1.286-1.16-2.002c-.698-.469-1.722-1.062-2.317-1.814-1.612-2.035-2.78 1.338-2.11 4.143.463 1.948 1.716 4.236 3.372 3.46 1.4-.657 2.215-3.787 2.215-3.787z"/><path fill="#e59585" d="M58.152 159.563c.276-.698.648-1.879.648-1.879s-.042-.558-.374-1.144c-.885.355-1.776 1.189-1.776 1.189l1.502 1.834z"/><path fill="#d67b72" d="M57.152 159.915s.618-1.74-.39-2.859c-1.185-1.317-1.803-3.148-2.48-3.3-.829-.184-1.04 1.618-1.1 2.334-.09 1.062.355 3.099 1.09 4.194.52.779 1 1.323 2.224 1.126 1.225-.198.656-1.495.656-1.495z"/><path fill="#f7a996" d="M66.018 157.2s-1.966-1.157-3.93-1.017c-1.366.098-2.968.346-4.33 1.663-1.851 1.791-2.29 4.747-2.313 6.26-.06 3.996 2.609 6.526 6.749 6.43 4.08-.095 7.369-2.762 7.095-6.745-.155-2.271-.888-5.199-3.271-6.591z"/><path fill="#d67b72" d="M64.721 166.55s-.938-2.1-2.383-2.045c-.873.034-1.826.949-2.3 2.325-.545 1.585 1.522 2.07 2.464 1.998.857-.068 2.864-.351 2.219-2.278z"/><path fill="#fff" d="M61.4 167.448a.487.487 0 1 1-.037-.974.487.487 0 0 1 .036.974z" opacity=".4"/><ellipse cx="63.413" cy="166.883" rx=".487" ry=".487" fill="#fff" opacity=".4"/><path fill="#f7a996" d="M62.814 156.403s.097-.868-.836-.94c0 0 .749.404.64.905l.196.035z"/><path fill="#f7a996" d="M62.59 156.293s-.185-.339-.533-.39c0 0 .441.242.45.458l.083-.068z"/><ellipse cx="65.588" cy="163.783" rx=".535" ry=".743" fill="#304454" transform="rotate(178.441 65.588 163.783)"/><ellipse cx="59.206" cy="163.628" rx=".535" ry=".743" fill="#304454" transform="rotate(178.441 59.206 163.628)"/><ellipse cx="61.604" cy="166.913" rx=".206" ry=".206" fill="#304454"/><path fill="#304454" d="M63.199 167.059a.205.205 0 1 0-.017-.411.206.206 0 1 0 .017.411z"/><path fill="#d67b72" d="M101.974 170.687s.736.172.746.344c.009.171-.324.581-.527.62-.204.037-.893-.348-.893-.348l.674-.616z"/><path fill="#d67b72" d="M101.707 171.038s.692.14.758.408c.045.187-.963.944-1.668.745-.428-.12-.605-.342-.605-.342l1.515-.811z"/><path fill="#e59585" d="M98.113 165.493c.239.13 2.148 1.61.43 3.994-.423.59 2.027 1.247 2.027 1.247s.627-.28 1.232-.064c.813.29-1.742 1.263-1.742 1.263s.144.349.05.372c-.09.022-.42-.459-.463-.565-.19-.121-1.594-.441-2.291-.923-.707-.488-3.464-1.998-2.633-4.023.963-2.347 2.874-1.583 3.39-1.301z"/><path fill="#d67b72" d="M78.254 170.725s-.574.12-.63.009c-.056-.11-.072-.456.05-.54.124-.083.608-.061.608-.061l-.028.592z"/><path fill="#d67b72" d="M78.237 170.436s-.55.098-.671-.06c-.084-.11.268-.903.79-.976.32-.045.499.051.499.051l-.618.985z"/><path fill="#e59585" d="M86.027 167.14c-.647 4.001-4.716 2.358-5.3 2.849-.971.821-2.473.736-2.473.736-.36-.014.556-1.282.556-1.282l.37.114s-.367-.207-.313-.25c.097-.073.3.031.558.159.815-.144.79-1.134 1.136-1.217 1.343-.323 1.144-.888 1.144-.888-1.896-2.308 1.27-2.995 1.27-2.995s3.77-1.672 3.052 2.774z"/><path fill="#e59585" d="M81.949 164.75s-.641-1.258-1.718-1.225c-1.08.033-1.076 1.016-.463 1.318.6.296.95-.712.95-.712s.045 1.153-.967 1.002c-1.076-.159-1.085-1.986.546-1.983 1.16.003 2.023 1.103 2.023 1.103l-.371.497z"/><path fill="#f7a996" d="M95.755 165.591s-1.918.31-3.986-.841c-3.796-2.116-6.588-2.877-9.588-.899-4.02 2.651-4.822 11.001 3.423 12.732 12.087 2.537 16.936-10.064 16.936-10.064l-6.785-.928z"/><path fill="#e59585" d="M92.212 176.455c-.75-3.141.47-4.147.47-4.147l2.04 3.154a12.81 12.81 0 0 1-2.51.993zM85.604 176.583c-.98-.229-1.826-.543-2.55-.924l.644-1.178c.88 1.331 2.223 2.001 2.958 2.286a9.382 9.382 0 0 1-1.052-.184z"/><path fill="#d67b72" d="M76.535 177.262s-.663.138-.73.01c-.063-.127-.084-.527.059-.623.143-.098.703-.071.703-.071l-.032.684z"/><path fill="#d67b72" d="M76.514 176.928s-.635.113-.775-.071c-.098-.126.31-1.042.916-1.126.366-.052.574.058.574.058l-.715 1.139z"/><path fill="#f7a996" d="M85.722 173.066c-.567 4.509-5.655 2.776-6.33 3.346-1.122.948-2.857.851-2.857.851-.417-.017.643-1.482.643-1.482l.426.132s-.424-.24-.361-.288c.112-.085.348.035.645.183.94-.167.913-1.311 1.312-1.406 1.554-.375 1.322-1.027 1.322-1.027-2.191-2.667-.561-5.642-.561-5.642s6.408.171 5.76 5.333z"/><path fill="#e59585" d="M96.29 174.502c-2.872-1.628-6.115-5.105-6.57-10.797a27.12 27.12 0 0 1 2.049 1.044c2.068 1.152 3.986.841 3.986.841l6.786.929s-1.89 4.91-6.25 7.983z"/><path fill="#d67b72" d="M100.147 175.178s.751-.077.817.082c.065.159-.116.655-.296.758-.181.102-.958-.039-.958-.039l.437-.801z"/><path fill="#d67b72" d="M100.009 175.597s.7-.092.85.139c.103.162-.603 1.206-1.335 1.247-.445.026-.683-.126-.683-.126l1.168-1.26z"/><path fill="#f7a996" d="M94.974 171.483c.268.045 2.555.823 1.707 3.636-.208.696 2.322.52 2.322.52s.502-.469 1.145-.462c.862.01-1.237 1.761-1.237 1.761s.25.283.169.336c-.078.05-.546-.298-.622-.384-.218-.052-1.65.102-2.467-.127-.827-.231-3.925-.762-3.798-2.946.146-2.533 2.2-2.433 2.78-2.334zM101.926 157.438s-.003-1.291 1.004-2.084c.66-.522 1.636-1.191 2.172-1.985 1.452-2.152 2.874 1.122 2.421 3.97-.315 1.978-1.39 4.354-3.1 3.705-1.447-.547-2.497-3.606-2.497-3.606z"/><path fill="url(#k)" d="M102.442 158.663c-.327-.675-.516-1.225-.516-1.225s-.001-.559.285-1.169c.911.287 1.861 1.051 1.861 1.051l-1.63 1.343z"/><path fill="#e59585" d="M102.442 158.663c-.327-.675-.516-1.225-.516-1.225s-.001-.559.285-1.169c.911.287 1.861 1.051 1.861 1.051l-1.63 1.343z"/><path fill="#d67b72" d="M103.738 159.536s-.749-1.687.17-2.88c1.082-1.404 1.56-3.276 2.225-3.479.811-.246 1.16 1.534 1.273 2.243.172 1.052-.118 3.117-.765 4.265-.461.817-.899 1.396-2.134 1.292-1.236-.105-.769-1.441-.769-1.441z"/><path fill="#f7a996" d="M95.466 157.684s-.096-1.286-1.16-2.002c-.697-.469-1.721-1.062-2.316-1.814-1.612-2.035-2.78 1.338-2.11 4.143.463 1.948 1.716 4.236 3.371 3.46 1.401-.657 2.215-3.787 2.215-3.787z"/><path fill="#e59585" d="M94.819 159.563c.276-.698.648-1.879.648-1.879s-.042-.558-.374-1.144c-.885.355-1.776 1.189-1.776 1.189l1.502 1.834z"/><path fill="#d67b72" d="M93.819 159.915s.618-1.74-.39-2.859c-1.185-1.317-1.803-3.148-2.481-3.3-.828-.184-1.04 1.618-1.1 2.334-.089 1.062.356 3.099 1.09 4.194.521.779 1.001 1.323 2.225 1.126 1.225-.198.656-1.495.656-1.495z"/><path fill="#f7a996" d="M102.684 157.2s-1.966-1.157-3.928-1.017c-1.368.098-2.97.346-4.33 1.663-1.853 1.791-2.291 4.747-2.314 6.26-.06 3.996 2.609 6.526 6.749 6.43 4.08-.095 7.368-2.762 7.094-6.745-.155-2.271-.888-5.199-3.271-6.591z"/><path fill="#d67b72" d="M101.388 166.55s-.938-2.1-2.383-2.045c-.873.034-1.826.949-2.3 2.325-.545 1.585 1.522 2.07 2.464 1.998.857-.068 2.864-.351 2.219-2.278z"/><path fill="#fff" d="M98.066 167.448a.487.487 0 1 1-.037-.974.487.487 0 0 1 .037.974z" opacity=".4"/><ellipse cx="100.08" cy="166.883" rx=".487" ry=".487" fill="#fff" opacity=".4"/><path fill="#f7a996" d="M99.48 156.403s.098-.868-.835-.94c0 0 .749.404.64.905l.196.035z"/><path fill="#f7a996" d="M99.257 156.293s-.185-.339-.533-.39c0 0 .441.242.45.458l.083-.068z"/><ellipse cx="102.255" cy="163.783" rx=".535" ry=".743" fill="#304454" transform="rotate(178.441 102.255 163.783)"/><ellipse cx="95.873" cy="163.628" rx=".535" ry=".743" fill="#304454" transform="rotate(178.441 95.873 163.628)"/><ellipse cx="98.271" cy="166.913" rx=".206" ry=".206" fill="#304454"/><path fill="#304454" d="M99.865 167.059a.206.206 0 1 0-.016-.412.206.206 0 0 0 .016.412z"/><path fill="#d67b72" d="M138.641 170.687s.736.172.746.344c.009.171-.324.581-.527.62-.204.037-.893-.348-.893-.348l.674-.616z"/><path fill="#d67b72" d="M138.374 171.038s.692.14.758.408c.045.187-.963.944-1.668.745-.428-.12-.605-.342-.605-.342l1.515-.811z"/><path fill="#e59585" d="M134.78 165.493c.239.13 2.148 1.61.431 3.994-.424.59 2.026 1.247 2.026 1.247s.627-.28 1.232-.064c.813.29-1.742 1.263-1.742 1.263s.144.349.05.372c-.09.022-.419-.459-.463-.565-.189-.121-1.594-.441-2.291-.923-.707-.488-3.464-1.998-2.633-4.023.963-2.347 2.874-1.583 3.39-1.301z"/><path fill="#d67b72" d="M114.921 170.725s-.574.12-.63.009c-.056-.11-.072-.456.05-.54.124-.083.608-.061.608-.061l-.028.592z"/><path fill="#d67b72" d="M114.903 170.436s-.55.098-.671-.06c-.084-.11.268-.903.791-.976.319-.045.498.051.498.051l-.618.985z"/><path fill="#e59585" d="M122.693 167.14c-.647 4.001-4.716 2.358-5.299 2.849-.972.821-2.474.736-2.474.736-.36-.014.556-1.282.556-1.282l.37.114s-.367-.207-.313-.25c.097-.073.301.031.558.159.815-.144.79-1.134 1.136-1.217 1.343-.323 1.144-.888 1.144-.888-1.896-2.308 1.27-2.995 1.27-2.995s3.771-1.672 3.052 2.774z"/><path fill="#e59585" d="M118.615 164.75s-.641-1.258-1.718-1.225c-1.079.033-1.076 1.016-.463 1.318.601.296.951-.712.951-.712s.044 1.153-.968 1.002c-1.076-.159-1.085-1.986.546-1.983 1.161.003 2.023 1.103 2.023 1.103l-.371.497z"/><path fill="#f7a996" d="M132.422 165.591s-1.918.31-3.986-.841c-3.796-2.116-6.588-2.877-9.588-.899-4.021 2.651-4.822 11.001 3.423 12.732 12.087 2.537 16.936-10.064 16.936-10.064l-6.785-.928z"/><path fill="#e59585" d="M128.879 176.455c-.751-3.141.469-4.147.469-4.147l2.04 3.154a12.81 12.81 0 0 1-2.509.993zM122.271 176.583c-.98-.229-1.826-.543-2.55-.924l.644-1.178c.88 1.331 2.223 2.001 2.958 2.286a9.382 9.382 0 0 1-1.052-.184z"/><path fill="#d67b72" d="M113.201 177.262s-.663.138-.729.01c-.064-.127-.085-.527.058-.623.143-.098.703-.071.703-.071l-.032.684z"/><path fill="#d67b72" d="M113.181 176.928s-.635.113-.775-.071c-.098-.126.31-1.042.916-1.126.366-.052.574.058.574.058l-.715 1.139z"/><path fill="#f7a996" d="M122.389 173.066c-.567 4.509-5.655 2.776-6.33 3.346-1.122.948-2.857.851-2.857.851-.417-.017.643-1.482.643-1.482l.426.132s-.424-.24-.361-.288c.112-.085.348.035.645.183.941-.167.913-1.311 1.312-1.406 1.554-.375 1.322-1.027 1.322-1.027-2.191-2.667-.561-5.642-.561-5.642s6.408.171 5.761 5.333z"/><path fill="#e59585" d="M132.958 174.502c-2.873-1.628-6.116-5.105-6.571-10.797a27.12 27.12 0 0 1 2.049 1.044c2.068 1.152 3.986.841 3.986.841l6.786.929s-1.89 4.91-6.25 7.983z"/><path fill="#d67b72" d="M136.814 175.178s.751-.077.817.082c.065.159-.116.655-.296.758-.181.102-.958-.039-.958-.039l.437-.801z"/><path fill="#d67b72" d="M136.675 175.597s.7-.092.85.139c.103.162-.603 1.206-1.335 1.247-.445.026-.683-.126-.683-.126l1.168-1.26z"/><path fill="#f7a996" d="M131.641 171.483c.268.045 2.555.823 1.707 3.636-.208.696 2.322.52 2.322.52s.502-.469 1.145-.462c.862.01-1.237 1.761-1.237 1.761s.25.283.169.336c-.078.05-.546-.298-.622-.384-.218-.052-1.65.102-2.467-.127-.827-.231-3.925-.762-3.798-2.946.146-2.533 2.201-2.433 2.781-2.334zM138.593 157.438s-.003-1.291 1.004-2.084c.66-.522 1.636-1.191 2.172-1.985 1.452-2.152 2.874 1.122 2.421 3.97-.315 1.978-1.39 4.354-3.1 3.705-1.447-.547-2.497-3.606-2.497-3.606z"/><path fill="url(#l)" d="M139.109 158.663c-.327-.675-.516-1.225-.516-1.225s-.001-.559.285-1.169c.911.287 1.861 1.051 1.861 1.051l-1.63 1.343z"/><path fill="#e59585" d="M139.109 158.663c-.327-.675-.516-1.225-.516-1.225s-.001-.559.285-1.169c.911.287 1.861 1.051 1.861 1.051l-1.63 1.343z"/><path fill="#d67b72" d="M140.405 159.536s-.749-1.687.17-2.88c1.082-1.404 1.56-3.276 2.225-3.479.811-.246 1.16 1.534 1.273 2.243.172 1.052-.118 3.117-.765 4.265-.461.817-.899 1.396-2.134 1.292-1.236-.105-.769-1.441-.769-1.441z"/><path fill="#f7a996" d="M132.133 157.684s-.097-1.286-1.16-2.002c-.698-.469-1.722-1.062-2.317-1.814-1.612-2.035-2.78 1.338-2.11 4.143.463 1.948 1.716 4.236 3.372 3.46 1.401-.657 2.215-3.787 2.215-3.787z"/><path fill="#e59585" d="M131.485 159.563c.276-.698.648-1.879.648-1.879s-.042-.558-.374-1.144c-.885.355-1.776 1.189-1.776 1.189l1.502 1.834z"/><path fill="#d67b72" d="M130.486 159.915s.618-1.74-.39-2.859c-1.185-1.317-1.803-3.148-2.481-3.3-.828-.184-1.04 1.618-1.1 2.334-.089 1.062.356 3.099 1.09 4.194.521.779 1.001 1.323 2.225 1.126 1.225-.198.656-1.495.656-1.495z"/><path fill="#f7a996" d="M139.351 157.2s-1.966-1.157-3.929-1.017c-1.367.098-2.969.346-4.33 1.663-1.852 1.791-2.291 4.747-2.314 6.26-.06 3.996 2.609 6.526 6.749 6.43 4.081-.095 7.369-2.762 7.095-6.745-.155-2.271-.888-5.199-3.271-6.591z"/><path fill="#d67b72" d="M138.054 166.55s-.938-2.1-2.383-2.045c-.873.034-1.826.949-2.3 2.325-.545 1.585 1.522 2.07 2.464 1.998.857-.068 2.864-.351 2.219-2.278z"/><path fill="#fff" d="M134.733 167.448a.487.487 0 1 1-.036-.974.487.487 0 0 1 .036.974z" opacity=".4"/><ellipse cx="136.746" cy="166.883" rx=".487" ry=".487" fill="#fff" opacity=".4"/><path fill="#f7a996" d="M136.147 156.403s.097-.868-.836-.94c0 0 .749.404.64.905l.196.035z"/><path fill="#f7a996" d="M135.924 156.293s-.185-.339-.533-.39c0 0 .441.242.449.458l.084-.068z"/><ellipse cx="138.922" cy="163.783" rx=".535" ry=".743" fill="#304454" transform="rotate(178.441 138.922 163.783)"/><ellipse cx="132.54" cy="163.628" rx=".535" ry=".743" fill="#304454" transform="rotate(178.441 132.54 163.628)"/><ellipse cx="134.938" cy="166.913" rx=".206" ry=".206" fill="#304454"/><path fill="#304454" d="M136.532 167.059a.205.205 0 1 0-.017-.411.206.206 0 1 0 .017.411z"/><path fill="#d67b72" d="M65.308 207.354s.736.172.746.344c.009.171-.324.581-.527.62-.204.037-.893-.348-.893-.348l.674-.616z"/><path fill="#d67b72" d="M65.04 207.705s.692.14.758.408c.045.187-.963.944-1.668.745-.428-.12-.605-.342-.605-.342l1.515-.811z"/><path fill="#e59585" d="M61.446 202.16c.24.13 2.148 1.61.431 3.994-.424.59 2.026 1.247 2.026 1.247s.627-.28 1.232-.064c.813.29-1.742 1.263-1.742 1.263s.144.349.05.372c-.09.022-.419-.459-.463-.565-.189-.121-1.594-.441-2.29-.923-.708-.488-3.465-1.998-2.634-4.023.963-2.347 2.874-1.583 3.39-1.301z"/><path fill="#d67b72" d="M41.587 207.392s-.574.12-.63.009c-.056-.11-.072-.456.05-.54.124-.083.608-.061.608-.061l-.028.592z"/><path fill="#d67b72" d="M41.57 207.102s-.55.098-.671-.06c-.084-.11.268-.903.79-.976.32-.045.499.051.499.051l-.618.985z"/><path fill="#e59585" d="M49.36 203.807c-.647 4.001-4.716 2.358-5.299 2.849-.972.821-2.474.736-2.474.736-.36-.014.556-1.282.556-1.282l.37.114s-.367-.207-.313-.25c.097-.073.301.031.558.159.815-.144.79-1.134 1.136-1.217 1.343-.323 1.144-.888 1.144-.888-1.896-2.308 1.27-2.995 1.27-2.995s3.771-1.672 3.052 2.774z"/><path fill="#e59585" d="M45.282 201.417s-.641-1.258-1.718-1.225c-1.079.033-1.076 1.016-.463 1.318.601.296.951-.712.951-.712s.044 1.153-.968 1.002c-1.076-.159-1.085-1.986.546-1.983 1.161.003 2.023 1.103 2.023 1.103l-.371.497z"/><path fill="#f7a996" d="M59.089 202.258s-1.918.31-3.986-.841c-3.796-2.116-6.588-2.877-9.588-.899-4.021 2.651-4.822 11.001 3.423 12.732 12.087 2.537 16.936-10.064 16.936-10.064l-6.785-.928z"/><path fill="#e59585" d="M55.546 213.121c-.751-3.141.469-4.147.469-4.147l2.04 3.154a12.81 12.81 0 0 1-2.51.993zM48.938 213.249c-.98-.229-1.826-.543-2.55-.924l.644-1.178c.88 1.331 2.223 2.001 2.958 2.286a9.382 9.382 0 0 1-1.052-.184z"/><path fill="#d67b72" d="M39.868 213.929s-.663.138-.73.01c-.063-.127-.084-.527.059-.623.143-.098.703-.071.703-.071l-.032.684z"/><path fill="#d67b72" d="M39.848 213.594s-.635.113-.775-.071c-.098-.126.31-1.042.916-1.126.366-.052.574.058.574.058l-.715 1.139z"/><path fill="#f7a996" d="M49.055 209.733c-.567 4.509-5.655 2.776-6.33 3.346-1.122.948-2.857.851-2.857.851-.417-.017.643-1.482.643-1.482l.426.132s-.424-.24-.36-.288c.111-.085.347.035.644.183.941-.167.913-1.311 1.312-1.406 1.554-.375 1.322-1.027 1.322-1.027-2.19-2.667-.56-5.642-.56-5.642s6.407.171 5.76 5.333z"/><path fill="#e59585" d="M59.624 211.169c-2.873-1.628-6.116-5.105-6.57-10.797a27.12 27.12 0 0 1 2.048 1.044c2.068 1.152 3.986.841 3.986.841l6.786.929s-1.89 4.91-6.25 7.983z"/><path fill="#d67b72" d="M63.48 211.844s.751-.077.817.082c.065.159-.116.655-.296.758-.18.102-.958-.039-.958-.039l.437-.801z"/><path fill="#d67b72" d="M63.342 212.263s.7-.092.85.139c.103.162-.603 1.206-1.335 1.247-.445.026-.683-.126-.683-.126l1.168-1.26z"/><path fill="#f7a996" d="M58.307 208.15c.268.045 2.555.823 1.707 3.636-.208.696 2.322.52 2.322.52s.502-.469 1.145-.462c.862.01-1.237 1.761-1.237 1.761s.25.283.17.336c-.079.05-.547-.298-.623-.384-.218-.052-1.65.102-2.467-.127-.827-.231-3.925-.762-3.798-2.946.146-2.533 2.201-2.433 2.781-2.334zM65.26 194.104s-.004-1.291 1.003-2.084c.66-.522 1.636-1.191 2.172-1.985 1.453-2.152 2.874 1.122 2.421 3.97-.314 1.978-1.39 4.354-3.1 3.705-1.447-.547-2.496-3.606-2.496-3.606z"/><path fill="url(#m)" d="M65.776 195.329c-.327-.675-.516-1.225-.516-1.225s-.001-.559.285-1.169c.91.287 1.86 1.051 1.86 1.051l-1.63 1.343z"/><path fill="#e59585" d="M65.776 195.329c-.327-.675-.516-1.225-.516-1.225s-.001-.559.285-1.169c.91.287 1.86 1.051 1.86 1.051l-1.63 1.343z"/><path fill="#d67b72" d="M67.071 196.203s-.749-1.687.17-2.88c1.082-1.404 1.56-3.276 2.225-3.479.811-.246 1.16 1.534 1.273 2.243.172 1.052-.118 3.117-.765 4.265-.46.817-.899 1.396-2.134 1.292-1.236-.105-.769-1.441-.769-1.441z"/><path fill="#f7a996" d="M58.8 194.351s-.097-1.286-1.16-2.002c-.698-.469-1.722-1.062-2.317-1.814-1.612-2.035-2.78 1.338-2.11 4.143.463 1.948 1.716 4.236 3.372 3.46 1.4-.657 2.215-3.787 2.215-3.787z"/><path fill="#e59585" d="M58.152 196.23c.276-.698.648-1.879.648-1.879s-.042-.558-.374-1.144c-.885.355-1.776 1.189-1.776 1.189l1.502 1.834z"/><path fill="#d67b72" d="M57.152 196.581s.618-1.74-.39-2.859c-1.185-1.317-1.803-3.148-2.48-3.3-.829-.184-1.04 1.618-1.1 2.334-.09 1.062.355 3.099 1.09 4.194.52.779 1 1.323 2.224 1.126 1.225-.198.656-1.495.656-1.495z"/><path fill="#f7a996" d="M66.018 193.866s-1.966-1.157-3.93-1.017c-1.366.098-2.968.346-4.33 1.663-1.851 1.791-2.29 4.747-2.313 6.26-.06 3.996 2.609 6.526 6.749 6.43 4.08-.095 7.369-2.762 7.095-6.745-.155-2.271-.888-5.199-3.271-6.591z"/><path fill="#d67b72" d="M64.721 203.217s-.938-2.1-2.383-2.045c-.873.034-1.826.949-2.3 2.325-.545 1.585 1.522 2.07 2.464 1.998.857-.068 2.864-.351 2.219-2.278z"/><path fill="#fff" d="M61.4 204.115a.487.487 0 1 1-.037-.974.487.487 0 0 1 .036.974z" opacity=".4"/><ellipse cx="63.413" cy="203.55" rx=".487" ry=".487" fill="#fff" opacity=".4"/><path fill="#f7a996" d="M62.814 193.069s.097-.868-.836-.94c0 0 .749.404.64.905l.196.035z"/><path fill="#f7a996" d="M62.59 192.959s-.185-.339-.533-.39c0 0 .441.242.45.458l.083-.068z"/><ellipse cx="65.588" cy="200.45" rx=".535" ry=".743" fill="#304454" transform="rotate(178.441 65.588 200.45)"/><ellipse cx="59.206" cy="200.295" rx=".535" ry=".743" fill="#304454" transform="rotate(178.441 59.206 200.295)"/><ellipse cx="61.604" cy="203.58" rx=".206" ry=".206" fill="#304454"/><path fill="#304454" d="M63.199 203.725a.205.205 0 1 0-.017-.411.206.206 0 1 0 .017.411z"/><path fill="#d67b72" d="M101.974 207.354s.736.172.746.344c.009.171-.324.581-.527.62-.204.037-.893-.348-.893-.348l.674-.616z"/><path fill="#d67b72" d="M101.707 207.705s.692.14.758.408c.045.187-.963.944-1.668.745-.428-.12-.605-.342-.605-.342l1.515-.811z"/><path fill="#e59585" d="M98.113 202.16c.239.13 2.148 1.61.43 3.994-.423.59 2.027 1.247 2.027 1.247s.627-.28 1.232-.064c.813.29-1.742 1.263-1.742 1.263s.144.349.05.372c-.09.022-.42-.459-.463-.565-.19-.121-1.594-.441-2.291-.923-.707-.488-3.464-1.998-2.633-4.023.963-2.347 2.874-1.583 3.39-1.301z"/><path fill="#d67b72" d="M78.254 207.392s-.574.12-.63.009c-.056-.11-.072-.456.05-.54.124-.083.608-.061.608-.061l-.028.592z"/><path fill="#d67b72" d="M78.237 207.102s-.55.098-.671-.06c-.084-.11.268-.903.79-.976.32-.045.499.051.499.051l-.618.985z"/><path fill="#e59585" d="M86.027 203.807c-.647 4.001-4.716 2.358-5.3 2.849-.971.821-2.473.736-2.473.736-.36-.014.556-1.282.556-1.282l.37.114s-.367-.207-.313-.25c.097-.073.3.031.558.159.815-.144.79-1.134 1.136-1.217 1.343-.323 1.144-.888 1.144-.888-1.896-2.308 1.27-2.995 1.27-2.995s3.77-1.672 3.052 2.774z"/><path fill="#e59585" d="M81.949 201.417s-.641-1.258-1.718-1.225c-1.08.033-1.076 1.016-.463 1.318.6.296.95-.712.95-.712s.045 1.153-.967 1.002c-1.076-.159-1.085-1.986.546-1.983 1.16.003 2.023 1.103 2.023 1.103l-.371.497z"/><path fill="#f7a996" d="M95.755 202.258s-1.918.31-3.986-.841c-3.796-2.116-6.588-2.877-9.588-.899-4.02 2.651-4.822 11.001 3.423 12.732 12.087 2.537 16.936-10.064 16.936-10.064l-6.785-.928z"/><path fill="#e59585" d="M92.212 213.121c-.75-3.141.47-4.147.47-4.147l2.04 3.154a12.81 12.81 0 0 1-2.51.993zM85.604 213.249c-.98-.229-1.826-.543-2.55-.924l.644-1.178c.88 1.331 2.223 2.001 2.958 2.286a9.382 9.382 0 0 1-1.052-.184z"/><path fill="#d67b72" d="M76.535 213.929s-.663.138-.73.01c-.063-.127-.084-.527.059-.623.143-.098.703-.071.703-.071l-.032.684z"/><path fill="#d67b72" d="M76.514 213.594s-.635.113-.775-.071c-.098-.126.31-1.042.916-1.126.366-.052.574.058.574.058l-.715 1.139z"/><path fill="#f7a996" d="M85.722 209.733c-.567 4.509-5.655 2.776-6.33 3.346-1.122.948-2.857.851-2.857.851-.417-.017.643-1.482.643-1.482l.426.132s-.424-.24-.361-.288c.112-.085.348.035.645.183.94-.167.913-1.311 1.312-1.406 1.554-.375 1.322-1.027 1.322-1.027-2.191-2.667-.561-5.642-.561-5.642s6.408.171 5.76 5.333z"/><path fill="#e59585" d="M96.29 211.169c-2.872-1.628-6.115-5.105-6.57-10.797a27.12 27.12 0 0 1 2.049 1.044c2.068 1.152 3.986.841 3.986.841l6.786.929s-1.89 4.91-6.25 7.983z"/><path fill="#d67b72" d="M100.147 211.844s.751-.077.817.082c.065.159-.116.655-.296.758-.181.102-.958-.039-.958-.039l.437-.801z"/><path fill="#d67b72" d="M100.009 212.263s.7-.092.85.139c.103.162-.603 1.206-1.335 1.247-.445.026-.683-.126-.683-.126l1.168-1.26z"/><path fill="#f7a996" d="M94.974 208.15c.268.045 2.555.823 1.707 3.636-.208.696 2.322.52 2.322.52s.502-.469 1.145-.462c.862.01-1.237 1.761-1.237 1.761s.25.283.169.336c-.078.05-.546-.298-.622-.384-.218-.052-1.65.102-2.467-.127-.827-.231-3.925-.762-3.798-2.946.146-2.533 2.2-2.433 2.78-2.334zM101.926 194.104s-.003-1.291 1.004-2.084c.66-.522 1.636-1.191 2.172-1.985 1.452-2.152 2.874 1.122 2.421 3.97-.315 1.978-1.39 4.354-3.1 3.705-1.447-.547-2.497-3.606-2.497-3.606z"/><path fill="url(#n)" d="M102.442 195.329c-.327-.675-.516-1.225-.516-1.225s-.001-.559.285-1.169c.911.287 1.861 1.051 1.861 1.051l-1.63 1.343z"/><path fill="#e59585" d="M102.442 195.329c-.327-.675-.516-1.225-.516-1.225s-.001-.559.285-1.169c.911.287 1.861 1.051 1.861 1.051l-1.63 1.343z"/><path fill="#d67b72" d="M103.738 196.203s-.749-1.687.17-2.88c1.082-1.404 1.56-3.276 2.225-3.479.811-.246 1.16 1.534 1.273 2.243.172 1.052-.118 3.117-.765 4.265-.461.817-.899 1.396-2.134 1.292-1.236-.105-.769-1.441-.769-1.441z"/><path fill="#f7a996" d="M95.466 194.351s-.096-1.286-1.16-2.002c-.697-.469-1.721-1.062-2.316-1.814-1.612-2.035-2.78 1.338-2.11 4.143.463 1.948 1.716 4.236 3.371 3.46 1.401-.657 2.215-3.787 2.215-3.787z"/><path fill="#e59585" d="M94.819 196.23c.276-.698.648-1.879.648-1.879s-.042-.558-.374-1.144c-.885.355-1.776 1.189-1.776 1.189l1.502 1.834z"/><path fill="#d67b72" d="M93.819 196.581s.618-1.74-.39-2.859c-1.185-1.317-1.803-3.148-2.481-3.3-.828-.184-1.04 1.618-1.1 2.334-.089 1.062.356 3.099 1.09 4.194.521.779 1.001 1.323 2.225 1.126 1.225-.198.656-1.495.656-1.495z"/><path fill="#f7a996" d="M102.684 193.866s-1.966-1.157-3.928-1.017c-1.368.098-2.97.346-4.33 1.663-1.853 1.791-2.291 4.747-2.314 6.26-.06 3.996 2.609 6.526 6.749 6.43 4.08-.095 7.368-2.762 7.094-6.745-.155-2.271-.888-5.199-3.271-6.591z"/><path fill="#d67b72" d="M101.388 203.217s-.938-2.1-2.383-2.045c-.873.034-1.826.949-2.3 2.325-.545 1.585 1.522 2.07 2.464 1.998.857-.068 2.864-.351 2.219-2.278z"/><path fill="#fff" d="M98.066 204.115a.487.487 0 1 1-.037-.974.487.487 0 0 1 .037.974z" opacity=".4"/><ellipse cx="100.08" cy="203.55" rx=".487" ry=".487" fill="#fff" opacity=".4"/><path fill="#f7a996" d="M99.48 193.069s.098-.868-.835-.94c0 0 .749.404.64.905l.196.035z"/><path fill="#f7a996" d="M99.257 192.959s-.185-.339-.533-.39c0 0 .441.242.45.458l.083-.068z"/><ellipse cx="102.255" cy="200.45" rx=".535" ry=".743" fill="#304454" transform="rotate(178.441 102.255 200.45)"/><ellipse cx="95.873" cy="200.295" rx=".535" ry=".743" fill="#304454" transform="rotate(178.441 95.873 200.295)"/><ellipse cx="98.271" cy="203.58" rx=".206" ry=".206" fill="#304454"/><path fill="#304454" d="M99.865 203.725a.206.206 0 1 0-.016-.412.206.206 0 0 0 .016.412z"/><path fill="#d67b72" d="M138.641 207.354s.736.172.746.344c.009.171-.324.581-.527.62-.204.037-.893-.348-.893-.348l.674-.616z"/><path fill="#d67b72" d="M138.374 207.705s.692.14.758.408c.045.187-.963.944-1.668.745-.428-.12-.605-.342-.605-.342l1.515-.811z"/><path fill="#e59585" d="M134.78 202.16c.239.13 2.148 1.61.431 3.994-.424.59 2.026 1.247 2.026 1.247s.627-.28 1.232-.064c.813.29-1.742 1.263-1.742 1.263s.144.349.05.372c-.09.022-.419-.459-.463-.565-.189-.121-1.594-.441-2.291-.923-.707-.488-3.464-1.998-2.633-4.023.963-2.347 2.874-1.583 3.39-1.301z"/><path fill="#d67b72" d="M114.921 207.392s-.574.12-.63.009c-.056-.11-.072-.456.05-.54.124-.083.608-.061.608-.061l-.028.592z"/><path fill="#d67b72" d="M114.903 207.102s-.55.098-.671-.06c-.084-.11.268-.903.791-.976.319-.045.498.051.498.051l-.618.985z"/><path fill="#e59585" d="M122.693 203.807c-.647 4.001-4.716 2.358-5.299 2.849-.972.821-2.474.736-2.474.736-.36-.014.556-1.282.556-1.282l.37.114s-.367-.207-.313-.25c.097-.073.301.031.558.159.815-.144.79-1.134 1.136-1.217 1.343-.323 1.144-.888 1.144-.888-1.896-2.308 1.27-2.995 1.27-2.995s3.771-1.672 3.052 2.774z"/><path fill="#e59585" d="M118.615 201.417s-.641-1.258-1.718-1.225c-1.079.033-1.076 1.016-.463 1.318.601.296.951-.712.951-.712s.044 1.153-.968 1.002c-1.076-.159-1.085-1.986.546-1.983 1.161.003 2.023 1.103 2.023 1.103l-.371.497z"/><path fill="#f7a996" d="M132.422 202.258s-1.918.31-3.986-.841c-3.796-2.116-6.588-2.877-9.588-.899-4.021 2.651-4.822 11.001 3.423 12.732 12.087 2.537 16.936-10.064 16.936-10.064l-6.785-.928z"/><path fill="#e59585" d="M128.879 213.121c-.751-3.141.469-4.147.469-4.147l2.04 3.154a12.81 12.81 0 0 1-2.509.993zM122.271 213.249c-.98-.229-1.826-.543-2.55-.924l.644-1.178c.88 1.331 2.223 2.001 2.958 2.286a9.382 9.382 0 0 1-1.052-.184z"/><path fill="#d67b72" d="M113.201 213.929s-.663.138-.729.01c-.064-.127-.085-.527.058-.623.143-.098.703-.071.703-.071l-.032.684z"/><path fill="#d67b72" d="M113.181 213.594s-.635.113-.775-.071c-.098-.126.31-1.042.916-1.126.366-.052.574.058.574.058l-.715 1.139z"/><path fill="#f7a996" d="M122.389 209.733c-.567 4.509-5.655 2.776-6.33 3.346-1.122.948-2.857.851-2.857.851-.417-.017.643-1.482.643-1.482l.426.132s-.424-.24-.361-.288c.112-.085.348.035.645.183.941-.167.913-1.311 1.312-1.406 1.554-.375 1.322-1.027 1.322-1.027-2.191-2.667-.561-5.642-.561-5.642s6.408.171 5.761 5.333z"/><path fill="#e59585" d="M132.958 211.169c-2.873-1.628-6.116-5.105-6.571-10.797a27.12 27.12 0 0 1 2.049 1.044c2.068 1.152 3.986.841 3.986.841l6.786.929s-1.89 4.91-6.25 7.983z"/><path fill="#d67b72" d="M136.814 211.844s.751-.077.817.082c.065.159-.116.655-.296.758-.181.102-.958-.039-.958-.039l.437-.801z"/><path fill="#d67b72" d="M136.675 212.263s.7-.092.85.139c.103.162-.603 1.206-1.335 1.247-.445.026-.683-.126-.683-.126l1.168-1.26z"/><path fill="#f7a996" d="M131.641 208.15c.268.045 2.555.823 1.707 3.636-.208.696 2.322.52 2.322.52s.502-.469 1.145-.462c.862.01-1.237 1.761-1.237 1.761s.25.283.169.336c-.078.05-.546-.298-.622-.384-.218-.052-1.65.102-2.467-.127-.827-.231-3.925-.762-3.798-2.946.146-2.533 2.201-2.433 2.781-2.334zM138.593 194.104s-.003-1.291 1.004-2.084c.66-.522 1.636-1.191 2.172-1.985 1.452-2.152 2.874 1.122 2.421 3.97-.315 1.978-1.39 4.354-3.1 3.705-1.447-.547-2.497-3.606-2.497-3.606z"/><path fill="url(#o)" d="M139.109 195.329c-.327-.675-.516-1.225-.516-1.225s-.001-.559.285-1.169c.911.287 1.861 1.051 1.861 1.051l-1.63 1.343z"/><path fill="#e59585" d="M139.109 195.329c-.327-.675-.516-1.225-.516-1.225s-.001-.559.285-1.169c.911.287 1.861 1.051 1.861 1.051l-1.63 1.343z"/><path fill="#d67b72" d="M140.405 196.203s-.749-1.687.17-2.88c1.082-1.404 1.56-3.276 2.225-3.479.811-.246 1.16 1.534 1.273 2.243.172 1.052-.118 3.117-.765 4.265-.461.817-.899 1.396-2.134 1.292-1.236-.105-.769-1.441-.769-1.441z"/><path fill="#f7a996" d="M132.133 194.351s-.097-1.286-1.16-2.002c-.698-.469-1.722-1.062-2.317-1.814-1.612-2.035-2.78 1.338-2.11 4.143.463 1.948 1.716 4.236 3.372 3.46 1.401-.657 2.215-3.787 2.215-3.787z"/><path fill="#e59585" d="M131.485 196.23c.276-.698.648-1.879.648-1.879s-.042-.558-.374-1.144c-.885.355-1.776 1.189-1.776 1.189l1.502 1.834z"/><path fill="#d67b72" d="M130.486 196.581s.618-1.74-.39-2.859c-1.185-1.317-1.803-3.148-2.481-3.3-.828-.184-1.04 1.618-1.1 2.334-.089 1.062.356 3.099 1.09 4.194.521.779 1.001 1.323 2.225 1.126 1.225-.198.656-1.495.656-1.495z"/><path fill="#f7a996" d="M139.351 193.866s-1.966-1.157-3.929-1.017c-1.367.098-2.969.346-4.33 1.663-1.852 1.791-2.291 4.747-2.314 6.26-.06 3.996 2.609 6.526 6.749 6.43 4.081-.095 7.369-2.762 7.095-6.745-.155-2.271-.888-5.199-3.271-6.591z"/><path fill="#d67b72" d="M138.054 203.217s-.938-2.1-2.383-2.045c-.873.034-1.826.949-2.3 2.325-.545 1.585 1.522 2.07 2.464 1.998.857-.068 2.864-.351 2.219-2.278z"/><path fill="#fff" d="M134.733 204.115a.487.487 0 1 1-.036-.974.487.487 0 0 1 .036.974z" opacity=".4"/><ellipse cx="136.746" cy="203.55" rx=".487" ry=".487" fill="#fff" opacity=".4"/><path fill="#f7a996" d="M136.147 193.069s.097-.868-.836-.94c0 0 .749.404.64.905l.196.035z"/><path fill="#f7a996" d="M135.924 192.959s-.185-.339-.533-.39c0 0 .441.242.449.458l.084-.068z"/><ellipse cx="138.922" cy="200.45" rx=".535" ry=".743" fill="#304454" transform="rotate(178.441 138.922 200.45)"/><ellipse cx="132.54" cy="200.295" rx=".535" ry=".743" fill="#304454" transform="rotate(178.441 132.54 200.295)"/><ellipse cx="134.938" cy="203.58" rx=".206" ry=".206" fill="#304454"/><path fill="#304454" d="M136.532 203.725a.205.205 0 1 0-.017-.411.206.206 0 1 0 .017.411z"/><path fill="none" stroke="gray" d="M39.058 73.333H165M39.058 110H165M39.058 146.667H165M39.058 183.333H165" stroke-width="2" stroke-opacity=".5"/></svg>
