<svg xmlns="http://www.w3.org/2000/svg" width="96.709" height="120" viewBox="0 0 96.70886075949366 120"><path fill="#543b78" stroke="#543b78" d="M6.076 24.304V6.076h18.228v18.228zM29.367 24.304V6.076h18.228v18.228zM52.658 24.304V6.076h18.228v18.228zM75.95 24.304V6.076h18.227v18.228zM6.076 47.595V29.367h18.228v18.228zM29.367 47.595V29.367h18.228v18.228zM52.658 47.595V29.367h18.228v18.228zM75.95 47.595V29.367h18.227v18.228zM6.076 70.886V52.658h18.228v18.228zM29.367 70.886V52.658h18.228v18.228zM52.658 70.886V52.658h18.228v18.228zM75.95 70.886V52.658h18.227v18.228zM6.076 94.177V75.95h18.228v18.228zM29.367 94.177V75.95h18.228v18.228zM52.658 94.177V75.95h18.228v18.228zM75.95 94.177V75.95h18.227v18.228zM6.076 117.468V99.24h18.228v18.228zM29.367 117.468V99.24h18.228v18.228zM52.658 117.468V99.24h18.228v18.228zM75.95 117.468V99.24h18.227v18.228z" stroke-width="2" stroke-dasharray="0"/></svg>
