<svg xmlns="http://www.w3.org/2000/svg" width="127.5" height="170" viewBox="0 0 127.5 170"><path fill="#4d677a" d="M71.639 62.33s1.362-.985 1.627-.834.038 1.135.038 1.135l-1.665-.302z"/><path fill="#bdcccc" d="M73.113 68.498s.689.172 1.119-.173c.43-.343.086-1.162.086-1.162l-1.205 1.335z"/><path fill="#4d677a" d="M56.54 73.19s-1.722 1.119-2.282 2.28c0 0 3.401-1.85 5.21-1.893 0 0-1.938-.387-2.928-.387zM61.317 60.594s3.167-3.662 5.888-3.118c0 0-2.255 2.361-1.893 4.151.013.06.027.119.046.179.56 1.805-4.041-1.212-4.041-1.212z"/><path fill="#7a3440" d="M54.59 67.86s-2.856 3.827-1.988 4.755c1.36-.055 3.813-1.013 3.813-1.013l1.886-1.676-3.712-2.065z"/><path fill="#4d677a" d="M77.362 61.97c-.132-1.592.42-3.687.837-5.359l-.801-.372 1.081-.593a12.07 12.07 0 0 1 1.942-3.617s-2.602 1.146-4.628 3.226c-1.88 1.93-1.028 6.974-1.028 6.974s-7.882.093-14.466-2.597c-7.993-3.264-15.251-7.122-15.022-3.8.185 2.69 3.431 9.272 4.915 10.292 1.483 1.02 6.269 2.4 6.12 2.968-.464 1.761-4.173 3.06-3.709 3.523.464.463 14.465 5.657 22.996-6.862 0 0 3.412 4.26 6.629 4.22-3.418-3.378-4.021-4.947-4.866-8.004z"/><path fill="#fffdfd" d="M55.547 68.37s-.06.807.03.897c.09.091.509-.568.509-.568l-.538-.33zM54.677 67.858s-.06.808.03.898c.089.09.509-.569.509-.569l-.539-.329zM53.942 71.815s-.594-.55-.721-.535c-.126.014.128.752.128.752l.593-.217z"/><path fill="#bdcccc" d="M76.62 62.878s-2.88 6.217-11.263 5.982c-8.303-.232-15.536-8.67-17.39-10.897-1.271-1.524-2.14-2.43-2.676-2.499a1.744 1.744 0 0 0-.013.367c.184 2.69 3.43 9.273 4.915 10.293 1.483 1.02 6.269 2.4 6.12 2.968-.465 1.761-4.174 3.06-3.71 3.523.46.461 14.61 5.717 22.997-6.862.61-1.49 1.02-2.875 1.02-2.875z"/><path fill="#688da7" d="M59.526 61.72s.616 1.51-.636 3.31c0 0 .67-1.699.636-3.31zM60.17 62.218s.616 1.51-.635 3.31c0 0 .67-1.698.636-3.31zM60.692 62.702s.616 1.51-.636 3.31c.001 0 .67-1.7.636-3.31z"/><path fill="#304454" d="M63.246 70.936c-.247-1.633-.94-1.633-1.089-2.92 0 0 .049-.09.1-.198 0 0 3.76 2.672 4.997 3.018 0 0 .156 3.13 2.97 3.959-.026.07-.026.135-.026.213 0 0-6.327.047-6.951-4.072z"/><path fill="#4d677a" d="M63.346 70.737c-.247-1.633-.94-1.633-1.088-2.919 0 0 1.532.692 2.621.594 0 0 1.237 1.881 2.474 2.227 0 0 .297 2.968 2.87 4.156 0 0-6.254.061-6.877-4.058z"/><ellipse cx="56.578" cy="62.298" rx=".492" ry=".817" fill="#304454"/><path fill="#4d677a" d="M114.139 62.33s1.362-.985 1.627-.834.038 1.135.038 1.135l-1.665-.302z"/><path fill="#bdcccc" d="M115.613 68.498s.689.172 1.119-.173c.43-.343.086-1.162.086-1.162l-1.205 1.335z"/><path fill="#4d677a" d="M99.04 73.19s-1.722 1.119-2.282 2.28c0 0 3.401-1.85 5.209-1.893 0 0-1.937-.387-2.927-.387zM103.817 60.594s3.167-3.662 5.888-3.118c0 0-2.255 2.361-1.893 4.151.013.06.027.119.046.179.561 1.805-4.041-1.212-4.041-1.212z"/><path fill="#7a3440" d="M97.09 67.86s-2.856 3.827-1.988 4.755c1.36-.055 3.813-1.013 3.813-1.013l1.886-1.676-3.712-2.065z"/><path fill="#4d677a" d="M119.862 61.97c-.132-1.592.42-3.687.837-5.359l-.801-.372 1.081-.593a12.07 12.07 0 0 1 1.942-3.617s-2.602 1.146-4.628 3.226c-1.88 1.93-1.028 6.974-1.028 6.974s-7.882.093-14.466-2.597c-7.993-3.264-15.251-7.122-15.022-3.8.185 2.69 3.431 9.272 4.915 10.292 1.483 1.02 6.269 2.4 6.12 2.968-.464 1.761-4.173 3.06-3.709 3.523.464.463 14.465 5.657 22.996-6.862 0 0 3.412 4.26 6.629 4.22-3.418-3.378-4.021-4.947-4.866-8.004z"/><path fill="#fffdfd" d="M98.047 68.37s-.06.807.03.897c.09.091.508-.568.508-.568l-.537-.33zM97.177 67.858s-.06.808.03.898c.089.09.509-.569.509-.569l-.539-.329zM96.442 71.815s-.594-.55-.721-.535c-.126.014.128.752.128.752l.593-.217z"/><path fill="#bdcccc" d="M119.12 62.878s-2.88 6.217-11.262 5.982c-8.305-.232-15.538-8.67-17.392-10.897-1.27-1.524-2.138-2.43-2.675-2.499a1.744 1.744 0 0 0-.013.367c.184 2.69 3.43 9.273 4.914 10.293 1.484 1.02 6.27 2.4 6.12 2.968-.463 1.761-4.172 3.06-3.71 3.523.462.461 14.611 5.717 22.998-6.862.61-1.49 1.02-2.875 1.02-2.875z"/><path fill="#688da7" d="M102.026 61.72s.616 1.51-.636 3.31c0 0 .67-1.699.636-3.31zM102.671 62.218s.615 1.51-.636 3.31c0 0 .67-1.698.636-3.31zM103.192 62.702s.616 1.51-.636 3.31c.001 0 .67-1.7.636-3.31z"/><path fill="#304454" d="M105.747 70.936c-.247-1.633-.94-1.633-1.089-2.92 0 0 .048-.09.1-.198 0 0 3.759 2.672 4.997 3.018 0 0 .156 3.13 2.969 3.959-.025.07-.025.135-.025.213 0 0-6.328.047-6.952-4.072z"/><path fill="#4d677a" d="M105.845 70.737c-.247-1.633-.94-1.633-1.088-2.919 0 0 1.533.692 2.622.594 0 0 1.237 1.881 2.474 2.227 0 0 .297 2.968 2.87 4.156 0 0-6.254.061-6.878-4.058z"/><ellipse cx="99.078" cy="62.298" rx=".492" ry=".817" fill="#304454"/><path fill="#4d677a" d="M71.639 104.829s1.362-.984 1.627-.833.038 1.135.038 1.135l-1.665-.302z"/><path fill="#bdcccc" d="M73.113 110.998s.689.172 1.119-.173c.43-.343.086-1.162.086-1.162l-1.205 1.335z"/><path fill="#4d677a" d="M56.54 115.69s-1.722 1.119-2.282 2.281c0 0 3.401-1.851 5.21-1.894 0 .001-1.938-.387-2.928-.387zM61.317 103.094s3.167-3.662 5.888-3.118c0 0-2.255 2.361-1.893 4.151.013.06.027.119.046.179.56 1.805-4.041-1.212-4.041-1.212z"/><path fill="#7a3440" d="M54.59 110.361s-2.856 3.826-1.988 4.754c1.36-.055 3.813-1.013 3.813-1.013l1.886-1.676-3.712-2.065z"/><path fill="#4d677a" d="M77.362 104.469c-.132-1.591.42-3.686.837-5.358l-.801-.372 1.081-.593a12.07 12.07 0 0 1 1.942-3.617s-2.602 1.146-4.628 3.226c-1.88 1.93-1.028 6.974-1.028 6.974s-7.882.093-14.466-2.597c-7.993-3.264-15.251-7.122-15.022-3.8.185 2.689 3.431 9.272 4.915 10.292 1.483 1.019 6.269 2.4 6.12 2.968-.464 1.761-4.173 3.059-3.709 3.523.464.463 14.465 5.657 22.996-6.862 0 0 3.412 4.26 6.629 4.22-3.418-3.378-4.021-4.947-4.866-8.004z"/><path fill="#fffdfd" d="M55.547 110.869s-.06.808.03.898c.09.091.509-.568.509-.568l-.538-.33zM54.677 110.358s-.06.808.03.898c.089.09.509-.569.509-.569l-.539-.329zM53.942 114.315s-.594-.55-.721-.535c-.126.014.128.752.128.752l.593-.217z"/><path fill="#bdcccc" d="M76.62 105.378s-2.88 6.217-11.263 5.982c-8.303-.232-15.536-8.671-17.39-10.897-1.271-1.524-2.14-2.43-2.676-2.499a1.744 1.744 0 0 0-.013.367c.184 2.69 3.43 9.273 4.915 10.293 1.483 1.02 6.269 2.4 6.12 2.968-.465 1.761-4.174 3.06-3.71 3.523.46.461 14.61 5.717 22.997-6.862.61-1.491 1.02-2.875 1.02-2.875z"/><path fill="#688da7" d="M59.526 104.219s.616 1.511-.636 3.31c0 0 .67-1.698.636-3.31zM60.17 104.718s.616 1.51-.635 3.31c0 0 .67-1.698.636-3.31zM60.692 105.202s.616 1.51-.636 3.31c.001 0 .67-1.699.636-3.31z"/><path fill="#304454" d="M63.246 113.436c-.247-1.633-.94-1.633-1.089-2.92 0 0 .049-.089.1-.198 0 0 3.76 2.672 4.997 3.018 0 0 .156 3.131 2.97 3.959-.026.07-.026.135-.026.213 0 0-6.327.047-6.951-4.072z"/><path fill="#4d677a" d="M63.346 113.237c-.247-1.633-.94-1.633-1.088-2.919 0 0 1.532.692 2.621.594 0 0 1.237 1.881 2.474 2.227 0 0 .297 2.968 2.87 4.156 0 0-6.254.061-6.877-4.058z"/><ellipse cx="56.578" cy="104.798" rx=".492" ry=".817" fill="#304454"/><path fill="#4d677a" d="M114.139 104.829s1.362-.984 1.627-.833.038 1.135.038 1.135l-1.665-.302z"/><path fill="#bdcccc" d="M115.613 110.998s.689.172 1.119-.173c.43-.343.086-1.162.086-1.162l-1.205 1.335z"/><path fill="#4d677a" d="M99.04 115.69s-1.722 1.119-2.282 2.281c0 0 3.401-1.851 5.209-1.894 0 .001-1.937-.387-2.927-.387zM103.817 103.094s3.167-3.662 5.888-3.118c0 0-2.255 2.361-1.893 4.151.013.06.027.119.046.179.561 1.805-4.041-1.212-4.041-1.212z"/><path fill="#7a3440" d="M97.09 110.361s-2.856 3.826-1.988 4.754c1.36-.055 3.813-1.013 3.813-1.013l1.886-1.676-3.712-2.065z"/><path fill="#4d677a" d="M119.862 104.469c-.132-1.591.42-3.686.837-5.358l-.801-.372 1.081-.593a12.07 12.07 0 0 1 1.942-3.617s-2.602 1.146-4.628 3.226c-1.88 1.93-1.028 6.974-1.028 6.974s-7.882.093-14.466-2.597c-7.993-3.264-15.251-7.122-15.022-3.8.185 2.689 3.431 9.272 4.915 10.292 1.483 1.019 6.269 2.4 6.12 2.968-.464 1.761-4.173 3.059-3.709 3.523.464.463 14.465 5.657 22.996-6.862 0 0 3.412 4.26 6.629 4.22-3.418-3.378-4.021-4.947-4.866-8.004z"/><path fill="#fffdfd" d="M98.047 110.869s-.06.808.03.898c.09.091.508-.568.508-.568l-.537-.33zM97.177 110.358s-.06.808.03.898c.089.09.509-.569.509-.569l-.539-.329zM96.442 114.315s-.594-.55-.721-.535c-.126.014.128.752.128.752l.593-.217z"/><path fill="#bdcccc" d="M119.12 105.378s-2.88 6.217-11.262 5.982c-8.305-.232-15.538-8.671-17.392-10.897-1.27-1.524-2.138-2.43-2.675-2.499a1.744 1.744 0 0 0-.013.367c.184 2.69 3.43 9.273 4.914 10.293 1.484 1.02 6.27 2.4 6.12 2.968-.463 1.761-4.172 3.06-3.71 3.523.462.461 14.611 5.717 22.998-6.862.61-1.491 1.02-2.875 1.02-2.875z"/><path fill="#688da7" d="M102.026 104.219s.616 1.511-.636 3.31c0 0 .67-1.698.636-3.31zM102.671 104.718s.615 1.51-.636 3.31c0 0 .67-1.698.636-3.31zM103.192 105.202s.616 1.51-.636 3.31c.001 0 .67-1.699.636-3.31z"/><path fill="#304454" d="M105.747 113.436c-.247-1.633-.94-1.633-1.089-2.92 0 0 .048-.089.1-.198 0 0 3.759 2.672 4.997 3.018 0 0 .156 3.131 2.969 3.959-.025.07-.025.135-.025.213 0 0-6.328.047-6.952-4.072z"/><path fill="#4d677a" d="M105.845 113.237c-.247-1.633-.94-1.633-1.088-2.919 0 0 1.533.692 2.622.594 0 0 1.237 1.881 2.474 2.227 0 0 .297 2.968 2.87 4.156 0 0-6.254.061-6.878-4.058z"/><ellipse cx="99.078" cy="104.798" rx=".492" ry=".817" fill="#304454"/><path fill="#4d677a" d="M71.639 147.329s1.362-.984 1.627-.833.038 1.135.038 1.135l-1.665-.302z"/><path fill="#bdcccc" d="M73.113 153.498s.689.172 1.119-.173c.43-.343.086-1.162.086-1.162l-1.205 1.335z"/><path fill="#4d677a" d="M56.54 158.19s-1.722 1.119-2.282 2.281c0 0 3.401-1.851 5.21-1.894 0 .001-1.938-.387-2.928-.387zM61.317 145.594s3.167-3.662 5.888-3.118c0 0-2.255 2.361-1.893 4.151.013.06.027.119.046.179.56 1.805-4.041-1.212-4.041-1.212z"/><path fill="#7a3440" d="M54.59 152.861s-2.856 3.826-1.988 4.754c1.36-.055 3.813-1.013 3.813-1.013l1.886-1.676-3.712-2.065z"/><path fill="#4d677a" d="M77.362 146.969c-.132-1.591.42-3.686.837-5.358l-.801-.372 1.081-.593a12.07 12.07 0 0 1 1.942-3.617s-2.602 1.146-4.628 3.226c-1.88 1.929-1.028 6.974-1.028 6.974s-7.882.093-14.466-2.597c-7.993-3.264-15.251-7.122-15.022-3.801.185 2.69 3.431 9.273 4.915 10.293 1.483 1.019 6.269 2.4 6.12 2.968-.464 1.761-4.173 3.059-3.709 3.523.464.463 14.465 5.657 22.996-6.862 0 0 3.412 4.26 6.629 4.22-3.418-3.378-4.021-4.947-4.866-8.004z"/><path fill="#fffdfd" d="M55.547 153.369s-.06.808.03.898c.09.091.509-.568.509-.568l-.538-.33zM54.677 152.858s-.06.808.03.898c.089.09.509-.569.509-.569l-.539-.329zM53.942 156.815s-.594-.55-.721-.535c-.126.014.128.752.128.752l.593-.217z"/><path fill="#bdcccc" d="M76.62 147.878s-2.88 6.217-11.263 5.982c-8.303-.232-15.536-8.671-17.39-10.897-1.271-1.524-2.14-2.43-2.676-2.499a1.744 1.744 0 0 0-.013.367c.184 2.69 3.43 9.273 4.915 10.293 1.483 1.02 6.269 2.4 6.12 2.968-.465 1.761-4.174 3.06-3.71 3.523.46.461 14.61 5.717 22.997-6.862.61-1.491 1.02-2.875 1.02-2.875z"/><path fill="#688da7" d="M59.526 146.719s.616 1.511-.636 3.31c0 0 .67-1.698.636-3.31zM60.17 147.218s.616 1.51-.635 3.31c0 0 .67-1.698.636-3.31zM60.692 147.702s.616 1.51-.636 3.31c.001 0 .67-1.699.636-3.31z"/><path fill="#304454" d="M63.246 155.936c-.247-1.633-.94-1.633-1.089-2.92 0 0 .049-.089.1-.198 0 0 3.76 2.672 4.997 3.018 0 0 .156 3.131 2.97 3.959-.026.07-.026.135-.026.213 0 0-6.327.047-6.951-4.072z"/><path fill="#4d677a" d="M63.346 155.737c-.247-1.633-.94-1.633-1.088-2.919 0 0 1.532.692 2.621.594 0 0 1.237 1.881 2.474 2.227 0 0 .297 2.968 2.87 4.156 0 0-6.254.061-6.877-4.058z"/><ellipse cx="56.578" cy="147.298" rx=".492" ry=".817" fill="#304454"/><path fill="#4d677a" d="M114.139 147.329s1.362-.984 1.627-.833.038 1.135.038 1.135l-1.665-.302z"/><path fill="#bdcccc" d="M115.613 153.498s.689.172 1.119-.173c.43-.343.086-1.162.086-1.162l-1.205 1.335z"/><path fill="#4d677a" d="M99.04 158.19s-1.722 1.119-2.282 2.281c0 0 3.401-1.851 5.209-1.894 0 .001-1.937-.387-2.927-.387zM103.817 145.594s3.167-3.662 5.888-3.118c0 0-2.255 2.361-1.893 4.151.013.06.027.119.046.179.561 1.805-4.041-1.212-4.041-1.212z"/><path fill="#7a3440" d="M97.09 152.861s-2.856 3.826-1.988 4.754c1.36-.055 3.813-1.013 3.813-1.013l1.886-1.676-3.712-2.065z"/><path fill="#4d677a" d="M119.862 146.969c-.132-1.591.42-3.686.837-5.358l-.801-.372 1.081-.593a12.07 12.07 0 0 1 1.942-3.617s-2.602 1.146-4.628 3.226c-1.88 1.929-1.028 6.974-1.028 6.974s-7.882.093-14.466-2.597c-7.993-3.264-15.251-7.122-15.022-3.801.185 2.69 3.431 9.273 4.915 10.293 1.483 1.019 6.269 2.4 6.12 2.968-.464 1.761-4.173 3.059-3.709 3.523.464.463 14.465 5.657 22.996-6.862 0 0 3.412 4.26 6.629 4.22-3.418-3.378-4.021-4.947-4.866-8.004z"/><path fill="#fffdfd" d="M98.047 153.369s-.06.808.03.898c.09.091.508-.568.508-.568l-.537-.33zM97.177 152.858s-.06.808.03.898c.089.09.509-.569.509-.569l-.539-.329zM96.442 156.815s-.594-.55-.721-.535c-.126.014.128.752.128.752l.593-.217z"/><path fill="#bdcccc" d="M119.12 147.878s-2.88 6.217-11.262 5.982c-8.305-.232-15.538-8.671-17.392-10.897-1.27-1.524-2.138-2.43-2.675-2.499a1.744 1.744 0 0 0-.013.367c.184 2.69 3.43 9.273 4.914 10.293 1.484 1.02 6.27 2.4 6.12 2.968-.463 1.761-4.172 3.06-3.71 3.523.462.461 14.611 5.717 22.998-6.862.61-1.491 1.02-2.875 1.02-2.875z"/><path fill="#688da7" d="M102.026 146.719s.616 1.511-.636 3.31c0 0 .67-1.698.636-3.31zM102.671 147.218s.615 1.51-.636 3.31c0 0 .67-1.698.636-3.31zM103.192 147.702s.616 1.51-.636 3.31c.001 0 .67-1.699.636-3.31z"/><path fill="#304454" d="M105.747 155.936c-.247-1.633-.94-1.633-1.089-2.92 0 0 .048-.089.1-.198 0 0 3.759 2.672 4.997 3.018 0 0 .156 3.131 2.969 3.959-.025.07-.025.135-.025.213 0 0-6.328.047-6.952-4.072z"/><path fill="#4d677a" d="M105.845 155.737c-.247-1.633-.94-1.633-1.088-2.919 0 0 1.533.692 2.622.594 0 0 1.237 1.881 2.474 2.227 0 0 .297 2.968 2.87 4.156 0 0-6.254.061-6.878-4.058z"/><ellipse cx="99.078" cy="147.298" rx=".492" ry=".817" fill="#304454"/><path fill="none" stroke="gray" d="M45.272 85H148.75M45.272 127.5H148.75" stroke-width="2" stroke-opacity=".5"/></svg>
