<svg xmlns="http://www.w3.org/2000/svg" version="1.1" width="150" height="210" viewBox="0 0 150 210"><defs/><ellipse cx="120" cy="60" rx="7.5" ry="7.5" fill="#29abca" stroke="#29abca" style="stroke-width: 2px" stroke-width="2"/><ellipse cx="90" cy="60" rx="7.5" ry="7.5" fill="#29abca" stroke="#29abca" style="stroke-width: 2px" stroke-width="2"/><ellipse cx="60" cy="60" rx="7.5" ry="7.5" fill="#29abca" stroke="#29abca" style="stroke-width: 2px" stroke-width="2"/><ellipse cx="30" cy="60" rx="7.5" ry="7.5" fill="#29abca" stroke="#29abca" style="stroke-width: 2px" stroke-width="2"/><ellipse cx="120" cy="90" rx="7.5" ry="7.5" fill="#29abca" stroke="#29abca" style="stroke-width: 2px" stroke-width="2"/><ellipse cx="90" cy="90" rx="7.5" ry="7.5" fill="#29abca" stroke="#29abca" style="stroke-width: 2px" stroke-width="2"/><ellipse cx="60" cy="90" rx="7.5" ry="7.5" fill="#29abca" stroke="#29abca" style="stroke-width: 2px" stroke-width="2"/><ellipse cx="30" cy="90" rx="7.5" ry="7.5" fill="#29abca" stroke="#29abca" style="stroke-width: 2px" stroke-width="2"/><ellipse cx="120" cy="120" rx="7.5" ry="7.5" fill="#29abca" stroke="#29abca" style="stroke-width: 2px" stroke-width="2"/><ellipse cx="90" cy="120" rx="7.5" ry="7.5" fill="#29abca" stroke="#29abca" style="stroke-width: 2px" stroke-width="2"/><ellipse cx="60" cy="120" rx="7.5" ry="7.5" fill="#29abca" stroke="#29abca" style="stroke-width: 2px" stroke-width="2"/><ellipse cx="30" cy="120" rx="7.5" ry="7.5" fill="#29abca" stroke="#29abca" style="stroke-width: 2px" stroke-width="2"/><ellipse cx="120" cy="150" rx="7.5" ry="7.5" fill="#29abca" stroke="#29abca" style="stroke-width: 2px" stroke-width="2"/><ellipse cx="90" cy="150" rx="7.5" ry="7.5" fill="#29abca" stroke="#29abca" style="stroke-width: 2px" stroke-width="2"/><ellipse cx="60" cy="150" rx="7.5" ry="7.5" fill="#29abca" stroke="#29abca" style="stroke-width: 2px" stroke-width="2"/><ellipse cx="30" cy="150" rx="7.5" ry="7.5" fill="#29abca" stroke="#29abca" style="stroke-width: 2px" stroke-width="2"/><ellipse cx="60" cy="180" rx="7.5" ry="7.5" fill="#29abca" stroke="#29abca" style="stroke-width: 2px" stroke-width="2"/><ellipse cx="30" cy="180" rx="7.5" ry="7.5" fill="#29abca" stroke="#29abca" style="stroke-width: 2px" stroke-width="2"/><path fill="#fc6255" stroke="#fc6255" d="M 111,69 L 129,51" style="stroke-width: 2px" stroke-width="2"/><path fill="#fc6255" stroke="#fc6255" d="M 111,51 L 129,69" style="stroke-width: 2px" stroke-width="2"/><path fill="#fc6255" stroke="#fc6255" d="M 81,69 L 99,51" style="stroke-width: 2px" stroke-width="2"/><path fill="#fc6255" stroke="#fc6255" d="M 81,51 L 99,69" style="stroke-width: 2px" stroke-width="2"/><path fill="#fc6255" stroke="#fc6255" d="M 51,69 L 69,51" style="stroke-width: 2px" stroke-width="2"/><path fill="#fc6255" stroke="#fc6255" d="M 51,51 L 69,69" style="stroke-width: 2px" stroke-width="2"/><path fill="#fc6255" stroke="#fc6255" d="M 21,69 L 39,51" style="stroke-width: 2px" stroke-width="2"/><path fill="#fc6255" stroke="#fc6255" d="M 21,51 L 39,69" style="stroke-width: 2px" stroke-width="2"/><path fill="#fc6255" stroke="#fc6255" d="M 111,99 L 129,81" style="stroke-width: 2px" stroke-width="2"/><path fill="#fc6255" stroke="#fc6255" d="M 111,81 L 129,99" style="stroke-width: 2px" stroke-width="2"/><path fill="#fc6255" stroke="#fc6255" d="M 81,99 L 99,81" style="stroke-width: 2px" stroke-width="2"/><path fill="#fc6255" stroke="#fc6255" d="M 81,81 L 99,99" style="stroke-width: 2px" stroke-width="2"/><path fill="#fc6255" stroke="#fc6255" d="M 51,99 L 69,81" style="stroke-width: 2px" stroke-width="2"/><path fill="#fc6255" stroke="#fc6255" d="M 51,81 L 69,99" style="stroke-width: 2px" stroke-width="2"/><path fill="#fc6255" stroke="#fc6255" d="M 21,99 L 39,81" style="stroke-width: 2px" stroke-width="2"/><path fill="#fc6255" stroke="#fc6255" d="M 21,81 L 39,99" style="stroke-width: 2px" stroke-width="2"/><path fill="#fc6255" stroke="#fc6255" d="M 111,129 L 129,111" style="stroke-width: 2px" stroke-width="2"/><path fill="#fc6255" stroke="#fc6255" d="M 111,111 L 129,129" style="stroke-width: 2px" stroke-width="2"/><path fill="#fc6255" stroke="#fc6255" d="M 81,129 L 99,111" style="stroke-width: 2px" stroke-width="2"/><path fill="#fc6255" stroke="#fc6255" d="M 81,111 L 99,129" style="stroke-width: 2px" stroke-width="2"/><path fill="#fc6255" stroke="#fc6255" d="M 51,129 L 69,111" style="stroke-width: 2px" stroke-width="2"/><path fill="#fc6255" stroke="#fc6255" d="M 51,111 L 69,129" style="stroke-width: 2px" stroke-width="2"/><path fill="#fc6255" stroke="#fc6255" d="M 21,129 L 39,111" style="stroke-width: 2px" stroke-width="2"/><path fill="#fc6255" stroke="#fc6255" d="M 21,111 L 39,129" style="stroke-width: 2px" stroke-width="2"/><path fill="#fc6255" stroke="#fc6255" d="M 111,159 L 129,141" style="stroke-width: 2px" stroke-width="2"/><path fill="#fc6255" stroke="#fc6255" d="M 111,141 L 129,159" style="stroke-width: 2px" stroke-width="2"/><path fill="#fc6255" stroke="#fc6255" d="M 81,159 L 99,141" style="stroke-width: 2px" stroke-width="2"/><path fill="#fc6255" stroke="#fc6255" d="M 81,141 L 99,159" style="stroke-width: 2px" stroke-width="2"/><path fill="#fc6255" stroke="#fc6255" d="M 51,159 L 69,141" style="stroke-width: 2px" stroke-width="2"/><path fill="#fc6255" stroke="#fc6255" d="M 51,141 L 69,159" style="stroke-width: 2px" stroke-width="2"/></svg>