<svg xmlns="http://www.w3.org/2000/svg" width="204.444" height="120" viewBox="0 0 204.44444444444446 120"><path fill="#ddd7ff" stroke="#543b78" d="M5.556 107.778v11.111h11.11l5.556-5.556v-11.111h-11.11z" stroke-width="2"/><path fill="#ddd7ff" stroke="#543b78" d="M5.556 107.778h11.11v11.111M16.667 107.778l5.555-5.556" stroke-width="2"/><path fill="#ddd7ff" stroke="#543b78" d="M5.556 96.667v11.111h11.11l5.556-5.556v-11.11h-11.11z" stroke-width="2"/><path fill="#ddd7ff" stroke="#543b78" d="M5.556 96.667h11.11v11.111M16.667 96.667l5.555-5.556M5.556 85.556v11.11h11.11l5.556-5.555V80h-11.11z" stroke-width="2"/><path fill="#ddd7ff" stroke="#543b78" d="M5.556 85.556h11.11v11.11M16.667 85.556L22.222 80" stroke-width="2"/><path fill="#ddd7ff" stroke="#543b78" d="M5.556 74.444v11.112h11.11L22.223 80V68.889h-11.11z" stroke-width="2"/><path fill="#ddd7ff" stroke="#543b78" d="M5.556 74.444h11.11v11.112M16.667 74.444l5.555-5.555" stroke-width="2"/><path fill="#ddd7ff" stroke="#543b78" d="M5.556 63.333v11.111h11.11l5.556-5.555V57.778h-11.11z" stroke-width="2"/><path fill="#ddd7ff" stroke="#543b78" d="M5.556 63.333h11.11v11.111M16.667 63.333l5.555-5.555" stroke-width="2"/><path fill="#ddd7ff" stroke="#543b78" d="M5.556 52.222v11.111h11.11l5.556-5.555V46.667h-11.11z" stroke-width="2"/><path fill="#ddd7ff" stroke="#543b78" d="M5.556 52.222h11.11v11.111M16.667 52.222l5.555-5.555M5.556 41.111v11.111h11.11l5.556-5.555V35.556h-11.11z" stroke-width="2"/><path fill="#ddd7ff" stroke="#543b78" d="M5.556 41.111h11.11v11.111M16.667 41.111l5.555-5.555" stroke-width="2"/><path fill="#ddd7ff" stroke="#543b78" d="M5.556 30v11.111h11.11l5.556-5.555V24.444h-11.11z" stroke-width="2"/><path fill="#ddd7ff" stroke="#543b78" d="M5.556 30h11.11v11.111M16.667 30l5.555-5.556" stroke-width="2"/><path fill="#ddd7ff" stroke="#543b78" d="M5.556 18.889V30h11.11l5.556-5.556v-11.11h-11.11z" stroke-width="2"/><path fill="#ddd7ff" stroke="#543b78" d="M5.556 18.889h11.11V30M16.667 18.889l5.555-5.556M5.556 7.778v11.11h11.11l5.556-5.555V2.223h-11.11z" stroke-width="2"/><path fill="#ddd7ff" stroke="#543b78" d="M5.556 7.778h11.11v11.11M16.667 7.778l5.555-5.556M27.778 107.778v11.111h11.11l5.556-5.556v-11.111h-11.11z" stroke-width="2"/><path fill="#ddd7ff" stroke="#543b78" d="M27.778 107.778h11.11v11.111M38.889 107.778l5.555-5.556" stroke-width="2"/><path fill="#ddd7ff" stroke="#543b78" d="M27.778 96.667v11.111h11.11l5.556-5.556v-11.11h-11.11z" stroke-width="2"/><path fill="#ddd7ff" stroke="#543b78" d="M27.778 96.667h11.11v11.111M38.889 96.667l5.555-5.556M27.778 85.556v11.11h11.11l5.556-5.555V80h-11.11z" stroke-width="2"/><path fill="#ddd7ff" stroke="#543b78" d="M27.778 85.556h11.11v11.11M38.889 85.556L44.444 80" stroke-width="2"/><path fill="#ddd7ff" stroke="#543b78" d="M27.778 74.444v11.112h11.11L44.445 80V68.889h-11.11z" stroke-width="2"/><path fill="#ddd7ff" stroke="#543b78" d="M27.778 74.444h11.11v11.112M38.889 74.444l5.555-5.555" stroke-width="2"/><path fill="#ddd7ff" stroke="#543b78" d="M27.778 63.333v11.111h11.11l5.556-5.555V57.778h-11.11z" stroke-width="2"/><path fill="#ddd7ff" stroke="#543b78" d="M27.778 63.333h11.11v11.111M38.889 63.333l5.555-5.555" stroke-width="2"/><path fill="#ddd7ff" stroke="#543b78" d="M27.778 52.222v11.111h11.11l5.556-5.555V46.667h-11.11z" stroke-width="2"/><path fill="#ddd7ff" stroke="#543b78" d="M27.778 52.222h11.11v11.111M38.889 52.222l5.555-5.555M27.778 41.111v11.111h11.11l5.556-5.555V35.556h-11.11z" stroke-width="2"/><path fill="#ddd7ff" stroke="#543b78" d="M27.778 41.111h11.11v11.111M38.889 41.111l5.555-5.555" stroke-width="2"/><path fill="#ddd7ff" stroke="#543b78" d="M27.778 30v11.111h11.11l5.556-5.555V24.444h-11.11z" stroke-width="2"/><path fill="#ddd7ff" stroke="#543b78" d="M27.778 30h11.11v11.111M38.889 30l5.555-5.556" stroke-width="2"/><path fill="#ddd7ff" stroke="#543b78" d="M27.778 18.889V30h11.11l5.556-5.556v-11.11h-11.11z" stroke-width="2"/><path fill="#ddd7ff" stroke="#543b78" d="M27.778 18.889h11.11V30M38.889 18.889l5.555-5.556M27.778 7.778v11.11h11.11l5.556-5.555V2.223h-11.11z" stroke-width="2"/><path fill="#ddd7ff" stroke="#543b78" d="M27.778 7.778h11.11v11.11M38.889 7.778l5.555-5.556M50 107.778v11.111h11.111l5.556-5.556v-11.111H55.556z" stroke-width="2"/><path fill="#ddd7ff" stroke="#543b78" d="M50 107.778h11.111v11.111M61.111 107.778l5.556-5.556" stroke-width="2"/><path fill="#ddd7ff" stroke="#543b78" d="M50 96.667v11.111h11.111l5.556-5.556v-11.11H55.556z" stroke-width="2"/><path fill="#ddd7ff" stroke="#543b78" d="M50 96.667h11.111v11.111M61.111 96.667l5.556-5.556M50 85.556v11.11h11.111l5.556-5.555V80H55.556z" stroke-width="2"/><path fill="#ddd7ff" stroke="#543b78" d="M50 85.556h11.111v11.11M61.111 85.556L66.667 80" stroke-width="2"/><path fill="#ddd7ff" stroke="#543b78" d="M50 74.444v11.112h11.111L66.667 80V68.889H55.556z" stroke-width="2"/><path fill="#ddd7ff" stroke="#543b78" d="M50 74.444h11.111v11.112M61.111 74.444l5.556-5.555" stroke-width="2"/><path fill="#ddd7ff" stroke="#543b78" d="M50 63.333v11.111h11.111l5.556-5.555V57.778H55.556z" stroke-width="2"/><path fill="#ddd7ff" stroke="#543b78" d="M50 63.333h11.111v11.111M61.111 63.333l5.556-5.555" stroke-width="2"/><path fill="#ddd7ff" stroke="#543b78" d="M50 52.222v11.111h11.111l5.556-5.555V46.667H55.556z" stroke-width="2"/><path fill="#ddd7ff" stroke="#543b78" d="M50 52.222h11.111v11.111M61.111 52.222l5.556-5.555M50 41.111v11.111h11.111l5.556-5.555V35.556H55.556z" stroke-width="2"/><path fill="#ddd7ff" stroke="#543b78" d="M50 41.111h11.111v11.111M61.111 41.111l5.556-5.555" stroke-width="2"/><path fill="#ddd7ff" stroke="#543b78" d="M50 30v11.111h11.111l5.556-5.555V24.444H55.556z" stroke-width="2"/><path fill="#ddd7ff" stroke="#543b78" d="M50 30h11.111v11.111M61.111 30l5.556-5.556" stroke-width="2"/><path fill="#ddd7ff" stroke="#543b78" d="M50 18.889V30h11.111l5.556-5.556v-11.11H55.556z" stroke-width="2"/><path fill="#ddd7ff" stroke="#543b78" d="M50 18.889h11.111V30M61.111 18.889l5.556-5.556M50 7.778v11.11h11.111l5.556-5.555V2.223H55.556z" stroke-width="2"/><path fill="#ddd7ff" stroke="#543b78" d="M50 7.778h11.111v11.11M61.111 7.778l5.556-5.556M72.222 107.778v11.111h11.111l5.556-5.556v-11.111H77.778z" stroke-width="2"/><path fill="#ddd7ff" stroke="#543b78" d="M72.222 107.778h11.111v11.111M83.333 107.778l5.556-5.556" stroke-width="2"/><path fill="#ddd7ff" stroke="#543b78" d="M72.222 96.667v11.111h11.111l5.556-5.556v-11.11H77.778z" stroke-width="2"/><path fill="#ddd7ff" stroke="#543b78" d="M72.222 96.667h11.111v11.111M83.333 96.667l5.556-5.556M72.222 85.556v11.11h11.111l5.556-5.555V80H77.778z" stroke-width="2"/><path fill="#ddd7ff" stroke="#543b78" d="M72.222 85.556h11.111v11.11M83.333 85.556L88.89 80" stroke-width="2"/><path fill="#ddd7ff" stroke="#543b78" d="M72.222 74.444v11.112h11.111L88.89 80V68.889H77.778z" stroke-width="2"/><path fill="#ddd7ff" stroke="#543b78" d="M72.222 74.444h11.111v11.112M83.333 74.444l5.556-5.555" stroke-width="2"/><path fill="#ddd7ff" stroke="#543b78" d="M72.222 63.333v11.111h11.111l5.556-5.555V57.778H77.778z" stroke-width="2"/><path fill="#ddd7ff" stroke="#543b78" d="M72.222 63.333h11.111v11.111M83.333 63.333l5.556-5.555" stroke-width="2"/><path fill="#ddd7ff" stroke="#543b78" d="M72.222 52.222v11.111h11.111l5.556-5.555V46.667H77.778z" stroke-width="2"/><path fill="#ddd7ff" stroke="#543b78" d="M72.222 52.222h11.111v11.111M83.333 52.222l5.556-5.555M72.222 41.111v11.111h11.111l5.556-5.555V35.556H77.778z" stroke-width="2"/><path fill="#ddd7ff" stroke="#543b78" d="M72.222 41.111h11.111v11.111M83.333 41.111l5.556-5.555" stroke-width="2"/><path fill="#ddd7ff" stroke="#543b78" d="M72.222 30v11.111h11.111l5.556-5.555V24.444H77.778z" stroke-width="2"/><path fill="#ddd7ff" stroke="#543b78" d="M72.222 30h11.111v11.111M83.333 30l5.556-5.556" stroke-width="2"/><path fill="#ddd7ff" stroke="#543b78" d="M72.222 18.889V30h11.111l5.556-5.556v-11.11H77.778z" stroke-width="2"/><path fill="#ddd7ff" stroke="#543b78" d="M72.222 18.889h11.111V30M83.333 18.889l5.556-5.556M72.222 7.778v11.11h11.111l5.556-5.555V2.223H77.778z" stroke-width="2"/><path fill="#ddd7ff" stroke="#543b78" d="M72.222 7.778h11.111v11.11M83.333 7.778l5.556-5.556" stroke-width="2"/><path fill="#ffbde0" stroke="#9e034e" d="M94.444 107.778v11.111h11.112l5.555-5.556v-11.111H100z" stroke-width="2"/><path fill="#ffbde0" stroke="#9e034e" d="M94.444 107.778h11.112v11.111M105.556 107.778l5.555-5.556" stroke-width="2"/><path fill="#ffbde0" stroke="#9e034e" d="M94.444 96.667v11.111h11.112l5.555-5.556v-11.11H100z" stroke-width="2"/><path fill="#ffbde0" stroke="#9e034e" d="M94.444 96.667h11.112v11.111M105.556 96.667l5.555-5.556M94.444 85.556v11.11h11.112l5.555-5.555V80H100z" stroke-width="2"/><path fill="#ffbde0" stroke="#9e034e" d="M94.444 85.556h11.112v11.11M105.556 85.556L111.111 80" stroke-width="2"/><path fill="#ffbde0" stroke="#9e034e" d="M94.444 74.444v11.112h11.112L111.111 80V68.889H100z" stroke-width="2"/><path fill="#ffbde0" stroke="#9e034e" d="M94.444 74.444h11.112v11.112M105.556 74.444l5.555-5.555" stroke-width="2"/><path fill="#ffbde0" stroke="#9e034e" d="M94.444 63.333v11.111h11.112l5.555-5.555V57.778H100z" stroke-width="2"/><path fill="#ffbde0" stroke="#9e034e" d="M94.444 63.333h11.112v11.111M105.556 63.333l5.555-5.555" stroke-width="2"/><path fill="#ffbde0" stroke="#9e034e" d="M94.444 52.222v11.111h11.112l5.555-5.555V46.667H100z" stroke-width="2"/><path fill="#ffbde0" stroke="#9e034e" d="M94.444 52.222h11.112v11.111M105.556 52.222l5.555-5.555M94.444 41.111v11.111h11.112l5.555-5.555V35.556H100z" stroke-width="2"/><path fill="#ffbde0" stroke="#9e034e" d="M94.444 41.111h11.112v11.111M105.556 41.111l5.555-5.555" stroke-width="2"/><path fill="#ffbde0" stroke="#9e034e" d="M94.444 30v11.111h11.112l5.555-5.555V24.444H100z" stroke-width="2"/><path fill="#ffbde0" stroke="#9e034e" d="M94.444 30h11.112v11.111M105.556 30l5.555-5.556" stroke-width="2"/><path fill="#ffbde0" stroke="#9e034e" d="M94.444 18.889V30h11.112l5.555-5.556v-11.11H100z" stroke-width="2"/><path fill="#ffbde0" stroke="#9e034e" d="M94.444 18.889h11.112V30M105.556 18.889l5.555-5.556M94.444 7.778v11.11h11.112l5.555-5.555V2.223H100z" stroke-width="2"/><path fill="#ffbde0" stroke="#9e034e" d="M94.444 7.778h11.112v11.11M105.556 7.778l5.555-5.556M116.667 107.778v11.111h11.111l5.555-5.556v-11.111h-11.111z" stroke-width="2"/><path fill="#ffbde0" stroke="#9e034e" d="M116.667 107.778h11.111v11.111M127.778 107.778l5.555-5.556" stroke-width="2"/><path fill="#ffbde0" stroke="#9e034e" d="M116.667 96.667v11.111h11.111l5.555-5.556v-11.11h-11.111z" stroke-width="2"/><path fill="#ffbde0" stroke="#9e034e" d="M116.667 96.667h11.111v11.111M127.778 96.667l5.555-5.556M116.667 85.556v11.11h11.111l5.555-5.555V80h-11.111z" stroke-width="2"/><path fill="#ffbde0" stroke="#9e034e" d="M116.667 85.556h11.111v11.11M127.778 85.556L133.333 80" stroke-width="2"/><path fill="#ffbde0" stroke="#9e034e" d="M116.667 74.444v11.112h11.111L133.333 80V68.889h-11.111z" stroke-width="2"/><path fill="#ffbde0" stroke="#9e034e" d="M116.667 74.444h11.111v11.112M127.778 74.444l5.555-5.555" stroke-width="2"/><path fill="#ffbde0" stroke="#9e034e" d="M116.667 63.333v11.111h11.111l5.555-5.555V57.778h-11.111z" stroke-width="2"/><path fill="#ffbde0" stroke="#9e034e" d="M116.667 63.333h11.111v11.111M127.778 63.333l5.555-5.555" stroke-width="2"/><path fill="#ffbde0" stroke="#9e034e" d="M116.667 52.222v11.111h11.111l5.555-5.555V46.667h-11.111z" stroke-width="2"/><path fill="#ffbde0" stroke="#9e034e" d="M116.667 52.222h11.111v11.111M127.778 52.222l5.555-5.555M116.667 41.111v11.111h11.111l5.555-5.555V35.556h-11.111z" stroke-width="2"/><path fill="#ffbde0" stroke="#9e034e" d="M116.667 41.111h11.111v11.111M127.778 41.111l5.555-5.555" stroke-width="2"/><path fill="#ffbde0" stroke="#9e034e" d="M116.667 30v11.111h11.111l5.555-5.555V24.444h-11.111z" stroke-width="2"/><path fill="#ffbde0" stroke="#9e034e" d="M116.667 30h11.111v11.111M127.778 30l5.555-5.556" stroke-width="2"/><path fill="#ffbde0" stroke="#9e034e" d="M116.667 18.889V30h11.111l5.555-5.556v-11.11h-11.111z" stroke-width="2"/><path fill="#ffbde0" stroke="#9e034e" d="M116.667 18.889h11.111V30M127.778 18.889l5.555-5.556M116.667 7.778v11.11h11.111l5.555-5.555V2.223h-11.111z" stroke-width="2"/><path fill="#ffbde0" stroke="#9e034e" d="M116.667 7.778h11.111v11.11M127.778 7.778l5.555-5.556M138.889 107.778v11.111H150l5.556-5.556v-11.111h-11.112z" stroke-width="2"/><path fill="#ffbde0" stroke="#9e034e" d="M138.889 107.778H150v11.111M150 107.778l5.556-5.556" stroke-width="2"/><path fill="#ffbde0" stroke="#9e034e" d="M138.889 96.667v11.111H150l5.556-5.556v-11.11h-11.112z" stroke-width="2"/><path fill="#ffbde0" stroke="#9e034e" d="M138.889 96.667H150v11.111M150 96.667l5.556-5.556M138.889 85.556v11.11H150l5.556-5.555V80h-11.112z" stroke-width="2"/><path fill="#ffbde0" stroke="#9e034e" d="M138.889 85.556H150v11.11M150 85.556L155.556 80" stroke-width="2"/><path fill="#ffbde0" stroke="#9e034e" d="M138.889 74.444v11.112H150L155.556 80V68.889h-11.112z" stroke-width="2"/><path fill="#ffbde0" stroke="#9e034e" d="M138.889 74.444H150v11.112M150 74.444l5.556-5.555" stroke-width="2"/><path fill="#ffbde0" stroke="#9e034e" d="M138.889 63.333v11.111H150l5.556-5.555V57.778h-11.112z" stroke-width="2"/><path fill="#ffbde0" stroke="#9e034e" d="M138.889 63.333H150v11.111M150 63.333l5.556-5.555" stroke-width="2"/><path fill="#ffbde0" stroke="#9e034e" d="M138.889 52.222v11.111H150l5.556-5.555V46.667h-11.112z" stroke-width="2"/><path fill="#ffbde0" stroke="#9e034e" d="M138.889 52.222H150v11.111M150 52.222l5.556-5.555M138.889 41.111v11.111H150l5.556-5.555V35.556h-11.112z" stroke-width="2"/><path fill="#ffbde0" stroke="#9e034e" d="M138.889 41.111H150v11.111M150 41.111l5.556-5.555" stroke-width="2"/><path fill="#ffbde0" stroke="#9e034e" d="M138.889 30v11.111H150l5.556-5.555V24.444h-11.112z" stroke-width="2"/><path fill="#ffbde0" stroke="#9e034e" d="M138.889 30H150v11.111M150 30l5.556-5.556" stroke-width="2"/><path fill="#ffbde0" stroke="#9e034e" d="M138.889 18.889V30H150l5.556-5.556v-11.11h-11.112z" stroke-width="2"/><path fill="#ffbde0" stroke="#9e034e" d="M138.889 18.889H150V30M150 18.889l5.556-5.556M138.889 7.778v11.11H150l5.556-5.555V2.223h-11.112z" stroke-width="2"/><path fill="#ffbde0" stroke="#9e034e" d="M138.889 7.778H150v11.11M150 7.778l5.556-5.556" stroke-width="2"/><path fill="#ddd7ff" stroke="#543b78" d="M161.111 107.778v11.111h11.111l5.556-5.556v-11.111h-11.111z" stroke-width="2"/><path fill="#ddd7ff" stroke="#543b78" d="M161.111 107.778h11.111v11.111M172.222 107.778l5.556-5.556" stroke-width="2"/><path fill="#ddd7ff" stroke="#543b78" d="M161.111 96.667v11.111h11.111l5.556-5.556v-11.11h-11.111z" stroke-width="2"/><path fill="#ddd7ff" stroke="#543b78" d="M161.111 96.667h11.111v11.111M172.222 96.667l5.556-5.556M161.111 85.556v11.11h11.111l5.556-5.555V80h-11.111z" stroke-width="2"/><path fill="#ddd7ff" stroke="#543b78" d="M161.111 85.556h11.111v11.11M172.222 85.556L177.778 80" stroke-width="2"/><path fill="#ddd7ff" stroke="#543b78" d="M161.111 74.444v11.112h11.111L177.778 80V68.889h-11.111z" stroke-width="2"/><path fill="#ddd7ff" stroke="#543b78" d="M161.111 74.444h11.111v11.112M172.222 74.444l5.556-5.555" stroke-width="2"/><path fill="#ddd7ff" stroke="#543b78" d="M161.111 63.333v11.111h11.111l5.556-5.555V57.778h-11.111z" stroke-width="2"/><path fill="#ddd7ff" stroke="#543b78" d="M161.111 63.333h11.111v11.111M172.222 63.333l5.556-5.555" stroke-width="2"/><path fill="#ffbde0" stroke="#9e034e" d="M161.111 52.222v11.111h11.111l5.556-5.555V46.667h-11.111z" stroke-width="2"/><path fill="#ffbde0" stroke="#9e034e" d="M161.111 52.222h11.111v11.111M172.222 52.222l5.556-5.555M161.111 41.111v11.111h11.111l5.556-5.555V35.556h-11.111z" stroke-width="2"/><path fill="#ffbde0" stroke="#9e034e" d="M161.111 41.111h11.111v11.111M172.222 41.111l5.556-5.555" stroke-width="2"/><path fill="#ffbde0" stroke="#9e034e" d="M161.111 30v11.111h11.111l5.556-5.555V24.444h-11.111z" stroke-width="2"/><path fill="#ffbde0" stroke="#9e034e" d="M161.111 30h11.111v11.111M172.222 30l5.556-5.556" stroke-width="2"/><path fill="#ffbde0" stroke="#9e034e" d="M161.111 18.889V30h11.111l5.556-5.556v-11.11h-11.111z" stroke-width="2"/><path fill="#ffbde0" stroke="#9e034e" d="M161.111 18.889h11.111V30M172.222 18.889l5.556-5.556M161.111 7.778v11.11h11.111l5.556-5.555V2.223h-11.111z" stroke-width="2"/><path fill="#ffbde0" stroke="#9e034e" d="M161.111 7.778h11.111v11.11M172.222 7.778l5.556-5.556M183.333 107.778v11.111h11.111l5.556-5.556v-11.111h-11.111z" stroke-width="2"/><path fill="#ffbde0" stroke="#9e034e" d="M183.333 107.778h11.111v11.111M194.444 107.778l5.556-5.556" stroke-width="2"/></svg>
