<svg xmlns="http://www.w3.org/2000/svg" width="221.455" height="120" viewBox="0 0 221.45454545454544 120.00000000000001"><path fill="#ddd7ff" stroke="#543b78" d="M4.364 105.818v10.909h10.909l5.454-5.454v-10.909H9.818z" stroke-width="2"/><path fill="#ddd7ff" stroke="#543b78" d="M4.364 105.818h10.909v10.909M15.273 105.818l5.454-5.454" stroke-width="2"/><path fill="#ddd7ff" stroke="#543b78" d="M4.364 94.91v10.908h10.909l5.454-5.454v-10.91H9.818z" stroke-width="2"/><path fill="#ddd7ff" stroke="#543b78" d="M4.364 94.91h10.909v10.908M15.273 94.91l5.454-5.456" stroke-width="2"/><path fill="#ddd7ff" stroke="#543b78" d="M4.364 84v10.91h10.909l5.454-5.456V78.546H9.818z" stroke-width="2"/><path fill="#ddd7ff" stroke="#543b78" d="M4.364 84h10.909v10.91M15.273 84l5.454-5.454" stroke-width="2"/><path fill="#ddd7ff" stroke="#543b78" d="M4.364 73.09V84h10.909l5.454-5.454v-10.91H9.818z" stroke-width="2"/><path fill="#ddd7ff" stroke="#543b78" d="M4.364 73.09h10.909V84M15.273 73.09l5.454-5.454" stroke-width="2"/><path fill="#ddd7ff" stroke="#543b78" d="M4.364 62.182V73.09h10.909l5.454-5.455V56.727H9.818z" stroke-width="2"/><path fill="#ddd7ff" stroke="#543b78" d="M4.364 62.182h10.909V73.09M15.273 62.182l5.454-5.455" stroke-width="2"/><path fill="#ddd7ff" stroke="#543b78" d="M4.364 51.273v10.909h10.909l5.454-5.455V45.818H9.818z" stroke-width="2"/><path fill="#ddd7ff" stroke="#543b78" d="M4.364 51.273h10.909v10.909M15.273 51.273l5.454-5.455M4.364 40.364v10.909h10.909l5.454-5.455V34.91H9.818z" stroke-width="2"/><path fill="#ddd7ff" stroke="#543b78" d="M4.364 40.364h10.909v10.909M15.273 40.364l5.454-5.455" stroke-width="2"/><path fill="#ddd7ff" stroke="#543b78" d="M4.364 29.454v10.91h10.909l5.454-5.455V24H9.818z" stroke-width="2"/><path fill="#ddd7ff" stroke="#543b78" d="M4.364 29.454h10.909v10.91M15.273 29.454L20.727 24" stroke-width="2"/><path fill="#ddd7ff" stroke="#543b78" d="M4.364 18.546v10.909h10.909L20.727 24V13.09H9.818z" stroke-width="2"/><path fill="#ddd7ff" stroke="#543b78" d="M4.364 18.546h10.909v10.909M15.273 18.546l5.454-5.455" stroke-width="2"/><path fill="#ddd7ff" stroke="#543b78" d="M4.364 7.636v10.91h10.909l5.454-5.455V2.18H9.818z" stroke-width="2"/><path fill="#ddd7ff" stroke="#543b78" d="M4.364 7.636h10.909v10.91M15.273 7.636l5.454-5.454M26.182 105.818v10.909H37.09l5.454-5.454v-10.909H31.636z" stroke-width="2"/><path fill="#ddd7ff" stroke="#543b78" d="M26.182 105.818H37.09v10.909M37.09 105.818l5.455-5.454" stroke-width="2"/><path fill="#ddd7ff" stroke="#543b78" d="M26.182 94.91v10.908H37.09l5.454-5.454v-10.91H31.636z" stroke-width="2"/><path fill="#ddd7ff" stroke="#543b78" d="M26.182 94.91H37.09v10.908M37.09 94.91l5.455-5.456" stroke-width="2"/><path fill="#ddd7ff" stroke="#543b78" d="M26.182 84v10.91H37.09l5.454-5.456V78.546H31.636z" stroke-width="2"/><path fill="#ddd7ff" stroke="#543b78" d="M26.182 84H37.09v10.91M37.09 84l5.455-5.454" stroke-width="2"/><path fill="#ddd7ff" stroke="#543b78" d="M26.182 73.09V84H37.09l5.454-5.454v-10.91H31.636z" stroke-width="2"/><path fill="#ddd7ff" stroke="#543b78" d="M26.182 73.09H37.09V84M37.09 73.09l5.455-5.454" stroke-width="2"/><path fill="#ddd7ff" stroke="#543b78" d="M26.182 62.182V73.09H37.09l5.454-5.455V56.727H31.636z" stroke-width="2"/><path fill="#ddd7ff" stroke="#543b78" d="M26.182 62.182H37.09V73.09M37.09 62.182l5.455-5.455" stroke-width="2"/><path fill="#ddd7ff" stroke="#543b78" d="M26.182 51.273v10.909H37.09l5.454-5.455V45.818H31.636z" stroke-width="2"/><path fill="#ddd7ff" stroke="#543b78" d="M26.182 51.273H37.09v10.909M37.09 51.273l5.455-5.455M26.182 40.364v10.909H37.09l5.454-5.455V34.91H31.636z" stroke-width="2"/><path fill="#ddd7ff" stroke="#543b78" d="M26.182 40.364H37.09v10.909M37.09 40.364l5.455-5.455" stroke-width="2"/><path fill="#ddd7ff" stroke="#543b78" d="M26.182 29.454v10.91H37.09l5.454-5.455V24H31.636z" stroke-width="2"/><path fill="#ddd7ff" stroke="#543b78" d="M26.182 29.454H37.09v10.91M37.09 29.454L42.546 24" stroke-width="2"/><path fill="#ddd7ff" stroke="#543b78" d="M26.182 18.546v10.909H37.09L42.545 24V13.09H31.636z" stroke-width="2"/><path fill="#ddd7ff" stroke="#543b78" d="M26.182 18.546H37.09v10.909M37.09 18.546l5.455-5.455" stroke-width="2"/><path fill="#ddd7ff" stroke="#543b78" d="M26.182 7.636v10.91H37.09l5.454-5.455V2.18H31.636z" stroke-width="2"/><path fill="#ddd7ff" stroke="#543b78" d="M26.182 7.636H37.09v10.91M37.09 7.636l5.455-5.454M48 105.818v10.909h10.91l5.454-5.454v-10.909h-10.91z" stroke-width="2"/><path fill="#ddd7ff" stroke="#543b78" d="M48 105.818h10.91v10.909M58.91 105.818l5.454-5.454" stroke-width="2"/><path fill="#ddd7ff" stroke="#543b78" d="M48 94.91v10.908h10.91l5.454-5.454v-10.91h-10.91z" stroke-width="2"/><path fill="#ddd7ff" stroke="#543b78" d="M48 94.91h10.91v10.908M58.91 94.91l5.454-5.456" stroke-width="2"/><path fill="#ddd7ff" stroke="#543b78" d="M48 84v10.91h10.91l5.454-5.456V78.546h-10.91z" stroke-width="2"/><path fill="#ddd7ff" stroke="#543b78" d="M48 84h10.91v10.91M58.91 84l5.454-5.454" stroke-width="2"/><path fill="#ddd7ff" stroke="#543b78" d="M48 73.09V84h10.91l5.454-5.454v-10.91h-10.91z" stroke-width="2"/><path fill="#ddd7ff" stroke="#543b78" d="M48 73.09h10.91V84M58.91 73.09l5.454-5.454" stroke-width="2"/><path fill="#ddd7ff" stroke="#543b78" d="M48 62.182V73.09h10.91l5.454-5.455V56.727h-10.91z" stroke-width="2"/><path fill="#ddd7ff" stroke="#543b78" d="M48 62.182h10.91V73.09M58.91 62.182l5.454-5.455" stroke-width="2"/><path fill="#ddd7ff" stroke="#543b78" d="M48 51.273v10.909h10.91l5.454-5.455V45.818h-10.91z" stroke-width="2"/><path fill="#ddd7ff" stroke="#543b78" d="M48 51.273h10.91v10.909M58.91 51.273l5.454-5.455M48 40.364v10.909h10.91l5.454-5.455V34.91h-10.91z" stroke-width="2"/><path fill="#ddd7ff" stroke="#543b78" d="M48 40.364h10.91v10.909M58.91 40.364l5.454-5.455" stroke-width="2"/><path fill="#ddd7ff" stroke="#543b78" d="M48 29.454v10.91h10.91l5.454-5.455V24h-10.91z" stroke-width="2"/><path fill="#ddd7ff" stroke="#543b78" d="M48 29.454h10.91v10.91M58.91 29.454L64.363 24" stroke-width="2"/><path fill="#ddd7ff" stroke="#543b78" d="M48 18.546v10.909h10.91L64.363 24V13.09h-10.91z" stroke-width="2"/><path fill="#ddd7ff" stroke="#543b78" d="M48 18.546h10.91v10.909M58.91 18.546l5.454-5.455" stroke-width="2"/><path fill="#ddd7ff" stroke="#543b78" d="M48 7.636v10.91h10.91l5.454-5.455V2.18h-10.91z" stroke-width="2"/><path fill="#ddd7ff" stroke="#543b78" d="M48 7.636h10.91v10.91M58.91 7.636l5.454-5.454M69.818 105.818v10.909h10.91l5.454-5.454v-10.909h-10.91z" stroke-width="2"/><path fill="#ddd7ff" stroke="#543b78" d="M69.818 105.818h10.91v10.909M80.727 105.818l5.455-5.454" stroke-width="2"/><path fill="#ddd7ff" stroke="#543b78" d="M69.818 94.91v10.908h10.91l5.454-5.454v-10.91h-10.91z" stroke-width="2"/><path fill="#ddd7ff" stroke="#543b78" d="M69.818 94.91h10.91v10.908M80.727 94.91l5.455-5.456" stroke-width="2"/><path fill="#ddd7ff" stroke="#543b78" d="M69.818 84v10.91h10.91l5.454-5.456V78.546h-10.91z" stroke-width="2"/><path fill="#ddd7ff" stroke="#543b78" d="M69.818 84h10.91v10.91M80.727 84l5.455-5.454" stroke-width="2"/><path fill="#ddd7ff" stroke="#543b78" d="M69.818 73.09V84h10.91l5.454-5.454v-10.91h-10.91z" stroke-width="2"/><path fill="#ddd7ff" stroke="#543b78" d="M69.818 73.09h10.91V84M80.727 73.09l5.455-5.454" stroke-width="2"/><path fill="#ddd7ff" stroke="#543b78" d="M69.818 62.182V73.09h10.91l5.454-5.455V56.727h-10.91z" stroke-width="2"/><path fill="#ddd7ff" stroke="#543b78" d="M69.818 62.182h10.91V73.09M80.727 62.182l5.455-5.455" stroke-width="2"/><path fill="#ddd7ff" stroke="#543b78" d="M69.818 51.273v10.909h10.91l5.454-5.455V45.818h-10.91z" stroke-width="2"/><path fill="#ddd7ff" stroke="#543b78" d="M69.818 51.273h10.91v10.909M80.727 51.273l5.455-5.455M69.818 40.364v10.909h10.91l5.454-5.455V34.91h-10.91z" stroke-width="2"/><path fill="#ddd7ff" stroke="#543b78" d="M69.818 40.364h10.91v10.909M80.727 40.364l5.455-5.455" stroke-width="2"/><path fill="#ddd7ff" stroke="#543b78" d="M69.818 29.454v10.91h10.91l5.454-5.455V24h-10.91z" stroke-width="2"/><path fill="#ddd7ff" stroke="#543b78" d="M69.818 29.454h10.91v10.91M80.727 29.454L86.182 24" stroke-width="2"/><path fill="#ddd7ff" stroke="#543b78" d="M69.818 18.546v10.909h10.91L86.181 24V13.09h-10.91z" stroke-width="2"/><path fill="#ddd7ff" stroke="#543b78" d="M69.818 18.546h10.91v10.909M80.727 18.546l5.455-5.455" stroke-width="2"/><path fill="#ddd7ff" stroke="#543b78" d="M69.818 7.636v10.91h10.91l5.454-5.455V2.18h-10.91z" stroke-width="2"/><path fill="#ddd7ff" stroke="#543b78" d="M69.818 7.636h10.91v10.91M80.727 7.636l5.455-5.454M91.636 105.818v10.909h10.909l5.455-5.454v-10.909H97.09z" stroke-width="2"/><path fill="#ddd7ff" stroke="#543b78" d="M91.636 105.818h10.909v10.909M102.545 105.818l5.455-5.454" stroke-width="2"/><path fill="#ddd7ff" stroke="#543b78" d="M91.636 94.91v10.908h10.909l5.455-5.454v-10.91H97.09z" stroke-width="2"/><path fill="#ddd7ff" stroke="#543b78" d="M91.636 94.91h10.909v10.908M102.545 94.91L108 89.453" stroke-width="2"/><path fill="#ddd7ff" stroke="#543b78" d="M91.636 84v10.91h10.909L108 89.453V78.546H97.09z" stroke-width="2"/><path fill="#ddd7ff" stroke="#543b78" d="M91.636 84h10.909v10.91M102.545 84L108 78.546" stroke-width="2"/><path fill="#ddd7ff" stroke="#543b78" d="M91.636 73.09V84h10.909L108 78.546v-10.91H97.09z" stroke-width="2"/><path fill="#ddd7ff" stroke="#543b78" d="M91.636 73.09h10.909V84M102.545 73.09L108 67.637" stroke-width="2"/><path fill="#ddd7ff" stroke="#543b78" d="M91.636 62.182V73.09h10.909L108 67.636V56.727H97.09z" stroke-width="2"/><path fill="#ddd7ff" stroke="#543b78" d="M91.636 62.182h10.909V73.09M102.545 62.182L108 56.727" stroke-width="2"/><path fill="#ddd7ff" stroke="#543b78" d="M91.636 51.273v10.909h10.909L108 56.727V45.818H97.09z" stroke-width="2"/><path fill="#ddd7ff" stroke="#543b78" d="M91.636 51.273h10.909v10.909M102.545 51.273L108 45.818M91.636 40.364v10.909h10.909L108 45.818V34.91H97.09z" stroke-width="2"/><path fill="#ddd7ff" stroke="#543b78" d="M91.636 40.364h10.909v10.909M102.545 40.364L108 34.909" stroke-width="2"/><path fill="#ddd7ff" stroke="#543b78" d="M91.636 29.454v10.91h10.909L108 34.909V24H97.09z" stroke-width="2"/><path fill="#ddd7ff" stroke="#543b78" d="M91.636 29.454h10.909v10.91M102.545 29.454L108 24" stroke-width="2"/><path fill="#ddd7ff" stroke="#543b78" d="M91.636 18.546v10.909h10.909L108 24V13.09H97.09z" stroke-width="2"/><path fill="#ddd7ff" stroke="#543b78" d="M91.636 18.546h10.909v10.909M102.545 18.546L108 13.09" stroke-width="2"/><path fill="#ddd7ff" stroke="#543b78" d="M91.636 7.636v10.91h10.909L108 13.09V2.18H97.09z" stroke-width="2"/><path fill="#ddd7ff" stroke="#543b78" d="M91.636 7.636h10.909v10.91M102.545 7.636L108 2.182M113.455 105.818v10.909h10.909l5.454-5.454v-10.909h-10.909z" stroke-width="2"/><path fill="#ddd7ff" stroke="#543b78" d="M113.455 105.818h10.909v10.909M124.364 105.818l5.454-5.454" stroke-width="2"/><path fill="#ddd7ff" stroke="#543b78" d="M113.455 94.91v10.908h10.909l5.454-5.454v-10.91h-10.909z" stroke-width="2"/><path fill="#ddd7ff" stroke="#543b78" d="M113.455 94.91h10.909v10.908M124.364 94.91l5.454-5.456" stroke-width="2"/><path fill="#ddd7ff" stroke="#543b78" d="M113.455 84v10.91h10.909l5.454-5.456V78.546h-10.909z" stroke-width="2"/><path fill="#ddd7ff" stroke="#543b78" d="M113.455 84h10.909v10.91M124.364 84l5.454-5.454" stroke-width="2"/><path fill="#ddd7ff" stroke="#543b78" d="M113.455 73.09V84h10.909l5.454-5.454v-10.91h-10.909z" stroke-width="2"/><path fill="#ddd7ff" stroke="#543b78" d="M113.455 73.09h10.909V84M124.364 73.09l5.454-5.454" stroke-width="2"/><path fill="#ddd7ff" stroke="#543b78" d="M113.455 62.182V73.09h10.909l5.454-5.455V56.727h-10.909z" stroke-width="2"/><path fill="#ddd7ff" stroke="#543b78" d="M113.455 62.182h10.909V73.09M124.364 62.182l5.454-5.455" stroke-width="2"/><path fill="#ddd7ff" stroke="#543b78" d="M113.455 51.273v10.909h10.909l5.454-5.455V45.818h-10.909z" stroke-width="2"/><path fill="#ddd7ff" stroke="#543b78" d="M113.455 51.273h10.909v10.909M124.364 51.273l5.454-5.455M113.455 40.364v10.909h10.909l5.454-5.455V34.91h-10.909z" stroke-width="2"/><path fill="#ddd7ff" stroke="#543b78" d="M113.455 40.364h10.909v10.909M124.364 40.364l5.454-5.455" stroke-width="2"/><path fill="#ddd7ff" stroke="#543b78" d="M113.455 29.454v10.91h10.909l5.454-5.455V24h-10.909z" stroke-width="2"/><path fill="#ddd7ff" stroke="#543b78" d="M113.455 29.454h10.909v10.91M124.364 29.454L129.818 24" stroke-width="2"/><path fill="#ddd7ff" stroke="#543b78" d="M113.455 18.546v10.909h10.909L129.818 24V13.09h-10.909z" stroke-width="2"/><path fill="#ddd7ff" stroke="#543b78" d="M113.455 18.546h10.909v10.909M124.364 18.546l5.454-5.455" stroke-width="2"/><path fill="#ddd7ff" stroke="#543b78" d="M113.455 7.636v10.91h10.909l5.454-5.455V2.18h-10.909z" stroke-width="2"/><path fill="#ddd7ff" stroke="#543b78" d="M113.455 7.636h10.909v10.91M124.364 7.636l5.454-5.454M135.273 105.818v10.909h10.909l5.454-5.454v-10.909h-10.909z" stroke-width="2"/><path fill="#ddd7ff" stroke="#543b78" d="M135.273 105.818h10.909v10.909M146.182 105.818l5.454-5.454" stroke-width="2"/><path fill="#ddd7ff" stroke="#543b78" d="M135.273 94.91v10.908h10.909l5.454-5.454v-10.91h-10.909z" stroke-width="2"/><path fill="#ddd7ff" stroke="#543b78" d="M135.273 94.91h10.909v10.908M146.182 94.91l5.454-5.456" stroke-width="2"/><path fill="#ddd7ff" stroke="#543b78" d="M135.273 84v10.91h10.909l5.454-5.456V78.546h-10.909z" stroke-width="2"/><path fill="#ddd7ff" stroke="#543b78" d="M135.273 84h10.909v10.91M146.182 84l5.454-5.454" stroke-width="2"/><path fill="#ddd7ff" stroke="#543b78" d="M135.273 73.09V84h10.909l5.454-5.454v-10.91h-10.909z" stroke-width="2"/><path fill="#ddd7ff" stroke="#543b78" d="M135.273 73.09h10.909V84M146.182 73.09l5.454-5.454" stroke-width="2"/><path fill="#ddd7ff" stroke="#543b78" d="M135.273 62.182V73.09h10.909l5.454-5.455V56.727h-10.909z" stroke-width="2"/><path fill="#ddd7ff" stroke="#543b78" d="M135.273 62.182h10.909V73.09M146.182 62.182l5.454-5.455" stroke-width="2"/><path fill="#ddd7ff" stroke="#543b78" d="M135.273 51.273v10.909h10.909l5.454-5.455V45.818h-10.909z" stroke-width="2"/><path fill="#ddd7ff" stroke="#543b78" d="M135.273 51.273h10.909v10.909M146.182 51.273l5.454-5.455M135.273 40.364v10.909h10.909l5.454-5.455V34.91h-10.909z" stroke-width="2"/><path fill="#ddd7ff" stroke="#543b78" d="M135.273 40.364h10.909v10.909M146.182 40.364l5.454-5.455" stroke-width="2"/><path fill="#ddd7ff" stroke="#543b78" d="M135.273 29.454v10.91h10.909l5.454-5.455V24h-10.909z" stroke-width="2"/><path fill="#ddd7ff" stroke="#543b78" d="M135.273 29.454h10.909v10.91M146.182 29.454L151.636 24" stroke-width="2"/><path fill="#ddd7ff" stroke="#543b78" d="M135.273 18.546v10.909h10.909L151.636 24V13.09h-10.909z" stroke-width="2"/><path fill="#ddd7ff" stroke="#543b78" d="M135.273 18.546h10.909v10.909M146.182 18.546l5.454-5.455" stroke-width="2"/><path fill="#ddd7ff" stroke="#543b78" d="M135.273 7.636v10.91h10.909l5.454-5.455V2.18h-10.909z" stroke-width="2"/><path fill="#ddd7ff" stroke="#543b78" d="M135.273 7.636h10.909v10.91M146.182 7.636l5.454-5.454M157.091 105.818v10.909H168l5.455-5.454v-10.909h-10.91z" stroke-width="2"/><path fill="#ddd7ff" stroke="#543b78" d="M157.091 105.818H168v10.909M168 105.818l5.455-5.454" stroke-width="2"/><path fill="#ddd7ff" stroke="#543b78" d="M157.091 94.91v10.908H168l5.455-5.454v-10.91h-10.91z" stroke-width="2"/><path fill="#ddd7ff" stroke="#543b78" d="M157.091 94.91H168v10.908M168 94.91l5.455-5.456" stroke-width="2"/><path fill="#ddd7ff" stroke="#543b78" d="M157.091 84v10.91H168l5.455-5.456V78.546h-10.91z" stroke-width="2"/><path fill="#ddd7ff" stroke="#543b78" d="M157.091 84H168v10.91M168 84l5.455-5.454" stroke-width="2"/><path fill="#ddd7ff" stroke="#543b78" d="M157.091 73.09V84H168l5.455-5.454v-10.91h-10.91z" stroke-width="2"/><path fill="#ddd7ff" stroke="#543b78" d="M157.091 73.09H168V84M168 73.09l5.455-5.454" stroke-width="2"/><path fill="#ddd7ff" stroke="#543b78" d="M157.091 62.182V73.09H168l5.455-5.455V56.727h-10.91z" stroke-width="2"/><path fill="#ddd7ff" stroke="#543b78" d="M157.091 62.182H168V73.09M168 62.182l5.455-5.455" stroke-width="2"/><path fill="#ddd7ff" stroke="#543b78" d="M157.091 51.273v10.909H168l5.455-5.455V45.818h-10.91z" stroke-width="2"/><path fill="#ddd7ff" stroke="#543b78" d="M157.091 51.273H168v10.909M168 51.273l5.455-5.455M157.091 40.364v10.909H168l5.455-5.455V34.91h-10.91z" stroke-width="2"/><path fill="#ddd7ff" stroke="#543b78" d="M157.091 40.364H168v10.909M168 40.364l5.455-5.455" stroke-width="2"/><path fill="#ddd7ff" stroke="#543b78" d="M157.091 29.454v10.91H168l5.455-5.455V24h-10.91z" stroke-width="2"/><path fill="#ddd7ff" stroke="#543b78" d="M157.091 29.454H168v10.91M168 29.454L173.455 24" stroke-width="2"/><path fill="#ddd7ff" stroke="#543b78" d="M157.091 18.546v10.909H168L173.455 24V13.09h-10.91z" stroke-width="2"/><path fill="#ddd7ff" stroke="#543b78" d="M157.091 18.546H168v10.909M168 18.546l5.455-5.455" stroke-width="2"/><path fill="#ddd7ff" stroke="#543b78" d="M157.091 7.636v10.91H168l5.455-5.455V2.18h-10.91z" stroke-width="2"/><path fill="#ddd7ff" stroke="#543b78" d="M157.091 7.636H168v10.91M168 7.636l5.455-5.454M178.909 105.818v10.909h10.909l5.455-5.454v-10.909h-10.909z" stroke-width="2"/><path fill="#ddd7ff" stroke="#543b78" d="M178.909 105.818h10.909v10.909M189.818 105.818l5.455-5.454" stroke-width="2"/><path fill="#ddd7ff" stroke="#543b78" d="M178.909 94.91v10.908h10.909l5.455-5.454v-10.91h-10.909z" stroke-width="2"/><path fill="#ddd7ff" stroke="#543b78" d="M178.909 94.91h10.909v10.908M189.818 94.91l5.455-5.456" stroke-width="2"/><path fill="#ddd7ff" stroke="#543b78" d="M178.909 84v10.91h10.909l5.455-5.456V78.546h-10.909z" stroke-width="2"/><path fill="#ddd7ff" stroke="#543b78" d="M178.909 84h10.909v10.91M189.818 84l5.455-5.454" stroke-width="2"/><path fill="#ddd7ff" stroke="#543b78" d="M178.909 73.09V84h10.909l5.455-5.454v-10.91h-10.909z" stroke-width="2"/><path fill="#ddd7ff" stroke="#543b78" d="M178.909 73.09h10.909V84M189.818 73.09l5.455-5.454" stroke-width="2"/><path fill="#ddd7ff" stroke="#543b78" d="M178.909 62.182V73.09h10.909l5.455-5.455V56.727h-10.909z" stroke-width="2"/><path fill="#ddd7ff" stroke="#543b78" d="M178.909 62.182h10.909V73.09M189.818 62.182l5.455-5.455" stroke-width="2"/><path fill="#ddd7ff" stroke="#543b78" d="M178.909 51.273v10.909h10.909l5.455-5.455V45.818h-10.909z" stroke-width="2"/><path fill="#ddd7ff" stroke="#543b78" d="M178.909 51.273h10.909v10.909M189.818 51.273l5.455-5.455M178.909 40.364v10.909h10.909l5.455-5.455V34.91h-10.909z" stroke-width="2"/><path fill="#ddd7ff" stroke="#543b78" d="M178.909 40.364h10.909v10.909M189.818 40.364l5.455-5.455" stroke-width="2"/><path fill="#ddd7ff" stroke="#543b78" d="M178.909 29.454v10.91h10.909l5.455-5.455V24h-10.909z" stroke-width="2"/><path fill="#ddd7ff" stroke="#543b78" d="M178.909 29.454h10.909v10.91M189.818 29.454L195.273 24" stroke-width="2"/><path fill="#ffbde0" stroke="#9e034e" d="M178.909 18.546v10.909h10.909L195.273 24V13.09h-10.909z" stroke-width="2"/><path fill="#ffbde0" stroke="#9e034e" d="M178.909 18.546h10.909v10.909M189.818 18.546l5.455-5.455" stroke-width="2"/><path fill="#ffbde0" stroke="#9e034e" d="M178.909 7.636v10.91h10.909l5.455-5.455V2.18h-10.909z" stroke-width="2"/><path fill="#ffbde0" stroke="#9e034e" d="M178.909 7.636h10.909v10.91M189.818 7.636l5.455-5.454M200.727 105.818v10.909h10.909l5.455-5.454v-10.909h-10.909z" stroke-width="2"/><path fill="#ffbde0" stroke="#9e034e" d="M200.727 105.818h10.909v10.909M211.636 105.818l5.455-5.454M200.727 84v10.91h10.909l5.455-5.456V78.546h-10.909z" stroke-width="2"/><path fill="#ffbde0" stroke="#9e034e" d="M200.727 84h10.909v10.91M211.636 84l5.455-5.454" stroke-width="2"/></svg>
