<svg xmlns="http://www.w3.org/2000/svg" width="48.889" height="120" viewBox="0 0 48.8888888888889 120"><path fill="#ffbde0" stroke="#9e034e" d="M5.556 107.778v11.111h11.11l5.556-5.556v-11.111h-11.11z" stroke-width="2"/><path fill="#ffbde0" stroke="#9e034e" d="M5.556 107.778h11.11v11.111M16.667 107.778l5.555-5.556M5.556 85.556v11.11h11.11l5.556-5.555V80h-11.11z" stroke-width="2"/><path fill="#ffbde0" stroke="#9e034e" d="M5.556 85.556h11.11v11.11M16.667 85.556L22.222 80M5.556 63.333v11.111h11.11l5.556-5.555V57.778h-11.11z" stroke-width="2"/><path fill="#ffbde0" stroke="#9e034e" d="M5.556 63.333h11.11v11.111M16.667 63.333l5.555-5.555M5.556 41.111v11.111h11.11l5.556-5.555V35.556h-11.11z" stroke-width="2"/><path fill="#ffbde0" stroke="#9e034e" d="M5.556 41.111h11.11v11.111M16.667 41.111l5.555-5.555M5.556 18.889V30h11.11l5.556-5.556v-11.11h-11.11z" stroke-width="2"/><path fill="#ffbde0" stroke="#9e034e" d="M5.556 18.889h11.11V30M16.667 18.889l5.555-5.556M27.778 107.778v11.111h11.11l5.556-5.556v-11.111h-11.11z" stroke-width="2"/><path fill="#ffbde0" stroke="#9e034e" d="M27.778 107.778h11.11v11.111M38.889 107.778l5.555-5.556M27.778 85.556v11.11h11.11l5.556-5.555V80h-11.11z" stroke-width="2"/><path fill="#ffbde0" stroke="#9e034e" d="M27.778 85.556h11.11v11.11M38.889 85.556L44.444 80" stroke-width="2"/></svg>
