<svg xmlns="http://www.w3.org/2000/svg" width="248.889" height="120" viewBox="0 0 248.8888888888889 120"><path fill="#ddd7ff" stroke="#543b78" d="M5.556 107.778v11.111h11.11l5.556-5.556v-11.111h-11.11z" stroke-width="2"/><path fill="#ddd7ff" stroke="#543b78" d="M5.556 107.778h11.11v11.111M16.667 107.778l5.555-5.556" stroke-width="2"/><path fill="#ddd7ff" stroke="#543b78" d="M5.556 96.667v11.111h11.11l5.556-5.556v-11.11h-11.11z" stroke-width="2"/><path fill="#ddd7ff" stroke="#543b78" d="M5.556 96.667h11.11v11.111M16.667 96.667l5.555-5.556M5.556 85.556v11.11h11.11l5.556-5.555V80h-11.11z" stroke-width="2"/><path fill="#ddd7ff" stroke="#543b78" d="M5.556 85.556h11.11v11.11M16.667 85.556L22.222 80" stroke-width="2"/><path fill="#ddd7ff" stroke="#543b78" d="M5.556 74.444v11.112h11.11L22.223 80V68.889h-11.11z" stroke-width="2"/><path fill="#ddd7ff" stroke="#543b78" d="M5.556 74.444h11.11v11.112M16.667 74.444l5.555-5.555" stroke-width="2"/><path fill="#ddd7ff" stroke="#543b78" d="M5.556 63.333v11.111h11.11l5.556-5.555V57.778h-11.11z" stroke-width="2"/><path fill="#ddd7ff" stroke="#543b78" d="M5.556 63.333h11.11v11.111M16.667 63.333l5.555-5.555" stroke-width="2"/><path fill="#ddd7ff" stroke="#543b78" d="M5.556 52.222v11.111h11.11l5.556-5.555V46.667h-11.11z" stroke-width="2"/><path fill="#ddd7ff" stroke="#543b78" d="M5.556 52.222h11.11v11.111M16.667 52.222l5.555-5.555M5.556 41.111v11.111h11.11l5.556-5.555V35.556h-11.11z" stroke-width="2"/><path fill="#ddd7ff" stroke="#543b78" d="M5.556 41.111h11.11v11.111M16.667 41.111l5.555-5.555" stroke-width="2"/><path fill="#ddd7ff" stroke="#543b78" d="M5.556 30v11.111h11.11l5.556-5.555V24.444h-11.11z" stroke-width="2"/><path fill="#ddd7ff" stroke="#543b78" d="M5.556 30h11.11v11.111M16.667 30l5.555-5.556" stroke-width="2"/><path fill="#ddd7ff" stroke="#543b78" d="M5.556 18.889V30h11.11l5.556-5.556v-11.11h-11.11z" stroke-width="2"/><path fill="#ddd7ff" stroke="#543b78" d="M5.556 18.889h11.11V30M16.667 18.889l5.555-5.556M5.556 7.778v11.11h11.11l5.556-5.555V2.223h-11.11z" stroke-width="2"/><path fill="#ddd7ff" stroke="#543b78" d="M5.556 7.778h11.11v11.11M16.667 7.778l5.555-5.556M27.778 107.778v11.111h11.11l5.556-5.556v-11.111h-11.11z" stroke-width="2"/><path fill="#ddd7ff" stroke="#543b78" d="M27.778 107.778h11.11v11.111M38.889 107.778l5.555-5.556" stroke-width="2"/><path fill="#ddd7ff" stroke="#543b78" d="M27.778 96.667v11.111h11.11l5.556-5.556v-11.11h-11.11z" stroke-width="2"/><path fill="#ddd7ff" stroke="#543b78" d="M27.778 96.667h11.11v11.111M38.889 96.667l5.555-5.556M27.778 85.556v11.11h11.11l5.556-5.555V80h-11.11z" stroke-width="2"/><path fill="#ddd7ff" stroke="#543b78" d="M27.778 85.556h11.11v11.11M38.889 85.556L44.444 80" stroke-width="2"/><path fill="#ddd7ff" stroke="#543b78" d="M27.778 74.444v11.112h11.11L44.445 80V68.889h-11.11z" stroke-width="2"/><path fill="#ddd7ff" stroke="#543b78" d="M27.778 74.444h11.11v11.112M38.889 74.444l5.555-5.555" stroke-width="2"/><path fill="#ddd7ff" stroke="#543b78" d="M27.778 63.333v11.111h11.11l5.556-5.555V57.778h-11.11z" stroke-width="2"/><path fill="#ddd7ff" stroke="#543b78" d="M27.778 63.333h11.11v11.111M38.889 63.333l5.555-5.555" stroke-width="2"/><path fill="#ddd7ff" stroke="#543b78" d="M27.778 52.222v11.111h11.11l5.556-5.555V46.667h-11.11z" stroke-width="2"/><path fill="#ddd7ff" stroke="#543b78" d="M27.778 52.222h11.11v11.111M38.889 52.222l5.555-5.555M27.778 41.111v11.111h11.11l5.556-5.555V35.556h-11.11z" stroke-width="2"/><path fill="#ddd7ff" stroke="#543b78" d="M27.778 41.111h11.11v11.111M38.889 41.111l5.555-5.555" stroke-width="2"/><path fill="#ddd7ff" stroke="#543b78" d="M27.778 30v11.111h11.11l5.556-5.555V24.444h-11.11z" stroke-width="2"/><path fill="#ddd7ff" stroke="#543b78" d="M27.778 30h11.11v11.111M38.889 30l5.555-5.556" stroke-width="2"/><path fill="#ddd7ff" stroke="#543b78" d="M27.778 18.889V30h11.11l5.556-5.556v-11.11h-11.11z" stroke-width="2"/><path fill="#ddd7ff" stroke="#543b78" d="M27.778 18.889h11.11V30M38.889 18.889l5.555-5.556M27.778 7.778v11.11h11.11l5.556-5.555V2.223h-11.11z" stroke-width="2"/><path fill="#ddd7ff" stroke="#543b78" d="M27.778 7.778h11.11v11.11M38.889 7.778l5.555-5.556M50 107.778v11.111h11.111l5.556-5.556v-11.111H55.556z" stroke-width="2"/><path fill="#ddd7ff" stroke="#543b78" d="M50 107.778h11.111v11.111M61.111 107.778l5.556-5.556M50 85.556v11.11h11.111l5.556-5.555V80H55.556z" stroke-width="2"/><path fill="#ddd7ff" stroke="#543b78" d="M50 85.556h11.111v11.11M61.111 85.556L66.667 80" stroke-width="2"/><path fill="#ffbde0" stroke="#9e034e" d="M94.444 107.778v11.111h11.112l5.555-5.556v-11.111H100z" stroke-width="2"/><path fill="#ffbde0" stroke="#9e034e" d="M94.444 107.778h11.112v11.111M105.556 107.778l5.555-5.556M94.444 85.556v11.11h11.112l5.555-5.555V80H100z" stroke-width="2"/><path fill="#ffbde0" stroke="#9e034e" d="M94.444 85.556h11.112v11.11M105.556 85.556L111.111 80M94.444 63.333v11.111h11.112l5.555-5.555V57.778H100z" stroke-width="2"/><path fill="#ffbde0" stroke="#9e034e" d="M94.444 63.333h11.112v11.111M105.556 63.333l5.555-5.555M94.444 41.111v11.111h11.112l5.555-5.555V35.556H100z" stroke-width="2"/><path fill="#ffbde0" stroke="#9e034e" d="M94.444 41.111h11.112v11.111M105.556 41.111l5.555-5.555M94.444 18.889V30h11.112l5.555-5.556v-11.11H100z" stroke-width="2"/><path fill="#ffbde0" stroke="#9e034e" d="M94.444 18.889h11.112V30M105.556 18.889l5.555-5.556M116.667 107.778v11.111h11.111l5.555-5.556v-11.111h-11.111z" stroke-width="2"/><path fill="#ffbde0" stroke="#9e034e" d="M116.667 107.778h11.111v11.111M127.778 107.778l5.555-5.556M116.667 85.556v11.11h11.111l5.555-5.555V80h-11.111z" stroke-width="2"/><path fill="#ffbde0" stroke="#9e034e" d="M116.667 85.556h11.111v11.11M127.778 85.556L133.333 80" stroke-width="2"/><path fill="#ddd7ff" stroke="#543b78" d="M161.111 107.778v11.111h11.111l5.556-5.556v-11.111h-11.111z" stroke-width="2"/><path fill="#ddd7ff" stroke="#543b78" d="M161.111 107.778h11.111v11.111M172.222 107.778l5.556-5.556" stroke-width="2"/><path fill="#ddd7ff" stroke="#543b78" d="M161.111 96.667v11.111h11.111l5.556-5.556v-11.11h-11.111z" stroke-width="2"/><path fill="#ddd7ff" stroke="#543b78" d="M161.111 96.667h11.111v11.111M172.222 96.667l5.556-5.556M161.111 85.556v11.11h11.111l5.556-5.555V80h-11.111z" stroke-width="2"/><path fill="#ddd7ff" stroke="#543b78" d="M161.111 85.556h11.111v11.11M172.222 85.556L177.778 80" stroke-width="2"/><path fill="#ddd7ff" stroke="#543b78" d="M161.111 74.444v11.112h11.111L177.778 80V68.889h-11.111z" stroke-width="2"/><path fill="#ddd7ff" stroke="#543b78" d="M161.111 74.444h11.111v11.112M172.222 74.444l5.556-5.555" stroke-width="2"/><path fill="#ddd7ff" stroke="#543b78" d="M161.111 63.333v11.111h11.111l5.556-5.555V57.778h-11.111z" stroke-width="2"/><path fill="#ddd7ff" stroke="#543b78" d="M161.111 63.333h11.111v11.111M172.222 63.333l5.556-5.555" stroke-width="2"/><path fill="#ddd7ff" stroke="#543b78" d="M161.111 52.222v11.111h11.111l5.556-5.555V46.667h-11.111z" stroke-width="2"/><path fill="#ddd7ff" stroke="#543b78" d="M161.111 52.222h11.111v11.111M172.222 52.222l5.556-5.555M161.111 41.111v11.111h11.111l5.556-5.555V35.556h-11.111z" stroke-width="2"/><path fill="#ddd7ff" stroke="#543b78" d="M161.111 41.111h11.111v11.111M172.222 41.111l5.556-5.555" stroke-width="2"/><path fill="#ddd7ff" stroke="#543b78" d="M161.111 30v11.111h11.111l5.556-5.555V24.444h-11.111z" stroke-width="2"/><path fill="#ddd7ff" stroke="#543b78" d="M161.111 30h11.111v11.111M172.222 30l5.556-5.556" stroke-width="2"/><path fill="#ddd7ff" stroke="#543b78" d="M161.111 18.889V30h11.111l5.556-5.556v-11.11h-11.111z" stroke-width="2"/><path fill="#ddd7ff" stroke="#543b78" d="M161.111 18.889h11.111V30M172.222 18.889l5.556-5.556M161.111 7.778v11.11h11.111l5.556-5.555V2.223h-11.111z" stroke-width="2"/><path fill="#ddd7ff" stroke="#543b78" d="M161.111 7.778h11.111v11.11M172.222 7.778l5.556-5.556M183.333 107.778v11.111h11.111l5.556-5.556v-11.111h-11.111z" stroke-width="2"/><path fill="#ddd7ff" stroke="#543b78" d="M183.333 107.778h11.111v11.111M194.444 107.778l5.556-5.556" stroke-width="2"/><path fill="#ddd7ff" stroke="#543b78" d="M183.333 96.667v11.111h11.111l5.556-5.556v-11.11h-11.111z" stroke-width="2"/><path fill="#ddd7ff" stroke="#543b78" d="M183.333 96.667h11.111v11.111M194.444 96.667L200 91.11M183.333 85.556v11.11h11.111L200 91.112V80h-11.111z" stroke-width="2"/><path fill="#ddd7ff" stroke="#543b78" d="M183.333 85.556h11.111v11.11M194.444 85.556L200 80" stroke-width="2"/><path fill="#ddd7ff" stroke="#543b78" d="M183.333 74.444v11.112h11.111L200 80V68.889h-11.111z" stroke-width="2"/><path fill="#ddd7ff" stroke="#543b78" d="M183.333 74.444h11.111v11.112M194.444 74.444L200 68.89" stroke-width="2"/><path fill="#ddd7ff" stroke="#543b78" d="M183.333 63.333v11.111h11.111L200 68.89V57.778h-11.111z" stroke-width="2"/><path fill="#ddd7ff" stroke="#543b78" d="M183.333 63.333h11.111v11.111M194.444 63.333L200 57.778" stroke-width="2"/><path fill="#ddd7ff" stroke="#543b78" d="M183.333 52.222v11.111h11.111L200 57.778V46.667h-11.111z" stroke-width="2"/><path fill="#ddd7ff" stroke="#543b78" d="M183.333 52.222h11.111v11.111M194.444 52.222L200 46.667M183.333 41.111v11.111h11.111L200 46.667V35.556h-11.111z" stroke-width="2"/><path fill="#ddd7ff" stroke="#543b78" d="M183.333 41.111h11.111v11.111M194.444 41.111L200 35.556" stroke-width="2"/><path fill="#ddd7ff" stroke="#543b78" d="M183.333 30v11.111h11.111L200 35.556V24.444h-11.111z" stroke-width="2"/><path fill="#ddd7ff" stroke="#543b78" d="M183.333 30h11.111v11.111M194.444 30L200 24.444" stroke-width="2"/><path fill="#ddd7ff" stroke="#543b78" d="M183.333 18.889V30h11.111L200 24.444v-11.11h-11.111z" stroke-width="2"/><path fill="#ddd7ff" stroke="#543b78" d="M183.333 18.889h11.111V30M194.444 18.889L200 13.333M183.333 7.778v11.11h11.111L200 13.334V2.223h-11.111z" stroke-width="2"/><path fill="#ddd7ff" stroke="#543b78" d="M183.333 7.778h11.111v11.11M194.444 7.778L200 2.222M205.556 107.778v11.111h11.111l5.555-5.556v-11.111h-11.111z" stroke-width="2"/><path fill="#ddd7ff" stroke="#543b78" d="M205.556 107.778h11.111v11.111M216.667 107.778l5.555-5.556M205.556 85.556v11.11h11.111l5.555-5.555V80h-11.111z" stroke-width="2"/><path fill="#ddd7ff" stroke="#543b78" d="M205.556 85.556h11.111v11.11M216.667 85.556L222.222 80" stroke-width="2"/><path fill="#ffbde0" stroke="#9e034e" d="M205.556 63.333v11.111h11.111l5.555-5.555V57.778h-11.111z" stroke-width="2"/><path fill="#ffbde0" stroke="#9e034e" d="M205.556 63.333h11.111v11.111M216.667 63.333l5.555-5.555M205.556 41.111v11.111h11.111l5.555-5.555V35.556h-11.111z" stroke-width="2"/><path fill="#ffbde0" stroke="#9e034e" d="M205.556 41.111h11.111v11.111M216.667 41.111l5.555-5.555M205.556 18.889V30h11.111l5.555-5.556v-11.11h-11.111z" stroke-width="2"/><path fill="#ffbde0" stroke="#9e034e" d="M205.556 18.889h11.111V30M216.667 18.889l5.555-5.556M227.778 107.778v11.111h11.111l5.555-5.556v-11.111h-11.111z" stroke-width="2"/><path fill="#ffbde0" stroke="#9e034e" d="M227.778 107.778h11.111v11.111M238.889 107.778l5.555-5.556M227.778 85.556v11.11h11.111l5.555-5.555V80h-11.111z" stroke-width="2"/><path fill="#ffbde0" stroke="#9e034e" d="M227.778 85.556h11.111v11.11M238.889 85.556L244.444 80M227.778 63.333v11.111h11.111l5.555-5.555V57.778h-11.111z" stroke-width="2"/><path fill="#ffbde0" stroke="#9e034e" d="M227.778 63.333h11.111v11.111M238.889 63.333l5.555-5.555M227.778 41.111v11.111h11.111l5.555-5.555V35.556h-11.111z" stroke-width="2"/><path fill="#ffbde0" stroke="#9e034e" d="M227.778 41.111h11.111v11.111M238.889 41.111l5.555-5.555" stroke-width="2"/></svg>
