<svg xmlns="http://www.w3.org/2000/svg" width="115.556" height="120" viewBox="0 0 115.55555555555557 120"><path fill="#ffbde0" stroke="#9e034e" d="M5.556 107.778v11.111h11.11l5.556-5.556v-11.111h-11.11z" stroke-width="2"/><path fill="#ffbde0" stroke="#9e034e" d="M5.556 107.778h11.11v11.111M16.667 107.778l5.555-5.556" stroke-width="2"/><path fill="#ffbde0" stroke="#9e034e" d="M5.556 96.667v11.111h11.11l5.556-5.556v-11.11h-11.11z" stroke-width="2"/><path fill="#ffbde0" stroke="#9e034e" d="M5.556 96.667h11.11v11.111M16.667 96.667l5.555-5.556M5.556 85.556v11.11h11.11l5.556-5.555V80h-11.11z" stroke-width="2"/><path fill="#ffbde0" stroke="#9e034e" d="M5.556 85.556h11.11v11.11M16.667 85.556L22.222 80" stroke-width="2"/><path fill="#ffbde0" stroke="#9e034e" d="M5.556 74.444v11.112h11.11L22.223 80V68.889h-11.11z" stroke-width="2"/><path fill="#ffbde0" stroke="#9e034e" d="M5.556 74.444h11.11v11.112M16.667 74.444l5.555-5.555" stroke-width="2"/><path fill="#ffbde0" stroke="#9e034e" d="M5.556 63.333v11.111h11.11l5.556-5.555V57.778h-11.11z" stroke-width="2"/><path fill="#ffbde0" stroke="#9e034e" d="M5.556 63.333h11.11v11.111M16.667 63.333l5.555-5.555" stroke-width="2"/><path fill="#ffbde0" stroke="#9e034e" d="M5.556 52.222v11.111h11.11l5.556-5.555V46.667h-11.11z" stroke-width="2"/><path fill="#ffbde0" stroke="#9e034e" d="M5.556 52.222h11.11v11.111M16.667 52.222l5.555-5.555M5.556 41.111v11.111h11.11l5.556-5.555V35.556h-11.11z" stroke-width="2"/><path fill="#ffbde0" stroke="#9e034e" d="M5.556 41.111h11.11v11.111M16.667 41.111l5.555-5.555" stroke-width="2"/><path fill="#ffbde0" stroke="#9e034e" d="M5.556 30v11.111h11.11l5.556-5.555V24.444h-11.11z" stroke-width="2"/><path fill="#ffbde0" stroke="#9e034e" d="M5.556 30h11.11v11.111M16.667 30l5.555-5.556" stroke-width="2"/><path fill="#ffbde0" stroke="#9e034e" d="M5.556 18.889V30h11.11l5.556-5.556v-11.11h-11.11z" stroke-width="2"/><path fill="#ffbde0" stroke="#9e034e" d="M5.556 18.889h11.11V30M16.667 18.889l5.555-5.556M5.556 7.778v11.11h11.11l5.556-5.555V2.223h-11.11z" stroke-width="2"/><path fill="#ffbde0" stroke="#9e034e" d="M5.556 7.778h11.11v11.11M16.667 7.778l5.555-5.556M27.778 107.778v11.111h11.11l5.556-5.556v-11.111h-11.11z" stroke-width="2"/><path fill="#ffbde0" stroke="#9e034e" d="M27.778 107.778h11.11v11.111M38.889 107.778l5.555-5.556" stroke-width="2"/><path fill="#ffbde0" stroke="#9e034e" d="M27.778 96.667v11.111h11.11l5.556-5.556v-11.11h-11.11z" stroke-width="2"/><path fill="#ffbde0" stroke="#9e034e" d="M27.778 96.667h11.11v11.111M38.889 96.667l5.555-5.556M27.778 85.556v11.11h11.11l5.556-5.555V80h-11.11z" stroke-width="2"/><path fill="#ffbde0" stroke="#9e034e" d="M27.778 85.556h11.11v11.11M38.889 85.556L44.444 80" stroke-width="2"/><path fill="#ffbde0" stroke="#9e034e" d="M27.778 74.444v11.112h11.11L44.445 80V68.889h-11.11z" stroke-width="2"/><path fill="#ffbde0" stroke="#9e034e" d="M27.778 74.444h11.11v11.112M38.889 74.444l5.555-5.555" stroke-width="2"/><path fill="#ffbde0" stroke="#9e034e" d="M27.778 63.333v11.111h11.11l5.556-5.555V57.778h-11.11z" stroke-width="2"/><path fill="#ffbde0" stroke="#9e034e" d="M27.778 63.333h11.11v11.111M38.889 63.333l5.555-5.555" stroke-width="2"/><path fill="#ffbde0" stroke="#9e034e" d="M27.778 52.222v11.111h11.11l5.556-5.555V46.667h-11.11z" stroke-width="2"/><path fill="#ffbde0" stroke="#9e034e" d="M27.778 52.222h11.11v11.111M38.889 52.222l5.555-5.555M27.778 41.111v11.111h11.11l5.556-5.555V35.556h-11.11z" stroke-width="2"/><path fill="#ffbde0" stroke="#9e034e" d="M27.778 41.111h11.11v11.111M38.889 41.111l5.555-5.555" stroke-width="2"/><path fill="#ffbde0" stroke="#9e034e" d="M27.778 30v11.111h11.11l5.556-5.555V24.444h-11.11z" stroke-width="2"/><path fill="#ffbde0" stroke="#9e034e" d="M27.778 30h11.11v11.111M38.889 30l5.555-5.556" stroke-width="2"/><path fill="#ffbde0" stroke="#9e034e" d="M27.778 18.889V30h11.11l5.556-5.556v-11.11h-11.11z" stroke-width="2"/><path fill="#ffbde0" stroke="#9e034e" d="M27.778 18.889h11.11V30M38.889 18.889l5.555-5.556M27.778 7.778v11.11h11.11l5.556-5.555V2.223h-11.11z" stroke-width="2"/><path fill="#ffbde0" stroke="#9e034e" d="M27.778 7.778h11.11v11.11M38.889 7.778l5.555-5.556M50 107.778v11.111h11.111l5.556-5.556v-11.111H55.556z" stroke-width="2"/><path fill="#ffbde0" stroke="#9e034e" d="M50 107.778h11.111v11.111M61.111 107.778l5.556-5.556" stroke-width="2"/><path fill="#ffbde0" stroke="#9e034e" d="M50 96.667v11.111h11.111l5.556-5.556v-11.11H55.556z" stroke-width="2"/><path fill="#ffbde0" stroke="#9e034e" d="M50 96.667h11.111v11.111M61.111 96.667l5.556-5.556M50 85.556v11.11h11.111l5.556-5.555V80H55.556z" stroke-width="2"/><path fill="#ffbde0" stroke="#9e034e" d="M50 85.556h11.111v11.11M61.111 85.556L66.667 80" stroke-width="2"/><path fill="#ffbde0" stroke="#9e034e" d="M50 74.444v11.112h11.111L66.667 80V68.889H55.556z" stroke-width="2"/><path fill="#ffbde0" stroke="#9e034e" d="M50 74.444h11.111v11.112M61.111 74.444l5.556-5.555" stroke-width="2"/><path fill="#ffbde0" stroke="#9e034e" d="M50 63.333v11.111h11.111l5.556-5.555V57.778H55.556z" stroke-width="2"/><path fill="#ffbde0" stroke="#9e034e" d="M50 63.333h11.111v11.111M61.111 63.333l5.556-5.555" stroke-width="2"/><path fill="#ffbde0" stroke="#9e034e" d="M50 52.222v11.111h11.111l5.556-5.555V46.667H55.556z" stroke-width="2"/><path fill="#ffbde0" stroke="#9e034e" d="M50 52.222h11.111v11.111M61.111 52.222l5.556-5.555M50 41.111v11.111h11.111l5.556-5.555V35.556H55.556z" stroke-width="2"/><path fill="#ffbde0" stroke="#9e034e" d="M50 41.111h11.111v11.111M61.111 41.111l5.556-5.555" stroke-width="2"/><path fill="#ffbde0" stroke="#9e034e" d="M50 30v11.111h11.111l5.556-5.555V24.444H55.556z" stroke-width="2"/><path fill="#ffbde0" stroke="#9e034e" d="M50 30h11.111v11.111M61.111 30l5.556-5.556" stroke-width="2"/><path fill="#ffbde0" stroke="#9e034e" d="M50 18.889V30h11.111l5.556-5.556v-11.11H55.556z" stroke-width="2"/><path fill="#ffbde0" stroke="#9e034e" d="M50 18.889h11.111V30M61.111 18.889l5.556-5.556M50 7.778v11.11h11.111l5.556-5.555V2.223H55.556z" stroke-width="2"/><path fill="#ffbde0" stroke="#9e034e" d="M50 7.778h11.111v11.11M61.111 7.778l5.556-5.556M72.222 107.778v11.111h11.111l5.556-5.556v-11.111H77.778z" stroke-width="2"/><path fill="#ffbde0" stroke="#9e034e" d="M72.222 107.778h11.111v11.111M83.333 107.778l5.556-5.556M72.222 85.556v11.11h11.111l5.556-5.555V80H77.778z" stroke-width="2"/><path fill="#ffbde0" stroke="#9e034e" d="M72.222 85.556h11.111v11.11M83.333 85.556L88.89 80M72.222 63.333v11.111h11.111l5.556-5.555V57.778H77.778z" stroke-width="2"/><path fill="#ffbde0" stroke="#9e034e" d="M72.222 63.333h11.111v11.111M83.333 63.333l5.556-5.555M72.222 41.111v11.111h11.111l5.556-5.555V35.556H77.778z" stroke-width="2"/><path fill="#ffbde0" stroke="#9e034e" d="M72.222 41.111h11.111v11.111M83.333 41.111l5.556-5.555M72.222 18.889V30h11.111l5.556-5.556v-11.11H77.778z" stroke-width="2"/><path fill="#ffbde0" stroke="#9e034e" d="M72.222 18.889h11.111V30M83.333 18.889l5.556-5.556M94.444 107.778v11.111h11.112l5.555-5.556v-11.111H100z" stroke-width="2"/><path fill="#ffbde0" stroke="#9e034e" d="M94.444 107.778h11.112v11.111M105.556 107.778l5.555-5.556" stroke-width="2"/></svg>
