<svg xmlns="http://www.w3.org/2000/svg" width="560" height="120" viewBox="0 0 560 119.99999999999999"><path fill="#ddd7ff" stroke="#543b78" d="M5.556 107.778v11.111h11.11l5.556-5.556v-11.111h-11.11z" stroke-width="2"/><path fill="#ddd7ff" stroke="#543b78" d="M5.556 107.778h11.11v11.111M16.667 107.778l5.555-5.556" stroke-width="2"/><path fill="#ddd7ff" stroke="#543b78" d="M5.556 96.667v11.111h11.11l5.556-5.556v-11.11h-11.11z" stroke-width="2"/><path fill="#ddd7ff" stroke="#543b78" d="M5.556 96.667h11.11v11.111M16.667 96.667l5.555-5.556M5.556 85.556v11.11h11.11l5.556-5.555V80h-11.11z" stroke-width="2"/><path fill="#ddd7ff" stroke="#543b78" d="M5.556 85.556h11.11v11.11M16.667 85.556L22.222 80" stroke-width="2"/><path fill="#ddd7ff" stroke="#543b78" d="M5.556 74.444v11.112h11.11L22.223 80V68.889h-11.11z" stroke-width="2"/><path fill="#ddd7ff" stroke="#543b78" d="M5.556 74.444h11.11v11.112M16.667 74.444l5.555-5.555" stroke-width="2"/><path fill="#ddd7ff" stroke="#543b78" d="M5.556 63.333v11.111h11.11l5.556-5.555V57.778h-11.11z" stroke-width="2"/><path fill="#ddd7ff" stroke="#543b78" d="M5.556 63.333h11.11v11.111M16.667 63.333l5.555-5.555" stroke-width="2"/><path fill="#ddd7ff" stroke="#543b78" d="M5.556 52.222v11.111h11.11l5.556-5.555V46.667h-11.11z" stroke-width="2"/><path fill="#ddd7ff" stroke="#543b78" d="M5.556 52.222h11.11v11.111M16.667 52.222l5.555-5.555M5.556 41.111v11.111h11.11l5.556-5.555V35.556h-11.11z" stroke-width="2"/><path fill="#ddd7ff" stroke="#543b78" d="M5.556 41.111h11.11v11.111M16.667 41.111l5.555-5.555" stroke-width="2"/><path fill="#ddd7ff" stroke="#543b78" d="M5.556 30v11.111h11.11l5.556-5.555V24.444h-11.11z" stroke-width="2"/><path fill="#ddd7ff" stroke="#543b78" d="M5.556 30h11.11v11.111M16.667 30l5.555-5.556" stroke-width="2"/><path fill="#ddd7ff" stroke="#543b78" d="M5.556 18.889V30h11.11l5.556-5.556v-11.11h-11.11z" stroke-width="2"/><path fill="#ddd7ff" stroke="#543b78" d="M5.556 18.889h11.11V30M16.667 18.889l5.555-5.556M5.556 7.778v11.11h11.11l5.556-5.555V2.223h-11.11z" stroke-width="2"/><path fill="#ddd7ff" stroke="#543b78" d="M5.556 7.778h11.11v11.11M16.667 7.778l5.555-5.556M27.778 107.778v11.111h11.11l5.556-5.556v-11.111h-11.11z" stroke-width="2"/><path fill="#ddd7ff" stroke="#543b78" d="M27.778 107.778h11.11v11.111M38.889 107.778l5.555-5.556" stroke-width="2"/><path fill="#ddd7ff" stroke="#543b78" d="M27.778 96.667v11.111h11.11l5.556-5.556v-11.11h-11.11z" stroke-width="2"/><path fill="#ddd7ff" stroke="#543b78" d="M27.778 96.667h11.11v11.111M38.889 96.667l5.555-5.556M27.778 85.556v11.11h11.11l5.556-5.555V80h-11.11z" stroke-width="2"/><path fill="#ddd7ff" stroke="#543b78" d="M27.778 85.556h11.11v11.11M38.889 85.556L44.444 80" stroke-width="2"/><path fill="#ddd7ff" stroke="#543b78" d="M27.778 74.444v11.112h11.11L44.445 80V68.889h-11.11z" stroke-width="2"/><path fill="#ddd7ff" stroke="#543b78" d="M27.778 74.444h11.11v11.112M38.889 74.444l5.555-5.555" stroke-width="2"/><path fill="#ddd7ff" stroke="#543b78" d="M27.778 63.333v11.111h11.11l5.556-5.555V57.778h-11.11z" stroke-width="2"/><path fill="#ddd7ff" stroke="#543b78" d="M27.778 63.333h11.11v11.111M38.889 63.333l5.555-5.555" stroke-width="2"/><path fill="#ddd7ff" stroke="#543b78" d="M27.778 52.222v11.111h11.11l5.556-5.555V46.667h-11.11z" stroke-width="2"/><path fill="#ddd7ff" stroke="#543b78" d="M27.778 52.222h11.11v11.111M38.889 52.222l5.555-5.555M27.778 41.111v11.111h11.11l5.556-5.555V35.556h-11.11z" stroke-width="2"/><path fill="#ddd7ff" stroke="#543b78" d="M27.778 41.111h11.11v11.111M38.889 41.111l5.555-5.555" stroke-width="2"/><path fill="#ddd7ff" stroke="#543b78" d="M27.778 30v11.111h11.11l5.556-5.555V24.444h-11.11z" stroke-width="2"/><path fill="#ddd7ff" stroke="#543b78" d="M27.778 30h11.11v11.111M38.889 30l5.555-5.556" stroke-width="2"/><path fill="#ddd7ff" stroke="#543b78" d="M27.778 18.889V30h11.11l5.556-5.556v-11.11h-11.11z" stroke-width="2"/><path fill="#ddd7ff" stroke="#543b78" d="M27.778 18.889h11.11V30M38.889 18.889l5.555-5.556M27.778 7.778v11.11h11.11l5.556-5.555V2.223h-11.11z" stroke-width="2"/><path fill="#ddd7ff" stroke="#543b78" d="M27.778 7.778h11.11v11.11M38.889 7.778l5.555-5.556M50 107.778v11.111h11.111l5.556-5.556v-11.111H55.556z" stroke-width="2"/><path fill="#ddd7ff" stroke="#543b78" d="M50 107.778h11.111v11.111M61.111 107.778l5.556-5.556" stroke-width="2"/><path fill="#ddd7ff" stroke="#543b78" d="M50 96.667v11.111h11.111l5.556-5.556v-11.11H55.556z" stroke-width="2"/><path fill="#ddd7ff" stroke="#543b78" d="M50 96.667h11.111v11.111M61.111 96.667l5.556-5.556M50 85.556v11.11h11.111l5.556-5.555V80H55.556z" stroke-width="2"/><path fill="#ddd7ff" stroke="#543b78" d="M50 85.556h11.111v11.11M61.111 85.556L66.667 80" stroke-width="2"/><path fill="#ddd7ff" stroke="#543b78" d="M50 74.444v11.112h11.111L66.667 80V68.889H55.556z" stroke-width="2"/><path fill="#ddd7ff" stroke="#543b78" d="M50 74.444h11.111v11.112M61.111 74.444l5.556-5.555" stroke-width="2"/><path fill="#ddd7ff" stroke="#543b78" d="M50 63.333v11.111h11.111l5.556-5.555V57.778H55.556z" stroke-width="2"/><path fill="#ddd7ff" stroke="#543b78" d="M50 63.333h11.111v11.111M61.111 63.333l5.556-5.555" stroke-width="2"/><path fill="#ddd7ff" stroke="#543b78" d="M50 52.222v11.111h11.111l5.556-5.555V46.667H55.556z" stroke-width="2"/><path fill="#ddd7ff" stroke="#543b78" d="M50 52.222h11.111v11.111M61.111 52.222l5.556-5.555M50 41.111v11.111h11.111l5.556-5.555V35.556H55.556z" stroke-width="2"/><path fill="#ddd7ff" stroke="#543b78" d="M50 41.111h11.111v11.111M61.111 41.111l5.556-5.555" stroke-width="2"/><path fill="#ddd7ff" stroke="#543b78" d="M50 30v11.111h11.111l5.556-5.555V24.444H55.556z" stroke-width="2"/><path fill="#ddd7ff" stroke="#543b78" d="M50 30h11.111v11.111M61.111 30l5.556-5.556" stroke-width="2"/><path fill="#ddd7ff" stroke="#543b78" d="M50 18.889V30h11.111l5.556-5.556v-11.11H55.556z" stroke-width="2"/><path fill="#ddd7ff" stroke="#543b78" d="M50 18.889h11.111V30M61.111 18.889l5.556-5.556M50 7.778v11.11h11.111l5.556-5.555V2.223H55.556z" stroke-width="2"/><path fill="#ddd7ff" stroke="#543b78" d="M50 7.778h11.111v11.11M61.111 7.778l5.556-5.556M72.222 107.778v11.111h11.111l5.556-5.556v-11.111H77.778z" stroke-width="2"/><path fill="#ddd7ff" stroke="#543b78" d="M72.222 107.778h11.111v11.111M83.333 107.778l5.556-5.556" stroke-width="2"/><path fill="#ddd7ff" stroke="#543b78" d="M72.222 96.667v11.111h11.111l5.556-5.556v-11.11H77.778z" stroke-width="2"/><path fill="#ddd7ff" stroke="#543b78" d="M72.222 96.667h11.111v11.111M83.333 96.667l5.556-5.556M72.222 85.556v11.11h11.111l5.556-5.555V80H77.778z" stroke-width="2"/><path fill="#ddd7ff" stroke="#543b78" d="M72.222 85.556h11.111v11.11M83.333 85.556L88.89 80" stroke-width="2"/><path fill="#ddd7ff" stroke="#543b78" d="M72.222 74.444v11.112h11.111L88.89 80V68.889H77.778z" stroke-width="2"/><path fill="#ddd7ff" stroke="#543b78" d="M72.222 74.444h11.111v11.112M83.333 74.444l5.556-5.555" stroke-width="2"/><path fill="#ddd7ff" stroke="#543b78" d="M72.222 63.333v11.111h11.111l5.556-5.555V57.778H77.778z" stroke-width="2"/><path fill="#ddd7ff" stroke="#543b78" d="M72.222 63.333h11.111v11.111M83.333 63.333l5.556-5.555" stroke-width="2"/><path fill="#ddd7ff" stroke="#543b78" d="M72.222 52.222v11.111h11.111l5.556-5.555V46.667H77.778z" stroke-width="2"/><path fill="#ddd7ff" stroke="#543b78" d="M72.222 52.222h11.111v11.111M83.333 52.222l5.556-5.555M72.222 41.111v11.111h11.111l5.556-5.555V35.556H77.778z" stroke-width="2"/><path fill="#ddd7ff" stroke="#543b78" d="M72.222 41.111h11.111v11.111M83.333 41.111l5.556-5.555" stroke-width="2"/><path fill="#ddd7ff" stroke="#543b78" d="M72.222 30v11.111h11.111l5.556-5.555V24.444H77.778z" stroke-width="2"/><path fill="#ddd7ff" stroke="#543b78" d="M72.222 30h11.111v11.111M83.333 30l5.556-5.556" stroke-width="2"/><path fill="#ddd7ff" stroke="#543b78" d="M72.222 18.889V30h11.111l5.556-5.556v-11.11H77.778z" stroke-width="2"/><path fill="#ddd7ff" stroke="#543b78" d="M72.222 18.889h11.111V30M83.333 18.889l5.556-5.556M72.222 7.778v11.11h11.111l5.556-5.555V2.223H77.778z" stroke-width="2"/><path fill="#ddd7ff" stroke="#543b78" d="M72.222 7.778h11.111v11.11M83.333 7.778l5.556-5.556M94.444 107.778v11.111h11.112l5.555-5.556v-11.111H100z" stroke-width="2"/><path fill="#ddd7ff" stroke="#543b78" d="M94.444 107.778h11.112v11.111M105.556 107.778l5.555-5.556" stroke-width="2"/><path fill="#ddd7ff" stroke="#543b78" d="M94.444 96.667v11.111h11.112l5.555-5.556v-11.11H100z" stroke-width="2"/><path fill="#ddd7ff" stroke="#543b78" d="M94.444 96.667h11.112v11.111M105.556 96.667l5.555-5.556M94.444 85.556v11.11h11.112l5.555-5.555V80H100z" stroke-width="2"/><path fill="#ddd7ff" stroke="#543b78" d="M94.444 85.556h11.112v11.11M105.556 85.556L111.111 80" stroke-width="2"/><path fill="#ddd7ff" stroke="#543b78" d="M94.444 74.444v11.112h11.112L111.111 80V68.889H100z" stroke-width="2"/><path fill="#ddd7ff" stroke="#543b78" d="M94.444 74.444h11.112v11.112M105.556 74.444l5.555-5.555" stroke-width="2"/><path fill="#ddd7ff" stroke="#543b78" d="M94.444 63.333v11.111h11.112l5.555-5.555V57.778H100z" stroke-width="2"/><path fill="#ddd7ff" stroke="#543b78" d="M94.444 63.333h11.112v11.111M105.556 63.333l5.555-5.555" stroke-width="2"/><path fill="#ddd7ff" stroke="#543b78" d="M94.444 52.222v11.111h11.112l5.555-5.555V46.667H100z" stroke-width="2"/><path fill="#ddd7ff" stroke="#543b78" d="M94.444 52.222h11.112v11.111M105.556 52.222l5.555-5.555M94.444 41.111v11.111h11.112l5.555-5.555V35.556H100z" stroke-width="2"/><path fill="#ddd7ff" stroke="#543b78" d="M94.444 41.111h11.112v11.111M105.556 41.111l5.555-5.555" stroke-width="2"/><path fill="#ddd7ff" stroke="#543b78" d="M94.444 30v11.111h11.112l5.555-5.555V24.444H100z" stroke-width="2"/><path fill="#ddd7ff" stroke="#543b78" d="M94.444 30h11.112v11.111M105.556 30l5.555-5.556" stroke-width="2"/><path fill="#ddd7ff" stroke="#543b78" d="M94.444 18.889V30h11.112l5.555-5.556v-11.11H100z" stroke-width="2"/><path fill="#ddd7ff" stroke="#543b78" d="M94.444 18.889h11.112V30M105.556 18.889l5.555-5.556M94.444 7.778v11.11h11.112l5.555-5.555V2.223H100z" stroke-width="2"/><path fill="#ddd7ff" stroke="#543b78" d="M94.444 7.778h11.112v11.11M105.556 7.778l5.555-5.556M116.667 107.778v11.111h11.111l5.555-5.556v-11.111h-11.111z" stroke-width="2"/><path fill="#ddd7ff" stroke="#543b78" d="M116.667 107.778h11.111v11.111M127.778 107.778l5.555-5.556" stroke-width="2"/><path fill="#ddd7ff" stroke="#543b78" d="M116.667 96.667v11.111h11.111l5.555-5.556v-11.11h-11.111z" stroke-width="2"/><path fill="#ddd7ff" stroke="#543b78" d="M116.667 96.667h11.111v11.111M127.778 96.667l5.555-5.556M116.667 85.556v11.11h11.111l5.555-5.555V80h-11.111z" stroke-width="2"/><path fill="#ddd7ff" stroke="#543b78" d="M116.667 85.556h11.111v11.11M127.778 85.556L133.333 80" stroke-width="2"/><path fill="#ddd7ff" stroke="#543b78" d="M116.667 74.444v11.112h11.111L133.333 80V68.889h-11.111z" stroke-width="2"/><path fill="#ddd7ff" stroke="#543b78" d="M116.667 74.444h11.111v11.112M127.778 74.444l5.555-5.555" stroke-width="2"/><path fill="#ddd7ff" stroke="#543b78" d="M116.667 63.333v11.111h11.111l5.555-5.555V57.778h-11.111z" stroke-width="2"/><path fill="#ddd7ff" stroke="#543b78" d="M116.667 63.333h11.111v11.111M127.778 63.333l5.555-5.555" stroke-width="2"/><path fill="#ddd7ff" stroke="#543b78" d="M116.667 52.222v11.111h11.111l5.555-5.555V46.667h-11.111z" stroke-width="2"/><path fill="#ddd7ff" stroke="#543b78" d="M116.667 52.222h11.111v11.111M127.778 52.222l5.555-5.555M116.667 41.111v11.111h11.111l5.555-5.555V35.556h-11.111z" stroke-width="2"/><path fill="#ddd7ff" stroke="#543b78" d="M116.667 41.111h11.111v11.111M127.778 41.111l5.555-5.555" stroke-width="2"/><path fill="#ddd7ff" stroke="#543b78" d="M116.667 30v11.111h11.111l5.555-5.555V24.444h-11.111z" stroke-width="2"/><path fill="#ddd7ff" stroke="#543b78" d="M116.667 30h11.111v11.111M127.778 30l5.555-5.556" stroke-width="2"/><path fill="#ddd7ff" stroke="#543b78" d="M116.667 18.889V30h11.111l5.555-5.556v-11.11h-11.111z" stroke-width="2"/><path fill="#ddd7ff" stroke="#543b78" d="M116.667 18.889h11.111V30M127.778 18.889l5.555-5.556M116.667 7.778v11.11h11.111l5.555-5.555V2.223h-11.111z" stroke-width="2"/><path fill="#ddd7ff" stroke="#543b78" d="M116.667 7.778h11.111v11.11M127.778 7.778l5.555-5.556M138.889 107.778v11.111H150l5.556-5.556v-11.111h-11.112z" stroke-width="2"/><path fill="#ddd7ff" stroke="#543b78" d="M138.889 107.778H150v11.111M150 107.778l5.556-5.556M138.889 85.556v11.11H150l5.556-5.555V80h-11.112z" stroke-width="2"/><path fill="#ddd7ff" stroke="#543b78" d="M138.889 85.556H150v11.11M150 85.556L155.556 80M138.889 63.333v11.111H150l5.556-5.555V57.778h-11.112z" stroke-width="2"/><path fill="#ddd7ff" stroke="#543b78" d="M138.889 63.333H150v11.111M150 63.333l5.556-5.555M138.889 41.111v11.111H150l5.556-5.555V35.556h-11.112z" stroke-width="2"/><path fill="#ddd7ff" stroke="#543b78" d="M138.889 41.111H150v11.111M150 41.111l5.556-5.555M138.889 18.889V30H150l5.556-5.556v-11.11h-11.112z" stroke-width="2"/><path fill="#ddd7ff" stroke="#543b78" d="M138.889 18.889H150V30M150 18.889l5.556-5.556M161.111 107.778v11.111h11.111l5.556-5.556v-11.111h-11.111z" stroke-width="2"/><path fill="#ddd7ff" stroke="#543b78" d="M161.111 107.778h11.111v11.111M172.222 107.778l5.556-5.556M161.111 85.556v11.11h11.111l5.556-5.555V80h-11.111z" stroke-width="2"/><path fill="#ddd7ff" stroke="#543b78" d="M161.111 85.556h11.111v11.11M172.222 85.556L177.778 80M161.111 63.333v11.111h11.111l5.556-5.555V57.778h-11.111z" stroke-width="2"/><path fill="#ddd7ff" stroke="#543b78" d="M161.111 63.333h11.111v11.111M172.222 63.333l5.556-5.555" stroke-width="2"/><path fill="#ffbde0" stroke="#9e034e" d="M205.556 107.778v11.111h11.111l5.555-5.556v-11.111h-11.111z" stroke-width="2"/><path fill="#ffbde0" stroke="#9e034e" d="M205.556 107.778h11.111v11.111M216.667 107.778l5.555-5.556" stroke-width="2"/><path fill="#ffbde0" stroke="#9e034e" d="M205.556 96.667v11.111h11.111l5.555-5.556v-11.11h-11.111z" stroke-width="2"/><path fill="#ffbde0" stroke="#9e034e" d="M205.556 96.667h11.111v11.111M216.667 96.667l5.555-5.556M205.556 85.556v11.11h11.111l5.555-5.555V80h-11.111z" stroke-width="2"/><path fill="#ffbde0" stroke="#9e034e" d="M205.556 85.556h11.111v11.11M216.667 85.556L222.222 80" stroke-width="2"/><path fill="#ffbde0" stroke="#9e034e" d="M205.556 74.444v11.112h11.111L222.222 80V68.889h-11.111z" stroke-width="2"/><path fill="#ffbde0" stroke="#9e034e" d="M205.556 74.444h11.111v11.112M216.667 74.444l5.555-5.555" stroke-width="2"/><path fill="#ffbde0" stroke="#9e034e" d="M205.556 63.333v11.111h11.111l5.555-5.555V57.778h-11.111z" stroke-width="2"/><path fill="#ffbde0" stroke="#9e034e" d="M205.556 63.333h11.111v11.111M216.667 63.333l5.555-5.555" stroke-width="2"/><path fill="#ffbde0" stroke="#9e034e" d="M205.556 52.222v11.111h11.111l5.555-5.555V46.667h-11.111z" stroke-width="2"/><path fill="#ffbde0" stroke="#9e034e" d="M205.556 52.222h11.111v11.111M216.667 52.222l5.555-5.555M205.556 41.111v11.111h11.111l5.555-5.555V35.556h-11.111z" stroke-width="2"/><path fill="#ffbde0" stroke="#9e034e" d="M205.556 41.111h11.111v11.111M216.667 41.111l5.555-5.555" stroke-width="2"/><path fill="#ffbde0" stroke="#9e034e" d="M205.556 30v11.111h11.111l5.555-5.555V24.444h-11.111z" stroke-width="2"/><path fill="#ffbde0" stroke="#9e034e" d="M205.556 30h11.111v11.111M216.667 30l5.555-5.556" stroke-width="2"/><path fill="#ffbde0" stroke="#9e034e" d="M205.556 18.889V30h11.111l5.555-5.556v-11.11h-11.111z" stroke-width="2"/><path fill="#ffbde0" stroke="#9e034e" d="M205.556 18.889h11.111V30M216.667 18.889l5.555-5.556M205.556 7.778v11.11h11.111l5.555-5.555V2.223h-11.111z" stroke-width="2"/><path fill="#ffbde0" stroke="#9e034e" d="M205.556 7.778h11.111v11.11M216.667 7.778l5.555-5.556M227.778 107.778v11.111h11.111l5.555-5.556v-11.111h-11.111z" stroke-width="2"/><path fill="#ffbde0" stroke="#9e034e" d="M227.778 107.778h11.111v11.111M238.889 107.778l5.555-5.556" stroke-width="2"/><path fill="#ffbde0" stroke="#9e034e" d="M227.778 96.667v11.111h11.111l5.555-5.556v-11.11h-11.111z" stroke-width="2"/><path fill="#ffbde0" stroke="#9e034e" d="M227.778 96.667h11.111v11.111M238.889 96.667l5.555-5.556M227.778 85.556v11.11h11.111l5.555-5.555V80h-11.111z" stroke-width="2"/><path fill="#ffbde0" stroke="#9e034e" d="M227.778 85.556h11.111v11.11M238.889 85.556L244.444 80" stroke-width="2"/><path fill="#ffbde0" stroke="#9e034e" d="M227.778 74.444v11.112h11.111L244.444 80V68.889h-11.111z" stroke-width="2"/><path fill="#ffbde0" stroke="#9e034e" d="M227.778 74.444h11.111v11.112M238.889 74.444l5.555-5.555" stroke-width="2"/><path fill="#ffbde0" stroke="#9e034e" d="M227.778 63.333v11.111h11.111l5.555-5.555V57.778h-11.111z" stroke-width="2"/><path fill="#ffbde0" stroke="#9e034e" d="M227.778 63.333h11.111v11.111M238.889 63.333l5.555-5.555" stroke-width="2"/><path fill="#ffbde0" stroke="#9e034e" d="M227.778 52.222v11.111h11.111l5.555-5.555V46.667h-11.111z" stroke-width="2"/><path fill="#ffbde0" stroke="#9e034e" d="M227.778 52.222h11.111v11.111M238.889 52.222l5.555-5.555M227.778 41.111v11.111h11.111l5.555-5.555V35.556h-11.111z" stroke-width="2"/><path fill="#ffbde0" stroke="#9e034e" d="M227.778 41.111h11.111v11.111M238.889 41.111l5.555-5.555" stroke-width="2"/><path fill="#ffbde0" stroke="#9e034e" d="M227.778 30v11.111h11.111l5.555-5.555V24.444h-11.111z" stroke-width="2"/><path fill="#ffbde0" stroke="#9e034e" d="M227.778 30h11.111v11.111M238.889 30l5.555-5.556" stroke-width="2"/><path fill="#ffbde0" stroke="#9e034e" d="M227.778 18.889V30h11.111l5.555-5.556v-11.11h-11.111z" stroke-width="2"/><path fill="#ffbde0" stroke="#9e034e" d="M227.778 18.889h11.111V30M238.889 18.889l5.555-5.556M227.778 7.778v11.11h11.111l5.555-5.555V2.223h-11.111z" stroke-width="2"/><path fill="#ffbde0" stroke="#9e034e" d="M227.778 7.778h11.111v11.11M238.889 7.778l5.555-5.556M250 107.778v11.111h11.111l5.556-5.556v-11.111h-11.111z" stroke-width="2"/><path fill="#ffbde0" stroke="#9e034e" d="M250 107.778h11.111v11.111M261.111 107.778l5.556-5.556M250 85.556v11.11h11.111l5.556-5.555V80h-11.111z" stroke-width="2"/><path fill="#ffbde0" stroke="#9e034e" d="M250 85.556h11.111v11.11M261.111 85.556L266.667 80M250 63.333v11.111h11.111l5.556-5.555V57.778h-11.111z" stroke-width="2"/><path fill="#ffbde0" stroke="#9e034e" d="M250 63.333h11.111v11.111M261.111 63.333l5.556-5.555M250 41.111v11.111h11.111l5.556-5.555V35.556h-11.111z" stroke-width="2"/><path fill="#ffbde0" stroke="#9e034e" d="M250 41.111h11.111v11.111M261.111 41.111l5.556-5.555M250 18.889V30h11.111l5.556-5.556v-11.11h-11.111z" stroke-width="2"/><path fill="#ffbde0" stroke="#9e034e" d="M250 18.889h11.111V30M261.111 18.889l5.556-5.556M272.222 107.778v11.111h11.111l5.556-5.556v-11.111h-11.111z" stroke-width="2"/><path fill="#ffbde0" stroke="#9e034e" d="M272.222 107.778h11.111v11.111M283.333 107.778l5.556-5.556M272.222 85.556v11.11h11.111l5.556-5.555V80h-11.111z" stroke-width="2"/><path fill="#ffbde0" stroke="#9e034e" d="M272.222 85.556h11.111v11.11M283.333 85.556L288.889 80M272.222 63.333v11.111h11.111l5.556-5.555V57.778h-11.111z" stroke-width="2"/><path fill="#ffbde0" stroke="#9e034e" d="M272.222 63.333h11.111v11.111M283.333 63.333l5.556-5.555" stroke-width="2"/><path fill="#ddd7ff" stroke="#543b78" d="M316.667 107.778v11.111h11.111l5.555-5.556v-11.111h-11.111z" stroke-width="2"/><path fill="#ddd7ff" stroke="#543b78" d="M316.667 107.778h11.111v11.111M327.778 107.778l5.555-5.556" stroke-width="2"/><path fill="#ddd7ff" stroke="#543b78" d="M316.667 96.667v11.111h11.111l5.555-5.556v-11.11h-11.111z" stroke-width="2"/><path fill="#ddd7ff" stroke="#543b78" d="M316.667 96.667h11.111v11.111M327.778 96.667l5.555-5.556M316.667 85.556v11.11h11.111l5.555-5.555V80h-11.111z" stroke-width="2"/><path fill="#ddd7ff" stroke="#543b78" d="M316.667 85.556h11.111v11.11M327.778 85.556L333.333 80" stroke-width="2"/><path fill="#ddd7ff" stroke="#543b78" d="M316.667 74.444v11.112h11.111L333.333 80V68.889h-11.111z" stroke-width="2"/><path fill="#ddd7ff" stroke="#543b78" d="M316.667 74.444h11.111v11.112M327.778 74.444l5.555-5.555" stroke-width="2"/><path fill="#ddd7ff" stroke="#543b78" d="M316.667 63.333v11.111h11.111l5.555-5.555V57.778h-11.111z" stroke-width="2"/><path fill="#ddd7ff" stroke="#543b78" d="M316.667 63.333h11.111v11.111M327.778 63.333l5.555-5.555" stroke-width="2"/><path fill="#ddd7ff" stroke="#543b78" d="M316.667 52.222v11.111h11.111l5.555-5.555V46.667h-11.111z" stroke-width="2"/><path fill="#ddd7ff" stroke="#543b78" d="M316.667 52.222h11.111v11.111M327.778 52.222l5.555-5.555M316.667 41.111v11.111h11.111l5.555-5.555V35.556h-11.111z" stroke-width="2"/><path fill="#ddd7ff" stroke="#543b78" d="M316.667 41.111h11.111v11.111M327.778 41.111l5.555-5.555" stroke-width="2"/><path fill="#ddd7ff" stroke="#543b78" d="M316.667 30v11.111h11.111l5.555-5.555V24.444h-11.111z" stroke-width="2"/><path fill="#ddd7ff" stroke="#543b78" d="M316.667 30h11.111v11.111M327.778 30l5.555-5.556" stroke-width="2"/><path fill="#ddd7ff" stroke="#543b78" d="M316.667 18.889V30h11.111l5.555-5.556v-11.11h-11.111z" stroke-width="2"/><path fill="#ddd7ff" stroke="#543b78" d="M316.667 18.889h11.111V30M327.778 18.889l5.555-5.556M316.667 7.778v11.11h11.111l5.555-5.555V2.223h-11.111z" stroke-width="2"/><path fill="#ddd7ff" stroke="#543b78" d="M316.667 7.778h11.111v11.11M327.778 7.778l5.555-5.556M338.889 107.778v11.111H350l5.556-5.556v-11.111h-11.112z" stroke-width="2"/><path fill="#ddd7ff" stroke="#543b78" d="M338.889 107.778H350v11.111M350 107.778l5.556-5.556" stroke-width="2"/><path fill="#ddd7ff" stroke="#543b78" d="M338.889 96.667v11.111H350l5.556-5.556v-11.11h-11.112z" stroke-width="2"/><path fill="#ddd7ff" stroke="#543b78" d="M338.889 96.667H350v11.111M350 96.667l5.556-5.556M338.889 85.556v11.11H350l5.556-5.555V80h-11.112z" stroke-width="2"/><path fill="#ddd7ff" stroke="#543b78" d="M338.889 85.556H350v11.11M350 85.556L355.556 80" stroke-width="2"/><path fill="#ddd7ff" stroke="#543b78" d="M338.889 74.444v11.112H350L355.556 80V68.889h-11.112z" stroke-width="2"/><path fill="#ddd7ff" stroke="#543b78" d="M338.889 74.444H350v11.112M350 74.444l5.556-5.555" stroke-width="2"/><path fill="#ddd7ff" stroke="#543b78" d="M338.889 63.333v11.111H350l5.556-5.555V57.778h-11.112z" stroke-width="2"/><path fill="#ddd7ff" stroke="#543b78" d="M338.889 63.333H350v11.111M350 63.333l5.556-5.555" stroke-width="2"/><path fill="#ddd7ff" stroke="#543b78" d="M338.889 52.222v11.111H350l5.556-5.555V46.667h-11.112z" stroke-width="2"/><path fill="#ddd7ff" stroke="#543b78" d="M338.889 52.222H350v11.111M350 52.222l5.556-5.555M338.889 41.111v11.111H350l5.556-5.555V35.556h-11.112z" stroke-width="2"/><path fill="#ddd7ff" stroke="#543b78" d="M338.889 41.111H350v11.111M350 41.111l5.556-5.555" stroke-width="2"/><path fill="#ddd7ff" stroke="#543b78" d="M338.889 30v11.111H350l5.556-5.555V24.444h-11.112z" stroke-width="2"/><path fill="#ddd7ff" stroke="#543b78" d="M338.889 30H350v11.111M350 30l5.556-5.556" stroke-width="2"/><path fill="#ddd7ff" stroke="#543b78" d="M338.889 18.889V30H350l5.556-5.556v-11.11h-11.112z" stroke-width="2"/><path fill="#ddd7ff" stroke="#543b78" d="M338.889 18.889H350V30M350 18.889l5.556-5.556M338.889 7.778v11.11H350l5.556-5.555V2.223h-11.112z" stroke-width="2"/><path fill="#ddd7ff" stroke="#543b78" d="M338.889 7.778H350v11.11M350 7.778l5.556-5.556M361.111 107.778v11.111h11.111l5.556-5.556v-11.111h-11.111z" stroke-width="2"/><path fill="#ddd7ff" stroke="#543b78" d="M361.111 107.778h11.111v11.111M372.222 107.778l5.556-5.556" stroke-width="2"/><path fill="#ddd7ff" stroke="#543b78" d="M361.111 96.667v11.111h11.111l5.556-5.556v-11.11h-11.111z" stroke-width="2"/><path fill="#ddd7ff" stroke="#543b78" d="M361.111 96.667h11.111v11.111M372.222 96.667l5.556-5.556M361.111 85.556v11.11h11.111l5.556-5.555V80h-11.111z" stroke-width="2"/><path fill="#ddd7ff" stroke="#543b78" d="M361.111 85.556h11.111v11.11M372.222 85.556L377.778 80" stroke-width="2"/><path fill="#ddd7ff" stroke="#543b78" d="M361.111 74.444v11.112h11.111L377.778 80V68.889h-11.111z" stroke-width="2"/><path fill="#ddd7ff" stroke="#543b78" d="M361.111 74.444h11.111v11.112M372.222 74.444l5.556-5.555" stroke-width="2"/><path fill="#ddd7ff" stroke="#543b78" d="M361.111 63.333v11.111h11.111l5.556-5.555V57.778h-11.111z" stroke-width="2"/><path fill="#ddd7ff" stroke="#543b78" d="M361.111 63.333h11.111v11.111M372.222 63.333l5.556-5.555" stroke-width="2"/><path fill="#ddd7ff" stroke="#543b78" d="M361.111 52.222v11.111h11.111l5.556-5.555V46.667h-11.111z" stroke-width="2"/><path fill="#ddd7ff" stroke="#543b78" d="M361.111 52.222h11.111v11.111M372.222 52.222l5.556-5.555M361.111 41.111v11.111h11.111l5.556-5.555V35.556h-11.111z" stroke-width="2"/><path fill="#ddd7ff" stroke="#543b78" d="M361.111 41.111h11.111v11.111M372.222 41.111l5.556-5.555" stroke-width="2"/><path fill="#ddd7ff" stroke="#543b78" d="M361.111 30v11.111h11.111l5.556-5.555V24.444h-11.111z" stroke-width="2"/><path fill="#ddd7ff" stroke="#543b78" d="M361.111 30h11.111v11.111M372.222 30l5.556-5.556" stroke-width="2"/><path fill="#ddd7ff" stroke="#543b78" d="M361.111 18.889V30h11.111l5.556-5.556v-11.11h-11.111z" stroke-width="2"/><path fill="#ddd7ff" stroke="#543b78" d="M361.111 18.889h11.111V30M372.222 18.889l5.556-5.556M361.111 7.778v11.11h11.111l5.556-5.555V2.223h-11.111z" stroke-width="2"/><path fill="#ddd7ff" stroke="#543b78" d="M361.111 7.778h11.111v11.11M372.222 7.778l5.556-5.556M383.333 107.778v11.111h11.111l5.556-5.556v-11.111h-11.111z" stroke-width="2"/><path fill="#ddd7ff" stroke="#543b78" d="M383.333 107.778h11.111v11.111M394.444 107.778l5.556-5.556" stroke-width="2"/><path fill="#ddd7ff" stroke="#543b78" d="M383.333 96.667v11.111h11.111l5.556-5.556v-11.11h-11.111z" stroke-width="2"/><path fill="#ddd7ff" stroke="#543b78" d="M383.333 96.667h11.111v11.111M394.444 96.667L400 91.11M383.333 85.556v11.11h11.111L400 91.112V80h-11.111z" stroke-width="2"/><path fill="#ddd7ff" stroke="#543b78" d="M383.333 85.556h11.111v11.11M394.444 85.556L400 80" stroke-width="2"/><path fill="#ddd7ff" stroke="#543b78" d="M383.333 74.444v11.112h11.111L400 80V68.889h-11.111z" stroke-width="2"/><path fill="#ddd7ff" stroke="#543b78" d="M383.333 74.444h11.111v11.112M394.444 74.444L400 68.89" stroke-width="2"/><path fill="#ddd7ff" stroke="#543b78" d="M383.333 63.333v11.111h11.111L400 68.89V57.778h-11.111z" stroke-width="2"/><path fill="#ddd7ff" stroke="#543b78" d="M383.333 63.333h11.111v11.111M394.444 63.333L400 57.778" stroke-width="2"/><path fill="#ddd7ff" stroke="#543b78" d="M383.333 52.222v11.111h11.111L400 57.778V46.667h-11.111z" stroke-width="2"/><path fill="#ddd7ff" stroke="#543b78" d="M383.333 52.222h11.111v11.111M394.444 52.222L400 46.667M383.333 41.111v11.111h11.111L400 46.667V35.556h-11.111z" stroke-width="2"/><path fill="#ddd7ff" stroke="#543b78" d="M383.333 41.111h11.111v11.111M394.444 41.111L400 35.556" stroke-width="2"/><path fill="#ddd7ff" stroke="#543b78" d="M383.333 30v11.111h11.111L400 35.556V24.444h-11.111z" stroke-width="2"/><path fill="#ddd7ff" stroke="#543b78" d="M383.333 30h11.111v11.111M394.444 30L400 24.444" stroke-width="2"/><path fill="#ddd7ff" stroke="#543b78" d="M383.333 18.889V30h11.111L400 24.444v-11.11h-11.111z" stroke-width="2"/><path fill="#ddd7ff" stroke="#543b78" d="M383.333 18.889h11.111V30M394.444 18.889L400 13.333M383.333 7.778v11.11h11.111L400 13.334V2.223h-11.111z" stroke-width="2"/><path fill="#ddd7ff" stroke="#543b78" d="M383.333 7.778h11.111v11.11M394.444 7.778L400 2.222M405.556 107.778v11.111h11.111l5.555-5.556v-11.111h-11.111z" stroke-width="2"/><path fill="#ddd7ff" stroke="#543b78" d="M405.556 107.778h11.111v11.111M416.667 107.778l5.555-5.556" stroke-width="2"/><path fill="#ddd7ff" stroke="#543b78" d="M405.556 96.667v11.111h11.111l5.555-5.556v-11.11h-11.111z" stroke-width="2"/><path fill="#ddd7ff" stroke="#543b78" d="M405.556 96.667h11.111v11.111M416.667 96.667l5.555-5.556M405.556 85.556v11.11h11.111l5.555-5.555V80h-11.111z" stroke-width="2"/><path fill="#ddd7ff" stroke="#543b78" d="M405.556 85.556h11.111v11.11M416.667 85.556L422.222 80" stroke-width="2"/><path fill="#ddd7ff" stroke="#543b78" d="M405.556 74.444v11.112h11.111L422.222 80V68.889h-11.111z" stroke-width="2"/><path fill="#ddd7ff" stroke="#543b78" d="M405.556 74.444h11.111v11.112M416.667 74.444l5.555-5.555" stroke-width="2"/><path fill="#ddd7ff" stroke="#543b78" d="M405.556 63.333v11.111h11.111l5.555-5.555V57.778h-11.111z" stroke-width="2"/><path fill="#ddd7ff" stroke="#543b78" d="M405.556 63.333h11.111v11.111M416.667 63.333l5.555-5.555" stroke-width="2"/><path fill="#ddd7ff" stroke="#543b78" d="M405.556 52.222v11.111h11.111l5.555-5.555V46.667h-11.111z" stroke-width="2"/><path fill="#ddd7ff" stroke="#543b78" d="M405.556 52.222h11.111v11.111M416.667 52.222l5.555-5.555M405.556 41.111v11.111h11.111l5.555-5.555V35.556h-11.111z" stroke-width="2"/><path fill="#ddd7ff" stroke="#543b78" d="M405.556 41.111h11.111v11.111M416.667 41.111l5.555-5.555" stroke-width="2"/><path fill="#ddd7ff" stroke="#543b78" d="M405.556 30v11.111h11.111l5.555-5.555V24.444h-11.111z" stroke-width="2"/><path fill="#ddd7ff" stroke="#543b78" d="M405.556 30h11.111v11.111M416.667 30l5.555-5.556" stroke-width="2"/><path fill="#ddd7ff" stroke="#543b78" d="M405.556 18.889V30h11.111l5.555-5.556v-11.11h-11.111z" stroke-width="2"/><path fill="#ddd7ff" stroke="#543b78" d="M405.556 18.889h11.111V30M416.667 18.889l5.555-5.556M405.556 7.778v11.11h11.111l5.555-5.555V2.223h-11.111z" stroke-width="2"/><path fill="#ddd7ff" stroke="#543b78" d="M405.556 7.778h11.111v11.11M416.667 7.778l5.555-5.556M427.778 107.778v11.111h11.111l5.555-5.556v-11.111h-11.111z" stroke-width="2"/><path fill="#ddd7ff" stroke="#543b78" d="M427.778 107.778h11.111v11.111M438.889 107.778l5.555-5.556" stroke-width="2"/><path fill="#ddd7ff" stroke="#543b78" d="M427.778 96.667v11.111h11.111l5.555-5.556v-11.11h-11.111z" stroke-width="2"/><path fill="#ddd7ff" stroke="#543b78" d="M427.778 96.667h11.111v11.111M438.889 96.667l5.555-5.556M427.778 85.556v11.11h11.111l5.555-5.555V80h-11.111z" stroke-width="2"/><path fill="#ddd7ff" stroke="#543b78" d="M427.778 85.556h11.111v11.11M438.889 85.556L444.444 80" stroke-width="2"/><path fill="#ddd7ff" stroke="#543b78" d="M427.778 74.444v11.112h11.111L444.444 80V68.889h-11.111z" stroke-width="2"/><path fill="#ddd7ff" stroke="#543b78" d="M427.778 74.444h11.111v11.112M438.889 74.444l5.555-5.555" stroke-width="2"/><path fill="#ddd7ff" stroke="#543b78" d="M427.778 63.333v11.111h11.111l5.555-5.555V57.778h-11.111z" stroke-width="2"/><path fill="#ddd7ff" stroke="#543b78" d="M427.778 63.333h11.111v11.111M438.889 63.333l5.555-5.555" stroke-width="2"/><path fill="#ddd7ff" stroke="#543b78" d="M427.778 52.222v11.111h11.111l5.555-5.555V46.667h-11.111z" stroke-width="2"/><path fill="#ddd7ff" stroke="#543b78" d="M427.778 52.222h11.111v11.111M438.889 52.222l5.555-5.555M427.778 41.111v11.111h11.111l5.555-5.555V35.556h-11.111z" stroke-width="2"/><path fill="#ddd7ff" stroke="#543b78" d="M427.778 41.111h11.111v11.111M438.889 41.111l5.555-5.555" stroke-width="2"/><path fill="#ddd7ff" stroke="#543b78" d="M427.778 30v11.111h11.111l5.555-5.555V24.444h-11.111z" stroke-width="2"/><path fill="#ddd7ff" stroke="#543b78" d="M427.778 30h11.111v11.111M438.889 30l5.555-5.556" stroke-width="2"/><path fill="#ddd7ff" stroke="#543b78" d="M427.778 18.889V30h11.111l5.555-5.556v-11.11h-11.111z" stroke-width="2"/><path fill="#ddd7ff" stroke="#543b78" d="M427.778 18.889h11.111V30M438.889 18.889l5.555-5.556M427.778 7.778v11.11h11.111l5.555-5.555V2.223h-11.111z" stroke-width="2"/><path fill="#ddd7ff" stroke="#543b78" d="M427.778 7.778h11.111v11.11M438.889 7.778l5.555-5.556" stroke-width="2"/><path fill="#ffbde0" stroke="#9e034e" d="M450 107.778v11.111h11.111l5.556-5.556v-11.111h-11.111z" stroke-width="2"/><path fill="#ffbde0" stroke="#9e034e" d="M450 107.778h11.111v11.111M461.111 107.778l5.556-5.556" stroke-width="2"/><path fill="#ffbde0" stroke="#9e034e" d="M450 96.667v11.111h11.111l5.556-5.556v-11.11h-11.111z" stroke-width="2"/><path fill="#ffbde0" stroke="#9e034e" d="M450 96.667h11.111v11.111M461.111 96.667l5.556-5.556M450 85.556v11.11h11.111l5.556-5.555V80h-11.111z" stroke-width="2"/><path fill="#ffbde0" stroke="#9e034e" d="M450 85.556h11.111v11.11M461.111 85.556L466.667 80" stroke-width="2"/><path fill="#ffbde0" stroke="#9e034e" d="M450 74.444v11.112h11.111L466.667 80V68.889h-11.111z" stroke-width="2"/><path fill="#ffbde0" stroke="#9e034e" d="M450 74.444h11.111v11.112M461.111 74.444l5.556-5.555" stroke-width="2"/><path fill="#ffbde0" stroke="#9e034e" d="M450 63.333v11.111h11.111l5.556-5.555V57.778h-11.111z" stroke-width="2"/><path fill="#ffbde0" stroke="#9e034e" d="M450 63.333h11.111v11.111M461.111 63.333l5.556-5.555" stroke-width="2"/><path fill="#ffbde0" stroke="#9e034e" d="M450 52.222v11.111h11.111l5.556-5.555V46.667h-11.111z" stroke-width="2"/><path fill="#ffbde0" stroke="#9e034e" d="M450 52.222h11.111v11.111M461.111 52.222l5.556-5.555M450 41.111v11.111h11.111l5.556-5.555V35.556h-11.111z" stroke-width="2"/><path fill="#ffbde0" stroke="#9e034e" d="M450 41.111h11.111v11.111M461.111 41.111l5.556-5.555" stroke-width="2"/><path fill="#ffbde0" stroke="#9e034e" d="M450 30v11.111h11.111l5.556-5.555V24.444h-11.111z" stroke-width="2"/><path fill="#ffbde0" stroke="#9e034e" d="M450 30h11.111v11.111M461.111 30l5.556-5.556" stroke-width="2"/><path fill="#ffbde0" stroke="#9e034e" d="M450 18.889V30h11.111l5.556-5.556v-11.11h-11.111z" stroke-width="2"/><path fill="#ffbde0" stroke="#9e034e" d="M450 18.889h11.111V30M461.111 18.889l5.556-5.556M450 7.778v11.11h11.111l5.556-5.555V2.223h-11.111z" stroke-width="2"/><path fill="#ffbde0" stroke="#9e034e" d="M450 7.778h11.111v11.11M461.111 7.778l5.556-5.556M472.222 107.778v11.111h11.111l5.556-5.556v-11.111h-11.111z" stroke-width="2"/><path fill="#ffbde0" stroke="#9e034e" d="M472.222 107.778h11.111v11.111M483.333 107.778l5.556-5.556" stroke-width="2"/><path fill="#ffbde0" stroke="#9e034e" d="M472.222 96.667v11.111h11.111l5.556-5.556v-11.11h-11.111z" stroke-width="2"/><path fill="#ffbde0" stroke="#9e034e" d="M472.222 96.667h11.111v11.111M483.333 96.667l5.556-5.556M472.222 85.556v11.11h11.111l5.556-5.555V80h-11.111z" stroke-width="2"/><path fill="#ffbde0" stroke="#9e034e" d="M472.222 85.556h11.111v11.11M483.333 85.556L488.889 80" stroke-width="2"/><path fill="#ffbde0" stroke="#9e034e" d="M472.222 74.444v11.112h11.111L488.889 80V68.889h-11.111z" stroke-width="2"/><path fill="#ffbde0" stroke="#9e034e" d="M472.222 74.444h11.111v11.112M483.333 74.444l5.556-5.555" stroke-width="2"/><path fill="#ffbde0" stroke="#9e034e" d="M472.222 63.333v11.111h11.111l5.556-5.555V57.778h-11.111z" stroke-width="2"/><path fill="#ffbde0" stroke="#9e034e" d="M472.222 63.333h11.111v11.111M483.333 63.333l5.556-5.555" stroke-width="2"/><path fill="#ffbde0" stroke="#9e034e" d="M472.222 52.222v11.111h11.111l5.556-5.555V46.667h-11.111z" stroke-width="2"/><path fill="#ffbde0" stroke="#9e034e" d="M472.222 52.222h11.111v11.111M483.333 52.222l5.556-5.555M472.222 41.111v11.111h11.111l5.556-5.555V35.556h-11.111z" stroke-width="2"/><path fill="#ffbde0" stroke="#9e034e" d="M472.222 41.111h11.111v11.111M483.333 41.111l5.556-5.555" stroke-width="2"/><path fill="#ffbde0" stroke="#9e034e" d="M472.222 30v11.111h11.111l5.556-5.555V24.444h-11.111z" stroke-width="2"/><path fill="#ffbde0" stroke="#9e034e" d="M472.222 30h11.111v11.111M483.333 30l5.556-5.556" stroke-width="2"/><path fill="#ffbde0" stroke="#9e034e" d="M472.222 18.889V30h11.111l5.556-5.556v-11.11h-11.111z" stroke-width="2"/><path fill="#ffbde0" stroke="#9e034e" d="M472.222 18.889h11.111V30M483.333 18.889l5.556-5.556M472.222 7.778v11.11h11.111l5.556-5.555V2.223h-11.111z" stroke-width="2"/><path fill="#ffbde0" stroke="#9e034e" d="M472.222 7.778h11.111v11.11M483.333 7.778l5.556-5.556" stroke-width="2"/><path fill="#ddd7ff" stroke="#543b78" d="M494.444 107.778v11.111h11.112l5.555-5.556v-11.111H500z" stroke-width="2"/><path fill="#ddd7ff" stroke="#543b78" d="M494.444 107.778h11.112v11.111M505.556 107.778l5.555-5.556" stroke-width="2"/><path fill="#ddd7ff" stroke="#543b78" d="M494.444 96.667v11.111h11.112l5.555-5.556v-11.11H500z" stroke-width="2"/><path fill="#ddd7ff" stroke="#543b78" d="M494.444 96.667h11.112v11.111M505.556 96.667l5.555-5.556M494.444 85.556v11.11h11.112l5.555-5.555V80H500z" stroke-width="2"/><path fill="#ddd7ff" stroke="#543b78" d="M494.444 85.556h11.112v11.11M505.556 85.556L511.111 80" stroke-width="2"/><path fill="#ddd7ff" stroke="#543b78" d="M494.444 74.444v11.112h11.112L511.111 80V68.889H500z" stroke-width="2"/><path fill="#ddd7ff" stroke="#543b78" d="M494.444 74.444h11.112v11.112M505.556 74.444l5.555-5.555" stroke-width="2"/><path fill="#ddd7ff" stroke="#543b78" d="M494.444 63.333v11.111h11.112l5.555-5.555V57.778H500z" stroke-width="2"/><path fill="#ddd7ff" stroke="#543b78" d="M494.444 63.333h11.112v11.111M505.556 63.333l5.555-5.555" stroke-width="2"/><path fill="#ddd7ff" stroke="#543b78" d="M494.444 52.222v11.111h11.112l5.555-5.555V46.667H500z" stroke-width="2"/><path fill="#ddd7ff" stroke="#543b78" d="M494.444 52.222h11.112v11.111M505.556 52.222l5.555-5.555M494.444 41.111v11.111h11.112l5.555-5.555V35.556H500z" stroke-width="2"/><path fill="#ddd7ff" stroke="#543b78" d="M494.444 41.111h11.112v11.111M505.556 41.111l5.555-5.555" stroke-width="2"/><path fill="#ddd7ff" stroke="#543b78" d="M494.444 30v11.111h11.112l5.555-5.555V24.444H500z" stroke-width="2"/><path fill="#ddd7ff" stroke="#543b78" d="M494.444 30h11.112v11.111M505.556 30l5.555-5.556" stroke-width="2"/><path fill="#ffbde0" stroke="#9e034e" d="M494.444 18.889V30h11.112l5.555-5.556v-11.11H500z" stroke-width="2"/><path fill="#ffbde0" stroke="#9e034e" d="M494.444 18.889h11.112V30M505.556 18.889l5.555-5.556M494.444 7.778v11.11h11.112l5.555-5.555V2.223H500z" stroke-width="2"/><path fill="#ffbde0" stroke="#9e034e" d="M494.444 7.778h11.112v11.11M505.556 7.778l5.555-5.556M516.667 107.778v11.111h11.111l5.555-5.556v-11.111h-11.111z" stroke-width="2"/><path fill="#ffbde0" stroke="#9e034e" d="M516.667 107.778h11.111v11.111M527.778 107.778l5.555-5.556M516.667 85.556v11.11h11.111l5.555-5.555V80h-11.111z" stroke-width="2"/><path fill="#ffbde0" stroke="#9e034e" d="M516.667 85.556h11.111v11.11M527.778 85.556L533.333 80M516.667 63.333v11.111h11.111l5.555-5.555V57.778h-11.111z" stroke-width="2"/><path fill="#ffbde0" stroke="#9e034e" d="M516.667 63.333h11.111v11.111M527.778 63.333l5.555-5.555M516.667 41.111v11.111h11.111l5.555-5.555V35.556h-11.111z" stroke-width="2"/><path fill="#ffbde0" stroke="#9e034e" d="M516.667 41.111h11.111v11.111M527.778 41.111l5.555-5.555M516.667 18.889V30h11.111l5.555-5.556v-11.11h-11.111z" stroke-width="2"/><path fill="#ffbde0" stroke="#9e034e" d="M516.667 18.889h11.111V30M527.778 18.889l5.555-5.556M538.889 107.778v11.111H550l5.556-5.556v-11.111h-11.112z" stroke-width="2"/><path fill="#ffbde0" stroke="#9e034e" d="M538.889 107.778H550v11.111M550 107.778l5.556-5.556" stroke-width="2"/></svg>
