<svg xmlns="http://www.w3.org/2000/svg" width="404.444" height="120" viewBox="0 0 404.44444444444446 120"><path fill="#ddd7ff" stroke="#543b78" d="M5.556 107.778v11.111h11.11l5.556-5.556v-11.111h-11.11z" stroke-width="2"/><path fill="#ddd7ff" stroke="#543b78" d="M5.556 107.778h11.11v11.111M16.667 107.778l5.555-5.556" stroke-width="2"/><path fill="#ddd7ff" stroke="#543b78" d="M5.556 96.667v11.111h11.11l5.556-5.556v-11.11h-11.11z" stroke-width="2"/><path fill="#ddd7ff" stroke="#543b78" d="M5.556 96.667h11.11v11.111M16.667 96.667l5.555-5.556M5.556 85.556v11.11h11.11l5.556-5.555V80h-11.11z" stroke-width="2"/><path fill="#ddd7ff" stroke="#543b78" d="M5.556 85.556h11.11v11.11M16.667 85.556L22.222 80" stroke-width="2"/><path fill="#ddd7ff" stroke="#543b78" d="M5.556 74.444v11.112h11.11L22.223 80V68.889h-11.11z" stroke-width="2"/><path fill="#ddd7ff" stroke="#543b78" d="M5.556 74.444h11.11v11.112M16.667 74.444l5.555-5.555" stroke-width="2"/><path fill="#ddd7ff" stroke="#543b78" d="M5.556 63.333v11.111h11.11l5.556-5.555V57.778h-11.11z" stroke-width="2"/><path fill="#ddd7ff" stroke="#543b78" d="M5.556 63.333h11.11v11.111M16.667 63.333l5.555-5.555" stroke-width="2"/><path fill="#ddd7ff" stroke="#543b78" d="M5.556 52.222v11.111h11.11l5.556-5.555V46.667h-11.11z" stroke-width="2"/><path fill="#ddd7ff" stroke="#543b78" d="M5.556 52.222h11.11v11.111M16.667 52.222l5.555-5.555M5.556 41.111v11.111h11.11l5.556-5.555V35.556h-11.11z" stroke-width="2"/><path fill="#ddd7ff" stroke="#543b78" d="M5.556 41.111h11.11v11.111M16.667 41.111l5.555-5.555" stroke-width="2"/><path fill="#ddd7ff" stroke="#543b78" d="M5.556 30v11.111h11.11l5.556-5.555V24.444h-11.11z" stroke-width="2"/><path fill="#ddd7ff" stroke="#543b78" d="M5.556 30h11.11v11.111M16.667 30l5.555-5.556" stroke-width="2"/><path fill="#ddd7ff" stroke="#543b78" d="M5.556 18.889V30h11.11l5.556-5.556v-11.11h-11.11z" stroke-width="2"/><path fill="#ddd7ff" stroke="#543b78" d="M5.556 18.889h11.11V30M16.667 18.889l5.555-5.556M5.556 7.778v11.11h11.11l5.556-5.555V2.223h-11.11z" stroke-width="2"/><path fill="#ddd7ff" stroke="#543b78" d="M5.556 7.778h11.11v11.11M16.667 7.778l5.555-5.556M27.778 107.778v11.111h11.11l5.556-5.556v-11.111h-11.11z" stroke-width="2"/><path fill="#ddd7ff" stroke="#543b78" d="M27.778 107.778h11.11v11.111M38.889 107.778l5.555-5.556" stroke-width="2"/><path fill="#ddd7ff" stroke="#543b78" d="M27.778 96.667v11.111h11.11l5.556-5.556v-11.11h-11.11z" stroke-width="2"/><path fill="#ddd7ff" stroke="#543b78" d="M27.778 96.667h11.11v11.111M38.889 96.667l5.555-5.556M27.778 85.556v11.11h11.11l5.556-5.555V80h-11.11z" stroke-width="2"/><path fill="#ddd7ff" stroke="#543b78" d="M27.778 85.556h11.11v11.11M38.889 85.556L44.444 80" stroke-width="2"/><path fill="#ddd7ff" stroke="#543b78" d="M27.778 74.444v11.112h11.11L44.445 80V68.889h-11.11z" stroke-width="2"/><path fill="#ddd7ff" stroke="#543b78" d="M27.778 74.444h11.11v11.112M38.889 74.444l5.555-5.555" stroke-width="2"/><path fill="#ddd7ff" stroke="#543b78" d="M27.778 63.333v11.111h11.11l5.556-5.555V57.778h-11.11z" stroke-width="2"/><path fill="#ddd7ff" stroke="#543b78" d="M27.778 63.333h11.11v11.111M38.889 63.333l5.555-5.555" stroke-width="2"/><path fill="#ddd7ff" stroke="#543b78" d="M27.778 52.222v11.111h11.11l5.556-5.555V46.667h-11.11z" stroke-width="2"/><path fill="#ddd7ff" stroke="#543b78" d="M27.778 52.222h11.11v11.111M38.889 52.222l5.555-5.555M27.778 41.111v11.111h11.11l5.556-5.555V35.556h-11.11z" stroke-width="2"/><path fill="#ddd7ff" stroke="#543b78" d="M27.778 41.111h11.11v11.111M38.889 41.111l5.555-5.555" stroke-width="2"/><path fill="#ddd7ff" stroke="#543b78" d="M27.778 30v11.111h11.11l5.556-5.555V24.444h-11.11z" stroke-width="2"/><path fill="#ddd7ff" stroke="#543b78" d="M27.778 30h11.11v11.111M38.889 30l5.555-5.556" stroke-width="2"/><path fill="#ddd7ff" stroke="#543b78" d="M27.778 18.889V30h11.11l5.556-5.556v-11.11h-11.11z" stroke-width="2"/><path fill="#ddd7ff" stroke="#543b78" d="M27.778 18.889h11.11V30M38.889 18.889l5.555-5.556M27.778 7.778v11.11h11.11l5.556-5.555V2.223h-11.11z" stroke-width="2"/><path fill="#ddd7ff" stroke="#543b78" d="M27.778 7.778h11.11v11.11M38.889 7.778l5.555-5.556M50 107.778v11.111h11.111l5.556-5.556v-11.111H55.556z" stroke-width="2"/><path fill="#ddd7ff" stroke="#543b78" d="M50 107.778h11.111v11.111M61.111 107.778l5.556-5.556" stroke-width="2"/><path fill="#ddd7ff" stroke="#543b78" d="M50 96.667v11.111h11.111l5.556-5.556v-11.11H55.556z" stroke-width="2"/><path fill="#ddd7ff" stroke="#543b78" d="M50 96.667h11.111v11.111M61.111 96.667l5.556-5.556M50 85.556v11.11h11.111l5.556-5.555V80H55.556z" stroke-width="2"/><path fill="#ddd7ff" stroke="#543b78" d="M50 85.556h11.111v11.11M61.111 85.556L66.667 80" stroke-width="2"/><path fill="#ddd7ff" stroke="#543b78" d="M50 74.444v11.112h11.111L66.667 80V68.889H55.556z" stroke-width="2"/><path fill="#ddd7ff" stroke="#543b78" d="M50 74.444h11.111v11.112M61.111 74.444l5.556-5.555" stroke-width="2"/><path fill="#ddd7ff" stroke="#543b78" d="M50 63.333v11.111h11.111l5.556-5.555V57.778H55.556z" stroke-width="2"/><path fill="#ddd7ff" stroke="#543b78" d="M50 63.333h11.111v11.111M61.111 63.333l5.556-5.555" stroke-width="2"/><path fill="#ddd7ff" stroke="#543b78" d="M50 52.222v11.111h11.111l5.556-5.555V46.667H55.556z" stroke-width="2"/><path fill="#ddd7ff" stroke="#543b78" d="M50 52.222h11.111v11.111M61.111 52.222l5.556-5.555M50 41.111v11.111h11.111l5.556-5.555V35.556H55.556z" stroke-width="2"/><path fill="#ddd7ff" stroke="#543b78" d="M50 41.111h11.111v11.111M61.111 41.111l5.556-5.555" stroke-width="2"/><path fill="#ddd7ff" stroke="#543b78" d="M50 30v11.111h11.111l5.556-5.555V24.444H55.556z" stroke-width="2"/><path fill="#ddd7ff" stroke="#543b78" d="M50 30h11.111v11.111M61.111 30l5.556-5.556" stroke-width="2"/><path fill="#ddd7ff" stroke="#543b78" d="M50 18.889V30h11.111l5.556-5.556v-11.11H55.556z" stroke-width="2"/><path fill="#ddd7ff" stroke="#543b78" d="M50 18.889h11.111V30M61.111 18.889l5.556-5.556M50 7.778v11.11h11.111l5.556-5.555V2.223H55.556z" stroke-width="2"/><path fill="#ddd7ff" stroke="#543b78" d="M50 7.778h11.111v11.11M61.111 7.778l5.556-5.556M72.222 107.778v11.111h11.111l5.556-5.556v-11.111H77.778z" stroke-width="2"/><path fill="#ddd7ff" stroke="#543b78" d="M72.222 107.778h11.111v11.111M83.333 107.778l5.556-5.556" stroke-width="2"/><path fill="#ddd7ff" stroke="#543b78" d="M72.222 96.667v11.111h11.111l5.556-5.556v-11.11H77.778z" stroke-width="2"/><path fill="#ddd7ff" stroke="#543b78" d="M72.222 96.667h11.111v11.111M83.333 96.667l5.556-5.556M72.222 85.556v11.11h11.111l5.556-5.555V80H77.778z" stroke-width="2"/><path fill="#ddd7ff" stroke="#543b78" d="M72.222 85.556h11.111v11.11M83.333 85.556L88.89 80" stroke-width="2"/><path fill="#ddd7ff" stroke="#543b78" d="M72.222 74.444v11.112h11.111L88.89 80V68.889H77.778z" stroke-width="2"/><path fill="#ddd7ff" stroke="#543b78" d="M72.222 74.444h11.111v11.112M83.333 74.444l5.556-5.555" stroke-width="2"/><path fill="#ddd7ff" stroke="#543b78" d="M72.222 63.333v11.111h11.111l5.556-5.555V57.778H77.778z" stroke-width="2"/><path fill="#ddd7ff" stroke="#543b78" d="M72.222 63.333h11.111v11.111M83.333 63.333l5.556-5.555" stroke-width="2"/><path fill="#ddd7ff" stroke="#543b78" d="M72.222 52.222v11.111h11.111l5.556-5.555V46.667H77.778z" stroke-width="2"/><path fill="#ddd7ff" stroke="#543b78" d="M72.222 52.222h11.111v11.111M83.333 52.222l5.556-5.555M72.222 41.111v11.111h11.111l5.556-5.555V35.556H77.778z" stroke-width="2"/><path fill="#ddd7ff" stroke="#543b78" d="M72.222 41.111h11.111v11.111M83.333 41.111l5.556-5.555" stroke-width="2"/><path fill="#ddd7ff" stroke="#543b78" d="M72.222 30v11.111h11.111l5.556-5.555V24.444H77.778z" stroke-width="2"/><path fill="#ddd7ff" stroke="#543b78" d="M72.222 30h11.111v11.111M83.333 30l5.556-5.556" stroke-width="2"/><path fill="#ddd7ff" stroke="#543b78" d="M72.222 18.889V30h11.111l5.556-5.556v-11.11H77.778z" stroke-width="2"/><path fill="#ddd7ff" stroke="#543b78" d="M72.222 18.889h11.111V30M83.333 18.889l5.556-5.556M72.222 7.778v11.11h11.111l5.556-5.555V2.223H77.778z" stroke-width="2"/><path fill="#ddd7ff" stroke="#543b78" d="M72.222 7.778h11.111v11.11M83.333 7.778l5.556-5.556M94.444 107.778v11.111h11.112l5.555-5.556v-11.111H100z" stroke-width="2"/><path fill="#ddd7ff" stroke="#543b78" d="M94.444 107.778h11.112v11.111M105.556 107.778l5.555-5.556M94.444 85.556v11.11h11.112l5.555-5.555V80H100z" stroke-width="2"/><path fill="#ddd7ff" stroke="#543b78" d="M94.444 85.556h11.112v11.11M105.556 85.556L111.111 80M94.444 63.333v11.111h11.112l5.555-5.555V57.778H100z" stroke-width="2"/><path fill="#ddd7ff" stroke="#543b78" d="M94.444 63.333h11.112v11.111M105.556 63.333l5.555-5.555M94.444 41.111v11.111h11.112l5.555-5.555V35.556H100z" stroke-width="2"/><path fill="#ddd7ff" stroke="#543b78" d="M94.444 41.111h11.112v11.111M105.556 41.111l5.555-5.555" stroke-width="2"/><path fill="#ffbde0" stroke="#9e034e" d="M138.889 107.778v11.111H150l5.556-5.556v-11.111h-11.112z" stroke-width="2"/><path fill="#ffbde0" stroke="#9e034e" d="M138.889 107.778H150v11.111M150 107.778l5.556-5.556" stroke-width="2"/><path fill="#ffbde0" stroke="#9e034e" d="M138.889 96.667v11.111H150l5.556-5.556v-11.11h-11.112z" stroke-width="2"/><path fill="#ffbde0" stroke="#9e034e" d="M138.889 96.667H150v11.111M150 96.667l5.556-5.556M138.889 85.556v11.11H150l5.556-5.555V80h-11.112z" stroke-width="2"/><path fill="#ffbde0" stroke="#9e034e" d="M138.889 85.556H150v11.11M150 85.556L155.556 80" stroke-width="2"/><path fill="#ffbde0" stroke="#9e034e" d="M138.889 74.444v11.112H150L155.556 80V68.889h-11.112z" stroke-width="2"/><path fill="#ffbde0" stroke="#9e034e" d="M138.889 74.444H150v11.112M150 74.444l5.556-5.555" stroke-width="2"/><path fill="#ffbde0" stroke="#9e034e" d="M138.889 63.333v11.111H150l5.556-5.555V57.778h-11.112z" stroke-width="2"/><path fill="#ffbde0" stroke="#9e034e" d="M138.889 63.333H150v11.111M150 63.333l5.556-5.555" stroke-width="2"/><path fill="#ffbde0" stroke="#9e034e" d="M138.889 52.222v11.111H150l5.556-5.555V46.667h-11.112z" stroke-width="2"/><path fill="#ffbde0" stroke="#9e034e" d="M138.889 52.222H150v11.111M150 52.222l5.556-5.555M138.889 41.111v11.111H150l5.556-5.555V35.556h-11.112z" stroke-width="2"/><path fill="#ffbde0" stroke="#9e034e" d="M138.889 41.111H150v11.111M150 41.111l5.556-5.555" stroke-width="2"/><path fill="#ffbde0" stroke="#9e034e" d="M138.889 30v11.111H150l5.556-5.555V24.444h-11.112z" stroke-width="2"/><path fill="#ffbde0" stroke="#9e034e" d="M138.889 30H150v11.111M150 30l5.556-5.556" stroke-width="2"/><path fill="#ffbde0" stroke="#9e034e" d="M138.889 18.889V30H150l5.556-5.556v-11.11h-11.112z" stroke-width="2"/><path fill="#ffbde0" stroke="#9e034e" d="M138.889 18.889H150V30M150 18.889l5.556-5.556M138.889 7.778v11.11H150l5.556-5.555V2.223h-11.112z" stroke-width="2"/><path fill="#ffbde0" stroke="#9e034e" d="M138.889 7.778H150v11.11M150 7.778l5.556-5.556M161.111 107.778v11.111h11.111l5.556-5.556v-11.111h-11.111z" stroke-width="2"/><path fill="#ffbde0" stroke="#9e034e" d="M161.111 107.778h11.111v11.111M172.222 107.778l5.556-5.556" stroke-width="2"/><path fill="#ffbde0" stroke="#9e034e" d="M161.111 96.667v11.111h11.111l5.556-5.556v-11.11h-11.111z" stroke-width="2"/><path fill="#ffbde0" stroke="#9e034e" d="M161.111 96.667h11.111v11.111M172.222 96.667l5.556-5.556M161.111 85.556v11.11h11.111l5.556-5.555V80h-11.111z" stroke-width="2"/><path fill="#ffbde0" stroke="#9e034e" d="M161.111 85.556h11.111v11.11M172.222 85.556L177.778 80" stroke-width="2"/><path fill="#ffbde0" stroke="#9e034e" d="M161.111 74.444v11.112h11.111L177.778 80V68.889h-11.111z" stroke-width="2"/><path fill="#ffbde0" stroke="#9e034e" d="M161.111 74.444h11.111v11.112M172.222 74.444l5.556-5.555" stroke-width="2"/><path fill="#ffbde0" stroke="#9e034e" d="M161.111 63.333v11.111h11.111l5.556-5.555V57.778h-11.111z" stroke-width="2"/><path fill="#ffbde0" stroke="#9e034e" d="M161.111 63.333h11.111v11.111M172.222 63.333l5.556-5.555" stroke-width="2"/><path fill="#ffbde0" stroke="#9e034e" d="M161.111 52.222v11.111h11.111l5.556-5.555V46.667h-11.111z" stroke-width="2"/><path fill="#ffbde0" stroke="#9e034e" d="M161.111 52.222h11.111v11.111M172.222 52.222l5.556-5.555M161.111 41.111v11.111h11.111l5.556-5.555V35.556h-11.111z" stroke-width="2"/><path fill="#ffbde0" stroke="#9e034e" d="M161.111 41.111h11.111v11.111M172.222 41.111l5.556-5.555" stroke-width="2"/><path fill="#ffbde0" stroke="#9e034e" d="M161.111 30v11.111h11.111l5.556-5.555V24.444h-11.111z" stroke-width="2"/><path fill="#ffbde0" stroke="#9e034e" d="M161.111 30h11.111v11.111M172.222 30l5.556-5.556" stroke-width="2"/><path fill="#ffbde0" stroke="#9e034e" d="M161.111 18.889V30h11.111l5.556-5.556v-11.11h-11.111z" stroke-width="2"/><path fill="#ffbde0" stroke="#9e034e" d="M161.111 18.889h11.111V30M172.222 18.889l5.556-5.556M161.111 7.778v11.11h11.111l5.556-5.555V2.223h-11.111z" stroke-width="2"/><path fill="#ffbde0" stroke="#9e034e" d="M161.111 7.778h11.111v11.11M172.222 7.778l5.556-5.556M183.333 107.778v11.111h11.111l5.556-5.556v-11.111h-11.111z" stroke-width="2"/><path fill="#ffbde0" stroke="#9e034e" d="M183.333 107.778h11.111v11.111M194.444 107.778l5.556-5.556M183.333 85.556v11.11h11.111L200 91.112V80h-11.111z" stroke-width="2"/><path fill="#ffbde0" stroke="#9e034e" d="M183.333 85.556h11.111v11.11M194.444 85.556L200 80M183.333 63.333v11.111h11.111L200 68.89V57.778h-11.111z" stroke-width="2"/><path fill="#ffbde0" stroke="#9e034e" d="M183.333 63.333h11.111v11.111M194.444 63.333L200 57.778" stroke-width="2"/><path fill="#ddd7ff" stroke="#543b78" d="M227.778 107.778v11.111h11.111l5.555-5.556v-11.111h-11.111z" stroke-width="2"/><path fill="#ddd7ff" stroke="#543b78" d="M227.778 107.778h11.111v11.111M238.889 107.778l5.555-5.556" stroke-width="2"/><path fill="#ddd7ff" stroke="#543b78" d="M227.778 96.667v11.111h11.111l5.555-5.556v-11.11h-11.111z" stroke-width="2"/><path fill="#ddd7ff" stroke="#543b78" d="M227.778 96.667h11.111v11.111M238.889 96.667l5.555-5.556M227.778 85.556v11.11h11.111l5.555-5.555V80h-11.111z" stroke-width="2"/><path fill="#ddd7ff" stroke="#543b78" d="M227.778 85.556h11.111v11.11M238.889 85.556L244.444 80" stroke-width="2"/><path fill="#ddd7ff" stroke="#543b78" d="M227.778 74.444v11.112h11.111L244.444 80V68.889h-11.111z" stroke-width="2"/><path fill="#ddd7ff" stroke="#543b78" d="M227.778 74.444h11.111v11.112M238.889 74.444l5.555-5.555" stroke-width="2"/><path fill="#ddd7ff" stroke="#543b78" d="M227.778 63.333v11.111h11.111l5.555-5.555V57.778h-11.111z" stroke-width="2"/><path fill="#ddd7ff" stroke="#543b78" d="M227.778 63.333h11.111v11.111M238.889 63.333l5.555-5.555" stroke-width="2"/><path fill="#ddd7ff" stroke="#543b78" d="M227.778 52.222v11.111h11.111l5.555-5.555V46.667h-11.111z" stroke-width="2"/><path fill="#ddd7ff" stroke="#543b78" d="M227.778 52.222h11.111v11.111M238.889 52.222l5.555-5.555M227.778 41.111v11.111h11.111l5.555-5.555V35.556h-11.111z" stroke-width="2"/><path fill="#ddd7ff" stroke="#543b78" d="M227.778 41.111h11.111v11.111M238.889 41.111l5.555-5.555" stroke-width="2"/><path fill="#ddd7ff" stroke="#543b78" d="M227.778 30v11.111h11.111l5.555-5.555V24.444h-11.111z" stroke-width="2"/><path fill="#ddd7ff" stroke="#543b78" d="M227.778 30h11.111v11.111M238.889 30l5.555-5.556" stroke-width="2"/><path fill="#ddd7ff" stroke="#543b78" d="M227.778 18.889V30h11.111l5.555-5.556v-11.11h-11.111z" stroke-width="2"/><path fill="#ddd7ff" stroke="#543b78" d="M227.778 18.889h11.111V30M238.889 18.889l5.555-5.556M227.778 7.778v11.11h11.111l5.555-5.555V2.223h-11.111z" stroke-width="2"/><path fill="#ddd7ff" stroke="#543b78" d="M227.778 7.778h11.111v11.11M238.889 7.778l5.555-5.556M250 107.778v11.111h11.111l5.556-5.556v-11.111h-11.111z" stroke-width="2"/><path fill="#ddd7ff" stroke="#543b78" d="M250 107.778h11.111v11.111M261.111 107.778l5.556-5.556" stroke-width="2"/><path fill="#ddd7ff" stroke="#543b78" d="M250 96.667v11.111h11.111l5.556-5.556v-11.11h-11.111z" stroke-width="2"/><path fill="#ddd7ff" stroke="#543b78" d="M250 96.667h11.111v11.111M261.111 96.667l5.556-5.556M250 85.556v11.11h11.111l5.556-5.555V80h-11.111z" stroke-width="2"/><path fill="#ddd7ff" stroke="#543b78" d="M250 85.556h11.111v11.11M261.111 85.556L266.667 80" stroke-width="2"/><path fill="#ddd7ff" stroke="#543b78" d="M250 74.444v11.112h11.111L266.667 80V68.889h-11.111z" stroke-width="2"/><path fill="#ddd7ff" stroke="#543b78" d="M250 74.444h11.111v11.112M261.111 74.444l5.556-5.555" stroke-width="2"/><path fill="#ddd7ff" stroke="#543b78" d="M250 63.333v11.111h11.111l5.556-5.555V57.778h-11.111z" stroke-width="2"/><path fill="#ddd7ff" stroke="#543b78" d="M250 63.333h11.111v11.111M261.111 63.333l5.556-5.555" stroke-width="2"/><path fill="#ddd7ff" stroke="#543b78" d="M250 52.222v11.111h11.111l5.556-5.555V46.667h-11.111z" stroke-width="2"/><path fill="#ddd7ff" stroke="#543b78" d="M250 52.222h11.111v11.111M261.111 52.222l5.556-5.555M250 41.111v11.111h11.111l5.556-5.555V35.556h-11.111z" stroke-width="2"/><path fill="#ddd7ff" stroke="#543b78" d="M250 41.111h11.111v11.111M261.111 41.111l5.556-5.555" stroke-width="2"/><path fill="#ddd7ff" stroke="#543b78" d="M250 30v11.111h11.111l5.556-5.555V24.444h-11.111z" stroke-width="2"/><path fill="#ddd7ff" stroke="#543b78" d="M250 30h11.111v11.111M261.111 30l5.556-5.556" stroke-width="2"/><path fill="#ddd7ff" stroke="#543b78" d="M250 18.889V30h11.111l5.556-5.556v-11.11h-11.111z" stroke-width="2"/><path fill="#ddd7ff" stroke="#543b78" d="M250 18.889h11.111V30M261.111 18.889l5.556-5.556M250 7.778v11.11h11.111l5.556-5.555V2.223h-11.111z" stroke-width="2"/><path fill="#ddd7ff" stroke="#543b78" d="M250 7.778h11.111v11.11M261.111 7.778l5.556-5.556M272.222 107.778v11.111h11.111l5.556-5.556v-11.111h-11.111z" stroke-width="2"/><path fill="#ddd7ff" stroke="#543b78" d="M272.222 107.778h11.111v11.111M283.333 107.778l5.556-5.556" stroke-width="2"/><path fill="#ddd7ff" stroke="#543b78" d="M272.222 96.667v11.111h11.111l5.556-5.556v-11.11h-11.111z" stroke-width="2"/><path fill="#ddd7ff" stroke="#543b78" d="M272.222 96.667h11.111v11.111M283.333 96.667l5.556-5.556M272.222 85.556v11.11h11.111l5.556-5.555V80h-11.111z" stroke-width="2"/><path fill="#ddd7ff" stroke="#543b78" d="M272.222 85.556h11.111v11.11M283.333 85.556L288.889 80" stroke-width="2"/><path fill="#ddd7ff" stroke="#543b78" d="M272.222 74.444v11.112h11.111L288.889 80V68.889h-11.111z" stroke-width="2"/><path fill="#ddd7ff" stroke="#543b78" d="M272.222 74.444h11.111v11.112M283.333 74.444l5.556-5.555" stroke-width="2"/><path fill="#ddd7ff" stroke="#543b78" d="M272.222 63.333v11.111h11.111l5.556-5.555V57.778h-11.111z" stroke-width="2"/><path fill="#ddd7ff" stroke="#543b78" d="M272.222 63.333h11.111v11.111M283.333 63.333l5.556-5.555" stroke-width="2"/><path fill="#ddd7ff" stroke="#543b78" d="M272.222 52.222v11.111h11.111l5.556-5.555V46.667h-11.111z" stroke-width="2"/><path fill="#ddd7ff" stroke="#543b78" d="M272.222 52.222h11.111v11.111M283.333 52.222l5.556-5.555M272.222 41.111v11.111h11.111l5.556-5.555V35.556h-11.111z" stroke-width="2"/><path fill="#ddd7ff" stroke="#543b78" d="M272.222 41.111h11.111v11.111M283.333 41.111l5.556-5.555" stroke-width="2"/><path fill="#ddd7ff" stroke="#543b78" d="M272.222 30v11.111h11.111l5.556-5.555V24.444h-11.111z" stroke-width="2"/><path fill="#ddd7ff" stroke="#543b78" d="M272.222 30h11.111v11.111M283.333 30l5.556-5.556" stroke-width="2"/><path fill="#ddd7ff" stroke="#543b78" d="M272.222 18.889V30h11.111l5.556-5.556v-11.11h-11.111z" stroke-width="2"/><path fill="#ddd7ff" stroke="#543b78" d="M272.222 18.889h11.111V30M283.333 18.889l5.556-5.556M272.222 7.778v11.11h11.111l5.556-5.555V2.223h-11.111z" stroke-width="2"/><path fill="#ddd7ff" stroke="#543b78" d="M272.222 7.778h11.111v11.11M283.333 7.778l5.556-5.556M294.444 107.778v11.111h11.112l5.555-5.556v-11.111H300z" stroke-width="2"/><path fill="#ddd7ff" stroke="#543b78" d="M294.444 107.778h11.112v11.111M305.556 107.778l5.555-5.556" stroke-width="2"/><path fill="#ddd7ff" stroke="#543b78" d="M294.444 96.667v11.111h11.112l5.555-5.556v-11.11H300z" stroke-width="2"/><path fill="#ddd7ff" stroke="#543b78" d="M294.444 96.667h11.112v11.111M305.556 96.667l5.555-5.556M294.444 85.556v11.11h11.112l5.555-5.555V80H300z" stroke-width="2"/><path fill="#ddd7ff" stroke="#543b78" d="M294.444 85.556h11.112v11.11M305.556 85.556L311.111 80" stroke-width="2"/><path fill="#ddd7ff" stroke="#543b78" d="M294.444 74.444v11.112h11.112L311.111 80V68.889H300z" stroke-width="2"/><path fill="#ddd7ff" stroke="#543b78" d="M294.444 74.444h11.112v11.112M305.556 74.444l5.555-5.555" stroke-width="2"/><path fill="#ddd7ff" stroke="#543b78" d="M294.444 63.333v11.111h11.112l5.555-5.555V57.778H300z" stroke-width="2"/><path fill="#ddd7ff" stroke="#543b78" d="M294.444 63.333h11.112v11.111M305.556 63.333l5.555-5.555" stroke-width="2"/><path fill="#ddd7ff" stroke="#543b78" d="M294.444 52.222v11.111h11.112l5.555-5.555V46.667H300z" stroke-width="2"/><path fill="#ddd7ff" stroke="#543b78" d="M294.444 52.222h11.112v11.111M305.556 52.222l5.555-5.555M294.444 41.111v11.111h11.112l5.555-5.555V35.556H300z" stroke-width="2"/><path fill="#ddd7ff" stroke="#543b78" d="M294.444 41.111h11.112v11.111M305.556 41.111l5.555-5.555" stroke-width="2"/><path fill="#ddd7ff" stroke="#543b78" d="M294.444 30v11.111h11.112l5.555-5.555V24.444H300z" stroke-width="2"/><path fill="#ddd7ff" stroke="#543b78" d="M294.444 30h11.112v11.111M305.556 30l5.555-5.556" stroke-width="2"/><path fill="#ddd7ff" stroke="#543b78" d="M294.444 18.889V30h11.112l5.555-5.556v-11.11H300z" stroke-width="2"/><path fill="#ddd7ff" stroke="#543b78" d="M294.444 18.889h11.112V30M305.556 18.889l5.555-5.556M294.444 7.778v11.11h11.112l5.555-5.555V2.223H300z" stroke-width="2"/><path fill="#ddd7ff" stroke="#543b78" d="M294.444 7.778h11.112v11.11M305.556 7.778l5.555-5.556" stroke-width="2"/><path fill="#ffbde0" stroke="#9e034e" d="M316.667 107.778v11.111h11.111l5.555-5.556v-11.111h-11.111z" stroke-width="2"/><path fill="#ffbde0" stroke="#9e034e" d="M316.667 107.778h11.111v11.111M327.778 107.778l5.555-5.556" stroke-width="2"/><path fill="#ffbde0" stroke="#9e034e" d="M316.667 96.667v11.111h11.111l5.555-5.556v-11.11h-11.111z" stroke-width="2"/><path fill="#ffbde0" stroke="#9e034e" d="M316.667 96.667h11.111v11.111M327.778 96.667l5.555-5.556M316.667 85.556v11.11h11.111l5.555-5.555V80h-11.111z" stroke-width="2"/><path fill="#ffbde0" stroke="#9e034e" d="M316.667 85.556h11.111v11.11M327.778 85.556L333.333 80" stroke-width="2"/><path fill="#ffbde0" stroke="#9e034e" d="M316.667 74.444v11.112h11.111L333.333 80V68.889h-11.111z" stroke-width="2"/><path fill="#ffbde0" stroke="#9e034e" d="M316.667 74.444h11.111v11.112M327.778 74.444l5.555-5.555" stroke-width="2"/><path fill="#ffbde0" stroke="#9e034e" d="M316.667 63.333v11.111h11.111l5.555-5.555V57.778h-11.111z" stroke-width="2"/><path fill="#ffbde0" stroke="#9e034e" d="M316.667 63.333h11.111v11.111M327.778 63.333l5.555-5.555" stroke-width="2"/><path fill="#ffbde0" stroke="#9e034e" d="M316.667 52.222v11.111h11.111l5.555-5.555V46.667h-11.111z" stroke-width="2"/><path fill="#ffbde0" stroke="#9e034e" d="M316.667 52.222h11.111v11.111M327.778 52.222l5.555-5.555M316.667 41.111v11.111h11.111l5.555-5.555V35.556h-11.111z" stroke-width="2"/><path fill="#ffbde0" stroke="#9e034e" d="M316.667 41.111h11.111v11.111M327.778 41.111l5.555-5.555" stroke-width="2"/><path fill="#ffbde0" stroke="#9e034e" d="M316.667 30v11.111h11.111l5.555-5.555V24.444h-11.111z" stroke-width="2"/><path fill="#ffbde0" stroke="#9e034e" d="M316.667 30h11.111v11.111M327.778 30l5.555-5.556" stroke-width="2"/><path fill="#ffbde0" stroke="#9e034e" d="M316.667 18.889V30h11.111l5.555-5.556v-11.11h-11.111z" stroke-width="2"/><path fill="#ffbde0" stroke="#9e034e" d="M316.667 18.889h11.111V30M327.778 18.889l5.555-5.556M316.667 7.778v11.11h11.111l5.555-5.555V2.223h-11.111z" stroke-width="2"/><path fill="#ffbde0" stroke="#9e034e" d="M316.667 7.778h11.111v11.11M327.778 7.778l5.555-5.556M338.889 107.778v11.111H350l5.556-5.556v-11.111h-11.112z" stroke-width="2"/><path fill="#ffbde0" stroke="#9e034e" d="M338.889 107.778H350v11.111M350 107.778l5.556-5.556" stroke-width="2"/><path fill="#ffbde0" stroke="#9e034e" d="M338.889 96.667v11.111H350l5.556-5.556v-11.11h-11.112z" stroke-width="2"/><path fill="#ffbde0" stroke="#9e034e" d="M338.889 96.667H350v11.111M350 96.667l5.556-5.556M338.889 85.556v11.11H350l5.556-5.555V80h-11.112z" stroke-width="2"/><path fill="#ffbde0" stroke="#9e034e" d="M338.889 85.556H350v11.11M350 85.556L355.556 80" stroke-width="2"/><path fill="#ffbde0" stroke="#9e034e" d="M338.889 74.444v11.112H350L355.556 80V68.889h-11.112z" stroke-width="2"/><path fill="#ffbde0" stroke="#9e034e" d="M338.889 74.444H350v11.112M350 74.444l5.556-5.555" stroke-width="2"/><path fill="#ffbde0" stroke="#9e034e" d="M338.889 63.333v11.111H350l5.556-5.555V57.778h-11.112z" stroke-width="2"/><path fill="#ffbde0" stroke="#9e034e" d="M338.889 63.333H350v11.111M350 63.333l5.556-5.555" stroke-width="2"/><path fill="#ffbde0" stroke="#9e034e" d="M338.889 52.222v11.111H350l5.556-5.555V46.667h-11.112z" stroke-width="2"/><path fill="#ffbde0" stroke="#9e034e" d="M338.889 52.222H350v11.111M350 52.222l5.556-5.555M338.889 41.111v11.111H350l5.556-5.555V35.556h-11.112z" stroke-width="2"/><path fill="#ffbde0" stroke="#9e034e" d="M338.889 41.111H350v11.111M350 41.111l5.556-5.555" stroke-width="2"/><path fill="#ffbde0" stroke="#9e034e" d="M338.889 30v11.111H350l5.556-5.555V24.444h-11.112z" stroke-width="2"/><path fill="#ffbde0" stroke="#9e034e" d="M338.889 30H350v11.111M350 30l5.556-5.556" stroke-width="2"/><path fill="#ffbde0" stroke="#9e034e" d="M338.889 18.889V30H350l5.556-5.556v-11.11h-11.112z" stroke-width="2"/><path fill="#ffbde0" stroke="#9e034e" d="M338.889 18.889H350V30M350 18.889l5.556-5.556M338.889 7.778v11.11H350l5.556-5.555V2.223h-11.112z" stroke-width="2"/><path fill="#ffbde0" stroke="#9e034e" d="M338.889 7.778H350v11.11M350 7.778l5.556-5.556" stroke-width="2"/><path fill="#ddd7ff" stroke="#543b78" d="M361.111 107.778v11.111h11.111l5.556-5.556v-11.111h-11.111z" stroke-width="2"/><path fill="#ddd7ff" stroke="#543b78" d="M361.111 107.778h11.111v11.111M372.222 107.778l5.556-5.556M361.111 85.556v11.11h11.111l5.556-5.555V80h-11.111z" stroke-width="2"/><path fill="#ddd7ff" stroke="#543b78" d="M361.111 85.556h11.111v11.11M372.222 85.556L377.778 80M361.111 63.333v11.111h11.111l5.556-5.555V57.778h-11.111z" stroke-width="2"/><path fill="#ddd7ff" stroke="#543b78" d="M361.111 63.333h11.111v11.111M372.222 63.333l5.556-5.555M361.111 41.111v11.111h11.111l5.556-5.555V35.556h-11.111z" stroke-width="2"/><path fill="#ddd7ff" stroke="#543b78" d="M361.111 41.111h11.111v11.111M372.222 41.111l5.556-5.555" stroke-width="2"/><path fill="#ffbde0" stroke="#9e034e" d="M361.111 18.889V30h11.111l5.556-5.556v-11.11h-11.111z" stroke-width="2"/><path fill="#ffbde0" stroke="#9e034e" d="M361.111 18.889h11.111V30M372.222 18.889l5.556-5.556M383.333 107.778v11.111h11.111l5.556-5.556v-11.111h-11.111z" stroke-width="2"/><path fill="#ffbde0" stroke="#9e034e" d="M383.333 107.778h11.111v11.111M394.444 107.778l5.556-5.556M383.333 85.556v11.11h11.111L400 91.112V80h-11.111z" stroke-width="2"/><path fill="#ffbde0" stroke="#9e034e" d="M383.333 85.556h11.111v11.11M394.444 85.556L400 80" stroke-width="2"/></svg>
