<svg xmlns="http://www.w3.org/2000/svg" version="1.1" width="449.99999999999994" height="158.71369294605807" viewBox="0 0 449.99999999999994 158.71369294605807"><defs/><path fill="#28ae7b" stroke="#28ae7b" d="M 1.86722,149.378 L 1.86722,78.4232 L 442.531,78.4232 L 442.531,149.378 Z" style="stroke-width: 2px;fill-opacity: 0;stroke-opacity: 1" stroke-width="2" fill-opacity="0" stroke-opacity="1" stroke-dasharray="0"/><path fill="#bed575" stroke="none" d="M 31.9555,118.444 S 32.3655,116.348 31.6315,114.66 C 31.1205,113.483 28.2745,114.798 24.7785,116.653 C 20.8395,118.744 17.6215,115.59 18.9945,119.215 C 20.3475,122.788 23.7235,124.861 27.1545,123.381 C 29.1105,122.538 31.4675,120.98 31.9555,118.444 Z" transform=""/><path fill="#d0e285" stroke="none" d="M 45.9343,116.35 S 45.1373,114.846 45.3063,113.388 C 45.4243,112.372 47.9003,112.718 50.9953,113.325 C 54.4833,114.01 56.2093,110.86 55.9993,113.943 C 55.7933,116.98 53.6963,119.343 50.7373,119.007 C 49.0503,118.816 46.8923,118.172 45.9343,116.35 Z" transform=""/><path fill="#d0e285" stroke="none" d="M 35.8163,123.27 S 35.4063,121.174 36.1403,119.486 C 36.6513,118.309 39.4973,119.624 42.9933,121.479 C 46.9323,123.57 50.1503,120.416 48.7773,124.041 C 47.4243,127.614 44.0483,129.687 40.6173,128.207 C 38.6613,127.364 36.3033,125.806 35.8163,123.27 Z" transform=""/><ellipse cx="38.343466119635195" cy="112.57640069762587" rx="14.316787265073852" ry="9.47968469385624" fill="#bed575" stroke="none" r="NaN" transform=""/><path fill="#bed575" stroke="none" d="M 26.6673,110.527 C 26.6673,115.537 32.1293,119.599 38.8673,119.599 S 51.0663,115.537 51.0663,110.527 S 45.4373,99.1112 38.7003,99.1112 S 26.6673,105.517 26.6673,110.527 Z" transform=""/><path fill="#a9bc65" stroke="none" d="M 35.32,111.637 L 38.811,113.842 L 42.466,111.921 L 42.63,107.795 L 39.139,105.59 L 35.484,107.511 Z" transform=""/><path fill="#a9bc65" stroke="none" d="M 33.6779,111.714 L 33.8419,107.588 L 30.3509,105.383 L 27.7069,106.773 C 27.0399,108.146 26.6679,109.566 26.6679,110.888 C 26.6679,111.106 26.6819,111.322 26.7019,111.537 L 30.0229,113.635 L 33.6779,111.714 Z" transform=""/><path fill="#a9bc65" stroke="none" d="M 39.8787,100.737 L 40.0097,104.419 L 42.9687,106.616 L 45.7957,105.13 L 45.6787,101.84 C 44.4417,100.952 43.0467,100.259 41.5527,99.8574 L 39.8787,100.737 Z" transform=""/><path fill="#a9bc65" stroke="none" d="M 43.7835,112.486 L 47.2745,114.691 L 50.7775,112.85 C 50.8515,112.601 50.9105,112.347 50.9565,112.091 L 51.0305,110.222 C 50.9725,109.609 50.8385,108.983 50.6325,108.353 L 47.6025,106.439 L 43.9475,108.36 L 43.7835,112.486 Z" transform=""/><path fill="#a9bc65" stroke="none" d="M 30.4952,105.016 L 33.5822,106.988 L 37.5312,104.854 L 38.3932,100.749 L 36.6962,99.6646 C 34.5532,100.074 32.6152,101.108 31.0272,102.481 L 30.4952,105.016 Z" transform=""/><path fill="#a9bc65" stroke="none" d="M 47.4966,103.391 L 47.4386,104.855 L 49.7096,106.289 C 49.1276,105.267 48.3796,104.281 47.4966,103.391 Z" transform=""/><path fill="#a9bc65" stroke="none" d="M 45.9417,118.277 L 46.0337,115.955 L 42.5427,113.75 L 38.8877,115.671 L 38.7237,119.797 L 38.9797,119.959 C 41.5747,119.94 43.9747,119.32 45.9417,118.277 Z" transform=""/><path fill="#a9bc65" stroke="none" d="M 37.7965,119.224 L 37.9605,115.098 L 34.4695,112.893 L 30.8145,114.814 L 30.7025,117.628 C 32.3495,118.733 34.4045,119.505 36.6775,119.812 L 37.7965,119.224 Z" transform=""/><path fill="#a9bc65" stroke="none" d="M 50.3198,114.02 L 47.1788,115.67 L 47.1038,117.579 C 48.5268,116.61 49.6408,115.394 50.3198,114.02 Z" transform=""/><path fill="#a9bc65" stroke="none" d="M 29.5765,116.765 L 29.6615,114.618 L 26.9795,112.924 C 27.4245,114.366 28.3295,115.676 29.5765,116.765 Z" transform=""/><path fill="#a9bc65" stroke="none" d="M 30.9435,108.694 S 32.7835,107.611 34.6205,107.742 C 35.9005,107.833 37.3995,108.066 38.6735,109.298 C 40.4075,110.975 40.8175,113.741 40.8395,115.157 C 40.8955,118.897 38.3975,121.265 34.5225,121.175 C 30.7035,121.086 27.6255,118.59 27.8815,114.862 C 28.0265,112.737 28.7135,109.996 30.9435,108.694 Z" style="opacity: 0.7" opacity="0.7" transform=""/><path fill="#d0e285" stroke="none" d="M 25.01,116.48 S 25.675,114.693 27,113.734 C 27.923,113.065 29.072,112.368 30.614,112.479 C 32.712,112.629 29.425,115.356 31.158,118.352 C 33.111,121.728 36.955,120.771 34.262,122.921 C 31.607,125.041 28.145,125.101 26.287,122.421 C 25.226,120.893 24.199,118.638 25.01,116.48 Z" transform=""/><path fill="#d0e285" stroke="none" d="M 24.4568,104.634 S 26.2968,103.551 28.1338,103.682 C 29.4138,103.773 30.9128,104.006 32.1868,105.238 C 33.9208,106.915 34.3308,109.681 34.3528,111.097 C 34.4088,114.837 31.9108,117.205 28.0358,117.115 C 24.2168,117.026 21.1388,114.53 21.3948,110.802 C 21.5398,108.677 22.2268,105.936 24.4568,104.634 Z" transform=""/><ellipse cx="29.46338128600769" cy="110.76197300125493" rx="0.48403925576629203" ry="0.6728022280659759" fill="#304454" stroke="none" transform="rotate(188.8934 29.463381281002192 110.76197293458145)" r="NaN"/><ellipse cx="23.806249772138273" cy="109.57469950048716" rx="0.48403925576629203" ry="0.6728022280659759" fill="#304454" stroke="none" transform="rotate(188.8934 23.806249588290967 109.57469907613006)" r="NaN"/><ellipse cx="26.461679892770498" cy="113.6880046019256" rx="1.3484831942715985" ry="1.2053687839005964" fill="#c75e72" stroke="none" r="NaN" transform=""/><ellipse cx="25.371049308495106" cy="112.48263591842742" rx="2.0891413927721016" ry="1.4138716748721427" fill="#d0e285" stroke="none" r="NaN" transform=""/><path fill="#bed575" stroke="none" d="M 73.0344,118.444 S 73.4444,116.348 72.7104,114.66 C 72.1994,113.483 69.3534,114.798 65.8574,116.653 C 61.9184,118.744 58.7004,115.59 60.0734,119.215 C 61.4264,122.788 64.8024,124.861 68.2334,123.381 C 70.1894,122.538 72.5464,120.98 73.0344,118.444 Z" transform=""/><path fill="#d0e285" stroke="none" d="M 87.0131,116.35 S 86.2161,114.846 86.3851,113.388 C 86.5031,112.372 88.9791,112.718 92.0741,113.325 C 95.5621,114.01 97.2881,110.86 97.0781,113.943 C 96.8721,116.98 94.7751,119.343 91.8161,119.007 C 90.1291,118.816 87.9711,118.172 87.0131,116.35 Z" transform=""/><path fill="#d0e285" stroke="none" d="M 76.8952,123.27 S 76.4852,121.174 77.2192,119.486 C 77.7302,118.309 80.5762,119.624 84.0722,121.479 C 88.0112,123.57 91.2292,120.416 89.8562,124.041 C 88.5032,127.614 85.1272,129.687 81.6962,128.207 C 79.7402,127.364 77.3822,125.806 76.8952,123.27 Z" transform=""/><ellipse cx="79.42230429390905" cy="112.57640069762587" rx="14.316787265073852" ry="9.47968469385624" fill="#bed575" stroke="none" r="NaN" transform=""/><path fill="#bed575" stroke="none" d="M 67.7461,110.527 C 67.7461,115.537 73.2081,119.599 79.9461,119.599 S 92.1451,115.537 92.1451,110.527 S 86.5161,99.1112 79.7791,99.1112 S 67.7461,105.517 67.7461,110.527 Z" transform=""/><path fill="#a9bc65" stroke="none" d="M 76.3988,111.637 L 79.8898,113.842 L 83.5448,111.921 L 83.7088,107.795 L 80.2178,105.59 L 76.5628,107.511 Z" transform=""/><path fill="#a9bc65" stroke="none" d="M 74.7567,111.714 L 74.9207,107.588 L 71.4297,105.383 L 68.7857,106.773 C 68.1187,108.146 67.7467,109.566 67.7467,110.888 C 67.7467,111.106 67.7607,111.322 67.7807,111.537 L 71.1017,113.635 L 74.7567,111.714 Z" transform=""/><path fill="#a9bc65" stroke="none" d="M 80.9575,100.737 L 81.0885,104.419 L 84.0475,106.616 L 86.8745,105.13 L 86.7575,101.84 C 85.5205,100.952 84.1255,100.259 82.6315,99.8574 L 80.9575,100.737 Z" transform=""/><path fill="#a9bc65" stroke="none" d="M 84.8623,112.486 L 88.3533,114.691 L 91.8563,112.85 C 91.9303,112.601 91.9893,112.347 92.0353,112.091 L 92.1093,110.222 C 92.0513,109.609 91.9173,108.983 91.7113,108.353 L 88.6813,106.439 L 85.0263,108.36 L 84.8623,112.486 Z" transform=""/><path fill="#a9bc65" stroke="none" d="M 71.574,105.016 L 74.661,106.988 L 78.61,104.854 L 79.472,100.749 L 77.775,99.6646 C 75.632,100.074 73.694,101.108 72.106,102.481 L 71.574,105.016 Z" transform=""/><path fill="#a9bc65" stroke="none" d="M 88.5755,103.391 L 88.5175,104.855 L 90.7885,106.289 C 90.2065,105.267 89.4585,104.281 88.5755,103.391 Z" transform=""/><path fill="#a9bc65" stroke="none" d="M 87.0205,118.277 L 87.1125,115.955 L 83.6215,113.75 L 79.9665,115.671 L 79.8025,119.797 L 80.0585,119.959 C 82.6535,119.94 85.0535,119.32 87.0205,118.277 Z" transform=""/><path fill="#a9bc65" stroke="none" d="M 78.8753,119.224 L 79.0393,115.098 L 75.5483,112.893 L 71.8933,114.814 L 71.7813,117.628 C 73.4283,118.733 75.4833,119.505 77.7563,119.812 L 78.8753,119.224 Z" transform=""/><path fill="#a9bc65" stroke="none" d="M 91.3987,114.02 L 88.2577,115.67 L 88.1827,117.579 C 89.6057,116.61 90.7197,115.394 91.3987,114.02 Z" transform=""/><path fill="#a9bc65" stroke="none" d="M 70.6553,116.765 L 70.7403,114.618 L 68.0583,112.924 C 68.5033,114.366 69.4083,115.676 70.6553,116.765 Z" transform=""/><path fill="#a9bc65" stroke="none" d="M 72.0223,108.694 S 73.8623,107.611 75.6993,107.742 C 76.9793,107.833 78.4783,108.066 79.7523,109.298 C 81.4863,110.975 81.8963,113.741 81.9183,115.157 C 81.9743,118.897 79.4763,121.265 75.6013,121.175 C 71.7823,121.086 68.7043,118.59 68.9603,114.862 C 69.1053,112.737 69.7923,109.996 72.0223,108.694 Z" style="opacity: 0.7" opacity="0.7" transform=""/><path fill="#d0e285" stroke="none" d="M 66.0888,116.48 S 66.7538,114.693 68.0788,113.734 C 69.0018,113.065 70.1508,112.368 71.6928,112.479 C 73.7908,112.629 70.5038,115.356 72.2368,118.352 C 74.1898,121.728 78.0338,120.771 75.3408,122.921 C 72.6858,125.041 69.2238,125.101 67.3658,122.421 C 66.3048,120.893 65.2778,118.638 66.0888,116.48 Z" transform=""/><path fill="#d0e285" stroke="none" d="M 65.5357,104.634 S 67.3757,103.551 69.2127,103.682 C 70.4927,103.773 71.9917,104.006 73.2657,105.238 C 74.9997,106.915 75.4097,109.681 75.4317,111.097 C 75.4877,114.837 72.9897,117.205 69.1147,117.115 C 65.2957,117.026 62.2177,114.53 62.4737,110.802 C 62.6187,108.677 63.3057,105.936 65.5357,104.634 Z" transform=""/><ellipse cx="70.54221946028154" cy="110.76197300125493" rx="0.48403925576629203" ry="0.6728022280659759" fill="#304454" stroke="none" transform="rotate(188.8934 70.54221945527605 110.76197293458145)" r="NaN"/><ellipse cx="64.88508794641213" cy="109.57469950048716" rx="0.48403925576629203" ry="0.6728022280659759" fill="#304454" stroke="none" transform="rotate(188.8934 64.88508776256482 109.57469907613006)" r="NaN"/><ellipse cx="67.54051806704436" cy="113.6880046019256" rx="1.3484831942715985" ry="1.2053687839005964" fill="#c75e72" stroke="none" r="NaN" transform=""/><ellipse cx="66.44988748276896" cy="112.48263591842742" rx="2.0891413927721016" ry="1.4138716748721427" fill="#d0e285" stroke="none" r="NaN" transform=""/><path fill="#bed575" stroke="none" d="M 114.113,118.444 S 114.523,116.348 113.789,114.66 C 113.278,113.483 110.432,114.798 106.936,116.653 C 102.997,118.744 99.7792,115.59 101.152,119.215 C 102.505,122.788 105.881,124.861 109.312,123.381 C 111.268,122.538 113.625,120.98 114.113,118.444 Z" transform=""/><path fill="#d0e285" stroke="none" d="M 128.092,116.35 S 127.295,114.846 127.464,113.388 C 127.582,112.372 130.058,112.718 133.153,113.325 C 136.641,114.01 138.367,110.86 138.157,113.943 C 137.951,116.98 135.854,119.343 132.895,119.007 C 131.208,118.816 129.05,118.172 128.092,116.35 Z" transform=""/><path fill="#d0e285" stroke="none" d="M 117.974,123.27 S 117.564,121.174 118.298,119.486 C 118.809,118.309 121.655,119.624 125.151,121.479 C 129.09,123.57 132.308,120.416 130.935,124.041 C 129.582,127.614 126.206,129.687 122.775,128.207 C 120.819,127.364 118.461,125.806 117.974,123.27 Z" transform=""/><ellipse cx="120.5011424681829" cy="112.57640069762587" rx="14.316787265073852" ry="9.47968469385624" fill="#bed575" stroke="none" r="NaN" transform=""/><path fill="#bed575" stroke="none" d="M 108.825,110.527 C 108.825,115.537 114.287,119.599 121.025,119.599 S 133.224,115.537 133.224,110.527 S 127.595,99.1112 120.858,99.1112 S 108.825,105.517 108.825,110.527 Z" transform=""/><path fill="#a9bc65" stroke="none" d="M 117.478,111.637 L 120.969,113.842 L 124.624,111.921 L 124.788,107.795 L 121.297,105.59 L 117.642,107.511 Z" transform=""/><path fill="#a9bc65" stroke="none" d="M 115.836,111.714 L 116,107.588 L 112.509,105.383 L 109.865,106.773 C 109.198,108.146 108.826,109.566 108.826,110.888 C 108.826,111.106 108.84,111.322 108.86,111.537 L 112.181,113.635 L 115.836,111.714 Z" transform=""/><path fill="#a9bc65" stroke="none" d="M 122.036,100.737 L 122.167,104.419 L 125.126,106.616 L 127.953,105.13 L 127.836,101.84 C 126.599,100.952 125.204,100.259 123.71,99.8574 L 122.036,100.737 Z" transform=""/><path fill="#a9bc65" stroke="none" d="M 125.941,112.486 L 129.432,114.691 L 132.935,112.85 C 133.009,112.601 133.068,112.347 133.114,112.091 L 133.188,110.222 C 133.13,109.609 132.996,108.983 132.79,108.353 L 129.76,106.439 L 126.105,108.36 L 125.941,112.486 Z" transform=""/><path fill="#a9bc65" stroke="none" d="M 112.653,105.016 L 115.74,106.988 L 119.689,104.854 L 120.551,100.749 L 118.854,99.6646 C 116.711,100.074 114.773,101.108 113.185,102.481 L 112.653,105.016 Z" transform=""/><path fill="#a9bc65" stroke="none" d="M 129.654,103.391 L 129.596,104.855 L 131.867,106.289 C 131.285,105.267 130.537,104.281 129.654,103.391 Z" transform=""/><path fill="#a9bc65" stroke="none" d="M 128.099,118.277 L 128.191,115.955 L 124.7,113.75 L 121.045,115.671 L 120.881,119.797 L 121.137,119.959 C 123.732,119.94 126.132,119.32 128.099,118.277 Z" transform=""/><path fill="#a9bc65" stroke="none" d="M 119.954,119.224 L 120.118,115.098 L 116.627,112.893 L 112.972,114.814 L 112.86,117.628 C 114.507,118.733 116.562,119.505 118.835,119.812 L 119.954,119.224 Z" transform=""/><path fill="#a9bc65" stroke="none" d="M 132.478,114.02 L 129.337,115.67 L 129.262,117.579 C 130.685,116.61 131.799,115.394 132.478,114.02 Z" transform=""/><path fill="#a9bc65" stroke="none" d="M 111.734,116.765 L 111.819,114.618 L 109.137,112.924 C 109.582,114.366 110.487,115.676 111.734,116.765 Z" transform=""/><path fill="#a9bc65" stroke="none" d="M 113.101,108.694 S 114.941,107.611 116.778,107.742 C 118.058,107.833 119.557,108.066 120.831,109.298 C 122.565,110.975 122.975,113.741 122.997,115.157 C 123.053,118.897 120.555,121.265 116.68,121.175 C 112.861,121.086 109.783,118.59 110.039,114.862 C 110.184,112.737 110.871,109.996 113.101,108.694 Z" style="opacity: 0.7" opacity="0.7" transform=""/><path fill="#d0e285" stroke="none" d="M 107.168,116.48 S 107.833,114.693 109.158,113.734 C 110.081,113.065 111.23,112.368 112.772,112.479 C 114.87,112.629 111.583,115.356 113.316,118.352 C 115.269,121.728 119.113,120.771 116.42,122.921 C 113.765,125.041 110.303,125.101 108.445,122.421 C 107.384,120.893 106.357,118.638 107.168,116.48 Z" transform=""/><path fill="#d0e285" stroke="none" d="M 106.615,104.634 S 108.455,103.551 110.292,103.682 C 111.572,103.773 113.071,104.006 114.345,105.238 C 116.079,106.915 116.489,109.681 116.511,111.097 C 116.567,114.837 114.069,117.205 110.194,117.115 C 106.375,117.026 103.297,114.53 103.553,110.802 C 103.698,108.677 104.385,105.936 106.615,104.634 Z" transform=""/><ellipse cx="111.62105763455541" cy="110.76197300125493" rx="0.48403925576629203" ry="0.6728022280659759" fill="#304454" stroke="none" transform="rotate(188.8934 111.62105762954991 110.76197293458145)" r="NaN"/><ellipse cx="105.963926120686" cy="109.57469950048716" rx="0.48403925576629203" ry="0.6728022280659759" fill="#304454" stroke="none" transform="rotate(188.8934 105.96392593683869 109.57469907613006)" r="NaN"/><ellipse cx="108.61935624131821" cy="113.6880046019256" rx="1.3484831942715985" ry="1.2053687839005964" fill="#c75e72" stroke="none" r="NaN" transform=""/><ellipse cx="107.52872565704283" cy="112.48263591842742" rx="2.0891413927721016" ry="1.4138716748721427" fill="#d0e285" stroke="none" r="NaN" transform=""/><path fill="#bed575" stroke="none" d="M 155.192,118.444 S 155.602,116.348 154.868,114.66 C 154.357,113.483 151.511,114.798 148.015,116.653 C 144.076,118.744 140.858,115.59 142.231,119.215 C 143.584,122.788 146.96,124.861 150.391,123.381 C 152.347,122.538 154.704,120.98 155.192,118.444 Z" transform=""/><path fill="#d0e285" stroke="none" d="M 169.171,116.35 S 168.374,114.846 168.543,113.388 C 168.661,112.372 171.137,112.718 174.232,113.325 C 177.72,114.01 179.446,110.86 179.236,113.943 C 179.03,116.98 176.933,119.343 173.974,119.007 C 172.287,118.816 170.129,118.172 169.171,116.35 Z" transform=""/><path fill="#d0e285" stroke="none" d="M 159.053,123.27 S 158.643,121.174 159.377,119.486 C 159.888,118.309 162.734,119.624 166.23,121.479 C 170.169,123.57 173.387,120.416 172.014,124.041 C 170.661,127.614 167.285,129.687 163.854,128.207 C 161.898,127.364 159.54,125.806 159.053,123.27 Z" transform=""/><ellipse cx="161.57998064245677" cy="112.57640069762587" rx="14.316787265073852" ry="9.47968469385624" fill="#bed575" stroke="none" r="NaN" transform=""/><path fill="#bed575" stroke="none" d="M 149.904,110.527 C 149.904,115.537 155.366,119.599 162.104,119.599 S 174.303,115.537 174.303,110.527 S 168.674,99.1112 161.937,99.1112 S 149.904,105.517 149.904,110.527 Z" transform=""/><path fill="#a9bc65" stroke="none" d="M 158.556,111.637 L 162.047,113.842 L 165.702,111.921 L 165.866,107.795 L 162.375,105.59 L 158.72,107.511 Z" transform=""/><path fill="#a9bc65" stroke="none" d="M 156.914,111.714 L 157.078,107.588 L 153.587,105.383 L 150.943,106.773 C 150.276,108.146 149.904,109.566 149.904,110.888 C 149.904,111.106 149.918,111.322 149.938,111.537 L 153.259,113.635 L 156.914,111.714 Z" transform=""/><path fill="#a9bc65" stroke="none" d="M 163.115,100.737 L 163.246,104.419 L 166.205,106.616 L 169.032,105.13 L 168.915,101.84 C 167.678,100.952 166.283,100.259 164.789,99.8574 L 163.115,100.737 Z" transform=""/><path fill="#a9bc65" stroke="none" d="M 167.02,112.486 L 170.511,114.691 L 174.014,112.85 C 174.088,112.601 174.147,112.347 174.193,112.091 L 174.267,110.222 C 174.209,109.609 174.075,108.983 173.869,108.353 L 170.839,106.439 L 167.184,108.36 L 167.02,112.486 Z" transform=""/><path fill="#a9bc65" stroke="none" d="M 153.732,105.016 L 156.819,106.988 L 160.768,104.854 L 161.63,100.749 L 159.933,99.6646 C 157.79,100.074 155.852,101.108 154.264,102.481 L 153.732,105.016 Z" transform=""/><path fill="#a9bc65" stroke="none" d="M 170.733,103.391 L 170.675,104.855 L 172.946,106.289 C 172.364,105.267 171.616,104.281 170.733,103.391 Z" transform=""/><path fill="#a9bc65" stroke="none" d="M 169.178,118.277 L 169.27,115.955 L 165.779,113.75 L 162.124,115.671 L 161.96,119.797 L 162.216,119.959 C 164.811,119.94 167.211,119.32 169.178,118.277 Z" transform=""/><path fill="#a9bc65" stroke="none" d="M 161.033,119.224 L 161.197,115.098 L 157.706,112.893 L 154.051,114.814 L 153.939,117.628 C 155.586,118.733 157.641,119.505 159.914,119.812 L 161.033,119.224 Z" transform=""/><path fill="#a9bc65" stroke="none" d="M 173.556,114.02 L 170.415,115.67 L 170.34,117.579 C 171.763,116.61 172.877,115.394 173.556,114.02 Z" transform=""/><path fill="#a9bc65" stroke="none" d="M 152.813,116.765 L 152.898,114.618 L 150.216,112.924 C 150.661,114.366 151.566,115.676 152.813,116.765 Z" transform=""/><path fill="#a9bc65" stroke="none" d="M 154.18,108.694 S 156.02,107.611 157.857,107.742 C 159.137,107.833 160.636,108.066 161.91,109.298 C 163.644,110.975 164.054,113.741 164.076,115.157 C 164.132,118.897 161.634,121.265 157.759,121.175 C 153.94,121.086 150.862,118.59 151.118,114.862 C 151.263,112.737 151.95,109.996 154.18,108.694 Z" style="opacity: 0.7" opacity="0.7" transform=""/><path fill="#d0e285" stroke="none" d="M 148.246,116.48 S 148.911,114.693 150.236,113.734 C 151.159,113.065 152.308,112.368 153.85,112.479 C 155.948,112.629 152.661,115.356 154.394,118.352 C 156.347,121.728 160.191,120.771 157.498,122.921 C 154.843,125.041 151.381,125.101 149.523,122.421 C 148.462,120.893 147.435,118.638 148.246,116.48 Z" transform=""/><path fill="#d0e285" stroke="none" d="M 147.693,104.634 S 149.533,103.551 151.37,103.682 C 152.65,103.773 154.149,104.006 155.423,105.238 C 157.157,106.915 157.567,109.681 157.589,111.097 C 157.645,114.837 155.147,117.205 151.272,117.115 C 147.453,117.026 144.375,114.53 144.631,110.802 C 144.776,108.677 145.463,105.936 147.693,104.634 Z" transform=""/><ellipse cx="152.69989580882927" cy="110.76197300125493" rx="0.48403925576629203" ry="0.6728022280659759" fill="#304454" stroke="none" transform="rotate(188.8934 152.69989580382378 110.76197293458145)" r="NaN"/><ellipse cx="147.04276429495985" cy="109.57469950048716" rx="0.48403925576629203" ry="0.6728022280659759" fill="#304454" stroke="none" transform="rotate(188.8934 147.04276411111255 109.57469907613006)" r="NaN"/><ellipse cx="149.6981944155921" cy="113.6880046019256" rx="1.3484831942715985" ry="1.2053687839005964" fill="#c75e72" stroke="none" r="NaN" transform=""/><ellipse cx="148.6075638313167" cy="112.48263591842742" rx="2.0891413927721016" ry="1.4138716748721427" fill="#d0e285" stroke="none" r="NaN" transform=""/><path fill="#bed575" stroke="none" d="M 196.271,118.444 S 196.681,116.348 195.947,114.66 C 195.436,113.483 192.59,114.798 189.094,116.653 C 185.155,118.744 181.937,115.59 183.31,119.215 C 184.663,122.788 188.039,124.861 191.47,123.381 C 193.426,122.538 195.783,120.98 196.271,118.444 Z" transform=""/><path fill="#d0e285" stroke="none" d="M 210.25,116.35 S 209.453,114.846 209.622,113.388 C 209.74,112.372 212.216,112.718 215.311,113.325 C 218.799,114.01 220.525,110.86 220.315,113.943 C 220.109,116.98 218.012,119.343 215.053,119.007 C 213.366,118.816 211.208,118.172 210.25,116.35 Z" transform=""/><path fill="#d0e285" stroke="none" d="M 200.132,123.27 S 199.722,121.174 200.456,119.486 C 200.967,118.309 203.813,119.624 207.309,121.479 C 211.248,123.57 214.466,120.416 213.093,124.041 C 211.74,127.614 208.364,129.687 204.933,128.207 C 202.977,127.364 200.619,125.806 200.132,123.27 Z" transform=""/><ellipse cx="202.65881881673062" cy="112.57640069762587" rx="14.316787265073852" ry="9.47968469385624" fill="#bed575" stroke="none" r="NaN" transform=""/><path fill="#bed575" stroke="none" d="M 190.983,110.527 C 190.983,115.537 196.445,119.599 203.183,119.599 S 215.382,115.537 215.382,110.527 S 209.753,99.1112 203.016,99.1112 S 190.983,105.517 190.983,110.527 Z" transform=""/><path fill="#a9bc65" stroke="none" d="M 199.635,111.637 L 203.126,113.842 L 206.781,111.921 L 206.945,107.795 L 203.454,105.59 L 199.799,107.511 Z" transform=""/><path fill="#a9bc65" stroke="none" d="M 197.993,111.714 L 198.157,107.588 L 194.666,105.383 L 192.022,106.773 C 191.355,108.146 190.983,109.566 190.983,110.888 C 190.983,111.106 190.997,111.322 191.017,111.537 L 194.338,113.635 L 197.993,111.714 Z" transform=""/><path fill="#a9bc65" stroke="none" d="M 204.194,100.737 L 204.325,104.419 L 207.284,106.616 L 210.111,105.13 L 209.994,101.84 C 208.757,100.952 207.362,100.259 205.868,99.8574 L 204.194,100.737 Z" transform=""/><path fill="#a9bc65" stroke="none" d="M 208.099,112.486 L 211.59,114.691 L 215.093,112.85 C 215.167,112.601 215.226,112.347 215.272,112.091 L 215.346,110.222 C 215.288,109.609 215.154,108.983 214.948,108.353 L 211.918,106.439 L 208.263,108.36 L 208.099,112.486 Z" transform=""/><path fill="#a9bc65" stroke="none" d="M 194.811,105.016 L 197.898,106.988 L 201.847,104.854 L 202.709,100.749 L 201.012,99.6646 C 198.869,100.074 196.931,101.108 195.343,102.481 L 194.811,105.016 Z" transform=""/><path fill="#a9bc65" stroke="none" d="M 211.812,103.391 L 211.754,104.855 L 214.025,106.289 C 213.443,105.267 212.695,104.281 211.812,103.391 Z" transform=""/><path fill="#a9bc65" stroke="none" d="M 210.257,118.277 L 210.349,115.955 L 206.858,113.75 L 203.203,115.671 L 203.039,119.797 L 203.295,119.959 C 205.89,119.94 208.29,119.32 210.257,118.277 Z" transform=""/><path fill="#a9bc65" stroke="none" d="M 202.112,119.224 L 202.276,115.098 L 198.785,112.893 L 195.13,114.814 L 195.018,117.628 C 196.665,118.733 198.72,119.505 200.993,119.812 L 202.112,119.224 Z" transform=""/><path fill="#a9bc65" stroke="none" d="M 214.635,114.02 L 211.494,115.67 L 211.419,117.579 C 212.842,116.61 213.956,115.394 214.635,114.02 Z" transform=""/><path fill="#a9bc65" stroke="none" d="M 193.892,116.765 L 193.977,114.618 L 191.295,112.924 C 191.74,114.366 192.645,115.676 193.892,116.765 Z" transform=""/><path fill="#a9bc65" stroke="none" d="M 195.259,108.694 S 197.099,107.611 198.936,107.742 C 200.216,107.833 201.715,108.066 202.989,109.298 C 204.723,110.975 205.133,113.741 205.155,115.157 C 205.211,118.897 202.713,121.265 198.838,121.175 C 195.019,121.086 191.941,118.59 192.197,114.862 C 192.342,112.737 193.029,109.996 195.259,108.694 Z" style="opacity: 0.7" opacity="0.7" transform=""/><path fill="#d0e285" stroke="none" d="M 189.325,116.48 S 189.99,114.693 191.315,113.734 C 192.238,113.065 193.387,112.368 194.929,112.479 C 197.027,112.629 193.74,115.356 195.473,118.352 C 197.426,121.728 201.27,120.771 198.577,122.921 C 195.922,125.041 192.46,125.101 190.602,122.421 C 189.541,120.893 188.514,118.638 189.325,116.48 Z" transform=""/><path fill="#d0e285" stroke="none" d="M 188.772,104.634 S 190.612,103.551 192.449,103.682 C 193.729,103.773 195.228,104.006 196.502,105.238 C 198.236,106.915 198.646,109.681 198.668,111.097 C 198.724,114.837 196.226,117.205 192.351,117.115 C 188.532,117.026 185.454,114.53 185.71,110.802 C 185.855,108.677 186.542,105.936 188.772,104.634 Z" transform=""/><ellipse cx="193.7787339831031" cy="110.76197300125493" rx="0.48403925576629203" ry="0.6728022280659759" fill="#304454" stroke="none" transform="rotate(188.8934 193.77873397809762 110.76197293458145)" r="NaN"/><ellipse cx="188.1216024692337" cy="109.57469950048716" rx="0.48403925576629203" ry="0.6728022280659759" fill="#304454" stroke="none" transform="rotate(188.8934 188.1216022853864 109.57469907613006)" r="NaN"/><ellipse cx="190.77703258986594" cy="113.6880046019256" rx="1.3484831942715985" ry="1.2053687839005964" fill="#c75e72" stroke="none" r="NaN" transform=""/><ellipse cx="189.68640200559054" cy="112.48263591842742" rx="2.0891413927721016" ry="1.4138716748721427" fill="#d0e285" stroke="none" r="NaN" transform=""/><path fill="#bed575" stroke="none" d="M 237.35,118.444 S 237.76,116.348 237.026,114.66 C 236.515,113.483 233.669,114.798 230.173,116.653 C 226.234,118.744 223.016,115.59 224.389,119.215 C 225.742,122.788 229.118,124.861 232.549,123.381 C 234.505,122.538 236.862,120.98 237.35,118.444 Z" transform=""/><path fill="#d0e285" stroke="none" d="M 251.328,116.35 S 250.531,114.846 250.7,113.388 C 250.818,112.372 253.294,112.718 256.389,113.325 C 259.877,114.01 261.603,110.86 261.393,113.943 C 261.187,116.98 259.09,119.343 256.131,119.007 C 254.444,118.816 252.286,118.172 251.328,116.35 Z" transform=""/><path fill="#d0e285" stroke="none" d="M 241.211,123.27 S 240.801,121.174 241.535,119.486 C 242.046,118.309 244.892,119.624 248.388,121.479 C 252.327,123.57 255.545,120.416 254.172,124.041 C 252.819,127.614 249.443,129.687 246.012,128.207 C 244.056,127.364 241.698,125.806 241.211,123.27 Z" transform=""/><ellipse cx="243.73765699100449" cy="112.57640069762587" rx="14.316787265073852" ry="9.47968469385624" fill="#bed575" stroke="none" r="NaN" transform=""/><path fill="#bed575" stroke="none" d="M 232.061,110.527 C 232.061,115.537 237.523,119.599 244.261,119.599 S 256.46,115.537 256.46,110.527 S 250.831,99.1112 244.094,99.1112 S 232.061,105.517 232.061,110.527 Z" transform=""/><path fill="#a9bc65" stroke="none" d="M 240.714,111.637 L 244.205,113.842 L 247.86,111.921 L 248.024,107.795 L 244.533,105.59 L 240.878,107.511 Z" transform=""/><path fill="#a9bc65" stroke="none" d="M 239.072,111.714 L 239.236,107.588 L 235.745,105.383 L 233.101,106.773 C 232.434,108.146 232.062,109.566 232.062,110.888 C 232.062,111.106 232.076,111.322 232.096,111.537 L 235.417,113.635 L 239.072,111.714 Z" transform=""/><path fill="#a9bc65" stroke="none" d="M 245.273,100.737 L 245.404,104.419 L 248.363,106.616 L 251.19,105.13 L 251.073,101.84 C 249.836,100.952 248.441,100.259 246.947,99.8574 L 245.273,100.737 Z" transform=""/><path fill="#a9bc65" stroke="none" d="M 249.178,112.486 L 252.669,114.691 L 256.172,112.85 C 256.246,112.601 256.305,112.347 256.351,112.091 L 256.425,110.222 C 256.367,109.609 256.233,108.983 256.027,108.353 L 252.997,106.439 L 249.342,108.36 L 249.178,112.486 Z" transform=""/><path fill="#a9bc65" stroke="none" d="M 235.889,105.016 L 238.976,106.988 L 242.925,104.854 L 243.787,100.749 L 242.09,99.6646 C 239.947,100.074 238.009,101.108 236.421,102.481 L 235.889,105.016 Z" transform=""/><path fill="#a9bc65" stroke="none" d="M 252.891,103.391 L 252.833,104.855 L 255.104,106.289 C 254.522,105.267 253.774,104.281 252.891,103.391 Z" transform=""/><path fill="#a9bc65" stroke="none" d="M 251.336,118.277 L 251.428,115.955 L 247.937,113.75 L 244.282,115.671 L 244.118,119.797 L 244.374,119.959 C 246.969,119.94 249.369,119.32 251.336,118.277 Z" transform=""/><path fill="#a9bc65" stroke="none" d="M 243.191,119.224 L 243.355,115.098 L 239.864,112.893 L 236.209,114.814 L 236.097,117.628 C 237.744,118.733 239.799,119.505 242.072,119.812 L 243.191,119.224 Z" transform=""/><path fill="#a9bc65" stroke="none" d="M 255.714,114.02 L 252.573,115.67 L 252.498,117.579 C 253.921,116.61 255.035,115.394 255.714,114.02 Z" transform=""/><path fill="#a9bc65" stroke="none" d="M 234.971,116.765 L 235.056,114.618 L 232.374,112.924 C 232.819,114.366 233.724,115.676 234.971,116.765 Z" transform=""/><path fill="#a9bc65" stroke="none" d="M 236.338,108.694 S 238.178,107.611 240.015,107.742 C 241.295,107.833 242.794,108.066 244.068,109.298 C 245.802,110.975 246.212,113.741 246.234,115.157 C 246.29,118.897 243.792,121.265 239.917,121.175 C 236.098,121.086 233.02,118.59 233.276,114.862 C 233.421,112.737 234.108,109.996 236.338,108.694 Z" style="opacity: 0.7" opacity="0.7" transform=""/><path fill="#d0e285" stroke="none" d="M 230.404,116.48 S 231.069,114.693 232.394,113.734 C 233.317,113.065 234.466,112.368 236.008,112.479 C 238.106,112.629 234.819,115.356 236.552,118.352 C 238.505,121.728 242.349,120.771 239.656,122.921 C 237.001,125.041 233.539,125.101 231.681,122.421 C 230.62,120.893 229.593,118.638 230.404,116.48 Z" transform=""/><path fill="#d0e285" stroke="none" d="M 229.851,104.634 S 231.691,103.551 233.528,103.682 C 234.808,103.773 236.307,104.006 237.581,105.238 C 239.315,106.915 239.725,109.681 239.747,111.097 C 239.803,114.837 237.305,117.205 233.43,117.115 C 229.611,117.026 226.533,114.53 226.789,110.802 C 226.934,108.677 227.621,105.936 229.851,104.634 Z" transform=""/><ellipse cx="234.85757215737698" cy="110.76197300125493" rx="0.48403925576629203" ry="0.6728022280659759" fill="#304454" stroke="none" transform="rotate(188.8934 234.8575721523715 110.76197293458145)" r="NaN"/><ellipse cx="229.20044064350756" cy="109.57469950048716" rx="0.48403925576629203" ry="0.6728022280659759" fill="#304454" stroke="none" transform="rotate(188.8934 229.20044045966026 109.57469907613006)" r="NaN"/><ellipse cx="231.8558707641398" cy="113.6880046019256" rx="1.3484831942715985" ry="1.2053687839005964" fill="#c75e72" stroke="none" r="NaN" transform=""/><ellipse cx="230.7652401798644" cy="112.48263591842742" rx="2.0891413927721016" ry="1.4138716748721427" fill="#d0e285" stroke="none" r="NaN" transform=""/><path fill="#6495ed" stroke="#6495ed" d="M 1.86722,74.6888 L 1.86722,3.73444 L 442.531,3.73444 L 442.531,74.6888 Z" style="stroke-width: 2px;fill-opacity: 0;stroke-opacity: 1" stroke-width="2" fill-opacity="0" stroke-opacity="1" stroke-dasharray="0"/><path fill="#bed575" stroke="none" d="M 31.9555,43.7553 S 32.3655,41.6593 31.6315,39.9713 C 31.1205,38.7943 28.2745,40.1093 24.7785,41.9643 C 20.8395,44.0553 17.6215,40.9013 18.9945,44.5263 C 20.3475,48.0993 23.7235,50.1723 27.1545,48.6923 C 29.1105,47.8493 31.4675,46.2913 31.9555,43.7553 Z" transform=""/><path fill="#d0e285" stroke="none" d="M 45.9343,41.6608 S 45.1373,40.1568 45.3063,38.6988 C 45.4243,37.6828 47.9003,38.0288 50.9953,38.6358 C 54.4833,39.3208 56.2093,36.1708 55.9993,39.2538 C 55.7933,42.2908 53.6963,44.6538 50.7373,44.3178 C 49.0503,44.1268 46.8923,43.4828 45.9343,41.6608 Z" transform=""/><path fill="#d0e285" stroke="none" d="M 35.8163,48.5809 S 35.4063,46.4849 36.1403,44.7969 C 36.6513,43.6199 39.4973,44.9349 42.9933,46.7899 C 46.9323,48.8809 50.1503,45.7269 48.7773,49.3519 C 47.4243,52.9249 44.0483,54.9979 40.6173,53.5179 C 38.6613,52.6749 36.3033,51.1169 35.8163,48.5809 Z" transform=""/><ellipse cx="38.343466119635195" cy="37.88760401712797" rx="14.316787265073852" ry="9.47968469385624" fill="#bed575" stroke="none" r="NaN" transform=""/><path fill="#bed575" stroke="none" d="M 26.6673,35.8384 C 26.6673,40.8484 32.1293,44.9104 38.8673,44.9104 S 51.0663,40.8484 51.0663,35.8384 S 45.4373,24.4224 38.7003,24.4224 S 26.6673,30.8284 26.6673,35.8384 Z" transform=""/><path fill="#a9bc65" stroke="none" d="M 35.32,36.9483 L 38.811,39.1533 L 42.466,37.2323 L 42.63,33.1063 L 39.139,30.9013 L 35.484,32.8223 Z" transform=""/><path fill="#a9bc65" stroke="none" d="M 33.6779,37.0252 L 33.8419,32.8992 L 30.3509,30.6942 L 27.7069,32.0842 C 27.0399,33.4572 26.6679,34.8772 26.6679,36.1992 C 26.6679,36.4172 26.6819,36.6332 26.7019,36.8482 L 30.0229,38.9462 L 33.6779,37.0252 Z" transform=""/><path fill="#a9bc65" stroke="none" d="M 39.8787,26.0486 L 40.0097,29.7306 L 42.9687,31.9276 L 45.7957,30.4416 L 45.6787,27.1516 C 44.4417,26.2636 43.0467,25.5706 41.5527,25.1686 L 39.8787,26.0486 Z" transform=""/><path fill="#a9bc65" stroke="none" d="M 43.7835,37.7975 L 47.2745,40.0025 L 50.7775,38.1615 C 50.8515,37.9125 50.9105,37.6585 50.9565,37.4025 L 51.0305,35.5335 C 50.9725,34.9205 50.8385,34.2945 50.6325,33.6645 L 47.6025,31.7505 L 43.9475,33.6715 L 43.7835,37.7975 Z" transform=""/><path fill="#a9bc65" stroke="none" d="M 30.4952,30.3268 L 33.5822,32.2988 L 37.5312,30.1648 L 38.3932,26.0598 L 36.6962,24.9758 C 34.5532,25.3848 32.6152,26.4188 31.0272,27.7918 L 30.4952,30.3268 Z" transform=""/><path fill="#a9bc65" stroke="none" d="M 47.4966,28.702 L 47.4386,30.166 L 49.7096,31.6 C 49.1276,30.578 48.3796,29.592 47.4966,28.702 Z" transform=""/><path fill="#a9bc65" stroke="none" d="M 45.9417,43.5879 L 46.0337,41.2659 L 42.5427,39.0609 L 38.8877,40.9819 L 38.7237,45.1079 L 38.9797,45.2699 C 41.5747,45.2509 43.9747,44.6309 45.9417,43.5879 Z" transform=""/><path fill="#a9bc65" stroke="none" d="M 37.7965,44.535 L 37.9605,40.409 L 34.4695,38.204 L 30.8145,40.125 L 30.7025,42.939 C 32.3495,44.044 34.4045,44.816 36.6775,45.123 L 37.7965,44.535 Z" transform=""/><path fill="#a9bc65" stroke="none" d="M 50.3198,39.3311 L 47.1788,40.9811 L 47.1038,42.8901 C 48.5268,41.9211 49.6408,40.7051 50.3198,39.3311 Z" transform=""/><path fill="#a9bc65" stroke="none" d="M 29.5765,42.0758 L 29.6615,39.9288 L 26.9795,38.2348 C 27.4245,39.6768 28.3295,40.9868 29.5765,42.0758 Z" transform=""/><path fill="#a9bc65" stroke="none" d="M 30.9435,34.0054 S 32.7835,32.9224 34.6205,33.0534 C 35.9005,33.1444 37.3995,33.3774 38.6735,34.6094 C 40.4075,36.2864 40.8175,39.0524 40.8395,40.4684 C 40.8955,44.2084 38.3975,46.5764 34.5225,46.4864 C 30.7035,46.3974 27.6255,43.9014 27.8815,40.1734 C 28.0265,38.0484 28.7135,35.3074 30.9435,34.0054 Z" style="opacity: 0.7" opacity="0.7" transform=""/><path fill="#d0e285" stroke="none" d="M 25.01,41.7912 S 25.675,40.0042 27,39.0452 C 27.923,38.3762 29.072,37.6792 30.614,37.7902 C 32.712,37.9402 29.425,40.6672 31.158,43.6632 C 33.111,47.0392 36.955,46.0822 34.262,48.2322 C 31.607,50.3522 28.145,50.4122 26.287,47.7322 C 25.226,46.2042 24.199,43.9492 25.01,41.7912 Z" transform=""/><path fill="#d0e285" stroke="none" d="M 24.4568,29.9452 S 26.2968,28.8622 28.1338,28.9932 C 29.4138,29.0842 30.9128,29.3172 32.1868,30.5492 C 33.9208,32.2262 34.3308,34.9922 34.3528,36.4082 C 34.4088,40.1482 31.9108,42.5162 28.0358,42.4262 C 24.2168,42.3372 21.1388,39.8412 21.3948,36.1132 C 21.5398,33.9882 22.2268,31.2472 24.4568,29.9452 Z" transform=""/><ellipse cx="29.46338128600769" cy="36.07317632075703" rx="0.48403925576629203" ry="0.6728022280659759" fill="#304454" stroke="none" transform="rotate(188.8934 29.463381281002192 36.07317625408354)" r="NaN"/><ellipse cx="23.806249772138273" cy="34.885902819989255" rx="0.48403925576629203" ry="0.6728022280659759" fill="#304454" stroke="none" transform="rotate(188.8934 23.806249588290967 34.88590239563216)" r="NaN"/><ellipse cx="26.461679892770498" cy="38.99920792142769" rx="1.3484831942715985" ry="1.2053687839005964" fill="#c75e72" stroke="none" r="NaN" transform=""/><ellipse cx="25.371049308495106" cy="37.79383923792951" rx="2.0891413927721016" ry="1.4138716748721427" fill="#d0e285" stroke="none" r="NaN" transform=""/><path fill="#bed575" stroke="none" d="M 73.0344,43.7553 S 73.4444,41.6593 72.7104,39.9713 C 72.1994,38.7943 69.3534,40.1093 65.8574,41.9643 C 61.9184,44.0553 58.7004,40.9013 60.0734,44.5263 C 61.4264,48.0993 64.8024,50.1723 68.2334,48.6923 C 70.1894,47.8493 72.5464,46.2913 73.0344,43.7553 Z" transform=""/><path fill="#d0e285" stroke="none" d="M 87.0131,41.6608 S 86.2161,40.1568 86.3851,38.6988 C 86.5031,37.6828 88.9791,38.0288 92.0741,38.6358 C 95.5621,39.3208 97.2881,36.1708 97.0781,39.2538 C 96.8721,42.2908 94.7751,44.6538 91.8161,44.3178 C 90.1291,44.1268 87.9711,43.4828 87.0131,41.6608 Z" transform=""/><path fill="#d0e285" stroke="none" d="M 76.8952,48.5809 S 76.4852,46.4849 77.2192,44.7969 C 77.7302,43.6199 80.5762,44.9349 84.0722,46.7899 C 88.0112,48.8809 91.2292,45.7269 89.8562,49.3519 C 88.5032,52.9249 85.1272,54.9979 81.6962,53.5179 C 79.7402,52.6749 77.3822,51.1169 76.8952,48.5809 Z" transform=""/><ellipse cx="79.42230429390905" cy="37.88760401712797" rx="14.316787265073852" ry="9.47968469385624" fill="#bed575" stroke="none" r="NaN" transform=""/><path fill="#bed575" stroke="none" d="M 67.7461,35.8384 C 67.7461,40.8484 73.2081,44.9104 79.9461,44.9104 S 92.1451,40.8484 92.1451,35.8384 S 86.5161,24.4224 79.7791,24.4224 S 67.7461,30.8284 67.7461,35.8384 Z" transform=""/><path fill="#a9bc65" stroke="none" d="M 76.3988,36.9483 L 79.8898,39.1533 L 83.5448,37.2323 L 83.7088,33.1063 L 80.2178,30.9013 L 76.5628,32.8223 Z" transform=""/><path fill="#a9bc65" stroke="none" d="M 74.7567,37.0252 L 74.9207,32.8992 L 71.4297,30.6942 L 68.7857,32.0842 C 68.1187,33.4572 67.7467,34.8772 67.7467,36.1992 C 67.7467,36.4172 67.7607,36.6332 67.7807,36.8482 L 71.1017,38.9462 L 74.7567,37.0252 Z" transform=""/><path fill="#a9bc65" stroke="none" d="M 80.9575,26.0486 L 81.0885,29.7306 L 84.0475,31.9276 L 86.8745,30.4416 L 86.7575,27.1516 C 85.5205,26.2636 84.1255,25.5706 82.6315,25.1686 L 80.9575,26.0486 Z" transform=""/><path fill="#a9bc65" stroke="none" d="M 84.8623,37.7975 L 88.3533,40.0025 L 91.8563,38.1615 C 91.9303,37.9125 91.9893,37.6585 92.0353,37.4025 L 92.1093,35.5335 C 92.0513,34.9205 91.9173,34.2945 91.7113,33.6645 L 88.6813,31.7505 L 85.0263,33.6715 L 84.8623,37.7975 Z" transform=""/><path fill="#a9bc65" stroke="none" d="M 71.574,30.3268 L 74.661,32.2988 L 78.61,30.1648 L 79.472,26.0598 L 77.775,24.9758 C 75.632,25.3848 73.694,26.4188 72.106,27.7918 L 71.574,30.3268 Z" transform=""/><path fill="#a9bc65" stroke="none" d="M 88.5755,28.702 L 88.5175,30.166 L 90.7885,31.6 C 90.2065,30.578 89.4585,29.592 88.5755,28.702 Z" transform=""/><path fill="#a9bc65" stroke="none" d="M 87.0205,43.5879 L 87.1125,41.2659 L 83.6215,39.0609 L 79.9665,40.9819 L 79.8025,45.1079 L 80.0585,45.2699 C 82.6535,45.2509 85.0535,44.6309 87.0205,43.5879 Z" transform=""/><path fill="#a9bc65" stroke="none" d="M 78.8753,44.535 L 79.0393,40.409 L 75.5483,38.204 L 71.8933,40.125 L 71.7813,42.939 C 73.4283,44.044 75.4833,44.816 77.7563,45.123 L 78.8753,44.535 Z" transform=""/><path fill="#a9bc65" stroke="none" d="M 91.3987,39.3311 L 88.2577,40.9811 L 88.1827,42.8901 C 89.6057,41.9211 90.7197,40.7051 91.3987,39.3311 Z" transform=""/><path fill="#a9bc65" stroke="none" d="M 70.6553,42.0758 L 70.7403,39.9288 L 68.0583,38.2348 C 68.5033,39.6768 69.4083,40.9868 70.6553,42.0758 Z" transform=""/><path fill="#a9bc65" stroke="none" d="M 72.0223,34.0054 S 73.8623,32.9224 75.6993,33.0534 C 76.9793,33.1444 78.4783,33.3774 79.7523,34.6094 C 81.4863,36.2864 81.8963,39.0524 81.9183,40.4684 C 81.9743,44.2084 79.4763,46.5764 75.6013,46.4864 C 71.7823,46.3974 68.7043,43.9014 68.9603,40.1734 C 69.1053,38.0484 69.7923,35.3074 72.0223,34.0054 Z" style="opacity: 0.7" opacity="0.7" transform=""/><path fill="#d0e285" stroke="none" d="M 66.0888,41.7912 S 66.7538,40.0042 68.0788,39.0452 C 69.0018,38.3762 70.1508,37.6792 71.6928,37.7902 C 73.7908,37.9402 70.5038,40.6672 72.2368,43.6632 C 74.1898,47.0392 78.0338,46.0822 75.3408,48.2322 C 72.6858,50.3522 69.2238,50.4122 67.3658,47.7322 C 66.3048,46.2042 65.2778,43.9492 66.0888,41.7912 Z" transform=""/><path fill="#d0e285" stroke="none" d="M 65.5357,29.9452 S 67.3757,28.8622 69.2127,28.9932 C 70.4927,29.0842 71.9917,29.3172 73.2657,30.5492 C 74.9997,32.2262 75.4097,34.9922 75.4317,36.4082 C 75.4877,40.1482 72.9897,42.5162 69.1147,42.4262 C 65.2957,42.3372 62.2177,39.8412 62.4737,36.1132 C 62.6187,33.9882 63.3057,31.2472 65.5357,29.9452 Z" transform=""/><ellipse cx="70.54221946028154" cy="36.07317632075703" rx="0.48403925576629203" ry="0.6728022280659759" fill="#304454" stroke="none" transform="rotate(188.8934 70.54221945527605 36.07317625408354)" r="NaN"/><ellipse cx="64.88508794641213" cy="34.885902819989255" rx="0.48403925576629203" ry="0.6728022280659759" fill="#304454" stroke="none" transform="rotate(188.8934 64.88508776256482 34.88590239563216)" r="NaN"/><ellipse cx="67.54051806704436" cy="38.99920792142769" rx="1.3484831942715985" ry="1.2053687839005964" fill="#c75e72" stroke="none" r="NaN" transform=""/><ellipse cx="66.44988748276896" cy="37.79383923792951" rx="2.0891413927721016" ry="1.4138716748721427" fill="#d0e285" stroke="none" r="NaN" transform=""/><path fill="#bed575" stroke="none" d="M 114.113,43.7553 S 114.523,41.6593 113.789,39.9713 C 113.278,38.7943 110.432,40.1093 106.936,41.9643 C 102.997,44.0553 99.7792,40.9013 101.152,44.5263 C 102.505,48.0993 105.881,50.1723 109.312,48.6923 C 111.268,47.8493 113.625,46.2913 114.113,43.7553 Z" transform=""/><path fill="#d0e285" stroke="none" d="M 128.092,41.6608 S 127.295,40.1568 127.464,38.6988 C 127.582,37.6828 130.058,38.0288 133.153,38.6358 C 136.641,39.3208 138.367,36.1708 138.157,39.2538 C 137.951,42.2908 135.854,44.6538 132.895,44.3178 C 131.208,44.1268 129.05,43.4828 128.092,41.6608 Z" transform=""/><path fill="#d0e285" stroke="none" d="M 117.974,48.5809 S 117.564,46.4849 118.298,44.7969 C 118.809,43.6199 121.655,44.9349 125.151,46.7899 C 129.09,48.8809 132.308,45.7269 130.935,49.3519 C 129.582,52.9249 126.206,54.9979 122.775,53.5179 C 120.819,52.6749 118.461,51.1169 117.974,48.5809 Z" transform=""/><ellipse cx="120.5011424681829" cy="37.88760401712797" rx="14.316787265073852" ry="9.47968469385624" fill="#bed575" stroke="none" r="NaN" transform=""/><path fill="#bed575" stroke="none" d="M 108.825,35.8384 C 108.825,40.8484 114.287,44.9104 121.025,44.9104 S 133.224,40.8484 133.224,35.8384 S 127.595,24.4224 120.858,24.4224 S 108.825,30.8284 108.825,35.8384 Z" transform=""/><path fill="#a9bc65" stroke="none" d="M 117.478,36.9483 L 120.969,39.1533 L 124.624,37.2323 L 124.788,33.1063 L 121.297,30.9013 L 117.642,32.8223 Z" transform=""/><path fill="#a9bc65" stroke="none" d="M 115.836,37.0252 L 116,32.8992 L 112.509,30.6942 L 109.865,32.0842 C 109.198,33.4572 108.826,34.8772 108.826,36.1992 C 108.826,36.4172 108.84,36.6332 108.86,36.8482 L 112.181,38.9462 L 115.836,37.0252 Z" transform=""/><path fill="#a9bc65" stroke="none" d="M 122.036,26.0486 L 122.167,29.7306 L 125.126,31.9276 L 127.953,30.4416 L 127.836,27.1516 C 126.599,26.2636 125.204,25.5706 123.71,25.1686 L 122.036,26.0486 Z" transform=""/><path fill="#a9bc65" stroke="none" d="M 125.941,37.7975 L 129.432,40.0025 L 132.935,38.1615 C 133.009,37.9125 133.068,37.6585 133.114,37.4025 L 133.188,35.5335 C 133.13,34.9205 132.996,34.2945 132.79,33.6645 L 129.76,31.7505 L 126.105,33.6715 L 125.941,37.7975 Z" transform=""/><path fill="#a9bc65" stroke="none" d="M 112.653,30.3268 L 115.74,32.2988 L 119.689,30.1648 L 120.551,26.0598 L 118.854,24.9758 C 116.711,25.3848 114.773,26.4188 113.185,27.7918 L 112.653,30.3268 Z" transform=""/><path fill="#a9bc65" stroke="none" d="M 129.654,28.702 L 129.596,30.166 L 131.867,31.6 C 131.285,30.578 130.537,29.592 129.654,28.702 Z" transform=""/><path fill="#a9bc65" stroke="none" d="M 128.099,43.5879 L 128.191,41.2659 L 124.7,39.0609 L 121.045,40.9819 L 120.881,45.1079 L 121.137,45.2699 C 123.732,45.2509 126.132,44.6309 128.099,43.5879 Z" transform=""/><path fill="#a9bc65" stroke="none" d="M 119.954,44.535 L 120.118,40.409 L 116.627,38.204 L 112.972,40.125 L 112.86,42.939 C 114.507,44.044 116.562,44.816 118.835,45.123 L 119.954,44.535 Z" transform=""/><path fill="#a9bc65" stroke="none" d="M 132.478,39.3311 L 129.337,40.9811 L 129.262,42.8901 C 130.685,41.9211 131.799,40.7051 132.478,39.3311 Z" transform=""/><path fill="#a9bc65" stroke="none" d="M 111.734,42.0758 L 111.819,39.9288 L 109.137,38.2348 C 109.582,39.6768 110.487,40.9868 111.734,42.0758 Z" transform=""/><path fill="#a9bc65" stroke="none" d="M 113.101,34.0054 S 114.941,32.9224 116.778,33.0534 C 118.058,33.1444 119.557,33.3774 120.831,34.6094 C 122.565,36.2864 122.975,39.0524 122.997,40.4684 C 123.053,44.2084 120.555,46.5764 116.68,46.4864 C 112.861,46.3974 109.783,43.9014 110.039,40.1734 C 110.184,38.0484 110.871,35.3074 113.101,34.0054 Z" style="opacity: 0.7" opacity="0.7" transform=""/><path fill="#d0e285" stroke="none" d="M 107.168,41.7912 S 107.833,40.0042 109.158,39.0452 C 110.081,38.3762 111.23,37.6792 112.772,37.7902 C 114.87,37.9402 111.583,40.6672 113.316,43.6632 C 115.269,47.0392 119.113,46.0822 116.42,48.2322 C 113.765,50.3522 110.303,50.4122 108.445,47.7322 C 107.384,46.2042 106.357,43.9492 107.168,41.7912 Z" transform=""/><path fill="#d0e285" stroke="none" d="M 106.615,29.9452 S 108.455,28.8622 110.292,28.9932 C 111.572,29.0842 113.071,29.3172 114.345,30.5492 C 116.079,32.2262 116.489,34.9922 116.511,36.4082 C 116.567,40.1482 114.069,42.5162 110.194,42.4262 C 106.375,42.3372 103.297,39.8412 103.553,36.1132 C 103.698,33.9882 104.385,31.2472 106.615,29.9452 Z" transform=""/><ellipse cx="111.62105763455541" cy="36.07317632075703" rx="0.48403925576629203" ry="0.6728022280659759" fill="#304454" stroke="none" transform="rotate(188.8934 111.62105762954991 36.07317625408354)" r="NaN"/><ellipse cx="105.963926120686" cy="34.885902819989255" rx="0.48403925576629203" ry="0.6728022280659759" fill="#304454" stroke="none" transform="rotate(188.8934 105.96392593683869 34.88590239563216)" r="NaN"/><ellipse cx="108.61935624131821" cy="38.99920792142769" rx="1.3484831942715985" ry="1.2053687839005964" fill="#c75e72" stroke="none" r="NaN" transform=""/><ellipse cx="107.52872565704283" cy="37.79383923792951" rx="2.0891413927721016" ry="1.4138716748721427" fill="#d0e285" stroke="none" r="NaN" transform=""/><path fill="#bed575" stroke="none" d="M 155.192,43.7553 S 155.602,41.6593 154.868,39.9713 C 154.357,38.7943 151.511,40.1093 148.015,41.9643 C 144.076,44.0553 140.858,40.9013 142.231,44.5263 C 143.584,48.0993 146.96,50.1723 150.391,48.6923 C 152.347,47.8493 154.704,46.2913 155.192,43.7553 Z" transform=""/><path fill="#d0e285" stroke="none" d="M 169.171,41.6608 S 168.374,40.1568 168.543,38.6988 C 168.661,37.6828 171.137,38.0288 174.232,38.6358 C 177.72,39.3208 179.446,36.1708 179.236,39.2538 C 179.03,42.2908 176.933,44.6538 173.974,44.3178 C 172.287,44.1268 170.129,43.4828 169.171,41.6608 Z" transform=""/><path fill="#d0e285" stroke="none" d="M 159.053,48.5809 S 158.643,46.4849 159.377,44.7969 C 159.888,43.6199 162.734,44.9349 166.23,46.7899 C 170.169,48.8809 173.387,45.7269 172.014,49.3519 C 170.661,52.9249 167.285,54.9979 163.854,53.5179 C 161.898,52.6749 159.54,51.1169 159.053,48.5809 Z" transform=""/><ellipse cx="161.57998064245677" cy="37.88760401712797" rx="14.316787265073852" ry="9.47968469385624" fill="#bed575" stroke="none" r="NaN" transform=""/><path fill="#bed575" stroke="none" d="M 149.904,35.8384 C 149.904,40.8484 155.366,44.9104 162.104,44.9104 S 174.303,40.8484 174.303,35.8384 S 168.674,24.4224 161.937,24.4224 S 149.904,30.8284 149.904,35.8384 Z" transform=""/><path fill="#a9bc65" stroke="none" d="M 158.556,36.9483 L 162.047,39.1533 L 165.702,37.2323 L 165.866,33.1063 L 162.375,30.9013 L 158.72,32.8223 Z" transform=""/><path fill="#a9bc65" stroke="none" d="M 156.914,37.0252 L 157.078,32.8992 L 153.587,30.6942 L 150.943,32.0842 C 150.276,33.4572 149.904,34.8772 149.904,36.1992 C 149.904,36.4172 149.918,36.6332 149.938,36.8482 L 153.259,38.9462 L 156.914,37.0252 Z" transform=""/><path fill="#a9bc65" stroke="none" d="M 163.115,26.0486 L 163.246,29.7306 L 166.205,31.9276 L 169.032,30.4416 L 168.915,27.1516 C 167.678,26.2636 166.283,25.5706 164.789,25.1686 L 163.115,26.0486 Z" transform=""/><path fill="#a9bc65" stroke="none" d="M 167.02,37.7975 L 170.511,40.0025 L 174.014,38.1615 C 174.088,37.9125 174.147,37.6585 174.193,37.4025 L 174.267,35.5335 C 174.209,34.9205 174.075,34.2945 173.869,33.6645 L 170.839,31.7505 L 167.184,33.6715 L 167.02,37.7975 Z" transform=""/><path fill="#a9bc65" stroke="none" d="M 153.732,30.3268 L 156.819,32.2988 L 160.768,30.1648 L 161.63,26.0598 L 159.933,24.9758 C 157.79,25.3848 155.852,26.4188 154.264,27.7918 L 153.732,30.3268 Z" transform=""/><path fill="#a9bc65" stroke="none" d="M 170.733,28.702 L 170.675,30.166 L 172.946,31.6 C 172.364,30.578 171.616,29.592 170.733,28.702 Z" transform=""/><path fill="#a9bc65" stroke="none" d="M 169.178,43.5879 L 169.27,41.2659 L 165.779,39.0609 L 162.124,40.9819 L 161.96,45.1079 L 162.216,45.2699 C 164.811,45.2509 167.211,44.6309 169.178,43.5879 Z" transform=""/><path fill="#a9bc65" stroke="none" d="M 161.033,44.535 L 161.197,40.409 L 157.706,38.204 L 154.051,40.125 L 153.939,42.939 C 155.586,44.044 157.641,44.816 159.914,45.123 L 161.033,44.535 Z" transform=""/><path fill="#a9bc65" stroke="none" d="M 173.556,39.3311 L 170.415,40.9811 L 170.34,42.8901 C 171.763,41.9211 172.877,40.7051 173.556,39.3311 Z" transform=""/><path fill="#a9bc65" stroke="none" d="M 152.813,42.0758 L 152.898,39.9288 L 150.216,38.2348 C 150.661,39.6768 151.566,40.9868 152.813,42.0758 Z" transform=""/><path fill="#a9bc65" stroke="none" d="M 154.18,34.0054 S 156.02,32.9224 157.857,33.0534 C 159.137,33.1444 160.636,33.3774 161.91,34.6094 C 163.644,36.2864 164.054,39.0524 164.076,40.4684 C 164.132,44.2084 161.634,46.5764 157.759,46.4864 C 153.94,46.3974 150.862,43.9014 151.118,40.1734 C 151.263,38.0484 151.95,35.3074 154.18,34.0054 Z" style="opacity: 0.7" opacity="0.7" transform=""/><path fill="#d0e285" stroke="none" d="M 148.246,41.7912 S 148.911,40.0042 150.236,39.0452 C 151.159,38.3762 152.308,37.6792 153.85,37.7902 C 155.948,37.9402 152.661,40.6672 154.394,43.6632 C 156.347,47.0392 160.191,46.0822 157.498,48.2322 C 154.843,50.3522 151.381,50.4122 149.523,47.7322 C 148.462,46.2042 147.435,43.9492 148.246,41.7912 Z" transform=""/><path fill="#d0e285" stroke="none" d="M 147.693,29.9452 S 149.533,28.8622 151.37,28.9932 C 152.65,29.0842 154.149,29.3172 155.423,30.5492 C 157.157,32.2262 157.567,34.9922 157.589,36.4082 C 157.645,40.1482 155.147,42.5162 151.272,42.4262 C 147.453,42.3372 144.375,39.8412 144.631,36.1132 C 144.776,33.9882 145.463,31.2472 147.693,29.9452 Z" transform=""/><ellipse cx="152.69989580882927" cy="36.07317632075703" rx="0.48403925576629203" ry="0.6728022280659759" fill="#304454" stroke="none" transform="rotate(188.8934 152.69989580382378 36.07317625408354)" r="NaN"/><ellipse cx="147.04276429495985" cy="34.885902819989255" rx="0.48403925576629203" ry="0.6728022280659759" fill="#304454" stroke="none" transform="rotate(188.8934 147.04276411111255 34.88590239563216)" r="NaN"/><ellipse cx="149.6981944155921" cy="38.99920792142769" rx="1.3484831942715985" ry="1.2053687839005964" fill="#c75e72" stroke="none" r="NaN" transform=""/><ellipse cx="148.6075638313167" cy="37.79383923792951" rx="2.0891413927721016" ry="1.4138716748721427" fill="#d0e285" stroke="none" r="NaN" transform=""/><path fill="#bed575" stroke="none" d="M 196.271,43.7553 S 196.681,41.6593 195.947,39.9713 C 195.436,38.7943 192.59,40.1093 189.094,41.9643 C 185.155,44.0553 181.937,40.9013 183.31,44.5263 C 184.663,48.0993 188.039,50.1723 191.47,48.6923 C 193.426,47.8493 195.783,46.2913 196.271,43.7553 Z" transform=""/><path fill="#d0e285" stroke="none" d="M 210.25,41.6608 S 209.453,40.1568 209.622,38.6988 C 209.74,37.6828 212.216,38.0288 215.311,38.6358 C 218.799,39.3208 220.525,36.1708 220.315,39.2538 C 220.109,42.2908 218.012,44.6538 215.053,44.3178 C 213.366,44.1268 211.208,43.4828 210.25,41.6608 Z" transform=""/><path fill="#d0e285" stroke="none" d="M 200.132,48.5809 S 199.722,46.4849 200.456,44.7969 C 200.967,43.6199 203.813,44.9349 207.309,46.7899 C 211.248,48.8809 214.466,45.7269 213.093,49.3519 C 211.74,52.9249 208.364,54.9979 204.933,53.5179 C 202.977,52.6749 200.619,51.1169 200.132,48.5809 Z" transform=""/><ellipse cx="202.65881881673062" cy="37.88760401712797" rx="14.316787265073852" ry="9.47968469385624" fill="#bed575" stroke="none" r="NaN" transform=""/><path fill="#bed575" stroke="none" d="M 190.983,35.8384 C 190.983,40.8484 196.445,44.9104 203.183,44.9104 S 215.382,40.8484 215.382,35.8384 S 209.753,24.4224 203.016,24.4224 S 190.983,30.8284 190.983,35.8384 Z" transform=""/><path fill="#a9bc65" stroke="none" d="M 199.635,36.9483 L 203.126,39.1533 L 206.781,37.2323 L 206.945,33.1063 L 203.454,30.9013 L 199.799,32.8223 Z" transform=""/><path fill="#a9bc65" stroke="none" d="M 197.993,37.0252 L 198.157,32.8992 L 194.666,30.6942 L 192.022,32.0842 C 191.355,33.4572 190.983,34.8772 190.983,36.1992 C 190.983,36.4172 190.997,36.6332 191.017,36.8482 L 194.338,38.9462 L 197.993,37.0252 Z" transform=""/><path fill="#a9bc65" stroke="none" d="M 204.194,26.0486 L 204.325,29.7306 L 207.284,31.9276 L 210.111,30.4416 L 209.994,27.1516 C 208.757,26.2636 207.362,25.5706 205.868,25.1686 L 204.194,26.0486 Z" transform=""/><path fill="#a9bc65" stroke="none" d="M 208.099,37.7975 L 211.59,40.0025 L 215.093,38.1615 C 215.167,37.9125 215.226,37.6585 215.272,37.4025 L 215.346,35.5335 C 215.288,34.9205 215.154,34.2945 214.948,33.6645 L 211.918,31.7505 L 208.263,33.6715 L 208.099,37.7975 Z" transform=""/><path fill="#a9bc65" stroke="none" d="M 194.811,30.3268 L 197.898,32.2988 L 201.847,30.1648 L 202.709,26.0598 L 201.012,24.9758 C 198.869,25.3848 196.931,26.4188 195.343,27.7918 L 194.811,30.3268 Z" transform=""/><path fill="#a9bc65" stroke="none" d="M 211.812,28.702 L 211.754,30.166 L 214.025,31.6 C 213.443,30.578 212.695,29.592 211.812,28.702 Z" transform=""/><path fill="#a9bc65" stroke="none" d="M 210.257,43.5879 L 210.349,41.2659 L 206.858,39.0609 L 203.203,40.9819 L 203.039,45.1079 L 203.295,45.2699 C 205.89,45.2509 208.29,44.6309 210.257,43.5879 Z" transform=""/><path fill="#a9bc65" stroke="none" d="M 202.112,44.535 L 202.276,40.409 L 198.785,38.204 L 195.13,40.125 L 195.018,42.939 C 196.665,44.044 198.72,44.816 200.993,45.123 L 202.112,44.535 Z" transform=""/><path fill="#a9bc65" stroke="none" d="M 214.635,39.3311 L 211.494,40.9811 L 211.419,42.8901 C 212.842,41.9211 213.956,40.7051 214.635,39.3311 Z" transform=""/><path fill="#a9bc65" stroke="none" d="M 193.892,42.0758 L 193.977,39.9288 L 191.295,38.2348 C 191.74,39.6768 192.645,40.9868 193.892,42.0758 Z" transform=""/><path fill="#a9bc65" stroke="none" d="M 195.259,34.0054 S 197.099,32.9224 198.936,33.0534 C 200.216,33.1444 201.715,33.3774 202.989,34.6094 C 204.723,36.2864 205.133,39.0524 205.155,40.4684 C 205.211,44.2084 202.713,46.5764 198.838,46.4864 C 195.019,46.3974 191.941,43.9014 192.197,40.1734 C 192.342,38.0484 193.029,35.3074 195.259,34.0054 Z" style="opacity: 0.7" opacity="0.7" transform=""/><path fill="#d0e285" stroke="none" d="M 189.325,41.7912 S 189.99,40.0042 191.315,39.0452 C 192.238,38.3762 193.387,37.6792 194.929,37.7902 C 197.027,37.9402 193.74,40.6672 195.473,43.6632 C 197.426,47.0392 201.27,46.0822 198.577,48.2322 C 195.922,50.3522 192.46,50.4122 190.602,47.7322 C 189.541,46.2042 188.514,43.9492 189.325,41.7912 Z" transform=""/><path fill="#d0e285" stroke="none" d="M 188.772,29.9452 S 190.612,28.8622 192.449,28.9932 C 193.729,29.0842 195.228,29.3172 196.502,30.5492 C 198.236,32.2262 198.646,34.9922 198.668,36.4082 C 198.724,40.1482 196.226,42.5162 192.351,42.4262 C 188.532,42.3372 185.454,39.8412 185.71,36.1132 C 185.855,33.9882 186.542,31.2472 188.772,29.9452 Z" transform=""/><ellipse cx="193.7787339831031" cy="36.07317632075703" rx="0.48403925576629203" ry="0.6728022280659759" fill="#304454" stroke="none" transform="rotate(188.8934 193.77873397809762 36.07317625408354)" r="NaN"/><ellipse cx="188.1216024692337" cy="34.885902819989255" rx="0.48403925576629203" ry="0.6728022280659759" fill="#304454" stroke="none" transform="rotate(188.8934 188.1216022853864 34.88590239563216)" r="NaN"/><ellipse cx="190.77703258986594" cy="38.99920792142769" rx="1.3484831942715985" ry="1.2053687839005964" fill="#c75e72" stroke="none" r="NaN" transform=""/><ellipse cx="189.68640200559054" cy="37.79383923792951" rx="2.0891413927721016" ry="1.4138716748721427" fill="#d0e285" stroke="none" r="NaN" transform=""/><path fill="#bed575" stroke="none" d="M 237.35,43.7553 S 237.76,41.6593 237.026,39.9713 C 236.515,38.7943 233.669,40.1093 230.173,41.9643 C 226.234,44.0553 223.016,40.9013 224.389,44.5263 C 225.742,48.0993 229.118,50.1723 232.549,48.6923 C 234.505,47.8493 236.862,46.2913 237.35,43.7553 Z" transform=""/><path fill="#d0e285" stroke="none" d="M 251.328,41.6608 S 250.531,40.1568 250.7,38.6988 C 250.818,37.6828 253.294,38.0288 256.389,38.6358 C 259.877,39.3208 261.603,36.1708 261.393,39.2538 C 261.187,42.2908 259.09,44.6538 256.131,44.3178 C 254.444,44.1268 252.286,43.4828 251.328,41.6608 Z" transform=""/><path fill="#d0e285" stroke="none" d="M 241.211,48.5809 S 240.801,46.4849 241.535,44.7969 C 242.046,43.6199 244.892,44.9349 248.388,46.7899 C 252.327,48.8809 255.545,45.7269 254.172,49.3519 C 252.819,52.9249 249.443,54.9979 246.012,53.5179 C 244.056,52.6749 241.698,51.1169 241.211,48.5809 Z" transform=""/><ellipse cx="243.73765699100449" cy="37.88760401712797" rx="14.316787265073852" ry="9.47968469385624" fill="#bed575" stroke="none" r="NaN" transform=""/><path fill="#bed575" stroke="none" d="M 232.061,35.8384 C 232.061,40.8484 237.523,44.9104 244.261,44.9104 S 256.46,40.8484 256.46,35.8384 S 250.831,24.4224 244.094,24.4224 S 232.061,30.8284 232.061,35.8384 Z" transform=""/><path fill="#a9bc65" stroke="none" d="M 240.714,36.9483 L 244.205,39.1533 L 247.86,37.2323 L 248.024,33.1063 L 244.533,30.9013 L 240.878,32.8223 Z" transform=""/><path fill="#a9bc65" stroke="none" d="M 239.072,37.0252 L 239.236,32.8992 L 235.745,30.6942 L 233.101,32.0842 C 232.434,33.4572 232.062,34.8772 232.062,36.1992 C 232.062,36.4172 232.076,36.6332 232.096,36.8482 L 235.417,38.9462 L 239.072,37.0252 Z" transform=""/><path fill="#a9bc65" stroke="none" d="M 245.273,26.0486 L 245.404,29.7306 L 248.363,31.9276 L 251.19,30.4416 L 251.073,27.1516 C 249.836,26.2636 248.441,25.5706 246.947,25.1686 L 245.273,26.0486 Z" transform=""/><path fill="#a9bc65" stroke="none" d="M 249.178,37.7975 L 252.669,40.0025 L 256.172,38.1615 C 256.246,37.9125 256.305,37.6585 256.351,37.4025 L 256.425,35.5335 C 256.367,34.9205 256.233,34.2945 256.027,33.6645 L 252.997,31.7505 L 249.342,33.6715 L 249.178,37.7975 Z" transform=""/><path fill="#a9bc65" stroke="none" d="M 235.889,30.3268 L 238.976,32.2988 L 242.925,30.1648 L 243.787,26.0598 L 242.09,24.9758 C 239.947,25.3848 238.009,26.4188 236.421,27.7918 L 235.889,30.3268 Z" transform=""/><path fill="#a9bc65" stroke="none" d="M 252.891,28.702 L 252.833,30.166 L 255.104,31.6 C 254.522,30.578 253.774,29.592 252.891,28.702 Z" transform=""/><path fill="#a9bc65" stroke="none" d="M 251.336,43.5879 L 251.428,41.2659 L 247.937,39.0609 L 244.282,40.9819 L 244.118,45.1079 L 244.374,45.2699 C 246.969,45.2509 249.369,44.6309 251.336,43.5879 Z" transform=""/><path fill="#a9bc65" stroke="none" d="M 243.191,44.535 L 243.355,40.409 L 239.864,38.204 L 236.209,40.125 L 236.097,42.939 C 237.744,44.044 239.799,44.816 242.072,45.123 L 243.191,44.535 Z" transform=""/><path fill="#a9bc65" stroke="none" d="M 255.714,39.3311 L 252.573,40.9811 L 252.498,42.8901 C 253.921,41.9211 255.035,40.7051 255.714,39.3311 Z" transform=""/><path fill="#a9bc65" stroke="none" d="M 234.971,42.0758 L 235.056,39.9288 L 232.374,38.2348 C 232.819,39.6768 233.724,40.9868 234.971,42.0758 Z" transform=""/><path fill="#a9bc65" stroke="none" d="M 236.338,34.0054 S 238.178,32.9224 240.015,33.0534 C 241.295,33.1444 242.794,33.3774 244.068,34.6094 C 245.802,36.2864 246.212,39.0524 246.234,40.4684 C 246.29,44.2084 243.792,46.5764 239.917,46.4864 C 236.098,46.3974 233.02,43.9014 233.276,40.1734 C 233.421,38.0484 234.108,35.3074 236.338,34.0054 Z" style="opacity: 0.7" opacity="0.7" transform=""/><path fill="#d0e285" stroke="none" d="M 230.404,41.7912 S 231.069,40.0042 232.394,39.0452 C 233.317,38.3762 234.466,37.6792 236.008,37.7902 C 238.106,37.9402 234.819,40.6672 236.552,43.6632 C 238.505,47.0392 242.349,46.0822 239.656,48.2322 C 237.001,50.3522 233.539,50.4122 231.681,47.7322 C 230.62,46.2042 229.593,43.9492 230.404,41.7912 Z" transform=""/><path fill="#d0e285" stroke="none" d="M 229.851,29.9452 S 231.691,28.8622 233.528,28.9932 C 234.808,29.0842 236.307,29.3172 237.581,30.5492 C 239.315,32.2262 239.725,34.9922 239.747,36.4082 C 239.803,40.1482 237.305,42.5162 233.43,42.4262 C 229.611,42.3372 226.533,39.8412 226.789,36.1132 C 226.934,33.9882 227.621,31.2472 229.851,29.9452 Z" transform=""/><ellipse cx="234.85757215737698" cy="36.07317632075703" rx="0.48403925576629203" ry="0.6728022280659759" fill="#304454" stroke="none" transform="rotate(188.8934 234.8575721523715 36.07317625408354)" r="NaN"/><ellipse cx="229.20044064350756" cy="34.885902819989255" rx="0.48403925576629203" ry="0.6728022280659759" fill="#304454" stroke="none" transform="rotate(188.8934 229.20044045966026 34.88590239563216)" r="NaN"/><ellipse cx="231.8558707641398" cy="38.99920792142769" rx="1.3484831942715985" ry="1.2053687839005964" fill="#c75e72" stroke="none" r="NaN" transform=""/><ellipse cx="230.7652401798644" cy="37.79383923792951" rx="2.0891413927721016" ry="1.4138716748721427" fill="#d0e285" stroke="none" r="NaN" transform=""/><path fill="#bed575" stroke="none" d="M 278.429,43.7553 S 278.839,41.6593 278.105,39.9713 C 277.594,38.7943 274.748,40.1093 271.252,41.9643 C 267.313,44.0553 264.095,40.9013 265.468,44.5263 C 266.821,48.0993 270.197,50.1723 273.628,48.6923 C 275.584,47.8493 277.941,46.2913 278.429,43.7553 Z" transform=""/><path fill="#d0e285" stroke="none" d="M 292.407,41.6608 S 291.61,40.1568 291.779,38.6988 C 291.897,37.6828 294.373,38.0288 297.468,38.6358 C 300.956,39.3208 302.682,36.1708 302.472,39.2538 C 302.266,42.2908 300.169,44.6538 297.21,44.3178 C 295.523,44.1268 293.365,43.4828 292.407,41.6608 Z" transform=""/><path fill="#d0e285" stroke="none" d="M 282.289,48.5809 S 281.879,46.4849 282.613,44.7969 C 283.124,43.6199 285.97,44.9349 289.466,46.7899 C 293.405,48.8809 296.623,45.7269 295.25,49.3519 C 293.897,52.9249 290.521,54.9979 287.09,53.5179 C 285.134,52.6749 282.776,51.1169 282.289,48.5809 Z" transform=""/><ellipse cx="284.8164951652783" cy="37.88760401712797" rx="14.316787265073852" ry="9.47968469385624" fill="#bed575" stroke="none" r="NaN" transform=""/><path fill="#bed575" stroke="none" d="M 273.14,35.8384 C 273.14,40.8484 278.602,44.9104 285.34,44.9104 S 297.539,40.8484 297.539,35.8384 S 291.91,24.4224 285.173,24.4224 S 273.14,30.8284 273.14,35.8384 Z" transform=""/><path fill="#a9bc65" stroke="none" d="M 281.793,36.9483 L 285.284,39.1533 L 288.939,37.2323 L 289.103,33.1063 L 285.612,30.9013 L 281.957,32.8223 Z" transform=""/><path fill="#a9bc65" stroke="none" d="M 280.151,37.0252 L 280.315,32.8992 L 276.824,30.6942 L 274.18,32.0842 C 273.513,33.4572 273.141,34.8772 273.141,36.1992 C 273.141,36.4172 273.155,36.6332 273.175,36.8482 L 276.496,38.9462 L 280.151,37.0252 Z" transform=""/><path fill="#a9bc65" stroke="none" d="M 286.352,26.0486 L 286.483,29.7306 L 289.442,31.9276 L 292.269,30.4416 L 292.152,27.1516 C 290.915,26.2636 289.52,25.5706 288.026,25.1686 L 286.352,26.0486 Z" transform=""/><path fill="#a9bc65" stroke="none" d="M 290.256,37.7975 L 293.747,40.0025 L 297.25,38.1615 C 297.324,37.9125 297.383,37.6585 297.429,37.4025 L 297.503,35.5335 C 297.445,34.9205 297.311,34.2945 297.105,33.6645 L 294.075,31.7505 L 290.42,33.6715 L 290.256,37.7975 Z" transform=""/><path fill="#a9bc65" stroke="none" d="M 276.968,30.3268 L 280.055,32.2988 L 284.004,30.1648 L 284.866,26.0598 L 283.169,24.9758 C 281.026,25.3848 279.088,26.4188 277.5,27.7918 L 276.968,30.3268 Z" transform=""/><path fill="#a9bc65" stroke="none" d="M 293.97,28.702 L 293.912,30.166 L 296.183,31.6 C 295.601,30.578 294.853,29.592 293.97,28.702 Z" transform=""/><path fill="#a9bc65" stroke="none" d="M 292.415,43.5879 L 292.507,41.2659 L 289.016,39.0609 L 285.361,40.9819 L 285.197,45.1079 L 285.453,45.2699 C 288.048,45.2509 290.448,44.6309 292.415,43.5879 Z" transform=""/><path fill="#a9bc65" stroke="none" d="M 284.27,44.535 L 284.434,40.409 L 280.943,38.204 L 277.288,40.125 L 277.176,42.939 C 278.823,44.044 280.878,44.816 283.151,45.123 L 284.27,44.535 Z" transform=""/><path fill="#a9bc65" stroke="none" d="M 296.793,39.3311 L 293.652,40.9811 L 293.577,42.8901 C 295,41.9211 296.114,40.7051 296.793,39.3311 Z" transform=""/><path fill="#a9bc65" stroke="none" d="M 276.05,42.0758 L 276.135,39.9288 L 273.453,38.2348 C 273.898,39.6768 274.803,40.9868 276.05,42.0758 Z" transform=""/><path fill="#a9bc65" stroke="none" d="M 277.416,34.0054 S 279.256,32.9224 281.093,33.0534 C 282.373,33.1444 283.872,33.3774 285.146,34.6094 C 286.88,36.2864 287.29,39.0524 287.312,40.4684 C 287.368,44.2084 284.87,46.5764 280.995,46.4864 C 277.176,46.3974 274.098,43.9014 274.354,40.1734 C 274.499,38.0484 275.186,35.3074 277.416,34.0054 Z" style="opacity: 0.7" opacity="0.7" transform=""/><path fill="#d0e285" stroke="none" d="M 271.483,41.7912 S 272.148,40.0042 273.473,39.0452 C 274.396,38.3762 275.545,37.6792 277.087,37.7902 C 279.185,37.9402 275.898,40.6672 277.631,43.6632 C 279.584,47.0392 283.428,46.0822 280.735,48.2322 C 278.08,50.3522 274.618,50.4122 272.76,47.7322 C 271.699,46.2042 270.672,43.9492 271.483,41.7912 Z" transform=""/><path fill="#d0e285" stroke="none" d="M 270.93,29.9452 S 272.77,28.8622 274.607,28.9932 C 275.887,29.0842 277.386,29.3172 278.66,30.5492 C 280.394,32.2262 280.804,34.9922 280.826,36.4082 C 280.882,40.1482 278.384,42.5162 274.509,42.4262 C 270.69,42.3372 267.612,39.8412 267.868,36.1132 C 268.013,33.9882 268.7,31.2472 270.93,29.9452 Z" transform=""/><ellipse cx="275.9364103316508" cy="36.07317632075703" rx="0.48403925576629203" ry="0.6728022280659759" fill="#304454" stroke="none" transform="rotate(188.8934 275.93641032664533 36.07317625408354)" r="NaN"/><ellipse cx="270.2792788177814" cy="34.885902819989255" rx="0.48403925576629203" ry="0.6728022280659759" fill="#304454" stroke="none" transform="rotate(188.8934 270.2792786339341 34.88590239563216)" r="NaN"/><ellipse cx="272.9347089384136" cy="38.99920792142769" rx="1.3484831942715985" ry="1.2053687839005964" fill="#c75e72" stroke="none" r="NaN" transform=""/><ellipse cx="271.8440783541382" cy="37.79383923792951" rx="2.0891413927721016" ry="1.4138716748721427" fill="#d0e285" stroke="none" r="NaN" transform=""/><path fill="#bed575" stroke="none" d="M 319.507,43.7553 S 319.917,41.6593 319.183,39.9713 C 318.672,38.7943 315.826,40.1093 312.33,41.9643 C 308.391,44.0553 305.173,40.9013 306.546,44.5263 C 307.899,48.0993 311.275,50.1723 314.706,48.6923 C 316.662,47.8493 319.019,46.2913 319.507,43.7553 Z" transform=""/><path fill="#d0e285" stroke="none" d="M 333.486,41.6608 S 332.689,40.1568 332.858,38.6988 C 332.976,37.6828 335.452,38.0288 338.547,38.6358 C 342.035,39.3208 343.761,36.1708 343.551,39.2538 C 343.345,42.2908 341.248,44.6538 338.289,44.3178 C 336.602,44.1268 334.444,43.4828 333.486,41.6608 Z" transform=""/><path fill="#d0e285" stroke="none" d="M 323.368,48.5809 S 322.958,46.4849 323.692,44.7969 C 324.203,43.6199 327.049,44.9349 330.545,46.7899 C 334.484,48.8809 337.702,45.7269 336.329,49.3519 C 334.976,52.9249 331.6,54.9979 328.169,53.5179 C 326.213,52.6749 323.855,51.1169 323.368,48.5809 Z" transform=""/><ellipse cx="325.8953333395522" cy="37.88760401712797" rx="14.316787265073852" ry="9.47968469385624" fill="#bed575" stroke="none" r="NaN" transform=""/><path fill="#bed575" stroke="none" d="M 314.219,35.8384 C 314.219,40.8484 319.681,44.9104 326.419,44.9104 S 338.618,40.8484 338.618,35.8384 S 332.989,24.4224 326.252,24.4224 S 314.219,30.8284 314.219,35.8384 Z" transform=""/><path fill="#a9bc65" stroke="none" d="M 322.872,36.9483 L 326.363,39.1533 L 330.018,37.2323 L 330.182,33.1063 L 326.691,30.9013 L 323.036,32.8223 Z" transform=""/><path fill="#a9bc65" stroke="none" d="M 321.23,37.0252 L 321.394,32.8992 L 317.903,30.6942 L 315.259,32.0842 C 314.592,33.4572 314.22,34.8772 314.22,36.1992 C 314.22,36.4172 314.234,36.6332 314.254,36.8482 L 317.575,38.9462 L 321.23,37.0252 Z" transform=""/><path fill="#a9bc65" stroke="none" d="M 327.431,26.0486 L 327.562,29.7306 L 330.521,31.9276 L 333.348,30.4416 L 333.231,27.1516 C 331.994,26.2636 330.599,25.5706 329.105,25.1686 L 327.431,26.0486 Z" transform=""/><path fill="#a9bc65" stroke="none" d="M 331.335,37.7975 L 334.826,40.0025 L 338.329,38.1615 C 338.403,37.9125 338.462,37.6585 338.508,37.4025 L 338.582,35.5335 C 338.524,34.9205 338.39,34.2945 338.184,33.6645 L 335.154,31.7505 L 331.499,33.6715 L 331.335,37.7975 Z" transform=""/><path fill="#a9bc65" stroke="none" d="M 318.047,30.3268 L 321.134,32.2988 L 325.083,30.1648 L 325.945,26.0598 L 324.248,24.9758 C 322.105,25.3848 320.167,26.4188 318.579,27.7918 L 318.047,30.3268 Z" transform=""/><path fill="#a9bc65" stroke="none" d="M 335.048,28.702 L 334.99,30.166 L 337.261,31.6 C 336.679,30.578 335.931,29.592 335.048,28.702 Z" transform=""/><path fill="#a9bc65" stroke="none" d="M 333.494,43.5879 L 333.586,41.2659 L 330.095,39.0609 L 326.44,40.9819 L 326.276,45.1079 L 326.532,45.2699 C 329.127,45.2509 331.527,44.6309 333.494,43.5879 Z" transform=""/><path fill="#a9bc65" stroke="none" d="M 325.348,44.535 L 325.512,40.409 L 322.021,38.204 L 318.366,40.125 L 318.254,42.939 C 319.901,44.044 321.956,44.816 324.229,45.123 L 325.348,44.535 Z" transform=""/><path fill="#a9bc65" stroke="none" d="M 337.872,39.3311 L 334.731,40.9811 L 334.656,42.8901 C 336.079,41.9211 337.193,40.7051 337.872,39.3311 Z" transform=""/><path fill="#a9bc65" stroke="none" d="M 317.128,42.0758 L 317.213,39.9288 L 314.531,38.2348 C 314.976,39.6768 315.881,40.9868 317.128,42.0758 Z" transform=""/><path fill="#a9bc65" stroke="none" d="M 318.495,34.0054 S 320.335,32.9224 322.172,33.0534 C 323.452,33.1444 324.951,33.3774 326.225,34.6094 C 327.959,36.2864 328.369,39.0524 328.391,40.4684 C 328.447,44.2084 325.949,46.5764 322.074,46.4864 C 318.255,46.3974 315.177,43.9014 315.433,40.1734 C 315.578,38.0484 316.265,35.3074 318.495,34.0054 Z" style="opacity: 0.7" opacity="0.7" transform=""/><path fill="#d0e285" stroke="none" d="M 312.562,41.7912 S 313.227,40.0042 314.552,39.0452 C 315.475,38.3762 316.624,37.6792 318.166,37.7902 C 320.264,37.9402 316.977,40.6672 318.71,43.6632 C 320.663,47.0392 324.507,46.0822 321.814,48.2322 C 319.159,50.3522 315.697,50.4122 313.839,47.7322 C 312.778,46.2042 311.751,43.9492 312.562,41.7912 Z" transform=""/><path fill="#d0e285" stroke="none" d="M 312.009,29.9452 S 313.849,28.8622 315.686,28.9932 C 316.966,29.0842 318.465,29.3172 319.739,30.5492 C 321.473,32.2262 321.883,34.9922 321.905,36.4082 C 321.961,40.1482 319.463,42.5162 315.588,42.4262 C 311.769,42.3372 308.691,39.8412 308.947,36.1132 C 309.092,33.9882 309.779,31.2472 312.009,29.9452 Z" transform=""/><ellipse cx="317.0152485059247" cy="36.07317632075703" rx="0.48403925576629203" ry="0.6728022280659759" fill="#304454" stroke="none" transform="rotate(188.8934 317.01524850091926 36.07317625408354)" r="NaN"/><ellipse cx="311.35811699205533" cy="34.885902819989255" rx="0.48403925576629203" ry="0.6728022280659759" fill="#304454" stroke="none" transform="rotate(188.8934 311.358116808208 34.88590239563216)" r="NaN"/><ellipse cx="314.01354711268755" cy="38.99920792142769" rx="1.3484831942715985" ry="1.2053687839005964" fill="#c75e72" stroke="none" r="NaN" transform=""/><ellipse cx="312.92291652841214" cy="37.79383923792951" rx="2.0891413927721016" ry="1.4138716748721427" fill="#d0e285" stroke="none" r="NaN" transform=""/><path fill="#bed575" stroke="none" d="M 360.586,43.7553 S 360.996,41.6593 360.262,39.9713 C 359.751,38.7943 356.905,40.1093 353.409,41.9643 C 349.47,44.0553 346.252,40.9013 347.625,44.5263 C 348.978,48.0993 352.354,50.1723 355.785,48.6923 C 357.741,47.8493 360.098,46.2913 360.586,43.7553 Z" transform=""/><path fill="#d0e285" stroke="none" d="M 374.565,41.6608 S 373.768,40.1568 373.937,38.6988 C 374.055,37.6828 376.531,38.0288 379.626,38.6358 C 383.114,39.3208 384.84,36.1708 384.63,39.2538 C 384.424,42.2908 382.327,44.6538 379.368,44.3178 C 377.681,44.1268 375.523,43.4828 374.565,41.6608 Z" transform=""/><path fill="#d0e285" stroke="none" d="M 364.447,48.5809 S 364.037,46.4849 364.771,44.7969 C 365.282,43.6199 368.128,44.9349 371.624,46.7899 C 375.563,48.8809 378.781,45.7269 377.408,49.3519 C 376.055,52.9249 372.679,54.9979 369.248,53.5179 C 367.292,52.6749 364.934,51.1169 364.447,48.5809 Z" transform=""/><ellipse cx="366.97417151382604" cy="37.88760401712797" rx="14.316787265073852" ry="9.47968469385624" fill="#bed575" stroke="none" r="NaN" transform=""/><path fill="#bed575" stroke="none" d="M 355.298,35.8384 C 355.298,40.8484 360.76,44.9104 367.498,44.9104 S 379.697,40.8484 379.697,35.8384 S 374.068,24.4224 367.331,24.4224 S 355.298,30.8284 355.298,35.8384 Z" transform=""/><path fill="#a9bc65" stroke="none" d="M 363.951,36.9483 L 367.442,39.1533 L 371.097,37.2323 L 371.261,33.1063 L 367.77,30.9013 L 364.115,32.8223 Z" transform=""/><path fill="#a9bc65" stroke="none" d="M 362.309,37.0252 L 362.473,32.8992 L 358.982,30.6942 L 356.338,32.0842 C 355.671,33.4572 355.299,34.8772 355.299,36.1992 C 355.299,36.4172 355.313,36.6332 355.333,36.8482 L 358.654,38.9462 L 362.309,37.0252 Z" transform=""/><path fill="#a9bc65" stroke="none" d="M 368.509,26.0486 L 368.64,29.7306 L 371.599,31.9276 L 374.426,30.4416 L 374.309,27.1516 C 373.072,26.2636 371.677,25.5706 370.183,25.1686 L 368.509,26.0486 Z" transform=""/><path fill="#a9bc65" stroke="none" d="M 372.414,37.7975 L 375.905,40.0025 L 379.408,38.1615 C 379.482,37.9125 379.541,37.6585 379.587,37.4025 L 379.661,35.5335 C 379.603,34.9205 379.469,34.2945 379.263,33.6645 L 376.233,31.7505 L 372.578,33.6715 L 372.414,37.7975 Z" transform=""/><path fill="#a9bc65" stroke="none" d="M 359.126,30.3268 L 362.213,32.2988 L 366.162,30.1648 L 367.024,26.0598 L 365.327,24.9758 C 363.184,25.3848 361.246,26.4188 359.658,27.7918 L 359.126,30.3268 Z" transform=""/><path fill="#a9bc65" stroke="none" d="M 376.127,28.702 L 376.069,30.166 L 378.34,31.6 C 377.758,30.578 377.01,29.592 376.127,28.702 Z" transform=""/><path fill="#a9bc65" stroke="none" d="M 374.572,43.5879 L 374.664,41.2659 L 371.173,39.0609 L 367.518,40.9819 L 367.354,45.1079 L 367.61,45.2699 C 370.205,45.2509 372.605,44.6309 374.572,43.5879 Z" transform=""/><path fill="#a9bc65" stroke="none" d="M 366.427,44.535 L 366.591,40.409 L 363.1,38.204 L 359.445,40.125 L 359.333,42.939 C 360.98,44.044 363.035,44.816 365.308,45.123 L 366.427,44.535 Z" transform=""/><path fill="#a9bc65" stroke="none" d="M 378.951,39.3311 L 375.81,40.9811 L 375.735,42.8901 C 377.158,41.9211 378.272,40.7051 378.951,39.3311 Z" transform=""/><path fill="#a9bc65" stroke="none" d="M 358.207,42.0758 L 358.292,39.9288 L 355.61,38.2348 C 356.055,39.6768 356.96,40.9868 358.207,42.0758 Z" transform=""/><path fill="#a9bc65" stroke="none" d="M 359.574,34.0054 S 361.414,32.9224 363.251,33.0534 C 364.531,33.1444 366.03,33.3774 367.304,34.6094 C 369.038,36.2864 369.448,39.0524 369.47,40.4684 C 369.526,44.2084 367.028,46.5764 363.153,46.4864 C 359.334,46.3974 356.256,43.9014 356.512,40.1734 C 356.657,38.0484 357.344,35.3074 359.574,34.0054 Z" style="opacity: 0.7" opacity="0.7" transform=""/><path fill="#d0e285" stroke="none" d="M 353.641,41.7912 S 354.306,40.0042 355.631,39.0452 C 356.554,38.3762 357.703,37.6792 359.245,37.7902 C 361.343,37.9402 358.056,40.6672 359.789,43.6632 C 361.742,47.0392 365.586,46.0822 362.893,48.2322 C 360.238,50.3522 356.776,50.4122 354.918,47.7322 C 353.857,46.2042 352.83,43.9492 353.641,41.7912 Z" transform=""/><path fill="#d0e285" stroke="none" d="M 353.088,29.9452 S 354.928,28.8622 356.765,28.9932 C 358.045,29.0842 359.544,29.3172 360.818,30.5492 C 362.552,32.2262 362.962,34.9922 362.984,36.4082 C 363.04,40.1482 360.542,42.5162 356.667,42.4262 C 352.848,42.3372 349.77,39.8412 350.026,36.1132 C 350.171,33.9882 350.858,31.2472 353.088,29.9452 Z" transform=""/><ellipse cx="358.09408668019853" cy="36.07317632075703" rx="0.48403925576629203" ry="0.6728022280659759" fill="#304454" stroke="none" transform="rotate(188.8934 358.09408667519307 36.07317625408354)" r="NaN"/><ellipse cx="352.43695516632914" cy="34.885902819989255" rx="0.48403925576629203" ry="0.6728022280659759" fill="#304454" stroke="none" transform="rotate(188.8934 352.43695498248184 34.88590239563216)" r="NaN"/><ellipse cx="355.09238528696136" cy="38.99920792142769" rx="1.3484831942715985" ry="1.2053687839005964" fill="#c75e72" stroke="none" r="NaN" transform=""/><ellipse cx="354.00175470268596" cy="37.79383923792951" rx="2.0891413927721016" ry="1.4138716748721427" fill="#d0e285" stroke="none" r="NaN" transform=""/><path fill="#bed575" stroke="none" d="M 401.665,43.7553 S 402.075,41.6593 401.341,39.9713 C 400.83,38.7943 397.984,40.1093 394.488,41.9643 C 390.549,44.0553 387.331,40.9013 388.704,44.5263 C 390.057,48.0993 393.433,50.1723 396.864,48.6923 C 398.82,47.8493 401.177,46.2913 401.665,43.7553 Z" transform=""/><path fill="#d0e285" stroke="none" d="M 415.644,41.6608 S 414.847,40.1568 415.016,38.6988 C 415.134,37.6828 417.61,38.0288 420.705,38.6358 C 424.193,39.3208 425.919,36.1708 425.709,39.2538 C 425.503,42.2908 423.406,44.6538 420.447,44.3178 C 418.76,44.1268 416.602,43.4828 415.644,41.6608 Z" transform=""/><path fill="#d0e285" stroke="none" d="M 405.526,48.5809 S 405.116,46.4849 405.85,44.7969 C 406.361,43.6199 409.207,44.9349 412.703,46.7899 C 416.642,48.8809 419.86,45.7269 418.487,49.3519 C 417.134,52.9249 413.758,54.9979 410.327,53.5179 C 408.371,52.6749 406.013,51.1169 405.526,48.5809 Z" transform=""/><ellipse cx="408.0530096880999" cy="37.88760401712797" rx="14.316787265073852" ry="9.47968469385624" fill="#bed575" stroke="none" r="NaN" transform=""/><path fill="#bed575" stroke="none" d="M 396.377,35.8384 C 396.377,40.8484 401.839,44.9104 408.577,44.9104 S 420.776,40.8484 420.776,35.8384 S 415.147,24.4224 408.41,24.4224 S 396.377,30.8284 396.377,35.8384 Z" transform=""/><path fill="#a9bc65" stroke="none" d="M 405.03,36.9483 L 408.521,39.1533 L 412.176,37.2323 L 412.34,33.1063 L 408.849,30.9013 L 405.194,32.8223 Z" transform=""/><path fill="#a9bc65" stroke="none" d="M 403.387,37.0252 L 403.551,32.8992 L 400.06,30.6942 L 397.416,32.0842 C 396.749,33.4572 396.377,34.8772 396.377,36.1992 C 396.377,36.4172 396.391,36.6332 396.411,36.8482 L 399.732,38.9462 L 403.387,37.0252 Z" transform=""/><path fill="#a9bc65" stroke="none" d="M 409.588,26.0486 L 409.719,29.7306 L 412.678,31.9276 L 415.505,30.4416 L 415.388,27.1516 C 414.151,26.2636 412.756,25.5706 411.262,25.1686 L 409.588,26.0486 Z" transform=""/><path fill="#a9bc65" stroke="none" d="M 413.493,37.7975 L 416.984,40.0025 L 420.487,38.1615 C 420.561,37.9125 420.62,37.6585 420.666,37.4025 L 420.74,35.5335 C 420.682,34.9205 420.548,34.2945 420.342,33.6645 L 417.312,31.7505 L 413.657,33.6715 L 413.493,37.7975 Z" transform=""/><path fill="#a9bc65" stroke="none" d="M 400.205,30.3268 L 403.292,32.2988 L 407.241,30.1648 L 408.103,26.0598 L 406.406,24.9758 C 404.263,25.3848 402.325,26.4188 400.737,27.7918 L 400.205,30.3268 Z" transform=""/><path fill="#a9bc65" stroke="none" d="M 417.206,28.702 L 417.148,30.166 L 419.419,31.6 C 418.837,30.578 418.089,29.592 417.206,28.702 Z" transform=""/><path fill="#a9bc65" stroke="none" d="M 415.651,43.5879 L 415.743,41.2659 L 412.252,39.0609 L 408.597,40.9819 L 408.433,45.1079 L 408.689,45.2699 C 411.284,45.2509 413.684,44.6309 415.651,43.5879 Z" transform=""/><path fill="#a9bc65" stroke="none" d="M 407.506,44.535 L 407.67,40.409 L 404.179,38.204 L 400.524,40.125 L 400.412,42.939 C 402.059,44.044 404.114,44.816 406.387,45.123 L 407.506,44.535 Z" transform=""/><path fill="#a9bc65" stroke="none" d="M 420.029,39.3311 L 416.888,40.9811 L 416.813,42.8901 C 418.236,41.9211 419.35,40.7051 420.029,39.3311 Z" transform=""/><path fill="#a9bc65" stroke="none" d="M 399.286,42.0758 L 399.371,39.9288 L 396.689,38.2348 C 397.134,39.6768 398.039,40.9868 399.286,42.0758 Z" transform=""/><path fill="#a9bc65" stroke="none" d="M 400.653,34.0054 S 402.493,32.9224 404.33,33.0534 C 405.61,33.1444 407.109,33.3774 408.383,34.6094 C 410.117,36.2864 410.527,39.0524 410.549,40.4684 C 410.605,44.2084 408.107,46.5764 404.232,46.4864 C 400.413,46.3974 397.335,43.9014 397.591,40.1734 C 397.736,38.0484 398.423,35.3074 400.653,34.0054 Z" style="opacity: 0.7" opacity="0.7" transform=""/><path fill="#d0e285" stroke="none" d="M 394.72,41.7912 S 395.385,40.0042 396.71,39.0452 C 397.633,38.3762 398.782,37.6792 400.324,37.7902 C 402.422,37.9402 399.135,40.6672 400.868,43.6632 C 402.821,47.0392 406.665,46.0822 403.972,48.2322 C 401.317,50.3522 397.855,50.4122 395.997,47.7322 C 394.936,46.2042 393.909,43.9492 394.72,41.7912 Z" transform=""/><path fill="#d0e285" stroke="none" d="M 394.166,29.9452 S 396.006,28.8622 397.843,28.9932 C 399.123,29.0842 400.622,29.3172 401.896,30.5492 C 403.63,32.2262 404.04,34.9922 404.062,36.4082 C 404.118,40.1482 401.62,42.5162 397.745,42.4262 C 393.926,42.3372 390.848,39.8412 391.104,36.1132 C 391.249,33.9882 391.936,31.2472 394.166,29.9452 Z" transform=""/><ellipse cx="399.1729248544724" cy="36.07317632075703" rx="0.48403925576629203" ry="0.6728022280659759" fill="#304454" stroke="none" transform="rotate(188.8934 399.17292484946694 36.07317625408354)" r="NaN"/><ellipse cx="393.515793340603" cy="34.885902819989255" rx="0.48403925576629203" ry="0.6728022280659759" fill="#304454" stroke="none" transform="rotate(188.8934 393.5157931567557 34.88590239563216)" r="NaN"/><ellipse cx="396.17122346123523" cy="38.99920792142769" rx="1.3484831942715985" ry="1.2053687839005964" fill="#c75e72" stroke="none" r="NaN" transform=""/><ellipse cx="395.0805928769598" cy="37.79383923792951" rx="2.0891413927721016" ry="1.4138716748721427" fill="#d0e285" stroke="none" r="NaN" transform=""/></svg>