<svg xmlns="http://www.w3.org/2000/svg" version="1.1" width="300" height="42.857142857142854" viewBox="0 0 300 42.857142857142854"><defs/><path fill="#bed575" stroke="none" d="M 15.2442,26.643 S 15.7152,24.238 14.8732,22.3 C 14.2852,20.949 11.0192,22.459 7.00722,24.588 C 2.48722,26.987 -1.20578,23.368 0.369222,27.527 C 1.92222,31.628 5.79722,34.007 9.73422,32.309 C 11.9792,31.341 14.6842,29.554 15.2442,26.643 Z" transform=""/><path fill="#d0e285" stroke="none" d="M 31.2865,24.2393 S 30.3715,22.5133 30.5665,20.8403 C 30.7015,19.6743 33.5425,20.0713 37.0945,20.7683 C 41.0975,21.5533 43.0775,17.9383 42.8375,21.4763 C 42.6005,24.9633 40.1945,27.6733 36.7985,27.2883 C 34.8625,27.0693 32.3855,26.3303 31.2865,24.2393 Z" transform=""/><path fill="#d0e285" stroke="none" d="M 19.6749,32.1809 S 19.2039,29.7759 20.0459,27.8379 C 20.6339,26.4869 23.8999,27.9969 27.9119,30.1259 C 32.4319,32.5249 36.1249,28.9059 34.5499,33.0649 C 32.9969,37.1659 29.1219,39.5449 25.1849,37.8469 C 22.9399,36.8789 20.2339,35.0919 19.6749,32.1809 Z" transform=""/><ellipse cx="22.575120642057538" cy="19.909107467275444" rx="16.430217766108566" ry="10.879066720092164" fill="#bed575" stroke="none" r="NaN" transform=""/><path fill="#bed575" stroke="none" d="M 9.17533,17.5573 C 9.17533,23.3073 15.4443,27.9683 23.1763,27.9683 S 37.1763,23.3073 37.1763,17.5573 S 30.7163,4.45635 22.9843,4.45635 S 9.17533,11.8073 9.17533,17.5573 Z" transform=""/><path fill="#a9bc65" stroke="none" d="M 19.1053,18.8312 L 23.1113,21.3612 L 27.3063,19.1572 L 27.4943,14.4222 L 23.4883,11.8912 L 19.2933,14.0962 Z" transform=""/><path fill="#a9bc65" stroke="none" d="M 17.2208,18.9194 L 17.4088,14.1844 L 13.4028,11.6544 L 10.3678,13.2484 C 9.60278,14.8254 9.17578,16.4534 9.17578,17.9714 C 9.17578,18.2214 9.19178,18.4704 9.21578,18.7164 L 13.0268,21.1234 L 17.2208,18.9194 Z" transform=""/><path fill="#a9bc65" stroke="none" d="M 24.3369,6.32243 L 24.4879,10.5484 L 27.8829,13.0694 L 31.1279,11.3634 L 30.9929,7.58843 C 29.5739,6.56943 27.9729,5.77343 26.2579,5.31243 L 24.3369,6.32243 Z" transform=""/><path fill="#a9bc65" stroke="none" d="M 28.8182,19.8057 L 32.8242,22.3357 L 36.8442,20.2237 C 36.9292,19.9377 36.9972,19.6467 37.0502,19.3517 L 37.1352,17.2077 C 37.0692,16.5047 36.9142,15.7847 36.6782,15.0627 L 33.2012,12.8657 L 29.0062,15.0707 L 28.8182,19.8057 Z" transform=""/><path fill="#a9bc65" stroke="none" d="M 13.5683,11.2322 L 17.1113,13.4952 L 21.6433,11.0472 L 22.6323,6.33519 L 20.6853,5.09119 C 18.2253,5.56019 16.0013,6.74719 14.1793,8.32219 L 13.5683,11.2322 Z" transform=""/><path fill="#a9bc65" stroke="none" d="M 33.0795,9.36749 L 33.0125,11.0475 L 35.6185,12.6935 C 34.9515,11.5205 34.0935,10.3885 33.0795,9.36749 Z" transform=""/><path fill="#a9bc65" stroke="none" d="M 31.295,26.4509 L 31.401,23.7859 L 27.394,21.2559 L 23.2,23.4609 L 23.011,28.1949 L 23.305,28.3809 C 26.284,28.3599 29.038,27.6479 31.295,26.4509 Z" transform=""/><path fill="#a9bc65" stroke="none" d="M 21.9474,27.5378 L 22.1354,22.8028 L 18.1294,20.2728 L 13.9344,22.4768 L 13.8064,25.7068 C 15.6964,26.9738 18.0544,27.8608 20.6634,28.2118 L 21.9474,27.5378 Z" transform=""/><path fill="#a9bc65" stroke="none" d="M 36.3194,21.5657 L 32.7154,23.4597 L 32.6284,25.6507 C 34.2614,24.5387 35.5394,23.1417 36.3194,21.5657 Z" transform=""/><path fill="#a9bc65" stroke="none" d="M 12.514,24.7155 L 12.612,22.2515 L 9.53395,20.3075 C 10.044,21.9625 11.083,23.4665 12.514,24.7155 Z" transform=""/><path fill="#a9bc65" stroke="none" d="M 14.0827,15.4538 S 16.1947,14.2108 18.3027,14.3608 C 19.7717,14.4658 21.4917,14.7328 22.9537,16.1468 C 24.9437,18.0708 25.4147,21.2458 25.4397,22.8708 C 25.5037,27.1638 22.6367,29.8808 18.1897,29.7768 C 13.8067,29.6748 10.2747,26.8108 10.5687,22.5328 C 10.7357,20.0938 11.5237,16.9488 14.0827,15.4538 Z" style="opacity: 0.7" opacity="0.7" transform=""/><path fill="#d0e285" stroke="none" d="M 7.27335,24.3889 S 8.03635,22.3379 9.55635,21.2379 C 10.6164,20.4699 11.9354,19.6699 13.7044,19.7969 C 16.1124,19.9689 12.3394,23.0989 14.3294,26.5379 C 16.5704,30.4119 20.9814,29.3129 17.8914,31.7809 C 14.8444,34.2139 10.8714,34.2819 8.73835,31.2069 C 7.52135,29.4539 6.34235,26.8659 7.27335,24.3889 Z" transform=""/><path fill="#d0e285" stroke="none" d="M 6.63857,10.7942 S 8.75057,9.55121 10.8586,9.70121 C 12.3276,9.80621 14.0476,10.0732 15.5096,11.4872 C 17.4996,13.4112 17.9706,16.5862 17.9956,18.2112 C 18.0596,22.5042 15.1926,25.2212 10.7456,25.1172 C 6.36257,25.0152 2.83057,22.1512 3.12457,17.8732 C 3.29157,15.4342 4.07957,12.2892 6.63857,10.7942 Z" transform=""/><ellipse cx="12.384166142513592" cy="17.826835682392595" rx="0.5554926697127447" ry="0.7721206522090487" fill="#304454" stroke="none" transform="rotate(188.8934 12.384166136769188 17.826835605876838)" r="NaN"/><ellipse cx="5.89193426231107" cy="16.46429799817815" rx="0.5554926697127447" ry="0.7721206522090487" fill="#304454" stroke="none" transform="rotate(188.8934 5.8919340513244 16.46429751117786)" r="NaN"/><ellipse cx="8.939356448369956" cy="21.184805281257503" rx="1.5475449991402632" ry="1.3833041758097322" fill="#c75e72" stroke="none" r="NaN" transform=""/><ellipse cx="7.687728015939626" cy="19.801501220671497" rx="2.39753845551465" ry="1.6225860649723165" fill="#d0e285" stroke="none" r="NaN" transform=""/><path fill="#bed575" stroke="none" d="M 58.1014,26.643 S 58.5724,24.238 57.7304,22.3 C 57.1424,20.949 53.8764,22.459 49.8644,24.588 C 45.3444,26.987 41.6514,23.368 43.2264,27.527 C 44.7794,31.628 48.6544,34.007 52.5914,32.309 C 54.8364,31.341 57.5414,29.554 58.1014,26.643 Z" transform=""/><path fill="#d0e285" stroke="none" d="M 74.1436,24.2393 S 73.2286,22.5133 73.4236,20.8403 C 73.5586,19.6743 76.3996,20.0713 79.9516,20.7683 C 83.9546,21.5533 85.9346,17.9383 85.6946,21.4763 C 85.4576,24.9633 83.0516,27.6733 79.6556,27.2883 C 77.7196,27.0693 75.2426,26.3303 74.1436,24.2393 Z" transform=""/><path fill="#d0e285" stroke="none" d="M 62.5321,32.1809 S 62.0611,29.7759 62.9031,27.8379 C 63.4911,26.4869 66.7571,27.9969 70.7691,30.1259 C 75.2891,32.5249 78.9821,28.9059 77.4071,33.0649 C 75.8541,37.1659 71.9791,39.5449 68.0421,37.8469 C 65.7971,36.8789 63.0911,35.0919 62.5321,32.1809 Z" transform=""/><ellipse cx="65.43226349920039" cy="19.909107467275444" rx="16.430217766108566" ry="10.879066720092164" fill="#bed575" stroke="none" r="NaN" transform=""/><path fill="#bed575" stroke="none" d="M 52.0325,17.5573 C 52.0325,23.3073 58.3015,27.9683 66.0335,27.9683 S 80.0335,23.3073 80.0335,17.5573 S 73.5735,4.45635 65.8415,4.45635 S 52.0325,11.8073 52.0325,17.5573 Z" transform=""/><path fill="#a9bc65" stroke="none" d="M 61.9624,18.8312 L 65.9684,21.3612 L 70.1634,19.1572 L 70.3514,14.4222 L 66.3454,11.8912 L 62.1504,14.0962 Z" transform=""/><path fill="#a9bc65" stroke="none" d="M 60.0779,18.9194 L 60.2659,14.1844 L 56.2599,11.6544 L 53.2249,13.2484 C 52.4599,14.8254 52.0329,16.4534 52.0329,17.9714 C 52.0329,18.2214 52.0489,18.4704 52.0729,18.7164 L 55.8839,21.1234 L 60.0779,18.9194 Z" transform=""/><path fill="#a9bc65" stroke="none" d="M 67.1941,6.32243 L 67.3451,10.5484 L 70.7401,13.0694 L 73.9851,11.3634 L 73.8501,7.58843 C 72.4311,6.56943 70.8301,5.77343 69.1151,5.31243 L 67.1941,6.32243 Z" transform=""/><path fill="#a9bc65" stroke="none" d="M 71.6753,19.8057 L 75.6813,22.3357 L 79.7013,20.2237 C 79.7863,19.9377 79.8543,19.6467 79.9073,19.3517 L 79.9923,17.2077 C 79.9263,16.5047 79.7713,15.7847 79.5353,15.0627 L 76.0583,12.8657 L 71.8633,15.0707 L 71.6753,19.8057 Z" transform=""/><path fill="#a9bc65" stroke="none" d="M 56.4254,11.2322 L 59.9684,13.4952 L 64.5004,11.0472 L 65.4894,6.33519 L 63.5424,5.09119 C 61.0824,5.56019 58.8584,6.74719 57.0364,8.32219 L 56.4254,11.2322 Z" transform=""/><path fill="#a9bc65" stroke="none" d="M 75.9366,9.36749 L 75.8696,11.0475 L 78.4756,12.6935 C 77.8086,11.5205 76.9506,10.3885 75.9366,9.36749 Z" transform=""/><path fill="#a9bc65" stroke="none" d="M 74.1521,26.4509 L 74.2581,23.7859 L 70.2511,21.2559 L 66.0571,23.4609 L 65.8681,28.1949 L 66.1621,28.3809 C 69.1411,28.3599 71.8951,27.6479 74.1521,26.4509 Z" transform=""/><path fill="#a9bc65" stroke="none" d="M 64.8046,27.5378 L 64.9926,22.8028 L 60.9866,20.2728 L 56.7916,22.4768 L 56.6636,25.7068 C 58.5536,26.9738 60.9116,27.8608 63.5206,28.2118 L 64.8046,27.5378 Z" transform=""/><path fill="#a9bc65" stroke="none" d="M 79.1766,21.5657 L 75.5726,23.4597 L 75.4856,25.6507 C 77.1186,24.5387 78.3966,23.1417 79.1766,21.5657 Z" transform=""/><path fill="#a9bc65" stroke="none" d="M 55.3711,24.7155 L 55.4691,22.2515 L 52.3911,20.3075 C 52.9011,21.9625 53.9401,23.4665 55.3711,24.7155 Z" transform=""/><path fill="#a9bc65" stroke="none" d="M 56.9399,15.4538 S 59.0519,14.2108 61.1599,14.3608 C 62.6289,14.4658 64.3489,14.7328 65.8109,16.1468 C 67.8009,18.0708 68.2719,21.2458 68.2969,22.8708 C 68.3609,27.1638 65.4939,29.8808 61.0469,29.7768 C 56.6639,29.6748 53.1319,26.8108 53.4259,22.5328 C 53.5929,20.0938 54.3809,16.9488 56.9399,15.4538 Z" style="opacity: 0.7" opacity="0.7" transform=""/><path fill="#d0e285" stroke="none" d="M 50.1305,24.3889 S 50.8935,22.3379 52.4135,21.2379 C 53.4735,20.4699 54.7925,19.6699 56.5615,19.7969 C 58.9695,19.9689 55.1965,23.0989 57.1865,26.5379 C 59.4275,30.4119 63.8385,29.3129 60.7485,31.7809 C 57.7015,34.2139 53.7285,34.2819 51.5955,31.2069 C 50.3785,29.4539 49.1995,26.8659 50.1305,24.3889 Z" transform=""/><path fill="#d0e285" stroke="none" d="M 49.4957,10.7942 S 51.6077,9.55121 53.7157,9.70121 C 55.1847,9.80621 56.9047,10.0732 58.3667,11.4872 C 60.3567,13.4112 60.8277,16.5862 60.8527,18.2112 C 60.9167,22.5042 58.0497,25.2212 53.6027,25.1172 C 49.2197,25.0152 45.6877,22.1512 45.9817,17.8732 C 46.1487,15.4342 46.9367,12.2892 49.4957,10.7942 Z" transform=""/><ellipse cx="55.24130899965644" cy="17.826835682392595" rx="0.5554926697127447" ry="0.7721206522090487" fill="#304454" stroke="none" transform="rotate(188.8934 55.241308993912035 17.826835605876838)" r="NaN"/><ellipse cx="48.749077119453915" cy="16.46429799817815" rx="0.5554926697127447" ry="0.7721206522090487" fill="#304454" stroke="none" transform="rotate(188.8934 48.749076908467245 16.46429751117786)" r="NaN"/><ellipse cx="51.7964993055128" cy="21.184805281257503" rx="1.5475449991402632" ry="1.3833041758097322" fill="#c75e72" stroke="none" r="NaN" transform=""/><ellipse cx="50.54487087308247" cy="19.801501220671497" rx="2.39753845551465" ry="1.6225860649723165" fill="#d0e285" stroke="none" r="NaN" transform=""/><path fill="#bed575" stroke="none" d="M 100.959,26.643 S 101.43,24.238 100.588,22.3 C 99.9995,20.949 96.7335,22.459 92.7215,24.588 C 88.2015,26.987 84.5085,23.368 86.0835,27.527 C 87.6365,31.628 91.5115,34.007 95.4485,32.309 C 97.6935,31.341 100.399,29.554 100.959,26.643 Z" transform=""/><path fill="#d0e285" stroke="none" d="M 117.001,24.2393 S 116.086,22.5133 116.281,20.8403 C 116.416,19.6743 119.257,20.0713 122.809,20.7683 C 126.812,21.5533 128.792,17.9383 128.552,21.4763 C 128.315,24.9633 125.909,27.6733 122.513,27.2883 C 120.577,27.0693 118.1,26.3303 117.001,24.2393 Z" transform=""/><path fill="#d0e285" stroke="none" d="M 105.389,32.1809 S 104.918,29.7759 105.76,27.8379 C 106.348,26.4869 109.614,27.9969 113.626,30.1259 C 118.146,32.5249 121.839,28.9059 120.264,33.0649 C 118.711,37.1659 114.836,39.5449 110.899,37.8469 C 108.654,36.8789 105.948,35.0919 105.389,32.1809 Z" transform=""/><ellipse cx="108.28940635634325" cy="19.909107467275444" rx="16.430217766108566" ry="10.879066720092164" fill="#bed575" stroke="none" r="NaN" transform=""/><path fill="#bed575" stroke="none" d="M 94.8896,17.5573 C 94.8896,23.3073 101.159,27.9683 108.891,27.9683 S 122.891,23.3073 122.891,17.5573 S 116.431,4.45635 108.699,4.45635 S 94.8896,11.8073 94.8896,17.5573 Z" transform=""/><path fill="#a9bc65" stroke="none" d="M 104.82,18.8312 L 108.826,21.3612 L 113.021,19.1572 L 113.209,14.4222 L 109.203,11.8912 L 105.008,14.0962 Z" transform=""/><path fill="#a9bc65" stroke="none" d="M 102.935,18.9194 L 103.123,14.1844 L 99.1171,11.6544 L 96.0821,13.2484 C 95.3171,14.8254 94.8901,16.4534 94.8901,17.9714 C 94.8901,18.2214 94.9061,18.4704 94.9301,18.7164 L 98.7411,21.1234 L 102.935,18.9194 Z" transform=""/><path fill="#a9bc65" stroke="none" d="M 110.051,6.32243 L 110.202,10.5484 L 113.597,13.0694 L 116.842,11.3634 L 116.707,7.58843 C 115.288,6.56943 113.687,5.77343 111.972,5.31243 L 110.051,6.32243 Z" transform=""/><path fill="#a9bc65" stroke="none" d="M 114.532,19.8057 L 118.538,22.3357 L 122.558,20.2237 C 122.643,19.9377 122.711,19.6467 122.764,19.3517 L 122.849,17.2077 C 122.783,16.5047 122.628,15.7847 122.392,15.0627 L 118.915,12.8657 L 114.72,15.0707 L 114.532,19.8057 Z" transform=""/><path fill="#a9bc65" stroke="none" d="M 99.2826,11.2322 L 102.826,13.4952 L 107.358,11.0472 L 108.347,6.33519 L 106.4,5.09119 C 103.94,5.56019 101.716,6.74719 99.8936,8.32219 L 99.2826,11.2322 Z" transform=""/><path fill="#a9bc65" stroke="none" d="M 118.794,9.36749 L 118.727,11.0475 L 121.333,12.6935 C 120.666,11.5205 119.808,10.3885 118.794,9.36749 Z" transform=""/><path fill="#a9bc65" stroke="none" d="M 117.009,26.4509 L 117.115,23.7859 L 113.108,21.2559 L 108.914,23.4609 L 108.725,28.1949 L 109.019,28.3809 C 111.998,28.3599 114.752,27.6479 117.009,26.4509 Z" transform=""/><path fill="#a9bc65" stroke="none" d="M 107.662,27.5378 L 107.85,22.8028 L 103.844,20.2728 L 99.6487,22.4768 L 99.5207,25.7068 C 101.411,26.9738 103.769,27.8608 106.378,28.2118 L 107.662,27.5378 Z" transform=""/><path fill="#a9bc65" stroke="none" d="M 122.034,21.5657 L 118.43,23.4597 L 118.343,25.6507 C 119.976,24.5387 121.254,23.1417 122.034,21.5657 Z" transform=""/><path fill="#a9bc65" stroke="none" d="M 98.2282,24.7155 L 98.3262,22.2515 L 95.2482,20.3075 C 95.7582,21.9625 96.7972,23.4665 98.2282,24.7155 Z" transform=""/><path fill="#a9bc65" stroke="none" d="M 99.797,15.4538 S 101.909,14.2108 104.017,14.3608 C 105.486,14.4658 107.206,14.7328 108.668,16.1468 C 110.658,18.0708 111.129,21.2458 111.154,22.8708 C 111.218,27.1638 108.351,29.8808 103.904,29.7768 C 99.521,29.6748 95.989,26.8108 96.283,22.5328 C 96.45,20.0938 97.238,16.9488 99.797,15.4538 Z" style="opacity: 0.7" opacity="0.7" transform=""/><path fill="#d0e285" stroke="none" d="M 92.9876,24.3889 S 93.7506,22.3379 95.2706,21.2379 C 96.3306,20.4699 97.6496,19.6699 99.4186,19.7969 C 101.827,19.9689 98.0536,23.0989 100.044,26.5379 C 102.285,30.4119 106.696,29.3129 103.606,31.7809 C 100.559,34.2139 96.5856,34.2819 94.4526,31.2069 C 93.2356,29.4539 92.0566,26.8659 92.9876,24.3889 Z" transform=""/><path fill="#d0e285" stroke="none" d="M 92.3529,10.7942 S 94.4649,9.55121 96.5729,9.70121 C 98.0419,9.80621 99.7619,10.0732 101.224,11.4872 C 103.214,13.4112 103.685,16.5862 103.71,18.2112 C 103.774,22.5042 100.907,25.2212 96.4599,25.1172 C 92.0769,25.0152 88.5449,22.1512 88.8389,17.8732 C 89.0059,15.4342 89.7939,12.2892 92.3529,10.7942 Z" transform=""/><ellipse cx="98.0984518567993" cy="17.826835682392595" rx="0.5554926697127447" ry="0.7721206522090487" fill="#304454" stroke="none" transform="rotate(188.8934 98.0984518510549 17.826835605876838)" r="NaN"/><ellipse cx="91.60621997659678" cy="16.46429799817815" rx="0.5554926697127447" ry="0.7721206522090487" fill="#304454" stroke="none" transform="rotate(188.8934 91.6062197656101 16.46429751117786)" r="NaN"/><ellipse cx="94.65364216265567" cy="21.184805281257503" rx="1.5475449991402632" ry="1.3833041758097322" fill="#c75e72" stroke="none" r="NaN" transform=""/><ellipse cx="93.40201373022533" cy="19.801501220671497" rx="2.39753845551465" ry="1.6225860649723165" fill="#d0e285" stroke="none" r="NaN" transform=""/><path fill="#bed575" stroke="none" d="M 15.2442,-16.2142 S 15.7152,-18.6192 14.8732,-20.5572 C 14.2852,-21.9082 11.0192,-20.3982 7.00722,-18.2692 C 2.48722,-15.8702 -1.20578,-19.4892 0.369222,-15.3302 C 1.92222,-11.2292 5.79722,-8.85016 9.73422,-10.5482 C 11.9792,-11.5162 14.6842,-13.3032 15.2442,-16.2142 Z" transform=""/><path fill="#d0e285" stroke="none" d="M 31.2865,-18.6178 S 30.3715,-20.3438 30.5665,-22.0168 C 30.7015,-23.1828 33.5425,-22.7858 37.0945,-22.0888 C 41.0975,-21.3038 43.0775,-24.9188 42.8375,-21.3808 C 42.6005,-17.8938 40.1945,-15.1838 36.7985,-15.5688 C 34.8625,-15.7878 32.3855,-16.5268 31.2865,-18.6178 Z" transform=""/><path fill="#d0e285" stroke="none" d="M 19.6749,-10.6762 S 19.2039,-13.0812 20.0459,-15.0192 C 20.6339,-16.3702 23.8999,-14.8602 27.9119,-12.7312 C 32.4319,-10.3322 36.1249,-13.9512 34.5499,-9.79223 C 32.9969,-5.69123 29.1219,-3.31223 25.1849,-5.01023 C 22.9399,-5.97823 20.2339,-7.76523 19.6749,-10.6762 Z" transform=""/><ellipse cx="22.575120642057538" cy="-22.94803538986741" rx="16.430217766108566" ry="10.879066720092164" fill="#bed575" stroke="none" r="NaN" transform=""/><path fill="#bed575" stroke="none" d="M 9.17533,-25.2998 C 9.17533,-19.5498 15.4443,-14.8888 23.1763,-14.8888 S 37.1763,-19.5498 37.1763,-25.2998 S 30.7163,-38.4008 22.9843,-38.4008 S 9.17533,-31.0498 9.17533,-25.2998 Z" transform=""/><path fill="#a9bc65" stroke="none" d="M 19.1053,-24.026 L 23.1113,-21.496 L 27.3063,-23.7 L 27.4943,-28.435 L 23.4883,-30.966 L 19.2933,-28.761 Z" transform=""/><path fill="#a9bc65" stroke="none" d="M 17.2208,-23.9377 L 17.4088,-28.6727 L 13.4028,-31.2027 L 10.3678,-29.6087 C 9.60278,-28.0317 9.17578,-26.4037 9.17578,-24.8857 C 9.17578,-24.6357 9.19178,-24.3867 9.21578,-24.1407 L 13.0268,-21.7337 L 17.2208,-23.9377 Z" transform=""/><path fill="#a9bc65" stroke="none" d="M 24.3369,-36.5347 L 24.4879,-32.3087 L 27.8829,-29.7877 L 31.1279,-31.4937 L 30.9929,-35.2687 C 29.5739,-36.2877 27.9729,-37.0837 26.2579,-37.5447 L 24.3369,-36.5347 Z" transform=""/><path fill="#a9bc65" stroke="none" d="M 28.8182,-23.0514 L 32.8242,-20.5214 L 36.8442,-22.6334 C 36.9292,-22.9194 36.9972,-23.2104 37.0502,-23.5054 L 37.1352,-25.6494 C 37.0692,-26.3524 36.9142,-27.0724 36.6782,-27.7944 L 33.2012,-29.9914 L 29.0062,-27.7864 L 28.8182,-23.0514 Z" transform=""/><path fill="#a9bc65" stroke="none" d="M 13.5683,-31.625 L 17.1113,-29.362 L 21.6433,-31.81 L 22.6323,-36.522 L 20.6853,-37.766 C 18.2253,-37.297 16.0013,-36.11 14.1793,-34.535 L 13.5683,-31.625 Z" transform=""/><path fill="#a9bc65" stroke="none" d="M 33.0795,-33.4897 L 33.0125,-31.8097 L 35.6185,-30.1637 C 34.9515,-31.3367 34.0935,-32.4687 33.0795,-33.4897 Z" transform=""/><path fill="#a9bc65" stroke="none" d="M 31.295,-16.4062 L 31.401,-19.0712 L 27.394,-21.6012 L 23.2,-19.3962 L 23.011,-14.6622 L 23.305,-14.4762 C 26.284,-14.4972 29.038,-15.2092 31.295,-16.4062 Z" transform=""/><path fill="#a9bc65" stroke="none" d="M 21.9474,-15.3193 L 22.1354,-20.0543 L 18.1294,-22.5843 L 13.9344,-20.3803 L 13.8064,-17.1503 C 15.6964,-15.8833 18.0544,-14.9963 20.6634,-14.6453 L 21.9474,-15.3193 Z" transform=""/><path fill="#a9bc65" stroke="none" d="M 36.3194,-21.2915 L 32.7154,-19.3975 L 32.6284,-17.2065 C 34.2614,-18.3185 35.5394,-19.7155 36.3194,-21.2915 Z" transform=""/><path fill="#a9bc65" stroke="none" d="M 12.514,-18.1416 L 12.612,-20.6056 L 9.53395,-22.5496 C 10.044,-20.8946 11.083,-19.3906 12.514,-18.1416 Z" transform=""/><path fill="#a9bc65" stroke="none" d="M 14.0827,-27.4033 S 16.1947,-28.6463 18.3027,-28.4963 C 19.7717,-28.3913 21.4917,-28.1243 22.9537,-26.7103 C 24.9437,-24.7863 25.4147,-21.6113 25.4397,-19.9863 C 25.5037,-15.6933 22.6367,-12.9763 18.1897,-13.0803 C 13.8067,-13.1823 10.2747,-16.0463 10.5687,-20.3243 C 10.7357,-22.7633 11.5237,-25.9083 14.0827,-27.4033 Z" style="opacity: 0.7" opacity="0.7" transform=""/><path fill="#d0e285" stroke="none" d="M 7.27335,-18.4682 S 8.03635,-20.5192 9.55635,-21.6192 C 10.6164,-22.3872 11.9354,-23.1872 13.7044,-23.0602 C 16.1124,-22.8882 12.3394,-19.7582 14.3294,-16.3192 C 16.5704,-12.4452 20.9814,-13.5442 17.8914,-11.0762 C 14.8444,-8.64323 10.8714,-8.57523 8.73835,-11.6502 C 7.52135,-13.4032 6.34235,-15.9912 7.27335,-18.4682 Z" transform=""/><path fill="#d0e285" stroke="none" d="M 6.63857,-32.0629 S 8.75057,-33.3059 10.8586,-33.1559 C 12.3276,-33.0509 14.0476,-32.7839 15.5096,-31.3699 C 17.4996,-29.4459 17.9706,-26.2709 17.9956,-24.6459 C 18.0596,-20.3529 15.1926,-17.6359 10.7456,-17.7399 C 6.36257,-17.8419 2.83057,-20.7059 3.12457,-24.9839 C 3.29157,-27.4229 4.07957,-30.5679 6.63857,-32.0629 Z" transform=""/><ellipse cx="12.384166142513592" cy="-25.03030717475026" rx="0.5554926697127447" ry="0.7721206522090487" fill="#304454" stroke="none" transform="rotate(188.8934 12.384166136769188 -25.030307251266017)" r="NaN"/><ellipse cx="5.89193426231107" cy="-26.392844858964704" rx="0.5554926697127447" ry="0.7721206522090487" fill="#304454" stroke="none" transform="rotate(188.8934 5.8919340513244 -26.392845345964993)" r="NaN"/><ellipse cx="8.939356448369956" cy="-21.67233757588535" rx="1.5475449991402632" ry="1.3833041758097322" fill="#c75e72" stroke="none" r="NaN" transform=""/><ellipse cx="7.687728015939626" cy="-23.055641636471357" rx="2.39753845551465" ry="1.6225860649723165" fill="#d0e285" stroke="none" r="NaN" transform=""/><path fill="#bed575" stroke="none" d="M 58.1014,-16.2142 S 58.5724,-18.6192 57.7304,-20.5572 C 57.1424,-21.9082 53.8764,-20.3982 49.8644,-18.2692 C 45.3444,-15.8702 41.6514,-19.4892 43.2264,-15.3302 C 44.7794,-11.2292 48.6544,-8.85016 52.5914,-10.5482 C 54.8364,-11.5162 57.5414,-13.3032 58.1014,-16.2142 Z" transform=""/><path fill="#d0e285" stroke="none" d="M 74.1436,-18.6178 S 73.2286,-20.3438 73.4236,-22.0168 C 73.5586,-23.1828 76.3996,-22.7858 79.9516,-22.0888 C 83.9546,-21.3038 85.9346,-24.9188 85.6946,-21.3808 C 85.4576,-17.8938 83.0516,-15.1838 79.6556,-15.5688 C 77.7196,-15.7878 75.2426,-16.5268 74.1436,-18.6178 Z" transform=""/><path fill="#d0e285" stroke="none" d="M 62.5321,-10.6762 S 62.0611,-13.0812 62.9031,-15.0192 C 63.4911,-16.3702 66.7571,-14.8602 70.7691,-12.7312 C 75.2891,-10.3322 78.9821,-13.9512 77.4071,-9.79223 C 75.8541,-5.69123 71.9791,-3.31223 68.0421,-5.01023 C 65.7971,-5.97823 63.0911,-7.76523 62.5321,-10.6762 Z" transform=""/><ellipse cx="65.43226349920039" cy="-22.94803538986741" rx="16.430217766108566" ry="10.879066720092164" fill="#bed575" stroke="none" r="NaN" transform=""/><path fill="#bed575" stroke="none" d="M 52.0325,-25.2998 C 52.0325,-19.5498 58.3015,-14.8888 66.0335,-14.8888 S 80.0335,-19.5498 80.0335,-25.2998 S 73.5735,-38.4008 65.8415,-38.4008 S 52.0325,-31.0498 52.0325,-25.2998 Z" transform=""/><path fill="#a9bc65" stroke="none" d="M 61.9624,-24.026 L 65.9684,-21.496 L 70.1634,-23.7 L 70.3514,-28.435 L 66.3454,-30.966 L 62.1504,-28.761 Z" transform=""/><path fill="#a9bc65" stroke="none" d="M 60.0779,-23.9377 L 60.2659,-28.6727 L 56.2599,-31.2027 L 53.2249,-29.6087 C 52.4599,-28.0317 52.0329,-26.4037 52.0329,-24.8857 C 52.0329,-24.6357 52.0489,-24.3867 52.0729,-24.1407 L 55.8839,-21.7337 L 60.0779,-23.9377 Z" transform=""/><path fill="#a9bc65" stroke="none" d="M 67.1941,-36.5347 L 67.3451,-32.3087 L 70.7401,-29.7877 L 73.9851,-31.4937 L 73.8501,-35.2687 C 72.4311,-36.2877 70.8301,-37.0837 69.1151,-37.5447 L 67.1941,-36.5347 Z" transform=""/><path fill="#a9bc65" stroke="none" d="M 71.6753,-23.0514 L 75.6813,-20.5214 L 79.7013,-22.6334 C 79.7863,-22.9194 79.8543,-23.2104 79.9073,-23.5054 L 79.9923,-25.6494 C 79.9263,-26.3524 79.7713,-27.0724 79.5353,-27.7944 L 76.0583,-29.9914 L 71.8633,-27.7864 L 71.6753,-23.0514 Z" transform=""/><path fill="#a9bc65" stroke="none" d="M 56.4254,-31.625 L 59.9684,-29.362 L 64.5004,-31.81 L 65.4894,-36.522 L 63.5424,-37.766 C 61.0824,-37.297 58.8584,-36.11 57.0364,-34.535 L 56.4254,-31.625 Z" transform=""/><path fill="#a9bc65" stroke="none" d="M 75.9366,-33.4897 L 75.8696,-31.8097 L 78.4756,-30.1637 C 77.8086,-31.3367 76.9506,-32.4687 75.9366,-33.4897 Z" transform=""/><path fill="#a9bc65" stroke="none" d="M 74.1521,-16.4062 L 74.2581,-19.0712 L 70.2511,-21.6012 L 66.0571,-19.3962 L 65.8681,-14.6622 L 66.1621,-14.4762 C 69.1411,-14.4972 71.8951,-15.2092 74.1521,-16.4062 Z" transform=""/><path fill="#a9bc65" stroke="none" d="M 64.8046,-15.3193 L 64.9926,-20.0543 L 60.9866,-22.5843 L 56.7916,-20.3803 L 56.6636,-17.1503 C 58.5536,-15.8833 60.9116,-14.9963 63.5206,-14.6453 L 64.8046,-15.3193 Z" transform=""/><path fill="#a9bc65" stroke="none" d="M 79.1766,-21.2915 L 75.5726,-19.3975 L 75.4856,-17.2065 C 77.1186,-18.3185 78.3966,-19.7155 79.1766,-21.2915 Z" transform=""/><path fill="#a9bc65" stroke="none" d="M 55.3711,-18.1416 L 55.4691,-20.6056 L 52.3911,-22.5496 C 52.9011,-20.8946 53.9401,-19.3906 55.3711,-18.1416 Z" transform=""/><path fill="#a9bc65" stroke="none" d="M 56.9399,-27.4033 S 59.0519,-28.6463 61.1599,-28.4963 C 62.6289,-28.3913 64.3489,-28.1243 65.8109,-26.7103 C 67.8009,-24.7863 68.2719,-21.6113 68.2969,-19.9863 C 68.3609,-15.6933 65.4939,-12.9763 61.0469,-13.0803 C 56.6639,-13.1823 53.1319,-16.0463 53.4259,-20.3243 C 53.5929,-22.7633 54.3809,-25.9083 56.9399,-27.4033 Z" style="opacity: 0.7" opacity="0.7" transform=""/><path fill="#d0e285" stroke="none" d="M 50.1305,-18.4682 S 50.8935,-20.5192 52.4135,-21.6192 C 53.4735,-22.3872 54.7925,-23.1872 56.5615,-23.0602 C 58.9695,-22.8882 55.1965,-19.7582 57.1865,-16.3192 C 59.4275,-12.4452 63.8385,-13.5442 60.7485,-11.0762 C 57.7015,-8.64323 53.7285,-8.57523 51.5955,-11.6502 C 50.3785,-13.4032 49.1995,-15.9912 50.1305,-18.4682 Z" transform=""/><path fill="#d0e285" stroke="none" d="M 49.4957,-32.0629 S 51.6077,-33.3059 53.7157,-33.1559 C 55.1847,-33.0509 56.9047,-32.7839 58.3667,-31.3699 C 60.3567,-29.4459 60.8277,-26.2709 60.8527,-24.6459 C 60.9167,-20.3529 58.0497,-17.6359 53.6027,-17.7399 C 49.2197,-17.8419 45.6877,-20.7059 45.9817,-24.9839 C 46.1487,-27.4229 46.9367,-30.5679 49.4957,-32.0629 Z" transform=""/><ellipse cx="55.24130899965644" cy="-25.03030717475026" rx="0.5554926697127447" ry="0.7721206522090487" fill="#304454" stroke="none" transform="rotate(188.8934 55.241308993912035 -25.030307251266017)" r="NaN"/><ellipse cx="48.749077119453915" cy="-26.392844858964704" rx="0.5554926697127447" ry="0.7721206522090487" fill="#304454" stroke="none" transform="rotate(188.8934 48.749076908467245 -26.392845345964993)" r="NaN"/><ellipse cx="51.7964993055128" cy="-21.67233757588535" rx="1.5475449991402632" ry="1.3833041758097322" fill="#c75e72" stroke="none" r="NaN" transform=""/><ellipse cx="50.54487087308247" cy="-23.055641636471357" rx="2.39753845551465" ry="1.6225860649723165" fill="#d0e285" stroke="none" r="NaN" transform=""/><path fill="#bed575" stroke="none" d="M 100.959,-16.2142 S 101.43,-18.6192 100.588,-20.5572 C 99.9995,-21.9082 96.7335,-20.3982 92.7215,-18.2692 C 88.2015,-15.8702 84.5085,-19.4892 86.0835,-15.3302 C 87.6365,-11.2292 91.5115,-8.85016 95.4485,-10.5482 C 97.6935,-11.5162 100.399,-13.3032 100.959,-16.2142 Z" transform=""/><path fill="#d0e285" stroke="none" d="M 117.001,-18.6178 S 116.086,-20.3438 116.281,-22.0168 C 116.416,-23.1828 119.257,-22.7858 122.809,-22.0888 C 126.812,-21.3038 128.792,-24.9188 128.552,-21.3808 C 128.315,-17.8938 125.909,-15.1838 122.513,-15.5688 C 120.577,-15.7878 118.1,-16.5268 117.001,-18.6178 Z" transform=""/><path fill="#d0e285" stroke="none" d="M 105.389,-10.6762 S 104.918,-13.0812 105.76,-15.0192 C 106.348,-16.3702 109.614,-14.8602 113.626,-12.7312 C 118.146,-10.3322 121.839,-13.9512 120.264,-9.79223 C 118.711,-5.69123 114.836,-3.31223 110.899,-5.01023 C 108.654,-5.97823 105.948,-7.76523 105.389,-10.6762 Z" transform=""/><ellipse cx="108.28940635634325" cy="-22.94803538986741" rx="16.430217766108566" ry="10.879066720092164" fill="#bed575" stroke="none" r="NaN" transform=""/><path fill="#bed575" stroke="none" d="M 94.8896,-25.2998 C 94.8896,-19.5498 101.159,-14.8888 108.891,-14.8888 S 122.891,-19.5498 122.891,-25.2998 S 116.431,-38.4008 108.699,-38.4008 S 94.8896,-31.0498 94.8896,-25.2998 Z" transform=""/><path fill="#a9bc65" stroke="none" d="M 104.82,-24.026 L 108.826,-21.496 L 113.021,-23.7 L 113.209,-28.435 L 109.203,-30.966 L 105.008,-28.761 Z" transform=""/><path fill="#a9bc65" stroke="none" d="M 102.935,-23.9377 L 103.123,-28.6727 L 99.1171,-31.2027 L 96.0821,-29.6087 C 95.3171,-28.0317 94.8901,-26.4037 94.8901,-24.8857 C 94.8901,-24.6357 94.9061,-24.3867 94.9301,-24.1407 L 98.7411,-21.7337 L 102.935,-23.9377 Z" transform=""/><path fill="#a9bc65" stroke="none" d="M 110.051,-36.5347 L 110.202,-32.3087 L 113.597,-29.7877 L 116.842,-31.4937 L 116.707,-35.2687 C 115.288,-36.2877 113.687,-37.0837 111.972,-37.5447 L 110.051,-36.5347 Z" transform=""/><path fill="#a9bc65" stroke="none" d="M 114.532,-23.0514 L 118.538,-20.5214 L 122.558,-22.6334 C 122.643,-22.9194 122.711,-23.2104 122.764,-23.5054 L 122.849,-25.6494 C 122.783,-26.3524 122.628,-27.0724 122.392,-27.7944 L 118.915,-29.9914 L 114.72,-27.7864 L 114.532,-23.0514 Z" transform=""/><path fill="#a9bc65" stroke="none" d="M 99.2826,-31.625 L 102.826,-29.362 L 107.358,-31.81 L 108.347,-36.522 L 106.4,-37.766 C 103.94,-37.297 101.716,-36.11 99.8936,-34.535 L 99.2826,-31.625 Z" transform=""/><path fill="#a9bc65" stroke="none" d="M 118.794,-33.4897 L 118.727,-31.8097 L 121.333,-30.1637 C 120.666,-31.3367 119.808,-32.4687 118.794,-33.4897 Z" transform=""/><path fill="#a9bc65" stroke="none" d="M 117.009,-16.4062 L 117.115,-19.0712 L 113.108,-21.6012 L 108.914,-19.3962 L 108.725,-14.6622 L 109.019,-14.4762 C 111.998,-14.4972 114.752,-15.2092 117.009,-16.4062 Z" transform=""/><path fill="#a9bc65" stroke="none" d="M 107.662,-15.3193 L 107.85,-20.0543 L 103.844,-22.5843 L 99.6487,-20.3803 L 99.5207,-17.1503 C 101.411,-15.8833 103.769,-14.9963 106.378,-14.6453 L 107.662,-15.3193 Z" transform=""/><path fill="#a9bc65" stroke="none" d="M 122.034,-21.2915 L 118.43,-19.3975 L 118.343,-17.2065 C 119.976,-18.3185 121.254,-19.7155 122.034,-21.2915 Z" transform=""/><path fill="#a9bc65" stroke="none" d="M 98.2282,-18.1416 L 98.3262,-20.6056 L 95.2482,-22.5496 C 95.7582,-20.8946 96.7972,-19.3906 98.2282,-18.1416 Z" transform=""/><path fill="#a9bc65" stroke="none" d="M 99.797,-27.4033 S 101.909,-28.6463 104.017,-28.4963 C 105.486,-28.3913 107.206,-28.1243 108.668,-26.7103 C 110.658,-24.7863 111.129,-21.6113 111.154,-19.9863 C 111.218,-15.6933 108.351,-12.9763 103.904,-13.0803 C 99.521,-13.1823 95.989,-16.0463 96.283,-20.3243 C 96.45,-22.7633 97.238,-25.9083 99.797,-27.4033 Z" style="opacity: 0.7" opacity="0.7" transform=""/><path fill="#d0e285" stroke="none" d="M 92.9876,-18.4682 S 93.7506,-20.5192 95.2706,-21.6192 C 96.3306,-22.3872 97.6496,-23.1872 99.4186,-23.0602 C 101.827,-22.8882 98.0536,-19.7582 100.044,-16.3192 C 102.285,-12.4452 106.696,-13.5442 103.606,-11.0762 C 100.559,-8.64323 96.5856,-8.57523 94.4526,-11.6502 C 93.2356,-13.4032 92.0566,-15.9912 92.9876,-18.4682 Z" transform=""/><path fill="#d0e285" stroke="none" d="M 92.3529,-32.0629 S 94.4649,-33.3059 96.5729,-33.1559 C 98.0419,-33.0509 99.7619,-32.7839 101.224,-31.3699 C 103.214,-29.4459 103.685,-26.2709 103.71,-24.6459 C 103.774,-20.3529 100.907,-17.6359 96.4599,-17.7399 C 92.0769,-17.8419 88.5449,-20.7059 88.8389,-24.9839 C 89.0059,-27.4229 89.7939,-30.5679 92.3529,-32.0629 Z" transform=""/><ellipse cx="98.0984518567993" cy="-25.03030717475026" rx="0.5554926697127447" ry="0.7721206522090487" fill="#304454" stroke="none" transform="rotate(188.8934 98.0984518510549 -25.030307251266017)" r="NaN"/><ellipse cx="91.60621997659678" cy="-26.392844858964704" rx="0.5554926697127447" ry="0.7721206522090487" fill="#304454" stroke="none" transform="rotate(188.8934 91.6062197656101 -26.392845345964993)" r="NaN"/><ellipse cx="94.65364216265567" cy="-21.67233757588535" rx="1.5475449991402632" ry="1.3833041758097322" fill="#c75e72" stroke="none" r="NaN" transform=""/><ellipse cx="93.40201373022533" cy="-23.055641636471357" rx="2.39753845551465" ry="1.6225860649723165" fill="#d0e285" stroke="none" r="NaN" transform=""/><path fill="#bed575" stroke="none" d="M 15.2442,-59.0713 S 15.7152,-61.4763 14.8732,-63.4143 C 14.2852,-64.7653 11.0192,-63.2553 7.00722,-61.1263 C 2.48722,-58.7273 -1.20578,-62.3463 0.369222,-58.1873 C 1.92222,-54.0863 5.79722,-51.7073 9.73422,-53.4053 C 11.9792,-54.3733 14.6842,-56.1603 15.2442,-59.0713 Z" transform=""/><path fill="#d0e285" stroke="none" d="M 31.2865,-61.475 S 30.3715,-63.201 30.5665,-64.874 C 30.7015,-66.04 33.5425,-65.643 37.0945,-64.946 C 41.0975,-64.161 43.0775,-67.776 42.8375,-64.238 C 42.6005,-60.751 40.1945,-58.041 36.7985,-58.426 C 34.8625,-58.645 32.3855,-59.384 31.2865,-61.475 Z" transform=""/><path fill="#d0e285" stroke="none" d="M 19.6749,-53.5334 S 19.2039,-55.9384 20.0459,-57.8764 C 20.6339,-59.2274 23.8999,-57.7174 27.9119,-55.5884 C 32.4319,-53.1894 36.1249,-56.8084 34.5499,-52.6494 C 32.9969,-48.5484 29.1219,-46.1694 25.1849,-47.8674 C 22.9399,-48.8354 20.2339,-50.6224 19.6749,-53.5334 Z" transform=""/><ellipse cx="22.575120642057538" cy="-65.80517824701026" rx="16.430217766108566" ry="10.879066720092164" fill="#bed575" stroke="none" r="NaN" transform=""/><path fill="#bed575" stroke="none" d="M 9.17533,-68.1569 C 9.17533,-62.4069 15.4443,-57.7459 23.1763,-57.7459 S 37.1763,-62.4069 37.1763,-68.1569 S 30.7163,-81.2579 22.9843,-81.2579 S 9.17533,-73.9069 9.17533,-68.1569 Z" transform=""/><path fill="#a9bc65" stroke="none" d="M 19.1053,-66.8831 L 23.1113,-64.3531 L 27.3063,-66.5571 L 27.4943,-71.2921 L 23.4883,-73.8231 L 19.2933,-71.6181 Z" transform=""/><path fill="#a9bc65" stroke="none" d="M 17.2208,-66.7949 L 17.4088,-71.5299 L 13.4028,-74.0599 L 10.3678,-72.4659 C 9.60278,-70.8889 9.17578,-69.2609 9.17578,-67.7429 C 9.17578,-67.4929 9.19178,-67.2439 9.21578,-66.9979 L 13.0268,-64.5909 L 17.2208,-66.7949 Z" transform=""/><path fill="#a9bc65" stroke="none" d="M 24.3369,-79.3919 L 24.4879,-75.1659 L 27.8829,-72.6449 L 31.1279,-74.3509 L 30.9929,-78.1259 C 29.5739,-79.1449 27.9729,-79.9409 26.2579,-80.4019 L 24.3369,-79.3919 Z" transform=""/><path fill="#a9bc65" stroke="none" d="M 28.8182,-65.9085 L 32.8242,-63.3785 L 36.8442,-65.4905 C 36.9292,-65.7765 36.9972,-66.0675 37.0502,-66.3625 L 37.1352,-68.5065 C 37.0692,-69.2095 36.9142,-69.9295 36.6782,-70.6515 L 33.2012,-72.8485 L 29.0062,-70.6435 L 28.8182,-65.9085 Z" transform=""/><path fill="#a9bc65" stroke="none" d="M 13.5683,-74.4821 L 17.1113,-72.2191 L 21.6433,-74.6671 L 22.6323,-79.3791 L 20.6853,-80.6231 C 18.2253,-80.1541 16.0013,-78.9671 14.1793,-77.3921 L 13.5683,-74.4821 Z" transform=""/><path fill="#a9bc65" stroke="none" d="M 33.0795,-76.3468 L 33.0125,-74.6668 L 35.6185,-73.0208 C 34.9515,-74.1938 34.0935,-75.3258 33.0795,-76.3468 Z" transform=""/><path fill="#a9bc65" stroke="none" d="M 31.295,-59.2634 L 31.401,-61.9284 L 27.394,-64.4584 L 23.2,-62.2534 L 23.011,-57.5194 L 23.305,-57.3334 C 26.284,-57.3544 29.038,-58.0664 31.295,-59.2634 Z" transform=""/><path fill="#a9bc65" stroke="none" d="M 21.9474,-58.1765 L 22.1354,-62.9115 L 18.1294,-65.4415 L 13.9344,-63.2375 L 13.8064,-60.0075 C 15.6964,-58.7405 18.0544,-57.8535 20.6634,-57.5025 L 21.9474,-58.1765 Z" transform=""/><path fill="#a9bc65" stroke="none" d="M 36.3194,-64.1486 L 32.7154,-62.2546 L 32.6284,-60.0636 C 34.2614,-61.1756 35.5394,-62.5726 36.3194,-64.1486 Z" transform=""/><path fill="#a9bc65" stroke="none" d="M 12.514,-60.9988 L 12.612,-63.4628 L 9.53395,-65.4068 C 10.044,-63.7518 11.083,-62.2478 12.514,-60.9988 Z" transform=""/><path fill="#a9bc65" stroke="none" d="M 14.0827,-70.2604 S 16.1947,-71.5034 18.3027,-71.3534 C 19.7717,-71.2484 21.4917,-70.9814 22.9537,-69.5674 C 24.9437,-67.6434 25.4147,-64.4684 25.4397,-62.8434 C 25.5037,-58.5504 22.6367,-55.8334 18.1897,-55.9374 C 13.8067,-56.0394 10.2747,-58.9034 10.5687,-63.1814 C 10.7357,-65.6204 11.5237,-68.7654 14.0827,-70.2604 Z" style="opacity: 0.7" opacity="0.7" transform=""/><path fill="#d0e285" stroke="none" d="M 7.27335,-61.3254 S 8.03635,-63.3764 9.55635,-64.4764 C 10.6164,-65.2444 11.9354,-66.0444 13.7044,-65.9174 C 16.1124,-65.7454 12.3394,-62.6154 14.3294,-59.1764 C 16.5704,-55.3024 20.9814,-56.4014 17.8914,-53.9334 C 14.8444,-51.5004 10.8714,-51.4324 8.73835,-54.5074 C 7.52135,-56.2604 6.34235,-58.8484 7.27335,-61.3254 Z" transform=""/><path fill="#d0e285" stroke="none" d="M 6.63857,-74.9201 S 8.75057,-76.1631 10.8586,-76.0131 C 12.3276,-75.9081 14.0476,-75.6411 15.5096,-74.2271 C 17.4996,-72.3031 17.9706,-69.1281 17.9956,-67.5031 C 18.0596,-63.2101 15.1926,-60.4931 10.7456,-60.5971 C 6.36257,-60.6991 2.83057,-63.5631 3.12457,-67.8411 C 3.29157,-70.2801 4.07957,-73.4251 6.63857,-74.9201 Z" transform=""/><ellipse cx="12.384166142513592" cy="-67.88745003189311" rx="0.5554926697127447" ry="0.7721206522090487" fill="#304454" stroke="none" transform="rotate(188.8934 12.384166136769188 -67.88745010840887)" r="NaN"/><ellipse cx="5.89193426231107" cy="-69.24998771610755" rx="0.5554926697127447" ry="0.7721206522090487" fill="#304454" stroke="none" transform="rotate(188.8934 5.8919340513244 -69.24998820310783)" r="NaN"/><ellipse cx="8.939356448369956" cy="-64.5294804330282" rx="1.5475449991402632" ry="1.3833041758097322" fill="#c75e72" stroke="none" r="NaN" transform=""/><ellipse cx="7.687728015939626" cy="-65.9127844936142" rx="2.39753845551465" ry="1.6225860649723165" fill="#d0e285" stroke="none" r="NaN" transform=""/><path fill="#bed575" stroke="none" d="M 58.1014,-59.0713 S 58.5724,-61.4763 57.7304,-63.4143 C 57.1424,-64.7653 53.8764,-63.2553 49.8644,-61.1263 C 45.3444,-58.7273 41.6514,-62.3463 43.2264,-58.1873 C 44.7794,-54.0863 48.6544,-51.7073 52.5914,-53.4053 C 54.8364,-54.3733 57.5414,-56.1603 58.1014,-59.0713 Z" transform=""/><path fill="#d0e285" stroke="none" d="M 74.1436,-61.475 S 73.2286,-63.201 73.4236,-64.874 C 73.5586,-66.04 76.3996,-65.643 79.9516,-64.946 C 83.9546,-64.161 85.9346,-67.776 85.6946,-64.238 C 85.4576,-60.751 83.0516,-58.041 79.6556,-58.426 C 77.7196,-58.645 75.2426,-59.384 74.1436,-61.475 Z" transform=""/><path fill="#d0e285" stroke="none" d="M 62.5321,-53.5334 S 62.0611,-55.9384 62.9031,-57.8764 C 63.4911,-59.2274 66.7571,-57.7174 70.7691,-55.5884 C 75.2891,-53.1894 78.9821,-56.8084 77.4071,-52.6494 C 75.8541,-48.5484 71.9791,-46.1694 68.0421,-47.8674 C 65.7971,-48.8354 63.0911,-50.6224 62.5321,-53.5334 Z" transform=""/><ellipse cx="65.43226349920039" cy="-65.80517824701026" rx="16.430217766108566" ry="10.879066720092164" fill="#bed575" stroke="none" r="NaN" transform=""/><path fill="#bed575" stroke="none" d="M 52.0325,-68.1569 C 52.0325,-62.4069 58.3015,-57.7459 66.0335,-57.7459 S 80.0335,-62.4069 80.0335,-68.1569 S 73.5735,-81.2579 65.8415,-81.2579 S 52.0325,-73.9069 52.0325,-68.1569 Z" transform=""/><path fill="#a9bc65" stroke="none" d="M 61.9624,-66.8831 L 65.9684,-64.3531 L 70.1634,-66.5571 L 70.3514,-71.2921 L 66.3454,-73.8231 L 62.1504,-71.6181 Z" transform=""/><path fill="#a9bc65" stroke="none" d="M 60.0779,-66.7949 L 60.2659,-71.5299 L 56.2599,-74.0599 L 53.2249,-72.4659 C 52.4599,-70.8889 52.0329,-69.2609 52.0329,-67.7429 C 52.0329,-67.4929 52.0489,-67.2439 52.0729,-66.9979 L 55.8839,-64.5909 L 60.0779,-66.7949 Z" transform=""/><path fill="#a9bc65" stroke="none" d="M 67.1941,-79.3919 L 67.3451,-75.1659 L 70.7401,-72.6449 L 73.9851,-74.3509 L 73.8501,-78.1259 C 72.4311,-79.1449 70.8301,-79.9409 69.1151,-80.4019 L 67.1941,-79.3919 Z" transform=""/><path fill="#a9bc65" stroke="none" d="M 71.6753,-65.9085 L 75.6813,-63.3785 L 79.7013,-65.4905 C 79.7863,-65.7765 79.8543,-66.0675 79.9073,-66.3625 L 79.9923,-68.5065 C 79.9263,-69.2095 79.7713,-69.9295 79.5353,-70.6515 L 76.0583,-72.8485 L 71.8633,-70.6435 L 71.6753,-65.9085 Z" transform=""/><path fill="#a9bc65" stroke="none" d="M 56.4254,-74.4821 L 59.9684,-72.2191 L 64.5004,-74.6671 L 65.4894,-79.3791 L 63.5424,-80.6231 C 61.0824,-80.1541 58.8584,-78.9671 57.0364,-77.3921 L 56.4254,-74.4821 Z" transform=""/><path fill="#a9bc65" stroke="none" d="M 75.9366,-76.3468 L 75.8696,-74.6668 L 78.4756,-73.0208 C 77.8086,-74.1938 76.9506,-75.3258 75.9366,-76.3468 Z" transform=""/><path fill="#a9bc65" stroke="none" d="M 74.1521,-59.2634 L 74.2581,-61.9284 L 70.2511,-64.4584 L 66.0571,-62.2534 L 65.8681,-57.5194 L 66.1621,-57.3334 C 69.1411,-57.3544 71.8951,-58.0664 74.1521,-59.2634 Z" transform=""/><path fill="#a9bc65" stroke="none" d="M 64.8046,-58.1765 L 64.9926,-62.9115 L 60.9866,-65.4415 L 56.7916,-63.2375 L 56.6636,-60.0075 C 58.5536,-58.7405 60.9116,-57.8535 63.5206,-57.5025 L 64.8046,-58.1765 Z" transform=""/><path fill="#a9bc65" stroke="none" d="M 79.1766,-64.1486 L 75.5726,-62.2546 L 75.4856,-60.0636 C 77.1186,-61.1756 78.3966,-62.5726 79.1766,-64.1486 Z" transform=""/><path fill="#a9bc65" stroke="none" d="M 55.3711,-60.9988 L 55.4691,-63.4628 L 52.3911,-65.4068 C 52.9011,-63.7518 53.9401,-62.2478 55.3711,-60.9988 Z" transform=""/><path fill="#a9bc65" stroke="none" d="M 56.9399,-70.2604 S 59.0519,-71.5034 61.1599,-71.3534 C 62.6289,-71.2484 64.3489,-70.9814 65.8109,-69.5674 C 67.8009,-67.6434 68.2719,-64.4684 68.2969,-62.8434 C 68.3609,-58.5504 65.4939,-55.8334 61.0469,-55.9374 C 56.6639,-56.0394 53.1319,-58.9034 53.4259,-63.1814 C 53.5929,-65.6204 54.3809,-68.7654 56.9399,-70.2604 Z" style="opacity: 0.7" opacity="0.7" transform=""/><path fill="#d0e285" stroke="none" d="M 50.1305,-61.3254 S 50.8935,-63.3764 52.4135,-64.4764 C 53.4735,-65.2444 54.7925,-66.0444 56.5615,-65.9174 C 58.9695,-65.7454 55.1965,-62.6154 57.1865,-59.1764 C 59.4275,-55.3024 63.8385,-56.4014 60.7485,-53.9334 C 57.7015,-51.5004 53.7285,-51.4324 51.5955,-54.5074 C 50.3785,-56.2604 49.1995,-58.8484 50.1305,-61.3254 Z" transform=""/><path fill="#d0e285" stroke="none" d="M 49.4957,-74.9201 S 51.6077,-76.1631 53.7157,-76.0131 C 55.1847,-75.9081 56.9047,-75.6411 58.3667,-74.2271 C 60.3567,-72.3031 60.8277,-69.1281 60.8527,-67.5031 C 60.9167,-63.2101 58.0497,-60.4931 53.6027,-60.5971 C 49.2197,-60.6991 45.6877,-63.5631 45.9817,-67.8411 C 46.1487,-70.2801 46.9367,-73.4251 49.4957,-74.9201 Z" transform=""/><ellipse cx="55.24130899965644" cy="-67.88745003189311" rx="0.5554926697127447" ry="0.7721206522090487" fill="#304454" stroke="none" transform="rotate(188.8934 55.241308993912035 -67.88745010840887)" r="NaN"/><ellipse cx="48.749077119453915" cy="-69.24998771610755" rx="0.5554926697127447" ry="0.7721206522090487" fill="#304454" stroke="none" transform="rotate(188.8934 48.749076908467245 -69.24998820310783)" r="NaN"/><ellipse cx="51.7964993055128" cy="-64.5294804330282" rx="1.5475449991402632" ry="1.3833041758097322" fill="#c75e72" stroke="none" r="NaN" transform=""/><ellipse cx="50.54487087308247" cy="-65.9127844936142" rx="2.39753845551465" ry="1.6225860649723165" fill="#d0e285" stroke="none" r="NaN" transform=""/><path fill="#bed575" stroke="none" d="M 100.959,-59.0713 S 101.43,-61.4763 100.588,-63.4143 C 99.9995,-64.7653 96.7335,-63.2553 92.7215,-61.1263 C 88.2015,-58.7273 84.5085,-62.3463 86.0835,-58.1873 C 87.6365,-54.0863 91.5115,-51.7073 95.4485,-53.4053 C 97.6935,-54.3733 100.399,-56.1603 100.959,-59.0713 Z" transform=""/><path fill="#d0e285" stroke="none" d="M 117.001,-61.475 S 116.086,-63.201 116.281,-64.874 C 116.416,-66.04 119.257,-65.643 122.809,-64.946 C 126.812,-64.161 128.792,-67.776 128.552,-64.238 C 128.315,-60.751 125.909,-58.041 122.513,-58.426 C 120.577,-58.645 118.1,-59.384 117.001,-61.475 Z" transform=""/><path fill="#d0e285" stroke="none" d="M 105.389,-53.5334 S 104.918,-55.9384 105.76,-57.8764 C 106.348,-59.2274 109.614,-57.7174 113.626,-55.5884 C 118.146,-53.1894 121.839,-56.8084 120.264,-52.6494 C 118.711,-48.5484 114.836,-46.1694 110.899,-47.8674 C 108.654,-48.8354 105.948,-50.6224 105.389,-53.5334 Z" transform=""/><ellipse cx="108.28940635634325" cy="-65.80517824701026" rx="16.430217766108566" ry="10.879066720092164" fill="#bed575" stroke="none" r="NaN" transform=""/><path fill="#bed575" stroke="none" d="M 94.8896,-68.1569 C 94.8896,-62.4069 101.159,-57.7459 108.891,-57.7459 S 122.891,-62.4069 122.891,-68.1569 S 116.431,-81.2579 108.699,-81.2579 S 94.8896,-73.9069 94.8896,-68.1569 Z" transform=""/><path fill="#a9bc65" stroke="none" d="M 104.82,-66.8831 L 108.826,-64.3531 L 113.021,-66.5571 L 113.209,-71.2921 L 109.203,-73.8231 L 105.008,-71.6181 Z" transform=""/><path fill="#a9bc65" stroke="none" d="M 102.935,-66.7949 L 103.123,-71.5299 L 99.1171,-74.0599 L 96.0821,-72.4659 C 95.3171,-70.8889 94.8901,-69.2609 94.8901,-67.7429 C 94.8901,-67.4929 94.9061,-67.2439 94.9301,-66.9979 L 98.7411,-64.5909 L 102.935,-66.7949 Z" transform=""/><path fill="#a9bc65" stroke="none" d="M 110.051,-79.3919 L 110.202,-75.1659 L 113.597,-72.6449 L 116.842,-74.3509 L 116.707,-78.1259 C 115.288,-79.1449 113.687,-79.9409 111.972,-80.4019 L 110.051,-79.3919 Z" transform=""/><path fill="#a9bc65" stroke="none" d="M 114.532,-65.9085 L 118.538,-63.3785 L 122.558,-65.4905 C 122.643,-65.7765 122.711,-66.0675 122.764,-66.3625 L 122.849,-68.5065 C 122.783,-69.2095 122.628,-69.9295 122.392,-70.6515 L 118.915,-72.8485 L 114.72,-70.6435 L 114.532,-65.9085 Z" transform=""/><path fill="#a9bc65" stroke="none" d="M 99.2826,-74.4821 L 102.826,-72.2191 L 107.358,-74.6671 L 108.347,-79.3791 L 106.4,-80.6231 C 103.94,-80.1541 101.716,-78.9671 99.8936,-77.3921 L 99.2826,-74.4821 Z" transform=""/><path fill="#a9bc65" stroke="none" d="M 118.794,-76.3468 L 118.727,-74.6668 L 121.333,-73.0208 C 120.666,-74.1938 119.808,-75.3258 118.794,-76.3468 Z" transform=""/><path fill="#a9bc65" stroke="none" d="M 117.009,-59.2634 L 117.115,-61.9284 L 113.108,-64.4584 L 108.914,-62.2534 L 108.725,-57.5194 L 109.019,-57.3334 C 111.998,-57.3544 114.752,-58.0664 117.009,-59.2634 Z" transform=""/><path fill="#a9bc65" stroke="none" d="M 107.662,-58.1765 L 107.85,-62.9115 L 103.844,-65.4415 L 99.6487,-63.2375 L 99.5207,-60.0075 C 101.411,-58.7405 103.769,-57.8535 106.378,-57.5025 L 107.662,-58.1765 Z" transform=""/><path fill="#a9bc65" stroke="none" d="M 122.034,-64.1486 L 118.43,-62.2546 L 118.343,-60.0636 C 119.976,-61.1756 121.254,-62.5726 122.034,-64.1486 Z" transform=""/><path fill="#a9bc65" stroke="none" d="M 98.2282,-60.9988 L 98.3262,-63.4628 L 95.2482,-65.4068 C 95.7582,-63.7518 96.7972,-62.2478 98.2282,-60.9988 Z" transform=""/><path fill="#a9bc65" stroke="none" d="M 99.797,-70.2604 S 101.909,-71.5034 104.017,-71.3534 C 105.486,-71.2484 107.206,-70.9814 108.668,-69.5674 C 110.658,-67.6434 111.129,-64.4684 111.154,-62.8434 C 111.218,-58.5504 108.351,-55.8334 103.904,-55.9374 C 99.521,-56.0394 95.989,-58.9034 96.283,-63.1814 C 96.45,-65.6204 97.238,-68.7654 99.797,-70.2604 Z" style="opacity: 0.7" opacity="0.7" transform=""/><path fill="#d0e285" stroke="none" d="M 92.9876,-61.3254 S 93.7506,-63.3764 95.2706,-64.4764 C 96.3306,-65.2444 97.6496,-66.0444 99.4186,-65.9174 C 101.827,-65.7454 98.0536,-62.6154 100.044,-59.1764 C 102.285,-55.3024 106.696,-56.4014 103.606,-53.9334 C 100.559,-51.5004 96.5856,-51.4324 94.4526,-54.5074 C 93.2356,-56.2604 92.0566,-58.8484 92.9876,-61.3254 Z" transform=""/><path fill="#d0e285" stroke="none" d="M 92.3529,-74.9201 S 94.4649,-76.1631 96.5729,-76.0131 C 98.0419,-75.9081 99.7619,-75.6411 101.224,-74.2271 C 103.214,-72.3031 103.685,-69.1281 103.71,-67.5031 C 103.774,-63.2101 100.907,-60.4931 96.4599,-60.5971 C 92.0769,-60.6991 88.5449,-63.5631 88.8389,-67.8411 C 89.0059,-70.2801 89.7939,-73.4251 92.3529,-74.9201 Z" transform=""/><ellipse cx="98.0984518567993" cy="-67.88745003189311" rx="0.5554926697127447" ry="0.7721206522090487" fill="#304454" stroke="none" transform="rotate(188.8934 98.0984518510549 -67.88745010840887)" r="NaN"/><ellipse cx="91.60621997659678" cy="-69.24998771610755" rx="0.5554926697127447" ry="0.7721206522090487" fill="#304454" stroke="none" transform="rotate(188.8934 91.6062197656101 -69.24998820310783)" r="NaN"/><ellipse cx="94.65364216265567" cy="-64.5294804330282" rx="1.5475449991402632" ry="1.3833041758097322" fill="#c75e72" stroke="none" r="NaN" transform=""/><ellipse cx="93.40201373022533" cy="-65.9127844936142" rx="2.39753845551465" ry="1.6225860649723165" fill="#d0e285" stroke="none" r="NaN" transform=""/><path fill="#bed575" stroke="none" d="M 15.2442,-101.928 S 15.7152,-104.333 14.8732,-106.271 C 14.2852,-107.622 11.0192,-106.112 7.00722,-103.983 C 2.48722,-101.584 -1.20578,-105.203 0.369222,-101.044 C 1.92222,-96.9434 5.79722,-94.5644 9.73422,-96.2624 C 11.9792,-97.2304 14.6842,-99.0174 15.2442,-101.928 Z" transform=""/><path fill="#d0e285" stroke="none" d="M 31.2865,-104.332 S 30.3715,-106.058 30.5665,-107.731 C 30.7015,-108.897 33.5425,-108.5 37.0945,-107.803 C 41.0975,-107.018 43.0775,-110.633 42.8375,-107.095 C 42.6005,-103.608 40.1945,-100.898 36.7985,-101.283 C 34.8625,-101.502 32.3855,-102.241 31.2865,-104.332 Z" transform=""/><path fill="#d0e285" stroke="none" d="M 19.6749,-96.3905 S 19.2039,-98.7955 20.0459,-100.734 C 20.6339,-102.085 23.8999,-100.575 27.9119,-98.4455 C 32.4319,-96.0465 36.1249,-99.6655 34.5499,-95.5065 C 32.9969,-91.4055 29.1219,-89.0265 25.1849,-90.7245 C 22.9399,-91.6925 20.2339,-93.4795 19.6749,-96.3905 Z" transform=""/><ellipse cx="22.575120642057538" cy="-108.66232110415312" rx="16.430217766108566" ry="10.879066720092164" fill="#bed575" stroke="none" r="NaN" transform=""/><path fill="#bed575" stroke="none" d="M 9.17533,-111.014 C 9.17533,-105.264 15.4443,-100.603 23.1763,-100.603 S 37.1763,-105.264 37.1763,-111.014 S 30.7163,-124.115 22.9843,-124.115 S 9.17533,-116.764 9.17533,-111.014 Z" transform=""/><path fill="#a9bc65" stroke="none" d="M 19.1053,-109.74 L 23.1113,-107.21 L 27.3063,-109.414 L 27.4943,-114.149 L 23.4883,-116.68 L 19.2933,-114.475 Z" transform=""/><path fill="#a9bc65" stroke="none" d="M 17.2208,-109.652 L 17.4088,-114.387 L 13.4028,-116.917 L 10.3678,-115.323 C 9.60278,-113.746 9.17578,-112.118 9.17578,-110.6 C 9.17578,-110.35 9.19178,-110.101 9.21578,-109.855 L 13.0268,-107.448 L 17.2208,-109.652 Z" transform=""/><path fill="#a9bc65" stroke="none" d="M 24.3369,-122.249 L 24.4879,-118.023 L 27.8829,-115.502 L 31.1279,-117.208 L 30.9929,-120.983 C 29.5739,-122.002 27.9729,-122.798 26.2579,-123.259 L 24.3369,-122.249 Z" transform=""/><path fill="#a9bc65" stroke="none" d="M 28.8182,-108.766 L 32.8242,-106.236 L 36.8442,-108.348 C 36.9292,-108.634 36.9972,-108.925 37.0502,-109.22 L 37.1352,-111.364 C 37.0692,-112.067 36.9142,-112.787 36.6782,-113.509 L 33.2012,-115.706 L 29.0062,-113.501 L 28.8182,-108.766 Z" transform=""/><path fill="#a9bc65" stroke="none" d="M 13.5683,-117.339 L 17.1113,-115.076 L 21.6433,-117.524 L 22.6323,-122.236 L 20.6853,-123.48 C 18.2253,-123.011 16.0013,-121.824 14.1793,-120.249 L 13.5683,-117.339 Z" transform=""/><path fill="#a9bc65" stroke="none" d="M 33.0795,-119.204 L 33.0125,-117.524 L 35.6185,-115.878 C 34.9515,-117.051 34.0935,-118.183 33.0795,-119.204 Z" transform=""/><path fill="#a9bc65" stroke="none" d="M 31.295,-102.121 L 31.401,-104.786 L 27.394,-107.316 L 23.2,-105.111 L 23.011,-100.377 L 23.305,-100.191 C 26.284,-100.212 29.038,-100.924 31.295,-102.121 Z" transform=""/><path fill="#a9bc65" stroke="none" d="M 21.9474,-101.034 L 22.1354,-105.769 L 18.1294,-108.299 L 13.9344,-106.095 L 13.8064,-102.865 C 15.6964,-101.598 18.0544,-100.711 20.6634,-100.36 L 21.9474,-101.034 Z" transform=""/><path fill="#a9bc65" stroke="none" d="M 36.3194,-107.006 L 32.7154,-105.112 L 32.6284,-102.921 C 34.2614,-104.033 35.5394,-105.43 36.3194,-107.006 Z" transform=""/><path fill="#a9bc65" stroke="none" d="M 12.514,-103.856 L 12.612,-106.32 L 9.53395,-108.264 C 10.044,-106.609 11.083,-105.105 12.514,-103.856 Z" transform=""/><path fill="#a9bc65" stroke="none" d="M 14.0827,-113.118 S 16.1947,-114.361 18.3027,-114.211 C 19.7717,-114.106 21.4917,-113.839 22.9537,-112.425 C 24.9437,-110.501 25.4147,-107.326 25.4397,-105.701 C 25.5037,-101.408 22.6367,-98.6906 18.1897,-98.7946 C 13.8067,-98.8966 10.2747,-101.761 10.5687,-106.039 C 10.7357,-108.478 11.5237,-111.623 14.0827,-113.118 Z" style="opacity: 0.7" opacity="0.7" transform=""/><path fill="#d0e285" stroke="none" d="M 7.27335,-104.183 S 8.03635,-106.234 9.55635,-107.334 C 10.6164,-108.102 11.9354,-108.902 13.7044,-108.775 C 16.1124,-108.603 12.3394,-105.473 14.3294,-102.034 C 16.5704,-98.1595 20.9814,-99.2585 17.8914,-96.7905 C 14.8444,-94.3575 10.8714,-94.2895 8.73835,-97.3645 C 7.52135,-99.1175 6.34235,-101.706 7.27335,-104.183 Z" transform=""/><path fill="#d0e285" stroke="none" d="M 6.63857,-117.777 S 8.75057,-119.02 10.8586,-118.87 C 12.3276,-118.765 14.0476,-118.498 15.5096,-117.084 C 17.4996,-115.16 17.9706,-111.985 17.9956,-110.36 C 18.0596,-106.067 15.1926,-103.35 10.7456,-103.454 C 6.36257,-103.556 2.83057,-106.42 3.12457,-110.698 C 3.29157,-113.137 4.07957,-116.282 6.63857,-117.777 Z" transform=""/><ellipse cx="12.384166142513592" cy="-110.74459288903597" rx="0.5554926697127447" ry="0.7721206522090487" fill="#304454" stroke="none" transform="rotate(188.8934 12.384166136769188 -110.74459296555173)" r="NaN"/><ellipse cx="5.89193426231107" cy="-112.10713057325042" rx="0.5554926697127447" ry="0.7721206522090487" fill="#304454" stroke="none" transform="rotate(188.8934 5.8919340513244 -112.1071310602507)" r="NaN"/><ellipse cx="8.939356448369956" cy="-107.38662329017106" rx="1.5475449991402632" ry="1.3833041758097322" fill="#c75e72" stroke="none" r="NaN" transform=""/><ellipse cx="7.687728015939626" cy="-108.76992735075706" rx="2.39753845551465" ry="1.6225860649723165" fill="#d0e285" stroke="none" r="NaN" transform=""/></svg>