<svg xmlns="http://www.w3.org/2000/svg" version="1.1" width="300" height="42.857142857142854" viewBox="0 0 300 42.857142857142854"><defs/><path fill="#bed575" stroke="none" d="M 15.2442,26.643 S 15.7152,24.238 14.8732,22.3 C 14.2852,20.949 11.0192,22.459 7.00722,24.588 C 2.48722,26.987 -1.20578,23.368 0.369222,27.527 C 1.92222,31.628 5.79722,34.007 9.73422,32.309 C 11.9792,31.341 14.6842,29.554 15.2442,26.643 Z" transform=""/><path fill="#d0e285" stroke="none" d="M 31.2865,24.2393 S 30.3715,22.5133 30.5665,20.8403 C 30.7015,19.6743 33.5425,20.0713 37.0945,20.7683 C 41.0975,21.5533 43.0775,17.9383 42.8375,21.4763 C 42.6005,24.9633 40.1945,27.6733 36.7985,27.2883 C 34.8625,27.0693 32.3855,26.3303 31.2865,24.2393 Z" transform=""/><path fill="#d0e285" stroke="none" d="M 19.6749,32.1809 S 19.2039,29.7759 20.0459,27.8379 C 20.6339,26.4869 23.8999,27.9969 27.9119,30.1259 C 32.4319,32.5249 36.1249,28.9059 34.5499,33.0649 C 32.9969,37.1659 29.1219,39.5449 25.1849,37.8469 C 22.9399,36.8789 20.2339,35.0919 19.6749,32.1809 Z" transform=""/><ellipse cx="22.575120642057538" cy="19.909107467275444" rx="16.430217766108566" ry="10.879066720092164" fill="#bed575" stroke="none" r="NaN" transform=""/><path fill="#bed575" stroke="none" d="M 9.17533,17.5573 C 9.17533,23.3073 15.4443,27.9683 23.1763,27.9683 S 37.1763,23.3073 37.1763,17.5573 S 30.7163,4.45635 22.9843,4.45635 S 9.17533,11.8073 9.17533,17.5573 Z" transform=""/><path fill="#a9bc65" stroke="none" d="M 19.1053,18.8312 L 23.1113,21.3612 L 27.3063,19.1572 L 27.4943,14.4222 L 23.4883,11.8912 L 19.2933,14.0962 Z" transform=""/><path fill="#a9bc65" stroke="none" d="M 17.2208,18.9194 L 17.4088,14.1844 L 13.4028,11.6544 L 10.3678,13.2484 C 9.60278,14.8254 9.17578,16.4534 9.17578,17.9714 C 9.17578,18.2214 9.19178,18.4704 9.21578,18.7164 L 13.0268,21.1234 L 17.2208,18.9194 Z" transform=""/><path fill="#a9bc65" stroke="none" d="M 24.3369,6.32243 L 24.4879,10.5484 L 27.8829,13.0694 L 31.1279,11.3634 L 30.9929,7.58843 C 29.5739,6.56943 27.9729,5.77343 26.2579,5.31243 L 24.3369,6.32243 Z" transform=""/><path fill="#a9bc65" stroke="none" d="M 28.8182,19.8057 L 32.8242,22.3357 L 36.8442,20.2237 C 36.9292,19.9377 36.9972,19.6467 37.0502,19.3517 L 37.1352,17.2077 C 37.0692,16.5047 36.9142,15.7847 36.6782,15.0627 L 33.2012,12.8657 L 29.0062,15.0707 L 28.8182,19.8057 Z" transform=""/><path fill="#a9bc65" stroke="none" d="M 13.5683,11.2322 L 17.1113,13.4952 L 21.6433,11.0472 L 22.6323,6.33519 L 20.6853,5.09119 C 18.2253,5.56019 16.0013,6.74719 14.1793,8.32219 L 13.5683,11.2322 Z" transform=""/><path fill="#a9bc65" stroke="none" d="M 33.0795,9.36749 L 33.0125,11.0475 L 35.6185,12.6935 C 34.9515,11.5205 34.0935,10.3885 33.0795,9.36749 Z" transform=""/><path fill="#a9bc65" stroke="none" d="M 31.295,26.4509 L 31.401,23.7859 L 27.394,21.2559 L 23.2,23.4609 L 23.011,28.1949 L 23.305,28.3809 C 26.284,28.3599 29.038,27.6479 31.295,26.4509 Z" transform=""/><path fill="#a9bc65" stroke="none" d="M 21.9474,27.5378 L 22.1354,22.8028 L 18.1294,20.2728 L 13.9344,22.4768 L 13.8064,25.7068 C 15.6964,26.9738 18.0544,27.8608 20.6634,28.2118 L 21.9474,27.5378 Z" transform=""/><path fill="#a9bc65" stroke="none" d="M 36.3194,21.5657 L 32.7154,23.4597 L 32.6284,25.6507 C 34.2614,24.5387 35.5394,23.1417 36.3194,21.5657 Z" transform=""/><path fill="#a9bc65" stroke="none" d="M 12.514,24.7155 L 12.612,22.2515 L 9.53395,20.3075 C 10.044,21.9625 11.083,23.4665 12.514,24.7155 Z" transform=""/><path fill="#a9bc65" stroke="none" d="M 14.0827,15.4538 S 16.1947,14.2108 18.3027,14.3608 C 19.7717,14.4658 21.4917,14.7328 22.9537,16.1468 C 24.9437,18.0708 25.4147,21.2458 25.4397,22.8708 C 25.5037,27.1638 22.6367,29.8808 18.1897,29.7768 C 13.8067,29.6748 10.2747,26.8108 10.5687,22.5328 C 10.7357,20.0938 11.5237,16.9488 14.0827,15.4538 Z" style="opacity: 0.7" opacity="0.7" transform=""/><path fill="#d0e285" stroke="none" d="M 7.27335,24.3889 S 8.03635,22.3379 9.55635,21.2379 C 10.6164,20.4699 11.9354,19.6699 13.7044,19.7969 C 16.1124,19.9689 12.3394,23.0989 14.3294,26.5379 C 16.5704,30.4119 20.9814,29.3129 17.8914,31.7809 C 14.8444,34.2139 10.8714,34.2819 8.73835,31.2069 C 7.52135,29.4539 6.34235,26.8659 7.27335,24.3889 Z" transform=""/><path fill="#d0e285" stroke="none" d="M 6.63857,10.7942 S 8.75057,9.55121 10.8586,9.70121 C 12.3276,9.80621 14.0476,10.0732 15.5096,11.4872 C 17.4996,13.4112 17.9706,16.5862 17.9956,18.2112 C 18.0596,22.5042 15.1926,25.2212 10.7456,25.1172 C 6.36257,25.0152 2.83057,22.1512 3.12457,17.8732 C 3.29157,15.4342 4.07957,12.2892 6.63857,10.7942 Z" transform=""/><ellipse cx="12.384166142513592" cy="17.826835682392595" rx="0.5554926697127447" ry="0.7721206522090487" fill="#304454" stroke="none" transform="rotate(188.8934 12.384166136769188 17.826835605876838)" r="NaN"/><ellipse cx="5.89193426231107" cy="16.46429799817815" rx="0.5554926697127447" ry="0.7721206522090487" fill="#304454" stroke="none" transform="rotate(188.8934 5.8919340513244 16.46429751117786)" r="NaN"/><ellipse cx="8.939356448369956" cy="21.184805281257503" rx="1.5475449991402632" ry="1.3833041758097322" fill="#c75e72" stroke="none" r="NaN" transform=""/><ellipse cx="7.687728015939626" cy="19.801501220671497" rx="2.39753845551465" ry="1.6225860649723165" fill="#d0e285" stroke="none" r="NaN" transform=""/><path fill="#bed575" stroke="none" d="M 58.1014,26.643 S 58.5724,24.238 57.7304,22.3 C 57.1424,20.949 53.8764,22.459 49.8644,24.588 C 45.3444,26.987 41.6514,23.368 43.2264,27.527 C 44.7794,31.628 48.6544,34.007 52.5914,32.309 C 54.8364,31.341 57.5414,29.554 58.1014,26.643 Z" transform=""/><path fill="#d0e285" stroke="none" d="M 74.1436,24.2393 S 73.2286,22.5133 73.4236,20.8403 C 73.5586,19.6743 76.3996,20.0713 79.9516,20.7683 C 83.9546,21.5533 85.9346,17.9383 85.6946,21.4763 C 85.4576,24.9633 83.0516,27.6733 79.6556,27.2883 C 77.7196,27.0693 75.2426,26.3303 74.1436,24.2393 Z" transform=""/><path fill="#d0e285" stroke="none" d="M 62.5321,32.1809 S 62.0611,29.7759 62.9031,27.8379 C 63.4911,26.4869 66.7571,27.9969 70.7691,30.1259 C 75.2891,32.5249 78.9821,28.9059 77.4071,33.0649 C 75.8541,37.1659 71.9791,39.5449 68.0421,37.8469 C 65.7971,36.8789 63.0911,35.0919 62.5321,32.1809 Z" transform=""/><ellipse cx="65.43226349920039" cy="19.909107467275444" rx="16.430217766108566" ry="10.879066720092164" fill="#bed575" stroke="none" r="NaN" transform=""/><path fill="#bed575" stroke="none" d="M 52.0325,17.5573 C 52.0325,23.3073 58.3015,27.9683 66.0335,27.9683 S 80.0335,23.3073 80.0335,17.5573 S 73.5735,4.45635 65.8415,4.45635 S 52.0325,11.8073 52.0325,17.5573 Z" transform=""/><path fill="#a9bc65" stroke="none" d="M 61.9624,18.8312 L 65.9684,21.3612 L 70.1634,19.1572 L 70.3514,14.4222 L 66.3454,11.8912 L 62.1504,14.0962 Z" transform=""/><path fill="#a9bc65" stroke="none" d="M 60.0779,18.9194 L 60.2659,14.1844 L 56.2599,11.6544 L 53.2249,13.2484 C 52.4599,14.8254 52.0329,16.4534 52.0329,17.9714 C 52.0329,18.2214 52.0489,18.4704 52.0729,18.7164 L 55.8839,21.1234 L 60.0779,18.9194 Z" transform=""/><path fill="#a9bc65" stroke="none" d="M 67.1941,6.32243 L 67.3451,10.5484 L 70.7401,13.0694 L 73.9851,11.3634 L 73.8501,7.58843 C 72.4311,6.56943 70.8301,5.77343 69.1151,5.31243 L 67.1941,6.32243 Z" transform=""/><path fill="#a9bc65" stroke="none" d="M 71.6753,19.8057 L 75.6813,22.3357 L 79.7013,20.2237 C 79.7863,19.9377 79.8543,19.6467 79.9073,19.3517 L 79.9923,17.2077 C 79.9263,16.5047 79.7713,15.7847 79.5353,15.0627 L 76.0583,12.8657 L 71.8633,15.0707 L 71.6753,19.8057 Z" transform=""/><path fill="#a9bc65" stroke="none" d="M 56.4254,11.2322 L 59.9684,13.4952 L 64.5004,11.0472 L 65.4894,6.33519 L 63.5424,5.09119 C 61.0824,5.56019 58.8584,6.74719 57.0364,8.32219 L 56.4254,11.2322 Z" transform=""/><path fill="#a9bc65" stroke="none" d="M 75.9366,9.36749 L 75.8696,11.0475 L 78.4756,12.6935 C 77.8086,11.5205 76.9506,10.3885 75.9366,9.36749 Z" transform=""/><path fill="#a9bc65" stroke="none" d="M 74.1521,26.4509 L 74.2581,23.7859 L 70.2511,21.2559 L 66.0571,23.4609 L 65.8681,28.1949 L 66.1621,28.3809 C 69.1411,28.3599 71.8951,27.6479 74.1521,26.4509 Z" transform=""/><path fill="#a9bc65" stroke="none" d="M 64.8046,27.5378 L 64.9926,22.8028 L 60.9866,20.2728 L 56.7916,22.4768 L 56.6636,25.7068 C 58.5536,26.9738 60.9116,27.8608 63.5206,28.2118 L 64.8046,27.5378 Z" transform=""/><path fill="#a9bc65" stroke="none" d="M 79.1766,21.5657 L 75.5726,23.4597 L 75.4856,25.6507 C 77.1186,24.5387 78.3966,23.1417 79.1766,21.5657 Z" transform=""/><path fill="#a9bc65" stroke="none" d="M 55.3711,24.7155 L 55.4691,22.2515 L 52.3911,20.3075 C 52.9011,21.9625 53.9401,23.4665 55.3711,24.7155 Z" transform=""/><path fill="#a9bc65" stroke="none" d="M 56.9399,15.4538 S 59.0519,14.2108 61.1599,14.3608 C 62.6289,14.4658 64.3489,14.7328 65.8109,16.1468 C 67.8009,18.0708 68.2719,21.2458 68.2969,22.8708 C 68.3609,27.1638 65.4939,29.8808 61.0469,29.7768 C 56.6639,29.6748 53.1319,26.8108 53.4259,22.5328 C 53.5929,20.0938 54.3809,16.9488 56.9399,15.4538 Z" style="opacity: 0.7" opacity="0.7" transform=""/><path fill="#d0e285" stroke="none" d="M 50.1305,24.3889 S 50.8935,22.3379 52.4135,21.2379 C 53.4735,20.4699 54.7925,19.6699 56.5615,19.7969 C 58.9695,19.9689 55.1965,23.0989 57.1865,26.5379 C 59.4275,30.4119 63.8385,29.3129 60.7485,31.7809 C 57.7015,34.2139 53.7285,34.2819 51.5955,31.2069 C 50.3785,29.4539 49.1995,26.8659 50.1305,24.3889 Z" transform=""/><path fill="#d0e285" stroke="none" d="M 49.4957,10.7942 S 51.6077,9.55121 53.7157,9.70121 C 55.1847,9.80621 56.9047,10.0732 58.3667,11.4872 C 60.3567,13.4112 60.8277,16.5862 60.8527,18.2112 C 60.9167,22.5042 58.0497,25.2212 53.6027,25.1172 C 49.2197,25.0152 45.6877,22.1512 45.9817,17.8732 C 46.1487,15.4342 46.9367,12.2892 49.4957,10.7942 Z" transform=""/><ellipse cx="55.24130899965644" cy="17.826835682392595" rx="0.5554926697127447" ry="0.7721206522090487" fill="#304454" stroke="none" transform="rotate(188.8934 55.241308993912035 17.826835605876838)" r="NaN"/><ellipse cx="48.749077119453915" cy="16.46429799817815" rx="0.5554926697127447" ry="0.7721206522090487" fill="#304454" stroke="none" transform="rotate(188.8934 48.749076908467245 16.46429751117786)" r="NaN"/><ellipse cx="51.7964993055128" cy="21.184805281257503" rx="1.5475449991402632" ry="1.3833041758097322" fill="#c75e72" stroke="none" r="NaN" transform=""/><ellipse cx="50.54487087308247" cy="19.801501220671497" rx="2.39753845551465" ry="1.6225860649723165" fill="#d0e285" stroke="none" r="NaN" transform=""/><path fill="#bed575" stroke="none" d="M 100.959,26.643 S 101.43,24.238 100.588,22.3 C 99.9995,20.949 96.7335,22.459 92.7215,24.588 C 88.2015,26.987 84.5085,23.368 86.0835,27.527 C 87.6365,31.628 91.5115,34.007 95.4485,32.309 C 97.6935,31.341 100.399,29.554 100.959,26.643 Z" transform=""/><path fill="#d0e285" stroke="none" d="M 117.001,24.2393 S 116.086,22.5133 116.281,20.8403 C 116.416,19.6743 119.257,20.0713 122.809,20.7683 C 126.812,21.5533 128.792,17.9383 128.552,21.4763 C 128.315,24.9633 125.909,27.6733 122.513,27.2883 C 120.577,27.0693 118.1,26.3303 117.001,24.2393 Z" transform=""/><path fill="#d0e285" stroke="none" d="M 105.389,32.1809 S 104.918,29.7759 105.76,27.8379 C 106.348,26.4869 109.614,27.9969 113.626,30.1259 C 118.146,32.5249 121.839,28.9059 120.264,33.0649 C 118.711,37.1659 114.836,39.5449 110.899,37.8469 C 108.654,36.8789 105.948,35.0919 105.389,32.1809 Z" transform=""/><ellipse cx="108.28940635634325" cy="19.909107467275444" rx="16.430217766108566" ry="10.879066720092164" fill="#bed575" stroke="none" r="NaN" transform=""/><path fill="#bed575" stroke="none" d="M 94.8896,17.5573 C 94.8896,23.3073 101.159,27.9683 108.891,27.9683 S 122.891,23.3073 122.891,17.5573 S 116.431,4.45635 108.699,4.45635 S 94.8896,11.8073 94.8896,17.5573 Z" transform=""/><path fill="#a9bc65" stroke="none" d="M 104.82,18.8312 L 108.826,21.3612 L 113.021,19.1572 L 113.209,14.4222 L 109.203,11.8912 L 105.008,14.0962 Z" transform=""/><path fill="#a9bc65" stroke="none" d="M 102.935,18.9194 L 103.123,14.1844 L 99.1171,11.6544 L 96.0821,13.2484 C 95.3171,14.8254 94.8901,16.4534 94.8901,17.9714 C 94.8901,18.2214 94.9061,18.4704 94.9301,18.7164 L 98.7411,21.1234 L 102.935,18.9194 Z" transform=""/><path fill="#a9bc65" stroke="none" d="M 110.051,6.32243 L 110.202,10.5484 L 113.597,13.0694 L 116.842,11.3634 L 116.707,7.58843 C 115.288,6.56943 113.687,5.77343 111.972,5.31243 L 110.051,6.32243 Z" transform=""/><path fill="#a9bc65" stroke="none" d="M 114.532,19.8057 L 118.538,22.3357 L 122.558,20.2237 C 122.643,19.9377 122.711,19.6467 122.764,19.3517 L 122.849,17.2077 C 122.783,16.5047 122.628,15.7847 122.392,15.0627 L 118.915,12.8657 L 114.72,15.0707 L 114.532,19.8057 Z" transform=""/><path fill="#a9bc65" stroke="none" d="M 99.2826,11.2322 L 102.826,13.4952 L 107.358,11.0472 L 108.347,6.33519 L 106.4,5.09119 C 103.94,5.56019 101.716,6.74719 99.8936,8.32219 L 99.2826,11.2322 Z" transform=""/><path fill="#a9bc65" stroke="none" d="M 118.794,9.36749 L 118.727,11.0475 L 121.333,12.6935 C 120.666,11.5205 119.808,10.3885 118.794,9.36749 Z" transform=""/><path fill="#a9bc65" stroke="none" d="M 117.009,26.4509 L 117.115,23.7859 L 113.108,21.2559 L 108.914,23.4609 L 108.725,28.1949 L 109.019,28.3809 C 111.998,28.3599 114.752,27.6479 117.009,26.4509 Z" transform=""/><path fill="#a9bc65" stroke="none" d="M 107.662,27.5378 L 107.85,22.8028 L 103.844,20.2728 L 99.6487,22.4768 L 99.5207,25.7068 C 101.411,26.9738 103.769,27.8608 106.378,28.2118 L 107.662,27.5378 Z" transform=""/><path fill="#a9bc65" stroke="none" d="M 122.034,21.5657 L 118.43,23.4597 L 118.343,25.6507 C 119.976,24.5387 121.254,23.1417 122.034,21.5657 Z" transform=""/><path fill="#a9bc65" stroke="none" d="M 98.2282,24.7155 L 98.3262,22.2515 L 95.2482,20.3075 C 95.7582,21.9625 96.7972,23.4665 98.2282,24.7155 Z" transform=""/><path fill="#a9bc65" stroke="none" d="M 99.797,15.4538 S 101.909,14.2108 104.017,14.3608 C 105.486,14.4658 107.206,14.7328 108.668,16.1468 C 110.658,18.0708 111.129,21.2458 111.154,22.8708 C 111.218,27.1638 108.351,29.8808 103.904,29.7768 C 99.521,29.6748 95.989,26.8108 96.283,22.5328 C 96.45,20.0938 97.238,16.9488 99.797,15.4538 Z" style="opacity: 0.7" opacity="0.7" transform=""/><path fill="#d0e285" stroke="none" d="M 92.9876,24.3889 S 93.7506,22.3379 95.2706,21.2379 C 96.3306,20.4699 97.6496,19.6699 99.4186,19.7969 C 101.827,19.9689 98.0536,23.0989 100.044,26.5379 C 102.285,30.4119 106.696,29.3129 103.606,31.7809 C 100.559,34.2139 96.5856,34.2819 94.4526,31.2069 C 93.2356,29.4539 92.0566,26.8659 92.9876,24.3889 Z" transform=""/><path fill="#d0e285" stroke="none" d="M 92.3529,10.7942 S 94.4649,9.55121 96.5729,9.70121 C 98.0419,9.80621 99.7619,10.0732 101.224,11.4872 C 103.214,13.4112 103.685,16.5862 103.71,18.2112 C 103.774,22.5042 100.907,25.2212 96.4599,25.1172 C 92.0769,25.0152 88.5449,22.1512 88.8389,17.8732 C 89.0059,15.4342 89.7939,12.2892 92.3529,10.7942 Z" transform=""/><ellipse cx="98.0984518567993" cy="17.826835682392595" rx="0.5554926697127447" ry="0.7721206522090487" fill="#304454" stroke="none" transform="rotate(188.8934 98.0984518510549 17.826835605876838)" r="NaN"/><ellipse cx="91.60621997659678" cy="16.46429799817815" rx="0.5554926697127447" ry="0.7721206522090487" fill="#304454" stroke="none" transform="rotate(188.8934 91.6062197656101 16.46429751117786)" r="NaN"/><ellipse cx="94.65364216265567" cy="21.184805281257503" rx="1.5475449991402632" ry="1.3833041758097322" fill="#c75e72" stroke="none" r="NaN" transform=""/><ellipse cx="93.40201373022533" cy="19.801501220671497" rx="2.39753845551465" ry="1.6225860649723165" fill="#d0e285" stroke="none" r="NaN" transform=""/><path fill="#bed575" stroke="none" d="M 143.816,26.643 S 144.287,24.238 143.445,22.3 C 142.857,20.949 139.591,22.459 135.579,24.588 C 131.059,26.987 127.366,23.368 128.941,27.527 C 130.494,31.628 134.369,34.007 138.306,32.309 C 140.551,31.341 143.256,29.554 143.816,26.643 Z" transform=""/><path fill="#d0e285" stroke="none" d="M 159.858,24.2393 S 158.943,22.5133 159.138,20.8403 C 159.273,19.6743 162.114,20.0713 165.666,20.7683 C 169.669,21.5533 171.649,17.9383 171.409,21.4763 C 171.172,24.9633 168.766,27.6733 165.37,27.2883 C 163.434,27.0693 160.957,26.3303 159.858,24.2393 Z" transform=""/><path fill="#d0e285" stroke="none" d="M 148.246,32.1809 S 147.775,29.7759 148.617,27.8379 C 149.205,26.4869 152.471,27.9969 156.483,30.1259 C 161.003,32.5249 164.696,28.9059 163.121,33.0649 C 161.568,37.1659 157.693,39.5449 153.756,37.8469 C 151.511,36.8789 148.805,35.0919 148.246,32.1809 Z" transform=""/><ellipse cx="151.1465492134861" cy="19.909107467275444" rx="16.430217766108566" ry="10.879066720092164" fill="#bed575" stroke="none" r="NaN" transform=""/><path fill="#bed575" stroke="none" d="M 137.747,17.5573 C 137.747,23.3073 144.016,27.9683 151.748,27.9683 S 165.748,23.3073 165.748,17.5573 S 159.288,4.45635 151.556,4.45635 S 137.747,11.8073 137.747,17.5573 Z" transform=""/><path fill="#a9bc65" stroke="none" d="M 147.677,18.8312 L 151.683,21.3612 L 155.878,19.1572 L 156.066,14.4222 L 152.06,11.8912 L 147.865,14.0962 Z" transform=""/><path fill="#a9bc65" stroke="none" d="M 145.792,18.9194 L 145.98,14.1844 L 141.974,11.6544 L 138.939,13.2484 C 138.174,14.8254 137.747,16.4534 137.747,17.9714 C 137.747,18.2214 137.763,18.4704 137.787,18.7164 L 141.598,21.1234 L 145.792,18.9194 Z" transform=""/><path fill="#a9bc65" stroke="none" d="M 152.908,6.32243 L 153.059,10.5484 L 156.454,13.0694 L 159.699,11.3634 L 159.564,7.58843 C 158.145,6.56943 156.544,5.77343 154.829,5.31243 L 152.908,6.32243 Z" transform=""/><path fill="#a9bc65" stroke="none" d="M 157.39,19.8057 L 161.396,22.3357 L 165.416,20.2237 C 165.501,19.9377 165.569,19.6467 165.622,19.3517 L 165.707,17.2077 C 165.641,16.5047 165.486,15.7847 165.25,15.0627 L 161.773,12.8657 L 157.578,15.0707 L 157.39,19.8057 Z" transform=""/><path fill="#a9bc65" stroke="none" d="M 142.14,11.2322 L 145.683,13.4952 L 150.215,11.0472 L 151.204,6.33519 L 149.257,5.09119 C 146.797,5.56019 144.573,6.74719 142.751,8.32219 L 142.14,11.2322 Z" transform=""/><path fill="#a9bc65" stroke="none" d="M 161.651,9.36749 L 161.584,11.0475 L 164.19,12.6935 C 163.523,11.5205 162.665,10.3885 161.651,9.36749 Z" transform=""/><path fill="#a9bc65" stroke="none" d="M 159.866,26.4509 L 159.972,23.7859 L 155.965,21.2559 L 151.771,23.4609 L 151.582,28.1949 L 151.876,28.3809 C 154.855,28.3599 157.609,27.6479 159.866,26.4509 Z" transform=""/><path fill="#a9bc65" stroke="none" d="M 150.519,27.5378 L 150.707,22.8028 L 146.701,20.2728 L 142.506,22.4768 L 142.378,25.7068 C 144.268,26.9738 146.626,27.8608 149.235,28.2118 L 150.519,27.5378 Z" transform=""/><path fill="#a9bc65" stroke="none" d="M 164.891,21.5657 L 161.287,23.4597 L 161.2,25.6507 C 162.833,24.5387 164.111,23.1417 164.891,21.5657 Z" transform=""/><path fill="#a9bc65" stroke="none" d="M 141.085,24.7155 L 141.183,22.2515 L 138.105,20.3075 C 138.615,21.9625 139.654,23.4665 141.085,24.7155 Z" transform=""/><path fill="#a9bc65" stroke="none" d="M 142.654,15.4538 S 144.766,14.2108 146.874,14.3608 C 148.343,14.4658 150.063,14.7328 151.525,16.1468 C 153.515,18.0708 153.986,21.2458 154.011,22.8708 C 154.075,27.1638 151.208,29.8808 146.761,29.7768 C 142.378,29.6748 138.846,26.8108 139.14,22.5328 C 139.307,20.0938 140.095,16.9488 142.654,15.4538 Z" style="opacity: 0.7" opacity="0.7" transform=""/><path fill="#d0e285" stroke="none" d="M 135.845,24.3889 S 136.608,22.3379 138.128,21.2379 C 139.188,20.4699 140.507,19.6699 142.276,19.7969 C 144.684,19.9689 140.911,23.0989 142.901,26.5379 C 145.142,30.4119 149.553,29.3129 146.463,31.7809 C 143.416,34.2139 139.443,34.2819 137.31,31.2069 C 136.093,29.4539 134.914,26.8659 135.845,24.3889 Z" transform=""/><path fill="#d0e285" stroke="none" d="M 135.21,10.7942 S 137.322,9.55121 139.43,9.70121 C 140.899,9.80621 142.619,10.0732 144.081,11.4872 C 146.071,13.4112 146.542,16.5862 146.567,18.2112 C 146.631,22.5042 143.764,25.2212 139.317,25.1172 C 134.934,25.0152 131.402,22.1512 131.696,17.8732 C 131.863,15.4342 132.651,12.2892 135.21,10.7942 Z" transform=""/><ellipse cx="140.95559471394216" cy="17.826835682392595" rx="0.5554926697127447" ry="0.7721206522090487" fill="#304454" stroke="none" transform="rotate(188.8934 140.95559470819776 17.826835605876838)" r="NaN"/><ellipse cx="134.46336283373967" cy="16.46429799817815" rx="0.5554926697127447" ry="0.7721206522090487" fill="#304454" stroke="none" transform="rotate(188.8934 134.46336262275298 16.46429751117786)" r="NaN"/><ellipse cx="137.51078501979853" cy="21.184805281257503" rx="1.5475449991402632" ry="1.3833041758097322" fill="#c75e72" stroke="none" r="NaN" transform=""/><ellipse cx="136.2591565873682" cy="19.801501220671497" rx="2.39753845551465" ry="1.6225860649723165" fill="#d0e285" stroke="none" r="NaN" transform=""/><path fill="#bed575" stroke="none" d="M 186.673,26.643 S 187.144,24.238 186.302,22.3 C 185.714,20.949 182.448,22.459 178.436,24.588 C 173.916,26.987 170.223,23.368 171.798,27.527 C 173.351,31.628 177.226,34.007 181.163,32.309 C 183.408,31.341 186.113,29.554 186.673,26.643 Z" transform=""/><path fill="#d0e285" stroke="none" d="M 202.715,24.2393 S 201.8,22.5133 201.995,20.8403 C 202.13,19.6743 204.971,20.0713 208.523,20.7683 C 212.526,21.5533 214.506,17.9383 214.266,21.4763 C 214.029,24.9633 211.623,27.6733 208.227,27.2883 C 206.291,27.0693 203.814,26.3303 202.715,24.2393 Z" transform=""/><path fill="#d0e285" stroke="none" d="M 191.104,32.1809 S 190.633,29.7759 191.475,27.8379 C 192.063,26.4869 195.329,27.9969 199.341,30.1259 C 203.861,32.5249 207.554,28.9059 205.979,33.0649 C 204.426,37.1659 200.551,39.5449 196.614,37.8469 C 194.369,36.8789 191.663,35.0919 191.104,32.1809 Z" transform=""/><ellipse cx="194.00369207062894" cy="19.909107467275444" rx="16.430217766108566" ry="10.879066720092164" fill="#bed575" stroke="none" r="NaN" transform=""/><path fill="#bed575" stroke="none" d="M 180.604,17.5573 C 180.604,23.3073 186.873,27.9683 194.605,27.9683 S 208.605,23.3073 208.605,17.5573 S 202.145,4.45635 194.413,4.45635 S 180.604,11.8073 180.604,17.5573 Z" transform=""/><path fill="#a9bc65" stroke="none" d="M 190.534,18.8312 L 194.54,21.3612 L 198.735,19.1572 L 198.923,14.4222 L 194.917,11.8912 L 190.722,14.0962 Z" transform=""/><path fill="#a9bc65" stroke="none" d="M 188.649,18.9194 L 188.837,14.1844 L 184.831,11.6544 L 181.796,13.2484 C 181.031,14.8254 180.604,16.4534 180.604,17.9714 C 180.604,18.2214 180.62,18.4704 180.644,18.7164 L 184.455,21.1234 L 188.649,18.9194 Z" transform=""/><path fill="#a9bc65" stroke="none" d="M 195.766,6.32243 L 195.917,10.5484 L 199.312,13.0694 L 202.557,11.3634 L 202.422,7.58843 C 201.003,6.56943 199.402,5.77343 197.687,5.31243 L 195.766,6.32243 Z" transform=""/><path fill="#a9bc65" stroke="none" d="M 200.247,19.8057 L 204.253,22.3357 L 208.273,20.2237 C 208.358,19.9377 208.426,19.6467 208.479,19.3517 L 208.564,17.2077 C 208.498,16.5047 208.343,15.7847 208.107,15.0627 L 204.63,12.8657 L 200.435,15.0707 L 200.247,19.8057 Z" transform=""/><path fill="#a9bc65" stroke="none" d="M 184.997,11.2322 L 188.54,13.4952 L 193.072,11.0472 L 194.061,6.33519 L 192.114,5.09119 C 189.654,5.56019 187.43,6.74719 185.608,8.32219 L 184.997,11.2322 Z" transform=""/><path fill="#a9bc65" stroke="none" d="M 204.508,9.36749 L 204.441,11.0475 L 207.047,12.6935 C 206.38,11.5205 205.522,10.3885 204.508,9.36749 Z" transform=""/><path fill="#a9bc65" stroke="none" d="M 202.724,26.4509 L 202.83,23.7859 L 198.823,21.2559 L 194.629,23.4609 L 194.44,28.1949 L 194.734,28.3809 C 197.713,28.3599 200.467,27.6479 202.724,26.4509 Z" transform=""/><path fill="#a9bc65" stroke="none" d="M 193.376,27.5378 L 193.564,22.8028 L 189.558,20.2728 L 185.363,22.4768 L 185.235,25.7068 C 187.125,26.9738 189.483,27.8608 192.092,28.2118 L 193.376,27.5378 Z" transform=""/><path fill="#a9bc65" stroke="none" d="M 207.748,21.5657 L 204.144,23.4597 L 204.057,25.6507 C 205.69,24.5387 206.968,23.1417 207.748,21.5657 Z" transform=""/><path fill="#a9bc65" stroke="none" d="M 183.943,24.7155 L 184.041,22.2515 L 180.963,20.3075 C 181.473,21.9625 182.512,23.4665 183.943,24.7155 Z" transform=""/><path fill="#a9bc65" stroke="none" d="M 185.511,15.4538 S 187.623,14.2108 189.731,14.3608 C 191.2,14.4658 192.92,14.7328 194.382,16.1468 C 196.372,18.0708 196.843,21.2458 196.868,22.8708 C 196.932,27.1638 194.065,29.8808 189.618,29.7768 C 185.235,29.6748 181.703,26.8108 181.997,22.5328 C 182.164,20.0938 182.952,16.9488 185.511,15.4538 Z" style="opacity: 0.7" opacity="0.7" transform=""/><path fill="#d0e285" stroke="none" d="M 178.702,24.3889 S 179.465,22.3379 180.985,21.2379 C 182.045,20.4699 183.364,19.6699 185.133,19.7969 C 187.541,19.9689 183.768,23.0989 185.758,26.5379 C 187.999,30.4119 192.41,29.3129 189.32,31.7809 C 186.273,34.2139 182.3,34.2819 180.167,31.2069 C 178.95,29.4539 177.771,26.8659 178.702,24.3889 Z" transform=""/><path fill="#d0e285" stroke="none" d="M 178.067,10.7942 S 180.179,9.55121 182.287,9.70121 C 183.756,9.80621 185.476,10.0732 186.938,11.4872 C 188.928,13.4112 189.399,16.5862 189.424,18.2112 C 189.488,22.5042 186.621,25.2212 182.174,25.1172 C 177.791,25.0152 174.259,22.1512 174.553,17.8732 C 174.72,15.4342 175.508,12.2892 178.067,10.7942 Z" transform=""/><ellipse cx="183.812737571085" cy="17.826835682392595" rx="0.5554926697127447" ry="0.7721206522090487" fill="#304454" stroke="none" transform="rotate(188.8934 183.8127375653406 17.826835605876838)" r="NaN"/><ellipse cx="177.3205056908825" cy="16.46429799817815" rx="0.5554926697127447" ry="0.7721206522090487" fill="#304454" stroke="none" transform="rotate(188.8934 177.32050547989581 16.46429751117786)" r="NaN"/><ellipse cx="180.36792787694137" cy="21.184805281257503" rx="1.5475449991402632" ry="1.3833041758097322" fill="#c75e72" stroke="none" r="NaN" transform=""/><ellipse cx="179.11629944451104" cy="19.801501220671497" rx="2.39753845551465" ry="1.6225860649723165" fill="#d0e285" stroke="none" r="NaN" transform=""/><path fill="#bed575" stroke="none" d="M 229.53,26.643 S 230.001,24.238 229.159,22.3 C 228.571,20.949 225.305,22.459 221.293,24.588 C 216.773,26.987 213.08,23.368 214.655,27.527 C 216.208,31.628 220.083,34.007 224.02,32.309 C 226.265,31.341 228.97,29.554 229.53,26.643 Z" transform=""/><path fill="#d0e285" stroke="none" d="M 245.572,24.2393 S 244.657,22.5133 244.852,20.8403 C 244.987,19.6743 247.828,20.0713 251.38,20.7683 C 255.383,21.5533 257.363,17.9383 257.123,21.4763 C 256.886,24.9633 254.48,27.6733 251.084,27.2883 C 249.148,27.0693 246.671,26.3303 245.572,24.2393 Z" transform=""/><path fill="#d0e285" stroke="none" d="M 233.961,32.1809 S 233.49,29.7759 234.332,27.8379 C 234.92,26.4869 238.186,27.9969 242.198,30.1259 C 246.718,32.5249 250.411,28.9059 248.836,33.0649 C 247.283,37.1659 243.408,39.5449 239.471,37.8469 C 237.226,36.8789 234.52,35.0919 233.961,32.1809 Z" transform=""/><ellipse cx="236.8608349277718" cy="19.909107467275444" rx="16.430217766108566" ry="10.879066720092164" fill="#bed575" stroke="none" r="NaN" transform=""/><path fill="#bed575" stroke="none" d="M 223.461,17.5573 C 223.461,23.3073 229.73,27.9683 237.462,27.9683 S 251.462,23.3073 251.462,17.5573 S 245.002,4.45635 237.27,4.45635 S 223.461,11.8073 223.461,17.5573 Z" transform=""/><path fill="#a9bc65" stroke="none" d="M 233.391,18.8312 L 237.397,21.3612 L 241.592,19.1572 L 241.78,14.4222 L 237.774,11.8912 L 233.579,14.0962 Z" transform=""/><path fill="#a9bc65" stroke="none" d="M 231.506,18.9194 L 231.694,14.1844 L 227.688,11.6544 L 224.653,13.2484 C 223.888,14.8254 223.461,16.4534 223.461,17.9714 C 223.461,18.2214 223.477,18.4704 223.501,18.7164 L 227.312,21.1234 L 231.506,18.9194 Z" transform=""/><path fill="#a9bc65" stroke="none" d="M 238.623,6.32243 L 238.774,10.5484 L 242.169,13.0694 L 245.414,11.3634 L 245.279,7.58843 C 243.86,6.56943 242.259,5.77343 240.544,5.31243 L 238.623,6.32243 Z" transform=""/><path fill="#a9bc65" stroke="none" d="M 243.104,19.8057 L 247.11,22.3357 L 251.13,20.2237 C 251.215,19.9377 251.283,19.6467 251.336,19.3517 L 251.421,17.2077 C 251.355,16.5047 251.2,15.7847 250.964,15.0627 L 247.487,12.8657 L 243.292,15.0707 L 243.104,19.8057 Z" transform=""/><path fill="#a9bc65" stroke="none" d="M 227.854,11.2322 L 231.397,13.4952 L 235.929,11.0472 L 236.918,6.33519 L 234.971,5.09119 C 232.511,5.56019 230.287,6.74719 228.465,8.32219 L 227.854,11.2322 Z" transform=""/><path fill="#a9bc65" stroke="none" d="M 247.365,9.36749 L 247.298,11.0475 L 249.904,12.6935 C 249.237,11.5205 248.379,10.3885 247.365,9.36749 Z" transform=""/><path fill="#a9bc65" stroke="none" d="M 245.581,26.4509 L 245.687,23.7859 L 241.68,21.2559 L 237.486,23.4609 L 237.297,28.1949 L 237.591,28.3809 C 240.57,28.3599 243.324,27.6479 245.581,26.4509 Z" transform=""/><path fill="#a9bc65" stroke="none" d="M 236.233,27.5378 L 236.421,22.8028 L 232.415,20.2728 L 228.22,22.4768 L 228.092,25.7068 C 229.982,26.9738 232.34,27.8608 234.949,28.2118 L 236.233,27.5378 Z" transform=""/><path fill="#a9bc65" stroke="none" d="M 250.605,21.5657 L 247.001,23.4597 L 246.914,25.6507 C 248.547,24.5387 249.825,23.1417 250.605,21.5657 Z" transform=""/><path fill="#a9bc65" stroke="none" d="M 226.8,24.7155 L 226.898,22.2515 L 223.82,20.3075 C 224.33,21.9625 225.369,23.4665 226.8,24.7155 Z" transform=""/><path fill="#a9bc65" stroke="none" d="M 228.368,15.4538 S 230.48,14.2108 232.588,14.3608 C 234.057,14.4658 235.777,14.7328 237.239,16.1468 C 239.229,18.0708 239.7,21.2458 239.725,22.8708 C 239.789,27.1638 236.922,29.8808 232.475,29.7768 C 228.092,29.6748 224.56,26.8108 224.854,22.5328 C 225.021,20.0938 225.809,16.9488 228.368,15.4538 Z" style="opacity: 0.7" opacity="0.7" transform=""/><path fill="#d0e285" stroke="none" d="M 221.559,24.3889 S 222.322,22.3379 223.842,21.2379 C 224.902,20.4699 226.221,19.6699 227.99,19.7969 C 230.398,19.9689 226.625,23.0989 228.615,26.5379 C 230.856,30.4119 235.267,29.3129 232.177,31.7809 C 229.13,34.2139 225.157,34.2819 223.024,31.2069 C 221.807,29.4539 220.628,26.8659 221.559,24.3889 Z" transform=""/><path fill="#d0e285" stroke="none" d="M 220.924,10.7942 S 223.036,9.55121 225.144,9.70121 C 226.613,9.80621 228.333,10.0732 229.795,11.4872 C 231.785,13.4112 232.256,16.5862 232.281,18.2112 C 232.345,22.5042 229.478,25.2212 225.031,25.1172 C 220.648,25.0152 217.116,22.1512 217.41,17.8732 C 217.577,15.4342 218.365,12.2892 220.924,10.7942 Z" transform=""/><ellipse cx="226.66988042822788" cy="17.826835682392595" rx="0.5554926697127447" ry="0.7721206522090487" fill="#304454" stroke="none" transform="rotate(188.8934 226.66988042248346 17.826835605876838)" r="NaN"/><ellipse cx="220.17764854802536" cy="16.46429799817815" rx="0.5554926697127447" ry="0.7721206522090487" fill="#304454" stroke="none" transform="rotate(188.8934 220.17764833703868 16.46429751117786)" r="NaN"/><ellipse cx="223.22507073408423" cy="21.184805281257503" rx="1.5475449991402632" ry="1.3833041758097322" fill="#c75e72" stroke="none" r="NaN" transform=""/><ellipse cx="221.9734423016539" cy="19.801501220671497" rx="2.39753845551465" ry="1.6225860649723165" fill="#d0e285" stroke="none" r="NaN" transform=""/><path fill="#bed575" stroke="none" d="M 15.2442,-16.2142 S 15.7152,-18.6192 14.8732,-20.5572 C 14.2852,-21.9082 11.0192,-20.3982 7.00722,-18.2692 C 2.48722,-15.8702 -1.20578,-19.4892 0.369222,-15.3302 C 1.92222,-11.2292 5.79722,-8.85016 9.73422,-10.5482 C 11.9792,-11.5162 14.6842,-13.3032 15.2442,-16.2142 Z" transform=""/><path fill="#d0e285" stroke="none" d="M 31.2865,-18.6178 S 30.3715,-20.3438 30.5665,-22.0168 C 30.7015,-23.1828 33.5425,-22.7858 37.0945,-22.0888 C 41.0975,-21.3038 43.0775,-24.9188 42.8375,-21.3808 C 42.6005,-17.8938 40.1945,-15.1838 36.7985,-15.5688 C 34.8625,-15.7878 32.3855,-16.5268 31.2865,-18.6178 Z" transform=""/><path fill="#d0e285" stroke="none" d="M 19.6749,-10.6762 S 19.2039,-13.0812 20.0459,-15.0192 C 20.6339,-16.3702 23.8999,-14.8602 27.9119,-12.7312 C 32.4319,-10.3322 36.1249,-13.9512 34.5499,-9.79223 C 32.9969,-5.69123 29.1219,-3.31223 25.1849,-5.01023 C 22.9399,-5.97823 20.2339,-7.76523 19.6749,-10.6762 Z" transform=""/><ellipse cx="22.575120642057538" cy="-22.94803538986741" rx="16.430217766108566" ry="10.879066720092164" fill="#bed575" stroke="none" r="NaN" transform=""/><path fill="#bed575" stroke="none" d="M 9.17533,-25.2998 C 9.17533,-19.5498 15.4443,-14.8888 23.1763,-14.8888 S 37.1763,-19.5498 37.1763,-25.2998 S 30.7163,-38.4008 22.9843,-38.4008 S 9.17533,-31.0498 9.17533,-25.2998 Z" transform=""/><path fill="#a9bc65" stroke="none" d="M 19.1053,-24.026 L 23.1113,-21.496 L 27.3063,-23.7 L 27.4943,-28.435 L 23.4883,-30.966 L 19.2933,-28.761 Z" transform=""/><path fill="#a9bc65" stroke="none" d="M 17.2208,-23.9377 L 17.4088,-28.6727 L 13.4028,-31.2027 L 10.3678,-29.6087 C 9.60278,-28.0317 9.17578,-26.4037 9.17578,-24.8857 C 9.17578,-24.6357 9.19178,-24.3867 9.21578,-24.1407 L 13.0268,-21.7337 L 17.2208,-23.9377 Z" transform=""/><path fill="#a9bc65" stroke="none" d="M 24.3369,-36.5347 L 24.4879,-32.3087 L 27.8829,-29.7877 L 31.1279,-31.4937 L 30.9929,-35.2687 C 29.5739,-36.2877 27.9729,-37.0837 26.2579,-37.5447 L 24.3369,-36.5347 Z" transform=""/><path fill="#a9bc65" stroke="none" d="M 28.8182,-23.0514 L 32.8242,-20.5214 L 36.8442,-22.6334 C 36.9292,-22.9194 36.9972,-23.2104 37.0502,-23.5054 L 37.1352,-25.6494 C 37.0692,-26.3524 36.9142,-27.0724 36.6782,-27.7944 L 33.2012,-29.9914 L 29.0062,-27.7864 L 28.8182,-23.0514 Z" transform=""/><path fill="#a9bc65" stroke="none" d="M 13.5683,-31.625 L 17.1113,-29.362 L 21.6433,-31.81 L 22.6323,-36.522 L 20.6853,-37.766 C 18.2253,-37.297 16.0013,-36.11 14.1793,-34.535 L 13.5683,-31.625 Z" transform=""/><path fill="#a9bc65" stroke="none" d="M 33.0795,-33.4897 L 33.0125,-31.8097 L 35.6185,-30.1637 C 34.9515,-31.3367 34.0935,-32.4687 33.0795,-33.4897 Z" transform=""/><path fill="#a9bc65" stroke="none" d="M 31.295,-16.4062 L 31.401,-19.0712 L 27.394,-21.6012 L 23.2,-19.3962 L 23.011,-14.6622 L 23.305,-14.4762 C 26.284,-14.4972 29.038,-15.2092 31.295,-16.4062 Z" transform=""/><path fill="#a9bc65" stroke="none" d="M 21.9474,-15.3193 L 22.1354,-20.0543 L 18.1294,-22.5843 L 13.9344,-20.3803 L 13.8064,-17.1503 C 15.6964,-15.8833 18.0544,-14.9963 20.6634,-14.6453 L 21.9474,-15.3193 Z" transform=""/><path fill="#a9bc65" stroke="none" d="M 36.3194,-21.2915 L 32.7154,-19.3975 L 32.6284,-17.2065 C 34.2614,-18.3185 35.5394,-19.7155 36.3194,-21.2915 Z" transform=""/><path fill="#a9bc65" stroke="none" d="M 12.514,-18.1416 L 12.612,-20.6056 L 9.53395,-22.5496 C 10.044,-20.8946 11.083,-19.3906 12.514,-18.1416 Z" transform=""/><path fill="#a9bc65" stroke="none" d="M 14.0827,-27.4033 S 16.1947,-28.6463 18.3027,-28.4963 C 19.7717,-28.3913 21.4917,-28.1243 22.9537,-26.7103 C 24.9437,-24.7863 25.4147,-21.6113 25.4397,-19.9863 C 25.5037,-15.6933 22.6367,-12.9763 18.1897,-13.0803 C 13.8067,-13.1823 10.2747,-16.0463 10.5687,-20.3243 C 10.7357,-22.7633 11.5237,-25.9083 14.0827,-27.4033 Z" style="opacity: 0.7" opacity="0.7" transform=""/><path fill="#d0e285" stroke="none" d="M 7.27335,-18.4682 S 8.03635,-20.5192 9.55635,-21.6192 C 10.6164,-22.3872 11.9354,-23.1872 13.7044,-23.0602 C 16.1124,-22.8882 12.3394,-19.7582 14.3294,-16.3192 C 16.5704,-12.4452 20.9814,-13.5442 17.8914,-11.0762 C 14.8444,-8.64323 10.8714,-8.57523 8.73835,-11.6502 C 7.52135,-13.4032 6.34235,-15.9912 7.27335,-18.4682 Z" transform=""/><path fill="#d0e285" stroke="none" d="M 6.63857,-32.0629 S 8.75057,-33.3059 10.8586,-33.1559 C 12.3276,-33.0509 14.0476,-32.7839 15.5096,-31.3699 C 17.4996,-29.4459 17.9706,-26.2709 17.9956,-24.6459 C 18.0596,-20.3529 15.1926,-17.6359 10.7456,-17.7399 C 6.36257,-17.8419 2.83057,-20.7059 3.12457,-24.9839 C 3.29157,-27.4229 4.07957,-30.5679 6.63857,-32.0629 Z" transform=""/><ellipse cx="12.384166142513592" cy="-25.03030717475026" rx="0.5554926697127447" ry="0.7721206522090487" fill="#304454" stroke="none" transform="rotate(188.8934 12.384166136769188 -25.030307251266017)" r="NaN"/><ellipse cx="5.89193426231107" cy="-26.392844858964704" rx="0.5554926697127447" ry="0.7721206522090487" fill="#304454" stroke="none" transform="rotate(188.8934 5.8919340513244 -26.392845345964993)" r="NaN"/><ellipse cx="8.939356448369956" cy="-21.67233757588535" rx="1.5475449991402632" ry="1.3833041758097322" fill="#c75e72" stroke="none" r="NaN" transform=""/><ellipse cx="7.687728015939626" cy="-23.055641636471357" rx="2.39753845551465" ry="1.6225860649723165" fill="#d0e285" stroke="none" r="NaN" transform=""/><path fill="#bed575" stroke="none" d="M 58.1014,-16.2142 S 58.5724,-18.6192 57.7304,-20.5572 C 57.1424,-21.9082 53.8764,-20.3982 49.8644,-18.2692 C 45.3444,-15.8702 41.6514,-19.4892 43.2264,-15.3302 C 44.7794,-11.2292 48.6544,-8.85016 52.5914,-10.5482 C 54.8364,-11.5162 57.5414,-13.3032 58.1014,-16.2142 Z" transform=""/><path fill="#d0e285" stroke="none" d="M 74.1436,-18.6178 S 73.2286,-20.3438 73.4236,-22.0168 C 73.5586,-23.1828 76.3996,-22.7858 79.9516,-22.0888 C 83.9546,-21.3038 85.9346,-24.9188 85.6946,-21.3808 C 85.4576,-17.8938 83.0516,-15.1838 79.6556,-15.5688 C 77.7196,-15.7878 75.2426,-16.5268 74.1436,-18.6178 Z" transform=""/><path fill="#d0e285" stroke="none" d="M 62.5321,-10.6762 S 62.0611,-13.0812 62.9031,-15.0192 C 63.4911,-16.3702 66.7571,-14.8602 70.7691,-12.7312 C 75.2891,-10.3322 78.9821,-13.9512 77.4071,-9.79223 C 75.8541,-5.69123 71.9791,-3.31223 68.0421,-5.01023 C 65.7971,-5.97823 63.0911,-7.76523 62.5321,-10.6762 Z" transform=""/><ellipse cx="65.43226349920039" cy="-22.94803538986741" rx="16.430217766108566" ry="10.879066720092164" fill="#bed575" stroke="none" r="NaN" transform=""/><path fill="#bed575" stroke="none" d="M 52.0325,-25.2998 C 52.0325,-19.5498 58.3015,-14.8888 66.0335,-14.8888 S 80.0335,-19.5498 80.0335,-25.2998 S 73.5735,-38.4008 65.8415,-38.4008 S 52.0325,-31.0498 52.0325,-25.2998 Z" transform=""/><path fill="#a9bc65" stroke="none" d="M 61.9624,-24.026 L 65.9684,-21.496 L 70.1634,-23.7 L 70.3514,-28.435 L 66.3454,-30.966 L 62.1504,-28.761 Z" transform=""/><path fill="#a9bc65" stroke="none" d="M 60.0779,-23.9377 L 60.2659,-28.6727 L 56.2599,-31.2027 L 53.2249,-29.6087 C 52.4599,-28.0317 52.0329,-26.4037 52.0329,-24.8857 C 52.0329,-24.6357 52.0489,-24.3867 52.0729,-24.1407 L 55.8839,-21.7337 L 60.0779,-23.9377 Z" transform=""/><path fill="#a9bc65" stroke="none" d="M 67.1941,-36.5347 L 67.3451,-32.3087 L 70.7401,-29.7877 L 73.9851,-31.4937 L 73.8501,-35.2687 C 72.4311,-36.2877 70.8301,-37.0837 69.1151,-37.5447 L 67.1941,-36.5347 Z" transform=""/><path fill="#a9bc65" stroke="none" d="M 71.6753,-23.0514 L 75.6813,-20.5214 L 79.7013,-22.6334 C 79.7863,-22.9194 79.8543,-23.2104 79.9073,-23.5054 L 79.9923,-25.6494 C 79.9263,-26.3524 79.7713,-27.0724 79.5353,-27.7944 L 76.0583,-29.9914 L 71.8633,-27.7864 L 71.6753,-23.0514 Z" transform=""/><path fill="#a9bc65" stroke="none" d="M 56.4254,-31.625 L 59.9684,-29.362 L 64.5004,-31.81 L 65.4894,-36.522 L 63.5424,-37.766 C 61.0824,-37.297 58.8584,-36.11 57.0364,-34.535 L 56.4254,-31.625 Z" transform=""/><path fill="#a9bc65" stroke="none" d="M 75.9366,-33.4897 L 75.8696,-31.8097 L 78.4756,-30.1637 C 77.8086,-31.3367 76.9506,-32.4687 75.9366,-33.4897 Z" transform=""/><path fill="#a9bc65" stroke="none" d="M 74.1521,-16.4062 L 74.2581,-19.0712 L 70.2511,-21.6012 L 66.0571,-19.3962 L 65.8681,-14.6622 L 66.1621,-14.4762 C 69.1411,-14.4972 71.8951,-15.2092 74.1521,-16.4062 Z" transform=""/><path fill="#a9bc65" stroke="none" d="M 64.8046,-15.3193 L 64.9926,-20.0543 L 60.9866,-22.5843 L 56.7916,-20.3803 L 56.6636,-17.1503 C 58.5536,-15.8833 60.9116,-14.9963 63.5206,-14.6453 L 64.8046,-15.3193 Z" transform=""/><path fill="#a9bc65" stroke="none" d="M 79.1766,-21.2915 L 75.5726,-19.3975 L 75.4856,-17.2065 C 77.1186,-18.3185 78.3966,-19.7155 79.1766,-21.2915 Z" transform=""/><path fill="#a9bc65" stroke="none" d="M 55.3711,-18.1416 L 55.4691,-20.6056 L 52.3911,-22.5496 C 52.9011,-20.8946 53.9401,-19.3906 55.3711,-18.1416 Z" transform=""/><path fill="#a9bc65" stroke="none" d="M 56.9399,-27.4033 S 59.0519,-28.6463 61.1599,-28.4963 C 62.6289,-28.3913 64.3489,-28.1243 65.8109,-26.7103 C 67.8009,-24.7863 68.2719,-21.6113 68.2969,-19.9863 C 68.3609,-15.6933 65.4939,-12.9763 61.0469,-13.0803 C 56.6639,-13.1823 53.1319,-16.0463 53.4259,-20.3243 C 53.5929,-22.7633 54.3809,-25.9083 56.9399,-27.4033 Z" style="opacity: 0.7" opacity="0.7" transform=""/><path fill="#d0e285" stroke="none" d="M 50.1305,-18.4682 S 50.8935,-20.5192 52.4135,-21.6192 C 53.4735,-22.3872 54.7925,-23.1872 56.5615,-23.0602 C 58.9695,-22.8882 55.1965,-19.7582 57.1865,-16.3192 C 59.4275,-12.4452 63.8385,-13.5442 60.7485,-11.0762 C 57.7015,-8.64323 53.7285,-8.57523 51.5955,-11.6502 C 50.3785,-13.4032 49.1995,-15.9912 50.1305,-18.4682 Z" transform=""/><path fill="#d0e285" stroke="none" d="M 49.4957,-32.0629 S 51.6077,-33.3059 53.7157,-33.1559 C 55.1847,-33.0509 56.9047,-32.7839 58.3667,-31.3699 C 60.3567,-29.4459 60.8277,-26.2709 60.8527,-24.6459 C 60.9167,-20.3529 58.0497,-17.6359 53.6027,-17.7399 C 49.2197,-17.8419 45.6877,-20.7059 45.9817,-24.9839 C 46.1487,-27.4229 46.9367,-30.5679 49.4957,-32.0629 Z" transform=""/><ellipse cx="55.24130899965644" cy="-25.03030717475026" rx="0.5554926697127447" ry="0.7721206522090487" fill="#304454" stroke="none" transform="rotate(188.8934 55.241308993912035 -25.030307251266017)" r="NaN"/><ellipse cx="48.749077119453915" cy="-26.392844858964704" rx="0.5554926697127447" ry="0.7721206522090487" fill="#304454" stroke="none" transform="rotate(188.8934 48.749076908467245 -26.392845345964993)" r="NaN"/><ellipse cx="51.7964993055128" cy="-21.67233757588535" rx="1.5475449991402632" ry="1.3833041758097322" fill="#c75e72" stroke="none" r="NaN" transform=""/><ellipse cx="50.54487087308247" cy="-23.055641636471357" rx="2.39753845551465" ry="1.6225860649723165" fill="#d0e285" stroke="none" r="NaN" transform=""/><path fill="#bed575" stroke="none" d="M 100.959,-16.2142 S 101.43,-18.6192 100.588,-20.5572 C 99.9995,-21.9082 96.7335,-20.3982 92.7215,-18.2692 C 88.2015,-15.8702 84.5085,-19.4892 86.0835,-15.3302 C 87.6365,-11.2292 91.5115,-8.85016 95.4485,-10.5482 C 97.6935,-11.5162 100.399,-13.3032 100.959,-16.2142 Z" transform=""/><path fill="#d0e285" stroke="none" d="M 117.001,-18.6178 S 116.086,-20.3438 116.281,-22.0168 C 116.416,-23.1828 119.257,-22.7858 122.809,-22.0888 C 126.812,-21.3038 128.792,-24.9188 128.552,-21.3808 C 128.315,-17.8938 125.909,-15.1838 122.513,-15.5688 C 120.577,-15.7878 118.1,-16.5268 117.001,-18.6178 Z" transform=""/><path fill="#d0e285" stroke="none" d="M 105.389,-10.6762 S 104.918,-13.0812 105.76,-15.0192 C 106.348,-16.3702 109.614,-14.8602 113.626,-12.7312 C 118.146,-10.3322 121.839,-13.9512 120.264,-9.79223 C 118.711,-5.69123 114.836,-3.31223 110.899,-5.01023 C 108.654,-5.97823 105.948,-7.76523 105.389,-10.6762 Z" transform=""/><ellipse cx="108.28940635634325" cy="-22.94803538986741" rx="16.430217766108566" ry="10.879066720092164" fill="#bed575" stroke="none" r="NaN" transform=""/><path fill="#bed575" stroke="none" d="M 94.8896,-25.2998 C 94.8896,-19.5498 101.159,-14.8888 108.891,-14.8888 S 122.891,-19.5498 122.891,-25.2998 S 116.431,-38.4008 108.699,-38.4008 S 94.8896,-31.0498 94.8896,-25.2998 Z" transform=""/><path fill="#a9bc65" stroke="none" d="M 104.82,-24.026 L 108.826,-21.496 L 113.021,-23.7 L 113.209,-28.435 L 109.203,-30.966 L 105.008,-28.761 Z" transform=""/><path fill="#a9bc65" stroke="none" d="M 102.935,-23.9377 L 103.123,-28.6727 L 99.1171,-31.2027 L 96.0821,-29.6087 C 95.3171,-28.0317 94.8901,-26.4037 94.8901,-24.8857 C 94.8901,-24.6357 94.9061,-24.3867 94.9301,-24.1407 L 98.7411,-21.7337 L 102.935,-23.9377 Z" transform=""/><path fill="#a9bc65" stroke="none" d="M 110.051,-36.5347 L 110.202,-32.3087 L 113.597,-29.7877 L 116.842,-31.4937 L 116.707,-35.2687 C 115.288,-36.2877 113.687,-37.0837 111.972,-37.5447 L 110.051,-36.5347 Z" transform=""/><path fill="#a9bc65" stroke="none" d="M 114.532,-23.0514 L 118.538,-20.5214 L 122.558,-22.6334 C 122.643,-22.9194 122.711,-23.2104 122.764,-23.5054 L 122.849,-25.6494 C 122.783,-26.3524 122.628,-27.0724 122.392,-27.7944 L 118.915,-29.9914 L 114.72,-27.7864 L 114.532,-23.0514 Z" transform=""/><path fill="#a9bc65" stroke="none" d="M 99.2826,-31.625 L 102.826,-29.362 L 107.358,-31.81 L 108.347,-36.522 L 106.4,-37.766 C 103.94,-37.297 101.716,-36.11 99.8936,-34.535 L 99.2826,-31.625 Z" transform=""/><path fill="#a9bc65" stroke="none" d="M 118.794,-33.4897 L 118.727,-31.8097 L 121.333,-30.1637 C 120.666,-31.3367 119.808,-32.4687 118.794,-33.4897 Z" transform=""/><path fill="#a9bc65" stroke="none" d="M 117.009,-16.4062 L 117.115,-19.0712 L 113.108,-21.6012 L 108.914,-19.3962 L 108.725,-14.6622 L 109.019,-14.4762 C 111.998,-14.4972 114.752,-15.2092 117.009,-16.4062 Z" transform=""/><path fill="#a9bc65" stroke="none" d="M 107.662,-15.3193 L 107.85,-20.0543 L 103.844,-22.5843 L 99.6487,-20.3803 L 99.5207,-17.1503 C 101.411,-15.8833 103.769,-14.9963 106.378,-14.6453 L 107.662,-15.3193 Z" transform=""/><path fill="#a9bc65" stroke="none" d="M 122.034,-21.2915 L 118.43,-19.3975 L 118.343,-17.2065 C 119.976,-18.3185 121.254,-19.7155 122.034,-21.2915 Z" transform=""/><path fill="#a9bc65" stroke="none" d="M 98.2282,-18.1416 L 98.3262,-20.6056 L 95.2482,-22.5496 C 95.7582,-20.8946 96.7972,-19.3906 98.2282,-18.1416 Z" transform=""/><path fill="#a9bc65" stroke="none" d="M 99.797,-27.4033 S 101.909,-28.6463 104.017,-28.4963 C 105.486,-28.3913 107.206,-28.1243 108.668,-26.7103 C 110.658,-24.7863 111.129,-21.6113 111.154,-19.9863 C 111.218,-15.6933 108.351,-12.9763 103.904,-13.0803 C 99.521,-13.1823 95.989,-16.0463 96.283,-20.3243 C 96.45,-22.7633 97.238,-25.9083 99.797,-27.4033 Z" style="opacity: 0.7" opacity="0.7" transform=""/><path fill="#d0e285" stroke="none" d="M 92.9876,-18.4682 S 93.7506,-20.5192 95.2706,-21.6192 C 96.3306,-22.3872 97.6496,-23.1872 99.4186,-23.0602 C 101.827,-22.8882 98.0536,-19.7582 100.044,-16.3192 C 102.285,-12.4452 106.696,-13.5442 103.606,-11.0762 C 100.559,-8.64323 96.5856,-8.57523 94.4526,-11.6502 C 93.2356,-13.4032 92.0566,-15.9912 92.9876,-18.4682 Z" transform=""/><path fill="#d0e285" stroke="none" d="M 92.3529,-32.0629 S 94.4649,-33.3059 96.5729,-33.1559 C 98.0419,-33.0509 99.7619,-32.7839 101.224,-31.3699 C 103.214,-29.4459 103.685,-26.2709 103.71,-24.6459 C 103.774,-20.3529 100.907,-17.6359 96.4599,-17.7399 C 92.0769,-17.8419 88.5449,-20.7059 88.8389,-24.9839 C 89.0059,-27.4229 89.7939,-30.5679 92.3529,-32.0629 Z" transform=""/><ellipse cx="98.0984518567993" cy="-25.03030717475026" rx="0.5554926697127447" ry="0.7721206522090487" fill="#304454" stroke="none" transform="rotate(188.8934 98.0984518510549 -25.030307251266017)" r="NaN"/><ellipse cx="91.60621997659678" cy="-26.392844858964704" rx="0.5554926697127447" ry="0.7721206522090487" fill="#304454" stroke="none" transform="rotate(188.8934 91.6062197656101 -26.392845345964993)" r="NaN"/><ellipse cx="94.65364216265567" cy="-21.67233757588535" rx="1.5475449991402632" ry="1.3833041758097322" fill="#c75e72" stroke="none" r="NaN" transform=""/><ellipse cx="93.40201373022533" cy="-23.055641636471357" rx="2.39753845551465" ry="1.6225860649723165" fill="#d0e285" stroke="none" r="NaN" transform=""/><path fill="#bed575" stroke="none" d="M 143.816,-16.2142 S 144.287,-18.6192 143.445,-20.5572 C 142.857,-21.9082 139.591,-20.3982 135.579,-18.2692 C 131.059,-15.8702 127.366,-19.4892 128.941,-15.3302 C 130.494,-11.2292 134.369,-8.85016 138.306,-10.5482 C 140.551,-11.5162 143.256,-13.3032 143.816,-16.2142 Z" transform=""/><path fill="#d0e285" stroke="none" d="M 159.858,-18.6178 S 158.943,-20.3438 159.138,-22.0168 C 159.273,-23.1828 162.114,-22.7858 165.666,-22.0888 C 169.669,-21.3038 171.649,-24.9188 171.409,-21.3808 C 171.172,-17.8938 168.766,-15.1838 165.37,-15.5688 C 163.434,-15.7878 160.957,-16.5268 159.858,-18.6178 Z" transform=""/><path fill="#d0e285" stroke="none" d="M 148.246,-10.6762 S 147.775,-13.0812 148.617,-15.0192 C 149.205,-16.3702 152.471,-14.8602 156.483,-12.7312 C 161.003,-10.3322 164.696,-13.9512 163.121,-9.79223 C 161.568,-5.69123 157.693,-3.31223 153.756,-5.01023 C 151.511,-5.97823 148.805,-7.76523 148.246,-10.6762 Z" transform=""/><ellipse cx="151.1465492134861" cy="-22.94803538986741" rx="16.430217766108566" ry="10.879066720092164" fill="#bed575" stroke="none" r="NaN" transform=""/><path fill="#bed575" stroke="none" d="M 137.747,-25.2998 C 137.747,-19.5498 144.016,-14.8888 151.748,-14.8888 S 165.748,-19.5498 165.748,-25.2998 S 159.288,-38.4008 151.556,-38.4008 S 137.747,-31.0498 137.747,-25.2998 Z" transform=""/><path fill="#a9bc65" stroke="none" d="M 147.677,-24.026 L 151.683,-21.496 L 155.878,-23.7 L 156.066,-28.435 L 152.06,-30.966 L 147.865,-28.761 Z" transform=""/><path fill="#a9bc65" stroke="none" d="M 145.792,-23.9377 L 145.98,-28.6727 L 141.974,-31.2027 L 138.939,-29.6087 C 138.174,-28.0317 137.747,-26.4037 137.747,-24.8857 C 137.747,-24.6357 137.763,-24.3867 137.787,-24.1407 L 141.598,-21.7337 L 145.792,-23.9377 Z" transform=""/><path fill="#a9bc65" stroke="none" d="M 152.908,-36.5347 L 153.059,-32.3087 L 156.454,-29.7877 L 159.699,-31.4937 L 159.564,-35.2687 C 158.145,-36.2877 156.544,-37.0837 154.829,-37.5447 L 152.908,-36.5347 Z" transform=""/><path fill="#a9bc65" stroke="none" d="M 157.39,-23.0514 L 161.396,-20.5214 L 165.416,-22.6334 C 165.501,-22.9194 165.569,-23.2104 165.622,-23.5054 L 165.707,-25.6494 C 165.641,-26.3524 165.486,-27.0724 165.25,-27.7944 L 161.773,-29.9914 L 157.578,-27.7864 L 157.39,-23.0514 Z" transform=""/><path fill="#a9bc65" stroke="none" d="M 142.14,-31.625 L 145.683,-29.362 L 150.215,-31.81 L 151.204,-36.522 L 149.257,-37.766 C 146.797,-37.297 144.573,-36.11 142.751,-34.535 L 142.14,-31.625 Z" transform=""/><path fill="#a9bc65" stroke="none" d="M 161.651,-33.4897 L 161.584,-31.8097 L 164.19,-30.1637 C 163.523,-31.3367 162.665,-32.4687 161.651,-33.4897 Z" transform=""/><path fill="#a9bc65" stroke="none" d="M 159.866,-16.4062 L 159.972,-19.0712 L 155.965,-21.6012 L 151.771,-19.3962 L 151.582,-14.6622 L 151.876,-14.4762 C 154.855,-14.4972 157.609,-15.2092 159.866,-16.4062 Z" transform=""/><path fill="#a9bc65" stroke="none" d="M 150.519,-15.3193 L 150.707,-20.0543 L 146.701,-22.5843 L 142.506,-20.3803 L 142.378,-17.1503 C 144.268,-15.8833 146.626,-14.9963 149.235,-14.6453 L 150.519,-15.3193 Z" transform=""/><path fill="#a9bc65" stroke="none" d="M 164.891,-21.2915 L 161.287,-19.3975 L 161.2,-17.2065 C 162.833,-18.3185 164.111,-19.7155 164.891,-21.2915 Z" transform=""/><path fill="#a9bc65" stroke="none" d="M 141.085,-18.1416 L 141.183,-20.6056 L 138.105,-22.5496 C 138.615,-20.8946 139.654,-19.3906 141.085,-18.1416 Z" transform=""/><path fill="#a9bc65" stroke="none" d="M 142.654,-27.4033 S 144.766,-28.6463 146.874,-28.4963 C 148.343,-28.3913 150.063,-28.1243 151.525,-26.7103 C 153.515,-24.7863 153.986,-21.6113 154.011,-19.9863 C 154.075,-15.6933 151.208,-12.9763 146.761,-13.0803 C 142.378,-13.1823 138.846,-16.0463 139.14,-20.3243 C 139.307,-22.7633 140.095,-25.9083 142.654,-27.4033 Z" style="opacity: 0.7" opacity="0.7" transform=""/><path fill="#d0e285" stroke="none" d="M 135.845,-18.4682 S 136.608,-20.5192 138.128,-21.6192 C 139.188,-22.3872 140.507,-23.1872 142.276,-23.0602 C 144.684,-22.8882 140.911,-19.7582 142.901,-16.3192 C 145.142,-12.4452 149.553,-13.5442 146.463,-11.0762 C 143.416,-8.64323 139.443,-8.57523 137.31,-11.6502 C 136.093,-13.4032 134.914,-15.9912 135.845,-18.4682 Z" transform=""/><path fill="#d0e285" stroke="none" d="M 135.21,-32.0629 S 137.322,-33.3059 139.43,-33.1559 C 140.899,-33.0509 142.619,-32.7839 144.081,-31.3699 C 146.071,-29.4459 146.542,-26.2709 146.567,-24.6459 C 146.631,-20.3529 143.764,-17.6359 139.317,-17.7399 C 134.934,-17.8419 131.402,-20.7059 131.696,-24.9839 C 131.863,-27.4229 132.651,-30.5679 135.21,-32.0629 Z" transform=""/><ellipse cx="140.95559471394216" cy="-25.03030717475026" rx="0.5554926697127447" ry="0.7721206522090487" fill="#304454" stroke="none" transform="rotate(188.8934 140.95559470819776 -25.030307251266017)" r="NaN"/><ellipse cx="134.46336283373967" cy="-26.392844858964704" rx="0.5554926697127447" ry="0.7721206522090487" fill="#304454" stroke="none" transform="rotate(188.8934 134.46336262275298 -26.392845345964993)" r="NaN"/><ellipse cx="137.51078501979853" cy="-21.67233757588535" rx="1.5475449991402632" ry="1.3833041758097322" fill="#c75e72" stroke="none" r="NaN" transform=""/><ellipse cx="136.2591565873682" cy="-23.055641636471357" rx="2.39753845551465" ry="1.6225860649723165" fill="#d0e285" stroke="none" r="NaN" transform=""/></svg>