<svg xmlns="http://www.w3.org/2000/svg" version="1.1" width="400" height="40" viewBox="0 0 400 40"><defs/><path fill="#d78334" stroke="none" d="M 21.9098,23.0448 C 17.7538,28.8308 5.23382,39.1788 4.71782,38.7428 C 3.79682,37.9638 10.1888,22.0598 14.3448,16.2738 S 19.2568,11.9818 22.2518,13.9448 C 24.9898,15.7408 26.0648,17.2588 21.9098,23.0448 Z" transform=""/><path fill="#f4953f" stroke="none" d="M 22.4272,13.8453 C 19.2752,11.8563 18.4792,10.3443 14.1052,16.2053 C 13.7532,16.6763 13.3842,17.2213 13.0072,17.8123 C 13.7902,21.0793 16.8262,23.5183 20.4592,23.5183 C 20.9202,23.5183 21.3702,23.4723 21.8092,23.3963 C 21.8962,23.2853 21.9862,23.1713 22.0672,23.0633 C 26.4412,17.2023 25.3092,15.6633 22.4272,13.8453 Z" transform=""/><path fill="#f4953f" stroke="none" d="M 7.74031,28.3535 C 5.21331,33.9405 3.22531,39.5445 3.75231,39.9875 C 4.06431,40.2495 8.99831,36.3855 13.5633,32.1345 C 11.0093,32.0045 8.82531,30.5045 7.74031,28.3535 Z" transform=""/><path fill="#f4953f" stroke="none" d="M 21.0262,24.4152 C 20.6052,24.4892 20.1732,24.5342 19.7302,24.5342 C 16.2432,24.5342 13.3292,22.1452 12.5772,18.9442 C 11.1452,21.2332 9.56417,24.3332 8.14317,27.4392 C 9.29517,29.6992 11.6172,31.2762 14.3312,31.4122 C 16.9592,28.9922 19.4722,26.4512 21.0262,24.4152 Z" transform=""/><path fill="#d78334" stroke="none" d="M 22.5109,14.4884 C 21.0059,13.3034 20.4679,12.3134 18.7609,13.4294 C 18.4109,14.6314 19.0039,16.1554 20.3189,17.1574 C 21.3169,17.9194 22.4949,18.2004 23.4719,18.0054 C 24.2069,16.4954 23.7859,15.4924 22.5109,14.4884 Z" transform=""/><path fill="#64c4ad" stroke="none" d="M 36.2513,8.91118 C 36.8673,7.77918 33.9113,6.53018 30.6823,7.17018 C 29.0773,7.48818 27.7223,8.24818 26.7643,8.93218 C 26.4043,9.06518 26.0603,9.23518 25.7303,9.43518 C 27.4883,6.79518 31.0763,0.985183 29.2233,0.0821832 C 27.1913,-0.908817 25.4663,7.35418 24.9763,9.96418 C 24.9483,9.98718 24.9193,10.0092 24.8913,10.0322 C 24.9993,9.35718 25.4993,5.51418 23.3453,3.11218 C 21.4883,1.04018 19.3853,0.547183 18.9043,1.79018 C 18.4233,3.02918 21.2753,3.40118 22.7743,4.92118 C 24.7333,6.90718 24.8653,9.53318 24.8723,10.0492 C 24.8573,10.0612 24.8433,10.0742 24.8293,10.0872 C 24.7873,9.10118 24.5233,6.90518 23.0183,6.13718 C 20.8003,5.00618 17.9203,5.93118 17.3593,7.34818 C 17.0803,8.05318 17.9253,8.55318 19.2233,7.89318 C 20.5213,7.23418 21.4783,6.18118 23.1253,7.06318 C 24.0933,7.58218 24.5763,9.33618 24.7523,10.1532 C 22.9623,11.6982 21.7193,14.1142 20.9383,16.0762 C 21.0123,16.1072 21.0873,16.1372 21.1623,16.1672 C 21.7403,14.9742 22.5183,13.6022 23.5143,12.3432 C 26.4363,8.64618 28.9633,9.17318 30.4293,10.1392 C 31.9973,11.1742 31.1543,13.2982 31.7803,14.3472 C 32.4053,15.3962 33.1963,15.0842 33.4883,14.3502 C 33.9093,13.2942 33.1743,9.05318 29.4763,8.61218 C 29.8183,8.55218 30.1733,8.50718 30.5373,8.48218 C 33.4373,8.28618 35.6553,10.0102 36.2513,8.91118 Z" transform=""/><path fill="#d78334" stroke="none" d="M 61.9098,23.0448 C 57.7538,28.8308 45.2338,39.1788 44.7178,38.7428 C 43.7968,37.9638 50.1888,22.0598 54.3448,16.2738 S 59.2568,11.9818 62.2518,13.9448 C 64.9898,15.7408 66.0648,17.2588 61.9098,23.0448 Z" transform=""/><path fill="#f4953f" stroke="none" d="M 62.4272,13.8453 C 59.2752,11.8563 58.4792,10.3443 54.1052,16.2053 C 53.7532,16.6763 53.3842,17.2213 53.0072,17.8123 C 53.7902,21.0793 56.8262,23.5183 60.4592,23.5183 C 60.9202,23.5183 61.3702,23.4723 61.8092,23.3963 C 61.8962,23.2853 61.9862,23.1713 62.0672,23.0633 C 66.4412,17.2023 65.3092,15.6633 62.4272,13.8453 Z" transform=""/><path fill="#f4953f" stroke="none" d="M 47.7403,28.3535 C 45.2133,33.9405 43.2253,39.5445 43.7523,39.9875 C 44.0643,40.2495 48.9983,36.3855 53.5633,32.1345 C 51.0093,32.0045 48.8253,30.5045 47.7403,28.3535 Z" transform=""/><path fill="#f4953f" stroke="none" d="M 61.0262,24.4152 C 60.6052,24.4892 60.1732,24.5342 59.7302,24.5342 C 56.2432,24.5342 53.3292,22.1452 52.5772,18.9442 C 51.1452,21.2332 49.5642,24.3332 48.1432,27.4392 C 49.2952,29.6992 51.6172,31.2762 54.3312,31.4122 C 56.9592,28.9922 59.4722,26.4512 61.0262,24.4152 Z" transform=""/><path fill="#d78334" stroke="none" d="M 62.5109,14.4884 C 61.0059,13.3034 60.4679,12.3134 58.7609,13.4294 C 58.4109,14.6314 59.0039,16.1554 60.3189,17.1574 C 61.3169,17.9194 62.4949,18.2004 63.4719,18.0054 C 64.2069,16.4954 63.7859,15.4924 62.5109,14.4884 Z" transform=""/><path fill="#64c4ad" stroke="none" d="M 76.2513,8.91118 C 76.8673,7.77918 73.9113,6.53018 70.6823,7.17018 C 69.0773,7.48818 67.7223,8.24818 66.7643,8.93218 C 66.4043,9.06518 66.0603,9.23518 65.7303,9.43518 C 67.4883,6.79518 71.0763,0.985183 69.2233,0.0821832 C 67.1913,-0.908817 65.4663,7.35418 64.9763,9.96418 C 64.9483,9.98718 64.9193,10.0092 64.8913,10.0322 C 64.9993,9.35718 65.4993,5.51418 63.3453,3.11218 C 61.4883,1.04018 59.3853,0.547183 58.9043,1.79018 C 58.4233,3.02918 61.2753,3.40118 62.7743,4.92118 C 64.7333,6.90718 64.8653,9.53318 64.8723,10.0492 C 64.8573,10.0612 64.8433,10.0742 64.8293,10.0872 C 64.7873,9.10118 64.5233,6.90518 63.0183,6.13718 C 60.8003,5.00618 57.9203,5.93118 57.3593,7.34818 C 57.0803,8.05318 57.9253,8.55318 59.2233,7.89318 C 60.5213,7.23418 61.4783,6.18118 63.1253,7.06318 C 64.0933,7.58218 64.5763,9.33618 64.7523,10.1532 C 62.9623,11.6982 61.7193,14.1142 60.9383,16.0762 C 61.0123,16.1072 61.0873,16.1372 61.1623,16.1672 C 61.7403,14.9742 62.5183,13.6022 63.5143,12.3432 C 66.4363,8.64618 68.9633,9.17318 70.4293,10.1392 C 71.9973,11.1742 71.1543,13.2982 71.7803,14.3472 C 72.4053,15.3962 73.1963,15.0842 73.4883,14.3502 C 73.9093,13.2942 73.1743,9.05318 69.4763,8.61218 C 69.8183,8.55218 70.1733,8.50718 70.5373,8.48218 C 73.4373,8.28618 75.6553,10.0102 76.2513,8.91118 Z" transform=""/><path fill="#d78334" stroke="none" d="M 101.91,23.0448 C 97.7538,28.8308 85.2338,39.1788 84.7178,38.7428 C 83.7968,37.9638 90.1888,22.0598 94.3448,16.2738 S 99.2568,11.9818 102.252,13.9448 C 104.99,15.7408 106.065,17.2588 101.91,23.0448 Z" transform=""/><path fill="#f4953f" stroke="none" d="M 102.427,13.8453 C 99.2752,11.8563 98.4792,10.3443 94.1052,16.2053 C 93.7532,16.6763 93.3842,17.2213 93.0072,17.8123 C 93.7902,21.0793 96.8262,23.5183 100.459,23.5183 C 100.92,23.5183 101.37,23.4723 101.809,23.3963 C 101.896,23.2853 101.986,23.1713 102.067,23.0633 C 106.441,17.2023 105.309,15.6633 102.427,13.8453 Z" transform=""/><path fill="#f4953f" stroke="none" d="M 87.7403,28.3535 C 85.2133,33.9405 83.2253,39.5445 83.7523,39.9875 C 84.0643,40.2495 88.9983,36.3855 93.5633,32.1345 C 91.0093,32.0045 88.8253,30.5045 87.7403,28.3535 Z" transform=""/><path fill="#f4953f" stroke="none" d="M 101.026,24.4152 C 100.605,24.4892 100.173,24.5342 99.7302,24.5342 C 96.2432,24.5342 93.3292,22.1452 92.5772,18.9442 C 91.1452,21.2332 89.5642,24.3332 88.1432,27.4392 C 89.2952,29.6992 91.6172,31.2762 94.3312,31.4122 C 96.9592,28.9922 99.4722,26.4512 101.026,24.4152 Z" transform=""/><path fill="#d78334" stroke="none" d="M 102.511,14.4884 C 101.006,13.3034 100.468,12.3134 98.7609,13.4294 C 98.4109,14.6314 99.0039,16.1554 100.319,17.1574 C 101.317,17.9194 102.495,18.2004 103.472,18.0054 C 104.207,16.4954 103.786,15.4924 102.511,14.4884 Z" transform=""/><path fill="#64c4ad" stroke="none" d="M 116.251,8.91118 C 116.867,7.77918 113.911,6.53018 110.682,7.17018 C 109.077,7.48818 107.722,8.24818 106.764,8.93218 C 106.404,9.06518 106.06,9.23518 105.73,9.43518 C 107.488,6.79518 111.076,0.985183 109.223,0.0821832 C 107.191,-0.908817 105.466,7.35418 104.976,9.96418 C 104.948,9.98718 104.919,10.0092 104.891,10.0322 C 104.999,9.35718 105.499,5.51418 103.345,3.11218 C 101.488,1.04018 99.3853,0.547183 98.9043,1.79018 C 98.4233,3.02918 101.275,3.40118 102.774,4.92118 C 104.733,6.90718 104.865,9.53318 104.872,10.0492 C 104.857,10.0612 104.843,10.0742 104.829,10.0872 C 104.787,9.10118 104.523,6.90518 103.018,6.13718 C 100.8,5.00618 97.9203,5.93118 97.3593,7.34818 C 97.0803,8.05318 97.9253,8.55318 99.2233,7.89318 C 100.521,7.23418 101.478,6.18118 103.125,7.06318 C 104.093,7.58218 104.576,9.33618 104.752,10.1532 C 102.962,11.6982 101.719,14.1142 100.938,16.0762 C 101.012,16.1072 101.087,16.1372 101.162,16.1672 C 101.74,14.9742 102.518,13.6022 103.514,12.3432 C 106.436,8.64618 108.963,9.17318 110.429,10.1392 C 111.997,11.1742 111.154,13.2982 111.78,14.3472 C 112.405,15.3962 113.196,15.0842 113.488,14.3502 C 113.909,13.2942 113.174,9.05318 109.476,8.61218 C 109.818,8.55218 110.173,8.50718 110.537,8.48218 C 113.437,8.28618 115.655,10.0102 116.251,8.91118 Z" transform=""/><path fill="#d78334" stroke="none" d="M 141.91,23.0448 C 137.754,28.8308 125.234,39.1788 124.718,38.7428 C 123.797,37.9638 130.189,22.0598 134.345,16.2738 S 139.257,11.9818 142.252,13.9448 C 144.99,15.7408 146.065,17.2588 141.91,23.0448 Z" transform=""/><path fill="#f4953f" stroke="none" d="M 142.427,13.8453 C 139.275,11.8563 138.479,10.3443 134.105,16.2053 C 133.753,16.6763 133.384,17.2213 133.007,17.8123 C 133.79,21.0793 136.826,23.5183 140.459,23.5183 C 140.92,23.5183 141.37,23.4723 141.809,23.3963 C 141.896,23.2853 141.986,23.1713 142.067,23.0633 C 146.441,17.2023 145.309,15.6633 142.427,13.8453 Z" transform=""/><path fill="#f4953f" stroke="none" d="M 127.74,28.3535 C 125.213,33.9405 123.225,39.5445 123.752,39.9875 C 124.064,40.2495 128.998,36.3855 133.563,32.1345 C 131.009,32.0045 128.825,30.5045 127.74,28.3535 Z" transform=""/><path fill="#f4953f" stroke="none" d="M 141.026,24.4152 C 140.605,24.4892 140.173,24.5342 139.73,24.5342 C 136.243,24.5342 133.329,22.1452 132.577,18.9442 C 131.145,21.2332 129.564,24.3332 128.143,27.4392 C 129.295,29.6992 131.617,31.2762 134.331,31.4122 C 136.959,28.9922 139.472,26.4512 141.026,24.4152 Z" transform=""/><path fill="#d78334" stroke="none" d="M 142.511,14.4884 C 141.006,13.3034 140.468,12.3134 138.761,13.4294 C 138.411,14.6314 139.004,16.1554 140.319,17.1574 C 141.317,17.9194 142.495,18.2004 143.472,18.0054 C 144.207,16.4954 143.786,15.4924 142.511,14.4884 Z" transform=""/><path fill="#64c4ad" stroke="none" d="M 156.251,8.91118 C 156.867,7.77918 153.911,6.53018 150.682,7.17018 C 149.077,7.48818 147.722,8.24818 146.764,8.93218 C 146.404,9.06518 146.06,9.23518 145.73,9.43518 C 147.488,6.79518 151.076,0.985183 149.223,0.0821832 C 147.191,-0.908817 145.466,7.35418 144.976,9.96418 C 144.948,9.98718 144.919,10.0092 144.891,10.0322 C 144.999,9.35718 145.499,5.51418 143.345,3.11218 C 141.488,1.04018 139.385,0.547183 138.904,1.79018 C 138.423,3.02918 141.275,3.40118 142.774,4.92118 C 144.733,6.90718 144.865,9.53318 144.872,10.0492 C 144.857,10.0612 144.843,10.0742 144.829,10.0872 C 144.787,9.10118 144.523,6.90518 143.018,6.13718 C 140.8,5.00618 137.92,5.93118 137.359,7.34818 C 137.08,8.05318 137.925,8.55318 139.223,7.89318 C 140.521,7.23418 141.478,6.18118 143.125,7.06318 C 144.093,7.58218 144.576,9.33618 144.752,10.1532 C 142.962,11.6982 141.719,14.1142 140.938,16.0762 C 141.012,16.1072 141.087,16.1372 141.162,16.1672 C 141.74,14.9742 142.518,13.6022 143.514,12.3432 C 146.436,8.64618 148.963,9.17318 150.429,10.1392 C 151.997,11.1742 151.154,13.2982 151.78,14.3472 C 152.405,15.3962 153.196,15.0842 153.488,14.3502 C 153.909,13.2942 153.174,9.05318 149.476,8.61218 C 149.818,8.55218 150.173,8.50718 150.537,8.48218 C 153.437,8.28618 155.655,10.0102 156.251,8.91118 Z" transform=""/><path fill="#d78334" stroke="none" d="M 181.91,23.0448 C 177.754,28.8308 165.234,39.1788 164.718,38.7428 C 163.797,37.9638 170.189,22.0598 174.345,16.2738 S 179.257,11.9818 182.252,13.9448 C 184.99,15.7408 186.065,17.2588 181.91,23.0448 Z" transform=""/><path fill="#f4953f" stroke="none" d="M 182.427,13.8453 C 179.275,11.8563 178.479,10.3443 174.105,16.2053 C 173.753,16.6763 173.384,17.2213 173.007,17.8123 C 173.79,21.0793 176.826,23.5183 180.459,23.5183 C 180.92,23.5183 181.37,23.4723 181.809,23.3963 C 181.896,23.2853 181.986,23.1713 182.067,23.0633 C 186.441,17.2023 185.309,15.6633 182.427,13.8453 Z" transform=""/><path fill="#f4953f" stroke="none" d="M 167.74,28.3535 C 165.213,33.9405 163.225,39.5445 163.752,39.9875 C 164.064,40.2495 168.998,36.3855 173.563,32.1345 C 171.009,32.0045 168.825,30.5045 167.74,28.3535 Z" transform=""/><path fill="#f4953f" stroke="none" d="M 181.026,24.4152 C 180.605,24.4892 180.173,24.5342 179.73,24.5342 C 176.243,24.5342 173.329,22.1452 172.577,18.9442 C 171.145,21.2332 169.564,24.3332 168.143,27.4392 C 169.295,29.6992 171.617,31.2762 174.331,31.4122 C 176.959,28.9922 179.472,26.4512 181.026,24.4152 Z" transform=""/><path fill="#d78334" stroke="none" d="M 182.511,14.4884 C 181.006,13.3034 180.468,12.3134 178.761,13.4294 C 178.411,14.6314 179.004,16.1554 180.319,17.1574 C 181.317,17.9194 182.495,18.2004 183.472,18.0054 C 184.207,16.4954 183.786,15.4924 182.511,14.4884 Z" transform=""/><path fill="#64c4ad" stroke="none" d="M 196.251,8.91118 C 196.867,7.77918 193.911,6.53018 190.682,7.17018 C 189.077,7.48818 187.722,8.24818 186.764,8.93218 C 186.404,9.06518 186.06,9.23518 185.73,9.43518 C 187.488,6.79518 191.076,0.985183 189.223,0.0821832 C 187.191,-0.908817 185.466,7.35418 184.976,9.96418 C 184.948,9.98718 184.919,10.0092 184.891,10.0322 C 184.999,9.35718 185.499,5.51418 183.345,3.11218 C 181.488,1.04018 179.385,0.547183 178.904,1.79018 C 178.423,3.02918 181.275,3.40118 182.774,4.92118 C 184.733,6.90718 184.865,9.53318 184.872,10.0492 C 184.857,10.0612 184.843,10.0742 184.829,10.0872 C 184.787,9.10118 184.523,6.90518 183.018,6.13718 C 180.8,5.00618 177.92,5.93118 177.359,7.34818 C 177.08,8.05318 177.925,8.55318 179.223,7.89318 C 180.521,7.23418 181.478,6.18118 183.125,7.06318 C 184.093,7.58218 184.576,9.33618 184.752,10.1532 C 182.962,11.6982 181.719,14.1142 180.938,16.0762 C 181.012,16.1072 181.087,16.1372 181.162,16.1672 C 181.74,14.9742 182.518,13.6022 183.514,12.3432 C 186.436,8.64618 188.963,9.17318 190.429,10.1392 C 191.997,11.1742 191.154,13.2982 191.78,14.3472 C 192.405,15.3962 193.196,15.0842 193.488,14.3502 C 193.909,13.2942 193.174,9.05318 189.476,8.61218 C 189.818,8.55218 190.173,8.50718 190.537,8.48218 C 193.437,8.28618 195.655,10.0102 196.251,8.91118 Z" transform=""/><path fill="#d78334" stroke="none" d="M 221.91,23.0448 C 217.754,28.8308 205.234,39.1788 204.718,38.7428 C 203.797,37.9638 210.189,22.0598 214.345,16.2738 S 219.257,11.9818 222.252,13.9448 C 224.99,15.7408 226.065,17.2588 221.91,23.0448 Z" transform=""/><path fill="#f4953f" stroke="none" d="M 222.427,13.8453 C 219.275,11.8563 218.479,10.3443 214.105,16.2053 C 213.753,16.6763 213.384,17.2213 213.007,17.8123 C 213.79,21.0793 216.826,23.5183 220.459,23.5183 C 220.92,23.5183 221.37,23.4723 221.809,23.3963 C 221.896,23.2853 221.986,23.1713 222.067,23.0633 C 226.441,17.2023 225.309,15.6633 222.427,13.8453 Z" transform=""/><path fill="#f4953f" stroke="none" d="M 207.74,28.3535 C 205.213,33.9405 203.225,39.5445 203.752,39.9875 C 204.064,40.2495 208.998,36.3855 213.563,32.1345 C 211.009,32.0045 208.825,30.5045 207.74,28.3535 Z" transform=""/><path fill="#f4953f" stroke="none" d="M 221.026,24.4152 C 220.605,24.4892 220.173,24.5342 219.73,24.5342 C 216.243,24.5342 213.329,22.1452 212.577,18.9442 C 211.145,21.2332 209.564,24.3332 208.143,27.4392 C 209.295,29.6992 211.617,31.2762 214.331,31.4122 C 216.959,28.9922 219.472,26.4512 221.026,24.4152 Z" transform=""/><path fill="#d78334" stroke="none" d="M 222.511,14.4884 C 221.006,13.3034 220.468,12.3134 218.761,13.4294 C 218.411,14.6314 219.004,16.1554 220.319,17.1574 C 221.317,17.9194 222.495,18.2004 223.472,18.0054 C 224.207,16.4954 223.786,15.4924 222.511,14.4884 Z" transform=""/><path fill="#64c4ad" stroke="none" d="M 236.251,8.91118 C 236.867,7.77918 233.911,6.53018 230.682,7.17018 C 229.077,7.48818 227.722,8.24818 226.764,8.93218 C 226.404,9.06518 226.06,9.23518 225.73,9.43518 C 227.488,6.79518 231.076,0.985183 229.223,0.0821832 C 227.191,-0.908817 225.466,7.35418 224.976,9.96418 C 224.948,9.98718 224.919,10.0092 224.891,10.0322 C 224.999,9.35718 225.499,5.51418 223.345,3.11218 C 221.488,1.04018 219.385,0.547183 218.904,1.79018 C 218.423,3.02918 221.275,3.40118 222.774,4.92118 C 224.733,6.90718 224.865,9.53318 224.872,10.0492 C 224.857,10.0612 224.843,10.0742 224.829,10.0872 C 224.787,9.10118 224.523,6.90518 223.018,6.13718 C 220.8,5.00618 217.92,5.93118 217.359,7.34818 C 217.08,8.05318 217.925,8.55318 219.223,7.89318 C 220.521,7.23418 221.478,6.18118 223.125,7.06318 C 224.093,7.58218 224.576,9.33618 224.752,10.1532 C 222.962,11.6982 221.719,14.1142 220.938,16.0762 C 221.012,16.1072 221.087,16.1372 221.162,16.1672 C 221.74,14.9742 222.518,13.6022 223.514,12.3432 C 226.436,8.64618 228.963,9.17318 230.429,10.1392 C 231.997,11.1742 231.154,13.2982 231.78,14.3472 C 232.405,15.3962 233.196,15.0842 233.488,14.3502 C 233.909,13.2942 233.174,9.05318 229.476,8.61218 C 229.818,8.55218 230.173,8.50718 230.537,8.48218 C 233.437,8.28618 235.655,10.0102 236.251,8.91118 Z" transform=""/><path fill="#d78334" stroke="none" d="M 261.91,23.0448 C 257.754,28.8308 245.234,39.1788 244.718,38.7428 C 243.797,37.9638 250.189,22.0598 254.345,16.2738 S 259.257,11.9818 262.252,13.9448 C 264.99,15.7408 266.065,17.2588 261.91,23.0448 Z" transform=""/><path fill="#f4953f" stroke="none" d="M 262.427,13.8453 C 259.275,11.8563 258.479,10.3443 254.105,16.2053 C 253.753,16.6763 253.384,17.2213 253.007,17.8123 C 253.79,21.0793 256.826,23.5183 260.459,23.5183 C 260.92,23.5183 261.37,23.4723 261.809,23.3963 C 261.896,23.2853 261.986,23.1713 262.067,23.0633 C 266.441,17.2023 265.309,15.6633 262.427,13.8453 Z" transform=""/><path fill="#f4953f" stroke="none" d="M 247.74,28.3535 C 245.213,33.9405 243.225,39.5445 243.752,39.9875 C 244.064,40.2495 248.998,36.3855 253.563,32.1345 C 251.009,32.0045 248.825,30.5045 247.74,28.3535 Z" transform=""/><path fill="#f4953f" stroke="none" d="M 261.026,24.4152 C 260.605,24.4892 260.173,24.5342 259.73,24.5342 C 256.243,24.5342 253.329,22.1452 252.577,18.9442 C 251.145,21.2332 249.564,24.3332 248.143,27.4392 C 249.295,29.6992 251.617,31.2762 254.331,31.4122 C 256.959,28.9922 259.472,26.4512 261.026,24.4152 Z" transform=""/><path fill="#d78334" stroke="none" d="M 262.511,14.4884 C 261.006,13.3034 260.468,12.3134 258.761,13.4294 C 258.411,14.6314 259.004,16.1554 260.319,17.1574 C 261.317,17.9194 262.495,18.2004 263.472,18.0054 C 264.207,16.4954 263.786,15.4924 262.511,14.4884 Z" transform=""/><path fill="#64c4ad" stroke="none" d="M 276.251,8.91118 C 276.867,7.77918 273.911,6.53018 270.682,7.17018 C 269.077,7.48818 267.722,8.24818 266.764,8.93218 C 266.404,9.06518 266.06,9.23518 265.73,9.43518 C 267.488,6.79518 271.076,0.985183 269.223,0.0821832 C 267.191,-0.908817 265.466,7.35418 264.976,9.96418 C 264.948,9.98718 264.919,10.0092 264.891,10.0322 C 264.999,9.35718 265.499,5.51418 263.345,3.11218 C 261.488,1.04018 259.385,0.547183 258.904,1.79018 C 258.423,3.02918 261.275,3.40118 262.774,4.92118 C 264.733,6.90718 264.865,9.53318 264.872,10.0492 C 264.857,10.0612 264.843,10.0742 264.829,10.0872 C 264.787,9.10118 264.523,6.90518 263.018,6.13718 C 260.8,5.00618 257.92,5.93118 257.359,7.34818 C 257.08,8.05318 257.925,8.55318 259.223,7.89318 C 260.521,7.23418 261.478,6.18118 263.125,7.06318 C 264.093,7.58218 264.576,9.33618 264.752,10.1532 C 262.962,11.6982 261.719,14.1142 260.938,16.0762 C 261.012,16.1072 261.087,16.1372 261.162,16.1672 C 261.74,14.9742 262.518,13.6022 263.514,12.3432 C 266.436,8.64618 268.963,9.17318 270.429,10.1392 C 271.997,11.1742 271.154,13.2982 271.78,14.3472 C 272.405,15.3962 273.196,15.0842 273.488,14.3502 C 273.909,13.2942 273.174,9.05318 269.476,8.61218 C 269.818,8.55218 270.173,8.50718 270.537,8.48218 C 273.437,8.28618 275.655,10.0102 276.251,8.91118 Z" transform=""/><path fill="#d78334" stroke="none" d="M 21.9098,-16.9552 C 17.7538,-11.1692 5.23382,-0.821155 4.71782,-1.25716 C 3.79682,-2.03616 10.1888,-17.9402 14.3448,-23.7262 S 19.2568,-28.0182 22.2518,-26.0552 C 24.9898,-24.2592 26.0648,-22.7412 21.9098,-16.9552 Z" transform=""/><path fill="#f4953f" stroke="none" d="M 22.4272,-26.1547 C 19.2752,-28.1437 18.4792,-29.6557 14.1052,-23.7947 C 13.7532,-23.3237 13.3842,-22.7787 13.0072,-22.1877 C 13.7902,-18.9207 16.8262,-16.4817 20.4592,-16.4817 C 20.9202,-16.4817 21.3702,-16.5277 21.8092,-16.6037 C 21.8962,-16.7147 21.9862,-16.8287 22.0672,-16.9367 C 26.4412,-22.7977 25.3092,-24.3367 22.4272,-26.1547 Z" transform=""/><path fill="#f4953f" stroke="none" d="M 7.74031,-11.6465 C 5.21331,-6.05953 3.22531,-0.455526 3.75231,-0.0125258 C 4.06431,0.249474 8.99831,-3.61453 13.5633,-7.86553 C 11.0093,-7.99553 8.82531,-9.49553 7.74031,-11.6465 Z" transform=""/><path fill="#f4953f" stroke="none" d="M 21.0262,-15.5848 C 20.6052,-15.5108 20.1732,-15.4658 19.7302,-15.4658 C 16.2432,-15.4658 13.3292,-17.8548 12.5772,-21.0558 C 11.1452,-18.7668 9.56417,-15.6668 8.14317,-12.5608 C 9.29517,-10.3008 11.6172,-8.72375 14.3312,-8.58775 C 16.9592,-11.0078 19.4722,-13.5488 21.0262,-15.5848 Z" transform=""/><path fill="#d78334" stroke="none" d="M 22.5109,-25.5116 C 21.0059,-26.6966 20.4679,-27.6866 18.7609,-26.5706 C 18.4109,-25.3686 19.0039,-23.8446 20.3189,-22.8426 C 21.3169,-22.0806 22.4949,-21.7996 23.4719,-21.9946 C 24.2069,-23.5046 23.7859,-24.5076 22.5109,-25.5116 Z" transform=""/><path fill="#64c4ad" stroke="none" d="M 36.2513,-31.0888 C 36.8673,-32.2208 33.9113,-33.4698 30.6823,-32.8298 C 29.0773,-32.5118 27.7223,-31.7518 26.7643,-31.0678 C 26.4043,-30.9348 26.0603,-30.7648 25.7303,-30.5648 C 27.4883,-33.2048 31.0763,-39.0148 29.2233,-39.9178 C 27.1913,-40.9088 25.4663,-32.6458 24.9763,-30.0358 C 24.9483,-30.0128 24.9193,-29.9908 24.8913,-29.9678 C 24.9993,-30.6428 25.4993,-34.4858 23.3453,-36.8878 C 21.4883,-38.9598 19.3853,-39.4528 18.9043,-38.2098 C 18.4233,-36.9708 21.2753,-36.5988 22.7743,-35.0788 C 24.7333,-33.0928 24.8653,-30.4668 24.8723,-29.9508 C 24.8573,-29.9388 24.8433,-29.9258 24.8293,-29.9128 C 24.7873,-30.8988 24.5233,-33.0948 23.0183,-33.8628 C 20.8003,-34.9938 17.9203,-34.0688 17.3593,-32.6518 C 17.0803,-31.9468 17.9253,-31.4468 19.2233,-32.1068 C 20.5213,-32.7658 21.4783,-33.8188 23.1253,-32.9368 C 24.0933,-32.4178 24.5763,-30.6638 24.7523,-29.8468 C 22.9623,-28.3018 21.7193,-25.8858 20.9383,-23.9238 C 21.0123,-23.8928 21.0873,-23.8628 21.1623,-23.8328 C 21.7403,-25.0258 22.5183,-26.3978 23.5143,-27.6568 C 26.4363,-31.3538 28.9633,-30.8268 30.4293,-29.8608 C 31.9973,-28.8258 31.1543,-26.7018 31.7803,-25.6528 C 32.4053,-24.6038 33.1963,-24.9158 33.4883,-25.6498 C 33.9093,-26.7058 33.1743,-30.9468 29.4763,-31.3878 C 29.8183,-31.4478 30.1733,-31.4928 30.5373,-31.5178 C 33.4373,-31.7138 35.6553,-29.9898 36.2513,-31.0888 Z" transform=""/><path fill="#d78334" stroke="none" d="M 61.9098,-16.9552 C 57.7538,-11.1692 45.2338,-0.821155 44.7178,-1.25716 C 43.7968,-2.03616 50.1888,-17.9402 54.3448,-23.7262 S 59.2568,-28.0182 62.2518,-26.0552 C 64.9898,-24.2592 66.0648,-22.7412 61.9098,-16.9552 Z" transform=""/><path fill="#f4953f" stroke="none" d="M 62.4272,-26.1547 C 59.2752,-28.1437 58.4792,-29.6557 54.1052,-23.7947 C 53.7532,-23.3237 53.3842,-22.7787 53.0072,-22.1877 C 53.7902,-18.9207 56.8262,-16.4817 60.4592,-16.4817 C 60.9202,-16.4817 61.3702,-16.5277 61.8092,-16.6037 C 61.8962,-16.7147 61.9862,-16.8287 62.0672,-16.9367 C 66.4412,-22.7977 65.3092,-24.3367 62.4272,-26.1547 Z" transform=""/><path fill="#f4953f" stroke="none" d="M 47.7403,-11.6465 C 45.2133,-6.05953 43.2253,-0.455526 43.7523,-0.0125258 C 44.0643,0.249474 48.9983,-3.61453 53.5633,-7.86553 C 51.0093,-7.99553 48.8253,-9.49553 47.7403,-11.6465 Z" transform=""/><path fill="#f4953f" stroke="none" d="M 61.0262,-15.5848 C 60.6052,-15.5108 60.1732,-15.4658 59.7302,-15.4658 C 56.2432,-15.4658 53.3292,-17.8548 52.5772,-21.0558 C 51.1452,-18.7668 49.5642,-15.6668 48.1432,-12.5608 C 49.2952,-10.3008 51.6172,-8.72375 54.3312,-8.58775 C 56.9592,-11.0078 59.4722,-13.5488 61.0262,-15.5848 Z" transform=""/><path fill="#d78334" stroke="none" d="M 62.5109,-25.5116 C 61.0059,-26.6966 60.4679,-27.6866 58.7609,-26.5706 C 58.4109,-25.3686 59.0039,-23.8446 60.3189,-22.8426 C 61.3169,-22.0806 62.4949,-21.7996 63.4719,-21.9946 C 64.2069,-23.5046 63.7859,-24.5076 62.5109,-25.5116 Z" transform=""/><path fill="#64c4ad" stroke="none" d="M 76.2513,-31.0888 C 76.8673,-32.2208 73.9113,-33.4698 70.6823,-32.8298 C 69.0773,-32.5118 67.7223,-31.7518 66.7643,-31.0678 C 66.4043,-30.9348 66.0603,-30.7648 65.7303,-30.5648 C 67.4883,-33.2048 71.0763,-39.0148 69.2233,-39.9178 C 67.1913,-40.9088 65.4663,-32.6458 64.9763,-30.0358 C 64.9483,-30.0128 64.9193,-29.9908 64.8913,-29.9678 C 64.9993,-30.6428 65.4993,-34.4858 63.3453,-36.8878 C 61.4883,-38.9598 59.3853,-39.4528 58.9043,-38.2098 C 58.4233,-36.9708 61.2753,-36.5988 62.7743,-35.0788 C 64.7333,-33.0928 64.8653,-30.4668 64.8723,-29.9508 C 64.8573,-29.9388 64.8433,-29.9258 64.8293,-29.9128 C 64.7873,-30.8988 64.5233,-33.0948 63.0183,-33.8628 C 60.8003,-34.9938 57.9203,-34.0688 57.3593,-32.6518 C 57.0803,-31.9468 57.9253,-31.4468 59.2233,-32.1068 C 60.5213,-32.7658 61.4783,-33.8188 63.1253,-32.9368 C 64.0933,-32.4178 64.5763,-30.6638 64.7523,-29.8468 C 62.9623,-28.3018 61.7193,-25.8858 60.9383,-23.9238 C 61.0123,-23.8928 61.0873,-23.8628 61.1623,-23.8328 C 61.7403,-25.0258 62.5183,-26.3978 63.5143,-27.6568 C 66.4363,-31.3538 68.9633,-30.8268 70.4293,-29.8608 C 71.9973,-28.8258 71.1543,-26.7018 71.7803,-25.6528 C 72.4053,-24.6038 73.1963,-24.9158 73.4883,-25.6498 C 73.9093,-26.7058 73.1743,-30.9468 69.4763,-31.3878 C 69.8183,-31.4478 70.1733,-31.4928 70.5373,-31.5178 C 73.4373,-31.7138 75.6553,-29.9898 76.2513,-31.0888 Z" transform=""/><path fill="#d78334" stroke="none" d="M 101.91,-16.9552 C 97.7538,-11.1692 85.2338,-0.821155 84.7178,-1.25716 C 83.7968,-2.03616 90.1888,-17.9402 94.3448,-23.7262 S 99.2568,-28.0182 102.252,-26.0552 C 104.99,-24.2592 106.065,-22.7412 101.91,-16.9552 Z" transform=""/><path fill="#f4953f" stroke="none" d="M 102.427,-26.1547 C 99.2752,-28.1437 98.4792,-29.6557 94.1052,-23.7947 C 93.7532,-23.3237 93.3842,-22.7787 93.0072,-22.1877 C 93.7902,-18.9207 96.8262,-16.4817 100.459,-16.4817 C 100.92,-16.4817 101.37,-16.5277 101.809,-16.6037 C 101.896,-16.7147 101.986,-16.8287 102.067,-16.9367 C 106.441,-22.7977 105.309,-24.3367 102.427,-26.1547 Z" transform=""/><path fill="#f4953f" stroke="none" d="M 87.7403,-11.6465 C 85.2133,-6.05953 83.2253,-0.455526 83.7523,-0.0125258 C 84.0643,0.249474 88.9983,-3.61453 93.5633,-7.86553 C 91.0093,-7.99553 88.8253,-9.49553 87.7403,-11.6465 Z" transform=""/><path fill="#f4953f" stroke="none" d="M 101.026,-15.5848 C 100.605,-15.5108 100.173,-15.4658 99.7302,-15.4658 C 96.2432,-15.4658 93.3292,-17.8548 92.5772,-21.0558 C 91.1452,-18.7668 89.5642,-15.6668 88.1432,-12.5608 C 89.2952,-10.3008 91.6172,-8.72375 94.3312,-8.58775 C 96.9592,-11.0078 99.4722,-13.5488 101.026,-15.5848 Z" transform=""/><path fill="#d78334" stroke="none" d="M 102.511,-25.5116 C 101.006,-26.6966 100.468,-27.6866 98.7609,-26.5706 C 98.4109,-25.3686 99.0039,-23.8446 100.319,-22.8426 C 101.317,-22.0806 102.495,-21.7996 103.472,-21.9946 C 104.207,-23.5046 103.786,-24.5076 102.511,-25.5116 Z" transform=""/><path fill="#64c4ad" stroke="none" d="M 116.251,-31.0888 C 116.867,-32.2208 113.911,-33.4698 110.682,-32.8298 C 109.077,-32.5118 107.722,-31.7518 106.764,-31.0678 C 106.404,-30.9348 106.06,-30.7648 105.73,-30.5648 C 107.488,-33.2048 111.076,-39.0148 109.223,-39.9178 C 107.191,-40.9088 105.466,-32.6458 104.976,-30.0358 C 104.948,-30.0128 104.919,-29.9908 104.891,-29.9678 C 104.999,-30.6428 105.499,-34.4858 103.345,-36.8878 C 101.488,-38.9598 99.3853,-39.4528 98.9043,-38.2098 C 98.4233,-36.9708 101.275,-36.5988 102.774,-35.0788 C 104.733,-33.0928 104.865,-30.4668 104.872,-29.9508 C 104.857,-29.9388 104.843,-29.9258 104.829,-29.9128 C 104.787,-30.8988 104.523,-33.0948 103.018,-33.8628 C 100.8,-34.9938 97.9203,-34.0688 97.3593,-32.6518 C 97.0803,-31.9468 97.9253,-31.4468 99.2233,-32.1068 C 100.521,-32.7658 101.478,-33.8188 103.125,-32.9368 C 104.093,-32.4178 104.576,-30.6638 104.752,-29.8468 C 102.962,-28.3018 101.719,-25.8858 100.938,-23.9238 C 101.012,-23.8928 101.087,-23.8628 101.162,-23.8328 C 101.74,-25.0258 102.518,-26.3978 103.514,-27.6568 C 106.436,-31.3538 108.963,-30.8268 110.429,-29.8608 C 111.997,-28.8258 111.154,-26.7018 111.78,-25.6528 C 112.405,-24.6038 113.196,-24.9158 113.488,-25.6498 C 113.909,-26.7058 113.174,-30.9468 109.476,-31.3878 C 109.818,-31.4478 110.173,-31.4928 110.537,-31.5178 C 113.437,-31.7138 115.655,-29.9898 116.251,-31.0888 Z" transform=""/></svg>