<svg xmlns="http://www.w3.org/2000/svg" version="1.1" width="75" height="37.5" viewBox="0 0 75 37.5"><defs/><path fill="#304454" stroke="#304454" d="M 65.713,20.8105 L 66.618,21.0635 L 67.398,21.4855 L 68.067,22.0505 L 68.742,22.6165 L 69.307,23.3265 L 69.784,24.1535 L 70.095,23.9735 L 69.597,23.1115 L 69.007,22.3705 L 68.301,21.7755 L 67.589,21.1775 L 66.77,20.7345 L 65.809,20.4645 L 65.713,20.8105 Z" style="stroke-miterlimit: 10" stroke-miterlimit="10" transform=""/><path fill="#304454" stroke="#304454" d="M 64.2587,28.0828 L 64.7617,28.8768 L 65.0587,29.7128 L 65.1767,30.5798 L 65.2987,31.4528 L 65.2427,32.3588 L 65.0437,33.2918 L 65.3947,33.3668 L 65.6027,32.3928 L 65.6607,31.4478 L 65.5337,30.5318 L 65.4067,29.6118 L 65.0957,28.7338 L 64.5617,27.8898 L 64.2587,28.0828 Z" style="stroke-miterlimit: 10" stroke-miterlimit="10" transform=""/><path fill="#304454" stroke="#304454" d="M 59.6439,32.2159 L 60.1469,33.0109 L 60.4439,33.8459 L 60.5619,34.7129 L 60.6839,35.5859 L 60.6279,36.4919 L 60.4279,37.4249 L 60.7799,37.4999 L 60.9869,36.5259 L 61.0459,35.5809 L 60.9189,34.6649 L 60.7919,33.7449 L 60.4799,32.8679 L 59.9469,32.0239 L 59.6439,32.2159 Z" style="stroke-miterlimit: 10" stroke-miterlimit="10" transform=""/><path fill="#2d353a" stroke="none" d="M 59.634,5.9106 C 59.945,5.7536 60.254,5.6156 60.565,5.4956 C 60.885,5.3726 61.21,5.2686 61.533,5.1856 C 63.192,4.7626 64.768,4.9276 66,5.7906 L 66,5.7906 L 66,5.7906 L 66,5.7906 C 66.69,6.2706 67.208,6.9256 67.567,7.7056 C 67.653,7.8956 67.732,8.0926 67.798,8.2966 C 68.139,9.3246 68.232,10.5266 68.081,11.8076 C 68.242,12.1806 68.379,12.5656 68.497,12.9616 C 68.626,13.3866 68.73,13.8206 68.808,14.2626 C 69.214,16.5296 68.996,19.0246 68.132,21.4566 C 68.104,21.7946 68.063,22.1366 68.007,22.4786 C 67.951,22.8286 67.882,23.1776 67.802,23.5216 C 67.377,25.3066 66.608,27.0636 65.476,28.6846 L 65.476,28.6846 L 65.476,28.6846 C 63.274,31.8386 60.12,33.8856 56.796,34.6436 C 53.468,35.4026 49.976,34.8676 47.101,32.8636 L 47.101,32.8636 L 47.101,32.8636 L 47.101,32.8636 L 47.101,32.8636 C 44.23,30.8576 42.524,27.7626 42.09,24.3766 C 41.657,20.9966 42.488,17.3296 44.692,14.1746 L 44.692,14.1746 L 44.692,14.1746 L 44.692,14.1746 L 44.692,14.1746 C 45.479,13.0456 46.385,12.0636 47.38,11.2266 C 47.539,11.0926 47.704,10.9616 47.871,10.8336 C 48.719,10.1786 49.622,9.6296 50.563,9.1866 C 50.944,8.8696 51.335,8.5756 51.735,8.3026 C 52.139,8.0266 52.552,7.7726 52.975,7.5426 C 55.114,6.3686 57.429,5.7986 59.634,5.9106 L 59.634,5.9106 Z" transform=""/><path fill="#d14e3f" stroke="none" d="M 43.2989,14.5187 C 47.9189,7.90066 56.5339,5.93666 62.5449,10.1297 C 68.5529,14.3267 69.6789,23.0927 65.0589,29.7127 C 60.4389,36.3297 51.8189,38.2967 45.8119,34.1017 C 39.8019,29.9067 38.6769,21.1407 43.2989,14.5187 Z" transform=""/><path fill="#ffffff" stroke="none" d="M 58.7617,7.58383 C 59.3627,6.71983 60.5497,6.50883 61.4117,7.11083 C 62.2037,7.66483 62.4477,8.71283 62.0137,9.54783 C 60.8927,8.91683 59.6937,8.49583 58.4637,8.26783 C 58.5157,8.02783 58.6137,7.79383 58.7617,7.58383 L 58.7617,7.58383 Z" transform=""/><path fill="#ffffff" stroke="none" d="M 63.8489,10.8282 C 64.4839,10.1322 65.5499,9.99924 66.3419,10.5542 C 67.2039,11.1542 67.4169,12.3412 66.8139,13.2032 C 66.6659,13.4162 66.4799,13.5902 66.2749,13.7192 C 65.6369,12.6432 64.8269,11.6652 63.8489,10.8282 L 63.8489,10.8282 Z" transform=""/><path fill="#e6e7e8" stroke="none" d="M 59.1694,7.15811 C 59.8114,6.66911 60.7164,6.62611 61.4124,7.11111 C 61.6664,7.28611 61.8634,7.51311 61.9984,7.77011 C 61.0934,7.41711 60.1394,7.21511 59.1694,7.15811 M 59.1694,7.15811 L 59.1694,7.15811 Z" transform=""/><path fill="#e6e7e8" stroke="none" d="M 65.5227,10.2297 C 65.8097,10.2687 66.0907,10.3757 66.3427,10.5537 C 67.0377,11.0387 67.3097,11.9037 67.0717,12.6727 C 66.6827,11.7847 66.1647,10.9587 65.5227,10.2297 L 65.5227,10.2297 Z" transform=""/><path fill="#304454" stroke="none" d="M 64.3739,5.4026 L 64.6729,4.5116 L 64.7609,3.6316 L 64.6719,2.7606 L 64.5819,1.8846 L 64.3149,1.0186 L 63.8969,0.157598 L 64.2209,-0.000401837 L 64.6539,0.898598 L 64.9359,1.8046 L 65.0299,2.7236 L 65.1239,3.6446 L 65.0299,4.5756 L 64.7119,5.5196 L 64.3739,5.4026 Z" transform=""/><path fill="#304454" stroke="none" d="M 66.9254,7.18664 L 67.6584,6.59864 L 68.4554,6.20864 L 69.3034,5.99364 L 70.1574,5.77464 L 71.0634,5.72864 L 72.0134,5.82164 L 72.0484,5.46464 L 71.0574,5.36764 L 70.1114,5.41564 L 69.2164,5.64364 L 68.3164,5.87464 L 67.4794,6.28264 L 66.7004,6.90764 L 66.9254,7.18664 Z" transform=""/><path fill="#7a3440" stroke="none" d="M 49.0987,22.6835 C 52.0347,16.6205 57.3537,12.0375 62.8157,10.2615 C 62.7257,10.1945 62.6377,10.1255 62.5457,10.0605 C 56.5347,5.86745 47.9187,7.83245 43.2987,14.4505 C 38.6757,21.0715 39.8017,29.8375 45.8117,34.0335 C 46.3317,34.3965 46.8717,34.7095 47.4257,34.9815 C 46.4897,31.4415 46.9687,27.0815 49.0987,22.6835 Z" transform=""/><path fill="#2d353a" stroke="none" d="M 45.9981,15.9697 C 46.6371,15.2097 47.7571,14.9297 48.5031,15.3437 C 49.2501,15.7577 49.3381,16.7067 48.7001,17.4667 C 48.0611,18.2267 46.9391,18.5077 46.1931,18.0957 C 45.4461,17.6817 45.3611,16.7287 45.9981,15.9697 Z" transform=""/><path fill="#2d353a" stroke="none" d="M 57.8752,22.6818 C 58.0982,21.7148 57.5882,20.9058 56.7342,20.8778 C 55.8822,20.8498 55.0102,21.6108 54.7872,22.5778 C 54.5652,23.5448 55.0772,24.3488 55.9302,24.3778 S 57.6522,23.6498 57.8752,22.6818 Z" transform=""/><path fill="#2d353a" stroke="none" d="M 55.299,31.0183 C 55.544,29.9563 54.983,29.0693 54.047,29.0383 C 53.112,29.0073 52.154,29.8423 51.91,30.9043 C 51.665,31.9653 52.227,32.8483 53.163,32.8803 C 54.1,32.9113 55.055,32.0803 55.299,31.0183 Z" transform=""/><path fill="#2d353a" stroke="none" d="M 65.3087,18.852 C 64.9747,17.815 64.0397,17.34 63.2187,17.792 C 62.3997,18.245 62.0057,19.452 62.3387,20.489 C 62.6727,21.526 63.6077,21.997 64.4277,21.544 C 65.2487,21.092 65.6427,19.889 65.3087,18.852 Z" transform=""/><path fill="#2d353a" stroke="none" d="M 53.5435,8.98988 C 54.5095,8.76288 55.5745,9.20888 55.9255,9.98688 S 55.7795,11.5789 54.8125,11.8069 C 53.8465,12.0339 52.7785,11.5869 52.4285,10.8099 C 52.0775,10.0319 52.5785,9.21688 53.5435,8.98988 Z" transform=""/><path fill="#2d353a" stroke="none" d="M 41.6965,25.4758 C 41.4865,24.5058 41.9525,23.4488 42.7365,23.1118 C 43.5205,22.7758 44.3255,23.2868 44.5355,24.2578 C 44.7455,25.2278 44.2795,26.2868 43.4965,26.6238 C 42.7115,26.9608 41.9065,26.4448 41.6965,25.4758 Z" transform=""/></svg>