<svg xmlns="http://www.w3.org/2000/svg" width="250" height="41.667" viewBox="0 0 250 41.666666666666664"><path fill="#d1d3d4" d="M32.07 11.86a.287.287 0 1 0 .217.532c.023-.01 2.278-.904 3.71-.138.572.306.942.851 1.103 1.623l.369 1.887c.414 2.2.603 3.203 1.587 3.75a.288.288 0 0 0 .28-.502c-.748-.416-.91-1.277-1.302-3.354l-.371-1.897c-.196-.947-.665-1.625-1.396-2.014-1.67-.893-4.093.07-4.196.113z"/><path fill="#304454" d="M39.263 21.254c-.434-.65-.808-1.769.058-2.34.603-.397 1.486-.237 1.972.795.63 1.338-.095 2.02.373 2.898 0 0-1.7-.298-2.403-1.353zM37.859 14.77l-.197-1.009c-.196-.947-.665-1.625-1.396-2.015l-.037-.018a.884.884 0 0 0 .278.335c.585.41.879 1.29.879 1.877 0 .293.177.618.473.83z"/><path fill="#d78334" d="M22.294 39.43l1.846-.448.168-1.735-.951-.84-.782.728z"/><path fill="#d1d3d4" d="M27.211 24.464s-2.009 1.537-.924 4.271c.554 1.396-.409 3.892-.923 4.157-1.616.83-2.45 2.42-2.567 3.46 0 0 3.863 2.551 4.924 2.797 1.501.346 1.791-2.462.414-5.45-.497-1.08.03-2.423.761-2.998 1.616-1.27 1.931-4.094 1.007-5.595"/><path fill="#304454" d="M27.712 30.473c-.361.28-.119 1.248.297 1.717.139-.615.481-1.17.887-1.49.83-.651 1.315-1.712 1.467-2.796l-.717-.773-.937.117s-1.173.585-.998 1.348c.177.762.529 1.465.001 1.877z"/><path fill="#f3b37c" d="M21.79 39.206s-.167-4.14 2.855-4.198c2.308-.043 3.687 2.627 3.804 4.588l-4.7.057-.784-2.575-.671 2.35-.504-.222z"/><path fill="#d78334" d="M7.637 39.43l1.846-.448.168-1.735-.952-.84-.783.728z"/><path fill="#d1d3d4" d="M12.554 24.464s-2.008 1.537-.923 4.271c.553 1.396-.41 3.892-.924 4.157-1.616.83-2.452 2.42-2.567 3.46 0 0 3.862 2.551 4.923 2.797 1.5.346 1.791-2.462.414-5.45-.496-1.08.03-2.423.762-2.998 1.616-1.27 1.93-4.094 1.007-5.595"/><path fill="#304454" d="M10.041 35.956s.967-2.42 1.936-2.056c.967.363.363 1.21 1.33 1.21.968 0 1.211.846 1.211.846l-2.225 1.024-2.252-1.023z"/><path fill="#f3b37c" d="M7.134 39.206s-.167-4.14 2.853-4.198c2.309-.043 3.689 2.627 3.805 4.588l-4.7.057-.783-2.575-.671 2.35-.504-.222z"/><path fill="#d78334" d="M11.179 40.146l1.935-.47.176-1.817-.997-.878-.821.76z"/><path fill="#efefef" d="M14.154 11.279s4.244 1.774 8.34 1.722c4.572-.06 8.56-4.573 11.62-2.206 2.872 2.222 2.945 17.465-9.315 19.234C13.066 31.722 6.9 22.382 10.71 17.28c3.655-4.893 3.444-6.002 3.444-6.002z"/><path fill="#d1d3d4" d="M35.472 13.707c-1.272-1.57-2.44-1.441-2.44-1.441l1.006 3.465s.975.304 1.66.227c-.016-.81-.095-1.57-.226-2.251zM20.207 26.896c-.703-1.818-1.524-1.642-1.524-1.642l-.913 4.413c.705.197 1.451.345 2.234.442.313-.815.637-2.092.203-3.213z"/><path fill="#efefef" d="M16.332 24.464s-2.105 1.611-.969 4.476c.58 1.462-.429 4.078-.967 4.354-1.693.871-2.569 2.538-2.69 3.626 0 0 4.048 2.675 5.16 2.932 1.572.363 1.876-2.58.433-5.71-.52-1.13.031-2.54.797-3.142 1.693-1.33 2.024-4.29 1.056-5.864"/><path fill="#f3b37c" d="M10.651 39.91s-.176-4.337 2.99-4.396c2.42-.046 3.866 2.75 3.987 4.807l-4.925.06-.82-2.697-.704 2.462-.528-.236z"/><path fill="#304454" d="M16.982 26.544c-.334-.633-1.236-.391-1.85-.13-.167.678-.165 1.526.231 2.526.267.67.198 1.585-.007 2.404.982-.051 1.201-.633 1.1-.872-.177-.41-.354-1.29 0-1.76.351-.468 1.054-1.171.526-2.168z"/><path fill="#d78334" d="M25.836 40.146l1.934-.47.176-1.817-.997-.878-.82.76z"/><path fill="#efefef" d="M33.516 12.239s2.58 1.7 3.048 5.16c.47 3.458-2.755 7.738-2.755 7.738.967 1.573.638 4.533-1.055 5.863-.768.602-1.318 2.012-.798 3.142 1.442 3.13 1.138 6.074-.435 5.71-1.11-.256-5.158-2.931-5.158-2.931.12-1.088.996-2.755 2.69-3.626.537-.276 1.547-2.893.967-4.354-1.137-2.865.968-4.476.968-4.476s-4.097-1.79-3.746-5.542c.352-3.753 3.928-7.505 6.274-6.684z"/><path fill="#f3b37c" d="M25.309 39.91s-.177-4.337 2.99-4.396c2.419-.046 3.866 2.75 3.987 4.807l-4.925.06-.821-2.697-.703 2.462-.528-.236z"/><path fill="#304454" d="M31.64 26.544c-.335-.633-1.238-.391-1.852-.13-.166.678-.164 1.526.232 2.526.266.67.198 1.585-.007 2.404.981-.051 1.201-.633 1.1-.872-.177-.41-.353-1.29 0-1.76.35-.468 1.054-1.171.526-2.168zM20.68 14.411c.169-.608 1.29-1.759 1.994-.997.93 1.01-.058 1.525.233 2.053.294.527 1.055.117 1.35.703.292.586-.705 1.583-1.877.997-1.172-.587-1.993-1.7-1.7-2.756zM36.609 17.987c-.251-.535-.602-1.01-1.041-.94-1.113.175-1.23 1.29-.703 2.168.528.88-.06 1.466-.586 1.466-.528 0-1.795-.225-2.112.528-.468 1.113 1.114 2.228 2.288 1.231.459-.39.89-.592 1.276-.668.506-1.172.905-2.513.878-3.785zM30.485 34.263c-.24.968 1.192.72 1.603 1.406.261.434.446 1.268.765 1.6-.092-.926-.385-2.014-.896-3.127a2.107 2.107 0 0 1-.113-.311c-.615-.08-1.242-.036-1.359.432z"/><path fill="#304454" d="M29.692 10.653c-2.166.828-4.587 2.315-7.198 2.348a15.68 15.68 0 0 1-.97-.02l.028.047c-1.04-.107-2.627 1.098-2.693 2.068-.113 1.72.928 2.709-.284 3.636-1.213.927.784 3.066 1.498 2.21.206-.248.541-.326.908-.36-.193 1.009 1.268 2.347 1.858 1.639.47-.563 1.591-.268 2.281-.5 1.07-.355 1.07-1.211 1.498-2.28.427-1.07 1.496-.57 1.923-1.212.43-.642-.498-1.64-1.425-1.497-.812.124-.858-1.226-1.957-2.042 1.573-.825 2.235-2.381 3.608-2.274 1.13.085 1.454-.987.925-1.763z"/><ellipse cx="13.1" cy="14.693" rx="4.772" ry="5.016" fill="#d1d3d4"/><ellipse cx="12.854" cy="19.709" rx="4.772" ry="5.016" fill="#d1d3d4" transform="rotate(7.938 12.854 19.709)"/><path fill="#304454" d="M10.138 23.424c.51 1.251 1.361 2.46 2.521 3.504.843-.085 1.155-1.325.69-1.79-.529-.528-1.056-.177-1.466-.704-.41-.528.176-1.466-.646-1.759-.442-.158-.832.296-1.099.75zM14.556 9.363s.15-4.565 3.297-4.677c3.148-.11 5.545 2.784 4.047 4.454-1.499 1.67-6.294 1.558-6.294 1.558l-1.05-1.335zM6.366 6.795S2.463 3.417.786 5.085c-1.679 1.667-.46 5.2 1.695 5.63 2.155.433 4.476-2.323 4.476-2.323l-.59-1.597z"/><ellipse cx="10.126" cy="12.104" rx="7.16" ry="7.939" fill="#efefef"/><path fill="#304454" d="M15.488 6.846c-1.312-1.644-3.226-2.682-5.362-2.682-.442 0-.872.047-1.293.133-.377.548-.626 1.207-.533 1.665.233 1.119 1.085 1.082 1.95.639.864-.446 2.137-.37 2.908.634.433.56 2.34.783 2.33-.39z"/><path fill="#f4dbc5" d="M12.974 6.302c-.393-.263-.606-.457-.684-.93 0 0 .775-.944.784-1.767.012-1.004-.6-1.953-.338-2.229.25-.267 1.652-.02 2.088 1.904.352 1.555-.664 3.281-.664 3.281s-.65.098-1.186-.259zM7.4 6.302c.393-.263.606-.457.684-.93 0 0-.775-.944-.785-1.767-.011-1.004.6-1.953.34-2.229-.251-.267-1.654-.02-2.09 1.904-.35 1.555.665 3.281.665 3.281s.65.098 1.186-.259z"/><ellipse cx="6.779" cy="14.756" rx=".556" ry=".772" fill="#304454" transform="rotate(1.559 6.78 14.756)"/><ellipse cx="13.409" cy="14.595" rx=".556" ry=".772" fill="#304454" transform="rotate(1.559 13.41 14.595)"/><path fill="#f4dbc5" d="M16.042 19.966c0 2.45-2.614 4.436-5.84 4.436-3.222 0-5.836-1.985-5.836-4.436s2.614-4.438 5.837-4.438c3.225 0 5.839 1.987 5.839 4.438z"/><ellipse cx="5.096" cy="19.195" rx="1.37" ry="1.041" fill="#f4dbc5" transform="rotate(24.81 5.096 19.195)"/><ellipse cx="5.501" cy="19.737" rx="1.163" ry=".884" fill="#c75e72" opacity=".7" transform="rotate(40.519 5.5 19.737)"/><ellipse cx="15.314" cy="18.98" rx="1.37" ry="1.041" fill="#f4dbc5" transform="rotate(-14.732 15.314 18.98)"/><ellipse cx="14.968" cy="19.342" rx="1.163" ry=".884" fill="#c75e72" opacity=".7" transform="rotate(-35.073 14.968 19.342)"/><path fill="#304454" d="M29.853 28.38c-.361-.942-1.062-1.594-1.492-.94-.233.352-.576.445-.945.468.302-1.484-1.011-3.577-1.675-2.57-.529.802-1.616.283-2.329.575-1.105.451-1.198 1.722-1.741 3.28-.239.688-.572.911-.91 1.026 1.313.114 2.726.081 4.232-.136 1.906-.275 3.514-.877 4.86-1.704z"/><path fill="#d1d3d4" d="M73.737 11.86a.287.287 0 1 0 .216.532c.023-.01 2.278-.904 3.71-.138.572.306.942.851 1.103 1.623l.37 1.887c.413 2.2.602 3.203 1.586 3.75a.288.288 0 0 0 .28-.502c-.748-.416-.91-1.277-1.302-3.354l-.37-1.897c-.197-.947-.666-1.625-1.397-2.014-1.67-.893-4.093.07-4.196.113z"/><path fill="#304454" d="M80.93 21.254c-.434-.65-.808-1.769.058-2.34.603-.397 1.486-.237 1.972.795.63 1.338-.095 2.02.373 2.898 0 0-1.7-.298-2.403-1.353zM79.526 14.77l-.197-1.009c-.196-.947-.665-1.625-1.396-2.015l-.037-.018a.884.884 0 0 0 .278.335c.585.41.879 1.29.879 1.877 0 .293.177.618.473.83z"/><path fill="#d78334" d="M63.96 39.43l1.846-.448.168-1.735-.95-.84-.783.728z"/><path fill="#d1d3d4" d="M68.878 24.464s-2.009 1.537-.924 4.271c.554 1.396-.409 3.892-.923 4.157-1.616.83-2.45 2.42-2.567 3.46 0 0 3.863 2.551 4.924 2.797 1.501.346 1.791-2.462.414-5.45-.497-1.08.03-2.423.761-2.998 1.616-1.27 1.931-4.094 1.007-5.595"/><path fill="#304454" d="M69.379 30.473c-.361.28-.12 1.248.297 1.717.139-.615.48-1.17.887-1.49.83-.651 1.315-1.712 1.467-2.796l-.717-.773-.937.117s-1.173.585-.998 1.348c.177.762.529 1.465 0 1.877z"/><path fill="#f3b37c" d="M63.456 39.206s-.167-4.14 2.855-4.198c2.308-.043 3.687 2.627 3.804 4.588l-4.7.057-.784-2.575-.67 2.35-.505-.222z"/><path fill="#d78334" d="M49.304 39.43l1.846-.448.168-1.735-.952-.84-.783.728z"/><path fill="#d1d3d4" d="M54.221 24.464s-2.008 1.537-.923 4.271c.553 1.396-.41 3.892-.924 4.157-1.616.83-2.452 2.42-2.567 3.46 0 0 3.862 2.551 4.923 2.797 1.5.346 1.791-2.462.414-5.45-.496-1.08.03-2.423.762-2.998 1.616-1.27 1.93-4.094 1.007-5.595"/><path fill="#304454" d="M51.708 35.956s.967-2.42 1.936-2.056c.967.363.363 1.21 1.33 1.21a1.24 1.24 0 0 1 1.21.846L53.96 36.98l-2.252-1.023z"/><path fill="#f3b37c" d="M48.8 39.206s-.167-4.14 2.853-4.198c2.31-.043 3.69 2.627 3.805 4.588l-4.7.057-.783-2.575-.67 2.35-.505-.222z"/><path fill="#d78334" d="M52.846 40.146l1.935-.47.176-1.817-.997-.878-.821.76z"/><path fill="#efefef" d="M55.82 11.279s4.245 1.774 8.34 1.722c4.573-.06 8.56-4.573 11.62-2.206 2.873 2.222 2.946 17.465-9.314 19.234-11.733 1.693-17.9-7.647-14.09-12.748 3.656-4.893 3.445-6.002 3.445-6.002z"/><path fill="#d1d3d4" d="M77.138 13.707c-1.272-1.57-2.44-1.441-2.44-1.441l1.006 3.465s.975.304 1.661.227c-.017-.81-.096-1.57-.227-2.251zM61.874 26.896c-.703-1.818-1.524-1.642-1.524-1.642l-.913 4.413c.705.197 1.45.345 2.234.442.313-.815.637-2.092.203-3.213z"/><path fill="#efefef" d="M57.999 24.464s-2.105 1.611-.97 4.476c.58 1.462-.428 4.078-.966 4.354-1.693.871-2.57 2.538-2.69 3.626 0 0 4.048 2.675 5.159 2.932 1.573.363 1.877-2.58.434-5.71-.521-1.13.03-2.54.797-3.142 1.693-1.33 2.024-4.29 1.056-5.864"/><path fill="#f3b37c" d="M52.318 39.91s-.176-4.337 2.99-4.396c2.419-.046 3.866 2.75 3.987 4.807l-4.925.06-.821-2.697-.703 2.462-.528-.236z"/><path fill="#304454" d="M58.649 26.544c-.334-.633-1.236-.391-1.851-.13-.166.678-.164 1.526.232 2.526.267.67.198 1.585-.007 2.404.982-.051 1.2-.633 1.099-.872-.176-.41-.353-1.29 0-1.76.352-.468 1.055-1.171.527-2.168z"/><path fill="#d78334" d="M67.503 40.146l1.934-.47.176-1.817-.997-.878-.82.76z"/><path fill="#efefef" d="M75.183 12.239s2.58 1.7 3.048 5.16c.47 3.458-2.755 7.738-2.755 7.738.967 1.573.638 4.533-1.055 5.863-.768.602-1.318 2.012-.798 3.142 1.442 3.13 1.138 6.074-.435 5.71-1.11-.256-5.158-2.931-5.158-2.931.12-1.088.996-2.755 2.69-3.626.537-.276 1.547-2.893.967-4.354-1.137-2.865.968-4.476.968-4.476s-4.097-1.79-3.746-5.542c.352-3.753 3.928-7.505 6.274-6.684z"/><path fill="#f3b37c" d="M66.975 39.91s-.177-4.337 2.99-4.396c2.42-.046 3.866 2.75 3.987 4.807l-4.925.06-.82-2.697-.704 2.462-.528-.236z"/><path fill="#304454" d="M73.306 26.544c-.334-.633-1.237-.391-1.851-.13-.166.678-.164 1.526.232 2.526.266.67.198 1.585-.007 2.404.981-.051 1.201-.633 1.099-.872-.176-.41-.352-1.29 0-1.76.351-.468 1.055-1.171.527-2.168zM62.346 14.411c.17-.608 1.29-1.759 1.994-.997.931 1.01-.058 1.525.234 2.053.293.527 1.055.117 1.35.703.292.586-.705 1.583-1.877.997-1.173-.587-1.994-1.7-1.7-2.756zM78.275 17.987c-.25-.535-.602-1.01-1.04-.94-1.114.175-1.23 1.29-.704 2.168.528.88-.06 1.466-.586 1.466-.527 0-1.794-.225-2.111.528-.469 1.113 1.114 2.228 2.287 1.231.46-.39.892-.592 1.276-.668.506-1.172.905-2.513.878-3.785zM72.152 34.263c-.241.968 1.192.72 1.603 1.406.26.434.446 1.268.765 1.6-.092-.926-.385-2.014-.896-3.127a2.107 2.107 0 0 1-.113-.311c-.615-.08-1.242-.036-1.36.432z"/><path fill="#304454" d="M71.359 10.653c-2.166.828-4.587 2.315-7.198 2.348a15.68 15.68 0 0 1-.97-.02l.028.047c-1.041-.107-2.627 1.098-2.693 2.068-.113 1.72.928 2.709-.284 3.636-1.213.927.784 3.066 1.498 2.21.206-.248.541-.326.908-.36-.193 1.009 1.268 2.347 1.858 1.639.469-.563 1.591-.268 2.281-.5 1.069-.355 1.069-1.211 1.498-2.28.427-1.07 1.496-.57 1.923-1.212.429-.642-.498-1.64-1.425-1.497-.812.124-.858-1.226-1.957-2.042 1.573-.825 2.235-2.381 3.608-2.274 1.13.085 1.454-.987.925-1.763z"/><ellipse cx="54.766" cy="14.693" rx="4.772" ry="5.016" fill="#d1d3d4"/><ellipse cx="54.52" cy="19.709" rx="4.772" ry="5.016" fill="#d1d3d4" transform="rotate(7.938 54.52 19.709)"/><path fill="#304454" d="M51.805 23.424c.509 1.251 1.36 2.46 2.52 3.504.844-.085 1.156-1.325.69-1.79-.528-.528-1.055-.177-1.465-.704-.411-.528.176-1.466-.646-1.759-.442-.158-.832.296-1.1.75zM56.223 9.363s.15-4.565 3.297-4.677c3.148-.11 5.545 2.784 4.047 4.454-1.499 1.67-6.294 1.558-6.294 1.558l-1.05-1.335zM48.033 6.795s-3.903-3.378-5.58-1.71c-1.679 1.667-.46 5.2 1.695 5.63 2.155.433 4.476-2.323 4.476-2.323l-.59-1.597z"/><ellipse cx="51.793" cy="12.104" rx="7.16" ry="7.939" fill="#efefef"/><path fill="#304454" d="M57.155 6.846c-1.312-1.644-3.226-2.682-5.362-2.682-.442 0-.872.047-1.293.133-.377.548-.626 1.207-.533 1.665.233 1.119 1.085 1.082 1.95.639.864-.446 2.137-.37 2.908.634.433.56 2.339.783 2.33-.39z"/><path fill="#f4dbc5" d="M54.64 6.302c-.392-.263-.605-.457-.684-.93 0 0 .775-.944.784-1.767.012-1.004-.6-1.953-.337-2.229.25-.267 1.651-.02 2.087 1.904.352 1.555-.663 3.281-.663 3.281s-.65.098-1.186-.259zM49.066 6.302c.393-.263.606-.457.684-.93 0 0-.775-.944-.785-1.767-.01-1.004.601-1.953.34-2.229-.25-.267-1.654-.02-2.089 1.904-.35 1.555.664 3.281.664 3.281s.65.098 1.186-.259z"/><ellipse cx="48.446" cy="14.756" rx=".556" ry=".772" fill="#304454" transform="rotate(1.559 48.446 14.756)"/><ellipse cx="55.076" cy="14.595" rx=".556" ry=".772" fill="#304454" transform="rotate(1.559 55.076 14.595)"/><path fill="#f4dbc5" d="M57.708 19.966c0 2.45-2.614 4.436-5.839 4.436-3.223 0-5.837-1.985-5.837-4.436s2.614-4.438 5.837-4.438c3.225 0 5.84 1.987 5.84 4.438z"/><ellipse cx="46.762" cy="19.195" rx="1.37" ry="1.041" fill="#f4dbc5" transform="rotate(24.81 46.762 19.195)"/><ellipse cx="47.168" cy="19.737" rx="1.163" ry=".884" fill="#c75e72" opacity=".7" transform="rotate(40.519 47.168 19.737)"/><ellipse cx="56.981" cy="18.98" rx="1.37" ry="1.041" fill="#f4dbc5" transform="rotate(-14.732 56.98 18.98)"/><ellipse cx="56.634" cy="19.342" rx="1.163" ry=".884" fill="#c75e72" opacity=".7" transform="rotate(-35.073 56.634 19.342)"/><path fill="#304454" d="M71.52 28.38c-.361-.942-1.062-1.594-1.492-.94-.233.352-.576.445-.945.468.302-1.484-1.011-3.577-1.675-2.57-.53.802-1.616.283-2.33.575-1.104.451-1.197 1.722-1.74 3.28-.24.688-.572.911-.91 1.026 1.313.114 2.726.081 4.232-.136 1.906-.275 3.514-.877 4.86-1.704z"/><path fill="#d1d3d4" d="M115.404 11.86a.287.287 0 1 0 .216.532c.023-.01 2.278-.904 3.71-.138.572.306.942.851 1.103 1.623l.369 1.887c.414 2.2.603 3.203 1.587 3.75a.288.288 0 0 0 .28-.502c-.748-.416-.91-1.277-1.302-3.354l-.371-1.897c-.196-.947-.665-1.625-1.396-2.014-1.67-.893-4.093.07-4.196.113z"/><path fill="#304454" d="M122.597 21.254c-.434-.65-.808-1.769.058-2.34.603-.397 1.486-.237 1.972.795.63 1.338-.095 2.02.373 2.898 0 0-1.7-.298-2.403-1.353zM121.192 14.77l-.197-1.009c-.196-.947-.665-1.625-1.396-2.015l-.037-.018a.884.884 0 0 0 .278.335c.585.41.879 1.29.879 1.877 0 .293.177.618.473.83z"/><path fill="#d78334" d="M105.627 39.43l1.846-.448.168-1.735-.951-.84-.782.728z"/><path fill="#d1d3d4" d="M110.545 24.464s-2.009 1.537-.924 4.271c.554 1.396-.409 3.892-.923 4.157-1.616.83-2.451 2.42-2.567 3.46 0 0 3.863 2.551 4.924 2.797 1.501.346 1.791-2.462.414-5.45-.497-1.08.029-2.423.761-2.998 1.616-1.27 1.931-4.094 1.007-5.595"/><path fill="#304454" d="M111.045 30.473c-.361.28-.119 1.248.297 1.717.139-.615.481-1.17.887-1.49.83-.651 1.315-1.712 1.467-2.796l-.717-.773-.937.117s-1.173.585-.998 1.348c.177.762.529 1.465.001 1.877z"/><path fill="#f3b37c" d="M105.123 39.206s-.167-4.14 2.855-4.198c2.308-.043 3.687 2.627 3.804 4.588l-4.7.057-.784-2.575-.671 2.35-.504-.222z"/><path fill="#d78334" d="M90.97 39.43l1.847-.448.168-1.735-.952-.84-.783.728z"/><path fill="#d1d3d4" d="M95.888 24.464s-2.008 1.537-.923 4.271c.553 1.396-.411 3.892-.924 4.157-1.616.83-2.452 2.42-2.567 3.46 0 0 3.862 2.551 4.923 2.797 1.5.346 1.79-2.462.414-5.45-.496-1.08.029-2.423.762-2.998 1.616-1.27 1.93-4.094 1.007-5.595"/><path fill="#304454" d="M93.374 35.956s.968-2.42 1.937-2.056c.966.363.362 1.21 1.33 1.21a1.24 1.24 0 0 1 1.21.846l-2.225 1.024-2.252-1.023z"/><path fill="#f3b37c" d="M90.467 39.206s-.167-4.14 2.853-4.198c2.309-.043 3.689 2.627 3.805 4.588l-4.7.057-.783-2.575-.671 2.35-.504-.222z"/><path fill="#d78334" d="M94.512 40.146l1.935-.47.176-1.817-.997-.878-.82.76z"/><path fill="#efefef" d="M97.488 11.279s4.244 1.774 8.34 1.722c4.572-.06 8.559-4.573 11.62-2.206 2.872 2.222 2.945 17.465-9.315 19.234-11.733 1.693-17.9-7.647-14.09-12.748 3.656-4.893 3.445-6.002 3.445-6.002z"/><path fill="#d1d3d4" d="M118.805 13.707c-1.272-1.57-2.44-1.441-2.44-1.441l1.006 3.465s.975.304 1.661.227c-.017-.81-.096-1.57-.227-2.251zM103.54 26.896c-.703-1.818-1.524-1.642-1.524-1.642l-.913 4.413c.705.197 1.451.345 2.234.442.313-.815.637-2.092.203-3.213z"/><path fill="#efefef" d="M99.666 24.464s-2.105 1.611-.97 4.476c.58 1.462-.428 4.078-.966 4.354-1.693.871-2.57 2.538-2.69 3.626 0 0 4.048 2.675 5.159 2.932 1.573.363 1.877-2.58.434-5.71-.521-1.13.031-2.54.797-3.142 1.693-1.33 2.024-4.29 1.056-5.864"/><path fill="#f3b37c" d="M93.984 39.91s-.176-4.337 2.99-4.396c2.42-.046 3.866 2.75 3.987 4.807l-4.925.06-.82-2.697-.704 2.462-.528-.236z"/><path fill="#304454" d="M100.316 26.544c-.334-.633-1.236-.391-1.851-.13-.166.678-.164 1.526.232 2.526.267.67.198 1.585-.007 2.404.982-.051 1.2-.633 1.099-.872-.176-.41-.353-1.29 0-1.76.352-.468 1.055-1.171.527-2.168z"/><path fill="#d78334" d="M109.17 40.146l1.934-.47.176-1.817-.997-.878-.82.76z"/><path fill="#efefef" d="M116.85 12.239s2.579 1.7 3.048 5.16c.469 3.458-2.755 7.738-2.755 7.738.967 1.573.638 4.533-1.055 5.863-.768.602-1.318 2.012-.798 3.142 1.442 3.13 1.138 6.074-.435 5.71-1.111-.256-5.158-2.931-5.158-2.931.12-1.088.996-2.755 2.689-3.626.538-.276 1.548-2.893.968-4.354-1.137-2.865.968-4.476.968-4.476s-4.097-1.79-3.746-5.542c.352-3.753 3.928-7.505 6.274-6.684z"/><path fill="#f3b37c" d="M108.642 39.91s-.177-4.337 2.99-4.396c2.419-.046 3.866 2.75 3.987 4.807l-4.925.06-.821-2.697-.703 2.462-.528-.236z"/><path fill="#304454" d="M114.973 26.544c-.334-.633-1.237-.391-1.851-.13-.166.678-.164 1.526.232 2.526.266.67.198 1.585-.007 2.404.981-.051 1.201-.633 1.099-.872-.176-.41-.352-1.29 0-1.76.351-.468 1.055-1.171.527-2.168zM104.013 14.411c.169-.608 1.29-1.759 1.994-.997.931 1.01-.058 1.525.234 2.053.293.527 1.055.117 1.349.703.293.586-.704 1.583-1.876.997-1.173-.587-1.994-1.7-1.701-2.756zM119.942 17.987c-.251-.535-.602-1.01-1.041-.94-1.113.175-1.23 1.29-.703 2.168.528.88-.06 1.466-.586 1.466-.528 0-1.795-.225-2.112.528-.468 1.113 1.114 2.228 2.288 1.231.459-.39.891-.592 1.276-.668.506-1.172.905-2.513.878-3.785zM113.818 34.263c-.241.968 1.192.72 1.603 1.406.261.434.446 1.268.765 1.6-.092-.926-.385-2.014-.896-3.127a2.107 2.107 0 0 1-.113-.311c-.615-.08-1.242-.036-1.359.432z"/><path fill="#304454" d="M113.026 10.653c-2.166.828-4.587 2.315-7.198 2.348a15.68 15.68 0 0 1-.97-.02l.028.047c-1.041-.107-2.627 1.098-2.693 2.068-.113 1.72.928 2.709-.284 3.636-1.213.927.784 3.066 1.498 2.21.206-.248.541-.326.908-.36-.193 1.009 1.268 2.347 1.858 1.639.469-.563 1.591-.268 2.281-.5 1.069-.355 1.069-1.211 1.498-2.28.427-1.07 1.496-.57 1.923-1.212.429-.642-.498-1.64-1.425-1.497-.812.124-.858-1.226-1.957-2.042 1.573-.825 2.235-2.381 3.608-2.274 1.13.085 1.454-.987.925-1.763z"/><ellipse cx="96.433" cy="14.693" rx="4.772" ry="5.016" fill="#d1d3d4"/><ellipse cx="96.187" cy="19.709" rx="4.772" ry="5.016" fill="#d1d3d4" transform="rotate(7.938 96.187 19.709)"/><path fill="#304454" d="M93.472 23.424c.509 1.251 1.36 2.46 2.52 3.504.843-.085 1.155-1.325.69-1.79-.529-.528-1.056-.177-1.466-.704-.41-.528.177-1.466-.645-1.759-.442-.158-.832.296-1.1.75zM97.89 9.363s.15-4.565 3.297-4.677c3.148-.11 5.545 2.784 4.047 4.454-1.499 1.67-6.294 1.558-6.294 1.558l-1.05-1.335zM89.7 6.795s-3.903-3.378-5.581-1.71c-1.678 1.667-.46 5.2 1.696 5.63 2.155.433 4.476-2.323 4.476-2.323L89.7 6.795z"/><ellipse cx="93.46" cy="12.104" rx="7.16" ry="7.939" fill="#efefef"/><path fill="#304454" d="M98.822 6.846c-1.313-1.644-3.227-2.682-5.362-2.682-.442 0-.872.047-1.293.133-.377.548-.627 1.207-.534 1.665.234 1.119 1.086 1.082 1.95.639.865-.446 2.138-.37 2.909.634.432.56 2.338.783 2.33-.39z"/><path fill="#f4dbc5" d="M96.307 6.302c-.393-.263-.606-.457-.684-.93 0 0 .775-.944.784-1.767.012-1.004-.6-1.953-.338-2.229.251-.267 1.652-.02 2.088 1.904.352 1.555-.664 3.281-.664 3.281s-.65.098-1.186-.259zM90.733 6.302c.393-.263.606-.457.684-.93 0 0-.775-.944-.785-1.767-.011-1.004.6-1.953.34-2.229-.251-.267-1.654-.02-2.09 1.904-.35 1.555.665 3.281.665 3.281s.65.098 1.186-.259z"/><ellipse cx="90.113" cy="14.756" rx=".556" ry=".772" fill="#304454" transform="rotate(1.559 90.113 14.756)"/><ellipse cx="96.743" cy="14.595" rx=".556" ry=".772" fill="#304454" transform="rotate(1.559 96.743 14.595)"/><path fill="#f4dbc5" d="M99.375 19.966c0 2.45-2.614 4.436-5.839 4.436-3.223 0-5.837-1.985-5.837-4.436s2.614-4.438 5.837-4.438c3.225 0 5.839 1.987 5.839 4.438z"/><ellipse cx="88.429" cy="19.195" rx="1.37" ry="1.041" fill="#f4dbc5" transform="rotate(24.81 88.43 19.195)"/><ellipse cx="88.834" cy="19.737" rx="1.163" ry=".884" fill="#c75e72" opacity=".7" transform="rotate(40.519 88.834 19.737)"/><ellipse cx="98.647" cy="18.98" rx="1.37" ry="1.041" fill="#f4dbc5" transform="rotate(-14.732 98.647 18.98)"/><ellipse cx="98.301" cy="19.342" rx="1.163" ry=".884" fill="#c75e72" opacity=".7" transform="rotate(-35.073 98.3 19.342)"/><path fill="#304454" d="M113.186 28.38c-.361-.942-1.062-1.594-1.492-.94-.233.352-.576.445-.945.468.302-1.484-1.011-3.577-1.675-2.57-.529.802-1.616.283-2.329.575-1.105.451-1.198 1.722-1.741 3.28-.239.688-.572.911-.91 1.026 1.313.114 2.726.081 4.232-.136 1.906-.275 3.514-.877 4.86-1.704z"/><path fill="#d1d3d4" d="M157.071 11.86a.287.287 0 1 0 .216.532c.023-.01 2.278-.904 3.71-.138.572.306.942.851 1.103 1.623l.369 1.887c.414 2.2.603 3.203 1.587 3.75a.288.288 0 0 0 .28-.502c-.748-.416-.91-1.277-1.302-3.354l-.371-1.897c-.196-.947-.665-1.625-1.396-2.014-1.67-.893-4.093.07-4.196.113z"/><path fill="#304454" d="M164.263 21.254c-.434-.65-.808-1.769.058-2.34.603-.397 1.486-.237 1.972.795.63 1.338-.095 2.02.373 2.898 0 0-1.7-.298-2.403-1.353zM162.859 14.77l-.197-1.009c-.196-.947-.665-1.625-1.396-2.015l-.037-.018a.884.884 0 0 0 .278.335c.585.41.879 1.29.879 1.877 0 .293.177.618.473.83z"/><path fill="#d78334" d="M147.294 39.43l1.846-.448.168-1.735-.951-.84-.782.728z"/><path fill="#d1d3d4" d="M152.211 24.464s-2.009 1.537-.924 4.271c.554 1.396-.409 3.892-.923 4.157-1.616.83-2.451 2.42-2.567 3.46 0 0 3.863 2.551 4.924 2.797 1.501.346 1.791-2.462.414-5.45-.497-1.08.029-2.423.761-2.998 1.616-1.27 1.931-4.094 1.007-5.595"/><path fill="#304454" d="M152.712 30.473c-.361.28-.119 1.248.297 1.717.139-.615.481-1.17.887-1.49.83-.651 1.315-1.712 1.467-2.796l-.717-.773-.937.117s-1.173.585-.998 1.348c.177.762.529 1.465.001 1.877z"/><path fill="#f3b37c" d="M146.79 39.206s-.167-4.14 2.855-4.198c2.308-.043 3.687 2.627 3.804 4.588l-4.7.057-.784-2.575-.671 2.35-.504-.222z"/><path fill="#d78334" d="M132.637 39.43l1.846-.448.168-1.735-.952-.84-.783.728z"/><path fill="#d1d3d4" d="M137.554 24.464s-2.008 1.537-.923 4.271c.553 1.396-.411 3.892-.924 4.157-1.616.83-2.452 2.42-2.567 3.46 0 0 3.862 2.551 4.923 2.797 1.5.346 1.791-2.462.414-5.45-.496-1.08.029-2.423.762-2.998 1.616-1.27 1.93-4.094 1.007-5.595"/><path fill="#304454" d="M135.041 35.956s.967-2.42 1.936-2.056c.967.363.363 1.21 1.33 1.21a1.24 1.24 0 0 1 1.211.846l-2.225 1.024-2.252-1.023z"/><path fill="#f3b37c" d="M132.134 39.206s-.167-4.14 2.853-4.198c2.309-.043 3.689 2.627 3.805 4.588l-4.7.057-.783-2.575-.671 2.35-.504-.222z"/><path fill="#d78334" d="M136.179 40.146l1.935-.47.176-1.817-.997-.878-.821.76z"/><path fill="#efefef" d="M139.154 11.279s4.244 1.774 8.34 1.722c4.572-.06 8.559-4.573 11.62-2.206 2.872 2.222 2.945 17.465-9.315 19.234-11.733 1.693-17.899-7.647-14.089-12.748 3.655-4.893 3.444-6.002 3.444-6.002z"/><path fill="#d1d3d4" d="M160.472 13.707c-1.272-1.57-2.44-1.441-2.44-1.441l1.006 3.465s.975.304 1.661.227c-.017-.81-.096-1.57-.227-2.251zM145.207 26.896c-.703-1.818-1.524-1.642-1.524-1.642l-.913 4.413c.705.197 1.451.345 2.234.442.313-.815.637-2.092.203-3.213z"/><path fill="#efefef" d="M141.332 24.464s-2.105 1.611-.969 4.476c.58 1.462-.429 4.078-.967 4.354-1.693.871-2.569 2.538-2.69 3.626 0 0 4.048 2.675 5.159 2.932 1.573.363 1.877-2.58.434-5.71-.521-1.13.031-2.54.797-3.142 1.693-1.33 2.024-4.29 1.056-5.864"/><path fill="#f3b37c" d="M135.651 39.91s-.176-4.337 2.99-4.396c2.419-.046 3.866 2.75 3.987 4.807l-4.925.06-.821-2.697-.703 2.462-.528-.236z"/><path fill="#304454" d="M141.982 26.544c-.334-.633-1.236-.391-1.851-.13-.166.678-.164 1.526.232 2.526.267.67.198 1.585-.007 2.404.982-.051 1.201-.633 1.099-.872-.176-.41-.353-1.29 0-1.76.352-.468 1.055-1.171.527-2.168z"/><path fill="#d78334" d="M150.836 40.146l1.934-.47.176-1.817-.997-.878-.82.76z"/><path fill="#efefef" d="M158.516 12.239s2.579 1.7 3.048 5.16c.469 3.458-2.755 7.738-2.755 7.738.967 1.573.638 4.533-1.055 5.863-.768.602-1.318 2.012-.798 3.142 1.442 3.13 1.138 6.074-.435 5.71-1.111-.256-5.158-2.931-5.158-2.931.12-1.088.996-2.755 2.689-3.626.538-.276 1.548-2.893.968-4.354-1.137-2.865.968-4.476.968-4.476s-4.097-1.79-3.746-5.542c.352-3.753 3.928-7.505 6.274-6.684z"/><path fill="#f3b37c" d="M150.309 39.91s-.177-4.337 2.99-4.396c2.419-.046 3.866 2.75 3.987 4.807l-4.925.06-.821-2.697-.703 2.462-.528-.236z"/><path fill="#304454" d="M156.639 26.544c-.334-.633-1.237-.391-1.851-.13-.166.678-.164 1.526.232 2.526.266.67.198 1.585-.007 2.404.981-.051 1.201-.633 1.099-.872-.176-.41-.352-1.29 0-1.76.351-.468 1.055-1.171.527-2.168zM145.68 14.411c.169-.608 1.29-1.759 1.994-.997.931 1.01-.058 1.525.234 2.053.293.527 1.055.117 1.349.703.293.586-.704 1.583-1.876.997-1.173-.587-1.994-1.7-1.701-2.756zM161.609 17.987c-.251-.535-.602-1.01-1.041-.94-1.113.175-1.23 1.29-.703 2.168.528.88-.06 1.466-.586 1.466-.528 0-1.795-.225-2.112.528-.468 1.113 1.114 2.228 2.288 1.231.459-.39.891-.592 1.276-.668.506-1.172.905-2.513.878-3.785zM155.485 34.263c-.241.968 1.192.72 1.603 1.406.261.434.446 1.268.765 1.6-.092-.926-.385-2.014-.896-3.127a2.107 2.107 0 0 1-.113-.311c-.615-.08-1.242-.036-1.359.432z"/><path fill="#304454" d="M154.692 10.653c-2.166.828-4.587 2.315-7.198 2.348a15.68 15.68 0 0 1-.97-.02l.028.047c-1.041-.107-2.627 1.098-2.693 2.068-.113 1.72.928 2.709-.284 3.636-1.213.927.784 3.066 1.498 2.21.206-.248.541-.326.908-.36-.193 1.009 1.268 2.347 1.858 1.639.469-.563 1.591-.268 2.281-.5 1.069-.355 1.069-1.211 1.498-2.28.427-1.07 1.496-.57 1.923-1.212.429-.642-.498-1.64-1.425-1.497-.812.124-.858-1.226-1.957-2.042 1.573-.825 2.235-2.381 3.608-2.274 1.13.085 1.454-.987.925-1.763z"/><ellipse cx="138.1" cy="14.693" rx="4.772" ry="5.016" fill="#d1d3d4"/><ellipse cx="137.854" cy="19.709" rx="4.772" ry="5.016" fill="#d1d3d4" transform="rotate(7.938 137.854 19.709)"/><path fill="#304454" d="M135.138 23.424c.509 1.251 1.361 2.46 2.521 3.504.843-.085 1.155-1.325.69-1.79-.529-.528-1.056-.177-1.466-.704-.411-.528.176-1.466-.646-1.759-.442-.158-.832.296-1.099.75zM139.556 9.363s.15-4.565 3.297-4.677c3.148-.11 5.545 2.784 4.047 4.454-1.499 1.67-6.294 1.558-6.294 1.558l-1.05-1.335zM131.366 6.795s-3.903-3.378-5.581-1.71c-1.678 1.667-.46 5.2 1.696 5.63 2.155.433 4.476-2.323 4.476-2.323l-.591-1.597z"/><ellipse cx="135.126" cy="12.104" rx="7.16" ry="7.939" fill="#efefef"/><path fill="#304454" d="M140.488 6.846c-1.312-1.644-3.226-2.682-5.362-2.682-.442 0-.872.047-1.293.133-.377.548-.626 1.207-.533 1.665.233 1.119 1.085 1.082 1.95.639.864-.446 2.137-.37 2.908.634.433.56 2.339.783 2.33-.39z"/><path fill="#f4dbc5" d="M137.974 6.302c-.393-.263-.606-.457-.684-.93 0 0 .775-.944.784-1.767.012-1.004-.6-1.953-.338-2.229.251-.267 1.652-.02 2.088 1.904.352 1.555-.664 3.281-.664 3.281s-.65.098-1.186-.259zM132.4 6.302c.393-.263.606-.457.684-.93 0 0-.775-.944-.785-1.767-.011-1.004.601-1.953.34-2.229-.251-.267-1.654-.02-2.089 1.904-.351 1.555.664 3.281.664 3.281s.65.098 1.186-.259z"/><ellipse cx="131.779" cy="14.756" rx=".556" ry=".772" fill="#304454" transform="rotate(1.559 131.78 14.756)"/><ellipse cx="138.409" cy="14.595" rx=".556" ry=".772" fill="#304454" transform="rotate(1.559 138.41 14.595)"/><path fill="#f4dbc5" d="M141.042 19.966c0 2.45-2.614 4.436-5.839 4.436-3.223 0-5.837-1.985-5.837-4.436s2.614-4.438 5.837-4.438c3.225 0 5.839 1.987 5.839 4.438z"/><ellipse cx="130.096" cy="19.195" rx="1.37" ry="1.041" fill="#f4dbc5" transform="rotate(24.81 130.096 19.195)"/><ellipse cx="130.501" cy="19.737" rx="1.163" ry=".884" fill="#c75e72" opacity=".7" transform="rotate(40.519 130.5 19.737)"/><ellipse cx="140.314" cy="18.98" rx="1.37" ry="1.041" fill="#f4dbc5" transform="rotate(-14.732 140.314 18.98)"/><ellipse cx="139.968" cy="19.342" rx="1.163" ry=".884" fill="#c75e72" opacity=".7" transform="rotate(-35.073 139.968 19.342)"/><path fill="#304454" d="M154.853 28.38c-.361-.942-1.062-1.594-1.492-.94-.233.352-.576.445-.945.468.302-1.484-1.011-3.577-1.675-2.57-.529.802-1.616.283-2.329.575-1.105.451-1.198 1.722-1.741 3.28-.239.688-.572.911-.91 1.026 1.313.114 2.726.081 4.232-.136 1.906-.275 3.514-.877 4.86-1.704z"/><path fill="#d1d3d4" d="M198.737 11.86a.287.287 0 1 0 .216.532c.023-.01 2.278-.904 3.71-.138.572.306.942.851 1.103 1.623l.369 1.887c.414 2.2.603 3.203 1.587 3.75a.288.288 0 0 0 .28-.502c-.748-.416-.91-1.277-1.302-3.354l-.371-1.897c-.196-.947-.665-1.625-1.396-2.014-1.67-.893-4.093.07-4.196.113z"/><path fill="#304454" d="M205.93 21.254c-.434-.65-.808-1.769.058-2.34.603-.397 1.486-.237 1.972.795.63 1.338-.095 2.02.373 2.898 0 0-1.7-.298-2.403-1.353zM204.526 14.77l-.197-1.009c-.196-.947-.665-1.625-1.396-2.015l-.037-.018a.884.884 0 0 0 .278.335c.585.41.879 1.29.879 1.877 0 .293.177.618.473.83z"/><path fill="#d78334" d="M188.96 39.43l1.846-.448.168-1.735-.951-.84-.782.728z"/><path fill="#d1d3d4" d="M193.878 24.464s-2.009 1.537-.924 4.271c.554 1.396-.409 3.892-.923 4.157-1.616.83-2.451 2.42-2.567 3.46 0 0 3.863 2.551 4.924 2.797 1.501.346 1.791-2.462.414-5.45-.497-1.08.029-2.423.761-2.998 1.616-1.27 1.931-4.094 1.007-5.595"/><path fill="#304454" d="M194.379 30.473c-.361.28-.119 1.248.297 1.717.139-.615.481-1.17.887-1.49.83-.651 1.315-1.712 1.467-2.796l-.717-.773-.937.117s-1.173.585-.998 1.348c.177.762.529 1.465.001 1.877z"/><path fill="#f3b37c" d="M188.456 39.206s-.167-4.14 2.855-4.198c2.308-.043 3.687 2.627 3.804 4.588l-4.7.057-.784-2.575-.671 2.35-.504-.222z"/><path fill="#d78334" d="M174.304 39.43l1.846-.448.168-1.735-.952-.84-.783.728z"/><path fill="#d1d3d4" d="M179.221 24.464s-2.008 1.537-.923 4.271c.553 1.396-.411 3.892-.924 4.157-1.616.83-2.452 2.42-2.567 3.46 0 0 3.862 2.551 4.923 2.797 1.5.346 1.791-2.462.414-5.45-.496-1.08.029-2.423.762-2.998 1.616-1.27 1.93-4.094 1.007-5.595"/><path fill="#304454" d="M176.708 35.956s.967-2.42 1.936-2.056c.967.363.363 1.21 1.33 1.21a1.24 1.24 0 0 1 1.211.846l-2.225 1.024-2.252-1.023z"/><path fill="#f3b37c" d="M173.8 39.206s-.167-4.14 2.853-4.198c2.309-.043 3.689 2.627 3.805 4.588l-4.7.057-.783-2.575-.671 2.35-.504-.222z"/><path fill="#d78334" d="M177.846 40.146l1.935-.47.176-1.817-.997-.878-.821.76z"/><path fill="#efefef" d="M180.821 11.279s4.244 1.774 8.34 1.722c4.572-.06 8.559-4.573 11.62-2.206 2.872 2.222 2.945 17.465-9.315 19.234-11.733 1.693-17.899-7.647-14.089-12.748 3.655-4.893 3.444-6.002 3.444-6.002z"/><path fill="#d1d3d4" d="M202.138 13.707c-1.272-1.57-2.44-1.441-2.44-1.441l1.006 3.465s.975.304 1.661.227c-.017-.81-.096-1.57-.227-2.251zM186.874 26.896c-.703-1.818-1.524-1.642-1.524-1.642l-.913 4.413c.705.197 1.451.345 2.234.442.313-.815.637-2.092.203-3.213z"/><path fill="#efefef" d="M182.999 24.464s-2.105 1.611-.969 4.476c.58 1.462-.429 4.078-.967 4.354-1.693.871-2.569 2.538-2.69 3.626 0 0 4.048 2.675 5.159 2.932 1.573.363 1.877-2.58.434-5.71-.521-1.13.031-2.54.797-3.142 1.693-1.33 2.024-4.29 1.056-5.864"/><path fill="#f3b37c" d="M177.318 39.91s-.176-4.337 2.99-4.396c2.419-.046 3.866 2.75 3.987 4.807l-4.925.06-.821-2.697-.703 2.462-.528-.236z"/><path fill="#304454" d="M183.649 26.544c-.334-.633-1.236-.391-1.851-.13-.166.678-.164 1.526.232 2.526.267.67.198 1.585-.007 2.404.982-.051 1.201-.633 1.099-.872-.176-.41-.353-1.29 0-1.76.352-.468 1.055-1.171.527-2.168z"/><path fill="#d78334" d="M192.503 40.146l1.934-.47.176-1.817-.997-.878-.82.76z"/><path fill="#efefef" d="M200.183 12.239s2.579 1.7 3.048 5.16c.469 3.458-2.755 7.738-2.755 7.738.967 1.573.638 4.533-1.055 5.863-.768.602-1.318 2.012-.798 3.142 1.442 3.13 1.138 6.074-.435 5.71-1.111-.256-5.158-2.931-5.158-2.931.12-1.088.996-2.755 2.689-3.626.538-.276 1.548-2.893.968-4.354-1.137-2.865.968-4.476.968-4.476s-4.097-1.79-3.746-5.542c.352-3.753 3.928-7.505 6.274-6.684z"/><path fill="#f3b37c" d="M191.975 39.91s-.177-4.337 2.99-4.396c2.419-.046 3.866 2.75 3.987 4.807l-4.925.06-.821-2.697-.703 2.462-.528-.236z"/><path fill="#304454" d="M198.306 26.544c-.334-.633-1.237-.391-1.851-.13-.166.678-.164 1.526.232 2.526.266.67.198 1.585-.007 2.404.981-.051 1.201-.633 1.099-.872-.176-.41-.352-1.29 0-1.76.351-.468 1.055-1.171.527-2.168zM187.346 14.411c.169-.608 1.29-1.759 1.994-.997.931 1.01-.058 1.525.234 2.053.293.527 1.055.117 1.349.703.293.586-.704 1.583-1.876.997-1.173-.587-1.994-1.7-1.701-2.756zM203.275 17.987c-.251-.535-.602-1.01-1.041-.94-1.113.175-1.23 1.29-.703 2.168.528.88-.06 1.466-.586 1.466-.528 0-1.795-.225-2.112.528-.468 1.113 1.114 2.228 2.288 1.231.459-.39.891-.592 1.276-.668.506-1.172.905-2.513.878-3.785zM197.152 34.263c-.241.968 1.192.72 1.603 1.406.261.434.446 1.268.765 1.6-.092-.926-.385-2.014-.896-3.127a2.107 2.107 0 0 1-.113-.311c-.615-.08-1.242-.036-1.359.432z"/><path fill="#304454" d="M196.359 10.653c-2.166.828-4.587 2.315-7.198 2.348a15.68 15.68 0 0 1-.97-.02l.028.047c-1.041-.107-2.627 1.098-2.693 2.068-.113 1.72.928 2.709-.284 3.636-1.213.927.784 3.066 1.498 2.21.206-.248.541-.326.908-.36-.193 1.009 1.268 2.347 1.858 1.639.469-.563 1.591-.268 2.281-.5 1.069-.355 1.069-1.211 1.498-2.28.427-1.07 1.496-.57 1.923-1.212.429-.642-.498-1.64-1.425-1.497-.812.124-.858-1.226-1.957-2.042 1.573-.825 2.235-2.381 3.608-2.274 1.13.085 1.454-.987.925-1.763z"/><ellipse cx="179.766" cy="14.693" rx="4.772" ry="5.016" fill="#d1d3d4"/><ellipse cx="179.52" cy="19.709" rx="4.772" ry="5.016" fill="#d1d3d4" transform="rotate(7.938 179.52 19.709)"/><path fill="#304454" d="M176.805 23.424c.509 1.251 1.361 2.46 2.521 3.504.843-.085 1.155-1.325.69-1.79-.529-.528-1.056-.177-1.466-.704-.411-.528.176-1.466-.646-1.759-.442-.158-.832.296-1.099.75zM181.223 9.363s.15-4.565 3.297-4.677c3.148-.11 5.545 2.784 4.047 4.454-1.499 1.67-6.294 1.558-6.294 1.558l-1.05-1.335zM173.033 6.795s-3.903-3.378-5.581-1.71c-1.678 1.667-.46 5.2 1.696 5.63 2.155.433 4.476-2.323 4.476-2.323l-.591-1.597z"/><ellipse cx="176.793" cy="12.104" rx="7.16" ry="7.939" fill="#efefef"/><path fill="#304454" d="M182.155 6.846c-1.312-1.644-3.226-2.682-5.362-2.682-.442 0-.872.047-1.293.133-.377.548-.626 1.207-.533 1.665.233 1.119 1.085 1.082 1.95.639.864-.446 2.137-.37 2.908.634.433.56 2.339.783 2.33-.39z"/><path fill="#f4dbc5" d="M179.641 6.302c-.393-.263-.606-.457-.684-.93 0 0 .775-.944.784-1.767.012-1.004-.6-1.953-.338-2.229.251-.267 1.652-.02 2.088 1.904.352 1.555-.664 3.281-.664 3.281s-.65.098-1.186-.259zM174.066 6.302c.393-.263.606-.457.684-.93 0 0-.775-.944-.785-1.767-.011-1.004.601-1.953.34-2.229-.251-.267-1.654-.02-2.089 1.904-.351 1.555.664 3.281.664 3.281s.65.098 1.186-.259z"/><ellipse cx="173.446" cy="14.756" rx=".556" ry=".772" fill="#304454" transform="rotate(1.559 173.446 14.756)"/><ellipse cx="180.076" cy="14.595" rx=".556" ry=".772" fill="#304454" transform="rotate(1.559 180.076 14.595)"/><path fill="#f4dbc5" d="M182.708 19.966c0 2.45-2.614 4.436-5.839 4.436-3.223 0-5.837-1.985-5.837-4.436s2.614-4.438 5.837-4.438c3.225 0 5.839 1.987 5.839 4.438z"/><ellipse cx="171.762" cy="19.195" rx="1.37" ry="1.041" fill="#f4dbc5" transform="rotate(24.81 171.762 19.195)"/><ellipse cx="172.168" cy="19.737" rx="1.163" ry=".884" fill="#c75e72" opacity=".7" transform="rotate(40.519 172.168 19.737)"/><ellipse cx="181.981" cy="18.98" rx="1.37" ry="1.041" fill="#f4dbc5" transform="rotate(-14.732 181.98 18.98)"/><ellipse cx="181.634" cy="19.342" rx="1.163" ry=".884" fill="#c75e72" opacity=".7" transform="rotate(-35.073 181.634 19.342)"/><path fill="#304454" d="M196.52 28.38c-.361-.942-1.062-1.594-1.492-.94-.233.352-.576.445-.945.468.302-1.484-1.011-3.577-1.675-2.57-.529.802-1.616.283-2.329.575-1.105.451-1.198 1.722-1.741 3.28-.239.688-.572.911-.91 1.026 1.313.114 2.726.081 4.232-.136 1.906-.275 3.514-.877 4.86-1.704z"/><path fill="#d1d3d4" d="M240.404 11.86a.287.287 0 1 0 .216.532c.023-.01 2.278-.904 3.71-.138.572.306.942.851 1.103 1.623l.369 1.887c.414 2.2.603 3.203 1.587 3.75a.288.288 0 0 0 .28-.502c-.748-.416-.91-1.277-1.302-3.354l-.371-1.897c-.196-.947-.665-1.625-1.396-2.014-1.67-.893-4.093.07-4.196.113z"/><path fill="#304454" d="M247.597 21.254c-.434-.65-.808-1.769.058-2.34.603-.397 1.486-.237 1.972.795.63 1.338-.095 2.02.373 2.898 0 0-1.7-.298-2.403-1.353zM246.192 14.77l-.197-1.009c-.196-.947-.665-1.625-1.396-2.015l-.037-.018a.884.884 0 0 0 .278.335c.585.41.879 1.29.879 1.877 0 .293.177.618.473.83z"/><path fill="#d78334" d="M230.627 39.43l1.846-.448.168-1.735-.951-.84-.782.728z"/><path fill="#d1d3d4" d="M235.545 24.464s-2.009 1.537-.924 4.271c.554 1.396-.409 3.892-.923 4.157-1.616.83-2.451 2.42-2.567 3.46 0 0 3.863 2.551 4.924 2.797 1.501.346 1.791-2.462.414-5.45-.497-1.08.029-2.423.761-2.998 1.616-1.27 1.931-4.094 1.007-5.595"/><path fill="#304454" d="M236.045 30.473c-.361.28-.119 1.248.297 1.717.139-.615.481-1.17.887-1.49.83-.651 1.315-1.712 1.467-2.796l-.717-.773-.937.117s-1.173.585-.998 1.348c.177.762.529 1.465.001 1.877z"/><path fill="#f3b37c" d="M230.123 39.206s-.167-4.14 2.855-4.198c2.308-.043 3.687 2.627 3.804 4.588l-4.7.057-.784-2.575-.671 2.35-.504-.222z"/><path fill="#d78334" d="M215.971 39.43l1.846-.448.168-1.735-.952-.84-.783.728z"/><path fill="#d1d3d4" d="M220.888 24.464s-2.008 1.537-.923 4.271c.553 1.396-.411 3.892-.924 4.157-1.616.83-2.452 2.42-2.567 3.46 0 0 3.862 2.551 4.923 2.797 1.5.346 1.791-2.462.414-5.45-.496-1.08.029-2.423.762-2.998 1.616-1.27 1.93-4.094 1.007-5.595"/><path fill="#304454" d="M218.374 35.956s.967-2.42 1.936-2.056c.967.363.363 1.21 1.33 1.21a1.24 1.24 0 0 1 1.211.846l-2.225 1.024-2.252-1.023z"/><path fill="#f3b37c" d="M215.467 39.206s-.167-4.14 2.853-4.198c2.309-.043 3.689 2.627 3.805 4.588l-4.7.057-.783-2.575-.671 2.35-.504-.222z"/><path fill="#d78334" d="M219.512 40.146l1.935-.47.176-1.817-.997-.878-.821.76z"/><path fill="#efefef" d="M222.488 11.279s4.244 1.774 8.34 1.722c4.572-.06 8.559-4.573 11.62-2.206 2.872 2.222 2.945 17.465-9.315 19.234-11.733 1.693-17.899-7.647-14.089-12.748 3.655-4.893 3.444-6.002 3.444-6.002z"/><path fill="#d1d3d4" d="M243.805 13.707c-1.272-1.57-2.44-1.441-2.44-1.441l1.006 3.465s.975.304 1.661.227c-.017-.81-.096-1.57-.227-2.251zM228.54 26.896c-.703-1.818-1.524-1.642-1.524-1.642l-.913 4.413c.705.197 1.451.345 2.234.442.313-.815.637-2.092.203-3.213z"/><path fill="#efefef" d="M224.666 24.464s-2.105 1.611-.969 4.476c.58 1.462-.429 4.078-.967 4.354-1.693.871-2.569 2.538-2.69 3.626 0 0 4.048 2.675 5.159 2.932 1.573.363 1.877-2.58.434-5.71-.521-1.13.031-2.54.797-3.142 1.693-1.33 2.024-4.29 1.056-5.864"/><path fill="#f3b37c" d="M218.984 39.91s-.176-4.337 2.99-4.396c2.419-.046 3.866 2.75 3.987 4.807l-4.925.06-.821-2.697-.703 2.462-.528-.236z"/><path fill="#304454" d="M225.316 26.544c-.334-.633-1.236-.391-1.851-.13-.166.678-.164 1.526.232 2.526.267.67.198 1.585-.007 2.404.982-.051 1.201-.633 1.099-.872-.176-.41-.353-1.29 0-1.76.352-.468 1.055-1.171.527-2.168z"/><path fill="#d78334" d="M234.17 40.146l1.934-.47.176-1.817-.997-.878-.82.76z"/><path fill="#efefef" d="M241.85 12.239s2.579 1.7 3.048 5.16c.469 3.458-2.755 7.738-2.755 7.738.967 1.573.638 4.533-1.055 5.863-.768.602-1.318 2.012-.798 3.142 1.442 3.13 1.138 6.074-.435 5.71-1.111-.256-5.158-2.931-5.158-2.931.12-1.088.996-2.755 2.689-3.626.538-.276 1.548-2.893.968-4.354-1.137-2.865.968-4.476.968-4.476s-4.097-1.79-3.746-5.542c.352-3.753 3.928-7.505 6.274-6.684z"/><path fill="#f3b37c" d="M233.642 39.91s-.177-4.337 2.99-4.396c2.419-.046 3.866 2.75 3.987 4.807l-4.925.06-.821-2.697-.703 2.462-.528-.236z"/><path fill="#304454" d="M239.973 26.544c-.334-.633-1.237-.391-1.851-.13-.166.678-.164 1.526.232 2.526.266.67.198 1.585-.007 2.404.981-.051 1.201-.633 1.099-.872-.176-.41-.352-1.29 0-1.76.351-.468 1.055-1.171.527-2.168zM229.013 14.411c.169-.608 1.29-1.759 1.994-.997.931 1.01-.058 1.525.234 2.053.293.527 1.055.117 1.349.703.293.586-.704 1.583-1.876.997-1.173-.587-1.994-1.7-1.701-2.756zM244.942 17.987c-.251-.535-.602-1.01-1.041-.94-1.113.175-1.23 1.29-.703 2.168.528.88-.06 1.466-.586 1.466-.528 0-1.795-.225-2.112.528-.468 1.113 1.114 2.228 2.288 1.231.459-.39.891-.592 1.276-.668.506-1.172.905-2.513.878-3.785zM238.818 34.263c-.241.968 1.192.72 1.603 1.406.261.434.446 1.268.765 1.6-.092-.926-.385-2.014-.896-3.127a2.107 2.107 0 0 1-.113-.311c-.615-.08-1.242-.036-1.359.432z"/><path fill="#304454" d="M238.026 10.653c-2.166.828-4.587 2.315-7.198 2.348a15.68 15.68 0 0 1-.97-.02l.028.047c-1.041-.107-2.627 1.098-2.693 2.068-.113 1.72.928 2.709-.284 3.636-1.213.927.784 3.066 1.498 2.21.206-.248.541-.326.908-.36-.193 1.009 1.268 2.347 1.858 1.639.469-.563 1.591-.268 2.281-.5 1.069-.355 1.069-1.211 1.498-2.28.427-1.07 1.496-.57 1.923-1.212.429-.642-.498-1.64-1.425-1.497-.812.124-.858-1.226-1.957-2.042 1.573-.825 2.235-2.381 3.608-2.274 1.13.085 1.454-.987.925-1.763z"/><ellipse cx="221.433" cy="14.693" rx="4.772" ry="5.016" fill="#d1d3d4"/><ellipse cx="221.187" cy="19.709" rx="4.772" ry="5.016" fill="#d1d3d4" transform="rotate(7.938 221.187 19.709)"/><path fill="#304454" d="M218.472 23.424c.509 1.251 1.361 2.46 2.521 3.504.843-.085 1.155-1.325.69-1.79-.529-.528-1.056-.177-1.466-.704-.411-.528.176-1.466-.646-1.759-.442-.158-.832.296-1.099.75zM222.89 9.363s.15-4.565 3.297-4.677c3.148-.11 5.545 2.784 4.047 4.454-1.499 1.67-6.294 1.558-6.294 1.558l-1.05-1.335zM214.7 6.795s-3.903-3.378-5.581-1.71c-1.678 1.667-.46 5.2 1.696 5.63 2.155.433 4.476-2.323 4.476-2.323l-.591-1.597z"/><ellipse cx="218.46" cy="12.104" rx="7.16" ry="7.939" fill="#efefef"/><path fill="#304454" d="M223.822 6.846c-1.312-1.644-3.226-2.682-5.362-2.682-.442 0-.872.047-1.293.133-.377.548-.626 1.207-.533 1.665.233 1.119 1.085 1.082 1.95.639.864-.446 2.137-.37 2.908.634.433.56 2.339.783 2.33-.39z"/><path fill="#f4dbc5" d="M221.307 6.302c-.393-.263-.606-.457-.684-.93 0 0 .775-.944.784-1.767.012-1.004-.6-1.953-.338-2.229.251-.267 1.652-.02 2.088 1.904.352 1.555-.664 3.281-.664 3.281s-.65.098-1.186-.259zM215.733 6.302c.393-.263.606-.457.684-.93 0 0-.775-.944-.785-1.767-.011-1.004.601-1.953.34-2.229-.251-.267-1.654-.02-2.089 1.904-.351 1.555.664 3.281.664 3.281s.65.098 1.186-.259z"/><ellipse cx="215.113" cy="14.756" rx=".556" ry=".772" fill="#304454" transform="rotate(1.559 215.113 14.756)"/><ellipse cx="221.743" cy="14.595" rx=".556" ry=".772" fill="#304454" transform="rotate(1.559 221.743 14.595)"/><path fill="#f4dbc5" d="M224.375 19.966c0 2.45-2.614 4.436-5.839 4.436-3.223 0-5.837-1.985-5.837-4.436s2.614-4.438 5.837-4.438c3.225 0 5.839 1.987 5.839 4.438z"/><ellipse cx="213.429" cy="19.195" rx="1.37" ry="1.041" fill="#f4dbc5" transform="rotate(24.81 213.43 19.195)"/><ellipse cx="213.834" cy="19.737" rx="1.163" ry=".884" fill="#c75e72" opacity=".7" transform="rotate(40.519 213.834 19.737)"/><ellipse cx="223.647" cy="18.98" rx="1.37" ry="1.041" fill="#f4dbc5" transform="rotate(-14.732 223.647 18.98)"/><ellipse cx="223.301" cy="19.342" rx="1.163" ry=".884" fill="#c75e72" opacity=".7" transform="rotate(-35.073 223.3 19.342)"/><path fill="#304454" d="M238.186 28.38c-.361-.942-1.062-1.594-1.492-.94-.233.352-.576.445-.945.468.302-1.484-1.011-3.577-1.675-2.57-.529.802-1.616.283-2.329.575-1.105.451-1.198 1.722-1.741 3.28-.239.688-.572.911-.91 1.026 1.313.114 2.726.081 4.232-.136 1.906-.275 3.514-.877 4.86-1.704z"/></svg>
