<svg xmlns="http://www.w3.org/2000/svg" version="1.1" width="100" height="50" viewBox="0 0 100 50"><defs><linearGradient id="r-e79ef7a3095e479182b9fa3bd5ab0f10" x1="0" y1="0.0948800277469175" x2="1" y2="0"><stop offset="0%" stop-color="#fdd1b0"/><stop offset="24.44%" stop-color="#f3c2a0"/><stop offset="65.91%" stop-color="#dfa27e"/><stop offset="100%" stop-color="#cc8461"/></linearGradient><linearGradient id="r-11f8f82ae024478c8f2e7d2200ec3bad" x1="0" y1="0" x2="1" y2="0.1321852083460825"><stop offset="0%" stop-color="#fdd1b0"/><stop offset="24.44%" stop-color="#f3c2a0"/><stop offset="65.91%" stop-color="#dfa27e"/><stop offset="100%" stop-color="#cc8461"/></linearGradient><radialGradient id="r-fd6f182df7624c0589e2b331e1ad0401" fx="0.5" fy="0.5"><stop offset="0%" stop-color="#fee6d3"/><stop offset="100%" stop-color="#fdd1b0"/></radialGradient><radialGradient id="r-fa8563a8dd7144e786f98be2f3b6e43a" fx="0.5" fy="0.5"><stop offset="0%" stop-color="#f69896"/><stop offset="43.76%" stop-color="#f9b2a2"/><stop offset="100%" stop-color="#fdd1b0"/></radialGradient><radialGradient id="r-3c900a14b71e415a9ecb6d86cb5f45c8" fx="0.5" fy="0.5"><stop offset="0%" stop-color="#fee6d3"/><stop offset="100%" stop-color="#fdd1b0"/></radialGradient><radialGradient id="r-6a39b7cb7a6643749cbaefbcc7a57f61" fx="0.5" fy="0.5"><stop offset="0%" stop-color="#fee6d3"/><stop offset="100%" stop-color="#fdd1b0"/></radialGradient><radialGradient id="r-a85c9c4587bc4ba198b1e52d48a6fc17" fx="0.5" fy="0.5"><stop offset="0%" stop-color="#fee6d3"/><stop offset="100%" stop-color="#fdd1b0"/></radialGradient><linearGradient id="r-ff1246c56a754d26a29861c56009983c" x1="1" y1="0.1642939659035408" x2="0" y2="0"><stop offset="0%" stop-color="#fdd1b0"/><stop offset="35.75%" stop-color="#f3bf9c"/><stop offset="100%" stop-color="#e19a75"/></linearGradient><radialGradient id="r-fa400ec6970e450d8840d507e9a8d039" fx="0.5" fy="0.5"><stop offset="0%" stop-color="#fee6d3"/><stop offset="100%" stop-color="#fdd1b0"/></radialGradient><radialGradient id="r-8099183af038407c86f703cefd729c89" fx="0.5" fy="0.5"><stop offset="0%" stop-color="#fee6d3"/><stop offset="100%" stop-color="#fdd1b0"/></radialGradient><radialGradient id="r-d4ff5c1491274690ad91488117d1df08" fx="0.5" fy="0.5"><stop offset="0%" stop-color="#fee6d3"/><stop offset="100%" stop-color="#fdd1b0"/></radialGradient><radialGradient id="r-f3e7abbfdc7b4ba8bc582128aeb646b9" fx="0.5" fy="0.5"><stop offset="0%" stop-color="#fee6d3"/><stop offset="100%" stop-color="#fdd1b0"/></radialGradient><radialGradient id="r-acbbede1ba3a4a6981bbc958c7b9e0d0" fx="0.5" fy="0.5"><stop offset="0%" stop-color="#fee6d3"/><stop offset="100%" stop-color="#fcc7a3"/></radialGradient></defs><path fill="url(#r-e79ef7a3095e479182b9fa3bd5ab0f10)" stroke="none" d="M 36.0644,49.2685 S 36.5824,49.1965 36.9314,49.4425 C 37.4304,49.7905 38.0184,49.4425 37.5774,48.9055 C 37.1354,48.3675 35.4084,48.1375 34.9904,48.3085 C 34.5714,48.4815 36.0644,49.2685 36.0644,49.2685 Z" opacity="1" fill-opacity="1" style="opacity: 1;fill-opacity: 1" transform=""/><path fill="url(#r-11f8f82ae024478c8f2e7d2200ec3bad)" stroke="none" d="M 35.9164,49.467 S 36.4324,49.394 36.7814,49.639 C 37.2814,49.99 37.8704,49.641 37.4284,49.104 C 36.9874,48.567 35.6514,48.188 35.2314,48.361 C 34.8124,48.534 35.9164,49.467 35.9164,49.467 Z" opacity="1" fill-opacity="1" style="opacity: 1;fill-opacity: 1" transform=""/><path fill="url(#r-fd6f182df7624c0589e2b331e1ad0401)" stroke="none" d="M 34.8607,47.3792 S 35.0327,48.3562 36.0817,48.4872 C 36.7247,48.5662 37.2597,49.5132 36.8087,49.8642 C 36.4067,50.1752 36.4107,49.9062 35.9367,49.5122 C 35.6327,49.2542 35.2067,49.3342 34.7727,49.3772 C 34.2767,49.4262 33.9047,48.9192 33.4307,48.9572 C 32.9597,48.9892 32.2927,49.4822 32.0907,49.3022 C 31.9047,49.1372 31.8257,48.4052 33.4637,47.3912 C 33.6187,47.2952 33.6037,46.9312 33.7867,46.8132 C 34.2157,46.5392 34.8607,47.3792 34.8607,47.3792 Z" opacity="1" fill-opacity="1" style="opacity: 1;fill-opacity: 1" transform=""/><path fill="#d14e3f" stroke="none" d="M 25.6193,35.9896 S 30.9423,37.9896 33.3273,41.2606 C 35.3863,44.0856 35.3583,46.2976 34.8983,47.5806 L 34.5433,47.1866 L 34.1393,47.4896 L 33.8863,47.0406 L 33.4633,47.3926 S 33.9843,44.1066 30.7723,41.1536 C 27.1353,37.8186 24.8583,38.7836 24.8583,38.7836 L 25.6193,35.9896 Z" transform=""/><path fill="#d14e3f" stroke="none" d="M 21.6592,36.5409 S 16.0082,35.9109 12.3992,37.7469 C 9.28422,39.3339 8.30822,41.3169 8.13422,42.6689 L 8.62922,42.4789 L 8.85322,42.9309 L 9.28222,42.6469 L 9.50022,43.1509 S 10.5222,39.9879 14.7252,38.8119 C 19.4782,37.4839 21.0722,39.3769 21.0722,39.3769 L 21.6592,36.5409 Z" transform=""/><path fill="#d14e3f" stroke="none" d="M 19.9398,7.74115 S 20.4298,5.27415 18.9888,4.24415 C 17.6318,3.27315 16.6468,1.42315 17.3808,0.863151 C 18.1158,0.305151 18.7488,-0.201849 19.3238,0.369151 C 19.8778,0.912151 19.7758,1.80315 20.8348,2.57315 C 21.1218,2.78515 21.5198,3.03615 22.1798,3.34415 C 22.7388,3.60515 22.9638,4.41815 22.5278,5.05815 C 21.8838,6.00315 22.0078,7.46715 21.2768,8.39015 C 20.0138,9.98215 19.9398,7.74115 19.9398,7.74115 Z" transform=""/><path fill="#d14e3f" stroke="none" d="M 23.722,18.3235 S 19.892,15.7115 19.691,10.7965 C 19.666,10.1395 19.749,8.82354 19.837,8.02554 C 19.853,7.88354 19.385,7.43454 19.116,7.02954 C 19.246,7.06754 19.704,7.28454 19.989,7.47054 C 20.125,7.33654 20.201,7.15154 20.336,6.98154 L 20.578,7.49054 L 20.906,6.94654 L 21.218,7.45754 L 21.489,7.02054 S 21.657,7.15454 21.773,7.30554 C 21.909,7.23854 22.078,7.27254 22.499,7.05454 C 21.975,7.64354 21.733,7.90954 21.705,8.04854 C 21.541,8.83954 21.043,10.2405 21.36,11.3345 C 21.659,12.3785 21.83,15.3265 25.018,16.2575 C 26.014,16.5485 23.722,18.3235 23.722,18.3235 Z" transform=""/><path fill="#d14e3f" stroke="none" d="M 17.558,1.99981 S 16.855,1.45681 16.999,1.05381 C 17.147,0.647813 18.193,0.611813 18.355,1.28781" transform=""/><path fill="#d14e3f" stroke="none" d="M 17.8439,1.69514 S 17.1389,1.15314 17.2849,0.74914 C 17.4309,0.34414 18.4799,0.30814 18.6409,0.98214" transform=""/><path fill="#d14e3f" stroke="none" d="M 18.2366,1.40795 S 17.5326,0.864948 17.6776,0.461948 C 17.8236,0.055948 18.8726,0.017948 19.0346,0.697948" transform=""/><path fill="#d14e3f" stroke="none" d="M 18.5981,1.23813 S 17.8931,0.69713 18.0371,0.29013 C 18.1851,-0.11287 19.2341,-0.14987 19.3951,0.52513" transform=""/><path fill="#d14e3f" stroke="none" d="M 37.2344,14.4621 S 38.6014,12.3511 40.3524,12.6131 C 42.0014,12.8591 43.9994,12.2191 43.8584,11.3071 C 43.7184,10.3931 43.6184,9.58906 42.8094,9.59706 C 42.0334,9.60306 41.4844,10.3131 40.1904,10.1321 C 39.8374,10.0821 39.3764,9.98706 38.6884,9.74906 C 38.1044,9.54706 37.3764,9.97406 37.2444,10.7361 C 37.0494,11.8641 35.9404,12.8291 35.8224,13.9991 C 35.6214,16.0201 37.2344,14.4621 37.2344,14.4621 Z" transform=""/><path fill="#d14e3f" stroke="none" d="M 27.1539,19.428 S 31.7219,20.219 35.2849,16.831 C 35.7629,16.374 36.6189,15.372 37.1109,14.738 C 37.1999,14.625 37.8479,14.631 38.3209,14.526 C 38.2029,14.461 37.7229,14.3 37.3869,14.234 C 37.3839,14.044 37.4589,13.858 37.4789,13.644 L 36.9519,13.837 L 37.0939,13.22 L 36.5139,13.37 L 36.6249,12.865 S 36.4099,12.848 36.2209,12.873 C 36.1709,12.731 36.0249,12.638 35.8749,12.19 C 35.8399,12.976 35.8319,13.335 35.7529,13.454 C 35.3199,14.136 34.7039,15.488 33.7159,16.056 C 32.7739,16.595 30.5979,18.593 27.6609,17.043 C 26.7429,16.559 27.1539,19.428 27.1539,19.428 Z" transform=""/><path fill="#d14e3f" stroke="none" d="M 42.9401,11.9985 S 43.8231,12.0985 43.9991,11.7085 C 44.1771,11.3165 43.4511,10.5605 42.8631,10.9335" transform=""/><path fill="#d14e3f" stroke="none" d="M 42.9482,11.5814 S 43.8312,11.6844 44.0082,11.2934 C 44.1852,10.8994 43.4572,10.1464 42.8722,10.5184" transform=""/><path fill="#d14e3f" stroke="none" d="M 42.8665,11.1013 S 43.7485,11.2043 43.9255,10.8113 C 44.1035,10.4193 43.3755,9.66329 42.7885,10.0373" transform=""/><path fill="#d14e3f" stroke="none" d="M 42.7254,10.7279 S 43.6084,10.8289 43.7844,10.4379 C 43.9614,10.0459 43.2344,9.28994 42.6464,9.66294" transform=""/><path fill="#d14e3f" stroke="none" d="M 21.6399,24.5194 S 20.0969,17.2824 23.4319,15.5494 C 25.8609,14.2874 30.0199,15.4334 29.8579,19.2094 C 29.6859,23.2124 24.4579,25.6744 24.4579,25.6744 L 21.6399,24.5194 Z" transform=""/><path fill="url(#r-fa8563a8dd7144e786f98be2f3b6e43a)" stroke="none" d="M 29.5139,17.3202 C 28.5879,15.3102 26.0029,14.6612 24.0639,15.2882 C 23.8809,15.6362 23.7759,16.0202 23.7759,16.4282 C 23.7759,17.8962 25.0989,19.0862 26.7309,19.0862 C 28.0159,19.0852 29.1039,18.3512 29.5139,17.3202 Z" opacity="1" fill-opacity="1" style="opacity: 1;fill-opacity: 1" transform=""/><path fill="url(#r-3c900a14b71e415a9ecb6d86cb5f45c8)" stroke="none" d="M 29.085,29.6757 C 29.207,28.5497 28.556,27.3247 28.08,26.9747 C 26.563,25.8567 27.001,23.8177 28.212,22.7637 C 29.566,21.5867 31.249,21.8027 32.034,22.0397 C 34.809,22.8707 35.958,26.6497 35.265,29.2257 C 34.58,31.7817 32.413,34.3867 30.054,32.9107 C 28.908,32.1947 28.893,31.4327 29.085,29.6757 Z" opacity="1" fill-opacity="1" style="opacity: 1;fill-opacity: 1" transform=""/><path fill="#e2bda1" stroke="none" d="M 28.2297,26.3855 C 27.9087,25.7885 28.0157,23.5505 30.3427,22.9925 C 32.8537,22.3925 35.0797,25.1315 35.1707,26.9585 C 35.2917,29.3935 34.0137,32.0265 32.1407,32.7365 C 31.4427,32.9995 32.6527,30.7785 30.9097,30.7965 C 29.5197,30.8145 29.5317,29.3895 30.0277,28.4255 C 30.5237,27.4625 28.7707,27.4055 28.2297,26.3855 Z" transform=""/><path fill="#fcc7a3" stroke="none" d="M 32.2834,27.9563 C 31.4794,27.2013 30.4464,27.4723 29.9044,27.6983 C 30.1084,27.8863 30.1934,28.1063 30.0274,28.4263 C 29.5314,29.3903 29.5194,30.8153 30.9084,30.7973 C 31.5724,30.7903 31.8074,31.1083 31.8844,31.4883 C 32.5984,30.5213 33.1534,28.7733 32.2834,27.9563 Z" transform=""/><path fill="#db9e75" stroke="none" d="M 31.9781,28.3253 C 31.3691,27.7543 30.6191,27.8243 30.0981,27.9843 C 30.1331,28.1103 30.1171,28.2543 30.0271,28.4263 C 30.0161,28.4503 30.0031,28.4753 29.9921,28.5033 C 29.9851,28.5783 29.9631,28.6623 29.9151,28.7563 C 29.8781,28.8293 29.8431,28.9033 29.8131,28.9793 C 29.5721,29.8573 29.7701,30.8133 30.9091,30.7973 C 31.4301,30.7923 31.6891,30.9873 31.8101,31.2583 C 32.3561,30.3463 32.6901,28.9963 31.9781,28.3253 Z" transform=""/><path fill="url(#r-6a39b7cb7a6643749cbaefbcc7a57f61)" stroke="none" d="M 13.4724,33.9112 C 12.7984,33.0042 12.7384,31.6172 12.9734,31.0742 C 13.7164,29.3432 12.3104,27.8052 10.7324,27.5082 C 8.96638,27.1772 7.62638,28.2152 7.06738,28.8162 C 5.09338,30.9352 6.01338,34.7742 7.91238,36.6492 C 9.79738,38.5092 12.9824,39.6602 14.2724,37.1932 C 14.8984,35.9972 14.5264,35.3332 13.4724,33.9112 Z" opacity="1" fill-opacity="1" style="opacity: 1;fill-opacity: 1" transform=""/><path fill="#e2bda1" stroke="none" d="M 12.5465,30.6447 C 12.5205,29.9627 11.2975,28.0867 9.0075,28.7817 C 6.5375,29.5317 6.0025,33.0207 6.8485,34.6437 C 7.9745,36.8067 10.4085,38.4317 12.3835,38.0987 C 13.1175,37.9717 10.9495,36.6667 12.4665,35.8017 C 13.6725,35.1147 12.9425,33.8917 12.0265,33.3127 C 11.1095,32.7317 12.5935,31.7937 12.5465,30.6447 Z" transform=""/><path fill="#fcc7a3" stroke="none" d="M 9.8444,34.0448 C 10.1554,32.9858 11.1834,32.6988 11.7644,32.6208 C 11.6824,32.8868 11.7234,33.1178 12.0254,33.3128 C 12.9414,33.8908 13.6724,35.1148 12.4664,35.8018 C 11.8874,36.1318 11.8454,36.5248 11.9714,36.8918 C 10.8664,36.4188 9.5044,35.1898 9.8444,34.0448 Z" transform=""/><path fill="#db9e75" stroke="none" d="M 10.2927,34.2096 C 10.5297,33.4106 11.2127,33.0916 11.7427,32.9646 C 11.7747,33.0916 11.8627,33.2066 12.0257,33.3126 C 12.0497,33.3246 12.0737,33.3396 12.0947,33.3576 C 12.1387,33.4216 12.1997,33.4826 12.2907,33.5386 C 12.3577,33.5826 12.4257,33.6306 12.4917,33.6796 C 13.1407,34.3156 13.4547,35.2396 12.4657,35.8016 C 12.0107,36.0616 11.8887,36.3596 11.9187,36.6566 C 10.9867,36.1456 10.0177,35.1496 10.2927,34.2096 Z" transform=""/><path fill="url(#r-a85c9c4587bc4ba198b1e52d48a6fc17)" stroke="none" d="M 30.9586,29.6514 C 32.3656,34.8354 29.3026,40.1834 24.1176,41.5894 C 18.9306,42.9954 13.5866,39.9334 12.1786,34.7464 C 10.7726,29.5594 13.8346,24.2174 19.0206,22.8094 C 24.2076,21.4024 29.5506,24.4654 30.9586,29.6514 Z" opacity="1" fill-opacity="1" style="opacity: 1;fill-opacity: 1" transform=""/><path fill="#d14e3f" stroke="none" d="M 19.5009,25.1294 C 21.8879,22.4044 25.7729,23.4284 25.7729,23.4284 C 23.7409,22.4524 21.3659,22.1734 19.0209,22.8104 C 16.6769,23.4464 14.7689,24.8864 13.5079,26.7544 C 13.5089,26.7544 16.2149,23.9324 19.5009,25.1294 Z" transform=""/><path fill="#eeb490" stroke="none" d="M 23.3137,36.4841 C 23.3787,36.7221 23.1487,36.9881 22.8027,37.0841 C 22.4557,37.1761 22.1227,37.0611 22.0597,36.8271 C 21.9947,36.5911 22.2247,36.3241 22.5697,36.2291 C 22.9177,36.1361 23.2517,36.2511 23.3137,36.4841 Z" transform=""/><path fill="#fee6d3" stroke="none" d="M 22.1631,40.3224 C 20.4651,41.2854 17.9311,40.8574 18.1061,39.5604 C 18.2811,38.2604 20.5151,38.0154 21.5661,38.4134 C 22.0831,38.6094 22.6641,38.4574 22.6641,38.4574 S 23.2451,38.3294 23.6161,37.9144 C 24.3691,37.0794 26.4671,36.2764 27.2181,37.3484 C 27.9681,38.4244 25.9081,39.9664 23.9601,39.8844 C 23.5531,39.8694 23.2741,39.8944 23.0361,39.9574 C 23.0351,39.9584 22.5141,40.1214 22.1631,40.3224 Z" transform=""/><path fill="#eeb490" stroke="none" d="M 22.0906,40.024 C 20.3946,40.988 17.8566,40.561 18.0326,39.262 C 18.2076,37.963 20.4426,37.717 21.4926,38.117 C 22.0116,38.314 22.5896,38.161 22.5896,38.161 S 23.1736,38.032 23.5446,37.619 C 24.2956,36.782 26.3926,35.98 27.1456,37.053 C 27.8946,38.127 25.8356,39.668 23.8866,39.589 C 23.4816,39.573 23.2006,39.598 22.9636,39.661 C 22.9636,39.662 22.4426,39.825 22.0906,40.024 Z" transform=""/><path fill="#7a3440" stroke="none" d="M 22.12,40.1414 C 20.422,41.1054 17.886,40.6784 18.061,39.3774 C 18.238,38.0794 20.472,37.8334 21.521,38.2324 C 22.038,38.4304 22.619,38.2784 22.619,38.2784 S 23.201,38.1494 23.572,37.7374 C 24.323,36.9004 26.423,36.0964 27.173,37.1704 C 27.925,38.2444 25.864,39.7844 23.916,39.7064 C 23.509,39.6904 23.229,39.7144 22.992,39.7784 C 22.991,39.7774 22.471,39.9424 22.12,40.1414 Z" transform=""/><path fill="#f16253" stroke="none" d="M 22.8898,39.4172 C 20.9378,38.9762 19.8158,40.0842 19.8158,40.0842 C 20.1808,40.3992 21.1958,40.1182 22.0838,40.0562 C 22.1598,40.0172 22.3348,39.9632 22.4108,39.9212 C 22.8508,39.6692 23.2918,39.6082 24.0648,39.6392 C 24.1838,39.6442 24.3018,39.6422 24.4228,39.6362 C 25.2808,39.1772 26.0648,38.5342 26.0648,38.5342 C 24.8558,37.9802 22.8898,39.4172 22.8898,39.4172 Z" transform=""/><path fill="#fffdfd" stroke="none" d="M 24.8589,37.5179 C 24.9229,37.3789 24.9209,37.1049 24.8859,36.8899 C 24.3509,37.0969 23.8629,37.4139 23.5719,37.7369 C 23.2009,38.1499 22.6189,38.2779 22.6189,38.2779 S 22.0379,38.4299 21.5209,38.2329 C 21.1089,38.0779 20.5189,38.0209 19.9399,38.0859 C 19.9799,38.3259 20.0539,38.5659 20.1989,38.6469 C 21.0359,39.1119 24.4409,38.3909 24.8589,37.5179 Z" transform=""/><path fill="#fffdfd" stroke="none" d="M 26.3211,38.0193 C 26.3391,38.3613 25.9051,38.6503 24.7961,39.1333 C 24.0931,39.4393 22.1381,39.9523 21.2681,39.9893 C 20.3561,40.0243 19.5031,40.2243 19.2141,39.8253 C 18.8801,39.3713 18.4871,39.4853 18.3781,39.7603 C 18.3601,39.9893 18.4981,40.2093 18.7371,40.4053 C 19.5761,40.8053 21.0241,40.7643 22.1211,40.1413 C 22.4711,39.9433 22.9921,39.7783 22.9921,39.7783 C 23.2301,39.7133 23.5101,39.6893 23.9161,39.7063 C 25.0571,39.7523 26.2381,39.2413 26.8671,38.5933 C 26.8951,38.5653 26.9211,38.5363 26.9451,38.5073 C 27.0881,38.2133 27.1331,37.9343 27.0661,37.6993 C 26.9361,37.3603 26.2831,37.2783 26.3211,38.0193 Z" transform=""/><path fill="#d14e3f" stroke="none" d="M 22.9229,25.8767 S 24.7669,25.2637 25.8519,27.0107 C 25.8519,27.0107 25.3919,26.6807 25.1799,26.6587 C 25.1799,26.6587 25.6209,26.9927 25.6289,27.6197 C 25.6289,27.6197 25.3169,27.1197 24.9579,26.9207 C 24.9579,26.9207 25.3859,27.4197 25.3089,28.1457 C 25.3089,28.1457 24.4839,26.1507 22.9229,25.8767 Z" transform=""/><path fill="#d14e3f" stroke="none" d="M 22.9229,25.7281 S 24.7669,25.1131 25.8519,26.8641 C 25.8519,26.8641 25.3919,26.5341 25.1799,26.5101 C 25.1799,26.5101 25.6209,26.8461 25.6289,27.4721 C 25.6289,27.4721 25.3169,26.9721 24.9579,26.7731 C 24.9579,26.7731 25.3859,27.2731 25.3089,27.9971 C 25.3089,27.9971 24.4839,26.0041 22.9229,25.7281 Z" transform=""/><path fill="#d14e3f" stroke="none" d="M 18.2279,27.5162 S 16.3289,27.1082 15.4409,28.9642 C 15.4409,28.9642 15.8619,28.5882 16.0699,28.5412 C 16.0699,28.5412 15.6679,28.9222 15.7289,29.5452 C 15.7289,29.5452 15.9849,29.0132 16.3199,28.7772 C 16.3199,28.7772 15.9509,29.3222 16.1049,30.0312 C 16.1049,30.0312 16.7069,27.9612 18.2279,27.5162 Z" transform=""/><path fill="#d14e3f" stroke="none" d="M 18.2117,27.3688 S 16.3127,26.9608 15.4237,28.8168 C 15.4237,28.8168 15.8457,28.4408 16.0547,28.3928 C 16.0547,28.3928 15.6517,28.7748 15.7137,29.3978 C 15.7137,29.3978 15.9687,28.8658 16.3047,28.6298 C 16.3047,28.6298 15.9337,29.1748 16.0897,29.8858 C 16.0887,29.8858 16.6897,27.8148 18.2117,27.3688 Z" transform=""/><path fill="none" stroke="#d14e3f" d="M 26.1307,16.601 S 24.4817,14.888 23.9747,11.846 C 23.5667,9.39102 24.9567,7.05102 26.9637,6.06402 C 31.1187,4.02602 34.6257,9.30402 30.4137,11.752" style="stroke-linecap: round;stroke-linejoin: round;stroke-width: 2.54820251971994px" stroke-width="2.54820251971994" stroke-linecap="round" stroke-linejoin="round" transform=""/><path fill="url(#r-ff1246c56a754d26a29861c56009983c)" stroke="none" d="M 9.89247,45.3027 S 10.8305,44.1737 10.3025,43.2597 C 10.0095,42.7537 9.39147,42.9027 9.11447,42.4617 C 8.80947,41.9757 8.24947,41.7717 7.91247,41.8567 C 7.21247,42.0317 6.59247,43.1577 6.59247,43.1577 L 9.89247,45.3027 Z" opacity="1" fill-opacity="1" style="opacity: 1;fill-opacity: 1" transform=""/><path fill="url(#r-fa400ec6970e450d8840d507e9a8d039)" stroke="none" d="M 6.99496,44.3387 C 6.72296,44.5157 6.11396,44.2877 6.14196,43.7477 C 6.16196,43.3837 7.47596,41.8167 8.09296,42.2177 C 8.40496,42.4217 7.93596,43.7167 6.99496,44.3387 Z" opacity="1" fill-opacity="1" style="opacity: 1;fill-opacity: 1" transform=""/><path fill="url(#r-8099183af038407c86f703cefd729c89)" stroke="none" d="M 7.74041,44.9912 C 7.47041,45.1682 6.86041,44.9392 6.88841,44.4002 C 6.90741,44.0362 8.21941,42.4692 8.83841,42.8712 C 9.15241,43.0742 8.68241,44.3692 7.74041,44.9912 Z" opacity="1" fill-opacity="1" style="opacity: 1;fill-opacity: 1" transform=""/><path fill="url(#r-d4ff5c1491274690ad91488117d1df08)" stroke="none" d="M 8.54891,45.4931 C 8.27891,45.6731 7.66691,45.4441 7.69591,44.9041 C 7.71591,44.5421 9.02891,42.9711 9.64691,43.3751 C 9.95891,43.5781 9.49091,44.8741 8.54891,45.4931 Z" opacity="1" fill-opacity="1" style="opacity: 1;fill-opacity: 1" transform=""/><path fill="url(#r-f3e7abbfdc7b4ba8bc582128aeb646b9)" stroke="none" d="M 9.3568,45.8915 C 9.0858,46.0705 8.4748,45.8425 8.5028,45.3025 C 8.5218,44.9385 9.6578,43.5275 10.2758,43.9295 C 10.5878,44.1325 10.2978,45.2715 9.3568,45.8915 Z" opacity="1" fill-opacity="1" style="opacity: 1;fill-opacity: 1" transform=""/><path fill="url(#r-acbbede1ba3a4a6981bbc958c7b9e0d0)" stroke="none" d="M 7.43261,42.7561 C 7.19861,42.5291 7.28961,41.8841 7.82161,41.7931 C 8.18061,41.7331 9.58861,42.5811 9.33061,43.2731 C 9.19961,43.6211 8.24261,43.5391 7.43261,42.7561 Z" opacity="1" fill-opacity="1" style="opacity: 1;fill-opacity: 1" transform=""/><ellipse cx="17.264558841539056" cy="34.578597020415344" rx="0.6636626922607609" ry="1.1019422877142455" fill="#304454" stroke="none" transform="rotate(-12.9203 17.264559161299967 34.578596045508114)" r="NaN"/><ellipse cx="25.568771320091507" cy="32.86106578631511" rx="0.6636626922607609" ry="1.1019422877142455" fill="#304454" stroke="none" transform="rotate(-12.9203 25.5687712683182 32.86106446845322)" r="NaN"/></svg>