<svg xmlns="http://www.w3.org/2000/svg" version="1.1" width="300" height="85.71428571428571" viewBox="0 0 300 85.71428571428571"><defs/><ellipse cx="34.19586786484784" cy="73.61921712879632" rx="8.48021666530682" ry="3.4588933387731897" fill="#42a8c1" stroke="none" transform="rotate(203.0782 34.19586599196465 73.61921801168478)" r="NaN"/><path fill="#49bbd6" stroke="none" d="M 18.7787,60.9294 C 17.7857,51.9524 21.4257,46.6764 25.9367,46.4104 C 32.0327,46.0514 35.7217,49.8864 34.7377,58.1834 C 34.5377,59.8774 43.0017,72.5944 34.8837,76.6414 C 27.9357,78.5484 4.85068,79.7054 4.40968,71.0794 C 3.86868,60.5154 18.9127,62.1404 18.7787,60.9294 Z" transform=""/><ellipse cx="7.063895159336733" cy="71.8988723470486" rx="7.063895527157479" ry="2.8813452261690475" fill="#49bbd6" stroke="none" transform="rotate(180.2177 7.063895373273289 71.89887239858709)" r="NaN"/><path fill="#42a8c1" stroke="none" d="M 25.8765,74.9081 C 21.8965,72.4391 19.5085,69.4871 18.5015,71.1101 C 17.8575,72.1491 15.8885,75.6961 16.7635,77.7101 C 20.4525,78.1711 26.3275,78.5551 29.8365,78.1851 C 28.8605,77.0671 27.5025,75.9171 25.8765,74.9081 Z" transform=""/><path fill="#49bbd6" stroke="none" d="M 30.2253,81.0053 C 31.7423,79.8763 30.3233,76.1243 27.0563,72.6243 S 19.9103,67.2033 18.3943,68.3323 C 16.8773,69.4613 18.2963,73.2133 21.5633,76.7133 S 28.7083,82.1343 30.2253,81.0053 Z" transform=""/><path fill="#42a8c1" stroke="none" d="M 21.2242,55.9922 C 21.9542,54.1072 23.9552,53.0712 25.6932,53.6772 C 26.4982,53.9572 28.5262,53.8452 29.4262,53.5982 C 31.2042,53.1082 33.1242,54.2752 33.7142,56.2032 C 34.3032,58.1312 33.3402,60.0912 31.5612,60.5802 C 29.9152,61.0332 24.7232,61.0852 23.0492,60.5012 C 21.3112,59.8952 20.4942,57.8762 21.2242,55.9922 Z" transform=""/><path fill="#49bbd6" stroke="none" d="M 21.7392,55.2326 C 22.4442,53.4116 24.3782,52.4096 26.0572,52.9956 C 26.8352,53.2666 28.7952,53.1576 29.6642,52.9186 C 31.3832,52.4466 33.2382,53.5736 33.8072,55.4366 C 34.3772,57.2996 33.4462,59.1936 31.7282,59.6666 C 30.1372,60.1046 28.4682,59.9046 27.7712,58.2846 C 27.0062,59.9786 25.1202,60.1536 23.5032,59.5906 C 21.8232,59.0046 21.0342,57.0536 21.7392,55.2326 Z" transform=""/><ellipse cx="25.08742918132551" cy="53.52113410088232" rx="0.5317968566653134" ry="0.7389073808615177" fill="#304454" stroke="none" transform="rotate(1.5587 25.087430468228966 53.521134031846934)" r="NaN"/><ellipse cx="30.368501874096264" cy="53.52113410088232" rx="0.5317968566653134" ry="0.7389073808615177" fill="#304454" stroke="none" transform="rotate(1.5587 30.368502860737884 53.521134031846934)" r="NaN"/><path fill="#42a8c1" stroke="none" d="M 29.7728,55.8451 S 28.9518,57.2371 28.0098,57.2401 C 27.4408,57.2411 27.0618,56.6701 26.7168,55.7871 C 26.3208,54.7701 27.6528,54.4001 28.2678,54.4211 C 28.8268,54.4421 30.1408,54.5731 29.7728,55.8451 Z" transform=""/><path fill="#49bbd6" stroke="none" d="M 29.8096,55.029 S 29.1656,56.511 28.2306,56.629 C 27.6656,56.7 27.2206,56.18 26.7696,55.346 C 26.2516,54.385 27.5276,53.854 28.1416,53.801 C 28.6996,53.753 30.0196,53.722 29.8096,55.029 Z" transform=""/><path fill="none" stroke="#378fa4" d="M 31.5669,57.2349 S 33.8189,58.8719 34.5679,60.2769" style="stroke-miterlimit: 10" stroke-miterlimit="10" transform=""/><path fill="none" stroke="#378fa4" d="M 32.5021,56.3129 S 35.1791,57.0469 36.3831,58.1009" style="stroke-miterlimit: 10" stroke-miterlimit="10" transform=""/><path fill="none" stroke="#378fa4" d="M 23.8113,56.9264 S 21.5593,58.5634 20.8103,59.9684" style="stroke-miterlimit: 10" stroke-miterlimit="10" transform=""/><path fill="none" stroke="#378fa4" d="M 22.8761,56.0045 S 20.1991,56.7385 18.9951,57.7925" style="stroke-miterlimit: 10" stroke-miterlimit="10" transform=""/><path fill="#49bbd6" stroke="none" d="M 31.011,78.4083 C 30.256,77.5273 29.397,77.1373 29.092,77.5363 C 28.916,77.7683 28.969,78.2163 29.188,78.7213 C 28.621,78.2713 28.09,78.1313 27.864,78.4283 C 27.733,78.5983 27.731,78.8883 27.823,79.2303 C 27.214,78.7053 26.626,78.5213 26.384,78.8363 C 26.079,79.2363 26.444,80.2743 27.198,81.1553 C 27.953,82.0363 28.812,82.4263 29.117,82.0273 C 29.247,81.8563 29.249,81.5663 29.157,81.2253 C 29.766,81.7503 30.355,81.9343 30.596,81.6183 C 30.773,81.3863 30.719,80.9393 30.501,80.4333 C 31.068,80.8833 31.599,81.0233 31.825,80.7273 C 32.13,80.3273 31.766,79.2893 31.011,78.4083 Z" transform=""/><path fill="#42a8c1" stroke="none" d="M 41.6592,74.4206 C 40.7862,73.6566 39.8812,73.3926 39.6362,73.8316 C 39.4942,74.0856 39.6112,74.5216 39.8992,74.9906 C 39.2742,74.6256 38.7282,74.5636 38.5462,74.8886 C 38.4412,75.0766 38.4812,75.3636 38.6212,75.6886 C 37.9432,75.2556 37.3342,75.1576 37.1402,75.5046 C 36.8952,75.9436 37.4042,76.9196 38.2772,77.6836 S 40.0552,78.7116 40.3002,78.2726 C 40.4052,78.0856 40.3652,77.7976 40.2252,77.4736 C 40.9032,77.9056 41.5122,78.0036 41.7062,77.6566 C 41.8472,77.4026 41.7312,76.9666 41.4432,76.4976 C 42.0682,76.8626 42.6132,76.9256 42.7952,76.5996 C 43.0402,76.1606 42.5322,75.1846 41.6592,74.4206 Z" transform=""/><ellipse cx="77.05301072199069" cy="73.61921712879632" rx="8.48021666530682" ry="3.4588933387731897" fill="#42a8c1" stroke="none" transform="rotate(203.0782 77.0530088491075 73.61921801168478)" r="NaN"/><path fill="#49bbd6" stroke="none" d="M 61.6358,60.9294 C 60.6428,51.9524 64.2828,46.6764 68.7938,46.4104 C 74.8898,46.0514 78.5788,49.8864 77.5948,58.1834 C 77.3948,59.8774 85.8588,72.5944 77.7408,76.6414 C 70.7928,78.5484 47.7078,79.7054 47.2668,71.0794 C 46.7258,60.5154 61.7698,62.1404 61.6358,60.9294 Z" transform=""/><ellipse cx="49.92103801647958" cy="71.8988723470486" rx="7.063895527157479" ry="2.8813452261690475" fill="#49bbd6" stroke="none" transform="rotate(180.2177 49.92103823041614 71.89887239858709)" r="NaN"/><path fill="#42a8c1" stroke="none" d="M 68.7337,74.9081 C 64.7537,72.4391 62.3657,69.4871 61.3587,71.1101 C 60.7147,72.1491 58.7457,75.6961 59.6207,77.7101 C 63.3097,78.1711 69.1847,78.5551 72.6937,78.1851 C 71.7177,77.0671 70.3597,75.9171 68.7337,74.9081 Z" transform=""/><path fill="#49bbd6" stroke="none" d="M 73.0825,81.0053 C 74.5995,79.8763 73.1805,76.1243 69.9135,72.6243 S 62.7675,67.2033 61.2515,68.3323 C 59.7345,69.4613 61.1535,73.2133 64.4205,76.7133 C 67.6875,80.2133 71.5655,82.1343 73.0825,81.0053 Z" transform=""/><path fill="#42a8c1" stroke="none" d="M 64.0813,55.9922 C 64.8113,54.1072 66.8123,53.0712 68.5503,53.6772 C 69.3553,53.9572 71.3833,53.8452 72.2833,53.5982 C 74.0613,53.1082 75.9813,54.2752 76.5713,56.2032 C 77.1603,58.1312 76.1973,60.0912 74.4183,60.5802 C 72.7723,61.0332 67.5803,61.0852 65.9063,60.5012 C 64.1683,59.8952 63.3513,57.8762 64.0813,55.9922 Z" transform=""/><path fill="#49bbd6" stroke="none" d="M 64.5964,55.2326 C 65.3014,53.4116 67.2354,52.4096 68.9144,52.9956 C 69.6924,53.2666 71.6524,53.1576 72.5214,52.9186 C 74.2404,52.4466 76.0954,53.5736 76.6644,55.4366 C 77.2344,57.2996 76.3034,59.1936 74.5854,59.6666 C 72.9944,60.1046 71.3254,59.9046 70.6284,58.2846 C 69.8634,59.9786 67.9774,60.1536 66.3604,59.5906 C 64.6804,59.0046 63.8914,57.0536 64.5964,55.2326 Z" transform=""/><ellipse cx="67.94457203846835" cy="53.52113410088232" rx="0.5317968566653134" ry="0.7389073808615177" fill="#304454" stroke="none" transform="rotate(1.5587 67.9445733253718 53.521134031846934)" r="NaN"/><ellipse cx="73.22564473123911" cy="53.52113410088232" rx="0.5317968566653134" ry="0.7389073808615177" fill="#304454" stroke="none" transform="rotate(1.5587 73.22564571788072 53.521134031846934)" r="NaN"/><path fill="#42a8c1" stroke="none" d="M 72.6299,55.8451 S 71.8089,57.2371 70.8669,57.2401 C 70.2979,57.2411 69.9189,56.6701 69.5739,55.7871 C 69.1779,54.7701 70.5099,54.4001 71.1249,54.4211 C 71.6839,54.4421 72.9979,54.5731 72.6299,55.8451 Z" transform=""/><path fill="#49bbd6" stroke="none" d="M 72.6668,55.029 S 72.0228,56.511 71.0878,56.629 C 70.5228,56.7 70.0778,56.18 69.6268,55.346 C 69.1088,54.385 70.3848,53.854 70.9988,53.801 C 71.5568,53.753 72.8768,53.722 72.6668,55.029 Z" transform=""/><path fill="none" stroke="#378fa4" d="M 74.424,57.2349 S 76.676,58.8719 77.425,60.2769" style="stroke-miterlimit: 10" stroke-miterlimit="10" transform=""/><path fill="none" stroke="#378fa4" d="M 75.3592,56.3129 S 78.0362,57.0469 79.2402,58.1009" style="stroke-miterlimit: 10" stroke-miterlimit="10" transform=""/><path fill="none" stroke="#378fa4" d="M 66.6685,56.9264 S 64.4165,58.5634 63.6675,59.9684" style="stroke-miterlimit: 10" stroke-miterlimit="10" transform=""/><path fill="none" stroke="#378fa4" d="M 65.7333,56.0045 S 63.0563,56.7385 61.8523,57.7925" style="stroke-miterlimit: 10" stroke-miterlimit="10" transform=""/><path fill="#49bbd6" stroke="none" d="M 73.8681,78.4083 C 73.1131,77.5273 72.2541,77.1373 71.9491,77.5363 C 71.7731,77.7683 71.8261,78.2163 72.0451,78.7213 C 71.4781,78.2713 70.9471,78.1313 70.7211,78.4283 C 70.5901,78.5983 70.5881,78.8883 70.6801,79.2303 C 70.0711,78.7053 69.4831,78.5213 69.2411,78.8363 C 68.9361,79.2363 69.3011,80.2743 70.0551,81.1553 C 70.8101,82.0363 71.6691,82.4263 71.9741,82.0273 C 72.1041,81.8563 72.1061,81.5663 72.0141,81.2253 C 72.6231,81.7503 73.2121,81.9343 73.4531,81.6183 C 73.6301,81.3863 73.5761,80.9393 73.3581,80.4333 C 73.9251,80.8833 74.4561,81.0233 74.6821,80.7273 C 74.9871,80.3273 74.6231,79.2893 73.8681,78.4083 Z" transform=""/><path fill="#42a8c1" stroke="none" d="M 84.5164,74.4206 C 83.6434,73.6566 82.7384,73.3926 82.4934,73.8316 C 82.3514,74.0856 82.4684,74.5216 82.7564,74.9906 C 82.1314,74.6256 81.5854,74.5636 81.4034,74.8886 C 81.2984,75.0766 81.3384,75.3636 81.4784,75.6886 C 80.8004,75.2556 80.1914,75.1576 79.9974,75.5046 C 79.7524,75.9436 80.2614,76.9196 81.1344,77.6836 S 82.9124,78.7116 83.1574,78.2726 C 83.2624,78.0856 83.2224,77.7976 83.0824,77.4736 C 83.7604,77.9056 84.3694,78.0036 84.5634,77.6566 C 84.7044,77.4026 84.5884,76.9666 84.3004,76.4976 C 84.9254,76.8626 85.4704,76.9256 85.6524,76.5996 C 85.8974,76.1606 85.3894,75.1846 84.5164,74.4206 Z" transform=""/><ellipse cx="119.91015357913355" cy="73.61921712879632" rx="8.48021666530682" ry="3.4588933387731897" fill="#42a8c1" stroke="none" transform="rotate(203.0782 119.91015170625036 73.61921801168478)" r="NaN"/><path fill="#49bbd6" stroke="none" d="M 104.493,60.9294 C 103.5,51.9524 107.14,46.6764 111.651,46.4104 C 117.747,46.0514 121.436,49.8864 120.452,58.1834 C 120.252,59.8774 128.716,72.5944 120.598,76.6414 C 113.65,78.5484 90.565,79.7054 90.124,71.0794 C 89.583,60.5154 104.627,62.1404 104.493,60.9294 Z" transform=""/><ellipse cx="92.77818087362245" cy="71.8988723470486" rx="7.063895527157479" ry="2.8813452261690475" fill="#49bbd6" stroke="none" transform="rotate(180.2177 92.77818108755899 71.89887239858709)" r="NaN"/><path fill="#42a8c1" stroke="none" d="M 111.591,74.9081 C 107.611,72.4391 105.223,69.4871 104.216,71.1101 C 103.572,72.1491 101.603,75.6961 102.478,77.7101 C 106.167,78.1711 112.042,78.5551 115.551,78.1851 C 114.575,77.0671 113.217,75.9171 111.591,74.9081 Z" transform=""/><path fill="#49bbd6" stroke="none" d="M 115.94,81.0053 C 117.457,79.8763 116.038,76.1243 112.771,72.6243 S 105.625,67.2033 104.109,68.3323 C 102.592,69.4613 104.011,73.2133 107.278,76.7133 S 114.423,82.1343 115.94,81.0053 Z" transform=""/><path fill="#42a8c1" stroke="none" d="M 106.938,55.9922 C 107.668,54.1072 109.669,53.0712 111.407,53.6772 C 112.212,53.9572 114.24,53.8452 115.14,53.5982 C 116.918,53.1082 118.838,54.2752 119.428,56.2032 C 120.017,58.1312 119.054,60.0912 117.275,60.5802 C 115.629,61.0332 110.437,61.0852 108.763,60.5012 C 107.025,59.8952 106.208,57.8762 106.938,55.9922 Z" transform=""/><path fill="#49bbd6" stroke="none" d="M 107.454,55.2326 C 108.159,53.4116 110.093,52.4096 111.772,52.9956 C 112.55,53.2666 114.51,53.1576 115.379,52.9186 C 117.098,52.4466 118.953,53.5736 119.522,55.4366 C 120.092,57.2996 119.161,59.1936 117.443,59.6666 C 115.852,60.1046 114.183,59.9046 113.486,58.2846 C 112.721,59.9786 110.835,60.1536 109.218,59.5906 C 107.538,59.0046 106.749,57.0536 107.454,55.2326 Z" transform=""/><ellipse cx="110.80171489561121" cy="53.52113410088232" rx="0.5317968566653134" ry="0.7389073808615177" fill="#304454" stroke="none" transform="rotate(1.5587 110.80171618251467 53.521134031846934)" r="NaN"/><ellipse cx="116.08278758838198" cy="53.52113410088232" rx="0.5317968566653134" ry="0.7389073808615177" fill="#304454" stroke="none" transform="rotate(1.5587 116.08278857502359 53.521134031846934)" r="NaN"/><path fill="#42a8c1" stroke="none" d="M 115.487,55.8451 S 114.666,57.2371 113.724,57.2401 C 113.155,57.2411 112.776,56.6701 112.431,55.7871 C 112.035,54.7701 113.367,54.4001 113.982,54.4211 C 114.541,54.4421 115.855,54.5731 115.487,55.8451 Z" transform=""/><path fill="#49bbd6" stroke="none" d="M 115.524,55.029 S 114.88,56.511 113.945,56.629 C 113.38,56.7 112.935,56.18 112.484,55.346 C 111.966,54.385 113.242,53.854 113.856,53.801 C 114.414,53.753 115.734,53.722 115.524,55.029 Z" transform=""/><path fill="none" stroke="#378fa4" d="M 117.281,57.2349 S 119.533,58.8719 120.282,60.2769" style="stroke-miterlimit: 10" stroke-miterlimit="10" transform=""/><path fill="none" stroke="#378fa4" d="M 118.216,56.3129 S 120.893,57.0469 122.097,58.1009" style="stroke-miterlimit: 10" stroke-miterlimit="10" transform=""/><path fill="none" stroke="#378fa4" d="M 109.526,56.9264 S 107.274,58.5634 106.525,59.9684" style="stroke-miterlimit: 10" stroke-miterlimit="10" transform=""/><path fill="none" stroke="#378fa4" d="M 108.59,56.0045 S 105.913,56.7385 104.709,57.7925" style="stroke-miterlimit: 10" stroke-miterlimit="10" transform=""/><path fill="#49bbd6" stroke="none" d="M 116.725,78.4083 C 115.97,77.5273 115.111,77.1373 114.806,77.5363 C 114.63,77.7683 114.683,78.2163 114.902,78.7213 C 114.335,78.2713 113.804,78.1313 113.578,78.4283 C 113.447,78.5983 113.445,78.8883 113.537,79.2303 C 112.928,78.7053 112.34,78.5213 112.098,78.8363 C 111.793,79.2363 112.158,80.2743 112.912,81.1553 C 113.667,82.0363 114.526,82.4263 114.831,82.0273 C 114.961,81.8563 114.963,81.5663 114.871,81.2253 C 115.48,81.7503 116.069,81.9343 116.31,81.6183 C 116.487,81.3863 116.433,80.9393 116.215,80.4333 C 116.782,80.8833 117.313,81.0233 117.539,80.7273 C 117.844,80.3273 117.48,79.2893 116.725,78.4083 Z" transform=""/><path fill="#42a8c1" stroke="none" d="M 127.374,74.4206 C 126.501,73.6566 125.596,73.3926 125.351,73.8316 C 125.209,74.0856 125.326,74.5216 125.614,74.9906 C 124.989,74.6256 124.443,74.5636 124.261,74.8886 C 124.156,75.0766 124.196,75.3636 124.336,75.6886 C 123.658,75.2556 123.049,75.1576 122.855,75.5046 C 122.61,75.9436 123.119,76.9196 123.992,77.6836 S 125.77,78.7116 126.015,78.2726 C 126.12,78.0856 126.08,77.7976 125.94,77.4736 C 126.618,77.9056 127.227,78.0036 127.421,77.6566 C 127.562,77.4026 127.446,76.9666 127.158,76.4976 C 127.783,76.8626 128.328,76.9256 128.51,76.5996 C 128.755,76.1606 128.247,75.1846 127.374,74.4206 Z" transform=""/><ellipse cx="162.7672964362764" cy="73.61921712879632" rx="8.48021666530682" ry="3.4588933387731897" fill="#42a8c1" stroke="none" transform="rotate(203.0782 162.76729456339325 73.61921801168478)" r="NaN"/><path fill="#49bbd6" stroke="none" d="M 147.35,60.9294 C 146.357,51.9524 149.997,46.6764 154.508,46.4104 C 160.604,46.0514 164.293,49.8864 163.309,58.1834 C 163.109,59.8774 171.573,72.5944 163.455,76.6414 C 156.507,78.5484 133.422,79.7054 132.981,71.0794 C 132.44,60.5154 147.484,62.1404 147.35,60.9294 Z" transform=""/><ellipse cx="135.63532373076532" cy="71.8988723470486" rx="7.063895527157479" ry="2.8813452261690475" fill="#49bbd6" stroke="none" transform="rotate(180.2177 135.63532394470187 71.89887239858709)" r="NaN"/><path fill="#42a8c1" stroke="none" d="M 154.448,74.9081 C 150.468,72.4391 148.08,69.4871 147.073,71.1101 C 146.429,72.1491 144.46,75.6961 145.335,77.7101 C 149.024,78.1711 154.899,78.5551 158.408,78.1851 C 157.432,77.0671 156.074,75.9171 154.448,74.9081 Z" transform=""/><path fill="#49bbd6" stroke="none" d="M 158.797,81.0053 C 160.314,79.8763 158.895,76.1243 155.628,72.6243 S 148.482,67.2033 146.966,68.3323 C 145.449,69.4613 146.868,73.2133 150.135,76.7133 S 157.28,82.1343 158.797,81.0053 Z" transform=""/><path fill="#42a8c1" stroke="none" d="M 149.796,55.9922 C 150.526,54.1072 152.527,53.0712 154.265,53.6772 C 155.07,53.9572 157.098,53.8452 157.998,53.5982 C 159.776,53.1082 161.696,54.2752 162.286,56.2032 C 162.875,58.1312 161.912,60.0912 160.133,60.5802 C 158.487,61.0332 153.295,61.0852 151.621,60.5012 C 149.883,59.8952 149.066,57.8762 149.796,55.9922 Z" transform=""/><path fill="#49bbd6" stroke="none" d="M 150.311,55.2326 C 151.016,53.4116 152.95,52.4096 154.629,52.9956 C 155.407,53.2666 157.367,53.1576 158.236,52.9186 C 159.955,52.4466 161.81,53.5736 162.379,55.4366 C 162.949,57.2996 162.018,59.1936 160.3,59.6666 C 158.709,60.1046 157.04,59.9046 156.343,58.2846 C 155.578,59.9786 153.692,60.1536 152.075,59.5906 C 150.395,59.0046 149.606,57.0536 150.311,55.2326 Z" transform=""/><ellipse cx="153.6588577527541" cy="53.52113410088232" rx="0.5317968566653134" ry="0.7389073808615177" fill="#304454" stroke="none" transform="rotate(1.5587 153.65885903965756 53.521134031846934)" r="NaN"/><ellipse cx="158.93993044552485" cy="53.52113410088232" rx="0.5317968566653134" ry="0.7389073808615177" fill="#304454" stroke="none" transform="rotate(1.5587 158.93993143216647 53.521134031846934)" r="NaN"/><path fill="#42a8c1" stroke="none" d="M 158.344,55.8451 S 157.523,57.2371 156.581,57.2401 C 156.012,57.2411 155.633,56.6701 155.288,55.7871 C 154.892,54.7701 156.224,54.4001 156.839,54.4211 C 157.398,54.4421 158.712,54.5731 158.344,55.8451 Z" transform=""/><path fill="#49bbd6" stroke="none" d="M 158.381,55.029 S 157.737,56.511 156.802,56.629 C 156.237,56.7 155.792,56.18 155.341,55.346 C 154.823,54.385 156.099,53.854 156.713,53.801 C 157.271,53.753 158.591,53.722 158.381,55.029 Z" transform=""/><path fill="none" stroke="#378fa4" d="M 160.138,57.2349 S 162.39,58.8719 163.139,60.2769" style="stroke-miterlimit: 10" stroke-miterlimit="10" transform=""/><path fill="none" stroke="#378fa4" d="M 161.074,56.3129 S 163.751,57.0469 164.955,58.1009" style="stroke-miterlimit: 10" stroke-miterlimit="10" transform=""/><path fill="none" stroke="#378fa4" d="M 152.383,56.9264 S 150.131,58.5634 149.382,59.9684" style="stroke-miterlimit: 10" stroke-miterlimit="10" transform=""/><path fill="none" stroke="#378fa4" d="M 151.448,56.0045 S 148.771,56.7385 147.567,57.7925" style="stroke-miterlimit: 10" stroke-miterlimit="10" transform=""/><path fill="#49bbd6" stroke="none" d="M 159.582,78.4083 C 158.827,77.5273 157.968,77.1373 157.663,77.5363 C 157.487,77.7683 157.54,78.2163 157.759,78.7213 C 157.192,78.2713 156.661,78.1313 156.435,78.4283 C 156.304,78.5983 156.302,78.8883 156.394,79.2303 C 155.785,78.7053 155.197,78.5213 154.955,78.8363 C 154.65,79.2363 155.015,80.2743 155.769,81.1553 C 156.524,82.0363 157.383,82.4263 157.688,82.0273 C 157.818,81.8563 157.82,81.5663 157.728,81.2253 C 158.337,81.7503 158.926,81.9343 159.167,81.6183 C 159.344,81.3863 159.29,80.9393 159.072,80.4333 C 159.639,80.8833 160.17,81.0233 160.396,80.7273 C 160.701,80.3273 160.337,79.2893 159.582,78.4083 Z" transform=""/><path fill="#42a8c1" stroke="none" d="M 170.231,74.4206 C 169.358,73.6566 168.453,73.3926 168.208,73.8316 C 168.066,74.0856 168.183,74.5216 168.471,74.9906 C 167.846,74.6256 167.3,74.5636 167.118,74.8886 C 167.013,75.0766 167.053,75.3636 167.193,75.6886 C 166.515,75.2556 165.906,75.1576 165.712,75.5046 C 165.467,75.9436 165.976,76.9196 166.849,77.6836 S 168.627,78.7116 168.872,78.2726 C 168.977,78.0856 168.937,77.7976 168.797,77.4736 C 169.475,77.9056 170.084,78.0036 170.278,77.6566 C 170.419,77.4026 170.303,76.9666 170.015,76.4976 C 170.64,76.8626 171.185,76.9256 171.367,76.5996 C 171.612,76.1606 171.104,75.1846 170.231,74.4206 Z" transform=""/><ellipse cx="205.62443929341924" cy="73.61921712879632" rx="8.48021666530682" ry="3.4588933387731897" fill="#42a8c1" stroke="none" transform="rotate(203.0782 205.62443742053608 73.61921801168478)" r="NaN"/><path fill="#49bbd6" stroke="none" d="M 190.207,60.9294 C 189.214,51.9524 192.854,46.6764 197.365,46.4104 C 203.461,46.0514 207.15,49.8864 206.166,58.1834 C 205.966,59.8774 214.43,72.5944 206.312,76.6414 C 199.364,78.5484 176.279,79.7054 175.838,71.0794 C 175.297,60.5154 190.341,62.1404 190.207,60.9294 Z" transform=""/><ellipse cx="178.49246658790815" cy="71.8988723470486" rx="7.063895527157479" ry="2.8813452261690475" fill="#49bbd6" stroke="none" transform="rotate(180.2177 178.4924668018447 71.89887239858709)" r="NaN"/><path fill="#42a8c1" stroke="none" d="M 197.305,74.9081 C 193.325,72.4391 190.937,69.4871 189.93,71.1101 C 189.286,72.1491 187.317,75.6961 188.192,77.7101 C 191.881,78.1711 197.756,78.5551 201.265,78.1851 C 200.289,77.0671 198.931,75.9171 197.305,74.9081 Z" transform=""/><path fill="#49bbd6" stroke="none" d="M 201.654,81.0053 C 203.171,79.8763 201.752,76.1243 198.485,72.6243 S 191.339,67.2033 189.823,68.3323 C 188.306,69.4613 189.725,73.2133 192.992,76.7133 S 200.137,82.1343 201.654,81.0053 Z" transform=""/><path fill="#42a8c1" stroke="none" d="M 192.653,55.9922 C 193.383,54.1072 195.384,53.0712 197.122,53.6772 C 197.927,53.9572 199.955,53.8452 200.855,53.5982 C 202.633,53.1082 204.553,54.2752 205.143,56.2032 C 205.732,58.1312 204.769,60.0912 202.99,60.5802 C 201.344,61.0332 196.152,61.0852 194.478,60.5012 C 192.74,59.8952 191.923,57.8762 192.653,55.9922 Z" transform=""/><path fill="#49bbd6" stroke="none" d="M 193.168,55.2326 C 193.873,53.4116 195.807,52.4096 197.486,52.9956 C 198.264,53.2666 200.224,53.1576 201.093,52.9186 C 202.812,52.4466 204.667,53.5736 205.236,55.4366 C 205.806,57.2996 204.875,59.1936 203.157,59.6666 C 201.566,60.1046 199.897,59.9046 199.2,58.2846 C 198.435,59.9786 196.549,60.1536 194.932,59.5906 C 193.252,59.0046 192.463,57.0536 193.168,55.2326 Z" transform=""/><ellipse cx="196.51600060989693" cy="53.52113410088232" rx="0.5317968566653134" ry="0.7389073808615177" fill="#304454" stroke="none" transform="rotate(1.5587 196.5160018968004 53.521134031846934)" r="NaN"/><ellipse cx="201.79707330266768" cy="53.52113410088232" rx="0.5317968566653134" ry="0.7389073808615177" fill="#304454" stroke="none" transform="rotate(1.5587 201.7970742893093 53.521134031846934)" r="NaN"/><path fill="#42a8c1" stroke="none" d="M 201.201,55.8451 S 200.38,57.2371 199.438,57.2401 C 198.869,57.2411 198.49,56.6701 198.145,55.7871 C 197.749,54.7701 199.081,54.4001 199.696,54.4211 C 200.255,54.4421 201.569,54.5731 201.201,55.8451 Z" transform=""/><path fill="#49bbd6" stroke="none" d="M 201.238,55.029 S 200.594,56.511 199.659,56.629 C 199.094,56.7 198.649,56.18 198.198,55.346 C 197.68,54.385 198.956,53.854 199.57,53.801 C 200.128,53.753 201.448,53.722 201.238,55.029 Z" transform=""/><path fill="none" stroke="#378fa4" d="M 202.995,57.2349 S 205.247,58.8719 205.996,60.2769" style="stroke-miterlimit: 10" stroke-miterlimit="10" transform=""/><path fill="none" stroke="#378fa4" d="M 203.931,56.3129 S 206.608,57.0469 207.812,58.1009" style="stroke-miterlimit: 10" stroke-miterlimit="10" transform=""/><path fill="none" stroke="#378fa4" d="M 195.24,56.9264 S 192.988,58.5634 192.239,59.9684" style="stroke-miterlimit: 10" stroke-miterlimit="10" transform=""/><path fill="none" stroke="#378fa4" d="M 194.305,56.0045 S 191.628,56.7385 190.424,57.7925" style="stroke-miterlimit: 10" stroke-miterlimit="10" transform=""/><path fill="#49bbd6" stroke="none" d="M 202.44,78.4083 C 201.685,77.5273 200.826,77.1373 200.521,77.5363 C 200.345,77.7683 200.398,78.2163 200.617,78.7213 C 200.05,78.2713 199.519,78.1313 199.293,78.4283 C 199.162,78.5983 199.16,78.8883 199.252,79.2303 C 198.643,78.7053 198.055,78.5213 197.813,78.8363 C 197.508,79.2363 197.873,80.2743 198.627,81.1553 C 199.382,82.0363 200.241,82.4263 200.546,82.0273 C 200.676,81.8563 200.678,81.5663 200.586,81.2253 C 201.195,81.7503 201.784,81.9343 202.025,81.6183 C 202.202,81.3863 202.148,80.9393 201.93,80.4333 C 202.497,80.8833 203.028,81.0233 203.254,80.7273 C 203.559,80.3273 203.195,79.2893 202.44,78.4083 Z" transform=""/><path fill="#42a8c1" stroke="none" d="M 213.088,74.4206 C 212.215,73.6566 211.31,73.3926 211.065,73.8316 C 210.923,74.0856 211.04,74.5216 211.328,74.9906 C 210.703,74.6256 210.157,74.5636 209.975,74.8886 C 209.87,75.0766 209.91,75.3636 210.05,75.6886 C 209.372,75.2556 208.763,75.1576 208.569,75.5046 C 208.324,75.9436 208.833,76.9196 209.706,77.6836 S 211.484,78.7116 211.729,78.2726 C 211.834,78.0856 211.794,77.7976 211.654,77.4736 C 212.332,77.9056 212.941,78.0036 213.135,77.6566 C 213.276,77.4026 213.16,76.9666 212.872,76.4976 C 213.497,76.8626 214.042,76.9256 214.224,76.5996 C 214.469,76.1606 213.961,75.1846 213.088,74.4206 Z" transform=""/><ellipse cx="248.48158215056213" cy="73.61921712879632" rx="8.48021666530682" ry="3.4588933387731897" fill="#42a8c1" stroke="none" transform="rotate(203.0782 248.48158027767892 73.61921801168478)" r="NaN"/><path fill="#49bbd6" stroke="none" d="M 233.064,60.9294 C 232.071,51.9524 235.711,46.6764 240.222,46.4104 C 246.318,46.0514 250.007,49.8864 249.023,58.1834 C 248.823,59.8774 257.287,72.5944 249.169,76.6414 C 242.221,78.5484 219.136,79.7054 218.695,71.0794 C 218.154,60.5154 233.198,62.1404 233.064,60.9294 Z" transform=""/><ellipse cx="221.34960944505102" cy="71.8988723470486" rx="7.063895527157479" ry="2.8813452261690475" fill="#49bbd6" stroke="none" transform="rotate(180.2177 221.34960965898756 71.89887239858709)" r="NaN"/><path fill="#42a8c1" stroke="none" d="M 240.162,74.9081 C 236.182,72.4391 233.794,69.4871 232.787,71.1101 C 232.143,72.1491 230.174,75.6961 231.049,77.7101 C 234.738,78.1711 240.613,78.5551 244.122,78.1851 C 243.146,77.0671 241.788,75.9171 240.162,74.9081 Z" transform=""/><path fill="#49bbd6" stroke="none" d="M 244.511,81.0053 C 246.028,79.8763 244.609,76.1243 241.342,72.6243 S 234.196,67.2033 232.68,68.3323 C 231.163,69.4613 232.582,73.2133 235.849,76.7133 S 242.994,82.1343 244.511,81.0053 Z" transform=""/><path fill="#42a8c1" stroke="none" d="M 235.51,55.9922 C 236.24,54.1072 238.241,53.0712 239.979,53.6772 C 240.784,53.9572 242.812,53.8452 243.712,53.5982 C 245.49,53.1082 247.41,54.2752 248,56.2032 C 248.589,58.1312 247.626,60.0912 245.847,60.5802 C 244.201,61.0332 239.009,61.0852 237.335,60.5012 C 235.597,59.8952 234.78,57.8762 235.51,55.9922 Z" transform=""/><path fill="#49bbd6" stroke="none" d="M 236.025,55.2326 C 236.73,53.4116 238.664,52.4096 240.343,52.9956 C 241.121,53.2666 243.081,53.1576 243.95,52.9186 C 245.669,52.4466 247.524,53.5736 248.093,55.4366 C 248.663,57.2996 247.732,59.1936 246.014,59.6666 C 244.423,60.1046 242.754,59.9046 242.057,58.2846 C 241.292,59.9786 239.406,60.1536 237.789,59.5906 C 236.109,59.0046 235.32,57.0536 236.025,55.2326 Z" transform=""/><ellipse cx="239.3731434670398" cy="53.52113410088232" rx="0.5317968566653134" ry="0.7389073808615177" fill="#304454" stroke="none" transform="rotate(1.5587 239.37314475394325 53.521134031846934)" r="NaN"/><ellipse cx="244.65421615981055" cy="53.52113410088232" rx="0.5317968566653134" ry="0.7389073808615177" fill="#304454" stroke="none" transform="rotate(1.5587 244.65421714645217 53.521134031846934)" r="NaN"/><path fill="#42a8c1" stroke="none" d="M 244.058,55.8451 S 243.237,57.2371 242.295,57.2401 C 241.726,57.2411 241.347,56.6701 241.002,55.7871 C 240.606,54.7701 241.938,54.4001 242.553,54.4211 C 243.112,54.4421 244.426,54.5731 244.058,55.8451 Z" transform=""/><path fill="#49bbd6" stroke="none" d="M 244.095,55.029 S 243.451,56.511 242.516,56.629 C 241.951,56.7 241.506,56.18 241.055,55.346 C 240.537,54.385 241.813,53.854 242.427,53.801 C 242.985,53.753 244.305,53.722 244.095,55.029 Z" transform=""/><path fill="none" stroke="#378fa4" d="M 245.853,57.2349 S 248.105,58.8719 248.854,60.2769" style="stroke-miterlimit: 10" stroke-miterlimit="10" transform=""/><path fill="none" stroke="#378fa4" d="M 246.788,56.3129 S 249.465,57.0469 250.669,58.1009" style="stroke-miterlimit: 10" stroke-miterlimit="10" transform=""/><path fill="none" stroke="#378fa4" d="M 238.097,56.9264 S 235.845,58.5634 235.096,59.9684" style="stroke-miterlimit: 10" stroke-miterlimit="10" transform=""/><path fill="none" stroke="#378fa4" d="M 237.162,56.0045 S 234.485,56.7385 233.281,57.7925" style="stroke-miterlimit: 10" stroke-miterlimit="10" transform=""/><path fill="#49bbd6" stroke="none" d="M 245.297,78.4083 C 244.542,77.5273 243.683,77.1373 243.378,77.5363 C 243.202,77.7683 243.255,78.2163 243.474,78.7213 C 242.907,78.2713 242.376,78.1313 242.15,78.4283 C 242.019,78.5983 242.017,78.8883 242.109,79.2303 C 241.5,78.7053 240.912,78.5213 240.67,78.8363 C 240.365,79.2363 240.73,80.2743 241.484,81.1553 C 242.239,82.0363 243.098,82.4263 243.403,82.0273 C 243.533,81.8563 243.535,81.5663 243.443,81.2253 C 244.052,81.7503 244.641,81.9343 244.882,81.6183 C 245.059,81.3863 245.005,80.9393 244.787,80.4333 C 245.354,80.8833 245.885,81.0233 246.111,80.7273 C 246.416,80.3273 246.052,79.2893 245.297,78.4083 Z" transform=""/><path fill="#42a8c1" stroke="none" d="M 255.945,74.4206 C 255.072,73.6566 254.167,73.3926 253.922,73.8316 C 253.78,74.0856 253.897,74.5216 254.185,74.9906 C 253.56,74.6256 253.014,74.5636 252.832,74.8886 C 252.727,75.0766 252.767,75.3636 252.907,75.6886 C 252.229,75.2556 251.62,75.1576 251.426,75.5046 C 251.181,75.9436 251.69,76.9196 252.563,77.6836 S 254.341,78.7116 254.586,78.2726 C 254.691,78.0856 254.651,77.7976 254.511,77.4736 C 255.189,77.9056 255.798,78.0036 255.992,77.6566 C 256.133,77.4026 256.017,76.9666 255.729,76.4976 C 256.354,76.8626 256.899,76.9256 257.081,76.5996 C 257.326,76.1606 256.818,75.1846 255.945,74.4206 Z" transform=""/><ellipse cx="291.33872500770497" cy="73.61921712879632" rx="8.48021666530682" ry="3.4588933387731897" fill="#42a8c1" stroke="none" transform="rotate(203.0782 291.33872313482175 73.61921801168478)" r="NaN"/><path fill="#49bbd6" stroke="none" d="M 275.922,60.9294 C 274.929,51.9524 278.569,46.6764 283.08,46.4104 C 289.176,46.0514 292.865,49.8864 291.881,58.1834 C 291.681,59.8774 300.145,72.5944 292.027,76.6414 C 285.079,78.5484 261.994,79.7054 261.553,71.0794 C 261.012,60.5154 276.056,62.1404 275.922,60.9294 Z" transform=""/><ellipse cx="264.2067523021938" cy="71.8988723470486" rx="7.063895527157479" ry="2.8813452261690475" fill="#49bbd6" stroke="none" transform="rotate(180.2177 264.2067525161304 71.89887239858709)" r="NaN"/><path fill="#42a8c1" stroke="none" d="M 283.019,74.9081 C 279.039,72.4391 276.651,69.4871 275.644,71.1101 C 275,72.1491 273.031,75.6961 273.906,77.7101 C 277.595,78.1711 283.47,78.5551 286.979,78.1851 C 286.003,77.0671 284.645,75.9171 283.019,74.9081 Z" transform=""/><path fill="#49bbd6" stroke="none" d="M 287.368,81.0053 C 288.885,79.8763 287.466,76.1243 284.199,72.6243 S 277.053,67.2033 275.537,68.3323 C 274.02,69.4613 275.439,73.2133 278.706,76.7133 S 285.851,82.1343 287.368,81.0053 Z" transform=""/><path fill="#42a8c1" stroke="none" d="M 278.367,55.9922 C 279.097,54.1072 281.098,53.0712 282.836,53.6772 C 283.641,53.9572 285.669,53.8452 286.569,53.5982 C 288.347,53.1082 290.267,54.2752 290.857,56.2032 C 291.446,58.1312 290.483,60.0912 288.704,60.5802 C 287.058,61.0332 281.866,61.0852 280.192,60.5012 C 278.454,59.8952 277.637,57.8762 278.367,55.9922 Z" transform=""/><path fill="#49bbd6" stroke="none" d="M 278.882,55.2326 C 279.587,53.4116 281.521,52.4096 283.2,52.9956 C 283.978,53.2666 285.938,53.1576 286.807,52.9186 C 288.526,52.4466 290.381,53.5736 290.95,55.4366 C 291.52,57.2996 290.589,59.1936 288.871,59.6666 C 287.28,60.1046 285.611,59.9046 284.914,58.2846 C 284.149,59.9786 282.263,60.1536 280.646,59.5906 C 278.966,59.0046 278.177,57.0536 278.882,55.2326 Z" transform=""/><ellipse cx="282.2302863241826" cy="53.52113410088232" rx="0.5317968566653134" ry="0.7389073808615177" fill="#304454" stroke="none" transform="rotate(1.5587 282.23028761108606 53.521134031846934)" r="NaN"/><ellipse cx="287.51135901695335" cy="53.52113410088232" rx="0.5317968566653134" ry="0.7389073808615177" fill="#304454" stroke="none" transform="rotate(1.5587 287.511360003595 53.521134031846934)" r="NaN"/><path fill="#42a8c1" stroke="none" d="M 286.916,55.8451 S 286.095,57.2371 285.153,57.2401 C 284.584,57.2411 284.205,56.6701 283.86,55.7871 C 283.464,54.7701 284.796,54.4001 285.411,54.4211 C 285.97,54.4421 287.284,54.5731 286.916,55.8451 Z" transform=""/><path fill="#49bbd6" stroke="none" d="M 286.953,55.029 S 286.309,56.511 285.374,56.629 C 284.809,56.7 284.364,56.18 283.913,55.346 C 283.395,54.385 284.671,53.854 285.285,53.801 C 285.843,53.753 287.163,53.722 286.953,55.029 Z" transform=""/><path fill="none" stroke="#378fa4" d="M 288.71,57.2349 S 290.962,58.8719 291.711,60.2769" style="stroke-miterlimit: 10" stroke-miterlimit="10" transform=""/><path fill="none" stroke="#378fa4" d="M 289.645,56.3129 S 292.322,57.0469 293.526,58.1009" style="stroke-miterlimit: 10" stroke-miterlimit="10" transform=""/><path fill="none" stroke="#378fa4" d="M 280.954,56.9264 S 278.702,58.5634 277.953,59.9684" style="stroke-miterlimit: 10" stroke-miterlimit="10" transform=""/><path fill="none" stroke="#378fa4" d="M 280.019,56.0045 S 277.342,56.7385 276.138,57.7925" style="stroke-miterlimit: 10" stroke-miterlimit="10" transform=""/><path fill="#49bbd6" stroke="none" d="M 288.154,78.4083 C 287.399,77.5273 286.54,77.1373 286.235,77.5363 C 286.059,77.7683 286.112,78.2163 286.331,78.7213 C 285.764,78.2713 285.233,78.1313 285.007,78.4283 C 284.876,78.5983 284.874,78.8883 284.966,79.2303 C 284.357,78.7053 283.769,78.5213 283.527,78.8363 C 283.222,79.2363 283.587,80.2743 284.341,81.1553 C 285.096,82.0363 285.955,82.4263 286.26,82.0273 C 286.39,81.8563 286.392,81.5663 286.3,81.2253 C 286.909,81.7503 287.498,81.9343 287.739,81.6183 C 287.916,81.3863 287.862,80.9393 287.644,80.4333 C 288.211,80.8833 288.742,81.0233 288.968,80.7273 C 289.273,80.3273 288.909,79.2893 288.154,78.4083 Z" transform=""/><path fill="#42a8c1" stroke="none" d="M 298.802,74.4206 C 297.929,73.6566 297.024,73.3926 296.779,73.8316 C 296.637,74.0856 296.754,74.5216 297.042,74.9906 C 296.417,74.6256 295.871,74.5636 295.689,74.8886 C 295.584,75.0766 295.624,75.3636 295.764,75.6886 C 295.086,75.2556 294.477,75.1576 294.283,75.5046 C 294.038,75.9436 294.547,76.9196 295.42,77.6836 S 297.198,78.7116 297.443,78.2726 C 297.548,78.0856 297.508,77.7976 297.368,77.4736 C 298.046,77.9056 298.655,78.0036 298.849,77.6566 C 298.99,77.4026 298.874,76.9666 298.586,76.4976 C 299.211,76.8626 299.756,76.9256 299.938,76.5996 C 300.183,76.1606 299.675,75.1846 298.802,74.4206 Z" transform=""/><ellipse cx="34.19586786484784" cy="30.76207427165347" rx="8.48021666530682" ry="3.4588933387731897" fill="#42a8c1" stroke="none" transform="rotate(203.0782 34.19586599196465 30.762075154541925)" r="NaN"/><path fill="#49bbd6" stroke="none" d="M 18.7787,18.0723 C 17.7857,9.09525 21.4257,3.81925 25.9367,3.55325 C 32.0327,3.19425 35.7217,7.02925 34.7377,15.3263 C 34.5377,17.0203 43.0017,29.7373 34.8837,33.7843 C 27.9357,35.6913 4.85068,36.8483 4.40968,28.2223 C 3.86868,17.6583 18.9127,19.2833 18.7787,18.0723 Z" transform=""/><ellipse cx="7.063895159336733" cy="29.041729489905737" rx="7.063895527157479" ry="2.8813452261690475" fill="#49bbd6" stroke="none" transform="rotate(180.2177 7.063895373273289 29.041729541444237)" r="NaN"/><path fill="#42a8c1" stroke="none" d="M 25.8765,32.051 C 21.8965,29.582 19.5085,26.63 18.5015,28.253 C 17.8575,29.292 15.8885,32.839 16.7635,34.853 C 20.4525,35.314 26.3275,35.698 29.8365,35.328 C 28.8605,34.21 27.5025,33.06 25.8765,32.051 Z" transform=""/><path fill="#49bbd6" stroke="none" d="M 30.2253,38.1482 C 31.7423,37.0192 30.3233,33.2672 27.0563,29.7672 S 19.9103,24.3462 18.3943,25.4752 C 16.8773,26.6042 18.2963,30.3562 21.5633,33.8562 S 28.7083,39.2772 30.2253,38.1482 Z" transform=""/><path fill="#42a8c1" stroke="none" d="M 21.2242,13.1351 C 21.9542,11.2501 23.9552,10.2141 25.6932,10.8201 C 26.4982,11.1001 28.5262,10.9881 29.4262,10.7411 C 31.2042,10.2511 33.1242,11.4181 33.7142,13.3461 C 34.3032,15.2741 33.3402,17.2341 31.5612,17.7231 C 29.9152,18.1761 24.7232,18.2281 23.0492,17.6441 C 21.3112,17.0381 20.4942,15.0191 21.2242,13.1351 Z" transform=""/><path fill="#49bbd6" stroke="none" d="M 21.7392,12.3755 C 22.4442,10.5545 24.3782,9.55248 26.0572,10.1385 C 26.8352,10.4095 28.7952,10.3005 29.6642,10.0615 C 31.3832,9.58948 33.2382,10.7165 33.8072,12.5795 C 34.3772,14.4425 33.4462,16.3365 31.7282,16.8095 C 30.1372,17.2475 28.4682,17.0475 27.7712,15.4275 C 27.0062,17.1215 25.1202,17.2965 23.5032,16.7335 C 21.8232,16.1475 21.0342,14.1965 21.7392,12.3755 Z" transform=""/><ellipse cx="25.08742918132551" cy="10.66399124373947" rx="0.5317968566653134" ry="0.7389073808615177" fill="#304454" stroke="none" transform="rotate(1.5587 25.087430468228966 10.66399117470408)" r="NaN"/><ellipse cx="30.368501874096264" cy="10.66399124373947" rx="0.5317968566653134" ry="0.7389073808615177" fill="#304454" stroke="none" transform="rotate(1.5587 30.368502860737884 10.66399117470408)" r="NaN"/><path fill="#42a8c1" stroke="none" d="M 29.7728,12.988 S 28.9518,14.38 28.0098,14.383 C 27.4408,14.384 27.0618,13.813 26.7168,12.93 C 26.3208,11.913 27.6528,11.543 28.2678,11.564 C 28.8268,11.585 30.1408,11.716 29.7728,12.988 Z" transform=""/><path fill="#49bbd6" stroke="none" d="M 29.8096,12.1718 S 29.1656,13.6538 28.2306,13.7718 C 27.6656,13.8428 27.2206,13.3228 26.7696,12.4888 C 26.2516,11.5278 27.5276,10.9968 28.1416,10.9438 C 28.6996,10.8958 30.0196,10.8648 29.8096,12.1718 Z" transform=""/><path fill="none" stroke="#378fa4" d="M 31.5669,14.3777 S 33.8189,16.0147 34.5679,17.4197" style="stroke-miterlimit: 10" stroke-miterlimit="10" transform=""/><path fill="none" stroke="#378fa4" d="M 32.5021,13.4558 S 35.1791,14.1898 36.3831,15.2438" style="stroke-miterlimit: 10" stroke-miterlimit="10" transform=""/><path fill="none" stroke="#378fa4" d="M 23.8113,14.0693 S 21.5593,15.7063 20.8103,17.1113" style="stroke-miterlimit: 10" stroke-miterlimit="10" transform=""/><path fill="none" stroke="#378fa4" d="M 22.8761,13.1473 S 20.1991,13.8813 18.9951,14.9353" style="stroke-miterlimit: 10" stroke-miterlimit="10" transform=""/><path fill="#49bbd6" stroke="none" d="M 31.011,35.5512 C 30.256,34.6702 29.397,34.2802 29.092,34.6792 C 28.916,34.9112 28.969,35.3592 29.188,35.8642 C 28.621,35.4142 28.09,35.2742 27.864,35.5712 C 27.733,35.7412 27.731,36.0312 27.823,36.3732 C 27.214,35.8482 26.626,35.6642 26.384,35.9792 C 26.079,36.3792 26.444,37.4172 27.198,38.2982 C 27.953,39.1792 28.812,39.5692 29.117,39.1702 C 29.247,38.9992 29.249,38.7092 29.157,38.3682 C 29.766,38.8932 30.355,39.0772 30.596,38.7612 C 30.773,38.5292 30.719,38.0822 30.501,37.5762 C 31.068,38.0262 31.599,38.1662 31.825,37.8702 C 32.13,37.4702 31.766,36.4322 31.011,35.5512 Z" transform=""/><path fill="#42a8c1" stroke="none" d="M 41.6592,31.5635 C 40.7862,30.7995 39.8812,30.5355 39.6362,30.9745 C 39.4942,31.2285 39.6112,31.6645 39.8992,32.1335 C 39.2742,31.7685 38.7282,31.7065 38.5462,32.0315 C 38.4412,32.2195 38.4812,32.5065 38.6212,32.8315 C 37.9432,32.3985 37.3342,32.3005 37.1402,32.6475 C 36.8952,33.0865 37.4042,34.0625 38.2772,34.8265 S 40.0552,35.8545 40.3002,35.4155 C 40.4052,35.2285 40.3652,34.9405 40.2252,34.6165 C 40.9032,35.0485 41.5122,35.1465 41.7062,34.7995 C 41.8472,34.5455 41.7312,34.1095 41.4432,33.6405 C 42.0682,34.0055 42.6132,34.0685 42.7952,33.7425 C 43.0402,33.3035 42.5322,32.3275 41.6592,31.5635 Z" transform=""/><ellipse cx="77.05301072199069" cy="30.76207427165347" rx="8.48021666530682" ry="3.4588933387731897" fill="#42a8c1" stroke="none" transform="rotate(203.0782 77.0530088491075 30.762075154541925)" r="NaN"/><path fill="#49bbd6" stroke="none" d="M 61.6358,18.0723 C 60.6428,9.09525 64.2828,3.81925 68.7938,3.55325 C 74.8898,3.19425 78.5788,7.02925 77.5948,15.3263 C 77.3948,17.0203 85.8588,29.7373 77.7408,33.7843 C 70.7928,35.6913 47.7078,36.8483 47.2668,28.2223 C 46.7258,17.6583 61.7698,19.2833 61.6358,18.0723 Z" transform=""/><ellipse cx="49.92103801647958" cy="29.041729489905737" rx="7.063895527157479" ry="2.8813452261690475" fill="#49bbd6" stroke="none" transform="rotate(180.2177 49.92103823041614 29.041729541444237)" r="NaN"/><path fill="#42a8c1" stroke="none" d="M 68.7337,32.051 C 64.7537,29.582 62.3657,26.63 61.3587,28.253 C 60.7147,29.292 58.7457,32.839 59.6207,34.853 C 63.3097,35.314 69.1847,35.698 72.6937,35.328 C 71.7177,34.21 70.3597,33.06 68.7337,32.051 Z" transform=""/><path fill="#49bbd6" stroke="none" d="M 73.0825,38.1482 C 74.5995,37.0192 73.1805,33.2672 69.9135,29.7672 S 62.7675,24.3462 61.2515,25.4752 C 59.7345,26.6042 61.1535,30.3562 64.4205,33.8562 C 67.6875,37.3562 71.5655,39.2772 73.0825,38.1482 Z" transform=""/><path fill="#42a8c1" stroke="none" d="M 64.0813,13.1351 C 64.8113,11.2501 66.8123,10.2141 68.5503,10.8201 C 69.3553,11.1001 71.3833,10.9881 72.2833,10.7411 C 74.0613,10.2511 75.9813,11.4181 76.5713,13.3461 C 77.1603,15.2741 76.1973,17.2341 74.4183,17.7231 C 72.7723,18.1761 67.5803,18.2281 65.9063,17.6441 C 64.1683,17.0381 63.3513,15.0191 64.0813,13.1351 Z" transform=""/><path fill="#49bbd6" stroke="none" d="M 64.5964,12.3755 C 65.3014,10.5545 67.2354,9.55248 68.9144,10.1385 C 69.6924,10.4095 71.6524,10.3005 72.5214,10.0615 C 74.2404,9.58948 76.0954,10.7165 76.6644,12.5795 C 77.2344,14.4425 76.3034,16.3365 74.5854,16.8095 C 72.9944,17.2475 71.3254,17.0475 70.6284,15.4275 C 69.8634,17.1215 67.9774,17.2965 66.3604,16.7335 C 64.6804,16.1475 63.8914,14.1965 64.5964,12.3755 Z" transform=""/><ellipse cx="67.94457203846835" cy="10.66399124373947" rx="0.5317968566653134" ry="0.7389073808615177" fill="#304454" stroke="none" transform="rotate(1.5587 67.9445733253718 10.66399117470408)" r="NaN"/><ellipse cx="73.22564473123911" cy="10.66399124373947" rx="0.5317968566653134" ry="0.7389073808615177" fill="#304454" stroke="none" transform="rotate(1.5587 73.22564571788072 10.66399117470408)" r="NaN"/><path fill="#42a8c1" stroke="none" d="M 72.6299,12.988 S 71.8089,14.38 70.8669,14.383 C 70.2979,14.384 69.9189,13.813 69.5739,12.93 C 69.1779,11.913 70.5099,11.543 71.1249,11.564 C 71.6839,11.585 72.9979,11.716 72.6299,12.988 Z" transform=""/><path fill="#49bbd6" stroke="none" d="M 72.6668,12.1718 S 72.0228,13.6538 71.0878,13.7718 C 70.5228,13.8428 70.0778,13.3228 69.6268,12.4888 C 69.1088,11.5278 70.3848,10.9968 70.9988,10.9438 C 71.5568,10.8958 72.8768,10.8648 72.6668,12.1718 Z" transform=""/><path fill="none" stroke="#378fa4" d="M 74.424,14.3777 S 76.676,16.0147 77.425,17.4197" style="stroke-miterlimit: 10" stroke-miterlimit="10" transform=""/><path fill="none" stroke="#378fa4" d="M 75.3592,13.4558 S 78.0362,14.1898 79.2402,15.2438" style="stroke-miterlimit: 10" stroke-miterlimit="10" transform=""/><path fill="none" stroke="#378fa4" d="M 66.6685,14.0693 S 64.4165,15.7063 63.6675,17.1113" style="stroke-miterlimit: 10" stroke-miterlimit="10" transform=""/><path fill="none" stroke="#378fa4" d="M 65.7333,13.1473 S 63.0563,13.8813 61.8523,14.9353" style="stroke-miterlimit: 10" stroke-miterlimit="10" transform=""/><path fill="#49bbd6" stroke="none" d="M 73.8681,35.5512 C 73.1131,34.6702 72.2541,34.2802 71.9491,34.6792 C 71.7731,34.9112 71.8261,35.3592 72.0451,35.8642 C 71.4781,35.4142 70.9471,35.2742 70.7211,35.5712 C 70.5901,35.7412 70.5881,36.0312 70.6801,36.3732 C 70.0711,35.8482 69.4831,35.6642 69.2411,35.9792 C 68.9361,36.3792 69.3011,37.4172 70.0551,38.2982 C 70.8101,39.1792 71.6691,39.5692 71.9741,39.1702 C 72.1041,38.9992 72.1061,38.7092 72.0141,38.3682 C 72.6231,38.8932 73.2121,39.0772 73.4531,38.7612 C 73.6301,38.5292 73.5761,38.0822 73.3581,37.5762 C 73.9251,38.0262 74.4561,38.1662 74.6821,37.8702 C 74.9871,37.4702 74.6231,36.4322 73.8681,35.5512 Z" transform=""/><path fill="#42a8c1" stroke="none" d="M 84.5164,31.5635 C 83.6434,30.7995 82.7384,30.5355 82.4934,30.9745 C 82.3514,31.2285 82.4684,31.6645 82.7564,32.1335 C 82.1314,31.7685 81.5854,31.7065 81.4034,32.0315 C 81.2984,32.2195 81.3384,32.5065 81.4784,32.8315 C 80.8004,32.3985 80.1914,32.3005 79.9974,32.6475 C 79.7524,33.0865 80.2614,34.0625 81.1344,34.8265 S 82.9124,35.8545 83.1574,35.4155 C 83.2624,35.2285 83.2224,34.9405 83.0824,34.6165 C 83.7604,35.0485 84.3694,35.1465 84.5634,34.7995 C 84.7044,34.5455 84.5884,34.1095 84.3004,33.6405 C 84.9254,34.0055 85.4704,34.0685 85.6524,33.7425 C 85.8974,33.3035 85.3894,32.3275 84.5164,31.5635 Z" transform=""/><ellipse cx="119.91015357913355" cy="30.76207427165347" rx="8.48021666530682" ry="3.4588933387731897" fill="#42a8c1" stroke="none" transform="rotate(203.0782 119.91015170625036 30.762075154541925)" r="NaN"/><path fill="#49bbd6" stroke="none" d="M 104.493,18.0723 C 103.5,9.09525 107.14,3.81925 111.651,3.55325 C 117.747,3.19425 121.436,7.02925 120.452,15.3263 C 120.252,17.0203 128.716,29.7373 120.598,33.7843 C 113.65,35.6913 90.565,36.8483 90.124,28.2223 C 89.583,17.6583 104.627,19.2833 104.493,18.0723 Z" transform=""/><ellipse cx="92.77818087362245" cy="29.041729489905737" rx="7.063895527157479" ry="2.8813452261690475" fill="#49bbd6" stroke="none" transform="rotate(180.2177 92.77818108755899 29.041729541444237)" r="NaN"/><path fill="#42a8c1" stroke="none" d="M 111.591,32.051 C 107.611,29.582 105.223,26.63 104.216,28.253 C 103.572,29.292 101.603,32.839 102.478,34.853 C 106.167,35.314 112.042,35.698 115.551,35.328 C 114.575,34.21 113.217,33.06 111.591,32.051 Z" transform=""/><path fill="#49bbd6" stroke="none" d="M 115.94,38.1482 C 117.457,37.0192 116.038,33.2672 112.771,29.7672 S 105.625,24.3462 104.109,25.4752 C 102.592,26.6042 104.011,30.3562 107.278,33.8562 S 114.423,39.2772 115.94,38.1482 Z" transform=""/><path fill="#42a8c1" stroke="none" d="M 106.938,13.1351 C 107.668,11.2501 109.669,10.2141 111.407,10.8201 C 112.212,11.1001 114.24,10.9881 115.14,10.7411 C 116.918,10.2511 118.838,11.4181 119.428,13.3461 C 120.017,15.2741 119.054,17.2341 117.275,17.7231 C 115.629,18.1761 110.437,18.2281 108.763,17.6441 C 107.025,17.0381 106.208,15.0191 106.938,13.1351 Z" transform=""/><path fill="#49bbd6" stroke="none" d="M 107.454,12.3755 C 108.159,10.5545 110.093,9.55248 111.772,10.1385 C 112.55,10.4095 114.51,10.3005 115.379,10.0615 C 117.098,9.58948 118.953,10.7165 119.522,12.5795 C 120.092,14.4425 119.161,16.3365 117.443,16.8095 C 115.852,17.2475 114.183,17.0475 113.486,15.4275 C 112.721,17.1215 110.835,17.2965 109.218,16.7335 C 107.538,16.1475 106.749,14.1965 107.454,12.3755 Z" transform=""/><ellipse cx="110.80171489561121" cy="10.66399124373947" rx="0.5317968566653134" ry="0.7389073808615177" fill="#304454" stroke="none" transform="rotate(1.5587 110.80171618251467 10.66399117470408)" r="NaN"/><ellipse cx="116.08278758838198" cy="10.66399124373947" rx="0.5317968566653134" ry="0.7389073808615177" fill="#304454" stroke="none" transform="rotate(1.5587 116.08278857502359 10.66399117470408)" r="NaN"/><path fill="#42a8c1" stroke="none" d="M 115.487,12.988 S 114.666,14.38 113.724,14.383 C 113.155,14.384 112.776,13.813 112.431,12.93 C 112.035,11.913 113.367,11.543 113.982,11.564 C 114.541,11.585 115.855,11.716 115.487,12.988 Z" transform=""/><path fill="#49bbd6" stroke="none" d="M 115.524,12.1718 S 114.88,13.6538 113.945,13.7718 C 113.38,13.8428 112.935,13.3228 112.484,12.4888 C 111.966,11.5278 113.242,10.9968 113.856,10.9438 C 114.414,10.8958 115.734,10.8648 115.524,12.1718 Z" transform=""/><path fill="none" stroke="#378fa4" d="M 117.281,14.3777 S 119.533,16.0147 120.282,17.4197" style="stroke-miterlimit: 10" stroke-miterlimit="10" transform=""/><path fill="none" stroke="#378fa4" d="M 118.216,13.4558 S 120.893,14.1898 122.097,15.2438" style="stroke-miterlimit: 10" stroke-miterlimit="10" transform=""/><path fill="none" stroke="#378fa4" d="M 109.526,14.0693 S 107.274,15.7063 106.525,17.1113" style="stroke-miterlimit: 10" stroke-miterlimit="10" transform=""/><path fill="none" stroke="#378fa4" d="M 108.59,13.1473 S 105.913,13.8813 104.709,14.9353" style="stroke-miterlimit: 10" stroke-miterlimit="10" transform=""/><path fill="#49bbd6" stroke="none" d="M 116.725,35.5512 C 115.97,34.6702 115.111,34.2802 114.806,34.6792 C 114.63,34.9112 114.683,35.3592 114.902,35.8642 C 114.335,35.4142 113.804,35.2742 113.578,35.5712 C 113.447,35.7412 113.445,36.0312 113.537,36.3732 C 112.928,35.8482 112.34,35.6642 112.098,35.9792 C 111.793,36.3792 112.158,37.4172 112.912,38.2982 C 113.667,39.1792 114.526,39.5692 114.831,39.1702 C 114.961,38.9992 114.963,38.7092 114.871,38.3682 C 115.48,38.8932 116.069,39.0772 116.31,38.7612 C 116.487,38.5292 116.433,38.0822 116.215,37.5762 C 116.782,38.0262 117.313,38.1662 117.539,37.8702 C 117.844,37.4702 117.48,36.4322 116.725,35.5512 Z" transform=""/><path fill="#42a8c1" stroke="none" d="M 127.374,31.5635 C 126.501,30.7995 125.596,30.5355 125.351,30.9745 C 125.209,31.2285 125.326,31.6645 125.614,32.1335 C 124.989,31.7685 124.443,31.7065 124.261,32.0315 C 124.156,32.2195 124.196,32.5065 124.336,32.8315 C 123.658,32.3985 123.049,32.3005 122.855,32.6475 C 122.61,33.0865 123.119,34.0625 123.992,34.8265 S 125.77,35.8545 126.015,35.4155 C 126.12,35.2285 126.08,34.9405 125.94,34.6165 C 126.618,35.0485 127.227,35.1465 127.421,34.7995 C 127.562,34.5455 127.446,34.1095 127.158,33.6405 C 127.783,34.0055 128.328,34.0685 128.51,33.7425 C 128.755,33.3035 128.247,32.3275 127.374,31.5635 Z" transform=""/><ellipse cx="162.7672964362764" cy="30.76207427165347" rx="8.48021666530682" ry="3.4588933387731897" fill="#42a8c1" stroke="none" transform="rotate(203.0782 162.76729456339325 30.762075154541925)" r="NaN"/><path fill="#49bbd6" stroke="none" d="M 147.35,18.0723 C 146.357,9.09525 149.997,3.81925 154.508,3.55325 C 160.604,3.19425 164.293,7.02925 163.309,15.3263 C 163.109,17.0203 171.573,29.7373 163.455,33.7843 C 156.507,35.6913 133.422,36.8483 132.981,28.2223 C 132.44,17.6583 147.484,19.2833 147.35,18.0723 Z" transform=""/><ellipse cx="135.63532373076532" cy="29.041729489905737" rx="7.063895527157479" ry="2.8813452261690475" fill="#49bbd6" stroke="none" transform="rotate(180.2177 135.63532394470187 29.041729541444237)" r="NaN"/><path fill="#42a8c1" stroke="none" d="M 154.448,32.051 C 150.468,29.582 148.08,26.63 147.073,28.253 C 146.429,29.292 144.46,32.839 145.335,34.853 C 149.024,35.314 154.899,35.698 158.408,35.328 C 157.432,34.21 156.074,33.06 154.448,32.051 Z" transform=""/><path fill="#49bbd6" stroke="none" d="M 158.797,38.1482 C 160.314,37.0192 158.895,33.2672 155.628,29.7672 S 148.482,24.3462 146.966,25.4752 C 145.449,26.6042 146.868,30.3562 150.135,33.8562 S 157.28,39.2772 158.797,38.1482 Z" transform=""/><path fill="#42a8c1" stroke="none" d="M 149.796,13.1351 C 150.526,11.2501 152.527,10.2141 154.265,10.8201 C 155.07,11.1001 157.098,10.9881 157.998,10.7411 C 159.776,10.2511 161.696,11.4181 162.286,13.3461 C 162.875,15.2741 161.912,17.2341 160.133,17.7231 C 158.487,18.1761 153.295,18.2281 151.621,17.6441 C 149.883,17.0381 149.066,15.0191 149.796,13.1351 Z" transform=""/><path fill="#49bbd6" stroke="none" d="M 150.311,12.3755 C 151.016,10.5545 152.95,9.55248 154.629,10.1385 C 155.407,10.4095 157.367,10.3005 158.236,10.0615 C 159.955,9.58948 161.81,10.7165 162.379,12.5795 C 162.949,14.4425 162.018,16.3365 160.3,16.8095 C 158.709,17.2475 157.04,17.0475 156.343,15.4275 C 155.578,17.1215 153.692,17.2965 152.075,16.7335 C 150.395,16.1475 149.606,14.1965 150.311,12.3755 Z" transform=""/><ellipse cx="153.6588577527541" cy="10.66399124373947" rx="0.5317968566653134" ry="0.7389073808615177" fill="#304454" stroke="none" transform="rotate(1.5587 153.65885903965756 10.66399117470408)" r="NaN"/><ellipse cx="158.93993044552485" cy="10.66399124373947" rx="0.5317968566653134" ry="0.7389073808615177" fill="#304454" stroke="none" transform="rotate(1.5587 158.93993143216647 10.66399117470408)" r="NaN"/><path fill="#42a8c1" stroke="none" d="M 158.344,12.988 S 157.523,14.38 156.581,14.383 C 156.012,14.384 155.633,13.813 155.288,12.93 C 154.892,11.913 156.224,11.543 156.839,11.564 C 157.398,11.585 158.712,11.716 158.344,12.988 Z" transform=""/><path fill="#49bbd6" stroke="none" d="M 158.381,12.1718 S 157.737,13.6538 156.802,13.7718 C 156.237,13.8428 155.792,13.3228 155.341,12.4888 C 154.823,11.5278 156.099,10.9968 156.713,10.9438 C 157.271,10.8958 158.591,10.8648 158.381,12.1718 Z" transform=""/><path fill="none" stroke="#378fa4" d="M 160.138,14.3777 S 162.39,16.0147 163.139,17.4197" style="stroke-miterlimit: 10" stroke-miterlimit="10" transform=""/><path fill="none" stroke="#378fa4" d="M 161.074,13.4558 S 163.751,14.1898 164.955,15.2438" style="stroke-miterlimit: 10" stroke-miterlimit="10" transform=""/><path fill="none" stroke="#378fa4" d="M 152.383,14.0693 S 150.131,15.7063 149.382,17.1113" style="stroke-miterlimit: 10" stroke-miterlimit="10" transform=""/><path fill="none" stroke="#378fa4" d="M 151.448,13.1473 S 148.771,13.8813 147.567,14.9353" style="stroke-miterlimit: 10" stroke-miterlimit="10" transform=""/><path fill="#49bbd6" stroke="none" d="M 159.582,35.5512 C 158.827,34.6702 157.968,34.2802 157.663,34.6792 C 157.487,34.9112 157.54,35.3592 157.759,35.8642 C 157.192,35.4142 156.661,35.2742 156.435,35.5712 C 156.304,35.7412 156.302,36.0312 156.394,36.3732 C 155.785,35.8482 155.197,35.6642 154.955,35.9792 C 154.65,36.3792 155.015,37.4172 155.769,38.2982 C 156.524,39.1792 157.383,39.5692 157.688,39.1702 C 157.818,38.9992 157.82,38.7092 157.728,38.3682 C 158.337,38.8932 158.926,39.0772 159.167,38.7612 C 159.344,38.5292 159.29,38.0822 159.072,37.5762 C 159.639,38.0262 160.17,38.1662 160.396,37.8702 C 160.701,37.4702 160.337,36.4322 159.582,35.5512 Z" transform=""/><path fill="#42a8c1" stroke="none" d="M 170.231,31.5635 C 169.358,30.7995 168.453,30.5355 168.208,30.9745 C 168.066,31.2285 168.183,31.6645 168.471,32.1335 C 167.846,31.7685 167.3,31.7065 167.118,32.0315 C 167.013,32.2195 167.053,32.5065 167.193,32.8315 C 166.515,32.3985 165.906,32.3005 165.712,32.6475 C 165.467,33.0865 165.976,34.0625 166.849,34.8265 S 168.627,35.8545 168.872,35.4155 C 168.977,35.2285 168.937,34.9405 168.797,34.6165 C 169.475,35.0485 170.084,35.1465 170.278,34.7995 C 170.419,34.5455 170.303,34.1095 170.015,33.6405 C 170.64,34.0055 171.185,34.0685 171.367,33.7425 C 171.612,33.3035 171.104,32.3275 170.231,31.5635 Z" transform=""/><ellipse cx="205.62443929341924" cy="30.76207427165347" rx="8.48021666530682" ry="3.4588933387731897" fill="#42a8c1" stroke="none" transform="rotate(203.0782 205.62443742053608 30.762075154541925)" r="NaN"/><path fill="#49bbd6" stroke="none" d="M 190.207,18.0723 C 189.214,9.09525 192.854,3.81925 197.365,3.55325 C 203.461,3.19425 207.15,7.02925 206.166,15.3263 C 205.966,17.0203 214.43,29.7373 206.312,33.7843 C 199.364,35.6913 176.279,36.8483 175.838,28.2223 C 175.297,17.6583 190.341,19.2833 190.207,18.0723 Z" transform=""/><ellipse cx="178.49246658790815" cy="29.041729489905737" rx="7.063895527157479" ry="2.8813452261690475" fill="#49bbd6" stroke="none" transform="rotate(180.2177 178.4924668018447 29.041729541444237)" r="NaN"/><path fill="#42a8c1" stroke="none" d="M 197.305,32.051 C 193.325,29.582 190.937,26.63 189.93,28.253 C 189.286,29.292 187.317,32.839 188.192,34.853 C 191.881,35.314 197.756,35.698 201.265,35.328 C 200.289,34.21 198.931,33.06 197.305,32.051 Z" transform=""/><path fill="#49bbd6" stroke="none" d="M 201.654,38.1482 C 203.171,37.0192 201.752,33.2672 198.485,29.7672 S 191.339,24.3462 189.823,25.4752 C 188.306,26.6042 189.725,30.3562 192.992,33.8562 S 200.137,39.2772 201.654,38.1482 Z" transform=""/><path fill="#42a8c1" stroke="none" d="M 192.653,13.1351 C 193.383,11.2501 195.384,10.2141 197.122,10.8201 C 197.927,11.1001 199.955,10.9881 200.855,10.7411 C 202.633,10.2511 204.553,11.4181 205.143,13.3461 C 205.732,15.2741 204.769,17.2341 202.99,17.7231 C 201.344,18.1761 196.152,18.2281 194.478,17.6441 C 192.74,17.0381 191.923,15.0191 192.653,13.1351 Z" transform=""/><path fill="#49bbd6" stroke="none" d="M 193.168,12.3755 C 193.873,10.5545 195.807,9.55248 197.486,10.1385 C 198.264,10.4095 200.224,10.3005 201.093,10.0615 C 202.812,9.58948 204.667,10.7165 205.236,12.5795 C 205.806,14.4425 204.875,16.3365 203.157,16.8095 C 201.566,17.2475 199.897,17.0475 199.2,15.4275 C 198.435,17.1215 196.549,17.2965 194.932,16.7335 C 193.252,16.1475 192.463,14.1965 193.168,12.3755 Z" transform=""/><ellipse cx="196.51600060989693" cy="10.66399124373947" rx="0.5317968566653134" ry="0.7389073808615177" fill="#304454" stroke="none" transform="rotate(1.5587 196.5160018968004 10.66399117470408)" r="NaN"/><ellipse cx="201.79707330266768" cy="10.66399124373947" rx="0.5317968566653134" ry="0.7389073808615177" fill="#304454" stroke="none" transform="rotate(1.5587 201.7970742893093 10.66399117470408)" r="NaN"/><path fill="#42a8c1" stroke="none" d="M 201.201,12.988 S 200.38,14.38 199.438,14.383 C 198.869,14.384 198.49,13.813 198.145,12.93 C 197.749,11.913 199.081,11.543 199.696,11.564 C 200.255,11.585 201.569,11.716 201.201,12.988 Z" transform=""/><path fill="#49bbd6" stroke="none" d="M 201.238,12.1718 S 200.594,13.6538 199.659,13.7718 C 199.094,13.8428 198.649,13.3228 198.198,12.4888 C 197.68,11.5278 198.956,10.9968 199.57,10.9438 C 200.128,10.8958 201.448,10.8648 201.238,12.1718 Z" transform=""/><path fill="none" stroke="#378fa4" d="M 202.995,14.3777 S 205.247,16.0147 205.996,17.4197" style="stroke-miterlimit: 10" stroke-miterlimit="10" transform=""/><path fill="none" stroke="#378fa4" d="M 203.931,13.4558 S 206.608,14.1898 207.812,15.2438" style="stroke-miterlimit: 10" stroke-miterlimit="10" transform=""/><path fill="none" stroke="#378fa4" d="M 195.24,14.0693 S 192.988,15.7063 192.239,17.1113" style="stroke-miterlimit: 10" stroke-miterlimit="10" transform=""/><path fill="none" stroke="#378fa4" d="M 194.305,13.1473 S 191.628,13.8813 190.424,14.9353" style="stroke-miterlimit: 10" stroke-miterlimit="10" transform=""/><path fill="#49bbd6" stroke="none" d="M 202.44,35.5512 C 201.685,34.6702 200.826,34.2802 200.521,34.6792 C 200.345,34.9112 200.398,35.3592 200.617,35.8642 C 200.05,35.4142 199.519,35.2742 199.293,35.5712 C 199.162,35.7412 199.16,36.0312 199.252,36.3732 C 198.643,35.8482 198.055,35.6642 197.813,35.9792 C 197.508,36.3792 197.873,37.4172 198.627,38.2982 C 199.382,39.1792 200.241,39.5692 200.546,39.1702 C 200.676,38.9992 200.678,38.7092 200.586,38.3682 C 201.195,38.8932 201.784,39.0772 202.025,38.7612 C 202.202,38.5292 202.148,38.0822 201.93,37.5762 C 202.497,38.0262 203.028,38.1662 203.254,37.8702 C 203.559,37.4702 203.195,36.4322 202.44,35.5512 Z" transform=""/><path fill="#42a8c1" stroke="none" d="M 213.088,31.5635 C 212.215,30.7995 211.31,30.5355 211.065,30.9745 C 210.923,31.2285 211.04,31.6645 211.328,32.1335 C 210.703,31.7685 210.157,31.7065 209.975,32.0315 C 209.87,32.2195 209.91,32.5065 210.05,32.8315 C 209.372,32.3985 208.763,32.3005 208.569,32.6475 C 208.324,33.0865 208.833,34.0625 209.706,34.8265 S 211.484,35.8545 211.729,35.4155 C 211.834,35.2285 211.794,34.9405 211.654,34.6165 C 212.332,35.0485 212.941,35.1465 213.135,34.7995 C 213.276,34.5455 213.16,34.1095 212.872,33.6405 C 213.497,34.0055 214.042,34.0685 214.224,33.7425 C 214.469,33.3035 213.961,32.3275 213.088,31.5635 Z" transform=""/><ellipse cx="248.48158215056213" cy="30.76207427165347" rx="8.48021666530682" ry="3.4588933387731897" fill="#42a8c1" stroke="none" transform="rotate(203.0782 248.48158027767892 30.762075154541925)" r="NaN"/><path fill="#49bbd6" stroke="none" d="M 233.064,18.0723 C 232.071,9.09525 235.711,3.81925 240.222,3.55325 C 246.318,3.19425 250.007,7.02925 249.023,15.3263 C 248.823,17.0203 257.287,29.7373 249.169,33.7843 C 242.221,35.6913 219.136,36.8483 218.695,28.2223 C 218.154,17.6583 233.198,19.2833 233.064,18.0723 Z" transform=""/><ellipse cx="221.34960944505102" cy="29.041729489905737" rx="7.063895527157479" ry="2.8813452261690475" fill="#49bbd6" stroke="none" transform="rotate(180.2177 221.34960965898756 29.041729541444237)" r="NaN"/><path fill="#42a8c1" stroke="none" d="M 240.162,32.051 C 236.182,29.582 233.794,26.63 232.787,28.253 C 232.143,29.292 230.174,32.839 231.049,34.853 C 234.738,35.314 240.613,35.698 244.122,35.328 C 243.146,34.21 241.788,33.06 240.162,32.051 Z" transform=""/><path fill="#49bbd6" stroke="none" d="M 244.511,38.1482 C 246.028,37.0192 244.609,33.2672 241.342,29.7672 S 234.196,24.3462 232.68,25.4752 C 231.163,26.6042 232.582,30.3562 235.849,33.8562 S 242.994,39.2772 244.511,38.1482 Z" transform=""/><path fill="#42a8c1" stroke="none" d="M 235.51,13.1351 C 236.24,11.2501 238.241,10.2141 239.979,10.8201 C 240.784,11.1001 242.812,10.9881 243.712,10.7411 C 245.49,10.2511 247.41,11.4181 248,13.3461 C 248.589,15.2741 247.626,17.2341 245.847,17.7231 C 244.201,18.1761 239.009,18.2281 237.335,17.6441 C 235.597,17.0381 234.78,15.0191 235.51,13.1351 Z" transform=""/><path fill="#49bbd6" stroke="none" d="M 236.025,12.3755 C 236.73,10.5545 238.664,9.55248 240.343,10.1385 C 241.121,10.4095 243.081,10.3005 243.95,10.0615 C 245.669,9.58948 247.524,10.7165 248.093,12.5795 C 248.663,14.4425 247.732,16.3365 246.014,16.8095 C 244.423,17.2475 242.754,17.0475 242.057,15.4275 C 241.292,17.1215 239.406,17.2965 237.789,16.7335 C 236.109,16.1475 235.32,14.1965 236.025,12.3755 Z" transform=""/><ellipse cx="239.3731434670398" cy="10.66399124373947" rx="0.5317968566653134" ry="0.7389073808615177" fill="#304454" stroke="none" transform="rotate(1.5587 239.37314475394325 10.66399117470408)" r="NaN"/><ellipse cx="244.65421615981055" cy="10.66399124373947" rx="0.5317968566653134" ry="0.7389073808615177" fill="#304454" stroke="none" transform="rotate(1.5587 244.65421714645217 10.66399117470408)" r="NaN"/><path fill="#42a8c1" stroke="none" d="M 244.058,12.988 S 243.237,14.38 242.295,14.383 C 241.726,14.384 241.347,13.813 241.002,12.93 C 240.606,11.913 241.938,11.543 242.553,11.564 C 243.112,11.585 244.426,11.716 244.058,12.988 Z" transform=""/><path fill="#49bbd6" stroke="none" d="M 244.095,12.1718 S 243.451,13.6538 242.516,13.7718 C 241.951,13.8428 241.506,13.3228 241.055,12.4888 C 240.537,11.5278 241.813,10.9968 242.427,10.9438 C 242.985,10.8958 244.305,10.8648 244.095,12.1718 Z" transform=""/><path fill="none" stroke="#378fa4" d="M 245.853,14.3777 S 248.105,16.0147 248.854,17.4197" style="stroke-miterlimit: 10" stroke-miterlimit="10" transform=""/><path fill="none" stroke="#378fa4" d="M 246.788,13.4558 S 249.465,14.1898 250.669,15.2438" style="stroke-miterlimit: 10" stroke-miterlimit="10" transform=""/><path fill="none" stroke="#378fa4" d="M 238.097,14.0693 S 235.845,15.7063 235.096,17.1113" style="stroke-miterlimit: 10" stroke-miterlimit="10" transform=""/><path fill="none" stroke="#378fa4" d="M 237.162,13.1473 S 234.485,13.8813 233.281,14.9353" style="stroke-miterlimit: 10" stroke-miterlimit="10" transform=""/><path fill="#49bbd6" stroke="none" d="M 245.297,35.5512 C 244.542,34.6702 243.683,34.2802 243.378,34.6792 C 243.202,34.9112 243.255,35.3592 243.474,35.8642 C 242.907,35.4142 242.376,35.2742 242.15,35.5712 C 242.019,35.7412 242.017,36.0312 242.109,36.3732 C 241.5,35.8482 240.912,35.6642 240.67,35.9792 C 240.365,36.3792 240.73,37.4172 241.484,38.2982 C 242.239,39.1792 243.098,39.5692 243.403,39.1702 C 243.533,38.9992 243.535,38.7092 243.443,38.3682 C 244.052,38.8932 244.641,39.0772 244.882,38.7612 C 245.059,38.5292 245.005,38.0822 244.787,37.5762 C 245.354,38.0262 245.885,38.1662 246.111,37.8702 C 246.416,37.4702 246.052,36.4322 245.297,35.5512 Z" transform=""/><path fill="#42a8c1" stroke="none" d="M 255.945,31.5635 C 255.072,30.7995 254.167,30.5355 253.922,30.9745 C 253.78,31.2285 253.897,31.6645 254.185,32.1335 C 253.56,31.7685 253.014,31.7065 252.832,32.0315 C 252.727,32.2195 252.767,32.5065 252.907,32.8315 C 252.229,32.3985 251.62,32.3005 251.426,32.6475 C 251.181,33.0865 251.69,34.0625 252.563,34.8265 S 254.341,35.8545 254.586,35.4155 C 254.691,35.2285 254.651,34.9405 254.511,34.6165 C 255.189,35.0485 255.798,35.1465 255.992,34.7995 C 256.133,34.5455 256.017,34.1095 255.729,33.6405 C 256.354,34.0055 256.899,34.0685 257.081,33.7425 C 257.326,33.3035 256.818,32.3275 255.945,31.5635 Z" transform=""/><ellipse cx="291.33872500770497" cy="30.76207427165347" rx="8.48021666530682" ry="3.4588933387731897" fill="#42a8c1" stroke="none" transform="rotate(203.0782 291.33872313482175 30.762075154541925)" r="NaN"/><path fill="#49bbd6" stroke="none" d="M 275.922,18.0723 C 274.929,9.09525 278.569,3.81925 283.08,3.55325 C 289.176,3.19425 292.865,7.02925 291.881,15.3263 C 291.681,17.0203 300.145,29.7373 292.027,33.7843 C 285.079,35.6913 261.994,36.8483 261.553,28.2223 C 261.012,17.6583 276.056,19.2833 275.922,18.0723 Z" transform=""/><ellipse cx="264.2067523021938" cy="29.041729489905737" rx="7.063895527157479" ry="2.8813452261690475" fill="#49bbd6" stroke="none" transform="rotate(180.2177 264.2067525161304 29.041729541444237)" r="NaN"/><path fill="#42a8c1" stroke="none" d="M 283.019,32.051 C 279.039,29.582 276.651,26.63 275.644,28.253 C 275,29.292 273.031,32.839 273.906,34.853 C 277.595,35.314 283.47,35.698 286.979,35.328 C 286.003,34.21 284.645,33.06 283.019,32.051 Z" transform=""/><path fill="#49bbd6" stroke="none" d="M 287.368,38.1482 C 288.885,37.0192 287.466,33.2672 284.199,29.7672 S 277.053,24.3462 275.537,25.4752 C 274.02,26.6042 275.439,30.3562 278.706,33.8562 S 285.851,39.2772 287.368,38.1482 Z" transform=""/><path fill="#42a8c1" stroke="none" d="M 278.367,13.1351 C 279.097,11.2501 281.098,10.2141 282.836,10.8201 C 283.641,11.1001 285.669,10.9881 286.569,10.7411 C 288.347,10.2511 290.267,11.4181 290.857,13.3461 C 291.446,15.2741 290.483,17.2341 288.704,17.7231 C 287.058,18.1761 281.866,18.2281 280.192,17.6441 C 278.454,17.0381 277.637,15.0191 278.367,13.1351 Z" transform=""/><path fill="#49bbd6" stroke="none" d="M 278.882,12.3755 C 279.587,10.5545 281.521,9.55248 283.2,10.1385 C 283.978,10.4095 285.938,10.3005 286.807,10.0615 C 288.526,9.58948 290.381,10.7165 290.95,12.5795 C 291.52,14.4425 290.589,16.3365 288.871,16.8095 C 287.28,17.2475 285.611,17.0475 284.914,15.4275 C 284.149,17.1215 282.263,17.2965 280.646,16.7335 C 278.966,16.1475 278.177,14.1965 278.882,12.3755 Z" transform=""/><ellipse cx="282.2302863241826" cy="10.66399124373947" rx="0.5317968566653134" ry="0.7389073808615177" fill="#304454" stroke="none" transform="rotate(1.5587 282.23028761108606 10.66399117470408)" r="NaN"/><ellipse cx="287.51135901695335" cy="10.66399124373947" rx="0.5317968566653134" ry="0.7389073808615177" fill="#304454" stroke="none" transform="rotate(1.5587 287.511360003595 10.66399117470408)" r="NaN"/><path fill="#42a8c1" stroke="none" d="M 286.916,12.988 S 286.095,14.38 285.153,14.383 C 284.584,14.384 284.205,13.813 283.86,12.93 C 283.464,11.913 284.796,11.543 285.411,11.564 C 285.97,11.585 287.284,11.716 286.916,12.988 Z" transform=""/><path fill="#49bbd6" stroke="none" d="M 286.953,12.1718 S 286.309,13.6538 285.374,13.7718 C 284.809,13.8428 284.364,13.3228 283.913,12.4888 C 283.395,11.5278 284.671,10.9968 285.285,10.9438 C 285.843,10.8958 287.163,10.8648 286.953,12.1718 Z" transform=""/><path fill="none" stroke="#378fa4" d="M 288.71,14.3777 S 290.962,16.0147 291.711,17.4197" style="stroke-miterlimit: 10" stroke-miterlimit="10" transform=""/><path fill="none" stroke="#378fa4" d="M 289.645,13.4558 S 292.322,14.1898 293.526,15.2438" style="stroke-miterlimit: 10" stroke-miterlimit="10" transform=""/><path fill="none" stroke="#378fa4" d="M 280.954,14.0693 S 278.702,15.7063 277.953,17.1113" style="stroke-miterlimit: 10" stroke-miterlimit="10" transform=""/><path fill="none" stroke="#378fa4" d="M 280.019,13.1473 S 277.342,13.8813 276.138,14.9353" style="stroke-miterlimit: 10" stroke-miterlimit="10" transform=""/><path fill="#49bbd6" stroke="none" d="M 288.154,35.5512 C 287.399,34.6702 286.54,34.2802 286.235,34.6792 C 286.059,34.9112 286.112,35.3592 286.331,35.8642 C 285.764,35.4142 285.233,35.2742 285.007,35.5712 C 284.876,35.7412 284.874,36.0312 284.966,36.3732 C 284.357,35.8482 283.769,35.6642 283.527,35.9792 C 283.222,36.3792 283.587,37.4172 284.341,38.2982 C 285.096,39.1792 285.955,39.5692 286.26,39.1702 C 286.39,38.9992 286.392,38.7092 286.3,38.3682 C 286.909,38.8932 287.498,39.0772 287.739,38.7612 C 287.916,38.5292 287.862,38.0822 287.644,37.5762 C 288.211,38.0262 288.742,38.1662 288.968,37.8702 C 289.273,37.4702 288.909,36.4322 288.154,35.5512 Z" transform=""/><path fill="#42a8c1" stroke="none" d="M 298.802,31.5635 C 297.929,30.7995 297.024,30.5355 296.779,30.9745 C 296.637,31.2285 296.754,31.6645 297.042,32.1335 C 296.417,31.7685 295.871,31.7065 295.689,32.0315 C 295.584,32.2195 295.624,32.5065 295.764,32.8315 C 295.086,32.3985 294.477,32.3005 294.283,32.6475 C 294.038,33.0865 294.547,34.0625 295.42,34.8265 S 297.198,35.8545 297.443,35.4155 C 297.548,35.2285 297.508,34.9405 297.368,34.6165 C 298.046,35.0485 298.655,35.1465 298.849,34.7995 C 298.99,34.5455 298.874,34.1095 298.586,33.6405 C 299.211,34.0055 299.756,34.0685 299.938,33.7425 C 300.183,33.3035 299.675,32.3275 298.802,31.5635 Z" transform=""/></svg>