<svg xmlns="http://www.w3.org/2000/svg" version="1.1" width="140" height="46.666666666666664" viewBox="0 0 140 46.666666666666664"><defs><linearGradient id="r-5c64bcf47e9e4f42a8cfec1300bbb6be" x1="0" y1="0" x2="1" y2="2.4492935982947064e-16"><stop offset="0%" stop-color="#fdc075"/><stop offset="100%" stop-color="#de9354"/></linearGradient><linearGradient id="r-8331e1a916d84fbf8b115913a650f6fc" x1="0" y1="0" x2="1" y2="2.4492935982947064e-16"><stop offset="0%" stop-color="#fdc075"/><stop offset="100%" stop-color="#de9354"/></linearGradient></defs><path fill="#fcd0a1" stroke="none" d="M 92.5503,27.62 S 94.3943,25.014 92.4233,21.708 C 90.4533,18.403 85.9403,18.403 84.7953,18.403 C 83.6513,18.403 76.1513,17.513 71.8913,16.179 C 67.6333,14.844 60.0053,11.665 58.7973,11.03 C 57.5893,10.394 54.0943,10.33 54.0303,16.877 C 54.0303,16.877 65.2813,23.488 69.8583,24.442 C 74.4343,25.395 82.0623,27.747 83.8423,27.937 C 85.6223,28.129 89.6903,29.591 92.5503,27.62 Z" transform=""/><path fill="#e8b986" stroke="none" d="M 90.7708,26.7937 S 92.2968,21.5817 84.9228,21.2637 C 77.5498,20.9457 70.8748,19.4207 67.5068,18.2127 C 64.1378,17.0047 58.6068,14.3987 56.9548,13.3177 C 55.3018,12.2377 54.1578,14.5257 54.0308,16.8777 C 54.0308,16.8777 71.6378,24.6327 74.8158,25.2047 C 78.6648,25.8977 89.3088,27.7477 90.7708,26.7937 Z" transform=""/><path fill="#b35138" stroke="none" d="M 50.6618,15.9243 C 52.0598,14.3983 53.5858,14.8433 54.3488,15.0983 C 55.1108,15.3523 55.0478,15.6703 63.5658,19.0393 C 72.0828,22.4083 84.9228,24.1243 84.9228,24.1243 C 86.1948,24.3143 86.4488,24.2513 90.1348,24.7603 C 93.8218,25.2683 94.1398,29.2733 91.5338,30.6083 C 88.9268,31.9423 80.2828,30.6083 76.0238,30.1633 S 65.0268,27.6843 60.0688,25.9043 S 50.9158,20.1203 50.6608,19.8663 C 50.4078,19.6113 49.2638,17.4493 50.6618,15.9243 Z" transform=""/><path fill="#9b3924" stroke="none" d="M 76.0236,30.1626 C 71.7656,29.7176 65.0266,27.6836 60.0686,25.9036 C 55.1116,24.1236 50.9156,20.1196 50.6616,19.8656 C 50.4216,19.6256 49.3956,17.6986 50.4406,16.2006 C 51.2836,17.0076 52.6396,17.8096 53.7176,18.4896 C 55.2396,19.4506 57.4816,19.8506 67.4906,23.6146 S 88.1506,27.6186 88.9506,27.6986 C 89.7516,27.7786 90.3736,28.1976 89.5916,28.8996 C 88.9366,29.4886 90.2806,30.5316 91.1886,30.4386 C 91.5096,30.4066 91.8716,30.2876 92.2126,30.1446 C 92.0136,30.3206 91.7886,30.4766 91.5336,30.6076 C 88.9276,31.9426 80.2826,30.6076 76.0236,30.1626 Z" transform=""/><path fill="url(#r-5c64bcf47e9e4f42a8cfec1300bbb6be)" stroke="none" d="M 58.798,11.0302 C 60.006,11.6652 67.396,14.6732 71.655,16.0082 S 83.651,18.4042 84.796,18.4042 C 85.844,18.4042 89.722,18.4062 91.879,20.9502 C 88.471,18.0102 81.984,20.4122 71.414,17.9302 C 65.075,16.4412 63.006,14.4062 57.321,12.1652 C 56.39,11.7972 55.808,11.7602 55.268,11.9592 C 56.422,10.3392 58.048,10.6352 58.798,11.0302 Z" opacity="1" fill-opacity="1" style="opacity: 1;fill-opacity: 1" transform=""/><path fill="url(#r-8331e1a916d84fbf8b115913a650f6fc)" stroke="none" d="M 90.3754,30.9539 S 89.5304,31.5339 86.4484,29.6539 C 83.1474,27.6409 79.3934,27.3659 76.7864,26.8569 C 74.1804,26.3489 58.9894,21.3279 57.3354,20.6919 C 55.6834,20.0559 51.0844,17.6079 50.2804,17.3229 C 48.3094,16.6229 45.6864,16.8839 47.0384,20.5649 C 48.1824,23.6799 50.3434,26.6029 58.4804,31.2439 C 66.6164,35.8839 79.7014,36.9529 85.6224,35.0579 C 88.8004,34.0399 90.3754,31.9069 90.3754,30.9539 Z" opacity="1" fill-opacity="1" style="opacity: 1;fill-opacity: 1" transform=""/><path fill="#fcd0a1" stroke="none" d="M 50.2813,17.3259 C 51.0843,17.6119 55.6843,20.0589 57.3373,20.6949 C 58.9893,21.3309 74.1813,26.3519 76.7883,26.8609 C 79.3933,27.3689 83.1483,27.6439 86.4493,29.6569 C 89.5313,31.5369 90.3763,30.9569 90.3763,30.9569 C 90.3763,31.7609 89.2523,33.3989 86.9983,34.5039 C 86.8863,33.8269 86.7063,33.3029 86.5893,33.1469 C 86.2293,32.6669 84.0673,32.6669 82.7453,32.0659 C 81.4243,31.4649 75.4183,30.3839 73.3773,30.0239 C 71.3353,29.6629 68.6923,29.5429 67.7313,29.3029 S 64.9683,28.2219 64.1283,27.9809 C 63.2873,27.7409 63.6473,27.8619 61.8463,27.5009 C 60.0443,27.1409 51.9973,21.7359 49.8353,20.6549 C 48.3403,19.9079 47.8213,18.4139 47.5253,17.2449 C 48.2593,16.8789 49.3433,16.9929 50.2813,17.3259 Z" transform=""/><path fill="#9b3924" stroke="none" d="M 83.3977,26.7496 C 84.2217,26.5496 85.2057,26.3546 86.4287,26.3546 L 86.4287,26.3546 C 86.9227,26.3546 87.4567,26.3866 88.0347,26.4636 L 88.0347,26.4636 L 88.0347,26.4636 C 88.2997,26.5006 88.5427,26.3156 88.5787,26.0526 L 88.5787,26.0526 C 88.6147,25.7896 88.4297,25.5476 88.1647,25.5116 L 88.1647,25.5116 C 87.5437,25.4286 86.9657,25.3936 86.4287,25.3936 L 86.4287,25.3936 C 85.1017,25.3936 84.0257,25.6076 83.1677,25.8176 L 83.1677,25.8176 C 82.3147,26.0286 81.6657,26.2186 81.2767,26.2126 L 81.2767,26.2126 C 81.1607,26.2126 81.0707,26.1996 80.9977,26.1766 L 80.9977,26.1766 C 80.5997,26.0686 79.9757,25.4756 79.2397,24.8036 L 79.2397,24.8036 C 78.4937,24.1406 77.5807,23.4056 76.3697,23.1026 L 76.3697,23.1026 C 75.9967,23.0096 75.6307,22.9716 75.2747,22.9716 L 75.2747,22.9716 C 73.7717,22.9856 72.4697,23.5796 71.2357,23.5656 L 71.2357,23.5656 C 70.8507,23.5656 70.4717,23.5146 70.0787,23.3816 L 70.0787,23.3816 C 69.0837,23.0436 68.5187,22.4746 67.7457,21.8006 L 67.7457,21.8006 C 66.9807,21.1326 66.0157,20.4036 64.3637,19.9836 L 64.3637,19.9836 C 63.8867,19.8606 63.4357,19.8146 63.0087,19.8156 L 63.0087,19.8156 C 61.7727,19.8216 60.7707,20.1706 59.8687,20.1616 L 59.8687,20.1616 C 59.6287,20.1616 59.3937,20.1406 59.1577,20.0876 L 59.1577,20.0876 C 58.8697,20.0176 58.7137,19.8896 58.5127,19.6286 L 58.5127,19.6286 C 58.3177,19.3696 58.1247,18.9856 57.8567,18.5586 L 57.8567,18.5586 C 57.3257,17.6966 56.3977,16.7056 54.4407,16.3206 L 54.4407,16.3206 C 54.1797,16.2666 53.9247,16.4346 53.8707,16.6936 L 53.8707,16.6936 C 53.8167,16.9536 53.9847,17.2076 54.2467,17.2616 L 54.2467,17.2616 C 55.5417,17.5316 56.1867,18.0086 56.6407,18.5266 L 56.6407,18.5266 C 57.0967,19.0476 57.3357,19.6506 57.7357,20.1996 L 57.7357,20.1996 C 58.0007,20.5626 58.3927,20.9046 58.9447,21.0236 L 58.9447,21.0236 C 59.2617,21.0946 59.5697,21.1216 59.8687,21.1216 L 59.8687,21.1216 C 60.9977,21.1136 61.9757,20.7676 63.0087,20.7746 L 63.0087,20.7746 C 63.3667,20.7746 63.7327,20.8126 64.1217,20.9126 L 64.1217,20.9126 C 65.6087,21.2986 66.3737,21.8876 67.1097,22.5226 L 67.1097,22.5226 C 67.8387,23.1536 68.5447,23.8756 69.7677,24.2906 L 69.7677,24.2906 C 70.2707,24.4606 70.7637,24.5256 71.2357,24.5256 L 71.2357,24.5256 C 72.7507,24.5126 74.0547,23.9186 75.2747,23.9316 L 75.2747,23.9316 C 75.5637,23.9316 75.8477,23.9616 76.1357,24.0326 L 76.1357,24.0326 C 77.0877,24.2676 77.8797,24.8776 78.5947,25.5176 L 78.5947,25.5176 C 79.3187,26.1506 79.9127,26.8216 80.7067,27.0906 L 80.7067,27.0906 C 80.8947,27.1496 81.0857,27.1716 81.2767,27.1716 L 81.2767,27.1716 C 81.9177,27.1666 82.5707,26.9466 83.3977,26.7496 L 83.3977,26.7496 Z" transform=""/><path fill="#f6b21a" stroke="none" d="M 83.4057,26.5692 C 84.2247,26.3692 85.2027,26.1742 86.4187,26.1742 L 86.4187,26.1742 C 86.9107,26.1742 87.4407,26.2062 88.0157,26.2832 L 88.0157,26.2832 L 88.0157,26.2832 C 88.2787,26.3202 88.5207,26.1352 88.5557,25.8722 L 88.5557,25.8722 C 88.5917,25.6092 88.4077,25.3672 88.1447,25.3312 L 88.1447,25.3312 C 87.5267,25.2492 86.9527,25.2132 86.4187,25.2132 L 86.4187,25.2132 C 85.1007,25.2132 84.0297,25.4272 83.1777,25.6372 L 83.1777,25.6372 C 82.3287,25.8482 81.6837,26.0382 81.2967,26.0322 L 81.2967,26.0322 C 81.1817,26.0322 81.0927,26.0192 81.0197,25.9962 L 81.0197,25.9962 C 80.6237,25.8882 80.0037,25.2952 79.2717,24.6232 L 79.2717,24.6232 C 78.5307,23.9602 77.6227,23.2252 76.4187,22.9222 L 76.4187,22.9222 C 76.0477,22.8292 75.6837,22.7922 75.3297,22.7922 L 75.3297,22.7922 C 73.8357,22.8062 72.5417,23.3992 71.3147,23.3862 L 71.3147,23.3862 C 70.9317,23.3852 70.5547,23.3352 70.1647,23.2022 L 70.1647,23.2022 C 69.1747,22.8642 68.6127,22.2952 67.8447,21.6212 L 67.8447,21.6212 C 67.0847,20.9532 66.1247,20.2242 64.4827,19.8042 L 64.4827,19.8042 C 64.0087,19.6822 63.5597,19.6352 63.1357,19.6362 L 63.1357,19.6362 C 61.9067,19.6422 60.9107,19.9912 60.0137,19.9822 L 60.0137,19.9822 C 59.7747,19.9822 59.5417,19.9612 59.3057,19.9082 L 59.3057,19.9082 C 59.0197,19.8392 58.8657,19.7102 58.6657,19.4502 L 58.6657,19.4502 C 58.4717,19.1912 58.2797,18.8062 58.0127,18.3792 L 58.0127,18.3792 C 57.4847,17.5182 56.5627,16.5262 54.6167,16.1412 L 54.6167,16.1412 C 54.3567,16.0882 54.1037,16.2552 54.0497,16.5152 L 54.0497,16.5152 C 53.9957,16.7752 54.1637,17.0292 54.4237,17.0822 L 54.4237,17.0822 C 55.7107,17.3522 56.3517,17.8292 56.8037,18.3472 L 56.8037,18.3472 C 57.2577,18.8692 57.4947,19.4722 57.8927,20.0212 L 57.8927,20.0212 C 58.1557,20.3832 58.5457,20.7262 59.0937,20.8452 L 59.0937,20.8452 C 59.4087,20.9152 59.7157,20.9432 60.0127,20.9432 L 60.0127,20.9432 C 61.1357,20.9352 62.1077,20.5892 63.1347,20.5962 L 63.1347,20.5962 C 63.4907,20.5962 63.8537,20.6342 64.2417,20.7342 L 64.2417,20.7342 C 65.7187,21.1202 66.4797,21.7092 67.2117,22.3452 L 67.2117,22.3452 C 67.9367,22.9752 68.6387,23.6972 69.8537,24.1122 L 69.8537,24.1122 C 70.3537,24.2822 70.8437,24.3462 71.3137,24.3462 L 71.3137,24.3462 C 72.8207,24.3332 74.1167,23.7392 75.3297,23.7532 L 75.3297,23.7532 C 75.6167,23.7532 75.8987,23.7822 76.1847,23.8542 L 76.1847,23.8542 C 77.1317,24.0882 77.9187,24.6992 78.6297,25.3382 L 78.6297,25.3382 C 79.3497,25.9712 79.9407,26.6432 80.7297,26.9122 L 80.7297,26.9122 C 80.9157,26.9712 81.1057,26.9932 81.2957,26.9932 L 81.2957,26.9932 C 81.9347,26.9862 82.5827,26.7662 83.4057,26.5692 M 83.4057,26.5692 L 83.4057,26.5692 Z" transform=""/><path fill="#fbd702" stroke="none" d="M 81.2961,26.411 C 82.3781,26.404 83.9051,25.592 86.4181,25.593 L 86.4181,25.593 C 86.9261,25.593 87.4731,25.626 88.0631,25.706 L 88.0631,25.706 C 88.1291,25.715 88.1891,25.669 88.1981,25.603 L 88.1981,25.603 C 88.2071,25.537 88.1611,25.477 88.0951,25.468 L 88.0951,25.468 C 87.4941,25.387 86.9361,25.353 86.4181,25.353 L 86.4181,25.353 C 83.8611,25.354 82.2651,26.178 81.2961,26.171 L 81.2961,26.171 C 81.1531,26.171 81.0261,26.154 80.9101,26.118 L 80.9101,26.118 C 79.8051,25.788 78.5351,23.609 76.3311,23.05 L 76.3311,23.05 C 75.9911,22.965 75.6581,22.931 75.3291,22.931 L 75.3291,22.931 C 73.9401,22.934 72.6461,23.528 71.3131,23.525 L 71.3131,23.525 C 70.8981,23.525 70.4791,23.468 70.0471,23.322 L 70.0471,23.322 C 67.9081,22.607 67.5601,20.758 64.3911,19.931 L 64.3911,19.931 C 63.9501,19.817 63.5321,19.775 63.1341,19.775 L 63.1341,19.775 C 61.9821,19.776 60.9941,20.123 60.0131,20.121 L 60.0131,20.121 C 59.7521,20.121 59.4911,20.097 59.2251,20.038 L 59.2251,20.038 C 58.4671,19.873 58.2201,19.173 57.7071,18.35 L 57.7071,18.35 C 57.1971,17.534 56.4011,16.651 54.5431,16.272 L 54.5431,16.272 C 54.4781,16.259 54.4151,16.301 54.4021,16.366 L 54.4021,16.366 C 54.3881,16.431 54.4301,16.494 54.4951,16.508 L 54.4951,16.508 C 56.2951,16.882 57.0051,17.693 57.5031,18.478 L 57.5031,18.478 C 57.9981,19.254 58.2631,20.06 59.1731,20.272 L 59.1731,20.272 C 59.4581,20.335 59.7371,20.361 60.0131,20.361 L 60.0131,20.361 C 61.0501,20.359 62.0311,20.012 63.1341,20.014 L 63.1341,20.014 C 63.5161,20.014 63.9121,20.055 64.3311,20.163 L 64.3311,20.163 C 67.4011,20.95 67.6981,22.758 69.9701,23.549 L 69.9701,23.549 C 70.4291,23.704 70.8761,23.764 71.3131,23.764 L 71.3131,23.764 C 72.7151,23.761 74.0101,23.167 75.3291,23.171 L 75.3291,23.171 C 75.6411,23.171 75.9541,23.203 76.2721,23.282 L 76.2721,23.282 C 78.3701,23.798 79.5741,25.923 80.8371,26.346 L 80.8371,26.346 C 80.9801,26.391 81.1301,26.41 81.2901,26.41 L 81.2901,26.41 C 81.2921,26.411 81.2941,26.411 81.2961,26.411 L 81.2961,26.411 Z" transform=""/></svg>