<svg xmlns="http://www.w3.org/2000/svg" version="1.1" width="90" height="45" viewBox="0 0 90 45"><defs><linearGradient id="r-a92572810d904c0994ffc535a6512233" x1="0" y1="0" x2="1" y2="2.4492935982947064e-16"><stop offset="0%" stop-color="#fdc075"/><stop offset="100%" stop-color="#de9354"/></linearGradient><linearGradient id="r-15d6a14d298d4f8a83867dbcfd88c6a5" x1="0" y1="0" x2="1" y2="2.4492935982947064e-16"><stop offset="0%" stop-color="#fdc075"/><stop offset="100%" stop-color="#de9354"/></linearGradient><linearGradient id="r-7c9aca82700344feb9cd20c91f613b77" x1="0" y1="0" x2="1" y2="2.4492935982947064e-16"><stop offset="0%" stop-color="#fdc075"/><stop offset="100%" stop-color="#de9354"/></linearGradient><linearGradient id="r-2f06a349a85e4fe39c9854845a6414c7" x1="0" y1="0" x2="1" y2="2.4492935982947064e-16"><stop offset="0%" stop-color="#fdc075"/><stop offset="100%" stop-color="#de9354"/></linearGradient></defs><path fill="#fcd0a1" stroke="none" d="M 44.2449,26.6336 S 46.0229,24.1206 44.1229,20.9336 C 42.2229,17.7456 37.8709,17.7456 36.7669,17.7456 C 35.6639,17.7456 28.4309,16.8876 24.3239,15.6006 C 20.2179,14.3136 12.8619,11.2486 11.6979,10.6356 C 10.5329,10.0226 7.16189,9.96155 7.10089,16.2746 C 7.10089,16.2746 17.9499,22.6496 22.3629,23.5686 C 26.7759,24.4886 34.1309,26.7556 35.8479,26.9396 C 37.5649,27.1246 41.4869,28.5336 44.2449,26.6336 Z" transform=""/><path fill="#e8b986" stroke="none" d="M 42.529,25.8368 S 44,20.8108 36.89,20.5048 C 29.78,20.1978 23.344,18.7268 20.095,17.5628 C 16.847,16.3978 11.514,13.8848 9.91999,12.8428 C 8.32699,11.8008 7.22299,14.0068 7.10099,16.2748 C 7.10099,16.2748 24.079,23.7528 27.144,24.3048 C 30.855,24.9728 41.119,26.7568 42.529,25.8368 Z" transform=""/><path fill="#b35138" stroke="none" d="M 3.85242,15.3556 C 5.20042,13.8846 6.67242,14.3136 7.40742,14.5586 C 8.14342,14.8036 8.08242,15.1106 16.2954,18.3586 C 24.5084,21.6076 36.8904,23.2626 36.8904,23.2626 C 38.1164,23.4466 38.3614,23.3856 41.9154,23.8756 C 45.4714,24.3656 45.7774,28.2276 43.2644,29.5146 C 40.7514,30.8016 32.4154,29.5146 28.3084,29.0856 C 24.2024,28.6566 17.7044,26.6956 12.9234,24.9786 C 8.14342,23.2626 4.09742,19.4016 3.85142,19.1566 C 3.60742,18.9106 2.50442,16.8266 3.85242,15.3556 Z" transform=""/><path fill="#9b3924" stroke="none" d="M 28.3085,29.0853 C 24.2025,28.6563 17.7045,26.6953 12.9235,24.9783 C 8.14247,23.2623 4.09747,19.4013 3.85147,19.1563 C 3.62147,18.9253 2.63147,17.0663 3.63947,15.6213 C 4.45247,16.4003 5.75947,17.1733 6.79947,17.8293 C 8.26647,18.7563 10.4285,19.1423 20.0805,22.7713 S 40.0015,26.6323 40.7745,26.7093 C 41.5465,26.7863 42.1455,27.1903 41.3915,27.8683 C 40.7605,28.4353 42.0565,29.4413 42.9315,29.3523 C 43.2415,29.3203 43.5905,29.2053 43.9185,29.0683 C 43.7275,29.2373 43.5105,29.3883 43.2645,29.5143 C 40.7515,30.8013 32.4155,29.5143 28.3085,29.0853 Z" transform=""/><path fill="url(#r-a92572810d904c0994ffc535a6512233)" stroke="none" d="M 11.6981,10.6362 C 12.8631,11.2492 19.9891,14.1492 24.0961,15.4362 C 28.2021,16.7232 35.6641,17.7462 36.7671,17.7462 C 37.7781,17.7462 41.5171,17.7482 43.5971,20.2022 C 40.3111,17.3672 34.0561,19.6832 23.8641,17.2892 C 17.7511,15.8542 15.7561,13.8922 10.2731,11.7302 C 9.37607,11.3762 8.81507,11.3402 8.29407,11.5322 C 9.40607,9.97023 10.9741,10.2552 11.6981,10.6362 Z" opacity="1" fill-opacity="1" style="opacity: 1;fill-opacity: 1" transform=""/><path fill="url(#r-15d6a14d298d4f8a83867dbcfd88c6a5)" stroke="none" d="M 42.1477,29.8484 S 41.3327,30.4074 38.3617,28.5954 C 35.1777,26.6534 31.5577,26.3884 29.0447,25.8984 C 26.5307,25.4084 11.8827,20.5654 10.2877,19.9524 C 8.69473,19.3394 4.25973,16.9784 3.48473,16.7044 C 1.58473,16.0294 -0.945266,16.2804 0.358734,19.8304 C 1.46173,22.8334 3.54573,25.6534 11.3917,30.1274 C 19.2367,34.6024 31.8547,35.6324 37.5647,33.8054 C 40.6287,32.8244 42.1477,30.7674 42.1477,29.8484 Z" opacity="1" fill-opacity="1" style="opacity: 1;fill-opacity: 1" transform=""/><path fill="#fcd0a1" stroke="none" d="M 3.4855,16.7071 C 4.2605,16.9821 8.6955,19.3431 10.2895,19.9561 C 11.8825,20.5691 26.5325,25.4111 29.0455,25.9011 C 31.5585,26.3911 35.1785,26.6571 38.3615,28.5981 C 41.3335,30.4111 42.1485,29.8511 42.1485,29.8511 C 42.1485,30.6261 41.0645,32.2061 38.8915,33.2721 C 38.7835,32.6191 38.6105,32.1141 38.4965,31.9631 C 38.1495,31.5001 36.0645,31.5001 34.7905,30.9201 C 33.5165,30.3411 27.7255,29.2991 25.7565,28.9511 C 23.7875,28.6041 21.2395,28.4881 20.3125,28.2561 C 19.3855,28.0251 17.6485,27.2141 16.8375,26.9821 S 16.3745,26.8661 14.6375,26.5191 C 12.9005,26.1721 5.1395,20.9601 3.0555,19.9171 C 1.6135,19.1971 1.1135,17.7561 0.8275,16.6291 C 1.5355,16.2761 2.5815,16.3861 3.4855,16.7071 Z" transform=""/><path fill="#9b3924" stroke="none" d="M 35.4192,25.7943 C 36.2132,25.6013 37.1632,25.4133 38.3422,25.4133 L 38.3422,25.4133 C 38.8192,25.4133 39.3332,25.4443 39.8912,25.5193 L 39.8912,25.5193 L 39.8902,25.5193 C 40.1462,25.5533 40.3802,25.3753 40.4152,25.1223 L 40.4152,25.1223 C 40.4502,24.8683 40.2712,24.6353 40.0162,24.6013 L 40.0162,24.6013 C 39.4172,24.5203 38.8592,24.4863 38.3422,24.4863 L 38.3422,24.4863 C 37.0622,24.4863 36.0242,24.6933 35.1972,24.8953 L 35.1972,24.8953 C 34.3752,25.0993 33.7492,25.2823 33.3742,25.2763 L 33.3742,25.2763 C 33.2622,25.2763 33.1752,25.2633 33.1042,25.2413 L 33.1042,25.2413 C 32.7212,25.1373 32.1192,24.5663 31.4092,23.9183 L 31.4092,23.9183 C 30.6902,23.2783 29.8102,22.5693 28.6422,22.2773 L 28.6422,22.2773 C 28.2822,22.1883 27.9292,22.1513 27.5862,22.1513 L 27.5862,22.1513 C 26.1362,22.1653 24.8822,22.7373 23.6922,22.7243 L 23.6922,22.7243 C 23.3202,22.7233 22.9552,22.6753 22.5762,22.5463 L 22.5762,22.5463 C 21.6172,22.2203 21.0722,21.6713 20.3262,21.0223 L 20.3262,21.0223 C 19.5892,20.3783 18.6582,19.6743 17.0652,19.2693 L 17.0652,19.2693 C 16.6052,19.1513 16.1702,19.1063 15.7592,19.1073 L 15.7592,19.1073 C 14.5672,19.1143 13.6012,19.4503 12.7312,19.4423 L 12.7312,19.4423 C 12.4992,19.4423 12.2732,19.4213 12.0442,19.3693 L 12.0442,19.3693 C 11.7672,19.3023 11.6172,19.1793 11.4232,18.9273 L 11.4232,18.9273 C 11.2352,18.6783 11.0492,18.3073 10.7902,17.8953 L 10.7902,17.8953 C 10.2782,17.0653 9.38324,16.1093 7.49624,15.7373 L 7.49624,15.7373 C 7.24524,15.6853 6.99824,15.8473 6.94624,16.0973 L 6.94624,16.0973 C 6.89524,16.3483 7.05724,16.5933 7.30924,16.6443 L 7.30924,16.6443 C 8.55824,16.9053 9.18024,17.3653 9.61824,17.8643 L 9.61824,17.8643 C 10.0582,18.3673 10.2882,18.9493 10.6742,19.4783 L 10.6742,19.4783 C 10.9292,19.8283 11.3072,20.1583 11.8402,20.2733 L 11.8402,20.2733 C 12.1452,20.3413 12.4422,20.3673 12.7312,20.3673 L 12.7312,20.3673 C 13.8192,20.3593 14.7622,20.0263 15.7592,20.0323 L 15.7592,20.0323 C 16.1032,20.0333 16.4562,20.0693 16.8322,20.1653 L 16.8322,20.1653 C 18.2652,20.5383 19.0032,21.1063 19.7132,21.7183 L 19.7132,21.7183 C 20.4162,22.3263 21.0962,23.0223 22.2762,23.4233 L 22.2762,23.4233 C 22.7612,23.5873 23.2362,23.6493 23.6922,23.6493 L 23.6922,23.6493 C 25.1522,23.6363 26.4102,23.0643 27.5862,23.0773 L 27.5862,23.0773 C 27.8652,23.0773 28.1382,23.1053 28.4162,23.1743 L 28.4162,23.1743 C 29.3352,23.4013 30.0982,23.9893 30.7872,24.6063 L 30.7872,24.6063 C 31.4862,25.2163 32.0582,25.8643 32.8242,26.1233 L 32.8242,26.1233 C 33.0052,26.1803 33.1892,26.2013 33.3742,26.2013 L 33.3742,26.2013 C 33.9922,26.1963 34.6212,25.9843 35.4192,25.7943 L 35.4192,25.7943 Z" transform=""/><path fill="#f6b21a" stroke="none" d="M 35.4269,25.6203 C 36.2169,25.4273 37.1599,25.2393 38.3329,25.2393 L 38.3329,25.2393 C 38.8069,25.2393 39.3179,25.2703 39.8729,25.3453 L 39.8729,25.3453 L 39.8719,25.3453 C 40.1259,25.3793 40.3599,25.2013 40.3939,24.9483 L 40.3939,24.9483 C 40.4279,24.6943 40.2499,24.4613 39.9959,24.4273 L 39.9959,24.4273 C 39.4009,24.3473 38.8469,24.3123 38.3329,24.3123 L 38.3329,24.3123 C 37.0609,24.3123 36.0279,24.5193 35.2069,24.7213 L 35.2069,24.7213 C 34.3879,24.9253 33.7659,25.1083 33.3929,25.1023 L 33.3929,25.1023 C 33.2829,25.1023 33.1959,25.0893 33.1259,25.0673 L 33.1259,25.0673 C 32.7439,24.9633 32.1469,24.3923 31.4409,23.7443 L 31.4409,23.7443 C 30.7259,23.1043 29.8499,22.3953 28.6899,22.1033 L 28.6899,22.1033 C 28.3319,22.0143 27.9809,21.9783 27.6399,21.9783 L 27.6399,21.9783 C 26.1989,21.9913 24.9509,22.5633 23.7679,22.5513 L 23.7679,22.5513 C 23.3979,22.5503 23.0349,22.5013 22.6589,22.3733 L 22.6589,22.3733 C 21.7039,22.0473 21.1619,21.4983 20.4209,20.8493 L 20.4209,20.8493 C 19.6889,20.2053 18.7629,19.5023 17.1799,19.0973 L 17.1799,19.0973 C 16.7229,18.9793 16.2899,18.9343 15.8809,18.9343 L 15.8809,18.9343 C 14.6959,18.9413 13.7349,19.2773 12.8699,19.2693 L 12.8699,19.2693 C 12.6399,19.2693 12.4149,19.2483 12.1879,19.1973 L 12.1879,19.1973 C 11.9119,19.1303 11.7629,19.0063 11.5699,18.7553 L 11.5699,18.7553 C 11.3829,18.5053 11.1979,18.1353 10.9409,17.7233 L 10.9409,17.7233 C 10.4319,16.8923 9.54292,15.9363 7.66592,15.5653 L 7.66592,15.5653 C 7.41592,15.5133 7.17092,15.6753 7.11992,15.9253 L 7.11992,15.9253 C 7.06792,16.1763 7.22992,16.4203 7.47992,16.4723 L 7.47992,16.4723 C 8.72092,16.7323 9.33892,17.1923 9.77492,17.6923 L 9.77492,17.6923 C 10.2129,18.1953 10.4409,18.7763 10.8249,19.3063 L 10.8249,19.3063 C 11.0779,19.6553 11.4549,19.9863 11.9839,20.1003 L 11.9839,20.1003 C 12.2869,20.1683 12.5829,20.1953 12.8699,20.1953 L 12.8699,20.1953 C 13.9519,20.1873 14.8899,19.8543 15.8799,19.8603 L 15.8799,19.8603 C 16.2229,19.8613 16.5739,19.8973 16.9469,19.9933 L 16.9469,19.9933 C 18.3719,20.3663 19.1059,20.9343 19.8109,21.5463 L 19.8109,21.5463 C 20.5099,22.1543 21.1869,22.8503 22.3589,23.2513 L 22.3589,23.2513 C 22.8419,23.4143 23.3139,23.4773 23.7669,23.4773 L 23.7669,23.4773 C 25.2199,23.4643 26.4689,22.8913 27.6389,22.9043 L 27.6389,22.9043 C 27.9159,22.9043 28.1879,22.9333 28.4639,23.0023 L 28.4639,23.0023 C 29.3769,23.2283 30.1359,23.8173 30.8209,24.4333 L 30.8209,24.4333 C 31.5159,25.0443 32.0849,25.6913 32.8459,25.9513 L 32.8459,25.9513 C 33.0259,26.0073 33.2099,26.0293 33.3929,26.0293 L 33.3929,26.0293 C 34.0079,26.0223 34.6339,25.8103 35.4269,25.6203 M 35.4269,25.6203 L 35.4269,25.6203 Z" transform=""/><path fill="#fbd702" stroke="none" d="M 33.3927,25.4678 C 34.4357,25.4608 35.9087,24.6778 38.3317,24.6788 L 38.3317,24.6788 C 38.8217,24.6788 39.3487,24.7108 39.9177,24.7878 L 39.9177,24.7878 C 39.9817,24.7968 40.0397,24.7528 40.0487,24.6888 L 40.0487,24.6888 C 40.0567,24.6248 40.0127,24.5668 39.9497,24.5588 L 39.9497,24.5588 C 39.3697,24.4798 38.8317,24.4478 38.3317,24.4478 L 38.3317,24.4478 C 35.8667,24.4488 34.3267,25.2428 33.3927,25.2368 L 33.3927,25.2368 C 33.2547,25.2368 33.1327,25.2198 33.0197,25.1848 L 33.0197,25.1848 C 31.9547,24.8668 30.7307,22.7658 28.6047,22.2268 L 28.6047,22.2268 C 28.2777,22.1448 27.9557,22.1118 27.6387,22.1118 L 27.6387,22.1118 C 26.2997,22.1158 25.0507,22.6878 23.7667,22.6848 L 23.7667,22.6848 C 23.3657,22.6848 22.9617,22.6298 22.5457,22.4888 L 22.5457,22.4888 C 20.4837,21.7998 20.1477,20.0168 17.0917,19.2198 L 17.0917,19.2198 C 16.6657,19.1098 16.2637,19.0688 15.8797,19.0688 L 15.8797,19.0688 C 14.7677,19.0698 13.8157,19.4048 12.8697,19.4028 L 12.8697,19.4028 C 12.6177,19.4028 12.3667,19.3798 12.1097,19.3218 L 12.1097,19.3218 C 11.3787,19.1628 11.1417,18.4878 10.6457,17.6948 L 10.6457,17.6948 C 10.1537,16.9078 9.38671,16.0568 7.59571,15.6918 L 7.59571,15.6918 C 7.53271,15.6788 7.47171,15.7188 7.45871,15.7818 L 7.45871,15.7818 C 7.44571,15.8438 7.48671,15.9048 7.54871,15.9178 L 7.54871,15.9178 C 9.28371,16.2788 9.96871,17.0608 10.4497,17.8178 L 10.4497,17.8178 C 10.9267,18.5668 11.1827,19.3438 12.0597,19.5478 L 12.0597,19.5478 C 12.3347,19.6088 12.6037,19.6338 12.8697,19.6338 L 12.8697,19.6338 C 13.8697,19.6318 14.8157,19.2978 15.8797,19.2988 L 15.8797,19.2988 C 16.2477,19.2988 16.6297,19.3388 17.0337,19.4428 L 17.0337,19.4428 C 19.9937,20.2018 20.2807,21.9448 22.4717,22.7078 L 22.4717,22.7078 C 22.9137,22.8578 23.3447,22.9158 23.7667,22.9158 L 23.7667,22.9158 C 25.1187,22.9128 26.3677,22.3398 27.6387,22.3428 L 27.6387,22.3428 C 27.9397,22.3438 28.2417,22.3748 28.5477,22.4508 L 28.5477,22.4508 C 30.5707,22.9488 31.7327,24.9968 32.9497,25.4048 L 32.9497,25.4048 C 33.0887,25.4488 33.2327,25.4668 33.3867,25.4668 L 33.3867,25.4668 C 33.3887,25.4678 33.3907,25.4678 33.3927,25.4678 M 33.3927,25.4678 L 33.3927,25.4678 Z" transform=""/><path fill="#fcd0a1" stroke="none" d="M 89.2449,26.6336 S 91.0229,24.1206 89.1229,20.9336 C 87.2229,17.7456 82.8709,17.7456 81.7669,17.7456 C 80.6639,17.7456 73.4309,16.8876 69.3239,15.6006 C 65.2179,14.3136 57.8619,11.2486 56.6979,10.6356 C 55.5329,10.0226 52.1619,9.96155 52.1009,16.2746 C 52.1009,16.2746 62.9499,22.6496 67.3629,23.5686 C 71.7759,24.4886 79.1309,26.7556 80.8479,26.9396 C 82.5649,27.1246 86.4869,28.5336 89.2449,26.6336 Z" transform=""/><path fill="#e8b986" stroke="none" d="M 87.529,25.8368 S 89,20.8108 81.89,20.5048 C 74.78,20.1978 68.344,18.7268 65.095,17.5628 C 61.847,16.3978 56.514,13.8848 54.92,12.8428 C 53.327,11.8008 52.223,14.0068 52.101,16.2748 C 52.101,16.2748 69.079,23.7528 72.144,24.3048 C 75.855,24.9728 86.119,26.7568 87.529,25.8368 Z" transform=""/><path fill="#b35138" stroke="none" d="M 48.8524,15.3556 C 50.2004,13.8846 51.6724,14.3136 52.4074,14.5586 C 53.1434,14.8036 53.0824,15.1106 61.2954,18.3586 C 69.5084,21.6076 81.8904,23.2626 81.8904,23.2626 C 83.1164,23.4466 83.3614,23.3856 86.9154,23.8756 C 90.4714,24.3656 90.7774,28.2276 88.2644,29.5146 C 85.7514,30.8016 77.4154,29.5146 73.3084,29.0856 C 69.2024,28.6566 62.7044,26.6956 57.9234,24.9786 C 53.1434,23.2626 49.0974,19.4016 48.8514,19.1566 C 48.6074,18.9106 47.5044,16.8266 48.8524,15.3556 Z" transform=""/><path fill="#9b3924" stroke="none" d="M 73.3085,29.0853 C 69.2025,28.6563 62.7045,26.6953 57.9235,24.9783 C 53.1425,23.2623 49.0975,19.4013 48.8515,19.1563 C 48.6215,18.9253 47.6315,17.0663 48.6395,15.6213 C 49.4525,16.4003 50.7595,17.1733 51.7995,17.8293 C 53.2665,18.7563 55.4285,19.1423 65.0805,22.7713 C 74.7325,26.4003 85.0015,26.6323 85.7745,26.7093 C 86.5465,26.7863 87.1455,27.1903 86.3915,27.8683 C 85.7605,28.4353 87.0565,29.4413 87.9315,29.3523 C 88.2415,29.3203 88.5905,29.2053 88.9185,29.0683 C 88.7275,29.2373 88.5105,29.3883 88.2645,29.5143 C 85.7515,30.8013 77.4155,29.5143 73.3085,29.0853 Z" transform=""/><path fill="url(#r-7c9aca82700344feb9cd20c91f613b77)" stroke="none" d="M 56.6981,10.6362 C 57.8631,11.2492 64.9891,14.1492 69.0961,15.4362 C 73.2021,16.7232 80.6641,17.7462 81.7671,17.7462 C 82.7781,17.7462 86.5171,17.7482 88.5971,20.2022 C 85.3111,17.3672 79.0561,19.6832 68.8641,17.2892 C 62.7511,15.8542 60.7561,13.8922 55.2731,11.7302 C 54.3761,11.3762 53.8151,11.3402 53.2941,11.5322 C 54.4061,9.97023 55.9741,10.2552 56.6981,10.6362 Z" opacity="1" fill-opacity="1" style="opacity: 1;fill-opacity: 1" transform=""/><path fill="url(#r-2f06a349a85e4fe39c9854845a6414c7)" stroke="none" d="M 87.1477,29.8484 S 86.3327,30.4074 83.3617,28.5954 C 80.1777,26.6534 76.5577,26.3884 74.0447,25.8984 C 71.5307,25.4084 56.8827,20.5654 55.2877,19.9524 C 53.6947,19.3394 49.2597,16.9784 48.4847,16.7044 C 46.5847,16.0294 44.0547,16.2804 45.3587,19.8304 C 46.4617,22.8334 48.5457,25.6534 56.3917,30.1274 C 64.2367,34.6024 76.8547,35.6324 82.5647,33.8054 C 85.6287,32.8244 87.1477,30.7674 87.1477,29.8484 Z" opacity="1" fill-opacity="1" style="opacity: 1;fill-opacity: 1" transform=""/><path fill="#fcd0a1" stroke="none" d="M 48.4855,16.7071 C 49.2605,16.9821 53.6955,19.3431 55.2895,19.9561 C 56.8825,20.5691 71.5325,25.4111 74.0455,25.9011 S 80.1785,26.6571 83.3615,28.5981 C 86.3335,30.4111 87.1485,29.8511 87.1485,29.8511 C 87.1485,30.6261 86.0645,32.2061 83.8915,33.2721 C 83.7835,32.6191 83.6105,32.1141 83.4965,31.9631 C 83.1495,31.5001 81.0645,31.5001 79.7905,30.9201 C 78.5165,30.3411 72.7255,29.2991 70.7565,28.9511 C 68.7875,28.6041 66.2395,28.4881 65.3125,28.2561 C 64.3855,28.0251 62.6485,27.2141 61.8375,26.9821 S 61.3745,26.8661 59.6375,26.5191 S 50.1395,20.9601 48.0555,19.9171 C 46.6135,19.1971 46.1135,17.7561 45.8275,16.6291 C 46.5355,16.2761 47.5815,16.3861 48.4855,16.7071 Z" transform=""/><path fill="#9b3924" stroke="none" d="M 80.4192,25.7943 C 81.2132,25.6013 82.1632,25.4133 83.3422,25.4133 L 83.3422,25.4133 C 83.8192,25.4133 84.3332,25.4443 84.8912,25.5193 L 84.8912,25.5193 L 84.8902,25.5193 C 85.1462,25.5533 85.3802,25.3753 85.4152,25.1223 L 85.4152,25.1223 C 85.4502,24.8683 85.2712,24.6353 85.0162,24.6013 L 85.0162,24.6013 C 84.4172,24.5203 83.8592,24.4863 83.3422,24.4863 L 83.3422,24.4863 C 82.0622,24.4863 81.0242,24.6933 80.1972,24.8953 L 80.1972,24.8953 C 79.3752,25.0993 78.7492,25.2823 78.3742,25.2763 L 78.3742,25.2763 C 78.2622,25.2763 78.1752,25.2633 78.1042,25.2413 L 78.1042,25.2413 C 77.7212,25.1373 77.1192,24.5663 76.4092,23.9183 L 76.4092,23.9183 C 75.6902,23.2783 74.8102,22.5693 73.6422,22.2773 L 73.6422,22.2773 C 73.2822,22.1883 72.9292,22.1513 72.5862,22.1513 L 72.5862,22.1513 C 71.1362,22.1653 69.8822,22.7373 68.6922,22.7243 L 68.6922,22.7243 C 68.3202,22.7233 67.9552,22.6753 67.5762,22.5463 L 67.5762,22.5463 C 66.6172,22.2203 66.0722,21.6713 65.3262,21.0223 L 65.3262,21.0223 C 64.5892,20.3783 63.6582,19.6743 62.0652,19.2693 L 62.0652,19.2693 C 61.6052,19.1513 61.1702,19.1063 60.7592,19.1073 L 60.7592,19.1073 C 59.5672,19.1143 58.6012,19.4503 57.7312,19.4423 L 57.7312,19.4423 C 57.4992,19.4423 57.2732,19.4213 57.0442,19.3693 L 57.0442,19.3693 C 56.7672,19.3023 56.6172,19.1793 56.4232,18.9273 L 56.4232,18.9273 C 56.2352,18.6783 56.0492,18.3073 55.7902,17.8953 L 55.7902,17.8953 C 55.2782,17.0653 54.3832,16.1093 52.4962,15.7373 L 52.4962,15.7373 C 52.2452,15.6853 51.9982,15.8473 51.9462,16.0973 L 51.9462,16.0973 C 51.8952,16.3483 52.0572,16.5933 52.3092,16.6443 L 52.3092,16.6443 C 53.5582,16.9053 54.1802,17.3653 54.6182,17.8643 L 54.6182,17.8643 C 55.0582,18.3673 55.2882,18.9493 55.6742,19.4783 L 55.6742,19.4783 C 55.9292,19.8283 56.3072,20.1583 56.8402,20.2733 L 56.8402,20.2733 C 57.1452,20.3413 57.4422,20.3673 57.7312,20.3673 L 57.7312,20.3673 C 58.8192,20.3593 59.7622,20.0263 60.7592,20.0323 L 60.7592,20.0323 C 61.1032,20.0333 61.4562,20.0693 61.8322,20.1653 L 61.8322,20.1653 C 63.2652,20.5383 64.0032,21.1063 64.7132,21.7183 L 64.7132,21.7183 C 65.4162,22.3263 66.0962,23.0223 67.2762,23.4233 L 67.2762,23.4233 C 67.7612,23.5873 68.2362,23.6493 68.6922,23.6493 L 68.6922,23.6493 C 70.1522,23.6363 71.4102,23.0643 72.5862,23.0773 L 72.5862,23.0773 C 72.8652,23.0773 73.1382,23.1053 73.4162,23.1743 L 73.4162,23.1743 C 74.3352,23.4013 75.0982,23.9893 75.7872,24.6063 L 75.7872,24.6063 C 76.4862,25.2163 77.0582,25.8643 77.8242,26.1233 L 77.8242,26.1233 C 78.0052,26.1803 78.1892,26.2013 78.3742,26.2013 L 78.3742,26.2013 C 78.9922,26.1963 79.6212,25.9843 80.4192,25.7943 L 80.4192,25.7943 Z" transform=""/><path fill="#f6b21a" stroke="none" d="M 80.4269,25.6203 C 81.2169,25.4273 82.1599,25.2393 83.3329,25.2393 L 83.3329,25.2393 C 83.8069,25.2393 84.3179,25.2703 84.8729,25.3453 L 84.8729,25.3453 L 84.8719,25.3453 C 85.1259,25.3793 85.3599,25.2013 85.3939,24.9483 L 85.3939,24.9483 C 85.4279,24.6943 85.2499,24.4613 84.9959,24.4273 L 84.9959,24.4273 C 84.4009,24.3473 83.8469,24.3123 83.3329,24.3123 L 83.3329,24.3123 C 82.0609,24.3123 81.0279,24.5193 80.2069,24.7213 L 80.2069,24.7213 C 79.3879,24.9253 78.7659,25.1083 78.3929,25.1023 L 78.3929,25.1023 C 78.2829,25.1023 78.1959,25.0893 78.1259,25.0673 L 78.1259,25.0673 C 77.7439,24.9633 77.1469,24.3923 76.4409,23.7443 L 76.4409,23.7443 C 75.7259,23.1043 74.8499,22.3953 73.6899,22.1033 L 73.6899,22.1033 C 73.3319,22.0143 72.9809,21.9783 72.6399,21.9783 L 72.6399,21.9783 C 71.1989,21.9913 69.9509,22.5633 68.7679,22.5513 L 68.7679,22.5513 C 68.3979,22.5503 68.0349,22.5013 67.6589,22.3733 L 67.6589,22.3733 C 66.7039,22.0473 66.1619,21.4983 65.4209,20.8493 L 65.4209,20.8493 C 64.6889,20.2053 63.7629,19.5023 62.1799,19.0973 L 62.1799,19.0973 C 61.7229,18.9793 61.2899,18.9343 60.8809,18.9343 L 60.8809,18.9343 C 59.6959,18.9413 58.7349,19.2773 57.8699,19.2693 L 57.8699,19.2693 C 57.6399,19.2693 57.4149,19.2483 57.1879,19.1973 L 57.1879,19.1973 C 56.9119,19.1303 56.7629,19.0063 56.5699,18.7553 L 56.5699,18.7553 C 56.3829,18.5053 56.1979,18.1353 55.9409,17.7233 L 55.9409,17.7233 C 55.4319,16.8923 54.5429,15.9363 52.6659,15.5653 L 52.6659,15.5653 C 52.4159,15.5133 52.1709,15.6753 52.1199,15.9253 L 52.1199,15.9253 C 52.0679,16.1763 52.2299,16.4203 52.4799,16.4723 L 52.4799,16.4723 C 53.7209,16.7323 54.3389,17.1923 54.7749,17.6923 L 54.7749,17.6923 C 55.2129,18.1953 55.4409,18.7763 55.8249,19.3063 L 55.8249,19.3063 C 56.0779,19.6553 56.4549,19.9863 56.9839,20.1003 L 56.9839,20.1003 C 57.2869,20.1683 57.5829,20.1953 57.8699,20.1953 L 57.8699,20.1953 C 58.9519,20.1873 59.8899,19.8543 60.8799,19.8603 L 60.8799,19.8603 C 61.2229,19.8613 61.5739,19.8973 61.9469,19.9933 L 61.9469,19.9933 C 63.3719,20.3663 64.1059,20.9343 64.8109,21.5463 L 64.8109,21.5463 C 65.5099,22.1543 66.1869,22.8503 67.3589,23.2513 L 67.3589,23.2513 C 67.8419,23.4143 68.3139,23.4773 68.7669,23.4773 L 68.7669,23.4773 C 70.2199,23.4643 71.4689,22.8913 72.6389,22.9043 L 72.6389,22.9043 C 72.9159,22.9043 73.1879,22.9333 73.4639,23.0023 L 73.4639,23.0023 C 74.3769,23.2283 75.1359,23.8173 75.8209,24.4333 L 75.8209,24.4333 C 76.5159,25.0443 77.0849,25.6913 77.8459,25.9513 L 77.8459,25.9513 C 78.0259,26.0073 78.2099,26.0293 78.3929,26.0293 L 78.3929,26.0293 C 79.0079,26.0223 79.6339,25.8103 80.4269,25.6203 L 80.4269,25.6203 Z" transform=""/><path fill="#fbd702" stroke="none" d="M 78.3927,25.4678 C 79.4357,25.4608 80.9087,24.6778 83.3317,24.6788 L 83.3317,24.6788 C 83.8217,24.6788 84.3487,24.7108 84.9177,24.7878 L 84.9177,24.7878 C 84.9817,24.7968 85.0397,24.7528 85.0487,24.6888 L 85.0487,24.6888 C 85.0567,24.6248 85.0127,24.5668 84.9497,24.5588 L 84.9497,24.5588 C 84.3697,24.4798 83.8317,24.4478 83.3317,24.4478 L 83.3317,24.4478 C 80.8667,24.4488 79.3267,25.2428 78.3927,25.2368 L 78.3927,25.2368 C 78.2547,25.2368 78.1327,25.2198 78.0197,25.1848 L 78.0197,25.1848 C 76.9547,24.8668 75.7307,22.7658 73.6047,22.2268 L 73.6047,22.2268 C 73.2777,22.1448 72.9557,22.1118 72.6387,22.1118 L 72.6387,22.1118 C 71.2997,22.1158 70.0507,22.6878 68.7667,22.6848 L 68.7667,22.6848 C 68.3657,22.6848 67.9617,22.6298 67.5457,22.4888 L 67.5457,22.4888 C 65.4837,21.7998 65.1477,20.0168 62.0917,19.2198 L 62.0917,19.2198 C 61.6657,19.1098 61.2637,19.0688 60.8797,19.0688 L 60.8797,19.0688 C 59.7677,19.0698 58.8157,19.4048 57.8697,19.4028 L 57.8697,19.4028 C 57.6177,19.4028 57.3667,19.3798 57.1097,19.3218 L 57.1097,19.3218 C 56.3787,19.1628 56.1417,18.4878 55.6457,17.6948 L 55.6457,17.6948 C 55.1537,16.9078 54.3867,16.0568 52.5957,15.6918 L 52.5957,15.6918 C 52.5327,15.6788 52.4717,15.7188 52.4587,15.7818 L 52.4587,15.7818 C 52.4457,15.8438 52.4867,15.9048 52.5487,15.9178 L 52.5487,15.9178 C 54.2837,16.2788 54.9687,17.0608 55.4497,17.8178 L 55.4497,17.8178 C 55.9267,18.5668 56.1827,19.3438 57.0597,19.5478 L 57.0597,19.5478 C 57.3347,19.6088 57.6037,19.6338 57.8697,19.6338 L 57.8697,19.6338 C 58.8697,19.6318 59.8157,19.2978 60.8797,19.2988 L 60.8797,19.2988 C 61.2477,19.2988 61.6297,19.3388 62.0337,19.4428 L 62.0337,19.4428 C 64.9937,20.2018 65.2807,21.9448 67.4717,22.7078 L 67.4717,22.7078 C 67.9137,22.8578 68.3447,22.9158 68.7667,22.9158 L 68.7667,22.9158 C 70.1187,22.9128 71.3677,22.3398 72.6387,22.3428 L 72.6387,22.3428 C 72.9397,22.3438 73.2417,22.3748 73.5477,22.4508 L 73.5477,22.4508 C 75.5707,22.9488 76.7327,24.9968 77.9497,25.4048 L 77.9497,25.4048 C 78.0887,25.4488 78.2327,25.4668 78.3867,25.4668 L 78.3867,25.4668 C 78.3887,25.4678 78.3907,25.4678 78.3927,25.4678 L 78.3927,25.4678 Z" transform=""/></svg>