<svg xmlns="http://www.w3.org/2000/svg" version="1.1" width="350" height="77.77777777777777" viewBox="0 0 350 77.77777777777777"><defs/><ellipse cx="31.029583803287853" cy="66.80262295020408" rx="7.695011418519151" ry="3.138625437034931" fill="#42a8c1" stroke="none" transform="rotate(203.0782 31.029582103819777 66.8026237513436)" r="NaN"/><path fill="#49bbd6" stroke="none" d="M 17.0399,55.2878 C 16.1389,47.1428 19.4419,42.3548 23.5349,42.1128 C 29.0659,41.7878 32.4139,45.2678 31.5219,52.7968 C 31.3389,54.3328 39.0199,65.8728 31.6539,69.5458 C 25.3489,71.2748 4.40191,72.3258 4.00091,64.4988 C 3.50991,54.9118 17.1619,56.3868 17.0399,55.2878 Z" transform=""/><ellipse cx="6.409830792731479" cy="65.2415693519515" rx="6.409831126494749" ry="2.614554001523765" fill="#49bbd6" stroke="none" transform="rotate(180.2177 6.409830986859095 65.24156939871793)" r="NaN"/><path fill="#42a8c1" stroke="none" d="M 23.4805,67.9722 C 19.8695,65.7322 17.7025,63.0532 16.7885,64.5262 C 16.2035,65.4692 14.4175,68.6872 15.2105,70.5142 C 18.5585,70.9332 23.8895,71.2822 27.0735,70.9462 C 26.1885,69.9312 24.9565,68.8882 23.4805,67.9722 Z" transform=""/><path fill="#49bbd6" stroke="none" d="M 27.4267,73.5048 C 28.8027,72.4808 27.5157,69.0758 24.5507,65.8998 S 18.0667,60.9808 16.6907,62.0048 C 15.3147,63.0298 16.6017,66.4338 19.5667,69.6098 S 26.0507,74.5288 27.4267,73.5048 Z" transform=""/><path fill="#42a8c1" stroke="none" d="M 19.259,50.8077 C 19.921,49.0977 21.737,48.1567 23.314,48.7067 C 24.044,48.9617 25.885,48.8597 26.701,48.6347 C 28.315,48.1907 30.057,49.2497 30.592,50.9997 C 31.127,52.7487 30.253,54.5267 28.639,54.9717 C 27.145,55.3827 22.434,55.4287 20.915,54.8997 C 19.338,54.3497 18.597,52.5177 19.259,50.8077 Z" transform=""/><path fill="#49bbd6" stroke="none" d="M 19.7263,50.1185 C 20.3663,48.4655 22.1203,47.5575 23.6443,48.0885 C 24.3503,48.3345 26.1293,48.2365 26.9173,48.0195 C 28.4773,47.5905 30.1603,48.6125 30.6773,50.3035 C 31.1943,51.9945 30.3493,53.7125 28.7903,54.1415 C 27.3463,54.5395 25.8323,54.3575 25.2003,52.8875 C 24.5063,54.4245 22.7943,54.5845 21.3263,54.0725 C 19.8023,53.5415 19.0863,51.7705 19.7263,50.1185 Z" transform=""/><ellipse cx="22.764519071943518" cy="48.56547353598582" rx="0.4825564069740806" ry="0.6704900307817475" fill="#304454" stroke="none" transform="rotate(1.5587 22.764520239689247 48.56547347334259)" r="NaN"/><ellipse cx="27.556603552420682" cy="48.56547353598582" rx="0.4825564069740806" ry="0.6704900307817475" fill="#304454" stroke="none" transform="rotate(1.5587 27.556604447706597 48.56547347334259)" r="NaN"/><path fill="#42a8c1" stroke="none" d="M 27.016,50.6743 S 26.271,51.9373 25.416,51.9403 C 24.9,51.9403 24.556,51.4233 24.243,50.6223 C 23.883,49.6993 25.092,49.3623 25.65,49.3823 C 26.158,49.4013 27.35,49.5203 27.016,50.6743 Z" transform=""/><path fill="#49bbd6" stroke="none" d="M 27.0495,49.9337 S 26.4645,51.2787 25.6165,51.3857 C 25.1045,51.4497 24.7005,50.9787 24.2905,50.2217 C 23.8205,49.3497 24.9795,48.8677 25.5355,48.8187 C 26.0415,48.7757 27.2405,48.7477 27.0495,49.9337 Z" transform=""/><path fill="none" stroke="#378fa4" d="M 28.644,51.9353 S 30.687,53.4203 31.367,54.6953" style="stroke-miterlimit: 10" stroke-miterlimit="10" transform=""/><path fill="none" stroke="#378fa4" d="M 29.4926,51.0988 S 31.9216,51.7648 33.0146,52.7218" style="stroke-miterlimit: 10" stroke-miterlimit="10" transform=""/><path fill="none" stroke="#378fa4" d="M 21.6066,51.6554 S 19.5636,53.1404 18.8836,54.4154" style="stroke-miterlimit: 10" stroke-miterlimit="10" transform=""/><path fill="none" stroke="#378fa4" d="M 20.758,50.8189 S 18.329,51.4849 17.236,52.4419" style="stroke-miterlimit: 10" stroke-miterlimit="10" transform=""/><path fill="#49bbd6" stroke="none" d="M 28.1396,71.1483 C 27.4546,70.3493 26.6756,69.9953 26.3986,70.3573 C 26.2386,70.5673 26.2866,70.9733 26.4856,71.4323 C 25.9706,71.0243 25.4886,70.8973 25.2836,71.1663 C 25.1656,71.3213 25.1636,71.5843 25.2466,71.8933 C 24.6946,71.4173 24.1606,71.2503 23.9416,71.5373 C 23.6646,71.8993 23.9956,72.8413 24.6796,73.6413 C 25.3646,74.4403 26.1446,74.7943 26.4206,74.4323 C 26.5396,74.2773 26.5406,74.0143 26.4576,73.7043 C 27.0106,74.1803 27.5446,74.3473 27.7636,74.0613 C 27.9236,73.8503 27.8746,73.4443 27.6766,72.9853 C 28.1916,73.3943 28.6726,73.5213 28.8786,73.2523 C 29.1546,72.8893 28.8246,71.9473 28.1396,71.1483 Z" transform=""/><path fill="#42a8c1" stroke="none" d="M 37.8019,67.5298 C 37.0099,66.8368 36.1879,66.5968 35.9659,66.9958 C 35.8369,67.2258 35.9429,67.6218 36.2049,68.0468 C 35.6369,67.7158 35.1419,67.6588 34.9769,67.9548 C 34.8819,68.1248 34.9179,68.3858 35.0449,68.6798 C 34.4299,68.2878 33.8779,68.1988 33.7019,68.5138 C 33.4799,68.9118 33.9409,69.7968 34.7329,70.4908 C 35.5249,71.1838 36.3469,71.4238 36.5689,71.0248 C 36.6639,70.8548 36.6279,70.5948 36.5009,70.2998 C 37.1159,70.6918 37.6689,70.7818 37.8439,70.4658 C 37.9729,70.2358 37.8669,69.8398 37.6059,69.4148 C 38.1729,69.7458 38.6679,69.8028 38.8329,69.5068 C 39.0549,69.1078 38.5939,68.2228 37.8019,67.5298 Z" transform=""/><ellipse cx="69.91847269217673" cy="66.80262295020408" rx="7.695011418519151" ry="3.138625437034931" fill="#42a8c1" stroke="none" transform="rotate(203.0782 69.91847099270866 66.8026237513436)" r="NaN"/><path fill="#49bbd6" stroke="none" d="M 55.9288,55.2878 C 55.0278,47.1428 58.3308,42.3548 62.4238,42.1128 C 67.9548,41.7878 71.3028,45.2678 70.4108,52.7968 C 70.2278,54.3328 77.9088,65.8728 70.5428,69.5458 C 64.2378,71.2748 43.2908,72.3258 42.8898,64.4988 C 42.3988,54.9118 56.0508,56.3868 55.9288,55.2878 Z" transform=""/><ellipse cx="45.29871968162036" cy="65.2415693519515" rx="6.409831126494749" ry="2.614554001523765" fill="#49bbd6" stroke="none" transform="rotate(180.2177 45.29871987574798 65.24156939871793)" r="NaN"/><path fill="#42a8c1" stroke="none" d="M 62.3694,67.9722 C 58.7584,65.7322 56.5914,63.0532 55.6774,64.5262 C 55.0924,65.4692 53.3064,68.6872 54.0994,70.5142 C 57.4474,70.9332 62.7784,71.2822 65.9624,70.9462 C 65.0774,69.9312 63.8454,68.8882 62.3694,67.9722 Z" transform=""/><path fill="#49bbd6" stroke="none" d="M 66.3156,73.5048 C 67.6916,72.4808 66.4046,69.0758 63.4396,65.8998 S 56.9556,60.9808 55.5796,62.0048 C 54.2036,63.0298 55.4906,66.4338 58.4556,69.6098 S 64.9396,74.5288 66.3156,73.5048 Z" transform=""/><path fill="#42a8c1" stroke="none" d="M 58.1478,50.8077 C 58.8098,49.0977 60.6258,48.1567 62.2028,48.7067 C 62.9328,48.9617 64.7738,48.8597 65.5898,48.6347 C 67.2038,48.1907 68.9458,49.2497 69.4808,50.9997 C 70.0158,52.7487 69.1418,54.5267 67.5278,54.9717 C 66.0338,55.3827 61.3228,55.4287 59.8038,54.8997 C 58.2268,54.3497 57.4858,52.5177 58.1478,50.8077 Z" transform=""/><path fill="#49bbd6" stroke="none" d="M 58.6152,50.1185 C 59.2552,48.4655 61.0092,47.5575 62.5332,48.0885 C 63.2392,48.3345 65.0182,48.2365 65.8062,48.0195 C 67.3662,47.5905 69.0492,48.6125 69.5662,50.3035 C 70.0832,51.9945 69.2382,53.7125 67.6792,54.1415 C 66.2352,54.5395 64.7212,54.3575 64.0892,52.8875 C 63.3952,54.4245 61.6832,54.5845 60.2152,54.0725 C 58.6912,53.5415 57.9752,51.7705 58.6152,50.1185 Z" transform=""/><ellipse cx="61.6534079608324" cy="48.56547353598582" rx="0.4825564069740806" ry="0.6704900307817475" fill="#304454" stroke="none" transform="rotate(1.5587 61.65340912857813 48.56547347334259)" r="NaN"/><ellipse cx="66.44549244130957" cy="48.56547353598582" rx="0.4825564069740806" ry="0.6704900307817475" fill="#304454" stroke="none" transform="rotate(1.5587 66.44549333659549 48.56547347334259)" r="NaN"/><path fill="#42a8c1" stroke="none" d="M 65.9049,50.6743 S 65.1599,51.9373 64.3049,51.9403 C 63.7889,51.9403 63.4449,51.4233 63.1319,50.6223 C 62.7719,49.6993 63.9809,49.3623 64.5389,49.3823 C 65.0469,49.4013 66.2389,49.5203 65.9049,50.6743 Z" transform=""/><path fill="#49bbd6" stroke="none" d="M 65.9384,49.9337 S 65.3534,51.2787 64.5054,51.3857 C 63.9934,51.4497 63.5894,50.9787 63.1794,50.2217 C 62.7094,49.3497 63.8684,48.8677 64.4244,48.8187 C 64.9304,48.7757 66.1294,48.7477 65.9384,49.9337 Z" transform=""/><path fill="none" stroke="#378fa4" d="M 67.5329,51.9353 S 69.5759,53.4203 70.2559,54.6953" style="stroke-miterlimit: 10" stroke-miterlimit="10" transform=""/><path fill="none" stroke="#378fa4" d="M 68.3815,51.0988 S 70.8105,51.7648 71.9035,52.7218" style="stroke-miterlimit: 10" stroke-miterlimit="10" transform=""/><path fill="none" stroke="#378fa4" d="M 60.4955,51.6554 S 58.4525,53.1404 57.7725,54.4154" style="stroke-miterlimit: 10" stroke-miterlimit="10" transform=""/><path fill="none" stroke="#378fa4" d="M 59.6468,50.8189 S 57.2178,51.4849 56.1248,52.4419" style="stroke-miterlimit: 10" stroke-miterlimit="10" transform=""/><path fill="#49bbd6" stroke="none" d="M 67.0285,71.1483 C 66.3435,70.3493 65.5645,69.9953 65.2875,70.3573 C 65.1275,70.5673 65.1755,70.9733 65.3745,71.4323 C 64.8595,71.0243 64.3775,70.8973 64.1725,71.1663 C 64.0545,71.3213 64.0525,71.5843 64.1355,71.8933 C 63.5835,71.4173 63.0495,71.2503 62.8305,71.5373 C 62.5535,71.8993 62.8845,72.8413 63.5685,73.6413 C 64.2535,74.4403 65.0335,74.7943 65.3095,74.4323 C 65.4285,74.2773 65.4295,74.0143 65.3465,73.7043 C 65.8995,74.1803 66.4335,74.3473 66.6525,74.0613 C 66.8125,73.8503 66.7635,73.4443 66.5655,72.9853 C 67.0805,73.3943 67.5615,73.5213 67.7675,73.2523 C 68.0435,72.8893 67.7135,71.9473 67.0285,71.1483 Z" transform=""/><path fill="#42a8c1" stroke="none" d="M 76.6908,67.5298 C 75.8988,66.8368 75.0768,66.5968 74.8548,66.9958 C 74.7258,67.2258 74.8318,67.6218 75.0938,68.0468 C 74.5258,67.7158 74.0308,67.6588 73.8658,67.9548 C 73.7708,68.1248 73.8068,68.3858 73.9338,68.6798 C 73.3188,68.2878 72.7668,68.1988 72.5908,68.5138 C 72.3688,68.9118 72.8298,69.7968 73.6218,70.4908 C 74.4138,71.1838 75.2358,71.4238 75.4578,71.0248 C 75.5528,70.8548 75.5168,70.5948 75.3898,70.2998 C 76.0048,70.6918 76.5578,70.7818 76.7328,70.4658 C 76.8618,70.2358 76.7558,69.8398 76.4948,69.4148 C 77.0618,69.7458 77.5568,69.8028 77.7218,69.5068 C 77.9438,69.1078 77.4828,68.2228 76.6908,67.5298 Z" transform=""/><ellipse cx="108.80736158106562" cy="66.80262295020408" rx="7.695011418519151" ry="3.138625437034931" fill="#42a8c1" stroke="none" transform="rotate(203.0782 108.80735988159755 66.8026237513436)" r="NaN"/><path fill="#49bbd6" stroke="none" d="M 94.8177,55.2878 C 93.9167,47.1428 97.2197,42.3548 101.313,42.1128 C 106.844,41.7878 110.192,45.2678 109.3,52.7968 C 109.117,54.3328 116.798,65.8728 109.432,69.5458 C 103.127,71.2748 82.1797,72.3258 81.7787,64.4988 C 81.2877,54.9118 94.9397,56.3868 94.8177,55.2878 Z" transform=""/><ellipse cx="84.18760857050925" cy="65.2415693519515" rx="6.409831126494749" ry="2.614554001523765" fill="#49bbd6" stroke="none" transform="rotate(180.2177 84.18760876463686 65.24156939871793)" r="NaN"/><path fill="#42a8c1" stroke="none" d="M 101.258,67.9722 C 97.6473,65.7322 95.4803,63.0532 94.5663,64.5262 C 93.9813,65.4692 92.1953,68.6872 92.9883,70.5142 C 96.3363,70.9332 101.667,71.2822 104.851,70.9462 C 103.966,69.9312 102.734,68.8882 101.258,67.9722 Z" transform=""/><path fill="#49bbd6" stroke="none" d="M 105.204,73.5048 C 106.58,72.4808 105.293,69.0758 102.328,65.8998 S 95.8445,60.9808 94.4685,62.0048 C 93.0925,63.0298 94.3795,66.4338 97.3445,69.6098 S 103.828,74.5288 105.204,73.5048 Z" transform=""/><path fill="#42a8c1" stroke="none" d="M 97.0367,50.8077 C 97.6987,49.0977 99.5147,48.1567 101.092,48.7067 C 101.822,48.9617 103.663,48.8597 104.479,48.6347 C 106.093,48.1907 107.835,49.2497 108.37,50.9997 C 108.905,52.7487 108.031,54.5267 106.417,54.9717 C 104.923,55.3827 100.212,55.4287 98.6927,54.8997 C 97.1157,54.3497 96.3747,52.5177 97.0367,50.8077 Z" transform=""/><path fill="#49bbd6" stroke="none" d="M 97.5041,50.1185 C 98.1441,48.4655 99.8981,47.5575 101.422,48.0885 C 102.128,48.3345 103.907,48.2365 104.695,48.0195 C 106.255,47.5905 107.938,48.6125 108.455,50.3035 C 108.972,51.9945 108.127,53.7125 106.568,54.1415 C 105.124,54.5395 103.61,54.3575 102.978,52.8875 C 102.284,54.4245 100.572,54.5845 99.1041,54.0725 C 97.5801,53.5415 96.8641,51.7705 97.5041,50.1185 Z" transform=""/><ellipse cx="100.54229684972128" cy="48.56547353598582" rx="0.4825564069740806" ry="0.6704900307817475" fill="#304454" stroke="none" transform="rotate(1.5587 100.54229801746702 48.56547347334259)" r="NaN"/><ellipse cx="105.33438133019845" cy="48.56547353598582" rx="0.4825564069740806" ry="0.6704900307817475" fill="#304454" stroke="none" transform="rotate(1.5587 105.33438222548438 48.56547347334259)" r="NaN"/><path fill="#42a8c1" stroke="none" d="M 104.794,50.6743 S 104.049,51.9373 103.194,51.9403 C 102.678,51.9403 102.334,51.4233 102.021,50.6223 C 101.661,49.6993 102.87,49.3623 103.428,49.3823 C 103.936,49.4013 105.128,49.5203 104.794,50.6743 Z" transform=""/><path fill="#49bbd6" stroke="none" d="M 104.827,49.9337 S 104.242,51.2787 103.394,51.3857 C 102.882,51.4497 102.478,50.9787 102.068,50.2217 C 101.598,49.3497 102.757,48.8677 103.313,48.8187 C 103.819,48.7757 105.018,48.7477 104.827,49.9337 Z" transform=""/><path fill="none" stroke="#378fa4" d="M 106.422,51.9353 S 108.465,53.4203 109.145,54.6953" style="stroke-miterlimit: 10" stroke-miterlimit="10" transform=""/><path fill="none" stroke="#378fa4" d="M 107.27,51.0988 S 109.699,51.7648 110.792,52.7218" style="stroke-miterlimit: 10" stroke-miterlimit="10" transform=""/><path fill="none" stroke="#378fa4" d="M 99.3843,51.6554 S 97.3413,53.1404 96.6613,54.4154" style="stroke-miterlimit: 10" stroke-miterlimit="10" transform=""/><path fill="none" stroke="#378fa4" d="M 98.5357,50.8189 S 96.1067,51.4849 95.0137,52.4419" style="stroke-miterlimit: 10" stroke-miterlimit="10" transform=""/><path fill="#49bbd6" stroke="none" d="M 105.917,71.1483 C 105.232,70.3493 104.453,69.9953 104.176,70.3573 C 104.016,70.5673 104.064,70.9733 104.263,71.4323 C 103.748,71.0243 103.266,70.8973 103.061,71.1663 C 102.943,71.3213 102.941,71.5843 103.024,71.8933 C 102.472,71.4173 101.938,71.2503 101.719,71.5373 C 101.442,71.8993 101.773,72.8413 102.457,73.6413 C 103.142,74.4403 103.922,74.7943 104.198,74.4323 C 104.317,74.2773 104.318,74.0143 104.235,73.7043 C 104.788,74.1803 105.322,74.3473 105.541,74.0613 C 105.701,73.8503 105.652,73.4443 105.454,72.9853 C 105.969,73.3943 106.45,73.5213 106.656,73.2523 C 106.932,72.8893 106.602,71.9473 105.917,71.1483 Z" transform=""/><path fill="#42a8c1" stroke="none" d="M 115.58,67.5298 C 114.788,66.8368 113.966,66.5968 113.744,66.9958 C 113.615,67.2258 113.721,67.6218 113.983,68.0468 C 113.415,67.7158 112.92,67.6588 112.755,67.9548 C 112.66,68.1248 112.696,68.3858 112.823,68.6798 C 112.208,68.2878 111.656,68.1988 111.48,68.5138 C 111.258,68.9118 111.719,69.7968 112.511,70.4908 C 113.303,71.1838 114.125,71.4238 114.347,71.0248 C 114.442,70.8548 114.406,70.5948 114.279,70.2998 C 114.894,70.6918 115.447,70.7818 115.622,70.4658 C 115.751,70.2358 115.645,69.8398 115.384,69.4148 C 115.951,69.7458 116.446,69.8028 116.611,69.5068 C 116.833,69.1078 116.372,68.2228 115.58,67.5298 Z" transform=""/><ellipse cx="147.6962504699545" cy="66.80262295020408" rx="7.695011418519151" ry="3.138625437034931" fill="#42a8c1" stroke="none" transform="rotate(203.0782 147.69624877048642 66.8026237513436)" r="NaN"/><path fill="#49bbd6" stroke="none" d="M 133.707,55.2878 C 132.806,47.1428 136.109,42.3548 140.202,42.1128 C 145.733,41.7878 149.081,45.2678 148.189,52.7968 C 148.006,54.3328 155.687,65.8728 148.321,69.5458 C 142.016,71.2748 121.069,72.3258 120.668,64.4988 C 120.177,54.9118 133.829,56.3868 133.707,55.2878 Z" transform=""/><ellipse cx="123.07649745939813" cy="65.2415693519515" rx="6.409831126494749" ry="2.614554001523765" fill="#49bbd6" stroke="none" transform="rotate(180.2177 123.07649765352573 65.24156939871793)" r="NaN"/><path fill="#42a8c1" stroke="none" d="M 140.147,67.9722 C 136.536,65.7322 134.369,63.0532 133.455,64.5262 C 132.87,65.4692 131.084,68.6872 131.877,70.5142 C 135.225,70.9332 140.556,71.2822 143.74,70.9462 C 142.855,69.9312 141.623,68.8882 140.147,67.9722 Z" transform=""/><path fill="#49bbd6" stroke="none" d="M 144.093,73.5048 C 145.469,72.4808 144.182,69.0758 141.217,65.8998 S 134.733,60.9808 133.357,62.0048 C 131.981,63.0298 133.268,66.4338 136.233,69.6098 S 142.717,74.5288 144.093,73.5048 Z" transform=""/><path fill="#42a8c1" stroke="none" d="M 135.926,50.8077 C 136.588,49.0977 138.404,48.1567 139.981,48.7067 C 140.711,48.9617 142.552,48.8597 143.368,48.6347 C 144.982,48.1907 146.724,49.2497 147.259,50.9997 C 147.794,52.7487 146.92,54.5267 145.306,54.9717 C 143.812,55.3827 139.101,55.4287 137.582,54.8997 C 136.005,54.3497 135.264,52.5177 135.926,50.8077 Z" transform=""/><path fill="#49bbd6" stroke="none" d="M 136.393,50.1185 C 137.033,48.4655 138.787,47.5575 140.311,48.0885 C 141.017,48.3345 142.796,48.2365 143.584,48.0195 C 145.144,47.5905 146.827,48.6125 147.344,50.3035 C 147.861,51.9945 147.016,53.7125 145.457,54.1415 C 144.013,54.5395 142.499,54.3575 141.867,52.8875 C 141.173,54.4245 139.461,54.5845 137.993,54.0725 C 136.469,53.5415 135.753,51.7705 136.393,50.1185 Z" transform=""/><ellipse cx="139.43118573861017" cy="48.56547353598582" rx="0.4825564069740806" ry="0.6704900307817475" fill="#304454" stroke="none" transform="rotate(1.5587 139.4311869063559 48.56547347334259)" r="NaN"/><ellipse cx="144.22327021908734" cy="48.56547353598582" rx="0.4825564069740806" ry="0.6704900307817475" fill="#304454" stroke="none" transform="rotate(1.5587 144.22327111437323 48.56547347334259)" r="NaN"/><path fill="#42a8c1" stroke="none" d="M 143.683,50.6743 S 142.938,51.9373 142.083,51.9403 C 141.567,51.9403 141.223,51.4233 140.91,50.6223 C 140.55,49.6993 141.759,49.3623 142.317,49.3823 C 142.825,49.4013 144.017,49.5203 143.683,50.6743 Z" transform=""/><path fill="#49bbd6" stroke="none" d="M 143.716,49.9337 S 143.131,51.2787 142.283,51.3857 C 141.771,51.4497 141.367,50.9787 140.957,50.2217 C 140.487,49.3497 141.646,48.8677 142.202,48.8187 C 142.708,48.7757 143.907,48.7477 143.716,49.9337 Z" transform=""/><path fill="none" stroke="#378fa4" d="M 145.311,51.9353 S 147.354,53.4203 148.034,54.6953" style="stroke-miterlimit: 10" stroke-miterlimit="10" transform=""/><path fill="none" stroke="#378fa4" d="M 146.159,51.0988 S 148.588,51.7648 149.681,52.7218" style="stroke-miterlimit: 10" stroke-miterlimit="10" transform=""/><path fill="none" stroke="#378fa4" d="M 138.273,51.6554 S 136.23,53.1404 135.55,54.4154" style="stroke-miterlimit: 10" stroke-miterlimit="10" transform=""/><path fill="none" stroke="#378fa4" d="M 137.425,50.8189 S 134.996,51.4849 133.903,52.4419" style="stroke-miterlimit: 10" stroke-miterlimit="10" transform=""/><path fill="#49bbd6" stroke="none" d="M 144.806,71.1483 C 144.121,70.3493 143.342,69.9953 143.065,70.3573 C 142.905,70.5673 142.953,70.9733 143.152,71.4323 C 142.637,71.0243 142.155,70.8973 141.95,71.1663 C 141.832,71.3213 141.83,71.5843 141.913,71.8933 C 141.361,71.4173 140.827,71.2503 140.608,71.5373 C 140.331,71.8993 140.662,72.8413 141.346,73.6413 C 142.031,74.4403 142.811,74.7943 143.087,74.4323 C 143.206,74.2773 143.207,74.0143 143.124,73.7043 C 143.677,74.1803 144.211,74.3473 144.43,74.0613 C 144.59,73.8503 144.541,73.4443 144.343,72.9853 C 144.858,73.3943 145.339,73.5213 145.545,73.2523 C 145.821,72.8893 145.491,71.9473 144.806,71.1483 Z" transform=""/><path fill="#42a8c1" stroke="none" d="M 154.469,67.5298 C 153.677,66.8368 152.855,66.5968 152.633,66.9958 C 152.504,67.2258 152.61,67.6218 152.872,68.0468 C 152.304,67.7158 151.809,67.6588 151.644,67.9548 C 151.549,68.1248 151.585,68.3858 151.712,68.6798 C 151.097,68.2878 150.545,68.1988 150.369,68.5138 C 150.147,68.9118 150.608,69.7968 151.4,70.4908 C 152.192,71.1838 153.014,71.4238 153.236,71.0248 C 153.331,70.8548 153.295,70.5948 153.168,70.2998 C 153.783,70.6918 154.336,70.7818 154.511,70.4658 C 154.64,70.2358 154.534,69.8398 154.273,69.4148 C 154.84,69.7458 155.335,69.8028 155.5,69.5068 C 155.722,69.1078 155.261,68.2228 154.469,67.5298 Z" transform=""/><ellipse cx="186.5851393588434" cy="66.80262295020408" rx="7.695011418519151" ry="3.138625437034931" fill="#42a8c1" stroke="none" transform="rotate(203.0782 186.58513765937533 66.8026237513436)" r="NaN"/><path fill="#49bbd6" stroke="none" d="M 172.595,55.2878 C 171.694,47.1428 174.997,42.3548 179.09,42.1128 C 184.621,41.7878 187.969,45.2678 187.077,52.7968 C 186.894,54.3328 194.575,65.8728 187.209,69.5458 C 180.904,71.2748 159.957,72.3258 159.556,64.4988 C 159.065,54.9118 172.717,56.3868 172.595,55.2878 Z" transform=""/><ellipse cx="161.965386348287" cy="65.2415693519515" rx="6.409831126494749" ry="2.614554001523765" fill="#49bbd6" stroke="none" transform="rotate(180.2177 161.96538654241465 65.24156939871793)" r="NaN"/><path fill="#42a8c1" stroke="none" d="M 179.036,67.9722 C 175.425,65.7322 173.258,63.0532 172.344,64.5262 C 171.759,65.4692 169.973,68.6872 170.766,70.5142 C 174.114,70.9332 179.445,71.2822 182.629,70.9462 C 181.744,69.9312 180.512,68.8882 179.036,67.9722 Z" transform=""/><path fill="#49bbd6" stroke="none" d="M 182.982,73.5048 C 184.358,72.4808 183.071,69.0758 180.106,65.8998 S 173.622,60.9808 172.246,62.0048 C 170.87,63.0298 172.157,66.4338 175.122,69.6098 S 181.606,74.5288 182.982,73.5048 Z" transform=""/><path fill="#42a8c1" stroke="none" d="M 174.815,50.8077 C 175.477,49.0977 177.293,48.1567 178.87,48.7067 C 179.6,48.9617 181.441,48.8597 182.257,48.6347 C 183.871,48.1907 185.613,49.2497 186.148,50.9997 C 186.683,52.7487 185.809,54.5267 184.195,54.9717 C 182.701,55.3827 177.99,55.4287 176.471,54.8997 C 174.894,54.3497 174.153,52.5177 174.815,50.8077 Z" transform=""/><path fill="#49bbd6" stroke="none" d="M 175.282,50.1185 C 175.922,48.4655 177.676,47.5575 179.2,48.0885 C 179.906,48.3345 181.685,48.2365 182.473,48.0195 C 184.033,47.5905 185.716,48.6125 186.233,50.3035 C 186.75,51.9945 185.905,53.7125 184.346,54.1415 C 182.902,54.5395 181.388,54.3575 180.756,52.8875 C 180.062,54.4245 178.35,54.5845 176.882,54.0725 C 175.358,53.5415 174.642,51.7705 175.282,50.1185 Z" transform=""/><ellipse cx="178.32007462749905" cy="48.56547353598582" rx="0.4825564069740806" ry="0.6704900307817475" fill="#304454" stroke="none" transform="rotate(1.5587 178.3200757952448 48.56547347334259)" r="NaN"/><ellipse cx="183.11215910797623" cy="48.56547353598582" rx="0.4825564069740806" ry="0.6704900307817475" fill="#304454" stroke="none" transform="rotate(1.5587 183.11216000326215 48.56547347334259)" r="NaN"/><path fill="#42a8c1" stroke="none" d="M 182.572,50.6743 S 181.827,51.9373 180.972,51.9403 C 180.456,51.9403 180.112,51.4233 179.799,50.6223 C 179.439,49.6993 180.648,49.3623 181.206,49.3823 C 181.714,49.4013 182.906,49.5203 182.572,50.6743 Z" transform=""/><path fill="#49bbd6" stroke="none" d="M 182.605,49.9337 S 182.02,51.2787 181.172,51.3857 C 180.66,51.4497 180.256,50.9787 179.846,50.2217 C 179.376,49.3497 180.535,48.8677 181.091,48.8187 C 181.597,48.7757 182.796,48.7477 182.605,49.9337 Z" transform=""/><path fill="none" stroke="#378fa4" d="M 184.2,51.9353 S 186.243,53.4203 186.923,54.6953" style="stroke-miterlimit: 10" stroke-miterlimit="10" transform=""/><path fill="none" stroke="#378fa4" d="M 185.048,51.0988 S 187.477,51.7648 188.57,52.7218" style="stroke-miterlimit: 10" stroke-miterlimit="10" transform=""/><path fill="none" stroke="#378fa4" d="M 177.162,51.6554 S 175.119,53.1404 174.439,54.4154" style="stroke-miterlimit: 10" stroke-miterlimit="10" transform=""/><path fill="none" stroke="#378fa4" d="M 176.314,50.8189 S 173.885,51.4849 172.792,52.4419" style="stroke-miterlimit: 10" stroke-miterlimit="10" transform=""/><path fill="#49bbd6" stroke="none" d="M 183.695,71.1483 C 183.01,70.3493 182.231,69.9953 181.954,70.3573 C 181.794,70.5673 181.842,70.9733 182.041,71.4323 C 181.526,71.0243 181.044,70.8973 180.839,71.1663 C 180.721,71.3213 180.719,71.5843 180.802,71.8933 C 180.25,71.4173 179.716,71.2503 179.497,71.5373 C 179.22,71.8993 179.551,72.8413 180.235,73.6413 C 180.92,74.4403 181.7,74.7943 181.976,74.4323 C 182.095,74.2773 182.096,74.0143 182.013,73.7043 C 182.566,74.1803 183.1,74.3473 183.319,74.0613 C 183.479,73.8503 183.43,73.4443 183.232,72.9853 C 183.747,73.3943 184.228,73.5213 184.434,73.2523 C 184.71,72.8893 184.38,71.9473 183.695,71.1483 Z" transform=""/><path fill="#42a8c1" stroke="none" d="M 193.357,67.5298 C 192.565,66.8368 191.743,66.5968 191.521,66.9958 C 191.392,67.2258 191.498,67.6218 191.76,68.0468 C 191.192,67.7158 190.697,67.6588 190.532,67.9548 C 190.437,68.1248 190.473,68.3858 190.6,68.6798 C 189.985,68.2878 189.433,68.1988 189.257,68.5138 C 189.035,68.9118 189.496,69.7968 190.288,70.4908 C 191.08,71.1838 191.902,71.4238 192.124,71.0248 C 192.219,70.8548 192.183,70.5948 192.056,70.2998 C 192.671,70.6918 193.224,70.7818 193.399,70.4658 C 193.528,70.2358 193.422,69.8398 193.161,69.4148 C 193.728,69.7458 194.223,69.8028 194.388,69.5068 C 194.61,69.1078 194.149,68.2228 193.357,67.5298 Z" transform=""/><ellipse cx="225.47402824773226" cy="66.80262295020408" rx="7.695011418519151" ry="3.138625437034931" fill="#42a8c1" stroke="none" transform="rotate(203.0782 225.4740265482642 66.8026237513436)" r="NaN"/><path fill="#49bbd6" stroke="none" d="M 211.484,55.2878 C 210.583,47.1428 213.886,42.3548 217.979,42.1128 C 223.51,41.7878 226.858,45.2678 225.966,52.7968 C 225.783,54.3328 233.464,65.8728 226.098,69.5458 C 219.793,71.2748 198.846,72.3258 198.445,64.4988 C 197.954,54.9118 211.606,56.3868 211.484,55.2878 Z" transform=""/><ellipse cx="200.85427523717587" cy="65.2415693519515" rx="6.409831126494749" ry="2.614554001523765" fill="#49bbd6" stroke="none" transform="rotate(180.2177 200.8542754313035 65.24156939871793)" r="NaN"/><path fill="#42a8c1" stroke="none" d="M 217.925,67.9722 C 214.314,65.7322 212.147,63.0532 211.233,64.5262 C 210.648,65.4692 208.862,68.6872 209.655,70.5142 C 213.003,70.9332 218.334,71.2822 221.518,70.9462 C 220.633,69.9312 219.401,68.8882 217.925,67.9722 Z" transform=""/><path fill="#49bbd6" stroke="none" d="M 221.871,73.5048 C 223.247,72.4808 221.96,69.0758 218.995,65.8998 S 212.511,60.9808 211.135,62.0048 C 209.759,63.0298 211.046,66.4338 214.011,69.6098 S 220.495,74.5288 221.871,73.5048 Z" transform=""/><path fill="#42a8c1" stroke="none" d="M 213.703,50.8077 C 214.365,49.0977 216.181,48.1567 217.758,48.7067 C 218.488,48.9617 220.329,48.8597 221.145,48.6347 C 222.759,48.1907 224.501,49.2497 225.036,50.9997 C 225.571,52.7487 224.697,54.5267 223.083,54.9717 C 221.589,55.3827 216.878,55.4287 215.359,54.8997 C 213.782,54.3497 213.041,52.5177 213.703,50.8077 Z" transform=""/><path fill="#49bbd6" stroke="none" d="M 214.171,50.1185 C 214.811,48.4655 216.565,47.5575 218.089,48.0885 C 218.795,48.3345 220.574,48.2365 221.362,48.0195 C 222.922,47.5905 224.605,48.6125 225.122,50.3035 C 225.639,51.9945 224.794,53.7125 223.235,54.1415 C 221.791,54.5395 220.277,54.3575 219.645,52.8875 C 218.951,54.4245 217.239,54.5845 215.771,54.0725 C 214.247,53.5415 213.531,51.7705 214.171,50.1185 Z" transform=""/><ellipse cx="217.2089635163879" cy="48.56547353598582" rx="0.4825564069740806" ry="0.6704900307817475" fill="#304454" stroke="none" transform="rotate(1.5587 217.20896468413366 48.56547347334259)" r="NaN"/><ellipse cx="222.00104799686508" cy="48.56547353598582" rx="0.4825564069740806" ry="0.6704900307817475" fill="#304454" stroke="none" transform="rotate(1.5587 222.001048892151 48.56547347334259)" r="NaN"/><path fill="#42a8c1" stroke="none" d="M 221.46,50.6743 S 220.715,51.9373 219.86,51.9403 C 219.344,51.9403 219,51.4233 218.687,50.6223 C 218.327,49.6993 219.536,49.3623 220.094,49.3823 C 220.602,49.4013 221.794,49.5203 221.46,50.6743 Z" transform=""/><path fill="#49bbd6" stroke="none" d="M 221.494,49.9337 S 220.909,51.2787 220.061,51.3857 C 219.549,51.4497 219.145,50.9787 218.735,50.2217 C 218.265,49.3497 219.424,48.8677 219.98,48.8187 C 220.486,48.7757 221.685,48.7477 221.494,49.9337 Z" transform=""/><path fill="none" stroke="#378fa4" d="M 223.088,51.9353 S 225.131,53.4203 225.811,54.6953" style="stroke-miterlimit: 10" stroke-miterlimit="10" transform=""/><path fill="none" stroke="#378fa4" d="M 223.937,51.0988 S 226.366,51.7648 227.459,52.7218" style="stroke-miterlimit: 10" stroke-miterlimit="10" transform=""/><path fill="none" stroke="#378fa4" d="M 216.051,51.6554 S 214.008,53.1404 213.328,54.4154" style="stroke-miterlimit: 10" stroke-miterlimit="10" transform=""/><path fill="none" stroke="#378fa4" d="M 215.202,50.8189 S 212.773,51.4849 211.68,52.4419" style="stroke-miterlimit: 10" stroke-miterlimit="10" transform=""/><path fill="#49bbd6" stroke="none" d="M 222.584,71.1483 C 221.899,70.3493 221.12,69.9953 220.843,70.3573 C 220.683,70.5673 220.731,70.9733 220.93,71.4323 C 220.415,71.0243 219.933,70.8973 219.728,71.1663 C 219.61,71.3213 219.608,71.5843 219.691,71.8933 C 219.139,71.4173 218.605,71.2503 218.386,71.5373 C 218.109,71.8993 218.44,72.8413 219.124,73.6413 C 219.809,74.4403 220.589,74.7943 220.865,74.4323 C 220.984,74.2773 220.985,74.0143 220.902,73.7043 C 221.455,74.1803 221.989,74.3473 222.208,74.0613 C 222.368,73.8503 222.319,73.4443 222.121,72.9853 C 222.636,73.3943 223.117,73.5213 223.323,73.2523 C 223.599,72.8893 223.269,71.9473 222.584,71.1483 Z" transform=""/><path fill="#42a8c1" stroke="none" d="M 232.246,67.5298 C 231.454,66.8368 230.632,66.5968 230.41,66.9958 C 230.281,67.2258 230.387,67.6218 230.649,68.0468 C 230.081,67.7158 229.586,67.6588 229.421,67.9548 C 229.326,68.1248 229.362,68.3858 229.489,68.6798 C 228.874,68.2878 228.322,68.1988 228.146,68.5138 C 227.924,68.9118 228.385,69.7968 229.177,70.4908 C 229.969,71.1838 230.791,71.4238 231.013,71.0248 C 231.108,70.8548 231.072,70.5948 230.945,70.2998 C 231.56,70.6918 232.113,70.7818 232.288,70.4658 C 232.417,70.2358 232.311,69.8398 232.05,69.4148 C 232.617,69.7458 233.112,69.8028 233.277,69.5068 C 233.499,69.1078 233.038,68.2228 232.246,67.5298 Z" transform=""/><ellipse cx="264.36291713662115" cy="66.80262295020408" rx="7.695011418519151" ry="3.138625437034931" fill="#42a8c1" stroke="none" transform="rotate(203.0782 264.3629154371531 66.8026237513436)" r="NaN"/><path fill="#49bbd6" stroke="none" d="M 250.373,55.2878 C 249.472,47.1428 252.775,42.3548 256.868,42.1128 C 262.399,41.7878 265.747,45.2678 264.855,52.7968 C 264.672,54.3328 272.353,65.8728 264.987,69.5458 C 258.682,71.2748 237.735,72.3258 237.334,64.4988 C 236.843,54.9118 250.495,56.3868 250.373,55.2878 Z" transform=""/><ellipse cx="239.74316412606478" cy="65.2415693519515" rx="6.409831126494749" ry="2.614554001523765" fill="#49bbd6" stroke="none" transform="rotate(180.2177 239.74316432019242 65.24156939871793)" r="NaN"/><path fill="#42a8c1" stroke="none" d="M 256.814,67.9722 C 253.203,65.7322 251.036,63.0532 250.122,64.5262 C 249.537,65.4692 247.751,68.6872 248.544,70.5142 C 251.892,70.9332 257.223,71.2822 260.407,70.9462 C 259.522,69.9312 258.29,68.8882 256.814,67.9722 Z" transform=""/><path fill="#49bbd6" stroke="none" d="M 260.76,73.5048 C 262.136,72.4808 260.849,69.0758 257.884,65.8998 S 251.4,60.9808 250.024,62.0048 C 248.648,63.0298 249.935,66.4338 252.9,69.6098 S 259.384,74.5288 260.76,73.5048 Z" transform=""/><path fill="#42a8c1" stroke="none" d="M 252.592,50.8077 C 253.254,49.0977 255.07,48.1567 256.647,48.7067 C 257.377,48.9617 259.218,48.8597 260.034,48.6347 C 261.648,48.1907 263.39,49.2497 263.925,50.9997 C 264.46,52.7487 263.586,54.5267 261.972,54.9717 C 260.478,55.3827 255.767,55.4287 254.248,54.8997 C 252.671,54.3497 251.93,52.5177 252.592,50.8077 Z" transform=""/><path fill="#49bbd6" stroke="none" d="M 253.06,50.1185 C 253.7,48.4655 255.454,47.5575 256.978,48.0885 C 257.684,48.3345 259.463,48.2365 260.251,48.0195 C 261.811,47.5905 263.494,48.6125 264.011,50.3035 C 264.528,51.9945 263.683,53.7125 262.124,54.1415 C 260.68,54.5395 259.166,54.3575 258.534,52.8875 C 257.84,54.4245 256.128,54.5845 254.66,54.0725 C 253.136,53.5415 252.42,51.7705 253.06,50.1185 Z" transform=""/><ellipse cx="256.09785240527685" cy="48.56547353598582" rx="0.4825564069740806" ry="0.6704900307817475" fill="#304454" stroke="none" transform="rotate(1.5587 256.0978535730226 48.56547347334259)" r="NaN"/><ellipse cx="260.88993688575397" cy="48.56547353598582" rx="0.4825564069740806" ry="0.6704900307817475" fill="#304454" stroke="none" transform="rotate(1.5587 260.8899377810399 48.56547347334259)" r="NaN"/><path fill="#42a8c1" stroke="none" d="M 260.349,50.6743 S 259.604,51.9373 258.749,51.9403 C 258.233,51.9403 257.889,51.4233 257.576,50.6223 C 257.216,49.6993 258.425,49.3623 258.983,49.3823 C 259.491,49.4013 260.683,49.5203 260.349,50.6743 Z" transform=""/><path fill="#49bbd6" stroke="none" d="M 260.383,49.9337 S 259.798,51.2787 258.95,51.3857 C 258.438,51.4497 258.034,50.9787 257.624,50.2217 C 257.154,49.3497 258.313,48.8677 258.869,48.8187 C 259.375,48.7757 260.574,48.7477 260.383,49.9337 Z" transform=""/><path fill="none" stroke="#378fa4" d="M 261.977,51.9353 S 264.02,53.4203 264.7,54.6953" style="stroke-miterlimit: 10" stroke-miterlimit="10" transform=""/><path fill="none" stroke="#378fa4" d="M 262.826,51.0988 S 265.255,51.7648 266.348,52.7218" style="stroke-miterlimit: 10" stroke-miterlimit="10" transform=""/><path fill="none" stroke="#378fa4" d="M 254.94,51.6554 S 252.897,53.1404 252.217,54.4154" style="stroke-miterlimit: 10" stroke-miterlimit="10" transform=""/><path fill="none" stroke="#378fa4" d="M 254.091,50.8189 S 251.662,51.4849 250.569,52.4419" style="stroke-miterlimit: 10" stroke-miterlimit="10" transform=""/><path fill="#49bbd6" stroke="none" d="M 261.473,71.1483 C 260.788,70.3493 260.009,69.9953 259.732,70.3573 C 259.572,70.5673 259.62,70.9733 259.819,71.4323 C 259.304,71.0243 258.822,70.8973 258.617,71.1663 C 258.499,71.3213 258.497,71.5843 258.58,71.8933 C 258.028,71.4173 257.494,71.2503 257.275,71.5373 C 256.998,71.8993 257.329,72.8413 258.013,73.6413 C 258.698,74.4403 259.478,74.7943 259.754,74.4323 C 259.873,74.2773 259.874,74.0143 259.791,73.7043 C 260.344,74.1803 260.878,74.3473 261.097,74.0613 C 261.257,73.8503 261.208,73.4443 261.01,72.9853 C 261.525,73.3943 262.006,73.5213 262.212,73.2523 C 262.488,72.8893 262.158,71.9473 261.473,71.1483 Z" transform=""/><path fill="#42a8c1" stroke="none" d="M 271.135,67.5298 C 270.343,66.8368 269.521,66.5968 269.299,66.9958 C 269.17,67.2258 269.276,67.6218 269.538,68.0468 C 268.97,67.7158 268.475,67.6588 268.31,67.9548 C 268.215,68.1248 268.251,68.3858 268.378,68.6798 C 267.763,68.2878 267.211,68.1988 267.035,68.5138 C 266.813,68.9118 267.274,69.7968 268.066,70.4908 C 268.858,71.1838 269.68,71.4238 269.902,71.0248 C 269.997,70.8548 269.961,70.5948 269.834,70.2998 C 270.449,70.6918 271.002,70.7818 271.177,70.4658 C 271.306,70.2358 271.2,69.8398 270.939,69.4148 C 271.506,69.7458 272.001,69.8028 272.166,69.5068 C 272.388,69.1078 271.927,68.2228 271.135,67.5298 Z" transform=""/><ellipse cx="303.25180602551" cy="66.80262295020408" rx="7.695011418519151" ry="3.138625437034931" fill="#42a8c1" stroke="none" transform="rotate(203.0782 303.25180432604196 66.8026237513436)" r="NaN"/><path fill="#49bbd6" stroke="none" d="M 289.262,55.2878 C 288.361,47.1428 291.664,42.3548 295.757,42.1128 C 301.288,41.7878 304.636,45.2678 303.744,52.7968 C 303.561,54.3328 311.242,65.8728 303.876,69.5458 C 297.571,71.2748 276.624,72.3258 276.223,64.4988 C 275.732,54.9118 289.384,56.3868 289.262,55.2878 Z" transform=""/><ellipse cx="278.63205301495367" cy="65.2415693519515" rx="6.409831126494749" ry="2.614554001523765" fill="#49bbd6" stroke="none" transform="rotate(180.2177 278.6320532090813 65.24156939871793)" r="NaN"/><path fill="#42a8c1" stroke="none" d="M 295.703,67.9722 C 292.092,65.7322 289.925,63.0532 289.011,64.5262 C 288.426,65.4692 286.64,68.6872 287.433,70.5142 C 290.781,70.9332 296.112,71.2822 299.296,70.9462 C 298.411,69.9312 297.179,68.8882 295.703,67.9722 Z" transform=""/><path fill="#49bbd6" stroke="none" d="M 299.649,73.5048 C 301.025,72.4808 299.738,69.0758 296.773,65.8998 S 290.289,60.9808 288.913,62.0048 C 287.537,63.0298 288.824,66.4338 291.789,69.6098 S 298.273,74.5288 299.649,73.5048 Z" transform=""/><path fill="#42a8c1" stroke="none" d="M 291.481,50.8077 C 292.143,49.0977 293.959,48.1567 295.536,48.7067 C 296.266,48.9617 298.107,48.8597 298.923,48.6347 C 300.537,48.1907 302.279,49.2497 302.814,50.9997 C 303.349,52.7487 302.475,54.5267 300.861,54.9717 C 299.367,55.3827 294.656,55.4287 293.137,54.8997 C 291.56,54.3497 290.819,52.5177 291.481,50.8077 Z" transform=""/><path fill="#49bbd6" stroke="none" d="M 291.949,50.1185 C 292.589,48.4655 294.343,47.5575 295.867,48.0885 C 296.573,48.3345 298.352,48.2365 299.14,48.0195 C 300.7,47.5905 302.383,48.6125 302.9,50.3035 C 303.417,51.9945 302.572,53.7125 301.013,54.1415 C 299.569,54.5395 298.055,54.3575 297.423,52.8875 C 296.729,54.4245 295.017,54.5845 293.549,54.0725 C 292.025,53.5415 291.309,51.7705 291.949,50.1185 Z" transform=""/><ellipse cx="294.9867412941657" cy="48.56547353598582" rx="0.4825564069740806" ry="0.6704900307817475" fill="#304454" stroke="none" transform="rotate(1.5587 294.98674246191143 48.56547347334259)" r="NaN"/><ellipse cx="299.7788257746429" cy="48.56547353598582" rx="0.4825564069740806" ry="0.6704900307817475" fill="#304454" stroke="none" transform="rotate(1.5587 299.7788266699288 48.56547347334259)" r="NaN"/><path fill="#42a8c1" stroke="none" d="M 299.238,50.6743 S 298.493,51.9373 297.638,51.9403 C 297.122,51.9403 296.778,51.4233 296.465,50.6223 C 296.105,49.6993 297.314,49.3623 297.872,49.3823 C 298.38,49.4013 299.572,49.5203 299.238,50.6743 Z" transform=""/><path fill="#49bbd6" stroke="none" d="M 299.272,49.9337 S 298.687,51.2787 297.839,51.3857 C 297.327,51.4497 296.923,50.9787 296.513,50.2217 C 296.043,49.3497 297.202,48.8677 297.758,48.8187 C 298.264,48.7757 299.463,48.7477 299.272,49.9337 Z" transform=""/><path fill="none" stroke="#378fa4" d="M 300.866,51.9353 S 302.909,53.4203 303.589,54.6953" style="stroke-miterlimit: 10" stroke-miterlimit="10" transform=""/><path fill="none" stroke="#378fa4" d="M 301.715,51.0988 S 304.144,51.7648 305.237,52.7218" style="stroke-miterlimit: 10" stroke-miterlimit="10" transform=""/><path fill="none" stroke="#378fa4" d="M 293.829,51.6554 S 291.786,53.1404 291.106,54.4154" style="stroke-miterlimit: 10" stroke-miterlimit="10" transform=""/><path fill="none" stroke="#378fa4" d="M 292.98,50.8189 S 290.551,51.4849 289.458,52.4419" style="stroke-miterlimit: 10" stroke-miterlimit="10" transform=""/><path fill="#49bbd6" stroke="none" d="M 300.362,71.1483 C 299.677,70.3493 298.898,69.9953 298.621,70.3573 C 298.461,70.5673 298.509,70.9733 298.708,71.4323 C 298.193,71.0243 297.711,70.8973 297.506,71.1663 C 297.388,71.3213 297.386,71.5843 297.469,71.8933 C 296.917,71.4173 296.383,71.2503 296.164,71.5373 C 295.887,71.8993 296.218,72.8413 296.902,73.6413 C 297.587,74.4403 298.367,74.7943 298.643,74.4323 C 298.762,74.2773 298.763,74.0143 298.68,73.7043 C 299.233,74.1803 299.767,74.3473 299.986,74.0613 C 300.146,73.8503 300.097,73.4443 299.899,72.9853 C 300.414,73.3943 300.895,73.5213 301.101,73.2523 C 301.377,72.8893 301.047,71.9473 300.362,71.1483 Z" transform=""/><path fill="#42a8c1" stroke="none" d="M 310.024,67.5298 C 309.232,66.8368 308.41,66.5968 308.188,66.9958 C 308.059,67.2258 308.165,67.6218 308.427,68.0468 C 307.859,67.7158 307.364,67.6588 307.199,67.9548 C 307.104,68.1248 307.14,68.3858 307.267,68.6798 C 306.652,68.2878 306.1,68.1988 305.924,68.5138 C 305.702,68.9118 306.163,69.7968 306.955,70.4908 C 307.747,71.1838 308.569,71.4238 308.791,71.0248 C 308.886,70.8548 308.85,70.5948 308.723,70.2998 C 309.338,70.6918 309.891,70.7818 310.066,70.4658 C 310.195,70.2358 310.089,69.8398 309.828,69.4148 C 310.395,69.7458 310.89,69.8028 311.055,69.5068 C 311.277,69.1078 310.816,68.2228 310.024,67.5298 Z" transform=""/><ellipse cx="31.029583803287853" cy="27.91373406131519" rx="7.695011418519151" ry="3.138625437034931" fill="#42a8c1" stroke="none" transform="rotate(203.0782 31.029582103819777 27.91373486245471)" r="NaN"/><path fill="#49bbd6" stroke="none" d="M 17.0399,16.3989 C 16.1389,8.25389 19.4419,3.46589 23.5349,3.22389 C 29.0659,2.89889 32.4139,6.37889 31.5219,13.9079 C 31.3389,15.4439 39.0199,26.9839 31.6539,30.6569 C 25.3489,32.3859 4.40191,33.4369 4.00091,25.6099 C 3.50991,16.0229 17.1619,17.4979 17.0399,16.3989 Z" transform=""/><ellipse cx="6.409830792731479" cy="26.35268046306261" rx="6.409831126494749" ry="2.614554001523765" fill="#49bbd6" stroke="none" transform="rotate(180.2177 6.409830986859095 26.35268050982903)" r="NaN"/><path fill="#42a8c1" stroke="none" d="M 23.4805,29.0833 C 19.8695,26.8433 17.7025,24.1643 16.7885,25.6373 C 16.2035,26.5803 14.4175,29.7983 15.2105,31.6253 C 18.5585,32.0443 23.8895,32.3933 27.0735,32.0573 C 26.1885,31.0423 24.9565,29.9993 23.4805,29.0833 Z" transform=""/><path fill="#49bbd6" stroke="none" d="M 27.4267,34.616 C 28.8027,33.592 27.5157,30.187 24.5507,27.011 S 18.0667,22.092 16.6907,23.116 C 15.3147,24.141 16.6017,27.545 19.5667,30.721 S 26.0507,35.64 27.4267,34.616 Z" transform=""/><path fill="#42a8c1" stroke="none" d="M 19.259,11.9188 C 19.921,10.2088 21.737,9.26784 23.314,9.81784 C 24.044,10.0728 25.885,9.97084 26.701,9.74584 C 28.315,9.30184 30.057,10.3608 30.592,12.1108 C 31.127,13.8598 30.253,15.6378 28.639,16.0828 C 27.145,16.4938 22.434,16.5398 20.915,16.0108 C 19.338,15.4608 18.597,13.6288 19.259,11.9188 Z" transform=""/><path fill="#49bbd6" stroke="none" d="M 19.7263,11.2296 C 20.3663,9.5766 22.1203,8.6686 23.6443,9.1996 C 24.3503,9.4456 26.1293,9.3476 26.9173,9.1306 C 28.4773,8.7016 30.1603,9.7236 30.6773,11.4146 S 30.3493,14.8236 28.7903,15.2526 C 27.3463,15.6506 25.8323,15.4686 25.2003,13.9986 C 24.5063,15.5356 22.7943,15.6956 21.3263,15.1836 C 19.8023,14.6526 19.0863,12.8816 19.7263,11.2296 Z" transform=""/><ellipse cx="22.764519071943518" cy="9.676584647096927" rx="0.4825564069740806" ry="0.6704900307817475" fill="#304454" stroke="none" transform="rotate(1.5587 22.764520239689247 9.676584584453703)" r="NaN"/><ellipse cx="27.556603552420682" cy="9.676584647096927" rx="0.4825564069740806" ry="0.6704900307817475" fill="#304454" stroke="none" transform="rotate(1.5587 27.556604447706597 9.676584584453703)" r="NaN"/><path fill="#42a8c1" stroke="none" d="M 27.016,11.7854 S 26.271,13.0484 25.416,13.0514 C 24.9,13.0514 24.556,12.5344 24.243,11.7334 C 23.883,10.8104 25.092,10.4734 25.65,10.4934 C 26.158,10.5124 27.35,10.6314 27.016,11.7854 Z" transform=""/><path fill="#49bbd6" stroke="none" d="M 27.0495,11.0448 S 26.4645,12.3898 25.6165,12.4968 C 25.1045,12.5608 24.7005,12.0898 24.2905,11.3328 C 23.8205,10.4608 24.9795,9.97879 25.5355,9.92979 C 26.0415,9.88679 27.2405,9.85879 27.0495,11.0448 Z" transform=""/><path fill="none" stroke="#378fa4" d="M 28.644,13.0464 S 30.687,14.5314 31.367,15.8064" style="stroke-miterlimit: 10" stroke-miterlimit="10" transform=""/><path fill="none" stroke="#378fa4" d="M 29.4926,12.2099 S 31.9216,12.8759 33.0146,13.8329" style="stroke-miterlimit: 10" stroke-miterlimit="10" transform=""/><path fill="none" stroke="#378fa4" d="M 21.6066,12.7666 S 19.5636,14.2516 18.8836,15.5266" style="stroke-miterlimit: 10" stroke-miterlimit="10" transform=""/><path fill="none" stroke="#378fa4" d="M 20.758,11.93 S 18.329,12.596 17.236,13.553" style="stroke-miterlimit: 10" stroke-miterlimit="10" transform=""/><path fill="#49bbd6" stroke="none" d="M 28.1396,32.2594 C 27.4546,31.4604 26.6756,31.1064 26.3986,31.4684 C 26.2386,31.6784 26.2866,32.0844 26.4856,32.5434 C 25.9706,32.1354 25.4886,32.0084 25.2836,32.2774 C 25.1656,32.4324 25.1636,32.6954 25.2466,33.0044 C 24.6946,32.5284 24.1606,32.3614 23.9416,32.6484 C 23.6646,33.0104 23.9956,33.9524 24.6796,34.7524 C 25.3646,35.5514 26.1446,35.9054 26.4206,35.5434 C 26.5396,35.3884 26.5406,35.1254 26.4576,34.8154 C 27.0106,35.2914 27.5446,35.4584 27.7636,35.1724 C 27.9236,34.9614 27.8746,34.5554 27.6766,34.0964 C 28.1916,34.5054 28.6726,34.6324 28.8786,34.3634 C 29.1546,34.0004 28.8246,33.0584 28.1396,32.2594 Z" transform=""/><path fill="#42a8c1" stroke="none" d="M 37.8019,28.6409 C 37.0099,27.9479 36.1879,27.7079 35.9659,28.1069 C 35.8369,28.3369 35.9429,28.7329 36.2049,29.1579 C 35.6369,28.8269 35.1419,28.7699 34.9769,29.0659 C 34.8819,29.2359 34.9179,29.4969 35.0449,29.7909 C 34.4299,29.3989 33.8779,29.3099 33.7019,29.6249 C 33.4799,30.0229 33.9409,30.9079 34.7329,31.6019 C 35.5249,32.2949 36.3469,32.5349 36.5689,32.1359 C 36.6639,31.9659 36.6279,31.7059 36.5009,31.4109 C 37.1159,31.8029 37.6689,31.8929 37.8439,31.5769 C 37.9729,31.3469 37.8669,30.9509 37.6059,30.5259 C 38.1729,30.8569 38.6679,30.9139 38.8329,30.6179 C 39.0549,30.2189 38.5939,29.3339 37.8019,28.6409 Z" transform=""/><ellipse cx="69.91847269217673" cy="27.91373406131519" rx="7.695011418519151" ry="3.138625437034931" fill="#42a8c1" stroke="none" transform="rotate(203.0782 69.91847099270866 27.91373486245471)" r="NaN"/><path fill="#49bbd6" stroke="none" d="M 55.9288,16.3989 C 55.0278,8.25389 58.3308,3.46589 62.4238,3.22389 C 67.9548,2.89889 71.3028,6.37889 70.4108,13.9079 C 70.2278,15.4439 77.9088,26.9839 70.5428,30.6569 C 64.2378,32.3859 43.2908,33.4369 42.8898,25.6099 C 42.3988,16.0229 56.0508,17.4979 55.9288,16.3989 Z" transform=""/><ellipse cx="45.29871968162036" cy="26.35268046306261" rx="6.409831126494749" ry="2.614554001523765" fill="#49bbd6" stroke="none" transform="rotate(180.2177 45.29871987574798 26.35268050982903)" r="NaN"/><path fill="#42a8c1" stroke="none" d="M 62.3694,29.0833 C 58.7584,26.8433 56.5914,24.1643 55.6774,25.6373 C 55.0924,26.5803 53.3064,29.7983 54.0994,31.6253 C 57.4474,32.0443 62.7784,32.3933 65.9624,32.0573 C 65.0774,31.0423 63.8454,29.9993 62.3694,29.0833 Z" transform=""/><path fill="#49bbd6" stroke="none" d="M 66.3156,34.616 C 67.6916,33.592 66.4046,30.187 63.4396,27.011 S 56.9556,22.092 55.5796,23.116 C 54.2036,24.141 55.4906,27.545 58.4556,30.721 S 64.9396,35.64 66.3156,34.616 Z" transform=""/><path fill="#42a8c1" stroke="none" d="M 58.1478,11.9188 C 58.8098,10.2088 60.6258,9.26784 62.2028,9.81784 C 62.9328,10.0728 64.7738,9.97084 65.5898,9.74584 C 67.2038,9.30184 68.9458,10.3608 69.4808,12.1108 C 70.0158,13.8598 69.1418,15.6378 67.5278,16.0828 C 66.0338,16.4938 61.3228,16.5398 59.8038,16.0108 C 58.2268,15.4608 57.4858,13.6288 58.1478,11.9188 Z" transform=""/><path fill="#49bbd6" stroke="none" d="M 58.6152,11.2296 C 59.2552,9.5766 61.0092,8.6686 62.5332,9.1996 C 63.2392,9.4456 65.0182,9.3476 65.8062,9.1306 C 67.3662,8.7016 69.0492,9.7236 69.5662,11.4146 C 70.0832,13.1056 69.2382,14.8236 67.6792,15.2526 C 66.2352,15.6506 64.7212,15.4686 64.0892,13.9986 C 63.3952,15.5356 61.6832,15.6956 60.2152,15.1836 C 58.6912,14.6526 57.9752,12.8816 58.6152,11.2296 Z" transform=""/><ellipse cx="61.6534079608324" cy="9.676584647096927" rx="0.4825564069740806" ry="0.6704900307817475" fill="#304454" stroke="none" transform="rotate(1.5587 61.65340912857813 9.676584584453703)" r="NaN"/><ellipse cx="66.44549244130957" cy="9.676584647096927" rx="0.4825564069740806" ry="0.6704900307817475" fill="#304454" stroke="none" transform="rotate(1.5587 66.44549333659549 9.676584584453703)" r="NaN"/><path fill="#42a8c1" stroke="none" d="M 65.9049,11.7854 S 65.1599,13.0484 64.3049,13.0514 C 63.7889,13.0514 63.4449,12.5344 63.1319,11.7334 C 62.7719,10.8104 63.9809,10.4734 64.5389,10.4934 C 65.0469,10.5124 66.2389,10.6314 65.9049,11.7854 Z" transform=""/><path fill="#49bbd6" stroke="none" d="M 65.9384,11.0448 S 65.3534,12.3898 64.5054,12.4968 C 63.9934,12.5608 63.5894,12.0898 63.1794,11.3328 C 62.7094,10.4608 63.8684,9.97879 64.4244,9.92979 C 64.9304,9.88679 66.1294,9.85879 65.9384,11.0448 Z" transform=""/><path fill="none" stroke="#378fa4" d="M 67.5329,13.0464 S 69.5759,14.5314 70.2559,15.8064" style="stroke-miterlimit: 10" stroke-miterlimit="10" transform=""/><path fill="none" stroke="#378fa4" d="M 68.3815,12.2099 S 70.8105,12.8759 71.9035,13.8329" style="stroke-miterlimit: 10" stroke-miterlimit="10" transform=""/><path fill="none" stroke="#378fa4" d="M 60.4955,12.7666 S 58.4525,14.2516 57.7725,15.5266" style="stroke-miterlimit: 10" stroke-miterlimit="10" transform=""/><path fill="none" stroke="#378fa4" d="M 59.6468,11.93 S 57.2178,12.596 56.1248,13.553" style="stroke-miterlimit: 10" stroke-miterlimit="10" transform=""/><path fill="#49bbd6" stroke="none" d="M 67.0285,32.2594 C 66.3435,31.4604 65.5645,31.1064 65.2875,31.4684 C 65.1275,31.6784 65.1755,32.0844 65.3745,32.5434 C 64.8595,32.1354 64.3775,32.0084 64.1725,32.2774 C 64.0545,32.4324 64.0525,32.6954 64.1355,33.0044 C 63.5835,32.5284 63.0495,32.3614 62.8305,32.6484 C 62.5535,33.0104 62.8845,33.9524 63.5685,34.7524 C 64.2535,35.5514 65.0335,35.9054 65.3095,35.5434 C 65.4285,35.3884 65.4295,35.1254 65.3465,34.8154 C 65.8995,35.2914 66.4335,35.4584 66.6525,35.1724 C 66.8125,34.9614 66.7635,34.5554 66.5655,34.0964 C 67.0805,34.5054 67.5615,34.6324 67.7675,34.3634 C 68.0435,34.0004 67.7135,33.0584 67.0285,32.2594 Z" transform=""/><path fill="#42a8c1" stroke="none" d="M 76.6908,28.6409 C 75.8988,27.9479 75.0768,27.7079 74.8548,28.1069 C 74.7258,28.3369 74.8318,28.7329 75.0938,29.1579 C 74.5258,28.8269 74.0308,28.7699 73.8658,29.0659 C 73.7708,29.2359 73.8068,29.4969 73.9338,29.7909 C 73.3188,29.3989 72.7668,29.3099 72.5908,29.6249 C 72.3688,30.0229 72.8298,30.9079 73.6218,31.6019 C 74.4138,32.2949 75.2358,32.5349 75.4578,32.1359 C 75.5528,31.9659 75.5168,31.7059 75.3898,31.4109 C 76.0048,31.8029 76.5578,31.8929 76.7328,31.5769 C 76.8618,31.3469 76.7558,30.9509 76.4948,30.5259 C 77.0618,30.8569 77.5568,30.9139 77.7218,30.6179 C 77.9438,30.2189 77.4828,29.3339 76.6908,28.6409 Z" transform=""/><ellipse cx="108.80736158106562" cy="27.91373406131519" rx="7.695011418519151" ry="3.138625437034931" fill="#42a8c1" stroke="none" transform="rotate(203.0782 108.80735988159755 27.91373486245471)" r="NaN"/><path fill="#49bbd6" stroke="none" d="M 94.8177,16.3989 C 93.9167,8.25389 97.2197,3.46589 101.313,3.22389 C 106.844,2.89889 110.192,6.37889 109.3,13.9079 C 109.117,15.4439 116.798,26.9839 109.432,30.6569 C 103.127,32.3859 82.1797,33.4369 81.7787,25.6099 C 81.2877,16.0229 94.9397,17.4979 94.8177,16.3989 Z" transform=""/><ellipse cx="84.18760857050925" cy="26.35268046306261" rx="6.409831126494749" ry="2.614554001523765" fill="#49bbd6" stroke="none" transform="rotate(180.2177 84.18760876463686 26.35268050982903)" r="NaN"/><path fill="#42a8c1" stroke="none" d="M 101.258,29.0833 C 97.6473,26.8433 95.4803,24.1643 94.5663,25.6373 C 93.9813,26.5803 92.1953,29.7983 92.9883,31.6253 C 96.3363,32.0443 101.667,32.3933 104.851,32.0573 C 103.966,31.0423 102.734,29.9993 101.258,29.0833 Z" transform=""/><path fill="#49bbd6" stroke="none" d="M 105.204,34.616 C 106.58,33.592 105.293,30.187 102.328,27.011 S 95.8445,22.092 94.4685,23.116 C 93.0925,24.141 94.3795,27.545 97.3445,30.721 S 103.828,35.64 105.204,34.616 Z" transform=""/><path fill="#42a8c1" stroke="none" d="M 97.0367,11.9188 C 97.6987,10.2088 99.5147,9.26784 101.092,9.81784 C 101.822,10.0728 103.663,9.97084 104.479,9.74584 C 106.093,9.30184 107.835,10.3608 108.37,12.1108 C 108.905,13.8598 108.031,15.6378 106.417,16.0828 C 104.923,16.4938 100.212,16.5398 98.6927,16.0108 C 97.1157,15.4608 96.3747,13.6288 97.0367,11.9188 Z" transform=""/><path fill="#49bbd6" stroke="none" d="M 97.5041,11.2296 C 98.1441,9.5766 99.8981,8.6686 101.422,9.1996 C 102.128,9.4456 103.907,9.3476 104.695,9.1306 C 106.255,8.7016 107.938,9.7236 108.455,11.4146 C 108.972,13.1056 108.127,14.8236 106.568,15.2526 C 105.124,15.6506 103.61,15.4686 102.978,13.9986 C 102.284,15.5356 100.572,15.6956 99.1041,15.1836 C 97.5801,14.6526 96.8641,12.8816 97.5041,11.2296 Z" transform=""/><ellipse cx="100.54229684972128" cy="9.676584647096927" rx="0.4825564069740806" ry="0.6704900307817475" fill="#304454" stroke="none" transform="rotate(1.5587 100.54229801746702 9.676584584453703)" r="NaN"/><ellipse cx="105.33438133019845" cy="9.676584647096927" rx="0.4825564069740806" ry="0.6704900307817475" fill="#304454" stroke="none" transform="rotate(1.5587 105.33438222548438 9.676584584453703)" r="NaN"/><path fill="#42a8c1" stroke="none" d="M 104.794,11.7854 S 104.049,13.0484 103.194,13.0514 C 102.678,13.0514 102.334,12.5344 102.021,11.7334 C 101.661,10.8104 102.87,10.4734 103.428,10.4934 C 103.936,10.5124 105.128,10.6314 104.794,11.7854 Z" transform=""/><path fill="#49bbd6" stroke="none" d="M 104.827,11.0448 S 104.242,12.3898 103.394,12.4968 C 102.882,12.5608 102.478,12.0898 102.068,11.3328 C 101.598,10.4608 102.757,9.97879 103.313,9.92979 C 103.819,9.88679 105.018,9.85879 104.827,11.0448 Z" transform=""/><path fill="none" stroke="#378fa4" d="M 106.422,13.0464 S 108.465,14.5314 109.145,15.8064" style="stroke-miterlimit: 10" stroke-miterlimit="10" transform=""/><path fill="none" stroke="#378fa4" d="M 107.27,12.2099 S 109.699,12.8759 110.792,13.8329" style="stroke-miterlimit: 10" stroke-miterlimit="10" transform=""/><path fill="none" stroke="#378fa4" d="M 99.3843,12.7666 S 97.3413,14.2516 96.6613,15.5266" style="stroke-miterlimit: 10" stroke-miterlimit="10" transform=""/><path fill="none" stroke="#378fa4" d="M 98.5357,11.93 S 96.1067,12.596 95.0137,13.553" style="stroke-miterlimit: 10" stroke-miterlimit="10" transform=""/><path fill="#49bbd6" stroke="none" d="M 105.917,32.2594 C 105.232,31.4604 104.453,31.1064 104.176,31.4684 C 104.016,31.6784 104.064,32.0844 104.263,32.5434 C 103.748,32.1354 103.266,32.0084 103.061,32.2774 C 102.943,32.4324 102.941,32.6954 103.024,33.0044 C 102.472,32.5284 101.938,32.3614 101.719,32.6484 C 101.442,33.0104 101.773,33.9524 102.457,34.7524 C 103.142,35.5514 103.922,35.9054 104.198,35.5434 C 104.317,35.3884 104.318,35.1254 104.235,34.8154 C 104.788,35.2914 105.322,35.4584 105.541,35.1724 C 105.701,34.9614 105.652,34.5554 105.454,34.0964 C 105.969,34.5054 106.45,34.6324 106.656,34.3634 C 106.932,34.0004 106.602,33.0584 105.917,32.2594 Z" transform=""/><path fill="#42a8c1" stroke="none" d="M 115.58,28.6409 C 114.788,27.9479 113.966,27.7079 113.744,28.1069 C 113.615,28.3369 113.721,28.7329 113.983,29.1579 C 113.415,28.8269 112.92,28.7699 112.755,29.0659 C 112.66,29.2359 112.696,29.4969 112.823,29.7909 C 112.208,29.3989 111.656,29.3099 111.48,29.6249 C 111.258,30.0229 111.719,30.9079 112.511,31.6019 C 113.303,32.2949 114.125,32.5349 114.347,32.1359 C 114.442,31.9659 114.406,31.7059 114.279,31.4109 C 114.894,31.8029 115.447,31.8929 115.622,31.5769 C 115.751,31.3469 115.645,30.9509 115.384,30.5259 C 115.951,30.8569 116.446,30.9139 116.611,30.6179 C 116.833,30.2189 116.372,29.3339 115.58,28.6409 Z" transform=""/><ellipse cx="147.6962504699545" cy="27.91373406131519" rx="7.695011418519151" ry="3.138625437034931" fill="#42a8c1" stroke="none" transform="rotate(203.0782 147.69624877048642 27.91373486245471)" r="NaN"/><path fill="#49bbd6" stroke="none" d="M 133.707,16.3989 C 132.806,8.25389 136.109,3.46589 140.202,3.22389 C 145.733,2.89889 149.081,6.37889 148.189,13.9079 C 148.006,15.4439 155.687,26.9839 148.321,30.6569 C 142.016,32.3859 121.069,33.4369 120.668,25.6099 C 120.177,16.0229 133.829,17.4979 133.707,16.3989 Z" transform=""/><ellipse cx="123.07649745939813" cy="26.35268046306261" rx="6.409831126494749" ry="2.614554001523765" fill="#49bbd6" stroke="none" transform="rotate(180.2177 123.07649765352573 26.35268050982903)" r="NaN"/><path fill="#42a8c1" stroke="none" d="M 140.147,29.0833 C 136.536,26.8433 134.369,24.1643 133.455,25.6373 C 132.87,26.5803 131.084,29.7983 131.877,31.6253 C 135.225,32.0443 140.556,32.3933 143.74,32.0573 C 142.855,31.0423 141.623,29.9993 140.147,29.0833 Z" transform=""/><path fill="#49bbd6" stroke="none" d="M 144.093,34.616 C 145.469,33.592 144.182,30.187 141.217,27.011 S 134.733,22.092 133.357,23.116 C 131.981,24.141 133.268,27.545 136.233,30.721 S 142.717,35.64 144.093,34.616 Z" transform=""/><path fill="#42a8c1" stroke="none" d="M 135.926,11.9188 C 136.588,10.2088 138.404,9.26784 139.981,9.81784 C 140.711,10.0728 142.552,9.97084 143.368,9.74584 C 144.982,9.30184 146.724,10.3608 147.259,12.1108 C 147.794,13.8598 146.92,15.6378 145.306,16.0828 C 143.812,16.4938 139.101,16.5398 137.582,16.0108 C 136.005,15.4608 135.264,13.6288 135.926,11.9188 Z" transform=""/><path fill="#49bbd6" stroke="none" d="M 136.393,11.2296 C 137.033,9.5766 138.787,8.6686 140.311,9.1996 C 141.017,9.4456 142.796,9.3476 143.584,9.1306 C 145.144,8.7016 146.827,9.7236 147.344,11.4146 S 147.016,14.8236 145.457,15.2526 C 144.013,15.6506 142.499,15.4686 141.867,13.9986 C 141.173,15.5356 139.461,15.6956 137.993,15.1836 C 136.469,14.6526 135.753,12.8816 136.393,11.2296 Z" transform=""/><ellipse cx="139.43118573861017" cy="9.676584647096927" rx="0.4825564069740806" ry="0.6704900307817475" fill="#304454" stroke="none" transform="rotate(1.5587 139.4311869063559 9.676584584453703)" r="NaN"/><ellipse cx="144.22327021908734" cy="9.676584647096927" rx="0.4825564069740806" ry="0.6704900307817475" fill="#304454" stroke="none" transform="rotate(1.5587 144.22327111437323 9.676584584453703)" r="NaN"/><path fill="#42a8c1" stroke="none" d="M 143.683,11.7854 S 142.938,13.0484 142.083,13.0514 C 141.567,13.0514 141.223,12.5344 140.91,11.7334 C 140.55,10.8104 141.759,10.4734 142.317,10.4934 C 142.825,10.5124 144.017,10.6314 143.683,11.7854 Z" transform=""/><path fill="#49bbd6" stroke="none" d="M 143.716,11.0448 S 143.131,12.3898 142.283,12.4968 C 141.771,12.5608 141.367,12.0898 140.957,11.3328 C 140.487,10.4608 141.646,9.97879 142.202,9.92979 C 142.708,9.88679 143.907,9.85879 143.716,11.0448 Z" transform=""/><path fill="none" stroke="#378fa4" d="M 145.311,13.0464 S 147.354,14.5314 148.034,15.8064" style="stroke-miterlimit: 10" stroke-miterlimit="10" transform=""/><path fill="none" stroke="#378fa4" d="M 146.159,12.2099 S 148.588,12.8759 149.681,13.8329" style="stroke-miterlimit: 10" stroke-miterlimit="10" transform=""/><path fill="none" stroke="#378fa4" d="M 138.273,12.7666 S 136.23,14.2516 135.55,15.5266" style="stroke-miterlimit: 10" stroke-miterlimit="10" transform=""/><path fill="none" stroke="#378fa4" d="M 137.425,11.93 S 134.996,12.596 133.903,13.553" style="stroke-miterlimit: 10" stroke-miterlimit="10" transform=""/><path fill="#49bbd6" stroke="none" d="M 144.806,32.2594 C 144.121,31.4604 143.342,31.1064 143.065,31.4684 C 142.905,31.6784 142.953,32.0844 143.152,32.5434 C 142.637,32.1354 142.155,32.0084 141.95,32.2774 C 141.832,32.4324 141.83,32.6954 141.913,33.0044 C 141.361,32.5284 140.827,32.3614 140.608,32.6484 C 140.331,33.0104 140.662,33.9524 141.346,34.7524 C 142.031,35.5514 142.811,35.9054 143.087,35.5434 C 143.206,35.3884 143.207,35.1254 143.124,34.8154 C 143.677,35.2914 144.211,35.4584 144.43,35.1724 C 144.59,34.9614 144.541,34.5554 144.343,34.0964 C 144.858,34.5054 145.339,34.6324 145.545,34.3634 C 145.821,34.0004 145.491,33.0584 144.806,32.2594 Z" transform=""/><path fill="#42a8c1" stroke="none" d="M 154.469,28.6409 C 153.677,27.9479 152.855,27.7079 152.633,28.1069 C 152.504,28.3369 152.61,28.7329 152.872,29.1579 C 152.304,28.8269 151.809,28.7699 151.644,29.0659 C 151.549,29.2359 151.585,29.4969 151.712,29.7909 C 151.097,29.3989 150.545,29.3099 150.369,29.6249 C 150.147,30.0229 150.608,30.9079 151.4,31.6019 C 152.192,32.2949 153.014,32.5349 153.236,32.1359 C 153.331,31.9659 153.295,31.7059 153.168,31.4109 C 153.783,31.8029 154.336,31.8929 154.511,31.5769 C 154.64,31.3469 154.534,30.9509 154.273,30.5259 C 154.84,30.8569 155.335,30.9139 155.5,30.6179 C 155.722,30.2189 155.261,29.3339 154.469,28.6409 Z" transform=""/><ellipse cx="186.5851393588434" cy="27.91373406131519" rx="7.695011418519151" ry="3.138625437034931" fill="#42a8c1" stroke="none" transform="rotate(203.0782 186.58513765937533 27.91373486245471)" r="NaN"/><path fill="#49bbd6" stroke="none" d="M 172.595,16.3989 C 171.694,8.25389 174.997,3.46589 179.09,3.22389 C 184.621,2.89889 187.969,6.37889 187.077,13.9079 C 186.894,15.4439 194.575,26.9839 187.209,30.6569 C 180.904,32.3859 159.957,33.4369 159.556,25.6099 C 159.065,16.0229 172.717,17.4979 172.595,16.3989 Z" transform=""/><ellipse cx="161.965386348287" cy="26.35268046306261" rx="6.409831126494749" ry="2.614554001523765" fill="#49bbd6" stroke="none" transform="rotate(180.2177 161.96538654241465 26.35268050982903)" r="NaN"/><path fill="#42a8c1" stroke="none" d="M 179.036,29.0833 C 175.425,26.8433 173.258,24.1643 172.344,25.6373 C 171.759,26.5803 169.973,29.7983 170.766,31.6253 C 174.114,32.0443 179.445,32.3933 182.629,32.0573 C 181.744,31.0423 180.512,29.9993 179.036,29.0833 Z" transform=""/><path fill="#49bbd6" stroke="none" d="M 182.982,34.616 C 184.358,33.592 183.071,30.187 180.106,27.011 S 173.622,22.092 172.246,23.116 C 170.87,24.141 172.157,27.545 175.122,30.721 S 181.606,35.64 182.982,34.616 Z" transform=""/><path fill="#42a8c1" stroke="none" d="M 174.815,11.9188 C 175.477,10.2088 177.293,9.26784 178.87,9.81784 C 179.6,10.0728 181.441,9.97084 182.257,9.74584 C 183.871,9.30184 185.613,10.3608 186.148,12.1108 C 186.683,13.8598 185.809,15.6378 184.195,16.0828 C 182.701,16.4938 177.99,16.5398 176.471,16.0108 C 174.894,15.4608 174.153,13.6288 174.815,11.9188 Z" transform=""/><path fill="#49bbd6" stroke="none" d="M 175.282,11.2296 C 175.922,9.5766 177.676,8.6686 179.2,9.1996 C 179.906,9.4456 181.685,9.3476 182.473,9.1306 C 184.033,8.7016 185.716,9.7236 186.233,11.4146 S 185.905,14.8236 184.346,15.2526 C 182.902,15.6506 181.388,15.4686 180.756,13.9986 C 180.062,15.5356 178.35,15.6956 176.882,15.1836 C 175.358,14.6526 174.642,12.8816 175.282,11.2296 Z" transform=""/><ellipse cx="178.32007462749905" cy="9.676584647096927" rx="0.4825564069740806" ry="0.6704900307817475" fill="#304454" stroke="none" transform="rotate(1.5587 178.3200757952448 9.676584584453703)" r="NaN"/><ellipse cx="183.11215910797623" cy="9.676584647096927" rx="0.4825564069740806" ry="0.6704900307817475" fill="#304454" stroke="none" transform="rotate(1.5587 183.11216000326215 9.676584584453703)" r="NaN"/><path fill="#42a8c1" stroke="none" d="M 182.572,11.7854 S 181.827,13.0484 180.972,13.0514 C 180.456,13.0514 180.112,12.5344 179.799,11.7334 C 179.439,10.8104 180.648,10.4734 181.206,10.4934 C 181.714,10.5124 182.906,10.6314 182.572,11.7854 Z" transform=""/><path fill="#49bbd6" stroke="none" d="M 182.605,11.0448 S 182.02,12.3898 181.172,12.4968 C 180.66,12.5608 180.256,12.0898 179.846,11.3328 C 179.376,10.4608 180.535,9.97879 181.091,9.92979 C 181.597,9.88679 182.796,9.85879 182.605,11.0448 Z" transform=""/><path fill="none" stroke="#378fa4" d="M 184.2,13.0464 S 186.243,14.5314 186.923,15.8064" style="stroke-miterlimit: 10" stroke-miterlimit="10" transform=""/><path fill="none" stroke="#378fa4" d="M 185.048,12.2099 S 187.477,12.8759 188.57,13.8329" style="stroke-miterlimit: 10" stroke-miterlimit="10" transform=""/><path fill="none" stroke="#378fa4" d="M 177.162,12.7666 S 175.119,14.2516 174.439,15.5266" style="stroke-miterlimit: 10" stroke-miterlimit="10" transform=""/><path fill="none" stroke="#378fa4" d="M 176.314,11.93 S 173.885,12.596 172.792,13.553" style="stroke-miterlimit: 10" stroke-miterlimit="10" transform=""/><path fill="#49bbd6" stroke="none" d="M 183.695,32.2594 C 183.01,31.4604 182.231,31.1064 181.954,31.4684 C 181.794,31.6784 181.842,32.0844 182.041,32.5434 C 181.526,32.1354 181.044,32.0084 180.839,32.2774 C 180.721,32.4324 180.719,32.6954 180.802,33.0044 C 180.25,32.5284 179.716,32.3614 179.497,32.6484 C 179.22,33.0104 179.551,33.9524 180.235,34.7524 C 180.92,35.5514 181.7,35.9054 181.976,35.5434 C 182.095,35.3884 182.096,35.1254 182.013,34.8154 C 182.566,35.2914 183.1,35.4584 183.319,35.1724 C 183.479,34.9614 183.43,34.5554 183.232,34.0964 C 183.747,34.5054 184.228,34.6324 184.434,34.3634 C 184.71,34.0004 184.38,33.0584 183.695,32.2594 Z" transform=""/><path fill="#42a8c1" stroke="none" d="M 193.357,28.6409 C 192.565,27.9479 191.743,27.7079 191.521,28.1069 C 191.392,28.3369 191.498,28.7329 191.76,29.1579 C 191.192,28.8269 190.697,28.7699 190.532,29.0659 C 190.437,29.2359 190.473,29.4969 190.6,29.7909 C 189.985,29.3989 189.433,29.3099 189.257,29.6249 C 189.035,30.0229 189.496,30.9079 190.288,31.6019 C 191.08,32.2949 191.902,32.5349 192.124,32.1359 C 192.219,31.9659 192.183,31.7059 192.056,31.4109 C 192.671,31.8029 193.224,31.8929 193.399,31.5769 C 193.528,31.3469 193.422,30.9509 193.161,30.5259 C 193.728,30.8569 194.223,30.9139 194.388,30.6179 C 194.61,30.2189 194.149,29.3339 193.357,28.6409 Z" transform=""/><ellipse cx="225.47402824773226" cy="27.91373406131519" rx="7.695011418519151" ry="3.138625437034931" fill="#42a8c1" stroke="none" transform="rotate(203.0782 225.4740265482642 27.91373486245471)" r="NaN"/><path fill="#49bbd6" stroke="none" d="M 211.484,16.3989 C 210.583,8.25389 213.886,3.46589 217.979,3.22389 C 223.51,2.89889 226.858,6.37889 225.966,13.9079 C 225.783,15.4439 233.464,26.9839 226.098,30.6569 C 219.793,32.3859 198.846,33.4369 198.445,25.6099 C 197.954,16.0229 211.606,17.4979 211.484,16.3989 Z" transform=""/><ellipse cx="200.85427523717587" cy="26.35268046306261" rx="6.409831126494749" ry="2.614554001523765" fill="#49bbd6" stroke="none" transform="rotate(180.2177 200.8542754313035 26.35268050982903)" r="NaN"/><path fill="#42a8c1" stroke="none" d="M 217.925,29.0833 C 214.314,26.8433 212.147,24.1643 211.233,25.6373 C 210.648,26.5803 208.862,29.7983 209.655,31.6253 C 213.003,32.0443 218.334,32.3933 221.518,32.0573 C 220.633,31.0423 219.401,29.9993 217.925,29.0833 Z" transform=""/><path fill="#49bbd6" stroke="none" d="M 221.871,34.616 C 223.247,33.592 221.96,30.187 218.995,27.011 S 212.511,22.092 211.135,23.116 C 209.759,24.141 211.046,27.545 214.011,30.721 S 220.495,35.64 221.871,34.616 Z" transform=""/><path fill="#42a8c1" stroke="none" d="M 213.703,11.9188 C 214.365,10.2088 216.181,9.26784 217.758,9.81784 C 218.488,10.0728 220.329,9.97084 221.145,9.74584 C 222.759,9.30184 224.501,10.3608 225.036,12.1108 C 225.571,13.8598 224.697,15.6378 223.083,16.0828 C 221.589,16.4938 216.878,16.5398 215.359,16.0108 C 213.782,15.4608 213.041,13.6288 213.703,11.9188 Z" transform=""/><path fill="#49bbd6" stroke="none" d="M 214.171,11.2296 C 214.811,9.5766 216.565,8.6686 218.089,9.1996 C 218.795,9.4456 220.574,9.3476 221.362,9.1306 C 222.922,8.7016 224.605,9.7236 225.122,11.4146 S 224.794,14.8236 223.235,15.2526 C 221.791,15.6506 220.277,15.4686 219.645,13.9986 C 218.951,15.5356 217.239,15.6956 215.771,15.1836 C 214.247,14.6526 213.531,12.8816 214.171,11.2296 Z" transform=""/><ellipse cx="217.2089635163879" cy="9.676584647096927" rx="0.4825564069740806" ry="0.6704900307817475" fill="#304454" stroke="none" transform="rotate(1.5587 217.20896468413366 9.676584584453703)" r="NaN"/><ellipse cx="222.00104799686508" cy="9.676584647096927" rx="0.4825564069740806" ry="0.6704900307817475" fill="#304454" stroke="none" transform="rotate(1.5587 222.001048892151 9.676584584453703)" r="NaN"/><path fill="#42a8c1" stroke="none" d="M 221.46,11.7854 S 220.715,13.0484 219.86,13.0514 C 219.344,13.0514 219,12.5344 218.687,11.7334 C 218.327,10.8104 219.536,10.4734 220.094,10.4934 C 220.602,10.5124 221.794,10.6314 221.46,11.7854 Z" transform=""/><path fill="#49bbd6" stroke="none" d="M 221.494,11.0448 S 220.909,12.3898 220.061,12.4968 C 219.549,12.5608 219.145,12.0898 218.735,11.3328 C 218.265,10.4608 219.424,9.97879 219.98,9.92979 C 220.486,9.88679 221.685,9.85879 221.494,11.0448 Z" transform=""/><path fill="none" stroke="#378fa4" d="M 223.088,13.0464 S 225.131,14.5314 225.811,15.8064" style="stroke-miterlimit: 10" stroke-miterlimit="10" transform=""/><path fill="none" stroke="#378fa4" d="M 223.937,12.2099 S 226.366,12.8759 227.459,13.8329" style="stroke-miterlimit: 10" stroke-miterlimit="10" transform=""/><path fill="none" stroke="#378fa4" d="M 216.051,12.7666 S 214.008,14.2516 213.328,15.5266" style="stroke-miterlimit: 10" stroke-miterlimit="10" transform=""/><path fill="none" stroke="#378fa4" d="M 215.202,11.93 S 212.773,12.596 211.68,13.553" style="stroke-miterlimit: 10" stroke-miterlimit="10" transform=""/><path fill="#49bbd6" stroke="none" d="M 222.584,32.2594 C 221.899,31.4604 221.12,31.1064 220.843,31.4684 C 220.683,31.6784 220.731,32.0844 220.93,32.5434 C 220.415,32.1354 219.933,32.0084 219.728,32.2774 C 219.61,32.4324 219.608,32.6954 219.691,33.0044 C 219.139,32.5284 218.605,32.3614 218.386,32.6484 C 218.109,33.0104 218.44,33.9524 219.124,34.7524 C 219.809,35.5514 220.589,35.9054 220.865,35.5434 C 220.984,35.3884 220.985,35.1254 220.902,34.8154 C 221.455,35.2914 221.989,35.4584 222.208,35.1724 C 222.368,34.9614 222.319,34.5554 222.121,34.0964 C 222.636,34.5054 223.117,34.6324 223.323,34.3634 C 223.599,34.0004 223.269,33.0584 222.584,32.2594 Z" transform=""/><path fill="#42a8c1" stroke="none" d="M 232.246,28.6409 C 231.454,27.9479 230.632,27.7079 230.41,28.1069 C 230.281,28.3369 230.387,28.7329 230.649,29.1579 C 230.081,28.8269 229.586,28.7699 229.421,29.0659 C 229.326,29.2359 229.362,29.4969 229.489,29.7909 C 228.874,29.3989 228.322,29.3099 228.146,29.6249 C 227.924,30.0229 228.385,30.9079 229.177,31.6019 C 229.969,32.2949 230.791,32.5349 231.013,32.1359 C 231.108,31.9659 231.072,31.7059 230.945,31.4109 C 231.56,31.8029 232.113,31.8929 232.288,31.5769 C 232.417,31.3469 232.311,30.9509 232.05,30.5259 C 232.617,30.8569 233.112,30.9139 233.277,30.6179 C 233.499,30.2189 233.038,29.3339 232.246,28.6409 Z" transform=""/><ellipse cx="264.36291713662115" cy="27.91373406131519" rx="7.695011418519151" ry="3.138625437034931" fill="#42a8c1" stroke="none" transform="rotate(203.0782 264.3629154371531 27.91373486245471)" r="NaN"/><path fill="#49bbd6" stroke="none" d="M 250.373,16.3989 C 249.472,8.25389 252.775,3.46589 256.868,3.22389 C 262.399,2.89889 265.747,6.37889 264.855,13.9079 C 264.672,15.4439 272.353,26.9839 264.987,30.6569 C 258.682,32.3859 237.735,33.4369 237.334,25.6099 C 236.843,16.0229 250.495,17.4979 250.373,16.3989 Z" transform=""/><ellipse cx="239.74316412606478" cy="26.35268046306261" rx="6.409831126494749" ry="2.614554001523765" fill="#49bbd6" stroke="none" transform="rotate(180.2177 239.74316432019242 26.35268050982903)" r="NaN"/><path fill="#42a8c1" stroke="none" d="M 256.814,29.0833 C 253.203,26.8433 251.036,24.1643 250.122,25.6373 C 249.537,26.5803 247.751,29.7983 248.544,31.6253 C 251.892,32.0443 257.223,32.3933 260.407,32.0573 C 259.522,31.0423 258.29,29.9993 256.814,29.0833 Z" transform=""/><path fill="#49bbd6" stroke="none" d="M 260.76,34.616 C 262.136,33.592 260.849,30.187 257.884,27.011 S 251.4,22.092 250.024,23.116 C 248.648,24.141 249.935,27.545 252.9,30.721 S 259.384,35.64 260.76,34.616 Z" transform=""/><path fill="#42a8c1" stroke="none" d="M 252.592,11.9188 C 253.254,10.2088 255.07,9.26784 256.647,9.81784 C 257.377,10.0728 259.218,9.97084 260.034,9.74584 C 261.648,9.30184 263.39,10.3608 263.925,12.1108 C 264.46,13.8598 263.586,15.6378 261.972,16.0828 C 260.478,16.4938 255.767,16.5398 254.248,16.0108 C 252.671,15.4608 251.93,13.6288 252.592,11.9188 Z" transform=""/><path fill="#49bbd6" stroke="none" d="M 253.06,11.2296 C 253.7,9.5766 255.454,8.6686 256.978,9.1996 C 257.684,9.4456 259.463,9.3476 260.251,9.1306 C 261.811,8.7016 263.494,9.7236 264.011,11.4146 S 263.683,14.8236 262.124,15.2526 C 260.68,15.6506 259.166,15.4686 258.534,13.9986 C 257.84,15.5356 256.128,15.6956 254.66,15.1836 C 253.136,14.6526 252.42,12.8816 253.06,11.2296 Z" transform=""/><ellipse cx="256.09785240527685" cy="9.676584647096927" rx="0.4825564069740806" ry="0.6704900307817475" fill="#304454" stroke="none" transform="rotate(1.5587 256.0978535730226 9.676584584453703)" r="NaN"/><ellipse cx="260.88993688575397" cy="9.676584647096927" rx="0.4825564069740806" ry="0.6704900307817475" fill="#304454" stroke="none" transform="rotate(1.5587 260.8899377810399 9.676584584453703)" r="NaN"/><path fill="#42a8c1" stroke="none" d="M 260.349,11.7854 S 259.604,13.0484 258.749,13.0514 C 258.233,13.0514 257.889,12.5344 257.576,11.7334 C 257.216,10.8104 258.425,10.4734 258.983,10.4934 C 259.491,10.5124 260.683,10.6314 260.349,11.7854 Z" transform=""/><path fill="#49bbd6" stroke="none" d="M 260.383,11.0448 S 259.798,12.3898 258.95,12.4968 C 258.438,12.5608 258.034,12.0898 257.624,11.3328 C 257.154,10.4608 258.313,9.97879 258.869,9.92979 C 259.375,9.88679 260.574,9.85879 260.383,11.0448 Z" transform=""/><path fill="none" stroke="#378fa4" d="M 261.977,13.0464 S 264.02,14.5314 264.7,15.8064" style="stroke-miterlimit: 10" stroke-miterlimit="10" transform=""/><path fill="none" stroke="#378fa4" d="M 262.826,12.2099 S 265.255,12.8759 266.348,13.8329" style="stroke-miterlimit: 10" stroke-miterlimit="10" transform=""/><path fill="none" stroke="#378fa4" d="M 254.94,12.7666 S 252.897,14.2516 252.217,15.5266" style="stroke-miterlimit: 10" stroke-miterlimit="10" transform=""/><path fill="none" stroke="#378fa4" d="M 254.091,11.93 S 251.662,12.596 250.569,13.553" style="stroke-miterlimit: 10" stroke-miterlimit="10" transform=""/><path fill="#49bbd6" stroke="none" d="M 261.473,32.2594 C 260.788,31.4604 260.009,31.1064 259.732,31.4684 C 259.572,31.6784 259.62,32.0844 259.819,32.5434 C 259.304,32.1354 258.822,32.0084 258.617,32.2774 C 258.499,32.4324 258.497,32.6954 258.58,33.0044 C 258.028,32.5284 257.494,32.3614 257.275,32.6484 C 256.998,33.0104 257.329,33.9524 258.013,34.7524 C 258.698,35.5514 259.478,35.9054 259.754,35.5434 C 259.873,35.3884 259.874,35.1254 259.791,34.8154 C 260.344,35.2914 260.878,35.4584 261.097,35.1724 C 261.257,34.9614 261.208,34.5554 261.01,34.0964 C 261.525,34.5054 262.006,34.6324 262.212,34.3634 C 262.488,34.0004 262.158,33.0584 261.473,32.2594 Z" transform=""/><path fill="#42a8c1" stroke="none" d="M 271.135,28.6409 C 270.343,27.9479 269.521,27.7079 269.299,28.1069 C 269.17,28.3369 269.276,28.7329 269.538,29.1579 C 268.97,28.8269 268.475,28.7699 268.31,29.0659 C 268.215,29.2359 268.251,29.4969 268.378,29.7909 C 267.763,29.3989 267.211,29.3099 267.035,29.6249 C 266.813,30.0229 267.274,30.9079 268.066,31.6019 C 268.858,32.2949 269.68,32.5349 269.902,32.1359 C 269.997,31.9659 269.961,31.7059 269.834,31.4109 C 270.449,31.8029 271.002,31.8929 271.177,31.5769 C 271.306,31.3469 271.2,30.9509 270.939,30.5259 C 271.506,30.8569 272.001,30.9139 272.166,30.6179 C 272.388,30.2189 271.927,29.3339 271.135,28.6409 Z" transform=""/></svg>