<svg xmlns="http://www.w3.org/2000/svg" version="1.1" width="350" height="50" viewBox="0 0 350 50"><defs><linearGradient id="r-cd37432e158e4bc78e98c5959700860f" x1="0" y1="0" x2="1" y2="2.4492935982947064e-16"><stop offset="0%" stop-color="#fdc075"/><stop offset="100%" stop-color="#de9354"/></linearGradient><linearGradient id="r-739c8b4d8b0a415886d7f449ea11b258" x1="0" y1="0" x2="1" y2="2.4492935982947064e-16"><stop offset="0%" stop-color="#fdc075"/><stop offset="100%" stop-color="#de9354"/></linearGradient></defs><path fill="#fcd0a1" stroke="none" d="M 49.161,29.5928 S 51.136,26.8008 49.025,23.2588 C 46.914,19.7178 42.078,19.7178 40.852,19.7178 C 39.627,19.7178 31.59,18.7638 27.027,17.3338 S 14.291,12.4988 12.997,11.8178 C 11.703,11.1358 7.95799,11.0678 7.88899,18.0828 C 7.88899,18.0828 19.944,25.1658 24.848,26.1878 C 29.751,27.2088 37.924,29.7288 39.831,29.9328 C 41.738,30.1378 46.097,31.7038 49.161,29.5928 Z" transform=""/><path fill="#e8b986" stroke="none" d="M 47.2544,28.7075 S 48.8894,23.1235 40.9884,22.7825 C 33.0884,22.4415 25.9374,20.8075 22.3284,19.5135 C 18.7184,18.2195 12.7934,15.4275 11.0224,14.2695 S 8.02543,15.5635 7.89043,18.0835 C 7.89043,18.0835 26.7544,26.3925 30.1604,27.0055 C 34.2834,27.7475 45.6874,29.7295 47.2544,28.7075 Z" transform=""/><path fill="#b35138" stroke="none" d="M 4.28047,17.0618 C 5.77847,15.4268 7.41347,15.9038 8.23047,16.1768 C 9.04747,16.4488 8.98047,16.7898 18.1065,20.3988 C 27.2315,24.0088 40.9885,25.8478 40.9885,25.8478 C 42.3515,26.0518 42.6235,25.9838 46.5735,26.5288 S 50.8645,31.3638 48.0715,32.7938 C 45.2795,34.2238 36.0165,32.7938 31.4535,32.3178 C 26.8915,31.8408 19.6715,29.6618 14.3595,27.7548 S 4.55247,21.5568 4.27947,21.2848 C 4.00847,21.0118 2.78247,18.6958 4.28047,17.0618 Z" transform=""/><path fill="#9b3924" stroke="none" d="M 31.4539,32.3171 C 26.8909,31.8411 19.6719,29.6611 14.3599,27.7541 S 4.55285,21.5571 4.27985,21.2841 C 4.02385,21.0281 2.92385,18.9631 4.04385,17.3571 C 4.94685,18.2231 6.39985,19.0811 7.55485,19.8101 C 9.18485,20.8401 11.5869,21.2691 22.3109,25.3011 C 33.0359,29.3341 44.4469,29.5921 45.3049,29.6781 C 46.1629,29.7631 46.8289,30.2111 45.9909,30.9641 C 45.2889,31.5951 46.7299,32.7131 47.7019,32.6131 C 48.0459,32.5781 48.4339,32.4511 48.7989,32.2981 C 48.5859,32.4861 48.3449,32.6541 48.0719,32.7931 C 45.2799,34.2241 36.0169,32.7941 31.4539,32.3171 Z" transform=""/><path fill="url(#r-cd37432e158e4bc78e98c5959700860f)" stroke="none" d="M 12.9979,11.818 C 14.2919,12.499 22.2109,15.721 26.7729,17.152 C 31.3359,18.582 39.6269,19.718 40.8529,19.718 C 41.9759,19.718 46.1299,19.721 48.4419,22.447 C 44.7899,19.296 37.8409,21.87 26.5159,19.211 C 19.7239,17.616 17.5069,15.436 11.4149,13.034 C 10.4179,12.64 9.79386,12.6 9.21586,12.813 C 10.4519,11.078 12.1939,11.394 12.9979,11.818 Z" opacity="1" fill-opacity="1" style="opacity: 1;fill-opacity: 1" transform=""/><path fill="url(#r-739c8b4d8b0a415886d7f449ea11b258)" stroke="none" d="M 46.8308,33.1649 S 45.9248,33.7859 42.6238,31.7719 C 39.0868,29.6149 35.0638,29.3209 32.2718,28.7759 C 29.4788,28.2309 13.2028,22.8509 11.4318,22.1699 C 9.66082,21.4889 4.73282,18.8659 3.87182,18.5599 C 1.76082,17.8109 -1.05018,18.0899 0.398816,22.0339 C 1.62482,25.3709 3.93982,28.5039 12.6568,33.4749 C 21.3748,38.4469 35.3948,39.5919 41.7388,37.5619 C 45.1428,36.4709 46.8308,34.1859 46.8308,33.1649 Z" opacity="1" fill-opacity="1" style="opacity: 1;fill-opacity: 1" transform=""/><path fill="#fcd0a1" stroke="none" d="M 3.87278,18.5635 C 4.73378,18.8695 9.66078,21.4915 11.4328,22.1735 C 13.2028,22.8545 29.4798,28.2345 32.2728,28.7795 C 35.0648,29.3235 39.0878,29.6195 42.6238,31.7755 C 45.9258,33.7895 46.8318,33.1685 46.8318,33.1685 C 46.8318,34.0295 45.6278,35.7855 43.2128,36.9685 C 43.0928,36.2435 42.8998,35.6825 42.7748,35.5145 C 42.3878,34.9995 40.0718,34.9995 38.6558,34.3565 C 37.2398,33.7125 30.8058,32.5545 28.6178,32.1685 C 26.4298,31.7825 23.5988,31.6535 22.5698,31.3955 C 21.5398,31.1385 19.6088,30.2375 18.7088,29.9805 C 17.8078,29.7225 18.1938,29.8515 16.2638,29.4655 S 5.71078,23.2885 3.39478,22.1305 C 1.79278,21.3295 1.23678,19.7295 0.919777,18.4775 C 1.70678,18.0845 2.86778,18.2065 3.87278,18.5635 Z" transform=""/><path fill="#9b3924" stroke="none" d="M 39.3547,28.6603 C 40.2367,28.4463 41.2917,28.2363 42.6017,28.2363 L 42.6017,28.2363 C 43.1317,28.2363 43.7037,28.2713 44.3237,28.3543 L 44.3237,28.3543 L 44.3227,28.3543 C 44.6067,28.3933 44.8677,28.1953 44.9057,27.9133 L 44.9057,27.9133 C 44.9437,27.6313 44.7457,27.3723 44.4617,27.3343 L 44.4617,27.3343 C 43.7967,27.2453 43.1777,27.2073 42.6017,27.2073 L 42.6017,27.2073 C 41.1807,27.2073 40.0277,27.4373 39.1087,27.6613 L 39.1087,27.6613 C 38.1937,27.8873 37.4987,28.0913 37.0817,28.0853 L 37.0817,28.0853 C 36.9577,28.0853 36.8617,28.0703 36.7827,28.0463 L 36.7827,28.0463 C 36.3567,27.9303 35.6887,27.2953 34.8997,26.5753 L 34.8997,26.5753 C 34.1007,25.8643 33.1217,25.0773 31.8247,24.7533 L 31.8247,24.7533 C 31.4247,24.6533 31.0327,24.6133 30.6517,24.6133 L 30.6517,24.6133 C 29.0407,24.6273 27.6467,25.2633 26.3247,25.2493 L 26.3247,25.2493 C 25.9107,25.2483 25.5057,25.1943 25.0847,25.0523 L 25.0847,25.0523 C 24.0187,24.6893 23.4127,24.0793 22.5847,23.3583 L 22.5847,23.3583 C 21.7657,22.6423 20.7307,21.8613 18.9617,21.4103 L 18.9617,21.4103 C 18.4507,21.2793 17.9667,21.2293 17.5097,21.2313 L 17.5097,21.2313 C 16.1857,21.2373 15.1117,21.6113 14.1457,21.6023 L 14.1457,21.6023 C 13.8877,21.6023 13.6367,21.5793 13.3827,21.5223 L 13.3827,21.5223 C 13.0747,21.4473 12.9077,21.3103 12.6927,21.0303 L 12.6927,21.0303 C 12.4837,20.7533 12.2767,20.3413 11.9887,19.8833 L 11.9887,19.8833 C 11.4207,18.9613 10.4257,17.8983 8.32871,17.4863 L 8.32871,17.4863 C 8.04971,17.4283 7.77671,17.6083 7.71871,17.8863 L 7.71871,17.8863 C 7.66071,18.1653 7.84071,18.4363 8.12171,18.4943 L 8.12171,18.4943 C 9.50871,18.7833 10.2007,19.2943 10.6867,19.8493 L 10.6867,19.8493 C 11.1757,20.4083 11.4317,21.0543 11.8597,21.6423 L 11.8597,21.6423 C 12.1437,22.0313 12.5637,22.3983 13.1557,22.5253 L 13.1557,22.5253 C 13.4947,22.6013 13.8247,22.6303 14.1457,22.6303 L 14.1457,22.6303 C 15.3547,22.6213 16.4027,22.2513 17.5097,22.2583 L 17.5097,22.2583 C 17.8927,22.2593 18.2847,22.2993 18.7017,22.4063 L 18.7017,22.4063 C 20.2947,22.8203 21.1147,23.4513 21.9037,24.1323 L 21.9037,24.1323 C 22.6837,24.8073 23.4407,25.5803 24.7507,26.0263 L 24.7507,26.0263 C 25.2897,26.2083 25.8177,26.2773 26.3247,26.2773 L 26.3247,26.2773 C 27.9477,26.2633 29.3447,25.6263 30.6517,25.6413 L 30.6517,25.6413 C 30.9607,25.6413 31.2647,25.6733 31.5737,25.7493 L 31.5737,25.7493 C 32.5947,26.0013 33.4427,26.6553 34.2077,27.3403 L 34.2077,27.3403 C 34.9847,28.0183 35.6207,28.7373 36.4717,29.0263 L 36.4717,29.0263 C 36.6727,29.0893 36.8777,29.1133 37.0817,29.1133 L 37.0817,29.1133 C 37.7697,29.1073 38.4687,28.8723 39.3547,28.6603 L 39.3547,28.6603 Z" transform=""/><path fill="#f6b21a" stroke="none" d="M 39.3632,28.467 C 40.2402,28.253 41.2882,28.043 42.5922,28.043 L 42.5922,28.043 C 43.1182,28.043 43.6872,28.078 44.3032,28.161 L 44.3032,28.161 L 44.3022,28.161 C 44.5852,28.2 44.8442,28.002 44.8812,27.72 L 44.8812,27.72 C 44.9192,27.438 44.7222,27.179 44.4402,27.141 L 44.4402,27.141 C 43.7792,27.052 43.1632,27.014 42.5922,27.014 L 42.5922,27.014 C 41.1792,27.014 40.0312,27.244 39.1182,27.468 L 39.1182,27.468 C 38.2092,27.694 37.5182,27.898 37.1032,27.892 L 37.1032,27.892 C 36.9812,27.892 36.8842,27.877 36.8072,27.853 L 36.8072,27.853 C 36.3822,27.737 35.7182,27.102 34.9342,26.382 L 34.9342,26.382 C 34.1402,25.671 33.1672,24.884 31.8772,24.56 L 31.8772,24.56 C 31.4792,24.46 31.0892,24.42 30.7102,24.42 L 30.7102,24.42 C 29.1092,24.435 27.7232,25.071 26.4082,25.056 L 26.4082,25.056 C 25.9982,25.056 25.5942,25.002 25.1762,24.86 L 25.1762,24.86 C 24.1162,24.498 23.5142,23.887 22.6902,23.166 L 22.6902,23.166 C 21.8762,22.45 20.8472,21.669 19.0882,21.219 L 19.0882,21.219 C 18.5802,21.088 18.0992,21.038 17.6452,21.039 L 17.6452,21.039 C 16.3292,21.045 15.2612,21.419 14.3002,21.41 L 14.3002,21.41 C 14.0442,21.41 13.7942,21.387 13.5422,21.33 L 13.5422,21.33 C 13.2352,21.256 13.0702,21.118 12.8552,20.839 L 12.8552,20.839 C 12.6482,20.562 12.4422,20.15 12.1562,19.692 L 12.1562,19.692 C 11.5912,18.769 10.6032,17.707 8.51824,17.294 L 8.51824,17.294 C 8.23924,17.237 7.96824,17.417 7.91024,17.695 L 7.91024,17.695 C 7.85324,17.973 8.03324,18.245 8.31124,18.302 L 8.31124,18.302 C 9.69024,18.592 10.3772,19.103 10.8612,19.658 L 10.8612,19.658 C 11.3472,20.217 11.6012,20.863 12.0282,21.451 L 12.0282,21.451 C 12.3092,21.839 12.7272,22.207 13.3152,22.334 L 13.3152,22.334 C 13.6522,22.41 13.9812,22.439 14.2992,22.439 L 14.2992,22.439 C 15.5022,22.43 16.5442,22.06 17.6442,22.067 L 17.6442,22.067 C 18.0252,22.068 18.4152,22.108 18.8302,22.215 L 18.8302,22.215 C 20.4132,22.629 21.2282,23.26 22.0122,23.941 L 22.0122,23.941 C 22.7892,24.616 23.5412,25.39 24.8442,25.834 L 24.8442,25.834 C 25.3792,26.016 25.9042,26.086 26.4082,26.086 L 26.4082,26.086 C 28.0212,26.071 29.4102,25.435 30.7102,25.449 L 30.7102,25.449 C 31.0172,25.449 31.3202,25.481 31.6262,25.558 L 31.6262,25.558 C 32.6412,25.809 33.4842,26.463 34.2452,27.148 L 34.2452,27.148 C 35.0172,27.827 35.6502,28.546 36.4952,28.834 L 36.4952,28.834 C 36.6962,28.897 36.8992,28.921 37.1032,28.921 L 37.1032,28.921 C 37.7872,28.914 38.4822,28.679 39.3632,28.467 L 39.3632,28.467 Z" transform=""/><path fill="#fbd702" stroke="none" d="M 37.103,28.2975 C 38.262,28.2905 39.898,27.4195 42.591,27.4205 L 42.591,27.4205 C 43.135,27.4205 43.721,27.4565 44.353,27.5425 L 44.353,27.5425 C 44.424,27.5515 44.488,27.5025 44.498,27.4325 L 44.498,27.4325 C 44.507,27.3605 44.459,27.2965 44.388,27.2875 L 44.388,27.2875 C 43.744,27.2005 43.146,27.1635 42.591,27.1635 L 42.591,27.1635 C 39.852,27.1645 38.141,28.0475 37.103,28.0405 L 37.103,28.0405 C 36.949,28.0405 36.814,28.0225 36.689,27.9835 L 36.689,27.9835 C 35.506,27.6295 34.145,25.2955 31.783,24.6965 L 31.783,24.6965 C 31.419,24.6055 31.062,24.5695 30.71,24.5695 L 30.71,24.5695 C 29.222,24.5725 27.835,25.2085 26.407,25.2055 L 26.407,25.2055 C 25.962,25.2055 25.513,25.1445 25.051,24.9875 L 25.051,24.9875 C 22.759,24.2215 22.386,22.2415 18.99,21.3545 L 18.99,21.3545 C 18.518,21.2325 18.07,21.1875 17.644,21.1875 L 17.644,21.1875 C 16.409,21.1885 15.351,21.5605 14.299,21.5585 L 14.299,21.5585 C 14.02,21.5585 13.74,21.5325 13.456,21.4695 L 13.456,21.4695 C 12.643,21.2925 12.379,20.5425 11.829,19.6605 L 11.829,19.6605 C 11.282,18.7865 10.43,17.8405 8.43901,17.4345 L 8.43901,17.4345 C 8.37001,17.4205 8.30201,17.4655 8.28701,17.5345 L 8.28701,17.5345 C 8.27301,17.6045 8.31801,17.6725 8.38801,17.6865 L 8.38801,17.6865 C 10.316,18.0875 11.077,18.9565 11.611,19.7975 L 11.611,19.7975 C 12.141,20.6295 12.425,21.4925 13.399,21.7195 L 13.399,21.7195 C 13.705,21.7885 14.004,21.8155 14.299,21.8155 L 14.299,21.8155 C 15.411,21.8135 16.462,21.4415 17.644,21.4435 L 17.644,21.4435 C 18.053,21.4435 18.477,21.4875 18.926,21.6035 L 18.926,21.6035 C 22.215,22.4455 22.534,24.3835 24.968,25.2305 L 24.968,25.2305 C 25.46,25.3975 25.938,25.4615 26.407,25.4615 L 26.407,25.4615 C 27.909,25.4585 29.297,24.8225 30.71,24.8255 L 30.71,24.8255 C 31.044,24.8265 31.379,24.8605 31.72,24.9445 L 31.72,24.9445 C 33.968,25.4985 35.258,27.7745 36.611,28.2275 L 36.611,28.2275 C 36.765,28.2755 36.926,28.2965 37.096,28.2965 L 37.096,28.2965 C 37.098,28.2975 37.101,28.2975 37.103,28.2975 L 37.103,28.2975 Z" transform=""/></svg>