<svg xmlns="http://www.w3.org/2000/svg" version="1.1" width="250" height="125" viewBox="0 0 250 125"><defs/><path fill="#eae2c1" stroke="none" d="M 10.0789,68.0373 C 11.8089,67.5343 12.5789,68.5763 12.9469,69.1213 C 13.3149,69.6673 13.1049,69.8773 16.9319,76.3633 C 20.7589,82.8493 28.3109,90.0903 28.3109,90.0903 C 29.0479,90.8233 29.2489,90.8933 31.4079,92.9843 C 33.5679,95.0753 31.6549,98.2423 29.2309,98.0423 C 26.8049,97.8413 21.8159,92.8303 19.2459,90.5223 C 16.6749,88.2143 13.3129,83.5593 10.9889,79.9203 C 8.66492,76.2823 8.02292,71.3193 7.98992,71.0093 C 7.95792,70.6993 8.34892,68.5393 10.0789,68.0373 Z" transform=""/><path fill="#c9c2a6" stroke="none" d="M 31.3565,96.3266 C 28.9315,96.1256 23.9425,91.1146 21.3715,88.8066 C 18.8015,86.4986 15.4395,81.8436 13.1145,78.2056 C 10.7915,74.5666 10.1485,69.6036 10.1165,69.2946 C 10.1005,69.1446 10.1855,68.5596 10.4725,67.9396 C 10.3895,67.9576 10.3055,67.9766 10.2175,68.0026 C 8.48751,68.5046 8.09651,70.6646 8.12851,70.9736 C 8.16151,71.2836 8.80351,76.2466 11.1275,79.8846 C 13.4515,83.5236 16.8135,88.1786 19.3835,90.4866 C 21.9545,92.7946 26.9435,97.8056 29.3685,98.0066 C 30.6115,98.1096 31.7165,97.3256 32.2105,96.2566 C 31.9375,96.3236 31.6505,96.3516 31.3565,96.3266 Z" style="opacity: 0.5" opacity="0.5" transform=""/><path fill="#eae2c1" stroke="none" d="M 13.4599,62.5 C 11.0269,62.5 9.04686,64.395 8.92986,66.775 C 8.33586,66.493 7.67386,66.331 6.97186,66.331 C 4.46386,66.331 2.43086,68.343 2.43086,70.826 C 2.43086,73.308 4.46386,75.32 6.97186,75.32 C 9.40486,75.32 11.3849,73.425 11.5019,71.046 C 12.0959,71.327 12.7579,71.489 13.4599,71.489 C 15.9679,71.489 18.0009,69.477 18.0009,66.995 S 15.9679,62.5 13.4599,62.5 Z" transform=""/><path fill="#eae2c1" stroke="none" d="M 34.0983,90.5583 C 31.6873,90.8813 29.9753,93.0223 30.1763,95.3963 C 29.5503,95.1963 28.8723,95.1233 28.1773,95.2163 C 25.6913,95.5493 23.9433,97.8143 24.2723,100.274 C 24.6023,102.734 26.8853,104.459 29.3703,104.125 C 31.7823,103.802 33.4933,101.661 33.2933,99.2873 C 33.9183,99.4873 34.5963,99.5603 35.2923,99.4673 C 37.7773,99.1343 39.5263,96.8693 39.1963,94.4093 C 38.8673,91.9493 36.5843,90.2253 34.0983,90.5583 Z" transform=""/><path fill="#c9c2a6" stroke="none" d="M 5.12902,67.0773 C 3.54002,67.7773 2.43102,69.3503 2.43102,71.1823 C 2.43102,73.6643 4.46402,75.6773 6.97202,75.6773 C 8.74102,75.6773 10.267,74.6733 11.015,73.2123 C 7.89502,72.7263 5.45602,70.2153 5.12902,67.0773 Z" style="opacity: 0.5" opacity="0.5" transform=""/><path fill="#c9c2a6" stroke="none" d="M 27.2784,95.378 C 25.6894,96.078 24.5804,97.651 24.5804,99.483 C 24.5804,101.965 26.6134,103.978 29.1214,103.978 C 30.8904,103.978 32.4164,102.974 33.1644,101.513 C 30.0454,101.026 27.6054,98.516 27.2784,95.378 Z" style="opacity: 0.5" opacity="0.5" transform=""/><path fill="#eae2c1" stroke="none" d="M 51.7456,68.0373 C 53.4756,67.5343 54.2456,68.5763 54.6136,69.1213 C 54.9816,69.6673 54.7716,69.8773 58.5986,76.3633 S 69.9776,90.0903 69.9776,90.0903 C 70.7146,90.8233 70.9156,90.8933 73.0746,92.9843 C 75.2346,95.0753 73.3216,98.2423 70.8976,98.0423 C 68.4716,97.8413 63.4826,92.8303 60.9126,90.5223 C 58.3416,88.2143 54.9796,83.5593 52.6556,79.9203 C 50.3316,76.2823 49.6896,71.3193 49.6566,71.0093 C 49.6246,70.6993 50.0156,68.5393 51.7456,68.0373 Z" transform=""/><path fill="#c9c2a6" stroke="none" d="M 73.0232,96.3266 C 70.5982,96.1256 65.6092,91.1146 63.0382,88.8066 C 60.4682,86.4986 57.1062,81.8436 54.7812,78.2056 C 52.4582,74.5666 51.8152,69.6036 51.7832,69.2946 C 51.7672,69.1446 51.8522,68.5596 52.1392,67.9396 C 52.0562,67.9576 51.9722,67.9766 51.8842,68.0026 C 50.1542,68.5046 49.7632,70.6646 49.7952,70.9736 C 49.8282,71.2836 50.4702,76.2466 52.7942,79.8846 C 55.1182,83.5236 58.4802,88.1786 61.0502,90.4866 C 63.6212,92.7946 68.6102,97.8056 71.0352,98.0066 C 72.2782,98.1096 73.3832,97.3256 73.8772,96.2566 C 73.6042,96.3236 73.3172,96.3516 73.0232,96.3266 Z" style="opacity: 0.5" opacity="0.5" transform=""/><path fill="#eae2c1" stroke="none" d="M 55.1265,62.5 C 52.6935,62.5 50.7135,64.395 50.5965,66.775 C 50.0025,66.493 49.3405,66.331 48.6385,66.331 C 46.1305,66.331 44.0975,68.343 44.0975,70.826 C 44.0975,73.308 46.1305,75.32 48.6385,75.32 C 51.0715,75.32 53.0515,73.425 53.1685,71.046 C 53.7625,71.327 54.4245,71.489 55.1265,71.489 C 57.6345,71.489 59.6675,69.477 59.6675,66.995 S 57.6345,62.5 55.1265,62.5 Z" transform=""/><path fill="#eae2c1" stroke="none" d="M 75.7649,90.5583 C 73.3539,90.8813 71.6419,93.0223 71.8429,95.3963 C 71.2169,95.1963 70.5389,95.1233 69.8439,95.2163 C 67.3579,95.5493 65.6099,97.8143 65.9389,100.274 C 66.2689,102.734 68.5519,104.459 71.0369,104.125 C 73.4489,103.802 75.1599,101.661 74.9599,99.2873 C 75.5849,99.4873 76.2629,99.5603 76.9589,99.4673 C 79.4439,99.1343 81.1929,96.8693 80.8629,94.4093 C 80.5339,91.9493 78.2509,90.2253 75.7649,90.5583 Z" transform=""/><path fill="#c9c2a6" stroke="none" d="M 46.7957,67.0773 C 45.2067,67.7773 44.0977,69.3503 44.0977,71.1823 C 44.0977,73.6643 46.1307,75.6773 48.6387,75.6773 C 50.4077,75.6773 51.9337,74.6733 52.6817,73.2123 C 49.5617,72.7263 47.1227,70.2153 46.7957,67.0773 Z" style="opacity: 0.5" opacity="0.5" transform=""/><path fill="#c9c2a6" stroke="none" d="M 68.945,95.378 C 67.356,96.078 66.247,97.651 66.247,99.483 C 66.247,101.965 68.28,103.978 70.788,103.978 C 72.557,103.978 74.083,102.974 74.831,101.513 C 71.712,101.026 69.272,98.516 68.945,95.378 Z" style="opacity: 0.5" opacity="0.5" transform=""/><path fill="#eae2c1" stroke="none" d="M 93.4123,68.0373 C 95.1423,67.5343 95.9123,68.5763 96.2803,69.1213 C 96.6483,69.6673 96.4383,69.8773 100.265,76.3633 S 111.644,90.0903 111.644,90.0903 C 112.381,90.8233 112.582,90.8933 114.741,92.9843 C 116.901,95.0753 114.988,98.2423 112.564,98.0423 C 110.138,97.8413 105.149,92.8303 102.579,90.5223 C 100.008,88.2143 96.6463,83.5593 94.3223,79.9203 C 91.9983,76.2823 91.3563,71.3193 91.3233,71.0093 C 91.2913,70.6993 91.6823,68.5393 93.4123,68.0373 Z" transform=""/><path fill="#c9c2a6" stroke="none" d="M 114.69,96.3266 C 112.265,96.1256 107.276,91.1146 104.705,88.8066 C 102.135,86.4986 98.7728,81.8436 96.4478,78.2056 C 94.1248,74.5666 93.4818,69.6036 93.4498,69.2946 C 93.4338,69.1446 93.5188,68.5596 93.8058,67.9396 C 93.7228,67.9576 93.6388,67.9766 93.5508,68.0026 C 91.8208,68.5046 91.4298,70.6646 91.4618,70.9736 C 91.4948,71.2836 92.1368,76.2466 94.4608,79.8846 C 96.7848,83.5236 100.147,88.1786 102.717,90.4866 C 105.288,92.7946 110.277,97.8056 112.702,98.0066 C 113.945,98.1096 115.05,97.3256 115.544,96.2566 C 115.271,96.3236 114.984,96.3516 114.69,96.3266 Z" style="opacity: 0.5" opacity="0.5" transform=""/><path fill="#eae2c1" stroke="none" d="M 96.7932,62.5 C 94.3602,62.5 92.3802,64.395 92.2632,66.775 C 91.6692,66.493 91.0072,66.331 90.3052,66.331 C 87.7972,66.331 85.7642,68.343 85.7642,70.826 C 85.7642,73.308 87.7972,75.32 90.3052,75.32 C 92.7382,75.32 94.7182,73.425 94.8352,71.046 C 95.4292,71.327 96.0912,71.489 96.7932,71.489 C 99.3012,71.489 101.334,69.477 101.334,66.995 S 99.3012,62.5 96.7932,62.5 Z" transform=""/><path fill="#eae2c1" stroke="none" d="M 117.432,90.5583 C 115.021,90.8813 113.309,93.0223 113.51,95.3963 C 112.884,95.1963 112.206,95.1233 111.511,95.2163 C 109.025,95.5493 107.277,97.8143 107.606,100.274 C 107.936,102.734 110.219,104.459 112.704,104.125 C 115.116,103.802 116.827,101.661 116.627,99.2873 C 117.252,99.4873 117.93,99.5603 118.626,99.4673 C 121.111,99.1343 122.86,96.8693 122.53,94.4093 C 122.201,91.9493 119.918,90.2253 117.432,90.5583 Z" transform=""/><path fill="#c9c2a6" stroke="none" d="M 88.4624,67.0773 C 86.8734,67.7773 85.7644,69.3503 85.7644,71.1823 C 85.7644,73.6643 87.7974,75.6773 90.3054,75.6773 C 92.0744,75.6773 93.6004,74.6733 94.3484,73.2123 C 91.2284,72.7263 88.7894,70.2153 88.4624,67.0773 Z" style="opacity: 0.5" opacity="0.5" transform=""/><path fill="#c9c2a6" stroke="none" d="M 110.612,95.378 C 109.023,96.078 107.914,97.651 107.914,99.483 C 107.914,101.965 109.947,103.978 112.455,103.978 C 114.224,103.978 115.75,102.974 116.498,101.513 C 113.379,101.026 110.939,98.516 110.612,95.378 Z" style="opacity: 0.5" opacity="0.5" transform=""/><path fill="#eae2c1" stroke="none" d="M 135.079,68.0373 C 136.809,67.5343 137.579,68.5763 137.947,69.1213 C 138.315,69.6673 138.105,69.8773 141.932,76.3633 C 145.759,82.8493 153.311,90.0903 153.311,90.0903 C 154.048,90.8233 154.249,90.8933 156.408,92.9843 C 158.568,95.0753 156.655,98.2423 154.231,98.0423 C 151.805,97.8413 146.816,92.8303 144.246,90.5223 C 141.675,88.2143 138.313,83.5593 135.989,79.9203 C 133.665,76.2823 133.023,71.3193 132.99,71.0093 C 132.958,70.6993 133.349,68.5393 135.079,68.0373 Z" transform=""/><path fill="#c9c2a6" stroke="none" d="M 156.357,96.3266 C 153.932,96.1256 148.943,91.1146 146.372,88.8066 C 143.802,86.4986 140.44,81.8436 138.115,78.2056 C 135.792,74.5666 135.149,69.6036 135.117,69.2946 C 135.101,69.1446 135.186,68.5596 135.473,67.9396 C 135.39,67.9576 135.306,67.9766 135.218,68.0026 C 133.488,68.5046 133.097,70.6646 133.129,70.9736 C 133.162,71.2836 133.804,76.2466 136.128,79.8846 C 138.452,83.5236 141.814,88.1786 144.384,90.4866 C 146.955,92.7946 151.944,97.8056 154.369,98.0066 C 155.612,98.1096 156.717,97.3256 157.211,96.2566 C 156.938,96.3236 156.651,96.3516 156.357,96.3266 Z" style="opacity: 0.5" opacity="0.5" transform=""/><path fill="#eae2c1" stroke="none" d="M 138.46,62.5 C 136.027,62.5 134.047,64.395 133.93,66.775 C 133.336,66.493 132.674,66.331 131.972,66.331 C 129.464,66.331 127.431,68.343 127.431,70.826 C 127.431,73.308 129.464,75.32 131.972,75.32 C 134.405,75.32 136.385,73.425 136.502,71.046 C 137.096,71.327 137.758,71.489 138.46,71.489 C 140.968,71.489 143.001,69.477 143.001,66.995 S 140.968,62.5 138.46,62.5 Z" transform=""/><path fill="#eae2c1" stroke="none" d="M 159.098,90.5583 C 156.687,90.8813 154.975,93.0223 155.176,95.3963 C 154.55,95.1963 153.872,95.1233 153.177,95.2163 C 150.691,95.5493 148.943,97.8143 149.272,100.274 C 149.602,102.734 151.885,104.459 154.37,104.125 C 156.782,103.802 158.493,101.661 158.293,99.2873 C 158.918,99.4873 159.596,99.5603 160.292,99.4673 C 162.777,99.1343 164.526,96.8693 164.196,94.4093 C 163.867,91.9493 161.584,90.2253 159.098,90.5583 Z" transform=""/><path fill="#c9c2a6" stroke="none" d="M 130.129,67.0773 C 128.54,67.7773 127.431,69.3503 127.431,71.1823 C 127.431,73.6643 129.464,75.6773 131.972,75.6773 C 133.741,75.6773 135.267,74.6733 136.015,73.2123 C 132.895,72.7263 130.456,70.2153 130.129,67.0773 Z" style="opacity: 0.5" opacity="0.5" transform=""/><path fill="#c9c2a6" stroke="none" d="M 152.278,95.378 C 150.689,96.078 149.58,97.651 149.58,99.483 C 149.58,101.965 151.613,103.978 154.121,103.978 C 155.89,103.978 157.416,102.974 158.164,101.513 C 155.045,101.026 152.605,98.516 152.278,95.378 Z" style="opacity: 0.5" opacity="0.5" transform=""/><path fill="#eae2c1" stroke="none" d="M 10.0789,26.3707 C 11.8089,25.8677 12.5789,26.9097 12.9469,27.4547 C 13.3149,28.0007 13.1049,28.2107 16.9319,34.6967 C 20.7589,41.1827 28.3109,48.4237 28.3109,48.4237 C 29.0479,49.1567 29.2489,49.2267 31.4079,51.3177 C 33.5679,53.4087 31.6549,56.5757 29.2309,56.3757 C 26.8049,56.1747 21.8159,51.1637 19.2459,48.8557 C 16.6749,46.5477 13.3129,41.8927 10.9889,38.2537 C 8.66492,34.6157 8.02292,29.6527 7.98992,29.3427 C 7.95792,29.0327 8.34892,26.8727 10.0789,26.3707 Z" transform=""/><path fill="#c9c2a6" stroke="none" d="M 31.3565,54.66 C 28.9315,54.459 23.9425,49.448 21.3715,47.14 C 18.8015,44.832 15.4395,40.177 13.1145,36.539 C 10.7915,32.9 10.1485,27.937 10.1165,27.628 C 10.1005,27.478 10.1855,26.893 10.4725,26.273 C 10.3895,26.291 10.3055,26.31 10.2175,26.336 C 8.48751,26.838 8.09651,28.998 8.12851,29.307 C 8.16151,29.617 8.80351,34.58 11.1275,38.218 C 13.4515,41.857 16.8135,46.512 19.3835,48.82 C 21.9545,51.128 26.9435,56.139 29.3685,56.34 C 30.6115,56.443 31.7165,55.659 32.2105,54.59 C 31.9375,54.657 31.6505,54.685 31.3565,54.66 Z" style="opacity: 0.5" opacity="0.5" transform=""/><path fill="#eae2c1" stroke="none" d="M 13.4599,20.8333 C 11.0269,20.8333 9.04686,22.7283 8.92986,25.1083 C 8.33586,24.8263 7.67386,24.6643 6.97186,24.6643 C 4.46386,24.6643 2.43086,26.6763 2.43086,29.1593 C 2.43086,31.6413 4.46386,33.6533 6.97186,33.6533 C 9.40486,33.6533 11.3849,31.7583 11.5019,29.3793 C 12.0959,29.6603 12.7579,29.8223 13.4599,29.8223 C 15.9679,29.8223 18.0009,27.8103 18.0009,25.3283 S 15.9679,20.8333 13.4599,20.8333 Z" transform=""/><path fill="#eae2c1" stroke="none" d="M 34.0983,48.8916 C 31.6873,49.2146 29.9753,51.3556 30.1763,53.7296 C 29.5503,53.5296 28.8723,53.4566 28.1773,53.5496 C 25.6913,53.8826 23.9433,56.1476 24.2723,58.6076 C 24.6023,61.0676 26.8853,62.7926 29.3703,62.4586 C 31.7823,62.1356 33.4933,59.9946 33.2933,57.6206 C 33.9183,57.8206 34.5963,57.8936 35.2923,57.8006 C 37.7773,57.4676 39.5263,55.2026 39.1963,52.7426 C 38.8673,50.2826 36.5843,48.5586 34.0983,48.8916 Z" transform=""/><path fill="#c9c2a6" stroke="none" d="M 5.12902,25.4106 C 3.54002,26.1106 2.43102,27.6836 2.43102,29.5156 C 2.43102,31.9976 4.46402,34.0106 6.97202,34.0106 C 8.74102,34.0106 10.267,33.0066 11.015,31.5456 C 7.89502,31.0596 5.45602,28.5486 5.12902,25.4106 Z" style="opacity: 0.5" opacity="0.5" transform=""/><path fill="#c9c2a6" stroke="none" d="M 27.2784,53.7114 C 25.6894,54.4114 24.5804,55.9844 24.5804,57.8164 C 24.5804,60.2984 26.6134,62.3114 29.1214,62.3114 C 30.8904,62.3114 32.4164,61.3074 33.1644,59.8464 C 30.0454,59.3594 27.6054,56.8494 27.2784,53.7114 Z" style="opacity: 0.5" opacity="0.5" transform=""/><path fill="#eae2c1" stroke="none" d="M 51.7456,26.3707 C 53.4756,25.8677 54.2456,26.9097 54.6136,27.4547 C 54.9816,28.0007 54.7716,28.2107 58.5986,34.6967 S 69.9776,48.4237 69.9776,48.4237 C 70.7146,49.1567 70.9156,49.2267 73.0746,51.3177 C 75.2346,53.4087 73.3216,56.5757 70.8976,56.3757 C 68.4716,56.1747 63.4826,51.1637 60.9126,48.8557 C 58.3416,46.5477 54.9796,41.8927 52.6556,38.2537 C 50.3316,34.6157 49.6896,29.6527 49.6566,29.3427 C 49.6246,29.0327 50.0156,26.8727 51.7456,26.3707 Z" transform=""/><path fill="#c9c2a6" stroke="none" d="M 73.0232,54.66 C 70.5982,54.459 65.6092,49.448 63.0382,47.14 C 60.4682,44.832 57.1062,40.177 54.7812,36.539 C 52.4582,32.9 51.8152,27.937 51.7832,27.628 C 51.7672,27.478 51.8522,26.893 52.1392,26.273 C 52.0562,26.291 51.9722,26.31 51.8842,26.336 C 50.1542,26.838 49.7632,28.998 49.7952,29.307 C 49.8282,29.617 50.4702,34.58 52.7942,38.218 C 55.1182,41.857 58.4802,46.512 61.0502,48.82 C 63.6212,51.128 68.6102,56.139 71.0352,56.34 C 72.2782,56.443 73.3832,55.659 73.8772,54.59 C 73.6042,54.657 73.3172,54.685 73.0232,54.66 Z" style="opacity: 0.5" opacity="0.5" transform=""/><path fill="#eae2c1" stroke="none" d="M 55.1265,20.8333 C 52.6935,20.8333 50.7135,22.7283 50.5965,25.1083 C 50.0025,24.8263 49.3405,24.6643 48.6385,24.6643 C 46.1305,24.6643 44.0975,26.6763 44.0975,29.1593 C 44.0975,31.6413 46.1305,33.6533 48.6385,33.6533 C 51.0715,33.6533 53.0515,31.7583 53.1685,29.3793 C 53.7625,29.6603 54.4245,29.8223 55.1265,29.8223 C 57.6345,29.8223 59.6675,27.8103 59.6675,25.3283 S 57.6345,20.8333 55.1265,20.8333 Z" transform=""/><path fill="#eae2c1" stroke="none" d="M 75.7649,48.8916 C 73.3539,49.2146 71.6419,51.3556 71.8429,53.7296 C 71.2169,53.5296 70.5389,53.4566 69.8439,53.5496 C 67.3579,53.8826 65.6099,56.1476 65.9389,58.6076 C 66.2689,61.0676 68.5519,62.7926 71.0369,62.4586 C 73.4489,62.1356 75.1599,59.9946 74.9599,57.6206 C 75.5849,57.8206 76.2629,57.8936 76.9589,57.8006 C 79.4439,57.4676 81.1929,55.2026 80.8629,52.7426 C 80.5339,50.2826 78.2509,48.5586 75.7649,48.8916 Z" transform=""/><path fill="#c9c2a6" stroke="none" d="M 46.7957,25.4106 C 45.2067,26.1106 44.0977,27.6836 44.0977,29.5156 C 44.0977,31.9976 46.1307,34.0106 48.6387,34.0106 C 50.4077,34.0106 51.9337,33.0066 52.6817,31.5456 C 49.5617,31.0596 47.1227,28.5486 46.7957,25.4106 Z" style="opacity: 0.5" opacity="0.5" transform=""/><path fill="#c9c2a6" stroke="none" d="M 68.945,53.7114 C 67.356,54.4114 66.247,55.9844 66.247,57.8164 C 66.247,60.2984 68.28,62.3114 70.788,62.3114 C 72.557,62.3114 74.083,61.3074 74.831,59.8464 C 71.712,59.3594 69.272,56.8494 68.945,53.7114 Z" style="opacity: 0.5" opacity="0.5" transform=""/><path fill="#eae2c1" stroke="none" d="M 93.4123,26.3707 C 95.1423,25.8677 95.9123,26.9097 96.2803,27.4547 C 96.6483,28.0007 96.4383,28.2107 100.265,34.6967 S 111.644,48.4237 111.644,48.4237 C 112.381,49.1567 112.582,49.2267 114.741,51.3177 C 116.901,53.4087 114.988,56.5757 112.564,56.3757 C 110.138,56.1747 105.149,51.1637 102.579,48.8557 C 100.008,46.5477 96.6463,41.8927 94.3223,38.2537 C 91.9983,34.6157 91.3563,29.6527 91.3233,29.3427 C 91.2913,29.0327 91.6823,26.8727 93.4123,26.3707 Z" transform=""/><path fill="#c9c2a6" stroke="none" d="M 114.69,54.66 C 112.265,54.459 107.276,49.448 104.705,47.14 C 102.135,44.832 98.7728,40.177 96.4478,36.539 C 94.1248,32.9 93.4818,27.937 93.4498,27.628 C 93.4338,27.478 93.5188,26.893 93.8058,26.273 C 93.7228,26.291 93.6388,26.31 93.5508,26.336 C 91.8208,26.838 91.4298,28.998 91.4618,29.307 C 91.4948,29.617 92.1368,34.58 94.4608,38.218 C 96.7848,41.857 100.147,46.512 102.717,48.82 C 105.288,51.128 110.277,56.139 112.702,56.34 C 113.945,56.443 115.05,55.659 115.544,54.59 C 115.271,54.657 114.984,54.685 114.69,54.66 Z" style="opacity: 0.5" opacity="0.5" transform=""/><path fill="#eae2c1" stroke="none" d="M 96.7932,20.8333 C 94.3602,20.8333 92.3802,22.7283 92.2632,25.1083 C 91.6692,24.8263 91.0072,24.6643 90.3052,24.6643 C 87.7972,24.6643 85.7642,26.6763 85.7642,29.1593 C 85.7642,31.6413 87.7972,33.6533 90.3052,33.6533 C 92.7382,33.6533 94.7182,31.7583 94.8352,29.3793 C 95.4292,29.6603 96.0912,29.8223 96.7932,29.8223 C 99.3012,29.8223 101.334,27.8103 101.334,25.3283 S 99.3012,20.8333 96.7932,20.8333 Z" transform=""/><path fill="#eae2c1" stroke="none" d="M 117.432,48.8916 C 115.021,49.2146 113.309,51.3556 113.51,53.7296 C 112.884,53.5296 112.206,53.4566 111.511,53.5496 C 109.025,53.8826 107.277,56.1476 107.606,58.6076 C 107.936,61.0676 110.219,62.7926 112.704,62.4586 C 115.116,62.1356 116.827,59.9946 116.627,57.6206 C 117.252,57.8206 117.93,57.8936 118.626,57.8006 C 121.111,57.4676 122.86,55.2026 122.53,52.7426 C 122.201,50.2826 119.918,48.5586 117.432,48.8916 Z" transform=""/><path fill="#c9c2a6" stroke="none" d="M 88.4624,25.4106 C 86.8734,26.1106 85.7644,27.6836 85.7644,29.5156 C 85.7644,31.9976 87.7974,34.0106 90.3054,34.0106 C 92.0744,34.0106 93.6004,33.0066 94.3484,31.5456 C 91.2284,31.0596 88.7894,28.5486 88.4624,25.4106 Z" style="opacity: 0.5" opacity="0.5" transform=""/><path fill="#c9c2a6" stroke="none" d="M 110.612,53.7114 C 109.023,54.4114 107.914,55.9844 107.914,57.8164 C 107.914,60.2984 109.947,62.3114 112.455,62.3114 C 114.224,62.3114 115.75,61.3074 116.498,59.8464 C 113.379,59.3594 110.939,56.8494 110.612,53.7114 Z" style="opacity: 0.5" opacity="0.5" transform=""/><path fill="#eae2c1" stroke="none" d="M 135.079,26.3707 C 136.809,25.8677 137.579,26.9097 137.947,27.4547 C 138.315,28.0007 138.105,28.2107 141.932,34.6967 C 145.759,41.1827 153.311,48.4237 153.311,48.4237 C 154.048,49.1567 154.249,49.2267 156.408,51.3177 C 158.568,53.4087 156.655,56.5757 154.231,56.3757 C 151.805,56.1747 146.816,51.1637 144.246,48.8557 C 141.675,46.5477 138.313,41.8927 135.989,38.2537 C 133.665,34.6157 133.023,29.6527 132.99,29.3427 C 132.958,29.0327 133.349,26.8727 135.079,26.3707 Z" transform=""/><path fill="#c9c2a6" stroke="none" d="M 156.357,54.66 C 153.932,54.459 148.943,49.448 146.372,47.14 C 143.802,44.832 140.44,40.177 138.115,36.539 C 135.792,32.9 135.149,27.937 135.117,27.628 C 135.101,27.478 135.186,26.893 135.473,26.273 C 135.39,26.291 135.306,26.31 135.218,26.336 C 133.488,26.838 133.097,28.998 133.129,29.307 C 133.162,29.617 133.804,34.58 136.128,38.218 C 138.452,41.857 141.814,46.512 144.384,48.82 C 146.955,51.128 151.944,56.139 154.369,56.34 C 155.612,56.443 156.717,55.659 157.211,54.59 C 156.938,54.657 156.651,54.685 156.357,54.66 Z" style="opacity: 0.5" opacity="0.5" transform=""/><path fill="#eae2c1" stroke="none" d="M 138.46,20.8333 C 136.027,20.8333 134.047,22.7283 133.93,25.1083 C 133.336,24.8263 132.674,24.6643 131.972,24.6643 C 129.464,24.6643 127.431,26.6763 127.431,29.1593 C 127.431,31.6413 129.464,33.6533 131.972,33.6533 C 134.405,33.6533 136.385,31.7583 136.502,29.3793 C 137.096,29.6603 137.758,29.8223 138.46,29.8223 C 140.968,29.8223 143.001,27.8103 143.001,25.3283 S 140.968,20.8333 138.46,20.8333 Z" transform=""/><path fill="#eae2c1" stroke="none" d="M 159.098,48.8916 C 156.687,49.2146 154.975,51.3556 155.176,53.7296 C 154.55,53.5296 153.872,53.4566 153.177,53.5496 C 150.691,53.8826 148.943,56.1476 149.272,58.6076 C 149.602,61.0676 151.885,62.7926 154.37,62.4586 C 156.782,62.1356 158.493,59.9946 158.293,57.6206 C 158.918,57.8206 159.596,57.8936 160.292,57.8006 C 162.777,57.4676 164.526,55.2026 164.196,52.7426 C 163.867,50.2826 161.584,48.5586 159.098,48.8916 Z" transform=""/><path fill="#c9c2a6" stroke="none" d="M 130.129,25.4106 C 128.54,26.1106 127.431,27.6836 127.431,29.5156 C 127.431,31.9976 129.464,34.0106 131.972,34.0106 C 133.741,34.0106 135.267,33.0066 136.015,31.5456 C 132.895,31.0596 130.456,28.5486 130.129,25.4106 Z" style="opacity: 0.5" opacity="0.5" transform=""/><path fill="#c9c2a6" stroke="none" d="M 152.278,53.7114 C 150.689,54.4114 149.58,55.9844 149.58,57.8164 C 149.58,60.2984 151.613,62.3114 154.121,62.3114 C 155.89,62.3114 157.416,61.3074 158.164,59.8464 C 155.045,59.3594 152.605,56.8494 152.278,53.7114 Z" style="opacity: 0.5" opacity="0.5" transform=""/></svg>