<svg xmlns="http://www.w3.org/2000/svg" version="1.1" width="350" height="116.66666666666666" viewBox="0 0 350 116.66666666666666"><defs/><ellipse cx="31.029583803287853" cy="86.24706739464852" rx="7.695011418519151" ry="3.138625437034931" fill="#42a8c1" stroke="none" transform="rotate(203.0782 31.029582103819777 86.24706819578805)" r="NaN"/><path fill="#49bbd6" stroke="none" d="M 17.0399,74.7322 C 16.1389,66.5872 19.4419,61.7992 23.5349,61.5572 C 29.0659,61.2322 32.4139,64.7122 31.5219,72.2412 C 31.3389,73.7772 39.0199,85.3172 31.6539,88.9902 C 25.3489,90.7192 4.40191,91.7702 4.00091,83.9432 C 3.50991,74.3562 17.1619,75.8312 17.0399,74.7322 Z" transform=""/><ellipse cx="6.409830792731479" cy="84.68601379639594" rx="6.409831126494749" ry="2.614554001523765" fill="#49bbd6" stroke="none" transform="rotate(180.2177 6.409830986859095 84.68601384316236)" r="NaN"/><path fill="#42a8c1" stroke="none" d="M 23.4805,87.4166 C 19.8695,85.1766 17.7025,82.4976 16.7885,83.9706 C 16.2035,84.9136 14.4175,88.1316 15.2105,89.9586 C 18.5585,90.3776 23.8895,90.7266 27.0735,90.3906 C 26.1885,89.3756 24.9565,88.3326 23.4805,87.4166 Z" transform=""/><path fill="#49bbd6" stroke="none" d="M 27.4267,92.9493 C 28.8027,91.9253 27.5157,88.5203 24.5507,85.3443 S 18.0667,80.4253 16.6907,81.4493 C 15.3147,82.4743 16.6017,85.8783 19.5667,89.0543 S 26.0507,93.9733 27.4267,92.9493 Z" transform=""/><path fill="#42a8c1" stroke="none" d="M 19.259,70.2522 C 19.921,68.5422 21.737,67.6012 23.314,68.1512 C 24.044,68.4062 25.885,68.3042 26.701,68.0792 C 28.315,67.6352 30.057,68.6942 30.592,70.4442 C 31.127,72.1932 30.253,73.9712 28.639,74.4162 C 27.145,74.8272 22.434,74.8732 20.915,74.3442 C 19.338,73.7942 18.597,71.9622 19.259,70.2522 Z" transform=""/><path fill="#49bbd6" stroke="none" d="M 19.7263,69.5629 C 20.3663,67.9099 22.1203,67.0019 23.6443,67.5329 C 24.3503,67.7789 26.1293,67.6809 26.9173,67.4639 C 28.4773,67.0349 30.1603,68.0569 30.6773,69.7479 S 30.3493,73.1569 28.7903,73.5859 C 27.3463,73.9839 25.8323,73.8019 25.2003,72.3319 C 24.5063,73.8689 22.7943,74.0289 21.3263,73.5169 C 19.8023,72.9859 19.0863,71.2149 19.7263,69.5629 Z" transform=""/><ellipse cx="22.764519071943518" cy="68.00991798043026" rx="0.4825564069740806" ry="0.6704900307817475" fill="#304454" stroke="none" transform="rotate(1.5587 22.764520239689247 68.00991791778704)" r="NaN"/><ellipse cx="27.556603552420682" cy="68.00991798043026" rx="0.4825564069740806" ry="0.6704900307817475" fill="#304454" stroke="none" transform="rotate(1.5587 27.556604447706597 68.00991791778704)" r="NaN"/><path fill="#42a8c1" stroke="none" d="M 27.016,70.1187 S 26.271,71.3817 25.416,71.3847 C 24.9,71.3847 24.556,70.8677 24.243,70.0667 C 23.883,69.1437 25.092,68.8067 25.65,68.8267 C 26.158,68.8457 27.35,68.9647 27.016,70.1187 Z" transform=""/><path fill="#49bbd6" stroke="none" d="M 27.0495,69.3781 S 26.4645,70.7231 25.6165,70.8301 C 25.1045,70.8941 24.7005,70.4231 24.2905,69.6661 C 23.8205,68.7941 24.9795,68.3121 25.5355,68.2631 C 26.0415,68.2201 27.2405,68.1921 27.0495,69.3781 Z" transform=""/><path fill="none" stroke="#378fa4" d="M 28.644,71.3798 S 30.687,72.8648 31.367,74.1398" style="stroke-miterlimit: 10" stroke-miterlimit="10" transform=""/><path fill="none" stroke="#378fa4" d="M 29.4926,70.5432 S 31.9216,71.2092 33.0146,72.1662" style="stroke-miterlimit: 10" stroke-miterlimit="10" transform=""/><path fill="none" stroke="#378fa4" d="M 21.6066,71.0999 S 19.5636,72.5849 18.8836,73.8599" style="stroke-miterlimit: 10" stroke-miterlimit="10" transform=""/><path fill="none" stroke="#378fa4" d="M 20.758,70.2633 S 18.329,70.9293 17.236,71.8863" style="stroke-miterlimit: 10" stroke-miterlimit="10" transform=""/><path fill="#49bbd6" stroke="none" d="M 28.1396,90.5928 C 27.4546,89.7938 26.6756,89.4398 26.3986,89.8018 C 26.2386,90.0118 26.2866,90.4178 26.4856,90.8768 C 25.9706,90.4688 25.4886,90.3418 25.2836,90.6108 C 25.1656,90.7658 25.1636,91.0288 25.2466,91.3378 C 24.6946,90.8618 24.1606,90.6948 23.9416,90.9818 C 23.6646,91.3438 23.9956,92.2858 24.6796,93.0858 C 25.3646,93.8848 26.1446,94.2388 26.4206,93.8768 C 26.5396,93.7218 26.5406,93.4588 26.4576,93.1488 C 27.0106,93.6248 27.5446,93.7918 27.7636,93.5058 C 27.9236,93.2948 27.8746,92.8888 27.6766,92.4298 C 28.1916,92.8388 28.6726,92.9658 28.8786,92.6968 C 29.1546,92.3338 28.8246,91.3918 28.1396,90.5928 Z" transform=""/><path fill="#42a8c1" stroke="none" d="M 37.8019,86.9743 C 37.0099,86.2813 36.1879,86.0413 35.9659,86.4403 C 35.8369,86.6703 35.9429,87.0663 36.2049,87.4913 C 35.6369,87.1603 35.1419,87.1033 34.9769,87.3993 C 34.8819,87.5693 34.9179,87.8303 35.0449,88.1243 C 34.4299,87.7323 33.8779,87.6433 33.7019,87.9583 C 33.4799,88.3563 33.9409,89.2413 34.7329,89.9353 C 35.5249,90.6283 36.3469,90.8683 36.5689,90.4693 C 36.6639,90.2993 36.6279,90.0393 36.5009,89.7443 C 37.1159,90.1363 37.6689,90.2263 37.8439,89.9103 C 37.9729,89.6803 37.8669,89.2843 37.6059,88.8593 C 38.1729,89.1903 38.6679,89.2473 38.8329,88.9513 C 39.0549,88.5523 38.5939,87.6673 37.8019,86.9743 Z" transform=""/><ellipse cx="69.91847269217673" cy="86.24706739464852" rx="7.695011418519151" ry="3.138625437034931" fill="#42a8c1" stroke="none" transform="rotate(203.0782 69.91847099270866 86.24706819578805)" r="NaN"/><path fill="#49bbd6" stroke="none" d="M 55.9288,74.7322 C 55.0278,66.5872 58.3308,61.7992 62.4238,61.5572 C 67.9548,61.2322 71.3028,64.7122 70.4108,72.2412 C 70.2278,73.7772 77.9088,85.3172 70.5428,88.9902 C 64.2378,90.7192 43.2908,91.7702 42.8898,83.9432 C 42.3988,74.3562 56.0508,75.8312 55.9288,74.7322 Z" transform=""/><ellipse cx="45.29871968162036" cy="84.68601379639594" rx="6.409831126494749" ry="2.614554001523765" fill="#49bbd6" stroke="none" transform="rotate(180.2177 45.29871987574798 84.68601384316236)" r="NaN"/><path fill="#42a8c1" stroke="none" d="M 62.3694,87.4166 C 58.7584,85.1766 56.5914,82.4976 55.6774,83.9706 C 55.0924,84.9136 53.3064,88.1316 54.0994,89.9586 C 57.4474,90.3776 62.7784,90.7266 65.9624,90.3906 C 65.0774,89.3756 63.8454,88.3326 62.3694,87.4166 Z" transform=""/><path fill="#49bbd6" stroke="none" d="M 66.3156,92.9493 C 67.6916,91.9253 66.4046,88.5203 63.4396,85.3443 S 56.9556,80.4253 55.5796,81.4493 C 54.2036,82.4743 55.4906,85.8783 58.4556,89.0543 S 64.9396,93.9733 66.3156,92.9493 Z" transform=""/><path fill="#42a8c1" stroke="none" d="M 58.1478,70.2522 C 58.8098,68.5422 60.6258,67.6012 62.2028,68.1512 C 62.9328,68.4062 64.7738,68.3042 65.5898,68.0792 C 67.2038,67.6352 68.9458,68.6942 69.4808,70.4442 C 70.0158,72.1932 69.1418,73.9712 67.5278,74.4162 C 66.0338,74.8272 61.3228,74.8732 59.8038,74.3442 C 58.2268,73.7942 57.4858,71.9622 58.1478,70.2522 Z" transform=""/><path fill="#49bbd6" stroke="none" d="M 58.6152,69.5629 C 59.2552,67.9099 61.0092,67.0019 62.5332,67.5329 C 63.2392,67.7789 65.0182,67.6809 65.8062,67.4639 C 67.3662,67.0349 69.0492,68.0569 69.5662,69.7479 C 70.0832,71.4389 69.2382,73.1569 67.6792,73.5859 C 66.2352,73.9839 64.7212,73.8019 64.0892,72.3319 C 63.3952,73.8689 61.6832,74.0289 60.2152,73.5169 C 58.6912,72.9859 57.9752,71.2149 58.6152,69.5629 Z" transform=""/><ellipse cx="61.6534079608324" cy="68.00991798043026" rx="0.4825564069740806" ry="0.6704900307817475" fill="#304454" stroke="none" transform="rotate(1.5587 61.65340912857813 68.00991791778704)" r="NaN"/><ellipse cx="66.44549244130957" cy="68.00991798043026" rx="0.4825564069740806" ry="0.6704900307817475" fill="#304454" stroke="none" transform="rotate(1.5587 66.44549333659549 68.00991791778704)" r="NaN"/><path fill="#42a8c1" stroke="none" d="M 65.9049,70.1187 S 65.1599,71.3817 64.3049,71.3847 C 63.7889,71.3847 63.4449,70.8677 63.1319,70.0667 C 62.7719,69.1437 63.9809,68.8067 64.5389,68.8267 C 65.0469,68.8457 66.2389,68.9647 65.9049,70.1187 Z" transform=""/><path fill="#49bbd6" stroke="none" d="M 65.9384,69.3781 S 65.3534,70.7231 64.5054,70.8301 C 63.9934,70.8941 63.5894,70.4231 63.1794,69.6661 C 62.7094,68.7941 63.8684,68.3121 64.4244,68.2631 C 64.9304,68.2201 66.1294,68.1921 65.9384,69.3781 Z" transform=""/><path fill="none" stroke="#378fa4" d="M 67.5329,71.3798 S 69.5759,72.8648 70.2559,74.1398" style="stroke-miterlimit: 10" stroke-miterlimit="10" transform=""/><path fill="none" stroke="#378fa4" d="M 68.3815,70.5432 S 70.8105,71.2092 71.9035,72.1662" style="stroke-miterlimit: 10" stroke-miterlimit="10" transform=""/><path fill="none" stroke="#378fa4" d="M 60.4955,71.0999 S 58.4525,72.5849 57.7725,73.8599" style="stroke-miterlimit: 10" stroke-miterlimit="10" transform=""/><path fill="none" stroke="#378fa4" d="M 59.6468,70.2633 S 57.2178,70.9293 56.1248,71.8863" style="stroke-miterlimit: 10" stroke-miterlimit="10" transform=""/><path fill="#49bbd6" stroke="none" d="M 67.0285,90.5928 C 66.3435,89.7938 65.5645,89.4398 65.2875,89.8018 C 65.1275,90.0118 65.1755,90.4178 65.3745,90.8768 C 64.8595,90.4688 64.3775,90.3418 64.1725,90.6108 C 64.0545,90.7658 64.0525,91.0288 64.1355,91.3378 C 63.5835,90.8618 63.0495,90.6948 62.8305,90.9818 C 62.5535,91.3438 62.8845,92.2858 63.5685,93.0858 C 64.2535,93.8848 65.0335,94.2388 65.3095,93.8768 C 65.4285,93.7218 65.4295,93.4588 65.3465,93.1488 C 65.8995,93.6248 66.4335,93.7918 66.6525,93.5058 C 66.8125,93.2948 66.7635,92.8888 66.5655,92.4298 C 67.0805,92.8388 67.5615,92.9658 67.7675,92.6968 C 68.0435,92.3338 67.7135,91.3918 67.0285,90.5928 Z" transform=""/><path fill="#42a8c1" stroke="none" d="M 76.6908,86.9743 C 75.8988,86.2813 75.0768,86.0413 74.8548,86.4403 C 74.7258,86.6703 74.8318,87.0663 75.0938,87.4913 C 74.5258,87.1603 74.0308,87.1033 73.8658,87.3993 C 73.7708,87.5693 73.8068,87.8303 73.9338,88.1243 C 73.3188,87.7323 72.7668,87.6433 72.5908,87.9583 C 72.3688,88.3563 72.8298,89.2413 73.6218,89.9353 C 74.4138,90.6283 75.2358,90.8683 75.4578,90.4693 C 75.5528,90.2993 75.5168,90.0393 75.3898,89.7443 C 76.0048,90.1363 76.5578,90.2263 76.7328,89.9103 C 76.8618,89.6803 76.7558,89.2843 76.4948,88.8593 C 77.0618,89.1903 77.5568,89.2473 77.7218,88.9513 C 77.9438,88.5523 77.4828,87.6673 76.6908,86.9743 Z" transform=""/><ellipse cx="108.80736158106562" cy="86.24706739464852" rx="7.695011418519151" ry="3.138625437034931" fill="#42a8c1" stroke="none" transform="rotate(203.0782 108.80735988159755 86.24706819578805)" r="NaN"/><path fill="#49bbd6" stroke="none" d="M 94.8177,74.7322 C 93.9167,66.5872 97.2197,61.7992 101.313,61.5572 C 106.844,61.2322 110.192,64.7122 109.3,72.2412 C 109.117,73.7772 116.798,85.3172 109.432,88.9902 C 103.127,90.7192 82.1797,91.7702 81.7787,83.9432 C 81.2877,74.3562 94.9397,75.8312 94.8177,74.7322 Z" transform=""/><ellipse cx="84.18760857050925" cy="84.68601379639594" rx="6.409831126494749" ry="2.614554001523765" fill="#49bbd6" stroke="none" transform="rotate(180.2177 84.18760876463686 84.68601384316236)" r="NaN"/><path fill="#42a8c1" stroke="none" d="M 101.258,87.4166 C 97.6473,85.1766 95.4803,82.4976 94.5663,83.9706 C 93.9813,84.9136 92.1953,88.1316 92.9883,89.9586 C 96.3363,90.3776 101.667,90.7266 104.851,90.3906 C 103.966,89.3756 102.734,88.3326 101.258,87.4166 Z" transform=""/><path fill="#49bbd6" stroke="none" d="M 105.204,92.9493 C 106.58,91.9253 105.293,88.5203 102.328,85.3443 S 95.8445,80.4253 94.4685,81.4493 C 93.0925,82.4743 94.3795,85.8783 97.3445,89.0543 S 103.828,93.9733 105.204,92.9493 Z" transform=""/><path fill="#42a8c1" stroke="none" d="M 97.0367,70.2522 C 97.6987,68.5422 99.5147,67.6012 101.092,68.1512 C 101.822,68.4062 103.663,68.3042 104.479,68.0792 C 106.093,67.6352 107.835,68.6942 108.37,70.4442 C 108.905,72.1932 108.031,73.9712 106.417,74.4162 C 104.923,74.8272 100.212,74.8732 98.6927,74.3442 C 97.1157,73.7942 96.3747,71.9622 97.0367,70.2522 Z" transform=""/><path fill="#49bbd6" stroke="none" d="M 97.5041,69.5629 C 98.1441,67.9099 99.8981,67.0019 101.422,67.5329 C 102.128,67.7789 103.907,67.6809 104.695,67.4639 C 106.255,67.0349 107.938,68.0569 108.455,69.7479 C 108.972,71.4389 108.127,73.1569 106.568,73.5859 C 105.124,73.9839 103.61,73.8019 102.978,72.3319 C 102.284,73.8689 100.572,74.0289 99.1041,73.5169 C 97.5801,72.9859 96.8641,71.2149 97.5041,69.5629 Z" transform=""/><ellipse cx="100.54229684972128" cy="68.00991798043026" rx="0.4825564069740806" ry="0.6704900307817475" fill="#304454" stroke="none" transform="rotate(1.5587 100.54229801746702 68.00991791778704)" r="NaN"/><ellipse cx="105.33438133019845" cy="68.00991798043026" rx="0.4825564069740806" ry="0.6704900307817475" fill="#304454" stroke="none" transform="rotate(1.5587 105.33438222548438 68.00991791778704)" r="NaN"/><path fill="#42a8c1" stroke="none" d="M 104.794,70.1187 S 104.049,71.3817 103.194,71.3847 C 102.678,71.3847 102.334,70.8677 102.021,70.0667 C 101.661,69.1437 102.87,68.8067 103.428,68.8267 C 103.936,68.8457 105.128,68.9647 104.794,70.1187 Z" transform=""/><path fill="#49bbd6" stroke="none" d="M 104.827,69.3781 S 104.242,70.7231 103.394,70.8301 C 102.882,70.8941 102.478,70.4231 102.068,69.6661 C 101.598,68.7941 102.757,68.3121 103.313,68.2631 C 103.819,68.2201 105.018,68.1921 104.827,69.3781 Z" transform=""/><path fill="none" stroke="#378fa4" d="M 106.422,71.3798 S 108.465,72.8648 109.145,74.1398" style="stroke-miterlimit: 10" stroke-miterlimit="10" transform=""/><path fill="none" stroke="#378fa4" d="M 107.27,70.5432 S 109.699,71.2092 110.792,72.1662" style="stroke-miterlimit: 10" stroke-miterlimit="10" transform=""/><path fill="none" stroke="#378fa4" d="M 99.3843,71.0999 S 97.3413,72.5849 96.6613,73.8599" style="stroke-miterlimit: 10" stroke-miterlimit="10" transform=""/><path fill="none" stroke="#378fa4" d="M 98.5357,70.2633 S 96.1067,70.9293 95.0137,71.8863" style="stroke-miterlimit: 10" stroke-miterlimit="10" transform=""/><path fill="#49bbd6" stroke="none" d="M 105.917,90.5928 C 105.232,89.7938 104.453,89.4398 104.176,89.8018 C 104.016,90.0118 104.064,90.4178 104.263,90.8768 C 103.748,90.4688 103.266,90.3418 103.061,90.6108 C 102.943,90.7658 102.941,91.0288 103.024,91.3378 C 102.472,90.8618 101.938,90.6948 101.719,90.9818 C 101.442,91.3438 101.773,92.2858 102.457,93.0858 C 103.142,93.8848 103.922,94.2388 104.198,93.8768 C 104.317,93.7218 104.318,93.4588 104.235,93.1488 C 104.788,93.6248 105.322,93.7918 105.541,93.5058 C 105.701,93.2948 105.652,92.8888 105.454,92.4298 C 105.969,92.8388 106.45,92.9658 106.656,92.6968 C 106.932,92.3338 106.602,91.3918 105.917,90.5928 Z" transform=""/><path fill="#42a8c1" stroke="none" d="M 115.58,86.9743 C 114.788,86.2813 113.966,86.0413 113.744,86.4403 C 113.615,86.6703 113.721,87.0663 113.983,87.4913 C 113.415,87.1603 112.92,87.1033 112.755,87.3993 C 112.66,87.5693 112.696,87.8303 112.823,88.1243 C 112.208,87.7323 111.656,87.6433 111.48,87.9583 C 111.258,88.3563 111.719,89.2413 112.511,89.9353 C 113.303,90.6283 114.125,90.8683 114.347,90.4693 C 114.442,90.2993 114.406,90.0393 114.279,89.7443 C 114.894,90.1363 115.447,90.2263 115.622,89.9103 C 115.751,89.6803 115.645,89.2843 115.384,88.8593 C 115.951,89.1903 116.446,89.2473 116.611,88.9513 C 116.833,88.5523 116.372,87.6673 115.58,86.9743 Z" transform=""/><ellipse cx="147.6962504699545" cy="86.24706739464852" rx="7.695011418519151" ry="3.138625437034931" fill="#42a8c1" stroke="none" transform="rotate(203.0782 147.69624877048642 86.24706819578805)" r="NaN"/><path fill="#49bbd6" stroke="none" d="M 133.707,74.7322 C 132.806,66.5872 136.109,61.7992 140.202,61.5572 C 145.733,61.2322 149.081,64.7122 148.189,72.2412 C 148.006,73.7772 155.687,85.3172 148.321,88.9902 C 142.016,90.7192 121.069,91.7702 120.668,83.9432 C 120.177,74.3562 133.829,75.8312 133.707,74.7322 Z" transform=""/><ellipse cx="123.07649745939813" cy="84.68601379639594" rx="6.409831126494749" ry="2.614554001523765" fill="#49bbd6" stroke="none" transform="rotate(180.2177 123.07649765352573 84.68601384316236)" r="NaN"/><path fill="#42a8c1" stroke="none" d="M 140.147,87.4166 C 136.536,85.1766 134.369,82.4976 133.455,83.9706 C 132.87,84.9136 131.084,88.1316 131.877,89.9586 C 135.225,90.3776 140.556,90.7266 143.74,90.3906 C 142.855,89.3756 141.623,88.3326 140.147,87.4166 Z" transform=""/><path fill="#49bbd6" stroke="none" d="M 144.093,92.9493 C 145.469,91.9253 144.182,88.5203 141.217,85.3443 S 134.733,80.4253 133.357,81.4493 C 131.981,82.4743 133.268,85.8783 136.233,89.0543 S 142.717,93.9733 144.093,92.9493 Z" transform=""/><path fill="#42a8c1" stroke="none" d="M 135.926,70.2522 C 136.588,68.5422 138.404,67.6012 139.981,68.1512 C 140.711,68.4062 142.552,68.3042 143.368,68.0792 C 144.982,67.6352 146.724,68.6942 147.259,70.4442 C 147.794,72.1932 146.92,73.9712 145.306,74.4162 C 143.812,74.8272 139.101,74.8732 137.582,74.3442 C 136.005,73.7942 135.264,71.9622 135.926,70.2522 Z" transform=""/><path fill="#49bbd6" stroke="none" d="M 136.393,69.5629 C 137.033,67.9099 138.787,67.0019 140.311,67.5329 C 141.017,67.7789 142.796,67.6809 143.584,67.4639 C 145.144,67.0349 146.827,68.0569 147.344,69.7479 S 147.016,73.1569 145.457,73.5859 C 144.013,73.9839 142.499,73.8019 141.867,72.3319 C 141.173,73.8689 139.461,74.0289 137.993,73.5169 C 136.469,72.9859 135.753,71.2149 136.393,69.5629 Z" transform=""/><ellipse cx="139.43118573861017" cy="68.00991798043026" rx="0.4825564069740806" ry="0.6704900307817475" fill="#304454" stroke="none" transform="rotate(1.5587 139.4311869063559 68.00991791778704)" r="NaN"/><ellipse cx="144.22327021908734" cy="68.00991798043026" rx="0.4825564069740806" ry="0.6704900307817475" fill="#304454" stroke="none" transform="rotate(1.5587 144.22327111437323 68.00991791778704)" r="NaN"/><path fill="#42a8c1" stroke="none" d="M 143.683,70.1187 S 142.938,71.3817 142.083,71.3847 C 141.567,71.3847 141.223,70.8677 140.91,70.0667 C 140.55,69.1437 141.759,68.8067 142.317,68.8267 C 142.825,68.8457 144.017,68.9647 143.683,70.1187 Z" transform=""/><path fill="#49bbd6" stroke="none" d="M 143.716,69.3781 S 143.131,70.7231 142.283,70.8301 C 141.771,70.8941 141.367,70.4231 140.957,69.6661 C 140.487,68.7941 141.646,68.3121 142.202,68.2631 C 142.708,68.2201 143.907,68.1921 143.716,69.3781 Z" transform=""/><path fill="none" stroke="#378fa4" d="M 145.311,71.3798 S 147.354,72.8648 148.034,74.1398" style="stroke-miterlimit: 10" stroke-miterlimit="10" transform=""/><path fill="none" stroke="#378fa4" d="M 146.159,70.5432 S 148.588,71.2092 149.681,72.1662" style="stroke-miterlimit: 10" stroke-miterlimit="10" transform=""/><path fill="none" stroke="#378fa4" d="M 138.273,71.0999 S 136.23,72.5849 135.55,73.8599" style="stroke-miterlimit: 10" stroke-miterlimit="10" transform=""/><path fill="none" stroke="#378fa4" d="M 137.425,70.2633 S 134.996,70.9293 133.903,71.8863" style="stroke-miterlimit: 10" stroke-miterlimit="10" transform=""/><path fill="#49bbd6" stroke="none" d="M 144.806,90.5928 C 144.121,89.7938 143.342,89.4398 143.065,89.8018 C 142.905,90.0118 142.953,90.4178 143.152,90.8768 C 142.637,90.4688 142.155,90.3418 141.95,90.6108 C 141.832,90.7658 141.83,91.0288 141.913,91.3378 C 141.361,90.8618 140.827,90.6948 140.608,90.9818 C 140.331,91.3438 140.662,92.2858 141.346,93.0858 C 142.031,93.8848 142.811,94.2388 143.087,93.8768 C 143.206,93.7218 143.207,93.4588 143.124,93.1488 C 143.677,93.6248 144.211,93.7918 144.43,93.5058 C 144.59,93.2948 144.541,92.8888 144.343,92.4298 C 144.858,92.8388 145.339,92.9658 145.545,92.6968 C 145.821,92.3338 145.491,91.3918 144.806,90.5928 Z" transform=""/><path fill="#42a8c1" stroke="none" d="M 154.469,86.9743 C 153.677,86.2813 152.855,86.0413 152.633,86.4403 C 152.504,86.6703 152.61,87.0663 152.872,87.4913 C 152.304,87.1603 151.809,87.1033 151.644,87.3993 C 151.549,87.5693 151.585,87.8303 151.712,88.1243 C 151.097,87.7323 150.545,87.6433 150.369,87.9583 C 150.147,88.3563 150.608,89.2413 151.4,89.9353 C 152.192,90.6283 153.014,90.8683 153.236,90.4693 C 153.331,90.2993 153.295,90.0393 153.168,89.7443 C 153.783,90.1363 154.336,90.2263 154.511,89.9103 C 154.64,89.6803 154.534,89.2843 154.273,88.8593 C 154.84,89.1903 155.335,89.2473 155.5,88.9513 C 155.722,88.5523 155.261,87.6673 154.469,86.9743 Z" transform=""/><ellipse cx="186.5851393588434" cy="86.24706739464852" rx="7.695011418519151" ry="3.138625437034931" fill="#42a8c1" stroke="none" transform="rotate(203.0782 186.58513765937533 86.24706819578805)" r="NaN"/><path fill="#49bbd6" stroke="none" d="M 172.595,74.7322 C 171.694,66.5872 174.997,61.7992 179.09,61.5572 C 184.621,61.2322 187.969,64.7122 187.077,72.2412 C 186.894,73.7772 194.575,85.3172 187.209,88.9902 C 180.904,90.7192 159.957,91.7702 159.556,83.9432 C 159.065,74.3562 172.717,75.8312 172.595,74.7322 Z" transform=""/><ellipse cx="161.965386348287" cy="84.68601379639594" rx="6.409831126494749" ry="2.614554001523765" fill="#49bbd6" stroke="none" transform="rotate(180.2177 161.96538654241465 84.68601384316236)" r="NaN"/><path fill="#42a8c1" stroke="none" d="M 179.036,87.4166 C 175.425,85.1766 173.258,82.4976 172.344,83.9706 C 171.759,84.9136 169.973,88.1316 170.766,89.9586 C 174.114,90.3776 179.445,90.7266 182.629,90.3906 C 181.744,89.3756 180.512,88.3326 179.036,87.4166 Z" transform=""/><path fill="#49bbd6" stroke="none" d="M 182.982,92.9493 C 184.358,91.9253 183.071,88.5203 180.106,85.3443 S 173.622,80.4253 172.246,81.4493 C 170.87,82.4743 172.157,85.8783 175.122,89.0543 S 181.606,93.9733 182.982,92.9493 Z" transform=""/><path fill="#42a8c1" stroke="none" d="M 174.815,70.2522 C 175.477,68.5422 177.293,67.6012 178.87,68.1512 C 179.6,68.4062 181.441,68.3042 182.257,68.0792 C 183.871,67.6352 185.613,68.6942 186.148,70.4442 C 186.683,72.1932 185.809,73.9712 184.195,74.4162 C 182.701,74.8272 177.99,74.8732 176.471,74.3442 C 174.894,73.7942 174.153,71.9622 174.815,70.2522 Z" transform=""/><path fill="#49bbd6" stroke="none" d="M 175.282,69.5629 C 175.922,67.9099 177.676,67.0019 179.2,67.5329 C 179.906,67.7789 181.685,67.6809 182.473,67.4639 C 184.033,67.0349 185.716,68.0569 186.233,69.7479 S 185.905,73.1569 184.346,73.5859 C 182.902,73.9839 181.388,73.8019 180.756,72.3319 C 180.062,73.8689 178.35,74.0289 176.882,73.5169 C 175.358,72.9859 174.642,71.2149 175.282,69.5629 Z" transform=""/><ellipse cx="178.32007462749905" cy="68.00991798043026" rx="0.4825564069740806" ry="0.6704900307817475" fill="#304454" stroke="none" transform="rotate(1.5587 178.3200757952448 68.00991791778704)" r="NaN"/><ellipse cx="183.11215910797623" cy="68.00991798043026" rx="0.4825564069740806" ry="0.6704900307817475" fill="#304454" stroke="none" transform="rotate(1.5587 183.11216000326215 68.00991791778704)" r="NaN"/><path fill="#42a8c1" stroke="none" d="M 182.572,70.1187 S 181.827,71.3817 180.972,71.3847 C 180.456,71.3847 180.112,70.8677 179.799,70.0667 C 179.439,69.1437 180.648,68.8067 181.206,68.8267 C 181.714,68.8457 182.906,68.9647 182.572,70.1187 Z" transform=""/><path fill="#49bbd6" stroke="none" d="M 182.605,69.3781 S 182.02,70.7231 181.172,70.8301 C 180.66,70.8941 180.256,70.4231 179.846,69.6661 C 179.376,68.7941 180.535,68.3121 181.091,68.2631 C 181.597,68.2201 182.796,68.1921 182.605,69.3781 Z" transform=""/><path fill="none" stroke="#378fa4" d="M 184.2,71.3798 S 186.243,72.8648 186.923,74.1398" style="stroke-miterlimit: 10" stroke-miterlimit="10" transform=""/><path fill="none" stroke="#378fa4" d="M 185.048,70.5432 S 187.477,71.2092 188.57,72.1662" style="stroke-miterlimit: 10" stroke-miterlimit="10" transform=""/><path fill="none" stroke="#378fa4" d="M 177.162,71.0999 S 175.119,72.5849 174.439,73.8599" style="stroke-miterlimit: 10" stroke-miterlimit="10" transform=""/><path fill="none" stroke="#378fa4" d="M 176.314,70.2633 S 173.885,70.9293 172.792,71.8863" style="stroke-miterlimit: 10" stroke-miterlimit="10" transform=""/><path fill="#49bbd6" stroke="none" d="M 183.695,90.5928 C 183.01,89.7938 182.231,89.4398 181.954,89.8018 C 181.794,90.0118 181.842,90.4178 182.041,90.8768 C 181.526,90.4688 181.044,90.3418 180.839,90.6108 C 180.721,90.7658 180.719,91.0288 180.802,91.3378 C 180.25,90.8618 179.716,90.6948 179.497,90.9818 C 179.22,91.3438 179.551,92.2858 180.235,93.0858 C 180.92,93.8848 181.7,94.2388 181.976,93.8768 C 182.095,93.7218 182.096,93.4588 182.013,93.1488 C 182.566,93.6248 183.1,93.7918 183.319,93.5058 C 183.479,93.2948 183.43,92.8888 183.232,92.4298 C 183.747,92.8388 184.228,92.9658 184.434,92.6968 C 184.71,92.3338 184.38,91.3918 183.695,90.5928 Z" transform=""/><path fill="#42a8c1" stroke="none" d="M 193.357,86.9743 C 192.565,86.2813 191.743,86.0413 191.521,86.4403 C 191.392,86.6703 191.498,87.0663 191.76,87.4913 C 191.192,87.1603 190.697,87.1033 190.532,87.3993 C 190.437,87.5693 190.473,87.8303 190.6,88.1243 C 189.985,87.7323 189.433,87.6433 189.257,87.9583 C 189.035,88.3563 189.496,89.2413 190.288,89.9353 C 191.08,90.6283 191.902,90.8683 192.124,90.4693 C 192.219,90.2993 192.183,90.0393 192.056,89.7443 C 192.671,90.1363 193.224,90.2263 193.399,89.9103 C 193.528,89.6803 193.422,89.2843 193.161,88.8593 C 193.728,89.1903 194.223,89.2473 194.388,88.9513 C 194.61,88.5523 194.149,87.6673 193.357,86.9743 Z" transform=""/><ellipse cx="225.47402824773226" cy="86.24706739464852" rx="7.695011418519151" ry="3.138625437034931" fill="#42a8c1" stroke="none" transform="rotate(203.0782 225.4740265482642 86.24706819578805)" r="NaN"/><path fill="#49bbd6" stroke="none" d="M 211.484,74.7322 C 210.583,66.5872 213.886,61.7992 217.979,61.5572 C 223.51,61.2322 226.858,64.7122 225.966,72.2412 C 225.783,73.7772 233.464,85.3172 226.098,88.9902 C 219.793,90.7192 198.846,91.7702 198.445,83.9432 C 197.954,74.3562 211.606,75.8312 211.484,74.7322 Z" transform=""/><ellipse cx="200.85427523717587" cy="84.68601379639594" rx="6.409831126494749" ry="2.614554001523765" fill="#49bbd6" stroke="none" transform="rotate(180.2177 200.8542754313035 84.68601384316236)" r="NaN"/><path fill="#42a8c1" stroke="none" d="M 217.925,87.4166 C 214.314,85.1766 212.147,82.4976 211.233,83.9706 C 210.648,84.9136 208.862,88.1316 209.655,89.9586 C 213.003,90.3776 218.334,90.7266 221.518,90.3906 C 220.633,89.3756 219.401,88.3326 217.925,87.4166 Z" transform=""/><path fill="#49bbd6" stroke="none" d="M 221.871,92.9493 C 223.247,91.9253 221.96,88.5203 218.995,85.3443 S 212.511,80.4253 211.135,81.4493 C 209.759,82.4743 211.046,85.8783 214.011,89.0543 S 220.495,93.9733 221.871,92.9493 Z" transform=""/><path fill="#42a8c1" stroke="none" d="M 213.703,70.2522 C 214.365,68.5422 216.181,67.6012 217.758,68.1512 C 218.488,68.4062 220.329,68.3042 221.145,68.0792 C 222.759,67.6352 224.501,68.6942 225.036,70.4442 C 225.571,72.1932 224.697,73.9712 223.083,74.4162 C 221.589,74.8272 216.878,74.8732 215.359,74.3442 C 213.782,73.7942 213.041,71.9622 213.703,70.2522 Z" transform=""/><path fill="#49bbd6" stroke="none" d="M 214.171,69.5629 C 214.811,67.9099 216.565,67.0019 218.089,67.5329 C 218.795,67.7789 220.574,67.6809 221.362,67.4639 C 222.922,67.0349 224.605,68.0569 225.122,69.7479 S 224.794,73.1569 223.235,73.5859 C 221.791,73.9839 220.277,73.8019 219.645,72.3319 C 218.951,73.8689 217.239,74.0289 215.771,73.5169 C 214.247,72.9859 213.531,71.2149 214.171,69.5629 Z" transform=""/><ellipse cx="217.2089635163879" cy="68.00991798043026" rx="0.4825564069740806" ry="0.6704900307817475" fill="#304454" stroke="none" transform="rotate(1.5587 217.20896468413366 68.00991791778704)" r="NaN"/><ellipse cx="222.00104799686508" cy="68.00991798043026" rx="0.4825564069740806" ry="0.6704900307817475" fill="#304454" stroke="none" transform="rotate(1.5587 222.001048892151 68.00991791778704)" r="NaN"/><path fill="#42a8c1" stroke="none" d="M 221.46,70.1187 S 220.715,71.3817 219.86,71.3847 C 219.344,71.3847 219,70.8677 218.687,70.0667 C 218.327,69.1437 219.536,68.8067 220.094,68.8267 C 220.602,68.8457 221.794,68.9647 221.46,70.1187 Z" transform=""/><path fill="#49bbd6" stroke="none" d="M 221.494,69.3781 S 220.909,70.7231 220.061,70.8301 C 219.549,70.8941 219.145,70.4231 218.735,69.6661 C 218.265,68.7941 219.424,68.3121 219.98,68.2631 C 220.486,68.2201 221.685,68.1921 221.494,69.3781 Z" transform=""/><path fill="none" stroke="#378fa4" d="M 223.088,71.3798 S 225.131,72.8648 225.811,74.1398" style="stroke-miterlimit: 10" stroke-miterlimit="10" transform=""/><path fill="none" stroke="#378fa4" d="M 223.937,70.5432 S 226.366,71.2092 227.459,72.1662" style="stroke-miterlimit: 10" stroke-miterlimit="10" transform=""/><path fill="none" stroke="#378fa4" d="M 216.051,71.0999 S 214.008,72.5849 213.328,73.8599" style="stroke-miterlimit: 10" stroke-miterlimit="10" transform=""/><path fill="none" stroke="#378fa4" d="M 215.202,70.2633 S 212.773,70.9293 211.68,71.8863" style="stroke-miterlimit: 10" stroke-miterlimit="10" transform=""/><path fill="#49bbd6" stroke="none" d="M 222.584,90.5928 C 221.899,89.7938 221.12,89.4398 220.843,89.8018 C 220.683,90.0118 220.731,90.4178 220.93,90.8768 C 220.415,90.4688 219.933,90.3418 219.728,90.6108 C 219.61,90.7658 219.608,91.0288 219.691,91.3378 C 219.139,90.8618 218.605,90.6948 218.386,90.9818 C 218.109,91.3438 218.44,92.2858 219.124,93.0858 C 219.809,93.8848 220.589,94.2388 220.865,93.8768 C 220.984,93.7218 220.985,93.4588 220.902,93.1488 C 221.455,93.6248 221.989,93.7918 222.208,93.5058 C 222.368,93.2948 222.319,92.8888 222.121,92.4298 C 222.636,92.8388 223.117,92.9658 223.323,92.6968 C 223.599,92.3338 223.269,91.3918 222.584,90.5928 Z" transform=""/><path fill="#42a8c1" stroke="none" d="M 232.246,86.9743 C 231.454,86.2813 230.632,86.0413 230.41,86.4403 C 230.281,86.6703 230.387,87.0663 230.649,87.4913 C 230.081,87.1603 229.586,87.1033 229.421,87.3993 C 229.326,87.5693 229.362,87.8303 229.489,88.1243 C 228.874,87.7323 228.322,87.6433 228.146,87.9583 C 227.924,88.3563 228.385,89.2413 229.177,89.9353 C 229.969,90.6283 230.791,90.8683 231.013,90.4693 C 231.108,90.2993 231.072,90.0393 230.945,89.7443 C 231.56,90.1363 232.113,90.2263 232.288,89.9103 C 232.417,89.6803 232.311,89.2843 232.05,88.8593 C 232.617,89.1903 233.112,89.2473 233.277,88.9513 C 233.499,88.5523 233.038,87.6673 232.246,86.9743 Z" transform=""/><ellipse cx="264.36291713662115" cy="86.24706739464852" rx="7.695011418519151" ry="3.138625437034931" fill="#42a8c1" stroke="none" transform="rotate(203.0782 264.3629154371531 86.24706819578805)" r="NaN"/><path fill="#49bbd6" stroke="none" d="M 250.373,74.7322 C 249.472,66.5872 252.775,61.7992 256.868,61.5572 C 262.399,61.2322 265.747,64.7122 264.855,72.2412 C 264.672,73.7772 272.353,85.3172 264.987,88.9902 C 258.682,90.7192 237.735,91.7702 237.334,83.9432 C 236.843,74.3562 250.495,75.8312 250.373,74.7322 Z" transform=""/><ellipse cx="239.74316412606478" cy="84.68601379639594" rx="6.409831126494749" ry="2.614554001523765" fill="#49bbd6" stroke="none" transform="rotate(180.2177 239.74316432019242 84.68601384316236)" r="NaN"/><path fill="#42a8c1" stroke="none" d="M 256.814,87.4166 C 253.203,85.1766 251.036,82.4976 250.122,83.9706 C 249.537,84.9136 247.751,88.1316 248.544,89.9586 C 251.892,90.3776 257.223,90.7266 260.407,90.3906 C 259.522,89.3756 258.29,88.3326 256.814,87.4166 Z" transform=""/><path fill="#49bbd6" stroke="none" d="M 260.76,92.9493 C 262.136,91.9253 260.849,88.5203 257.884,85.3443 S 251.4,80.4253 250.024,81.4493 C 248.648,82.4743 249.935,85.8783 252.9,89.0543 S 259.384,93.9733 260.76,92.9493 Z" transform=""/><path fill="#42a8c1" stroke="none" d="M 252.592,70.2522 C 253.254,68.5422 255.07,67.6012 256.647,68.1512 C 257.377,68.4062 259.218,68.3042 260.034,68.0792 C 261.648,67.6352 263.39,68.6942 263.925,70.4442 C 264.46,72.1932 263.586,73.9712 261.972,74.4162 C 260.478,74.8272 255.767,74.8732 254.248,74.3442 C 252.671,73.7942 251.93,71.9622 252.592,70.2522 Z" transform=""/><path fill="#49bbd6" stroke="none" d="M 253.06,69.5629 C 253.7,67.9099 255.454,67.0019 256.978,67.5329 C 257.684,67.7789 259.463,67.6809 260.251,67.4639 C 261.811,67.0349 263.494,68.0569 264.011,69.7479 S 263.683,73.1569 262.124,73.5859 C 260.68,73.9839 259.166,73.8019 258.534,72.3319 C 257.84,73.8689 256.128,74.0289 254.66,73.5169 C 253.136,72.9859 252.42,71.2149 253.06,69.5629 Z" transform=""/><ellipse cx="256.09785240527685" cy="68.00991798043026" rx="0.4825564069740806" ry="0.6704900307817475" fill="#304454" stroke="none" transform="rotate(1.5587 256.0978535730226 68.00991791778704)" r="NaN"/><ellipse cx="260.88993688575397" cy="68.00991798043026" rx="0.4825564069740806" ry="0.6704900307817475" fill="#304454" stroke="none" transform="rotate(1.5587 260.8899377810399 68.00991791778704)" r="NaN"/><path fill="#42a8c1" stroke="none" d="M 260.349,70.1187 S 259.604,71.3817 258.749,71.3847 C 258.233,71.3847 257.889,70.8677 257.576,70.0667 C 257.216,69.1437 258.425,68.8067 258.983,68.8267 C 259.491,68.8457 260.683,68.9647 260.349,70.1187 Z" transform=""/><path fill="#49bbd6" stroke="none" d="M 260.383,69.3781 S 259.798,70.7231 258.95,70.8301 C 258.438,70.8941 258.034,70.4231 257.624,69.6661 C 257.154,68.7941 258.313,68.3121 258.869,68.2631 C 259.375,68.2201 260.574,68.1921 260.383,69.3781 Z" transform=""/><path fill="none" stroke="#378fa4" d="M 261.977,71.3798 S 264.02,72.8648 264.7,74.1398" style="stroke-miterlimit: 10" stroke-miterlimit="10" transform=""/><path fill="none" stroke="#378fa4" d="M 262.826,70.5432 S 265.255,71.2092 266.348,72.1662" style="stroke-miterlimit: 10" stroke-miterlimit="10" transform=""/><path fill="none" stroke="#378fa4" d="M 254.94,71.0999 S 252.897,72.5849 252.217,73.8599" style="stroke-miterlimit: 10" stroke-miterlimit="10" transform=""/><path fill="none" stroke="#378fa4" d="M 254.091,70.2633 S 251.662,70.9293 250.569,71.8863" style="stroke-miterlimit: 10" stroke-miterlimit="10" transform=""/><path fill="#49bbd6" stroke="none" d="M 261.473,90.5928 C 260.788,89.7938 260.009,89.4398 259.732,89.8018 C 259.572,90.0118 259.62,90.4178 259.819,90.8768 C 259.304,90.4688 258.822,90.3418 258.617,90.6108 C 258.499,90.7658 258.497,91.0288 258.58,91.3378 C 258.028,90.8618 257.494,90.6948 257.275,90.9818 C 256.998,91.3438 257.329,92.2858 258.013,93.0858 C 258.698,93.8848 259.478,94.2388 259.754,93.8768 C 259.873,93.7218 259.874,93.4588 259.791,93.1488 C 260.344,93.6248 260.878,93.7918 261.097,93.5058 C 261.257,93.2948 261.208,92.8888 261.01,92.4298 C 261.525,92.8388 262.006,92.9658 262.212,92.6968 C 262.488,92.3338 262.158,91.3918 261.473,90.5928 Z" transform=""/><path fill="#42a8c1" stroke="none" d="M 271.135,86.9743 C 270.343,86.2813 269.521,86.0413 269.299,86.4403 C 269.17,86.6703 269.276,87.0663 269.538,87.4913 C 268.97,87.1603 268.475,87.1033 268.31,87.3993 C 268.215,87.5693 268.251,87.8303 268.378,88.1243 C 267.763,87.7323 267.211,87.6433 267.035,87.9583 C 266.813,88.3563 267.274,89.2413 268.066,89.9353 C 268.858,90.6283 269.68,90.8683 269.902,90.4693 C 269.997,90.2993 269.961,90.0393 269.834,89.7443 C 270.449,90.1363 271.002,90.2263 271.177,89.9103 C 271.306,89.6803 271.2,89.2843 270.939,88.8593 C 271.506,89.1903 272.001,89.2473 272.166,88.9513 C 272.388,88.5523 271.927,87.6673 271.135,86.9743 Z" transform=""/><ellipse cx="303.25180602551" cy="86.24706739464852" rx="7.695011418519151" ry="3.138625437034931" fill="#42a8c1" stroke="none" transform="rotate(203.0782 303.25180432604196 86.24706819578805)" r="NaN"/><path fill="#49bbd6" stroke="none" d="M 289.262,74.7322 C 288.361,66.5872 291.664,61.7992 295.757,61.5572 C 301.288,61.2322 304.636,64.7122 303.744,72.2412 C 303.561,73.7772 311.242,85.3172 303.876,88.9902 C 297.571,90.7192 276.624,91.7702 276.223,83.9432 C 275.732,74.3562 289.384,75.8312 289.262,74.7322 Z" transform=""/><ellipse cx="278.63205301495367" cy="84.68601379639594" rx="6.409831126494749" ry="2.614554001523765" fill="#49bbd6" stroke="none" transform="rotate(180.2177 278.6320532090813 84.68601384316236)" r="NaN"/><path fill="#42a8c1" stroke="none" d="M 295.703,87.4166 C 292.092,85.1766 289.925,82.4976 289.011,83.9706 C 288.426,84.9136 286.64,88.1316 287.433,89.9586 C 290.781,90.3776 296.112,90.7266 299.296,90.3906 C 298.411,89.3756 297.179,88.3326 295.703,87.4166 Z" transform=""/><path fill="#49bbd6" stroke="none" d="M 299.649,92.9493 C 301.025,91.9253 299.738,88.5203 296.773,85.3443 S 290.289,80.4253 288.913,81.4493 C 287.537,82.4743 288.824,85.8783 291.789,89.0543 S 298.273,93.9733 299.649,92.9493 Z" transform=""/><path fill="#42a8c1" stroke="none" d="M 291.481,70.2522 C 292.143,68.5422 293.959,67.6012 295.536,68.1512 C 296.266,68.4062 298.107,68.3042 298.923,68.0792 C 300.537,67.6352 302.279,68.6942 302.814,70.4442 C 303.349,72.1932 302.475,73.9712 300.861,74.4162 C 299.367,74.8272 294.656,74.8732 293.137,74.3442 C 291.56,73.7942 290.819,71.9622 291.481,70.2522 Z" transform=""/><path fill="#49bbd6" stroke="none" d="M 291.949,69.5629 C 292.589,67.9099 294.343,67.0019 295.867,67.5329 C 296.573,67.7789 298.352,67.6809 299.14,67.4639 C 300.7,67.0349 302.383,68.0569 302.9,69.7479 S 302.572,73.1569 301.013,73.5859 C 299.569,73.9839 298.055,73.8019 297.423,72.3319 C 296.729,73.8689 295.017,74.0289 293.549,73.5169 C 292.025,72.9859 291.309,71.2149 291.949,69.5629 Z" transform=""/><ellipse cx="294.9867412941657" cy="68.00991798043026" rx="0.4825564069740806" ry="0.6704900307817475" fill="#304454" stroke="none" transform="rotate(1.5587 294.98674246191143 68.00991791778704)" r="NaN"/><ellipse cx="299.7788257746429" cy="68.00991798043026" rx="0.4825564069740806" ry="0.6704900307817475" fill="#304454" stroke="none" transform="rotate(1.5587 299.7788266699288 68.00991791778704)" r="NaN"/><path fill="#42a8c1" stroke="none" d="M 299.238,70.1187 S 298.493,71.3817 297.638,71.3847 C 297.122,71.3847 296.778,70.8677 296.465,70.0667 C 296.105,69.1437 297.314,68.8067 297.872,68.8267 C 298.38,68.8457 299.572,68.9647 299.238,70.1187 Z" transform=""/><path fill="#49bbd6" stroke="none" d="M 299.272,69.3781 S 298.687,70.7231 297.839,70.8301 C 297.327,70.8941 296.923,70.4231 296.513,69.6661 C 296.043,68.7941 297.202,68.3121 297.758,68.2631 C 298.264,68.2201 299.463,68.1921 299.272,69.3781 Z" transform=""/><path fill="none" stroke="#378fa4" d="M 300.866,71.3798 S 302.909,72.8648 303.589,74.1398" style="stroke-miterlimit: 10" stroke-miterlimit="10" transform=""/><path fill="none" stroke="#378fa4" d="M 301.715,70.5432 S 304.144,71.2092 305.237,72.1662" style="stroke-miterlimit: 10" stroke-miterlimit="10" transform=""/><path fill="none" stroke="#378fa4" d="M 293.829,71.0999 S 291.786,72.5849 291.106,73.8599" style="stroke-miterlimit: 10" stroke-miterlimit="10" transform=""/><path fill="none" stroke="#378fa4" d="M 292.98,70.2633 S 290.551,70.9293 289.458,71.8863" style="stroke-miterlimit: 10" stroke-miterlimit="10" transform=""/><path fill="#49bbd6" stroke="none" d="M 300.362,90.5928 C 299.677,89.7938 298.898,89.4398 298.621,89.8018 C 298.461,90.0118 298.509,90.4178 298.708,90.8768 C 298.193,90.4688 297.711,90.3418 297.506,90.6108 C 297.388,90.7658 297.386,91.0288 297.469,91.3378 C 296.917,90.8618 296.383,90.6948 296.164,90.9818 C 295.887,91.3438 296.218,92.2858 296.902,93.0858 C 297.587,93.8848 298.367,94.2388 298.643,93.8768 C 298.762,93.7218 298.763,93.4588 298.68,93.1488 C 299.233,93.6248 299.767,93.7918 299.986,93.5058 C 300.146,93.2948 300.097,92.8888 299.899,92.4298 C 300.414,92.8388 300.895,92.9658 301.101,92.6968 C 301.377,92.3338 301.047,91.3918 300.362,90.5928 Z" transform=""/><path fill="#42a8c1" stroke="none" d="M 310.024,86.9743 C 309.232,86.2813 308.41,86.0413 308.188,86.4403 C 308.059,86.6703 308.165,87.0663 308.427,87.4913 C 307.859,87.1603 307.364,87.1033 307.199,87.3993 C 307.104,87.5693 307.14,87.8303 307.267,88.1243 C 306.652,87.7323 306.1,87.6433 305.924,87.9583 C 305.702,88.3563 306.163,89.2413 306.955,89.9353 C 307.747,90.6283 308.569,90.8683 308.791,90.4693 C 308.886,90.2993 308.85,90.0393 308.723,89.7443 C 309.338,90.1363 309.891,90.2263 310.066,89.9103 C 310.195,89.6803 310.089,89.2843 309.828,88.8593 C 310.395,89.1903 310.89,89.2473 311.055,88.9513 C 311.277,88.5523 310.816,87.6673 310.024,86.9743 Z" transform=""/><ellipse cx="31.029583803287853" cy="47.35817850575963" rx="7.695011418519151" ry="3.138625437034931" fill="#42a8c1" stroke="none" transform="rotate(203.0782 31.029582103819777 47.35817930689915)" r="NaN"/><path fill="#49bbd6" stroke="none" d="M 17.0399,35.8433 C 16.1389,27.6983 19.4419,22.9103 23.5349,22.6683 C 29.0659,22.3433 32.4139,25.8233 31.5219,33.3523 C 31.3389,34.8883 39.0199,46.4283 31.6539,50.1013 C 25.3489,51.8303 4.40191,52.8813 4.00091,45.0543 C 3.50991,35.4673 17.1619,36.9423 17.0399,35.8433 Z" transform=""/><ellipse cx="6.409830792731479" cy="45.797124907507055" rx="6.409831126494749" ry="2.614554001523765" fill="#49bbd6" stroke="none" transform="rotate(180.2177 6.409830986859095 45.79712495427347)" r="NaN"/><path fill="#42a8c1" stroke="none" d="M 23.4805,48.5277 C 19.8695,46.2877 17.7025,43.6087 16.7885,45.0817 C 16.2035,46.0247 14.4175,49.2427 15.2105,51.0697 C 18.5585,51.4887 23.8895,51.8377 27.0735,51.5017 C 26.1885,50.4867 24.9565,49.4437 23.4805,48.5277 Z" transform=""/><path fill="#49bbd6" stroke="none" d="M 27.4267,54.0604 C 28.8027,53.0364 27.5157,49.6314 24.5507,46.4554 S 18.0667,41.5364 16.6907,42.5604 C 15.3147,43.5854 16.6017,46.9894 19.5667,50.1654 S 26.0507,55.0844 27.4267,54.0604 Z" transform=""/><path fill="#42a8c1" stroke="none" d="M 19.259,31.3633 C 19.921,29.6533 21.737,28.7123 23.314,29.2623 C 24.044,29.5173 25.885,29.4153 26.701,29.1903 C 28.315,28.7463 30.057,29.8053 30.592,31.5553 C 31.127,33.3043 30.253,35.0823 28.639,35.5273 C 27.145,35.9383 22.434,35.9843 20.915,35.4553 C 19.338,34.9053 18.597,33.0733 19.259,31.3633 Z" transform=""/><path fill="#49bbd6" stroke="none" d="M 19.7263,30.674 C 20.3663,29.021 22.1203,28.113 23.6443,28.644 C 24.3503,28.89 26.1293,28.792 26.9173,28.575 C 28.4773,28.146 30.1603,29.168 30.6773,30.859 S 30.3493,34.268 28.7903,34.697 C 27.3463,35.095 25.8323,34.913 25.2003,33.443 C 24.5063,34.98 22.7943,35.14 21.3263,34.628 C 19.8023,34.097 19.0863,32.326 19.7263,30.674 Z" transform=""/><ellipse cx="22.764519071943518" cy="29.12102909154137" rx="0.4825564069740806" ry="0.6704900307817475" fill="#304454" stroke="none" transform="rotate(1.5587 22.764520239689247 29.121029028898146)" r="NaN"/><ellipse cx="27.556603552420682" cy="29.12102909154137" rx="0.4825564069740806" ry="0.6704900307817475" fill="#304454" stroke="none" transform="rotate(1.5587 27.556604447706597 29.121029028898146)" r="NaN"/><path fill="#42a8c1" stroke="none" d="M 27.016,31.2298 S 26.271,32.4928 25.416,32.4958 C 24.9,32.4958 24.556,31.9788 24.243,31.1778 C 23.883,30.2548 25.092,29.9178 25.65,29.9378 C 26.158,29.9568 27.35,30.0758 27.016,31.2298 Z" transform=""/><path fill="#49bbd6" stroke="none" d="M 27.0495,30.4892 S 26.4645,31.8342 25.6165,31.9412 C 25.1045,32.0052 24.7005,31.5342 24.2905,30.7772 C 23.8205,29.9052 24.9795,29.4232 25.5355,29.3742 C 26.0415,29.3312 27.2405,29.3032 27.0495,30.4892 Z" transform=""/><path fill="none" stroke="#378fa4" d="M 28.644,32.4909 S 30.687,33.9759 31.367,35.2509" style="stroke-miterlimit: 10" stroke-miterlimit="10" transform=""/><path fill="none" stroke="#378fa4" d="M 29.4926,31.6543 S 31.9216,32.3203 33.0146,33.2773" style="stroke-miterlimit: 10" stroke-miterlimit="10" transform=""/><path fill="none" stroke="#378fa4" d="M 21.6066,32.211 S 19.5636,33.696 18.8836,34.971" style="stroke-miterlimit: 10" stroke-miterlimit="10" transform=""/><path fill="none" stroke="#378fa4" d="M 20.758,31.3744 S 18.329,32.0404 17.236,32.9974" style="stroke-miterlimit: 10" stroke-miterlimit="10" transform=""/><path fill="#49bbd6" stroke="none" d="M 28.1396,51.7039 C 27.4546,50.9049 26.6756,50.5509 26.3986,50.9129 C 26.2386,51.1229 26.2866,51.5289 26.4856,51.9879 C 25.9706,51.5799 25.4886,51.4529 25.2836,51.7219 C 25.1656,51.8769 25.1636,52.1399 25.2466,52.4489 C 24.6946,51.9729 24.1606,51.8059 23.9416,52.0929 C 23.6646,52.4549 23.9956,53.3969 24.6796,54.1969 C 25.3646,54.9959 26.1446,55.3499 26.4206,54.9879 C 26.5396,54.8329 26.5406,54.5699 26.4576,54.2599 C 27.0106,54.7359 27.5446,54.9029 27.7636,54.6169 C 27.9236,54.4059 27.8746,53.9999 27.6766,53.5409 C 28.1916,53.9499 28.6726,54.0769 28.8786,53.8079 C 29.1546,53.4449 28.8246,52.5029 28.1396,51.7039 Z" transform=""/><path fill="#42a8c1" stroke="none" d="M 37.8019,48.0854 C 37.0099,47.3924 36.1879,47.1524 35.9659,47.5514 C 35.8369,47.7814 35.9429,48.1774 36.2049,48.6024 C 35.6369,48.2714 35.1419,48.2144 34.9769,48.5104 C 34.8819,48.6804 34.9179,48.9414 35.0449,49.2354 C 34.4299,48.8434 33.8779,48.7544 33.7019,49.0694 C 33.4799,49.4674 33.9409,50.3524 34.7329,51.0464 C 35.5249,51.7394 36.3469,51.9794 36.5689,51.5804 C 36.6639,51.4104 36.6279,51.1504 36.5009,50.8554 C 37.1159,51.2474 37.6689,51.3374 37.8439,51.0214 C 37.9729,50.7914 37.8669,50.3954 37.6059,49.9704 C 38.1729,50.3014 38.6679,50.3584 38.8329,50.0624 C 39.0549,49.6634 38.5939,48.7784 37.8019,48.0854 Z" transform=""/><ellipse cx="69.91847269217673" cy="47.35817850575963" rx="7.695011418519151" ry="3.138625437034931" fill="#42a8c1" stroke="none" transform="rotate(203.0782 69.91847099270866 47.35817930689915)" r="NaN"/><path fill="#49bbd6" stroke="none" d="M 55.9288,35.8433 C 55.0278,27.6983 58.3308,22.9103 62.4238,22.6683 C 67.9548,22.3433 71.3028,25.8233 70.4108,33.3523 C 70.2278,34.8883 77.9088,46.4283 70.5428,50.1013 C 64.2378,51.8303 43.2908,52.8813 42.8898,45.0543 C 42.3988,35.4673 56.0508,36.9423 55.9288,35.8433 Z" transform=""/><ellipse cx="45.29871968162036" cy="45.797124907507055" rx="6.409831126494749" ry="2.614554001523765" fill="#49bbd6" stroke="none" transform="rotate(180.2177 45.29871987574798 45.79712495427347)" r="NaN"/><path fill="#42a8c1" stroke="none" d="M 62.3694,48.5277 C 58.7584,46.2877 56.5914,43.6087 55.6774,45.0817 C 55.0924,46.0247 53.3064,49.2427 54.0994,51.0697 C 57.4474,51.4887 62.7784,51.8377 65.9624,51.5017 C 65.0774,50.4867 63.8454,49.4437 62.3694,48.5277 Z" transform=""/><path fill="#49bbd6" stroke="none" d="M 66.3156,54.0604 C 67.6916,53.0364 66.4046,49.6314 63.4396,46.4554 S 56.9556,41.5364 55.5796,42.5604 C 54.2036,43.5854 55.4906,46.9894 58.4556,50.1654 S 64.9396,55.0844 66.3156,54.0604 Z" transform=""/><path fill="#42a8c1" stroke="none" d="M 58.1478,31.3633 C 58.8098,29.6533 60.6258,28.7123 62.2028,29.2623 C 62.9328,29.5173 64.7738,29.4153 65.5898,29.1903 C 67.2038,28.7463 68.9458,29.8053 69.4808,31.5553 C 70.0158,33.3043 69.1418,35.0823 67.5278,35.5273 C 66.0338,35.9383 61.3228,35.9843 59.8038,35.4553 C 58.2268,34.9053 57.4858,33.0733 58.1478,31.3633 Z" transform=""/><path fill="#49bbd6" stroke="none" d="M 58.6152,30.674 C 59.2552,29.021 61.0092,28.113 62.5332,28.644 C 63.2392,28.89 65.0182,28.792 65.8062,28.575 C 67.3662,28.146 69.0492,29.168 69.5662,30.859 C 70.0832,32.55 69.2382,34.268 67.6792,34.697 C 66.2352,35.095 64.7212,34.913 64.0892,33.443 C 63.3952,34.98 61.6832,35.14 60.2152,34.628 C 58.6912,34.097 57.9752,32.326 58.6152,30.674 Z" transform=""/><ellipse cx="61.6534079608324" cy="29.12102909154137" rx="0.4825564069740806" ry="0.6704900307817475" fill="#304454" stroke="none" transform="rotate(1.5587 61.65340912857813 29.121029028898146)" r="NaN"/><ellipse cx="66.44549244130957" cy="29.12102909154137" rx="0.4825564069740806" ry="0.6704900307817475" fill="#304454" stroke="none" transform="rotate(1.5587 66.44549333659549 29.121029028898146)" r="NaN"/><path fill="#42a8c1" stroke="none" d="M 65.9049,31.2298 S 65.1599,32.4928 64.3049,32.4958 C 63.7889,32.4958 63.4449,31.9788 63.1319,31.1778 C 62.7719,30.2548 63.9809,29.9178 64.5389,29.9378 C 65.0469,29.9568 66.2389,30.0758 65.9049,31.2298 Z" transform=""/><path fill="#49bbd6" stroke="none" d="M 65.9384,30.4892 S 65.3534,31.8342 64.5054,31.9412 C 63.9934,32.0052 63.5894,31.5342 63.1794,30.7772 C 62.7094,29.9052 63.8684,29.4232 64.4244,29.3742 C 64.9304,29.3312 66.1294,29.3032 65.9384,30.4892 Z" transform=""/><path fill="none" stroke="#378fa4" d="M 67.5329,32.4909 S 69.5759,33.9759 70.2559,35.2509" style="stroke-miterlimit: 10" stroke-miterlimit="10" transform=""/><path fill="none" stroke="#378fa4" d="M 68.3815,31.6543 S 70.8105,32.3203 71.9035,33.2773" style="stroke-miterlimit: 10" stroke-miterlimit="10" transform=""/><path fill="none" stroke="#378fa4" d="M 60.4955,32.211 S 58.4525,33.696 57.7725,34.971" style="stroke-miterlimit: 10" stroke-miterlimit="10" transform=""/><path fill="none" stroke="#378fa4" d="M 59.6468,31.3744 S 57.2178,32.0404 56.1248,32.9974" style="stroke-miterlimit: 10" stroke-miterlimit="10" transform=""/><path fill="#49bbd6" stroke="none" d="M 67.0285,51.7039 C 66.3435,50.9049 65.5645,50.5509 65.2875,50.9129 C 65.1275,51.1229 65.1755,51.5289 65.3745,51.9879 C 64.8595,51.5799 64.3775,51.4529 64.1725,51.7219 C 64.0545,51.8769 64.0525,52.1399 64.1355,52.4489 C 63.5835,51.9729 63.0495,51.8059 62.8305,52.0929 C 62.5535,52.4549 62.8845,53.3969 63.5685,54.1969 C 64.2535,54.9959 65.0335,55.3499 65.3095,54.9879 C 65.4285,54.8329 65.4295,54.5699 65.3465,54.2599 C 65.8995,54.7359 66.4335,54.9029 66.6525,54.6169 C 66.8125,54.4059 66.7635,53.9999 66.5655,53.5409 C 67.0805,53.9499 67.5615,54.0769 67.7675,53.8079 C 68.0435,53.4449 67.7135,52.5029 67.0285,51.7039 Z" transform=""/><path fill="#42a8c1" stroke="none" d="M 76.6908,48.0854 C 75.8988,47.3924 75.0768,47.1524 74.8548,47.5514 C 74.7258,47.7814 74.8318,48.1774 75.0938,48.6024 C 74.5258,48.2714 74.0308,48.2144 73.8658,48.5104 C 73.7708,48.6804 73.8068,48.9414 73.9338,49.2354 C 73.3188,48.8434 72.7668,48.7544 72.5908,49.0694 C 72.3688,49.4674 72.8298,50.3524 73.6218,51.0464 C 74.4138,51.7394 75.2358,51.9794 75.4578,51.5804 C 75.5528,51.4104 75.5168,51.1504 75.3898,50.8554 C 76.0048,51.2474 76.5578,51.3374 76.7328,51.0214 C 76.8618,50.7914 76.7558,50.3954 76.4948,49.9704 C 77.0618,50.3014 77.5568,50.3584 77.7218,50.0624 C 77.9438,49.6634 77.4828,48.7784 76.6908,48.0854 Z" transform=""/><ellipse cx="108.80736158106562" cy="47.35817850575963" rx="7.695011418519151" ry="3.138625437034931" fill="#42a8c1" stroke="none" transform="rotate(203.0782 108.80735988159755 47.35817930689915)" r="NaN"/><path fill="#49bbd6" stroke="none" d="M 94.8177,35.8433 C 93.9167,27.6983 97.2197,22.9103 101.313,22.6683 C 106.844,22.3433 110.192,25.8233 109.3,33.3523 C 109.117,34.8883 116.798,46.4283 109.432,50.1013 C 103.127,51.8303 82.1797,52.8813 81.7787,45.0543 C 81.2877,35.4673 94.9397,36.9423 94.8177,35.8433 Z" transform=""/><ellipse cx="84.18760857050925" cy="45.797124907507055" rx="6.409831126494749" ry="2.614554001523765" fill="#49bbd6" stroke="none" transform="rotate(180.2177 84.18760876463686 45.79712495427347)" r="NaN"/><path fill="#42a8c1" stroke="none" d="M 101.258,48.5277 C 97.6473,46.2877 95.4803,43.6087 94.5663,45.0817 C 93.9813,46.0247 92.1953,49.2427 92.9883,51.0697 C 96.3363,51.4887 101.667,51.8377 104.851,51.5017 C 103.966,50.4867 102.734,49.4437 101.258,48.5277 Z" transform=""/><path fill="#49bbd6" stroke="none" d="M 105.204,54.0604 C 106.58,53.0364 105.293,49.6314 102.328,46.4554 S 95.8445,41.5364 94.4685,42.5604 C 93.0925,43.5854 94.3795,46.9894 97.3445,50.1654 S 103.828,55.0844 105.204,54.0604 Z" transform=""/><path fill="#42a8c1" stroke="none" d="M 97.0367,31.3633 C 97.6987,29.6533 99.5147,28.7123 101.092,29.2623 C 101.822,29.5173 103.663,29.4153 104.479,29.1903 C 106.093,28.7463 107.835,29.8053 108.37,31.5553 C 108.905,33.3043 108.031,35.0823 106.417,35.5273 C 104.923,35.9383 100.212,35.9843 98.6927,35.4553 C 97.1157,34.9053 96.3747,33.0733 97.0367,31.3633 Z" transform=""/><path fill="#49bbd6" stroke="none" d="M 97.5041,30.674 C 98.1441,29.021 99.8981,28.113 101.422,28.644 C 102.128,28.89 103.907,28.792 104.695,28.575 C 106.255,28.146 107.938,29.168 108.455,30.859 C 108.972,32.55 108.127,34.268 106.568,34.697 C 105.124,35.095 103.61,34.913 102.978,33.443 C 102.284,34.98 100.572,35.14 99.1041,34.628 C 97.5801,34.097 96.8641,32.326 97.5041,30.674 Z" transform=""/><ellipse cx="100.54229684972128" cy="29.12102909154137" rx="0.4825564069740806" ry="0.6704900307817475" fill="#304454" stroke="none" transform="rotate(1.5587 100.54229801746702 29.121029028898146)" r="NaN"/><ellipse cx="105.33438133019845" cy="29.12102909154137" rx="0.4825564069740806" ry="0.6704900307817475" fill="#304454" stroke="none" transform="rotate(1.5587 105.33438222548438 29.121029028898146)" r="NaN"/><path fill="#42a8c1" stroke="none" d="M 104.794,31.2298 S 104.049,32.4928 103.194,32.4958 C 102.678,32.4958 102.334,31.9788 102.021,31.1778 C 101.661,30.2548 102.87,29.9178 103.428,29.9378 C 103.936,29.9568 105.128,30.0758 104.794,31.2298 Z" transform=""/><path fill="#49bbd6" stroke="none" d="M 104.827,30.4892 S 104.242,31.8342 103.394,31.9412 C 102.882,32.0052 102.478,31.5342 102.068,30.7772 C 101.598,29.9052 102.757,29.4232 103.313,29.3742 C 103.819,29.3312 105.018,29.3032 104.827,30.4892 Z" transform=""/><path fill="none" stroke="#378fa4" d="M 106.422,32.4909 S 108.465,33.9759 109.145,35.2509" style="stroke-miterlimit: 10" stroke-miterlimit="10" transform=""/><path fill="none" stroke="#378fa4" d="M 107.27,31.6543 S 109.699,32.3203 110.792,33.2773" style="stroke-miterlimit: 10" stroke-miterlimit="10" transform=""/><path fill="none" stroke="#378fa4" d="M 99.3843,32.211 S 97.3413,33.696 96.6613,34.971" style="stroke-miterlimit: 10" stroke-miterlimit="10" transform=""/><path fill="none" stroke="#378fa4" d="M 98.5357,31.3744 S 96.1067,32.0404 95.0137,32.9974" style="stroke-miterlimit: 10" stroke-miterlimit="10" transform=""/><path fill="#49bbd6" stroke="none" d="M 105.917,51.7039 C 105.232,50.9049 104.453,50.5509 104.176,50.9129 C 104.016,51.1229 104.064,51.5289 104.263,51.9879 C 103.748,51.5799 103.266,51.4529 103.061,51.7219 C 102.943,51.8769 102.941,52.1399 103.024,52.4489 C 102.472,51.9729 101.938,51.8059 101.719,52.0929 C 101.442,52.4549 101.773,53.3969 102.457,54.1969 C 103.142,54.9959 103.922,55.3499 104.198,54.9879 C 104.317,54.8329 104.318,54.5699 104.235,54.2599 C 104.788,54.7359 105.322,54.9029 105.541,54.6169 C 105.701,54.4059 105.652,53.9999 105.454,53.5409 C 105.969,53.9499 106.45,54.0769 106.656,53.8079 C 106.932,53.4449 106.602,52.5029 105.917,51.7039 Z" transform=""/><path fill="#42a8c1" stroke="none" d="M 115.58,48.0854 C 114.788,47.3924 113.966,47.1524 113.744,47.5514 C 113.615,47.7814 113.721,48.1774 113.983,48.6024 C 113.415,48.2714 112.92,48.2144 112.755,48.5104 C 112.66,48.6804 112.696,48.9414 112.823,49.2354 C 112.208,48.8434 111.656,48.7544 111.48,49.0694 C 111.258,49.4674 111.719,50.3524 112.511,51.0464 C 113.303,51.7394 114.125,51.9794 114.347,51.5804 C 114.442,51.4104 114.406,51.1504 114.279,50.8554 C 114.894,51.2474 115.447,51.3374 115.622,51.0214 C 115.751,50.7914 115.645,50.3954 115.384,49.9704 C 115.951,50.3014 116.446,50.3584 116.611,50.0624 C 116.833,49.6634 116.372,48.7784 115.58,48.0854 Z" transform=""/><ellipse cx="147.6962504699545" cy="47.35817850575963" rx="7.695011418519151" ry="3.138625437034931" fill="#42a8c1" stroke="none" transform="rotate(203.0782 147.69624877048642 47.35817930689915)" r="NaN"/><path fill="#49bbd6" stroke="none" d="M 133.707,35.8433 C 132.806,27.6983 136.109,22.9103 140.202,22.6683 C 145.733,22.3433 149.081,25.8233 148.189,33.3523 C 148.006,34.8883 155.687,46.4283 148.321,50.1013 C 142.016,51.8303 121.069,52.8813 120.668,45.0543 C 120.177,35.4673 133.829,36.9423 133.707,35.8433 Z" transform=""/><ellipse cx="123.07649745939813" cy="45.797124907507055" rx="6.409831126494749" ry="2.614554001523765" fill="#49bbd6" stroke="none" transform="rotate(180.2177 123.07649765352573 45.79712495427347)" r="NaN"/><path fill="#42a8c1" stroke="none" d="M 140.147,48.5277 C 136.536,46.2877 134.369,43.6087 133.455,45.0817 C 132.87,46.0247 131.084,49.2427 131.877,51.0697 C 135.225,51.4887 140.556,51.8377 143.74,51.5017 C 142.855,50.4867 141.623,49.4437 140.147,48.5277 Z" transform=""/><path fill="#49bbd6" stroke="none" d="M 144.093,54.0604 C 145.469,53.0364 144.182,49.6314 141.217,46.4554 S 134.733,41.5364 133.357,42.5604 C 131.981,43.5854 133.268,46.9894 136.233,50.1654 S 142.717,55.0844 144.093,54.0604 Z" transform=""/><path fill="#42a8c1" stroke="none" d="M 135.926,31.3633 C 136.588,29.6533 138.404,28.7123 139.981,29.2623 C 140.711,29.5173 142.552,29.4153 143.368,29.1903 C 144.982,28.7463 146.724,29.8053 147.259,31.5553 C 147.794,33.3043 146.92,35.0823 145.306,35.5273 C 143.812,35.9383 139.101,35.9843 137.582,35.4553 C 136.005,34.9053 135.264,33.0733 135.926,31.3633 Z" transform=""/><path fill="#49bbd6" stroke="none" d="M 136.393,30.674 C 137.033,29.021 138.787,28.113 140.311,28.644 C 141.017,28.89 142.796,28.792 143.584,28.575 C 145.144,28.146 146.827,29.168 147.344,30.859 S 147.016,34.268 145.457,34.697 C 144.013,35.095 142.499,34.913 141.867,33.443 C 141.173,34.98 139.461,35.14 137.993,34.628 C 136.469,34.097 135.753,32.326 136.393,30.674 Z" transform=""/><ellipse cx="139.43118573861017" cy="29.12102909154137" rx="0.4825564069740806" ry="0.6704900307817475" fill="#304454" stroke="none" transform="rotate(1.5587 139.4311869063559 29.121029028898146)" r="NaN"/><ellipse cx="144.22327021908734" cy="29.12102909154137" rx="0.4825564069740806" ry="0.6704900307817475" fill="#304454" stroke="none" transform="rotate(1.5587 144.22327111437323 29.121029028898146)" r="NaN"/><path fill="#42a8c1" stroke="none" d="M 143.683,31.2298 S 142.938,32.4928 142.083,32.4958 C 141.567,32.4958 141.223,31.9788 140.91,31.1778 C 140.55,30.2548 141.759,29.9178 142.317,29.9378 C 142.825,29.9568 144.017,30.0758 143.683,31.2298 Z" transform=""/><path fill="#49bbd6" stroke="none" d="M 143.716,30.4892 S 143.131,31.8342 142.283,31.9412 C 141.771,32.0052 141.367,31.5342 140.957,30.7772 C 140.487,29.9052 141.646,29.4232 142.202,29.3742 C 142.708,29.3312 143.907,29.3032 143.716,30.4892 Z" transform=""/><path fill="none" stroke="#378fa4" d="M 145.311,32.4909 S 147.354,33.9759 148.034,35.2509" style="stroke-miterlimit: 10" stroke-miterlimit="10" transform=""/><path fill="none" stroke="#378fa4" d="M 146.159,31.6543 S 148.588,32.3203 149.681,33.2773" style="stroke-miterlimit: 10" stroke-miterlimit="10" transform=""/><path fill="none" stroke="#378fa4" d="M 138.273,32.211 S 136.23,33.696 135.55,34.971" style="stroke-miterlimit: 10" stroke-miterlimit="10" transform=""/><path fill="none" stroke="#378fa4" d="M 137.425,31.3744 S 134.996,32.0404 133.903,32.9974" style="stroke-miterlimit: 10" stroke-miterlimit="10" transform=""/><path fill="#49bbd6" stroke="none" d="M 144.806,51.7039 C 144.121,50.9049 143.342,50.5509 143.065,50.9129 C 142.905,51.1229 142.953,51.5289 143.152,51.9879 C 142.637,51.5799 142.155,51.4529 141.95,51.7219 C 141.832,51.8769 141.83,52.1399 141.913,52.4489 C 141.361,51.9729 140.827,51.8059 140.608,52.0929 C 140.331,52.4549 140.662,53.3969 141.346,54.1969 C 142.031,54.9959 142.811,55.3499 143.087,54.9879 C 143.206,54.8329 143.207,54.5699 143.124,54.2599 C 143.677,54.7359 144.211,54.9029 144.43,54.6169 C 144.59,54.4059 144.541,53.9999 144.343,53.5409 C 144.858,53.9499 145.339,54.0769 145.545,53.8079 C 145.821,53.4449 145.491,52.5029 144.806,51.7039 Z" transform=""/><path fill="#42a8c1" stroke="none" d="M 154.469,48.0854 C 153.677,47.3924 152.855,47.1524 152.633,47.5514 C 152.504,47.7814 152.61,48.1774 152.872,48.6024 C 152.304,48.2714 151.809,48.2144 151.644,48.5104 C 151.549,48.6804 151.585,48.9414 151.712,49.2354 C 151.097,48.8434 150.545,48.7544 150.369,49.0694 C 150.147,49.4674 150.608,50.3524 151.4,51.0464 C 152.192,51.7394 153.014,51.9794 153.236,51.5804 C 153.331,51.4104 153.295,51.1504 153.168,50.8554 C 153.783,51.2474 154.336,51.3374 154.511,51.0214 C 154.64,50.7914 154.534,50.3954 154.273,49.9704 C 154.84,50.3014 155.335,50.3584 155.5,50.0624 C 155.722,49.6634 155.261,48.7784 154.469,48.0854 Z" transform=""/><ellipse cx="186.5851393588434" cy="47.35817850575963" rx="7.695011418519151" ry="3.138625437034931" fill="#42a8c1" stroke="none" transform="rotate(203.0782 186.58513765937533 47.35817930689915)" r="NaN"/><path fill="#49bbd6" stroke="none" d="M 172.595,35.8433 C 171.694,27.6983 174.997,22.9103 179.09,22.6683 C 184.621,22.3433 187.969,25.8233 187.077,33.3523 C 186.894,34.8883 194.575,46.4283 187.209,50.1013 C 180.904,51.8303 159.957,52.8813 159.556,45.0543 C 159.065,35.4673 172.717,36.9423 172.595,35.8433 Z" transform=""/><ellipse cx="161.965386348287" cy="45.797124907507055" rx="6.409831126494749" ry="2.614554001523765" fill="#49bbd6" stroke="none" transform="rotate(180.2177 161.96538654241465 45.79712495427347)" r="NaN"/><path fill="#42a8c1" stroke="none" d="M 179.036,48.5277 C 175.425,46.2877 173.258,43.6087 172.344,45.0817 C 171.759,46.0247 169.973,49.2427 170.766,51.0697 C 174.114,51.4887 179.445,51.8377 182.629,51.5017 C 181.744,50.4867 180.512,49.4437 179.036,48.5277 Z" transform=""/><path fill="#49bbd6" stroke="none" d="M 182.982,54.0604 C 184.358,53.0364 183.071,49.6314 180.106,46.4554 S 173.622,41.5364 172.246,42.5604 C 170.87,43.5854 172.157,46.9894 175.122,50.1654 S 181.606,55.0844 182.982,54.0604 Z" transform=""/><path fill="#42a8c1" stroke="none" d="M 174.815,31.3633 C 175.477,29.6533 177.293,28.7123 178.87,29.2623 C 179.6,29.5173 181.441,29.4153 182.257,29.1903 C 183.871,28.7463 185.613,29.8053 186.148,31.5553 C 186.683,33.3043 185.809,35.0823 184.195,35.5273 C 182.701,35.9383 177.99,35.9843 176.471,35.4553 C 174.894,34.9053 174.153,33.0733 174.815,31.3633 Z" transform=""/><path fill="#49bbd6" stroke="none" d="M 175.282,30.674 C 175.922,29.021 177.676,28.113 179.2,28.644 C 179.906,28.89 181.685,28.792 182.473,28.575 C 184.033,28.146 185.716,29.168 186.233,30.859 S 185.905,34.268 184.346,34.697 C 182.902,35.095 181.388,34.913 180.756,33.443 C 180.062,34.98 178.35,35.14 176.882,34.628 C 175.358,34.097 174.642,32.326 175.282,30.674 Z" transform=""/><ellipse cx="178.32007462749905" cy="29.12102909154137" rx="0.4825564069740806" ry="0.6704900307817475" fill="#304454" stroke="none" transform="rotate(1.5587 178.3200757952448 29.121029028898146)" r="NaN"/><ellipse cx="183.11215910797623" cy="29.12102909154137" rx="0.4825564069740806" ry="0.6704900307817475" fill="#304454" stroke="none" transform="rotate(1.5587 183.11216000326215 29.121029028898146)" r="NaN"/><path fill="#42a8c1" stroke="none" d="M 182.572,31.2298 S 181.827,32.4928 180.972,32.4958 C 180.456,32.4958 180.112,31.9788 179.799,31.1778 C 179.439,30.2548 180.648,29.9178 181.206,29.9378 C 181.714,29.9568 182.906,30.0758 182.572,31.2298 Z" transform=""/><path fill="#49bbd6" stroke="none" d="M 182.605,30.4892 S 182.02,31.8342 181.172,31.9412 C 180.66,32.0052 180.256,31.5342 179.846,30.7772 C 179.376,29.9052 180.535,29.4232 181.091,29.3742 C 181.597,29.3312 182.796,29.3032 182.605,30.4892 Z" transform=""/><path fill="none" stroke="#378fa4" d="M 184.2,32.4909 S 186.243,33.9759 186.923,35.2509" style="stroke-miterlimit: 10" stroke-miterlimit="10" transform=""/><path fill="none" stroke="#378fa4" d="M 185.048,31.6543 S 187.477,32.3203 188.57,33.2773" style="stroke-miterlimit: 10" stroke-miterlimit="10" transform=""/><path fill="none" stroke="#378fa4" d="M 177.162,32.211 S 175.119,33.696 174.439,34.971" style="stroke-miterlimit: 10" stroke-miterlimit="10" transform=""/><path fill="none" stroke="#378fa4" d="M 176.314,31.3744 S 173.885,32.0404 172.792,32.9974" style="stroke-miterlimit: 10" stroke-miterlimit="10" transform=""/><path fill="#49bbd6" stroke="none" d="M 183.695,51.7039 C 183.01,50.9049 182.231,50.5509 181.954,50.9129 C 181.794,51.1229 181.842,51.5289 182.041,51.9879 C 181.526,51.5799 181.044,51.4529 180.839,51.7219 C 180.721,51.8769 180.719,52.1399 180.802,52.4489 C 180.25,51.9729 179.716,51.8059 179.497,52.0929 C 179.22,52.4549 179.551,53.3969 180.235,54.1969 C 180.92,54.9959 181.7,55.3499 181.976,54.9879 C 182.095,54.8329 182.096,54.5699 182.013,54.2599 C 182.566,54.7359 183.1,54.9029 183.319,54.6169 C 183.479,54.4059 183.43,53.9999 183.232,53.5409 C 183.747,53.9499 184.228,54.0769 184.434,53.8079 C 184.71,53.4449 184.38,52.5029 183.695,51.7039 Z" transform=""/><path fill="#42a8c1" stroke="none" d="M 193.357,48.0854 C 192.565,47.3924 191.743,47.1524 191.521,47.5514 C 191.392,47.7814 191.498,48.1774 191.76,48.6024 C 191.192,48.2714 190.697,48.2144 190.532,48.5104 C 190.437,48.6804 190.473,48.9414 190.6,49.2354 C 189.985,48.8434 189.433,48.7544 189.257,49.0694 C 189.035,49.4674 189.496,50.3524 190.288,51.0464 C 191.08,51.7394 191.902,51.9794 192.124,51.5804 C 192.219,51.4104 192.183,51.1504 192.056,50.8554 C 192.671,51.2474 193.224,51.3374 193.399,51.0214 C 193.528,50.7914 193.422,50.3954 193.161,49.9704 C 193.728,50.3014 194.223,50.3584 194.388,50.0624 C 194.61,49.6634 194.149,48.7784 193.357,48.0854 Z" transform=""/><ellipse cx="225.47402824773226" cy="47.35817850575963" rx="7.695011418519151" ry="3.138625437034931" fill="#42a8c1" stroke="none" transform="rotate(203.0782 225.4740265482642 47.35817930689915)" r="NaN"/><path fill="#49bbd6" stroke="none" d="M 211.484,35.8433 C 210.583,27.6983 213.886,22.9103 217.979,22.6683 C 223.51,22.3433 226.858,25.8233 225.966,33.3523 C 225.783,34.8883 233.464,46.4283 226.098,50.1013 C 219.793,51.8303 198.846,52.8813 198.445,45.0543 C 197.954,35.4673 211.606,36.9423 211.484,35.8433 Z" transform=""/><ellipse cx="200.85427523717587" cy="45.797124907507055" rx="6.409831126494749" ry="2.614554001523765" fill="#49bbd6" stroke="none" transform="rotate(180.2177 200.8542754313035 45.79712495427347)" r="NaN"/><path fill="#42a8c1" stroke="none" d="M 217.925,48.5277 C 214.314,46.2877 212.147,43.6087 211.233,45.0817 C 210.648,46.0247 208.862,49.2427 209.655,51.0697 C 213.003,51.4887 218.334,51.8377 221.518,51.5017 C 220.633,50.4867 219.401,49.4437 217.925,48.5277 Z" transform=""/><path fill="#49bbd6" stroke="none" d="M 221.871,54.0604 C 223.247,53.0364 221.96,49.6314 218.995,46.4554 S 212.511,41.5364 211.135,42.5604 C 209.759,43.5854 211.046,46.9894 214.011,50.1654 S 220.495,55.0844 221.871,54.0604 Z" transform=""/><path fill="#42a8c1" stroke="none" d="M 213.703,31.3633 C 214.365,29.6533 216.181,28.7123 217.758,29.2623 C 218.488,29.5173 220.329,29.4153 221.145,29.1903 C 222.759,28.7463 224.501,29.8053 225.036,31.5553 C 225.571,33.3043 224.697,35.0823 223.083,35.5273 C 221.589,35.9383 216.878,35.9843 215.359,35.4553 C 213.782,34.9053 213.041,33.0733 213.703,31.3633 Z" transform=""/><path fill="#49bbd6" stroke="none" d="M 214.171,30.674 C 214.811,29.021 216.565,28.113 218.089,28.644 C 218.795,28.89 220.574,28.792 221.362,28.575 C 222.922,28.146 224.605,29.168 225.122,30.859 S 224.794,34.268 223.235,34.697 C 221.791,35.095 220.277,34.913 219.645,33.443 C 218.951,34.98 217.239,35.14 215.771,34.628 C 214.247,34.097 213.531,32.326 214.171,30.674 Z" transform=""/><ellipse cx="217.2089635163879" cy="29.12102909154137" rx="0.4825564069740806" ry="0.6704900307817475" fill="#304454" stroke="none" transform="rotate(1.5587 217.20896468413366 29.121029028898146)" r="NaN"/><ellipse cx="222.00104799686508" cy="29.12102909154137" rx="0.4825564069740806" ry="0.6704900307817475" fill="#304454" stroke="none" transform="rotate(1.5587 222.001048892151 29.121029028898146)" r="NaN"/><path fill="#42a8c1" stroke="none" d="M 221.46,31.2298 S 220.715,32.4928 219.86,32.4958 C 219.344,32.4958 219,31.9788 218.687,31.1778 C 218.327,30.2548 219.536,29.9178 220.094,29.9378 C 220.602,29.9568 221.794,30.0758 221.46,31.2298 Z" transform=""/><path fill="#49bbd6" stroke="none" d="M 221.494,30.4892 S 220.909,31.8342 220.061,31.9412 C 219.549,32.0052 219.145,31.5342 218.735,30.7772 C 218.265,29.9052 219.424,29.4232 219.98,29.3742 C 220.486,29.3312 221.685,29.3032 221.494,30.4892 Z" transform=""/><path fill="none" stroke="#378fa4" d="M 223.088,32.4909 S 225.131,33.9759 225.811,35.2509" style="stroke-miterlimit: 10" stroke-miterlimit="10" transform=""/><path fill="none" stroke="#378fa4" d="M 223.937,31.6543 S 226.366,32.3203 227.459,33.2773" style="stroke-miterlimit: 10" stroke-miterlimit="10" transform=""/><path fill="none" stroke="#378fa4" d="M 216.051,32.211 S 214.008,33.696 213.328,34.971" style="stroke-miterlimit: 10" stroke-miterlimit="10" transform=""/><path fill="none" stroke="#378fa4" d="M 215.202,31.3744 S 212.773,32.0404 211.68,32.9974" style="stroke-miterlimit: 10" stroke-miterlimit="10" transform=""/><path fill="#49bbd6" stroke="none" d="M 222.584,51.7039 C 221.899,50.9049 221.12,50.5509 220.843,50.9129 C 220.683,51.1229 220.731,51.5289 220.93,51.9879 C 220.415,51.5799 219.933,51.4529 219.728,51.7219 C 219.61,51.8769 219.608,52.1399 219.691,52.4489 C 219.139,51.9729 218.605,51.8059 218.386,52.0929 C 218.109,52.4549 218.44,53.3969 219.124,54.1969 C 219.809,54.9959 220.589,55.3499 220.865,54.9879 C 220.984,54.8329 220.985,54.5699 220.902,54.2599 C 221.455,54.7359 221.989,54.9029 222.208,54.6169 C 222.368,54.4059 222.319,53.9999 222.121,53.5409 C 222.636,53.9499 223.117,54.0769 223.323,53.8079 C 223.599,53.4449 223.269,52.5029 222.584,51.7039 Z" transform=""/><path fill="#42a8c1" stroke="none" d="M 232.246,48.0854 C 231.454,47.3924 230.632,47.1524 230.41,47.5514 C 230.281,47.7814 230.387,48.1774 230.649,48.6024 C 230.081,48.2714 229.586,48.2144 229.421,48.5104 C 229.326,48.6804 229.362,48.9414 229.489,49.2354 C 228.874,48.8434 228.322,48.7544 228.146,49.0694 C 227.924,49.4674 228.385,50.3524 229.177,51.0464 C 229.969,51.7394 230.791,51.9794 231.013,51.5804 C 231.108,51.4104 231.072,51.1504 230.945,50.8554 C 231.56,51.2474 232.113,51.3374 232.288,51.0214 C 232.417,50.7914 232.311,50.3954 232.05,49.9704 C 232.617,50.3014 233.112,50.3584 233.277,50.0624 C 233.499,49.6634 233.038,48.7784 232.246,48.0854 Z" transform=""/><ellipse cx="264.36291713662115" cy="47.35817850575963" rx="7.695011418519151" ry="3.138625437034931" fill="#42a8c1" stroke="none" transform="rotate(203.0782 264.3629154371531 47.35817930689915)" r="NaN"/><path fill="#49bbd6" stroke="none" d="M 250.373,35.8433 C 249.472,27.6983 252.775,22.9103 256.868,22.6683 C 262.399,22.3433 265.747,25.8233 264.855,33.3523 C 264.672,34.8883 272.353,46.4283 264.987,50.1013 C 258.682,51.8303 237.735,52.8813 237.334,45.0543 C 236.843,35.4673 250.495,36.9423 250.373,35.8433 Z" transform=""/><ellipse cx="239.74316412606478" cy="45.797124907507055" rx="6.409831126494749" ry="2.614554001523765" fill="#49bbd6" stroke="none" transform="rotate(180.2177 239.74316432019242 45.79712495427347)" r="NaN"/><path fill="#42a8c1" stroke="none" d="M 256.814,48.5277 C 253.203,46.2877 251.036,43.6087 250.122,45.0817 C 249.537,46.0247 247.751,49.2427 248.544,51.0697 C 251.892,51.4887 257.223,51.8377 260.407,51.5017 C 259.522,50.4867 258.29,49.4437 256.814,48.5277 Z" transform=""/><path fill="#49bbd6" stroke="none" d="M 260.76,54.0604 C 262.136,53.0364 260.849,49.6314 257.884,46.4554 S 251.4,41.5364 250.024,42.5604 C 248.648,43.5854 249.935,46.9894 252.9,50.1654 S 259.384,55.0844 260.76,54.0604 Z" transform=""/><path fill="#42a8c1" stroke="none" d="M 252.592,31.3633 C 253.254,29.6533 255.07,28.7123 256.647,29.2623 C 257.377,29.5173 259.218,29.4153 260.034,29.1903 C 261.648,28.7463 263.39,29.8053 263.925,31.5553 C 264.46,33.3043 263.586,35.0823 261.972,35.5273 C 260.478,35.9383 255.767,35.9843 254.248,35.4553 C 252.671,34.9053 251.93,33.0733 252.592,31.3633 Z" transform=""/><path fill="#49bbd6" stroke="none" d="M 253.06,30.674 C 253.7,29.021 255.454,28.113 256.978,28.644 C 257.684,28.89 259.463,28.792 260.251,28.575 C 261.811,28.146 263.494,29.168 264.011,30.859 S 263.683,34.268 262.124,34.697 C 260.68,35.095 259.166,34.913 258.534,33.443 C 257.84,34.98 256.128,35.14 254.66,34.628 C 253.136,34.097 252.42,32.326 253.06,30.674 Z" transform=""/><ellipse cx="256.09785240527685" cy="29.12102909154137" rx="0.4825564069740806" ry="0.6704900307817475" fill="#304454" stroke="none" transform="rotate(1.5587 256.0978535730226 29.121029028898146)" r="NaN"/><ellipse cx="260.88993688575397" cy="29.12102909154137" rx="0.4825564069740806" ry="0.6704900307817475" fill="#304454" stroke="none" transform="rotate(1.5587 260.8899377810399 29.121029028898146)" r="NaN"/><path fill="#42a8c1" stroke="none" d="M 260.349,31.2298 S 259.604,32.4928 258.749,32.4958 C 258.233,32.4958 257.889,31.9788 257.576,31.1778 C 257.216,30.2548 258.425,29.9178 258.983,29.9378 C 259.491,29.9568 260.683,30.0758 260.349,31.2298 Z" transform=""/><path fill="#49bbd6" stroke="none" d="M 260.383,30.4892 S 259.798,31.8342 258.95,31.9412 C 258.438,32.0052 258.034,31.5342 257.624,30.7772 C 257.154,29.9052 258.313,29.4232 258.869,29.3742 C 259.375,29.3312 260.574,29.3032 260.383,30.4892 Z" transform=""/><path fill="none" stroke="#378fa4" d="M 261.977,32.4909 S 264.02,33.9759 264.7,35.2509" style="stroke-miterlimit: 10" stroke-miterlimit="10" transform=""/><path fill="none" stroke="#378fa4" d="M 262.826,31.6543 S 265.255,32.3203 266.348,33.2773" style="stroke-miterlimit: 10" stroke-miterlimit="10" transform=""/><path fill="none" stroke="#378fa4" d="M 254.94,32.211 S 252.897,33.696 252.217,34.971" style="stroke-miterlimit: 10" stroke-miterlimit="10" transform=""/><path fill="none" stroke="#378fa4" d="M 254.091,31.3744 S 251.662,32.0404 250.569,32.9974" style="stroke-miterlimit: 10" stroke-miterlimit="10" transform=""/><path fill="#49bbd6" stroke="none" d="M 261.473,51.7039 C 260.788,50.9049 260.009,50.5509 259.732,50.9129 C 259.572,51.1229 259.62,51.5289 259.819,51.9879 C 259.304,51.5799 258.822,51.4529 258.617,51.7219 C 258.499,51.8769 258.497,52.1399 258.58,52.4489 C 258.028,51.9729 257.494,51.8059 257.275,52.0929 C 256.998,52.4549 257.329,53.3969 258.013,54.1969 C 258.698,54.9959 259.478,55.3499 259.754,54.9879 C 259.873,54.8329 259.874,54.5699 259.791,54.2599 C 260.344,54.7359 260.878,54.9029 261.097,54.6169 C 261.257,54.4059 261.208,53.9999 261.01,53.5409 C 261.525,53.9499 262.006,54.0769 262.212,53.8079 C 262.488,53.4449 262.158,52.5029 261.473,51.7039 Z" transform=""/><path fill="#42a8c1" stroke="none" d="M 271.135,48.0854 C 270.343,47.3924 269.521,47.1524 269.299,47.5514 C 269.17,47.7814 269.276,48.1774 269.538,48.6024 C 268.97,48.2714 268.475,48.2144 268.31,48.5104 C 268.215,48.6804 268.251,48.9414 268.378,49.2354 C 267.763,48.8434 267.211,48.7544 267.035,49.0694 C 266.813,49.4674 267.274,50.3524 268.066,51.0464 C 268.858,51.7394 269.68,51.9794 269.902,51.5804 C 269.997,51.4104 269.961,51.1504 269.834,50.8554 C 270.449,51.2474 271.002,51.3374 271.177,51.0214 C 271.306,50.7914 271.2,50.3954 270.939,49.9704 C 271.506,50.3014 272.001,50.3584 272.166,50.0624 C 272.388,49.6634 271.927,48.7784 271.135,48.0854 Z" transform=""/></svg>