<svg xmlns="http://www.w3.org/2000/svg" width="250" height="83.333" viewBox="0 0 250 83.33333333333333"><path fill="#eae2c1" d="M10.079 47.204c1.73-.503 2.5.539 2.868 1.084.368.546.158.756 3.985 7.242S28.31 69.257 28.31 69.257c.737.733.938.803 3.097 2.894 2.16 2.091.247 5.258-2.177 5.058-2.426-.201-7.415-5.212-9.985-7.52-2.571-2.308-5.933-6.963-8.257-10.602-2.324-3.638-2.966-8.601-3-8.911-.031-.31.36-2.47 2.09-2.972z"/><path fill="#c9c2a6" d="M31.357 75.493c-2.425-.2-7.415-5.212-9.985-7.52-2.57-2.308-5.932-6.963-8.258-10.6-2.323-3.64-2.966-8.603-2.998-8.912-.015-.15.07-.735.357-1.355a3.502 3.502 0 0 0-.256.063c-1.73.502-2.12 2.662-2.088 2.971.033.31.675 5.273 2.998 8.911 2.324 3.64 5.687 8.294 8.257 10.602 2.57 2.308 7.56 7.32 9.985 7.52 1.242.103 2.348-.68 2.842-1.75-.273.067-.56.095-.854.07z" opacity=".5"/><path fill="#eae2c1" d="M13.46 41.667c-2.433 0-4.413 1.895-4.53 4.275a4.55 4.55 0 0 0-1.958-.444c-2.508 0-4.541 2.012-4.541 4.495 0 2.482 2.033 4.494 4.54 4.494 2.434 0 4.414-1.895 4.53-4.274a4.564 4.564 0 0 0 1.959.443c2.508 0 4.54-2.012 4.54-4.494s-2.032-4.495-4.54-4.495zM34.098 69.725c-2.41.323-4.123 2.464-3.922 4.838a4.56 4.56 0 0 0-1.999-.18c-2.486.333-4.234 2.598-3.905 5.058.33 2.46 2.613 4.185 5.098 3.851 2.412-.323 4.123-2.464 3.923-4.838.625.2 1.303.273 2 .18 2.484-.333 4.233-2.598 3.903-5.058-.329-2.46-2.612-4.184-5.098-3.851z"/><path fill="#c9c2a6" d="M5.129 46.244c-1.589.7-2.698 2.273-2.698 4.105 0 2.482 2.033 4.495 4.541 4.495a4.534 4.534 0 0 0 4.043-2.465c-3.12-.486-5.559-2.997-5.886-6.135zM27.278 74.545c-1.589.7-2.698 2.273-2.698 4.105 0 2.482 2.033 4.495 4.541 4.495a4.534 4.534 0 0 0 4.043-2.465c-3.119-.487-5.559-2.997-5.886-6.135z" opacity=".5"/><path fill="#eae2c1" d="M51.746 47.204c1.73-.503 2.5.539 2.868 1.084.368.546.158.756 3.985 7.242s11.379 13.727 11.379 13.727c.737.733.938.803 3.097 2.894 2.16 2.091.247 5.258-2.177 5.058-2.426-.201-7.415-5.212-9.985-7.52-2.571-2.308-5.933-6.963-8.257-10.602-2.324-3.638-2.966-8.601-3-8.911-.031-.31.36-2.47 2.09-2.972z"/><path fill="#c9c2a6" d="M73.023 75.493c-2.425-.2-7.414-5.212-9.985-7.52-2.57-2.308-5.932-6.963-8.257-10.6-2.323-3.64-2.966-8.603-2.998-8.912-.016-.15.07-.735.356-1.355a3.502 3.502 0 0 0-.255.063c-1.73.502-2.12 2.662-2.089 2.971.033.31.675 5.273 3 8.911 2.323 3.64 5.685 8.294 8.255 10.602 2.571 2.308 7.56 7.32 9.985 7.52 1.243.103 2.348-.68 2.842-1.75-.273.067-.56.095-.854.07z" opacity=".5"/><path fill="#eae2c1" d="M55.127 41.667c-2.434 0-4.413 1.895-4.53 4.275a4.55 4.55 0 0 0-1.959-.444c-2.508 0-4.54 2.012-4.54 4.495 0 2.482 2.032 4.494 4.54 4.494 2.434 0 4.413-1.895 4.53-4.274a4.564 4.564 0 0 0 1.959.443c2.508 0 4.54-2.012 4.54-4.494s-2.032-4.495-4.54-4.495zM75.765 69.725c-2.411.323-4.123 2.464-3.922 4.838a4.56 4.56 0 0 0-2-.18c-2.485.333-4.233 2.598-3.904 5.058.33 2.46 2.613 4.185 5.098 3.851 2.412-.323 4.123-2.464 3.923-4.838.625.2 1.303.273 1.999.18 2.485-.333 4.234-2.598 3.904-5.058-.33-2.46-2.612-4.184-5.098-3.851z"/><path fill="#c9c2a6" d="M46.796 46.244c-1.59.7-2.698 2.273-2.698 4.105 0 2.482 2.033 4.495 4.54 4.495a4.534 4.534 0 0 0 4.044-2.465c-3.12-.486-5.56-2.997-5.886-6.135zM68.945 74.545c-1.589.7-2.698 2.273-2.698 4.105 0 2.482 2.033 4.495 4.541 4.495a4.534 4.534 0 0 0 4.043-2.465c-3.119-.487-5.559-2.997-5.886-6.135z" opacity=".5"/><path fill="#eae2c1" d="M93.412 47.204c1.73-.503 2.5.539 2.868 1.084.368.546.158.756 3.985 7.242s11.379 13.727 11.379 13.727c.737.733.938.803 3.097 2.894 2.16 2.091.247 5.258-2.177 5.058-2.426-.201-7.415-5.212-9.985-7.52-2.571-2.308-5.933-6.963-8.257-10.602-2.324-3.638-2.966-8.601-2.999-8.911-.032-.31.36-2.47 2.09-2.972z"/><path fill="#c9c2a6" d="M114.69 75.493c-2.425-.2-7.414-5.212-9.985-7.52-2.57-2.308-5.932-6.963-8.257-10.6-2.323-3.64-2.966-8.603-2.998-8.912-.016-.15.069-.735.356-1.355a3.502 3.502 0 0 0-.255.063c-1.73.502-2.121 2.662-2.09 2.971.034.31.676 5.273 3 8.911 2.324 3.64 5.686 8.294 8.256 10.602 2.571 2.308 7.56 7.32 9.985 7.52 1.243.103 2.348-.68 2.842-1.75-.273.067-.56.095-.854.07z" opacity=".5"/><path fill="#eae2c1" d="M96.793 41.667c-2.433 0-4.413 1.895-4.53 4.275a4.55 4.55 0 0 0-1.958-.444c-2.508 0-4.54 2.012-4.54 4.495 0 2.482 2.032 4.494 4.54 4.494 2.433 0 4.413-1.895 4.53-4.274a4.564 4.564 0 0 0 1.958.443c2.508 0 4.541-2.012 4.541-4.494s-2.033-4.495-4.54-4.495zM117.432 69.725c-2.411.323-4.123 2.464-3.922 4.838a4.56 4.56 0 0 0-1.999-.18c-2.486.333-4.234 2.598-3.905 5.058.33 2.46 2.613 4.185 5.098 3.851 2.412-.323 4.123-2.464 3.923-4.838.625.2 1.303.273 1.999.18 2.485-.333 4.234-2.598 3.904-5.058-.329-2.46-2.612-4.184-5.098-3.851z"/><path fill="#c9c2a6" d="M88.462 46.244c-1.589.7-2.698 2.273-2.698 4.105 0 2.482 2.033 4.495 4.541 4.495a4.534 4.534 0 0 0 4.043-2.465c-3.12-.486-5.559-2.997-5.886-6.135zM110.612 74.545c-1.589.7-2.698 2.273-2.698 4.105 0 2.482 2.033 4.495 4.541 4.495a4.534 4.534 0 0 0 4.043-2.465c-3.119-.487-5.559-2.997-5.886-6.135z" opacity=".5"/><path fill="#eae2c1" d="M135.079 47.204c1.73-.503 2.5.539 2.868 1.084.368.546.158.756 3.985 7.242s11.379 13.727 11.379 13.727c.737.733.938.803 3.097 2.894 2.16 2.091.247 5.258-2.177 5.058-2.426-.201-7.415-5.212-9.985-7.52-2.571-2.308-5.933-6.963-8.257-10.602-2.324-3.638-2.966-8.601-2.999-8.911-.032-.31.359-2.47 2.089-2.972z"/><path fill="#c9c2a6" d="M156.357 75.493c-2.425-.2-7.414-5.212-9.985-7.52-2.57-2.308-5.932-6.963-8.257-10.6-2.323-3.64-2.966-8.603-2.998-8.912-.016-.15.069-.735.356-1.355a3.502 3.502 0 0 0-.255.063c-1.73.502-2.121 2.662-2.089 2.971.033.31.675 5.273 2.999 8.911 2.324 3.64 5.686 8.294 8.256 10.602 2.571 2.308 7.56 7.32 9.985 7.52 1.243.103 2.348-.68 2.842-1.75-.273.067-.56.095-.854.07z" opacity=".5"/><path fill="#eae2c1" d="M138.46 41.667c-2.433 0-4.413 1.895-4.53 4.275a4.55 4.55 0 0 0-1.958-.444c-2.508 0-4.541 2.012-4.541 4.495 0 2.482 2.033 4.494 4.541 4.494 2.433 0 4.413-1.895 4.53-4.274a4.564 4.564 0 0 0 1.958.443c2.508 0 4.541-2.012 4.541-4.494s-2.033-4.495-4.541-4.495zM159.098 69.725c-2.411.323-4.123 2.464-3.922 4.838a4.56 4.56 0 0 0-1.999-.18c-2.486.333-4.234 2.598-3.905 5.058.33 2.46 2.613 4.185 5.098 3.851 2.412-.323 4.123-2.464 3.923-4.838.625.2 1.303.273 1.999.18 2.485-.333 4.234-2.598 3.904-5.058-.329-2.46-2.612-4.184-5.098-3.851z"/><path fill="#c9c2a6" d="M130.129 46.244c-1.589.7-2.698 2.273-2.698 4.105 0 2.482 2.033 4.495 4.541 4.495a4.534 4.534 0 0 0 4.043-2.465c-3.12-.486-5.559-2.997-5.886-6.135zM152.278 74.545c-1.589.7-2.698 2.273-2.698 4.105 0 2.482 2.033 4.495 4.541 4.495a4.534 4.534 0 0 0 4.043-2.465c-3.119-.487-5.559-2.997-5.886-6.135z" opacity=".5"/><path fill="#eae2c1" d="M176.746 47.204c1.73-.503 2.5.539 2.868 1.084.368.546.158.756 3.985 7.242s11.379 13.727 11.379 13.727c.737.733.938.803 3.097 2.894 2.16 2.091.247 5.258-2.177 5.058-2.426-.201-7.415-5.212-9.985-7.52-2.571-2.308-5.933-6.963-8.257-10.602-2.324-3.638-2.966-8.601-2.999-8.911-.032-.31.359-2.47 2.089-2.972z"/><path fill="#c9c2a6" d="M198.023 75.493c-2.425-.2-7.414-5.212-9.985-7.52-2.57-2.308-5.932-6.963-8.257-10.6-2.323-3.64-2.966-8.603-2.998-8.912-.016-.15.069-.735.356-1.355a3.502 3.502 0 0 0-.255.063c-1.73.502-2.121 2.662-2.089 2.971.033.31.675 5.273 2.999 8.911 2.324 3.64 5.686 8.294 8.256 10.602 2.571 2.308 7.56 7.32 9.985 7.52 1.243.103 2.348-.68 2.842-1.75-.273.067-.56.095-.854.07z" opacity=".5"/><path fill="#eae2c1" d="M180.127 41.667c-2.433 0-4.413 1.895-4.53 4.275a4.55 4.55 0 0 0-1.958-.444c-2.508 0-4.541 2.012-4.541 4.495 0 2.482 2.033 4.494 4.541 4.494 2.433 0 4.413-1.895 4.53-4.274a4.564 4.564 0 0 0 1.958.443c2.508 0 4.541-2.012 4.541-4.494s-2.033-4.495-4.541-4.495zM200.765 69.725c-2.411.323-4.123 2.464-3.922 4.838a4.56 4.56 0 0 0-1.999-.18c-2.486.333-4.234 2.598-3.905 5.058.33 2.46 2.613 4.185 5.098 3.851 2.412-.323 4.123-2.464 3.923-4.838.625.2 1.303.273 1.999.18 2.485-.333 4.234-2.598 3.904-5.058-.329-2.46-2.612-4.184-5.098-3.851z"/><path fill="#c9c2a6" d="M171.796 46.244c-1.589.7-2.698 2.273-2.698 4.105 0 2.482 2.033 4.495 4.541 4.495a4.534 4.534 0 0 0 4.043-2.465c-3.12-.486-5.559-2.997-5.886-6.135zM193.945 74.545c-1.589.7-2.698 2.273-2.698 4.105 0 2.482 2.033 4.495 4.541 4.495a4.534 4.534 0 0 0 4.043-2.465c-3.119-.487-5.559-2.997-5.886-6.135z" opacity=".5"/><path fill="#eae2c1" d="M218.412 47.204c1.73-.503 2.5.539 2.868 1.084.368.546.158.756 3.985 7.242s11.379 13.727 11.379 13.727c.737.733.938.803 3.097 2.894 2.16 2.091.247 5.258-2.177 5.058-2.426-.201-7.415-5.212-9.985-7.52-2.571-2.308-5.933-6.963-8.257-10.602-2.324-3.638-2.966-8.601-2.999-8.911-.032-.31.359-2.47 2.089-2.972z"/><path fill="#c9c2a6" d="M239.69 75.493c-2.425-.2-7.414-5.212-9.985-7.52-2.57-2.308-5.932-6.963-8.257-10.6-2.323-3.64-2.966-8.603-2.998-8.912-.016-.15.069-.735.356-1.355a3.502 3.502 0 0 0-.255.063c-1.73.502-2.121 2.662-2.089 2.971.033.31.675 5.273 2.999 8.911 2.324 3.64 5.686 8.294 8.256 10.602 2.571 2.308 7.56 7.32 9.985 7.52 1.243.103 2.348-.68 2.842-1.75-.273.067-.56.095-.854.07z" opacity=".5"/><path fill="#eae2c1" d="M221.793 41.667c-2.433 0-4.413 1.895-4.53 4.275a4.55 4.55 0 0 0-1.958-.444c-2.508 0-4.541 2.012-4.541 4.495 0 2.482 2.033 4.494 4.541 4.494 2.433 0 4.413-1.895 4.53-4.274a4.564 4.564 0 0 0 1.958.443c2.508 0 4.541-2.012 4.541-4.494s-2.033-4.495-4.541-4.495zM242.432 69.725c-2.411.323-4.123 2.464-3.922 4.838a4.56 4.56 0 0 0-1.999-.18c-2.486.333-4.234 2.598-3.905 5.058.33 2.46 2.613 4.185 5.098 3.851 2.412-.323 4.123-2.464 3.923-4.838.625.2 1.303.273 1.999.18 2.485-.333 4.234-2.598 3.904-5.058-.329-2.46-2.612-4.184-5.098-3.851z"/><path fill="#c9c2a6" d="M213.462 46.244c-1.589.7-2.698 2.273-2.698 4.105 0 2.482 2.033 4.495 4.541 4.495a4.534 4.534 0 0 0 4.043-2.465c-3.12-.486-5.559-2.997-5.886-6.135zM235.612 74.545c-1.589.7-2.698 2.273-2.698 4.105 0 2.482 2.033 4.495 4.541 4.495a4.534 4.534 0 0 0 4.043-2.465c-3.119-.487-5.559-2.997-5.886-6.135z" opacity=".5"/><path fill="#eae2c1" d="M10.079 5.537c1.73-.503 2.5.54 2.868 1.084.368.546.158.756 3.985 7.242S28.31 27.59 28.31 27.59c.737.733.938.803 3.097 2.894 2.16 2.091.247 5.258-2.177 5.058-2.426-.2-7.415-5.212-9.985-7.52-2.571-2.308-5.933-6.963-8.257-10.602-2.324-3.638-2.966-8.6-3-8.91-.031-.31.36-2.47 2.09-2.973z"/><path fill="#c9c2a6" d="M31.357 33.827c-2.425-.201-7.415-5.212-9.985-7.52-2.57-2.308-5.932-6.963-8.258-10.601-2.323-3.64-2.966-8.602-2.998-8.911-.015-.15.07-.735.357-1.355a3.502 3.502 0 0 0-.256.063c-1.73.502-2.12 2.662-2.088 2.97.033.31.675 5.274 2.998 8.912 2.324 3.639 5.687 8.294 8.257 10.602 2.57 2.308 7.56 7.319 9.985 7.52 1.242.103 2.348-.681 2.842-1.75-.273.067-.56.095-.854.07z" opacity=".5"/><path fill="#eae2c1" d="M13.46 0c-2.433 0-4.413 1.895-4.53 4.275a4.55 4.55 0 0 0-1.958-.444c-2.508 0-4.541 2.012-4.541 4.495 0 2.482 2.033 4.494 4.54 4.494 2.434 0 4.414-1.895 4.53-4.274a4.564 4.564 0 0 0 1.959.443c2.508 0 4.54-2.012 4.54-4.494S15.969 0 13.46 0zM34.098 28.058c-2.41.323-4.123 2.464-3.922 4.838a4.56 4.56 0 0 0-1.999-.18c-2.486.333-4.234 2.598-3.905 5.058.33 2.46 2.613 4.185 5.098 3.851 2.412-.323 4.123-2.464 3.923-4.838.625.2 1.303.273 2 .18 2.484-.333 4.233-2.598 3.903-5.058-.329-2.46-2.612-4.184-5.098-3.85z"/><path fill="#c9c2a6" d="M5.129 4.577c-1.589.7-2.698 2.273-2.698 4.105 0 2.482 2.033 4.495 4.541 4.495a4.534 4.534 0 0 0 4.043-2.465c-3.12-.486-5.559-2.997-5.886-6.135zM27.278 32.878c-1.589.7-2.698 2.273-2.698 4.105 0 2.482 2.033 4.495 4.541 4.495a4.534 4.534 0 0 0 4.043-2.465c-3.119-.487-5.559-2.997-5.886-6.135z" opacity=".5"/><path fill="#eae2c1" d="M51.746 5.537c1.73-.503 2.5.54 2.868 1.084.368.546.158.756 3.985 7.242S69.978 27.59 69.978 27.59c.737.733.938.803 3.097 2.894 2.16 2.091.247 5.258-2.177 5.058-2.426-.2-7.415-5.212-9.985-7.52-2.571-2.308-5.933-6.963-8.257-10.602-2.324-3.638-2.966-8.6-3-8.91-.031-.31.36-2.47 2.09-2.973z"/><path fill="#c9c2a6" d="M73.023 33.827c-2.425-.201-7.414-5.212-9.985-7.52-2.57-2.308-5.932-6.963-8.257-10.601-2.323-3.64-2.966-8.602-2.998-8.911-.016-.15.07-.735.356-1.355a3.502 3.502 0 0 0-.255.063c-1.73.502-2.12 2.662-2.089 2.97.033.31.675 5.274 3 8.912 2.323 3.639 5.685 8.294 8.255 10.602 2.571 2.308 7.56 7.319 9.985 7.52 1.243.103 2.348-.681 2.842-1.75-.273.067-.56.095-.854.07z" opacity=".5"/><path fill="#eae2c1" d="M55.127 0c-2.434 0-4.413 1.895-4.53 4.275a4.55 4.55 0 0 0-1.959-.444c-2.508 0-4.54 2.012-4.54 4.495 0 2.482 2.032 4.494 4.54 4.494 2.434 0 4.413-1.895 4.53-4.274a4.564 4.564 0 0 0 1.959.443c2.508 0 4.54-2.012 4.54-4.494S57.635 0 55.127 0zM75.765 28.058c-2.411.323-4.123 2.464-3.922 4.838a4.56 4.56 0 0 0-2-.18c-2.485.333-4.233 2.598-3.904 5.058.33 2.46 2.613 4.185 5.098 3.851 2.412-.323 4.123-2.464 3.923-4.838.625.2 1.303.273 1.999.18 2.485-.333 4.234-2.598 3.904-5.058-.33-2.46-2.612-4.184-5.098-3.85z"/><path fill="#c9c2a6" d="M46.796 4.577c-1.59.7-2.698 2.273-2.698 4.105 0 2.482 2.033 4.495 4.54 4.495a4.534 4.534 0 0 0 4.044-2.465c-3.12-.486-5.56-2.997-5.886-6.135zM68.945 32.878c-1.589.7-2.698 2.273-2.698 4.105 0 2.482 2.033 4.495 4.541 4.495a4.534 4.534 0 0 0 4.043-2.465c-3.119-.487-5.559-2.997-5.886-6.135z" opacity=".5"/><path fill="#eae2c1" d="M93.412 5.537c1.73-.503 2.5.54 2.868 1.084.368.546.158.756 3.985 7.242s11.379 13.727 11.379 13.727c.737.733.938.803 3.097 2.894 2.16 2.091.247 5.258-2.177 5.058-2.426-.2-7.415-5.212-9.985-7.52-2.571-2.308-5.933-6.963-8.257-10.602-2.324-3.638-2.966-8.6-2.999-8.91-.032-.31.36-2.47 2.09-2.973z"/><path fill="#c9c2a6" d="M114.69 33.827c-2.425-.201-7.414-5.212-9.985-7.52-2.57-2.308-5.932-6.963-8.257-10.601-2.323-3.64-2.966-8.602-2.998-8.911-.016-.15.069-.735.356-1.355a3.502 3.502 0 0 0-.255.063c-1.73.502-2.121 2.662-2.09 2.97.034.31.676 5.274 3 8.912 2.324 3.639 5.686 8.294 8.256 10.602 2.571 2.308 7.56 7.319 9.985 7.52 1.243.103 2.348-.681 2.842-1.75-.273.067-.56.095-.854.07z" opacity=".5"/><path fill="#eae2c1" d="M96.793 0c-2.433 0-4.413 1.895-4.53 4.275a4.55 4.55 0 0 0-1.958-.444c-2.508 0-4.54 2.012-4.54 4.495 0 2.482 2.032 4.494 4.54 4.494 2.433 0 4.413-1.895 4.53-4.274a4.564 4.564 0 0 0 1.958.443c2.508 0 4.541-2.012 4.541-4.494S99.301 0 96.794 0zM117.432 28.058c-2.411.323-4.123 2.464-3.922 4.838a4.56 4.56 0 0 0-1.999-.18c-2.486.333-4.234 2.598-3.905 5.058.33 2.46 2.613 4.185 5.098 3.851 2.412-.323 4.123-2.464 3.923-4.838.625.2 1.303.273 1.999.18 2.485-.333 4.234-2.598 3.904-5.058-.329-2.46-2.612-4.184-5.098-3.85z"/><path fill="#c9c2a6" d="M88.462 4.577c-1.589.7-2.698 2.273-2.698 4.105 0 2.482 2.033 4.495 4.541 4.495a4.534 4.534 0 0 0 4.043-2.465c-3.12-.486-5.559-2.997-5.886-6.135zM110.612 32.878c-1.589.7-2.698 2.273-2.698 4.105 0 2.482 2.033 4.495 4.541 4.495a4.534 4.534 0 0 0 4.043-2.465c-3.119-.487-5.559-2.997-5.886-6.135z" opacity=".5"/><path fill="#eae2c1" d="M135.079 5.537c1.73-.503 2.5.54 2.868 1.084.368.546.158.756 3.985 7.242s11.379 13.727 11.379 13.727c.737.733.938.803 3.097 2.894 2.16 2.091.247 5.258-2.177 5.058-2.426-.2-7.415-5.212-9.985-7.52-2.571-2.308-5.933-6.963-8.257-10.602-2.324-3.638-2.966-8.6-2.999-8.91-.032-.31.359-2.47 2.089-2.973z"/><path fill="#c9c2a6" d="M156.357 33.827c-2.425-.201-7.414-5.212-9.985-7.52-2.57-2.308-5.932-6.963-8.257-10.601-2.323-3.64-2.966-8.602-2.998-8.911-.016-.15.069-.735.356-1.355a3.502 3.502 0 0 0-.255.063c-1.73.502-2.121 2.662-2.089 2.97.033.31.675 5.274 2.999 8.912 2.324 3.639 5.686 8.294 8.256 10.602 2.571 2.308 7.56 7.319 9.985 7.52 1.243.103 2.348-.681 2.842-1.75-.273.067-.56.095-.854.07z" opacity=".5"/><path fill="#eae2c1" d="M138.46 0c-2.433 0-4.413 1.895-4.53 4.275a4.55 4.55 0 0 0-1.958-.444c-2.508 0-4.541 2.012-4.541 4.495 0 2.482 2.033 4.494 4.541 4.494 2.433 0 4.413-1.895 4.53-4.274a4.564 4.564 0 0 0 1.958.443c2.508 0 4.541-2.012 4.541-4.494S140.968 0 138.46 0zM159.098 28.058c-2.411.323-4.123 2.464-3.922 4.838a4.56 4.56 0 0 0-1.999-.18c-2.486.333-4.234 2.598-3.905 5.058.33 2.46 2.613 4.185 5.098 3.851 2.412-.323 4.123-2.464 3.923-4.838.625.2 1.303.273 1.999.18 2.485-.333 4.234-2.598 3.904-5.058-.329-2.46-2.612-4.184-5.098-3.85z"/><path fill="#c9c2a6" d="M130.129 4.577c-1.589.7-2.698 2.273-2.698 4.105 0 2.482 2.033 4.495 4.541 4.495a4.534 4.534 0 0 0 4.043-2.465c-3.12-.486-5.559-2.997-5.886-6.135zM152.278 32.878c-1.589.7-2.698 2.273-2.698 4.105 0 2.482 2.033 4.495 4.541 4.495a4.534 4.534 0 0 0 4.043-2.465c-3.119-.487-5.559-2.997-5.886-6.135z" opacity=".5"/><path fill="#eae2c1" d="M176.746 5.537c1.73-.503 2.5.54 2.868 1.084.368.546.158.756 3.985 7.242s11.379 13.727 11.379 13.727c.737.733.938.803 3.097 2.894 2.16 2.091.247 5.258-2.177 5.058-2.426-.2-7.415-5.212-9.985-7.52-2.571-2.308-5.933-6.963-8.257-10.602-2.324-3.638-2.966-8.6-2.999-8.91-.032-.31.359-2.47 2.089-2.973z"/><path fill="#c9c2a6" d="M198.023 33.827c-2.425-.201-7.414-5.212-9.985-7.52-2.57-2.308-5.932-6.963-8.257-10.601-2.323-3.64-2.966-8.602-2.998-8.911-.016-.15.069-.735.356-1.355a3.502 3.502 0 0 0-.255.063c-1.73.502-2.121 2.662-2.089 2.97.033.31.675 5.274 2.999 8.912 2.324 3.639 5.686 8.294 8.256 10.602 2.571 2.308 7.56 7.319 9.985 7.52 1.243.103 2.348-.681 2.842-1.75-.273.067-.56.095-.854.07z" opacity=".5"/><path fill="#eae2c1" d="M180.127 0c-2.433 0-4.413 1.895-4.53 4.275a4.55 4.55 0 0 0-1.958-.444c-2.508 0-4.541 2.012-4.541 4.495 0 2.482 2.033 4.494 4.541 4.494 2.433 0 4.413-1.895 4.53-4.274a4.564 4.564 0 0 0 1.958.443c2.508 0 4.541-2.012 4.541-4.494S182.635 0 180.127 0zM200.765 28.058c-2.411.323-4.123 2.464-3.922 4.838a4.56 4.56 0 0 0-1.999-.18c-2.486.333-4.234 2.598-3.905 5.058.33 2.46 2.613 4.185 5.098 3.851 2.412-.323 4.123-2.464 3.923-4.838.625.2 1.303.273 1.999.18 2.485-.333 4.234-2.598 3.904-5.058-.329-2.46-2.612-4.184-5.098-3.85z"/><path fill="#c9c2a6" d="M171.796 4.577c-1.589.7-2.698 2.273-2.698 4.105 0 2.482 2.033 4.495 4.541 4.495a4.534 4.534 0 0 0 4.043-2.465c-3.12-.486-5.559-2.997-5.886-6.135zM193.945 32.878c-1.589.7-2.698 2.273-2.698 4.105 0 2.482 2.033 4.495 4.541 4.495a4.534 4.534 0 0 0 4.043-2.465c-3.119-.487-5.559-2.997-5.886-6.135z" opacity=".5"/></svg>
