<svg xmlns="http://www.w3.org/2000/svg" version="1.1" width="350" height="50" viewBox="0 0 350 50"><defs><linearGradient id="r-5c819d07c5274b87adb201ba4e3132fe" x1="0" y1="0" x2="1" y2="2.4492935982947064e-16"><stop offset="0%" stop-color="#fdc075"/><stop offset="100%" stop-color="#de9354"/></linearGradient><linearGradient id="r-b43ae721e6d64244a37b595ad4727cce" x1="0" y1="0" x2="1" y2="2.4492935982947064e-16"><stop offset="0%" stop-color="#fdc075"/><stop offset="100%" stop-color="#de9354"/></linearGradient><linearGradient id="r-5f9ca16ef4d84981afde8a13cffc1035" x1="0" y1="0" x2="1" y2="2.4492935982947064e-16"><stop offset="0%" stop-color="#fdc075"/><stop offset="100%" stop-color="#de9354"/></linearGradient><linearGradient id="r-c84690ebbf2048a38a1f90521527b723" x1="0" y1="0" x2="1" y2="2.4492935982947064e-16"><stop offset="0%" stop-color="#fdc075"/><stop offset="100%" stop-color="#de9354"/></linearGradient><linearGradient id="r-21a2af42555d4396b9bc015d4e631cd0" x1="0" y1="0" x2="1" y2="2.4492935982947064e-16"><stop offset="0%" stop-color="#fdc075"/><stop offset="100%" stop-color="#de9354"/></linearGradient><linearGradient id="r-16102b76d0244fda8a965df24b9b1aa0" x1="0" y1="0" x2="1" y2="2.4492935982947064e-16"><stop offset="0%" stop-color="#fdc075"/><stop offset="100%" stop-color="#de9354"/></linearGradient><linearGradient id="r-05e8a934f4de47c68bc3214993114d7d" x1="0" y1="0" x2="1" y2="2.4492935982947064e-16"><stop offset="0%" stop-color="#fdc075"/><stop offset="100%" stop-color="#de9354"/></linearGradient><linearGradient id="r-9be1cdc13ab84039845c3f0be54f67e8" x1="0" y1="0" x2="1" y2="2.4492935982947064e-16"><stop offset="0%" stop-color="#fdc075"/><stop offset="100%" stop-color="#de9354"/></linearGradient><linearGradient id="r-d858059c92ff42ec96e8c235118f44de" x1="0" y1="0" x2="1" y2="2.4492935982947064e-16"><stop offset="0%" stop-color="#fdc075"/><stop offset="100%" stop-color="#de9354"/></linearGradient><linearGradient id="r-c0dadc20e31042d2bc07625866a10f2a" x1="0" y1="0" x2="1" y2="2.4492935982947064e-16"><stop offset="0%" stop-color="#fdc075"/><stop offset="100%" stop-color="#de9354"/></linearGradient></defs><path fill="#fcd0a1" stroke="none" d="M 49.161,29.5928 S 51.136,26.8008 49.025,23.2588 C 46.914,19.7178 42.078,19.7178 40.852,19.7178 C 39.627,19.7178 31.59,18.7638 27.027,17.3338 S 14.291,12.4988 12.997,11.8178 C 11.703,11.1358 7.95799,11.0678 7.88899,18.0828 C 7.88899,18.0828 19.944,25.1658 24.848,26.1878 C 29.751,27.2088 37.924,29.7288 39.831,29.9328 C 41.738,30.1378 46.097,31.7038 49.161,29.5928 Z" transform=""/><path fill="#e8b986" stroke="none" d="M 47.2544,28.7075 S 48.8894,23.1235 40.9884,22.7825 C 33.0884,22.4415 25.9374,20.8075 22.3284,19.5135 C 18.7184,18.2195 12.7934,15.4275 11.0224,14.2695 S 8.02543,15.5635 7.89043,18.0835 C 7.89043,18.0835 26.7544,26.3925 30.1604,27.0055 C 34.2834,27.7475 45.6874,29.7295 47.2544,28.7075 Z" transform=""/><path fill="#b35138" stroke="none" d="M 4.28047,17.0618 C 5.77847,15.4268 7.41347,15.9038 8.23047,16.1768 C 9.04747,16.4488 8.98047,16.7898 18.1065,20.3988 C 27.2315,24.0088 40.9885,25.8478 40.9885,25.8478 C 42.3515,26.0518 42.6235,25.9838 46.5735,26.5288 S 50.8645,31.3638 48.0715,32.7938 C 45.2795,34.2238 36.0165,32.7938 31.4535,32.3178 C 26.8915,31.8408 19.6715,29.6618 14.3595,27.7548 S 4.55247,21.5568 4.27947,21.2848 C 4.00847,21.0118 2.78247,18.6958 4.28047,17.0618 Z" transform=""/><path fill="#9b3924" stroke="none" d="M 31.4539,32.3171 C 26.8909,31.8411 19.6719,29.6611 14.3599,27.7541 S 4.55285,21.5571 4.27985,21.2841 C 4.02385,21.0281 2.92385,18.9631 4.04385,17.3571 C 4.94685,18.2231 6.39985,19.0811 7.55485,19.8101 C 9.18485,20.8401 11.5869,21.2691 22.3109,25.3011 C 33.0359,29.3341 44.4469,29.5921 45.3049,29.6781 C 46.1629,29.7631 46.8289,30.2111 45.9909,30.9641 C 45.2889,31.5951 46.7299,32.7131 47.7019,32.6131 C 48.0459,32.5781 48.4339,32.4511 48.7989,32.2981 C 48.5859,32.4861 48.3449,32.6541 48.0719,32.7931 C 45.2799,34.2241 36.0169,32.7941 31.4539,32.3171 Z" transform=""/><path fill="url(#r-5c819d07c5274b87adb201ba4e3132fe)" stroke="none" d="M 12.9979,11.818 C 14.2919,12.499 22.2109,15.721 26.7729,17.152 C 31.3359,18.582 39.6269,19.718 40.8529,19.718 C 41.9759,19.718 46.1299,19.721 48.4419,22.447 C 44.7899,19.296 37.8409,21.87 26.5159,19.211 C 19.7239,17.616 17.5069,15.436 11.4149,13.034 C 10.4179,12.64 9.79386,12.6 9.21586,12.813 C 10.4519,11.078 12.1939,11.394 12.9979,11.818 Z" opacity="1" fill-opacity="1" style="opacity: 1;fill-opacity: 1" transform=""/><path fill="url(#r-b43ae721e6d64244a37b595ad4727cce)" stroke="none" d="M 46.8308,33.1649 S 45.9248,33.7859 42.6238,31.7719 C 39.0868,29.6149 35.0638,29.3209 32.2718,28.7759 C 29.4788,28.2309 13.2028,22.8509 11.4318,22.1699 C 9.66082,21.4889 4.73282,18.8659 3.87182,18.5599 C 1.76082,17.8109 -1.05018,18.0899 0.398816,22.0339 C 1.62482,25.3709 3.93982,28.5039 12.6568,33.4749 C 21.3748,38.4469 35.3948,39.5919 41.7388,37.5619 C 45.1428,36.4709 46.8308,34.1859 46.8308,33.1649 Z" opacity="1" fill-opacity="1" style="opacity: 1;fill-opacity: 1" transform=""/><path fill="#fcd0a1" stroke="none" d="M 3.87278,18.5635 C 4.73378,18.8695 9.66078,21.4915 11.4328,22.1735 C 13.2028,22.8545 29.4798,28.2345 32.2728,28.7795 C 35.0648,29.3235 39.0878,29.6195 42.6238,31.7755 C 45.9258,33.7895 46.8318,33.1685 46.8318,33.1685 C 46.8318,34.0295 45.6278,35.7855 43.2128,36.9685 C 43.0928,36.2435 42.8998,35.6825 42.7748,35.5145 C 42.3878,34.9995 40.0718,34.9995 38.6558,34.3565 C 37.2398,33.7125 30.8058,32.5545 28.6178,32.1685 C 26.4298,31.7825 23.5988,31.6535 22.5698,31.3955 C 21.5398,31.1385 19.6088,30.2375 18.7088,29.9805 C 17.8078,29.7225 18.1938,29.8515 16.2638,29.4655 S 5.71078,23.2885 3.39478,22.1305 C 1.79278,21.3295 1.23678,19.7295 0.919777,18.4775 C 1.70678,18.0845 2.86778,18.2065 3.87278,18.5635 Z" transform=""/><path fill="#9b3924" stroke="none" d="M 39.3547,28.6603 C 40.2367,28.4463 41.2917,28.2363 42.6017,28.2363 L 42.6017,28.2363 C 43.1317,28.2363 43.7037,28.2713 44.3237,28.3543 L 44.3237,28.3543 L 44.3227,28.3543 C 44.6067,28.3933 44.8677,28.1953 44.9057,27.9133 L 44.9057,27.9133 C 44.9437,27.6313 44.7457,27.3723 44.4617,27.3343 L 44.4617,27.3343 C 43.7967,27.2453 43.1777,27.2073 42.6017,27.2073 L 42.6017,27.2073 C 41.1807,27.2073 40.0277,27.4373 39.1087,27.6613 L 39.1087,27.6613 C 38.1937,27.8873 37.4987,28.0913 37.0817,28.0853 L 37.0817,28.0853 C 36.9577,28.0853 36.8617,28.0703 36.7827,28.0463 L 36.7827,28.0463 C 36.3567,27.9303 35.6887,27.2953 34.8997,26.5753 L 34.8997,26.5753 C 34.1007,25.8643 33.1217,25.0773 31.8247,24.7533 L 31.8247,24.7533 C 31.4247,24.6533 31.0327,24.6133 30.6517,24.6133 L 30.6517,24.6133 C 29.0407,24.6273 27.6467,25.2633 26.3247,25.2493 L 26.3247,25.2493 C 25.9107,25.2483 25.5057,25.1943 25.0847,25.0523 L 25.0847,25.0523 C 24.0187,24.6893 23.4127,24.0793 22.5847,23.3583 L 22.5847,23.3583 C 21.7657,22.6423 20.7307,21.8613 18.9617,21.4103 L 18.9617,21.4103 C 18.4507,21.2793 17.9667,21.2293 17.5097,21.2313 L 17.5097,21.2313 C 16.1857,21.2373 15.1117,21.6113 14.1457,21.6023 L 14.1457,21.6023 C 13.8877,21.6023 13.6367,21.5793 13.3827,21.5223 L 13.3827,21.5223 C 13.0747,21.4473 12.9077,21.3103 12.6927,21.0303 L 12.6927,21.0303 C 12.4837,20.7533 12.2767,20.3413 11.9887,19.8833 L 11.9887,19.8833 C 11.4207,18.9613 10.4257,17.8983 8.32871,17.4863 L 8.32871,17.4863 C 8.04971,17.4283 7.77671,17.6083 7.71871,17.8863 L 7.71871,17.8863 C 7.66071,18.1653 7.84071,18.4363 8.12171,18.4943 L 8.12171,18.4943 C 9.50871,18.7833 10.2007,19.2943 10.6867,19.8493 L 10.6867,19.8493 C 11.1757,20.4083 11.4317,21.0543 11.8597,21.6423 L 11.8597,21.6423 C 12.1437,22.0313 12.5637,22.3983 13.1557,22.5253 L 13.1557,22.5253 C 13.4947,22.6013 13.8247,22.6303 14.1457,22.6303 L 14.1457,22.6303 C 15.3547,22.6213 16.4027,22.2513 17.5097,22.2583 L 17.5097,22.2583 C 17.8927,22.2593 18.2847,22.2993 18.7017,22.4063 L 18.7017,22.4063 C 20.2947,22.8203 21.1147,23.4513 21.9037,24.1323 L 21.9037,24.1323 C 22.6837,24.8073 23.4407,25.5803 24.7507,26.0263 L 24.7507,26.0263 C 25.2897,26.2083 25.8177,26.2773 26.3247,26.2773 L 26.3247,26.2773 C 27.9477,26.2633 29.3447,25.6263 30.6517,25.6413 L 30.6517,25.6413 C 30.9607,25.6413 31.2647,25.6733 31.5737,25.7493 L 31.5737,25.7493 C 32.5947,26.0013 33.4427,26.6553 34.2077,27.3403 L 34.2077,27.3403 C 34.9847,28.0183 35.6207,28.7373 36.4717,29.0263 L 36.4717,29.0263 C 36.6727,29.0893 36.8777,29.1133 37.0817,29.1133 L 37.0817,29.1133 C 37.7697,29.1073 38.4687,28.8723 39.3547,28.6603 L 39.3547,28.6603 Z" transform=""/><path fill="#f6b21a" stroke="none" d="M 39.3632,28.467 C 40.2402,28.253 41.2882,28.043 42.5922,28.043 L 42.5922,28.043 C 43.1182,28.043 43.6872,28.078 44.3032,28.161 L 44.3032,28.161 L 44.3022,28.161 C 44.5852,28.2 44.8442,28.002 44.8812,27.72 L 44.8812,27.72 C 44.9192,27.438 44.7222,27.179 44.4402,27.141 L 44.4402,27.141 C 43.7792,27.052 43.1632,27.014 42.5922,27.014 L 42.5922,27.014 C 41.1792,27.014 40.0312,27.244 39.1182,27.468 L 39.1182,27.468 C 38.2092,27.694 37.5182,27.898 37.1032,27.892 L 37.1032,27.892 C 36.9812,27.892 36.8842,27.877 36.8072,27.853 L 36.8072,27.853 C 36.3822,27.737 35.7182,27.102 34.9342,26.382 L 34.9342,26.382 C 34.1402,25.671 33.1672,24.884 31.8772,24.56 L 31.8772,24.56 C 31.4792,24.46 31.0892,24.42 30.7102,24.42 L 30.7102,24.42 C 29.1092,24.435 27.7232,25.071 26.4082,25.056 L 26.4082,25.056 C 25.9982,25.056 25.5942,25.002 25.1762,24.86 L 25.1762,24.86 C 24.1162,24.498 23.5142,23.887 22.6902,23.166 L 22.6902,23.166 C 21.8762,22.45 20.8472,21.669 19.0882,21.219 L 19.0882,21.219 C 18.5802,21.088 18.0992,21.038 17.6452,21.039 L 17.6452,21.039 C 16.3292,21.045 15.2612,21.419 14.3002,21.41 L 14.3002,21.41 C 14.0442,21.41 13.7942,21.387 13.5422,21.33 L 13.5422,21.33 C 13.2352,21.256 13.0702,21.118 12.8552,20.839 L 12.8552,20.839 C 12.6482,20.562 12.4422,20.15 12.1562,19.692 L 12.1562,19.692 C 11.5912,18.769 10.6032,17.707 8.51824,17.294 L 8.51824,17.294 C 8.23924,17.237 7.96824,17.417 7.91024,17.695 L 7.91024,17.695 C 7.85324,17.973 8.03324,18.245 8.31124,18.302 L 8.31124,18.302 C 9.69024,18.592 10.3772,19.103 10.8612,19.658 L 10.8612,19.658 C 11.3472,20.217 11.6012,20.863 12.0282,21.451 L 12.0282,21.451 C 12.3092,21.839 12.7272,22.207 13.3152,22.334 L 13.3152,22.334 C 13.6522,22.41 13.9812,22.439 14.2992,22.439 L 14.2992,22.439 C 15.5022,22.43 16.5442,22.06 17.6442,22.067 L 17.6442,22.067 C 18.0252,22.068 18.4152,22.108 18.8302,22.215 L 18.8302,22.215 C 20.4132,22.629 21.2282,23.26 22.0122,23.941 L 22.0122,23.941 C 22.7892,24.616 23.5412,25.39 24.8442,25.834 L 24.8442,25.834 C 25.3792,26.016 25.9042,26.086 26.4082,26.086 L 26.4082,26.086 C 28.0212,26.071 29.4102,25.435 30.7102,25.449 L 30.7102,25.449 C 31.0172,25.449 31.3202,25.481 31.6262,25.558 L 31.6262,25.558 C 32.6412,25.809 33.4842,26.463 34.2452,27.148 L 34.2452,27.148 C 35.0172,27.827 35.6502,28.546 36.4952,28.834 L 36.4952,28.834 C 36.6962,28.897 36.8992,28.921 37.1032,28.921 L 37.1032,28.921 C 37.7872,28.914 38.4822,28.679 39.3632,28.467 L 39.3632,28.467 Z" transform=""/><path fill="#fbd702" stroke="none" d="M 37.103,28.2975 C 38.262,28.2905 39.898,27.4195 42.591,27.4205 L 42.591,27.4205 C 43.135,27.4205 43.721,27.4565 44.353,27.5425 L 44.353,27.5425 C 44.424,27.5515 44.488,27.5025 44.498,27.4325 L 44.498,27.4325 C 44.507,27.3605 44.459,27.2965 44.388,27.2875 L 44.388,27.2875 C 43.744,27.2005 43.146,27.1635 42.591,27.1635 L 42.591,27.1635 C 39.852,27.1645 38.141,28.0475 37.103,28.0405 L 37.103,28.0405 C 36.949,28.0405 36.814,28.0225 36.689,27.9835 L 36.689,27.9835 C 35.506,27.6295 34.145,25.2955 31.783,24.6965 L 31.783,24.6965 C 31.419,24.6055 31.062,24.5695 30.71,24.5695 L 30.71,24.5695 C 29.222,24.5725 27.835,25.2085 26.407,25.2055 L 26.407,25.2055 C 25.962,25.2055 25.513,25.1445 25.051,24.9875 L 25.051,24.9875 C 22.759,24.2215 22.386,22.2415 18.99,21.3545 L 18.99,21.3545 C 18.518,21.2325 18.07,21.1875 17.644,21.1875 L 17.644,21.1875 C 16.409,21.1885 15.351,21.5605 14.299,21.5585 L 14.299,21.5585 C 14.02,21.5585 13.74,21.5325 13.456,21.4695 L 13.456,21.4695 C 12.643,21.2925 12.379,20.5425 11.829,19.6605 L 11.829,19.6605 C 11.282,18.7865 10.43,17.8405 8.43901,17.4345 L 8.43901,17.4345 C 8.37001,17.4205 8.30201,17.4655 8.28701,17.5345 L 8.28701,17.5345 C 8.27301,17.6045 8.31801,17.6725 8.38801,17.6865 L 8.38801,17.6865 C 10.316,18.0875 11.077,18.9565 11.611,19.7975 L 11.611,19.7975 C 12.141,20.6295 12.425,21.4925 13.399,21.7195 L 13.399,21.7195 C 13.705,21.7885 14.004,21.8155 14.299,21.8155 L 14.299,21.8155 C 15.411,21.8135 16.462,21.4415 17.644,21.4435 L 17.644,21.4435 C 18.053,21.4435 18.477,21.4875 18.926,21.6035 L 18.926,21.6035 C 22.215,22.4455 22.534,24.3835 24.968,25.2305 L 24.968,25.2305 C 25.46,25.3975 25.938,25.4615 26.407,25.4615 L 26.407,25.4615 C 27.909,25.4585 29.297,24.8225 30.71,24.8255 L 30.71,24.8255 C 31.044,24.8265 31.379,24.8605 31.72,24.9445 L 31.72,24.9445 C 33.968,25.4985 35.258,27.7745 36.611,28.2275 L 36.611,28.2275 C 36.765,28.2755 36.926,28.2965 37.096,28.2965 L 37.096,28.2965 C 37.098,28.2975 37.101,28.2975 37.103,28.2975 L 37.103,28.2975 Z" transform=""/><path fill="#fcd0a1" stroke="none" d="M 99.161,29.5928 S 101.136,26.8008 99.025,23.2588 C 96.914,19.7178 92.078,19.7178 90.852,19.7178 C 89.627,19.7178 81.59,18.7638 77.027,17.3338 S 64.291,12.4988 62.997,11.8178 C 61.703,11.1358 57.958,11.0678 57.889,18.0828 C 57.889,18.0828 69.944,25.1658 74.848,26.1878 C 79.751,27.2088 87.924,29.7288 89.831,29.9328 C 91.738,30.1378 96.097,31.7038 99.161,29.5928 Z" transform=""/><path fill="#e8b986" stroke="none" d="M 97.2544,28.7075 S 98.8894,23.1235 90.9884,22.7825 C 83.0884,22.4415 75.9374,20.8075 72.3284,19.5135 C 68.7184,18.2195 62.7934,15.4275 61.0224,14.2695 S 58.0254,15.5635 57.8904,18.0835 C 57.8904,18.0835 76.7544,26.3925 80.1604,27.0055 C 84.2834,27.7475 95.6874,29.7295 97.2544,28.7075 Z" transform=""/><path fill="#b35138" stroke="none" d="M 54.2805,17.0618 C 55.7785,15.4268 57.4135,15.9038 58.2305,16.1768 C 59.0475,16.4488 58.9805,16.7898 68.1065,20.3988 C 77.2315,24.0088 90.9885,25.8478 90.9885,25.8478 C 92.3515,26.0518 92.6235,25.9838 96.5735,26.5288 C 100.523,27.0738 100.864,31.3638 98.0715,32.7938 C 95.2795,34.2238 86.0165,32.7938 81.4535,32.3178 C 76.8915,31.8408 69.6715,29.6618 64.3595,27.7548 S 54.5525,21.5568 54.2795,21.2848 C 54.0085,21.0118 52.7825,18.6958 54.2805,17.0618 Z" transform=""/><path fill="#9b3924" stroke="none" d="M 81.4539,32.3171 C 76.8909,31.8411 69.6719,29.6611 64.3599,27.7541 S 54.5529,21.5571 54.2799,21.2841 C 54.0239,21.0281 52.9239,18.9631 54.0439,17.3571 C 54.9469,18.2231 56.3999,19.0811 57.5549,19.8101 C 59.1849,20.8401 61.5869,21.2691 72.3109,25.3011 C 83.0359,29.3341 94.4469,29.5921 95.3049,29.6781 C 96.1629,29.7631 96.8289,30.2111 95.9909,30.9641 C 95.2889,31.5951 96.7299,32.7131 97.7019,32.6131 C 98.0459,32.5781 98.4339,32.4511 98.7989,32.2981 C 98.5859,32.4861 98.3449,32.6541 98.0719,32.7931 C 95.2799,34.2241 86.0169,32.7941 81.4539,32.3171 Z" transform=""/><path fill="url(#r-5f9ca16ef4d84981afde8a13cffc1035)" stroke="none" d="M 62.9979,11.818 C 64.2919,12.499 72.2109,15.721 76.7729,17.152 C 81.3359,18.582 89.6269,19.718 90.8529,19.718 C 91.9759,19.718 96.1299,19.721 98.4419,22.447 C 94.7899,19.296 87.8409,21.87 76.5159,19.211 C 69.7239,17.616 67.5069,15.436 61.4149,13.034 C 60.4179,12.64 59.7939,12.6 59.2159,12.813 C 60.4519,11.078 62.1939,11.394 62.9979,11.818 Z" opacity="1" fill-opacity="1" style="opacity: 1;fill-opacity: 1" transform=""/><path fill="url(#r-c84690ebbf2048a38a1f90521527b723)" stroke="none" d="M 96.8308,33.1649 S 95.9248,33.7859 92.6238,31.7719 C 89.0868,29.6149 85.0638,29.3209 82.2718,28.7759 C 79.4788,28.2309 63.2028,22.8509 61.4318,22.1699 C 59.6608,21.4889 54.7328,18.8659 53.8718,18.5599 C 51.7608,17.8109 48.9498,18.0899 50.3988,22.0339 C 51.6248,25.3709 53.9398,28.5039 62.6568,33.4749 C 71.3748,38.4469 85.3948,39.5919 91.7388,37.5619 C 95.1428,36.4709 96.8308,34.1859 96.8308,33.1649 Z" opacity="1" fill-opacity="1" style="opacity: 1;fill-opacity: 1" transform=""/><path fill="#fcd0a1" stroke="none" d="M 53.8728,18.5635 C 54.7338,18.8695 59.6608,21.4915 61.4328,22.1735 C 63.2028,22.8545 79.4798,28.2345 82.2728,28.7795 C 85.0648,29.3235 89.0878,29.6195 92.6238,31.7755 C 95.9258,33.7895 96.8318,33.1685 96.8318,33.1685 C 96.8318,34.0295 95.6278,35.7855 93.2128,36.9685 C 93.0928,36.2435 92.8998,35.6825 92.7748,35.5145 C 92.3878,34.9995 90.0718,34.9995 88.6558,34.3565 C 87.2398,33.7125 80.8058,32.5545 78.6178,32.1685 C 76.4298,31.7825 73.5988,31.6535 72.5698,31.3955 C 71.5398,31.1385 69.6088,30.2375 68.7088,29.9805 C 67.8078,29.7225 68.1938,29.8515 66.2638,29.4655 C 64.3338,29.0795 55.7108,23.2885 53.3948,22.1305 C 51.7928,21.3295 51.2368,19.7295 50.9198,18.4775 C 51.7068,18.0845 52.8678,18.2065 53.8728,18.5635 Z" transform=""/><path fill="#9b3924" stroke="none" d="M 89.3547,28.6603 C 90.2367,28.4463 91.2917,28.2363 92.6017,28.2363 L 92.6017,28.2363 C 93.1317,28.2363 93.7037,28.2713 94.3237,28.3543 L 94.3237,28.3543 L 94.3227,28.3543 C 94.6067,28.3933 94.8677,28.1953 94.9057,27.9133 L 94.9057,27.9133 C 94.9437,27.6313 94.7457,27.3723 94.4617,27.3343 L 94.4617,27.3343 C 93.7967,27.2453 93.1777,27.2073 92.6017,27.2073 L 92.6017,27.2073 C 91.1807,27.2073 90.0277,27.4373 89.1087,27.6613 L 89.1087,27.6613 C 88.1937,27.8873 87.4987,28.0913 87.0817,28.0853 L 87.0817,28.0853 C 86.9577,28.0853 86.8617,28.0703 86.7827,28.0463 L 86.7827,28.0463 C 86.3567,27.9303 85.6887,27.2953 84.8997,26.5753 L 84.8997,26.5753 C 84.1007,25.8643 83.1217,25.0773 81.8247,24.7533 L 81.8247,24.7533 C 81.4247,24.6533 81.0327,24.6133 80.6517,24.6133 L 80.6517,24.6133 C 79.0407,24.6273 77.6467,25.2633 76.3247,25.2493 L 76.3247,25.2493 C 75.9107,25.2483 75.5057,25.1943 75.0847,25.0523 L 75.0847,25.0523 C 74.0187,24.6893 73.4127,24.0793 72.5847,23.3583 L 72.5847,23.3583 C 71.7657,22.6423 70.7307,21.8613 68.9617,21.4103 L 68.9617,21.4103 C 68.4507,21.2793 67.9667,21.2293 67.5097,21.2313 L 67.5097,21.2313 C 66.1857,21.2373 65.1117,21.6113 64.1457,21.6023 L 64.1457,21.6023 C 63.8877,21.6023 63.6367,21.5793 63.3827,21.5223 L 63.3827,21.5223 C 63.0747,21.4473 62.9077,21.3103 62.6927,21.0303 L 62.6927,21.0303 C 62.4837,20.7533 62.2767,20.3413 61.9887,19.8833 L 61.9887,19.8833 C 61.4207,18.9613 60.4257,17.8983 58.3287,17.4863 L 58.3287,17.4863 C 58.0497,17.4283 57.7767,17.6083 57.7187,17.8863 L 57.7187,17.8863 C 57.6607,18.1653 57.8407,18.4363 58.1217,18.4943 L 58.1217,18.4943 C 59.5087,18.7833 60.2007,19.2943 60.6867,19.8493 L 60.6867,19.8493 C 61.1757,20.4083 61.4317,21.0543 61.8597,21.6423 L 61.8597,21.6423 C 62.1437,22.0313 62.5637,22.3983 63.1557,22.5253 L 63.1557,22.5253 C 63.4947,22.6013 63.8247,22.6303 64.1457,22.6303 L 64.1457,22.6303 C 65.3547,22.6213 66.4027,22.2513 67.5097,22.2583 L 67.5097,22.2583 C 67.8927,22.2593 68.2847,22.2993 68.7017,22.4063 L 68.7017,22.4063 C 70.2947,22.8203 71.1147,23.4513 71.9037,24.1323 L 71.9037,24.1323 C 72.6837,24.8073 73.4407,25.5803 74.7507,26.0263 L 74.7507,26.0263 C 75.2897,26.2083 75.8177,26.2773 76.3247,26.2773 L 76.3247,26.2773 C 77.9477,26.2633 79.3447,25.6263 80.6517,25.6413 L 80.6517,25.6413 C 80.9607,25.6413 81.2647,25.6733 81.5737,25.7493 L 81.5737,25.7493 C 82.5947,26.0013 83.4427,26.6553 84.2077,27.3403 L 84.2077,27.3403 C 84.9847,28.0183 85.6207,28.7373 86.4717,29.0263 L 86.4717,29.0263 C 86.6727,29.0893 86.8777,29.1133 87.0817,29.1133 L 87.0817,29.1133 C 87.7697,29.1073 88.4687,28.8723 89.3547,28.6603 L 89.3547,28.6603 Z" transform=""/><path fill="#f6b21a" stroke="none" d="M 89.3632,28.467 C 90.2402,28.253 91.2882,28.043 92.5922,28.043 L 92.5922,28.043 C 93.1182,28.043 93.6872,28.078 94.3032,28.161 L 94.3032,28.161 L 94.3022,28.161 C 94.5852,28.2 94.8442,28.002 94.8812,27.72 L 94.8812,27.72 C 94.9192,27.438 94.7222,27.179 94.4402,27.141 L 94.4402,27.141 C 93.7792,27.052 93.1632,27.014 92.5922,27.014 L 92.5922,27.014 C 91.1792,27.014 90.0312,27.244 89.1182,27.468 L 89.1182,27.468 C 88.2092,27.694 87.5182,27.898 87.1032,27.892 L 87.1032,27.892 C 86.9812,27.892 86.8842,27.877 86.8072,27.853 L 86.8072,27.853 C 86.3822,27.737 85.7182,27.102 84.9342,26.382 L 84.9342,26.382 C 84.1402,25.671 83.1672,24.884 81.8772,24.56 L 81.8772,24.56 C 81.4792,24.46 81.0892,24.42 80.7102,24.42 L 80.7102,24.42 C 79.1092,24.435 77.7232,25.071 76.4082,25.056 L 76.4082,25.056 C 75.9982,25.056 75.5942,25.002 75.1762,24.86 L 75.1762,24.86 C 74.1162,24.498 73.5142,23.887 72.6902,23.166 L 72.6902,23.166 C 71.8762,22.45 70.8472,21.669 69.0882,21.219 L 69.0882,21.219 C 68.5802,21.088 68.0992,21.038 67.6452,21.039 L 67.6452,21.039 C 66.3292,21.045 65.2612,21.419 64.3002,21.41 L 64.3002,21.41 C 64.0442,21.41 63.7942,21.387 63.5422,21.33 L 63.5422,21.33 C 63.2352,21.256 63.0702,21.118 62.8552,20.839 L 62.8552,20.839 C 62.6482,20.562 62.4422,20.15 62.1562,19.692 L 62.1562,19.692 C 61.5912,18.769 60.6032,17.707 58.5182,17.294 L 58.5182,17.294 C 58.2392,17.237 57.9682,17.417 57.9102,17.695 L 57.9102,17.695 C 57.8532,17.973 58.0332,18.245 58.3112,18.302 L 58.3112,18.302 C 59.6902,18.592 60.3772,19.103 60.8612,19.658 L 60.8612,19.658 C 61.3472,20.217 61.6012,20.863 62.0282,21.451 L 62.0282,21.451 C 62.3092,21.839 62.7272,22.207 63.3152,22.334 L 63.3152,22.334 C 63.6522,22.41 63.9812,22.439 64.2992,22.439 L 64.2992,22.439 C 65.5022,22.43 66.5442,22.06 67.6442,22.067 L 67.6442,22.067 C 68.0252,22.068 68.4152,22.108 68.8302,22.215 L 68.8302,22.215 C 70.4132,22.629 71.2282,23.26 72.0122,23.941 L 72.0122,23.941 C 72.7892,24.616 73.5412,25.39 74.8442,25.834 L 74.8442,25.834 C 75.3792,26.016 75.9042,26.086 76.4082,26.086 L 76.4082,26.086 C 78.0212,26.071 79.4102,25.435 80.7102,25.449 L 80.7102,25.449 C 81.0172,25.449 81.3202,25.481 81.6262,25.558 L 81.6262,25.558 C 82.6412,25.809 83.4842,26.463 84.2452,27.148 L 84.2452,27.148 C 85.0172,27.827 85.6502,28.546 86.4952,28.834 L 86.4952,28.834 C 86.6962,28.897 86.8992,28.921 87.1032,28.921 L 87.1032,28.921 C 87.7872,28.914 88.4822,28.679 89.3632,28.467 L 89.3632,28.467 Z" transform=""/><path fill="#fbd702" stroke="none" d="M 87.103,28.2975 C 88.262,28.2905 89.898,27.4195 92.591,27.4205 L 92.591,27.4205 C 93.135,27.4205 93.721,27.4565 94.353,27.5425 L 94.353,27.5425 C 94.424,27.5515 94.488,27.5025 94.498,27.4325 L 94.498,27.4325 C 94.507,27.3605 94.459,27.2965 94.388,27.2875 L 94.388,27.2875 C 93.744,27.2005 93.146,27.1635 92.591,27.1635 L 92.591,27.1635 C 89.852,27.1645 88.141,28.0475 87.103,28.0405 L 87.103,28.0405 C 86.949,28.0405 86.814,28.0225 86.689,27.9835 L 86.689,27.9835 C 85.506,27.6295 84.145,25.2955 81.783,24.6965 L 81.783,24.6965 C 81.419,24.6055 81.062,24.5695 80.71,24.5695 L 80.71,24.5695 C 79.222,24.5725 77.835,25.2085 76.407,25.2055 L 76.407,25.2055 C 75.962,25.2055 75.513,25.1445 75.051,24.9875 L 75.051,24.9875 C 72.759,24.2215 72.386,22.2415 68.99,21.3545 L 68.99,21.3545 C 68.518,21.2325 68.07,21.1875 67.644,21.1875 L 67.644,21.1875 C 66.409,21.1885 65.351,21.5605 64.299,21.5585 L 64.299,21.5585 C 64.02,21.5585 63.74,21.5325 63.456,21.4695 L 63.456,21.4695 C 62.643,21.2925 62.379,20.5425 61.829,19.6605 L 61.829,19.6605 C 61.282,18.7865 60.43,17.8405 58.439,17.4345 L 58.439,17.4345 C 58.37,17.4205 58.302,17.4655 58.287,17.5345 L 58.287,17.5345 C 58.273,17.6045 58.318,17.6725 58.388,17.6865 L 58.388,17.6865 C 60.316,18.0875 61.077,18.9565 61.611,19.7975 L 61.611,19.7975 C 62.141,20.6295 62.425,21.4925 63.399,21.7195 L 63.399,21.7195 C 63.705,21.7885 64.004,21.8155 64.299,21.8155 L 64.299,21.8155 C 65.411,21.8135 66.462,21.4415 67.644,21.4435 L 67.644,21.4435 C 68.053,21.4435 68.477,21.4875 68.926,21.6035 L 68.926,21.6035 C 72.215,22.4455 72.534,24.3835 74.968,25.2305 L 74.968,25.2305 C 75.46,25.3975 75.938,25.4615 76.407,25.4615 L 76.407,25.4615 C 77.909,25.4585 79.297,24.8225 80.71,24.8255 L 80.71,24.8255 C 81.044,24.8265 81.379,24.8605 81.72,24.9445 L 81.72,24.9445 C 83.968,25.4985 85.258,27.7745 86.611,28.2275 L 86.611,28.2275 C 86.765,28.2755 86.926,28.2965 87.096,28.2965 L 87.096,28.2965 C 87.098,28.2975 87.101,28.2975 87.103,28.2975 L 87.103,28.2975 Z" transform=""/><path fill="#fcd0a1" stroke="none" d="M 149.161,29.5928 S 151.136,26.8008 149.025,23.2588 C 146.914,19.7178 142.078,19.7178 140.852,19.7178 C 139.627,19.7178 131.59,18.7638 127.027,17.3338 S 114.291,12.4988 112.997,11.8178 C 111.703,11.1358 107.958,11.0678 107.889,18.0828 C 107.889,18.0828 119.944,25.1658 124.848,26.1878 C 129.751,27.2088 137.924,29.7288 139.831,29.9328 C 141.738,30.1378 146.097,31.7038 149.161,29.5928 Z" transform=""/><path fill="#e8b986" stroke="none" d="M 147.254,28.7075 S 148.889,23.1235 140.988,22.7825 C 133.088,22.4415 125.937,20.8075 122.328,19.5135 C 118.718,18.2195 112.793,15.4275 111.022,14.2695 S 108.025,15.5635 107.89,18.0835 C 107.89,18.0835 126.754,26.3925 130.16,27.0055 C 134.283,27.7475 145.687,29.7295 147.254,28.7075 Z" transform=""/><path fill="#b35138" stroke="none" d="M 104.28,17.0618 C 105.778,15.4268 107.413,15.9038 108.23,16.1768 C 109.047,16.4488 108.98,16.7898 118.106,20.3988 C 127.231,24.0088 140.988,25.8478 140.988,25.8478 C 142.351,26.0518 142.623,25.9838 146.573,26.5288 C 150.523,27.0738 150.864,31.3638 148.071,32.7938 C 145.279,34.2238 136.016,32.7938 131.453,32.3178 C 126.891,31.8408 119.671,29.6618 114.359,27.7548 S 104.552,21.5568 104.279,21.2848 C 104.008,21.0118 102.782,18.6958 104.28,17.0618 Z" transform=""/><path fill="#9b3924" stroke="none" d="M 131.454,32.3171 C 126.891,31.8411 119.672,29.6611 114.36,27.7541 S 104.553,21.5571 104.28,21.2841 C 104.024,21.0281 102.924,18.9631 104.044,17.3571 C 104.947,18.2231 106.4,19.0811 107.555,19.8101 C 109.185,20.8401 111.587,21.2691 122.311,25.3011 C 133.036,29.3341 144.447,29.5921 145.305,29.6781 C 146.163,29.7631 146.829,30.2111 145.991,30.9641 C 145.289,31.5951 146.73,32.7131 147.702,32.6131 C 148.046,32.5781 148.434,32.4511 148.799,32.2981 C 148.586,32.4861 148.345,32.6541 148.072,32.7931 C 145.28,34.2241 136.017,32.7941 131.454,32.3171 Z" transform=""/><path fill="url(#r-21a2af42555d4396b9bc015d4e631cd0)" stroke="none" d="M 112.998,11.818 C 114.292,12.499 122.211,15.721 126.773,17.152 C 131.336,18.582 139.627,19.718 140.853,19.718 C 141.976,19.718 146.13,19.721 148.442,22.447 C 144.79,19.296 137.841,21.87 126.516,19.211 C 119.724,17.616 117.507,15.436 111.415,13.034 C 110.418,12.64 109.794,12.6 109.216,12.813 C 110.452,11.078 112.194,11.394 112.998,11.818 Z" opacity="1" fill-opacity="1" style="opacity: 1;fill-opacity: 1" transform=""/><path fill="url(#r-16102b76d0244fda8a965df24b9b1aa0)" stroke="none" d="M 146.831,33.1649 S 145.925,33.7859 142.624,31.7719 C 139.087,29.6149 135.064,29.3209 132.272,28.7759 C 129.479,28.2309 113.203,22.8509 111.432,22.1699 C 109.661,21.4889 104.733,18.8659 103.872,18.5599 C 101.761,17.8109 98.9498,18.0899 100.399,22.0339 C 101.625,25.3709 103.94,28.5039 112.657,33.4749 C 121.375,38.4469 135.395,39.5919 141.739,37.5619 C 145.143,36.4709 146.831,34.1859 146.831,33.1649 Z" opacity="1" fill-opacity="1" style="opacity: 1;fill-opacity: 1" transform=""/><path fill="#fcd0a1" stroke="none" d="M 103.873,18.5635 C 104.734,18.8695 109.661,21.4915 111.433,22.1735 C 113.203,22.8545 129.48,28.2345 132.273,28.7795 C 135.065,29.3235 139.088,29.6195 142.624,31.7755 C 145.926,33.7895 146.832,33.1685 146.832,33.1685 C 146.832,34.0295 145.628,35.7855 143.213,36.9685 C 143.093,36.2435 142.9,35.6825 142.775,35.5145 C 142.388,34.9995 140.072,34.9995 138.656,34.3565 C 137.24,33.7125 130.806,32.5545 128.618,32.1685 C 126.43,31.7825 123.599,31.6535 122.57,31.3955 C 121.54,31.1385 119.609,30.2375 118.709,29.9805 C 117.808,29.7225 118.194,29.8515 116.264,29.4655 C 114.334,29.0795 105.711,23.2885 103.395,22.1305 C 101.793,21.3295 101.237,19.7295 100.92,18.4775 C 101.707,18.0845 102.868,18.2065 103.873,18.5635 Z" transform=""/><path fill="#9b3924" stroke="none" d="M 139.355,28.6603 C 140.237,28.4463 141.292,28.2363 142.602,28.2363 L 142.602,28.2363 C 143.132,28.2363 143.704,28.2713 144.324,28.3543 L 144.324,28.3543 L 144.323,28.3543 C 144.607,28.3933 144.868,28.1953 144.906,27.9133 L 144.906,27.9133 C 144.944,27.6313 144.746,27.3723 144.462,27.3343 L 144.462,27.3343 C 143.797,27.2453 143.178,27.2073 142.602,27.2073 L 142.602,27.2073 C 141.181,27.2073 140.028,27.4373 139.109,27.6613 L 139.109,27.6613 C 138.194,27.8873 137.499,28.0913 137.082,28.0853 L 137.082,28.0853 C 136.958,28.0853 136.862,28.0703 136.783,28.0463 L 136.783,28.0463 C 136.357,27.9303 135.689,27.2953 134.9,26.5753 L 134.9,26.5753 C 134.101,25.8643 133.122,25.0773 131.825,24.7533 L 131.825,24.7533 C 131.425,24.6533 131.033,24.6133 130.652,24.6133 L 130.652,24.6133 C 129.041,24.6273 127.647,25.2633 126.325,25.2493 L 126.325,25.2493 C 125.911,25.2483 125.506,25.1943 125.085,25.0523 L 125.085,25.0523 C 124.019,24.6893 123.413,24.0793 122.585,23.3583 L 122.585,23.3583 C 121.766,22.6423 120.731,21.8613 118.962,21.4103 L 118.962,21.4103 C 118.451,21.2793 117.967,21.2293 117.51,21.2313 L 117.51,21.2313 C 116.186,21.2373 115.112,21.6113 114.146,21.6023 L 114.146,21.6023 C 113.888,21.6023 113.637,21.5793 113.383,21.5223 L 113.383,21.5223 C 113.075,21.4473 112.908,21.3103 112.693,21.0303 L 112.693,21.0303 C 112.484,20.7533 112.277,20.3413 111.989,19.8833 L 111.989,19.8833 C 111.421,18.9613 110.426,17.8983 108.329,17.4863 L 108.329,17.4863 C 108.05,17.4283 107.777,17.6083 107.719,17.8863 L 107.719,17.8863 C 107.661,18.1653 107.841,18.4363 108.122,18.4943 L 108.122,18.4943 C 109.509,18.7833 110.201,19.2943 110.687,19.8493 L 110.687,19.8493 C 111.176,20.4083 111.432,21.0543 111.86,21.6423 L 111.86,21.6423 C 112.144,22.0313 112.564,22.3983 113.156,22.5253 L 113.156,22.5253 C 113.495,22.6013 113.825,22.6303 114.146,22.6303 L 114.146,22.6303 C 115.355,22.6213 116.403,22.2513 117.51,22.2583 L 117.51,22.2583 C 117.893,22.2593 118.285,22.2993 118.702,22.4063 L 118.702,22.4063 C 120.295,22.8203 121.115,23.4513 121.904,24.1323 L 121.904,24.1323 C 122.684,24.8073 123.441,25.5803 124.751,26.0263 L 124.751,26.0263 C 125.29,26.2083 125.818,26.2773 126.325,26.2773 L 126.325,26.2773 C 127.948,26.2633 129.345,25.6263 130.652,25.6413 L 130.652,25.6413 C 130.961,25.6413 131.265,25.6733 131.574,25.7493 L 131.574,25.7493 C 132.595,26.0013 133.443,26.6553 134.208,27.3403 L 134.208,27.3403 C 134.985,28.0183 135.621,28.7373 136.472,29.0263 L 136.472,29.0263 C 136.673,29.0893 136.878,29.1133 137.082,29.1133 L 137.082,29.1133 C 137.77,29.1073 138.469,28.8723 139.355,28.6603 L 139.355,28.6603 Z" transform=""/><path fill="#f6b21a" stroke="none" d="M 139.363,28.467 C 140.24,28.253 141.288,28.043 142.592,28.043 L 142.592,28.043 C 143.118,28.043 143.687,28.078 144.303,28.161 L 144.303,28.161 L 144.302,28.161 C 144.585,28.2 144.844,28.002 144.881,27.72 L 144.881,27.72 C 144.919,27.438 144.722,27.179 144.44,27.141 L 144.44,27.141 C 143.779,27.052 143.163,27.014 142.592,27.014 L 142.592,27.014 C 141.179,27.014 140.031,27.244 139.118,27.468 L 139.118,27.468 C 138.209,27.694 137.518,27.898 137.103,27.892 L 137.103,27.892 C 136.981,27.892 136.884,27.877 136.807,27.853 L 136.807,27.853 C 136.382,27.737 135.718,27.102 134.934,26.382 L 134.934,26.382 C 134.14,25.671 133.167,24.884 131.877,24.56 L 131.877,24.56 C 131.479,24.46 131.089,24.42 130.71,24.42 L 130.71,24.42 C 129.109,24.435 127.723,25.071 126.408,25.056 L 126.408,25.056 C 125.998,25.056 125.594,25.002 125.176,24.86 L 125.176,24.86 C 124.116,24.498 123.514,23.887 122.69,23.166 L 122.69,23.166 C 121.876,22.45 120.847,21.669 119.088,21.219 L 119.088,21.219 C 118.58,21.088 118.099,21.038 117.645,21.039 L 117.645,21.039 C 116.329,21.045 115.261,21.419 114.3,21.41 L 114.3,21.41 C 114.044,21.41 113.794,21.387 113.542,21.33 L 113.542,21.33 C 113.235,21.256 113.07,21.118 112.855,20.839 L 112.855,20.839 C 112.648,20.562 112.442,20.15 112.156,19.692 L 112.156,19.692 C 111.591,18.769 110.603,17.707 108.518,17.294 L 108.518,17.294 C 108.239,17.237 107.968,17.417 107.91,17.695 L 107.91,17.695 C 107.853,17.973 108.033,18.245 108.311,18.302 L 108.311,18.302 C 109.69,18.592 110.377,19.103 110.861,19.658 L 110.861,19.658 C 111.347,20.217 111.601,20.863 112.028,21.451 L 112.028,21.451 C 112.309,21.839 112.727,22.207 113.315,22.334 L 113.315,22.334 C 113.652,22.41 113.981,22.439 114.299,22.439 L 114.299,22.439 C 115.502,22.43 116.544,22.06 117.644,22.067 L 117.644,22.067 C 118.025,22.068 118.415,22.108 118.83,22.215 L 118.83,22.215 C 120.413,22.629 121.228,23.26 122.012,23.941 L 122.012,23.941 C 122.789,24.616 123.541,25.39 124.844,25.834 L 124.844,25.834 C 125.379,26.016 125.904,26.086 126.408,26.086 L 126.408,26.086 C 128.021,26.071 129.41,25.435 130.71,25.449 L 130.71,25.449 C 131.017,25.449 131.32,25.481 131.626,25.558 L 131.626,25.558 C 132.641,25.809 133.484,26.463 134.245,27.148 L 134.245,27.148 C 135.017,27.827 135.65,28.546 136.495,28.834 L 136.495,28.834 C 136.696,28.897 136.899,28.921 137.103,28.921 L 137.103,28.921 C 137.787,28.914 138.482,28.679 139.363,28.467 L 139.363,28.467 Z" transform=""/><path fill="#fbd702" stroke="none" d="M 137.103,28.2975 C 138.262,28.2905 139.898,27.4195 142.591,27.4205 L 142.591,27.4205 C 143.135,27.4205 143.721,27.4565 144.353,27.5425 L 144.353,27.5425 C 144.424,27.5515 144.488,27.5025 144.498,27.4325 L 144.498,27.4325 C 144.507,27.3605 144.459,27.2965 144.388,27.2875 L 144.388,27.2875 C 143.744,27.2005 143.146,27.1635 142.591,27.1635 L 142.591,27.1635 C 139.852,27.1645 138.141,28.0475 137.103,28.0405 L 137.103,28.0405 C 136.949,28.0405 136.814,28.0225 136.689,27.9835 L 136.689,27.9835 C 135.506,27.6295 134.145,25.2955 131.783,24.6965 L 131.783,24.6965 C 131.419,24.6055 131.062,24.5695 130.71,24.5695 L 130.71,24.5695 C 129.222,24.5725 127.835,25.2085 126.407,25.2055 L 126.407,25.2055 C 125.962,25.2055 125.513,25.1445 125.051,24.9875 L 125.051,24.9875 C 122.759,24.2215 122.386,22.2415 118.99,21.3545 L 118.99,21.3545 C 118.518,21.2325 118.07,21.1875 117.644,21.1875 L 117.644,21.1875 C 116.409,21.1885 115.351,21.5605 114.299,21.5585 L 114.299,21.5585 C 114.02,21.5585 113.74,21.5325 113.456,21.4695 L 113.456,21.4695 C 112.643,21.2925 112.379,20.5425 111.829,19.6605 L 111.829,19.6605 C 111.282,18.7865 110.43,17.8405 108.439,17.4345 L 108.439,17.4345 C 108.37,17.4205 108.302,17.4655 108.287,17.5345 L 108.287,17.5345 C 108.273,17.6045 108.318,17.6725 108.388,17.6865 L 108.388,17.6865 C 110.316,18.0875 111.077,18.9565 111.611,19.7975 L 111.611,19.7975 C 112.141,20.6295 112.425,21.4925 113.399,21.7195 L 113.399,21.7195 C 113.705,21.7885 114.004,21.8155 114.299,21.8155 L 114.299,21.8155 C 115.411,21.8135 116.462,21.4415 117.644,21.4435 L 117.644,21.4435 C 118.053,21.4435 118.477,21.4875 118.926,21.6035 L 118.926,21.6035 C 122.215,22.4455 122.534,24.3835 124.968,25.2305 L 124.968,25.2305 C 125.46,25.3975 125.938,25.4615 126.407,25.4615 L 126.407,25.4615 C 127.909,25.4585 129.297,24.8225 130.71,24.8255 L 130.71,24.8255 C 131.044,24.8265 131.379,24.8605 131.72,24.9445 L 131.72,24.9445 C 133.968,25.4985 135.258,27.7745 136.611,28.2275 L 136.611,28.2275 C 136.765,28.2755 136.926,28.2965 137.096,28.2965 L 137.096,28.2965 C 137.098,28.2975 137.101,28.2975 137.103,28.2975 L 137.103,28.2975 Z" transform=""/><path fill="#fcd0a1" stroke="none" d="M 199.161,29.5928 S 201.136,26.8008 199.025,23.2588 C 196.914,19.7178 192.078,19.7178 190.852,19.7178 C 189.627,19.7178 181.59,18.7638 177.027,17.3338 S 164.291,12.4988 162.997,11.8178 C 161.703,11.1358 157.958,11.0678 157.889,18.0828 C 157.889,18.0828 169.944,25.1658 174.848,26.1878 C 179.751,27.2088 187.924,29.7288 189.831,29.9328 C 191.738,30.1378 196.097,31.7038 199.161,29.5928 Z" transform=""/><path fill="#e8b986" stroke="none" d="M 197.254,28.7075 S 198.889,23.1235 190.988,22.7825 C 183.088,22.4415 175.937,20.8075 172.328,19.5135 C 168.718,18.2195 162.793,15.4275 161.022,14.2695 C 159.251,13.1115 158.025,15.5635 157.89,18.0835 C 157.89,18.0835 176.754,26.3925 180.16,27.0055 C 184.283,27.7475 195.687,29.7295 197.254,28.7075 Z" transform=""/><path fill="#b35138" stroke="none" d="M 154.28,17.0618 C 155.778,15.4268 157.413,15.9038 158.23,16.1768 C 159.047,16.4488 158.98,16.7898 168.106,20.3988 C 177.231,24.0088 190.988,25.8478 190.988,25.8478 C 192.351,26.0518 192.623,25.9838 196.573,26.5288 C 200.523,27.0738 200.864,31.3638 198.071,32.7938 C 195.279,34.2238 186.016,32.7938 181.453,32.3178 C 176.891,31.8408 169.671,29.6618 164.359,27.7548 C 159.047,25.8478 154.552,21.5568 154.279,21.2848 C 154.008,21.0118 152.782,18.6958 154.28,17.0618 Z" transform=""/><path fill="#9b3924" stroke="none" d="M 181.454,32.3171 C 176.891,31.8411 169.672,29.6611 164.36,27.7541 C 159.048,25.8471 154.553,21.5571 154.28,21.2841 C 154.024,21.0281 152.924,18.9631 154.044,17.3571 C 154.947,18.2231 156.4,19.0811 157.555,19.8101 C 159.185,20.8401 161.587,21.2691 172.311,25.3011 C 183.036,29.3341 194.447,29.5921 195.305,29.6781 C 196.163,29.7631 196.829,30.2111 195.991,30.9641 C 195.289,31.5951 196.73,32.7131 197.702,32.6131 C 198.046,32.5781 198.434,32.4511 198.799,32.2981 C 198.586,32.4861 198.345,32.6541 198.072,32.7931 C 195.28,34.2241 186.017,32.7941 181.454,32.3171 Z" transform=""/><path fill="url(#r-05e8a934f4de47c68bc3214993114d7d)" stroke="none" d="M 162.998,11.818 C 164.292,12.499 172.211,15.721 176.773,17.152 C 181.336,18.582 189.627,19.718 190.853,19.718 C 191.976,19.718 196.13,19.721 198.442,22.447 C 194.79,19.296 187.841,21.87 176.516,19.211 C 169.724,17.616 167.507,15.436 161.415,13.034 C 160.418,12.64 159.794,12.6 159.216,12.813 C 160.452,11.078 162.194,11.394 162.998,11.818 Z" opacity="1" fill-opacity="1" style="opacity: 1;fill-opacity: 1" transform=""/><path fill="url(#r-9be1cdc13ab84039845c3f0be54f67e8)" stroke="none" d="M 196.831,33.1649 S 195.925,33.7859 192.624,31.7719 C 189.087,29.6149 185.064,29.3209 182.272,28.7759 C 179.479,28.2309 163.203,22.8509 161.432,22.1699 C 159.661,21.4889 154.733,18.8659 153.872,18.5599 C 151.761,17.8109 148.95,18.0899 150.399,22.0339 C 151.625,25.3709 153.94,28.5039 162.657,33.4749 C 171.375,38.4469 185.395,39.5919 191.739,37.5619 C 195.143,36.4709 196.831,34.1859 196.831,33.1649 Z" opacity="1" fill-opacity="1" style="opacity: 1;fill-opacity: 1" transform=""/><path fill="#fcd0a1" stroke="none" d="M 153.873,18.5635 C 154.734,18.8695 159.661,21.4915 161.433,22.1735 C 163.203,22.8545 179.48,28.2345 182.273,28.7795 C 185.065,29.3235 189.088,29.6195 192.624,31.7755 C 195.926,33.7895 196.832,33.1685 196.832,33.1685 C 196.832,34.0295 195.628,35.7855 193.213,36.9685 C 193.093,36.2435 192.9,35.6825 192.775,35.5145 C 192.388,34.9995 190.072,34.9995 188.656,34.3565 C 187.24,33.7125 180.806,32.5545 178.618,32.1685 C 176.43,31.7825 173.599,31.6535 172.57,31.3955 C 171.54,31.1385 169.609,30.2375 168.709,29.9805 C 167.808,29.7225 168.194,29.8515 166.264,29.4655 S 155.711,23.2885 153.395,22.1305 C 151.793,21.3295 151.237,19.7295 150.92,18.4775 C 151.707,18.0845 152.868,18.2065 153.873,18.5635 Z" transform=""/><path fill="#9b3924" stroke="none" d="M 189.355,28.6603 C 190.237,28.4463 191.292,28.2363 192.602,28.2363 L 192.602,28.2363 C 193.132,28.2363 193.704,28.2713 194.324,28.3543 L 194.324,28.3543 L 194.323,28.3543 C 194.607,28.3933 194.868,28.1953 194.906,27.9133 L 194.906,27.9133 C 194.944,27.6313 194.746,27.3723 194.462,27.3343 L 194.462,27.3343 C 193.797,27.2453 193.178,27.2073 192.602,27.2073 L 192.602,27.2073 C 191.181,27.2073 190.028,27.4373 189.109,27.6613 L 189.109,27.6613 C 188.194,27.8873 187.499,28.0913 187.082,28.0853 L 187.082,28.0853 C 186.958,28.0853 186.862,28.0703 186.783,28.0463 L 186.783,28.0463 C 186.357,27.9303 185.689,27.2953 184.9,26.5753 L 184.9,26.5753 C 184.101,25.8643 183.122,25.0773 181.825,24.7533 L 181.825,24.7533 C 181.425,24.6533 181.033,24.6133 180.652,24.6133 L 180.652,24.6133 C 179.041,24.6273 177.647,25.2633 176.325,25.2493 L 176.325,25.2493 C 175.911,25.2483 175.506,25.1943 175.085,25.0523 L 175.085,25.0523 C 174.019,24.6893 173.413,24.0793 172.585,23.3583 L 172.585,23.3583 C 171.766,22.6423 170.731,21.8613 168.962,21.4103 L 168.962,21.4103 C 168.451,21.2793 167.967,21.2293 167.51,21.2313 L 167.51,21.2313 C 166.186,21.2373 165.112,21.6113 164.146,21.6023 L 164.146,21.6023 C 163.888,21.6023 163.637,21.5793 163.383,21.5223 L 163.383,21.5223 C 163.075,21.4473 162.908,21.3103 162.693,21.0303 L 162.693,21.0303 C 162.484,20.7533 162.277,20.3413 161.989,19.8833 L 161.989,19.8833 C 161.421,18.9613 160.426,17.8983 158.329,17.4863 L 158.329,17.4863 C 158.05,17.4283 157.777,17.6083 157.719,17.8863 L 157.719,17.8863 C 157.661,18.1653 157.841,18.4363 158.122,18.4943 L 158.122,18.4943 C 159.509,18.7833 160.201,19.2943 160.687,19.8493 L 160.687,19.8493 C 161.176,20.4083 161.432,21.0543 161.86,21.6423 L 161.86,21.6423 C 162.144,22.0313 162.564,22.3983 163.156,22.5253 L 163.156,22.5253 C 163.495,22.6013 163.825,22.6303 164.146,22.6303 L 164.146,22.6303 C 165.355,22.6213 166.403,22.2513 167.51,22.2583 L 167.51,22.2583 C 167.893,22.2593 168.285,22.2993 168.702,22.4063 L 168.702,22.4063 C 170.295,22.8203 171.115,23.4513 171.904,24.1323 L 171.904,24.1323 C 172.684,24.8073 173.441,25.5803 174.751,26.0263 L 174.751,26.0263 C 175.29,26.2083 175.818,26.2773 176.325,26.2773 L 176.325,26.2773 C 177.948,26.2633 179.345,25.6263 180.652,25.6413 L 180.652,25.6413 C 180.961,25.6413 181.265,25.6733 181.574,25.7493 L 181.574,25.7493 C 182.595,26.0013 183.443,26.6553 184.208,27.3403 L 184.208,27.3403 C 184.985,28.0183 185.621,28.7373 186.472,29.0263 L 186.472,29.0263 C 186.673,29.0893 186.878,29.1133 187.082,29.1133 L 187.082,29.1133 C 187.77,29.1073 188.469,28.8723 189.355,28.6603 L 189.355,28.6603 Z" transform=""/><path fill="#f6b21a" stroke="none" d="M 189.363,28.467 C 190.24,28.253 191.288,28.043 192.592,28.043 L 192.592,28.043 C 193.118,28.043 193.687,28.078 194.303,28.161 L 194.303,28.161 L 194.302,28.161 C 194.585,28.2 194.844,28.002 194.881,27.72 L 194.881,27.72 C 194.919,27.438 194.722,27.179 194.44,27.141 L 194.44,27.141 C 193.779,27.052 193.163,27.014 192.592,27.014 L 192.592,27.014 C 191.179,27.014 190.031,27.244 189.118,27.468 L 189.118,27.468 C 188.209,27.694 187.518,27.898 187.103,27.892 L 187.103,27.892 C 186.981,27.892 186.884,27.877 186.807,27.853 L 186.807,27.853 C 186.382,27.737 185.718,27.102 184.934,26.382 L 184.934,26.382 C 184.14,25.671 183.167,24.884 181.877,24.56 L 181.877,24.56 C 181.479,24.46 181.089,24.42 180.71,24.42 L 180.71,24.42 C 179.109,24.435 177.723,25.071 176.408,25.056 L 176.408,25.056 C 175.998,25.056 175.594,25.002 175.176,24.86 L 175.176,24.86 C 174.116,24.498 173.514,23.887 172.69,23.166 L 172.69,23.166 C 171.876,22.45 170.847,21.669 169.088,21.219 L 169.088,21.219 C 168.58,21.088 168.099,21.038 167.645,21.039 L 167.645,21.039 C 166.329,21.045 165.261,21.419 164.3,21.41 L 164.3,21.41 C 164.044,21.41 163.794,21.387 163.542,21.33 L 163.542,21.33 C 163.235,21.256 163.07,21.118 162.855,20.839 L 162.855,20.839 C 162.648,20.562 162.442,20.15 162.156,19.692 L 162.156,19.692 C 161.591,18.769 160.603,17.707 158.518,17.294 L 158.518,17.294 C 158.239,17.237 157.968,17.417 157.91,17.695 L 157.91,17.695 C 157.853,17.973 158.033,18.245 158.311,18.302 L 158.311,18.302 C 159.69,18.592 160.377,19.103 160.861,19.658 L 160.861,19.658 C 161.347,20.217 161.601,20.863 162.028,21.451 L 162.028,21.451 C 162.309,21.839 162.727,22.207 163.315,22.334 L 163.315,22.334 C 163.652,22.41 163.981,22.439 164.299,22.439 L 164.299,22.439 C 165.502,22.43 166.544,22.06 167.644,22.067 L 167.644,22.067 C 168.025,22.068 168.415,22.108 168.83,22.215 L 168.83,22.215 C 170.413,22.629 171.228,23.26 172.012,23.941 L 172.012,23.941 C 172.789,24.616 173.541,25.39 174.844,25.834 L 174.844,25.834 C 175.379,26.016 175.904,26.086 176.408,26.086 L 176.408,26.086 C 178.021,26.071 179.41,25.435 180.71,25.449 L 180.71,25.449 C 181.017,25.449 181.32,25.481 181.626,25.558 L 181.626,25.558 C 182.641,25.809 183.484,26.463 184.245,27.148 L 184.245,27.148 C 185.017,27.827 185.65,28.546 186.495,28.834 L 186.495,28.834 C 186.696,28.897 186.899,28.921 187.103,28.921 L 187.103,28.921 C 187.787,28.914 188.482,28.679 189.363,28.467 L 189.363,28.467 Z" transform=""/><path fill="#fbd702" stroke="none" d="M 187.103,28.2975 C 188.262,28.2905 189.898,27.4195 192.591,27.4205 L 192.591,27.4205 C 193.135,27.4205 193.721,27.4565 194.353,27.5425 L 194.353,27.5425 C 194.424,27.5515 194.488,27.5025 194.498,27.4325 L 194.498,27.4325 C 194.507,27.3605 194.459,27.2965 194.388,27.2875 L 194.388,27.2875 C 193.744,27.2005 193.146,27.1635 192.591,27.1635 L 192.591,27.1635 C 189.852,27.1645 188.141,28.0475 187.103,28.0405 L 187.103,28.0405 C 186.949,28.0405 186.814,28.0225 186.689,27.9835 L 186.689,27.9835 C 185.506,27.6295 184.145,25.2955 181.783,24.6965 L 181.783,24.6965 C 181.419,24.6055 181.062,24.5695 180.71,24.5695 L 180.71,24.5695 C 179.222,24.5725 177.835,25.2085 176.407,25.2055 L 176.407,25.2055 C 175.962,25.2055 175.513,25.1445 175.051,24.9875 L 175.051,24.9875 C 172.759,24.2215 172.386,22.2415 168.99,21.3545 L 168.99,21.3545 C 168.518,21.2325 168.07,21.1875 167.644,21.1875 L 167.644,21.1875 C 166.409,21.1885 165.351,21.5605 164.299,21.5585 L 164.299,21.5585 C 164.02,21.5585 163.74,21.5325 163.456,21.4695 L 163.456,21.4695 C 162.643,21.2925 162.379,20.5425 161.829,19.6605 L 161.829,19.6605 C 161.282,18.7865 160.43,17.8405 158.439,17.4345 L 158.439,17.4345 C 158.37,17.4205 158.302,17.4655 158.287,17.5345 L 158.287,17.5345 C 158.273,17.6045 158.318,17.6725 158.388,17.6865 L 158.388,17.6865 C 160.316,18.0875 161.077,18.9565 161.611,19.7975 L 161.611,19.7975 C 162.141,20.6295 162.425,21.4925 163.399,21.7195 L 163.399,21.7195 C 163.705,21.7885 164.004,21.8155 164.299,21.8155 L 164.299,21.8155 C 165.411,21.8135 166.462,21.4415 167.644,21.4435 L 167.644,21.4435 C 168.053,21.4435 168.477,21.4875 168.926,21.6035 L 168.926,21.6035 C 172.215,22.4455 172.534,24.3835 174.968,25.2305 L 174.968,25.2305 C 175.46,25.3975 175.938,25.4615 176.407,25.4615 L 176.407,25.4615 C 177.909,25.4585 179.297,24.8225 180.71,24.8255 L 180.71,24.8255 C 181.044,24.8265 181.379,24.8605 181.72,24.9445 L 181.72,24.9445 C 183.968,25.4985 185.258,27.7745 186.611,28.2275 L 186.611,28.2275 C 186.765,28.2755 186.926,28.2965 187.096,28.2965 L 187.096,28.2965 C 187.098,28.2975 187.101,28.2975 187.103,28.2975 L 187.103,28.2975 Z" transform=""/><path fill="#fcd0a1" stroke="none" d="M 249.161,29.5928 S 251.136,26.8008 249.025,23.2588 C 246.914,19.7178 242.078,19.7178 240.852,19.7178 C 239.627,19.7178 231.59,18.7638 227.027,17.3338 S 214.291,12.4988 212.997,11.8178 C 211.703,11.1358 207.958,11.0678 207.889,18.0828 C 207.889,18.0828 219.944,25.1658 224.848,26.1878 C 229.751,27.2088 237.924,29.7288 239.831,29.9328 C 241.738,30.1378 246.097,31.7038 249.161,29.5928 Z" transform=""/><path fill="#e8b986" stroke="none" d="M 247.254,28.7075 S 248.889,23.1235 240.988,22.7825 C 233.088,22.4415 225.937,20.8075 222.328,19.5135 C 218.718,18.2195 212.793,15.4275 211.022,14.2695 C 209.251,13.1115 208.025,15.5635 207.89,18.0835 C 207.89,18.0835 226.754,26.3925 230.16,27.0055 C 234.283,27.7475 245.687,29.7295 247.254,28.7075 Z" transform=""/><path fill="#b35138" stroke="none" d="M 204.28,17.0618 C 205.778,15.4268 207.413,15.9038 208.23,16.1768 C 209.047,16.4488 208.98,16.7898 218.106,20.3988 C 227.231,24.0088 240.988,25.8478 240.988,25.8478 C 242.351,26.0518 242.623,25.9838 246.573,26.5288 C 250.523,27.0738 250.864,31.3638 248.071,32.7938 C 245.279,34.2238 236.016,32.7938 231.453,32.3178 C 226.891,31.8408 219.671,29.6618 214.359,27.7548 C 209.047,25.8478 204.552,21.5568 204.279,21.2848 C 204.008,21.0118 202.782,18.6958 204.28,17.0618 Z" transform=""/><path fill="#9b3924" stroke="none" d="M 231.454,32.3171 C 226.891,31.8411 219.672,29.6611 214.36,27.7541 C 209.048,25.8471 204.553,21.5571 204.28,21.2841 C 204.024,21.0281 202.924,18.9631 204.044,17.3571 C 204.947,18.2231 206.4,19.0811 207.555,19.8101 C 209.185,20.8401 211.587,21.2691 222.311,25.3011 C 233.036,29.3341 244.447,29.5921 245.305,29.6781 C 246.163,29.7631 246.829,30.2111 245.991,30.9641 C 245.289,31.5951 246.73,32.7131 247.702,32.6131 C 248.046,32.5781 248.434,32.4511 248.799,32.2981 C 248.586,32.4861 248.345,32.6541 248.072,32.7931 C 245.28,34.2241 236.017,32.7941 231.454,32.3171 Z" transform=""/><path fill="url(#r-d858059c92ff42ec96e8c235118f44de)" stroke="none" d="M 212.998,11.818 C 214.292,12.499 222.211,15.721 226.773,17.152 C 231.336,18.582 239.627,19.718 240.853,19.718 C 241.976,19.718 246.13,19.721 248.442,22.447 C 244.79,19.296 237.841,21.87 226.516,19.211 C 219.724,17.616 217.507,15.436 211.415,13.034 C 210.418,12.64 209.794,12.6 209.216,12.813 C 210.452,11.078 212.194,11.394 212.998,11.818 Z" opacity="1" fill-opacity="1" style="opacity: 1;fill-opacity: 1" transform=""/><path fill="url(#r-c0dadc20e31042d2bc07625866a10f2a)" stroke="none" d="M 246.831,33.1649 S 245.925,33.7859 242.624,31.7719 C 239.087,29.6149 235.064,29.3209 232.272,28.7759 C 229.479,28.2309 213.203,22.8509 211.432,22.1699 C 209.661,21.4889 204.733,18.8659 203.872,18.5599 C 201.761,17.8109 198.95,18.0899 200.399,22.0339 C 201.625,25.3709 203.94,28.5039 212.657,33.4749 C 221.375,38.4469 235.395,39.5919 241.739,37.5619 C 245.143,36.4709 246.831,34.1859 246.831,33.1649 Z" opacity="1" fill-opacity="1" style="opacity: 1;fill-opacity: 1" transform=""/><path fill="#fcd0a1" stroke="none" d="M 203.873,18.5635 C 204.734,18.8695 209.661,21.4915 211.433,22.1735 C 213.203,22.8545 229.48,28.2345 232.273,28.7795 C 235.065,29.3235 239.088,29.6195 242.624,31.7755 C 245.926,33.7895 246.832,33.1685 246.832,33.1685 C 246.832,34.0295 245.628,35.7855 243.213,36.9685 C 243.093,36.2435 242.9,35.6825 242.775,35.5145 C 242.388,34.9995 240.072,34.9995 238.656,34.3565 C 237.24,33.7125 230.806,32.5545 228.618,32.1685 C 226.43,31.7825 223.599,31.6535 222.57,31.3955 C 221.54,31.1385 219.609,30.2375 218.709,29.9805 C 217.808,29.7225 218.194,29.8515 216.264,29.4655 S 205.711,23.2885 203.395,22.1305 C 201.793,21.3295 201.237,19.7295 200.92,18.4775 C 201.707,18.0845 202.868,18.2065 203.873,18.5635 Z" transform=""/><path fill="#9b3924" stroke="none" d="M 239.355,28.6603 C 240.237,28.4463 241.292,28.2363 242.602,28.2363 L 242.602,28.2363 C 243.132,28.2363 243.704,28.2713 244.324,28.3543 L 244.324,28.3543 L 244.323,28.3543 C 244.607,28.3933 244.868,28.1953 244.906,27.9133 L 244.906,27.9133 C 244.944,27.6313 244.746,27.3723 244.462,27.3343 L 244.462,27.3343 C 243.797,27.2453 243.178,27.2073 242.602,27.2073 L 242.602,27.2073 C 241.181,27.2073 240.028,27.4373 239.109,27.6613 L 239.109,27.6613 C 238.194,27.8873 237.499,28.0913 237.082,28.0853 L 237.082,28.0853 C 236.958,28.0853 236.862,28.0703 236.783,28.0463 L 236.783,28.0463 C 236.357,27.9303 235.689,27.2953 234.9,26.5753 L 234.9,26.5753 C 234.101,25.8643 233.122,25.0773 231.825,24.7533 L 231.825,24.7533 C 231.425,24.6533 231.033,24.6133 230.652,24.6133 L 230.652,24.6133 C 229.041,24.6273 227.647,25.2633 226.325,25.2493 L 226.325,25.2493 C 225.911,25.2483 225.506,25.1943 225.085,25.0523 L 225.085,25.0523 C 224.019,24.6893 223.413,24.0793 222.585,23.3583 L 222.585,23.3583 C 221.766,22.6423 220.731,21.8613 218.962,21.4103 L 218.962,21.4103 C 218.451,21.2793 217.967,21.2293 217.51,21.2313 L 217.51,21.2313 C 216.186,21.2373 215.112,21.6113 214.146,21.6023 L 214.146,21.6023 C 213.888,21.6023 213.637,21.5793 213.383,21.5223 L 213.383,21.5223 C 213.075,21.4473 212.908,21.3103 212.693,21.0303 L 212.693,21.0303 C 212.484,20.7533 212.277,20.3413 211.989,19.8833 L 211.989,19.8833 C 211.421,18.9613 210.426,17.8983 208.329,17.4863 L 208.329,17.4863 C 208.05,17.4283 207.777,17.6083 207.719,17.8863 L 207.719,17.8863 C 207.661,18.1653 207.841,18.4363 208.122,18.4943 L 208.122,18.4943 C 209.509,18.7833 210.201,19.2943 210.687,19.8493 L 210.687,19.8493 C 211.176,20.4083 211.432,21.0543 211.86,21.6423 L 211.86,21.6423 C 212.144,22.0313 212.564,22.3983 213.156,22.5253 L 213.156,22.5253 C 213.495,22.6013 213.825,22.6303 214.146,22.6303 L 214.146,22.6303 C 215.355,22.6213 216.403,22.2513 217.51,22.2583 L 217.51,22.2583 C 217.893,22.2593 218.285,22.2993 218.702,22.4063 L 218.702,22.4063 C 220.295,22.8203 221.115,23.4513 221.904,24.1323 L 221.904,24.1323 C 222.684,24.8073 223.441,25.5803 224.751,26.0263 L 224.751,26.0263 C 225.29,26.2083 225.818,26.2773 226.325,26.2773 L 226.325,26.2773 C 227.948,26.2633 229.345,25.6263 230.652,25.6413 L 230.652,25.6413 C 230.961,25.6413 231.265,25.6733 231.574,25.7493 L 231.574,25.7493 C 232.595,26.0013 233.443,26.6553 234.208,27.3403 L 234.208,27.3403 C 234.985,28.0183 235.621,28.7373 236.472,29.0263 L 236.472,29.0263 C 236.673,29.0893 236.878,29.1133 237.082,29.1133 L 237.082,29.1133 C 237.77,29.1073 238.469,28.8723 239.355,28.6603 L 239.355,28.6603 Z" transform=""/><path fill="#f6b21a" stroke="none" d="M 239.363,28.467 C 240.24,28.253 241.288,28.043 242.592,28.043 L 242.592,28.043 C 243.118,28.043 243.687,28.078 244.303,28.161 L 244.303,28.161 L 244.302,28.161 C 244.585,28.2 244.844,28.002 244.881,27.72 L 244.881,27.72 C 244.919,27.438 244.722,27.179 244.44,27.141 L 244.44,27.141 C 243.779,27.052 243.163,27.014 242.592,27.014 L 242.592,27.014 C 241.179,27.014 240.031,27.244 239.118,27.468 L 239.118,27.468 C 238.209,27.694 237.518,27.898 237.103,27.892 L 237.103,27.892 C 236.981,27.892 236.884,27.877 236.807,27.853 L 236.807,27.853 C 236.382,27.737 235.718,27.102 234.934,26.382 L 234.934,26.382 C 234.14,25.671 233.167,24.884 231.877,24.56 L 231.877,24.56 C 231.479,24.46 231.089,24.42 230.71,24.42 L 230.71,24.42 C 229.109,24.435 227.723,25.071 226.408,25.056 L 226.408,25.056 C 225.998,25.056 225.594,25.002 225.176,24.86 L 225.176,24.86 C 224.116,24.498 223.514,23.887 222.69,23.166 L 222.69,23.166 C 221.876,22.45 220.847,21.669 219.088,21.219 L 219.088,21.219 C 218.58,21.088 218.099,21.038 217.645,21.039 L 217.645,21.039 C 216.329,21.045 215.261,21.419 214.3,21.41 L 214.3,21.41 C 214.044,21.41 213.794,21.387 213.542,21.33 L 213.542,21.33 C 213.235,21.256 213.07,21.118 212.855,20.839 L 212.855,20.839 C 212.648,20.562 212.442,20.15 212.156,19.692 L 212.156,19.692 C 211.591,18.769 210.603,17.707 208.518,17.294 L 208.518,17.294 C 208.239,17.237 207.968,17.417 207.91,17.695 L 207.91,17.695 C 207.853,17.973 208.033,18.245 208.311,18.302 L 208.311,18.302 C 209.69,18.592 210.377,19.103 210.861,19.658 L 210.861,19.658 C 211.347,20.217 211.601,20.863 212.028,21.451 L 212.028,21.451 C 212.309,21.839 212.727,22.207 213.315,22.334 L 213.315,22.334 C 213.652,22.41 213.981,22.439 214.299,22.439 L 214.299,22.439 C 215.502,22.43 216.544,22.06 217.644,22.067 L 217.644,22.067 C 218.025,22.068 218.415,22.108 218.83,22.215 L 218.83,22.215 C 220.413,22.629 221.228,23.26 222.012,23.941 L 222.012,23.941 C 222.789,24.616 223.541,25.39 224.844,25.834 L 224.844,25.834 C 225.379,26.016 225.904,26.086 226.408,26.086 L 226.408,26.086 C 228.021,26.071 229.41,25.435 230.71,25.449 L 230.71,25.449 C 231.017,25.449 231.32,25.481 231.626,25.558 L 231.626,25.558 C 232.641,25.809 233.484,26.463 234.245,27.148 L 234.245,27.148 C 235.017,27.827 235.65,28.546 236.495,28.834 L 236.495,28.834 C 236.696,28.897 236.899,28.921 237.103,28.921 L 237.103,28.921 C 237.787,28.914 238.482,28.679 239.363,28.467 L 239.363,28.467 Z" transform=""/><path fill="#fbd702" stroke="none" d="M 237.103,28.2975 C 238.262,28.2905 239.898,27.4195 242.591,27.4205 L 242.591,27.4205 C 243.135,27.4205 243.721,27.4565 244.353,27.5425 L 244.353,27.5425 C 244.424,27.5515 244.488,27.5025 244.498,27.4325 L 244.498,27.4325 C 244.507,27.3605 244.459,27.2965 244.388,27.2875 L 244.388,27.2875 C 243.744,27.2005 243.146,27.1635 242.591,27.1635 L 242.591,27.1635 C 239.852,27.1645 238.141,28.0475 237.103,28.0405 L 237.103,28.0405 C 236.949,28.0405 236.814,28.0225 236.689,27.9835 L 236.689,27.9835 C 235.506,27.6295 234.145,25.2955 231.783,24.6965 L 231.783,24.6965 C 231.419,24.6055 231.062,24.5695 230.71,24.5695 L 230.71,24.5695 C 229.222,24.5725 227.835,25.2085 226.407,25.2055 L 226.407,25.2055 C 225.962,25.2055 225.513,25.1445 225.051,24.9875 L 225.051,24.9875 C 222.759,24.2215 222.386,22.2415 218.99,21.3545 L 218.99,21.3545 C 218.518,21.2325 218.07,21.1875 217.644,21.1875 L 217.644,21.1875 C 216.409,21.1885 215.351,21.5605 214.299,21.5585 L 214.299,21.5585 C 214.02,21.5585 213.74,21.5325 213.456,21.4695 L 213.456,21.4695 C 212.643,21.2925 212.379,20.5425 211.829,19.6605 L 211.829,19.6605 C 211.282,18.7865 210.43,17.8405 208.439,17.4345 L 208.439,17.4345 C 208.37,17.4205 208.302,17.4655 208.287,17.5345 L 208.287,17.5345 C 208.273,17.6045 208.318,17.6725 208.388,17.6865 L 208.388,17.6865 C 210.316,18.0875 211.077,18.9565 211.611,19.7975 L 211.611,19.7975 C 212.141,20.6295 212.425,21.4925 213.399,21.7195 L 213.399,21.7195 C 213.705,21.7885 214.004,21.8155 214.299,21.8155 L 214.299,21.8155 C 215.411,21.8135 216.462,21.4415 217.644,21.4435 L 217.644,21.4435 C 218.053,21.4435 218.477,21.4875 218.926,21.6035 L 218.926,21.6035 C 222.215,22.4455 222.534,24.3835 224.968,25.2305 L 224.968,25.2305 C 225.46,25.3975 225.938,25.4615 226.407,25.4615 L 226.407,25.4615 C 227.909,25.4585 229.297,24.8225 230.71,24.8255 L 230.71,24.8255 C 231.044,24.8265 231.379,24.8605 231.72,24.9445 L 231.72,24.9445 C 233.968,25.4985 235.258,27.7745 236.611,28.2275 L 236.611,28.2275 C 236.765,28.2755 236.926,28.2965 237.096,28.2965 L 237.096,28.2965 C 237.098,28.2975 237.101,28.2975 237.103,28.2975 L 237.103,28.2975 Z" transform=""/></svg>