<svg xmlns="http://www.w3.org/2000/svg" version="1.1" width="150" height="50" viewBox="0 0 150 50"><defs/><path fill="#304454" stroke="none" d="M 63.7007,29.4578 C 62.0947,30.5288 60.3417,31.3018 58.3907,31.8428 C 57.4347,32.1068 56.5547,32.2858 55.5607,32.3528 C 54.7117,32.4098 53.9277,32.2388 53.1227,32.2558 C 53.5947,33.0368 54.9197,33.2358 55.9997,33.0838 C 55.8857,33.3288 55.4977,33.4608 55.2947,33.6708 C 55.8047,34.1988 65.2307,35.3528 66.2777,34.8458 C 67.0067,34.4928 67.9157,34.1278 68.2797,33.5008 C 68.0827,33.8668 67.5737,34.2118 67.4787,34.5718 C 68.1177,34.6828 69.3447,33.7628 69.8297,33.4378 C 70.4777,33.0038 71.0837,32.5908 71.5627,32.0468 C 73.2387,30.1438 74.2667,27.3998 74.0157,25.2438 C 73.8987,24.2368 73.3547,22.9468 72.1127,22.4868 C 70.9147,22.0428 64.9227,28.6438 63.7007,29.4578 Z" transform=""/><path fill="#f89c44" stroke="none" d="M 81.9752,43.6285 C 82.4892,43.8105 83.2212,46.6815 83.4822,47.3255 C 83.6732,47.7965 83.7562,48.2645 83.1122,48.3475 C 82.7342,48.3965 81.7792,48.2195 81.8322,48.8885 C 81.8892,49.6025 83.0502,49.4485 83.4752,49.6515 C 83.7802,49.7975 84.5132,49.8625 84.8742,49.9125 C 85.4552,49.9925 86.8392,50.0115 86.8152,49.6515 C 87.2892,49.4765 88.1292,49.5525 88.6552,49.6835 C 89.7072,49.8265 89.2082,48.9815 88.9462,48.8515 C 88.5292,48.6465 88.0912,48.4005 87.6382,48.2405 C 87.0232,48.0235 86.3942,47.8765 85.7912,47.6085 C 84.1062,47.5515 83.4852,43.3145 83.5942,43.0605" transform=""/><path fill="#f89c44" stroke="none" d="M 71.3713,43.6285 C 71.3663,44.4865 70.9533,47.2485 70.7463,47.6955 C 70.2393,48.7885 68.4583,48.2685 67.6473,48.9735 C 67.0163,49.5235 67.8443,49.6785 68.3013,49.6335 C 68.7983,49.5845 70.1213,49.7315 70.4343,49.9075 C 70.9933,50.2205 72.0553,49.6475 72.1763,49.5655 C 72.2713,49.5015 73.5273,49.7335 74.1583,49.7405 C 75.0653,49.7515 74.1933,48.8015 73.7823,48.6095 C 71.5143,47.8075 72.3833,44.8495 72.7943,43.4585" transform=""/><path fill="#304454" stroke="none" d="M 91.9064,31.7354 C 91.9794,31.2554 91.8244,30.6164 91.7874,30.1254 C 91.7434,29.5374 91.7404,28.9534 91.5214,28.3974 C 91.2754,20.8824 84.9234,22.2354 87.7574,17.3364 C 88.1484,16.4834 88.9704,14.8704 88.3504,11.5814 C 86.7704,3.2074 79.9524,2.8454 79.5054,3.1434 C 80.2614,2.6394 81.1614,2.7074 82.0214,2.7584 C 82.8894,2.8094 83.6914,3.2034 84.5224,3.3164 C 83.4844,2.4564 81.9764,1.9184 80.6124,1.9064 C 79.8184,1.8994 79.0864,1.9334 78.3114,2.1094 C 77.7334,2.2394 77.2484,2.5244 76.7064,2.7124 C 77.1884,1.3194 78.9174,1.1294 80.2184,1.1404 C 79.5094,0.833398 78.2724,1.1304 77.5744,1.3854 C 76.8644,1.6454 75.9514,1.9954 75.4934,2.6164 C 75.8574,1.9104 76.0864,1.3284 76.7754,0.843398 C 77.2254,0.526398 77.7994,0.193398 78.3694,0.000398159 C 77.3824,0.245398 76.4084,0.516398 75.5844,1.1944 C 74.9784,1.6924 74.5674,2.4654 74.3434,3.2164 C 74.3544,2.5934 74.3984,2.0344 73.9964,1.5254 C 73.5194,0.922398 73.0294,1.0574 72.3854,1.2364 C 72.8984,1.3214 73.5444,1.5644 73.7384,2.1634 C 73.9164,2.7154 73.6964,3.6664 73.2374,3.9544 C 63.0904,10.3044 71.1814,20.5324 71.3604,20.6654 C 71.4354,20.7204 71.3754,22.3534 71.0954,22.8754 C 70.6924,24.9764 56.3664,47.1044 78.3574,49.3984 C 85.5994,50.1544 91.5404,44.0984 91.5404,37.5594 C 91.5404,36.0074 90.9834,31.5334 90.7274,30.5634 C 90.8584,31.0724 91.3994,31.4794 91.4024,32.0364 C 91.4194,31.4824 91.2734,31.0034 91.0984,30.5124 C 91.1574,30.5744 91.2214,30.6344 91.2714,30.6894 C 91.5684,31.0184 91.7074,31.3504 91.9064,31.7354 Z" transform=""/><path fill="#304454" stroke="none" d="M 86.454,27.2643 C 86.792,27.7463 87.052,28.3273 87.462,28.6923 C 87.805,27.9133 87.868,28.3343 88.314,28.9843 C 88.639,29.4583 88.873,29.6273 89.289,29.8843 C 90.394,30.5663 91.389,31.9513 92.173,33.1943 C 93.202,34.8263 93.931,36.5983 94.421,38.5623 C 94.662,39.5253 94.817,40.4093 94.859,41.4043 C 94.895,42.2553 94.705,43.0343 94.7,43.8393 C 95.493,43.3873 95.726,42.0683 95.601,40.9843 C 95.843,41.1043 95.966,41.4953 96.17,41.7033 C 97.734,36.9613 97.351,27.0873 88.222,22.7743 C 87.304,22.3413 85.908,23.3763 85.417,24.6063 C 84.943,25.7933 85.596,27.8093 86.64,28.2793 C 86.649,28.0063 86.617,27.4963 86.454,27.2643 Z" transform=""/><path fill="#efefef" stroke="none" d="M 85.8,13.5232 C 85.761,13.1222 85.662,12.7392 85.518,12.3732 C 85.836,11.3582 85.867,10.1252 85.53,8.86915 C 84.806,6.16315 82.667,4.38515 80.755,4.89715 C 79.312,5.28315 78.411,6.86215 78.366,8.77615 C 78.316,8.78015 78.268,8.78015 78.218,8.78515 C 77.799,8.82615 77.393,8.90015 76.999,8.99315 C 76.371,7.52615 75.235,6.54215 73.933,6.54215 C 71.953,6.54215 70.348,8.81215 70.348,11.6132 C 70.348,13.3412 70.96,14.8652 71.893,15.7812 C 72.695,18.3062 75.785,19.9912 79.286,19.6462 C 83.179,19.2642 86.094,16.5232 85.8,13.5232 Z" transform=""/><ellipse cx="74.05372008167754" cy="11.766212747292311" rx="0.736857304306108" ry="1.0241963966551406" fill="#304454" stroke="none" transform="rotate(-8.8934 74.05372201276177 11.76621264866468)" r="NaN"/><ellipse cx="82.66214163864684" cy="9.959325368569193" rx="0.736857304306108" ry="1.0241963966551406" fill="#304454" stroke="none" transform="rotate(-8.8934 82.66214267311622 9.959325718248985)" r="NaN"/><ellipse cx="78.68993038621026" cy="35.7199519544217" rx="13.453815661397647" ry="9.8141871583099" fill="#efefef" stroke="none" transform="rotate(84.3875 78.68992945373083 35.719951093671455)" r="NaN"/><path fill="#f89c44" stroke="none" d="M 80.2818,14.5356 C 79.4638,15.4236 78.3138,15.3486 77.2258,15.1976 L 75.9378,15.1236 C 76.2218,15.0866 77.1268,15.9956 77.4468,16.2276 C 77.9538,16.5956 78.4678,16.9496 79.0748,17.0656 C 79.5898,17.1636 80.3398,17.3486 80.8038,17.0096 C 81.2198,16.7046 81.4908,15.9926 81.6788,15.5286 C 81.9998,14.7346 81.9668,13.8036 82.3738,13.0346 C 81.4808,13.0456 80.8158,13.9566 80.2818,14.5356 Z" transform=""/><path fill="#d14e3f" stroke="none" d="M 76.8942,15.3441 C 77.9072,15.5981 78.9682,17.0601 80.0952,16.5941 C 81.0132,16.2151 81.4802,14.4441 81.7432,13.5781 C 81.7712,13.4861 81.8162,13.4051 81.8592,13.3241 C 80.9792,13.6281 80.4932,14.4151 79.8002,14.9491 C 79.4722,15.2021 78.9882,15.2961 78.5852,15.3361 C 78.1312,15.3801 77.9012,15.2121 77.4832,15.1231" transform=""/><path fill="#f89c44" stroke="none" d="M 75.7813,15.1291 L 75.7813,15.0921 C 76.4053,15.2841 77.0853,15.3241 77.7313,15.4621 C 77.8723,15.4921 78.0333,15.5281 78.2033,15.5621 C 78.6583,15.6541 79.1803,15.7311 79.5713,15.6441 C 80.0943,15.5271 80.4493,15.0011 80.7393,14.5681 C 81.0163,14.1541 81.3033,13.8631 81.6713,13.5911 C 81.9103,13.4131 82.1903,13.2731 82.3733,13.0301 C 82.2103,12.7791 81.8203,12.8371 81.5583,12.8761 C 81.1903,12.9311 80.9683,12.9701 80.6023,12.8561 C 80.1903,12.7281 79.8313,12.5521 79.4313,12.4861 C 78.4593,12.3251 77.8333,12.9601 77.3193,13.6911 C 77.1493,13.9331 76.9343,14.1081 76.7143,14.2711 C 76.4913,14.4361 76.2623,14.5901 76.0683,14.7891 C 75.9613,14.8981 75.8913,15.0181 75.7813,15.1291 Z" transform=""/></svg>