<svg xmlns="http://www.w3.org/2000/svg" width="400" height="176" viewBox="0 0 400 176"><path fill="#d2691e" stroke="#000" d="M0 160l64-32h320l-64 32z" stroke-width="2" stroke-dasharray="0"/><path fill="gray" stroke="gray" d="M44 144V64h4v80z" stroke-width="2" stroke-dasharray="0"/><path fill="gray" stroke="#000" d="M28 80V48l36-16v32z" stroke-width="2" stroke-dasharray="0"/><ellipse cx="51.2" cy="73.6" rx="12.8" ry="3.2" fill="none" stroke="#6495ed" stroke-width="2" stroke-dasharray="0"/><ellipse cx="51.2" cy="78.4" rx="9.6" ry="2.4" fill="none" stroke="#6495ed" stroke-width="2" stroke-dasharray="0"/><ellipse cx="51.2" cy="83.2" rx="6.4" ry="1.6" fill="none" stroke="#6495ed" stroke-width="2" stroke-dasharray="0"/><path fill="none" stroke="#6495ed" d="M36.8 70.4l8 14.4M43.2 65.6L48 84.8M51.2 64.8v20M59.2 65.6l-4.8 19.2M65.6 70.4l-8 14.4" stroke-width="2" stroke-dasharray="0"/><ellipse cx="51.2" cy="68.8" rx="14.4" ry="4.8" fill="none" stroke="#df0030" stroke-width="2" stroke-dasharray="0"/><ellipse cx="323.2" cy="73.6" rx="12.8" ry="3.2" fill="none" stroke="#6495ed" stroke-width="2" stroke-dasharray="0"/><ellipse cx="323.2" cy="78.4" rx="9.6" ry="2.4" fill="none" stroke="#6495ed" stroke-width="2" stroke-dasharray="0"/><ellipse cx="323.2" cy="83.2" rx="6.4" ry="1.6" fill="none" stroke="#6495ed" stroke-width="2" stroke-dasharray="0"/><path fill="none" stroke="#6495ed" d="M308.8 70.4l8 14.4M315.2 65.6l4.8 19.2M323.2 64.8v20M331.2 65.6l-4.8 19.2M337.6 70.4l-8 14.4" stroke-width="2" stroke-dasharray="0"/><ellipse cx="323.2" cy="68.8" rx="14.4" ry="4.8" fill="none" stroke="#df0030" stroke-width="2" stroke-dasharray="0"/><path fill="gray" stroke="gray" d="M332 144V64h4v80z" stroke-width="2" stroke-dasharray="0"/><path fill="gray" stroke="#000" d="M316 80V48l36-16v32z" stroke-width="2" stroke-dasharray="0"/><path fill="#f89c44" d="M145.976 135.079c.398.141.964 2.361 1.165 2.86.148.363.213.726-.286.79-.292.037-1.03-.099-.989.418.044.552 1.458.189 1.786.346.237.113.287.407.567.446.45.062.396-.444.377-.723.366-.135 2.14.444 2.547.545.814.111.427-.542.225-.643-.322-.159-.661-.349-1.012-.473-.475-.167-.962-.281-1.427-.488-1.304-.045-1.784-3.322-1.699-3.518M137.775 135.079c-.004.664-.323 2.8-.484 3.145-.392.845-1.769.443-2.396.989-.488.425.152.545.505.51.385-.038.755-.207 1.122-.33.161-.054.315-.15.395.017.09.188-.109.389.132.525.432.242.651-.248.682-.568.012-.128-.023-.156.071-.219.073-.05.254-.032.341-.023.23.022.48.097.687.203.396.204.611.473 1.099.479.702.008.028-.727-.29-.875-1.754-.62-1.082-2.908-.765-3.984"/><path fill="#f4d038" d="M150.758 115.633c.552.429 1.763.062 2.376-.106 1.09-.3 1.717-.967 2.465-1.782.694-.758 1.095-1.682 1.384-2.662.156-.527.234-1.07.239-1.624.003-.289-.054-.691.023-.949.152.376.397.53.439.955.033.339-.016.702-.094 1.012.136-.24.178-.526.291-.769.416.581-.016 1.129-.168 1.694.354-.322.919-.796.894-1.332.139.482.268.931.174 1.441-.088.481-.447.865-.56 1.309.34-.182.608-.455.775-.805.068.664-.364 1.164-.676 1.703.234-.089.48-.184.711-.284.024.335-.275.83-.453 1.105.444-.127.895-.277 1.219-.642.052.799-.904 1.335-1.22 1.963.193-.105.422-.156.622-.257.307-.154.53-.431.788-.628.072.526-.613 1.189-.926 1.548-.431.495-1.069.805-1.639 1.082.388.03.858.024 1.223-.112-.423.528-1.001.857-1.679.911.197.026.429.328.417.52-.374.153-1.011.195-1.402.076.637.647-.734.43-1.072.206.15.16.366.395.137.558-.278.198-.665-.206-.886-.329.012.224.084.324-.111.461-.25.177-.542.001-.688-.197-.101.273-.52.059-.69-.073-.517-.401-.434-.965-.758-1.454"/><path fill="#fee05f" d="M153.233 125.963c-.024.061-.045.12-.072.182a.852.852 0 0 0 .072-.182z"/><path fill="#fee05f" d="M136.605 115.295a.742.742 0 0 0-.066.362c-.142-.252-.087-.547-.103-.824-.172.122-.205.416-.2.611-.131-.126-.198-.499-.184-.682-.098.049-.138.165-.194.248-.056-.197-.051-.385-.081-.58-.037-.236-.101-.461-.116-.702-.022-.368.02-.736.126-1.089.08-.266.199-.515.323-.763.048-.097.204-.315.17-.432-.002-.005-1.58-5.476 3.595-8.278.368-.199.526-.958.387-1.385-.15-.463-.649-.65-1.046-.716.498-.138.877-.244 1.245.223.311.394.277.826.269 1.307.173-.58.491-1.178.96-1.564.637-.524 1.39-.733 2.153-.923-.44.15-.885.407-1.232.652-.533.376-.711.826-.992 1.372.354-.48 1.06-.751 1.609-.952.54-.197 1.496-.427 2.045-.19-1.006-.008-2.344.139-2.716 1.216.419-.145.794-.365 1.241-.466.599-.136 1.166-.163 1.78-.157 1.054.009 2.221.425 3.024 1.09-.643-.087-1.263-.392-1.934-.431-.665-.04-1.362-.093-1.946.297.345-.23 1.41.04 1.764.113 1.287.266 2.458.94 3.289 1.965.374.461.673.98.907 1.525.11.258.164.667.384.846.222.181.587.127.845.226.503.193.661.469.986.854a1.113 1.113 0 0 0-.529-.372c.295.387.606.665.784 1.114-.224-.172-.466-.286-.704-.424.165.199.553.611.513.871-.129-.114-.277-.221-.393-.343.124.296.419.577.427.911a9.21 9.21 0 0 0-.394-.316c.065.665.4 1.281.194 1.964-.233-.174-.163-.541-.351-.746-.033.245.074.495.029.747-.055.307-.258.651-.431.899a7.646 7.646 0 0 1-.604.78c-2.187 1.961 2.386 3.104 2.576 8.916.17.43.171.882.206 1.337.028.379.149.873.092 1.245-.154-.298-.261-.555-.491-.81-.038-.043-.088-.088-.133-.137.135.381.248.751.235 1.179-.002-.431-.421-.745-.522-1.138.218.824.131 1.45-.169 2.217.089-.311.033-.699-.035-.988.028.974.451 4.871-4.808 7.387-.527.547-.214 1.549-.7 2.209-.467.636-1.318.944-2.012.395-.388-.307-1-1.102-1.018-1.615-.68 1.013-3.066.749-3.855.126-.18.488-.511.94-.821 1.357-.413.553-1.089.856-1.757.578-.709-.295-.762-.854-.981-1.5-.228-.669-.958-1.358-1.591-1.625-.748-.315-1.391-.869-1.915-1.474.004.245.31.595.495.71-.358-.17-.849-.439-1.187-.713-.439-.354-1.112-1.013-1.25-1.579-.189.396.028.928.319 1.23-.781-.484-1.026-1.502-1.086-2.329-.13.232-.201.543-.197.824-.119-.227-.269-.484-.294-.764-.028-.321.127-.637.097-.95-.51.264-.555.862-.629 1.376-.145-.612-.099-1.23-.129-1.863-.37.396-.503.87-.681 1.37-.073-1.099.091-1.823.973-2.496-.207.139-.411.341-.606.515.535-.87 1.102-1.36 2.161-1.446 2.841-4.261 6.182-5.272 6.494-6.897.217-.404.422-1.062.389-1.594-.061-.038-.126-.073-.184-.115-.139-.102-.325-.377-.52-.319-.328.098-.303.693-.309.939-.218-.177-.251-.582-.265-.845-.132.126-.187.338-.198.523a.772.772 0 0 1-.197-.457c-.031.049-.088.083-.118.155-.067-.265-.103-.544-.172-.804"/><path fill="#fee05f" d="M143.845 100.11l.44-.11c-.144.021-.292.059-.44.11z"/><path fill="#f4d038" d="M137.525 118.366c-.285.185-.616.305-.845.556.386.33.157.327-.226.572-.28.178-.389.324-.561.591-.456.707-1.277 1.259-2.004 1.675a7.89 7.89 0 0 1-3.048.996 5.588 5.588 0 0 1-1.55-.006c-.456-.07-.855-.292-1.283-.384.174.612.857.924 1.445.957-.084.158-.303.201-.431.322.219.44 1.168.436 1.577.429-.233.128-.554.202-.739.39.377.205.81.172 1.229.172a3.753 3.753 0 0 0-1.095.196c.366.399 1.614.547 2.091.33-.282-.01-.671.227-.878.407.681.416 1.846.272 2.534-.095-.284.229-.586.498-.853.738.65.042 1.24-.092 1.844-.316.421-.155.939-.295 1.192-.69-.139.233-.443.411-.529.652.328.161 1.068-.329 1.358-.496.385-.222.747-.436 1.054-.758 1.074-1.126 1.886-2.93 1.962-4.484.036-.726-.126-1.707-.74-2.192-.593-.469-1.721-.231-2.059.457.144.036.418.07.555-.019z"/><path fill="#f89c44" d="M145.249 110.93c-.733.796-1.764.728-2.739.593l-1.154-.066c.255-.033 1.066.782 1.352.989.455.33.915.648 1.459.752.462.088 1.134.253 1.55-.051.372-.273.615-.911.784-1.327.288-.711.258-1.546.623-2.236-.8.01-1.397.827-1.875 1.346z"/><ellipse cx="140.506" cy="109.209" rx=".57" ry=".792" fill="#304454" transform="rotate(-8.893 140.506 109.21)"/><ellipse cx="147.163" cy="107.812" rx=".57" ry=".792" fill="#304454" transform="rotate(-8.893 147.163 107.812)"/><path fill="#d14e3f" d="M142.213 111.655c.908.228 1.859 1.538 2.869 1.121.822-.34 1.241-1.927 1.477-2.704.024-.082.065-.154.103-.228-.788.273-1.223.978-1.844 1.457-.294.227-.728.311-1.089.347-.407.04-.613-.111-.988-.191"/><path fill="#f89c44" d="M141.215 111.462v-.033c.559.172 1.169.208 1.748.331.126.027.27.06.423.09.407.082.876.152 1.226.073.468-.104.787-.575 1.046-.963.249-.372.506-.633.835-.877.215-.159.466-.285.63-.502-.146-.226-.495-.173-.73-.139-.33.05-.529.085-.858-.017-.368-.115-.69-.272-1.049-.332-.871-.144-1.432.425-1.893 1.08-.152.217-.345.374-.542.52-.2.148-.405.286-.579.464-.095.098-.157.205-.257.305z"/><path fill="#ccaa4f" d="M187.294 131.418s-5.591 3.528-8.634 2.002c-1.358-.682-.364-2.288 1.453-2.007 2.002.31 4.099-2.929 4.099-2.929l3.082 2.934z" opacity=".8"/><path fill="#e2e2e2" d="M205.377 127.782a.948.948 0 0 0-.817-.421.349.349 0 0 0-.589-.053.948.948 0 0 0-1.272.336.837.837 0 0 0-.793.814.35.35 0 0 0-.198.473l.015.03a.945.945 0 0 0 .285 1.109.342.342 0 0 0-.017.316l.003.006a.516.516 0 1 0 .733.722.35.35 0 0 0 .422.02.867.867 0 0 0 1.118-.135.582.582 0 0 0 .557-.321.798.798 0 0 0 .851-.811c.1-.067.14-.198.089-.312-.006-.011-.012-.023-.019-.033a.633.633 0 0 0 .059-.912.628.628 0 0 0-.018-.479.625.625 0 0 0-.409-.349m-1.83 1.497a.013.013 0 0 0 .006.001l-.005.013-.001-.014z"/><path fill="#eec65e" d="M193.62 108.855s2.079-1.741 4.018-1.774c1.271-.022 2.987.085 4.62-.435 4.418-1.401.065 4.484-4.825 7.856-3.394 2.343-7.93 4.439-8.002 1.799-.06-2.235 4.189-7.446 4.189-7.446z"/><path fill="#f7a996" d="M192.623 112.993s1.842-2.58 4.006-3.08c2.544-.587 5.365-2.255 6.035-1.876.815.465-1.391 2.784-2.284 3.686-1.326 1.336-4.296 3.392-6.237 4.089-1.379.497-2.424.747-3.017-.499-.592-1.248 1.497-2.32 1.497-2.32z"/><path fill="#ccaa4f" d="M192.802 112.773c-.684-.354-1.243-.564-1.243-.564s-.577-.021-1.216.246c.263.929 1.015 1.914 1.015 1.914l1.444-1.596z"/><path fill="#eec65e" d="M189.264 123.212s1.609 1.12 3.993.975c4.376-.266 7.248.26 9.113 3.369 2.501 4.166-.416 12.111-8.671 10.086-12.103-2.969-11.012-16.548-11.012-16.548l6.577 2.118z"/><path fill="#ccaa4f" d="M183.848 129.239c3.238-.095 6.382-.248 9.409-5.051-.7-.045-.182-1.452-.985-1.434-2.322.05-3.838-1.117-3.838-1.117l-6.442-3.053s.441 4.96 1.856 10.655z" opacity=".5"/><path fill="#eec65e" d="M184.64 109.7s-.054-2.578-.942-4.208c-.582-1.071-1.437-2.45-1.926-4.061-1.325-4.363-2.385 2.116-1.876 7.826.353 3.964 1.368 8.759 2.788 7.539 1.201-1.031 1.956-7.096 1.956-7.096z"/><path fill="#f7a996" d="M183.198 113.813s.56-3.338-.271-5.762c-.978-2.85-1.464-6.612-2.037-7.046-.697-.529-.914 3.012-.979 4.424-.099 2.094.236 6.232.836 8.555.426 1.652.822 2.827 1.863 2.673 1.043-.153.588-2.844.588-2.844z"/><path fill="#eec65e" d="M184.01 113.02s1.984-1.168 3.964-1.026c1.38.099 2.995.349 4.369 1.677 1.869 1.808 2.311 4.79 2.335 6.317.06 4.032-2.632 6.585-6.81 6.487-4.117-.096-7.435-2.787-7.159-6.805.157-2.291.897-5.246 3.301-6.65z"/><path fill="#eec65e" d="M186.973 112.158s.686-1.254 1.975-1.445c0 0-1.632.899-1.666 1.698l-.309-.253z"/><ellipse cx="184.679" cy="120.413" rx=".54" ry=".75" fill="#304454" transform="rotate(1.559 184.68 120.413)"/><ellipse cx="191.258" cy="120.413" rx=".54" ry=".75" fill="#304454" transform="rotate(1.559 191.258 120.413)"/><ellipse cx="188.503" cy="123.544" rx=".943" ry=".717" fill="#cda245" transform="rotate(187.048 188.503 123.544)"/><path fill="#eec65e" d="M187.365 112.016s1.117-.893 2.379-.571c0 0-1.853.2-2.192.924l-.187-.353z"/><path fill="#ccaa4f" d="M192 136.999l.022.002c.623.097 1.256-.151 1.832-.538-1.588-5.25 1.694-7.556 4.254-6.533 2.174.868 3.42 3.531 1.711 6.47-.151.26-.372.448-.629.594l.013.012s-.571.359-1.444.799c-1.124.187-2.41.146-3.867-.212a16.02 16.02 0 0 1-1.892-.594z" opacity=".5"/><path fill="#eec65e" d="M193.054 137.611c.624.097 1.256-.151 1.832-.538-1.588-5.25 1.694-7.556 4.255-6.533 2.173.868 3.419 3.531 1.71 6.469a1.627 1.627 0 0 1-.629.595l.013.012s-1.741 1.098-3.809 1.804a.209.209 0 0 1-.207.068c-1.584.515-3.329.776-4.618.129-1.358-.682-.364-2.287 1.453-2.006z"/><path fill="#ccaa4f" d="M187.624 134.099c.991-.856 1.705-1.954 1.705-1.954l2.243 2.078s-.14 1.472-1.5 2.078a12.7 12.7 0 0 1-2.448-2.202z" opacity=".5"/><path fill="#eec65e" d="M191.845 134.141s-5.961 3.745-9.202 2.132c-1.446-.721-.385-2.424 1.551-2.128 2.133.327 4.371-3.108 4.371-3.108l3.28 3.104z"/><path fill="none" stroke="#cda245" d="M192.949 123.351s1.5.068 2.256.489M193.095 122.636s1.423-.482 2.278-.363" stroke-miterlimit="10"/><path fill="none" stroke="#cda245" d="M183.793 124.093s-1.548.068-2.327.489M183.642 123.378s-1.468-.482-2.351-.363" stroke-width=".423" stroke-miterlimit="10"/><ellipse cx="160" cy="100.8" rx="8" ry="8" fill="orange" stroke="#000" stroke-width="2" stroke-dasharray="0" fill-opacity=".7"/><path stroke="#000" d="M160 92.8v16" stroke-width="2" stroke-dasharray="0" fill="none"/><path d="M154.298 106.391a6.667 6.667 0 0 0-.099-11.245l-3.532 5.654z" fill="none"/><path stroke="#000" d="M154.298 106.391a6.667 6.667 0 0 0-.099-11.245" stroke-width="2" stroke-dasharray="0" fill="none"/><path d="M165.801 95.146a6.667 6.667 0 0 0 0 11.308l3.532-5.654z" fill="none"/><path stroke="#000" d="M165.801 95.146a6.667 6.667 0 0 0 0 11.308" stroke-width="2" stroke-dasharray="0" fill="none"/><path stroke="#df0030" d="M157.375 64V50.625M144 50.625h13.375M272 50.625h-13.375M258.625 64V50.625M258.625 16v13.375M272 29.375h-13.375M144 29.375h13.375M157.375 16v13.375M144 64h128V16H144z" stroke-width="3" stroke-dasharray="0"/><path fill="none" stroke="#df0030" d="M208 64V16" stroke-width="2" stroke-dasharray="0"/></svg>
