<svg xmlns="http://www.w3.org/2000/svg" width="400" height="240" viewBox="0 0 400 240"><path fill="#28ae7b" stroke="#28ae7b" d="M0 60v180h400V60z" stroke-width="2" fill-opacity=".8" stroke-dasharray="0"/><path fill="#deb958" d="M276.094 115.459s.636.382 1.718-.191c0-1.263.128-3.994.202-5.479-1.351-.225-2.657-.48-3.975-.618a92.775 92.775 0 0 0 2.055 6.288zM286.863 110.75c.733 2.002 1.372 4.593 1.372 4.593s.564.311 1.449-.231c.45-1.807.911-5.672 1.684-9.185-1.697 1.469-3.291 3.022-4.505 4.823z"/><path fill="#ccaa4f" d="M276.458 111.008c.205-.411.843-.389 1.509-.238l.048-.979c-1.352-.225-2.657-.481-3.975-.619a92.217 92.217 0 0 0 2.055 6.288s.636.382 1.718-.191c0-.149.001-.318.005-.503-1.94.151-1.899-2.546-1.36-3.758zM289.471 114.224c-.531-2.02.329-3.808 1.343-5.477.167-.935.35-1.89.554-2.82-1.697 1.469-3.291 3.022-4.505 4.823.733 2.002 1.371 4.594 1.371 4.594s.564.31 1.45-.231c.043-.175.087-.369.131-.58-.199-.055-.344-.164-.344-.309z"/><path fill="#304454" d="M276.094 115.459s-.272 1.215-.02 2.086c.213.193 1.763.329 2.324-.446-.039-.445-.359-1.435-.587-1.831.001 0-1.058.487-1.717.191zM288.157 115.31s.645.386 1.582-.222c.43.497.707 2.242.707 2.242s-1.35 1.02-2.515.438c0 0-.343-1.644.226-2.458z"/><path fill="#f1d285" d="M261.176 89.28s-4.944 2.906-2.496 5.099c2.445 2.189 5.321 1.503 5.53.526 1.608.837 4.249-.206 4.249-.206s.279 9.147 5.168 22.486c0 0 .698.42 1.885-.209 0-1.956.279-7.122.279-7.122s6.146 1.746 9.289.838c.489 2.095.629 6.005.629 6.005s.488.419 1.466.069c.977-2.025 2.583-6.983 4.469-10.614 1.885-3.632 2.515-11.453-3.492-11.174-6.006.28-11.033-.21-12.71-1.815-1.676-1.606-1.537-3.911-1.327-5.727s-1.815-4.19-3.841-3.911c-2.025.279-5.605 1.4-7.054 2.444-1.376.993-2.044 3.312-2.044 3.312z"/><path fill="#deb958" d="M287.842 109.253c-3.801.877-7.604.146-11.405-.585-.585-.146-1.608-.439-2.047-1.316 1.023 2.486.877 4.971.439 7.457 0 .439-1.024.877-1.17.439-1.316-3.509-2.171-7.147-2.737-10.918-.782-5.215-2.042-11.114-.333-15.549-1.643 4.26-6.772 4.297-6.955 4.73-.405.954-5.115.73-5.115.73 1.687 1.94 5.115 1.963 5.671.663.023-.052.047-.102.074-.15.933 1.075 4.175-.056 4.175-.056s.279 9.149 5.168 22.488c0 0 .698.419 1.885-.21 0-1.956.279-7.122.279-7.122s6.146 1.745 9.288.837c.489 2.095.629 6.006.629 6.006s.464.394 1.386.096c-1.272-2.195-.97-5.513.768-7.54z" opacity=".5"/><path fill="#deb958" d="M269.586 85.711c.982-.246 1.643-1.04 1.984-2.027a2.642 2.642 0 0 0-1.295-.159c-1.853.255-4.933 1.33-6.62 2.206a13.1 13.1 0 0 0 5.931-.02z"/><path fill="#f4953f" d="M290.737 96.723s-.139-2.653 3.212-2.653c3.352 0 4.33 2.234 3.283 5.796-1.048 3.561-.909 4.958.279 4.609 0 0 .21-.418-.14-.418 0 0 .629-.14.629.558 0 .698-1.327 1.187-2.445-.07-.07.698 1.187 1.047 1.607 1.047-.629.769-2.584 1.118-3.423-.838-.838-1.955-.768-3.072-.768-3.072s-.349-3.562-.838-3.702c0 0-1.117.071-1.396-1.257z"/><path fill="#2c8fc0" d="M294.309 100.899a13.868 13.868 0 0 1-.012-.566c-.048.189-.033.378.012.566z"/><path fill="#d78334" d="M294.309 100.899a1.178 1.178 0 0 1-.012-.566c0 .181.004.371.012.566m0 0c.094.396.328.793.426 1.189.293-1.901.878-4.68-1.608-5.118.439-.292.877-.146 1.316 0-.293-.877-1.755-.438-1.901-.877-.147-1.023 1.462-.731 2.339-.731-.429-.286-.719-.851-1.142-1.287-3.134.11-3.002 2.649-3.002 2.649.279 1.327 1.397 1.257 1.397 1.257.489.139.838 3.701.838 3.701s-.07 1.117.768 3.073c.652 1.52 1.978 1.647 2.831 1.268-1.697-.838-2.186-3.241-2.262-5.124z"/><path fill="#304454" d="M273.628 117.186s-.298 1.333-.022 2.289c.233.213 1.935.362 2.551-.488-.042-.49-.394-1.575-.643-2.011 0 .001-1.163.536-1.886.21zM285.64 116.647s.553.511 1.594.106c.319.574.234 2.339.234 2.339s-1.531.723-2.551-.085c0 .001 0-1.679.723-2.36z"/><path fill="#f4953f" d="M270.828 84.76s-2.653 1.188-4.957.698c-2.306-.489-4.61-3.492-2.515-5.097-.139.767.14 2.444 2.515 2.163-.63 0-1.398-1.326-.769-2.163.21.418.769 1.674 2.654 1.046s5.657-1.675 7.472 1.118c1.815 2.793 1.326 7.752 5.587 7.611.558-.07.488-.977-.21-.977 1.327-.14 3.562 4.54-2.304 5.098-1.747.63-5.098-1.257-5.168-4.05-.07-2.793.489-5.866-2.305-5.447z"/><path fill="#d78334" d="M281.962 90.444c-.122.306-.343.56-.712.728-1.171.584-2.779.292-4.096-.44.147.585.293 1.024 1.025 1.024-3.802.73-4.68-3.656-4.241-6.58.147.878.877 1.901 1.901 2.048-.892-1.228-.593-2.967-.531-4.567a4.732 4.732 0 0 0-.081-.133c-1.195-1.838-3.24-2.013-5.034-1.737-.795 1.63-1.428 3.414-3.711 2.781.293.438.585.438 1.169.438-1.03.62-2.28.947-3.44.676.507.374 1.084.653 1.659.776 2.304.49 4.957-.698 4.957-.698 2.795-.42 2.236 2.653 2.306 5.446.07 2.794 3.421 4.68 5.168 4.051 3.772-.36 4.194-2.422 3.661-3.813z"/><path fill="#f1d285" d="M271.341 86.007s-.732-1.602.412-2.7l1.145-1.099s.732 1.74.32 3.021c-.275.961-1.19 1.51-1.877.778z"/><path fill="#f6a5bf" d="M269.886 81.764l.004.014-.004-.014m0 0z"/><path fill="#ccaa4f" d="M272.607 83.234s-1.196.82-.991 1.914c.205 1.093.923.375 1.094 0 .17-.377-.103-1.914-.103-1.914z"/><path fill="#e8c4dd" d="M278.359 94.412l-.025.042.051.01c-.01-.016-.018-.035-.026-.052m0 0z"/><ellipse cx="265.672" cy="88.918" rx=".52" ry=".863" fill="#304454"/><path fill="#deb958" d="M318.094 95.46s.636.381 1.718-.192c0-1.263.128-3.994.202-5.479-1.351-.225-2.657-.48-3.975-.618a92.775 92.775 0 0 0 2.055 6.288zM328.863 90.75c.733 2.002 1.372 4.593 1.372 4.593s.564.311 1.449-.23c.45-1.808.911-5.673 1.684-9.186-1.697 1.47-3.291 3.022-4.505 4.823z"/><path fill="#ccaa4f" d="M318.458 91.008c.205-.411.843-.39 1.509-.238l.048-.98c-1.352-.224-2.657-.48-3.975-.618a92.217 92.217 0 0 0 2.055 6.288s.636.382 1.718-.191c0-.15.001-.318.005-.503-1.94.15-1.899-2.546-1.36-3.758zM331.471 94.224c-.531-2.02.329-3.808 1.343-5.477.167-.935.35-1.89.554-2.82-1.697 1.47-3.291 3.022-4.505 4.823.733 2.002 1.371 4.594 1.371 4.594s.564.31 1.45-.23c.043-.176.087-.37.131-.58-.199-.056-.344-.165-.344-.31z"/><path fill="#304454" d="M318.094 95.46s-.272 1.214-.02 2.085c.213.193 1.763.33 2.324-.446-.039-.445-.359-1.435-.587-1.83.001 0-1.058.486-1.717.19zM330.157 95.31s.645.386 1.582-.222c.43.497.707 2.242.707 2.242s-1.35 1.02-2.515.438c0 0-.343-1.644.226-2.458z"/><path fill="#f1d285" d="M303.176 69.28s-4.944 2.906-2.496 5.099c2.445 2.189 5.321 1.503 5.53.526 1.608.837 4.249-.206 4.249-.206s.279 9.147 5.168 22.486c0 0 .698.42 1.885-.21 0-1.955.279-7.121.279-7.121s6.146 1.746 9.289.838c.489 2.095.629 6.005.629 6.005s.488.419 1.466.069c.977-2.025 2.583-6.983 4.469-10.614 1.885-3.632 2.515-11.453-3.492-11.174-6.006.28-11.033-.21-12.71-1.815-1.676-1.606-1.537-3.911-1.327-5.727s-1.815-4.19-3.841-3.911c-2.025.279-5.605 1.4-7.054 2.444-1.376.993-2.044 3.312-2.044 3.312z"/><path fill="#deb958" d="M329.842 89.252c-3.801.877-7.604.147-11.405-.584-.585-.147-1.608-.44-2.047-1.317 1.023 2.487.877 4.972.439 7.457 0 .44-1.024.877-1.17.44-1.316-3.51-2.171-7.148-2.737-10.919-.782-5.213-2.042-11.113-.333-15.547-1.643 4.26-6.772 4.297-6.955 4.728-.405.954-5.115.731-5.115.731 1.687 1.94 5.115 1.963 5.671.663.023-.052.047-.102.074-.15.933 1.075 4.175-.056 4.175-.056s.279 9.149 5.168 22.488c0 0 .698.418 1.885-.21 0-1.957.279-7.123.279-7.123s6.146 1.746 9.288.838c.489 2.094.629 6.005.629 6.005s.464.395 1.386.097c-1.272-2.196-.97-5.514.768-7.54z" opacity=".5"/><path fill="#deb958" d="M311.586 65.711c.982-.246 1.643-1.04 1.984-2.027a2.642 2.642 0 0 0-1.295-.159c-1.853.255-4.933 1.33-6.62 2.206a13.1 13.1 0 0 0 5.931-.02z"/><path fill="#f4953f" d="M332.737 76.723s-.139-2.653 3.212-2.653c3.352 0 4.33 2.234 3.283 5.796-1.048 3.561-.909 4.958.279 4.61 0 0 .21-.419-.14-.419 0 0 .629-.14.629.558 0 .698-1.327 1.187-2.445-.07-.07.698 1.187 1.047 1.607 1.047-.629.77-2.584 1.118-3.423-.838-.838-1.955-.768-3.072-.768-3.072s-.349-3.562-.838-3.702c0 0-1.117.071-1.396-1.257z"/><path fill="#2c8fc0" d="M336.309 80.899a13.868 13.868 0 0 1-.012-.566c-.048.189-.033.378.012.566z"/><path fill="#d78334" d="M336.309 80.899a1.178 1.178 0 0 1-.012-.566c0 .18.004.37.012.566m0 0c.094.396.328.793.426 1.189.293-1.901.878-4.68-1.608-5.118.439-.292.877-.146 1.316 0-.293-.877-1.755-.438-1.901-.877-.147-1.023 1.462-.731 2.339-.731-.429-.286-.719-.851-1.142-1.287-3.134.11-3.002 2.649-3.002 2.649.279 1.327 1.397 1.257 1.397 1.257.489.139.838 3.7.838 3.7s-.07 1.118.768 3.074c.652 1.52 1.978 1.647 2.831 1.268-1.697-.838-2.186-3.241-2.262-5.124z"/><path fill="#304454" d="M315.628 97.186s-.298 1.333-.022 2.289c.233.213 1.935.362 2.551-.488-.042-.49-.394-1.575-.643-2.011 0 0-1.163.536-1.886.21zM327.64 96.647s.553.51 1.594.106c.319.574.234 2.339.234 2.339s-1.531.723-2.551-.085c0 0 0-1.68.723-2.36z"/><path fill="#f4953f" d="M312.828 64.76s-2.653 1.188-4.957.698c-2.306-.489-4.61-3.491-2.515-5.097-.139.768.14 2.444 2.515 2.164-.63 0-1.398-1.326-.769-2.164.21.419.769 1.675 2.654 1.047s5.657-1.677 7.472 1.117c1.815 2.794 1.326 7.753 5.587 7.611.558-.07.488-.977-.21-.977 1.327-.14 3.562 4.54-2.304 5.098-1.747.63-5.098-1.257-5.168-4.05-.07-2.793.489-5.866-2.305-5.447z"/><path fill="#d78334" d="M323.962 70.444c-.122.306-.343.56-.712.728-1.171.584-2.779.292-4.096-.44.147.585.293 1.024 1.025 1.024-3.802.73-4.68-3.656-4.241-6.58.147.878.877 1.901 1.901 2.048-.892-1.228-.593-2.967-.531-4.567a4.732 4.732 0 0 0-.081-.133c-1.195-1.838-3.24-2.013-5.034-1.737-.795 1.63-1.428 3.414-3.711 2.781.293.438.585.438 1.169.438-1.03.62-2.28.947-3.44.676.507.374 1.084.653 1.659.776 2.304.49 4.957-.698 4.957-.698 2.795-.42 2.236 2.653 2.306 5.446.07 2.794 3.421 4.68 5.168 4.051 3.772-.36 4.194-2.422 3.661-3.813z"/><path fill="#f1d285" d="M313.341 66.007s-.732-1.602.412-2.7l1.145-1.099s.732 1.74.32 3.021c-.275.961-1.19 1.51-1.877.778z"/><path fill="#f6a5bf" d="M311.886 61.764l.004.014-.004-.014m0 0z"/><path fill="#ccaa4f" d="M314.607 63.234s-1.196.82-.991 1.914c.205 1.093.923.375 1.094 0 .17-.377-.103-1.914-.103-1.914z"/><path fill="#e8c4dd" d="M320.359 74.412l-.025.042.051.01c-.01-.016-.018-.035-.026-.052m0 0z"/><ellipse cx="307.672" cy="68.918" rx=".52" ry=".863" fill="#304454"/><path fill="#deb958" d="M372.094 115.459s.636.382 1.718-.191c0-1.263.128-3.994.202-5.479-1.351-.225-2.657-.48-3.975-.618a92.775 92.775 0 0 0 2.055 6.288zM382.863 110.75c.733 2.002 1.372 4.593 1.372 4.593s.564.311 1.449-.231c.45-1.807.911-5.672 1.684-9.185-1.697 1.469-3.291 3.022-4.505 4.823z"/><path fill="#ccaa4f" d="M372.458 111.008c.205-.411.843-.389 1.509-.238l.048-.979c-1.352-.225-2.657-.481-3.975-.619a92.217 92.217 0 0 0 2.055 6.288s.636.382 1.718-.191c0-.149.001-.318.005-.503-1.94.151-1.899-2.546-1.36-3.758zM385.471 114.224c-.531-2.02.329-3.808 1.343-5.477.167-.935.35-1.89.554-2.82-1.697 1.469-3.291 3.022-4.505 4.823.733 2.002 1.371 4.594 1.371 4.594s.564.31 1.45-.231c.043-.175.087-.369.131-.58-.199-.055-.344-.164-.344-.309z"/><path fill="#304454" d="M372.094 115.459s-.272 1.215-.02 2.086c.213.193 1.763.329 2.324-.446-.039-.445-.359-1.435-.587-1.831.001 0-1.058.487-1.717.191zM384.157 115.31s.645.386 1.582-.222c.43.497.707 2.242.707 2.242s-1.35 1.02-2.515.438c0 0-.343-1.644.226-2.458z"/><path fill="#f1d285" d="M357.176 89.28s-4.944 2.906-2.496 5.099c2.445 2.189 5.321 1.503 5.53.526 1.608.837 4.249-.206 4.249-.206s.279 9.147 5.168 22.486c0 0 .698.42 1.885-.209 0-1.956.279-7.122.279-7.122s6.146 1.746 9.289.838c.489 2.095.629 6.005.629 6.005s.488.419 1.466.069c.977-2.025 2.583-6.983 4.469-10.614 1.885-3.632 2.515-11.453-3.492-11.174-6.006.28-11.033-.21-12.71-1.815-1.676-1.606-1.537-3.911-1.327-5.727s-1.815-4.19-3.841-3.911c-2.025.279-5.605 1.4-7.054 2.444-1.376.993-2.044 3.312-2.044 3.312z"/><path fill="#deb958" d="M383.842 109.253c-3.801.877-7.604.146-11.405-.585-.585-.146-1.608-.439-2.047-1.316 1.023 2.486.877 4.971.439 7.457 0 .439-1.024.877-1.17.439-1.316-3.509-2.171-7.147-2.737-10.918-.782-5.215-2.042-11.114-.333-15.549-1.643 4.26-6.772 4.297-6.955 4.73-.405.954-5.115.73-5.115.73 1.687 1.94 5.115 1.963 5.671.663.023-.052.047-.102.074-.15.933 1.075 4.175-.056 4.175-.056s.279 9.149 5.168 22.488c0 0 .698.419 1.885-.21 0-1.956.279-7.122.279-7.122s6.146 1.745 9.288.837c.489 2.095.629 6.006.629 6.006s.464.394 1.386.096c-1.272-2.195-.97-5.513.768-7.54z" opacity=".5"/><path fill="#deb958" d="M365.586 85.711c.982-.246 1.643-1.04 1.984-2.027a2.642 2.642 0 0 0-1.295-.159c-1.853.255-4.933 1.33-6.62 2.206a13.1 13.1 0 0 0 5.931-.02z"/><path fill="#f4953f" d="M386.737 96.723s-.139-2.653 3.212-2.653c3.352 0 4.33 2.234 3.283 5.796-1.048 3.561-.909 4.958.279 4.609 0 0 .21-.418-.14-.418 0 0 .629-.14.629.558 0 .698-1.327 1.187-2.445-.07-.07.698 1.187 1.047 1.607 1.047-.629.769-2.584 1.118-3.423-.838-.838-1.955-.768-3.072-.768-3.072s-.349-3.562-.838-3.702c0 0-1.117.071-1.396-1.257z"/><path fill="#2c8fc0" d="M390.309 100.899a13.868 13.868 0 0 1-.012-.566c-.048.189-.033.378.012.566z"/><path fill="#d78334" d="M390.309 100.899a1.178 1.178 0 0 1-.012-.566c0 .181.004.371.012.566m0 0c.094.396.328.793.426 1.189.293-1.901.878-4.68-1.608-5.118.439-.292.877-.146 1.316 0-.293-.877-1.755-.438-1.901-.877-.147-1.023 1.462-.731 2.339-.731-.429-.286-.719-.851-1.142-1.287-3.134.11-3.002 2.649-3.002 2.649.279 1.327 1.397 1.257 1.397 1.257.489.139.838 3.701.838 3.701s-.07 1.117.768 3.073c.652 1.52 1.978 1.647 2.831 1.268-1.697-.838-2.186-3.241-2.262-5.124z"/><path fill="#304454" d="M369.628 117.186s-.298 1.333-.022 2.289c.233.213 1.935.362 2.551-.488-.042-.49-.394-1.575-.643-2.011 0 .001-1.163.536-1.886.21zM381.64 116.647s.553.511 1.594.106c.319.574.234 2.339.234 2.339s-1.531.723-2.551-.085c0 .001 0-1.679.723-2.36z"/><path fill="#f4953f" d="M366.828 84.76s-2.653 1.188-4.957.698c-2.306-.489-4.61-3.492-2.515-5.097-.139.767.14 2.444 2.515 2.163-.63 0-1.398-1.326-.769-2.163.21.418.769 1.674 2.654 1.046s5.657-1.675 7.472 1.118c1.815 2.793 1.326 7.752 5.587 7.611.558-.07.488-.977-.21-.977 1.327-.14 3.562 4.54-2.304 5.098-1.747.63-5.098-1.257-5.168-4.05-.07-2.793.489-5.866-2.305-5.447z"/><path fill="#d78334" d="M377.962 90.444c-.122.306-.343.56-.712.728-1.171.584-2.779.292-4.096-.44.147.585.293 1.024 1.025 1.024-3.802.73-4.68-3.656-4.241-6.58.147.878.877 1.901 1.901 2.048-.892-1.228-.593-2.967-.531-4.567a4.732 4.732 0 0 0-.081-.133c-1.195-1.838-3.24-2.013-5.034-1.737-.795 1.63-1.428 3.414-3.711 2.781.293.438.585.438 1.169.438-1.03.62-2.28.947-3.44.676.507.374 1.084.653 1.659.776 2.304.49 4.957-.698 4.957-.698 2.795-.42 2.236 2.653 2.306 5.446.07 2.794 3.421 4.68 5.168 4.051 3.772-.36 4.194-2.422 3.661-3.813z"/><path fill="#f1d285" d="M367.341 86.007s-.732-1.602.412-2.7l1.145-1.099s.732 1.74.32 3.021c-.275.961-1.19 1.51-1.877.778z"/><path fill="#f6a5bf" d="M365.886 81.764l.004.014-.004-.014m0 0z"/><path fill="#ccaa4f" d="M368.607 83.234s-1.196.82-.991 1.914c.205 1.093.923.375 1.094 0 .17-.377-.103-1.914-.103-1.914z"/><path fill="#e8c4dd" d="M374.359 94.412l-.025.042.051.01c-.01-.016-.018-.035-.026-.052m0 0z"/><ellipse cx="361.672" cy="88.918" rx=".52" ry=".863" fill="#304454"/><path fill="brown" stroke="brown" d="M340 110V60h12v50z" stroke-width="2" stroke-dasharray="0"/><ellipse cx="366" cy="40" rx="20" ry="20" fill="#28ae7b" stroke="#28ae7b" stroke-width="2" stroke-dasharray="0"/><ellipse cx="326" cy="40" rx="20" ry="20" fill="#28ae7b" stroke="#28ae7b" stroke-width="2" stroke-dasharray="0"/><ellipse cx="346" cy="60" rx="20" ry="20" fill="#28ae7b" stroke="#28ae7b" stroke-width="2" stroke-dasharray="0"/><ellipse cx="346" cy="20" rx="20" ry="20" fill="#28ae7b" stroke="#28ae7b" stroke-width="2" stroke-dasharray="0"/><path fill="brown" stroke="brown" d="M200 130v-2h200v2zM200 120v-2h200v2z" stroke-width="2" stroke-dasharray="0"/><path fill="brown" stroke="brown" d="M200 140v-26h2v26zM220 140v-26h2v26zM240 140v-26h2v26zM260 140v-26h2v26zM280 140v-26h2v26zM300 140v-26h2v26zM320 140v-26h2v26zM340 140v-26h2v26zM360 140v-26h2v26zM380 140v-26h2v26zM400 140v-26h2v26zM212 114v-2l48-64v2zM212 104v-2l48-64v2z" stroke-width="2" stroke-dasharray="0"/><path fill="brown" stroke="brown" d="M212 124V98h1v26zM224 108V82h1v26zM236 92V66h1v26zM248 76V50h1v26zM260 60V34h1v26zM40 90h5V10h-5zM155 90h5V10h-5z" stroke-width="2" stroke-dasharray="0"/><path stroke="#000" d="M45 68h110V17H45z" stroke-width="2" stroke-dasharray="0"/><path fill="#fff" stroke="#fff" d="M47 66h106V19H47z" stroke-width="2" stroke-dasharray="0"/><path fill="#6495ed" stroke="#6495ed" d="M200 140h200v100H140z" stroke-width="2" stroke-dasharray="0"/><path fill="#4d677a" d="M240.538 163.462s1.475-1.065 1.761-.901c.286.163.041 1.228.041 1.228l-1.802-.327z"/><path fill="#bdcccc" d="M242.134 170.139s.745.186 1.212-.187c.464-.372.092-1.258.092-1.258l-1.304 1.445z"/><path fill="#4d677a" d="M224.197 175.217s-1.863 1.211-2.469 2.469c0 0 3.68-2.004 5.638-2.05 0 0-2.098-.419-3.169-.419zM229.366 161.584s3.427-3.963 6.373-3.375c0 0-2.441 2.556-2.049 4.493.014.065.029.129.05.193.607 1.955-4.374-1.311-4.374-1.311z"/><path fill="#7a3440" d="M222.085 169.449s-3.09 4.141-2.15 5.145c1.47-.059 4.127-1.096 4.127-1.096l2.04-1.814-4.017-2.235z"/><path fill="#4d677a" d="M246.733 163.073c-.143-1.722.454-3.989.906-5.799l-.867-.403 1.17-.642a13.055 13.055 0 0 1 2.102-3.915s-2.816 1.241-5.009 3.492c-2.035 2.088-1.113 7.548-1.113 7.548s-8.531.101-15.657-2.81c-8.652-3.533-16.507-7.709-16.259-4.114.2 2.911 3.713 10.036 5.319 11.14s6.786 2.598 6.624 3.213c-.502 1.906-4.516 3.311-4.014 3.812.502.502 15.657 6.123 24.89-7.427 0 0 3.692 4.611 7.175 4.568-3.7-3.656-4.352-5.354-5.267-8.663z"/><path fill="#fffdfd" d="M223.122 170s-.065.875.032.972c.097.098.551-.615.551-.615l-.583-.357zM222.18 169.446s-.065.875.032.972.551-.616.551-.616l-.583-.356zM221.384 173.73s-.643-.595-.781-.579c-.136.015.139.814.139.814l.642-.235z"/><path fill="#bdcccc" d="M245.929 164.057s-3.117 6.729-12.189 6.474c-8.988-.251-16.817-9.384-18.824-11.794-1.376-1.649-2.315-2.63-2.896-2.704a1.959 1.959 0 0 0-.014.397c.2 2.911 3.713 10.036 5.319 11.141 1.606 1.103 6.786 2.597 6.624 3.212-.502 1.906-4.516 3.311-4.015 3.813.499.499 15.814 6.187 24.891-7.427a36.805 36.805 0 0 0 1.104-3.112z"/><path fill="#688da7" d="M227.429 162.802s.667 1.635-.688 3.582c0 0 .725-1.838.688-3.582zM228.126 163.341s.666 1.635-.688 3.582c0 0 .725-1.838.688-3.582zM228.69 163.865s.667 1.634-.688 3.582c0 0 .725-1.838.688-3.582z"/><path fill="#304454" d="M231.455 172.778c-.268-1.767-1.017-1.767-1.178-3.16 0 0 .051-.097.107-.215 0 0 4.07 2.893 5.409 3.267 0 0 .169 3.388 3.214 4.285-.027.076-.027.146-.027.23 0 0-6.849.052-7.525-4.407z"/><path fill="#4d677a" d="M231.562 172.563c-.268-1.767-1.018-1.767-1.178-3.159 0 0 1.66.749 2.839.643 0 0 1.338 2.035 2.677 2.41 0 0 .321 3.212 3.106 4.498.001 0-6.768.067-7.444-4.392z"/><ellipse cx="224.237" cy="163.428" rx=".532" ry=".885" fill="#304454"/><path fill="#4d677a" d="M286.538 163.462s1.475-1.065 1.761-.901c.286.163.041 1.228.041 1.228l-1.802-.327z"/><path fill="#bdcccc" d="M288.134 170.139s.745.186 1.212-.187c.464-.372.092-1.258.092-1.258l-1.304 1.445z"/><path fill="#4d677a" d="M270.197 175.217s-1.863 1.211-2.469 2.469c0 0 3.68-2.004 5.638-2.05 0 0-2.098-.419-3.169-.419zM275.366 161.584s3.427-3.963 6.373-3.375c0 0-2.441 2.556-2.049 4.493.014.065.029.129.05.193.607 1.955-4.374-1.311-4.374-1.311z"/><path fill="#7a3440" d="M268.085 169.449s-3.09 4.141-2.15 5.145c1.47-.059 4.127-1.096 4.127-1.096l2.04-1.814-4.017-2.235z"/><path fill="#4d677a" d="M292.733 163.073c-.143-1.722.454-3.989.906-5.799l-.867-.403 1.17-.642a13.055 13.055 0 0 1 2.102-3.915s-2.816 1.241-5.009 3.492c-2.035 2.088-1.113 7.548-1.113 7.548s-8.531.101-15.657-2.81c-8.652-3.533-16.507-7.709-16.259-4.114.2 2.911 3.713 10.036 5.319 11.14s6.786 2.598 6.624 3.213c-.502 1.906-4.516 3.311-4.014 3.812.502.502 15.657 6.123 24.89-7.427 0 0 3.692 4.611 7.175 4.568-3.7-3.656-4.352-5.354-5.267-8.663z"/><path fill="#fffdfd" d="M269.122 170s-.065.875.032.972c.097.098.551-.615.551-.615l-.583-.357zM268.18 169.446s-.065.875.032.972.551-.616.551-.616l-.583-.356zM267.384 173.73s-.643-.595-.781-.579c-.136.015.139.814.139.814l.642-.235z"/><path fill="#bdcccc" d="M291.929 164.057s-3.117 6.729-12.189 6.474c-8.988-.251-16.817-9.384-18.824-11.794-1.376-1.649-2.315-2.63-2.896-2.704a1.959 1.959 0 0 0-.014.397c.2 2.911 3.713 10.036 5.319 11.141 1.606 1.103 6.786 2.597 6.624 3.212-.502 1.906-4.516 3.311-4.015 3.813.499.499 15.814 6.187 24.891-7.427.661-1.614 1.104-3.112 1.104-3.112z"/><path fill="#688da7" d="M273.429 162.802s.667 1.635-.688 3.582c0 0 .725-1.838.688-3.582zM274.126 163.341s.666 1.635-.688 3.582c0 0 .725-1.838.688-3.582zM274.69 163.865s.667 1.634-.688 3.582c0 0 .725-1.838.688-3.582z"/><path fill="#304454" d="M277.455 172.778c-.268-1.767-1.017-1.767-1.178-3.16 0 0 .051-.097.107-.215 0 0 4.07 2.893 5.409 3.267 0 0 .169 3.388 3.214 4.285-.027.076-.027.146-.027.23 0 0-6.849.052-7.525-4.407z"/><path fill="#4d677a" d="M277.562 172.563c-.268-1.767-1.018-1.767-1.178-3.159 0 0 1.66.749 2.839.643 0 0 1.338 2.035 2.677 2.41 0 0 .321 3.212 3.106 4.498.001 0-6.768.067-7.444-4.392z"/><ellipse cx="270.237" cy="163.428" rx=".532" ry=".885" fill="#304454"/><path fill="#4d677a" d="M332.538 163.462s1.475-1.065 1.761-.901c.286.163.041 1.228.041 1.228l-1.802-.327z"/><path fill="#bdcccc" d="M334.134 170.139s.745.186 1.212-.187c.464-.372.092-1.258.092-1.258l-1.304 1.445z"/><path fill="#4d677a" d="M316.197 175.217s-1.863 1.211-2.469 2.469c0 0 3.68-2.004 5.638-2.05 0 0-2.098-.419-3.169-.419zM321.366 161.584s3.427-3.963 6.373-3.375c0 0-2.441 2.556-2.049 4.493.014.065.029.129.05.193.607 1.955-4.374-1.311-4.374-1.311z"/><path fill="#7a3440" d="M314.085 169.449s-3.09 4.141-2.15 5.145c1.47-.059 4.127-1.096 4.127-1.096l2.04-1.814-4.017-2.235z"/><path fill="#4d677a" d="M338.733 163.073c-.143-1.722.454-3.989.906-5.799l-.867-.403 1.17-.642a13.055 13.055 0 0 1 2.102-3.915s-2.816 1.241-5.009 3.492c-2.035 2.088-1.113 7.548-1.113 7.548s-8.531.101-15.657-2.81c-8.652-3.533-16.507-7.709-16.259-4.114.2 2.911 3.713 10.036 5.319 11.14s6.786 2.598 6.624 3.213c-.502 1.906-4.516 3.311-4.014 3.812.502.502 15.657 6.123 24.89-7.427 0 0 3.692 4.611 7.175 4.568-3.7-3.656-4.352-5.354-5.267-8.663z"/><path fill="#fffdfd" d="M315.122 170s-.065.875.032.972c.097.098.551-.615.551-.615l-.583-.357zM314.18 169.446s-.065.875.032.972.551-.616.551-.616l-.583-.356zM313.384 173.73s-.643-.595-.781-.579c-.136.015.139.814.139.814l.642-.235z"/><path fill="#bdcccc" d="M337.929 164.057s-3.117 6.729-12.189 6.474c-8.988-.251-16.817-9.384-18.824-11.794-1.376-1.649-2.315-2.63-2.896-2.704a1.959 1.959 0 0 0-.014.397c.2 2.911 3.713 10.036 5.319 11.141 1.606 1.103 6.786 2.597 6.624 3.212-.502 1.906-4.516 3.311-4.015 3.813.499.499 15.814 6.187 24.891-7.427.661-1.614 1.104-3.112 1.104-3.112z"/><path fill="#688da7" d="M319.429 162.802s.667 1.635-.688 3.582c0 0 .725-1.838.688-3.582zM320.126 163.341s.666 1.635-.688 3.582c0 0 .725-1.838.688-3.582zM320.69 163.865s.667 1.634-.688 3.582c0 0 .725-1.838.688-3.582z"/><path fill="#304454" d="M323.455 172.778c-.268-1.767-1.017-1.767-1.178-3.16 0 0 .051-.097.107-.215 0 0 4.07 2.893 5.409 3.267 0 0 .169 3.388 3.214 4.285-.027.076-.027.146-.027.23 0 0-6.849.052-7.525-4.407z"/><path fill="#4d677a" d="M323.562 172.563c-.268-1.767-1.018-1.767-1.178-3.159 0 0 1.66.749 2.839.643 0 0 1.338 2.035 2.677 2.41 0 0 .321 3.212 3.106 4.498.001 0-6.768.067-7.444-4.392z"/><ellipse cx="316.237" cy="163.428" rx=".532" ry=".885" fill="#304454"/><path fill="#4d677a" d="M378.538 163.462s1.475-1.065 1.761-.901c.286.163.041 1.228.041 1.228l-1.802-.327z"/><path fill="#bdcccc" d="M380.134 170.139s.745.186 1.212-.187c.464-.372.092-1.258.092-1.258l-1.304 1.445z"/><path fill="#4d677a" d="M362.197 175.217s-1.863 1.211-2.469 2.469c0 0 3.68-2.004 5.638-2.05 0 0-2.098-.419-3.169-.419zM367.366 161.584s3.427-3.963 6.373-3.375c0 0-2.441 2.556-2.049 4.493.014.065.029.129.05.193.607 1.955-4.374-1.311-4.374-1.311z"/><path fill="#7a3440" d="M360.085 169.449s-3.09 4.141-2.15 5.145c1.47-.059 4.127-1.096 4.127-1.096l2.04-1.814-4.017-2.235z"/><path fill="#4d677a" d="M384.733 163.073c-.143-1.722.454-3.989.906-5.799l-.867-.403 1.17-.642a13.055 13.055 0 0 1 2.102-3.915s-2.816 1.241-5.009 3.492c-2.035 2.088-1.113 7.548-1.113 7.548s-8.531.101-15.657-2.81c-8.652-3.533-16.507-7.709-16.259-4.114.2 2.911 3.713 10.036 5.319 11.14s6.786 2.598 6.624 3.213c-.502 1.906-4.516 3.311-4.014 3.812.502.502 15.657 6.123 24.89-7.427 0 0 3.692 4.611 7.175 4.568-3.7-3.656-4.352-5.354-5.267-8.663z"/><path fill="#fffdfd" d="M361.122 170s-.065.875.032.972c.097.098.551-.615.551-.615l-.583-.357zM360.18 169.446s-.065.875.032.972.551-.616.551-.616l-.583-.356zM359.384 173.73s-.643-.595-.781-.579c-.136.015.139.814.139.814l.642-.235z"/><path fill="#bdcccc" d="M383.929 164.057s-3.117 6.729-12.189 6.474c-8.988-.251-16.817-9.384-18.824-11.794-1.376-1.649-2.315-2.63-2.896-2.704a1.959 1.959 0 0 0-.014.397c.2 2.911 3.713 10.036 5.319 11.141 1.606 1.103 6.786 2.597 6.624 3.212-.502 1.906-4.516 3.311-4.015 3.813.499.499 15.814 6.187 24.891-7.427.661-1.614 1.104-3.112 1.104-3.112z"/><path fill="#688da7" d="M365.429 162.802s.667 1.635-.688 3.582c0 0 .725-1.838.688-3.582zM366.126 163.341s.666 1.635-.688 3.582c0 0 .725-1.838.688-3.582zM366.69 163.865s.667 1.634-.688 3.582c0 0 .725-1.838.688-3.582z"/><path fill="#304454" d="M369.455 172.778c-.268-1.767-1.017-1.767-1.178-3.16 0 0 .051-.097.107-.215 0 0 4.07 2.893 5.409 3.267 0 0 .169 3.388 3.214 4.285-.027.076-.027.146-.027.23 0 0-6.849.052-7.525-4.407z"/><path fill="#4d677a" d="M369.562 172.563c-.268-1.767-1.018-1.767-1.178-3.159 0 0 1.66.749 2.839.643 0 0 1.338 2.035 2.677 2.41 0 0 .321 3.212 3.106 4.498.001 0-6.768.067-7.444-4.392z"/><ellipse cx="362.237" cy="163.428" rx=".532" ry=".885" fill="#304454"/><path fill="#4d677a" d="M262.538 218.462s1.475-1.065 1.761-.901c.286.163.041 1.228.041 1.228l-1.802-.327z"/><path fill="#bdcccc" d="M264.134 225.139s.745.186 1.212-.187c.464-.372.092-1.258.092-1.258l-1.304 1.445z"/><path fill="#4d677a" d="M246.197 230.217s-1.863 1.211-2.469 2.469c0 0 3.68-2.004 5.638-2.05 0 0-2.098-.419-3.169-.419zM251.366 216.584s3.427-3.963 6.373-3.375c0 0-2.441 2.556-2.049 4.493.014.065.029.129.05.193.607 1.955-4.374-1.311-4.374-1.311z"/><path fill="#7a3440" d="M244.085 224.449s-3.09 4.141-2.15 5.145c1.47-.059 4.127-1.096 4.127-1.096l2.04-1.814-4.017-2.235z"/><path fill="#4d677a" d="M268.733 218.073c-.143-1.722.454-3.989.906-5.799l-.867-.403 1.17-.642a13.055 13.055 0 0 1 2.102-3.915s-2.816 1.241-5.009 3.492c-2.035 2.088-1.113 7.548-1.113 7.548s-8.531.101-15.657-2.81c-8.652-3.533-16.507-7.709-16.259-4.114.2 2.911 3.713 10.036 5.319 11.14s6.786 2.598 6.624 3.213c-.502 1.906-4.516 3.311-4.014 3.812.502.502 15.657 6.123 24.89-7.427 0 0 3.692 4.611 7.175 4.568-3.7-3.656-4.352-5.354-5.267-8.663z"/><path fill="#fffdfd" d="M245.122 225s-.065.875.032.972c.097.098.551-.615.551-.615l-.583-.357zM244.18 224.446s-.065.875.032.972.551-.616.551-.616l-.583-.356zM243.384 228.73s-.643-.595-.781-.579c-.136.015.139.814.139.814l.642-.235z"/><path fill="#bdcccc" d="M267.929 219.057s-3.117 6.729-12.189 6.474c-8.988-.251-16.817-9.384-18.824-11.794-1.376-1.649-2.315-2.63-2.896-2.704a1.959 1.959 0 0 0-.014.397c.2 2.911 3.713 10.036 5.319 11.141 1.606 1.103 6.786 2.597 6.624 3.212-.502 1.906-4.516 3.311-4.015 3.813.499.499 15.814 6.187 24.891-7.427.661-1.614 1.104-3.112 1.104-3.112z"/><path fill="#688da7" d="M249.429 217.802s.667 1.635-.688 3.582c0 0 .725-1.838.688-3.582zM250.126 218.341s.666 1.635-.688 3.582c0 0 .725-1.838.688-3.582zM250.69 218.865s.667 1.634-.688 3.582c0 0 .725-1.838.688-3.582z"/><path fill="#304454" d="M253.455 227.778c-.268-1.767-1.017-1.767-1.178-3.16 0 0 .051-.097.107-.215 0 0 4.07 2.893 5.409 3.267 0 0 .169 3.388 3.214 4.285-.027.076-.027.146-.027.23 0 0-6.849.052-7.525-4.407z"/><path fill="#4d677a" d="M253.562 227.563c-.268-1.767-1.018-1.767-1.178-3.159 0 0 1.66.749 2.839.643 0 0 1.338 2.035 2.677 2.41 0 0 .321 3.212 3.106 4.498.001 0-6.768.067-7.444-4.392z"/><ellipse cx="246.237" cy="218.428" rx=".532" ry=".885" fill="#304454"/><path fill="#4d677a" d="M308.538 218.462s1.475-1.065 1.761-.901c.286.163.041 1.228.041 1.228l-1.802-.327z"/><path fill="#bdcccc" d="M310.134 225.139s.745.186 1.212-.187c.464-.372.092-1.258.092-1.258l-1.304 1.445z"/><path fill="#4d677a" d="M292.197 230.217s-1.863 1.211-2.469 2.469c0 0 3.68-2.004 5.638-2.05 0 0-2.098-.419-3.169-.419zM297.366 216.584s3.427-3.963 6.373-3.375c0 0-2.441 2.556-2.049 4.493.014.065.029.129.05.193.607 1.955-4.374-1.311-4.374-1.311z"/><path fill="#7a3440" d="M290.085 224.449s-3.09 4.141-2.15 5.145c1.47-.059 4.127-1.096 4.127-1.096l2.04-1.814-4.017-2.235z"/><path fill="#4d677a" d="M314.733 218.073c-.143-1.722.454-3.989.906-5.799l-.867-.403 1.17-.642a13.055 13.055 0 0 1 2.102-3.915s-2.816 1.241-5.009 3.492c-2.035 2.088-1.113 7.548-1.113 7.548s-8.531.101-15.657-2.81c-8.652-3.533-16.507-7.709-16.259-4.114.2 2.911 3.713 10.036 5.319 11.14s6.786 2.598 6.624 3.213c-.502 1.906-4.516 3.311-4.014 3.812.502.502 15.657 6.123 24.89-7.427 0 0 3.692 4.611 7.175 4.568-3.7-3.656-4.352-5.354-5.267-8.663z"/><path fill="#fffdfd" d="M291.122 225s-.065.875.032.972c.097.098.551-.615.551-.615l-.583-.357zM290.18 224.446s-.065.875.032.972.551-.616.551-.616l-.583-.356zM289.384 228.73s-.643-.595-.781-.579c-.136.015.139.814.139.814l.642-.235z"/><path fill="#bdcccc" d="M313.929 219.057s-3.117 6.729-12.189 6.474c-8.988-.251-16.817-9.384-18.824-11.794-1.376-1.649-2.315-2.63-2.896-2.704a1.959 1.959 0 0 0-.014.397c.2 2.911 3.713 10.036 5.319 11.141 1.606 1.103 6.786 2.597 6.624 3.212-.502 1.906-4.516 3.311-4.015 3.813.499.499 15.814 6.187 24.891-7.427.661-1.614 1.104-3.112 1.104-3.112z"/><path fill="#688da7" d="M295.429 217.802s.667 1.635-.688 3.582c0 0 .725-1.838.688-3.582zM296.126 218.341s.666 1.635-.688 3.582c0 0 .725-1.838.688-3.582zM296.69 218.865s.667 1.634-.688 3.582c0 0 .725-1.838.688-3.582z"/><path fill="#304454" d="M299.455 227.778c-.268-1.767-1.017-1.767-1.178-3.16 0 0 .051-.097.107-.215 0 0 4.07 2.893 5.409 3.267 0 0 .169 3.388 3.214 4.285-.027.076-.027.146-.027.23 0 0-6.849.052-7.525-4.407z"/><path fill="#4d677a" d="M299.562 227.563c-.268-1.767-1.018-1.767-1.178-3.159 0 0 1.66.749 2.839.643 0 0 1.338 2.035 2.677 2.41 0 0 .321 3.212 3.106 4.498.001 0-6.768.067-7.444-4.392z"/><ellipse cx="292.237" cy="218.428" rx=".532" ry=".885" fill="#304454"/><path fill="#4d677a" d="M354.538 218.462s1.475-1.065 1.761-.901c.286.163.041 1.228.041 1.228l-1.802-.327z"/><path fill="#bdcccc" d="M356.134 225.139s.745.186 1.212-.187c.464-.372.092-1.258.092-1.258l-1.304 1.445z"/><path fill="#4d677a" d="M338.197 230.217s-1.863 1.211-2.469 2.469c0 0 3.68-2.004 5.638-2.05 0 0-2.098-.419-3.169-.419zM343.366 216.584s3.427-3.963 6.373-3.375c0 0-2.441 2.556-2.049 4.493.014.065.029.129.05.193.607 1.955-4.374-1.311-4.374-1.311z"/><path fill="#7a3440" d="M336.085 224.449s-3.09 4.141-2.15 5.145c1.47-.059 4.127-1.096 4.127-1.096l2.04-1.814-4.017-2.235z"/><path fill="#4d677a" d="M360.733 218.073c-.143-1.722.454-3.989.906-5.799l-.867-.403 1.17-.642a13.055 13.055 0 0 1 2.102-3.915s-2.816 1.241-5.009 3.492c-2.035 2.088-1.113 7.548-1.113 7.548s-8.531.101-15.657-2.81c-8.652-3.533-16.507-7.709-16.259-4.114.2 2.911 3.713 10.036 5.319 11.14s6.786 2.598 6.624 3.213c-.502 1.906-4.516 3.311-4.014 3.812.502.502 15.657 6.123 24.89-7.427 0 0 3.692 4.611 7.175 4.568-3.7-3.656-4.352-5.354-5.267-8.663z"/><path fill="#fffdfd" d="M337.122 225s-.065.875.032.972c.097.098.551-.615.551-.615l-.583-.357zM336.18 224.446s-.065.875.032.972.551-.616.551-.616l-.583-.356zM335.384 228.73s-.643-.595-.781-.579c-.136.015.139.814.139.814l.642-.235z"/><path fill="#bdcccc" d="M359.929 219.057s-3.117 6.729-12.189 6.474c-8.988-.251-16.817-9.384-18.824-11.794-1.376-1.649-2.315-2.63-2.896-2.704a1.959 1.959 0 0 0-.014.397c.2 2.911 3.713 10.036 5.319 11.141 1.606 1.103 6.786 2.597 6.624 3.212-.502 1.906-4.516 3.311-4.015 3.813.499.499 15.814 6.187 24.891-7.427.661-1.614 1.104-3.112 1.104-3.112z"/><path fill="#688da7" d="M341.429 217.802s.667 1.635-.688 3.582c0 0 .725-1.838.688-3.582zM342.126 218.341s.666 1.635-.688 3.582c0 0 .725-1.838.688-3.582zM342.69 218.865s.667 1.634-.688 3.582c0 0 .725-1.838.688-3.582z"/><path fill="#304454" d="M345.455 227.778c-.268-1.767-1.017-1.767-1.178-3.16 0 0 .051-.097.107-.215 0 0 4.07 2.893 5.409 3.267 0 0 .169 3.388 3.214 4.285-.027.076-.027.146-.027.23 0 0-6.849.052-7.525-4.407z"/><path fill="#4d677a" d="M345.562 227.563c-.268-1.767-1.018-1.767-1.178-3.159 0 0 1.66.749 2.839.643 0 0 1.338 2.035 2.677 2.41 0 0 .321 3.212 3.106 4.498.001 0-6.768.067-7.444-4.392z"/><ellipse cx="338.237" cy="218.428" rx=".532" ry=".885" fill="#304454"/></svg>
