<svg xmlns="http://www.w3.org/2000/svg" version="1.1" width="350" height="200" viewBox="0 0 350 200"><defs/><path fill="#000000" stroke="#000000" d="M 25,175 L 25,75 L 75,25 L 75,125 Z" style="stroke-width: 2px;fill-opacity: 0;stroke-opacity: 1" stroke-width="2" fill-opacity="0" stroke-opacity="1" stroke-dasharray="8,6"/><path fill="#000000" stroke="#000000" d="M 75,25 L 75,125 L 325,125 L 325,25 Z" style="stroke-width: 2px;fill-opacity: 0;stroke-opacity: 1" stroke-width="2" fill-opacity="0" stroke-opacity="1" stroke-dasharray="0"/><path fill="#58c4dd" stroke="#000000" d="M 25,100 L 275,100 L 325,50 L 75,50 Z" style="stroke-width: 2px;fill-opacity: 1;stroke-opacity: 0.2" stroke-width="2" fill-opacity="1" stroke-opacity="0.2" stroke-dasharray="0"/><path fill="#58c4dd" stroke="#000000" d="M 25,175 L 25,100 L 275,100 L 275,175 Z" style="stroke-width: 2px;fill-opacity: 1;stroke-opacity: 0.2" stroke-width="2" fill-opacity="1" stroke-opacity="0.2" stroke-dasharray="0"/><path fill="#58c4dd" stroke="#000000" d="M 275,100 L 275,175 L 325,125 L 325,50 Z" style="stroke-width: 2px;fill-opacity: 1;stroke-opacity: 0.2" stroke-width="2" fill-opacity="1" stroke-opacity="0.2" stroke-dasharray="0"/><path fill="#ffffff" stroke="#000000" d="M 25,175 L 25,75 L 275,75 L 275,175 Z" style="stroke-width: 2px;fill-opacity: 0;stroke-opacity: 1" stroke-width="2" fill-opacity="0" stroke-opacity="1" stroke-dasharray="0"/><path fill="#000000" stroke="#000000" d="M 275,75 L 275,175 L 325,125 L 325,25 Z" style="stroke-width: 2px;fill-opacity: 0;stroke-opacity: 1" stroke-width="2" fill-opacity="0" stroke-opacity="1" stroke-dasharray="0"/><path fill="#000000" stroke="#000000" d="M 25,75 L 275,75 L 325,25 L 75,25 Z" style="stroke-width: 2px;fill-opacity: 0;stroke-opacity: 1" stroke-width="2" fill-opacity="0" stroke-opacity="1" stroke-dasharray="0"/><ellipse cx="50" cy="162.5" rx="12.5" ry="3.75" fill="#fc6255" stroke="#fc6255" style="stroke-width: 2px;stroke-opacity: 1;fill-opacity: 1" stroke-width="2" stroke-opacity="1" stroke-dasharray="0" fill-opacity="1"/><path fill="#fc6255" stroke="#fc6255" d="M 56.25,162.5 L 67.0753,156.25 L 67.0753,168.75 Z" style="stroke-width: 2px;fill-opacity: 1;stroke-opacity: 1" stroke-width="2" fill-opacity="1" stroke-opacity="1" stroke-dasharray="0"/><ellipse cx="43.75" cy="162.5" rx="1.25" ry="1.25" fill="#000000" stroke="#000000" style="stroke-width: 2px;stroke-opacity: 1;fill-opacity: 1" stroke-width="2" stroke-opacity="1" stroke-dasharray="0" fill-opacity="1"/><ellipse cx="75" cy="112.5" rx="17.5" ry="5.25" fill="#fc6255" stroke="#fc6255" style="stroke-width: 2px;stroke-opacity: 1;fill-opacity: 1" stroke-width="2" stroke-opacity="1" stroke-dasharray="0" fill-opacity="1"/><path fill="#fc6255" stroke="#fc6255" d="M 83.75,112.5 L 98.9054,103.75 L 98.9054,121.25 Z" style="stroke-width: 2px;fill-opacity: 1;stroke-opacity: 1" stroke-width="2" fill-opacity="1" stroke-opacity="1" stroke-dasharray="0"/><ellipse cx="66.25" cy="112.5" rx="1.25" ry="1.25" fill="#000000" stroke="#000000" style="stroke-width: 2px;stroke-opacity: 1;fill-opacity: 1" stroke-width="2" stroke-opacity="1" stroke-dasharray="0" fill-opacity="1"/><ellipse cx="125" cy="150" rx="12.5" ry="3.75" fill="#fc6255" stroke="#fc6255" style="stroke-width: 2px;stroke-opacity: 1;fill-opacity: 1" stroke-width="2" stroke-opacity="1" stroke-dasharray="0" fill-opacity="1"/><path fill="#fc6255" stroke="#fc6255" d="M 131.25,150 L 142.075,143.75 L 142.075,156.25 Z" style="stroke-width: 2px;fill-opacity: 1;stroke-opacity: 1" stroke-width="2" fill-opacity="1" stroke-opacity="1" stroke-dasharray="0"/><ellipse cx="118.75" cy="150" rx="1.25" ry="1.25" fill="#000000" stroke="#000000" style="stroke-width: 2px;stroke-opacity: 1;fill-opacity: 1" stroke-width="2" stroke-opacity="1" stroke-dasharray="0" fill-opacity="1"/><ellipse cx="150" cy="125" rx="7.5" ry="2.25" fill="#fc6255" stroke="#fc6255" style="stroke-width: 2px;stroke-opacity: 1;fill-opacity: 1" stroke-width="2" stroke-opacity="1" stroke-dasharray="0" fill-opacity="1"/><path fill="#fc6255" stroke="#fc6255" d="M 153.75,125 L 160.245,121.25 L 160.245,128.75 Z" style="stroke-width: 2px;fill-opacity: 1;stroke-opacity: 1" stroke-width="2" fill-opacity="1" stroke-opacity="1" stroke-dasharray="0"/><ellipse cx="146.25" cy="125" rx="1.25" ry="1.25" fill="#000000" stroke="#000000" style="stroke-width: 2px;stroke-opacity: 1;fill-opacity: 1" stroke-width="2" stroke-opacity="1" stroke-dasharray="0" fill-opacity="1"/><ellipse cx="175" cy="162.5" rx="12.5" ry="3.75" fill="#fc6255" stroke="#fc6255" style="stroke-width: 2px;stroke-opacity: 1;fill-opacity: 1" stroke-width="2" stroke-opacity="1" stroke-dasharray="0" fill-opacity="1"/><path fill="#fc6255" stroke="#fc6255" d="M 181.25,162.5 L 192.075,156.25 L 192.075,168.75 Z" style="stroke-width: 2px;fill-opacity: 1;stroke-opacity: 1" stroke-width="2" fill-opacity="1" stroke-opacity="1" stroke-dasharray="0"/><ellipse cx="168.75" cy="162.5" rx="1.25" ry="1.25" fill="#000000" stroke="#000000" style="stroke-width: 2px;stroke-opacity: 1;fill-opacity: 1" stroke-width="2" stroke-opacity="1" stroke-dasharray="0" fill-opacity="1"/><ellipse cx="225" cy="112.5" rx="12.5" ry="3.75" fill="#fc6255" stroke="#fc6255" style="stroke-width: 2px;stroke-opacity: 1;fill-opacity: 1" stroke-width="2" stroke-opacity="1" stroke-dasharray="0" fill-opacity="1"/><path fill="#fc6255" stroke="#fc6255" d="M 231.25,112.5 L 242.075,106.25 L 242.075,118.75 Z" style="stroke-width: 2px;fill-opacity: 1;stroke-opacity: 1" stroke-width="2" fill-opacity="1" stroke-opacity="1" stroke-dasharray="0"/><ellipse cx="218.75" cy="112.5" rx="1.25" ry="1.25" fill="#000000" stroke="#000000" style="stroke-width: 2px;stroke-opacity: 1;fill-opacity: 1" stroke-width="2" stroke-opacity="1" stroke-dasharray="0" fill-opacity="1"/><ellipse cx="237.5" cy="150" rx="7.5" ry="2.25" fill="#fc6255" stroke="#fc6255" style="stroke-width: 2px;stroke-opacity: 1;fill-opacity: 1" stroke-width="2" stroke-opacity="1" stroke-dasharray="0" fill-opacity="1"/><path fill="#fc6255" stroke="#fc6255" d="M 241.25,150 L 247.745,146.25 L 247.745,153.75 Z" style="stroke-width: 2px;fill-opacity: 1;stroke-opacity: 1" stroke-width="2" fill-opacity="1" stroke-opacity="1" stroke-dasharray="0"/><ellipse cx="233.75" cy="150" rx="1.25" ry="1.25" fill="#000000" stroke="#000000" style="stroke-width: 2px;stroke-opacity: 1;fill-opacity: 1" stroke-width="2" stroke-opacity="1" stroke-dasharray="0" fill-opacity="1"/></svg>