<svg xmlns="http://www.w3.org/2000/svg" version="1.1" width="350" height="215.3846153846154" viewBox="0 0 350 215.3846153846154"><defs/><path fill="#9cdceb" stroke="#9cdceb" d="M 13.4615,201.923 L 282.692,201.923 L 309.615,148.077 L 40.3846,148.077 Z" style="stroke-width: 2px;fill-opacity: 1;stroke-opacity: 1" stroke-width="2" fill-opacity="1" stroke-opacity="1" stroke-dasharray="0"/><path fill="#000000" stroke="#000000" d="M 13.4615,201.923 L 13.4615,121.154 L 40.3846,67.3077 L 40.3846,148.077 Z" style="stroke-width: 2px;fill-opacity: 0;stroke-opacity: 1" stroke-width="2" fill-opacity="0" stroke-opacity="1" stroke-dasharray="0"/><path fill="#000000" stroke="#000000" d="M 13.4615,201.923 L 13.4615,121.154 L 282.692,121.154 L 282.692,201.923 Z" style="stroke-width: 2px;fill-opacity: 0;stroke-opacity: 1" stroke-width="2" fill-opacity="0" stroke-opacity="1" stroke-dasharray="0"/><path fill="#000000" stroke="#000000" d="M 282.692,121.154 L 282.692,201.923 L 309.615,148.077 L 309.615,67.3077 Z" style="stroke-width: 2px;fill-opacity: 0;stroke-opacity: 1" stroke-width="2" fill-opacity="0" stroke-opacity="1" stroke-dasharray="0"/><path fill="#29abca" stroke="#000000" d="M 13.4615,121.154 L 13.4615,107.692 L 282.692,107.692 L 282.692,121.154 Z" style="stroke-width: 2px;fill-opacity: 1;stroke-opacity: 1" stroke-width="2" fill-opacity="1" stroke-opacity="1" stroke-dasharray="0"/><path fill="#29abca" stroke="#000000" d="M 282.692,107.692 L 282.692,121.154 L 309.615,67.3077 L 309.615,53.8462 Z" style="stroke-width: 2px;fill-opacity: 1;stroke-opacity: 1" stroke-width="2" fill-opacity="1" stroke-opacity="1" stroke-dasharray="0"/><path fill="#29abca" stroke="#000000" d="M 13.4615,107.692 L 282.692,107.692 L 309.615,53.8462 L 40.3846,53.8462 Z" style="stroke-width: 2px;fill-opacity: 1;stroke-opacity: 1" stroke-width="2" fill-opacity="1" stroke-opacity="1" stroke-dasharray="0"/><path fill="#29abca" stroke="#000000" d="M 107.692,80.7692 L 121.154,80.7692 L 121.154,53.8462 L 175,53.8462 L 175,80.7692 L 188.462,80.7692 L 188.462,40.3846 L 107.692,40.3846 Z" style="stroke-width: 2px;fill-opacity: 1;stroke-opacity: 1" stroke-width="2" fill-opacity="1" stroke-opacity="1" stroke-dasharray="0"/><path fill="#ffffff" stroke="#000000" d="M 201.923,94.2308 L 215.385,67.3077 L 282.692,67.3077 L 269.231,94.2308 Z" style="stroke-width: 2px;fill-opacity: 1;stroke-opacity: 1" stroke-width="2" fill-opacity="1" stroke-opacity="1" stroke-dasharray="0"/><path fill="#808080" stroke="#808080" d="M 67.3077,188.462 A 13.4615,13.4615 0 0,0 40.3846,188.462 L 53.8462,188.462 Z" style="stroke-width: 2px;stroke-opacity: 0;fill-opacity: 0.5" stroke-width="2" stroke-opacity="0" stroke-dasharray="0" fill-opacity="0.5"/><path fill="#808080" stroke="#808080" d="M 67.3077,188.462 A 13.4615,13.4615 0 0,0 40.3846,188.462" style="stroke-width: 2px;stroke-opacity: 1;fill-opacity: 0" stroke-width="2" stroke-opacity="1" stroke-dasharray="0" fill-opacity="0"/><ellipse cx="65.52423033829729" cy="186.92409052433112" rx="1.3461538461538463" ry="1.3461538461538463" fill="#808080" stroke="#808080" style="stroke-width: 2px;stroke-opacity: 1;fill-opacity: 1" stroke-width="2" stroke-opacity="1" stroke-dasharray="0" fill-opacity="1"/><path fill="#808080" stroke="#808080" d="M 67.3077,188.462 L 80.7692,188.462" style="stroke-width: 2px;stroke-opacity: 1;fill-opacity: 0" stroke-width="2" stroke-opacity="1" stroke-dasharray="0" fill-opacity="0" transform="rotate(180 67.3076923076923 188.46153846153845)"/><path fill="#808080" stroke="#808080" d="M 66.4959,183.857 L 79.9574,183.857" style="stroke-width: 2px;stroke-opacity: 1;fill-opacity: 0" stroke-width="2" stroke-opacity="1" stroke-dasharray="0" fill-opacity="0" transform="rotate(160 66.49586220288724 183.85742114753907)"/><path fill="#808080" stroke="#808080" d="M 64.1583,179.809 L 77.6198,179.809" style="stroke-width: 2px;stroke-opacity: 1;fill-opacity: 0" stroke-width="2" stroke-opacity="1" stroke-dasharray="0" fill-opacity="0" transform="rotate(140 64.15829058044778 179.80862833114273)"/><path fill="#808080" stroke="#808080" d="M 60.5769,176.804 L 74.0385,176.804" style="stroke-width: 2px;stroke-opacity: 1;fill-opacity: 0" stroke-width="2" stroke-opacity="1" stroke-dasharray="0" fill-opacity="0" transform="rotate(120.00000000000006 60.57692307692308 176.80350417982487)"/><path fill="#808080" stroke="#808080" d="M 56.1837,175.205 L 69.6453,175.205" style="stroke-width: 2px;stroke-opacity: 1;fill-opacity: 0" stroke-width="2" stroke-opacity="1" stroke-dasharray="0" fill-opacity="0" transform="rotate(100 56.18372546859329 175.20451101714335)"/><path fill="#808080" stroke="#808080" d="M 51.5086,175.205 L 64.9701,175.205" style="stroke-width: 2px;stroke-opacity: 1;fill-opacity: 0" stroke-width="2" stroke-opacity="1" stroke-dasharray="0" fill-opacity="0" transform="rotate(80 51.508582223714406 175.20451101714335)"/><path fill="#808080" stroke="#808080" d="M 47.1154,176.804 L 60.5769,176.804" style="stroke-width: 2px;stroke-opacity: 1;fill-opacity: 0" stroke-width="2" stroke-opacity="1" stroke-dasharray="0" fill-opacity="0" transform="rotate(59.99999999999994 47.11538461538461 176.80350417982487)"/><path fill="#808080" stroke="#808080" d="M 43.534,179.809 L 56.9956,179.809" style="stroke-width: 2px;stroke-opacity: 1;fill-opacity: 0" stroke-width="2" stroke-opacity="1" stroke-dasharray="0" fill-opacity="0" transform="rotate(40 43.53401711185991 179.80862833114273)"/><path fill="#808080" stroke="#808080" d="M 41.1964,183.857 L 54.658,183.857" style="stroke-width: 2px;stroke-opacity: 1;fill-opacity: 0" stroke-width="2" stroke-opacity="1" stroke-dasharray="0" fill-opacity="0" transform="rotate(20 41.19644548942046 183.85742114753907)"/><path fill="#808080" stroke="#808080" d="M 40.3846,188.462 L 53.8462,188.462" style="stroke-width: 2px;stroke-opacity: 1;fill-opacity: 0" stroke-width="2" stroke-opacity="1" stroke-dasharray="0" fill-opacity="0" transform=""/><path fill="#808080" stroke="#808080" d="M 62.8205,188.462 L 65.8306,188.462" style="stroke-width: 2px;stroke-opacity: 1;fill-opacity: 0" stroke-width="2" stroke-opacity="1" stroke-dasharray="0" fill-opacity="0" transform="rotate(63.43494882292191 62.82051282051281 188.46153846153845)"/><path fill="#808080" stroke="#808080" d="M 60.5769,188.462 L 63.587,188.462" style="stroke-width: 2px;stroke-opacity: 1;fill-opacity: 0" stroke-width="2" stroke-opacity="1" stroke-dasharray="0" fill-opacity="0" transform="rotate(63.43494882292225 60.57692307692308 188.46153846153845)"/><path fill="#808080" stroke="#808080" d="M 58.3333,188.462 L 61.3434,188.462" style="stroke-width: 2px;stroke-opacity: 1;fill-opacity: 0" stroke-width="2" stroke-opacity="1" stroke-dasharray="0" fill-opacity="0" transform="rotate(63.43494882292225 58.33333333333334 188.46153846153845)"/><path fill="#808080" stroke="#808080" d="M 49.359,188.462 L 52.3691,188.462" style="stroke-width: 2px;stroke-opacity: 1;fill-opacity: 0" stroke-width="2" stroke-opacity="1" stroke-dasharray="0" fill-opacity="0" transform="rotate(116.56505117707786 49.35897435897436 188.46153846153845)"/><path fill="#808080" stroke="#808080" d="M 47.1154,188.462 L 50.1255,188.462" style="stroke-width: 2px;stroke-opacity: 1;fill-opacity: 0" stroke-width="2" stroke-opacity="1" stroke-dasharray="0" fill-opacity="0" transform="rotate(116.56505117707786 47.11538461538461 188.46153846153845)"/><path fill="#808080" stroke="#808080" d="M 44.8718,188.462 L 47.8819,188.462" style="stroke-width: 2px;stroke-opacity: 1;fill-opacity: 0" stroke-width="2" stroke-opacity="1" stroke-dasharray="0" fill-opacity="0" transform="rotate(116.56505117707786 44.871794871794876 188.46153846153845)"/><path fill="#808080" stroke="#808080" d="M 42.6282,188.462 L 45.6383,188.462" style="stroke-width: 2px;stroke-opacity: 1;fill-opacity: 0" stroke-width="2" stroke-opacity="1" stroke-dasharray="0" fill-opacity="0" transform="rotate(116.56505117707775 42.628205128205124 188.46153846153845)"/><path fill="#808080" stroke="#808080" d="M 65.9615,184.423 L 70.8152,184.423" style="stroke-width: 2px;stroke-opacity: 1;fill-opacity: 0" stroke-width="2" stroke-opacity="1" stroke-dasharray="0" fill-opacity="0" transform="rotate(326.30993247402034 65.96153846153847 184.4230769230769)"/><path fill="#808080" stroke="#808080" d="M 65.9615,183.077 L 71.2184,183.077" style="stroke-width: 2px;stroke-opacity: 1;fill-opacity: 0" stroke-width="2" stroke-opacity="1" stroke-dasharray="0" fill-opacity="0" transform="rotate(320.19442890773485 65.96153846153847 183.07692307692307)"/><path fill="#808080" stroke="#808080" d="M 80.7692,161.538 A 13.4615,13.4615 0 0,0 53.8462,161.538 L 67.3077,161.538 Z" style="stroke-width: 2px;stroke-opacity: 0;fill-opacity: 0.5" stroke-width="2" stroke-opacity="0" stroke-dasharray="0" fill-opacity="0.5"/><path fill="#808080" stroke="#808080" d="M 80.7692,161.538 A 13.4615,13.4615 0 0,0 53.8462,161.538" style="stroke-width: 2px;stroke-opacity: 1;fill-opacity: 0" stroke-width="2" stroke-opacity="1" stroke-dasharray="0" fill-opacity="0"/><ellipse cx="78.98576879983575" cy="160.0010136012542" rx="1.3461538461538463" ry="1.3461538461538463" fill="#808080" stroke="#808080" style="stroke-width: 2px;stroke-opacity: 1;fill-opacity: 1" stroke-width="2" stroke-opacity="1" stroke-dasharray="0" fill-opacity="1"/><path fill="#808080" stroke="#808080" d="M 80.7692,161.538 L 94.2308,161.538" style="stroke-width: 2px;stroke-opacity: 1;fill-opacity: 0" stroke-width="2" stroke-opacity="1" stroke-dasharray="0" fill-opacity="0" transform="rotate(180 80.76923076923077 161.53846153846155)"/><path fill="#808080" stroke="#808080" d="M 79.9574,156.934 L 93.4189,156.934" style="stroke-width: 2px;stroke-opacity: 1;fill-opacity: 0" stroke-width="2" stroke-opacity="1" stroke-dasharray="0" fill-opacity="0" transform="rotate(159.9999999999999 79.95740066442569 156.93434422446214)"/><path fill="#808080" stroke="#808080" d="M 77.6198,152.886 L 91.0814,152.886" style="stroke-width: 2px;stroke-opacity: 1;fill-opacity: 0" stroke-width="2" stroke-opacity="1" stroke-dasharray="0" fill-opacity="0" transform="rotate(140 77.61982904198624 152.88555140806582)"/><path fill="#808080" stroke="#808080" d="M 74.0385,149.88 L 87.5,149.88" style="stroke-width: 2px;stroke-opacity: 1;fill-opacity: 0" stroke-width="2" stroke-opacity="1" stroke-dasharray="0" fill-opacity="0" transform="rotate(120 74.03846153846153 149.88042725674796)"/><path fill="#808080" stroke="#808080" d="M 69.6453,148.281 L 83.1068,148.281" style="stroke-width: 2px;stroke-opacity: 1;fill-opacity: 0" stroke-width="2" stroke-opacity="1" stroke-dasharray="0" fill-opacity="0" transform="rotate(99.99999999999994 69.64526393013175 148.2814340940664)"/><path fill="#808080" stroke="#808080" d="M 64.9701,148.281 L 78.4317,148.281" style="stroke-width: 2px;stroke-opacity: 1;fill-opacity: 0" stroke-width="2" stroke-opacity="1" stroke-dasharray="0" fill-opacity="0" transform="rotate(80 64.97012068525287 148.2814340940664)"/><path fill="#808080" stroke="#808080" d="M 60.5769,149.88 L 74.0385,149.88" style="stroke-width: 2px;stroke-opacity: 1;fill-opacity: 0" stroke-width="2" stroke-opacity="1" stroke-dasharray="0" fill-opacity="0" transform="rotate(60 60.57692307692308 149.88042725674794)"/><path fill="#808080" stroke="#808080" d="M 56.9956,152.886 L 70.4571,152.886" style="stroke-width: 2px;stroke-opacity: 1;fill-opacity: 0" stroke-width="2" stroke-opacity="1" stroke-dasharray="0" fill-opacity="0" transform="rotate(40 56.99555557339838 152.88555140806582)"/><path fill="#808080" stroke="#808080" d="M 54.658,156.934 L 68.1195,156.934" style="stroke-width: 2px;stroke-opacity: 1;fill-opacity: 0" stroke-width="2" stroke-opacity="1" stroke-dasharray="0" fill-opacity="0" transform="rotate(20.000000000000114 54.65798395095892 156.93434422446214)"/><path fill="#808080" stroke="#808080" d="M 53.8462,161.538 L 67.3077,161.538" style="stroke-width: 2px;stroke-opacity: 1;fill-opacity: 0" stroke-width="2" stroke-opacity="1" stroke-dasharray="0" fill-opacity="0" transform=""/><path fill="#808080" stroke="#808080" d="M 76.2821,161.538 L 79.2921,161.538" style="stroke-width: 2px;stroke-opacity: 1;fill-opacity: 0" stroke-width="2" stroke-opacity="1" stroke-dasharray="0" fill-opacity="0" transform="rotate(63.434948822922024 76.28205128205128 161.53846153846155)"/><path fill="#808080" stroke="#808080" d="M 74.0385,161.538 L 77.0486,161.538" style="stroke-width: 2px;stroke-opacity: 1;fill-opacity: 0" stroke-width="2" stroke-opacity="1" stroke-dasharray="0" fill-opacity="0" transform="rotate(63.43494882292174 74.03846153846153 161.53846153846155)"/><path fill="#808080" stroke="#808080" d="M 71.7949,161.538 L 74.805,161.538" style="stroke-width: 2px;stroke-opacity: 1;fill-opacity: 0" stroke-width="2" stroke-opacity="1" stroke-dasharray="0" fill-opacity="0" transform="rotate(63.43494882292174 71.7948717948718 161.53846153846155)"/><path fill="#808080" stroke="#808080" d="M 62.8205,161.538 L 65.8306,161.538" style="stroke-width: 2px;stroke-opacity: 1;fill-opacity: 0" stroke-width="2" stroke-opacity="1" stroke-dasharray="0" fill-opacity="0" transform="rotate(116.56505117707798 62.82051282051281 161.53846153846155)"/><path fill="#808080" stroke="#808080" d="M 60.5769,161.538 L 63.587,161.538" style="stroke-width: 2px;stroke-opacity: 1;fill-opacity: 0" stroke-width="2" stroke-opacity="1" stroke-dasharray="0" fill-opacity="0" transform="rotate(116.56505117707809 60.57692307692308 161.53846153846155)"/><path fill="#808080" stroke="#808080" d="M 58.3333,161.538 L 61.3434,161.538" style="stroke-width: 2px;stroke-opacity: 1;fill-opacity: 0" stroke-width="2" stroke-opacity="1" stroke-dasharray="0" fill-opacity="0" transform="rotate(116.5650511770782 58.33333333333334 161.53846153846155)"/><path fill="#808080" stroke="#808080" d="M 56.0897,161.538 L 59.0998,161.538" style="stroke-width: 2px;stroke-opacity: 1;fill-opacity: 0" stroke-width="2" stroke-opacity="1" stroke-dasharray="0" fill-opacity="0" transform="rotate(116.56505117707798 56.089743589743584 161.53846153846155)"/><path fill="#808080" stroke="#808080" d="M 79.4231,157.5 L 84.2767,157.5" style="stroke-width: 2px;stroke-opacity: 1;fill-opacity: 0" stroke-width="2" stroke-opacity="1" stroke-dasharray="0" fill-opacity="0" transform="rotate(326.30993247402034 79.42307692307693 157.5)"/><path fill="#808080" stroke="#808080" d="M 79.4231,156.154 L 84.68,156.154" style="stroke-width: 2px;stroke-opacity: 1;fill-opacity: 0" stroke-width="2" stroke-opacity="1" stroke-dasharray="0" fill-opacity="0" transform="rotate(320.19442890773485 79.42307692307693 156.15384615384616)"/><path fill="#808080" stroke="#808080" d="M 242.308,195.192 A 13.4615,13.4615 0 0,0 215.385,195.192 L 228.846,195.192 Z" style="stroke-width: 2px;stroke-opacity: 0;fill-opacity: 0.5" stroke-width="2" stroke-opacity="0" stroke-dasharray="0" fill-opacity="0.5"/><path fill="#808080" stroke="#808080" d="M 242.308,195.192 A 13.4615,13.4615 0 0,0 215.385,195.192" style="stroke-width: 2px;stroke-opacity: 1;fill-opacity: 0" stroke-width="2" stroke-opacity="1" stroke-dasharray="0" fill-opacity="0"/><ellipse cx="240.5242303382973" cy="193.65485975510035" rx="1.3461538461538463" ry="1.3461538461538463" fill="#808080" stroke="#808080" style="stroke-width: 2px;stroke-opacity: 1;fill-opacity: 1" stroke-width="2" stroke-opacity="1" stroke-dasharray="0" fill-opacity="1"/><path fill="#808080" stroke="#808080" d="M 242.308,195.192 L 255.769,195.192" style="stroke-width: 2px;stroke-opacity: 1;fill-opacity: 0" stroke-width="2" stroke-opacity="1" stroke-dasharray="0" fill-opacity="0" transform="rotate(180 242.30769230769232 195.1923076923077)"/><path fill="#808080" stroke="#808080" d="M 241.496,190.588 L 254.957,190.588" style="stroke-width: 2px;stroke-opacity: 1;fill-opacity: 0" stroke-width="2" stroke-opacity="1" stroke-dasharray="0" fill-opacity="0" transform="rotate(159.9999999999999 241.49586220288722 190.5881903783083)"/><path fill="#808080" stroke="#808080" d="M 239.158,186.539 L 252.62,186.539" style="stroke-width: 2px;stroke-opacity: 1;fill-opacity: 0" stroke-width="2" stroke-opacity="1" stroke-dasharray="0" fill-opacity="0" transform="rotate(139.9999999999999 239.15829058044778 186.53939756191195)"/><path fill="#808080" stroke="#808080" d="M 235.577,183.534 L 249.038,183.534" style="stroke-width: 2px;stroke-opacity: 1;fill-opacity: 0" stroke-width="2" stroke-opacity="1" stroke-dasharray="0" fill-opacity="0" transform="rotate(119.99999999999994 235.57692307692307 183.5342734105941)"/><path fill="#808080" stroke="#808080" d="M 231.184,181.935 L 244.645,181.935" style="stroke-width: 2px;stroke-opacity: 1;fill-opacity: 0" stroke-width="2" stroke-opacity="1" stroke-dasharray="0" fill-opacity="0" transform="rotate(99.99999999999994 231.18372546859328 181.93528024791257)"/><path fill="#808080" stroke="#808080" d="M 226.509,181.935 L 239.97,181.935" style="stroke-width: 2px;stroke-opacity: 1;fill-opacity: 0" stroke-width="2" stroke-opacity="1" stroke-dasharray="0" fill-opacity="0" transform="rotate(80 226.5085822237144 181.93528024791257)"/><path fill="#808080" stroke="#808080" d="M 222.115,183.534 L 235.577,183.534" style="stroke-width: 2px;stroke-opacity: 1;fill-opacity: 0" stroke-width="2" stroke-opacity="1" stroke-dasharray="0" fill-opacity="0" transform="rotate(60 222.1153846153846 183.5342734105941)"/><path fill="#808080" stroke="#808080" d="M 218.534,186.539 L 231.996,186.539" style="stroke-width: 2px;stroke-opacity: 1;fill-opacity: 0" stroke-width="2" stroke-opacity="1" stroke-dasharray="0" fill-opacity="0" transform="rotate(40.000000000000114 218.5340171118599 186.53939756191195)"/><path fill="#808080" stroke="#808080" d="M 216.196,190.588 L 229.658,190.588" style="stroke-width: 2px;stroke-opacity: 1;fill-opacity: 0" stroke-width="2" stroke-opacity="1" stroke-dasharray="0" fill-opacity="0" transform="rotate(20.000000000000114 216.19644548942046 190.5881903783083)"/><path fill="#808080" stroke="#808080" d="M 215.385,195.192 L 228.846,195.192" style="stroke-width: 2px;stroke-opacity: 1;fill-opacity: 0" stroke-width="2" stroke-opacity="1" stroke-dasharray="0" fill-opacity="0" transform=""/><path fill="#808080" stroke="#808080" d="M 237.821,195.192 L 240.831,195.192" style="stroke-width: 2px;stroke-opacity: 1;fill-opacity: 0" stroke-width="2" stroke-opacity="1" stroke-dasharray="0" fill-opacity="0" transform="rotate(63.43494882292248 237.82051282051285 195.1923076923077)"/><path fill="#808080" stroke="#808080" d="M 235.577,195.192 L 238.587,195.192" style="stroke-width: 2px;stroke-opacity: 1;fill-opacity: 0" stroke-width="2" stroke-opacity="1" stroke-dasharray="0" fill-opacity="0" transform="rotate(63.43494882292151 235.57692307692307 195.1923076923077)"/><path fill="#808080" stroke="#808080" d="M 233.333,195.192 L 236.343,195.192" style="stroke-width: 2px;stroke-opacity: 1;fill-opacity: 0" stroke-width="2" stroke-opacity="1" stroke-dasharray="0" fill-opacity="0" transform="rotate(63.43494882292151 233.33333333333331 195.1923076923077)"/><path fill="#808080" stroke="#808080" d="M 224.359,195.192 L 227.369,195.192" style="stroke-width: 2px;stroke-opacity: 1;fill-opacity: 0" stroke-width="2" stroke-opacity="1" stroke-dasharray="0" fill-opacity="0" transform="rotate(116.56505117707752 224.35897435897434 195.1923076923077)"/><path fill="#808080" stroke="#808080" d="M 222.115,195.192 L 225.125,195.192" style="stroke-width: 2px;stroke-opacity: 1;fill-opacity: 0" stroke-width="2" stroke-opacity="1" stroke-dasharray="0" fill-opacity="0" transform="rotate(116.56505117707849 222.1153846153846 195.1923076923077)"/><path fill="#808080" stroke="#808080" d="M 219.872,195.192 L 222.882,195.192" style="stroke-width: 2px;stroke-opacity: 1;fill-opacity: 0" stroke-width="2" stroke-opacity="1" stroke-dasharray="0" fill-opacity="0" transform="rotate(116.56505117707849 219.87179487179492 195.1923076923077)"/><path fill="#808080" stroke="#808080" d="M 217.628,195.192 L 220.638,195.192" style="stroke-width: 2px;stroke-opacity: 1;fill-opacity: 0" stroke-width="2" stroke-opacity="1" stroke-dasharray="0" fill-opacity="0" transform="rotate(116.56505117707798 217.6282051282051 195.1923076923077)"/><path fill="#808080" stroke="#808080" d="M 240.962,191.154 L 245.815,191.154" style="stroke-width: 2px;stroke-opacity: 1;fill-opacity: 0" stroke-width="2" stroke-opacity="1" stroke-dasharray="0" fill-opacity="0" transform="rotate(326.3099324740201 240.96153846153845 191.15384615384616)"/><path fill="#808080" stroke="#808080" d="M 240.962,189.808 L 246.218,189.808" style="stroke-width: 2px;stroke-opacity: 1;fill-opacity: 0" stroke-width="2" stroke-opacity="1" stroke-dasharray="0" fill-opacity="0" transform="rotate(320.19442890773485 240.96153846153845 189.8076923076923)"/><path fill="#808080" stroke="#808080" d="M 121.154,175 A 13.4615,13.4615 0 0,0 94.2308,175 L 107.692,175 Z" style="stroke-width: 2px;stroke-opacity: 0;fill-opacity: 0.5" stroke-width="2" stroke-opacity="0" stroke-dasharray="0" fill-opacity="0.5"/><path fill="#808080" stroke="#808080" d="M 121.154,175 A 13.4615,13.4615 0 0,0 94.2308,175" style="stroke-width: 2px;stroke-opacity: 1;fill-opacity: 0" stroke-width="2" stroke-opacity="1" stroke-dasharray="0" fill-opacity="0"/><ellipse cx="119.37038418445113" cy="173.46255206279267" rx="1.3461538461538463" ry="1.3461538461538463" fill="#808080" stroke="#808080" style="stroke-width: 2px;stroke-opacity: 1;fill-opacity: 1" stroke-width="2" stroke-opacity="1" stroke-dasharray="0" fill-opacity="1"/><path fill="#808080" stroke="#808080" d="M 121.154,175 L 134.615,175" style="stroke-width: 2px;stroke-opacity: 1;fill-opacity: 0" stroke-width="2" stroke-opacity="1" stroke-dasharray="0" fill-opacity="0" transform="rotate(180 121.15384615384616 175)"/><path fill="#808080" stroke="#808080" d="M 120.342,170.396 L 133.804,170.396" style="stroke-width: 2px;stroke-opacity: 1;fill-opacity: 0" stroke-width="2" stroke-opacity="1" stroke-dasharray="0" fill-opacity="0" transform="rotate(160 120.34201604904108 170.39588268600062)"/><path fill="#808080" stroke="#808080" d="M 118.004,166.347 L 131.466,166.347" style="stroke-width: 2px;stroke-opacity: 1;fill-opacity: 0" stroke-width="2" stroke-opacity="1" stroke-dasharray="0" fill-opacity="0" transform="rotate(140 118.00444442660164 166.34708986960428)"/><path fill="#808080" stroke="#808080" d="M 114.423,163.342 L 127.885,163.342" style="stroke-width: 2px;stroke-opacity: 1;fill-opacity: 0" stroke-width="2" stroke-opacity="1" stroke-dasharray="0" fill-opacity="0" transform="rotate(120 114.42307692307692 163.34196571828642)"/><path fill="#808080" stroke="#808080" d="M 110.03,161.743 L 123.491,161.743" style="stroke-width: 2px;stroke-opacity: 1;fill-opacity: 0" stroke-width="2" stroke-opacity="1" stroke-dasharray="0" fill-opacity="0" transform="rotate(100 110.02987931474713 161.7429725556049)"/><path fill="#808080" stroke="#808080" d="M 105.355,161.743 L 118.816,161.743" style="stroke-width: 2px;stroke-opacity: 1;fill-opacity: 0" stroke-width="2" stroke-opacity="1" stroke-dasharray="0" fill-opacity="0" transform="rotate(80 105.35473606986825 161.7429725556049)"/><path fill="#808080" stroke="#808080" d="M 100.962,163.342 L 114.423,163.342" style="stroke-width: 2px;stroke-opacity: 1;fill-opacity: 0" stroke-width="2" stroke-opacity="1" stroke-dasharray="0" fill-opacity="0" transform="rotate(60 100.96153846153847 163.3419657182864)"/><path fill="#808080" stroke="#808080" d="M 97.3802,166.347 L 110.842,166.347" style="stroke-width: 2px;stroke-opacity: 1;fill-opacity: 0" stroke-width="2" stroke-opacity="1" stroke-dasharray="0" fill-opacity="0" transform="rotate(40 97.38017095801376 166.34708986960428)"/><path fill="#808080" stroke="#808080" d="M 95.0426,170.396 L 108.504,170.396" style="stroke-width: 2px;stroke-opacity: 1;fill-opacity: 0" stroke-width="2" stroke-opacity="1" stroke-dasharray="0" fill-opacity="0" transform="rotate(20 95.04259933557432 170.39588268600062)"/><path fill="#808080" stroke="#808080" d="M 94.2308,175 L 107.692,175" style="stroke-width: 2px;stroke-opacity: 1;fill-opacity: 0" stroke-width="2" stroke-opacity="1" stroke-dasharray="0" fill-opacity="0" transform=""/><path fill="#808080" stroke="#808080" d="M 116.667,175 L 119.677,175" style="stroke-width: 2px;stroke-opacity: 1;fill-opacity: 0" stroke-width="2" stroke-opacity="1" stroke-dasharray="0" fill-opacity="0" transform="rotate(63.43494882292248 116.66666666666669 175)"/><path fill="#808080" stroke="#808080" d="M 114.423,175 L 117.433,175" style="stroke-width: 2px;stroke-opacity: 1;fill-opacity: 0" stroke-width="2" stroke-opacity="1" stroke-dasharray="0" fill-opacity="0" transform="rotate(63.434948822922024 114.42307692307692 175)"/><path fill="#808080" stroke="#808080" d="M 112.179,175 L 115.19,175" style="stroke-width: 2px;stroke-opacity: 1;fill-opacity: 0" stroke-width="2" stroke-opacity="1" stroke-dasharray="0" fill-opacity="0" transform="rotate(63.43494882292151 112.17948717948717 175)"/><path fill="#808080" stroke="#808080" d="M 103.205,175 L 106.215,175" style="stroke-width: 2px;stroke-opacity: 1;fill-opacity: 0" stroke-width="2" stroke-opacity="1" stroke-dasharray="0" fill-opacity="0" transform="rotate(116.5650511770782 103.2051282051282 175)"/><path fill="#808080" stroke="#808080" d="M 100.962,175 L 103.972,175" style="stroke-width: 2px;stroke-opacity: 1;fill-opacity: 0" stroke-width="2" stroke-opacity="1" stroke-dasharray="0" fill-opacity="0" transform="rotate(116.56505117707798 100.96153846153847 175)"/><path fill="#808080" stroke="#808080" d="M 98.7179,175 L 101.728,175" style="stroke-width: 2px;stroke-opacity: 1;fill-opacity: 0" stroke-width="2" stroke-opacity="1" stroke-dasharray="0" fill-opacity="0" transform="rotate(116.56505117707798 98.71794871794872 175)"/><path fill="#808080" stroke="#808080" d="M 96.4744,175 L 99.4845,175" style="stroke-width: 2px;stroke-opacity: 1;fill-opacity: 0" stroke-width="2" stroke-opacity="1" stroke-dasharray="0" fill-opacity="0" transform="rotate(116.5650511770782 96.47435897435898 175)"/><path fill="#808080" stroke="#808080" d="M 119.808,170.962 L 124.661,170.962" style="stroke-width: 2px;stroke-opacity: 1;fill-opacity: 0" stroke-width="2" stroke-opacity="1" stroke-dasharray="0" fill-opacity="0" transform="rotate(326.30993247402034 119.8076923076923 170.96153846153845)"/><path fill="#808080" stroke="#808080" d="M 119.808,169.615 L 125.065,169.615" style="stroke-width: 2px;stroke-opacity: 1;fill-opacity: 0" stroke-width="2" stroke-opacity="1" stroke-dasharray="0" fill-opacity="0" transform="rotate(320.19442890773485 119.8076923076923 169.6153846153846)"/><path fill="#808080" stroke="#808080" d="M 215.385,152.115 A 13.4615,13.4615 0 0,0 188.462,152.115 L 201.923,152.115 Z" style="stroke-width: 2px;stroke-opacity: 0;fill-opacity: 0.5" stroke-width="2" stroke-opacity="0" stroke-dasharray="0" fill-opacity="0.5"/><path fill="#808080" stroke="#808080" d="M 215.385,152.115 A 13.4615,13.4615 0 0,0 188.462,152.115" style="stroke-width: 2px;stroke-opacity: 1;fill-opacity: 0" stroke-width="2" stroke-opacity="1" stroke-dasharray="0" fill-opacity="0"/><ellipse cx="213.60115341522035" cy="150.57793667817728" rx="1.3461538461538463" ry="1.3461538461538463" fill="#808080" stroke="#808080" style="stroke-width: 2px;stroke-opacity: 1;fill-opacity: 1" stroke-width="2" stroke-opacity="1" stroke-dasharray="0" fill-opacity="1"/><path fill="#808080" stroke="#808080" d="M 215.385,152.115 L 228.846,152.115" style="stroke-width: 2px;stroke-opacity: 1;fill-opacity: 0" stroke-width="2" stroke-opacity="1" stroke-dasharray="0" fill-opacity="0" transform="rotate(180 215.3846153846154 152.1153846153846)"/><path fill="#808080" stroke="#808080" d="M 214.573,147.511 L 228.034,147.511" style="stroke-width: 2px;stroke-opacity: 1;fill-opacity: 0" stroke-width="2" stroke-opacity="1" stroke-dasharray="0" fill-opacity="0" transform="rotate(160 214.57278527981032 147.51126730138523)"/><path fill="#808080" stroke="#808080" d="M 212.235,143.462 L 225.697,143.462" style="stroke-width: 2px;stroke-opacity: 1;fill-opacity: 0" stroke-width="2" stroke-opacity="1" stroke-dasharray="0" fill-opacity="0" transform="rotate(140 212.23521365737088 143.4624744849889)"/><path fill="#808080" stroke="#808080" d="M 208.654,140.457 L 222.115,140.457" style="stroke-width: 2px;stroke-opacity: 1;fill-opacity: 0" stroke-width="2" stroke-opacity="1" stroke-dasharray="0" fill-opacity="0" transform="rotate(120 208.65384615384616 140.45735033367103)"/><path fill="#808080" stroke="#808080" d="M 204.261,138.858 L 217.722,138.858" style="stroke-width: 2px;stroke-opacity: 1;fill-opacity: 0" stroke-width="2" stroke-opacity="1" stroke-dasharray="0" fill-opacity="0" transform="rotate(100 204.26064854551637 138.8583571709895)"/><path fill="#808080" stroke="#808080" d="M 199.586,138.858 L 213.047,138.858" style="stroke-width: 2px;stroke-opacity: 1;fill-opacity: 0" stroke-width="2" stroke-opacity="1" stroke-dasharray="0" fill-opacity="0" transform="rotate(80 199.5855053006375 138.8583571709895)"/><path fill="#808080" stroke="#808080" d="M 195.192,140.457 L 208.654,140.457" style="stroke-width: 2px;stroke-opacity: 1;fill-opacity: 0" stroke-width="2" stroke-opacity="1" stroke-dasharray="0" fill-opacity="0" transform="rotate(60 195.1923076923077 140.45735033367103)"/><path fill="#808080" stroke="#808080" d="M 191.611,143.462 L 205.072,143.462" style="stroke-width: 2px;stroke-opacity: 1;fill-opacity: 0" stroke-width="2" stroke-opacity="1" stroke-dasharray="0" fill-opacity="0" transform="rotate(40 191.610940188783 143.4624744849889)"/><path fill="#808080" stroke="#808080" d="M 189.273,147.511 L 202.735,147.511" style="stroke-width: 2px;stroke-opacity: 1;fill-opacity: 0" stroke-width="2" stroke-opacity="1" stroke-dasharray="0" fill-opacity="0" transform="rotate(20 189.27336856634355 147.51126730138523)"/><path fill="#808080" stroke="#808080" d="M 188.462,152.115 L 201.923,152.115" style="stroke-width: 2px;stroke-opacity: 1;fill-opacity: 0" stroke-width="2" stroke-opacity="1" stroke-dasharray="0" fill-opacity="0" transform=""/><path fill="#808080" stroke="#808080" d="M 210.897,152.115 L 213.908,152.115" style="stroke-width: 2px;stroke-opacity: 1;fill-opacity: 0" stroke-width="2" stroke-opacity="1" stroke-dasharray="0" fill-opacity="0" transform="rotate(63.43494882292225 210.89743589743588 152.1153846153846)"/><path fill="#808080" stroke="#808080" d="M 208.654,152.115 L 211.664,152.115" style="stroke-width: 2px;stroke-opacity: 1;fill-opacity: 0" stroke-width="2" stroke-opacity="1" stroke-dasharray="0" fill-opacity="0" transform="rotate(63.43494882292225 208.65384615384616 152.1153846153846)"/><path fill="#808080" stroke="#808080" d="M 206.41,152.115 L 209.42,152.115" style="stroke-width: 2px;stroke-opacity: 1;fill-opacity: 0" stroke-width="2" stroke-opacity="1" stroke-dasharray="0" fill-opacity="0" transform="rotate(63.43494882292225 206.4102564102564 152.1153846153846)"/><path fill="#808080" stroke="#808080" d="M 197.436,152.115 L 200.446,152.115" style="stroke-width: 2px;stroke-opacity: 1;fill-opacity: 0" stroke-width="2" stroke-opacity="1" stroke-dasharray="0" fill-opacity="0" transform="rotate(116.56505117707775 197.43589743589743 152.1153846153846)"/><path fill="#808080" stroke="#808080" d="M 195.192,152.115 L 198.202,152.115" style="stroke-width: 2px;stroke-opacity: 1;fill-opacity: 0" stroke-width="2" stroke-opacity="1" stroke-dasharray="0" fill-opacity="0" transform="rotate(116.5650511770782 195.1923076923077 152.1153846153846)"/><path fill="#808080" stroke="#808080" d="M 192.949,152.115 L 195.959,152.115" style="stroke-width: 2px;stroke-opacity: 1;fill-opacity: 0" stroke-width="2" stroke-opacity="1" stroke-dasharray="0" fill-opacity="0" transform="rotate(116.56505117707775 192.94871794871796 152.1153846153846)"/><path fill="#808080" stroke="#808080" d="M 190.705,152.115 L 193.715,152.115" style="stroke-width: 2px;stroke-opacity: 1;fill-opacity: 0" stroke-width="2" stroke-opacity="1" stroke-dasharray="0" fill-opacity="0" transform="rotate(116.56505117707775 190.7051282051282 152.1153846153846)"/><path fill="#808080" stroke="#808080" d="M 214.038,148.077 L 218.892,148.077" style="stroke-width: 2px;stroke-opacity: 1;fill-opacity: 0" stroke-width="2" stroke-opacity="1" stroke-dasharray="0" fill-opacity="0" transform="rotate(326.30993247402023 214.03846153846155 148.07692307692307)"/><path fill="#808080" stroke="#808080" d="M 214.038,146.731 L 219.295,146.731" style="stroke-width: 2px;stroke-opacity: 1;fill-opacity: 0" stroke-width="2" stroke-opacity="1" stroke-dasharray="0" fill-opacity="0" transform="rotate(320.1944289077344 214.03846153846155 146.73076923076923)"/><path fill="#808080" stroke="#808080" d="M 269.231,169.615 A 13.4615,13.4615 0 0,0 242.308,169.615 L 255.769,169.615 Z" style="stroke-width: 2px;stroke-opacity: 0;fill-opacity: 0.5" stroke-width="2" stroke-opacity="0" stroke-dasharray="0" fill-opacity="0.5"/><path fill="#808080" stroke="#808080" d="M 269.231,169.615 A 13.4615,13.4615 0 0,0 242.308,169.615" style="stroke-width: 2px;stroke-opacity: 1;fill-opacity: 0" stroke-width="2" stroke-opacity="1" stroke-dasharray="0" fill-opacity="0"/><ellipse cx="267.4473072613742" cy="168.07793667817728" rx="1.3461538461538463" ry="1.3461538461538463" fill="#808080" stroke="#808080" style="stroke-width: 2px;stroke-opacity: 1;fill-opacity: 1" stroke-width="2" stroke-opacity="1" stroke-dasharray="0" fill-opacity="1"/><path fill="#808080" stroke="#808080" d="M 269.231,169.615 L 282.692,169.615" style="stroke-width: 2px;stroke-opacity: 1;fill-opacity: 0" stroke-width="2" stroke-opacity="1" stroke-dasharray="0" fill-opacity="0" transform="rotate(180 269.2307692307692 169.6153846153846)"/><path fill="#808080" stroke="#808080" d="M 268.419,165.011 L 281.88,165.011" style="stroke-width: 2px;stroke-opacity: 1;fill-opacity: 0" stroke-width="2" stroke-opacity="1" stroke-dasharray="0" fill-opacity="0" transform="rotate(160 268.4189391259642 165.01126730138523)"/><path fill="#808080" stroke="#808080" d="M 266.081,160.962 L 279.543,160.962" style="stroke-width: 2px;stroke-opacity: 1;fill-opacity: 0" stroke-width="2" stroke-opacity="1" stroke-dasharray="0" fill-opacity="0" transform="rotate(140 266.0813675035247 160.96247448498892)"/><path fill="#808080" stroke="#808080" d="M 262.5,157.957 L 275.962,157.957" style="stroke-width: 2px;stroke-opacity: 1;fill-opacity: 0" stroke-width="2" stroke-opacity="1" stroke-dasharray="0" fill-opacity="0" transform="rotate(119.99999999999994 262.5 157.957350333671)"/><path fill="#808080" stroke="#808080" d="M 258.107,156.358 L 271.568,156.358" style="stroke-width: 2px;stroke-opacity: 1;fill-opacity: 0" stroke-width="2" stroke-opacity="1" stroke-dasharray="0" fill-opacity="0" transform="rotate(100 258.1068023916702 156.3583571709895)"/><path fill="#808080" stroke="#808080" d="M 253.432,156.358 L 266.893,156.358" style="stroke-width: 2px;stroke-opacity: 1;fill-opacity: 0" stroke-width="2" stroke-opacity="1" stroke-dasharray="0" fill-opacity="0" transform="rotate(80 253.43165914679133 156.3583571709895)"/><path fill="#808080" stroke="#808080" d="M 249.038,157.957 L 262.5,157.957" style="stroke-width: 2px;stroke-opacity: 1;fill-opacity: 0" stroke-width="2" stroke-opacity="1" stroke-dasharray="0" fill-opacity="0" transform="rotate(60 249.03846153846155 157.957350333671)"/><path fill="#808080" stroke="#808080" d="M 245.457,160.962 L 258.919,160.962" style="stroke-width: 2px;stroke-opacity: 1;fill-opacity: 0" stroke-width="2" stroke-opacity="1" stroke-dasharray="0" fill-opacity="0" transform="rotate(39.999999999999886 245.45709403493683 160.96247448498892)"/><path fill="#808080" stroke="#808080" d="M 243.12,165.011 L 256.581,165.011" style="stroke-width: 2px;stroke-opacity: 1;fill-opacity: 0" stroke-width="2" stroke-opacity="1" stroke-dasharray="0" fill-opacity="0" transform="rotate(20 243.1195224124974 165.01126730138523)"/><path fill="#808080" stroke="#808080" d="M 242.308,169.615 L 255.769,169.615" style="stroke-width: 2px;stroke-opacity: 1;fill-opacity: 0" stroke-width="2" stroke-opacity="1" stroke-dasharray="0" fill-opacity="0" transform=""/><path fill="#808080" stroke="#808080" d="M 264.744,169.615 L 267.754,169.615" style="stroke-width: 2px;stroke-opacity: 1;fill-opacity: 0" stroke-width="2" stroke-opacity="1" stroke-dasharray="0" fill-opacity="0" transform="rotate(63.434948822922706 264.7435897435898 169.6153846153846)"/><path fill="#808080" stroke="#808080" d="M 262.5,169.615 L 265.51,169.615" style="stroke-width: 2px;stroke-opacity: 1;fill-opacity: 0" stroke-width="2" stroke-opacity="1" stroke-dasharray="0" fill-opacity="0" transform="rotate(63.43494882292174 262.5 169.6153846153846)"/><path fill="#808080" stroke="#808080" d="M 260.256,169.615 L 263.267,169.615" style="stroke-width: 2px;stroke-opacity: 1;fill-opacity: 0" stroke-width="2" stroke-opacity="1" stroke-dasharray="0" fill-opacity="0" transform="rotate(63.43494882292174 260.2564102564102 169.6153846153846)"/><path fill="#808080" stroke="#808080" d="M 251.282,169.615 L 254.292,169.615" style="stroke-width: 2px;stroke-opacity: 1;fill-opacity: 0" stroke-width="2" stroke-opacity="1" stroke-dasharray="0" fill-opacity="0" transform="rotate(116.5650511770782 251.2820512820513 169.6153846153846)"/><path fill="#808080" stroke="#808080" d="M 249.038,169.615 L 252.049,169.615" style="stroke-width: 2px;stroke-opacity: 1;fill-opacity: 0" stroke-width="2" stroke-opacity="1" stroke-dasharray="0" fill-opacity="0" transform="rotate(116.5650511770782 249.03846153846155 169.6153846153846)"/><path fill="#808080" stroke="#808080" d="M 246.795,169.615 L 249.805,169.615" style="stroke-width: 2px;stroke-opacity: 1;fill-opacity: 0" stroke-width="2" stroke-opacity="1" stroke-dasharray="0" fill-opacity="0" transform="rotate(116.56505117707775 246.7948717948718 169.6153846153846)"/><path fill="#808080" stroke="#808080" d="M 244.551,169.615 L 247.561,169.615" style="stroke-width: 2px;stroke-opacity: 1;fill-opacity: 0" stroke-width="2" stroke-opacity="1" stroke-dasharray="0" fill-opacity="0" transform="rotate(116.5650511770782 244.55128205128207 169.6153846153846)"/><path fill="#808080" stroke="#808080" d="M 267.885,165.577 L 272.738,165.577" style="stroke-width: 2px;stroke-opacity: 1;fill-opacity: 0" stroke-width="2" stroke-opacity="1" stroke-dasharray="0" fill-opacity="0" transform="rotate(326.3099324740201 267.88461538461536 165.5769230769231)"/><path fill="#808080" stroke="#808080" d="M 267.885,164.231 L 273.142,164.231" style="stroke-width: 2px;stroke-opacity: 1;fill-opacity: 0" stroke-width="2" stroke-opacity="1" stroke-dasharray="0" fill-opacity="0" transform="rotate(320.19442890773485 267.88461538461536 164.23076923076923)"/></svg>