<svg xmlns="http://www.w3.org/2000/svg" version="1.1" width="250" height="132.35294117647058" viewBox="0 0 250 132.35294117647058"><defs/><path fill="#f89c44" stroke="none" d="M 56.9188,115.108 C 58.0148,115.496 59.5758,121.619 60.1318,122.993 C 60.5388,123.996 60.7178,124.995 59.3438,125.171 C 58.5368,125.274 56.5018,124.898 56.6158,126.324 C 56.7358,127.847 60.6358,126.845 61.5408,127.279 C 62.1928,127.592 62.3318,128.402 63.1028,128.508 C 64.3438,128.679 64.1948,127.284 64.1428,126.516 C 65.1538,126.144 70.0438,127.738 71.1668,128.019 C 73.4098,128.323 72.3448,126.523 71.7868,126.246 C 70.8978,125.807 69.9648,125.283 68.9968,124.942 C 67.6858,124.48 66.3448,124.165 65.0608,123.594 C 61.4668,123.472 60.1408,114.436 60.3758,113.894" transform=""/><path fill="#f89c44" stroke="none" d="M 34.3068,115.108 C 34.2968,116.939 33.4148,122.827 32.9728,123.78 C 31.8908,126.11 28.0928,125.001 26.3658,126.507 C 25.0188,127.679 26.7838,128.008 27.7598,127.913 C 28.8198,127.808 29.8398,127.343 30.8508,127.004 C 31.2968,126.854 31.7208,126.59 31.9418,127.051 C 32.1878,127.568 31.6398,128.123 32.3058,128.498 C 33.4968,129.166 34.1008,127.814 34.1848,126.931 C 34.2178,126.58 34.1228,126.503 34.3808,126.327 C 34.5828,126.19 35.0818,126.24 35.3208,126.263 C 35.9568,126.325 36.6448,126.532 37.2158,126.825 C 38.3088,127.385 38.8998,128.127 40.2478,128.145 C 42.1818,128.168 40.3228,126.141 39.4458,125.733 C 34.6098,124.022 36.4628,117.715 37.3378,114.746" transform=""/><path fill="#f4d038" stroke="none" d="M 70.1053,61.4877 C 71.6283,62.6707 74.9673,61.6587 76.6573,61.1947 C 79.6633,60.3677 81.3913,58.5287 83.4533,56.2817 C 85.3683,54.1927 86.4723,51.6437 87.2703,48.9427 C 87.7003,47.4877 87.9133,45.9907 87.9293,44.4647 C 87.9383,43.6657 87.7783,42.5597 87.9933,41.8477 C 88.4103,42.8837 89.0853,43.3077 89.2013,44.4807 C 89.2943,45.4157 89.1583,46.4147 88.9433,47.2717 C 89.3193,46.6077 89.4353,45.8207 89.7463,45.1517 C 90.8923,46.7537 89.7023,48.2637 89.2833,49.8197 C 90.2593,48.9327 91.8173,47.6277 91.7473,46.1477 C 92.1303,47.4767 92.4863,48.7167 92.2283,50.1207 C 91.9843,51.4477 90.9953,52.5077 90.6843,53.7307 C 91.6213,53.2297 92.3583,52.4777 92.8203,51.5107 C 93.0073,53.3417 91.8153,54.7227 90.9573,56.2067 C 91.6023,55.9607 92.2783,55.6997 92.9163,55.4257 C 92.9833,56.3477 92.1583,57.7127 91.6673,58.4707 C 92.8933,58.1217 94.1363,57.7077 95.0293,56.7017 C 95.1723,58.9027 92.5373,60.3817 91.6643,62.1137 C 92.1963,61.8227 92.8273,61.6827 93.3813,61.4047 C 94.2273,60.9797 94.8413,60.2157 95.5533,59.6737 C 95.7523,61.1247 93.8613,62.9517 92.9993,63.9417 C 91.8113,65.3067 90.0513,66.1607 88.4803,66.9247 C 89.5493,67.0067 90.8453,66.9927 91.8523,66.6147 C 90.6853,68.0717 89.0913,68.9787 87.2223,69.1267 C 87.7653,69.2017 88.4063,70.0317 88.3743,70.5637 C 87.3403,70.9847 85.5843,71.1007 84.5053,70.7727 C 86.2643,72.5557 82.4833,71.9577 81.5503,71.3397 C 81.9643,71.7797 82.5603,72.4277 81.9283,72.8777 C 81.1613,73.4257 80.0953,72.3097 79.4863,71.9717 C 79.5173,72.5887 79.7163,72.8637 79.1813,73.2427 C 78.4913,73.7307 77.6853,73.2457 77.2833,72.6977 C 77.0043,73.4527 75.8483,72.8607 75.3803,72.4977 C 73.9543,71.3907 74.1843,69.8357 73.2893,68.4897" transform=""/><path fill="#fee05f" stroke="none" d="M 76.9301,89.9719 C 76.8651,90.1389 76.8051,90.3019 76.7331,90.4729 C 76.8181,90.3189 76.8791,90.1489 76.9301,89.9719 Z" transform=""/><path fill="#fee05f" stroke="none" d="M 31.0803,60.5569 C 30.9573,60.8759 30.8553,61.2089 30.8983,61.5549 C 30.5063,60.8599 30.6573,60.0459 30.6143,59.2819 C 30.1393,59.6199 30.0483,60.4289 30.0623,60.9679 C 29.7023,60.6189 29.5163,59.5929 29.5553,59.0869 C 29.2853,59.2209 29.1733,59.5429 29.0193,59.7699 C 28.8673,59.2269 28.8803,58.7099 28.7963,58.1729 C 28.6963,57.5209 28.5193,56.9009 28.4783,56.2359 C 28.4153,55.2219 28.5323,54.2059 28.8253,53.2329 C 29.0463,52.4989 29.3723,51.8129 29.7153,51.1289 C 29.8493,50.8629 30.2783,50.2619 30.1843,49.9379 C 30.1803,49.9229 25.8263,34.8389 40.0963,27.1139 C 41.1133,26.5639 41.5473,24.4729 41.1653,23.2949 C 40.7513,22.0179 39.3733,21.5019 38.2793,21.3189 C 39.6523,20.9379 40.6973,20.6479 41.7143,21.9339 C 42.5703,23.0199 42.4763,24.2109 42.4543,25.5399 C 42.9323,23.9379 43.8093,22.2899 45.1003,21.2269 C 46.8573,19.7809 48.9333,19.2059 51.0393,18.6819 C 49.8243,19.0939 48.5983,19.8029 47.6403,20.4789 C 46.1723,21.5159 45.6813,22.7559 44.9053,24.2619 C 45.8833,22.9379 47.8283,22.1899 49.3433,21.6369 C 50.8303,21.0939 53.4673,20.4589 54.9803,21.1139 C 52.2063,21.0909 48.5183,21.4969 47.4923,24.4669 C 48.6463,24.0659 49.6813,23.4589 50.9133,23.1799 C 52.5673,22.8059 54.1283,22.7329 55.8213,22.7469 C 58.7293,22.7719 61.9463,23.9209 64.1593,25.7549 C 62.3873,25.5139 60.6773,24.6729 58.8273,24.5639 C 56.9933,24.4549 55.0733,24.3099 53.4613,25.3839 C 54.4143,24.7499 57.3483,25.4949 58.3263,25.6969 C 61.8733,26.4299 65.1043,28.2869 67.3943,31.1129 C 68.4253,32.3849 69.2513,33.8169 69.8943,35.3199 C 70.1983,36.0299 70.3473,37.1579 70.9543,37.6519 C 71.5673,38.1499 72.5743,38.0019 73.2843,38.2749 C 74.6723,38.8079 75.1073,39.5679 76.0023,40.6299 C 75.6563,40.1569 75.1003,39.7939 74.5453,39.6049 C 75.3573,40.6719 76.2153,41.4369 76.7063,42.6739 C 76.0893,42.2009 75.4213,41.8859 74.7653,41.5069 C 75.2193,42.0559 76.2913,43.1909 76.1813,43.9069 C 75.8233,43.5939 75.4153,43.2969 75.0943,42.9629 C 75.4383,43.7799 76.2523,44.5519 76.2723,45.4739 C 75.9533,45.1999 75.5503,44.8799 75.1863,44.6029 C 75.3663,46.4349 76.2893,48.1339 75.7223,50.0189 C 75.0803,49.5389 75.2733,48.5259 74.7533,47.9619 C 74.6633,48.6369 74.9563,49.3269 74.8333,50.0209 C 74.6823,50.8669 74.1233,51.8149 73.6473,52.5009 C 73.1693,53.1879 72.6113,53.9569 71.9813,54.6509 C 65.9493,60.0569 78.5583,63.2099 79.0833,79.2349 C 79.5513,80.4219 79.5553,81.6659 79.6503,82.9209 C 79.7283,83.9679 80.0613,85.3299 79.9043,86.3549 C 79.4803,85.5339 79.1833,84.8259 78.5523,84.1219 C 78.4463,84.0039 78.3083,83.8779 78.1833,83.7439 C 78.5563,84.7939 78.8673,85.8129 78.8323,86.9949 C 78.8263,85.8069 77.6703,84.9389 77.3923,83.8559 C 77.9933,86.1299 77.7533,87.8549 76.9273,89.9709 C 77.1713,89.1119 77.0183,88.0439 76.8303,87.2449 C 76.9083,89.9309 78.0743,100.677 63.5733,107.613 C 62.1203,109.122 62.9823,111.884 61.6443,113.705 C 60.3543,115.459 58.0093,116.307 56.0953,114.794 C 55.0253,113.948 53.3363,111.756 53.2873,110.342 C 51.4143,113.133 44.8343,112.405 42.6583,110.688 C 42.1623,112.034 41.2493,113.28 40.3943,114.43 C 39.2573,115.956 37.3923,116.791 35.5503,116.024 C 33.5943,115.209 33.4503,113.669 32.8443,111.888 C 32.2173,110.043 30.2033,108.142 28.4583,107.407 C 26.3963,106.539 24.6213,105.011 23.1783,103.343 C 23.1883,104.018 24.0333,104.984 24.5413,105.302 C 23.5543,104.831 22.2023,104.089 21.2683,103.336 C 20.0593,102.36 18.2043,100.54 17.8223,98.9809 C 17.3013,100.073 17.8993,101.541 18.7013,102.373 C 16.5493,101.037 15.8743,98.2299 15.7073,95.9499 C 15.3493,96.5909 15.1533,97.4489 15.1643,98.2229 C 14.8373,97.5959 14.4223,96.8879 14.3553,96.1159 C 14.2783,95.2309 14.7053,94.3589 14.6223,93.4959 C 13.2153,94.2249 13.0903,95.8729 12.8883,97.2909 C 12.4863,95.6029 12.6143,93.8999 12.5313,92.1529 C 11.5103,93.2459 11.1463,94.5529 10.6533,95.9299 C 10.4533,92.9009 10.9053,90.9039 13.3353,89.0479 C 12.7653,89.4329 12.2043,89.9889 11.6663,90.4689 C 13.1413,88.0709 14.7033,86.7179 17.6233,86.4809 C 25.4583,74.7339 34.6713,71.9459 35.5313,67.4649 C 36.1273,66.3489 36.6953,64.5359 36.6043,63.0679 C 36.4343,62.9629 36.2553,62.8689 36.0973,62.7529 C 35.7143,62.4689 35.1983,61.7109 34.6623,61.8709 C 33.7563,62.1409 33.8263,63.7819 33.8103,64.4619 C 33.2073,63.9719 33.1193,62.8559 33.0783,62.1329 C 32.7153,62.4779 32.5643,63.0629 32.5323,63.5729 C 32.2423,63.2419 32.0123,62.7829 31.9893,62.3139 C 31.9033,62.4479 31.7473,62.5429 31.6643,62.7389 C 31.4793,62.0109 31.3813,61.2409 31.1903,60.5249" transform=""/><path fill="#fee05f" stroke="none" d="M 51.0422,18.6844 C 51.4462,18.5844 51.8512,18.4844 52.2542,18.3824 C 51.8582,18.4394 51.4502,18.5454 51.0422,18.6844 Z" transform=""/><path fill="#f4d038" stroke="none" d="M 33.6156,69.024 C 32.8286,69.535 31.9166,69.866 31.2866,70.557 C 32.3506,71.466 31.7196,71.459 30.6616,72.133 C 29.8906,72.624 29.5886,73.027 29.1156,73.764 C 27.8576,75.714 25.5946,77.234 23.5886,78.383 C 20.9536,79.893 18.1826,80.774 15.1856,81.129 C 13.7166,81.303 12.3816,81.335 10.9126,81.111 C 9.65465,80.92 8.55365,80.307 7.37365,80.053 C 7.85365,81.741 9.73765,82.603 11.3576,82.691 C 11.1256,83.128 10.5226,83.247 10.1706,83.581 C 10.7746,84.792 13.3896,84.784 14.5196,84.763 C 13.8756,85.116 12.9896,85.319 12.4816,85.838 C 13.5206,86.403 14.7156,86.313 15.8686,86.313 C 14.9086,86.314 13.7166,86.558 12.8496,86.854 C 13.8596,87.952 17.2996,88.36 18.6156,87.763 C 17.8386,87.734 16.7656,88.388 16.1936,88.886 C 18.0726,90.031 21.2846,89.636 23.1826,88.623 C 22.3996,89.255 21.5666,89.997 20.8286,90.659 C 22.6216,90.773 24.2486,90.403 25.9156,89.787 C 27.0756,89.361 28.5026,88.974 29.2016,87.885 C 28.8166,88.527 27.9786,89.018 27.7436,89.683 C 28.6476,90.127 30.6886,88.775 31.4866,88.315 C 32.5496,87.702 33.5476,87.113 34.3926,86.225 C 37.3536,83.119 39.5926,78.146 39.8046,73.861 C 39.9036,71.858 39.4546,69.153 37.7616,67.816 C 36.1276,66.523 33.0156,67.178 32.0846,69.076 C 32.4816,69.176 33.2366,69.269 33.6156,69.024 Z" transform=""/><path fill="#f89c44" stroke="none" d="M 54.9135,48.5205 C 52.8925,50.7145 50.0485,50.5285 47.3615,50.1555 L 44.1785,49.9745 C 44.8805,49.8825 47.1175,52.1285 47.9075,52.7015 C 49.1605,53.6105 50.4305,54.4875 51.9305,54.7735 C 53.2025,55.0155 55.0575,55.4735 56.2025,54.6335 C 57.2315,53.8805 57.9005,52.1215 58.3655,50.9745 C 59.1595,49.0125 59.0785,46.7115 60.0845,44.8105 C 57.8775,44.8375 56.2315,47.0885 54.9135,48.5205 Z" transform=""/><ellipse cx="41.83739045816697" cy="43.77507899884951" rx="1.5711631490236884" ry="2.1839458189756256" fill="#304454" stroke="none" transform="rotate(-8.8934 41.837392582484675 43.775079361673)" r="NaN"/><ellipse cx="60.19328190136175" cy="39.92268006856534" rx="1.5711631490236884" ry="2.1839458189756256" fill="#304454" stroke="none" transform="rotate(-8.8934 60.19328293997862 39.92268025413155)" r="NaN"/><path fill="#d14e3f" stroke="none" d="M 46.5436,50.5186 C 49.0466,51.1476 51.6696,54.7606 54.4546,53.6086 C 56.7216,52.6716 57.8756,48.2956 58.5266,46.1536 C 58.5946,45.9266 58.7066,45.7286 58.8126,45.5266 C 56.6386,46.2786 55.4376,48.2226 53.7256,49.5426 C 52.9156,50.1676 51.7186,50.3996 50.7226,50.4986 C 49.6006,50.6086 49.0326,50.1936 47.9996,49.9726" transform=""/><path fill="#f89c44" stroke="none" d="M 43.7919,49.9871 L 43.7919,49.8961 C 45.3339,50.3691 47.0139,50.4691 48.6109,50.8091 C 48.9599,50.8831 49.3559,50.9731 49.7779,51.0571 C 50.9009,51.2841 52.1919,51.4751 53.1579,51.2591 C 54.4499,50.9701 55.3269,49.6721 56.0429,48.6021 C 56.7289,47.5781 57.4369,46.8581 58.3459,46.1851 C 58.9389,45.7471 59.6299,45.4001 60.0829,44.8001 C 59.6789,44.1791 58.7169,44.3221 58.0689,44.4181 C 57.1599,44.5551 56.6099,44.6521 55.7049,44.3701 C 54.6879,44.0541 53.8009,43.6201 52.8109,43.4551 C 50.4109,43.0581 48.8629,44.6261 47.5919,46.4341 C 47.1719,47.0311 46.6409,47.4631 46.0959,47.8671 C 45.5459,48.2751 44.9809,48.6541 44.5009,49.1461 C 44.2379,49.4161 44.0659,49.7131 43.7919,49.9871 Z" transform=""/><ellipse cx="102.94117647058823" cy="44.11764705882353" rx="3.676470588235294" ry="7.352941176470588" fill="#ffffff" stroke="#fc6255" style="stroke-width: 2px;stroke-opacity: 1;fill-opacity: 0" stroke-width="2" stroke-opacity="1" stroke-dasharray="0" fill-opacity="0"/><path fill="#fc6255" stroke="#fc6255" d="M 85.2941,60.2941 L 104.041,60.2941" style="stroke-width: 2px;stroke-opacity: 1;fill-opacity: 0;opacity: 1" stroke-width="2" stroke-opacity="1" stroke-dasharray="0" fill-opacity="0" opacity="1" transform="rotate(318.1798301198643 85.29411764705881 60.29411764705881)"/><ellipse cx="125" cy="44.11764705882353" rx="7.352941176470588" ry="7.352941176470588" fill="#77b05d" stroke="#77b05d" style="stroke-width: 2px;stroke-opacity: 1;fill-opacity: 0;opacity: 1" stroke-width="2" stroke-opacity="1" stroke-dasharray="0" fill-opacity="0" opacity="1"/><ellipse cx="147.05882352941177" cy="44.11764705882353" rx="7.352941176470588" ry="7.352941176470588" fill="#77b05d" stroke="#77b05d" style="stroke-width: 2px;stroke-opacity: 1;fill-opacity: 0;opacity: 1" stroke-width="2" stroke-opacity="1" stroke-dasharray="0" fill-opacity="0" opacity="1"/><ellipse cx="169.1176470588235" cy="44.11764705882353" rx="7.352941176470588" ry="7.352941176470588" fill="#77b05d" stroke="#77b05d" style="stroke-width: 2px;stroke-opacity: 1;fill-opacity: 0;opacity: 1" stroke-width="2" stroke-opacity="1" stroke-dasharray="0" fill-opacity="0" opacity="1"/><ellipse cx="191.17647058823528" cy="44.11764705882353" rx="7.352941176470588" ry="7.352941176470588" fill="#77b05d" stroke="#77b05d" style="stroke-width: 2px;stroke-opacity: 1;fill-opacity: 0;opacity: 1" stroke-width="2" stroke-opacity="1" stroke-dasharray="0" fill-opacity="0" opacity="1"/><ellipse cx="213.23529411764704" cy="44.11764705882353" rx="7.352941176470588" ry="7.352941176470588" fill="#77b05d" stroke="#77b05d" style="stroke-width: 2px;stroke-opacity: 1;fill-opacity: 0;opacity: 1" stroke-width="2" stroke-opacity="1" stroke-dasharray="0" fill-opacity="0" opacity="1"/><ellipse cx="235.2941176470588" cy="44.11764705882353" rx="7.352941176470588" ry="7.352941176470588" fill="#77b05d" stroke="#77b05d" style="stroke-width: 2px;stroke-opacity: 1;fill-opacity: 0;opacity: 1" stroke-width="2" stroke-opacity="1" stroke-dasharray="0" fill-opacity="0" opacity="1"/></svg>