<svg xmlns="http://www.w3.org/2000/svg" version="1.1" width="400" height="42.758620689655174" viewBox="0 0 400 42.758620689655174"><defs/><path fill="#deb958" stroke="none" d="M 31.5878,36.3531 C 24.0758,38.0461 16.8438,38.4911 10.3348,34.3781 C 8.22778,33.0441 6.72978,31.0851 6.91178,28.7601 C 6.99078,27.7411 7.88278,26.3061 10.8718,26.8651 C 17.5418,28.1141 22.5148,27.6161 27.9088,26.0881 C 33.6128,24.4721 37.9968,20.1911 39.6188,16.2831 C 40.9858,12.9921 43.0958,9.51407 46.4568,10.7651 C 48.2768,11.4431 48.7358,18.6691 47.7968,22.1311 C 45.9158,29.0641 39.0998,34.6591 31.5878,36.3531 L 31.5878,36.3531 Z" transform=""/><path fill="#ccaa4f" stroke="none" d="M 47.0976,11.5417 C 47.7466,14.0937 47.8276,18.3567 47.1936,20.6957 C 45.3396,27.5297 38.8946,33.3577 31.4906,35.0267 C 24.0846,36.6977 16.0676,36.9907 9.65161,32.9347 C 8.75061,32.3657 7.52161,30.9077 6.96061,29.1377 C 7.04661,31.6367 8.66661,33.1887 10.1236,34.1097 C 16.5396,38.1647 24.4266,37.8977 31.8316,36.2287 C 39.2356,34.5587 45.9546,29.0447 47.8086,22.2117 C 48.6186,19.2257 48.3726,13.3977 47.0976,11.5417 Z" transform=""/><path fill="#eec65e" stroke="none" d="M 21.6353,31.1373 C 35.2743,30.6713 45.2063,22.9713 44.9453,10.5093 C 42.4423,10.6173 40.7673,13.5163 39.6183,16.2833 C 37.9953,20.1913 33.6123,24.4723 27.9083,26.0883 C 22.5133,27.6153 17.5403,28.1143 10.8713,26.8653 C 7.88225,26.3053 6.99025,27.7413 6.91125,28.7603 C 6.90725,28.8143 8.61825,28.0833 8.61425,28.1373 C 13.1933,30.3643 16.5253,31.3133 21.6353,31.1373 Z" transform=""/><path fill="#ccaa4f" stroke="none" d="M 43.3559,11.2417 L 44.7959,11.7577 S 45.3469,10.7907 46.4569,10.7657 C 46.2589,8.68565 45.3879,5.78465 44.6919,4.44865 C 43.9389,3.00365 42.6249,4.41565 42.6249,4.41565 L 41.6399,5.79465 C 41.6389,5.79465 43.3539,7.01065 43.3559,11.2417 Z" transform=""/><path fill="#eec65e" stroke="none" d="M 43.3559,11.2417 S 44.1749,12.0067 44.7959,11.7577 C 45.4439,6.30365 42.6249,4.41565 42.6249,4.41565 L 41.6389,5.79465 S 43.3539,7.01065 43.3559,11.2417 Z" transform=""/><path fill="#eec65e" stroke="none" d="M 44.7961,11.7577 C 44.8271,11.4997 44.9471,11.7677 44.9641,11.5257 C 45.3331,6.2617 42.6241,4.4157 42.6241,4.4157 L 42.5241,4.5557 C 42.5241,4.5567 44.9771,5.9527 44.7961,11.7577 Z" transform=""/><path fill="#ccaa4f" stroke="none" d="M 8.37107,26.9354 S 9.54107,28.5804 8.72907,29.1624 C 7.91607,29.7454 6.90307,28.8924 6.90307,28.8924 S 7.03707,27.4354 8.37107,26.9354 Z" transform=""/><path fill="#deb958" stroke="none" d="M 86.7602,36.3531 C 79.2482,38.0461 72.0162,38.4911 65.5072,34.3781 C 63.4002,33.0441 61.9022,31.0851 62.0842,28.7601 C 62.1632,27.7411 63.0552,26.3061 66.0442,26.8651 C 72.7142,28.1141 77.6872,27.6161 83.0812,26.0881 C 88.7852,24.4721 93.1692,20.1911 94.7912,16.2831 C 96.1582,12.9921 98.2682,9.51407 101.629,10.7651 C 103.449,11.4431 103.908,18.6691 102.969,22.1311 C 101.088,29.0641 94.2722,34.6591 86.7602,36.3531 L 86.7602,36.3531 Z" transform=""/><path fill="#ccaa4f" stroke="none" d="M 102.27,11.5417 C 102.919,14.0937 103,18.3567 102.366,20.6957 C 100.512,27.5297 94.067,33.3577 86.663,35.0267 C 79.257,36.6977 71.24,36.9907 64.824,32.9347 C 63.923,32.3657 62.694,30.9077 62.133,29.1377 C 62.219,31.6367 63.839,33.1887 65.296,34.1097 C 71.712,38.1647 79.599,37.8977 87.004,36.2287 C 94.408,34.5587 101.127,29.0447 102.981,22.2117 C 103.791,19.2257 103.545,13.3977 102.27,11.5417 Z" transform=""/><path fill="#eec65e" stroke="none" d="M 76.8077,31.1373 C 90.4467,30.6713 100.379,22.9713 100.118,10.5093 C 97.6147,10.6173 95.9397,13.5163 94.7907,16.2833 C 93.1677,20.1913 88.7847,24.4723 83.0807,26.0883 C 77.6857,27.6153 72.7127,28.1143 66.0437,26.8653 C 63.0547,26.3053 62.1627,27.7413 62.0837,28.7603 C 62.0797,28.8143 63.7907,28.0833 63.7867,28.1373 C 68.3657,30.3643 71.6977,31.3133 76.8077,31.1373 Z" transform=""/><path fill="#ccaa4f" stroke="none" d="M 98.5283,11.2417 L 99.9683,11.7577 S 100.519,10.7907 101.629,10.7657 C 101.431,8.68565 100.56,5.78465 99.8643,4.44865 C 99.1113,3.00365 97.7973,4.41565 97.7973,4.41565 L 96.8123,5.79465 C 96.8113,5.79465 98.5263,7.01065 98.5283,11.2417 Z" transform=""/><path fill="#eec65e" stroke="none" d="M 98.5283,11.2417 S 99.3473,12.0067 99.9683,11.7577 C 100.616,6.30365 97.7973,4.41565 97.7973,4.41565 L 96.8113,5.79465 S 98.5263,7.01065 98.5283,11.2417 Z" transform=""/><path fill="#eec65e" stroke="none" d="M 99.9685,11.7577 C 99.9995,11.4997 100.12,11.7677 100.137,11.5257 C 100.506,6.2617 97.7965,4.4157 97.7965,4.4157 L 97.6965,4.5557 C 97.6965,4.5567 100.15,5.9527 99.9685,11.7577 Z" transform=""/><path fill="#ccaa4f" stroke="none" d="M 63.5435,26.9354 S 64.7135,28.5804 63.9015,29.1624 C 63.0885,29.7454 62.0755,28.8924 62.0755,28.8924 S 62.2095,27.4354 63.5435,26.9354 Z" transform=""/><path fill="#deb958" stroke="none" d="M 141.933,36.3531 C 134.421,38.0461 127.189,38.4911 120.68,34.3781 C 118.573,33.0441 117.075,31.0851 117.257,28.7601 C 117.336,27.7411 118.228,26.3061 121.217,26.8651 C 127.887,28.1141 132.86,27.6161 138.254,26.0881 C 143.958,24.4721 148.342,20.1911 149.964,16.2831 C 151.331,12.9921 153.441,9.51407 156.802,10.7651 C 158.622,11.4431 159.081,18.6691 158.142,22.1311 C 156.261,29.0641 149.445,34.6591 141.933,36.3531 L 141.933,36.3531 Z" transform=""/><path fill="#ccaa4f" stroke="none" d="M 157.442,11.5417 C 158.091,14.0937 158.172,18.3567 157.538,20.6957 C 155.684,27.5297 149.239,33.3577 141.835,35.0267 C 134.429,36.6977 126.412,36.9907 119.996,32.9347 C 119.095,32.3657 117.866,30.9077 117.305,29.1377 C 117.391,31.6367 119.011,33.1887 120.468,34.1097 C 126.884,38.1647 134.771,37.8977 142.176,36.2287 C 149.58,34.5587 156.299,29.0447 158.153,22.2117 C 158.963,19.2257 158.717,13.3977 157.442,11.5417 Z" transform=""/><path fill="#eec65e" stroke="none" d="M 131.98,31.1373 C 145.619,30.6713 155.551,22.9713 155.29,10.5093 C 152.787,10.6173 151.112,13.5163 149.963,16.2833 C 148.34,20.1913 143.957,24.4723 138.253,26.0883 C 132.858,27.6153 127.885,28.1143 121.216,26.8653 C 118.227,26.3053 117.335,27.7413 117.256,28.7603 C 117.252,28.8143 118.963,28.0833 118.959,28.1373 C 123.538,30.3643 126.87,31.3133 131.98,31.1373 Z" transform=""/><path fill="#ccaa4f" stroke="none" d="M 153.701,11.2417 L 155.141,11.7577 S 155.692,10.7907 156.802,10.7657 C 156.604,8.68565 155.733,5.78465 155.037,4.44865 C 154.284,3.00365 152.97,4.41565 152.97,4.41565 L 151.985,5.79465 C 151.984,5.79465 153.699,7.01065 153.701,11.2417 Z" transform=""/><path fill="#eec65e" stroke="none" d="M 153.701,11.2417 S 154.52,12.0067 155.141,11.7577 C 155.789,6.30365 152.97,4.41565 152.97,4.41565 L 151.984,5.79465 S 153.699,7.01065 153.701,11.2417 Z" transform=""/><path fill="#eec65e" stroke="none" d="M 155.141,11.7577 C 155.172,11.4997 155.292,11.7677 155.309,11.5257 C 155.678,6.2617 152.969,4.4157 152.969,4.4157 L 152.869,4.5557 C 152.869,4.5567 155.322,5.9527 155.141,11.7577 Z" transform=""/><path fill="#ccaa4f" stroke="none" d="M 118.716,26.9354 S 119.886,28.5804 119.074,29.1624 C 118.261,29.7454 117.248,28.8924 117.248,28.8924 S 117.382,27.4354 118.716,26.9354 Z" transform=""/><path fill="#deb958" stroke="none" d="M 197.105,36.3531 C 189.593,38.0461 182.361,38.4911 175.852,34.3781 C 173.745,33.0441 172.247,31.0851 172.429,28.7601 C 172.508,27.7411 173.4,26.3061 176.389,26.8651 C 183.059,28.1141 188.032,27.6161 193.426,26.0881 C 199.13,24.4721 203.514,20.1911 205.136,16.2831 C 206.503,12.9921 208.613,9.51407 211.974,10.7651 C 213.794,11.4431 214.253,18.6691 213.314,22.1311 C 211.433,29.0641 204.617,34.6591 197.105,36.3531 L 197.105,36.3531 Z" transform=""/><path fill="#ccaa4f" stroke="none" d="M 212.615,11.5417 C 213.264,14.0937 213.345,18.3567 212.711,20.6957 C 210.857,27.5297 204.412,33.3577 197.008,35.0267 C 189.602,36.6977 181.585,36.9907 175.169,32.9347 C 174.268,32.3657 173.039,30.9077 172.478,29.1377 C 172.564,31.6367 174.184,33.1887 175.641,34.1097 C 182.057,38.1647 189.944,37.8977 197.349,36.2287 C 204.753,34.5587 211.472,29.0447 213.326,22.2117 C 214.136,19.2257 213.89,13.3977 212.615,11.5417 Z" transform=""/><path fill="#eec65e" stroke="none" d="M 187.152,31.1373 C 200.791,30.6713 210.723,22.9713 210.462,10.5093 C 207.959,10.6173 206.284,13.5163 205.135,16.2833 C 203.512,20.1913 199.129,24.4723 193.425,26.0883 C 188.03,27.6153 183.057,28.1143 176.388,26.8653 C 173.399,26.3053 172.507,27.7413 172.428,28.7603 C 172.424,28.8143 174.135,28.0833 174.131,28.1373 C 178.71,30.3643 182.042,31.3133 187.152,31.1373 Z" transform=""/><path fill="#ccaa4f" stroke="none" d="M 208.873,11.2417 L 210.313,11.7577 S 210.864,10.7907 211.974,10.7657 C 211.776,8.68565 210.905,5.78465 210.209,4.44865 C 209.456,3.00365 208.142,4.41565 208.142,4.41565 L 207.157,5.79465 C 207.156,5.79465 208.871,7.01065 208.873,11.2417 Z" transform=""/><path fill="#eec65e" stroke="none" d="M 208.873,11.2417 S 209.692,12.0067 210.313,11.7577 C 210.961,6.30365 208.142,4.41565 208.142,4.41565 L 207.156,5.79465 S 208.871,7.01065 208.873,11.2417 Z" transform=""/><path fill="#eec65e" stroke="none" d="M 210.313,11.7577 C 210.344,11.4997 210.464,11.7677 210.481,11.5257 C 210.85,6.2617 208.141,4.4157 208.141,4.4157 L 208.041,4.5557 C 208.041,4.5567 210.494,5.9527 210.313,11.7577 Z" transform=""/><path fill="#ccaa4f" stroke="none" d="M 173.888,26.9354 S 175.058,28.5804 174.246,29.1624 C 173.433,29.7454 172.42,28.8924 172.42,28.8924 S 172.554,27.4354 173.888,26.9354 Z" transform=""/><path fill="#deb958" stroke="none" d="M 252.277,36.3531 C 244.765,38.0461 237.533,38.4911 231.024,34.3781 C 228.917,33.0441 227.419,31.0851 227.601,28.7601 C 227.68,27.7411 228.572,26.3061 231.561,26.8651 C 238.231,28.1141 243.204,27.6161 248.598,26.0881 C 254.302,24.4721 258.686,20.1911 260.308,16.2831 C 261.675,12.9921 263.785,9.51407 267.146,10.7651 C 268.966,11.4431 269.425,18.6691 268.486,22.1311 C 266.605,29.0641 259.789,34.6591 252.277,36.3531 L 252.277,36.3531 Z" transform=""/><path fill="#ccaa4f" stroke="none" d="M 267.787,11.5417 C 268.436,14.0937 268.517,18.3567 267.883,20.6957 C 266.029,27.5297 259.584,33.3577 252.18,35.0267 C 244.774,36.6977 236.757,36.9907 230.341,32.9347 C 229.44,32.3657 228.211,30.9077 227.65,29.1377 C 227.736,31.6367 229.356,33.1887 230.813,34.1097 C 237.229,38.1647 245.116,37.8977 252.521,36.2287 C 259.925,34.5587 266.644,29.0447 268.498,22.2117 C 269.308,19.2257 269.062,13.3977 267.787,11.5417 Z" transform=""/><path fill="#eec65e" stroke="none" d="M 242.325,31.1373 C 255.964,30.6713 265.896,22.9713 265.635,10.5093 C 263.132,10.6173 261.457,13.5163 260.308,16.2833 C 258.685,20.1913 254.302,24.4723 248.598,26.0883 C 243.203,27.6153 238.23,28.1143 231.561,26.8653 C 228.572,26.3053 227.68,27.7413 227.601,28.7603 C 227.597,28.8143 229.308,28.0833 229.304,28.1373 C 233.883,30.3643 237.215,31.3133 242.325,31.1373 Z" transform=""/><path fill="#ccaa4f" stroke="none" d="M 264.046,11.2417 L 265.486,11.7577 S 266.037,10.7907 267.147,10.7657 C 266.949,8.68565 266.078,5.78465 265.382,4.44865 C 264.629,3.00365 263.315,4.41565 263.315,4.41565 L 262.33,5.79465 C 262.329,5.79465 264.044,7.01065 264.046,11.2417 Z" transform=""/><path fill="#eec65e" stroke="none" d="M 264.046,11.2417 S 264.865,12.0067 265.486,11.7577 C 266.134,6.30365 263.315,4.41565 263.315,4.41565 L 262.329,5.79465 S 264.044,7.01065 264.046,11.2417 Z" transform=""/><path fill="#eec65e" stroke="none" d="M 265.486,11.7577 C 265.517,11.4997 265.637,11.7677 265.654,11.5257 C 266.023,6.2617 263.314,4.4157 263.314,4.4157 L 263.214,4.5557 C 263.214,4.5567 265.667,5.9527 265.486,11.7577 Z" transform=""/><path fill="#ccaa4f" stroke="none" d="M 229.061,26.9354 S 230.231,28.5804 229.419,29.1624 C 228.606,29.7454 227.593,28.8924 227.593,28.8924 S 227.727,27.4354 229.061,26.9354 Z" transform=""/></svg>