<svg xmlns="http://www.w3.org/2000/svg" version="1.1" width="400" height="212.63157894736844" viewBox="0 0 400 212.63157894736844"><defs/><path fill="#28ae7b" stroke="#28ae7b" d="M 0,254.737 L 0,170.526 L 347.368,170.526 L 315.789,254.737 Z" style="stroke-width: 2px;fill-opacity: 1;stroke-opacity: 1" stroke-width="2" fill-opacity="1" stroke-opacity="1" stroke-dasharray="0"/><path fill="#28ae7b" stroke="#28ae7b" d="M 0,170.526 L 347.368,170.526 L 378.947,86.3158 L 31.5789,86.3158 Z" style="stroke-width: 2px;fill-opacity: 1;stroke-opacity: 1" stroke-width="2" fill-opacity="1" stroke-opacity="1" stroke-dasharray="0"/><path fill="#a52a2a" stroke="#a52a2a" d="M 315.789,265.263 L 378.947,96.8421 L 378.947,86.3158 L 315.789,254.737 Z" style="stroke-width: 2px;fill-opacity: 1;stroke-opacity: 1" stroke-width="2" fill-opacity="1" stroke-opacity="1" stroke-dasharray="0"/><path fill="#a52a2a" stroke="#a52a2a" d="M 42.1053,128.421 L 42.1053,65.2632 L 54.7368,65.2632 L 54.7368,128.421 Z" style="stroke-width: 2px;fill-opacity: 1;stroke-opacity: 1" stroke-width="2" fill-opacity="1" stroke-opacity="1" stroke-dasharray="0"/><ellipse cx="69.47368421052632" cy="44.21052631578947" rx="21.05263157894737" ry="21.05263157894737" fill="#28ae7b" stroke="#28ae7b" style="stroke-width: 2px;stroke-opacity: 1;fill-opacity: 1" stroke-width="2" stroke-opacity="1" stroke-dasharray="0" fill-opacity="1"/><ellipse cx="27.368421052631582" cy="44.21052631578947" rx="21.05263157894737" ry="21.05263157894737" fill="#28ae7b" stroke="#28ae7b" style="stroke-width: 2px;stroke-opacity: 1;fill-opacity: 1" stroke-width="2" stroke-opacity="1" stroke-dasharray="0" fill-opacity="1"/><ellipse cx="48.421052631578945" cy="65.26315789473684" rx="21.05263157894737" ry="21.05263157894737" fill="#28ae7b" stroke="#28ae7b" style="stroke-width: 2px;stroke-opacity: 1;fill-opacity: 1" stroke-width="2" stroke-opacity="1" stroke-dasharray="0" fill-opacity="1"/><ellipse cx="48.421052631578945" cy="23.1578947368421" rx="21.05263157894737" ry="21.05263157894737" fill="#28ae7b" stroke="#28ae7b" style="stroke-width: 2px;stroke-opacity: 1;fill-opacity: 1" stroke-width="2" stroke-opacity="1" stroke-dasharray="0" fill-opacity="1"/><path fill="#deb958" stroke="none" d="M 40.0992,165.747 S 40.7682,166.149 41.9072,165.546 C 41.9072,164.217 42.0422,161.342 42.1202,159.779 C 40.6972,159.542 39.3242,159.273 37.9362,159.128 C 38.5252,161.179 39.2372,163.395 40.0992,165.747 Z" transform=""/><path fill="#deb958" stroke="none" d="M 51.435,160.79 C 52.206,162.897 52.879,165.625 52.879,165.625 S 53.472,165.952 54.405,165.382 C 54.878,163.479 55.364,159.411 56.177,155.713 C 54.391,157.26 52.713,158.895 51.435,160.79 Z" transform=""/><path fill="#ccaa4f" stroke="none" d="M 40.4822,161.061 C 40.6982,160.628 41.3692,160.652 42.0702,160.811 C 42.0882,160.432 42.1052,160.081 42.1212,159.779 C 40.6982,159.543 39.3242,159.274 37.9372,159.128 C 38.5262,161.179 39.2382,163.395 40.1002,165.747 C 40.1002,165.747 40.7692,166.149 41.9082,165.546 C 41.9082,165.39 41.9102,165.211 41.9132,165.016 C 39.8722,165.176 39.9152,162.337 40.4822,161.061 Z" transform=""/><path fill="#ccaa4f" stroke="none" d="M 54.1804,164.447 C 53.6214,162.321 54.5264,160.438 55.5944,158.681 C 55.7694,157.697 55.9624,156.692 56.1774,155.713 C 54.3904,157.26 52.7134,158.895 51.4354,160.791 C 52.2064,162.898 52.8784,165.626 52.8784,165.626 S 53.4724,165.952 54.4044,165.382 C 54.4504,165.199 54.4964,164.995 54.5424,164.773 C 54.3334,164.715 54.1804,164.6 54.1804,164.447 Z" transform=""/><path fill="#304454" stroke="none" d="M 40.0992,165.747 S 39.8132,167.026 40.0782,167.943 C 40.3022,168.146 41.9332,168.289 42.5242,167.473 C 42.4832,167.005 42.1462,165.963 41.9072,165.546 C 41.9072,165.546 40.7932,166.059 40.0992,165.747 Z" transform=""/><path fill="#304454" stroke="none" d="M 52.7964,165.589 S 53.4754,165.996 54.4624,165.355 C 54.9144,165.878 55.2064,167.715 55.2064,167.715 S 53.7844,168.789 52.5594,168.176 C 52.5594,168.176 52.1974,166.446 52.7964,165.589 Z" transform=""/><path fill="#f1d285" stroke="none" d="M 24.396,138.19 S 19.192,141.248 21.769,143.556 C 24.343,145.861 27.369,145.139 27.59,144.109 C 29.282,144.991 32.062,143.893 32.062,143.893 S 32.356,153.522 37.502,167.563 C 37.502,167.563 38.238,168.005 39.487,167.342 C 39.487,165.284 39.781,159.846 39.781,159.846 S 46.25,161.683 49.558,160.728 C 50.073,162.933 50.22,167.049 50.22,167.049 S 50.734,167.49 51.763,167.122 C 52.792,164.99 54.482,159.771 56.468,155.949 C 58.452,152.126 59.115,143.893 52.792,144.187 C 46.47,144.481 41.178,143.967 39.413,142.276 C 37.649,140.586 37.795,138.159 38.016,136.248 C 38.237,134.336 36.105,131.837 33.973,132.131 C 31.841,132.425 28.073,133.605 26.548,134.703 C 25.099,135.749 24.396,138.19 24.396,138.19 Z" transform=""/><path fill="#deb958" stroke="none" d="M 52.465,159.213 C 48.463,160.136 44.461,159.367 40.46,158.597 C 39.844,158.443 38.767,158.135 38.305,157.212 C 39.382,159.829 39.228,162.445 38.767,165.061 C 38.767,165.523 37.689,165.985 37.535,165.523 C 36.15,161.829 35.25,158 34.654,154.03 C 33.831,148.543 32.505,142.332 34.303,137.665 C 32.575,142.148 27.175,142.187 26.983,142.642 C 26.557,143.647 21.599,143.412 21.599,143.412 C 23.375,145.454 26.983,145.479 27.568,144.109 C 27.592,144.054 27.618,144.001 27.646,143.951 C 28.628,145.084 32.04,143.893 32.04,143.893 S 32.335,153.523 37.48,167.564 C 37.48,167.564 38.216,168.005 39.465,167.343 C 39.465,165.284 39.759,159.845 39.759,159.845 S 46.228,161.683 49.536,160.727 C 50.05,162.932 50.198,167.049 50.198,167.049 S 50.686,167.464 51.657,167.15 C 50.317,164.839 50.635,161.347 52.465,159.213 Z" style="opacity: 0.5" opacity="0.5" transform=""/><path fill="#deb958" stroke="none" d="M 33.248,134.433 C 34.282,134.174 34.978,133.337 35.336,132.3 C 34.898,132.135 34.436,132.068 33.974,132.132 C 32.023,132.4 28.781,133.531 27.005,134.454 C 29.031,134.924 31.187,134.918 33.248,134.433 Z" transform=""/><path fill="#f4953f" stroke="none" d="M 55.5129,146.025 S 55.3659,143.232 58.8939,143.232 C 62.4229,143.232 63.4519,145.584 62.3489,149.333 C 61.2469,153.082 61.3929,154.553 62.6439,154.185 C 62.6439,154.185 62.8639,153.745 62.4959,153.745 C 62.4959,153.745 63.1579,153.597 63.1579,154.332 C 63.1579,155.067 61.7609,155.582 60.5849,154.259 C 60.5109,154.994 61.8339,155.361 62.2759,155.361 C 61.6139,156.17 59.5559,156.537 58.6729,154.479 C 57.7909,152.42 57.8649,151.245 57.8649,151.245 S 57.4969,147.495 56.9829,147.349 C 56.9829,147.349 55.8069,147.423 55.5129,146.025 Z" transform=""/><path fill="#2c8fc0" stroke="none" d="M 59.2724,150.42 C 59.2644,150.215 59.2594,150.015 59.2594,149.825 C 59.2094,150.023 59.2254,150.222 59.2724,150.42 Z" transform=""/><path fill="#d78334" stroke="none" d="M 59.2724,150.42 C 59.2254,150.222 59.2104,150.023 59.2594,149.825 C 59.2594,150.015 59.2644,150.215 59.2724,150.42 M 59.2724,150.42 C 59.3714,150.837 59.6174,151.255 59.7214,151.671 C 60.0294,149.671 60.6444,146.746 58.0284,146.285 C 58.4894,145.977 58.9514,146.131 59.4134,146.285 C 59.1054,145.361 57.5664,145.823 57.4124,145.361 C 57.2584,144.284 58.9514,144.592 59.8754,144.592 C 59.4234,144.291 59.1174,143.695 58.6724,143.237 C 55.3734,143.353 55.5124,146.025 55.5124,146.025 C 55.8064,147.422 56.9824,147.348 56.9824,147.348 C 57.4974,147.495 57.8644,151.245 57.8644,151.245 S 57.7914,152.42 58.6734,154.479 C 59.3594,156.078 60.7554,156.213 61.6534,155.814 C 59.8664,154.932 59.3534,152.402 59.2724,150.42 Z" transform=""/><path fill="#304454" stroke="none" d="M 37.5029,167.564 S 37.1889,168.967 37.4799,169.974 C 37.7259,170.198 39.5159,170.354 40.1659,169.459 C 40.1209,168.944 39.7499,167.801 39.4879,167.343 C 39.4879,167.344 38.2639,167.907 37.5029,167.564 Z" transform=""/><path fill="#304454" stroke="none" d="M 50.1469,166.997 S 50.7289,167.534 51.8249,167.109 C 52.1609,167.713 52.0709,169.571 52.0709,169.571 S 50.4599,170.331 49.3859,169.481 C 49.3859,169.482 49.3859,167.714 50.1469,166.997 Z" transform=""/><path fill="#f4953f" stroke="none" d="M 34.5556,133.432 S 31.7626,134.681 29.3376,134.167 C 26.9106,133.652 24.4856,130.491 26.6906,128.8 C 26.5436,129.609 26.8376,131.373 29.3376,131.078 C 28.6746,131.078 27.8666,129.682 28.5276,128.8 C 28.7496,129.241 29.3376,130.564 31.3216,129.903 C 33.3056,129.241 37.2766,128.139 39.1866,131.078 C 41.0976,134.02 40.5836,139.24 45.0676,139.091 C 45.6556,139.018 45.5826,138.062 44.8476,138.062 C 46.2436,137.915 48.5966,142.841 42.4216,143.429 C 40.5836,144.091 37.0556,142.106 36.9816,139.165 C 36.9086,136.225 37.4966,132.99 34.5556,133.432 L 34.5556,133.432 Z" transform=""/><path fill="#d78334" stroke="none" d="M 46.2761,139.415 C 46.1481,139.738 45.9151,140.005 45.5261,140.181 C 44.2941,140.796 42.6011,140.489 41.2151,139.719 C 41.3701,140.334 41.5231,140.796 42.2931,140.796 C 38.2921,141.564 37.3681,136.948 37.8301,133.87 C 37.9851,134.794 38.7531,135.871 39.8311,136.026 C 38.8911,134.733 39.2071,132.902 39.2711,131.218 C 39.2441,131.172 39.2161,131.125 39.1871,131.079 C 37.9291,129.143 35.7761,128.959 33.8881,129.25 C 33.0511,130.965 32.3841,132.844 29.9811,132.177 C 30.2891,132.638 30.5971,132.638 31.2121,132.638 C 30.1271,133.29 28.8121,133.635 27.5911,133.349 C 28.1251,133.743 28.7311,134.037 29.3371,134.167 C 31.7631,134.681 34.5551,133.432 34.5551,133.432 C 37.4971,132.99 36.9081,136.225 36.9821,139.165 S 40.5841,144.09 42.4221,143.428 C 46.3931,143.05 46.8371,140.879 46.2761,139.415 L 46.2761,139.415 Z" transform=""/><path fill="#f1d285" stroke="none" d="M 35.096,134.744 S 34.325,133.058 35.53,131.901 C 36.735,130.745 36.735,130.745 36.735,130.745 S 37.505,132.576 37.072,133.925 C 36.782,134.936 35.819,135.515 35.096,134.744 Z" transform=""/><path fill="#f6a5bf" stroke="none" d="M 33.5641,130.278 C 33.5651,130.283 33.5671,130.288 33.5681,130.293 L 33.5681,130.293 L 33.5681,130.293 C 33.5681,130.29 33.5661,130.286 33.5641,130.278 M 33.5641,130.278 L 33.5641,130.278 Z" transform=""/><path fill="#ccaa4f" stroke="none" d="M 36.4279,131.825 S 35.1689,132.688 35.3849,133.839 S 36.3559,134.235 36.5359,133.839 C 36.7159,133.443 36.4279,131.825 36.4279,131.825 Z" transform=""/><path fill="#e8c4dd" stroke="none" d="M 42.4829,143.591 S 42.4739,143.606 42.4559,143.635 C 42.4749,143.639 42.4919,143.643 42.5099,143.647 C 42.4999,143.629 42.4909,143.609 42.4829,143.591 M 42.4829,143.591 L 42.4829,143.591 Z" transform=""/><ellipse cx="29.128016895594662" cy="137.80838252856375" rx="0.5469594903004831" ry="0.9086394129991792" fill="#304454" stroke="none" r="NaN" transform=""/><path fill="#deb958" stroke="none" d="M 92.7308,165.747 S 93.3998,166.149 94.5388,165.546 C 94.5388,164.217 94.6738,161.342 94.7518,159.779 C 93.3288,159.542 91.9558,159.273 90.5678,159.128 C 91.1568,161.179 91.8688,163.395 92.7308,165.747 Z" transform=""/><path fill="#deb958" stroke="none" d="M 104.067,160.79 C 104.838,162.897 105.511,165.625 105.511,165.625 S 106.104,165.952 107.037,165.382 C 107.51,163.479 107.996,159.411 108.809,155.713 C 107.023,157.26 105.345,158.895 104.067,160.79 Z" transform=""/><path fill="#ccaa4f" stroke="none" d="M 93.1137,161.061 C 93.3297,160.628 94.0007,160.652 94.7017,160.811 C 94.7197,160.432 94.7367,160.081 94.7527,159.779 C 93.3297,159.543 91.9557,159.274 90.5687,159.128 C 91.1577,161.179 91.8697,163.395 92.7317,165.747 C 92.7317,165.747 93.4007,166.149 94.5397,165.546 C 94.5397,165.39 94.5417,165.211 94.5447,165.016 C 92.5037,165.176 92.5467,162.337 93.1137,161.061 Z" transform=""/><path fill="#ccaa4f" stroke="none" d="M 106.812,164.447 C 106.253,162.321 107.158,160.438 108.226,158.681 C 108.401,157.697 108.594,156.692 108.809,155.713 C 107.022,157.26 105.345,158.895 104.067,160.791 C 104.838,162.898 105.51,165.626 105.51,165.626 S 106.104,165.952 107.036,165.382 C 107.082,165.199 107.128,164.995 107.174,164.773 C 106.965,164.715 106.812,164.6 106.812,164.447 Z" transform=""/><path fill="#304454" stroke="none" d="M 92.7308,165.747 S 92.4448,167.026 92.7098,167.943 C 92.9338,168.146 94.5648,168.289 95.1558,167.473 C 95.1148,167.005 94.7778,165.963 94.5388,165.546 C 94.5388,165.546 93.4248,166.059 92.7308,165.747 Z" transform=""/><path fill="#304454" stroke="none" d="M 105.428,165.589 S 106.107,165.996 107.094,165.355 C 107.546,165.878 107.838,167.715 107.838,167.715 S 106.416,168.789 105.191,168.176 C 105.191,168.176 104.829,166.446 105.428,165.589 Z" transform=""/><path fill="#f1d285" stroke="none" d="M 77.0276,138.19 S 71.8236,141.248 74.4006,143.556 C 76.9746,145.861 80.0006,145.139 80.2216,144.109 C 81.9136,144.991 84.6936,143.893 84.6936,143.893 S 84.9876,153.522 90.1336,167.563 C 90.1336,167.563 90.8696,168.005 92.1186,167.342 C 92.1186,165.284 92.4126,159.846 92.4126,159.846 S 98.8816,161.683 102.19,160.728 C 102.705,162.933 102.852,167.049 102.852,167.049 S 103.366,167.49 104.395,167.122 C 105.424,164.99 107.114,159.771 109.1,155.949 C 111.084,152.126 111.747,143.893 105.424,144.187 C 99.1016,144.481 93.8096,143.967 92.0446,142.276 C 90.2806,140.586 90.4266,138.159 90.6476,136.248 C 90.8686,134.336 88.7366,131.837 86.6046,132.131 S 80.7046,133.605 79.1796,134.703 C 77.7306,135.749 77.0276,138.19 77.0276,138.19 Z" transform=""/><path fill="#deb958" stroke="none" d="M 105.097,159.213 C 101.095,160.136 97.0925,159.367 93.0915,158.597 C 92.4755,158.443 91.3985,158.135 90.9365,157.212 C 92.0135,159.829 91.8595,162.445 91.3985,165.061 C 91.3985,165.523 90.3205,165.985 90.1665,165.523 C 88.7815,161.829 87.8815,158 87.2855,154.03 C 86.4625,148.543 85.1365,142.332 86.9345,137.665 C 85.2065,142.148 79.8065,142.187 79.6145,142.642 C 79.1885,143.647 74.2305,143.412 74.2305,143.412 C 76.0065,145.454 79.6145,145.479 80.1995,144.109 C 80.2235,144.054 80.2495,144.001 80.2775,143.951 C 81.2595,145.084 84.6715,143.893 84.6715,143.893 S 84.9665,153.523 90.1115,167.564 C 90.1115,167.564 90.8475,168.005 92.0965,167.343 C 92.0965,165.284 92.3905,159.845 92.3905,159.845 S 98.8595,161.683 102.168,160.727 C 102.682,162.932 102.83,167.049 102.83,167.049 S 103.318,167.464 104.289,167.15 C 102.949,164.839 103.267,161.347 105.097,159.213 Z" style="opacity: 0.5" opacity="0.5" transform=""/><path fill="#deb958" stroke="none" d="M 85.8796,134.433 C 86.9136,134.174 87.6096,133.337 87.9676,132.3 C 87.5296,132.135 87.0676,132.068 86.6056,132.132 C 84.6546,132.4 81.4126,133.531 79.6366,134.454 C 81.6626,134.924 83.8186,134.918 85.8796,134.433 Z" transform=""/><path fill="#f4953f" stroke="none" d="M 108.144,146.025 S 107.997,143.232 111.525,143.232 C 115.054,143.232 116.083,145.584 114.98,149.333 C 113.878,153.082 114.024,154.553 115.275,154.185 C 115.275,154.185 115.495,153.745 115.127,153.745 C 115.127,153.745 115.789,153.597 115.789,154.332 C 115.789,155.067 114.392,155.582 113.216,154.259 C 113.142,154.994 114.465,155.361 114.907,155.361 C 114.245,156.17 112.187,156.537 111.304,154.479 C 110.422,152.42 110.496,151.245 110.496,151.245 S 110.128,147.495 109.614,147.349 C 109.614,147.349 108.438,147.423 108.144,146.025 Z" transform=""/><path fill="#2c8fc0" stroke="none" d="M 111.904,150.42 C 111.896,150.215 111.891,150.015 111.891,149.825 C 111.841,150.023 111.857,150.222 111.904,150.42 Z" transform=""/><path fill="#d78334" stroke="none" d="M 111.904,150.42 C 111.857,150.222 111.842,150.023 111.891,149.825 C 111.891,150.015 111.896,150.215 111.904,150.42 M 111.904,150.42 C 112.003,150.837 112.249,151.255 112.353,151.671 C 112.661,149.671 113.276,146.746 110.66,146.285 C 111.121,145.977 111.583,146.131 112.045,146.285 C 111.737,145.361 110.198,145.823 110.044,145.361 C 109.89,144.284 111.583,144.592 112.507,144.592 C 112.055,144.291 111.749,143.695 111.304,143.237 C 108.005,143.353 108.144,146.025 108.144,146.025 C 108.438,147.422 109.614,147.348 109.614,147.348 C 110.129,147.495 110.496,151.245 110.496,151.245 S 110.423,152.42 111.305,154.479 C 111.991,156.078 113.387,156.213 114.285,155.814 C 112.498,154.932 111.985,152.402 111.904,150.42 Z" transform=""/><path fill="#304454" stroke="none" d="M 90.1345,167.564 S 89.8205,168.967 90.1115,169.974 C 90.3575,170.198 92.1475,170.354 92.7975,169.459 C 92.7525,168.944 92.3815,167.801 92.1195,167.343 C 92.1195,167.344 90.8955,167.907 90.1345,167.564 Z" transform=""/><path fill="#304454" stroke="none" d="M 102.778,166.997 S 103.36,167.534 104.456,167.109 C 104.792,167.713 104.702,169.571 104.702,169.571 S 103.091,170.331 102.017,169.481 C 102.017,169.482 102.017,167.714 102.778,166.997 Z" transform=""/><path fill="#f4953f" stroke="none" d="M 87.1872,133.432 S 84.3942,134.681 81.9692,134.167 C 79.5422,133.652 77.1172,130.491 79.3222,128.8 C 79.1752,129.609 79.4692,131.373 81.9692,131.078 C 81.3062,131.078 80.4982,129.682 81.1592,128.8 C 81.3812,129.241 81.9692,130.564 83.9532,129.903 C 85.9372,129.241 89.9082,128.139 91.8182,131.078 C 93.7292,134.02 93.2152,139.24 97.6992,139.091 C 98.2872,139.018 98.2142,138.062 97.4792,138.062 C 98.8752,137.915 101.228,142.841 95.0532,143.429 C 93.2152,144.091 89.6872,142.106 89.6132,139.165 C 89.5402,136.225 90.1282,132.99 87.1872,133.432 L 87.1872,133.432 Z" transform=""/><path fill="#d78334" stroke="none" d="M 98.9077,139.415 C 98.7797,139.738 98.5467,140.005 98.1577,140.181 C 96.9257,140.796 95.2327,140.489 93.8467,139.719 C 94.0017,140.334 94.1547,140.796 94.9247,140.796 C 90.9237,141.564 89.9997,136.948 90.4617,133.87 C 90.6167,134.794 91.3847,135.871 92.4627,136.026 C 91.5227,134.733 91.8387,132.902 91.9027,131.218 C 91.8757,131.172 91.8477,131.125 91.8187,131.079 C 90.5607,129.143 88.4077,128.959 86.5197,129.25 C 85.6827,130.965 85.0157,132.844 82.6127,132.177 C 82.9207,132.638 83.2287,132.638 83.8437,132.638 C 82.7587,133.29 81.4437,133.635 80.2227,133.349 C 80.7567,133.743 81.3627,134.037 81.9687,134.167 C 84.3947,134.681 87.1867,133.432 87.1867,133.432 C 90.1287,132.99 89.5397,136.225 89.6137,139.165 C 89.6877,142.105 93.2157,144.09 95.0537,143.428 C 99.0247,143.05 99.4687,140.879 98.9077,139.415 L 98.9077,139.415 Z" transform=""/><path fill="#f1d285" stroke="none" d="M 87.7276,134.744 S 86.9566,133.058 88.1616,131.901 C 89.3666,130.745 89.3666,130.745 89.3666,130.745 S 90.1366,132.576 89.7036,133.925 C 89.4136,134.936 88.4506,135.515 87.7276,134.744 Z" transform=""/><path fill="#f6a5bf" stroke="none" d="M 86.1957,130.278 C 86.1967,130.283 86.1987,130.288 86.1997,130.293 L 86.1997,130.293 L 86.1997,130.293 C 86.1997,130.29 86.1977,130.286 86.1957,130.278 M 86.1957,130.278 L 86.1957,130.278 Z" transform=""/><path fill="#ccaa4f" stroke="none" d="M 89.0595,131.825 S 87.8005,132.688 88.0165,133.839 S 88.9875,134.235 89.1675,133.839 C 89.3475,133.443 89.0595,131.825 89.0595,131.825 Z" transform=""/><path fill="#e8c4dd" stroke="none" d="M 95.1145,143.591 S 95.1055,143.606 95.0875,143.635 C 95.1065,143.639 95.1235,143.643 95.1415,143.647 C 95.1315,143.629 95.1225,143.609 95.1145,143.591 M 95.1145,143.591 L 95.1145,143.591 Z" transform=""/><ellipse cx="81.75959584296308" cy="137.80838252856375" rx="0.5469594903004831" ry="0.9086394129991792" fill="#304454" stroke="none" r="NaN" transform=""/><path fill="#deb958" stroke="none" d="M 145.362,165.747 S 146.031,166.149 147.17,165.546 C 147.17,164.217 147.305,161.342 147.383,159.779 C 145.96,159.542 144.587,159.273 143.199,159.128 C 143.788,161.179 144.5,163.395 145.362,165.747 Z" transform=""/><path fill="#deb958" stroke="none" d="M 156.698,160.79 C 157.469,162.897 158.142,165.625 158.142,165.625 S 158.735,165.952 159.668,165.382 C 160.141,163.479 160.627,159.411 161.44,155.713 C 159.654,157.26 157.976,158.895 156.698,160.79 Z" transform=""/><path fill="#ccaa4f" stroke="none" d="M 145.745,161.061 C 145.961,160.628 146.632,160.652 147.333,160.811 C 147.351,160.432 147.368,160.081 147.384,159.779 C 145.961,159.543 144.587,159.274 143.2,159.128 C 143.789,161.179 144.501,163.395 145.363,165.747 C 145.363,165.747 146.032,166.149 147.171,165.546 C 147.171,165.39 147.173,165.211 147.176,165.016 C 145.135,165.176 145.178,162.337 145.745,161.061 Z" transform=""/><path fill="#ccaa4f" stroke="none" d="M 159.444,164.447 C 158.885,162.321 159.79,160.438 160.858,158.681 C 161.033,157.697 161.226,156.692 161.441,155.713 C 159.654,157.26 157.977,158.895 156.699,160.791 C 157.47,162.898 158.142,165.626 158.142,165.626 S 158.736,165.952 159.668,165.382 C 159.714,165.199 159.76,164.995 159.806,164.773 C 159.597,164.715 159.444,164.6 159.444,164.447 Z" transform=""/><path fill="#304454" stroke="none" d="M 145.362,165.747 S 145.076,167.026 145.341,167.943 C 145.565,168.146 147.196,168.289 147.787,167.473 C 147.746,167.005 147.409,165.963 147.17,165.546 C 147.17,165.546 146.056,166.059 145.362,165.747 Z" transform=""/><path fill="#304454" stroke="none" d="M 158.06,165.589 S 158.739,165.996 159.726,165.355 C 160.178,165.878 160.47,167.715 160.47,167.715 S 159.048,168.789 157.823,168.176 C 157.823,168.176 157.461,166.446 158.06,165.589 Z" transform=""/><path fill="#f1d285" stroke="none" d="M 129.659,138.19 S 124.455,141.248 127.032,143.556 C 129.606,145.861 132.632,145.139 132.853,144.109 C 134.545,144.991 137.325,143.893 137.325,143.893 S 137.619,153.522 142.765,167.563 C 142.765,167.563 143.501,168.005 144.75,167.342 C 144.75,165.284 145.044,159.846 145.044,159.846 S 151.513,161.683 154.821,160.728 C 155.336,162.933 155.483,167.049 155.483,167.049 S 155.997,167.49 157.026,167.122 C 158.055,164.99 159.745,159.771 161.731,155.949 C 163.715,152.126 164.378,143.893 158.055,144.187 C 151.733,144.481 146.441,143.967 144.676,142.276 C 142.912,140.586 143.058,138.159 143.279,136.248 C 143.5,134.336 141.368,131.837 139.236,132.131 S 133.336,133.605 131.811,134.703 C 130.362,135.749 129.659,138.19 129.659,138.19 Z" transform=""/><path fill="#deb958" stroke="none" d="M 157.728,159.213 C 153.726,160.136 149.724,159.367 145.723,158.597 C 145.107,158.443 144.03,158.135 143.568,157.212 C 144.645,159.829 144.491,162.445 144.03,165.061 C 144.03,165.523 142.952,165.985 142.798,165.523 C 141.413,161.829 140.513,158 139.917,154.03 C 139.094,148.543 137.768,142.332 139.566,137.665 C 137.838,142.148 132.438,142.187 132.246,142.642 C 131.82,143.647 126.862,143.412 126.862,143.412 C 128.638,145.454 132.246,145.479 132.831,144.109 C 132.855,144.054 132.881,144.001 132.909,143.951 C 133.891,145.084 137.303,143.893 137.303,143.893 S 137.598,153.523 142.743,167.564 C 142.743,167.564 143.479,168.005 144.728,167.343 C 144.728,165.284 145.022,159.845 145.022,159.845 S 151.491,161.683 154.799,160.727 C 155.313,162.932 155.461,167.049 155.461,167.049 S 155.949,167.464 156.92,167.15 C 155.58,164.839 155.898,161.347 157.728,159.213 Z" style="opacity: 0.5" opacity="0.5" transform=""/><path fill="#deb958" stroke="none" d="M 138.511,134.433 C 139.545,134.174 140.241,133.337 140.599,132.3 C 140.161,132.135 139.699,132.068 139.237,132.132 C 137.286,132.4 134.044,133.531 132.268,134.454 C 134.294,134.924 136.45,134.918 138.511,134.433 Z" transform=""/><path fill="#f4953f" stroke="none" d="M 160.776,146.025 S 160.629,143.232 164.157,143.232 C 167.686,143.232 168.715,145.584 167.612,149.333 C 166.51,153.082 166.656,154.553 167.907,154.185 C 167.907,154.185 168.127,153.745 167.759,153.745 C 167.759,153.745 168.421,153.597 168.421,154.332 C 168.421,155.067 167.024,155.582 165.848,154.259 C 165.774,154.994 167.097,155.361 167.539,155.361 C 166.877,156.17 164.819,156.537 163.936,154.479 C 163.054,152.42 163.128,151.245 163.128,151.245 S 162.76,147.495 162.246,147.349 C 162.246,147.349 161.07,147.423 160.776,146.025 Z" transform=""/><path fill="#2c8fc0" stroke="none" d="M 164.536,150.42 C 164.528,150.215 164.523,150.015 164.523,149.825 C 164.473,150.023 164.489,150.222 164.536,150.42 Z" transform=""/><path fill="#d78334" stroke="none" d="M 164.536,150.42 C 164.489,150.222 164.474,150.023 164.523,149.825 C 164.523,150.015 164.528,150.215 164.536,150.42 M 164.536,150.42 C 164.635,150.837 164.881,151.255 164.985,151.671 C 165.293,149.671 165.908,146.746 163.292,146.285 C 163.753,145.977 164.215,146.131 164.677,146.285 C 164.369,145.361 162.83,145.823 162.676,145.361 C 162.522,144.284 164.215,144.592 165.139,144.592 C 164.687,144.291 164.381,143.695 163.936,143.237 C 160.637,143.353 160.776,146.025 160.776,146.025 C 161.07,147.422 162.246,147.348 162.246,147.348 C 162.761,147.495 163.128,151.245 163.128,151.245 S 163.055,152.42 163.937,154.479 C 164.623,156.078 166.019,156.213 166.917,155.814 C 165.13,154.932 164.617,152.402 164.536,150.42 Z" transform=""/><path fill="#304454" stroke="none" d="M 142.766,167.564 S 142.452,168.967 142.743,169.974 C 142.989,170.198 144.779,170.354 145.429,169.459 C 145.384,168.944 145.013,167.801 144.751,167.343 C 144.751,167.344 143.527,167.907 142.766,167.564 Z" transform=""/><path fill="#304454" stroke="none" d="M 155.41,166.997 S 155.992,167.534 157.088,167.109 C 157.424,167.713 157.334,169.571 157.334,169.571 S 155.723,170.331 154.649,169.481 C 154.649,169.482 154.649,167.714 155.41,166.997 Z" transform=""/><path fill="#f4953f" stroke="none" d="M 139.819,133.432 S 137.026,134.681 134.601,134.167 C 132.174,133.652 129.749,130.491 131.954,128.8 C 131.807,129.609 132.101,131.373 134.601,131.078 C 133.938,131.078 133.13,129.682 133.791,128.8 C 134.013,129.241 134.601,130.564 136.585,129.903 C 138.569,129.241 142.54,128.139 144.45,131.078 C 146.361,134.02 145.847,139.24 150.331,139.091 C 150.919,139.018 150.846,138.062 150.111,138.062 C 151.507,137.915 153.86,142.841 147.685,143.429 C 145.847,144.091 142.319,142.106 142.245,139.165 C 142.172,136.225 142.76,132.99 139.819,133.432 L 139.819,133.432 Z" transform=""/><path fill="#d78334" stroke="none" d="M 151.539,139.415 C 151.411,139.738 151.178,140.005 150.789,140.181 C 149.557,140.796 147.864,140.489 146.478,139.719 C 146.633,140.334 146.786,140.796 147.556,140.796 C 143.555,141.564 142.631,136.948 143.093,133.87 C 143.248,134.794 144.016,135.871 145.094,136.026 C 144.154,134.733 144.47,132.902 144.534,131.218 C 144.507,131.172 144.479,131.125 144.45,131.079 C 143.192,129.143 141.039,128.959 139.151,129.25 C 138.314,130.965 137.647,132.844 135.244,132.177 C 135.552,132.638 135.86,132.638 136.475,132.638 C 135.39,133.29 134.075,133.635 132.854,133.349 C 133.388,133.743 133.994,134.037 134.6,134.167 C 137.026,134.681 139.818,133.432 139.818,133.432 C 142.76,132.99 142.171,136.225 142.245,139.165 C 142.319,142.105 145.847,144.09 147.685,143.428 C 151.656,143.05 152.1,140.879 151.539,139.415 L 151.539,139.415 Z" transform=""/><path fill="#f1d285" stroke="none" d="M 140.359,134.744 S 139.588,133.058 140.793,131.901 C 141.998,130.745 141.998,130.745 141.998,130.745 S 142.768,132.576 142.335,133.925 C 142.045,134.936 141.082,135.515 140.359,134.744 Z" transform=""/><path fill="#f6a5bf" stroke="none" d="M 138.827,130.278 C 138.828,130.283 138.83,130.288 138.831,130.293 L 138.831,130.293 L 138.831,130.293 C 138.831,130.29 138.829,130.286 138.827,130.278 M 138.827,130.278 L 138.827,130.278 Z" transform=""/><path fill="#ccaa4f" stroke="none" d="M 141.691,131.825 S 140.432,132.688 140.648,133.839 C 140.864,134.99 141.619,134.235 141.799,133.839 S 141.691,131.825 141.691,131.825 Z" transform=""/><path fill="#e8c4dd" stroke="none" d="M 147.746,143.591 S 147.737,143.606 147.719,143.635 C 147.738,143.639 147.755,143.643 147.773,143.647 C 147.763,143.629 147.754,143.609 147.746,143.591 L 147.746,143.591 Z" transform=""/><ellipse cx="134.39117479033152" cy="137.80838252856375" rx="0.5469594903004831" ry="0.9086394129991792" fill="#304454" stroke="none" r="NaN" transform=""/><path fill="#deb958" stroke="none" d="M 124.31,123.641 S 124.979,124.043 126.118,123.44 C 126.118,122.111 126.253,119.236 126.331,117.673 C 124.908,117.436 123.535,117.167 122.147,117.022 C 122.736,119.073 123.448,121.289 124.31,123.641 Z" transform=""/><path fill="#deb958" stroke="none" d="M 135.645,118.684 C 136.416,120.791 137.089,123.519 137.089,123.519 S 137.682,123.846 138.615,123.276 C 139.088,121.373 139.574,117.305 140.387,113.607 C 138.601,115.154 136.923,116.789 135.645,118.684 Z" transform=""/><path fill="#ccaa4f" stroke="none" d="M 124.693,118.955 C 124.909,118.522 125.58,118.546 126.281,118.705 C 126.299,118.326 126.316,117.975 126.332,117.673 C 124.909,117.437 123.535,117.168 122.148,117.022 C 122.737,119.073 123.449,121.289 124.311,123.641 C 124.311,123.641 124.98,124.043 126.119,123.44 C 126.119,123.284 126.121,123.105 126.124,122.91 C 124.083,123.07 124.126,120.231 124.693,118.955 Z" transform=""/><path fill="#ccaa4f" stroke="none" d="M 138.391,122.341 C 137.832,120.215 138.737,118.332 139.805,116.575 C 139.98,115.591 140.173,114.586 140.388,113.607 C 138.601,115.154 136.924,116.789 135.646,118.685 C 136.417,120.792 137.089,123.52 137.089,123.52 S 137.683,123.846 138.615,123.276 C 138.661,123.093 138.707,122.889 138.753,122.667 C 138.544,122.609 138.391,122.494 138.391,122.341 Z" transform=""/><path fill="#304454" stroke="none" d="M 124.31,123.641 S 124.024,124.92 124.289,125.837 C 124.513,126.04 126.144,126.183 126.735,125.367 C 126.694,124.899 126.357,123.857 126.118,123.44 C 126.118,123.44 125.004,123.953 124.31,123.641 Z" transform=""/><path fill="#304454" stroke="none" d="M 137.007,123.484 S 137.686,123.891 138.673,123.25 C 139.125,123.773 139.417,125.61 139.417,125.61 S 137.995,126.684 136.77,126.071 C 136.77,126.071 136.408,124.341 137.007,123.484 Z" transform=""/><path fill="#f1d285" stroke="none" d="M 108.607,96.0849 S 103.403,99.1429 105.98,101.451 C 108.554,103.756 111.58,103.034 111.801,102.004 C 113.493,102.886 116.273,101.788 116.273,101.788 S 116.567,111.417 121.713,125.458 C 121.713,125.458 122.449,125.9 123.698,125.237 C 123.698,123.179 123.992,117.741 123.992,117.741 S 130.461,119.578 133.769,118.623 C 134.284,120.828 134.431,124.944 134.431,124.944 S 134.945,125.385 135.974,125.017 C 137.003,122.885 138.693,117.666 140.679,113.844 C 142.663,110.021 143.326,101.788 137.003,102.082 C 130.681,102.376 125.389,101.862 123.624,100.171 C 121.86,98.4809 122.006,96.0539 122.227,94.1429 C 122.448,92.2309 120.316,89.7319 118.184,90.0259 S 112.284,91.4999 110.759,92.5979 C 109.31,93.6439 108.607,96.0849 108.607,96.0849 Z" transform=""/><path fill="#deb958" stroke="none" d="M 136.675,117.108 C 132.673,118.031 128.671,117.262 124.67,116.492 C 124.054,116.338 122.977,116.03 122.515,115.107 C 123.592,117.724 123.438,120.34 122.977,122.956 C 122.977,123.418 121.899,123.88 121.745,123.418 C 120.36,119.724 119.46,115.895 118.864,111.925 C 118.041,106.438 116.715,100.227 118.513,95.5599 C 116.785,100.043 111.385,100.082 111.193,100.537 C 110.767,101.542 105.809,101.307 105.809,101.307 C 107.585,103.349 111.193,103.374 111.778,102.004 C 111.802,101.949 111.828,101.896 111.856,101.846 C 112.838,102.979 116.25,101.788 116.25,101.788 S 116.545,111.418 121.69,125.459 C 121.69,125.459 122.426,125.9 123.675,125.238 C 123.675,123.179 123.969,117.74 123.969,117.74 S 130.438,119.578 133.746,118.622 C 134.26,120.827 134.408,124.944 134.408,124.944 S 134.896,125.359 135.867,125.045 C 134.527,122.734 134.845,119.242 136.675,117.108 Z" style="opacity: 0.5" opacity="0.5" transform=""/><path fill="#deb958" stroke="none" d="M 117.458,92.3278 C 118.492,92.0688 119.188,91.2318 119.546,90.1948 C 119.108,90.0298 118.646,89.9628 118.184,90.0268 C 116.233,90.2948 112.991,91.4258 111.215,92.3488 C 113.241,92.8188 115.397,92.8128 117.458,92.3278 Z" transform=""/><path fill="#f4953f" stroke="none" d="M 139.723,103.919 S 139.576,101.126 143.104,101.126 C 146.633,101.126 147.662,103.478 146.559,107.227 C 145.457,110.976 145.603,112.447 146.854,112.079 C 146.854,112.079 147.074,111.639 146.706,111.639 C 146.706,111.639 147.368,111.491 147.368,112.226 S 145.971,113.476 144.795,112.153 C 144.721,112.888 146.044,113.255 146.486,113.255 C 145.824,114.064 143.766,114.431 142.883,112.373 C 142.001,110.314 142.075,109.139 142.075,109.139 S 141.707,105.389 141.193,105.243 C 141.193,105.243 140.017,105.317 139.723,103.919 Z" transform=""/><path fill="#2c8fc0" stroke="none" d="M 143.483,108.315 C 143.475,108.11 143.47,107.91 143.47,107.72 C 143.42,107.918 143.436,108.117 143.483,108.315 Z" transform=""/><path fill="#d78334" stroke="none" d="M 143.483,108.315 C 143.436,108.117 143.421,107.918 143.47,107.72 C 143.47,107.91 143.475,108.11 143.483,108.315 M 143.483,108.315 C 143.582,108.732 143.828,109.15 143.932,109.566 C 144.24,107.566 144.855,104.641 142.239,104.18 C 142.7,103.872 143.162,104.026 143.624,104.18 C 143.316,103.256 141.777,103.718 141.623,103.256 C 141.469,102.179 143.162,102.487 144.086,102.487 C 143.634,102.186 143.328,101.59 142.883,101.132 C 139.584,101.248 139.723,103.92 139.723,103.92 C 140.017,105.317 141.193,105.243 141.193,105.243 C 141.708,105.39 142.075,109.14 142.075,109.14 S 142.002,110.315 142.884,112.374 C 143.57,113.973 144.966,114.108 145.864,113.709 C 144.077,112.827 143.564,110.297 143.483,108.315 Z" transform=""/><path fill="#304454" stroke="none" d="M 121.713,125.459 S 121.399,126.862 121.69,127.869 C 121.936,128.093 123.726,128.249 124.376,127.354 C 124.331,126.839 123.96,125.696 123.698,125.238 C 123.698,125.239 122.474,125.802 121.713,125.459 Z" transform=""/><path fill="#304454" stroke="none" d="M 134.357,124.891 S 134.939,125.428 136.035,125.003 C 136.371,125.607 136.281,127.465 136.281,127.465 S 134.67,128.225 133.596,127.375 C 133.596,127.376 133.596,125.608 134.357,124.891 Z" transform=""/><path fill="#f4953f" stroke="none" d="M 118.766,91.3269 S 115.973,92.5759 113.548,92.0619 C 111.121,91.5469 108.696,88.3859 110.901,86.6949 C 110.754,87.5039 111.048,89.2679 113.548,88.9729 C 112.885,88.9729 112.077,87.5769 112.738,86.6949 C 112.96,87.1359 113.548,88.4589 115.532,87.7979 C 117.516,87.1359 121.487,86.0339 123.397,88.9729 C 125.308,91.9149 124.794,97.1349 129.278,96.9859 C 129.866,96.9129 129.793,95.9569 129.058,95.9569 C 130.454,95.8099 132.807,100.736 126.632,101.324 C 124.794,101.986 121.266,100.001 121.192,97.0599 C 121.119,94.1199 121.707,90.8849 118.766,91.3269 L 118.766,91.3269 Z" transform=""/><path fill="#d78334" stroke="none" d="M 130.487,97.3097 C 130.359,97.6327 130.126,97.8997 129.737,98.0757 C 128.505,98.6907 126.812,98.3837 125.426,97.6137 C 125.581,98.2287 125.734,98.6907 126.504,98.6907 C 122.503,99.4587 121.579,94.8427 122.041,91.7647 C 122.196,92.6887 122.964,93.7657 124.042,93.9207 C 123.102,92.6277 123.418,90.7967 123.482,89.1127 C 123.455,89.0667 123.427,89.0197 123.398,88.9737 C 122.14,87.0377 119.987,86.8537 118.099,87.1447 C 117.262,88.8597 116.595,90.7387 114.192,90.0717 C 114.5,90.5327 114.808,90.5327 115.423,90.5327 C 114.338,91.1847 113.023,91.5297 111.802,91.2437 C 112.336,91.6377 112.942,91.9317 113.548,92.0617 C 115.974,92.5757 118.766,91.3267 118.766,91.3267 C 121.708,90.8847 121.119,94.1197 121.193,97.0597 C 121.267,99.9997 124.795,101.985 126.633,101.323 C 130.604,100.945 131.048,98.7737 130.487,97.3097 L 130.487,97.3097 Z" transform=""/><path fill="#f1d285" stroke="none" d="M 119.307,92.6392 S 118.536,90.9532 119.741,89.7962 C 120.946,88.6402 120.946,88.6402 120.946,88.6402 S 121.716,90.4712 121.283,91.8202 C 120.993,92.8312 120.03,93.4102 119.307,92.6392 Z" transform=""/><path fill="#f6a5bf" stroke="none" d="M 117.775,88.173 C 117.776,88.178 117.778,88.183 117.779,88.188 L 117.779,88.188 L 117.779,88.188 C 117.779,88.185 117.777,88.181 117.775,88.173 M 117.775,88.173 L 117.775,88.173 Z" transform=""/><path fill="#ccaa4f" stroke="none" d="M 120.638,89.7197 S 119.379,90.5827 119.595,91.7337 S 120.566,92.1297 120.746,91.7337 C 120.926,91.3377 120.638,89.7197 120.638,89.7197 Z" transform=""/><path fill="#e8c4dd" stroke="none" d="M 126.693,101.486 S 126.684,101.501 126.666,101.53 C 126.685,101.534 126.702,101.538 126.72,101.542 C 126.71,101.524 126.701,101.504 126.693,101.486 M 126.693,101.486 L 126.693,101.486 Z" transform=""/><ellipse cx="113.33854321138415" cy="95.70311937066901" rx="0.5469594903004831" ry="0.9086394129991792" fill="#304454" stroke="none" r="NaN" transform=""/><path fill="#deb958" stroke="none" d="M 176.941,123.641 S 177.61,124.043 178.749,123.44 C 178.749,122.111 178.884,119.236 178.962,117.673 C 177.539,117.436 176.166,117.167 174.778,117.022 C 175.367,119.073 176.079,121.289 176.941,123.641 Z" transform=""/><path fill="#deb958" stroke="none" d="M 188.277,118.684 C 189.048,120.791 189.721,123.519 189.721,123.519 S 190.314,123.846 191.247,123.276 C 191.72,121.373 192.206,117.305 193.019,113.607 C 191.233,115.154 189.555,116.789 188.277,118.684 Z" transform=""/><path fill="#ccaa4f" stroke="none" d="M 177.324,118.955 C 177.54,118.522 178.211,118.546 178.912,118.705 C 178.93,118.326 178.947,117.975 178.963,117.673 C 177.54,117.437 176.166,117.168 174.779,117.022 C 175.368,119.073 176.08,121.289 176.942,123.641 C 176.942,123.641 177.611,124.043 178.75,123.44 C 178.75,123.284 178.752,123.105 178.755,122.91 C 176.714,123.07 176.757,120.231 177.324,118.955 Z" transform=""/><path fill="#ccaa4f" stroke="none" d="M 191.023,122.341 C 190.464,120.215 191.369,118.332 192.437,116.575 C 192.612,115.591 192.805,114.586 193.02,113.607 C 191.233,115.154 189.556,116.789 188.278,118.685 C 189.049,120.792 189.721,123.52 189.721,123.52 S 190.315,123.846 191.247,123.276 C 191.293,123.093 191.339,122.889 191.385,122.667 C 191.176,122.609 191.023,122.494 191.023,122.341 Z" transform=""/><path fill="#304454" stroke="none" d="M 176.941,123.641 S 176.655,124.92 176.92,125.837 C 177.144,126.04 178.775,126.183 179.366,125.367 C 179.325,124.899 178.988,123.857 178.749,123.44 C 178.749,123.44 177.635,123.953 176.941,123.641 Z" transform=""/><path fill="#304454" stroke="none" d="M 189.639,123.484 S 190.318,123.891 191.305,123.25 C 191.757,123.773 192.049,125.61 192.049,125.61 S 190.627,126.684 189.402,126.071 C 189.402,126.071 189.04,124.341 189.639,123.484 Z" transform=""/><path fill="#f1d285" stroke="none" d="M 161.238,96.0849 S 156.034,99.1429 158.611,101.451 C 161.185,103.756 164.211,103.034 164.432,102.004 C 166.124,102.886 168.904,101.788 168.904,101.788 S 169.198,111.417 174.344,125.458 C 174.344,125.458 175.08,125.9 176.329,125.237 C 176.329,123.179 176.623,117.741 176.623,117.741 S 183.092,119.578 186.4,118.623 C 186.915,120.828 187.062,124.944 187.062,124.944 S 187.576,125.385 188.605,125.017 C 189.634,122.885 191.324,117.666 193.31,113.844 C 195.294,110.021 195.957,101.788 189.634,102.082 C 183.312,102.376 178.02,101.862 176.255,100.171 C 174.491,98.4809 174.637,96.0539 174.858,94.1429 C 175.079,92.2309 172.947,89.7319 170.815,90.0259 S 164.915,91.4999 163.39,92.5979 C 161.941,93.6439 161.238,96.0849 161.238,96.0849 Z" transform=""/><path fill="#deb958" stroke="none" d="M 189.307,117.108 C 185.305,118.031 181.303,117.262 177.302,116.492 C 176.686,116.338 175.609,116.03 175.147,115.107 C 176.224,117.724 176.07,120.34 175.609,122.956 C 175.609,123.418 174.531,123.88 174.377,123.418 C 172.992,119.724 172.092,115.895 171.496,111.925 C 170.673,106.438 169.347,100.227 171.145,95.5599 C 169.417,100.043 164.017,100.082 163.825,100.537 C 163.399,101.542 158.441,101.307 158.441,101.307 C 160.217,103.349 163.825,103.374 164.41,102.004 C 164.434,101.949 164.46,101.896 164.488,101.846 C 165.47,102.979 168.882,101.788 168.882,101.788 S 169.177,111.418 174.322,125.459 C 174.322,125.459 175.058,125.9 176.307,125.238 C 176.307,123.179 176.601,117.74 176.601,117.74 S 183.07,119.578 186.378,118.622 C 186.892,120.827 187.04,124.944 187.04,124.944 S 187.528,125.359 188.499,125.045 C 187.159,122.734 187.477,119.242 189.307,117.108 Z" style="opacity: 0.5" opacity="0.5" transform=""/><path fill="#deb958" stroke="none" d="M 170.09,92.3278 C 171.124,92.0688 171.82,91.2318 172.178,90.1948 C 171.74,90.0298 171.278,89.9628 170.816,90.0268 C 168.865,90.2948 165.623,91.4258 163.847,92.3488 C 165.873,92.8188 168.029,92.8128 170.09,92.3278 Z" transform=""/><path fill="#f4953f" stroke="none" d="M 192.355,103.919 S 192.208,101.126 195.736,101.126 C 199.265,101.126 200.294,103.478 199.191,107.227 C 198.089,110.976 198.235,112.447 199.486,112.079 C 199.486,112.079 199.706,111.639 199.338,111.639 C 199.338,111.639 200,111.491 200,112.226 S 198.603,113.476 197.427,112.153 C 197.353,112.888 198.676,113.255 199.118,113.255 C 198.456,114.064 196.398,114.431 195.515,112.373 C 194.633,110.314 194.707,109.139 194.707,109.139 S 194.339,105.389 193.825,105.243 C 193.825,105.243 192.649,105.317 192.355,103.919 Z" transform=""/><path fill="#2c8fc0" stroke="none" d="M 196.114,108.315 C 196.106,108.11 196.101,107.91 196.101,107.72 C 196.051,107.918 196.067,108.117 196.114,108.315 Z" transform=""/><path fill="#d78334" stroke="none" d="M 196.114,108.315 C 196.067,108.117 196.052,107.918 196.101,107.72 C 196.101,107.91 196.106,108.11 196.114,108.315 M 196.114,108.315 C 196.213,108.732 196.459,109.15 196.563,109.566 C 196.871,107.566 197.486,104.641 194.87,104.18 C 195.331,103.872 195.793,104.026 196.255,104.18 C 195.947,103.256 194.408,103.718 194.254,103.256 C 194.1,102.179 195.793,102.487 196.717,102.487 C 196.265,102.186 195.959,101.59 195.514,101.132 C 192.215,101.248 192.354,103.92 192.354,103.92 C 192.648,105.317 193.824,105.243 193.824,105.243 C 194.339,105.39 194.706,109.14 194.706,109.14 S 194.633,110.315 195.515,112.374 C 196.201,113.973 197.597,114.108 198.495,113.709 C 196.708,112.827 196.195,110.297 196.114,108.315 Z" transform=""/><path fill="#304454" stroke="none" d="M 174.345,125.459 S 174.031,126.862 174.322,127.869 C 174.568,128.093 176.358,128.249 177.008,127.354 C 176.963,126.839 176.592,125.696 176.33,125.238 C 176.33,125.239 175.106,125.802 174.345,125.459 Z" transform=""/><path fill="#304454" stroke="none" d="M 186.989,124.891 S 187.571,125.428 188.667,125.003 C 189.003,125.607 188.913,127.465 188.913,127.465 S 187.302,128.225 186.228,127.375 C 186.228,127.376 186.228,125.608 186.989,124.891 Z" transform=""/><path fill="#f4953f" stroke="none" d="M 171.398,91.3269 S 168.605,92.5759 166.18,92.0619 C 163.753,91.5469 161.328,88.3859 163.533,86.6949 C 163.386,87.5039 163.68,89.2679 166.18,88.9729 C 165.517,88.9729 164.709,87.5769 165.37,86.6949 C 165.592,87.1359 166.18,88.4589 168.164,87.7979 C 170.148,87.1359 174.119,86.0339 176.029,88.9729 C 177.94,91.9149 177.426,97.1349 181.91,96.9859 C 182.498,96.9129 182.425,95.9569 181.69,95.9569 C 183.086,95.8099 185.439,100.736 179.264,101.324 C 177.426,101.986 173.898,100.001 173.824,97.0599 C 173.751,94.1199 174.339,90.8849 171.398,91.3269 L 171.398,91.3269 Z" transform=""/><path fill="#d78334" stroke="none" d="M 183.118,97.3097 C 182.99,97.6327 182.757,97.8997 182.368,98.0757 C 181.136,98.6907 179.443,98.3837 178.057,97.6137 C 178.212,98.2287 178.365,98.6907 179.135,98.6907 C 175.134,99.4587 174.21,94.8427 174.672,91.7647 C 174.827,92.6887 175.595,93.7657 176.673,93.9207 C 175.733,92.6277 176.049,90.7967 176.113,89.1127 C 176.086,89.0667 176.058,89.0197 176.029,88.9737 C 174.771,87.0377 172.618,86.8537 170.73,87.1447 C 169.893,88.8597 169.226,90.7387 166.823,90.0717 C 167.131,90.5327 167.439,90.5327 168.054,90.5327 C 166.969,91.1847 165.654,91.5297 164.433,91.2437 C 164.967,91.6377 165.573,91.9317 166.179,92.0617 C 168.605,92.5757 171.397,91.3267 171.397,91.3267 C 174.339,90.8847 173.75,94.1197 173.824,97.0597 C 173.898,99.9997 177.426,101.985 179.264,101.323 C 183.235,100.945 183.679,98.7737 183.118,97.3097 L 183.118,97.3097 Z" transform=""/><path fill="#f1d285" stroke="none" d="M 171.938,92.6392 S 171.167,90.9532 172.372,89.7962 C 173.577,88.6402 173.577,88.6402 173.577,88.6402 S 174.347,90.4712 173.914,91.8202 C 173.624,92.8312 172.661,93.4102 171.938,92.6392 Z" transform=""/><path fill="#f6a5bf" stroke="none" d="M 170.406,88.173 C 170.407,88.178 170.409,88.183 170.41,88.188 L 170.41,88.188 L 170.41,88.188 C 170.41,88.185 170.408,88.181 170.406,88.173 M 170.406,88.173 L 170.406,88.173 Z" transform=""/><path fill="#ccaa4f" stroke="none" d="M 173.27,89.7197 S 172.011,90.5827 172.227,91.7337 C 172.443,92.8847 173.198,92.1297 173.378,91.7337 S 173.27,89.7197 173.27,89.7197 Z" transform=""/><path fill="#e8c4dd" stroke="none" d="M 179.325,101.486 S 179.316,101.501 179.298,101.53 C 179.317,101.534 179.334,101.538 179.352,101.542 C 179.342,101.524 179.333,101.504 179.325,101.486 L 179.325,101.486 Z" transform=""/><ellipse cx="165.9701221587526" cy="95.70311937066901" rx="0.5469594903004831" ry="0.9086394129991792" fill="#304454" stroke="none" r="NaN" transform=""/><path fill="#deb958" stroke="none" d="M 229.573,123.641 S 230.242,124.043 231.381,123.44 C 231.381,122.111 231.516,119.236 231.594,117.673 C 230.171,117.436 228.798,117.167 227.41,117.022 C 227.999,119.073 228.711,121.289 229.573,123.641 Z" transform=""/><path fill="#deb958" stroke="none" d="M 240.909,118.684 C 241.68,120.791 242.353,123.519 242.353,123.519 S 242.946,123.846 243.879,123.276 C 244.352,121.373 244.838,117.305 245.651,113.607 C 243.865,115.154 242.187,116.789 240.909,118.684 Z" transform=""/><path fill="#ccaa4f" stroke="none" d="M 229.956,118.955 C 230.172,118.522 230.843,118.546 231.544,118.705 C 231.562,118.326 231.579,117.975 231.595,117.673 C 230.172,117.437 228.798,117.168 227.411,117.022 C 228,119.073 228.712,121.289 229.574,123.641 C 229.574,123.641 230.243,124.043 231.382,123.44 C 231.382,123.284 231.384,123.105 231.387,122.91 C 229.346,123.07 229.389,120.231 229.956,118.955 Z" transform=""/><path fill="#ccaa4f" stroke="none" d="M 243.654,122.341 C 243.095,120.215 244,118.332 245.068,116.575 C 245.243,115.591 245.436,114.586 245.651,113.607 C 243.864,115.154 242.187,116.789 240.909,118.685 C 241.68,120.792 242.352,123.52 242.352,123.52 S 242.946,123.846 243.878,123.276 C 243.924,123.093 243.97,122.889 244.016,122.667 C 243.807,122.609 243.654,122.494 243.654,122.341 Z" transform=""/><path fill="#304454" stroke="none" d="M 229.573,123.641 S 229.287,124.92 229.552,125.837 C 229.776,126.04 231.407,126.183 231.998,125.367 C 231.957,124.899 231.62,123.857 231.381,123.44 C 231.381,123.44 230.267,123.953 229.573,123.641 Z" transform=""/><path fill="#304454" stroke="none" d="M 242.27,123.484 S 242.949,123.891 243.936,123.25 C 244.388,123.773 244.68,125.61 244.68,125.61 S 243.258,126.684 242.033,126.071 C 242.033,126.071 241.671,124.341 242.27,123.484 Z" transform=""/><path fill="#f1d285" stroke="none" d="M 213.87,96.0849 S 208.666,99.1429 211.243,101.451 C 213.817,103.756 216.843,103.034 217.064,102.004 C 218.756,102.886 221.536,101.788 221.536,101.788 S 221.83,111.417 226.976,125.458 C 226.976,125.458 227.712,125.9 228.961,125.237 C 228.961,123.179 229.255,117.741 229.255,117.741 S 235.724,119.578 239.032,118.623 C 239.547,120.828 239.694,124.944 239.694,124.944 S 240.208,125.385 241.237,125.017 C 242.266,122.885 243.956,117.666 245.942,113.844 C 247.926,110.021 248.589,101.788 242.266,102.082 C 235.944,102.376 230.652,101.862 228.887,100.171 C 227.123,98.4809 227.269,96.0539 227.49,94.1429 C 227.711,92.2309 225.579,89.7319 223.447,90.0259 S 217.547,91.4999 216.022,92.5979 C 214.573,93.6439 213.87,96.0849 213.87,96.0849 Z" transform=""/><path fill="#deb958" stroke="none" d="M 241.939,117.108 C 237.937,118.031 233.935,117.262 229.934,116.492 C 229.318,116.338 228.241,116.03 227.779,115.107 C 228.856,117.724 228.702,120.34 228.241,122.956 C 228.241,123.418 227.163,123.88 227.009,123.418 C 225.624,119.724 224.724,115.895 224.128,111.925 C 223.305,106.438 221.979,100.227 223.777,95.5599 C 222.049,100.043 216.649,100.082 216.457,100.537 C 216.031,101.542 211.073,101.307 211.073,101.307 C 212.849,103.349 216.457,103.374 217.042,102.004 C 217.066,101.949 217.092,101.896 217.12,101.846 C 218.102,102.979 221.514,101.788 221.514,101.788 S 221.809,111.418 226.954,125.459 C 226.954,125.459 227.69,125.9 228.939,125.238 C 228.939,123.179 229.233,117.74 229.233,117.74 S 235.702,119.578 239.01,118.622 C 239.524,120.827 239.672,124.944 239.672,124.944 S 240.16,125.359 241.131,125.045 C 239.791,122.734 240.109,119.242 241.939,117.108 Z" style="opacity: 0.5" opacity="0.5" transform=""/><path fill="#deb958" stroke="none" d="M 222.722,92.3278 C 223.756,92.0688 224.452,91.2318 224.81,90.1948 C 224.372,90.0298 223.91,89.9628 223.448,90.0268 C 221.497,90.2948 218.255,91.4258 216.479,92.3488 C 218.505,92.8188 220.661,92.8128 222.722,92.3278 Z" transform=""/><path fill="#f4953f" stroke="none" d="M 244.987,103.919 S 244.84,101.126 248.368,101.126 C 251.897,101.126 252.926,103.478 251.823,107.227 C 250.721,110.976 250.867,112.447 252.118,112.079 C 252.118,112.079 252.338,111.639 251.97,111.639 C 251.97,111.639 252.632,111.491 252.632,112.226 S 251.235,113.476 250.059,112.153 C 249.985,112.888 251.308,113.255 251.75,113.255 C 251.088,114.064 249.03,114.431 248.147,112.373 C 247.265,110.314 247.339,109.139 247.339,109.139 S 246.971,105.389 246.457,105.243 C 246.457,105.243 245.281,105.317 244.987,103.919 Z" transform=""/><path fill="#2c8fc0" stroke="none" d="M 248.746,108.315 C 248.738,108.11 248.733,107.91 248.733,107.72 C 248.683,107.918 248.699,108.117 248.746,108.315 Z" transform=""/><path fill="#d78334" stroke="none" d="M 248.746,108.315 C 248.699,108.117 248.684,107.918 248.733,107.72 C 248.733,107.91 248.738,108.11 248.746,108.315 M 248.746,108.315 C 248.845,108.732 249.091,109.15 249.195,109.566 C 249.503,107.566 250.118,104.641 247.502,104.18 C 247.963,103.872 248.425,104.026 248.887,104.18 C 248.579,103.256 247.04,103.718 246.886,103.256 C 246.732,102.179 248.425,102.487 249.349,102.487 C 248.897,102.186 248.591,101.59 248.146,101.132 C 244.847,101.248 244.986,103.92 244.986,103.92 C 245.28,105.317 246.456,105.243 246.456,105.243 C 246.971,105.39 247.338,109.14 247.338,109.14 S 247.265,110.315 248.147,112.374 C 248.833,113.973 250.229,114.108 251.127,113.709 C 249.34,112.827 248.827,110.297 248.746,108.315 Z" transform=""/><path fill="#304454" stroke="none" d="M 226.977,125.459 S 226.663,126.862 226.954,127.869 C 227.2,128.093 228.99,128.249 229.64,127.354 C 229.595,126.839 229.224,125.696 228.962,125.238 C 228.962,125.239 227.738,125.802 226.977,125.459 Z" transform=""/><path fill="#304454" stroke="none" d="M 239.621,124.891 S 240.203,125.428 241.299,125.003 C 241.635,125.607 241.545,127.465 241.545,127.465 S 239.934,128.225 238.86,127.375 C 238.86,127.376 238.86,125.608 239.621,124.891 Z" transform=""/><path fill="#f4953f" stroke="none" d="M 224.029,91.3269 S 221.236,92.5759 218.811,92.0619 C 216.384,91.5469 213.959,88.3859 216.164,86.6949 C 216.017,87.5039 216.311,89.2679 218.811,88.9729 C 218.148,88.9729 217.34,87.5769 218.001,86.6949 C 218.223,87.1359 218.811,88.4589 220.795,87.7979 C 222.779,87.1359 226.75,86.0339 228.66,88.9729 C 230.571,91.9149 230.057,97.1349 234.541,96.9859 C 235.129,96.9129 235.056,95.9569 234.321,95.9569 C 235.717,95.8099 238.07,100.736 231.895,101.324 C 230.057,101.986 226.529,100.001 226.455,97.0599 C 226.382,94.1199 226.97,90.8849 224.029,91.3269 L 224.029,91.3269 Z" transform=""/><path fill="#d78334" stroke="none" d="M 235.75,97.3097 C 235.622,97.6327 235.389,97.8997 235,98.0757 C 233.768,98.6907 232.075,98.3837 230.689,97.6137 C 230.844,98.2287 230.997,98.6907 231.767,98.6907 C 227.766,99.4587 226.842,94.8427 227.304,91.7647 C 227.459,92.6887 228.227,93.7657 229.305,93.9207 C 228.365,92.6277 228.681,90.7967 228.745,89.1127 C 228.718,89.0667 228.69,89.0197 228.661,88.9737 C 227.403,87.0377 225.25,86.8537 223.362,87.1447 C 222.525,88.8597 221.858,90.7387 219.455,90.0717 C 219.763,90.5327 220.071,90.5327 220.686,90.5327 C 219.601,91.1847 218.286,91.5297 217.065,91.2437 C 217.599,91.6377 218.205,91.9317 218.811,92.0617 C 221.237,92.5757 224.029,91.3267 224.029,91.3267 C 226.971,90.8847 226.382,94.1197 226.456,97.0597 C 226.53,99.9997 230.058,101.985 231.896,101.323 C 235.867,100.945 236.311,98.7737 235.75,97.3097 L 235.75,97.3097 Z" transform=""/><path fill="#f1d285" stroke="none" d="M 224.57,92.6392 S 223.799,90.9532 225.004,89.7962 C 226.209,88.6402 226.209,88.6402 226.209,88.6402 S 226.979,90.4712 226.546,91.8202 C 226.256,92.8312 225.293,93.4102 224.57,92.6392 Z" transform=""/><path fill="#f6a5bf" stroke="none" d="M 223.038,88.173 C 223.039,88.178 223.041,88.183 223.042,88.188 L 223.042,88.188 L 223.042,88.188 C 223.042,88.185 223.04,88.181 223.038,88.173 M 223.038,88.173 L 223.038,88.173 Z" transform=""/><path fill="#ccaa4f" stroke="none" d="M 225.902,89.7197 S 224.643,90.5827 224.859,91.7337 C 225.075,92.8847 225.83,92.1297 226.01,91.7337 S 225.902,89.7197 225.902,89.7197 Z" transform=""/><path fill="#e8c4dd" stroke="none" d="M 231.957,101.486 S 231.948,101.501 231.93,101.53 C 231.949,101.534 231.966,101.538 231.984,101.542 C 231.974,101.524 231.965,101.504 231.957,101.486 L 231.957,101.486 Z" transform=""/><ellipse cx="218.601701106121" cy="95.70311937066901" rx="0.5469594903004831" ry="0.9086394129991792" fill="#304454" stroke="none" r="NaN" transform=""/><path fill="#deb958" stroke="none" d="M 282.204,123.641 S 282.873,124.043 284.012,123.44 C 284.012,122.111 284.147,119.236 284.225,117.673 C 282.802,117.436 281.429,117.167 280.041,117.022 C 280.63,119.073 281.342,121.289 282.204,123.641 Z" transform=""/><path fill="#deb958" stroke="none" d="M 293.54,118.684 C 294.311,120.791 294.984,123.519 294.984,123.519 S 295.577,123.846 296.51,123.276 C 296.983,121.373 297.469,117.305 298.282,113.607 C 296.496,115.154 294.818,116.789 293.54,118.684 Z" transform=""/><path fill="#ccaa4f" stroke="none" d="M 282.587,118.955 C 282.803,118.522 283.474,118.546 284.175,118.705 C 284.193,118.326 284.21,117.975 284.226,117.673 C 282.803,117.437 281.429,117.168 280.042,117.022 C 280.631,119.073 281.343,121.289 282.205,123.641 C 282.205,123.641 282.874,124.043 284.013,123.44 C 284.013,123.284 284.015,123.105 284.018,122.91 C 281.977,123.07 282.02,120.231 282.587,118.955 Z" transform=""/><path fill="#ccaa4f" stroke="none" d="M 296.286,122.341 C 295.727,120.215 296.632,118.332 297.7,116.575 C 297.875,115.591 298.068,114.586 298.283,113.607 C 296.496,115.154 294.819,116.789 293.541,118.685 C 294.312,120.792 294.984,123.52 294.984,123.52 S 295.578,123.846 296.51,123.276 C 296.556,123.093 296.602,122.889 296.648,122.667 C 296.439,122.609 296.286,122.494 296.286,122.341 Z" transform=""/><path fill="#304454" stroke="none" d="M 282.204,123.641 S 281.918,124.92 282.183,125.837 C 282.407,126.04 284.038,126.183 284.629,125.367 C 284.588,124.899 284.251,123.857 284.012,123.44 C 284.012,123.44 282.898,123.953 282.204,123.641 Z" transform=""/><path fill="#304454" stroke="none" d="M 294.902,123.484 S 295.581,123.891 296.568,123.25 C 297.02,123.773 297.312,125.61 297.312,125.61 S 295.89,126.684 294.665,126.071 C 294.665,126.071 294.303,124.341 294.902,123.484 Z" transform=""/><path fill="#f1d285" stroke="none" d="M 266.501,96.0849 S 261.297,99.1429 263.874,101.451 C 266.448,103.756 269.474,103.034 269.695,102.004 C 271.387,102.886 274.167,101.788 274.167,101.788 S 274.461,111.417 279.607,125.458 C 279.607,125.458 280.343,125.9 281.592,125.237 C 281.592,123.179 281.886,117.741 281.886,117.741 S 288.355,119.578 291.663,118.623 C 292.178,120.828 292.325,124.944 292.325,124.944 S 292.839,125.385 293.868,125.017 C 294.897,122.885 296.587,117.666 298.573,113.844 C 300.557,110.021 301.22,101.788 294.897,102.082 C 288.575,102.376 283.283,101.862 281.518,100.171 C 279.754,98.4809 279.9,96.0539 280.121,94.1429 C 280.342,92.2309 278.21,89.7319 276.078,90.0259 S 270.178,91.4999 268.653,92.5979 C 267.204,93.6439 266.501,96.0849 266.501,96.0849 Z" transform=""/><path fill="#deb958" stroke="none" d="M 294.57,117.108 C 290.568,118.031 286.566,117.262 282.565,116.492 C 281.949,116.338 280.872,116.03 280.41,115.107 C 281.487,117.724 281.333,120.34 280.872,122.956 C 280.872,123.418 279.794,123.88 279.64,123.418 C 278.255,119.724 277.355,115.895 276.759,111.925 C 275.936,106.438 274.61,100.227 276.408,95.5599 C 274.68,100.043 269.28,100.082 269.088,100.537 C 268.662,101.542 263.704,101.307 263.704,101.307 C 265.48,103.349 269.088,103.374 269.673,102.004 C 269.697,101.949 269.723,101.896 269.751,101.846 C 270.733,102.979 274.145,101.788 274.145,101.788 S 274.44,111.418 279.585,125.459 C 279.585,125.459 280.321,125.9 281.57,125.238 C 281.57,123.179 281.864,117.74 281.864,117.74 S 288.333,119.578 291.641,118.622 C 292.155,120.827 292.303,124.944 292.303,124.944 S 292.791,125.359 293.762,125.045 C 292.422,122.734 292.74,119.242 294.57,117.108 Z" style="opacity: 0.5" opacity="0.5" transform=""/><path fill="#deb958" stroke="none" d="M 275.353,92.3278 C 276.387,92.0688 277.083,91.2318 277.441,90.1948 C 277.003,90.0298 276.541,89.9628 276.079,90.0268 C 274.128,90.2948 270.886,91.4258 269.11,92.3488 C 271.136,92.8188 273.292,92.8128 275.353,92.3278 Z" transform=""/><path fill="#f4953f" stroke="none" d="M 297.618,103.919 S 297.471,101.126 300.999,101.126 C 304.528,101.126 305.557,103.478 304.454,107.227 C 303.352,110.976 303.498,112.447 304.749,112.079 C 304.749,112.079 304.969,111.639 304.601,111.639 C 304.601,111.639 305.263,111.491 305.263,112.226 S 303.866,113.476 302.69,112.153 C 302.616,112.888 303.939,113.255 304.381,113.255 C 303.719,114.064 301.661,114.431 300.778,112.373 C 299.896,110.314 299.97,109.139 299.97,109.139 S 299.602,105.389 299.088,105.243 C 299.088,105.243 297.912,105.317 297.618,103.919 Z" transform=""/><path fill="#2c8fc0" stroke="none" d="M 301.378,108.315 C 301.37,108.11 301.365,107.91 301.365,107.72 C 301.315,107.918 301.331,108.117 301.378,108.315 Z" transform=""/><path fill="#d78334" stroke="none" d="M 301.378,108.315 C 301.331,108.117 301.316,107.918 301.365,107.72 C 301.365,107.91 301.37,108.11 301.378,108.315 M 301.378,108.315 C 301.477,108.732 301.723,109.15 301.827,109.566 C 302.135,107.566 302.75,104.641 300.134,104.18 C 300.595,103.872 301.057,104.026 301.519,104.18 C 301.211,103.256 299.672,103.718 299.518,103.256 C 299.364,102.179 301.057,102.487 301.981,102.487 C 301.529,102.186 301.223,101.59 300.778,101.132 C 297.479,101.248 297.618,103.92 297.618,103.92 C 297.912,105.317 299.088,105.243 299.088,105.243 C 299.603,105.39 299.97,109.14 299.97,109.14 S 299.897,110.315 300.779,112.374 C 301.465,113.973 302.861,114.108 303.759,113.709 C 301.972,112.827 301.459,110.297 301.378,108.315 Z" transform=""/><path fill="#304454" stroke="none" d="M 279.608,125.459 S 279.294,126.862 279.585,127.869 C 279.831,128.093 281.621,128.249 282.271,127.354 C 282.226,126.839 281.855,125.696 281.593,125.238 C 281.593,125.239 280.369,125.802 279.608,125.459 Z" transform=""/><path fill="#304454" stroke="none" d="M 292.252,124.891 S 292.834,125.428 293.93,125.003 C 294.266,125.607 294.176,127.465 294.176,127.465 S 292.565,128.225 291.491,127.375 C 291.491,127.376 291.491,125.608 292.252,124.891 Z" transform=""/><path fill="#f4953f" stroke="none" d="M 276.661,91.3269 S 273.868,92.5759 271.443,92.0619 C 269.016,91.5469 266.591,88.3859 268.796,86.6949 C 268.649,87.5039 268.943,89.2679 271.443,88.9729 C 270.78,88.9729 269.972,87.5769 270.633,86.6949 C 270.855,87.1359 271.443,88.4589 273.427,87.7979 C 275.411,87.1359 279.382,86.0339 281.292,88.9729 C 283.203,91.9149 282.689,97.1349 287.173,96.9859 C 287.761,96.9129 287.688,95.9569 286.953,95.9569 C 288.349,95.8099 290.702,100.736 284.527,101.324 C 282.689,101.986 279.161,100.001 279.087,97.0599 C 279.014,94.1199 279.602,90.8849 276.661,91.3269 M 276.661,91.3269 L 276.661,91.3269 Z" transform=""/><path fill="#d78334" stroke="none" d="M 288.381,97.3097 C 288.253,97.6327 288.02,97.8997 287.631,98.0757 C 286.399,98.6907 284.706,98.3837 283.32,97.6137 C 283.475,98.2287 283.628,98.6907 284.398,98.6907 C 280.397,99.4587 279.473,94.8427 279.935,91.7647 C 280.09,92.6887 280.858,93.7657 281.936,93.9207 C 280.996,92.6277 281.312,90.7967 281.376,89.1127 C 281.349,89.0667 281.321,89.0197 281.292,88.9737 C 280.034,87.0377 277.881,86.8537 275.993,87.1447 C 275.156,88.8597 274.489,90.7387 272.086,90.0717 C 272.394,90.5327 272.702,90.5327 273.317,90.5327 C 272.232,91.1847 270.917,91.5297 269.696,91.2437 C 270.23,91.6377 270.836,91.9317 271.442,92.0617 C 273.868,92.5757 276.66,91.3267 276.66,91.3267 C 279.602,90.8847 279.013,94.1197 279.087,97.0597 S 282.689,101.985 284.527,101.323 C 288.498,100.945 288.942,98.7737 288.381,97.3097 L 288.381,97.3097 Z" transform=""/><path fill="#f1d285" stroke="none" d="M 277.201,92.6392 S 276.43,90.9532 277.635,89.7962 C 278.84,88.6402 278.84,88.6402 278.84,88.6402 S 279.61,90.4712 279.177,91.8202 C 278.887,92.8312 277.924,93.4102 277.201,92.6392 Z" transform=""/><path fill="#f6a5bf" stroke="none" d="M 275.669,88.173 C 275.67,88.178 275.672,88.183 275.673,88.188 L 275.673,88.188 L 275.673,88.188 C 275.673,88.185 275.671,88.181 275.669,88.173 M 275.669,88.173 L 275.669,88.173 Z" transform=""/><path fill="#ccaa4f" stroke="none" d="M 278.533,89.7197 S 277.274,90.5827 277.49,91.7337 S 278.461,92.1297 278.641,91.7337 S 278.533,89.7197 278.533,89.7197 Z" transform=""/><path fill="#e8c4dd" stroke="none" d="M 284.588,101.486 S 284.579,101.501 284.561,101.53 C 284.58,101.534 284.597,101.538 284.615,101.542 C 284.605,101.524 284.596,101.504 284.588,101.486 M 284.588,101.486 L 284.588,101.486 Z" transform=""/><ellipse cx="271.23328005348935" cy="95.70311937066901" rx="0.5469594903004831" ry="0.9086394129991792" fill="#304454" stroke="none" r="NaN" transform=""/><path fill="#deb958" stroke="none" d="M 334.836,123.641 S 335.505,124.043 336.644,123.44 C 336.644,122.111 336.779,119.236 336.857,117.673 C 335.434,117.436 334.061,117.167 332.673,117.022 C 333.262,119.073 333.974,121.289 334.836,123.641 Z" transform=""/><path fill="#deb958" stroke="none" d="M 346.172,118.684 C 346.943,120.791 347.616,123.519 347.616,123.519 S 348.209,123.846 349.142,123.276 C 349.615,121.373 350.101,117.305 350.914,113.607 C 349.128,115.154 347.45,116.789 346.172,118.684 Z" transform=""/><path fill="#ccaa4f" stroke="none" d="M 335.219,118.955 C 335.435,118.522 336.106,118.546 336.807,118.705 C 336.825,118.326 336.842,117.975 336.858,117.673 C 335.435,117.437 334.061,117.168 332.674,117.022 C 333.263,119.073 333.975,121.289 334.837,123.641 C 334.837,123.641 335.506,124.043 336.645,123.44 C 336.645,123.284 336.647,123.105 336.65,122.91 C 334.609,123.07 334.652,120.231 335.219,118.955 Z" transform=""/><path fill="#ccaa4f" stroke="none" d="M 348.917,122.341 C 348.358,120.215 349.263,118.332 350.331,116.575 C 350.506,115.591 350.699,114.586 350.914,113.607 C 349.127,115.154 347.45,116.789 346.172,118.685 C 346.943,120.792 347.615,123.52 347.615,123.52 S 348.209,123.846 349.141,123.276 C 349.187,123.093 349.233,122.889 349.279,122.667 C 349.07,122.609 348.917,122.494 348.917,122.341 Z" transform=""/><path fill="#304454" stroke="none" d="M 334.836,123.641 S 334.55,124.92 334.815,125.837 C 335.039,126.04 336.67,126.183 337.261,125.367 C 337.22,124.899 336.883,123.857 336.644,123.44 C 336.644,123.44 335.53,123.953 334.836,123.641 Z" transform=""/><path fill="#304454" stroke="none" d="M 347.533,123.484 S 348.212,123.891 349.199,123.25 C 349.651,123.773 349.943,125.61 349.943,125.61 S 348.521,126.684 347.296,126.071 C 347.296,126.071 346.934,124.341 347.533,123.484 Z" transform=""/><path fill="#f1d285" stroke="none" d="M 319.133,96.0849 S 313.929,99.1429 316.506,101.451 C 319.08,103.756 322.106,103.034 322.327,102.004 C 324.019,102.886 326.799,101.788 326.799,101.788 S 327.093,111.417 332.239,125.458 C 332.239,125.458 332.975,125.9 334.224,125.237 C 334.224,123.179 334.518,117.741 334.518,117.741 S 340.987,119.578 344.295,118.623 C 344.81,120.828 344.957,124.944 344.957,124.944 S 345.471,125.385 346.5,125.017 C 347.529,122.885 349.219,117.666 351.205,113.844 C 353.189,110.021 353.852,101.788 347.529,102.082 C 341.207,102.376 335.915,101.862 334.15,100.171 C 332.386,98.4809 332.532,96.0539 332.753,94.1429 C 332.974,92.2309 330.842,89.7319 328.71,90.0259 S 322.81,91.4999 321.285,92.5979 C 319.836,93.6439 319.133,96.0849 319.133,96.0849 Z" transform=""/><path fill="#deb958" stroke="none" d="M 347.202,117.108 C 343.2,118.031 339.198,117.262 335.197,116.492 C 334.581,116.338 333.504,116.03 333.042,115.107 C 334.119,117.724 333.965,120.34 333.504,122.956 C 333.504,123.418 332.426,123.88 332.272,123.418 C 330.887,119.724 329.987,115.895 329.391,111.925 C 328.568,106.438 327.242,100.227 329.04,95.5599 C 327.312,100.043 321.912,100.082 321.72,100.537 C 321.294,101.542 316.336,101.307 316.336,101.307 C 318.112,103.349 321.72,103.374 322.305,102.004 C 322.329,101.949 322.355,101.896 322.383,101.846 C 323.365,102.979 326.777,101.788 326.777,101.788 S 327.072,111.418 332.217,125.459 C 332.217,125.459 332.953,125.9 334.202,125.238 C 334.202,123.179 334.496,117.74 334.496,117.74 S 340.965,119.578 344.273,118.622 C 344.787,120.827 344.935,124.944 344.935,124.944 S 345.423,125.359 346.394,125.045 C 345.054,122.734 345.372,119.242 347.202,117.108 Z" style="opacity: 0.5" opacity="0.5" transform=""/><path fill="#deb958" stroke="none" d="M 327.985,92.3278 C 329.019,92.0688 329.715,91.2318 330.073,90.1948 C 329.635,90.0298 329.173,89.9628 328.711,90.0268 C 326.76,90.2948 323.518,91.4258 321.742,92.3488 C 323.768,92.8188 325.924,92.8128 327.985,92.3278 Z" transform=""/><path fill="#f4953f" stroke="none" d="M 350.25,103.919 S 350.103,101.126 353.631,101.126 C 357.16,101.126 358.189,103.478 357.086,107.227 C 355.984,110.976 356.13,112.447 357.381,112.079 C 357.381,112.079 357.601,111.639 357.233,111.639 C 357.233,111.639 357.895,111.491 357.895,112.226 S 356.498,113.476 355.322,112.153 C 355.248,112.888 356.571,113.255 357.013,113.255 C 356.351,114.064 354.293,114.431 353.41,112.373 C 352.528,110.314 352.602,109.139 352.602,109.139 S 352.234,105.389 351.72,105.243 C 351.72,105.243 350.544,105.317 350.25,103.919 Z" transform=""/><path fill="#2c8fc0" stroke="none" d="M 354.009,108.315 C 354.001,108.11 353.996,107.91 353.996,107.72 C 353.946,107.918 353.962,108.117 354.009,108.315 Z" transform=""/><path fill="#d78334" stroke="none" d="M 354.009,108.315 C 353.962,108.117 353.947,107.918 353.996,107.72 C 353.996,107.91 354.001,108.11 354.009,108.315 M 354.009,108.315 C 354.108,108.732 354.354,109.15 354.458,109.566 C 354.766,107.566 355.381,104.641 352.765,104.18 C 353.226,103.872 353.688,104.026 354.15,104.18 C 353.842,103.256 352.303,103.718 352.149,103.256 C 351.995,102.179 353.688,102.487 354.612,102.487 C 354.16,102.186 353.854,101.59 353.409,101.132 C 350.11,101.248 350.249,103.92 350.249,103.92 C 350.543,105.317 351.719,105.243 351.719,105.243 C 352.234,105.39 352.601,109.14 352.601,109.14 S 352.528,110.315 353.41,112.374 C 354.096,113.973 355.492,114.108 356.39,113.709 C 354.603,112.827 354.09,110.297 354.009,108.315 Z" transform=""/><path fill="#304454" stroke="none" d="M 332.24,125.459 S 331.926,126.862 332.217,127.869 C 332.463,128.093 334.253,128.249 334.903,127.354 C 334.858,126.839 334.487,125.696 334.225,125.238 C 334.225,125.239 333.001,125.802 332.24,125.459 Z" transform=""/><path fill="#304454" stroke="none" d="M 344.884,124.891 S 345.466,125.428 346.562,125.003 C 346.898,125.607 346.808,127.465 346.808,127.465 S 345.197,128.225 344.123,127.375 C 344.123,127.376 344.123,125.608 344.884,124.891 Z" transform=""/><path fill="#f4953f" stroke="none" d="M 329.292,91.3269 S 326.499,92.5759 324.074,92.0619 C 321.647,91.5469 319.222,88.3859 321.427,86.6949 C 321.28,87.5039 321.574,89.2679 324.074,88.9729 C 323.411,88.9729 322.603,87.5769 323.264,86.6949 C 323.486,87.1359 324.074,88.4589 326.058,87.7979 C 328.042,87.1359 332.013,86.0339 333.923,88.9729 C 335.834,91.9149 335.32,97.1349 339.804,96.9859 C 340.392,96.9129 340.319,95.9569 339.584,95.9569 C 340.98,95.8099 343.333,100.736 337.158,101.324 C 335.32,101.986 331.792,100.001 331.718,97.0599 C 331.645,94.1199 332.233,90.8849 329.292,91.3269 M 329.292,91.3269 L 329.292,91.3269 Z" transform=""/><path fill="#d78334" stroke="none" d="M 341.013,97.3097 C 340.885,97.6327 340.652,97.8997 340.263,98.0757 C 339.031,98.6907 337.338,98.3837 335.952,97.6137 C 336.107,98.2287 336.26,98.6907 337.03,98.6907 C 333.029,99.4587 332.105,94.8427 332.567,91.7647 C 332.722,92.6887 333.49,93.7657 334.568,93.9207 C 333.628,92.6277 333.944,90.7967 334.008,89.1127 C 333.981,89.0667 333.953,89.0197 333.924,88.9737 C 332.666,87.0377 330.513,86.8537 328.625,87.1447 C 327.788,88.8597 327.121,90.7387 324.718,90.0717 C 325.026,90.5327 325.334,90.5327 325.949,90.5327 C 324.864,91.1847 323.549,91.5297 322.328,91.2437 C 322.862,91.6377 323.468,91.9317 324.074,92.0617 C 326.5,92.5757 329.292,91.3267 329.292,91.3267 C 332.234,90.8847 331.645,94.1197 331.719,97.0597 S 335.321,101.985 337.159,101.323 C 341.13,100.945 341.574,98.7737 341.013,97.3097 L 341.013,97.3097 Z" transform=""/><path fill="#f1d285" stroke="none" d="M 329.833,92.6392 S 329.062,90.9532 330.267,89.7962 C 331.472,88.6402 331.472,88.6402 331.472,88.6402 S 332.242,90.4712 331.809,91.8202 C 331.519,92.8312 330.556,93.4102 329.833,92.6392 Z" transform=""/><path fill="#f6a5bf" stroke="none" d="M 328.301,88.173 C 328.302,88.178 328.304,88.183 328.305,88.188 L 328.305,88.188 L 328.305,88.188 C 328.305,88.185 328.303,88.181 328.301,88.173 M 328.301,88.173 L 328.301,88.173 Z" transform=""/><path fill="#ccaa4f" stroke="none" d="M 331.165,89.7197 S 329.906,90.5827 330.122,91.7337 S 331.093,92.1297 331.273,91.7337 S 331.165,89.7197 331.165,89.7197 Z" transform=""/><path fill="#e8c4dd" stroke="none" d="M 337.22,101.486 S 337.211,101.501 337.193,101.53 C 337.212,101.534 337.229,101.538 337.247,101.542 C 337.237,101.524 337.228,101.504 337.22,101.486 M 337.22,101.486 L 337.22,101.486 Z" transform=""/><ellipse cx="323.8648590008578" cy="95.70311937066901" rx="0.5469594903004831" ry="0.9086394129991792" fill="#304454" stroke="none" r="NaN" transform=""/><path fill="#a52a2a" stroke="#a52a2a" d="M 0,162.105 L 0,160 L 336.842,160 L 336.842,162.105 Z" style="stroke-width: 2px;fill-opacity: 1;stroke-opacity: 1" stroke-width="2" fill-opacity="1" stroke-opacity="1" stroke-dasharray="0"/><path fill="#a52a2a" stroke="#a52a2a" d="M 0,153.684 L 0,151.579 L 336.842,151.579 L 336.842,153.684 Z" style="stroke-width: 2px;fill-opacity: 1;stroke-opacity: 1" stroke-width="2" fill-opacity="1" stroke-opacity="1" stroke-dasharray="0"/><path fill="#a52a2a" stroke="#a52a2a" d="M 0,170.526 L 0,149.474 L 2.10526,149.474 L 2.10526,170.526 Z" style="stroke-width: 2px;fill-opacity: 1;stroke-opacity: 1" stroke-width="2" fill-opacity="1" stroke-opacity="1" stroke-dasharray="0"/><path fill="#a52a2a" stroke="#a52a2a" d="M 21.0526,170.526 L 21.0526,149.474 L 23.1579,149.474 L 23.1579,170.526 Z" style="stroke-width: 2px;fill-opacity: 1;stroke-opacity: 1" stroke-width="2" fill-opacity="1" stroke-opacity="1" stroke-dasharray="0"/><path fill="#a52a2a" stroke="#a52a2a" d="M 42.1053,170.526 L 42.1053,149.474 L 44.2105,149.474 L 44.2105,170.526 Z" style="stroke-width: 2px;fill-opacity: 1;stroke-opacity: 1" stroke-width="2" fill-opacity="1" stroke-opacity="1" stroke-dasharray="0"/><path fill="#a52a2a" stroke="#a52a2a" d="M 63.1579,170.526 L 63.1579,149.474 L 65.2632,149.474 L 65.2632,170.526 Z" style="stroke-width: 2px;fill-opacity: 1;stroke-opacity: 1" stroke-width="2" fill-opacity="1" stroke-opacity="1" stroke-dasharray="0"/><path fill="#a52a2a" stroke="#a52a2a" d="M 84.2105,170.526 L 84.2105,149.474 L 86.3158,149.474 L 86.3158,170.526 Z" style="stroke-width: 2px;fill-opacity: 1;stroke-opacity: 1" stroke-width="2" fill-opacity="1" stroke-opacity="1" stroke-dasharray="0"/><path fill="#a52a2a" stroke="#a52a2a" d="M 105.263,170.526 L 105.263,149.474 L 107.368,149.474 L 107.368,170.526 Z" style="stroke-width: 2px;fill-opacity: 1;stroke-opacity: 1" stroke-width="2" fill-opacity="1" stroke-opacity="1" stroke-dasharray="0"/><path fill="#a52a2a" stroke="#a52a2a" d="M 126.316,170.526 L 126.316,149.474 L 128.421,149.474 L 128.421,170.526 Z" style="stroke-width: 2px;fill-opacity: 1;stroke-opacity: 1" stroke-width="2" fill-opacity="1" stroke-opacity="1" stroke-dasharray="0"/><path fill="#a52a2a" stroke="#a52a2a" d="M 147.368,170.526 L 147.368,149.474 L 149.474,149.474 L 149.474,170.526 Z" style="stroke-width: 2px;fill-opacity: 1;stroke-opacity: 1" stroke-width="2" fill-opacity="1" stroke-opacity="1" stroke-dasharray="0"/><path fill="#a52a2a" stroke="#a52a2a" d="M 168.421,170.526 L 168.421,149.474 L 170.526,149.474 L 170.526,170.526 Z" style="stroke-width: 2px;fill-opacity: 1;stroke-opacity: 1" stroke-width="2" fill-opacity="1" stroke-opacity="1" stroke-dasharray="0"/><path fill="#a52a2a" stroke="#a52a2a" d="M 189.474,170.526 L 189.474,149.474 L 191.579,149.474 L 191.579,170.526 Z" style="stroke-width: 2px;fill-opacity: 1;stroke-opacity: 1" stroke-width="2" fill-opacity="1" stroke-opacity="1" stroke-dasharray="0"/><path fill="#a52a2a" stroke="#a52a2a" d="M 210.526,170.526 L 210.526,149.474 L 212.632,149.474 L 212.632,170.526 Z" style="stroke-width: 2px;fill-opacity: 1;stroke-opacity: 1" stroke-width="2" fill-opacity="1" stroke-opacity="1" stroke-dasharray="0"/><path fill="#a52a2a" stroke="#a52a2a" d="M 231.579,170.526 L 231.579,149.474 L 233.684,149.474 L 233.684,170.526 Z" style="stroke-width: 2px;fill-opacity: 1;stroke-opacity: 1" stroke-width="2" fill-opacity="1" stroke-opacity="1" stroke-dasharray="0"/><path fill="#a52a2a" stroke="#a52a2a" d="M 252.632,170.526 L 252.632,149.474 L 254.737,149.474 L 254.737,170.526 Z" style="stroke-width: 2px;fill-opacity: 1;stroke-opacity: 1" stroke-width="2" fill-opacity="1" stroke-opacity="1" stroke-dasharray="0"/><path fill="#a52a2a" stroke="#a52a2a" d="M 273.684,170.526 L 273.684,149.474 L 275.789,149.474 L 275.789,170.526 Z" style="stroke-width: 2px;fill-opacity: 1;stroke-opacity: 1" stroke-width="2" fill-opacity="1" stroke-opacity="1" stroke-dasharray="0"/><path fill="#a52a2a" stroke="#a52a2a" d="M 294.737,170.526 L 294.737,149.474 L 296.842,149.474 L 296.842,170.526 Z" style="stroke-width: 2px;fill-opacity: 1;stroke-opacity: 1" stroke-width="2" fill-opacity="1" stroke-opacity="1" stroke-dasharray="0"/><path fill="#a52a2a" stroke="#a52a2a" d="M 315.789,170.526 L 315.789,149.474 L 317.895,149.474 L 317.895,170.526 Z" style="stroke-width: 2px;fill-opacity: 1;stroke-opacity: 1" stroke-width="2" fill-opacity="1" stroke-opacity="1" stroke-dasharray="0"/><path fill="#a52a2a" stroke="#a52a2a" d="M 336.842,170.526 L 336.842,149.474 L 338.947,149.474 L 338.947,170.526 Z" style="stroke-width: 2px;fill-opacity: 1;stroke-opacity: 1" stroke-width="2" fill-opacity="1" stroke-opacity="1" stroke-dasharray="0"/></svg>