<svg xmlns="http://www.w3.org/2000/svg" version="1.1" width="250" height="151.51515151515153" viewBox="0 0 250 151.51515151515153"><defs><radialGradient id="r-c083dcbf0a3e4f8db4ace20c9231ddfc" fx="0.5" fy="0.5"><stop offset="0%" stop-color="#b77049"/><stop offset="16.82%" stop-color="#af6743"/><stop offset="44.79%" stop-color="#9b5231"/><stop offset="80.23%" stop-color="#7c3216"/><stop offset="100%" stop-color="#681d00"/></radialGradient></defs><path fill="#688da7" stroke="none" d="M 29.2821,43.3486 C 49.9041,49.1976 49.1611,64.4956 49.2661,78.5356 C 49.4361,101.42 59.5861,102.528 59.5861,102.528 L 68.5941,102.962 S 72.5811,105.923 56.2691,112.186 C 41.5831,117.82 34.9841,99.9706 33.5501,90.3156 C 32.8671,85.7066 32.0321,76.2216 21.2731,75.0266 C 12.2501,74.0276 7.46513,69.5296 6.05213,63.1576 C 3.71713,52.6356 10.7441,38.0896 29.2821,43.3486 Z" transform=""/><path fill="#304454" stroke="none" d="M 68.498,104.39 C 67.492,103.942 66.355,103.409 65.112,102.79 L 59.584,102.527 S 49.435,101.42 49.265,78.5351 C 49.16,64.4961 49.904,49.1971 29.281,43.3491 C 23.915,41.8271 19.516,41.9691 16.029,43.1921 C 17.563,44.3391 19.644,44.3581 22.448,44.7141 C 41.41,47.1041 46.631,58.1291 46.021,71.8701 C 45.337,87.2421 48.377,107.955 59.517,109.281 C 60.788,109.432 62.942,108.002 63.963,108.086 C 66.825,106.454 68.03,105.229 68.498,104.39 Z" transform=""/><path fill="#304454" stroke="none" d="M 62.0057,108.664 C 61.0007,108.211 59.8667,107.674 58.6257,107.064 L 53.8787,106.035 S 42.9997,105.688 42.7777,82.8045 C 42.6067,65.0375 44.7827,53.9785 24.1577,48.1295 C 18.7917,46.6075 13.3957,46.5925 12.7137,47.2755 C 12.0337,48.4705 12.9937,49.9095 15.7857,50.3535 C 38.5077,53.9335 40.3847,63.1585 38.8487,79.3895 C 37.3977,94.7075 42.7447,111.714 53.8797,113.036 C 55.1547,113.187 56.4507,112.275 57.4777,112.353 C 60.3347,110.722 61.5387,109.503 62.0057,108.664 Z" transform=""/><path fill="#304454" stroke="none" d="M 100.813,101.713 S 97.9858,105.942 90.6568,104.415 C 83.3298,102.899 83.8828,97.9165 83.8828,97.9165 L 94.5268,95.4275 L 100.813,101.713 Z" transform=""/><path fill="#304454" stroke="none" d="M 82.3919,104.942 C 86.1069,101.815 94.7289,101.879 95.8309,111.035 C 96.5639,117.108 90.8969,126.542 90.8969,126.542 L 92.0799,127.435 L 83.5479,127.25 S 73.7759,112.197 82.3919,104.942 Z" transform=""/><path fill="#304454" stroke="none" d="M 90.4167,126.098 S 93.1877,127.401 91.9757,128.714 C 90.8897,129.894 87.9777,127.875 88.3397,126.635 L 88.9447,125.8 L 90.4167,126.098 Z" transform=""/><path fill="#304454" stroke="none" d="M 89.1352,126.123 S 92.1652,127.708 90.5812,129.132 C 89.3942,130.201 86.5912,128.289 86.9502,127.054 L 87.5512,126.215 L 89.1352,126.123 Z" transform=""/><path fill="#304454" stroke="none" d="M 87.5381,126.098 S 90.6621,127.362 88.9841,129.103 C 87.8741,130.259 84.9941,128.264 85.3511,127.025 L 85.9571,126.186 L 87.5381,126.098 Z" transform=""/><path fill="#304454" stroke="none" d="M 85.5579,126.059 S 88.4779,127.489 87.0069,129.064 C 85.7599,130.401 82.0179,128.069 83.1229,126.333 L 83.9719,126.152 L 85.5579,126.059 Z" transform=""/><path fill="#688da7" stroke="none" d="M 81.8281,32.6544 S 65.9391,14.9024 59.1301,19.7914 C 51.1741,25.4984 59.9541,49.2354 59.9541,49.2354 L 81.8281,32.6544 Z" transform=""/><path fill="#4d677a" stroke="none" d="M 79.7211,33.0995 S 65.0271,17.0165 59.6211,21.2745 C 55.1381,24.8075 59.4331,42.0225 59.4331,42.0225 L 79.7211,33.0995 Z" transform=""/><path fill="#688da7" stroke="none" d="M 88.7939,32.6544 S 104.68,14.9024 111.492,19.7914 C 119.447,25.4984 110.665,49.2354 110.665,49.2354 L 88.7939,32.6544 Z" transform=""/><path fill="#4d677a" stroke="none" d="M 90.9023,33.0995 S 105.596,17.0165 111.005,21.2745 C 115.486,24.8075 111.19,42.0225 111.19,42.0225 L 90.9023,33.0995 Z" transform=""/><path fill="#688da7" stroke="none" d="M 70.0371,61.2462 S 73.6101,82.4472 57.2471,94.6392 C 43.9331,104.556 43.5511,118.185 56.4981,124.908 C 71.6751,132.787 90.0601,130.026 92.7261,111.961 C 95.0071,96.4792 81.6281,74.0962 81.6281,74.0962 L 70.0371,61.2462 Z" transform=""/><path fill="#304454" stroke="none" d="M 74.8595,128.967 C 71.9255,128.508 69.4265,127.494 69.5115,125.348 C 69.6565,121.522 71.9285,116.445 71.4485,112.634 C 70.1945,102.594 60.9185,102.975 56.8565,106.433 C 51.4345,111.044 52.7195,118.458 54.7835,123.918 C 55.3295,124.265 55.8945,124.596 56.4975,124.908 C 62.5105,128.029 69.0145,129.469 74.8595,128.967 Z" transform=""/><path fill="#4d677a" stroke="none" d="M 87.9387,86.9944 C 86.7197,87.5254 85.8287,88.7844 86.2427,90.1064 C 85.1817,90.4774 83.8207,90.9064 83.7167,92.8824 C 83.6087,94.8584 85.7507,96.4284 87.7917,95.6684 C 88.8897,98.1954 89.9077,101.654 92.6707,103.629 C 91.9347,97.9314 89.9947,92.0234 87.9387,86.9944 Z" transform=""/><path fill="#4d677a" stroke="none" d="M 77.6451,90.5461 C 77.6451,93.7851 80.2771,96.4191 83.5211,96.4191 C 86.7681,96.4191 89.3971,93.7851 89.3971,90.5461 C 89.3971,87.2981 86.7681,84.6731 83.5211,84.6731 C 80.2771,84.6731 77.6451,87.2961 77.6451,90.5461 Z" transform=""/><path fill="#4d677a" stroke="none" d="M 71.8326,99.5367 C 74.2716,98.9567 76.2056,97.0247 78.9076,94.9947 C 80.6456,97.6837 84.7026,94.9797 82.5866,92.1907 C 84.9876,90.7907 83.8916,86.9027 81.4216,86.9067 C 81.3856,85.7807 81.3736,84.3507 79.5246,83.6677 C 77.6676,82.9797 77.9406,84.5997 78.0636,86.7707 C 74.4076,87.1707 66.7756,86.8537 64.2326,91.8677 C 62.4026,95.4827 65.3616,101.083 71.8326,99.5367 Z" transform=""/><path fill="#4d677a" stroke="none" d="M 57.2467,94.6387 C 51.7267,98.7507 48.4367,103.497 47.3957,108.127 C 49.9967,102.619 55.0737,98.8767 59.5317,96.0447 C 68.2177,90.5367 85.1897,84.9157 85.1897,84.9157 L 69.0777,76.6427 C 67.5077,82.7307 64.1617,89.4917 57.2467,94.6387 Z" transform=""/><path fill="#688da7" stroke="none" d="M 56.181,44.5573 C 50.598,60.4853 58.988,77.9253 74.916,83.5063 C 90.847,89.0863 108.282,80.7003 113.868,64.7683 C 119.443,48.8403 111.058,31.4003 95.127,25.8193 C 79.199,20.2403 61.761,28.6303 56.181,44.5573 Z" transform=""/><path fill="#304454" stroke="none" d="M 84.994,54.8172 S 82.496,38.9972 82.125,24.2402 C 84.096,24.0552 86.096,24.0552 88.106,24.2602 C 88.026,33.5132 86.958,40.7772 84.994,54.8172 Z" transform=""/><path fill="#304454" stroke="none" d="M 77.8542,24.9615 C 78.1862,33.8065 78.3372,40.4065 78.3252,54.1725 C 78.3252,54.1725 74.2422,39.6785 72.8362,26.6435 C 74.4552,25.9385 76.1332,25.3765 77.8542,24.9615 Z" transform=""/><path fill="#304454" stroke="none" d="M 95.1258,25.8207 C 95.6788,26.0167 96.2268,26.2307 96.7648,26.4547 C 96.6108,33.5617 94.9248,41.9917 90.9848,53.8907 C 90.9848,53.8907 91.8168,37.0657 91.5848,24.8197 C 92.7728,25.0887 93.9538,25.4107 95.1258,25.8207 Z" transform=""/><ellipse cx="88.24760966909929" cy="78.59600391258832" rx="3.4640348227378173" ry="3.4640348227378173" fill="#4d677a" stroke="none" r="3.4640348227378173" transform=""/><path fill="none" stroke="#000000" d="M 101.702,78.047 S 106.564,78.267 109.012,79.632" style="stroke-linecap: round;stroke-linejoin: round;stroke-width: 0.6122762484582147px" stroke-width="0.6122762484582147" stroke-linecap="round" stroke-linejoin="round" transform=""/><path fill="none" stroke="#000000" d="M 102.175,75.7309 S 106.786,74.1689 109.559,74.5549" style="stroke-linecap: round;stroke-linejoin: round;stroke-width: 0.6122762484582147px" stroke-width="0.6122762484582147" stroke-linecap="round" stroke-linejoin="round" transform=""/><path fill="none" stroke="#000000" d="M 68.0718,78.047 S 63.2098,78.267 60.7618,79.632" style="stroke-linecap: round;stroke-linejoin: round;stroke-width: 0.6122762484582147px" stroke-width="0.6122762484582147" stroke-linecap="round" stroke-linejoin="round" transform=""/><path fill="none" stroke="#000000" d="M 67.5983,75.7309 S 62.9873,74.1689 60.2153,74.5549" style="stroke-linecap: round;stroke-linejoin: round;stroke-width: 0.6122762484582147px" stroke-width="0.6122762484582147" stroke-linecap="round" stroke-linejoin="round" transform=""/><ellipse cx="87.50840017746552" cy="90.60951258513191" rx="0.47751881902226917" ry="0.47751881902226917" fill="url(#r-c083dcbf0a3e4f8db4ace20c9231ddfc)" stroke="none" opacity="1" fill-opacity="1" style="opacity: 1;fill-opacity: 1" r="0.47751881902226917" transform=""/><path fill="#4d677a" stroke="none" d="M 55.9679,105.688 C 60.0269,102.239 69.4859,102.263 70.7469,112.303 C 71.5829,118.967 65.4129,129.343 65.4129,129.343 L 66.7149,130.318 L 57.3509,130.162 C 57.3519,130.163 46.5539,113.698 55.9679,105.688 Z" transform=""/><path fill="#4d677a" stroke="none" d="M 64.8829,128.86 S 67.9279,130.28 66.6059,131.724 C 65.4199,133.025 62.2179,130.821 62.6069,129.466 L 63.2629,128.543 L 64.8829,128.86 Z" transform=""/><path fill="#4d677a" stroke="none" d="M 63.4787,128.899 S 66.8107,130.62 65.0817,132.192 C 63.7837,133.372 60.6927,131.289 61.0857,129.928 L 61.7427,129.007 L 63.4787,128.899 Z" transform=""/><path fill="#4d677a" stroke="none" d="M 61.7278,128.874 S 65.1618,130.245 63.3278,132.167 C 62.1158,133.44 58.9418,131.27 59.3318,129.903 L 59.9878,128.986 L 61.7278,128.874 Z" transform=""/><path fill="#4d677a" stroke="none" d="M 59.552,128.845 S 62.764,130.396 61.155,132.138 C 59.796,133.607 55.677,131.069 56.881,129.153 L 57.815,128.952 L 59.552,128.845 Z" transform=""/><path fill="#688da7" stroke="none" d="M 101.46,93.9414 C 99.4703,91.4934 95.3823,89.9994 93.6253,88.3364 C 95.1893,85.5754 91.4433,83.9124 90.6083,86.7704 C 88.7873,84.4344 86.2353,87.1904 87.4843,88.8044 C 86.3403,88.6484 85.1113,88.8584 85.1933,90.8334 C 85.2473,92.0284 87.5353,92.2914 87.8493,91.9264 C 89.3133,95.3014 90.8553,102.536 96.3963,103.472 C 100.39,104.146 105.082,98.3804 101.46,93.9414 Z" transform=""/><path fill="#688da7" stroke="none" d="M 71.1244,98.9634 C 73.9344,97.5294 76.2494,93.8404 78.2384,92.4694 C 80.6124,94.5674 83.0174,91.2504 80.3924,89.8404 C 83.0664,88.5434 80.8944,85.4794 79.0584,86.3634 C 79.4484,85.2744 79.4984,84.0254 77.5494,83.6994 C 76.3694,83.4984 75.6334,85.6844 75.9284,86.0694 C 72.3224,86.8004 64.9244,86.7964 62.8594,92.0254 C 61.3654,95.7924 66.0254,101.581 71.1244,98.9634 Z" transform=""/><ellipse cx="73.70891652034678" cy="69.0928400634518" rx="1.8736543492144968" ry="3.1133147861677886" fill="#304454" stroke="none" r="NaN" transform=""/><ellipse cx="98.63971332814612" cy="69.0928400634518" rx="1.8736543492144968" ry="3.1133147861677886" fill="#304454" stroke="none" r="NaN" transform=""/><ellipse cx="106.06060606060606" cy="75.75757575757576" rx="3.787878787878788" ry="7.575757575757576" fill="#ffffff" stroke="#fc6255" style="stroke-width: 2px;stroke-opacity: 1;fill-opacity: 0" stroke-width="2" stroke-opacity="1" stroke-dasharray="0" fill-opacity="0"/><path fill="#fc6255" stroke="#fc6255" d="M 93.9394,87.1212 L 105.202,87.1212" style="stroke-width: 2px;stroke-opacity: 1;fill-opacity: 0;opacity: 1" stroke-width="2" stroke-opacity="1" stroke-dasharray="0" fill-opacity="0" opacity="1" transform="rotate(317.7263109939063 93.93939393939395 87.12121212121212)"/><path fill="#fc6255" stroke="#fc6255" d="M 87.8788,92.4242 L 91.0929,92.4242" style="stroke-width: 2px;stroke-opacity: 1;fill-opacity: 0;opacity: 1" stroke-width="2" stroke-opacity="1" stroke-dasharray="0" fill-opacity="0" opacity="1" transform="rotate(134.99999999999983 87.87878787878788 92.42424242424242)"/><ellipse cx="128.78787878787878" cy="75.75757575757576" rx="7.575757575757576" ry="7.575757575757576" fill="#29abca" stroke="#29abca" style="stroke-width: 2px;stroke-opacity: 1;fill-opacity: 0;opacity: 1" stroke-width="2" stroke-opacity="1" stroke-dasharray="0" fill-opacity="0" opacity="1"/><ellipse cx="151.51515151515153" cy="75.75757575757576" rx="7.575757575757576" ry="7.575757575757576" fill="#29abca" stroke="#29abca" style="stroke-width: 2px;stroke-opacity: 1;fill-opacity: 0;opacity: 1" stroke-width="2" stroke-opacity="1" stroke-dasharray="0" fill-opacity="0" opacity="1"/><ellipse cx="174.24242424242425" cy="75.75757575757576" rx="7.575757575757576" ry="7.575757575757576" fill="#29abca" stroke="#29abca" style="stroke-width: 2px;stroke-opacity: 1;fill-opacity: 0;opacity: 1" stroke-width="2" stroke-opacity="1" stroke-dasharray="0" fill-opacity="0" opacity="1"/><ellipse cx="196.96969696969697" cy="75.75757575757576" rx="7.575757575757576" ry="7.575757575757576" fill="#29abca" stroke="#29abca" style="stroke-width: 2px;stroke-opacity: 1;fill-opacity: 0;opacity: 1" stroke-width="2" stroke-opacity="1" stroke-dasharray="0" fill-opacity="0" opacity="1"/><ellipse cx="219.69696969696972" cy="75.75757575757576" rx="7.575757575757576" ry="7.575757575757576" fill="#29abca" stroke="#29abca" style="stroke-width: 2px;stroke-opacity: 1;fill-opacity: 0;opacity: 1" stroke-width="2" stroke-opacity="1" stroke-dasharray="0" fill-opacity="0" opacity="1"/></svg>