<svg xmlns="http://www.w3.org/2000/svg" version="1.1" width="381" height="156" viewBox="0 0 381 156"><defs><linearGradient id="r-6eb086d19d32423f873ec800b3bbe75c" x1="0" y1="0" x2="1" y2="0.809784033195008"><stop offset="0%" stop-color="#f7a996"/><stop offset="100%" stop-color="#f15d4e"/></linearGradient><linearGradient id="r-46978c58e1e3424297c3dceddd237c8e" x1="0" y1="0" x2="1" y2="0.809784033195008"><stop offset="0%" stop-color="#f7a996"/><stop offset="100%" stop-color="#f15d4e"/></linearGradient><linearGradient id="r-fd49db922ba34d18a8b7d3ed13be28c0" x1="0" y1="0" x2="1" y2="0.809784033195008"><stop offset="0%" stop-color="#f7a996"/><stop offset="100%" stop-color="#f15d4e"/></linearGradient><linearGradient id="r-c33a4fc3115442d48ae9ba34a110502d" x1="0" y1="0" x2="1" y2="0.809784033195008"><stop offset="0%" stop-color="#f7a996"/><stop offset="100%" stop-color="#f15d4e"/></linearGradient><linearGradient id="r-463c0cb438ab4d0d82e78212b3975f8d" x1="0" y1="0" x2="1" y2="0.809784033195008"><stop offset="0%" stop-color="#f7a996"/><stop offset="100%" stop-color="#f15d4e"/></linearGradient><linearGradient id="r-10a160728b684d309dad6a6aa6c35731" x1="0" y1="0" x2="1" y2="0.809784033195008"><stop offset="0%" stop-color="#f7a996"/><stop offset="100%" stop-color="#f15d4e"/></linearGradient><linearGradient id="r-0fd753b1103a40a1b3e3242ac21f168a" x1="0" y1="0" x2="1" y2="0.809784033195008"><stop offset="0%" stop-color="#f7a996"/><stop offset="100%" stop-color="#f15d4e"/></linearGradient><linearGradient id="r-4aeafba23cdb47be89b63eaf5e5f728b" x1="0" y1="0" x2="1" y2="0.809784033195008"><stop offset="0%" stop-color="#f7a996"/><stop offset="100%" stop-color="#f15d4e"/></linearGradient><linearGradient id="r-7e40192c82bd472097dca19a40ac3489" x1="0" y1="0" x2="1" y2="0.809784033195008"><stop offset="0%" stop-color="#f7a996"/><stop offset="100%" stop-color="#f15d4e"/></linearGradient></defs><path fill="none" stroke="none" d="M 3,153 L 378,153 L 378,3 L 3,3 Z" style="stroke-width: 2px" stroke-width="2"/><path fill="none" stroke="none" d="M 3,78 L 378,78" style="stroke-width: 2px" stroke-width="2"/><path fill="none" stroke="none" d="M 78,153 L 78,3" style="stroke-width: 2px" stroke-width="2"/><path fill="none" stroke="none" d="M 153,153 L 153,3" style="stroke-width: 2px" stroke-width="2"/><path fill="none" stroke="none" d="M 228,153 L 228,3" style="stroke-width: 2px" stroke-width="2"/><path fill="none" stroke="none" d="M 303,153 L 303,3" style="stroke-width: 2px" stroke-width="2"/><ellipse cx="74.25" cy="59.25" rx="67.5" ry="18.75" fill="#a52a2a" stroke="#a52a2a" style="stroke-width: 2px;stroke-opacity: 1;fill-opacity: 1" stroke-width="2" stroke-opacity="1" stroke-dasharray="0" fill-opacity="1"/><ellipse cx="74.25" cy="134.25" rx="67.5" ry="18.75" fill="#a52a2a" stroke="#a52a2a" style="stroke-width: 2px;stroke-opacity: 1;fill-opacity: 1" stroke-width="2" stroke-opacity="1" stroke-dasharray="0" fill-opacity="1"/><path fill="#d67b72" stroke="none" d="M 59.8973,51.2027 S 61.2813,51.5257 61.3003,51.8497 C 61.3183,52.1717 60.6923,52.9447 60.3093,53.0167 C 59.9253,53.0867 58.6293,52.3607 58.6293,52.3607 L 59.8973,51.2027 Z" transform=""/><path fill="#d67b72" stroke="none" d="M 59.3942,51.8627 S 60.6952,52.1267 60.8202,52.6307 C 60.9062,52.9817 59.0092,54.4067 57.6812,54.0317 C 56.8752,53.8057 56.5432,53.3887 56.5432,53.3887 L 59.3942,51.8627 Z" transform=""/><path fill="#e59585" stroke="none" d="M 52.6307,41.4275 C 53.0807,41.6715 56.6737,44.4575 53.4417,48.9435 C 52.6427,50.0535 57.2537,51.2895 57.2537,51.2895 S 58.4337,50.7645 59.5727,51.1705 C 61.1027,51.7155 56.2937,53.5465 56.2937,53.5465 S 56.5647,54.2025 56.3897,54.2465 C 56.2197,54.2875 55.5997,53.3825 55.5167,53.1835 C 55.1607,52.9555 52.5177,52.3525 51.2057,51.4455 C 49.8747,50.5285 44.6877,47.6855 46.2507,43.8765 C 48.0637,39.4585 51.6597,40.8965 52.6307,41.4275 Z" transform=""/><path fill="#d67b72" stroke="none" d="M 15.2596,51.2734 S 14.1786,51.4984 14.0736,51.2904 C 13.9696,51.0844 13.9386,50.4324 14.1676,50.2754 C 14.4016,50.1174 15.3136,50.1604 15.3136,50.1604 L 15.2596,51.2734 Z" transform=""/><path fill="#d67b72" stroke="none" d="M 15.227,50.7291 S 14.191,50.9141 13.964,50.6161 C 13.805,50.4081 14.468,48.9181 15.454,48.7791 C 16.053,48.6961 16.391,48.8761 16.391,48.8761 L 15.227,50.7291 Z" transform=""/><path fill="#e59585" stroke="none" d="M 29.8867,44.527 C 28.6697,52.057 21.0117,48.964 19.9147,49.889 C 18.0857,51.433 15.2597,51.273 15.2597,51.273 C 14.5807,51.248 16.3057,48.861 16.3057,48.861 L 17.0027,49.075 S 16.3107,48.686 16.4137,48.606 C 16.5947,48.468 16.9797,48.664 17.4627,48.905 C 18.9977,48.633 18.9497,46.771 19.5997,46.615 C 22.1277,46.006 21.7527,44.943 21.7527,44.943 C 18.1847,40.599 24.1447,39.306 24.1447,39.306 S 31.2397,36.161 29.8867,44.527 Z" transform=""/><path fill="#e59585" stroke="none" d="M 22.2125,40.0299 S 21.0065,37.6629 18.9785,37.7259 C 16.9495,37.7869 16.9555,39.6369 18.1085,40.2049 C 19.2385,40.7619 19.8975,38.8649 19.8975,38.8649 S 19.9815,41.0349 18.0755,40.7509 C 16.0525,40.4509 16.0335,37.0139 19.1025,37.0199 C 21.2885,37.0239 22.9095,39.0939 22.9095,39.0939 L 22.2125,40.0299 Z" transform=""/><path fill="#f7a996" stroke="none" d="M 48.1942,41.6123 S 44.5842,42.1963 40.6922,40.0293 C 33.5512,36.0483 28.2962,34.6153 22.6512,38.3383 C 15.0832,43.3263 13.5762,59.0393 29.0922,62.2963 C 51.8372,67.0723 60.9622,43.3583 60.9622,43.3583 L 48.1942,41.6123 Z" transform=""/><path fill="#e59585" stroke="none" d="M 41.527,62.0557 C 40.115,56.1457 42.409,54.2527 42.409,54.2527 L 46.248,60.1877 C 44.794,60.9467 43.221,61.5857 41.527,62.0557 Z" transform=""/><path fill="#e59585" stroke="none" d="M 29.0917,62.2964 C 27.2467,61.8664 25.6557,61.2754 24.2937,60.5584 L 25.5047,58.3414 C 27.1607,60.8454 29.6887,62.1074 31.0717,62.6434 C 30.4327,62.5674 29.7717,62.4554 29.0917,62.2964 Z" transform=""/><path fill="#d67b72" stroke="none" d="M 12.0242,63.5751 S 10.7772,63.8341 10.6522,63.5941 C 10.5322,63.3541 10.4932,62.6031 10.7622,62.4211 C 11.0312,62.2371 12.0852,62.2871 12.0852,62.2871 L 12.0242,63.5751 Z" transform=""/><path fill="#d67b72" stroke="none" d="M 11.9862,62.9455 S 10.7902,63.1585 10.5272,62.8125 C 10.3432,62.5745 11.1102,60.8515 12.2512,60.6925 C 12.9402,60.5955 13.3322,60.8025 13.3322,60.8025 L 11.9862,62.9455 Z" transform=""/><path fill="#f7a996" stroke="none" d="M 29.313,55.6789 C 28.246,64.1649 18.672,60.9039 17.402,61.9759 C 15.289,63.7589 12.024,63.5759 12.024,63.5759 C 11.241,63.5449 13.234,60.7879 13.234,60.7879 L 14.036,61.0359 S 13.238,60.5849 13.357,60.4939 C 13.567,60.3339 14.012,60.5609 14.57,60.8379 C 16.342,60.5249 16.288,58.3719 17.04,58.1919 C 19.963,57.4879 19.528,56.2609 19.528,56.2609 C 15.404,51.2419 18.472,45.6429 18.472,45.6429 S 30.53,45.9649 29.313,55.6789 Z" transform=""/><path fill="#e59585" stroke="none" d="M 49.202,58.3816 C 43.796,55.3176 37.693,48.7756 36.837,38.0636 C 38.064,38.6166 39.346,39.2776 40.692,40.0286 C 44.585,42.1966 48.194,41.6116 48.194,41.6116 L 60.963,43.3586 C 60.963,43.3596 57.407,52.5986 49.202,58.3816 Z" transform=""/><path fill="#d67b72" stroke="none" d="M 56.4585,59.6526 S 57.8725,59.5086 57.9955,59.8076 C 58.1175,60.1056 57.7775,61.0396 57.4395,61.2326 C 57.0995,61.4246 55.6375,61.1606 55.6375,61.1606 L 56.4585,59.6526 Z" transform=""/><path fill="#d67b72" stroke="none" d="M 56.1984,60.4407 S 57.5154,60.2667 57.7974,60.7027 C 57.9924,61.0067 56.6624,62.9707 55.2854,63.0497 C 54.4494,63.0977 54.0004,62.8117 54.0004,62.8117 L 56.1984,60.4407 Z" transform=""/><path fill="#f7a996" stroke="none" d="M 46.7236,52.6997 C 47.2286,52.7837 51.5316,54.2487 49.9366,59.5427 C 49.5436,60.8517 54.3046,60.5197 54.3046,60.5197 S 55.2496,59.6387 56.4596,59.6517 C 58.0826,59.6697 54.1326,62.9657 54.1326,62.9657 S 54.6026,63.4987 54.4506,63.5967 C 54.3036,63.6907 53.4226,63.0367 53.2796,62.8757 C 52.8696,62.7767 50.1736,63.0657 48.6386,62.6357 C 47.0816,62.2017 41.2516,61.2017 41.4896,57.0907 C 41.7646,52.3247 45.6326,52.5137 46.7236,52.6997 Z" transform=""/><path fill="#f7a996" stroke="none" d="M 59.8065,26.2693 S 59.8005,23.8403 61.6955,22.3463 C 62.9385,21.3653 64.7745,20.1063 65.7825,18.6123 C 68.5165,14.5623 71.1915,20.7243 70.3385,26.0833 C 69.7455,29.8043 67.7225,34.2763 64.5045,33.0563 C 61.7825,32.0253 59.8065,26.2693 59.8065,26.2693 Z" transform=""/><path fill="url(#r-6eb086d19d32423f873ec800b3bbe75c)" stroke="none" d="M 60.7778,28.5745 C 60.1618,27.3045 59.8068,26.2695 59.8068,26.2695 S 59.8038,25.2165 60.3428,24.0685 C 62.0578,24.6095 63.8458,26.0465 63.8458,26.0465 L 60.7778,28.5745 Z" opacity="1" fill-opacity="1" style="opacity: 1;fill-opacity: 1" transform=""/><path fill="#e59585" stroke="none" d="M 60.7778,28.5745 C 60.1618,27.3045 59.8068,26.2695 59.8068,26.2695 S 59.8038,25.2165 60.3428,24.0685 C 62.0578,24.6095 63.8458,26.0465 63.8458,26.0465 L 60.7778,28.5745 Z" transform=""/><path fill="#d67b72" stroke="none" d="M 63.2158,30.2182 S 61.8068,27.0432 63.5368,24.7982 C 65.5718,22.1572 66.4718,18.6342 67.7228,18.2522 C 69.2488,17.7882 69.9048,21.1382 70.1188,22.4722 C 70.4408,24.4522 69.8968,28.3372 68.6778,30.4992 C 67.8118,32.0362 66.9878,33.1252 64.6628,32.9292 C 62.3358,32.7332 63.2158,30.2182 63.2158,30.2182 Z" transform=""/><path fill="#f7a996" stroke="none" d="M 47.6507,26.7328 S 47.4687,24.3128 45.4677,22.9658 C 44.1557,22.0818 42.2277,20.9668 41.1087,19.5518 C 38.0747,15.7228 35.8757,22.0708 37.1367,27.3488 C 38.0087,31.0128 40.3667,35.3198 43.4827,33.8598 C 46.1197,32.6228 47.6507,26.7328 47.6507,26.7328 Z" transform=""/><path fill="#e59585" stroke="none" d="M 46.4317,30.2694 C 46.9507,28.9564 47.6507,26.7334 47.6507,26.7334 S 47.5727,25.6834 46.9467,24.5804 C 45.2817,25.2494 43.6057,26.8184 43.6057,26.8184 L 46.4317,30.2694 Z" transform=""/><path fill="#d67b72" stroke="none" d="M 44.5504,30.9302 S 45.7134,27.6572 43.8164,25.5492 C 41.5864,23.0722 40.4234,19.6262 39.1484,19.3402 C 37.5904,18.9942 37.1914,22.3852 37.0774,23.7322 C 36.9114,25.7312 37.7484,29.5632 39.1294,31.6252 C 40.1084,33.0912 41.0134,34.1142 43.3154,33.7432 C 45.6214,33.3702 44.5504,30.9302 44.5504,30.9302 Z" transform=""/><path fill="#f7a996" stroke="none" d="M 61.2335,25.8213 S 57.5335,23.6433 53.8405,23.9073 C 51.2665,24.0913 48.2535,24.5593 45.6915,27.0363 C 42.2055,30.4073 41.3805,35.9703 41.3365,38.8173 C 41.2245,46.3373 46.2465,51.0983 54.0375,50.9173 C 61.7175,50.7373 67.9045,45.7193 67.3895,38.2243 C 67.0975,33.9503 65.7175,28.4403 61.2335,25.8213 Z" transform=""/><path fill="#d67b72" stroke="none" d="M 58.7932,43.4167 S 57.0272,39.4647 54.3082,39.5677 C 52.6662,39.6317 50.8732,41.3547 49.9802,43.9427 C 48.9562,46.9257 52.8442,47.8387 54.6182,47.7027 C 56.2292,47.5757 60.0072,47.0427 58.7932,43.4167 Z" transform=""/><path fill="#ffffff" stroke="none" d="M 52.5422,45.107 C 52.0362,45.126 51.6102,44.731 51.5912,44.226 C 51.5712,43.72 51.9662,43.294 52.4702,43.274 C 52.9782,43.255 53.4042,43.65 53.4222,44.156 C 53.4432,44.661 53.0482,45.088 52.5422,45.107 Z" style="opacity: 0.4" opacity="0.4" transform=""/><ellipse cx="56.331934946377" cy="44.04405702290274" rx="0.9169633251495013" ry="0.9169633251495013" fill="#ffffff" stroke="none" style="opacity: 0.4" opacity="0.4" r="0.9169633251495013" transform=""/><path fill="#f7a996" stroke="none" d="M 55.2046,24.3212 S 55.3866,22.6872 53.6306,22.5522 C 53.6306,22.5522 55.0416,23.3122 54.8356,24.2542 L 55.2046,24.3212 Z" transform=""/><path fill="#f7a996" stroke="none" d="M 54.7837,24.1147 S 54.4347,23.4777 53.7797,23.3797 C 53.7797,23.3797 54.6097,23.8367 54.6257,24.2427 L 54.7837,24.1147 Z" transform=""/><ellipse cx="60.425269859321126" cy="38.21074256122912" rx="1.0062527259896306" ry="1.3991260896861992" fill="#304454" stroke="none" transform="rotate(178.4413 60.42527108587803 38.21074211395104)" r="NaN"/><ellipse cx="48.41545839258024" cy="37.91802798447712" rx="1.0062527259896306" ry="1.3991260896861992" fill="#304454" stroke="none" transform="rotate(178.4413 48.415458458094385 37.918028165109924)" r="NaN"/><ellipse cx="52.928068392027285" cy="44.09996163889441" rx="0.3882147862614315" ry="0.3882147862614315" fill="#304454" stroke="none" r="0.3882147862614315" transform=""/><path fill="#304454" stroke="none" d="M 55.9282,44.374 C 56.1422,44.366 56.3082,44.186 56.3002,43.973 C 56.2922,43.758 56.1112,43.591 55.8972,43.6 C 55.6832,43.607 55.5172,43.787 55.5232,44.002 C 55.5332,44.216 55.7132,44.383 55.9282,44.374 Z" transform=""/><path fill="#d67b72" stroke="none" d="M 134.897,51.2027 S 136.281,51.5257 136.3,51.8497 C 136.318,52.1717 135.692,52.9447 135.309,53.0167 C 134.925,53.0867 133.629,52.3607 133.629,52.3607 L 134.897,51.2027 Z" transform=""/><path fill="#d67b72" stroke="none" d="M 134.394,51.8627 S 135.695,52.1267 135.82,52.6307 C 135.906,52.9817 134.009,54.4067 132.681,54.0317 C 131.875,53.8057 131.543,53.3887 131.543,53.3887 L 134.394,51.8627 Z" transform=""/><path fill="#e59585" stroke="none" d="M 127.631,41.4275 C 128.081,41.6715 131.674,44.4575 128.442,48.9435 C 127.643,50.0535 132.254,51.2895 132.254,51.2895 S 133.434,50.7645 134.573,51.1705 C 136.103,51.7155 131.294,53.5465 131.294,53.5465 S 131.565,54.2025 131.39,54.2465 C 131.22,54.2875 130.6,53.3825 130.517,53.1835 C 130.161,52.9555 127.518,52.3525 126.206,51.4455 C 124.875,50.5285 119.688,47.6855 121.251,43.8765 C 123.064,39.4585 126.66,40.8965 127.631,41.4275 Z" transform=""/><path fill="#d67b72" stroke="none" d="M 90.2596,51.2734 S 89.1786,51.4984 89.0736,51.2904 C 88.9696,51.0844 88.9386,50.4324 89.1676,50.2754 C 89.4016,50.1174 90.3136,50.1604 90.3136,50.1604 L 90.2596,51.2734 Z" transform=""/><path fill="#d67b72" stroke="none" d="M 90.227,50.7291 S 89.191,50.9141 88.964,50.6161 C 88.805,50.4081 89.468,48.9181 90.454,48.7791 C 91.053,48.6961 91.391,48.8761 91.391,48.8761 L 90.227,50.7291 Z" transform=""/><path fill="#e59585" stroke="none" d="M 104.887,44.527 C 103.67,52.057 96.0117,48.964 94.9147,49.889 C 93.0857,51.433 90.2597,51.273 90.2597,51.273 C 89.5807,51.248 91.3057,48.861 91.3057,48.861 L 92.0027,49.075 S 91.3107,48.686 91.4137,48.606 C 91.5947,48.468 91.9797,48.664 92.4627,48.905 C 93.9977,48.633 93.9497,46.771 94.5997,46.615 C 97.1277,46.006 96.7527,44.943 96.7527,44.943 C 93.1847,40.599 99.1447,39.306 99.1447,39.306 S 106.24,36.161 104.887,44.527 Z" transform=""/><path fill="#e59585" stroke="none" d="M 97.2125,40.0299 S 96.0065,37.6629 93.9785,37.7259 C 91.9495,37.7869 91.9555,39.6369 93.1085,40.2049 C 94.2385,40.7619 94.8975,38.8649 94.8975,38.8649 S 94.9815,41.0349 93.0755,40.7509 C 91.0525,40.4509 91.0335,37.0139 94.1025,37.0199 C 96.2885,37.0239 97.9095,39.0939 97.9095,39.0939 L 97.2125,40.0299 Z" transform=""/><path fill="#f7a996" stroke="none" d="M 123.194,41.6123 S 119.584,42.1963 115.692,40.0293 C 108.551,36.0483 103.296,34.6153 97.6512,38.3383 C 90.0832,43.3263 88.5762,59.0393 104.092,62.2963 C 126.837,67.0723 135.962,43.3583 135.962,43.3583 L 123.194,41.6123 Z" transform=""/><path fill="#e59585" stroke="none" d="M 116.527,62.0557 C 115.115,56.1457 117.409,54.2527 117.409,54.2527 L 121.248,60.1877 C 119.794,60.9467 118.221,61.5857 116.527,62.0557 Z" transform=""/><path fill="#e59585" stroke="none" d="M 104.092,62.2964 C 102.247,61.8664 100.656,61.2754 99.2937,60.5584 L 100.505,58.3414 C 102.161,60.8454 104.689,62.1074 106.072,62.6434 C 105.433,62.5674 104.772,62.4554 104.092,62.2964 Z" transform=""/><path fill="#d67b72" stroke="none" d="M 87.0242,63.5751 S 85.7772,63.8341 85.6522,63.5941 C 85.5322,63.3541 85.4932,62.6031 85.7622,62.4211 C 86.0312,62.2371 87.0852,62.2871 87.0852,62.2871 L 87.0242,63.5751 Z" transform=""/><path fill="#d67b72" stroke="none" d="M 86.9862,62.9455 S 85.7902,63.1585 85.5272,62.8125 C 85.3432,62.5745 86.1102,60.8515 87.2512,60.6925 C 87.9402,60.5955 88.3322,60.8025 88.3322,60.8025 L 86.9862,62.9455 Z" transform=""/><path fill="#f7a996" stroke="none" d="M 104.313,55.6789 C 103.246,64.1649 93.672,60.9039 92.402,61.9759 C 90.289,63.7589 87.024,63.5759 87.024,63.5759 C 86.241,63.5449 88.234,60.7879 88.234,60.7879 L 89.036,61.0359 S 88.238,60.5849 88.357,60.4939 C 88.567,60.3339 89.012,60.5609 89.57,60.8379 C 91.342,60.5249 91.288,58.3719 92.04,58.1919 C 94.963,57.4879 94.528,56.2609 94.528,56.2609 C 90.404,51.2419 93.472,45.6429 93.472,45.6429 S 105.53,45.9649 104.313,55.6789 Z" transform=""/><path fill="#e59585" stroke="none" d="M 124.202,58.3816 C 118.796,55.3176 112.693,48.7756 111.837,38.0636 C 113.064,38.6166 114.346,39.2776 115.692,40.0286 C 119.585,42.1966 123.194,41.6116 123.194,41.6116 L 135.963,43.3586 C 135.963,43.3596 132.407,52.5986 124.202,58.3816 Z" transform=""/><path fill="#d67b72" stroke="none" d="M 131.458,59.6526 S 132.872,59.5086 132.995,59.8076 C 133.117,60.1056 132.777,61.0396 132.439,61.2326 C 132.099,61.4246 130.637,61.1606 130.637,61.1606 L 131.458,59.6526 Z" transform=""/><path fill="#d67b72" stroke="none" d="M 131.198,60.4407 S 132.515,60.2667 132.797,60.7027 C 132.992,61.0067 131.662,62.9707 130.285,63.0497 C 129.449,63.0977 129,62.8117 129,62.8117 L 131.198,60.4407 Z" transform=""/><path fill="#f7a996" stroke="none" d="M 121.724,52.6997 C 122.229,52.7837 126.532,54.2487 124.937,59.5427 C 124.544,60.8517 129.305,60.5197 129.305,60.5197 S 130.25,59.6387 131.46,59.6517 C 133.083,59.6697 129.133,62.9657 129.133,62.9657 S 129.603,63.4987 129.451,63.5967 C 129.304,63.6907 128.423,63.0367 128.28,62.8757 C 127.87,62.7767 125.174,63.0657 123.639,62.6357 C 122.082,62.2017 116.252,61.2017 116.49,57.0907 C 116.765,52.3247 120.633,52.5137 121.724,52.6997 Z" transform=""/><path fill="#f7a996" stroke="none" d="M 134.806,26.2693 S 134.8,23.8403 136.695,22.3463 C 137.938,21.3653 139.774,20.1063 140.782,18.6123 C 143.516,14.5623 146.191,20.7243 145.338,26.0833 C 144.745,29.8043 142.722,34.2763 139.504,33.0563 C 136.782,32.0253 134.806,26.2693 134.806,26.2693 Z" transform=""/><path fill="url(#r-46978c58e1e3424297c3dceddd237c8e)" stroke="none" d="M 135.778,28.5745 C 135.162,27.3045 134.807,26.2695 134.807,26.2695 S 134.804,25.2165 135.343,24.0685 C 137.058,24.6095 138.846,26.0465 138.846,26.0465 L 135.778,28.5745 Z" opacity="1" fill-opacity="1" style="opacity: 1;fill-opacity: 1" transform=""/><path fill="#e59585" stroke="none" d="M 135.778,28.5745 C 135.162,27.3045 134.807,26.2695 134.807,26.2695 S 134.804,25.2165 135.343,24.0685 C 137.058,24.6095 138.846,26.0465 138.846,26.0465 L 135.778,28.5745 Z" transform=""/><path fill="#d67b72" stroke="none" d="M 138.216,30.2182 S 136.807,27.0432 138.537,24.7982 C 140.572,22.1572 141.472,18.6342 142.723,18.2522 C 144.249,17.7882 144.905,21.1382 145.119,22.4722 C 145.441,24.4522 144.897,28.3372 143.678,30.4992 C 142.812,32.0362 141.988,33.1252 139.663,32.9292 C 137.336,32.7332 138.216,30.2182 138.216,30.2182 Z" transform=""/><path fill="#f7a996" stroke="none" d="M 122.651,26.7328 S 122.469,24.3128 120.468,22.9658 C 119.156,22.0818 117.228,20.9668 116.109,19.5518 C 113.075,15.7228 110.876,22.0708 112.137,27.3488 C 113.009,31.0128 115.367,35.3198 118.483,33.8598 C 121.12,32.6228 122.651,26.7328 122.651,26.7328 Z" transform=""/><path fill="#e59585" stroke="none" d="M 121.432,30.2694 C 121.951,28.9564 122.651,26.7334 122.651,26.7334 S 122.573,25.6834 121.947,24.5804 C 120.282,25.2494 118.606,26.8184 118.606,26.8184 L 121.432,30.2694 Z" transform=""/><path fill="#d67b72" stroke="none" d="M 119.55,30.9302 S 120.713,27.6572 118.816,25.5492 C 116.586,23.0722 115.423,19.6262 114.148,19.3402 C 112.59,18.9942 112.191,22.3852 112.077,23.7322 C 111.911,25.7312 112.748,29.5632 114.129,31.6252 C 115.108,33.0912 116.013,34.1142 118.315,33.7432 C 120.621,33.3702 119.55,30.9302 119.55,30.9302 Z" transform=""/><path fill="#f7a996" stroke="none" d="M 136.234,25.8213 S 132.534,23.6433 128.841,23.9073 C 126.267,24.0913 123.254,24.5593 120.692,27.0363 C 117.206,30.4073 116.381,35.9703 116.337,38.8173 C 116.225,46.3373 121.247,51.0983 129.038,50.9173 C 136.718,50.7373 142.905,45.7193 142.39,38.2243 C 142.098,33.9503 140.718,28.4403 136.234,25.8213 Z" transform=""/><path fill="#d67b72" stroke="none" d="M 133.793,43.4167 S 132.027,39.4647 129.308,39.5677 C 127.666,39.6317 125.873,41.3547 124.98,43.9427 C 123.956,46.9257 127.844,47.8387 129.618,47.7027 C 131.229,47.5757 135.007,47.0427 133.793,43.4167 Z" transform=""/><path fill="#ffffff" stroke="none" d="M 127.542,45.107 C 127.036,45.126 126.61,44.731 126.591,44.226 C 126.571,43.72 126.966,43.294 127.47,43.274 C 127.978,43.255 128.404,43.65 128.422,44.156 C 128.443,44.661 128.048,45.088 127.542,45.107 Z" style="opacity: 0.4" opacity="0.4" transform=""/><ellipse cx="131.331934946377" cy="44.04405702290274" rx="0.9169633251495013" ry="0.9169633251495013" fill="#ffffff" stroke="none" style="opacity: 0.4" opacity="0.4" r="0.9169633251495013" transform=""/><path fill="#f7a996" stroke="none" d="M 130.205,24.3212 S 130.387,22.6872 128.631,22.5522 C 128.631,22.5522 130.042,23.3122 129.836,24.2542 L 130.205,24.3212 Z" transform=""/><path fill="#f7a996" stroke="none" d="M 129.784,24.1147 S 129.435,23.4777 128.78,23.3797 C 128.78,23.3797 129.61,23.8367 129.626,24.2427 L 129.784,24.1147 Z" transform=""/><ellipse cx="135.42526985932113" cy="38.21074256122912" rx="1.0062527259896306" ry="1.3991260896861992" fill="#304454" stroke="none" transform="rotate(178.4413 135.42527108587802 38.21074211395104)" r="NaN"/><ellipse cx="123.41545839258023" cy="37.91802798447712" rx="1.0062527259896306" ry="1.3991260896861992" fill="#304454" stroke="none" transform="rotate(178.4413 123.41545845809438 37.918028165109924)" r="NaN"/><ellipse cx="127.92806839202728" cy="44.09996163889441" rx="0.3882147862614315" ry="0.3882147862614315" fill="#304454" stroke="none" r="0.3882147862614315" transform=""/><path fill="#304454" stroke="none" d="M 130.928,44.374 C 131.142,44.366 131.308,44.186 131.3,43.973 C 131.292,43.758 131.111,43.591 130.897,43.6 C 130.683,43.607 130.517,43.787 130.523,44.002 C 130.533,44.216 130.713,44.383 130.928,44.374 Z" transform=""/><path fill="#d67b72" stroke="none" d="M 209.897,51.2027 S 211.281,51.5257 211.3,51.8497 C 211.318,52.1717 210.692,52.9447 210.309,53.0167 C 209.925,53.0867 208.629,52.3607 208.629,52.3607 L 209.897,51.2027 Z" transform=""/><path fill="#d67b72" stroke="none" d="M 209.394,51.8627 S 210.695,52.1267 210.82,52.6307 C 210.906,52.9817 209.009,54.4067 207.681,54.0317 C 206.875,53.8057 206.543,53.3887 206.543,53.3887 L 209.394,51.8627 Z" transform=""/><path fill="#e59585" stroke="none" d="M 202.631,41.4275 C 203.081,41.6715 206.674,44.4575 203.442,48.9435 C 202.643,50.0535 207.254,51.2895 207.254,51.2895 S 208.434,50.7645 209.573,51.1705 C 211.103,51.7155 206.294,53.5465 206.294,53.5465 S 206.565,54.2025 206.39,54.2465 C 206.22,54.2875 205.6,53.3825 205.517,53.1835 C 205.161,52.9555 202.518,52.3525 201.206,51.4455 C 199.875,50.5285 194.688,47.6855 196.251,43.8765 C 198.064,39.4585 201.66,40.8965 202.631,41.4275 Z" transform=""/><path fill="#d67b72" stroke="none" d="M 165.26,51.2734 S 164.179,51.4984 164.074,51.2904 C 163.97,51.0844 163.939,50.4324 164.168,50.2754 C 164.402,50.1174 165.314,50.1604 165.314,50.1604 L 165.26,51.2734 Z" transform=""/><path fill="#d67b72" stroke="none" d="M 165.227,50.7291 S 164.191,50.9141 163.964,50.6161 C 163.805,50.4081 164.468,48.9181 165.454,48.7791 C 166.053,48.6961 166.391,48.8761 166.391,48.8761 L 165.227,50.7291 Z" transform=""/><path fill="#e59585" stroke="none" d="M 179.887,44.527 C 178.67,52.057 171.012,48.964 169.915,49.889 C 168.086,51.433 165.26,51.273 165.26,51.273 C 164.581,51.248 166.306,48.861 166.306,48.861 L 167.003,49.075 S 166.311,48.686 166.414,48.606 C 166.595,48.468 166.98,48.664 167.463,48.905 C 168.998,48.633 168.95,46.771 169.6,46.615 C 172.128,46.006 171.753,44.943 171.753,44.943 C 168.185,40.599 174.145,39.306 174.145,39.306 S 181.24,36.161 179.887,44.527 Z" transform=""/><path fill="#e59585" stroke="none" d="M 172.213,40.0299 S 171.007,37.6629 168.979,37.7259 C 166.95,37.7869 166.956,39.6369 168.109,40.2049 C 169.239,40.7619 169.898,38.8649 169.898,38.8649 S 169.982,41.0349 168.076,40.7509 C 166.053,40.4509 166.034,37.0139 169.103,37.0199 C 171.289,37.0239 172.91,39.0939 172.91,39.0939 L 172.213,40.0299 Z" transform=""/><path fill="#f7a996" stroke="none" d="M 198.194,41.6123 S 194.584,42.1963 190.692,40.0293 C 183.551,36.0483 178.296,34.6153 172.651,38.3383 C 165.083,43.3263 163.576,59.0393 179.092,62.2963 C 201.837,67.0723 210.962,43.3583 210.962,43.3583 L 198.194,41.6123 Z" transform=""/><path fill="#e59585" stroke="none" d="M 191.527,62.0557 C 190.115,56.1457 192.409,54.2527 192.409,54.2527 L 196.248,60.1877 C 194.794,60.9467 193.221,61.5857 191.527,62.0557 Z" transform=""/><path fill="#e59585" stroke="none" d="M 179.092,62.2964 C 177.247,61.8664 175.656,61.2754 174.294,60.5584 L 175.505,58.3414 C 177.161,60.8454 179.689,62.1074 181.072,62.6434 C 180.433,62.5674 179.772,62.4554 179.092,62.2964 Z" transform=""/><path fill="#d67b72" stroke="none" d="M 162.024,63.5751 S 160.777,63.8341 160.652,63.5941 C 160.532,63.3541 160.493,62.6031 160.762,62.4211 C 161.031,62.2371 162.085,62.2871 162.085,62.2871 L 162.024,63.5751 Z" transform=""/><path fill="#d67b72" stroke="none" d="M 161.986,62.9455 S 160.79,63.1585 160.527,62.8125 C 160.343,62.5745 161.11,60.8515 162.251,60.6925 C 162.94,60.5955 163.332,60.8025 163.332,60.8025 L 161.986,62.9455 Z" transform=""/><path fill="#f7a996" stroke="none" d="M 179.313,55.6789 C 178.246,64.1649 168.672,60.9039 167.402,61.9759 C 165.289,63.7589 162.024,63.5759 162.024,63.5759 C 161.241,63.5449 163.234,60.7879 163.234,60.7879 L 164.036,61.0359 S 163.238,60.5849 163.357,60.4939 C 163.567,60.3339 164.012,60.5609 164.57,60.8379 C 166.342,60.5249 166.288,58.3719 167.04,58.1919 C 169.963,57.4879 169.528,56.2609 169.528,56.2609 C 165.404,51.2419 168.472,45.6429 168.472,45.6429 S 180.53,45.9649 179.313,55.6789 Z" transform=""/><path fill="#e59585" stroke="none" d="M 199.202,58.3816 C 193.796,55.3176 187.693,48.7756 186.837,38.0636 C 188.064,38.6166 189.346,39.2776 190.692,40.0286 C 194.585,42.1966 198.194,41.6116 198.194,41.6116 L 210.963,43.3586 C 210.963,43.3596 207.407,52.5986 199.202,58.3816 Z" transform=""/><path fill="#d67b72" stroke="none" d="M 206.458,59.6526 S 207.872,59.5086 207.995,59.8076 C 208.117,60.1056 207.777,61.0396 207.439,61.2326 C 207.099,61.4246 205.637,61.1606 205.637,61.1606 L 206.458,59.6526 Z" transform=""/><path fill="#d67b72" stroke="none" d="M 206.198,60.4407 S 207.515,60.2667 207.797,60.7027 C 207.992,61.0067 206.662,62.9707 205.285,63.0497 C 204.449,63.0977 204,62.8117 204,62.8117 L 206.198,60.4407 Z" transform=""/><path fill="#f7a996" stroke="none" d="M 196.724,52.6997 C 197.229,52.7837 201.532,54.2487 199.937,59.5427 C 199.544,60.8517 204.305,60.5197 204.305,60.5197 S 205.25,59.6387 206.46,59.6517 C 208.083,59.6697 204.133,62.9657 204.133,62.9657 S 204.603,63.4987 204.451,63.5967 C 204.304,63.6907 203.423,63.0367 203.28,62.8757 C 202.87,62.7767 200.174,63.0657 198.639,62.6357 C 197.082,62.2017 191.252,61.2017 191.49,57.0907 C 191.765,52.3247 195.633,52.5137 196.724,52.6997 Z" transform=""/><path fill="#f7a996" stroke="none" d="M 209.806,26.2693 S 209.8,23.8403 211.695,22.3463 C 212.938,21.3653 214.774,20.1063 215.782,18.6123 C 218.516,14.5623 221.191,20.7243 220.338,26.0833 C 219.745,29.8043 217.722,34.2763 214.504,33.0563 C 211.782,32.0253 209.806,26.2693 209.806,26.2693 Z" transform=""/><path fill="url(#r-fd49db922ba34d18a8b7d3ed13be28c0)" stroke="none" d="M 210.778,28.5745 C 210.162,27.3045 209.807,26.2695 209.807,26.2695 S 209.804,25.2165 210.343,24.0685 C 212.058,24.6095 213.846,26.0465 213.846,26.0465 L 210.778,28.5745 Z" opacity="1" fill-opacity="1" style="opacity: 1;fill-opacity: 1" transform=""/><path fill="#e59585" stroke="none" d="M 210.778,28.5745 C 210.162,27.3045 209.807,26.2695 209.807,26.2695 S 209.804,25.2165 210.343,24.0685 C 212.058,24.6095 213.846,26.0465 213.846,26.0465 L 210.778,28.5745 Z" transform=""/><path fill="#d67b72" stroke="none" d="M 213.216,30.2182 S 211.807,27.0432 213.537,24.7982 C 215.572,22.1572 216.472,18.6342 217.723,18.2522 C 219.249,17.7882 219.905,21.1382 220.119,22.4722 C 220.441,24.4522 219.897,28.3372 218.678,30.4992 C 217.812,32.0362 216.988,33.1252 214.663,32.9292 C 212.336,32.7332 213.216,30.2182 213.216,30.2182 Z" transform=""/><path fill="#f7a996" stroke="none" d="M 197.651,26.7328 S 197.469,24.3128 195.468,22.9658 C 194.156,22.0818 192.228,20.9668 191.109,19.5518 C 188.075,15.7228 185.876,22.0708 187.137,27.3488 C 188.009,31.0128 190.367,35.3198 193.483,33.8598 C 196.12,32.6228 197.651,26.7328 197.651,26.7328 Z" transform=""/><path fill="#e59585" stroke="none" d="M 196.432,30.2694 C 196.951,28.9564 197.651,26.7334 197.651,26.7334 S 197.573,25.6834 196.947,24.5804 C 195.282,25.2494 193.606,26.8184 193.606,26.8184 L 196.432,30.2694 Z" transform=""/><path fill="#d67b72" stroke="none" d="M 194.55,30.9302 S 195.713,27.6572 193.816,25.5492 C 191.586,23.0722 190.423,19.6262 189.148,19.3402 C 187.59,18.9942 187.191,22.3852 187.077,23.7322 C 186.911,25.7312 187.748,29.5632 189.129,31.6252 C 190.108,33.0912 191.013,34.1142 193.315,33.7432 C 195.621,33.3702 194.55,30.9302 194.55,30.9302 Z" transform=""/><path fill="#f7a996" stroke="none" d="M 211.234,25.8213 S 207.534,23.6433 203.841,23.9073 C 201.267,24.0913 198.254,24.5593 195.692,27.0363 C 192.206,30.4073 191.381,35.9703 191.337,38.8173 C 191.225,46.3373 196.247,51.0983 204.038,50.9173 C 211.718,50.7373 217.905,45.7193 217.39,38.2243 C 217.098,33.9503 215.718,28.4403 211.234,25.8213 Z" transform=""/><path fill="#d67b72" stroke="none" d="M 208.793,43.4167 S 207.027,39.4647 204.308,39.5677 C 202.666,39.6317 200.873,41.3547 199.98,43.9427 C 198.956,46.9257 202.844,47.8387 204.618,47.7027 C 206.229,47.5757 210.007,47.0427 208.793,43.4167 Z" transform=""/><path fill="#ffffff" stroke="none" d="M 202.542,45.107 C 202.036,45.126 201.61,44.731 201.591,44.226 C 201.571,43.72 201.966,43.294 202.47,43.274 C 202.978,43.255 203.404,43.65 203.422,44.156 C 203.443,44.661 203.048,45.088 202.542,45.107 Z" style="opacity: 0.4" opacity="0.4" transform=""/><ellipse cx="206.331934946377" cy="44.04405702290274" rx="0.9169633251495013" ry="0.9169633251495013" fill="#ffffff" stroke="none" style="opacity: 0.4" opacity="0.4" r="0.9169633251495013" transform=""/><path fill="#f7a996" stroke="none" d="M 205.205,24.3212 S 205.387,22.6872 203.631,22.5522 C 203.631,22.5522 205.042,23.3122 204.836,24.2542 L 205.205,24.3212 Z" transform=""/><path fill="#f7a996" stroke="none" d="M 204.784,24.1147 S 204.435,23.4777 203.78,23.3797 C 203.78,23.3797 204.61,23.8367 204.626,24.2427 L 204.784,24.1147 Z" transform=""/><ellipse cx="210.42526985932113" cy="38.21074256122912" rx="1.0062527259896306" ry="1.3991260896861992" fill="#304454" stroke="none" transform="rotate(178.4413 210.42527108587802 38.21074211395104)" r="NaN"/><ellipse cx="198.41545839258023" cy="37.91802798447712" rx="1.0062527259896306" ry="1.3991260896861992" fill="#304454" stroke="none" transform="rotate(178.4413 198.41545845809438 37.918028165109924)" r="NaN"/><ellipse cx="202.92806839202728" cy="44.09996163889441" rx="0.3882147862614315" ry="0.3882147862614315" fill="#304454" stroke="none" r="0.3882147862614315" transform=""/><path fill="#304454" stroke="none" d="M 205.928,44.374 C 206.142,44.366 206.308,44.186 206.3,43.973 C 206.292,43.758 206.111,43.591 205.897,43.6 C 205.683,43.607 205.517,43.787 205.523,44.002 C 205.533,44.216 205.713,44.383 205.928,44.374 Z" transform=""/><path fill="#d67b72" stroke="none" d="M 284.897,51.2027 S 286.281,51.5257 286.3,51.8497 C 286.318,52.1717 285.692,52.9447 285.309,53.0167 C 284.925,53.0867 283.629,52.3607 283.629,52.3607 L 284.897,51.2027 Z" transform=""/><path fill="#d67b72" stroke="none" d="M 284.394,51.8627 S 285.695,52.1267 285.82,52.6307 C 285.906,52.9817 284.009,54.4067 282.681,54.0317 C 281.875,53.8057 281.543,53.3887 281.543,53.3887 L 284.394,51.8627 Z" transform=""/><path fill="#e59585" stroke="none" d="M 277.631,41.4275 C 278.081,41.6715 281.674,44.4575 278.442,48.9435 C 277.643,50.0535 282.254,51.2895 282.254,51.2895 S 283.434,50.7645 284.573,51.1705 C 286.103,51.7155 281.294,53.5465 281.294,53.5465 S 281.565,54.2025 281.39,54.2465 C 281.22,54.2875 280.6,53.3825 280.517,53.1835 C 280.161,52.9555 277.518,52.3525 276.206,51.4455 C 274.875,50.5285 269.688,47.6855 271.251,43.8765 C 273.064,39.4585 276.66,40.8965 277.631,41.4275 Z" transform=""/><path fill="#d67b72" stroke="none" d="M 240.26,51.2734 S 239.179,51.4984 239.074,51.2904 C 238.97,51.0844 238.939,50.4324 239.168,50.2754 C 239.402,50.1174 240.314,50.1604 240.314,50.1604 L 240.26,51.2734 Z" transform=""/><path fill="#d67b72" stroke="none" d="M 240.227,50.7291 S 239.191,50.9141 238.964,50.6161 C 238.805,50.4081 239.468,48.9181 240.454,48.7791 C 241.053,48.6961 241.391,48.8761 241.391,48.8761 L 240.227,50.7291 Z" transform=""/><path fill="#e59585" stroke="none" d="M 254.887,44.527 C 253.67,52.057 246.012,48.964 244.915,49.889 C 243.086,51.433 240.26,51.273 240.26,51.273 C 239.581,51.248 241.306,48.861 241.306,48.861 L 242.003,49.075 S 241.311,48.686 241.414,48.606 C 241.595,48.468 241.98,48.664 242.463,48.905 C 243.998,48.633 243.95,46.771 244.6,46.615 C 247.128,46.006 246.753,44.943 246.753,44.943 C 243.185,40.599 249.145,39.306 249.145,39.306 S 256.24,36.161 254.887,44.527 Z" transform=""/><path fill="#e59585" stroke="none" d="M 247.213,40.0299 S 246.007,37.6629 243.979,37.7259 C 241.95,37.7869 241.956,39.6369 243.109,40.2049 C 244.239,40.7619 244.898,38.8649 244.898,38.8649 S 244.982,41.0349 243.076,40.7509 C 241.053,40.4509 241.034,37.0139 244.103,37.0199 C 246.289,37.0239 247.91,39.0939 247.91,39.0939 L 247.213,40.0299 Z" transform=""/><path fill="#f7a996" stroke="none" d="M 273.194,41.6123 S 269.584,42.1963 265.692,40.0293 C 258.551,36.0483 253.296,34.6153 247.651,38.3383 C 240.083,43.3263 238.576,59.0393 254.092,62.2963 C 276.837,67.0723 285.962,43.3583 285.962,43.3583 L 273.194,41.6123 Z" transform=""/><path fill="#e59585" stroke="none" d="M 266.527,62.0557 C 265.115,56.1457 267.409,54.2527 267.409,54.2527 L 271.248,60.1877 C 269.794,60.9467 268.221,61.5857 266.527,62.0557 Z" transform=""/><path fill="#e59585" stroke="none" d="M 254.092,62.2964 C 252.247,61.8664 250.656,61.2754 249.294,60.5584 L 250.505,58.3414 C 252.161,60.8454 254.689,62.1074 256.072,62.6434 C 255.433,62.5674 254.772,62.4554 254.092,62.2964 Z" transform=""/><path fill="#d67b72" stroke="none" d="M 237.024,63.5751 S 235.777,63.8341 235.652,63.5941 C 235.532,63.3541 235.493,62.6031 235.762,62.4211 C 236.031,62.2371 237.085,62.2871 237.085,62.2871 L 237.024,63.5751 Z" transform=""/><path fill="#d67b72" stroke="none" d="M 236.986,62.9455 S 235.79,63.1585 235.527,62.8125 C 235.343,62.5745 236.11,60.8515 237.251,60.6925 C 237.94,60.5955 238.332,60.8025 238.332,60.8025 L 236.986,62.9455 Z" transform=""/><path fill="#f7a996" stroke="none" d="M 254.313,55.6789 C 253.246,64.1649 243.672,60.9039 242.402,61.9759 C 240.289,63.7589 237.024,63.5759 237.024,63.5759 C 236.241,63.5449 238.234,60.7879 238.234,60.7879 L 239.036,61.0359 S 238.238,60.5849 238.357,60.4939 C 238.567,60.3339 239.012,60.5609 239.57,60.8379 C 241.342,60.5249 241.288,58.3719 242.04,58.1919 C 244.963,57.4879 244.528,56.2609 244.528,56.2609 C 240.404,51.2419 243.472,45.6429 243.472,45.6429 S 255.53,45.9649 254.313,55.6789 Z" transform=""/><path fill="#e59585" stroke="none" d="M 274.202,58.3816 C 268.796,55.3176 262.693,48.7756 261.837,38.0636 C 263.064,38.6166 264.346,39.2776 265.692,40.0286 C 269.585,42.1966 273.194,41.6116 273.194,41.6116 L 285.963,43.3586 C 285.963,43.3596 282.407,52.5986 274.202,58.3816 Z" transform=""/><path fill="#d67b72" stroke="none" d="M 281.458,59.6526 S 282.872,59.5086 282.995,59.8076 C 283.117,60.1056 282.777,61.0396 282.439,61.2326 C 282.099,61.4246 280.637,61.1606 280.637,61.1606 L 281.458,59.6526 Z" transform=""/><path fill="#d67b72" stroke="none" d="M 281.198,60.4407 S 282.515,60.2667 282.797,60.7027 C 282.992,61.0067 281.662,62.9707 280.285,63.0497 C 279.449,63.0977 279,62.8117 279,62.8117 L 281.198,60.4407 Z" transform=""/><path fill="#f7a996" stroke="none" d="M 271.724,52.6997 C 272.229,52.7837 276.532,54.2487 274.937,59.5427 C 274.544,60.8517 279.305,60.5197 279.305,60.5197 S 280.25,59.6387 281.46,59.6517 C 283.083,59.6697 279.133,62.9657 279.133,62.9657 S 279.603,63.4987 279.451,63.5967 C 279.304,63.6907 278.423,63.0367 278.28,62.8757 C 277.87,62.7767 275.174,63.0657 273.639,62.6357 C 272.082,62.2017 266.252,61.2017 266.49,57.0907 C 266.765,52.3247 270.633,52.5137 271.724,52.6997 Z" transform=""/><path fill="#f7a996" stroke="none" d="M 284.806,26.2693 S 284.8,23.8403 286.695,22.3463 C 287.938,21.3653 289.774,20.1063 290.782,18.6123 C 293.516,14.5623 296.191,20.7243 295.338,26.0833 C 294.745,29.8043 292.722,34.2763 289.504,33.0563 C 286.782,32.0253 284.806,26.2693 284.806,26.2693 Z" transform=""/><path fill="url(#r-c33a4fc3115442d48ae9ba34a110502d)" stroke="none" d="M 285.778,28.5745 C 285.162,27.3045 284.807,26.2695 284.807,26.2695 S 284.804,25.2165 285.343,24.0685 C 287.058,24.6095 288.846,26.0465 288.846,26.0465 L 285.778,28.5745 Z" opacity="1" fill-opacity="1" style="opacity: 1;fill-opacity: 1" transform=""/><path fill="#e59585" stroke="none" d="M 285.778,28.5745 C 285.162,27.3045 284.807,26.2695 284.807,26.2695 S 284.804,25.2165 285.343,24.0685 C 287.058,24.6095 288.846,26.0465 288.846,26.0465 L 285.778,28.5745 Z" transform=""/><path fill="#d67b72" stroke="none" d="M 288.216,30.2182 S 286.807,27.0432 288.537,24.7982 C 290.572,22.1572 291.472,18.6342 292.723,18.2522 C 294.249,17.7882 294.905,21.1382 295.119,22.4722 C 295.441,24.4522 294.897,28.3372 293.678,30.4992 C 292.812,32.0362 291.988,33.1252 289.663,32.9292 C 287.336,32.7332 288.216,30.2182 288.216,30.2182 Z" transform=""/><path fill="#f7a996" stroke="none" d="M 272.651,26.7328 S 272.469,24.3128 270.468,22.9658 C 269.156,22.0818 267.228,20.9668 266.109,19.5518 C 263.075,15.7228 260.876,22.0708 262.137,27.3488 C 263.009,31.0128 265.367,35.3198 268.483,33.8598 C 271.12,32.6228 272.651,26.7328 272.651,26.7328 Z" transform=""/><path fill="#e59585" stroke="none" d="M 271.432,30.2694 C 271.951,28.9564 272.651,26.7334 272.651,26.7334 S 272.573,25.6834 271.947,24.5804 C 270.282,25.2494 268.606,26.8184 268.606,26.8184 L 271.432,30.2694 Z" transform=""/><path fill="#d67b72" stroke="none" d="M 269.55,30.9302 S 270.713,27.6572 268.816,25.5492 C 266.586,23.0722 265.423,19.6262 264.148,19.3402 C 262.59,18.9942 262.191,22.3852 262.077,23.7322 C 261.911,25.7312 262.748,29.5632 264.129,31.6252 C 265.108,33.0912 266.013,34.1142 268.315,33.7432 C 270.621,33.3702 269.55,30.9302 269.55,30.9302 Z" transform=""/><path fill="#f7a996" stroke="none" d="M 286.234,25.8213 S 282.534,23.6433 278.841,23.9073 C 276.267,24.0913 273.254,24.5593 270.692,27.0363 C 267.206,30.4073 266.381,35.9703 266.337,38.8173 C 266.225,46.3373 271.247,51.0983 279.038,50.9173 C 286.718,50.7373 292.905,45.7193 292.39,38.2243 C 292.098,33.9503 290.718,28.4403 286.234,25.8213 Z" transform=""/><path fill="#d67b72" stroke="none" d="M 283.793,43.4167 S 282.027,39.4647 279.308,39.5677 C 277.666,39.6317 275.873,41.3547 274.98,43.9427 C 273.956,46.9257 277.844,47.8387 279.618,47.7027 C 281.229,47.5757 285.007,47.0427 283.793,43.4167 Z" transform=""/><path fill="#ffffff" stroke="none" d="M 277.542,45.107 C 277.036,45.126 276.61,44.731 276.591,44.226 C 276.571,43.72 276.966,43.294 277.47,43.274 C 277.978,43.255 278.404,43.65 278.422,44.156 C 278.443,44.661 278.048,45.088 277.542,45.107 Z" style="opacity: 0.4" opacity="0.4" transform=""/><ellipse cx="281.331934946377" cy="44.04405702290274" rx="0.9169633251495013" ry="0.9169633251495013" fill="#ffffff" stroke="none" style="opacity: 0.4" opacity="0.4" r="0.9169633251495013" transform=""/><path fill="#f7a996" stroke="none" d="M 280.205,24.3212 S 280.387,22.6872 278.631,22.5522 C 278.631,22.5522 280.042,23.3122 279.836,24.2542 L 280.205,24.3212 Z" transform=""/><path fill="#f7a996" stroke="none" d="M 279.784,24.1147 S 279.435,23.4777 278.78,23.3797 C 278.78,23.3797 279.61,23.8367 279.626,24.2427 L 279.784,24.1147 Z" transform=""/><ellipse cx="285.42526985932113" cy="38.21074256122912" rx="1.0062527259896306" ry="1.3991260896861992" fill="#304454" stroke="none" transform="rotate(178.4413 285.425271085878 38.21074211395104)" r="NaN"/><ellipse cx="273.41545839258026" cy="37.91802798447712" rx="1.0062527259896306" ry="1.3991260896861992" fill="#304454" stroke="none" transform="rotate(178.4413 273.4154584580944 37.918028165109924)" r="NaN"/><ellipse cx="277.9280683920273" cy="44.09996163889441" rx="0.3882147862614315" ry="0.3882147862614315" fill="#304454" stroke="none" r="0.3882147862614315" transform=""/><path fill="#304454" stroke="none" d="M 280.928,44.374 C 281.142,44.366 281.308,44.186 281.3,43.973 C 281.292,43.758 281.111,43.591 280.897,43.6 C 280.683,43.607 280.517,43.787 280.523,44.002 C 280.533,44.216 280.713,44.383 280.928,44.374 Z" transform=""/><path fill="#d67b72" stroke="none" d="M 359.897,51.2027 S 361.281,51.5257 361.3,51.8497 C 361.318,52.1717 360.692,52.9447 360.309,53.0167 C 359.925,53.0867 358.629,52.3607 358.629,52.3607 L 359.897,51.2027 Z" transform=""/><path fill="#d67b72" stroke="none" d="M 359.394,51.8627 S 360.695,52.1267 360.82,52.6307 C 360.906,52.9817 359.009,54.4067 357.681,54.0317 C 356.875,53.8057 356.543,53.3887 356.543,53.3887 L 359.394,51.8627 Z" transform=""/><path fill="#e59585" stroke="none" d="M 352.631,41.4275 C 353.081,41.6715 356.674,44.4575 353.442,48.9435 C 352.643,50.0535 357.254,51.2895 357.254,51.2895 S 358.434,50.7645 359.573,51.1705 C 361.103,51.7155 356.294,53.5465 356.294,53.5465 S 356.565,54.2025 356.39,54.2465 C 356.22,54.2875 355.6,53.3825 355.517,53.1835 C 355.161,52.9555 352.518,52.3525 351.206,51.4455 C 349.875,50.5285 344.688,47.6855 346.251,43.8765 C 348.064,39.4585 351.66,40.8965 352.631,41.4275 Z" transform=""/><path fill="#d67b72" stroke="none" d="M 315.26,51.2734 S 314.179,51.4984 314.074,51.2904 C 313.97,51.0844 313.939,50.4324 314.168,50.2754 C 314.402,50.1174 315.314,50.1604 315.314,50.1604 L 315.26,51.2734 Z" transform=""/><path fill="#d67b72" stroke="none" d="M 315.227,50.7291 S 314.191,50.9141 313.964,50.6161 C 313.805,50.4081 314.468,48.9181 315.454,48.7791 C 316.053,48.6961 316.391,48.8761 316.391,48.8761 L 315.227,50.7291 Z" transform=""/><path fill="#e59585" stroke="none" d="M 329.887,44.527 C 328.67,52.057 321.012,48.964 319.915,49.889 C 318.086,51.433 315.26,51.273 315.26,51.273 C 314.581,51.248 316.306,48.861 316.306,48.861 L 317.003,49.075 S 316.311,48.686 316.414,48.606 C 316.595,48.468 316.98,48.664 317.463,48.905 C 318.998,48.633 318.95,46.771 319.6,46.615 C 322.128,46.006 321.753,44.943 321.753,44.943 C 318.185,40.599 324.145,39.306 324.145,39.306 S 331.24,36.161 329.887,44.527 Z" transform=""/><path fill="#e59585" stroke="none" d="M 322.213,40.0299 S 321.007,37.6629 318.979,37.7259 C 316.95,37.7869 316.956,39.6369 318.109,40.2049 C 319.239,40.7619 319.898,38.8649 319.898,38.8649 S 319.982,41.0349 318.076,40.7509 C 316.053,40.4509 316.034,37.0139 319.103,37.0199 C 321.289,37.0239 322.91,39.0939 322.91,39.0939 L 322.213,40.0299 Z" transform=""/><path fill="#f7a996" stroke="none" d="M 348.194,41.6123 S 344.584,42.1963 340.692,40.0293 C 333.551,36.0483 328.296,34.6153 322.651,38.3383 C 315.083,43.3263 313.576,59.0393 329.092,62.2963 C 351.837,67.0723 360.962,43.3583 360.962,43.3583 L 348.194,41.6123 Z" transform=""/><path fill="#e59585" stroke="none" d="M 341.527,62.0557 C 340.115,56.1457 342.409,54.2527 342.409,54.2527 L 346.248,60.1877 C 344.794,60.9467 343.221,61.5857 341.527,62.0557 Z" transform=""/><path fill="#e59585" stroke="none" d="M 329.092,62.2964 C 327.247,61.8664 325.656,61.2754 324.294,60.5584 L 325.505,58.3414 C 327.161,60.8454 329.689,62.1074 331.072,62.6434 C 330.433,62.5674 329.772,62.4554 329.092,62.2964 Z" transform=""/><path fill="#d67b72" stroke="none" d="M 312.024,63.5751 S 310.777,63.8341 310.652,63.5941 C 310.532,63.3541 310.493,62.6031 310.762,62.4211 C 311.031,62.2371 312.085,62.2871 312.085,62.2871 L 312.024,63.5751 Z" transform=""/><path fill="#d67b72" stroke="none" d="M 311.986,62.9455 S 310.79,63.1585 310.527,62.8125 C 310.343,62.5745 311.11,60.8515 312.251,60.6925 C 312.94,60.5955 313.332,60.8025 313.332,60.8025 L 311.986,62.9455 Z" transform=""/><path fill="#f7a996" stroke="none" d="M 329.313,55.6789 C 328.246,64.1649 318.672,60.9039 317.402,61.9759 C 315.289,63.7589 312.024,63.5759 312.024,63.5759 C 311.241,63.5449 313.234,60.7879 313.234,60.7879 L 314.036,61.0359 S 313.238,60.5849 313.357,60.4939 C 313.567,60.3339 314.012,60.5609 314.57,60.8379 C 316.342,60.5249 316.288,58.3719 317.04,58.1919 C 319.963,57.4879 319.528,56.2609 319.528,56.2609 C 315.404,51.2419 318.472,45.6429 318.472,45.6429 S 330.53,45.9649 329.313,55.6789 Z" transform=""/><path fill="#e59585" stroke="none" d="M 349.202,58.3816 C 343.796,55.3176 337.693,48.7756 336.837,38.0636 C 338.064,38.6166 339.346,39.2776 340.692,40.0286 C 344.585,42.1966 348.194,41.6116 348.194,41.6116 L 360.963,43.3586 C 360.963,43.3596 357.407,52.5986 349.202,58.3816 Z" transform=""/><path fill="#d67b72" stroke="none" d="M 356.458,59.6526 S 357.872,59.5086 357.995,59.8076 C 358.117,60.1056 357.777,61.0396 357.439,61.2326 C 357.099,61.4246 355.637,61.1606 355.637,61.1606 L 356.458,59.6526 Z" transform=""/><path fill="#d67b72" stroke="none" d="M 356.198,60.4407 S 357.515,60.2667 357.797,60.7027 C 357.992,61.0067 356.662,62.9707 355.285,63.0497 C 354.449,63.0977 354,62.8117 354,62.8117 L 356.198,60.4407 Z" transform=""/><path fill="#f7a996" stroke="none" d="M 346.724,52.6997 C 347.229,52.7837 351.532,54.2487 349.937,59.5427 C 349.544,60.8517 354.305,60.5197 354.305,60.5197 S 355.25,59.6387 356.46,59.6517 C 358.083,59.6697 354.133,62.9657 354.133,62.9657 S 354.603,63.4987 354.451,63.5967 C 354.304,63.6907 353.423,63.0367 353.28,62.8757 C 352.87,62.7767 350.174,63.0657 348.639,62.6357 C 347.082,62.2017 341.252,61.2017 341.49,57.0907 C 341.765,52.3247 345.633,52.5137 346.724,52.6997 Z" transform=""/><path fill="#f7a996" stroke="none" d="M 359.806,26.2693 S 359.8,23.8403 361.695,22.3463 C 362.938,21.3653 364.774,20.1063 365.782,18.6123 C 368.516,14.5623 371.191,20.7243 370.338,26.0833 C 369.745,29.8043 367.722,34.2763 364.504,33.0563 C 361.782,32.0253 359.806,26.2693 359.806,26.2693 Z" transform=""/><path fill="url(#r-463c0cb438ab4d0d82e78212b3975f8d)" stroke="none" d="M 360.778,28.5745 C 360.162,27.3045 359.807,26.2695 359.807,26.2695 S 359.804,25.2165 360.343,24.0685 C 362.058,24.6095 363.846,26.0465 363.846,26.0465 L 360.778,28.5745 Z" opacity="1" fill-opacity="1" style="opacity: 1;fill-opacity: 1" transform=""/><path fill="#e59585" stroke="none" d="M 360.778,28.5745 C 360.162,27.3045 359.807,26.2695 359.807,26.2695 S 359.804,25.2165 360.343,24.0685 C 362.058,24.6095 363.846,26.0465 363.846,26.0465 L 360.778,28.5745 Z" transform=""/><path fill="#d67b72" stroke="none" d="M 363.216,30.2182 S 361.807,27.0432 363.537,24.7982 C 365.572,22.1572 366.472,18.6342 367.723,18.2522 C 369.249,17.7882 369.905,21.1382 370.119,22.4722 C 370.441,24.4522 369.897,28.3372 368.678,30.4992 C 367.812,32.0362 366.988,33.1252 364.663,32.9292 C 362.336,32.7332 363.216,30.2182 363.216,30.2182 Z" transform=""/><path fill="#f7a996" stroke="none" d="M 347.651,26.7328 S 347.469,24.3128 345.468,22.9658 C 344.156,22.0818 342.228,20.9668 341.109,19.5518 C 338.075,15.7228 335.876,22.0708 337.137,27.3488 C 338.009,31.0128 340.367,35.3198 343.483,33.8598 C 346.12,32.6228 347.651,26.7328 347.651,26.7328 Z" transform=""/><path fill="#e59585" stroke="none" d="M 346.432,30.2694 C 346.951,28.9564 347.651,26.7334 347.651,26.7334 S 347.573,25.6834 346.947,24.5804 C 345.282,25.2494 343.606,26.8184 343.606,26.8184 L 346.432,30.2694 Z" transform=""/><path fill="#d67b72" stroke="none" d="M 344.55,30.9302 S 345.713,27.6572 343.816,25.5492 C 341.586,23.0722 340.423,19.6262 339.148,19.3402 C 337.59,18.9942 337.191,22.3852 337.077,23.7322 C 336.911,25.7312 337.748,29.5632 339.129,31.6252 C 340.108,33.0912 341.013,34.1142 343.315,33.7432 C 345.621,33.3702 344.55,30.9302 344.55,30.9302 Z" transform=""/><path fill="#f7a996" stroke="none" d="M 361.234,25.8213 S 357.534,23.6433 353.841,23.9073 C 351.267,24.0913 348.254,24.5593 345.692,27.0363 C 342.206,30.4073 341.381,35.9703 341.337,38.8173 C 341.225,46.3373 346.247,51.0983 354.038,50.9173 C 361.718,50.7373 367.905,45.7193 367.39,38.2243 C 367.098,33.9503 365.718,28.4403 361.234,25.8213 Z" transform=""/><path fill="#d67b72" stroke="none" d="M 358.793,43.4167 S 357.027,39.4647 354.308,39.5677 C 352.666,39.6317 350.873,41.3547 349.98,43.9427 C 348.956,46.9257 352.844,47.8387 354.618,47.7027 C 356.229,47.5757 360.007,47.0427 358.793,43.4167 Z" transform=""/><path fill="#ffffff" stroke="none" d="M 352.542,45.107 C 352.036,45.126 351.61,44.731 351.591,44.226 C 351.571,43.72 351.966,43.294 352.47,43.274 C 352.978,43.255 353.404,43.65 353.422,44.156 C 353.443,44.661 353.048,45.088 352.542,45.107 Z" style="opacity: 0.4" opacity="0.4" transform=""/><ellipse cx="356.331934946377" cy="44.04405702290274" rx="0.9169633251495013" ry="0.9169633251495013" fill="#ffffff" stroke="none" style="opacity: 0.4" opacity="0.4" r="0.9169633251495013" transform=""/><path fill="#f7a996" stroke="none" d="M 355.205,24.3212 S 355.387,22.6872 353.631,22.5522 C 353.631,22.5522 355.042,23.3122 354.836,24.2542 L 355.205,24.3212 Z" transform=""/><path fill="#f7a996" stroke="none" d="M 354.784,24.1147 S 354.435,23.4777 353.78,23.3797 C 353.78,23.3797 354.61,23.8367 354.626,24.2427 L 354.784,24.1147 Z" transform=""/><ellipse cx="360.42526985932113" cy="38.21074256122912" rx="1.0062527259896306" ry="1.3991260896861992" fill="#304454" stroke="none" transform="rotate(178.4413 360.425271085878 38.21074211395104)" r="NaN"/><ellipse cx="348.41545839258026" cy="37.91802798447712" rx="1.0062527259896306" ry="1.3991260896861992" fill="#304454" stroke="none" transform="rotate(178.4413 348.4154584580944 37.918028165109924)" r="NaN"/><ellipse cx="352.9280683920273" cy="44.09996163889441" rx="0.3882147862614315" ry="0.3882147862614315" fill="#304454" stroke="none" r="0.3882147862614315" transform=""/><path fill="#304454" stroke="none" d="M 355.928,44.374 C 356.142,44.366 356.308,44.186 356.3,43.973 C 356.292,43.758 356.111,43.591 355.897,43.6 C 355.683,43.607 355.517,43.787 355.523,44.002 C 355.533,44.216 355.713,44.383 355.928,44.374 Z" transform=""/><path fill="#d67b72" stroke="none" d="M 59.8973,126.203 S 61.2813,126.526 61.3003,126.85 C 61.3183,127.172 60.6923,127.945 60.3093,128.017 C 59.9253,128.087 58.6293,127.361 58.6293,127.361 L 59.8973,126.203 Z" transform=""/><path fill="#d67b72" stroke="none" d="M 59.3942,126.863 S 60.6952,127.127 60.8202,127.631 C 60.9062,127.982 59.0092,129.407 57.6812,129.032 C 56.8752,128.806 56.5432,128.389 56.5432,128.389 L 59.3942,126.863 Z" transform=""/><path fill="#e59585" stroke="none" d="M 52.6307,116.427 C 53.0807,116.671 56.6737,119.457 53.4417,123.943 C 52.6427,125.053 57.2537,126.289 57.2537,126.289 S 58.4337,125.764 59.5727,126.17 C 61.1027,126.715 56.2937,128.546 56.2937,128.546 S 56.5647,129.202 56.3897,129.246 C 56.2197,129.287 55.5997,128.382 55.5167,128.183 C 55.1607,127.955 52.5177,127.352 51.2057,126.445 C 49.8747,125.528 44.6877,122.685 46.2507,118.876 C 48.0637,114.458 51.6597,115.896 52.6307,116.427 Z" transform=""/><path fill="#d67b72" stroke="none" d="M 15.2596,126.273 S 14.1786,126.498 14.0736,126.29 C 13.9696,126.084 13.9386,125.432 14.1676,125.275 C 14.4016,125.117 15.3136,125.16 15.3136,125.16 L 15.2596,126.273 Z" transform=""/><path fill="#d67b72" stroke="none" d="M 15.227,125.729 S 14.191,125.914 13.964,125.616 C 13.805,125.408 14.468,123.918 15.454,123.779 C 16.053,123.696 16.391,123.876 16.391,123.876 L 15.227,125.729 Z" transform=""/><path fill="#e59585" stroke="none" d="M 29.8867,119.527 C 28.6697,127.057 21.0117,123.964 19.9147,124.889 C 18.0857,126.433 15.2597,126.273 15.2597,126.273 C 14.5807,126.248 16.3057,123.861 16.3057,123.861 L 17.0027,124.075 S 16.3107,123.686 16.4137,123.606 C 16.5947,123.468 16.9797,123.664 17.4627,123.905 C 18.9977,123.633 18.9497,121.771 19.5997,121.615 C 22.1277,121.006 21.7527,119.943 21.7527,119.943 C 18.1847,115.599 24.1447,114.306 24.1447,114.306 S 31.2397,111.161 29.8867,119.527 Z" transform=""/><path fill="#e59585" stroke="none" d="M 22.2125,115.03 S 21.0065,112.663 18.9785,112.726 C 16.9495,112.787 16.9555,114.637 18.1085,115.205 C 19.2385,115.762 19.8975,113.865 19.8975,113.865 S 19.9815,116.035 18.0755,115.751 C 16.0525,115.451 16.0335,112.014 19.1025,112.02 C 21.2885,112.024 22.9095,114.094 22.9095,114.094 L 22.2125,115.03 Z" transform=""/><path fill="#f7a996" stroke="none" d="M 48.1942,116.612 S 44.5842,117.196 40.6922,115.029 C 33.5512,111.048 28.2962,109.615 22.6512,113.338 C 15.0832,118.326 13.5762,134.039 29.0922,137.296 C 51.8372,142.072 60.9622,118.358 60.9622,118.358 L 48.1942,116.612 Z" transform=""/><path fill="#e59585" stroke="none" d="M 41.527,137.056 C 40.115,131.146 42.409,129.253 42.409,129.253 L 46.248,135.188 C 44.794,135.947 43.221,136.586 41.527,137.056 Z" transform=""/><path fill="#e59585" stroke="none" d="M 29.0917,137.296 C 27.2467,136.866 25.6557,136.275 24.2937,135.558 L 25.5047,133.341 C 27.1607,135.845 29.6887,137.107 31.0717,137.643 C 30.4327,137.567 29.7717,137.455 29.0917,137.296 Z" transform=""/><path fill="#d67b72" stroke="none" d="M 12.0242,138.575 S 10.7772,138.834 10.6522,138.594 C 10.5322,138.354 10.4932,137.603 10.7622,137.421 C 11.0312,137.237 12.0852,137.287 12.0852,137.287 L 12.0242,138.575 Z" transform=""/><path fill="#d67b72" stroke="none" d="M 11.9862,137.945 S 10.7902,138.158 10.5272,137.812 C 10.3432,137.574 11.1102,135.851 12.2512,135.692 C 12.9402,135.595 13.3322,135.802 13.3322,135.802 L 11.9862,137.945 Z" transform=""/><path fill="#f7a996" stroke="none" d="M 29.313,130.679 C 28.246,139.165 18.672,135.904 17.402,136.976 C 15.289,138.759 12.024,138.576 12.024,138.576 C 11.241,138.545 13.234,135.788 13.234,135.788 L 14.036,136.036 S 13.238,135.585 13.357,135.494 C 13.567,135.334 14.012,135.561 14.57,135.838 C 16.342,135.525 16.288,133.372 17.04,133.192 C 19.963,132.488 19.528,131.261 19.528,131.261 C 15.404,126.242 18.472,120.643 18.472,120.643 S 30.53,120.965 29.313,130.679 Z" transform=""/><path fill="#e59585" stroke="none" d="M 49.202,133.382 C 43.796,130.318 37.693,123.776 36.837,113.064 C 38.064,113.617 39.346,114.278 40.692,115.029 C 44.585,117.197 48.194,116.612 48.194,116.612 L 60.963,118.359 C 60.963,118.36 57.407,127.599 49.202,133.382 Z" transform=""/><path fill="#d67b72" stroke="none" d="M 56.4585,134.653 S 57.8725,134.509 57.9955,134.808 C 58.1175,135.106 57.7775,136.04 57.4395,136.233 C 57.0995,136.425 55.6375,136.161 55.6375,136.161 L 56.4585,134.653 Z" transform=""/><path fill="#d67b72" stroke="none" d="M 56.1984,135.441 S 57.5154,135.267 57.7974,135.703 C 57.9924,136.007 56.6624,137.971 55.2854,138.05 C 54.4494,138.098 54.0004,137.812 54.0004,137.812 L 56.1984,135.441 Z" transform=""/><path fill="#f7a996" stroke="none" d="M 46.7236,127.7 C 47.2286,127.784 51.5316,129.249 49.9366,134.543 C 49.5436,135.852 54.3046,135.52 54.3046,135.52 S 55.2496,134.639 56.4596,134.652 C 58.0826,134.67 54.1326,137.966 54.1326,137.966 S 54.6026,138.499 54.4506,138.597 C 54.3036,138.691 53.4226,138.037 53.2796,137.876 C 52.8696,137.777 50.1736,138.066 48.6386,137.636 C 47.0816,137.202 41.2516,136.202 41.4896,132.091 C 41.7646,127.325 45.6326,127.514 46.7236,127.7 Z" transform=""/><path fill="#f7a996" stroke="none" d="M 59.8065,101.269 S 59.8005,98.8403 61.6955,97.3463 C 62.9385,96.3653 64.7745,95.1063 65.7825,93.6123 C 68.5165,89.5623 71.1915,95.7243 70.3385,101.083 C 69.7455,104.804 67.7225,109.276 64.5045,108.056 C 61.7825,107.025 59.8065,101.269 59.8065,101.269 Z" transform=""/><path fill="url(#r-10a160728b684d309dad6a6aa6c35731)" stroke="none" d="M 60.7778,103.574 C 60.1618,102.304 59.8068,101.269 59.8068,101.269 S 59.8038,100.216 60.3428,99.0685 C 62.0578,99.6095 63.8458,101.046 63.8458,101.046 L 60.7778,103.574 Z" opacity="1" fill-opacity="1" style="opacity: 1;fill-opacity: 1" transform=""/><path fill="#e59585" stroke="none" d="M 60.7778,103.574 C 60.1618,102.304 59.8068,101.269 59.8068,101.269 S 59.8038,100.216 60.3428,99.0685 C 62.0578,99.6095 63.8458,101.046 63.8458,101.046 L 60.7778,103.574 Z" transform=""/><path fill="#d67b72" stroke="none" d="M 63.2158,105.218 S 61.8068,102.043 63.5368,99.7982 C 65.5718,97.1572 66.4718,93.6342 67.7228,93.2522 C 69.2488,92.7882 69.9048,96.1382 70.1188,97.4722 C 70.4408,99.4522 69.8968,103.337 68.6778,105.499 C 67.8118,107.036 66.9878,108.125 64.6628,107.929 C 62.3358,107.733 63.2158,105.218 63.2158,105.218 Z" transform=""/><path fill="#f7a996" stroke="none" d="M 47.6507,101.733 S 47.4687,99.3128 45.4677,97.9658 C 44.1557,97.0818 42.2277,95.9668 41.1087,94.5518 C 38.0747,90.7228 35.8757,97.0708 37.1367,102.349 C 38.0087,106.013 40.3667,110.32 43.4827,108.86 C 46.1197,107.623 47.6507,101.733 47.6507,101.733 Z" transform=""/><path fill="#e59585" stroke="none" d="M 46.4317,105.269 C 46.9507,103.956 47.6507,101.733 47.6507,101.733 S 47.5727,100.683 46.9467,99.5804 C 45.2817,100.249 43.6057,101.818 43.6057,101.818 L 46.4317,105.269 Z" transform=""/><path fill="#d67b72" stroke="none" d="M 44.5504,105.93 S 45.7134,102.657 43.8164,100.549 C 41.5864,98.0722 40.4234,94.6262 39.1484,94.3402 C 37.5904,93.9942 37.1914,97.3852 37.0774,98.7322 C 36.9114,100.731 37.7484,104.563 39.1294,106.625 C 40.1084,108.091 41.0134,109.114 43.3154,108.743 C 45.6214,108.37 44.5504,105.93 44.5504,105.93 Z" transform=""/><path fill="#f7a996" stroke="none" d="M 61.2335,100.821 S 57.5335,98.6433 53.8405,98.9073 C 51.2665,99.0913 48.2535,99.5593 45.6915,102.036 C 42.2055,105.407 41.3805,110.97 41.3365,113.817 C 41.2245,121.337 46.2465,126.098 54.0375,125.917 C 61.7175,125.737 67.9045,120.719 67.3895,113.224 C 67.0975,108.95 65.7175,103.44 61.2335,100.821 Z" transform=""/><path fill="#d67b72" stroke="none" d="M 58.7932,118.417 S 57.0272,114.465 54.3082,114.568 C 52.6662,114.632 50.8732,116.355 49.9802,118.943 C 48.9562,121.926 52.8442,122.839 54.6182,122.703 C 56.2292,122.576 60.0072,122.043 58.7932,118.417 Z" transform=""/><path fill="#ffffff" stroke="none" d="M 52.5422,120.107 C 52.0362,120.126 51.6102,119.731 51.5912,119.226 C 51.5712,118.72 51.9662,118.294 52.4702,118.274 C 52.9782,118.255 53.4042,118.65 53.4222,119.156 C 53.4432,119.661 53.0482,120.088 52.5422,120.107 Z" style="opacity: 0.4" opacity="0.4" transform=""/><ellipse cx="56.331934946377" cy="119.04405702290275" rx="0.9169633251495013" ry="0.9169633251495013" fill="#ffffff" stroke="none" style="opacity: 0.4" opacity="0.4" r="0.9169633251495013" transform=""/><path fill="#f7a996" stroke="none" d="M 55.2046,99.3212 S 55.3866,97.6872 53.6306,97.5522 C 53.6306,97.5522 55.0416,98.3122 54.8356,99.2542 L 55.2046,99.3212 Z" transform=""/><path fill="#f7a996" stroke="none" d="M 54.7837,99.1147 S 54.4347,98.4777 53.7797,98.3797 C 53.7797,98.3797 54.6097,98.8367 54.6257,99.2427 L 54.7837,99.1147 Z" transform=""/><ellipse cx="60.425269859321126" cy="113.21074256122913" rx="1.0062527259896306" ry="1.3991260896861992" fill="#304454" stroke="none" transform="rotate(178.4413 60.42527108587803 113.21074211395106)" r="NaN"/><ellipse cx="48.41545839258024" cy="112.91802798447712" rx="1.0062527259896306" ry="1.3991260896861992" fill="#304454" stroke="none" transform="rotate(178.4413 48.415458458094385 112.91802816510993)" r="NaN"/><ellipse cx="52.928068392027285" cy="119.09996163889441" rx="0.3882147862614315" ry="0.3882147862614315" fill="#304454" stroke="none" r="0.3882147862614315" transform=""/><path fill="#304454" stroke="none" d="M 55.9282,119.374 C 56.1422,119.366 56.3082,119.186 56.3002,118.973 C 56.2922,118.758 56.1112,118.591 55.8972,118.6 C 55.6832,118.607 55.5172,118.787 55.5232,119.002 C 55.5332,119.216 55.7132,119.383 55.9282,119.374 Z" transform=""/><path fill="#d67b72" stroke="none" d="M 134.897,126.203 S 136.281,126.526 136.3,126.85 C 136.318,127.172 135.692,127.945 135.309,128.017 C 134.925,128.087 133.629,127.361 133.629,127.361 L 134.897,126.203 Z" transform=""/><path fill="#d67b72" stroke="none" d="M 134.394,126.863 S 135.695,127.127 135.82,127.631 C 135.906,127.982 134.009,129.407 132.681,129.032 C 131.875,128.806 131.543,128.389 131.543,128.389 L 134.394,126.863 Z" transform=""/><path fill="#e59585" stroke="none" d="M 127.631,116.427 C 128.081,116.671 131.674,119.457 128.442,123.943 C 127.643,125.053 132.254,126.289 132.254,126.289 S 133.434,125.764 134.573,126.17 C 136.103,126.715 131.294,128.546 131.294,128.546 S 131.565,129.202 131.39,129.246 C 131.22,129.287 130.6,128.382 130.517,128.183 C 130.161,127.955 127.518,127.352 126.206,126.445 C 124.875,125.528 119.688,122.685 121.251,118.876 C 123.064,114.458 126.66,115.896 127.631,116.427 Z" transform=""/><path fill="#d67b72" stroke="none" d="M 90.2596,126.273 S 89.1786,126.498 89.0736,126.29 C 88.9696,126.084 88.9386,125.432 89.1676,125.275 C 89.4016,125.117 90.3136,125.16 90.3136,125.16 L 90.2596,126.273 Z" transform=""/><path fill="#d67b72" stroke="none" d="M 90.227,125.729 S 89.191,125.914 88.964,125.616 C 88.805,125.408 89.468,123.918 90.454,123.779 C 91.053,123.696 91.391,123.876 91.391,123.876 L 90.227,125.729 Z" transform=""/><path fill="#e59585" stroke="none" d="M 104.887,119.527 C 103.67,127.057 96.0117,123.964 94.9147,124.889 C 93.0857,126.433 90.2597,126.273 90.2597,126.273 C 89.5807,126.248 91.3057,123.861 91.3057,123.861 L 92.0027,124.075 S 91.3107,123.686 91.4137,123.606 C 91.5947,123.468 91.9797,123.664 92.4627,123.905 C 93.9977,123.633 93.9497,121.771 94.5997,121.615 C 97.1277,121.006 96.7527,119.943 96.7527,119.943 C 93.1847,115.599 99.1447,114.306 99.1447,114.306 S 106.24,111.161 104.887,119.527 Z" transform=""/><path fill="#e59585" stroke="none" d="M 97.2125,115.03 S 96.0065,112.663 93.9785,112.726 C 91.9495,112.787 91.9555,114.637 93.1085,115.205 C 94.2385,115.762 94.8975,113.865 94.8975,113.865 S 94.9815,116.035 93.0755,115.751 C 91.0525,115.451 91.0335,112.014 94.1025,112.02 C 96.2885,112.024 97.9095,114.094 97.9095,114.094 L 97.2125,115.03 Z" transform=""/><path fill="#f7a996" stroke="none" d="M 123.194,116.612 S 119.584,117.196 115.692,115.029 C 108.551,111.048 103.296,109.615 97.6512,113.338 C 90.0832,118.326 88.5762,134.039 104.092,137.296 C 126.837,142.072 135.962,118.358 135.962,118.358 L 123.194,116.612 Z" transform=""/><path fill="#e59585" stroke="none" d="M 116.527,137.056 C 115.115,131.146 117.409,129.253 117.409,129.253 L 121.248,135.188 C 119.794,135.947 118.221,136.586 116.527,137.056 Z" transform=""/><path fill="#e59585" stroke="none" d="M 104.092,137.296 C 102.247,136.866 100.656,136.275 99.2937,135.558 L 100.505,133.341 C 102.161,135.845 104.689,137.107 106.072,137.643 C 105.433,137.567 104.772,137.455 104.092,137.296 Z" transform=""/><path fill="#d67b72" stroke="none" d="M 87.0242,138.575 S 85.7772,138.834 85.6522,138.594 C 85.5322,138.354 85.4932,137.603 85.7622,137.421 C 86.0312,137.237 87.0852,137.287 87.0852,137.287 L 87.0242,138.575 Z" transform=""/><path fill="#d67b72" stroke="none" d="M 86.9862,137.945 S 85.7902,138.158 85.5272,137.812 C 85.3432,137.574 86.1102,135.851 87.2512,135.692 C 87.9402,135.595 88.3322,135.802 88.3322,135.802 L 86.9862,137.945 Z" transform=""/><path fill="#f7a996" stroke="none" d="M 104.313,130.679 C 103.246,139.165 93.672,135.904 92.402,136.976 C 90.289,138.759 87.024,138.576 87.024,138.576 C 86.241,138.545 88.234,135.788 88.234,135.788 L 89.036,136.036 S 88.238,135.585 88.357,135.494 C 88.567,135.334 89.012,135.561 89.57,135.838 C 91.342,135.525 91.288,133.372 92.04,133.192 C 94.963,132.488 94.528,131.261 94.528,131.261 C 90.404,126.242 93.472,120.643 93.472,120.643 S 105.53,120.965 104.313,130.679 Z" transform=""/><path fill="#e59585" stroke="none" d="M 124.202,133.382 C 118.796,130.318 112.693,123.776 111.837,113.064 C 113.064,113.617 114.346,114.278 115.692,115.029 C 119.585,117.197 123.194,116.612 123.194,116.612 L 135.963,118.359 C 135.963,118.36 132.407,127.599 124.202,133.382 Z" transform=""/><path fill="#d67b72" stroke="none" d="M 131.458,134.653 S 132.872,134.509 132.995,134.808 C 133.117,135.106 132.777,136.04 132.439,136.233 C 132.099,136.425 130.637,136.161 130.637,136.161 L 131.458,134.653 Z" transform=""/><path fill="#d67b72" stroke="none" d="M 131.198,135.441 S 132.515,135.267 132.797,135.703 C 132.992,136.007 131.662,137.971 130.285,138.05 C 129.449,138.098 129,137.812 129,137.812 L 131.198,135.441 Z" transform=""/><path fill="#f7a996" stroke="none" d="M 121.724,127.7 C 122.229,127.784 126.532,129.249 124.937,134.543 C 124.544,135.852 129.305,135.52 129.305,135.52 S 130.25,134.639 131.46,134.652 C 133.083,134.67 129.133,137.966 129.133,137.966 S 129.603,138.499 129.451,138.597 C 129.304,138.691 128.423,138.037 128.28,137.876 C 127.87,137.777 125.174,138.066 123.639,137.636 C 122.082,137.202 116.252,136.202 116.49,132.091 C 116.765,127.325 120.633,127.514 121.724,127.7 Z" transform=""/><path fill="#f7a996" stroke="none" d="M 134.806,101.269 S 134.8,98.8403 136.695,97.3463 C 137.938,96.3653 139.774,95.1063 140.782,93.6123 C 143.516,89.5623 146.191,95.7243 145.338,101.083 C 144.745,104.804 142.722,109.276 139.504,108.056 C 136.782,107.025 134.806,101.269 134.806,101.269 Z" transform=""/><path fill="url(#r-0fd753b1103a40a1b3e3242ac21f168a)" stroke="none" d="M 135.778,103.574 C 135.162,102.304 134.807,101.269 134.807,101.269 S 134.804,100.216 135.343,99.0685 C 137.058,99.6095 138.846,101.046 138.846,101.046 L 135.778,103.574 Z" opacity="1" fill-opacity="1" style="opacity: 1;fill-opacity: 1" transform=""/><path fill="#e59585" stroke="none" d="M 135.778,103.574 C 135.162,102.304 134.807,101.269 134.807,101.269 S 134.804,100.216 135.343,99.0685 C 137.058,99.6095 138.846,101.046 138.846,101.046 L 135.778,103.574 Z" transform=""/><path fill="#d67b72" stroke="none" d="M 138.216,105.218 S 136.807,102.043 138.537,99.7982 C 140.572,97.1572 141.472,93.6342 142.723,93.2522 C 144.249,92.7882 144.905,96.1382 145.119,97.4722 C 145.441,99.4522 144.897,103.337 143.678,105.499 C 142.812,107.036 141.988,108.125 139.663,107.929 C 137.336,107.733 138.216,105.218 138.216,105.218 Z" transform=""/><path fill="#f7a996" stroke="none" d="M 122.651,101.733 S 122.469,99.3128 120.468,97.9658 C 119.156,97.0818 117.228,95.9668 116.109,94.5518 C 113.075,90.7228 110.876,97.0708 112.137,102.349 C 113.009,106.013 115.367,110.32 118.483,108.86 C 121.12,107.623 122.651,101.733 122.651,101.733 Z" transform=""/><path fill="#e59585" stroke="none" d="M 121.432,105.269 C 121.951,103.956 122.651,101.733 122.651,101.733 S 122.573,100.683 121.947,99.5804 C 120.282,100.249 118.606,101.818 118.606,101.818 L 121.432,105.269 Z" transform=""/><path fill="#d67b72" stroke="none" d="M 119.55,105.93 S 120.713,102.657 118.816,100.549 C 116.586,98.0722 115.423,94.6262 114.148,94.3402 C 112.59,93.9942 112.191,97.3852 112.077,98.7322 C 111.911,100.731 112.748,104.563 114.129,106.625 C 115.108,108.091 116.013,109.114 118.315,108.743 C 120.621,108.37 119.55,105.93 119.55,105.93 Z" transform=""/><path fill="#f7a996" stroke="none" d="M 136.234,100.821 S 132.534,98.6433 128.841,98.9073 C 126.267,99.0913 123.254,99.5593 120.692,102.036 C 117.206,105.407 116.381,110.97 116.337,113.817 C 116.225,121.337 121.247,126.098 129.038,125.917 C 136.718,125.737 142.905,120.719 142.39,113.224 C 142.098,108.95 140.718,103.44 136.234,100.821 Z" transform=""/><path fill="#d67b72" stroke="none" d="M 133.793,118.417 S 132.027,114.465 129.308,114.568 C 127.666,114.632 125.873,116.355 124.98,118.943 C 123.956,121.926 127.844,122.839 129.618,122.703 C 131.229,122.576 135.007,122.043 133.793,118.417 Z" transform=""/><path fill="#ffffff" stroke="none" d="M 127.542,120.107 C 127.036,120.126 126.61,119.731 126.591,119.226 C 126.571,118.72 126.966,118.294 127.47,118.274 C 127.978,118.255 128.404,118.65 128.422,119.156 C 128.443,119.661 128.048,120.088 127.542,120.107 Z" style="opacity: 0.4" opacity="0.4" transform=""/><ellipse cx="131.331934946377" cy="119.04405702290275" rx="0.9169633251495013" ry="0.9169633251495013" fill="#ffffff" stroke="none" style="opacity: 0.4" opacity="0.4" r="0.9169633251495013" transform=""/><path fill="#f7a996" stroke="none" d="M 130.205,99.3212 S 130.387,97.6872 128.631,97.5522 C 128.631,97.5522 130.042,98.3122 129.836,99.2542 L 130.205,99.3212 Z" transform=""/><path fill="#f7a996" stroke="none" d="M 129.784,99.1147 S 129.435,98.4777 128.78,98.3797 C 128.78,98.3797 129.61,98.8367 129.626,99.2427 L 129.784,99.1147 Z" transform=""/><ellipse cx="135.42526985932113" cy="113.21074256122913" rx="1.0062527259896306" ry="1.3991260896861992" fill="#304454" stroke="none" transform="rotate(178.4413 135.42527108587802 113.21074211395106)" r="NaN"/><ellipse cx="123.41545839258023" cy="112.91802798447712" rx="1.0062527259896306" ry="1.3991260896861992" fill="#304454" stroke="none" transform="rotate(178.4413 123.41545845809438 112.91802816510993)" r="NaN"/><ellipse cx="127.92806839202728" cy="119.09996163889441" rx="0.3882147862614315" ry="0.3882147862614315" fill="#304454" stroke="none" r="0.3882147862614315" transform=""/><path fill="#304454" stroke="none" d="M 130.928,119.374 C 131.142,119.366 131.308,119.186 131.3,118.973 C 131.292,118.758 131.111,118.591 130.897,118.6 C 130.683,118.607 130.517,118.787 130.523,119.002 C 130.533,119.216 130.713,119.383 130.928,119.374 Z" transform=""/><path fill="#d67b72" stroke="none" d="M 209.897,126.203 S 211.281,126.526 211.3,126.85 C 211.318,127.172 210.692,127.945 210.309,128.017 C 209.925,128.087 208.629,127.361 208.629,127.361 L 209.897,126.203 Z" transform=""/><path fill="#d67b72" stroke="none" d="M 209.394,126.863 S 210.695,127.127 210.82,127.631 C 210.906,127.982 209.009,129.407 207.681,129.032 C 206.875,128.806 206.543,128.389 206.543,128.389 L 209.394,126.863 Z" transform=""/><path fill="#e59585" stroke="none" d="M 202.631,116.427 C 203.081,116.671 206.674,119.457 203.442,123.943 C 202.643,125.053 207.254,126.289 207.254,126.289 S 208.434,125.764 209.573,126.17 C 211.103,126.715 206.294,128.546 206.294,128.546 S 206.565,129.202 206.39,129.246 C 206.22,129.287 205.6,128.382 205.517,128.183 C 205.161,127.955 202.518,127.352 201.206,126.445 C 199.875,125.528 194.688,122.685 196.251,118.876 C 198.064,114.458 201.66,115.896 202.631,116.427 Z" transform=""/><path fill="#d67b72" stroke="none" d="M 165.26,126.273 S 164.179,126.498 164.074,126.29 C 163.97,126.084 163.939,125.432 164.168,125.275 C 164.402,125.117 165.314,125.16 165.314,125.16 L 165.26,126.273 Z" transform=""/><path fill="#d67b72" stroke="none" d="M 165.227,125.729 S 164.191,125.914 163.964,125.616 C 163.805,125.408 164.468,123.918 165.454,123.779 C 166.053,123.696 166.391,123.876 166.391,123.876 L 165.227,125.729 Z" transform=""/><path fill="#e59585" stroke="none" d="M 179.887,119.527 C 178.67,127.057 171.012,123.964 169.915,124.889 C 168.086,126.433 165.26,126.273 165.26,126.273 C 164.581,126.248 166.306,123.861 166.306,123.861 L 167.003,124.075 S 166.311,123.686 166.414,123.606 C 166.595,123.468 166.98,123.664 167.463,123.905 C 168.998,123.633 168.95,121.771 169.6,121.615 C 172.128,121.006 171.753,119.943 171.753,119.943 C 168.185,115.599 174.145,114.306 174.145,114.306 S 181.24,111.161 179.887,119.527 Z" transform=""/><path fill="#e59585" stroke="none" d="M 172.213,115.03 S 171.007,112.663 168.979,112.726 C 166.95,112.787 166.956,114.637 168.109,115.205 C 169.239,115.762 169.898,113.865 169.898,113.865 S 169.982,116.035 168.076,115.751 C 166.053,115.451 166.034,112.014 169.103,112.02 C 171.289,112.024 172.91,114.094 172.91,114.094 L 172.213,115.03 Z" transform=""/><path fill="#f7a996" stroke="none" d="M 198.194,116.612 S 194.584,117.196 190.692,115.029 C 183.551,111.048 178.296,109.615 172.651,113.338 C 165.083,118.326 163.576,134.039 179.092,137.296 C 201.837,142.072 210.962,118.358 210.962,118.358 L 198.194,116.612 Z" transform=""/><path fill="#e59585" stroke="none" d="M 191.527,137.056 C 190.115,131.146 192.409,129.253 192.409,129.253 L 196.248,135.188 C 194.794,135.947 193.221,136.586 191.527,137.056 Z" transform=""/><path fill="#e59585" stroke="none" d="M 179.092,137.296 C 177.247,136.866 175.656,136.275 174.294,135.558 L 175.505,133.341 C 177.161,135.845 179.689,137.107 181.072,137.643 C 180.433,137.567 179.772,137.455 179.092,137.296 Z" transform=""/><path fill="#d67b72" stroke="none" d="M 162.024,138.575 S 160.777,138.834 160.652,138.594 C 160.532,138.354 160.493,137.603 160.762,137.421 C 161.031,137.237 162.085,137.287 162.085,137.287 L 162.024,138.575 Z" transform=""/><path fill="#d67b72" stroke="none" d="M 161.986,137.945 S 160.79,138.158 160.527,137.812 C 160.343,137.574 161.11,135.851 162.251,135.692 C 162.94,135.595 163.332,135.802 163.332,135.802 L 161.986,137.945 Z" transform=""/><path fill="#f7a996" stroke="none" d="M 179.313,130.679 C 178.246,139.165 168.672,135.904 167.402,136.976 C 165.289,138.759 162.024,138.576 162.024,138.576 C 161.241,138.545 163.234,135.788 163.234,135.788 L 164.036,136.036 S 163.238,135.585 163.357,135.494 C 163.567,135.334 164.012,135.561 164.57,135.838 C 166.342,135.525 166.288,133.372 167.04,133.192 C 169.963,132.488 169.528,131.261 169.528,131.261 C 165.404,126.242 168.472,120.643 168.472,120.643 S 180.53,120.965 179.313,130.679 Z" transform=""/><path fill="#e59585" stroke="none" d="M 199.202,133.382 C 193.796,130.318 187.693,123.776 186.837,113.064 C 188.064,113.617 189.346,114.278 190.692,115.029 C 194.585,117.197 198.194,116.612 198.194,116.612 L 210.963,118.359 C 210.963,118.36 207.407,127.599 199.202,133.382 Z" transform=""/><path fill="#d67b72" stroke="none" d="M 206.458,134.653 S 207.872,134.509 207.995,134.808 C 208.117,135.106 207.777,136.04 207.439,136.233 C 207.099,136.425 205.637,136.161 205.637,136.161 L 206.458,134.653 Z" transform=""/><path fill="#d67b72" stroke="none" d="M 206.198,135.441 S 207.515,135.267 207.797,135.703 C 207.992,136.007 206.662,137.971 205.285,138.05 C 204.449,138.098 204,137.812 204,137.812 L 206.198,135.441 Z" transform=""/><path fill="#f7a996" stroke="none" d="M 196.724,127.7 C 197.229,127.784 201.532,129.249 199.937,134.543 C 199.544,135.852 204.305,135.52 204.305,135.52 S 205.25,134.639 206.46,134.652 C 208.083,134.67 204.133,137.966 204.133,137.966 S 204.603,138.499 204.451,138.597 C 204.304,138.691 203.423,138.037 203.28,137.876 C 202.87,137.777 200.174,138.066 198.639,137.636 C 197.082,137.202 191.252,136.202 191.49,132.091 C 191.765,127.325 195.633,127.514 196.724,127.7 Z" transform=""/><path fill="#f7a996" stroke="none" d="M 209.806,101.269 S 209.8,98.8403 211.695,97.3463 C 212.938,96.3653 214.774,95.1063 215.782,93.6123 C 218.516,89.5623 221.191,95.7243 220.338,101.083 C 219.745,104.804 217.722,109.276 214.504,108.056 C 211.782,107.025 209.806,101.269 209.806,101.269 Z" transform=""/><path fill="url(#r-4aeafba23cdb47be89b63eaf5e5f728b)" stroke="none" d="M 210.778,103.574 C 210.162,102.304 209.807,101.269 209.807,101.269 S 209.804,100.216 210.343,99.0685 C 212.058,99.6095 213.846,101.046 213.846,101.046 L 210.778,103.574 Z" opacity="1" fill-opacity="1" style="opacity: 1;fill-opacity: 1" transform=""/><path fill="#e59585" stroke="none" d="M 210.778,103.574 C 210.162,102.304 209.807,101.269 209.807,101.269 S 209.804,100.216 210.343,99.0685 C 212.058,99.6095 213.846,101.046 213.846,101.046 L 210.778,103.574 Z" transform=""/><path fill="#d67b72" stroke="none" d="M 213.216,105.218 S 211.807,102.043 213.537,99.7982 C 215.572,97.1572 216.472,93.6342 217.723,93.2522 C 219.249,92.7882 219.905,96.1382 220.119,97.4722 C 220.441,99.4522 219.897,103.337 218.678,105.499 C 217.812,107.036 216.988,108.125 214.663,107.929 C 212.336,107.733 213.216,105.218 213.216,105.218 Z" transform=""/><path fill="#f7a996" stroke="none" d="M 197.651,101.733 S 197.469,99.3128 195.468,97.9658 C 194.156,97.0818 192.228,95.9668 191.109,94.5518 C 188.075,90.7228 185.876,97.0708 187.137,102.349 C 188.009,106.013 190.367,110.32 193.483,108.86 C 196.12,107.623 197.651,101.733 197.651,101.733 Z" transform=""/><path fill="#e59585" stroke="none" d="M 196.432,105.269 C 196.951,103.956 197.651,101.733 197.651,101.733 S 197.573,100.683 196.947,99.5804 C 195.282,100.249 193.606,101.818 193.606,101.818 L 196.432,105.269 Z" transform=""/><path fill="#d67b72" stroke="none" d="M 194.55,105.93 S 195.713,102.657 193.816,100.549 C 191.586,98.0722 190.423,94.6262 189.148,94.3402 C 187.59,93.9942 187.191,97.3852 187.077,98.7322 C 186.911,100.731 187.748,104.563 189.129,106.625 C 190.108,108.091 191.013,109.114 193.315,108.743 C 195.621,108.37 194.55,105.93 194.55,105.93 Z" transform=""/><path fill="#f7a996" stroke="none" d="M 211.234,100.821 S 207.534,98.6433 203.841,98.9073 C 201.267,99.0913 198.254,99.5593 195.692,102.036 C 192.206,105.407 191.381,110.97 191.337,113.817 C 191.225,121.337 196.247,126.098 204.038,125.917 C 211.718,125.737 217.905,120.719 217.39,113.224 C 217.098,108.95 215.718,103.44 211.234,100.821 Z" transform=""/><path fill="#d67b72" stroke="none" d="M 208.793,118.417 S 207.027,114.465 204.308,114.568 C 202.666,114.632 200.873,116.355 199.98,118.943 C 198.956,121.926 202.844,122.839 204.618,122.703 C 206.229,122.576 210.007,122.043 208.793,118.417 Z" transform=""/><path fill="#ffffff" stroke="none" d="M 202.542,120.107 C 202.036,120.126 201.61,119.731 201.591,119.226 C 201.571,118.72 201.966,118.294 202.47,118.274 C 202.978,118.255 203.404,118.65 203.422,119.156 C 203.443,119.661 203.048,120.088 202.542,120.107 Z" style="opacity: 0.4" opacity="0.4" transform=""/><ellipse cx="206.331934946377" cy="119.04405702290275" rx="0.9169633251495013" ry="0.9169633251495013" fill="#ffffff" stroke="none" style="opacity: 0.4" opacity="0.4" r="0.9169633251495013" transform=""/><path fill="#f7a996" stroke="none" d="M 205.205,99.3212 S 205.387,97.6872 203.631,97.5522 C 203.631,97.5522 205.042,98.3122 204.836,99.2542 L 205.205,99.3212 Z" transform=""/><path fill="#f7a996" stroke="none" d="M 204.784,99.1147 S 204.435,98.4777 203.78,98.3797 C 203.78,98.3797 204.61,98.8367 204.626,99.2427 L 204.784,99.1147 Z" transform=""/><ellipse cx="210.42526985932113" cy="113.21074256122913" rx="1.0062527259896306" ry="1.3991260896861992" fill="#304454" stroke="none" transform="rotate(178.4413 210.42527108587802 113.21074211395106)" r="NaN"/><ellipse cx="198.41545839258023" cy="112.91802798447712" rx="1.0062527259896306" ry="1.3991260896861992" fill="#304454" stroke="none" transform="rotate(178.4413 198.41545845809438 112.91802816510993)" r="NaN"/><ellipse cx="202.92806839202728" cy="119.09996163889441" rx="0.3882147862614315" ry="0.3882147862614315" fill="#304454" stroke="none" r="0.3882147862614315" transform=""/><path fill="#304454" stroke="none" d="M 205.928,119.374 C 206.142,119.366 206.308,119.186 206.3,118.973 C 206.292,118.758 206.111,118.591 205.897,118.6 C 205.683,118.607 205.517,118.787 205.523,119.002 C 205.533,119.216 205.713,119.383 205.928,119.374 Z" transform=""/><path fill="#d67b72" stroke="none" d="M 284.897,126.203 S 286.281,126.526 286.3,126.85 C 286.318,127.172 285.692,127.945 285.309,128.017 C 284.925,128.087 283.629,127.361 283.629,127.361 L 284.897,126.203 Z" transform=""/><path fill="#d67b72" stroke="none" d="M 284.394,126.863 S 285.695,127.127 285.82,127.631 C 285.906,127.982 284.009,129.407 282.681,129.032 C 281.875,128.806 281.543,128.389 281.543,128.389 L 284.394,126.863 Z" transform=""/><path fill="#e59585" stroke="none" d="M 277.631,116.427 C 278.081,116.671 281.674,119.457 278.442,123.943 C 277.643,125.053 282.254,126.289 282.254,126.289 S 283.434,125.764 284.573,126.17 C 286.103,126.715 281.294,128.546 281.294,128.546 S 281.565,129.202 281.39,129.246 C 281.22,129.287 280.6,128.382 280.517,128.183 C 280.161,127.955 277.518,127.352 276.206,126.445 C 274.875,125.528 269.688,122.685 271.251,118.876 C 273.064,114.458 276.66,115.896 277.631,116.427 Z" transform=""/><path fill="#d67b72" stroke="none" d="M 240.26,126.273 S 239.179,126.498 239.074,126.29 C 238.97,126.084 238.939,125.432 239.168,125.275 C 239.402,125.117 240.314,125.16 240.314,125.16 L 240.26,126.273 Z" transform=""/><path fill="#d67b72" stroke="none" d="M 240.227,125.729 S 239.191,125.914 238.964,125.616 C 238.805,125.408 239.468,123.918 240.454,123.779 C 241.053,123.696 241.391,123.876 241.391,123.876 L 240.227,125.729 Z" transform=""/><path fill="#e59585" stroke="none" d="M 254.887,119.527 C 253.67,127.057 246.012,123.964 244.915,124.889 C 243.086,126.433 240.26,126.273 240.26,126.273 C 239.581,126.248 241.306,123.861 241.306,123.861 L 242.003,124.075 S 241.311,123.686 241.414,123.606 C 241.595,123.468 241.98,123.664 242.463,123.905 C 243.998,123.633 243.95,121.771 244.6,121.615 C 247.128,121.006 246.753,119.943 246.753,119.943 C 243.185,115.599 249.145,114.306 249.145,114.306 S 256.24,111.161 254.887,119.527 Z" transform=""/><path fill="#e59585" stroke="none" d="M 247.213,115.03 S 246.007,112.663 243.979,112.726 C 241.95,112.787 241.956,114.637 243.109,115.205 C 244.239,115.762 244.898,113.865 244.898,113.865 S 244.982,116.035 243.076,115.751 C 241.053,115.451 241.034,112.014 244.103,112.02 C 246.289,112.024 247.91,114.094 247.91,114.094 L 247.213,115.03 Z" transform=""/><path fill="#f7a996" stroke="none" d="M 273.194,116.612 S 269.584,117.196 265.692,115.029 C 258.551,111.048 253.296,109.615 247.651,113.338 C 240.083,118.326 238.576,134.039 254.092,137.296 C 276.837,142.072 285.962,118.358 285.962,118.358 L 273.194,116.612 Z" transform=""/><path fill="#e59585" stroke="none" d="M 266.527,137.056 C 265.115,131.146 267.409,129.253 267.409,129.253 L 271.248,135.188 C 269.794,135.947 268.221,136.586 266.527,137.056 Z" transform=""/><path fill="#e59585" stroke="none" d="M 254.092,137.296 C 252.247,136.866 250.656,136.275 249.294,135.558 L 250.505,133.341 C 252.161,135.845 254.689,137.107 256.072,137.643 C 255.433,137.567 254.772,137.455 254.092,137.296 Z" transform=""/><path fill="#d67b72" stroke="none" d="M 237.024,138.575 S 235.777,138.834 235.652,138.594 C 235.532,138.354 235.493,137.603 235.762,137.421 C 236.031,137.237 237.085,137.287 237.085,137.287 L 237.024,138.575 Z" transform=""/><path fill="#d67b72" stroke="none" d="M 236.986,137.945 S 235.79,138.158 235.527,137.812 C 235.343,137.574 236.11,135.851 237.251,135.692 C 237.94,135.595 238.332,135.802 238.332,135.802 L 236.986,137.945 Z" transform=""/><path fill="#f7a996" stroke="none" d="M 254.313,130.679 C 253.246,139.165 243.672,135.904 242.402,136.976 C 240.289,138.759 237.024,138.576 237.024,138.576 C 236.241,138.545 238.234,135.788 238.234,135.788 L 239.036,136.036 S 238.238,135.585 238.357,135.494 C 238.567,135.334 239.012,135.561 239.57,135.838 C 241.342,135.525 241.288,133.372 242.04,133.192 C 244.963,132.488 244.528,131.261 244.528,131.261 C 240.404,126.242 243.472,120.643 243.472,120.643 S 255.53,120.965 254.313,130.679 Z" transform=""/><path fill="#e59585" stroke="none" d="M 274.202,133.382 C 268.796,130.318 262.693,123.776 261.837,113.064 C 263.064,113.617 264.346,114.278 265.692,115.029 C 269.585,117.197 273.194,116.612 273.194,116.612 L 285.963,118.359 C 285.963,118.36 282.407,127.599 274.202,133.382 Z" transform=""/><path fill="#d67b72" stroke="none" d="M 281.458,134.653 S 282.872,134.509 282.995,134.808 C 283.117,135.106 282.777,136.04 282.439,136.233 C 282.099,136.425 280.637,136.161 280.637,136.161 L 281.458,134.653 Z" transform=""/><path fill="#d67b72" stroke="none" d="M 281.198,135.441 S 282.515,135.267 282.797,135.703 C 282.992,136.007 281.662,137.971 280.285,138.05 C 279.449,138.098 279,137.812 279,137.812 L 281.198,135.441 Z" transform=""/><path fill="#f7a996" stroke="none" d="M 271.724,127.7 C 272.229,127.784 276.532,129.249 274.937,134.543 C 274.544,135.852 279.305,135.52 279.305,135.52 S 280.25,134.639 281.46,134.652 C 283.083,134.67 279.133,137.966 279.133,137.966 S 279.603,138.499 279.451,138.597 C 279.304,138.691 278.423,138.037 278.28,137.876 C 277.87,137.777 275.174,138.066 273.639,137.636 C 272.082,137.202 266.252,136.202 266.49,132.091 C 266.765,127.325 270.633,127.514 271.724,127.7 Z" transform=""/><path fill="#f7a996" stroke="none" d="M 284.806,101.269 S 284.8,98.8403 286.695,97.3463 C 287.938,96.3653 289.774,95.1063 290.782,93.6123 C 293.516,89.5623 296.191,95.7243 295.338,101.083 C 294.745,104.804 292.722,109.276 289.504,108.056 C 286.782,107.025 284.806,101.269 284.806,101.269 Z" transform=""/><path fill="url(#r-7e40192c82bd472097dca19a40ac3489)" stroke="none" d="M 285.778,103.574 C 285.162,102.304 284.807,101.269 284.807,101.269 S 284.804,100.216 285.343,99.0685 C 287.058,99.6095 288.846,101.046 288.846,101.046 L 285.778,103.574 Z" opacity="1" fill-opacity="1" style="opacity: 1;fill-opacity: 1" transform=""/><path fill="#e59585" stroke="none" d="M 285.778,103.574 C 285.162,102.304 284.807,101.269 284.807,101.269 S 284.804,100.216 285.343,99.0685 C 287.058,99.6095 288.846,101.046 288.846,101.046 L 285.778,103.574 Z" transform=""/><path fill="#d67b72" stroke="none" d="M 288.216,105.218 S 286.807,102.043 288.537,99.7982 C 290.572,97.1572 291.472,93.6342 292.723,93.2522 C 294.249,92.7882 294.905,96.1382 295.119,97.4722 C 295.441,99.4522 294.897,103.337 293.678,105.499 C 292.812,107.036 291.988,108.125 289.663,107.929 C 287.336,107.733 288.216,105.218 288.216,105.218 Z" transform=""/><path fill="#f7a996" stroke="none" d="M 272.651,101.733 S 272.469,99.3128 270.468,97.9658 C 269.156,97.0818 267.228,95.9668 266.109,94.5518 C 263.075,90.7228 260.876,97.0708 262.137,102.349 C 263.009,106.013 265.367,110.32 268.483,108.86 C 271.12,107.623 272.651,101.733 272.651,101.733 Z" transform=""/><path fill="#e59585" stroke="none" d="M 271.432,105.269 C 271.951,103.956 272.651,101.733 272.651,101.733 S 272.573,100.683 271.947,99.5804 C 270.282,100.249 268.606,101.818 268.606,101.818 L 271.432,105.269 Z" transform=""/><path fill="#d67b72" stroke="none" d="M 269.55,105.93 S 270.713,102.657 268.816,100.549 C 266.586,98.0722 265.423,94.6262 264.148,94.3402 C 262.59,93.9942 262.191,97.3852 262.077,98.7322 C 261.911,100.731 262.748,104.563 264.129,106.625 C 265.108,108.091 266.013,109.114 268.315,108.743 C 270.621,108.37 269.55,105.93 269.55,105.93 Z" transform=""/><path fill="#f7a996" stroke="none" d="M 286.234,100.821 S 282.534,98.6433 278.841,98.9073 C 276.267,99.0913 273.254,99.5593 270.692,102.036 C 267.206,105.407 266.381,110.97 266.337,113.817 C 266.225,121.337 271.247,126.098 279.038,125.917 C 286.718,125.737 292.905,120.719 292.39,113.224 C 292.098,108.95 290.718,103.44 286.234,100.821 Z" transform=""/><path fill="#d67b72" stroke="none" d="M 283.793,118.417 S 282.027,114.465 279.308,114.568 C 277.666,114.632 275.873,116.355 274.98,118.943 C 273.956,121.926 277.844,122.839 279.618,122.703 C 281.229,122.576 285.007,122.043 283.793,118.417 Z" transform=""/><path fill="#ffffff" stroke="none" d="M 277.542,120.107 C 277.036,120.126 276.61,119.731 276.591,119.226 C 276.571,118.72 276.966,118.294 277.47,118.274 C 277.978,118.255 278.404,118.65 278.422,119.156 C 278.443,119.661 278.048,120.088 277.542,120.107 Z" style="opacity: 0.4" opacity="0.4" transform=""/><ellipse cx="281.331934946377" cy="119.04405702290275" rx="0.9169633251495013" ry="0.9169633251495013" fill="#ffffff" stroke="none" style="opacity: 0.4" opacity="0.4" r="0.9169633251495013" transform=""/><path fill="#f7a996" stroke="none" d="M 280.205,99.3212 S 280.387,97.6872 278.631,97.5522 C 278.631,97.5522 280.042,98.3122 279.836,99.2542 L 280.205,99.3212 Z" transform=""/><path fill="#f7a996" stroke="none" d="M 279.784,99.1147 S 279.435,98.4777 278.78,98.3797 C 278.78,98.3797 279.61,98.8367 279.626,99.2427 L 279.784,99.1147 Z" transform=""/><ellipse cx="285.42526985932113" cy="113.21074256122913" rx="1.0062527259896306" ry="1.3991260896861992" fill="#304454" stroke="none" transform="rotate(178.4413 285.425271085878 113.21074211395106)" r="NaN"/><ellipse cx="273.41545839258026" cy="112.91802798447712" rx="1.0062527259896306" ry="1.3991260896861992" fill="#304454" stroke="none" transform="rotate(178.4413 273.4154584580944 112.91802816510993)" r="NaN"/><ellipse cx="277.9280683920273" cy="119.09996163889441" rx="0.3882147862614315" ry="0.3882147862614315" fill="#304454" stroke="none" r="0.3882147862614315" transform=""/><path fill="#304454" stroke="none" d="M 280.928,119.374 C 281.142,119.366 281.308,119.186 281.3,118.973 C 281.292,118.758 281.111,118.591 280.897,118.6 C 280.683,118.607 280.517,118.787 280.523,119.002 C 280.533,119.216 280.713,119.383 280.928,119.374 Z" transform=""/><path fill="none" stroke="#df0030" d="M 3,153 L 153,153 L 153,3 L 3,3 Z" style="stroke-width: 2px;fill-opacity: 0;stroke-opacity: 1" stroke-width="2" fill-opacity="0" stroke-opacity="1" stroke-dasharray="0"/></svg>