<svg xmlns="http://www.w3.org/2000/svg" version="1.1" width="381" height="156" viewBox="0 0 381 156"><defs/><path fill="none" stroke="none" d="M 3,153 L 378,153 L 378,3 L 3,3 Z" style="stroke-width: 2px" stroke-width="2"/><path fill="none" stroke="none" d="M 3,78 L 378,78" style="stroke-width: 2px" stroke-width="2"/><path fill="none" stroke="none" d="M 78,153 L 78,3" style="stroke-width: 2px" stroke-width="2"/><path fill="none" stroke="none" d="M 153,153 L 153,3" style="stroke-width: 2px" stroke-width="2"/><path fill="none" stroke="none" d="M 228,153 L 228,3" style="stroke-width: 2px" stroke-width="2"/><path fill="none" stroke="none" d="M 303,153 L 303,3" style="stroke-width: 2px" stroke-width="2"/><path fill="#ccaa4f" stroke="none" d="M 33.4413,57.6277 S 25.0553,62.9197 20.4903,60.6307 C 18.4533,59.6067 19.9443,57.1977 22.6703,57.6207 C 25.6723,58.0857 28.8183,53.2277 28.8183,53.2277 L 33.4413,57.6277 Z" style="opacity: 0.8" opacity="0.8" transform=""/><path fill="#e2e2e2" stroke="none" d="M 60.5659,52.1734 C 60.2909,51.7604 59.8219,51.5274 59.3399,51.5414 C 59.2129,51.2934 58.9129,51.1864 58.6559,51.3034 C 58.5749,51.3404 58.5079,51.3964 58.4569,51.4624 C 58.0759,51.2504 57.6019,51.2164 57.1749,51.4114 C 56.9049,51.5344 56.6929,51.7314 56.5489,51.9664 C 56.3949,51.9744 56.2409,52.0094 56.0929,52.0774 C 55.6419,52.2834 55.3729,52.7224 55.3589,53.1864 C 55.3459,53.1914 55.3349,53.1964 55.3219,53.2014 C 55.0589,53.3214 54.9419,53.6324 55.0619,53.8964 C 55.0689,53.9124 55.0769,53.9274 55.0849,53.9414 C 54.9369,54.2944 54.9309,54.7054 55.1029,55.0814 C 55.1999,55.2934 55.3409,55.4694 55.5119,55.6054 C 55.4299,55.7454 55.4149,55.9214 55.4879,56.0794 C 55.4889,56.0824 55.4909,56.0844 55.4919,56.0884 C 55.2409,56.3074 55.1509,56.6734 55.2959,56.9924 C 55.4739,57.3814 55.9329,57.5524 56.3219,57.3754 C 56.4299,57.3264 56.5199,57.2554 56.5919,57.1704 C 56.7409,57.2964 56.9559,57.3314 57.1449,57.2454 C 57.1729,57.2324 57.1989,57.2174 57.2229,57.2004 C 57.5859,57.4404 58.0589,57.4934 58.4829,57.3004 C 58.6459,57.2264 58.7859,57.1224 58.9009,56.9984 C 59.0399,57.0084 59.1839,56.9844 59.3199,56.9224 C 59.5089,56.8364 59.6519,56.6894 59.7359,56.5174 C 59.9279,56.5304 60.1259,56.4974 60.3129,56.4114 C 60.7599,56.2074 61.0219,55.7624 61.0139,55.3004 C 61.1639,55.2004 61.2239,55.0034 61.1459,54.8334 C 61.1379,54.8164 61.1279,54.7994 61.1179,54.7834 C 61.4359,54.5164 61.5519,54.0614 61.3709,53.6644 C 61.3279,53.5704 61.2719,53.4874 61.2069,53.4164 C 61.2889,53.1904 61.2869,52.9324 61.1789,52.6964 C 61.0589,52.4284 60.8289,52.2444 60.5659,52.1734 L 60.5659,52.1734 M 57.8209,54.4194 C 57.8239,54.4204 57.8269,54.4204 57.8299,54.4204 C 57.8269,54.4274 57.8249,54.4334 57.8219,54.4404 C 57.8219,54.4324 57.8209,54.4264 57.8209,54.4194 Z" transform=""/><path fill="#eec65e" stroke="none" d="M 42.9307,23.7831 S 46.0487,21.1711 48.9577,21.1221 C 50.8637,21.0891 53.4377,21.2491 55.8877,20.4701 C 62.5157,18.3681 55.9857,27.1961 48.6497,32.2541 C 43.5597,35.7681 36.7547,38.9121 36.6467,34.9521 C 36.5577,31.5991 42.9307,23.7831 42.9307,23.7831 Z" transform=""/><path fill="#f7a996" stroke="none" d="M 41.4346,29.9893 S 44.1986,26.1193 47.4436,25.3693 C 51.2596,24.4883 55.4916,21.9863 56.4956,22.5553 C 57.7186,23.2533 54.4086,26.7313 53.0696,28.0843 C 51.0806,30.0883 46.6266,33.1723 43.7146,34.2173 C 41.6456,34.9633 40.0786,35.3383 39.1896,33.4693 C 38.3006,31.5983 41.4346,29.9893 41.4346,29.9893 Z" transform=""/><path fill="#ccaa4f" stroke="none" d="M 41.7025,29.6602 C 40.6775,29.1292 39.8375,28.8142 39.8375,28.8142 S 38.9725,28.7822 38.0135,29.1832 C 38.4085,30.5762 39.5365,32.0542 39.5365,32.0542 L 41.7025,29.6602 Z" transform=""/><path fill="#eec65e" stroke="none" d="M 36.3955,45.3184 S 38.8095,46.9984 42.3855,46.7814 C 48.9495,46.3814 53.2575,47.1704 56.0555,51.8334 C 59.8055,58.0834 55.4305,70.0004 43.0475,66.9634 C 24.8945,62.5104 26.5305,42.1414 26.5305,42.1414 L 36.3955,45.3184 Z" transform=""/><path fill="#ccaa4f" stroke="none" d="M 28.2723,54.3582 C 33.1293,54.2152 37.8463,53.9862 42.3853,46.7812 C 41.3363,46.7142 42.1123,44.6032 40.9073,44.6302 C 37.4243,44.7062 35.1513,42.9552 35.1513,42.9552 L 25.4883,38.3762 C 25.4883,38.3752 26.1503,45.8162 28.2723,54.3582 Z" style="opacity: 0.5" opacity="0.5" transform=""/><path fill="#eec65e" stroke="none" d="M 29.4593,25.05 S 29.3783,21.183 28.0473,18.738 C 27.1733,17.132 25.8903,15.063 25.1573,12.647 C 23.1693,6.10203 21.5793,15.821 22.3423,24.386 C 22.8733,30.332 24.3953,37.524 26.5253,35.694 C 28.3273,34.147 29.4593,25.05 29.4593,25.05 Z" transform=""/><path fill="#f7a996" stroke="none" d="M 27.2963,31.2188 S 28.1363,26.2118 26.8893,22.5758 C 25.4233,18.3008 24.6933,12.6578 23.8343,12.0068 C 22.7883,11.2138 22.4623,16.5258 22.3653,18.6428 C 22.2173,21.7848 22.7203,27.9908 23.6193,31.4758 C 24.2583,33.9528 24.8533,35.7158 26.4143,35.4858 C 27.9783,35.2548 27.2963,31.2188 27.2963,31.2188 Z" transform=""/><path fill="#eec65e" stroke="none" d="M 28.5152,30.0305 S 31.4912,28.2785 34.4612,28.4915 C 36.5312,28.6395 38.9542,29.0155 41.0142,31.0075 C 43.8182,33.7195 44.4822,38.1925 44.5172,40.4825 C 44.6072,46.5305 40.5682,50.3595 34.3022,50.2135 C 28.1262,50.0695 23.1502,46.0325 23.5642,40.0055 C 23.7992,36.5685 24.9082,32.1365 28.5152,30.0305 Z" transform=""/><path fill="#eec65e" stroke="none" d="M 32.9598,28.7373 S 33.9888,26.8563 35.9218,26.5703 C 35.9218,26.5703 33.4738,27.9183 33.4228,29.1173 L 32.9598,28.7373 Z" transform=""/><ellipse cx="29.51861554384356" cy="41.1197160076982" rx="0.809259995372558" ry="1.1252210738127697" fill="#304454" stroke="none" transform="rotate(1.5587 29.51861547482487 41.119714127892124)" r="NaN"/><ellipse cx="39.3864668550918" cy="41.1197160076982" rx="0.809259995372558" ry="1.1252210738127697" fill="#304454" stroke="none" transform="rotate(1.5587 39.38646710049812 41.119714127892124)" r="NaN"/><ellipse cx="35.2539949115846" cy="45.81604518564841" rx="1.414956133884426" ry="1.0752667531107598" fill="#cda245" stroke="none" transform="rotate(187.0483 35.253995920424366 45.81604470288981)" r="NaN"/><path fill="#eec65e" stroke="none" d="M 33.5468,28.5237 S 35.2218,27.1847 37.1158,27.6677 C 37.1158,27.6677 34.3358,27.9667 33.8278,29.0527 L 33.5468,28.5237 Z" transform=""/><path fill="#ccaa4f" stroke="none" d="M 40.5004,65.9982 C 40.5114,66.0002 40.5214,65.9992 40.5324,66.0012 C 41.4684,66.1462 42.4174,65.7742 43.2814,65.1942 C 40.8994,57.3182 45.8214,53.8602 49.6624,55.3942 C 52.9234,56.6972 54.7914,60.6922 52.2284,65.0992 C 52.0014,65.4892 51.6704,65.7712 51.2854,65.9902 L 51.3044,66.0092 S 50.4484,66.5472 49.1384,67.2062 C 47.4534,67.4882 45.5234,67.4252 43.3394,66.8892 C 42.3294,66.6422 41.3914,66.3382 40.5004,65.9982 Z" style="opacity: 0.5" opacity="0.5" transform=""/><path fill="#eec65e" stroke="none" d="M 42.0803,66.9161 C 43.0153,67.0611 43.9653,66.6891 44.8283,66.1091 C 42.4473,58.2331 47.3693,54.7751 51.2103,56.3091 C 54.4713,57.6111 56.3393,61.6061 53.7763,66.0141 C 53.5493,66.4041 53.2173,66.6861 52.8323,66.9051 L 52.8513,66.9231 S 50.2393,68.5711 47.1373,69.6301 C 47.0553,69.7181 46.9523,69.7581 46.8283,69.7321 C 44.4523,70.5041 41.8333,70.8951 39.9003,69.9261 C 37.8643,68.9021 39.3543,66.4941 42.0803,66.9161 Z" transform=""/><path fill="#ccaa4f" stroke="none" d="M 33.9365,61.6478 C 35.4225,60.3638 36.4945,58.7158 36.4945,58.7158 L 39.8585,61.8328 S 39.6485,64.0408 37.6085,64.9508 C 36.1765,63.9678 34.9685,62.8458 33.9365,61.6478 Z" style="opacity: 0.5" opacity="0.5" transform=""/><path fill="#eec65e" stroke="none" d="M 40.2669,61.7121 S 31.3249,67.3301 26.4629,64.9101 C 24.2949,63.8281 25.8859,61.2741 28.7899,61.7181 C 31.9899,62.2081 35.3469,57.0561 35.3469,57.0561 L 40.2669,61.7121 Z" transform=""/><path fill="none" stroke="#cda245" d="M 41.9235,45.5263 S 44.1735,45.6283 45.3075,46.2603" style="stroke-miterlimit: 10" stroke-miterlimit="10" transform=""/><path fill="none" stroke="#cda245" d="M 42.1427,44.4542 S 44.2767,43.7312 45.5597,43.9092" style="stroke-miterlimit: 10" stroke-miterlimit="10" transform=""/><path fill="none" stroke="#cda245" d="M 28.1892,46.6397 S 25.8672,46.7417 24.6982,47.3737" style="stroke-miterlimit: 10;stroke-width: 0.6342325442128913px" stroke-width="0.6342325442128913" stroke-miterlimit="10" transform=""/><path fill="none" stroke="#cda245" d="M 27.9632,45.5669 S 25.7612,44.8439 24.4372,45.0219" style="stroke-miterlimit: 10;stroke-width: 0.6342325442128913px" stroke-width="0.6342325442128913" stroke-miterlimit="10" transform=""/><path fill="#d78334" stroke="none" d="M 26.9324,65.2836 C 23.8154,69.6226 14.4254,77.3846 14.0384,77.0566 C 13.3474,76.4726 18.1414,64.5446 21.2584,60.2056 S 24.9424,56.9856 27.1884,58.4586 C 29.2424,59.8056 30.0494,60.9446 26.9324,65.2836 Z" transform=""/><path fill="#f4953f" stroke="none" d="M 27.3204,58.3839 C 24.9564,56.8919 24.3594,55.7579 21.0784,60.1539 C 20.8144,60.5069 20.5384,60.9159 20.2554,61.3589 C 20.8424,63.8099 23.1194,65.6389 25.8444,65.6389 C 26.1904,65.6389 26.5274,65.6039 26.8564,65.5469 C 26.9214,65.4639 26.9894,65.3789 27.0504,65.2969 C 30.3314,60.9019 29.4824,59.7479 27.3204,58.3839 Z" transform=""/><path fill="#f4953f" stroke="none" d="M 16.3052,69.2651 C 14.4102,73.4551 12.9182,77.6581 13.3142,77.9901 C 13.5482,78.1871 17.2492,75.2891 20.6722,72.1011 C 18.7562,72.0041 17.1192,70.8781 16.3052,69.2651 Z" transform=""/><path fill="#f4953f" stroke="none" d="M 26.2696,66.3114 C 25.9536,66.3664 25.6296,66.4004 25.2976,66.4004 C 22.6816,66.4004 20.4966,64.6084 19.9326,62.2084 C 18.8586,63.9244 17.6736,66.2504 16.6076,68.5794 C 17.4716,70.2744 19.2126,71.4574 21.2486,71.5594 C 23.2196,69.7444 25.1046,67.8384 26.2696,66.3114 Z" transform=""/><path fill="#d78334" stroke="none" d="M 27.3831,58.8663 C 26.2541,57.9773 25.8511,57.2353 24.5701,58.0723 C 24.3081,58.9733 24.7531,60.1163 25.7391,60.8683 C 26.4881,61.4393 27.3711,61.6503 28.1031,61.5043 C 28.6551,60.3713 28.3401,59.6193 27.3831,58.8663 Z" transform=""/><path fill="#64c4ad" stroke="none" d="M 37.6885,54.6834 C 38.1505,53.8344 35.9335,52.8974 33.5115,53.3774 C 32.3075,53.6164 31.2915,54.1864 30.5725,54.6994 C 30.3025,54.7994 30.0455,54.9264 29.7985,55.0764 C 31.1165,53.0964 33.8075,48.7384 32.4175,48.0614 C 30.8935,47.3184 29.6005,53.5154 29.2325,55.4734 C 29.2115,55.4904 29.1895,55.5074 29.1685,55.5244 C 29.2495,55.0174 29.6245,52.1354 28.0095,50.3344 C 26.6165,48.7804 25.0395,48.4104 24.6785,49.3424 C 24.3175,50.2714 26.4565,50.5514 27.5805,51.6904 C 29.0505,53.1804 29.1495,55.1494 29.1545,55.5364 C 29.1435,55.5464 29.1325,55.5554 29.1215,55.5654 C 29.0905,54.8254 28.8925,53.1784 27.7635,52.6034 C 26.1005,51.7544 23.9405,52.4484 23.5195,53.5114 C 23.3105,54.0394 23.9435,54.4144 24.9175,53.9194 C 25.8915,53.4254 26.6095,52.6364 27.8445,53.2974 C 28.5695,53.6864 28.9315,55.0024 29.0645,55.6154 C 27.7215,56.7734 26.7895,58.5854 26.2035,60.0574 C 26.2595,60.0804 26.3155,60.1034 26.3715,60.1254 C 26.8055,59.2314 27.3895,58.2024 28.1355,57.2574 C 30.3275,54.4844 32.2225,54.8804 33.3215,55.6044 C 34.4975,56.3804 33.8655,57.9734 34.3355,58.7604 C 34.8035,59.5474 35.3975,59.3124 35.6165,58.7624 C 35.9315,57.9704 35.3805,54.7894 32.6075,54.4594 C 32.8635,54.4144 33.1305,54.3804 33.4035,54.3614 C 35.5775,54.2144 37.2415,55.5074 37.6885,54.6834 Z" transform=""/><path fill="#ccaa4f" stroke="none" d="M 108.441,57.6277 S 100.055,62.9197 95.4903,60.6307 C 93.4533,59.6067 94.9443,57.1977 97.6703,57.6207 C 100.672,58.0857 103.818,53.2277 103.818,53.2277 L 108.441,57.6277 Z" style="opacity: 0.8" opacity="0.8" transform=""/><path fill="#e2e2e2" stroke="none" d="M 135.566,52.1734 C 135.291,51.7604 134.822,51.5274 134.34,51.5414 C 134.213,51.2934 133.913,51.1864 133.656,51.3034 C 133.575,51.3404 133.508,51.3964 133.457,51.4624 C 133.076,51.2504 132.602,51.2164 132.175,51.4114 C 131.905,51.5344 131.693,51.7314 131.549,51.9664 C 131.395,51.9744 131.241,52.0094 131.093,52.0774 C 130.642,52.2834 130.373,52.7224 130.359,53.1864 C 130.346,53.1914 130.335,53.1964 130.322,53.2014 C 130.059,53.3214 129.942,53.6324 130.062,53.8964 C 130.069,53.9124 130.077,53.9274 130.085,53.9414 C 129.937,54.2944 129.931,54.7054 130.103,55.0814 C 130.2,55.2934 130.341,55.4694 130.512,55.6054 C 130.43,55.7454 130.415,55.9214 130.488,56.0794 C 130.489,56.0824 130.491,56.0844 130.492,56.0884 C 130.241,56.3074 130.151,56.6734 130.296,56.9924 C 130.474,57.3814 130.933,57.5524 131.322,57.3754 C 131.43,57.3264 131.52,57.2554 131.592,57.1704 C 131.741,57.2964 131.956,57.3314 132.145,57.2454 C 132.173,57.2324 132.199,57.2174 132.223,57.2004 C 132.586,57.4404 133.059,57.4934 133.483,57.3004 C 133.646,57.2264 133.786,57.1224 133.901,56.9984 C 134.04,57.0084 134.184,56.9844 134.32,56.9224 C 134.509,56.8364 134.652,56.6894 134.736,56.5174 C 134.928,56.5304 135.126,56.4974 135.313,56.4114 C 135.76,56.2074 136.022,55.7624 136.014,55.3004 C 136.164,55.2004 136.224,55.0034 136.146,54.8334 C 136.138,54.8164 136.128,54.7994 136.118,54.7834 C 136.436,54.5164 136.552,54.0614 136.371,53.6644 C 136.328,53.5704 136.272,53.4874 136.207,53.4164 C 136.289,53.1904 136.287,52.9324 136.179,52.6964 C 136.059,52.4284 135.829,52.2444 135.566,52.1734 L 135.566,52.1734 M 132.821,54.4194 C 132.824,54.4204 132.827,54.4204 132.83,54.4204 C 132.827,54.4274 132.825,54.4334 132.822,54.4404 C 132.822,54.4324 132.821,54.4264 132.821,54.4194 Z" transform=""/><path fill="#eec65e" stroke="none" d="M 117.931,23.7831 S 121.049,21.1711 123.958,21.1221 C 125.864,21.0891 128.438,21.2491 130.888,20.4701 C 137.516,18.3681 130.986,27.1961 123.65,32.2541 C 118.56,35.7681 111.755,38.9121 111.647,34.9521 C 111.558,31.5991 117.931,23.7831 117.931,23.7831 Z" transform=""/><path fill="#f7a996" stroke="none" d="M 116.435,29.9893 S 119.199,26.1193 122.444,25.3693 C 126.26,24.4883 130.492,21.9863 131.496,22.5553 C 132.719,23.2533 129.409,26.7313 128.07,28.0843 C 126.081,30.0883 121.627,33.1723 118.715,34.2173 C 116.646,34.9633 115.079,35.3383 114.19,33.4693 C 113.301,31.5983 116.435,29.9893 116.435,29.9893 Z" transform=""/><path fill="#ccaa4f" stroke="none" d="M 116.702,29.6602 C 115.677,29.1292 114.837,28.8142 114.837,28.8142 S 113.972,28.7822 113.013,29.1832 C 113.408,30.5762 114.536,32.0542 114.536,32.0542 L 116.702,29.6602 Z" transform=""/><path fill="#eec65e" stroke="none" d="M 111.395,45.3184 S 113.809,46.9984 117.385,46.7814 C 123.949,46.3814 128.257,47.1704 131.055,51.8334 C 134.805,58.0834 130.43,70.0004 118.047,66.9634 C 99.8945,62.5104 101.53,42.1414 101.53,42.1414 L 111.395,45.3184 Z" transform=""/><path fill="#ccaa4f" stroke="none" d="M 103.272,54.3582 C 108.129,54.2152 112.846,53.9862 117.385,46.7812 C 116.336,46.7142 117.112,44.6032 115.907,44.6302 C 112.424,44.7062 110.151,42.9552 110.151,42.9552 L 100.488,38.3762 C 100.488,38.3752 101.15,45.8162 103.272,54.3582 Z" style="opacity: 0.5" opacity="0.5" transform=""/><path fill="#eec65e" stroke="none" d="M 104.459,25.05 S 104.378,21.183 103.047,18.738 C 102.173,17.132 100.89,15.063 100.157,12.647 C 98.1693,6.10203 96.5793,15.821 97.3423,24.386 C 97.8733,30.332 99.3953,37.524 101.525,35.694 C 103.327,34.147 104.459,25.05 104.459,25.05 Z" transform=""/><path fill="#f7a996" stroke="none" d="M 102.296,31.2188 S 103.136,26.2118 101.889,22.5758 C 100.423,18.3008 99.6933,12.6578 98.8343,12.0068 C 97.7883,11.2138 97.4623,16.5258 97.3653,18.6428 C 97.2173,21.7848 97.7203,27.9908 98.6193,31.4758 C 99.2583,33.9528 99.8533,35.7158 101.414,35.4858 C 102.978,35.2548 102.296,31.2188 102.296,31.2188 Z" transform=""/><path fill="#eec65e" stroke="none" d="M 103.515,30.0305 S 106.491,28.2785 109.461,28.4915 C 111.531,28.6395 113.954,29.0155 116.014,31.0075 C 118.818,33.7195 119.482,38.1925 119.517,40.4825 C 119.607,46.5305 115.568,50.3595 109.302,50.2135 C 103.126,50.0695 98.1502,46.0325 98.5642,40.0055 C 98.7992,36.5685 99.9082,32.1365 103.515,30.0305 Z" transform=""/><path fill="#eec65e" stroke="none" d="M 107.96,28.7373 S 108.989,26.8563 110.922,26.5703 C 110.922,26.5703 108.474,27.9183 108.423,29.1173 L 107.96,28.7373 Z" transform=""/><ellipse cx="104.51861554384355" cy="41.1197160076982" rx="0.809259995372558" ry="1.1252210738127697" fill="#304454" stroke="none" transform="rotate(1.5587 104.51861547482487 41.119714127892124)" r="NaN"/><ellipse cx="114.3864668550918" cy="41.1197160076982" rx="0.809259995372558" ry="1.1252210738127697" fill="#304454" stroke="none" transform="rotate(1.5587 114.38646710049812 41.119714127892124)" r="NaN"/><ellipse cx="110.2539949115846" cy="45.81604518564841" rx="1.414956133884426" ry="1.0752667531107598" fill="#cda245" stroke="none" transform="rotate(187.0483 110.25399592042436 45.81604470288981)" r="NaN"/><path fill="#eec65e" stroke="none" d="M 108.547,28.5237 S 110.222,27.1847 112.116,27.6677 C 112.116,27.6677 109.336,27.9667 108.828,29.0527 L 108.547,28.5237 Z" transform=""/><path fill="#ccaa4f" stroke="none" d="M 115.5,65.9982 C 115.511,66.0002 115.521,65.9992 115.532,66.0012 C 116.468,66.1462 117.417,65.7742 118.281,65.1942 C 115.899,57.3182 120.821,53.8602 124.662,55.3942 C 127.923,56.6972 129.791,60.6922 127.228,65.0992 C 127.001,65.4892 126.67,65.7712 126.285,65.9902 L 126.304,66.0092 S 125.448,66.5472 124.138,67.2062 C 122.453,67.4882 120.523,67.4252 118.339,66.8892 C 117.329,66.6422 116.391,66.3382 115.5,65.9982 Z" style="opacity: 0.5" opacity="0.5" transform=""/><path fill="#eec65e" stroke="none" d="M 117.08,66.9161 C 118.015,67.0611 118.965,66.6891 119.828,66.1091 C 117.447,58.2331 122.369,54.7751 126.21,56.3091 C 129.471,57.6111 131.339,61.6061 128.776,66.0141 C 128.549,66.4041 128.217,66.6861 127.832,66.9051 L 127.851,66.9231 S 125.239,68.5711 122.137,69.6301 C 122.055,69.7181 121.952,69.7581 121.828,69.7321 C 119.452,70.5041 116.833,70.8951 114.9,69.9261 C 112.864,68.9021 114.354,66.4941 117.08,66.9161 Z" transform=""/><path fill="#ccaa4f" stroke="none" d="M 108.936,61.6478 C 110.422,60.3638 111.494,58.7158 111.494,58.7158 L 114.858,61.8328 S 114.648,64.0408 112.608,64.9508 C 111.176,63.9678 109.968,62.8458 108.936,61.6478 Z" style="opacity: 0.5" opacity="0.5" transform=""/><path fill="#eec65e" stroke="none" d="M 115.267,61.7121 S 106.325,67.3301 101.463,64.9101 C 99.2949,63.8281 100.886,61.2741 103.79,61.7181 C 106.99,62.2081 110.347,57.0561 110.347,57.0561 L 115.267,61.7121 Z" transform=""/><path fill="none" stroke="#cda245" d="M 116.924,45.5263 S 119.174,45.6283 120.308,46.2603" style="stroke-miterlimit: 10" stroke-miterlimit="10" transform=""/><path fill="none" stroke="#cda245" d="M 117.143,44.4542 S 119.277,43.7312 120.56,43.9092" style="stroke-miterlimit: 10" stroke-miterlimit="10" transform=""/><path fill="none" stroke="#cda245" d="M 103.189,46.6397 S 100.867,46.7417 99.6982,47.3737" style="stroke-miterlimit: 10;stroke-width: 0.6342325442128913px" stroke-width="0.6342325442128913" stroke-miterlimit="10" transform=""/><path fill="none" stroke="#cda245" d="M 102.963,45.5669 S 100.761,44.8439 99.4372,45.0219" style="stroke-miterlimit: 10;stroke-width: 0.6342325442128913px" stroke-width="0.6342325442128913" stroke-miterlimit="10" transform=""/><path fill="#d78334" stroke="none" d="M 101.932,65.2836 C 98.8154,69.6226 89.4254,77.3846 89.0384,77.0566 C 88.3474,76.4726 93.1414,64.5446 96.2584,60.2056 S 99.9424,56.9856 102.188,58.4586 C 104.242,59.8056 105.049,60.9446 101.932,65.2836 Z" transform=""/><path fill="#f4953f" stroke="none" d="M 102.32,58.3839 C 99.9564,56.8919 99.3594,55.7579 96.0784,60.1539 C 95.8144,60.5069 95.5384,60.9159 95.2554,61.3589 C 95.8424,63.8099 98.1194,65.6389 100.844,65.6389 C 101.19,65.6389 101.527,65.6039 101.856,65.5469 C 101.921,65.4639 101.989,65.3789 102.05,65.2969 C 105.331,60.9019 104.482,59.7479 102.32,58.3839 Z" transform=""/><path fill="#f4953f" stroke="none" d="M 91.3052,69.2651 C 89.4102,73.4551 87.9182,77.6581 88.3142,77.9901 C 88.5482,78.1871 92.2492,75.2891 95.6722,72.1011 C 93.7562,72.0041 92.1192,70.8781 91.3052,69.2651 Z" transform=""/><path fill="#f4953f" stroke="none" d="M 101.27,66.3114 C 100.954,66.3664 100.63,66.4004 100.298,66.4004 C 97.6816,66.4004 95.4966,64.6084 94.9326,62.2084 C 93.8586,63.9244 92.6736,66.2504 91.6076,68.5794 C 92.4716,70.2744 94.2126,71.4574 96.2486,71.5594 C 98.2196,69.7444 100.105,67.8384 101.27,66.3114 Z" transform=""/><path fill="#d78334" stroke="none" d="M 102.383,58.8663 C 101.254,57.9773 100.851,57.2353 99.5701,58.0723 C 99.3081,58.9733 99.7531,60.1163 100.739,60.8683 C 101.488,61.4393 102.371,61.6503 103.103,61.5043 C 103.655,60.3713 103.34,59.6193 102.383,58.8663 Z" transform=""/><path fill="#64c4ad" stroke="none" d="M 112.688,54.6834 C 113.15,53.8344 110.933,52.8974 108.511,53.3774 C 107.307,53.6164 106.291,54.1864 105.572,54.6994 C 105.302,54.7994 105.045,54.9264 104.798,55.0764 C 106.116,53.0964 108.807,48.7384 107.417,48.0614 C 105.893,47.3184 104.6,53.5154 104.232,55.4734 C 104.211,55.4904 104.189,55.5074 104.168,55.5244 C 104.249,55.0174 104.624,52.1354 103.009,50.3344 C 101.616,48.7804 100.039,48.4104 99.6785,49.3424 C 99.3175,50.2714 101.456,50.5514 102.58,51.6904 C 104.05,53.1804 104.149,55.1494 104.154,55.5364 C 104.143,55.5464 104.132,55.5554 104.121,55.5654 C 104.09,54.8254 103.892,53.1784 102.763,52.6034 C 101.1,51.7544 98.9405,52.4484 98.5195,53.5114 C 98.3105,54.0394 98.9435,54.4144 99.9175,53.9194 C 100.891,53.4254 101.609,52.6364 102.844,53.2974 C 103.569,53.6864 103.931,55.0024 104.064,55.6154 C 102.721,56.7734 101.789,58.5854 101.203,60.0574 C 101.259,60.0804 101.315,60.1034 101.371,60.1254 C 101.805,59.2314 102.389,58.2024 103.135,57.2574 C 105.327,54.4844 107.222,54.8804 108.321,55.6044 C 109.497,56.3804 108.865,57.9734 109.335,58.7604 C 109.803,59.5474 110.397,59.3124 110.616,58.7624 C 110.931,57.9704 110.38,54.7894 107.607,54.4594 C 107.863,54.4144 108.13,54.3804 108.403,54.3614 C 110.577,54.2144 112.241,55.5074 112.688,54.6834 Z" transform=""/><path fill="#ccaa4f" stroke="none" d="M 183.441,57.6277 S 175.055,62.9197 170.49,60.6307 C 168.453,59.6067 169.944,57.1977 172.67,57.6207 C 175.672,58.0857 178.818,53.2277 178.818,53.2277 L 183.441,57.6277 Z" style="opacity: 0.8" opacity="0.8" transform=""/><path fill="#e2e2e2" stroke="none" d="M 210.566,52.1734 C 210.291,51.7604 209.822,51.5274 209.34,51.5414 C 209.213,51.2934 208.913,51.1864 208.656,51.3034 C 208.575,51.3404 208.508,51.3964 208.457,51.4624 C 208.076,51.2504 207.602,51.2164 207.175,51.4114 C 206.905,51.5344 206.693,51.7314 206.549,51.9664 C 206.395,51.9744 206.241,52.0094 206.093,52.0774 C 205.642,52.2834 205.373,52.7224 205.359,53.1864 C 205.346,53.1914 205.335,53.1964 205.322,53.2014 C 205.059,53.3214 204.942,53.6324 205.062,53.8964 C 205.069,53.9124 205.077,53.9274 205.085,53.9414 C 204.937,54.2944 204.931,54.7054 205.103,55.0814 C 205.2,55.2934 205.341,55.4694 205.512,55.6054 C 205.43,55.7454 205.415,55.9214 205.488,56.0794 C 205.489,56.0824 205.491,56.0844 205.492,56.0884 C 205.241,56.3074 205.151,56.6734 205.296,56.9924 C 205.474,57.3814 205.933,57.5524 206.322,57.3754 C 206.43,57.3264 206.52,57.2554 206.592,57.1704 C 206.741,57.2964 206.956,57.3314 207.145,57.2454 C 207.173,57.2324 207.199,57.2174 207.223,57.2004 C 207.586,57.4404 208.059,57.4934 208.483,57.3004 C 208.646,57.2264 208.786,57.1224 208.901,56.9984 C 209.04,57.0084 209.184,56.9844 209.32,56.9224 C 209.509,56.8364 209.652,56.6894 209.736,56.5174 C 209.928,56.5304 210.126,56.4974 210.313,56.4114 C 210.76,56.2074 211.022,55.7624 211.014,55.3004 C 211.164,55.2004 211.224,55.0034 211.146,54.8334 C 211.138,54.8164 211.128,54.7994 211.118,54.7834 C 211.436,54.5164 211.552,54.0614 211.371,53.6644 C 211.328,53.5704 211.272,53.4874 211.207,53.4164 C 211.289,53.1904 211.287,52.9324 211.179,52.6964 C 211.059,52.4284 210.829,52.2444 210.566,52.1734 L 210.566,52.1734 M 207.821,54.4194 C 207.824,54.4204 207.827,54.4204 207.83,54.4204 C 207.827,54.4274 207.825,54.4334 207.822,54.4404 C 207.822,54.4324 207.821,54.4264 207.821,54.4194 Z" transform=""/><path fill="#eec65e" stroke="none" d="M 192.931,23.7831 S 196.049,21.1711 198.958,21.1221 C 200.864,21.0891 203.438,21.2491 205.888,20.4701 C 212.516,18.3681 205.986,27.1961 198.65,32.2541 C 193.56,35.7681 186.755,38.9121 186.647,34.9521 C 186.558,31.5991 192.931,23.7831 192.931,23.7831 Z" transform=""/><path fill="#f7a996" stroke="none" d="M 191.435,29.9893 S 194.199,26.1193 197.444,25.3693 C 201.26,24.4883 205.492,21.9863 206.496,22.5553 C 207.719,23.2533 204.409,26.7313 203.07,28.0843 C 201.081,30.0883 196.627,33.1723 193.715,34.2173 C 191.646,34.9633 190.079,35.3383 189.19,33.4693 C 188.301,31.5983 191.435,29.9893 191.435,29.9893 Z" transform=""/><path fill="#ccaa4f" stroke="none" d="M 191.702,29.6602 C 190.677,29.1292 189.837,28.8142 189.837,28.8142 S 188.972,28.7822 188.013,29.1832 C 188.408,30.5762 189.536,32.0542 189.536,32.0542 L 191.702,29.6602 Z" transform=""/><path fill="#eec65e" stroke="none" d="M 186.395,45.3184 S 188.809,46.9984 192.385,46.7814 C 198.949,46.3814 203.257,47.1704 206.055,51.8334 C 209.805,58.0834 205.43,70.0004 193.047,66.9634 C 174.894,62.5104 176.53,42.1414 176.53,42.1414 L 186.395,45.3184 Z" transform=""/><path fill="#ccaa4f" stroke="none" d="M 178.272,54.3582 C 183.129,54.2152 187.846,53.9862 192.385,46.7812 C 191.336,46.7142 192.112,44.6032 190.907,44.6302 C 187.424,44.7062 185.151,42.9552 185.151,42.9552 L 175.488,38.3762 C 175.488,38.3752 176.15,45.8162 178.272,54.3582 Z" style="opacity: 0.5" opacity="0.5" transform=""/><path fill="#eec65e" stroke="none" d="M 179.459,25.05 S 179.378,21.183 178.047,18.738 C 177.173,17.132 175.89,15.063 175.157,12.647 C 173.169,6.10203 171.579,15.821 172.342,24.386 C 172.873,30.332 174.395,37.524 176.525,35.694 C 178.327,34.147 179.459,25.05 179.459,25.05 Z" transform=""/><path fill="#f7a996" stroke="none" d="M 177.296,31.2188 S 178.136,26.2118 176.889,22.5758 C 175.423,18.3008 174.693,12.6578 173.834,12.0068 C 172.788,11.2138 172.462,16.5258 172.365,18.6428 C 172.217,21.7848 172.72,27.9908 173.619,31.4758 C 174.258,33.9528 174.853,35.7158 176.414,35.4858 C 177.978,35.2548 177.296,31.2188 177.296,31.2188 Z" transform=""/><path fill="#eec65e" stroke="none" d="M 178.515,30.0305 S 181.491,28.2785 184.461,28.4915 C 186.531,28.6395 188.954,29.0155 191.014,31.0075 C 193.818,33.7195 194.482,38.1925 194.517,40.4825 C 194.607,46.5305 190.568,50.3595 184.302,50.2135 C 178.126,50.0695 173.15,46.0325 173.564,40.0055 C 173.799,36.5685 174.908,32.1365 178.515,30.0305 Z" transform=""/><path fill="#eec65e" stroke="none" d="M 182.96,28.7373 S 183.989,26.8563 185.922,26.5703 C 185.922,26.5703 183.474,27.9183 183.423,29.1173 L 182.96,28.7373 Z" transform=""/><ellipse cx="179.51861554384357" cy="41.1197160076982" rx="0.809259995372558" ry="1.1252210738127697" fill="#304454" stroke="none" transform="rotate(1.5587 179.51861547482488 41.119714127892124)" r="NaN"/><ellipse cx="189.3864668550918" cy="41.1197160076982" rx="0.809259995372558" ry="1.1252210738127697" fill="#304454" stroke="none" transform="rotate(1.5587 189.38646710049812 41.119714127892124)" r="NaN"/><ellipse cx="185.2539949115846" cy="45.81604518564841" rx="1.414956133884426" ry="1.0752667531107598" fill="#cda245" stroke="none" transform="rotate(187.0483 185.2539959204244 45.81604470288981)" r="NaN"/><path fill="#eec65e" stroke="none" d="M 183.547,28.5237 S 185.222,27.1847 187.116,27.6677 C 187.116,27.6677 184.336,27.9667 183.828,29.0527 L 183.547,28.5237 Z" transform=""/><path fill="#ccaa4f" stroke="none" d="M 190.5,65.9982 C 190.511,66.0002 190.521,65.9992 190.532,66.0012 C 191.468,66.1462 192.417,65.7742 193.281,65.1942 C 190.899,57.3182 195.821,53.8602 199.662,55.3942 C 202.923,56.6972 204.791,60.6922 202.228,65.0992 C 202.001,65.4892 201.67,65.7712 201.285,65.9902 L 201.304,66.0092 S 200.448,66.5472 199.138,67.2062 C 197.453,67.4882 195.523,67.4252 193.339,66.8892 C 192.329,66.6422 191.391,66.3382 190.5,65.9982 Z" style="opacity: 0.5" opacity="0.5" transform=""/><path fill="#eec65e" stroke="none" d="M 192.08,66.9161 C 193.015,67.0611 193.965,66.6891 194.828,66.1091 C 192.447,58.2331 197.369,54.7751 201.21,56.3091 C 204.471,57.6111 206.339,61.6061 203.776,66.0141 C 203.549,66.4041 203.217,66.6861 202.832,66.9051 L 202.851,66.9231 S 200.239,68.5711 197.137,69.6301 C 197.055,69.7181 196.952,69.7581 196.828,69.7321 C 194.452,70.5041 191.833,70.8951 189.9,69.9261 C 187.864,68.9021 189.354,66.4941 192.08,66.9161 Z" transform=""/><path fill="#ccaa4f" stroke="none" d="M 183.936,61.6478 C 185.422,60.3638 186.494,58.7158 186.494,58.7158 L 189.858,61.8328 S 189.648,64.0408 187.608,64.9508 C 186.176,63.9678 184.968,62.8458 183.936,61.6478 Z" style="opacity: 0.5" opacity="0.5" transform=""/><path fill="#eec65e" stroke="none" d="M 190.267,61.7121 S 181.325,67.3301 176.463,64.9101 C 174.295,63.8281 175.886,61.2741 178.79,61.7181 C 181.99,62.2081 185.347,57.0561 185.347,57.0561 L 190.267,61.7121 Z" transform=""/><path fill="none" stroke="#cda245" d="M 191.924,45.5263 S 194.174,45.6283 195.308,46.2603" style="stroke-miterlimit: 10" stroke-miterlimit="10" transform=""/><path fill="none" stroke="#cda245" d="M 192.143,44.4542 S 194.277,43.7312 195.56,43.9092" style="stroke-miterlimit: 10" stroke-miterlimit="10" transform=""/><path fill="none" stroke="#cda245" d="M 178.189,46.6397 S 175.867,46.7417 174.698,47.3737" style="stroke-miterlimit: 10;stroke-width: 0.6342325442128913px" stroke-width="0.6342325442128913" stroke-miterlimit="10" transform=""/><path fill="none" stroke="#cda245" d="M 177.963,45.5669 S 175.761,44.8439 174.437,45.0219" style="stroke-miterlimit: 10;stroke-width: 0.6342325442128913px" stroke-width="0.6342325442128913" stroke-miterlimit="10" transform=""/><path fill="#ccaa4f" stroke="none" d="M 258.441,57.6277 S 250.055,62.9197 245.49,60.6307 C 243.453,59.6067 244.944,57.1977 247.67,57.6207 C 250.672,58.0857 253.818,53.2277 253.818,53.2277 L 258.441,57.6277 Z" style="opacity: 0.8" opacity="0.8" transform=""/><path fill="#e2e2e2" stroke="none" d="M 285.566,52.1734 C 285.291,51.7604 284.822,51.5274 284.34,51.5414 C 284.213,51.2934 283.913,51.1864 283.656,51.3034 C 283.575,51.3404 283.508,51.3964 283.457,51.4624 C 283.076,51.2504 282.602,51.2164 282.175,51.4114 C 281.905,51.5344 281.693,51.7314 281.549,51.9664 C 281.395,51.9744 281.241,52.0094 281.093,52.0774 C 280.642,52.2834 280.373,52.7224 280.359,53.1864 C 280.346,53.1914 280.335,53.1964 280.322,53.2014 C 280.059,53.3214 279.942,53.6324 280.062,53.8964 C 280.069,53.9124 280.077,53.9274 280.085,53.9414 C 279.937,54.2944 279.931,54.7054 280.103,55.0814 C 280.2,55.2934 280.341,55.4694 280.512,55.6054 C 280.43,55.7454 280.415,55.9214 280.488,56.0794 C 280.489,56.0824 280.491,56.0844 280.492,56.0884 C 280.241,56.3074 280.151,56.6734 280.296,56.9924 C 280.474,57.3814 280.933,57.5524 281.322,57.3754 C 281.43,57.3264 281.52,57.2554 281.592,57.1704 C 281.741,57.2964 281.956,57.3314 282.145,57.2454 C 282.173,57.2324 282.199,57.2174 282.223,57.2004 C 282.586,57.4404 283.059,57.4934 283.483,57.3004 C 283.646,57.2264 283.786,57.1224 283.901,56.9984 C 284.04,57.0084 284.184,56.9844 284.32,56.9224 C 284.509,56.8364 284.652,56.6894 284.736,56.5174 C 284.928,56.5304 285.126,56.4974 285.313,56.4114 C 285.76,56.2074 286.022,55.7624 286.014,55.3004 C 286.164,55.2004 286.224,55.0034 286.146,54.8334 C 286.138,54.8164 286.128,54.7994 286.118,54.7834 C 286.436,54.5164 286.552,54.0614 286.371,53.6644 C 286.328,53.5704 286.272,53.4874 286.207,53.4164 C 286.289,53.1904 286.287,52.9324 286.179,52.6964 C 286.059,52.4284 285.829,52.2444 285.566,52.1734 L 285.566,52.1734 M 282.821,54.4194 C 282.824,54.4204 282.827,54.4204 282.83,54.4204 C 282.827,54.4274 282.825,54.4334 282.822,54.4404 C 282.822,54.4324 282.821,54.4264 282.821,54.4194 Z" transform=""/><path fill="#eec65e" stroke="none" d="M 267.931,23.7831 S 271.049,21.1711 273.958,21.1221 C 275.864,21.0891 278.438,21.2491 280.888,20.4701 C 287.516,18.3681 280.986,27.1961 273.65,32.2541 C 268.56,35.7681 261.755,38.9121 261.647,34.9521 C 261.558,31.5991 267.931,23.7831 267.931,23.7831 Z" transform=""/><path fill="#f7a996" stroke="none" d="M 266.435,29.9893 S 269.199,26.1193 272.444,25.3693 C 276.26,24.4883 280.492,21.9863 281.496,22.5553 C 282.719,23.2533 279.409,26.7313 278.07,28.0843 C 276.081,30.0883 271.627,33.1723 268.715,34.2173 C 266.646,34.9633 265.079,35.3383 264.19,33.4693 C 263.301,31.5983 266.435,29.9893 266.435,29.9893 Z" transform=""/><path fill="#ccaa4f" stroke="none" d="M 266.702,29.6602 C 265.677,29.1292 264.837,28.8142 264.837,28.8142 S 263.972,28.7822 263.013,29.1832 C 263.408,30.5762 264.536,32.0542 264.536,32.0542 L 266.702,29.6602 Z" transform=""/><path fill="#eec65e" stroke="none" d="M 261.395,45.3184 S 263.809,46.9984 267.385,46.7814 C 273.949,46.3814 278.257,47.1704 281.055,51.8334 C 284.805,58.0834 280.43,70.0004 268.047,66.9634 C 249.894,62.5104 251.53,42.1414 251.53,42.1414 L 261.395,45.3184 Z" transform=""/><path fill="#ccaa4f" stroke="none" d="M 253.272,54.3582 C 258.129,54.2152 262.846,53.9862 267.385,46.7812 C 266.336,46.7142 267.112,44.6032 265.907,44.6302 C 262.424,44.7062 260.151,42.9552 260.151,42.9552 L 250.488,38.3762 C 250.488,38.3752 251.15,45.8162 253.272,54.3582 Z" style="opacity: 0.5" opacity="0.5" transform=""/><path fill="#eec65e" stroke="none" d="M 254.459,25.05 S 254.378,21.183 253.047,18.738 C 252.173,17.132 250.89,15.063 250.157,12.647 C 248.169,6.10203 246.579,15.821 247.342,24.386 C 247.873,30.332 249.395,37.524 251.525,35.694 C 253.327,34.147 254.459,25.05 254.459,25.05 Z" transform=""/><path fill="#f7a996" stroke="none" d="M 252.296,31.2188 S 253.136,26.2118 251.889,22.5758 C 250.423,18.3008 249.693,12.6578 248.834,12.0068 C 247.788,11.2138 247.462,16.5258 247.365,18.6428 C 247.217,21.7848 247.72,27.9908 248.619,31.4758 C 249.258,33.9528 249.853,35.7158 251.414,35.4858 C 252.978,35.2548 252.296,31.2188 252.296,31.2188 Z" transform=""/><path fill="#eec65e" stroke="none" d="M 253.515,30.0305 S 256.491,28.2785 259.461,28.4915 C 261.531,28.6395 263.954,29.0155 266.014,31.0075 C 268.818,33.7195 269.482,38.1925 269.517,40.4825 C 269.607,46.5305 265.568,50.3595 259.302,50.2135 C 253.126,50.0695 248.15,46.0325 248.564,40.0055 C 248.799,36.5685 249.908,32.1365 253.515,30.0305 Z" transform=""/><path fill="#eec65e" stroke="none" d="M 257.96,28.7373 S 258.989,26.8563 260.922,26.5703 C 260.922,26.5703 258.474,27.9183 258.423,29.1173 L 257.96,28.7373 Z" transform=""/><ellipse cx="254.51861554384357" cy="41.1197160076982" rx="0.809259995372558" ry="1.1252210738127697" fill="#304454" stroke="none" transform="rotate(1.5587 254.51861547482488 41.119714127892124)" r="NaN"/><ellipse cx="264.38646685509184" cy="41.1197160076982" rx="0.809259995372558" ry="1.1252210738127697" fill="#304454" stroke="none" transform="rotate(1.5587 264.3864671004981 41.119714127892124)" r="NaN"/><ellipse cx="260.25399491158464" cy="45.81604518564841" rx="1.414956133884426" ry="1.0752667531107598" fill="#cda245" stroke="none" transform="rotate(187.0483 260.25399592042436 45.81604470288981)" r="NaN"/><path fill="#eec65e" stroke="none" d="M 258.547,28.5237 S 260.222,27.1847 262.116,27.6677 C 262.116,27.6677 259.336,27.9667 258.828,29.0527 L 258.547,28.5237 Z" transform=""/><path fill="#ccaa4f" stroke="none" d="M 265.5,65.9982 C 265.511,66.0002 265.521,65.9992 265.532,66.0012 C 266.468,66.1462 267.417,65.7742 268.281,65.1942 C 265.899,57.3182 270.821,53.8602 274.662,55.3942 C 277.923,56.6972 279.791,60.6922 277.228,65.0992 C 277.001,65.4892 276.67,65.7712 276.285,65.9902 L 276.304,66.0092 S 275.448,66.5472 274.138,67.2062 C 272.453,67.4882 270.523,67.4252 268.339,66.8892 C 267.329,66.6422 266.391,66.3382 265.5,65.9982 Z" style="opacity: 0.5" opacity="0.5" transform=""/><path fill="#eec65e" stroke="none" d="M 267.08,66.9161 C 268.015,67.0611 268.965,66.6891 269.828,66.1091 C 267.447,58.2331 272.369,54.7751 276.21,56.3091 C 279.471,57.6111 281.339,61.6061 278.776,66.0141 C 278.549,66.4041 278.217,66.6861 277.832,66.9051 L 277.851,66.9231 S 275.239,68.5711 272.137,69.6301 C 272.055,69.7181 271.952,69.7581 271.828,69.7321 C 269.452,70.5041 266.833,70.8951 264.9,69.9261 C 262.864,68.9021 264.354,66.4941 267.08,66.9161 Z" transform=""/><path fill="#ccaa4f" stroke="none" d="M 258.936,61.6478 C 260.422,60.3638 261.494,58.7158 261.494,58.7158 L 264.858,61.8328 S 264.648,64.0408 262.608,64.9508 C 261.176,63.9678 259.968,62.8458 258.936,61.6478 Z" style="opacity: 0.5" opacity="0.5" transform=""/><path fill="#eec65e" stroke="none" d="M 265.267,61.7121 S 256.325,67.3301 251.463,64.9101 C 249.295,63.8281 250.886,61.2741 253.79,61.7181 C 256.99,62.2081 260.347,57.0561 260.347,57.0561 L 265.267,61.7121 Z" transform=""/><path fill="none" stroke="#cda245" d="M 266.924,45.5263 S 269.174,45.6283 270.308,46.2603" style="stroke-miterlimit: 10" stroke-miterlimit="10" transform=""/><path fill="none" stroke="#cda245" d="M 267.143,44.4542 S 269.277,43.7312 270.56,43.9092" style="stroke-miterlimit: 10" stroke-miterlimit="10" transform=""/><path fill="none" stroke="#cda245" d="M 253.189,46.6397 S 250.867,46.7417 249.698,47.3737" style="stroke-miterlimit: 10;stroke-width: 0.6342325442128913px" stroke-width="0.6342325442128913" stroke-miterlimit="10" transform=""/><path fill="none" stroke="#cda245" d="M 252.963,45.5669 S 250.761,44.8439 249.437,45.0219" style="stroke-miterlimit: 10;stroke-width: 0.6342325442128913px" stroke-width="0.6342325442128913" stroke-miterlimit="10" transform=""/><path fill="#ccaa4f" stroke="none" d="M 333.441,57.6277 S 325.055,62.9197 320.49,60.6307 C 318.453,59.6067 319.944,57.1977 322.67,57.6207 C 325.672,58.0857 328.818,53.2277 328.818,53.2277 L 333.441,57.6277 Z" style="opacity: 0.8" opacity="0.8" transform=""/><path fill="#e2e2e2" stroke="none" d="M 360.566,52.1734 C 360.291,51.7604 359.822,51.5274 359.34,51.5414 C 359.213,51.2934 358.913,51.1864 358.656,51.3034 C 358.575,51.3404 358.508,51.3964 358.457,51.4624 C 358.076,51.2504 357.602,51.2164 357.175,51.4114 C 356.905,51.5344 356.693,51.7314 356.549,51.9664 C 356.395,51.9744 356.241,52.0094 356.093,52.0774 C 355.642,52.2834 355.373,52.7224 355.359,53.1864 C 355.346,53.1914 355.335,53.1964 355.322,53.2014 C 355.059,53.3214 354.942,53.6324 355.062,53.8964 C 355.069,53.9124 355.077,53.9274 355.085,53.9414 C 354.937,54.2944 354.931,54.7054 355.103,55.0814 C 355.2,55.2934 355.341,55.4694 355.512,55.6054 C 355.43,55.7454 355.415,55.9214 355.488,56.0794 C 355.489,56.0824 355.491,56.0844 355.492,56.0884 C 355.241,56.3074 355.151,56.6734 355.296,56.9924 C 355.474,57.3814 355.933,57.5524 356.322,57.3754 C 356.43,57.3264 356.52,57.2554 356.592,57.1704 C 356.741,57.2964 356.956,57.3314 357.145,57.2454 C 357.173,57.2324 357.199,57.2174 357.223,57.2004 C 357.586,57.4404 358.059,57.4934 358.483,57.3004 C 358.646,57.2264 358.786,57.1224 358.901,56.9984 C 359.04,57.0084 359.184,56.9844 359.32,56.9224 C 359.509,56.8364 359.652,56.6894 359.736,56.5174 C 359.928,56.5304 360.126,56.4974 360.313,56.4114 C 360.76,56.2074 361.022,55.7624 361.014,55.3004 C 361.164,55.2004 361.224,55.0034 361.146,54.8334 C 361.138,54.8164 361.128,54.7994 361.118,54.7834 C 361.436,54.5164 361.552,54.0614 361.371,53.6644 C 361.328,53.5704 361.272,53.4874 361.207,53.4164 C 361.289,53.1904 361.287,52.9324 361.179,52.6964 C 361.059,52.4284 360.829,52.2444 360.566,52.1734 L 360.566,52.1734 M 357.821,54.4194 C 357.824,54.4204 357.827,54.4204 357.83,54.4204 C 357.827,54.4274 357.825,54.4334 357.822,54.4404 C 357.822,54.4324 357.821,54.4264 357.821,54.4194 Z" transform=""/><path fill="#eec65e" stroke="none" d="M 342.931,23.7831 S 346.049,21.1711 348.958,21.1221 C 350.864,21.0891 353.438,21.2491 355.888,20.4701 C 362.516,18.3681 355.986,27.1961 348.65,32.2541 C 343.56,35.7681 336.755,38.9121 336.647,34.9521 C 336.558,31.5991 342.931,23.7831 342.931,23.7831 Z" transform=""/><path fill="#f7a996" stroke="none" d="M 341.435,29.9893 S 344.199,26.1193 347.444,25.3693 C 351.26,24.4883 355.492,21.9863 356.496,22.5553 C 357.719,23.2533 354.409,26.7313 353.07,28.0843 C 351.081,30.0883 346.627,33.1723 343.715,34.2173 C 341.646,34.9633 340.079,35.3383 339.19,33.4693 C 338.301,31.5983 341.435,29.9893 341.435,29.9893 Z" transform=""/><path fill="#ccaa4f" stroke="none" d="M 341.702,29.6602 C 340.677,29.1292 339.837,28.8142 339.837,28.8142 S 338.972,28.7822 338.013,29.1832 C 338.408,30.5762 339.536,32.0542 339.536,32.0542 L 341.702,29.6602 Z" transform=""/><path fill="#eec65e" stroke="none" d="M 336.395,45.3184 S 338.809,46.9984 342.385,46.7814 C 348.949,46.3814 353.257,47.1704 356.055,51.8334 C 359.805,58.0834 355.43,70.0004 343.047,66.9634 C 324.894,62.5104 326.53,42.1414 326.53,42.1414 L 336.395,45.3184 Z" transform=""/><path fill="#ccaa4f" stroke="none" d="M 328.272,54.3582 C 333.129,54.2152 337.846,53.9862 342.385,46.7812 C 341.336,46.7142 342.112,44.6032 340.907,44.6302 C 337.424,44.7062 335.151,42.9552 335.151,42.9552 L 325.488,38.3762 C 325.488,38.3752 326.15,45.8162 328.272,54.3582 Z" style="opacity: 0.5" opacity="0.5" transform=""/><path fill="#eec65e" stroke="none" d="M 329.459,25.05 S 329.378,21.183 328.047,18.738 C 327.173,17.132 325.89,15.063 325.157,12.647 C 323.169,6.10203 321.579,15.821 322.342,24.386 C 322.873,30.332 324.395,37.524 326.525,35.694 C 328.327,34.147 329.459,25.05 329.459,25.05 Z" transform=""/><path fill="#f7a996" stroke="none" d="M 327.296,31.2188 S 328.136,26.2118 326.889,22.5758 C 325.423,18.3008 324.693,12.6578 323.834,12.0068 C 322.788,11.2138 322.462,16.5258 322.365,18.6428 C 322.217,21.7848 322.72,27.9908 323.619,31.4758 C 324.258,33.9528 324.853,35.7158 326.414,35.4858 C 327.978,35.2548 327.296,31.2188 327.296,31.2188 Z" transform=""/><path fill="#eec65e" stroke="none" d="M 328.515,30.0305 S 331.491,28.2785 334.461,28.4915 C 336.531,28.6395 338.954,29.0155 341.014,31.0075 C 343.818,33.7195 344.482,38.1925 344.517,40.4825 C 344.607,46.5305 340.568,50.3595 334.302,50.2135 C 328.126,50.0695 323.15,46.0325 323.564,40.0055 C 323.799,36.5685 324.908,32.1365 328.515,30.0305 Z" transform=""/><path fill="#eec65e" stroke="none" d="M 332.96,28.7373 S 333.989,26.8563 335.922,26.5703 C 335.922,26.5703 333.474,27.9183 333.423,29.1173 L 332.96,28.7373 Z" transform=""/><ellipse cx="329.51861554384357" cy="41.1197160076982" rx="0.809259995372558" ry="1.1252210738127697" fill="#304454" stroke="none" transform="rotate(1.5587 329.51861547482486 41.119714127892124)" r="NaN"/><ellipse cx="339.38646685509184" cy="41.1197160076982" rx="0.809259995372558" ry="1.1252210738127697" fill="#304454" stroke="none" transform="rotate(1.5587 339.3864671004981 41.119714127892124)" r="NaN"/><ellipse cx="335.25399491158464" cy="45.81604518564841" rx="1.414956133884426" ry="1.0752667531107598" fill="#cda245" stroke="none" transform="rotate(187.0483 335.25399592042436 45.81604470288981)" r="NaN"/><path fill="#eec65e" stroke="none" d="M 333.547,28.5237 S 335.222,27.1847 337.116,27.6677 C 337.116,27.6677 334.336,27.9667 333.828,29.0527 L 333.547,28.5237 Z" transform=""/><path fill="#ccaa4f" stroke="none" d="M 340.5,65.9982 C 340.511,66.0002 340.521,65.9992 340.532,66.0012 C 341.468,66.1462 342.417,65.7742 343.281,65.1942 C 340.899,57.3182 345.821,53.8602 349.662,55.3942 C 352.923,56.6972 354.791,60.6922 352.228,65.0992 C 352.001,65.4892 351.67,65.7712 351.285,65.9902 L 351.304,66.0092 S 350.448,66.5472 349.138,67.2062 C 347.453,67.4882 345.523,67.4252 343.339,66.8892 C 342.329,66.6422 341.391,66.3382 340.5,65.9982 Z" style="opacity: 0.5" opacity="0.5" transform=""/><path fill="#eec65e" stroke="none" d="M 342.08,66.9161 C 343.015,67.0611 343.965,66.6891 344.828,66.1091 C 342.447,58.2331 347.369,54.7751 351.21,56.3091 C 354.471,57.6111 356.339,61.6061 353.776,66.0141 C 353.549,66.4041 353.217,66.6861 352.832,66.9051 L 352.851,66.9231 S 350.239,68.5711 347.137,69.6301 C 347.055,69.7181 346.952,69.7581 346.828,69.7321 C 344.452,70.5041 341.833,70.8951 339.9,69.9261 C 337.864,68.9021 339.354,66.4941 342.08,66.9161 Z" transform=""/><path fill="#ccaa4f" stroke="none" d="M 333.936,61.6478 C 335.422,60.3638 336.494,58.7158 336.494,58.7158 L 339.858,61.8328 S 339.648,64.0408 337.608,64.9508 C 336.176,63.9678 334.968,62.8458 333.936,61.6478 Z" style="opacity: 0.5" opacity="0.5" transform=""/><path fill="#eec65e" stroke="none" d="M 340.267,61.7121 S 331.325,67.3301 326.463,64.9101 C 324.295,63.8281 325.886,61.2741 328.79,61.7181 C 331.99,62.2081 335.347,57.0561 335.347,57.0561 L 340.267,61.7121 Z" transform=""/><path fill="none" stroke="#cda245" d="M 341.924,45.5263 S 344.174,45.6283 345.308,46.2603" style="stroke-miterlimit: 10" stroke-miterlimit="10" transform=""/><path fill="none" stroke="#cda245" d="M 342.143,44.4542 S 344.277,43.7312 345.56,43.9092" style="stroke-miterlimit: 10" stroke-miterlimit="10" transform=""/><path fill="none" stroke="#cda245" d="M 328.189,46.6397 S 325.867,46.7417 324.698,47.3737" style="stroke-miterlimit: 10;stroke-width: 0.6342325442128913px" stroke-width="0.6342325442128913" stroke-miterlimit="10" transform=""/><path fill="none" stroke="#cda245" d="M 327.963,45.5669 S 325.761,44.8439 324.437,45.0219" style="stroke-miterlimit: 10;stroke-width: 0.6342325442128913px" stroke-width="0.6342325442128913" stroke-miterlimit="10" transform=""/><path fill="#ccaa4f" stroke="none" d="M 33.4413,132.628 S 25.0553,137.92 20.4903,135.631 C 18.4533,134.607 19.9443,132.198 22.6703,132.621 C 25.6723,133.086 28.8183,128.228 28.8183,128.228 L 33.4413,132.628 Z" style="opacity: 0.8" opacity="0.8" transform=""/><path fill="#e2e2e2" stroke="none" d="M 60.5659,127.173 C 60.2909,126.76 59.8219,126.527 59.3399,126.541 C 59.2129,126.293 58.9129,126.186 58.6559,126.303 C 58.5749,126.34 58.5079,126.396 58.4569,126.462 C 58.0759,126.25 57.6019,126.216 57.1749,126.411 C 56.9049,126.534 56.6929,126.731 56.5489,126.966 C 56.3949,126.974 56.2409,127.009 56.0929,127.077 C 55.6419,127.283 55.3729,127.722 55.3589,128.186 C 55.3459,128.191 55.3349,128.196 55.3219,128.201 C 55.0589,128.321 54.9419,128.632 55.0619,128.896 C 55.0689,128.912 55.0769,128.927 55.0849,128.941 C 54.9369,129.294 54.9309,129.705 55.1029,130.081 C 55.1999,130.293 55.3409,130.469 55.5119,130.605 C 55.4299,130.745 55.4149,130.921 55.4879,131.079 C 55.4889,131.082 55.4909,131.084 55.4919,131.088 C 55.2409,131.307 55.1509,131.673 55.2959,131.992 C 55.4739,132.381 55.9329,132.552 56.3219,132.375 C 56.4299,132.326 56.5199,132.255 56.5919,132.17 C 56.7409,132.296 56.9559,132.331 57.1449,132.245 C 57.1729,132.232 57.1989,132.217 57.2229,132.2 C 57.5859,132.44 58.0589,132.493 58.4829,132.3 C 58.6459,132.226 58.7859,132.122 58.9009,131.998 C 59.0399,132.008 59.1839,131.984 59.3199,131.922 C 59.5089,131.836 59.6519,131.689 59.7359,131.517 C 59.9279,131.53 60.1259,131.497 60.3129,131.411 C 60.7599,131.207 61.0219,130.762 61.0139,130.3 C 61.1639,130.2 61.2239,130.003 61.1459,129.833 C 61.1379,129.816 61.1279,129.799 61.1179,129.783 C 61.4359,129.516 61.5519,129.061 61.3709,128.664 C 61.3279,128.57 61.2719,128.487 61.2069,128.416 C 61.2889,128.19 61.2869,127.932 61.1789,127.696 C 61.0589,127.428 60.8289,127.244 60.5659,127.173 L 60.5659,127.173 M 57.8209,129.419 C 57.8239,129.42 57.8269,129.42 57.8299,129.42 C 57.8269,129.427 57.8249,129.433 57.8219,129.44 C 57.8219,129.432 57.8209,129.426 57.8209,129.419 Z" transform=""/><path fill="#eec65e" stroke="none" d="M 42.9307,98.7831 S 46.0487,96.1711 48.9577,96.1221 C 50.8637,96.0891 53.4377,96.2491 55.8877,95.4701 C 62.5157,93.3681 55.9857,102.196 48.6497,107.254 C 43.5597,110.768 36.7547,113.912 36.6467,109.952 C 36.5577,106.599 42.9307,98.7831 42.9307,98.7831 Z" transform=""/><path fill="#f7a996" stroke="none" d="M 41.4346,104.989 S 44.1986,101.119 47.4436,100.369 C 51.2596,99.4883 55.4916,96.9863 56.4956,97.5553 C 57.7186,98.2533 54.4086,101.731 53.0696,103.084 C 51.0806,105.088 46.6266,108.172 43.7146,109.217 C 41.6456,109.963 40.0786,110.338 39.1896,108.469 C 38.3006,106.598 41.4346,104.989 41.4346,104.989 Z" transform=""/><path fill="#ccaa4f" stroke="none" d="M 41.7025,104.66 C 40.6775,104.129 39.8375,103.814 39.8375,103.814 S 38.9725,103.782 38.0135,104.183 C 38.4085,105.576 39.5365,107.054 39.5365,107.054 L 41.7025,104.66 Z" transform=""/><path fill="#eec65e" stroke="none" d="M 36.3955,120.318 S 38.8095,121.998 42.3855,121.781 C 48.9495,121.381 53.2575,122.17 56.0555,126.833 C 59.8055,133.083 55.4305,145 43.0475,141.963 C 24.8945,137.51 26.5305,117.141 26.5305,117.141 L 36.3955,120.318 Z" transform=""/><path fill="#ccaa4f" stroke="none" d="M 28.2723,129.358 C 33.1293,129.215 37.8463,128.986 42.3853,121.781 C 41.3363,121.714 42.1123,119.603 40.9073,119.63 C 37.4243,119.706 35.1513,117.955 35.1513,117.955 L 25.4883,113.376 C 25.4883,113.375 26.1503,120.816 28.2723,129.358 Z" style="opacity: 0.5" opacity="0.5" transform=""/><path fill="#eec65e" stroke="none" d="M 29.4593,100.05 S 29.3783,96.183 28.0473,93.738 C 27.1733,92.132 25.8903,90.063 25.1573,87.647 C 23.1693,81.102 21.5793,90.821 22.3423,99.386 C 22.8733,105.332 24.3953,112.524 26.5253,110.694 C 28.3273,109.147 29.4593,100.05 29.4593,100.05 Z" transform=""/><path fill="#f7a996" stroke="none" d="M 27.2963,106.219 S 28.1363,101.212 26.8893,97.5758 C 25.4233,93.3008 24.6933,87.6578 23.8343,87.0068 C 22.7883,86.2138 22.4623,91.5258 22.3653,93.6428 C 22.2173,96.7848 22.7203,102.991 23.6193,106.476 C 24.2583,108.953 24.8533,110.716 26.4143,110.486 C 27.9783,110.255 27.2963,106.219 27.2963,106.219 Z" transform=""/><path fill="#eec65e" stroke="none" d="M 28.5152,105.03 S 31.4912,103.278 34.4612,103.491 C 36.5312,103.639 38.9542,104.015 41.0142,106.007 C 43.8182,108.719 44.4822,113.192 44.5172,115.482 C 44.6072,121.53 40.5682,125.359 34.3022,125.213 C 28.1262,125.069 23.1502,121.032 23.5642,115.005 C 23.7992,111.568 24.9082,107.136 28.5152,105.03 Z" transform=""/><path fill="#eec65e" stroke="none" d="M 32.9598,103.737 S 33.9888,101.856 35.9218,101.57 C 35.9218,101.57 33.4738,102.918 33.4228,104.117 L 32.9598,103.737 Z" transform=""/><ellipse cx="29.51861554384356" cy="116.1197160076982" rx="0.809259995372558" ry="1.1252210738127697" fill="#304454" stroke="none" transform="rotate(1.5587 29.51861547482487 116.11971412789212)" r="NaN"/><ellipse cx="39.3864668550918" cy="116.1197160076982" rx="0.809259995372558" ry="1.1252210738127697" fill="#304454" stroke="none" transform="rotate(1.5587 39.38646710049812 116.11971412789212)" r="NaN"/><ellipse cx="35.2539949115846" cy="120.81604518564842" rx="1.414956133884426" ry="1.0752667531107598" fill="#cda245" stroke="none" transform="rotate(187.0483 35.253995920424366 120.81604470288981)" r="NaN"/><path fill="#eec65e" stroke="none" d="M 33.5468,103.524 S 35.2218,102.185 37.1158,102.668 C 37.1158,102.668 34.3358,102.967 33.8278,104.053 L 33.5468,103.524 Z" transform=""/><path fill="#ccaa4f" stroke="none" d="M 40.5004,140.998 C 40.5114,141 40.5214,140.999 40.5324,141.001 C 41.4684,141.146 42.4174,140.774 43.2814,140.194 C 40.8994,132.318 45.8214,128.86 49.6624,130.394 C 52.9234,131.697 54.7914,135.692 52.2284,140.099 C 52.0014,140.489 51.6704,140.771 51.2854,140.99 L 51.3044,141.009 S 50.4484,141.547 49.1384,142.206 C 47.4534,142.488 45.5234,142.425 43.3394,141.889 C 42.3294,141.642 41.3914,141.338 40.5004,140.998 Z" style="opacity: 0.5" opacity="0.5" transform=""/><path fill="#eec65e" stroke="none" d="M 42.0803,141.916 C 43.0153,142.061 43.9653,141.689 44.8283,141.109 C 42.4473,133.233 47.3693,129.775 51.2103,131.309 C 54.4713,132.611 56.3393,136.606 53.7763,141.014 C 53.5493,141.404 53.2173,141.686 52.8323,141.905 L 52.8513,141.923 S 50.2393,143.571 47.1373,144.63 C 47.0553,144.718 46.9523,144.758 46.8283,144.732 C 44.4523,145.504 41.8333,145.895 39.9003,144.926 C 37.8643,143.902 39.3543,141.494 42.0803,141.916 Z" transform=""/><path fill="#ccaa4f" stroke="none" d="M 33.9365,136.648 C 35.4225,135.364 36.4945,133.716 36.4945,133.716 L 39.8585,136.833 S 39.6485,139.041 37.6085,139.951 C 36.1765,138.968 34.9685,137.846 33.9365,136.648 Z" style="opacity: 0.5" opacity="0.5" transform=""/><path fill="#eec65e" stroke="none" d="M 40.2669,136.712 S 31.3249,142.33 26.4629,139.91 C 24.2949,138.828 25.8859,136.274 28.7899,136.718 C 31.9899,137.208 35.3469,132.056 35.3469,132.056 L 40.2669,136.712 Z" transform=""/><path fill="none" stroke="#cda245" d="M 41.9235,120.526 S 44.1735,120.628 45.3075,121.26" style="stroke-miterlimit: 10" stroke-miterlimit="10" transform=""/><path fill="none" stroke="#cda245" d="M 42.1427,119.454 S 44.2767,118.731 45.5597,118.909" style="stroke-miterlimit: 10" stroke-miterlimit="10" transform=""/><path fill="none" stroke="#cda245" d="M 28.1892,121.64 S 25.8672,121.742 24.6982,122.374" style="stroke-miterlimit: 10;stroke-width: 0.6342325442128913px" stroke-width="0.6342325442128913" stroke-miterlimit="10" transform=""/><path fill="none" stroke="#cda245" d="M 27.9632,120.567 S 25.7612,119.844 24.4372,120.022" style="stroke-miterlimit: 10;stroke-width: 0.6342325442128913px" stroke-width="0.6342325442128913" stroke-miterlimit="10" transform=""/><path fill="#d78334" stroke="none" d="M 26.9324,140.284 C 23.8154,144.623 14.4254,152.385 14.0384,152.057 C 13.3474,151.473 18.1414,139.545 21.2584,135.206 S 24.9424,131.986 27.1884,133.459 C 29.2424,134.806 30.0494,135.945 26.9324,140.284 Z" transform=""/><path fill="#f4953f" stroke="none" d="M 27.3204,133.384 C 24.9564,131.892 24.3594,130.758 21.0784,135.154 C 20.8144,135.507 20.5384,135.916 20.2554,136.359 C 20.8424,138.81 23.1194,140.639 25.8444,140.639 C 26.1904,140.639 26.5274,140.604 26.8564,140.547 C 26.9214,140.464 26.9894,140.379 27.0504,140.297 C 30.3314,135.902 29.4824,134.748 27.3204,133.384 Z" transform=""/><path fill="#f4953f" stroke="none" d="M 16.3052,144.265 C 14.4102,148.455 12.9182,152.658 13.3142,152.99 C 13.5482,153.187 17.2492,150.289 20.6722,147.101 C 18.7562,147.004 17.1192,145.878 16.3052,144.265 Z" transform=""/><path fill="#f4953f" stroke="none" d="M 26.2696,141.311 C 25.9536,141.366 25.6296,141.4 25.2976,141.4 C 22.6816,141.4 20.4966,139.608 19.9326,137.208 C 18.8586,138.924 17.6736,141.25 16.6076,143.579 C 17.4716,145.274 19.2126,146.457 21.2486,146.559 C 23.2196,144.744 25.1046,142.838 26.2696,141.311 Z" transform=""/><path fill="#d78334" stroke="none" d="M 27.3831,133.866 C 26.2541,132.977 25.8511,132.235 24.5701,133.072 C 24.3081,133.973 24.7531,135.116 25.7391,135.868 C 26.4881,136.439 27.3711,136.65 28.1031,136.504 C 28.6551,135.371 28.3401,134.619 27.3831,133.866 Z" transform=""/><path fill="#64c4ad" stroke="none" d="M 37.6885,129.683 C 38.1505,128.834 35.9335,127.897 33.5115,128.377 C 32.3075,128.616 31.2915,129.186 30.5725,129.699 C 30.3025,129.799 30.0455,129.926 29.7985,130.076 C 31.1165,128.096 33.8075,123.738 32.4175,123.061 C 30.8935,122.318 29.6005,128.515 29.2325,130.473 C 29.2115,130.49 29.1895,130.507 29.1685,130.524 C 29.2495,130.017 29.6245,127.135 28.0095,125.334 C 26.6165,123.78 25.0395,123.41 24.6785,124.342 C 24.3175,125.271 26.4565,125.551 27.5805,126.69 C 29.0505,128.18 29.1495,130.149 29.1545,130.536 C 29.1435,130.546 29.1325,130.555 29.1215,130.565 C 29.0905,129.825 28.8925,128.178 27.7635,127.603 C 26.1005,126.754 23.9405,127.448 23.5195,128.511 C 23.3105,129.039 23.9435,129.414 24.9175,128.919 C 25.8915,128.425 26.6095,127.636 27.8445,128.297 C 28.5695,128.686 28.9315,130.002 29.0645,130.615 C 27.7215,131.773 26.7895,133.585 26.2035,135.057 C 26.2595,135.08 26.3155,135.103 26.3715,135.125 C 26.8055,134.231 27.3895,133.202 28.1355,132.257 C 30.3275,129.484 32.2225,129.88 33.3215,130.604 C 34.4975,131.38 33.8655,132.973 34.3355,133.76 C 34.8035,134.547 35.3975,134.312 35.6165,133.762 C 35.9315,132.97 35.3805,129.789 32.6075,129.459 C 32.8635,129.414 33.1305,129.38 33.4035,129.361 C 35.5775,129.214 37.2415,130.507 37.6885,129.683 Z" transform=""/><path fill="none" stroke="#28ae7b" d="M 3,153 L 153,153 L 153,3 L 3,3 Z" style="stroke-width: 2px;fill-opacity: 0;stroke-opacity: 1" stroke-width="2" fill-opacity="0" stroke-opacity="1" stroke-dasharray="0"/><path fill="none" stroke="#df0030" d="M 156.75,153 L 374.25,153 L 374.25,3 L 156.75,3 Z" style="stroke-width: 2px;fill-opacity: 0;stroke-opacity: 1" stroke-width="2" fill-opacity="0" stroke-opacity="1" stroke-dasharray="0"/></svg>