<svg xmlns="http://www.w3.org/2000/svg" width="172.5" height="172.5" viewBox="0 0 172.5 172.5"><path fill="#ccfaff" stroke="#0c7f99" d="M7.5 150v15h15l7.5-7.5v-15H15z" stroke-width="2"/><path fill="#ccfaff" stroke="#0c7f99" d="M7.5 150h15v15M22.5 150l7.5-7.5" stroke-width="2"/><path fill="#ccfaff" stroke="#0c7f99" d="M7.5 135v15h15l7.5-7.5v-15H15z" stroke-width="2"/><path fill="#ccfaff" stroke="#0c7f99" d="M7.5 135h15v15M22.5 135l7.5-7.5" stroke-width="2"/><path fill="#ccfaff" stroke="#0c7f99" d="M7.5 120v15h15l7.5-7.5v-15H15z" stroke-width="2"/><path fill="#ccfaff" stroke="#0c7f99" d="M7.5 120h15v15M22.5 120l7.5-7.5" stroke-width="2"/><path fill="#ccfaff" stroke="#0c7f99" d="M7.5 105v15h15l7.5-7.5v-15H15z" stroke-width="2"/><path fill="#ccfaff" stroke="#0c7f99" d="M7.5 105h15v15M22.5 105l7.5-7.5" stroke-width="2"/><path fill="#ccfaff" stroke="#0c7f99" d="M7.5 90v15h15l7.5-7.5v-15H15z" stroke-width="2"/><path fill="#ccfaff" stroke="#0c7f99" d="M7.5 90h15v15M22.5 90l7.5-7.5" stroke-width="2"/><path fill="#ccfaff" stroke="#0c7f99" d="M7.5 75v15h15l7.5-7.5v-15H15z" stroke-width="2"/><path fill="#ccfaff" stroke="#0c7f99" d="M7.5 75h15v15M22.5 75l7.5-7.5" stroke-width="2"/><path fill="#ccfaff" stroke="#0c7f99" d="M7.5 60v15h15l7.5-7.5v-15H15z" stroke-width="2"/><path fill="#ccfaff" stroke="#0c7f99" d="M7.5 60h15v15M22.5 60l7.5-7.5" stroke-width="2"/><path fill="#ccfaff" stroke="#0c7f99" d="M7.5 45v15h15l7.5-7.5v-15H15z" stroke-width="2"/><path fill="#ccfaff" stroke="#0c7f99" d="M7.5 45h15v15M22.5 45l7.5-7.5" stroke-width="2"/><path fill="#ccfaff" stroke="#0c7f99" d="M7.5 30v15h15l7.5-7.5v-15H15z" stroke-width="2"/><path fill="#ccfaff" stroke="#0c7f99" d="M7.5 30h15v15M22.5 30l7.5-7.5" stroke-width="2"/><path fill="#ccfaff" stroke="#0c7f99" d="M7.5 15v15h15l7.5-7.5v-15H15z" stroke-width="2"/><path fill="#ccfaff" stroke="#0c7f99" d="M7.5 15h15v15M22.5 15L30 7.5M37.5 150v15h15l7.5-7.5v-15H45z" stroke-width="2"/><path fill="#ccfaff" stroke="#0c7f99" d="M37.5 150h15v15M52.5 150l7.5-7.5" stroke-width="2"/><path fill="#ccfaff" stroke="#0c7f99" d="M37.5 135v15h15l7.5-7.5v-15H45z" stroke-width="2"/><path fill="#ccfaff" stroke="#0c7f99" d="M37.5 135h15v15M52.5 135l7.5-7.5" stroke-width="2"/><path fill="#ccfaff" stroke="#0c7f99" d="M37.5 120v15h15l7.5-7.5v-15H45z" stroke-width="2"/><path fill="#ccfaff" stroke="#0c7f99" d="M37.5 120h15v15M52.5 120l7.5-7.5" stroke-width="2"/><path fill="#ccfaff" stroke="#0c7f99" d="M37.5 105v15h15l7.5-7.5v-15H45z" stroke-width="2"/><path fill="#ccfaff" stroke="#0c7f99" d="M37.5 105h15v15M52.5 105l7.5-7.5" stroke-width="2"/><path fill="#ccfaff" stroke="#0c7f99" d="M37.5 90v15h15l7.5-7.5v-15H45z" stroke-width="2"/><path fill="#ccfaff" stroke="#0c7f99" d="M37.5 90h15v15M52.5 90l7.5-7.5" stroke-width="2"/><path fill="#ccfaff" stroke="#0c7f99" d="M37.5 75v15h15l7.5-7.5v-15H45z" stroke-width="2"/><path fill="#ccfaff" stroke="#0c7f99" d="M37.5 75h15v15M52.5 75l7.5-7.5" stroke-width="2"/><path fill="#ccfaff" stroke="#0c7f99" d="M37.5 60v15h15l7.5-7.5v-15H45z" stroke-width="2"/><path fill="#ccfaff" stroke="#0c7f99" d="M37.5 60h15v15M52.5 60l7.5-7.5" stroke-width="2"/><path fill="#ccfaff" stroke="#0c7f99" d="M37.5 45v15h15l7.5-7.5v-15H45z" stroke-width="2"/><path fill="#ccfaff" stroke="#0c7f99" d="M37.5 45h15v15M52.5 45l7.5-7.5" stroke-width="2"/><path fill="#ccfaff" stroke="#0c7f99" d="M37.5 30v15h15l7.5-7.5v-15H45z" stroke-width="2"/><path fill="#ccfaff" stroke="#0c7f99" d="M37.5 30h15v15M52.5 30l7.5-7.5" stroke-width="2"/><path fill="#ccfaff" stroke="#0c7f99" d="M37.5 15v15h15l7.5-7.5v-15H45z" stroke-width="2"/><path fill="#ccfaff" stroke="#0c7f99" d="M37.5 15h15v15M52.5 15L60 7.5M67.5 150v15h15l7.5-7.5v-15H75z" stroke-width="2"/><path fill="#ccfaff" stroke="#0c7f99" d="M67.5 150h15v15M82.5 150l7.5-7.5" stroke-width="2"/><path fill="#ccfaff" stroke="#0c7f99" d="M67.5 135v15h15l7.5-7.5v-15H75z" stroke-width="2"/><path fill="#ccfaff" stroke="#0c7f99" d="M67.5 135h15v15M82.5 135l7.5-7.5" stroke-width="2"/><path fill="#ccfaff" stroke="#0c7f99" d="M67.5 120v15h15l7.5-7.5v-15H75z" stroke-width="2"/><path fill="#ccfaff" stroke="#0c7f99" d="M67.5 120h15v15M82.5 120l7.5-7.5" stroke-width="2"/><path fill="#ccfaff" stroke="#0c7f99" d="M67.5 105v15h15l7.5-7.5v-15H75z" stroke-width="2"/><path fill="#ccfaff" stroke="#0c7f99" d="M67.5 105h15v15M82.5 105l7.5-7.5" stroke-width="2"/><path fill="#ccfaff" stroke="#0c7f99" d="M67.5 90v15h15l7.5-7.5v-15H75z" stroke-width="2"/><path fill="#ccfaff" stroke="#0c7f99" d="M67.5 90h15v15M82.5 90l7.5-7.5" stroke-width="2"/><path fill="#ccfaff" stroke="#0c7f99" d="M67.5 75v15h15l7.5-7.5v-15H75z" stroke-width="2"/><path fill="#ccfaff" stroke="#0c7f99" d="M67.5 75h15v15M82.5 75l7.5-7.5" stroke-width="2"/><path fill="#ccfaff" stroke="#0c7f99" d="M67.5 60v15h15l7.5-7.5v-15H75z" stroke-width="2"/><path fill="#ccfaff" stroke="#0c7f99" d="M67.5 60h15v15M82.5 60l7.5-7.5" stroke-width="2"/><path fill="#ccfaff" stroke="#0c7f99" d="M67.5 45v15h15l7.5-7.5v-15H75z" stroke-width="2"/><path fill="#ccfaff" stroke="#0c7f99" d="M67.5 45h15v15M82.5 45l7.5-7.5" stroke-width="2"/><path fill="#ccfaff" stroke="#0c7f99" d="M67.5 30v15h15l7.5-7.5v-15H75z" stroke-width="2"/><path fill="#ccfaff" stroke="#0c7f99" d="M67.5 30h15v15M82.5 30l7.5-7.5" stroke-width="2"/><path fill="#ccfaff" stroke="#0c7f99" d="M67.5 15v15h15l7.5-7.5v-15H75z" stroke-width="2"/><path fill="#ccfaff" stroke="#0c7f99" d="M67.5 15h15v15M82.5 15L90 7.5" stroke-width="2"/><path fill="#ffbde0" stroke="#9e034e" d="M105 150v15h15l7.5-7.5v-15h-15z" stroke-width="2"/><path fill="#ffbde0" stroke="#9e034e" d="M105 150h15v15M120 150l7.5-7.5M105 120v15h15l7.5-7.5v-15h-15z" stroke-width="2"/><path fill="#ffbde0" stroke="#9e034e" d="M105 120h15v15M120 120l7.5-7.5M105 90v15h15l7.5-7.5v-15h-15z" stroke-width="2"/><path fill="#ffbde0" stroke="#9e034e" d="M105 90h15v15M120 90l7.5-7.5M105 60v15h15l7.5-7.5v-15h-15z" stroke-width="2"/><path fill="#ffbde0" stroke="#9e034e" d="M105 60h15v15M120 60l7.5-7.5M105 30v15h15l7.5-7.5v-15h-15z" stroke-width="2"/><path fill="#ffbde0" stroke="#9e034e" d="M105 30h15v15M120 30l7.5-7.5M135 150v15h15l7.5-7.5v-15h-15z" stroke-width="2"/><path fill="#ffbde0" stroke="#9e034e" d="M135 150h15v15M150 150l7.5-7.5M135 120v15h15l7.5-7.5v-15h-15z" stroke-width="2"/><path fill="#ffbde0" stroke="#9e034e" d="M135 120h15v15M150 120l7.5-7.5M135 90v15h15l7.5-7.5v-15h-15z" stroke-width="2"/><path fill="#ffbde0" stroke="#9e034e" d="M135 90h15v15M150 90l7.5-7.5M135 60v15h15l7.5-7.5v-15h-15z" stroke-width="2"/><path fill="#ffbde0" stroke="#9e034e" d="M135 60h15v15M150 60l7.5-7.5" stroke-width="2"/></svg>
