<svg xmlns="http://www.w3.org/2000/svg" width="322.5" height="172.5" viewBox="0 0 322.5 172.5"><path fill="#ccfaff" stroke="#0c7f99" d="M7.5 150v15h15l7.5-7.5v-15H15z" stroke-width="2"/><path fill="#ccfaff" stroke="#0c7f99" d="M7.5 150h15v15M22.5 150l7.5-7.5" stroke-width="2"/><path fill="#ccfaff" stroke="#0c7f99" d="M7.5 135v15h15l7.5-7.5v-15H15z" stroke-width="2"/><path fill="#ccfaff" stroke="#0c7f99" d="M7.5 135h15v15M22.5 135l7.5-7.5" stroke-width="2"/><path fill="#ccfaff" stroke="#0c7f99" d="M7.5 120v15h15l7.5-7.5v-15H15z" stroke-width="2"/><path fill="#ccfaff" stroke="#0c7f99" d="M7.5 120h15v15M22.5 120l7.5-7.5" stroke-width="2"/><path fill="#ccfaff" stroke="#0c7f99" d="M7.5 105v15h15l7.5-7.5v-15H15z" stroke-width="2"/><path fill="#ccfaff" stroke="#0c7f99" d="M7.5 105h15v15M22.5 105l7.5-7.5" stroke-width="2"/><path fill="#ccfaff" stroke="#0c7f99" d="M7.5 90v15h15l7.5-7.5v-15H15z" stroke-width="2"/><path fill="#ccfaff" stroke="#0c7f99" d="M7.5 90h15v15M22.5 90l7.5-7.5" stroke-width="2"/><path fill="#ccfaff" stroke="#0c7f99" d="M7.5 75v15h15l7.5-7.5v-15H15z" stroke-width="2"/><path fill="#ccfaff" stroke="#0c7f99" d="M7.5 75h15v15M22.5 75l7.5-7.5" stroke-width="2"/><path fill="#ccfaff" stroke="#0c7f99" d="M7.5 60v15h15l7.5-7.5v-15H15z" stroke-width="2"/><path fill="#ccfaff" stroke="#0c7f99" d="M7.5 60h15v15M22.5 60l7.5-7.5" stroke-width="2"/><path fill="#ccfaff" stroke="#0c7f99" d="M7.5 45v15h15l7.5-7.5v-15H15z" stroke-width="2"/><path fill="#ccfaff" stroke="#0c7f99" d="M7.5 45h15v15M22.5 45l7.5-7.5" stroke-width="2"/><path fill="#ccfaff" stroke="#0c7f99" d="M7.5 30v15h15l7.5-7.5v-15H15z" stroke-width="2"/><path fill="#ccfaff" stroke="#0c7f99" d="M7.5 30h15v15M22.5 30l7.5-7.5" stroke-width="2"/><path fill="#ccfaff" stroke="#0c7f99" d="M7.5 15v15h15l7.5-7.5v-15H15z" stroke-width="2"/><path fill="#ccfaff" stroke="#0c7f99" d="M7.5 15h15v15M22.5 15L30 7.5M37.5 150v15h15l7.5-7.5v-15H45z" stroke-width="2"/><path fill="#ccfaff" stroke="#0c7f99" d="M37.5 150h15v15M52.5 150l7.5-7.5" stroke-width="2"/><path fill="#ccfaff" stroke="#0c7f99" d="M37.5 135v15h15l7.5-7.5v-15H45z" stroke-width="2"/><path fill="#ccfaff" stroke="#0c7f99" d="M37.5 135h15v15M52.5 135l7.5-7.5" stroke-width="2"/><path fill="#ccfaff" stroke="#0c7f99" d="M37.5 120v15h15l7.5-7.5v-15H45z" stroke-width="2"/><path fill="#ccfaff" stroke="#0c7f99" d="M37.5 120h15v15M52.5 120l7.5-7.5" stroke-width="2"/><path fill="#ccfaff" stroke="#0c7f99" d="M37.5 105v15h15l7.5-7.5v-15H45z" stroke-width="2"/><path fill="#ccfaff" stroke="#0c7f99" d="M37.5 105h15v15M52.5 105l7.5-7.5" stroke-width="2"/><path fill="#ccfaff" stroke="#0c7f99" d="M37.5 90v15h15l7.5-7.5v-15H45z" stroke-width="2"/><path fill="#ccfaff" stroke="#0c7f99" d="M37.5 90h15v15M52.5 90l7.5-7.5" stroke-width="2"/><path fill="#ccfaff" stroke="#0c7f99" d="M37.5 75v15h15l7.5-7.5v-15H45z" stroke-width="2"/><path fill="#ccfaff" stroke="#0c7f99" d="M37.5 75h15v15M52.5 75l7.5-7.5" stroke-width="2"/><path fill="#ccfaff" stroke="#0c7f99" d="M37.5 60v15h15l7.5-7.5v-15H45z" stroke-width="2"/><path fill="#ccfaff" stroke="#0c7f99" d="M37.5 60h15v15M52.5 60l7.5-7.5" stroke-width="2"/><path fill="#ccfaff" stroke="#0c7f99" d="M37.5 45v15h15l7.5-7.5v-15H45z" stroke-width="2"/><path fill="#ccfaff" stroke="#0c7f99" d="M37.5 45h15v15M52.5 45l7.5-7.5" stroke-width="2"/><path fill="#ccfaff" stroke="#0c7f99" d="M37.5 30v15h15l7.5-7.5v-15H45z" stroke-width="2"/><path fill="#ccfaff" stroke="#0c7f99" d="M37.5 30h15v15M52.5 30l7.5-7.5" stroke-width="2"/><path fill="#ccfaff" stroke="#0c7f99" d="M37.5 15v15h15l7.5-7.5v-15H45z" stroke-width="2"/><path fill="#ccfaff" stroke="#0c7f99" d="M37.5 15h15v15M52.5 15L60 7.5M67.5 150v15h15l7.5-7.5v-15H75z" stroke-width="2"/><path fill="#ccfaff" stroke="#0c7f99" d="M67.5 150h15v15M82.5 150l7.5-7.5" stroke-width="2"/><path fill="#ccfaff" stroke="#0c7f99" d="M67.5 135v15h15l7.5-7.5v-15H75z" stroke-width="2"/><path fill="#ccfaff" stroke="#0c7f99" d="M67.5 135h15v15M82.5 135l7.5-7.5" stroke-width="2"/><path fill="#ccfaff" stroke="#0c7f99" d="M67.5 120v15h15l7.5-7.5v-15H75z" stroke-width="2"/><path fill="#ccfaff" stroke="#0c7f99" d="M67.5 120h15v15M82.5 120l7.5-7.5" stroke-width="2"/><path fill="#ccfaff" stroke="#0c7f99" d="M67.5 105v15h15l7.5-7.5v-15H75z" stroke-width="2"/><path fill="#ccfaff" stroke="#0c7f99" d="M67.5 105h15v15M82.5 105l7.5-7.5" stroke-width="2"/><path fill="#ccfaff" stroke="#0c7f99" d="M67.5 90v15h15l7.5-7.5v-15H75z" stroke-width="2"/><path fill="#ccfaff" stroke="#0c7f99" d="M67.5 90h15v15M82.5 90l7.5-7.5" stroke-width="2"/><path fill="#ccfaff" stroke="#0c7f99" d="M67.5 75v15h15l7.5-7.5v-15H75z" stroke-width="2"/><path fill="#ccfaff" stroke="#0c7f99" d="M67.5 75h15v15M82.5 75l7.5-7.5" stroke-width="2"/><path fill="#ccfaff" stroke="#0c7f99" d="M67.5 60v15h15l7.5-7.5v-15H75z" stroke-width="2"/><path fill="#ccfaff" stroke="#0c7f99" d="M67.5 60h15v15M82.5 60l7.5-7.5" stroke-width="2"/><path fill="#ccfaff" stroke="#0c7f99" d="M67.5 45v15h15l7.5-7.5v-15H75z" stroke-width="2"/><path fill="#ccfaff" stroke="#0c7f99" d="M67.5 45h15v15M82.5 45l7.5-7.5" stroke-width="2"/><path fill="#ccfaff" stroke="#0c7f99" d="M67.5 30v15h15l7.5-7.5v-15H75z" stroke-width="2"/><path fill="#ccfaff" stroke="#0c7f99" d="M67.5 30h15v15M82.5 30l7.5-7.5" stroke-width="2"/><path fill="#ccfaff" stroke="#0c7f99" d="M67.5 15v15h15l7.5-7.5v-15H75z" stroke-width="2"/><path fill="#ccfaff" stroke="#0c7f99" d="M67.5 15h15v15M82.5 15L90 7.5M97.5 150v15h15l7.5-7.5v-15h-15z" stroke-width="2"/><path fill="#ccfaff" stroke="#0c7f99" d="M97.5 150h15v15M112.5 150l7.5-7.5" stroke-width="2"/><path fill="#ccfaff" stroke="#0c7f99" d="M97.5 135v15h15l7.5-7.5v-15h-15z" stroke-width="2"/><path fill="#ccfaff" stroke="#0c7f99" d="M97.5 135h15v15M112.5 135l7.5-7.5" stroke-width="2"/><path fill="#ccfaff" stroke="#0c7f99" d="M97.5 120v15h15l7.5-7.5v-15h-15z" stroke-width="2"/><path fill="#ccfaff" stroke="#0c7f99" d="M97.5 120h15v15M112.5 120l7.5-7.5" stroke-width="2"/><path fill="#ccfaff" stroke="#0c7f99" d="M97.5 105v15h15l7.5-7.5v-15h-15z" stroke-width="2"/><path fill="#ccfaff" stroke="#0c7f99" d="M97.5 105h15v15M112.5 105l7.5-7.5" stroke-width="2"/><path fill="#ccfaff" stroke="#0c7f99" d="M97.5 90v15h15l7.5-7.5v-15h-15z" stroke-width="2"/><path fill="#ccfaff" stroke="#0c7f99" d="M97.5 90h15v15M112.5 90l7.5-7.5" stroke-width="2"/><path fill="#ccfaff" stroke="#0c7f99" d="M97.5 75v15h15l7.5-7.5v-15h-15z" stroke-width="2"/><path fill="#ccfaff" stroke="#0c7f99" d="M97.5 75h15v15M112.5 75l7.5-7.5" stroke-width="2"/><path fill="#ccfaff" stroke="#0c7f99" d="M97.5 60v15h15l7.5-7.5v-15h-15z" stroke-width="2"/><path fill="#ccfaff" stroke="#0c7f99" d="M97.5 60h15v15M112.5 60l7.5-7.5" stroke-width="2"/><path fill="#ccfaff" stroke="#0c7f99" d="M97.5 45v15h15l7.5-7.5v-15h-15z" stroke-width="2"/><path fill="#ccfaff" stroke="#0c7f99" d="M97.5 45h15v15M112.5 45l7.5-7.5" stroke-width="2"/><path fill="#ccfaff" stroke="#0c7f99" d="M97.5 30v15h15l7.5-7.5v-15h-15z" stroke-width="2"/><path fill="#ccfaff" stroke="#0c7f99" d="M97.5 30h15v15M112.5 30l7.5-7.5" stroke-width="2"/><path fill="#ccfaff" stroke="#0c7f99" d="M97.5 15v15h15l7.5-7.5v-15h-15z" stroke-width="2"/><path fill="#ccfaff" stroke="#0c7f99" d="M97.5 15h15v15M112.5 15l7.5-7.5M127.5 150v15h15l7.5-7.5v-15h-15z" stroke-width="2"/><path fill="#ccfaff" stroke="#0c7f99" d="M127.5 150h15v15M142.5 150l7.5-7.5" stroke-width="2"/><path fill="#ccfaff" stroke="#0c7f99" d="M127.5 135v15h15l7.5-7.5v-15h-15z" stroke-width="2"/><path fill="#ccfaff" stroke="#0c7f99" d="M127.5 135h15v15M142.5 135l7.5-7.5" stroke-width="2"/><path fill="#ccfaff" stroke="#0c7f99" d="M127.5 120v15h15l7.5-7.5v-15h-15z" stroke-width="2"/><path fill="#ccfaff" stroke="#0c7f99" d="M127.5 120h15v15M142.5 120l7.5-7.5" stroke-width="2"/><path fill="#ccfaff" stroke="#0c7f99" d="M127.5 105v15h15l7.5-7.5v-15h-15z" stroke-width="2"/><path fill="#ccfaff" stroke="#0c7f99" d="M127.5 105h15v15M142.5 105l7.5-7.5" stroke-width="2"/><path fill="#ccfaff" stroke="#0c7f99" d="M127.5 90v15h15l7.5-7.5v-15h-15z" stroke-width="2"/><path fill="#ccfaff" stroke="#0c7f99" d="M127.5 90h15v15M142.5 90l7.5-7.5" stroke-width="2"/><path fill="#ccfaff" stroke="#0c7f99" d="M127.5 75v15h15l7.5-7.5v-15h-15z" stroke-width="2"/><path fill="#ccfaff" stroke="#0c7f99" d="M127.5 75h15v15M142.5 75l7.5-7.5" stroke-width="2"/><path fill="#ccfaff" stroke="#0c7f99" d="M127.5 60v15h15l7.5-7.5v-15h-15z" stroke-width="2"/><path fill="#ccfaff" stroke="#0c7f99" d="M127.5 60h15v15M142.5 60l7.5-7.5" stroke-width="2"/><path fill="#ccfaff" stroke="#0c7f99" d="M127.5 45v15h15l7.5-7.5v-15h-15z" stroke-width="2"/><path fill="#ccfaff" stroke="#0c7f99" d="M127.5 45h15v15M142.5 45l7.5-7.5" stroke-width="2"/><path fill="#ccfaff" stroke="#0c7f99" d="M127.5 30v15h15l7.5-7.5v-15h-15z" stroke-width="2"/><path fill="#ccfaff" stroke="#0c7f99" d="M127.5 30h15v15M142.5 30l7.5-7.5" stroke-width="2"/><path fill="#ccfaff" stroke="#0c7f99" d="M127.5 15v15h15l7.5-7.5v-15h-15z" stroke-width="2"/><path fill="#ccfaff" stroke="#0c7f99" d="M127.5 15h15v15M142.5 15l7.5-7.5M157.5 150v15h15l7.5-7.5v-15h-15z" stroke-width="2"/><path fill="#ccfaff" stroke="#0c7f99" d="M157.5 150h15v15M172.5 150l7.5-7.5" stroke-width="2"/><path fill="#ccfaff" stroke="#0c7f99" d="M157.5 135v15h15l7.5-7.5v-15h-15z" stroke-width="2"/><path fill="#ccfaff" stroke="#0c7f99" d="M157.5 135h15v15M172.5 135l7.5-7.5" stroke-width="2"/><path fill="#ccfaff" stroke="#0c7f99" d="M157.5 120v15h15l7.5-7.5v-15h-15z" stroke-width="2"/><path fill="#ccfaff" stroke="#0c7f99" d="M157.5 120h15v15M172.5 120l7.5-7.5" stroke-width="2"/><path fill="#ccfaff" stroke="#0c7f99" d="M157.5 105v15h15l7.5-7.5v-15h-15z" stroke-width="2"/><path fill="#ccfaff" stroke="#0c7f99" d="M157.5 105h15v15M172.5 105l7.5-7.5" stroke-width="2"/><path fill="#ccfaff" stroke="#0c7f99" d="M157.5 90v15h15l7.5-7.5v-15h-15z" stroke-width="2"/><path fill="#ccfaff" stroke="#0c7f99" d="M157.5 90h15v15M172.5 90l7.5-7.5" stroke-width="2"/><path fill="#ccfaff" stroke="#0c7f99" d="M157.5 75v15h15l7.5-7.5v-15h-15z" stroke-width="2"/><path fill="#ccfaff" stroke="#0c7f99" d="M157.5 75h15v15M172.5 75l7.5-7.5" stroke-width="2"/><path fill="#ccfaff" stroke="#0c7f99" d="M157.5 60v15h15l7.5-7.5v-15h-15z" stroke-width="2"/><path fill="#ccfaff" stroke="#0c7f99" d="M157.5 60h15v15M172.5 60l7.5-7.5" stroke-width="2"/><path fill="#ccfaff" stroke="#0c7f99" d="M157.5 45v15h15l7.5-7.5v-15h-15z" stroke-width="2"/><path fill="#ccfaff" stroke="#0c7f99" d="M157.5 45h15v15M172.5 45l7.5-7.5" stroke-width="2"/><path fill="#ccfaff" stroke="#0c7f99" d="M157.5 30v15h15l7.5-7.5v-15h-15z" stroke-width="2"/><path fill="#ccfaff" stroke="#0c7f99" d="M157.5 30h15v15M172.5 30l7.5-7.5" stroke-width="2"/><path fill="#ccfaff" stroke="#0c7f99" d="M157.5 15v15h15l7.5-7.5v-15h-15z" stroke-width="2"/><path fill="#ccfaff" stroke="#0c7f99" d="M157.5 15h15v15M172.5 15l7.5-7.5M187.5 150v15h15l7.5-7.5v-15h-15z" stroke-width="2"/><path fill="#ccfaff" stroke="#0c7f99" d="M187.5 150h15v15M202.5 150l7.5-7.5" stroke-width="2"/><path fill="#ccfaff" stroke="#0c7f99" d="M187.5 135v15h15l7.5-7.5v-15h-15z" stroke-width="2"/><path fill="#ccfaff" stroke="#0c7f99" d="M187.5 135h15v15M202.5 135l7.5-7.5" stroke-width="2"/><path fill="#ccfaff" stroke="#0c7f99" d="M187.5 120v15h15l7.5-7.5v-15h-15z" stroke-width="2"/><path fill="#ccfaff" stroke="#0c7f99" d="M187.5 120h15v15M202.5 120l7.5-7.5" stroke-width="2"/><path fill="#ccfaff" stroke="#0c7f99" d="M187.5 105v15h15l7.5-7.5v-15h-15z" stroke-width="2"/><path fill="#ccfaff" stroke="#0c7f99" d="M187.5 105h15v15M202.5 105l7.5-7.5" stroke-width="2"/><path fill="#ccfaff" stroke="#0c7f99" d="M187.5 90v15h15l7.5-7.5v-15h-15z" stroke-width="2"/><path fill="#ccfaff" stroke="#0c7f99" d="M187.5 90h15v15M202.5 90l7.5-7.5" stroke-width="2"/><path fill="#ccfaff" stroke="#0c7f99" d="M187.5 75v15h15l7.5-7.5v-15h-15z" stroke-width="2"/><path fill="#ccfaff" stroke="#0c7f99" d="M187.5 75h15v15M202.5 75l7.5-7.5" stroke-width="2"/><path fill="#ccfaff" stroke="#0c7f99" d="M187.5 60v15h15l7.5-7.5v-15h-15z" stroke-width="2"/><path fill="#ccfaff" stroke="#0c7f99" d="M187.5 60h15v15M202.5 60l7.5-7.5" stroke-width="2"/><path fill="#ccfaff" stroke="#0c7f99" d="M187.5 45v15h15l7.5-7.5v-15h-15z" stroke-width="2"/><path fill="#ccfaff" stroke="#0c7f99" d="M187.5 45h15v15M202.5 45l7.5-7.5" stroke-width="2"/><path fill="#ccfaff" stroke="#0c7f99" d="M187.5 30v15h15l7.5-7.5v-15h-15z" stroke-width="2"/><path fill="#ccfaff" stroke="#0c7f99" d="M187.5 30h15v15M202.5 30l7.5-7.5" stroke-width="2"/><path fill="#ccfaff" stroke="#0c7f99" d="M187.5 15v15h15l7.5-7.5v-15h-15z" stroke-width="2"/><path fill="#ccfaff" stroke="#0c7f99" d="M187.5 15h15v15M202.5 15l7.5-7.5M217.5 150v15h15l7.5-7.5v-15h-15z" stroke-width="2"/><path fill="#ccfaff" stroke="#0c7f99" d="M217.5 150h15v15M232.5 150l7.5-7.5" stroke-width="2"/><path fill="#ccfaff" stroke="#0c7f99" d="M217.5 135v15h15l7.5-7.5v-15h-15z" stroke-width="2"/><path fill="#ccfaff" stroke="#0c7f99" d="M217.5 135h15v15M232.5 135l7.5-7.5" stroke-width="2"/><path fill="#ccfaff" stroke="#0c7f99" d="M217.5 120v15h15l7.5-7.5v-15h-15z" stroke-width="2"/><path fill="#ccfaff" stroke="#0c7f99" d="M217.5 120h15v15M232.5 120l7.5-7.5" stroke-width="2"/><path fill="#ccfaff" stroke="#0c7f99" d="M217.5 105v15h15l7.5-7.5v-15h-15z" stroke-width="2"/><path fill="#ccfaff" stroke="#0c7f99" d="M217.5 105h15v15M232.5 105l7.5-7.5" stroke-width="2"/><path fill="#ccfaff" stroke="#0c7f99" d="M217.5 90v15h15l7.5-7.5v-15h-15z" stroke-width="2"/><path fill="#ccfaff" stroke="#0c7f99" d="M217.5 90h15v15M232.5 90l7.5-7.5" stroke-width="2"/><path fill="#ccfaff" stroke="#0c7f99" d="M217.5 75v15h15l7.5-7.5v-15h-15z" stroke-width="2"/><path fill="#ccfaff" stroke="#0c7f99" d="M217.5 75h15v15M232.5 75l7.5-7.5" stroke-width="2"/><path fill="#ccfaff" stroke="#0c7f99" d="M217.5 60v15h15l7.5-7.5v-15h-15z" stroke-width="2"/><path fill="#ccfaff" stroke="#0c7f99" d="M217.5 60h15v15M232.5 60l7.5-7.5" stroke-width="2"/><path fill="#ccfaff" stroke="#0c7f99" d="M217.5 45v15h15l7.5-7.5v-15h-15z" stroke-width="2"/><path fill="#ccfaff" stroke="#0c7f99" d="M217.5 45h15v15M232.5 45l7.5-7.5" stroke-width="2"/><path fill="#ccfaff" stroke="#0c7f99" d="M217.5 30v15h15l7.5-7.5v-15h-15z" stroke-width="2"/><path fill="#ccfaff" stroke="#0c7f99" d="M217.5 30h15v15M232.5 30l7.5-7.5" stroke-width="2"/><path fill="#ccfaff" stroke="#0c7f99" d="M217.5 15v15h15l7.5-7.5v-15h-15z" stroke-width="2"/><path fill="#ccfaff" stroke="#0c7f99" d="M217.5 15h15v15M232.5 15l7.5-7.5" stroke-width="2"/><path fill="#ffbde0" stroke="#9e034e" d="M255 150v15h15l7.5-7.5v-15h-15z" stroke-width="2"/><path fill="#ffbde0" stroke="#9e034e" d="M255 150h15v15M270 150l7.5-7.5M255 120v15h15l7.5-7.5v-15h-15z" stroke-width="2"/><path fill="#ffbde0" stroke="#9e034e" d="M255 120h15v15M270 120l7.5-7.5M255 90v15h15l7.5-7.5v-15h-15z" stroke-width="2"/><path fill="#ffbde0" stroke="#9e034e" d="M255 90h15v15M270 90l7.5-7.5M255 60v15h15l7.5-7.5v-15h-15z" stroke-width="2"/><path fill="#ffbde0" stroke="#9e034e" d="M255 60h15v15M270 60l7.5-7.5M255 30v15h15l7.5-7.5v-15h-15z" stroke-width="2"/><path fill="#ffbde0" stroke="#9e034e" d="M255 30h15v15M270 30l7.5-7.5M285 150v15h15l7.5-7.5v-15h-15z" stroke-width="2"/><path fill="#ffbde0" stroke="#9e034e" d="M285 150h15v15M300 150l7.5-7.5M285 120v15h15l7.5-7.5v-15h-15z" stroke-width="2"/><path fill="#ffbde0" stroke="#9e034e" d="M285 120h15v15M300 120l7.5-7.5" stroke-width="2"/></svg>
