<svg xmlns="http://www.w3.org/2000/svg" width="320" height="175.868" viewBox="0 0 320 175.8677685950413"><path fill="#ccfaff" stroke="#0c7f99" d="M14.546 148.099v13.223h13.223l6.611-6.611v-13.223H21.157z" stroke-width="2"/><path fill="#ccfaff" stroke="#0c7f99" d="M14.546 148.099h13.223v13.223M27.769 148.099l6.611-6.611" stroke-width="2"/><path fill="#ccfaff" stroke="#0c7f99" d="M14.546 134.876v13.223h13.223l6.611-6.611v-13.224H21.157z" stroke-width="2"/><path fill="#ccfaff" stroke="#0c7f99" d="M14.546 134.876h13.223v13.223M27.769 134.876l6.611-6.612" stroke-width="2"/><path fill="#ccfaff" stroke="#0c7f99" d="M14.546 121.653v13.223h13.223l6.611-6.612v-13.223H21.157z" stroke-width="2"/><path fill="#ccfaff" stroke="#0c7f99" d="M14.546 121.653h13.223v13.223M27.769 121.653l6.611-6.612" stroke-width="2"/><path fill="#ccfaff" stroke="#0c7f99" d="M14.546 108.43v13.223h13.223l6.611-6.612v-13.223H21.157z" stroke-width="2"/><path fill="#ccfaff" stroke="#0c7f99" d="M14.546 108.43h13.223v13.223M27.769 108.43l6.611-6.612M14.546 95.207v13.223h13.223l6.611-6.612V88.595H21.157z" stroke-width="2"/><path fill="#ccfaff" stroke="#0c7f99" d="M14.546 95.207h13.223v13.223M27.769 95.207l6.611-6.612" stroke-width="2"/><path fill="#ccfaff" stroke="#0c7f99" d="M14.546 81.984v13.223h13.223l6.611-6.612V75.372H21.157z" stroke-width="2"/><path fill="#ccfaff" stroke="#0c7f99" d="M14.546 81.984h13.223v13.223M27.769 81.984l6.611-6.612" stroke-width="2"/><path fill="#ccfaff" stroke="#0c7f99" d="M14.546 68.76v13.224h13.223l6.611-6.612V62.149H21.157z" stroke-width="2"/><path fill="#ccfaff" stroke="#0c7f99" d="M14.546 68.76h13.223v13.224M27.769 68.76l6.611-6.611" stroke-width="2"/><path fill="#ccfaff" stroke="#0c7f99" d="M14.546 55.537V68.76h13.223l6.611-6.611V48.926H21.157z" stroke-width="2"/><path fill="#ccfaff" stroke="#0c7f99" d="M14.546 55.537h13.223V68.76M27.769 55.537l6.611-6.611" stroke-width="2"/><path fill="#ccfaff" stroke="#0c7f99" d="M14.546 42.314v13.223h13.223l6.611-6.611V35.702H21.157z" stroke-width="2"/><path fill="#ccfaff" stroke="#0c7f99" d="M14.546 42.314h13.223v13.223M27.769 42.314l6.611-6.611" stroke-width="2"/><path fill="#ccfaff" stroke="#0c7f99" d="M14.546 29.09v13.224h13.223l6.611-6.611V22.479H21.157z" stroke-width="2"/><path fill="#ccfaff" stroke="#0c7f99" d="M14.546 29.09h13.223v13.224M27.769 29.09l6.611-6.61M40.992 148.099v13.223h13.223l6.611-6.611v-13.223H47.603z" stroke-width="2"/><path fill="#ccfaff" stroke="#0c7f99" d="M40.992 148.099h13.223v13.223M54.215 148.099l6.611-6.611" stroke-width="2"/><path fill="#ccfaff" stroke="#0c7f99" d="M40.992 134.876v13.223h13.223l6.611-6.611v-13.224H47.603z" stroke-width="2"/><path fill="#ccfaff" stroke="#0c7f99" d="M40.992 134.876h13.223v13.223M54.215 134.876l6.611-6.612" stroke-width="2"/><path fill="#ccfaff" stroke="#0c7f99" d="M40.992 121.653v13.223h13.223l6.611-6.612v-13.223H47.603z" stroke-width="2"/><path fill="#ccfaff" stroke="#0c7f99" d="M40.992 121.653h13.223v13.223M54.215 121.653l6.611-6.612" stroke-width="2"/><path fill="#ccfaff" stroke="#0c7f99" d="M40.992 108.43v13.223h13.223l6.611-6.612v-13.223H47.603z" stroke-width="2"/><path fill="#ccfaff" stroke="#0c7f99" d="M40.992 108.43h13.223v13.223M54.215 108.43l6.611-6.612M40.992 95.207v13.223h13.223l6.611-6.612V88.595H47.603z" stroke-width="2"/><path fill="#ccfaff" stroke="#0c7f99" d="M40.992 95.207h13.223v13.223M54.215 95.207l6.611-6.612" stroke-width="2"/><path fill="#ccfaff" stroke="#0c7f99" d="M40.992 81.984v13.223h13.223l6.611-6.612V75.372H47.603z" stroke-width="2"/><path fill="#ccfaff" stroke="#0c7f99" d="M40.992 81.984h13.223v13.223M54.215 81.984l6.611-6.612" stroke-width="2"/><path fill="#ccfaff" stroke="#0c7f99" d="M40.992 68.76v13.224h13.223l6.611-6.612V62.149H47.603z" stroke-width="2"/><path fill="#ccfaff" stroke="#0c7f99" d="M40.992 68.76h13.223v13.224M54.215 68.76l6.611-6.611" stroke-width="2"/><path fill="#ccfaff" stroke="#0c7f99" d="M40.992 55.537V68.76h13.223l6.611-6.611V48.926H47.603z" stroke-width="2"/><path fill="#ccfaff" stroke="#0c7f99" d="M40.992 55.537h13.223V68.76M54.215 55.537l6.611-6.611" stroke-width="2"/><path fill="#ccfaff" stroke="#0c7f99" d="M40.992 42.314v13.223h13.223l6.611-6.611V35.702H47.603z" stroke-width="2"/><path fill="#ccfaff" stroke="#0c7f99" d="M40.992 42.314h13.223v13.223M54.215 42.314l6.611-6.611" stroke-width="2"/><path fill="#ccfaff" stroke="#0c7f99" d="M40.992 29.09v13.224h13.223l6.611-6.611V22.479H47.603z" stroke-width="2"/><path fill="#ccfaff" stroke="#0c7f99" d="M40.992 29.09h13.223v13.224M54.215 29.09l6.611-6.61M67.438 148.099v13.223h13.223l6.612-6.611v-13.223H74.05z" stroke-width="2"/><path fill="#ccfaff" stroke="#0c7f99" d="M67.438 148.099h13.223v13.223M80.661 148.099l6.612-6.611" stroke-width="2"/><path fill="#ccfaff" stroke="#0c7f99" d="M67.438 134.876v13.223h13.223l6.612-6.611v-13.224H74.05z" stroke-width="2"/><path fill="#ccfaff" stroke="#0c7f99" d="M67.438 134.876h13.223v13.223M80.661 134.876l6.612-6.612" stroke-width="2"/><path fill="#ccfaff" stroke="#0c7f99" d="M67.438 121.653v13.223h13.223l6.612-6.612v-13.223H74.05z" stroke-width="2"/><path fill="#ccfaff" stroke="#0c7f99" d="M67.438 121.653h13.223v13.223M80.661 121.653l6.612-6.612" stroke-width="2"/><path fill="#ccfaff" stroke="#0c7f99" d="M67.438 108.43v13.223h13.223l6.612-6.612v-13.223H74.05z" stroke-width="2"/><path fill="#ccfaff" stroke="#0c7f99" d="M67.438 108.43h13.223v13.223M80.661 108.43l6.612-6.612M67.438 95.207v13.223h13.223l6.612-6.612V88.595H74.05z" stroke-width="2"/><path fill="#ccfaff" stroke="#0c7f99" d="M67.438 95.207h13.223v13.223M80.661 95.207l6.612-6.612" stroke-width="2"/><path fill="#ccfaff" stroke="#0c7f99" d="M67.438 81.984v13.223h13.223l6.612-6.612V75.372H74.05z" stroke-width="2"/><path fill="#ccfaff" stroke="#0c7f99" d="M67.438 81.984h13.223v13.223M80.661 81.984l6.612-6.612" stroke-width="2"/><path fill="#ccfaff" stroke="#0c7f99" d="M67.438 68.76v13.224h13.223l6.612-6.612V62.149H74.05z" stroke-width="2"/><path fill="#ccfaff" stroke="#0c7f99" d="M67.438 68.76h13.223v13.224M80.661 68.76l6.612-6.611" stroke-width="2"/><path fill="#ccfaff" stroke="#0c7f99" d="M67.438 55.537V68.76h13.223l6.612-6.611V48.926H74.05z" stroke-width="2"/><path fill="#ccfaff" stroke="#0c7f99" d="M67.438 55.537h13.223V68.76M80.661 55.537l6.612-6.611" stroke-width="2"/><path fill="#ccfaff" stroke="#0c7f99" d="M67.438 42.314v13.223h13.223l6.612-6.611V35.702H74.05z" stroke-width="2"/><path fill="#ccfaff" stroke="#0c7f99" d="M67.438 42.314h13.223v13.223M80.661 42.314l6.612-6.611" stroke-width="2"/><path fill="#ccfaff" stroke="#0c7f99" d="M67.438 29.09v13.224h13.223l6.612-6.611V22.479H74.05z" stroke-width="2"/><path fill="#ccfaff" stroke="#0c7f99" d="M67.438 29.09h13.223v13.224M80.661 29.09l6.612-6.61M93.884 148.099v13.223h13.223l6.612-6.611v-13.223h-13.223z" stroke-width="2"/><path fill="#ccfaff" stroke="#0c7f99" d="M93.884 148.099h13.223v13.223M107.107 148.099l6.612-6.611" stroke-width="2"/><path fill="#ccfaff" stroke="#0c7f99" d="M93.884 134.876v13.223h13.223l6.612-6.611v-13.224h-13.223z" stroke-width="2"/><path fill="#ccfaff" stroke="#0c7f99" d="M93.884 134.876h13.223v13.223M107.107 134.876l6.612-6.612" stroke-width="2"/><path fill="#ccfaff" stroke="#0c7f99" d="M93.884 121.653v13.223h13.223l6.612-6.612v-13.223h-13.223z" stroke-width="2"/><path fill="#ccfaff" stroke="#0c7f99" d="M93.884 121.653h13.223v13.223M107.107 121.653l6.612-6.612" stroke-width="2"/><path fill="#ccfaff" stroke="#0c7f99" d="M93.884 108.43v13.223h13.223l6.612-6.612v-13.223h-13.223z" stroke-width="2"/><path fill="#ccfaff" stroke="#0c7f99" d="M93.884 108.43h13.223v13.223M107.107 108.43l6.612-6.612M93.884 95.207v13.223h13.223l6.612-6.612V88.595h-13.223z" stroke-width="2"/><path fill="#ccfaff" stroke="#0c7f99" d="M93.884 95.207h13.223v13.223M107.107 95.207l6.612-6.612" stroke-width="2"/><path fill="#ccfaff" stroke="#0c7f99" d="M93.884 81.984v13.223h13.223l6.612-6.612V75.372h-13.223z" stroke-width="2"/><path fill="#ccfaff" stroke="#0c7f99" d="M93.884 81.984h13.223v13.223M107.107 81.984l6.612-6.612" stroke-width="2"/><path fill="#ccfaff" stroke="#0c7f99" d="M93.884 68.76v13.224h13.223l6.612-6.612V62.149h-13.223z" stroke-width="2"/><path fill="#ccfaff" stroke="#0c7f99" d="M93.884 68.76h13.223v13.224M107.107 68.76l6.612-6.611" stroke-width="2"/><path fill="#ccfaff" stroke="#0c7f99" d="M93.884 55.537V68.76h13.223l6.612-6.611V48.926h-13.223z" stroke-width="2"/><path fill="#ccfaff" stroke="#0c7f99" d="M93.884 55.537h13.223V68.76M107.107 55.537l6.612-6.611" stroke-width="2"/><path fill="#ccfaff" stroke="#0c7f99" d="M93.884 42.314v13.223h13.223l6.612-6.611V35.702h-13.223z" stroke-width="2"/><path fill="#ccfaff" stroke="#0c7f99" d="M93.884 42.314h13.223v13.223M107.107 42.314l6.612-6.611" stroke-width="2"/><path fill="#ccfaff" stroke="#0c7f99" d="M93.884 29.09v13.224h13.223l6.612-6.611V22.479h-13.223z" stroke-width="2"/><path fill="#ccfaff" stroke="#0c7f99" d="M93.884 29.09h13.223v13.224M107.107 29.09l6.612-6.61M120.331 148.099v13.223h13.223l6.611-6.611v-13.223h-13.223z" stroke-width="2"/><path fill="#ccfaff" stroke="#0c7f99" d="M120.331 148.099h13.223v13.223M133.554 148.099l6.611-6.611" stroke-width="2"/><path fill="#ccfaff" stroke="#0c7f99" d="M120.331 134.876v13.223h13.223l6.611-6.611v-13.224h-13.223z" stroke-width="2"/><path fill="#ccfaff" stroke="#0c7f99" d="M120.331 134.876h13.223v13.223M133.554 134.876l6.611-6.612" stroke-width="2"/><path fill="#ccfaff" stroke="#0c7f99" d="M120.331 121.653v13.223h13.223l6.611-6.612v-13.223h-13.223z" stroke-width="2"/><path fill="#ccfaff" stroke="#0c7f99" d="M120.331 121.653h13.223v13.223M133.554 121.653l6.611-6.612" stroke-width="2"/><path fill="#ccfaff" stroke="#0c7f99" d="M120.331 108.43v13.223h13.223l6.611-6.612v-13.223h-13.223z" stroke-width="2"/><path fill="#ccfaff" stroke="#0c7f99" d="M120.331 108.43h13.223v13.223M133.554 108.43l6.611-6.612M120.331 95.207v13.223h13.223l6.611-6.612V88.595h-13.223z" stroke-width="2"/><path fill="#ccfaff" stroke="#0c7f99" d="M120.331 95.207h13.223v13.223M133.554 95.207l6.611-6.612" stroke-width="2"/><path fill="#ccfaff" stroke="#0c7f99" d="M120.331 81.984v13.223h13.223l6.611-6.612V75.372h-13.223z" stroke-width="2"/><path fill="#ccfaff" stroke="#0c7f99" d="M120.331 81.984h13.223v13.223M133.554 81.984l6.611-6.612" stroke-width="2"/><path fill="#ccfaff" stroke="#0c7f99" d="M120.331 68.76v13.224h13.223l6.611-6.612V62.149h-13.223z" stroke-width="2"/><path fill="#ccfaff" stroke="#0c7f99" d="M120.331 68.76h13.223v13.224M133.554 68.76l6.611-6.611" stroke-width="2"/><path fill="#ccfaff" stroke="#0c7f99" d="M120.331 55.537V68.76h13.223l6.611-6.611V48.926h-13.223z" stroke-width="2"/><path fill="#ccfaff" stroke="#0c7f99" d="M120.331 55.537h13.223V68.76M133.554 55.537l6.611-6.611" stroke-width="2"/><path fill="#ccfaff" stroke="#0c7f99" d="M120.331 42.314v13.223h13.223l6.611-6.611V35.702h-13.223z" stroke-width="2"/><path fill="#ccfaff" stroke="#0c7f99" d="M120.331 42.314h13.223v13.223M133.554 42.314l6.611-6.611" stroke-width="2"/><path fill="#ccfaff" stroke="#0c7f99" d="M120.331 29.09v13.224h13.223l6.611-6.611V22.479h-13.223z" stroke-width="2"/><path fill="#ccfaff" stroke="#0c7f99" d="M120.331 29.09h13.223v13.224M133.554 29.09l6.611-6.61M146.777 148.099v13.223H160l6.612-6.611v-13.223h-13.224z" stroke-width="2"/><path fill="#ccfaff" stroke="#0c7f99" d="M146.777 148.099H160v13.223M160 148.099l6.612-6.611" stroke-width="2"/><path fill="#ccfaff" stroke="#0c7f99" d="M146.777 134.876v13.223H160l6.612-6.611v-13.224h-13.224z" stroke-width="2"/><path fill="#ccfaff" stroke="#0c7f99" d="M146.777 134.876H160v13.223M160 134.876l6.612-6.612" stroke-width="2"/><path fill="#ccfaff" stroke="#0c7f99" d="M146.777 121.653v13.223H160l6.612-6.612v-13.223h-13.224z" stroke-width="2"/><path fill="#ccfaff" stroke="#0c7f99" d="M146.777 121.653H160v13.223M160 121.653l6.612-6.612" stroke-width="2"/><path fill="#ccfaff" stroke="#0c7f99" d="M146.777 108.43v13.223H160l6.612-6.612v-13.223h-13.224z" stroke-width="2"/><path fill="#ccfaff" stroke="#0c7f99" d="M146.777 108.43H160v13.223M160 108.43l6.612-6.612M146.777 95.207v13.223H160l6.612-6.612V88.595h-13.224z" stroke-width="2"/><path fill="#ccfaff" stroke="#0c7f99" d="M146.777 95.207H160v13.223M160 95.207l6.612-6.612" stroke-width="2"/><path fill="#ccfaff" stroke="#0c7f99" d="M146.777 81.984v13.223H160l6.612-6.612V75.372h-13.224z" stroke-width="2"/><path fill="#ccfaff" stroke="#0c7f99" d="M146.777 81.984H160v13.223M160 81.984l6.612-6.612" stroke-width="2"/><path fill="#ccfaff" stroke="#0c7f99" d="M146.777 68.76v13.224H160l6.612-6.612V62.149h-13.224z" stroke-width="2"/><path fill="#ccfaff" stroke="#0c7f99" d="M146.777 68.76H160v13.224M160 68.76l6.612-6.611" stroke-width="2"/><path fill="#ccfaff" stroke="#0c7f99" d="M146.777 55.537V68.76H160l6.612-6.611V48.926h-13.224z" stroke-width="2"/><path fill="#ccfaff" stroke="#0c7f99" d="M146.777 55.537H160V68.76M160 55.537l6.612-6.611" stroke-width="2"/><path fill="#ccfaff" stroke="#0c7f99" d="M146.777 42.314v13.223H160l6.612-6.611V35.702h-13.224z" stroke-width="2"/><path fill="#ccfaff" stroke="#0c7f99" d="M146.777 42.314H160v13.223M160 42.314l6.612-6.611" stroke-width="2"/><path fill="#ccfaff" stroke="#0c7f99" d="M146.777 29.09v13.224H160l6.612-6.611V22.479h-13.224z" stroke-width="2"/><path fill="#ccfaff" stroke="#0c7f99" d="M146.777 29.09H160v13.224M160 29.09l6.612-6.61M173.223 148.099v13.223h13.223l6.612-6.611v-13.223h-13.223z" stroke-width="2"/><path fill="#ccfaff" stroke="#0c7f99" d="M173.223 148.099h13.223v13.223M186.446 148.099l6.612-6.611" stroke-width="2"/><path fill="#ccfaff" stroke="#0c7f99" d="M173.223 134.876v13.223h13.223l6.612-6.611v-13.224h-13.223z" stroke-width="2"/><path fill="#ccfaff" stroke="#0c7f99" d="M173.223 134.876h13.223v13.223M186.446 134.876l6.612-6.612" stroke-width="2"/><path fill="#ccfaff" stroke="#0c7f99" d="M173.223 121.653v13.223h13.223l6.612-6.612v-13.223h-13.223z" stroke-width="2"/><path fill="#ccfaff" stroke="#0c7f99" d="M173.223 121.653h13.223v13.223M186.446 121.653l6.612-6.612" stroke-width="2"/><path fill="#ccfaff" stroke="#0c7f99" d="M173.223 108.43v13.223h13.223l6.612-6.612v-13.223h-13.223z" stroke-width="2"/><path fill="#ccfaff" stroke="#0c7f99" d="M173.223 108.43h13.223v13.223M186.446 108.43l6.612-6.612M173.223 95.207v13.223h13.223l6.612-6.612V88.595h-13.223z" stroke-width="2"/><path fill="#ccfaff" stroke="#0c7f99" d="M173.223 95.207h13.223v13.223M186.446 95.207l6.612-6.612" stroke-width="2"/><path fill="#ccfaff" stroke="#0c7f99" d="M173.223 81.984v13.223h13.223l6.612-6.612V75.372h-13.223z" stroke-width="2"/><path fill="#ccfaff" stroke="#0c7f99" d="M173.223 81.984h13.223v13.223M186.446 81.984l6.612-6.612" stroke-width="2"/><path fill="#ccfaff" stroke="#0c7f99" d="M173.223 68.76v13.224h13.223l6.612-6.612V62.149h-13.223z" stroke-width="2"/><path fill="#ccfaff" stroke="#0c7f99" d="M173.223 68.76h13.223v13.224M186.446 68.76l6.612-6.611" stroke-width="2"/><path fill="#ccfaff" stroke="#0c7f99" d="M173.223 55.537V68.76h13.223l6.612-6.611V48.926h-13.223z" stroke-width="2"/><path fill="#ccfaff" stroke="#0c7f99" d="M173.223 55.537h13.223V68.76M186.446 55.537l6.612-6.611" stroke-width="2"/><path fill="#ccfaff" stroke="#0c7f99" d="M173.223 42.314v13.223h13.223l6.612-6.611V35.702h-13.223z" stroke-width="2"/><path fill="#ccfaff" stroke="#0c7f99" d="M173.223 42.314h13.223v13.223M186.446 42.314l6.612-6.611" stroke-width="2"/><path fill="#ccfaff" stroke="#0c7f99" d="M173.223 29.09v13.224h13.223l6.612-6.611V22.479h-13.223z" stroke-width="2"/><path fill="#ccfaff" stroke="#0c7f99" d="M173.223 29.09h13.223v13.224M186.446 29.09l6.612-6.61M199.669 148.099v13.223h13.224l6.611-6.611v-13.223h-13.223z" stroke-width="2"/><path fill="#ccfaff" stroke="#0c7f99" d="M199.669 148.099h13.224v13.223M212.893 148.099l6.611-6.611" stroke-width="2"/><path fill="#ccfaff" stroke="#0c7f99" d="M199.669 134.876v13.223h13.224l6.611-6.611v-13.224h-13.223z" stroke-width="2"/><path fill="#ccfaff" stroke="#0c7f99" d="M199.669 134.876h13.224v13.223M212.893 134.876l6.611-6.612" stroke-width="2"/><path fill="#ccfaff" stroke="#0c7f99" d="M199.669 121.653v13.223h13.224l6.611-6.612v-13.223h-13.223z" stroke-width="2"/><path fill="#ccfaff" stroke="#0c7f99" d="M199.669 121.653h13.224v13.223M212.893 121.653l6.611-6.612" stroke-width="2"/><path fill="#ccfaff" stroke="#0c7f99" d="M199.669 108.43v13.223h13.224l6.611-6.612v-13.223h-13.223z" stroke-width="2"/><path fill="#ccfaff" stroke="#0c7f99" d="M199.669 108.43h13.224v13.223M212.893 108.43l6.611-6.612M199.669 95.207v13.223h13.224l6.611-6.612V88.595h-13.223z" stroke-width="2"/><path fill="#ccfaff" stroke="#0c7f99" d="M199.669 95.207h13.224v13.223M212.893 95.207l6.611-6.612" stroke-width="2"/><path fill="#ccfaff" stroke="#0c7f99" d="M199.669 81.984v13.223h13.224l6.611-6.612V75.372h-13.223z" stroke-width="2"/><path fill="#ccfaff" stroke="#0c7f99" d="M199.669 81.984h13.224v13.223M212.893 81.984l6.611-6.612" stroke-width="2"/><path fill="#ccfaff" stroke="#0c7f99" d="M199.669 68.76v13.224h13.224l6.611-6.612V62.149h-13.223z" stroke-width="2"/><path fill="#ccfaff" stroke="#0c7f99" d="M199.669 68.76h13.224v13.224M212.893 68.76l6.611-6.611" stroke-width="2"/><path fill="#ccfaff" stroke="#0c7f99" d="M199.669 55.537V68.76h13.224l6.611-6.611V48.926h-13.223z" stroke-width="2"/><path fill="#ccfaff" stroke="#0c7f99" d="M199.669 55.537h13.224V68.76M212.893 55.537l6.611-6.611" stroke-width="2"/><path fill="#ccfaff" stroke="#0c7f99" d="M199.669 42.314v13.223h13.224l6.611-6.611V35.702h-13.223z" stroke-width="2"/><path fill="#ccfaff" stroke="#0c7f99" d="M199.669 42.314h13.224v13.223M212.893 42.314l6.611-6.611" stroke-width="2"/><path fill="#ccfaff" stroke="#0c7f99" d="M199.669 29.09v13.224h13.224l6.611-6.611V22.479h-13.223z" stroke-width="2"/><path fill="#ccfaff" stroke="#0c7f99" d="M199.669 29.09h13.224v13.224M212.893 29.09l6.611-6.61" stroke-width="2"/><path fill="#ff92c6" stroke="#9e034e" d="M226.116 148.099v13.223h13.223l6.611-6.611v-13.223h-13.223z" stroke-width="2"/><path fill="#ff92c6" stroke="#9e034e" d="M226.116 148.099h13.223v13.223M239.339 148.099l6.611-6.611M226.116 121.653v13.223h13.223l6.611-6.612v-13.223h-13.223z" stroke-width="2"/><path fill="#ff92c6" stroke="#9e034e" d="M226.116 121.653h13.223v13.223M239.339 121.653l6.611-6.612M226.116 95.207v13.223h13.223l6.611-6.612V88.595h-13.223z" stroke-width="2"/><path fill="#ff92c6" stroke="#9e034e" d="M226.116 95.207h13.223v13.223M239.339 95.207l6.611-6.612M226.116 68.76v13.224h13.223l6.611-6.612V62.149h-13.223z" stroke-width="2"/><path fill="#ff92c6" stroke="#9e034e" d="M226.116 68.76h13.223v13.224M239.339 68.76l6.611-6.611M252.562 148.099v13.223h13.223l6.612-6.611v-13.223h-13.223z" stroke-width="2"/><path fill="#ff92c6" stroke="#9e034e" d="M252.562 148.099h13.223v13.223M265.785 148.099l6.612-6.611M252.562 121.653v13.223h13.223l6.612-6.612v-13.223h-13.223z" stroke-width="2"/><path fill="#ff92c6" stroke="#9e034e" d="M252.562 121.653h13.223v13.223M265.785 121.653l6.612-6.612M279.008 148.099v13.223h13.223l6.612-6.611v-13.223H285.62z" stroke-width="2"/><path fill="#ff92c6" stroke="#9e034e" d="M279.008 148.099h13.223v13.223M292.231 148.099l6.612-6.611M279.008 121.653v13.223h13.223l6.612-6.612v-13.223H285.62z" stroke-width="2"/><path fill="#ff92c6" stroke="#9e034e" d="M279.008 121.653h13.223v13.223M292.231 121.653l6.612-6.612M279.008 95.207v13.223h13.223l6.612-6.612V88.595H285.62z" stroke-width="2"/><path fill="#ff92c6" stroke="#9e034e" d="M279.008 95.207h13.223v13.223M292.231 95.207l6.612-6.612" stroke-width="2"/></svg>
