<svg xmlns="http://www.w3.org/2000/svg" version="1.1" width="400" height="133.33333333333334" viewBox="0 0 400 133.33333333333334"><defs/><path fill="#deb958" stroke="none" d="M 32.2554,100.135 C 25.3394,101.693 18.6814,102.104 12.6894,98.3166 C 10.7494,97.0886 9.37042,95.2846 9.53742,93.1446 C 9.61042,92.2066 10.4314,90.8846 13.1844,91.3996 C 19.3234,92.5496 23.9024,92.0906 28.8684,90.6846 C 34.1194,89.1966 38.1554,85.2556 39.6494,81.6576 C 40.9074,78.6276 42.8494,75.4256 45.9444,76.5776 C 47.6194,77.2016 48.0424,83.8546 47.1784,87.0416 C 45.4464,93.4246 39.1704,98.5746 32.2554,100.135 M 32.2554,100.135 L 32.2554,100.135 Z" transform=""/><path fill="#ccaa4f" stroke="none" d="M 46.5343,77.2924 C 47.1323,79.6414 47.2063,83.5664 46.6223,85.7194 C 44.9153,92.0114 38.9823,97.3774 32.1663,98.9134 C 25.3483,100.451 17.9663,100.721 12.0593,96.9874 C 11.2313,96.4634 10.0993,95.1214 9.58331,93.4924 C 9.66131,95.7924 11.1533,97.2214 12.4943,98.0694 C 18.4023,101.802 25.6633,101.556 32.4803,100.02 C 39.2963,98.4824 45.4823,93.4064 47.1883,87.1154 C 47.9343,84.3664 47.7083,79.0014 46.5343,77.2924 Z" transform=""/><path fill="#eec65e" stroke="none" d="M 23.0928,95.3327 C 35.6498,94.9037 44.7928,87.8147 44.5528,76.3417 C 42.2478,76.4417 40.7068,79.1097 39.6488,81.6577 C 38.1548,85.2547 34.1188,89.1967 28.8678,90.6847 C 23.9018,92.0907 19.3228,92.5497 13.1838,91.3997 C 10.4318,90.8847 9.61077,92.2067 9.53677,93.1447 C 9.53377,93.1937 11.1088,92.5217 11.1058,92.5707 C 15.3208,94.6217 18.3888,95.4947 23.0928,95.3327 Z" transform=""/><path fill="#ccaa4f" stroke="none" d="M 43.0896,77.0161 L 44.4156,77.4911 S 44.9226,76.6001 45.9446,76.5781 C 45.7626,74.6631 44.9596,71.9921 44.3196,70.7621 C 43.6256,69.4321 42.4166,70.7321 42.4166,70.7321 L 41.5096,72.0011 C 41.5086,72.0011 43.0876,73.1211 43.0896,77.0161 Z" transform=""/><path fill="#eec65e" stroke="none" d="M 43.0896,77.0161 S 43.8436,77.7201 44.4156,77.4911 C 45.0116,72.4701 42.4166,70.7321 42.4166,70.7321 L 41.5086,72.0011 S 43.0876,73.1211 43.0896,77.0161 Z" transform=""/><path fill="#eec65e" stroke="none" d="M 44.4154,77.4912 C 44.4444,77.2532 44.5544,77.5002 44.5704,77.2772 C 44.9104,72.4312 42.4164,70.7322 42.4164,70.7322 L 42.3234,70.8612 C 42.3234,70.8622 44.5814,72.1472 44.4154,77.4912 Z" transform=""/><path fill="#ccaa4f" stroke="none" d="M 10.8813,91.4644 S 11.9583,92.9784 11.2113,93.5144 C 10.4633,94.0514 9.5293,93.2664 9.5293,93.2664 S 9.6533,91.9254 10.8813,91.4644 Z" transform=""/><path fill="#deb958" stroke="none" d="M 79.8745,100.135 C 72.9585,101.693 66.3005,102.104 60.3085,98.3166 C 58.3685,97.0886 56.9895,95.2846 57.1565,93.1446 C 57.2295,92.2066 58.0505,90.8846 60.8035,91.3996 C 66.9425,92.5496 71.5215,92.0906 76.4875,90.6846 C 81.7385,89.1966 85.7745,85.2556 87.2685,81.6576 C 88.5265,78.6276 90.4685,75.4256 93.5635,76.5776 C 95.2385,77.2016 95.6615,83.8546 94.7975,87.0416 C 93.0655,93.4246 86.7895,98.5746 79.8745,100.135 M 79.8745,100.135 L 79.8745,100.135 Z" transform=""/><path fill="#ccaa4f" stroke="none" d="M 94.1534,77.2924 C 94.7514,79.6414 94.8254,83.5664 94.2414,85.7194 C 92.5344,92.0114 86.6014,97.3774 79.7854,98.9134 C 72.9674,100.451 65.5854,100.721 59.6784,96.9874 C 58.8504,96.4634 57.7184,95.1214 57.2024,93.4924 C 57.2804,95.7924 58.7724,97.2214 60.1134,98.0694 C 66.0214,101.802 73.2824,101.556 80.0994,100.02 C 86.9154,98.4824 93.1014,93.4064 94.8074,87.1154 C 95.5534,84.3664 95.3274,79.0014 94.1534,77.2924 Z" transform=""/><path fill="#eec65e" stroke="none" d="M 70.7118,95.3327 C 83.2688,94.9037 92.4118,87.8147 92.1718,76.3417 C 89.8668,76.4417 88.3258,79.1097 87.2678,81.6577 C 85.7738,85.2547 81.7378,89.1967 76.4868,90.6847 C 71.5208,92.0907 66.9418,92.5497 60.8028,91.3997 C 58.0508,90.8847 57.2298,92.2067 57.1558,93.1447 C 57.1528,93.1937 58.7278,92.5217 58.7248,92.5707 C 62.9398,94.6217 66.0078,95.4947 70.7118,95.3327 Z" transform=""/><path fill="#ccaa4f" stroke="none" d="M 90.7086,77.0161 L 92.0346,77.4911 S 92.5416,76.6001 93.5636,76.5781 C 93.3816,74.6631 92.5786,71.9921 91.9386,70.7621 C 91.2446,69.4321 90.0356,70.7321 90.0356,70.7321 L 89.1286,72.0011 C 89.1276,72.0011 90.7066,73.1211 90.7086,77.0161 Z" transform=""/><path fill="#eec65e" stroke="none" d="M 90.7086,77.0161 S 91.4626,77.7201 92.0346,77.4911 C 92.6306,72.4701 90.0356,70.7321 90.0356,70.7321 L 89.1276,72.0011 S 90.7066,73.1211 90.7086,77.0161 Z" transform=""/><path fill="#eec65e" stroke="none" d="M 92.0345,77.4912 C 92.0635,77.2532 92.1735,77.5002 92.1895,77.2772 C 92.5295,72.4312 90.0355,70.7322 90.0355,70.7322 L 89.9425,70.8612 C 89.9425,70.8622 92.2005,72.1472 92.0345,77.4912 Z" transform=""/><path fill="#ccaa4f" stroke="none" d="M 58.5003,91.4644 S 59.5773,92.9784 58.8303,93.5144 C 58.0823,94.0514 57.1483,93.2664 57.1483,93.2664 S 57.2723,91.9254 58.5003,91.4644 Z" transform=""/><path fill="#deb958" stroke="none" d="M 127.494,100.135 C 120.578,101.693 113.92,102.104 107.928,98.3166 C 105.988,97.0886 104.609,95.2846 104.776,93.1446 C 104.849,92.2066 105.67,90.8846 108.423,91.3996 C 114.562,92.5496 119.141,92.0906 124.107,90.6846 C 129.358,89.1966 133.394,85.2556 134.888,81.6576 C 136.146,78.6276 138.088,75.4256 141.183,76.5776 C 142.858,77.2016 143.281,83.8546 142.417,87.0416 C 140.685,93.4246 134.409,98.5746 127.494,100.135 M 127.494,100.135 L 127.494,100.135 Z" transform=""/><path fill="#ccaa4f" stroke="none" d="M 141.772,77.2924 C 142.37,79.6414 142.444,83.5664 141.86,85.7194 C 140.153,92.0114 134.22,97.3774 127.404,98.9134 C 120.586,100.451 113.204,100.721 107.297,96.9874 C 106.469,96.4634 105.337,95.1214 104.821,93.4924 C 104.899,95.7924 106.391,97.2214 107.732,98.0694 C 113.64,101.802 120.901,101.556 127.718,100.02 C 134.534,98.4824 140.72,93.4064 142.426,87.1154 C 143.172,84.3664 142.946,79.0014 141.772,77.2924 Z" transform=""/><path fill="#eec65e" stroke="none" d="M 118.331,95.3327 C 130.888,94.9037 140.031,87.8147 139.791,76.3417 C 137.486,76.4417 135.945,79.1097 134.887,81.6577 C 133.393,85.2547 129.357,89.1967 124.106,90.6847 C 119.14,92.0907 114.561,92.5497 108.422,91.3997 C 105.67,90.8847 104.849,92.2067 104.775,93.1447 C 104.772,93.1937 106.347,92.5217 106.344,92.5707 C 110.559,94.6217 113.627,95.4947 118.331,95.3327 Z" transform=""/><path fill="#ccaa4f" stroke="none" d="M 138.328,77.0161 L 139.654,77.4911 S 140.161,76.6001 141.183,76.5781 C 141.001,74.6631 140.198,71.9921 139.558,70.7621 C 138.864,69.4321 137.655,70.7321 137.655,70.7321 L 136.748,72.0011 C 136.747,72.0011 138.326,73.1211 138.328,77.0161 Z" transform=""/><path fill="#eec65e" stroke="none" d="M 138.328,77.0161 S 139.082,77.7201 139.654,77.4911 C 140.25,72.4701 137.655,70.7321 137.655,70.7321 L 136.747,72.0011 S 138.326,73.1211 138.328,77.0161 Z" transform=""/><path fill="#eec65e" stroke="none" d="M 139.654,77.4912 C 139.683,77.2532 139.793,77.5002 139.809,77.2772 C 140.149,72.4312 137.655,70.7322 137.655,70.7322 L 137.562,70.8612 C 137.562,70.8622 139.82,72.1472 139.654,77.4912 Z" transform=""/><path fill="#ccaa4f" stroke="none" d="M 106.119,91.4644 S 107.196,92.9784 106.449,93.5144 C 105.701,94.0514 104.767,93.2664 104.767,93.2664 S 104.891,91.9254 106.119,91.4644 Z" transform=""/><path fill="#deb958" stroke="none" d="M 175.113,100.135 C 168.197,101.693 161.539,102.104 155.547,98.3166 C 153.607,97.0886 152.228,95.2846 152.395,93.1446 C 152.468,92.2066 153.289,90.8846 156.042,91.3996 C 162.181,92.5496 166.76,92.0906 171.726,90.6846 C 176.977,89.1966 181.013,85.2556 182.507,81.6576 C 183.765,78.6276 185.707,75.4256 188.802,76.5776 C 190.477,77.2016 190.9,83.8546 190.036,87.0416 C 188.304,93.4246 182.028,98.5746 175.113,100.135 M 175.113,100.135 L 175.113,100.135 Z" transform=""/><path fill="#ccaa4f" stroke="none" d="M 189.391,77.2924 C 189.989,79.6414 190.063,83.5664 189.479,85.7194 C 187.772,92.0114 181.839,97.3774 175.023,98.9134 C 168.205,100.451 160.823,100.721 154.916,96.9874 C 154.088,96.4634 152.956,95.1214 152.44,93.4924 C 152.518,95.7924 154.01,97.2214 155.351,98.0694 C 161.259,101.802 168.52,101.556 175.337,100.02 C 182.153,98.4824 188.339,93.4064 190.045,87.1154 C 190.791,84.3664 190.565,79.0014 189.391,77.2924 Z" transform=""/><path fill="#eec65e" stroke="none" d="M 165.95,95.3327 C 178.507,94.9037 187.65,87.8147 187.41,76.3417 C 185.105,76.4417 183.564,79.1097 182.506,81.6577 C 181.012,85.2547 176.976,89.1967 171.725,90.6847 C 166.759,92.0907 162.18,92.5497 156.041,91.3997 C 153.289,90.8847 152.468,92.2067 152.394,93.1447 C 152.391,93.1937 153.966,92.5217 153.963,92.5707 C 158.178,94.6217 161.246,95.4947 165.95,95.3327 Z" transform=""/><path fill="#ccaa4f" stroke="none" d="M 185.947,77.0161 L 187.273,77.4911 S 187.78,76.6001 188.802,76.5781 C 188.62,74.6631 187.817,71.9921 187.177,70.7621 C 186.483,69.4321 185.274,70.7321 185.274,70.7321 L 184.367,72.0011 C 184.366,72.0011 185.945,73.1211 185.947,77.0161 Z" transform=""/><path fill="#eec65e" stroke="none" d="M 185.947,77.0161 S 186.701,77.7201 187.273,77.4911 C 187.869,72.4701 185.274,70.7321 185.274,70.7321 L 184.366,72.0011 S 185.945,73.1211 185.947,77.0161 Z" transform=""/><path fill="#eec65e" stroke="none" d="M 187.273,77.4912 C 187.302,77.2532 187.412,77.5002 187.428,77.2772 C 187.768,72.4312 185.274,70.7322 185.274,70.7322 L 185.181,70.8612 C 185.181,70.8622 187.439,72.1472 187.273,77.4912 Z" transform=""/><path fill="#ccaa4f" stroke="none" d="M 153.738,91.4644 S 154.815,92.9784 154.068,93.5144 C 153.32,94.0514 152.386,93.2664 152.386,93.2664 S 152.51,91.9254 153.738,91.4644 Z" transform=""/><path fill="#d14e3f" stroke="none" d="M 45.2895,18.9573 C 45.2895,18.9373 45.2875,18.9213 45.2855,18.9003 C 45.2835,18.8553 45.2815,18.8103 45.2795,18.7653 C 45.2785,18.7543 45.2775,18.7423 45.2765,18.7293 C 45.2625,18.5183 45.2395,18.3143 45.2175,18.1093 C 45.2035,17.9863 45.1935,17.8603 45.1765,17.7393 C 45.1475,17.5383 45.1085,17.3433 45.0695,17.1483 C 45.0535,17.0693 45.0425,16.9873 45.0245,16.9093 L 45.0175,16.9093 L 45.0165,16.9063 C 44.5135,14.6763 43.3485,12.9033 41.8025,11.6403 L 41.8055,11.6403 L 41.7835,11.6223 L 41.7805,11.6223 L 41.7785,11.6223 C 40.6545,10.7083 39.3285,10.0643 37.9125,9.70533 C 37.4885,9.61033 37.0565,9.54633 36.6205,9.50133 C 36.5355,9.48633 36.4485,9.48133 36.3625,9.47133 C 36.3445,9.47033 36.3265,9.46733 36.3085,9.46533 C 36.3145,9.46633 36.3195,9.46733 36.3245,9.46833 C 36.3165,9.46733 36.3085,9.46733 36.2995,9.46633 C 36.2955,9.46533 36.2915,9.46533 36.2885,9.46433 C 36.2805,9.46333 36.2725,9.46333 36.2635,9.46333 C 36.1565,9.45333 36.0505,9.43633 35.9415,9.43533 C 35.9075,9.43533 35.8745,9.44233 35.8395,9.44233 C 35.5765,9.43333 35.3115,9.43033 35.0465,9.43833 C 35.1155,9.44533 35.1835,9.44833 35.2525,9.45633 C 35.0805,9.46033 34.8905,9.46433 34.6825,9.46933 C 34.6515,9.46833 34.6195,9.46533 34.5885,9.46333 C 34.2015,9.49233 33.8145,9.54033 33.4295,9.60833 C 33.1775,9.65333 32.9265,9.70633 32.6765,9.76833 C 32.6775,9.76833 32.6795,9.76933 32.6815,9.77033 C 32.6795,9.76933 32.6775,9.76933 32.6755,9.76833 C 32.3955,9.83633 32.1175,9.91633 31.8425,10.0073 C 32.0375,10.0923 32.3155,10.1613 32.6115,10.1693 C 32.2975,10.1613 32.0265,10.0923 31.8385,10.0083 C 31.3535,10.1673 30.7845,10.4023 30.3155,10.6293 C 30.3175,10.6293 30.3215,10.6293 30.3235,10.6303 C 30.1155,10.7323 29.9095,10.8393 29.7065,10.9553 C 29.1505,11.2733 28.3155,11.2673 27.7655,10.9423 C 27.7105,10.9103 27.6555,10.8793 27.6005,10.8493 C 26.9355,10.4693 26.1615,10.1353 25.4505,9.89933 C 25.4505,9.89833 25.4515,9.89833 25.4515,9.89733 C 25.4405,9.89333 25.4285,9.89133 25.4175,9.88733 C 25.4055,9.88333 25.3925,9.87733 25.3805,9.87433 C 25.3805,9.87433 25.3795,9.87533 25.3785,9.87633 C 25.2055,9.82133 25.0315,9.77033 24.8575,9.72433 C 24.7555,9.76633 24.6235,9.80333 24.5645,9.81933 C 24.5625,9.81933 24.5615,9.81933 24.5595,9.82033 L 24.5455,9.82433 L 24.5435,9.82433 C 24.5485,9.82333 24.5575,9.82033 24.5645,9.81933 C 24.7115,9.77733 24.7975,9.74833 24.8535,9.72333 C 24.7115,9.68633 24.5685,9.65033 24.4255,9.61933 C 24.4185,9.61933 24.4115,9.61933 24.4055,9.61933 C 24.3855,9.61933 24.3655,9.62033 24.3455,9.62033 C 24.0705,9.59533 23.4545,9.55033 23.2515,9.55133 C 23.0655,9.55233 22.8955,9.55333 22.7415,9.55433 C 22.4585,9.55833 22.1775,9.58233 21.8975,9.61733 L 21.6875,9.62033 C 21.6515,9.62533 21.6165,9.63633 21.5805,9.64233 C 21.4415,9.64233 21.3125,9.64333 21.1975,9.64233 C 21.2035,9.63933 21.2155,9.63633 21.2295,9.63233 C 21.2265,9.63133 21.2225,9.63233 21.2185,9.63133 C 21.2305,9.62933 21.2485,9.62833 21.2605,9.62533 C 21.3645,9.60433 21.5835,9.58033 21.9025,9.56633 C 21.9275,9.56433 21.9525,9.56333 21.9795,9.56233 C 22.0665,9.55933 22.1575,9.55633 22.2565,9.55433 C 22.1495,9.55433 22.0555,9.55433 21.9755,9.55433 L 21.9365,9.55433 L 21.9355,9.55433 C 21.9105,9.55633 21.8815,9.55633 21.8535,9.55733 C 21.7205,9.56333 21.5805,9.57433 20.7195,9.64233 C 20.6305,9.64133 20.5585,9.64033 20.5045,9.63933 C 19.2355,9.80233 18.0135,10.1883 16.9055,10.7783 C 16.4115,10.9943 15.9435,11.3033 15.5065,11.6913 C 15.3785,11.7903 15.2495,11.8883 15.1265,11.9953 L 15.1255,11.9953 L 15.1155,12.0023 L 15.1165,12.0023 C 13.6135,13.3073 12.5015,15.1063 12.0595,17.3443 L 12.0565,17.3573 C 11.6265,19.5543 11.8415,22.1733 12.9645,25.1583 C 12.9795,25.1983 12.9955,25.2393 13.0115,25.2793 L 13.0095,25.2793 L 13.0115,25.2833 L 13.0125,25.2833 C 13.8805,27.5723 14.9305,29.8763 16.1865,31.8873 L 16.1945,31.8993 C 17.4495,33.9093 18.9105,35.6243 20.6015,36.7393 C 20.6495,36.7403 20.7115,36.7413 20.7865,36.7423 C 20.7115,36.7413 20.6495,36.7403 20.6005,36.7393 C 20.6005,36.7393 20.6115,36.7463 20.6115,36.7463 C 21.5845,37.3863 22.6325,37.8283 23.7605,38.0123 C 24.0145,38.0423 24.2625,38.0623 24.4965,38.0763 C 24.6485,38.0853 24.7945,38.0913 24.9305,38.0953 C 24.9385,38.0953 25.0115,38.0903 25.0625,38.0863 C 25.0705,38.0873 25.0785,38.0893 25.0865,38.0903 C 25.1815,38.0873 25.2745,38.0873 25.3715,38.0813 C 25.3675,38.0813 25.3645,38.0803 25.3615,38.0803 C 25.3655,38.0803 25.3685,38.0803 25.3725,38.0813 C 25.4685,38.0753 25.5675,38.0623 25.6645,38.0523 C 25.4785,38.0253 25.2925,37.9963 25.1045,37.9853 C 25.2955,37.9963 25.4845,38.0253 25.6745,38.0513 C 25.7895,38.0393 25.9045,38.0293 26.0205,38.0123 C 25.6815,37.9183 25.3555,37.7463 25.0405,37.5143 C 25.0425,37.5143 25.0445,37.5143 25.0465,37.5143 C 25.3605,37.7463 25.6855,37.9183 26.0235,38.0123 C 26.4905,37.9453 26.9685,37.8403 27.4595,37.6903 C 27.5235,37.6713 27.5925,37.6553 27.6625,37.6403 C 27.6575,37.6373 27.6535,37.6333 27.6495,37.6293 C 27.6535,37.6333 27.6585,37.6373 27.6635,37.6403 C 27.8625,37.5973 28.0855,37.5713 28.3145,37.5613 C 28.3195,37.5603 28.3225,37.5583 28.3265,37.5573 L 28.3285,37.5573 L 28.3355,37.5573 C 28.3425,37.5583 28.3485,37.5593 28.3545,37.5603 C 28.6235,37.5513 28.8975,37.5643 29.1515,37.6003 C 29.1575,37.5973 29.1675,37.5943 29.1745,37.5903 C 29.2765,37.6633 29.5425,37.6773 29.6315,37.7053 C 29.9575,37.8103 30.2755,37.8883 30.5905,37.9553 C 30.6685,37.9373 30.7485,37.9203 30.8295,37.9143 C 30.8295,37.9143 30.8515,37.9133 30.8565,37.9133 L 30.8555,37.9133 L 30.8315,37.9153 L 30.8295,37.9153 C 30.7495,37.9213 30.6715,37.9373 30.5935,37.9563 C 30.6835,37.9753 30.7735,37.9953 30.8625,38.0113 C 30.8675,38.0103 30.8695,38.0093 30.8745,38.0083 C 30.8695,38.0093 30.8685,38.0113 30.8645,38.0123 C 30.9095,38.0203 30.9555,38.0323 31.0005,38.0393 C 31.9345,38.0193 32.7705,37.4943 33.5155,36.6053 C 33.5135,36.6053 33.5125,36.6053 33.5115,36.6053 C 33.5675,36.5393 33.6205,36.4703 33.6755,36.4023 C 33.6245,36.4673 33.5755,36.5363 33.5245,36.5973 C 33.7425,36.5933 33.9555,36.5893 34.1625,36.5863 C 33.9555,36.5893 33.7425,36.5933 33.5185,36.6043 C 32.7705,37.4933 31.9345,38.0183 31.0005,38.0393 C 31.0065,38.0403 31.0115,38.0413 31.0175,38.0423 C 31.0945,38.0403 31.1715,38.0393 31.2455,38.0373 C 31.8235,38.0263 32.0075,38.0203 32.5575,37.9903 C 32.5595,37.9903 32.5655,37.9893 32.5715,37.9883 C 32.5675,37.9893 32.5635,37.9893 32.5595,37.9903 C 32.7165,37.9803 32.9265,37.9643 33.0835,37.9533 C 33.2535,37.9293 33.4225,37.8973 33.5915,37.8733 C 33.6475,37.8643 33.6815,37.8603 33.7035,37.8583 C 33.7125,37.8573 33.7215,37.8543 33.7295,37.8543 L 33.7385,37.8573 C 33.7075,37.8683 33.6755,37.8803 33.5085,37.9123 C 33.6405,37.8963 33.8165,37.8723 33.9485,37.8533 C 35.0315,37.6293 36.0335,37.1693 36.9585,36.5253 L 36.9605,36.5253 L 36.9835,36.5093 L 36.9815,36.5093 L 36.9805,36.5093 C 38.6365,35.3503 40.0495,33.6043 41.2495,31.5733 C 41.2445,31.5733 41.2365,31.5733 41.2305,31.5743 C 41.2385,31.5713 41.2475,31.5673 41.2555,31.5673 L 41.2675,31.5473 L 41.2725,31.5473 C 41.3475,31.4203 41.4195,31.2883 41.4935,31.1583 C 41.5625,31.0373 41.6335,30.9163 41.7005,30.7943 C 41.7755,30.6553 41.8495,30.5143 41.9225,30.3743 C 41.9845,30.2563 42.0465,30.1403 42.1065,30.0223 C 42.1395,29.9553 42.1495,29.9363 42.1745,29.8933 C 42.1985,29.8453 42.2235,29.7963 42.2475,29.7473 C 42.2905,29.6653 42.3285,29.5923 42.3635,29.5263 C 42.3755,29.5043 42.3845,29.4863 42.3955,29.4673 C 42.4125,29.4343 42.4295,29.4023 42.4455,29.3733 C 42.4545,29.3563 42.4625,29.3413 42.4705,29.3263 C 42.8015,28.6263 43.3425,27.3293 43.4965,26.9573 C 43.5165,26.9043 43.5385,26.8463 43.5625,26.7813 C 43.8175,26.1433 44.0555,25.4993 44.2805,24.8573 C 44.2945,24.8153 44.3085,24.7753 44.3235,24.7333 C 44.6035,23.9273 44.8185,23.1493 44.9745,22.4003 C 44.9885,22.3353 45.0005,22.2813 45.0135,22.2243 C 45.0155,22.2213 45.3265,20.6033 45.2895,18.9573 L 45.2895,18.9573 M 27.1095,10.7123 C 27.0615,10.6903 26.9605,10.6523 26.8345,10.6383 C 26.9485,10.6493 27.0455,10.6803 27.1095,10.7123 L 27.1095,10.7123 M 26.2535,10.8673 C 26.2405,10.8823 26.2265,10.8963 26.2145,10.9143 C 26.2165,10.9103 26.2415,10.8803 26.2535,10.8673 L 26.2535,10.8673 M 23.9985,9.62233 S 23.9995,9.62233 23.9995,9.62233 L 23.9985,9.62233 L 23.9985,9.62233 L 23.9985,9.62233 M 23.9985,9.62433 L 24.0065,9.62233 L 24.0255,9.62233 C 24.0525,9.61533 24.1085,9.61733 24.1695,9.62133 C 24.1225,9.62133 24.0745,9.62233 24.0285,9.62233 L 24.0255,9.62233 L 24.0065,9.62233 L 23.9985,9.62433 L 23.9985,9.62433 L 23.9985,9.62433 M 12.3975,19.0713 C 12.3965,19.0923 12.3965,19.1123 12.3955,19.1333 C 12.3835,19.2253 12.3715,19.3183 12.3705,19.4103 C 12.3725,19.2933 12.3815,19.1793 12.3975,19.0713 L 12.3975,19.0713 M 15.1105,28.4053 C 14.8315,28.3203 14.5655,27.9053 14.3785,27.4913 C 14.5675,27.9093 14.8375,28.3273 15.1205,28.4063 L 15.1105,28.4053 L 15.1105,28.4053 M 16.1335,29.7973 C 16.2535,30.0033 16.3415,30.2003 16.4005,30.3633 C 16.3365,30.1903 16.2445,29.9913 16.1335,29.7973 L 16.1335,29.7973 M 18.0645,31.8893 L 18.0715,31.8893 C 18.3215,31.8883 18.5965,31.8863 18.8915,31.8853 C 18.5955,31.8873 18.3205,31.8883 18.0645,31.8893 L 18.0645,31.8893 M 21.8275,36.7413 C 21.4345,36.4363 21.0565,36.0873 20.6925,35.7003 C 20.6685,35.6773 20.6475,35.6583 20.6245,35.6363 C 20.6415,35.6513 20.6575,35.6653 20.6745,35.6813 L 20.6925,35.7003 C 21.0575,36.0883 21.4355,36.4373 21.8335,36.7413 L 21.8415,36.7473 S 21.8325,36.7413 21.8275,36.7413 L 21.8275,36.7413 M 23.1035,37.5403 L 23.0835,37.5293 C 23.0995,37.5383 23.1105,37.5433 23.1255,37.5513 C 23.1185,37.5473 23.1125,37.5443 23.1035,37.5403 L 23.1035,37.5403 M 25.0775,37.9843 L 25.0805,37.9843 L 25.0635,37.9843 L 25.0775,37.9843 L 25.0775,37.9843 M 25.3315,38.0753 C 25.1595,38.0533 25.0485,38.0223 25.0305,37.9953 C 25.0705,38.0253 25.1755,38.0543 25.3315,38.0753 L 25.3315,38.0753 M 25.8105,37.5253 L 25.8105,37.5253 C 25.8125,37.5273 25.8125,37.5283 25.8145,37.5293 C 25.8125,37.5283 25.8115,37.5273 25.8105,37.5253 L 25.8105,37.5253 M 26.3005,37.7843 C 26.2905,37.7813 26.2855,37.7783 26.2765,37.7753 C 26.3085,37.7853 26.3395,37.7953 26.3705,37.8023 C 26.3475,37.7963 26.3235,37.7913 26.3005,37.7843 L 26.3005,37.7843 M 26.6885,37.8173 C 26.6865,37.8183 26.6845,37.8173 26.6825,37.8183 C 26.6895,37.8173 26.6935,37.8143 26.6985,37.8123 C 26.6955,37.8133 26.6925,37.8163 26.6885,37.8173 L 26.6885,37.8173 M 26.7425,37.5983 C 26.7435,37.6003 26.7465,37.6023 26.7475,37.6053 C 26.7525,37.6123 26.7525,37.6173 26.7545,37.6243 C 26.7505,37.6163 26.7465,37.6083 26.7425,37.5983 L 26.7425,37.5983 M 27.5615,37.5373 C 27.5595,37.5333 27.5575,37.5283 27.5545,37.5243 C 27.5475,37.5143 27.5405,37.5083 27.5335,37.4973 C 27.5265,37.4823 27.5195,37.4613 27.5125,37.4463 C 27.5265,37.4723 27.5425,37.4983 27.5545,37.5243 C 27.5745,37.5493 27.5935,37.5733 27.6125,37.5933 C 27.5945,37.5753 27.5775,37.5573 27.5615,37.5373 L 27.5615,37.5373 M 39.5995,31.6193 C 39.5795,31.6193 39.5625,31.6203 39.5425,31.6203 C 39.5445,31.6163 39.5465,31.6123 39.5495,31.6083 L 39.5465,31.6153 C 39.5675,31.6143 39.5815,31.6183 39.5995,31.6193 L 39.5995,31.6193 M 38.4675,10.0113 C 38.4115,9.97033 38.2965,9.91333 38.1185,9.85133 C 38.2765,9.90533 38.4015,9.96033 38.4675,10.0113 C 38.4745,10.0163 38.4835,10.0223 38.4895,10.0263 L 38.4865,10.0293 C 38.4955,10.0373 38.5085,10.0453 38.5125,10.0533 L 38.4805,10.0613 L 38.4715,10.0613 C 38.2945,10.0453 38.1225,10.0133 37.9505,9.97533 C 37.9205,9.95833 37.8905,9.93833 37.8595,9.92233 C 38.1095,9.99033 38.3425,10.0453 38.4635,10.0523 L 38.4865,10.0293 C 38.4815,10.0233 38.4755,10.0183 38.4675,10.0113 L 38.4675,10.0113 M 36.9185,9.57133 C 36.9275,9.57233 36.9365,9.57433 36.9455,9.57533 C 36.9365,9.57433 36.9285,9.57233 36.9205,9.57133 C 36.9195,9.57133 36.9195,9.57133 36.9185,9.57133 L 36.9185,9.57133 M 35.6875,9.44533 C 35.7045,9.44633 35.7195,9.44733 35.7355,9.44833 C 35.7305,9.44833 35.7255,9.44933 35.7205,9.44933 C 35.7105,9.44933 35.6995,9.44733 35.6885,9.44633 C 35.5625,9.44933 35.4205,9.45333 35.2625,9.45633 L 35.2585,9.45633 L 35.2595,9.45633 L 35.2545,9.45533 C 35.4145,9.45133 35.5605,9.44733 35.6875,9.44533 L 35.6875,9.44533 M 32.9625,10.0973 C 32.9585,10.1003 32.9545,10.1043 32.9505,10.1063 C 32.9495,10.1063 32.9485,10.1063 32.9475,10.1073 C 32.9545,10.1033 32.9565,10.1003 32.9625,10.0973 C 33.0065,10.0683 33.0295,10.0303 33.0185,9.98733 C 33.0295,10.0233 33.0195,10.0623 32.9625,10.0973 L 32.9625,10.0973 M 32.9545,9.89733 C 32.9565,9.89933 32.9695,9.91033 32.9815,9.92433 C 32.9695,9.91133 32.9505,9.89733 32.9305,9.88233 C 32.9375,9.88833 32.9485,9.89133 32.9545,9.89733 L 32.9545,9.89733 M 32.6435,10.1683 L 32.6285,10.1683 L 32.6265,10.1683 L 32.6435,10.1683 L 32.6435,10.1683 M 32.6245,10.1683 L 32.6225,10.1693 L 32.6105,10.1693 L 32.6245,10.1683 L 32.6245,10.1683 M 30.9255,10.8913 L 30.9315,10.9053 C 30.9135,10.8813 30.8955,10.8653 30.8765,10.8453 C 30.8925,10.8613 30.9115,10.8723 30.9255,10.8913 L 30.9255,10.8913 M 30.8815,37.9123 L 30.8815,37.9123 L 30.8785,37.9123 L 30.8575,37.9113 L 30.8585,37.9113 S 30.8815,37.9123 30.8815,37.9123 C 30.9155,37.9143 30.9315,37.9163 30.9445,37.9203 C 30.9305,37.9163 30.9125,37.9143 30.8815,37.9123 L 30.8815,37.9123 M 30.9565,37.9703 C 30.9675,37.9623 30.9785,37.9533 30.9805,37.9433 C 30.9735,37.9343 30.9655,37.9303 30.9565,37.9263 C 30.9635,37.9303 30.9705,37.9353 30.9805,37.9433 C 30.9775,37.9493 30.9715,37.9593 30.9565,37.9703 L 30.9565,37.9703 M 33.9505,37.6133 C 33.9465,37.6133 33.9425,37.6143 33.9405,37.6143 C 33.9385,37.6143 33.9365,37.6143 33.9355,37.6153 C 33.9225,37.6163 33.9175,37.6153 33.9095,37.6153 C 34.0085,37.5923 34.1075,37.5733 34.2035,37.5393 C 34.0795,37.5853 33.9975,37.6073 33.9505,37.6133 L 33.9505,37.6133 M 34.6455,37.6143 C 34.4395,37.6793 34.2915,37.7113 34.2715,37.6993 C 34.2925,37.6863 34.3285,37.6623 35.4655,37.1423 L 34.2715,37.6993 C 34.3295,37.6993 34.4675,37.6693 34.6455,37.6143 L 34.6455,37.6143 M 35.7435,37.1293 C 36.0975,36.9053 36.3095,36.7743 36.4505,36.6893 C 36.3185,36.7693 36.1175,36.8943 35.7435,37.1293 L 35.7435,37.1293 M 36.3325,36.5293 C 36.3295,36.6003 36.2015,36.7103 36.0355,36.8223 C 36.1825,36.7223 36.3075,36.6163 36.3325,36.5293 C 36.1945,36.5333 36.0375,36.5373 35.8605,36.5413 C 36.0365,36.5373 36.1935,36.5333 36.3325,36.5243 L 36.3305,36.5263 L 36.3325,36.5293 L 36.3325,36.5293 M 36.7665,36.5213 C 36.6965,36.5533 36.6455,36.5773 36.5765,36.6153 C 36.6655,36.5653 36.7155,36.5423 36.7665,36.5213 C 36.7705,36.5193 36.7735,36.5173 36.7775,36.5153 L 36.7785,36.5153 C 36.7745,36.5183 36.7705,36.5193 36.7665,36.5213 L 36.7665,36.5213 M 36.7795,36.5163 C 36.7825,36.5153 36.7835,36.5143 36.7855,36.5133 C 36.7915,36.5133 36.7995,36.5133 36.8045,36.5133 C 36.8045,36.5123 36.7815,36.5153 36.7795,36.5163 L 36.7795,36.5163 M 36.9765,35.4793 C 36.6145,35.8753 36.2395,36.2353 35.8505,36.5503 C 35.4635,36.8613 35.0615,37.1283 34.6435,37.3463 L 34.5875,37.3763 C 34.4255,37.4513 34.3065,37.5003 34.2095,37.5373 C 34.3565,37.4853 34.5005,37.4213 34.6435,37.3463 C 35.0615,37.1283 35.4635,36.8613 35.8475,36.5503 C 36.2395,36.2353 36.6145,35.8763 36.9765,35.4793 C 36.9785,35.4753 36.9805,35.4733 36.9835,35.4703 C 37.0155,35.4313 37.0435,35.3953 37.0685,35.3633 C 37.0435,35.3953 37.0155,35.4313 36.9765,35.4793 L 36.9765,35.4793 M 36.9295,35.0873 C 36.9465,35.0763 36.9665,35.0613 36.9825,35.0523 C 36.9845,35.0503 36.9855,35.0503 36.9885,35.0493 C 36.9685,35.0643 36.9485,35.0763 36.9295,35.0873 L 36.9295,35.0873 M 37.2385,35.0683 C 37.2445,35.0403 37.2435,35.0203 37.2405,35.0053 L 37.2175,34.9833 C 37.2085,34.9803 37.1965,34.9783 37.1815,34.9783 C 37.1905,34.9773 37.2015,34.9753 37.2085,34.9753 L 37.2175,34.9833 C 37.2265,34.9873 37.2335,34.9903 37.2375,34.9933 C 37.2385,34.9963 37.2395,35.0013 37.2455,35.0103 C 37.2445,35.0273 37.2435,35.0453 37.2385,35.0683 L 37.2385,35.0683 M 36.6095,34.5403 C 36.7405,34.3403 36.9875,34.0003 37.2955,33.7623 C 37.0715,33.9413 36.8075,34.2433 36.6095,34.5403 L 36.6095,34.5403 M 37.7035,33.6043 C 37.7105,33.6073 37.7225,33.6043 37.7285,33.6083 C 37.7385,33.6163 37.7405,33.6263 37.7475,33.6353 C 37.7355,33.6203 37.7195,33.6113 37.7035,33.6043 L 37.7035,33.6043 M 37.7765,33.8993 C 37.7725,33.8803 37.7715,33.8653 37.7715,33.8643 C 37.7885,33.7663 37.7825,33.7013 37.7635,33.6593 C 37.8025,33.7333 37.7675,33.8193 37.7765,33.8993 L 37.7765,33.8993 M 38.4925,33.4613 C 38.1655,33.8973 37.9865,34.0093 37.8885,34.0093 C 37.9865,34.0063 38.1675,33.8953 38.4965,33.4533 C 38.5235,33.4113 38.5495,33.3643 38.5765,33.3213 C 38.5475,33.3673 38.5215,33.4163 38.4925,33.4613 L 38.4925,33.4613 M 38.5775,31.0233 C 38.6045,30.9553 38.6355,30.8883 38.6715,30.8243 C 38.6365,30.8963 38.6015,30.9643 38.5775,31.0233 L 38.5775,31.0233 M 39.7065,32.7563 C 39.6925,32.7703 39.6765,32.7903 39.6615,32.8063 C 39.6145,32.8603 39.3875,33.1353 39.1725,33.4503 C 39.3255,33.2113 39.5115,32.9693 39.6615,32.8063 C 39.6695,32.7983 39.6805,32.7843 39.6815,32.7843 C 39.6855,32.7793 39.8805,32.5563 40.0475,32.2983 C 39.8925,32.5433 39.7105,32.7523 39.7065,32.7563 L 39.7065,32.7563 M 40.1905,32.6223 C 40.1905,32.6213 40.1905,32.6213 40.1915,32.6203 C 40.2055,32.5923 40.2245,32.5573 40.2425,32.5233 C 40.2245,32.5573 40.2045,32.5933 40.1905,32.6223 L 40.1905,32.6223 M 40.3735,32.2853 C 40.3735,32.2843 40.3745,32.2833 40.3755,32.2823 C 40.4105,32.2223 40.4475,32.1613 40.4875,32.1013 C 40.4485,32.1623 40.4105,32.2223 40.3735,32.2853 Z" transform=""/><path fill="#d14e3f" stroke="none" d="M 45.0146,22.2385 C 45.0156,22.2285 45.0166,22.2195 45.0186,22.2095 C 45.0176,22.2135 45.0166,22.2175 45.0156,22.2215 L 45.0146,22.2385 Z" transform=""/><path fill="#7a3440" stroke="none" d="M 25.2449,0.200386 C 27.5989,3.67739 29.3049,7.80939 28.3909,11.6474 C 28.0779,7.95139 25.7679,4.55639 23.1269,2.56339 L 25.2449,0.200386 Z" transform=""/><path fill="#a9bc65" stroke="none" d="M 38.3364,1.61856E-06 S 34.0804,-0.0139984 31.3904,2.602 C 29.3154,4.62 28.7784,7.611 28.6414,8.874 C 30.3104,6.136 32.7624,3.978 35.4804,2.469 C 32.8564,4.239 30.6304,6.658 29.3004,9.434 C 30.6224,9.315 33.5234,8.833 35.5414,6.87 C 38.2304,4.254 38.3364,1.61856E-06 38.3364,1.61856E-06 Z" transform=""/><path fill="#7a3440" stroke="none" d="M 35.754,35.5864 L 35.75,35.5814 L 35.75,35.5814 Z" style="opacity: 0.3" opacity="0.3" transform=""/><path fill="#7a3440" stroke="none" d="M 35.2033,36.2088 C 35.0253,36.1848 34.9063,36.1518 34.8613,36.1168 C 34.8813,36.1468 35.0073,36.1828 35.2033,36.2088 Z" style="opacity: 0.3" opacity="0.3" transform=""/><path fill="#7a3440" stroke="none" d="M 36.764,35.9089 C 36.757,35.9109 36.752,35.9139 36.746,35.9159 C 36.747,35.9149 36.75,35.9159 36.752,35.9149 C 36.756,35.9139 36.759,35.9109 36.764,35.9089 Z" style="opacity: 0.3" opacity="0.3" transform=""/><path fill="#7a3440" stroke="none" d="M 34.8983,36.1046 L 34.9183,36.1046 L 34.9143,36.1046 Z" style="opacity: 0.3" opacity="0.3" transform=""/><path fill="#7a3440" stroke="none" d="M 36.8271,35.6958 C 36.8231,35.6878 36.8231,35.6818 36.8191,35.6738 C 36.8181,35.6708 36.8141,35.6688 36.8131,35.6658 C 36.8181,35.6768 36.8221,35.6858 36.8271,35.6958 Z" style="opacity: 0.3" opacity="0.3" transform=""/><path fill="#7a3440" stroke="none" d="M 37.7159,35.5501 C 37.7239,35.5621 37.7329,35.5691 37.7409,35.5801 C 37.7269,35.5501 37.7079,35.5211 37.6919,35.4911 C 37.6999,35.5091 37.7079,35.5331 37.7159,35.5501 Z" style="opacity: 0.3" opacity="0.3" transform=""/><path fill="#7a3440" stroke="none" d="M 37.748,35.5959 C 37.766,35.6179 37.786,35.6389 37.806,35.6599 C 37.785,35.6369 37.763,35.6089 37.741,35.5799 C 37.743,35.5859 37.745,35.5909 37.748,35.5959 Z" style="opacity: 0.3" opacity="0.3" transform=""/><path fill="#7a3440" stroke="none" d="M 23.5414,25.1744 L 23.5524,25.1744 C 23.2294,25.0854 22.9214,24.6074 22.7054,24.1314 C 22.9204,24.6034 23.2234,25.0774 23.5414,25.1744 Z" style="opacity: 0.3" opacity="0.3" transform=""/><path fill="#7a3440" stroke="none" d="M 37.052,36.4177 C 37.365,36.1987 37.666,35.9537 37.962,35.6947 C 37.93,35.6997 37.896,35.7037 37.866,35.7107 C 37.86,35.7067 37.855,35.7027 37.85,35.6987 C 37.855,35.7027 37.86,35.7067 37.865,35.7107 C 37.785,35.7277 37.706,35.7467 37.634,35.7677 C 37.202,35.8997 36.782,35.9927 36.366,36.0667 C 36.219,36.2027 36.072,36.3367 35.92,36.4597 C 35.533,36.7707 35.132,37.0377 34.713,37.2557 L 34.658,37.2857 C 34.495,37.3607 34.376,37.4097 34.279,37.4467 C 34.426,37.3947 34.57,37.3307 34.713,37.2557 C 35.132,37.0377 35.533,36.7707 35.918,36.4597 C 36.07,36.3367 36.217,36.2027 36.365,36.0667 C 36.242,36.0887 36.117,36.1177 35.995,36.1347 C 35.609,36.0277 35.238,35.8317 34.88,35.5667 C 34.877,35.5667 34.875,35.5667 34.872,35.5657 C 35.232,35.8317 35.604,36.0277 35.991,36.1357 C 35.858,36.1537 35.727,36.1657 35.597,36.1787 C 35.38,36.1497 35.164,36.1167 34.945,36.1037 C 35.159,36.1167 35.372,36.1497 35.584,36.1797 C 35.473,36.1917 35.36,36.2057 35.25,36.2127 C 35.246,36.2127 35.242,36.2127 35.239,36.2117 C 35.242,36.2127 35.246,36.2127 35.249,36.2127 C 35.14,36.2197 35.033,36.2207 34.924,36.2237 C 34.915,36.2227 34.907,36.2207 34.898,36.2197 C 34.84,36.2237 34.757,36.2287 34.747,36.2297 C 34.592,36.2247 34.426,36.2177 34.252,36.2077 C 33.986,36.1927 33.703,36.1697 33.413,36.1357 C 32.126,35.9257 30.929,35.4217 29.82,34.6917 C 29.819,34.6917 29.807,34.6837 29.807,34.6837 C 29.863,34.6847 29.933,34.6857 30.02,34.6867 C 29.934,34.6857 29.863,34.6847 29.808,34.6837 C 27.879,33.4107 26.211,31.4537 24.779,29.1607 L 24.77,29.1467 C 23.338,26.8527 22.139,24.2237 21.149,21.6127 L 21.147,21.6117 L 21.146,21.6077 L 21.148,21.6077 C 21.13,21.5617 21.111,21.5147 21.094,21.4687 C 19.813,18.0627 19.567,15.0747 20.058,12.5677 L 20.062,12.5517 C 20.281,11.4447 20.65,10.4377 21.131,9.52367 C 21.031,9.53267 20.921,9.54067 20.79,9.55067 C 20.701,9.54967 20.629,9.54967 20.575,9.54867 C 19.306,9.71167 18.083,10.0967 16.976,10.6877 C 16.482,10.9037 16.014,11.2127 15.577,11.5997 C 15.449,11.6997 15.319,11.7977 15.196,11.9047 L 15.196,11.9047 L 15.186,11.9117 L 15.187,11.9117 C 13.684,13.2157 12.572,15.0157 12.13,17.2527 L 12.127,17.2657 C 11.697,19.4637 11.912,22.0817 13.035,25.0667 C 13.05,25.1077 13.066,25.1477 13.082,25.1887 L 13.08,25.1887 L 13.081,25.1927 L 13.083,25.1927 C 13.951,27.4817 15.001,29.7857 16.257,31.7957 L 16.264,31.8087 C 17.519,33.8177 18.981,35.5337 20.671,36.6487 C 20.72,36.6497 20.782,36.6507 20.857,36.6507 C 20.782,36.6507 20.719,36.6497 20.671,36.6487 C 20.671,36.6487 20.681,36.6557 20.682,36.6557 C 21.654,37.2957 22.703,37.7377 23.831,37.9217 C 24.085,37.9517 24.333,37.9717 24.567,37.9847 C 24.719,37.9937 24.865,37.9997 25.001,38.0047 C 25.01,38.0047 25.083,37.9987 25.134,37.9957 C 25.141,37.9967 25.149,37.9987 25.157,37.9997 C 25.252,37.9967 25.345,37.9967 25.442,37.9897 C 25.439,37.9897 25.435,37.9897 25.432,37.9887 C 25.435,37.9897 25.439,37.9897 25.442,37.9897 C 25.539,37.9837 25.638,37.9717 25.735,37.9617 C 25.549,37.9347 25.363,37.9057 25.175,37.8937 C 25.366,37.9057 25.555,37.9347 25.745,37.9597 C 25.86,37.9477 25.974,37.9387 26.091,37.9217 C 25.751,37.8277 25.425,37.6557 25.11,37.4227 C 25.113,37.4227 25.115,37.4227 25.117,37.4237 C 25.431,37.6557 25.756,37.8277 26.094,37.9217 C 26.561,37.8547 27.039,37.7497 27.53,37.5997 C 27.594,37.5807 27.663,37.5647 27.732,37.5497 C 27.728,37.5457 27.724,37.5427 27.719,37.5387 C 27.724,37.5427 27.728,37.5457 27.733,37.5497 C 27.933,37.5057 28.156,37.4797 28.385,37.4697 C 28.389,37.4697 28.393,37.4677 28.397,37.4667 L 28.398,37.4667 L 28.406,37.4667 C 28.412,37.4677 28.419,37.4677 28.425,37.4687 C 28.694,37.4597 28.968,37.4727 29.221,37.5097 C 29.228,37.5057 29.237,37.5027 29.245,37.4997 C 29.347,37.5727 29.612,37.5867 29.701,37.6147 C 30.027,37.7197 30.345,37.7977 30.661,37.8647 C 30.739,37.8467 30.818,37.8297 30.899,37.8237 C 30.899,37.8237 30.921,37.8227 30.926,37.8227 L 30.925,37.8227 L 30.901,37.8237 L 30.899,37.8237 C 30.819,37.8307 30.741,37.8467 30.663,37.8657 C 30.753,37.8847 30.843,37.9047 30.932,37.9207 C 30.937,37.9197 30.94,37.9187 30.944,37.9167 C 30.94,37.9187 30.938,37.9207 30.934,37.9217 C 30.979,37.9297 31.025,37.9407 31.07,37.9487 C 32.005,37.9277 32.84,37.4037 33.585,36.5137 C 33.584,36.5137 33.582,36.5137 33.581,36.5137 C 33.637,36.4487 33.69,36.3787 33.745,36.3117 C 33.694,36.3767 33.645,36.4457 33.594,36.5067 C 33.812,36.5027 34.025,36.4987 34.232,36.4947 C 34.025,36.4987 33.812,36.5027 33.588,36.5137 C 32.84,37.4027 32.005,37.9277 31.07,37.9477 C 31.076,37.9497 31.081,37.9497 31.087,37.9507 C 31.164,37.9487 31.241,37.9477 31.315,37.9467 C 31.893,37.9357 32.077,37.9297 32.628,37.8987 C 32.629,37.8987 32.636,37.8977 32.641,37.8977 C 32.637,37.8977 32.633,37.8987 32.629,37.8987 C 32.786,37.8897 32.996,37.8737 33.153,37.8617 C 33.323,37.8387 33.492,37.8067 33.661,37.7827 C 33.718,37.7737 33.751,37.7687 33.774,37.7667 C 33.783,37.7657 33.791,37.7637 33.8,37.7637 L 33.808,37.7667 C 33.777,37.7777 33.745,37.7897 33.578,37.8217 C 33.711,37.8057 33.886,37.7817 34.018,37.7627 C 35.101,37.5377 36.103,37.0787 37.028,36.4347 L 37.03,36.4347 L 37.053,36.4187 L 37.052,36.4187 L 37.052,36.4177 L 37.052,36.4177 M 12.464,19.0427 C 12.452,19.1347 12.441,19.2277 12.439,19.3197 C 12.441,19.2027 12.45,19.0887 12.466,18.9807 C 12.466,19.0017 12.466,19.0217 12.464,19.0427 L 12.464,19.0427 M 15.18,28.3157 C 14.901,28.2307 14.635,27.8157 14.447,27.4017 C 14.637,27.8187 14.907,28.2377 15.19,28.3157 L 15.18,28.3157 L 15.18,28.3157 M 16.203,29.7077 C 16.323,29.9137 16.411,30.1107 16.47,30.2737 C 16.406,30.1007 16.314,29.9017 16.203,29.7077 L 16.203,29.7077 M 18.134,31.7997 L 18.141,31.7997 C 18.39,31.7987 18.666,31.7967 18.961,31.7957 C 18.665,31.7977 18.39,31.7987 18.134,31.7997 L 18.134,31.7997 M 21.897,36.6517 C 21.504,36.3467 21.126,35.9977 20.762,35.6107 C 20.738,35.5877 20.717,35.5687 20.694,35.5467 C 20.711,35.5617 20.727,35.5757 20.744,35.5917 L 20.762,35.6107 C 21.126,35.9987 21.505,36.3477 21.903,36.6517 L 21.911,36.6577 S 21.902,36.6517 21.897,36.6517 L 21.897,36.6517 M 23.173,37.4507 L 23.153,37.4397 C 23.169,37.4487 23.18,37.4537 23.195,37.4617 C 23.188,37.4577 23.182,37.4547 23.173,37.4507 L 23.173,37.4507 M 25.147,37.8937 L 25.15,37.8937 L 25.133,37.8947 L 25.147,37.8937 L 25.147,37.8937 M 25.401,37.9857 C 25.229,37.9627 25.118,37.9317 25.1,37.9057 C 25.14,37.9347 25.245,37.9647 25.401,37.9857 L 25.401,37.9857 M 25.88,37.4357 L 25.88,37.4357 C 25.882,37.4377 25.882,37.4387 25.884,37.4397 C 25.882,37.4387 25.881,37.4377 25.88,37.4357 L 25.88,37.4357 M 26.37,37.6947 C 26.36,37.6917 26.355,37.6887 26.346,37.6857 C 26.378,37.6957 26.409,37.7057 26.44,37.7127 C 26.417,37.7067 26.393,37.7017 26.37,37.6947 L 26.37,37.6947 M 26.758,37.7277 C 26.756,37.7277 26.754,37.7277 26.752,37.7287 C 26.759,37.7267 26.763,37.7237 26.768,37.7227 C 26.765,37.7237 26.762,37.7267 26.758,37.7277 L 26.758,37.7277 M 26.812,37.5087 C 26.813,37.5117 26.816,37.5137 26.817,37.5157 C 26.822,37.5237 26.822,37.5287 26.824,37.5357 C 26.82,37.5267 26.816,37.5187 26.812,37.5087 L 26.812,37.5087 M 27.631,37.4477 C 27.629,37.4437 27.627,37.4387 27.624,37.4347 C 27.617,37.4247 27.61,37.4187 27.603,37.4077 C 27.596,37.3927 27.589,37.3717 27.582,37.3567 C 27.597,37.3827 27.613,37.4087 27.625,37.4347 C 27.644,37.4597 27.663,37.4837 27.682,37.5037 C 27.664,37.4857 27.647,37.4677 27.631,37.4477 L 27.631,37.4477 M 30.929,37.8207 L 30.929,37.8207 C 30.93,37.8207 30.949,37.8217 30.952,37.8217 L 30.95,37.8217 L 30.929,37.8207 L 30.929,37.8207 M 30.953,37.8207 C 30.987,37.8237 31.003,37.8257 31.016,37.8297 C 31.002,37.8257 30.984,37.8237 30.953,37.8207 L 30.953,37.8207 M 31.028,37.8787 C 31.039,37.8707 31.049,37.8617 31.051,37.8517 C 31.044,37.8427 31.036,37.8387 31.027,37.8347 C 31.035,37.8387 31.042,37.8437 31.052,37.8517 C 31.049,37.8577 31.043,37.8677 31.028,37.8787 L 31.028,37.8787 M 34.022,37.5217 C 34.019,37.5217 34.015,37.5227 34.013,37.5227 S 34.009,37.5227 34.008,37.5237 C 33.995,37.5247 33.989,37.5237 33.982,37.5237 C 34.08,37.5007 34.18,37.4817 34.276,37.4477 C 34.151,37.4937 34.07,37.5157 34.022,37.5217 L 34.022,37.5217 M 36.404,36.4327 L 36.402,36.4347 L 36.404,36.4387 C 36.4,36.5087 36.272,36.6197 36.106,36.7307 C 36.254,36.6307 36.378,36.5257 36.404,36.4387 C 36.265,36.4417 36.108,36.4457 35.932,36.4497 C 36.107,36.4457 36.264,36.4417 36.404,36.4327 L 36.404,36.4327 M 34.717,37.5227 C 34.512,37.5877 34.363,37.6197 34.343,37.6077 C 34.365,37.5947 34.4,37.5707 35.537,37.0517 L 34.343,37.6077 C 34.401,37.6077 34.54,37.5777 34.717,37.5227 L 34.717,37.5227 M 35.815,37.0377 C 36.169,36.8137 36.381,36.6827 36.522,36.5977 C 36.39,36.6777 36.189,36.8027 35.815,37.0377 L 35.815,37.0377 M 36.838,36.4297 C 36.768,36.4617 36.717,36.4857 36.649,36.5237 C 36.737,36.4737 36.787,36.4507 36.838,36.4297 C 36.842,36.4277 36.845,36.4257 36.849,36.4237 L 36.85,36.4237 C 36.846,36.4267 36.842,36.4277 36.838,36.4297 L 36.838,36.4297 M 36.851,36.4237 C 36.854,36.4227 36.855,36.4217 36.857,36.4217 C 36.863,36.4217 36.871,36.4207 36.876,36.4207 C 36.876,36.4207 36.853,36.4237 36.851,36.4237 Z" style="opacity: 0.3" opacity="0.3" transform=""/><path fill="#7a3440" stroke="none" d="M 36.3891,35.8981 C 36.3541,35.8901 36.3181,35.8791 36.2821,35.8671 C 36.2921,35.8701 36.2981,35.8741 36.3091,35.8781 C 36.3351,35.8851 36.3621,35.8911 36.3891,35.8981 Z" style="opacity: 0.3" opacity="0.3" transform=""/><path fill="#7a3440" stroke="none" d="M 25.0134,27.4088 C 24.9464,27.2218 24.8454,26.9978 24.7084,26.7638 C 24.8354,26.9838 24.9404,27.2118 25.0134,27.4088 Z" style="opacity: 0.3" opacity="0.3" transform=""/><path fill="#7a3440" stroke="none" d="M 20.4456,14.5243 C 20.4266,14.6473 20.4166,14.7773 20.4136,14.9103 C 20.4156,14.8053 20.4286,14.6993 20.4426,14.5943 C 20.4446,14.5713 20.4446,14.5473 20.4456,14.5243 Z" style="opacity: 0.3" opacity="0.3" transform=""/><path fill="#7a3440" stroke="none" d="M 32.6879,35.6105 C 32.6709,35.6025 32.6569,35.5955 32.6389,35.5855 L 32.6629,35.5985 C 32.6719,35.6025 32.6789,35.6065 32.6879,35.6105 Z" style="opacity: 0.3" opacity="0.3" transform=""/><path fill="#7a3440" stroke="none" d="M 26.9192,29.1501 L 26.9112,29.1501 C 27.2032,29.1491 27.5172,29.1481 27.8552,29.1461 C 27.5182,29.1481 27.2042,29.1491 26.9192,29.1501 Z" style="opacity: 0.3" opacity="0.3" transform=""/><path fill="#7a3440" stroke="none" d="M 31.2211,34.6939 L 31.2121,34.6859 C 30.7581,34.3389 30.3261,33.9409 29.9101,33.4989 C 30.3261,33.9409 30.7571,34.3379 31.2051,34.6859 C 31.2121,34.6859 31.2211,34.6939 31.2211,34.6939 Z" style="opacity: 0.3" opacity="0.3" transform=""/><path fill="#7a3440" stroke="none" d="M 29.8891,33.4765 C 29.8701,33.4585 29.8511,33.4425 29.8321,33.4265 C 29.8581,33.4505 29.8811,33.4725 29.9091,33.4985 L 29.8891,33.4765 Z" style="opacity: 0.3" opacity="0.3" transform=""/></svg>