<svg xmlns="http://www.w3.org/2000/svg" version="1.1" width="400" height="133.33333333333334" viewBox="0 0 400 133.33333333333334"><defs><radialGradient id="r-58630019c39a4a769c8149a71210a83e" fx="0.5" fy="0.5"><stop offset="0%" stop-color="#fee6d3"/><stop offset="29.16%" stop-color="#fee4d0"/><stop offset="52.23%" stop-color="#fedec6"/><stop offset="73.2%" stop-color="#fdd3b6"/><stop offset="92.83%" stop-color="#fcc4a0"/><stop offset="100%" stop-color="#fbbd97"/></radialGradient><radialGradient id="r-adc4db9d001f45a4bf3d048e9d592228" fx="0.5" fy="0.5"><stop offset="0%" stop-color="#ffe600"/><stop offset="29.16%" stop-color="#ffe400"/><stop offset="52.23%" stop-color="#ffdd00"/><stop offset="73.2%" stop-color="#ffd100"/><stop offset="92.83%" stop-color="#fec00f"/><stop offset="100%" stop-color="#fdb913"/></radialGradient><radialGradient id="r-7257fc9cae93451f865806b0673d2f11" fx="0.5" fy="0.5"><stop offset="0%" stop-color="#fee6d3"/><stop offset="29.16%" stop-color="#fee4d0"/><stop offset="52.23%" stop-color="#fedec6"/><stop offset="73.2%" stop-color="#fdd3b6"/><stop offset="92.83%" stop-color="#fcc4a0"/><stop offset="100%" stop-color="#fbbd97"/></radialGradient><radialGradient id="r-21ddd5c539c443c28f4ea492d11624ff" fx="0.5" fy="0.5"><stop offset="0%" stop-color="#ffe600"/><stop offset="29.16%" stop-color="#ffe400"/><stop offset="52.23%" stop-color="#ffdd00"/><stop offset="73.2%" stop-color="#ffd100"/><stop offset="92.83%" stop-color="#fec00f"/><stop offset="100%" stop-color="#fdb913"/></radialGradient><radialGradient id="r-8a02d477bedc4a81846c58f6c92c16dd" fx="0.5" fy="0.5"><stop offset="0%" stop-color="#fee6d3"/><stop offset="29.16%" stop-color="#fee4d0"/><stop offset="52.23%" stop-color="#fedec6"/><stop offset="73.2%" stop-color="#fdd3b6"/><stop offset="92.83%" stop-color="#fcc4a0"/><stop offset="100%" stop-color="#fbbd97"/></radialGradient><radialGradient id="r-16c68ee53e5942938615ea4ce6a7e301" fx="0.5" fy="0.5"><stop offset="0%" stop-color="#ffe600"/><stop offset="29.16%" stop-color="#ffe400"/><stop offset="52.23%" stop-color="#ffdd00"/><stop offset="73.2%" stop-color="#ffd100"/><stop offset="92.83%" stop-color="#fec00f"/><stop offset="100%" stop-color="#fdb913"/></radialGradient></defs><path fill="#deb958" stroke="none" d="M 26.7564,100.437 S 27.3624,100.801 28.3924,100.255 C 28.3924,99.0533 28.5144,96.4513 28.5844,95.0373 C 27.2974,94.8233 26.0544,94.5803 24.7994,94.4483 C 25.3324,96.3043 25.9764,98.3093 26.7564,100.437 Z" transform=""/><path fill="#deb958" stroke="none" d="M 37.0126,95.9525 C 37.7106,97.8595 38.3186,100.327 38.3186,100.327 S 38.8556,100.622 39.6996,100.106 C 40.1276,98.3855 40.5676,94.7055 41.3026,91.3585 C 39.6866,92.7585 38.1686,94.2375 37.0126,95.9525 Z" transform=""/><path fill="#ccaa4f" stroke="none" d="M 27.1029,96.1978 C 27.2979,95.8058 27.9059,95.8278 28.5399,95.9708 C 28.5559,95.6288 28.5719,95.3118 28.5849,95.0378 C 27.2979,94.8238 26.0549,94.5808 24.7999,94.4488 C 25.3329,96.3048 25.9769,98.3098 26.7569,100.438 C 26.7569,100.438 27.3629,100.802 28.3929,100.256 C 28.3929,100.115 28.3949,99.9528 28.3979,99.7768 C 26.5509,99.9208 26.5899,97.3518 27.1029,96.1978 Z" transform=""/><path fill="#ccaa4f" stroke="none" d="M 39.4966,99.2612 C 38.9906,97.3372 39.8096,95.6342 40.7756,94.0452 C 40.9346,93.1542 41.1086,92.2452 41.3026,91.3592 C 39.6866,92.7582 38.1686,94.2372 37.0126,95.9532 C 37.7106,97.8592 38.3186,100.327 38.3186,100.327 S 38.8556,100.623 39.6996,100.107 C 39.7406,99.9412 39.7816,99.7562 39.8236,99.5562 C 39.6346,99.5032 39.4966,99.3992 39.4966,99.2612 Z" transform=""/><path fill="#304454" stroke="none" d="M 26.7564,100.437 S 26.4974,101.594 26.7374,102.423 C 26.9404,102.608 28.4164,102.737 28.9504,101.999 C 28.9134,101.575 28.6084,100.632 28.3924,100.255 C 28.3924,100.255 27.3844,100.719 26.7564,100.437 Z" transform=""/><path fill="#304454" stroke="none" d="M 38.2444,100.295 S 38.8584,100.663 39.7514,100.083 C 40.1604,100.557 40.4244,102.219 40.4244,102.219 S 39.1384,103.19 38.0294,102.636 C 38.0294,102.636 37.7024,101.07 38.2444,100.295 Z" transform=""/><path fill="#f1d285" stroke="none" d="M 12.5488,75.5054 S 7.84075,78.2724 10.1718,80.3604 C 12.5008,82.4454 15.2388,81.7924 15.4388,80.8614 C 16.9698,81.6594 19.4848,80.6654 19.4848,80.6654 S 19.7508,89.3774 24.4068,102.081 C 24.4068,102.081 25.0718,102.481 26.2018,101.881 C 26.2018,100.019 26.4688,95.0984 26.4688,95.0984 S 32.3218,96.7614 35.3148,95.8964 C 35.7798,97.8914 35.9128,101.615 35.9128,101.615 S 36.3788,102.014 37.3098,101.682 C 38.2398,99.7534 39.7698,95.0314 41.5658,91.5734 C 43.3618,88.1144 43.9608,80.6654 38.2398,80.9314 C 32.5198,81.1974 27.7318,80.7324 26.1348,79.2024 C 24.5388,77.6724 24.6718,75.4774 24.8718,73.7484 C 25.0718,72.0184 23.1428,69.7574 21.2128,70.0234 C 19.2848,70.2894 15.8748,71.3564 14.4958,72.3504 C 13.1848,73.2964 12.5488,75.5054 12.5488,75.5054 Z" transform=""/><path fill="#deb958" stroke="none" d="M 37.9445,94.5262 C 34.3245,95.3612 30.7035,94.6652 27.0825,93.9692 C 26.5255,93.8302 25.5505,93.5512 25.1335,92.7152 C 26.1075,95.0832 25.9685,97.4502 25.5505,99.8172 C 25.5505,100.235 24.5765,100.653 24.4365,100.235 C 23.1835,96.8932 22.3695,93.4292 21.8305,89.8372 C 21.0855,84.8722 19.8855,79.2532 21.5125,75.0302 C 19.9485,79.0872 15.0635,79.1222 14.8895,79.5332 C 14.5035,80.4432 10.0185,80.2302 10.0185,80.2302 C 11.6245,82.0772 14.8895,82.1002 15.4185,80.8612 C 15.4405,80.8112 15.4635,80.7632 15.4895,80.7182 C 16.3785,81.7422 19.4655,80.6652 19.4655,80.6652 S 19.7315,89.3782 24.3875,102.081 C 24.3875,102.081 25.0525,102.48 26.1825,101.882 C 26.1825,100.019 26.4485,95.0982 26.4485,95.0982 S 32.3015,96.7602 35.2945,95.8962 C 35.7595,97.8912 35.8935,101.616 35.8935,101.616 S 36.3345,101.991 37.2135,101.707 C 36.0015,99.6172 36.2895,96.4572 37.9445,94.5262 Z" style="opacity: 0.5" opacity="0.5" transform=""/><path fill="#deb958" stroke="none" d="M 20.5577,72.1061 C 21.4927,71.8721 22.1227,71.1151 22.4467,70.1761 C 22.0507,70.0271 21.6327,69.9661 21.2147,70.0241 C 19.4487,70.2671 16.5157,71.2901 14.9087,72.1251 C 16.7427,72.5501 18.6937,72.5451 20.5577,72.1061 Z" transform=""/><path fill="#f4953f" stroke="none" d="M 40.7021,82.5937 S 40.5691,80.0667 43.7611,80.0667 C 46.9541,80.0667 47.8851,82.1947 46.8871,85.5867 C 45.8901,88.9787 46.0221,90.3087 47.1531,89.9767 C 47.1531,89.9767 47.3531,89.5777 47.0201,89.5777 C 47.0201,89.5777 47.6191,89.4447 47.6191,90.1097 C 47.6191,90.7747 46.3551,91.2407 45.2911,90.0437 C 45.2241,90.7077 46.4211,91.0407 46.8211,91.0407 C 46.2221,91.7727 44.3601,92.1047 43.5611,90.2427 C 42.7631,88.3797 42.8301,87.3167 42.8301,87.3167 S 42.4971,83.9237 42.0321,83.7917 C 42.0321,83.7917 40.9681,83.8577 40.7021,82.5937 Z" transform=""/><path fill="#2c8fc0" stroke="none" d="M 44.1036,86.5703 C 44.0966,86.3853 44.0916,86.2043 44.0916,86.0313 C 44.0466,86.2113 44.0606,86.3913 44.1036,86.5703 Z" transform=""/><path fill="#d78334" stroke="none" d="M 44.1036,86.5703 C 44.0606,86.3913 44.0476,86.2113 44.0916,86.0313 C 44.0916,86.2043 44.0966,86.3853 44.1036,86.5703 M 44.1036,86.5703 C 44.1936,86.9483 44.4156,87.3253 44.5096,87.7023 C 44.7876,85.8923 45.3446,83.2463 42.9776,82.8283 C 43.3956,82.5503 43.8136,82.6893 44.2306,82.8283 C 43.9526,81.9933 42.5596,82.4113 42.4206,81.9933 C 42.2806,81.0183 43.8136,81.2973 44.6486,81.2973 C 44.2406,81.0253 43.9636,80.4863 43.5606,80.0713 C 40.5766,80.1763 40.7016,82.5933 40.7016,82.5933 C 40.9676,83.8573 42.0316,83.7913 42.0316,83.7913 C 42.4976,83.9243 42.8296,87.3163 42.8296,87.3163 S 42.7636,88.3803 43.5616,90.2423 C 44.1826,91.6903 45.4456,91.8113 46.2576,91.4503 C 44.6416,90.6523 44.1766,88.3643 44.1036,86.5703 Z" transform=""/><path fill="#304454" stroke="none" d="M 24.4074,102.082 S 24.1234,103.351 24.3864,104.262 C 24.6084,104.465 26.2284,104.607 26.8164,103.797 C 26.7754,103.331 26.4404,102.297 26.2034,101.882 C 26.2034,101.883 25.0964,102.393 24.4074,102.082 Z" transform=""/><path fill="#304454" stroke="none" d="M 35.8472,101.568 S 36.3732,102.054 37.3652,101.669 C 37.6692,102.216 37.5882,103.897 37.5882,103.897 S 36.1302,104.585 35.1582,103.816 C 35.1592,103.816 35.1592,102.217 35.8472,101.568 Z" transform=""/><path fill="#f4953f" stroke="none" d="M 21.7408,71.2005 S 19.2138,72.3305 17.0198,71.8655 C 14.8238,71.3995 12.6298,68.5395 14.6248,67.0095 C 14.4918,67.7415 14.7578,69.3375 17.0198,69.0715 C 16.4198,69.0715 15.6888,67.8075 16.2868,67.0095 C 16.4878,67.4085 17.0198,68.6055 18.8148,68.0075 C 20.6098,67.4085 24.2018,66.4115 25.9308,69.0715 C 27.6598,71.7325 27.1948,76.4545 31.2518,76.3205 C 31.7838,76.2545 31.7178,75.3895 31.0518,75.3895 C 32.3158,75.2565 34.4448,79.7135 28.8578,80.2455 C 27.1948,80.8445 24.0028,79.0485 23.9358,76.3875 C 23.8698,73.7275 24.4018,70.8005 21.7408,71.2005 L 21.7408,71.2005 Z" transform=""/><path fill="#d78334" stroke="none" d="M 32.3451,76.6135 C 32.2291,76.9055 32.0181,77.1465 31.6661,77.3065 C 30.5511,77.8625 29.0201,77.5855 27.7661,76.8885 C 27.9061,77.4445 28.0451,77.8625 28.7421,77.8625 C 25.1211,78.5585 24.2851,74.3815 24.7031,71.5965 C 24.8431,72.4325 25.5381,73.4075 26.5141,73.5465 C 25.6641,72.3775 25.9491,70.7215 26.0081,69.1975 C 25.9831,69.1555 25.9581,69.1125 25.9311,69.0715 C 24.7931,67.3195 22.8451,67.1535 21.1371,67.4165 C 20.3791,68.9685 19.7761,70.6685 17.6021,70.0655 C 17.8811,70.4825 18.1591,70.4825 18.7161,70.4825 C 17.7341,71.0715 16.5441,71.3835 15.4401,71.1255 C 15.9221,71.4815 16.4711,71.7475 17.0201,71.8655 C 19.2141,72.3305 21.7411,71.2005 21.7411,71.2005 C 24.4021,70.8005 23.8701,73.7275 23.9371,76.3865 C 24.0031,79.0475 27.1951,80.8435 28.8581,80.2445 C 32.4511,79.9025 32.8521,77.9375 32.3451,76.6135 L 32.3451,76.6135 Z" transform=""/><path fill="#f1d285" stroke="none" d="M 22.2297,72.3878 S 21.5327,70.8628 22.6227,69.8158 C 23.7117,68.7698 23.7117,68.7698 23.7117,68.7698 S 24.4097,70.4268 24.0177,71.6468 C 23.7547,72.5618 22.8837,73.0848 22.2297,72.3878 Z" transform=""/><path fill="#f6a5bf" stroke="none" d="M 20.8437,68.347 C 20.8447,68.352 20.8467,68.356 20.8477,68.36 L 20.8477,68.36 L 20.8477,68.36 C 20.8477,68.358 20.8457,68.354 20.8437,68.347 M 20.8437,68.347 L 20.8437,68.347 Z" transform=""/><path fill="#ccaa4f" stroke="none" d="M 23.4348,69.7464 S 22.2958,70.5274 22.4908,71.5694 C 22.6868,72.6104 23.3698,71.9264 23.5328,71.5694 C 23.6948,71.2104 23.4348,69.7464 23.4348,69.7464 Z" transform=""/><path fill="#e8c4dd" stroke="none" d="M 28.9131,80.392 S 28.9041,80.405 28.8891,80.432 C 28.9061,80.435 28.9211,80.439 28.9381,80.443 C 28.9291,80.426 28.9201,80.409 28.9131,80.392 M 28.9131,80.392 L 28.9131,80.392 Z" transform=""/><ellipse cx="16.830110524585642" cy="75.159965144891" rx="0.4948681102718656" ry="0.8221023260468762" fill="#304454" stroke="none" r="NaN" transform=""/><path fill="#deb958" stroke="none" d="M 74.3754,100.437 S 74.9814,100.801 76.0114,100.255 C 76.0114,99.0533 76.1334,96.4513 76.2034,95.0373 C 74.9164,94.8233 73.6734,94.5803 72.4184,94.4483 C 72.9514,96.3043 73.5954,98.3093 74.3754,100.437 Z" transform=""/><path fill="#deb958" stroke="none" d="M 84.6316,95.9525 C 85.3296,97.8595 85.9376,100.327 85.9376,100.327 S 86.4746,100.622 87.3186,100.106 C 87.7466,98.3855 88.1866,94.7055 88.9216,91.3585 C 87.3056,92.7585 85.7876,94.2375 84.6316,95.9525 Z" transform=""/><path fill="#ccaa4f" stroke="none" d="M 74.722,96.1978 C 74.917,95.8058 75.525,95.8278 76.159,95.9708 C 76.175,95.6288 76.191,95.3118 76.204,95.0378 C 74.917,94.8238 73.674,94.5808 72.419,94.4488 C 72.952,96.3048 73.596,98.3098 74.376,100.438 C 74.376,100.438 74.982,100.802 76.012,100.256 C 76.012,100.115 76.014,99.9528 76.017,99.7768 C 74.17,99.9208 74.209,97.3518 74.722,96.1978 Z" transform=""/><path fill="#ccaa4f" stroke="none" d="M 87.1156,99.2612 C 86.6096,97.3372 87.4286,95.6342 88.3946,94.0452 C 88.5536,93.1542 88.7276,92.2452 88.9216,91.3592 C 87.3056,92.7582 85.7876,94.2372 84.6316,95.9532 C 85.3296,97.8592 85.9376,100.327 85.9376,100.327 S 86.4746,100.623 87.3186,100.107 C 87.3596,99.9412 87.4006,99.7562 87.4426,99.5562 C 87.2536,99.5032 87.1156,99.3992 87.1156,99.2612 Z" transform=""/><path fill="#304454" stroke="none" d="M 74.3754,100.437 S 74.1164,101.594 74.3564,102.423 C 74.5594,102.608 76.0354,102.737 76.5694,101.999 C 76.5324,101.575 76.2274,100.632 76.0114,100.255 C 76.0114,100.255 75.0034,100.719 74.3754,100.437 Z" transform=""/><path fill="#304454" stroke="none" d="M 85.8635,100.295 S 86.4775,100.663 87.3705,100.083 C 87.7795,100.557 88.0435,102.219 88.0435,102.219 S 86.7575,103.19 85.6485,102.636 C 85.6485,102.636 85.3215,101.07 85.8635,100.295 Z" transform=""/><path fill="#f1d285" stroke="none" d="M 60.1678,75.5054 S 55.4598,78.2724 57.7908,80.3604 C 60.1198,82.4454 62.8578,81.7924 63.0578,80.8614 C 64.5888,81.6594 67.1038,80.6654 67.1038,80.6654 S 67.3698,89.3774 72.0258,102.081 C 72.0258,102.081 72.6908,102.481 73.8208,101.881 C 73.8208,100.019 74.0878,95.0984 74.0878,95.0984 S 79.9408,96.7614 82.9338,95.8964 C 83.3988,97.8914 83.5318,101.615 83.5318,101.615 S 83.9978,102.014 84.9288,101.682 C 85.8588,99.7534 87.3888,95.0314 89.1848,91.5734 C 90.9808,88.1144 91.5798,80.6654 85.8588,80.9314 C 80.1388,81.1974 75.3508,80.7324 73.7538,79.2024 C 72.1578,77.6724 72.2908,75.4774 72.4908,73.7484 C 72.6908,72.0184 70.7618,69.7574 68.8318,70.0234 C 66.9038,70.2894 63.4938,71.3564 62.1148,72.3504 C 60.8038,73.2964 60.1678,75.5054 60.1678,75.5054 Z" transform=""/><path fill="#deb958" stroke="none" d="M 85.5635,94.5262 C 81.9435,95.3612 78.3225,94.6652 74.7015,93.9692 C 74.1445,93.8302 73.1695,93.5512 72.7525,92.7152 C 73.7265,95.0832 73.5875,97.4502 73.1695,99.8172 C 73.1695,100.235 72.1955,100.653 72.0555,100.235 C 70.8025,96.8932 69.9885,93.4292 69.4495,89.8372 C 68.7045,84.8722 67.5045,79.2532 69.1315,75.0302 C 67.5675,79.0872 62.6825,79.1222 62.5085,79.5332 C 62.1225,80.4432 57.6375,80.2302 57.6375,80.2302 C 59.2435,82.0772 62.5085,82.1002 63.0375,80.8612 C 63.0595,80.8112 63.0825,80.7632 63.1085,80.7182 C 63.9975,81.7422 67.0845,80.6652 67.0845,80.6652 S 67.3505,89.3782 72.0065,102.081 C 72.0065,102.081 72.6715,102.48 73.8015,101.882 C 73.8015,100.019 74.0675,95.0982 74.0675,95.0982 S 79.9205,96.7602 82.9135,95.8962 C 83.3785,97.8912 83.5125,101.616 83.5125,101.616 S 83.9535,101.991 84.8325,101.707 C 83.6205,99.6172 83.9085,96.4572 85.5635,94.5262 Z" style="opacity: 0.5" opacity="0.5" transform=""/><path fill="#deb958" stroke="none" d="M 68.1767,72.1061 C 69.1117,71.8721 69.7417,71.1151 70.0657,70.1761 C 69.6697,70.0271 69.2517,69.9661 68.8337,70.0241 C 67.0677,70.2671 64.1347,71.2901 62.5277,72.1251 C 64.3617,72.5501 66.3127,72.5451 68.1767,72.1061 Z" transform=""/><path fill="#f4953f" stroke="none" d="M 88.3212,82.5937 S 88.1882,80.0667 91.3802,80.0667 C 94.5732,80.0667 95.5042,82.1947 94.5062,85.5867 C 93.5092,88.9787 93.6412,90.3087 94.7722,89.9767 C 94.7722,89.9767 94.9722,89.5777 94.6392,89.5777 C 94.6392,89.5777 95.2382,89.4447 95.2382,90.1097 C 95.2382,90.7747 93.9742,91.2407 92.9102,90.0437 C 92.8432,90.7077 94.0402,91.0407 94.4402,91.0407 C 93.8412,91.7727 91.9792,92.1047 91.1802,90.2427 C 90.3822,88.3797 90.4492,87.3167 90.4492,87.3167 S 90.1162,83.9237 89.6512,83.7917 C 89.6512,83.7917 88.5872,83.8577 88.3212,82.5937 Z" transform=""/><path fill="#2c8fc0" stroke="none" d="M 91.7226,86.5703 C 91.7156,86.3853 91.7106,86.2043 91.7106,86.0313 C 91.6656,86.2113 91.6796,86.3913 91.7226,86.5703 Z" transform=""/><path fill="#d78334" stroke="none" d="M 91.7226,86.5703 C 91.6796,86.3913 91.6666,86.2113 91.7106,86.0313 C 91.7106,86.2043 91.7156,86.3853 91.7226,86.5703 M 91.7226,86.5703 C 91.8126,86.9483 92.0346,87.3253 92.1286,87.7023 C 92.4066,85.8923 92.9636,83.2463 90.5966,82.8283 C 91.0146,82.5503 91.4326,82.6893 91.8496,82.8283 C 91.5716,81.9933 90.1786,82.4113 90.0396,81.9933 C 89.8996,81.0183 91.4326,81.2973 92.2676,81.2973 C 91.8596,81.0253 91.5826,80.4863 91.1796,80.0713 C 88.1956,80.1763 88.3206,82.5933 88.3206,82.5933 C 88.5866,83.8573 89.6506,83.7913 89.6506,83.7913 C 90.1166,83.9243 90.4486,87.3163 90.4486,87.3163 S 90.3826,88.3803 91.1806,90.2423 C 91.8016,91.6903 93.0646,91.8113 93.8766,91.4503 C 92.2606,90.6523 91.7956,88.3643 91.7226,86.5703 Z" transform=""/><path fill="#304454" stroke="none" d="M 72.0264,102.082 S 71.7424,103.351 72.0054,104.262 C 72.2274,104.465 73.8474,104.607 74.4354,103.797 C 74.3944,103.331 74.0594,102.297 73.8224,101.882 C 73.8224,101.883 72.7154,102.393 72.0264,102.082 Z" transform=""/><path fill="#304454" stroke="none" d="M 83.4662,101.568 S 83.9922,102.054 84.9842,101.669 C 85.2882,102.216 85.2072,103.897 85.2072,103.897 S 83.7492,104.585 82.7772,103.816 C 82.7782,103.816 82.7782,102.217 83.4662,101.568 Z" transform=""/><path fill="#f4953f" stroke="none" d="M 69.3598,71.2005 S 66.8328,72.3305 64.6388,71.8655 C 62.4428,71.3995 60.2488,68.5395 62.2438,67.0095 C 62.1108,67.7415 62.3768,69.3375 64.6388,69.0715 C 64.0388,69.0715 63.3078,67.8075 63.9058,67.0095 C 64.1068,67.4085 64.6388,68.6055 66.4338,68.0075 C 68.2288,67.4085 71.8208,66.4115 73.5498,69.0715 C 75.2788,71.7325 74.8138,76.4545 78.8708,76.3205 C 79.4028,76.2545 79.3368,75.3895 78.6708,75.3895 C 79.9348,75.2565 82.0638,79.7135 76.4768,80.2455 C 74.8138,80.8445 71.6218,79.0485 71.5548,76.3875 C 71.4888,73.7275 72.0208,70.8005 69.3598,71.2005 L 69.3598,71.2005 Z" transform=""/><path fill="#d78334" stroke="none" d="M 79.9641,76.6135 C 79.8481,76.9055 79.6371,77.1465 79.2851,77.3065 C 78.1701,77.8625 76.6391,77.5855 75.3851,76.8885 C 75.5251,77.4445 75.6641,77.8625 76.3611,77.8625 C 72.7401,78.5585 71.9041,74.3815 72.3221,71.5965 C 72.4621,72.4325 73.1571,73.4075 74.1331,73.5465 C 73.2831,72.3775 73.5681,70.7215 73.6271,69.1975 C 73.6021,69.1555 73.5771,69.1125 73.5501,69.0715 C 72.4121,67.3195 70.4641,67.1535 68.7561,67.4165 C 67.9981,68.9685 67.3951,70.6685 65.2211,70.0655 C 65.5001,70.4825 65.7781,70.4825 66.3351,70.4825 C 65.3531,71.0715 64.1631,71.3835 63.0591,71.1255 C 63.5411,71.4815 64.0901,71.7475 64.6391,71.8655 C 66.8331,72.3305 69.3601,71.2005 69.3601,71.2005 C 72.0211,70.8005 71.4891,73.7275 71.5561,76.3865 C 71.6221,79.0475 74.8141,80.8435 76.4771,80.2445 C 80.0701,79.9025 80.4711,77.9375 79.9641,76.6135 L 79.9641,76.6135 Z" transform=""/><path fill="#f1d285" stroke="none" d="M 69.8488,72.3878 S 69.1518,70.8628 70.2418,69.8158 C 71.3308,68.7698 71.3308,68.7698 71.3308,68.7698 S 72.0288,70.4268 71.6368,71.6468 C 71.3738,72.5618 70.5028,73.0848 69.8488,72.3878 Z" transform=""/><path fill="#f6a5bf" stroke="none" d="M 68.4627,68.347 C 68.4637,68.352 68.4657,68.356 68.4667,68.36 L 68.4667,68.36 L 68.4667,68.36 C 68.4667,68.358 68.4647,68.354 68.4627,68.347 M 68.4627,68.347 L 68.4627,68.347 Z" transform=""/><path fill="#ccaa4f" stroke="none" d="M 71.0538,69.7464 S 69.9148,70.5274 70.1098,71.5694 C 70.3058,72.6104 70.9888,71.9264 71.1518,71.5694 C 71.3138,71.2104 71.0538,69.7464 71.0538,69.7464 Z" transform=""/><path fill="#e8c4dd" stroke="none" d="M 76.5322,80.392 S 76.5232,80.405 76.5082,80.432 C 76.5252,80.435 76.5402,80.439 76.5572,80.443 C 76.5482,80.426 76.5392,80.409 76.5322,80.392 M 76.5322,80.392 L 76.5322,80.392 Z" transform=""/><ellipse cx="64.44915814363326" cy="75.159965144891" rx="0.4948681102718656" ry="0.8221023260468762" fill="#304454" stroke="none" r="NaN" transform=""/><path fill="#d78334" stroke="none" d="M 29.3343,30.0144 C 29.9903,30.6074 33.5883,31.4634 35.8333,28.5554 C 37.2953,26.6614 33.8883,27.6414 33.1093,27.5324 C 32.3093,27.4184 31.6773,26.0214 30.1983,26.3714 C 28.5993,26.7504 27.9143,28.7294 29.3343,30.0144 Z" transform=""/><path fill="#d78334" stroke="none" d="M 32.7583,32.2749 S 33.7603,30.9769 34.1313,31.2729 C 34.3583,31.4549 33.9833,33.8339 33.6123,34.5759 C 33.2403,35.3179 31.8313,34.4279 31.8313,34.4279 L 32.7583,32.2749 Z" transform=""/><path fill="#f89c44" stroke="none" d="M 24.9819,31.7257 S 20.1419,30.1287 19.3819,25.4167 C 18.4429,19.5967 11.4609,20.9467 9.63992,22.3657 C 9.63992,22.3657 13.4699,24.2027 13.7439,29.5177 C 13.9689,33.9387 20.6399,36.2767 24.3539,32.6307 L 24.9819,31.7257 Z" transform=""/><path fill="#f4953f" stroke="none" d="M 26.8922,26.4835 S 21.7392,31.8685 22.9862,35.0745 C 24.1052,37.9495 31.4362,38.3405 33.4232,37.9855 C 34.4122,37.8085 35.8382,32.5715 35.0562,32.3055 C 34.3542,32.0665 33.4942,33.3705 33.4942,33.3705 S 32.0952,26.2105 29.2552,25.9965 C 26.4162,25.7845 26.8922,26.4835 26.8922,26.4835 Z" transform=""/><path fill="url(#r-58630019c39a4a769c8149a71210a83e)" stroke="none" d="M 33.4945,33.3705 S 32.1195,26.3405 29.3295,26.0085 L 29.6315,28.9095 S 31.4395,32.8985 33.4945,33.3705 Z" opacity="1" fill-opacity="1" style="opacity: 1;fill-opacity: 1" transform=""/><path fill="#d14e3f" stroke="none" d="M 29.6817,26.0879 C 28.8497,26.0199 27.7947,25.9229 27.0497,26.5909 C 25.8257,27.6879 26.1707,29.7539 28.0317,30.2039 C 28.5537,30.3309 30.6337,29.9279 32.0767,28.9049 C 31.4737,27.5899 30.6757,26.4169 29.6817,26.0879 Z" transform=""/><path fill="#fedcbd" stroke="none" d="M 29.6663,26.0865 C 29.5593,26.0775 29.4483,26.0695 29.3363,26.0605 L 29.6313,28.9095 S 29.8113,29.3045 30.1193,29.8605 C 30.7783,29.6435 31.4803,29.3275 32.0753,28.9055 C 31.4693,27.5855 30.6673,26.4075 29.6663,26.0865 Z" transform=""/><path fill="url(#r-adc4db9d001f45a4bf3d048e9d592228)" stroke="none" d="M 22.4275,7.06627 S 25.9455,4.44527 30.1535,4.92827 C 30.1535,4.92827 31.7565,0.897272 34.3785,0.000271974 C 34.3785,0.000271974 36.1385,3.11027 36.1975,5.98527 C 36.1975,5.98527 41.5355,13.0683 41.9495,16.5863 C 41.9495,16.5863 45.3985,16.5173 46.1565,16.1033 C 46.1565,16.1033 47.4735,15.5413 46.4865,16.7573 C 44.8415,18.7843 39.9835,23.2343 35.3275,25.0023 C 29.6775,27.1473 24.5665,28.0363 20.8405,25.0023 C 17.3085,22.1243 17.6675,12.3093 17.6675,12.3093 S 15.6675,8.23927 15.5985,5.20427 C 17.8285,4.63627 22.4275,7.06627 22.4275,7.06627 Z" opacity="1" fill-opacity="1" style="opacity: 1;fill-opacity: 1" transform=""/><path fill="#f89c44" stroke="none" d="M 22.4275,7.06627 S 26.1125,4.24627 30.3205,4.72827 C 30.3205,4.72827 31.7565,0.897272 34.3775,0.000271974 C 34.3775,0.000271974 36.1385,3.11027 36.1965,5.98527 C 36.1965,5.98527 41.5355,13.0683 41.9485,16.5863 C 41.9485,16.5863 45.3975,16.5173 46.1565,16.1033 C 46.1565,16.1033 47.4725,15.5413 46.4865,16.7573 C 44.8415,18.7843 39.9835,23.2343 35.3265,25.0023 C 29.6775,27.1473 24.5655,28.0363 20.8405,25.0023 C 17.3085,22.1243 17.6675,12.3093 17.6675,12.3093 S 15.6665,8.23927 15.5975,5.20427 C 17.8285,4.63627 22.4275,7.06627 22.4275,7.06627 Z" transform=""/><path fill="#f4dbc5" stroke="none" d="M 17.1217,21.8743 L 17.0237,23.1463 L 15.9587,22.9333 L 15.9587,24.0693 L 14.7517,23.9993 L 14.7517,25.1353 L 13.4737,24.9933 L 13.0097,26.2113 C 11.8217,23.4133 9.63968,22.3653 9.63968,22.3653 C 10.8997,21.3833 14.6317,20.4363 17.1217,21.8743 Z" transform=""/><path fill="#f4953f" stroke="none" d="M 26.7645,30.0144 C 27.4205,30.6074 31.0185,31.4634 33.2635,28.5554 C 34.7255,26.6614 31.3185,27.6414 30.5395,27.5324 C 29.7395,27.4184 29.1075,26.0214 27.6285,26.3714 C 26.0295,26.7504 25.3445,28.7294 26.7645,30.0144 Z" transform=""/><path fill="#f4dbc5" stroke="none" d="M 32.0212,4.84237 S 34.4852,4.99937 36.1982,5.98537 C 36.1382,3.11037 34.3782,0.00037401 34.3782,0.00037401 S 31.9082,2.00437 32.0212,4.84237 Z" transform=""/><ellipse cx="31.412246558656776" cy="17.42165855323887" rx="0.6691928664270917" ry="1.1119489817953403" fill="#304454" stroke="none" r="NaN" transform=""/><ellipse cx="37.692252744884556" cy="15.171743496612535" rx="0.5015333145792674" ry="1.1119489817953403" fill="#304454" stroke="none" transform="rotate(-10.5324 37.692252343774655 15.171744101263894)" r="NaN"/><path fill="#d78334" stroke="none" d="M 32.819,1.35236 S 32.912,1.10536 33.092,0.724357 C 32.859,0.908357 32.642,1.11236 32.437,1.32636 C 32.565,1.33536 32.691,1.33736 32.819,1.35236 Z" style="opacity: 0.5" opacity="0.5" transform=""/><path fill="#d78334" stroke="none" d="M 46.4009,16.0187 C 44.1279,18.0707 40.9349,20.4447 37.8259,21.6247 C 32.1769,23.7697 27.0649,24.6597 23.3399,21.6247 C 19.8079,18.7467 20.1669,8.93171 20.1669,8.93171 S 19.4309,7.43071 18.8359,5.57471 C 17.6709,5.21371 16.4589,4.98471 15.5989,5.20371 C 15.6679,8.23871 17.6679,12.3087 17.6679,12.3087 S 17.3089,22.1237 20.8409,25.0017 C 24.5669,28.0367 29.6779,27.1467 35.3279,25.0017 C 39.9839,23.2337 44.8429,18.7837 46.4869,16.7567 C 47.1879,15.8927 46.7269,15.9267 46.4009,16.0187 Z" style="opacity: 0.5" opacity="0.5" transform=""/><path fill="none" stroke="#414042" d="M 25.0508,25.8427 S 23.8538,26.4957 23.3088,27.3117" style="stroke-linecap: round;stroke-linejoin: round;stroke-width: 0.24089016070089697px" stroke-width="0.24089016070089697" stroke-linecap="round" stroke-linejoin="round" transform=""/><path fill="none" stroke="#414042" d="M 24.0169,25.5165 S 22.6559,25.8975 22.1669,26.3325" style="stroke-linecap: round;stroke-linejoin: round;stroke-width: 0.24089016070089697px" stroke-width="0.24089016070089697" stroke-linecap="round" stroke-linejoin="round" transform=""/><path fill="#f4dbc5" stroke="none" d="M 15.6575,5.34102 C 15.6395,5.38102 15.6255,5.42302 15.6095,5.46302 C 15.7795,8.46602 17.6675,12.309 17.6675,12.309 C 18.6215,10.24 20.8805,8.62702 20.8805,8.62702 C 19.4725,6.80802 15.6575,5.34102 15.6575,5.34102 Z" transform=""/><ellipse cx="46.15809788637367" cy="16.310191504306157" rx="1.3451306573538087" ry="1.138446899472439" fill="#304454" stroke="none" r="NaN" transform=""/><path fill="#d78334" stroke="none" d="M 76.9534,30.0144 C 77.6094,30.6074 81.2074,31.4634 83.4524,28.5554 C 84.9144,26.6614 81.5074,27.6414 80.7284,27.5324 C 79.9284,27.4184 79.2964,26.0214 77.8174,26.3714 C 76.2184,26.7504 75.5334,28.7294 76.9534,30.0144 Z" transform=""/><path fill="#d78334" stroke="none" d="M 80.3774,32.2749 S 81.3794,30.9769 81.7504,31.2729 C 81.9774,31.4549 81.6024,33.8339 81.2314,34.5759 C 80.8594,35.3179 79.4504,34.4279 79.4504,34.4279 L 80.3774,32.2749 Z" transform=""/><path fill="#f89c44" stroke="none" d="M 72.601,31.7257 S 67.761,30.1287 67.001,25.4167 C 66.062,19.5967 59.08,20.9467 57.259,22.3657 C 57.259,22.3657 61.089,24.2027 61.363,29.5177 C 61.588,33.9387 68.259,36.2767 71.973,32.6307 L 72.601,31.7257 Z" transform=""/><path fill="#f4953f" stroke="none" d="M 74.5112,26.4835 S 69.3582,31.8685 70.6052,35.0745 C 71.7242,37.9495 79.0552,38.3405 81.0422,37.9855 C 82.0312,37.8085 83.4572,32.5715 82.6752,32.3055 C 81.9732,32.0665 81.1132,33.3705 81.1132,33.3705 S 79.7142,26.2105 76.8742,25.9965 C 74.0352,25.7845 74.5112,26.4835 74.5112,26.4835 Z" transform=""/><path fill="url(#r-7257fc9cae93451f865806b0673d2f11)" stroke="none" d="M 81.1135,33.3705 S 79.7385,26.3405 76.9485,26.0085 L 77.2505,28.9095 S 79.0585,32.8985 81.1135,33.3705 Z" opacity="1" fill-opacity="1" style="opacity: 1;fill-opacity: 1" transform=""/><path fill="#d14e3f" stroke="none" d="M 77.3007,26.0879 C 76.4687,26.0199 75.4137,25.9229 74.6687,26.5909 C 73.4447,27.6879 73.7897,29.7539 75.6507,30.2039 C 76.1727,30.3309 78.2527,29.9279 79.6957,28.9049 C 79.0927,27.5899 78.2947,26.4169 77.3007,26.0879 Z" transform=""/><path fill="#fedcbd" stroke="none" d="M 77.2853,26.0865 C 77.1783,26.0775 77.0673,26.0695 76.9553,26.0605 L 77.2503,28.9095 S 77.4303,29.3045 77.7383,29.8605 C 78.3973,29.6435 79.0993,29.3275 79.6943,28.9055 C 79.0883,27.5855 78.2863,26.4075 77.2853,26.0865 Z" transform=""/><path fill="url(#r-21ddd5c539c443c28f4ea492d11624ff)" stroke="none" d="M 70.0466,7.06627 S 73.5646,4.44527 77.7726,4.92827 C 77.7726,4.92827 79.3756,0.897272 81.9976,0.000271974 C 81.9976,0.000271974 83.7576,3.11027 83.8166,5.98527 C 83.8166,5.98527 89.1546,13.0683 89.5686,16.5863 C 89.5686,16.5863 93.0176,16.5173 93.7756,16.1033 C 93.7756,16.1033 95.0926,15.5413 94.1056,16.7573 C 92.4606,18.7843 87.6026,23.2343 82.9466,25.0023 C 77.2966,27.1473 72.1856,28.0363 68.4596,25.0023 C 64.9276,22.1243 65.2866,12.3093 65.2866,12.3093 S 63.2866,8.23927 63.2176,5.20427 C 65.4476,4.63627 70.0466,7.06627 70.0466,7.06627 Z" opacity="1" fill-opacity="1" style="opacity: 1;fill-opacity: 1" transform=""/><path fill="#f89c44" stroke="none" d="M 70.0466,7.06627 S 73.7316,4.24627 77.9396,4.72827 C 77.9396,4.72827 79.3756,0.897272 81.9966,0.000271974 C 81.9966,0.000271974 83.7576,3.11027 83.8156,5.98527 C 83.8156,5.98527 89.1546,13.0683 89.5676,16.5863 C 89.5676,16.5863 93.0166,16.5173 93.7756,16.1033 C 93.7756,16.1033 95.0916,15.5413 94.1056,16.7573 C 92.4606,18.7843 87.6026,23.2343 82.9456,25.0023 C 77.2966,27.1473 72.1846,28.0363 68.4596,25.0023 C 64.9276,22.1243 65.2866,12.3093 65.2866,12.3093 S 63.2856,8.23927 63.2166,5.20427 C 65.4476,4.63627 70.0466,7.06627 70.0466,7.06627 Z" transform=""/><path fill="#f4dbc5" stroke="none" d="M 64.7407,21.8743 L 64.6427,23.1463 L 63.5777,22.9333 L 63.5777,24.0693 L 62.3707,23.9993 L 62.3707,25.1353 L 61.0927,24.9933 L 60.6287,26.2113 C 59.4407,23.4133 57.2587,22.3653 57.2587,22.3653 C 58.5187,21.3833 62.2507,20.4363 64.7407,21.8743 Z" transform=""/><path fill="#f4953f" stroke="none" d="M 74.3836,30.0144 C 75.0396,30.6074 78.6376,31.4634 80.8826,28.5554 C 82.3446,26.6614 78.9376,27.6414 78.1586,27.5324 C 77.3586,27.4184 76.7266,26.0214 75.2476,26.3714 C 73.6486,26.7504 72.9636,28.7294 74.3836,30.0144 Z" transform=""/><path fill="#f4dbc5" stroke="none" d="M 79.6403,4.84237 S 82.1043,4.99937 83.8173,5.98537 C 83.7573,3.11037 81.9973,0.00037401 81.9973,0.00037401 S 79.5273,2.00437 79.6403,4.84237 Z" transform=""/><ellipse cx="79.0312941777044" cy="17.42165855323887" rx="0.6691928664270917" ry="1.1119489817953403" fill="#304454" stroke="none" r="NaN" transform=""/><ellipse cx="85.31130036393218" cy="15.171743496612535" rx="0.5015333145792674" ry="1.1119489817953403" fill="#304454" stroke="none" transform="rotate(-10.5324 85.31129996282228 15.171744101263894)" r="NaN"/><path fill="#d78334" stroke="none" d="M 80.4381,1.35236 S 80.5311,1.10536 80.7111,0.724357 C 80.4781,0.908357 80.2611,1.11236 80.0561,1.32636 C 80.1841,1.33536 80.3101,1.33736 80.4381,1.35236 Z" style="opacity: 0.5" opacity="0.5" transform=""/><path fill="#d78334" stroke="none" d="M 94.02,16.0187 C 91.747,18.0707 88.554,20.4447 85.445,21.6247 C 79.796,23.7697 74.684,24.6597 70.959,21.6247 C 67.427,18.7467 67.786,8.93171 67.786,8.93171 S 67.05,7.43071 66.455,5.57471 C 65.29,5.21371 64.078,4.98471 63.218,5.20371 C 63.287,8.23871 65.287,12.3087 65.287,12.3087 S 64.928,22.1237 68.46,25.0017 C 72.186,28.0367 77.297,27.1467 82.947,25.0017 C 87.603,23.2337 92.462,18.7837 94.106,16.7567 C 94.807,15.8927 94.346,15.9267 94.02,16.0187 Z" style="opacity: 0.5" opacity="0.5" transform=""/><path fill="none" stroke="#414042" d="M 72.6699,25.8427 S 71.4729,26.4957 70.9279,27.3117" style="stroke-linecap: round;stroke-linejoin: round;stroke-width: 0.24089016070089697px" stroke-width="0.24089016070089697" stroke-linecap="round" stroke-linejoin="round" transform=""/><path fill="none" stroke="#414042" d="M 71.636,25.5165 S 70.275,25.8975 69.786,26.3325" style="stroke-linecap: round;stroke-linejoin: round;stroke-width: 0.24089016070089697px" stroke-width="0.24089016070089697" stroke-linecap="round" stroke-linejoin="round" transform=""/><path fill="#f4dbc5" stroke="none" d="M 63.2766,5.34102 C 63.2586,5.38102 63.2446,5.42302 63.2286,5.46302 C 63.3986,8.46602 65.2866,12.309 65.2866,12.309 C 66.2406,10.24 68.4996,8.62702 68.4996,8.62702 C 67.0916,6.80802 63.2766,5.34102 63.2766,5.34102 Z" transform=""/><ellipse cx="93.77714550542129" cy="16.310191504306157" rx="1.3451306573538087" ry="1.138446899472439" fill="#304454" stroke="none" r="NaN" transform=""/><path fill="#d78334" stroke="none" d="M 124.572,30.0144 C 125.228,30.6074 128.826,31.4634 131.071,28.5554 C 132.533,26.6614 129.126,27.6414 128.347,27.5324 C 127.547,27.4184 126.915,26.0214 125.436,26.3714 C 123.837,26.7504 123.152,28.7294 124.572,30.0144 Z" transform=""/><path fill="#d78334" stroke="none" d="M 127.996,32.2749 S 128.998,30.9769 129.369,31.2729 C 129.596,31.4549 129.221,33.8339 128.85,34.5759 C 128.478,35.3179 127.069,34.4279 127.069,34.4279 L 127.996,32.2749 Z" transform=""/><path fill="#f89c44" stroke="none" d="M 120.22,31.7257 S 115.38,30.1287 114.62,25.4167 C 113.681,19.5967 106.699,20.9467 104.878,22.3657 C 104.878,22.3657 108.708,24.2027 108.982,29.5177 C 109.207,33.9387 115.878,36.2767 119.592,32.6307 L 120.22,31.7257 Z" transform=""/><path fill="#f4953f" stroke="none" d="M 122.13,26.4835 S 116.977,31.8685 118.224,35.0745 C 119.343,37.9495 126.674,38.3405 128.661,37.9855 C 129.65,37.8085 131.076,32.5715 130.294,32.3055 C 129.592,32.0665 128.732,33.3705 128.732,33.3705 S 127.333,26.2105 124.493,25.9965 C 121.654,25.7845 122.13,26.4835 122.13,26.4835 Z" transform=""/><path fill="url(#r-8a02d477bedc4a81846c58f6c92c16dd)" stroke="none" d="M 128.733,33.3705 S 127.358,26.3405 124.568,26.0085 L 124.87,28.9095 S 126.678,32.8985 128.733,33.3705 Z" opacity="1" fill-opacity="1" style="opacity: 1;fill-opacity: 1" transform=""/><path fill="#d14e3f" stroke="none" d="M 124.92,26.0879 C 124.088,26.0199 123.033,25.9229 122.288,26.5909 C 121.064,27.6879 121.409,29.7539 123.27,30.2039 C 123.792,30.3309 125.872,29.9279 127.315,28.9049 C 126.712,27.5899 125.914,26.4169 124.92,26.0879 Z" transform=""/><path fill="#fedcbd" stroke="none" d="M 124.904,26.0865 C 124.797,26.0775 124.686,26.0695 124.574,26.0605 L 124.869,28.9095 S 125.049,29.3045 125.357,29.8605 C 126.016,29.6435 126.718,29.3275 127.313,28.9055 C 126.707,27.5855 125.905,26.4075 124.904,26.0865 Z" transform=""/><path fill="url(#r-16c68ee53e5942938615ea4ce6a7e301)" stroke="none" d="M 117.666,7.06627 S 121.184,4.44527 125.392,4.92827 C 125.392,4.92827 126.995,0.897272 129.617,0.000271974 C 129.617,0.000271974 131.377,3.11027 131.436,5.98527 C 131.436,5.98527 136.774,13.0683 137.188,16.5863 C 137.188,16.5863 140.637,16.5173 141.395,16.1033 C 141.395,16.1033 142.712,15.5413 141.725,16.7573 C 140.08,18.7843 135.222,23.2343 130.566,25.0023 C 124.916,27.1473 119.805,28.0363 116.079,25.0023 C 112.547,22.1243 112.906,12.3093 112.906,12.3093 S 110.906,8.23927 110.837,5.20427 C 113.067,4.63627 117.666,7.06627 117.666,7.06627 Z" opacity="1" fill-opacity="1" style="opacity: 1;fill-opacity: 1" transform=""/><path fill="#f89c44" stroke="none" d="M 117.666,7.06627 S 121.351,4.24627 125.559,4.72827 C 125.559,4.72827 126.995,0.897272 129.616,0.000271974 C 129.616,0.000271974 131.377,3.11027 131.435,5.98527 C 131.435,5.98527 136.774,13.0683 137.187,16.5863 C 137.187,16.5863 140.636,16.5173 141.395,16.1033 C 141.395,16.1033 142.711,15.5413 141.725,16.7573 C 140.08,18.7843 135.222,23.2343 130.565,25.0023 C 124.916,27.1473 119.804,28.0363 116.079,25.0023 C 112.547,22.1243 112.906,12.3093 112.906,12.3093 S 110.905,8.23927 110.836,5.20427 C 113.067,4.63627 117.666,7.06627 117.666,7.06627 Z" transform=""/><path fill="#f4dbc5" stroke="none" d="M 112.36,21.8743 L 112.262,23.1463 L 111.197,22.9333 L 111.197,24.0693 L 109.99,23.9993 L 109.99,25.1353 L 108.712,24.9933 L 108.248,26.2113 C 107.06,23.4133 104.878,22.3653 104.878,22.3653 C 106.138,21.3833 109.87,20.4363 112.36,21.8743 Z" transform=""/><path fill="#f4953f" stroke="none" d="M 122.003,30.0144 C 122.659,30.6074 126.257,31.4634 128.502,28.5554 C 129.964,26.6614 126.557,27.6414 125.778,27.5324 C 124.978,27.4184 124.346,26.0214 122.867,26.3714 C 121.268,26.7504 120.583,28.7294 122.003,30.0144 Z" transform=""/><path fill="#f4dbc5" stroke="none" d="M 127.259,4.84237 S 129.723,4.99937 131.436,5.98537 C 131.376,3.11037 129.616,0.00037401 129.616,0.00037401 S 127.146,2.00437 127.259,4.84237 Z" transform=""/><ellipse cx="126.65034179675202" cy="17.42165855323887" rx="0.6691928664270917" ry="1.1119489817953403" fill="#304454" stroke="none" r="NaN" transform=""/><ellipse cx="132.9303479829798" cy="15.171743496612535" rx="0.5015333145792674" ry="1.1119489817953403" fill="#304454" stroke="none" transform="rotate(-10.5324 132.93034758186988 15.171744101263894)" r="NaN"/><path fill="#d78334" stroke="none" d="M 128.057,1.35236 S 128.15,1.10536 128.33,0.724357 C 128.097,0.908357 127.88,1.11236 127.675,1.32636 C 127.803,1.33536 127.929,1.33736 128.057,1.35236 Z" style="opacity: 0.5" opacity="0.5" transform=""/><path fill="#d78334" stroke="none" d="M 141.639,16.0187 C 139.366,18.0707 136.173,20.4447 133.064,21.6247 C 127.415,23.7697 122.303,24.6597 118.578,21.6247 C 115.046,18.7467 115.405,8.93171 115.405,8.93171 S 114.669,7.43071 114.074,5.57471 C 112.909,5.21371 111.697,4.98471 110.837,5.20371 C 110.906,8.23871 112.906,12.3087 112.906,12.3087 S 112.547,22.1237 116.079,25.0017 C 119.805,28.0367 124.916,27.1467 130.566,25.0017 C 135.222,23.2337 140.081,18.7837 141.725,16.7567 C 142.426,15.8927 141.965,15.9267 141.639,16.0187 Z" style="opacity: 0.5" opacity="0.5" transform=""/><path fill="none" stroke="#414042" d="M 120.289,25.8427 S 119.092,26.4957 118.547,27.3117" style="stroke-linecap: round;stroke-linejoin: round;stroke-width: 0.24089016070089697px" stroke-width="0.24089016070089697" stroke-linecap="round" stroke-linejoin="round" transform=""/><path fill="none" stroke="#414042" d="M 119.255,25.5165 S 117.894,25.8975 117.405,26.3325" style="stroke-linecap: round;stroke-linejoin: round;stroke-width: 0.24089016070089697px" stroke-width="0.24089016070089697" stroke-linecap="round" stroke-linejoin="round" transform=""/><path fill="#f4dbc5" stroke="none" d="M 110.896,5.34102 C 110.878,5.38102 110.864,5.42302 110.848,5.46302 C 111.018,8.46602 112.906,12.309 112.906,12.309 C 113.86,10.24 116.119,8.62702 116.119,8.62702 C 114.711,6.80802 110.896,5.34102 110.896,5.34102 Z" transform=""/><ellipse cx="141.3961931244689" cy="16.310191504306157" rx="1.3451306573538087" ry="1.138446899472439" fill="#304454" stroke="none" r="NaN" transform=""/></svg>