<svg xmlns="http://www.w3.org/2000/svg" version="1.1" width="400" height="133.33333333333334" viewBox="0 0 400 133.33333333333334"><defs/><path fill="#bdcccc" stroke="none" d="M 43.2708,94.7895 C 42.2068,93.8255 39.8138,95.5265 39.8138,95.5265 S 40.4178,93.2245 39.2468,92.5225 C 38.1138,91.8415 38.1138,91.7845 37.3758,90.9355 C 37.3758,90.9355 36.3998,92.4605 37.0368,94.0535 C 37.3758,94.9025 37.8868,95.2995 38.6808,95.7535 C 38.6808,95.7535 38.6708,95.7645 38.6618,95.7755 C 38.6588,95.7785 38.6558,95.7825 38.6518,95.7865 C 38.6358,95.8045 38.6118,95.8295 38.5808,95.8605 C 38.5768,95.8645 38.5708,95.8695 38.5668,95.8735 C 38.5338,95.9045 38.4948,95.9405 38.4468,95.9805 C 38.4418,95.9845 38.4378,95.9885 38.4328,95.9925 C 38.3828,96.0345 38.3208,96.0815 38.2528,96.1295 C 38.2398,96.1395 38.2258,96.1485 38.2118,96.1585 C 38.1388,96.2095 38.0578,96.2625 37.9658,96.3175 C 37.9578,96.3225 37.9478,96.3265 37.9398,96.3315 C 37.8538,96.3815 37.7578,96.4325 37.6548,96.4835 C 37.6318,96.4955 37.6088,96.5075 37.5838,96.5195 C 37.4728,96.5715 37.3518,96.6245 37.2218,96.6755 C 37.1878,96.6895 37.1518,96.7025 37.1168,96.7155 C 36.9968,96.7595 36.8688,96.8025 36.7328,96.8445 C 36.3648,96.9565 35.9398,97.0555 35.4438,97.1245 C 35.4438,97.1245 39.5918,82.2195 24.5778,81.0085 C 14.8478,80.2235 11.9298,87.2545 11.6038,89.3265 C 10.8728,93.9685 11.7148,98.4155 12.3818,99.5685 L 12.3818,99.5685 C 12.3838,99.5725 12.3858,99.5765 12.3878,99.5805 C 14.1498,102.579 18.4048,104.656 23.8978,104.76 C 25.7108,104.794 29.6488,104.48 32.8948,103.386 C 33.2048,103.281 33.5048,103.165 33.7948,103.038 C 33.7998,103.036 33.8048,103.034 33.8098,103.031 C 34.0948,102.907 34.3698,102.773 34.6358,102.63 C 34.6438,102.626 34.6518,102.621 34.6588,102.617 C 34.9208,102.476 35.1738,102.328 35.4168,102.174 C 35.4248,102.169 35.4328,102.163 35.4408,102.158 C 35.6828,102.004 35.9158,101.844 36.1398,101.68 C 36.1468,101.675 36.1528,101.67 36.1598,101.665 C 36.3838,101.5 36.5988,101.331 36.8048,101.159 C 36.8078,101.157 36.8108,101.154 36.8128,101.152 C 37.3258,100.723 37.7798,100.282 38.1738,99.8555 L 38.1738,99.8555 C 38.1788,99.8515 38.1818,99.8465 38.1858,99.8425 C 38.2648,99.7575 38.3408,99.6735 38.4148,99.5895 C 38.4148,99.5895 38.4148,99.5895 38.4148,99.5885 C 39.4898,98.3705 40.0638,97.3375 40.1428,97.1895 C 40.1498,97.1775 40.1538,97.1695 40.1538,97.1695 S 43.9508,98.4745 45.8218,96.0935 C 45.8218,96.0935 44.4298,95.8405 43.2708,94.7895 Z" transform=""/><ellipse cx="23.91965871249193" cy="81.77493752387655" rx="0.49193904344539585" ry="0.22721461515839056" fill="#6e6f71" stroke="none" r="NaN" transform=""/><path fill="#688da7" stroke="none" d="M 37.8203,91.4464 C 37.7773,91.6324 37.7483,91.7344 37.7483,91.7344 C 37.8523,91.7204 37.9513,91.7034 38.0493,91.6874 C 37.9753,91.6144 37.9013,91.5374 37.8203,91.4464 Z" style="opacity: 0.1" opacity="0.1" transform=""/><path fill="#688da7" stroke="none" d="M 39.8135,95.5264 S 39.8625,95.3354 39.9055,95.0504 C 39.6605,95.2884 39.4005,95.5264 39.1195,95.7614 C 39.1165,95.7644 39.1145,95.7664 39.1115,95.7684 C 38.9055,95.9404 38.6905,96.1094 38.4665,96.2744 C 38.4595,96.2804 38.4525,96.2844 38.4465,96.2904 C 38.2225,96.4534 37.9895,96.6134 37.7475,96.7684 C 37.7395,96.7734 37.7315,96.7784 37.7235,96.7834 C 37.4805,96.9384 37.2275,97.0854 36.9655,97.2264 C 36.9575,97.2314 36.9495,97.2354 36.9425,97.2404 C 36.6765,97.3824 36.4015,97.5164 36.1165,97.6414 C 36.1115,97.6434 36.1065,97.6454 36.1015,97.6474 C 35.8115,97.7744 35.5115,97.8904 35.2015,97.9954 C 31.9565,99.0894 28.0175,99.4044 26.2045,99.3694 C 20.7105,99.2654 16.4565,97.1894 14.6945,94.1904 C 14.6925,94.1864 14.6905,94.1834 14.6885,94.1794 L 14.6885,94.1794 C 14.0705,93.1104 13.3035,89.2084 13.7765,84.9454 C 12.3585,86.6474 11.7425,88.4404 11.6035,89.3264 C 10.8725,93.9684 11.7145,98.4164 12.3815,99.5684 L 12.3815,99.5684 C 12.3835,99.5724 12.3855,99.5764 12.3875,99.5804 C 14.1495,102.578 18.4045,104.655 23.8975,104.759 C 25.7105,104.794 29.6485,104.479 32.8945,103.385 C 33.2045,103.28 33.5045,103.164 33.7945,103.037 C 33.7995,103.035 33.8045,103.033 33.8095,103.031 C 34.0945,102.906 34.3695,102.772 34.6345,102.63 C 34.6435,102.625 34.6505,102.621 34.6585,102.616 C 34.9205,102.475 35.1735,102.327 35.4165,102.173 C 35.4245,102.168 35.4325,102.163 35.4405,102.157 C 35.6825,102.003 35.9155,101.843 36.1395,101.679 C 36.1465,101.674 36.1525,101.669 36.1595,101.664 C 36.3835,101.499 36.5985,101.33 36.8045,101.158 C 36.8075,101.156 36.8105,101.153 36.8125,101.151 C 37.3255,100.722 37.7795,100.281 38.1735,99.8554 L 38.1735,99.8554 C 38.1785,99.8514 38.1815,99.8474 38.1855,99.8424 C 38.2645,99.7574 38.3405,99.6734 38.4135,99.5894 C 38.4135,99.5894 38.4145,99.5894 38.4145,99.5884 C 39.4895,98.3704 40.0635,97.3374 40.1425,97.1894 C 40.1495,97.1774 40.1535,97.1694 40.1535,97.1694 S 43.9505,98.4744 45.8215,96.0934 C 45.8215,96.0934 44.4295,95.8404 43.2705,94.7894 C 42.2075,93.8264 39.8135,95.5264 39.8135,95.5264 Z" style="opacity: 0.1" opacity="0.1" transform=""/><path fill="#808184" stroke="none" d="M 23.4739,81.8698 C 23.5519,81.9478 23.7209,82.0018 23.9199,82.0018 S 24.2879,81.9478 24.3659,81.8698 C 24.2879,81.7928 24.1189,81.7388 23.9199,81.7388 C 23.7209,81.7378 23.5519,81.7928 23.4739,81.8698 Z" transform=""/><ellipse cx="22.577066158286478" cy="98.3650535196386" rx="0.5402275385075206" ry="0.8976486314227118" fill="#304454" stroke="none" r="NaN" transform=""/><ellipse cx="14.384836567203735" cy="98.3650535196386" rx="0.5402275385075206" ry="0.8976486314227118" fill="#304454" stroke="none" r="NaN" transform=""/><path fill="#49bbd6" stroke="none" d="M 23.7205,81.3498 S 22.7515,75.0908 26.1165,73.2468 C 29.2295,71.5398 31.2025,74.4768 31.1935,75.3008 C 31.1875,75.8018 30.7585,76.1688 30.1005,75.6898 C 29.4415,75.2108 29.4565,73.7578 28.1985,73.5038 C 27.0225,73.2658 25.2765,73.5308 24.3205,76.3918 C 23.5115,78.8108 23.7205,81.3498 23.7205,81.3498 Z" transform=""/><path fill="#49bbd6" stroke="none" d="M 23.7205,74.9559 S 22.8065,72.2479 20.9875,72.0589 C 18.9325,71.8449 16.9785,73.4219 16.9675,74.6869 C 16.9615,75.3159 17.7645,75.4509 18.5735,74.5519 C 19.3815,73.6539 19.8085,72.5529 21.3475,72.7439 C 22.5385,72.8909 23.7205,74.9559 23.7205,74.9559 Z" transform=""/><path fill="#49bbd6" stroke="none" d="M 24.4094,72.9946 S 25.0164,71.2726 26.4234,70.2836 C 27.8314,69.2956 29.4534,69.3536 29.3684,70.0706 C 29.2874,70.7676 27.9274,70.3126 26.5944,71.0006 C 25.2304,71.7056 24.4094,72.9946 24.4094,72.9946 Z" transform=""/><path fill="#49bbd6" stroke="none" d="M 23.0763,71.9293 S 22.6713,69.9453 21.0693,69.2193 C 19.8123,68.6493 18.7273,68.7823 18.7253,69.3843 C 18.7243,69.9823 20.1423,69.6773 21.1293,70.0723 C 22.5653,70.6483 23.0763,71.9293 23.0763,71.9293 Z" transform=""/><path fill="#49bbd6" stroke="none" d="M 24.0641,71.1954 S 25.8621,66.7574 24.2221,66.6684 C 22.5831,66.5774 24.0641,71.1954 24.0641,71.1954 Z" transform=""/><path fill="#bdcccc" stroke="none" d="M 43.2708,28.1229 C 42.2068,27.1589 39.8138,28.8599 39.8138,28.8599 S 40.4178,26.5579 39.2468,25.8559 C 38.1138,25.1749 38.1138,25.1179 37.3758,24.2689 C 37.3758,24.2689 36.3998,25.7939 37.0368,27.3869 C 37.3758,28.2359 37.8868,28.6329 38.6808,29.0869 C 38.6808,29.0869 38.6708,29.0979 38.6618,29.1089 C 38.6588,29.1119 38.6558,29.1159 38.6518,29.1199 C 38.6358,29.1379 38.6118,29.1629 38.5808,29.1939 C 38.5768,29.1979 38.5708,29.2029 38.5668,29.2069 C 38.5338,29.2379 38.4948,29.2739 38.4468,29.3139 C 38.4418,29.3179 38.4378,29.3219 38.4328,29.3259 C 38.3828,29.3679 38.3208,29.4149 38.2528,29.4629 C 38.2398,29.4729 38.2258,29.4819 38.2118,29.4919 C 38.1388,29.5429 38.0578,29.5959 37.9658,29.6509 C 37.9578,29.6559 37.9478,29.6599 37.9398,29.6649 C 37.8538,29.7149 37.7578,29.7659 37.6548,29.8169 C 37.6318,29.8289 37.6088,29.8409 37.5838,29.8529 C 37.4728,29.9049 37.3518,29.9579 37.2218,30.0089 C 37.1878,30.0229 37.1518,30.0359 37.1168,30.0489 C 36.9968,30.0929 36.8688,30.1359 36.7328,30.1779 C 36.3648,30.2899 35.9398,30.3889 35.4438,30.4579 C 35.4438,30.4579 39.5918,15.5529 24.5778,14.3419 C 14.8478,13.5569 11.9298,20.5879 11.6038,22.6599 C 10.8728,27.3019 11.7148,31.7489 12.3818,32.9019 L 12.3818,32.9019 C 12.3838,32.9059 12.3858,32.9099 12.3878,32.9139 C 14.1498,35.9119 18.4048,37.9889 23.8978,38.0929 C 25.7108,38.1269 29.6488,37.8129 32.8948,36.7189 C 33.2048,36.6139 33.5048,36.4979 33.7948,36.3709 C 33.7998,36.3689 33.8048,36.3669 33.8098,36.3639 C 34.0948,36.2399 34.3698,36.1059 34.6358,35.9629 C 34.6438,35.9589 34.6518,35.9539 34.6588,35.9499 C 34.9208,35.8089 35.1738,35.6609 35.4168,35.5069 C 35.4248,35.5019 35.4328,35.4959 35.4408,35.4909 C 35.6828,35.3369 35.9158,35.1769 36.1398,35.0129 C 36.1468,35.0079 36.1528,35.0029 36.1598,34.9979 C 36.3838,34.8329 36.5988,34.6639 36.8048,34.4919 C 36.8078,34.4899 36.8108,34.4869 36.8128,34.4849 C 37.3258,34.0559 37.7798,33.6149 38.1738,33.1889 L 38.1738,33.1889 C 38.1788,33.1849 38.1818,33.1799 38.1858,33.1759 C 38.2648,33.0909 38.3408,33.0069 38.4148,32.9229 C 38.4148,32.9229 38.4148,32.9229 38.4148,32.9219 C 39.4898,31.7039 40.0638,30.6709 40.1428,30.5229 C 40.1498,30.5109 40.1538,30.5029 40.1538,30.5029 S 43.9508,31.8079 45.8218,29.4269 C 45.8218,29.4269 44.4298,29.1739 43.2708,28.1229 Z" transform=""/><ellipse cx="23.91965871249193" cy="15.108270857209893" rx="0.49193904344539585" ry="0.22721461515839056" fill="#6e6f71" stroke="none" r="NaN" transform=""/><path fill="#688da7" stroke="none" d="M 37.8203,24.7798 C 37.7773,24.9658 37.7483,25.0678 37.7483,25.0678 C 37.8523,25.0538 37.9513,25.0368 38.0493,25.0208 C 37.9753,24.9478 37.9013,24.8708 37.8203,24.7798 Z" style="opacity: 0.1" opacity="0.1" transform=""/><path fill="#688da7" stroke="none" d="M 39.8135,28.8597 S 39.8625,28.6687 39.9055,28.3837 C 39.6605,28.6217 39.4005,28.8597 39.1195,29.0947 C 39.1165,29.0977 39.1145,29.0997 39.1115,29.1017 C 38.9055,29.2737 38.6905,29.4427 38.4665,29.6077 C 38.4595,29.6137 38.4525,29.6177 38.4465,29.6237 C 38.2225,29.7867 37.9895,29.9467 37.7475,30.1017 C 37.7395,30.1067 37.7315,30.1117 37.7235,30.1167 C 37.4805,30.2717 37.2275,30.4187 36.9655,30.5597 C 36.9575,30.5647 36.9495,30.5687 36.9425,30.5737 C 36.6765,30.7157 36.4015,30.8497 36.1165,30.9747 C 36.1115,30.9767 36.1065,30.9787 36.1015,30.9807 C 35.8115,31.1077 35.5115,31.2237 35.2015,31.3287 C 31.9565,32.4227 28.0175,32.7377 26.2045,32.7027 C 20.7105,32.5987 16.4565,30.5227 14.6945,27.5237 C 14.6925,27.5197 14.6905,27.5167 14.6885,27.5127 L 14.6885,27.5127 C 14.0705,26.4437 13.3035,22.5417 13.7765,18.2787 C 12.3585,19.9807 11.7425,21.7737 11.6035,22.6597 C 10.8725,27.3017 11.7145,31.7497 12.3815,32.9017 L 12.3815,32.9017 C 12.3835,32.9057 12.3855,32.9097 12.3875,32.9137 C 14.1495,35.9117 18.4045,37.9887 23.8975,38.0927 C 25.7105,38.1277 29.6485,37.8127 32.8945,36.7187 C 33.2045,36.6137 33.5045,36.4977 33.7945,36.3707 C 33.7995,36.3687 33.8045,36.3667 33.8095,36.3647 C 34.0945,36.2397 34.3695,36.1057 34.6345,35.9637 C 34.6435,35.9587 34.6505,35.9547 34.6585,35.9497 C 34.9205,35.8087 35.1735,35.6607 35.4165,35.5067 C 35.4245,35.5017 35.4325,35.4967 35.4405,35.4907 C 35.6825,35.3367 35.9155,35.1767 36.1395,35.0127 C 36.1465,35.0077 36.1525,35.0027 36.1595,34.9977 C 36.3835,34.8327 36.5985,34.6637 36.8045,34.4917 C 36.8075,34.4897 36.8105,34.4867 36.8125,34.4847 C 37.3255,34.0557 37.7795,33.6147 38.1735,33.1887 L 38.1735,33.1887 C 38.1785,33.1847 38.1815,33.1807 38.1855,33.1757 C 38.2645,33.0907 38.3405,33.0067 38.4135,32.9227 C 38.4135,32.9227 38.4145,32.9227 38.4145,32.9217 C 39.4895,31.7037 40.0635,30.6707 40.1425,30.5227 C 40.1495,30.5107 40.1535,30.5027 40.1535,30.5027 S 43.9505,31.8077 45.8215,29.4267 C 45.8215,29.4267 44.4295,29.1737 43.2705,28.1227 C 42.2075,27.1597 39.8135,28.8597 39.8135,28.8597 Z" style="opacity: 0.1" opacity="0.1" transform=""/><path fill="#808184" stroke="none" d="M 23.4739,15.2031 C 23.5519,15.2811 23.7209,15.3351 23.9199,15.3351 S 24.2879,15.2811 24.3659,15.2031 C 24.2879,15.1261 24.1189,15.0721 23.9199,15.0721 C 23.7209,15.0711 23.5519,15.1261 23.4739,15.2031 Z" transform=""/><ellipse cx="22.577066158286478" cy="31.69838685297194" rx="0.5402275385075206" ry="0.8976486314227118" fill="#304454" stroke="none" r="NaN" transform=""/><ellipse cx="14.384836567203735" cy="31.69838685297194" rx="0.5402275385075206" ry="0.8976486314227118" fill="#304454" stroke="none" r="NaN" transform=""/><path fill="#49bbd6" stroke="none" d="M 23.7205,14.6832 S 22.7515,8.42416 26.1165,6.58016 C 29.2295,4.87316 31.2025,7.81016 31.1935,8.63416 C 31.1875,9.13516 30.7585,9.50216 30.1005,9.02316 C 29.4415,8.54416 29.4565,7.09116 28.1985,6.83716 C 27.0225,6.59916 25.2765,6.86416 24.3205,9.72516 C 23.5115,12.1442 23.7205,14.6832 23.7205,14.6832 Z" transform=""/><path fill="#49bbd6" stroke="none" d="M 23.7205,8.28925 S 22.8065,5.58125 20.9875,5.39225 C 18.9325,5.17825 16.9785,6.75525 16.9675,8.02025 C 16.9615,8.64925 17.7645,8.78425 18.5735,7.88525 C 19.3815,6.98725 19.8085,5.88625 21.3475,6.07725 C 22.5385,6.22425 23.7205,8.28925 23.7205,8.28925 Z" transform=""/><path fill="#49bbd6" stroke="none" d="M 24.4094,6.32796 S 25.0164,4.60596 26.4234,3.61696 C 27.8314,2.62896 29.4534,2.68696 29.3684,3.40396 C 29.2874,4.10096 27.9274,3.64596 26.5944,4.33396 C 25.2304,5.03896 24.4094,6.32796 24.4094,6.32796 Z" transform=""/><path fill="#49bbd6" stroke="none" d="M 23.0763,5.26259 S 22.6713,3.27859 21.0693,2.55259 C 19.8123,1.98259 18.7273,2.11559 18.7253,2.71759 C 18.7243,3.31559 20.1423,3.01059 21.1293,3.40559 C 22.5653,3.98159 23.0763,5.26259 23.0763,5.26259 Z" transform=""/><path fill="#49bbd6" stroke="none" d="M 24.0641,4.52878 S 25.8621,0.0907794 24.2221,0.00177944 C 22.5831,-0.0892206 24.0641,4.52878 24.0641,4.52878 Z" transform=""/><path fill="#bdcccc" stroke="none" d="M 90.8899,28.1229 C 89.8259,27.1589 87.4329,28.8599 87.4329,28.8599 S 88.0369,26.5579 86.8659,25.8559 C 85.7329,25.1749 85.7329,25.1179 84.9949,24.2689 C 84.9949,24.2689 84.0189,25.7939 84.6559,27.3869 C 84.9949,28.2359 85.5059,28.6329 86.2999,29.0869 C 86.2999,29.0869 86.2899,29.0979 86.2809,29.1089 C 86.2779,29.1119 86.2749,29.1159 86.2709,29.1199 C 86.2549,29.1379 86.2309,29.1629 86.1999,29.1939 C 86.1959,29.1979 86.1899,29.2029 86.1859,29.2069 C 86.1529,29.2379 86.1139,29.2739 86.0659,29.3139 C 86.0609,29.3179 86.0569,29.3219 86.0519,29.3259 C 86.0019,29.3679 85.9399,29.4149 85.8719,29.4629 C 85.8589,29.4729 85.8449,29.4819 85.8309,29.4919 C 85.7579,29.5429 85.6769,29.5959 85.5849,29.6509 C 85.5769,29.6559 85.5669,29.6599 85.5589,29.6649 C 85.4729,29.7149 85.3769,29.7659 85.2739,29.8169 C 85.2509,29.8289 85.2279,29.8409 85.2029,29.8529 C 85.0919,29.9049 84.9709,29.9579 84.8409,30.0089 C 84.8069,30.0229 84.7709,30.0359 84.7359,30.0489 C 84.6159,30.0929 84.4879,30.1359 84.3519,30.1779 C 83.9839,30.2899 83.5589,30.3889 83.0629,30.4579 C 83.0629,30.4579 87.2109,15.5529 72.1969,14.3419 C 62.4669,13.5569 59.5489,20.5879 59.2229,22.6599 C 58.4919,27.3019 59.3339,31.7489 60.0009,32.9019 L 60.0009,32.9019 C 60.0029,32.9059 60.0049,32.9099 60.0069,32.9139 C 61.7689,35.9119 66.0239,37.9889 71.5169,38.0929 C 73.3299,38.1269 77.2679,37.8129 80.5139,36.7189 C 80.8239,36.6139 81.1239,36.4979 81.4139,36.3709 C 81.4189,36.3689 81.4239,36.3669 81.4289,36.3639 C 81.7139,36.2399 81.9889,36.1059 82.2549,35.9629 C 82.2629,35.9589 82.2709,35.9539 82.2779,35.9499 C 82.5399,35.8089 82.7929,35.6609 83.0359,35.5069 C 83.0439,35.5019 83.0519,35.4959 83.0599,35.4909 C 83.3019,35.3369 83.5349,35.1769 83.7589,35.0129 C 83.7659,35.0079 83.7719,35.0029 83.7789,34.9979 C 84.0029,34.8329 84.2179,34.6639 84.4239,34.4919 C 84.4269,34.4899 84.4299,34.4869 84.4319,34.4849 C 84.9449,34.0559 85.3989,33.6149 85.7929,33.1889 L 85.7929,33.1889 C 85.7979,33.1849 85.8009,33.1799 85.8049,33.1759 C 85.8839,33.0909 85.9599,33.0069 86.0339,32.9229 C 86.0339,32.9229 86.0339,32.9229 86.0339,32.9219 C 87.1089,31.7039 87.6829,30.6709 87.7619,30.5229 C 87.7689,30.5109 87.7729,30.5029 87.7729,30.5029 S 91.5699,31.8079 93.4409,29.4269 C 93.4409,29.4269 92.0489,29.1739 90.8899,28.1229 Z" transform=""/><ellipse cx="71.53870633153954" cy="15.108270857209893" rx="0.49193904344539585" ry="0.22721461515839056" fill="#6e6f71" stroke="none" r="NaN" transform=""/><path fill="#688da7" stroke="none" d="M 85.4393,24.7798 C 85.3963,24.9658 85.3673,25.0678 85.3673,25.0678 C 85.4713,25.0538 85.5703,25.0368 85.6683,25.0208 C 85.5943,24.9478 85.5203,24.8708 85.4393,24.7798 Z" style="opacity: 0.1" opacity="0.1" transform=""/><path fill="#688da7" stroke="none" d="M 87.4325,28.8597 S 87.4815,28.6687 87.5245,28.3837 C 87.2795,28.6217 87.0195,28.8597 86.7385,29.0947 C 86.7355,29.0977 86.7335,29.0997 86.7305,29.1017 C 86.5245,29.2737 86.3095,29.4427 86.0855,29.6077 C 86.0785,29.6137 86.0715,29.6177 86.0655,29.6237 C 85.8415,29.7867 85.6085,29.9467 85.3665,30.1017 C 85.3585,30.1067 85.3505,30.1117 85.3425,30.1167 C 85.0995,30.2717 84.8465,30.4187 84.5845,30.5597 C 84.5765,30.5647 84.5685,30.5687 84.5615,30.5737 C 84.2955,30.7157 84.0205,30.8497 83.7355,30.9747 C 83.7305,30.9767 83.7255,30.9787 83.7205,30.9807 C 83.4305,31.1077 83.1305,31.2237 82.8205,31.3287 C 79.5755,32.4227 75.6365,32.7377 73.8235,32.7027 C 68.3295,32.5987 64.0755,30.5227 62.3135,27.5237 C 62.3115,27.5197 62.3095,27.5167 62.3075,27.5127 L 62.3075,27.5127 C 61.6895,26.4437 60.9225,22.5417 61.3955,18.2787 C 59.9775,19.9807 59.3615,21.7737 59.2225,22.6597 C 58.4915,27.3017 59.3335,31.7497 60.0005,32.9017 L 60.0005,32.9017 C 60.0025,32.9057 60.0045,32.9097 60.0065,32.9137 C 61.7685,35.9117 66.0235,37.9887 71.5165,38.0927 C 73.3295,38.1277 77.2675,37.8127 80.5135,36.7187 C 80.8235,36.6137 81.1235,36.4977 81.4135,36.3707 C 81.4185,36.3687 81.4235,36.3667 81.4285,36.3647 C 81.7135,36.2397 81.9885,36.1057 82.2535,35.9637 C 82.2625,35.9587 82.2695,35.9547 82.2775,35.9497 C 82.5395,35.8087 82.7925,35.6607 83.0355,35.5067 C 83.0435,35.5017 83.0515,35.4967 83.0595,35.4907 C 83.3015,35.3367 83.5345,35.1767 83.7585,35.0127 C 83.7655,35.0077 83.7715,35.0027 83.7785,34.9977 C 84.0025,34.8327 84.2175,34.6637 84.4235,34.4917 C 84.4265,34.4897 84.4295,34.4867 84.4315,34.4847 C 84.9445,34.0557 85.3985,33.6147 85.7925,33.1887 L 85.7925,33.1887 C 85.7975,33.1847 85.8005,33.1807 85.8045,33.1757 C 85.8835,33.0907 85.9595,33.0067 86.0325,32.9227 C 86.0325,32.9227 86.0335,32.9227 86.0335,32.9217 C 87.1085,31.7037 87.6825,30.6707 87.7615,30.5227 C 87.7685,30.5107 87.7725,30.5027 87.7725,30.5027 S 91.5695,31.8077 93.4405,29.4267 C 93.4405,29.4267 92.0485,29.1737 90.8895,28.1227 C 89.8265,27.1597 87.4325,28.8597 87.4325,28.8597 Z" style="opacity: 0.1" opacity="0.1" transform=""/><path fill="#808184" stroke="none" d="M 71.0929,15.2031 C 71.1709,15.2811 71.3399,15.3351 71.5389,15.3351 S 71.9069,15.2811 71.9849,15.2031 C 71.9069,15.1261 71.7379,15.0721 71.5389,15.0721 C 71.3399,15.0711 71.1709,15.1261 71.0929,15.2031 Z" transform=""/><ellipse cx="70.19611377733409" cy="31.69838685297194" rx="0.5402275385075206" ry="0.8976486314227118" fill="#304454" stroke="none" r="NaN" transform=""/><ellipse cx="62.00388418625135" cy="31.69838685297194" rx="0.5402275385075206" ry="0.8976486314227118" fill="#304454" stroke="none" r="NaN" transform=""/><path fill="#49bbd6" stroke="none" d="M 71.3395,14.6832 S 70.3705,8.42416 73.7355,6.58016 C 76.8485,4.87316 78.8215,7.81016 78.8125,8.63416 C 78.8065,9.13516 78.3775,9.50216 77.7195,9.02316 C 77.0605,8.54416 77.0755,7.09116 75.8175,6.83716 C 74.6415,6.59916 72.8955,6.86416 71.9395,9.72516 C 71.1305,12.1442 71.3395,14.6832 71.3395,14.6832 Z" transform=""/><path fill="#49bbd6" stroke="none" d="M 71.3395,8.28925 S 70.4255,5.58125 68.6065,5.39225 C 66.5515,5.17825 64.5975,6.75525 64.5865,8.02025 C 64.5805,8.64925 65.3835,8.78425 66.1925,7.88525 C 67.0005,6.98725 67.4275,5.88625 68.9665,6.07725 C 70.1575,6.22425 71.3395,8.28925 71.3395,8.28925 Z" transform=""/><path fill="#49bbd6" stroke="none" d="M 72.0285,6.32796 S 72.6355,4.60596 74.0425,3.61696 C 75.4505,2.62896 77.0725,2.68696 76.9875,3.40396 C 76.9065,4.10096 75.5465,3.64596 74.2135,4.33396 C 72.8495,5.03896 72.0285,6.32796 72.0285,6.32796 Z" transform=""/><path fill="#49bbd6" stroke="none" d="M 70.6954,5.26259 S 70.2904,3.27859 68.6884,2.55259 C 67.4314,1.98259 66.3464,2.11559 66.3444,2.71759 C 66.3434,3.31559 67.7614,3.01059 68.7484,3.40559 C 70.1844,3.98159 70.6954,5.26259 70.6954,5.26259 Z" transform=""/><path fill="#49bbd6" stroke="none" d="M 71.6831,4.52878 S 73.4811,0.0907794 71.8411,0.00177944 C 70.2021,-0.0892206 71.6831,4.52878 71.6831,4.52878 Z" transform=""/><path fill="#bdcccc" stroke="none" d="M 138.509,28.1229 C 137.445,27.1589 135.052,28.8599 135.052,28.8599 S 135.656,26.5579 134.485,25.8559 C 133.352,25.1749 133.352,25.1179 132.614,24.2689 C 132.614,24.2689 131.638,25.7939 132.275,27.3869 C 132.614,28.2359 133.125,28.6329 133.919,29.0869 C 133.919,29.0869 133.909,29.0979 133.9,29.1089 C 133.897,29.1119 133.894,29.1159 133.89,29.1199 C 133.874,29.1379 133.85,29.1629 133.819,29.1939 C 133.815,29.1979 133.809,29.2029 133.805,29.2069 C 133.772,29.2379 133.733,29.2739 133.685,29.3139 C 133.68,29.3179 133.676,29.3219 133.671,29.3259 C 133.621,29.3679 133.559,29.4149 133.491,29.4629 C 133.478,29.4729 133.464,29.4819 133.45,29.4919 C 133.377,29.5429 133.296,29.5959 133.204,29.6509 C 133.196,29.6559 133.186,29.6599 133.178,29.6649 C 133.092,29.7149 132.996,29.7659 132.893,29.8169 C 132.87,29.8289 132.847,29.8409 132.822,29.8529 C 132.711,29.9049 132.59,29.9579 132.46,30.0089 C 132.426,30.0229 132.39,30.0359 132.355,30.0489 C 132.235,30.0929 132.107,30.1359 131.971,30.1779 C 131.603,30.2899 131.178,30.3889 130.682,30.4579 C 130.682,30.4579 134.83,15.5529 119.816,14.3419 C 110.086,13.5569 107.168,20.5879 106.842,22.6599 C 106.111,27.3019 106.953,31.7489 107.62,32.9019 L 107.62,32.9019 C 107.622,32.9059 107.624,32.9099 107.626,32.9139 C 109.388,35.9119 113.643,37.9889 119.136,38.0929 C 120.949,38.1269 124.887,37.8129 128.133,36.7189 C 128.443,36.6139 128.743,36.4979 129.033,36.3709 C 129.038,36.3689 129.043,36.3669 129.048,36.3639 C 129.333,36.2399 129.608,36.1059 129.874,35.9629 C 129.882,35.9589 129.89,35.9539 129.897,35.9499 C 130.159,35.8089 130.412,35.6609 130.655,35.5069 C 130.663,35.5019 130.671,35.4959 130.679,35.4909 C 130.921,35.3369 131.154,35.1769 131.378,35.0129 C 131.385,35.0079 131.391,35.0029 131.398,34.9979 C 131.622,34.8329 131.837,34.6639 132.043,34.4919 C 132.046,34.4899 132.049,34.4869 132.051,34.4849 C 132.564,34.0559 133.018,33.6149 133.412,33.1889 L 133.412,33.1889 C 133.417,33.1849 133.42,33.1799 133.424,33.1759 C 133.503,33.0909 133.579,33.0069 133.653,32.9229 C 133.653,32.9229 133.653,32.9229 133.653,32.9219 C 134.728,31.7039 135.302,30.6709 135.381,30.5229 C 135.388,30.5109 135.392,30.5029 135.392,30.5029 S 139.189,31.8079 141.06,29.4269 C 141.06,29.4269 139.668,29.1739 138.509,28.1229 Z" transform=""/><ellipse cx="119.15775395058716" cy="15.108270857209893" rx="0.49193904344539585" ry="0.22721461515839056" fill="#6e6f71" stroke="none" r="NaN" transform=""/><path fill="#688da7" stroke="none" d="M 133.058,24.7798 C 133.015,24.9658 132.986,25.0678 132.986,25.0678 C 133.09,25.0538 133.189,25.0368 133.287,25.0208 C 133.213,24.9478 133.139,24.8708 133.058,24.7798 Z" style="opacity: 0.1" opacity="0.1" transform=""/><path fill="#688da7" stroke="none" d="M 135.052,28.8597 S 135.101,28.6687 135.144,28.3837 C 134.899,28.6217 134.639,28.8597 134.358,29.0947 C 134.355,29.0977 134.353,29.0997 134.35,29.1017 C 134.144,29.2737 133.929,29.4427 133.705,29.6077 C 133.698,29.6137 133.691,29.6177 133.685,29.6237 C 133.461,29.7867 133.228,29.9467 132.986,30.1017 C 132.978,30.1067 132.97,30.1117 132.962,30.1167 C 132.719,30.2717 132.466,30.4187 132.204,30.5597 C 132.196,30.5647 132.188,30.5687 132.181,30.5737 C 131.915,30.7157 131.64,30.8497 131.355,30.9747 C 131.35,30.9767 131.345,30.9787 131.34,30.9807 C 131.05,31.1077 130.75,31.2237 130.44,31.3287 C 127.195,32.4227 123.256,32.7377 121.443,32.7027 C 115.949,32.5987 111.695,30.5227 109.933,27.5237 C 109.931,27.5197 109.929,27.5167 109.927,27.5127 L 109.927,27.5127 C 109.309,26.4437 108.542,22.5417 109.015,18.2787 C 107.597,19.9807 106.981,21.7737 106.842,22.6597 C 106.111,27.3017 106.953,31.7497 107.62,32.9017 L 107.62,32.9017 C 107.622,32.9057 107.624,32.9097 107.626,32.9137 C 109.388,35.9117 113.643,37.9887 119.136,38.0927 C 120.949,38.1277 124.887,37.8127 128.133,36.7187 C 128.443,36.6137 128.743,36.4977 129.033,36.3707 C 129.038,36.3687 129.043,36.3667 129.048,36.3647 C 129.333,36.2397 129.608,36.1057 129.873,35.9637 C 129.882,35.9587 129.889,35.9547 129.897,35.9497 C 130.159,35.8087 130.412,35.6607 130.655,35.5067 C 130.663,35.5017 130.671,35.4967 130.679,35.4907 C 130.921,35.3367 131.154,35.1767 131.378,35.0127 C 131.385,35.0077 131.391,35.0027 131.398,34.9977 C 131.622,34.8327 131.837,34.6637 132.043,34.4917 C 132.046,34.4897 132.049,34.4867 132.051,34.4847 C 132.564,34.0557 133.018,33.6147 133.412,33.1887 L 133.412,33.1887 C 133.417,33.1847 133.42,33.1807 133.424,33.1757 C 133.503,33.0907 133.579,33.0067 133.652,32.9227 C 133.652,32.9227 133.653,32.9227 133.653,32.9217 C 134.728,31.7037 135.302,30.6707 135.381,30.5227 C 135.388,30.5107 135.392,30.5027 135.392,30.5027 S 139.189,31.8077 141.06,29.4267 C 141.06,29.4267 139.668,29.1737 138.509,28.1227 C 137.446,27.1597 135.052,28.8597 135.052,28.8597 Z" style="opacity: 0.1" opacity="0.1" transform=""/><path fill="#808184" stroke="none" d="M 118.712,15.2031 C 118.79,15.2811 118.959,15.3351 119.158,15.3351 S 119.526,15.2811 119.604,15.2031 C 119.526,15.1261 119.357,15.0721 119.158,15.0721 C 118.959,15.0711 118.79,15.1261 118.712,15.2031 Z" transform=""/><ellipse cx="117.81516139638171" cy="31.69838685297194" rx="0.5402275385075206" ry="0.8976486314227118" fill="#304454" stroke="none" r="NaN" transform=""/><ellipse cx="109.62293180529898" cy="31.69838685297194" rx="0.5402275385075206" ry="0.8976486314227118" fill="#304454" stroke="none" r="NaN" transform=""/><path fill="#49bbd6" stroke="none" d="M 118.959,14.6832 S 117.99,8.42416 121.355,6.58016 C 124.468,4.87316 126.441,7.81016 126.432,8.63416 C 126.426,9.13516 125.997,9.50216 125.339,9.02316 C 124.68,8.54416 124.695,7.09116 123.437,6.83716 C 122.261,6.59916 120.515,6.86416 119.559,9.72516 C 118.75,12.1442 118.959,14.6832 118.959,14.6832 Z" transform=""/><path fill="#49bbd6" stroke="none" d="M 118.959,8.28925 S 118.045,5.58125 116.226,5.39225 C 114.171,5.17825 112.217,6.75525 112.206,8.02025 C 112.2,8.64925 113.003,8.78425 113.812,7.88525 C 114.62,6.98725 115.047,5.88625 116.586,6.07725 C 117.777,6.22425 118.959,8.28925 118.959,8.28925 Z" transform=""/><path fill="#49bbd6" stroke="none" d="M 119.648,6.32796 S 120.255,4.60596 121.662,3.61696 C 123.07,2.62896 124.692,2.68696 124.607,3.40396 C 124.526,4.10096 123.166,3.64596 121.833,4.33396 C 120.469,5.03896 119.648,6.32796 119.648,6.32796 Z" transform=""/><path fill="#49bbd6" stroke="none" d="M 118.314,5.26259 S 117.909,3.27859 116.307,2.55259 C 115.05,1.98259 113.965,2.11559 113.963,2.71759 C 113.962,3.31559 115.38,3.01059 116.367,3.40559 C 117.803,3.98159 118.314,5.26259 118.314,5.26259 Z" transform=""/><path fill="#49bbd6" stroke="none" d="M 119.302,4.52878 S 121.1,0.0907794 119.46,0.00177944 C 117.821,-0.0892206 119.302,4.52878 119.302,4.52878 Z" transform=""/><path fill="#bdcccc" stroke="none" d="M 186.128,28.1229 C 185.064,27.1589 182.671,28.8599 182.671,28.8599 S 183.275,26.5579 182.104,25.8559 C 180.971,25.1749 180.971,25.1179 180.233,24.2689 C 180.233,24.2689 179.257,25.7939 179.894,27.3869 C 180.233,28.2359 180.744,28.6329 181.538,29.0869 C 181.538,29.0869 181.528,29.0979 181.519,29.1089 C 181.516,29.1119 181.513,29.1159 181.509,29.1199 C 181.493,29.1379 181.469,29.1629 181.438,29.1939 C 181.434,29.1979 181.428,29.2029 181.424,29.2069 C 181.391,29.2379 181.352,29.2739 181.304,29.3139 C 181.299,29.3179 181.295,29.3219 181.29,29.3259 C 181.24,29.3679 181.178,29.4149 181.11,29.4629 C 181.097,29.4729 181.083,29.4819 181.069,29.4919 C 180.996,29.5429 180.915,29.5959 180.823,29.6509 C 180.815,29.6559 180.805,29.6599 180.797,29.6649 C 180.711,29.7149 180.615,29.7659 180.512,29.8169 C 180.489,29.8289 180.466,29.8409 180.441,29.8529 C 180.33,29.9049 180.209,29.9579 180.079,30.0089 C 180.045,30.0229 180.009,30.0359 179.974,30.0489 C 179.854,30.0929 179.726,30.1359 179.59,30.1779 C 179.222,30.2899 178.797,30.3889 178.301,30.4579 C 178.301,30.4579 182.449,15.5529 167.435,14.3419 C 157.705,13.5569 154.787,20.5879 154.461,22.6599 C 153.73,27.3019 154.572,31.7489 155.239,32.9019 L 155.239,32.9019 C 155.241,32.9059 155.243,32.9099 155.245,32.9139 C 157.007,35.9119 161.262,37.9889 166.755,38.0929 C 168.568,38.1269 172.506,37.8129 175.752,36.7189 C 176.062,36.6139 176.362,36.4979 176.652,36.3709 C 176.657,36.3689 176.662,36.3669 176.667,36.3639 C 176.952,36.2399 177.227,36.1059 177.493,35.9629 C 177.501,35.9589 177.509,35.9539 177.516,35.9499 C 177.778,35.8089 178.031,35.6609 178.274,35.5069 C 178.282,35.5019 178.29,35.4959 178.298,35.4909 C 178.54,35.3369 178.773,35.1769 178.997,35.0129 C 179.004,35.0079 179.01,35.0029 179.017,34.9979 C 179.241,34.8329 179.456,34.6639 179.662,34.4919 C 179.665,34.4899 179.668,34.4869 179.67,34.4849 C 180.183,34.0559 180.637,33.6149 181.031,33.1889 L 181.031,33.1889 C 181.036,33.1849 181.039,33.1799 181.043,33.1759 C 181.122,33.0909 181.198,33.0069 181.272,32.9229 C 181.272,32.9229 181.272,32.9229 181.272,32.9219 C 182.347,31.7039 182.921,30.6709 183,30.5229 C 183.007,30.5109 183.011,30.5029 183.011,30.5029 S 186.808,31.8079 188.679,29.4269 C 188.679,29.4269 187.287,29.1739 186.128,28.1229 Z" transform=""/><ellipse cx="166.77680156963478" cy="15.108270857209893" rx="0.49193904344539585" ry="0.22721461515839056" fill="#6e6f71" stroke="none" r="NaN" transform=""/><path fill="#688da7" stroke="none" d="M 180.677,24.7798 C 180.634,24.9658 180.605,25.0678 180.605,25.0678 C 180.709,25.0538 180.808,25.0368 180.906,25.0208 C 180.832,24.9478 180.758,24.8708 180.677,24.7798 Z" style="opacity: 0.1" opacity="0.1" transform=""/><path fill="#688da7" stroke="none" d="M 182.671,28.8597 S 182.72,28.6687 182.763,28.3837 C 182.518,28.6217 182.258,28.8597 181.977,29.0947 C 181.974,29.0977 181.972,29.0997 181.969,29.1017 C 181.763,29.2737 181.548,29.4427 181.324,29.6077 C 181.317,29.6137 181.31,29.6177 181.304,29.6237 C 181.08,29.7867 180.847,29.9467 180.605,30.1017 C 180.597,30.1067 180.589,30.1117 180.581,30.1167 C 180.338,30.2717 180.085,30.4187 179.823,30.5597 C 179.815,30.5647 179.807,30.5687 179.8,30.5737 C 179.534,30.7157 179.259,30.8497 178.974,30.9747 C 178.969,30.9767 178.964,30.9787 178.959,30.9807 C 178.669,31.1077 178.369,31.2237 178.059,31.3287 C 174.814,32.4227 170.875,32.7377 169.062,32.7027 C 163.568,32.5987 159.314,30.5227 157.552,27.5237 C 157.55,27.5197 157.548,27.5167 157.546,27.5127 L 157.546,27.5127 C 156.928,26.4437 156.161,22.5417 156.634,18.2787 C 155.216,19.9807 154.6,21.7737 154.461,22.6597 C 153.73,27.3017 154.572,31.7497 155.239,32.9017 L 155.239,32.9017 C 155.241,32.9057 155.243,32.9097 155.245,32.9137 C 157.007,35.9117 161.262,37.9887 166.755,38.0927 C 168.568,38.1277 172.506,37.8127 175.752,36.7187 C 176.062,36.6137 176.362,36.4977 176.652,36.3707 C 176.657,36.3687 176.662,36.3667 176.667,36.3647 C 176.952,36.2397 177.227,36.1057 177.492,35.9637 C 177.501,35.9587 177.508,35.9547 177.516,35.9497 C 177.778,35.8087 178.031,35.6607 178.274,35.5067 C 178.282,35.5017 178.29,35.4967 178.298,35.4907 C 178.54,35.3367 178.773,35.1767 178.997,35.0127 C 179.004,35.0077 179.01,35.0027 179.017,34.9977 C 179.241,34.8327 179.456,34.6637 179.662,34.4917 C 179.665,34.4897 179.668,34.4867 179.67,34.4847 C 180.183,34.0557 180.637,33.6147 181.031,33.1887 L 181.031,33.1887 C 181.036,33.1847 181.039,33.1807 181.043,33.1757 C 181.122,33.0907 181.198,33.0067 181.271,32.9227 C 181.271,32.9227 181.272,32.9227 181.272,32.9217 C 182.347,31.7037 182.921,30.6707 183,30.5227 C 183.007,30.5107 183.011,30.5027 183.011,30.5027 S 186.808,31.8077 188.679,29.4267 C 188.679,29.4267 187.287,29.1737 186.128,28.1227 C 185.065,27.1597 182.671,28.8597 182.671,28.8597 Z" style="opacity: 0.1" opacity="0.1" transform=""/><path fill="#808184" stroke="none" d="M 166.331,15.2031 C 166.409,15.2811 166.578,15.3351 166.777,15.3351 C 166.976,15.3351 167.145,15.2811 167.223,15.2031 C 167.145,15.1261 166.976,15.0721 166.777,15.0721 C 166.578,15.0711 166.409,15.1261 166.331,15.2031 Z" transform=""/><ellipse cx="165.43420901542933" cy="31.69838685297194" rx="0.5402275385075206" ry="0.8976486314227118" fill="#304454" stroke="none" r="NaN" transform=""/><ellipse cx="157.24197942434657" cy="31.69838685297194" rx="0.5402275385075206" ry="0.8976486314227118" fill="#304454" stroke="none" r="NaN" transform=""/><path fill="#49bbd6" stroke="none" d="M 166.578,14.6832 S 165.609,8.42416 168.974,6.58016 C 172.087,4.87316 174.06,7.81016 174.051,8.63416 C 174.045,9.13516 173.616,9.50216 172.958,9.02316 C 172.299,8.54416 172.314,7.09116 171.056,6.83716 C 169.88,6.59916 168.134,6.86416 167.178,9.72516 C 166.369,12.1442 166.578,14.6832 166.578,14.6832 Z" transform=""/><path fill="#49bbd6" stroke="none" d="M 166.578,8.28925 S 165.664,5.58125 163.845,5.39225 C 161.79,5.17825 159.836,6.75525 159.825,8.02025 C 159.819,8.64925 160.622,8.78425 161.431,7.88525 C 162.239,6.98725 162.666,5.88625 164.205,6.07725 C 165.396,6.22425 166.578,8.28925 166.578,8.28925 Z" transform=""/><path fill="#49bbd6" stroke="none" d="M 167.267,6.32796 S 167.874,4.60596 169.281,3.61696 C 170.689,2.62896 172.311,2.68696 172.226,3.40396 C 172.145,4.10096 170.785,3.64596 169.452,4.33396 C 168.088,5.03896 167.267,6.32796 167.267,6.32796 Z" transform=""/><path fill="#49bbd6" stroke="none" d="M 165.933,5.26259 S 165.528,3.27859 163.926,2.55259 C 162.669,1.98259 161.584,2.11559 161.582,2.71759 C 161.581,3.31559 162.999,3.01059 163.986,3.40559 C 165.422,3.98159 165.933,5.26259 165.933,5.26259 Z" transform=""/><path fill="#49bbd6" stroke="none" d="M 166.921,4.52878 S 168.719,0.0907794 167.079,0.00177944 C 165.44,-0.0892206 166.921,4.52878 166.921,4.52878 Z" transform=""/><path fill="#bdcccc" stroke="none" d="M 233.747,28.1229 C 232.683,27.1589 230.29,28.8599 230.29,28.8599 S 230.894,26.5579 229.723,25.8559 C 228.59,25.1749 228.59,25.1179 227.852,24.2689 C 227.852,24.2689 226.876,25.7939 227.513,27.3869 C 227.852,28.2359 228.363,28.6329 229.157,29.0869 C 229.157,29.0869 229.147,29.0979 229.138,29.1089 C 229.135,29.1119 229.132,29.1159 229.128,29.1199 C 229.112,29.1379 229.088,29.1629 229.057,29.1939 C 229.053,29.1979 229.047,29.2029 229.043,29.2069 C 229.01,29.2379 228.971,29.2739 228.923,29.3139 C 228.918,29.3179 228.914,29.3219 228.909,29.3259 C 228.859,29.3679 228.797,29.4149 228.729,29.4629 C 228.716,29.4729 228.702,29.4819 228.688,29.4919 C 228.615,29.5429 228.534,29.5959 228.442,29.6509 C 228.434,29.6559 228.424,29.6599 228.416,29.6649 C 228.33,29.7149 228.234,29.7659 228.131,29.8169 C 228.108,29.8289 228.085,29.8409 228.06,29.8529 C 227.949,29.9049 227.828,29.9579 227.698,30.0089 C 227.664,30.0229 227.628,30.0359 227.593,30.0489 C 227.473,30.0929 227.345,30.1359 227.209,30.1779 C 226.841,30.2899 226.416,30.3889 225.92,30.4579 C 225.92,30.4579 230.068,15.5529 215.054,14.3419 C 205.324,13.5569 202.406,20.5879 202.08,22.6599 C 201.349,27.3019 202.191,31.7489 202.858,32.9019 L 202.858,32.9019 C 202.86,32.9059 202.862,32.9099 202.864,32.9139 C 204.626,35.9119 208.881,37.9889 214.374,38.0929 C 216.187,38.1269 220.125,37.8129 223.371,36.7189 C 223.681,36.6139 223.981,36.4979 224.271,36.3709 C 224.276,36.3689 224.281,36.3669 224.286,36.3639 C 224.571,36.2399 224.846,36.1059 225.112,35.9629 C 225.12,35.9589 225.128,35.9539 225.135,35.9499 C 225.397,35.8089 225.65,35.6609 225.893,35.5069 C 225.901,35.5019 225.909,35.4959 225.917,35.4909 C 226.159,35.3369 226.392,35.1769 226.616,35.0129 C 226.623,35.0079 226.629,35.0029 226.636,34.9979 C 226.86,34.8329 227.075,34.6639 227.281,34.4919 C 227.284,34.4899 227.287,34.4869 227.289,34.4849 C 227.802,34.0559 228.256,33.6149 228.65,33.1889 L 228.65,33.1889 C 228.655,33.1849 228.658,33.1799 228.662,33.1759 C 228.741,33.0909 228.817,33.0069 228.891,32.9229 C 228.891,32.9229 228.891,32.9229 228.891,32.9219 C 229.966,31.7039 230.54,30.6709 230.619,30.5229 C 230.626,30.5109 230.63,30.5029 230.63,30.5029 S 234.427,31.8079 236.298,29.4269 C 236.298,29.4269 234.906,29.1739 233.747,28.1229 Z" transform=""/><ellipse cx="214.3958491886824" cy="15.108270857209893" rx="0.49193904344539585" ry="0.22721461515839056" fill="#6e6f71" stroke="none" r="NaN" transform=""/><path fill="#688da7" stroke="none" d="M 228.296,24.7798 C 228.253,24.9658 228.224,25.0678 228.224,25.0678 C 228.328,25.0538 228.427,25.0368 228.525,25.0208 C 228.451,24.9478 228.377,24.8708 228.296,24.7798 Z" style="opacity: 0.1" opacity="0.1" transform=""/><path fill="#688da7" stroke="none" d="M 230.29,28.8597 S 230.339,28.6687 230.382,28.3837 C 230.137,28.6217 229.877,28.8597 229.596,29.0947 C 229.593,29.0977 229.591,29.0997 229.588,29.1017 C 229.382,29.2737 229.167,29.4427 228.943,29.6077 C 228.936,29.6137 228.929,29.6177 228.923,29.6237 C 228.699,29.7867 228.466,29.9467 228.224,30.1017 C 228.216,30.1067 228.208,30.1117 228.2,30.1167 C 227.957,30.2717 227.704,30.4187 227.442,30.5597 C 227.434,30.5647 227.426,30.5687 227.419,30.5737 C 227.153,30.7157 226.878,30.8497 226.593,30.9747 C 226.588,30.9767 226.583,30.9787 226.578,30.9807 C 226.288,31.1077 225.988,31.2237 225.678,31.3287 C 222.433,32.4227 218.494,32.7377 216.681,32.7027 C 211.187,32.5987 206.933,30.5227 205.171,27.5237 C 205.169,27.5197 205.167,27.5167 205.165,27.5127 L 205.165,27.5127 C 204.547,26.4437 203.78,22.5417 204.253,18.2787 C 202.835,19.9807 202.219,21.7737 202.08,22.6597 C 201.349,27.3017 202.191,31.7497 202.858,32.9017 L 202.858,32.9017 C 202.86,32.9057 202.862,32.9097 202.864,32.9137 C 204.626,35.9117 208.881,37.9887 214.374,38.0927 C 216.187,38.1277 220.125,37.8127 223.371,36.7187 C 223.681,36.6137 223.981,36.4977 224.271,36.3707 C 224.276,36.3687 224.281,36.3667 224.286,36.3647 C 224.571,36.2397 224.846,36.1057 225.111,35.9637 C 225.12,35.9587 225.127,35.9547 225.135,35.9497 C 225.397,35.8087 225.65,35.6607 225.893,35.5067 C 225.901,35.5017 225.909,35.4967 225.917,35.4907 C 226.159,35.3367 226.392,35.1767 226.616,35.0127 C 226.623,35.0077 226.629,35.0027 226.636,34.9977 C 226.86,34.8327 227.075,34.6637 227.281,34.4917 C 227.284,34.4897 227.287,34.4867 227.289,34.4847 C 227.802,34.0557 228.256,33.6147 228.65,33.1887 L 228.65,33.1887 C 228.655,33.1847 228.658,33.1807 228.662,33.1757 C 228.741,33.0907 228.817,33.0067 228.89,32.9227 C 228.89,32.9227 228.891,32.9227 228.891,32.9217 C 229.966,31.7037 230.54,30.6707 230.619,30.5227 C 230.626,30.5107 230.63,30.5027 230.63,30.5027 S 234.427,31.8077 236.298,29.4267 C 236.298,29.4267 234.906,29.1737 233.747,28.1227 C 232.684,27.1597 230.29,28.8597 230.29,28.8597 Z" style="opacity: 0.1" opacity="0.1" transform=""/><path fill="#808184" stroke="none" d="M 213.95,15.2031 C 214.028,15.2811 214.197,15.3351 214.396,15.3351 C 214.595,15.3351 214.764,15.2811 214.842,15.2031 C 214.764,15.1261 214.595,15.0721 214.396,15.0721 C 214.197,15.0711 214.028,15.1261 213.95,15.2031 Z" transform=""/><ellipse cx="213.05325663447695" cy="31.69838685297194" rx="0.5402275385075206" ry="0.8976486314227118" fill="#304454" stroke="none" r="NaN" transform=""/><ellipse cx="204.8610270433942" cy="31.69838685297194" rx="0.5402275385075206" ry="0.8976486314227118" fill="#304454" stroke="none" r="NaN" transform=""/><path fill="#49bbd6" stroke="none" d="M 214.197,14.6832 S 213.228,8.42416 216.593,6.58016 C 219.706,4.87316 221.679,7.81016 221.67,8.63416 C 221.664,9.13516 221.235,9.50216 220.577,9.02316 C 219.918,8.54416 219.933,7.09116 218.675,6.83716 C 217.499,6.59916 215.753,6.86416 214.797,9.72516 C 213.988,12.1442 214.197,14.6832 214.197,14.6832 Z" transform=""/><path fill="#49bbd6" stroke="none" d="M 214.197,8.28925 S 213.283,5.58125 211.464,5.39225 C 209.409,5.17825 207.455,6.75525 207.444,8.02025 C 207.438,8.64925 208.241,8.78425 209.05,7.88525 C 209.858,6.98725 210.285,5.88625 211.824,6.07725 C 213.015,6.22425 214.197,8.28925 214.197,8.28925 Z" transform=""/><path fill="#49bbd6" stroke="none" d="M 214.886,6.32796 S 215.493,4.60596 216.9,3.61696 C 218.308,2.62896 219.93,2.68696 219.845,3.40396 C 219.764,4.10096 218.404,3.64596 217.071,4.33396 C 215.707,5.03896 214.886,6.32796 214.886,6.32796 Z" transform=""/><path fill="#49bbd6" stroke="none" d="M 213.553,5.26259 S 213.148,3.27859 211.546,2.55259 C 210.289,1.98259 209.204,2.11559 209.202,2.71759 C 209.201,3.31559 210.619,3.01059 211.606,3.40559 C 213.042,3.98159 213.553,5.26259 213.553,5.26259 Z" transform=""/><path fill="#49bbd6" stroke="none" d="M 214.54,4.52878 S 216.338,0.0907794 214.698,0.00177944 C 213.059,-0.0892206 214.54,4.52878 214.54,4.52878 Z" transform=""/><path fill="#bdcccc" stroke="none" d="M 281.366,28.1229 C 280.302,27.1589 277.909,28.8599 277.909,28.8599 S 278.513,26.5579 277.342,25.8559 C 276.209,25.1749 276.209,25.1179 275.471,24.2689 C 275.471,24.2689 274.495,25.7939 275.132,27.3869 C 275.471,28.2359 275.982,28.6329 276.776,29.0869 C 276.776,29.0869 276.766,29.0979 276.757,29.1089 C 276.754,29.1119 276.751,29.1159 276.747,29.1199 C 276.731,29.1379 276.707,29.1629 276.676,29.1939 C 276.672,29.1979 276.666,29.2029 276.662,29.2069 C 276.629,29.2379 276.59,29.2739 276.542,29.3139 C 276.537,29.3179 276.533,29.3219 276.528,29.3259 C 276.478,29.3679 276.416,29.4149 276.348,29.4629 C 276.335,29.4729 276.321,29.4819 276.307,29.4919 C 276.234,29.5429 276.153,29.5959 276.061,29.6509 C 276.053,29.6559 276.043,29.6599 276.035,29.6649 C 275.949,29.7149 275.853,29.7659 275.75,29.8169 C 275.727,29.8289 275.704,29.8409 275.679,29.8529 C 275.568,29.9049 275.447,29.9579 275.317,30.0089 C 275.283,30.0229 275.247,30.0359 275.212,30.0489 C 275.092,30.0929 274.964,30.1359 274.828,30.1779 C 274.46,30.2899 274.035,30.3889 273.539,30.4579 C 273.539,30.4579 277.687,15.5529 262.673,14.3419 C 252.943,13.5569 250.025,20.5879 249.699,22.6599 C 248.968,27.3019 249.81,31.7489 250.477,32.9019 L 250.477,32.9019 C 250.479,32.9059 250.481,32.9099 250.483,32.9139 C 252.245,35.9119 256.5,37.9889 261.993,38.0929 C 263.806,38.1269 267.744,37.8129 270.99,36.7189 C 271.3,36.6139 271.6,36.4979 271.89,36.3709 C 271.895,36.3689 271.9,36.3669 271.905,36.3639 C 272.19,36.2399 272.465,36.1059 272.731,35.9629 C 272.739,35.9589 272.747,35.9539 272.754,35.9499 C 273.016,35.8089 273.269,35.6609 273.512,35.5069 C 273.52,35.5019 273.528,35.4959 273.536,35.4909 C 273.778,35.3369 274.011,35.1769 274.235,35.0129 C 274.242,35.0079 274.248,35.0029 274.255,34.9979 C 274.479,34.8329 274.694,34.6639 274.9,34.4919 C 274.903,34.4899 274.906,34.4869 274.908,34.4849 C 275.421,34.0559 275.875,33.6149 276.269,33.1889 L 276.269,33.1889 C 276.274,33.1849 276.277,33.1799 276.281,33.1759 C 276.36,33.0909 276.436,33.0069 276.51,32.9229 C 276.51,32.9229 276.51,32.9229 276.51,32.9219 C 277.585,31.7039 278.159,30.6709 278.238,30.5229 C 278.245,30.5109 278.249,30.5029 278.249,30.5029 S 282.046,31.8079 283.917,29.4269 C 283.917,29.4269 282.525,29.1739 281.366,28.1229 Z" transform=""/><ellipse cx="262.01489680773005" cy="15.108270857209893" rx="0.49193904344539585" ry="0.22721461515839056" fill="#6e6f71" stroke="none" r="NaN" transform=""/><path fill="#688da7" stroke="none" d="M 275.916,24.7798 C 275.873,24.9658 275.844,25.0678 275.844,25.0678 C 275.948,25.0538 276.047,25.0368 276.145,25.0208 C 276.071,24.9478 275.997,24.8708 275.916,24.7798 Z" style="opacity: 0.1" opacity="0.1" transform=""/><path fill="#688da7" stroke="none" d="M 277.909,28.8597 S 277.958,28.6687 278.001,28.3837 C 277.756,28.6217 277.496,28.8597 277.215,29.0947 C 277.212,29.0977 277.21,29.0997 277.207,29.1017 C 277.001,29.2737 276.786,29.4427 276.562,29.6077 C 276.555,29.6137 276.548,29.6177 276.542,29.6237 C 276.318,29.7867 276.085,29.9467 275.843,30.1017 C 275.835,30.1067 275.827,30.1117 275.819,30.1167 C 275.576,30.2717 275.323,30.4187 275.061,30.5597 C 275.053,30.5647 275.045,30.5687 275.038,30.5737 C 274.772,30.7157 274.497,30.8497 274.212,30.9747 C 274.207,30.9767 274.202,30.9787 274.197,30.9807 C 273.907,31.1077 273.607,31.2237 273.297,31.3287 C 270.052,32.4227 266.113,32.7377 264.3,32.7027 C 258.806,32.5987 254.552,30.5227 252.79,27.5237 C 252.788,27.5197 252.786,27.5167 252.784,27.5127 L 252.784,27.5127 C 252.166,26.4437 251.399,22.5417 251.872,18.2787 C 250.454,19.9807 249.838,21.7737 249.699,22.6597 C 248.968,27.3017 249.81,31.7497 250.477,32.9017 L 250.477,32.9017 C 250.479,32.9057 250.481,32.9097 250.483,32.9137 C 252.245,35.9117 256.5,37.9887 261.993,38.0927 C 263.806,38.1277 267.744,37.8127 270.99,36.7187 C 271.3,36.6137 271.6,36.4977 271.89,36.3707 C 271.895,36.3687 271.9,36.3667 271.905,36.3647 C 272.19,36.2397 272.465,36.1057 272.73,35.9637 C 272.739,35.9587 272.746,35.9547 272.754,35.9497 C 273.016,35.8087 273.269,35.6607 273.512,35.5067 C 273.52,35.5017 273.528,35.4967 273.536,35.4907 C 273.778,35.3367 274.011,35.1767 274.235,35.0127 C 274.242,35.0077 274.248,35.0027 274.255,34.9977 C 274.479,34.8327 274.694,34.6637 274.9,34.4917 C 274.903,34.4897 274.906,34.4867 274.908,34.4847 C 275.421,34.0557 275.875,33.6147 276.269,33.1887 L 276.269,33.1887 C 276.274,33.1847 276.277,33.1807 276.281,33.1757 C 276.36,33.0907 276.436,33.0067 276.509,32.9227 C 276.509,32.9227 276.51,32.9227 276.51,32.9217 C 277.585,31.7037 278.159,30.6707 278.238,30.5227 C 278.245,30.5107 278.249,30.5027 278.249,30.5027 S 282.046,31.8077 283.917,29.4267 C 283.917,29.4267 282.525,29.1737 281.366,28.1227 C 280.303,27.1597 277.909,28.8597 277.909,28.8597 Z" style="opacity: 0.1" opacity="0.1" transform=""/><path fill="#808184" stroke="none" d="M 261.569,15.2031 C 261.647,15.2811 261.816,15.3351 262.015,15.3351 S 262.383,15.2811 262.461,15.2031 C 262.383,15.1261 262.214,15.0721 262.015,15.0721 C 261.816,15.0711 261.647,15.1261 261.569,15.2031 Z" transform=""/><ellipse cx="260.6723042535246" cy="31.69838685297194" rx="0.5402275385075206" ry="0.8976486314227118" fill="#304454" stroke="none" r="NaN" transform=""/><ellipse cx="252.48007466244184" cy="31.69838685297194" rx="0.5402275385075206" ry="0.8976486314227118" fill="#304454" stroke="none" r="NaN" transform=""/><path fill="#49bbd6" stroke="none" d="M 261.816,14.6832 S 260.847,8.42416 264.212,6.58016 C 267.325,4.87316 269.298,7.81016 269.289,8.63416 C 269.283,9.13516 268.854,9.50216 268.196,9.02316 C 267.537,8.54416 267.552,7.09116 266.294,6.83716 C 265.118,6.59916 263.372,6.86416 262.416,9.72516 C 261.607,12.1442 261.816,14.6832 261.816,14.6832 Z" transform=""/><path fill="#49bbd6" stroke="none" d="M 261.816,8.28925 S 260.902,5.58125 259.083,5.39225 C 257.028,5.17825 255.074,6.75525 255.063,8.02025 C 255.057,8.64925 255.86,8.78425 256.669,7.88525 C 257.477,6.98725 257.904,5.88625 259.443,6.07725 C 260.634,6.22425 261.816,8.28925 261.816,8.28925 Z" transform=""/><path fill="#49bbd6" stroke="none" d="M 262.505,6.32796 S 263.112,4.60596 264.519,3.61696 C 265.927,2.62896 267.549,2.68696 267.464,3.40396 C 267.383,4.10096 266.023,3.64596 264.69,4.33396 C 263.326,5.03896 262.505,6.32796 262.505,6.32796 Z" transform=""/><path fill="#49bbd6" stroke="none" d="M 261.172,5.26259 S 260.767,3.27859 259.165,2.55259 C 257.908,1.98259 256.823,2.11559 256.821,2.71759 C 256.82,3.31559 258.238,3.01059 259.225,3.40559 C 260.661,3.98159 261.172,5.26259 261.172,5.26259 Z" transform=""/><path fill="#49bbd6" stroke="none" d="M 262.159,4.52878 S 263.957,0.0907794 262.317,0.00177944 C 260.678,-0.0892206 262.159,4.52878 262.159,4.52878 Z" transform=""/></svg>