<svg xmlns="http://www.w3.org/2000/svg" version="1.1" width="400" height="133.33333333333334" viewBox="0 0 400 133.33333333333334"><defs/><path fill="#d78334" stroke="none" d="M 30.3903,88.6141 C 26.4323,94.1241 14.5083,103.98 14.0173,103.564 C 13.1393,102.822 19.2273,87.6751 23.1853,82.1651 S 27.8633,78.0771 30.7163,79.9471 C 33.3233,81.6571 34.3473,83.1041 30.3903,88.6141 Z" transform=""/><path fill="#f4953f" stroke="none" d="M 30.8831,79.8526 C 27.8811,77.9586 27.1231,76.5186 22.9571,82.0996 C 22.6221,82.5486 22.2711,83.0676 21.9111,83.6306 C 22.6571,86.7426 25.5491,89.0646 29.0081,89.0646 C 29.4481,89.0646 29.8761,89.0206 30.2941,88.9486 C 30.3771,88.8426 30.4631,88.7346 30.5401,88.6316 C 34.7061,83.0506 33.6281,81.5846 30.8831,79.8526 Z" transform=""/><path fill="#f4953f" stroke="none" d="M 16.8955,93.67 C 14.4885,98.991 12.5955,104.328 13.0975,104.75 C 13.3945,105 18.0935,101.32 22.4415,97.271 C 20.0085,97.148 17.9285,95.718 16.8955,93.67 Z" transform=""/><path fill="#f4953f" stroke="none" d="M 29.5487,89.9193 C 29.1477,89.9893 28.7367,90.0323 28.3147,90.0323 C 24.9927,90.0323 22.2177,87.7573 21.5017,84.7083 C 20.1377,86.8883 18.6327,89.8413 17.2787,92.7993 C 18.3767,94.9523 20.5877,96.4543 23.1727,96.5833 C 25.6757,94.2783 28.0687,91.8583 29.5487,89.9193 Z" transform=""/><path fill="#d78334" stroke="none" d="M 30.9627,80.4651 C 29.5287,79.3361 29.0177,78.3931 27.3907,79.4571 C 27.0577,80.6011 27.6227,82.0521 28.8747,83.0071 C 29.8257,83.7321 30.9477,84.0001 31.8777,83.8141 C 32.5777,82.3761 32.1777,81.4211 30.9627,80.4651 Z" transform=""/><path fill="#64c4ad" stroke="none" d="M 44.0488,75.1535 C 44.6348,74.0755 41.8208,72.8855 38.7448,73.4955 C 37.2168,73.7985 35.9258,74.5225 35.0128,75.1735 C 34.6708,75.3005 34.3428,75.4625 34.0288,75.6525 C 35.7038,73.1385 39.1198,67.6045 37.3558,66.7445 C 35.4208,65.8015 33.7778,73.6705 33.3108,76.1565 C 33.2838,76.1785 33.2568,76.1995 33.2298,76.2215 C 33.3328,75.5775 33.8088,71.9175 31.7578,69.6305 C 29.9888,67.6575 27.9858,67.1885 27.5278,68.3715 C 27.0698,69.5515 29.7858,69.9065 31.2138,71.3535 C 33.0798,73.2445 33.2058,75.7455 33.2118,76.2365 C 33.1978,76.2485 33.1838,76.2615 33.1698,76.2735 C 33.1308,75.3345 32.8788,73.2425 31.4458,72.5125 C 29.3338,71.4345 26.5908,72.3155 26.0568,73.6645 C 25.7908,74.3365 26.5948,74.8125 27.8318,74.1835 C 29.0688,73.5555 29.9798,72.5535 31.5478,73.3935 C 32.4698,73.8875 32.9298,75.5585 33.0978,76.3365 C 31.3928,77.8075 30.2088,80.1085 29.4648,81.9775 C 29.5358,82.0065 29.6068,82.0355 29.6788,82.0645 C 30.2288,80.9285 30.9698,79.6215 31.9178,78.4215 C 34.7008,74.9015 37.1078,75.4035 38.5038,76.3235 C 39.9978,77.3085 39.1948,79.3315 39.7908,80.3315 C 40.3858,81.3295 41.1398,81.0325 41.4178,80.3335 C 41.8178,79.3275 41.1178,75.2885 37.5958,74.8695 C 37.9228,74.8115 38.2598,74.7685 38.6068,74.7445 C 41.3688,74.5585 43.4808,76.1995 44.0488,75.1535 Z" transform=""/><path fill="#d78334" stroke="none" d="M 78.0093,88.6141 C 74.0513,94.1241 62.1273,103.98 61.6363,103.564 C 60.7583,102.822 66.8463,87.6751 70.8043,82.1651 S 75.4823,78.0771 78.3353,79.9471 C 80.9423,81.6571 81.9663,83.1041 78.0093,88.6141 Z" transform=""/><path fill="#f4953f" stroke="none" d="M 78.5021,79.8526 C 75.5001,77.9586 74.7421,76.5186 70.5761,82.0996 C 70.2411,82.5486 69.8901,83.0676 69.5301,83.6306 C 70.2761,86.7426 73.1681,89.0646 76.6271,89.0646 C 77.0671,89.0646 77.4951,89.0206 77.9131,88.9486 C 77.9961,88.8426 78.0821,88.7346 78.1591,88.6316 C 82.3251,83.0506 81.2471,81.5846 78.5021,79.8526 Z" transform=""/><path fill="#f4953f" stroke="none" d="M 64.5146,93.67 C 62.1076,98.991 60.2146,104.328 60.7166,104.75 C 61.0136,105 65.7126,101.32 70.0606,97.271 C 67.6276,97.148 65.5476,95.718 64.5146,93.67 Z" transform=""/><path fill="#f4953f" stroke="none" d="M 77.1678,89.9193 C 76.7668,89.9893 76.3558,90.0323 75.9338,90.0323 C 72.6118,90.0323 69.8368,87.7573 69.1208,84.7083 C 67.7568,86.8883 66.2518,89.8413 64.8978,92.7993 C 65.9958,94.9523 68.2068,96.4543 70.7918,96.5833 C 73.2948,94.2783 75.6878,91.8583 77.1678,89.9193 Z" transform=""/><path fill="#d78334" stroke="none" d="M 78.5818,80.4651 C 77.1478,79.3361 76.6368,78.3931 75.0098,79.4571 C 74.6768,80.6011 75.2418,82.0521 76.4938,83.0071 C 77.4448,83.7321 78.5668,84.0001 79.4968,83.8141 C 80.1968,82.3761 79.7968,81.4211 78.5818,80.4651 Z" transform=""/><path fill="#64c4ad" stroke="none" d="M 91.6679,75.1535 C 92.2539,74.0755 89.4399,72.8855 86.3639,73.4955 C 84.8359,73.7985 83.5449,74.5225 82.6319,75.1735 C 82.2899,75.3005 81.9619,75.4625 81.6479,75.6525 C 83.3229,73.1385 86.7389,67.6045 84.9749,66.7445 C 83.0399,65.8015 81.3969,73.6705 80.9299,76.1565 C 80.9029,76.1785 80.8759,76.1995 80.8489,76.2215 C 80.9519,75.5775 81.4279,71.9175 79.3769,69.6305 C 77.6079,67.6575 75.6049,67.1885 75.1469,68.3715 C 74.6889,69.5515 77.4049,69.9065 78.8329,71.3535 C 80.6989,73.2445 80.8249,75.7455 80.8309,76.2365 C 80.8169,76.2485 80.8029,76.2615 80.7889,76.2735 C 80.7499,75.3345 80.4979,73.2425 79.0649,72.5125 C 76.9529,71.4345 74.2099,72.3155 73.6759,73.6645 C 73.4099,74.3365 74.2139,74.8125 75.4509,74.1835 C 76.6879,73.5555 77.5989,72.5535 79.1669,73.3935 C 80.0889,73.8875 80.5489,75.5585 80.7169,76.3365 C 79.0119,77.8075 77.8279,80.1085 77.0839,81.9775 C 77.1549,82.0065 77.2259,82.0355 77.2979,82.0645 C 77.8479,80.9285 78.5889,79.6215 79.5369,78.4215 C 82.3199,74.9015 84.7269,75.4035 86.1229,76.3235 C 87.6169,77.3085 86.8139,79.3315 87.4099,80.3315 C 88.0049,81.3295 88.7589,81.0325 89.0369,80.3335 C 89.4369,79.3275 88.7369,75.2885 85.2149,74.8695 C 85.5419,74.8115 85.8789,74.7685 86.2259,74.7445 C 88.9879,74.5585 91.0999,76.1995 91.6679,75.1535 Z" transform=""/><path fill="#d78334" stroke="none" d="M 125.628,88.6141 C 121.67,94.1241 109.746,103.98 109.255,103.564 C 108.377,102.822 114.465,87.6751 118.423,82.1651 S 123.101,78.0771 125.954,79.9471 C 128.561,81.6571 129.585,83.1041 125.628,88.6141 Z" transform=""/><path fill="#f4953f" stroke="none" d="M 126.121,79.8526 C 123.119,77.9586 122.361,76.5186 118.195,82.0996 C 117.86,82.5486 117.509,83.0676 117.149,83.6306 C 117.895,86.7426 120.787,89.0646 124.246,89.0646 C 124.686,89.0646 125.114,89.0206 125.532,88.9486 C 125.615,88.8426 125.701,88.7346 125.778,88.6316 C 129.944,83.0506 128.866,81.5846 126.121,79.8526 Z" transform=""/><path fill="#f4953f" stroke="none" d="M 112.134,93.67 C 109.727,98.991 107.834,104.328 108.336,104.75 C 108.633,105 113.332,101.32 117.68,97.271 C 115.247,97.148 113.167,95.718 112.134,93.67 Z" transform=""/><path fill="#f4953f" stroke="none" d="M 124.787,89.9193 C 124.386,89.9893 123.975,90.0323 123.553,90.0323 C 120.231,90.0323 117.456,87.7573 116.74,84.7083 C 115.376,86.8883 113.871,89.8413 112.517,92.7993 C 113.615,94.9523 115.826,96.4543 118.411,96.5833 C 120.914,94.2783 123.307,91.8583 124.787,89.9193 Z" transform=""/><path fill="#d78334" stroke="none" d="M 126.201,80.4651 C 124.767,79.3361 124.256,78.3931 122.629,79.4571 C 122.296,80.6011 122.861,82.0521 124.113,83.0071 C 125.064,83.7321 126.186,84.0001 127.116,83.8141 C 127.816,82.3761 127.416,81.4211 126.201,80.4651 Z" transform=""/><path fill="#64c4ad" stroke="none" d="M 139.287,75.1535 C 139.873,74.0755 137.059,72.8855 133.983,73.4955 C 132.455,73.7985 131.164,74.5225 130.251,75.1735 C 129.909,75.3005 129.581,75.4625 129.267,75.6525 C 130.942,73.1385 134.358,67.6045 132.594,66.7445 C 130.659,65.8015 129.016,73.6705 128.549,76.1565 C 128.522,76.1785 128.495,76.1995 128.468,76.2215 C 128.571,75.5775 129.047,71.9175 126.996,69.6305 C 125.227,67.6575 123.224,67.1885 122.766,68.3715 C 122.308,69.5515 125.024,69.9065 126.452,71.3535 C 128.318,73.2445 128.444,75.7455 128.45,76.2365 C 128.436,76.2485 128.422,76.2615 128.408,76.2735 C 128.369,75.3345 128.117,73.2425 126.684,72.5125 C 124.572,71.4345 121.829,72.3155 121.295,73.6645 C 121.029,74.3365 121.833,74.8125 123.07,74.1835 C 124.307,73.5555 125.218,72.5535 126.786,73.3935 C 127.708,73.8875 128.168,75.5585 128.336,76.3365 C 126.631,77.8075 125.447,80.1085 124.703,81.9775 C 124.774,82.0065 124.845,82.0355 124.917,82.0645 C 125.467,80.9285 126.208,79.6215 127.156,78.4215 C 129.939,74.9015 132.346,75.4035 133.742,76.3235 C 135.236,77.3085 134.433,79.3315 135.029,80.3315 C 135.624,81.3295 136.378,81.0325 136.656,80.3335 C 137.056,79.3275 136.356,75.2885 132.834,74.8695 C 133.161,74.8115 133.498,74.7685 133.845,74.7445 C 136.607,74.5585 138.719,76.1995 139.287,75.1535 Z" transform=""/><path fill="#d78334" stroke="none" d="M 173.247,88.6141 C 169.289,94.1241 157.365,103.98 156.874,103.564 C 155.996,102.822 162.084,87.6751 166.042,82.1651 S 170.72,78.0771 173.573,79.9471 C 176.18,81.6571 177.204,83.1041 173.247,88.6141 Z" transform=""/><path fill="#f4953f" stroke="none" d="M 173.74,79.8526 C 170.738,77.9586 169.98,76.5186 165.814,82.0996 C 165.479,82.5486 165.128,83.0676 164.768,83.6306 C 165.514,86.7426 168.406,89.0646 171.865,89.0646 C 172.305,89.0646 172.733,89.0206 173.151,88.9486 C 173.234,88.8426 173.32,88.7346 173.397,88.6316 C 177.563,83.0506 176.485,81.5846 173.74,79.8526 Z" transform=""/><path fill="#f4953f" stroke="none" d="M 159.753,93.67 C 157.346,98.991 155.453,104.328 155.955,104.75 C 156.252,105 160.951,101.32 165.299,97.271 C 162.866,97.148 160.786,95.718 159.753,93.67 Z" transform=""/><path fill="#f4953f" stroke="none" d="M 172.406,89.9193 C 172.005,89.9893 171.594,90.0323 171.172,90.0323 C 167.85,90.0323 165.075,87.7573 164.359,84.7083 C 162.995,86.8883 161.49,89.8413 160.136,92.7993 C 161.234,94.9523 163.445,96.4543 166.03,96.5833 C 168.533,94.2783 170.926,91.8583 172.406,89.9193 Z" transform=""/><path fill="#d78334" stroke="none" d="M 173.82,80.4651 C 172.386,79.3361 171.875,78.3931 170.248,79.4571 C 169.915,80.6011 170.48,82.0521 171.732,83.0071 C 172.683,83.7321 173.805,84.0001 174.735,83.8141 C 175.435,82.3761 175.035,81.4211 173.82,80.4651 Z" transform=""/><path fill="#64c4ad" stroke="none" d="M 186.906,75.1535 C 187.492,74.0755 184.678,72.8855 181.602,73.4955 C 180.074,73.7985 178.783,74.5225 177.87,75.1735 C 177.528,75.3005 177.2,75.4625 176.886,75.6525 C 178.561,73.1385 181.977,67.6045 180.213,66.7445 C 178.278,65.8015 176.635,73.6705 176.168,76.1565 C 176.141,76.1785 176.114,76.1995 176.087,76.2215 C 176.19,75.5775 176.666,71.9175 174.615,69.6305 C 172.846,67.6575 170.843,67.1885 170.385,68.3715 C 169.927,69.5515 172.643,69.9065 174.071,71.3535 C 175.937,73.2445 176.063,75.7455 176.069,76.2365 C 176.055,76.2485 176.041,76.2615 176.027,76.2735 C 175.988,75.3345 175.736,73.2425 174.303,72.5125 C 172.191,71.4345 169.448,72.3155 168.914,73.6645 C 168.648,74.3365 169.452,74.8125 170.689,74.1835 C 171.926,73.5555 172.837,72.5535 174.405,73.3935 C 175.327,73.8875 175.787,75.5585 175.955,76.3365 C 174.25,77.8075 173.066,80.1085 172.322,81.9775 C 172.393,82.0065 172.464,82.0355 172.536,82.0645 C 173.086,80.9285 173.827,79.6215 174.775,78.4215 C 177.558,74.9015 179.965,75.4035 181.361,76.3235 C 182.855,77.3085 182.052,79.3315 182.648,80.3315 C 183.243,81.3295 183.997,81.0325 184.275,80.3335 C 184.675,79.3275 183.975,75.2885 180.453,74.8695 C 180.78,74.8115 181.117,74.7685 181.464,74.7445 C 184.226,74.5585 186.338,76.1995 186.906,75.1535 Z" transform=""/><path fill="#ccaa4f" stroke="none" d="M 24.0897,29.9224 S 18.7657,33.2824 15.8667,31.8294 C 14.5737,31.1794 15.5197,29.6494 17.2507,29.9174 C 19.1577,30.2134 21.1547,27.1284 21.1547,27.1284 L 24.0897,29.9224 Z" style="opacity: 0.8" opacity="0.8" transform=""/><path fill="#e2e2e2" stroke="none" d="M 41.3117,26.4593 C 41.1367,26.1973 40.8397,26.0493 40.5337,26.0583 C 40.4527,25.9003 40.2617,25.8333 40.0997,25.9073 C 40.0477,25.9303 40.0047,25.9653 39.9727,26.0073 C 39.7307,25.8733 39.4297,25.8513 39.1587,25.9753 C 38.9877,26.0533 38.8527,26.1783 38.7617,26.3283 C 38.6637,26.3333 38.5657,26.3553 38.4717,26.3983 C 38.1847,26.5293 38.0147,26.8083 38.0057,27.1023 C 37.9977,27.1053 37.9897,27.1083 37.9827,27.1123 C 37.8147,27.1883 37.7407,27.3863 37.8177,27.5533 C 37.8217,27.5633 37.8267,27.5733 37.8317,27.5813 C 37.7377,27.8063 37.7337,28.0673 37.8427,28.3053 C 37.9047,28.4403 37.9947,28.5523 38.1027,28.6383 C 38.0507,28.7273 38.0417,28.8393 38.0877,28.9393 C 38.0877,28.9413 38.0897,28.9423 38.0897,28.9443 C 37.9307,29.0843 37.8737,29.3163 37.9657,29.5193 C 38.0787,29.7663 38.3707,29.8753 38.6177,29.7623 C 38.6857,29.7313 38.7427,29.6863 38.7887,29.6323 C 38.8837,29.7123 39.0197,29.7343 39.1397,29.6793 C 39.1577,29.6713 39.1737,29.6623 39.1897,29.6513 C 39.4197,29.8033 39.7197,29.8373 39.9887,29.7143 C 40.0927,29.6673 40.1817,29.6013 40.2547,29.5223 C 40.3427,29.5293 40.4347,29.5143 40.5207,29.4743 C 40.6407,29.4203 40.7317,29.3273 40.7847,29.2173 C 40.9067,29.2253 41.0317,29.2043 41.1507,29.1503 C 41.4347,29.0203 41.6007,28.7383 41.5957,28.4443 C 41.6907,28.3813 41.7287,28.2563 41.6797,28.1483 C 41.6747,28.1373 41.6687,28.1263 41.6617,28.1163 C 41.8647,27.9473 41.9377,27.6583 41.8227,27.4053 C 41.7957,27.3463 41.7597,27.2943 41.7187,27.2483 C 41.7707,27.1043 41.7697,26.9413 41.7007,26.7913 C 41.6247,26.6213 41.4787,26.5043 41.3117,26.4593 L 41.3117,26.4593 M 39.5687,27.8853 C 39.5707,27.8853 39.5727,27.8853 39.5747,27.8863 C 39.5727,27.8903 39.5717,27.8943 39.5697,27.8983 C 39.5697,27.8933 39.5687,27.8893 39.5687,27.8853 Z" transform=""/><path fill="#eec65e" stroke="none" d="M 30.1147,8.43369 S 32.0947,6.77569 33.9417,6.74369 C 35.1517,6.72369 36.7857,6.82469 38.3417,6.32969 C 42.5497,4.99569 38.4037,10.6007 33.7457,13.8117 C 30.5137,16.0437 26.1937,18.0397 26.1247,15.5257 C 26.0687,13.3967 30.1147,8.43369 30.1147,8.43369 Z" transform=""/><path fill="#f7a996" stroke="none" d="M 29.1648,12.3741 S 30.9198,9.91714 32.9798,9.44114 C 35.4028,8.88114 38.0898,7.29314 38.7278,7.65414 C 39.5038,8.09714 37.4028,10.3061 36.5518,11.1641 C 35.2898,12.4371 32.4618,14.3951 30.6118,15.0581 C 29.2988,15.5321 28.3038,15.7701 27.7388,14.5831 C 27.1748,13.3951 29.1648,12.3741 29.1648,12.3741 Z" transform=""/><path fill="#ccaa4f" stroke="none" d="M 29.3349,12.1652 C 28.6839,11.8282 28.1509,11.6282 28.1509,11.6282 S 27.6019,11.6082 26.9929,11.8622 C 27.2429,12.7472 27.9599,13.6852 27.9599,13.6852 L 29.3349,12.1652 Z" transform=""/><path fill="#eec65e" stroke="none" d="M 25.9654,22.1069 S 27.4984,23.1729 29.7684,23.0359 C 33.9354,22.7819 36.6714,23.2829 38.4474,26.2439 C 40.8294,30.2119 38.0514,37.7779 30.1894,35.8499 C 18.6634,33.0219 19.7014,20.0899 19.7014,20.0899 L 25.9654,22.1069 Z" transform=""/><path fill="#ccaa4f" stroke="none" d="M 20.8078,27.8465 C 23.8918,27.7555 26.8868,27.6105 29.7688,23.0355 C 29.1018,22.9935 29.5958,21.6525 28.8298,21.6705 C 26.6188,21.7185 25.1748,20.6065 25.1748,20.6065 L 19.0398,17.6995 C 19.0398,17.6985 19.4598,22.4225 20.8078,27.8465 Z" style="opacity: 0.5" opacity="0.5" transform=""/><path fill="#eec65e" stroke="none" d="M 21.5615,9.23812 S 21.5105,6.78312 20.6645,5.23012 C 20.1105,4.21012 19.2955,2.89712 18.8295,1.36312 C 17.5675,-2.79288 16.5585,3.37812 17.0435,8.81712 C 17.3805,12.5921 18.3465,17.1581 19.6985,15.9961 C 20.8425,15.0141 21.5615,9.23812 21.5615,9.23812 Z" transform=""/><path fill="#f7a996" stroke="none" d="M 20.1881,13.1548 S 20.7211,9.97577 19.9301,7.66777 C 18.9991,4.95277 18.5351,1.36977 17.9901,0.956773 C 17.3261,0.453773 17.1191,3.82577 17.0571,5.16977 C 16.9631,7.16477 17.2831,11.1048 17.8541,13.3178 C 18.2591,14.8908 18.6371,16.0098 19.6281,15.8638 C 20.6211,15.7178 20.1881,13.1548 20.1881,13.1548 Z" transform=""/><path fill="#eec65e" stroke="none" d="M 20.962,12.4003 S 22.852,11.2883 24.737,11.4233 C 26.051,11.5173 27.59,11.7553 28.898,13.0203 C 30.678,14.7423 31.1,17.5823 31.122,19.0363 C 31.179,22.8763 28.615,25.3073 24.636,25.2143 C 20.715,25.1233 17.556,22.5603 17.818,18.7333 C 17.968,16.5513 18.672,13.7373 20.962,12.4003 Z" transform=""/><path fill="#eec65e" stroke="none" d="M 23.784,11.5792 S 24.437,10.3842 25.665,10.2032 C 25.665,10.2032 24.11,11.0592 24.078,11.8202 L 23.784,11.5792 Z" transform=""/><ellipse cx="21.59912098021813" cy="19.44108952869727" rx="0.5138158700778146" ry="0.7144260786112823" fill="#304454" stroke="none" transform="rotate(1.5587 21.59912093639674 19.441088335169603)" r="NaN"/><ellipse cx="27.864423400058286" cy="19.44108952869727" rx="0.5138158700778146" ry="0.7144260786112823" fill="#304454" stroke="none" transform="rotate(1.5587 27.864423555871817 19.441088335169603)" r="NaN"/><ellipse cx="25.240631689894983" cy="22.422885832157725" rx="0.8983848469107468" ry="0.6827090495941333" fill="#cda245" stroke="none" transform="rotate(187.0483 25.240632330428166 22.42288552564433)" r="NaN"/><path fill="#eec65e" stroke="none" d="M 24.1567,11.4436 S 25.2207,10.5936 26.4227,10.8996 C 26.4227,10.8996 24.6577,11.0896 24.3347,11.7796 L 24.1567,11.4436 Z" transform=""/><path fill="#ccaa4f" stroke="none" d="M 28.5717,35.237 C 28.5787,35.238 28.5847,35.238 28.5927,35.239 C 29.1867,35.331 29.7887,35.095 30.3367,34.726 C 28.8247,29.726 31.9507,27.53 34.3887,28.504 C 36.4597,29.331 37.6457,31.868 36.0177,34.666 C 35.8737,34.914 35.6637,35.093 35.4187,35.232 L 35.4317,35.244 S 34.8877,35.586 34.0567,36.004 C 32.9867,36.183 31.7607,36.143 30.3737,35.803 C 29.7327,35.646 29.1377,35.453 28.5717,35.237 Z" style="opacity: 0.5" opacity="0.5" transform=""/><path fill="#eec65e" stroke="none" d="M 29.5748,35.8198 C 30.1688,35.9118 30.7718,35.6758 31.3198,35.3068 C 29.8078,30.3068 32.9328,28.1108 35.3718,29.0848 C 37.4418,29.9118 38.6278,32.4488 37.0008,35.2468 C 36.8568,35.4948 36.6458,35.6738 36.4018,35.8128 L 36.4138,35.8248 S 34.7558,36.8708 32.7858,37.5428 C 32.7338,37.5988 32.6688,37.6248 32.5898,37.6078 C 31.0808,38.0978 29.4178,38.3468 28.1908,37.7308 C 26.8978,37.0808 27.8438,35.5518 29.5748,35.8198 Z" transform=""/><path fill="#ccaa4f" stroke="none" d="M 24.4041,32.4748 C 25.3481,31.6588 26.0281,30.6138 26.0281,30.6138 L 28.1641,32.5928 S 28.0311,33.9948 26.7361,34.5718 C 25.8261,33.9478 25.0591,33.2358 24.4041,32.4748 Z" style="opacity: 0.5" opacity="0.5" transform=""/><path fill="#eec65e" stroke="none" d="M 28.4234,32.5156 S 22.7464,36.0826 19.6594,34.5466 C 18.2824,33.8596 19.2924,32.2376 21.1364,32.5196 C 23.1674,32.8306 25.2994,29.5596 25.2994,29.5596 L 28.4234,32.5156 Z" transform=""/><path fill="none" stroke="#cda245" d="M 29.4753,22.2389 S 30.9043,22.3039 31.6233,22.7049" style="stroke-miterlimit: 10" stroke-miterlimit="10" transform=""/><path fill="none" stroke="#cda245" d="M 29.6144,21.5582 S 30.9694,21.0992 31.7844,21.2122" style="stroke-miterlimit: 10" stroke-miterlimit="10" transform=""/><path fill="none" stroke="#cda245" d="M 20.7551,22.9458 S 19.2811,23.0108 18.5381,23.4118" style="stroke-miterlimit: 10;stroke-width: 0.40268732965897863px" stroke-width="0.40268732965897863" stroke-miterlimit="10" transform=""/><path fill="none" stroke="#cda245" d="M 20.6115,22.2647 S 19.2135,21.8057 18.3725,21.9187" style="stroke-miterlimit: 10;stroke-width: 0.40268732965897863px" stroke-width="0.40268732965897863" stroke-miterlimit="10" transform=""/><path fill="#ccaa4f" stroke="none" d="M 71.7087,29.9224 S 66.3847,33.2824 63.4857,31.8294 C 62.1927,31.1794 63.1387,29.6494 64.8697,29.9174 C 66.7767,30.2134 68.7737,27.1284 68.7737,27.1284 L 71.7087,29.9224 Z" style="opacity: 0.8" opacity="0.8" transform=""/><path fill="#e2e2e2" stroke="none" d="M 88.9307,26.4593 C 88.7557,26.1973 88.4587,26.0493 88.1527,26.0583 C 88.0717,25.9003 87.8807,25.8333 87.7187,25.9073 C 87.6667,25.9303 87.6237,25.9653 87.5917,26.0073 C 87.3497,25.8733 87.0487,25.8513 86.7777,25.9753 C 86.6067,26.0533 86.4717,26.1783 86.3807,26.3283 C 86.2827,26.3333 86.1847,26.3553 86.0907,26.3983 C 85.8037,26.5293 85.6337,26.8083 85.6247,27.1023 C 85.6167,27.1053 85.6087,27.1083 85.6017,27.1123 C 85.4337,27.1883 85.3597,27.3863 85.4367,27.5533 C 85.4407,27.5633 85.4457,27.5733 85.4507,27.5813 C 85.3567,27.8063 85.3527,28.0673 85.4617,28.3053 C 85.5237,28.4403 85.6137,28.5523 85.7217,28.6383 C 85.6697,28.7273 85.6607,28.8393 85.7067,28.9393 C 85.7067,28.9413 85.7087,28.9423 85.7087,28.9443 C 85.5497,29.0843 85.4927,29.3163 85.5847,29.5193 C 85.6977,29.7663 85.9897,29.8753 86.2367,29.7623 C 86.3047,29.7313 86.3617,29.6863 86.4077,29.6323 C 86.5027,29.7123 86.6387,29.7343 86.7587,29.6793 C 86.7767,29.6713 86.7927,29.6623 86.8087,29.6513 C 87.0387,29.8033 87.3387,29.8373 87.6077,29.7143 C 87.7117,29.6673 87.8007,29.6013 87.8737,29.5223 C 87.9617,29.5293 88.0537,29.5143 88.1397,29.4743 C 88.2597,29.4203 88.3507,29.3273 88.4037,29.2173 C 88.5257,29.2253 88.6507,29.2043 88.7697,29.1503 C 89.0537,29.0203 89.2197,28.7383 89.2147,28.4443 C 89.3097,28.3813 89.3477,28.2563 89.2987,28.1483 C 89.2937,28.1373 89.2877,28.1263 89.2807,28.1163 C 89.4837,27.9473 89.5567,27.6583 89.4417,27.4053 C 89.4147,27.3463 89.3787,27.2943 89.3377,27.2483 C 89.3897,27.1043 89.3887,26.9413 89.3197,26.7913 C 89.2437,26.6213 89.0977,26.5043 88.9307,26.4593 L 88.9307,26.4593 M 87.1877,27.8853 C 87.1897,27.8853 87.1917,27.8853 87.1937,27.8863 C 87.1917,27.8903 87.1907,27.8943 87.1887,27.8983 C 87.1887,27.8933 87.1877,27.8893 87.1877,27.8853 Z" transform=""/><path fill="#eec65e" stroke="none" d="M 77.7338,8.43369 S 79.7138,6.77569 81.5608,6.74369 C 82.7708,6.72369 84.4048,6.82469 85.9608,6.32969 C 90.1688,4.99569 86.0228,10.6007 81.3648,13.8117 C 78.1328,16.0437 73.8128,18.0397 73.7438,15.5257 C 73.6878,13.3967 77.7338,8.43369 77.7338,8.43369 Z" transform=""/><path fill="#f7a996" stroke="none" d="M 76.7839,12.3741 S 78.5389,9.91714 80.5989,9.44114 C 83.0219,8.88114 85.7089,7.29314 86.3469,7.65414 C 87.1229,8.09714 85.0219,10.3061 84.1709,11.1641 C 82.9089,12.4371 80.0809,14.3951 78.2309,15.0581 C 76.9179,15.5321 75.9229,15.7701 75.3579,14.5831 C 74.7939,13.3951 76.7839,12.3741 76.7839,12.3741 Z" transform=""/><path fill="#ccaa4f" stroke="none" d="M 76.954,12.1652 C 76.303,11.8282 75.77,11.6282 75.77,11.6282 S 75.221,11.6082 74.612,11.8622 C 74.862,12.7472 75.579,13.6852 75.579,13.6852 L 76.954,12.1652 Z" transform=""/><path fill="#eec65e" stroke="none" d="M 73.5844,22.1069 S 75.1174,23.1729 77.3874,23.0359 C 81.5544,22.7819 84.2904,23.2829 86.0664,26.2439 C 88.4484,30.2119 85.6704,37.7779 77.8084,35.8499 C 66.2824,33.0219 67.3204,20.0899 67.3204,20.0899 L 73.5844,22.1069 Z" transform=""/><path fill="#ccaa4f" stroke="none" d="M 68.4268,27.8465 C 71.5108,27.7555 74.5058,27.6105 77.3878,23.0355 C 76.7208,22.9935 77.2148,21.6525 76.4488,21.6705 C 74.2378,21.7185 72.7938,20.6065 72.7938,20.6065 L 66.6588,17.6995 C 66.6588,17.6985 67.0788,22.4225 68.4268,27.8465 Z" style="opacity: 0.5" opacity="0.5" transform=""/><path fill="#eec65e" stroke="none" d="M 69.1805,9.23812 S 69.1295,6.78312 68.2835,5.23012 C 67.7295,4.21012 66.9145,2.89712 66.4485,1.36312 C 65.1865,-2.79288 64.1775,3.37812 64.6625,8.81712 C 64.9995,12.5921 65.9655,17.1581 67.3175,15.9961 C 68.4615,15.0141 69.1805,9.23812 69.1805,9.23812 Z" transform=""/><path fill="#f7a996" stroke="none" d="M 67.8072,13.1548 S 68.3402,9.97577 67.5492,7.66777 C 66.6182,4.95277 66.1542,1.36977 65.6092,0.956773 C 64.9452,0.453773 64.7382,3.82577 64.6762,5.16977 C 64.5822,7.16477 64.9022,11.1048 65.4732,13.3178 C 65.8782,14.8908 66.2562,16.0098 67.2472,15.8638 C 68.2402,15.7178 67.8072,13.1548 67.8072,13.1548 Z" transform=""/><path fill="#eec65e" stroke="none" d="M 68.5811,12.4003 S 70.4711,11.2883 72.3561,11.4233 C 73.6701,11.5173 75.2091,11.7553 76.5171,13.0203 C 78.2971,14.7423 78.7191,17.5823 78.7411,19.0363 C 78.7981,22.8763 76.2341,25.3073 72.2551,25.2143 C 68.3341,25.1233 65.1751,22.5603 65.4371,18.7333 C 65.5871,16.5513 66.2911,13.7373 68.5811,12.4003 Z" transform=""/><path fill="#eec65e" stroke="none" d="M 71.4031,11.5792 S 72.0561,10.3842 73.2841,10.2032 C 73.2841,10.2032 71.7291,11.0592 71.6971,11.8202 L 71.4031,11.5792 Z" transform=""/><ellipse cx="69.21816859926575" cy="19.44108952869727" rx="0.5138158700778146" ry="0.7144260786112823" fill="#304454" stroke="none" transform="rotate(1.5587 69.21816855544436 19.441088335169603)" r="NaN"/><ellipse cx="75.4834710191059" cy="19.44108952869727" rx="0.5138158700778146" ry="0.7144260786112823" fill="#304454" stroke="none" transform="rotate(1.5587 75.48347117491944 19.441088335169603)" r="NaN"/><ellipse cx="72.8596793089426" cy="22.422885832157725" rx="0.8983848469107468" ry="0.6827090495941333" fill="#cda245" stroke="none" transform="rotate(187.0483 72.85967994947579 22.42288552564433)" r="NaN"/><path fill="#eec65e" stroke="none" d="M 71.7758,11.4436 S 72.8398,10.5936 74.0418,10.8996 C 74.0418,10.8996 72.2768,11.0896 71.9538,11.7796 L 71.7758,11.4436 Z" transform=""/><path fill="#ccaa4f" stroke="none" d="M 76.1908,35.237 C 76.1978,35.238 76.2038,35.238 76.2118,35.239 C 76.8058,35.331 77.4078,35.095 77.9558,34.726 C 76.4438,29.726 79.5698,27.53 82.0078,28.504 C 84.0788,29.331 85.2648,31.868 83.6368,34.666 C 83.4928,34.914 83.2828,35.093 83.0378,35.232 L 83.0508,35.244 S 82.5068,35.586 81.6758,36.004 C 80.6058,36.183 79.3798,36.143 77.9928,35.803 C 77.3518,35.646 76.7568,35.453 76.1908,35.237 Z" style="opacity: 0.5" opacity="0.5" transform=""/><path fill="#eec65e" stroke="none" d="M 77.1938,35.8198 C 77.7878,35.9118 78.3908,35.6758 78.9388,35.3068 C 77.4268,30.3068 80.5518,28.1108 82.9908,29.0848 C 85.0608,29.9118 86.2468,32.4488 84.6198,35.2468 C 84.4758,35.4948 84.2648,35.6738 84.0208,35.8128 L 84.0328,35.8248 S 82.3748,36.8708 80.4048,37.5428 C 80.3528,37.5988 80.2878,37.6248 80.2088,37.6078 C 78.6998,38.0978 77.0368,38.3468 75.8098,37.7308 C 74.5168,37.0808 75.4628,35.5518 77.1938,35.8198 Z" transform=""/><path fill="#ccaa4f" stroke="none" d="M 72.0231,32.4748 C 72.9671,31.6588 73.6471,30.6138 73.6471,30.6138 L 75.7831,32.5928 S 75.6501,33.9948 74.3551,34.5718 C 73.4451,33.9478 72.6781,33.2358 72.0231,32.4748 Z" style="opacity: 0.5" opacity="0.5" transform=""/><path fill="#eec65e" stroke="none" d="M 76.0425,32.5156 S 70.3655,36.0826 67.2785,34.5466 C 65.9015,33.8596 66.9115,32.2376 68.7555,32.5196 C 70.7865,32.8306 72.9185,29.5596 72.9185,29.5596 L 76.0425,32.5156 Z" transform=""/><path fill="none" stroke="#cda245" d="M 77.0943,22.2389 S 78.5233,22.3039 79.2423,22.7049" style="stroke-miterlimit: 10" stroke-miterlimit="10" transform=""/><path fill="none" stroke="#cda245" d="M 77.2335,21.5582 S 78.5885,21.0992 79.4035,21.2122" style="stroke-miterlimit: 10" stroke-miterlimit="10" transform=""/><path fill="none" stroke="#cda245" d="M 68.3741,22.9458 S 66.9001,23.0108 66.1571,23.4118" style="stroke-miterlimit: 10;stroke-width: 0.40268732965897863px" stroke-width="0.40268732965897863" stroke-miterlimit="10" transform=""/><path fill="none" stroke="#cda245" d="M 68.2306,22.2647 S 66.8326,21.8057 65.9916,21.9187" style="stroke-miterlimit: 10;stroke-width: 0.40268732965897863px" stroke-width="0.40268732965897863" stroke-miterlimit="10" transform=""/><path fill="#ccaa4f" stroke="none" d="M 119.328,29.9224 S 114.004,33.2824 111.105,31.8294 C 109.812,31.1794 110.758,29.6494 112.489,29.9174 C 114.396,30.2134 116.393,27.1284 116.393,27.1284 L 119.328,29.9224 Z" style="opacity: 0.8" opacity="0.8" transform=""/><path fill="#e2e2e2" stroke="none" d="M 136.55,26.4593 C 136.375,26.1973 136.078,26.0493 135.772,26.0583 C 135.691,25.9003 135.5,25.8333 135.338,25.9073 C 135.286,25.9303 135.243,25.9653 135.211,26.0073 C 134.969,25.8733 134.668,25.8513 134.397,25.9753 C 134.226,26.0533 134.091,26.1783 134,26.3283 C 133.902,26.3333 133.804,26.3553 133.71,26.3983 C 133.423,26.5293 133.253,26.8083 133.244,27.1023 C 133.236,27.1053 133.228,27.1083 133.221,27.1123 C 133.053,27.1883 132.979,27.3863 133.056,27.5533 C 133.06,27.5633 133.065,27.5733 133.07,27.5813 C 132.976,27.8063 132.972,28.0673 133.081,28.3053 C 133.143,28.4403 133.233,28.5523 133.341,28.6383 C 133.289,28.7273 133.28,28.8393 133.326,28.9393 C 133.326,28.9413 133.328,28.9423 133.328,28.9443 C 133.169,29.0843 133.112,29.3163 133.204,29.5193 C 133.317,29.7663 133.609,29.8753 133.856,29.7623 C 133.924,29.7313 133.981,29.6863 134.027,29.6323 C 134.122,29.7123 134.258,29.7343 134.378,29.6793 C 134.396,29.6713 134.412,29.6623 134.428,29.6513 C 134.658,29.8033 134.958,29.8373 135.227,29.7143 C 135.331,29.6673 135.42,29.6013 135.493,29.5223 C 135.581,29.5293 135.673,29.5143 135.759,29.4743 C 135.879,29.4203 135.97,29.3273 136.023,29.2173 C 136.145,29.2253 136.27,29.2043 136.389,29.1503 C 136.673,29.0203 136.839,28.7383 136.834,28.4443 C 136.929,28.3813 136.967,28.2563 136.918,28.1483 C 136.913,28.1373 136.907,28.1263 136.9,28.1163 C 137.103,27.9473 137.176,27.6583 137.061,27.4053 C 137.034,27.3463 136.998,27.2943 136.957,27.2483 C 137.009,27.1043 137.008,26.9413 136.939,26.7913 C 136.863,26.6213 136.717,26.5043 136.55,26.4593 L 136.55,26.4593 M 134.807,27.8853 C 134.809,27.8853 134.811,27.8853 134.813,27.8863 C 134.811,27.8903 134.81,27.8943 134.808,27.8983 C 134.808,27.8933 134.807,27.8893 134.807,27.8853 Z" transform=""/><path fill="#eec65e" stroke="none" d="M 125.353,8.43369 S 127.333,6.77569 129.18,6.74369 C 130.39,6.72369 132.024,6.82469 133.58,6.32969 C 137.788,4.99569 133.642,10.6007 128.984,13.8117 C 125.752,16.0437 121.432,18.0397 121.363,15.5257 C 121.307,13.3967 125.353,8.43369 125.353,8.43369 Z" transform=""/><path fill="#f7a996" stroke="none" d="M 124.403,12.3741 S 126.158,9.91714 128.218,9.44114 C 130.641,8.88114 133.328,7.29314 133.966,7.65414 C 134.742,8.09714 132.641,10.3061 131.79,11.1641 C 130.528,12.4371 127.7,14.3951 125.85,15.0581 C 124.537,15.5321 123.542,15.7701 122.977,14.5831 C 122.413,13.3951 124.403,12.3741 124.403,12.3741 Z" transform=""/><path fill="#ccaa4f" stroke="none" d="M 124.573,12.1652 C 123.922,11.8282 123.389,11.6282 123.389,11.6282 S 122.84,11.6082 122.231,11.8622 C 122.481,12.7472 123.198,13.6852 123.198,13.6852 L 124.573,12.1652 Z" transform=""/><path fill="#eec65e" stroke="none" d="M 121.203,22.1069 S 122.736,23.1729 125.006,23.0359 C 129.173,22.7819 131.909,23.2829 133.685,26.2439 C 136.067,30.2119 133.289,37.7779 125.427,35.8499 C 113.901,33.0219 114.939,20.0899 114.939,20.0899 L 121.203,22.1069 Z" transform=""/><path fill="#ccaa4f" stroke="none" d="M 116.046,27.8465 C 119.13,27.7555 122.125,27.6105 125.007,23.0355 C 124.34,22.9935 124.834,21.6525 124.068,21.6705 C 121.857,21.7185 120.413,20.6065 120.413,20.6065 L 114.278,17.6995 C 114.278,17.6985 114.698,22.4225 116.046,27.8465 Z" style="opacity: 0.5" opacity="0.5" transform=""/><path fill="#eec65e" stroke="none" d="M 116.8,9.23812 S 116.749,6.78312 115.903,5.23012 C 115.349,4.21012 114.534,2.89712 114.068,1.36312 C 112.806,-2.79288 111.797,3.37812 112.282,8.81712 C 112.619,12.5921 113.585,17.1581 114.937,15.9961 C 116.081,15.0141 116.8,9.23812 116.8,9.23812 Z" transform=""/><path fill="#f7a996" stroke="none" d="M 115.426,13.1548 S 115.959,9.97577 115.168,7.66777 C 114.237,4.95277 113.773,1.36977 113.228,0.956773 C 112.564,0.453773 112.357,3.82577 112.295,5.16977 C 112.201,7.16477 112.521,11.1048 113.092,13.3178 C 113.497,14.8908 113.875,16.0098 114.866,15.8638 C 115.859,15.7178 115.426,13.1548 115.426,13.1548 Z" transform=""/><path fill="#eec65e" stroke="none" d="M 116.2,12.4003 S 118.09,11.2883 119.975,11.4233 C 121.289,11.5173 122.828,11.7553 124.136,13.0203 C 125.916,14.7423 126.338,17.5823 126.36,19.0363 C 126.417,22.8763 123.853,25.3073 119.874,25.2143 C 115.953,25.1233 112.794,22.5603 113.056,18.7333 C 113.206,16.5513 113.91,13.7373 116.2,12.4003 Z" transform=""/><path fill="#eec65e" stroke="none" d="M 119.022,11.5792 S 119.675,10.3842 120.903,10.2032 C 120.903,10.2032 119.348,11.0592 119.316,11.8202 L 119.022,11.5792 Z" transform=""/><ellipse cx="116.83721621831337" cy="19.44108952869727" rx="0.5138158700778146" ry="0.7144260786112823" fill="#304454" stroke="none" transform="rotate(1.5587 116.83721617449199 19.441088335169603)" r="NaN"/><ellipse cx="123.10251863815353" cy="19.44108952869727" rx="0.5138158700778146" ry="0.7144260786112823" fill="#304454" stroke="none" transform="rotate(1.5587 123.10251879396706 19.441088335169603)" r="NaN"/><ellipse cx="120.47872692799022" cy="22.422885832157725" rx="0.8983848469107468" ry="0.6827090495941333" fill="#cda245" stroke="none" transform="rotate(187.0483 120.47872756852341 22.42288552564433)" r="NaN"/><path fill="#eec65e" stroke="none" d="M 119.395,11.4436 S 120.459,10.5936 121.661,10.8996 C 121.661,10.8996 119.896,11.0896 119.573,11.7796 L 119.395,11.4436 Z" transform=""/><path fill="#ccaa4f" stroke="none" d="M 123.81,35.237 C 123.817,35.238 123.823,35.238 123.831,35.239 C 124.425,35.331 125.027,35.095 125.575,34.726 C 124.063,29.726 127.189,27.53 129.627,28.504 C 131.698,29.331 132.884,31.868 131.256,34.666 C 131.112,34.914 130.902,35.093 130.657,35.232 L 130.67,35.244 S 130.126,35.586 129.295,36.004 C 128.225,36.183 126.999,36.143 125.612,35.803 C 124.971,35.646 124.376,35.453 123.81,35.237 Z" style="opacity: 0.5" opacity="0.5" transform=""/><path fill="#eec65e" stroke="none" d="M 124.813,35.8198 C 125.407,35.9118 126.01,35.6758 126.558,35.3068 C 125.046,30.3068 128.171,28.1108 130.61,29.0848 C 132.68,29.9118 133.866,32.4488 132.239,35.2468 C 132.095,35.4948 131.884,35.6738 131.64,35.8128 L 131.652,35.8248 S 129.994,36.8708 128.024,37.5428 C 127.972,37.5988 127.907,37.6248 127.828,37.6078 C 126.319,38.0978 124.656,38.3468 123.429,37.7308 C 122.136,37.0808 123.082,35.5518 124.813,35.8198 Z" transform=""/><path fill="#ccaa4f" stroke="none" d="M 119.642,32.4748 C 120.586,31.6588 121.266,30.6138 121.266,30.6138 L 123.402,32.5928 S 123.269,33.9948 121.974,34.5718 C 121.064,33.9478 120.297,33.2358 119.642,32.4748 Z" style="opacity: 0.5" opacity="0.5" transform=""/><path fill="#eec65e" stroke="none" d="M 123.662,32.5156 S 117.985,36.0826 114.898,34.5466 C 113.521,33.8596 114.531,32.2376 116.375,32.5196 C 118.406,32.8306 120.538,29.5596 120.538,29.5596 L 123.662,32.5156 Z" transform=""/><path fill="none" stroke="#cda245" d="M 124.713,22.2389 S 126.142,22.3039 126.861,22.7049" style="stroke-miterlimit: 10" stroke-miterlimit="10" transform=""/><path fill="none" stroke="#cda245" d="M 124.853,21.5582 S 126.208,21.0992 127.023,21.2122" style="stroke-miterlimit: 10" stroke-miterlimit="10" transform=""/><path fill="none" stroke="#cda245" d="M 115.993,22.9458 S 114.519,23.0108 113.776,23.4118" style="stroke-miterlimit: 10;stroke-width: 0.40268732965897863px" stroke-width="0.40268732965897863" stroke-miterlimit="10" transform=""/><path fill="none" stroke="#cda245" d="M 115.85,22.2647 S 114.452,21.8057 113.611,21.9187" style="stroke-miterlimit: 10;stroke-width: 0.40268732965897863px" stroke-width="0.40268732965897863" stroke-miterlimit="10" transform=""/><path fill="#ccaa4f" stroke="none" d="M 166.947,29.9224 S 161.623,33.2824 158.724,31.8294 C 157.431,31.1794 158.377,29.6494 160.108,29.9174 C 162.015,30.2134 164.012,27.1284 164.012,27.1284 L 166.947,29.9224 Z" style="opacity: 0.8" opacity="0.8" transform=""/><path fill="#e2e2e2" stroke="none" d="M 184.169,26.4593 C 183.994,26.1973 183.697,26.0493 183.391,26.0583 C 183.31,25.9003 183.119,25.8333 182.957,25.9073 C 182.905,25.9303 182.862,25.9653 182.83,26.0073 C 182.588,25.8733 182.287,25.8513 182.016,25.9753 C 181.845,26.0533 181.71,26.1783 181.619,26.3283 C 181.521,26.3333 181.423,26.3553 181.329,26.3983 C 181.042,26.5293 180.872,26.8083 180.863,27.1023 C 180.855,27.1053 180.847,27.1083 180.84,27.1123 C 180.672,27.1883 180.598,27.3863 180.675,27.5533 C 180.679,27.5633 180.684,27.5733 180.689,27.5813 C 180.595,27.8063 180.591,28.0673 180.7,28.3053 C 180.762,28.4403 180.852,28.5523 180.96,28.6383 C 180.908,28.7273 180.899,28.8393 180.945,28.9393 C 180.945,28.9413 180.947,28.9423 180.947,28.9443 C 180.788,29.0843 180.731,29.3163 180.823,29.5193 C 180.936,29.7663 181.228,29.8753 181.475,29.7623 C 181.543,29.7313 181.6,29.6863 181.646,29.6323 C 181.741,29.7123 181.877,29.7343 181.997,29.6793 C 182.015,29.6713 182.031,29.6623 182.047,29.6513 C 182.277,29.8033 182.577,29.8373 182.846,29.7143 C 182.95,29.6673 183.039,29.6013 183.112,29.5223 C 183.2,29.5293 183.292,29.5143 183.378,29.4743 C 183.498,29.4203 183.589,29.3273 183.642,29.2173 C 183.764,29.2253 183.889,29.2043 184.008,29.1503 C 184.292,29.0203 184.458,28.7383 184.453,28.4443 C 184.548,28.3813 184.586,28.2563 184.537,28.1483 C 184.532,28.1373 184.526,28.1263 184.519,28.1163 C 184.722,27.9473 184.795,27.6583 184.68,27.4053 C 184.653,27.3463 184.617,27.2943 184.576,27.2483 C 184.628,27.1043 184.627,26.9413 184.558,26.7913 C 184.482,26.6213 184.336,26.5043 184.169,26.4593 L 184.169,26.4593 M 182.426,27.8853 C 182.428,27.8853 182.43,27.8853 182.432,27.8863 C 182.43,27.8903 182.429,27.8943 182.427,27.8983 C 182.427,27.8933 182.426,27.8893 182.426,27.8853 Z" transform=""/><path fill="#eec65e" stroke="none" d="M 172.972,8.43369 S 174.952,6.77569 176.799,6.74369 C 178.009,6.72369 179.643,6.82469 181.199,6.32969 C 185.407,4.99569 181.261,10.6007 176.603,13.8117 C 173.371,16.0437 169.051,18.0397 168.982,15.5257 C 168.926,13.3967 172.972,8.43369 172.972,8.43369 Z" transform=""/><path fill="#f7a996" stroke="none" d="M 172.022,12.3741 S 173.777,9.91714 175.837,9.44114 C 178.26,8.88114 180.947,7.29314 181.585,7.65414 C 182.361,8.09714 180.26,10.3061 179.409,11.1641 C 178.147,12.4371 175.319,14.3951 173.469,15.0581 C 172.156,15.5321 171.161,15.7701 170.596,14.5831 C 170.032,13.3951 172.022,12.3741 172.022,12.3741 Z" transform=""/><path fill="#ccaa4f" stroke="none" d="M 172.192,12.1652 C 171.541,11.8282 171.008,11.6282 171.008,11.6282 S 170.459,11.6082 169.85,11.8622 C 170.1,12.7472 170.817,13.6852 170.817,13.6852 L 172.192,12.1652 Z" transform=""/><path fill="#eec65e" stroke="none" d="M 168.823,22.1069 S 170.356,23.1729 172.626,23.0359 C 176.793,22.7819 179.529,23.2829 181.305,26.2439 C 183.687,30.2119 180.909,37.7779 173.047,35.8499 C 161.521,33.0219 162.559,20.0899 162.559,20.0899 L 168.823,22.1069 Z" transform=""/><path fill="#ccaa4f" stroke="none" d="M 163.665,27.8465 C 166.749,27.7555 169.744,27.6105 172.626,23.0355 C 171.959,22.9935 172.453,21.6525 171.687,21.6705 C 169.476,21.7185 168.032,20.6065 168.032,20.6065 L 161.897,17.6995 C 161.897,17.6985 162.317,22.4225 163.665,27.8465 Z" style="opacity: 0.5" opacity="0.5" transform=""/><path fill="#eec65e" stroke="none" d="M 164.419,9.23812 S 164.368,6.78312 163.522,5.23012 C 162.968,4.21012 162.153,2.89712 161.687,1.36312 C 160.425,-2.79288 159.416,3.37812 159.901,8.81712 C 160.238,12.5921 161.204,17.1581 162.556,15.9961 C 163.7,15.0141 164.419,9.23812 164.419,9.23812 Z" transform=""/><path fill="#f7a996" stroke="none" d="M 163.045,13.1548 S 163.578,9.97577 162.787,7.66777 C 161.856,4.95277 161.392,1.36977 160.847,0.956773 C 160.183,0.453773 159.976,3.82577 159.914,5.16977 C 159.82,7.16477 160.14,11.1048 160.711,13.3178 C 161.116,14.8908 161.494,16.0098 162.485,15.8638 C 163.478,15.7178 163.045,13.1548 163.045,13.1548 Z" transform=""/><path fill="#eec65e" stroke="none" d="M 163.819,12.4003 S 165.709,11.2883 167.594,11.4233 C 168.908,11.5173 170.447,11.7553 171.755,13.0203 C 173.535,14.7423 173.957,17.5823 173.979,19.0363 C 174.036,22.8763 171.472,25.3073 167.493,25.2143 C 163.572,25.1233 160.413,22.5603 160.675,18.7333 C 160.825,16.5513 161.529,13.7373 163.819,12.4003 Z" transform=""/><path fill="#eec65e" stroke="none" d="M 166.641,11.5792 S 167.294,10.3842 168.522,10.2032 C 168.522,10.2032 166.967,11.0592 166.935,11.8202 L 166.641,11.5792 Z" transform=""/><ellipse cx="164.45626383736095" cy="19.44108952869727" rx="0.5138158700778146" ry="0.7144260786112823" fill="#304454" stroke="none" transform="rotate(1.5587 164.45626379353956 19.441088335169603)" r="NaN"/><ellipse cx="170.72156625720112" cy="19.44108952869727" rx="0.5138158700778146" ry="0.7144260786112823" fill="#304454" stroke="none" transform="rotate(1.5587 170.72156641301464 19.441088335169603)" r="NaN"/><ellipse cx="168.09777454703783" cy="22.422885832157725" rx="0.8983848469107468" ry="0.6827090495941333" fill="#cda245" stroke="none" transform="rotate(187.0483 168.097775187571 22.42288552564433)" r="NaN"/><path fill="#eec65e" stroke="none" d="M 167.014,11.4436 S 168.078,10.5936 169.28,10.8996 C 169.28,10.8996 167.515,11.0896 167.192,11.7796 L 167.014,11.4436 Z" transform=""/><path fill="#ccaa4f" stroke="none" d="M 171.429,35.237 C 171.436,35.238 171.442,35.238 171.45,35.239 C 172.044,35.331 172.646,35.095 173.194,34.726 C 171.682,29.726 174.808,27.53 177.246,28.504 C 179.317,29.331 180.503,31.868 178.875,34.666 C 178.731,34.914 178.521,35.093 178.276,35.232 L 178.289,35.244 S 177.745,35.586 176.914,36.004 C 175.844,36.183 174.618,36.143 173.231,35.803 C 172.59,35.646 171.995,35.453 171.429,35.237 Z" style="opacity: 0.5" opacity="0.5" transform=""/><path fill="#eec65e" stroke="none" d="M 172.432,35.8198 C 173.026,35.9118 173.629,35.6758 174.177,35.3068 C 172.665,30.3068 175.79,28.1108 178.229,29.0848 C 180.299,29.9118 181.485,32.4488 179.858,35.2468 C 179.714,35.4948 179.503,35.6738 179.259,35.8128 L 179.271,35.8248 S 177.613,36.8708 175.643,37.5428 C 175.591,37.5988 175.526,37.6248 175.447,37.6078 C 173.938,38.0978 172.275,38.3468 171.048,37.7308 C 169.755,37.0808 170.701,35.5518 172.432,35.8198 Z" transform=""/><path fill="#ccaa4f" stroke="none" d="M 167.261,32.4748 C 168.205,31.6588 168.885,30.6138 168.885,30.6138 L 171.021,32.5928 S 170.888,33.9948 169.593,34.5718 C 168.683,33.9478 167.916,33.2358 167.261,32.4748 Z" style="opacity: 0.5" opacity="0.5" transform=""/><path fill="#eec65e" stroke="none" d="M 171.281,32.5156 S 165.604,36.0826 162.517,34.5466 C 161.14,33.8596 162.15,32.2376 163.994,32.5196 C 166.025,32.8306 168.157,29.5596 168.157,29.5596 L 171.281,32.5156 Z" transform=""/><path fill="none" stroke="#cda245" d="M 172.332,22.2389 S 173.761,22.3039 174.48,22.7049" style="stroke-miterlimit: 10" stroke-miterlimit="10" transform=""/><path fill="none" stroke="#cda245" d="M 172.472,21.5582 S 173.827,21.0992 174.642,21.2122" style="stroke-miterlimit: 10" stroke-miterlimit="10" transform=""/><path fill="none" stroke="#cda245" d="M 163.612,22.9458 S 162.138,23.0108 161.395,23.4118" style="stroke-miterlimit: 10;stroke-width: 0.40268732965897863px" stroke-width="0.40268732965897863" stroke-miterlimit="10" transform=""/><path fill="none" stroke="#cda245" d="M 163.469,22.2647 S 162.071,21.8057 161.23,21.9187" style="stroke-miterlimit: 10;stroke-width: 0.40268732965897863px" stroke-width="0.40268732965897863" stroke-miterlimit="10" transform=""/></svg>