<svg xmlns="http://www.w3.org/2000/svg" version="1.1" width="400" height="133.33333333333334" viewBox="0 0 400 133.33333333333334"><defs><linearGradient id="r-ab95ddb019d746d2af0776202b76f8bc" x1="0" y1="0" x2="1" y2="2.4492935982947064e-16"><stop offset="0%" stop-color="#f89d6c"/><stop offset="28.83%" stop-color="#fbb069"/><stop offset="65.73%" stop-color="#ffcc5f"/><stop offset="100%" stop-color="#ffcc5f"/></linearGradient><linearGradient id="r-0b0c6065abbc4f148563cf517b849193" x1="0" y1="0" x2="1" y2="2.4492935982947064e-16"><stop offset="0%" stop-color="#f89d6c"/><stop offset="28.83%" stop-color="#fbb069"/><stop offset="65.73%" stop-color="#ffcc5f"/><stop offset="100%" stop-color="#ffcc5f"/></linearGradient><linearGradient id="r-712a5399acbc4ddb811eac60e67d0e6c" x1="0" y1="0" x2="1" y2="2.4492935982947064e-16"><stop offset="0%" stop-color="#f89d6c"/><stop offset="28.83%" stop-color="#fbb069"/><stop offset="65.73%" stop-color="#ffcc5f"/><stop offset="100%" stop-color="#ffcc5f"/></linearGradient><linearGradient id="r-e72f7129016d44468768edecb727141c" x1="0" y1="0" x2="1" y2="2.4492935982947064e-16"><stop offset="0%" stop-color="#f89d6c"/><stop offset="28.83%" stop-color="#fbb069"/><stop offset="65.73%" stop-color="#ffcc5f"/><stop offset="100%" stop-color="#ffcc5f"/></linearGradient><linearGradient id="r-631ce4fe24ce4e9e870e51bcf2f5f338" x1="0" y1="0" x2="1" y2="2.4492935982947064e-16"><stop offset="0%" stop-color="#f89d6c"/><stop offset="28.83%" stop-color="#fbb069"/><stop offset="65.73%" stop-color="#ffcc5f"/><stop offset="100%" stop-color="#ffcc5f"/></linearGradient><linearGradient id="r-0599f5cc31154a57882070aa266c3047" x1="0" y1="0" x2="1" y2="2.4492935982947064e-16"><stop offset="0%" stop-color="#f89d6c"/><stop offset="28.83%" stop-color="#fbb069"/><stop offset="65.73%" stop-color="#ffcc5f"/><stop offset="100%" stop-color="#ffcc5f"/></linearGradient><linearGradient id="r-547c6df4019647a08f987f118b140c7a" x1="0" y1="0" x2="1" y2="2.4492935982947064e-16"><stop offset="0%" stop-color="#f89d6c"/><stop offset="28.83%" stop-color="#fbb069"/><stop offset="65.73%" stop-color="#ffcc5f"/><stop offset="100%" stop-color="#ffcc5f"/></linearGradient></defs><path fill="#ccaa4f" stroke="none" d="M 47.619,80.1232 L 45.883,80.4112 L 9.78405,86.4392 L 9.84105,86.3882 L 9.52405,86.4402 L 9.52405,91.4862 C 9.70905,91.4122 9.91005,91.3702 10.12,91.3702 C 11.044,91.3702 11.794,92.1532 11.794,93.1192 C 11.794,94.0822 11.044,94.8652 10.12,94.8652 C 9.91005,94.8652 9.70905,94.8232 9.52405,94.7492 L 9.52405,100.223 L 47.524,93.8112 L 47.619,80.1232" transform=""/><path fill="#f89c44" stroke="none" d="M 17.2288,79.8885 S 17.2538,81.9035 17.2538,83.0695 L 20.2758,80.0465 L 17.2288,79.8885 Z" transform=""/><path fill="#d78334" stroke="none" d="M 44.2693,85.6181 C 44.2693,86.5431 43.5203,87.2921 42.5953,87.2921 S 40.9193,86.5431 40.9193,85.6181 C 40.9193,84.6911 41.6693,83.9421 42.5953,83.9421 C 43.5203,83.9421 44.2693,84.6911 44.2693,85.6181 Z" transform=""/><path fill="#eec65e" stroke="none" d="M 28.0215,71.2058 C 27.6345,71.2058 27.4235,71.2198 27.4235,71.2198 L 17.2285,79.8878 C 17.9445,80.1648 18.4205,80.6538 18.4205,81.2108 C 18.4205,82.0768 17.2795,82.7778 15.8715,82.7778 C 15.2565,82.7778 14.6925,82.6428 14.2515,82.4208 L 9.52348,86.4408 L 9.84048,86.3878 L 10.5865,85.7018 L 46.2665,78.9538 L 47.4015,80.1568 L 45.8825,80.4108 L 47.6185,80.1228 C 39.9355,71.7768 30.4665,71.2058 28.0215,71.2058" transform=""/><ellipse cx="27.23059870329497" cy="77.93525645882205" rx="2.402555778683186" ry="1.7112470512974292" fill="#f89c44" stroke="none" r="NaN" transform=""/><ellipse cx="20.31286859844861" cy="89.65964627387916" rx="2.767298517684477" ry="2.657411384152263" fill="#d78334" stroke="none" r="NaN" transform=""/><path fill="url(#r-ab95ddb019d746d2af0776202b76f8bc)" stroke="none" d="M 45.883,80.4111 L 9.84004,86.3881 L 9.78404,86.4391 L 45.883,80.4111" opacity="1" fill-opacity="1" style="opacity: 1;fill-opacity: 1" transform=""/><path fill="#eec65e" stroke="none" d="M 46.2669,78.9547 L 10.5869,85.7017 L 9.83987,86.3877 L 45.8829,80.4107 L 47.4019,80.1577 L 46.2669,78.9547" transform=""/><ellipse cx="32.874051627040274" cy="83.76030677503032" rx="2.585185099201513" ry="2.5124429122153993" fill="#d78334" stroke="none" r="NaN" transform=""/><path fill="#ccaa4f" stroke="none" d="M 95.2381,80.1232 L 93.5021,80.4112 L 57.4031,86.4392 L 57.4601,86.3882 L 57.1431,86.4402 L 57.1431,91.4862 C 57.3281,91.4122 57.5291,91.3702 57.7391,91.3702 C 58.6631,91.3702 59.4131,92.1532 59.4131,93.1192 C 59.4131,94.0822 58.6631,94.8652 57.7391,94.8652 C 57.5291,94.8652 57.3281,94.8232 57.1431,94.7492 L 57.1431,100.223 L 95.1431,93.8112 L 95.2381,80.1232" transform=""/><path fill="#f89c44" stroke="none" d="M 64.8479,79.8885 S 64.8729,81.9035 64.8729,83.0695 L 67.8949,80.0465 L 64.8479,79.8885 Z" transform=""/><path fill="#d78334" stroke="none" d="M 91.8883,85.6181 C 91.8883,86.5431 91.1393,87.2921 90.2143,87.2921 C 89.2893,87.2921 88.5383,86.5431 88.5383,85.6181 C 88.5383,84.6911 89.2883,83.9421 90.2143,83.9421 C 91.1393,83.9421 91.8883,84.6911 91.8883,85.6181 Z" transform=""/><path fill="#eec65e" stroke="none" d="M 75.6405,71.2058 C 75.2535,71.2058 75.0425,71.2198 75.0425,71.2198 L 64.8475,79.8878 C 65.5635,80.1648 66.0395,80.6538 66.0395,81.2108 C 66.0395,82.0768 64.8985,82.7778 63.4905,82.7778 C 62.8755,82.7778 62.3115,82.6428 61.8705,82.4208 L 57.1425,86.4408 L 57.4595,86.3878 L 58.2055,85.7018 L 93.8855,78.9538 L 95.0205,80.1568 L 93.5015,80.4108 L 95.2375,80.1228 C 87.5545,71.7768 78.0855,71.2058 75.6405,71.2058" transform=""/><ellipse cx="74.84964632234258" cy="77.93525645882205" rx="2.402555778683186" ry="1.7112470512974292" fill="#f89c44" stroke="none" r="NaN" transform=""/><ellipse cx="67.93191621749622" cy="89.65964627387916" rx="2.767298517684477" ry="2.657411384152263" fill="#d78334" stroke="none" r="NaN" transform=""/><path fill="url(#r-0b0c6065abbc4f148563cf517b849193)" stroke="none" d="M 93.5021,80.4111 L 57.4591,86.3881 L 57.4031,86.4391 L 93.5021,80.4111" opacity="1" fill-opacity="1" style="opacity: 1;fill-opacity: 1" transform=""/><path fill="#eec65e" stroke="none" d="M 93.8859,78.9547 L 58.2059,85.7017 L 57.4589,86.3877 L 93.5019,80.4107 L 95.0209,80.1577 L 93.8859,78.9547" transform=""/><ellipse cx="80.4930992460879" cy="83.76030677503032" rx="2.585185099201513" ry="2.5124429122153993" fill="#d78334" stroke="none" r="NaN" transform=""/><path fill="#ccaa4f" stroke="none" d="M 142.857,80.1232 L 141.121,80.4112 L 105.022,86.4392 L 105.079,86.3882 L 104.762,86.4402 L 104.762,91.4862 C 104.947,91.4122 105.148,91.3702 105.358,91.3702 C 106.282,91.3702 107.032,92.1532 107.032,93.1192 C 107.032,94.0822 106.282,94.8652 105.358,94.8652 C 105.148,94.8652 104.947,94.8232 104.762,94.7492 L 104.762,100.223 L 142.762,93.8112 L 142.857,80.1232" transform=""/><path fill="#f89c44" stroke="none" d="M 112.467,79.8885 S 112.492,81.9035 112.492,83.0695 L 115.514,80.0465 L 112.467,79.8885 Z" transform=""/><path fill="#d78334" stroke="none" d="M 139.507,85.6181 C 139.507,86.5431 138.758,87.2921 137.833,87.2921 S 136.157,86.5431 136.157,85.6181 C 136.157,84.6911 136.907,83.9421 137.833,83.9421 C 138.758,83.9421 139.507,84.6911 139.507,85.6181 Z" transform=""/><path fill="#eec65e" stroke="none" d="M 123.26,71.2058 C 122.873,71.2058 122.662,71.2198 122.662,71.2198 L 112.467,79.8878 C 113.183,80.1648 113.659,80.6538 113.659,81.2108 C 113.659,82.0768 112.518,82.7778 111.11,82.7778 C 110.495,82.7778 109.931,82.6428 109.49,82.4208 L 104.762,86.4408 L 105.079,86.3878 L 105.825,85.7018 L 141.505,78.9538 L 142.64,80.1568 L 141.121,80.4108 L 142.857,80.1228 C 135.174,71.7768 125.705,71.2058 123.26,71.2058" transform=""/><ellipse cx="122.4686939413902" cy="77.93525645882205" rx="2.402555778683186" ry="1.7112470512974292" fill="#f89c44" stroke="none" r="NaN" transform=""/><ellipse cx="115.55096383654384" cy="89.65964627387916" rx="2.767298517684477" ry="2.657411384152263" fill="#d78334" stroke="none" r="NaN" transform=""/><path fill="url(#r-712a5399acbc4ddb811eac60e67d0e6c)" stroke="none" d="M 141.121,80.4111 L 105.078,86.3881 L 105.022,86.4391 L 141.121,80.4111" opacity="1" fill-opacity="1" style="opacity: 1;fill-opacity: 1" transform=""/><path fill="#eec65e" stroke="none" d="M 141.505,78.9547 L 105.825,85.7017 L 105.078,86.3877 L 141.121,80.4107 L 142.64,80.1577 L 141.505,78.9547" transform=""/><ellipse cx="128.11214686513551" cy="83.76030677503032" rx="2.585185099201513" ry="2.5124429122153993" fill="#d78334" stroke="none" r="NaN" transform=""/><path fill="#ccaa4f" stroke="none" d="M 190.476,80.1232 L 188.74,80.4112 L 152.641,86.4392 L 152.698,86.3882 L 152.381,86.4402 L 152.381,91.4862 C 152.566,91.4122 152.767,91.3702 152.977,91.3702 C 153.901,91.3702 154.651,92.1532 154.651,93.1192 C 154.651,94.0822 153.901,94.8652 152.977,94.8652 C 152.767,94.8652 152.566,94.8232 152.381,94.7492 L 152.381,100.223 L 190.381,93.8112 L 190.476,80.1232" transform=""/><path fill="#f89c44" stroke="none" d="M 160.086,79.8885 S 160.111,81.9035 160.111,83.0695 L 163.133,80.0465 L 160.086,79.8885 Z" transform=""/><path fill="#d78334" stroke="none" d="M 187.126,85.6181 C 187.126,86.5431 186.377,87.2921 185.452,87.2921 S 183.776,86.5431 183.776,85.6181 C 183.776,84.6911 184.526,83.9421 185.452,83.9421 C 186.377,83.9421 187.126,84.6911 187.126,85.6181 Z" transform=""/><path fill="#eec65e" stroke="none" d="M 170.879,71.2058 C 170.492,71.2058 170.281,71.2198 170.281,71.2198 L 160.086,79.8878 C 160.802,80.1648 161.278,80.6538 161.278,81.2108 C 161.278,82.0768 160.137,82.7778 158.729,82.7778 C 158.114,82.7778 157.55,82.6428 157.109,82.4208 L 152.381,86.4408 L 152.698,86.3878 L 153.444,85.7018 L 189.124,78.9538 L 190.259,80.1568 L 188.74,80.4108 L 190.476,80.1228 C 182.793,71.7768 173.324,71.2058 170.879,71.2058" transform=""/><ellipse cx="170.08774156043782" cy="77.93525645882205" rx="2.402555778683186" ry="1.7112470512974292" fill="#f89c44" stroke="none" r="NaN" transform=""/><ellipse cx="163.17001145559146" cy="89.65964627387916" rx="2.767298517684477" ry="2.657411384152263" fill="#d78334" stroke="none" r="NaN" transform=""/><path fill="url(#r-e72f7129016d44468768edecb727141c)" stroke="none" d="M 188.74,80.4111 L 152.697,86.3881 L 152.641,86.4391 L 188.74,80.4111" opacity="1" fill-opacity="1" style="opacity: 1;fill-opacity: 1" transform=""/><path fill="#eec65e" stroke="none" d="M 189.124,78.9547 L 153.444,85.7017 L 152.697,86.3877 L 188.74,80.4107 L 190.259,80.1577 L 189.124,78.9547" transform=""/><ellipse cx="175.73119448418313" cy="83.76030677503032" rx="2.585185099201513" ry="2.5124429122153993" fill="#d78334" stroke="none" r="NaN" transform=""/><path fill="#ccaa4f" stroke="none" d="M 47.619,13.4565 L 45.883,13.7445 L 9.78405,19.7725 L 9.84105,19.7215 L 9.52405,19.7735 L 9.52405,24.8195 C 9.70905,24.7455 9.91005,24.7035 10.12,24.7035 C 11.044,24.7035 11.794,25.4865 11.794,26.4525 C 11.794,27.4155 11.044,28.1985 10.12,28.1985 C 9.91005,28.1985 9.70905,28.1565 9.52405,28.0825 L 9.52405,33.5565 L 47.524,27.1445 L 47.619,13.4565" transform=""/><path fill="#f89c44" stroke="none" d="M 17.2288,13.2218 S 17.2538,15.2368 17.2538,16.4028 L 20.2758,13.3798 L 17.2288,13.2218 Z" transform=""/><path fill="#d78334" stroke="none" d="M 44.2693,18.9514 C 44.2693,19.8764 43.5203,20.6254 42.5953,20.6254 S 40.9193,19.8764 40.9193,18.9514 C 40.9193,18.0244 41.6693,17.2754 42.5953,17.2754 C 43.5203,17.2754 44.2693,18.0244 44.2693,18.9514 Z" transform=""/><path fill="#eec65e" stroke="none" d="M 28.0215,4.53916 C 27.6345,4.53916 27.4235,4.55316 27.4235,4.55316 L 17.2285,13.2212 C 17.9445,13.4982 18.4205,13.9872 18.4205,14.5442 C 18.4205,15.4102 17.2795,16.1112 15.8715,16.1112 C 15.2565,16.1112 14.6925,15.9762 14.2515,15.7542 L 9.52348,19.7742 L 9.84048,19.7212 L 10.5865,19.0352 L 46.2665,12.2872 L 47.4015,13.4902 L 45.8825,13.7442 L 47.6185,13.4562 C 39.9355,5.11016 30.4665,4.53916 28.0215,4.53916" transform=""/><ellipse cx="27.23059870329497" cy="11.268589792155385" rx="2.402555778683186" ry="1.7112470512974292" fill="#f89c44" stroke="none" r="NaN" transform=""/><ellipse cx="20.31286859844861" cy="22.99297960721249" rx="2.767298517684477" ry="2.657411384152263" fill="#d78334" stroke="none" r="NaN" transform=""/><path fill="url(#r-631ce4fe24ce4e9e870e51bcf2f5f338)" stroke="none" d="M 45.883,13.7444 L 9.84004,19.7214 L 9.78404,19.7724 L 45.883,13.7444" opacity="1" fill-opacity="1" style="opacity: 1;fill-opacity: 1" transform=""/><path fill="#eec65e" stroke="none" d="M 46.2669,12.288 L 10.5869,19.035 L 9.83987,19.721 L 45.8829,13.744 L 47.4019,13.491 L 46.2669,12.288" transform=""/><ellipse cx="32.874051627040274" cy="17.093640108363658" rx="2.585185099201513" ry="2.5124429122153993" fill="#d78334" stroke="none" r="NaN" transform=""/><path fill="#ccaa4f" stroke="none" d="M 95.2381,13.4565 L 93.5021,13.7445 L 57.4031,19.7725 L 57.4601,19.7215 L 57.1431,19.7735 L 57.1431,24.8195 C 57.3281,24.7455 57.5291,24.7035 57.7391,24.7035 C 58.6631,24.7035 59.4131,25.4865 59.4131,26.4525 C 59.4131,27.4155 58.6631,28.1985 57.7391,28.1985 C 57.5291,28.1985 57.3281,28.1565 57.1431,28.0825 L 57.1431,33.5565 L 95.1431,27.1445 L 95.2381,13.4565" transform=""/><path fill="#f89c44" stroke="none" d="M 64.8479,13.2218 S 64.8729,15.2368 64.8729,16.4028 L 67.8949,13.3798 L 64.8479,13.2218 Z" transform=""/><path fill="#d78334" stroke="none" d="M 91.8883,18.9514 C 91.8883,19.8764 91.1393,20.6254 90.2143,20.6254 C 89.2893,20.6254 88.5383,19.8764 88.5383,18.9514 C 88.5383,18.0244 89.2883,17.2754 90.2143,17.2754 C 91.1393,17.2754 91.8883,18.0244 91.8883,18.9514 Z" transform=""/><path fill="#eec65e" stroke="none" d="M 75.6405,4.53916 C 75.2535,4.53916 75.0425,4.55316 75.0425,4.55316 L 64.8475,13.2212 C 65.5635,13.4982 66.0395,13.9872 66.0395,14.5442 C 66.0395,15.4102 64.8985,16.1112 63.4905,16.1112 C 62.8755,16.1112 62.3115,15.9762 61.8705,15.7542 L 57.1425,19.7742 L 57.4595,19.7212 L 58.2055,19.0352 L 93.8855,12.2872 L 95.0205,13.4902 L 93.5015,13.7442 L 95.2375,13.4562 C 87.5545,5.11016 78.0855,4.53916 75.6405,4.53916" transform=""/><ellipse cx="74.84964632234258" cy="11.268589792155385" rx="2.402555778683186" ry="1.7112470512974292" fill="#f89c44" stroke="none" r="NaN" transform=""/><ellipse cx="67.93191621749622" cy="22.99297960721249" rx="2.767298517684477" ry="2.657411384152263" fill="#d78334" stroke="none" r="NaN" transform=""/><path fill="url(#r-0599f5cc31154a57882070aa266c3047)" stroke="none" d="M 93.5021,13.7444 L 57.4591,19.7214 L 57.4031,19.7724 L 93.5021,13.7444" opacity="1" fill-opacity="1" style="opacity: 1;fill-opacity: 1" transform=""/><path fill="#eec65e" stroke="none" d="M 93.8859,12.288 L 58.2059,19.035 L 57.4589,19.721 L 93.5019,13.744 L 95.0209,13.491 L 93.8859,12.288" transform=""/><ellipse cx="80.4930992460879" cy="17.093640108363658" rx="2.585185099201513" ry="2.5124429122153993" fill="#d78334" stroke="none" r="NaN" transform=""/><path fill="#ccaa4f" stroke="none" d="M 142.857,13.4565 L 141.121,13.7445 L 105.022,19.7725 L 105.079,19.7215 L 104.762,19.7735 L 104.762,24.8195 C 104.947,24.7455 105.148,24.7035 105.358,24.7035 C 106.282,24.7035 107.032,25.4865 107.032,26.4525 C 107.032,27.4155 106.282,28.1985 105.358,28.1985 C 105.148,28.1985 104.947,28.1565 104.762,28.0825 L 104.762,33.5565 L 142.762,27.1445 L 142.857,13.4565" transform=""/><path fill="#f89c44" stroke="none" d="M 112.467,13.2218 S 112.492,15.2368 112.492,16.4028 L 115.514,13.3798 L 112.467,13.2218 Z" transform=""/><path fill="#d78334" stroke="none" d="M 139.507,18.9514 C 139.507,19.8764 138.758,20.6254 137.833,20.6254 S 136.157,19.8764 136.157,18.9514 C 136.157,18.0244 136.907,17.2754 137.833,17.2754 C 138.758,17.2754 139.507,18.0244 139.507,18.9514 Z" transform=""/><path fill="#eec65e" stroke="none" d="M 123.26,4.53916 C 122.873,4.53916 122.662,4.55316 122.662,4.55316 L 112.467,13.2212 C 113.183,13.4982 113.659,13.9872 113.659,14.5442 C 113.659,15.4102 112.518,16.1112 111.11,16.1112 C 110.495,16.1112 109.931,15.9762 109.49,15.7542 L 104.762,19.7742 L 105.079,19.7212 L 105.825,19.0352 L 141.505,12.2872 L 142.64,13.4902 L 141.121,13.7442 L 142.857,13.4562 C 135.174,5.11016 125.705,4.53916 123.26,4.53916" transform=""/><ellipse cx="122.4686939413902" cy="11.268589792155385" rx="2.402555778683186" ry="1.7112470512974292" fill="#f89c44" stroke="none" r="NaN" transform=""/><ellipse cx="115.55096383654384" cy="22.99297960721249" rx="2.767298517684477" ry="2.657411384152263" fill="#d78334" stroke="none" r="NaN" transform=""/><path fill="url(#r-547c6df4019647a08f987f118b140c7a)" stroke="none" d="M 141.121,13.7444 L 105.078,19.7214 L 105.022,19.7724 L 141.121,13.7444" opacity="1" fill-opacity="1" style="opacity: 1;fill-opacity: 1" transform=""/><path fill="#eec65e" stroke="none" d="M 141.505,12.288 L 105.825,19.035 L 105.078,19.721 L 141.121,13.744 L 142.64,13.491 L 141.505,12.288" transform=""/><ellipse cx="128.11214686513551" cy="17.093640108363658" rx="2.585185099201513" ry="2.5124429122153993" fill="#d78334" stroke="none" r="NaN" transform=""/></svg>