<svg xmlns="http://www.w3.org/2000/svg" version="1.1" width="400" height="133.33333333333334" viewBox="0 0 400 133.33333333333334"><defs><linearGradient id="r-47878159b6be46ac9303cb2fdd2509b6" x1="0" y1="1" x2="0.8284485439887714" y2="0"><stop offset="0%" stop-color="#fdd1b0"/><stop offset="100%" stop-color="#eeb490"/></linearGradient><linearGradient id="r-3d89559543034be89e577baf1cb4641c" x1="0" y1="1" x2="0.8284485439887714" y2="0"><stop offset="0%" stop-color="#fdd1b0"/><stop offset="100%" stop-color="#eeb490"/></linearGradient><linearGradient id="r-cda45fd4de7844978e577aa30bec1c2d" x1="0" y1="1" x2="0.8284485439887714" y2="0"><stop offset="0%" stop-color="#fdd1b0"/><stop offset="100%" stop-color="#eeb490"/></linearGradient><linearGradient id="r-a746784df4d8486b8ae75abb97590022" x1="0" y1="1" x2="0.8284485439887714" y2="0"><stop offset="0%" stop-color="#fdd1b0"/><stop offset="100%" stop-color="#eeb490"/></linearGradient><linearGradient id="r-08f187fa480b411c823d31068f758f33" x1="0" y1="1" x2="0.8284485439887714" y2="0"><stop offset="0%" stop-color="#fdd1b0"/><stop offset="100%" stop-color="#eeb490"/></linearGradient><linearGradient id="r-c0b5f7e898f9449d8aa0076fe5059a19" x1="0" y1="1" x2="0.8284485439887714" y2="0"><stop offset="0%" stop-color="#fdd1b0"/><stop offset="100%" stop-color="#eeb490"/></linearGradient><linearGradient id="r-4c2704242bf94c648d1d183db743c5f7" x1="0" y1="1" x2="0.8284485439887714" y2="0"><stop offset="0%" stop-color="#fdd1b0"/><stop offset="100%" stop-color="#eeb490"/></linearGradient></defs><path fill="none" stroke="#edaa84" d="M 32.9186,82.4037 S 35.3566,81.6497 36.9016,81.9227" style="stroke-linecap: round;stroke-linejoin: round;stroke-width: 0.3147357425388278px" stroke-width="0.3147357425388278" stroke-linecap="round" stroke-linejoin="round" transform=""/><path fill="none" stroke="#edaa84" d="M 33.2968,82.3626 S 35.8488,82.3906 37.2348,83.1226" style="stroke-linecap: round;stroke-linejoin: round;stroke-width: 0.3147357425388278px" stroke-width="0.3147357425388278" stroke-linecap="round" stroke-linejoin="round" transform=""/><path fill="#d78334" stroke="none" d="M 41.0749,70.2972 C 38.6739,70.9132 37.7139,72.3162 37.3329,73.3842 C 36.6549,75.2882 37.3019,77.4352 38.2459,78.7182 C 38.4439,78.9882 38.8229,79.0462 39.0909,78.8482 C 39.3599,78.6502 39.4189,78.2712 39.2209,78.0022 C 38.4919,77.0082 37.9459,75.2682 38.4729,73.7902 C 38.8839,72.6392 39.8599,71.8582 41.3759,71.4692 C 43.5609,70.9082 44.8079,71.9582 45.4699,72.9382 C 46.5719,74.5722 46.6419,76.9032 45.9659,77.8192 C 45.4579,78.5092 44.8229,78.9442 44.2099,79.3632 C 42.8999,80.2612 41.5439,81.1872 42.1309,84.2382 C 42.3489,85.3692 42.1619,86.2522 41.5579,86.9362 C 39.8859,88.8322 35.6539,88.5792 35.6119,88.5772 C 35.2779,88.5562 34.9899,88.8082 34.9689,89.1422 C 34.9459,89.4762 35.1989,89.7632 35.5319,89.7842 C 35.7299,89.7972 40.3969,90.0792 42.4639,87.7392 C 43.3209,86.7672 43.6089,85.5122 43.3189,84.0082 C 42.8819,81.7372 43.6389,81.2202 44.8929,80.3622 C 45.5569,79.9082 46.3099,79.3922 46.9409,78.5372 C 48.0069,77.0912 47.7909,74.2172 46.4709,72.2622 C 45.2299,70.4202 43.3129,69.7222 41.0749,70.2972 Z" transform=""/><path fill="#d78334" stroke="none" d="M 30.0065,90.7395 C 29.6125,90.2565 27.2785,89.4955 25.4475,93.0885 C 23.6175,96.6795 22.0115,93.9975 20.7995,95.1285 C 19.5865,96.2595 23.9785,95.8725 25.2525,96.1035 C 26.4275,96.3185 25.3155,95.4245 25.8195,94.6965 C 26.2515,94.0695 26.8115,93.9515 28.3285,93.6505 C 29.8605,93.3485 30.7105,91.6055 30.0065,90.7395 Z" transform=""/><path fill="#d78334" stroke="none" d="M 33.9317,93.1562 C 34.3267,95.4242 37.2417,97.0392 40.5887,94.5012 C 43.9367,91.9632 44.2247,95.2072 45.8737,94.6962 C 47.5237,94.1872 43.2297,92.5572 42.1427,91.7602 C 41.1387,91.0262 41.7747,92.3682 40.9717,92.8222 C 40.2817,93.2132 39.4377,90.2592 37.8477,89.9952 C 34.9707,89.5242 33.5987,91.2402 33.9317,93.1562 Z" transform=""/><path fill="#d78334" stroke="none" d="M 26.2899,79.0939 S 28.3139,75.7579 26.8999,73.0709 C 25.0729,69.6009 19.3359,71.5869 19.9889,75.7789 C 20.3309,77.9759 22.4759,79.4179 22.4759,79.4179 L 26.2899,79.0939 Z" transform=""/><path fill="#f4953f" stroke="none" d="M 29.1264,89.1758 S 31.4424,90.8408 32.9364,89.4688 C 35.1914,87.3928 36.6414,87.6778 37.6114,87.8668 C 40.4094,88.4078 42.8674,95.6598 35.7334,97.4988 C 28.9024,99.2578 24.9964,91.7238 24.9964,91.7238 L 29.1264,89.1758 Z" transform=""/><path fill="url(#r-47878159b6be46ac9303cb2fdd2509b6)" stroke="none" d="M 25.3537,92.3337 L 26.7997,91.4547 S 27.3997,93.7547 30.4087,93.8907 C 32.9507,94.0037 35.1917,89.9197 37.2667,91.6337 C 38.3947,92.5637 39.3877,94.0017 39.2787,95.4987 C 38.5397,96.3527 37.4007,97.0697 35.7337,97.4977 C 30.1027,98.9487 26.4607,94.0877 25.3537,92.3337 Z" opacity="1" fill-opacity="1" style="opacity: 1;fill-opacity: 1" transform=""/><path fill="#eeb490" stroke="none" d="M 37.0018,94.9851 L 39.0158,95.7771 C 38.2788,96.5081 37.2158,97.1171 35.7328,97.4991 C 35.4448,97.5741 35.1638,97.6271 34.8868,97.6691 C 35.8078,96.7671 35.4858,95.6821 35.4858,95.6821 L 37.0018,94.9851 Z" transform=""/><path fill="#eeb490" stroke="none" d="M 37.2666,91.6342 C 38.3936,92.5642 39.3876,94.0032 39.2786,95.4992 C 38.7996,96.0512 38.1506,96.5492 37.2986,96.9462 C 34.4746,96.0432 33.5036,93.9782 33.8586,92.2702 C 35.0516,91.4272 36.1816,90.7382 37.2666,91.6342 Z" transform=""/><path fill="#f4953f" stroke="none" d="M 31.0576,90.728 C 30.5256,90.295 28.0726,89.93 26.8946,94.213 C 25.7156,98.498 23.3866,95.959 22.3306,97.449 C 21.2716,98.939 25.9286,97.544 27.3526,97.514 C 28.6696,97.483 27.2716,96.765 27.6516,95.869 C 27.9806,95.094 28.5186,94.664 30.0886,94.005 C 31.6766,93.337 32.0096,91.505 31.0576,90.728 Z" transform=""/><path fill="#f4953f" stroke="none" d="M 35.376,79.5362 C 35.148,78.0322 33.801,77.1782 33.035,77.4972 C 28.98,79.1882 27.152,77.3262 23.794,77.6312 C 24.329,77.1982 24.935,76.8872 24.935,76.8872 C 24.202,76.9052 23.531,77.3182 23.038,77.7332 C 22.985,77.7432 22.932,77.7512 22.877,77.7622 C 23.334,77.0292 24.357,76.3242 24.357,76.3242 C 23.343,76.4812 22.544,77.3922 22.149,77.9402 C 18.684,78.9852 16.738,82.8452 17.225,86.2332 C 17.373,87.2662 17.873,88.8052 18.666,89.9622 C 18.528,90.7132 18.526,91.5952 18.944,92.3822 C 18.944,92.3822 18.914,91.5122 19.06,90.6902 C 19.01,91.3142 19.078,91.9872 19.404,92.6022 C 19.404,92.6022 19.374,91.7432 19.519,90.9262 C 19.52,90.9272 19.521,90.9282 19.523,90.9302 C 19.545,91.4562 19.663,92.0002 19.958,92.4952 C 19.958,92.4952 19.91,91.9172 19.95,91.2542 C 22.25,92.8842 24.586,92.6332 26.509,92.2052 C 28.401,91.7812 29.425,92.1152 30.63,90.7732 C 30.977,90.3862 30.858,88.8972 31.155,88.4112 C 31.458,87.9172 35.793,82.2662 35.376,79.5362 Z" transform=""/><path fill="#f4953f" stroke="none" d="M 18.0474,84.193 L 17.6174,82.598 L 17.5764,82.62 C 17.2604,83.559 17.1154,84.551 17.1594,85.525 C 17.4614,84.762 18.0474,84.193 18.0474,84.193 Z" transform=""/><path fill="none" stroke="#edaa84" d="M 30.6298,81.6595 S 26.7528,83.5915 24.9568,88.2005" style="stroke-linecap: round;stroke-linejoin: round;stroke-width: 0.3147357425388278px" stroke-width="0.3147357425388278" stroke-linecap="round" stroke-linejoin="round" transform=""/><path fill="none" stroke="#edaa84" d="M 31.3023,82.484 S 28.0583,84.661 26.9743,88.221" style="stroke-linecap: round;stroke-linejoin: round;stroke-width: 0.3147357425388278px" stroke-width="0.3147357425388278" stroke-linecap="round" stroke-linejoin="round" transform=""/><path fill="none" stroke="#edaa84" d="M 31.9929,83.1996 S 29.7769,85.7336 30.0609,88.9296" style="stroke-linecap: round;stroke-linejoin: round;stroke-width: 0.3147357425388278px" stroke-width="0.3147357425388278" stroke-linecap="round" stroke-linejoin="round" transform=""/><path fill="#cc8461" stroke="none" d="M 32.1138,81.8797 C 32.1748,81.9027 32.2408,81.8687 32.2608,81.8087 C 32.2808,81.7497 32.2478,81.6817 32.1878,81.6607 C 32.1268,81.6397 32.0608,81.6727 32.0408,81.7337 C 32.0198,81.7957 32.0508,81.8607 32.1138,81.8797 Z" transform=""/><path fill="#cc8461" stroke="none" d="M 31.363,81.6279 C 31.423,81.6489 31.49,81.6149 31.511,81.5529 C 31.532,81.4949 31.499,81.4299 31.438,81.4069 C 31.377,81.3859 31.311,81.4179 31.291,81.4799 C 31.271,81.5409 31.302,81.6059 31.363,81.6279 Z" transform=""/><path fill="#cc8461" stroke="none" d="M 32.9713,81.162 C 33.0323,81.185 33.0973,81.154 33.1183,81.089 C 33.1383,81.03 33.1073,80.964 33.0463,80.943 C 32.9853,80.923 32.9193,80.955 32.8983,81.017 C 32.8783,81.076 32.9093,81.143 32.9713,81.162 Z" transform=""/><path fill="#cc8461" stroke="none" d="M 34.2245,80.0969 C 34.2855,80.1169 34.3495,80.0849 34.3705,80.0229 C 34.3935,79.9629 34.3595,79.8979 34.2985,79.8769 S 34.1725,79.8869 34.1505,79.9489 C 34.1295,80.0099 34.1625,80.0759 34.2245,80.0969 Z" transform=""/><path fill="#cc8461" stroke="none" d="M 33.2481,80.5076 C 33.3081,80.5276 33.3741,80.4956 33.3941,80.4336 C 33.4151,80.3736 33.3831,80.3076 33.3231,80.2876 C 33.2611,80.2646 33.1951,80.2996 33.1761,80.3606 C 33.1541,80.4206 33.1861,80.4856 33.2481,80.5076 Z" transform=""/><path fill="#cc8461" stroke="none" d="M 33.6744,82.4524 C 33.7354,82.4754 33.8004,82.4414 33.8214,82.3794 C 33.8434,82.3204 33.8084,82.2524 33.7494,82.2314 C 33.6884,82.2134 33.6224,82.2434 33.6024,82.3054 C 33.5814,82.3684 33.6134,82.4324 33.6744,82.4524 Z" transform=""/><path fill="#cc8461" stroke="none" d="M 34.5024,81.7001 C 34.5634,81.7211 34.6284,81.6871 34.6494,81.6291 C 34.6714,81.5671 34.6374,81.5011 34.5774,81.4801 C 34.5174,81.4601 34.4504,81.4921 34.4284,81.5531 C 34.4094,81.6121 34.4414,81.6801 34.5024,81.7001 Z" transform=""/><path fill="#cc8461" stroke="none" d="M 32.6413,82.7507 C 32.7003,82.7707 32.7673,82.7387 32.7893,82.6797 C 32.8083,82.6177 32.7763,82.5517 32.7163,82.5307 C 32.6563,82.5107 32.5873,82.5437 32.5693,82.6037 C 32.5473,82.6637 32.5793,82.7317 32.6413,82.7507 Z" transform=""/><path fill="#cc8461" stroke="none" d="M 33.0215,81.8245 C 33.0825,81.8475 33.1485,81.8135 33.1695,81.7535 C 33.1905,81.6945 33.1565,81.6265 33.0965,81.6055 C 33.0365,81.5855 32.9695,81.6155 32.9485,81.6785 C 32.9285,81.7395 32.9605,81.8045 33.0215,81.8245 Z" transform=""/><path fill="#cc8461" stroke="none" d="M 31.6549,82.4985 C 31.7149,82.5195 31.7819,82.4865 31.8009,82.4265 C 31.8219,82.3665 31.7899,82.2995 31.7279,82.2785 C 31.6679,82.2595 31.6029,82.2915 31.5809,82.3505 C 31.5609,82.4125 31.5929,82.4785 31.6549,82.4985 Z" transform=""/><ellipse cx="33.74711200192371" cy="81.31146739113674" rx="0.1163459086504271" ry="0.1163459086504271" fill="#cc8461" stroke="none" r="0.1163459086504271" transform=""/><path fill="#f4953f" stroke="none" d="M 20.6502,79.8832 S 18.8412,74.1772 14.1462,74.2602 C 9.38117,74.3432 7.57117,82.4352 12.2522,84.3432 C 15.0032,85.4652 18.1402,84.3352 18.1402,84.3352 L 20.6502,79.8832 Z" transform=""/><path fill="#f4dbc5" stroke="none" d="M 20.3282,80.7648 S 18.5642,80.5578 17.7552,78.8298 C 17.0672,77.3608 17.3692,76.0998 16.1362,75.3768 C 14.9032,74.6508 12.8832,74.9258 11.8502,75.7678 C 10.7382,76.6688 8.66522,80.3138 11.0592,83.0408 C 13.2882,85.5798 18.2212,83.9528 18.2212,83.9528 L 20.3282,80.7648 Z" transform=""/><path fill="#e2bda1" stroke="none" d="M 19.9561,80.6841 C 19.4491,80.5361 18.5331,80.1481 17.9361,79.1681 C 17.3511,79.2101 16.1681,80.7271 17.0581,82.1611 C 17.5261,82.9121 18.3311,83.1641 18.9091,83.1901 L 20.2261,80.9071 L 19.9561,80.6841 Z" transform=""/><path fill="#f4953f" stroke="none" d="M 21.1547,78.954 S 18.4707,80.505 17.8217,83.548 C 17.1747,86.595 19.6237,83.272 19.6237,83.272 L 20.6057,82.041 L 21.1547,78.954 Z" transform=""/><path fill="#304454" stroke="none" d="M 33.0345,77.4971 S 34.4045,76.4101 35.1595,77.0351 C 36.2085,77.9031 35.3755,79.5361 35.3755,79.5361 S 33.4225,78.8151 33.0345,77.4971 Z" transform=""/><path fill="#f4953f" stroke="none" d="M 34.7927,90.4506 C 33.2197,92.3126 33.8897,95.7736 38.2207,96.7676 C 42.5517,97.7606 40.1167,100.196 41.6497,101.189 C 43.1847,102.181 41.5907,97.5896 41.4987,96.1666 C 41.4127,94.8546 40.7557,96.2806 39.8437,95.9386 C 39.0557,95.6436 40.8807,92.9516 40.0127,91.4856 C 38.4427,88.8306 36.1197,88.8806 34.7927,90.4506 Z" transform=""/><ellipse cx="26.033678227739774" cy="81.59932338920206" rx="0.5330849176526035" ry="0.8851315895172578" fill="#304454" stroke="none" transform="rotate(-18.3661 26.033678159598775 81.59932297970155)" r="NaN"/><path fill="none" stroke="#edaa84" d="M 80.5377,82.4037 S 82.9757,81.6497 84.5207,81.9227" style="stroke-linecap: round;stroke-linejoin: round;stroke-width: 0.3147357425388278px" stroke-width="0.3147357425388278" stroke-linecap="round" stroke-linejoin="round" transform=""/><path fill="none" stroke="#edaa84" d="M 80.9158,82.3626 S 83.4678,82.3906 84.8538,83.1226" style="stroke-linecap: round;stroke-linejoin: round;stroke-width: 0.3147357425388278px" stroke-width="0.3147357425388278" stroke-linecap="round" stroke-linejoin="round" transform=""/><path fill="#d78334" stroke="none" d="M 88.6939,70.2972 C 86.2929,70.9132 85.3329,72.3162 84.9519,73.3842 C 84.2739,75.2882 84.9209,77.4352 85.8649,78.7182 C 86.0629,78.9882 86.4419,79.0462 86.7099,78.8482 C 86.9789,78.6502 87.0379,78.2712 86.8399,78.0022 C 86.1109,77.0082 85.5649,75.2682 86.0919,73.7902 C 86.5029,72.6392 87.4789,71.8582 88.9949,71.4692 C 91.1799,70.9082 92.4269,71.9582 93.0889,72.9382 C 94.1909,74.5722 94.2609,76.9032 93.5849,77.8192 C 93.0769,78.5092 92.4419,78.9442 91.8289,79.3632 C 90.5189,80.2612 89.1629,81.1872 89.7499,84.2382 C 89.9679,85.3692 89.7809,86.2522 89.1769,86.9362 C 87.5049,88.8322 83.2729,88.5792 83.2309,88.5772 C 82.8969,88.5562 82.6089,88.8082 82.5879,89.1422 C 82.5649,89.4762 82.8179,89.7632 83.1509,89.7842 C 83.3489,89.7972 88.0159,90.0792 90.0829,87.7392 C 90.9399,86.7672 91.2279,85.5122 90.9379,84.0082 C 90.5009,81.7372 91.2579,81.2202 92.5119,80.3622 C 93.1759,79.9082 93.9289,79.3922 94.5599,78.5372 C 95.6259,77.0912 95.4099,74.2172 94.0899,72.2622 C 92.8489,70.4202 90.9319,69.7222 88.6939,70.2972 Z" transform=""/><path fill="#d78334" stroke="none" d="M 77.6255,90.7395 C 77.2315,90.2565 74.8975,89.4955 73.0665,93.0885 C 71.2365,96.6795 69.6305,93.9975 68.4185,95.1285 C 67.2055,96.2595 71.5975,95.8725 72.8715,96.1035 C 74.0465,96.3185 72.9345,95.4245 73.4385,94.6965 C 73.8705,94.0695 74.4305,93.9515 75.9475,93.6505 C 77.4795,93.3485 78.3295,91.6055 77.6255,90.7395 Z" transform=""/><path fill="#d78334" stroke="none" d="M 81.5507,93.1562 C 81.9457,95.4242 84.8607,97.0392 88.2077,94.5012 C 91.5557,91.9632 91.8437,95.2072 93.4927,94.6962 C 95.1427,94.1872 90.8487,92.5572 89.7617,91.7602 C 88.7577,91.0262 89.3937,92.3682 88.5907,92.8222 C 87.9007,93.2132 87.0567,90.2592 85.4667,89.9952 C 82.5897,89.5242 81.2177,91.2402 81.5507,93.1562 Z" transform=""/><path fill="#d78334" stroke="none" d="M 73.909,79.0939 S 75.933,75.7579 74.519,73.0709 C 72.692,69.6009 66.955,71.5869 67.608,75.7789 C 67.95,77.9759 70.095,79.4179 70.095,79.4179 L 73.909,79.0939 Z" transform=""/><path fill="#f4953f" stroke="none" d="M 76.7454,89.1758 S 79.0614,90.8408 80.5554,89.4688 C 82.8104,87.3928 84.2604,87.6778 85.2304,87.8668 C 88.0284,88.4078 90.4864,95.6598 83.3524,97.4988 C 76.5214,99.2578 72.6154,91.7238 72.6154,91.7238 L 76.7454,89.1758 Z" transform=""/><path fill="url(#r-3d89559543034be89e577baf1cb4641c)" stroke="none" d="M 72.9727,92.3337 L 74.4187,91.4547 S 75.0187,93.7547 78.0277,93.8907 C 80.5697,94.0037 82.8107,89.9197 84.8857,91.6337 C 86.0137,92.5637 87.0067,94.0017 86.8977,95.4987 C 86.1587,96.3527 85.0197,97.0697 83.3527,97.4977 C 77.7217,98.9487 74.0797,94.0877 72.9727,92.3337 Z" opacity="1" fill-opacity="1" style="opacity: 1;fill-opacity: 1" transform=""/><path fill="#eeb490" stroke="none" d="M 84.6208,94.9851 L 86.6348,95.7771 C 85.8978,96.5081 84.8348,97.1171 83.3518,97.4991 C 83.0638,97.5741 82.7828,97.6271 82.5058,97.6691 C 83.4268,96.7671 83.1048,95.6821 83.1048,95.6821 L 84.6208,94.9851 Z" transform=""/><path fill="#eeb490" stroke="none" d="M 84.8856,91.6342 C 86.0126,92.5642 87.0066,94.0032 86.8976,95.4992 C 86.4186,96.0512 85.7696,96.5492 84.9176,96.9462 C 82.0936,96.0432 81.1226,93.9782 81.4776,92.2702 C 82.6706,91.4272 83.8006,90.7382 84.8856,91.6342 Z" transform=""/><path fill="#f4953f" stroke="none" d="M 78.6767,90.728 C 78.1447,90.295 75.6917,89.93 74.5137,94.213 C 73.3347,98.498 71.0057,95.959 69.9497,97.449 C 68.8907,98.939 73.5477,97.544 74.9717,97.514 C 76.2887,97.483 74.8907,96.765 75.2707,95.869 C 75.5997,95.094 76.1377,94.664 77.7077,94.005 C 79.2957,93.337 79.6287,91.505 78.6767,90.728 Z" transform=""/><path fill="#f4953f" stroke="none" d="M 82.995,79.5362 C 82.767,78.0322 81.42,77.1782 80.654,77.4972 C 76.599,79.1882 74.771,77.3262 71.413,77.6312 C 71.948,77.1982 72.554,76.8872 72.554,76.8872 C 71.821,76.9052 71.15,77.3182 70.657,77.7332 C 70.604,77.7432 70.551,77.7512 70.496,77.7622 C 70.953,77.0292 71.976,76.3242 71.976,76.3242 C 70.962,76.4812 70.163,77.3922 69.768,77.9402 C 66.303,78.9852 64.357,82.8452 64.844,86.2332 C 64.992,87.2662 65.492,88.8052 66.285,89.9622 C 66.147,90.7132 66.145,91.5952 66.563,92.3822 C 66.563,92.3822 66.533,91.5122 66.679,90.6902 C 66.629,91.3142 66.697,91.9872 67.023,92.6022 C 67.023,92.6022 66.993,91.7432 67.138,90.9262 C 67.139,90.9272 67.14,90.9282 67.142,90.9302 C 67.164,91.4562 67.282,92.0002 67.577,92.4952 C 67.577,92.4952 67.529,91.9172 67.569,91.2542 C 69.869,92.8842 72.205,92.6332 74.128,92.2052 C 76.02,91.7812 77.044,92.1152 78.249,90.7732 C 78.596,90.3862 78.477,88.8972 78.774,88.4112 C 79.077,87.9172 83.412,82.2662 82.995,79.5362 Z" transform=""/><path fill="#f4953f" stroke="none" d="M 65.6665,84.193 L 65.2365,82.598 L 65.1955,82.62 C 64.8795,83.559 64.7345,84.551 64.7785,85.525 C 65.0805,84.762 65.6665,84.193 65.6665,84.193 Z" transform=""/><path fill="none" stroke="#edaa84" d="M 78.2489,81.6595 S 74.3719,83.5915 72.5759,88.2005" style="stroke-linecap: round;stroke-linejoin: round;stroke-width: 0.3147357425388278px" stroke-width="0.3147357425388278" stroke-linecap="round" stroke-linejoin="round" transform=""/><path fill="none" stroke="#edaa84" d="M 78.9214,82.484 S 75.6774,84.661 74.5934,88.221" style="stroke-linecap: round;stroke-linejoin: round;stroke-width: 0.3147357425388278px" stroke-width="0.3147357425388278" stroke-linecap="round" stroke-linejoin="round" transform=""/><path fill="none" stroke="#edaa84" d="M 79.6119,83.1996 S 77.3959,85.7336 77.6799,88.9296" style="stroke-linecap: round;stroke-linejoin: round;stroke-width: 0.3147357425388278px" stroke-width="0.3147357425388278" stroke-linecap="round" stroke-linejoin="round" transform=""/><path fill="#cc8461" stroke="none" d="M 79.7328,81.8797 C 79.7938,81.9027 79.8598,81.8687 79.8798,81.8087 C 79.8998,81.7497 79.8668,81.6817 79.8068,81.6607 C 79.7458,81.6397 79.6798,81.6727 79.6598,81.7337 C 79.6388,81.7957 79.6698,81.8607 79.7328,81.8797 Z" transform=""/><path fill="#cc8461" stroke="none" d="M 78.9821,81.6279 C 79.0421,81.6489 79.1091,81.6149 79.1301,81.5529 C 79.1511,81.4949 79.1181,81.4299 79.0571,81.4069 C 78.9961,81.3859 78.9301,81.4179 78.9101,81.4799 C 78.8901,81.5409 78.9211,81.6059 78.9821,81.6279 Z" transform=""/><path fill="#cc8461" stroke="none" d="M 80.5904,81.162 C 80.6514,81.185 80.7164,81.154 80.7374,81.089 C 80.7574,81.03 80.7264,80.964 80.6654,80.943 C 80.6044,80.923 80.5384,80.955 80.5174,81.017 C 80.4974,81.076 80.5284,81.143 80.5904,81.162 Z" transform=""/><path fill="#cc8461" stroke="none" d="M 81.8436,80.0969 C 81.9046,80.1169 81.9686,80.0849 81.9896,80.0229 C 82.0126,79.9629 81.9786,79.8979 81.9176,79.8769 S 81.7916,79.8869 81.7696,79.9489 C 81.7486,80.0099 81.7816,80.0759 81.8436,80.0969 Z" transform=""/><path fill="#cc8461" stroke="none" d="M 80.8672,80.5076 C 80.9272,80.5276 80.9932,80.4956 81.0132,80.4336 C 81.0342,80.3736 81.0022,80.3076 80.9422,80.2876 C 80.8802,80.2646 80.8142,80.2996 80.7952,80.3606 C 80.7732,80.4206 80.8052,80.4856 80.8672,80.5076 Z" transform=""/><path fill="#cc8461" stroke="none" d="M 81.2934,82.4524 C 81.3544,82.4754 81.4194,82.4414 81.4404,82.3794 C 81.4624,82.3204 81.4274,82.2524 81.3684,82.2314 C 81.3074,82.2134 81.2414,82.2434 81.2214,82.3054 C 81.2004,82.3684 81.2324,82.4324 81.2934,82.4524 Z" transform=""/><path fill="#cc8461" stroke="none" d="M 82.1214,81.7001 C 82.1824,81.7211 82.2474,81.6871 82.2684,81.6291 C 82.2904,81.5671 82.2564,81.5011 82.1964,81.4801 C 82.1364,81.4601 82.0694,81.4921 82.0474,81.5531 C 82.0284,81.6121 82.0604,81.6801 82.1214,81.7001 Z" transform=""/><path fill="#cc8461" stroke="none" d="M 80.2604,82.7507 C 80.3194,82.7707 80.3864,82.7387 80.4084,82.6797 C 80.4274,82.6177 80.3954,82.5517 80.3354,82.5307 C 80.2754,82.5107 80.2064,82.5437 80.1884,82.6037 C 80.1664,82.6637 80.1984,82.7317 80.2604,82.7507 Z" transform=""/><path fill="#cc8461" stroke="none" d="M 80.6405,81.8245 C 80.7015,81.8475 80.7675,81.8135 80.7885,81.7535 C 80.8095,81.6945 80.7755,81.6265 80.7155,81.6055 C 80.6555,81.5855 80.5885,81.6155 80.5675,81.6785 C 80.5475,81.7395 80.5795,81.8045 80.6405,81.8245 Z" transform=""/><path fill="#cc8461" stroke="none" d="M 79.2739,82.4985 C 79.3339,82.5195 79.4009,82.4865 79.4199,82.4265 C 79.4409,82.3665 79.4089,82.2995 79.3469,82.2785 C 79.2869,82.2595 79.2219,82.2915 79.1999,82.3505 C 79.1799,82.4125 79.2119,82.4785 79.2739,82.4985 Z" transform=""/><ellipse cx="81.36615962097133" cy="81.31146739113674" rx="0.1163459086504271" ry="0.1163459086504271" fill="#cc8461" stroke="none" r="0.1163459086504271" transform=""/><path fill="#f4953f" stroke="none" d="M 68.2692,79.8832 S 66.4602,74.1772 61.7652,74.2602 C 57.0002,74.3432 55.1902,82.4352 59.8712,84.3432 C 62.6222,85.4652 65.7592,84.3352 65.7592,84.3352 L 68.2692,79.8832 Z" transform=""/><path fill="#f4dbc5" stroke="none" d="M 67.9473,80.7648 S 66.1833,80.5578 65.3743,78.8298 C 64.6863,77.3608 64.9883,76.0998 63.7553,75.3768 C 62.5223,74.6508 60.5023,74.9258 59.4693,75.7678 C 58.3573,76.6688 56.2843,80.3138 58.6783,83.0408 C 60.9073,85.5798 65.8403,83.9528 65.8403,83.9528 L 67.9473,80.7648 Z" transform=""/><path fill="#e2bda1" stroke="none" d="M 67.5752,80.6841 C 67.0682,80.5361 66.1522,80.1481 65.5552,79.1681 C 64.9702,79.2101 63.7872,80.7271 64.6772,82.1611 C 65.1452,82.9121 65.9502,83.1641 66.5282,83.1901 L 67.8452,80.9071 L 67.5752,80.6841 Z" transform=""/><path fill="#f4953f" stroke="none" d="M 68.7737,78.954 S 66.0897,80.505 65.4407,83.548 C 64.7937,86.595 67.2427,83.272 67.2427,83.272 L 68.2247,82.041 L 68.7737,78.954 Z" transform=""/><path fill="#304454" stroke="none" d="M 80.6535,77.4971 S 82.0235,76.4101 82.7785,77.0351 C 83.8275,77.9031 82.9945,79.5361 82.9945,79.5361 S 81.0415,78.8151 80.6535,77.4971 Z" transform=""/><path fill="#f4953f" stroke="none" d="M 82.4118,90.4506 C 80.8388,92.3126 81.5088,95.7736 85.8398,96.7676 C 90.1708,97.7606 87.7358,100.196 89.2688,101.189 C 90.8038,102.181 89.2098,97.5896 89.1178,96.1666 C 89.0318,94.8546 88.3748,96.2806 87.4628,95.9386 C 86.6748,95.6436 88.4998,92.9516 87.6318,91.4856 C 86.0618,88.8306 83.7388,88.8806 82.4118,90.4506 Z" transform=""/><ellipse cx="73.65272584678739" cy="81.59932338920206" rx="0.5330849176526035" ry="0.8851315895172578" fill="#304454" stroke="none" transform="rotate(-18.3661 73.65272577864638 81.59932297970155)" r="NaN"/><path fill="none" stroke="#edaa84" d="M 128.157,82.4037 S 130.595,81.6497 132.14,81.9227" style="stroke-linecap: round;stroke-linejoin: round;stroke-width: 0.3147357425388278px" stroke-width="0.3147357425388278" stroke-linecap="round" stroke-linejoin="round" transform=""/><path fill="none" stroke="#edaa84" d="M 128.535,82.3626 S 131.087,82.3906 132.473,83.1226" style="stroke-linecap: round;stroke-linejoin: round;stroke-width: 0.3147357425388278px" stroke-width="0.3147357425388278" stroke-linecap="round" stroke-linejoin="round" transform=""/><path fill="#d78334" stroke="none" d="M 136.313,70.2972 C 133.912,70.9132 132.952,72.3162 132.571,73.3842 C 131.893,75.2882 132.54,77.4352 133.484,78.7182 C 133.682,78.9882 134.061,79.0462 134.329,78.8482 C 134.598,78.6502 134.657,78.2712 134.459,78.0022 C 133.73,77.0082 133.184,75.2682 133.711,73.7902 C 134.122,72.6392 135.098,71.8582 136.614,71.4692 C 138.799,70.9082 140.046,71.9582 140.708,72.9382 C 141.81,74.5722 141.88,76.9032 141.204,77.8192 C 140.696,78.5092 140.061,78.9442 139.448,79.3632 C 138.138,80.2612 136.782,81.1872 137.369,84.2382 C 137.587,85.3692 137.4,86.2522 136.796,86.9362 C 135.124,88.8322 130.892,88.5792 130.85,88.5772 C 130.516,88.5562 130.228,88.8082 130.207,89.1422 C 130.184,89.4762 130.437,89.7632 130.77,89.7842 C 130.968,89.7972 135.635,90.0792 137.702,87.7392 C 138.559,86.7672 138.847,85.5122 138.557,84.0082 C 138.12,81.7372 138.877,81.2202 140.131,80.3622 C 140.795,79.9082 141.548,79.3922 142.179,78.5372 C 143.245,77.0912 143.029,74.2172 141.709,72.2622 C 140.468,70.4202 138.551,69.7222 136.313,70.2972 Z" transform=""/><path fill="#d78334" stroke="none" d="M 125.245,90.7395 C 124.851,90.2565 122.517,89.4955 120.686,93.0885 C 118.856,96.6795 117.25,93.9975 116.038,95.1285 C 114.825,96.2595 119.217,95.8725 120.491,96.1035 C 121.666,96.3185 120.554,95.4245 121.058,94.6965 C 121.49,94.0695 122.05,93.9515 123.567,93.6505 C 125.099,93.3485 125.949,91.6055 125.245,90.7395 Z" transform=""/><path fill="#d78334" stroke="none" d="M 129.17,93.1562 C 129.565,95.4242 132.48,97.0392 135.827,94.5012 C 139.175,91.9632 139.463,95.2072 141.112,94.6962 C 142.762,94.1872 138.468,92.5572 137.381,91.7602 C 136.377,91.0262 137.013,92.3682 136.21,92.8222 C 135.52,93.2132 134.676,90.2592 133.086,89.9952 C 130.209,89.5242 128.837,91.2402 129.17,93.1562 Z" transform=""/><path fill="#d78334" stroke="none" d="M 121.528,79.0939 S 123.552,75.7579 122.138,73.0709 C 120.311,69.6009 114.574,71.5869 115.227,75.7789 C 115.569,77.9759 117.714,79.4179 117.714,79.4179 L 121.528,79.0939 Z" transform=""/><path fill="#f4953f" stroke="none" d="M 124.364,89.1758 S 126.68,90.8408 128.174,89.4688 C 130.429,87.3928 131.879,87.6778 132.849,87.8668 C 135.647,88.4078 138.105,95.6598 130.971,97.4988 C 124.14,99.2578 120.234,91.7238 120.234,91.7238 L 124.364,89.1758 Z" transform=""/><path fill="url(#r-cda45fd4de7844978e577aa30bec1c2d)" stroke="none" d="M 120.592,92.3337 L 122.038,91.4547 S 122.638,93.7547 125.647,93.8907 C 128.189,94.0037 130.43,89.9197 132.505,91.6337 C 133.633,92.5637 134.626,94.0017 134.517,95.4987 C 133.778,96.3527 132.639,97.0697 130.972,97.4977 C 125.341,98.9487 121.699,94.0877 120.592,92.3337 Z" opacity="1" fill-opacity="1" style="opacity: 1;fill-opacity: 1" transform=""/><path fill="#eeb490" stroke="none" d="M 132.24,94.9851 L 134.254,95.7771 C 133.517,96.5081 132.454,97.1171 130.971,97.4991 C 130.683,97.5741 130.402,97.6271 130.125,97.6691 C 131.046,96.7671 130.724,95.6821 130.724,95.6821 L 132.24,94.9851 Z" transform=""/><path fill="#eeb490" stroke="none" d="M 132.505,91.6342 C 133.632,92.5642 134.626,94.0032 134.517,95.4992 C 134.038,96.0512 133.389,96.5492 132.537,96.9462 C 129.713,96.0432 128.742,93.9782 129.097,92.2702 C 130.29,91.4272 131.42,90.7382 132.505,91.6342 Z" transform=""/><path fill="#f4953f" stroke="none" d="M 126.296,90.728 C 125.764,90.295 123.311,89.93 122.133,94.213 C 120.954,98.498 118.625,95.959 117.569,97.449 C 116.51,98.939 121.167,97.544 122.591,97.514 C 123.908,97.483 122.51,96.765 122.89,95.869 C 123.219,95.094 123.757,94.664 125.327,94.005 C 126.915,93.337 127.248,91.505 126.296,90.728 Z" transform=""/><path fill="#f4953f" stroke="none" d="M 130.614,79.5362 C 130.386,78.0322 129.039,77.1782 128.273,77.4972 C 124.218,79.1882 122.39,77.3262 119.032,77.6312 C 119.567,77.1982 120.173,76.8872 120.173,76.8872 C 119.44,76.9052 118.769,77.3182 118.276,77.7332 C 118.223,77.7432 118.17,77.7512 118.115,77.7622 C 118.572,77.0292 119.595,76.3242 119.595,76.3242 C 118.581,76.4812 117.782,77.3922 117.387,77.9402 C 113.922,78.9852 111.976,82.8452 112.463,86.2332 C 112.611,87.2662 113.111,88.8052 113.904,89.9622 C 113.766,90.7132 113.764,91.5952 114.182,92.3822 C 114.182,92.3822 114.152,91.5122 114.298,90.6902 C 114.248,91.3142 114.316,91.9872 114.642,92.6022 C 114.642,92.6022 114.612,91.7432 114.757,90.9262 C 114.758,90.9272 114.759,90.9282 114.761,90.9302 C 114.783,91.4562 114.901,92.0002 115.196,92.4952 C 115.196,92.4952 115.148,91.9172 115.188,91.2542 C 117.488,92.8842 119.824,92.6332 121.747,92.2052 C 123.639,91.7812 124.663,92.1152 125.868,90.7732 C 126.215,90.3862 126.096,88.8972 126.393,88.4112 C 126.696,87.9172 131.031,82.2662 130.614,79.5362 Z" transform=""/><path fill="#f4953f" stroke="none" d="M 113.286,84.193 L 112.856,82.598 L 112.815,82.62 C 112.499,83.559 112.354,84.551 112.398,85.525 C 112.7,84.762 113.286,84.193 113.286,84.193 Z" transform=""/><path fill="none" stroke="#edaa84" d="M 125.868,81.6595 S 121.991,83.5915 120.195,88.2005" style="stroke-linecap: round;stroke-linejoin: round;stroke-width: 0.3147357425388278px" stroke-width="0.3147357425388278" stroke-linecap="round" stroke-linejoin="round" transform=""/><path fill="none" stroke="#edaa84" d="M 126.54,82.484 S 123.296,84.661 122.212,88.221" style="stroke-linecap: round;stroke-linejoin: round;stroke-width: 0.3147357425388278px" stroke-width="0.3147357425388278" stroke-linecap="round" stroke-linejoin="round" transform=""/><path fill="none" stroke="#edaa84" d="M 127.231,83.1996 S 125.015,85.7336 125.299,88.9296" style="stroke-linecap: round;stroke-linejoin: round;stroke-width: 0.3147357425388278px" stroke-width="0.3147357425388278" stroke-linecap="round" stroke-linejoin="round" transform=""/><path fill="#cc8461" stroke="none" d="M 127.352,81.8797 C 127.413,81.9027 127.479,81.8687 127.499,81.8087 C 127.519,81.7497 127.486,81.6817 127.426,81.6607 C 127.365,81.6397 127.299,81.6727 127.279,81.7337 C 127.258,81.7957 127.289,81.8607 127.352,81.8797 Z" transform=""/><path fill="#cc8461" stroke="none" d="M 126.601,81.6279 C 126.661,81.6489 126.728,81.6149 126.749,81.5529 C 126.77,81.4949 126.737,81.4299 126.676,81.4069 C 126.615,81.3859 126.549,81.4179 126.529,81.4799 C 126.509,81.5409 126.54,81.6059 126.601,81.6279 Z" transform=""/><path fill="#cc8461" stroke="none" d="M 128.209,81.162 C 128.27,81.185 128.335,81.154 128.356,81.089 C 128.376,81.03 128.345,80.964 128.284,80.943 C 128.223,80.923 128.157,80.955 128.136,81.017 C 128.116,81.076 128.147,81.143 128.209,81.162 Z" transform=""/><path fill="#cc8461" stroke="none" d="M 129.463,80.0969 C 129.524,80.1169 129.588,80.0849 129.609,80.0229 C 129.632,79.9629 129.598,79.8979 129.537,79.8769 S 129.411,79.8869 129.389,79.9489 C 129.368,80.0099 129.401,80.0759 129.463,80.0969 Z" transform=""/><path fill="#cc8461" stroke="none" d="M 128.486,80.5076 C 128.546,80.5276 128.612,80.4956 128.632,80.4336 C 128.653,80.3736 128.621,80.3076 128.561,80.2876 C 128.499,80.2646 128.433,80.2996 128.414,80.3606 C 128.392,80.4206 128.424,80.4856 128.486,80.5076 Z" transform=""/><path fill="#cc8461" stroke="none" d="M 128.912,82.4524 C 128.973,82.4754 129.038,82.4414 129.059,82.3794 C 129.081,82.3204 129.046,82.2524 128.987,82.2314 C 128.926,82.2134 128.86,82.2434 128.84,82.3054 C 128.819,82.3684 128.851,82.4324 128.912,82.4524 Z" transform=""/><path fill="#cc8461" stroke="none" d="M 129.74,81.7001 C 129.801,81.7211 129.866,81.6871 129.887,81.6291 C 129.909,81.5671 129.875,81.5011 129.815,81.4801 C 129.755,81.4601 129.688,81.4921 129.666,81.5531 C 129.647,81.6121 129.679,81.6801 129.74,81.7001 Z" transform=""/><path fill="#cc8461" stroke="none" d="M 127.879,82.7507 C 127.938,82.7707 128.005,82.7387 128.027,82.6797 C 128.046,82.6177 128.014,82.5517 127.954,82.5307 C 127.894,82.5107 127.825,82.5437 127.807,82.6037 C 127.785,82.6637 127.817,82.7317 127.879,82.7507 Z" transform=""/><path fill="#cc8461" stroke="none" d="M 128.26,81.8245 C 128.321,81.8475 128.387,81.8135 128.408,81.7535 C 128.429,81.6945 128.395,81.6265 128.335,81.6055 C 128.275,81.5855 128.208,81.6155 128.187,81.6785 C 128.167,81.7395 128.199,81.8045 128.26,81.8245 Z" transform=""/><path fill="#cc8461" stroke="none" d="M 126.893,82.4985 C 126.953,82.5195 127.02,82.4865 127.039,82.4265 C 127.06,82.3665 127.028,82.2995 126.966,82.2785 C 126.906,82.2595 126.841,82.2915 126.819,82.3505 C 126.799,82.4125 126.831,82.4785 126.893,82.4985 Z" transform=""/><ellipse cx="128.98520724001895" cy="81.31146739113674" rx="0.1163459086504271" ry="0.1163459086504271" fill="#cc8461" stroke="none" r="0.1163459086504271" transform=""/><path fill="#f4953f" stroke="none" d="M 115.888,79.8832 S 114.079,74.1772 109.384,74.2602 C 104.619,74.3432 102.809,82.4352 107.49,84.3432 C 110.241,85.4652 113.378,84.3352 113.378,84.3352 L 115.888,79.8832 Z" transform=""/><path fill="#f4dbc5" stroke="none" d="M 115.566,80.7648 S 113.802,80.5578 112.993,78.8298 C 112.305,77.3608 112.607,76.0998 111.374,75.3768 C 110.141,74.6508 108.121,74.9258 107.088,75.7678 C 105.976,76.6688 103.903,80.3138 106.297,83.0408 C 108.526,85.5798 113.459,83.9528 113.459,83.9528 L 115.566,80.7648 Z" transform=""/><path fill="#e2bda1" stroke="none" d="M 115.194,80.6841 C 114.687,80.5361 113.771,80.1481 113.174,79.1681 C 112.589,79.2101 111.406,80.7271 112.296,82.1611 C 112.764,82.9121 113.569,83.1641 114.147,83.1901 L 115.464,80.9071 L 115.194,80.6841 Z" transform=""/><path fill="#f4953f" stroke="none" d="M 116.393,78.954 S 113.709,80.505 113.06,83.548 C 112.413,86.595 114.862,83.272 114.862,83.272 L 115.844,82.041 L 116.393,78.954 Z" transform=""/><path fill="#304454" stroke="none" d="M 128.273,77.4971 S 129.643,76.4101 130.398,77.0351 C 131.447,77.9031 130.614,79.5361 130.614,79.5361 S 128.661,78.8151 128.273,77.4971 Z" transform=""/><path fill="#f4953f" stroke="none" d="M 130.031,90.4506 C 128.458,92.3126 129.128,95.7736 133.459,96.7676 C 137.79,97.7606 135.355,100.196 136.888,101.189 C 138.423,102.181 136.829,97.5896 136.737,96.1666 C 136.651,94.8546 135.994,96.2806 135.082,95.9386 C 134.294,95.6436 136.119,92.9516 135.251,91.4856 C 133.681,88.8306 131.358,88.8806 130.031,90.4506 Z" transform=""/><ellipse cx="121.27177346583501" cy="81.59932338920206" rx="0.5330849176526035" ry="0.8851315895172578" fill="#304454" stroke="none" transform="rotate(-18.3661 121.271773397694 81.59932297970155)" r="NaN"/><path fill="none" stroke="#edaa84" d="M 32.9186,15.737 S 35.3566,14.983 36.9016,15.256" style="stroke-linecap: round;stroke-linejoin: round;stroke-width: 0.3147357425388278px" stroke-width="0.3147357425388278" stroke-linecap="round" stroke-linejoin="round" transform=""/><path fill="none" stroke="#edaa84" d="M 33.2968,15.6959 S 35.8488,15.7239 37.2348,16.4559" style="stroke-linecap: round;stroke-linejoin: round;stroke-width: 0.3147357425388278px" stroke-width="0.3147357425388278" stroke-linecap="round" stroke-linejoin="round" transform=""/><path fill="#d78334" stroke="none" d="M 41.0749,3.63055 C 38.6739,4.24655 37.7139,5.64955 37.3329,6.71755 C 36.6549,8.62155 37.3019,10.7686 38.2459,12.0516 C 38.4439,12.3216 38.8229,12.3796 39.0909,12.1816 C 39.3599,11.9836 39.4189,11.6046 39.2209,11.3356 C 38.4919,10.3416 37.9459,8.60155 38.4729,7.12355 C 38.8839,5.97255 39.8599,5.19155 41.3759,4.80255 C 43.5609,4.24155 44.8079,5.29155 45.4699,6.27155 C 46.5719,7.90555 46.6419,10.2366 45.9659,11.1526 C 45.4579,11.8426 44.8229,12.2776 44.2099,12.6966 C 42.8999,13.5946 41.5439,14.5206 42.1309,17.5716 C 42.3489,18.7026 42.1619,19.5856 41.5579,20.2696 C 39.8859,22.1656 35.6539,21.9126 35.6119,21.9106 C 35.2779,21.8896 34.9899,22.1416 34.9689,22.4756 C 34.9459,22.8096 35.1989,23.0966 35.5319,23.1176 C 35.7299,23.1306 40.3969,23.4126 42.4639,21.0726 C 43.3209,20.1006 43.6089,18.8456 43.3189,17.3416 C 42.8819,15.0706 43.6389,14.5536 44.8929,13.6956 C 45.5569,13.2416 46.3099,12.7256 46.9409,11.8706 C 48.0069,10.4246 47.7909,7.55055 46.4709,5.59555 C 45.2299,3.75355 43.3129,3.05555 41.0749,3.63055 Z" transform=""/><path fill="#d78334" stroke="none" d="M 30.0065,24.0728 C 29.6125,23.5898 27.2785,22.8288 25.4475,26.4218 C 23.6175,30.0128 22.0115,27.3308 20.7995,28.4618 C 19.5865,29.5928 23.9785,29.2058 25.2525,29.4368 C 26.4275,29.6518 25.3155,28.7578 25.8195,28.0298 C 26.2515,27.4028 26.8115,27.2848 28.3285,26.9838 C 29.8605,26.6818 30.7105,24.9388 30.0065,24.0728 Z" transform=""/><path fill="#d78334" stroke="none" d="M 33.9317,26.4895 C 34.3267,28.7575 37.2417,30.3725 40.5887,27.8345 C 43.9367,25.2965 44.2247,28.5405 45.8737,28.0295 C 47.5237,27.5205 43.2297,25.8905 42.1427,25.0935 C 41.1387,24.3595 41.7747,25.7015 40.9717,26.1555 C 40.2817,26.5465 39.4377,23.5925 37.8477,23.3285 C 34.9707,22.8575 33.5987,24.5735 33.9317,26.4895 Z" transform=""/><path fill="#d78334" stroke="none" d="M 26.2899,12.4272 S 28.3139,9.09121 26.8999,6.40421 C 25.0729,2.93421 19.3359,4.92021 19.9889,9.11221 C 20.3309,11.3092 22.4759,12.7512 22.4759,12.7512 L 26.2899,12.4272 Z" transform=""/><path fill="#f4953f" stroke="none" d="M 29.1264,22.5092 S 31.4424,24.1742 32.9364,22.8022 C 35.1914,20.7262 36.6414,21.0112 37.6114,21.2002 C 40.4094,21.7412 42.8674,28.9932 35.7334,30.8322 C 28.9024,32.5912 24.9964,25.0572 24.9964,25.0572 L 29.1264,22.5092 Z" transform=""/><path fill="url(#r-a746784df4d8486b8ae75abb97590022)" stroke="none" d="M 25.3537,25.6671 L 26.7997,24.7881 S 27.3997,27.0881 30.4087,27.2241 C 32.9507,27.3371 35.1917,23.2531 37.2667,24.9671 C 38.3947,25.8971 39.3877,27.3351 39.2787,28.8321 C 38.5397,29.6861 37.4007,30.4031 35.7337,30.8311 C 30.1027,32.2821 26.4607,27.4211 25.3537,25.6671 Z" opacity="1" fill-opacity="1" style="opacity: 1;fill-opacity: 1" transform=""/><path fill="#eeb490" stroke="none" d="M 37.0018,28.3185 L 39.0158,29.1105 C 38.2788,29.8415 37.2158,30.4505 35.7328,30.8325 C 35.4448,30.9075 35.1638,30.9605 34.8868,31.0025 C 35.8078,30.1005 35.4858,29.0155 35.4858,29.0155 L 37.0018,28.3185 Z" transform=""/><path fill="#eeb490" stroke="none" d="M 37.2666,24.9675 C 38.3936,25.8975 39.3876,27.3365 39.2786,28.8325 C 38.7996,29.3845 38.1506,29.8825 37.2986,30.2795 C 34.4746,29.3765 33.5036,27.3115 33.8586,25.6035 C 35.0516,24.7605 36.1816,24.0715 37.2666,24.9675 Z" transform=""/><path fill="#f4953f" stroke="none" d="M 31.0576,24.0613 C 30.5256,23.6283 28.0726,23.2633 26.8946,27.5463 C 25.7156,31.8313 23.3866,29.2923 22.3306,30.7823 C 21.2716,32.2723 25.9286,30.8773 27.3526,30.8473 C 28.6696,30.8163 27.2716,30.0983 27.6516,29.2023 C 27.9806,28.4273 28.5186,27.9973 30.0886,27.3383 C 31.6766,26.6703 32.0096,24.8383 31.0576,24.0613 Z" transform=""/><path fill="#f4953f" stroke="none" d="M 35.376,12.8695 C 35.148,11.3655 33.801,10.5115 33.035,10.8305 C 28.98,12.5215 27.152,10.6595 23.794,10.9645 C 24.329,10.5315 24.935,10.2205 24.935,10.2205 C 24.202,10.2385 23.531,10.6515 23.038,11.0665 C 22.985,11.0765 22.932,11.0845 22.877,11.0955 C 23.334,10.3625 24.357,9.65752 24.357,9.65752 C 23.343,9.81452 22.544,10.7255 22.149,11.2735 C 18.684,12.3185 16.738,16.1785 17.225,19.5665 C 17.373,20.5995 17.873,22.1385 18.666,23.2955 C 18.528,24.0465 18.526,24.9285 18.944,25.7155 C 18.944,25.7155 18.914,24.8455 19.06,24.0235 C 19.01,24.6475 19.078,25.3205 19.404,25.9355 C 19.404,25.9355 19.374,25.0765 19.519,24.2595 C 19.52,24.2605 19.521,24.2615 19.523,24.2635 C 19.545,24.7895 19.663,25.3335 19.958,25.8285 C 19.958,25.8285 19.91,25.2505 19.95,24.5875 C 22.25,26.2175 24.586,25.9665 26.509,25.5385 C 28.401,25.1145 29.425,25.4485 30.63,24.1065 C 30.977,23.7195 30.858,22.2305 31.155,21.7445 C 31.458,21.2505 35.793,15.5995 35.376,12.8695 Z" transform=""/><path fill="#f4953f" stroke="none" d="M 18.0474,17.5264 L 17.6174,15.9314 L 17.5764,15.9534 C 17.2604,16.8924 17.1154,17.8844 17.1594,18.8584 C 17.4614,18.0954 18.0474,17.5264 18.0474,17.5264 Z" transform=""/><path fill="none" stroke="#edaa84" d="M 30.6298,14.9928 S 26.7528,16.9248 24.9568,21.5338" style="stroke-linecap: round;stroke-linejoin: round;stroke-width: 0.3147357425388278px" stroke-width="0.3147357425388278" stroke-linecap="round" stroke-linejoin="round" transform=""/><path fill="none" stroke="#edaa84" d="M 31.3023,15.8173 S 28.0583,17.9943 26.9743,21.5543" style="stroke-linecap: round;stroke-linejoin: round;stroke-width: 0.3147357425388278px" stroke-width="0.3147357425388278" stroke-linecap="round" stroke-linejoin="round" transform=""/><path fill="none" stroke="#edaa84" d="M 31.9929,16.5329 S 29.7769,19.0669 30.0609,22.2629" style="stroke-linecap: round;stroke-linejoin: round;stroke-width: 0.3147357425388278px" stroke-width="0.3147357425388278" stroke-linecap="round" stroke-linejoin="round" transform=""/><path fill="#cc8461" stroke="none" d="M 32.1138,15.213 C 32.1748,15.236 32.2408,15.202 32.2608,15.142 C 32.2808,15.083 32.2478,15.015 32.1878,14.994 C 32.1268,14.973 32.0608,15.006 32.0408,15.067 C 32.0198,15.129 32.0508,15.194 32.1138,15.213 Z" transform=""/><path fill="#cc8461" stroke="none" d="M 31.363,14.9612 C 31.423,14.9822 31.49,14.9482 31.511,14.8862 C 31.532,14.8282 31.499,14.7632 31.438,14.7402 C 31.377,14.7192 31.311,14.7512 31.291,14.8132 C 31.271,14.8742 31.302,14.9392 31.363,14.9612 Z" transform=""/><path fill="#cc8461" stroke="none" d="M 32.9713,14.4954 C 33.0323,14.5184 33.0973,14.4874 33.1183,14.4224 C 33.1383,14.3634 33.1073,14.2974 33.0463,14.2764 C 32.9853,14.2564 32.9193,14.2884 32.8983,14.3504 C 32.8783,14.4094 32.9093,14.4764 32.9713,14.4954 Z" transform=""/><path fill="#cc8461" stroke="none" d="M 34.2245,13.4302 C 34.2855,13.4502 34.3495,13.4182 34.3705,13.3562 C 34.3935,13.2962 34.3595,13.2312 34.2985,13.2102 S 34.1725,13.2202 34.1505,13.2822 C 34.1295,13.3432 34.1625,13.4092 34.2245,13.4302 Z" transform=""/><path fill="#cc8461" stroke="none" d="M 33.2481,13.8409 C 33.3081,13.8609 33.3741,13.8289 33.3941,13.7669 C 33.4151,13.7069 33.3831,13.6409 33.3231,13.6209 C 33.2611,13.5979 33.1951,13.6329 33.1761,13.6939 C 33.1541,13.7539 33.1861,13.8189 33.2481,13.8409 Z" transform=""/><path fill="#cc8461" stroke="none" d="M 33.6744,15.7857 C 33.7354,15.8087 33.8004,15.7747 33.8214,15.7127 C 33.8434,15.6537 33.8084,15.5857 33.7494,15.5647 C 33.6884,15.5467 33.6224,15.5767 33.6024,15.6387 C 33.5814,15.7017 33.6134,15.7657 33.6744,15.7857 Z" transform=""/><path fill="#cc8461" stroke="none" d="M 34.5024,15.0335 C 34.5634,15.0545 34.6284,15.0205 34.6494,14.9625 C 34.6714,14.9005 34.6374,14.8345 34.5774,14.8135 C 34.5174,14.7935 34.4504,14.8255 34.4284,14.8865 C 34.4094,14.9455 34.4414,15.0135 34.5024,15.0335 Z" transform=""/><path fill="#cc8461" stroke="none" d="M 32.6413,16.0841 C 32.7003,16.1041 32.7673,16.0721 32.7893,16.0131 C 32.8083,15.9511 32.7763,15.8851 32.7163,15.8641 C 32.6563,15.8441 32.5873,15.8771 32.5693,15.9371 C 32.5473,15.9971 32.5793,16.0651 32.6413,16.0841 Z" transform=""/><path fill="#cc8461" stroke="none" d="M 33.0215,15.1578 C 33.0825,15.1808 33.1485,15.1468 33.1695,15.0868 C 33.1905,15.0278 33.1565,14.9598 33.0965,14.9388 C 33.0365,14.9188 32.9695,14.9488 32.9485,15.0118 C 32.9285,15.0728 32.9605,15.1378 33.0215,15.1578 Z" transform=""/><path fill="#cc8461" stroke="none" d="M 31.6549,15.8318 C 31.7149,15.8528 31.7819,15.8198 31.8009,15.7598 C 31.8219,15.6998 31.7899,15.6328 31.7279,15.6118 C 31.6679,15.5928 31.6029,15.6248 31.5809,15.6838 C 31.5609,15.7458 31.5929,15.8118 31.6549,15.8318 Z" transform=""/><ellipse cx="33.74711200192371" cy="14.644800724470086" rx="0.1163459086504271" ry="0.1163459086504271" fill="#cc8461" stroke="none" r="0.1163459086504271" transform=""/><path fill="#f4953f" stroke="none" d="M 20.6502,13.2166 S 18.8412,7.51055 14.1462,7.59355 C 9.38117,7.67655 7.57117,15.7686 12.2522,17.6766 C 15.0032,18.7986 18.1402,17.6686 18.1402,17.6686 L 20.6502,13.2166 Z" transform=""/><path fill="#f4dbc5" stroke="none" d="M 20.3282,14.0982 S 18.5642,13.8912 17.7552,12.1632 C 17.0672,10.6942 17.3692,9.43318 16.1362,8.71018 C 14.9032,7.98418 12.8832,8.25918 11.8502,9.10118 C 10.7382,10.0022 8.66522,13.6472 11.0592,16.3742 C 13.2882,18.9132 18.2212,17.2862 18.2212,17.2862 L 20.3282,14.0982 Z" transform=""/><path fill="#e2bda1" stroke="none" d="M 19.9561,14.0174 C 19.4491,13.8694 18.5331,13.4814 17.9361,12.5014 C 17.3511,12.5434 16.1681,14.0604 17.0581,15.4944 C 17.5261,16.2454 18.3311,16.4974 18.9091,16.5234 L 20.2261,14.2404 L 19.9561,14.0174 Z" transform=""/><path fill="#f4953f" stroke="none" d="M 21.1547,12.2873 S 18.4707,13.8383 17.8217,16.8813 C 17.1747,19.9283 19.6237,16.6053 19.6237,16.6053 L 20.6057,15.3743 L 21.1547,12.2873 Z" transform=""/><path fill="#304454" stroke="none" d="M 33.0345,10.8305 S 34.4045,9.74346 35.1595,10.3685 C 36.2085,11.2365 35.3755,12.8695 35.3755,12.8695 S 33.4225,12.1485 33.0345,10.8305 Z" transform=""/><path fill="#f4953f" stroke="none" d="M 34.7927,23.784 C 33.2197,25.646 33.8897,29.107 38.2207,30.101 C 42.5517,31.094 40.1167,33.529 41.6497,34.522 C 43.1847,35.514 41.5907,30.923 41.4987,29.5 C 41.4127,28.188 40.7557,29.614 39.8437,29.272 C 39.0557,28.977 40.8807,26.285 40.0127,24.819 C 38.4427,22.164 36.1197,22.214 34.7927,23.784 Z" transform=""/><ellipse cx="26.033678227739774" cy="14.932656722535395" rx="0.5330849176526035" ry="0.8851315895172578" fill="#304454" stroke="none" transform="rotate(-18.3661 26.033678159598775 14.932656313034892)" r="NaN"/><path fill="none" stroke="#edaa84" d="M 80.5377,15.737 S 82.9757,14.983 84.5207,15.256" style="stroke-linecap: round;stroke-linejoin: round;stroke-width: 0.3147357425388278px" stroke-width="0.3147357425388278" stroke-linecap="round" stroke-linejoin="round" transform=""/><path fill="none" stroke="#edaa84" d="M 80.9158,15.6959 S 83.4678,15.7239 84.8538,16.4559" style="stroke-linecap: round;stroke-linejoin: round;stroke-width: 0.3147357425388278px" stroke-width="0.3147357425388278" stroke-linecap="round" stroke-linejoin="round" transform=""/><path fill="#d78334" stroke="none" d="M 88.6939,3.63055 C 86.2929,4.24655 85.3329,5.64955 84.9519,6.71755 C 84.2739,8.62155 84.9209,10.7686 85.8649,12.0516 C 86.0629,12.3216 86.4419,12.3796 86.7099,12.1816 C 86.9789,11.9836 87.0379,11.6046 86.8399,11.3356 C 86.1109,10.3416 85.5649,8.60155 86.0919,7.12355 C 86.5029,5.97255 87.4789,5.19155 88.9949,4.80255 C 91.1799,4.24155 92.4269,5.29155 93.0889,6.27155 C 94.1909,7.90555 94.2609,10.2366 93.5849,11.1526 C 93.0769,11.8426 92.4419,12.2776 91.8289,12.6966 C 90.5189,13.5946 89.1629,14.5206 89.7499,17.5716 C 89.9679,18.7026 89.7809,19.5856 89.1769,20.2696 C 87.5049,22.1656 83.2729,21.9126 83.2309,21.9106 C 82.8969,21.8896 82.6089,22.1416 82.5879,22.4756 C 82.5649,22.8096 82.8179,23.0966 83.1509,23.1176 C 83.3489,23.1306 88.0159,23.4126 90.0829,21.0726 C 90.9399,20.1006 91.2279,18.8456 90.9379,17.3416 C 90.5009,15.0706 91.2579,14.5536 92.5119,13.6956 C 93.1759,13.2416 93.9289,12.7256 94.5599,11.8706 C 95.6259,10.4246 95.4099,7.55055 94.0899,5.59555 C 92.8489,3.75355 90.9319,3.05555 88.6939,3.63055 Z" transform=""/><path fill="#d78334" stroke="none" d="M 77.6255,24.0728 C 77.2315,23.5898 74.8975,22.8288 73.0665,26.4218 C 71.2365,30.0128 69.6305,27.3308 68.4185,28.4618 C 67.2055,29.5928 71.5975,29.2058 72.8715,29.4368 C 74.0465,29.6518 72.9345,28.7578 73.4385,28.0298 C 73.8705,27.4028 74.4305,27.2848 75.9475,26.9838 C 77.4795,26.6818 78.3295,24.9388 77.6255,24.0728 Z" transform=""/><path fill="#d78334" stroke="none" d="M 81.5507,26.4895 C 81.9457,28.7575 84.8607,30.3725 88.2077,27.8345 C 91.5557,25.2965 91.8437,28.5405 93.4927,28.0295 C 95.1427,27.5205 90.8487,25.8905 89.7617,25.0935 C 88.7577,24.3595 89.3937,25.7015 88.5907,26.1555 C 87.9007,26.5465 87.0567,23.5925 85.4667,23.3285 C 82.5897,22.8575 81.2177,24.5735 81.5507,26.4895 Z" transform=""/><path fill="#d78334" stroke="none" d="M 73.909,12.4272 S 75.933,9.09121 74.519,6.40421 C 72.692,2.93421 66.955,4.92021 67.608,9.11221 C 67.95,11.3092 70.095,12.7512 70.095,12.7512 L 73.909,12.4272 Z" transform=""/><path fill="#f4953f" stroke="none" d="M 76.7454,22.5092 S 79.0614,24.1742 80.5554,22.8022 C 82.8104,20.7262 84.2604,21.0112 85.2304,21.2002 C 88.0284,21.7412 90.4864,28.9932 83.3524,30.8322 C 76.5214,32.5912 72.6154,25.0572 72.6154,25.0572 L 76.7454,22.5092 Z" transform=""/><path fill="url(#r-08f187fa480b411c823d31068f758f33)" stroke="none" d="M 72.9727,25.6671 L 74.4187,24.7881 S 75.0187,27.0881 78.0277,27.2241 C 80.5697,27.3371 82.8107,23.2531 84.8857,24.9671 C 86.0137,25.8971 87.0067,27.3351 86.8977,28.8321 C 86.1587,29.6861 85.0197,30.4031 83.3527,30.8311 C 77.7217,32.2821 74.0797,27.4211 72.9727,25.6671 Z" opacity="1" fill-opacity="1" style="opacity: 1;fill-opacity: 1" transform=""/><path fill="#eeb490" stroke="none" d="M 84.6208,28.3185 L 86.6348,29.1105 C 85.8978,29.8415 84.8348,30.4505 83.3518,30.8325 C 83.0638,30.9075 82.7828,30.9605 82.5058,31.0025 C 83.4268,30.1005 83.1048,29.0155 83.1048,29.0155 L 84.6208,28.3185 Z" transform=""/><path fill="#eeb490" stroke="none" d="M 84.8856,24.9675 C 86.0126,25.8975 87.0066,27.3365 86.8976,28.8325 C 86.4186,29.3845 85.7696,29.8825 84.9176,30.2795 C 82.0936,29.3765 81.1226,27.3115 81.4776,25.6035 C 82.6706,24.7605 83.8006,24.0715 84.8856,24.9675 Z" transform=""/><path fill="#f4953f" stroke="none" d="M 78.6767,24.0613 C 78.1447,23.6283 75.6917,23.2633 74.5137,27.5463 C 73.3347,31.8313 71.0057,29.2923 69.9497,30.7823 C 68.8907,32.2723 73.5477,30.8773 74.9717,30.8473 C 76.2887,30.8163 74.8907,30.0983 75.2707,29.2023 C 75.5997,28.4273 76.1377,27.9973 77.7077,27.3383 C 79.2957,26.6703 79.6287,24.8383 78.6767,24.0613 Z" transform=""/><path fill="#f4953f" stroke="none" d="M 82.995,12.8695 C 82.767,11.3655 81.42,10.5115 80.654,10.8305 C 76.599,12.5215 74.771,10.6595 71.413,10.9645 C 71.948,10.5315 72.554,10.2205 72.554,10.2205 C 71.821,10.2385 71.15,10.6515 70.657,11.0665 C 70.604,11.0765 70.551,11.0845 70.496,11.0955 C 70.953,10.3625 71.976,9.65752 71.976,9.65752 C 70.962,9.81452 70.163,10.7255 69.768,11.2735 C 66.303,12.3185 64.357,16.1785 64.844,19.5665 C 64.992,20.5995 65.492,22.1385 66.285,23.2955 C 66.147,24.0465 66.145,24.9285 66.563,25.7155 C 66.563,25.7155 66.533,24.8455 66.679,24.0235 C 66.629,24.6475 66.697,25.3205 67.023,25.9355 C 67.023,25.9355 66.993,25.0765 67.138,24.2595 C 67.139,24.2605 67.14,24.2615 67.142,24.2635 C 67.164,24.7895 67.282,25.3335 67.577,25.8285 C 67.577,25.8285 67.529,25.2505 67.569,24.5875 C 69.869,26.2175 72.205,25.9665 74.128,25.5385 C 76.02,25.1145 77.044,25.4485 78.249,24.1065 C 78.596,23.7195 78.477,22.2305 78.774,21.7445 C 79.077,21.2505 83.412,15.5995 82.995,12.8695 Z" transform=""/><path fill="#f4953f" stroke="none" d="M 65.6665,17.5264 L 65.2365,15.9314 L 65.1955,15.9534 C 64.8795,16.8924 64.7345,17.8844 64.7785,18.8584 C 65.0805,18.0954 65.6665,17.5264 65.6665,17.5264 Z" transform=""/><path fill="none" stroke="#edaa84" d="M 78.2489,14.9928 S 74.3719,16.9248 72.5759,21.5338" style="stroke-linecap: round;stroke-linejoin: round;stroke-width: 0.3147357425388278px" stroke-width="0.3147357425388278" stroke-linecap="round" stroke-linejoin="round" transform=""/><path fill="none" stroke="#edaa84" d="M 78.9214,15.8173 S 75.6774,17.9943 74.5934,21.5543" style="stroke-linecap: round;stroke-linejoin: round;stroke-width: 0.3147357425388278px" stroke-width="0.3147357425388278" stroke-linecap="round" stroke-linejoin="round" transform=""/><path fill="none" stroke="#edaa84" d="M 79.6119,16.5329 S 77.3959,19.0669 77.6799,22.2629" style="stroke-linecap: round;stroke-linejoin: round;stroke-width: 0.3147357425388278px" stroke-width="0.3147357425388278" stroke-linecap="round" stroke-linejoin="round" transform=""/><path fill="#cc8461" stroke="none" d="M 79.7328,15.213 C 79.7938,15.236 79.8598,15.202 79.8798,15.142 C 79.8998,15.083 79.8668,15.015 79.8068,14.994 C 79.7458,14.973 79.6798,15.006 79.6598,15.067 C 79.6388,15.129 79.6698,15.194 79.7328,15.213 Z" transform=""/><path fill="#cc8461" stroke="none" d="M 78.9821,14.9612 C 79.0421,14.9822 79.1091,14.9482 79.1301,14.8862 C 79.1511,14.8282 79.1181,14.7632 79.0571,14.7402 C 78.9961,14.7192 78.9301,14.7512 78.9101,14.8132 C 78.8901,14.8742 78.9211,14.9392 78.9821,14.9612 Z" transform=""/><path fill="#cc8461" stroke="none" d="M 80.5904,14.4954 C 80.6514,14.5184 80.7164,14.4874 80.7374,14.4224 C 80.7574,14.3634 80.7264,14.2974 80.6654,14.2764 C 80.6044,14.2564 80.5384,14.2884 80.5174,14.3504 C 80.4974,14.4094 80.5284,14.4764 80.5904,14.4954 Z" transform=""/><path fill="#cc8461" stroke="none" d="M 81.8436,13.4302 C 81.9046,13.4502 81.9686,13.4182 81.9896,13.3562 C 82.0126,13.2962 81.9786,13.2312 81.9176,13.2102 S 81.7916,13.2202 81.7696,13.2822 C 81.7486,13.3432 81.7816,13.4092 81.8436,13.4302 Z" transform=""/><path fill="#cc8461" stroke="none" d="M 80.8672,13.8409 C 80.9272,13.8609 80.9932,13.8289 81.0132,13.7669 C 81.0342,13.7069 81.0022,13.6409 80.9422,13.6209 C 80.8802,13.5979 80.8142,13.6329 80.7952,13.6939 C 80.7732,13.7539 80.8052,13.8189 80.8672,13.8409 Z" transform=""/><path fill="#cc8461" stroke="none" d="M 81.2934,15.7857 C 81.3544,15.8087 81.4194,15.7747 81.4404,15.7127 C 81.4624,15.6537 81.4274,15.5857 81.3684,15.5647 C 81.3074,15.5467 81.2414,15.5767 81.2214,15.6387 C 81.2004,15.7017 81.2324,15.7657 81.2934,15.7857 Z" transform=""/><path fill="#cc8461" stroke="none" d="M 82.1214,15.0335 C 82.1824,15.0545 82.2474,15.0205 82.2684,14.9625 C 82.2904,14.9005 82.2564,14.8345 82.1964,14.8135 C 82.1364,14.7935 82.0694,14.8255 82.0474,14.8865 C 82.0284,14.9455 82.0604,15.0135 82.1214,15.0335 Z" transform=""/><path fill="#cc8461" stroke="none" d="M 80.2604,16.0841 C 80.3194,16.1041 80.3864,16.0721 80.4084,16.0131 C 80.4274,15.9511 80.3954,15.8851 80.3354,15.8641 C 80.2754,15.8441 80.2064,15.8771 80.1884,15.9371 C 80.1664,15.9971 80.1984,16.0651 80.2604,16.0841 Z" transform=""/><path fill="#cc8461" stroke="none" d="M 80.6405,15.1578 C 80.7015,15.1808 80.7675,15.1468 80.7885,15.0868 C 80.8095,15.0278 80.7755,14.9598 80.7155,14.9388 C 80.6555,14.9188 80.5885,14.9488 80.5675,15.0118 C 80.5475,15.0728 80.5795,15.1378 80.6405,15.1578 Z" transform=""/><path fill="#cc8461" stroke="none" d="M 79.2739,15.8318 C 79.3339,15.8528 79.4009,15.8198 79.4199,15.7598 C 79.4409,15.6998 79.4089,15.6328 79.3469,15.6118 C 79.2869,15.5928 79.2219,15.6248 79.1999,15.6838 C 79.1799,15.7458 79.2119,15.8118 79.2739,15.8318 Z" transform=""/><ellipse cx="81.36615962097133" cy="14.644800724470086" rx="0.1163459086504271" ry="0.1163459086504271" fill="#cc8461" stroke="none" r="0.1163459086504271" transform=""/><path fill="#f4953f" stroke="none" d="M 68.2692,13.2166 S 66.4602,7.51055 61.7652,7.59355 C 57.0002,7.67655 55.1902,15.7686 59.8712,17.6766 C 62.6222,18.7986 65.7592,17.6686 65.7592,17.6686 L 68.2692,13.2166 Z" transform=""/><path fill="#f4dbc5" stroke="none" d="M 67.9473,14.0982 S 66.1833,13.8912 65.3743,12.1632 C 64.6863,10.6942 64.9883,9.43318 63.7553,8.71018 C 62.5223,7.98418 60.5023,8.25918 59.4693,9.10118 C 58.3573,10.0022 56.2843,13.6472 58.6783,16.3742 C 60.9073,18.9132 65.8403,17.2862 65.8403,17.2862 L 67.9473,14.0982 Z" transform=""/><path fill="#e2bda1" stroke="none" d="M 67.5752,14.0174 C 67.0682,13.8694 66.1522,13.4814 65.5552,12.5014 C 64.9702,12.5434 63.7872,14.0604 64.6772,15.4944 C 65.1452,16.2454 65.9502,16.4974 66.5282,16.5234 L 67.8452,14.2404 L 67.5752,14.0174 Z" transform=""/><path fill="#f4953f" stroke="none" d="M 68.7737,12.2873 S 66.0897,13.8383 65.4407,16.8813 C 64.7937,19.9283 67.2427,16.6053 67.2427,16.6053 L 68.2247,15.3743 L 68.7737,12.2873 Z" transform=""/><path fill="#304454" stroke="none" d="M 80.6535,10.8305 S 82.0235,9.74346 82.7785,10.3685 C 83.8275,11.2365 82.9945,12.8695 82.9945,12.8695 S 81.0415,12.1485 80.6535,10.8305 Z" transform=""/><path fill="#f4953f" stroke="none" d="M 82.4118,23.784 C 80.8388,25.646 81.5088,29.107 85.8398,30.101 C 90.1708,31.094 87.7358,33.529 89.2688,34.522 C 90.8038,35.514 89.2098,30.923 89.1178,29.5 C 89.0318,28.188 88.3748,29.614 87.4628,29.272 C 86.6748,28.977 88.4998,26.285 87.6318,24.819 C 86.0618,22.164 83.7388,22.214 82.4118,23.784 Z" transform=""/><ellipse cx="73.65272584678739" cy="14.932656722535395" rx="0.5330849176526035" ry="0.8851315895172578" fill="#304454" stroke="none" transform="rotate(-18.3661 73.65272577864638 14.932656313034892)" r="NaN"/><path fill="none" stroke="#edaa84" d="M 128.157,15.737 S 130.595,14.983 132.14,15.256" style="stroke-linecap: round;stroke-linejoin: round;stroke-width: 0.3147357425388278px" stroke-width="0.3147357425388278" stroke-linecap="round" stroke-linejoin="round" transform=""/><path fill="none" stroke="#edaa84" d="M 128.535,15.6959 S 131.087,15.7239 132.473,16.4559" style="stroke-linecap: round;stroke-linejoin: round;stroke-width: 0.3147357425388278px" stroke-width="0.3147357425388278" stroke-linecap="round" stroke-linejoin="round" transform=""/><path fill="#d78334" stroke="none" d="M 136.313,3.63055 C 133.912,4.24655 132.952,5.64955 132.571,6.71755 C 131.893,8.62155 132.54,10.7686 133.484,12.0516 C 133.682,12.3216 134.061,12.3796 134.329,12.1816 C 134.598,11.9836 134.657,11.6046 134.459,11.3356 C 133.73,10.3416 133.184,8.60155 133.711,7.12355 C 134.122,5.97255 135.098,5.19155 136.614,4.80255 C 138.799,4.24155 140.046,5.29155 140.708,6.27155 C 141.81,7.90555 141.88,10.2366 141.204,11.1526 C 140.696,11.8426 140.061,12.2776 139.448,12.6966 C 138.138,13.5946 136.782,14.5206 137.369,17.5716 C 137.587,18.7026 137.4,19.5856 136.796,20.2696 C 135.124,22.1656 130.892,21.9126 130.85,21.9106 C 130.516,21.8896 130.228,22.1416 130.207,22.4756 C 130.184,22.8096 130.437,23.0966 130.77,23.1176 C 130.968,23.1306 135.635,23.4126 137.702,21.0726 C 138.559,20.1006 138.847,18.8456 138.557,17.3416 C 138.12,15.0706 138.877,14.5536 140.131,13.6956 C 140.795,13.2416 141.548,12.7256 142.179,11.8706 C 143.245,10.4246 143.029,7.55055 141.709,5.59555 C 140.468,3.75355 138.551,3.05555 136.313,3.63055 Z" transform=""/><path fill="#d78334" stroke="none" d="M 125.245,24.0728 C 124.851,23.5898 122.517,22.8288 120.686,26.4218 C 118.856,30.0128 117.25,27.3308 116.038,28.4618 C 114.825,29.5928 119.217,29.2058 120.491,29.4368 C 121.666,29.6518 120.554,28.7578 121.058,28.0298 C 121.49,27.4028 122.05,27.2848 123.567,26.9838 C 125.099,26.6818 125.949,24.9388 125.245,24.0728 Z" transform=""/><path fill="#d78334" stroke="none" d="M 129.17,26.4895 C 129.565,28.7575 132.48,30.3725 135.827,27.8345 C 139.175,25.2965 139.463,28.5405 141.112,28.0295 C 142.762,27.5205 138.468,25.8905 137.381,25.0935 C 136.377,24.3595 137.013,25.7015 136.21,26.1555 C 135.52,26.5465 134.676,23.5925 133.086,23.3285 C 130.209,22.8575 128.837,24.5735 129.17,26.4895 Z" transform=""/><path fill="#d78334" stroke="none" d="M 121.528,12.4272 S 123.552,9.09121 122.138,6.40421 C 120.311,2.93421 114.574,4.92021 115.227,9.11221 C 115.569,11.3092 117.714,12.7512 117.714,12.7512 L 121.528,12.4272 Z" transform=""/><path fill="#f4953f" stroke="none" d="M 124.364,22.5092 S 126.68,24.1742 128.174,22.8022 C 130.429,20.7262 131.879,21.0112 132.849,21.2002 C 135.647,21.7412 138.105,28.9932 130.971,30.8322 C 124.14,32.5912 120.234,25.0572 120.234,25.0572 L 124.364,22.5092 Z" transform=""/><path fill="url(#r-c0b5f7e898f9449d8aa0076fe5059a19)" stroke="none" d="M 120.592,25.6671 L 122.038,24.7881 S 122.638,27.0881 125.647,27.2241 C 128.189,27.3371 130.43,23.2531 132.505,24.9671 C 133.633,25.8971 134.626,27.3351 134.517,28.8321 C 133.778,29.6861 132.639,30.4031 130.972,30.8311 C 125.341,32.2821 121.699,27.4211 120.592,25.6671 Z" opacity="1" fill-opacity="1" style="opacity: 1;fill-opacity: 1" transform=""/><path fill="#eeb490" stroke="none" d="M 132.24,28.3185 L 134.254,29.1105 C 133.517,29.8415 132.454,30.4505 130.971,30.8325 C 130.683,30.9075 130.402,30.9605 130.125,31.0025 C 131.046,30.1005 130.724,29.0155 130.724,29.0155 L 132.24,28.3185 Z" transform=""/><path fill="#eeb490" stroke="none" d="M 132.505,24.9675 C 133.632,25.8975 134.626,27.3365 134.517,28.8325 C 134.038,29.3845 133.389,29.8825 132.537,30.2795 C 129.713,29.3765 128.742,27.3115 129.097,25.6035 C 130.29,24.7605 131.42,24.0715 132.505,24.9675 Z" transform=""/><path fill="#f4953f" stroke="none" d="M 126.296,24.0613 C 125.764,23.6283 123.311,23.2633 122.133,27.5463 C 120.954,31.8313 118.625,29.2923 117.569,30.7823 C 116.51,32.2723 121.167,30.8773 122.591,30.8473 C 123.908,30.8163 122.51,30.0983 122.89,29.2023 C 123.219,28.4273 123.757,27.9973 125.327,27.3383 C 126.915,26.6703 127.248,24.8383 126.296,24.0613 Z" transform=""/><path fill="#f4953f" stroke="none" d="M 130.614,12.8695 C 130.386,11.3655 129.039,10.5115 128.273,10.8305 C 124.218,12.5215 122.39,10.6595 119.032,10.9645 C 119.567,10.5315 120.173,10.2205 120.173,10.2205 C 119.44,10.2385 118.769,10.6515 118.276,11.0665 C 118.223,11.0765 118.17,11.0845 118.115,11.0955 C 118.572,10.3625 119.595,9.65752 119.595,9.65752 C 118.581,9.81452 117.782,10.7255 117.387,11.2735 C 113.922,12.3185 111.976,16.1785 112.463,19.5665 C 112.611,20.5995 113.111,22.1385 113.904,23.2955 C 113.766,24.0465 113.764,24.9285 114.182,25.7155 C 114.182,25.7155 114.152,24.8455 114.298,24.0235 C 114.248,24.6475 114.316,25.3205 114.642,25.9355 C 114.642,25.9355 114.612,25.0765 114.757,24.2595 C 114.758,24.2605 114.759,24.2615 114.761,24.2635 C 114.783,24.7895 114.901,25.3335 115.196,25.8285 C 115.196,25.8285 115.148,25.2505 115.188,24.5875 C 117.488,26.2175 119.824,25.9665 121.747,25.5385 C 123.639,25.1145 124.663,25.4485 125.868,24.1065 C 126.215,23.7195 126.096,22.2305 126.393,21.7445 C 126.696,21.2505 131.031,15.5995 130.614,12.8695 Z" transform=""/><path fill="#f4953f" stroke="none" d="M 113.286,17.5264 L 112.856,15.9314 L 112.815,15.9534 C 112.499,16.8924 112.354,17.8844 112.398,18.8584 C 112.7,18.0954 113.286,17.5264 113.286,17.5264 Z" transform=""/><path fill="none" stroke="#edaa84" d="M 125.868,14.9928 S 121.991,16.9248 120.195,21.5338" style="stroke-linecap: round;stroke-linejoin: round;stroke-width: 0.3147357425388278px" stroke-width="0.3147357425388278" stroke-linecap="round" stroke-linejoin="round" transform=""/><path fill="none" stroke="#edaa84" d="M 126.54,15.8173 S 123.296,17.9943 122.212,21.5543" style="stroke-linecap: round;stroke-linejoin: round;stroke-width: 0.3147357425388278px" stroke-width="0.3147357425388278" stroke-linecap="round" stroke-linejoin="round" transform=""/><path fill="none" stroke="#edaa84" d="M 127.231,16.5329 S 125.015,19.0669 125.299,22.2629" style="stroke-linecap: round;stroke-linejoin: round;stroke-width: 0.3147357425388278px" stroke-width="0.3147357425388278" stroke-linecap="round" stroke-linejoin="round" transform=""/><path fill="#cc8461" stroke="none" d="M 127.352,15.213 C 127.413,15.236 127.479,15.202 127.499,15.142 C 127.519,15.083 127.486,15.015 127.426,14.994 C 127.365,14.973 127.299,15.006 127.279,15.067 C 127.258,15.129 127.289,15.194 127.352,15.213 Z" transform=""/><path fill="#cc8461" stroke="none" d="M 126.601,14.9612 C 126.661,14.9822 126.728,14.9482 126.749,14.8862 C 126.77,14.8282 126.737,14.7632 126.676,14.7402 C 126.615,14.7192 126.549,14.7512 126.529,14.8132 C 126.509,14.8742 126.54,14.9392 126.601,14.9612 Z" transform=""/><path fill="#cc8461" stroke="none" d="M 128.209,14.4954 C 128.27,14.5184 128.335,14.4874 128.356,14.4224 C 128.376,14.3634 128.345,14.2974 128.284,14.2764 C 128.223,14.2564 128.157,14.2884 128.136,14.3504 C 128.116,14.4094 128.147,14.4764 128.209,14.4954 Z" transform=""/><path fill="#cc8461" stroke="none" d="M 129.463,13.4302 C 129.524,13.4502 129.588,13.4182 129.609,13.3562 C 129.632,13.2962 129.598,13.2312 129.537,13.2102 S 129.411,13.2202 129.389,13.2822 C 129.368,13.3432 129.401,13.4092 129.463,13.4302 Z" transform=""/><path fill="#cc8461" stroke="none" d="M 128.486,13.8409 C 128.546,13.8609 128.612,13.8289 128.632,13.7669 C 128.653,13.7069 128.621,13.6409 128.561,13.6209 C 128.499,13.5979 128.433,13.6329 128.414,13.6939 C 128.392,13.7539 128.424,13.8189 128.486,13.8409 Z" transform=""/><path fill="#cc8461" stroke="none" d="M 128.912,15.7857 C 128.973,15.8087 129.038,15.7747 129.059,15.7127 C 129.081,15.6537 129.046,15.5857 128.987,15.5647 C 128.926,15.5467 128.86,15.5767 128.84,15.6387 C 128.819,15.7017 128.851,15.7657 128.912,15.7857 Z" transform=""/><path fill="#cc8461" stroke="none" d="M 129.74,15.0335 C 129.801,15.0545 129.866,15.0205 129.887,14.9625 C 129.909,14.9005 129.875,14.8345 129.815,14.8135 C 129.755,14.7935 129.688,14.8255 129.666,14.8865 C 129.647,14.9455 129.679,15.0135 129.74,15.0335 Z" transform=""/><path fill="#cc8461" stroke="none" d="M 127.879,16.0841 C 127.938,16.1041 128.005,16.0721 128.027,16.0131 C 128.046,15.9511 128.014,15.8851 127.954,15.8641 C 127.894,15.8441 127.825,15.8771 127.807,15.9371 C 127.785,15.9971 127.817,16.0651 127.879,16.0841 Z" transform=""/><path fill="#cc8461" stroke="none" d="M 128.26,15.1578 C 128.321,15.1808 128.387,15.1468 128.408,15.0868 C 128.429,15.0278 128.395,14.9598 128.335,14.9388 C 128.275,14.9188 128.208,14.9488 128.187,15.0118 C 128.167,15.0728 128.199,15.1378 128.26,15.1578 Z" transform=""/><path fill="#cc8461" stroke="none" d="M 126.893,15.8318 C 126.953,15.8528 127.02,15.8198 127.039,15.7598 C 127.06,15.6998 127.028,15.6328 126.966,15.6118 C 126.906,15.5928 126.841,15.6248 126.819,15.6838 C 126.799,15.7458 126.831,15.8118 126.893,15.8318 Z" transform=""/><ellipse cx="128.98520724001895" cy="14.644800724470086" rx="0.1163459086504271" ry="0.1163459086504271" fill="#cc8461" stroke="none" r="0.1163459086504271" transform=""/><path fill="#f4953f" stroke="none" d="M 115.888,13.2166 S 114.079,7.51055 109.384,7.59355 C 104.619,7.67655 102.809,15.7686 107.49,17.6766 C 110.241,18.7986 113.378,17.6686 113.378,17.6686 L 115.888,13.2166 Z" transform=""/><path fill="#f4dbc5" stroke="none" d="M 115.566,14.0982 S 113.802,13.8912 112.993,12.1632 C 112.305,10.6942 112.607,9.43318 111.374,8.71018 C 110.141,7.98418 108.121,8.25918 107.088,9.10118 C 105.976,10.0022 103.903,13.6472 106.297,16.3742 C 108.526,18.9132 113.459,17.2862 113.459,17.2862 L 115.566,14.0982 Z" transform=""/><path fill="#e2bda1" stroke="none" d="M 115.194,14.0174 C 114.687,13.8694 113.771,13.4814 113.174,12.5014 C 112.589,12.5434 111.406,14.0604 112.296,15.4944 C 112.764,16.2454 113.569,16.4974 114.147,16.5234 L 115.464,14.2404 L 115.194,14.0174 Z" transform=""/><path fill="#f4953f" stroke="none" d="M 116.393,12.2873 S 113.709,13.8383 113.06,16.8813 C 112.413,19.9283 114.862,16.6053 114.862,16.6053 L 115.844,15.3743 L 116.393,12.2873 Z" transform=""/><path fill="#304454" stroke="none" d="M 128.273,10.8305 S 129.643,9.74346 130.398,10.3685 C 131.447,11.2365 130.614,12.8695 130.614,12.8695 S 128.661,12.1485 128.273,10.8305 Z" transform=""/><path fill="#f4953f" stroke="none" d="M 130.031,23.784 C 128.458,25.646 129.128,29.107 133.459,30.101 C 137.79,31.094 135.355,33.529 136.888,34.522 C 138.423,35.514 136.829,30.923 136.737,29.5 C 136.651,28.188 135.994,29.614 135.082,29.272 C 134.294,28.977 136.119,26.285 135.251,24.819 C 133.681,22.164 131.358,22.214 130.031,23.784 Z" transform=""/><ellipse cx="121.27177346583501" cy="14.932656722535395" rx="0.5330849176526035" ry="0.8851315895172578" fill="#304454" stroke="none" transform="rotate(-18.3661 121.271773397694 14.932656313034892)" r="NaN"/><path fill="none" stroke="#edaa84" d="M 175.776,15.737 S 178.214,14.983 179.759,15.256" style="stroke-linecap: round;stroke-linejoin: round;stroke-width: 0.3147357425388278px" stroke-width="0.3147357425388278" stroke-linecap="round" stroke-linejoin="round" transform=""/><path fill="none" stroke="#edaa84" d="M 176.154,15.6959 S 178.706,15.7239 180.092,16.4559" style="stroke-linecap: round;stroke-linejoin: round;stroke-width: 0.3147357425388278px" stroke-width="0.3147357425388278" stroke-linecap="round" stroke-linejoin="round" transform=""/><path fill="#d78334" stroke="none" d="M 183.932,3.63055 C 181.531,4.24655 180.571,5.64955 180.19,6.71755 C 179.512,8.62155 180.159,10.7686 181.103,12.0516 C 181.301,12.3216 181.68,12.3796 181.948,12.1816 C 182.217,11.9836 182.276,11.6046 182.078,11.3356 C 181.349,10.3416 180.803,8.60155 181.33,7.12355 C 181.741,5.97255 182.717,5.19155 184.233,4.80255 C 186.418,4.24155 187.665,5.29155 188.327,6.27155 C 189.429,7.90555 189.499,10.2366 188.823,11.1526 C 188.315,11.8426 187.68,12.2776 187.067,12.6966 C 185.757,13.5946 184.401,14.5206 184.988,17.5716 C 185.206,18.7026 185.019,19.5856 184.415,20.2696 C 182.743,22.1656 178.511,21.9126 178.469,21.9106 C 178.135,21.8896 177.847,22.1416 177.826,22.4756 C 177.803,22.8096 178.056,23.0966 178.389,23.1176 C 178.587,23.1306 183.254,23.4126 185.321,21.0726 C 186.178,20.1006 186.466,18.8456 186.176,17.3416 C 185.739,15.0706 186.496,14.5536 187.75,13.6956 C 188.414,13.2416 189.167,12.7256 189.798,11.8706 C 190.864,10.4246 190.648,7.55055 189.328,5.59555 C 188.087,3.75355 186.17,3.05555 183.932,3.63055 Z" transform=""/><path fill="#d78334" stroke="none" d="M 172.864,24.0728 C 172.47,23.5898 170.136,22.8288 168.305,26.4218 C 166.475,30.0128 164.869,27.3308 163.657,28.4618 C 162.444,29.5928 166.836,29.2058 168.11,29.4368 C 169.285,29.6518 168.173,28.7578 168.677,28.0298 C 169.109,27.4028 169.669,27.2848 171.186,26.9838 C 172.718,26.6818 173.568,24.9388 172.864,24.0728 Z" transform=""/><path fill="#d78334" stroke="none" d="M 176.789,26.4895 C 177.184,28.7575 180.099,30.3725 183.446,27.8345 C 186.794,25.2965 187.082,28.5405 188.731,28.0295 C 190.381,27.5205 186.087,25.8905 185,25.0935 C 183.996,24.3595 184.632,25.7015 183.829,26.1555 C 183.139,26.5465 182.295,23.5925 180.705,23.3285 C 177.828,22.8575 176.456,24.5735 176.789,26.4895 Z" transform=""/><path fill="#d78334" stroke="none" d="M 169.147,12.4272 S 171.171,9.09121 169.757,6.40421 C 167.93,2.93421 162.193,4.92021 162.846,9.11221 C 163.188,11.3092 165.333,12.7512 165.333,12.7512 L 169.147,12.4272 Z" transform=""/><path fill="#f4953f" stroke="none" d="M 171.984,22.5092 S 174.3,24.1742 175.794,22.8022 C 178.049,20.7262 179.499,21.0112 180.469,21.2002 C 183.267,21.7412 185.725,28.9932 178.591,30.8322 C 171.76,32.5912 167.854,25.0572 167.854,25.0572 L 171.984,22.5092 Z" transform=""/><path fill="url(#r-4c2704242bf94c648d1d183db743c5f7)" stroke="none" d="M 168.211,25.6671 L 169.657,24.7881 S 170.257,27.0881 173.266,27.2241 C 175.808,27.3371 178.049,23.2531 180.124,24.9671 C 181.252,25.8971 182.245,27.3351 182.136,28.8321 C 181.397,29.6861 180.258,30.4031 178.591,30.8311 C 172.96,32.2821 169.318,27.4211 168.211,25.6671 Z" opacity="1" fill-opacity="1" style="opacity: 1;fill-opacity: 1" transform=""/><path fill="#eeb490" stroke="none" d="M 179.859,28.3185 L 181.873,29.1105 C 181.136,29.8415 180.073,30.4505 178.59,30.8325 C 178.302,30.9075 178.021,30.9605 177.744,31.0025 C 178.665,30.1005 178.343,29.0155 178.343,29.0155 L 179.859,28.3185 Z" transform=""/><path fill="#eeb490" stroke="none" d="M 180.124,24.9675 C 181.251,25.8975 182.245,27.3365 182.136,28.8325 C 181.657,29.3845 181.008,29.8825 180.156,30.2795 C 177.332,29.3765 176.361,27.3115 176.716,25.6035 C 177.909,24.7605 179.039,24.0715 180.124,24.9675 Z" transform=""/><path fill="#f4953f" stroke="none" d="M 173.915,24.0613 C 173.383,23.6283 170.93,23.2633 169.752,27.5463 C 168.573,31.8313 166.244,29.2923 165.188,30.7823 C 164.129,32.2723 168.786,30.8773 170.21,30.8473 C 171.527,30.8163 170.129,30.0983 170.509,29.2023 C 170.838,28.4273 171.376,27.9973 172.946,27.3383 C 174.534,26.6703 174.867,24.8383 173.915,24.0613 Z" transform=""/><path fill="#f4953f" stroke="none" d="M 178.233,12.8695 C 178.005,11.3655 176.658,10.5115 175.892,10.8305 C 171.837,12.5215 170.009,10.6595 166.651,10.9645 C 167.186,10.5315 167.792,10.2205 167.792,10.2205 C 167.059,10.2385 166.388,10.6515 165.895,11.0665 C 165.842,11.0765 165.789,11.0845 165.734,11.0955 C 166.191,10.3625 167.214,9.65752 167.214,9.65752 C 166.2,9.81452 165.401,10.7255 165.006,11.2735 C 161.541,12.3185 159.595,16.1785 160.082,19.5665 C 160.23,20.5995 160.73,22.1385 161.523,23.2955 C 161.385,24.0465 161.383,24.9285 161.801,25.7155 C 161.801,25.7155 161.771,24.8455 161.917,24.0235 C 161.867,24.6475 161.935,25.3205 162.261,25.9355 C 162.261,25.9355 162.231,25.0765 162.376,24.2595 C 162.377,24.2605 162.378,24.2615 162.38,24.2635 C 162.402,24.7895 162.52,25.3335 162.815,25.8285 C 162.815,25.8285 162.767,25.2505 162.807,24.5875 C 165.107,26.2175 167.443,25.9665 169.366,25.5385 C 171.258,25.1145 172.282,25.4485 173.487,24.1065 C 173.834,23.7195 173.715,22.2305 174.012,21.7445 C 174.315,21.2505 178.65,15.5995 178.233,12.8695 Z" transform=""/><path fill="#f4953f" stroke="none" d="M 160.905,17.5264 L 160.475,15.9314 L 160.434,15.9534 C 160.118,16.8924 159.973,17.8844 160.017,18.8584 C 160.319,18.0954 160.905,17.5264 160.905,17.5264 Z" transform=""/><path fill="none" stroke="#edaa84" d="M 173.487,14.9928 S 169.61,16.9248 167.814,21.5338" style="stroke-linecap: round;stroke-linejoin: round;stroke-width: 0.3147357425388278px" stroke-width="0.3147357425388278" stroke-linecap="round" stroke-linejoin="round" transform=""/><path fill="none" stroke="#edaa84" d="M 174.159,15.8173 S 170.915,17.9943 169.831,21.5543" style="stroke-linecap: round;stroke-linejoin: round;stroke-width: 0.3147357425388278px" stroke-width="0.3147357425388278" stroke-linecap="round" stroke-linejoin="round" transform=""/><path fill="none" stroke="#edaa84" d="M 174.85,16.5329 S 172.634,19.0669 172.918,22.2629" style="stroke-linecap: round;stroke-linejoin: round;stroke-width: 0.3147357425388278px" stroke-width="0.3147357425388278" stroke-linecap="round" stroke-linejoin="round" transform=""/><path fill="#cc8461" stroke="none" d="M 174.971,15.213 C 175.032,15.236 175.098,15.202 175.118,15.142 C 175.138,15.083 175.105,15.015 175.045,14.994 C 174.984,14.973 174.918,15.006 174.898,15.067 C 174.877,15.129 174.908,15.194 174.971,15.213 Z" transform=""/><path fill="#cc8461" stroke="none" d="M 174.22,14.9612 C 174.28,14.9822 174.347,14.9482 174.368,14.8862 C 174.389,14.8282 174.356,14.7632 174.295,14.7402 C 174.234,14.7192 174.168,14.7512 174.148,14.8132 C 174.128,14.8742 174.159,14.9392 174.22,14.9612 Z" transform=""/><path fill="#cc8461" stroke="none" d="M 175.828,14.4954 C 175.889,14.5184 175.954,14.4874 175.975,14.4224 C 175.995,14.3634 175.964,14.2974 175.903,14.2764 C 175.842,14.2564 175.776,14.2884 175.755,14.3504 C 175.735,14.4094 175.766,14.4764 175.828,14.4954 Z" transform=""/><path fill="#cc8461" stroke="none" d="M 177.082,13.4302 C 177.143,13.4502 177.207,13.4182 177.228,13.3562 C 177.251,13.2962 177.217,13.2312 177.156,13.2102 S 177.03,13.2202 177.008,13.2822 C 176.987,13.3432 177.02,13.4092 177.082,13.4302 Z" transform=""/><path fill="#cc8461" stroke="none" d="M 176.105,13.8409 C 176.165,13.8609 176.231,13.8289 176.251,13.7669 C 176.272,13.7069 176.24,13.6409 176.18,13.6209 C 176.118,13.5979 176.052,13.6329 176.033,13.6939 C 176.011,13.7539 176.043,13.8189 176.105,13.8409 Z" transform=""/><path fill="#cc8461" stroke="none" d="M 176.532,15.7857 C 176.593,15.8087 176.658,15.7747 176.679,15.7127 C 176.701,15.6537 176.666,15.5857 176.607,15.5647 C 176.546,15.5467 176.48,15.5767 176.46,15.6387 C 176.439,15.7017 176.471,15.7657 176.532,15.7857 Z" transform=""/><path fill="#cc8461" stroke="none" d="M 177.359,15.0335 C 177.42,15.0545 177.485,15.0205 177.506,14.9625 C 177.528,14.9005 177.494,14.8345 177.434,14.8135 C 177.374,14.7935 177.307,14.8255 177.285,14.8865 C 177.266,14.9455 177.298,15.0135 177.359,15.0335 Z" transform=""/><path fill="#cc8461" stroke="none" d="M 175.498,16.0841 C 175.557,16.1041 175.624,16.0721 175.646,16.0131 C 175.665,15.9511 175.633,15.8851 175.573,15.8641 C 175.513,15.8441 175.444,15.8771 175.426,15.9371 C 175.404,15.9971 175.436,16.0651 175.498,16.0841 Z" transform=""/><path fill="#cc8461" stroke="none" d="M 175.879,15.1578 C 175.94,15.1808 176.006,15.1468 176.027,15.0868 C 176.048,15.0278 176.014,14.9598 175.954,14.9388 C 175.894,14.9188 175.827,14.9488 175.806,15.0118 C 175.786,15.0728 175.818,15.1378 175.879,15.1578 Z" transform=""/><path fill="#cc8461" stroke="none" d="M 174.512,15.8318 C 174.572,15.8528 174.639,15.8198 174.658,15.7598 C 174.679,15.6998 174.647,15.6328 174.585,15.6118 C 174.525,15.5928 174.46,15.6248 174.438,15.6838 C 174.418,15.7458 174.45,15.8118 174.512,15.8318 Z" transform=""/><ellipse cx="176.60425485906657" cy="14.644800724470086" rx="0.1163459086504271" ry="0.1163459086504271" fill="#cc8461" stroke="none" r="0.1163459086504271" transform=""/><path fill="#f4953f" stroke="none" d="M 163.507,13.2166 S 161.698,7.51055 157.003,7.59355 C 152.238,7.67655 150.428,15.7686 155.109,17.6766 C 157.86,18.7986 160.997,17.6686 160.997,17.6686 L 163.507,13.2166 Z" transform=""/><path fill="#f4dbc5" stroke="none" d="M 163.185,14.0982 S 161.421,13.8912 160.612,12.1632 C 159.924,10.6942 160.226,9.43318 158.993,8.71018 C 157.76,7.98418 155.74,8.25918 154.707,9.10118 C 153.595,10.0022 151.522,13.6472 153.916,16.3742 C 156.145,18.9132 161.078,17.2862 161.078,17.2862 L 163.185,14.0982 Z" transform=""/><path fill="#e2bda1" stroke="none" d="M 162.813,14.0174 C 162.306,13.8694 161.39,13.4814 160.793,12.5014 C 160.208,12.5434 159.025,14.0604 159.915,15.4944 C 160.383,16.2454 161.188,16.4974 161.766,16.5234 L 163.083,14.2404 L 162.813,14.0174 Z" transform=""/><path fill="#f4953f" stroke="none" d="M 164.012,12.2873 S 161.328,13.8383 160.679,16.8813 C 160.032,19.9283 162.481,16.6053 162.481,16.6053 L 163.463,15.3743 L 164.012,12.2873 Z" transform=""/><path fill="#304454" stroke="none" d="M 175.892,10.8305 S 177.262,9.74346 178.017,10.3685 C 179.066,11.2365 178.233,12.8695 178.233,12.8695 S 176.28,12.1485 175.892,10.8305 Z" transform=""/><path fill="#f4953f" stroke="none" d="M 177.65,23.784 C 176.077,25.646 176.747,29.107 181.078,30.101 C 185.409,31.094 182.974,33.529 184.507,34.522 C 186.042,35.514 184.448,30.923 184.356,29.5 C 184.27,28.188 183.613,29.614 182.701,29.272 C 181.913,28.977 183.738,26.285 182.87,24.819 C 181.3,22.164 178.977,22.214 177.65,23.784 Z" transform=""/><ellipse cx="168.89082108488265" cy="14.932656722535395" rx="0.5330849176526035" ry="0.8851315895172578" fill="#304454" stroke="none" transform="rotate(-18.3661 168.89082101674163 14.932656313034892)" r="NaN"/></svg>