<svg xmlns="http://www.w3.org/2000/svg" version="1.1" width="400" height="133.33333333333334" viewBox="0 0 400 133.33333333333334"><defs/><path fill="#deb958" stroke="none" d="M 32.2554,100.135 C 25.3394,101.693 18.6814,102.104 12.6894,98.3166 C 10.7494,97.0886 9.37042,95.2846 9.53742,93.1446 C 9.61042,92.2066 10.4314,90.8846 13.1844,91.3996 C 19.3234,92.5496 23.9024,92.0906 28.8684,90.6846 C 34.1194,89.1966 38.1554,85.2556 39.6494,81.6576 C 40.9074,78.6276 42.8494,75.4256 45.9444,76.5776 C 47.6194,77.2016 48.0424,83.8546 47.1784,87.0416 C 45.4464,93.4246 39.1704,98.5746 32.2554,100.135 M 32.2554,100.135 L 32.2554,100.135 Z" transform=""/><path fill="#ccaa4f" stroke="none" d="M 46.5343,77.2924 C 47.1323,79.6414 47.2063,83.5664 46.6223,85.7194 C 44.9153,92.0114 38.9823,97.3774 32.1663,98.9134 C 25.3483,100.451 17.9663,100.721 12.0593,96.9874 C 11.2313,96.4634 10.0993,95.1214 9.58331,93.4924 C 9.66131,95.7924 11.1533,97.2214 12.4943,98.0694 C 18.4023,101.802 25.6633,101.556 32.4803,100.02 C 39.2963,98.4824 45.4823,93.4064 47.1883,87.1154 C 47.9343,84.3664 47.7083,79.0014 46.5343,77.2924 Z" transform=""/><path fill="#eec65e" stroke="none" d="M 23.0928,95.3327 C 35.6498,94.9037 44.7928,87.8147 44.5528,76.3417 C 42.2478,76.4417 40.7068,79.1097 39.6488,81.6577 C 38.1548,85.2547 34.1188,89.1967 28.8678,90.6847 C 23.9018,92.0907 19.3228,92.5497 13.1838,91.3997 C 10.4318,90.8847 9.61077,92.2067 9.53677,93.1447 C 9.53377,93.1937 11.1088,92.5217 11.1058,92.5707 C 15.3208,94.6217 18.3888,95.4947 23.0928,95.3327 Z" transform=""/><path fill="#ccaa4f" stroke="none" d="M 43.0896,77.0161 L 44.4156,77.4911 S 44.9226,76.6001 45.9446,76.5781 C 45.7626,74.6631 44.9596,71.9921 44.3196,70.7621 C 43.6256,69.4321 42.4166,70.7321 42.4166,70.7321 L 41.5096,72.0011 C 41.5086,72.0011 43.0876,73.1211 43.0896,77.0161 Z" transform=""/><path fill="#eec65e" stroke="none" d="M 43.0896,77.0161 S 43.8436,77.7201 44.4156,77.4911 C 45.0116,72.4701 42.4166,70.7321 42.4166,70.7321 L 41.5086,72.0011 S 43.0876,73.1211 43.0896,77.0161 Z" transform=""/><path fill="#eec65e" stroke="none" d="M 44.4154,77.4912 C 44.4444,77.2532 44.5544,77.5002 44.5704,77.2772 C 44.9104,72.4312 42.4164,70.7322 42.4164,70.7322 L 42.3234,70.8612 C 42.3234,70.8622 44.5814,72.1472 44.4154,77.4912 Z" transform=""/><path fill="#ccaa4f" stroke="none" d="M 10.8813,91.4644 S 11.9583,92.9784 11.2113,93.5144 C 10.4633,94.0514 9.5293,93.2664 9.5293,93.2664 S 9.6533,91.9254 10.8813,91.4644 Z" transform=""/><path fill="#deb958" stroke="none" d="M 79.8745,100.135 C 72.9585,101.693 66.3005,102.104 60.3085,98.3166 C 58.3685,97.0886 56.9895,95.2846 57.1565,93.1446 C 57.2295,92.2066 58.0505,90.8846 60.8035,91.3996 C 66.9425,92.5496 71.5215,92.0906 76.4875,90.6846 C 81.7385,89.1966 85.7745,85.2556 87.2685,81.6576 C 88.5265,78.6276 90.4685,75.4256 93.5635,76.5776 C 95.2385,77.2016 95.6615,83.8546 94.7975,87.0416 C 93.0655,93.4246 86.7895,98.5746 79.8745,100.135 M 79.8745,100.135 L 79.8745,100.135 Z" transform=""/><path fill="#ccaa4f" stroke="none" d="M 94.1534,77.2924 C 94.7514,79.6414 94.8254,83.5664 94.2414,85.7194 C 92.5344,92.0114 86.6014,97.3774 79.7854,98.9134 C 72.9674,100.451 65.5854,100.721 59.6784,96.9874 C 58.8504,96.4634 57.7184,95.1214 57.2024,93.4924 C 57.2804,95.7924 58.7724,97.2214 60.1134,98.0694 C 66.0214,101.802 73.2824,101.556 80.0994,100.02 C 86.9154,98.4824 93.1014,93.4064 94.8074,87.1154 C 95.5534,84.3664 95.3274,79.0014 94.1534,77.2924 Z" transform=""/><path fill="#eec65e" stroke="none" d="M 70.7118,95.3327 C 83.2688,94.9037 92.4118,87.8147 92.1718,76.3417 C 89.8668,76.4417 88.3258,79.1097 87.2678,81.6577 C 85.7738,85.2547 81.7378,89.1967 76.4868,90.6847 C 71.5208,92.0907 66.9418,92.5497 60.8028,91.3997 C 58.0508,90.8847 57.2298,92.2067 57.1558,93.1447 C 57.1528,93.1937 58.7278,92.5217 58.7248,92.5707 C 62.9398,94.6217 66.0078,95.4947 70.7118,95.3327 Z" transform=""/><path fill="#ccaa4f" stroke="none" d="M 90.7086,77.0161 L 92.0346,77.4911 S 92.5416,76.6001 93.5636,76.5781 C 93.3816,74.6631 92.5786,71.9921 91.9386,70.7621 C 91.2446,69.4321 90.0356,70.7321 90.0356,70.7321 L 89.1286,72.0011 C 89.1276,72.0011 90.7066,73.1211 90.7086,77.0161 Z" transform=""/><path fill="#eec65e" stroke="none" d="M 90.7086,77.0161 S 91.4626,77.7201 92.0346,77.4911 C 92.6306,72.4701 90.0356,70.7321 90.0356,70.7321 L 89.1276,72.0011 S 90.7066,73.1211 90.7086,77.0161 Z" transform=""/><path fill="#eec65e" stroke="none" d="M 92.0345,77.4912 C 92.0635,77.2532 92.1735,77.5002 92.1895,77.2772 C 92.5295,72.4312 90.0355,70.7322 90.0355,70.7322 L 89.9425,70.8612 C 89.9425,70.8622 92.2005,72.1472 92.0345,77.4912 Z" transform=""/><path fill="#ccaa4f" stroke="none" d="M 58.5003,91.4644 S 59.5773,92.9784 58.8303,93.5144 C 58.0823,94.0514 57.1483,93.2664 57.1483,93.2664 S 57.2723,91.9254 58.5003,91.4644 Z" transform=""/><path fill="#deb958" stroke="none" d="M 127.494,100.135 C 120.578,101.693 113.92,102.104 107.928,98.3166 C 105.988,97.0886 104.609,95.2846 104.776,93.1446 C 104.849,92.2066 105.67,90.8846 108.423,91.3996 C 114.562,92.5496 119.141,92.0906 124.107,90.6846 C 129.358,89.1966 133.394,85.2556 134.888,81.6576 C 136.146,78.6276 138.088,75.4256 141.183,76.5776 C 142.858,77.2016 143.281,83.8546 142.417,87.0416 C 140.685,93.4246 134.409,98.5746 127.494,100.135 M 127.494,100.135 L 127.494,100.135 Z" transform=""/><path fill="#ccaa4f" stroke="none" d="M 141.772,77.2924 C 142.37,79.6414 142.444,83.5664 141.86,85.7194 C 140.153,92.0114 134.22,97.3774 127.404,98.9134 C 120.586,100.451 113.204,100.721 107.297,96.9874 C 106.469,96.4634 105.337,95.1214 104.821,93.4924 C 104.899,95.7924 106.391,97.2214 107.732,98.0694 C 113.64,101.802 120.901,101.556 127.718,100.02 C 134.534,98.4824 140.72,93.4064 142.426,87.1154 C 143.172,84.3664 142.946,79.0014 141.772,77.2924 Z" transform=""/><path fill="#eec65e" stroke="none" d="M 118.331,95.3327 C 130.888,94.9037 140.031,87.8147 139.791,76.3417 C 137.486,76.4417 135.945,79.1097 134.887,81.6577 C 133.393,85.2547 129.357,89.1967 124.106,90.6847 C 119.14,92.0907 114.561,92.5497 108.422,91.3997 C 105.67,90.8847 104.849,92.2067 104.775,93.1447 C 104.772,93.1937 106.347,92.5217 106.344,92.5707 C 110.559,94.6217 113.627,95.4947 118.331,95.3327 Z" transform=""/><path fill="#ccaa4f" stroke="none" d="M 138.328,77.0161 L 139.654,77.4911 S 140.161,76.6001 141.183,76.5781 C 141.001,74.6631 140.198,71.9921 139.558,70.7621 C 138.864,69.4321 137.655,70.7321 137.655,70.7321 L 136.748,72.0011 C 136.747,72.0011 138.326,73.1211 138.328,77.0161 Z" transform=""/><path fill="#eec65e" stroke="none" d="M 138.328,77.0161 S 139.082,77.7201 139.654,77.4911 C 140.25,72.4701 137.655,70.7321 137.655,70.7321 L 136.747,72.0011 S 138.326,73.1211 138.328,77.0161 Z" transform=""/><path fill="#eec65e" stroke="none" d="M 139.654,77.4912 C 139.683,77.2532 139.793,77.5002 139.809,77.2772 C 140.149,72.4312 137.655,70.7322 137.655,70.7322 L 137.562,70.8612 C 137.562,70.8622 139.82,72.1472 139.654,77.4912 Z" transform=""/><path fill="#ccaa4f" stroke="none" d="M 106.119,91.4644 S 107.196,92.9784 106.449,93.5144 C 105.701,94.0514 104.767,93.2664 104.767,93.2664 S 104.891,91.9254 106.119,91.4644 Z" transform=""/><path fill="#deb958" stroke="none" d="M 175.113,100.135 C 168.197,101.693 161.539,102.104 155.547,98.3166 C 153.607,97.0886 152.228,95.2846 152.395,93.1446 C 152.468,92.2066 153.289,90.8846 156.042,91.3996 C 162.181,92.5496 166.76,92.0906 171.726,90.6846 C 176.977,89.1966 181.013,85.2556 182.507,81.6576 C 183.765,78.6276 185.707,75.4256 188.802,76.5776 C 190.477,77.2016 190.9,83.8546 190.036,87.0416 C 188.304,93.4246 182.028,98.5746 175.113,100.135 M 175.113,100.135 L 175.113,100.135 Z" transform=""/><path fill="#ccaa4f" stroke="none" d="M 189.391,77.2924 C 189.989,79.6414 190.063,83.5664 189.479,85.7194 C 187.772,92.0114 181.839,97.3774 175.023,98.9134 C 168.205,100.451 160.823,100.721 154.916,96.9874 C 154.088,96.4634 152.956,95.1214 152.44,93.4924 C 152.518,95.7924 154.01,97.2214 155.351,98.0694 C 161.259,101.802 168.52,101.556 175.337,100.02 C 182.153,98.4824 188.339,93.4064 190.045,87.1154 C 190.791,84.3664 190.565,79.0014 189.391,77.2924 Z" transform=""/><path fill="#eec65e" stroke="none" d="M 165.95,95.3327 C 178.507,94.9037 187.65,87.8147 187.41,76.3417 C 185.105,76.4417 183.564,79.1097 182.506,81.6577 C 181.012,85.2547 176.976,89.1967 171.725,90.6847 C 166.759,92.0907 162.18,92.5497 156.041,91.3997 C 153.289,90.8847 152.468,92.2067 152.394,93.1447 C 152.391,93.1937 153.966,92.5217 153.963,92.5707 C 158.178,94.6217 161.246,95.4947 165.95,95.3327 Z" transform=""/><path fill="#ccaa4f" stroke="none" d="M 185.947,77.0161 L 187.273,77.4911 S 187.78,76.6001 188.802,76.5781 C 188.62,74.6631 187.817,71.9921 187.177,70.7621 C 186.483,69.4321 185.274,70.7321 185.274,70.7321 L 184.367,72.0011 C 184.366,72.0011 185.945,73.1211 185.947,77.0161 Z" transform=""/><path fill="#eec65e" stroke="none" d="M 185.947,77.0161 S 186.701,77.7201 187.273,77.4911 C 187.869,72.4701 185.274,70.7321 185.274,70.7321 L 184.366,72.0011 S 185.945,73.1211 185.947,77.0161 Z" transform=""/><path fill="#eec65e" stroke="none" d="M 187.273,77.4912 C 187.302,77.2532 187.412,77.5002 187.428,77.2772 C 187.768,72.4312 185.274,70.7322 185.274,70.7322 L 185.181,70.8612 C 185.181,70.8622 187.439,72.1472 187.273,77.4912 Z" transform=""/><path fill="#ccaa4f" stroke="none" d="M 153.738,91.4644 S 154.815,92.9784 154.068,93.5144 C 153.32,94.0514 152.386,93.2664 152.386,93.2664 S 152.51,91.9254 153.738,91.4644 Z" transform=""/><path fill="#deb958" stroke="none" d="M 222.732,100.135 C 215.816,101.693 209.158,102.104 203.166,98.3166 C 201.226,97.0886 199.847,95.2846 200.014,93.1446 C 200.087,92.2066 200.908,90.8846 203.661,91.3996 C 209.8,92.5496 214.379,92.0906 219.345,90.6846 C 224.596,89.1966 228.632,85.2556 230.126,81.6576 C 231.384,78.6276 233.326,75.4256 236.421,76.5776 C 238.096,77.2016 238.519,83.8546 237.655,87.0416 C 235.923,93.4246 229.647,98.5746 222.732,100.135 M 222.732,100.135 L 222.732,100.135 Z" transform=""/><path fill="#ccaa4f" stroke="none" d="M 237.01,77.2924 C 237.608,79.6414 237.682,83.5664 237.098,85.7194 C 235.391,92.0114 229.458,97.3774 222.642,98.9134 C 215.824,100.451 208.442,100.721 202.535,96.9874 C 201.707,96.4634 200.575,95.1214 200.059,93.4924 C 200.137,95.7924 201.629,97.2214 202.97,98.0694 C 208.878,101.802 216.139,101.556 222.956,100.02 C 229.772,98.4824 235.958,93.4064 237.664,87.1154 C 238.41,84.3664 238.184,79.0014 237.01,77.2924 Z" transform=""/><path fill="#eec65e" stroke="none" d="M 213.569,95.3327 C 226.126,94.9037 235.269,87.8147 235.029,76.3417 C 232.724,76.4417 231.183,79.1097 230.125,81.6577 C 228.631,85.2547 224.595,89.1967 219.344,90.6847 C 214.378,92.0907 209.799,92.5497 203.66,91.3997 C 200.908,90.8847 200.087,92.2067 200.013,93.1447 C 200.01,93.1937 201.585,92.5217 201.582,92.5707 C 205.797,94.6217 208.865,95.4947 213.569,95.3327 Z" transform=""/><path fill="#ccaa4f" stroke="none" d="M 233.566,77.0161 L 234.892,77.4911 S 235.399,76.6001 236.421,76.5781 C 236.239,74.6631 235.436,71.9921 234.796,70.7621 C 234.102,69.4321 232.893,70.7321 232.893,70.7321 L 231.986,72.0011 C 231.985,72.0011 233.564,73.1211 233.566,77.0161 Z" transform=""/><path fill="#eec65e" stroke="none" d="M 233.566,77.0161 S 234.32,77.7201 234.892,77.4911 C 235.488,72.4701 232.893,70.7321 232.893,70.7321 L 231.985,72.0011 S 233.564,73.1211 233.566,77.0161 Z" transform=""/><path fill="#eec65e" stroke="none" d="M 234.892,77.4912 C 234.921,77.2532 235.031,77.5002 235.047,77.2772 C 235.387,72.4312 232.893,70.7322 232.893,70.7322 L 232.8,70.8612 C 232.8,70.8622 235.058,72.1472 234.892,77.4912 Z" transform=""/><path fill="#ccaa4f" stroke="none" d="M 201.357,91.4644 S 202.434,92.9784 201.687,93.5144 C 200.939,94.0514 200.005,93.2664 200.005,93.2664 S 200.129,91.9254 201.357,91.4644 Z" transform=""/><path fill="#deb958" stroke="none" d="M 32.2554,33.4679 C 25.3394,35.0259 18.6814,35.4369 12.6894,31.6499 C 10.7494,30.4219 9.37042,28.6179 9.53742,26.4779 C 9.61042,25.5399 10.4314,24.2179 13.1844,24.7329 C 19.3234,25.8829 23.9024,25.4239 28.8684,24.0179 C 34.1194,22.5299 38.1554,18.5889 39.6494,14.9909 C 40.9074,11.9609 42.8494,8.7589 45.9444,9.9109 C 47.6194,10.5349 48.0424,17.1879 47.1784,20.3749 C 45.4464,26.7579 39.1704,31.9079 32.2554,33.4679 L 32.2554,33.4679 Z" transform=""/><path fill="#ccaa4f" stroke="none" d="M 46.5343,10.6257 C 47.1323,12.9747 47.2063,16.8997 46.6223,19.0527 C 44.9153,25.3447 38.9823,30.7107 32.1663,32.2467 C 25.3483,33.7847 17.9663,34.0547 12.0593,30.3207 C 11.2313,29.7967 10.0993,28.4547 9.58331,26.8257 C 9.66131,29.1257 11.1533,30.5547 12.4943,31.4027 C 18.4023,35.1357 25.6633,34.8897 32.4803,33.3537 C 39.2963,31.8157 45.4823,26.7397 47.1883,20.4487 C 47.9343,17.6997 47.7083,12.3347 46.5343,10.6257 Z" transform=""/><path fill="#eec65e" stroke="none" d="M 23.0928,28.6661 C 35.6498,28.2371 44.7928,21.1481 44.5528,9.67508 C 42.2478,9.77508 40.7068,12.4431 39.6488,14.9911 C 38.1548,18.5881 34.1188,22.5301 28.8678,24.0181 C 23.9018,25.4241 19.3228,25.8831 13.1838,24.7331 C 10.4318,24.2181 9.61077,25.5401 9.53677,26.4781 C 9.53377,26.5271 11.1088,25.8551 11.1058,25.9041 C 15.3208,27.9551 18.3888,28.8281 23.0928,28.6661 Z" transform=""/><path fill="#ccaa4f" stroke="none" d="M 43.0896,10.3495 L 44.4156,10.8245 S 44.9226,9.93346 45.9446,9.91146 C 45.7626,7.99646 44.9596,5.32546 44.3196,4.09546 C 43.6256,2.76546 42.4166,4.06546 42.4166,4.06546 L 41.5096,5.33446 C 41.5086,5.33446 43.0876,6.45446 43.0896,10.3495 Z" transform=""/><path fill="#eec65e" stroke="none" d="M 43.0896,10.3495 S 43.8436,11.0535 44.4156,10.8245 C 45.0116,5.80346 42.4166,4.06546 42.4166,4.06546 L 41.5086,5.33446 S 43.0876,6.45446 43.0896,10.3495 Z" transform=""/><path fill="#eec65e" stroke="none" d="M 44.4154,10.8246 C 44.4444,10.5866 44.5544,10.8336 44.5704,10.6106 C 44.9104,5.76455 42.4164,4.06555 42.4164,4.06555 L 42.3234,4.19455 C 42.3234,4.19555 44.5814,5.48055 44.4154,10.8246 Z" transform=""/><path fill="#ccaa4f" stroke="none" d="M 10.8813,24.7977 S 11.9583,26.3117 11.2113,26.8477 C 10.4633,27.3847 9.5293,26.5997 9.5293,26.5997 S 9.6533,25.2587 10.8813,24.7977 Z" transform=""/><path fill="#deb958" stroke="none" d="M 79.8745,33.4679 C 72.9585,35.0259 66.3005,35.4369 60.3085,31.6499 C 58.3685,30.4219 56.9895,28.6179 57.1565,26.4779 C 57.2295,25.5399 58.0505,24.2179 60.8035,24.7329 C 66.9425,25.8829 71.5215,25.4239 76.4875,24.0179 C 81.7385,22.5299 85.7745,18.5889 87.2685,14.9909 C 88.5265,11.9609 90.4685,8.7589 93.5635,9.9109 C 95.2385,10.5349 95.6615,17.1879 94.7975,20.3749 C 93.0655,26.7579 86.7895,31.9079 79.8745,33.4679 L 79.8745,33.4679 Z" transform=""/><path fill="#ccaa4f" stroke="none" d="M 94.1534,10.6257 C 94.7514,12.9747 94.8254,16.8997 94.2414,19.0527 C 92.5344,25.3447 86.6014,30.7107 79.7854,32.2467 C 72.9674,33.7847 65.5854,34.0547 59.6784,30.3207 C 58.8504,29.7967 57.7184,28.4547 57.2024,26.8257 C 57.2804,29.1257 58.7724,30.5547 60.1134,31.4027 C 66.0214,35.1357 73.2824,34.8897 80.0994,33.3537 C 86.9154,31.8157 93.1014,26.7397 94.8074,20.4487 C 95.5534,17.6997 95.3274,12.3347 94.1534,10.6257 Z" transform=""/><path fill="#eec65e" stroke="none" d="M 70.7118,28.6661 C 83.2688,28.2371 92.4118,21.1481 92.1718,9.67508 C 89.8668,9.77508 88.3258,12.4431 87.2678,14.9911 C 85.7738,18.5881 81.7378,22.5301 76.4868,24.0181 C 71.5208,25.4241 66.9418,25.8831 60.8028,24.7331 C 58.0508,24.2181 57.2298,25.5401 57.1558,26.4781 C 57.1528,26.5271 58.7278,25.8551 58.7248,25.9041 C 62.9398,27.9551 66.0078,28.8281 70.7118,28.6661 Z" transform=""/><path fill="#ccaa4f" stroke="none" d="M 90.7086,10.3495 L 92.0346,10.8245 S 92.5416,9.93346 93.5636,9.91146 C 93.3816,7.99646 92.5786,5.32546 91.9386,4.09546 C 91.2446,2.76546 90.0356,4.06546 90.0356,4.06546 L 89.1286,5.33446 C 89.1276,5.33446 90.7066,6.45446 90.7086,10.3495 Z" transform=""/><path fill="#eec65e" stroke="none" d="M 90.7086,10.3495 S 91.4626,11.0535 92.0346,10.8245 C 92.6306,5.80346 90.0356,4.06546 90.0356,4.06546 L 89.1276,5.33446 S 90.7066,6.45446 90.7086,10.3495 Z" transform=""/><path fill="#eec65e" stroke="none" d="M 92.0345,10.8246 C 92.0635,10.5866 92.1735,10.8336 92.1895,10.6106 C 92.5295,5.76455 90.0355,4.06555 90.0355,4.06555 L 89.9425,4.19455 C 89.9425,4.19555 92.2005,5.48055 92.0345,10.8246 Z" transform=""/><path fill="#ccaa4f" stroke="none" d="M 58.5003,24.7977 S 59.5773,26.3117 58.8303,26.8477 C 58.0823,27.3847 57.1483,26.5997 57.1483,26.5997 S 57.2723,25.2587 58.5003,24.7977 Z" transform=""/></svg>