<svg xmlns="http://www.w3.org/2000/svg" version="1.1" width="400" height="133.33333333333334" viewBox="0 0 400 133.33333333333334"><defs/><ellipse cx="39.92013651478538" cy="94.0107326859142" rx="7.537970369161617" ry="3.07457185668728" fill="#42a8c1" stroke="none" transform="rotate(203.0782 39.92013485000032 94.01073347070394)" r="NaN"/><path fill="#49bbd6" stroke="none" d="M 26.216,82.7309 C 25.333,74.7519 28.569,70.0609 32.579,69.8249 C 37.997,69.5069 41.277,72.9149 40.402,80.2899 C 40.224,81.7959 47.747,93.0999 40.532,96.6979 C 34.355,98.3919 13.836,99.4209 13.443,91.7539 C 12.962,82.3629 26.335,83.8069 26.216,82.7309 Z" transform=""/><ellipse cx="15.80282744321995" cy="92.48153732436066" rx="6.279018246362204" ry="2.561195756594709" fill="#49bbd6" stroke="none" transform="rotate(180.2177 15.802827633385778 92.48153737017266)" r="NaN"/><path fill="#42a8c1" stroke="none" d="M 32.5252,95.1564 C 28.9872,92.9624 26.8652,90.3374 25.9702,91.7804 C 25.3972,92.7044 23.6472,95.8574 24.4242,97.6464 C 27.7042,98.0564 32.9262,98.3984 36.0452,98.0694 C 35.1782,97.0754 33.9712,96.0534 32.5252,95.1564 Z" transform=""/><path fill="#49bbd6" stroke="none" d="M 36.3908,100.576 C 37.7388,99.5722 36.4778,96.2372 33.5738,93.1262 S 27.2218,88.3072 25.8738,89.3112 S 25.7868,93.6502 28.6908,96.7612 S 35.0428,101.58 36.3908,100.576 Z" transform=""/><path fill="#42a8c1" stroke="none" d="M 28.3897,78.3423 C 29.0387,76.6673 30.8167,75.7453 32.3617,76.2843 C 33.0777,76.5333 34.8807,76.4343 35.6797,76.2143 C 37.2607,75.7793 38.9677,76.8153 39.4917,78.5303 C 40.0157,80.2443 39.1597,81.9853 37.5787,82.4213 C 36.1147,82.8233 31.4997,82.8693 30.0117,82.3503 C 28.4667,81.8113 27.7407,80.0173 28.3897,78.3423 Z" transform=""/><path fill="#49bbd6" stroke="none" d="M 28.8476,77.6671 C 29.4746,76.0481 31.1936,75.1581 32.6866,75.6781 C 33.3776,75.9191 35.1196,75.8231 35.8926,75.6101 C 37.4196,75.1901 39.0686,76.1921 39.5756,77.8481 C 40.0816,79.5041 39.2546,81.1881 37.7266,81.6081 C 36.3126,81.9971 34.8296,81.8191 34.2096,80.3801 C 33.5296,81.8861 31.8526,82.0421 30.4156,81.5401 C 28.9226,81.0201 28.2206,79.2851 28.8476,77.6671 Z" transform=""/><ellipse cx="31.823746573876644" cy="76.14576999443508" rx="0.4727083170358341" ry="0.6568065607657936" fill="#304454" stroke="none" transform="rotate(1.5587 31.823747717790827 76.1457699330703)" r="NaN"/><ellipse cx="36.51803341189509" cy="76.14576999443508" rx="0.4727083170358341" ry="0.6568065607657936" fill="#304454" stroke="none" transform="rotate(1.5587 36.51803428890986 76.1457699330703)" r="NaN"/><path fill="#42a8c1" stroke="none" d="M 35.9885,78.2115 S 35.2585,79.4495 34.4215,79.4515 C 33.9155,79.4525 33.5795,78.9445 33.2725,78.1605 C 32.9195,77.2565 34.1035,76.9265 34.6505,76.9455 C 35.1475,76.9645 36.3165,77.0815 35.9885,78.2115 Z" transform=""/><path fill="#49bbd6" stroke="none" d="M 36.0213,77.4861 S 35.4483,78.8041 34.6173,78.9081 C 34.1153,78.9711 33.7203,78.5091 33.3193,77.7681 C 32.8583,76.9141 33.9933,76.4421 34.5383,76.3941 C 35.0343,76.3521 36.2083,76.3251 36.0213,77.4861 Z" transform=""/><path fill="none" stroke="#378fa4" d="M 37.5833,79.4469 S 39.5843,80.9019 40.2513,82.1509" style="stroke-miterlimit: 10" stroke-miterlimit="10" transform=""/><path fill="none" stroke="#378fa4" d="M 38.4146,78.6274 S 40.7946,79.2794 41.8646,80.2174" style="stroke-miterlimit: 10" stroke-miterlimit="10" transform=""/><path fill="none" stroke="#378fa4" d="M 30.6894,79.1727 S 28.6884,80.6277 28.0214,81.8767" style="stroke-miterlimit: 10" stroke-miterlimit="10" transform=""/><path fill="none" stroke="#378fa4" d="M 29.8581,78.3532 S 27.4781,79.0052 26.4081,79.9432" style="stroke-miterlimit: 10" stroke-miterlimit="10" transform=""/><path fill="#49bbd6" stroke="none" d="M 37.0891,98.2677 C 36.4181,97.4847 35.6551,97.1377 35.3841,97.4927 C 35.2271,97.6987 35.2741,98.0967 35.4681,98.5467 C 34.9641,98.1457 34.4921,98.0217 34.2911,98.2847 C 34.1751,98.4367 34.1741,98.6947 34.2551,98.9977 C 33.7141,98.5317 33.1911,98.3677 32.9761,98.6487 C 32.7051,99.0037 33.0291,99.9267 33.7001,100.71 C 34.3711,101.493 35.1341,101.84 35.4051,101.485 C 35.5211,101.333 35.5231,101.075 35.4411,100.772 C 35.9831,101.238 36.5061,101.402 36.7201,101.121 C 36.8771,100.915 36.8301,100.517 36.6361,100.068 C 37.1401,100.468 37.6121,100.593 37.8131,100.329 C 38.0831,99.9737 37.7601,99.0507 37.0891,98.2677 Z" transform=""/><path fill="#42a8c1" stroke="none" d="M 46.5542,94.7231 C 45.7782,94.0441 44.9732,93.8091 44.7552,94.2001 C 44.6292,94.4261 44.7332,94.8131 44.9892,95.2301 C 44.4342,94.9051 43.9492,94.8501 43.7872,95.1391 C 43.6942,95.3061 43.7292,95.5611 43.8532,95.8501 C 43.2512,95.4661 42.7102,95.3781 42.5382,95.6871 C 42.3202,96.0771 42.7722,96.9441 43.5482,97.6241 C 44.3232,98.3031 45.1282,98.5371 45.3462,98.1471 C 45.4392,97.9801 45.4042,97.7251 45.2802,97.4361 C 45.8822,97.8211 46.4232,97.9081 46.5962,97.5991 C 46.7212,97.3731 46.6182,96.9861 46.3622,96.5691 C 46.9172,96.8941 47.4022,96.9491 47.5642,96.6601 C 47.7822,96.2691 47.3302,95.4021 46.5542,94.7231 Z" transform=""/><ellipse cx="87.539184133833" cy="94.0107326859142" rx="7.537970369161617" ry="3.07457185668728" fill="#42a8c1" stroke="none" transform="rotate(203.0782 87.53918246904794 94.01073347070394)" r="NaN"/><path fill="#49bbd6" stroke="none" d="M 73.835,82.7309 C 72.952,74.7519 76.188,70.0609 80.198,69.8249 C 85.616,69.5069 88.896,72.9149 88.021,80.2899 C 87.843,81.7959 95.366,93.0999 88.151,96.6979 C 81.974,98.3919 61.455,99.4209 61.062,91.7539 C 60.581,82.3629 73.954,83.8069 73.835,82.7309 Z" transform=""/><ellipse cx="63.42187506226757" cy="92.48153732436066" rx="6.279018246362204" ry="2.561195756594709" fill="#49bbd6" stroke="none" transform="rotate(180.2177 63.421875252433395 92.48153737017266)" r="NaN"/><path fill="#42a8c1" stroke="none" d="M 80.1442,95.1564 C 76.6062,92.9624 74.4842,90.3374 73.5892,91.7804 C 73.0162,92.7044 71.2662,95.8574 72.0432,97.6464 C 75.3232,98.0564 80.5452,98.3984 83.6642,98.0694 C 82.7972,97.0754 81.5902,96.0534 80.1442,95.1564 Z" transform=""/><path fill="#49bbd6" stroke="none" d="M 84.0098,100.576 C 85.3578,99.5722 84.0968,96.2372 81.1928,93.1262 S 74.8408,88.3072 73.4928,89.3112 S 73.4058,93.6502 76.3098,96.7612 S 82.6618,101.58 84.0098,100.576 Z" transform=""/><path fill="#42a8c1" stroke="none" d="M 76.0088,78.3423 C 76.6578,76.6673 78.4358,75.7453 79.9808,76.2843 C 80.6968,76.5333 82.4998,76.4343 83.2988,76.2143 C 84.8798,75.7793 86.5868,76.8153 87.1108,78.5303 C 87.6348,80.2443 86.7788,81.9853 85.1978,82.4213 C 83.7338,82.8233 79.1188,82.8693 77.6308,82.3503 C 76.0858,81.8113 75.3598,80.0173 76.0088,78.3423 Z" transform=""/><path fill="#49bbd6" stroke="none" d="M 76.4666,77.6671 C 77.0936,76.0481 78.8126,75.1581 80.3056,75.6781 C 80.9966,75.9191 82.7386,75.8231 83.5116,75.6101 C 85.0386,75.1901 86.6876,76.1921 87.1946,77.8481 C 87.7006,79.5041 86.8736,81.1881 85.3456,81.6081 C 83.9316,81.9971 82.4486,81.8191 81.8286,80.3801 C 81.1486,81.8861 79.4716,82.0421 78.0346,81.5401 C 76.5416,81.0201 75.8396,79.2851 76.4666,77.6671 Z" transform=""/><ellipse cx="79.44279419292425" cy="76.14576999443508" rx="0.4727083170358341" ry="0.6568065607657936" fill="#304454" stroke="none" transform="rotate(1.5587 79.44279533683844 76.1457699330703)" r="NaN"/><ellipse cx="84.13708103094271" cy="76.14576999443508" rx="0.4727083170358341" ry="0.6568065607657936" fill="#304454" stroke="none" transform="rotate(1.5587 84.13708190795748 76.1457699330703)" r="NaN"/><path fill="#42a8c1" stroke="none" d="M 83.6075,78.2115 S 82.8775,79.4495 82.0405,79.4515 C 81.5345,79.4525 81.1985,78.9445 80.8915,78.1605 C 80.5385,77.2565 81.7225,76.9265 82.2695,76.9455 C 82.7665,76.9645 83.9355,77.0815 83.6075,78.2115 Z" transform=""/><path fill="#49bbd6" stroke="none" d="M 83.6403,77.4861 S 83.0673,78.8041 82.2363,78.9081 C 81.7343,78.9711 81.3393,78.5091 80.9383,77.7681 C 80.4773,76.9141 81.6123,76.4421 82.1573,76.3941 C 82.6533,76.3521 83.8273,76.3251 83.6403,77.4861 Z" transform=""/><path fill="none" stroke="#378fa4" d="M 85.2023,79.4469 S 87.2033,80.9019 87.8703,82.1509" style="stroke-miterlimit: 10" stroke-miterlimit="10" transform=""/><path fill="none" stroke="#378fa4" d="M 86.0336,78.6274 S 88.4136,79.2794 89.4836,80.2174" style="stroke-miterlimit: 10" stroke-miterlimit="10" transform=""/><path fill="none" stroke="#378fa4" d="M 78.3085,79.1727 S 76.3075,80.6277 75.6405,81.8767" style="stroke-miterlimit: 10" stroke-miterlimit="10" transform=""/><path fill="none" stroke="#378fa4" d="M 77.4772,78.3532 S 75.0972,79.0052 74.0272,79.9432" style="stroke-miterlimit: 10" stroke-miterlimit="10" transform=""/><path fill="#49bbd6" stroke="none" d="M 84.7082,98.2677 C 84.0372,97.4847 83.2742,97.1377 83.0032,97.4927 C 82.8462,97.6987 82.8932,98.0967 83.0872,98.5467 C 82.5832,98.1457 82.1112,98.0217 81.9102,98.2847 C 81.7942,98.4367 81.7932,98.6947 81.8742,98.9977 C 81.3332,98.5317 80.8102,98.3677 80.5952,98.6487 C 80.3242,99.0037 80.6482,99.9267 81.3192,100.71 C 81.9902,101.493 82.7532,101.84 83.0242,101.485 C 83.1402,101.333 83.1422,101.075 83.0602,100.772 C 83.6022,101.238 84.1252,101.402 84.3392,101.121 C 84.4962,100.915 84.4492,100.517 84.2552,100.068 C 84.7592,100.468 85.2312,100.593 85.4322,100.329 C 85.7022,99.9737 85.3792,99.0507 84.7082,98.2677 Z" transform=""/><path fill="#42a8c1" stroke="none" d="M 94.1733,94.7231 C 93.3973,94.0441 92.5923,93.8091 92.3743,94.2001 C 92.2483,94.4261 92.3523,94.8131 92.6083,95.2301 C 92.0533,94.9051 91.5683,94.8501 91.4063,95.1391 C 91.3133,95.3061 91.3483,95.5611 91.4723,95.8501 C 90.8703,95.4661 90.3293,95.3781 90.1573,95.6871 C 89.9393,96.0771 90.3913,96.9441 91.1673,97.6241 C 91.9423,98.3031 92.7473,98.5371 92.9653,98.1471 C 93.0583,97.9801 93.0233,97.7251 92.8993,97.4361 C 93.5013,97.8211 94.0423,97.9081 94.2153,97.5991 C 94.3403,97.3731 94.2373,96.9861 93.9813,96.5691 C 94.5363,96.8941 95.0213,96.9491 95.1833,96.6601 C 95.4013,96.2691 94.9493,95.4021 94.1733,94.7231 Z" transform=""/><ellipse cx="135.15823175288062" cy="94.0107326859142" rx="7.537970369161617" ry="3.07457185668728" fill="#42a8c1" stroke="none" transform="rotate(203.0782 135.15823008809556 94.01073347070394)" r="NaN"/><path fill="#49bbd6" stroke="none" d="M 121.454,82.7309 C 120.571,74.7519 123.807,70.0609 127.817,69.8249 C 133.235,69.5069 136.515,72.9149 135.64,80.2899 C 135.462,81.7959 142.985,93.0999 135.77,96.6979 C 129.593,98.3919 109.074,99.4209 108.681,91.7539 C 108.2,82.3629 121.573,83.8069 121.454,82.7309 Z" transform=""/><ellipse cx="111.0409226813152" cy="92.48153732436066" rx="6.279018246362204" ry="2.561195756594709" fill="#49bbd6" stroke="none" transform="rotate(180.2177 111.04092287148102 92.48153737017266)" r="NaN"/><path fill="#42a8c1" stroke="none" d="M 127.763,95.1564 C 124.225,92.9624 122.103,90.3374 121.208,91.7804 C 120.635,92.7044 118.885,95.8574 119.662,97.6464 C 122.942,98.0564 128.164,98.3984 131.283,98.0694 C 130.416,97.0754 129.209,96.0534 127.763,95.1564 Z" transform=""/><path fill="#49bbd6" stroke="none" d="M 131.629,100.576 C 132.977,99.5722 131.716,96.2372 128.812,93.1262 S 122.46,88.3072 121.112,89.3112 S 121.025,93.6502 123.929,96.7612 S 130.281,101.58 131.629,100.576 Z" transform=""/><path fill="#42a8c1" stroke="none" d="M 123.628,78.3423 C 124.277,76.6673 126.055,75.7453 127.6,76.2843 C 128.316,76.5333 130.119,76.4343 130.918,76.2143 C 132.499,75.7793 134.206,76.8153 134.73,78.5303 C 135.254,80.2443 134.398,81.9853 132.817,82.4213 C 131.353,82.8233 126.738,82.8693 125.25,82.3503 C 123.705,81.8113 122.979,80.0173 123.628,78.3423 Z" transform=""/><path fill="#49bbd6" stroke="none" d="M 124.086,77.6671 C 124.713,76.0481 126.432,75.1581 127.925,75.6781 C 128.616,75.9191 130.358,75.8231 131.131,75.6101 C 132.658,75.1901 134.307,76.1921 134.814,77.8481 C 135.32,79.5041 134.493,81.1881 132.965,81.6081 C 131.551,81.9971 130.068,81.8191 129.448,80.3801 C 128.768,81.8861 127.091,82.0421 125.654,81.5401 C 124.161,81.0201 123.459,79.2851 124.086,77.6671 Z" transform=""/><ellipse cx="127.06184181197187" cy="76.14576999443508" rx="0.4727083170358341" ry="0.6568065607657936" fill="#304454" stroke="none" transform="rotate(1.5587 127.06184295588606 76.1457699330703)" r="NaN"/><ellipse cx="131.75612864999033" cy="76.14576999443508" rx="0.4727083170358341" ry="0.6568065607657936" fill="#304454" stroke="none" transform="rotate(1.5587 131.7561295270051 76.1457699330703)" r="NaN"/><path fill="#42a8c1" stroke="none" d="M 131.227,78.2115 S 130.497,79.4495 129.66,79.4515 C 129.154,79.4525 128.818,78.9445 128.511,78.1605 C 128.158,77.2565 129.342,76.9265 129.889,76.9455 C 130.386,76.9645 131.555,77.0815 131.227,78.2115 Z" transform=""/><path fill="#49bbd6" stroke="none" d="M 131.259,77.4861 S 130.686,78.8041 129.855,78.9081 C 129.353,78.9711 128.958,78.5091 128.557,77.7681 C 128.096,76.9141 129.231,76.4421 129.776,76.3941 C 130.272,76.3521 131.446,76.3251 131.259,77.4861 Z" transform=""/><path fill="none" stroke="#378fa4" d="M 132.821,79.4469 S 134.822,80.9019 135.489,82.1509" style="stroke-miterlimit: 10" stroke-miterlimit="10" transform=""/><path fill="none" stroke="#378fa4" d="M 133.653,78.6274 S 136.033,79.2794 137.103,80.2174" style="stroke-miterlimit: 10" stroke-miterlimit="10" transform=""/><path fill="none" stroke="#378fa4" d="M 125.928,79.1727 S 123.927,80.6277 123.26,81.8767" style="stroke-miterlimit: 10" stroke-miterlimit="10" transform=""/><path fill="none" stroke="#378fa4" d="M 125.096,78.3532 S 122.716,79.0052 121.646,79.9432" style="stroke-miterlimit: 10" stroke-miterlimit="10" transform=""/><path fill="#49bbd6" stroke="none" d="M 132.327,98.2677 C 131.656,97.4847 130.893,97.1377 130.622,97.4927 C 130.465,97.6987 130.512,98.0967 130.706,98.5467 C 130.202,98.1457 129.73,98.0217 129.529,98.2847 C 129.413,98.4367 129.412,98.6947 129.493,98.9977 C 128.952,98.5317 128.429,98.3677 128.214,98.6487 C 127.943,99.0037 128.267,99.9267 128.938,100.71 C 129.609,101.493 130.372,101.84 130.643,101.485 C 130.759,101.333 130.761,101.075 130.679,100.772 C 131.221,101.238 131.744,101.402 131.958,101.121 C 132.115,100.915 132.068,100.517 131.874,100.068 C 132.378,100.468 132.85,100.593 133.051,100.329 C 133.321,99.9737 132.998,99.0507 132.327,98.2677 Z" transform=""/><path fill="#42a8c1" stroke="none" d="M 141.792,94.7231 C 141.016,94.0441 140.211,93.8091 139.993,94.2001 C 139.867,94.4261 139.971,94.8131 140.227,95.2301 C 139.672,94.9051 139.187,94.8501 139.025,95.1391 C 138.932,95.3061 138.967,95.5611 139.091,95.8501 C 138.489,95.4661 137.948,95.3781 137.776,95.6871 C 137.558,96.0771 138.01,96.9441 138.786,97.6241 C 139.561,98.3031 140.366,98.5371 140.584,98.1471 C 140.677,97.9801 140.642,97.7251 140.518,97.4361 C 141.12,97.8211 141.661,97.9081 141.834,97.5991 C 141.959,97.3731 141.856,96.9861 141.6,96.5691 C 142.155,96.8941 142.64,96.9491 142.802,96.6601 C 143.02,96.2691 142.568,95.4021 141.792,94.7231 Z" transform=""/><path fill="#bed575" stroke="none" d="M 23.0742,23.6826 S 23.4932,21.5446 22.7442,19.8226 C 22.2222,18.6216 19.3182,19.9636 15.7532,21.8556 C 11.7352,23.9886 8.45223,20.7716 9.85223,24.4686 C 11.2322,28.1136 14.6772,30.2286 18.1772,28.7186 C 20.1722,27.8586 22.5762,26.2696 23.0742,23.6826 Z" transform=""/><path fill="#d0e285" stroke="none" d="M 37.334,21.5461 S 36.521,20.0121 36.694,18.5251 C 36.814,17.4881 39.339,17.8411 42.497,18.4601 C 46.054,19.1591 47.815,15.9451 47.602,19.0901 C 47.391,22.1891 45.252,24.5991 42.234,24.2561 C 40.513,24.0611 38.311,23.4041 37.334,21.5461 Z" transform=""/><path fill="#d0e285" stroke="none" d="M 27.0127,28.6053 S 26.5937,26.4673 27.3427,24.7453 C 27.8647,23.5443 30.7687,24.8863 34.3337,26.7783 C 38.3517,28.9113 41.6347,25.6943 40.2347,29.3913 C 38.8547,33.0363 35.4097,35.1513 31.9097,33.6413 C 29.9147,32.7813 27.5097,31.1923 27.0127,28.6053 Z" transform=""/><ellipse cx="29.59058342786067" cy="17.69698441535595" rx="14.604638014318725" ry="9.670281528970813" fill="#bed575" stroke="none" r="NaN" transform=""/><path fill="#bed575" stroke="none" d="M 17.6797,15.6065 C 17.6797,20.7175 23.2517,24.8615 30.1247,24.8615 C 36.9977,24.8615 42.5697,20.7175 42.5697,15.6065 S 36.8277,3.96153 29.9547,3.96153 S 17.6797,10.4955 17.6797,15.6065 Z" transform=""/><path fill="#a9bc65" stroke="none" d="M 26.5063,16.7388 L 30.0673,18.9878 L 33.7963,17.0278 L 33.9633,12.8198 L 30.4023,10.5698 L 26.6733,12.5298 Z" transform=""/><path fill="#a9bc65" stroke="none" d="M 24.8312,16.8173 L 24.9982,12.6083 L 21.4372,10.3593 L 18.7402,11.7773 C 18.0592,13.1783 17.6802,14.6253 17.6802,15.9743 C 17.6802,16.1973 17.6942,16.4183 17.7152,16.6373 L 21.1032,18.7763 L 24.8312,16.8173 Z" transform=""/><path fill="#a9bc65" stroke="none" d="M 31.1566,5.61993 L 31.2906,9.37593 L 34.3086,11.6169 L 37.1926,10.1009 L 37.0736,6.74493 C 35.8116,5.83993 34.3886,5.13193 32.8646,4.72293 L 31.1566,5.61993 Z" transform=""/><path fill="#a9bc65" stroke="none" d="M 35.14,17.6051 L 38.701,19.8541 L 42.274,17.9761 C 42.35,17.7221 42.411,17.4641 42.457,17.2021 L 42.533,15.2961 C 42.474,14.6701 42.337,14.0311 42.127,13.3891 L 39.036,11.4361 L 35.307,13.3961 L 35.14,17.6051 Z" transform=""/><path fill="#a9bc65" stroke="none" d="M 21.5845,9.98417 L 24.7335,11.9952 L 28.7625,9.81917 L 29.6415,5.63217 L 27.9105,4.52617 C 25.7245,4.94217 23.7475,5.99717 22.1275,7.39817 L 21.5845,9.98417 Z" transform=""/><path fill="#a9bc65" stroke="none" d="M 38.9278,8.32666 L 38.8688,9.81966 L 41.1848,11.2827 C 40.5918,10.2397 39.8288,9.23466 38.9278,8.32666 Z" transform=""/><path fill="#a9bc65" stroke="none" d="M 37.3416,23.5119 L 37.4356,21.1429 L 33.8746,18.8939 L 30.1456,20.8539 L 29.9786,25.0629 L 30.2396,25.2269 C 32.8876,25.2089 35.3346,24.5759 37.3416,23.5119 Z" transform=""/><path fill="#a9bc65" stroke="none" d="M 29.0326,24.4781 L 29.1996,20.2691 L 25.6386,18.0201 L 21.9096,19.9801 L 21.7956,22.8501 C 23.4766,23.9771 25.5726,24.7651 27.8916,25.0771 L 29.0326,24.4781 Z" transform=""/><path fill="#a9bc65" stroke="none" d="M 41.8078,19.1695 L 38.6038,20.8535 L 38.5268,22.8005 C 39.9788,21.8125 41.1148,20.5705 41.8078,19.1695 Z" transform=""/><path fill="#a9bc65" stroke="none" d="M 20.6473,21.9693 L 20.7343,19.7793 L 17.9983,18.0513 C 18.4513,19.5223 19.3753,20.8593 20.6473,21.9693 Z" transform=""/><path fill="#a9bc65" stroke="none" d="M 22.0418,13.7367 S 23.9188,12.6317 25.7928,12.7657 C 27.0988,12.8587 28.6278,13.0957 29.9268,14.3527 C 31.6958,16.0637 32.1148,18.8857 32.1368,20.3297 C 32.1938,24.1457 29.6458,26.5607 25.6928,26.4687 C 21.7968,26.3777 18.6568,23.8317 18.9188,20.0287 C 19.0668,17.8617 19.7668,15.0657 22.0418,13.7367 Z" style="opacity: 0.7" opacity="0.7" transform=""/><path fill="#d0e285" stroke="none" d="M 15.989,21.679 S 16.667,19.856 18.019,18.878 C 18.96,18.196 20.133,17.485 21.706,17.597 C 23.846,17.75 20.493,20.532 22.261,23.589 C 24.253,27.033 28.174,26.056 25.427,28.25 C 22.719,30.412 19.187,30.473 17.291,27.739 C 16.209,26.181 15.162,23.881 15.989,21.679 Z" transform=""/><path fill="#d0e285" stroke="none" d="M 15.4248,9.59486 S 17.3018,8.48986 19.1758,8.62386 C 20.4818,8.71686 22.0108,8.95386 23.3098,10.2109 C 25.0788,11.9219 25.4978,14.7439 25.5198,16.1879 C 25.5768,20.0039 23.0288,22.4189 19.0758,22.3269 C 15.1798,22.2359 12.0398,19.6899 12.3018,15.8869 C 12.4498,13.7199 13.1498,10.9239 15.4248,9.59486 Z" transform=""/><ellipse cx="20.531957206043828" cy="15.846076162126751" rx="0.4937712619668842" ry="0.6863294686302654" fill="#304454" stroke="none" transform="rotate(188.8934 20.53195720093769 15.846076094112744)" r="NaN"/><ellipse cx="14.761084423641584" cy="14.634931553936134" rx="0.4937712619668842" ry="0.6863294686302654" fill="#304454" stroke="none" transform="rotate(188.8934 14.761084236097878 14.63493112104699)" r="NaN"/><ellipse cx="17.469904144582816" cy="18.83093802778445" rx="1.3755955547913452" ry="1.2296037118308731" fill="#c75e72" stroke="none" r="NaN" transform=""/><ellipse cx="16.357345537978077" cy="17.601334418374666" rx="2.1311452937908" ry="1.4422987244198369" fill="#d0e285" stroke="none" r="NaN" transform=""/><path fill="#bed575" stroke="none" d="M 70.6933,23.6826 S 71.1123,21.5446 70.3633,19.8226 C 69.8413,18.6216 66.9373,19.9636 63.3723,21.8556 C 59.3543,23.9886 56.0713,20.7716 57.4713,24.4686 C 58.8513,28.1136 62.2963,30.2286 65.7963,28.7186 C 67.7913,27.8586 70.1953,26.2696 70.6933,23.6826 Z" transform=""/><path fill="#d0e285" stroke="none" d="M 84.9531,21.5461 S 84.1401,20.0121 84.3131,18.5251 C 84.4331,17.4881 86.9581,17.8411 90.1161,18.4601 C 93.6731,19.1591 95.4341,15.9451 95.2211,19.0901 C 95.0101,22.1891 92.8711,24.5991 89.8531,24.2561 C 88.1321,24.0611 85.9301,23.4041 84.9531,21.5461 Z" transform=""/><path fill="#d0e285" stroke="none" d="M 74.6317,28.6053 S 74.2127,26.4673 74.9617,24.7453 C 75.4837,23.5443 78.3877,24.8863 81.9527,26.7783 C 85.9707,28.9113 89.2537,25.6943 87.8537,29.3913 C 86.4737,33.0363 83.0287,35.1513 79.5287,33.6413 C 77.5337,32.7813 75.1287,31.1923 74.6317,28.6053 Z" transform=""/><ellipse cx="77.20963104690829" cy="17.69698441535595" rx="14.604638014318725" ry="9.670281528970813" fill="#bed575" stroke="none" r="NaN" transform=""/><path fill="#bed575" stroke="none" d="M 65.2987,15.6065 C 65.2987,20.7175 70.8707,24.8615 77.7437,24.8615 S 90.1887,20.7175 90.1887,15.6065 S 84.4467,3.96153 77.5737,3.96153 S 65.2987,10.4955 65.2987,15.6065 Z" transform=""/><path fill="#a9bc65" stroke="none" d="M 74.1253,16.7388 L 77.6863,18.9878 L 81.4153,17.0278 L 81.5823,12.8198 L 78.0213,10.5698 L 74.2923,12.5298 Z" transform=""/><path fill="#a9bc65" stroke="none" d="M 72.4502,16.8173 L 72.6172,12.6083 L 69.0562,10.3593 L 66.3592,11.7773 C 65.6782,13.1783 65.2992,14.6253 65.2992,15.9743 C 65.2992,16.1973 65.3132,16.4183 65.3342,16.6373 L 68.7222,18.7763 L 72.4502,16.8173 Z" transform=""/><path fill="#a9bc65" stroke="none" d="M 78.7757,5.61993 L 78.9097,9.37593 L 81.9277,11.6169 L 84.8117,10.1009 L 84.6927,6.74493 C 83.4307,5.83993 82.0077,5.13193 80.4837,4.72293 L 78.7757,5.61993 Z" transform=""/><path fill="#a9bc65" stroke="none" d="M 82.759,17.6051 L 86.32,19.8541 L 89.893,17.9761 C 89.969,17.7221 90.03,17.4641 90.076,17.2021 L 90.152,15.2961 C 90.093,14.6701 89.956,14.0311 89.746,13.3891 L 86.655,11.4361 L 82.926,13.3961 L 82.759,17.6051 Z" transform=""/><path fill="#a9bc65" stroke="none" d="M 69.2036,9.98417 L 72.3526,11.9952 L 76.3816,9.81917 L 77.2606,5.63217 L 75.5296,4.52617 C 73.3436,4.94217 71.3666,5.99717 69.7466,7.39817 L 69.2036,9.98417 Z" transform=""/><path fill="#a9bc65" stroke="none" d="M 86.5468,8.32666 L 86.4878,9.81966 L 88.8038,11.2827 C 88.2108,10.2397 87.4478,9.23466 86.5468,8.32666 Z" transform=""/><path fill="#a9bc65" stroke="none" d="M 84.9606,23.5119 L 85.0546,21.1429 L 81.4936,18.8939 L 77.7646,20.8539 L 77.5976,25.0629 L 77.8586,25.2269 C 80.5066,25.2089 82.9536,24.5759 84.9606,23.5119 Z" transform=""/><path fill="#a9bc65" stroke="none" d="M 76.6517,24.4781 L 76.8187,20.2691 L 73.2577,18.0201 L 69.5287,19.9801 L 69.4147,22.8501 C 71.0957,23.9771 73.1917,24.7651 75.5107,25.0771 L 76.6517,24.4781 Z" transform=""/><path fill="#a9bc65" stroke="none" d="M 89.4268,19.1695 L 86.2228,20.8535 L 86.1458,22.8005 C 87.5978,21.8125 88.7338,20.5705 89.4268,19.1695 Z" transform=""/><path fill="#a9bc65" stroke="none" d="M 68.2664,21.9693 L 68.3534,19.7793 L 65.6174,18.0513 C 66.0704,19.5223 66.9944,20.8593 68.2664,21.9693 Z" transform=""/><path fill="#a9bc65" stroke="none" d="M 69.6608,13.7367 S 71.5378,12.6317 73.4118,12.7657 C 74.7178,12.8587 76.2468,13.0957 77.5458,14.3527 C 79.3148,16.0637 79.7338,18.8857 79.7558,20.3297 C 79.8128,24.1457 77.2648,26.5607 73.3118,26.4687 C 69.4158,26.3777 66.2758,23.8317 66.5378,20.0287 C 66.6858,17.8617 67.3858,15.0657 69.6608,13.7367 Z" style="opacity: 0.7" opacity="0.7" transform=""/><path fill="#d0e285" stroke="none" d="M 63.6081,21.679 S 64.2861,19.856 65.6381,18.878 C 66.5791,18.196 67.7521,17.485 69.3251,17.597 C 71.4651,17.75 68.1121,20.532 69.8801,23.589 C 71.8721,27.033 75.7931,26.056 73.0461,28.25 C 70.3381,30.412 66.8061,30.473 64.9101,27.739 C 63.8281,26.181 62.7811,23.881 63.6081,21.679 Z" transform=""/><path fill="#d0e285" stroke="none" d="M 63.0438,9.59486 S 64.9208,8.48986 66.7948,8.62386 C 68.1008,8.71686 69.6298,8.95386 70.9288,10.2109 C 72.6978,11.9219 73.1168,14.7439 73.1388,16.1879 C 73.1958,20.0039 70.6478,22.4189 66.6948,22.3269 C 62.7988,22.2359 59.6588,19.6899 59.9208,15.8869 C 60.0688,13.7199 60.7688,10.9239 63.0438,9.59486 Z" transform=""/><ellipse cx="68.15100482509145" cy="15.846076162126751" rx="0.4937712619668842" ry="0.6863294686302654" fill="#304454" stroke="none" transform="rotate(188.8934 68.1510048199853 15.846076094112744)" r="NaN"/><ellipse cx="62.3801320426892" cy="14.634931553936134" rx="0.4937712619668842" ry="0.6863294686302654" fill="#304454" stroke="none" transform="rotate(188.8934 62.38013185514549 14.63493112104699)" r="NaN"/><ellipse cx="65.08895176363043" cy="18.83093802778445" rx="1.3755955547913452" ry="1.2296037118308731" fill="#c75e72" stroke="none" r="NaN" transform=""/><ellipse cx="63.9763931570257" cy="17.601334418374666" rx="2.1311452937908" ry="1.4422987244198369" fill="#d0e285" stroke="none" r="NaN" transform=""/></svg>