<svg xmlns="http://www.w3.org/2000/svg" version="1.1" width="400" height="63.15789473684211" viewBox="0 0 400 63.15789473684211"><defs><radialGradient id="r-096f80fa463d48a4874d466b0964d6c6" fx="0.5" fy="0.5"><stop offset="0%" stop-color="#fee6d3"/><stop offset="29.16%" stop-color="#fee4d0"/><stop offset="52.23%" stop-color="#fedec6"/><stop offset="73.2%" stop-color="#fdd3b6"/><stop offset="92.83%" stop-color="#fcc4a0"/><stop offset="100%" stop-color="#fbbd97"/></radialGradient><radialGradient id="r-89cd35db1b084f85957dea7f38fdac7e" fx="0.5" fy="0.5"><stop offset="0%" stop-color="#ffe600"/><stop offset="29.16%" stop-color="#ffe400"/><stop offset="52.23%" stop-color="#ffdd00"/><stop offset="73.2%" stop-color="#ffd100"/><stop offset="92.83%" stop-color="#fec00f"/><stop offset="100%" stop-color="#fdb913"/></radialGradient><radialGradient id="r-44f56c4432a24c828b84fb048ea0e3a1" fx="0.5" fy="0.5"><stop offset="0%" stop-color="#fee6d3"/><stop offset="29.16%" stop-color="#fee4d0"/><stop offset="52.23%" stop-color="#fedec6"/><stop offset="73.2%" stop-color="#fdd3b6"/><stop offset="92.83%" stop-color="#fcc4a0"/><stop offset="100%" stop-color="#fbbd97"/></radialGradient><radialGradient id="r-0a1731df75d742c988fd7c21c758f076" fx="0.5" fy="0.5"><stop offset="0%" stop-color="#ffe600"/><stop offset="29.16%" stop-color="#ffe400"/><stop offset="52.23%" stop-color="#ffdd00"/><stop offset="73.2%" stop-color="#ffd100"/><stop offset="92.83%" stop-color="#fec00f"/><stop offset="100%" stop-color="#fdb913"/></radialGradient><radialGradient id="r-26cfec004d814784844b4ac5e8bba716" fx="0.5" fy="0.5"><stop offset="0%" stop-color="#fee6d3"/><stop offset="29.16%" stop-color="#fee4d0"/><stop offset="52.23%" stop-color="#fedec6"/><stop offset="73.2%" stop-color="#fdd3b6"/><stop offset="92.83%" stop-color="#fcc4a0"/><stop offset="100%" stop-color="#fbbd97"/></radialGradient><radialGradient id="r-3f58890f10cb48e28217e5e33d3fb703" fx="0.5" fy="0.5"><stop offset="0%" stop-color="#ffe600"/><stop offset="29.16%" stop-color="#ffe400"/><stop offset="52.23%" stop-color="#ffdd00"/><stop offset="73.2%" stop-color="#ffd100"/><stop offset="92.83%" stop-color="#fec00f"/><stop offset="100%" stop-color="#fdb913"/></radialGradient></defs><path fill="#d78334" stroke="none" d="M 32.4222,43.7002 C 33.1472,44.3562 37.1232,45.3012 39.6052,42.0882 C 41.2212,39.9942 37.4562,41.0772 36.5952,40.9572 C 35.7102,40.8312 35.0122,39.2862 33.3772,39.6732 C 31.6102,40.0922 30.8522,42.2802 32.4222,43.7002 Z" transform=""/><path fill="#d78334" stroke="none" d="M 36.2066,46.1986 S 37.3136,44.7636 37.7246,45.0906 C 37.9746,45.2916 37.5606,47.9216 37.1506,48.7426 C 36.7396,49.5626 35.1816,48.5776 35.1816,48.5776 L 36.2066,46.1986 Z" transform=""/><path fill="#f89c44" stroke="none" d="M 27.6116,45.5916 S 22.2616,43.8266 21.4226,38.6176 C 20.3846,32.1856 12.6676,33.6776 10.6546,35.2466 C 10.6546,35.2466 14.8886,37.2766 15.1906,43.1516 C 15.4396,48.0376 22.8126,50.6216 26.9176,46.5926 L 27.6116,45.5916 Z" transform=""/><path fill="#f4953f" stroke="none" d="M 29.7229,39.7975 S 24.0279,45.7495 25.4059,49.2925 C 26.6429,52.4705 34.7449,52.9025 36.9419,52.5105 C 38.0339,52.3145 39.6109,46.5265 38.7469,46.2325 C 37.9709,45.9685 37.0199,47.4085 37.0199,47.4085 S 35.4739,39.4955 32.3349,39.2595 C 29.1969,39.0245 29.7229,39.7975 29.7229,39.7975 Z" transform=""/><path fill="url(#r-096f80fa463d48a4874d466b0964d6c6)" stroke="none" d="M 37.0202,47.4095 S 35.5002,39.6395 32.4172,39.2725 L 32.7502,42.4785 C 32.7502,42.4795 34.7482,46.8885 37.0202,47.4095 Z" opacity="1" fill-opacity="1" style="opacity: 1;fill-opacity: 1" transform=""/><path fill="#d14e3f" stroke="none" d="M 32.8061,39.3603 C 31.8861,39.2843 30.7201,39.1783 29.8971,39.9163 C 28.5441,41.1283 28.9251,43.4123 30.9831,43.9103 C 31.5591,44.0493 33.8581,43.6043 35.4541,42.4743 C 34.7861,41.0203 33.9051,39.7243 32.8061,39.3603 Z" transform=""/><path fill="#fedcbd" stroke="none" d="M 32.789,39.3587 C 32.671,39.3487 32.548,39.3397 32.424,39.3307 L 32.751,42.4787 S 32.949,42.9157 33.29,43.5297 C 34.019,43.2907 34.794,42.9407 35.452,42.4747 C 34.782,41.0157 33.895,39.7137 32.789,39.3587 Z" transform=""/><path fill="url(#r-89cd35db1b084f85957dea7f38fdac7e)" stroke="none" d="M 24.7883,18.3364 S 28.6763,15.4394 33.3273,15.9734 C 33.3273,15.9734 35.0993,11.5184 37.9973,10.5264 C 37.9973,10.5264 39.9423,13.9644 40.0073,17.1424 C 40.0073,17.1424 45.9083,24.9694 46.3653,28.8584 C 46.3653,28.8584 50.1773,28.7824 51.0153,28.3254 C 51.0153,28.3254 52.4703,27.7034 51.3803,29.0474 C 49.5623,31.2874 44.1923,36.2064 39.0463,38.1604 C 32.8023,40.5304 27.1523,41.5144 23.0343,38.1604 C 19.1303,34.9794 19.5273,24.1314 19.5273,24.1314 S 17.3163,19.6334 17.2403,16.2784 C 19.7053,15.6514 24.7883,18.3364 24.7883,18.3364 Z" opacity="1" fill-opacity="1" style="opacity: 1;fill-opacity: 1" transform=""/><path fill="#f89c44" stroke="none" d="M 24.7883,18.3364 S 28.8613,15.2194 33.5123,15.7524 C 33.5123,15.7524 35.0993,11.5174 37.9963,10.5264 C 37.9963,10.5264 39.9423,13.9644 40.0073,17.1424 C 40.0073,17.1424 45.9073,24.9694 46.3643,28.8584 C 46.3643,28.8584 50.1763,28.7824 51.0143,28.3254 C 51.0143,28.3254 52.4703,27.7034 51.3793,29.0474 C 49.5613,31.2874 44.1923,36.2064 39.0453,38.1604 C 32.8013,40.5304 27.1513,41.5144 23.0333,38.1604 C 19.1303,34.9794 19.5263,24.1314 19.5263,24.1314 S 17.3163,19.6334 17.2393,16.2784 C 19.7053,15.6514 24.7883,18.3364 24.7883,18.3364 Z" transform=""/><path fill="#f4dbc5" stroke="none" d="M 18.924,34.7031 L 18.815,36.1091 L 17.639,35.8741 L 17.639,37.1301 L 16.304,37.0511 L 16.304,38.3071 L 14.892,38.1501 L 14.379,39.4971 C 13.066,36.4041 10.655,35.2461 10.655,35.2461 C 12.047,34.1601 16.172,33.1141 18.924,34.7031 Z" transform=""/><path fill="#f4953f" stroke="none" d="M 29.5818,43.7002 C 30.3068,44.3562 34.2828,45.3012 36.7648,42.0882 C 38.3808,39.9942 34.6158,41.0772 33.7548,40.9572 C 32.8698,40.8312 32.1718,39.2862 30.5368,39.6732 C 28.7698,40.0922 28.0118,42.2802 29.5818,43.7002 Z" transform=""/><path fill="#f4dbc5" stroke="none" d="M 35.3919,15.8784 S 38.1159,16.0514 40.0079,17.1424 C 39.9429,13.9644 37.9969,10.5264 37.9969,10.5264 S 35.2669,12.7414 35.3919,15.8784 Z" transform=""/><ellipse cx="34.718798827989076" cy="29.781833137790336" rx="0.7396342207878385" ry="1.2289962430369552" fill="#304454" stroke="none" r="NaN" transform=""/><ellipse cx="41.659858296977674" cy="27.295084917308593" rx="0.5543262950612957" ry="1.2289962430369552" fill="#304454" stroke="none" transform="rotate(-10.5324 41.659857853645676 27.295085585607463)" r="NaN"/><path fill="#d78334" stroke="none" d="M 36.2737,12.021 S 36.3757,11.748 36.5747,11.327 C 36.3177,11.53 36.0777,11.755 35.8517,11.992 C 35.9927,12.002 36.1317,12.004 36.2737,12.021 Z" style="opacity: 0.5" opacity="0.5" transform=""/><path fill="#d78334" stroke="none" d="M 51.2852,28.2312 C 48.7732,30.4992 45.2442,33.1232 41.8082,34.4282 C 35.5642,36.7982 29.9142,37.7812 25.7962,34.4282 C 21.8922,31.2472 22.2892,20.3982 22.2892,20.3982 S 21.4762,18.7392 20.8192,16.6882 C 19.5312,16.2882 18.1922,16.0362 17.2412,16.2782 C 17.3172,19.6322 19.5282,24.1302 19.5282,24.1302 S 19.1312,34.9792 23.0352,38.1602 C 27.1522,41.5142 32.8022,40.5302 39.0462,38.1602 C 44.1932,36.2062 49.5632,31.2882 51.3802,29.0472 C 52.1552,28.0912 51.6452,28.1292 51.2852,28.2312 Z" style="opacity: 0.5" opacity="0.5" transform=""/><path fill="none" stroke="#414042" d="M 27.6877,39.0893 S 26.3647,39.8113 25.7627,40.7133" style="stroke-linecap: round;stroke-linejoin: round;stroke-width: 0.26624701972204406px" stroke-width="0.26624701972204406" stroke-linecap="round" stroke-linejoin="round" transform=""/><path fill="none" stroke="#414042" d="M 26.545,38.7288 S 25.041,39.1498 24.5,39.6308" style="stroke-linecap: round;stroke-linejoin: round;stroke-width: 0.26624701972204406px" stroke-width="0.26624701972204406" stroke-linecap="round" stroke-linejoin="round" transform=""/><path fill="#f4dbc5" stroke="none" d="M 17.3057,16.4295 C 17.2857,16.4745 17.2697,16.5205 17.2527,16.5645 C 17.4407,19.8835 19.5277,24.1305 19.5277,24.1305 C 20.5817,21.8445 23.0787,20.0615 23.0787,20.0615 C 21.5227,18.0505 17.3057,16.4295 17.3057,16.4295 Z" transform=""/><ellipse cx="51.01684503230774" cy="28.55336955739102" rx="1.486723358127894" ry="1.2582834152063802" fill="#304454" stroke="none" r="NaN" transform=""/><path fill="#d78334" stroke="none" d="M 85.0537,43.7002 C 85.7787,44.3562 89.7547,45.3012 92.2367,42.0882 C 93.8527,39.9942 90.0877,41.0772 89.2267,40.9572 C 88.3417,40.8312 87.6437,39.2862 86.0087,39.6732 C 84.2417,40.0922 83.4837,42.2802 85.0537,43.7002 Z" transform=""/><path fill="#d78334" stroke="none" d="M 88.8382,46.1986 S 89.9452,44.7636 90.3562,45.0906 C 90.6062,45.2916 90.1922,47.9216 89.7822,48.7426 C 89.3712,49.5626 87.8132,48.5776 87.8132,48.5776 L 88.8382,46.1986 Z" transform=""/><path fill="#f89c44" stroke="none" d="M 80.2432,45.5916 S 74.8932,43.8266 74.0542,38.6176 C 73.0162,32.1856 65.2992,33.6776 63.2862,35.2466 C 63.2862,35.2466 67.5202,37.2766 67.8222,43.1516 C 68.0712,48.0376 75.4442,50.6216 79.5492,46.5926 L 80.2432,45.5916 Z" transform=""/><path fill="#f4953f" stroke="none" d="M 82.3545,39.7975 S 76.6595,45.7495 78.0375,49.2925 C 79.2745,52.4705 87.3765,52.9025 89.5735,52.5105 C 90.6655,52.3145 92.2425,46.5265 91.3785,46.2325 C 90.6025,45.9685 89.6515,47.4085 89.6515,47.4085 S 88.1055,39.4955 84.9665,39.2595 C 81.8285,39.0245 82.3545,39.7975 82.3545,39.7975 Z" transform=""/><path fill="url(#r-44f56c4432a24c828b84fb048ea0e3a1)" stroke="none" d="M 89.6518,47.4095 S 88.1318,39.6395 85.0488,39.2725 L 85.3818,42.4785 C 85.3818,42.4795 87.3798,46.8885 89.6518,47.4095 Z" opacity="1" fill-opacity="1" style="opacity: 1;fill-opacity: 1" transform=""/><path fill="#d14e3f" stroke="none" d="M 85.4377,39.3603 C 84.5177,39.2843 83.3517,39.1783 82.5287,39.9163 C 81.1757,41.1283 81.5567,43.4123 83.6147,43.9103 C 84.1907,44.0493 86.4897,43.6043 88.0857,42.4743 C 87.4177,41.0203 86.5367,39.7243 85.4377,39.3603 Z" transform=""/><path fill="#fedcbd" stroke="none" d="M 85.4206,39.3587 C 85.3026,39.3487 85.1796,39.3397 85.0556,39.3307 L 85.3826,42.4787 S 85.5806,42.9157 85.9216,43.5297 C 86.6506,43.2907 87.4256,42.9407 88.0836,42.4747 C 87.4136,41.0157 86.5266,39.7137 85.4206,39.3587 Z" transform=""/><path fill="url(#r-0a1731df75d742c988fd7c21c758f076)" stroke="none" d="M 77.4199,18.3364 S 81.3079,15.4394 85.9589,15.9734 C 85.9589,15.9734 87.7309,11.5184 90.6289,10.5264 C 90.6289,10.5264 92.5739,13.9644 92.6389,17.1424 C 92.6389,17.1424 98.5399,24.9694 98.9969,28.8584 C 98.9969,28.8584 102.809,28.7824 103.647,28.3254 C 103.647,28.3254 105.102,27.7034 104.012,29.0474 C 102.194,31.2874 96.8239,36.2064 91.6779,38.1604 C 85.4339,40.5304 79.7839,41.5144 75.6659,38.1604 C 71.7619,34.9794 72.1589,24.1314 72.1589,24.1314 S 69.9479,19.6334 69.8719,16.2784 C 72.3369,15.6514 77.4199,18.3364 77.4199,18.3364 Z" opacity="1" fill-opacity="1" style="opacity: 1;fill-opacity: 1" transform=""/><path fill="#f89c44" stroke="none" d="M 77.4199,18.3364 S 81.4929,15.2194 86.1439,15.7524 C 86.1439,15.7524 87.7309,11.5174 90.6279,10.5264 C 90.6279,10.5264 92.5739,13.9644 92.6389,17.1424 C 92.6389,17.1424 98.5389,24.9694 98.9959,28.8584 C 98.9959,28.8584 102.808,28.7824 103.646,28.3254 C 103.646,28.3254 105.102,27.7034 104.011,29.0474 C 102.193,31.2874 96.8239,36.2064 91.6769,38.1604 C 85.4329,40.5304 79.7829,41.5144 75.6649,38.1604 C 71.7619,34.9794 72.1579,24.1314 72.1579,24.1314 S 69.9479,19.6334 69.8709,16.2784 C 72.3369,15.6514 77.4199,18.3364 77.4199,18.3364 Z" transform=""/><path fill="#f4dbc5" stroke="none" d="M 71.5555,34.7031 L 71.4465,36.1091 L 70.2705,35.8741 L 70.2705,37.1301 L 68.9355,37.0511 L 68.9355,38.3071 L 67.5235,38.1501 L 67.0105,39.4971 C 65.6975,36.4041 63.2865,35.2461 63.2865,35.2461 C 64.6785,34.1601 68.8035,33.1141 71.5555,34.7031 Z" transform=""/><path fill="#f4953f" stroke="none" d="M 82.2134,43.7002 C 82.9384,44.3562 86.9144,45.3012 89.3964,42.0882 C 91.0124,39.9942 87.2474,41.0772 86.3864,40.9572 C 85.5014,40.8312 84.8034,39.2862 83.1684,39.6732 C 81.4014,40.0922 80.6434,42.2802 82.2134,43.7002 Z" transform=""/><path fill="#f4dbc5" stroke="none" d="M 88.0234,15.8784 S 90.7474,16.0514 92.6394,17.1424 C 92.5744,13.9644 90.6284,10.5264 90.6284,10.5264 S 87.8984,12.7414 88.0234,15.8784 Z" transform=""/><ellipse cx="87.3503777753575" cy="29.781833137790336" rx="0.7396342207878385" ry="1.2289962430369552" fill="#304454" stroke="none" r="NaN" transform=""/><ellipse cx="94.2914372443461" cy="27.295084917308593" rx="0.5543262950612957" ry="1.2289962430369552" fill="#304454" stroke="none" transform="rotate(-10.5324 94.2914368010141 27.295085585607463)" r="NaN"/><path fill="#d78334" stroke="none" d="M 88.9053,12.021 S 89.0073,11.748 89.2063,11.327 C 88.9493,11.53 88.7093,11.755 88.4833,11.992 C 88.6243,12.002 88.7633,12.004 88.9053,12.021 Z" style="opacity: 0.5" opacity="0.5" transform=""/><path fill="#d78334" stroke="none" d="M 103.917,28.2312 C 101.405,30.4992 97.8758,33.1232 94.4398,34.4282 C 88.1958,36.7982 82.5458,37.7812 78.4278,34.4282 C 74.5238,31.2472 74.9208,20.3982 74.9208,20.3982 S 74.1078,18.7392 73.4508,16.6882 C 72.1628,16.2882 70.8238,16.0362 69.8728,16.2782 C 69.9488,19.6322 72.1598,24.1302 72.1598,24.1302 S 71.7628,34.9792 75.6668,38.1602 C 79.7838,41.5142 85.4338,40.5302 91.6778,38.1602 C 96.8248,36.2062 102.195,31.2882 104.012,29.0472 C 104.787,28.0912 104.277,28.1292 103.917,28.2312 Z" style="opacity: 0.5" opacity="0.5" transform=""/><path fill="none" stroke="#414042" d="M 80.3193,39.0893 S 78.9963,39.8113 78.3943,40.7133" style="stroke-linecap: round;stroke-linejoin: round;stroke-width: 0.26624701972204406px" stroke-width="0.26624701972204406" stroke-linecap="round" stroke-linejoin="round" transform=""/><path fill="none" stroke="#414042" d="M 79.1766,38.7288 S 77.6726,39.1498 77.1316,39.6308" style="stroke-linecap: round;stroke-linejoin: round;stroke-width: 0.26624701972204406px" stroke-width="0.26624701972204406" stroke-linecap="round" stroke-linejoin="round" transform=""/><path fill="#f4dbc5" stroke="none" d="M 69.9373,16.4295 C 69.9173,16.4745 69.9013,16.5205 69.8843,16.5645 C 70.0723,19.8835 72.1593,24.1305 72.1593,24.1305 C 73.2133,21.8445 75.7103,20.0615 75.7103,20.0615 C 74.1543,18.0505 69.9373,16.4295 69.9373,16.4295 Z" transform=""/><ellipse cx="103.64842397967618" cy="28.55336955739102" rx="1.486723358127894" ry="1.2582834152063802" fill="#304454" stroke="none" r="NaN" transform=""/><path fill="#d78334" stroke="none" d="M 137.685,43.7002 C 138.41,44.3562 142.386,45.3012 144.868,42.0882 C 146.484,39.9942 142.719,41.0772 141.858,40.9572 C 140.973,40.8312 140.275,39.2862 138.64,39.6732 C 136.873,40.0922 136.115,42.2802 137.685,43.7002 Z" transform=""/><path fill="#d78334" stroke="none" d="M 141.47,46.1986 S 142.577,44.7636 142.988,45.0906 C 143.238,45.2916 142.824,47.9216 142.414,48.7426 C 142.003,49.5626 140.445,48.5776 140.445,48.5776 L 141.47,46.1986 Z" transform=""/><path fill="#f89c44" stroke="none" d="M 132.875,45.5916 S 127.525,43.8266 126.686,38.6176 C 125.648,32.1856 117.931,33.6776 115.918,35.2466 C 115.918,35.2466 120.152,37.2766 120.454,43.1516 C 120.703,48.0376 128.076,50.6216 132.181,46.5926 L 132.875,45.5916 Z" transform=""/><path fill="#f4953f" stroke="none" d="M 134.986,39.7975 S 129.291,45.7495 130.669,49.2925 C 131.906,52.4705 140.008,52.9025 142.205,52.5105 C 143.297,52.3145 144.874,46.5265 144.01,46.2325 C 143.234,45.9685 142.283,47.4085 142.283,47.4085 S 140.737,39.4955 137.598,39.2595 C 134.46,39.0245 134.986,39.7975 134.986,39.7975 Z" transform=""/><path fill="url(#r-26cfec004d814784844b4ac5e8bba716)" stroke="none" d="M 142.283,47.4095 S 140.763,39.6395 137.68,39.2725 L 138.013,42.4785 C 138.013,42.4795 140.011,46.8885 142.283,47.4095 Z" opacity="1" fill-opacity="1" style="opacity: 1;fill-opacity: 1" transform=""/><path fill="#d14e3f" stroke="none" d="M 138.069,39.3603 C 137.149,39.2843 135.983,39.1783 135.16,39.9163 C 133.807,41.1283 134.188,43.4123 136.246,43.9103 C 136.822,44.0493 139.121,43.6043 140.717,42.4743 C 140.049,41.0203 139.168,39.7243 138.069,39.3603 Z" transform=""/><path fill="#fedcbd" stroke="none" d="M 138.052,39.3587 C 137.934,39.3487 137.811,39.3397 137.687,39.3307 L 138.014,42.4787 S 138.212,42.9157 138.553,43.5297 C 139.282,43.2907 140.057,42.9407 140.715,42.4747 C 140.045,41.0157 139.158,39.7137 138.052,39.3587 Z" transform=""/><path fill="url(#r-3f58890f10cb48e28217e5e33d3fb703)" stroke="none" d="M 130.051,18.3364 S 133.939,15.4394 138.59,15.9734 C 138.59,15.9734 140.362,11.5184 143.26,10.5264 C 143.26,10.5264 145.205,13.9644 145.27,17.1424 C 145.27,17.1424 151.171,24.9694 151.628,28.8584 C 151.628,28.8584 155.44,28.7824 156.278,28.3254 C 156.278,28.3254 157.733,27.7034 156.643,29.0474 C 154.825,31.2874 149.455,36.2064 144.309,38.1604 C 138.065,40.5304 132.415,41.5144 128.297,38.1604 C 124.393,34.9794 124.79,24.1314 124.79,24.1314 S 122.579,19.6334 122.503,16.2784 C 124.968,15.6514 130.051,18.3364 130.051,18.3364 Z" opacity="1" fill-opacity="1" style="opacity: 1;fill-opacity: 1" transform=""/><path fill="#f89c44" stroke="none" d="M 130.051,18.3364 S 134.124,15.2194 138.775,15.7524 C 138.775,15.7524 140.362,11.5174 143.259,10.5264 C 143.259,10.5264 145.205,13.9644 145.27,17.1424 C 145.27,17.1424 151.17,24.9694 151.627,28.8584 C 151.627,28.8584 155.439,28.7824 156.277,28.3254 C 156.277,28.3254 157.733,27.7034 156.642,29.0474 C 154.824,31.2874 149.455,36.2064 144.308,38.1604 C 138.064,40.5304 132.414,41.5144 128.296,38.1604 C 124.393,34.9794 124.789,24.1314 124.789,24.1314 S 122.579,19.6334 122.502,16.2784 C 124.968,15.6514 130.051,18.3364 130.051,18.3364 Z" transform=""/><path fill="#f4dbc5" stroke="none" d="M 124.187,34.7031 L 124.078,36.1091 L 122.902,35.8741 L 122.902,37.1301 L 121.567,37.0511 L 121.567,38.3071 L 120.155,38.1501 L 119.642,39.4971 C 118.329,36.4041 115.918,35.2461 115.918,35.2461 C 117.31,34.1601 121.435,33.1141 124.187,34.7031 Z" transform=""/><path fill="#f4953f" stroke="none" d="M 134.845,43.7002 C 135.57,44.3562 139.546,45.3012 142.028,42.0882 C 143.644,39.9942 139.879,41.0772 139.018,40.9572 C 138.133,40.8312 137.435,39.2862 135.8,39.6732 C 134.033,40.0922 133.275,42.2802 134.845,43.7002 Z" transform=""/><path fill="#f4dbc5" stroke="none" d="M 140.655,15.8784 S 143.379,16.0514 145.271,17.1424 C 145.206,13.9644 143.26,10.5264 143.26,10.5264 S 140.53,12.7414 140.655,15.8784 Z" transform=""/><ellipse cx="139.98195672272595" cy="29.781833137790336" rx="0.7396342207878385" ry="1.2289962430369552" fill="#304454" stroke="none" r="NaN" transform=""/><ellipse cx="146.92301619171454" cy="27.295084917308593" rx="0.5543262950612957" ry="1.2289962430369552" fill="#304454" stroke="none" transform="rotate(-10.5324 146.92301574838254 27.295085585607463)" r="NaN"/><path fill="#d78334" stroke="none" d="M 141.537,12.021 S 141.639,11.748 141.838,11.327 C 141.581,11.53 141.341,11.755 141.115,11.992 C 141.256,12.002 141.395,12.004 141.537,12.021 Z" style="opacity: 0.5" opacity="0.5" transform=""/><path fill="#d78334" stroke="none" d="M 156.548,28.2312 C 154.036,30.4992 150.507,33.1232 147.071,34.4282 C 140.827,36.7982 135.177,37.7812 131.059,34.4282 C 127.155,31.2472 127.552,20.3982 127.552,20.3982 S 126.739,18.7392 126.082,16.6882 C 124.794,16.2882 123.455,16.0362 122.504,16.2782 C 122.58,19.6322 124.791,24.1302 124.791,24.1302 S 124.394,34.9792 128.298,38.1602 C 132.415,41.5142 138.065,40.5302 144.309,38.1602 C 149.456,36.2062 154.826,31.2882 156.643,29.0472 C 157.418,28.0912 156.908,28.1292 156.548,28.2312 Z" style="opacity: 0.5" opacity="0.5" transform=""/><path fill="none" stroke="#414042" d="M 132.951,39.0893 S 131.628,39.8113 131.026,40.7133" style="stroke-linecap: round;stroke-linejoin: round;stroke-width: 0.26624701972204406px" stroke-width="0.26624701972204406" stroke-linecap="round" stroke-linejoin="round" transform=""/><path fill="none" stroke="#414042" d="M 131.808,38.7288 S 130.304,39.1498 129.763,39.6308" style="stroke-linecap: round;stroke-linejoin: round;stroke-width: 0.26624701972204406px" stroke-width="0.26624701972204406" stroke-linecap="round" stroke-linejoin="round" transform=""/><path fill="#f4dbc5" stroke="none" d="M 122.569,16.4295 C 122.549,16.4745 122.533,16.5205 122.516,16.5645 C 122.704,19.8835 124.791,24.1305 124.791,24.1305 C 125.845,21.8445 128.342,20.0615 128.342,20.0615 C 126.786,18.0505 122.569,16.4295 122.569,16.4295 Z" transform=""/><ellipse cx="156.28000292704462" cy="28.55336955739102" rx="1.486723358127894" ry="1.2582834152063802" fill="#304454" stroke="none" r="NaN" transform=""/></svg>