<svg xmlns="http://www.w3.org/2000/svg" version="1.1" width="400" height="133.33333333333334" viewBox="0 0 400 133.33333333333334"><defs/><path fill="#deb958" stroke="none" d="M 26.7564,100.437 S 27.3624,100.801 28.3924,100.255 C 28.3924,99.0533 28.5144,96.4513 28.5844,95.0373 C 27.2974,94.8233 26.0544,94.5803 24.7994,94.4483 C 25.3324,96.3043 25.9764,98.3093 26.7564,100.437 Z" transform=""/><path fill="#deb958" stroke="none" d="M 37.0126,95.9525 C 37.7106,97.8595 38.3186,100.327 38.3186,100.327 S 38.8556,100.622 39.6996,100.106 C 40.1276,98.3855 40.5676,94.7055 41.3026,91.3585 C 39.6866,92.7585 38.1686,94.2375 37.0126,95.9525 Z" transform=""/><path fill="#ccaa4f" stroke="none" d="M 27.1029,96.1978 C 27.2979,95.8058 27.9059,95.8278 28.5399,95.9708 C 28.5559,95.6288 28.5719,95.3118 28.5849,95.0378 C 27.2979,94.8238 26.0549,94.5808 24.7999,94.4488 C 25.3329,96.3048 25.9769,98.3098 26.7569,100.438 C 26.7569,100.438 27.3629,100.802 28.3929,100.256 C 28.3929,100.115 28.3949,99.9528 28.3979,99.7768 C 26.5509,99.9208 26.5899,97.3518 27.1029,96.1978 Z" transform=""/><path fill="#ccaa4f" stroke="none" d="M 39.4966,99.2612 C 38.9906,97.3372 39.8096,95.6342 40.7756,94.0452 C 40.9346,93.1542 41.1086,92.2452 41.3026,91.3592 C 39.6866,92.7582 38.1686,94.2372 37.0126,95.9532 C 37.7106,97.8592 38.3186,100.327 38.3186,100.327 S 38.8556,100.623 39.6996,100.107 C 39.7406,99.9412 39.7816,99.7562 39.8236,99.5562 C 39.6346,99.5032 39.4966,99.3992 39.4966,99.2612 Z" transform=""/><path fill="#304454" stroke="none" d="M 26.7564,100.437 S 26.4974,101.594 26.7374,102.423 C 26.9404,102.608 28.4164,102.737 28.9504,101.999 C 28.9134,101.575 28.6084,100.632 28.3924,100.255 C 28.3924,100.255 27.3844,100.719 26.7564,100.437 Z" transform=""/><path fill="#304454" stroke="none" d="M 38.2444,100.295 S 38.8584,100.663 39.7514,100.083 C 40.1604,100.557 40.4244,102.219 40.4244,102.219 S 39.1384,103.19 38.0294,102.636 C 38.0294,102.636 37.7024,101.07 38.2444,100.295 Z" transform=""/><path fill="#f1d285" stroke="none" d="M 12.5488,75.5054 S 7.84075,78.2724 10.1718,80.3604 C 12.5008,82.4454 15.2388,81.7924 15.4388,80.8614 C 16.9698,81.6594 19.4848,80.6654 19.4848,80.6654 S 19.7508,89.3774 24.4068,102.081 C 24.4068,102.081 25.0718,102.481 26.2018,101.881 C 26.2018,100.019 26.4688,95.0984 26.4688,95.0984 S 32.3218,96.7614 35.3148,95.8964 C 35.7798,97.8914 35.9128,101.615 35.9128,101.615 S 36.3788,102.014 37.3098,101.682 C 38.2398,99.7534 39.7698,95.0314 41.5658,91.5734 C 43.3618,88.1144 43.9608,80.6654 38.2398,80.9314 C 32.5198,81.1974 27.7318,80.7324 26.1348,79.2024 C 24.5388,77.6724 24.6718,75.4774 24.8718,73.7484 C 25.0718,72.0184 23.1428,69.7574 21.2128,70.0234 C 19.2848,70.2894 15.8748,71.3564 14.4958,72.3504 C 13.1848,73.2964 12.5488,75.5054 12.5488,75.5054 Z" transform=""/><path fill="#deb958" stroke="none" d="M 37.9445,94.5262 C 34.3245,95.3612 30.7035,94.6652 27.0825,93.9692 C 26.5255,93.8302 25.5505,93.5512 25.1335,92.7152 C 26.1075,95.0832 25.9685,97.4502 25.5505,99.8172 C 25.5505,100.235 24.5765,100.653 24.4365,100.235 C 23.1835,96.8932 22.3695,93.4292 21.8305,89.8372 C 21.0855,84.8722 19.8855,79.2532 21.5125,75.0302 C 19.9485,79.0872 15.0635,79.1222 14.8895,79.5332 C 14.5035,80.4432 10.0185,80.2302 10.0185,80.2302 C 11.6245,82.0772 14.8895,82.1002 15.4185,80.8612 C 15.4405,80.8112 15.4635,80.7632 15.4895,80.7182 C 16.3785,81.7422 19.4655,80.6652 19.4655,80.6652 S 19.7315,89.3782 24.3875,102.081 C 24.3875,102.081 25.0525,102.48 26.1825,101.882 C 26.1825,100.019 26.4485,95.0982 26.4485,95.0982 S 32.3015,96.7602 35.2945,95.8962 C 35.7595,97.8912 35.8935,101.616 35.8935,101.616 S 36.3345,101.991 37.2135,101.707 C 36.0015,99.6172 36.2895,96.4572 37.9445,94.5262 Z" style="opacity: 0.5" opacity="0.5" transform=""/><path fill="#deb958" stroke="none" d="M 20.5577,72.1061 C 21.4927,71.8721 22.1227,71.1151 22.4467,70.1761 C 22.0507,70.0271 21.6327,69.9661 21.2147,70.0241 C 19.4487,70.2671 16.5157,71.2901 14.9087,72.1251 C 16.7427,72.5501 18.6937,72.5451 20.5577,72.1061 Z" transform=""/><path fill="#f4953f" stroke="none" d="M 40.7021,82.5937 S 40.5691,80.0667 43.7611,80.0667 C 46.9541,80.0667 47.8851,82.1947 46.8871,85.5867 C 45.8901,88.9787 46.0221,90.3087 47.1531,89.9767 C 47.1531,89.9767 47.3531,89.5777 47.0201,89.5777 C 47.0201,89.5777 47.6191,89.4447 47.6191,90.1097 C 47.6191,90.7747 46.3551,91.2407 45.2911,90.0437 C 45.2241,90.7077 46.4211,91.0407 46.8211,91.0407 C 46.2221,91.7727 44.3601,92.1047 43.5611,90.2427 C 42.7631,88.3797 42.8301,87.3167 42.8301,87.3167 S 42.4971,83.9237 42.0321,83.7917 C 42.0321,83.7917 40.9681,83.8577 40.7021,82.5937 Z" transform=""/><path fill="#2c8fc0" stroke="none" d="M 44.1036,86.5703 C 44.0966,86.3853 44.0916,86.2043 44.0916,86.0313 C 44.0466,86.2113 44.0606,86.3913 44.1036,86.5703 Z" transform=""/><path fill="#d78334" stroke="none" d="M 44.1036,86.5703 C 44.0606,86.3913 44.0476,86.2113 44.0916,86.0313 C 44.0916,86.2043 44.0966,86.3853 44.1036,86.5703 M 44.1036,86.5703 C 44.1936,86.9483 44.4156,87.3253 44.5096,87.7023 C 44.7876,85.8923 45.3446,83.2463 42.9776,82.8283 C 43.3956,82.5503 43.8136,82.6893 44.2306,82.8283 C 43.9526,81.9933 42.5596,82.4113 42.4206,81.9933 C 42.2806,81.0183 43.8136,81.2973 44.6486,81.2973 C 44.2406,81.0253 43.9636,80.4863 43.5606,80.0713 C 40.5766,80.1763 40.7016,82.5933 40.7016,82.5933 C 40.9676,83.8573 42.0316,83.7913 42.0316,83.7913 C 42.4976,83.9243 42.8296,87.3163 42.8296,87.3163 S 42.7636,88.3803 43.5616,90.2423 C 44.1826,91.6903 45.4456,91.8113 46.2576,91.4503 C 44.6416,90.6523 44.1766,88.3643 44.1036,86.5703 Z" transform=""/><path fill="#304454" stroke="none" d="M 24.4074,102.082 S 24.1234,103.351 24.3864,104.262 C 24.6084,104.465 26.2284,104.607 26.8164,103.797 C 26.7754,103.331 26.4404,102.297 26.2034,101.882 C 26.2034,101.883 25.0964,102.393 24.4074,102.082 Z" transform=""/><path fill="#304454" stroke="none" d="M 35.8472,101.568 S 36.3732,102.054 37.3652,101.669 C 37.6692,102.216 37.5882,103.897 37.5882,103.897 S 36.1302,104.585 35.1582,103.816 C 35.1592,103.816 35.1592,102.217 35.8472,101.568 Z" transform=""/><path fill="#f4953f" stroke="none" d="M 21.7408,71.2005 S 19.2138,72.3305 17.0198,71.8655 C 14.8238,71.3995 12.6298,68.5395 14.6248,67.0095 C 14.4918,67.7415 14.7578,69.3375 17.0198,69.0715 C 16.4198,69.0715 15.6888,67.8075 16.2868,67.0095 C 16.4878,67.4085 17.0198,68.6055 18.8148,68.0075 C 20.6098,67.4085 24.2018,66.4115 25.9308,69.0715 C 27.6598,71.7325 27.1948,76.4545 31.2518,76.3205 C 31.7838,76.2545 31.7178,75.3895 31.0518,75.3895 C 32.3158,75.2565 34.4448,79.7135 28.8578,80.2455 C 27.1948,80.8445 24.0028,79.0485 23.9358,76.3875 C 23.8698,73.7275 24.4018,70.8005 21.7408,71.2005 L 21.7408,71.2005 Z" transform=""/><path fill="#d78334" stroke="none" d="M 32.3451,76.6135 C 32.2291,76.9055 32.0181,77.1465 31.6661,77.3065 C 30.5511,77.8625 29.0201,77.5855 27.7661,76.8885 C 27.9061,77.4445 28.0451,77.8625 28.7421,77.8625 C 25.1211,78.5585 24.2851,74.3815 24.7031,71.5965 C 24.8431,72.4325 25.5381,73.4075 26.5141,73.5465 C 25.6641,72.3775 25.9491,70.7215 26.0081,69.1975 C 25.9831,69.1555 25.9581,69.1125 25.9311,69.0715 C 24.7931,67.3195 22.8451,67.1535 21.1371,67.4165 C 20.3791,68.9685 19.7761,70.6685 17.6021,70.0655 C 17.8811,70.4825 18.1591,70.4825 18.7161,70.4825 C 17.7341,71.0715 16.5441,71.3835 15.4401,71.1255 C 15.9221,71.4815 16.4711,71.7475 17.0201,71.8655 C 19.2141,72.3305 21.7411,71.2005 21.7411,71.2005 C 24.4021,70.8005 23.8701,73.7275 23.9371,76.3865 C 24.0031,79.0475 27.1951,80.8435 28.8581,80.2445 C 32.4511,79.9025 32.8521,77.9375 32.3451,76.6135 L 32.3451,76.6135 Z" transform=""/><path fill="#f1d285" stroke="none" d="M 22.2297,72.3878 S 21.5327,70.8628 22.6227,69.8158 C 23.7117,68.7698 23.7117,68.7698 23.7117,68.7698 S 24.4097,70.4268 24.0177,71.6468 C 23.7547,72.5618 22.8837,73.0848 22.2297,72.3878 Z" transform=""/><path fill="#f6a5bf" stroke="none" d="M 20.8437,68.347 C 20.8447,68.352 20.8467,68.356 20.8477,68.36 L 20.8477,68.36 L 20.8477,68.36 C 20.8477,68.358 20.8457,68.354 20.8437,68.347 M 20.8437,68.347 L 20.8437,68.347 Z" transform=""/><path fill="#ccaa4f" stroke="none" d="M 23.4348,69.7464 S 22.2958,70.5274 22.4908,71.5694 C 22.6868,72.6104 23.3698,71.9264 23.5328,71.5694 C 23.6948,71.2104 23.4348,69.7464 23.4348,69.7464 Z" transform=""/><path fill="#e8c4dd" stroke="none" d="M 28.9131,80.392 S 28.9041,80.405 28.8891,80.432 C 28.9061,80.435 28.9211,80.439 28.9381,80.443 C 28.9291,80.426 28.9201,80.409 28.9131,80.392 M 28.9131,80.392 L 28.9131,80.392 Z" transform=""/><ellipse cx="16.830110524585642" cy="75.159965144891" rx="0.4948681102718656" ry="0.8221023260468762" fill="#304454" stroke="none" r="NaN" transform=""/><path fill="#deb958" stroke="none" d="M 74.3754,100.437 S 74.9814,100.801 76.0114,100.255 C 76.0114,99.0533 76.1334,96.4513 76.2034,95.0373 C 74.9164,94.8233 73.6734,94.5803 72.4184,94.4483 C 72.9514,96.3043 73.5954,98.3093 74.3754,100.437 Z" transform=""/><path fill="#deb958" stroke="none" d="M 84.6316,95.9525 C 85.3296,97.8595 85.9376,100.327 85.9376,100.327 S 86.4746,100.622 87.3186,100.106 C 87.7466,98.3855 88.1866,94.7055 88.9216,91.3585 C 87.3056,92.7585 85.7876,94.2375 84.6316,95.9525 Z" transform=""/><path fill="#ccaa4f" stroke="none" d="M 74.722,96.1978 C 74.917,95.8058 75.525,95.8278 76.159,95.9708 C 76.175,95.6288 76.191,95.3118 76.204,95.0378 C 74.917,94.8238 73.674,94.5808 72.419,94.4488 C 72.952,96.3048 73.596,98.3098 74.376,100.438 C 74.376,100.438 74.982,100.802 76.012,100.256 C 76.012,100.115 76.014,99.9528 76.017,99.7768 C 74.17,99.9208 74.209,97.3518 74.722,96.1978 Z" transform=""/><path fill="#ccaa4f" stroke="none" d="M 87.1156,99.2612 C 86.6096,97.3372 87.4286,95.6342 88.3946,94.0452 C 88.5536,93.1542 88.7276,92.2452 88.9216,91.3592 C 87.3056,92.7582 85.7876,94.2372 84.6316,95.9532 C 85.3296,97.8592 85.9376,100.327 85.9376,100.327 S 86.4746,100.623 87.3186,100.107 C 87.3596,99.9412 87.4006,99.7562 87.4426,99.5562 C 87.2536,99.5032 87.1156,99.3992 87.1156,99.2612 Z" transform=""/><path fill="#304454" stroke="none" d="M 74.3754,100.437 S 74.1164,101.594 74.3564,102.423 C 74.5594,102.608 76.0354,102.737 76.5694,101.999 C 76.5324,101.575 76.2274,100.632 76.0114,100.255 C 76.0114,100.255 75.0034,100.719 74.3754,100.437 Z" transform=""/><path fill="#304454" stroke="none" d="M 85.8635,100.295 S 86.4775,100.663 87.3705,100.083 C 87.7795,100.557 88.0435,102.219 88.0435,102.219 S 86.7575,103.19 85.6485,102.636 C 85.6485,102.636 85.3215,101.07 85.8635,100.295 Z" transform=""/><path fill="#f1d285" stroke="none" d="M 60.1678,75.5054 S 55.4598,78.2724 57.7908,80.3604 C 60.1198,82.4454 62.8578,81.7924 63.0578,80.8614 C 64.5888,81.6594 67.1038,80.6654 67.1038,80.6654 S 67.3698,89.3774 72.0258,102.081 C 72.0258,102.081 72.6908,102.481 73.8208,101.881 C 73.8208,100.019 74.0878,95.0984 74.0878,95.0984 S 79.9408,96.7614 82.9338,95.8964 C 83.3988,97.8914 83.5318,101.615 83.5318,101.615 S 83.9978,102.014 84.9288,101.682 C 85.8588,99.7534 87.3888,95.0314 89.1848,91.5734 C 90.9808,88.1144 91.5798,80.6654 85.8588,80.9314 C 80.1388,81.1974 75.3508,80.7324 73.7538,79.2024 C 72.1578,77.6724 72.2908,75.4774 72.4908,73.7484 C 72.6908,72.0184 70.7618,69.7574 68.8318,70.0234 C 66.9038,70.2894 63.4938,71.3564 62.1148,72.3504 C 60.8038,73.2964 60.1678,75.5054 60.1678,75.5054 Z" transform=""/><path fill="#deb958" stroke="none" d="M 85.5635,94.5262 C 81.9435,95.3612 78.3225,94.6652 74.7015,93.9692 C 74.1445,93.8302 73.1695,93.5512 72.7525,92.7152 C 73.7265,95.0832 73.5875,97.4502 73.1695,99.8172 C 73.1695,100.235 72.1955,100.653 72.0555,100.235 C 70.8025,96.8932 69.9885,93.4292 69.4495,89.8372 C 68.7045,84.8722 67.5045,79.2532 69.1315,75.0302 C 67.5675,79.0872 62.6825,79.1222 62.5085,79.5332 C 62.1225,80.4432 57.6375,80.2302 57.6375,80.2302 C 59.2435,82.0772 62.5085,82.1002 63.0375,80.8612 C 63.0595,80.8112 63.0825,80.7632 63.1085,80.7182 C 63.9975,81.7422 67.0845,80.6652 67.0845,80.6652 S 67.3505,89.3782 72.0065,102.081 C 72.0065,102.081 72.6715,102.48 73.8015,101.882 C 73.8015,100.019 74.0675,95.0982 74.0675,95.0982 S 79.9205,96.7602 82.9135,95.8962 C 83.3785,97.8912 83.5125,101.616 83.5125,101.616 S 83.9535,101.991 84.8325,101.707 C 83.6205,99.6172 83.9085,96.4572 85.5635,94.5262 Z" style="opacity: 0.5" opacity="0.5" transform=""/><path fill="#deb958" stroke="none" d="M 68.1767,72.1061 C 69.1117,71.8721 69.7417,71.1151 70.0657,70.1761 C 69.6697,70.0271 69.2517,69.9661 68.8337,70.0241 C 67.0677,70.2671 64.1347,71.2901 62.5277,72.1251 C 64.3617,72.5501 66.3127,72.5451 68.1767,72.1061 Z" transform=""/><path fill="#f4953f" stroke="none" d="M 88.3212,82.5937 S 88.1882,80.0667 91.3802,80.0667 C 94.5732,80.0667 95.5042,82.1947 94.5062,85.5867 C 93.5092,88.9787 93.6412,90.3087 94.7722,89.9767 C 94.7722,89.9767 94.9722,89.5777 94.6392,89.5777 C 94.6392,89.5777 95.2382,89.4447 95.2382,90.1097 C 95.2382,90.7747 93.9742,91.2407 92.9102,90.0437 C 92.8432,90.7077 94.0402,91.0407 94.4402,91.0407 C 93.8412,91.7727 91.9792,92.1047 91.1802,90.2427 C 90.3822,88.3797 90.4492,87.3167 90.4492,87.3167 S 90.1162,83.9237 89.6512,83.7917 C 89.6512,83.7917 88.5872,83.8577 88.3212,82.5937 Z" transform=""/><path fill="#2c8fc0" stroke="none" d="M 91.7226,86.5703 C 91.7156,86.3853 91.7106,86.2043 91.7106,86.0313 C 91.6656,86.2113 91.6796,86.3913 91.7226,86.5703 Z" transform=""/><path fill="#d78334" stroke="none" d="M 91.7226,86.5703 C 91.6796,86.3913 91.6666,86.2113 91.7106,86.0313 C 91.7106,86.2043 91.7156,86.3853 91.7226,86.5703 M 91.7226,86.5703 C 91.8126,86.9483 92.0346,87.3253 92.1286,87.7023 C 92.4066,85.8923 92.9636,83.2463 90.5966,82.8283 C 91.0146,82.5503 91.4326,82.6893 91.8496,82.8283 C 91.5716,81.9933 90.1786,82.4113 90.0396,81.9933 C 89.8996,81.0183 91.4326,81.2973 92.2676,81.2973 C 91.8596,81.0253 91.5826,80.4863 91.1796,80.0713 C 88.1956,80.1763 88.3206,82.5933 88.3206,82.5933 C 88.5866,83.8573 89.6506,83.7913 89.6506,83.7913 C 90.1166,83.9243 90.4486,87.3163 90.4486,87.3163 S 90.3826,88.3803 91.1806,90.2423 C 91.8016,91.6903 93.0646,91.8113 93.8766,91.4503 C 92.2606,90.6523 91.7956,88.3643 91.7226,86.5703 Z" transform=""/><path fill="#304454" stroke="none" d="M 72.0264,102.082 S 71.7424,103.351 72.0054,104.262 C 72.2274,104.465 73.8474,104.607 74.4354,103.797 C 74.3944,103.331 74.0594,102.297 73.8224,101.882 C 73.8224,101.883 72.7154,102.393 72.0264,102.082 Z" transform=""/><path fill="#304454" stroke="none" d="M 83.4662,101.568 S 83.9922,102.054 84.9842,101.669 C 85.2882,102.216 85.2072,103.897 85.2072,103.897 S 83.7492,104.585 82.7772,103.816 C 82.7782,103.816 82.7782,102.217 83.4662,101.568 Z" transform=""/><path fill="#f4953f" stroke="none" d="M 69.3598,71.2005 S 66.8328,72.3305 64.6388,71.8655 C 62.4428,71.3995 60.2488,68.5395 62.2438,67.0095 C 62.1108,67.7415 62.3768,69.3375 64.6388,69.0715 C 64.0388,69.0715 63.3078,67.8075 63.9058,67.0095 C 64.1068,67.4085 64.6388,68.6055 66.4338,68.0075 C 68.2288,67.4085 71.8208,66.4115 73.5498,69.0715 C 75.2788,71.7325 74.8138,76.4545 78.8708,76.3205 C 79.4028,76.2545 79.3368,75.3895 78.6708,75.3895 C 79.9348,75.2565 82.0638,79.7135 76.4768,80.2455 C 74.8138,80.8445 71.6218,79.0485 71.5548,76.3875 C 71.4888,73.7275 72.0208,70.8005 69.3598,71.2005 L 69.3598,71.2005 Z" transform=""/><path fill="#d78334" stroke="none" d="M 79.9641,76.6135 C 79.8481,76.9055 79.6371,77.1465 79.2851,77.3065 C 78.1701,77.8625 76.6391,77.5855 75.3851,76.8885 C 75.5251,77.4445 75.6641,77.8625 76.3611,77.8625 C 72.7401,78.5585 71.9041,74.3815 72.3221,71.5965 C 72.4621,72.4325 73.1571,73.4075 74.1331,73.5465 C 73.2831,72.3775 73.5681,70.7215 73.6271,69.1975 C 73.6021,69.1555 73.5771,69.1125 73.5501,69.0715 C 72.4121,67.3195 70.4641,67.1535 68.7561,67.4165 C 67.9981,68.9685 67.3951,70.6685 65.2211,70.0655 C 65.5001,70.4825 65.7781,70.4825 66.3351,70.4825 C 65.3531,71.0715 64.1631,71.3835 63.0591,71.1255 C 63.5411,71.4815 64.0901,71.7475 64.6391,71.8655 C 66.8331,72.3305 69.3601,71.2005 69.3601,71.2005 C 72.0211,70.8005 71.4891,73.7275 71.5561,76.3865 C 71.6221,79.0475 74.8141,80.8435 76.4771,80.2445 C 80.0701,79.9025 80.4711,77.9375 79.9641,76.6135 L 79.9641,76.6135 Z" transform=""/><path fill="#f1d285" stroke="none" d="M 69.8488,72.3878 S 69.1518,70.8628 70.2418,69.8158 C 71.3308,68.7698 71.3308,68.7698 71.3308,68.7698 S 72.0288,70.4268 71.6368,71.6468 C 71.3738,72.5618 70.5028,73.0848 69.8488,72.3878 Z" transform=""/><path fill="#f6a5bf" stroke="none" d="M 68.4627,68.347 C 68.4637,68.352 68.4657,68.356 68.4667,68.36 L 68.4667,68.36 L 68.4667,68.36 C 68.4667,68.358 68.4647,68.354 68.4627,68.347 M 68.4627,68.347 L 68.4627,68.347 Z" transform=""/><path fill="#ccaa4f" stroke="none" d="M 71.0538,69.7464 S 69.9148,70.5274 70.1098,71.5694 C 70.3058,72.6104 70.9888,71.9264 71.1518,71.5694 C 71.3138,71.2104 71.0538,69.7464 71.0538,69.7464 Z" transform=""/><path fill="#e8c4dd" stroke="none" d="M 76.5322,80.392 S 76.5232,80.405 76.5082,80.432 C 76.5252,80.435 76.5402,80.439 76.5572,80.443 C 76.5482,80.426 76.5392,80.409 76.5322,80.392 M 76.5322,80.392 L 76.5322,80.392 Z" transform=""/><ellipse cx="64.44915814363326" cy="75.159965144891" rx="0.4948681102718656" ry="0.8221023260468762" fill="#304454" stroke="none" r="NaN" transform=""/><path fill="#deb958" stroke="none" d="M 121.994,100.437 S 122.6,100.801 123.63,100.255 C 123.63,99.0533 123.752,96.4513 123.822,95.0373 C 122.535,94.8233 121.292,94.5803 120.037,94.4483 C 120.57,96.3043 121.214,98.3093 121.994,100.437 Z" transform=""/><path fill="#deb958" stroke="none" d="M 132.251,95.9525 C 132.949,97.8595 133.557,100.327 133.557,100.327 S 134.094,100.622 134.938,100.106 C 135.366,98.3855 135.806,94.7055 136.541,91.3585 C 134.925,92.7585 133.407,94.2375 132.251,95.9525 Z" transform=""/><path fill="#ccaa4f" stroke="none" d="M 122.341,96.1978 C 122.536,95.8058 123.144,95.8278 123.778,95.9708 C 123.794,95.6288 123.81,95.3118 123.823,95.0378 C 122.536,94.8238 121.293,94.5808 120.038,94.4488 C 120.571,96.3048 121.215,98.3098 121.995,100.438 C 121.995,100.438 122.601,100.802 123.631,100.256 C 123.631,100.115 123.633,99.9528 123.636,99.7768 C 121.789,99.9208 121.828,97.3518 122.341,96.1978 Z" transform=""/><path fill="#ccaa4f" stroke="none" d="M 134.735,99.2612 C 134.229,97.3372 135.048,95.6342 136.014,94.0452 C 136.173,93.1542 136.347,92.2452 136.541,91.3592 C 134.925,92.7582 133.407,94.2372 132.251,95.9532 C 132.949,97.8592 133.557,100.327 133.557,100.327 S 134.094,100.623 134.938,100.107 C 134.979,99.9412 135.02,99.7562 135.062,99.5562 C 134.873,99.5032 134.735,99.3992 134.735,99.2612 Z" transform=""/><path fill="#304454" stroke="none" d="M 121.994,100.437 S 121.735,101.594 121.975,102.423 C 122.178,102.608 123.654,102.737 124.188,101.999 C 124.151,101.575 123.846,100.632 123.63,100.255 C 123.63,100.255 122.622,100.719 121.994,100.437 Z" transform=""/><path fill="#304454" stroke="none" d="M 133.482,100.295 S 134.096,100.663 134.989,100.083 C 135.398,100.557 135.662,102.219 135.662,102.219 S 134.376,103.19 133.267,102.636 C 133.267,102.636 132.94,101.07 133.482,100.295 Z" transform=""/><path fill="#f1d285" stroke="none" d="M 107.787,75.5054 S 103.079,78.2724 105.41,80.3604 C 107.739,82.4454 110.477,81.7924 110.677,80.8614 C 112.208,81.6594 114.723,80.6654 114.723,80.6654 S 114.989,89.3774 119.645,102.081 C 119.645,102.081 120.31,102.481 121.44,101.881 C 121.44,100.019 121.707,95.0984 121.707,95.0984 S 127.56,96.7614 130.553,95.8964 C 131.018,97.8914 131.151,101.615 131.151,101.615 S 131.617,102.014 132.548,101.682 C 133.478,99.7534 135.008,95.0314 136.804,91.5734 C 138.6,88.1144 139.199,80.6654 133.478,80.9314 C 127.758,81.1974 122.97,80.7324 121.373,79.2024 C 119.777,77.6724 119.91,75.4774 120.11,73.7484 C 120.31,72.0184 118.381,69.7574 116.451,70.0234 C 114.523,70.2894 111.113,71.3564 109.734,72.3504 C 108.423,73.2964 107.787,75.5054 107.787,75.5054 Z" transform=""/><path fill="#deb958" stroke="none" d="M 133.183,94.5262 C 129.563,95.3612 125.942,94.6652 122.321,93.9692 C 121.764,93.8302 120.789,93.5512 120.372,92.7152 C 121.346,95.0832 121.207,97.4502 120.789,99.8172 C 120.789,100.235 119.815,100.653 119.675,100.235 C 118.422,96.8932 117.608,93.4292 117.069,89.8372 C 116.324,84.8722 115.124,79.2532 116.751,75.0302 C 115.187,79.0872 110.302,79.1222 110.128,79.5332 C 109.742,80.4432 105.257,80.2302 105.257,80.2302 C 106.863,82.0772 110.128,82.1002 110.657,80.8612 C 110.679,80.8112 110.702,80.7632 110.728,80.7182 C 111.617,81.7422 114.704,80.6652 114.704,80.6652 S 114.97,89.3782 119.626,102.081 C 119.626,102.081 120.291,102.48 121.421,101.882 C 121.421,100.019 121.687,95.0982 121.687,95.0982 S 127.54,96.7602 130.533,95.8962 C 130.998,97.8912 131.132,101.616 131.132,101.616 S 131.573,101.991 132.452,101.707 C 131.24,99.6172 131.528,96.4572 133.183,94.5262 Z" style="opacity: 0.5" opacity="0.5" transform=""/><path fill="#deb958" stroke="none" d="M 115.796,72.1061 C 116.731,71.8721 117.361,71.1151 117.685,70.1761 C 117.289,70.0271 116.871,69.9661 116.453,70.0241 C 114.687,70.2671 111.754,71.2901 110.147,72.1251 C 111.981,72.5501 113.932,72.5451 115.796,72.1061 Z" transform=""/><path fill="#f4953f" stroke="none" d="M 135.94,82.5937 S 135.807,80.0667 138.999,80.0667 C 142.192,80.0667 143.123,82.1947 142.125,85.5867 C 141.128,88.9787 141.26,90.3087 142.391,89.9767 C 142.391,89.9767 142.591,89.5777 142.258,89.5777 C 142.258,89.5777 142.857,89.4447 142.857,90.1097 C 142.857,90.7747 141.593,91.2407 140.529,90.0437 C 140.462,90.7077 141.659,91.0407 142.059,91.0407 C 141.46,91.7727 139.598,92.1047 138.799,90.2427 C 138.001,88.3797 138.068,87.3167 138.068,87.3167 S 137.735,83.9237 137.27,83.7917 C 137.27,83.7917 136.206,83.8577 135.94,82.5937 Z" transform=""/><path fill="#2c8fc0" stroke="none" d="M 139.342,86.5703 C 139.335,86.3853 139.33,86.2043 139.33,86.0313 C 139.285,86.2113 139.299,86.3913 139.342,86.5703 Z" transform=""/><path fill="#d78334" stroke="none" d="M 139.342,86.5703 C 139.299,86.3913 139.286,86.2113 139.33,86.0313 C 139.33,86.2043 139.335,86.3853 139.342,86.5703 M 139.342,86.5703 C 139.432,86.9483 139.654,87.3253 139.748,87.7023 C 140.026,85.8923 140.583,83.2463 138.216,82.8283 C 138.634,82.5503 139.052,82.6893 139.469,82.8283 C 139.191,81.9933 137.798,82.4113 137.659,81.9933 C 137.519,81.0183 139.052,81.2973 139.887,81.2973 C 139.479,81.0253 139.202,80.4863 138.799,80.0713 C 135.815,80.1763 135.94,82.5933 135.94,82.5933 C 136.206,83.8573 137.27,83.7913 137.27,83.7913 C 137.736,83.9243 138.068,87.3163 138.068,87.3163 S 138.002,88.3803 138.8,90.2423 C 139.421,91.6903 140.684,91.8113 141.496,91.4503 C 139.88,90.6523 139.415,88.3643 139.342,86.5703 Z" transform=""/><path fill="#304454" stroke="none" d="M 119.645,102.082 S 119.361,103.351 119.624,104.262 C 119.846,104.465 121.466,104.607 122.054,103.797 C 122.013,103.331 121.678,102.297 121.441,101.882 C 121.441,101.883 120.334,102.393 119.645,102.082 Z" transform=""/><path fill="#304454" stroke="none" d="M 131.085,101.568 S 131.611,102.054 132.603,101.669 C 132.907,102.216 132.826,103.897 132.826,103.897 S 131.368,104.585 130.396,103.816 C 130.397,103.816 130.397,102.217 131.085,101.568 Z" transform=""/><path fill="#f4953f" stroke="none" d="M 116.979,71.2005 S 114.452,72.3305 112.258,71.8655 C 110.062,71.3995 107.868,68.5395 109.863,67.0095 C 109.73,67.7415 109.996,69.3375 112.258,69.0715 C 111.658,69.0715 110.927,67.8075 111.525,67.0095 C 111.726,67.4085 112.258,68.6055 114.053,68.0075 C 115.848,67.4085 119.44,66.4115 121.169,69.0715 C 122.898,71.7325 122.433,76.4545 126.49,76.3205 C 127.022,76.2545 126.956,75.3895 126.29,75.3895 C 127.554,75.2565 129.683,79.7135 124.096,80.2455 C 122.433,80.8445 119.241,79.0485 119.174,76.3875 C 119.108,73.7275 119.64,70.8005 116.979,71.2005 L 116.979,71.2005 Z" transform=""/><path fill="#d78334" stroke="none" d="M 127.583,76.6135 C 127.467,76.9055 127.256,77.1465 126.904,77.3065 C 125.789,77.8625 124.258,77.5855 123.004,76.8885 C 123.144,77.4445 123.283,77.8625 123.98,77.8625 C 120.359,78.5585 119.523,74.3815 119.941,71.5965 C 120.081,72.4325 120.776,73.4075 121.752,73.5465 C 120.902,72.3775 121.187,70.7215 121.246,69.1975 C 121.221,69.1555 121.196,69.1125 121.169,69.0715 C 120.031,67.3195 118.083,67.1535 116.375,67.4165 C 115.617,68.9685 115.014,70.6685 112.84,70.0655 C 113.119,70.4825 113.397,70.4825 113.954,70.4825 C 112.972,71.0715 111.782,71.3835 110.678,71.1255 C 111.16,71.4815 111.709,71.7475 112.258,71.8655 C 114.452,72.3305 116.979,71.2005 116.979,71.2005 C 119.64,70.8005 119.108,73.7275 119.175,76.3865 C 119.241,79.0475 122.433,80.8435 124.096,80.2445 C 127.689,79.9025 128.09,77.9375 127.583,76.6135 L 127.583,76.6135 Z" transform=""/><path fill="#f1d285" stroke="none" d="M 117.468,72.3878 S 116.771,70.8628 117.861,69.8158 C 118.95,68.7698 118.95,68.7698 118.95,68.7698 S 119.648,70.4268 119.256,71.6468 C 118.993,72.5618 118.122,73.0848 117.468,72.3878 Z" transform=""/><path fill="#f6a5bf" stroke="none" d="M 116.082,68.347 C 116.083,68.352 116.085,68.356 116.086,68.36 L 116.086,68.36 L 116.086,68.36 C 116.086,68.358 116.084,68.354 116.082,68.347 M 116.082,68.347 L 116.082,68.347 Z" transform=""/><path fill="#ccaa4f" stroke="none" d="M 118.673,69.7464 S 117.534,70.5274 117.729,71.5694 C 117.925,72.6104 118.608,71.9264 118.771,71.5694 C 118.933,71.2104 118.673,69.7464 118.673,69.7464 Z" transform=""/><path fill="#e8c4dd" stroke="none" d="M 124.151,80.392 S 124.142,80.405 124.127,80.432 C 124.144,80.435 124.159,80.439 124.176,80.443 C 124.167,80.426 124.158,80.409 124.151,80.392 M 124.151,80.392 L 124.151,80.392 Z" transform=""/><ellipse cx="112.06820576268088" cy="75.159965144891" rx="0.4948681102718656" ry="0.8221023260468762" fill="#304454" stroke="none" r="NaN" transform=""/><path fill="#deb958" stroke="none" d="M 26.7564,33.7707 S 27.3624,34.1347 28.3924,33.5887 C 28.3924,32.3867 28.5144,29.7847 28.5844,28.3707 C 27.2974,28.1567 26.0544,27.9137 24.7994,27.7817 C 25.3324,29.6377 25.9764,31.6427 26.7564,33.7707 Z" transform=""/><path fill="#deb958" stroke="none" d="M 37.0126,29.2858 C 37.7106,31.1928 38.3186,33.6608 38.3186,33.6608 S 38.8556,33.9558 39.6996,33.4398 C 40.1276,31.7188 40.5676,28.0388 41.3026,24.6918 C 39.6866,26.0918 38.1686,27.5708 37.0126,29.2858 Z" transform=""/><path fill="#ccaa4f" stroke="none" d="M 27.1029,29.5311 C 27.2979,29.1391 27.9059,29.1611 28.5399,29.3041 C 28.5559,28.9621 28.5719,28.6451 28.5849,28.3711 C 27.2979,28.1571 26.0549,27.9141 24.7999,27.7821 C 25.3329,29.6381 25.9769,31.6431 26.7569,33.7711 C 26.7569,33.7711 27.3629,34.1351 28.3929,33.5891 C 28.3929,33.4481 28.3949,33.2861 28.3979,33.1101 C 26.5509,33.2541 26.5899,30.6851 27.1029,29.5311 Z" transform=""/><path fill="#ccaa4f" stroke="none" d="M 39.4966,32.5946 C 38.9906,30.6706 39.8096,28.9676 40.7756,27.3786 C 40.9346,26.4876 41.1086,25.5786 41.3026,24.6926 C 39.6866,26.0916 38.1686,27.5706 37.0126,29.2866 C 37.7106,31.1926 38.3186,33.6606 38.3186,33.6606 S 38.8556,33.9566 39.6996,33.4406 C 39.7406,33.2746 39.7816,33.0896 39.8236,32.8896 C 39.6346,32.8366 39.4966,32.7326 39.4966,32.5946 Z" transform=""/><path fill="#304454" stroke="none" d="M 26.7564,33.7707 S 26.4974,34.9277 26.7374,35.7567 C 26.9404,35.9417 28.4164,36.0707 28.9504,35.3327 C 28.9134,34.9087 28.6084,33.9657 28.3924,33.5887 C 28.3924,33.5887 27.3844,34.0527 26.7564,33.7707 Z" transform=""/><path fill="#304454" stroke="none" d="M 38.2444,33.6282 S 38.8584,33.9962 39.7514,33.4162 C 40.1604,33.8902 40.4244,35.5522 40.4244,35.5522 S 39.1384,36.5232 38.0294,35.9692 C 38.0294,35.9692 37.7024,34.4032 38.2444,33.6282 Z" transform=""/><path fill="#f1d285" stroke="none" d="M 12.5488,8.83874 S 7.84075,11.6057 10.1718,13.6937 C 12.5008,15.7787 15.2388,15.1257 15.4388,14.1947 C 16.9698,14.9927 19.4848,13.9987 19.4848,13.9987 S 19.7508,22.7107 24.4068,35.4147 C 24.4068,35.4147 25.0718,35.8147 26.2018,35.2147 C 26.2018,33.3527 26.4688,28.4317 26.4688,28.4317 S 32.3218,30.0947 35.3148,29.2297 C 35.7798,31.2247 35.9128,34.9487 35.9128,34.9487 S 36.3788,35.3477 37.3098,35.0157 C 38.2398,33.0867 39.7698,28.3647 41.5658,24.9067 C 43.3618,21.4477 43.9608,13.9987 38.2398,14.2647 C 32.5198,14.5307 27.7318,14.0657 26.1348,12.5357 C 24.5388,11.0057 24.6718,8.81074 24.8718,7.08174 C 25.0718,5.35174 23.1428,3.09074 21.2128,3.35674 C 19.2848,3.62274 15.8748,4.68974 14.4958,5.68374 C 13.1848,6.62974 12.5488,8.83874 12.5488,8.83874 Z" transform=""/><path fill="#deb958" stroke="none" d="M 37.9445,27.8596 C 34.3245,28.6946 30.7035,27.9986 27.0825,27.3026 C 26.5255,27.1636 25.5505,26.8846 25.1335,26.0486 C 26.1075,28.4166 25.9685,30.7836 25.5505,33.1506 C 25.5505,33.5686 24.5765,33.9866 24.4365,33.5686 C 23.1835,30.2266 22.3695,26.7626 21.8305,23.1706 C 21.0855,18.2056 19.8855,12.5866 21.5125,8.36357 C 19.9485,12.4206 15.0635,12.4556 14.8895,12.8666 C 14.5035,13.7766 10.0185,13.5636 10.0185,13.5636 C 11.6245,15.4106 14.8895,15.4336 15.4185,14.1946 C 15.4405,14.1446 15.4635,14.0966 15.4895,14.0516 C 16.3785,15.0756 19.4655,13.9986 19.4655,13.9986 S 19.7315,22.7116 24.3875,35.4146 C 24.3875,35.4146 25.0525,35.8136 26.1825,35.2156 C 26.1825,33.3526 26.4485,28.4316 26.4485,28.4316 S 32.3015,30.0936 35.2945,29.2296 C 35.7595,31.2246 35.8935,34.9496 35.8935,34.9496 S 36.3345,35.3246 37.2135,35.0406 C 36.0015,32.9506 36.2895,29.7906 37.9445,27.8596 Z" style="opacity: 0.5" opacity="0.5" transform=""/><path fill="#deb958" stroke="none" d="M 20.5577,5.43947 C 21.4927,5.20547 22.1227,4.44847 22.4467,3.50947 C 22.0507,3.36047 21.6327,3.29947 21.2147,3.35747 C 19.4487,3.60047 16.5157,4.62347 14.9087,5.45847 C 16.7427,5.88347 18.6937,5.87847 20.5577,5.43947 Z" transform=""/><path fill="#f4953f" stroke="none" d="M 40.7021,15.927 S 40.5691,13.4 43.7611,13.4 C 46.9541,13.4 47.8851,15.528 46.8871,18.92 C 45.8901,22.312 46.0221,23.642 47.1531,23.31 C 47.1531,23.31 47.3531,22.911 47.0201,22.911 C 47.0201,22.911 47.6191,22.778 47.6191,23.443 S 46.3551,24.574 45.2911,23.377 C 45.2241,24.041 46.4211,24.374 46.8211,24.374 C 46.2221,25.106 44.3601,25.438 43.5611,23.576 C 42.7631,21.713 42.8301,20.65 42.8301,20.65 S 42.4971,17.257 42.0321,17.125 C 42.0321,17.125 40.9681,17.191 40.7021,15.927 Z" transform=""/><path fill="#2c8fc0" stroke="none" d="M 44.1036,19.9037 C 44.0966,19.7187 44.0916,19.5377 44.0916,19.3647 C 44.0466,19.5447 44.0606,19.7247 44.1036,19.9037 Z" transform=""/><path fill="#d78334" stroke="none" d="M 44.1036,19.9037 C 44.0606,19.7247 44.0476,19.5447 44.0916,19.3647 C 44.0916,19.5377 44.0966,19.7187 44.1036,19.9037 M 44.1036,19.9037 C 44.1936,20.2817 44.4156,20.6587 44.5096,21.0357 C 44.7876,19.2257 45.3446,16.5797 42.9776,16.1617 C 43.3956,15.8837 43.8136,16.0227 44.2306,16.1617 C 43.9526,15.3267 42.5596,15.7447 42.4206,15.3267 C 42.2806,14.3517 43.8136,14.6307 44.6486,14.6307 C 44.2406,14.3587 43.9636,13.8197 43.5606,13.4047 C 40.5766,13.5097 40.7016,15.9267 40.7016,15.9267 C 40.9676,17.1907 42.0316,17.1247 42.0316,17.1247 C 42.4976,17.2577 42.8296,20.6497 42.8296,20.6497 S 42.7636,21.7137 43.5616,23.5757 C 44.1826,25.0237 45.4456,25.1447 46.2576,24.7837 C 44.6416,23.9857 44.1766,21.6977 44.1036,19.9037 Z" transform=""/><path fill="#304454" stroke="none" d="M 24.4074,35.4149 S 24.1234,36.6839 24.3864,37.5949 C 24.6084,37.7979 26.2284,37.9399 26.8164,37.1299 C 26.7754,36.6639 26.4404,35.6299 26.2034,35.2149 C 26.2034,35.2159 25.0964,35.7259 24.4074,35.4149 Z" transform=""/><path fill="#304454" stroke="none" d="M 35.8472,34.9018 S 36.3732,35.3878 37.3652,35.0028 C 37.6692,35.5498 37.5882,37.2308 37.5882,37.2308 S 36.1302,37.9188 35.1582,37.1498 C 35.1592,37.1498 35.1592,35.5508 35.8472,34.9018 Z" transform=""/><path fill="#f4953f" stroke="none" d="M 21.7408,4.53382 S 19.2138,5.66382 17.0198,5.19882 C 14.8238,4.73282 12.6298,1.87282 14.6248,0.342818 C 14.4918,1.07482 14.7578,2.67082 17.0198,2.40482 C 16.4198,2.40482 15.6888,1.14082 16.2868,0.342818 C 16.4878,0.741818 17.0198,1.93882 18.8148,1.34082 C 20.6098,0.741818 24.2018,-0.255182 25.9308,2.40482 C 27.6598,5.06582 27.1948,9.78782 31.2518,9.65382 C 31.7838,9.58782 31.7178,8.72282 31.0518,8.72282 C 32.3158,8.58982 34.4448,13.0468 28.8578,13.5788 C 27.1948,14.1778 24.0028,12.3818 23.9358,9.72082 C 23.8698,7.06082 24.4018,4.13382 21.7408,4.53382 L 21.7408,4.53382 Z" transform=""/><path fill="#d78334" stroke="none" d="M 32.3451,9.94684 C 32.2291,10.2388 32.0181,10.4798 31.6661,10.6398 C 30.5511,11.1958 29.0201,10.9188 27.7661,10.2218 C 27.9061,10.7778 28.0451,11.1958 28.7421,11.1958 C 25.1211,11.8918 24.2851,7.71484 24.7031,4.92984 C 24.8431,5.76584 25.5381,6.74084 26.5141,6.87984 C 25.6641,5.71084 25.9491,4.05484 26.0081,2.53084 C 25.9831,2.48884 25.9581,2.44584 25.9311,2.40484 C 24.7931,0.652839 22.8451,0.486839 21.1371,0.749839 C 20.3791,2.30184 19.7761,4.00184 17.6021,3.39884 C 17.8811,3.81584 18.1591,3.81584 18.7161,3.81584 C 17.7341,4.40484 16.5441,4.71684 15.4401,4.45884 C 15.9221,4.81484 16.4711,5.08084 17.0201,5.19884 C 19.2141,5.66384 21.7411,4.53384 21.7411,4.53384 C 24.4021,4.13384 23.8701,7.06084 23.9371,9.71984 C 24.0031,12.3808 27.1951,14.1768 28.8581,13.5778 C 32.4511,13.2358 32.8521,11.2708 32.3451,9.94684 L 32.3451,9.94684 Z" transform=""/><path fill="#f1d285" stroke="none" d="M 22.2297,5.72118 S 21.5327,4.19618 22.6227,3.14918 C 23.7117,2.10318 23.7117,2.10318 23.7117,2.10318 S 24.4097,3.76018 24.0177,4.98018 C 23.7547,5.89518 22.8837,6.41818 22.2297,5.72118 Z" transform=""/><path fill="#f6a5bf" stroke="none" d="M 20.8437,1.68029 C 20.8447,1.68529 20.8467,1.68929 20.8477,1.69329 L 20.8477,1.69329 L 20.8477,1.69329 C 20.8477,1.69129 20.8457,1.68729 20.8437,1.68029 M 20.8437,1.68029 L 20.8437,1.68029 Z" transform=""/><path fill="#ccaa4f" stroke="none" d="M 23.4348,3.07974 S 22.2958,3.86074 22.4908,4.90274 C 22.6868,5.94374 23.3698,5.25974 23.5328,4.90274 C 23.6948,4.54374 23.4348,3.07974 23.4348,3.07974 Z" transform=""/><path fill="#e8c4dd" stroke="none" d="M 28.9131,13.7253 S 28.9041,13.7383 28.8891,13.7653 C 28.9061,13.7683 28.9211,13.7723 28.9381,13.7763 C 28.9291,13.7593 28.9201,13.7423 28.9131,13.7253 L 28.9131,13.7253 Z" transform=""/><ellipse cx="16.830110524585642" cy="8.493298478224347" rx="0.4948681102718656" ry="0.8221023260468762" fill="#304454" stroke="none" r="NaN" transform=""/><path fill="#deb958" stroke="none" d="M 74.3754,33.7707 S 74.9814,34.1347 76.0114,33.5887 C 76.0114,32.3867 76.1334,29.7847 76.2034,28.3707 C 74.9164,28.1567 73.6734,27.9137 72.4184,27.7817 C 72.9514,29.6377 73.5954,31.6427 74.3754,33.7707 Z" transform=""/><path fill="#deb958" stroke="none" d="M 84.6316,29.2858 C 85.3296,31.1928 85.9376,33.6608 85.9376,33.6608 S 86.4746,33.9558 87.3186,33.4398 C 87.7466,31.7188 88.1866,28.0388 88.9216,24.6918 C 87.3056,26.0918 85.7876,27.5708 84.6316,29.2858 Z" transform=""/><path fill="#ccaa4f" stroke="none" d="M 74.722,29.5311 C 74.917,29.1391 75.525,29.1611 76.159,29.3041 C 76.175,28.9621 76.191,28.6451 76.204,28.3711 C 74.917,28.1571 73.674,27.9141 72.419,27.7821 C 72.952,29.6381 73.596,31.6431 74.376,33.7711 C 74.376,33.7711 74.982,34.1351 76.012,33.5891 C 76.012,33.4481 76.014,33.2861 76.017,33.1101 C 74.17,33.2541 74.209,30.6851 74.722,29.5311 Z" transform=""/><path fill="#ccaa4f" stroke="none" d="M 87.1156,32.5946 C 86.6096,30.6706 87.4286,28.9676 88.3946,27.3786 C 88.5536,26.4876 88.7276,25.5786 88.9216,24.6926 C 87.3056,26.0916 85.7876,27.5706 84.6316,29.2866 C 85.3296,31.1926 85.9376,33.6606 85.9376,33.6606 S 86.4746,33.9566 87.3186,33.4406 C 87.3596,33.2746 87.4006,33.0896 87.4426,32.8896 C 87.2536,32.8366 87.1156,32.7326 87.1156,32.5946 Z" transform=""/><path fill="#304454" stroke="none" d="M 74.3754,33.7707 S 74.1164,34.9277 74.3564,35.7567 C 74.5594,35.9417 76.0354,36.0707 76.5694,35.3327 C 76.5324,34.9087 76.2274,33.9657 76.0114,33.5887 C 76.0114,33.5887 75.0034,34.0527 74.3754,33.7707 Z" transform=""/><path fill="#304454" stroke="none" d="M 85.8635,33.6282 S 86.4775,33.9962 87.3705,33.4162 C 87.7795,33.8902 88.0435,35.5522 88.0435,35.5522 S 86.7575,36.5232 85.6485,35.9692 C 85.6485,35.9692 85.3215,34.4032 85.8635,33.6282 Z" transform=""/><path fill="#f1d285" stroke="none" d="M 60.1678,8.83874 S 55.4598,11.6057 57.7908,13.6937 C 60.1198,15.7787 62.8578,15.1257 63.0578,14.1947 C 64.5888,14.9927 67.1038,13.9987 67.1038,13.9987 S 67.3698,22.7107 72.0258,35.4147 C 72.0258,35.4147 72.6908,35.8147 73.8208,35.2147 C 73.8208,33.3527 74.0878,28.4317 74.0878,28.4317 S 79.9408,30.0947 82.9338,29.2297 C 83.3988,31.2247 83.5318,34.9487 83.5318,34.9487 S 83.9978,35.3477 84.9288,35.0157 C 85.8588,33.0867 87.3888,28.3647 89.1848,24.9067 C 90.9808,21.4477 91.5798,13.9987 85.8588,14.2647 C 80.1388,14.5307 75.3508,14.0657 73.7538,12.5357 C 72.1578,11.0057 72.2908,8.81074 72.4908,7.08174 C 72.6908,5.35174 70.7618,3.09074 68.8318,3.35674 C 66.9038,3.62274 63.4938,4.68974 62.1148,5.68374 C 60.8038,6.62974 60.1678,8.83874 60.1678,8.83874 Z" transform=""/><path fill="#deb958" stroke="none" d="M 85.5635,27.8596 C 81.9435,28.6946 78.3225,27.9986 74.7015,27.3026 C 74.1445,27.1636 73.1695,26.8846 72.7525,26.0486 C 73.7265,28.4166 73.5875,30.7836 73.1695,33.1506 C 73.1695,33.5686 72.1955,33.9866 72.0555,33.5686 C 70.8025,30.2266 69.9885,26.7626 69.4495,23.1706 C 68.7045,18.2056 67.5045,12.5866 69.1315,8.36357 C 67.5675,12.4206 62.6825,12.4556 62.5085,12.8666 C 62.1225,13.7766 57.6375,13.5636 57.6375,13.5636 C 59.2435,15.4106 62.5085,15.4336 63.0375,14.1946 C 63.0595,14.1446 63.0825,14.0966 63.1085,14.0516 C 63.9975,15.0756 67.0845,13.9986 67.0845,13.9986 S 67.3505,22.7116 72.0065,35.4146 C 72.0065,35.4146 72.6715,35.8136 73.8015,35.2156 C 73.8015,33.3526 74.0675,28.4316 74.0675,28.4316 S 79.9205,30.0936 82.9135,29.2296 C 83.3785,31.2246 83.5125,34.9496 83.5125,34.9496 S 83.9535,35.3246 84.8325,35.0406 C 83.6205,32.9506 83.9085,29.7906 85.5635,27.8596 Z" style="opacity: 0.5" opacity="0.5" transform=""/><path fill="#deb958" stroke="none" d="M 68.1767,5.43947 C 69.1117,5.20547 69.7417,4.44847 70.0657,3.50947 C 69.6697,3.36047 69.2517,3.29947 68.8337,3.35747 C 67.0677,3.60047 64.1347,4.62347 62.5277,5.45847 C 64.3617,5.88347 66.3127,5.87847 68.1767,5.43947 Z" transform=""/><path fill="#f4953f" stroke="none" d="M 88.3212,15.927 S 88.1882,13.4 91.3802,13.4 C 94.5732,13.4 95.5042,15.528 94.5062,18.92 C 93.5092,22.312 93.6412,23.642 94.7722,23.31 C 94.7722,23.31 94.9722,22.911 94.6392,22.911 C 94.6392,22.911 95.2382,22.778 95.2382,23.443 S 93.9742,24.574 92.9102,23.377 C 92.8432,24.041 94.0402,24.374 94.4402,24.374 C 93.8412,25.106 91.9792,25.438 91.1802,23.576 C 90.3822,21.713 90.4492,20.65 90.4492,20.65 S 90.1162,17.257 89.6512,17.125 C 89.6512,17.125 88.5872,17.191 88.3212,15.927 Z" transform=""/><path fill="#2c8fc0" stroke="none" d="M 91.7226,19.9037 C 91.7156,19.7187 91.7106,19.5377 91.7106,19.3647 C 91.6656,19.5447 91.6796,19.7247 91.7226,19.9037 Z" transform=""/><path fill="#d78334" stroke="none" d="M 91.7226,19.9037 C 91.6796,19.7247 91.6666,19.5447 91.7106,19.3647 C 91.7106,19.5377 91.7156,19.7187 91.7226,19.9037 M 91.7226,19.9037 C 91.8126,20.2817 92.0346,20.6587 92.1286,21.0357 C 92.4066,19.2257 92.9636,16.5797 90.5966,16.1617 C 91.0146,15.8837 91.4326,16.0227 91.8496,16.1617 C 91.5716,15.3267 90.1786,15.7447 90.0396,15.3267 C 89.8996,14.3517 91.4326,14.6307 92.2676,14.6307 C 91.8596,14.3587 91.5826,13.8197 91.1796,13.4047 C 88.1956,13.5097 88.3206,15.9267 88.3206,15.9267 C 88.5866,17.1907 89.6506,17.1247 89.6506,17.1247 C 90.1166,17.2577 90.4486,20.6497 90.4486,20.6497 S 90.3826,21.7137 91.1806,23.5757 C 91.8016,25.0237 93.0646,25.1447 93.8766,24.7837 C 92.2606,23.9857 91.7956,21.6977 91.7226,19.9037 Z" transform=""/><path fill="#304454" stroke="none" d="M 72.0264,35.4149 S 71.7424,36.6839 72.0054,37.5949 C 72.2274,37.7979 73.8474,37.9399 74.4354,37.1299 C 74.3944,36.6639 74.0594,35.6299 73.8224,35.2149 C 73.8224,35.2159 72.7154,35.7259 72.0264,35.4149 Z" transform=""/><path fill="#304454" stroke="none" d="M 83.4662,34.9018 S 83.9922,35.3878 84.9842,35.0028 C 85.2882,35.5498 85.2072,37.2308 85.2072,37.2308 S 83.7492,37.9188 82.7772,37.1498 C 82.7782,37.1498 82.7782,35.5508 83.4662,34.9018 Z" transform=""/><path fill="#f4953f" stroke="none" d="M 69.3598,4.53382 S 66.8328,5.66382 64.6388,5.19882 C 62.4428,4.73282 60.2488,1.87282 62.2438,0.342818 C 62.1108,1.07482 62.3768,2.67082 64.6388,2.40482 C 64.0388,2.40482 63.3078,1.14082 63.9058,0.342818 C 64.1068,0.741818 64.6388,1.93882 66.4338,1.34082 C 68.2288,0.741818 71.8208,-0.255182 73.5498,2.40482 C 75.2788,5.06582 74.8138,9.78782 78.8708,9.65382 C 79.4028,9.58782 79.3368,8.72282 78.6708,8.72282 C 79.9348,8.58982 82.0638,13.0468 76.4768,13.5788 C 74.8138,14.1778 71.6218,12.3818 71.5548,9.72082 C 71.4888,7.06082 72.0208,4.13382 69.3598,4.53382 L 69.3598,4.53382 Z" transform=""/><path fill="#d78334" stroke="none" d="M 79.9641,9.94684 C 79.8481,10.2388 79.6371,10.4798 79.2851,10.6398 C 78.1701,11.1958 76.6391,10.9188 75.3851,10.2218 C 75.5251,10.7778 75.6641,11.1958 76.3611,11.1958 C 72.7401,11.8918 71.9041,7.71484 72.3221,4.92984 C 72.4621,5.76584 73.1571,6.74084 74.1331,6.87984 C 73.2831,5.71084 73.5681,4.05484 73.6271,2.53084 C 73.6021,2.48884 73.5771,2.44584 73.5501,2.40484 C 72.4121,0.652839 70.4641,0.486839 68.7561,0.749839 C 67.9981,2.30184 67.3951,4.00184 65.2211,3.39884 C 65.5001,3.81584 65.7781,3.81584 66.3351,3.81584 C 65.3531,4.40484 64.1631,4.71684 63.0591,4.45884 C 63.5411,4.81484 64.0901,5.08084 64.6391,5.19884 C 66.8331,5.66384 69.3601,4.53384 69.3601,4.53384 C 72.0211,4.13384 71.4891,7.06084 71.5561,9.71984 C 71.6221,12.3808 74.8141,14.1768 76.4771,13.5778 C 80.0701,13.2358 80.4711,11.2708 79.9641,9.94684 L 79.9641,9.94684 Z" transform=""/><path fill="#f1d285" stroke="none" d="M 69.8488,5.72118 S 69.1518,4.19618 70.2418,3.14918 C 71.3308,2.10318 71.3308,2.10318 71.3308,2.10318 S 72.0288,3.76018 71.6368,4.98018 C 71.3738,5.89518 70.5028,6.41818 69.8488,5.72118 Z" transform=""/><path fill="#f6a5bf" stroke="none" d="M 68.4627,1.68029 C 68.4637,1.68529 68.4657,1.68929 68.4667,1.69329 L 68.4667,1.69329 L 68.4667,1.69329 C 68.4667,1.69129 68.4647,1.68729 68.4627,1.68029 M 68.4627,1.68029 L 68.4627,1.68029 Z" transform=""/><path fill="#ccaa4f" stroke="none" d="M 71.0538,3.07974 S 69.9148,3.86074 70.1098,4.90274 C 70.3058,5.94374 70.9888,5.25974 71.1518,4.90274 C 71.3138,4.54374 71.0538,3.07974 71.0538,3.07974 Z" transform=""/><path fill="#e8c4dd" stroke="none" d="M 76.5322,13.7253 S 76.5232,13.7383 76.5082,13.7653 C 76.5252,13.7683 76.5402,13.7723 76.5572,13.7763 C 76.5482,13.7593 76.5392,13.7423 76.5322,13.7253 L 76.5322,13.7253 Z" transform=""/><ellipse cx="64.44915814363326" cy="8.493298478224347" rx="0.4948681102718656" ry="0.8221023260468762" fill="#304454" stroke="none" r="NaN" transform=""/><path fill="#deb958" stroke="none" d="M 121.994,33.7707 S 122.6,34.1347 123.63,33.5887 C 123.63,32.3867 123.752,29.7847 123.822,28.3707 C 122.535,28.1567 121.292,27.9137 120.037,27.7817 C 120.57,29.6377 121.214,31.6427 121.994,33.7707 Z" transform=""/><path fill="#deb958" stroke="none" d="M 132.251,29.2858 C 132.949,31.1928 133.557,33.6608 133.557,33.6608 S 134.094,33.9558 134.938,33.4398 C 135.366,31.7188 135.806,28.0388 136.541,24.6918 C 134.925,26.0918 133.407,27.5708 132.251,29.2858 Z" transform=""/><path fill="#ccaa4f" stroke="none" d="M 122.341,29.5311 C 122.536,29.1391 123.144,29.1611 123.778,29.3041 C 123.794,28.9621 123.81,28.6451 123.823,28.3711 C 122.536,28.1571 121.293,27.9141 120.038,27.7821 C 120.571,29.6381 121.215,31.6431 121.995,33.7711 C 121.995,33.7711 122.601,34.1351 123.631,33.5891 C 123.631,33.4481 123.633,33.2861 123.636,33.1101 C 121.789,33.2541 121.828,30.6851 122.341,29.5311 Z" transform=""/><path fill="#ccaa4f" stroke="none" d="M 134.735,32.5946 C 134.229,30.6706 135.048,28.9676 136.014,27.3786 C 136.173,26.4876 136.347,25.5786 136.541,24.6926 C 134.925,26.0916 133.407,27.5706 132.251,29.2866 C 132.949,31.1926 133.557,33.6606 133.557,33.6606 S 134.094,33.9566 134.938,33.4406 C 134.979,33.2746 135.02,33.0896 135.062,32.8896 C 134.873,32.8366 134.735,32.7326 134.735,32.5946 Z" transform=""/><path fill="#304454" stroke="none" d="M 121.994,33.7707 S 121.735,34.9277 121.975,35.7567 C 122.178,35.9417 123.654,36.0707 124.188,35.3327 C 124.151,34.9087 123.846,33.9657 123.63,33.5887 C 123.63,33.5887 122.622,34.0527 121.994,33.7707 Z" transform=""/><path fill="#304454" stroke="none" d="M 133.482,33.6282 S 134.096,33.9962 134.989,33.4162 C 135.398,33.8902 135.662,35.5522 135.662,35.5522 S 134.376,36.5232 133.267,35.9692 C 133.267,35.9692 132.94,34.4032 133.482,33.6282 Z" transform=""/><path fill="#f1d285" stroke="none" d="M 107.787,8.83874 S 103.079,11.6057 105.41,13.6937 C 107.739,15.7787 110.477,15.1257 110.677,14.1947 C 112.208,14.9927 114.723,13.9987 114.723,13.9987 S 114.989,22.7107 119.645,35.4147 C 119.645,35.4147 120.31,35.8147 121.44,35.2147 C 121.44,33.3527 121.707,28.4317 121.707,28.4317 S 127.56,30.0947 130.553,29.2297 C 131.018,31.2247 131.151,34.9487 131.151,34.9487 S 131.617,35.3477 132.548,35.0157 C 133.478,33.0867 135.008,28.3647 136.804,24.9067 C 138.6,21.4477 139.199,13.9987 133.478,14.2647 C 127.758,14.5307 122.97,14.0657 121.373,12.5357 C 119.777,11.0057 119.91,8.81074 120.11,7.08174 C 120.31,5.35174 118.381,3.09074 116.451,3.35674 C 114.523,3.62274 111.113,4.68974 109.734,5.68374 C 108.423,6.62974 107.787,8.83874 107.787,8.83874 Z" transform=""/><path fill="#deb958" stroke="none" d="M 133.183,27.8596 C 129.563,28.6946 125.942,27.9986 122.321,27.3026 C 121.764,27.1636 120.789,26.8846 120.372,26.0486 C 121.346,28.4166 121.207,30.7836 120.789,33.1506 C 120.789,33.5686 119.815,33.9866 119.675,33.5686 C 118.422,30.2266 117.608,26.7626 117.069,23.1706 C 116.324,18.2056 115.124,12.5866 116.751,8.36357 C 115.187,12.4206 110.302,12.4556 110.128,12.8666 C 109.742,13.7766 105.257,13.5636 105.257,13.5636 C 106.863,15.4106 110.128,15.4336 110.657,14.1946 C 110.679,14.1446 110.702,14.0966 110.728,14.0516 C 111.617,15.0756 114.704,13.9986 114.704,13.9986 S 114.97,22.7116 119.626,35.4146 C 119.626,35.4146 120.291,35.8136 121.421,35.2156 C 121.421,33.3526 121.687,28.4316 121.687,28.4316 S 127.54,30.0936 130.533,29.2296 C 130.998,31.2246 131.132,34.9496 131.132,34.9496 S 131.573,35.3246 132.452,35.0406 C 131.24,32.9506 131.528,29.7906 133.183,27.8596 Z" style="opacity: 0.5" opacity="0.5" transform=""/><path fill="#deb958" stroke="none" d="M 115.796,5.43947 C 116.731,5.20547 117.361,4.44847 117.685,3.50947 C 117.289,3.36047 116.871,3.29947 116.453,3.35747 C 114.687,3.60047 111.754,4.62347 110.147,5.45847 C 111.981,5.88347 113.932,5.87847 115.796,5.43947 Z" transform=""/><path fill="#f4953f" stroke="none" d="M 135.94,15.927 S 135.807,13.4 138.999,13.4 C 142.192,13.4 143.123,15.528 142.125,18.92 C 141.128,22.312 141.26,23.642 142.391,23.31 C 142.391,23.31 142.591,22.911 142.258,22.911 C 142.258,22.911 142.857,22.778 142.857,23.443 S 141.593,24.574 140.529,23.377 C 140.462,24.041 141.659,24.374 142.059,24.374 C 141.46,25.106 139.598,25.438 138.799,23.576 C 138.001,21.713 138.068,20.65 138.068,20.65 S 137.735,17.257 137.27,17.125 C 137.27,17.125 136.206,17.191 135.94,15.927 Z" transform=""/><path fill="#2c8fc0" stroke="none" d="M 139.342,19.9037 C 139.335,19.7187 139.33,19.5377 139.33,19.3647 C 139.285,19.5447 139.299,19.7247 139.342,19.9037 Z" transform=""/><path fill="#d78334" stroke="none" d="M 139.342,19.9037 C 139.299,19.7247 139.286,19.5447 139.33,19.3647 C 139.33,19.5377 139.335,19.7187 139.342,19.9037 M 139.342,19.9037 C 139.432,20.2817 139.654,20.6587 139.748,21.0357 C 140.026,19.2257 140.583,16.5797 138.216,16.1617 C 138.634,15.8837 139.052,16.0227 139.469,16.1617 C 139.191,15.3267 137.798,15.7447 137.659,15.3267 C 137.519,14.3517 139.052,14.6307 139.887,14.6307 C 139.479,14.3587 139.202,13.8197 138.799,13.4047 C 135.815,13.5097 135.94,15.9267 135.94,15.9267 C 136.206,17.1907 137.27,17.1247 137.27,17.1247 C 137.736,17.2577 138.068,20.6497 138.068,20.6497 S 138.002,21.7137 138.8,23.5757 C 139.421,25.0237 140.684,25.1447 141.496,24.7837 C 139.88,23.9857 139.415,21.6977 139.342,19.9037 Z" transform=""/><path fill="#304454" stroke="none" d="M 119.645,35.4149 S 119.361,36.6839 119.624,37.5949 C 119.846,37.7979 121.466,37.9399 122.054,37.1299 C 122.013,36.6639 121.678,35.6299 121.441,35.2149 C 121.441,35.2159 120.334,35.7259 119.645,35.4149 Z" transform=""/><path fill="#304454" stroke="none" d="M 131.085,34.9018 S 131.611,35.3878 132.603,35.0028 C 132.907,35.5498 132.826,37.2308 132.826,37.2308 S 131.368,37.9188 130.396,37.1498 C 130.397,37.1498 130.397,35.5508 131.085,34.9018 Z" transform=""/><path fill="#f4953f" stroke="none" d="M 116.979,4.53382 S 114.452,5.66382 112.258,5.19882 C 110.062,4.73282 107.868,1.87282 109.863,0.342818 C 109.73,1.07482 109.996,2.67082 112.258,2.40482 C 111.658,2.40482 110.927,1.14082 111.525,0.342818 C 111.726,0.741818 112.258,1.93882 114.053,1.34082 C 115.848,0.741818 119.44,-0.255182 121.169,2.40482 C 122.898,5.06582 122.433,9.78782 126.49,9.65382 C 127.022,9.58782 126.956,8.72282 126.29,8.72282 C 127.554,8.58982 129.683,13.0468 124.096,13.5788 C 122.433,14.1778 119.241,12.3818 119.174,9.72082 C 119.108,7.06082 119.64,4.13382 116.979,4.53382 L 116.979,4.53382 Z" transform=""/><path fill="#d78334" stroke="none" d="M 127.583,9.94684 C 127.467,10.2388 127.256,10.4798 126.904,10.6398 C 125.789,11.1958 124.258,10.9188 123.004,10.2218 C 123.144,10.7778 123.283,11.1958 123.98,11.1958 C 120.359,11.8918 119.523,7.71484 119.941,4.92984 C 120.081,5.76584 120.776,6.74084 121.752,6.87984 C 120.902,5.71084 121.187,4.05484 121.246,2.53084 C 121.221,2.48884 121.196,2.44584 121.169,2.40484 C 120.031,0.652839 118.083,0.486839 116.375,0.749839 C 115.617,2.30184 115.014,4.00184 112.84,3.39884 C 113.119,3.81584 113.397,3.81584 113.954,3.81584 C 112.972,4.40484 111.782,4.71684 110.678,4.45884 C 111.16,4.81484 111.709,5.08084 112.258,5.19884 C 114.452,5.66384 116.979,4.53384 116.979,4.53384 C 119.64,4.13384 119.108,7.06084 119.175,9.71984 C 119.241,12.3808 122.433,14.1768 124.096,13.5778 C 127.689,13.2358 128.09,11.2708 127.583,9.94684 L 127.583,9.94684 Z" transform=""/><path fill="#f1d285" stroke="none" d="M 117.468,5.72118 S 116.771,4.19618 117.861,3.14918 C 118.95,2.10318 118.95,2.10318 118.95,2.10318 S 119.648,3.76018 119.256,4.98018 C 118.993,5.89518 118.122,6.41818 117.468,5.72118 Z" transform=""/><path fill="#f6a5bf" stroke="none" d="M 116.082,1.68029 C 116.083,1.68529 116.085,1.68929 116.086,1.69329 L 116.086,1.69329 L 116.086,1.69329 C 116.086,1.69129 116.084,1.68729 116.082,1.68029 M 116.082,1.68029 L 116.082,1.68029 Z" transform=""/><path fill="#ccaa4f" stroke="none" d="M 118.673,3.07974 S 117.534,3.86074 117.729,4.90274 C 117.925,5.94374 118.608,5.25974 118.771,4.90274 C 118.933,4.54374 118.673,3.07974 118.673,3.07974 Z" transform=""/><path fill="#e8c4dd" stroke="none" d="M 124.151,13.7253 S 124.142,13.7383 124.127,13.7653 C 124.144,13.7683 124.159,13.7723 124.176,13.7763 C 124.167,13.7593 124.158,13.7423 124.151,13.7253 L 124.151,13.7253 Z" transform=""/><ellipse cx="112.06820576268088" cy="8.493298478224347" rx="0.4948681102718656" ry="0.8221023260468762" fill="#304454" stroke="none" r="NaN" transform=""/><path fill="#deb958" stroke="none" d="M 169.614,33.7707 S 170.22,34.1347 171.25,33.5887 C 171.25,32.3867 171.372,29.7847 171.442,28.3707 C 170.155,28.1567 168.912,27.9137 167.657,27.7817 C 168.19,29.6377 168.834,31.6427 169.614,33.7707 Z" transform=""/><path fill="#deb958" stroke="none" d="M 179.87,29.2858 C 180.568,31.1928 181.176,33.6608 181.176,33.6608 S 181.713,33.9558 182.557,33.4398 C 182.985,31.7188 183.425,28.0388 184.16,24.6918 C 182.544,26.0918 181.026,27.5708 179.87,29.2858 Z" transform=""/><path fill="#ccaa4f" stroke="none" d="M 169.96,29.5311 C 170.155,29.1391 170.763,29.1611 171.397,29.3041 C 171.413,28.9621 171.429,28.6451 171.442,28.3711 C 170.155,28.1571 168.912,27.9141 167.657,27.7821 C 168.19,29.6381 168.834,31.6431 169.614,33.7711 C 169.614,33.7711 170.22,34.1351 171.25,33.5891 C 171.25,33.4481 171.252,33.2861 171.255,33.1101 C 169.408,33.2541 169.447,30.6851 169.96,29.5311 Z" transform=""/><path fill="#ccaa4f" stroke="none" d="M 182.354,32.5946 C 181.848,30.6706 182.667,28.9676 183.633,27.3786 C 183.792,26.4876 183.966,25.5786 184.16,24.6926 C 182.544,26.0916 181.026,27.5706 179.87,29.2866 C 180.568,31.1926 181.176,33.6606 181.176,33.6606 S 181.713,33.9566 182.557,33.4406 C 182.598,33.2746 182.639,33.0896 182.681,32.8896 C 182.492,32.8366 182.354,32.7326 182.354,32.5946 Z" transform=""/><path fill="#304454" stroke="none" d="M 169.614,33.7707 S 169.355,34.9277 169.595,35.7567 C 169.798,35.9417 171.274,36.0707 171.808,35.3327 C 171.771,34.9087 171.466,33.9657 171.25,33.5887 C 171.25,33.5887 170.242,34.0527 169.614,33.7707 Z" transform=""/><path fill="#304454" stroke="none" d="M 181.102,33.6282 S 181.716,33.9962 182.609,33.4162 C 183.018,33.8902 183.282,35.5522 183.282,35.5522 S 181.996,36.5232 180.887,35.9692 C 180.887,35.9692 180.56,34.4032 181.102,33.6282 Z" transform=""/><path fill="#f1d285" stroke="none" d="M 155.406,8.83874 S 150.698,11.6057 153.029,13.6937 C 155.358,15.7787 158.096,15.1257 158.296,14.1947 C 159.827,14.9927 162.342,13.9987 162.342,13.9987 S 162.608,22.7107 167.264,35.4147 C 167.264,35.4147 167.929,35.8147 169.059,35.2147 C 169.059,33.3527 169.326,28.4317 169.326,28.4317 S 175.179,30.0947 178.172,29.2297 C 178.637,31.2247 178.77,34.9487 178.77,34.9487 S 179.236,35.3477 180.167,35.0157 C 181.097,33.0867 182.627,28.3647 184.423,24.9067 C 186.219,21.4477 186.818,13.9987 181.097,14.2647 C 175.377,14.5307 170.589,14.0657 168.992,12.5357 C 167.396,11.0057 167.529,8.81074 167.729,7.08174 C 167.929,5.35174 166,3.09074 164.07,3.35674 C 162.142,3.62274 158.732,4.68974 157.353,5.68374 C 156.042,6.62974 155.406,8.83874 155.406,8.83874 Z" transform=""/><path fill="#deb958" stroke="none" d="M 180.802,27.8596 C 177.182,28.6946 173.561,27.9986 169.94,27.3026 C 169.383,27.1636 168.408,26.8846 167.991,26.0486 C 168.965,28.4166 168.826,30.7836 168.408,33.1506 C 168.408,33.5686 167.434,33.9866 167.294,33.5686 C 166.041,30.2266 165.227,26.7626 164.688,23.1706 C 163.943,18.2056 162.743,12.5866 164.37,8.36357 C 162.806,12.4206 157.921,12.4556 157.747,12.8666 C 157.361,13.7766 152.876,13.5636 152.876,13.5636 C 154.482,15.4106 157.747,15.4336 158.276,14.1946 C 158.298,14.1446 158.321,14.0966 158.347,14.0516 C 159.236,15.0756 162.323,13.9986 162.323,13.9986 S 162.589,22.7116 167.245,35.4146 C 167.245,35.4146 167.91,35.8136 169.04,35.2156 C 169.04,33.3526 169.306,28.4316 169.306,28.4316 S 175.159,30.0936 178.152,29.2296 C 178.617,31.2246 178.751,34.9496 178.751,34.9496 S 179.192,35.3246 180.071,35.0406 C 178.859,32.9506 179.147,29.7906 180.802,27.8596 Z" style="opacity: 0.5" opacity="0.5" transform=""/><path fill="#deb958" stroke="none" d="M 163.415,5.43947 C 164.35,5.20547 164.98,4.44847 165.304,3.50947 C 164.908,3.36047 164.49,3.29947 164.072,3.35747 C 162.306,3.60047 159.373,4.62347 157.766,5.45847 C 159.6,5.88347 161.551,5.87847 163.415,5.43947 Z" transform=""/><path fill="#f4953f" stroke="none" d="M 183.559,15.927 S 183.426,13.4 186.618,13.4 C 189.811,13.4 190.742,15.528 189.744,18.92 C 188.747,22.312 188.879,23.642 190.01,23.31 C 190.01,23.31 190.21,22.911 189.877,22.911 C 189.877,22.911 190.476,22.778 190.476,23.443 S 189.212,24.574 188.148,23.377 C 188.081,24.041 189.278,24.374 189.678,24.374 C 189.079,25.106 187.217,25.438 186.418,23.576 C 185.62,21.713 185.687,20.65 185.687,20.65 S 185.354,17.257 184.889,17.125 C 184.889,17.125 183.825,17.191 183.559,15.927 Z" transform=""/><path fill="#2c8fc0" stroke="none" d="M 186.961,19.9037 C 186.954,19.7187 186.949,19.5377 186.949,19.3647 C 186.904,19.5447 186.918,19.7247 186.961,19.9037 Z" transform=""/><path fill="#d78334" stroke="none" d="M 186.961,19.9037 C 186.918,19.7247 186.905,19.5447 186.949,19.3647 C 186.949,19.5377 186.954,19.7187 186.961,19.9037 M 186.961,19.9037 C 187.051,20.2817 187.273,20.6587 187.367,21.0357 C 187.645,19.2257 188.202,16.5797 185.835,16.1617 C 186.253,15.8837 186.671,16.0227 187.088,16.1617 C 186.81,15.3267 185.417,15.7447 185.278,15.3267 C 185.138,14.3517 186.671,14.6307 187.506,14.6307 C 187.098,14.3587 186.821,13.8197 186.418,13.4047 C 183.434,13.5097 183.559,15.9267 183.559,15.9267 C 183.825,17.1907 184.889,17.1247 184.889,17.1247 C 185.355,17.2577 185.687,20.6497 185.687,20.6497 S 185.621,21.7137 186.419,23.5757 C 187.04,25.0237 188.303,25.1447 189.115,24.7837 C 187.499,23.9857 187.034,21.6977 186.961,19.9037 Z" transform=""/><path fill="#304454" stroke="none" d="M 167.265,35.4149 S 166.981,36.6839 167.244,37.5949 C 167.466,37.7979 169.086,37.9399 169.674,37.1299 C 169.633,36.6639 169.298,35.6299 169.061,35.2149 C 169.061,35.2159 167.954,35.7259 167.265,35.4149 Z" transform=""/><path fill="#304454" stroke="none" d="M 178.704,34.9018 S 179.23,35.3878 180.222,35.0028 C 180.526,35.5498 180.445,37.2308 180.445,37.2308 S 178.987,37.9188 178.015,37.1498 C 178.016,37.1498 178.016,35.5508 178.704,34.9018 Z" transform=""/><path fill="#f4953f" stroke="none" d="M 164.598,4.53382 S 162.071,5.66382 159.877,5.19882 C 157.681,4.73282 155.487,1.87282 157.482,0.342818 C 157.349,1.07482 157.615,2.67082 159.877,2.40482 C 159.277,2.40482 158.546,1.14082 159.144,0.342818 C 159.345,0.741818 159.877,1.93882 161.672,1.34082 C 163.467,0.741818 167.059,-0.255182 168.788,2.40482 C 170.517,5.06582 170.052,9.78782 174.109,9.65382 C 174.641,9.58782 174.575,8.72282 173.909,8.72282 C 175.173,8.58982 177.302,13.0468 171.715,13.5788 C 170.052,14.1778 166.86,12.3818 166.793,9.72082 C 166.727,7.06082 167.259,4.13382 164.598,4.53382 L 164.598,4.53382 Z" transform=""/><path fill="#d78334" stroke="none" d="M 175.202,9.94684 C 175.086,10.2388 174.875,10.4798 174.523,10.6398 C 173.408,11.1958 171.877,10.9188 170.623,10.2218 C 170.763,10.7778 170.902,11.1958 171.599,11.1958 C 167.978,11.8918 167.142,7.71484 167.56,4.92984 C 167.7,5.76584 168.395,6.74084 169.371,6.87984 C 168.521,5.71084 168.806,4.05484 168.865,2.53084 C 168.84,2.48884 168.815,2.44584 168.788,2.40484 C 167.65,0.652839 165.702,0.486839 163.994,0.749839 C 163.236,2.30184 162.633,4.00184 160.459,3.39884 C 160.738,3.81584 161.016,3.81584 161.573,3.81584 C 160.591,4.40484 159.401,4.71684 158.297,4.45884 C 158.779,4.81484 159.328,5.08084 159.877,5.19884 C 162.071,5.66384 164.598,4.53384 164.598,4.53384 C 167.259,4.13384 166.727,7.06084 166.794,9.71984 C 166.86,12.3808 170.052,14.1768 171.715,13.5778 C 175.308,13.2358 175.709,11.2708 175.202,9.94684 L 175.202,9.94684 Z" transform=""/><path fill="#f1d285" stroke="none" d="M 165.087,5.72118 S 164.39,4.19618 165.48,3.14918 C 166.569,2.10318 166.569,2.10318 166.569,2.10318 S 167.267,3.76018 166.875,4.98018 C 166.612,5.89518 165.741,6.41818 165.087,5.72118 Z" transform=""/><path fill="#f6a5bf" stroke="none" d="M 163.701,1.68029 C 163.702,1.68529 163.704,1.68929 163.705,1.69329 L 163.705,1.69329 L 163.705,1.69329 C 163.705,1.69129 163.703,1.68729 163.701,1.68029 M 163.701,1.68029 L 163.701,1.68029 Z" transform=""/><path fill="#ccaa4f" stroke="none" d="M 166.292,3.07974 S 165.153,3.86074 165.348,4.90274 C 165.544,5.94374 166.227,5.25974 166.39,4.90274 C 166.552,4.54374 166.292,3.07974 166.292,3.07974 Z" transform=""/><path fill="#e8c4dd" stroke="none" d="M 171.77,13.7253 S 171.761,13.7383 171.746,13.7653 C 171.763,13.7683 171.778,13.7723 171.795,13.7763 C 171.786,13.7593 171.777,13.7423 171.77,13.7253 L 171.77,13.7253 Z" transform=""/><ellipse cx="159.6872533817285" cy="8.493298478224347" rx="0.4948681102718656" ry="0.8221023260468762" fill="#304454" stroke="none" r="NaN" transform=""/><path fill="#deb958" stroke="none" d="M 217.233,33.7707 S 217.839,34.1347 218.869,33.5887 C 218.869,32.3867 218.991,29.7847 219.061,28.3707 C 217.774,28.1567 216.531,27.9137 215.276,27.7817 C 215.809,29.6377 216.453,31.6427 217.233,33.7707 Z" transform=""/><path fill="#deb958" stroke="none" d="M 227.489,29.2858 C 228.187,31.1928 228.795,33.6608 228.795,33.6608 S 229.332,33.9558 230.176,33.4398 C 230.604,31.7188 231.044,28.0388 231.779,24.6918 C 230.163,26.0918 228.645,27.5708 227.489,29.2858 Z" transform=""/><path fill="#ccaa4f" stroke="none" d="M 217.579,29.5311 C 217.774,29.1391 218.382,29.1611 219.016,29.3041 C 219.032,28.9621 219.048,28.6451 219.061,28.3711 C 217.774,28.1571 216.531,27.9141 215.276,27.7821 C 215.809,29.6381 216.453,31.6431 217.233,33.7711 C 217.233,33.7711 217.839,34.1351 218.869,33.5891 C 218.869,33.4481 218.871,33.2861 218.874,33.1101 C 217.027,33.2541 217.066,30.6851 217.579,29.5311 Z" transform=""/><path fill="#ccaa4f" stroke="none" d="M 229.973,32.5946 C 229.467,30.6706 230.286,28.9676 231.252,27.3786 C 231.411,26.4876 231.585,25.5786 231.779,24.6926 C 230.163,26.0916 228.645,27.5706 227.489,29.2866 C 228.187,31.1926 228.795,33.6606 228.795,33.6606 S 229.332,33.9566 230.176,33.4406 C 230.217,33.2746 230.258,33.0896 230.3,32.8896 C 230.111,32.8366 229.973,32.7326 229.973,32.5946 Z" transform=""/><path fill="#304454" stroke="none" d="M 217.233,33.7707 S 216.974,34.9277 217.214,35.7567 C 217.417,35.9417 218.893,36.0707 219.427,35.3327 C 219.39,34.9087 219.085,33.9657 218.869,33.5887 C 218.869,33.5887 217.861,34.0527 217.233,33.7707 Z" transform=""/><path fill="#304454" stroke="none" d="M 228.721,33.6282 S 229.335,33.9962 230.228,33.4162 C 230.637,33.8902 230.901,35.5522 230.901,35.5522 S 229.615,36.5232 228.506,35.9692 C 228.506,35.9692 228.179,34.4032 228.721,33.6282 Z" transform=""/><path fill="#f1d285" stroke="none" d="M 203.025,8.83874 S 198.317,11.6057 200.648,13.6937 C 202.977,15.7787 205.715,15.1257 205.915,14.1947 C 207.446,14.9927 209.961,13.9987 209.961,13.9987 S 210.227,22.7107 214.883,35.4147 C 214.883,35.4147 215.548,35.8147 216.678,35.2147 C 216.678,33.3527 216.945,28.4317 216.945,28.4317 S 222.798,30.0947 225.791,29.2297 C 226.256,31.2247 226.389,34.9487 226.389,34.9487 S 226.855,35.3477 227.786,35.0157 C 228.716,33.0867 230.246,28.3647 232.042,24.9067 C 233.838,21.4477 234.437,13.9987 228.716,14.2647 C 222.996,14.5307 218.208,14.0657 216.611,12.5357 C 215.015,11.0057 215.148,8.81074 215.348,7.08174 C 215.548,5.35174 213.619,3.09074 211.689,3.35674 C 209.761,3.62274 206.351,4.68974 204.972,5.68374 C 203.661,6.62974 203.025,8.83874 203.025,8.83874 Z" transform=""/><path fill="#deb958" stroke="none" d="M 228.421,27.8596 C 224.801,28.6946 221.18,27.9986 217.559,27.3026 C 217.002,27.1636 216.027,26.8846 215.61,26.0486 C 216.584,28.4166 216.445,30.7836 216.027,33.1506 C 216.027,33.5686 215.053,33.9866 214.913,33.5686 C 213.66,30.2266 212.846,26.7626 212.307,23.1706 C 211.562,18.2056 210.362,12.5866 211.989,8.36357 C 210.425,12.4206 205.54,12.4556 205.366,12.8666 C 204.98,13.7766 200.495,13.5636 200.495,13.5636 C 202.101,15.4106 205.366,15.4336 205.895,14.1946 C 205.917,14.1446 205.94,14.0966 205.966,14.0516 C 206.855,15.0756 209.942,13.9986 209.942,13.9986 S 210.208,22.7116 214.864,35.4146 C 214.864,35.4146 215.529,35.8136 216.659,35.2156 C 216.659,33.3526 216.925,28.4316 216.925,28.4316 S 222.778,30.0936 225.771,29.2296 C 226.236,31.2246 226.37,34.9496 226.37,34.9496 S 226.811,35.3246 227.69,35.0406 C 226.478,32.9506 226.766,29.7906 228.421,27.8596 Z" style="opacity: 0.5" opacity="0.5" transform=""/><path fill="#deb958" stroke="none" d="M 211.034,5.43947 C 211.969,5.20547 212.599,4.44847 212.923,3.50947 C 212.527,3.36047 212.109,3.29947 211.691,3.35747 C 209.925,3.60047 206.992,4.62347 205.385,5.45847 C 207.219,5.88347 209.17,5.87847 211.034,5.43947 Z" transform=""/><path fill="#f4953f" stroke="none" d="M 231.178,15.927 S 231.045,13.4 234.237,13.4 C 237.43,13.4 238.361,15.528 237.363,18.92 C 236.366,22.312 236.498,23.642 237.629,23.31 C 237.629,23.31 237.829,22.911 237.496,22.911 C 237.496,22.911 238.095,22.778 238.095,23.443 S 236.831,24.574 235.767,23.377 C 235.7,24.041 236.897,24.374 237.297,24.374 C 236.698,25.106 234.836,25.438 234.037,23.576 C 233.239,21.713 233.306,20.65 233.306,20.65 S 232.973,17.257 232.508,17.125 C 232.508,17.125 231.444,17.191 231.178,15.927 Z" transform=""/><path fill="#2c8fc0" stroke="none" d="M 234.58,19.9037 C 234.573,19.7187 234.568,19.5377 234.568,19.3647 C 234.523,19.5447 234.537,19.7247 234.58,19.9037 Z" transform=""/><path fill="#d78334" stroke="none" d="M 234.58,19.9037 C 234.537,19.7247 234.524,19.5447 234.568,19.3647 C 234.568,19.5377 234.573,19.7187 234.58,19.9037 M 234.58,19.9037 C 234.67,20.2817 234.892,20.6587 234.986,21.0357 C 235.264,19.2257 235.821,16.5797 233.454,16.1617 C 233.872,15.8837 234.29,16.0227 234.707,16.1617 C 234.429,15.3267 233.036,15.7447 232.897,15.3267 C 232.757,14.3517 234.29,14.6307 235.125,14.6307 C 234.717,14.3587 234.44,13.8197 234.037,13.4047 C 231.053,13.5097 231.178,15.9267 231.178,15.9267 C 231.444,17.1907 232.508,17.1247 232.508,17.1247 C 232.974,17.2577 233.306,20.6497 233.306,20.6497 S 233.24,21.7137 234.038,23.5757 C 234.659,25.0237 235.922,25.1447 236.734,24.7837 C 235.118,23.9857 234.653,21.6977 234.58,19.9037 Z" transform=""/><path fill="#304454" stroke="none" d="M 214.884,35.4149 S 214.6,36.6839 214.863,37.5949 C 215.085,37.7979 216.705,37.9399 217.293,37.1299 C 217.252,36.6639 216.917,35.6299 216.68,35.2149 C 216.68,35.2159 215.573,35.7259 214.884,35.4149 Z" transform=""/><path fill="#304454" stroke="none" d="M 226.323,34.9018 S 226.849,35.3878 227.841,35.0028 C 228.145,35.5498 228.064,37.2308 228.064,37.2308 S 226.606,37.9188 225.634,37.1498 C 225.635,37.1498 225.635,35.5508 226.323,34.9018 Z" transform=""/><path fill="#f4953f" stroke="none" d="M 212.217,4.53382 S 209.69,5.66382 207.496,5.19882 C 205.3,4.73282 203.106,1.87282 205.101,0.342818 C 204.968,1.07482 205.234,2.67082 207.496,2.40482 C 206.896,2.40482 206.165,1.14082 206.763,0.342818 C 206.964,0.741818 207.496,1.93882 209.291,1.34082 C 211.086,0.741818 214.678,-0.255182 216.407,2.40482 C 218.136,5.06582 217.671,9.78782 221.728,9.65382 C 222.26,9.58782 222.194,8.72282 221.528,8.72282 C 222.792,8.58982 224.921,13.0468 219.334,13.5788 C 217.671,14.1778 214.479,12.3818 214.412,9.72082 C 214.346,7.06082 214.878,4.13382 212.217,4.53382 L 212.217,4.53382 Z" transform=""/><path fill="#d78334" stroke="none" d="M 222.821,9.94684 C 222.705,10.2388 222.494,10.4798 222.142,10.6398 C 221.027,11.1958 219.496,10.9188 218.242,10.2218 C 218.382,10.7778 218.521,11.1958 219.218,11.1958 C 215.597,11.8918 214.761,7.71484 215.179,4.92984 C 215.319,5.76584 216.014,6.74084 216.99,6.87984 C 216.14,5.71084 216.425,4.05484 216.484,2.53084 C 216.459,2.48884 216.434,2.44584 216.407,2.40484 C 215.269,0.652839 213.321,0.486839 211.613,0.749839 C 210.855,2.30184 210.252,4.00184 208.078,3.39884 C 208.357,3.81584 208.635,3.81584 209.192,3.81584 C 208.21,4.40484 207.02,4.71684 205.916,4.45884 C 206.398,4.81484 206.947,5.08084 207.496,5.19884 C 209.69,5.66384 212.217,4.53384 212.217,4.53384 C 214.878,4.13384 214.346,7.06084 214.413,9.71984 C 214.479,12.3808 217.671,14.1768 219.334,13.5778 C 222.927,13.2358 223.328,11.2708 222.821,9.94684 L 222.821,9.94684 Z" transform=""/><path fill="#f1d285" stroke="none" d="M 212.706,5.72118 S 212.009,4.19618 213.099,3.14918 C 214.188,2.10318 214.188,2.10318 214.188,2.10318 S 214.886,3.76018 214.494,4.98018 C 214.231,5.89518 213.36,6.41818 212.706,5.72118 Z" transform=""/><path fill="#f6a5bf" stroke="none" d="M 211.32,1.68029 C 211.321,1.68529 211.323,1.68929 211.324,1.69329 L 211.324,1.69329 L 211.324,1.69329 C 211.324,1.69129 211.322,1.68729 211.32,1.68029 M 211.32,1.68029 L 211.32,1.68029 Z" transform=""/><path fill="#ccaa4f" stroke="none" d="M 213.911,3.07974 S 212.772,3.86074 212.967,4.90274 C 213.163,5.94374 213.846,5.25974 214.009,4.90274 C 214.171,4.54374 213.911,3.07974 213.911,3.07974 Z" transform=""/><path fill="#e8c4dd" stroke="none" d="M 219.389,13.7253 S 219.38,13.7383 219.365,13.7653 C 219.382,13.7683 219.397,13.7723 219.414,13.7763 C 219.405,13.7593 219.396,13.7423 219.389,13.7253 L 219.389,13.7253 Z" transform=""/><ellipse cx="207.30630100077613" cy="8.493298478224347" rx="0.4948681102718656" ry="0.8221023260468762" fill="#304454" stroke="none" r="NaN" transform=""/></svg>