<svg xmlns="http://www.w3.org/2000/svg" width="78" height="78" viewBox="0 0 78 78"><path fill="#d1d3d4" d="M57.879 23.924a.482.482 0 1 0 .362.894c.039-.016 3.828-1.52 6.233-.232.962.514 1.584 1.43 1.853 2.727l.62 3.172c.695 3.693 1.014 5.379 2.667 6.297a.483.483 0 0 0 .47-.843c-1.257-.698-1.53-2.144-2.187-5.633l-.624-3.188c-.33-1.59-1.117-2.731-2.344-3.385-2.806-1.5-6.877.12-7.05.19z"/><path fill="#304454" d="M69.962 39.707c-.729-1.094-1.357-2.972.097-3.93 1.014-.668 2.498-.399 3.313 1.334 1.06 2.248-.16 3.393.628 4.87 0 0-2.857-.5-4.038-2.274zM67.603 28.814l-.33-1.695c-.33-1.591-1.118-2.731-2.346-3.385-.02-.011-.044-.02-.062-.031.113.226.265.424.466.564.984.689 1.477 2.166 1.477 3.152 0 .494.297 1.039.795 1.395z"/><path fill="#d78334" d="M41.453 70.241l3.102-.75.282-2.916-1.598-1.41-1.313 1.222z"/><path fill="#d1d3d4" d="M49.715 45.1s-3.374 2.583-1.552 7.176c.931 2.344-.688 6.537-1.55 6.982-2.715 1.396-4.119 4.067-4.314 5.813 0 0 6.49 4.287 8.273 4.699 2.521.583 3.008-4.135.695-9.156-.835-1.813.05-4.07 1.28-5.036 2.714-2.133 3.243-6.878 1.69-9.4"/><path fill="#304454" d="M50.556 55.194c-.606.47-.199 2.097.5 2.885.233-1.034.807-1.966 1.49-2.501 1.394-1.096 2.21-2.88 2.463-4.7l-1.205-1.298-1.574.197s-1.97.984-1.675 2.265c.296 1.279.888 2.462.001 3.152z"/><path fill="#f3b37c" d="M40.606 69.865s-.28-6.956 4.797-7.05c3.877-.073 6.194 4.411 6.39 7.707l-7.895.094-1.318-4.325-1.127 3.95-.847-.376z"/><path fill="#d78334" d="M16.83 70.241l3.103-.75.28-2.916-1.597-1.41-1.316 1.222z"/><path fill="#d1d3d4" d="M25.091 45.1s-3.374 2.583-1.55 7.176c.93 2.344-.69 6.537-1.554 6.982-2.714 1.396-4.118 4.067-4.312 5.813 0 0 6.49 4.287 8.271 4.699 2.52.583 3.01-4.135.696-9.156-.834-1.813.05-4.07 1.28-5.036 2.714-2.133 3.241-6.878 1.691-9.4"/><path fill="#304454" d="M20.87 64.407s1.624-4.065 3.251-3.455c1.626.609.61 2.032 2.236 2.032s2.033 1.423 2.033 1.423l-3.737 1.72-3.784-1.72z"/><path fill="#f3b37c" d="M15.984 69.865s-.28-6.956 4.793-7.05c3.878-.073 6.197 4.411 6.392 7.707l-7.895.094-1.316-4.325-1.127 3.95-.847-.376z"/><path fill="#d78334" d="M22.78 71.445l3.252-.788.295-3.054-1.674-1.476-1.38 1.279z"/><path fill="#efefef" d="M27.78 22.948s7.13 2.981 14.01 2.893c7.682-.099 14.38-7.683 19.521-3.706 4.827 3.733 4.948 29.342-15.649 32.313C25.95 57.293 15.592 41.6 21.993 33.031c6.141-8.22 5.786-10.083 5.786-10.083z"/><path fill="#d1d3d4" d="M63.592 27.027c-2.137-2.637-4.099-2.42-4.099-2.42l1.69 5.821s1.638.51 2.79.381a22.63 22.63 0 0 0-.38-3.782zM37.948 49.185c-1.181-3.053-2.561-2.758-2.561-2.758l-1.533 7.413c1.185.331 2.437.58 3.753.742.526-1.369 1.07-3.513.341-5.397z"/><path fill="#efefef" d="M31.438 45.1s-3.536 2.707-1.628 7.52c.975 2.456-.72 6.851-1.625 7.314-2.845 1.464-4.316 4.265-4.518 6.093 0 0 6.8 4.493 8.667 4.925 2.642.609 3.152-4.335.73-9.594-.876-1.9.05-4.267 1.337-5.278 2.846-2.235 3.4-7.208 1.775-9.851"/><path fill="#f3b37c" d="M21.894 71.05s-.296-7.288 5.024-7.387c4.063-.075 6.494 4.622 6.697 8.078l-8.274.098-1.38-4.531-1.18 4.136-.887-.394z"/><path fill="#304454" d="M32.53 48.593c-.562-1.064-2.077-.656-3.11-.219-.278 1.14-.275 2.563.39 4.245.45 1.127.333 2.662-.01 4.038 1.648-.086 2.017-1.063 1.845-1.464-.296-.69-.593-2.169 0-2.957.591-.786 1.773-1.969.885-3.643z"/><path fill="#d78334" d="M47.405 71.445l3.25-.788.295-3.054-1.675-1.476-1.378 1.279z"/><path fill="#efefef" d="M60.308 24.561s4.333 2.857 5.12 8.668C66.218 39.04 60.8 46.23 60.8 46.23c1.626 2.643 1.072 7.615-1.773 9.85-1.29 1.011-2.213 3.38-1.34 5.278 2.423 5.26 1.913 10.204-.73 9.595-1.868-.433-8.666-4.926-8.666-4.926.202-1.828 1.674-4.629 4.518-6.092.904-.464 2.6-4.86 1.625-7.315-1.91-4.813 1.627-7.519 1.627-7.519s-6.884-3.007-6.294-9.31c.592-6.306 6.6-12.609 10.54-11.23z"/><path fill="#f3b37c" d="M46.519 71.05s-.298-7.288 5.023-7.387c4.063-.075 6.494 4.622 6.697 8.078l-8.272.098-1.38-4.531-1.181 4.136-.887-.394z"/><path fill="#304454" d="M57.154 48.593c-.562-1.064-2.078-.656-3.11-.219-.278 1.14-.276 2.563.389 4.245.448 1.127.333 2.662-.011 4.038 1.649-.086 2.018-1.063 1.847-1.464-.296-.69-.592-2.169 0-2.957.59-.786 1.772-1.969.885-3.643zM38.742 28.21c.285-1.021 2.168-2.953 3.349-1.673 1.565 1.695-.097 2.562.394 3.447.492.886 1.772.197 2.266 1.182.492.985-1.182 2.659-3.151 1.674-1.971-.985-3.35-2.856-2.858-4.63zM65.503 34.219c-.422-.9-1.012-1.697-1.748-1.58-1.87.296-2.068 2.167-1.182 3.643.887 1.478-.1 2.463-.984 2.463-.888 0-3.016-.378-3.548.887-.787 1.87 1.872 3.742 3.843 2.068.77-.656 1.497-.994 2.143-1.122.85-1.97 1.522-4.222 1.476-6.36zM55.215 61.561c-.405 1.626 2.002 1.21 2.694 2.362.437.73.749 2.131 1.284 2.688-.155-1.556-.646-3.384-1.506-5.254a3.692 3.692 0 0 1-.19-.52c-1.032-.135-2.085-.062-2.282.724z"/><path fill="#304454" d="M53.883 21.897c-3.639 1.39-7.706 3.889-12.092 3.945a26.86 26.86 0 0 1-1.63-.034c.014.026.031.053.047.079-1.749-.18-4.414 1.844-4.524 3.474-.19 2.89 1.558 4.55-.478 6.109-2.037 1.557 1.318 5.15 2.517 3.713.346-.417.91-.55 1.526-.605-.326 1.695 2.13 3.942 3.12 2.754.79-.947 2.674-.452 3.833-.84 1.796-.597 1.796-2.035 2.516-3.831.718-1.797 2.514-.958 3.232-2.036.72-1.078-.838-2.755-2.395-2.516-1.363.209-1.442-2.06-3.287-3.43 2.642-1.387 3.755-4 6.062-3.821 1.898.144 2.442-1.658 1.553-2.961z"/><ellipse cx="26.007" cy="28.684" rx="8.017" ry="8.427" fill="#d1d3d4"/><ellipse cx="25.594" cy="37.111" rx="8.017" ry="8.427" fill="#d1d3d4" transform="rotate(7.938 25.594 37.11)"/><path fill="#304454" d="M21.032 43.352c.855 2.101 2.286 4.133 4.235 5.886 1.417-.14 1.94-2.226 1.16-3.008-.889-.886-1.774-.295-2.464-1.18-.689-.889.296-2.464-1.085-2.956-.743-.266-1.397.496-1.846 1.258zM28.455 19.73s.252-7.669 5.539-7.858c5.289-.186 9.315 4.678 6.799 7.483-2.518 2.806-10.573 2.62-10.573 2.62l-1.765-2.245zM14.696 15.416S8.14 9.74 5.32 12.541c-2.82 2.803-.772 8.736 2.849 9.46 3.62.726 7.52-3.902 7.52-3.902l-.993-2.683z"/><ellipse cx="21.012" cy="24.334" rx="12.029" ry="13.338" fill="#efefef"/><path fill="#304454" d="M30.02 15.5c-2.204-2.761-5.42-4.504-9.008-4.504-.743 0-1.465.078-2.172.222-.634.92-1.052 2.029-.895 2.799.39 1.878 1.822 1.817 3.276 1.072 1.451-.75 3.59-.62 4.884 1.066.73.942 3.931 1.315 3.915-.654z"/><path fill="#f4dbc5" d="M25.796 14.587c-.66-.442-1.018-.768-1.15-1.562 0 0 1.304-1.586 1.318-2.968.02-1.687-1.007-3.282-.567-3.746.421-.448 2.775-.034 3.508 3.2.59 2.612-1.116 5.512-1.116 5.512s-1.092.164-1.993-.436zM16.431 14.587c.661-.442 1.02-.768 1.15-1.562 0 0-1.303-1.586-1.32-2.968-.018-1.687 1.01-3.282.571-3.746-.42-.448-2.778-.034-3.509 3.2-.59 2.612 1.115 5.512 1.115 5.512s1.093.164 1.993-.436z"/><ellipse cx="15.389" cy="28.791" rx=".933" ry="1.297" fill="#304454" transform="rotate(1.559 15.39 28.79)"/><ellipse cx="26.528" cy="28.519" rx=".933" ry="1.297" fill="#304454" transform="rotate(1.559 26.528 28.519)"/><path fill="#f4dbc5" d="M30.95 37.542c0 4.117-4.392 7.453-9.81 7.453-5.414 0-9.805-3.336-9.805-7.453 0-4.117 4.391-7.455 9.805-7.455 5.419.001 9.81 3.338 9.81 7.455z"/><ellipse cx="12.561" cy="36.248" rx="2.302" ry="1.749" fill="#f4dbc5" transform="rotate(24.81 12.56 36.248)"/><ellipse cx="13.241" cy="37.157" rx="1.955" ry="1.485" fill="#c75e72" opacity=".7" transform="rotate(40.519 13.241 37.157)"/><ellipse cx="29.728" cy="35.887" rx="2.302" ry="1.749" fill="#f4dbc5" transform="rotate(-14.732 29.728 35.887)"/><ellipse cx="29.145" cy="36.495" rx="1.955" ry="1.485" fill="#c75e72" opacity=".7" transform="rotate(-35.073 29.145 36.495)"/><path fill="#304454" d="M54.153 51.677c-.606-1.58-1.784-2.676-2.507-1.579-.39.592-.967.748-1.588.787.508-2.493-1.697-6.009-2.813-4.316-.89 1.347-2.716.475-3.913.966-1.856.757-2.012 2.892-2.924 5.508-.403 1.157-.96 1.532-1.529 1.725 2.206.192 4.58.137 7.11-.229 3.202-.46 5.902-1.472 8.164-2.862z"/></svg>
