<svg xmlns="http://www.w3.org/2000/svg" version="1.1" width="60" height="60" viewBox="0 0 60 60"><defs/><path fill="#d78334" stroke="none" d="M 32.3873,33.8061 C 27.1923,41.0381 11.5423,53.9741 10.8973,53.4281 C 9.74527,52.4541 17.7363,32.5741 22.9303,25.3421 S 29.0713,19.9771 32.8143,22.4311 C 36.2363,24.6751 37.5813,26.5741 32.3873,33.8061 Z" transform=""/><path fill="#f4953f" stroke="none" d="M 33.034,22.3066 C 29.094,19.8206 28.099,17.9306 22.631,25.2556 C 22.191,25.8456 21.731,26.5266 21.259,27.2646 C 22.238,31.3496 26.033,34.3976 30.574,34.3976 C 31.151,34.3976 31.713,34.3396 32.261,34.2456 C 32.37,34.1056 32.483,33.9646 32.584,33.8286 C 38.052,26.5036 36.637,24.5796 33.034,22.3066 Z" transform=""/><path fill="#f4953f" stroke="none" d="M 14.6754,40.4418 C 11.5164,47.4248 9.03139,54.4308 9.69039,54.9838 C 10.0804,55.3118 16.2484,50.4818 21.9544,45.1678 C 18.7614,45.0058 16.0314,43.1298 14.6754,40.4418 Z" transform=""/><path fill="#f4953f" stroke="none" d="M 31.2827,35.5191 C 30.7557,35.6111 30.2167,35.6681 29.6627,35.6681 C 25.3037,35.6681 21.6607,32.6811 20.7207,28.6801 C 18.9317,31.5411 16.9557,35.4171 15.1787,39.3001 C 16.6197,42.1241 19.5207,44.0961 22.9137,44.2661 C 26.1997,41.2401 29.3407,38.0641 31.2827,35.5191 Z" transform=""/><path fill="#d78334" stroke="none" d="M 33.1386,23.1105 C 31.2566,21.6295 30.5856,20.3915 28.4506,21.7875 C 28.0136,23.2895 28.7556,25.1935 30.3986,26.4465 C 31.6466,27.3985 33.1196,27.7505 34.3396,27.5065 C 35.2586,25.6185 34.7326,24.3655 33.1386,23.1105 Z" transform=""/><path fill="#64c4ad" stroke="none" d="M 50.3141,16.139 C 51.0831,14.724 47.3891,13.162 43.3521,13.962 C 41.3461,14.36 39.6531,15.31 38.4551,16.166 C 38.0051,16.332 37.5751,16.544 37.1631,16.794 C 39.3611,13.494 43.8451,6.23098 41.5291,5.10298 C 38.9891,3.86398 36.8331,14.192 36.2201,17.455 C 36.1851,17.484 36.1501,17.512 36.1141,17.54 C 36.2491,16.696 36.8741,11.892 34.1821,8.88998 C 31.8611,6.30098 29.2321,5.68398 28.6301,7.23798 C 28.0291,8.78598 31.5941,9.25198 33.4681,11.151 C 35.9171,13.634 36.0821,16.916 36.0901,17.561 C 36.0721,17.577 36.0541,17.593 36.0361,17.608 C 35.9841,16.376 35.6531,13.631 33.7731,12.672 C 31.0011,11.258 27.4011,12.414 26.6991,14.185 C 26.3511,15.066 27.4061,15.691 29.0291,14.866 C 30.6521,14.042 31.8481,12.727 33.9071,13.829 C 35.1161,14.477 35.7201,16.67 35.9401,17.692 C 33.7031,19.623 32.1491,22.642 31.1731,25.095 C 31.2661,25.134 31.3591,25.172 31.4531,25.209 C 32.1751,23.718 33.1481,22.003 34.3921,20.429 C 38.0451,15.808 41.2041,16.467 43.0361,17.674 C 44.9961,18.968 43.9431,21.623 44.7251,22.935 C 45.5061,24.246 46.4961,23.855 46.8611,22.938 C 47.3861,21.618 46.4671,16.316 41.8451,15.766 C 42.2731,15.69 42.7171,15.634 43.1721,15.603 C 46.7961,15.358 49.5691,17.512 50.3141,16.139 Z" transform=""/></svg>