<svg xmlns="http://www.w3.org/2000/svg" width="400" height="300" viewBox="0 0 400 300"><path fill="#9d38bd" stroke="#9d38bd" d="M2 298h36v-26H2zM42 298h36v-26H42zM82 298h36v-26H82zM122 298h36v-26h-36zM162 298h36v-26h-36zM202 298h36v-26h-36zM242 298h36v-26h-36zM282 298h36v-26h-36zM322 298h36v-26h-36zM362 298h36v-26h-36z" stroke-width="2" fill-opacity=".4"/><path fill="#df0030" stroke="#df0030" d="M2 268h36v-26H2zM42 268h36v-26H42zM82 268h36v-26H82zM122 268h36v-26h-36zM162 268h36v-26h-36zM202 268h36v-26h-36zM242 268h36v-26h-36zM282 268h36v-26h-36zM322 268h36v-26h-36zM362 268h36v-26h-36z" stroke-width="2" fill-opacity=".4"/><path fill="#6495ed" stroke="#6495ed" d="M2 238h36v-26H2zM42 238h36v-26H42zM82 238h36v-26H82zM122 238h36v-26h-36zM162 238h36v-26h-36zM202 238h36v-26h-36zM242 238h36v-26h-36zM282 238h36v-26h-36zM322 238h36v-26h-36zM362 238h36v-26h-36z" stroke-width="2" fill-opacity=".4"/><path fill="#ff00af" stroke="#ff00af" d="M2 208h36v-26H2zM42 208h36v-26H42zM82 208h36v-26H82zM122 208h36v-26h-36zM162 208h36v-26h-36zM202 208h36v-26h-36zM242 208h36v-26h-36zM282 208h36v-26h-36zM322 208h36v-26h-36zM362 208h36v-26h-36z" stroke-width="2" fill-opacity=".4"/><path fill="#28ae7b" stroke="#28ae7b" d="M2 178h36v-26H2zM42 178h36v-26H42zM82 178h36v-26H82zM122 178h36v-26h-36zM162 178h36v-26h-36zM202 178h36v-26h-36zM242 178h36v-26h-36zM282 178h36v-26h-36zM322 178h36v-26h-36zM362 178h36v-26h-36z" stroke-width="2" fill-opacity=".4"/><path fill="#9d38bd" stroke="#9d38bd" d="M2 148h36v-26H2zM42 148h36v-26H42zM82 148h36v-26H82zM122 148h36v-26h-36zM162 148h36v-26h-36zM202 148h36v-26h-36zM242 148h36v-26h-36zM282 148h36v-26h-36zM322 148h36v-26h-36zM362 148h36v-26h-36z" stroke-width="2" fill-opacity=".4"/><path fill="#df0030" stroke="#df0030" d="M2 118h36V92H2zM42 118h36V92H42zM82 118h36V92H82zM122 118h36V92h-36zM162 118h36V92h-36zM202 118h36V92h-36zM242 118h36V92h-36zM282 118h36V92h-36zM322 118h36V92h-36zM362 118h36V92h-36z" stroke-width="2" fill-opacity=".4"/><path fill="#6495ed" stroke="#6495ed" d="M2 88h36V62H2zM42 88h36V62H42zM82 88h36V62H82zM122 88h36V62h-36zM162 88h36V62h-36zM202 88h36V62h-36zM242 88h36V62h-36zM282 88h36V62h-36zM322 88h36V62h-36zM362 88h36V62h-36z" stroke-width="2" fill-opacity=".4"/><path fill="#ff00af" stroke="#ff00af" d="M2 58h36V32H2zM42 58h36V32H42zM82 58h36V32H82zM122 58h36V32h-36zM162 58h36V32h-36zM202 58h36V32h-36zM242 58h36V32h-36zM282 58h36V32h-36zM322 58h36V32h-36zM362 58h36V32h-36z" stroke-width="2" fill-opacity=".4"/><path fill="#28ae7b" stroke="#28ae7b" d="M2 28h36V2H2zM42 28h36V2H42zM82 28h36V2H82zM122 28h36V2h-36zM162 28h36V2h-36zM202 28h36V2h-36zM242 28h36V2h-36z" stroke-width="2" fill-opacity=".4"/><path fill="none" stroke="#28ae7b" d="M282 28h36V2h-36z" stroke-width="2"/><path fill="#28ae7b" stroke="#28ae7b" d="M322 28h36V2h-36zM362 28h36V2h-36z" stroke-width="2" fill-opacity=".4"/></svg>
