<svg xmlns="http://www.w3.org/2000/svg" version="1.1" width="400" height="300" viewBox="0 0 400 300"><defs/><path fill="#9d38bd" stroke="#9d38bd" d="M 2,298 L 38,298 L 38,272 L 2,272 Z" style="stroke-width: 2px;fill-opacity: 0.4" stroke-width="2" fill-opacity="0.4"/><path fill="#9d38bd" stroke="#9d38bd" d="M 42,298 L 78,298 L 78,272 L 42,272 Z" style="stroke-width: 2px;fill-opacity: 0.4" stroke-width="2" fill-opacity="0.4"/><path fill="#9d38bd" stroke="#9d38bd" d="M 82,298 L 118,298 L 118,272 L 82,272 Z" style="stroke-width: 2px;fill-opacity: 0.4" stroke-width="2" fill-opacity="0.4"/><path fill="#9d38bd" stroke="#9d38bd" d="M 122,298 L 158,298 L 158,272 L 122,272 Z" style="stroke-width: 2px;fill-opacity: 0.4" stroke-width="2" fill-opacity="0.4"/><path fill="#9d38bd" stroke="#9d38bd" d="M 162,298 L 198,298 L 198,272 L 162,272 Z" style="stroke-width: 2px;fill-opacity: 0.4" stroke-width="2" fill-opacity="0.4"/><path fill="#9d38bd" stroke="#9d38bd" d="M 202,298 L 238,298 L 238,272 L 202,272 Z" style="stroke-width: 2px;fill-opacity: 0.4" stroke-width="2" fill-opacity="0.4"/><path fill="#9d38bd" stroke="#9d38bd" d="M 242,298 L 278,298 L 278,272 L 242,272 Z" style="stroke-width: 2px;fill-opacity: 0.4" stroke-width="2" fill-opacity="0.4"/><path fill="#9d38bd" stroke="#9d38bd" d="M 282,298 L 318,298 L 318,272 L 282,272 Z" style="stroke-width: 2px;fill-opacity: 0.4" stroke-width="2" fill-opacity="0.4"/><path fill="#9d38bd" stroke="#9d38bd" d="M 322,298 L 358,298 L 358,272 L 322,272 Z" style="stroke-width: 2px;fill-opacity: 0.4" stroke-width="2" fill-opacity="0.4"/><path fill="#9d38bd" stroke="#9d38bd" d="M 362,298 L 398,298 L 398,272 L 362,272 Z" style="stroke-width: 2px;fill-opacity: 0.4" stroke-width="2" fill-opacity="0.4"/><path fill="#df0030" stroke="#df0030" d="M 2,268 L 38,268 L 38,242 L 2,242 Z" style="stroke-width: 2px;fill-opacity: 0.4" stroke-width="2" fill-opacity="0.4"/><path fill="#df0030" stroke="#df0030" d="M 42,268 L 78,268 L 78,242 L 42,242 Z" style="stroke-width: 2px;fill-opacity: 0.4" stroke-width="2" fill-opacity="0.4"/><path fill="#df0030" stroke="#df0030" d="M 82,268 L 118,268 L 118,242 L 82,242 Z" style="stroke-width: 2px;fill-opacity: 0.4" stroke-width="2" fill-opacity="0.4"/><path fill="#df0030" stroke="#df0030" d="M 122,268 L 158,268 L 158,242 L 122,242 Z" style="stroke-width: 2px;fill-opacity: 0.4" stroke-width="2" fill-opacity="0.4"/><path fill="#df0030" stroke="#df0030" d="M 162,268 L 198,268 L 198,242 L 162,242 Z" style="stroke-width: 2px;fill-opacity: 0.4" stroke-width="2" fill-opacity="0.4"/><path fill="#df0030" stroke="#df0030" d="M 202,268 L 238,268 L 238,242 L 202,242 Z" style="stroke-width: 2px;fill-opacity: 0.4" stroke-width="2" fill-opacity="0.4"/><path fill="#df0030" stroke="#df0030" d="M 242,268 L 278,268 L 278,242 L 242,242 Z" style="stroke-width: 2px;fill-opacity: 0.4" stroke-width="2" fill-opacity="0.4"/><path fill="#df0030" stroke="#df0030" d="M 282,268 L 318,268 L 318,242 L 282,242 Z" style="stroke-width: 2px;fill-opacity: 0.4" stroke-width="2" fill-opacity="0.4"/><path fill="#df0030" stroke="#df0030" d="M 322,268 L 358,268 L 358,242 L 322,242 Z" style="stroke-width: 2px;fill-opacity: 0.4" stroke-width="2" fill-opacity="0.4"/><path fill="#df0030" stroke="#df0030" d="M 362,268 L 398,268 L 398,242 L 362,242 Z" style="stroke-width: 2px;fill-opacity: 0.4" stroke-width="2" fill-opacity="0.4"/><path fill="#6495ed" stroke="#6495ed" d="M 2,238 L 38,238 L 38,212 L 2,212 Z" style="stroke-width: 2px;fill-opacity: 0.4" stroke-width="2" fill-opacity="0.4"/><path fill="#6495ed" stroke="#6495ed" d="M 42,238 L 78,238 L 78,212 L 42,212 Z" style="stroke-width: 2px;fill-opacity: 0.4" stroke-width="2" fill-opacity="0.4"/><path fill="#6495ed" stroke="#6495ed" d="M 82,238 L 118,238 L 118,212 L 82,212 Z" style="stroke-width: 2px;fill-opacity: 0.4" stroke-width="2" fill-opacity="0.4"/><path fill="#6495ed" stroke="#6495ed" d="M 122,238 L 158,238 L 158,212 L 122,212 Z" style="stroke-width: 2px;fill-opacity: 0.4" stroke-width="2" fill-opacity="0.4"/><path fill="#6495ed" stroke="#6495ed" d="M 162,238 L 198,238 L 198,212 L 162,212 Z" style="stroke-width: 2px;fill-opacity: 0.4" stroke-width="2" fill-opacity="0.4"/><path fill="#6495ed" stroke="#6495ed" d="M 202,238 L 238,238 L 238,212 L 202,212 Z" style="stroke-width: 2px;fill-opacity: 0.4" stroke-width="2" fill-opacity="0.4"/><path fill="#6495ed" stroke="#6495ed" d="M 242,238 L 278,238 L 278,212 L 242,212 Z" style="stroke-width: 2px;fill-opacity: 0.4" stroke-width="2" fill-opacity="0.4"/><path fill="#6495ed" stroke="#6495ed" d="M 282,238 L 318,238 L 318,212 L 282,212 Z" style="stroke-width: 2px;fill-opacity: 0.4" stroke-width="2" fill-opacity="0.4"/><path fill="#6495ed" stroke="#6495ed" d="M 322,238 L 358,238 L 358,212 L 322,212 Z" style="stroke-width: 2px;fill-opacity: 0.4" stroke-width="2" fill-opacity="0.4"/><path fill="#6495ed" stroke="#6495ed" d="M 362,238 L 398,238 L 398,212 L 362,212 Z" style="stroke-width: 2px;fill-opacity: 0.4" stroke-width="2" fill-opacity="0.4"/><path fill="#ff00af" stroke="#ff00af" d="M 2,208 L 38,208 L 38,182 L 2,182 Z" style="stroke-width: 2px;fill-opacity: 0.4" stroke-width="2" fill-opacity="0.4"/><path fill="#ff00af" stroke="#ff00af" d="M 42,208 L 78,208 L 78,182 L 42,182 Z" style="stroke-width: 2px;fill-opacity: 0.4" stroke-width="2" fill-opacity="0.4"/><path fill="#ff00af" stroke="#ff00af" d="M 82,208 L 118,208 L 118,182 L 82,182 Z" style="stroke-width: 2px;fill-opacity: 0.4" stroke-width="2" fill-opacity="0.4"/><path fill="#ff00af" stroke="#ff00af" d="M 122,208 L 158,208 L 158,182 L 122,182 Z" style="stroke-width: 2px;fill-opacity: 0.4" stroke-width="2" fill-opacity="0.4"/><path fill="#ff00af" stroke="#ff00af" d="M 162,208 L 198,208 L 198,182 L 162,182 Z" style="stroke-width: 2px;fill-opacity: 0.4" stroke-width="2" fill-opacity="0.4"/><path fill="#ff00af" stroke="#ff00af" d="M 202,208 L 238,208 L 238,182 L 202,182 Z" style="stroke-width: 2px;fill-opacity: 0.4" stroke-width="2" fill-opacity="0.4"/><path fill="#ff00af" stroke="#ff00af" d="M 242,208 L 278,208 L 278,182 L 242,182 Z" style="stroke-width: 2px;fill-opacity: 0.4" stroke-width="2" fill-opacity="0.4"/><path fill="#ff00af" stroke="#ff00af" d="M 282,208 L 318,208 L 318,182 L 282,182 Z" style="stroke-width: 2px;fill-opacity: 0.4" stroke-width="2" fill-opacity="0.4"/><path fill="#ff00af" stroke="#ff00af" d="M 322,208 L 358,208 L 358,182 L 322,182 Z" style="stroke-width: 2px;fill-opacity: 0.4" stroke-width="2" fill-opacity="0.4"/><path fill="#ff00af" stroke="#ff00af" d="M 362,208 L 398,208 L 398,182 L 362,182 Z" style="stroke-width: 2px;fill-opacity: 0.4" stroke-width="2" fill-opacity="0.4"/><path fill="#28ae7b" stroke="#28ae7b" d="M 2,178 L 38,178 L 38,152 L 2,152 Z" style="stroke-width: 2px;fill-opacity: 0.4" stroke-width="2" fill-opacity="0.4"/><path fill="#28ae7b" stroke="#28ae7b" d="M 42,178 L 78,178 L 78,152 L 42,152 Z" style="stroke-width: 2px;fill-opacity: 0.4" stroke-width="2" fill-opacity="0.4"/><path fill="#28ae7b" stroke="#28ae7b" d="M 82,178 L 118,178 L 118,152 L 82,152 Z" style="stroke-width: 2px;fill-opacity: 0.4" stroke-width="2" fill-opacity="0.4"/><path fill="#28ae7b" stroke="#28ae7b" d="M 122,178 L 158,178 L 158,152 L 122,152 Z" style="stroke-width: 2px;fill-opacity: 0.4" stroke-width="2" fill-opacity="0.4"/><path fill="#28ae7b" stroke="#28ae7b" d="M 162,178 L 198,178 L 198,152 L 162,152 Z" style="stroke-width: 2px;fill-opacity: 0.4" stroke-width="2" fill-opacity="0.4"/><path fill="#28ae7b" stroke="#28ae7b" d="M 202,178 L 238,178 L 238,152 L 202,152 Z" style="stroke-width: 2px;fill-opacity: 0.4" stroke-width="2" fill-opacity="0.4"/><path fill="#28ae7b" stroke="#28ae7b" d="M 242,178 L 278,178 L 278,152 L 242,152 Z" style="stroke-width: 2px;fill-opacity: 0.4" stroke-width="2" fill-opacity="0.4"/><path fill="#28ae7b" stroke="#28ae7b" d="M 282,178 L 318,178 L 318,152 L 282,152 Z" style="stroke-width: 2px;fill-opacity: 0.4" stroke-width="2" fill-opacity="0.4"/><path fill="#28ae7b" stroke="#28ae7b" d="M 322,178 L 358,178 L 358,152 L 322,152 Z" style="stroke-width: 2px;fill-opacity: 0.4" stroke-width="2" fill-opacity="0.4"/><path fill="none" stroke="#28ae7b" d="M 362,178 L 398,178 L 398,152 L 362,152 Z" style="stroke-width: 2px;fill-opacity: 0.4" stroke-width="2" fill-opacity="0.4"/><path fill="#9d38bd" stroke="#9d38bd" d="M 2,148 L 38,148 L 38,122 L 2,122 Z" style="stroke-width: 2px;fill-opacity: 0.4" stroke-width="2" fill-opacity="0.4"/><path fill="#9d38bd" stroke="#9d38bd" d="M 42,148 L 78,148 L 78,122 L 42,122 Z" style="stroke-width: 2px;fill-opacity: 0.4" stroke-width="2" fill-opacity="0.4"/><path fill="#9d38bd" stroke="#9d38bd" d="M 82,148 L 118,148 L 118,122 L 82,122 Z" style="stroke-width: 2px;fill-opacity: 0.4" stroke-width="2" fill-opacity="0.4"/><path fill="#9d38bd" stroke="#9d38bd" d="M 122,148 L 158,148 L 158,122 L 122,122 Z" style="stroke-width: 2px;fill-opacity: 0.4" stroke-width="2" fill-opacity="0.4"/><path fill="#9d38bd" stroke="#9d38bd" d="M 162,148 L 198,148 L 198,122 L 162,122 Z" style="stroke-width: 2px;fill-opacity: 0.4" stroke-width="2" fill-opacity="0.4"/><path fill="#9d38bd" stroke="#9d38bd" d="M 202,148 L 238,148 L 238,122 L 202,122 Z" style="stroke-width: 2px;fill-opacity: 0.4" stroke-width="2" fill-opacity="0.4"/><path fill="#9d38bd" stroke="#9d38bd" d="M 242,148 L 278,148 L 278,122 L 242,122 Z" style="stroke-width: 2px;fill-opacity: 0.4" stroke-width="2" fill-opacity="0.4"/><path fill="#9d38bd" stroke="#9d38bd" d="M 282,148 L 318,148 L 318,122 L 282,122 Z" style="stroke-width: 2px;fill-opacity: 0.4" stroke-width="2" fill-opacity="0.4"/><path fill="#9d38bd" stroke="#9d38bd" d="M 322,148 L 358,148 L 358,122 L 322,122 Z" style="stroke-width: 2px;fill-opacity: 0.4" stroke-width="2" fill-opacity="0.4"/><path fill="#9d38bd" stroke="#9d38bd" d="M 362,148 L 398,148 L 398,122 L 362,122 Z" style="stroke-width: 2px;fill-opacity: 0.4" stroke-width="2" fill-opacity="0.4"/><path fill="#df0030" stroke="#df0030" d="M 2,118 L 38,118 L 38,92 L 2,92 Z" style="stroke-width: 2px;fill-opacity: 0.4" stroke-width="2" fill-opacity="0.4"/><path fill="#df0030" stroke="#df0030" d="M 42,118 L 78,118 L 78,92 L 42,92 Z" style="stroke-width: 2px;fill-opacity: 0.4" stroke-width="2" fill-opacity="0.4"/><path fill="#df0030" stroke="#df0030" d="M 82,118 L 118,118 L 118,92 L 82,92 Z" style="stroke-width: 2px;fill-opacity: 0.4" stroke-width="2" fill-opacity="0.4"/><path fill="#df0030" stroke="#df0030" d="M 122,118 L 158,118 L 158,92 L 122,92 Z" style="stroke-width: 2px;fill-opacity: 0.4" stroke-width="2" fill-opacity="0.4"/><path fill="#df0030" stroke="#df0030" d="M 162,118 L 198,118 L 198,92 L 162,92 Z" style="stroke-width: 2px;fill-opacity: 0.4" stroke-width="2" fill-opacity="0.4"/><path fill="#df0030" stroke="#df0030" d="M 202,118 L 238,118 L 238,92 L 202,92 Z" style="stroke-width: 2px;fill-opacity: 0.4" stroke-width="2" fill-opacity="0.4"/><path fill="#df0030" stroke="#df0030" d="M 242,118 L 278,118 L 278,92 L 242,92 Z" style="stroke-width: 2px;fill-opacity: 0.4" stroke-width="2" fill-opacity="0.4"/><path fill="#df0030" stroke="#df0030" d="M 282,118 L 318,118 L 318,92 L 282,92 Z" style="stroke-width: 2px;fill-opacity: 0.4" stroke-width="2" fill-opacity="0.4"/><path fill="#df0030" stroke="#df0030" d="M 322,118 L 358,118 L 358,92 L 322,92 Z" style="stroke-width: 2px;fill-opacity: 0.4" stroke-width="2" fill-opacity="0.4"/><path fill="#df0030" stroke="#df0030" d="M 362,118 L 398,118 L 398,92 L 362,92 Z" style="stroke-width: 2px;fill-opacity: 0.4" stroke-width="2" fill-opacity="0.4"/><path fill="#6495ed" stroke="#6495ed" d="M 2,88 L 38,88 L 38,62 L 2,62 Z" style="stroke-width: 2px;fill-opacity: 0.4" stroke-width="2" fill-opacity="0.4"/><path fill="#6495ed" stroke="#6495ed" d="M 42,88 L 78,88 L 78,62 L 42,62 Z" style="stroke-width: 2px;fill-opacity: 0.4" stroke-width="2" fill-opacity="0.4"/><path fill="#6495ed" stroke="#6495ed" d="M 82,88 L 118,88 L 118,62 L 82,62 Z" style="stroke-width: 2px;fill-opacity: 0.4" stroke-width="2" fill-opacity="0.4"/><path fill="#6495ed" stroke="#6495ed" d="M 122,88 L 158,88 L 158,62 L 122,62 Z" style="stroke-width: 2px;fill-opacity: 0.4" stroke-width="2" fill-opacity="0.4"/><path fill="#6495ed" stroke="#6495ed" d="M 162,88 L 198,88 L 198,62 L 162,62 Z" style="stroke-width: 2px;fill-opacity: 0.4" stroke-width="2" fill-opacity="0.4"/><path fill="#6495ed" stroke="#6495ed" d="M 202,88 L 238,88 L 238,62 L 202,62 Z" style="stroke-width: 2px;fill-opacity: 0.4" stroke-width="2" fill-opacity="0.4"/><path fill="#6495ed" stroke="#6495ed" d="M 242,88 L 278,88 L 278,62 L 242,62 Z" style="stroke-width: 2px;fill-opacity: 0.4" stroke-width="2" fill-opacity="0.4"/><path fill="#6495ed" stroke="#6495ed" d="M 282,88 L 318,88 L 318,62 L 282,62 Z" style="stroke-width: 2px;fill-opacity: 0.4" stroke-width="2" fill-opacity="0.4"/><path fill="#6495ed" stroke="#6495ed" d="M 322,88 L 358,88 L 358,62 L 322,62 Z" style="stroke-width: 2px;fill-opacity: 0.4" stroke-width="2" fill-opacity="0.4"/><path fill="#6495ed" stroke="#6495ed" d="M 362,88 L 398,88 L 398,62 L 362,62 Z" style="stroke-width: 2px;fill-opacity: 0.4" stroke-width="2" fill-opacity="0.4"/><path fill="#ff00af" stroke="#ff00af" d="M 2,58 L 38,58 L 38,32 L 2,32 Z" style="stroke-width: 2px;fill-opacity: 0.4" stroke-width="2" fill-opacity="0.4"/><path fill="#ff00af" stroke="#ff00af" d="M 42,58 L 78,58 L 78,32 L 42,32 Z" style="stroke-width: 2px;fill-opacity: 0.4" stroke-width="2" fill-opacity="0.4"/><path fill="#ff00af" stroke="#ff00af" d="M 82,58 L 118,58 L 118,32 L 82,32 Z" style="stroke-width: 2px;fill-opacity: 0.4" stroke-width="2" fill-opacity="0.4"/><path fill="#ff00af" stroke="#ff00af" d="M 122,58 L 158,58 L 158,32 L 122,32 Z" style="stroke-width: 2px;fill-opacity: 0.4" stroke-width="2" fill-opacity="0.4"/><path fill="#ff00af" stroke="#ff00af" d="M 162,58 L 198,58 L 198,32 L 162,32 Z" style="stroke-width: 2px;fill-opacity: 0.4" stroke-width="2" fill-opacity="0.4"/><path fill="#ff00af" stroke="#ff00af" d="M 202,58 L 238,58 L 238,32 L 202,32 Z" style="stroke-width: 2px;fill-opacity: 0.4" stroke-width="2" fill-opacity="0.4"/><path fill="#ff00af" stroke="#ff00af" d="M 242,58 L 278,58 L 278,32 L 242,32 Z" style="stroke-width: 2px;fill-opacity: 0.4" stroke-width="2" fill-opacity="0.4"/><path fill="#ff00af" stroke="#ff00af" d="M 282,58 L 318,58 L 318,32 L 282,32 Z" style="stroke-width: 2px;fill-opacity: 0.4" stroke-width="2" fill-opacity="0.4"/><path fill="#ff00af" stroke="#ff00af" d="M 322,58 L 358,58 L 358,32 L 322,32 Z" style="stroke-width: 2px;fill-opacity: 0.4" stroke-width="2" fill-opacity="0.4"/><path fill="#ff00af" stroke="#ff00af" d="M 362,58 L 398,58 L 398,32 L 362,32 Z" style="stroke-width: 2px;fill-opacity: 0.4" stroke-width="2" fill-opacity="0.4"/><path fill="#28ae7b" stroke="#28ae7b" d="M 2,28 L 38,28 L 38,2 L 2,2 Z" style="stroke-width: 2px;fill-opacity: 0.4" stroke-width="2" fill-opacity="0.4"/><path fill="#28ae7b" stroke="#28ae7b" d="M 42,28 L 78,28 L 78,2 L 42,2 Z" style="stroke-width: 2px;fill-opacity: 0.4" stroke-width="2" fill-opacity="0.4"/><path fill="#28ae7b" stroke="#28ae7b" d="M 82,28 L 118,28 L 118,2 L 82,2 Z" style="stroke-width: 2px;fill-opacity: 0.4" stroke-width="2" fill-opacity="0.4"/><path fill="#28ae7b" stroke="#28ae7b" d="M 122,28 L 158,28 L 158,2 L 122,2 Z" style="stroke-width: 2px;fill-opacity: 0.4" stroke-width="2" fill-opacity="0.4"/><path fill="#28ae7b" stroke="#28ae7b" d="M 162,28 L 198,28 L 198,2 L 162,2 Z" style="stroke-width: 2px;fill-opacity: 0.4" stroke-width="2" fill-opacity="0.4"/><path fill="#28ae7b" stroke="#28ae7b" d="M 202,28 L 238,28 L 238,2 L 202,2 Z" style="stroke-width: 2px;fill-opacity: 0.4" stroke-width="2" fill-opacity="0.4"/><path fill="#28ae7b" stroke="#28ae7b" d="M 242,28 L 278,28 L 278,2 L 242,2 Z" style="stroke-width: 2px;fill-opacity: 0.4" stroke-width="2" fill-opacity="0.4"/><path fill="#28ae7b" stroke="#28ae7b" d="M 282,28 L 318,28 L 318,2 L 282,2 Z" style="stroke-width: 2px;fill-opacity: 0.4" stroke-width="2" fill-opacity="0.4"/><path fill="#28ae7b" stroke="#28ae7b" d="M 322,28 L 358,28 L 358,2 L 322,2 Z" style="stroke-width: 2px;fill-opacity: 0.4" stroke-width="2" fill-opacity="0.4"/><path fill="#28ae7b" stroke="#28ae7b" d="M 362,28 L 398,28 L 398,2 L 362,2 Z" style="stroke-width: 2px;fill-opacity: 0.4" stroke-width="2" fill-opacity="0.4"/></svg>