<svg xmlns="http://www.w3.org/2000/svg" version="1.1" width="400" height="210.5263157894737" viewBox="0 0 400 210.5263157894737"><defs/><path fill="#d78334" stroke="none" d="M 33.5893,182.152 C 29.2143,188.242 16.0353,199.135 15.4923,198.676 C 14.5223,197.856 21.2513,181.115 25.6263,175.025 S 30.7963,170.506 33.9493,172.573 C 36.8313,174.463 37.9633,176.062 33.5893,182.152 Z" transform=""/><path fill="#f4953f" stroke="none" d="M 34.1339,172.469 C 30.8159,170.375 29.9779,168.784 25.3739,174.953 C 25.0029,175.449 24.6149,176.022 24.2179,176.645 C 25.0419,180.084 28.2379,182.651 32.0619,182.651 C 32.5479,182.651 33.0209,182.602 33.4829,182.523 C 33.5749,182.405 33.6699,182.286 33.7549,182.172 C 38.3589,176.003 37.1679,174.383 34.1339,172.469 Z" transform=""/><path fill="#f4953f" stroke="none" d="M 18.674,187.74 C 16.014,193.621 13.921,199.52 14.476,199.986 C 14.805,200.262 19.998,196.195 24.803,191.72 C 22.115,191.584 19.816,190.004 18.674,187.74 Z" transform=""/><path fill="#f4953f" stroke="none" d="M 32.6591,183.595 C 32.2161,183.673 31.7611,183.72 31.2951,183.72 C 27.6241,183.72 24.5571,181.205 23.7651,177.836 C 22.2581,180.245 20.5941,183.509 19.0981,186.779 C 20.3111,189.157 22.7541,190.817 25.6111,190.961 C 28.3781,188.413 31.0231,185.738 32.6591,183.595 Z" transform=""/><path fill="#d78334" stroke="none" d="M 34.222,173.146 C 32.637,171.899 32.072,170.856 30.274,172.032 C 29.906,173.296 30.531,174.9 31.914,175.956 C 32.965,176.757 34.206,177.054 35.233,176.848 C 36.007,175.258 35.564,174.203 34.222,173.146 Z" transform=""/><path fill="#64c4ad" stroke="none" d="M 48.6855,167.275 C 49.3335,166.083 46.2225,164.768 42.8225,165.442 C 41.1335,165.777 39.7075,166.577 38.6985,167.297 C 38.3195,167.437 37.9575,167.616 37.6115,167.826 C 39.4615,165.048 43.2385,158.932 41.2885,157.981 C 39.1485,156.938 37.3335,165.636 36.8175,168.383 C 36.7875,168.407 36.7575,168.431 36.7285,168.455 C 36.8415,167.744 37.3675,163.699 35.1005,161.171 C 33.1455,158.99 30.9325,158.471 30.4255,159.779 C 29.9195,161.083 32.9215,161.475 34.4995,163.075 C 36.5615,165.165 36.7005,167.93 36.7075,168.473 C 36.6915,168.486 36.6775,168.499 36.6615,168.512 C 36.6185,167.475 36.3395,165.163 34.7565,164.355 C 32.4215,163.164 29.3905,164.138 28.7995,165.63 C 28.5055,166.372 29.3945,166.898 30.7615,166.203 C 32.1285,165.509 33.1355,164.401 34.8685,165.33 C 35.8875,165.876 36.3955,167.722 36.5815,168.582 C 34.6975,170.209 33.3885,172.751 32.5665,174.817 C 32.6445,174.85 32.7235,174.881 32.8025,174.913 C 33.4105,173.658 34.2305,172.213 35.2775,170.887 C 38.3535,166.996 41.0135,167.551 42.5565,168.568 C 44.2075,169.657 43.3205,171.893 43.9785,172.998 C 44.6365,174.102 45.4705,173.772 45.7775,173 C 46.2195,171.889 45.4465,167.424 41.5535,166.961 C 41.9145,166.897 42.2875,166.85 42.6705,166.823 C 45.7235,166.617 48.0575,168.432 48.6855,167.275 Z" transform=""/><path fill="#d78334" stroke="none" d="M 86.2209,182.152 C 81.8459,188.242 68.6669,199.135 68.1239,198.676 C 67.1539,197.856 73.8829,181.115 78.2579,175.025 S 83.4279,170.506 86.5809,172.573 C 89.4629,174.463 90.5949,176.062 86.2209,182.152 Z" transform=""/><path fill="#f4953f" stroke="none" d="M 86.7655,172.469 C 83.4475,170.375 82.6095,168.784 78.0055,174.953 C 77.6345,175.449 77.2465,176.022 76.8495,176.645 C 77.6735,180.084 80.8695,182.651 84.6935,182.651 C 85.1795,182.651 85.6525,182.602 86.1145,182.523 C 86.2065,182.405 86.3015,182.286 86.3865,182.172 C 90.9905,176.003 89.7995,174.383 86.7655,172.469 Z" transform=""/><path fill="#f4953f" stroke="none" d="M 71.3056,187.74 C 68.6456,193.621 66.5526,199.52 67.1076,199.986 C 67.4366,200.262 72.6296,196.195 77.4346,191.72 C 74.7466,191.584 72.4476,190.004 71.3056,187.74 Z" transform=""/><path fill="#f4953f" stroke="none" d="M 85.2907,183.595 C 84.8477,183.673 84.3927,183.72 83.9267,183.72 C 80.2557,183.72 77.1887,181.205 76.3967,177.836 C 74.8897,180.245 73.2257,183.509 71.7297,186.779 C 72.9427,189.157 75.3857,190.817 78.2427,190.961 C 81.0097,188.413 83.6547,185.738 85.2907,183.595 Z" transform=""/><path fill="#d78334" stroke="none" d="M 86.8535,173.146 C 85.2685,171.899 84.7035,170.856 82.9055,172.032 C 82.5375,173.296 83.1625,174.9 84.5455,175.956 C 85.5965,176.757 86.8375,177.054 87.8645,176.848 C 88.6385,175.258 88.1955,174.203 86.8535,173.146 Z" transform=""/><path fill="#64c4ad" stroke="none" d="M 101.317,167.275 C 101.965,166.083 98.8541,164.768 95.4541,165.442 C 93.7651,165.777 92.3391,166.577 91.3301,167.297 C 90.9511,167.437 90.5891,167.616 90.2431,167.826 C 92.0931,165.048 95.8701,158.932 93.9201,157.981 C 91.7801,156.938 89.9651,165.636 89.4491,168.383 C 89.4191,168.407 89.3891,168.431 89.3601,168.455 C 89.4731,167.744 89.9991,163.699 87.7321,161.171 C 85.7771,158.99 83.5641,158.471 83.0571,159.779 C 82.5511,161.083 85.5531,161.475 87.1311,163.075 C 89.1931,165.165 89.3321,167.93 89.3391,168.473 C 89.3231,168.486 89.3091,168.499 89.2931,168.512 C 89.2501,167.475 88.9711,165.163 87.3881,164.355 C 85.0531,163.164 82.0221,164.138 81.4311,165.63 C 81.1371,166.372 82.0261,166.898 83.3931,166.203 C 84.7601,165.509 85.7671,164.401 87.5001,165.33 C 88.5191,165.876 89.0271,167.722 89.2131,168.582 C 87.3291,170.209 86.0201,172.751 85.1981,174.817 C 85.2761,174.85 85.3551,174.881 85.4341,174.913 C 86.0421,173.658 86.8621,172.213 87.9091,170.887 C 90.9851,166.996 93.6451,167.551 95.1881,168.568 C 96.8391,169.657 95.9521,171.893 96.6101,172.998 C 97.2681,174.102 98.1021,173.772 98.4091,173 C 98.8511,171.889 98.0781,167.424 94.1851,166.961 C 94.5461,166.897 94.9191,166.85 95.3021,166.823 C 98.3551,166.617 100.689,168.432 101.317,167.275 Z" transform=""/><path fill="#d78334" stroke="none" d="M 138.852,182.152 C 134.477,188.242 121.298,199.135 120.755,198.676 C 119.785,197.856 126.514,181.115 130.889,175.025 C 135.264,168.935 136.059,170.506 139.212,172.573 C 142.094,174.463 143.226,176.062 138.852,182.152 Z" transform=""/><path fill="#f4953f" stroke="none" d="M 139.397,172.469 C 136.079,170.375 135.241,168.784 130.637,174.953 C 130.266,175.449 129.878,176.022 129.481,176.645 C 130.305,180.084 133.501,182.651 137.325,182.651 C 137.811,182.651 138.284,182.602 138.746,182.523 C 138.838,182.405 138.933,182.286 139.018,182.172 C 143.622,176.003 142.431,174.383 139.397,172.469 Z" transform=""/><path fill="#f4953f" stroke="none" d="M 123.937,187.74 C 121.277,193.621 119.184,199.52 119.739,199.986 C 120.068,200.262 125.261,196.195 130.066,191.72 C 127.378,191.584 125.079,190.004 123.937,187.74 Z" transform=""/><path fill="#f4953f" stroke="none" d="M 137.922,183.595 C 137.479,183.673 137.024,183.72 136.558,183.72 C 132.887,183.72 129.82,181.205 129.028,177.836 C 127.521,180.245 125.857,183.509 124.361,186.779 C 125.574,189.157 128.017,190.817 130.874,190.961 C 133.641,188.413 136.286,185.738 137.922,183.595 Z" transform=""/><path fill="#d78334" stroke="none" d="M 139.485,173.146 C 137.9,171.899 137.335,170.856 135.537,172.032 C 135.169,173.296 135.794,174.9 137.177,175.956 C 138.228,176.757 139.469,177.054 140.496,176.848 C 141.27,175.258 140.827,174.203 139.485,173.146 Z" transform=""/><path fill="#64c4ad" stroke="none" d="M 153.949,167.275 C 154.597,166.083 151.486,164.768 148.086,165.442 C 146.397,165.777 144.971,166.577 143.962,167.297 C 143.583,167.437 143.221,167.616 142.875,167.826 C 144.725,165.048 148.502,158.932 146.552,157.981 C 144.412,156.938 142.597,165.636 142.081,168.383 C 142.051,168.407 142.021,168.431 141.992,168.455 C 142.105,167.744 142.631,163.699 140.364,161.171 C 138.409,158.99 136.196,158.471 135.689,159.779 C 135.183,161.083 138.185,161.475 139.763,163.075 C 141.825,165.165 141.964,167.93 141.971,168.473 C 141.955,168.486 141.941,168.499 141.925,168.512 C 141.882,167.475 141.603,165.163 140.02,164.355 C 137.685,163.164 134.654,164.138 134.063,165.63 C 133.769,166.372 134.658,166.898 136.025,166.203 C 137.392,165.509 138.399,164.401 140.132,165.33 C 141.151,165.876 141.659,167.722 141.845,168.582 C 139.961,170.209 138.652,172.751 137.83,174.817 C 137.908,174.85 137.987,174.881 138.066,174.913 C 138.674,173.658 139.494,172.213 140.541,170.887 C 143.617,166.996 146.277,167.551 147.82,168.568 C 149.471,169.657 148.584,171.893 149.242,172.998 C 149.9,174.102 150.734,173.772 151.041,173 C 151.483,171.889 150.71,167.424 146.817,166.961 C 147.178,166.897 147.551,166.85 147.934,166.823 C 150.987,166.617 153.321,168.432 153.949,167.275 Z" transform=""/><path fill="#d78334" stroke="none" d="M 191.484,182.152 C 187.109,188.242 173.93,199.135 173.387,198.676 C 172.417,197.856 179.146,181.115 183.521,175.025 S 188.691,170.506 191.844,172.573 C 194.726,174.463 195.858,176.062 191.484,182.152 Z" transform=""/><path fill="#f4953f" stroke="none" d="M 192.029,172.469 C 188.711,170.375 187.873,168.784 183.269,174.953 C 182.898,175.449 182.51,176.022 182.113,176.645 C 182.937,180.084 186.133,182.651 189.957,182.651 C 190.443,182.651 190.916,182.602 191.378,182.523 C 191.47,182.405 191.565,182.286 191.65,182.172 C 196.254,176.003 195.063,174.383 192.029,172.469 Z" transform=""/><path fill="#f4953f" stroke="none" d="M 176.569,187.74 C 173.909,193.621 171.816,199.52 172.371,199.986 C 172.7,200.262 177.893,196.195 182.698,191.72 C 180.01,191.584 177.711,190.004 176.569,187.74 Z" transform=""/><path fill="#f4953f" stroke="none" d="M 190.554,183.595 C 190.111,183.673 189.656,183.72 189.19,183.72 C 185.519,183.72 182.452,181.205 181.66,177.836 C 180.153,180.245 178.489,183.509 176.993,186.779 C 178.206,189.157 180.649,190.817 183.506,190.961 C 186.273,188.413 188.918,185.738 190.554,183.595 Z" transform=""/><path fill="#d78334" stroke="none" d="M 192.117,173.146 C 190.532,171.899 189.967,170.856 188.169,172.032 C 187.801,173.296 188.426,174.9 189.809,175.956 C 190.86,176.757 192.101,177.054 193.128,176.848 C 193.902,175.258 193.459,174.203 192.117,173.146 Z" transform=""/><path fill="#64c4ad" stroke="none" d="M 206.58,167.275 C 207.228,166.083 204.117,164.768 200.717,165.442 C 199.028,165.777 197.602,166.577 196.593,167.297 C 196.214,167.437 195.852,167.616 195.506,167.826 C 197.356,165.048 201.133,158.932 199.183,157.981 C 197.043,156.938 195.228,165.636 194.712,168.383 C 194.682,168.407 194.652,168.431 194.623,168.455 C 194.736,167.744 195.262,163.699 192.995,161.171 C 191.04,158.99 188.827,158.471 188.32,159.779 C 187.814,161.083 190.816,161.475 192.394,163.075 C 194.456,165.165 194.595,167.93 194.602,168.473 C 194.586,168.486 194.572,168.499 194.556,168.512 C 194.513,167.475 194.234,165.163 192.651,164.355 C 190.316,163.164 187.285,164.138 186.694,165.63 C 186.4,166.372 187.289,166.898 188.656,166.203 C 190.023,165.509 191.03,164.401 192.763,165.33 C 193.782,165.876 194.29,167.722 194.476,168.582 C 192.592,170.209 191.283,172.751 190.461,174.817 C 190.539,174.85 190.618,174.881 190.697,174.913 C 191.305,173.658 192.125,172.213 193.172,170.887 C 196.248,166.996 198.908,167.551 200.451,168.568 C 202.102,169.657 201.215,171.893 201.873,172.998 C 202.531,174.102 203.365,173.772 203.672,173 C 204.114,171.889 203.341,167.424 199.448,166.961 C 199.809,166.897 200.182,166.85 200.565,166.823 C 203.618,166.617 205.952,168.432 206.58,167.275 Z" transform=""/><path fill="#d78334" stroke="none" d="M 33.5893,129.521 C 29.2143,135.611 16.0353,146.504 15.4923,146.045 C 14.5223,145.225 21.2513,128.484 25.6263,122.394 S 30.7963,117.875 33.9493,119.942 C 36.8313,121.832 37.9633,123.431 33.5893,129.521 Z" transform=""/><path fill="#f4953f" stroke="none" d="M 34.1339,119.837 C 30.8159,117.743 29.9779,116.152 25.3739,122.321 C 25.0029,122.817 24.6149,123.39 24.2179,124.013 C 25.0419,127.452 28.2379,130.019 32.0619,130.019 C 32.5479,130.019 33.0209,129.97 33.4829,129.891 C 33.5749,129.773 33.6699,129.654 33.7549,129.54 C 38.3589,123.371 37.1679,121.751 34.1339,119.837 Z" transform=""/><path fill="#f4953f" stroke="none" d="M 18.674,135.109 C 16.014,140.99 13.921,146.889 14.476,147.355 C 14.805,147.631 19.998,143.564 24.803,139.089 C 22.115,138.953 19.816,137.373 18.674,135.109 Z" transform=""/><path fill="#f4953f" stroke="none" d="M 32.6591,130.963 C 32.2161,131.041 31.7611,131.088 31.2951,131.088 C 27.6241,131.088 24.5571,128.573 23.7651,125.204 C 22.2581,127.613 20.5941,130.877 19.0981,134.147 C 20.3111,136.525 22.7541,138.185 25.6111,138.329 C 28.3781,135.781 31.0231,133.106 32.6591,130.963 Z" transform=""/><path fill="#d78334" stroke="none" d="M 34.222,120.514 C 32.637,119.267 32.072,118.224 30.274,119.4 C 29.906,120.664 30.531,122.268 31.914,123.324 C 32.965,124.125 34.206,124.422 35.233,124.216 C 36.007,122.626 35.564,121.571 34.222,120.514 Z" transform=""/><path fill="#64c4ad" stroke="none" d="M 48.6855,114.643 C 49.3335,113.451 46.2225,112.136 42.8225,112.81 C 41.1335,113.145 39.7075,113.945 38.6985,114.665 C 38.3195,114.805 37.9575,114.984 37.6115,115.194 C 39.4615,112.416 43.2385,106.3 41.2885,105.349 C 39.1485,104.306 37.3335,113.004 36.8175,115.751 C 36.7875,115.775 36.7575,115.799 36.7285,115.823 C 36.8415,115.112 37.3675,111.067 35.1005,108.539 C 33.1455,106.358 30.9325,105.839 30.4255,107.147 C 29.9195,108.451 32.9215,108.843 34.4995,110.443 C 36.5615,112.533 36.7005,115.298 36.7075,115.841 C 36.6915,115.854 36.6775,115.867 36.6615,115.88 C 36.6185,114.843 36.3395,112.531 34.7565,111.723 C 32.4215,110.532 29.3905,111.506 28.7995,112.998 C 28.5055,113.74 29.3945,114.266 30.7615,113.571 C 32.1285,112.877 33.1355,111.769 34.8685,112.698 C 35.8875,113.244 36.3955,115.09 36.5815,115.95 C 34.6975,117.577 33.3885,120.119 32.5665,122.185 C 32.6445,122.218 32.7235,122.249 32.8025,122.281 C 33.4105,121.026 34.2305,119.581 35.2775,118.255 C 38.3535,114.364 41.0135,114.919 42.5565,115.936 C 44.2075,117.025 43.3205,119.261 43.9785,120.366 C 44.6365,121.47 45.4705,121.14 45.7775,120.368 C 46.2195,119.257 45.4465,114.792 41.5535,114.329 C 41.9145,114.265 42.2875,114.218 42.6705,114.191 C 45.7235,113.985 48.0575,115.8 48.6855,114.643 Z" transform=""/><path fill="#d78334" stroke="none" d="M 86.2209,129.521 C 81.8459,135.611 68.6669,146.504 68.1239,146.045 C 67.1539,145.225 73.8829,128.484 78.2579,122.394 S 83.4279,117.875 86.5809,119.942 C 89.4629,121.832 90.5949,123.431 86.2209,129.521 Z" transform=""/><path fill="#f4953f" stroke="none" d="M 86.7655,119.837 C 83.4475,117.743 82.6095,116.152 78.0055,122.321 C 77.6345,122.817 77.2465,123.39 76.8495,124.013 C 77.6735,127.452 80.8695,130.019 84.6935,130.019 C 85.1795,130.019 85.6525,129.97 86.1145,129.891 C 86.2065,129.773 86.3015,129.654 86.3865,129.54 C 90.9905,123.371 89.7995,121.751 86.7655,119.837 Z" transform=""/><path fill="#f4953f" stroke="none" d="M 71.3056,135.109 C 68.6456,140.99 66.5526,146.889 67.1076,147.355 C 67.4366,147.631 72.6296,143.564 77.4346,139.089 C 74.7466,138.953 72.4476,137.373 71.3056,135.109 Z" transform=""/><path fill="#f4953f" stroke="none" d="M 85.2907,130.963 C 84.8477,131.041 84.3927,131.088 83.9267,131.088 C 80.2557,131.088 77.1887,128.573 76.3967,125.204 C 74.8897,127.613 73.2257,130.877 71.7297,134.147 C 72.9427,136.525 75.3857,138.185 78.2427,138.329 C 81.0097,135.781 83.6547,133.106 85.2907,130.963 Z" transform=""/><path fill="#d78334" stroke="none" d="M 86.8535,120.514 C 85.2685,119.267 84.7035,118.224 82.9055,119.4 C 82.5375,120.664 83.1625,122.268 84.5455,123.324 C 85.5965,124.125 86.8375,124.422 87.8645,124.216 C 88.6385,122.626 88.1955,121.571 86.8535,120.514 Z" transform=""/><path fill="#64c4ad" stroke="none" d="M 101.317,114.643 C 101.965,113.451 98.8541,112.136 95.4541,112.81 C 93.7651,113.145 92.3391,113.945 91.3301,114.665 C 90.9511,114.805 90.5891,114.984 90.2431,115.194 C 92.0931,112.416 95.8701,106.3 93.9201,105.349 C 91.7801,104.306 89.9651,113.004 89.4491,115.751 C 89.4191,115.775 89.3891,115.799 89.3601,115.823 C 89.4731,115.112 89.9991,111.067 87.7321,108.539 C 85.7771,106.358 83.5641,105.839 83.0571,107.147 C 82.5511,108.451 85.5531,108.843 87.1311,110.443 C 89.1931,112.533 89.3321,115.298 89.3391,115.841 C 89.3231,115.854 89.3091,115.867 89.2931,115.88 C 89.2501,114.843 88.9711,112.531 87.3881,111.723 C 85.0531,110.532 82.0221,111.506 81.4311,112.998 C 81.1371,113.74 82.0261,114.266 83.3931,113.571 C 84.7601,112.877 85.7671,111.769 87.5001,112.698 C 88.5191,113.244 89.0271,115.09 89.2131,115.95 C 87.3291,117.577 86.0201,120.119 85.1981,122.185 C 85.2761,122.218 85.3551,122.249 85.4341,122.281 C 86.0421,121.026 86.8621,119.581 87.9091,118.255 C 90.9851,114.364 93.6451,114.919 95.1881,115.936 C 96.8391,117.025 95.9521,119.261 96.6101,120.366 C 97.2681,121.47 98.1021,121.14 98.4091,120.368 C 98.8511,119.257 98.0781,114.792 94.1851,114.329 C 94.5461,114.265 94.9191,114.218 95.3021,114.191 C 98.3551,113.985 100.689,115.8 101.317,114.643 Z" transform=""/><path fill="#d78334" stroke="none" d="M 138.852,129.521 C 134.477,135.611 121.298,146.504 120.755,146.045 C 119.785,145.225 126.514,128.484 130.889,122.394 C 135.264,116.304 136.059,117.875 139.212,119.942 C 142.094,121.832 143.226,123.431 138.852,129.521 Z" transform=""/><path fill="#f4953f" stroke="none" d="M 139.397,119.837 C 136.079,117.743 135.241,116.152 130.637,122.321 C 130.266,122.817 129.878,123.39 129.481,124.013 C 130.305,127.452 133.501,130.019 137.325,130.019 C 137.811,130.019 138.284,129.97 138.746,129.891 C 138.838,129.773 138.933,129.654 139.018,129.54 C 143.622,123.371 142.431,121.751 139.397,119.837 Z" transform=""/><path fill="#f4953f" stroke="none" d="M 123.937,135.109 C 121.277,140.99 119.184,146.889 119.739,147.355 C 120.068,147.631 125.261,143.564 130.066,139.089 C 127.378,138.953 125.079,137.373 123.937,135.109 Z" transform=""/><path fill="#f4953f" stroke="none" d="M 137.922,130.963 C 137.479,131.041 137.024,131.088 136.558,131.088 C 132.887,131.088 129.82,128.573 129.028,125.204 C 127.521,127.613 125.857,130.877 124.361,134.147 C 125.574,136.525 128.017,138.185 130.874,138.329 C 133.641,135.781 136.286,133.106 137.922,130.963 Z" transform=""/><path fill="#d78334" stroke="none" d="M 139.485,120.514 C 137.9,119.267 137.335,118.224 135.537,119.4 C 135.169,120.664 135.794,122.268 137.177,123.324 C 138.228,124.125 139.469,124.422 140.496,124.216 C 141.27,122.626 140.827,121.571 139.485,120.514 Z" transform=""/><path fill="#64c4ad" stroke="none" d="M 153.949,114.643 C 154.597,113.451 151.486,112.136 148.086,112.81 C 146.397,113.145 144.971,113.945 143.962,114.665 C 143.583,114.805 143.221,114.984 142.875,115.194 C 144.725,112.416 148.502,106.3 146.552,105.349 C 144.412,104.306 142.597,113.004 142.081,115.751 C 142.051,115.775 142.021,115.799 141.992,115.823 C 142.105,115.112 142.631,111.067 140.364,108.539 C 138.409,106.358 136.196,105.839 135.689,107.147 C 135.183,108.451 138.185,108.843 139.763,110.443 C 141.825,112.533 141.964,115.298 141.971,115.841 C 141.955,115.854 141.941,115.867 141.925,115.88 C 141.882,114.843 141.603,112.531 140.02,111.723 C 137.685,110.532 134.654,111.506 134.063,112.998 C 133.769,113.74 134.658,114.266 136.025,113.571 C 137.392,112.877 138.399,111.769 140.132,112.698 C 141.151,113.244 141.659,115.09 141.845,115.95 C 139.961,117.577 138.652,120.119 137.83,122.185 C 137.908,122.218 137.987,122.249 138.066,122.281 C 138.674,121.026 139.494,119.581 140.541,118.255 C 143.617,114.364 146.277,114.919 147.82,115.936 C 149.471,117.025 148.584,119.261 149.242,120.366 C 149.9,121.47 150.734,121.14 151.041,120.368 C 151.483,119.257 150.71,114.792 146.817,114.329 C 147.178,114.265 147.551,114.218 147.934,114.191 C 150.987,113.985 153.321,115.8 153.949,114.643 Z" transform=""/><path fill="#d78334" stroke="none" d="M 191.484,129.521 C 187.109,135.611 173.93,146.504 173.387,146.045 C 172.417,145.225 179.146,128.484 183.521,122.394 S 188.691,117.875 191.844,119.942 C 194.726,121.832 195.858,123.431 191.484,129.521 Z" transform=""/><path fill="#f4953f" stroke="none" d="M 192.029,119.837 C 188.711,117.743 187.873,116.152 183.269,122.321 C 182.898,122.817 182.51,123.39 182.113,124.013 C 182.937,127.452 186.133,130.019 189.957,130.019 C 190.443,130.019 190.916,129.97 191.378,129.891 C 191.47,129.773 191.565,129.654 191.65,129.54 C 196.254,123.371 195.063,121.751 192.029,119.837 Z" transform=""/><path fill="#f4953f" stroke="none" d="M 176.569,135.109 C 173.909,140.99 171.816,146.889 172.371,147.355 C 172.7,147.631 177.893,143.564 182.698,139.089 C 180.01,138.953 177.711,137.373 176.569,135.109 Z" transform=""/><path fill="#f4953f" stroke="none" d="M 190.554,130.963 C 190.111,131.041 189.656,131.088 189.19,131.088 C 185.519,131.088 182.452,128.573 181.66,125.204 C 180.153,127.613 178.489,130.877 176.993,134.147 C 178.206,136.525 180.649,138.185 183.506,138.329 C 186.273,135.781 188.918,133.106 190.554,130.963 Z" transform=""/><path fill="#d78334" stroke="none" d="M 192.117,120.514 C 190.532,119.267 189.967,118.224 188.169,119.4 C 187.801,120.664 188.426,122.268 189.809,123.324 C 190.86,124.125 192.101,124.422 193.128,124.216 C 193.902,122.626 193.459,121.571 192.117,120.514 Z" transform=""/><path fill="#64c4ad" stroke="none" d="M 206.58,114.643 C 207.228,113.451 204.117,112.136 200.717,112.81 C 199.028,113.145 197.602,113.945 196.593,114.665 C 196.214,114.805 195.852,114.984 195.506,115.194 C 197.356,112.416 201.133,106.3 199.183,105.349 C 197.043,104.306 195.228,113.004 194.712,115.751 C 194.682,115.775 194.652,115.799 194.623,115.823 C 194.736,115.112 195.262,111.067 192.995,108.539 C 191.04,106.358 188.827,105.839 188.32,107.147 C 187.814,108.451 190.816,108.843 192.394,110.443 C 194.456,112.533 194.595,115.298 194.602,115.841 C 194.586,115.854 194.572,115.867 194.556,115.88 C 194.513,114.843 194.234,112.531 192.651,111.723 C 190.316,110.532 187.285,111.506 186.694,112.998 C 186.4,113.74 187.289,114.266 188.656,113.571 C 190.023,112.877 191.03,111.769 192.763,112.698 C 193.782,113.244 194.29,115.09 194.476,115.95 C 192.592,117.577 191.283,120.119 190.461,122.185 C 190.539,122.218 190.618,122.249 190.697,122.281 C 191.305,121.026 192.125,119.581 193.172,118.255 C 196.248,114.364 198.908,114.919 200.451,115.936 C 202.102,117.025 201.215,119.261 201.873,120.366 C 202.531,121.47 203.365,121.14 203.672,120.368 C 204.114,119.257 203.341,114.792 199.448,114.329 C 199.809,114.265 200.182,114.218 200.565,114.191 C 203.618,113.985 205.952,115.8 206.58,114.643 Z" transform=""/><path fill="#d78334" stroke="none" d="M 33.5893,76.8893 C 29.2143,82.9793 16.0353,93.8723 15.4923,93.4133 C 14.5223,92.5933 21.2513,75.8523 25.6263,69.7623 S 30.7963,65.2433 33.9493,67.3103 C 36.8313,69.2003 37.9633,70.7993 33.5893,76.8893 Z" transform=""/><path fill="#f4953f" stroke="none" d="M 34.1339,67.2055 C 30.8159,65.1115 29.9779,63.5205 25.3739,69.6895 C 25.0029,70.1855 24.6149,70.7585 24.2179,71.3815 C 25.0419,74.8205 28.2379,77.3875 32.0619,77.3875 C 32.5479,77.3875 33.0209,77.3385 33.4829,77.2595 C 33.5749,77.1415 33.6699,77.0225 33.7549,76.9085 C 38.3589,70.7395 37.1679,69.1195 34.1339,67.2055 Z" transform=""/><path fill="#f4953f" stroke="none" d="M 18.674,82.4773 C 16.014,88.3583 13.921,94.2573 14.476,94.7233 C 14.805,94.9993 19.998,90.9323 24.803,86.4573 C 22.115,86.3213 19.816,84.7413 18.674,82.4773 Z" transform=""/><path fill="#f4953f" stroke="none" d="M 32.6591,78.3318 C 32.2161,78.4098 31.7611,78.4568 31.2951,78.4568 C 27.6241,78.4568 24.5571,75.9418 23.7651,72.5728 C 22.2581,74.9818 20.5941,78.2458 19.0981,81.5158 C 20.3111,83.8938 22.7541,85.5538 25.6111,85.6978 C 28.3781,83.1498 31.0231,80.4748 32.6591,78.3318 Z" transform=""/><path fill="#d78334" stroke="none" d="M 34.222,67.8825 C 32.637,66.6355 32.072,65.5925 30.274,66.7685 C 29.906,68.0325 30.531,69.6365 31.914,70.6925 C 32.965,71.4935 34.206,71.7905 35.233,71.5845 C 36.007,69.9945 35.564,68.9395 34.222,67.8825 Z" transform=""/><path fill="#64c4ad" stroke="none" d="M 48.6855,62.0118 C 49.3335,60.8198 46.2225,59.5048 42.8225,60.1788 C 41.1335,60.5138 39.7075,61.3138 38.6985,62.0338 C 38.3195,62.1738 37.9575,62.3528 37.6115,62.5628 C 39.4615,59.7848 43.2385,53.6688 41.2885,52.7178 C 39.1485,51.6748 37.3335,60.3728 36.8175,63.1198 C 36.7875,63.1438 36.7575,63.1678 36.7285,63.1918 C 36.8415,62.4808 37.3675,58.4358 35.1005,55.9078 C 33.1455,53.7268 30.9325,53.2078 30.4255,54.5158 C 29.9195,55.8198 32.9215,56.2118 34.4995,57.8118 C 36.5615,59.9018 36.7005,62.6668 36.7075,63.2098 C 36.6915,63.2228 36.6775,63.2358 36.6615,63.2488 C 36.6185,62.2118 36.3395,59.8998 34.7565,59.0918 C 32.4215,57.9008 29.3905,58.8748 28.7995,60.3668 C 28.5055,61.1088 29.3945,61.6348 30.7615,60.9398 C 32.1285,60.2458 33.1355,59.1378 34.8685,60.0668 C 35.8875,60.6128 36.3955,62.4588 36.5815,63.3188 C 34.6975,64.9458 33.3885,67.4878 32.5665,69.5538 C 32.6445,69.5868 32.7235,69.6178 32.8025,69.6498 C 33.4105,68.3948 34.2305,66.9498 35.2775,65.6238 C 38.3535,61.7328 41.0135,62.2878 42.5565,63.3048 C 44.2075,64.3938 43.3205,66.6298 43.9785,67.7348 C 44.6365,68.8388 45.4705,68.5088 45.7775,67.7368 C 46.2195,66.6258 45.4465,62.1608 41.5535,61.6978 C 41.9145,61.6338 42.2875,61.5868 42.6705,61.5598 C 45.7235,61.3538 48.0575,63.1688 48.6855,62.0118 Z" transform=""/><path fill="#d78334" stroke="none" d="M 86.2209,76.8893 C 81.8459,82.9793 68.6669,93.8723 68.1239,93.4133 C 67.1539,92.5933 73.8829,75.8523 78.2579,69.7623 S 83.4279,65.2433 86.5809,67.3103 C 89.4629,69.2003 90.5949,70.7993 86.2209,76.8893 Z" transform=""/><path fill="#f4953f" stroke="none" d="M 86.7655,67.2055 C 83.4475,65.1115 82.6095,63.5205 78.0055,69.6895 C 77.6345,70.1855 77.2465,70.7585 76.8495,71.3815 C 77.6735,74.8205 80.8695,77.3875 84.6935,77.3875 C 85.1795,77.3875 85.6525,77.3385 86.1145,77.2595 C 86.2065,77.1415 86.3015,77.0225 86.3865,76.9085 C 90.9905,70.7395 89.7995,69.1195 86.7655,67.2055 Z" transform=""/><path fill="#f4953f" stroke="none" d="M 71.3056,82.4773 C 68.6456,88.3583 66.5526,94.2573 67.1076,94.7233 C 67.4366,94.9993 72.6296,90.9323 77.4346,86.4573 C 74.7466,86.3213 72.4476,84.7413 71.3056,82.4773 Z" transform=""/><path fill="#f4953f" stroke="none" d="M 85.2907,78.3318 C 84.8477,78.4098 84.3927,78.4568 83.9267,78.4568 C 80.2557,78.4568 77.1887,75.9418 76.3967,72.5728 C 74.8897,74.9818 73.2257,78.2458 71.7297,81.5158 C 72.9427,83.8938 75.3857,85.5538 78.2427,85.6978 C 81.0097,83.1498 83.6547,80.4748 85.2907,78.3318 Z" transform=""/><path fill="#d78334" stroke="none" d="M 86.8535,67.8825 C 85.2685,66.6355 84.7035,65.5925 82.9055,66.7685 C 82.5375,68.0325 83.1625,69.6365 84.5455,70.6925 C 85.5965,71.4935 86.8375,71.7905 87.8645,71.5845 C 88.6385,69.9945 88.1955,68.9395 86.8535,67.8825 Z" transform=""/><path fill="#64c4ad" stroke="none" d="M 101.317,62.0118 C 101.965,60.8198 98.8541,59.5048 95.4541,60.1788 C 93.7651,60.5138 92.3391,61.3138 91.3301,62.0338 C 90.9511,62.1738 90.5891,62.3528 90.2431,62.5628 C 92.0931,59.7848 95.8701,53.6688 93.9201,52.7178 C 91.7801,51.6748 89.9651,60.3728 89.4491,63.1198 C 89.4191,63.1438 89.3891,63.1678 89.3601,63.1918 C 89.4731,62.4808 89.9991,58.4358 87.7321,55.9078 C 85.7771,53.7268 83.5641,53.2078 83.0571,54.5158 C 82.5511,55.8198 85.5531,56.2118 87.1311,57.8118 C 89.1931,59.9018 89.3321,62.6668 89.3391,63.2098 C 89.3231,63.2228 89.3091,63.2358 89.2931,63.2488 C 89.2501,62.2118 88.9711,59.8998 87.3881,59.0918 C 85.0531,57.9008 82.0221,58.8748 81.4311,60.3668 C 81.1371,61.1088 82.0261,61.6348 83.3931,60.9398 C 84.7601,60.2458 85.7671,59.1378 87.5001,60.0668 C 88.5191,60.6128 89.0271,62.4588 89.2131,63.3188 C 87.3291,64.9458 86.0201,67.4878 85.1981,69.5538 C 85.2761,69.5868 85.3551,69.6178 85.4341,69.6498 C 86.0421,68.3948 86.8621,66.9498 87.9091,65.6238 C 90.9851,61.7328 93.6451,62.2878 95.1881,63.3048 C 96.8391,64.3938 95.9521,66.6298 96.6101,67.7348 C 97.2681,68.8388 98.1021,68.5088 98.4091,67.7368 C 98.8511,66.6258 98.0781,62.1608 94.1851,61.6978 C 94.5461,61.6338 94.9191,61.5868 95.3021,61.5598 C 98.3551,61.3538 100.689,63.1688 101.317,62.0118 Z" transform=""/><path fill="#d78334" stroke="none" d="M 138.852,76.8893 C 134.477,82.9793 121.298,93.8723 120.755,93.4133 C 119.785,92.5933 126.514,75.8523 130.889,69.7623 C 135.264,63.6723 136.059,65.2433 139.212,67.3103 C 142.094,69.2003 143.226,70.7993 138.852,76.8893 Z" transform=""/><path fill="#f4953f" stroke="none" d="M 139.397,67.2055 C 136.079,65.1115 135.241,63.5205 130.637,69.6895 C 130.266,70.1855 129.878,70.7585 129.481,71.3815 C 130.305,74.8205 133.501,77.3875 137.325,77.3875 C 137.811,77.3875 138.284,77.3385 138.746,77.2595 C 138.838,77.1415 138.933,77.0225 139.018,76.9085 C 143.622,70.7395 142.431,69.1195 139.397,67.2055 Z" transform=""/><path fill="#f4953f" stroke="none" d="M 123.937,82.4773 C 121.277,88.3583 119.184,94.2573 119.739,94.7233 C 120.068,94.9993 125.261,90.9323 130.066,86.4573 C 127.378,86.3213 125.079,84.7413 123.937,82.4773 Z" transform=""/><path fill="#f4953f" stroke="none" d="M 137.922,78.3318 C 137.479,78.4098 137.024,78.4568 136.558,78.4568 C 132.887,78.4568 129.82,75.9418 129.028,72.5728 C 127.521,74.9818 125.857,78.2458 124.361,81.5158 C 125.574,83.8938 128.017,85.5538 130.874,85.6978 C 133.641,83.1498 136.286,80.4748 137.922,78.3318 Z" transform=""/><path fill="#d78334" stroke="none" d="M 139.485,67.8825 C 137.9,66.6355 137.335,65.5925 135.537,66.7685 C 135.169,68.0325 135.794,69.6365 137.177,70.6925 C 138.228,71.4935 139.469,71.7905 140.496,71.5845 C 141.27,69.9945 140.827,68.9395 139.485,67.8825 Z" transform=""/><path fill="#64c4ad" stroke="none" d="M 153.949,62.0118 C 154.597,60.8198 151.486,59.5048 148.086,60.1788 C 146.397,60.5138 144.971,61.3138 143.962,62.0338 C 143.583,62.1738 143.221,62.3528 142.875,62.5628 C 144.725,59.7848 148.502,53.6688 146.552,52.7178 C 144.412,51.6748 142.597,60.3728 142.081,63.1198 C 142.051,63.1438 142.021,63.1678 141.992,63.1918 C 142.105,62.4808 142.631,58.4358 140.364,55.9078 C 138.409,53.7268 136.196,53.2078 135.689,54.5158 C 135.183,55.8198 138.185,56.2118 139.763,57.8118 C 141.825,59.9018 141.964,62.6668 141.971,63.2098 C 141.955,63.2228 141.941,63.2358 141.925,63.2488 C 141.882,62.2118 141.603,59.8998 140.02,59.0918 C 137.685,57.9008 134.654,58.8748 134.063,60.3668 C 133.769,61.1088 134.658,61.6348 136.025,60.9398 C 137.392,60.2458 138.399,59.1378 140.132,60.0668 C 141.151,60.6128 141.659,62.4588 141.845,63.3188 C 139.961,64.9458 138.652,67.4878 137.83,69.5538 C 137.908,69.5868 137.987,69.6178 138.066,69.6498 C 138.674,68.3948 139.494,66.9498 140.541,65.6238 C 143.617,61.7328 146.277,62.2878 147.82,63.3048 C 149.471,64.3938 148.584,66.6298 149.242,67.7348 C 149.9,68.8388 150.734,68.5088 151.041,67.7368 C 151.483,66.6258 150.71,62.1608 146.817,61.6978 C 147.178,61.6338 147.551,61.5868 147.934,61.5598 C 150.987,61.3538 153.321,63.1688 153.949,62.0118 Z" transform=""/><path fill="#d78334" stroke="none" d="M 191.484,76.8893 C 187.109,82.9793 173.93,93.8723 173.387,93.4133 C 172.417,92.5933 179.146,75.8523 183.521,69.7623 S 188.691,65.2433 191.844,67.3103 C 194.726,69.2003 195.858,70.7993 191.484,76.8893 Z" transform=""/><path fill="#f4953f" stroke="none" d="M 192.029,67.2055 C 188.711,65.1115 187.873,63.5205 183.269,69.6895 C 182.898,70.1855 182.51,70.7585 182.113,71.3815 C 182.937,74.8205 186.133,77.3875 189.957,77.3875 C 190.443,77.3875 190.916,77.3385 191.378,77.2595 C 191.47,77.1415 191.565,77.0225 191.65,76.9085 C 196.254,70.7395 195.063,69.1195 192.029,67.2055 Z" transform=""/><path fill="#f4953f" stroke="none" d="M 176.569,82.4773 C 173.909,88.3583 171.816,94.2573 172.371,94.7233 C 172.7,94.9993 177.893,90.9323 182.698,86.4573 C 180.01,86.3213 177.711,84.7413 176.569,82.4773 Z" transform=""/><path fill="#f4953f" stroke="none" d="M 190.554,78.3318 C 190.111,78.4098 189.656,78.4568 189.19,78.4568 C 185.519,78.4568 182.452,75.9418 181.66,72.5728 C 180.153,74.9818 178.489,78.2458 176.993,81.5158 C 178.206,83.8938 180.649,85.5538 183.506,85.6978 C 186.273,83.1498 188.918,80.4748 190.554,78.3318 Z" transform=""/><path fill="#d78334" stroke="none" d="M 192.117,67.8825 C 190.532,66.6355 189.967,65.5925 188.169,66.7685 C 187.801,68.0325 188.426,69.6365 189.809,70.6925 C 190.86,71.4935 192.101,71.7905 193.128,71.5845 C 193.902,69.9945 193.459,68.9395 192.117,67.8825 Z" transform=""/><path fill="#64c4ad" stroke="none" d="M 206.58,62.0118 C 207.228,60.8198 204.117,59.5048 200.717,60.1788 C 199.028,60.5138 197.602,61.3138 196.593,62.0338 C 196.214,62.1738 195.852,62.3528 195.506,62.5628 C 197.356,59.7848 201.133,53.6688 199.183,52.7178 C 197.043,51.6748 195.228,60.3728 194.712,63.1198 C 194.682,63.1438 194.652,63.1678 194.623,63.1918 C 194.736,62.4808 195.262,58.4358 192.995,55.9078 C 191.04,53.7268 188.827,53.2078 188.32,54.5158 C 187.814,55.8198 190.816,56.2118 192.394,57.8118 C 194.456,59.9018 194.595,62.6668 194.602,63.2098 C 194.586,63.2228 194.572,63.2358 194.556,63.2488 C 194.513,62.2118 194.234,59.8998 192.651,59.0918 C 190.316,57.9008 187.285,58.8748 186.694,60.3668 C 186.4,61.1088 187.289,61.6348 188.656,60.9398 C 190.023,60.2458 191.03,59.1378 192.763,60.0668 C 193.782,60.6128 194.29,62.4588 194.476,63.3188 C 192.592,64.9458 191.283,67.4878 190.461,69.5538 C 190.539,69.5868 190.618,69.6178 190.697,69.6498 C 191.305,68.3948 192.125,66.9498 193.172,65.6238 C 196.248,61.7328 198.908,62.2878 200.451,63.3048 C 202.102,64.3938 201.215,66.6298 201.873,67.7348 C 202.531,68.8388 203.365,68.5088 203.672,67.7368 C 204.114,66.6258 203.341,62.1608 199.448,61.6978 C 199.809,61.6338 200.182,61.5868 200.565,61.5598 C 203.618,61.3538 205.952,63.1688 206.58,62.0118 Z" transform=""/><path fill="#d78334" stroke="none" d="M 33.5893,24.2577 C 29.2143,30.3477 16.0353,41.2407 15.4923,40.7817 C 14.5223,39.9617 21.2513,23.2207 25.6263,17.1307 S 30.7963,12.6117 33.9493,14.6787 C 36.8313,16.5687 37.9633,18.1677 33.5893,24.2577 Z" transform=""/><path fill="#f4953f" stroke="none" d="M 34.1339,14.574 C 30.8159,12.48 29.9779,10.889 25.3739,17.058 C 25.0029,17.554 24.6149,18.127 24.2179,18.75 C 25.0419,22.189 28.2379,24.756 32.0619,24.756 C 32.5479,24.756 33.0209,24.707 33.4829,24.628 C 33.5749,24.51 33.6699,24.391 33.7549,24.277 C 38.3589,18.108 37.1679,16.488 34.1339,14.574 Z" transform=""/><path fill="#f4953f" stroke="none" d="M 18.674,29.8458 C 16.014,35.7268 13.921,41.6258 14.476,42.0918 C 14.805,42.3678 19.998,38.3008 24.803,33.8258 C 22.115,33.6898 19.816,32.1098 18.674,29.8458 Z" transform=""/><path fill="#f4953f" stroke="none" d="M 32.6591,25.7003 C 32.2161,25.7783 31.7611,25.8253 31.2951,25.8253 C 27.6241,25.8253 24.5571,23.3103 23.7651,19.9413 C 22.2581,22.3503 20.5941,25.6143 19.0981,28.8843 C 20.3111,31.2623 22.7541,32.9223 25.6111,33.0663 C 28.3781,30.5183 31.0231,27.8433 32.6591,25.7003 Z" transform=""/><path fill="#d78334" stroke="none" d="M 34.222,15.2509 C 32.637,14.0039 32.072,12.9609 30.274,14.1369 C 29.906,15.4009 30.531,17.0049 31.914,18.0609 C 32.965,18.8619 34.206,19.1589 35.233,18.9529 C 36.007,17.3629 35.564,16.3079 34.222,15.2509 Z" transform=""/><path fill="#64c4ad" stroke="none" d="M 48.6855,9.38019 C 49.3335,8.18819 46.2225,6.87319 42.8225,7.54719 C 41.1335,7.88219 39.7075,8.68219 38.6985,9.40219 C 38.3195,9.54219 37.9575,9.72119 37.6115,9.93119 C 39.4615,7.15319 43.2385,1.03719 41.2885,0.0861928 C 39.1485,-0.956807 37.3335,7.74119 36.8175,10.4882 C 36.7875,10.5122 36.7575,10.5362 36.7285,10.5602 C 36.8415,9.84919 37.3675,5.80419 35.1005,3.27619 C 33.1455,1.09519 30.9325,0.576193 30.4255,1.88419 C 29.9195,3.18819 32.9215,3.58019 34.4995,5.18019 C 36.5615,7.27019 36.7005,10.0352 36.7075,10.5782 C 36.6915,10.5912 36.6775,10.6042 36.6615,10.6172 C 36.6185,9.58019 36.3395,7.26819 34.7565,6.46019 C 32.4215,5.26919 29.3905,6.24319 28.7995,7.73519 C 28.5055,8.47719 29.3945,9.00319 30.7615,8.30819 C 32.1285,7.61419 33.1355,6.50619 34.8685,7.43519 C 35.8875,7.98119 36.3955,9.82719 36.5815,10.6872 C 34.6975,12.3142 33.3885,14.8562 32.5665,16.9222 C 32.6445,16.9552 32.7235,16.9862 32.8025,17.0182 C 33.4105,15.7632 34.2305,14.3182 35.2775,12.9922 C 38.3535,9.10119 41.0135,9.65619 42.5565,10.6732 C 44.2075,11.7622 43.3205,13.9982 43.9785,15.1032 C 44.6365,16.2072 45.4705,15.8772 45.7775,15.1052 C 46.2195,13.9942 45.4465,9.52919 41.5535,9.06619 C 41.9145,9.00219 42.2875,8.95519 42.6705,8.92819 C 45.7235,8.72219 48.0575,10.5372 48.6855,9.38019 Z" transform=""/><path fill="#d78334" stroke="none" d="M 86.2209,24.2577 C 81.8459,30.3477 68.6669,41.2407 68.1239,40.7817 C 67.1539,39.9617 73.8829,23.2207 78.2579,17.1307 S 83.4279,12.6117 86.5809,14.6787 C 89.4629,16.5687 90.5949,18.1677 86.2209,24.2577 Z" transform=""/><path fill="#f4953f" stroke="none" d="M 86.7655,14.574 C 83.4475,12.48 82.6095,10.889 78.0055,17.058 C 77.6345,17.554 77.2465,18.127 76.8495,18.75 C 77.6735,22.189 80.8695,24.756 84.6935,24.756 C 85.1795,24.756 85.6525,24.707 86.1145,24.628 C 86.2065,24.51 86.3015,24.391 86.3865,24.277 C 90.9905,18.108 89.7995,16.488 86.7655,14.574 Z" transform=""/><path fill="#f4953f" stroke="none" d="M 71.3056,29.8458 C 68.6456,35.7268 66.5526,41.6258 67.1076,42.0918 C 67.4366,42.3678 72.6296,38.3008 77.4346,33.8258 C 74.7466,33.6898 72.4476,32.1098 71.3056,29.8458 Z" transform=""/><path fill="#f4953f" stroke="none" d="M 85.2907,25.7003 C 84.8477,25.7783 84.3927,25.8253 83.9267,25.8253 C 80.2557,25.8253 77.1887,23.3103 76.3967,19.9413 C 74.8897,22.3503 73.2257,25.6143 71.7297,28.8843 C 72.9427,31.2623 75.3857,32.9223 78.2427,33.0663 C 81.0097,30.5183 83.6547,27.8433 85.2907,25.7003 Z" transform=""/><path fill="#d78334" stroke="none" d="M 86.8535,15.2509 C 85.2685,14.0039 84.7035,12.9609 82.9055,14.1369 C 82.5375,15.4009 83.1625,17.0049 84.5455,18.0609 C 85.5965,18.8619 86.8375,19.1589 87.8645,18.9529 C 88.6385,17.3629 88.1955,16.3079 86.8535,15.2509 Z" transform=""/><path fill="#64c4ad" stroke="none" d="M 101.317,9.38019 C 101.965,8.18819 98.8541,6.87319 95.4541,7.54719 C 93.7651,7.88219 92.3391,8.68219 91.3301,9.40219 C 90.9511,9.54219 90.5891,9.72119 90.2431,9.93119 C 92.0931,7.15319 95.8701,1.03719 93.9201,0.0861928 C 91.7801,-0.956807 89.9651,7.74119 89.4491,10.4882 C 89.4191,10.5122 89.3891,10.5362 89.3601,10.5602 C 89.4731,9.84919 89.9991,5.80419 87.7321,3.27619 C 85.7771,1.09519 83.5641,0.576193 83.0571,1.88419 C 82.5511,3.18819 85.5531,3.58019 87.1311,5.18019 C 89.1931,7.27019 89.3321,10.0352 89.3391,10.5782 C 89.3231,10.5912 89.3091,10.6042 89.2931,10.6172 C 89.2501,9.58019 88.9711,7.26819 87.3881,6.46019 C 85.0531,5.26919 82.0221,6.24319 81.4311,7.73519 C 81.1371,8.47719 82.0261,9.00319 83.3931,8.30819 C 84.7601,7.61419 85.7671,6.50619 87.5001,7.43519 C 88.5191,7.98119 89.0271,9.82719 89.2131,10.6872 C 87.3291,12.3142 86.0201,14.8562 85.1981,16.9222 C 85.2761,16.9552 85.3551,16.9862 85.4341,17.0182 C 86.0421,15.7632 86.8621,14.3182 87.9091,12.9922 C 90.9851,9.10119 93.6451,9.65619 95.1881,10.6732 C 96.8391,11.7622 95.9521,13.9982 96.6101,15.1032 C 97.2681,16.2072 98.1021,15.8772 98.4091,15.1052 C 98.8511,13.9942 98.0781,9.52919 94.1851,9.06619 C 94.5461,9.00219 94.9191,8.95519 95.3021,8.92819 C 98.3551,8.72219 100.689,10.5372 101.317,9.38019 Z" transform=""/><path fill="#d78334" stroke="none" d="M 138.852,24.2577 C 134.477,30.3477 121.298,41.2407 120.755,40.7817 C 119.785,39.9617 126.514,23.2207 130.889,17.1307 C 135.264,11.0407 136.059,12.6117 139.212,14.6787 C 142.094,16.5687 143.226,18.1677 138.852,24.2577 Z" transform=""/><path fill="#f4953f" stroke="none" d="M 139.397,14.574 C 136.079,12.48 135.241,10.889 130.637,17.058 C 130.266,17.554 129.878,18.127 129.481,18.75 C 130.305,22.189 133.501,24.756 137.325,24.756 C 137.811,24.756 138.284,24.707 138.746,24.628 C 138.838,24.51 138.933,24.391 139.018,24.277 C 143.622,18.108 142.431,16.488 139.397,14.574 Z" transform=""/><path fill="#f4953f" stroke="none" d="M 123.937,29.8458 C 121.277,35.7268 119.184,41.6258 119.739,42.0918 C 120.068,42.3678 125.261,38.3008 130.066,33.8258 C 127.378,33.6898 125.079,32.1098 123.937,29.8458 Z" transform=""/><path fill="#f4953f" stroke="none" d="M 137.922,25.7003 C 137.479,25.7783 137.024,25.8253 136.558,25.8253 C 132.887,25.8253 129.82,23.3103 129.028,19.9413 C 127.521,22.3503 125.857,25.6143 124.361,28.8843 C 125.574,31.2623 128.017,32.9223 130.874,33.0663 C 133.641,30.5183 136.286,27.8433 137.922,25.7003 Z" transform=""/><path fill="#d78334" stroke="none" d="M 139.485,15.2509 C 137.9,14.0039 137.335,12.9609 135.537,14.1369 C 135.169,15.4009 135.794,17.0049 137.177,18.0609 C 138.228,18.8619 139.469,19.1589 140.496,18.9529 C 141.27,17.3629 140.827,16.3079 139.485,15.2509 Z" transform=""/><path fill="#64c4ad" stroke="none" d="M 153.949,9.38019 C 154.597,8.18819 151.486,6.87319 148.086,7.54719 C 146.397,7.88219 144.971,8.68219 143.962,9.40219 C 143.583,9.54219 143.221,9.72119 142.875,9.93119 C 144.725,7.15319 148.502,1.03719 146.552,0.0861928 C 144.412,-0.956807 142.597,7.74119 142.081,10.4882 C 142.051,10.5122 142.021,10.5362 141.992,10.5602 C 142.105,9.84919 142.631,5.80419 140.364,3.27619 C 138.409,1.09519 136.196,0.576193 135.689,1.88419 C 135.183,3.18819 138.185,3.58019 139.763,5.18019 C 141.825,7.27019 141.964,10.0352 141.971,10.5782 C 141.955,10.5912 141.941,10.6042 141.925,10.6172 C 141.882,9.58019 141.603,7.26819 140.02,6.46019 C 137.685,5.26919 134.654,6.24319 134.063,7.73519 C 133.769,8.47719 134.658,9.00319 136.025,8.30819 C 137.392,7.61419 138.399,6.50619 140.132,7.43519 C 141.151,7.98119 141.659,9.82719 141.845,10.6872 C 139.961,12.3142 138.652,14.8562 137.83,16.9222 C 137.908,16.9552 137.987,16.9862 138.066,17.0182 C 138.674,15.7632 139.494,14.3182 140.541,12.9922 C 143.617,9.10119 146.277,9.65619 147.82,10.6732 C 149.471,11.7622 148.584,13.9982 149.242,15.1032 C 149.9,16.2072 150.734,15.8772 151.041,15.1052 C 151.483,13.9942 150.71,9.52919 146.817,9.06619 C 147.178,9.00219 147.551,8.95519 147.934,8.92819 C 150.987,8.72219 153.321,10.5372 153.949,9.38019 Z" transform=""/><path fill="#d78334" stroke="none" d="M 191.484,24.2577 C 187.109,30.3477 173.93,41.2407 173.387,40.7817 C 172.417,39.9617 179.146,23.2207 183.521,17.1307 S 188.691,12.6117 191.844,14.6787 C 194.726,16.5687 195.858,18.1677 191.484,24.2577 Z" transform=""/><path fill="#f4953f" stroke="none" d="M 192.029,14.574 C 188.711,12.48 187.873,10.889 183.269,17.058 C 182.898,17.554 182.51,18.127 182.113,18.75 C 182.937,22.189 186.133,24.756 189.957,24.756 C 190.443,24.756 190.916,24.707 191.378,24.628 C 191.47,24.51 191.565,24.391 191.65,24.277 C 196.254,18.108 195.063,16.488 192.029,14.574 Z" transform=""/><path fill="#f4953f" stroke="none" d="M 176.569,29.8458 C 173.909,35.7268 171.816,41.6258 172.371,42.0918 C 172.7,42.3678 177.893,38.3008 182.698,33.8258 C 180.01,33.6898 177.711,32.1098 176.569,29.8458 Z" transform=""/><path fill="#f4953f" stroke="none" d="M 190.554,25.7003 C 190.111,25.7783 189.656,25.8253 189.19,25.8253 C 185.519,25.8253 182.452,23.3103 181.66,19.9413 C 180.153,22.3503 178.489,25.6143 176.993,28.8843 C 178.206,31.2623 180.649,32.9223 183.506,33.0663 C 186.273,30.5183 188.918,27.8433 190.554,25.7003 Z" transform=""/><path fill="#d78334" stroke="none" d="M 192.117,15.2509 C 190.532,14.0039 189.967,12.9609 188.169,14.1369 C 187.801,15.4009 188.426,17.0049 189.809,18.0609 C 190.86,18.8619 192.101,19.1589 193.128,18.9529 C 193.902,17.3629 193.459,16.3079 192.117,15.2509 Z" transform=""/><path fill="#64c4ad" stroke="none" d="M 206.58,9.38019 C 207.228,8.18819 204.117,6.87319 200.717,7.54719 C 199.028,7.88219 197.602,8.68219 196.593,9.40219 C 196.214,9.54219 195.852,9.72119 195.506,9.93119 C 197.356,7.15319 201.133,1.03719 199.183,0.0861928 C 197.043,-0.956807 195.228,7.74119 194.712,10.4882 C 194.682,10.5122 194.652,10.5362 194.623,10.5602 C 194.736,9.84919 195.262,5.80419 192.995,3.27619 C 191.04,1.09519 188.827,0.576193 188.32,1.88419 C 187.814,3.18819 190.816,3.58019 192.394,5.18019 C 194.456,7.27019 194.595,10.0352 194.602,10.5782 C 194.586,10.5912 194.572,10.6042 194.556,10.6172 C 194.513,9.58019 194.234,7.26819 192.651,6.46019 C 190.316,5.26919 187.285,6.24319 186.694,7.73519 C 186.4,8.47719 187.289,9.00319 188.656,8.30819 C 190.023,7.61419 191.03,6.50619 192.763,7.43519 C 193.782,7.98119 194.29,9.82719 194.476,10.6872 C 192.592,12.3142 191.283,14.8562 190.461,16.9222 C 190.539,16.9552 190.618,16.9862 190.697,17.0182 C 191.305,15.7632 192.125,14.3182 193.172,12.9922 C 196.248,9.10119 198.908,9.65619 200.451,10.6732 C 202.102,11.7622 201.215,13.9982 201.873,15.1032 C 202.531,16.2072 203.365,15.8772 203.672,15.1052 C 204.114,13.9942 203.341,9.52919 199.448,9.06619 C 199.809,9.00219 200.182,8.95519 200.565,8.92819 C 203.618,8.72219 205.952,10.5372 206.58,9.38019 Z" transform=""/></svg>