<svg xmlns="http://www.w3.org/2000/svg" version="1.1" width="54" height="54" viewBox="0 0 54 54"><defs><linearGradient id="r-f6f48b84a6ba4850a9fd71104b1efa3b" x1="0" y1="0.0948800277469175" x2="1" y2="0"><stop offset="0%" stop-color="#fdd1b0"/><stop offset="24.44%" stop-color="#f3c2a0"/><stop offset="65.91%" stop-color="#dfa27e"/><stop offset="100%" stop-color="#cc8461"/></linearGradient><linearGradient id="r-fd5ad625181e48f3924de8f6764677fc" x1="0" y1="0" x2="1" y2="0.1321852083460825"><stop offset="0%" stop-color="#fdd1b0"/><stop offset="24.44%" stop-color="#f3c2a0"/><stop offset="65.91%" stop-color="#dfa27e"/><stop offset="100%" stop-color="#cc8461"/></linearGradient><radialGradient id="r-da589a45d8284a37932b4c1204c83d89" fx="0.5" fy="0.5"><stop offset="0%" stop-color="#fee6d3"/><stop offset="100%" stop-color="#fdd1b0"/></radialGradient><radialGradient id="r-6996ee96e1714fdf9b998bdc92ff6d36" fx="0.5" fy="0.5"><stop offset="0%" stop-color="#f69896"/><stop offset="43.76%" stop-color="#f9b2a2"/><stop offset="100%" stop-color="#fdd1b0"/></radialGradient><radialGradient id="r-d79ec9baff694f899310946a388c983f" fx="0.5" fy="0.5"><stop offset="0%" stop-color="#fee6d3"/><stop offset="100%" stop-color="#fdd1b0"/></radialGradient><radialGradient id="r-c3d2577d7c9c496f8a1020b7c484da0e" fx="0.5" fy="0.5"><stop offset="0%" stop-color="#fee6d3"/><stop offset="100%" stop-color="#fdd1b0"/></radialGradient><radialGradient id="r-1297e40f2cd94926b130ca7579b59986" fx="0.5" fy="0.5"><stop offset="0%" stop-color="#fee6d3"/><stop offset="100%" stop-color="#fdd1b0"/></radialGradient><linearGradient id="r-76d97d86c8ad40d1894a5931d37a9ae1" x1="1" y1="0.1642939659035408" x2="0" y2="0"><stop offset="0%" stop-color="#fdd1b0"/><stop offset="35.75%" stop-color="#f3bf9c"/><stop offset="100%" stop-color="#e19a75"/></linearGradient><radialGradient id="r-d2bb62b79bec4cc6b0791ac9c5974bc0" fx="0.5" fy="0.5"><stop offset="0%" stop-color="#fee6d3"/><stop offset="100%" stop-color="#fdd1b0"/></radialGradient><radialGradient id="r-690bc875b9fe4dc284e37bc3b7e0247b" fx="0.5" fy="0.5"><stop offset="0%" stop-color="#fee6d3"/><stop offset="100%" stop-color="#fdd1b0"/></radialGradient><radialGradient id="r-17beb2684e2f4d16a0226f60825c6a3e" fx="0.5" fy="0.5"><stop offset="0%" stop-color="#fee6d3"/><stop offset="100%" stop-color="#fdd1b0"/></radialGradient><radialGradient id="r-2fd23a9f0b534e508b43a02566dbf872" fx="0.5" fy="0.5"><stop offset="0%" stop-color="#fee6d3"/><stop offset="100%" stop-color="#fdd1b0"/></radialGradient><radialGradient id="r-057e66143550459d9f11ddbbd9453e5b" fx="0.5" fy="0.5"><stop offset="0%" stop-color="#fee6d3"/><stop offset="100%" stop-color="#fcc7a3"/></radialGradient></defs><path fill="url(#r-f6f48b84a6ba4850a9fd71104b1efa3b)" stroke="none" d="M 38.0644,51.2685 S 38.5824,51.1965 38.9314,51.4425 C 39.4304,51.7905 40.0184,51.4425 39.5774,50.9055 C 39.1354,50.3675 37.4084,50.1375 36.9904,50.3085 C 36.5714,50.4815 38.0644,51.2685 38.0644,51.2685 Z" opacity="1" fill-opacity="1" style="opacity: 1;fill-opacity: 1" transform=""/><path fill="url(#r-fd5ad625181e48f3924de8f6764677fc)" stroke="none" d="M 37.9164,51.467 S 38.4324,51.394 38.7814,51.639 C 39.2814,51.99 39.8704,51.641 39.4284,51.104 C 38.9874,50.567 37.6514,50.188 37.2314,50.361 C 36.8124,50.534 37.9164,51.467 37.9164,51.467 Z" opacity="1" fill-opacity="1" style="opacity: 1;fill-opacity: 1" transform=""/><path fill="url(#r-da589a45d8284a37932b4c1204c83d89)" stroke="none" d="M 36.8607,49.3792 S 37.0327,50.3562 38.0817,50.4872 C 38.7247,50.5662 39.2597,51.5132 38.8087,51.8642 C 38.4067,52.1752 38.4107,51.9062 37.9367,51.5122 C 37.6327,51.2542 37.2067,51.3342 36.7727,51.3772 C 36.2767,51.4262 35.9047,50.9192 35.4307,50.9572 C 34.9597,50.9892 34.2927,51.4822 34.0907,51.3022 C 33.9047,51.1372 33.8257,50.4052 35.4637,49.3912 C 35.6187,49.2952 35.6037,48.9312 35.7867,48.8132 C 36.2157,48.5392 36.8607,49.3792 36.8607,49.3792 Z" opacity="1" fill-opacity="1" style="opacity: 1;fill-opacity: 1" transform=""/><path fill="#d14e3f" stroke="none" d="M 27.6193,37.9896 S 32.9423,39.9896 35.3273,43.2606 C 37.3863,46.0856 37.3583,48.2976 36.8983,49.5806 L 36.5433,49.1866 L 36.1393,49.4896 L 35.8863,49.0406 L 35.4633,49.3926 S 35.9843,46.1066 32.7723,43.1536 C 29.1353,39.8186 26.8583,40.7836 26.8583,40.7836 L 27.6193,37.9896 Z" transform=""/><path fill="#d14e3f" stroke="none" d="M 23.6592,38.5409 S 18.0082,37.9109 14.3992,39.7469 C 11.2842,41.3339 10.3082,43.3169 10.1342,44.6689 L 10.6292,44.4789 L 10.8532,44.9309 L 11.2822,44.6469 L 11.5002,45.1509 S 12.5222,41.9879 16.7252,40.8119 C 21.4782,39.4839 23.0722,41.3769 23.0722,41.3769 L 23.6592,38.5409 Z" transform=""/><path fill="#d14e3f" stroke="none" d="M 21.9398,9.74115 S 22.4298,7.27415 20.9888,6.24415 C 19.6318,5.27315 18.6468,3.42315 19.3808,2.86315 C 20.1158,2.30515 20.7488,1.79815 21.3238,2.36915 C 21.8778,2.91215 21.7758,3.80315 22.8348,4.57315 C 23.1218,4.78515 23.5198,5.03615 24.1798,5.34415 C 24.7388,5.60515 24.9638,6.41815 24.5278,7.05815 C 23.8838,8.00315 24.0078,9.46715 23.2768,10.3902 C 22.0138,11.9822 21.9398,9.74115 21.9398,9.74115 Z" transform=""/><path fill="#d14e3f" stroke="none" d="M 25.722,20.3235 S 21.892,17.7115 21.691,12.7965 C 21.666,12.1395 21.749,10.8235 21.837,10.0255 C 21.853,9.88354 21.385,9.43454 21.116,9.02954 C 21.246,9.06754 21.704,9.28454 21.989,9.47054 C 22.125,9.33654 22.201,9.15154 22.336,8.98154 L 22.578,9.49054 L 22.906,8.94654 L 23.218,9.45754 L 23.489,9.02054 S 23.657,9.15454 23.773,9.30554 C 23.909,9.23854 24.078,9.27254 24.499,9.05454 C 23.975,9.64354 23.733,9.90954 23.705,10.0485 C 23.541,10.8395 23.043,12.2405 23.36,13.3345 C 23.659,14.3785 23.83,17.3265 27.018,18.2575 C 28.014,18.5485 25.722,20.3235 25.722,20.3235 Z" transform=""/><path fill="#d14e3f" stroke="none" d="M 19.558,3.99981 S 18.855,3.45681 18.999,3.05381 C 19.147,2.64781 20.193,2.61181 20.355,3.28781" transform=""/><path fill="#d14e3f" stroke="none" d="M 19.8439,3.69514 S 19.1389,3.15314 19.2849,2.74914 C 19.4309,2.34414 20.4799,2.30814 20.6409,2.98214" transform=""/><path fill="#d14e3f" stroke="none" d="M 20.2366,3.40795 S 19.5326,2.86495 19.6776,2.46195 C 19.8236,2.05595 20.8726,2.01795 21.0346,2.69795" transform=""/><path fill="#d14e3f" stroke="none" d="M 20.5981,3.23813 S 19.8931,2.69713 20.0371,2.29013 C 20.1851,1.88713 21.2341,1.85013 21.3951,2.52513" transform=""/><path fill="#d14e3f" stroke="none" d="M 39.2344,16.4621 S 40.6014,14.3511 42.3524,14.6131 C 44.0014,14.8591 45.9994,14.2191 45.8584,13.3071 C 45.7184,12.3931 45.6184,11.5891 44.8094,11.5971 C 44.0334,11.6031 43.4844,12.3131 42.1904,12.1321 C 41.8374,12.0821 41.3764,11.9871 40.6884,11.7491 C 40.1044,11.5471 39.3764,11.9741 39.2444,12.7361 C 39.0494,13.8641 37.9404,14.8291 37.8224,15.9991 C 37.6214,18.0201 39.2344,16.4621 39.2344,16.4621 Z" transform=""/><path fill="#d14e3f" stroke="none" d="M 29.1539,21.428 S 33.7219,22.219 37.2849,18.831 C 37.7629,18.374 38.6189,17.372 39.1109,16.738 C 39.1999,16.625 39.8479,16.631 40.3209,16.526 C 40.2029,16.461 39.7229,16.3 39.3869,16.234 C 39.3839,16.044 39.4589,15.858 39.4789,15.644 L 38.9519,15.837 L 39.0939,15.22 L 38.5139,15.37 L 38.6249,14.865 S 38.4099,14.848 38.2209,14.873 C 38.1709,14.731 38.0249,14.638 37.8749,14.19 C 37.8399,14.976 37.8319,15.335 37.7529,15.454 C 37.3199,16.136 36.7039,17.488 35.7159,18.056 C 34.7739,18.595 32.5979,20.593 29.6609,19.043 C 28.7429,18.559 29.1539,21.428 29.1539,21.428 Z" transform=""/><path fill="#d14e3f" stroke="none" d="M 44.9401,13.9985 S 45.8231,14.0985 45.9991,13.7085 C 46.1771,13.3165 45.4511,12.5605 44.8631,12.9335" transform=""/><path fill="#d14e3f" stroke="none" d="M 44.9482,13.5814 S 45.8312,13.6844 46.0082,13.2934 C 46.1852,12.8994 45.4572,12.1464 44.8722,12.5184" transform=""/><path fill="#d14e3f" stroke="none" d="M 44.8665,13.1013 S 45.7485,13.2043 45.9255,12.8113 C 46.1035,12.4193 45.3755,11.6633 44.7885,12.0373" transform=""/><path fill="#d14e3f" stroke="none" d="M 44.7254,12.7279 S 45.6084,12.8289 45.7844,12.4379 C 45.9614,12.0459 45.2344,11.2899 44.6464,11.6629" transform=""/><path fill="#d14e3f" stroke="none" d="M 23.6399,26.5194 S 22.0969,19.2824 25.4319,17.5494 C 27.8609,16.2874 32.0199,17.4334 31.8579,21.2094 C 31.6859,25.2124 26.4579,27.6744 26.4579,27.6744 L 23.6399,26.5194 Z" transform=""/><path fill="url(#r-6996ee96e1714fdf9b998bdc92ff6d36)" stroke="none" d="M 31.5139,19.3202 C 30.5879,17.3102 28.0029,16.6612 26.0639,17.2882 C 25.8809,17.6362 25.7759,18.0202 25.7759,18.4282 C 25.7759,19.8962 27.0989,21.0862 28.7309,21.0862 C 30.0159,21.0852 31.1039,20.3512 31.5139,19.3202 Z" opacity="1" fill-opacity="1" style="opacity: 1;fill-opacity: 1" transform=""/><path fill="url(#r-d79ec9baff694f899310946a388c983f)" stroke="none" d="M 31.085,31.6757 C 31.207,30.5497 30.556,29.3247 30.08,28.9747 C 28.563,27.8567 29.001,25.8177 30.212,24.7637 C 31.566,23.5867 33.249,23.8027 34.034,24.0397 C 36.809,24.8707 37.958,28.6497 37.265,31.2257 C 36.58,33.7817 34.413,36.3867 32.054,34.9107 C 30.908,34.1947 30.893,33.4327 31.085,31.6757 Z" opacity="1" fill-opacity="1" style="opacity: 1;fill-opacity: 1" transform=""/><path fill="#e2bda1" stroke="none" d="M 30.2297,28.3855 C 29.9087,27.7885 30.0157,25.5505 32.3427,24.9925 C 34.8537,24.3925 37.0797,27.1315 37.1707,28.9585 C 37.2917,31.3935 36.0137,34.0265 34.1407,34.7365 C 33.4427,34.9995 34.6527,32.7785 32.9097,32.7965 C 31.5197,32.8145 31.5317,31.3895 32.0277,30.4255 C 32.5237,29.4625 30.7707,29.4055 30.2297,28.3855 Z" transform=""/><path fill="#fcc7a3" stroke="none" d="M 34.2834,29.9563 C 33.4794,29.2013 32.4464,29.4723 31.9044,29.6983 C 32.1084,29.8863 32.1934,30.1063 32.0274,30.4263 C 31.5314,31.3903 31.5194,32.8153 32.9084,32.7973 C 33.5724,32.7903 33.8074,33.1083 33.8844,33.4883 C 34.5984,32.5213 35.1534,30.7733 34.2834,29.9563 Z" transform=""/><path fill="#db9e75" stroke="none" d="M 33.9781,30.3253 C 33.3691,29.7543 32.6191,29.8243 32.0981,29.9843 C 32.1331,30.1103 32.1171,30.2543 32.0271,30.4263 C 32.0161,30.4503 32.0031,30.4753 31.9921,30.5033 C 31.9851,30.5783 31.9631,30.6623 31.9151,30.7563 C 31.8781,30.8293 31.8431,30.9033 31.8131,30.9793 C 31.5721,31.8573 31.7701,32.8133 32.9091,32.7973 C 33.4301,32.7923 33.6891,32.9873 33.8101,33.2583 C 34.3561,32.3463 34.6901,30.9963 33.9781,30.3253 Z" transform=""/><path fill="url(#r-c3d2577d7c9c496f8a1020b7c484da0e)" stroke="none" d="M 15.4724,35.9112 C 14.7984,35.0042 14.7384,33.6172 14.9734,33.0742 C 15.7164,31.3432 14.3104,29.8052 12.7324,29.5082 C 10.9664,29.1772 9.62638,30.2152 9.06738,30.8162 C 7.09338,32.9352 8.01338,36.7742 9.91238,38.6492 C 11.7974,40.5092 14.9824,41.6602 16.2724,39.1932 C 16.8984,37.9972 16.5264,37.3332 15.4724,35.9112 Z" opacity="1" fill-opacity="1" style="opacity: 1;fill-opacity: 1" transform=""/><path fill="#e2bda1" stroke="none" d="M 14.5465,32.6447 C 14.5205,31.9627 13.2975,30.0867 11.0075,30.7817 C 8.5375,31.5317 8.0025,35.0207 8.8485,36.6437 C 9.9745,38.8067 12.4085,40.4317 14.3835,40.0987 C 15.1175,39.9717 12.9495,38.6667 14.4665,37.8017 C 15.6725,37.1147 14.9425,35.8917 14.0265,35.3127 C 13.1095,34.7317 14.5935,33.7937 14.5465,32.6447 Z" transform=""/><path fill="#fcc7a3" stroke="none" d="M 11.8444,36.0448 C 12.1554,34.9858 13.1834,34.6988 13.7644,34.6208 C 13.6824,34.8868 13.7234,35.1178 14.0254,35.3128 C 14.9414,35.8908 15.6724,37.1148 14.4664,37.8018 C 13.8874,38.1318 13.8454,38.5248 13.9714,38.8918 C 12.8664,38.4188 11.5044,37.1898 11.8444,36.0448 Z" transform=""/><path fill="#db9e75" stroke="none" d="M 12.2927,36.2096 C 12.5297,35.4106 13.2127,35.0916 13.7427,34.9646 C 13.7747,35.0916 13.8627,35.2066 14.0257,35.3126 C 14.0497,35.3246 14.0737,35.3396 14.0947,35.3576 C 14.1387,35.4216 14.1997,35.4826 14.2907,35.5386 C 14.3577,35.5826 14.4257,35.6306 14.4917,35.6796 C 15.1407,36.3156 15.4547,37.2396 14.4657,37.8016 C 14.0107,38.0616 13.8887,38.3596 13.9187,38.6566 C 12.9867,38.1456 12.0177,37.1496 12.2927,36.2096 Z" transform=""/><path fill="url(#r-1297e40f2cd94926b130ca7579b59986)" stroke="none" d="M 32.9586,31.6514 C 34.3656,36.8354 31.3026,42.1834 26.1176,43.5894 C 20.9306,44.9954 15.5866,41.9334 14.1786,36.7464 C 12.7726,31.5594 15.8346,26.2174 21.0206,24.8094 C 26.2076,23.4024 31.5506,26.4654 32.9586,31.6514 Z" opacity="1" fill-opacity="1" style="opacity: 1;fill-opacity: 1" transform=""/><path fill="#d14e3f" stroke="none" d="M 21.5009,27.1294 C 23.8879,24.4044 27.7729,25.4284 27.7729,25.4284 C 25.7409,24.4524 23.3659,24.1734 21.0209,24.8104 C 18.6769,25.4464 16.7689,26.8864 15.5079,28.7544 C 15.5089,28.7544 18.2149,25.9324 21.5009,27.1294 Z" transform=""/><path fill="#eeb490" stroke="none" d="M 25.3137,38.4841 C 25.3787,38.7221 25.1487,38.9881 24.8027,39.0841 C 24.4557,39.1761 24.1227,39.0611 24.0597,38.8271 C 23.9947,38.5911 24.2247,38.3241 24.5697,38.2291 C 24.9177,38.1361 25.2517,38.2511 25.3137,38.4841 Z" transform=""/><path fill="#fee6d3" stroke="none" d="M 24.1631,42.3224 C 22.4651,43.2854 19.9311,42.8574 20.1061,41.5604 C 20.2811,40.2604 22.5151,40.0154 23.5661,40.4134 C 24.0831,40.6094 24.6641,40.4574 24.6641,40.4574 S 25.2451,40.3294 25.6161,39.9144 C 26.3691,39.0794 28.4671,38.2764 29.2181,39.3484 C 29.9681,40.4244 27.9081,41.9664 25.9601,41.8844 C 25.5531,41.8694 25.2741,41.8944 25.0361,41.9574 C 25.0351,41.9584 24.5141,42.1214 24.1631,42.3224 Z" transform=""/><path fill="#eeb490" stroke="none" d="M 24.0906,42.024 C 22.3946,42.988 19.8566,42.561 20.0326,41.262 C 20.2076,39.963 22.4426,39.717 23.4926,40.117 C 24.0116,40.314 24.5896,40.161 24.5896,40.161 S 25.1736,40.032 25.5446,39.619 C 26.2956,38.782 28.3926,37.98 29.1456,39.053 C 29.8946,40.127 27.8356,41.668 25.8866,41.589 C 25.4816,41.573 25.2006,41.598 24.9636,41.661 C 24.9636,41.662 24.4426,41.825 24.0906,42.024 Z" transform=""/><path fill="#7a3440" stroke="none" d="M 24.12,42.1414 C 22.422,43.1054 19.886,42.6784 20.061,41.3774 C 20.238,40.0794 22.472,39.8334 23.521,40.2324 C 24.038,40.4304 24.619,40.2784 24.619,40.2784 S 25.201,40.1494 25.572,39.7374 C 26.323,38.9004 28.423,38.0964 29.173,39.1704 C 29.925,40.2444 27.864,41.7844 25.916,41.7064 C 25.509,41.6904 25.229,41.7144 24.992,41.7784 C 24.991,41.7774 24.471,41.9424 24.12,42.1414 Z" transform=""/><path fill="#f16253" stroke="none" d="M 24.8898,41.4172 C 22.9378,40.9762 21.8158,42.0842 21.8158,42.0842 C 22.1808,42.3992 23.1958,42.1182 24.0838,42.0562 C 24.1598,42.0172 24.3348,41.9632 24.4108,41.9212 C 24.8508,41.6692 25.2918,41.6082 26.0648,41.6392 C 26.1838,41.6442 26.3018,41.6422 26.4228,41.6362 C 27.2808,41.1772 28.0648,40.5342 28.0648,40.5342 C 26.8558,39.9802 24.8898,41.4172 24.8898,41.4172 Z" transform=""/><path fill="#fffdfd" stroke="none" d="M 26.8589,39.5179 C 26.9229,39.3789 26.9209,39.1049 26.8859,38.8899 C 26.3509,39.0969 25.8629,39.4139 25.5719,39.7369 C 25.2009,40.1499 24.6189,40.2779 24.6189,40.2779 S 24.0379,40.4299 23.5209,40.2329 C 23.1089,40.0779 22.5189,40.0209 21.9399,40.0859 C 21.9799,40.3259 22.0539,40.5659 22.1989,40.6469 C 23.0359,41.1119 26.4409,40.3909 26.8589,39.5179 Z" transform=""/><path fill="#fffdfd" stroke="none" d="M 28.3211,40.0193 C 28.3391,40.3613 27.9051,40.6503 26.7961,41.1333 C 26.0931,41.4393 24.1381,41.9523 23.2681,41.9893 C 22.3561,42.0243 21.5031,42.2243 21.2141,41.8253 C 20.8801,41.3713 20.4871,41.4853 20.3781,41.7603 C 20.3601,41.9893 20.4981,42.2093 20.7371,42.4053 C 21.5761,42.8053 23.0241,42.7643 24.1211,42.1413 C 24.4711,41.9433 24.9921,41.7783 24.9921,41.7783 C 25.2301,41.7133 25.5101,41.6893 25.9161,41.7063 C 27.0571,41.7523 28.2381,41.2413 28.8671,40.5933 C 28.8951,40.5653 28.9211,40.5363 28.9451,40.5073 C 29.0881,40.2133 29.1331,39.9343 29.0661,39.6993 C 28.9361,39.3603 28.2831,39.2783 28.3211,40.0193 Z" transform=""/><path fill="#d14e3f" stroke="none" d="M 24.9229,27.8767 S 26.7669,27.2637 27.8519,29.0107 C 27.8519,29.0107 27.3919,28.6807 27.1799,28.6587 C 27.1799,28.6587 27.6209,28.9927 27.6289,29.6197 C 27.6289,29.6197 27.3169,29.1197 26.9579,28.9207 C 26.9579,28.9207 27.3859,29.4197 27.3089,30.1457 C 27.3089,30.1457 26.4839,28.1507 24.9229,27.8767 Z" transform=""/><path fill="#d14e3f" stroke="none" d="M 24.9229,27.7281 S 26.7669,27.1131 27.8519,28.8641 C 27.8519,28.8641 27.3919,28.5341 27.1799,28.5101 C 27.1799,28.5101 27.6209,28.8461 27.6289,29.4721 C 27.6289,29.4721 27.3169,28.9721 26.9579,28.7731 C 26.9579,28.7731 27.3859,29.2731 27.3089,29.9971 C 27.3089,29.9971 26.4839,28.0041 24.9229,27.7281 Z" transform=""/><path fill="#d14e3f" stroke="none" d="M 20.2279,29.5162 S 18.3289,29.1082 17.4409,30.9642 C 17.4409,30.9642 17.8619,30.5882 18.0699,30.5412 C 18.0699,30.5412 17.6679,30.9222 17.7289,31.5452 C 17.7289,31.5452 17.9849,31.0132 18.3199,30.7772 C 18.3199,30.7772 17.9509,31.3222 18.1049,32.0312 C 18.1049,32.0312 18.7069,29.9612 20.2279,29.5162 Z" transform=""/><path fill="#d14e3f" stroke="none" d="M 20.2117,29.3688 S 18.3127,28.9608 17.4237,30.8168 C 17.4237,30.8168 17.8457,30.4408 18.0547,30.3928 C 18.0547,30.3928 17.6517,30.7748 17.7137,31.3978 C 17.7137,31.3978 17.9687,30.8658 18.3047,30.6298 C 18.3047,30.6298 17.9337,31.1748 18.0897,31.8858 C 18.0887,31.8858 18.6897,29.8148 20.2117,29.3688 Z" transform=""/><path fill="none" stroke="#d14e3f" d="M 28.1307,18.601 S 26.4817,16.888 25.9747,13.846 C 25.5667,11.391 26.9567,9.05102 28.9637,8.06402 C 33.1187,6.02602 36.6257,11.304 32.4137,13.752" style="stroke-linecap: round;stroke-linejoin: round;stroke-width: 2.54820251971994px" stroke-width="2.54820251971994" stroke-linecap="round" stroke-linejoin="round" transform=""/><path fill="url(#r-76d97d86c8ad40d1894a5931d37a9ae1)" stroke="none" d="M 11.8925,47.3027 S 12.8305,46.1737 12.3025,45.2597 C 12.0095,44.7537 11.3915,44.9027 11.1145,44.4617 C 10.8095,43.9757 10.2495,43.7717 9.91247,43.8567 C 9.21247,44.0317 8.59247,45.1577 8.59247,45.1577 L 11.8925,47.3027 Z" opacity="1" fill-opacity="1" style="opacity: 1;fill-opacity: 1" transform=""/><path fill="url(#r-d2bb62b79bec4cc6b0791ac9c5974bc0)" stroke="none" d="M 8.99496,46.3387 C 8.72296,46.5157 8.11396,46.2877 8.14196,45.7477 C 8.16196,45.3837 9.47596,43.8167 10.093,44.2177 C 10.405,44.4217 9.93596,45.7167 8.99496,46.3387 Z" opacity="1" fill-opacity="1" style="opacity: 1;fill-opacity: 1" transform=""/><path fill="url(#r-690bc875b9fe4dc284e37bc3b7e0247b)" stroke="none" d="M 9.74041,46.9912 C 9.47041,47.1682 8.86041,46.9392 8.88841,46.4002 C 8.90741,46.0362 10.2194,44.4692 10.8384,44.8712 C 11.1524,45.0742 10.6824,46.3692 9.74041,46.9912 Z" opacity="1" fill-opacity="1" style="opacity: 1;fill-opacity: 1" transform=""/><path fill="url(#r-17beb2684e2f4d16a0226f60825c6a3e)" stroke="none" d="M 10.5489,47.4931 C 10.2789,47.6731 9.66691,47.4441 9.69591,46.9041 C 9.71591,46.5421 11.0289,44.9711 11.6469,45.3751 C 11.9589,45.5781 11.4909,46.8741 10.5489,47.4931 Z" opacity="1" fill-opacity="1" style="opacity: 1;fill-opacity: 1" transform=""/><path fill="url(#r-2fd23a9f0b534e508b43a02566dbf872)" stroke="none" d="M 11.3568,47.8915 C 11.0858,48.0705 10.4748,47.8425 10.5028,47.3025 C 10.5218,46.9385 11.6578,45.5275 12.2758,45.9295 C 12.5878,46.1325 12.2978,47.2715 11.3568,47.8915 Z" opacity="1" fill-opacity="1" style="opacity: 1;fill-opacity: 1" transform=""/><path fill="url(#r-057e66143550459d9f11ddbbd9453e5b)" stroke="none" d="M 9.43261,44.7561 C 9.19861,44.5291 9.28961,43.8841 9.82161,43.7931 C 10.1806,43.7331 11.5886,44.5811 11.3306,45.2731 C 11.1996,45.6211 10.2426,45.5391 9.43261,44.7561 Z" opacity="1" fill-opacity="1" style="opacity: 1;fill-opacity: 1" transform=""/><ellipse cx="19.264558841539056" cy="36.578597020415344" rx="0.6636626922607609" ry="1.1019422877142455" fill="#304454" stroke="none" transform="rotate(-12.9203 19.264559161299967 36.578596045508114)" r="NaN"/><ellipse cx="27.568771320091507" cy="34.86106578631511" rx="0.6636626922607609" ry="1.1019422877142455" fill="#304454" stroke="none" transform="rotate(-12.9203 27.5687712683182 34.86106446845322)" r="NaN"/></svg>