<svg xmlns="http://www.w3.org/2000/svg" version="1.1" width="54" height="54" viewBox="0 0 54 54"><defs/><path fill="#d1d3d4" stroke="none" d="M 40.4847,16.2314 C 40.3087,16.3024 40.2237,16.5034 40.2947,16.6794 C 40.3667,16.8564 40.5677,16.9404 40.7437,16.8694 C 40.7707,16.8584 43.4777,15.7844 45.1957,16.7044 C 45.8827,17.0714 46.3267,17.7264 46.5187,18.6524 L 46.9617,20.9174 C 47.4587,23.5554 47.6857,24.7594 48.8667,25.4164 C 49.0337,25.5084 49.2427,25.4484 49.3357,25.2824 C 49.4267,25.1154 49.3677,24.9064 49.2027,24.8134 C 48.3047,24.3154 48.1107,23.2824 47.6407,20.7904 L 47.1947,18.5124 C 46.9597,17.3764 46.3967,16.5624 45.5207,16.0954 C 43.5157,15.0244 40.6077,16.1814 40.4847,16.2314 Z" transform=""/><path fill="#304454" stroke="none" d="M 49.1159,27.5052 C 48.5949,26.7242 48.1469,25.3822 49.1859,24.6972 C 49.9099,24.2202 50.9689,24.4132 51.5519,25.6502 C 52.3079,27.2572 51.4379,28.0742 51.9999,29.1292 C 51.9999,29.1292 49.9589,28.7712 49.1159,27.5052 Z" transform=""/><path fill="#304454" stroke="none" d="M 47.4308,19.7242 L 47.1938,18.5132 C 46.9588,17.3772 46.3968,16.5632 45.5198,16.0962 C 45.5048,16.0882 45.4878,16.0812 45.4748,16.0732 C 45.5558,16.2352 45.6648,16.3762 45.8078,16.4762 C 46.5108,16.9682 46.8628,18.0242 46.8628,18.7282 C 46.8628,19.0802 47.0748,19.4702 47.4308,19.7242 Z" transform=""/><path fill="#d78334" stroke="none" d="M 28.7525,49.3152 L 30.9685,48.7782 L 31.1695,46.6962 L 30.0275,45.6892 L 29.0895,46.5622 Z" transform=""/><path fill="#d1d3d4" stroke="none" d="M 34.6537,31.3571 S 32.2437,33.2021 33.5457,36.4831 C 34.2097,38.1571 33.0537,41.1521 32.4377,41.4701 C 30.4987,42.4671 29.4957,44.3751 29.3567,45.6221 C 29.3567,45.6221 33.9917,48.6841 35.2657,48.9791 C 37.0667,49.3951 37.4147,46.0251 35.7617,42.4391 C 35.1657,41.1431 35.7977,39.5311 36.6757,38.8411 C 38.6157,37.3171 38.9927,33.9281 37.8837,32.1271" transform=""/><path fill="#304454" stroke="none" d="M 35.2544,38.567 C 34.8214,38.903 35.1124,40.065 35.6104,40.628 C 35.7784,39.889 36.1874,39.224 36.6754,38.841 C 37.6714,38.059 38.2534,36.785 38.4354,35.485 L 37.5744,34.557 L 36.4504,34.698 S 35.0434,35.401 35.2534,36.316 C 35.4654,37.229 35.8874,38.074 35.2544,38.567 Z" transform=""/><path fill="#f3b37c" stroke="none" d="M 28.1475,49.0466 S 27.9465,44.0786 31.5735,44.0106 C 34.3425,43.9586 35.9985,47.1616 36.1375,49.5156 L 30.4985,49.5836 L 29.5575,46.4936 L 28.7515,49.3146 L 28.1475,49.0466 Z" transform=""/><path fill="#d78334" stroke="none" d="M 11.1647,49.3152 L 13.3807,48.7782 L 13.5807,46.6962 L 12.4397,45.6892 L 11.4997,46.5622 Z" transform=""/><path fill="#d1d3d4" stroke="none" d="M 17.0653,31.3571 S 14.6553,33.2021 15.9573,36.4831 C 16.6213,38.1571 15.4643,41.1521 14.8483,41.4701 C 12.9093,42.4671 11.9063,44.3751 11.7683,45.6221 C 11.7683,45.6221 16.4033,48.6841 17.6763,48.9791 C 19.4763,49.3951 19.8253,46.0251 18.1733,42.4391 C 17.5773,41.1431 18.2083,39.5311 19.0863,38.8411 C 21.0263,37.3171 21.4023,33.9281 20.2953,32.1271" transform=""/><path fill="#304454" stroke="none" d="M 14.0494,45.1478 S 15.2104,42.2438 16.3724,42.6798 C 17.5334,43.1148 16.8074,44.1308 17.9694,44.1308 C 19.1304,44.1308 19.4214,45.1478 19.4214,45.1478 L 16.7524,46.3768 L 14.0494,45.1478 Z" transform=""/><path fill="#f3b37c" stroke="none" d="M 10.5603,49.0466 S 10.3593,44.0786 13.9843,44.0106 C 16.7543,43.9586 18.4103,47.1616 18.5493,49.5156 L 12.9103,49.5836 L 11.9703,46.4936 L 11.1653,49.3146 L 10.5603,49.0466 Z" transform=""/><path fill="#d78334" stroke="none" d="M 15.4147,50.1747 L 17.7367,49.6117 L 17.9477,47.4307 L 16.7517,46.3767 L 15.7667,47.2897 Z" transform=""/><path fill="#efefef" stroke="none" d="M 18.9851,15.5345 S 24.0781,17.6635 28.9931,17.6005 C 34.4801,17.5305 39.2631,12.1135 42.9371,14.9545 C 46.3841,17.6205 46.4711,35.9125 31.7581,38.0345 C 17.6791,40.0665 10.2801,28.8575 14.8521,22.7365 C 19.2381,16.8655 18.9851,15.5345 18.9851,15.5345 Z" transform=""/><path fill="#d1d3d4" stroke="none" d="M 44.5659,18.4482 C 43.0399,16.5652 41.6379,16.7192 41.6379,16.7192 L 42.8449,20.8772 S 44.0149,21.2412 44.8379,21.1492 C 44.8179,20.1772 44.7229,19.2652 44.5659,18.4482 Z" transform=""/><path fill="#d1d3d4" stroke="none" d="M 26.2486,34.2751 C 25.4056,32.0941 24.4196,32.3051 24.4196,32.3051 L 23.3246,37.6001 C 24.1706,37.8361 25.0646,38.0141 26.0056,38.1301 C 26.3806,37.1521 26.7696,35.6211 26.2486,34.2751 Z" transform=""/><path fill="#efefef" stroke="none" d="M 21.5987,31.3571 S 19.0737,33.2901 20.4357,36.7281 C 21.1327,38.4821 19.9217,41.6221 19.2757,41.9531 C 17.2437,42.9991 16.1927,44.9991 16.0477,46.3051 C 16.0477,46.3051 20.9047,49.5141 22.2387,49.8231 C 24.1257,50.2581 24.4897,46.7261 22.7597,42.9701 C 22.1337,41.6131 22.7957,39.9221 23.7147,39.2001 C 25.7477,37.6031 26.1437,34.0511 24.9827,32.1641" transform=""/><path fill="#f3b37c" stroke="none" d="M 14.7813,49.8925 S 14.5703,44.6865 18.3693,44.6165 C 21.2723,44.5625 23.0083,47.9175 23.1533,50.3865 L 17.2433,50.4565 L 16.2583,47.2195 L 15.4143,50.1745 L 14.7813,49.8925 Z" transform=""/><path fill="#304454" stroke="none" d="M 22.3787,33.8524 C 21.9777,33.0924 20.8947,33.3834 20.1577,33.6964 C 19.9587,34.5104 19.9607,35.5274 20.4357,36.7274 C 20.7567,37.5334 20.6737,38.6294 20.4277,39.6124 C 21.6057,39.5514 21.8687,38.8524 21.7467,38.5664 C 21.5357,38.0734 21.3237,37.0174 21.7467,36.4544 C 22.1687,35.8934 23.0127,35.0484 22.3787,33.8524 Z" transform=""/><path fill="#d78334" stroke="none" d="M 33.0037,50.1747 L 35.3247,49.6117 L 35.5357,47.4307 L 34.3397,46.3767 L 33.3547,47.2897 Z" transform=""/><path fill="#efefef" stroke="none" d="M 42.2197,16.6867 S 45.3147,18.7277 45.8777,22.8777 C 46.4397,27.0287 42.5707,32.1647 42.5707,32.1647 C 43.7327,34.0517 43.3367,37.6037 41.3047,39.2007 C 40.3847,39.9227 39.7237,41.6137 40.3477,42.9707 C 42.0777,46.7267 41.7137,50.2587 39.8257,49.8237 C 38.4917,49.5147 33.6357,46.3057 33.6357,46.3057 C 33.7807,44.9997 34.8317,42.9987 36.8627,41.9537 C 37.5087,41.6227 38.7197,38.4827 38.0237,36.7287 C 36.6607,33.2907 39.1857,31.3577 39.1857,31.3577 S 34.2697,29.2107 34.6907,24.7077 C 35.1137,20.2037 39.4047,15.7017 42.2197,16.6867 Z" transform=""/><path fill="#f3b37c" stroke="none" d="M 32.3704,49.8925 S 32.1574,44.6865 35.9584,44.6165 C 38.8604,44.5625 40.5974,47.9175 40.7424,50.3865 L 34.8334,50.4565 L 33.8474,47.2195 L 33.0034,50.1745 L 32.3704,49.8925 Z" transform=""/><path fill="#304454" stroke="none" d="M 39.9671,33.8524 C 39.5661,33.0924 38.4831,33.3834 37.7451,33.6964 C 37.5471,34.5104 37.5491,35.5274 38.0241,36.7274 C 38.3441,37.5334 38.2621,38.6294 38.0161,39.6124 C 39.1931,39.5514 39.4571,38.8524 39.3351,38.5664 C 39.1241,38.0734 38.9121,37.0174 39.3351,36.4544 C 39.7561,35.8934 40.6001,35.0484 39.9671,33.8524 Z" transform=""/><path fill="#304454" stroke="none" d="M 26.8154,19.2935 C 27.0184,18.5635 28.3634,17.1835 29.2074,18.0975 C 30.3254,19.3085 29.1384,19.9275 29.4884,20.5605 C 29.8404,21.1935 30.7544,20.7005 31.1074,21.4045 C 31.4594,22.1075 30.2634,23.3035 28.8564,22.6005 C 27.4484,21.8965 26.4644,20.5605 26.8154,19.2935 Z" transform=""/><path fill="#304454" stroke="none" d="M 45.9306,23.5848 C 45.6296,22.9428 45.2076,22.3728 44.6816,22.4558 C 43.3456,22.6678 43.2046,24.0038 43.8376,25.0588 C 44.4706,26.1138 43.7666,26.8178 43.1346,26.8178 C 42.5006,26.8178 40.9806,26.5478 40.6006,27.4508 C 40.0386,28.7878 41.9376,30.1248 43.3456,28.9288 C 43.8966,28.4598 44.4146,28.2178 44.8766,28.1268 C 45.4836,26.7198 45.9636,25.1108 45.9306,23.5848 Z" transform=""/><path fill="#304454" stroke="none" d="M 38.5821,43.1152 C 38.2921,44.2762 40.0121,43.9792 40.5061,44.8022 C 40.8191,45.3232 41.0411,46.3242 41.4241,46.7222 C 41.3131,45.6112 40.9621,44.3052 40.3481,42.9702 C 40.2911,42.8482 40.2501,42.7242 40.2131,42.5972 C 39.4751,42.5012 38.7221,42.5542 38.5821,43.1152 Z" transform=""/><path fill="#304454" stroke="none" d="M 37.6308,14.7835 C 35.0318,15.7775 32.1268,17.5615 28.9938,17.6015 C 28.6048,17.6055 28.2158,17.5965 27.8288,17.5765 C 27.8398,17.5955 27.8518,17.6155 27.8628,17.6335 C 26.6138,17.5055 24.7098,18.9505 24.6308,20.1145 C 24.4948,22.1795 25.7448,23.3655 24.2898,24.4785 C 22.8348,25.5905 25.2318,28.1575 26.0878,27.1305 C 26.3358,26.8325 26.7378,26.7385 27.1778,26.6985 C 26.9458,27.9095 28.6988,29.5145 29.4068,28.6655 C 29.9698,27.9895 31.3158,28.3435 32.1438,28.0665 C 33.4268,27.6395 33.4268,26.6125 33.9418,25.3295 C 34.4548,24.0455 35.7378,24.6455 36.2498,23.8745 C 36.7638,23.1045 35.6518,21.9075 34.5398,22.0775 C 33.5658,22.2265 33.5098,20.6075 32.1918,19.6275 C 34.0788,18.6375 34.8738,16.7715 36.5208,16.8985 C 37.8768,17.0015 38.2658,15.7145 37.6308,14.7835 Z" transform=""/><ellipse cx="17.719607926264008" cy="19.631117963272793" rx="5.726234419990068" ry="6.019508315397349" fill="#d1d3d4" stroke="none" r="NaN" transform=""/><ellipse cx="17.42448619714146" cy="25.650625385549496" rx="5.726234419990068" ry="6.019508315397349" fill="#d1d3d4" stroke="none" transform="rotate(7.9381 17.424486423391155 25.650625880628866)" r="NaN"/><path fill="#304454" stroke="none" d="M 14.1658,30.1089 C 14.7768,31.6099 15.7988,33.0609 17.1908,34.3129 C 18.2028,34.2119 18.5768,32.7229 18.0188,32.1639 C 17.3848,31.5319 16.7518,31.9539 16.2598,31.3209 C 15.7668,30.6869 16.4708,29.5619 15.4848,29.2109 C 14.9538,29.0199 14.4858,29.5649 14.1658,30.1089 Z" transform=""/><path fill="#304454" stroke="none" d="M 19.4675,13.2358 S 19.6475,7.75778 23.4245,7.62278 C 27.2015,7.48978 30.0775,10.9638 28.2805,12.9678 C 26.4815,14.9718 20.7285,14.8388 20.7285,14.8388 L 19.4675,13.2358 Z" transform=""/><path fill="#304454" stroke="none" d="M 9.63979,10.1546 S 4.95679,6.10055 2.94279,8.10055 C 0.92879,10.1036 2.39079,14.3416 4.97779,14.8576 C 7.56379,15.3766 10.3488,12.0716 10.3488,12.0716 L 9.63979,10.1546 Z" transform=""/><ellipse cx="14.151647934633981" cy="16.524632822635276" rx="8.592432238130137" ry="9.527088749333593" fill="#efefef" stroke="none" r="NaN" transform=""/><path fill="#304454" stroke="none" d="M 20.5858,10.2149 C 19.0118,8.24193 16.7138,6.99693 14.1518,6.99693 C 13.6208,6.99693 13.1048,7.05293 12.5998,7.15593 C 12.1478,7.81293 11.8488,8.60493 11.9608,9.15493 C 12.2388,10.4969 13.2628,10.4529 14.3008,9.91993 C 15.3368,9.38593 16.8648,9.47793 17.7888,10.6819 C 18.3098,11.3549 20.5968,11.6219 20.5858,10.2149 Z" transform=""/><path fill="#f4dbc5" stroke="none" d="M 17.5687,9.56246 C 17.0967,9.24646 16.8417,9.01446 16.7477,8.44646 C 16.7477,8.44646 17.6787,7.31446 17.6887,6.32646 C 17.7027,5.12146 16.9697,3.98246 17.2837,3.65046 C 17.5837,3.33146 19.2657,3.62646 19.7897,5.93646 C 20.2107,7.80246 18.9917,9.87346 18.9917,9.87346 S 18.2117,9.99146 17.5687,9.56246 Z" transform=""/><path fill="#f4dbc5" stroke="none" d="M 10.8794,9.56246 C 11.3514,9.24646 11.6074,9.01446 11.7004,8.44646 C 11.7004,8.44646 10.7704,7.31446 10.7584,6.32646 C 10.7454,5.12146 11.4784,3.98246 11.1654,3.65046 C 10.8654,3.33146 9.18143,3.62646 8.65943,5.93646 C 8.23843,7.80246 9.45643,9.87346 9.45643,9.87346 S 10.2364,9.99146 10.8794,9.56246 Z" transform=""/><ellipse cx="10.135151736707813" cy="19.707516355451464" rx="0.6666436025854588" ry="0.9266469300263678" fill="#304454" stroke="none" transform="rotate(1.5587 10.135151430610597 19.70751664722837)" r="NaN"/><ellipse cx="18.091129810303347" cy="19.51343888842859" rx="0.6666436025854588" ry="0.9266469300263678" fill="#304454" stroke="none" transform="rotate(1.5587 18.09113002597661 19.513438334091198)" r="NaN"/><path fill="#f4dbc5" stroke="none" d="M 21.25,25.9587 C 21.25,28.8997 18.113,31.2817 14.243,31.2817 C 10.375,31.2817 7.23899,28.8997 7.23899,25.9587 S 10.375,20.6337 14.243,20.6337 C 18.113,20.6337 21.25,23.0177 21.25,25.9587 Z" transform=""/><ellipse cx="8.114888594375874" cy="25.034503903437447" rx="1.6444286278193987" ry="1.24949466362598" fill="#f4dbc5" stroke="none" transform="rotate(24.8096 8.114888609096992 25.03450425162197)" r="NaN"/><ellipse cx="8.601008433920326" cy="25.683896333092143" rx="1.3961316113296207" ry="1.0609614451498706" fill="#c75e72" stroke="none" style="opacity: 0.7" opacity="0.7" transform="rotate(40.5186 8.60100857438343 25.683896448595235)" r="NaN"/><ellipse cx="20.376940636737565" cy="24.776349730590233" rx="1.6444286278193987" ry="1.24949466362598" fill="#f4dbc5" stroke="none" transform="rotate(-14.7325 20.376941269592184 24.776349289068083)" r="NaN"/><ellipse cx="19.961058860326567" cy="25.21071396308531" rx="1.3961316113296207" ry="1.0609614451498706" fill="#c75e72" stroke="none" style="opacity: 0.7" opacity="0.7" transform="rotate(-35.0728 19.961059170012533 25.210715037517947)" r="NaN"/><path fill="#304454" stroke="none" d="M 37.8237,36.0551 C 37.3907,34.9261 36.5497,34.1441 36.0337,34.9271 C 35.7537,35.3501 35.3427,35.4621 34.8987,35.4891 C 35.2617,33.7091 33.6867,31.1971 32.8887,32.4061 C 32.2537,33.3691 30.9497,32.7461 30.0947,33.0961 C 28.7687,33.6371 28.6567,35.1621 28.0057,37.0311 C 27.7177,37.8571 27.3197,38.1251 26.9137,38.2631 C 28.4897,38.4001 30.1847,38.3611 31.9917,38.0991 C 34.2787,37.7701 36.2087,37.0481 37.8237,36.0551 Z" transform=""/></svg>