<svg xmlns="http://www.w3.org/2000/svg" version="1.1" width="54" height="54" viewBox="0 0 54 54"><defs/><path fill="#304454" stroke="#304454" d="M 39.6174,29.7474 L 40.8244,30.0854 L 41.8644,30.6474 L 42.7564,31.4004 L 43.6564,32.1554 L 44.4094,33.1024 L 45.0454,34.2054 L 45.4604,33.9654 L 44.7964,32.8154 L 44.0094,31.8274 L 43.0674,31.0344 L 42.1194,30.2364 L 41.0274,29.6454 L 39.7454,29.2864 L 39.6174,29.7474 Z" style="stroke-miterlimit: 10" stroke-miterlimit="10" transform=""/><path fill="#304454" stroke="#304454" d="M 37.6783,39.4437 L 38.3483,40.5027 L 38.7443,41.6167 L 38.9023,42.7737 L 39.0653,43.9367 L 38.9903,45.1447 L 38.7253,46.3897 L 39.1933,46.4887 L 39.4693,45.1907 L 39.5473,43.9297 L 39.3793,42.7097 L 39.2093,41.4827 L 38.7933,40.3117 L 38.0823,39.1867 L 37.6783,39.4437 Z" style="stroke-miterlimit: 10" stroke-miterlimit="10" transform=""/><path fill="#304454" stroke="#304454" d="M 31.5252,44.9545 L 32.1952,46.0145 L 32.5912,47.1285 L 32.7492,48.2845 L 32.9122,49.4475 L 32.8372,50.6555 L 32.5712,51.9005 L 33.0402,51.9995 L 33.3162,50.7015 L 33.3942,49.4405 L 33.2262,48.2205 L 33.0552,46.9935 L 32.6402,45.8235 L 31.9292,44.6985 L 31.5252,44.9545 Z" style="stroke-miterlimit: 10" stroke-miterlimit="10" transform=""/><path fill="#2d353a" stroke="none" d="M 31.512,9.8808 C 31.927,9.6718 32.339,9.4868 32.753,9.3268 C 33.18,9.1628 33.613,9.0248 34.044,8.9148 C 36.256,8.3508 38.357,8.5708 40.001,9.7218 L 40.001,9.7218 L 40.001,9.7218 L 40.001,9.7218 C 40.92,10.3608 41.611,11.2338 42.089,12.2738 C 42.204,12.5278 42.309,12.7898 42.398,13.0618 C 42.853,14.4328 42.976,16.0358 42.774,17.7438 C 42.989,18.2408 43.172,18.7538 43.329,19.2828 C 43.501,19.8488 43.64,20.4268 43.744,21.0168 C 44.286,24.0398 43.995,27.3658 42.842,30.6088 C 42.806,31.0598 42.751,31.5158 42.676,31.9718 C 42.602,32.4388 42.509,32.9038 42.402,33.3618 C 41.837,35.7418 40.811,38.0858 39.301,40.2458 L 39.301,40.2458 L 39.301,40.2458 C 36.365,44.4518 32.159,47.1808 27.728,48.1918 C 23.291,49.2038 18.635,48.4898 14.801,45.8178 L 14.801,45.8178 L 14.801,45.8178 L 14.801,45.8178 L 14.801,45.8178 C 10.973,43.1438 8.69902,39.0168 8.12002,34.5018 C 7.54302,29.9958 8.65102,25.1058 11.589,20.8988 L 11.589,20.8988 L 11.589,20.8988 L 11.589,20.8988 L 11.589,20.8988 C 12.638,19.3938 13.847,18.0848 15.173,16.9698 C 15.385,16.7898 15.605,16.6158 15.828,16.4438 C 16.958,15.5708 18.163,14.8398 19.418,14.2488 C 19.926,13.8258 20.446,13.4338 20.98,13.0708 C 21.519,12.7028 22.069,12.3638 22.633,12.0558 C 25.485,10.4908 28.572,9.7318 31.512,9.8808 L 31.512,9.8808 Z" transform=""/><path fill="#d14e3f" stroke="none" d="M 9.73193,21.3582 C 15.8919,12.5342 27.3789,9.91521 35.3939,15.5062 C 43.4039,21.1022 44.9049,32.7902 38.7449,41.6172 C 32.5849,50.4402 21.0919,53.0632 13.0829,47.4692 C 5.06993,41.8752 3.56893,30.1872 9.73193,21.3582 Z" transform=""/><path fill="#ffffff" stroke="none" d="M 30.349,12.1118 C 31.151,10.9598 32.733,10.6778 33.883,11.4808 C 34.939,12.2198 35.264,13.6168 34.685,14.7308 C 33.191,13.8888 31.592,13.3278 29.951,13.0228 C 30.021,12.7038 30.152,12.3918 30.349,12.1118 M 30.349,12.1118 L 30.349,12.1118 Z" transform=""/><path fill="#ffffff" stroke="none" d="M 37.1319,16.4376 C 37.9779,15.5096 39.3999,15.3326 40.4569,16.0716 C 41.6049,16.8726 41.8889,18.4546 41.0859,19.6046 C 40.8869,19.8886 40.6399,20.1196 40.3669,20.2926 C 39.5169,18.8576 38.4349,17.5536 37.1319,16.4376 M 37.1319,16.4376 L 37.1319,16.4376 Z" transform=""/><path fill="#e6e7e8" stroke="none" d="M 30.8925,11.5442 C 31.7485,10.8922 32.9555,10.8352 33.8825,11.4812 C 34.2225,11.7152 34.4845,12.0172 34.6635,12.3602 C 33.4575,11.8892 32.1865,11.6202 30.8925,11.5442 L 30.8925,11.5442 Z" transform=""/><path fill="#e6e7e8" stroke="none" d="M 39.3636,15.6396 C 39.7466,15.6926 40.1216,15.8346 40.4566,16.0716 C 41.3836,16.7186 41.7466,17.8716 41.4296,18.8966 C 40.9106,17.7126 40.2206,16.6116 39.3636,15.6396 M 39.3636,15.6396 L 39.3636,15.6396 Z" transform=""/><path fill="#304454" stroke="none" d="M 37.8319,9.20346 L 38.2309,8.01446 L 38.3479,6.84146 L 38.2299,5.68046 L 38.1099,4.51346 L 37.7529,3.35746 L 37.1959,2.21046 L 37.6289,2.00046 L 38.2059,3.19846 L 38.5819,4.40546 L 38.7069,5.63146 L 38.8329,6.85946 L 38.7069,8.10146 L 38.2829,9.35946 L 37.8319,9.20346 Z" transform=""/><path fill="#304454" stroke="none" d="M 41.2339,11.5822 L 42.2109,10.7982 L 43.2739,10.2792 L 44.4049,9.99219 L 45.5429,9.69919 L 46.7509,9.63819 L 48.0179,9.76219 L 48.0639,9.28619 L 46.7429,9.15719 L 45.4819,9.22119 L 44.2889,9.52519 L 43.0879,9.83219 L 41.9719,10.3772 L 40.9339,11.2102 L 41.2339,11.5822 Z" transform=""/><path fill="#7a3440" stroke="none" d="M 17.465,32.2446 C 21.379,24.1616 28.471,18.0496 35.754,15.6816 C 35.634,15.5916 35.517,15.5006 35.394,15.4146 C 27.379,9.8236 15.892,12.4436 9.73197,21.2666 C 3.56797,30.0956 5.06897,41.7836 13.083,47.3776 C 13.775,47.8616 14.496,48.2796 15.235,48.6416 C 13.987,43.9216 14.625,38.1086 17.465,32.2446 Z" transform=""/><path fill="#2d353a" stroke="none" d="M 13.3307,23.2929 C 14.1817,22.2799 15.6757,21.9069 16.6707,22.4579 C 17.6657,23.0099 17.7847,24.2759 16.9327,25.2889 C 16.0817,26.3019 14.5847,26.6769 13.5907,26.1269 C 12.5947,25.5759 12.4807,24.3049 13.3307,23.2929 Z" transform=""/><path fill="#2d353a" stroke="none" d="M 29.1669,32.2424 C 29.4639,30.9524 28.7839,29.8744 27.6459,29.8364 C 26.5099,29.7994 25.3469,30.8134 25.0499,32.1034 C 24.7529,33.3934 25.4359,34.4654 26.5729,34.5044 C 27.7109,34.5424 28.8699,33.5324 29.1669,32.2424 Z" transform=""/><path fill="#2d353a" stroke="none" d="M 25.732,43.3577 C 26.058,41.9427 25.311,40.7597 24.062,40.7167 C 22.816,40.6757 21.539,41.7897 21.213,43.2057 C 20.887,44.6207 21.636,45.7977 22.884,45.8407 C 24.134,45.8817 25.406,44.7727 25.732,43.3577 Z" transform=""/><path fill="#2d353a" stroke="none" d="M 39.0783,27.1361 C 38.6333,25.7541 37.3853,25.1201 36.2913,25.7231 C 35.1993,26.3261 34.6743,27.9361 35.1193,29.3191 C 35.5633,30.7021 36.8103,31.3291 37.9043,30.7251 C 38.9983,30.1231 39.5233,28.5181 39.0783,27.1361 Z" transform=""/><path fill="#2d353a" stroke="none" d="M 23.3913,13.9865 C 24.6793,13.6835 26.1003,14.2795 26.5673,15.3155 C 27.0343,16.3535 26.3723,17.4395 25.0843,17.7415 C 23.7953,18.0445 22.3713,17.4495 21.9043,16.4135 C 21.4373,15.3755 22.1043,14.2895 23.3913,13.9865 Z" transform=""/><path fill="#2d353a" stroke="none" d="M 7.59532,35.9678 C 7.31632,34.6738 7.93632,33.2648 8.98132,32.8158 C 10.0273,32.3678 11.1013,33.0488 11.3803,34.3428 C 11.6603,35.6368 11.0393,37.0498 9.99532,37.4988 C 8.94932,37.9468 7.87432,37.2598 7.59532,35.9678 Z" transform=""/></svg>