<svg xmlns="http://www.w3.org/2000/svg" version="1.1" width="64" height="64" viewBox="0 0 64 64"><defs/><path fill="#ccaa4f" stroke="none" d="M 24.9413,49.1277 S 16.5553,54.4197 11.9903,52.1307 C 9.95328,51.1067 11.4443,48.6977 14.1703,49.1207 C 17.1723,49.5857 20.3183,44.7277 20.3183,44.7277 L 24.9413,49.1277 Z" style="opacity: 0.8" opacity="0.8" transform=""/><path fill="#e2e2e2" stroke="none" d="M 52.0659,43.6734 C 51.7909,43.2604 51.3219,43.0274 50.8399,43.0414 C 50.7129,42.7934 50.4129,42.6864 50.1559,42.8034 C 50.0749,42.8404 50.0079,42.8964 49.9569,42.9624 C 49.5759,42.7504 49.1019,42.7164 48.6749,42.9114 C 48.4049,43.0344 48.1929,43.2314 48.0489,43.4664 C 47.8949,43.4744 47.7409,43.5094 47.5929,43.5774 C 47.1419,43.7834 46.8729,44.2224 46.8589,44.6864 C 46.8459,44.6914 46.8349,44.6964 46.8219,44.7014 C 46.5589,44.8214 46.4419,45.1324 46.5619,45.3964 C 46.5689,45.4124 46.5769,45.4274 46.5849,45.4414 C 46.4369,45.7944 46.4309,46.2054 46.6029,46.5814 C 46.6999,46.7934 46.8409,46.9694 47.0119,47.1054 C 46.9299,47.2454 46.9149,47.4214 46.9879,47.5794 C 46.9889,47.5824 46.9909,47.5844 46.9919,47.5884 C 46.7409,47.8074 46.6509,48.1734 46.7959,48.4924 C 46.9739,48.8814 47.4329,49.0524 47.8219,48.8754 C 47.9299,48.8264 48.0199,48.7554 48.0919,48.6704 C 48.2409,48.7964 48.4559,48.8314 48.6449,48.7454 C 48.6729,48.7324 48.6989,48.7174 48.7229,48.7004 C 49.0859,48.9404 49.5589,48.9934 49.9829,48.8004 C 50.1459,48.7264 50.2859,48.6224 50.4009,48.4984 C 50.5399,48.5084 50.6839,48.4844 50.8199,48.4224 C 51.0089,48.3364 51.1519,48.1894 51.2359,48.0174 C 51.4279,48.0304 51.6259,47.9974 51.8129,47.9114 C 52.2599,47.7074 52.5219,47.2624 52.5139,46.8004 C 52.6639,46.7004 52.7239,46.5034 52.6459,46.3334 C 52.6379,46.3164 52.6279,46.2994 52.6179,46.2834 C 52.9359,46.0164 53.0519,45.5614 52.8709,45.1644 C 52.8279,45.0704 52.7719,44.9874 52.7069,44.9164 C 52.7889,44.6904 52.7869,44.4324 52.6789,44.1964 C 52.5589,43.9284 52.3289,43.7444 52.0659,43.6734 L 52.0659,43.6734 M 49.3209,45.9194 C 49.3239,45.9204 49.3269,45.9204 49.3299,45.9204 C 49.3269,45.9274 49.3249,45.9334 49.3219,45.9404 C 49.3219,45.9324 49.3209,45.9264 49.3209,45.9194 Z" transform=""/><path fill="#eec65e" stroke="none" d="M 34.4307,15.2831 S 37.5487,12.6711 40.4577,12.6221 C 42.3637,12.5891 44.9377,12.7491 47.3877,11.9701 C 54.0157,9.86807 47.4857,18.6961 40.1497,23.7541 C 35.0597,27.2681 28.2547,30.4121 28.1467,26.4521 C 28.0577,23.0991 34.4307,15.2831 34.4307,15.2831 Z" transform=""/><path fill="#f7a996" stroke="none" d="M 32.9346,21.4893 S 35.6986,17.6193 38.9436,16.8693 C 42.7596,15.9883 46.9916,13.4863 47.9956,14.0553 C 49.2186,14.7533 45.9086,18.2313 44.5696,19.5843 C 42.5806,21.5883 38.1266,24.6723 35.2146,25.7173 C 33.1456,26.4633 31.5786,26.8383 30.6896,24.9693 C 29.8006,23.0983 32.9346,21.4893 32.9346,21.4893 Z" transform=""/><path fill="#ccaa4f" stroke="none" d="M 33.2025,21.1602 C 32.1775,20.6292 31.3375,20.3142 31.3375,20.3142 S 30.4725,20.2822 29.5135,20.6832 C 29.9085,22.0762 31.0365,23.5542 31.0365,23.5542 L 33.2025,21.1602 Z" transform=""/><path fill="#eec65e" stroke="none" d="M 27.8955,36.8184 S 30.3095,38.4984 33.8855,38.2814 C 40.4495,37.8814 44.7575,38.6704 47.5555,43.3334 C 51.3055,49.5834 46.9305,61.5004 34.5475,58.4634 C 16.3945,54.0104 18.0305,33.6414 18.0305,33.6414 L 27.8955,36.8184 Z" transform=""/><path fill="#ccaa4f" stroke="none" d="M 19.7723,45.8582 C 24.6293,45.7152 29.3463,45.4862 33.8853,38.2812 C 32.8363,38.2142 33.6123,36.1032 32.4073,36.1302 C 28.9243,36.2062 26.6513,34.4552 26.6513,34.4552 L 16.9883,29.8762 C 16.9883,29.8752 17.6503,37.3162 19.7723,45.8582 Z" style="opacity: 0.5" opacity="0.5" transform=""/><path fill="#eec65e" stroke="none" d="M 20.9593,16.55 S 20.8783,12.683 19.5473,10.238 C 18.6733,8.63203 17.3903,6.56303 16.6573,4.14703 C 14.6693,-2.39797 13.0793,7.32103 13.8423,15.886 C 14.3733,21.832 15.8953,29.024 18.0253,27.194 C 19.8273,25.647 20.9593,16.55 20.9593,16.55 Z" transform=""/><path fill="#f7a996" stroke="none" d="M 18.7963,22.7188 S 19.6363,17.7118 18.3893,14.0758 C 16.9233,9.80077 16.1933,4.15777 15.3343,3.50677 C 14.2883,2.71377 13.9623,8.02577 13.8653,10.1428 C 13.7173,13.2848 14.2203,19.4908 15.1193,22.9758 C 15.7583,25.4528 16.3533,27.2158 17.9143,26.9858 C 19.4783,26.7548 18.7963,22.7188 18.7963,22.7188 Z" transform=""/><path fill="#eec65e" stroke="none" d="M 20.0152,21.5305 S 22.9912,19.7785 25.9612,19.9915 C 28.0312,20.1395 30.4542,20.5155 32.5142,22.5075 C 35.3182,25.2195 35.9822,29.6925 36.0172,31.9825 C 36.1072,38.0305 32.0682,41.8595 25.8022,41.7135 C 19.6262,41.5695 14.6502,37.5325 15.0642,31.5055 C 15.2992,28.0685 16.4082,23.6365 20.0152,21.5305 Z" transform=""/><path fill="#eec65e" stroke="none" d="M 24.4598,20.2373 S 25.4888,18.3563 27.4218,18.0703 C 27.4218,18.0703 24.9738,19.4183 24.9228,20.6173 L 24.4598,20.2373 Z" transform=""/><ellipse cx="21.01861554384356" cy="32.6197160076982" rx="0.809259995372558" ry="1.1252210738127697" fill="#304454" stroke="none" transform="rotate(1.5587 21.01861547482487 32.619714127892124)" r="NaN"/><ellipse cx="30.8864668550918" cy="32.6197160076982" rx="0.809259995372558" ry="1.1252210738127697" fill="#304454" stroke="none" transform="rotate(1.5587 30.88646710049812 32.619714127892124)" r="NaN"/><ellipse cx="26.7539949115846" cy="37.31604518564841" rx="1.414956133884426" ry="1.0752667531107598" fill="#cda245" stroke="none" transform="rotate(187.0483 26.753995920424366 37.31604470288981)" r="NaN"/><path fill="#eec65e" stroke="none" d="M 25.0468,20.0237 S 26.7218,18.6847 28.6158,19.1677 C 28.6158,19.1677 25.8358,19.4667 25.3278,20.5527 L 25.0468,20.0237 Z" transform=""/><path fill="#ccaa4f" stroke="none" d="M 32.0004,57.4982 C 32.0114,57.5002 32.0214,57.4992 32.0324,57.5012 C 32.9684,57.6462 33.9174,57.2742 34.7814,56.6942 C 32.3994,48.8182 37.3214,45.3602 41.1624,46.8942 C 44.4234,48.1972 46.2914,52.1922 43.7284,56.5992 C 43.5014,56.9892 43.1704,57.2712 42.7854,57.4902 L 42.8044,57.5092 S 41.9484,58.0472 40.6384,58.7062 C 38.9534,58.9882 37.0234,58.9252 34.8394,58.3892 C 33.8294,58.1422 32.8914,57.8382 32.0004,57.4982 Z" style="opacity: 0.5" opacity="0.5" transform=""/><path fill="#eec65e" stroke="none" d="M 33.5803,58.4161 C 34.5153,58.5611 35.4653,58.1891 36.3283,57.6091 C 33.9473,49.7331 38.8693,46.2751 42.7103,47.8091 C 45.9713,49.1111 47.8393,53.1061 45.2763,57.5141 C 45.0493,57.9041 44.7173,58.1861 44.3323,58.4051 L 44.3513,58.4231 S 41.7393,60.0711 38.6373,61.1301 C 38.5553,61.2181 38.4523,61.2581 38.3283,61.2321 C 35.9523,62.0041 33.3333,62.3951 31.4003,61.4261 C 29.3643,60.4021 30.8543,57.9941 33.5803,58.4161 Z" transform=""/><path fill="#ccaa4f" stroke="none" d="M 25.4365,53.1478 C 26.9225,51.8638 27.9945,50.2158 27.9945,50.2158 L 31.3585,53.3328 S 31.1485,55.5408 29.1085,56.4508 C 27.6765,55.4678 26.4685,54.3458 25.4365,53.1478 Z" style="opacity: 0.5" opacity="0.5" transform=""/><path fill="#eec65e" stroke="none" d="M 31.7669,53.2121 S 22.8249,58.8301 17.9629,56.4101 C 15.7949,55.3281 17.3859,52.7741 20.2899,53.2181 C 23.4899,53.7081 26.8469,48.5561 26.8469,48.5561 L 31.7669,53.2121 Z" transform=""/><path fill="none" stroke="#cda245" d="M 33.4235,37.0263 S 35.6735,37.1283 36.8075,37.7603" style="stroke-miterlimit: 10" stroke-miterlimit="10" transform=""/><path fill="none" stroke="#cda245" d="M 33.6427,35.9542 S 35.7767,35.2312 37.0597,35.4092" style="stroke-miterlimit: 10" stroke-miterlimit="10" transform=""/><path fill="none" stroke="#cda245" d="M 19.6892,38.1397 S 17.3672,38.2417 16.1982,38.8737" style="stroke-miterlimit: 10;stroke-width: 0.6342325442128913px" stroke-width="0.6342325442128913" stroke-miterlimit="10" transform=""/><path fill="none" stroke="#cda245" d="M 19.4632,37.0669 S 17.2612,36.3439 15.9372,36.5219" style="stroke-miterlimit: 10;stroke-width: 0.6342325442128913px" stroke-width="0.6342325442128913" stroke-miterlimit="10" transform=""/></svg>