<svg xmlns="http://www.w3.org/2000/svg" width="54" height="54" viewBox="0 0 54 54"><ellipse cx="27" cy="27" rx="25" ry="25" fill="#deb958"/><ellipse cx="28.422" cy="25.578" rx="23.578" ry="23.578" fill="#eec65e"/><ellipse cx="19.127" cy="25.578" rx="2.333" ry="2.333" fill="#deb958"/><ellipse cx="33.221" cy="14.608" rx="4.799" ry="4.799" fill="#deb958"/><ellipse cx="42.571" cy="30.246" rx="3.281" ry="3.281" fill="#deb958"/><ellipse cx="26.933" cy="40.249" rx="3.083" ry="3.083" fill="#deb958"/><ellipse cx="7.928" cy="32.759" rx="3.083" ry="3.083" fill="#deb958"/><ellipse cx="17.471" cy="9.81" rx="3.083" ry="3.083" fill="#deb958"/><ellipse cx="42.002" cy="42.961" rx="2.712" ry="2.712" fill="#deb958"/><ellipse cx="47.387" cy="16.941" rx="2.333" ry="2.333" fill="#deb958"/><ellipse cx="34.075" cy="14.608" rx="3.698" ry="3.698" fill="#7a3440"/><ellipse cx="17.471" cy="10.91" rx="2.586" ry="2.586" fill="#7a3440"/><ellipse cx="27.491" cy="40.746" rx="2.586" ry="2.586" fill="#7a3440"/><ellipse cx="19.879" cy="26.289" rx="1.911" ry="1.911" fill="#7a3440"/><ellipse cx="7.928" cy="32.759" rx="2.315" ry="2.315" fill="#7a3440"/><ellipse cx="42.571" cy="30.246" rx="2.315" ry="2.315" fill="#7a3440"/><ellipse cx="42.458" cy="43.156" rx="2.202" ry="2.139" fill="#7a3440"/><ellipse cx="46.629" cy="16.789" rx="2.202" ry="2.139" fill="#7a3440"/></svg>
