<svg xmlns="http://www.w3.org/2000/svg" version="1.1" width="54" height="54" viewBox="0 0 54 54"><defs/><path fill="#688da7" stroke="none" d="M 25.9384,37.9734 C 22.9414,36.7814 22.2864,37.5014 22.2864,37.5014 S 22.1754,37.8174 22.0264,38.3224 C 21.9254,38.6674 21.8074,39.0984 21.6954,39.5834 C 21.5784,40.0874 21.4694,40.6464 21.3924,41.2184 C 21.3364,41.6294 21.2994,42.0464 21.2894,42.4544 C 21.2784,42.8694 21.2954,43.2714 21.3504,43.6484 C 21.4994,44.6614 21.9214,45.4794 22.8234,45.7734 C 23.7804,46.0864 24.7264,45.6634 25.5784,44.9284 C 25.8344,44.7074 26.0814,44.4584 26.3184,44.1924 C 26.5984,43.8784 26.8614,43.5414 27.1064,43.1994 C 27.3504,42.8594 27.5754,42.5164 27.7784,42.1864 C 28.0264,41.7824 28.2434,41.3984 28.4184,41.0704 C 28.7474,40.4524 28.9344,40.0304 28.9344,40.0304 S 28.9344,39.1664 25.9384,37.9734 Z" transform=""/><path fill="#688da7" stroke="none" d="M 42.9173,37.3286 C 39.8763,36.2546 39.2503,36.9996 39.2503,36.9996 S 39.1503,37.3206 39.0233,37.8316 C 38.9353,38.1796 38.8353,38.6146 38.7413,39.1036 C 38.6443,39.6126 38.5563,40.1756 38.5023,40.7506 C 38.4633,41.1626 38.4423,41.5806 38.4483,41.9886 C 38.4533,42.4026 38.4863,42.8056 38.5563,43.1796 C 38.7443,44.1856 39.1983,44.9866 40.1113,45.2456 C 41.0803,45.5206 42.0083,45.0606 42.8303,44.2936 C 43.0783,44.0626 43.3143,43.8036 43.5413,43.5286 C 43.8083,43.2036 44.0593,42.8566 44.2913,42.5046 C 44.5213,42.1566 44.7323,41.8046 44.9213,41.4676 C 45.1543,41.0536 45.3553,40.6616 45.5173,40.3276 C 45.8223,39.6966 45.9923,39.2676 45.9923,39.2676 S 45.9593,38.4026 42.9173,37.3286 Z" transform=""/><path fill="#688da7" stroke="none" d="M 32.3439,18.2909 C 35.2889,19.5829 34.6629,31.5809 28.7729,34.0199 C 22.8819,36.4599 19.7049,16.2479 23.9109,13.3769 C 28.1179,10.5059 32.3439,18.2909 32.3439,18.2909 M 32.3439,18.2909 L 32.3439,18.2909 Z" transform=""/><path fill="#688da7" stroke="none" d="M 43.2924,31.2901 S 48.3074,29.1241 48.4884,31.7671 C 48.6684,34.4101 49.3754,36.2691 50.1994,36.1931 C 51.0234,36.1151 50.5914,37.0271 50.5914,37.0271 S 49.5934,37.1661 48.8054,36.0941 C 48.0164,35.0211 46.7864,33.3481 45.8834,33.6151 C 44.9774,33.8841 43.2924,31.2901 43.2924,31.2901 Z" transform=""/><path fill="#688da7" stroke="none" d="M 49.5886,36.2809 C 49.7526,36.1109 49.7466,35.9909 49.7466,35.9909 S 51.2296,36.2089 51.2956,36.6589 C 51.3616,37.1099 51.1346,37.8279 51.7546,37.7109 C 52.3746,37.5949 51.6446,38.4619 51.4866,38.6389 C 50.9936,39.1949 50.2966,38.8619 50.2526,38.2449 C 50.2106,37.6259 49.5406,37.8819 49.4686,37.2349 C 49.3976,36.5879 49.1776,36.5089 49.1776,36.5089 S 49.4246,36.4509 49.5886,36.2809 Z" transform=""/><path fill="#bdcccc" stroke="none" d="M 47.0586,44.5503 C 47.8736,43.3933 48.6276,40.7313 48.6896,38.5433 C 48.7666,35.8473 48.9466,29.9043 45.6876,27.8263 C 42.4296,25.7493 39.8566,23.5243 32.1396,25.8983 C 24.4206,28.2713 25.7936,28.7163 23.2206,30.9413 C 21.2686,32.6293 21.8856,40.5443 24.0176,44.2043 C 24.7776,44.0863 25.7276,43.9953 26.8926,43.9953 C 27.9916,43.9953 29.0336,44.1393 29.9416,44.3333 C 30.8796,43.1393 31.1096,41.7713 31.1096,41.7713 S 33.8556,42.8093 37.2846,42.3643 C 40.7156,41.9183 41.4016,40.8813 41.4016,40.8813 S 41.5336,43.2743 42.2196,44.5203 C 42.9246,44.4263 43.7606,44.3563 44.7696,44.3563 C 45.5726,44.3563 46.3446,44.4343 47.0586,44.5503 Z" transform=""/><path fill="#bdcccc" stroke="none" d="M 24.0177,44.2052 C 24.6957,45.3712 25.5267,46.1082 26.4797,46.0732 C 28.1587,46.0092 29.2447,45.2182 29.9417,44.3332 C 29.0327,44.1392 27.9917,43.9952 26.8927,43.9952 C 25.7277,43.9962 24.7777,44.0872 24.0177,44.2052 Z" transform=""/><path fill="#bdcccc" stroke="none" d="M 44.7693,44.3559 C 43.7613,44.3559 42.9243,44.4259 42.2193,44.5199 C 42.6993,45.3879 43.3923,46.1639 44.3793,46.2859 C 45.1483,46.3809 46.1993,45.7699 47.0583,44.5509 C 46.3443,44.4349 45.5733,44.3559 44.7693,44.3559 Z" transform=""/><path fill="#bdcccc" stroke="none" d="M 22.1466,18.6873 S 26.9156,13.1363 33.9326,13.7943 C 38.9826,14.2673 44.5926,17.6673 43.3296,27.2953 C 42.0666,36.9233 34.3526,43.3633 30.0386,39.6803 C 26.1006,36.3183 26.4086,27.5263 25.9346,25.4743 C 25.4616,23.4223 24.5146,22.1593 24.5146,20.8973 C 24.5146,19.6343 22.1466,18.6873 22.1466,18.6873 Z" transform=""/><path fill="#688da7" stroke="none" d="M 24.6723,21.5848 S 27.8433,16.8998 32.7823,17.3628 C 36.3373,17.6958 41.2713,21.4298 40.3833,28.2078 C 39.4943,34.9848 32.4493,39.2498 30.2273,36.3608 C 28.0053,33.4728 26.3553,28.0308 26.0223,26.5858 C 25.6893,25.1418 26.3383,24.0288 26.3383,23.1398 C 26.3383,22.2508 24.6723,21.5848 24.6723,21.5848 Z" style="opacity: 0.3" opacity="0.3" transform=""/><path fill="#bdcccc" stroke="none" d="M 22.5468,17.9966 C 19.0698,17.7596 18.6098,22.6286 16.0818,24.5156 C 10.7658,28.4836 3.51583,25.4046 6.55083,18.2206 C 9.17383,12.0136 6.73683,7.43261 4.22083,7.71661 C 2.13183,7.95361 2.00283,9.06761 2.61683,9.33661 C 2.74183,9.39061 2.89583,9.41361 3.07183,9.38361 C 4.11483,9.20361 2.57283,10.1906 2.11783,10.8236 C 1.96483,11.0366 1.96583,11.2916 2.09183,11.5256 C 2.36483,12.0296 3.22483,12.4406 4.42883,12.1386 C 5.50083,11.8706 6.04283,11.8766 6.12683,12.4066 C 6.18183,12.7496 6.04583,13.3076 5.73383,14.1586 C 5.31583,15.2966 3.25283,18.6146 2.57283,22.1896 C 2.59383,22.1886 2.61183,22.1846 2.63183,22.1846 C 3.22783,22.1846 3.71183,22.5496 3.71183,23.0016 C 3.71183,23.4526 3.22883,23.8176 2.63183,23.8176 C 2.54183,23.8176 2.45683,23.8066 2.37383,23.7916 C 2.30983,24.9346 2.43083,26.0736 2.83183,27.1496 C 2.91083,27.0806 2.99583,27.0146 3.09183,26.9586 C 3.70283,26.6016 4.41683,26.6876 4.68583,27.1486 C 4.95583,27.6116 4.67983,28.2746 4.06883,28.6316 C 3.95183,28.6996 3.83083,28.7466 3.71083,28.7826 C 4.33883,29.6466 5.21483,30.4386 6.40783,31.1166 C 6.42383,31.1256 6.43883,31.1326 6.45383,31.1406 C 6.49183,31.0256 6.53883,30.9096 6.60383,30.7966 C 6.97783,30.1506 7.65683,29.8426 8.11983,30.1106 S 8.65583,31.1196 8.28083,31.7666 C 8.24183,31.8346 8.19683,31.8966 8.15183,31.9576 C 8.32483,32.0256 8.49583,32.0906 8.66483,32.1496 C 9.90783,32.5806 11.0838,32.8616 12.1818,33.0346 C 12.1708,32.9476 12.1638,32.8566 12.1618,32.7646 C 12.1568,31.9586 12.5738,31.3026 13.0938,31.2986 C 13.6148,31.2946 14.0418,31.9436 14.0478,32.7496 C 14.0488,32.9206 14.0288,33.0816 13.9948,33.2336 C 18.1128,33.4786 21.1648,30.6946 20.8858,32.7216 C 20.6068,34.7476 21.0288,36.2056 23.6558,36.0196 C 24.5678,35.9546 26.5758,34.8916 27.6808,33.4056 C 32.9778,26.2936 26.0238,18.2336 22.5468,17.9966 Z" transform=""/><path fill="#bdcccc" stroke="none" d="M 3.71383,23.0016 C 3.71383,22.5496 3.23083,22.1846 2.63383,22.1846 C 2.61383,22.1846 2.59583,22.1886 2.57583,22.1896 C 2.47483,22.7196 2.40483,23.2556 2.37583,23.7916 C 2.45883,23.8066 2.54483,23.8176 2.63383,23.8176 C 3.23083,23.8176 3.71383,23.4516 3.71383,23.0016 Z" transform=""/><path fill="#bdcccc" stroke="none" d="M 4.68785,27.1489 C 4.41785,26.6879 3.70485,26.6019 3.09385,26.9589 C 2.99785,27.0149 2.91385,27.0809 2.83385,27.1499 C 3.04585,27.7149 3.33385,28.2619 3.71285,28.7829 C 3.83285,28.7469 3.95385,28.6999 4.07085,28.6319 C 4.68185,28.2749 4.95785,27.6109 4.68785,27.1489 Z" transform=""/><path fill="#bdcccc" stroke="none" d="M 8.12097,30.1102 C 7.65797,29.8422 6.97997,30.1502 6.60497,30.7972 C 6.54097,30.9092 6.49297,31.0252 6.45497,31.1402 C 7.03297,31.4662 7.59897,31.7362 8.15297,31.9572 C 8.19897,31.8962 8.24297,31.8342 8.28197,31.7662 C 8.65697,31.1192 8.58497,30.3782 8.12097,30.1102 Z" transform=""/><path fill="#bdcccc" stroke="none" d="M 13.0959,31.2983 C 12.5759,31.3023 12.1589,31.9583 12.1649,32.7633 C 12.1649,32.8563 12.1729,32.9463 12.1839,33.0343 C 12.8149,33.1343 13.4209,33.1993 13.9969,33.2323 C 14.0309,33.0803 14.0519,32.9193 14.0499,32.7493 C 14.0439,31.9433 13.6169,31.2943 13.0959,31.2983 Z" transform=""/><path fill="#fffdfd" stroke="#bdcccc" d="M 22.6271,30.5727 C 21.5691,30.2357 21.1811,31.2997 19.0211,30.7657 C 16.1021,30.0457 15.0741,27.9987 14.8121,28.0697 C 14.5501,28.1407 14.7201,32.0547 18.0181,33.3327 C 21.3161,34.6117 22.2961,33.8677 22.8001,33.6567 C 23.6321,33.3087 24.2231,31.0827 22.6271,30.5727 Z" style="stroke-miterlimit: 10" stroke-miterlimit="10" transform=""/><ellipse cx="22.146624600420612" cy="24.874856243584" rx="0.6841116815284515" ry="1.1367282689084086" fill="#304454" stroke="none" r="NaN" transform=""/></svg>