<svg xmlns="http://www.w3.org/2000/svg" version="1.1" width="300" height="300" viewBox="0 0 300 300"><defs/><path fill="#ccaa4f" stroke="none" d="M 83.292,273.918 S 75.954,278.549 71.96,276.546 C 70.178,275.65 71.482,273.542 73.867,273.911 C 76.495,274.318 79.247,270.068 79.247,270.068 L 83.292,273.918 Z" style="opacity: 0.8" opacity="0.8" transform=""/><path fill="#e2e2e2" stroke="none" d="M 107.026,269.145 C 106.785,268.783 106.375,268.58 105.953,268.592 C 105.842,268.375 105.579,268.282 105.355,268.384 C 105.284,268.416 105.225,268.465 105.181,268.523 C 104.847,268.337 104.433,268.307 104.059,268.478 C 103.823,268.586 103.637,268.758 103.511,268.964 C 103.377,268.971 103.242,269.002 103.112,269.061 C 102.717,269.241 102.482,269.626 102.47,270.032 C 102.459,270.036 102.448,270.04 102.438,270.045 C 102.207,270.15 102.105,270.422 102.21,270.653 C 102.216,270.667 102.223,270.68 102.23,270.692 C 102.101,271.001 102.096,271.361 102.246,271.689 C 102.33,271.875 102.454,272.029 102.604,272.148 C 102.532,272.27 102.519,272.424 102.582,272.563 C 102.583,272.565 102.585,272.567 102.586,272.57 C 102.367,272.762 102.288,273.082 102.415,273.361 C 102.57,273.702 102.972,273.852 103.313,273.697 C 103.407,273.654 103.485,273.592 103.548,273.518 C 103.679,273.627 103.867,273.659 104.032,273.583 C 104.057,273.572 104.08,273.559 104.101,273.544 C 104.418,273.754 104.832,273.8 105.203,273.631 C 105.346,273.566 105.469,273.476 105.569,273.367 C 105.691,273.376 105.817,273.355 105.935,273.301 C 106.101,273.225 106.226,273.097 106.3,272.946 C 106.468,272.957 106.641,272.928 106.805,272.853 C 107.196,272.675 107.425,272.286 107.418,271.881 C 107.549,271.793 107.601,271.621 107.534,271.473 C 107.526,271.457 107.518,271.443 107.509,271.429 C 107.788,271.195 107.889,270.797 107.73,270.449 C 107.693,270.367 107.644,270.295 107.587,270.232 C 107.659,270.034 107.657,269.809 107.563,269.603 C 107.458,269.368 107.256,269.207 107.026,269.145 L 107.026,269.145 M 104.624,271.11 C 104.627,271.111 104.63,271.111 104.632,271.111 C 104.63,271.117 104.627,271.122 104.625,271.128 C 104.625,271.122 104.624,271.116 104.624,271.11 Z" transform=""/><path fill="#eec65e" stroke="none" d="M 91.5953,244.303 S 94.3243,242.018 96.8693,241.974 C 98.5373,241.946 100.789,242.086 102.932,241.404 C 108.732,239.565 103.018,247.289 96.5993,251.715 C 92.1453,254.79 86.1913,257.541 86.0973,254.076 C 86.0193,251.142 91.5953,244.303 91.5953,244.303 Z" transform=""/><path fill="#f7a996" stroke="none" d="M 90.2862,249.734 S 92.7042,246.348 95.5442,245.692 C 98.8832,244.92 102.586,242.732 103.465,243.229 C 104.535,243.84 101.639,246.884 100.467,248.067 C 98.7262,249.821 94.8292,252.519 92.2812,253.434 C 90.4712,254.086 89.0992,254.414 88.3212,252.779 C 87.5442,251.141 90.2862,249.734 90.2862,249.734 Z" transform=""/><path fill="#ccaa4f" stroke="none" d="M 90.5205,249.446 C 89.6235,248.981 88.8885,248.706 88.8885,248.706 S 88.1315,248.678 87.2935,249.029 C 87.6375,250.248 88.6255,251.541 88.6255,251.541 L 90.5205,249.446 Z" transform=""/><path fill="#eec65e" stroke="none" d="M 85.8769,263.147 S 87.9889,264.617 91.1179,264.427 C 96.8609,264.077 100.631,264.768 103.079,268.848 C 106.361,274.317 102.533,284.744 91.6979,282.086 C 75.8129,278.19 77.2449,260.367 77.2449,260.367 L 85.8769,263.147 Z" transform=""/><path fill="#ccaa4f" stroke="none" d="M 78.7691,271.057 C 83.0191,270.932 87.1461,270.731 91.1181,264.427 C 90.2001,264.368 90.8791,262.522 89.8251,262.545 C 86.7771,262.612 84.7881,261.079 84.7881,261.079 L 76.3331,257.073 C 76.3331,257.072 76.9121,263.583 78.7691,271.057 Z" style="opacity: 0.5" opacity="0.5" transform=""/><path fill="#eec65e" stroke="none" d="M 79.8078,245.412 S 79.7378,242.028 78.5718,239.889 C 77.8078,238.483 76.6848,236.673 76.0428,234.559 C 74.3038,228.832 72.9128,237.337 73.5808,244.831 C 74.0448,250.034 75.3768,256.327 77.2408,254.726 C 78.8168,253.372 79.8078,245.412 79.8078,245.412 Z" transform=""/><path fill="#f7a996" stroke="none" d="M 77.9151,250.81 S 78.6501,246.429 77.5591,243.248 C 76.2761,239.507 75.6371,234.569 74.8861,234 C 73.9711,233.306 73.6861,237.953 73.6001,239.806 C 73.4711,242.555 73.9111,247.985 74.6981,251.035 C 75.2571,253.202 75.7771,254.745 77.1441,254.543 C 78.5121,254.342 77.9151,250.81 77.9151,250.81 Z" transform=""/><path fill="#eec65e" stroke="none" d="M 78.9816,249.77 S 81.5856,248.237 84.1846,248.423 C 85.9956,248.553 88.1156,248.882 89.9186,250.625 C 92.3716,252.997 92.9526,256.912 92.9826,258.915 C 93.0626,264.207 89.5286,267.558 84.0456,267.43 C 78.6416,267.304 74.2876,263.772 74.6496,258.498 C 74.8546,255.491 75.8256,251.613 78.9816,249.77 Z" transform=""/><path fill="#eec65e" stroke="none" d="M 82.8707,248.638 S 83.7707,246.992 85.4627,246.742 C 85.4627,246.742 83.3207,247.922 83.2757,248.97 L 82.8707,248.638 Z" transform=""/><ellipse cx="79.85967157501835" cy="259.47305510929726" rx="0.7081024959509882" ry="0.9845684395861733" fill="#304454" stroke="none" transform="rotate(1.5587 79.85967151462701 259.47305346446694)" r="NaN"/><ellipse cx="88.49404147236058" cy="259.47305510929726" rx="0.7081024959509882" ry="0.9845684395861733" fill="#304454" stroke="none" transform="rotate(1.5587 88.4940416870911 259.47305346446694)" r="NaN"/><ellipse cx="84.87812852179177" cy="263.58234314000373" rx="1.238086617148873" ry="0.9408584089719149" fill="#cda245" stroke="none" transform="rotate(187.0483 84.87812940452656 263.58234271758994)" r="NaN"/><path fill="#eec65e" stroke="none" d="M 83.3843,248.452 S 84.8503,247.281 86.5073,247.703 C 86.5073,247.703 84.0753,247.965 83.6303,248.915 L 83.3843,248.452 Z" transform=""/><path fill="#ccaa4f" stroke="none" d="M 89.4688,281.242 C 89.4788,281.244 89.4878,281.243 89.4968,281.245 C 90.3158,281.371 91.1458,281.046 91.9018,280.538 C 89.8178,273.647 94.1248,270.621 97.4858,271.963 C 100.339,273.103 101.974,276.599 99.7308,280.455 C 99.5328,280.797 99.2428,281.044 98.9048,281.235 L 98.9218,281.251 S 98.1738,281.723 97.0278,282.299 C 95.5528,282.546 93.8638,282.491 91.9528,282.022 C 91.0688,281.805 90.2488,281.539 89.4688,281.242 Z" style="opacity: 0.5" opacity="0.5" transform=""/><path fill="#eec65e" stroke="none" d="M 90.8511,282.045 C 91.6691,282.172 92.5001,281.847 93.2561,281.339 C 91.1721,274.448 95.4791,271.421 98.8401,272.764 C 101.693,273.903 103.327,277.399 101.085,281.255 C 100.886,281.597 100.596,281.844 100.259,282.035 L 100.276,282.052 S 97.9901,283.493 95.2761,284.42 C 95.2051,284.497 95.1141,284.532 95.0061,284.509 C 92.9261,285.184 90.6351,285.527 88.9441,284.679 C 87.1621,283.783 88.4661,281.676 90.8511,282.045 Z" transform=""/><path fill="#ccaa4f" stroke="none" d="M 83.7253,277.435 C 85.0253,276.311 85.9633,274.87 85.9633,274.87 L 88.9073,277.597 S 88.7233,279.529 86.9383,280.325 C 85.6853,279.465 84.6283,278.483 83.7253,277.435 Z" style="opacity: 0.5" opacity="0.5" transform=""/><path fill="#eec65e" stroke="none" d="M 89.2644,277.491 S 81.4404,282.407 77.1864,280.29 C 75.2894,279.343 76.6814,277.107 79.2224,277.496 C 82.0214,277.925 84.9594,273.417 84.9594,273.417 L 89.2644,277.491 Z" transform=""/><path fill="none" stroke="#cda245" d="M 90.714,263.329 S 92.683,263.418 93.675,263.971" style="stroke-miterlimit: 10" stroke-miterlimit="10" transform=""/><path fill="none" stroke="#cda245" d="M 90.9057,262.391 S 92.7737,261.758 93.8957,261.915" style="stroke-miterlimit: 10" stroke-miterlimit="10" transform=""/><path fill="none" stroke="#cda245" d="M 78.6964,264.303 S 76.6654,264.392 75.6414,264.945" style="stroke-miterlimit: 10;stroke-width: 0.5549534761862799px" stroke-width="0.5549534761862799" stroke-miterlimit="10" transform=""/><path fill="none" stroke="#cda245" d="M 78.4987,263.364 S 76.5717,262.731 75.4137,262.888" style="stroke-miterlimit: 10;stroke-width: 0.5549534761862799px" stroke-width="0.5549534761862799" stroke-miterlimit="10" transform=""/><path fill="#ccaa4f" stroke="none" d="M 161.87,191.434 S 154.532,196.065 150.538,194.062 C 148.756,193.166 150.06,191.058 152.445,191.427 C 155.073,191.834 157.825,187.584 157.825,187.584 L 161.87,191.434 Z" style="opacity: 0.8" opacity="0.8" transform=""/><path fill="#e2e2e2" stroke="none" d="M 185.604,186.662 C 185.363,186.3 184.953,186.097 184.531,186.109 C 184.42,185.892 184.157,185.799 183.933,185.901 C 183.862,185.933 183.803,185.982 183.759,186.04 C 183.425,185.854 183.011,185.824 182.637,185.995 C 182.401,186.103 182.215,186.275 182.089,186.481 C 181.955,186.488 181.82,186.519 181.69,186.578 C 181.295,186.758 181.06,187.143 181.048,187.549 C 181.037,187.553 181.026,187.557 181.016,187.562 C 180.785,187.667 180.683,187.939 180.788,188.17 C 180.794,188.184 180.801,188.197 180.808,188.209 C 180.679,188.518 180.674,188.878 180.824,189.206 C 180.908,189.392 181.032,189.546 181.182,189.665 C 181.11,189.787 181.097,189.941 181.16,190.08 C 181.161,190.082 181.163,190.084 181.164,190.087 C 180.945,190.279 180.866,190.599 180.993,190.878 C 181.148,191.219 181.55,191.369 181.891,191.214 C 181.985,191.171 182.063,191.109 182.126,191.035 C 182.257,191.144 182.445,191.176 182.61,191.1 C 182.635,191.089 182.658,191.076 182.679,191.061 C 182.996,191.271 183.41,191.317 183.781,191.148 C 183.924,191.083 184.047,190.993 184.147,190.884 C 184.269,190.893 184.395,190.872 184.513,190.818 C 184.679,190.742 184.804,190.614 184.878,190.463 C 185.046,190.474 185.219,190.445 185.383,190.37 C 185.774,190.192 186.003,189.803 185.996,189.398 C 186.127,189.31 186.179,189.138 186.112,188.99 C 186.104,188.974 186.096,188.96 186.087,188.946 C 186.366,188.712 186.467,188.314 186.308,187.966 C 186.271,187.884 186.222,187.812 186.165,187.749 C 186.237,187.551 186.235,187.326 186.141,187.12 C 186.036,186.885 185.834,186.724 185.604,186.662 L 185.604,186.662 M 183.202,188.627 C 183.205,188.628 183.208,188.628 183.21,188.628 C 183.208,188.634 183.205,188.639 183.203,188.645 C 183.203,188.639 183.202,188.633 183.202,188.627 Z" transform=""/><path fill="#eec65e" stroke="none" d="M 170.173,161.82 S 172.902,159.535 175.447,159.491 C 177.115,159.463 179.367,159.603 181.51,158.921 C 187.31,157.082 181.596,164.806 175.177,169.232 C 170.723,172.307 164.769,175.058 164.675,171.593 C 164.597,168.659 170.173,161.82 170.173,161.82 Z" transform=""/><path fill="#f7a996" stroke="none" d="M 168.864,167.251 S 171.282,163.865 174.122,163.209 C 177.461,162.437 181.164,160.249 182.043,160.746 C 183.113,161.357 180.217,164.401 179.045,165.584 C 177.304,167.338 173.407,170.036 170.859,170.951 C 169.049,171.603 167.677,171.931 166.899,170.296 C 166.122,168.658 168.864,167.251 168.864,167.251 Z" transform=""/><path fill="#ccaa4f" stroke="none" d="M 169.098,166.963 C 168.201,166.498 167.466,166.223 167.466,166.223 S 166.709,166.195 165.871,166.546 C 166.215,167.765 167.203,169.058 167.203,169.058 L 169.098,166.963 Z" transform=""/><path fill="#eec65e" stroke="none" d="M 164.455,180.664 S 166.567,182.134 169.696,181.944 C 175.439,181.594 179.209,182.285 181.657,186.365 C 184.939,191.834 181.111,202.261 170.276,199.603 C 154.391,195.707 155.823,177.884 155.823,177.884 L 164.455,180.664 Z" transform=""/><path fill="#ccaa4f" stroke="none" d="M 157.347,188.574 C 161.597,188.449 165.724,188.248 169.696,181.944 C 168.778,181.885 169.457,180.039 168.403,180.062 C 165.355,180.129 163.366,178.596 163.366,178.596 L 154.911,174.59 C 154.911,174.589 155.49,181.1 157.347,188.574 Z" style="opacity: 0.5" opacity="0.5" transform=""/><path fill="#eec65e" stroke="none" d="M 158.386,162.929 S 158.316,159.545 157.15,157.406 C 156.386,156 155.263,154.19 154.621,152.076 C 152.882,146.349 151.491,154.854 152.159,162.348 C 152.623,167.551 153.955,173.844 155.819,172.243 C 157.395,170.889 158.386,162.929 158.386,162.929 Z" transform=""/><path fill="#f7a996" stroke="none" d="M 156.493,168.327 S 157.228,163.946 156.137,160.765 C 154.854,157.024 154.215,152.086 153.464,151.517 C 152.549,150.823 152.264,155.47 152.178,157.323 C 152.049,160.072 152.489,165.502 153.276,168.552 C 153.835,170.719 154.355,172.262 155.722,172.06 C 157.09,171.859 156.493,168.327 156.493,168.327 Z" transform=""/><path fill="#eec65e" stroke="none" d="M 157.559,167.287 S 160.163,165.754 162.762,165.94 C 164.573,166.07 166.693,166.399 168.496,168.142 C 170.949,170.514 171.53,174.429 171.56,176.432 C 171.64,181.724 168.106,185.075 162.623,184.947 C 157.219,184.821 152.865,181.289 153.227,176.015 C 153.432,173.008 154.403,169.13 157.559,167.287 Z" transform=""/><path fill="#eec65e" stroke="none" d="M 161.449,166.155 S 162.349,164.509 164.041,164.259 C 164.041,164.259 161.899,165.439 161.854,166.487 L 161.449,166.155 Z" transform=""/><ellipse cx="158.43745121592764" cy="176.98995044632755" rx="0.7081024959509882" ry="0.9845684395861733" fill="#304454" stroke="none" transform="rotate(1.5587 158.43745115553628 176.98994880149726)" r="NaN"/><ellipse cx="167.07182111326986" cy="176.98995044632755" rx="0.7081024959509882" ry="0.9845684395861733" fill="#304454" stroke="none" transform="rotate(1.5587 167.0718213280004 176.98994880149726)" r="NaN"/><ellipse cx="163.45590816270106" cy="181.09923847703402" rx="1.238086617148873" ry="0.9408584089719149" fill="#cda245" stroke="none" transform="rotate(187.0483 163.45590904543585 181.09923805462023)" r="NaN"/><path fill="#eec65e" stroke="none" d="M 161.962,165.968 S 163.428,164.797 165.085,165.219 C 165.085,165.219 162.653,165.481 162.208,166.431 L 161.962,165.968 Z" transform=""/><path fill="#ccaa4f" stroke="none" d="M 168.047,198.759 C 168.057,198.761 168.066,198.76 168.075,198.762 C 168.894,198.888 169.724,198.563 170.48,198.055 C 168.396,191.164 172.703,188.138 176.064,189.48 C 178.917,190.62 180.552,194.116 178.309,197.972 C 178.111,198.314 177.821,198.561 177.483,198.752 L 177.5,198.768 S 176.752,199.24 175.606,199.816 C 174.131,200.063 172.442,200.008 170.531,199.539 C 169.647,199.322 168.827,199.056 168.047,198.759 Z" style="opacity: 0.5" opacity="0.5" transform=""/><path fill="#eec65e" stroke="none" d="M 169.429,199.562 C 170.247,199.689 171.078,199.364 171.834,198.856 C 169.75,191.965 174.057,188.938 177.418,190.281 C 180.271,191.42 181.905,194.916 179.663,198.772 C 179.464,199.114 179.174,199.361 178.837,199.552 L 178.854,199.569 S 176.568,201.01 173.854,201.937 C 173.783,202.014 173.692,202.049 173.584,202.026 C 171.504,202.701 169.213,203.044 167.522,202.196 C 165.74,201.3 167.044,199.193 169.429,199.562 Z" transform=""/><path fill="#ccaa4f" stroke="none" d="M 162.303,194.952 C 163.603,193.828 164.541,192.387 164.541,192.387 L 167.485,195.114 S 167.301,197.046 165.516,197.842 C 164.263,196.982 163.206,196 162.303,194.952 Z" style="opacity: 0.5" opacity="0.5" transform=""/><path fill="#eec65e" stroke="none" d="M 167.842,195.008 S 160.018,199.924 155.764,197.807 C 153.867,196.86 155.259,194.624 157.8,195.013 C 160.599,195.442 163.537,190.934 163.537,190.934 L 167.842,195.008 Z" transform=""/><path fill="none" stroke="#cda245" d="M 169.292,180.846 S 171.261,180.935 172.253,181.488" style="stroke-miterlimit: 10" stroke-miterlimit="10" transform=""/><path fill="none" stroke="#cda245" d="M 169.484,179.908 S 171.352,179.275 172.474,179.432" style="stroke-miterlimit: 10" stroke-miterlimit="10" transform=""/><path fill="none" stroke="#cda245" d="M 157.274,181.82 S 155.243,181.909 154.219,182.462" style="stroke-miterlimit: 10;stroke-width: 0.5549534761862799px" stroke-width="0.5549534761862799" stroke-miterlimit="10" transform=""/><path fill="none" stroke="#cda245" d="M 157.076,180.881 S 155.149,180.248 153.991,180.405" style="stroke-miterlimit: 10;stroke-width: 0.5549534761862799px" stroke-width="0.5549534761862799" stroke-miterlimit="10" transform=""/><path fill="#d78334" stroke="none" d="M 274.184,103.958 C 270.288,109.382 258.55,119.084 258.067,118.675 C 257.203,117.944 263.195,103.034 267.092,97.6105 S 271.697,93.5865 274.504,95.4265 C 277.071,97.1105 278.08,98.5345 274.184,103.958 Z" transform=""/><path fill="#f4953f" stroke="none" d="M 274.669,95.3338 C 271.714,93.4688 270.968,92.0518 266.867,97.5458 C 266.537,97.9878 266.191,98.4988 265.837,99.0528 C 266.572,102.116 269.418,104.402 272.824,104.402 C 273.257,104.402 273.678,104.359 274.089,104.288 C 274.171,104.184 274.256,104.077 274.331,103.976 C 278.432,98.4818 277.371,97.0388 274.669,95.3338 Z" transform=""/><path fill="#f4953f" stroke="none" d="M 260.9,108.935 C 258.531,114.172 256.667,119.427 257.161,119.842 C 257.454,120.088 262.08,116.465 266.359,112.48 C 263.964,112.358 261.917,110.951 260.9,108.935 Z" transform=""/><path fill="#f4953f" stroke="none" d="M 273.355,105.243 C 272.96,105.312 272.555,105.355 272.14,105.355 C 268.871,105.355 266.139,103.115 265.434,100.114 C 264.091,102.26 262.609,105.167 261.277,108.078 C 262.358,110.197 264.534,111.676 267.078,111.803 C 269.543,109.534 271.898,107.152 273.355,105.243 Z" transform=""/><path fill="#d78334" stroke="none" d="M 274.747,95.9368 C 273.336,94.8258 272.832,93.8978 271.231,94.9438 C 270.903,96.0708 271.46,97.4988 272.692,98.4388 C 273.628,99.1528 274.732,99.4168 275.647,99.2338 C 276.337,97.8178 275.943,96.8778 274.747,95.9368 Z" transform=""/><path fill="#64c4ad" stroke="none" d="M 287.629,90.7081 C 288.206,89.6471 285.435,88.4761 282.408,89.0761 C 280.903,89.3741 279.633,90.0871 278.735,90.7281 C 278.397,90.8531 278.075,91.0121 277.766,91.1991 C 279.414,88.7241 282.777,83.2771 281.041,82.4311 C 279.135,81.5021 277.518,89.2481 277.059,91.6951 C 277.032,91.7171 277.006,91.7381 276.979,91.7591 C 277.08,91.1261 277.549,87.5231 275.53,85.2711 C 273.789,83.3291 271.817,82.8671 271.366,84.0321 C 270.916,85.1931 273.589,85.5431 274.994,86.9671 C 276.831,88.8291 276.955,91.2911 276.961,91.7751 C 276.947,91.7861 276.934,91.7981 276.92,91.8101 C 276.881,90.8861 276.634,88.8271 275.223,88.1081 C 273.144,87.0471 270.444,87.9141 269.918,89.2431 C 269.657,89.9031 270.448,90.3721 271.665,89.7531 C 272.883,89.1351 273.78,88.1491 275.324,88.9761 C 276.231,89.4621 276.683,91.1061 276.849,91.8721 C 275.171,93.3211 274.005,95.5851 273.273,97.4251 C 273.343,97.4541 273.413,97.4821 273.483,97.5111 C 274.025,96.3921 274.755,95.1061 275.688,93.9251 C 278.427,90.4601 280.796,90.9541 282.17,91.8591 C 283.641,92.8291 282.851,94.8211 283.437,95.8051 C 284.023,96.7881 284.765,96.4951 285.039,95.8071 C 285.433,94.8171 284.744,90.8411 281.277,90.4281 C 281.598,90.3711 281.931,90.3291 282.272,90.3061 C 284.991,90.1221 287.07,91.7381 287.629,90.7081 Z" transform=""/><path fill="#d78334" stroke="none" d="M 176.133,98.4051 C 172.237,103.829 160.499,113.531 160.016,113.122 C 159.152,112.391 165.144,97.4811 169.041,92.0571 S 173.646,88.0331 176.453,89.8731 C 179.02,91.5571 180.029,92.9811 176.133,98.4051 Z" transform=""/><path fill="#f4953f" stroke="none" d="M 176.618,89.7805 C 173.663,87.9155 172.917,86.4985 168.816,91.9925 C 168.486,92.4345 168.14,92.9455 167.786,93.4995 C 168.521,96.5625 171.367,98.8485 174.773,98.8485 C 175.206,98.8485 175.627,98.8055 176.038,98.7345 C 176.12,98.6305 176.205,98.5235 176.28,98.4225 C 180.381,92.9285 179.32,91.4855 176.618,89.7805 Z" transform=""/><path fill="#f4953f" stroke="none" d="M 162.849,103.382 C 160.48,108.619 158.616,113.874 159.11,114.289 C 159.403,114.535 164.029,110.912 168.308,106.927 C 165.913,106.805 163.866,105.398 162.849,103.382 Z" transform=""/><path fill="#f4953f" stroke="none" d="M 175.305,99.6899 C 174.91,99.7589 174.505,99.8019 174.09,99.8019 C 170.821,99.8019 168.089,97.5619 167.384,94.5609 C 166.041,96.7069 164.559,99.6139 163.227,102.525 C 164.308,104.644 166.484,106.123 169.028,106.25 C 171.493,103.981 173.848,101.599 175.305,99.6899 Z" transform=""/><path fill="#d78334" stroke="none" d="M 176.697,90.3835 C 175.286,89.2725 174.782,88.3445 173.181,89.3905 C 172.853,90.5175 173.41,91.9455 174.642,92.8855 C 175.578,93.5995 176.682,93.8635 177.597,93.6805 C 178.287,92.2645 177.893,91.3245 176.697,90.3835 Z" transform=""/><path fill="#64c4ad" stroke="none" d="M 189.578,85.1548 C 190.155,84.0938 187.384,82.9228 184.357,83.5228 C 182.852,83.8208 181.582,84.5338 180.684,85.1748 C 180.346,85.2998 180.024,85.4588 179.715,85.6458 C 181.363,83.1708 184.726,77.7238 182.99,76.8778 C 181.084,75.9488 179.467,83.6948 179.008,86.1418 C 178.981,86.1638 178.955,86.1848 178.928,86.2058 C 179.029,85.5728 179.498,81.9698 177.479,79.7178 C 175.738,77.7758 173.766,77.3138 173.315,78.4788 C 172.865,79.6398 175.538,79.9898 176.943,81.4138 C 178.78,83.2758 178.904,85.7378 178.91,86.2218 C 178.896,86.2328 178.883,86.2448 178.869,86.2568 C 178.83,85.3328 178.583,83.2738 177.172,82.5548 C 175.093,81.4938 172.393,82.3608 171.867,83.6898 C 171.606,84.3498 172.397,84.8188 173.614,84.1998 C 174.832,83.5818 175.729,82.5958 177.273,83.4228 C 178.18,83.9088 178.632,85.5528 178.798,86.3188 C 177.12,87.7678 175.954,90.0318 175.222,91.8718 C 175.292,91.9008 175.362,91.9288 175.432,91.9578 C 175.974,90.8388 176.704,89.5528 177.637,88.3718 C 180.376,84.9068 182.745,85.4008 184.119,86.3058 C 185.59,87.2758 184.8,89.2678 185.386,90.2518 C 185.972,91.2348 186.714,90.9418 186.988,90.2538 C 187.382,89.2638 186.693,85.2878 183.226,84.8748 C 183.547,84.8178 183.88,84.7758 184.221,84.7528 C 186.94,84.5688 189.019,86.1848 189.578,85.1548 Z" transform=""/><path fill="#d78334" stroke="none" d="M 196.164,263.502 C 192.268,268.926 180.53,278.628 180.047,278.219 C 179.183,277.488 185.175,262.578 189.072,257.154 S 193.677,253.13 196.484,254.97 C 199.051,256.654 200.06,258.078 196.164,263.502 Z" transform=""/><path fill="#f4953f" stroke="none" d="M 196.649,254.877 C 193.694,253.012 192.948,251.595 188.847,257.089 C 188.517,257.531 188.171,258.042 187.817,258.596 C 188.552,261.659 191.398,263.945 194.804,263.945 C 195.237,263.945 195.658,263.902 196.069,263.831 C 196.151,263.727 196.236,263.62 196.311,263.519 C 200.412,258.025 199.351,256.582 196.649,254.877 Z" transform=""/><path fill="#f4953f" stroke="none" d="M 182.88,268.478 C 180.511,273.715 178.647,278.97 179.141,279.385 C 179.434,279.631 184.06,276.008 188.339,272.023 C 185.944,271.901 183.897,270.494 182.88,268.478 Z" transform=""/><path fill="#f4953f" stroke="none" d="M 195.336,264.786 C 194.941,264.855 194.536,264.898 194.121,264.898 C 190.852,264.898 188.12,262.658 187.415,259.657 C 186.072,261.803 184.59,264.71 183.258,267.621 C 184.339,269.74 186.515,271.219 189.059,271.346 C 191.524,269.077 193.879,266.695 195.336,264.786 Z" transform=""/><path fill="#d78334" stroke="none" d="M 196.728,255.48 C 195.317,254.369 194.813,253.441 193.212,254.487 C 192.884,255.614 193.441,257.042 194.673,257.982 C 195.609,258.696 196.713,258.96 197.628,258.777 C 198.318,257.361 197.924,256.421 196.728,255.48 Z" transform=""/><path fill="#64c4ad" stroke="none" d="M 209.609,250.251 C 210.186,249.19 207.415,248.019 204.388,248.619 C 202.883,248.917 201.613,249.63 200.715,250.271 C 200.377,250.396 200.055,250.555 199.746,250.742 C 201.394,248.267 204.757,242.82 203.021,241.974 C 201.115,241.045 199.498,248.791 199.039,251.238 C 199.012,251.26 198.986,251.281 198.959,251.302 C 199.06,250.669 199.529,247.066 197.51,244.814 C 195.769,242.872 193.797,242.41 193.346,243.575 C 192.896,244.736 195.569,245.086 196.974,246.51 C 198.811,248.372 198.935,250.834 198.941,251.318 C 198.927,251.329 198.914,251.341 198.9,251.353 C 198.861,250.429 198.614,248.37 197.203,247.651 C 195.124,246.59 192.424,247.457 191.898,248.786 C 191.637,249.446 192.428,249.915 193.645,249.296 C 194.863,248.678 195.76,247.692 197.304,248.519 C 198.211,249.005 198.663,250.649 198.829,251.415 C 197.151,252.864 195.985,255.128 195.253,256.968 C 195.323,256.997 195.393,257.025 195.463,257.054 C 196.005,255.935 196.735,254.649 197.668,253.468 C 200.407,250.003 202.776,250.497 204.15,251.402 C 205.621,252.372 204.831,254.364 205.417,255.348 C 206.003,256.331 206.745,256.038 207.019,255.35 C 207.413,254.36 206.724,250.384 203.257,249.971 C 203.578,249.914 203.911,249.872 204.252,249.849 C 206.971,249.665 209.05,251.281 209.609,250.251 Z" transform=""/><path fill="#d78334" stroke="none" d="M 116.525,121.268 C 112.629,126.692 100.891,136.394 100.408,135.985 C 99.5442,135.254 105.536,120.344 109.433,114.92 S 114.038,110.896 116.845,112.736 C 119.412,114.42 120.421,115.844 116.525,121.268 Z" transform=""/><path fill="#f4953f" stroke="none" d="M 117.01,112.644 C 114.055,110.779 113.309,109.362 109.208,114.856 C 108.878,115.298 108.532,115.809 108.178,116.363 C 108.913,119.426 111.759,121.712 115.165,121.712 C 115.598,121.712 116.019,121.669 116.43,121.598 C 116.512,121.494 116.597,121.387 116.672,121.286 C 120.773,115.792 119.712,114.349 117.01,112.644 Z" transform=""/><path fill="#f4953f" stroke="none" d="M 103.241,126.245 C 100.872,131.482 99.0083,136.737 99.5023,137.152 C 99.7953,137.398 104.421,133.775 108.7,129.79 C 106.305,129.668 104.258,128.261 103.241,126.245 Z" transform=""/><path fill="#f4953f" stroke="none" d="M 115.697,122.553 C 115.302,122.622 114.897,122.665 114.482,122.665 C 111.213,122.665 108.481,120.425 107.776,117.424 C 106.433,119.57 104.951,122.477 103.619,125.388 C 104.7,127.507 106.876,128.986 109.42,129.113 C 111.885,126.844 114.24,124.462 115.697,122.553 Z" transform=""/><path fill="#d78334" stroke="none" d="M 117.089,113.246 C 115.678,112.135 115.174,111.207 113.573,112.253 C 113.245,113.38 113.802,114.808 115.034,115.748 C 115.97,116.462 117.074,116.726 117.989,116.543 C 118.679,115.127 118.285,114.187 117.089,113.246 Z" transform=""/><path fill="#64c4ad" stroke="none" d="M 129.97,108.018 C 130.547,106.957 127.776,105.786 124.749,106.386 C 123.244,106.684 121.974,107.397 121.076,108.038 C 120.738,108.163 120.416,108.322 120.107,108.509 C 121.755,106.034 125.118,100.587 123.382,99.7409 C 121.476,98.8119 119.859,106.558 119.4,109.005 C 119.373,109.027 119.347,109.048 119.32,109.069 C 119.421,108.436 119.89,104.833 117.871,102.581 C 116.13,100.639 114.158,100.177 113.707,101.342 C 113.257,102.503 115.93,102.853 117.335,104.277 C 119.172,106.139 119.296,108.601 119.302,109.085 C 119.288,109.096 119.275,109.108 119.261,109.12 C 119.222,108.196 118.975,106.137 117.564,105.418 C 115.485,104.357 112.785,105.224 112.259,106.553 C 111.998,107.213 112.789,107.682 114.006,107.063 C 115.224,106.445 116.121,105.459 117.665,106.286 C 118.572,106.772 119.024,108.416 119.19,109.182 C 117.512,110.631 116.346,112.895 115.614,114.735 C 115.684,114.764 115.754,114.792 115.824,114.821 C 116.366,113.702 117.096,112.416 118.029,111.235 C 120.768,107.77 123.137,108.264 124.511,109.169 C 125.982,110.139 125.192,112.131 125.778,113.115 C 126.364,114.098 127.106,113.805 127.38,113.117 C 127.774,112.127 127.085,108.151 123.618,107.738 C 123.939,107.681 124.272,107.639 124.613,107.616 C 127.332,107.432 129.411,109.048 129.97,108.018 Z" transform=""/><path fill="#d78334" stroke="none" d="M 274.599,171.495 C 270.703,176.919 258.965,186.621 258.482,186.212 C 257.618,185.481 263.61,170.571 267.507,165.147 S 272.112,161.123 274.919,162.963 C 277.486,164.647 278.495,166.071 274.599,171.495 Z" transform=""/><path fill="#f4953f" stroke="none" d="M 275.084,162.87 C 272.129,161.005 271.383,159.588 267.282,165.082 C 266.952,165.524 266.606,166.035 266.252,166.589 C 266.987,169.652 269.833,171.938 273.239,171.938 C 273.672,171.938 274.093,171.895 274.504,171.824 C 274.586,171.72 274.671,171.613 274.746,171.512 C 278.847,166.018 277.786,164.575 275.084,162.87 Z" transform=""/><path fill="#f4953f" stroke="none" d="M 261.315,176.472 C 258.946,181.709 257.082,186.964 257.576,187.379 C 257.869,187.625 262.495,184.002 266.774,180.017 C 264.379,179.895 262.332,178.488 261.315,176.472 Z" transform=""/><path fill="#f4953f" stroke="none" d="M 273.771,172.779 C 273.376,172.848 272.971,172.891 272.556,172.891 C 269.287,172.891 266.555,170.651 265.85,167.65 C 264.507,169.796 263.025,172.703 261.693,175.614 C 262.774,177.733 264.95,179.212 267.494,179.339 C 269.959,177.07 272.314,174.688 273.771,172.779 Z" transform=""/><path fill="#d78334" stroke="none" d="M 275.163,163.473 C 273.752,162.362 273.248,161.434 271.647,162.48 C 271.319,163.607 271.876,165.035 273.108,165.975 C 274.044,166.689 275.148,166.953 276.063,166.77 C 276.753,165.354 276.359,164.414 275.163,163.473 Z" transform=""/><path fill="#64c4ad" stroke="none" d="M 288.044,158.244 C 288.621,157.183 285.85,156.012 282.823,156.612 C 281.318,156.91 280.048,157.623 279.15,158.264 C 278.812,158.389 278.49,158.548 278.181,158.735 C 279.829,156.26 283.192,150.813 281.456,149.967 C 279.55,149.038 277.933,156.784 277.474,159.231 C 277.447,159.253 277.421,159.274 277.394,159.295 C 277.495,158.662 277.964,155.059 275.945,152.807 C 274.204,150.865 272.232,150.403 271.781,151.568 C 271.331,152.729 274.004,153.079 275.409,154.503 C 277.246,156.365 277.37,158.827 277.376,159.311 C 277.362,159.322 277.349,159.334 277.335,159.346 C 277.296,158.422 277.049,156.363 275.638,155.644 C 273.559,154.583 270.859,155.45 270.333,156.779 C 270.072,157.439 270.863,157.908 272.08,157.289 C 273.298,156.671 274.195,155.685 275.739,156.512 C 276.646,156.998 277.098,158.642 277.264,159.408 C 275.586,160.857 274.42,163.121 273.688,164.961 C 273.758,164.99 273.828,165.018 273.898,165.047 C 274.44,163.928 275.17,162.642 276.103,161.461 C 278.842,157.996 281.211,158.49 282.585,159.395 C 284.056,160.365 283.266,162.357 283.852,163.341 C 284.438,164.324 285.18,164.031 285.454,163.343 C 285.848,162.353 285.159,158.377 281.692,157.964 C 282.013,157.907 282.346,157.865 282.687,157.842 C 285.406,157.658 287.485,159.274 288.044,158.244 Z" transform=""/><path fill="#d78334" stroke="none" d="M 235.358,101.689 C 231.462,107.113 219.724,116.815 219.241,116.406 C 218.377,115.675 224.369,100.765 228.266,95.3412 S 232.871,91.3172 235.678,93.1572 C 238.245,94.8412 239.254,96.2652 235.358,101.689 Z" transform=""/><path fill="#f4953f" stroke="none" d="M 235.843,93.0646 C 232.888,91.1996 232.142,89.7826 228.041,95.2766 C 227.711,95.7186 227.365,96.2296 227.011,96.7836 C 227.746,99.8466 230.592,102.133 233.998,102.133 C 234.431,102.133 234.852,102.09 235.263,102.019 C 235.345,101.915 235.43,101.808 235.505,101.707 C 239.606,96.2126 238.545,94.7696 235.843,93.0646 Z" transform=""/><path fill="#f4953f" stroke="none" d="M 222.074,106.666 C 219.705,111.903 217.841,117.158 218.335,117.573 C 218.628,117.819 223.254,114.196 227.533,110.211 C 225.138,110.089 223.091,108.682 222.074,106.666 Z" transform=""/><path fill="#f4953f" stroke="none" d="M 234.529,102.974 C 234.134,103.043 233.729,103.086 233.314,103.086 C 230.045,103.086 227.313,100.846 226.608,97.845 C 225.265,99.991 223.783,102.898 222.451,105.809 C 223.532,107.928 225.708,109.407 228.252,109.534 C 230.717,107.265 233.072,104.883 234.529,102.974 Z" transform=""/><path fill="#d78334" stroke="none" d="M 235.921,93.6675 C 234.51,92.5565 234.006,91.6285 232.405,92.6745 C 232.077,93.8015 232.634,95.2295 233.866,96.1695 C 234.802,96.8835 235.906,97.1475 236.821,96.9645 C 237.511,95.5485 237.117,94.6085 235.921,93.6675 Z" transform=""/><path fill="#64c4ad" stroke="none" d="M 248.803,88.4389 C 249.38,87.3779 246.609,86.2069 243.582,86.8069 C 242.077,87.1049 240.807,87.8179 239.909,88.4589 C 239.571,88.5839 239.249,88.7429 238.94,88.9299 C 240.588,86.4549 243.951,81.0079 242.215,80.1619 C 240.309,79.2329 238.692,86.9789 238.233,89.4259 C 238.206,89.4479 238.18,89.4689 238.153,89.4899 C 238.254,88.8569 238.723,85.2539 236.704,83.0019 C 234.963,81.0599 232.991,80.5979 232.54,81.7629 C 232.09,82.9239 234.763,83.2739 236.168,84.6979 C 238.005,86.5599 238.129,89.0219 238.135,89.5059 C 238.121,89.5169 238.108,89.5289 238.094,89.5409 C 238.055,88.6169 237.808,86.5579 236.397,85.8389 C 234.318,84.7779 231.618,85.6449 231.092,86.9739 C 230.831,87.6339 231.622,88.1029 232.839,87.4839 C 234.057,86.8659 234.954,85.8799 236.498,86.7069 C 237.405,87.1929 237.857,88.8369 238.023,89.6029 C 236.345,91.0519 235.179,93.3159 234.447,95.1559 C 234.517,95.1849 234.587,95.2129 234.657,95.2419 C 235.199,94.1229 235.929,92.8369 236.862,91.6559 C 239.601,88.1909 241.97,88.6849 243.344,89.5899 C 244.815,90.5599 244.025,92.5519 244.611,93.5359 C 245.197,94.5189 245.939,94.2259 246.213,93.5379 C 246.607,92.5479 245.918,88.5719 242.451,88.1589 C 242.772,88.1019 243.105,88.0599 243.446,88.0369 C 246.165,87.8529 248.244,89.4689 248.803,88.4389 Z" transform=""/><path fill="#d78334" stroke="none" d="M 140.836,160.945 C 136.94,166.369 125.202,176.071 124.719,175.662 C 123.855,174.931 129.847,160.021 133.744,154.597 S 138.349,150.573 141.156,152.413 C 143.723,154.097 144.732,155.521 140.836,160.945 Z" transform=""/><path fill="#f4953f" stroke="none" d="M 141.321,152.32 C 138.366,150.455 137.62,149.038 133.519,154.532 C 133.189,154.974 132.843,155.485 132.489,156.039 C 133.224,159.102 136.07,161.388 139.476,161.388 C 139.909,161.388 140.33,161.345 140.741,161.274 C 140.823,161.17 140.908,161.063 140.983,160.962 C 145.084,155.468 144.023,154.025 141.321,152.32 Z" transform=""/><path fill="#f4953f" stroke="none" d="M 127.552,165.921 C 125.183,171.158 123.319,176.413 123.813,176.828 C 124.106,177.074 128.732,173.451 133.011,169.466 C 130.616,169.344 128.569,167.937 127.552,165.921 Z" transform=""/><path fill="#f4953f" stroke="none" d="M 140.007,162.229 C 139.612,162.298 139.207,162.341 138.792,162.341 C 135.523,162.341 132.791,160.101 132.086,157.1 C 130.743,159.246 129.261,162.153 127.929,165.064 C 129.01,167.183 131.186,168.662 133.73,168.789 C 136.195,166.52 138.55,164.138 140.007,162.229 Z" transform=""/><path fill="#d78334" stroke="none" d="M 141.399,152.923 C 139.988,151.812 139.484,150.884 137.883,151.93 C 137.555,153.057 138.112,154.485 139.344,155.425 C 140.28,156.139 141.384,156.403 142.299,156.22 C 142.989,154.804 142.595,153.864 141.399,152.923 Z" transform=""/><path fill="#64c4ad" stroke="none" d="M 154.281,147.694 C 154.858,146.633 152.087,145.462 149.06,146.062 C 147.555,146.36 146.285,147.073 145.387,147.714 C 145.049,147.839 144.727,147.998 144.418,148.185 C 146.066,145.71 149.429,140.263 147.693,139.417 C 145.787,138.488 144.17,146.234 143.711,148.681 C 143.684,148.703 143.658,148.724 143.631,148.745 C 143.732,148.112 144.201,144.509 142.182,142.257 C 140.441,140.315 138.469,139.853 138.018,141.018 C 137.568,142.179 140.241,142.529 141.646,143.953 C 143.483,145.815 143.607,148.277 143.613,148.761 C 143.599,148.772 143.586,148.784 143.572,148.796 C 143.533,147.872 143.286,145.813 141.875,145.094 C 139.796,144.033 137.096,144.9 136.57,146.229 C 136.309,146.889 137.1,147.358 138.317,146.739 C 139.535,146.121 140.432,145.135 141.976,145.962 C 142.883,146.448 143.335,148.092 143.501,148.858 C 141.823,150.307 140.657,152.571 139.925,154.411 C 139.995,154.44 140.065,154.468 140.135,154.497 C 140.677,153.378 141.407,152.092 142.34,150.911 C 145.079,147.446 147.448,147.94 148.822,148.845 C 150.293,149.815 149.503,151.807 150.089,152.791 C 150.675,153.774 151.417,153.481 151.691,152.793 C 152.085,151.803 151.396,147.827 147.929,147.414 C 148.25,147.357 148.583,147.315 148.924,147.292 C 151.643,147.108 153.722,148.724 154.281,147.694 Z" transform=""/><path fill="#d78334" stroke="none" d="M 258.535,253.53 C 254.639,258.954 242.901,268.656 242.418,268.247 C 241.554,267.516 247.546,252.606 251.443,247.182 S 256.048,243.158 258.855,244.998 C 261.422,246.682 262.431,248.106 258.535,253.53 Z" transform=""/><path fill="#f4953f" stroke="none" d="M 259.02,244.906 C 256.065,243.041 255.319,241.624 251.218,247.118 C 250.888,247.56 250.542,248.071 250.188,248.625 C 250.923,251.688 253.769,253.974 257.175,253.974 C 257.608,253.974 258.029,253.931 258.44,253.86 C 258.522,253.756 258.607,253.649 258.682,253.548 C 262.783,248.054 261.722,246.611 259.02,244.906 Z" transform=""/><path fill="#f4953f" stroke="none" d="M 245.251,258.507 C 242.882,263.744 241.018,268.999 241.512,269.414 C 241.805,269.66 246.431,266.037 250.71,262.052 C 248.315,261.93 246.268,260.523 245.251,258.507 Z" transform=""/><path fill="#f4953f" stroke="none" d="M 257.707,254.815 C 257.312,254.884 256.907,254.927 256.492,254.927 C 253.223,254.927 250.491,252.687 249.786,249.686 C 248.443,251.832 246.961,254.739 245.629,257.65 C 246.71,259.769 248.886,261.248 251.43,261.375 C 253.895,259.106 256.25,256.724 257.707,254.815 Z" transform=""/><path fill="#d78334" stroke="none" d="M 259.099,245.509 C 257.688,244.398 257.184,243.47 255.583,244.516 C 255.255,245.643 255.812,247.071 257.044,248.011 C 257.98,248.725 259.084,248.989 259.999,248.806 C 260.689,247.39 260.295,246.45 259.099,245.509 Z" transform=""/><path fill="#64c4ad" stroke="none" d="M 271.98,240.28 C 272.557,239.219 269.786,238.048 266.759,238.648 C 265.254,238.946 263.984,239.659 263.086,240.3 C 262.748,240.425 262.426,240.584 262.117,240.771 C 263.765,238.296 267.128,232.849 265.392,232.003 C 263.486,231.074 261.869,238.82 261.41,241.267 C 261.383,241.289 261.357,241.31 261.33,241.331 C 261.431,240.698 261.9,237.095 259.881,234.843 C 258.14,232.901 256.168,232.439 255.717,233.604 C 255.267,234.765 257.94,235.115 259.345,236.539 C 261.182,238.401 261.306,240.863 261.312,241.347 C 261.298,241.358 261.285,241.37 261.271,241.382 C 261.232,240.458 260.985,238.399 259.574,237.68 C 257.495,236.619 254.795,237.486 254.269,238.815 C 254.008,239.475 254.799,239.944 256.016,239.325 C 257.234,238.707 258.131,237.721 259.675,238.548 C 260.582,239.034 261.034,240.678 261.2,241.444 C 259.522,242.893 258.356,245.157 257.624,246.997 C 257.694,247.026 257.764,247.054 257.834,247.083 C 258.376,245.964 259.106,244.678 260.039,243.497 C 262.778,240.032 265.147,240.526 266.521,241.431 C 267.992,242.401 267.202,244.393 267.788,245.377 C 268.374,246.36 269.116,246.067 269.39,245.379 C 269.784,244.389 269.095,240.413 265.628,240 C 265.949,239.943 266.282,239.901 266.623,239.878 C 269.342,239.694 271.421,241.31 271.98,240.28 Z" transform=""/></svg>