<svg xmlns="http://www.w3.org/2000/svg" version="1.1" width="54" height="54" viewBox="0 0 54 54"><defs><linearGradient id="r-37363a7f4d144c288948dd069e47c189" x1="0" y1="0" x2="1" y2="2.4492935982947064e-16"><stop offset="0%" stop-color="#df1f26"/><stop offset="100%" stop-color="#531210"/></linearGradient><linearGradient id="r-6f0db7eabaee4f6aab858866e26b43f7" x1="0" y1="1" x2="3.061616997868383e-16" y2="0"><stop offset="0%" stop-color="#df1f26"/><stop offset="100%" stop-color="#531210"/></linearGradient><linearGradient id="r-d493764285d747bca5077b739847a222" x1="0" y1="1" x2="3.061616997868383e-16" y2="0"><stop offset="0%" stop-color="#df1f26"/><stop offset="100%" stop-color="#531210"/></linearGradient><linearGradient id="r-76fd3cb1c57644eb8973ff07ef401aba" x1="0" y1="0" x2="1" y2="2.4492935982947064e-16"><stop offset="0%" stop-color="#df1f26"/><stop offset="100%" stop-color="#531210"/></linearGradient><linearGradient id="r-338eb5f1abb642f78a3378780327f48a" x1="0" y1="0" x2="1" y2="2.4492935982947064e-16"><stop offset="0%" stop-color="#df1f26"/><stop offset="100%" stop-color="#531210"/></linearGradient><linearGradient id="r-9ae23414716c4b19846816bd78c556a1" x1="0" y1="0.8390996311772799" x2="0.9999999999999999" y2="0"><stop offset="0%" stop-color="#df1f26"/><stop offset="100%" stop-color="#531210"/></linearGradient><linearGradient id="r-cf0cf624a0bc426e89a5eed4892c2953" x1="0" y1="0" x2="1" y2="2.4492935982947064e-16"><stop offset="0%" stop-color="#df1f26"/><stop offset="100%" stop-color="#531210"/></linearGradient><linearGradient id="r-aebe5251862348ea8f6ec8787d47a751" x1="1.8369701987210297e-16" y1="0" x2="0" y2="1"><stop offset="0%" stop-color="#df1f26"/><stop offset="100%" stop-color="#531210"/></linearGradient><linearGradient id="r-1e825d82adaf490c8b5c5e7419f29ce3" x1="0" y1="0.8390996311772799" x2="0.9999999999999999" y2="0"><stop offset="0%" stop-color="#df1f26"/><stop offset="100%" stop-color="#531210"/></linearGradient><linearGradient id="r-45e54749bf04419ebf5615aca55fa745" x1="1.8369701987210297e-16" y1="0" x2="0" y2="1"><stop offset="0%" stop-color="#df1f26"/><stop offset="100%" stop-color="#531210"/></linearGradient></defs><path fill="#ffffff" stroke="none" d="M 33.0923,24.9032 C 33.1363,25.0232 33.1373,25.1442 33.1153,25.2612 C 33.0703,25.4882 32.9553,25.7132 32.8483,25.9242 C 34.7083,26.1712 36.8443,25.7522 38.7523,25.4662 C 41.0723,25.0532 43.3593,24.5332 45.6173,23.9392 C 43.3973,24.6062 41.1453,25.2042 38.8413,25.6972 C 36.8523,26.0292 34.8623,26.6002 32.6763,26.3352 C 32.6673,26.3682 32.6493,26.4032 32.6453,26.4342 C 32.6373,26.4822 32.6333,26.5272 32.6373,26.5702 C 32.6403,26.6352 32.6733,26.7122 32.7153,26.7942 L 47.2433,29.2262 L 33.0663,27.3222 C 33.2393,27.5702 33.4143,27.8382 33.3643,28.1552 C 33.3473,28.2462 33.3113,28.3272 33.2653,28.4022 C 35.1163,28.7492 36.7003,29.6012 38.3323,30.2712 C 40.4513,31.2562 42.4973,32.3302 44.4823,33.4632 C 42.4453,32.3962 40.3463,31.3872 38.1953,30.4762 C 36.5193,29.8202 34.6793,29.0122 32.9143,28.7712 C 32.8543,28.8182 32.7933,28.8642 32.7333,28.9092 C 32.4593,29.1042 32.2003,29.2952 32.1303,29.4602 C 32.1123,29.4982 32.0993,29.5422 32.0933,29.5902 C 32.0283,29.9122 32.2023,30.4072 32.1343,30.8362 C 33.0543,31.6432 33.9683,32.6702 34.8343,33.8092 C 39.0703,36.1762 44.0583,37.8992 46.2033,37.5902 C 53.3623,36.5602 48.4753,30.3472 48.6003,29.4902 C 48.7073,28.7662 55.8383,23.3002 49.1223,21.0812 C 46.8353,20.3262 40.4073,20.7332 35.2103,22.0862 C 34.1133,22.8502 33.0043,23.5232 31.9363,24.0462 C 32.3143,24.2552 32.8973,24.4512 33.0923,24.9032 Z" transform=""/><path fill="#c75e72" stroke="none" d="M 33.0923,24.9032 C 33.1363,25.0232 33.1373,25.1442 33.1153,25.2612 C 33.0703,25.4882 32.9553,25.7132 32.8483,25.9242 C 34.7083,26.1712 36.8443,25.7522 38.7523,25.4662 C 41.0723,25.0532 43.3593,24.5332 45.6173,23.9392 C 43.3973,24.6062 41.1453,25.2042 38.8413,25.6972 C 36.8523,26.0292 34.8623,26.6002 32.6763,26.3352 C 32.6673,26.3682 32.6493,26.4032 32.6453,26.4342 C 32.6373,26.4822 32.6333,26.5272 32.6373,26.5702 C 32.6403,26.6352 32.6733,26.7122 32.7153,26.7942 L 47.2433,29.2262 L 33.0663,27.3222 C 33.2393,27.5702 33.4143,27.8382 33.3643,28.1552 C 33.3473,28.2462 33.3113,28.3272 33.2653,28.4022 C 35.1163,28.7492 36.7003,29.6012 38.3323,30.2712 C 40.4513,31.2562 42.4973,32.3302 44.4823,33.4632 C 42.4453,32.3962 40.3463,31.3872 38.1953,30.4762 C 36.5193,29.8202 34.6793,29.0122 32.9143,28.7712 C 32.8543,28.8182 32.7933,28.8642 32.7333,28.9092 C 32.4593,29.1042 32.2003,29.2952 32.1303,29.4602 C 32.1123,29.4982 32.0993,29.5422 32.0933,29.5902 C 32.0283,29.9122 32.2023,30.4072 32.1343,30.8362 C 33.0543,31.6432 33.9683,32.6702 34.8343,33.8092 C 39.0703,36.1762 44.0583,37.8992 46.2033,37.5902 C 53.3623,36.5602 48.4753,30.3472 48.6003,29.4902 C 48.7073,28.7662 55.8383,23.3002 49.1223,21.0812 C 46.8353,20.3262 40.4073,20.7332 35.2103,22.0862 C 34.1133,22.8502 33.0043,23.5232 31.9363,24.0462 C 32.3143,24.2552 32.8973,24.4512 33.0923,24.9032 Z" transform=""/><path fill="#7a3440" stroke="none" d="M 33.0659,27.3221 L 47.2429,29.2261 L 32.7149,26.7941 C 32.7879,26.9351 32.9009,27.0951 33.0229,27.2601 C 33.0369,27.2811 33.0519,27.3021 33.0659,27.3221 Z" transform=""/><path fill="#7a3440" stroke="none" d="M 38.8413,25.6981 C 41.1463,25.2051 43.3973,24.6071 45.6173,23.9401 C 43.3603,24.5331 41.0733,25.0531 38.7523,25.4661 C 36.8443,25.7531 34.7083,26.1721 32.8483,25.9241 C 32.7733,26.0711 32.7133,26.2081 32.6763,26.3351 C 34.8613,26.6011 36.8533,26.0301 38.8413,25.6981 Z" transform=""/><path fill="#7a3440" stroke="none" d="M 32.915,28.771 C 34.68,29.012 36.52,29.82 38.196,30.476 C 40.347,31.387 42.446,32.396 44.483,33.463 C 42.497,32.33 40.452,31.256 38.333,30.271 C 36.701,29.601 35.117,28.749 33.266,28.402 C 33.178,28.545 33.052,28.664 32.915,28.771 Z" transform=""/><path fill="#ffffff" stroke="none" d="M 25.8838,21.3966 C 25.9678,21.4086 26.0418,21.4116 26.1038,21.4046 C 26.3048,21.3836 26.5788,21.2056 26.8648,21.0226 C 27.0018,20.9376 27.1448,20.8516 27.2978,20.7876 C 28.2888,19.2326 28.5168,17.1146 28.8258,15.2686 C 29.1078,13.1506 29.2648,11.0286 29.3358,8.90857 C 29.3558,11.0176 29.2898,13.1356 29.0968,15.2656 C 28.8338,17.0596 28.8168,18.9286 27.8838,20.7096 C 28.0558,20.7446 28.1998,20.8206 28.3238,20.9226 L 35.4138,9.14557 L 28.6968,21.3156 C 28.8948,21.5566 29.0838,21.7816 29.2578,21.8536 C 29.3168,21.8796 29.3878,21.8986 29.4708,21.9106 C 29.5378,21.9206 29.6128,21.9226 29.6898,21.9256 C 30.5538,19.8846 32.2828,18.5686 33.7588,17.1156 C 35.4528,15.6016 37.2188,14.1786 39.0258,12.8246 C 37.2718,14.2446 35.5608,15.7316 33.9368,17.2956 C 32.5528,18.7086 30.8908,20.2416 30.2058,21.9226 C 30.3548,21.9216 30.5038,21.9236 30.6478,21.9426 C 30.8238,21.9686 31.0018,22.0206 31.1408,22.1386 C 31.4788,22.4536 31.4668,22.9416 31.5018,23.3296 C 32.5918,22.8526 33.8598,22.4376 35.2118,22.0856 C 39.4848,19.1086 43.5378,14.7626 43.9108,12.6256 C 45.0358,6.16257 36.9778,8.43557 36.1118,8.06357 C 35.3798,7.74857 31.8218,-0.0594298 27.4078,5.01757 C 25.8188,6.84557 24.1668,13.0496 24.1498,18.0966 C 24.5938,19.1596 24.9618,20.2156 25.2198,21.2166 C 25.4588,21.2906 25.6888,21.3706 25.8838,21.3966 Z" transform=""/><path fill="#c75e72" stroke="none" d="M 25.8838,21.3966 C 25.9678,21.4086 26.0418,21.4116 26.1038,21.4046 C 26.3048,21.3836 26.5788,21.2056 26.8648,21.0226 C 27.0018,20.9376 27.1448,20.8516 27.2978,20.7876 C 28.2888,19.2326 28.5168,17.1146 28.8258,15.2686 C 29.1078,13.1506 29.2648,11.0286 29.3358,8.90857 C 29.3558,11.0176 29.2898,13.1356 29.0968,15.2656 C 28.8338,17.0596 28.8168,18.9286 27.8838,20.7096 C 28.0558,20.7446 28.1998,20.8206 28.3238,20.9226 L 35.4138,9.14557 L 28.6968,21.3156 C 28.8948,21.5566 29.0838,21.7816 29.2578,21.8536 C 29.3168,21.8796 29.3878,21.8986 29.4708,21.9106 C 29.5378,21.9206 29.6128,21.9226 29.6898,21.9256 C 30.5538,19.8846 32.2828,18.5686 33.7588,17.1156 C 35.4528,15.6016 37.2188,14.1786 39.0258,12.8246 C 37.2718,14.2446 35.5608,15.7316 33.9368,17.2956 C 32.5528,18.7086 30.8908,20.2416 30.2058,21.9226 C 30.3548,21.9216 30.5038,21.9236 30.6478,21.9426 C 30.8238,21.9686 31.0018,22.0206 31.1408,22.1386 C 31.4788,22.4536 31.4668,22.9416 31.5018,23.3296 C 32.5918,22.8526 33.8598,22.4376 35.2118,22.0856 C 39.4848,19.1086 43.5378,14.7626 43.9108,12.6256 C 45.0358,6.16257 36.9778,8.43557 36.1118,8.06357 C 35.3798,7.74857 31.8218,-0.0594298 27.4078,5.01757 C 25.8188,6.84557 24.1668,13.0496 24.1498,18.0966 C 24.5938,19.1596 24.9618,20.2156 25.2198,21.2166 C 25.4588,21.2906 25.6888,21.3706 25.8838,21.3966 Z" transform=""/><path fill="#ffffff" stroke="none" d="M 31.6358,23.7989 C 31.6888,23.8919 31.8008,23.9699 31.9378,24.0459 C 33.0048,23.5229 34.1148,22.8499 35.2108,22.0859 C 33.8588,22.4379 32.5908,22.8529 31.5008,23.3299 C 31.5178,23.5219 31.5448,23.6919 31.6358,23.7989 Z" transform=""/><path fill="url(#r-37363a7f4d144c288948dd069e47c189)" stroke="none" d="M 31.6358,23.7989 C 31.6888,23.8919 31.8008,23.9699 31.9378,24.0459 C 33.0048,23.5229 34.1148,22.8499 35.2108,22.0859 C 33.8588,22.4379 32.5908,22.8529 31.5008,23.3299 C 31.5178,23.5219 31.5448,23.6919 31.6358,23.7989 Z" opacity="1" fill-opacity="1" style="opacity: 1;fill-opacity: 1" transform=""/><path fill="url(#r-6f0db7eabaee4f6aab858866e26b43f7)" stroke="none" d="M 31.6358,23.7989 C 31.6888,23.8919 31.8008,23.9699 31.9378,24.0459 C 33.0048,23.5229 34.1148,22.8499 35.2108,22.0859 C 33.8588,22.4379 32.5908,22.8529 31.5008,23.3299 C 31.5178,23.5219 31.5448,23.6919 31.6358,23.7989 Z" opacity="1" fill-opacity="1" style="opacity: 1;fill-opacity: 1" transform=""/><path fill="#7a3440" stroke="none" d="M 28.667,21.2804 C 28.678,21.2924 28.687,21.3034 28.696,21.3154 L 35.412,9.14541 L 28.322,20.9224 C 28.453,21.0284 28.562,21.1574 28.667,21.2804 Z" transform=""/><path fill="#7a3440" stroke="none" d="M 27.8818,20.7102 C 28.8158,18.9292 28.8328,17.0602 29.0958,15.2662 C 29.2888,13.1362 29.3548,11.0182 29.3348,8.90919 C 29.2638,11.0292 29.1058,13.1522 28.8238,15.2692 C 28.5158,17.1152 28.2878,19.2332 27.2968,20.7882 C 27.4648,20.7182 27.6448,20.6752 27.8448,20.6992 C 27.8588,20.7002 27.8688,20.7072 27.8818,20.7102 Z" transform=""/><path fill="#7a3440" stroke="none" d="M 30.205,21.9223 C 30.89,20.2413 32.552,18.7073 33.936,17.2953 C 35.56,15.7303 37.271,14.2443 39.025,12.8233 C 37.218,14.1793 35.453,15.6013 33.758,17.1143 C 32.283,18.5683 30.554,19.8833 29.689,21.9243 C 29.849,21.9293 30.025,21.9243 30.205,21.9223 Z" transform=""/><path fill="#ffffff" stroke="none" d="M 20.2743,26.9849 C 20.1263,26.7649 19.9993,26.5259 20.0423,26.2509 C 20.1083,25.9119 20.4053,25.6969 20.6743,25.4969 C 20.7473,25.4449 20.8183,25.3929 20.8863,25.3419 C 19.6123,23.7809 17.2063,22.8519 15.1813,21.9379 C 13.0343,21.0439 10.8453,20.2509 8.6333,19.5349 C 10.8643,20.1719 13.0733,20.8819 15.2603,21.7059 C 17.3123,22.5879 19.5593,23.2329 21.2333,25.0129 C 21.2483,24.9909 21.2673,24.9679 21.2763,24.9479 C 21.2943,24.9089 21.3073,24.8659 21.3163,24.8169 C 21.3383,24.7059 21.3293,24.5709 21.3133,24.4289 L 10.7623,14.3959 L 21.2643,23.6959 C 21.2673,23.6529 21.2623,23.6079 21.2693,23.5669 C 21.2893,23.4519 21.3343,23.3349 21.4143,23.2349 C 21.5703,23.0639 21.7853,22.9689 22.0123,22.9039 C 20.4353,21.5699 19.6393,19.8489 18.6523,18.2769 C 17.5813,16.3569 16.6273,14.4019 15.7553,12.4319 C 16.7103,14.3769 17.7493,16.3049 18.8973,18.1829 C 19.9503,19.7909 21.0423,21.6719 22.5803,22.7859 C 22.8353,22.7429 23.0603,22.6989 23.1793,22.5929 C 23.5463,22.3599 23.5763,21.4569 24.2193,21.1509 C 24.2713,21.1289 24.3253,21.1239 24.3783,21.1149 C 24.2173,20.1969 24.1463,19.1739 24.1493,18.0969 C 22.2953,13.6559 19.1213,9.12792 17.0553,8.18092 C 10.5913,5.21792 10.4963,12.8339 9.8353,13.4629 C 9.2783,13.9929 -0.0527031,14.6319 3.9343,19.9889 C 5.3923,21.9459 11.5743,25.3489 16.9453,26.8939 C 18.1053,26.8639 19.2323,26.8909 20.2743,26.9849 Z" transform=""/><path fill="#c75e72" stroke="none" d="M 20.2743,26.9849 C 20.1263,26.7649 19.9993,26.5259 20.0423,26.2509 C 20.1083,25.9119 20.4053,25.6969 20.6743,25.4969 C 20.7473,25.4449 20.8183,25.3929 20.8863,25.3419 C 19.6123,23.7809 17.2063,22.8519 15.1813,21.9379 C 13.0343,21.0439 10.8453,20.2509 8.6333,19.5349 C 10.8643,20.1719 13.0733,20.8819 15.2603,21.7059 C 17.3123,22.5879 19.5593,23.2329 21.2333,25.0129 C 21.2483,24.9909 21.2673,24.9679 21.2763,24.9479 C 21.2943,24.9089 21.3073,24.8659 21.3163,24.8169 C 21.3383,24.7059 21.3293,24.5709 21.3133,24.4289 L 10.7623,14.3959 L 21.2643,23.6959 C 21.2673,23.6529 21.2623,23.6079 21.2693,23.5669 C 21.2893,23.4519 21.3343,23.3349 21.4143,23.2349 C 21.5703,23.0639 21.7853,22.9689 22.0123,22.9039 C 20.4353,21.5699 19.6393,19.8489 18.6523,18.2769 C 17.5813,16.3569 16.6273,14.4019 15.7553,12.4319 C 16.7103,14.3769 17.7493,16.3049 18.8973,18.1829 C 19.9503,19.7909 21.0423,21.6719 22.5803,22.7859 C 22.8353,22.7429 23.0603,22.6989 23.1793,22.5929 C 23.5463,22.3599 23.5763,21.4569 24.2193,21.1509 C 24.2713,21.1289 24.3253,21.1239 24.3783,21.1149 C 24.2173,20.1969 24.1463,19.1739 24.1493,18.0969 C 22.2953,13.6559 19.1213,9.12792 17.0553,8.18092 C 10.5913,5.21792 10.4963,12.8339 9.8353,13.4629 C 9.2783,13.9929 -0.0527031,14.6319 3.9343,19.9889 C 5.3923,21.9459 11.5743,25.3489 16.9453,26.8939 C 18.1053,26.8639 19.2323,26.8909 20.2743,26.9849 Z" transform=""/><path fill="#ffffff" stroke="none" d="M 24.3775,21.1137 C 24.5035,21.0897 24.6305,21.0837 24.7535,21.1017 C 24.9105,21.1247 25.0665,21.1697 25.2185,21.2167 C 24.9595,20.2137 24.5925,19.1587 24.1485,18.0957 C 24.1455,19.1727 24.2165,20.1957 24.3775,21.1137 Z" transform=""/><path fill="url(#r-d493764285d747bca5077b739847a222)" stroke="none" d="M 24.3775,21.1137 C 24.5035,21.0897 24.6305,21.0837 24.7535,21.1017 C 24.9105,21.1247 25.0665,21.1697 25.2185,21.2167 C 24.9595,20.2137 24.5925,19.1587 24.1485,18.0957 C 24.1455,19.1727 24.2165,20.1957 24.3775,21.1137 Z" opacity="1" fill-opacity="1" style="opacity: 1;fill-opacity: 1" transform=""/><path fill="url(#r-76fd3cb1c57644eb8973ff07ef401aba)" stroke="none" d="M 24.3775,21.1137 C 24.5035,21.0897 24.6305,21.0837 24.7535,21.1017 C 24.9105,21.1247 25.0665,21.1697 25.2185,21.2167 C 24.9595,20.2137 24.5925,19.1587 24.1485,18.0957 C 24.1455,19.1727 24.2165,20.1957 24.3775,21.1137 Z" opacity="1" fill-opacity="1" style="opacity: 1;fill-opacity: 1" transform=""/><path fill="#7a3440" stroke="none" d="M 21.2646,23.6956 L 10.7626,14.3956 L 21.3136,24.4296 C 21.2896,24.1976 21.2516,23.9426 21.2646,23.6956 Z" transform=""/><path fill="#7a3440" stroke="none" d="M 21.2345,25.014 C 19.5605,23.235 17.3135,22.59 15.2615,21.707 C 13.0745,20.883 10.8645,20.172 8.63348,19.537 C 10.8465,20.253 13.0345,21.045 15.1825,21.94 C 17.2075,22.853 19.6125,23.782 20.8865,25.344 C 21.0405,25.227 21.1655,25.117 21.2345,25.014 Z" transform=""/><path fill="#7a3440" stroke="none" d="M 18.897,18.1826 C 17.75,16.3056 16.71,14.3776 15.755,12.4316 C 16.627,14.4016 17.581,16.3576 18.653,18.2766 C 19.64,19.8486 20.436,21.5696 22.012,22.9046 C 22.201,22.8506 22.398,22.8156 22.58,22.7856 C 21.042,21.6716 19.949,19.7906 18.897,18.1826 Z" transform=""/><path fill="#ffffff" stroke="none" d="M 24.1474,32.5529 C 24.0884,32.5269 24.0184,32.5079 23.9354,32.4959 C 23.6184,32.4479 23.1644,32.5169 22.7604,32.4639 C 22.5864,32.4369 22.4114,32.3859 22.2674,32.2689 C 22.2544,32.2569 22.2484,32.2429 22.2364,32.2309 C 20.5174,32.9999 19.0234,34.5199 17.6324,35.7949 C 16.0244,37.3609 14.5134,38.9939 13.0744,40.6719 C 14.4344,38.9549 15.8674,37.2759 17.4114,35.6549 C 18.8114,34.3249 20.0554,32.7969 22.0144,31.8539 C 21.9674,31.7069 21.9474,31.5509 21.9344,31.3979 L 8.31545,37.2559 L 21.8774,30.8779 C 21.8574,30.7709 21.8284,30.6769 21.7714,30.6089 C 21.6644,30.4209 21.3264,30.2929 20.9964,30.1189 C 19.0394,31.1689 16.8874,31.3089 14.8424,31.6859 C 12.4884,32.0109 10.1304,32.2259 7.78645,32.3659 C 10.1324,32.1469 12.4854,31.8519 14.8194,31.4479 C 16.7464,31.0579 18.9494,30.7189 20.5794,29.8429 C 20.4684,29.7469 20.3734,29.6389 20.3154,29.5049 C 20.2704,29.3849 20.2714,29.2629 20.2934,29.1469 C 20.3744,28.7209 20.7124,28.2939 20.7614,27.9709 C 20.7694,27.9229 20.7734,27.8769 20.7684,27.8369 C 20.7664,27.7819 20.7424,27.7169 20.7114,27.6489 C 19.5624,27.5449 18.2804,27.2779 16.9464,26.8939 C 11.5394,27.0319 5.40445,28.3999 3.70545,29.9359 C -1.41555,34.5669 6.58445,37.0019 7.04245,37.7619 C 7.42945,38.4039 5.22045,46.6069 12.1004,44.8419 C 14.4214,44.2459 19.2884,40.5719 22.6104,36.7599 C 23.0474,35.2549 23.5954,33.8219 24.2354,32.6069 C 24.2054,32.5879 24.1764,32.5649 24.1474,32.5529 Z" transform=""/><path fill="#c75e72" stroke="none" d="M 24.1474,32.5529 C 24.0884,32.5269 24.0184,32.5079 23.9354,32.4959 C 23.6184,32.4479 23.1644,32.5169 22.7604,32.4639 C 22.5864,32.4369 22.4114,32.3859 22.2674,32.2689 C 22.2544,32.2569 22.2484,32.2429 22.2364,32.2309 C 20.5174,32.9999 19.0234,34.5199 17.6324,35.7949 C 16.0244,37.3609 14.5134,38.9939 13.0744,40.6719 C 14.4344,38.9549 15.8674,37.2759 17.4114,35.6549 C 18.8114,34.3249 20.0554,32.7969 22.0144,31.8539 C 21.9674,31.7069 21.9474,31.5509 21.9344,31.3979 L 8.31545,37.2559 L 21.8774,30.8779 C 21.8574,30.7709 21.8284,30.6769 21.7714,30.6089 C 21.6644,30.4209 21.3264,30.2929 20.9964,30.1189 C 19.0394,31.1689 16.8874,31.3089 14.8424,31.6859 C 12.4884,32.0109 10.1304,32.2259 7.78645,32.3659 C 10.1324,32.1469 12.4854,31.8519 14.8194,31.4479 C 16.7464,31.0579 18.9494,30.7189 20.5794,29.8429 C 20.4684,29.7469 20.3734,29.6389 20.3154,29.5049 C 20.2704,29.3849 20.2714,29.2629 20.2934,29.1469 C 20.3744,28.7209 20.7124,28.2939 20.7614,27.9709 C 20.7694,27.9229 20.7734,27.8769 20.7684,27.8369 C 20.7664,27.7819 20.7424,27.7169 20.7114,27.6489 C 19.5624,27.5449 18.2804,27.2779 16.9464,26.8939 C 11.5394,27.0319 5.40445,28.3999 3.70545,29.9359 C -1.41555,34.5669 6.58445,37.0019 7.04245,37.7619 C 7.42945,38.4039 5.22045,46.6069 12.1004,44.8419 C 14.4214,44.2459 19.2884,40.5719 22.6104,36.7599 C 23.0474,35.2549 23.5954,33.8219 24.2354,32.6069 C 24.2054,32.5879 24.1764,32.5649 24.1474,32.5529 Z" transform=""/><path fill="#ffffff" stroke="none" d="M 20.3852,27.1456 C 20.3482,27.0936 20.3112,27.0396 20.2752,26.9846 C 19.2322,26.8906 18.1062,26.8636 16.9462,26.8936 C 18.2812,27.2776 19.5622,27.5446 20.7112,27.6486 C 20.6412,27.5006 20.5162,27.3266 20.3852,27.1456 Z" transform=""/><path fill="url(#r-338eb5f1abb642f78a3378780327f48a)" stroke="none" d="M 20.3852,27.1456 C 20.3482,27.0936 20.3112,27.0396 20.2752,26.9846 C 19.2322,26.8906 18.1062,26.8636 16.9462,26.8936 C 18.2812,27.2776 19.5622,27.5446 20.7112,27.6486 C 20.6412,27.5006 20.5162,27.3266 20.3852,27.1456 Z" opacity="1" fill-opacity="1" style="opacity: 1;fill-opacity: 1" transform=""/><path fill="url(#r-9ae23414716c4b19846816bd78c556a1)" stroke="none" d="M 20.3852,27.1456 C 20.3482,27.0936 20.3112,27.0396 20.2752,26.9846 C 19.2322,26.8906 18.1062,26.8636 16.9462,26.8936 C 18.2812,27.2776 19.5622,27.5446 20.7112,27.6486 C 20.6412,27.5006 20.5162,27.3266 20.3852,27.1456 Z" opacity="1" fill-opacity="1" style="opacity: 1;fill-opacity: 1" transform=""/><path fill="#7a3440" stroke="none" d="M 8.31391,37.2573 L 21.9329,31.3993 C 21.9159,31.2103 21.9079,31.0313 21.8789,30.8783 L 8.31391,37.2573 Z" transform=""/><path fill="#7a3440" stroke="none" d="M 17.4096,35.656 C 15.8666,37.277 14.4336,38.955 13.0736,40.673 C 14.5126,38.995 16.0236,37.361 17.6306,35.796 C 19.0226,34.521 20.5166,33.001 22.2346,32.232 C 22.1286,32.121 22.0566,31.993 22.0116,31.855 C 20.0536,32.797 18.8106,34.325 17.4096,35.656 Z" transform=""/><path fill="#7a3440" stroke="none" d="M 14.8194,31.4479 C 12.4854,31.8519 10.1334,32.1469 7.78645,32.3659 C 10.1304,32.2259 12.4884,32.0109 14.8424,31.6859 C 16.8874,31.3089 19.0394,31.1679 20.9964,30.1189 C 20.8464,30.0409 20.7024,29.9509 20.5784,29.8429 C 18.9494,30.7189 16.7454,31.0589 14.8194,31.4479 Z" transform=""/><path fill="#ffffff" stroke="none" d="M 40.3061,45.5866 C 40.3971,43.3636 37.9201,37.8656 34.8351,33.8096 C 33.5571,33.0956 32.3501,32.3236 31.3081,31.5296 C 30.8941,31.6326 30.4581,31.6466 30.2551,31.8016 C 30.3691,33.6676 31.6331,35.6046 32.6361,37.3436 C 33.7881,39.2066 35.0431,41.0086 36.3691,42.7606 C 34.9761,41.0646 33.6501,39.3156 32.4191,37.4906 C 31.4601,35.8956 30.2501,34.3716 29.8491,32.4266 C 29.7111,32.7386 29.5461,33.0746 29.2061,33.2456 L 31.1371,46.4896 L 28.6841,33.3056 C 28.6741,33.3046 28.6651,33.3056 28.6551,33.3046 C 28.2491,33.2446 27.8421,33.0506 27.5221,33.0096 C 27.4781,33.0036 27.4441,33.0066 27.4071,33.0066 C 28.0901,35.1566 27.5341,37.1736 27.2831,39.1666 C 26.8981,41.2876 26.3971,43.3786 25.8191,45.4306 C 26.3151,43.3516 26.7291,41.2416 27.0241,39.1136 C 27.2321,37.1466 27.6011,34.9086 26.9401,33.1436 C 26.8151,33.2126 26.6811,33.2986 26.5441,33.3846 C 26.2591,33.5626 25.9441,33.7566 25.5641,33.7086 C 25.3471,33.6736 25.1801,33.5656 25.0341,33.4356 C 24.4291,34.5056 23.5891,35.6386 22.6111,36.7606 C 21.3061,41.2516 20.9711,46.3706 21.9981,48.1816 C 25.2981,54.0076 30.3361,47.8946 31.2791,47.7366 C 32.0751,47.6056 40.0411,52.0336 40.3061,45.5866 Z" transform=""/><path fill="#c75e72" stroke="none" d="M 40.3061,45.5866 C 40.3971,43.3636 37.9201,37.8656 34.8351,33.8096 C 33.5571,33.0956 32.3501,32.3236 31.3081,31.5296 C 30.8941,31.6326 30.4581,31.6466 30.2551,31.8016 C 30.3691,33.6676 31.6331,35.6046 32.6361,37.3436 C 33.7881,39.2066 35.0431,41.0086 36.3691,42.7606 C 34.9761,41.0646 33.6501,39.3156 32.4191,37.4906 C 31.4601,35.8956 30.2501,34.3716 29.8491,32.4266 C 29.7111,32.7386 29.5461,33.0746 29.2061,33.2456 L 31.1371,46.4896 L 28.6841,33.3056 C 28.6741,33.3046 28.6651,33.3056 28.6551,33.3046 C 28.2491,33.2446 27.8421,33.0506 27.5221,33.0096 C 27.4781,33.0036 27.4441,33.0066 27.4071,33.0066 C 28.0901,35.1566 27.5341,37.1736 27.2831,39.1666 C 26.8981,41.2876 26.3971,43.3786 25.8191,45.4306 C 26.3151,43.3516 26.7291,41.2416 27.0241,39.1136 C 27.2321,37.1466 27.6011,34.9086 26.9401,33.1436 C 26.8151,33.2126 26.6811,33.2986 26.5441,33.3846 C 26.2591,33.5626 25.9441,33.7566 25.5641,33.7086 C 25.3471,33.6736 25.1801,33.5656 25.0341,33.4356 C 24.4291,34.5056 23.5891,35.6386 22.6111,36.7606 C 21.3061,41.2516 20.9711,46.3706 21.9981,48.1816 C 25.2981,54.0076 30.3361,47.8946 31.2791,47.7366 C 32.0751,47.6056 40.0411,52.0336 40.3061,45.5866 Z" transform=""/><path fill="#ffffff" stroke="none" d="M 32.1351,30.8362 S 32.1351,30.8372 32.1351,30.8372 C 32.1161,30.9532 32.0731,31.0682 31.9931,31.1722 C 31.8181,31.3642 31.5691,31.4642 31.3091,31.5292 C 32.3511,32.3232 33.5571,33.0952 34.8361,33.8092 C 33.9681,32.6702 33.0541,31.6432 32.1351,30.8362 Z" transform=""/><path fill="url(#r-cf0cf624a0bc426e89a5eed4892c2953)" stroke="none" d="M 32.1351,30.8362 S 32.1351,30.8372 32.1351,30.8372 C 32.1161,30.9532 32.0731,31.0682 31.9931,31.1722 C 31.8181,31.3642 31.5691,31.4642 31.3091,31.5292 C 32.3511,32.3232 33.5571,33.0952 34.8361,33.8092 C 33.9681,32.6702 33.0541,31.6432 32.1351,30.8362 Z" opacity="1" fill-opacity="1" style="opacity: 1;fill-opacity: 1" transform=""/><path fill="url(#r-aebe5251862348ea8f6ec8787d47a751)" stroke="none" d="M 32.1351,30.8362 S 32.1351,30.8372 32.1351,30.8372 C 32.1161,30.9532 32.0731,31.0682 31.9931,31.1722 C 31.8181,31.3642 31.5691,31.4642 31.3091,31.5292 C 32.3511,32.3232 33.5571,33.0952 34.8361,33.8092 C 33.9681,32.6702 33.0541,31.6432 32.1351,30.8362 Z" opacity="1" fill-opacity="1" style="opacity: 1;fill-opacity: 1" transform=""/><path fill="#ffffff" stroke="none" d="M 24.738,33.1269 C 24.563,32.9129 24.393,32.7109 24.235,32.6069 C 23.594,33.8229 23.047,35.2559 22.609,36.7599 C 23.588,35.6389 24.428,34.5059 25.033,33.4349 C 24.926,33.3399 24.829,33.2329 24.738,33.1269 Z" transform=""/><path fill="url(#r-1e825d82adaf490c8b5c5e7419f29ce3)" stroke="none" d="M 24.738,33.1269 C 24.563,32.9129 24.393,32.7109 24.235,32.6069 C 23.594,33.8229 23.047,35.2559 22.609,36.7599 C 23.588,35.6389 24.428,34.5059 25.033,33.4349 C 24.926,33.3399 24.829,33.2329 24.738,33.1269 Z" opacity="1" fill-opacity="1" style="opacity: 1;fill-opacity: 1" transform=""/><path fill="url(#r-45e54749bf04419ebf5615aca55fa745)" stroke="none" d="M 24.738,33.1269 C 24.563,32.9129 24.393,32.7109 24.235,32.6069 C 23.594,33.8229 23.047,35.2559 22.609,36.7599 C 23.588,35.6389 24.428,34.5059 25.033,33.4349 C 24.926,33.3399 24.829,33.2329 24.738,33.1269 Z" opacity="1" fill-opacity="1" style="opacity: 1;fill-opacity: 1" transform=""/><path fill="#7a3440" stroke="none" d="M 28.6836,33.3057 L 31.1376,46.4897 L 29.2066,33.2457 C 29.1996,33.2487 29.1946,33.2547 29.1886,33.2577 C 29.0226,33.3247 28.8476,33.3277 28.6836,33.3057 Z" transform=""/><path fill="#7a3440" stroke="none" d="M 29.8482,32.4269 C 30.2492,34.3709 31.4592,35.8959 32.4192,37.4899 C 33.6502,39.3159 34.9762,41.0649 36.3682,42.7599 C 35.0422,41.0089 33.7872,39.2059 32.6352,37.3429 C 31.6322,35.6039 30.3682,33.6669 30.2552,31.8019 C 30.2472,31.8079 30.2362,31.8109 30.2302,31.8169 C 30.0642,31.9219 29.9652,32.1649 29.8482,32.4269 Z" transform=""/><path fill="#7a3440" stroke="none" d="M 26.9382,33.1435 C 27.5992,34.9095 27.2312,37.1475 27.0222,39.1135 C 26.7282,41.2405 26.3132,43.3505 25.8172,45.4305 C 26.3962,43.3785 26.8972,41.2885 27.2812,39.1675 C 27.5322,37.1735 28.0882,35.1565 27.4052,33.0065 C 27.3702,33.0065 27.3322,33.0005 27.3012,33.0035 C 27.1982,33.0155 27.0742,33.0685 26.9382,33.1435 Z" transform=""/><path fill="#7a3440" stroke="none" d="M 31.7421,29.5404 C 31.7551,29.4714 31.7741,29.4044 31.8031,29.3394 C 31.9431,29.0454 32.2481,28.8564 32.5121,28.6614 C 32.7811,28.4704 32.9911,28.2804 33.0151,28.1054 C 33.0531,27.9304 32.9161,27.6944 32.7251,27.4364 C 32.5441,27.1774 32.3161,26.9114 32.2851,26.5954 C 32.2771,26.5224 32.2841,26.4534 32.2961,26.3844 C 32.3811,25.9494 32.7191,25.5224 32.7661,25.2084 C 32.7811,25.1284 32.7771,25.0594 32.7551,25.0024 C 32.6711,24.6384 31.7311,24.4684 31.3371,23.9704 C 31.0011,23.4274 31.2201,22.5814 30.8991,22.3734 C 30.8301,22.3144 30.7281,22.2774 30.5921,22.2584 C 30.2731,22.2094 29.8191,22.2794 29.4151,22.2244 C 29.3081,22.2094 29.2041,22.1854 29.1031,22.1414 C 28.7891,21.9974 28.5941,21.7144 28.3841,21.4724 C 28.1811,21.2234 27.9791,21.0344 27.7901,21.0144 C 27.6011,20.9804 27.3441,21.1044 27.0661,21.2824 C 26.7861,21.4554 26.5011,21.6704 26.1501,21.7184 C 26.0421,21.7324 25.9341,21.7264 25.8261,21.7114 C 25.4251,21.6504 25.0151,21.4584 24.6991,21.4174 C 24.5601,21.3974 24.4511,21.4044 24.3641,21.4414 C 23.9901,21.5494 23.9091,22.4134 23.4031,22.8364 C 22.8551,23.2014 21.9071,23.1024 21.6991,23.4244 C 21.6601,23.4724 21.6331,23.5374 21.6181,23.6174 C 21.5561,23.9284 21.7331,24.4294 21.6651,24.8674 C 21.6521,24.9354 21.6331,25.0044 21.6041,25.0684 C 21.4641,25.3634 21.1581,25.5504 20.8961,25.7464 C 20.6271,25.9394 20.4151,26.1274 20.3921,26.3034 C 20.3561,26.4754 20.4911,26.7144 20.6811,26.9724 C 20.8621,27.2324 21.0911,27.4974 21.1231,27.8154 C 21.1271,27.8854 21.1231,27.9534 21.1111,28.0224 C 21.0281,28.4564 20.6881,28.8834 20.6411,29.1974 C 20.6271,29.2784 20.6301,29.3484 20.6521,29.4064 C 20.7371,29.7684 21.6741,29.9404 22.0701,30.4404 C 22.4061,30.9834 22.1871,31.8274 22.5071,32.0364 C 22.5761,32.0924 22.6791,32.1294 22.8151,32.1504 C 23.1341,32.1974 23.5861,32.1294 23.9901,32.1844 C 24.0981,32.2004 24.2051,32.2244 24.3031,32.2684 C 24.6161,32.4104 24.8161,32.6944 25.0211,32.9374 C 25.2251,33.1874 25.4271,33.3744 25.6191,33.3964 C 25.8061,33.4284 26.0641,33.3054 26.3421,33.1264 C 26.6211,32.9544 26.9061,32.7394 27.2521,32.6894 C 27.3621,32.6764 27.4731,32.6814 27.5781,32.6964 C 27.9831,32.7554 28.3891,32.9494 28.7081,32.9924 C 28.8461,33.0104 28.9561,33.0044 29.0421,32.9684 C 29.4171,32.8604 29.4971,31.9964 30.0041,31.5734 C 30.5521,31.2084 31.5011,31.3064 31.7061,30.9864 C 31.7491,30.9354 31.7721,30.8714 31.7881,30.7894 C 31.8511,30.4764 31.6731,29.9754 31.7421,29.5404 L 31.7421,29.5404 M 28.4431,31.4424 C 28.3181,31.4914 28.1901,31.4924 28.0681,31.4754 C 27.7851,31.4334 27.4991,31.2974 27.2761,31.2674 C 27.2201,31.2584 27.1701,31.2564 27.1221,31.2644 C 26.8201,31.2784 26.4211,31.8044 25.9051,31.7574 C 25.3961,31.6584 25.2001,31.0454 24.9151,30.9474 C 24.8741,30.9324 24.8241,30.9184 24.7661,30.9104 C 24.5431,30.8734 24.2261,30.9224 23.9441,30.8864 C 23.8191,30.8684 23.6991,30.8314 23.5981,30.7484 C 23.2441,30.4184 23.4411,29.8124 23.2511,29.5864 C 23.1131,29.3424 22.4171,29.2464 22.2321,28.8124 C 22.2011,28.7304 22.2011,28.6444 22.2161,28.5624 C 22.2741,28.2634 22.5111,27.9664 22.5441,27.7404 C 22.5501,27.7064 22.5541,27.6734 22.5511,27.6454 C 22.5571,27.3784 21.9891,27.0014 22.0411,26.5374 C 22.1501,26.0814 22.8201,25.8804 22.9061,25.6254 C 22.9171,25.5974 22.9251,25.5674 22.9321,25.5334 C 22.9771,25.3074 22.8531,24.9574 22.9011,24.6584 C 22.9161,24.5774 22.9431,24.4954 23.0011,24.4254 C 23.3281,24.0664 24.0221,24.1684 24.2371,23.9744 C 24.4941,23.8124 24.5161,23.1804 24.9651,22.9674 C 25.0871,22.9174 25.2171,22.9154 25.3411,22.9324 C 25.6221,22.9754 25.9061,23.1084 26.1311,23.1394 C 26.1881,23.1464 26.2421,23.1494 26.2861,23.1454 C 26.5881,23.1294 26.9871,22.6054 27.5051,22.6514 C 28.0111,22.7514 28.2101,23.3634 28.4931,23.4594 C 28.5341,23.4774 28.5831,23.4904 28.6421,23.4984 C 28.8631,23.5324 29.1811,23.4824 29.4631,23.5214 C 29.5881,23.5394 29.7101,23.5764 29.8091,23.6594 C 30.1641,23.9894 29.9661,24.5944 30.1561,24.8214 C 30.2941,25.0644 30.9911,25.1614 31.1771,25.5944 C 31.2061,25.6784 31.2061,25.7624 31.1931,25.8434 C 31.1361,26.1414 30.8981,26.4404 30.8631,26.6654 C 30.8571,26.6994 30.8561,26.7304 30.8581,26.7614 C 30.8521,27.0284 31.4181,27.4054 31.3681,27.8704 C 31.2571,28.3264 30.5901,28.5294 30.5031,28.7834 C 30.4911,28.8114 30.4831,28.8404 30.4761,28.8734 C 30.4321,29.1004 30.5551,29.4484 30.5071,29.7464 C 30.4931,29.8294 30.4631,29.9094 30.4071,29.9834 C 30.0831,30.3414 29.3861,30.2414 29.1731,30.4354 C 28.9131,30.5944 28.8921,31.2264 28.4431,31.4424 Z" transform=""/><path fill="#ffffff" stroke="none" d="M 32.1351,30.837 S 32.1351,30.836 32.1351,30.836 C 32.2031,30.407 32.0291,29.912 32.0941,29.59 C 32.1001,29.543 32.1121,29.498 32.1311,29.46 C 32.2011,29.295 32.4601,29.104 32.7341,28.909 C 32.7941,28.865 32.8551,28.819 32.9151,28.771 C 33.0511,28.664 33.1791,28.545 33.2661,28.401 C 33.3121,28.326 33.3471,28.245 33.3651,28.154 C 33.4141,27.837 33.2401,27.57 33.0671,27.321 C 33.0511,27.301 33.0381,27.279 33.0241,27.26 C 32.9011,27.094 32.7881,26.934 32.7161,26.793 C 32.6741,26.712 32.6411,26.634 32.6381,26.569 C 32.6341,26.526 32.6381,26.481 32.6461,26.434 C 32.6501,26.403 32.6681,26.367 32.6771,26.334 C 32.7141,26.207 32.7751,26.07 32.8501,25.923 C 32.9571,25.712 33.0721,25.486 33.1161,25.26 C 33.1381,25.143 33.1371,25.022 33.0941,24.902 C 32.8981,24.45 32.3161,24.255 31.9391,24.045 C 31.8021,23.969 31.6901,23.89 31.6371,23.797 C 31.5471,23.69 31.5201,23.521 31.5021,23.328 C 31.4671,22.941 31.4801,22.452 31.1421,22.137 C 31.0011,22.019 30.8241,21.966 30.6481,21.941 C 30.5041,21.922 30.3551,21.92 30.2061,21.922 C 30.0261,21.923 29.8501,21.928 29.6911,21.925 C 29.6131,21.922 29.5391,21.92 29.4721,21.91 C 29.3891,21.897 29.3181,21.879 29.2591,21.853 C 29.0861,21.781 28.8961,21.556 28.6981,21.315 C 28.6881,21.303 28.6791,21.292 28.6681,21.28 C 28.5641,21.157 28.4541,21.028 28.3241,20.921 C 28.2001,20.82 28.0561,20.744 27.8831,20.709 C 27.8701,20.706 27.8611,20.7 27.8471,20.697 C 27.6471,20.673 27.4671,20.716 27.2991,20.786 C 27.1461,20.851 27.0021,20.937 26.8651,21.022 C 26.5791,21.205 26.3051,21.383 26.1051,21.403 C 26.0421,21.411 25.9681,21.408 25.8841,21.396 C 25.6891,21.37 25.4611,21.29 25.2201,21.216 C 25.0681,21.17 24.9121,21.125 24.7551,21.102 C 24.6321,21.084 24.5051,21.09 24.3791,21.114 C 24.3261,21.124 24.2721,21.128 24.2201,21.15 C 23.5771,21.456 23.5471,22.359 23.1801,22.592 C 23.0601,22.698 22.8361,22.742 22.5811,22.785 C 22.3991,22.816 22.2021,22.85 22.0131,22.904 C 21.7861,22.969 21.5711,23.064 21.4151,23.235 C 21.3351,23.335 21.2901,23.452 21.2701,23.567 C 21.2631,23.608 21.2681,23.653 21.2651,23.696 C 21.2521,23.942 21.2901,24.198 21.3141,24.43 C 21.3301,24.572 21.3381,24.707 21.3171,24.818 C 21.3081,24.867 21.2951,24.909 21.2771,24.948 C 21.2681,24.97 21.2491,24.992 21.2341,25.013 C 21.1651,25.117 21.0411,25.228 20.8871,25.343 C 20.8191,25.393 20.7481,25.446 20.6751,25.498 C 20.4071,25.697 20.1091,25.912 20.0431,26.252 C 20.0001,26.527 20.1261,26.765 20.2751,26.986 C 20.3121,27.04 20.3491,27.094 20.3851,27.146 C 20.5171,27.327 20.6421,27.5 20.7111,27.649 C 20.7431,27.717 20.7661,27.782 20.7681,27.837 C 20.7731,27.878 20.7691,27.923 20.7611,27.972 C 20.7121,28.295 20.3741,28.721 20.2931,29.147 C 20.2721,29.263 20.2711,29.385 20.3151,29.506 C 20.3721,29.639 20.4681,29.748 20.5791,29.844 C 20.7031,29.951 20.8471,30.041 20.9971,30.12 C 21.3271,30.294 21.6661,30.422 21.7721,30.61 C 21.8281,30.677 21.8571,30.772 21.8781,30.878 C 21.9081,31.031 21.9161,31.21 21.9331,31.4 C 21.9461,31.552 21.9671,31.708 22.0131,31.855 C 22.0581,31.993 22.1301,32.122 22.2361,32.232 C 22.2481,32.244 22.2541,32.258 22.2671,32.27 C 22.4111,32.386 22.5871,32.438 22.7601,32.465 C 23.1641,32.518 23.6181,32.449 23.9351,32.496 C 24.0181,32.508 24.0881,32.528 24.1471,32.554 C 24.1761,32.566 24.2051,32.588 24.2351,32.607 C 24.3931,32.713 24.5631,32.913 24.7381,33.128 C 24.8291,33.233 24.9261,33.34 25.0331,33.436 C 25.1781,33.567 25.3451,33.675 25.5621,33.709 C 25.9421,33.758 26.2581,33.563 26.5421,33.386 C 26.6801,33.298 26.8141,33.213 26.9381,33.144 C 27.0741,33.07 27.1981,33.016 27.3021,33.005 C 27.3331,33 27.3711,33.007 27.4061,33.008 C 27.4431,33.008 27.4781,33.004 27.5211,33.01 C 27.8411,33.052 28.2481,33.245 28.6541,33.305 C 28.6641,33.306 28.6731,33.305 28.6831,33.306 C 28.8471,33.328 29.0211,33.325 29.1881,33.259 C 29.1951,33.256 29.1991,33.251 29.2051,33.247 C 29.5441,33.076 29.7101,32.739 29.8481,32.428 C 29.9641,32.166 30.0631,31.922 30.2301,31.818 C 30.2371,31.812 30.2471,31.808 30.2551,31.802 C 30.4581,31.648 30.8931,31.633 31.3081,31.53 C 31.5671,31.465 31.8171,31.366 31.9921,31.173 C 32.0731,31.069 32.1151,30.953 32.1351,30.837 L 32.1351,30.837 M 31.7051,30.985 C 31.5011,31.305 30.5511,31.207 30.0031,31.572 C 29.4971,31.995 29.4171,32.859 29.0411,32.967 C 28.9551,33.003 28.8451,33.009 28.7071,32.991 C 28.3891,32.948 27.9821,32.754 27.5781,32.695 C 27.4721,32.68 27.3621,32.675 27.2511,32.688 C 26.9061,32.738 26.6211,32.952 26.3411,33.125 C 26.0631,33.305 25.8051,33.428 25.6181,33.395 C 25.4271,33.372 25.2241,33.185 25.0201,32.936 C 24.8151,32.694 24.6151,32.409 24.3031,32.267 C 24.2051,32.223 24.0981,32.198 23.9901,32.183 C 23.5861,32.128 23.1331,32.196 22.8151,32.149 C 22.6781,32.128 22.5751,32.091 22.5061,32.035 C 22.1861,31.826 22.4061,30.982 22.0691,30.439 C 21.6741,29.939 20.7361,29.767 20.6511,29.405 C 20.6301,29.347 20.6261,29.277 20.6411,29.196 C 20.6881,28.881 21.0271,28.455 21.1101,28.021 C 21.1221,27.952 21.1261,27.884 21.1221,27.814 C 21.0901,27.496 20.8621,27.23 20.6801,26.971 C 20.4901,26.713 20.3551,26.474 20.3911,26.302 C 20.4141,26.127 20.6261,25.938 20.8951,25.745 C 21.1581,25.549 21.4641,25.362 21.6031,25.067 C 21.6331,25.003 21.6511,24.934 21.6641,24.866 C 21.7331,24.428 21.5551,23.927 21.6181,23.616 C 21.6331,23.536 21.6611,23.472 21.6981,23.423 C 21.9061,23.102 22.8551,23.201 23.4021,22.835 C 23.9091,22.412 23.9891,21.548 24.3631,21.44 C 24.4501,21.403 24.5601,21.396 24.6981,21.415 C 25.0151,21.457 25.4241,21.649 25.8261,21.71 C 25.9331,21.725 26.0411,21.731 26.1491,21.717 C 26.5001,21.669 26.7861,21.453 27.0661,21.281 C 27.3431,21.102 27.6001,20.979 27.7891,21.013 C 27.9781,21.032 28.1811,21.222 28.3831,21.471 C 28.5931,21.713 28.7881,21.996 29.1021,22.14 C 29.2031,22.184 29.3071,22.208 29.4141,22.223 C 29.8181,22.278 30.2731,22.207 30.5911,22.257 C 30.7281,22.276 30.8291,22.313 30.8991,22.372 C 31.2191,22.58 31.0001,23.426 31.3361,23.969 C 31.7301,24.466 32.6701,24.637 32.7541,25 C 32.7751,25.059 32.7801,25.127 32.7651,25.207 C 32.7181,25.52 32.3801,25.947 32.2951,26.383 C 32.2841,26.452 32.2771,26.521 32.2841,26.594 C 32.3151,26.91 32.5431,27.175 32.7241,27.435 C 32.9161,27.692 33.0521,27.929 33.0141,28.104 C 32.9901,28.278 32.7811,28.468 32.5111,28.66 C 32.2471,28.855 31.9411,29.044 31.8021,29.338 C 31.7731,29.402 31.7541,29.47 31.7411,29.539 C 31.6721,29.975 31.8511,30.475 31.7871,30.786 C 31.7711,30.869 31.7481,30.934 31.7051,30.985 Z" transform=""/><path fill="#eec65e" stroke="none" d="M 30.4063,29.9824 C 30.4623,29.9084 30.4923,29.8284 30.5063,29.7454 C 30.5543,29.4484 30.4313,29.0994 30.4753,28.8724 C 30.4823,28.8394 30.4903,28.8104 30.5033,28.7824 C 30.5893,28.5274 31.2563,28.3264 31.3673,27.8694 C 31.4173,27.4054 30.8513,27.0284 30.8573,26.7614 C 30.8563,26.7294 30.8563,26.6984 30.8623,26.6654 C 30.8973,26.4384 31.1343,26.1414 31.1923,25.8424 C 31.2063,25.7614 31.2063,25.6774 31.1763,25.5934 C 30.9913,25.1614 30.2933,25.0634 30.1553,24.8204 C 29.9653,24.5944 30.1633,23.9884 29.8083,23.6584 C 29.7093,23.5754 29.5873,23.5384 29.4623,23.5204 C 29.1803,23.4824 28.8623,23.5314 28.6413,23.4974 C 28.5823,23.4894 28.5323,23.4764 28.4923,23.4584 C 28.2093,23.3634 28.0103,22.7504 27.5043,22.6504 C 26.9853,22.6054 26.5873,23.1294 26.2853,23.1454 C 26.2413,23.1484 26.1873,23.1464 26.1303,23.1384 C 25.9053,23.1084 25.6213,22.9744 25.3403,22.9314 C 25.2163,22.9154 25.0863,22.9164 24.9643,22.9664 C 24.5153,23.1804 24.4933,23.8114 24.2363,23.9744 C 24.0223,24.1674 23.3283,24.0664 23.0003,24.4244 C 22.9433,24.4954 22.9153,24.5764 22.9003,24.6574 C 22.8523,24.9574 22.9763,25.3064 22.9313,25.5324 C 22.9243,25.5674 22.9153,25.5974 22.9053,25.6244 C 22.8193,25.8794 22.1493,26.0804 22.0403,26.5364 C 21.9883,27.0004 22.5563,27.3784 22.5503,27.6454 C 22.5533,27.6724 22.5493,27.7054 22.5443,27.7404 C 22.5103,27.9664 22.2743,28.2624 22.2153,28.5614 C 22.2003,28.6434 22.2003,28.7294 22.2313,28.8114 C 22.4163,29.2454 23.1123,29.3424 23.2503,29.5854 C 23.4403,29.8124 23.2433,30.4174 23.5973,30.7484 C 23.6983,30.8294 23.8183,30.8664 23.9433,30.8854 C 24.2253,30.9204 24.5423,30.8724 24.7653,30.9094 C 24.8233,30.9174 24.8733,30.9314 24.9143,30.9474 C 25.1993,31.0444 25.3953,31.6564 25.9053,31.7564 C 26.4203,31.8034 26.8193,31.2774 27.1213,31.2634 C 27.1693,31.2564 27.2193,31.2574 27.2753,31.2674 C 27.4983,31.2964 27.7843,31.4324 28.0673,31.4744 C 28.1893,31.4914 28.3173,31.4914 28.4423,31.4414 C 28.8913,31.2254 28.9123,30.5944 29.1713,30.4334 C 29.3853,30.2404 30.0823,30.3404 30.4063,29.9824 Z" transform=""/></svg>