<svg xmlns="http://www.w3.org/2000/svg" version="1.1" width="54" height="54" viewBox="0 0 54 54"><defs/><path fill="#d14e3f" stroke="none" d="M 48.9425,26.8815 C 48.9415,26.8555 48.9405,26.8345 48.9375,26.8075 C 48.9355,26.7475 48.9325,26.6895 48.9285,26.6295 C 48.9275,26.6155 48.9275,26.5995 48.9255,26.5825 C 48.9065,26.3055 48.8765,26.0385 48.8475,25.7685 C 48.8295,25.6075 48.8165,25.4425 48.7935,25.2835 C 48.7565,25.0185 48.7045,24.7635 48.6535,24.5075 C 48.6325,24.4035 48.6185,24.2955 48.5955,24.1935 L 48.5855,24.1935 L 48.5845,24.1885 C 47.9245,21.2625 46.3945,18.9365 44.3655,17.2785 L 44.3695,17.2775 L 44.3415,17.2545 L 44.3375,17.2545 L 44.3345,17.2545 C 42.8585,16.0545 41.1195,15.2095 39.2605,14.7385 C 38.7035,14.6135 38.1375,14.5305 37.5645,14.4705 C 37.4535,14.4505 37.3385,14.4445 37.2265,14.4315 C 37.2015,14.4295 37.1795,14.4255 37.1545,14.4235 C 37.1625,14.4245 37.1695,14.4265 37.1765,14.4275 C 37.1655,14.4265 37.1545,14.4255 37.1425,14.4245 C 37.1385,14.4235 37.1335,14.4235 37.1285,14.4215 C 37.1175,14.4215 37.1075,14.4215 37.0965,14.4205 C 36.9555,14.4075 36.8155,14.3845 36.6735,14.3845 C 36.6285,14.3835 36.5845,14.3925 36.5395,14.3935 C 36.1935,14.3815 35.8465,14.3765 35.4985,14.3885 C 35.5885,14.3975 35.6795,14.4015 35.7685,14.4115 C 35.5435,14.4165 35.2935,14.4225 35.0205,14.4285 C 34.9795,14.4265 34.9375,14.4235 34.8965,14.4205 C 34.3895,14.4585 33.8815,14.5215 33.3765,14.6115 C 33.0455,14.6705 32.7155,14.7395 32.3875,14.8205 C 32.3895,14.8215 32.3925,14.8225 32.3945,14.8235 C 32.3915,14.8225 32.3895,14.8215 32.3865,14.8205 C 32.0195,14.9105 31.6545,15.0155 31.2925,15.1345 C 31.5495,15.2465 31.9145,15.3365 32.3025,15.3475 C 31.8905,15.3365 31.5355,15.2465 31.2875,15.1365 C 30.6515,15.3455 29.9045,15.6535 29.2885,15.9515 C 29.2925,15.9515 29.2965,15.9515 29.3005,15.9525 C 29.0275,16.0865 28.7565,16.2275 28.4895,16.3795 C 27.7605,16.7965 26.6635,16.7885 25.9415,16.3615 C 25.8705,16.3195 25.7985,16.2795 25.7265,16.2395 C 24.8525,15.7415 23.8365,15.3035 22.9035,14.9925 C 22.9035,14.9915 22.9055,14.9915 22.9055,14.9895 C 22.8905,14.9855 22.8755,14.9815 22.8605,14.9765 C 22.8445,14.9715 22.8275,14.9645 22.8115,14.9595 C 22.8115,14.9605 22.8105,14.9615 22.8095,14.9625 C 22.5825,14.8905 22.3545,14.8235 22.1255,14.7625 C 21.9925,14.8185 21.8185,14.8665 21.7405,14.8875 C 21.7375,14.8875 21.7365,14.8885 21.7345,14.8895 L 21.7165,14.8945 L 21.7135,14.8945 C 21.7195,14.8925 21.7315,14.8895 21.7405,14.8875 C 21.9345,14.8325 22.0475,14.7945 22.1205,14.7625 C 21.9335,14.7125 21.7465,14.6665 21.5585,14.6245 C 21.5495,14.6245 21.5405,14.6245 21.5315,14.6255 C 21.5055,14.6255 21.4795,14.6265 21.4535,14.6265 C 21.0925,14.5935 20.2835,14.5345 20.0185,14.5355 C 19.7735,14.5375 19.5505,14.5385 19.3485,14.5395 C 18.9775,14.5455 18.6075,14.5775 18.2405,14.6235 L 17.9645,14.6265 C 17.9175,14.6335 17.8715,14.6475 17.8245,14.6555 C 17.6425,14.6555 17.4725,14.6565 17.3215,14.6555 C 17.3295,14.6515 17.3455,14.6475 17.3635,14.6425 C 17.3595,14.6415 17.3545,14.6425 17.3495,14.6415 C 17.3655,14.6385 17.3885,14.6365 17.4045,14.6335 C 17.5415,14.6055 17.8285,14.5745 18.2465,14.5555 C 18.2805,14.5535 18.3135,14.5525 18.3475,14.5515 C 18.4615,14.5465 18.5815,14.5425 18.7115,14.5405 C 18.5705,14.5405 18.4475,14.5405 18.3425,14.5405 L 18.2915,14.5405 L 18.2905,14.5405 C 18.2565,14.5425 18.2195,14.5435 18.1835,14.5445 C 18.0085,14.5515 17.8255,14.5665 16.6945,14.6555 C 16.5775,14.6535 16.4835,14.6535 16.4125,14.6525 C 14.7465,14.8655 13.1425,15.3715 11.6885,16.1475 C 11.0405,16.4305 10.4255,16.8355 9.85247,17.3445 C 9.68447,17.4755 9.51447,17.6035 9.35347,17.7435 L 9.35247,17.7435 L 9.33947,17.7535 L 9.34047,17.7535 C 7.36747,19.4655 5.90847,21.8265 5.32847,24.7635 L 5.32447,24.7815 C 4.75947,27.6655 5.04147,31.1015 6.51647,35.0195 C 6.53647,35.0735 6.55647,35.1265 6.57747,35.1795 L 6.57547,35.1795 L 6.57747,35.1845 L 6.57847,35.1855 C 7.71847,38.1885 9.09647,41.2135 10.7445,43.8515 L 10.7545,43.8685 C 12.4025,46.5055 14.3205,48.7575 16.5395,50.2205 C 16.6025,50.2225 16.6845,50.2235 16.7825,50.2235 C 16.6835,50.2235 16.6025,50.2225 16.5385,50.2205 C 16.5385,50.2205 16.5525,50.2305 16.5525,50.2305 C 17.8295,51.0695 19.2055,51.6495 20.6855,51.8915 C 21.0185,51.9305 21.3445,51.9575 21.6515,51.9745 C 21.8515,51.9865 22.0425,51.9945 22.2215,52.0005 C 22.2325,52.0005 22.3285,51.9935 22.3955,51.9885 C 22.4055,51.9905 22.4145,51.9925 22.4255,51.9935 C 22.5505,51.9905 22.6725,51.9895 22.7995,51.9815 C 22.7955,51.9815 22.7915,51.9805 22.7875,51.9805 C 22.7915,51.9805 22.7965,51.9805 22.8015,51.9815 C 22.9275,51.9735 23.0575,51.9565 23.1845,51.9435 C 22.9405,51.9085 22.6965,51.8705 22.4495,51.8555 C 22.7005,51.8705 22.9485,51.9085 23.1985,51.9415 C 23.3485,51.9265 23.4995,51.9135 23.6515,51.8915 C 23.2065,51.7675 22.7785,51.5425 22.3655,51.2365 C 22.3685,51.2365 22.3715,51.2365 22.3745,51.2375 C 22.7865,51.5425 23.2125,51.7675 23.6565,51.8915 C 24.2685,51.8035 24.8965,51.6655 25.5415,51.4695 C 25.6245,51.4435 25.7155,51.4225 25.8065,51.4035 C 25.8005,51.3985 25.7945,51.3935 25.7895,51.3885 C 25.7955,51.3945 25.8015,51.3985 25.8075,51.4025 C 26.0695,51.3455 26.3625,51.3115 26.6625,51.2985 C 26.6685,51.2985 26.6735,51.2955 26.6785,51.2945 L 26.6805,51.2945 L 26.6905,51.2945 C 26.6995,51.2955 26.7075,51.2965 26.7155,51.2975 C 27.0685,51.2855 27.4285,51.3025 27.7615,51.3505 C 27.7695,51.3455 27.7825,51.3425 27.7915,51.3375 C 27.9255,51.4335 28.2745,51.4515 28.3905,51.4885 C 28.8185,51.6265 29.2365,51.7285 29.6505,51.8165 C 29.7535,51.7925 29.8575,51.7715 29.9635,51.7625 C 29.9635,51.7625 29.9925,51.7615 29.9985,51.7615 L 29.9985,51.7615 L 29.9655,51.7635 L 29.9635,51.7635 C 29.8585,51.7715 29.7565,51.7935 29.6535,51.8185 C 29.7715,51.8425 29.8905,51.8695 30.0075,51.8905 C 30.0135,51.8885 30.0165,51.8865 30.0225,51.8855 C 30.0165,51.8875 30.0145,51.8895 30.0095,51.8915 C 30.0685,51.9015 30.1295,51.9175 30.1885,51.9265 C 31.4145,51.8995 32.5115,51.2115 33.4885,50.0435 C 33.4875,50.0435 33.4855,50.0435 33.4835,50.0435 C 33.5575,49.9585 33.6265,49.8665 33.6985,49.7785 C 33.6325,49.8635 33.5685,49.9545 33.5005,50.0345 C 33.7865,50.0295 34.0665,50.0245 34.3375,50.0195 C 34.0665,50.0245 33.7865,50.0295 33.4925,50.0435 C 32.5115,51.2105 31.4145,51.8995 30.1885,51.9265 C 30.1965,51.9285 30.2025,51.9285 30.2105,51.9305 C 30.3115,51.9275 30.4125,51.9265 30.5095,51.9245 C 31.2685,51.9095 31.5095,51.9015 32.2325,51.8625 C 32.2335,51.8625 32.2425,51.8605 32.2505,51.8605 C 32.2455,51.8605 32.2395,51.8615 32.2335,51.8625 C 32.4405,51.8495 32.7165,51.8285 32.9225,51.8135 C 33.1455,51.7825 33.3675,51.7405 33.5895,51.7095 C 33.6625,51.6975 33.7065,51.6915 33.7365,51.6885 C 33.7485,51.6875 33.7595,51.6845 33.7705,51.6835 L 33.7815,51.6885 C 33.7405,51.7025 33.6995,51.7175 33.4795,51.7595 C 33.6535,51.7385 33.8845,51.7075 34.0575,51.6825 C 35.4785,51.3875 36.7935,50.7855 38.0085,49.9395 L 38.0105,49.9395 L 38.0415,49.9185 L 38.0385,49.9185 L 38.0365,49.9185 C 40.2105,48.3975 42.0655,46.1065 43.6405,43.4395 C 43.6325,43.4405 43.6225,43.4405 43.6145,43.4405 C 43.6265,43.4375 43.6375,43.4315 43.6485,43.4315 L 43.6635,43.4065 L 43.6705,43.4055 C 43.7695,43.2385 43.8635,43.0655 43.9605,42.8955 C 44.0505,42.7365 44.1435,42.5785 44.2315,42.4175 C 44.3305,42.2355 44.4265,42.0505 44.5235,41.8655 C 44.6045,41.7115 44.6855,41.5595 44.7645,41.4045 C 44.8085,41.3155 44.8215,41.2915 44.8535,41.2355 C 44.8865,41.1715 44.9185,41.1075 44.9505,41.0425 C 45.0065,40.9355 45.0565,40.8405 45.1025,40.7525 C 45.1185,40.7245 45.1295,40.7005 45.1445,40.6755 C 45.1665,40.6325 45.1895,40.5895 45.2095,40.5525 C 45.2225,40.5295 45.2325,40.5105 45.2435,40.4905 C 45.6765,39.5715 46.3875,37.8695 46.5895,37.3815 C 46.6155,37.3115 46.6445,37.2355 46.6765,37.1515 C 47.0095,36.3135 47.3225,35.4675 47.6185,34.6245 C 47.6365,34.5705 47.6555,34.5175 47.6745,34.4625 C 48.0415,33.4055 48.3235,32.3835 48.5295,31.4005 C 48.5475,31.3145 48.5635,31.2435 48.5805,31.1695 C 48.5825,31.1655 48.9905,29.0415 48.9425,26.8815 L 48.9425,26.8815 M 25.0815,16.0605 C 25.0185,16.0315 24.8855,15.9805 24.7205,15.9625 C 24.8705,15.9775 24.9975,16.0185 25.0815,16.0605 L 25.0815,16.0605 M 23.9575,16.2635 C 23.9405,16.2835 23.9225,16.3015 23.9065,16.3255 C 23.9085,16.3205 23.9425,16.2805 23.9575,16.2635 L 23.9575,16.2635 M 20.9975,14.6295 C 20.9985,14.6295 20.9985,14.6295 20.9995,14.6295 L 20.9975,14.6295 L 20.9975,14.6295 L 20.9975,14.6295 M 20.9965,14.6315 L 21.0085,14.6285 L 21.0335,14.6285 C 21.0685,14.6205 21.1415,14.6235 21.2215,14.6275 C 21.1605,14.6285 21.0975,14.6285 21.0375,14.6295 L 21.0335,14.6285 L 21.0085,14.6295 L 20.9965,14.6315 L 20.9965,14.6315 L 20.9965,14.6315 M 5.77047,27.0315 C 5.76847,27.0575 5.76847,27.0845 5.76747,27.1115 C 5.75147,27.2325 5.73647,27.3555 5.73447,27.4755 C 5.73747,27.3225 5.74947,27.1725 5.77047,27.0315 L 5.77047,27.0315 M 9.33147,39.2825 C 8.96547,39.1715 8.61647,38.6255 8.37047,38.0825 C 8.61847,38.6305 8.97347,39.1795 9.34447,39.2835 L 9.33147,39.2825 L 9.33147,39.2825 M 10.6735,41.1095 C 10.8315,41.3795 10.9465,41.6375 11.0245,41.8515 C 10.9415,41.6255 10.8205,41.3635 10.6735,41.1095 L 10.6735,41.1095 M 13.2085,43.8555 L 13.2165,43.8545 C 13.5445,43.8535 13.9055,43.8515 14.2935,43.8495 C 13.9055,43.8525 13.5435,43.8545 13.2085,43.8555 L 13.2085,43.8555 M 18.1475,50.2235 C 17.6315,49.8235 17.1355,49.3655 16.6575,48.8575 C 16.6255,48.8275 16.5985,48.8015 16.5685,48.7735 C 16.5905,48.7935 16.6115,48.8115 16.6335,48.8325 L 16.6575,48.8575 C 17.1365,49.3665 17.6325,49.8245 18.1545,50.2235 L 18.1655,50.2315 S 18.1545,50.2235 18.1475,50.2235 L 18.1475,50.2235 M 19.8225,51.2725 L 19.7955,51.2585 C 19.8165,51.2695 19.8315,51.2765 19.8515,51.2865 C 19.8415,51.2815 19.8345,51.2775 19.8225,51.2725 L 19.8225,51.2725 M 22.4125,51.8545 L 22.4175,51.8545 L 22.3945,51.8555 L 22.4125,51.8545 L 22.4125,51.8545 M 22.7455,51.9745 C 22.5205,51.9445 22.3745,51.9045 22.3515,51.8695 C 22.4035,51.9085 22.5405,51.9465 22.7455,51.9745 L 22.7455,51.9745 M 23.3745,51.2525 L 23.3745,51.2525 C 23.3765,51.2545 23.3775,51.2565 23.3795,51.2585 C 23.3765,51.2565 23.3765,51.2545 23.3745,51.2525 L 23.3745,51.2525 M 24.0175,51.5925 C 24.0055,51.5895 23.9985,51.5845 23.9865,51.5815 C 24.0275,51.5945 24.0685,51.6065 24.1095,51.6165 C 24.0795,51.6085 24.0475,51.6015 24.0175,51.5925 L 24.0175,51.5925 M 24.5265,51.6365 C 24.5245,51.6375 24.5215,51.6365 24.5195,51.6375 C 24.5275,51.6355 24.5325,51.6315 24.5405,51.6295 C 24.5355,51.6305 24.5325,51.6345 24.5265,51.6365 L 24.5265,51.6365 M 24.5975,51.3485 C 24.5985,51.3515 24.6035,51.3545 24.6045,51.3585 C 24.6105,51.3675 24.6105,51.3745 24.6135,51.3835 C 24.6085,51.3725 24.6035,51.3615 24.5975,51.3485 L 24.5975,51.3485 M 25.6725,51.2685 C 25.6695,51.2635 25.6665,51.2565 25.6635,51.2505 C 25.6545,51.2375 25.6445,51.2305 25.6355,51.2165 C 25.6265,51.1965 25.6175,51.1695 25.6085,51.1485 C 25.6265,51.1825 25.6475,51.2165 25.6635,51.2505 C 25.6895,51.2845 25.7135,51.3165 25.7395,51.3425 C 25.7165,51.3185 25.6935,51.2945 25.6725,51.2685 L 25.6725,51.2685 M 41.4725,43.5005 C 41.4465,43.5015 41.4245,43.5025 41.3975,43.5025 C 41.4005,43.4975 41.4035,43.4925 41.4065,43.4865 L 41.4025,43.4955 C 41.4295,43.4945 41.4485,43.4995 41.4725,43.5005 L 41.4725,43.5005 M 39.9875,15.1405 C 39.9135,15.0865 39.7625,15.0115 39.5285,14.9295 C 39.7365,15.0015 39.9005,15.0735 39.9875,15.1405 C 39.9965,15.1465 40.0085,15.1545 40.0155,15.1605 L 40.0125,15.1645 C 40.0235,15.1745 40.0405,15.1855 40.0465,15.1955 L 40.0035,15.2055 L 39.9925,15.2055 C 39.7605,15.1845 39.5335,15.1425 39.3085,15.0925 C 39.2685,15.0705 39.2295,15.0435 39.1885,15.0225 C 39.5165,15.1125 39.8225,15.1845 39.9815,15.1935 L 40.0125,15.1645 C 40.0045,15.1565 39.9975,15.1485 39.9875,15.1405 L 39.9875,15.1405 M 37.9545,14.5625 C 37.9665,14.5645 37.9775,14.5665 37.9895,14.5685 C 37.9785,14.5665 37.9675,14.5645 37.9565,14.5635 C 37.9555,14.5635 37.9555,14.5625 37.9545,14.5625 L 37.9545,14.5625 M 36.3395,14.3975 C 36.3615,14.3985 36.3805,14.4005 36.4015,14.4015 C 36.3955,14.4015 36.3885,14.4025 36.3825,14.4025 C 36.3685,14.4025 36.3545,14.3995 36.3405,14.3985 C 36.1745,14.4025 35.9875,14.4075 35.7815,14.4125 L 35.7765,14.4115 L 35.7765,14.4115 L 35.7705,14.4105 C 35.9815,14.4045 36.1715,14.4005 36.3395,14.3975 L 36.3395,14.3975 M 32.7635,15.2525 C 32.7575,15.2575 32.7525,15.2625 32.7465,15.2655 C 32.7455,15.2655 32.7445,15.2655 32.7435,15.2655 C 32.7525,15.2615 32.7555,15.2575 32.7635,15.2525 C 32.8205,15.2145 32.8505,15.1645 32.8365,15.1095 C 32.8515,15.1565 32.8375,15.2075 32.7635,15.2525 L 32.7635,15.2525 M 32.7525,14.9895 C 32.7565,14.9915 32.7725,15.0075 32.7885,15.0265 C 32.7725,15.0085 32.7485,14.9895 32.7215,14.9705 C 32.7315,14.9775 32.7445,14.9825 32.7525,14.9895 L 32.7525,14.9895 M 32.3445,15.3445 L 32.3245,15.3455 L 32.3225,15.3455 L 32.3445,15.3445 L 32.3445,15.3445 M 32.3195,15.3455 L 32.3175,15.3455 L 32.3015,15.3455 L 32.3195,15.3455 L 32.3195,15.3455 M 30.0895,16.2945 L 30.0975,16.3135 C 30.0745,16.2815 30.0495,16.2605 30.0255,16.2335 C 30.0465,16.2555 30.0715,16.2695 30.0895,16.2945 L 30.0895,16.2945 M 30.0315,51.7595 L 30.0315,51.7595 L 30.0275,51.7595 L 30.0005,51.7585 L 30.0015,51.7585 S 30.0315,51.7595 30.0315,51.7595 C 30.0765,51.7625 30.0975,51.7645 30.1145,51.7705 C 30.0965,51.7645 30.0725,51.7625 30.0315,51.7595 L 30.0315,51.7595 M 30.1305,51.8345 C 30.1445,51.8245 30.1585,51.8125 30.1605,51.7995 C 30.1525,51.7885 30.1415,51.7835 30.1295,51.7785 C 30.1395,51.7835 30.1485,51.7895 30.1625,51.7995 C 30.1575,51.8075 30.1495,51.8205 30.1305,51.8345 L 30.1305,51.8345 M 34.0605,51.3665 C 34.0555,51.3665 34.0505,51.3675 34.0465,51.3675 C 34.0445,51.3675 34.0425,51.3675 34.0405,51.3685 C 34.0225,51.3695 34.0165,51.3685 34.0065,51.3685 C 34.1355,51.3385 34.2665,51.3125 34.3925,51.2685 C 34.2295,51.3295 34.1215,51.3585 34.0605,51.3665 L 34.0605,51.3665 M 34.9725,51.3675 C 34.7025,51.4525 34.5075,51.4945 34.4815,51.4795 C 34.5095,51.4615 34.5565,51.4305 36.0485,50.7485 L 34.4815,51.4795 C 34.5575,51.4795 34.7395,51.4405 34.9725,51.3675 L 34.9725,51.3675 M 36.4135,50.7315 C 36.8785,50.4365 37.1565,50.2645 37.3425,50.1535 C 37.1685,50.2575 36.9055,50.4225 36.4135,50.7315 L 36.4135,50.7315 M 37.1875,49.9445 C 37.1825,50.0365 37.0145,50.1815 36.7975,50.3285 C 36.9905,50.1975 37.1535,50.0585 37.1875,49.9445 C 37.0055,49.9485 36.7995,49.9545 36.5675,49.9595 C 36.7985,49.9545 37.0035,49.9485 37.1875,49.9365 L 37.1845,49.9405 L 37.1875,49.9445 L 37.1875,49.9445 M 37.7565,49.9335 C 37.6645,49.9755 37.5975,50.0075 37.5085,50.0575 C 37.6245,49.9925 37.6895,49.9615 37.7565,49.9335 C 37.7615,49.9305 37.7665,49.9295 37.7715,49.9255 L 37.7725,49.9255 C 37.7675,49.9295 37.7615,49.9305 37.7565,49.9335 L 37.7565,49.9335 M 37.7735,49.9265 C 37.7765,49.9255 37.7795,49.9245 37.7815,49.9225 C 37.7885,49.9225 37.7995,49.9225 37.8065,49.9225 C 37.8065,49.9215 37.7755,49.9265 37.7735,49.9265 L 37.7735,49.9265 M 38.0315,48.5655 C 37.5575,49.0855 37.0645,49.5575 36.5545,49.9715 C 36.0465,50.3785 35.5195,50.7305 34.9695,51.0165 L 34.8975,51.0545 C 34.6835,51.1535 34.5275,51.2185 34.4005,51.2665 C 34.5935,51.1985 34.7825,51.1145 34.9695,51.0165 C 35.5195,50.7295 36.0465,50.3785 36.5505,49.9715 C 37.0645,49.5575 37.5575,49.0865 38.0315,48.5655 C 38.0355,48.5605 38.0375,48.5575 38.0405,48.5535 C 38.0825,48.5015 38.1205,48.4555 38.1525,48.4135 C 38.1195,48.4555 38.0825,48.5015 38.0315,48.5655 L 38.0315,48.5655 M 37.9695,48.0505 C 37.9915,48.0365 38.0175,48.0175 38.0395,48.0045 C 38.0425,48.0025 38.0435,48.0025 38.0465,48.0015 C 38.0205,48.0205 37.9945,48.0375 37.9695,48.0505 L 37.9695,48.0505 M 38.3745,48.0255 C 38.3825,47.9885 38.3815,47.9625 38.3775,47.9435 L 38.3465,47.9145 C 38.3355,47.9105 38.3205,47.9065 38.2995,47.9065 C 38.3115,47.9055 38.3255,47.9035 38.3355,47.9035 L 38.3465,47.9145 C 38.3585,47.9185 38.3685,47.9235 38.3745,47.9265 C 38.3745,47.9315 38.3765,47.9375 38.3845,47.9495 C 38.3835,47.9715 38.3825,47.9955 38.3745,48.0255 L 38.3745,48.0255 M 37.5495,47.3335 C 37.7215,47.0695 38.0455,46.6235 38.4495,46.3115 C 38.1555,46.5455 37.8085,46.9435 37.5495,47.3335 L 37.5495,47.3335 M 38.9855,46.1055 C 38.9955,46.1085 39.0105,46.1045 39.0175,46.1105 C 39.0305,46.1215 39.0335,46.1345 39.0435,46.1455 C 39.0275,46.1255 39.0065,46.1145 38.9855,46.1055 L 38.9855,46.1055 M 39.0815,46.4925 C 39.0755,46.4675 39.0745,46.4475 39.0755,46.4465 C 39.0965,46.3175 39.0895,46.2325 39.0645,46.1775 C 39.1155,46.2755 39.0695,46.3885 39.0815,46.4925 L 39.0815,46.4925 M 40.0205,45.9185 C 39.5925,46.4905 39.3575,46.6375 39.2285,46.6365 C 39.3575,46.6325 39.5945,46.4875 40.0275,45.9075 C 40.0625,45.8515 40.0955,45.7905 40.1315,45.7335 C 40.0935,45.7945 40.0595,45.8585 40.0205,45.9185 L 40.0205,45.9185 M 40.1325,42.7195 C 40.1675,42.6295 40.2085,42.5415 40.2555,42.4575 C 40.2095,42.5525 40.1635,42.6405 40.1325,42.7195 L 40.1325,42.7195 M 41.6145,44.9935 C 41.5965,45.0125 41.5755,45.0385 41.5555,45.0595 C 41.4935,45.1305 41.1965,45.4915 40.9125,45.9055 C 41.1145,45.5915 41.3575,45.2735 41.5555,45.0595 C 41.5655,45.0495 41.5805,45.0305 41.5815,45.0305 C 41.5865,45.0245 41.8425,44.7315 42.0625,44.3935 C 41.8575,44.7145 41.6195,44.9885 41.6145,44.9935 L 41.6145,44.9935 M 42.2505,44.8175 C 42.2505,44.8165 42.2505,44.8155 42.2505,44.8155 C 42.2695,44.7785 42.2935,44.7315 42.3175,44.6875 C 42.2935,44.7315 42.2685,44.7795 42.2505,44.8175 L 42.2505,44.8175 M 42.4905,44.3755 C 42.4915,44.3735 42.4925,44.3725 42.4935,44.3705 C 42.5385,44.2925 42.5885,44.2125 42.6405,44.1345 C 42.5895,44.2135 42.5395,44.2925 42.4905,44.3755 Z" transform=""/><path fill="#d14e3f" stroke="none" d="M 48.5817,31.188 C 48.5837,31.175 48.5847,31.163 48.5867,31.15 C 48.5857,31.156 48.5837,31.161 48.5827,31.166 L 48.5817,31.188 Z" transform=""/><path fill="#7a3440" stroke="none" d="M 22.6339,2.26301 C 25.7229,6.82701 27.9619,12.25 26.7629,17.287 C 26.3529,12.437 23.3199,7.98001 19.8539,5.36401 L 22.6339,2.26301 Z" transform=""/><path fill="#a9bc65" stroke="none" d="M 39.8165,2 S 34.2305,1.981 30.6995,5.415 C 27.9765,8.064 27.2715,11.989 27.0925,13.647 C 29.2825,10.053 32.5005,7.22 36.0675,5.24 C 32.6235,7.564 29.7025,10.739 27.9565,14.382 C 29.6925,14.226 33.4985,13.593 36.1485,11.017 C 39.6775,7.583 39.8165,2 39.8165,2 Z" transform=""/><path fill="#7a3440" stroke="none" d="M 36.4272,48.7072 L 36.4222,48.7002 L 36.4212,48.7002 Z" style="opacity: 0.3" opacity="0.3" transform=""/><path fill="#7a3440" stroke="none" d="M 35.7044,49.524 C 35.4704,49.493 35.3144,49.449 35.2554,49.403 C 35.2814,49.443 35.4474,49.489 35.7044,49.524 Z" style="opacity: 0.3" opacity="0.3" transform=""/><path fill="#7a3440" stroke="none" d="M 37.7527,49.1305 C 37.7437,49.1325 37.7377,49.1375 37.7287,49.1395 C 37.7307,49.1385 37.7337,49.1395 37.7367,49.1385 C 37.7427,49.1365 37.7457,49.1325 37.7527,49.1305 Z" style="opacity: 0.3" opacity="0.3" transform=""/><path fill="#7a3440" stroke="none" d="M 35.304,49.3873 L 35.33,49.3863 L 35.324,49.3863 Z" style="opacity: 0.3" opacity="0.3" transform=""/><path fill="#7a3440" stroke="none" d="M 37.8356,48.8507 C 37.8306,48.8397 37.8306,48.8327 37.8246,48.8217 C 37.8236,48.8177 37.8186,48.8147 37.8176,48.8107 C 37.8236,48.8257 37.8296,48.8377 37.8356,48.8507 Z" style="opacity: 0.3" opacity="0.3" transform=""/><path fill="#7a3440" stroke="none" d="M 39.0021,48.6595 C 39.0131,48.6755 39.0241,48.6845 39.0341,48.6995 C 39.0161,48.6605 38.9921,48.6215 38.9711,48.5825 C 38.9821,48.6055 38.9911,48.6365 39.0021,48.6595 Z" style="opacity: 0.3" opacity="0.3" transform=""/><path fill="#7a3440" stroke="none" d="M 39.0442,48.7196 C 39.0682,48.7486 39.0942,48.7766 39.1212,48.8036 C 39.0922,48.7736 39.0632,48.7366 39.0352,48.6996 C 39.0382,48.7056 39.0402,48.7136 39.0442,48.7196 Z" style="opacity: 0.3" opacity="0.3" transform=""/><path fill="#7a3440" stroke="none" d="M 20.3981,35.0415 L 20.4131,35.0425 C 19.9891,34.9245 19.5841,34.2975 19.3011,33.6725 C 19.5821,34.2925 19.9801,34.9145 20.3981,35.0415 Z" style="opacity: 0.3" opacity="0.3" transform=""/><path fill="#7a3440" stroke="none" d="M 38.1308,49.7982 C 38.5408,49.5112 38.9368,49.1882 39.3248,48.8492 C 39.2838,48.8562 39.2388,48.8612 39.1988,48.8702 C 39.1918,48.8652 39.1848,48.8602 39.1778,48.8542 C 39.1848,48.8592 39.1908,48.8652 39.1978,48.8702 C 39.0928,48.8932 38.9898,48.9172 38.8948,48.9452 C 38.3278,49.1182 37.7758,49.2402 37.2308,49.3382 C 37.0378,49.5152 36.8438,49.6922 36.6458,49.8532 C 36.1378,50.2612 35.6098,50.6122 35.0608,50.8982 L 34.9888,50.9372 C 34.7748,51.0362 34.6178,51.1012 34.4918,51.1482 C 34.6848,51.0802 34.8728,50.9972 35.0608,50.8982 C 35.6098,50.6122 36.1378,50.2612 36.6418,49.8532 C 36.8418,49.6922 37.0358,49.5152 37.2288,49.3382 C 37.0678,49.3672 36.9028,49.4042 36.7438,49.4262 C 36.2368,49.2862 35.7498,49.0292 35.2798,48.6812 C 35.2768,48.6812 35.2728,48.6812 35.2698,48.6802 C 35.7418,49.0292 36.2298,49.2862 36.7378,49.4272 C 36.5628,49.4512 36.3918,49.4672 36.2208,49.4842 C 35.9358,49.4462 35.6528,49.4032 35.3658,49.3852 C 35.6468,49.4032 35.9258,49.4462 36.2048,49.4862 C 36.0588,49.5012 35.9108,49.5202 35.7658,49.5292 C 35.7608,49.5292 35.7558,49.5292 35.7508,49.5282 C 35.7558,49.5292 35.7608,49.5292 35.7648,49.5292 C 35.6208,49.5392 35.4808,49.5392 35.3378,49.5442 C 35.3258,49.5422 35.3148,49.5392 35.3038,49.5382 C 35.2278,49.5432 35.1188,49.5502 35.1058,49.5512 C 34.9028,49.5452 34.6838,49.5362 34.4558,49.5232 C 34.1068,49.5032 33.7348,49.4722 33.3548,49.4272 C 31.6648,49.1522 30.0948,48.4912 28.6388,47.5322 C 28.6378,47.5322 28.6218,47.5222 28.6218,47.5222 C 28.6948,47.5232 28.7878,47.5242 28.9008,47.5262 C 28.7878,47.5242 28.6958,47.5242 28.6228,47.5222 C 26.0908,45.8522 23.9018,43.2822 22.0228,40.2742 L 22.0108,40.2552 C 20.1308,37.2442 18.5578,33.7942 17.2578,30.3662 L 17.2558,30.3652 L 17.2538,30.3602 L 17.2558,30.3602 C 17.2328,30.2992 17.2088,30.2382 17.1868,30.1772 C 15.5048,25.7072 15.1818,21.7852 15.8268,18.4942 L 15.8308,18.4742 C 16.1178,17.0212 16.6038,15.7002 17.2338,14.5002 C 17.1028,14.5112 16.9588,14.5222 16.7868,14.5362 C 16.6698,14.5342 16.5758,14.5342 16.5048,14.5322 C 14.8388,14.7462 13.2348,15.2522 11.7808,16.0282 C 11.1318,16.3112 10.5178,16.7162 9.9448,17.2252 C 9.7768,17.3562 9.6068,17.4842 9.4458,17.6242 L 9.4448,17.6242 L 9.4318,17.6342 L 9.4328,17.6332 C 7.4598,19.3462 6.0008,21.7072 5.4208,24.6442 L 5.4168,24.6622 C 4.8518,27.5462 5.1338,30.9822 6.6088,34.9002 C 6.6288,34.9532 6.6488,35.0072 6.6698,35.0602 L 6.6678,35.0602 L 6.6688,35.0652 L 6.6708,35.0652 C 7.8108,38.0692 9.1888,41.0932 10.8368,43.7322 L 10.8468,43.7492 C 12.4938,46.3862 14.4128,48.6382 16.6308,50.1012 C 16.6948,50.1022 16.7768,50.1042 16.8748,50.1042 C 16.7758,50.1042 16.6948,50.1022 16.6308,50.1012 C 16.6308,50.1012 16.6438,50.1112 16.6448,50.1112 C 17.9218,50.9502 19.2978,51.5302 20.7788,51.7712 C 21.1118,51.8112 21.4378,51.8382 21.7438,51.8552 C 21.9438,51.8672 22.1358,51.8752 22.3138,51.8802 C 22.3248,51.8802 22.4208,51.8742 22.4878,51.8692 C 22.4978,51.8702 22.5078,51.8732 22.5178,51.8742 C 22.6428,51.8702 22.7658,51.8702 22.8928,51.8622 C 22.8878,51.8622 22.8838,51.8612 22.8798,51.8612 C 22.8838,51.8612 22.8878,51.8612 22.8928,51.8622 C 23.0198,51.8542 23.1498,51.8372 23.2768,51.8242 C 23.0328,51.7892 22.7888,51.7512 22.5418,51.7362 C 22.7928,51.7512 23.0408,51.7892 23.2908,51.8222 C 23.4408,51.8072 23.5908,51.7942 23.7438,51.7722 C 23.2988,51.6482 22.8708,51.4232 22.4578,51.1172 C 22.4608,51.1172 22.4638,51.1172 22.4658,51.1182 C 22.8778,51.4232 23.3048,51.6482 23.7488,51.7712 C 24.3608,51.6842 24.9888,51.5462 25.6338,51.3492 C 25.7168,51.3242 25.8078,51.3032 25.8988,51.2842 C 25.8928,51.2792 25.8878,51.2742 25.8818,51.2692 C 25.8878,51.2752 25.8938,51.2792 25.8998,51.2832 C 26.1618,51.2262 26.4548,51.1922 26.7548,51.1792 C 26.7608,51.1792 26.7658,51.1762 26.7708,51.1752 L 26.7728,51.1752 L 26.7828,51.1752 C 26.7908,51.1762 26.7998,51.1772 26.8078,51.1782 C 27.1608,51.1662 27.5198,51.1832 27.8528,51.2312 C 27.8618,51.2262 27.8738,51.2232 27.8838,51.2182 C 28.0178,51.3142 28.3658,51.3322 28.4828,51.3692 C 28.9108,51.5072 29.3288,51.6092 29.7428,51.6972 C 29.8448,51.6732 29.9488,51.6512 30.0548,51.6432 C 30.0548,51.6432 30.0838,51.6422 30.0898,51.6422 L 30.0898,51.6422 L 30.0578,51.6442 L 30.0548,51.6442 C 29.9498,51.6522 29.8478,51.6742 29.7448,51.6982 C 29.8628,51.7232 29.9818,51.7502 30.0988,51.7712 C 30.1048,51.7692 30.1078,51.7682 30.1138,51.7662 C 30.1078,51.7682 30.1068,51.7702 30.1008,51.7712 C 30.1598,51.7822 30.2208,51.7972 30.2798,51.8072 C 31.5058,51.7802 32.6028,51.0922 33.5808,49.9242 C 33.5788,49.9242 33.5768,49.9242 33.5748,49.9242 C 33.6488,49.8392 33.7188,49.7472 33.7898,49.6592 C 33.7238,49.7442 33.6598,49.8352 33.5918,49.9152 C 33.8778,49.9092 34.1578,49.9042 34.4298,49.8992 C 34.1588,49.9042 33.8778,49.9092 33.5838,49.9242 C 32.6028,51.0912 31.5058,51.7802 30.2798,51.8072 C 30.2878,51.8092 30.2938,51.8092 30.3018,51.8102 C 30.4038,51.8082 30.5038,51.8072 30.6018,51.8052 C 31.3598,51.7902 31.6018,51.7822 32.3238,51.7422 C 32.3258,51.7422 32.3338,51.7412 32.3418,51.7412 C 32.3368,51.7412 32.3308,51.7422 32.3258,51.7422 C 32.5318,51.7292 32.8078,51.7092 33.0138,51.6932 C 33.2368,51.6632 33.4588,51.6202 33.6808,51.5902 C 33.7548,51.5782 33.7988,51.5722 33.8278,51.5692 C 33.8398,51.5682 33.8508,51.5652 33.8618,51.5642 L 33.8728,51.5682 C 33.8328,51.5832 33.7908,51.5982 33.5708,51.6402 C 33.7448,51.6192 33.9758,51.5882 34.1488,51.5632 C 35.5698,51.2682 36.8848,50.6662 38.0998,49.8212 L 38.1028,49.8202 L 38.1328,49.7992 L 38.1298,49.8002 L 38.1308,49.7982 L 38.1308,49.7982 M 5.8588,26.9932 C 5.8428,27.1142 5.8288,27.2372 5.8258,27.3572 C 5.8288,27.2042 5.8408,27.0532 5.8618,26.9122 C 5.8608,26.9392 5.8608,26.9662 5.8588,26.9932 L 5.8588,26.9932 M 9.4228,39.1642 C 9.0568,39.0522 8.7078,38.5072 8.4618,37.9642 C 8.7108,38.5122 9.0648,39.0612 9.4358,39.1642 L 9.4228,39.1642 L 9.4228,39.1642 M 10.7648,40.9912 C 10.9228,41.2612 11.0378,41.5192 11.1158,41.7332 C 11.0328,41.5072 10.9108,41.2452 10.7648,40.9912 L 10.7648,40.9912 M 13.2998,43.7372 L 13.3078,43.7362 C 13.6358,43.7352 13.9968,43.7332 14.3848,43.7312 C 13.9968,43.7342 13.6348,43.7362 13.2998,43.7372 L 13.2998,43.7372 M 18.2388,50.1052 C 17.7228,49.7052 17.2268,49.2472 16.7488,48.7392 C 16.7168,48.7092 16.6898,48.6832 16.6598,48.6552 C 16.6818,48.6752 16.7028,48.6932 16.7248,48.7142 L 16.7488,48.7392 C 17.2268,49.2482 17.7238,49.7062 18.2458,50.1052 L 18.2568,50.1132 S 18.2458,50.1052 18.2388,50.1052 L 18.2388,50.1052 M 19.9138,51.1542 L 19.8868,51.1402 C 19.9078,51.1512 19.9228,51.1582 19.9428,51.1682 C 19.9328,51.1632 19.9258,51.1592 19.9138,51.1542 L 19.9138,51.1542 M 22.5038,51.7362 L 22.5088,51.7362 L 22.4858,51.7362 L 22.5038,51.7362 L 22.5038,51.7362 M 22.8368,51.8572 C 22.6118,51.8272 22.4658,51.7862 22.4428,51.7512 C 22.4948,51.7902 22.6318,51.8292 22.8368,51.8572 L 22.8368,51.8572 M 23.4658,51.1352 L 23.4658,51.1352 C 23.4678,51.1372 23.4688,51.1392 23.4708,51.1412 C 23.4678,51.1392 23.4678,51.1372 23.4658,51.1352 L 23.4658,51.1352 M 24.1088,51.4752 C 24.0968,51.4722 24.0898,51.4672 24.0778,51.4642 C 24.1188,51.4772 24.1598,51.4892 24.2008,51.4992 C 24.1708,51.4912 24.1388,51.4842 24.1088,51.4752 L 24.1088,51.4752 M 24.6178,51.5182 C 24.6158,51.5192 24.6128,51.5182 24.6108,51.5202 C 24.6188,51.5172 24.6248,51.5132 24.6318,51.5122 C 24.6268,51.5132 24.6238,51.5172 24.6178,51.5182 L 24.6178,51.5182 M 24.6888,51.2312 C 24.6898,51.2342 24.6948,51.2372 24.6958,51.2402 C 24.7018,51.2502 24.7018,51.2562 24.7048,51.2662 C 24.6998,51.2542 24.6948,51.2442 24.6888,51.2312 L 24.6888,51.2312 M 25.7638,51.1512 C 25.7608,51.1462 25.7578,51.1392 25.7548,51.1332 C 25.7458,51.1202 25.7358,51.1132 25.7268,51.0992 C 25.7178,51.0792 25.7088,51.0522 25.6998,51.0312 C 25.7188,51.0652 25.7398,51.1002 25.7558,51.1332 C 25.7808,51.1672 25.8058,51.1992 25.8308,51.2252 C 25.8078,51.2012 25.7848,51.1772 25.7638,51.1512 L 25.7638,51.1512 M 30.0928,51.6412 L 30.0928,51.6412 S 30.1188,51.6422 30.1218,51.6422 L 30.1198,51.6422 L 30.0928,51.6412 L 30.0928,51.6412 M 30.1238,51.6422 C 30.1678,51.6452 30.1898,51.6472 30.2068,51.6532 C 30.1878,51.6472 30.1648,51.6452 30.1238,51.6422 L 30.1238,51.6422 M 30.2218,51.7172 C 30.2368,51.7072 30.2498,51.6952 30.2528,51.6822 C 30.2438,51.6712 30.2338,51.6662 30.2218,51.6612 C 30.2308,51.6662 30.2398,51.6722 30.2538,51.6822 C 30.2498,51.6902 30.2418,51.7032 30.2218,51.7172 L 30.2218,51.7172 M 34.1518,51.2492 C 34.1468,51.2492 34.1418,51.2502 34.1388,51.2502 C 34.1368,51.2502 34.1348,51.2502 34.1328,51.2512 C 34.1158,51.2522 34.1088,51.2512 34.0988,51.2512 C 34.2278,51.2212 34.3598,51.1952 34.4848,51.1512 C 34.3208,51.2122 34.2138,51.2412 34.1518,51.2492 L 34.1518,51.2492 M 37.2778,49.8192 L 37.2748,49.8232 L 37.2778,49.8272 C 37.2728,49.9192 37.1048,50.0652 36.8878,50.2112 C 37.0808,50.0802 37.2438,49.9422 37.2778,49.8272 C 37.0958,49.8312 36.8898,49.8372 36.6578,49.8422 C 36.8888,49.8372 37.0948,49.8312 37.2778,49.8192 L 37.2778,49.8192 M 35.0638,51.2502 C 34.7948,51.3352 34.5998,51.3772 34.5728,51.3622 C 34.6018,51.3442 34.6478,51.3132 36.1408,50.6312 L 34.5728,51.3622 C 34.6488,51.3622 34.8308,51.3222 35.0638,51.2502 L 35.0638,51.2502 M 36.5048,50.6142 C 36.9698,50.3192 37.2478,50.1472 37.4338,50.0362 C 37.2598,50.1402 36.9958,50.3052 36.5048,50.6142 L 36.5048,50.6142 M 37.8478,49.8162 C 37.7558,49.8582 37.6888,49.8892 37.5988,49.9392 C 37.7148,49.8742 37.7798,49.8442 37.8478,49.8162 C 37.8528,49.8132 37.8568,49.8112 37.8618,49.8082 L 37.8628,49.8082 C 37.8578,49.8122 37.8528,49.8132 37.8478,49.8162 L 37.8478,49.8162 M 37.8648,49.8092 C 37.8678,49.8072 37.8708,49.8062 37.8728,49.8052 C 37.8798,49.8052 37.8908,49.8042 37.8978,49.8042 C 37.8978,49.8042 37.8668,49.8092 37.8648,49.8092 Z" style="opacity: 0.3" opacity="0.3" transform=""/><path fill="#7a3440" stroke="none" d="M 37.2607,49.1162 C 37.2147,49.1052 37.1677,49.0912 37.1207,49.0762 C 37.1337,49.0792 37.1417,49.0852 37.1557,49.0892 C 37.1897,49.0992 37.2257,49.1072 37.2607,49.1162 Z" style="opacity: 0.3" opacity="0.3" transform=""/><path fill="#7a3440" stroke="none" d="M 22.3301,37.9741 C 22.2421,37.7291 22.1101,37.4351 21.9301,37.1271 C 22.0971,37.4161 22.2341,37.7151 22.3301,37.9741 Z" style="opacity: 0.3" opacity="0.3" transform=""/><path fill="#7a3440" stroke="none" d="M 16.3348,21.0632 C 16.3098,21.2242 16.2968,21.3952 16.2928,21.5702 C 16.2958,21.4322 16.3128,21.2932 16.3308,21.1552 C 16.3328,21.1242 16.3328,21.0932 16.3348,21.0632 Z" style="opacity: 0.3" opacity="0.3" transform=""/><path fill="#7a3440" stroke="none" d="M 32.4029,48.7387 C 32.3799,48.7277 32.3629,48.7187 32.3389,48.7067 L 32.3699,48.7227 C 32.3819,48.7287 32.3909,48.7327 32.4029,48.7387 Z" style="opacity: 0.3" opacity="0.3" transform=""/><path fill="#7a3440" stroke="none" d="M 24.8314,40.2595 L 24.8214,40.2605 C 25.2044,40.2585 25.6164,40.2565 26.0594,40.2535 C 25.6174,40.2565 25.2054,40.2585 24.8314,40.2595 Z" style="opacity: 0.3" opacity="0.3" transform=""/><path fill="#7a3440" stroke="none" d="M 30.4777,47.5357 L 30.4657,47.5257 C 29.8697,47.0697 29.3027,46.5477 28.7567,45.9667 C 29.3027,46.5477 29.8687,47.0687 30.4577,47.5257 C 30.4657,47.5257 30.4777,47.5357 30.4777,47.5357 Z" style="opacity: 0.3" opacity="0.3" transform=""/><path fill="#7a3440" stroke="none" d="M 28.7295,45.9379 C 28.7045,45.9139 28.6795,45.8929 28.6555,45.8719 C 28.6895,45.9039 28.7195,45.9319 28.7565,45.9669 L 28.7295,45.9379 Z" style="opacity: 0.3" opacity="0.3" transform=""/></svg>