<svg xmlns="http://www.w3.org/2000/svg" version="1.1" width="54" height="54" viewBox="0 0 54 54"><defs/><path fill="#d78334" stroke="none" d="M 17.0733,24.1906 S 16.5373,29.8586 20.6733,31.2376 C 24.8103,32.6166 34.0013,31.5446 34.0013,31.5446 S 38.0613,29.4756 37.1423,24.2676 L 17.0733,24.1906 Z" transform=""/><path fill="#d78334" stroke="none" d="M 20.0767,31.7677 S 25.1967,51.3757 25.3517,51.7187 C 25.5067,52.0617 27.6597,52.2067 27.9707,51.4707 C 28.2807,50.7357 34.5817,31.6197 34.5817,31.6197 L 20.0767,31.7677 Z" transform=""/><path fill="#f4953f" stroke="none" d="M 27.6361,32.0377 L 27.6841,32.0397 L 34.0061,33.3137 C 34.1281,33.3377 34.1941,33.4197 34.1551,33.4957 C 34.1241,33.5587 34.0351,33.5977 33.9381,33.5977 C 33.9151,33.5977 33.8901,33.5957 33.8681,33.5907 L 27.6321,32.3337 L 20.5881,33.6687 C 20.5671,33.6727 20.5441,33.6737 20.5221,33.6737 C 20.4231,33.6737 20.3311,33.6337 20.3031,33.5707 C 20.2651,33.4937 20.3361,33.4137 20.4571,33.3897 L 27.5681,32.0417 L 27.6361,32.0377 Z" transform=""/><path fill="#f4953f" stroke="none" d="M 20.6087,33.8963 C 20.6337,33.8963 20.6597,33.8983 20.6847,33.9043 L 27.1847,35.3543 L 33.6187,33.9283 C 33.6437,33.9233 33.6697,33.9203 33.6947,33.9203 C 33.7887,33.9203 33.8777,33.9583 33.9107,34.0183 C 33.9517,34.0943 33.8897,34.1783 33.7707,34.2043 L 27.8777,35.5093 L 32.8597,36.6213 C 32.9797,36.6483 33.0417,36.7303 32.9997,36.8083 C 32.9667,36.8663 32.8787,36.9043 32.7837,36.9043 C 32.7587,36.9043 32.7317,36.9023 32.7067,36.8953 L 27.1827,35.6633 L 21.4477,36.9343 C 21.4237,36.9403 21.3987,36.9423 21.3717,36.9423 C 21.2767,36.9423 21.1877,36.9043 21.1537,36.8463 C 21.1127,36.7703 21.1777,36.6863 21.2947,36.6593 L 26.4897,35.5093 L 20.5317,34.1793 C 20.4117,34.1513 20.3497,34.0693 20.3917,33.9933 C 20.4237,33.9333 20.5127,33.8963 20.6087,33.8963 Z" transform=""/><path fill="#f4953f" stroke="none" d="M 32.5997,37.575 C 32.6957,37.575 32.7857,37.613 32.8187,37.674 C 32.8597,37.749 32.7977,37.832 32.6757,37.858 L 27.6457,38.971 L 31.8257,39.891 C 31.9457,39.918 32.0097,40.001 31.9687,40.077 C 31.9357,40.137 31.8467,40.174 31.7507,40.174 C 31.7257,40.174 31.7017,40.171 31.6767,40.166 L 26.9487,39.126 L 22.4187,40.128 C 22.3917,40.134 22.3677,40.136 22.3427,40.136 C 22.2477,40.136 22.1577,40.098 22.1247,40.038 C 22.0837,39.962 22.1457,39.879 22.2657,39.854 L 26.2487,38.973 L 21.5377,37.937 C 21.4177,37.91 21.3557,37.827 21.3967,37.752 C 21.4307,37.691 21.5187,37.653 21.6147,37.653 C 21.6387,37.653 21.6637,37.656 21.6887,37.661 L 26.9457,38.818 L 32.5247,37.584 C 32.5497,37.577 32.5757,37.575 32.5997,37.575 Z" transform=""/><path fill="#f4953f" stroke="none" d="M 31.2664,41.4593 C 31.3614,41.4593 31.4504,41.4973 31.4824,41.5573 C 31.5244,41.6323 31.4614,41.7163 31.3414,41.7413 L 27.6704,42.5653 L 30.7334,43.2373 C 30.8534,43.2633 30.9184,43.3463 30.8764,43.4223 C 30.8434,43.4823 30.7544,43.5203 30.6594,43.5203 C 30.6344,43.5203 30.6074,43.5173 30.5824,43.5123 L 26.9754,42.7213 L 23.2694,43.5503 C 23.2444,43.5553 23.2174,43.5583 23.1924,43.5583 C 23.0974,43.5583 23.0084,43.5213 22.9754,43.4613 C 22.9334,43.3863 22.9964,43.3033 23.1154,43.2753 L 26.2774,42.5683 L 22.6914,41.7823 C 22.5714,41.7553 22.5074,41.6733 22.5484,41.5973 C 22.5814,41.5373 22.6714,41.4993 22.7664,41.4993 C 22.7914,41.4993 22.8164,41.5013 22.8404,41.5073 L 26.9724,42.4123 L 31.1874,41.4693 C 31.2144,41.4623 31.2404,41.4593 31.2664,41.4593 Z" transform=""/><path fill="#f4953f" stroke="none" d="M 23.7389,45.1129 C 23.7659,45.1129 23.7929,45.1159 23.8199,45.1229 L 27.2019,45.9379 L 29.8509,45.3139 C 29.8769,45.3079 29.9039,45.3049 29.9299,45.3049 C 30.0229,45.3049 30.1109,45.3409 30.1469,45.3999 C 30.1899,45.4749 30.1299,45.5589 30.0099,45.5869 L 27.8539,46.0939 L 29.4049,46.4679 C 29.5249,46.4969 29.5849,46.5799 29.5399,46.6549 C 29.5039,46.7139 29.4179,46.7489 29.3249,46.7489 C 29.2979,46.7489 29.2709,46.7469 29.2439,46.7399 L 27.1999,46.2469 L 24.1229,46.9699 C 24.0979,46.9769 24.0709,46.9799 24.0439,46.9799 C 23.9509,46.9799 23.8629,46.9439 23.8269,46.8849 C 23.7839,46.8089 23.8459,46.7259 23.9639,46.6979 L 26.5469,46.0899 L 23.6579,45.3939 C 23.5389,45.3649 23.4789,45.2809 23.5249,45.2049 C 23.5599,45.1489 23.6469,45.1129 23.7389,45.1129 Z" transform=""/><path fill="#f4953f" stroke="none" d="M 34.1547,33.4959 C 34.1477,33.5089 34.1377,33.5219 34.1257,33.5329 C 34.1217,33.5369 34.1167,33.5409 34.1117,33.5449 C 34.1017,33.5519 34.0917,33.5579 34.0807,33.5649 C 34.0747,33.5679 34.0687,33.5709 34.0617,33.5739 C 34.0497,33.5789 34.0357,33.5829 34.0217,33.5869 C 34.0157,33.5879 34.0097,33.5899 34.0027,33.5919 C 33.9817,33.5949 33.9597,33.5979 33.9377,33.5979 C 33.9147,33.5979 33.8897,33.5959 33.8667,33.5899 L 27.6317,32.3329 L 20.5877,33.6689 C 20.5667,33.6719 20.5437,33.6739 20.5207,33.6739 C 20.4217,33.6739 20.3307,33.6339 20.3017,33.5709 C 20.2957,33.5569 20.2917,33.5429 20.2917,33.5279 L 20.2917,33.6049 C 20.2917,33.6189 20.2957,33.6329 20.3017,33.6469 C 20.3307,33.7099 20.4217,33.7509 20.5207,33.7509 C 20.5437,33.7509 20.5667,33.7489 20.5877,33.7449 L 27.6317,32.4099 L 33.8667,33.6669 C 33.8897,33.6719 33.9147,33.6749 33.9377,33.6749 C 33.9597,33.6749 33.9817,33.6719 34.0027,33.6689 C 34.0097,33.6669 34.0147,33.6649 34.0217,33.6629 C 34.0357,33.6589 34.0497,33.6559 34.0617,33.6499 C 34.0687,33.6469 34.0747,33.6449 34.0807,33.6409 C 34.0917,33.6359 34.1017,33.6289 34.1117,33.6209 C 34.1157,33.6179 34.1217,33.6139 34.1257,33.6089 C 34.1287,33.6069 34.1317,33.6049 34.1347,33.6019 C 34.1417,33.5929 34.1487,33.5839 34.1537,33.5749 C 34.1537,33.5739 34.1537,33.5729 34.1547,33.5729 C 34.1587,33.5649 34.1617,33.5569 34.1637,33.5489 C 34.1647,33.5419 34.1657,33.5349 34.1657,33.5279 L 34.1657,33.4509 C 34.1657,33.4659 34.1627,33.4809 34.1547,33.4959 Z" transform=""/><path fill="#f4953f" stroke="none" d="M 33.9123,34.1118 C 33.9063,34.1238 33.8973,34.1338 33.8873,34.1448 C 33.8783,34.1538 33.8673,34.1618 33.8553,34.1688 C 33.8493,34.1728 33.8443,34.1778 33.8373,34.1808 C 33.8183,34.1908 33.7953,34.1998 33.7693,34.2048 L 27.8773,35.5098 L 27.8773,35.5868 L 33.7693,34.2818 C 33.7953,34.2758 33.8183,34.2668 33.8373,34.2568 C 33.8443,34.2528 33.8483,34.2498 33.8543,34.2448 C 33.8673,34.2368 33.8783,34.2298 33.8873,34.2208 C 33.8893,34.2198 33.8913,34.2188 33.8933,34.2168 C 33.9003,34.2078 33.9063,34.1998 33.9113,34.1898 C 33.9113,34.1898 33.9113,34.1888 33.9123,34.1888 C 33.9133,34.1878 33.9133,34.1868 33.9133,34.1848 C 33.9163,34.1788 33.9193,34.1728 33.9213,34.1658 C 33.9223,34.1588 33.9233,34.1508 33.9233,34.1438 L 33.9233,34.0668 C 33.9233,34.0808 33.9193,34.0948 33.9133,34.1088 C 33.9133,34.1098 33.9133,34.1108 33.9123,34.1118 Z" transform=""/><path fill="#f4953f" stroke="none" d="M 26.4901,35.5094 L 20.5321,34.1794 C 20.4371,34.1574 20.3781,34.1024 20.3781,34.0424 L 20.3781,34.1184 C 20.3781,34.1784 20.4371,34.2344 20.5321,34.2564 L 26.4901,35.5864 L 26.4901,35.5094 Z" transform=""/><path fill="#f4953f" stroke="none" d="M 32.9726,36.8409 C 32.9676,36.8449 32.9626,36.8499 32.9566,36.8539 C 32.9476,36.8609 32.9376,36.8659 32.9276,36.8719 C 32.9216,36.8749 32.9146,36.8779 32.9076,36.8809 C 32.8956,36.8859 32.8816,36.8909 32.8686,36.8939 C 32.8626,36.8949 32.8556,36.8969 32.8486,36.8989 C 32.8286,36.9029 32.8056,36.9049 32.7836,36.9049 C 32.7586,36.9049 32.7316,36.9029 32.7076,36.8959 L 27.1836,35.6639 L 21.4486,36.9349 C 21.4246,36.9409 21.3986,36.9429 21.3726,36.9429 C 21.2776,36.9429 21.1876,36.9049 21.1546,36.8469 C 21.1466,36.8309 21.1426,36.8149 21.1426,36.7989 L 21.1426,36.8749 C 21.1426,36.8909 21.1466,36.9069 21.1546,36.9229 C 21.1876,36.9819 21.2766,37.0199 21.3726,37.0199 C 21.3986,37.0199 21.4236,37.0169 21.4486,37.0119 L 27.1836,35.7409 L 32.7076,36.9729 C 32.7326,36.9789 32.7596,36.9819 32.7836,36.9819 C 32.8056,36.9819 32.8286,36.9789 32.8486,36.9759 C 32.8556,36.9739 32.8616,36.9719 32.8686,36.9699 C 32.8816,36.9669 32.8956,36.9629 32.9076,36.9579 C 32.9146,36.9549 32.9216,36.9519 32.9276,36.9489 C 32.9376,36.9429 32.9486,36.9379 32.9566,36.9309 C 32.9626,36.9269 32.9676,36.9219 32.9726,36.9179 C 32.9756,36.9149 32.9806,36.9119 32.9836,36.9089 C 32.9906,36.9019 32.9956,36.8939 33.0006,36.8859 C 33.0006,36.8849 33.0016,36.8839 33.0016,36.8829 C 33.0056,36.8749 33.0086,36.8669 33.0106,36.8589 C 33.0126,36.8519 33.0126,36.8449 33.0126,36.8369 L 33.0126,36.7609 C 33.0126,36.7769 33.0086,36.7939 33.0006,36.8099 C 32.9936,36.8199 32.9836,36.8309 32.9726,36.8409 Z" transform=""/><path fill="#f4953f" stroke="none" d="M 32.8201,37.7653 C 32.8141,37.7773 32.8051,37.7873 32.7951,37.7973 C 32.7861,37.8073 32.7751,37.8143 32.7631,37.8223 C 32.7571,37.8263 32.7521,37.8303 32.7451,37.8343 C 32.7251,37.8443 32.7021,37.8533 32.6761,37.8583 L 27.6461,38.9703 L 27.6461,39.0473 L 32.6761,37.9353 C 32.7021,37.9293 32.7251,37.9203 32.7451,37.9103 C 32.7521,37.9063 32.7581,37.9023 32.7631,37.8983 C 32.7751,37.8903 32.7861,37.8833 32.7951,37.8743 C 32.7971,37.8723 32.8001,37.8713 32.8021,37.8693 C 32.8091,37.8613 32.8151,37.8523 32.8191,37.8433 C 32.8191,37.8433 32.8191,37.8433 32.8201,37.8423 C 32.8201,37.8423 32.8201,37.8423 32.8211,37.8413 C 32.8241,37.8343 32.8271,37.8273 32.8291,37.8193 C 32.8301,37.8133 32.8311,37.8053 32.8311,37.7983 L 32.8311,37.7223 C 32.8311,37.7363 32.8271,37.7513 32.8211,37.7643 C 32.8211,37.7643 32.8211,37.7643 32.8201,37.7653 Z" transform=""/><path fill="#f4953f" stroke="none" d="M 26.2501,38.972 L 21.5391,37.936 C 21.4441,37.915 21.3861,37.858 21.3861,37.798 L 21.3861,37.875 C 21.3861,37.935 21.4441,37.991 21.5391,38.012 L 26.2501,39.049 L 26.2501,38.972 Z" transform=""/><path fill="#f4953f" stroke="none" d="M 31.941,40.1094 C 31.936,40.1144 31.931,40.1184 31.924,40.1224 C 31.916,40.1294 31.906,40.1344 31.896,40.1404 C 31.889,40.1444 31.883,40.1474 31.875,40.1504 C 31.863,40.1554 31.85,40.1594 31.837,40.1624 C 31.83,40.1644 31.824,40.1664 31.817,40.1674 C 31.796,40.1714 31.774,40.1734 31.752,40.1734 C 31.727,40.1734 31.702,40.1704 31.677,40.1654 L 26.949,39.1254 L 22.42,40.1274 C 22.393,40.1334 22.368,40.1354 22.343,40.1354 C 22.248,40.1354 22.159,40.0974 22.126,40.0374 C 22.117,40.0214 22.113,40.0054 22.113,39.9894 L 22.113,40.0654 C 22.113,40.0814 22.117,40.0974 22.126,40.1134 C 22.159,40.1734 22.248,40.2124 22.343,40.2124 C 22.368,40.2124 22.393,40.2094 22.42,40.2044 L 26.949,39.2024 L 31.677,40.2424 C 31.702,40.2474 31.727,40.2504 31.752,40.2504 C 31.774,40.2504 31.796,40.2484 31.817,40.2444 C 31.823,40.2434 31.83,40.2414 31.836,40.2394 C 31.85,40.2364 31.863,40.2334 31.875,40.2274 C 31.883,40.2244 31.889,40.2214 31.896,40.2174 C 31.906,40.2124 31.916,40.2064 31.925,40.2004 C 31.931,40.1954 31.936,40.1914 31.942,40.1864 C 31.945,40.1834 31.95,40.1814 31.953,40.1774 C 31.959,40.1704 31.965,40.1624 31.97,40.1534 C 31.97,40.1524 31.97,40.1524 31.971,40.1514 C 31.975,40.1434 31.978,40.1354 31.98,40.1274 C 31.982,40.1214 31.983,40.1134 31.983,40.1074 L 31.983,40.0304 C 31.983,40.0454 31.978,40.0624 31.97,40.0774 C 31.962,40.0884 31.951,40.0994 31.941,40.1094 Z" transform=""/><path fill="#f4953f" stroke="none" d="M 31.4843,41.6491 C 31.4783,41.6611 31.4693,41.6711 31.4593,41.6811 C 31.4503,41.6901 31.4383,41.6981 31.4263,41.7061 C 31.4203,41.7101 31.4153,41.7141 31.4093,41.7171 C 31.3893,41.7271 31.3663,41.7361 31.3413,41.7411 L 27.6693,42.5651 L 27.6693,42.6411 L 31.3413,41.8181 C 31.3663,41.8121 31.3883,41.8041 31.4093,41.7931 C 31.4153,41.7901 31.4203,41.7861 31.4263,41.7821 C 31.4383,41.7741 31.4503,41.7671 31.4593,41.7571 C 31.4603,41.7561 31.4633,41.7541 31.4643,41.7531 C 31.4723,41.7451 31.4783,41.7361 31.4833,41.7271 C 31.4833,41.7261 31.4833,41.7261 31.4843,41.7261 C 31.4853,41.7251 31.4853,41.7241 31.4853,41.7231 C 31.4883,41.7161 31.4913,41.7101 31.4933,41.7031 C 31.4943,41.6961 31.4953,41.6881 31.4953,41.6811 L 31.4953,41.6061 C 31.4953,41.6201 31.4913,41.6341 31.4853,41.6481 C 31.4853,41.6481 31.4853,41.6481 31.4843,41.6491 Z" transform=""/><path fill="#f4953f" stroke="none" d="M 26.2788,42.5674 L 22.6928,41.7814 C 22.5968,41.7604 22.5368,41.7044 22.5368,41.6434 L 22.5368,41.7204 C 22.5368,41.7804 22.5968,41.8374 22.6928,41.8574 L 26.2788,42.6444 L 26.2788,42.5674 Z" transform=""/><path fill="#f4953f" stroke="none" d="M 30.8483,43.4557 C 30.8433,43.4597 30.8383,43.4647 30.8323,43.4687 C 30.8243,43.4757 30.8133,43.4817 30.8033,43.4867 C 30.7963,43.4897 30.7903,43.4927 30.7833,43.4957 C 30.7713,43.5017 30.7573,43.5047 30.7443,43.5087 C 30.7383,43.5097 30.7313,43.5117 30.7243,43.5137 C 30.7043,43.5177 30.6813,43.5197 30.6593,43.5197 C 30.6343,43.5197 30.6083,43.5167 30.5833,43.5117 L 26.9763,42.7207 L 23.2703,43.5497 C 23.2453,43.5547 23.2183,43.5577 23.1933,43.5577 C 23.0983,43.5577 23.0093,43.5217 22.9763,43.4617 C 22.9673,43.4457 22.9633,43.4287 22.9633,43.4127 L 22.9633,43.4897 C 22.9633,43.5057 22.9673,43.5217 22.9763,43.5377 C 23.0093,43.5977 23.0983,43.6347 23.1933,43.6347 C 23.2183,43.6347 23.2453,43.6317 23.2703,43.6267 L 26.9763,42.7977 L 30.5833,43.5887 C 30.6073,43.5947 30.6343,43.5967 30.6593,43.5967 C 30.6823,43.5967 30.7043,43.5947 30.7243,43.5907 C 30.7313,43.5897 30.7373,43.5877 30.7443,43.5857 C 30.7583,43.5817 30.7713,43.5777 30.7833,43.5737 C 30.7903,43.5697 30.7973,43.5667 30.8033,43.5637 C 30.8133,43.5587 30.8243,43.5527 30.8323,43.5457 C 30.8383,43.5417 30.8433,43.5367 30.8483,43.5327 C 30.8523,43.5297 30.8563,43.5277 30.8593,43.5237 C 30.8663,43.5157 30.8723,43.5077 30.8763,43.4987 C 30.8773,43.4987 30.8773,43.4977 30.8773,43.4967 C 30.8823,43.4887 30.8843,43.4807 30.8873,43.4727 C 30.8883,43.4657 30.8893,43.4587 30.8893,43.4517 L 30.8893,43.3747 C 30.8893,43.3907 30.8853,43.4067 30.8763,43.4217 C 30.8703,43.4347 30.8593,43.4457 30.8483,43.4557 Z" transform=""/><path fill="#f4953f" stroke="none" d="M 30.1497,45.4949 C 30.1437,45.5069 30.1347,45.5169 30.1247,45.5269 C 30.1157,45.5359 30.1047,45.5439 30.0937,45.5509 C 30.0877,45.5549 30.0827,45.5599 30.0767,45.5629 C 30.0567,45.5729 30.0347,45.5819 30.0097,45.5879 L 27.8527,46.0949 L 27.8527,46.1709 L 30.0097,45.6649 C 30.0347,45.6579 30.0567,45.6499 30.0767,45.6389 C 30.0827,45.6359 30.0877,45.6319 30.0937,45.6269 C 30.1057,45.6199 30.1157,45.6119 30.1247,45.6029 C 30.1257,45.6019 30.1287,45.5999 30.1297,45.5989 C 30.1377,45.5909 30.1437,45.5819 30.1487,45.5729 C 30.1487,45.5719 30.1487,45.5719 30.1487,45.5709 C 30.1497,45.5699 30.1497,45.5689 30.1507,45.5679 C 30.1537,45.5609 30.1567,45.5549 30.1577,45.5479 C 30.1597,45.5409 30.1597,45.5339 30.1597,45.5269 L 30.1597,45.4509 C 30.1597,45.4649 30.1567,45.4779 30.1507,45.4919 C 30.1507,45.4929 30.1507,45.4939 30.1497,45.4949 Z" transform=""/><path fill="#f4953f" stroke="none" d="M 26.5458,46.0912 L 23.6568,45.3952 C 23.5658,45.3732 23.5098,45.3182 23.5098,45.2592 L 23.5098,45.3362 C 23.5098,45.3942 23.5658,45.4492 23.6568,45.4712 L 26.5458,46.1682 L 26.5458,46.0912 Z" transform=""/><path fill="#f4953f" stroke="none" d="M 29.5106,46.6875 C 29.5056,46.6925 29.5006,46.6965 29.4936,46.7005 C 29.4846,46.7075 29.4746,46.7125 29.4646,46.7185 C 29.4576,46.7215 29.4516,46.7245 29.4446,46.7275 C 29.4326,46.7325 29.4196,46.7365 29.4056,46.7395 C 29.3996,46.7415 29.3936,46.7435 29.3866,46.7445 C 29.3666,46.7485 29.3446,46.7505 29.3226,46.7505 C 29.2956,46.7505 29.2686,46.7485 29.2416,46.7415 L 27.1986,46.2485 L 24.1206,46.9715 C 24.0966,46.9785 24.0696,46.9805 24.0426,46.9805 C 23.9496,46.9805 23.8606,46.9455 23.8256,46.8865 C 23.8156,46.8695 23.8106,46.8535 23.8106,46.8365 L 23.8106,46.9135 C 23.8106,46.9295 23.8156,46.9465 23.8256,46.9625 C 23.8596,47.0215 23.9496,47.0575 24.0426,47.0575 C 24.0696,47.0575 24.0966,47.0545 24.1206,47.0485 L 27.1986,46.3255 L 29.2416,46.8175 C 29.2686,46.8245 29.2956,46.8275 29.3226,46.8275 C 29.3446,46.8275 29.3666,46.8245 29.3866,46.8205 C 29.3936,46.8195 29.3996,46.8175 29.4056,46.8165 C 29.4196,46.8125 29.4326,46.8095 29.4446,46.8045 C 29.4516,46.8015 29.4576,46.7985 29.4646,46.7945 C 29.4746,46.7895 29.4846,46.7845 29.4936,46.7775 C 29.5006,46.7735 29.5046,46.7685 29.5106,46.7645 C 29.5146,46.7605 29.5196,46.7575 29.5226,46.7545 C 29.5286,46.7475 29.5336,46.7405 29.5386,46.7335 C 29.5396,46.7315 29.5416,46.7295 29.5426,46.7275 C 29.5466,46.7195 29.5496,46.7105 29.5516,46.7025 C 29.5526,46.6965 29.5536,46.6885 29.5536,46.6815 L 29.5536,46.6055 C 29.5536,46.6225 29.5496,46.6395 29.5386,46.6565 C 29.5316,46.6675 29.5216,46.6775 29.5106,46.6875 Z" transform=""/><path fill="#f4953f" stroke="none" d="M 28.9958,49.3028 C 28.9898,49.3148 28.9818,49.3248 28.9718,49.3348 C 28.9628,49.3448 28.9508,49.3518 28.9398,49.3598 C 28.9338,49.3638 28.9298,49.3668 28.9238,49.3698 C 28.9048,49.3808 28.8828,49.3888 28.8588,49.3948 L 27.5538,49.7018 L 27.5538,49.7778 L 28.8588,49.4708 C 28.8828,49.4648 28.9048,49.4568 28.9238,49.4468 C 28.9298,49.4438 28.9348,49.4398 28.9408,49.4358 C 28.9528,49.4278 28.9638,49.4208 28.9718,49.4118 C 28.9728,49.4108 28.9758,49.4098 28.9768,49.4078 C 28.9848,49.3998 28.9898,49.3908 28.9948,49.3818 C 28.9948,49.3808 28.9958,49.3808 28.9958,49.3798 C 28.9968,49.3788 28.9968,49.3768 28.9978,49.3758 C 28.9998,49.3698 29.0028,49.3638 29.0048,49.3568 C 29.0058,49.3498 29.0068,49.3428 29.0068,49.3348 L 29.0068,49.2598 C 29.0068,49.2738 29.0028,49.2858 28.9968,49.2998 C 28.9968,49.2998 28.9968,49.3008 28.9958,49.3028 Z" transform=""/><path fill="#f4953f" stroke="none" d="M 26.3021,49.686 L 24.6221,49.239 C 24.5331,49.216 24.4801,49.162 24.4801,49.105 L 24.4801,49.182 C 24.4801,49.238 24.5341,49.293 24.6221,49.316 L 26.3021,49.763 L 26.3021,49.686 Z" transform=""/><path fill="#f4953f" stroke="none" d="M 28.6597,50.1886 C 28.6547,50.1926 28.6497,50.1976 28.6437,50.2016 C 28.6357,50.2086 28.6247,50.2126 28.6147,50.2176 C 28.6087,50.2206 28.6017,50.2246 28.5947,50.2276 C 28.5827,50.2316 28.5707,50.2356 28.5567,50.2386 C 28.5497,50.2406 28.5437,50.2426 28.5367,50.2446 C 28.5167,50.2476 28.4947,50.2506 28.4737,50.2506 C 28.4447,50.2506 28.4137,50.2466 28.3847,50.2386 L 26.9227,49.8506 L 25.0937,50.2796 C 25.0667,50.2856 25.0397,50.2886 25.0127,50.2886 C 24.9197,50.2886 24.8327,50.2526 24.7977,50.1946 C 24.7877,50.1766 24.7837,50.1606 24.7837,50.1436 L 24.7837,50.2196 C 24.7837,50.2366 24.7877,50.2546 24.7977,50.2706 C 24.8327,50.3296 24.9197,50.3646 25.0127,50.3646 C 25.0397,50.3646 25.0667,50.3626 25.0937,50.3556 L 26.9227,49.9276 L 28.3847,50.3156 C 28.4127,50.3226 28.4447,50.3266 28.4737,50.3266 C 28.4957,50.3266 28.5167,50.3256 28.5367,50.3216 C 28.5437,50.3206 28.5497,50.3176 28.5577,50.3156 C 28.5707,50.3126 28.5827,50.3096 28.5937,50.3046 C 28.6017,50.3016 28.6087,50.2986 28.6147,50.2946 C 28.6247,50.2896 28.6337,50.2846 28.6427,50.2786 C 28.6497,50.2746 28.6547,50.2696 28.6607,50.2646 C 28.6657,50.2606 28.6707,50.2566 28.6747,50.2526 C 28.6797,50.2476 28.6827,50.2426 28.6867,50.2376 C 28.6887,50.2346 28.6907,50.2316 28.6917,50.2286 C 28.6957,50.2196 28.6997,50.2116 28.7017,50.2036 C 28.7027,50.1956 28.7037,50.1886 28.7037,50.1816 L 28.7037,50.1046 C 28.7037,50.1226 28.6987,50.1416 28.6867,50.1606 C 28.6797,50.1716 28.6697,50.1796 28.6597,50.1886 Z" transform=""/><path fill="#f4953f" stroke="none" d="M 24.711,48.9593 C 24.74,48.9593 24.77,48.9633 24.798,48.9703 L 26.93,49.5383 L 28.696,49.1223 C 28.723,49.1163 28.75,49.1133 28.777,49.1133 C 28.871,49.1133 28.958,49.1493 28.992,49.2073 C 29.036,49.2833 28.976,49.3673 28.857,49.3943 L 27.552,49.7013 L 28.562,49.9703 C 28.679,50.0013 28.733,50.0873 28.686,50.1613 C 28.649,50.2163 28.564,50.2503 28.473,50.2503 C 28.444,50.2503 28.413,50.2463 28.384,50.2383 L 26.922,49.8503 L 25.093,50.2793 C 25.066,50.2853 25.039,50.2883 25.012,50.2883 C 24.919,50.2883 24.832,50.2533 24.797,50.1943 C 24.754,50.1183 24.814,50.0343 24.934,50.0063 L 26.301,49.6863 L 24.621,49.2393 C 24.503,49.2093 24.447,49.1223 24.497,49.0493 C 24.536,48.9923 24.622,48.9593 24.711,48.9593 Z" transform=""/><path fill="#f4953f" stroke="none" d="M 34.7681,31.9269 C 34.7681,32.1809 34.5621,32.3869 34.3081,32.3869 L 19.9081,32.3869 C 19.6541,32.3869 19.4481,32.1809 19.4481,31.9269 L 19.4481,31.3909 C 19.4481,31.1369 19.6541,30.9309 19.9081,30.9309 L 34.3081,30.9309 C 34.5621,30.9309 34.7681,31.1369 34.7681,31.3909 L 34.7681,31.9269 Z" transform=""/><path fill="#f89c44" stroke="none" d="M 37.9846,24.305 C 37.9846,24.432 37.6906,24.535 37.3276,24.535 L 16.7356,24.535 C 16.3726,24.535 16.0776,24.432 16.0776,24.305 L 16.0776,24.037 C 16.0776,23.91 16.3716,23.807 16.7356,23.807 L 37.3276,23.807 C 37.6906,23.807 37.9856,23.91 37.9856,24.037 L 37.9856,24.305 Z" transform=""/><path fill="#c75e72" stroke="none" d="M 35.5015,2.69337 C 35.5785,2.70637 32.0075,1.47937 28.5075,2.26037 C 24.9885,2.81237 21.5415,5.37337 21.4165,7.70337 C 21.4775,7.43737 15.6845,8.82537 14.5635,12.9704 C 13.5305,16.7594 15.5675,17.3594 15.5105,17.3934 C 15.5175,17.2554 14.1475,19.3434 13.8415,21.1734 C 13.4775,23.0474 14.1775,24.6614 16.9765,24.5754 C 16.9615,24.6584 17.0585,25.6364 19.3925,24.8944 C 20.5525,24.5204 23.1035,23.7634 25.9435,23.7434 C 28.8405,23.6844 33.8105,25.7224 35.7465,25.9414 C 35.9655,25.9664 38.7355,26.2014 39.8995,23.1944 C 41.4825,18.6584 37.1515,13.9674 37.0745,14.2674 C 37.0055,14.2744 39.8145,14.1774 36.5175,10.9644 C 31.6635,7.19437 33.9915,3.89637 35.5015,2.69337 Z" transform=""/><path fill="#9a4757" stroke="none" d="M 21.4168,7.70234 C 21.4778,7.43634 15.6838,8.82434 14.5628,12.9693 C 13.5308,16.7583 15.5678,17.3583 15.5108,17.3923 C 15.5168,17.2543 14.1478,19.3423 13.8418,21.1723 C 13.4778,23.0463 14.1778,24.6603 16.9768,24.5753 C 16.9618,24.6573 17.0588,25.6363 19.3928,24.8943 C 21.4578,24.1563 26.7118,23.4483 32.0798,24.6113 C 27.6348,22.5723 24.8608,21.7823 23.0948,20.3553 C 21.3488,19.1133 20.6118,17.2323 20.6948,17.2693 C 23.0698,17.6943 26.1408,18.1153 28.5148,19.0613 C 30.9048,19.9023 32.5988,21.2683 32.6128,21.2003 C 32.9378,21.4153 33.3978,21.5573 33.6808,21.4153 C 35.2918,20.9193 32.5388,17.3723 29.1008,16.3883 C 25.6958,15.0523 21.3688,15.6053 20.1458,13.8363 C 18.6128,11.4723 21.6448,9.24134 21.6958,9.32334 C 24.0168,11.0643 26.9368,11.7223 29.3728,12.5163 C 31.7948,13.2173 33.7338,14.0543 33.7498,14.0153 C 34.6068,13.7603 33.2768,13.0623 33.2698,13.0763 C 28.9908,11.1173 27.1258,9.39134 26.7258,7.25634 C 26.2928,5.24534 27.3238,2.82534 28.0798,2.35634 C 25.1708,2.74034 21.6718,5.24834 21.4168,7.70234 Z" transform=""/></svg>