<svg xmlns="http://www.w3.org/2000/svg" version="1.1" width="54" height="54" viewBox="0 0 54 54"><defs><linearGradient id="r-33ba4df8c9c64e43a5803d44b5bd2f9d" x1="0" y1="0" x2="1" y2="0.809784033195008"><stop offset="0%" stop-color="#f7a996"/><stop offset="100%" stop-color="#f15d4e"/></linearGradient></defs><path fill="#d67b72" stroke="none" d="M 43.1644,35.9189 S 44.3184,36.1879 44.3334,36.4579 C 44.3484,36.7259 43.8274,37.3699 43.5084,37.4299 C 43.1874,37.4889 42.1074,36.8839 42.1074,36.8839 L 43.1644,35.9189 Z" transform=""/><path fill="#d67b72" stroke="none" d="M 42.7451,36.4689 S 43.8291,36.6889 43.9341,37.1089 C 44.0051,37.4009 42.4241,38.5889 41.3181,38.2769 C 40.6461,38.0889 40.3691,37.7409 40.3691,37.7409 L 42.7451,36.4689 Z" transform=""/><path fill="#e59585" stroke="none" d="M 37.1089,27.7729 C 37.4839,27.9759 40.4779,30.2979 37.7839,34.0359 C 37.1189,34.9609 40.9609,35.9919 40.9609,35.9919 S 41.9449,35.5529 42.8939,35.8919 C 44.1689,36.3459 40.1619,37.8719 40.1619,37.8719 S 40.3869,38.4189 40.2409,38.4549 C 40.0999,38.4899 39.5829,37.7349 39.5139,37.5699 C 39.2179,37.3799 37.0149,36.8769 35.9219,36.1219 C 34.8129,35.3569 30.4899,32.9879 31.7919,29.8139 C 33.3029,26.1319 36.2999,27.3299 37.1089,27.7729 Z" transform=""/><path fill="#d67b72" stroke="none" d="M 5.96632,35.9778 S 5.06532,36.1658 4.97832,35.9918 C 4.89132,35.8198 4.86532,35.2768 5.05632,35.1458 C 5.25132,35.0148 6.01132,35.0498 6.01132,35.0498 L 5.96632,35.9778 Z" transform=""/><path fill="#d67b72" stroke="none" d="M 5.93915,35.5243 S 5.07615,35.6783 4.88615,35.4303 C 4.75415,35.2573 5.30715,34.0143 6.12815,33.8993 C 6.62715,33.8293 6.90915,33.9803 6.90915,33.9803 L 5.93915,35.5243 Z" transform=""/><path fill="#e59585" stroke="none" d="M 18.1556,30.3558 C 17.1416,36.6308 10.7596,34.0528 9.84562,34.8238 C 8.32162,36.1108 5.96662,35.9768 5.96662,35.9768 C 5.40062,35.9568 6.83862,33.9678 6.83862,33.9678 L 7.41862,34.1458 S 6.84262,33.8218 6.92762,33.7548 C 7.07962,33.6398 7.39962,33.8028 7.80262,34.0038 C 9.08062,33.7768 9.04162,32.2258 9.58362,32.0958 C 11.6896,31.5888 11.3776,30.7028 11.3776,30.7028 C 8.40462,27.0828 13.3706,26.0048 13.3706,26.0048 S 19.2826,23.3838 18.1556,30.3558 Z" transform=""/><path fill="#e59585" stroke="none" d="M 11.7604,26.6083 S 10.7554,24.6353 9.06543,24.6883 C 7.37443,24.7393 7.37943,26.2813 8.34043,26.7543 C 9.28243,27.2183 9.83143,25.6373 9.83143,25.6373 S 9.90043,27.4453 8.31343,27.2093 C 6.62743,26.9593 6.61143,24.0953 9.16943,24.0993 C 10.9904,24.1033 12.3414,25.8283 12.3414,25.8283 L 11.7604,26.6083 Z" transform=""/><path fill="#f7a996" stroke="none" d="M 33.4118,27.9269 S 30.4038,28.4139 27.1598,26.6079 C 21.2088,23.2899 16.8298,22.0959 12.1258,25.1979 C 5.81981,29.3549 4.56381,42.4489 17.4928,45.1639 C 36.4478,49.1439 44.0518,29.3819 44.0518,29.3819 L 33.4118,27.9269 Z" transform=""/><path fill="#e59585" stroke="none" d="M 27.8558,44.9631 C 26.6788,40.0381 28.5908,38.4601 28.5908,38.4601 L 31.7898,43.4061 C 30.5788,44.0391 29.2678,44.5721 27.8558,44.9631 Z" transform=""/><path fill="#e59585" stroke="none" d="M 17.4931,45.1636 C 15.9561,44.8056 14.6291,44.3126 13.4941,43.7146 L 14.5041,41.8676 C 15.8841,43.9546 17.9911,45.0056 19.1431,45.4526 C 18.6101,45.3896 18.0601,45.2966 17.4931,45.1636 Z" transform=""/><path fill="#d67b72" stroke="none" d="M 3.27017,46.2293 S 2.23117,46.4453 2.12717,46.2453 C 2.02617,46.0453 1.99417,45.4193 2.21817,45.2683 C 2.44217,45.1143 3.32017,45.1563 3.32017,45.1563 L 3.27017,46.2293 Z" transform=""/><path fill="#d67b72" stroke="none" d="M 3.23847,45.7045 S 2.24247,45.8815 2.02247,45.5935 C 1.86947,45.3955 2.50847,43.9595 3.45947,43.8265 C 4.03347,43.7455 4.36047,43.9185 4.36047,43.9185 L 3.23847,45.7045 Z" transform=""/><path fill="#f7a996" stroke="none" d="M 17.6775,39.649 C 16.7885,46.72 8.81047,44.003 7.75147,44.896 C 5.99047,46.383 3.27047,46.23 3.27047,46.23 C 2.61747,46.204 4.27847,43.906 4.27847,43.906 L 4.94647,44.113 S 4.28147,43.738 4.38047,43.661 C 4.55547,43.528 4.92647,43.717 5.39147,43.948 C 6.86847,43.687 6.82347,41.894 7.44947,41.743 C 9.88647,41.157 9.52347,40.134 9.52347,40.134 C 6.08647,35.952 8.64347,31.286 8.64347,31.286 S 18.6925,31.554 17.6775,39.649 Z" transform=""/><path fill="#e59585" stroke="none" d="M 34.2517,41.9013 C 29.7467,39.3483 24.6607,33.8963 23.9477,24.9703 C 24.9697,25.4303 26.0387,25.9813 27.1607,26.6073 C 30.4037,28.4133 33.4117,27.9263 33.4117,27.9263 L 44.0517,29.3823 S 41.0887,37.0823 34.2517,41.9013 Z" transform=""/><path fill="#d67b72" stroke="none" d="M 40.2987,42.9605 S 41.4767,42.8405 41.5797,43.0895 C 41.6817,43.3385 41.3977,44.1165 41.1157,44.2775 C 40.8327,44.4375 39.6137,44.2175 39.6137,44.2175 L 40.2987,42.9605 Z" transform=""/><path fill="#d67b72" stroke="none" d="M 40.082,43.6172 S 41.179,43.4722 41.414,43.8352 C 41.577,44.0892 40.469,45.7262 39.321,45.7912 C 38.624,45.8312 38.25,45.5932 38.25,45.5932 L 40.082,43.6172 Z" transform=""/><path fill="#f7a996" stroke="none" d="M 32.1863,37.1664 C 32.6073,37.2364 36.1933,38.4574 34.8633,42.8684 C 34.5363,43.9594 38.5043,43.6834 38.5043,43.6834 S 39.2913,42.9484 40.2993,42.9594 C 41.6523,42.9744 38.3603,45.7214 38.3603,45.7214 S 38.7523,46.1654 38.6253,46.2474 C 38.5023,46.3254 37.7693,45.7804 37.6493,45.6464 C 37.3083,45.5634 35.0613,45.8044 33.7823,45.4464 C 32.4843,45.0844 27.6263,44.2514 27.8243,40.8264 C 28.0533,36.8534 31.2773,37.0114 32.1863,37.1664 Z" transform=""/><path fill="#f7a996" stroke="none" d="M 43.0887,15.141 S 43.0837,13.117 44.6627,11.872 C 45.6987,11.054 47.2287,10.006 48.0687,8.76005 C 50.3467,5.38505 52.5757,10.52 51.8657,14.986 C 51.3717,18.087 49.6857,21.814 47.0037,20.797 C 44.7357,19.938 43.0887,15.141 43.0887,15.141 Z" transform=""/><path fill="url(#r-33ba4df8c9c64e43a5803d44b5bd2f9d)" stroke="none" d="M 43.8981,17.0621 C 43.3851,16.0031 43.0891,15.1411 43.0891,15.1411 S 43.0871,14.2641 43.5361,13.3071 C 44.9641,13.7581 46.4541,14.9551 46.4541,14.9551 L 43.8981,17.0621 Z" opacity="1" fill-opacity="1" style="opacity: 1;fill-opacity: 1" transform=""/><path fill="#e59585" stroke="none" d="M 43.8981,17.0621 C 43.3851,16.0031 43.0891,15.1411 43.0891,15.1411 S 43.0871,14.2641 43.5361,13.3071 C 44.9641,13.7581 46.4541,14.9551 46.4541,14.9551 L 43.8981,17.0621 Z" transform=""/><path fill="#d67b72" stroke="none" d="M 45.9298,18.4318 S 44.7558,15.7858 46.1968,13.9148 C 47.8938,11.7148 48.6428,8.77781 49.6858,8.46081 C 50.9568,8.07381 51.5038,10.8648 51.6828,11.9768 C 51.9508,13.6268 51.4978,16.8648 50.4818,18.6658 C 49.7598,19.9468 49.0728,20.8538 47.1358,20.6908 C 45.1968,20.5278 45.9298,18.4318 45.9298,18.4318 Z" transform=""/><path fill="#f7a996" stroke="none" d="M 32.9589,15.5273 S 32.8079,13.5103 31.1399,12.3883 C 30.0459,11.6513 28.4399,10.7223 27.5069,9.54332 C 24.9789,6.35232 23.1469,11.6423 24.1979,16.0403 C 24.9239,19.0943 26.8889,22.6823 29.4859,21.4663 C 31.6829,20.4353 32.9589,15.5273 32.9589,15.5273 Z" transform=""/><path fill="#e59585" stroke="none" d="M 31.9431,18.4745 C 32.3751,17.3805 32.9591,15.5275 32.9591,15.5275 S 32.8931,14.6525 32.3721,13.7335 C 30.9851,14.2905 29.5881,15.5985 29.5881,15.5985 L 31.9431,18.4745 Z" transform=""/><path fill="#d67b72" stroke="none" d="M 30.3753,19.0251 S 31.3443,16.2971 29.7643,14.5411 C 27.9053,12.4761 26.9353,9.60514 25.8733,9.36714 C 24.5753,9.07814 24.2433,11.9041 24.1473,13.0271 C 24.0093,14.6931 24.7063,17.8861 25.8573,19.6041 C 26.6733,20.8261 27.4273,21.6781 29.3463,21.3691 C 31.2683,21.0591 30.3753,19.0251 30.3753,19.0251 Z" transform=""/><path fill="#f7a996" stroke="none" d="M 44.2779,14.7677 S 41.1939,12.9527 38.1169,13.1727 C 35.9719,13.3257 33.4609,13.7157 31.3269,15.7807 C 28.4209,18.5897 27.7339,23.2247 27.6969,25.5977 C 27.6039,31.8647 31.7879,35.8327 38.2809,35.6807 C 44.6809,35.5317 49.8369,31.3487 49.4079,25.1037 C 49.1649,21.5417 48.0149,16.9497 44.2779,14.7677 Z" transform=""/><path fill="#d67b72" stroke="none" d="M 42.2443,29.4306 S 40.7733,26.1376 38.5073,26.2236 C 37.1383,26.2766 35.6443,27.7126 34.9003,29.8696 C 34.0463,32.3556 37.2863,33.1156 38.7653,33.0026 C 40.1083,32.8966 43.2553,32.4526 42.2443,29.4306 Z" transform=""/><path fill="#ffffff" stroke="none" d="M 37.0352,30.8392 C 36.6132,30.8552 36.2592,30.5262 36.2422,30.1052 C 36.2262,29.6832 36.5552,29.3282 36.9752,29.3112 C 37.3982,29.2962 37.7532,29.6252 37.7682,30.0462 C 37.7862,30.4682 37.4572,30.8232 37.0352,30.8392 Z" style="opacity: 0.4" opacity="0.4" transform=""/><ellipse cx="40.19327912198083" cy="29.953380852418952" rx="0.7641361042912511" ry="0.7641361042912511" fill="#ffffff" stroke="none" style="opacity: 0.4" opacity="0.4" r="0.7641361042912511" transform=""/><path fill="#f7a996" stroke="none" d="M 39.2538,13.5177 S 39.4058,12.1567 37.9418,12.0437 C 37.9418,12.0437 39.1178,12.6767 38.9468,13.4617 L 39.2538,13.5177 Z" transform=""/><path fill="#f7a996" stroke="none" d="M 38.9031,13.3456 S 38.6121,12.8146 38.0661,12.7336 C 38.0661,12.7336 38.7581,13.1136 38.7721,13.4526 L 38.9031,13.3456 Z" transform=""/><ellipse cx="43.604391549434276" cy="25.09228546769093" rx="0.8385439383246921" ry="1.1659384080718327" fill="#304454" stroke="none" transform="rotate(178.4413 43.60439257156502 25.092285094959202)" r="NaN"/><ellipse cx="33.596215327150205" cy="24.84835665373093" rx="0.8385439383246921" ry="1.1659384080718327" fill="#304454" stroke="none" transform="rotate(178.4413 33.596215381745324 24.84835680425827)" r="NaN"/><ellipse cx="37.35672366002274" cy="29.99996803241201" rx="0.3235123218845263" ry="0.3235123218845263" fill="#304454" stroke="none" r="0.3235123218845263" transform=""/><path fill="#304454" stroke="none" d="M 39.8568,30.2284 C 40.0348,30.2224 40.1738,30.0714 40.1668,29.8934 C 40.1598,29.7144 40.0098,29.5754 39.8308,29.5834 C 39.6528,29.5894 39.5148,29.7394 39.5188,29.9184 C 39.5278,30.0964 39.6778,30.2354 39.8568,30.2284 Z" transform=""/></svg>