<svg xmlns="http://www.w3.org/2000/svg" version="1.1" width="300" height="300" viewBox="0 0 300 300"><defs/><path fill="#bdcccc" stroke="none" d="M 164.484,47.9528 C 163.437,47.0038 161.081,48.6788 161.081,48.6788 S 161.675,46.4128 160.523,45.7208 C 159.407,45.0508 159.407,44.9948 158.681,44.1588 C 158.681,44.1588 157.72,45.6608 158.347,47.2278 C 158.681,48.0648 159.184,48.4558 159.965,48.9018 C 159.965,48.9018 159.956,48.9128 159.947,48.9228 C 159.944,48.9268 159.941,48.9298 159.937,48.9338 C 159.922,48.9518 159.898,48.9768 159.867,49.0068 C 159.863,49.0108 159.858,49.0158 159.853,49.0198 C 159.821,49.0508 159.782,49.0858 159.736,49.1248 C 159.731,49.1288 159.727,49.1328 159.722,49.1368 C 159.672,49.1778 159.611,49.2248 159.544,49.2718 C 159.531,49.2818 159.518,49.2908 159.504,49.3008 C 159.432,49.3508 159.352,49.4028 159.262,49.4568 C 159.254,49.4618 159.245,49.4658 159.237,49.4708 C 159.152,49.5198 159.057,49.5698 158.956,49.6208 C 158.933,49.6318 158.91,49.6438 158.886,49.6558 C 158.777,49.7078 158.658,49.7588 158.53,49.8098 C 158.496,49.8228 158.461,49.8358 158.426,49.8478 C 158.308,49.8928 158.182,49.9348 158.048,49.9758 C 157.686,50.0868 157.268,50.1828 156.779,50.2518 C 156.779,50.2518 160.863,35.5788 146.083,34.3878 C 136.505,33.6138 133.633,40.5358 133.311,42.5748 C 132.593,47.1448 133.421,51.5228 134.078,52.6578 L 134.078,52.6578 C 134.08,52.6608 134.082,52.6648 134.084,52.6688 C 135.818,55.6198 140.006,57.6638 145.414,57.7668 C 147.199,57.8008 151.075,57.4908 154.27,56.4138 C 154.576,56.3108 154.871,56.1968 155.156,56.0718 C 155.161,56.0698 155.166,56.0678 155.171,56.0658 C 155.451,55.9428 155.722,55.8108 155.983,55.6708 C 155.992,55.6668 155.999,55.6618 156.007,55.6578 C 156.265,55.5188 156.514,55.3728 156.753,55.2208 C 156.761,55.2158 156.769,55.2108 156.776,55.2058 C 157.015,55.0538 157.244,54.8968 157.464,54.7358 C 157.471,54.7298 157.477,54.7258 157.484,54.7208 C 157.705,54.5578 157.917,54.3908 158.119,54.2218 C 158.122,54.2198 158.125,54.2178 158.127,54.2158 C 158.632,53.7928 159.079,53.3588 159.467,52.9398 L 159.467,52.9398 C 159.471,52.9358 159.475,52.9308 159.479,52.9268 C 159.556,52.8428 159.631,52.7598 159.703,52.6778 C 159.703,52.6778 159.704,52.6778 159.704,52.6768 C 160.762,51.4778 161.327,50.4608 161.405,50.3148 C 161.412,50.3028 161.416,50.2958 161.416,50.2958 S 165.154,51.5798 166.995,49.2358 C 166.995,49.2358 165.625,48.9868 164.484,47.9528 Z" transform=""/><ellipse cx="145.43550769523048" cy="35.14152402910281" rx="0.4842524958915616" ry="0.22366438679654074" fill="#6e6f71" stroke="none" r="NaN" transform=""/><path fill="#688da7" stroke="none" d="M 159.119,44.6619 C 159.077,44.8449 159.049,44.9459 159.049,44.9459 C 159.151,44.9319 159.248,44.9149 159.345,44.8989 C 159.271,44.8279 159.199,44.7509 159.119,44.6619 Z" style="opacity: 0.1" opacity="0.1" transform=""/><path fill="#688da7" stroke="none" d="M 161.081,48.6781 S 161.129,48.4901 161.172,48.2101 C 160.93,48.4441 160.675,48.6781 160.398,48.9101 C 160.395,48.9121 160.393,48.9141 160.39,48.9171 C 160.188,49.0851 159.976,49.2521 159.755,49.4151 C 159.748,49.4201 159.742,49.4251 159.735,49.4301 C 159.515,49.5911 159.286,49.7481 159.047,49.9001 C 159.039,49.9051 159.032,49.9101 159.024,49.9161 C 158.785,50.0681 158.536,50.2131 158.278,50.3521 C 158.27,50.3561 158.262,50.3611 158.254,50.3651 C 157.993,50.5051 157.722,50.6371 157.442,50.7601 C 157.437,50.7621 157.432,50.7641 157.427,50.7661 C 157.142,50.8901 156.846,51.0051 156.541,51.1091 C 153.347,52.1851 149.47,52.4951 147.684,52.4611 C 142.277,52.3581 138.089,50.3151 136.355,47.3631 C 136.353,47.3591 136.351,47.3561 136.348,47.3521 L 136.349,47.3521 C 135.74,46.3001 134.985,42.4591 135.451,38.2631 C 134.055,39.9371 133.448,41.7021 133.311,42.5751 C 132.592,47.1451 133.421,51.5221 134.078,52.6571 L 134.077,52.6571 C 134.08,52.6611 134.082,52.6651 134.084,52.6691 C 135.818,55.6201 140.006,57.6641 145.413,57.7671 C 147.199,57.8011 151.075,57.4911 154.27,56.4141 C 154.576,56.3111 154.871,56.1961 155.156,56.0721 C 155.161,56.0701 155.166,56.0671 155.171,56.0651 C 155.451,55.9431 155.722,55.8111 155.983,55.6711 C 155.991,55.6661 155.999,55.6621 156.007,55.6571 C 156.265,55.5191 156.513,55.3731 156.753,55.2211 C 156.761,55.2161 156.769,55.2111 156.776,55.2061 C 157.015,55.0541 157.244,54.8961 157.464,54.7351 C 157.471,54.7301 157.477,54.7251 157.484,54.7201 C 157.705,54.5571 157.917,54.3911 158.119,54.2221 C 158.122,54.2201 158.125,54.2171 158.127,54.2151 C 158.632,53.7931 159.079,53.3591 159.467,52.9401 L 159.467,52.9401 C 159.471,52.9351 159.475,52.9311 159.479,52.9261 C 159.556,52.8431 159.631,52.7601 159.703,52.6781 C 159.703,52.6771 159.704,52.6771 159.704,52.6771 C 160.762,51.4781 161.327,50.4611 161.405,50.3151 C 161.412,50.3031 161.416,50.2951 161.416,50.2951 S 165.154,51.5801 166.995,49.2361 C 166.995,49.2361 165.625,48.9871 164.484,47.9521 C 163.437,47.0041 161.081,48.6781 161.081,48.6781 Z" style="opacity: 0.1" opacity="0.1" transform=""/><path fill="#808184" stroke="none" d="M 144.997,35.2349 C 145.073,35.3119 145.241,35.3649 145.436,35.3649 S 145.799,35.3119 145.875,35.2349 C 145.798,35.1589 145.631,35.1059 145.436,35.1059 C 145.241,35.1049 145.073,35.1589 144.997,35.2349 Z" transform=""/><ellipse cx="144.1138931496845" cy="51.47241946243108" rx="0.5317864832183407" ry="0.883622871556732" fill="#304454" stroke="none" r="NaN" transform=""/><ellipse cx="136.04966714596242" cy="51.47241946243108" rx="0.5317864832183407" ry="0.883622871556732" fill="#304454" stroke="none" r="NaN" transform=""/><path fill="#49bbd6" stroke="none" d="M 145.239,34.7231 S 144.285,28.5621 147.597,26.7471 C 150.662,25.0661 152.604,27.9571 152.595,28.7681 C 152.589,29.2621 152.167,29.6231 151.519,29.1511 C 150.871,28.6801 150.885,27.2501 149.647,26.9991 C 148.49,26.7651 146.771,27.0261 145.829,29.8421 C 145.033,32.2241 145.239,34.7231 145.239,34.7231 Z" transform=""/><path fill="#49bbd6" stroke="none" d="M 145.239,28.429 S 144.339,25.763 142.549,25.577 C 140.525,25.367 138.602,26.919 138.591,28.164 C 138.586,28.783 139.376,28.916 140.172,28.031 C 140.968,27.147 141.388,26.063 142.903,26.251 C 144.076,26.396 145.239,28.429 145.239,28.429 Z" transform=""/><path fill="#49bbd6" stroke="none" d="M 145.918,26.4984 S 146.515,24.8034 147.9,23.8304 C 149.286,22.8574 150.883,22.9134 150.8,23.6204 C 150.719,24.3054 149.381,23.8584 148.069,24.5364 C 146.727,25.2294 145.918,26.4984 145.918,26.4984 Z" transform=""/><path fill="#49bbd6" stroke="none" d="M 144.605,25.4497 S 144.206,23.4967 142.629,22.7817 C 141.392,22.2207 140.324,22.3527 140.322,22.9437 C 140.321,23.5337 141.717,23.2327 142.688,23.6217 C 144.102,24.1887 144.605,25.4497 144.605,25.4497 Z" transform=""/><path fill="#49bbd6" stroke="none" d="M 145.578,24.7273 S 147.348,20.3593 145.734,20.2703 C 144.12,20.1823 145.578,24.7273 145.578,24.7273 Z" transform=""/><path fill="#bdcccc" stroke="none" d="M 284.874,202.308 C 283.827,201.359 281.471,203.034 281.471,203.034 S 282.065,200.768 280.913,200.076 C 279.797,199.406 279.797,199.35 279.071,198.514 C 279.071,198.514 278.11,200.016 278.737,201.583 C 279.071,202.42 279.574,202.811 280.355,203.257 C 280.355,203.257 280.346,203.268 280.337,203.278 C 280.334,203.282 280.331,203.285 280.327,203.289 C 280.312,203.307 280.288,203.332 280.257,203.362 C 280.253,203.366 280.248,203.371 280.243,203.375 C 280.211,203.406 280.172,203.441 280.126,203.48 C 280.121,203.484 280.117,203.488 280.112,203.492 C 280.062,203.533 280.001,203.58 279.934,203.627 C 279.921,203.637 279.908,203.646 279.894,203.656 C 279.822,203.706 279.742,203.758 279.652,203.812 C 279.644,203.817 279.635,203.821 279.627,203.826 C 279.542,203.875 279.447,203.925 279.346,203.976 C 279.323,203.987 279.3,203.999 279.276,204.011 C 279.167,204.063 279.048,204.114 278.92,204.165 C 278.886,204.178 278.851,204.191 278.816,204.203 C 278.698,204.248 278.572,204.29 278.438,204.331 C 278.076,204.442 277.658,204.538 277.169,204.607 C 277.169,204.607 281.253,189.934 266.473,188.743 C 256.895,187.969 254.023,194.891 253.701,196.93 C 252.983,201.5 253.811,205.878 254.468,207.013 L 254.468,207.013 C 254.47,207.016 254.472,207.02 254.474,207.024 C 256.208,209.975 260.396,212.019 265.804,212.122 C 267.589,212.156 271.465,211.846 274.66,210.769 C 274.966,210.666 275.261,210.552 275.546,210.427 C 275.551,210.425 275.556,210.423 275.561,210.421 C 275.841,210.298 276.112,210.166 276.373,210.026 C 276.382,210.022 276.389,210.017 276.397,210.013 C 276.655,209.874 276.904,209.728 277.143,209.576 C 277.151,209.571 277.159,209.566 277.166,209.561 C 277.405,209.409 277.634,209.252 277.854,209.091 C 277.861,209.085 277.867,209.081 277.874,209.076 C 278.095,208.913 278.307,208.746 278.509,208.577 C 278.512,208.575 278.515,208.573 278.517,208.571 C 279.022,208.148 279.469,207.714 279.857,207.295 L 279.857,207.295 C 279.861,207.291 279.865,207.286 279.869,207.282 C 279.946,207.198 280.021,207.115 280.093,207.033 C 280.093,207.033 280.094,207.033 280.094,207.032 C 281.152,205.833 281.717,204.816 281.795,204.67 C 281.802,204.658 281.806,204.651 281.806,204.651 S 285.544,205.935 287.385,203.591 C 287.385,203.591 286.015,203.342 284.874,202.308 Z" transform=""/><ellipse cx="265.82528213694957" cy="189.4968263075209" rx="0.4842524958915616" ry="0.22366438679654074" fill="#6e6f71" stroke="none" r="NaN" transform=""/><path fill="#688da7" stroke="none" d="M 279.509,199.017 C 279.467,199.2 279.439,199.301 279.439,199.301 C 279.541,199.287 279.638,199.27 279.735,199.254 C 279.661,199.183 279.589,199.106 279.509,199.017 Z" style="opacity: 0.1" opacity="0.1" transform=""/><path fill="#688da7" stroke="none" d="M 281.471,203.033 S 281.519,202.845 281.562,202.565 C 281.32,202.799 281.065,203.033 280.788,203.265 C 280.785,203.267 280.783,203.269 280.78,203.272 C 280.578,203.44 280.366,203.607 280.145,203.77 C 280.138,203.775 280.132,203.78 280.125,203.785 C 279.905,203.946 279.676,204.103 279.437,204.255 C 279.429,204.26 279.422,204.265 279.414,204.271 C 279.175,204.423 278.926,204.568 278.668,204.707 C 278.66,204.711 278.652,204.716 278.644,204.72 C 278.383,204.86 278.112,204.992 277.832,205.115 C 277.827,205.117 277.822,205.119 277.817,205.121 C 277.532,205.245 277.236,205.36 276.931,205.464 C 273.737,206.54 269.86,206.85 268.074,206.816 C 262.667,206.713 258.479,204.67 256.745,201.718 C 256.743,201.714 256.741,201.711 256.738,201.707 L 256.739,201.707 C 256.13,200.655 255.375,196.814 255.841,192.618 C 254.445,194.292 253.838,196.057 253.701,196.93 C 252.982,201.5 253.811,205.877 254.468,207.012 L 254.467,207.012 C 254.47,207.016 254.472,207.02 254.474,207.024 C 256.208,209.975 260.396,212.019 265.803,212.122 C 267.589,212.156 271.465,211.846 274.66,210.769 C 274.966,210.666 275.261,210.551 275.546,210.427 C 275.551,210.425 275.556,210.422 275.561,210.42 C 275.841,210.298 276.112,210.166 276.373,210.026 C 276.381,210.021 276.389,210.017 276.397,210.012 C 276.655,209.874 276.903,209.728 277.143,209.576 C 277.151,209.571 277.159,209.566 277.166,209.561 C 277.405,209.409 277.634,209.251 277.854,209.09 C 277.861,209.085 277.867,209.08 277.874,209.075 C 278.095,208.912 278.307,208.746 278.509,208.577 C 278.512,208.575 278.515,208.572 278.517,208.57 C 279.022,208.148 279.469,207.714 279.857,207.295 L 279.857,207.295 C 279.861,207.29 279.865,207.286 279.869,207.281 C 279.946,207.198 280.021,207.115 280.093,207.033 C 280.093,207.032 280.094,207.032 280.094,207.032 C 281.152,205.833 281.717,204.816 281.795,204.67 C 281.802,204.658 281.806,204.65 281.806,204.65 S 285.544,205.935 287.385,203.591 C 287.385,203.591 286.015,203.342 284.874,202.307 C 283.827,201.359 281.471,203.033 281.471,203.033 Z" style="opacity: 0.1" opacity="0.1" transform=""/><path fill="#808184" stroke="none" d="M 265.386,189.59 C 265.462,189.667 265.63,189.72 265.825,189.72 S 266.188,189.667 266.264,189.59 C 266.187,189.514 266.02,189.461 265.825,189.461 C 265.63,189.46 265.462,189.514 265.386,189.59 Z" transform=""/><ellipse cx="264.50366759140354" cy="205.82772174084917" rx="0.5317864832183407" ry="0.883622871556732" fill="#304454" stroke="none" r="NaN" transform=""/><ellipse cx="256.4394415876815" cy="205.82772174084917" rx="0.5317864832183407" ry="0.883622871556732" fill="#304454" stroke="none" r="NaN" transform=""/><path fill="#49bbd6" stroke="none" d="M 265.629,189.078 S 264.675,182.917 267.987,181.102 C 271.052,179.421 272.994,182.312 272.985,183.123 C 272.979,183.617 272.557,183.978 271.909,183.506 C 271.261,183.035 271.275,181.605 270.037,181.354 C 268.88,181.12 267.161,181.381 266.219,184.197 C 265.423,186.579 265.629,189.078 265.629,189.078 Z" transform=""/><path fill="#49bbd6" stroke="none" d="M 265.629,182.784 S 264.729,180.118 262.939,179.932 C 260.915,179.722 258.992,181.274 258.981,182.519 C 258.976,183.138 259.766,183.271 260.562,182.386 C 261.358,181.502 261.778,180.418 263.293,180.606 C 264.466,180.751 265.629,182.784 265.629,182.784 Z" transform=""/><path fill="#49bbd6" stroke="none" d="M 266.307,180.854 S 266.904,179.159 268.289,178.186 C 269.675,177.213 271.272,177.269 271.189,177.976 C 271.108,178.661 269.77,178.214 268.458,178.892 C 267.116,179.585 266.307,180.854 266.307,180.854 Z" transform=""/><path fill="#49bbd6" stroke="none" d="M 264.995,179.805 S 264.596,177.852 263.019,177.137 C 261.782,176.576 260.714,176.708 260.712,177.299 C 260.711,177.889 262.107,177.588 263.078,177.977 C 264.492,178.544 264.995,179.805 264.995,179.805 Z" transform=""/><path fill="#49bbd6" stroke="none" d="M 265.967,179.083 S 267.737,174.715 266.123,174.626 C 264.509,174.538 265.967,179.083 265.967,179.083 Z" transform=""/><path fill="#4d677a" stroke="none" d="M 276.346,49.892 S 277.728,48.894 277.997,49.047 S 278.036,50.199 278.036,50.199 L 276.346,49.892 Z" transform=""/><path fill="#bdcccc" stroke="none" d="M 277.842,56.1517 S 278.541,56.3267 278.978,55.9767 C 279.414,55.6277 279.065,54.7967 279.065,54.7967 L 277.842,56.1517 Z" transform=""/><path fill="#4d677a" stroke="none" d="M 261.026,60.9123 S 259.279,62.0473 258.711,63.2273 C 258.711,63.2273 262.161,61.3483 263.997,61.3053 C 263.997,61.3053 262.03,60.9123 261.026,60.9123 Z" transform=""/><path fill="#4d677a" stroke="none" d="M 265.873,48.1314 S 269.086,44.4154 271.847,44.9674 C 271.847,44.9674 269.559,47.3634 269.927,49.1794 C 269.94,49.2404 269.954,49.3004 269.973,49.3604 C 270.542,51.1934 265.873,48.1314 265.873,48.1314 Z" transform=""/><path fill="#7a3440" stroke="none" d="M 259.046,55.5051 S 256.149,59.3871 257.03,60.3291 C 258.409,60.2731 260.899,59.3011 260.899,59.3011 L 262.812,57.6011 L 259.046,55.5051 Z" transform=""/><path fill="#4d677a" stroke="none" d="M 282.154,49.527 C 282.02,47.912 282.58,45.787 283.003,44.09 L 282.191,43.713 L 283.288,43.111 C 283.71,41.851 284.344,40.611 285.258,39.441 C 285.258,39.441 282.618,40.604 280.562,42.714 C 278.654,44.672 279.519,49.791 279.519,49.791 S 271.521,49.885 264.84,47.156 C 256.729,43.844 249.365,39.929 249.597,43.299 C 249.785,46.028 253.078,52.708 254.584,53.743 C 256.09,54.778 260.946,56.178 260.794,56.755 C 260.324,58.542 256.561,59.859 257.031,60.329 C 257.502,60.8 271.709,66.07 280.366,53.366 C 280.366,53.366 283.827,57.689 287.092,57.648 C 283.623,54.221 283.011,52.629 282.154,49.527 Z" transform=""/><path fill="#fffdfd" stroke="none" d="M 260.018,56.021 S 259.957,56.841 260.048,56.933 C 260.139,57.024 260.564,56.356 260.564,56.356 L 260.018,56.021 Z" transform=""/><path fill="#fffdfd" stroke="none" d="M 259.135,55.5023 S 259.074,56.3223 259.165,56.4143 C 259.256,56.5043 259.682,55.8363 259.682,55.8363 L 259.135,55.5023 Z" transform=""/><path fill="#fffdfd" stroke="none" d="M 258.389,59.5178 S 257.786,58.9598 257.657,58.9748 C 257.529,58.9888 257.787,59.7378 257.787,59.7378 L 258.389,59.5178 Z" transform=""/><path fill="#bdcccc" stroke="none" d="M 281.4,50.4494 S 278.478,56.7574 269.973,56.5194 C 261.547,56.2834 254.207,47.7214 252.326,45.4624 C 251.036,43.9154 250.155,42.9964 249.611,42.9264 C 249.595,43.0394 249.587,43.1624 249.597,43.2984 C 249.785,46.0284 253.078,52.7084 254.584,53.7434 C 256.089,54.7774 260.946,56.1784 260.794,56.7554 C 260.323,58.5414 256.56,59.8594 257.03,60.3294 C 257.497,60.7974 271.855,66.1304 280.365,53.3664 C 280.984,51.8534 281.4,50.4494 281.4,50.4494 Z" transform=""/><path fill="#688da7" stroke="none" d="M 264.056,49.2733 S 264.681,50.8063 263.411,52.6323 C 263.411,52.6323 264.091,50.9083 264.056,49.2733 Z" transform=""/><path fill="#688da7" stroke="none" d="M 264.71,49.7788 S 265.334,51.3118 264.065,53.1378 C 264.065,53.1378 264.744,51.4138 264.71,49.7788 Z" transform=""/><path fill="#688da7" stroke="none" d="M 265.239,50.2701 S 265.864,51.8021 264.594,53.6291 C 264.594,53.6291 265.274,51.9051 265.239,50.2701 Z" transform=""/><path fill="#304454" stroke="none" d="M 267.831,58.6254 C 267.58,56.9684 266.877,56.9684 266.726,55.6624 C 266.726,55.6624 266.775,55.5724 266.827,55.4614 C 266.827,55.4614 270.642,58.1734 271.898,58.5244 C 271.898,58.5244 272.056,61.7004 274.911,62.5414 C 274.886,62.6124 274.886,62.6784 274.886,62.7564 C 274.886,62.7574 268.464,62.8054 267.831,58.6254 Z" transform=""/><path fill="#4d677a" stroke="none" d="M 267.931,58.4238 C 267.68,56.7668 266.977,56.7668 266.827,55.4618 C 266.827,55.4618 268.383,56.1638 269.488,56.0648 C 269.488,56.0648 270.743,57.9728 271.998,58.3248 C 271.998,58.3248 272.299,61.3358 274.91,62.5418 C 274.91,62.5418 268.564,62.6038 267.931,58.4238 Z" transform=""/><ellipse cx="261.06428200525215" cy="49.86011543253957" rx="0.4992006642849217" ry="0.8294778795221126" fill="#304454" stroke="none" r="NaN" transform=""/><path fill="#4d677a" stroke="none" d="M 279.794,112.456 S 281.176,111.458 281.445,111.611 S 281.484,112.763 281.484,112.763 L 279.794,112.456 Z" transform=""/><path fill="#bdcccc" stroke="none" d="M 281.29,118.716 S 281.989,118.891 282.426,118.541 C 282.862,118.192 282.513,117.361 282.513,117.361 L 281.29,118.716 Z" transform=""/><path fill="#4d677a" stroke="none" d="M 264.474,123.476 S 262.727,124.611 262.159,125.791 C 262.159,125.791 265.609,123.912 267.445,123.869 C 267.445,123.869 265.478,123.476 264.474,123.476 Z" transform=""/><path fill="#4d677a" stroke="none" d="M 269.321,110.696 S 272.534,106.98 275.295,107.532 C 275.295,107.532 273.007,109.928 273.375,111.744 C 273.388,111.805 273.402,111.865 273.421,111.925 C 273.99,113.758 269.321,110.696 269.321,110.696 Z" transform=""/><path fill="#7a3440" stroke="none" d="M 262.494,118.069 S 259.597,121.951 260.478,122.893 C 261.857,122.837 264.347,121.865 264.347,121.865 L 266.26,120.165 L 262.494,118.069 Z" transform=""/><path fill="#4d677a" stroke="none" d="M 285.602,112.091 C 285.468,110.476 286.028,108.351 286.451,106.654 L 285.639,106.277 L 286.736,105.675 C 287.158,104.415 287.792,103.175 288.706,102.005 C 288.706,102.005 286.066,103.168 284.01,105.278 C 282.102,107.236 282.967,112.355 282.967,112.355 S 274.969,112.449 268.288,109.72 C 260.177,106.408 252.813,102.493 253.045,105.863 C 253.233,108.592 256.526,115.272 258.032,116.307 C 259.538,117.342 264.394,118.742 264.242,119.319 C 263.772,121.106 260.009,122.423 260.479,122.893 C 260.95,123.364 275.157,128.634 283.814,115.93 C 283.814,115.93 287.275,120.253 290.54,120.212 C 287.071,116.785 286.459,115.193 285.602,112.091 Z" transform=""/><path fill="#fffdfd" stroke="none" d="M 263.466,118.585 S 263.405,119.405 263.496,119.497 C 263.587,119.588 264.012,118.92 264.012,118.92 L 263.466,118.585 Z" transform=""/><path fill="#fffdfd" stroke="none" d="M 262.583,118.066 S 262.522,118.886 262.613,118.978 C 262.704,119.068 263.13,118.4 263.13,118.4 L 262.583,118.066 Z" transform=""/><path fill="#fffdfd" stroke="none" d="M 261.837,122.082 S 261.234,121.524 261.105,121.539 C 260.977,121.553 261.235,122.302 261.235,122.302 L 261.837,122.082 Z" transform=""/><path fill="#bdcccc" stroke="none" d="M 284.848,113.014 S 281.926,119.322 273.421,119.084 C 264.995,118.848 257.655,110.286 255.774,108.027 C 254.484,106.48 253.603,105.561 253.059,105.491 C 253.043,105.604 253.035,105.727 253.045,105.863 C 253.233,108.593 256.526,115.273 258.032,116.308 C 259.537,117.342 264.394,118.743 264.242,119.32 C 263.771,121.106 260.008,122.424 260.478,122.894 C 260.945,123.362 275.303,128.695 283.813,115.931 C 284.432,114.418 284.848,113.014 284.848,113.014 Z" transform=""/><path fill="#688da7" stroke="none" d="M 267.504,111.837 S 268.129,113.37 266.859,115.196 C 266.859,115.196 267.539,113.472 267.504,111.837 Z" transform=""/><path fill="#688da7" stroke="none" d="M 268.158,112.343 S 268.782,113.876 267.513,115.702 C 267.513,115.702 268.192,113.978 268.158,112.343 Z" transform=""/><path fill="#688da7" stroke="none" d="M 268.687,112.834 S 269.312,114.366 268.042,116.193 C 268.042,116.193 268.722,114.469 268.687,112.834 Z" transform=""/><path fill="#304454" stroke="none" d="M 271.279,121.19 C 271.028,119.533 270.325,119.533 270.174,118.227 C 270.174,118.227 270.223,118.137 270.275,118.026 C 270.275,118.026 274.09,120.738 275.346,121.089 C 275.346,121.089 275.504,124.265 278.359,125.106 C 278.334,125.177 278.334,125.243 278.334,125.321 C 278.334,125.322 271.912,125.37 271.279,121.19 Z" transform=""/><path fill="#4d677a" stroke="none" d="M 271.379,120.988 C 271.128,119.331 270.425,119.331 270.275,118.026 C 270.275,118.026 271.831,118.728 272.936,118.629 C 272.936,118.629 274.191,120.537 275.446,120.889 C 275.446,120.889 275.747,123.9 278.358,125.106 C 278.358,125.106 272.012,125.168 271.379,120.988 Z" transform=""/><ellipse cx="264.5122644878643" cy="112.42427302234395" rx="0.4992006642849217" ry="0.8294778795221126" fill="#304454" stroke="none" r="NaN" transform=""/><path fill="#4d677a" stroke="none" d="M 233.053,226.583 S 234.435,225.585 234.704,225.738 S 234.743,226.89 234.743,226.89 L 233.053,226.583 Z" transform=""/><path fill="#bdcccc" stroke="none" d="M 234.549,232.843 S 235.248,233.018 235.685,232.668 C 236.121,232.319 235.772,231.488 235.772,231.488 L 234.549,232.843 Z" transform=""/><path fill="#4d677a" stroke="none" d="M 217.733,237.604 S 215.986,238.739 215.418,239.919 C 215.418,239.919 218.868,238.04 220.704,237.997 C 220.704,237.997 218.737,237.604 217.733,237.604 Z" transform=""/><path fill="#4d677a" stroke="none" d="M 222.579,224.823 S 225.792,221.107 228.553,221.659 C 228.553,221.659 226.265,224.055 226.633,225.871 C 226.646,225.932 226.66,225.992 226.679,226.052 C 227.248,227.885 222.579,224.823 222.579,224.823 Z" transform=""/><path fill="#7a3440" stroke="none" d="M 215.753,232.196 S 212.856,236.078 213.737,237.02 C 215.116,236.964 217.606,235.992 217.606,235.992 L 219.519,234.292 L 215.753,232.196 Z" transform=""/><path fill="#4d677a" stroke="none" d="M 238.861,226.218 C 238.727,224.603 239.287,222.478 239.71,220.781 L 238.898,220.404 L 239.995,219.802 C 240.417,218.542 241.051,217.302 241.965,216.132 C 241.965,216.132 239.325,217.295 237.269,219.405 C 235.361,221.363 236.226,226.482 236.226,226.482 S 228.228,226.576 221.547,223.847 C 213.436,220.535 206.072,216.62 206.304,219.99 C 206.492,222.719 209.785,229.399 211.291,230.434 S 217.653,232.869 217.501,233.446 C 217.031,235.233 213.268,236.55 213.738,237.02 C 214.209,237.491 228.416,242.761 237.073,230.057 C 237.073,230.057 240.534,234.38 243.799,234.339 C 240.33,230.912 239.718,229.32 238.861,226.218 Z" transform=""/><path fill="#fffdfd" stroke="none" d="M 216.725,232.712 S 216.664,233.532 216.755,233.624 C 216.846,233.715 217.271,233.047 217.271,233.047 L 216.725,232.712 Z" transform=""/><path fill="#fffdfd" stroke="none" d="M 215.842,232.194 S 215.781,233.014 215.872,233.106 C 215.963,233.196 216.389,232.528 216.389,232.528 L 215.842,232.194 Z" transform=""/><path fill="#fffdfd" stroke="none" d="M 215.096,236.209 S 214.493,235.651 214.364,235.666 C 214.236,235.68 214.494,236.429 214.494,236.429 L 215.096,236.209 Z" transform=""/><path fill="#bdcccc" stroke="none" d="M 238.107,227.141 S 235.185,233.449 226.68,233.211 C 218.254,232.975 210.914,224.413 209.033,222.154 C 207.743,220.607 206.862,219.688 206.318,219.618 C 206.302,219.731 206.294,219.854 206.304,219.99 C 206.492,222.72 209.785,229.4 211.291,230.435 C 212.796,231.469 217.653,232.87 217.501,233.447 C 217.03,235.233 213.267,236.551 213.737,237.021 C 214.204,237.489 228.562,242.822 237.072,230.058 C 237.691,228.545 238.107,227.141 238.107,227.141 Z" transform=""/><path fill="#688da7" stroke="none" d="M 220.763,225.965 S 221.388,227.498 220.118,229.324 C 220.118,229.324 220.798,227.6 220.763,225.965 Z" transform=""/><path fill="#688da7" stroke="none" d="M 221.417,226.47 S 222.041,228.003 220.772,229.829 C 220.772,229.829 221.451,228.105 221.417,226.47 Z" transform=""/><path fill="#688da7" stroke="none" d="M 221.946,226.961 S 222.571,228.493 221.301,230.32 C 221.301,230.32 221.981,228.596 221.946,226.961 Z" transform=""/><path fill="#304454" stroke="none" d="M 224.538,235.317 C 224.287,233.66 223.584,233.66 223.433,232.354 C 223.433,232.354 223.482,232.264 223.534,232.153 C 223.534,232.153 227.349,234.865 228.605,235.216 C 228.605,235.216 228.763,238.392 231.618,239.233 C 231.593,239.304 231.593,239.37 231.593,239.448 C 231.593,239.449 225.171,239.497 224.538,235.317 Z" transform=""/><path fill="#4d677a" stroke="none" d="M 224.638,235.115 C 224.387,233.458 223.684,233.458 223.534,232.153 C 223.534,232.153 225.09,232.855 226.195,232.756 C 226.195,232.756 227.45,234.664 228.705,235.016 C 228.705,235.016 229.006,238.027 231.617,239.233 C 231.617,239.233 225.271,239.295 224.638,235.115 Z" transform=""/><ellipse cx="217.77115613601157" cy="226.55138988223447" rx="0.4992006642849217" ry="0.8294778795221126" fill="#304454" stroke="none" r="NaN" transform=""/><path fill="#4d677a" stroke="none" d="M 45.3443,104.115 S 46.7263,103.117 46.9953,103.27 C 47.2643,103.423 47.0343,104.422 47.0343,104.422 L 45.3443,104.115 Z" transform=""/><path fill="#bdcccc" stroke="none" d="M 46.8403,110.375 S 47.5393,110.55 47.9763,110.2 C 48.4123,109.851 48.0633,109.02 48.0633,109.02 L 46.8403,110.375 Z" transform=""/><path fill="#4d677a" stroke="none" d="M 30.0241,115.136 S 28.2771,116.271 27.7091,117.451 C 27.7091,117.451 31.1591,115.572 32.9951,115.529 C 32.9951,115.529 31.0281,115.136 30.0241,115.136 Z" transform=""/><path fill="#4d677a" stroke="none" d="M 34.8707,102.355 S 38.0837,98.6389 40.8447,99.1909 C 40.8447,99.1909 38.5567,101.587 38.9247,103.403 C 38.9377,103.464 38.9517,103.524 38.9707,103.584 C 39.5397,105.417 34.8707,102.355 34.8707,102.355 Z" transform=""/><path fill="#7a3440" stroke="none" d="M 28.0444,109.729 S 25.1474,113.611 26.0284,114.553 C 27.4074,114.497 29.8974,113.525 29.8974,113.525 L 31.8104,111.825 L 28.0444,109.729 Z" transform=""/><path fill="#4d677a" stroke="none" d="M 51.1518,103.75 C 51.0178,102.135 51.5778,100.01 52.0008,98.3135 L 51.1888,97.9365 L 52.2858,97.3345 C 52.7078,96.0745 53.3418,94.8345 54.2558,93.6645 C 54.2558,93.6645 51.6158,94.8275 49.5598,96.9375 C 47.6518,98.8955 48.5168,104.014 48.5168,104.014 S 40.5188,104.108 33.8378,101.379 C 25.7268,98.0675 18.3628,94.1525 18.5948,97.5225 C 18.7828,100.251 22.0758,106.931 23.5818,107.966 S 29.9438,110.401 29.7918,110.978 C 29.3218,112.765 25.5588,114.082 26.0288,114.552 C 26.4998,115.023 40.7068,120.293 49.3638,107.589 C 49.3638,107.589 52.8248,111.912 56.0898,111.871 C 52.6208,108.444 52.0088,106.852 51.1518,103.75 Z" transform=""/><path fill="#fffdfd" stroke="none" d="M 29.0165,110.244 S 28.9555,111.064 29.0465,111.156 C 29.1375,111.247 29.5625,110.579 29.5625,110.579 L 29.0165,110.244 Z" transform=""/><path fill="#fffdfd" stroke="none" d="M 28.1332,109.726 S 28.0722,110.546 28.1632,110.638 C 28.2542,110.728 28.6802,110.06 28.6802,110.06 L 28.1332,109.726 Z" transform=""/><path fill="#fffdfd" stroke="none" d="M 27.387,113.741 S 26.784,113.183 26.655,113.198 C 26.527,113.212 26.785,113.961 26.785,113.961 L 27.387,113.741 Z" transform=""/><path fill="#bdcccc" stroke="none" d="M 50.3985,104.673 S 47.4765,110.981 38.9715,110.743 C 30.5455,110.507 23.2055,101.945 21.3245,99.6858 C 20.0345,98.1388 19.1535,97.2198 18.6095,97.1498 C 18.5935,97.2628 18.5855,97.3858 18.5955,97.5218 C 18.7835,100.252 22.0765,106.932 23.5825,107.967 C 25.0875,109.001 29.9445,110.402 29.7925,110.979 C 29.3215,112.765 25.5585,114.083 26.0285,114.553 C 26.4955,115.021 40.8535,120.354 49.3635,107.59 C 49.9825,106.077 50.3985,104.673 50.3985,104.673 Z" transform=""/><path fill="#688da7" stroke="none" d="M 33.0539,103.497 S 33.6789,105.03 32.4089,106.856 C 32.4089,106.856 33.0889,105.132 33.0539,103.497 Z" transform=""/><path fill="#688da7" stroke="none" d="M 33.7077,104.002 S 34.3317,105.535 33.0627,107.361 C 33.0627,107.361 33.7417,105.637 33.7077,104.002 Z" transform=""/><path fill="#688da7" stroke="none" d="M 34.2368,104.494 S 34.8618,106.026 33.5918,107.853 C 33.5918,107.853 34.2718,106.129 34.2368,104.494 Z" transform=""/><path fill="#304454" stroke="none" d="M 36.8288,112.849 C 36.5778,111.192 35.8748,111.192 35.7238,109.886 C 35.7238,109.886 35.7728,109.796 35.8248,109.685 C 35.8248,109.685 39.6398,112.397 40.8958,112.748 C 40.8958,112.748 41.0538,115.924 43.9088,116.765 C 43.8838,116.836 43.8838,116.902 43.8838,116.98 C 43.8838,116.981 37.4618,117.029 36.8288,112.849 Z" transform=""/><path fill="#4d677a" stroke="none" d="M 36.9292,112.647 C 36.6782,110.99 35.9752,110.99 35.8252,109.685 C 35.8252,109.685 37.3812,110.387 38.4862,110.288 C 38.4862,110.288 39.7412,112.196 40.9962,112.548 C 40.9962,112.548 41.2972,115.559 43.9082,116.765 C 43.9082,116.765 37.5622,116.827 36.9292,112.647 Z" transform=""/><ellipse cx="30.062311472436278" cy="104.08354432032033" rx="0.4992006642849217" ry="0.8294778795221126" fill="#304454" stroke="none" r="NaN" transform=""/><path fill="#4d677a" stroke="none" d="M 279.855,272.188 S 281.237,271.19 281.506,271.343 C 281.775,271.496 281.545,272.495 281.545,272.495 L 279.855,272.188 Z" transform=""/><path fill="#bdcccc" stroke="none" d="M 281.351,278.448 S 282.05,278.623 282.487,278.273 C 282.923,277.924 282.574,277.093 282.574,277.093 L 281.351,278.448 Z" transform=""/><path fill="#4d677a" stroke="none" d="M 264.535,283.208 S 262.788,284.343 262.22,285.523 C 262.22,285.523 265.67,283.644 267.506,283.601 C 267.506,283.601 265.539,283.208 264.535,283.208 Z" transform=""/><path fill="#4d677a" stroke="none" d="M 269.382,270.427 S 272.595,266.711 275.356,267.263 C 275.356,267.263 273.068,269.659 273.436,271.475 C 273.449,271.536 273.463,271.596 273.482,271.656 C 274.051,273.489 269.382,270.427 269.382,270.427 Z" transform=""/><path fill="#7a3440" stroke="none" d="M 262.555,277.801 S 259.658,281.683 260.539,282.625 C 261.918,282.569 264.408,281.597 264.408,281.597 L 266.321,279.897 L 262.555,277.801 Z" transform=""/><path fill="#4d677a" stroke="none" d="M 285.663,271.823 C 285.529,270.208 286.089,268.083 286.512,266.386 L 285.7,266.009 L 286.797,265.407 C 287.219,264.147 287.853,262.907 288.767,261.737 C 288.767,261.737 286.127,262.9 284.071,265.01 C 282.163,266.968 283.028,272.087 283.028,272.087 S 275.03,272.181 268.349,269.452 C 260.238,266.14 252.874,262.225 253.106,265.595 C 253.294,268.324 256.587,275.004 258.093,276.039 C 259.599,277.074 264.455,278.474 264.303,279.051 C 263.833,280.838 260.07,282.155 260.54,282.625 C 261.011,283.096 275.218,288.366 283.875,275.662 C 283.875,275.662 287.336,279.985 290.601,279.944 C 287.132,276.517 286.52,274.925 285.663,271.823 Z" transform=""/><path fill="#fffdfd" stroke="none" d="M 263.528,278.317 S 263.467,279.137 263.558,279.229 C 263.649,279.32 264.074,278.652 264.074,278.652 L 263.528,278.317 Z" transform=""/><path fill="#fffdfd" stroke="none" d="M 262.644,277.798 S 262.583,278.618 262.674,278.71 C 262.765,278.8 263.191,278.132 263.191,278.132 L 262.644,277.798 Z" transform=""/><path fill="#fffdfd" stroke="none" d="M 261.898,281.814 S 261.295,281.256 261.166,281.271 C 261.038,281.285 261.296,282.034 261.296,282.034 L 261.898,281.814 Z" transform=""/><path fill="#bdcccc" stroke="none" d="M 284.91,272.745 S 281.988,279.053 273.483,278.815 C 265.057,278.579 257.717,270.017 255.836,267.758 C 254.546,266.211 253.665,265.292 253.121,265.222 C 253.105,265.335 253.097,265.458 253.107,265.594 C 253.295,268.324 256.588,275.004 258.094,276.039 C 259.599,277.073 264.456,278.474 264.304,279.051 C 263.833,280.837 260.07,282.155 260.54,282.625 C 261.007,283.093 275.365,288.426 283.875,275.662 C 284.494,274.149 284.91,272.745 284.91,272.745 Z" transform=""/><path fill="#688da7" stroke="none" d="M 267.565,271.569 S 268.19,273.102 266.92,274.928 C 266.92,274.928 267.6,273.204 267.565,271.569 Z" transform=""/><path fill="#688da7" stroke="none" d="M 268.219,272.075 S 268.843,273.608 267.574,275.434 C 267.574,275.434 268.253,273.71 268.219,272.075 Z" transform=""/><path fill="#688da7" stroke="none" d="M 268.748,272.566 S 269.373,274.098 268.103,275.925 C 268.103,275.925 268.783,274.201 268.748,272.566 Z" transform=""/><path fill="#304454" stroke="none" d="M 271.34,280.921 C 271.089,279.264 270.386,279.264 270.235,277.958 C 270.235,277.958 270.284,277.868 270.336,277.757 C 270.336,277.757 274.151,280.469 275.407,280.82 C 275.407,280.82 275.565,283.996 278.42,284.837 C 278.395,284.908 278.395,284.974 278.395,285.052 C 278.395,285.053 271.973,285.101 271.34,280.921 Z" transform=""/><path fill="#4d677a" stroke="none" d="M 271.44,280.72 C 271.189,279.063 270.486,279.063 270.336,277.758 C 270.336,277.758 271.892,278.46 272.997,278.361 C 272.997,278.361 274.252,280.269 275.507,280.621 C 275.507,280.621 275.808,283.632 278.419,284.838 C 278.419,284.838 272.073,284.9 271.44,280.72 Z" transform=""/><ellipse cx="264.5733531951623" cy="272.1561562287487" rx="0.4992006642849217" ry="0.8294778795221126" fill="#304454" stroke="none" r="NaN" transform=""/><path fill="#4d677a" stroke="none" d="M 221.38,98.4159 S 222.762,97.4179 223.031,97.5709 S 223.07,98.7229 223.07,98.7229 L 221.38,98.4159 Z" transform=""/><path fill="#bdcccc" stroke="none" d="M 222.876,104.676 S 223.575,104.851 224.012,104.501 C 224.448,104.152 224.099,103.321 224.099,103.321 L 222.876,104.676 Z" transform=""/><path fill="#4d677a" stroke="none" d="M 206.059,109.436 S 204.312,110.571 203.744,111.751 C 203.744,111.751 207.194,109.872 209.03,109.829 C 209.03,109.829 207.063,109.436 206.059,109.436 Z" transform=""/><path fill="#4d677a" stroke="none" d="M 210.906,96.6554 S 214.119,92.9394 216.88,93.4914 C 216.88,93.4914 214.592,95.8874 214.96,97.7034 C 214.973,97.7644 214.987,97.8244 215.006,97.8844 C 215.575,99.7174 210.906,96.6554 210.906,96.6554 Z" transform=""/><path fill="#7a3440" stroke="none" d="M 204.08,104.029 S 201.183,107.911 202.064,108.853 C 203.443,108.797 205.933,107.825 205.933,107.825 L 207.846,106.125 L 204.08,104.029 Z" transform=""/><path fill="#4d677a" stroke="none" d="M 227.187,98.051 C 227.053,96.436 227.613,94.311 228.036,92.614 L 227.224,92.237 L 228.321,91.635 C 228.743,90.375 229.377,89.135 230.291,87.965 C 230.291,87.965 227.651,89.128 225.595,91.238 C 223.687,93.196 224.552,98.315 224.552,98.315 S 216.554,98.409 209.873,95.68 C 201.762,92.368 194.398,88.453 194.63,91.823 C 194.818,94.552 198.111,101.232 199.617,102.267 S 205.979,104.702 205.827,105.279 C 205.357,107.066 201.594,108.383 202.064,108.853 C 202.535,109.324 216.742,114.594 225.399,101.89 C 225.399,101.89 228.86,106.213 232.125,106.172 C 228.656,102.745 228.044,101.153 227.187,98.051 Z" transform=""/><path fill="#fffdfd" stroke="none" d="M 205.052,104.545 S 204.991,105.365 205.082,105.457 C 205.173,105.548 205.598,104.88 205.598,104.88 L 205.052,104.545 Z" transform=""/><path fill="#fffdfd" stroke="none" d="M 204.169,104.026 S 204.108,104.846 204.199,104.938 C 204.29,105.028 204.716,104.36 204.716,104.36 L 204.169,104.026 Z" transform=""/><path fill="#fffdfd" stroke="none" d="M 203.422,108.042 S 202.819,107.484 202.69,107.499 C 202.562,107.513 202.82,108.262 202.82,108.262 L 203.422,108.042 Z" transform=""/><path fill="#bdcccc" stroke="none" d="M 226.434,98.9733 S 223.512,105.281 215.007,105.043 C 206.581,104.807 199.241,96.2453 197.36,93.9863 C 196.07,92.4393 195.189,91.5203 194.645,91.4503 C 194.629,91.5633 194.621,91.6863 194.631,91.8223 C 194.819,94.5523 198.112,101.232 199.618,102.267 C 201.123,103.301 205.98,104.702 205.828,105.279 C 205.357,107.065 201.594,108.383 202.064,108.853 C 202.531,109.321 216.889,114.654 225.399,101.89 C 226.018,100.377 226.434,98.9733 226.434,98.9733 Z" transform=""/><path fill="#688da7" stroke="none" d="M 209.089,97.7972 S 209.714,99.3302 208.444,101.156 C 208.444,101.156 209.124,99.4322 209.089,97.7972 Z" transform=""/><path fill="#688da7" stroke="none" d="M 209.743,98.3028 S 210.367,99.8358 209.098,101.662 C 209.098,101.662 209.777,99.9378 209.743,98.3028 Z" transform=""/><path fill="#688da7" stroke="none" d="M 210.272,98.794 S 210.897,100.326 209.627,102.153 C 209.627,102.153 210.307,100.429 210.272,98.794 Z" transform=""/><path fill="#304454" stroke="none" d="M 212.864,107.149 C 212.613,105.492 211.91,105.492 211.759,104.186 C 211.759,104.186 211.808,104.096 211.86,103.985 C 211.86,103.985 215.675,106.697 216.931,107.048 C 216.931,107.048 217.089,110.224 219.944,111.065 C 219.919,111.136 219.919,111.202 219.919,111.28 C 219.919,111.281 213.497,111.329 212.864,107.149 Z" transform=""/><path fill="#4d677a" stroke="none" d="M 212.965,106.948 C 212.714,105.291 212.011,105.291 211.861,103.986 C 211.861,103.986 213.417,104.688 214.522,104.589 C 214.522,104.589 215.777,106.497 217.032,106.849 C 217.032,106.849 217.333,109.86 219.944,111.066 C 219.944,111.066 213.598,111.128 212.965,106.948 Z" transform=""/><ellipse cx="206.09761509492049" cy="98.38406681258752" rx="0.4992006642849217" ry="0.8294778795221126" fill="#304454" stroke="none" r="NaN" transform=""/></svg>