<svg xmlns="http://www.w3.org/2000/svg" version="1.1" width="54" height="54" viewBox="0 0 54 54"><defs/><path fill="#4d677a" stroke="none" d="M 37.6728,25.0776 S 39.5158,23.7466 39.8738,23.9506 C 40.2318,24.1556 39.9258,25.4866 39.9258,25.4866 L 37.6728,25.0776 Z" transform=""/><path fill="#bdcccc" stroke="none" d="M 39.6675,33.4239 S 40.5995,33.6569 41.1815,33.1899 C 41.7635,32.7249 41.2975,31.6169 41.2975,31.6169 L 39.6675,33.4239 Z" transform=""/><path fill="#4d677a" stroke="none" d="M 17.2459,39.7713 S 14.9169,41.2843 14.1589,42.8573 C 14.1589,42.8573 18.7599,40.3533 21.2069,40.2953 C 21.2069,40.2953 18.5849,39.7713 17.2459,39.7713 Z" transform=""/><path fill="#4d677a" stroke="none" d="M 23.708,22.7302 S 27.992,17.7762 31.674,18.5112 C 31.674,18.5112 28.623,21.7062 29.113,24.1272 C 29.13,24.2082 29.15,24.2892 29.175,24.3692 C 29.934,26.8122 23.708,22.7302 23.708,22.7302 Z" transform=""/><path fill="#7a3440" stroke="none" d="M 14.6063,32.5617 S 10.7443,37.7387 11.9183,38.9937 C 13.7563,38.9187 17.0773,37.6227 17.0773,37.6227 L 19.6273,35.3557 L 14.6063,32.5617 Z" transform=""/><path fill="#4d677a" stroke="none" d="M 45.4162,24.591 C 45.2372,22.438 45.9842,19.605 46.5482,17.342 L 45.4652,16.839 L 46.9282,16.036 C 47.4902,14.356 48.3372,12.703 49.5552,11.142 C 49.5552,11.142 46.0342,12.694 43.2942,15.507 C 40.7502,18.118 41.9032,24.943 41.9032,24.943 S 31.2392,25.069 22.3312,21.429 C 11.5172,17.013 1.69724,11.794 2.00724,16.287 C 2.25824,19.925 6.64924,28.832 8.65724,30.213 C 10.6632,31.592 17.1392,33.459 16.9362,34.228 C 16.3092,36.611 11.2912,38.367 11.9182,38.994 C 12.5462,39.621 31.4892,46.648 43.0312,29.71 C 43.0312,29.71 47.6472,35.474 52.0002,35.42 C 47.3752,30.849 46.5592,28.727 45.4162,24.591 Z" transform=""/><path fill="#fffdfd" stroke="none" d="M 15.9024,33.2496 S 15.8214,34.3426 15.9424,34.4646 C 16.0634,34.5876 16.6304,33.6966 16.6304,33.6966 L 15.9024,33.2496 Z" transform=""/><path fill="#fffdfd" stroke="none" d="M 14.7248,32.558 S 14.6428,33.651 14.7648,33.773 C 14.8858,33.895 15.4538,33.003 15.4538,33.003 L 14.7248,32.558 Z" transform=""/><path fill="#fffdfd" stroke="none" d="M 13.7298,37.912 S 12.9258,37.168 12.7538,37.188 C 12.5838,37.207 12.9268,38.206 12.9268,38.206 L 13.7298,37.912 Z" transform=""/><path fill="#bdcccc" stroke="none" d="M 44.4117,25.8207 S 40.5157,34.2317 29.1747,33.9137 C 17.9407,33.5997 8.15472,22.1827 5.64572,19.1707 C 3.92572,17.1087 2.75172,15.8837 2.02572,15.7907 C 2.00472,15.9417 1.99472,16.1047 2.00772,16.2867 C 2.25872,19.9257 6.64972,28.8317 8.65772,30.2127 C 10.6637,31.5917 17.1397,33.4597 16.9377,34.2277 C 16.3097,36.6107 11.2917,38.3677 11.9187,38.9937 C 12.5417,39.6177 31.6847,46.7287 43.0317,29.7097 C 43.8577,27.6937 44.4117,25.8207 44.4117,25.8207 Z" transform=""/><path fill="#688da7" stroke="none" d="M 21.2857,24.2526 S 22.1187,26.2966 20.4257,28.7306 C 20.4257,28.7306 21.3317,26.4336 21.2857,24.2526 Z" transform=""/><path fill="#688da7" stroke="none" d="M 22.1574,24.9267 S 22.9894,26.9707 21.2974,29.4047 C 21.2974,29.4047 22.2034,27.1077 22.1574,24.9267 Z" transform=""/><path fill="#688da7" stroke="none" d="M 22.8628,25.5817 S 23.6968,27.6237 22.0028,30.0597 C 22.0038,30.0597 22.9088,27.7617 22.8628,25.5817 Z" transform=""/><path fill="#304454" stroke="none" d="M 26.3189,36.7221 C 25.9839,34.5131 25.0469,34.5131 24.8459,32.7711 C 24.8459,32.7711 24.9109,32.6511 24.9799,32.5041 C 24.9799,32.5041 30.0669,36.1191 31.7419,36.5871 C 31.7419,36.5871 31.9519,40.8221 35.7589,41.9431 C 35.7249,42.0381 35.7249,42.1251 35.7249,42.2311 C 35.7249,42.2311 27.1639,42.2951 26.3189,36.7221 Z" transform=""/><path fill="#4d677a" stroke="none" d="M 26.4527,36.4533 C 26.1177,34.2443 25.1807,34.2443 24.9797,32.5043 C 24.9797,32.5043 27.0547,33.4403 28.5287,33.3083 C 28.5287,33.3083 30.2017,35.8523 31.8757,36.3213 C 31.8757,36.3213 32.2767,40.3363 35.7577,41.9443 C 35.7587,41.9443 27.2977,42.0263 26.4527,36.4533 Z" transform=""/><ellipse cx="17.296855558417555" cy="25.035069246944776" rx="0.665600885713229" ry="1.1059705060294833" fill="#304454" stroke="none" r="NaN" transform=""/></svg>