<svg xmlns="http://www.w3.org/2000/svg" version="1.1" width="74" height="74" viewBox="0 0 74 74"><defs/><path fill="#688da7" stroke="none" d="M 35.5138,52.3628 C 31.3178,50.6938 30.4018,51.7028 30.4018,51.7028 S 30.2448,52.1448 30.0368,52.8518 C 29.8948,53.3348 29.7298,53.9378 29.5738,54.6158 C 29.4108,55.3228 29.2568,56.1048 29.1488,56.9058 C 29.0718,57.4818 29.0198,58.0648 29.0048,58.6358 C 28.9888,59.2168 29.0138,59.7798 29.0898,60.3088 C 29.2988,61.7258 29.8908,62.8708 31.1528,63.2828 C 32.4928,63.7218 33.8178,63.1288 35.0098,62.0998 C 35.3678,61.7908 35.7138,61.4418 36.0458,61.0688 C 36.4368,60.6298 36.8068,60.1578 37.1498,59.6788 C 37.4908,59.2028 37.8058,58.7228 38.0898,58.2618 C 38.4368,57.6948 38.7398,57.1578 38.9858,56.6988 C 39.4458,55.8338 39.7078,55.2428 39.7078,55.2428 S 39.7088,54.0328 35.5138,52.3628 Z" transform=""/><path fill="#688da7" stroke="none" d="M 59.2842,51.4601 C 55.0262,49.9561 54.1502,51.0001 54.1502,51.0001 S 54.0112,51.4491 53.8322,52.1641 C 53.7092,52.6511 53.5692,53.2611 53.4372,53.9451 C 53.3022,54.6571 53.1792,55.4461 53.1032,56.2501 C 53.0482,56.8281 53.0192,57.4131 53.0272,57.9841 C 53.0352,58.5641 53.0802,59.1271 53.1782,59.6521 C 53.4412,61.0601 54.0782,62.1811 55.3552,62.5431 C 56.7122,62.9291 58.0122,62.2851 59.1622,61.2101 C 59.5092,60.8871 59.8402,60.5251 60.1582,60.1401 C 60.5312,59.6851 60.8822,59.1991 61.2082,58.7071 C 61.5292,58.2191 61.8252,57.7261 62.0902,57.2541 C 62.4162,56.6751 62.6972,56.1261 62.9242,55.6581 C 63.3502,54.7751 63.5892,54.1741 63.5892,54.1741 S 63.5422,52.9641 59.2842,51.4601 Z" transform=""/><path fill="#688da7" stroke="none" d="M 44.4814,24.8073 C 48.6044,26.6163 47.7274,43.4133 39.4814,46.8283 C 31.2344,50.2433 26.7874,21.9473 32.6754,17.9283 C 38.5644,13.9093 44.4814,24.8073 44.4814,24.8073 M 44.4814,24.8073 L 44.4814,24.8073 Z" transform=""/><path fill="#688da7" stroke="none" d="M 59.8093,43.0062 S 66.8313,39.9742 67.0843,43.6732 C 67.3353,47.3742 68.3253,49.9772 69.4783,49.8702 C 70.6323,49.7622 70.0283,51.0382 70.0283,51.0382 S 68.6313,51.2322 67.5273,49.7312 C 66.4233,48.2302 64.7013,45.8882 63.4363,46.2612 C 62.1693,46.6382 59.8093,43.0062 59.8093,43.0062 Z" transform=""/><path fill="#688da7" stroke="none" d="M 68.6241,49.9933 C 68.8531,49.7553 68.8461,49.5863 68.8461,49.5863 S 70.9211,49.8923 71.0131,50.5233 C 71.1071,51.1533 70.7881,52.1583 71.6561,51.9963 C 72.5241,51.8333 71.5021,53.0463 71.2811,53.2943 C 70.5911,54.0723 69.6151,53.6063 69.5541,52.7423 C 69.4951,51.8763 68.5571,52.2343 68.4571,51.3283 C 68.3561,50.4233 68.0491,50.3123 68.0491,50.3123 S 68.3941,50.2313 68.6241,49.9933 Z" transform=""/><path fill="#bdcccc" stroke="none" d="M 65.082,61.5704 C 66.223,59.9504 67.278,56.2234 67.365,53.1604 C 67.473,49.3854 67.725,41.0664 63.163,38.1574 C 58.601,35.2494 54.999,32.1344 44.195,35.4574 C 33.389,38.7794 35.311,39.4024 31.709,42.5174 C 28.976,44.8814 29.839,55.9614 32.825,61.0864 C 33.888,60.9214 35.218,60.7934 36.849,60.7934 C 38.389,60.7934 39.846,60.9954 41.118,61.2664 C 42.431,59.5954 42.753,57.6794 42.753,57.6794 S 46.597,59.1324 51.398,58.5094 C 56.202,57.8864 57.162,56.4334 57.162,56.4334 S 57.347,59.7844 58.307,61.5284 C 59.294,61.3964 60.465,61.2984 61.877,61.2984 C 63.002,61.2984 64.082,61.4084 65.082,61.5704 Z" transform=""/><path fill="#bdcccc" stroke="none" d="M 32.8248,61.0873 C 33.7738,62.7193 34.9378,63.7523 36.2718,63.7023 C 38.6228,63.6133 40.1418,62.5063 41.1178,61.2663 C 39.8468,60.9953 38.3888,60.7933 36.8488,60.7933 C 35.2188,60.7943 33.8888,60.9223 32.8248,61.0873 Z" transform=""/><path fill="#bdcccc" stroke="none" d="M 61.877,61.2983 C 60.466,61.2983 59.294,61.3973 58.307,61.5283 C 58.979,62.7433 59.949,63.8293 61.331,64.0003 C 62.407,64.1333 63.879,63.2783 65.082,61.5713 C 64.082,61.4083 63.002,61.2983 61.877,61.2983 Z" transform=""/><path fill="#bdcccc" stroke="none" d="M 30.2053,25.3622 S 36.8813,17.5912 46.7053,18.5122 C 53.7763,19.1742 61.6293,23.9332 59.8623,37.4132 C 58.0933,50.8922 47.2933,59.9082 41.2543,54.7522 C 35.7413,50.0462 36.1723,37.7362 35.5083,34.8642 C 34.8453,31.9912 33.5203,30.2232 33.5203,28.4552 S 30.2053,25.3622 30.2053,25.3622 Z" transform=""/><path fill="#688da7" stroke="none" d="M 33.7413,29.4187 S 38.1803,22.8597 45.0953,23.5077 C 50.0733,23.9737 56.9803,29.2027 55.7373,38.6907 C 54.4913,48.1787 44.6293,54.1497 41.5183,50.1057 C 38.4073,46.0617 36.0983,38.4427 35.6313,36.4207 C 35.1653,34.3987 36.0743,32.8397 36.0743,31.5957 C 36.0743,30.3517 33.7413,29.4187 33.7413,29.4187 Z" style="opacity: 0.3" opacity="0.3" transform=""/><path fill="#bdcccc" stroke="none" d="M 30.7656,24.3953 C 25.8976,24.0633 25.2536,30.8793 21.7136,33.5223 C 14.2716,39.0773 4.12256,34.7673 8.37156,24.7083 C 12.0436,16.0193 8.63056,9.60626 5.10956,10.0033 C 2.18456,10.3343 2.00456,11.8943 2.86356,12.2713 C 3.03856,12.3473 3.25456,12.3793 3.50056,12.3363 C 4.96156,12.0853 2.80256,13.4673 2.16456,14.3533 C 1.95156,14.6513 1.95156,15.0083 2.12956,15.3363 C 2.51156,16.0413 3.71556,16.6173 5.39956,16.1943 C 6.90156,15.8183 7.66056,15.8263 7.77756,16.5693 C 7.85456,17.0493 7.66456,17.8313 7.22756,19.0223 C 6.64156,20.6153 3.75356,25.2603 2.80256,30.2653 C 2.83056,30.2643 2.85656,30.2583 2.88456,30.2583 C 3.71956,30.2583 4.39656,30.7703 4.39656,31.4023 C 4.39656,32.0333 3.71956,32.5453 2.88456,32.5453 C 2.75856,32.5453 2.63856,32.5293 2.52256,32.5083 C 2.43456,34.1083 2.60356,35.7033 3.16456,37.2103 C 3.27556,37.1133 3.39456,37.0203 3.52756,36.9423 C 4.38356,36.4423 5.38356,36.5623 5.75956,37.2083 C 6.13756,37.8563 5.75156,38.7843 4.89656,39.2843 C 4.73156,39.3803 4.56256,39.4453 4.39456,39.4963 C 5.27456,40.7053 6.50156,41.8133 8.17156,42.7633 C 8.19356,42.7753 8.21456,42.7853 8.23456,42.7963 C 8.28856,42.6353 8.35456,42.4733 8.44556,42.3163 C 8.96856,41.4113 9.91856,40.9803 10.5676,41.3543 C 11.2156,41.7293 11.3176,42.7673 10.7936,43.6723 C 10.7386,43.7683 10.6756,43.8553 10.6126,43.9403 C 10.8546,44.0363 11.0936,44.1263 11.3316,44.2093 C 13.0706,44.8133 14.7176,45.2063 16.2546,45.4493 C 16.2386,45.3263 16.2286,45.1993 16.2276,45.0703 C 16.2196,43.9423 16.8026,43.0233 17.5316,43.0183 S 18.8586,43.9213 18.8676,45.0503 C 18.8686,45.2883 18.8396,45.5143 18.7926,45.7273 C 24.5586,46.0703 28.8306,42.1733 28.4396,45.0103 C 28.0496,47.8473 28.6406,49.8883 32.3186,49.6273 C 33.5956,49.5373 36.4056,48.0483 37.9536,45.9683 C 45.3686,36.0113 35.6336,24.7273 30.7656,24.3953 Z" transform=""/><path fill="#bdcccc" stroke="none" d="M 4.39936,31.4022 C 4.39936,30.7702 3.72336,30.2592 2.88736,30.2592 C 2.86036,30.2592 2.83436,30.2642 2.80536,30.2652 C 2.66536,31.0082 2.56736,31.7582 2.52636,32.5082 C 2.64236,32.5292 2.76236,32.5452 2.88736,32.5452 C 3.72336,32.5452 4.39936,32.0332 4.39936,31.4022 Z" transform=""/><path fill="#bdcccc" stroke="none" d="M 5.76299,37.2084 C 5.38499,36.5624 4.38599,36.4424 3.53099,36.9424 C 3.39699,37.0214 3.27899,37.1124 3.16799,37.2104 C 3.46399,38.0014 3.86699,38.7664 4.39799,39.4964 C 4.56599,39.4454 4.73499,39.3794 4.89899,39.2844 C 5.75499,38.7844 6.14099,37.8554 5.76299,37.2084 Z" transform=""/><path fill="#bdcccc" stroke="none" d="M 10.5694,41.3543 C 9.92136,40.9793 8.97136,41.4113 8.44736,42.3163 C 8.35736,42.4733 8.29036,42.6353 8.23736,42.7963 C 9.04636,43.2533 9.83836,43.6313 10.6134,43.9403 C 10.6784,43.8553 10.7394,43.7683 10.7944,43.6723 C 11.3204,42.7673 11.2184,41.7293 10.5694,41.3543 Z" transform=""/><path fill="#bdcccc" stroke="none" d="M 17.5343,43.0176 C 16.8063,43.0226 16.2223,43.9416 16.2303,45.0696 C 16.2313,45.1996 16.2413,45.3256 16.2583,45.4486 C 17.1413,45.5876 17.9903,45.6786 18.7953,45.7256 C 18.8433,45.5126 18.8723,45.2866 18.8703,45.0486 C 18.8623,43.9206 18.2633,43.0126 17.5343,43.0176 Z" transform=""/><path fill="#fffdfd" stroke="#bdcccc" d="M 30.8779,42.0018 C 29.3969,41.5298 28.8529,43.0188 25.8299,42.2728 C 21.7429,41.2638 20.3039,38.3988 19.9369,38.4968 C 19.5699,38.5968 19.8079,44.0768 24.4259,45.8668 C 29.0429,47.6558 30.4149,46.6148 31.1199,46.3198 C 32.2849,45.8328 33.1119,42.7168 30.8779,42.0018 Z" style="stroke-miterlimit: 10" stroke-miterlimit="10" transform=""/><ellipse cx="30.205274440588862" cy="34.024798741017605" rx="0.9577563541398321" ry="1.591419576471772" fill="#304454" stroke="none" r="NaN" transform=""/></svg>