<svg xmlns="http://www.w3.org/2000/svg" version="1.1" width="54" height="54" viewBox="0 0 54 54"><defs><linearGradient id="r-e221628e09d74722a390688a5f020754" x1="0" y1="0" x2="1" y2="2.4492935982947064e-16"><stop offset="0%" stop-color="#fdc075"/><stop offset="100%" stop-color="#de9354"/></linearGradient><linearGradient id="r-275d87dc1d554bdc900a94fbd71f6ff1" x1="0" y1="0" x2="1" y2="2.4492935982947064e-16"><stop offset="0%" stop-color="#fdc075"/><stop offset="100%" stop-color="#de9354"/></linearGradient></defs><path fill="#fcd0a1" stroke="none" d="M 51.161,31.5928 S 53.136,28.8008 51.025,25.2588 C 48.914,21.7178 44.078,21.7178 42.852,21.7178 C 41.627,21.7178 33.59,20.7638 29.027,19.3338 S 16.291,14.4988 14.997,13.8178 C 13.703,13.1358 9.95799,13.0678 9.88899,20.0828 C 9.88899,20.0828 21.944,27.1658 26.848,28.1878 C 31.751,29.2088 39.924,31.7288 41.831,31.9328 C 43.738,32.1378 48.097,33.7038 51.161,31.5928 Z" transform=""/><path fill="#e8b986" stroke="none" d="M 49.2544,30.7075 S 50.8894,25.1235 42.9884,24.7825 C 35.0884,24.4415 27.9374,22.8075 24.3284,21.5135 C 20.7184,20.2195 14.7934,17.4275 13.0224,16.2695 C 11.2514,15.1115 10.0254,17.5635 9.89043,20.0835 C 9.89043,20.0835 28.7544,28.3925 32.1604,29.0055 C 36.2834,29.7475 47.6874,31.7295 49.2544,30.7075 Z" transform=""/><path fill="#b35138" stroke="none" d="M 6.28047,19.0618 C 7.77847,17.4268 9.41347,17.9038 10.2305,18.1768 C 11.0475,18.4488 10.9805,18.7898 20.1065,22.3988 C 29.2315,26.0088 42.9885,27.8478 42.9885,27.8478 C 44.3515,28.0518 44.6235,27.9838 48.5735,28.5288 S 52.8645,33.3638 50.0715,34.7938 C 47.2795,36.2238 38.0165,34.7938 33.4535,34.3178 C 28.8915,33.8408 21.6715,31.6618 16.3595,29.7548 S 6.55247,23.5568 6.27947,23.2848 C 6.00847,23.0118 4.78247,20.6958 6.28047,19.0618 Z" transform=""/><path fill="#9b3924" stroke="none" d="M 33.4539,34.3171 C 28.8909,33.8411 21.6719,31.6611 16.3599,29.7541 S 6.55285,23.5571 6.27985,23.2841 C 6.02385,23.0281 4.92385,20.9631 6.04385,19.3571 C 6.94685,20.2231 8.39985,21.0811 9.55485,21.8101 C 11.1849,22.8401 13.5869,23.2691 24.3109,27.3011 C 35.0359,31.3341 46.4469,31.5921 47.3049,31.6781 C 48.1629,31.7631 48.8289,32.2111 47.9909,32.9641 C 47.2889,33.5951 48.7299,34.7131 49.7019,34.6131 C 50.0459,34.5781 50.4339,34.4511 50.7989,34.2981 C 50.5859,34.4861 50.3449,34.6541 50.0719,34.7931 C 47.2799,36.2241 38.0169,34.7941 33.4539,34.3171 Z" transform=""/><path fill="url(#r-e221628e09d74722a390688a5f020754)" stroke="none" d="M 14.9979,13.818 C 16.2919,14.499 24.2109,17.721 28.7729,19.152 C 33.3359,20.582 41.6269,21.718 42.8529,21.718 C 43.9759,21.718 48.1299,21.721 50.4419,24.447 C 46.7899,21.296 39.8409,23.87 28.5159,21.211 C 21.7239,19.616 19.5069,17.436 13.4149,15.034 C 12.4179,14.64 11.7939,14.6 11.2159,14.813 C 12.4519,13.078 14.1939,13.394 14.9979,13.818 Z" opacity="1" fill-opacity="1" style="opacity: 1;fill-opacity: 1" transform=""/><path fill="url(#r-275d87dc1d554bdc900a94fbd71f6ff1)" stroke="none" d="M 48.8308,35.1649 S 47.9248,35.7859 44.6238,33.7719 C 41.0868,31.6149 37.0638,31.3209 34.2718,30.7759 C 31.4788,30.2309 15.2028,24.8509 13.4318,24.1699 C 11.6608,23.4889 6.73282,20.8659 5.87182,20.5599 C 3.76082,19.8109 0.949816,20.0899 2.39882,24.0339 C 3.62482,27.3709 5.93982,30.5039 14.6568,35.4749 C 23.3748,40.4469 37.3948,41.5919 43.7388,39.5619 C 47.1428,38.4709 48.8308,36.1859 48.8308,35.1649 Z" opacity="1" fill-opacity="1" style="opacity: 1;fill-opacity: 1" transform=""/><path fill="#fcd0a1" stroke="none" d="M 5.87278,20.5635 C 6.73378,20.8695 11.6608,23.4915 13.4328,24.1735 C 15.2028,24.8545 31.4798,30.2345 34.2728,30.7795 C 37.0648,31.3235 41.0878,31.6195 44.6238,33.7755 C 47.9258,35.7895 48.8318,35.1685 48.8318,35.1685 C 48.8318,36.0295 47.6278,37.7855 45.2128,38.9685 C 45.0928,38.2435 44.8998,37.6825 44.7748,37.5145 C 44.3878,36.9995 42.0718,36.9995 40.6558,36.3565 C 39.2398,35.7125 32.8058,34.5545 30.6178,34.1685 S 25.5988,33.6535 24.5698,33.3955 C 23.5398,33.1385 21.6088,32.2375 20.7088,31.9805 C 19.8078,31.7225 20.1938,31.8515 18.2638,31.4655 S 7.71078,25.2885 5.39478,24.1305 C 3.79278,23.3295 3.23678,21.7295 2.91978,20.4775 C 3.70678,20.0845 4.86778,20.2065 5.87278,20.5635 Z" transform=""/><path fill="#9b3924" stroke="none" d="M 41.3547,30.6603 C 42.2367,30.4463 43.2917,30.2363 44.6017,30.2363 L 44.6017,30.2363 C 45.1317,30.2363 45.7037,30.2713 46.3237,30.3543 L 46.3237,30.3543 L 46.3227,30.3543 C 46.6067,30.3933 46.8677,30.1953 46.9057,29.9133 L 46.9057,29.9133 C 46.9437,29.6313 46.7457,29.3723 46.4617,29.3343 L 46.4617,29.3343 C 45.7967,29.2453 45.1777,29.2073 44.6017,29.2073 L 44.6017,29.2073 C 43.1807,29.2073 42.0277,29.4373 41.1087,29.6613 L 41.1087,29.6613 C 40.1937,29.8873 39.4987,30.0913 39.0817,30.0853 L 39.0817,30.0853 C 38.9577,30.0853 38.8617,30.0703 38.7827,30.0463 L 38.7827,30.0463 C 38.3567,29.9303 37.6887,29.2953 36.8997,28.5753 L 36.8997,28.5753 C 36.1007,27.8643 35.1217,27.0773 33.8247,26.7533 L 33.8247,26.7533 C 33.4247,26.6533 33.0327,26.6133 32.6517,26.6133 L 32.6517,26.6133 C 31.0407,26.6273 29.6467,27.2633 28.3247,27.2493 L 28.3247,27.2493 C 27.9107,27.2483 27.5057,27.1943 27.0847,27.0523 L 27.0847,27.0523 C 26.0187,26.6893 25.4127,26.0793 24.5847,25.3583 L 24.5847,25.3583 C 23.7657,24.6423 22.7307,23.8613 20.9617,23.4103 L 20.9617,23.4103 C 20.4507,23.2793 19.9667,23.2293 19.5097,23.2313 L 19.5097,23.2313 C 18.1857,23.2373 17.1117,23.6113 16.1457,23.6023 L 16.1457,23.6023 C 15.8877,23.6023 15.6367,23.5793 15.3827,23.5223 L 15.3827,23.5223 C 15.0747,23.4473 14.9077,23.3103 14.6927,23.0303 L 14.6927,23.0303 C 14.4837,22.7533 14.2767,22.3413 13.9887,21.8833 L 13.9887,21.8833 C 13.4207,20.9613 12.4257,19.8983 10.3287,19.4863 L 10.3287,19.4863 C 10.0497,19.4283 9.77671,19.6083 9.71871,19.8863 L 9.71871,19.8863 C 9.66071,20.1653 9.84071,20.4363 10.1217,20.4943 L 10.1217,20.4943 C 11.5087,20.7833 12.2007,21.2943 12.6867,21.8493 L 12.6867,21.8493 C 13.1757,22.4083 13.4317,23.0543 13.8597,23.6423 L 13.8597,23.6423 C 14.1437,24.0313 14.5637,24.3983 15.1557,24.5253 L 15.1557,24.5253 C 15.4947,24.6013 15.8247,24.6303 16.1457,24.6303 L 16.1457,24.6303 C 17.3547,24.6213 18.4027,24.2513 19.5097,24.2583 L 19.5097,24.2583 C 19.8927,24.2593 20.2847,24.2993 20.7017,24.4063 L 20.7017,24.4063 C 22.2947,24.8203 23.1147,25.4513 23.9037,26.1323 L 23.9037,26.1323 C 24.6837,26.8073 25.4407,27.5803 26.7507,28.0263 L 26.7507,28.0263 C 27.2897,28.2083 27.8177,28.2773 28.3247,28.2773 L 28.3247,28.2773 C 29.9477,28.2633 31.3447,27.6263 32.6517,27.6413 L 32.6517,27.6413 C 32.9607,27.6413 33.2647,27.6733 33.5737,27.7493 L 33.5737,27.7493 C 34.5947,28.0013 35.4427,28.6553 36.2077,29.3403 L 36.2077,29.3403 C 36.9847,30.0183 37.6207,30.7373 38.4717,31.0263 L 38.4717,31.0263 C 38.6727,31.0893 38.8777,31.1133 39.0817,31.1133 L 39.0817,31.1133 C 39.7697,31.1073 40.4687,30.8723 41.3547,30.6603 L 41.3547,30.6603 Z" transform=""/><path fill="#f6b21a" stroke="none" d="M 41.3632,30.467 C 42.2402,30.253 43.2882,30.043 44.5922,30.043 L 44.5922,30.043 C 45.1182,30.043 45.6872,30.078 46.3032,30.161 L 46.3032,30.161 L 46.3022,30.161 C 46.5852,30.2 46.8442,30.002 46.8812,29.72 L 46.8812,29.72 C 46.9192,29.438 46.7222,29.179 46.4402,29.141 L 46.4402,29.141 C 45.7792,29.052 45.1632,29.014 44.5922,29.014 L 44.5922,29.014 C 43.1792,29.014 42.0312,29.244 41.1182,29.468 L 41.1182,29.468 C 40.2092,29.694 39.5182,29.898 39.1032,29.892 L 39.1032,29.892 C 38.9812,29.892 38.8842,29.877 38.8072,29.853 L 38.8072,29.853 C 38.3822,29.737 37.7182,29.102 36.9342,28.382 L 36.9342,28.382 C 36.1402,27.671 35.1672,26.884 33.8772,26.56 L 33.8772,26.56 C 33.4792,26.46 33.0892,26.42 32.7102,26.42 L 32.7102,26.42 C 31.1092,26.435 29.7232,27.071 28.4082,27.056 L 28.4082,27.056 C 27.9982,27.056 27.5942,27.002 27.1762,26.86 L 27.1762,26.86 C 26.1162,26.498 25.5142,25.887 24.6902,25.166 L 24.6902,25.166 C 23.8762,24.45 22.8472,23.669 21.0882,23.219 L 21.0882,23.219 C 20.5802,23.088 20.0992,23.038 19.6452,23.039 L 19.6452,23.039 C 18.3292,23.045 17.2612,23.419 16.3002,23.41 L 16.3002,23.41 C 16.0442,23.41 15.7942,23.387 15.5422,23.33 L 15.5422,23.33 C 15.2352,23.256 15.0702,23.118 14.8552,22.839 L 14.8552,22.839 C 14.6482,22.562 14.4422,22.15 14.1562,21.692 L 14.1562,21.692 C 13.5912,20.769 12.6032,19.707 10.5182,19.294 L 10.5182,19.294 C 10.2392,19.237 9.96824,19.417 9.91024,19.695 L 9.91024,19.695 C 9.85324,19.973 10.0332,20.245 10.3112,20.302 L 10.3112,20.302 C 11.6902,20.592 12.3772,21.103 12.8612,21.658 L 12.8612,21.658 C 13.3472,22.217 13.6012,22.863 14.0282,23.451 L 14.0282,23.451 C 14.3092,23.839 14.7272,24.207 15.3152,24.334 L 15.3152,24.334 C 15.6522,24.41 15.9812,24.439 16.2992,24.439 L 16.2992,24.439 C 17.5022,24.43 18.5442,24.06 19.6442,24.067 L 19.6442,24.067 C 20.0252,24.068 20.4152,24.108 20.8302,24.215 L 20.8302,24.215 C 22.4132,24.629 23.2282,25.26 24.0122,25.941 L 24.0122,25.941 C 24.7892,26.616 25.5412,27.39 26.8442,27.834 L 26.8442,27.834 C 27.3792,28.016 27.9042,28.086 28.4082,28.086 L 28.4082,28.086 C 30.0212,28.071 31.4102,27.435 32.7102,27.449 L 32.7102,27.449 C 33.0172,27.449 33.3202,27.481 33.6262,27.558 L 33.6262,27.558 C 34.6412,27.809 35.4842,28.463 36.2452,29.148 L 36.2452,29.148 C 37.0172,29.827 37.6502,30.546 38.4952,30.834 L 38.4952,30.834 C 38.6962,30.897 38.8992,30.921 39.1032,30.921 L 39.1032,30.921 C 39.7872,30.914 40.4822,30.679 41.3632,30.467 L 41.3632,30.467 Z" transform=""/><path fill="#fbd702" stroke="none" d="M 39.103,30.2975 C 40.262,30.2905 41.898,29.4195 44.591,29.4205 L 44.591,29.4205 C 45.135,29.4205 45.721,29.4565 46.353,29.5425 L 46.353,29.5425 C 46.424,29.5515 46.488,29.5025 46.498,29.4325 L 46.498,29.4325 C 46.507,29.3605 46.459,29.2965 46.388,29.2875 L 46.388,29.2875 C 45.744,29.2005 45.146,29.1635 44.591,29.1635 L 44.591,29.1635 C 41.852,29.1645 40.141,30.0475 39.103,30.0405 L 39.103,30.0405 C 38.949,30.0405 38.814,30.0225 38.689,29.9835 L 38.689,29.9835 C 37.506,29.6295 36.145,27.2955 33.783,26.6965 L 33.783,26.6965 C 33.419,26.6055 33.062,26.5695 32.71,26.5695 L 32.71,26.5695 C 31.222,26.5725 29.835,27.2085 28.407,27.2055 L 28.407,27.2055 C 27.962,27.2055 27.513,27.1445 27.051,26.9875 L 27.051,26.9875 C 24.759,26.2215 24.386,24.2415 20.99,23.3545 L 20.99,23.3545 C 20.518,23.2325 20.07,23.1875 19.644,23.1875 L 19.644,23.1875 C 18.409,23.1885 17.351,23.5605 16.299,23.5585 L 16.299,23.5585 C 16.02,23.5585 15.74,23.5325 15.456,23.4695 L 15.456,23.4695 C 14.643,23.2925 14.379,22.5425 13.829,21.6605 L 13.829,21.6605 C 13.282,20.7865 12.43,19.8405 10.439,19.4345 L 10.439,19.4345 C 10.37,19.4205 10.302,19.4655 10.287,19.5345 L 10.287,19.5345 C 10.273,19.6045 10.318,19.6725 10.388,19.6865 L 10.388,19.6865 C 12.316,20.0875 13.077,20.9565 13.611,21.7975 L 13.611,21.7975 C 14.141,22.6295 14.425,23.4925 15.399,23.7195 L 15.399,23.7195 C 15.705,23.7885 16.004,23.8155 16.299,23.8155 L 16.299,23.8155 C 17.411,23.8135 18.462,23.4415 19.644,23.4435 L 19.644,23.4435 C 20.053,23.4435 20.477,23.4875 20.926,23.6035 L 20.926,23.6035 C 24.215,24.4455 24.534,26.3835 26.968,27.2305 L 26.968,27.2305 C 27.46,27.3975 27.938,27.4615 28.407,27.4615 L 28.407,27.4615 C 29.909,27.4585 31.297,26.8225 32.71,26.8255 L 32.71,26.8255 C 33.044,26.8265 33.379,26.8605 33.72,26.9445 L 33.72,26.9445 C 35.968,27.4985 37.258,29.7745 38.611,30.2275 L 38.611,30.2275 C 38.765,30.2755 38.926,30.2965 39.096,30.2965 L 39.096,30.2965 C 39.098,30.2975 39.101,30.2975 39.103,30.2975 L 39.103,30.2975 Z" transform=""/></svg>