<svg xmlns="http://www.w3.org/2000/svg" width="380" height="100" viewBox="0 0 379.99999999999994 100"><path fill="none" stroke="#000" d="M369.45 65.6c.35-2.1 4.2-5.25 5.25-5.6-1.05-.35-4.9-3.5-5.25-5.6" stroke-width="2" stroke-linejoin="round" stroke-linecap="round"/><path fill="none" stroke="#000" d="M5 60h368.95" stroke-width="2"/><path fill="none" stroke="#000" d="M12.05 54.4c-.35 2.1-4.2 5.25-5.25 5.6 1.05.35 4.9 3.5 5.25 5.6" stroke-width="2" stroke-linejoin="round" stroke-linecap="round"/><path fill="none" stroke="#000" d="M375 60H6.05M30 68V52" stroke-width="2"/><ellipse cx="30" cy="60" rx="4" ry="4" stroke="#000" stroke-width="2" stroke-dasharray="0"/><path fill="none" stroke="#7854ab" d="M320.909 60A145.455 24 0 0 0 30 60M320.91 60l1.439-8M320.91 60l-1.563-5.472" stroke-width="2" stroke-dasharray="0"/><path fill="none" stroke="#000" d="M320.909 68V52" stroke-width="2" stroke-dasharray="0"/><path fill="none" stroke="#ca337c" d="M354.156 60a16.623 24 0 0 0-33.247 0M354.156 60l1.44-8M354.156 60l-1.562-5.473" stroke-width="2" stroke-dasharray="0"/><path fill="none" stroke="#000" d="M354.156 68V52M354.156 68V52" stroke-width="2" stroke-dasharray="0"/></svg>
