<svg xmlns="http://www.w3.org/2000/svg" width="320" height="164.848" viewBox="0 0 320 164.84848484848487"><path fill="#ddd7ff" stroke="#7854ab" d="M14.546 138.182v12.121h12.12l6.061-6.061v-12.121h-12.12z" stroke-width="2"/><path fill="#ddd7ff" stroke="#7854ab" d="M14.546 138.182h12.12v12.121M26.667 138.182l6.06-6.061" stroke-width="2"/><path fill="#ddd7ff" stroke="#7854ab" d="M14.546 126.061v12.121h12.12l6.061-6.061V120h-12.12z" stroke-width="2"/><path fill="#ddd7ff" stroke="#7854ab" d="M14.546 126.061h12.12v12.121M26.667 126.061l6.06-6.061M14.546 113.939v12.122h12.12L32.728 120v-12.121h-12.12z" stroke-width="2"/><path fill="#ddd7ff" stroke="#7854ab" d="M14.546 113.939h12.12v12.122M26.667 113.939l6.06-6.06" stroke-width="2"/><path fill="#ddd7ff" stroke="#7854ab" d="M14.546 101.818v12.121h12.12l6.061-6.06V95.758h-12.12z" stroke-width="2"/><path fill="#ddd7ff" stroke="#7854ab" d="M14.546 101.818h12.12v12.121M26.667 101.818l6.06-6.06" stroke-width="2"/><path fill="#ddd7ff" stroke="#7854ab" d="M14.546 89.697v12.121h12.12l6.061-6.06V83.636h-12.12z" stroke-width="2"/><path fill="#ddd7ff" stroke="#7854ab" d="M14.546 89.697h12.12v12.121M26.667 89.697l6.06-6.06M14.546 77.576v12.121h12.12l6.061-6.06V71.514h-12.12z" stroke-width="2"/><path fill="#ddd7ff" stroke="#7854ab" d="M14.546 77.576h12.12v12.121M26.667 77.576l6.06-6.06" stroke-width="2"/><path fill="#ddd7ff" stroke="#7854ab" d="M14.546 65.454v12.122h12.12l6.061-6.06V59.393h-12.12z" stroke-width="2"/><path fill="#ddd7ff" stroke="#7854ab" d="M14.546 65.454h12.12v12.122M26.667 65.454l6.06-6.06" stroke-width="2"/><path fill="#ddd7ff" stroke="#7854ab" d="M14.546 53.333v12.121h12.12l6.061-6.06V47.273h-12.12z" stroke-width="2"/><path fill="#ddd7ff" stroke="#7854ab" d="M14.546 53.333h12.12v12.121M26.667 53.333l6.06-6.06" stroke-width="2"/><path fill="#ddd7ff" stroke="#7854ab" d="M14.546 41.212v12.121h12.12l6.061-6.06V35.15h-12.12z" stroke-width="2"/><path fill="#ddd7ff" stroke="#7854ab" d="M14.546 41.212h12.12v12.121M26.667 41.212l6.06-6.06" stroke-width="2"/><path fill="#ddd7ff" stroke="#7854ab" d="M14.546 29.09v12.122h12.12l6.061-6.06V23.03h-12.12z" stroke-width="2"/><path fill="#ddd7ff" stroke="#7854ab" d="M14.546 29.09h12.12v12.122M26.667 29.09l6.06-6.06M38.788 138.182v12.121h12.121l6.06-6.061v-12.121H44.85z" stroke-width="2"/><path fill="#ddd7ff" stroke="#7854ab" d="M38.788 138.182h12.121v12.121M50.91 138.182l6.06-6.061M38.788 113.939v12.122h12.121L56.97 120v-12.121H44.85z" stroke-width="2"/><path fill="#ddd7ff" stroke="#7854ab" d="M38.788 113.939h12.121v12.122M50.91 113.939l6.06-6.06M38.788 89.697v12.121h12.121l6.06-6.06V83.636H44.85z" stroke-width="2"/><path fill="#ddd7ff" stroke="#7854ab" d="M38.788 89.697h12.121v12.121M50.91 89.697l6.06-6.06M38.788 65.454v12.122h12.121l6.06-6.06V59.393H44.85z" stroke-width="2"/><path fill="#ddd7ff" stroke="#7854ab" d="M38.788 65.454h12.121v12.122M50.91 65.454l6.06-6.06M38.788 41.212v12.121h12.121l6.06-6.06V35.15H44.85z" stroke-width="2"/><path fill="#ddd7ff" stroke="#7854ab" d="M38.788 41.212h12.121v12.121M50.91 41.212l6.06-6.06M63.03 138.182v12.121h12.121l6.061-6.061v-12.121H69.091z" stroke-width="2"/><path fill="#ddd7ff" stroke="#7854ab" d="M63.03 138.182h12.121v12.121M75.151 138.182l6.061-6.061M63.03 113.939v12.122h12.121L81.213 120v-12.121H69.091z" stroke-width="2"/><path fill="#ddd7ff" stroke="#7854ab" d="M63.03 113.939h12.121v12.122M75.151 113.939l6.061-6.06M63.03 89.697v12.121h12.121l6.061-6.06V83.636H69.091z" stroke-width="2"/><path fill="#ddd7ff" stroke="#7854ab" d="M63.03 89.697h12.121v12.121M75.151 89.697l6.061-6.06M63.03 65.454v12.122h12.121l6.061-6.06V59.393H69.091z" stroke-width="2"/><path fill="#ddd7ff" stroke="#7854ab" d="M63.03 65.454h12.121v12.122M75.151 65.454l6.061-6.06" stroke-width="2"/><path fill="#ff92c6" stroke="#9e034e" d="M111.515 138.182v12.121h12.121l6.061-6.061v-12.121h-12.121z" stroke-width="2"/><path fill="#ff92c6" stroke="#9e034e" d="M111.515 138.182h12.121v12.121M123.636 138.182l6.061-6.061" stroke-width="2"/><path fill="#ff92c6" stroke="#9e034e" d="M111.515 126.061v12.121h12.121l6.061-6.061V120h-12.121z" stroke-width="2"/><path fill="#ff92c6" stroke="#9e034e" d="M111.515 126.061h12.121v12.121M123.636 126.061l6.061-6.061M111.515 113.939v12.122h12.121l6.061-6.061v-12.121h-12.121z" stroke-width="2"/><path fill="#ff92c6" stroke="#9e034e" d="M111.515 113.939h12.121v12.122M123.636 113.939l6.061-6.06" stroke-width="2"/><path fill="#ff92c6" stroke="#9e034e" d="M111.515 101.818v12.121h12.121l6.061-6.06V95.758h-12.121z" stroke-width="2"/><path fill="#ff92c6" stroke="#9e034e" d="M111.515 101.818h12.121v12.121M123.636 101.818l6.061-6.06" stroke-width="2"/><path fill="#ff92c6" stroke="#9e034e" d="M111.515 89.697v12.121h12.121l6.061-6.06V83.636h-12.121z" stroke-width="2"/><path fill="#ff92c6" stroke="#9e034e" d="M111.515 89.697h12.121v12.121M123.636 89.697l6.061-6.06M111.515 77.576v12.121h12.121l6.061-6.06V71.514h-12.121z" stroke-width="2"/><path fill="#ff92c6" stroke="#9e034e" d="M111.515 77.576h12.121v12.121M123.636 77.576l6.061-6.06" stroke-width="2"/><path fill="#ff92c6" stroke="#9e034e" d="M111.515 65.454v12.122h12.121l6.061-6.06V59.393h-12.121z" stroke-width="2"/><path fill="#ff92c6" stroke="#9e034e" d="M111.515 65.454h12.121v12.122M123.636 65.454l6.061-6.06" stroke-width="2"/><path fill="#ff92c6" stroke="#9e034e" d="M111.515 53.333v12.121h12.121l6.061-6.06V47.273h-12.121z" stroke-width="2"/><path fill="#ff92c6" stroke="#9e034e" d="M111.515 53.333h12.121v12.121M123.636 53.333l6.061-6.06" stroke-width="2"/><path fill="#ff92c6" stroke="#9e034e" d="M111.515 41.212v12.121h12.121l6.061-6.06V35.15h-12.121z" stroke-width="2"/><path fill="#ff92c6" stroke="#9e034e" d="M111.515 41.212h12.121v12.121M123.636 41.212l6.061-6.06" stroke-width="2"/><path fill="#ff92c6" stroke="#9e034e" d="M111.515 29.09v12.122h12.121l6.061-6.06V23.03h-12.121z" stroke-width="2"/><path fill="#ff92c6" stroke="#9e034e" d="M111.515 29.09h12.121v12.122M123.636 29.09l6.061-6.06M135.758 138.182v12.121h12.121l6.06-6.061v-12.121h-12.121z" stroke-width="2"/><path fill="#ff92c6" stroke="#9e034e" d="M135.758 138.182h12.121v12.121M147.879 138.182l6.06-6.061" stroke-width="2"/><path fill="#ff92c6" stroke="#9e034e" d="M135.758 126.061v12.121h12.121l6.06-6.061V120h-12.121z" stroke-width="2"/><path fill="#ff92c6" stroke="#9e034e" d="M135.758 126.061h12.121v12.121M147.879 126.061l6.06-6.061M135.758 113.939v12.122h12.121l6.06-6.061v-12.121h-12.121z" stroke-width="2"/><path fill="#ff92c6" stroke="#9e034e" d="M135.758 113.939h12.121v12.122M147.879 113.939l6.06-6.06" stroke-width="2"/><path fill="#ff92c6" stroke="#9e034e" d="M135.758 101.818v12.121h12.121l6.06-6.06V95.758h-12.121z" stroke-width="2"/><path fill="#ff92c6" stroke="#9e034e" d="M135.758 101.818h12.121v12.121M147.879 101.818l6.06-6.06" stroke-width="2"/><path fill="#ff92c6" stroke="#9e034e" d="M135.758 89.697v12.121h12.121l6.06-6.06V83.636h-12.121z" stroke-width="2"/><path fill="#ff92c6" stroke="#9e034e" d="M135.758 89.697h12.121v12.121M147.879 89.697l6.06-6.06M135.758 77.576v12.121h12.121l6.06-6.06V71.514h-12.121z" stroke-width="2"/><path fill="#ff92c6" stroke="#9e034e" d="M135.758 77.576h12.121v12.121M147.879 77.576l6.06-6.06" stroke-width="2"/><path fill="#ff92c6" stroke="#9e034e" d="M135.758 65.454v12.122h12.121l6.06-6.06V59.393h-12.121z" stroke-width="2"/><path fill="#ff92c6" stroke="#9e034e" d="M135.758 65.454h12.121v12.122M147.879 65.454l6.06-6.06" stroke-width="2"/><path fill="#ff92c6" stroke="#9e034e" d="M135.758 53.333v12.121h12.121l6.06-6.06V47.273h-12.121z" stroke-width="2"/><path fill="#ff92c6" stroke="#9e034e" d="M135.758 53.333h12.121v12.121M147.879 53.333l6.06-6.06" stroke-width="2"/><path fill="#ff92c6" stroke="#9e034e" d="M135.758 41.212v12.121h12.121l6.06-6.06V35.15h-12.121z" stroke-width="2"/><path fill="#ff92c6" stroke="#9e034e" d="M135.758 41.212h12.121v12.121M147.879 41.212l6.06-6.06" stroke-width="2"/><path fill="#ff92c6" stroke="#9e034e" d="M135.758 29.09v12.122h12.121l6.06-6.06V23.03h-12.121z" stroke-width="2"/><path fill="#ff92c6" stroke="#9e034e" d="M135.758 29.09h12.121v12.122M147.879 29.09l6.06-6.06M160 138.182v12.121h12.121l6.061-6.061v-12.121h-12.121z" stroke-width="2"/><path fill="#ff92c6" stroke="#9e034e" d="M160 138.182h12.121v12.121M172.121 138.182l6.061-6.061" stroke-width="2"/><path fill="#ff92c6" stroke="#9e034e" d="M160 126.061v12.121h12.121l6.061-6.061V120h-12.121z" stroke-width="2"/><path fill="#ff92c6" stroke="#9e034e" d="M160 126.061h12.121v12.121M172.121 126.061l6.061-6.061M160 113.939v12.122h12.121l6.061-6.061v-12.121h-12.121z" stroke-width="2"/><path fill="#ff92c6" stroke="#9e034e" d="M160 113.939h12.121v12.122M172.121 113.939l6.061-6.06" stroke-width="2"/><path fill="#ff92c6" stroke="#9e034e" d="M160 101.818v12.121h12.121l6.061-6.06V95.758h-12.121z" stroke-width="2"/><path fill="#ff92c6" stroke="#9e034e" d="M160 101.818h12.121v12.121M172.121 101.818l6.061-6.06" stroke-width="2"/><path fill="#ff92c6" stroke="#9e034e" d="M160 89.697v12.121h12.121l6.061-6.06V83.636h-12.121z" stroke-width="2"/><path fill="#ff92c6" stroke="#9e034e" d="M160 89.697h12.121v12.121M172.121 89.697l6.061-6.06M160 77.576v12.121h12.121l6.061-6.06V71.514h-12.121z" stroke-width="2"/><path fill="#ff92c6" stroke="#9e034e" d="M160 77.576h12.121v12.121M172.121 77.576l6.061-6.06" stroke-width="2"/><path fill="#ff92c6" stroke="#9e034e" d="M160 65.454v12.122h12.121l6.061-6.06V59.393h-12.121z" stroke-width="2"/><path fill="#ff92c6" stroke="#9e034e" d="M160 65.454h12.121v12.122M172.121 65.454l6.061-6.06" stroke-width="2"/><path fill="#ff92c6" stroke="#9e034e" d="M160 53.333v12.121h12.121l6.061-6.06V47.273h-12.121z" stroke-width="2"/><path fill="#ff92c6" stroke="#9e034e" d="M160 53.333h12.121v12.121M172.121 53.333l6.061-6.06" stroke-width="2"/><path fill="#ff92c6" stroke="#9e034e" d="M160 41.212v12.121h12.121l6.061-6.06V35.15h-12.121z" stroke-width="2"/><path fill="#ff92c6" stroke="#9e034e" d="M160 41.212h12.121v12.121M172.121 41.212l6.061-6.06" stroke-width="2"/><path fill="#ff92c6" stroke="#9e034e" d="M160 29.09v12.122h12.121l6.061-6.06V23.03h-12.121z" stroke-width="2"/><path fill="#ff92c6" stroke="#9e034e" d="M160 29.09h12.121v12.122M172.121 29.09l6.061-6.06M184.242 138.182v12.121h12.122l6.06-6.061v-12.121h-12.121z" stroke-width="2"/><path fill="#ff92c6" stroke="#9e034e" d="M184.242 138.182h12.122v12.121M196.364 138.182l6.06-6.061" stroke-width="2"/><path fill="#ff92c6" stroke="#9e034e" d="M184.242 126.061v12.121h12.122l6.06-6.061V120h-12.121z" stroke-width="2"/><path fill="#ff92c6" stroke="#9e034e" d="M184.242 126.061h12.122v12.121M196.364 126.061l6.06-6.061M184.242 113.939v12.122h12.122l6.06-6.061v-12.121h-12.121z" stroke-width="2"/><path fill="#ff92c6" stroke="#9e034e" d="M184.242 113.939h12.122v12.122M196.364 113.939l6.06-6.06" stroke-width="2"/><path fill="#ff92c6" stroke="#9e034e" d="M184.242 101.818v12.121h12.122l6.06-6.06V95.758h-12.121z" stroke-width="2"/><path fill="#ff92c6" stroke="#9e034e" d="M184.242 101.818h12.122v12.121M196.364 101.818l6.06-6.06" stroke-width="2"/><path fill="#ff92c6" stroke="#9e034e" d="M184.242 89.697v12.121h12.122l6.06-6.06V83.636h-12.121z" stroke-width="2"/><path fill="#ff92c6" stroke="#9e034e" d="M184.242 89.697h12.122v12.121M196.364 89.697l6.06-6.06M184.242 77.576v12.121h12.122l6.06-6.06V71.514h-12.121z" stroke-width="2"/><path fill="#ff92c6" stroke="#9e034e" d="M184.242 77.576h12.122v12.121M196.364 77.576l6.06-6.06" stroke-width="2"/><path fill="#ff92c6" stroke="#9e034e" d="M184.242 65.454v12.122h12.122l6.06-6.06V59.393h-12.121z" stroke-width="2"/><path fill="#ff92c6" stroke="#9e034e" d="M184.242 65.454h12.122v12.122M196.364 65.454l6.06-6.06" stroke-width="2"/><path fill="#ff92c6" stroke="#9e034e" d="M184.242 53.333v12.121h12.122l6.06-6.06V47.273h-12.121z" stroke-width="2"/><path fill="#ff92c6" stroke="#9e034e" d="M184.242 53.333h12.122v12.121M196.364 53.333l6.06-6.06" stroke-width="2"/><path fill="#ff92c6" stroke="#9e034e" d="M184.242 41.212v12.121h12.122l6.06-6.06V35.15h-12.121z" stroke-width="2"/><path fill="#ff92c6" stroke="#9e034e" d="M184.242 41.212h12.122v12.121M196.364 41.212l6.06-6.06" stroke-width="2"/><path fill="#ff92c6" stroke="#9e034e" d="M184.242 29.09v12.122h12.122l6.06-6.06V23.03h-12.121z" stroke-width="2"/><path fill="#ff92c6" stroke="#9e034e" d="M184.242 29.09h12.122v12.122M196.364 29.09l6.06-6.06M208.485 138.182v12.121h12.121l6.061-6.061v-12.121h-12.122z" stroke-width="2"/><path fill="#ff92c6" stroke="#9e034e" d="M208.485 138.182h12.121v12.121M220.606 138.182l6.061-6.061" stroke-width="2"/><path fill="#ff92c6" stroke="#9e034e" d="M208.485 126.061v12.121h12.121l6.061-6.061V120h-12.122z" stroke-width="2"/><path fill="#ff92c6" stroke="#9e034e" d="M208.485 126.061h12.121v12.121M220.606 126.061l6.061-6.061M208.485 113.939v12.122h12.121l6.061-6.061v-12.121h-12.122z" stroke-width="2"/><path fill="#ff92c6" stroke="#9e034e" d="M208.485 113.939h12.121v12.122M220.606 113.939l6.061-6.06" stroke-width="2"/><path fill="#ff92c6" stroke="#9e034e" d="M208.485 101.818v12.121h12.121l6.061-6.06V95.758h-12.122z" stroke-width="2"/><path fill="#ff92c6" stroke="#9e034e" d="M208.485 101.818h12.121v12.121M220.606 101.818l6.061-6.06" stroke-width="2"/><path fill="#ff92c6" stroke="#9e034e" d="M208.485 89.697v12.121h12.121l6.061-6.06V83.636h-12.122z" stroke-width="2"/><path fill="#ff92c6" stroke="#9e034e" d="M208.485 89.697h12.121v12.121M220.606 89.697l6.061-6.06M208.485 77.576v12.121h12.121l6.061-6.06V71.514h-12.122z" stroke-width="2"/><path fill="#ff92c6" stroke="#9e034e" d="M208.485 77.576h12.121v12.121M220.606 77.576l6.061-6.06" stroke-width="2"/><path fill="#ff92c6" stroke="#9e034e" d="M208.485 65.454v12.122h12.121l6.061-6.06V59.393h-12.122z" stroke-width="2"/><path fill="#ff92c6" stroke="#9e034e" d="M208.485 65.454h12.121v12.122M220.606 65.454l6.061-6.06" stroke-width="2"/><path fill="#ff92c6" stroke="#9e034e" d="M208.485 53.333v12.121h12.121l6.061-6.06V47.273h-12.122z" stroke-width="2"/><path fill="#ff92c6" stroke="#9e034e" d="M208.485 53.333h12.121v12.121M220.606 53.333l6.061-6.06" stroke-width="2"/><path fill="#ff92c6" stroke="#9e034e" d="M208.485 41.212v12.121h12.121l6.061-6.06V35.15h-12.122z" stroke-width="2"/><path fill="#ff92c6" stroke="#9e034e" d="M208.485 41.212h12.121v12.121M220.606 41.212l6.061-6.06" stroke-width="2"/><path fill="#ff92c6" stroke="#9e034e" d="M208.485 29.09v12.122h12.121l6.061-6.06V23.03h-12.122z" stroke-width="2"/><path fill="#ff92c6" stroke="#9e034e" d="M208.485 29.09h12.121v12.122M220.606 29.09l6.061-6.06M232.727 138.182v12.121h12.121l6.061-6.061v-12.121h-12.121z" stroke-width="2"/><path fill="#ff92c6" stroke="#9e034e" d="M232.727 138.182h12.121v12.121M244.848 138.182l6.061-6.061" stroke-width="2"/><path fill="#ff92c6" stroke="#9e034e" d="M232.727 126.061v12.121h12.121l6.061-6.061V120h-12.121z" stroke-width="2"/><path fill="#ff92c6" stroke="#9e034e" d="M232.727 126.061h12.121v12.121M244.848 126.061l6.061-6.061M232.727 113.939v12.122h12.121l6.061-6.061v-12.121h-12.121z" stroke-width="2"/><path fill="#ff92c6" stroke="#9e034e" d="M232.727 113.939h12.121v12.122M244.848 113.939l6.061-6.06" stroke-width="2"/><path fill="#ff92c6" stroke="#9e034e" d="M232.727 101.818v12.121h12.121l6.061-6.06V95.758h-12.121z" stroke-width="2"/><path fill="#ff92c6" stroke="#9e034e" d="M232.727 101.818h12.121v12.121M244.848 101.818l6.061-6.06" stroke-width="2"/><path fill="#ff92c6" stroke="#9e034e" d="M232.727 89.697v12.121h12.121l6.061-6.06V83.636h-12.121z" stroke-width="2"/><path fill="#ff92c6" stroke="#9e034e" d="M232.727 89.697h12.121v12.121M244.848 89.697l6.061-6.06M232.727 77.576v12.121h12.121l6.061-6.06V71.514h-12.121z" stroke-width="2"/><path fill="#ff92c6" stroke="#9e034e" d="M232.727 77.576h12.121v12.121M244.848 77.576l6.061-6.06" stroke-width="2"/><path fill="#ff92c6" stroke="#9e034e" d="M232.727 65.454v12.122h12.121l6.061-6.06V59.393h-12.121z" stroke-width="2"/><path fill="#ff92c6" stroke="#9e034e" d="M232.727 65.454h12.121v12.122M244.848 65.454l6.061-6.06" stroke-width="2"/><path fill="#ff92c6" stroke="#9e034e" d="M232.727 53.333v12.121h12.121l6.061-6.06V47.273h-12.121z" stroke-width="2"/><path fill="#ff92c6" stroke="#9e034e" d="M232.727 53.333h12.121v12.121M244.848 53.333l6.061-6.06" stroke-width="2"/><path fill="#ff92c6" stroke="#9e034e" d="M232.727 41.212v12.121h12.121l6.061-6.06V35.15h-12.121z" stroke-width="2"/><path fill="#ff92c6" stroke="#9e034e" d="M232.727 41.212h12.121v12.121M244.848 41.212l6.061-6.06" stroke-width="2"/><path fill="#ff92c6" stroke="#9e034e" d="M232.727 29.09v12.122h12.121l6.061-6.06V23.03h-12.121z" stroke-width="2"/><path fill="#ff92c6" stroke="#9e034e" d="M232.727 29.09h12.121v12.122M244.848 29.09l6.061-6.06M256.97 138.182v12.121h12.121l6.061-6.061v-12.121H263.03z" stroke-width="2"/><path fill="#ff92c6" stroke="#9e034e" d="M256.97 138.182h12.121v12.121M269.091 138.182l6.061-6.061" stroke-width="2"/><path fill="#ff92c6" stroke="#9e034e" d="M256.97 126.061v12.121h12.121l6.061-6.061V120H263.03z" stroke-width="2"/><path fill="#ff92c6" stroke="#9e034e" d="M256.97 126.061h12.121v12.121M269.091 126.061l6.061-6.061M256.97 113.939v12.122h12.121l6.061-6.061v-12.121H263.03z" stroke-width="2"/><path fill="#ff92c6" stroke="#9e034e" d="M256.97 113.939h12.121v12.122M269.091 113.939l6.061-6.06" stroke-width="2"/><path fill="#ff92c6" stroke="#9e034e" d="M256.97 101.818v12.121h12.121l6.061-6.06V95.758H263.03z" stroke-width="2"/><path fill="#ff92c6" stroke="#9e034e" d="M256.97 101.818h12.121v12.121M269.091 101.818l6.061-6.06" stroke-width="2"/><path fill="#ff92c6" stroke="#9e034e" d="M256.97 89.697v12.121h12.121l6.061-6.06V83.636H263.03z" stroke-width="2"/><path fill="#ff92c6" stroke="#9e034e" d="M256.97 89.697h12.121v12.121M269.091 89.697l6.061-6.06M256.97 77.576v12.121h12.121l6.061-6.06V71.514H263.03z" stroke-width="2"/><path fill="#ff92c6" stroke="#9e034e" d="M256.97 77.576h12.121v12.121M269.091 77.576l6.061-6.06" stroke-width="2"/><path fill="#ff92c6" stroke="#9e034e" d="M256.97 65.454v12.122h12.121l6.061-6.06V59.393H263.03z" stroke-width="2"/><path fill="#ff92c6" stroke="#9e034e" d="M256.97 65.454h12.121v12.122M269.091 65.454l6.061-6.06" stroke-width="2"/><path fill="#ff92c6" stroke="#9e034e" d="M256.97 53.333v12.121h12.121l6.061-6.06V47.273H263.03z" stroke-width="2"/><path fill="#ff92c6" stroke="#9e034e" d="M256.97 53.333h12.121v12.121M269.091 53.333l6.061-6.06" stroke-width="2"/><path fill="#ff92c6" stroke="#9e034e" d="M256.97 41.212v12.121h12.121l6.061-6.06V35.15H263.03z" stroke-width="2"/><path fill="#ff92c6" stroke="#9e034e" d="M256.97 41.212h12.121v12.121M269.091 41.212l6.061-6.06" stroke-width="2"/><path fill="#ff92c6" stroke="#9e034e" d="M256.97 29.09v12.122h12.121l6.061-6.06V23.03H263.03z" stroke-width="2"/><path fill="#ff92c6" stroke="#9e034e" d="M256.97 29.09h12.121v12.122M269.091 29.09l6.061-6.06M281.212 138.182v12.121h12.121l6.061-6.061v-12.121h-12.121z" stroke-width="2"/><path fill="#ff92c6" stroke="#9e034e" d="M281.212 138.182h12.121v12.121M293.333 138.182l6.061-6.061M281.212 113.939v12.122h12.121l6.061-6.061v-12.121h-12.121z" stroke-width="2"/><path fill="#ff92c6" stroke="#9e034e" d="M281.212 113.939h12.121v12.122M293.333 113.939l6.061-6.06" stroke-width="2"/></svg>
