<svg xmlns="http://www.w3.org/2000/svg" width="380" height="100" viewBox="0 0 380 100"><path fill="none" stroke="#000" d="M369.45 65.6c.35-2.1 4.2-5.25 5.25-5.6-1.05-.35-4.9-3.5-5.25-5.6" stroke-width="2" stroke-linejoin="round" stroke-linecap="round"/><path fill="none" stroke="#000" d="M5 60h368.95" stroke-width="2"/><path fill="none" stroke="#000" d="M12.05 54.4c-.35 2.1-4.2 5.25-5.25 5.6 1.05.35 4.9 3.5 5.25 5.6" stroke-width="2" stroke-linejoin="round" stroke-linecap="round"/><path fill="none" stroke="#000" d="M375 60H6.05M30 68V52" stroke-width="2"/><ellipse cx="30" cy="60" rx="4" ry="4" stroke="#000" stroke-width="2" stroke-dasharray="0"/><path fill="none" stroke="#7854ab" d="M200.667 60A85.333 24 0 0 0 30 60M200.667 60l7.39-8M200.666 60l-8.018-5.472" stroke-width="2" stroke-dasharray="0"/><path fill="none" stroke="#000" d="M200.667 68V52" stroke-width="2" stroke-dasharray="0"/><path fill="none" stroke="#ca337c" d="M350 60a74.667 24 0 0 0-149.333 0M350 60l7.39-8M350 60l-8.019-5.472" stroke-width="2" stroke-dasharray="0"/><path fill="none" stroke="#000" d="M350 68V52M350 68V52" stroke-width="2" stroke-dasharray="0"/></svg>
