<svg xmlns="http://www.w3.org/2000/svg" width="380" height="100" viewBox="0 0 380 100"><path fill="none" stroke="#000" d="M369.45 65.6c.35-2.1 4.2-5.25 5.25-5.6-1.05-.35-4.9-3.5-5.25-5.6" stroke-width="2" stroke-linejoin="round" stroke-linecap="round"/><path fill="none" stroke="#000" d="M5 60h368.95" stroke-width="2"/><path fill="none" stroke="#000" d="M12.05 54.4c-.35 2.1-4.2 5.25-5.25 5.6 1.05.35 4.9 3.5 5.25 5.6" stroke-width="2" stroke-linejoin="round" stroke-linecap="round"/><path fill="none" stroke="#000" d="M375 60H6.05M30 68V52" stroke-width="2"/><ellipse cx="30" cy="60" rx="4" ry="4" stroke="#000" stroke-width="2" stroke-dasharray="0"/><path fill="none" stroke="#7854ab" d="M101.111 60A35.556 24 0 0 0 30 60M101.111 60l12.317-8M101.111 60l-13.365-5.472" stroke-width="2" stroke-dasharray="0"/><path fill="none" stroke="#000" d="M101.111 68V52" stroke-width="2" stroke-dasharray="0"/><path fill="none" stroke="#ca337c" d="M350 60a124.444 24 0 0 0-248.889 0M350 60l12.317-8M350 60l-13.364-5.472" stroke-width="2" stroke-dasharray="0"/><path fill="none" stroke="#000" d="M350 68V52M350 68V52" stroke-width="2" stroke-dasharray="0"/></svg>
