<svg xmlns="http://www.w3.org/2000/svg" version="1.1" width="460" height="80" viewBox="0 0 460 80"><defs/><path fill="none" stroke="#000000" d="M 449.45,45.6 C 449.8,43.5 453.65,40.35 454.7,40 C 453.65,39.65 449.8,36.5 449.45,34.4" transform="" style="stroke-width: 2px;stroke-linejoin: round;stroke-linecap: round" stroke-width="2" stroke-linejoin="round" stroke-linecap="round"/><path fill="none" stroke="#000000" d="M 5,40 S 5,40 453.95,40" style="stroke-width: 2px" stroke-width="2"/><path fill="none" stroke="#000000" d="M 1.55,45.6 C 1.9,43.5 5.75,40.35 6.8,40 C 5.75,39.65 1.9,36.5 1.55,34.4" transform="rotate(180 6.800000000000011 40)" style="stroke-width: 2px;stroke-linejoin: round;stroke-linecap: round" stroke-width="2" stroke-linejoin="round" stroke-linecap="round"/><path fill="none" stroke="#000000" d="M 455,40 S 455,40 6.05,40" style="stroke-width: 2px" stroke-width="2"/><path fill="none" stroke="#000000" d="M 30,48 L 30,32" style="stroke-width: 2px" stroke-width="2"/><path fill="none" stroke="#000000" d="M 30,48 L 30,32" style="stroke-width: 3.5px" stroke-width="3.5"/><path fill="none" stroke="#000000" d="M 350,48 L 350,32" style="stroke-width: 3.5px" stroke-width="3.5"/><path fill="none" stroke="#000000" d="M 430,48 L 430,32" style="stroke-width: 3.5px" stroke-width="3.5"/><ellipse cx="30" cy="40" rx="5" ry="5" fill="#000000" stroke="none" style="stroke-width: 2px" stroke-width="2"/><ellipse cx="430" cy="40" rx="5" ry="5" fill="#83c167" stroke="none" style="stroke-width: 2px" stroke-width="2"/><path fill="#58c4dd" stroke="#58c4dd" d="M 350,40 A 160,24 0 0,0 30,40" style="stroke-width: 2px;stroke-opacity: 1;fill-opacity: 0" stroke-width="2" stroke-opacity="1" stroke-dasharray="0" fill-opacity="0"/><path fill="#58c4dd" stroke="#58c4dd" d="M 350,40 L 360.583,40" style="stroke-width: 2px;stroke-opacity: 1;fill-opacity: 0;opacity: 1" stroke-width="2" stroke-opacity="1" stroke-dasharray="0" fill-opacity="0" opacity="1" transform="rotate(310.893394649131 350 40)"/><path fill="#58c4dd" stroke="#58c4dd" d="M 350,40 L 359.298,40" style="stroke-width: 2px;stroke-opacity: 1;fill-opacity: 0;opacity: 1" stroke-width="2" stroke-opacity="1" stroke-dasharray="0" fill-opacity="0" opacity="1" transform="rotate(216.05238873238773 350 40)"/><path fill="#83c167" stroke="#83c167" d="M 430,40 A 40,24 0 0,0 350,40" style="stroke-width: 2px;stroke-opacity: 1;fill-opacity: 0;opacity: 1" stroke-width="2" stroke-opacity="1" stroke-dasharray="0" fill-opacity="0" opacity="1"/><path fill="#83c167" stroke="#83c167" d="M 430,40 L 440.583,40" style="stroke-width: 2px;stroke-opacity: 1;fill-opacity: 0;opacity: 1" stroke-width="2" stroke-opacity="1" stroke-dasharray="0" fill-opacity="0" opacity="1" transform="rotate(310.893394649131 430 40)"/><path fill="#83c167" stroke="#83c167" d="M 430,40 L 439.298,40" style="stroke-width: 2px;stroke-opacity: 1;fill-opacity: 0;opacity: 1" stroke-width="2" stroke-opacity="1" stroke-dasharray="0" fill-opacity="0" opacity="1" transform="rotate(216.05238873238773 430 40)"/></svg>