<svg xmlns="http://www.w3.org/2000/svg" width="400" height="176" viewBox="0 0 400 176"><path fill="none" stroke="#000" d="M133.333 0v176M266.667 0v176M0 37.333h400" stroke-width="2"/><path fill="#ddd7ff" stroke="#7854ab" d="M5.333 96v5.333h5.334l2.666-2.666v-5.334H8z" stroke-width="2"/><path fill="#ddd7ff" stroke="#7854ab" d="M5.333 96h5.334v5.333M10.667 96l2.666-2.667" stroke-width="2"/><path fill="#ddd7ff" stroke="#7854ab" d="M5.333 90.667V96h5.334l2.666-2.667V88H8z" stroke-width="2"/><path fill="#ddd7ff" stroke="#7854ab" d="M5.333 90.667h5.334V96M10.667 90.667L13.333 88" stroke-width="2"/><path fill="#ddd7ff" stroke="#7854ab" d="M5.333 85.333v5.334h5.334L13.333 88v-5.333H8z" stroke-width="2"/><path fill="#ddd7ff" stroke="#7854ab" d="M5.333 85.333h5.334v5.334M10.667 85.333l2.666-2.666" stroke-width="2"/><path fill="#ddd7ff" stroke="#7854ab" d="M5.333 80v5.333h5.334l2.666-2.666v-5.334H8z" stroke-width="2"/><path fill="#ddd7ff" stroke="#7854ab" d="M5.333 80h5.334v5.333M10.667 80l2.666-2.667" stroke-width="2"/><path fill="#ddd7ff" stroke="#7854ab" d="M5.333 74.667V80h5.334l2.666-2.667V72H8z" stroke-width="2"/><path fill="#ddd7ff" stroke="#7854ab" d="M5.333 74.667h5.334V80M10.667 74.667L13.333 72" stroke-width="2"/><path fill="#ddd7ff" stroke="#7854ab" d="M5.333 69.333v5.334h5.334L13.333 72v-5.333H8z" stroke-width="2"/><path fill="#ddd7ff" stroke="#7854ab" d="M5.333 69.333h5.334v5.334M10.667 69.333l2.666-2.666" stroke-width="2"/><path fill="#ddd7ff" stroke="#7854ab" d="M5.333 64v5.333h5.334l2.666-2.666v-5.334H8z" stroke-width="2"/><path fill="#ddd7ff" stroke="#7854ab" d="M5.333 64h5.334v5.333M10.667 64l2.666-2.667" stroke-width="2"/><path fill="#ddd7ff" stroke="#7854ab" d="M5.333 58.667V64h5.334l2.666-2.667V56H8z" stroke-width="2"/><path fill="#ddd7ff" stroke="#7854ab" d="M5.333 58.667h5.334V64M10.667 58.667L13.333 56" stroke-width="2"/><path fill="#ddd7ff" stroke="#7854ab" d="M5.333 53.333v5.334h5.334L13.333 56v-5.333H8z" stroke-width="2"/><path fill="#ddd7ff" stroke="#7854ab" d="M5.333 53.333h5.334v5.334M10.667 53.333l2.666-2.666" stroke-width="2"/><path fill="#ddd7ff" stroke="#7854ab" d="M5.333 48v5.333h5.334l2.666-2.666v-5.334H8z" stroke-width="2"/><path fill="#ddd7ff" stroke="#7854ab" d="M5.333 48h5.334v5.333M10.667 48l2.666-2.667M10.667 96v5.333H16l2.667-2.666v-5.334h-5.334z" stroke-width="2"/><path fill="#ddd7ff" stroke="#7854ab" d="M10.667 96H16v5.333M16 96l2.667-2.667" stroke-width="2"/><path fill="#ddd7ff" stroke="#7854ab" d="M10.667 90.667V96H16l2.667-2.667V88h-5.334z" stroke-width="2"/><path fill="#ddd7ff" stroke="#7854ab" d="M10.667 90.667H16V96M16 90.667L18.667 88" stroke-width="2"/><path fill="#ddd7ff" stroke="#7854ab" d="M10.667 85.333v5.334H16L18.667 88v-5.333h-5.334z" stroke-width="2"/><path fill="#ddd7ff" stroke="#7854ab" d="M10.667 85.333H16v5.334M16 85.333l2.667-2.666" stroke-width="2"/><path fill="#ddd7ff" stroke="#7854ab" d="M10.667 80v5.333H16l2.667-2.666v-5.334h-5.334z" stroke-width="2"/><path fill="#ddd7ff" stroke="#7854ab" d="M10.667 80H16v5.333M16 80l2.667-2.667" stroke-width="2"/><path fill="#ddd7ff" stroke="#7854ab" d="M10.667 74.667V80H16l2.667-2.667V72h-5.334z" stroke-width="2"/><path fill="#ddd7ff" stroke="#7854ab" d="M10.667 74.667H16V80M16 74.667L18.667 72" stroke-width="2"/><path fill="#ddd7ff" stroke="#7854ab" d="M10.667 69.333v5.334H16L18.667 72v-5.333h-5.334z" stroke-width="2"/><path fill="#ddd7ff" stroke="#7854ab" d="M10.667 69.333H16v5.334M16 69.333l2.667-2.666" stroke-width="2"/><path fill="#ddd7ff" stroke="#7854ab" d="M10.667 64v5.333H16l2.667-2.666v-5.334h-5.334z" stroke-width="2"/><path fill="#ddd7ff" stroke="#7854ab" d="M10.667 64H16v5.333M16 64l2.667-2.667" stroke-width="2"/><path fill="#ddd7ff" stroke="#7854ab" d="M10.667 58.667V64H16l2.667-2.667V56h-5.334z" stroke-width="2"/><path fill="#ddd7ff" stroke="#7854ab" d="M10.667 58.667H16V64M16 58.667L18.667 56" stroke-width="2"/><path fill="#ddd7ff" stroke="#7854ab" d="M10.667 53.333v5.334H16L18.667 56v-5.333h-5.334z" stroke-width="2"/><path fill="#ddd7ff" stroke="#7854ab" d="M10.667 53.333H16v5.334M16 53.333l2.667-2.666" stroke-width="2"/><path fill="#ddd7ff" stroke="#7854ab" d="M10.667 48v5.333H16l2.667-2.666v-5.334h-5.334z" stroke-width="2"/><path fill="#ddd7ff" stroke="#7854ab" d="M10.667 48H16v5.333M16 48l2.667-2.667M16 96v5.333h5.333L24 98.667v-5.334h-5.333z" stroke-width="2"/><path fill="#ddd7ff" stroke="#7854ab" d="M16 96h5.333v5.333M21.333 96L24 93.333" stroke-width="2"/><path fill="#ddd7ff" stroke="#7854ab" d="M16 90.667V96h5.333L24 93.333V88h-5.333z" stroke-width="2"/><path fill="#ddd7ff" stroke="#7854ab" d="M16 90.667h5.333V96M21.333 90.667L24 88" stroke-width="2"/><path fill="#ddd7ff" stroke="#7854ab" d="M16 85.333v5.334h5.333L24 88v-5.333h-5.333z" stroke-width="2"/><path fill="#ddd7ff" stroke="#7854ab" d="M16 85.333h5.333v5.334M21.333 85.333L24 82.667" stroke-width="2"/><path fill="#ddd7ff" stroke="#7854ab" d="M16 80v5.333h5.333L24 82.667v-5.334h-5.333z" stroke-width="2"/><path fill="#ddd7ff" stroke="#7854ab" d="M16 80h5.333v5.333M21.333 80L24 77.333" stroke-width="2"/><path fill="#ddd7ff" stroke="#7854ab" d="M16 74.667V80h5.333L24 77.333V72h-5.333z" stroke-width="2"/><path fill="#ddd7ff" stroke="#7854ab" d="M16 74.667h5.333V80M21.333 74.667L24 72" stroke-width="2"/><path fill="#ddd7ff" stroke="#7854ab" d="M16 69.333v5.334h5.333L24 72v-5.333h-5.333z" stroke-width="2"/><path fill="#ddd7ff" stroke="#7854ab" d="M16 69.333h5.333v5.334M21.333 69.333L24 66.667" stroke-width="2"/><path fill="#ddd7ff" stroke="#7854ab" d="M16 64v5.333h5.333L24 66.667v-5.334h-5.333z" stroke-width="2"/><path fill="#ddd7ff" stroke="#7854ab" d="M16 64h5.333v5.333M21.333 64L24 61.333" stroke-width="2"/><path fill="#ddd7ff" stroke="#7854ab" d="M16 58.667V64h5.333L24 61.333V56h-5.333z" stroke-width="2"/><path fill="#ddd7ff" stroke="#7854ab" d="M16 58.667h5.333V64M21.333 58.667L24 56" stroke-width="2"/><path fill="#ddd7ff" stroke="#7854ab" d="M16 53.333v5.334h5.333L24 56v-5.333h-5.333z" stroke-width="2"/><path fill="#ddd7ff" stroke="#7854ab" d="M16 53.333h5.333v5.334M21.333 53.333L24 50.667" stroke-width="2"/><path fill="#ddd7ff" stroke="#7854ab" d="M16 48v5.333h5.333L24 50.667v-5.334h-5.333z" stroke-width="2"/><path fill="#ddd7ff" stroke="#7854ab" d="M16 48h5.333v5.333M21.333 48L24 45.333M21.333 96v5.333h5.334l2.666-2.666v-5.334H24z" stroke-width="2"/><path fill="#ddd7ff" stroke="#7854ab" d="M21.333 96h5.334v5.333M26.667 96l2.666-2.667" stroke-width="2"/><path fill="#ddd7ff" stroke="#7854ab" d="M21.333 90.667V96h5.334l2.666-2.667V88H24z" stroke-width="2"/><path fill="#ddd7ff" stroke="#7854ab" d="M21.333 90.667h5.334V96M26.667 90.667L29.333 88" stroke-width="2"/><path fill="#ddd7ff" stroke="#7854ab" d="M21.333 85.333v5.334h5.334L29.333 88v-5.333H24z" stroke-width="2"/><path fill="#ddd7ff" stroke="#7854ab" d="M21.333 85.333h5.334v5.334M26.667 85.333l2.666-2.666" stroke-width="2"/><path fill="#ddd7ff" stroke="#7854ab" d="M21.333 80v5.333h5.334l2.666-2.666v-5.334H24z" stroke-width="2"/><path fill="#ddd7ff" stroke="#7854ab" d="M21.333 80h5.334v5.333M26.667 80l2.666-2.667" stroke-width="2"/><path fill="#ddd7ff" stroke="#7854ab" d="M21.333 74.667V80h5.334l2.666-2.667V72H24z" stroke-width="2"/><path fill="#ddd7ff" stroke="#7854ab" d="M21.333 74.667h5.334V80M26.667 74.667L29.333 72" stroke-width="2"/><path fill="#ddd7ff" stroke="#7854ab" d="M21.333 69.333v5.334h5.334L29.333 72v-5.333H24z" stroke-width="2"/><path fill="#ddd7ff" stroke="#7854ab" d="M21.333 69.333h5.334v5.334M26.667 69.333l2.666-2.666" stroke-width="2"/><path fill="#ddd7ff" stroke="#7854ab" d="M21.333 64v5.333h5.334l2.666-2.666v-5.334H24z" stroke-width="2"/><path fill="#ddd7ff" stroke="#7854ab" d="M21.333 64h5.334v5.333M26.667 64l2.666-2.667" stroke-width="2"/><path fill="#ddd7ff" stroke="#7854ab" d="M21.333 58.667V64h5.334l2.666-2.667V56H24z" stroke-width="2"/><path fill="#ddd7ff" stroke="#7854ab" d="M21.333 58.667h5.334V64M26.667 58.667L29.333 56" stroke-width="2"/><path fill="#ddd7ff" stroke="#7854ab" d="M21.333 53.333v5.334h5.334L29.333 56v-5.333H24z" stroke-width="2"/><path fill="#ddd7ff" stroke="#7854ab" d="M21.333 53.333h5.334v5.334M26.667 53.333l2.666-2.666" stroke-width="2"/><path fill="#ddd7ff" stroke="#7854ab" d="M21.333 48v5.333h5.334l2.666-2.666v-5.334H24z" stroke-width="2"/><path fill="#ddd7ff" stroke="#7854ab" d="M21.333 48h5.334v5.333M26.667 48l2.666-2.667M26.667 96v5.333H32l2.667-2.666v-5.334h-5.334z" stroke-width="2"/><path fill="#ddd7ff" stroke="#7854ab" d="M26.667 96H32v5.333M32 96l2.667-2.667" stroke-width="2"/><path fill="#ddd7ff" stroke="#7854ab" d="M26.667 90.667V96H32l2.667-2.667V88h-5.334z" stroke-width="2"/><path fill="#ddd7ff" stroke="#7854ab" d="M26.667 90.667H32V96M32 90.667L34.667 88" stroke-width="2"/><path fill="#ddd7ff" stroke="#7854ab" d="M26.667 85.333v5.334H32L34.667 88v-5.333h-5.334z" stroke-width="2"/><path fill="#ddd7ff" stroke="#7854ab" d="M26.667 85.333H32v5.334M32 85.333l2.667-2.666" stroke-width="2"/><path fill="#ddd7ff" stroke="#7854ab" d="M26.667 80v5.333H32l2.667-2.666v-5.334h-5.334z" stroke-width="2"/><path fill="#ddd7ff" stroke="#7854ab" d="M26.667 80H32v5.333M32 80l2.667-2.667" stroke-width="2"/><path fill="#ddd7ff" stroke="#7854ab" d="M26.667 74.667V80H32l2.667-2.667V72h-5.334z" stroke-width="2"/><path fill="#ddd7ff" stroke="#7854ab" d="M26.667 74.667H32V80M32 74.667L34.667 72" stroke-width="2"/><path fill="#ddd7ff" stroke="#7854ab" d="M26.667 69.333v5.334H32L34.667 72v-5.333h-5.334z" stroke-width="2"/><path fill="#ddd7ff" stroke="#7854ab" d="M26.667 69.333H32v5.334M32 69.333l2.667-2.666" stroke-width="2"/><path fill="#ddd7ff" stroke="#7854ab" d="M26.667 64v5.333H32l2.667-2.666v-5.334h-5.334z" stroke-width="2"/><path fill="#ddd7ff" stroke="#7854ab" d="M26.667 64H32v5.333M32 64l2.667-2.667" stroke-width="2"/><path fill="#ddd7ff" stroke="#7854ab" d="M26.667 58.667V64H32l2.667-2.667V56h-5.334z" stroke-width="2"/><path fill="#ddd7ff" stroke="#7854ab" d="M26.667 58.667H32V64M32 58.667L34.667 56" stroke-width="2"/><path fill="#ddd7ff" stroke="#7854ab" d="M26.667 53.333v5.334H32L34.667 56v-5.333h-5.334z" stroke-width="2"/><path fill="#ddd7ff" stroke="#7854ab" d="M26.667 53.333H32v5.334M32 53.333l2.667-2.666" stroke-width="2"/><path fill="#ddd7ff" stroke="#7854ab" d="M26.667 48v5.333H32l2.667-2.666v-5.334h-5.334z" stroke-width="2"/><path fill="#ddd7ff" stroke="#7854ab" d="M26.667 48H32v5.333M32 48l2.667-2.667M32 96v5.333h5.333L40 98.667v-5.334h-5.333z" stroke-width="2"/><path fill="#ddd7ff" stroke="#7854ab" d="M32 96h5.333v5.333M37.333 96L40 93.333" stroke-width="2"/><path fill="#ddd7ff" stroke="#7854ab" d="M32 90.667V96h5.333L40 93.333V88h-5.333z" stroke-width="2"/><path fill="#ddd7ff" stroke="#7854ab" d="M32 90.667h5.333V96M37.333 90.667L40 88" stroke-width="2"/><path fill="#ddd7ff" stroke="#7854ab" d="M32 85.333v5.334h5.333L40 88v-5.333h-5.333z" stroke-width="2"/><path fill="#ddd7ff" stroke="#7854ab" d="M32 85.333h5.333v5.334M37.333 85.333L40 82.667" stroke-width="2"/><path fill="#ddd7ff" stroke="#7854ab" d="M32 80v5.333h5.333L40 82.667v-5.334h-5.333z" stroke-width="2"/><path fill="#ddd7ff" stroke="#7854ab" d="M32 80h5.333v5.333M37.333 80L40 77.333" stroke-width="2"/><path fill="#ddd7ff" stroke="#7854ab" d="M32 74.667V80h5.333L40 77.333V72h-5.333z" stroke-width="2"/><path fill="#ddd7ff" stroke="#7854ab" d="M32 74.667h5.333V80M37.333 74.667L40 72" stroke-width="2"/><path fill="#ddd7ff" stroke="#7854ab" d="M32 69.333v5.334h5.333L40 72v-5.333h-5.333z" stroke-width="2"/><path fill="#ddd7ff" stroke="#7854ab" d="M32 69.333h5.333v5.334M37.333 69.333L40 66.667" stroke-width="2"/><path fill="#ddd7ff" stroke="#7854ab" d="M32 64v5.333h5.333L40 66.667v-5.334h-5.333z" stroke-width="2"/><path fill="#ddd7ff" stroke="#7854ab" d="M32 64h5.333v5.333M37.333 64L40 61.333" stroke-width="2"/><path fill="#ddd7ff" stroke="#7854ab" d="M32 58.667V64h5.333L40 61.333V56h-5.333z" stroke-width="2"/><path fill="#ddd7ff" stroke="#7854ab" d="M32 58.667h5.333V64M37.333 58.667L40 56" stroke-width="2"/><path fill="#ddd7ff" stroke="#7854ab" d="M32 53.333v5.334h5.333L40 56v-5.333h-5.333z" stroke-width="2"/><path fill="#ddd7ff" stroke="#7854ab" d="M32 53.333h5.333v5.334M37.333 53.333L40 50.667" stroke-width="2"/><path fill="#ddd7ff" stroke="#7854ab" d="M32 48v5.333h5.333L40 50.667v-5.334h-5.333z" stroke-width="2"/><path fill="#ddd7ff" stroke="#7854ab" d="M32 48h5.333v5.333M37.333 48L40 45.333M37.333 96v5.333h5.334l2.666-2.666v-5.334H40z" stroke-width="2"/><path fill="#ddd7ff" stroke="#7854ab" d="M37.333 96h5.334v5.333M42.667 96l2.666-2.667" stroke-width="2"/><path fill="#ddd7ff" stroke="#7854ab" d="M37.333 90.667V96h5.334l2.666-2.667V88H40z" stroke-width="2"/><path fill="#ddd7ff" stroke="#7854ab" d="M37.333 90.667h5.334V96M42.667 90.667L45.333 88" stroke-width="2"/><path fill="#ddd7ff" stroke="#7854ab" d="M37.333 85.333v5.334h5.334L45.333 88v-5.333H40z" stroke-width="2"/><path fill="#ddd7ff" stroke="#7854ab" d="M37.333 85.333h5.334v5.334M42.667 85.333l2.666-2.666" stroke-width="2"/><path fill="#ddd7ff" stroke="#7854ab" d="M37.333 80v5.333h5.334l2.666-2.666v-5.334H40z" stroke-width="2"/><path fill="#ddd7ff" stroke="#7854ab" d="M37.333 80h5.334v5.333M42.667 80l2.666-2.667" stroke-width="2"/><path fill="#ddd7ff" stroke="#7854ab" d="M37.333 74.667V80h5.334l2.666-2.667V72H40z" stroke-width="2"/><path fill="#ddd7ff" stroke="#7854ab" d="M37.333 74.667h5.334V80M42.667 74.667L45.333 72" stroke-width="2"/><path fill="#ddd7ff" stroke="#7854ab" d="M37.333 69.333v5.334h5.334L45.333 72v-5.333H40z" stroke-width="2"/><path fill="#ddd7ff" stroke="#7854ab" d="M37.333 69.333h5.334v5.334M42.667 69.333l2.666-2.666" stroke-width="2"/><path fill="#ddd7ff" stroke="#7854ab" d="M37.333 64v5.333h5.334l2.666-2.666v-5.334H40z" stroke-width="2"/><path fill="#ddd7ff" stroke="#7854ab" d="M37.333 64h5.334v5.333M42.667 64l2.666-2.667" stroke-width="2"/><path fill="#ddd7ff" stroke="#7854ab" d="M37.333 58.667V64h5.334l2.666-2.667V56H40z" stroke-width="2"/><path fill="#ddd7ff" stroke="#7854ab" d="M37.333 58.667h5.334V64M42.667 58.667L45.333 56" stroke-width="2"/><path fill="#ddd7ff" stroke="#7854ab" d="M37.333 53.333v5.334h5.334L45.333 56v-5.333H40z" stroke-width="2"/><path fill="#ddd7ff" stroke="#7854ab" d="M37.333 53.333h5.334v5.334M42.667 53.333l2.666-2.666" stroke-width="2"/><path fill="#ddd7ff" stroke="#7854ab" d="M37.333 48v5.333h5.334l2.666-2.666v-5.334H40z" stroke-width="2"/><path fill="#ddd7ff" stroke="#7854ab" d="M37.333 48h5.334v5.333M42.667 48l2.666-2.667M42.667 96v5.333H48l2.667-2.666v-5.334h-5.334z" stroke-width="2"/><path fill="#ddd7ff" stroke="#7854ab" d="M42.667 96H48v5.333M48 96l2.667-2.667" stroke-width="2"/><path fill="#ddd7ff" stroke="#7854ab" d="M42.667 90.667V96H48l2.667-2.667V88h-5.334z" stroke-width="2"/><path fill="#ddd7ff" stroke="#7854ab" d="M42.667 90.667H48V96M48 90.667L50.667 88" stroke-width="2"/><path fill="#ddd7ff" stroke="#7854ab" d="M42.667 85.333v5.334H48L50.667 88v-5.333h-5.334z" stroke-width="2"/><path fill="#ddd7ff" stroke="#7854ab" d="M42.667 85.333H48v5.334M48 85.333l2.667-2.666" stroke-width="2"/><path fill="#ddd7ff" stroke="#7854ab" d="M42.667 80v5.333H48l2.667-2.666v-5.334h-5.334z" stroke-width="2"/><path fill="#ddd7ff" stroke="#7854ab" d="M42.667 80H48v5.333M48 80l2.667-2.667" stroke-width="2"/><path fill="#ddd7ff" stroke="#7854ab" d="M42.667 74.667V80H48l2.667-2.667V72h-5.334z" stroke-width="2"/><path fill="#ddd7ff" stroke="#7854ab" d="M42.667 74.667H48V80M48 74.667L50.667 72" stroke-width="2"/><path fill="#ddd7ff" stroke="#7854ab" d="M42.667 69.333v5.334H48L50.667 72v-5.333h-5.334z" stroke-width="2"/><path fill="#ddd7ff" stroke="#7854ab" d="M42.667 69.333H48v5.334M48 69.333l2.667-2.666" stroke-width="2"/><path fill="#ddd7ff" stroke="#7854ab" d="M42.667 64v5.333H48l2.667-2.666v-5.334h-5.334z" stroke-width="2"/><path fill="#ddd7ff" stroke="#7854ab" d="M42.667 64H48v5.333M48 64l2.667-2.667" stroke-width="2"/><path fill="#ddd7ff" stroke="#7854ab" d="M42.667 58.667V64H48l2.667-2.667V56h-5.334z" stroke-width="2"/><path fill="#ddd7ff" stroke="#7854ab" d="M42.667 58.667H48V64M48 58.667L50.667 56" stroke-width="2"/><path fill="#ddd7ff" stroke="#7854ab" d="M42.667 53.333v5.334H48L50.667 56v-5.333h-5.334z" stroke-width="2"/><path fill="#ddd7ff" stroke="#7854ab" d="M42.667 53.333H48v5.334M48 53.333l2.667-2.666" stroke-width="2"/><path fill="#ddd7ff" stroke="#7854ab" d="M42.667 48v5.333H48l2.667-2.666v-5.334h-5.334z" stroke-width="2"/><path fill="#ddd7ff" stroke="#7854ab" d="M42.667 48H48v5.333M48 48l2.667-2.667M48 96v5.333h5.333L56 98.667v-5.334h-5.333z" stroke-width="2"/><path fill="#ddd7ff" stroke="#7854ab" d="M48 96h5.333v5.333M53.333 96L56 93.333" stroke-width="2"/><path fill="#ddd7ff" stroke="#7854ab" d="M48 90.667V96h5.333L56 93.333V88h-5.333z" stroke-width="2"/><path fill="#ddd7ff" stroke="#7854ab" d="M48 90.667h5.333V96M53.333 90.667L56 88" stroke-width="2"/><path fill="#ddd7ff" stroke="#7854ab" d="M48 85.333v5.334h5.333L56 88v-5.333h-5.333z" stroke-width="2"/><path fill="#ddd7ff" stroke="#7854ab" d="M48 85.333h5.333v5.334M53.333 85.333L56 82.667" stroke-width="2"/><path fill="#ddd7ff" stroke="#7854ab" d="M48 80v5.333h5.333L56 82.667v-5.334h-5.333z" stroke-width="2"/><path fill="#ddd7ff" stroke="#7854ab" d="M48 80h5.333v5.333M53.333 80L56 77.333" stroke-width="2"/><path fill="#ddd7ff" stroke="#7854ab" d="M48 74.667V80h5.333L56 77.333V72h-5.333z" stroke-width="2"/><path fill="#ddd7ff" stroke="#7854ab" d="M48 74.667h5.333V80M53.333 74.667L56 72" stroke-width="2"/><path fill="#ddd7ff" stroke="#7854ab" d="M48 69.333v5.334h5.333L56 72v-5.333h-5.333z" stroke-width="2"/><path fill="#ddd7ff" stroke="#7854ab" d="M48 69.333h5.333v5.334M53.333 69.333L56 66.667" stroke-width="2"/><path fill="#ddd7ff" stroke="#7854ab" d="M48 64v5.333h5.333L56 66.667v-5.334h-5.333z" stroke-width="2"/><path fill="#ddd7ff" stroke="#7854ab" d="M48 64h5.333v5.333M53.333 64L56 61.333" stroke-width="2"/><path fill="#ddd7ff" stroke="#7854ab" d="M48 58.667V64h5.333L56 61.333V56h-5.333z" stroke-width="2"/><path fill="#ddd7ff" stroke="#7854ab" d="M48 58.667h5.333V64M53.333 58.667L56 56" stroke-width="2"/><path fill="#ddd7ff" stroke="#7854ab" d="M48 53.333v5.334h5.333L56 56v-5.333h-5.333z" stroke-width="2"/><path fill="#ddd7ff" stroke="#7854ab" d="M48 53.333h5.333v5.334M53.333 53.333L56 50.667" stroke-width="2"/><path fill="#ddd7ff" stroke="#7854ab" d="M48 48v5.333h5.333L56 50.667v-5.334h-5.333z" stroke-width="2"/><path fill="#ddd7ff" stroke="#7854ab" d="M48 48h5.333v5.333M53.333 48L56 45.333M53.333 96v5.333h5.334l2.666-2.666v-5.334H56z" stroke-width="2"/><path fill="#ddd7ff" stroke="#7854ab" d="M53.333 96h5.334v5.333M58.667 96l2.666-2.667" stroke-width="2"/><path fill="#ddd7ff" stroke="#7854ab" d="M53.333 90.667V96h5.334l2.666-2.667V88H56z" stroke-width="2"/><path fill="#ddd7ff" stroke="#7854ab" d="M53.333 90.667h5.334V96M58.667 90.667L61.333 88" stroke-width="2"/><path fill="#ddd7ff" stroke="#7854ab" d="M53.333 85.333v5.334h5.334L61.333 88v-5.333H56z" stroke-width="2"/><path fill="#ddd7ff" stroke="#7854ab" d="M53.333 85.333h5.334v5.334M58.667 85.333l2.666-2.666" stroke-width="2"/><path fill="#ddd7ff" stroke="#7854ab" d="M53.333 80v5.333h5.334l2.666-2.666v-5.334H56z" stroke-width="2"/><path fill="#ddd7ff" stroke="#7854ab" d="M53.333 80h5.334v5.333M58.667 80l2.666-2.667" stroke-width="2"/><path fill="#ddd7ff" stroke="#7854ab" d="M53.333 74.667V80h5.334l2.666-2.667V72H56z" stroke-width="2"/><path fill="#ddd7ff" stroke="#7854ab" d="M53.333 74.667h5.334V80M58.667 74.667L61.333 72" stroke-width="2"/><path fill="#ddd7ff" stroke="#7854ab" d="M53.333 69.333v5.334h5.334L61.333 72v-5.333H56z" stroke-width="2"/><path fill="#ddd7ff" stroke="#7854ab" d="M53.333 69.333h5.334v5.334M58.667 69.333l2.666-2.666" stroke-width="2"/><path fill="#ddd7ff" stroke="#7854ab" d="M53.333 64v5.333h5.334l2.666-2.666v-5.334H56z" stroke-width="2"/><path fill="#ddd7ff" stroke="#7854ab" d="M53.333 64h5.334v5.333M58.667 64l2.666-2.667" stroke-width="2"/><path fill="#ddd7ff" stroke="#7854ab" d="M53.333 58.667V64h5.334l2.666-2.667V56H56z" stroke-width="2"/><path fill="#ddd7ff" stroke="#7854ab" d="M53.333 58.667h5.334V64M58.667 58.667L61.333 56" stroke-width="2"/><path fill="#ddd7ff" stroke="#7854ab" d="M53.333 53.333v5.334h5.334L61.333 56v-5.333H56z" stroke-width="2"/><path fill="#ddd7ff" stroke="#7854ab" d="M53.333 53.333h5.334v5.334M58.667 53.333l2.666-2.666" stroke-width="2"/><path fill="#ddd7ff" stroke="#7854ab" d="M53.333 48v5.333h5.334l2.666-2.666v-5.334H56z" stroke-width="2"/><path fill="#ddd7ff" stroke="#7854ab" d="M53.333 48h5.334v5.333M58.667 48l2.666-2.667M69.333 96v5.333h5.334l2.666-2.666v-5.334H72z" stroke-width="2"/><path fill="#ddd7ff" stroke="#7854ab" d="M69.333 96h5.334v5.333M74.667 96l2.666-2.667" stroke-width="2"/><path fill="#ddd7ff" stroke="#7854ab" d="M69.333 90.667V96h5.334l2.666-2.667V88H72z" stroke-width="2"/><path fill="#ddd7ff" stroke="#7854ab" d="M69.333 90.667h5.334V96M74.667 90.667L77.333 88" stroke-width="2"/><path fill="#ddd7ff" stroke="#7854ab" d="M69.333 85.333v5.334h5.334L77.333 88v-5.333H72z" stroke-width="2"/><path fill="#ddd7ff" stroke="#7854ab" d="M69.333 85.333h5.334v5.334M74.667 85.333l2.666-2.666" stroke-width="2"/><path fill="#ddd7ff" stroke="#7854ab" d="M69.333 80v5.333h5.334l2.666-2.666v-5.334H72z" stroke-width="2"/><path fill="#ddd7ff" stroke="#7854ab" d="M69.333 80h5.334v5.333M74.667 80l2.666-2.667" stroke-width="2"/><path fill="#ddd7ff" stroke="#7854ab" d="M69.333 74.667V80h5.334l2.666-2.667V72H72z" stroke-width="2"/><path fill="#ddd7ff" stroke="#7854ab" d="M69.333 74.667h5.334V80M74.667 74.667L77.333 72" stroke-width="2"/><path fill="#ddd7ff" stroke="#7854ab" d="M69.333 69.333v5.334h5.334L77.333 72v-5.333H72z" stroke-width="2"/><path fill="#ddd7ff" stroke="#7854ab" d="M69.333 69.333h5.334v5.334M74.667 69.333l2.666-2.666" stroke-width="2"/><path fill="#ddd7ff" stroke="#7854ab" d="M69.333 64v5.333h5.334l2.666-2.666v-5.334H72z" stroke-width="2"/><path fill="#ddd7ff" stroke="#7854ab" d="M69.333 64h5.334v5.333M74.667 64l2.666-2.667" stroke-width="2"/><path fill="#ddd7ff" stroke="#7854ab" d="M69.333 58.667V64h5.334l2.666-2.667V56H72z" stroke-width="2"/><path fill="#ddd7ff" stroke="#7854ab" d="M69.333 58.667h5.334V64M74.667 58.667L77.333 56" stroke-width="2"/><path fill="#ddd7ff" stroke="#7854ab" d="M69.333 53.333v5.334h5.334L77.333 56v-5.333H72z" stroke-width="2"/><path fill="#ddd7ff" stroke="#7854ab" d="M69.333 53.333h5.334v5.334M74.667 53.333l2.666-2.666" stroke-width="2"/><path fill="#ddd7ff" stroke="#7854ab" d="M69.333 48v5.333h5.334l2.666-2.666v-5.334H72z" stroke-width="2"/><path fill="#ddd7ff" stroke="#7854ab" d="M69.333 48h5.334v5.333M74.667 48l2.666-2.667M74.667 96v5.333H80l2.667-2.666v-5.334h-5.334z" stroke-width="2"/><path fill="#ddd7ff" stroke="#7854ab" d="M74.667 96H80v5.333M80 96l2.667-2.667" stroke-width="2"/><path fill="#ddd7ff" stroke="#7854ab" d="M74.667 90.667V96H80l2.667-2.667V88h-5.334z" stroke-width="2"/><path fill="#ddd7ff" stroke="#7854ab" d="M74.667 90.667H80V96M80 90.667L82.667 88" stroke-width="2"/><path fill="#ddd7ff" stroke="#7854ab" d="M74.667 85.333v5.334H80L82.667 88v-5.333h-5.334z" stroke-width="2"/><path fill="#ddd7ff" stroke="#7854ab" d="M74.667 85.333H80v5.334M80 85.333l2.667-2.666" stroke-width="2"/><path fill="#ddd7ff" stroke="#7854ab" d="M74.667 80v5.333H80l2.667-2.666v-5.334h-5.334z" stroke-width="2"/><path fill="#ddd7ff" stroke="#7854ab" d="M74.667 80H80v5.333M80 80l2.667-2.667" stroke-width="2"/><path fill="#ddd7ff" stroke="#7854ab" d="M74.667 74.667V80H80l2.667-2.667V72h-5.334z" stroke-width="2"/><path fill="#ddd7ff" stroke="#7854ab" d="M74.667 74.667H80V80M80 74.667L82.667 72" stroke-width="2"/><path fill="#ddd7ff" stroke="#7854ab" d="M74.667 69.333v5.334H80L82.667 72v-5.333h-5.334z" stroke-width="2"/><path fill="#ddd7ff" stroke="#7854ab" d="M74.667 69.333H80v5.334M80 69.333l2.667-2.666" stroke-width="2"/><path fill="#ddd7ff" stroke="#7854ab" d="M74.667 64v5.333H80l2.667-2.666v-5.334h-5.334z" stroke-width="2"/><path fill="#ddd7ff" stroke="#7854ab" d="M74.667 64H80v5.333M80 64l2.667-2.667" stroke-width="2"/><path fill="#ddd7ff" stroke="#7854ab" d="M74.667 58.667V64H80l2.667-2.667V56h-5.334z" stroke-width="2"/><path fill="#ddd7ff" stroke="#7854ab" d="M74.667 58.667H80V64M80 58.667L82.667 56" stroke-width="2"/><path fill="#ddd7ff" stroke="#7854ab" d="M74.667 53.333v5.334H80L82.667 56v-5.333h-5.334z" stroke-width="2"/><path fill="#ddd7ff" stroke="#7854ab" d="M74.667 53.333H80v5.334M80 53.333l2.667-2.666" stroke-width="2"/><path fill="#ddd7ff" stroke="#7854ab" d="M74.667 48v5.333H80l2.667-2.666v-5.334h-5.334z" stroke-width="2"/><path fill="#ddd7ff" stroke="#7854ab" d="M74.667 48H80v5.333M80 48l2.667-2.667M80 96v5.333h5.333L88 98.667v-5.334h-5.333z" stroke-width="2"/><path fill="#ddd7ff" stroke="#7854ab" d="M80 96h5.333v5.333M85.333 96L88 93.333" stroke-width="2"/><path fill="#ddd7ff" stroke="#7854ab" d="M80 90.667V96h5.333L88 93.333V88h-5.333z" stroke-width="2"/><path fill="#ddd7ff" stroke="#7854ab" d="M80 90.667h5.333V96M85.333 90.667L88 88" stroke-width="2"/><path fill="#ddd7ff" stroke="#7854ab" d="M80 85.333v5.334h5.333L88 88v-5.333h-5.333z" stroke-width="2"/><path fill="#ddd7ff" stroke="#7854ab" d="M80 85.333h5.333v5.334M85.333 85.333L88 82.667" stroke-width="2"/><path fill="#ddd7ff" stroke="#7854ab" d="M80 80v5.333h5.333L88 82.667v-5.334h-5.333z" stroke-width="2"/><path fill="#ddd7ff" stroke="#7854ab" d="M80 80h5.333v5.333M85.333 80L88 77.333" stroke-width="2"/><path fill="#ddd7ff" stroke="#7854ab" d="M80 74.667V80h5.333L88 77.333V72h-5.333z" stroke-width="2"/><path fill="#ddd7ff" stroke="#7854ab" d="M80 74.667h5.333V80M85.333 74.667L88 72" stroke-width="2"/><path fill="#ddd7ff" stroke="#7854ab" d="M80 69.333v5.334h5.333L88 72v-5.333h-5.333z" stroke-width="2"/><path fill="#ddd7ff" stroke="#7854ab" d="M80 69.333h5.333v5.334M85.333 69.333L88 66.667" stroke-width="2"/><path fill="#ddd7ff" stroke="#7854ab" d="M80 64v5.333h5.333L88 66.667v-5.334h-5.333z" stroke-width="2"/><path fill="#ddd7ff" stroke="#7854ab" d="M80 64h5.333v5.333M85.333 64L88 61.333" stroke-width="2"/><path fill="#ddd7ff" stroke="#7854ab" d="M80 58.667V64h5.333L88 61.333V56h-5.333z" stroke-width="2"/><path fill="#ddd7ff" stroke="#7854ab" d="M80 58.667h5.333V64M85.333 58.667L88 56" stroke-width="2"/><path fill="#ddd7ff" stroke="#7854ab" d="M80 53.333v5.334h5.333L88 56v-5.333h-5.333z" stroke-width="2"/><path fill="#ddd7ff" stroke="#7854ab" d="M80 53.333h5.333v5.334M85.333 53.333L88 50.667" stroke-width="2"/><path fill="#ddd7ff" stroke="#7854ab" d="M80 48v5.333h5.333L88 50.667v-5.334h-5.333z" stroke-width="2"/><path fill="#ddd7ff" stroke="#7854ab" d="M80 48h5.333v5.333M85.333 48L88 45.333M85.333 96v5.333h5.334l2.666-2.666v-5.334H88z" stroke-width="2"/><path fill="#ddd7ff" stroke="#7854ab" d="M85.333 96h5.334v5.333M90.667 96l2.666-2.667" stroke-width="2"/><path fill="#ddd7ff" stroke="#7854ab" d="M85.333 90.667V96h5.334l2.666-2.667V88H88z" stroke-width="2"/><path fill="#ddd7ff" stroke="#7854ab" d="M85.333 90.667h5.334V96M90.667 90.667L93.333 88" stroke-width="2"/><path fill="#ddd7ff" stroke="#7854ab" d="M85.333 85.333v5.334h5.334L93.333 88v-5.333H88z" stroke-width="2"/><path fill="#ddd7ff" stroke="#7854ab" d="M85.333 85.333h5.334v5.334M90.667 85.333l2.666-2.666" stroke-width="2"/><path fill="#ddd7ff" stroke="#7854ab" d="M85.333 80v5.333h5.334l2.666-2.666v-5.334H88z" stroke-width="2"/><path fill="#ddd7ff" stroke="#7854ab" d="M85.333 80h5.334v5.333M90.667 80l2.666-2.667" stroke-width="2"/><path fill="#ddd7ff" stroke="#7854ab" d="M85.333 74.667V80h5.334l2.666-2.667V72H88z" stroke-width="2"/><path fill="#ddd7ff" stroke="#7854ab" d="M85.333 74.667h5.334V80M90.667 74.667L93.333 72" stroke-width="2"/><path fill="#ddd7ff" stroke="#7854ab" d="M85.333 69.333v5.334h5.334L93.333 72v-5.333H88z" stroke-width="2"/><path fill="#ddd7ff" stroke="#7854ab" d="M85.333 69.333h5.334v5.334M90.667 69.333l2.666-2.666" stroke-width="2"/><path fill="#ddd7ff" stroke="#7854ab" d="M85.333 64v5.333h5.334l2.666-2.666v-5.334H88z" stroke-width="2"/><path fill="#ddd7ff" stroke="#7854ab" d="M85.333 64h5.334v5.333M90.667 64l2.666-2.667" stroke-width="2"/><path fill="#ddd7ff" stroke="#7854ab" d="M85.333 58.667V64h5.334l2.666-2.667V56H88z" stroke-width="2"/><path fill="#ddd7ff" stroke="#7854ab" d="M85.333 58.667h5.334V64M90.667 58.667L93.333 56" stroke-width="2"/><path fill="#ddd7ff" stroke="#7854ab" d="M85.333 53.333v5.334h5.334L93.333 56v-5.333H88z" stroke-width="2"/><path fill="#ddd7ff" stroke="#7854ab" d="M85.333 53.333h5.334v5.334M90.667 53.333l2.666-2.666" stroke-width="2"/><path fill="#ddd7ff" stroke="#7854ab" d="M85.333 48v5.333h5.334l2.666-2.666v-5.334H88z" stroke-width="2"/><path fill="#ddd7ff" stroke="#7854ab" d="M85.333 48h5.334v5.333M90.667 48l2.666-2.667M90.667 96v5.333H96l2.667-2.666v-5.334h-5.334z" stroke-width="2"/><path fill="#ddd7ff" stroke="#7854ab" d="M90.667 96H96v5.333M96 96l2.667-2.667" stroke-width="2"/><path fill="#ddd7ff" stroke="#7854ab" d="M90.667 90.667V96H96l2.667-2.667V88h-5.334z" stroke-width="2"/><path fill="#ddd7ff" stroke="#7854ab" d="M90.667 90.667H96V96M96 90.667L98.667 88" stroke-width="2"/><path fill="#ddd7ff" stroke="#7854ab" d="M90.667 85.333v5.334H96L98.667 88v-5.333h-5.334z" stroke-width="2"/><path fill="#ddd7ff" stroke="#7854ab" d="M90.667 85.333H96v5.334M96 85.333l2.667-2.666" stroke-width="2"/><path fill="#ddd7ff" stroke="#7854ab" d="M90.667 80v5.333H96l2.667-2.666v-5.334h-5.334z" stroke-width="2"/><path fill="#ddd7ff" stroke="#7854ab" d="M90.667 80H96v5.333M96 80l2.667-2.667" stroke-width="2"/><path fill="#ddd7ff" stroke="#7854ab" d="M90.667 74.667V80H96l2.667-2.667V72h-5.334z" stroke-width="2"/><path fill="#ddd7ff" stroke="#7854ab" d="M90.667 74.667H96V80M96 74.667L98.667 72" stroke-width="2"/><path fill="#ddd7ff" stroke="#7854ab" d="M90.667 69.333v5.334H96L98.667 72v-5.333h-5.334z" stroke-width="2"/><path fill="#ddd7ff" stroke="#7854ab" d="M90.667 69.333H96v5.334M96 69.333l2.667-2.666" stroke-width="2"/><path fill="#ddd7ff" stroke="#7854ab" d="M90.667 64v5.333H96l2.667-2.666v-5.334h-5.334z" stroke-width="2"/><path fill="#ddd7ff" stroke="#7854ab" d="M90.667 64H96v5.333M96 64l2.667-2.667" stroke-width="2"/><path fill="#ddd7ff" stroke="#7854ab" d="M90.667 58.667V64H96l2.667-2.667V56h-5.334z" stroke-width="2"/><path fill="#ddd7ff" stroke="#7854ab" d="M90.667 58.667H96V64M96 58.667L98.667 56" stroke-width="2"/><path fill="#ddd7ff" stroke="#7854ab" d="M90.667 53.333v5.334H96L98.667 56v-5.333h-5.334z" stroke-width="2"/><path fill="#ddd7ff" stroke="#7854ab" d="M90.667 53.333H96v5.334M96 53.333l2.667-2.666" stroke-width="2"/><path fill="#ddd7ff" stroke="#7854ab" d="M90.667 48v5.333H96l2.667-2.666v-5.334h-5.334z" stroke-width="2"/><path fill="#ddd7ff" stroke="#7854ab" d="M90.667 48H96v5.333M96 48l2.667-2.667M96 96v5.333h5.333L104 98.667v-5.334h-5.333z" stroke-width="2"/><path fill="#ddd7ff" stroke="#7854ab" d="M96 96h5.333v5.333M101.333 96L104 93.333" stroke-width="2"/><path fill="#ddd7ff" stroke="#7854ab" d="M96 90.667V96h5.333L104 93.333V88h-5.333z" stroke-width="2"/><path fill="#ddd7ff" stroke="#7854ab" d="M96 90.667h5.333V96M101.333 90.667L104 88" stroke-width="2"/><path fill="#ddd7ff" stroke="#7854ab" d="M96 85.333v5.334h5.333L104 88v-5.333h-5.333z" stroke-width="2"/><path fill="#ddd7ff" stroke="#7854ab" d="M96 85.333h5.333v5.334M101.333 85.333L104 82.667" stroke-width="2"/><path fill="#ddd7ff" stroke="#7854ab" d="M96 80v5.333h5.333L104 82.667v-5.334h-5.333z" stroke-width="2"/><path fill="#ddd7ff" stroke="#7854ab" d="M96 80h5.333v5.333M101.333 80L104 77.333" stroke-width="2"/><path fill="#ddd7ff" stroke="#7854ab" d="M96 74.667V80h5.333L104 77.333V72h-5.333z" stroke-width="2"/><path fill="#ddd7ff" stroke="#7854ab" d="M96 74.667h5.333V80M101.333 74.667L104 72" stroke-width="2"/><path fill="#ddd7ff" stroke="#7854ab" d="M96 69.333v5.334h5.333L104 72v-5.333h-5.333z" stroke-width="2"/><path fill="#ddd7ff" stroke="#7854ab" d="M96 69.333h5.333v5.334M101.333 69.333L104 66.667" stroke-width="2"/><path fill="#ddd7ff" stroke="#7854ab" d="M96 64v5.333h5.333L104 66.667v-5.334h-5.333z" stroke-width="2"/><path fill="#ddd7ff" stroke="#7854ab" d="M96 64h5.333v5.333M101.333 64L104 61.333" stroke-width="2"/><path fill="#ddd7ff" stroke="#7854ab" d="M96 58.667V64h5.333L104 61.333V56h-5.333z" stroke-width="2"/><path fill="#ddd7ff" stroke="#7854ab" d="M96 58.667h5.333V64M101.333 58.667L104 56" stroke-width="2"/><path fill="#ddd7ff" stroke="#7854ab" d="M96 53.333v5.334h5.333L104 56v-5.333h-5.333z" stroke-width="2"/><path fill="#ddd7ff" stroke="#7854ab" d="M96 53.333h5.333v5.334M101.333 53.333L104 50.667" stroke-width="2"/><path fill="#ddd7ff" stroke="#7854ab" d="M96 48v5.333h5.333L104 50.667v-5.334h-5.333z" stroke-width="2"/><path fill="#ddd7ff" stroke="#7854ab" d="M96 48h5.333v5.333M101.333 48L104 45.333M101.333 96v5.333h5.334l2.666-2.666v-5.334H104z" stroke-width="2"/><path fill="#ddd7ff" stroke="#7854ab" d="M101.333 96h5.334v5.333M106.667 96l2.666-2.667" stroke-width="2"/><path fill="#ddd7ff" stroke="#7854ab" d="M101.333 90.667V96h5.334l2.666-2.667V88H104z" stroke-width="2"/><path fill="#ddd7ff" stroke="#7854ab" d="M101.333 90.667h5.334V96M106.667 90.667L109.333 88" stroke-width="2"/><path fill="#ddd7ff" stroke="#7854ab" d="M101.333 85.333v5.334h5.334L109.333 88v-5.333H104z" stroke-width="2"/><path fill="#ddd7ff" stroke="#7854ab" d="M101.333 85.333h5.334v5.334M106.667 85.333l2.666-2.666" stroke-width="2"/><path fill="#ddd7ff" stroke="#7854ab" d="M101.333 80v5.333h5.334l2.666-2.666v-5.334H104z" stroke-width="2"/><path fill="#ddd7ff" stroke="#7854ab" d="M101.333 80h5.334v5.333M106.667 80l2.666-2.667" stroke-width="2"/><path fill="#ddd7ff" stroke="#7854ab" d="M101.333 74.667V80h5.334l2.666-2.667V72H104z" stroke-width="2"/><path fill="#ddd7ff" stroke="#7854ab" d="M101.333 74.667h5.334V80M106.667 74.667L109.333 72" stroke-width="2"/><path fill="#ddd7ff" stroke="#7854ab" d="M101.333 69.333v5.334h5.334L109.333 72v-5.333H104z" stroke-width="2"/><path fill="#ddd7ff" stroke="#7854ab" d="M101.333 69.333h5.334v5.334M106.667 69.333l2.666-2.666" stroke-width="2"/><path fill="#ddd7ff" stroke="#7854ab" d="M101.333 64v5.333h5.334l2.666-2.666v-5.334H104z" stroke-width="2"/><path fill="#ddd7ff" stroke="#7854ab" d="M101.333 64h5.334v5.333M106.667 64l2.666-2.667" stroke-width="2"/><path fill="#ddd7ff" stroke="#7854ab" d="M101.333 58.667V64h5.334l2.666-2.667V56H104z" stroke-width="2"/><path fill="#ddd7ff" stroke="#7854ab" d="M101.333 58.667h5.334V64M106.667 58.667L109.333 56" stroke-width="2"/><path fill="#ddd7ff" stroke="#7854ab" d="M101.333 53.333v5.334h5.334L109.333 56v-5.333H104z" stroke-width="2"/><path fill="#ddd7ff" stroke="#7854ab" d="M101.333 53.333h5.334v5.334M106.667 53.333l2.666-2.666" stroke-width="2"/><path fill="#ddd7ff" stroke="#7854ab" d="M101.333 48v5.333h5.334l2.666-2.666v-5.334H104z" stroke-width="2"/><path fill="#ddd7ff" stroke="#7854ab" d="M101.333 48h5.334v5.333M106.667 48l2.666-2.667M106.667 96v5.333H112l2.667-2.666v-5.334h-5.334z" stroke-width="2"/><path fill="#ddd7ff" stroke="#7854ab" d="M106.667 96H112v5.333M112 96l2.667-2.667" stroke-width="2"/><path fill="#ddd7ff" stroke="#7854ab" d="M106.667 90.667V96H112l2.667-2.667V88h-5.334z" stroke-width="2"/><path fill="#ddd7ff" stroke="#7854ab" d="M106.667 90.667H112V96M112 90.667L114.667 88" stroke-width="2"/><path fill="#ddd7ff" stroke="#7854ab" d="M106.667 85.333v5.334H112L114.667 88v-5.333h-5.334z" stroke-width="2"/><path fill="#ddd7ff" stroke="#7854ab" d="M106.667 85.333H112v5.334M112 85.333l2.667-2.666" stroke-width="2"/><path fill="#ddd7ff" stroke="#7854ab" d="M106.667 80v5.333H112l2.667-2.666v-5.334h-5.334z" stroke-width="2"/><path fill="#ddd7ff" stroke="#7854ab" d="M106.667 80H112v5.333M112 80l2.667-2.667" stroke-width="2"/><path fill="#ddd7ff" stroke="#7854ab" d="M106.667 74.667V80H112l2.667-2.667V72h-5.334z" stroke-width="2"/><path fill="#ddd7ff" stroke="#7854ab" d="M106.667 74.667H112V80M112 74.667L114.667 72" stroke-width="2"/><path fill="#ddd7ff" stroke="#7854ab" d="M106.667 69.333v5.334H112L114.667 72v-5.333h-5.334z" stroke-width="2"/><path fill="#ddd7ff" stroke="#7854ab" d="M106.667 69.333H112v5.334M112 69.333l2.667-2.666" stroke-width="2"/><path fill="#ddd7ff" stroke="#7854ab" d="M106.667 64v5.333H112l2.667-2.666v-5.334h-5.334z" stroke-width="2"/><path fill="#ddd7ff" stroke="#7854ab" d="M106.667 64H112v5.333M112 64l2.667-2.667" stroke-width="2"/><path fill="#ddd7ff" stroke="#7854ab" d="M106.667 58.667V64H112l2.667-2.667V56h-5.334z" stroke-width="2"/><path fill="#ddd7ff" stroke="#7854ab" d="M106.667 58.667H112V64M112 58.667L114.667 56" stroke-width="2"/><path fill="#ddd7ff" stroke="#7854ab" d="M106.667 53.333v5.334H112L114.667 56v-5.333h-5.334z" stroke-width="2"/><path fill="#ddd7ff" stroke="#7854ab" d="M106.667 53.333H112v5.334M112 53.333l2.667-2.666" stroke-width="2"/><path fill="#ddd7ff" stroke="#7854ab" d="M106.667 48v5.333H112l2.667-2.666v-5.334h-5.334z" stroke-width="2"/><path fill="#ddd7ff" stroke="#7854ab" d="M106.667 48H112v5.333M112 48l2.667-2.667M112 96v5.333h5.333L120 98.667v-5.334h-5.333z" stroke-width="2"/><path fill="#ddd7ff" stroke="#7854ab" d="M112 96h5.333v5.333M117.333 96L120 93.333" stroke-width="2"/><path fill="#ddd7ff" stroke="#7854ab" d="M112 90.667V96h5.333L120 93.333V88h-5.333z" stroke-width="2"/><path fill="#ddd7ff" stroke="#7854ab" d="M112 90.667h5.333V96M117.333 90.667L120 88" stroke-width="2"/><path fill="#ddd7ff" stroke="#7854ab" d="M112 85.333v5.334h5.333L120 88v-5.333h-5.333z" stroke-width="2"/><path fill="#ddd7ff" stroke="#7854ab" d="M112 85.333h5.333v5.334M117.333 85.333L120 82.667" stroke-width="2"/><path fill="#ddd7ff" stroke="#7854ab" d="M112 80v5.333h5.333L120 82.667v-5.334h-5.333z" stroke-width="2"/><path fill="#ddd7ff" stroke="#7854ab" d="M112 80h5.333v5.333M117.333 80L120 77.333" stroke-width="2"/><path fill="#ddd7ff" stroke="#7854ab" d="M112 74.667V80h5.333L120 77.333V72h-5.333z" stroke-width="2"/><path fill="#ddd7ff" stroke="#7854ab" d="M112 74.667h5.333V80M117.333 74.667L120 72" stroke-width="2"/><path fill="#ddd7ff" stroke="#7854ab" d="M112 69.333v5.334h5.333L120 72v-5.333h-5.333z" stroke-width="2"/><path fill="#ddd7ff" stroke="#7854ab" d="M112 69.333h5.333v5.334M117.333 69.333L120 66.667" stroke-width="2"/><path fill="#ddd7ff" stroke="#7854ab" d="M112 64v5.333h5.333L120 66.667v-5.334h-5.333z" stroke-width="2"/><path fill="#ddd7ff" stroke="#7854ab" d="M112 64h5.333v5.333M117.333 64L120 61.333" stroke-width="2"/><path fill="#ddd7ff" stroke="#7854ab" d="M112 58.667V64h5.333L120 61.333V56h-5.333z" stroke-width="2"/><path fill="#ddd7ff" stroke="#7854ab" d="M112 58.667h5.333V64M117.333 58.667L120 56" stroke-width="2"/><path fill="#ddd7ff" stroke="#7854ab" d="M112 53.333v5.334h5.333L120 56v-5.333h-5.333z" stroke-width="2"/><path fill="#ddd7ff" stroke="#7854ab" d="M112 53.333h5.333v5.334M117.333 53.333L120 50.667" stroke-width="2"/><path fill="#ddd7ff" stroke="#7854ab" d="M112 48v5.333h5.333L120 50.667v-5.334h-5.333z" stroke-width="2"/><path fill="#ddd7ff" stroke="#7854ab" d="M112 48h5.333v5.333M117.333 48L120 45.333M117.333 96v5.333h5.334l2.666-2.666v-5.334H120z" stroke-width="2"/><path fill="#ddd7ff" stroke="#7854ab" d="M117.333 96h5.334v5.333M122.667 96l2.666-2.667" stroke-width="2"/><path fill="#ddd7ff" stroke="#7854ab" d="M117.333 90.667V96h5.334l2.666-2.667V88H120z" stroke-width="2"/><path fill="#ddd7ff" stroke="#7854ab" d="M117.333 90.667h5.334V96M122.667 90.667L125.333 88" stroke-width="2"/><path fill="#ddd7ff" stroke="#7854ab" d="M117.333 85.333v5.334h5.334L125.333 88v-5.333H120z" stroke-width="2"/><path fill="#ddd7ff" stroke="#7854ab" d="M117.333 85.333h5.334v5.334M122.667 85.333l2.666-2.666" stroke-width="2"/><path fill="#ddd7ff" stroke="#7854ab" d="M117.333 80v5.333h5.334l2.666-2.666v-5.334H120z" stroke-width="2"/><path fill="#ddd7ff" stroke="#7854ab" d="M117.333 80h5.334v5.333M122.667 80l2.666-2.667" stroke-width="2"/><path fill="#ddd7ff" stroke="#7854ab" d="M117.333 74.667V80h5.334l2.666-2.667V72H120z" stroke-width="2"/><path fill="#ddd7ff" stroke="#7854ab" d="M117.333 74.667h5.334V80M122.667 74.667L125.333 72" stroke-width="2"/><path fill="#ddd7ff" stroke="#7854ab" d="M117.333 69.333v5.334h5.334L125.333 72v-5.333H120z" stroke-width="2"/><path fill="#ddd7ff" stroke="#7854ab" d="M117.333 69.333h5.334v5.334M122.667 69.333l2.666-2.666" stroke-width="2"/><path fill="#ddd7ff" stroke="#7854ab" d="M117.333 64v5.333h5.334l2.666-2.666v-5.334H120z" stroke-width="2"/><path fill="#ddd7ff" stroke="#7854ab" d="M117.333 64h5.334v5.333M122.667 64l2.666-2.667" stroke-width="2"/><path fill="#ddd7ff" stroke="#7854ab" d="M117.333 58.667V64h5.334l2.666-2.667V56H120z" stroke-width="2"/><path fill="#ddd7ff" stroke="#7854ab" d="M117.333 58.667h5.334V64M122.667 58.667L125.333 56" stroke-width="2"/><path fill="#ddd7ff" stroke="#7854ab" d="M117.333 53.333v5.334h5.334L125.333 56v-5.333H120z" stroke-width="2"/><path fill="#ddd7ff" stroke="#7854ab" d="M117.333 53.333h5.334v5.334M122.667 53.333l2.666-2.666" stroke-width="2"/><path fill="#ddd7ff" stroke="#7854ab" d="M117.333 48v5.333h5.334l2.666-2.666v-5.334H120z" stroke-width="2"/><path fill="#ddd7ff" stroke="#7854ab" d="M117.333 48h5.334v5.333M122.667 48l2.666-2.667M5.333 160v5.333h5.334l2.666-2.666v-5.334H8z" stroke-width="2"/><path fill="#ddd7ff" stroke="#7854ab" d="M5.333 160h5.334v5.333M10.667 160l2.666-2.667" stroke-width="2"/><path fill="#ddd7ff" stroke="#7854ab" d="M5.333 154.667V160h5.334l2.666-2.667V152H8z" stroke-width="2"/><path fill="#ddd7ff" stroke="#7854ab" d="M5.333 154.667h5.334V160M10.667 154.667L13.333 152" stroke-width="2"/><path fill="#ddd7ff" stroke="#7854ab" d="M5.333 149.333v5.334h5.334L13.333 152v-5.333H8z" stroke-width="2"/><path fill="#ddd7ff" stroke="#7854ab" d="M5.333 149.333h5.334v5.334M10.667 149.333l2.666-2.666" stroke-width="2"/><path fill="#ddd7ff" stroke="#7854ab" d="M5.333 144v5.333h5.334l2.666-2.666v-5.334H8z" stroke-width="2"/><path fill="#ddd7ff" stroke="#7854ab" d="M5.333 144h5.334v5.333M10.667 144l2.666-2.667" stroke-width="2"/><path fill="#ddd7ff" stroke="#7854ab" d="M5.333 138.667V144h5.334l2.666-2.667V136H8z" stroke-width="2"/><path fill="#ddd7ff" stroke="#7854ab" d="M5.333 138.667h5.334V144M10.667 138.667L13.333 136" stroke-width="2"/><path fill="#ddd7ff" stroke="#7854ab" d="M5.333 133.333v5.334h5.334L13.333 136v-5.333H8z" stroke-width="2"/><path fill="#ddd7ff" stroke="#7854ab" d="M5.333 133.333h5.334v5.334M10.667 133.333l2.666-2.666" stroke-width="2"/><path fill="#ddd7ff" stroke="#7854ab" d="M5.333 128v5.333h5.334l2.666-2.666v-5.334H8z" stroke-width="2"/><path fill="#ddd7ff" stroke="#7854ab" d="M5.333 128h5.334v5.333M10.667 128l2.666-2.667" stroke-width="2"/><path fill="#ddd7ff" stroke="#7854ab" d="M5.333 122.667V128h5.334l2.666-2.667V120H8z" stroke-width="2"/><path fill="#ddd7ff" stroke="#7854ab" d="M5.333 122.667h5.334V128M10.667 122.667L13.333 120" stroke-width="2"/><path fill="#ddd7ff" stroke="#7854ab" d="M5.333 117.333v5.334h5.334L13.333 120v-5.333H8z" stroke-width="2"/><path fill="#ddd7ff" stroke="#7854ab" d="M5.333 117.333h5.334v5.334M10.667 117.333l2.666-2.666" stroke-width="2"/><path fill="#ddd7ff" stroke="#7854ab" d="M5.333 112v5.333h5.334l2.666-2.666v-5.334H8z" stroke-width="2"/><path fill="#ddd7ff" stroke="#7854ab" d="M5.333 112h5.334v5.333M10.667 112l2.666-2.667M10.667 160v5.333H16l2.667-2.666v-5.334h-5.334z" stroke-width="2"/><path fill="#ddd7ff" stroke="#7854ab" d="M10.667 160H16v5.333M16 160l2.667-2.667" stroke-width="2"/><path fill="#ddd7ff" stroke="#7854ab" d="M10.667 154.667V160H16l2.667-2.667V152h-5.334z" stroke-width="2"/><path fill="#ddd7ff" stroke="#7854ab" d="M10.667 154.667H16V160M16 154.667L18.667 152" stroke-width="2"/><path fill="#ddd7ff" stroke="#7854ab" d="M10.667 149.333v5.334H16L18.667 152v-5.333h-5.334z" stroke-width="2"/><path fill="#ddd7ff" stroke="#7854ab" d="M10.667 149.333H16v5.334M16 149.333l2.667-2.666" stroke-width="2"/><path fill="#ddd7ff" stroke="#7854ab" d="M10.667 144v5.333H16l2.667-2.666v-5.334h-5.334z" stroke-width="2"/><path fill="#ddd7ff" stroke="#7854ab" d="M10.667 144H16v5.333M16 144l2.667-2.667" stroke-width="2"/><path fill="#ddd7ff" stroke="#7854ab" d="M10.667 138.667V144H16l2.667-2.667V136h-5.334z" stroke-width="2"/><path fill="#ddd7ff" stroke="#7854ab" d="M10.667 138.667H16V144M16 138.667L18.667 136" stroke-width="2"/><path fill="#ddd7ff" stroke="#7854ab" d="M10.667 133.333v5.334H16L18.667 136v-5.333h-5.334z" stroke-width="2"/><path fill="#ddd7ff" stroke="#7854ab" d="M10.667 133.333H16v5.334M16 133.333l2.667-2.666" stroke-width="2"/><path fill="#ddd7ff" stroke="#7854ab" d="M10.667 128v5.333H16l2.667-2.666v-5.334h-5.334z" stroke-width="2"/><path fill="#ddd7ff" stroke="#7854ab" d="M10.667 128H16v5.333M16 128l2.667-2.667" stroke-width="2"/><path fill="#ddd7ff" stroke="#7854ab" d="M10.667 122.667V128H16l2.667-2.667V120h-5.334z" stroke-width="2"/><path fill="#ddd7ff" stroke="#7854ab" d="M10.667 122.667H16V128M16 122.667L18.667 120" stroke-width="2"/><path fill="#ddd7ff" stroke="#7854ab" d="M10.667 117.333v5.334H16L18.667 120v-5.333h-5.334z" stroke-width="2"/><path fill="#ddd7ff" stroke="#7854ab" d="M10.667 117.333H16v5.334M16 117.333l2.667-2.666" stroke-width="2"/><path fill="#ddd7ff" stroke="#7854ab" d="M10.667 112v5.333H16l2.667-2.666v-5.334h-5.334z" stroke-width="2"/><path fill="#ddd7ff" stroke="#7854ab" d="M10.667 112H16v5.333M16 112l2.667-2.667M16 160v5.333h5.333L24 162.667v-5.334h-5.333z" stroke-width="2"/><path fill="#ddd7ff" stroke="#7854ab" d="M16 160h5.333v5.333M21.333 160L24 157.333" stroke-width="2"/><path fill="#ddd7ff" stroke="#7854ab" d="M16 154.667V160h5.333L24 157.333V152h-5.333z" stroke-width="2"/><path fill="#ddd7ff" stroke="#7854ab" d="M16 154.667h5.333V160M21.333 154.667L24 152" stroke-width="2"/><path fill="#ddd7ff" stroke="#7854ab" d="M16 149.333v5.334h5.333L24 152v-5.333h-5.333z" stroke-width="2"/><path fill="#ddd7ff" stroke="#7854ab" d="M16 149.333h5.333v5.334M21.333 149.333L24 146.667" stroke-width="2"/><path fill="#ddd7ff" stroke="#7854ab" d="M16 144v5.333h5.333L24 146.667v-5.334h-5.333z" stroke-width="2"/><path fill="#ddd7ff" stroke="#7854ab" d="M16 144h5.333v5.333M21.333 144L24 141.333" stroke-width="2"/><path fill="#ddd7ff" stroke="#7854ab" d="M16 138.667V144h5.333L24 141.333V136h-5.333z" stroke-width="2"/><path fill="#ddd7ff" stroke="#7854ab" d="M16 138.667h5.333V144M21.333 138.667L24 136" stroke-width="2"/><path fill="#ddd7ff" stroke="#7854ab" d="M16 133.333v5.334h5.333L24 136v-5.333h-5.333z" stroke-width="2"/><path fill="#ddd7ff" stroke="#7854ab" d="M16 133.333h5.333v5.334M21.333 133.333L24 130.667" stroke-width="2"/><path fill="#ddd7ff" stroke="#7854ab" d="M16 128v5.333h5.333L24 130.667v-5.334h-5.333z" stroke-width="2"/><path fill="#ddd7ff" stroke="#7854ab" d="M16 128h5.333v5.333M21.333 128L24 125.333" stroke-width="2"/><path fill="#ddd7ff" stroke="#7854ab" d="M16 122.667V128h5.333L24 125.333V120h-5.333z" stroke-width="2"/><path fill="#ddd7ff" stroke="#7854ab" d="M16 122.667h5.333V128M21.333 122.667L24 120" stroke-width="2"/><path fill="#ddd7ff" stroke="#7854ab" d="M16 117.333v5.334h5.333L24 120v-5.333h-5.333z" stroke-width="2"/><path fill="#ddd7ff" stroke="#7854ab" d="M16 117.333h5.333v5.334M21.333 117.333L24 114.667" stroke-width="2"/><path fill="#ddd7ff" stroke="#7854ab" d="M16 112v5.333h5.333L24 114.667v-5.334h-5.333z" stroke-width="2"/><path fill="#ddd7ff" stroke="#7854ab" d="M16 112h5.333v5.333M21.333 112L24 109.333M21.333 160v5.333h5.334l2.666-2.666v-5.334H24z" stroke-width="2"/><path fill="#ddd7ff" stroke="#7854ab" d="M21.333 160h5.334v5.333M26.667 160l2.666-2.667" stroke-width="2"/><path fill="#ddd7ff" stroke="#7854ab" d="M21.333 154.667V160h5.334l2.666-2.667V152H24z" stroke-width="2"/><path fill="#ddd7ff" stroke="#7854ab" d="M21.333 154.667h5.334V160M26.667 154.667L29.333 152" stroke-width="2"/><path fill="#ddd7ff" stroke="#7854ab" d="M21.333 149.333v5.334h5.334L29.333 152v-5.333H24z" stroke-width="2"/><path fill="#ddd7ff" stroke="#7854ab" d="M21.333 149.333h5.334v5.334M26.667 149.333l2.666-2.666" stroke-width="2"/><path fill="#ddd7ff" stroke="#7854ab" d="M21.333 144v5.333h5.334l2.666-2.666v-5.334H24z" stroke-width="2"/><path fill="#ddd7ff" stroke="#7854ab" d="M21.333 144h5.334v5.333M26.667 144l2.666-2.667" stroke-width="2"/><path fill="#ddd7ff" stroke="#7854ab" d="M21.333 138.667V144h5.334l2.666-2.667V136H24z" stroke-width="2"/><path fill="#ddd7ff" stroke="#7854ab" d="M21.333 138.667h5.334V144M26.667 138.667L29.333 136" stroke-width="2"/><path fill="#ddd7ff" stroke="#7854ab" d="M21.333 133.333v5.334h5.334L29.333 136v-5.333H24z" stroke-width="2"/><path fill="#ddd7ff" stroke="#7854ab" d="M21.333 133.333h5.334v5.334M26.667 133.333l2.666-2.666" stroke-width="2"/><path fill="#ddd7ff" stroke="#7854ab" d="M21.333 128v5.333h5.334l2.666-2.666v-5.334H24z" stroke-width="2"/><path fill="#ddd7ff" stroke="#7854ab" d="M21.333 128h5.334v5.333M26.667 128l2.666-2.667" stroke-width="2"/><path fill="#ddd7ff" stroke="#7854ab" d="M21.333 122.667V128h5.334l2.666-2.667V120H24z" stroke-width="2"/><path fill="#ddd7ff" stroke="#7854ab" d="M21.333 122.667h5.334V128M26.667 122.667L29.333 120" stroke-width="2"/><path fill="#ddd7ff" stroke="#7854ab" d="M21.333 117.333v5.334h5.334L29.333 120v-5.333H24z" stroke-width="2"/><path fill="#ddd7ff" stroke="#7854ab" d="M21.333 117.333h5.334v5.334M26.667 117.333l2.666-2.666" stroke-width="2"/><path fill="#ddd7ff" stroke="#7854ab" d="M21.333 112v5.333h5.334l2.666-2.666v-5.334H24z" stroke-width="2"/><path fill="#ddd7ff" stroke="#7854ab" d="M21.333 112h5.334v5.333M26.667 112l2.666-2.667M26.667 160v5.333H32l2.667-2.666v-5.334h-5.334z" stroke-width="2"/><path fill="#ddd7ff" stroke="#7854ab" d="M26.667 160H32v5.333M32 160l2.667-2.667" stroke-width="2"/><path fill="#ddd7ff" stroke="#7854ab" d="M26.667 154.667V160H32l2.667-2.667V152h-5.334z" stroke-width="2"/><path fill="#ddd7ff" stroke="#7854ab" d="M26.667 154.667H32V160M32 154.667L34.667 152" stroke-width="2"/><path fill="#ddd7ff" stroke="#7854ab" d="M26.667 149.333v5.334H32L34.667 152v-5.333h-5.334z" stroke-width="2"/><path fill="#ddd7ff" stroke="#7854ab" d="M26.667 149.333H32v5.334M32 149.333l2.667-2.666" stroke-width="2"/><path fill="#ddd7ff" stroke="#7854ab" d="M26.667 144v5.333H32l2.667-2.666v-5.334h-5.334z" stroke-width="2"/><path fill="#ddd7ff" stroke="#7854ab" d="M26.667 144H32v5.333M32 144l2.667-2.667" stroke-width="2"/><path fill="#ddd7ff" stroke="#7854ab" d="M26.667 138.667V144H32l2.667-2.667V136h-5.334z" stroke-width="2"/><path fill="#ddd7ff" stroke="#7854ab" d="M26.667 138.667H32V144M32 138.667L34.667 136" stroke-width="2"/><path fill="#ddd7ff" stroke="#7854ab" d="M26.667 133.333v5.334H32L34.667 136v-5.333h-5.334z" stroke-width="2"/><path fill="#ddd7ff" stroke="#7854ab" d="M26.667 133.333H32v5.334M32 133.333l2.667-2.666" stroke-width="2"/><path fill="#ddd7ff" stroke="#7854ab" d="M26.667 128v5.333H32l2.667-2.666v-5.334h-5.334z" stroke-width="2"/><path fill="#ddd7ff" stroke="#7854ab" d="M26.667 128H32v5.333M32 128l2.667-2.667" stroke-width="2"/><path fill="#ddd7ff" stroke="#7854ab" d="M26.667 122.667V128H32l2.667-2.667V120h-5.334z" stroke-width="2"/><path fill="#ddd7ff" stroke="#7854ab" d="M26.667 122.667H32V128M32 122.667L34.667 120" stroke-width="2"/><path fill="#ddd7ff" stroke="#7854ab" d="M26.667 117.333v5.334H32L34.667 120v-5.333h-5.334z" stroke-width="2"/><path fill="#ddd7ff" stroke="#7854ab" d="M26.667 117.333H32v5.334M32 117.333l2.667-2.666" stroke-width="2"/><path fill="#ddd7ff" stroke="#7854ab" d="M26.667 112v5.333H32l2.667-2.666v-5.334h-5.334z" stroke-width="2"/><path fill="#ddd7ff" stroke="#7854ab" d="M26.667 112H32v5.333M32 112l2.667-2.667M32 160v5.333h5.333L40 162.667v-5.334h-5.333z" stroke-width="2"/><path fill="#ddd7ff" stroke="#7854ab" d="M32 160h5.333v5.333M37.333 160L40 157.333" stroke-width="2"/><path fill="#ddd7ff" stroke="#7854ab" d="M32 154.667V160h5.333L40 157.333V152h-5.333z" stroke-width="2"/><path fill="#ddd7ff" stroke="#7854ab" d="M32 154.667h5.333V160M37.333 154.667L40 152" stroke-width="2"/><path fill="#ddd7ff" stroke="#7854ab" d="M32 149.333v5.334h5.333L40 152v-5.333h-5.333z" stroke-width="2"/><path fill="#ddd7ff" stroke="#7854ab" d="M32 149.333h5.333v5.334M37.333 149.333L40 146.667" stroke-width="2"/><path fill="#ddd7ff" stroke="#7854ab" d="M32 144v5.333h5.333L40 146.667v-5.334h-5.333z" stroke-width="2"/><path fill="#ddd7ff" stroke="#7854ab" d="M32 144h5.333v5.333M37.333 144L40 141.333" stroke-width="2"/><path fill="#ddd7ff" stroke="#7854ab" d="M32 138.667V144h5.333L40 141.333V136h-5.333z" stroke-width="2"/><path fill="#ddd7ff" stroke="#7854ab" d="M32 138.667h5.333V144M37.333 138.667L40 136" stroke-width="2"/><path fill="#ddd7ff" stroke="#7854ab" d="M32 133.333v5.334h5.333L40 136v-5.333h-5.333z" stroke-width="2"/><path fill="#ddd7ff" stroke="#7854ab" d="M32 133.333h5.333v5.334M37.333 133.333L40 130.667" stroke-width="2"/><path fill="#ddd7ff" stroke="#7854ab" d="M32 128v5.333h5.333L40 130.667v-5.334h-5.333z" stroke-width="2"/><path fill="#ddd7ff" stroke="#7854ab" d="M32 128h5.333v5.333M37.333 128L40 125.333" stroke-width="2"/><path fill="#ddd7ff" stroke="#7854ab" d="M32 122.667V128h5.333L40 125.333V120h-5.333z" stroke-width="2"/><path fill="#ddd7ff" stroke="#7854ab" d="M32 122.667h5.333V128M37.333 122.667L40 120" stroke-width="2"/><path fill="#ddd7ff" stroke="#7854ab" d="M32 117.333v5.334h5.333L40 120v-5.333h-5.333z" stroke-width="2"/><path fill="#ddd7ff" stroke="#7854ab" d="M32 117.333h5.333v5.334M37.333 117.333L40 114.667" stroke-width="2"/><path fill="#ddd7ff" stroke="#7854ab" d="M32 112v5.333h5.333L40 114.667v-5.334h-5.333z" stroke-width="2"/><path fill="#ddd7ff" stroke="#7854ab" d="M32 112h5.333v5.333M37.333 112L40 109.333M37.333 160v5.333h5.334l2.666-2.666v-5.334H40z" stroke-width="2"/><path fill="#ddd7ff" stroke="#7854ab" d="M37.333 160h5.334v5.333M42.667 160l2.666-2.667" stroke-width="2"/><path fill="#ddd7ff" stroke="#7854ab" d="M37.333 154.667V160h5.334l2.666-2.667V152H40z" stroke-width="2"/><path fill="#ddd7ff" stroke="#7854ab" d="M37.333 154.667h5.334V160M42.667 154.667L45.333 152" stroke-width="2"/><path fill="#ddd7ff" stroke="#7854ab" d="M37.333 149.333v5.334h5.334L45.333 152v-5.333H40z" stroke-width="2"/><path fill="#ddd7ff" stroke="#7854ab" d="M37.333 149.333h5.334v5.334M42.667 149.333l2.666-2.666" stroke-width="2"/><path fill="#ddd7ff" stroke="#7854ab" d="M37.333 144v5.333h5.334l2.666-2.666v-5.334H40z" stroke-width="2"/><path fill="#ddd7ff" stroke="#7854ab" d="M37.333 144h5.334v5.333M42.667 144l2.666-2.667" stroke-width="2"/><path fill="#ddd7ff" stroke="#7854ab" d="M37.333 138.667V144h5.334l2.666-2.667V136H40z" stroke-width="2"/><path fill="#ddd7ff" stroke="#7854ab" d="M37.333 138.667h5.334V144M42.667 138.667L45.333 136" stroke-width="2"/><path fill="#ddd7ff" stroke="#7854ab" d="M37.333 133.333v5.334h5.334L45.333 136v-5.333H40z" stroke-width="2"/><path fill="#ddd7ff" stroke="#7854ab" d="M37.333 133.333h5.334v5.334M42.667 133.333l2.666-2.666" stroke-width="2"/><path fill="#ddd7ff" stroke="#7854ab" d="M37.333 128v5.333h5.334l2.666-2.666v-5.334H40z" stroke-width="2"/><path fill="#ddd7ff" stroke="#7854ab" d="M37.333 128h5.334v5.333M42.667 128l2.666-2.667" stroke-width="2"/><path fill="#ddd7ff" stroke="#7854ab" d="M37.333 122.667V128h5.334l2.666-2.667V120H40z" stroke-width="2"/><path fill="#ddd7ff" stroke="#7854ab" d="M37.333 122.667h5.334V128M42.667 122.667L45.333 120" stroke-width="2"/><path fill="#ddd7ff" stroke="#7854ab" d="M37.333 117.333v5.334h5.334L45.333 120v-5.333H40z" stroke-width="2"/><path fill="#ddd7ff" stroke="#7854ab" d="M37.333 117.333h5.334v5.334M42.667 117.333l2.666-2.666" stroke-width="2"/><path fill="#ddd7ff" stroke="#7854ab" d="M37.333 112v5.333h5.334l2.666-2.666v-5.334H40z" stroke-width="2"/><path fill="#ddd7ff" stroke="#7854ab" d="M37.333 112h5.334v5.333M42.667 112l2.666-2.667M42.667 160v5.333H48l2.667-2.666v-5.334h-5.334z" stroke-width="2"/><path fill="#ddd7ff" stroke="#7854ab" d="M42.667 160H48v5.333M48 160l2.667-2.667" stroke-width="2"/><path fill="#ddd7ff" stroke="#7854ab" d="M42.667 154.667V160H48l2.667-2.667V152h-5.334z" stroke-width="2"/><path fill="#ddd7ff" stroke="#7854ab" d="M42.667 154.667H48V160M48 154.667L50.667 152" stroke-width="2"/><path fill="#ddd7ff" stroke="#7854ab" d="M42.667 149.333v5.334H48L50.667 152v-5.333h-5.334z" stroke-width="2"/><path fill="#ddd7ff" stroke="#7854ab" d="M42.667 149.333H48v5.334M48 149.333l2.667-2.666" stroke-width="2"/><path fill="#ddd7ff" stroke="#7854ab" d="M42.667 144v5.333H48l2.667-2.666v-5.334h-5.334z" stroke-width="2"/><path fill="#ddd7ff" stroke="#7854ab" d="M42.667 144H48v5.333M48 144l2.667-2.667" stroke-width="2"/><path fill="#ddd7ff" stroke="#7854ab" d="M42.667 138.667V144H48l2.667-2.667V136h-5.334z" stroke-width="2"/><path fill="#ddd7ff" stroke="#7854ab" d="M42.667 138.667H48V144M48 138.667L50.667 136" stroke-width="2"/><path fill="#ddd7ff" stroke="#7854ab" d="M42.667 133.333v5.334H48L50.667 136v-5.333h-5.334z" stroke-width="2"/><path fill="#ddd7ff" stroke="#7854ab" d="M42.667 133.333H48v5.334M48 133.333l2.667-2.666" stroke-width="2"/><path fill="#ddd7ff" stroke="#7854ab" d="M42.667 128v5.333H48l2.667-2.666v-5.334h-5.334z" stroke-width="2"/><path fill="#ddd7ff" stroke="#7854ab" d="M42.667 128H48v5.333M48 128l2.667-2.667" stroke-width="2"/><path fill="#ddd7ff" stroke="#7854ab" d="M42.667 122.667V128H48l2.667-2.667V120h-5.334z" stroke-width="2"/><path fill="#ddd7ff" stroke="#7854ab" d="M42.667 122.667H48V128M48 122.667L50.667 120" stroke-width="2"/><path fill="#ddd7ff" stroke="#7854ab" d="M42.667 117.333v5.334H48L50.667 120v-5.333h-5.334z" stroke-width="2"/><path fill="#ddd7ff" stroke="#7854ab" d="M42.667 117.333H48v5.334M48 117.333l2.667-2.666" stroke-width="2"/><path fill="#ddd7ff" stroke="#7854ab" d="M42.667 112v5.333H48l2.667-2.666v-5.334h-5.334z" stroke-width="2"/><path fill="#ddd7ff" stroke="#7854ab" d="M42.667 112H48v5.333M48 112l2.667-2.667M48 160v5.333h5.333L56 162.667v-5.334h-5.333z" stroke-width="2"/><path fill="#ddd7ff" stroke="#7854ab" d="M48 160h5.333v5.333M53.333 160L56 157.333" stroke-width="2"/><path fill="#ddd7ff" stroke="#7854ab" d="M48 154.667V160h5.333L56 157.333V152h-5.333z" stroke-width="2"/><path fill="#ddd7ff" stroke="#7854ab" d="M48 154.667h5.333V160M53.333 154.667L56 152" stroke-width="2"/><path fill="#ddd7ff" stroke="#7854ab" d="M48 149.333v5.334h5.333L56 152v-5.333h-5.333z" stroke-width="2"/><path fill="#ddd7ff" stroke="#7854ab" d="M48 149.333h5.333v5.334M53.333 149.333L56 146.667" stroke-width="2"/><path fill="#ddd7ff" stroke="#7854ab" d="M48 144v5.333h5.333L56 146.667v-5.334h-5.333z" stroke-width="2"/><path fill="#ddd7ff" stroke="#7854ab" d="M48 144h5.333v5.333M53.333 144L56 141.333" stroke-width="2"/><path fill="#ddd7ff" stroke="#7854ab" d="M48 138.667V144h5.333L56 141.333V136h-5.333z" stroke-width="2"/><path fill="#ddd7ff" stroke="#7854ab" d="M48 138.667h5.333V144M53.333 138.667L56 136" stroke-width="2"/><path fill="#ddd7ff" stroke="#7854ab" d="M48 133.333v5.334h5.333L56 136v-5.333h-5.333z" stroke-width="2"/><path fill="#ddd7ff" stroke="#7854ab" d="M48 133.333h5.333v5.334M53.333 133.333L56 130.667" stroke-width="2"/><path fill="#ddd7ff" stroke="#7854ab" d="M48 128v5.333h5.333L56 130.667v-5.334h-5.333z" stroke-width="2"/><path fill="#ddd7ff" stroke="#7854ab" d="M48 128h5.333v5.333M53.333 128L56 125.333" stroke-width="2"/><path fill="#ddd7ff" stroke="#7854ab" d="M48 122.667V128h5.333L56 125.333V120h-5.333z" stroke-width="2"/><path fill="#ddd7ff" stroke="#7854ab" d="M48 122.667h5.333V128M53.333 122.667L56 120" stroke-width="2"/><path fill="#ddd7ff" stroke="#7854ab" d="M48 117.333v5.334h5.333L56 120v-5.333h-5.333z" stroke-width="2"/><path fill="#ddd7ff" stroke="#7854ab" d="M48 117.333h5.333v5.334M53.333 117.333L56 114.667" stroke-width="2"/><path fill="#ddd7ff" stroke="#7854ab" d="M48 112v5.333h5.333L56 114.667v-5.334h-5.333z" stroke-width="2"/><path fill="#ddd7ff" stroke="#7854ab" d="M48 112h5.333v5.333M53.333 112L56 109.333M53.333 160v5.333h5.334l2.666-2.666v-5.334H56z" stroke-width="2"/><path fill="#ddd7ff" stroke="#7854ab" d="M53.333 160h5.334v5.333M58.667 160l2.666-2.667" stroke-width="2"/><path fill="#ddd7ff" stroke="#7854ab" d="M53.333 154.667V160h5.334l2.666-2.667V152H56z" stroke-width="2"/><path fill="#ddd7ff" stroke="#7854ab" d="M53.333 154.667h5.334V160M58.667 154.667L61.333 152" stroke-width="2"/><path fill="#ddd7ff" stroke="#7854ab" d="M53.333 149.333v5.334h5.334L61.333 152v-5.333H56z" stroke-width="2"/><path fill="#ddd7ff" stroke="#7854ab" d="M53.333 149.333h5.334v5.334M58.667 149.333l2.666-2.666" stroke-width="2"/><path fill="#ddd7ff" stroke="#7854ab" d="M53.333 144v5.333h5.334l2.666-2.666v-5.334H56z" stroke-width="2"/><path fill="#ddd7ff" stroke="#7854ab" d="M53.333 144h5.334v5.333M58.667 144l2.666-2.667" stroke-width="2"/><path fill="#ddd7ff" stroke="#7854ab" d="M53.333 138.667V144h5.334l2.666-2.667V136H56z" stroke-width="2"/><path fill="#ddd7ff" stroke="#7854ab" d="M53.333 138.667h5.334V144M58.667 138.667L61.333 136" stroke-width="2"/><path fill="#ddd7ff" stroke="#7854ab" d="M53.333 133.333v5.334h5.334L61.333 136v-5.333H56z" stroke-width="2"/><path fill="#ddd7ff" stroke="#7854ab" d="M53.333 133.333h5.334v5.334M58.667 133.333l2.666-2.666" stroke-width="2"/><path fill="#ddd7ff" stroke="#7854ab" d="M53.333 128v5.333h5.334l2.666-2.666v-5.334H56z" stroke-width="2"/><path fill="#ddd7ff" stroke="#7854ab" d="M53.333 128h5.334v5.333M58.667 128l2.666-2.667" stroke-width="2"/><path fill="#ddd7ff" stroke="#7854ab" d="M53.333 122.667V128h5.334l2.666-2.667V120H56z" stroke-width="2"/><path fill="#ddd7ff" stroke="#7854ab" d="M53.333 122.667h5.334V128M58.667 122.667L61.333 120" stroke-width="2"/><path fill="#ddd7ff" stroke="#7854ab" d="M53.333 117.333v5.334h5.334L61.333 120v-5.333H56z" stroke-width="2"/><path fill="#ddd7ff" stroke="#7854ab" d="M53.333 117.333h5.334v5.334M58.667 117.333l2.666-2.666" stroke-width="2"/><path fill="#ddd7ff" stroke="#7854ab" d="M53.333 112v5.333h5.334l2.666-2.666v-5.334H56z" stroke-width="2"/><path fill="#ddd7ff" stroke="#7854ab" d="M53.333 112h5.334v5.333M58.667 112l2.666-2.667" stroke-width="2"/><path fill="#ffbde0" stroke="#ca337c" d="M348.8 48v5.333h5.333l2.667-2.666v-5.334h-5.333z" stroke-width="2"/><path fill="#ffbde0" stroke="#ca337c" d="M348.8 48h5.333v5.333M354.133 48l2.667-2.667M361.6 48v5.333h5.333l2.667-2.666v-5.334h-5.333z" stroke-width="2"/><path fill="#ffbde0" stroke="#ca337c" d="M361.6 48h5.333v5.333M366.933 48l2.667-2.667M374.4 48v5.333h5.333l2.667-2.666v-5.334h-5.333z" stroke-width="2"/><path fill="#ffbde0" stroke="#ca337c" d="M374.4 48h5.333v5.333M379.733 48l2.667-2.667M387.2 48v5.333h5.333l2.667-2.666v-5.334h-5.333z" stroke-width="2"/><path fill="#ffbde0" stroke="#ca337c" d="M387.2 48h5.333v5.333M392.533 48l2.667-2.667M374.4 60.533v5.334h5.333L382.4 63.2v-5.333h-5.333z" stroke-width="2"/><path fill="#ffbde0" stroke="#ca337c" d="M374.4 60.533h5.333v5.334M379.733 60.533l2.667-2.666M387.2 60.533v5.334h5.333L395.2 63.2v-5.333h-5.333z" stroke-width="2"/><path fill="#ffbde0" stroke="#ca337c" d="M387.2 60.533h5.333v5.334M392.533 60.533l2.667-2.666" stroke-width="2"/></svg>
