<svg xmlns="http://www.w3.org/2000/svg" width="400" height="88.267" viewBox="0 0 400 88.26666666666667"><path fill="none" stroke="#000" d="M133.333 0v88.267M266.667 0v88.267M0 37.333h400" stroke-width="2"/><path fill="#ffbde0" stroke="#ca337c" d="M297.6 48v5.333h5.333l2.667-2.666v-5.334h-5.333z" stroke-width="2"/><path fill="#ffbde0" stroke="#ca337c" d="M297.6 48h5.333v5.333M302.933 48l2.667-2.667M310.4 48v5.333h5.333l2.667-2.666v-5.334h-5.333z" stroke-width="2"/><path fill="#ffbde0" stroke="#ca337c" d="M310.4 48h5.333v5.333M315.733 48l2.667-2.667M323.2 48v5.333h5.333l2.667-2.666v-5.334h-5.333z" stroke-width="2"/><path fill="#ffbde0" stroke="#ca337c" d="M323.2 48h5.333v5.333M328.533 48l2.667-2.667M336 48v5.333h5.333L344 50.667v-5.334h-5.333z" stroke-width="2"/><path fill="#ffbde0" stroke="#ca337c" d="M336 48h5.333v5.333M341.333 48L344 45.333M348.8 48v5.333h5.333l2.667-2.666v-5.334h-5.333z" stroke-width="2"/><path fill="#ffbde0" stroke="#ca337c" d="M348.8 48h5.333v5.333M354.133 48l2.667-2.667M361.6 48v5.333h5.333l2.667-2.666v-5.334h-5.333z" stroke-width="2"/><path fill="#ffbde0" stroke="#ca337c" d="M361.6 48h5.333v5.333M366.933 48l2.667-2.667M374.4 48v5.333h5.333l2.667-2.666v-5.334h-5.333z" stroke-width="2"/><path fill="#ffbde0" stroke="#ca337c" d="M374.4 48h5.333v5.333M379.733 48l2.667-2.667M387.2 48v5.333h5.333l2.667-2.666v-5.334h-5.333z" stroke-width="2"/><path fill="#ffbde0" stroke="#ca337c" d="M387.2 48h5.333v5.333M392.533 48l2.667-2.667M374.4 60.533v5.334h5.333L382.4 63.2v-5.333h-5.333z" stroke-width="2"/><path fill="#ffbde0" stroke="#ca337c" d="M374.4 60.533h5.333v5.334M379.733 60.533l2.667-2.666M387.2 60.533v5.334h5.333L395.2 63.2v-5.333h-5.333z" stroke-width="2"/><path fill="#ffbde0" stroke="#ca337c" d="M387.2 60.533h5.333v5.334M392.533 60.533l2.667-2.666M361.6 73.067V78.4h5.333l2.667-2.667V70.4h-5.333z" stroke-width="2"/><path fill="#ffbde0" stroke="#ca337c" d="M361.6 73.067h5.333V78.4M366.933 73.067L369.6 70.4M374.4 73.067V78.4h5.333l2.667-2.667V70.4h-5.333z" stroke-width="2"/><path fill="#ffbde0" stroke="#ca337c" d="M374.4 73.067h5.333V78.4M379.733 73.067L382.4 70.4M387.2 73.067V78.4h5.333l2.667-2.667V70.4h-5.333z" stroke-width="2"/><path fill="#ffbde0" stroke="#ca337c" d="M387.2 73.067h5.333V78.4M392.533 73.067L395.2 70.4" stroke-width="2"/></svg>
