<svg xmlns="http://www.w3.org/2000/svg" width="400" height="176" viewBox="0 0 400 176"><path fill="none" stroke="#000" d="M133.333 0v176M266.667 0v176M0 37.333h400" stroke-width="2"/><path fill="#ddd7ff" stroke="#7854ab" d="M5.333 96v5.333h5.334l2.666-2.666v-5.334H8z" stroke-width="2"/><path fill="#ddd7ff" stroke="#7854ab" d="M5.333 96h5.334v5.333M10.667 96l2.666-2.667" stroke-width="2"/><path fill="#ddd7ff" stroke="#7854ab" d="M5.333 90.667V96h5.334l2.666-2.667V88H8z" stroke-width="2"/><path fill="#ddd7ff" stroke="#7854ab" d="M5.333 90.667h5.334V96M10.667 90.667L13.333 88" stroke-width="2"/><path fill="#ddd7ff" stroke="#7854ab" d="M5.333 85.333v5.334h5.334L13.333 88v-5.333H8z" stroke-width="2"/><path fill="#ddd7ff" stroke="#7854ab" d="M5.333 85.333h5.334v5.334M10.667 85.333l2.666-2.666" stroke-width="2"/><path fill="#ddd7ff" stroke="#7854ab" d="M5.333 80v5.333h5.334l2.666-2.666v-5.334H8z" stroke-width="2"/><path fill="#ddd7ff" stroke="#7854ab" d="M5.333 80h5.334v5.333M10.667 80l2.666-2.667" stroke-width="2"/><path fill="#ddd7ff" stroke="#7854ab" d="M5.333 74.667V80h5.334l2.666-2.667V72H8z" stroke-width="2"/><path fill="#ddd7ff" stroke="#7854ab" d="M5.333 74.667h5.334V80M10.667 74.667L13.333 72" stroke-width="2"/><path fill="#ddd7ff" stroke="#7854ab" d="M5.333 69.333v5.334h5.334L13.333 72v-5.333H8z" stroke-width="2"/><path fill="#ddd7ff" stroke="#7854ab" d="M5.333 69.333h5.334v5.334M10.667 69.333l2.666-2.666" stroke-width="2"/><path fill="#ddd7ff" stroke="#7854ab" d="M5.333 64v5.333h5.334l2.666-2.666v-5.334H8z" stroke-width="2"/><path fill="#ddd7ff" stroke="#7854ab" d="M5.333 64h5.334v5.333M10.667 64l2.666-2.667" stroke-width="2"/><path fill="#ddd7ff" stroke="#7854ab" d="M5.333 58.667V64h5.334l2.666-2.667V56H8z" stroke-width="2"/><path fill="#ddd7ff" stroke="#7854ab" d="M5.333 58.667h5.334V64M10.667 58.667L13.333 56" stroke-width="2"/><path fill="#ddd7ff" stroke="#7854ab" d="M5.333 53.333v5.334h5.334L13.333 56v-5.333H8z" stroke-width="2"/><path fill="#ddd7ff" stroke="#7854ab" d="M5.333 53.333h5.334v5.334M10.667 53.333l2.666-2.666" stroke-width="2"/><path fill="#ddd7ff" stroke="#7854ab" d="M5.333 48v5.333h5.334l2.666-2.666v-5.334H8z" stroke-width="2"/><path fill="#ddd7ff" stroke="#7854ab" d="M5.333 48h5.334v5.333M10.667 48l2.666-2.667M10.667 96v5.333H16l2.667-2.666v-5.334h-5.334z" stroke-width="2"/><path fill="#ddd7ff" stroke="#7854ab" d="M10.667 96H16v5.333M16 96l2.667-2.667" stroke-width="2"/><path fill="#ddd7ff" stroke="#7854ab" d="M10.667 90.667V96H16l2.667-2.667V88h-5.334z" stroke-width="2"/><path fill="#ddd7ff" stroke="#7854ab" d="M10.667 90.667H16V96M16 90.667L18.667 88" stroke-width="2"/><path fill="#ddd7ff" stroke="#7854ab" d="M10.667 85.333v5.334H16L18.667 88v-5.333h-5.334z" stroke-width="2"/><path fill="#ddd7ff" stroke="#7854ab" d="M10.667 85.333H16v5.334M16 85.333l2.667-2.666" stroke-width="2"/><path fill="#ddd7ff" stroke="#7854ab" d="M10.667 80v5.333H16l2.667-2.666v-5.334h-5.334z" stroke-width="2"/><path fill="#ddd7ff" stroke="#7854ab" d="M10.667 80H16v5.333M16 80l2.667-2.667" stroke-width="2"/><path fill="#ddd7ff" stroke="#7854ab" d="M10.667 74.667V80H16l2.667-2.667V72h-5.334z" stroke-width="2"/><path fill="#ddd7ff" stroke="#7854ab" d="M10.667 74.667H16V80M16 74.667L18.667 72" stroke-width="2"/><path fill="#ddd7ff" stroke="#7854ab" d="M10.667 69.333v5.334H16L18.667 72v-5.333h-5.334z" stroke-width="2"/><path fill="#ddd7ff" stroke="#7854ab" d="M10.667 69.333H16v5.334M16 69.333l2.667-2.666" stroke-width="2"/><path fill="#ddd7ff" stroke="#7854ab" d="M10.667 64v5.333H16l2.667-2.666v-5.334h-5.334z" stroke-width="2"/><path fill="#ddd7ff" stroke="#7854ab" d="M10.667 64H16v5.333M16 64l2.667-2.667" stroke-width="2"/><path fill="#ddd7ff" stroke="#7854ab" d="M10.667 58.667V64H16l2.667-2.667V56h-5.334z" stroke-width="2"/><path fill="#ddd7ff" stroke="#7854ab" d="M10.667 58.667H16V64M16 58.667L18.667 56" stroke-width="2"/><path fill="#ddd7ff" stroke="#7854ab" d="M10.667 53.333v5.334H16L18.667 56v-5.333h-5.334z" stroke-width="2"/><path fill="#ddd7ff" stroke="#7854ab" d="M10.667 53.333H16v5.334M16 53.333l2.667-2.666" stroke-width="2"/><path fill="#ddd7ff" stroke="#7854ab" d="M10.667 48v5.333H16l2.667-2.666v-5.334h-5.334z" stroke-width="2"/><path fill="#ddd7ff" stroke="#7854ab" d="M10.667 48H16v5.333M16 48l2.667-2.667M16 96v5.333h5.333L24 98.667v-5.334h-5.333z" stroke-width="2"/><path fill="#ddd7ff" stroke="#7854ab" d="M16 96h5.333v5.333M21.333 96L24 93.333" stroke-width="2"/><path fill="#ddd7ff" stroke="#7854ab" d="M16 90.667V96h5.333L24 93.333V88h-5.333z" stroke-width="2"/><path fill="#ddd7ff" stroke="#7854ab" d="M16 90.667h5.333V96M21.333 90.667L24 88" stroke-width="2"/><path fill="#ddd7ff" stroke="#7854ab" d="M16 85.333v5.334h5.333L24 88v-5.333h-5.333z" stroke-width="2"/><path fill="#ddd7ff" stroke="#7854ab" d="M16 85.333h5.333v5.334M21.333 85.333L24 82.667" stroke-width="2"/><path fill="#ddd7ff" stroke="#7854ab" d="M16 80v5.333h5.333L24 82.667v-5.334h-5.333z" stroke-width="2"/><path fill="#ddd7ff" stroke="#7854ab" d="M16 80h5.333v5.333M21.333 80L24 77.333" stroke-width="2"/><path fill="#ddd7ff" stroke="#7854ab" d="M16 74.667V80h5.333L24 77.333V72h-5.333z" stroke-width="2"/><path fill="#ddd7ff" stroke="#7854ab" d="M16 74.667h5.333V80M21.333 74.667L24 72" stroke-width="2"/><path fill="#ddd7ff" stroke="#7854ab" d="M16 69.333v5.334h5.333L24 72v-5.333h-5.333z" stroke-width="2"/><path fill="#ddd7ff" stroke="#7854ab" d="M16 69.333h5.333v5.334M21.333 69.333L24 66.667" stroke-width="2"/><path fill="#ddd7ff" stroke="#7854ab" d="M16 64v5.333h5.333L24 66.667v-5.334h-5.333z" stroke-width="2"/><path fill="#ddd7ff" stroke="#7854ab" d="M16 64h5.333v5.333M21.333 64L24 61.333" stroke-width="2"/><path fill="#ddd7ff" stroke="#7854ab" d="M16 58.667V64h5.333L24 61.333V56h-5.333z" stroke-width="2"/><path fill="#ddd7ff" stroke="#7854ab" d="M16 58.667h5.333V64M21.333 58.667L24 56" stroke-width="2"/><path fill="#ddd7ff" stroke="#7854ab" d="M16 53.333v5.334h5.333L24 56v-5.333h-5.333z" stroke-width="2"/><path fill="#ddd7ff" stroke="#7854ab" d="M16 53.333h5.333v5.334M21.333 53.333L24 50.667" stroke-width="2"/><path fill="#ddd7ff" stroke="#7854ab" d="M16 48v5.333h5.333L24 50.667v-5.334h-5.333z" stroke-width="2"/><path fill="#ddd7ff" stroke="#7854ab" d="M16 48h5.333v5.333M21.333 48L24 45.333M21.333 96v5.333h5.334l2.666-2.666v-5.334H24z" stroke-width="2"/><path fill="#ddd7ff" stroke="#7854ab" d="M21.333 96h5.334v5.333M26.667 96l2.666-2.667" stroke-width="2"/><path fill="#ddd7ff" stroke="#7854ab" d="M21.333 90.667V96h5.334l2.666-2.667V88H24z" stroke-width="2"/><path fill="#ddd7ff" stroke="#7854ab" d="M21.333 90.667h5.334V96M26.667 90.667L29.333 88" stroke-width="2"/><path fill="#ddd7ff" stroke="#7854ab" d="M21.333 85.333v5.334h5.334L29.333 88v-5.333H24z" stroke-width="2"/><path fill="#ddd7ff" stroke="#7854ab" d="M21.333 85.333h5.334v5.334M26.667 85.333l2.666-2.666" stroke-width="2"/><path fill="#ddd7ff" stroke="#7854ab" d="M21.333 80v5.333h5.334l2.666-2.666v-5.334H24z" stroke-width="2"/><path fill="#ddd7ff" stroke="#7854ab" d="M21.333 80h5.334v5.333M26.667 80l2.666-2.667" stroke-width="2"/><path fill="#ddd7ff" stroke="#7854ab" d="M21.333 74.667V80h5.334l2.666-2.667V72H24z" stroke-width="2"/><path fill="#ddd7ff" stroke="#7854ab" d="M21.333 74.667h5.334V80M26.667 74.667L29.333 72" stroke-width="2"/><path fill="#ddd7ff" stroke="#7854ab" d="M21.333 69.333v5.334h5.334L29.333 72v-5.333H24z" stroke-width="2"/><path fill="#ddd7ff" stroke="#7854ab" d="M21.333 69.333h5.334v5.334M26.667 69.333l2.666-2.666" stroke-width="2"/><path fill="#ddd7ff" stroke="#7854ab" d="M21.333 64v5.333h5.334l2.666-2.666v-5.334H24z" stroke-width="2"/><path fill="#ddd7ff" stroke="#7854ab" d="M21.333 64h5.334v5.333M26.667 64l2.666-2.667" stroke-width="2"/><path fill="#ddd7ff" stroke="#7854ab" d="M21.333 58.667V64h5.334l2.666-2.667V56H24z" stroke-width="2"/><path fill="#ddd7ff" stroke="#7854ab" d="M21.333 58.667h5.334V64M26.667 58.667L29.333 56" stroke-width="2"/><path fill="#ddd7ff" stroke="#7854ab" d="M21.333 53.333v5.334h5.334L29.333 56v-5.333H24z" stroke-width="2"/><path fill="#ddd7ff" stroke="#7854ab" d="M21.333 53.333h5.334v5.334M26.667 53.333l2.666-2.666" stroke-width="2"/><path fill="#ddd7ff" stroke="#7854ab" d="M21.333 48v5.333h5.334l2.666-2.666v-5.334H24z" stroke-width="2"/><path fill="#ddd7ff" stroke="#7854ab" d="M21.333 48h5.334v5.333M26.667 48l2.666-2.667M26.667 96v5.333H32l2.667-2.666v-5.334h-5.334z" stroke-width="2"/><path fill="#ddd7ff" stroke="#7854ab" d="M26.667 96H32v5.333M32 96l2.667-2.667" stroke-width="2"/><path fill="#ddd7ff" stroke="#7854ab" d="M26.667 90.667V96H32l2.667-2.667V88h-5.334z" stroke-width="2"/><path fill="#ddd7ff" stroke="#7854ab" d="M26.667 90.667H32V96M32 90.667L34.667 88" stroke-width="2"/><path fill="#ddd7ff" stroke="#7854ab" d="M26.667 85.333v5.334H32L34.667 88v-5.333h-5.334z" stroke-width="2"/><path fill="#ddd7ff" stroke="#7854ab" d="M26.667 85.333H32v5.334M32 85.333l2.667-2.666" stroke-width="2"/><path fill="#ddd7ff" stroke="#7854ab" d="M26.667 80v5.333H32l2.667-2.666v-5.334h-5.334z" stroke-width="2"/><path fill="#ddd7ff" stroke="#7854ab" d="M26.667 80H32v5.333M32 80l2.667-2.667" stroke-width="2"/><path fill="#ddd7ff" stroke="#7854ab" d="M26.667 74.667V80H32l2.667-2.667V72h-5.334z" stroke-width="2"/><path fill="#ddd7ff" stroke="#7854ab" d="M26.667 74.667H32V80M32 74.667L34.667 72" stroke-width="2"/><path fill="#ddd7ff" stroke="#7854ab" d="M26.667 69.333v5.334H32L34.667 72v-5.333h-5.334z" stroke-width="2"/><path fill="#ddd7ff" stroke="#7854ab" d="M26.667 69.333H32v5.334M32 69.333l2.667-2.666" stroke-width="2"/><path fill="#ddd7ff" stroke="#7854ab" d="M26.667 64v5.333H32l2.667-2.666v-5.334h-5.334z" stroke-width="2"/><path fill="#ddd7ff" stroke="#7854ab" d="M26.667 64H32v5.333M32 64l2.667-2.667" stroke-width="2"/><path fill="#ddd7ff" stroke="#7854ab" d="M26.667 58.667V64H32l2.667-2.667V56h-5.334z" stroke-width="2"/><path fill="#ddd7ff" stroke="#7854ab" d="M26.667 58.667H32V64M32 58.667L34.667 56" stroke-width="2"/><path fill="#ddd7ff" stroke="#7854ab" d="M26.667 53.333v5.334H32L34.667 56v-5.333h-5.334z" stroke-width="2"/><path fill="#ddd7ff" stroke="#7854ab" d="M26.667 53.333H32v5.334M32 53.333l2.667-2.666" stroke-width="2"/><path fill="#ddd7ff" stroke="#7854ab" d="M26.667 48v5.333H32l2.667-2.666v-5.334h-5.334z" stroke-width="2"/><path fill="#ddd7ff" stroke="#7854ab" d="M26.667 48H32v5.333M32 48l2.667-2.667M32 96v5.333h5.333L40 98.667v-5.334h-5.333z" stroke-width="2"/><path fill="#ddd7ff" stroke="#7854ab" d="M32 96h5.333v5.333M37.333 96L40 93.333" stroke-width="2"/><path fill="#ddd7ff" stroke="#7854ab" d="M32 90.667V96h5.333L40 93.333V88h-5.333z" stroke-width="2"/><path fill="#ddd7ff" stroke="#7854ab" d="M32 90.667h5.333V96M37.333 90.667L40 88" stroke-width="2"/><path fill="#ddd7ff" stroke="#7854ab" d="M32 85.333v5.334h5.333L40 88v-5.333h-5.333z" stroke-width="2"/><path fill="#ddd7ff" stroke="#7854ab" d="M32 85.333h5.333v5.334M37.333 85.333L40 82.667" stroke-width="2"/><path fill="#ddd7ff" stroke="#7854ab" d="M32 80v5.333h5.333L40 82.667v-5.334h-5.333z" stroke-width="2"/><path fill="#ddd7ff" stroke="#7854ab" d="M32 80h5.333v5.333M37.333 80L40 77.333" stroke-width="2"/><path fill="#ddd7ff" stroke="#7854ab" d="M32 74.667V80h5.333L40 77.333V72h-5.333z" stroke-width="2"/><path fill="#ddd7ff" stroke="#7854ab" d="M32 74.667h5.333V80M37.333 74.667L40 72" stroke-width="2"/><path fill="#ddd7ff" stroke="#7854ab" d="M32 69.333v5.334h5.333L40 72v-5.333h-5.333z" stroke-width="2"/><path fill="#ddd7ff" stroke="#7854ab" d="M32 69.333h5.333v5.334M37.333 69.333L40 66.667" stroke-width="2"/><path fill="#ddd7ff" stroke="#7854ab" d="M32 64v5.333h5.333L40 66.667v-5.334h-5.333z" stroke-width="2"/><path fill="#ddd7ff" stroke="#7854ab" d="M32 64h5.333v5.333M37.333 64L40 61.333" stroke-width="2"/><path fill="#ddd7ff" stroke="#7854ab" d="M32 58.667V64h5.333L40 61.333V56h-5.333z" stroke-width="2"/><path fill="#ddd7ff" stroke="#7854ab" d="M32 58.667h5.333V64M37.333 58.667L40 56" stroke-width="2"/><path fill="#ddd7ff" stroke="#7854ab" d="M32 53.333v5.334h5.333L40 56v-5.333h-5.333z" stroke-width="2"/><path fill="#ddd7ff" stroke="#7854ab" d="M32 53.333h5.333v5.334M37.333 53.333L40 50.667" stroke-width="2"/><path fill="#ddd7ff" stroke="#7854ab" d="M32 48v5.333h5.333L40 50.667v-5.334h-5.333z" stroke-width="2"/><path fill="#ddd7ff" stroke="#7854ab" d="M32 48h5.333v5.333M37.333 48L40 45.333M37.333 96v5.333h5.334l2.666-2.666v-5.334H40z" stroke-width="2"/><path fill="#ddd7ff" stroke="#7854ab" d="M37.333 96h5.334v5.333M42.667 96l2.666-2.667" stroke-width="2"/><path fill="#ddd7ff" stroke="#7854ab" d="M37.333 90.667V96h5.334l2.666-2.667V88H40z" stroke-width="2"/><path fill="#ddd7ff" stroke="#7854ab" d="M37.333 90.667h5.334V96M42.667 90.667L45.333 88" stroke-width="2"/><path fill="#ddd7ff" stroke="#7854ab" d="M37.333 85.333v5.334h5.334L45.333 88v-5.333H40z" stroke-width="2"/><path fill="#ddd7ff" stroke="#7854ab" d="M37.333 85.333h5.334v5.334M42.667 85.333l2.666-2.666" stroke-width="2"/><path fill="#ddd7ff" stroke="#7854ab" d="M37.333 80v5.333h5.334l2.666-2.666v-5.334H40z" stroke-width="2"/><path fill="#ddd7ff" stroke="#7854ab" d="M37.333 80h5.334v5.333M42.667 80l2.666-2.667" stroke-width="2"/><path fill="#ddd7ff" stroke="#7854ab" d="M37.333 74.667V80h5.334l2.666-2.667V72H40z" stroke-width="2"/><path fill="#ddd7ff" stroke="#7854ab" d="M37.333 74.667h5.334V80M42.667 74.667L45.333 72" stroke-width="2"/><path fill="#ddd7ff" stroke="#7854ab" d="M37.333 69.333v5.334h5.334L45.333 72v-5.333H40z" stroke-width="2"/><path fill="#ddd7ff" stroke="#7854ab" d="M37.333 69.333h5.334v5.334M42.667 69.333l2.666-2.666" stroke-width="2"/><path fill="#ddd7ff" stroke="#7854ab" d="M37.333 64v5.333h5.334l2.666-2.666v-5.334H40z" stroke-width="2"/><path fill="#ddd7ff" stroke="#7854ab" d="M37.333 64h5.334v5.333M42.667 64l2.666-2.667" stroke-width="2"/><path fill="#ddd7ff" stroke="#7854ab" d="M37.333 58.667V64h5.334l2.666-2.667V56H40z" stroke-width="2"/><path fill="#ddd7ff" stroke="#7854ab" d="M37.333 58.667h5.334V64M42.667 58.667L45.333 56" stroke-width="2"/><path fill="#ddd7ff" stroke="#7854ab" d="M37.333 53.333v5.334h5.334L45.333 56v-5.333H40z" stroke-width="2"/><path fill="#ddd7ff" stroke="#7854ab" d="M37.333 53.333h5.334v5.334M42.667 53.333l2.666-2.666" stroke-width="2"/><path fill="#ddd7ff" stroke="#7854ab" d="M37.333 48v5.333h5.334l2.666-2.666v-5.334H40z" stroke-width="2"/><path fill="#ddd7ff" stroke="#7854ab" d="M37.333 48h5.334v5.333M42.667 48l2.666-2.667M42.667 96v5.333H48l2.667-2.666v-5.334h-5.334z" stroke-width="2"/><path fill="#ddd7ff" stroke="#7854ab" d="M42.667 96H48v5.333M48 96l2.667-2.667" stroke-width="2"/><path fill="#ddd7ff" stroke="#7854ab" d="M42.667 90.667V96H48l2.667-2.667V88h-5.334z" stroke-width="2"/><path fill="#ddd7ff" stroke="#7854ab" d="M42.667 90.667H48V96M48 90.667L50.667 88" stroke-width="2"/><path fill="#ddd7ff" stroke="#7854ab" d="M42.667 85.333v5.334H48L50.667 88v-5.333h-5.334z" stroke-width="2"/><path fill="#ddd7ff" stroke="#7854ab" d="M42.667 85.333H48v5.334M48 85.333l2.667-2.666" stroke-width="2"/><path fill="#ddd7ff" stroke="#7854ab" d="M42.667 80v5.333H48l2.667-2.666v-5.334h-5.334z" stroke-width="2"/><path fill="#ddd7ff" stroke="#7854ab" d="M42.667 80H48v5.333M48 80l2.667-2.667" stroke-width="2"/><path fill="#ddd7ff" stroke="#7854ab" d="M42.667 74.667V80H48l2.667-2.667V72h-5.334z" stroke-width="2"/><path fill="#ddd7ff" stroke="#7854ab" d="M42.667 74.667H48V80M48 74.667L50.667 72" stroke-width="2"/><path fill="#ddd7ff" stroke="#7854ab" d="M42.667 69.333v5.334H48L50.667 72v-5.333h-5.334z" stroke-width="2"/><path fill="#ddd7ff" stroke="#7854ab" d="M42.667 69.333H48v5.334M48 69.333l2.667-2.666" stroke-width="2"/><path fill="#ddd7ff" stroke="#7854ab" d="M42.667 64v5.333H48l2.667-2.666v-5.334h-5.334z" stroke-width="2"/><path fill="#ddd7ff" stroke="#7854ab" d="M42.667 64H48v5.333M48 64l2.667-2.667" stroke-width="2"/><path fill="#ddd7ff" stroke="#7854ab" d="M42.667 58.667V64H48l2.667-2.667V56h-5.334z" stroke-width="2"/><path fill="#ddd7ff" stroke="#7854ab" d="M42.667 58.667H48V64M48 58.667L50.667 56" stroke-width="2"/><path fill="#ddd7ff" stroke="#7854ab" d="M42.667 53.333v5.334H48L50.667 56v-5.333h-5.334z" stroke-width="2"/><path fill="#ddd7ff" stroke="#7854ab" d="M42.667 53.333H48v5.334M48 53.333l2.667-2.666" stroke-width="2"/><path fill="#ddd7ff" stroke="#7854ab" d="M42.667 48v5.333H48l2.667-2.666v-5.334h-5.334z" stroke-width="2"/><path fill="#ddd7ff" stroke="#7854ab" d="M42.667 48H48v5.333M48 48l2.667-2.667M48 96v5.333h5.333L56 98.667v-5.334h-5.333z" stroke-width="2"/><path fill="#ddd7ff" stroke="#7854ab" d="M48 96h5.333v5.333M53.333 96L56 93.333" stroke-width="2"/><path fill="#ddd7ff" stroke="#7854ab" d="M48 90.667V96h5.333L56 93.333V88h-5.333z" stroke-width="2"/><path fill="#ddd7ff" stroke="#7854ab" d="M48 90.667h5.333V96M53.333 90.667L56 88" stroke-width="2"/><path fill="#ddd7ff" stroke="#7854ab" d="M48 85.333v5.334h5.333L56 88v-5.333h-5.333z" stroke-width="2"/><path fill="#ddd7ff" stroke="#7854ab" d="M48 85.333h5.333v5.334M53.333 85.333L56 82.667" stroke-width="2"/><path fill="#ddd7ff" stroke="#7854ab" d="M48 80v5.333h5.333L56 82.667v-5.334h-5.333z" stroke-width="2"/><path fill="#ddd7ff" stroke="#7854ab" d="M48 80h5.333v5.333M53.333 80L56 77.333" stroke-width="2"/><path fill="#ddd7ff" stroke="#7854ab" d="M48 74.667V80h5.333L56 77.333V72h-5.333z" stroke-width="2"/><path fill="#ddd7ff" stroke="#7854ab" d="M48 74.667h5.333V80M53.333 74.667L56 72" stroke-width="2"/><path fill="#ddd7ff" stroke="#7854ab" d="M48 69.333v5.334h5.333L56 72v-5.333h-5.333z" stroke-width="2"/><path fill="#ddd7ff" stroke="#7854ab" d="M48 69.333h5.333v5.334M53.333 69.333L56 66.667" stroke-width="2"/><path fill="#ddd7ff" stroke="#7854ab" d="M48 64v5.333h5.333L56 66.667v-5.334h-5.333z" stroke-width="2"/><path fill="#ddd7ff" stroke="#7854ab" d="M48 64h5.333v5.333M53.333 64L56 61.333" stroke-width="2"/><path fill="#ddd7ff" stroke="#7854ab" d="M48 58.667V64h5.333L56 61.333V56h-5.333z" stroke-width="2"/><path fill="#ddd7ff" stroke="#7854ab" d="M48 58.667h5.333V64M53.333 58.667L56 56" stroke-width="2"/><path fill="#ddd7ff" stroke="#7854ab" d="M48 53.333v5.334h5.333L56 56v-5.333h-5.333z" stroke-width="2"/><path fill="#ddd7ff" stroke="#7854ab" d="M48 53.333h5.333v5.334M53.333 53.333L56 50.667" stroke-width="2"/><path fill="#ddd7ff" stroke="#7854ab" d="M48 48v5.333h5.333L56 50.667v-5.334h-5.333z" stroke-width="2"/><path fill="#ddd7ff" stroke="#7854ab" d="M48 48h5.333v5.333M53.333 48L56 45.333M53.333 96v5.333h5.334l2.666-2.666v-5.334H56z" stroke-width="2"/><path fill="#ddd7ff" stroke="#7854ab" d="M53.333 96h5.334v5.333M58.667 96l2.666-2.667" stroke-width="2"/><path fill="#ddd7ff" stroke="#7854ab" d="M53.333 90.667V96h5.334l2.666-2.667V88H56z" stroke-width="2"/><path fill="#ddd7ff" stroke="#7854ab" d="M53.333 90.667h5.334V96M58.667 90.667L61.333 88" stroke-width="2"/><path fill="#ddd7ff" stroke="#7854ab" d="M53.333 85.333v5.334h5.334L61.333 88v-5.333H56z" stroke-width="2"/><path fill="#ddd7ff" stroke="#7854ab" d="M53.333 85.333h5.334v5.334M58.667 85.333l2.666-2.666" stroke-width="2"/><path fill="#ddd7ff" stroke="#7854ab" d="M53.333 80v5.333h5.334l2.666-2.666v-5.334H56z" stroke-width="2"/><path fill="#ddd7ff" stroke="#7854ab" d="M53.333 80h5.334v5.333M58.667 80l2.666-2.667" stroke-width="2"/><path fill="#ddd7ff" stroke="#7854ab" d="M53.333 74.667V80h5.334l2.666-2.667V72H56z" stroke-width="2"/><path fill="#ddd7ff" stroke="#7854ab" d="M53.333 74.667h5.334V80M58.667 74.667L61.333 72" stroke-width="2"/><path fill="#ddd7ff" stroke="#7854ab" d="M53.333 69.333v5.334h5.334L61.333 72v-5.333H56z" stroke-width="2"/><path fill="#ddd7ff" stroke="#7854ab" d="M53.333 69.333h5.334v5.334M58.667 69.333l2.666-2.666" stroke-width="2"/><path fill="#ddd7ff" stroke="#7854ab" d="M53.333 64v5.333h5.334l2.666-2.666v-5.334H56z" stroke-width="2"/><path fill="#ddd7ff" stroke="#7854ab" d="M53.333 64h5.334v5.333M58.667 64l2.666-2.667" stroke-width="2"/><path fill="#ddd7ff" stroke="#7854ab" d="M53.333 58.667V64h5.334l2.666-2.667V56H56z" stroke-width="2"/><path fill="#ddd7ff" stroke="#7854ab" d="M53.333 58.667h5.334V64M58.667 58.667L61.333 56" stroke-width="2"/><path fill="#ddd7ff" stroke="#7854ab" d="M53.333 53.333v5.334h5.334L61.333 56v-5.333H56z" stroke-width="2"/><path fill="#ddd7ff" stroke="#7854ab" d="M53.333 53.333h5.334v5.334M58.667 53.333l2.666-2.666" stroke-width="2"/><path fill="#ddd7ff" stroke="#7854ab" d="M53.333 48v5.333h5.334l2.666-2.666v-5.334H56z" stroke-width="2"/><path fill="#ddd7ff" stroke="#7854ab" d="M53.333 48h5.334v5.333M58.667 48l2.666-2.667" stroke-width="2"/><path fill="#ccfaff" stroke="#0c7f99" d="M202.667 96v5.333H208l2.667-2.666v-5.334h-5.334z" stroke-width="2"/><path fill="#ccfaff" stroke="#0c7f99" d="M202.667 96H208v5.333M208 96l2.667-2.667" stroke-width="2"/><path fill="#ccfaff" stroke="#0c7f99" d="M202.667 90.667V96H208l2.667-2.667V88h-5.334z" stroke-width="2"/><path fill="#ccfaff" stroke="#0c7f99" d="M202.667 90.667H208V96M208 90.667L210.667 88" stroke-width="2"/><path fill="#ccfaff" stroke="#0c7f99" d="M202.667 85.333v5.334H208L210.667 88v-5.333h-5.334z" stroke-width="2"/><path fill="#ccfaff" stroke="#0c7f99" d="M202.667 85.333H208v5.334M208 85.333l2.667-2.666" stroke-width="2"/><path fill="#ccfaff" stroke="#0c7f99" d="M202.667 80v5.333H208l2.667-2.666v-5.334h-5.334z" stroke-width="2"/><path fill="#ccfaff" stroke="#0c7f99" d="M202.667 80H208v5.333M208 80l2.667-2.667" stroke-width="2"/><path fill="#ccfaff" stroke="#0c7f99" d="M202.667 74.667V80H208l2.667-2.667V72h-5.334z" stroke-width="2"/><path fill="#ccfaff" stroke="#0c7f99" d="M202.667 74.667H208V80M208 74.667L210.667 72" stroke-width="2"/><path fill="#ccfaff" stroke="#0c7f99" d="M202.667 69.333v5.334H208L210.667 72v-5.333h-5.334z" stroke-width="2"/><path fill="#ccfaff" stroke="#0c7f99" d="M202.667 69.333H208v5.334M208 69.333l2.667-2.666" stroke-width="2"/><path fill="#ccfaff" stroke="#0c7f99" d="M202.667 64v5.333H208l2.667-2.666v-5.334h-5.334z" stroke-width="2"/><path fill="#ccfaff" stroke="#0c7f99" d="M202.667 64H208v5.333M208 64l2.667-2.667" stroke-width="2"/><path fill="#ccfaff" stroke="#0c7f99" d="M202.667 58.667V64H208l2.667-2.667V56h-5.334z" stroke-width="2"/><path fill="#ccfaff" stroke="#0c7f99" d="M202.667 58.667H208V64M208 58.667L210.667 56" stroke-width="2"/><path fill="#ccfaff" stroke="#0c7f99" d="M202.667 53.333v5.334H208L210.667 56v-5.333h-5.334z" stroke-width="2"/><path fill="#ccfaff" stroke="#0c7f99" d="M202.667 53.333H208v5.334M208 53.333l2.667-2.666" stroke-width="2"/><path fill="#ccfaff" stroke="#0c7f99" d="M202.667 48v5.333H208l2.667-2.666v-5.334h-5.334z" stroke-width="2"/><path fill="#ccfaff" stroke="#0c7f99" d="M202.667 48H208v5.333M208 48l2.667-2.667M215.467 96v5.333h5.333l2.667-2.666v-5.334h-5.334z" stroke-width="2"/><path fill="#ccfaff" stroke="#0c7f99" d="M215.467 96h5.333v5.333M220.8 96l2.667-2.667" stroke-width="2"/><path fill="#ccfaff" stroke="#0c7f99" d="M215.467 90.667V96h5.333l2.667-2.667V88h-5.334z" stroke-width="2"/><path fill="#ccfaff" stroke="#0c7f99" d="M215.467 90.667h5.333V96M220.8 90.667L223.467 88" stroke-width="2"/><path fill="#ccfaff" stroke="#0c7f99" d="M215.467 85.333v5.334h5.333L223.467 88v-5.333h-5.334z" stroke-width="2"/><path fill="#ccfaff" stroke="#0c7f99" d="M215.467 85.333h5.333v5.334M220.8 85.333l2.667-2.666" stroke-width="2"/><path fill="#ccfaff" stroke="#0c7f99" d="M215.467 80v5.333h5.333l2.667-2.666v-5.334h-5.334z" stroke-width="2"/><path fill="#ccfaff" stroke="#0c7f99" d="M215.467 80h5.333v5.333M220.8 80l2.667-2.667" stroke-width="2"/><path fill="#ccfaff" stroke="#0c7f99" d="M215.467 74.667V80h5.333l2.667-2.667V72h-5.334z" stroke-width="2"/><path fill="#ccfaff" stroke="#0c7f99" d="M215.467 74.667h5.333V80M220.8 74.667L223.467 72" stroke-width="2"/><path fill="#ccfaff" stroke="#0c7f99" d="M215.467 69.333v5.334h5.333L223.467 72v-5.333h-5.334z" stroke-width="2"/><path fill="#ccfaff" stroke="#0c7f99" d="M215.467 69.333h5.333v5.334M220.8 69.333l2.667-2.666" stroke-width="2"/><path fill="#ccfaff" stroke="#0c7f99" d="M215.467 64v5.333h5.333l2.667-2.666v-5.334h-5.334z" stroke-width="2"/><path fill="#ccfaff" stroke="#0c7f99" d="M215.467 64h5.333v5.333M220.8 64l2.667-2.667" stroke-width="2"/><path fill="#ccfaff" stroke="#0c7f99" d="M215.467 58.667V64h5.333l2.667-2.667V56h-5.334z" stroke-width="2"/><path fill="#ccfaff" stroke="#0c7f99" d="M215.467 58.667h5.333V64M220.8 58.667L223.467 56" stroke-width="2"/><path fill="#ccfaff" stroke="#0c7f99" d="M215.467 53.333v5.334h5.333L223.467 56v-5.333h-5.334z" stroke-width="2"/><path fill="#ccfaff" stroke="#0c7f99" d="M215.467 53.333h5.333v5.334M220.8 53.333l2.667-2.666" stroke-width="2"/><path fill="#ccfaff" stroke="#0c7f99" d="M215.467 48v5.333h5.333l2.667-2.666v-5.334h-5.334z" stroke-width="2"/><path fill="#ccfaff" stroke="#0c7f99" d="M215.467 48h5.333v5.333M220.8 48l2.667-2.667M228.267 96v5.333h5.333l2.667-2.666v-5.334h-5.334z" stroke-width="2"/><path fill="#ccfaff" stroke="#0c7f99" d="M228.267 96h5.333v5.333M233.6 96l2.667-2.667" stroke-width="2"/><path fill="#ccfaff" stroke="#0c7f99" d="M228.267 90.667V96h5.333l2.667-2.667V88h-5.334z" stroke-width="2"/><path fill="#ccfaff" stroke="#0c7f99" d="M228.267 90.667h5.333V96M233.6 90.667L236.267 88" stroke-width="2"/><path fill="#ccfaff" stroke="#0c7f99" d="M228.267 85.333v5.334h5.333L236.267 88v-5.333h-5.334z" stroke-width="2"/><path fill="#ccfaff" stroke="#0c7f99" d="M228.267 85.333h5.333v5.334M233.6 85.333l2.667-2.666" stroke-width="2"/><path fill="#ccfaff" stroke="#0c7f99" d="M228.267 80v5.333h5.333l2.667-2.666v-5.334h-5.334z" stroke-width="2"/><path fill="#ccfaff" stroke="#0c7f99" d="M228.267 80h5.333v5.333M233.6 80l2.667-2.667" stroke-width="2"/><path fill="#ccfaff" stroke="#0c7f99" d="M228.267 74.667V80h5.333l2.667-2.667V72h-5.334z" stroke-width="2"/><path fill="#ccfaff" stroke="#0c7f99" d="M228.267 74.667h5.333V80M233.6 74.667L236.267 72" stroke-width="2"/><path fill="#ccfaff" stroke="#0c7f99" d="M228.267 69.333v5.334h5.333L236.267 72v-5.333h-5.334z" stroke-width="2"/><path fill="#ccfaff" stroke="#0c7f99" d="M228.267 69.333h5.333v5.334M233.6 69.333l2.667-2.666" stroke-width="2"/><path fill="#ccfaff" stroke="#0c7f99" d="M228.267 64v5.333h5.333l2.667-2.666v-5.334h-5.334z" stroke-width="2"/><path fill="#ccfaff" stroke="#0c7f99" d="M228.267 64h5.333v5.333M233.6 64l2.667-2.667" stroke-width="2"/><path fill="#ccfaff" stroke="#0c7f99" d="M228.267 58.667V64h5.333l2.667-2.667V56h-5.334z" stroke-width="2"/><path fill="#ccfaff" stroke="#0c7f99" d="M228.267 58.667h5.333V64M233.6 58.667L236.267 56" stroke-width="2"/><path fill="#ccfaff" stroke="#0c7f99" d="M228.267 53.333v5.334h5.333L236.267 56v-5.333h-5.334z" stroke-width="2"/><path fill="#ccfaff" stroke="#0c7f99" d="M228.267 53.333h5.333v5.334M233.6 53.333l2.667-2.666" stroke-width="2"/><path fill="#ccfaff" stroke="#0c7f99" d="M228.267 48v5.333h5.333l2.667-2.666v-5.334h-5.334z" stroke-width="2"/><path fill="#ccfaff" stroke="#0c7f99" d="M228.267 48h5.333v5.333M233.6 48l2.667-2.667M241.067 96v5.333h5.333l2.667-2.666v-5.334h-5.334z" stroke-width="2"/><path fill="#ccfaff" stroke="#0c7f99" d="M241.067 96h5.333v5.333M246.4 96l2.667-2.667" stroke-width="2"/><path fill="#ccfaff" stroke="#0c7f99" d="M241.067 90.667V96h5.333l2.667-2.667V88h-5.334z" stroke-width="2"/><path fill="#ccfaff" stroke="#0c7f99" d="M241.067 90.667h5.333V96M246.4 90.667L249.067 88" stroke-width="2"/><path fill="#ccfaff" stroke="#0c7f99" d="M241.067 85.333v5.334h5.333L249.067 88v-5.333h-5.334z" stroke-width="2"/><path fill="#ccfaff" stroke="#0c7f99" d="M241.067 85.333h5.333v5.334M246.4 85.333l2.667-2.666" stroke-width="2"/><path fill="#ccfaff" stroke="#0c7f99" d="M241.067 80v5.333h5.333l2.667-2.666v-5.334h-5.334z" stroke-width="2"/><path fill="#ccfaff" stroke="#0c7f99" d="M241.067 80h5.333v5.333M246.4 80l2.667-2.667" stroke-width="2"/><path fill="#ccfaff" stroke="#0c7f99" d="M241.067 74.667V80h5.333l2.667-2.667V72h-5.334z" stroke-width="2"/><path fill="#ccfaff" stroke="#0c7f99" d="M241.067 74.667h5.333V80M246.4 74.667L249.067 72" stroke-width="2"/><path fill="#ccfaff" stroke="#0c7f99" d="M241.067 69.333v5.334h5.333L249.067 72v-5.333h-5.334z" stroke-width="2"/><path fill="#ccfaff" stroke="#0c7f99" d="M241.067 69.333h5.333v5.334M246.4 69.333l2.667-2.666" stroke-width="2"/><path fill="#ccfaff" stroke="#0c7f99" d="M241.067 64v5.333h5.333l2.667-2.666v-5.334h-5.334z" stroke-width="2"/><path fill="#ccfaff" stroke="#0c7f99" d="M241.067 64h5.333v5.333M246.4 64l2.667-2.667" stroke-width="2"/><path fill="#ccfaff" stroke="#0c7f99" d="M241.067 58.667V64h5.333l2.667-2.667V56h-5.334z" stroke-width="2"/><path fill="#ccfaff" stroke="#0c7f99" d="M241.067 58.667h5.333V64M246.4 58.667L249.067 56" stroke-width="2"/><path fill="#ccfaff" stroke="#0c7f99" d="M241.067 53.333v5.334h5.333L249.067 56v-5.333h-5.334z" stroke-width="2"/><path fill="#ccfaff" stroke="#0c7f99" d="M241.067 53.333h5.333v5.334M246.4 53.333l2.667-2.666" stroke-width="2"/><path fill="#ccfaff" stroke="#0c7f99" d="M241.067 48v5.333h5.333l2.667-2.666v-5.334h-5.334z" stroke-width="2"/><path fill="#ccfaff" stroke="#0c7f99" d="M241.067 48h5.333v5.333M246.4 48l2.667-2.667M253.867 96v5.333h5.333l2.667-2.666v-5.334h-5.334z" stroke-width="2"/><path fill="#ccfaff" stroke="#0c7f99" d="M253.867 96h5.333v5.333M259.2 96l2.667-2.667" stroke-width="2"/><path fill="#ccfaff" stroke="#0c7f99" d="M253.867 90.667V96h5.333l2.667-2.667V88h-5.334z" stroke-width="2"/><path fill="#ccfaff" stroke="#0c7f99" d="M253.867 90.667h5.333V96M259.2 90.667L261.867 88" stroke-width="2"/><path fill="#ccfaff" stroke="#0c7f99" d="M253.867 85.333v5.334h5.333L261.867 88v-5.333h-5.334z" stroke-width="2"/><path fill="#ccfaff" stroke="#0c7f99" d="M253.867 85.333h5.333v5.334M259.2 85.333l2.667-2.666" stroke-width="2"/><path fill="#ccfaff" stroke="#0c7f99" d="M253.867 80v5.333h5.333l2.667-2.666v-5.334h-5.334z" stroke-width="2"/><path fill="#ccfaff" stroke="#0c7f99" d="M253.867 80h5.333v5.333M259.2 80l2.667-2.667" stroke-width="2"/><path fill="#ccfaff" stroke="#0c7f99" d="M253.867 74.667V80h5.333l2.667-2.667V72h-5.334z" stroke-width="2"/><path fill="#ccfaff" stroke="#0c7f99" d="M253.867 74.667h5.333V80M259.2 74.667L261.867 72" stroke-width="2"/><path fill="#ccfaff" stroke="#0c7f99" d="M253.867 69.333v5.334h5.333L261.867 72v-5.333h-5.334z" stroke-width="2"/><path fill="#ccfaff" stroke="#0c7f99" d="M253.867 69.333h5.333v5.334M259.2 69.333l2.667-2.666" stroke-width="2"/><path fill="#ccfaff" stroke="#0c7f99" d="M253.867 64v5.333h5.333l2.667-2.666v-5.334h-5.334z" stroke-width="2"/><path fill="#ccfaff" stroke="#0c7f99" d="M253.867 64h5.333v5.333M259.2 64l2.667-2.667" stroke-width="2"/><path fill="#ccfaff" stroke="#0c7f99" d="M253.867 58.667V64h5.333l2.667-2.667V56h-5.334z" stroke-width="2"/><path fill="#ccfaff" stroke="#0c7f99" d="M253.867 58.667h5.333V64M259.2 58.667L261.867 56" stroke-width="2"/><path fill="#ccfaff" stroke="#0c7f99" d="M253.867 53.333v5.334h5.333L261.867 56v-5.333h-5.334z" stroke-width="2"/><path fill="#ccfaff" stroke="#0c7f99" d="M253.867 53.333h5.333v5.334M259.2 53.333l2.667-2.666" stroke-width="2"/><path fill="#ccfaff" stroke="#0c7f99" d="M253.867 48v5.333h5.333l2.667-2.666v-5.334h-5.334z" stroke-width="2"/><path fill="#ccfaff" stroke="#0c7f99" d="M253.867 48h5.333v5.333M259.2 48l2.667-2.667" stroke-width="2"/><path fill="#ffbde0" stroke="#ca337c" d="M253.867 160v5.333h5.333l2.667-2.666v-5.334h-5.334z" stroke-width="2"/><path fill="#ffbde0" stroke="#ca337c" d="M253.867 160h5.333v5.333M259.2 160l2.667-2.667" stroke-width="2"/><path fill="#ffbde0" stroke="#ca337c" d="M253.867 154.667V160h5.333l2.667-2.667V152h-5.334z" stroke-width="2"/><path fill="#ffbde0" stroke="#ca337c" d="M253.867 154.667h5.333V160M259.2 154.667l2.667-2.667" stroke-width="2"/><path fill="#ffbde0" stroke="#ca337c" d="M253.867 149.333v5.334h5.333l2.667-2.667v-5.333h-5.334z" stroke-width="2"/><path fill="#ffbde0" stroke="#ca337c" d="M253.867 149.333h5.333v5.334M259.2 149.333l2.667-2.666" stroke-width="2"/><path fill="#ffbde0" stroke="#ca337c" d="M253.867 144v5.333h5.333l2.667-2.666v-5.334h-5.334z" stroke-width="2"/><path fill="#ffbde0" stroke="#ca337c" d="M253.867 144h5.333v5.333M259.2 144l2.667-2.667" stroke-width="2"/><path fill="#ffbde0" stroke="#ca337c" d="M253.867 138.667V144h5.333l2.667-2.667V136h-5.334z" stroke-width="2"/><path fill="#ffbde0" stroke="#ca337c" d="M253.867 138.667h5.333V144M259.2 138.667l2.667-2.667" stroke-width="2"/><path fill="#ffbde0" stroke="#ca337c" d="M253.867 133.333v5.334h5.333l2.667-2.667v-5.333h-5.334z" stroke-width="2"/><path fill="#ffbde0" stroke="#ca337c" d="M253.867 133.333h5.333v5.334M259.2 133.333l2.667-2.666" stroke-width="2"/><path fill="#ffbde0" stroke="#ca337c" d="M253.867 128v5.333h5.333l2.667-2.666v-5.334h-5.334z" stroke-width="2"/><path fill="#ffbde0" stroke="#ca337c" d="M253.867 128h5.333v5.333M259.2 128l2.667-2.667" stroke-width="2"/><path fill="#ffbde0" stroke="#ca337c" d="M253.867 122.667V128h5.333l2.667-2.667V120h-5.334z" stroke-width="2"/><path fill="#ffbde0" stroke="#ca337c" d="M253.867 122.667h5.333V128M259.2 122.667l2.667-2.667" stroke-width="2"/><path fill="#ffbde0" stroke="#ca337c" d="M253.867 117.333v5.334h5.333l2.667-2.667v-5.333h-5.334z" stroke-width="2"/><path fill="#ffbde0" stroke="#ca337c" d="M253.867 117.333h5.333v5.334M259.2 117.333l2.667-2.666" stroke-width="2"/><path fill="#ffbde0" stroke="#ca337c" d="M253.867 112v5.333h5.333l2.667-2.666v-5.334h-5.334z" stroke-width="2"/><path fill="#ffbde0" stroke="#ca337c" d="M253.867 112h5.333v5.333M259.2 112l2.667-2.667M374.4 48v5.333h5.333l2.667-2.666v-5.334h-5.333z" stroke-width="2"/><path fill="#ffbde0" stroke="#ca337c" d="M374.4 48h5.333v5.333M379.733 48l2.667-2.667M387.2 48v5.333h5.333l2.667-2.666v-5.334h-5.333z" stroke-width="2"/><path fill="#ffbde0" stroke="#ca337c" d="M387.2 48h5.333v5.333M392.533 48l2.667-2.667M272 60.533v5.334h5.333L280 63.2v-5.333h-5.333z" stroke-width="2"/><path fill="#ffbde0" stroke="#ca337c" d="M272 60.533h5.333v5.334M277.333 60.533L280 57.867" stroke-width="2"/><path fill="#ffbde0" stroke="#000" d="M269.333 57.867L280 68.533" stroke-width="2"/><path fill="#ffbde0" stroke="#ca337c" d="M284.8 60.533v5.334h5.333L292.8 63.2v-5.333h-5.333z" stroke-width="2"/><path fill="#ffbde0" stroke="#ca337c" d="M284.8 60.533h5.333v5.334M290.133 60.533l2.667-2.666" stroke-width="2"/><path fill="#ffbde0" stroke="#000" d="M282.133 57.867L292.8 68.533" stroke-width="2"/><path fill="#ffbde0" stroke="#ca337c" d="M297.6 60.533v5.334h5.333L305.6 63.2v-5.333h-5.333z" stroke-width="2"/><path fill="#ffbde0" stroke="#ca337c" d="M297.6 60.533h5.333v5.334M302.933 60.533l2.667-2.666" stroke-width="2"/><path fill="#ffbde0" stroke="#000" d="M294.933 57.867L305.6 68.533" stroke-width="2"/><path fill="#ffbde0" stroke="#ca337c" d="M310.4 60.533v5.334h5.333L318.4 63.2v-5.333h-5.333z" stroke-width="2"/><path fill="#ffbde0" stroke="#ca337c" d="M310.4 60.533h5.333v5.334M315.733 60.533l2.667-2.666" stroke-width="2"/><path fill="#ffbde0" stroke="#000" d="M307.733 57.867L318.4 68.533" stroke-width="2"/><path fill="#ffbde0" stroke="#ca337c" d="M323.2 60.533v5.334h5.333L331.2 63.2v-5.333h-5.333z" stroke-width="2"/><path fill="#ffbde0" stroke="#ca337c" d="M323.2 60.533h5.333v5.334M328.533 60.533l2.667-2.666" stroke-width="2"/><path fill="#ffbde0" stroke="#000" d="M320.533 57.867L331.2 68.533" stroke-width="2"/><path fill="#ffbde0" stroke="#ca337c" d="M336 60.533v5.334h5.333L344 63.2v-5.333h-5.333z" stroke-width="2"/><path fill="#ffbde0" stroke="#ca337c" d="M336 60.533h5.333v5.334M341.333 60.533L344 57.867" stroke-width="2"/><path fill="#ffbde0" stroke="#000" d="M333.333 57.867L344 68.533" stroke-width="2"/><path fill="#ffbde0" stroke="#ca337c" d="M348.8 60.533v5.334h5.333L356.8 63.2v-5.333h-5.333z" stroke-width="2"/><path fill="#ffbde0" stroke="#ca337c" d="M348.8 60.533h5.333v5.334M354.133 60.533l2.667-2.666" stroke-width="2"/><path fill="#ffbde0" stroke="#000" d="M346.133 57.867L356.8 68.533" stroke-width="2"/><path fill="#ffbde0" stroke="#ca337c" d="M361.6 60.533v5.334h5.333L369.6 63.2v-5.333h-5.333z" stroke-width="2"/><path fill="#ffbde0" stroke="#ca337c" d="M361.6 60.533h5.333v5.334M366.933 60.533l2.667-2.666" stroke-width="2"/><path fill="#ffbde0" stroke="#000" d="M358.933 57.867L369.6 68.533" stroke-width="2"/><path fill="#ffbde0" stroke="#ca337c" d="M374.4 60.533v5.334h5.333L382.4 63.2v-5.333h-5.333z" stroke-width="2"/><path fill="#ffbde0" stroke="#ca337c" d="M374.4 60.533h5.333v5.334M379.733 60.533l2.667-2.666" stroke-width="2"/><path fill="#ffbde0" stroke="#000" d="M371.733 57.867L382.4 68.533" stroke-width="2"/><path fill="#ffbde0" stroke="#ca337c" d="M387.2 60.533v5.334h5.333L395.2 63.2v-5.333h-5.333z" stroke-width="2"/><path fill="#ffbde0" stroke="#ca337c" d="M387.2 60.533h5.333v5.334M392.533 60.533l2.667-2.666" stroke-width="2"/><path fill="#ffbde0" stroke="#000" d="M384.533 57.867L395.2 68.533" stroke-width="2"/><path d="M272 144a61.333 74.667 0 0 0 61.333-74.667H272z" fill="none"/><path stroke="#000" d="M272 144a61.333 74.667 0 0 0 61.333-74.667M272 144l4.508 9.668M272 144l4.508-9.668" stroke-width="3" stroke-dasharray="0" fill="none"/></svg>
