<svg xmlns="http://www.w3.org/2000/svg" width="400" height="112" viewBox="0 0 400 112"><path fill="none" stroke="#000" d="M133.333 0v112M266.667 0v112M0 37.333h400" stroke-width="2"/><path fill="#ddd7ff" stroke="#7854ab" d="M5.333 96v5.333h5.334l2.666-2.666v-5.334H8z" stroke-width="2"/><path fill="#ddd7ff" stroke="#7854ab" d="M5.333 96h5.334v5.333M10.667 96l2.666-2.667" stroke-width="2"/><path fill="#ddd7ff" stroke="#7854ab" d="M5.333 90.667V96h5.334l2.666-2.667V88H8z" stroke-width="2"/><path fill="#ddd7ff" stroke="#7854ab" d="M5.333 90.667h5.334V96M10.667 90.667L13.333 88" stroke-width="2"/><path fill="#ddd7ff" stroke="#7854ab" d="M5.333 85.333v5.334h5.334L13.333 88v-5.333H8z" stroke-width="2"/><path fill="#ddd7ff" stroke="#7854ab" d="M5.333 85.333h5.334v5.334M10.667 85.333l2.666-2.666" stroke-width="2"/><path fill="#ddd7ff" stroke="#7854ab" d="M5.333 80v5.333h5.334l2.666-2.666v-5.334H8z" stroke-width="2"/><path fill="#ddd7ff" stroke="#7854ab" d="M5.333 80h5.334v5.333M10.667 80l2.666-2.667" stroke-width="2"/><path fill="#ddd7ff" stroke="#7854ab" d="M5.333 74.667V80h5.334l2.666-2.667V72H8z" stroke-width="2"/><path fill="#ddd7ff" stroke="#7854ab" d="M5.333 74.667h5.334V80M10.667 74.667L13.333 72" stroke-width="2"/><path fill="#ddd7ff" stroke="#7854ab" d="M5.333 69.333v5.334h5.334L13.333 72v-5.333H8z" stroke-width="2"/><path fill="#ddd7ff" stroke="#7854ab" d="M5.333 69.333h5.334v5.334M10.667 69.333l2.666-2.666" stroke-width="2"/><path fill="#ddd7ff" stroke="#7854ab" d="M5.333 64v5.333h5.334l2.666-2.666v-5.334H8z" stroke-width="2"/><path fill="#ddd7ff" stroke="#7854ab" d="M5.333 64h5.334v5.333M10.667 64l2.666-2.667" stroke-width="2"/><path fill="#ddd7ff" stroke="#7854ab" d="M5.333 58.667V64h5.334l2.666-2.667V56H8z" stroke-width="2"/><path fill="#ddd7ff" stroke="#7854ab" d="M5.333 58.667h5.334V64M10.667 58.667L13.333 56" stroke-width="2"/><path fill="#ddd7ff" stroke="#7854ab" d="M5.333 53.333v5.334h5.334L13.333 56v-5.333H8z" stroke-width="2"/><path fill="#ddd7ff" stroke="#7854ab" d="M5.333 53.333h5.334v5.334M10.667 53.333l2.666-2.666" stroke-width="2"/><path fill="#ddd7ff" stroke="#7854ab" d="M5.333 48v5.333h5.334l2.666-2.666v-5.334H8z" stroke-width="2"/><path fill="#ddd7ff" stroke="#7854ab" d="M5.333 48h5.334v5.333M10.667 48l2.666-2.667M10.667 96v5.333H16l2.667-2.666v-5.334h-5.334z" stroke-width="2"/><path fill="#ddd7ff" stroke="#7854ab" d="M10.667 96H16v5.333M16 96l2.667-2.667" stroke-width="2"/><path fill="#ddd7ff" stroke="#7854ab" d="M10.667 90.667V96H16l2.667-2.667V88h-5.334z" stroke-width="2"/><path fill="#ddd7ff" stroke="#7854ab" d="M10.667 90.667H16V96M16 90.667L18.667 88" stroke-width="2"/><path fill="#ddd7ff" stroke="#7854ab" d="M10.667 85.333v5.334H16L18.667 88v-5.333h-5.334z" stroke-width="2"/><path fill="#ddd7ff" stroke="#7854ab" d="M10.667 85.333H16v5.334M16 85.333l2.667-2.666" stroke-width="2"/><path fill="#ddd7ff" stroke="#7854ab" d="M10.667 80v5.333H16l2.667-2.666v-5.334h-5.334z" stroke-width="2"/><path fill="#ddd7ff" stroke="#7854ab" d="M10.667 80H16v5.333M16 80l2.667-2.667" stroke-width="2"/><path fill="#ddd7ff" stroke="#7854ab" d="M10.667 74.667V80H16l2.667-2.667V72h-5.334z" stroke-width="2"/><path fill="#ddd7ff" stroke="#7854ab" d="M10.667 74.667H16V80M16 74.667L18.667 72" stroke-width="2"/><path fill="#ddd7ff" stroke="#7854ab" d="M10.667 69.333v5.334H16L18.667 72v-5.333h-5.334z" stroke-width="2"/><path fill="#ddd7ff" stroke="#7854ab" d="M10.667 69.333H16v5.334M16 69.333l2.667-2.666" stroke-width="2"/><path fill="#ddd7ff" stroke="#7854ab" d="M10.667 64v5.333H16l2.667-2.666v-5.334h-5.334z" stroke-width="2"/><path fill="#ddd7ff" stroke="#7854ab" d="M10.667 64H16v5.333M16 64l2.667-2.667" stroke-width="2"/><path fill="#ddd7ff" stroke="#7854ab" d="M10.667 58.667V64H16l2.667-2.667V56h-5.334z" stroke-width="2"/><path fill="#ddd7ff" stroke="#7854ab" d="M10.667 58.667H16V64M16 58.667L18.667 56" stroke-width="2"/><path fill="#ddd7ff" stroke="#7854ab" d="M10.667 53.333v5.334H16L18.667 56v-5.333h-5.334z" stroke-width="2"/><path fill="#ddd7ff" stroke="#7854ab" d="M10.667 53.333H16v5.334M16 53.333l2.667-2.666" stroke-width="2"/><path fill="#ddd7ff" stroke="#7854ab" d="M10.667 48v5.333H16l2.667-2.666v-5.334h-5.334z" stroke-width="2"/><path fill="#ddd7ff" stroke="#7854ab" d="M10.667 48H16v5.333M16 48l2.667-2.667M16 96v5.333h5.333L24 98.667v-5.334h-5.333z" stroke-width="2"/><path fill="#ddd7ff" stroke="#7854ab" d="M16 96h5.333v5.333M21.333 96L24 93.333" stroke-width="2"/><path fill="#ddd7ff" stroke="#7854ab" d="M16 90.667V96h5.333L24 93.333V88h-5.333z" stroke-width="2"/><path fill="#ddd7ff" stroke="#7854ab" d="M16 90.667h5.333V96M21.333 90.667L24 88" stroke-width="2"/><path fill="#ddd7ff" stroke="#7854ab" d="M16 85.333v5.334h5.333L24 88v-5.333h-5.333z" stroke-width="2"/><path fill="#ddd7ff" stroke="#7854ab" d="M16 85.333h5.333v5.334M21.333 85.333L24 82.667" stroke-width="2"/><path fill="#ddd7ff" stroke="#7854ab" d="M16 80v5.333h5.333L24 82.667v-5.334h-5.333z" stroke-width="2"/><path fill="#ddd7ff" stroke="#7854ab" d="M16 80h5.333v5.333M21.333 80L24 77.333" stroke-width="2"/><path fill="#ddd7ff" stroke="#7854ab" d="M16 74.667V80h5.333L24 77.333V72h-5.333z" stroke-width="2"/><path fill="#ddd7ff" stroke="#7854ab" d="M16 74.667h5.333V80M21.333 74.667L24 72" stroke-width="2"/><path fill="#ddd7ff" stroke="#7854ab" d="M16 69.333v5.334h5.333L24 72v-5.333h-5.333z" stroke-width="2"/><path fill="#ddd7ff" stroke="#7854ab" d="M16 69.333h5.333v5.334M21.333 69.333L24 66.667" stroke-width="2"/><path fill="#ddd7ff" stroke="#7854ab" d="M16 64v5.333h5.333L24 66.667v-5.334h-5.333z" stroke-width="2"/><path fill="#ddd7ff" stroke="#7854ab" d="M16 64h5.333v5.333M21.333 64L24 61.333" stroke-width="2"/><path fill="#ddd7ff" stroke="#7854ab" d="M16 58.667V64h5.333L24 61.333V56h-5.333z" stroke-width="2"/><path fill="#ddd7ff" stroke="#7854ab" d="M16 58.667h5.333V64M21.333 58.667L24 56" stroke-width="2"/><path fill="#ddd7ff" stroke="#7854ab" d="M16 53.333v5.334h5.333L24 56v-5.333h-5.333z" stroke-width="2"/><path fill="#ddd7ff" stroke="#7854ab" d="M16 53.333h5.333v5.334M21.333 53.333L24 50.667" stroke-width="2"/><path fill="#ddd7ff" stroke="#7854ab" d="M16 48v5.333h5.333L24 50.667v-5.334h-5.333z" stroke-width="2"/><path fill="#ddd7ff" stroke="#7854ab" d="M16 48h5.333v5.333M21.333 48L24 45.333M21.333 96v5.333h5.334l2.666-2.666v-5.334H24z" stroke-width="2"/><path fill="#ddd7ff" stroke="#7854ab" d="M21.333 96h5.334v5.333M26.667 96l2.666-2.667" stroke-width="2"/><path fill="#ddd7ff" stroke="#7854ab" d="M21.333 90.667V96h5.334l2.666-2.667V88H24z" stroke-width="2"/><path fill="#ddd7ff" stroke="#7854ab" d="M21.333 90.667h5.334V96M26.667 90.667L29.333 88" stroke-width="2"/><path fill="#ddd7ff" stroke="#7854ab" d="M21.333 85.333v5.334h5.334L29.333 88v-5.333H24z" stroke-width="2"/><path fill="#ddd7ff" stroke="#7854ab" d="M21.333 85.333h5.334v5.334M26.667 85.333l2.666-2.666" stroke-width="2"/><path fill="#ddd7ff" stroke="#7854ab" d="M21.333 80v5.333h5.334l2.666-2.666v-5.334H24z" stroke-width="2"/><path fill="#ddd7ff" stroke="#7854ab" d="M21.333 80h5.334v5.333M26.667 80l2.666-2.667" stroke-width="2"/><path fill="#ddd7ff" stroke="#7854ab" d="M21.333 74.667V80h5.334l2.666-2.667V72H24z" stroke-width="2"/><path fill="#ddd7ff" stroke="#7854ab" d="M21.333 74.667h5.334V80M26.667 74.667L29.333 72" stroke-width="2"/><path fill="#ddd7ff" stroke="#7854ab" d="M21.333 69.333v5.334h5.334L29.333 72v-5.333H24z" stroke-width="2"/><path fill="#ddd7ff" stroke="#7854ab" d="M21.333 69.333h5.334v5.334M26.667 69.333l2.666-2.666" stroke-width="2"/><path fill="#ddd7ff" stroke="#7854ab" d="M21.333 64v5.333h5.334l2.666-2.666v-5.334H24z" stroke-width="2"/><path fill="#ddd7ff" stroke="#7854ab" d="M21.333 64h5.334v5.333M26.667 64l2.666-2.667" stroke-width="2"/><path fill="#ddd7ff" stroke="#7854ab" d="M21.333 58.667V64h5.334l2.666-2.667V56H24z" stroke-width="2"/><path fill="#ddd7ff" stroke="#7854ab" d="M21.333 58.667h5.334V64M26.667 58.667L29.333 56" stroke-width="2"/><path fill="#ddd7ff" stroke="#7854ab" d="M21.333 53.333v5.334h5.334L29.333 56v-5.333H24z" stroke-width="2"/><path fill="#ddd7ff" stroke="#7854ab" d="M21.333 53.333h5.334v5.334M26.667 53.333l2.666-2.666" stroke-width="2"/><path fill="#ddd7ff" stroke="#7854ab" d="M21.333 48v5.333h5.334l2.666-2.666v-5.334H24z" stroke-width="2"/><path fill="#ddd7ff" stroke="#7854ab" d="M21.333 48h5.334v5.333M26.667 48l2.666-2.667M26.667 96v5.333H32l2.667-2.666v-5.334h-5.334z" stroke-width="2"/><path fill="#ddd7ff" stroke="#7854ab" d="M26.667 96H32v5.333M32 96l2.667-2.667" stroke-width="2"/><path fill="#ddd7ff" stroke="#7854ab" d="M26.667 90.667V96H32l2.667-2.667V88h-5.334z" stroke-width="2"/><path fill="#ddd7ff" stroke="#7854ab" d="M26.667 90.667H32V96M32 90.667L34.667 88" stroke-width="2"/><path fill="#ddd7ff" stroke="#7854ab" d="M26.667 85.333v5.334H32L34.667 88v-5.333h-5.334z" stroke-width="2"/><path fill="#ddd7ff" stroke="#7854ab" d="M26.667 85.333H32v5.334M32 85.333l2.667-2.666" stroke-width="2"/><path fill="#ddd7ff" stroke="#7854ab" d="M26.667 80v5.333H32l2.667-2.666v-5.334h-5.334z" stroke-width="2"/><path fill="#ddd7ff" stroke="#7854ab" d="M26.667 80H32v5.333M32 80l2.667-2.667" stroke-width="2"/><path fill="#ddd7ff" stroke="#7854ab" d="M26.667 74.667V80H32l2.667-2.667V72h-5.334z" stroke-width="2"/><path fill="#ddd7ff" stroke="#7854ab" d="M26.667 74.667H32V80M32 74.667L34.667 72" stroke-width="2"/><path fill="#ddd7ff" stroke="#7854ab" d="M26.667 69.333v5.334H32L34.667 72v-5.333h-5.334z" stroke-width="2"/><path fill="#ddd7ff" stroke="#7854ab" d="M26.667 69.333H32v5.334M32 69.333l2.667-2.666" stroke-width="2"/><path fill="#ddd7ff" stroke="#7854ab" d="M26.667 64v5.333H32l2.667-2.666v-5.334h-5.334z" stroke-width="2"/><path fill="#ddd7ff" stroke="#7854ab" d="M26.667 64H32v5.333M32 64l2.667-2.667" stroke-width="2"/><path fill="#ddd7ff" stroke="#7854ab" d="M26.667 58.667V64H32l2.667-2.667V56h-5.334z" stroke-width="2"/><path fill="#ddd7ff" stroke="#7854ab" d="M26.667 58.667H32V64M32 58.667L34.667 56" stroke-width="2"/><path fill="#ddd7ff" stroke="#7854ab" d="M26.667 53.333v5.334H32L34.667 56v-5.333h-5.334z" stroke-width="2"/><path fill="#ddd7ff" stroke="#7854ab" d="M26.667 53.333H32v5.334M32 53.333l2.667-2.666" stroke-width="2"/><path fill="#ddd7ff" stroke="#7854ab" d="M26.667 48v5.333H32l2.667-2.666v-5.334h-5.334z" stroke-width="2"/><path fill="#ddd7ff" stroke="#7854ab" d="M26.667 48H32v5.333M32 48l2.667-2.667M32 96v5.333h5.333L40 98.667v-5.334h-5.333z" stroke-width="2"/><path fill="#ddd7ff" stroke="#7854ab" d="M32 96h5.333v5.333M37.333 96L40 93.333" stroke-width="2"/><path fill="#ddd7ff" stroke="#7854ab" d="M32 90.667V96h5.333L40 93.333V88h-5.333z" stroke-width="2"/><path fill="#ddd7ff" stroke="#7854ab" d="M32 90.667h5.333V96M37.333 90.667L40 88" stroke-width="2"/><path fill="#ddd7ff" stroke="#7854ab" d="M32 85.333v5.334h5.333L40 88v-5.333h-5.333z" stroke-width="2"/><path fill="#ddd7ff" stroke="#7854ab" d="M32 85.333h5.333v5.334M37.333 85.333L40 82.667" stroke-width="2"/><path fill="#ddd7ff" stroke="#7854ab" d="M32 80v5.333h5.333L40 82.667v-5.334h-5.333z" stroke-width="2"/><path fill="#ddd7ff" stroke="#7854ab" d="M32 80h5.333v5.333M37.333 80L40 77.333" stroke-width="2"/><path fill="#ddd7ff" stroke="#7854ab" d="M32 74.667V80h5.333L40 77.333V72h-5.333z" stroke-width="2"/><path fill="#ddd7ff" stroke="#7854ab" d="M32 74.667h5.333V80M37.333 74.667L40 72" stroke-width="2"/><path fill="#ddd7ff" stroke="#7854ab" d="M32 69.333v5.334h5.333L40 72v-5.333h-5.333z" stroke-width="2"/><path fill="#ddd7ff" stroke="#7854ab" d="M32 69.333h5.333v5.334M37.333 69.333L40 66.667" stroke-width="2"/><path fill="#ddd7ff" stroke="#7854ab" d="M32 64v5.333h5.333L40 66.667v-5.334h-5.333z" stroke-width="2"/><path fill="#ddd7ff" stroke="#7854ab" d="M32 64h5.333v5.333M37.333 64L40 61.333" stroke-width="2"/><path fill="#ddd7ff" stroke="#7854ab" d="M32 58.667V64h5.333L40 61.333V56h-5.333z" stroke-width="2"/><path fill="#ddd7ff" stroke="#7854ab" d="M32 58.667h5.333V64M37.333 58.667L40 56" stroke-width="2"/><path fill="#ddd7ff" stroke="#7854ab" d="M32 53.333v5.334h5.333L40 56v-5.333h-5.333z" stroke-width="2"/><path fill="#ddd7ff" stroke="#7854ab" d="M32 53.333h5.333v5.334M37.333 53.333L40 50.667" stroke-width="2"/><path fill="#ddd7ff" stroke="#7854ab" d="M32 48v5.333h5.333L40 50.667v-5.334h-5.333z" stroke-width="2"/><path fill="#ddd7ff" stroke="#7854ab" d="M32 48h5.333v5.333M37.333 48L40 45.333M37.333 96v5.333h5.334l2.666-2.666v-5.334H40z" stroke-width="2"/><path fill="#ddd7ff" stroke="#7854ab" d="M37.333 96h5.334v5.333M42.667 96l2.666-2.667" stroke-width="2"/><path fill="#ddd7ff" stroke="#7854ab" d="M37.333 90.667V96h5.334l2.666-2.667V88H40z" stroke-width="2"/><path fill="#ddd7ff" stroke="#7854ab" d="M37.333 90.667h5.334V96M42.667 90.667L45.333 88" stroke-width="2"/><path fill="#ddd7ff" stroke="#7854ab" d="M37.333 85.333v5.334h5.334L45.333 88v-5.333H40z" stroke-width="2"/><path fill="#ddd7ff" stroke="#7854ab" d="M37.333 85.333h5.334v5.334M42.667 85.333l2.666-2.666" stroke-width="2"/><path fill="#ddd7ff" stroke="#7854ab" d="M37.333 80v5.333h5.334l2.666-2.666v-5.334H40z" stroke-width="2"/><path fill="#ddd7ff" stroke="#7854ab" d="M37.333 80h5.334v5.333M42.667 80l2.666-2.667" stroke-width="2"/><path fill="#ddd7ff" stroke="#7854ab" d="M37.333 74.667V80h5.334l2.666-2.667V72H40z" stroke-width="2"/><path fill="#ddd7ff" stroke="#7854ab" d="M37.333 74.667h5.334V80M42.667 74.667L45.333 72" stroke-width="2"/><path fill="#ddd7ff" stroke="#7854ab" d="M37.333 69.333v5.334h5.334L45.333 72v-5.333H40z" stroke-width="2"/><path fill="#ddd7ff" stroke="#7854ab" d="M37.333 69.333h5.334v5.334M42.667 69.333l2.666-2.666" stroke-width="2"/><path fill="#ddd7ff" stroke="#7854ab" d="M37.333 64v5.333h5.334l2.666-2.666v-5.334H40z" stroke-width="2"/><path fill="#ddd7ff" stroke="#7854ab" d="M37.333 64h5.334v5.333M42.667 64l2.666-2.667" stroke-width="2"/><path fill="#ddd7ff" stroke="#7854ab" d="M37.333 58.667V64h5.334l2.666-2.667V56H40z" stroke-width="2"/><path fill="#ddd7ff" stroke="#7854ab" d="M37.333 58.667h5.334V64M42.667 58.667L45.333 56" stroke-width="2"/><path fill="#ddd7ff" stroke="#7854ab" d="M37.333 53.333v5.334h5.334L45.333 56v-5.333H40z" stroke-width="2"/><path fill="#ddd7ff" stroke="#7854ab" d="M37.333 53.333h5.334v5.334M42.667 53.333l2.666-2.666" stroke-width="2"/><path fill="#ddd7ff" stroke="#7854ab" d="M37.333 48v5.333h5.334l2.666-2.666v-5.334H40z" stroke-width="2"/><path fill="#ddd7ff" stroke="#7854ab" d="M37.333 48h5.334v5.333M42.667 48l2.666-2.667M42.667 96v5.333H48l2.667-2.666v-5.334h-5.334z" stroke-width="2"/><path fill="#ddd7ff" stroke="#7854ab" d="M42.667 96H48v5.333M48 96l2.667-2.667" stroke-width="2"/><path fill="#ddd7ff" stroke="#7854ab" d="M42.667 90.667V96H48l2.667-2.667V88h-5.334z" stroke-width="2"/><path fill="#ddd7ff" stroke="#7854ab" d="M42.667 90.667H48V96M48 90.667L50.667 88" stroke-width="2"/><path fill="#ddd7ff" stroke="#7854ab" d="M42.667 85.333v5.334H48L50.667 88v-5.333h-5.334z" stroke-width="2"/><path fill="#ddd7ff" stroke="#7854ab" d="M42.667 85.333H48v5.334M48 85.333l2.667-2.666" stroke-width="2"/><path fill="#ddd7ff" stroke="#7854ab" d="M42.667 80v5.333H48l2.667-2.666v-5.334h-5.334z" stroke-width="2"/><path fill="#ddd7ff" stroke="#7854ab" d="M42.667 80H48v5.333M48 80l2.667-2.667" stroke-width="2"/><path fill="#ddd7ff" stroke="#7854ab" d="M42.667 74.667V80H48l2.667-2.667V72h-5.334z" stroke-width="2"/><path fill="#ddd7ff" stroke="#7854ab" d="M42.667 74.667H48V80M48 74.667L50.667 72" stroke-width="2"/><path fill="#ddd7ff" stroke="#7854ab" d="M42.667 69.333v5.334H48L50.667 72v-5.333h-5.334z" stroke-width="2"/><path fill="#ddd7ff" stroke="#7854ab" d="M42.667 69.333H48v5.334M48 69.333l2.667-2.666" stroke-width="2"/><path fill="#ddd7ff" stroke="#7854ab" d="M42.667 64v5.333H48l2.667-2.666v-5.334h-5.334z" stroke-width="2"/><path fill="#ddd7ff" stroke="#7854ab" d="M42.667 64H48v5.333M48 64l2.667-2.667" stroke-width="2"/><path fill="#ddd7ff" stroke="#7854ab" d="M42.667 58.667V64H48l2.667-2.667V56h-5.334z" stroke-width="2"/><path fill="#ddd7ff" stroke="#7854ab" d="M42.667 58.667H48V64M48 58.667L50.667 56" stroke-width="2"/><path fill="#ddd7ff" stroke="#7854ab" d="M42.667 53.333v5.334H48L50.667 56v-5.333h-5.334z" stroke-width="2"/><path fill="#ddd7ff" stroke="#7854ab" d="M42.667 53.333H48v5.334M48 53.333l2.667-2.666" stroke-width="2"/><path fill="#ddd7ff" stroke="#7854ab" d="M42.667 48v5.333H48l2.667-2.666v-5.334h-5.334z" stroke-width="2"/><path fill="#ddd7ff" stroke="#7854ab" d="M42.667 48H48v5.333M48 48l2.667-2.667M48 96v5.333h5.333L56 98.667v-5.334h-5.333z" stroke-width="2"/><path fill="#ddd7ff" stroke="#7854ab" d="M48 96h5.333v5.333M53.333 96L56 93.333" stroke-width="2"/><path fill="#ddd7ff" stroke="#7854ab" d="M48 90.667V96h5.333L56 93.333V88h-5.333z" stroke-width="2"/><path fill="#ddd7ff" stroke="#7854ab" d="M48 90.667h5.333V96M53.333 90.667L56 88" stroke-width="2"/><path fill="#ddd7ff" stroke="#7854ab" d="M48 85.333v5.334h5.333L56 88v-5.333h-5.333z" stroke-width="2"/><path fill="#ddd7ff" stroke="#7854ab" d="M48 85.333h5.333v5.334M53.333 85.333L56 82.667" stroke-width="2"/><path fill="#ddd7ff" stroke="#7854ab" d="M48 80v5.333h5.333L56 82.667v-5.334h-5.333z" stroke-width="2"/><path fill="#ddd7ff" stroke="#7854ab" d="M48 80h5.333v5.333M53.333 80L56 77.333" stroke-width="2"/><path fill="#ddd7ff" stroke="#7854ab" d="M48 74.667V80h5.333L56 77.333V72h-5.333z" stroke-width="2"/><path fill="#ddd7ff" stroke="#7854ab" d="M48 74.667h5.333V80M53.333 74.667L56 72" stroke-width="2"/><path fill="#ddd7ff" stroke="#7854ab" d="M48 69.333v5.334h5.333L56 72v-5.333h-5.333z" stroke-width="2"/><path fill="#ddd7ff" stroke="#7854ab" d="M48 69.333h5.333v5.334M53.333 69.333L56 66.667" stroke-width="2"/><path fill="#ddd7ff" stroke="#7854ab" d="M48 64v5.333h5.333L56 66.667v-5.334h-5.333z" stroke-width="2"/><path fill="#ddd7ff" stroke="#7854ab" d="M48 64h5.333v5.333M53.333 64L56 61.333" stroke-width="2"/><path fill="#ddd7ff" stroke="#7854ab" d="M48 58.667V64h5.333L56 61.333V56h-5.333z" stroke-width="2"/><path fill="#ddd7ff" stroke="#7854ab" d="M48 58.667h5.333V64M53.333 58.667L56 56" stroke-width="2"/><path fill="#ddd7ff" stroke="#7854ab" d="M48 53.333v5.334h5.333L56 56v-5.333h-5.333z" stroke-width="2"/><path fill="#ddd7ff" stroke="#7854ab" d="M48 53.333h5.333v5.334M53.333 53.333L56 50.667" stroke-width="2"/><path fill="#ddd7ff" stroke="#7854ab" d="M48 48v5.333h5.333L56 50.667v-5.334h-5.333z" stroke-width="2"/><path fill="#ddd7ff" stroke="#7854ab" d="M48 48h5.333v5.333M53.333 48L56 45.333M53.333 96v5.333h5.334l2.666-2.666v-5.334H56z" stroke-width="2"/><path fill="#ddd7ff" stroke="#7854ab" d="M53.333 96h5.334v5.333M58.667 96l2.666-2.667" stroke-width="2"/><path fill="#ddd7ff" stroke="#7854ab" d="M53.333 90.667V96h5.334l2.666-2.667V88H56z" stroke-width="2"/><path fill="#ddd7ff" stroke="#7854ab" d="M53.333 90.667h5.334V96M58.667 90.667L61.333 88" stroke-width="2"/><path fill="#ddd7ff" stroke="#7854ab" d="M53.333 85.333v5.334h5.334L61.333 88v-5.333H56z" stroke-width="2"/><path fill="#ddd7ff" stroke="#7854ab" d="M53.333 85.333h5.334v5.334M58.667 85.333l2.666-2.666" stroke-width="2"/><path fill="#ddd7ff" stroke="#7854ab" d="M53.333 80v5.333h5.334l2.666-2.666v-5.334H56z" stroke-width="2"/><path fill="#ddd7ff" stroke="#7854ab" d="M53.333 80h5.334v5.333M58.667 80l2.666-2.667" stroke-width="2"/><path fill="#ddd7ff" stroke="#7854ab" d="M53.333 74.667V80h5.334l2.666-2.667V72H56z" stroke-width="2"/><path fill="#ddd7ff" stroke="#7854ab" d="M53.333 74.667h5.334V80M58.667 74.667L61.333 72" stroke-width="2"/><path fill="#ddd7ff" stroke="#7854ab" d="M53.333 69.333v5.334h5.334L61.333 72v-5.333H56z" stroke-width="2"/><path fill="#ddd7ff" stroke="#7854ab" d="M53.333 69.333h5.334v5.334M58.667 69.333l2.666-2.666" stroke-width="2"/><path fill="#ddd7ff" stroke="#7854ab" d="M53.333 64v5.333h5.334l2.666-2.666v-5.334H56z" stroke-width="2"/><path fill="#ddd7ff" stroke="#7854ab" d="M53.333 64h5.334v5.333M58.667 64l2.666-2.667" stroke-width="2"/><path fill="#ddd7ff" stroke="#7854ab" d="M53.333 58.667V64h5.334l2.666-2.667V56H56z" stroke-width="2"/><path fill="#ddd7ff" stroke="#7854ab" d="M53.333 58.667h5.334V64M58.667 58.667L61.333 56" stroke-width="2"/><path fill="#ddd7ff" stroke="#7854ab" d="M53.333 53.333v5.334h5.334L61.333 56v-5.333H56z" stroke-width="2"/><path fill="#ddd7ff" stroke="#7854ab" d="M53.333 53.333h5.334v5.334M58.667 53.333l2.666-2.666" stroke-width="2"/><path fill="#ddd7ff" stroke="#7854ab" d="M53.333 48v5.333h5.334l2.666-2.666v-5.334H56z" stroke-width="2"/><path fill="#ddd7ff" stroke="#7854ab" d="M53.333 48h5.334v5.333M58.667 48l2.666-2.667" stroke-width="2"/><path fill="#ffbde0" stroke="#ca337c" d="M272 48v5.333h5.333L280 50.667v-5.334h-5.333z" stroke-width="2"/><path fill="#ffbde0" stroke="#ca337c" d="M272 48h5.333v5.333M277.333 48L280 45.333M284.8 48v5.333h5.333l2.667-2.666v-5.334h-5.333z" stroke-width="2"/><path fill="#ffbde0" stroke="#ca337c" d="M284.8 48h5.333v5.333M290.133 48l2.667-2.667M297.6 48v5.333h5.333l2.667-2.666v-5.334h-5.333z" stroke-width="2"/><path fill="#ffbde0" stroke="#ca337c" d="M297.6 48h5.333v5.333M302.933 48l2.667-2.667M310.4 48v5.333h5.333l2.667-2.666v-5.334h-5.333z" stroke-width="2"/><path fill="#ffbde0" stroke="#ca337c" d="M310.4 48h5.333v5.333M315.733 48l2.667-2.667" stroke-width="2"/></svg>
