<svg xmlns="http://www.w3.org/2000/svg" width="400" height="176" viewBox="0 0 400 176"><path fill="none" stroke="#000" d="M133.333 0v176M266.667 0v176M0 37.333h400" stroke-width="2"/><path fill="#ccfaff" stroke="#0c7f99" d="M202.667 96v5.333H208l2.667-2.666v-5.334h-5.334z" stroke-width="2"/><path fill="#ccfaff" stroke="#0c7f99" d="M202.667 96H208v5.333M208 96l2.667-2.667" stroke-width="2"/><path fill="#ccfaff" stroke="#0c7f99" d="M202.667 90.667V96H208l2.667-2.667V88h-5.334z" stroke-width="2"/><path fill="#ccfaff" stroke="#0c7f99" d="M202.667 90.667H208V96M208 90.667L210.667 88" stroke-width="2"/><path fill="#ccfaff" stroke="#0c7f99" d="M202.667 85.333v5.334H208L210.667 88v-5.333h-5.334z" stroke-width="2"/><path fill="#ccfaff" stroke="#0c7f99" d="M202.667 85.333H208v5.334M208 85.333l2.667-2.666" stroke-width="2"/><path fill="#ccfaff" stroke="#0c7f99" d="M202.667 80v5.333H208l2.667-2.666v-5.334h-5.334z" stroke-width="2"/><path fill="#ccfaff" stroke="#0c7f99" d="M202.667 80H208v5.333M208 80l2.667-2.667" stroke-width="2"/><path fill="#ccfaff" stroke="#0c7f99" d="M202.667 74.667V80H208l2.667-2.667V72h-5.334z" stroke-width="2"/><path fill="#ccfaff" stroke="#0c7f99" d="M202.667 74.667H208V80M208 74.667L210.667 72" stroke-width="2"/><path fill="#ccfaff" stroke="#0c7f99" d="M202.667 69.333v5.334H208L210.667 72v-5.333h-5.334z" stroke-width="2"/><path fill="#ccfaff" stroke="#0c7f99" d="M202.667 69.333H208v5.334M208 69.333l2.667-2.666" stroke-width="2"/><path fill="#ccfaff" stroke="#0c7f99" d="M202.667 64v5.333H208l2.667-2.666v-5.334h-5.334z" stroke-width="2"/><path fill="#ccfaff" stroke="#0c7f99" d="M202.667 64H208v5.333M208 64l2.667-2.667" stroke-width="2"/><path fill="#ccfaff" stroke="#0c7f99" d="M202.667 58.667V64H208l2.667-2.667V56h-5.334z" stroke-width="2"/><path fill="#ccfaff" stroke="#0c7f99" d="M202.667 58.667H208V64M208 58.667L210.667 56" stroke-width="2"/><path fill="#ccfaff" stroke="#0c7f99" d="M202.667 53.333v5.334H208L210.667 56v-5.333h-5.334z" stroke-width="2"/><path fill="#ccfaff" stroke="#0c7f99" d="M202.667 53.333H208v5.334M208 53.333l2.667-2.666" stroke-width="2"/><path fill="#ccfaff" stroke="#0c7f99" d="M202.667 48v5.333H208l2.667-2.666v-5.334h-5.334z" stroke-width="2"/><path fill="#ccfaff" stroke="#0c7f99" d="M202.667 48H208v5.333M208 48l2.667-2.667M215.467 96v5.333h5.333l2.667-2.666v-5.334h-5.334z" stroke-width="2"/><path fill="#ccfaff" stroke="#0c7f99" d="M215.467 96h5.333v5.333M220.8 96l2.667-2.667" stroke-width="2"/><path fill="#ccfaff" stroke="#0c7f99" d="M215.467 90.667V96h5.333l2.667-2.667V88h-5.334z" stroke-width="2"/><path fill="#ccfaff" stroke="#0c7f99" d="M215.467 90.667h5.333V96M220.8 90.667L223.467 88" stroke-width="2"/><path fill="#ccfaff" stroke="#0c7f99" d="M215.467 85.333v5.334h5.333L223.467 88v-5.333h-5.334z" stroke-width="2"/><path fill="#ccfaff" stroke="#0c7f99" d="M215.467 85.333h5.333v5.334M220.8 85.333l2.667-2.666" stroke-width="2"/><path fill="#ccfaff" stroke="#0c7f99" d="M215.467 80v5.333h5.333l2.667-2.666v-5.334h-5.334z" stroke-width="2"/><path fill="#ccfaff" stroke="#0c7f99" d="M215.467 80h5.333v5.333M220.8 80l2.667-2.667" stroke-width="2"/><path fill="#ccfaff" stroke="#0c7f99" d="M215.467 74.667V80h5.333l2.667-2.667V72h-5.334z" stroke-width="2"/><path fill="#ccfaff" stroke="#0c7f99" d="M215.467 74.667h5.333V80M220.8 74.667L223.467 72" stroke-width="2"/><path fill="#ccfaff" stroke="#0c7f99" d="M215.467 69.333v5.334h5.333L223.467 72v-5.333h-5.334z" stroke-width="2"/><path fill="#ccfaff" stroke="#0c7f99" d="M215.467 69.333h5.333v5.334M220.8 69.333l2.667-2.666" stroke-width="2"/><path fill="#ccfaff" stroke="#0c7f99" d="M215.467 64v5.333h5.333l2.667-2.666v-5.334h-5.334z" stroke-width="2"/><path fill="#ccfaff" stroke="#0c7f99" d="M215.467 64h5.333v5.333M220.8 64l2.667-2.667" stroke-width="2"/><path fill="#ccfaff" stroke="#0c7f99" d="M215.467 58.667V64h5.333l2.667-2.667V56h-5.334z" stroke-width="2"/><path fill="#ccfaff" stroke="#0c7f99" d="M215.467 58.667h5.333V64M220.8 58.667L223.467 56" stroke-width="2"/><path fill="#ccfaff" stroke="#0c7f99" d="M215.467 53.333v5.334h5.333L223.467 56v-5.333h-5.334z" stroke-width="2"/><path fill="#ccfaff" stroke="#0c7f99" d="M215.467 53.333h5.333v5.334M220.8 53.333l2.667-2.666" stroke-width="2"/><path fill="#ccfaff" stroke="#0c7f99" d="M215.467 48v5.333h5.333l2.667-2.666v-5.334h-5.334z" stroke-width="2"/><path fill="#ccfaff" stroke="#0c7f99" d="M215.467 48h5.333v5.333M220.8 48l2.667-2.667M228.267 96v5.333h5.333l2.667-2.666v-5.334h-5.334z" stroke-width="2"/><path fill="#ccfaff" stroke="#0c7f99" d="M228.267 96h5.333v5.333M233.6 96l2.667-2.667" stroke-width="2"/><path fill="#ccfaff" stroke="#0c7f99" d="M228.267 90.667V96h5.333l2.667-2.667V88h-5.334z" stroke-width="2"/><path fill="#ccfaff" stroke="#0c7f99" d="M228.267 90.667h5.333V96M233.6 90.667L236.267 88" stroke-width="2"/><path fill="#ccfaff" stroke="#0c7f99" d="M228.267 85.333v5.334h5.333L236.267 88v-5.333h-5.334z" stroke-width="2"/><path fill="#ccfaff" stroke="#0c7f99" d="M228.267 85.333h5.333v5.334M233.6 85.333l2.667-2.666" stroke-width="2"/><path fill="#ccfaff" stroke="#0c7f99" d="M228.267 80v5.333h5.333l2.667-2.666v-5.334h-5.334z" stroke-width="2"/><path fill="#ccfaff" stroke="#0c7f99" d="M228.267 80h5.333v5.333M233.6 80l2.667-2.667" stroke-width="2"/><path fill="#ccfaff" stroke="#0c7f99" d="M228.267 74.667V80h5.333l2.667-2.667V72h-5.334z" stroke-width="2"/><path fill="#ccfaff" stroke="#0c7f99" d="M228.267 74.667h5.333V80M233.6 74.667L236.267 72" stroke-width="2"/><path fill="#ccfaff" stroke="#0c7f99" d="M228.267 69.333v5.334h5.333L236.267 72v-5.333h-5.334z" stroke-width="2"/><path fill="#ccfaff" stroke="#0c7f99" d="M228.267 69.333h5.333v5.334M233.6 69.333l2.667-2.666" stroke-width="2"/><path fill="#ccfaff" stroke="#0c7f99" d="M228.267 64v5.333h5.333l2.667-2.666v-5.334h-5.334z" stroke-width="2"/><path fill="#ccfaff" stroke="#0c7f99" d="M228.267 64h5.333v5.333M233.6 64l2.667-2.667" stroke-width="2"/><path fill="#ccfaff" stroke="#0c7f99" d="M228.267 58.667V64h5.333l2.667-2.667V56h-5.334z" stroke-width="2"/><path fill="#ccfaff" stroke="#0c7f99" d="M228.267 58.667h5.333V64M233.6 58.667L236.267 56" stroke-width="2"/><path fill="#ccfaff" stroke="#0c7f99" d="M228.267 53.333v5.334h5.333L236.267 56v-5.333h-5.334z" stroke-width="2"/><path fill="#ccfaff" stroke="#0c7f99" d="M228.267 53.333h5.333v5.334M233.6 53.333l2.667-2.666" stroke-width="2"/><path fill="#ccfaff" stroke="#0c7f99" d="M228.267 48v5.333h5.333l2.667-2.666v-5.334h-5.334z" stroke-width="2"/><path fill="#ccfaff" stroke="#0c7f99" d="M228.267 48h5.333v5.333M233.6 48l2.667-2.667M241.067 96v5.333h5.333l2.667-2.666v-5.334h-5.334z" stroke-width="2"/><path fill="#ccfaff" stroke="#0c7f99" d="M241.067 96h5.333v5.333M246.4 96l2.667-2.667" stroke-width="2"/><path fill="#ccfaff" stroke="#0c7f99" d="M241.067 90.667V96h5.333l2.667-2.667V88h-5.334z" stroke-width="2"/><path fill="#ccfaff" stroke="#0c7f99" d="M241.067 90.667h5.333V96M246.4 90.667L249.067 88" stroke-width="2"/><path fill="#ccfaff" stroke="#0c7f99" d="M241.067 85.333v5.334h5.333L249.067 88v-5.333h-5.334z" stroke-width="2"/><path fill="#ccfaff" stroke="#0c7f99" d="M241.067 85.333h5.333v5.334M246.4 85.333l2.667-2.666" stroke-width="2"/><path fill="#ccfaff" stroke="#0c7f99" d="M241.067 80v5.333h5.333l2.667-2.666v-5.334h-5.334z" stroke-width="2"/><path fill="#ccfaff" stroke="#0c7f99" d="M241.067 80h5.333v5.333M246.4 80l2.667-2.667" stroke-width="2"/><path fill="#ccfaff" stroke="#0c7f99" d="M241.067 74.667V80h5.333l2.667-2.667V72h-5.334z" stroke-width="2"/><path fill="#ccfaff" stroke="#0c7f99" d="M241.067 74.667h5.333V80M246.4 74.667L249.067 72" stroke-width="2"/><path fill="#ccfaff" stroke="#0c7f99" d="M241.067 69.333v5.334h5.333L249.067 72v-5.333h-5.334z" stroke-width="2"/><path fill="#ccfaff" stroke="#0c7f99" d="M241.067 69.333h5.333v5.334M246.4 69.333l2.667-2.666" stroke-width="2"/><path fill="#ccfaff" stroke="#0c7f99" d="M241.067 64v5.333h5.333l2.667-2.666v-5.334h-5.334z" stroke-width="2"/><path fill="#ccfaff" stroke="#0c7f99" d="M241.067 64h5.333v5.333M246.4 64l2.667-2.667" stroke-width="2"/><path fill="#ccfaff" stroke="#0c7f99" d="M241.067 58.667V64h5.333l2.667-2.667V56h-5.334z" stroke-width="2"/><path fill="#ccfaff" stroke="#0c7f99" d="M241.067 58.667h5.333V64M246.4 58.667L249.067 56" stroke-width="2"/><path fill="#ccfaff" stroke="#0c7f99" d="M241.067 53.333v5.334h5.333L249.067 56v-5.333h-5.334z" stroke-width="2"/><path fill="#ccfaff" stroke="#0c7f99" d="M241.067 53.333h5.333v5.334M246.4 53.333l2.667-2.666" stroke-width="2"/><path fill="#ccfaff" stroke="#0c7f99" d="M241.067 48v5.333h5.333l2.667-2.666v-5.334h-5.334z" stroke-width="2"/><path fill="#ccfaff" stroke="#0c7f99" d="M241.067 48h5.333v5.333M246.4 48l2.667-2.667M253.867 96v5.333h5.333l2.667-2.666v-5.334h-5.334z" stroke-width="2"/><path fill="#ccfaff" stroke="#0c7f99" d="M253.867 96h5.333v5.333M259.2 96l2.667-2.667" stroke-width="2"/><path fill="#ccfaff" stroke="#0c7f99" d="M253.867 90.667V96h5.333l2.667-2.667V88h-5.334z" stroke-width="2"/><path fill="#ccfaff" stroke="#0c7f99" d="M253.867 90.667h5.333V96M259.2 90.667L261.867 88" stroke-width="2"/><path fill="#ccfaff" stroke="#0c7f99" d="M253.867 85.333v5.334h5.333L261.867 88v-5.333h-5.334z" stroke-width="2"/><path fill="#ccfaff" stroke="#0c7f99" d="M253.867 85.333h5.333v5.334M259.2 85.333l2.667-2.666" stroke-width="2"/><path fill="#ccfaff" stroke="#0c7f99" d="M253.867 80v5.333h5.333l2.667-2.666v-5.334h-5.334z" stroke-width="2"/><path fill="#ccfaff" stroke="#0c7f99" d="M253.867 80h5.333v5.333M259.2 80l2.667-2.667" stroke-width="2"/><path fill="#ccfaff" stroke="#0c7f99" d="M253.867 74.667V80h5.333l2.667-2.667V72h-5.334z" stroke-width="2"/><path fill="#ccfaff" stroke="#0c7f99" d="M253.867 74.667h5.333V80M259.2 74.667L261.867 72" stroke-width="2"/><path fill="#ccfaff" stroke="#0c7f99" d="M253.867 69.333v5.334h5.333L261.867 72v-5.333h-5.334z" stroke-width="2"/><path fill="#ccfaff" stroke="#0c7f99" d="M253.867 69.333h5.333v5.334M259.2 69.333l2.667-2.666" stroke-width="2"/><path fill="#ccfaff" stroke="#0c7f99" d="M253.867 64v5.333h5.333l2.667-2.666v-5.334h-5.334z" stroke-width="2"/><path fill="#ccfaff" stroke="#0c7f99" d="M253.867 64h5.333v5.333M259.2 64l2.667-2.667" stroke-width="2"/><path fill="#ccfaff" stroke="#0c7f99" d="M253.867 58.667V64h5.333l2.667-2.667V56h-5.334z" stroke-width="2"/><path fill="#ccfaff" stroke="#0c7f99" d="M253.867 58.667h5.333V64M259.2 58.667L261.867 56" stroke-width="2"/><path fill="#ccfaff" stroke="#0c7f99" d="M253.867 53.333v5.334h5.333L261.867 56v-5.333h-5.334z" stroke-width="2"/><path fill="#ccfaff" stroke="#0c7f99" d="M253.867 53.333h5.333v5.334M259.2 53.333l2.667-2.666" stroke-width="2"/><path fill="#ccfaff" stroke="#0c7f99" d="M253.867 48v5.333h5.333l2.667-2.666v-5.334h-5.334z" stroke-width="2"/><path fill="#ccfaff" stroke="#0c7f99" d="M253.867 48h5.333v5.333M259.2 48l2.667-2.667M253.867 160v5.333h5.333l2.667-2.666v-5.334h-5.334z" stroke-width="2"/><path fill="#ccfaff" stroke="#0c7f99" d="M253.867 160h5.333v5.333M259.2 160l2.667-2.667" stroke-width="2"/><path fill="#ccfaff" stroke="#0c7f99" d="M253.867 154.667V160h5.333l2.667-2.667V152h-5.334z" stroke-width="2"/><path fill="#ccfaff" stroke="#0c7f99" d="M253.867 154.667h5.333V160M259.2 154.667l2.667-2.667" stroke-width="2"/><path fill="#ccfaff" stroke="#0c7f99" d="M253.867 149.333v5.334h5.333l2.667-2.667v-5.333h-5.334z" stroke-width="2"/><path fill="#ccfaff" stroke="#0c7f99" d="M253.867 149.333h5.333v5.334M259.2 149.333l2.667-2.666" stroke-width="2"/><path fill="#ccfaff" stroke="#0c7f99" d="M253.867 144v5.333h5.333l2.667-2.666v-5.334h-5.334z" stroke-width="2"/><path fill="#ccfaff" stroke="#0c7f99" d="M253.867 144h5.333v5.333M259.2 144l2.667-2.667" stroke-width="2"/><path fill="#ccfaff" stroke="#0c7f99" d="M253.867 138.667V144h5.333l2.667-2.667V136h-5.334z" stroke-width="2"/><path fill="#ccfaff" stroke="#0c7f99" d="M253.867 138.667h5.333V144M259.2 138.667l2.667-2.667" stroke-width="2"/><path fill="#ccfaff" stroke="#0c7f99" d="M253.867 133.333v5.334h5.333l2.667-2.667v-5.333h-5.334z" stroke-width="2"/><path fill="#ccfaff" stroke="#0c7f99" d="M253.867 133.333h5.333v5.334M259.2 133.333l2.667-2.666" stroke-width="2"/><path fill="#ccfaff" stroke="#0c7f99" d="M253.867 128v5.333h5.333l2.667-2.666v-5.334h-5.334z" stroke-width="2"/><path fill="#ccfaff" stroke="#0c7f99" d="M253.867 128h5.333v5.333M259.2 128l2.667-2.667" stroke-width="2"/><path fill="#ccfaff" stroke="#0c7f99" d="M253.867 122.667V128h5.333l2.667-2.667V120h-5.334z" stroke-width="2"/><path fill="#ccfaff" stroke="#0c7f99" d="M253.867 122.667h5.333V128M259.2 122.667l2.667-2.667" stroke-width="2"/><path fill="#ccfaff" stroke="#0c7f99" d="M253.867 117.333v5.334h5.333l2.667-2.667v-5.333h-5.334z" stroke-width="2"/><path fill="#ccfaff" stroke="#0c7f99" d="M253.867 117.333h5.333v5.334M259.2 117.333l2.667-2.666" stroke-width="2"/><path fill="#ccfaff" stroke="#0c7f99" d="M253.867 112v5.333h5.333l2.667-2.666v-5.334h-5.334z" stroke-width="2"/><path fill="#ccfaff" stroke="#0c7f99" d="M253.867 112h5.333v5.333M259.2 112l2.667-2.667" stroke-width="2"/><path fill="#ffbde0" stroke="#9e034e" d="M284.8 48v5.333h5.333l2.667-2.666v-5.334h-5.333z" stroke-width="2"/><path fill="#ffbde0" stroke="#9e034e" d="M284.8 48h5.333v5.333M290.133 48l2.667-2.667M297.6 48v5.333h5.333l2.667-2.666v-5.334h-5.333z" stroke-width="2"/><path fill="#ffbde0" stroke="#9e034e" d="M297.6 48h5.333v5.333M302.933 48l2.667-2.667M310.4 48v5.333h5.333l2.667-2.666v-5.334h-5.333z" stroke-width="2"/><path fill="#ffbde0" stroke="#9e034e" d="M310.4 48h5.333v5.333M315.733 48l2.667-2.667M323.2 48v5.333h5.333l2.667-2.666v-5.334h-5.333z" stroke-width="2"/><path fill="#ffbde0" stroke="#9e034e" d="M323.2 48h5.333v5.333M328.533 48l2.667-2.667M336 48v5.333h5.333L344 50.667v-5.334h-5.333z" stroke-width="2"/><path fill="#ffbde0" stroke="#9e034e" d="M336 48h5.333v5.333M341.333 48L344 45.333M348.8 48v5.333h5.333l2.667-2.666v-5.334h-5.333z" stroke-width="2"/><path fill="#ffbde0" stroke="#9e034e" d="M348.8 48h5.333v5.333M354.133 48l2.667-2.667M361.6 48v5.333h5.333l2.667-2.666v-5.334h-5.333z" stroke-width="2"/><path fill="#ffbde0" stroke="#9e034e" d="M361.6 48h5.333v5.333M366.933 48l2.667-2.667M374.4 48v5.333h5.333l2.667-2.666v-5.334h-5.333z" stroke-width="2"/><path fill="#ffbde0" stroke="#9e034e" d="M374.4 48h5.333v5.333M379.733 48l2.667-2.667M387.2 48v5.333h5.333l2.667-2.666v-5.334h-5.333z" stroke-width="2"/><path fill="#ffbde0" stroke="#9e034e" d="M387.2 48h5.333v5.333M392.533 48l2.667-2.667" stroke-width="2"/></svg>
