<svg xmlns="http://www.w3.org/2000/svg" width="400" height="176" viewBox="0 0 400 176"><path fill="none" stroke="#000" d="M133.333 0v176M266.667 0v176M0 37.333h400" stroke-width="2"/><path fill="#ddd7ff" stroke="#7854ab" d="M5.333 96v5.333h5.334l2.666-2.666v-5.334H8z" stroke-width="2"/><path fill="#ddd7ff" stroke="#7854ab" d="M5.333 96h5.334v5.333M10.667 96l2.666-2.667" stroke-width="2"/><path fill="#ddd7ff" stroke="#7854ab" d="M5.333 90.667V96h5.334l2.666-2.667V88H8z" stroke-width="2"/><path fill="#ddd7ff" stroke="#7854ab" d="M5.333 90.667h5.334V96M10.667 90.667L13.333 88" stroke-width="2"/><path fill="#ddd7ff" stroke="#7854ab" d="M5.333 85.333v5.334h5.334L13.333 88v-5.333H8z" stroke-width="2"/><path fill="#ddd7ff" stroke="#7854ab" d="M5.333 85.333h5.334v5.334M10.667 85.333l2.666-2.666" stroke-width="2"/><path fill="#ddd7ff" stroke="#7854ab" d="M5.333 80v5.333h5.334l2.666-2.666v-5.334H8z" stroke-width="2"/><path fill="#ddd7ff" stroke="#7854ab" d="M5.333 80h5.334v5.333M10.667 80l2.666-2.667" stroke-width="2"/><path fill="#ddd7ff" stroke="#7854ab" d="M5.333 74.667V80h5.334l2.666-2.667V72H8z" stroke-width="2"/><path fill="#ddd7ff" stroke="#7854ab" d="M5.333 74.667h5.334V80M10.667 74.667L13.333 72" stroke-width="2"/><path fill="#ddd7ff" stroke="#7854ab" d="M5.333 69.333v5.334h5.334L13.333 72v-5.333H8z" stroke-width="2"/><path fill="#ddd7ff" stroke="#7854ab" d="M5.333 69.333h5.334v5.334M10.667 69.333l2.666-2.666" stroke-width="2"/><path fill="#ddd7ff" stroke="#7854ab" d="M5.333 64v5.333h5.334l2.666-2.666v-5.334H8z" stroke-width="2"/><path fill="#ddd7ff" stroke="#7854ab" d="M5.333 64h5.334v5.333M10.667 64l2.666-2.667" stroke-width="2"/><path fill="#ddd7ff" stroke="#7854ab" d="M5.333 58.667V64h5.334l2.666-2.667V56H8z" stroke-width="2"/><path fill="#ddd7ff" stroke="#7854ab" d="M5.333 58.667h5.334V64M10.667 58.667L13.333 56" stroke-width="2"/><path fill="#ddd7ff" stroke="#7854ab" d="M5.333 53.333v5.334h5.334L13.333 56v-5.333H8z" stroke-width="2"/><path fill="#ddd7ff" stroke="#7854ab" d="M5.333 53.333h5.334v5.334M10.667 53.333l2.666-2.666" stroke-width="2"/><path fill="#ddd7ff" stroke="#7854ab" d="M5.333 48v5.333h5.334l2.666-2.666v-5.334H8z" stroke-width="2"/><path fill="#ddd7ff" stroke="#7854ab" d="M5.333 48h5.334v5.333M10.667 48l2.666-2.667M10.667 96v5.333H16l2.667-2.666v-5.334h-5.334z" stroke-width="2"/><path fill="#ddd7ff" stroke="#7854ab" d="M10.667 96H16v5.333M16 96l2.667-2.667" stroke-width="2"/><path fill="#ddd7ff" stroke="#7854ab" d="M10.667 90.667V96H16l2.667-2.667V88h-5.334z" stroke-width="2"/><path fill="#ddd7ff" stroke="#7854ab" d="M10.667 90.667H16V96M16 90.667L18.667 88" stroke-width="2"/><path fill="#ddd7ff" stroke="#7854ab" d="M10.667 85.333v5.334H16L18.667 88v-5.333h-5.334z" stroke-width="2"/><path fill="#ddd7ff" stroke="#7854ab" d="M10.667 85.333H16v5.334M16 85.333l2.667-2.666" stroke-width="2"/><path fill="#ddd7ff" stroke="#7854ab" d="M10.667 80v5.333H16l2.667-2.666v-5.334h-5.334z" stroke-width="2"/><path fill="#ddd7ff" stroke="#7854ab" d="M10.667 80H16v5.333M16 80l2.667-2.667" stroke-width="2"/><path fill="#ddd7ff" stroke="#7854ab" d="M10.667 74.667V80H16l2.667-2.667V72h-5.334z" stroke-width="2"/><path fill="#ddd7ff" stroke="#7854ab" d="M10.667 74.667H16V80M16 74.667L18.667 72" stroke-width="2"/><path fill="#ddd7ff" stroke="#7854ab" d="M10.667 69.333v5.334H16L18.667 72v-5.333h-5.334z" stroke-width="2"/><path fill="#ddd7ff" stroke="#7854ab" d="M10.667 69.333H16v5.334M16 69.333l2.667-2.666" stroke-width="2"/><path fill="#ddd7ff" stroke="#7854ab" d="M10.667 64v5.333H16l2.667-2.666v-5.334h-5.334z" stroke-width="2"/><path fill="#ddd7ff" stroke="#7854ab" d="M10.667 64H16v5.333M16 64l2.667-2.667" stroke-width="2"/><path fill="#ddd7ff" stroke="#7854ab" d="M10.667 58.667V64H16l2.667-2.667V56h-5.334z" stroke-width="2"/><path fill="#ddd7ff" stroke="#7854ab" d="M10.667 58.667H16V64M16 58.667L18.667 56" stroke-width="2"/><path fill="#ddd7ff" stroke="#7854ab" d="M10.667 53.333v5.334H16L18.667 56v-5.333h-5.334z" stroke-width="2"/><path fill="#ddd7ff" stroke="#7854ab" d="M10.667 53.333H16v5.334M16 53.333l2.667-2.666" stroke-width="2"/><path fill="#ddd7ff" stroke="#7854ab" d="M10.667 48v5.333H16l2.667-2.666v-5.334h-5.334z" stroke-width="2"/><path fill="#ddd7ff" stroke="#7854ab" d="M10.667 48H16v5.333M16 48l2.667-2.667M16 96v5.333h5.333L24 98.667v-5.334h-5.333z" stroke-width="2"/><path fill="#ddd7ff" stroke="#7854ab" d="M16 96h5.333v5.333M21.333 96L24 93.333" stroke-width="2"/><path fill="#ddd7ff" stroke="#7854ab" d="M16 90.667V96h5.333L24 93.333V88h-5.333z" stroke-width="2"/><path fill="#ddd7ff" stroke="#7854ab" d="M16 90.667h5.333V96M21.333 90.667L24 88" stroke-width="2"/><path fill="#ddd7ff" stroke="#7854ab" d="M16 85.333v5.334h5.333L24 88v-5.333h-5.333z" stroke-width="2"/><path fill="#ddd7ff" stroke="#7854ab" d="M16 85.333h5.333v5.334M21.333 85.333L24 82.667" stroke-width="2"/><path fill="#ddd7ff" stroke="#7854ab" d="M16 80v5.333h5.333L24 82.667v-5.334h-5.333z" stroke-width="2"/><path fill="#ddd7ff" stroke="#7854ab" d="M16 80h5.333v5.333M21.333 80L24 77.333" stroke-width="2"/><path fill="#ddd7ff" stroke="#7854ab" d="M16 74.667V80h5.333L24 77.333V72h-5.333z" stroke-width="2"/><path fill="#ddd7ff" stroke="#7854ab" d="M16 74.667h5.333V80M21.333 74.667L24 72" stroke-width="2"/><path fill="#ddd7ff" stroke="#7854ab" d="M16 69.333v5.334h5.333L24 72v-5.333h-5.333z" stroke-width="2"/><path fill="#ddd7ff" stroke="#7854ab" d="M16 69.333h5.333v5.334M21.333 69.333L24 66.667" stroke-width="2"/><path fill="#ddd7ff" stroke="#7854ab" d="M16 64v5.333h5.333L24 66.667v-5.334h-5.333z" stroke-width="2"/><path fill="#ddd7ff" stroke="#7854ab" d="M16 64h5.333v5.333M21.333 64L24 61.333" stroke-width="2"/><path fill="#ddd7ff" stroke="#7854ab" d="M16 58.667V64h5.333L24 61.333V56h-5.333z" stroke-width="2"/><path fill="#ddd7ff" stroke="#7854ab" d="M16 58.667h5.333V64M21.333 58.667L24 56" stroke-width="2"/><path fill="#ddd7ff" stroke="#7854ab" d="M16 53.333v5.334h5.333L24 56v-5.333h-5.333z" stroke-width="2"/><path fill="#ddd7ff" stroke="#7854ab" d="M16 53.333h5.333v5.334M21.333 53.333L24 50.667" stroke-width="2"/><path fill="#ddd7ff" stroke="#7854ab" d="M16 48v5.333h5.333L24 50.667v-5.334h-5.333z" stroke-width="2"/><path fill="#ddd7ff" stroke="#7854ab" d="M16 48h5.333v5.333M21.333 48L24 45.333M21.333 96v5.333h5.334l2.666-2.666v-5.334H24z" stroke-width="2"/><path fill="#ddd7ff" stroke="#7854ab" d="M21.333 96h5.334v5.333M26.667 96l2.666-2.667" stroke-width="2"/><path fill="#ddd7ff" stroke="#7854ab" d="M21.333 90.667V96h5.334l2.666-2.667V88H24z" stroke-width="2"/><path fill="#ddd7ff" stroke="#7854ab" d="M21.333 90.667h5.334V96M26.667 90.667L29.333 88" stroke-width="2"/><path fill="#ddd7ff" stroke="#7854ab" d="M21.333 85.333v5.334h5.334L29.333 88v-5.333H24z" stroke-width="2"/><path fill="#ddd7ff" stroke="#7854ab" d="M21.333 85.333h5.334v5.334M26.667 85.333l2.666-2.666" stroke-width="2"/><path fill="#ddd7ff" stroke="#7854ab" d="M21.333 80v5.333h5.334l2.666-2.666v-5.334H24z" stroke-width="2"/><path fill="#ddd7ff" stroke="#7854ab" d="M21.333 80h5.334v5.333M26.667 80l2.666-2.667" stroke-width="2"/><path fill="#ddd7ff" stroke="#7854ab" d="M21.333 74.667V80h5.334l2.666-2.667V72H24z" stroke-width="2"/><path fill="#ddd7ff" stroke="#7854ab" d="M21.333 74.667h5.334V80M26.667 74.667L29.333 72" stroke-width="2"/><path fill="#ddd7ff" stroke="#7854ab" d="M21.333 69.333v5.334h5.334L29.333 72v-5.333H24z" stroke-width="2"/><path fill="#ddd7ff" stroke="#7854ab" d="M21.333 69.333h5.334v5.334M26.667 69.333l2.666-2.666" stroke-width="2"/><path fill="#ddd7ff" stroke="#7854ab" d="M21.333 64v5.333h5.334l2.666-2.666v-5.334H24z" stroke-width="2"/><path fill="#ddd7ff" stroke="#7854ab" d="M21.333 64h5.334v5.333M26.667 64l2.666-2.667" stroke-width="2"/><path fill="#ddd7ff" stroke="#7854ab" d="M21.333 58.667V64h5.334l2.666-2.667V56H24z" stroke-width="2"/><path fill="#ddd7ff" stroke="#7854ab" d="M21.333 58.667h5.334V64M26.667 58.667L29.333 56" stroke-width="2"/><path fill="#ddd7ff" stroke="#7854ab" d="M21.333 53.333v5.334h5.334L29.333 56v-5.333H24z" stroke-width="2"/><path fill="#ddd7ff" stroke="#7854ab" d="M21.333 53.333h5.334v5.334M26.667 53.333l2.666-2.666" stroke-width="2"/><path fill="#ddd7ff" stroke="#7854ab" d="M21.333 48v5.333h5.334l2.666-2.666v-5.334H24z" stroke-width="2"/><path fill="#ddd7ff" stroke="#7854ab" d="M21.333 48h5.334v5.333M26.667 48l2.666-2.667M26.667 96v5.333H32l2.667-2.666v-5.334h-5.334z" stroke-width="2"/><path fill="#ddd7ff" stroke="#7854ab" d="M26.667 96H32v5.333M32 96l2.667-2.667" stroke-width="2"/><path fill="#ddd7ff" stroke="#7854ab" d="M26.667 90.667V96H32l2.667-2.667V88h-5.334z" stroke-width="2"/><path fill="#ddd7ff" stroke="#7854ab" d="M26.667 90.667H32V96M32 90.667L34.667 88" stroke-width="2"/><path fill="#ddd7ff" stroke="#7854ab" d="M26.667 85.333v5.334H32L34.667 88v-5.333h-5.334z" stroke-width="2"/><path fill="#ddd7ff" stroke="#7854ab" d="M26.667 85.333H32v5.334M32 85.333l2.667-2.666" stroke-width="2"/><path fill="#ddd7ff" stroke="#7854ab" d="M26.667 80v5.333H32l2.667-2.666v-5.334h-5.334z" stroke-width="2"/><path fill="#ddd7ff" stroke="#7854ab" d="M26.667 80H32v5.333M32 80l2.667-2.667" stroke-width="2"/><path fill="#ddd7ff" stroke="#7854ab" d="M26.667 74.667V80H32l2.667-2.667V72h-5.334z" stroke-width="2"/><path fill="#ddd7ff" stroke="#7854ab" d="M26.667 74.667H32V80M32 74.667L34.667 72" stroke-width="2"/><path fill="#ddd7ff" stroke="#7854ab" d="M26.667 69.333v5.334H32L34.667 72v-5.333h-5.334z" stroke-width="2"/><path fill="#ddd7ff" stroke="#7854ab" d="M26.667 69.333H32v5.334M32 69.333l2.667-2.666" stroke-width="2"/><path fill="#ddd7ff" stroke="#7854ab" d="M26.667 64v5.333H32l2.667-2.666v-5.334h-5.334z" stroke-width="2"/><path fill="#ddd7ff" stroke="#7854ab" d="M26.667 64H32v5.333M32 64l2.667-2.667" stroke-width="2"/><path fill="#ddd7ff" stroke="#7854ab" d="M26.667 58.667V64H32l2.667-2.667V56h-5.334z" stroke-width="2"/><path fill="#ddd7ff" stroke="#7854ab" d="M26.667 58.667H32V64M32 58.667L34.667 56" stroke-width="2"/><path fill="#ddd7ff" stroke="#7854ab" d="M26.667 53.333v5.334H32L34.667 56v-5.333h-5.334z" stroke-width="2"/><path fill="#ddd7ff" stroke="#7854ab" d="M26.667 53.333H32v5.334M32 53.333l2.667-2.666" stroke-width="2"/><path fill="#ddd7ff" stroke="#7854ab" d="M26.667 48v5.333H32l2.667-2.666v-5.334h-5.334z" stroke-width="2"/><path fill="#ddd7ff" stroke="#7854ab" d="M26.667 48H32v5.333M32 48l2.667-2.667M32 96v5.333h5.333L40 98.667v-5.334h-5.333z" stroke-width="2"/><path fill="#ddd7ff" stroke="#7854ab" d="M32 96h5.333v5.333M37.333 96L40 93.333" stroke-width="2"/><path fill="#ddd7ff" stroke="#7854ab" d="M32 90.667V96h5.333L40 93.333V88h-5.333z" stroke-width="2"/><path fill="#ddd7ff" stroke="#7854ab" d="M32 90.667h5.333V96M37.333 90.667L40 88" stroke-width="2"/><path fill="#ddd7ff" stroke="#7854ab" d="M32 85.333v5.334h5.333L40 88v-5.333h-5.333z" stroke-width="2"/><path fill="#ddd7ff" stroke="#7854ab" d="M32 85.333h5.333v5.334M37.333 85.333L40 82.667" stroke-width="2"/><path fill="#ddd7ff" stroke="#7854ab" d="M32 80v5.333h5.333L40 82.667v-5.334h-5.333z" stroke-width="2"/><path fill="#ddd7ff" stroke="#7854ab" d="M32 80h5.333v5.333M37.333 80L40 77.333" stroke-width="2"/><path fill="#ddd7ff" stroke="#7854ab" d="M32 74.667V80h5.333L40 77.333V72h-5.333z" stroke-width="2"/><path fill="#ddd7ff" stroke="#7854ab" d="M32 74.667h5.333V80M37.333 74.667L40 72" stroke-width="2"/><path fill="#ddd7ff" stroke="#7854ab" d="M32 69.333v5.334h5.333L40 72v-5.333h-5.333z" stroke-width="2"/><path fill="#ddd7ff" stroke="#7854ab" d="M32 69.333h5.333v5.334M37.333 69.333L40 66.667" stroke-width="2"/><path fill="#ddd7ff" stroke="#7854ab" d="M32 64v5.333h5.333L40 66.667v-5.334h-5.333z" stroke-width="2"/><path fill="#ddd7ff" stroke="#7854ab" d="M32 64h5.333v5.333M37.333 64L40 61.333" stroke-width="2"/><path fill="#ddd7ff" stroke="#7854ab" d="M32 58.667V64h5.333L40 61.333V56h-5.333z" stroke-width="2"/><path fill="#ddd7ff" stroke="#7854ab" d="M32 58.667h5.333V64M37.333 58.667L40 56" stroke-width="2"/><path fill="#ddd7ff" stroke="#7854ab" d="M32 53.333v5.334h5.333L40 56v-5.333h-5.333z" stroke-width="2"/><path fill="#ddd7ff" stroke="#7854ab" d="M32 53.333h5.333v5.334M37.333 53.333L40 50.667" stroke-width="2"/><path fill="#ddd7ff" stroke="#7854ab" d="M32 48v5.333h5.333L40 50.667v-5.334h-5.333z" stroke-width="2"/><path fill="#ddd7ff" stroke="#7854ab" d="M32 48h5.333v5.333M37.333 48L40 45.333M37.333 96v5.333h5.334l2.666-2.666v-5.334H40z" stroke-width="2"/><path fill="#ddd7ff" stroke="#7854ab" d="M37.333 96h5.334v5.333M42.667 96l2.666-2.667" stroke-width="2"/><path fill="#ddd7ff" stroke="#7854ab" d="M37.333 90.667V96h5.334l2.666-2.667V88H40z" stroke-width="2"/><path fill="#ddd7ff" stroke="#7854ab" d="M37.333 90.667h5.334V96M42.667 90.667L45.333 88" stroke-width="2"/><path fill="#ddd7ff" stroke="#7854ab" d="M37.333 85.333v5.334h5.334L45.333 88v-5.333H40z" stroke-width="2"/><path fill="#ddd7ff" stroke="#7854ab" d="M37.333 85.333h5.334v5.334M42.667 85.333l2.666-2.666" stroke-width="2"/><path fill="#ddd7ff" stroke="#7854ab" d="M37.333 80v5.333h5.334l2.666-2.666v-5.334H40z" stroke-width="2"/><path fill="#ddd7ff" stroke="#7854ab" d="M37.333 80h5.334v5.333M42.667 80l2.666-2.667" stroke-width="2"/><path fill="#ddd7ff" stroke="#7854ab" d="M37.333 74.667V80h5.334l2.666-2.667V72H40z" stroke-width="2"/><path fill="#ddd7ff" stroke="#7854ab" d="M37.333 74.667h5.334V80M42.667 74.667L45.333 72" stroke-width="2"/><path fill="#ddd7ff" stroke="#7854ab" d="M37.333 69.333v5.334h5.334L45.333 72v-5.333H40z" stroke-width="2"/><path fill="#ddd7ff" stroke="#7854ab" d="M37.333 69.333h5.334v5.334M42.667 69.333l2.666-2.666" stroke-width="2"/><path fill="#ddd7ff" stroke="#7854ab" d="M37.333 64v5.333h5.334l2.666-2.666v-5.334H40z" stroke-width="2"/><path fill="#ddd7ff" stroke="#7854ab" d="M37.333 64h5.334v5.333M42.667 64l2.666-2.667" stroke-width="2"/><path fill="#ddd7ff" stroke="#7854ab" d="M37.333 58.667V64h5.334l2.666-2.667V56H40z" stroke-width="2"/><path fill="#ddd7ff" stroke="#7854ab" d="M37.333 58.667h5.334V64M42.667 58.667L45.333 56" stroke-width="2"/><path fill="#ddd7ff" stroke="#7854ab" d="M37.333 53.333v5.334h5.334L45.333 56v-5.333H40z" stroke-width="2"/><path fill="#ddd7ff" stroke="#7854ab" d="M37.333 53.333h5.334v5.334M42.667 53.333l2.666-2.666" stroke-width="2"/><path fill="#ddd7ff" stroke="#7854ab" d="M37.333 48v5.333h5.334l2.666-2.666v-5.334H40z" stroke-width="2"/><path fill="#ddd7ff" stroke="#7854ab" d="M37.333 48h5.334v5.333M42.667 48l2.666-2.667M42.667 96v5.333H48l2.667-2.666v-5.334h-5.334z" stroke-width="2"/><path fill="#ddd7ff" stroke="#7854ab" d="M42.667 96H48v5.333M48 96l2.667-2.667" stroke-width="2"/><path fill="#ddd7ff" stroke="#7854ab" d="M42.667 90.667V96H48l2.667-2.667V88h-5.334z" stroke-width="2"/><path fill="#ddd7ff" stroke="#7854ab" d="M42.667 90.667H48V96M48 90.667L50.667 88" stroke-width="2"/><path fill="#ddd7ff" stroke="#7854ab" d="M42.667 85.333v5.334H48L50.667 88v-5.333h-5.334z" stroke-width="2"/><path fill="#ddd7ff" stroke="#7854ab" d="M42.667 85.333H48v5.334M48 85.333l2.667-2.666" stroke-width="2"/><path fill="#ddd7ff" stroke="#7854ab" d="M42.667 80v5.333H48l2.667-2.666v-5.334h-5.334z" stroke-width="2"/><path fill="#ddd7ff" stroke="#7854ab" d="M42.667 80H48v5.333M48 80l2.667-2.667" stroke-width="2"/><path fill="#ddd7ff" stroke="#7854ab" d="M42.667 74.667V80H48l2.667-2.667V72h-5.334z" stroke-width="2"/><path fill="#ddd7ff" stroke="#7854ab" d="M42.667 74.667H48V80M48 74.667L50.667 72" stroke-width="2"/><path fill="#ddd7ff" stroke="#7854ab" d="M42.667 69.333v5.334H48L50.667 72v-5.333h-5.334z" stroke-width="2"/><path fill="#ddd7ff" stroke="#7854ab" d="M42.667 69.333H48v5.334M48 69.333l2.667-2.666" stroke-width="2"/><path fill="#ddd7ff" stroke="#7854ab" d="M42.667 64v5.333H48l2.667-2.666v-5.334h-5.334z" stroke-width="2"/><path fill="#ddd7ff" stroke="#7854ab" d="M42.667 64H48v5.333M48 64l2.667-2.667" stroke-width="2"/><path fill="#ddd7ff" stroke="#7854ab" d="M42.667 58.667V64H48l2.667-2.667V56h-5.334z" stroke-width="2"/><path fill="#ddd7ff" stroke="#7854ab" d="M42.667 58.667H48V64M48 58.667L50.667 56" stroke-width="2"/><path fill="#ddd7ff" stroke="#7854ab" d="M42.667 53.333v5.334H48L50.667 56v-5.333h-5.334z" stroke-width="2"/><path fill="#ddd7ff" stroke="#7854ab" d="M42.667 53.333H48v5.334M48 53.333l2.667-2.666" stroke-width="2"/><path fill="#ddd7ff" stroke="#7854ab" d="M42.667 48v5.333H48l2.667-2.666v-5.334h-5.334z" stroke-width="2"/><path fill="#ddd7ff" stroke="#7854ab" d="M42.667 48H48v5.333M48 48l2.667-2.667M48 96v5.333h5.333L56 98.667v-5.334h-5.333z" stroke-width="2"/><path fill="#ddd7ff" stroke="#7854ab" d="M48 96h5.333v5.333M53.333 96L56 93.333" stroke-width="2"/><path fill="#ddd7ff" stroke="#7854ab" d="M48 90.667V96h5.333L56 93.333V88h-5.333z" stroke-width="2"/><path fill="#ddd7ff" stroke="#7854ab" d="M48 90.667h5.333V96M53.333 90.667L56 88" stroke-width="2"/><path fill="#ddd7ff" stroke="#7854ab" d="M48 85.333v5.334h5.333L56 88v-5.333h-5.333z" stroke-width="2"/><path fill="#ddd7ff" stroke="#7854ab" d="M48 85.333h5.333v5.334M53.333 85.333L56 82.667" stroke-width="2"/><path fill="#ddd7ff" stroke="#7854ab" d="M48 80v5.333h5.333L56 82.667v-5.334h-5.333z" stroke-width="2"/><path fill="#ddd7ff" stroke="#7854ab" d="M48 80h5.333v5.333M53.333 80L56 77.333" stroke-width="2"/><path fill="#ddd7ff" stroke="#7854ab" d="M48 74.667V80h5.333L56 77.333V72h-5.333z" stroke-width="2"/><path fill="#ddd7ff" stroke="#7854ab" d="M48 74.667h5.333V80M53.333 74.667L56 72" stroke-width="2"/><path fill="#ddd7ff" stroke="#7854ab" d="M48 69.333v5.334h5.333L56 72v-5.333h-5.333z" stroke-width="2"/><path fill="#ddd7ff" stroke="#7854ab" d="M48 69.333h5.333v5.334M53.333 69.333L56 66.667" stroke-width="2"/><path fill="#ddd7ff" stroke="#7854ab" d="M48 64v5.333h5.333L56 66.667v-5.334h-5.333z" stroke-width="2"/><path fill="#ddd7ff" stroke="#7854ab" d="M48 64h5.333v5.333M53.333 64L56 61.333" stroke-width="2"/><path fill="#ddd7ff" stroke="#7854ab" d="M48 58.667V64h5.333L56 61.333V56h-5.333z" stroke-width="2"/><path fill="#ddd7ff" stroke="#7854ab" d="M48 58.667h5.333V64M53.333 58.667L56 56" stroke-width="2"/><path fill="#ddd7ff" stroke="#7854ab" d="M48 53.333v5.334h5.333L56 56v-5.333h-5.333z" stroke-width="2"/><path fill="#ddd7ff" stroke="#7854ab" d="M48 53.333h5.333v5.334M53.333 53.333L56 50.667" stroke-width="2"/><path fill="#ddd7ff" stroke="#7854ab" d="M48 48v5.333h5.333L56 50.667v-5.334h-5.333z" stroke-width="2"/><path fill="#ddd7ff" stroke="#7854ab" d="M48 48h5.333v5.333M53.333 48L56 45.333M53.333 96v5.333h5.334l2.666-2.666v-5.334H56z" stroke-width="2"/><path fill="#ddd7ff" stroke="#7854ab" d="M53.333 96h5.334v5.333M58.667 96l2.666-2.667" stroke-width="2"/><path fill="#ddd7ff" stroke="#7854ab" d="M53.333 90.667V96h5.334l2.666-2.667V88H56z" stroke-width="2"/><path fill="#ddd7ff" stroke="#7854ab" d="M53.333 90.667h5.334V96M58.667 90.667L61.333 88" stroke-width="2"/><path fill="#ddd7ff" stroke="#7854ab" d="M53.333 85.333v5.334h5.334L61.333 88v-5.333H56z" stroke-width="2"/><path fill="#ddd7ff" stroke="#7854ab" d="M53.333 85.333h5.334v5.334M58.667 85.333l2.666-2.666" stroke-width="2"/><path fill="#ddd7ff" stroke="#7854ab" d="M53.333 80v5.333h5.334l2.666-2.666v-5.334H56z" stroke-width="2"/><path fill="#ddd7ff" stroke="#7854ab" d="M53.333 80h5.334v5.333M58.667 80l2.666-2.667" stroke-width="2"/><path fill="#ddd7ff" stroke="#7854ab" d="M53.333 74.667V80h5.334l2.666-2.667V72H56z" stroke-width="2"/><path fill="#ddd7ff" stroke="#7854ab" d="M53.333 74.667h5.334V80M58.667 74.667L61.333 72" stroke-width="2"/><path fill="#ddd7ff" stroke="#7854ab" d="M53.333 69.333v5.334h5.334L61.333 72v-5.333H56z" stroke-width="2"/><path fill="#ddd7ff" stroke="#7854ab" d="M53.333 69.333h5.334v5.334M58.667 69.333l2.666-2.666" stroke-width="2"/><path fill="#ddd7ff" stroke="#7854ab" d="M53.333 64v5.333h5.334l2.666-2.666v-5.334H56z" stroke-width="2"/><path fill="#ddd7ff" stroke="#7854ab" d="M53.333 64h5.334v5.333M58.667 64l2.666-2.667" stroke-width="2"/><path fill="#ddd7ff" stroke="#7854ab" d="M53.333 58.667V64h5.334l2.666-2.667V56H56z" stroke-width="2"/><path fill="#ddd7ff" stroke="#7854ab" d="M53.333 58.667h5.334V64M58.667 58.667L61.333 56" stroke-width="2"/><path fill="#ddd7ff" stroke="#7854ab" d="M53.333 53.333v5.334h5.334L61.333 56v-5.333H56z" stroke-width="2"/><path fill="#ddd7ff" stroke="#7854ab" d="M53.333 53.333h5.334v5.334M58.667 53.333l2.666-2.666" stroke-width="2"/><path fill="#ddd7ff" stroke="#7854ab" d="M53.333 48v5.333h5.334l2.666-2.666v-5.334H56z" stroke-width="2"/><path fill="#ddd7ff" stroke="#7854ab" d="M53.333 48h5.334v5.333M58.667 48l2.666-2.667M69.333 96v5.333h5.334l2.666-2.666v-5.334H72z" stroke-width="2"/><path fill="#ddd7ff" stroke="#7854ab" d="M69.333 96h5.334v5.333M74.667 96l2.666-2.667" stroke-width="2"/><path fill="#ddd7ff" stroke="#7854ab" d="M69.333 90.667V96h5.334l2.666-2.667V88H72z" stroke-width="2"/><path fill="#ddd7ff" stroke="#7854ab" d="M69.333 90.667h5.334V96M74.667 90.667L77.333 88" stroke-width="2"/><path fill="#ddd7ff" stroke="#7854ab" d="M69.333 85.333v5.334h5.334L77.333 88v-5.333H72z" stroke-width="2"/><path fill="#ddd7ff" stroke="#7854ab" d="M69.333 85.333h5.334v5.334M74.667 85.333l2.666-2.666" stroke-width="2"/><path fill="#ddd7ff" stroke="#7854ab" d="M69.333 80v5.333h5.334l2.666-2.666v-5.334H72z" stroke-width="2"/><path fill="#ddd7ff" stroke="#7854ab" d="M69.333 80h5.334v5.333M74.667 80l2.666-2.667" stroke-width="2"/><path fill="#ddd7ff" stroke="#7854ab" d="M69.333 74.667V80h5.334l2.666-2.667V72H72z" stroke-width="2"/><path fill="#ddd7ff" stroke="#7854ab" d="M69.333 74.667h5.334V80M74.667 74.667L77.333 72" stroke-width="2"/><path fill="#ddd7ff" stroke="#7854ab" d="M69.333 69.333v5.334h5.334L77.333 72v-5.333H72z" stroke-width="2"/><path fill="#ddd7ff" stroke="#7854ab" d="M69.333 69.333h5.334v5.334M74.667 69.333l2.666-2.666" stroke-width="2"/><path fill="#ddd7ff" stroke="#7854ab" d="M69.333 64v5.333h5.334l2.666-2.666v-5.334H72z" stroke-width="2"/><path fill="#ddd7ff" stroke="#7854ab" d="M69.333 64h5.334v5.333M74.667 64l2.666-2.667" stroke-width="2"/><path fill="#ddd7ff" stroke="#7854ab" d="M69.333 58.667V64h5.334l2.666-2.667V56H72z" stroke-width="2"/><path fill="#ddd7ff" stroke="#7854ab" d="M69.333 58.667h5.334V64M74.667 58.667L77.333 56" stroke-width="2"/><path fill="#ddd7ff" stroke="#7854ab" d="M69.333 53.333v5.334h5.334L77.333 56v-5.333H72z" stroke-width="2"/><path fill="#ddd7ff" stroke="#7854ab" d="M69.333 53.333h5.334v5.334M74.667 53.333l2.666-2.666" stroke-width="2"/><path fill="#ddd7ff" stroke="#7854ab" d="M69.333 48v5.333h5.334l2.666-2.666v-5.334H72z" stroke-width="2"/><path fill="#ddd7ff" stroke="#7854ab" d="M69.333 48h5.334v5.333M74.667 48l2.666-2.667M74.667 96v5.333H80l2.667-2.666v-5.334h-5.334z" stroke-width="2"/><path fill="#ddd7ff" stroke="#7854ab" d="M74.667 96H80v5.333M80 96l2.667-2.667" stroke-width="2"/><path fill="#ddd7ff" stroke="#7854ab" d="M74.667 90.667V96H80l2.667-2.667V88h-5.334z" stroke-width="2"/><path fill="#ddd7ff" stroke="#7854ab" d="M74.667 90.667H80V96M80 90.667L82.667 88" stroke-width="2"/><path fill="#ddd7ff" stroke="#7854ab" d="M74.667 85.333v5.334H80L82.667 88v-5.333h-5.334z" stroke-width="2"/><path fill="#ddd7ff" stroke="#7854ab" d="M74.667 85.333H80v5.334M80 85.333l2.667-2.666" stroke-width="2"/><path fill="#ddd7ff" stroke="#7854ab" d="M74.667 80v5.333H80l2.667-2.666v-5.334h-5.334z" stroke-width="2"/><path fill="#ddd7ff" stroke="#7854ab" d="M74.667 80H80v5.333M80 80l2.667-2.667" stroke-width="2"/><path fill="#ddd7ff" stroke="#7854ab" d="M74.667 74.667V80H80l2.667-2.667V72h-5.334z" stroke-width="2"/><path fill="#ddd7ff" stroke="#7854ab" d="M74.667 74.667H80V80M80 74.667L82.667 72" stroke-width="2"/><path fill="#ddd7ff" stroke="#7854ab" d="M74.667 69.333v5.334H80L82.667 72v-5.333h-5.334z" stroke-width="2"/><path fill="#ddd7ff" stroke="#7854ab" d="M74.667 69.333H80v5.334M80 69.333l2.667-2.666" stroke-width="2"/><path fill="#ddd7ff" stroke="#7854ab" d="M74.667 64v5.333H80l2.667-2.666v-5.334h-5.334z" stroke-width="2"/><path fill="#ddd7ff" stroke="#7854ab" d="M74.667 64H80v5.333M80 64l2.667-2.667" stroke-width="2"/><path fill="#ddd7ff" stroke="#7854ab" d="M74.667 58.667V64H80l2.667-2.667V56h-5.334z" stroke-width="2"/><path fill="#ddd7ff" stroke="#7854ab" d="M74.667 58.667H80V64M80 58.667L82.667 56" stroke-width="2"/><path fill="#ddd7ff" stroke="#7854ab" d="M74.667 53.333v5.334H80L82.667 56v-5.333h-5.334z" stroke-width="2"/><path fill="#ddd7ff" stroke="#7854ab" d="M74.667 53.333H80v5.334M80 53.333l2.667-2.666" stroke-width="2"/><path fill="#ddd7ff" stroke="#7854ab" d="M74.667 48v5.333H80l2.667-2.666v-5.334h-5.334z" stroke-width="2"/><path fill="#ddd7ff" stroke="#7854ab" d="M74.667 48H80v5.333M80 48l2.667-2.667M80 96v5.333h5.333L88 98.667v-5.334h-5.333z" stroke-width="2"/><path fill="#ddd7ff" stroke="#7854ab" d="M80 96h5.333v5.333M85.333 96L88 93.333" stroke-width="2"/><path fill="#ddd7ff" stroke="#7854ab" d="M80 90.667V96h5.333L88 93.333V88h-5.333z" stroke-width="2"/><path fill="#ddd7ff" stroke="#7854ab" d="M80 90.667h5.333V96M85.333 90.667L88 88" stroke-width="2"/><path fill="#ddd7ff" stroke="#7854ab" d="M80 85.333v5.334h5.333L88 88v-5.333h-5.333z" stroke-width="2"/><path fill="#ddd7ff" stroke="#7854ab" d="M80 85.333h5.333v5.334M85.333 85.333L88 82.667" stroke-width="2"/><path fill="#ddd7ff" stroke="#7854ab" d="M80 80v5.333h5.333L88 82.667v-5.334h-5.333z" stroke-width="2"/><path fill="#ddd7ff" stroke="#7854ab" d="M80 80h5.333v5.333M85.333 80L88 77.333" stroke-width="2"/><path fill="#ddd7ff" stroke="#7854ab" d="M80 74.667V80h5.333L88 77.333V72h-5.333z" stroke-width="2"/><path fill="#ddd7ff" stroke="#7854ab" d="M80 74.667h5.333V80M85.333 74.667L88 72" stroke-width="2"/><path fill="#ddd7ff" stroke="#7854ab" d="M80 69.333v5.334h5.333L88 72v-5.333h-5.333z" stroke-width="2"/><path fill="#ddd7ff" stroke="#7854ab" d="M80 69.333h5.333v5.334M85.333 69.333L88 66.667" stroke-width="2"/><path fill="#ddd7ff" stroke="#7854ab" d="M80 64v5.333h5.333L88 66.667v-5.334h-5.333z" stroke-width="2"/><path fill="#ddd7ff" stroke="#7854ab" d="M80 64h5.333v5.333M85.333 64L88 61.333" stroke-width="2"/><path fill="#ddd7ff" stroke="#7854ab" d="M80 58.667V64h5.333L88 61.333V56h-5.333z" stroke-width="2"/><path fill="#ddd7ff" stroke="#7854ab" d="M80 58.667h5.333V64M85.333 58.667L88 56" stroke-width="2"/><path fill="#ddd7ff" stroke="#7854ab" d="M80 53.333v5.334h5.333L88 56v-5.333h-5.333z" stroke-width="2"/><path fill="#ddd7ff" stroke="#7854ab" d="M80 53.333h5.333v5.334M85.333 53.333L88 50.667" stroke-width="2"/><path fill="#ddd7ff" stroke="#7854ab" d="M80 48v5.333h5.333L88 50.667v-5.334h-5.333z" stroke-width="2"/><path fill="#ddd7ff" stroke="#7854ab" d="M80 48h5.333v5.333M85.333 48L88 45.333M85.333 96v5.333h5.334l2.666-2.666v-5.334H88z" stroke-width="2"/><path fill="#ddd7ff" stroke="#7854ab" d="M85.333 96h5.334v5.333M90.667 96l2.666-2.667" stroke-width="2"/><path fill="#ddd7ff" stroke="#7854ab" d="M85.333 90.667V96h5.334l2.666-2.667V88H88z" stroke-width="2"/><path fill="#ddd7ff" stroke="#7854ab" d="M85.333 90.667h5.334V96M90.667 90.667L93.333 88" stroke-width="2"/><path fill="#ddd7ff" stroke="#7854ab" d="M85.333 85.333v5.334h5.334L93.333 88v-5.333H88z" stroke-width="2"/><path fill="#ddd7ff" stroke="#7854ab" d="M85.333 85.333h5.334v5.334M90.667 85.333l2.666-2.666" stroke-width="2"/><path fill="#ddd7ff" stroke="#7854ab" d="M85.333 80v5.333h5.334l2.666-2.666v-5.334H88z" stroke-width="2"/><path fill="#ddd7ff" stroke="#7854ab" d="M85.333 80h5.334v5.333M90.667 80l2.666-2.667" stroke-width="2"/><path fill="#ddd7ff" stroke="#7854ab" d="M85.333 74.667V80h5.334l2.666-2.667V72H88z" stroke-width="2"/><path fill="#ddd7ff" stroke="#7854ab" d="M85.333 74.667h5.334V80M90.667 74.667L93.333 72" stroke-width="2"/><path fill="#ddd7ff" stroke="#7854ab" d="M85.333 69.333v5.334h5.334L93.333 72v-5.333H88z" stroke-width="2"/><path fill="#ddd7ff" stroke="#7854ab" d="M85.333 69.333h5.334v5.334M90.667 69.333l2.666-2.666" stroke-width="2"/><path fill="#ddd7ff" stroke="#7854ab" d="M85.333 64v5.333h5.334l2.666-2.666v-5.334H88z" stroke-width="2"/><path fill="#ddd7ff" stroke="#7854ab" d="M85.333 64h5.334v5.333M90.667 64l2.666-2.667" stroke-width="2"/><path fill="#ddd7ff" stroke="#7854ab" d="M85.333 58.667V64h5.334l2.666-2.667V56H88z" stroke-width="2"/><path fill="#ddd7ff" stroke="#7854ab" d="M85.333 58.667h5.334V64M90.667 58.667L93.333 56" stroke-width="2"/><path fill="#ddd7ff" stroke="#7854ab" d="M85.333 53.333v5.334h5.334L93.333 56v-5.333H88z" stroke-width="2"/><path fill="#ddd7ff" stroke="#7854ab" d="M85.333 53.333h5.334v5.334M90.667 53.333l2.666-2.666" stroke-width="2"/><path fill="#ddd7ff" stroke="#7854ab" d="M85.333 48v5.333h5.334l2.666-2.666v-5.334H88z" stroke-width="2"/><path fill="#ddd7ff" stroke="#7854ab" d="M85.333 48h5.334v5.333M90.667 48l2.666-2.667M90.667 96v5.333H96l2.667-2.666v-5.334h-5.334z" stroke-width="2"/><path fill="#ddd7ff" stroke="#7854ab" d="M90.667 96H96v5.333M96 96l2.667-2.667" stroke-width="2"/><path fill="#ddd7ff" stroke="#7854ab" d="M90.667 90.667V96H96l2.667-2.667V88h-5.334z" stroke-width="2"/><path fill="#ddd7ff" stroke="#7854ab" d="M90.667 90.667H96V96M96 90.667L98.667 88" stroke-width="2"/><path fill="#ddd7ff" stroke="#7854ab" d="M90.667 85.333v5.334H96L98.667 88v-5.333h-5.334z" stroke-width="2"/><path fill="#ddd7ff" stroke="#7854ab" d="M90.667 85.333H96v5.334M96 85.333l2.667-2.666" stroke-width="2"/><path fill="#ddd7ff" stroke="#7854ab" d="M90.667 80v5.333H96l2.667-2.666v-5.334h-5.334z" stroke-width="2"/><path fill="#ddd7ff" stroke="#7854ab" d="M90.667 80H96v5.333M96 80l2.667-2.667" stroke-width="2"/><path fill="#ddd7ff" stroke="#7854ab" d="M90.667 74.667V80H96l2.667-2.667V72h-5.334z" stroke-width="2"/><path fill="#ddd7ff" stroke="#7854ab" d="M90.667 74.667H96V80M96 74.667L98.667 72" stroke-width="2"/><path fill="#ddd7ff" stroke="#7854ab" d="M90.667 69.333v5.334H96L98.667 72v-5.333h-5.334z" stroke-width="2"/><path fill="#ddd7ff" stroke="#7854ab" d="M90.667 69.333H96v5.334M96 69.333l2.667-2.666" stroke-width="2"/><path fill="#ddd7ff" stroke="#7854ab" d="M90.667 64v5.333H96l2.667-2.666v-5.334h-5.334z" stroke-width="2"/><path fill="#ddd7ff" stroke="#7854ab" d="M90.667 64H96v5.333M96 64l2.667-2.667" stroke-width="2"/><path fill="#ddd7ff" stroke="#7854ab" d="M90.667 58.667V64H96l2.667-2.667V56h-5.334z" stroke-width="2"/><path fill="#ddd7ff" stroke="#7854ab" d="M90.667 58.667H96V64M96 58.667L98.667 56" stroke-width="2"/><path fill="#ddd7ff" stroke="#7854ab" d="M90.667 53.333v5.334H96L98.667 56v-5.333h-5.334z" stroke-width="2"/><path fill="#ddd7ff" stroke="#7854ab" d="M90.667 53.333H96v5.334M96 53.333l2.667-2.666" stroke-width="2"/><path fill="#ddd7ff" stroke="#7854ab" d="M90.667 48v5.333H96l2.667-2.666v-5.334h-5.334z" stroke-width="2"/><path fill="#ddd7ff" stroke="#7854ab" d="M90.667 48H96v5.333M96 48l2.667-2.667M96 96v5.333h5.333L104 98.667v-5.334h-5.333z" stroke-width="2"/><path fill="#ddd7ff" stroke="#7854ab" d="M96 96h5.333v5.333M101.333 96L104 93.333" stroke-width="2"/><path fill="#ddd7ff" stroke="#7854ab" d="M96 90.667V96h5.333L104 93.333V88h-5.333z" stroke-width="2"/><path fill="#ddd7ff" stroke="#7854ab" d="M96 90.667h5.333V96M101.333 90.667L104 88" stroke-width="2"/><path fill="#ddd7ff" stroke="#7854ab" d="M96 85.333v5.334h5.333L104 88v-5.333h-5.333z" stroke-width="2"/><path fill="#ddd7ff" stroke="#7854ab" d="M96 85.333h5.333v5.334M101.333 85.333L104 82.667" stroke-width="2"/><path fill="#ddd7ff" stroke="#7854ab" d="M96 80v5.333h5.333L104 82.667v-5.334h-5.333z" stroke-width="2"/><path fill="#ddd7ff" stroke="#7854ab" d="M96 80h5.333v5.333M101.333 80L104 77.333" stroke-width="2"/><path fill="#ddd7ff" stroke="#7854ab" d="M96 74.667V80h5.333L104 77.333V72h-5.333z" stroke-width="2"/><path fill="#ddd7ff" stroke="#7854ab" d="M96 74.667h5.333V80M101.333 74.667L104 72" stroke-width="2"/><path fill="#ddd7ff" stroke="#7854ab" d="M96 69.333v5.334h5.333L104 72v-5.333h-5.333z" stroke-width="2"/><path fill="#ddd7ff" stroke="#7854ab" d="M96 69.333h5.333v5.334M101.333 69.333L104 66.667" stroke-width="2"/><path fill="#ddd7ff" stroke="#7854ab" d="M96 64v5.333h5.333L104 66.667v-5.334h-5.333z" stroke-width="2"/><path fill="#ddd7ff" stroke="#7854ab" d="M96 64h5.333v5.333M101.333 64L104 61.333" stroke-width="2"/><path fill="#ddd7ff" stroke="#7854ab" d="M96 58.667V64h5.333L104 61.333V56h-5.333z" stroke-width="2"/><path fill="#ddd7ff" stroke="#7854ab" d="M96 58.667h5.333V64M101.333 58.667L104 56" stroke-width="2"/><path fill="#ddd7ff" stroke="#7854ab" d="M96 53.333v5.334h5.333L104 56v-5.333h-5.333z" stroke-width="2"/><path fill="#ddd7ff" stroke="#7854ab" d="M96 53.333h5.333v5.334M101.333 53.333L104 50.667" stroke-width="2"/><path fill="#ddd7ff" stroke="#7854ab" d="M96 48v5.333h5.333L104 50.667v-5.334h-5.333z" stroke-width="2"/><path fill="#ddd7ff" stroke="#7854ab" d="M96 48h5.333v5.333M101.333 48L104 45.333M101.333 96v5.333h5.334l2.666-2.666v-5.334H104z" stroke-width="2"/><path fill="#ddd7ff" stroke="#7854ab" d="M101.333 96h5.334v5.333M106.667 96l2.666-2.667" stroke-width="2"/><path fill="#ddd7ff" stroke="#7854ab" d="M101.333 90.667V96h5.334l2.666-2.667V88H104z" stroke-width="2"/><path fill="#ddd7ff" stroke="#7854ab" d="M101.333 90.667h5.334V96M106.667 90.667L109.333 88" stroke-width="2"/><path fill="#ddd7ff" stroke="#7854ab" d="M101.333 85.333v5.334h5.334L109.333 88v-5.333H104z" stroke-width="2"/><path fill="#ddd7ff" stroke="#7854ab" d="M101.333 85.333h5.334v5.334M106.667 85.333l2.666-2.666" stroke-width="2"/><path fill="#ddd7ff" stroke="#7854ab" d="M101.333 80v5.333h5.334l2.666-2.666v-5.334H104z" stroke-width="2"/><path fill="#ddd7ff" stroke="#7854ab" d="M101.333 80h5.334v5.333M106.667 80l2.666-2.667" stroke-width="2"/><path fill="#ddd7ff" stroke="#7854ab" d="M101.333 74.667V80h5.334l2.666-2.667V72H104z" stroke-width="2"/><path fill="#ddd7ff" stroke="#7854ab" d="M101.333 74.667h5.334V80M106.667 74.667L109.333 72" stroke-width="2"/><path fill="#ddd7ff" stroke="#7854ab" d="M101.333 69.333v5.334h5.334L109.333 72v-5.333H104z" stroke-width="2"/><path fill="#ddd7ff" stroke="#7854ab" d="M101.333 69.333h5.334v5.334M106.667 69.333l2.666-2.666" stroke-width="2"/><path fill="#ddd7ff" stroke="#7854ab" d="M101.333 64v5.333h5.334l2.666-2.666v-5.334H104z" stroke-width="2"/><path fill="#ddd7ff" stroke="#7854ab" d="M101.333 64h5.334v5.333M106.667 64l2.666-2.667" stroke-width="2"/><path fill="#ddd7ff" stroke="#7854ab" d="M101.333 58.667V64h5.334l2.666-2.667V56H104z" stroke-width="2"/><path fill="#ddd7ff" stroke="#7854ab" d="M101.333 58.667h5.334V64M106.667 58.667L109.333 56" stroke-width="2"/><path fill="#ddd7ff" stroke="#7854ab" d="M101.333 53.333v5.334h5.334L109.333 56v-5.333H104z" stroke-width="2"/><path fill="#ddd7ff" stroke="#7854ab" d="M101.333 53.333h5.334v5.334M106.667 53.333l2.666-2.666" stroke-width="2"/><path fill="#ddd7ff" stroke="#7854ab" d="M101.333 48v5.333h5.334l2.666-2.666v-5.334H104z" stroke-width="2"/><path fill="#ddd7ff" stroke="#7854ab" d="M101.333 48h5.334v5.333M106.667 48l2.666-2.667M106.667 96v5.333H112l2.667-2.666v-5.334h-5.334z" stroke-width="2"/><path fill="#ddd7ff" stroke="#7854ab" d="M106.667 96H112v5.333M112 96l2.667-2.667" stroke-width="2"/><path fill="#ddd7ff" stroke="#7854ab" d="M106.667 90.667V96H112l2.667-2.667V88h-5.334z" stroke-width="2"/><path fill="#ddd7ff" stroke="#7854ab" d="M106.667 90.667H112V96M112 90.667L114.667 88" stroke-width="2"/><path fill="#ddd7ff" stroke="#7854ab" d="M106.667 85.333v5.334H112L114.667 88v-5.333h-5.334z" stroke-width="2"/><path fill="#ddd7ff" stroke="#7854ab" d="M106.667 85.333H112v5.334M112 85.333l2.667-2.666" stroke-width="2"/><path fill="#ddd7ff" stroke="#7854ab" d="M106.667 80v5.333H112l2.667-2.666v-5.334h-5.334z" stroke-width="2"/><path fill="#ddd7ff" stroke="#7854ab" d="M106.667 80H112v5.333M112 80l2.667-2.667" stroke-width="2"/><path fill="#ddd7ff" stroke="#7854ab" d="M106.667 74.667V80H112l2.667-2.667V72h-5.334z" stroke-width="2"/><path fill="#ddd7ff" stroke="#7854ab" d="M106.667 74.667H112V80M112 74.667L114.667 72" stroke-width="2"/><path fill="#ddd7ff" stroke="#7854ab" d="M106.667 69.333v5.334H112L114.667 72v-5.333h-5.334z" stroke-width="2"/><path fill="#ddd7ff" stroke="#7854ab" d="M106.667 69.333H112v5.334M112 69.333l2.667-2.666" stroke-width="2"/><path fill="#ddd7ff" stroke="#7854ab" d="M106.667 64v5.333H112l2.667-2.666v-5.334h-5.334z" stroke-width="2"/><path fill="#ddd7ff" stroke="#7854ab" d="M106.667 64H112v5.333M112 64l2.667-2.667" stroke-width="2"/><path fill="#ddd7ff" stroke="#7854ab" d="M106.667 58.667V64H112l2.667-2.667V56h-5.334z" stroke-width="2"/><path fill="#ddd7ff" stroke="#7854ab" d="M106.667 58.667H112V64M112 58.667L114.667 56" stroke-width="2"/><path fill="#ddd7ff" stroke="#7854ab" d="M106.667 53.333v5.334H112L114.667 56v-5.333h-5.334z" stroke-width="2"/><path fill="#ddd7ff" stroke="#7854ab" d="M106.667 53.333H112v5.334M112 53.333l2.667-2.666" stroke-width="2"/><path fill="#ddd7ff" stroke="#7854ab" d="M106.667 48v5.333H112l2.667-2.666v-5.334h-5.334z" stroke-width="2"/><path fill="#ddd7ff" stroke="#7854ab" d="M106.667 48H112v5.333M112 48l2.667-2.667M112 96v5.333h5.333L120 98.667v-5.334h-5.333z" stroke-width="2"/><path fill="#ddd7ff" stroke="#7854ab" d="M112 96h5.333v5.333M117.333 96L120 93.333" stroke-width="2"/><path fill="#ddd7ff" stroke="#7854ab" d="M112 90.667V96h5.333L120 93.333V88h-5.333z" stroke-width="2"/><path fill="#ddd7ff" stroke="#7854ab" d="M112 90.667h5.333V96M117.333 90.667L120 88" stroke-width="2"/><path fill="#ddd7ff" stroke="#7854ab" d="M112 85.333v5.334h5.333L120 88v-5.333h-5.333z" stroke-width="2"/><path fill="#ddd7ff" stroke="#7854ab" d="M112 85.333h5.333v5.334M117.333 85.333L120 82.667" stroke-width="2"/><path fill="#ddd7ff" stroke="#7854ab" d="M112 80v5.333h5.333L120 82.667v-5.334h-5.333z" stroke-width="2"/><path fill="#ddd7ff" stroke="#7854ab" d="M112 80h5.333v5.333M117.333 80L120 77.333" stroke-width="2"/><path fill="#ddd7ff" stroke="#7854ab" d="M112 74.667V80h5.333L120 77.333V72h-5.333z" stroke-width="2"/><path fill="#ddd7ff" stroke="#7854ab" d="M112 74.667h5.333V80M117.333 74.667L120 72" stroke-width="2"/><path fill="#ddd7ff" stroke="#7854ab" d="M112 69.333v5.334h5.333L120 72v-5.333h-5.333z" stroke-width="2"/><path fill="#ddd7ff" stroke="#7854ab" d="M112 69.333h5.333v5.334M117.333 69.333L120 66.667" stroke-width="2"/><path fill="#ddd7ff" stroke="#7854ab" d="M112 64v5.333h5.333L120 66.667v-5.334h-5.333z" stroke-width="2"/><path fill="#ddd7ff" stroke="#7854ab" d="M112 64h5.333v5.333M117.333 64L120 61.333" stroke-width="2"/><path fill="#ddd7ff" stroke="#7854ab" d="M112 58.667V64h5.333L120 61.333V56h-5.333z" stroke-width="2"/><path fill="#ddd7ff" stroke="#7854ab" d="M112 58.667h5.333V64M117.333 58.667L120 56" stroke-width="2"/><path fill="#ddd7ff" stroke="#7854ab" d="M112 53.333v5.334h5.333L120 56v-5.333h-5.333z" stroke-width="2"/><path fill="#ddd7ff" stroke="#7854ab" d="M112 53.333h5.333v5.334M117.333 53.333L120 50.667" stroke-width="2"/><path fill="#ddd7ff" stroke="#7854ab" d="M112 48v5.333h5.333L120 50.667v-5.334h-5.333z" stroke-width="2"/><path fill="#ddd7ff" stroke="#7854ab" d="M112 48h5.333v5.333M117.333 48L120 45.333M117.333 96v5.333h5.334l2.666-2.666v-5.334H120z" stroke-width="2"/><path fill="#ddd7ff" stroke="#7854ab" d="M117.333 96h5.334v5.333M122.667 96l2.666-2.667" stroke-width="2"/><path fill="#ddd7ff" stroke="#7854ab" d="M117.333 90.667V96h5.334l2.666-2.667V88H120z" stroke-width="2"/><path fill="#ddd7ff" stroke="#7854ab" d="M117.333 90.667h5.334V96M122.667 90.667L125.333 88" stroke-width="2"/><path fill="#ddd7ff" stroke="#7854ab" d="M117.333 85.333v5.334h5.334L125.333 88v-5.333H120z" stroke-width="2"/><path fill="#ddd7ff" stroke="#7854ab" d="M117.333 85.333h5.334v5.334M122.667 85.333l2.666-2.666" stroke-width="2"/><path fill="#ddd7ff" stroke="#7854ab" d="M117.333 80v5.333h5.334l2.666-2.666v-5.334H120z" stroke-width="2"/><path fill="#ddd7ff" stroke="#7854ab" d="M117.333 80h5.334v5.333M122.667 80l2.666-2.667" stroke-width="2"/><path fill="#ddd7ff" stroke="#7854ab" d="M117.333 74.667V80h5.334l2.666-2.667V72H120z" stroke-width="2"/><path fill="#ddd7ff" stroke="#7854ab" d="M117.333 74.667h5.334V80M122.667 74.667L125.333 72" stroke-width="2"/><path fill="#ddd7ff" stroke="#7854ab" d="M117.333 69.333v5.334h5.334L125.333 72v-5.333H120z" stroke-width="2"/><path fill="#ddd7ff" stroke="#7854ab" d="M117.333 69.333h5.334v5.334M122.667 69.333l2.666-2.666" stroke-width="2"/><path fill="#ddd7ff" stroke="#7854ab" d="M117.333 64v5.333h5.334l2.666-2.666v-5.334H120z" stroke-width="2"/><path fill="#ddd7ff" stroke="#7854ab" d="M117.333 64h5.334v5.333M122.667 64l2.666-2.667" stroke-width="2"/><path fill="#ddd7ff" stroke="#7854ab" d="M117.333 58.667V64h5.334l2.666-2.667V56H120z" stroke-width="2"/><path fill="#ddd7ff" stroke="#7854ab" d="M117.333 58.667h5.334V64M122.667 58.667L125.333 56" stroke-width="2"/><path fill="#ddd7ff" stroke="#7854ab" d="M117.333 53.333v5.334h5.334L125.333 56v-5.333H120z" stroke-width="2"/><path fill="#ddd7ff" stroke="#7854ab" d="M117.333 53.333h5.334v5.334M122.667 53.333l2.666-2.666" stroke-width="2"/><path fill="#ddd7ff" stroke="#7854ab" d="M117.333 48v5.333h5.334l2.666-2.666v-5.334H120z" stroke-width="2"/><path fill="#ddd7ff" stroke="#7854ab" d="M117.333 48h5.334v5.333M122.667 48l2.666-2.667M69.333 160v5.333h5.334l2.666-2.666v-5.334H72z" stroke-width="2"/><path fill="#ddd7ff" stroke="#7854ab" d="M69.333 160h5.334v5.333M74.667 160l2.666-2.667" stroke-width="2"/><path fill="#ddd7ff" stroke="#7854ab" d="M69.333 154.667V160h5.334l2.666-2.667V152H72z" stroke-width="2"/><path fill="#ddd7ff" stroke="#7854ab" d="M69.333 154.667h5.334V160M74.667 154.667L77.333 152" stroke-width="2"/><path fill="#ddd7ff" stroke="#7854ab" d="M69.333 149.333v5.334h5.334L77.333 152v-5.333H72z" stroke-width="2"/><path fill="#ddd7ff" stroke="#7854ab" d="M69.333 149.333h5.334v5.334M74.667 149.333l2.666-2.666" stroke-width="2"/><path fill="#ddd7ff" stroke="#7854ab" d="M69.333 144v5.333h5.334l2.666-2.666v-5.334H72z" stroke-width="2"/><path fill="#ddd7ff" stroke="#7854ab" d="M69.333 144h5.334v5.333M74.667 144l2.666-2.667" stroke-width="2"/><path fill="#ddd7ff" stroke="#7854ab" d="M69.333 138.667V144h5.334l2.666-2.667V136H72z" stroke-width="2"/><path fill="#ddd7ff" stroke="#7854ab" d="M69.333 138.667h5.334V144M74.667 138.667L77.333 136" stroke-width="2"/><path fill="#ddd7ff" stroke="#7854ab" d="M69.333 133.333v5.334h5.334L77.333 136v-5.333H72z" stroke-width="2"/><path fill="#ddd7ff" stroke="#7854ab" d="M69.333 133.333h5.334v5.334M74.667 133.333l2.666-2.666" stroke-width="2"/><path fill="#ddd7ff" stroke="#7854ab" d="M69.333 128v5.333h5.334l2.666-2.666v-5.334H72z" stroke-width="2"/><path fill="#ddd7ff" stroke="#7854ab" d="M69.333 128h5.334v5.333M74.667 128l2.666-2.667" stroke-width="2"/><path fill="#ddd7ff" stroke="#7854ab" d="M69.333 122.667V128h5.334l2.666-2.667V120H72z" stroke-width="2"/><path fill="#ddd7ff" stroke="#7854ab" d="M69.333 122.667h5.334V128M74.667 122.667L77.333 120" stroke-width="2"/><path fill="#ddd7ff" stroke="#7854ab" d="M69.333 117.333v5.334h5.334L77.333 120v-5.333H72z" stroke-width="2"/><path fill="#ddd7ff" stroke="#7854ab" d="M69.333 117.333h5.334v5.334M74.667 117.333l2.666-2.666" stroke-width="2"/><path fill="#ddd7ff" stroke="#7854ab" d="M69.333 112v5.333h5.334l2.666-2.666v-5.334H72z" stroke-width="2"/><path fill="#ddd7ff" stroke="#7854ab" d="M69.333 112h5.334v5.333M74.667 112l2.666-2.667M74.667 160v5.333H80l2.667-2.666v-5.334h-5.334z" stroke-width="2"/><path fill="#ddd7ff" stroke="#7854ab" d="M74.667 160H80v5.333M80 160l2.667-2.667" stroke-width="2"/><path fill="#ddd7ff" stroke="#7854ab" d="M74.667 154.667V160H80l2.667-2.667V152h-5.334z" stroke-width="2"/><path fill="#ddd7ff" stroke="#7854ab" d="M74.667 154.667H80V160M80 154.667L82.667 152" stroke-width="2"/><path fill="#ddd7ff" stroke="#7854ab" d="M74.667 149.333v5.334H80L82.667 152v-5.333h-5.334z" stroke-width="2"/><path fill="#ddd7ff" stroke="#7854ab" d="M74.667 149.333H80v5.334M80 149.333l2.667-2.666" stroke-width="2"/><path fill="#ddd7ff" stroke="#7854ab" d="M74.667 144v5.333H80l2.667-2.666v-5.334h-5.334z" stroke-width="2"/><path fill="#ddd7ff" stroke="#7854ab" d="M74.667 144H80v5.333M80 144l2.667-2.667" stroke-width="2"/><path fill="#ddd7ff" stroke="#7854ab" d="M74.667 138.667V144H80l2.667-2.667V136h-5.334z" stroke-width="2"/><path fill="#ddd7ff" stroke="#7854ab" d="M74.667 138.667H80V144M80 138.667L82.667 136" stroke-width="2"/><path fill="#ddd7ff" stroke="#7854ab" d="M74.667 133.333v5.334H80L82.667 136v-5.333h-5.334z" stroke-width="2"/><path fill="#ddd7ff" stroke="#7854ab" d="M74.667 133.333H80v5.334M80 133.333l2.667-2.666" stroke-width="2"/><path fill="#ddd7ff" stroke="#7854ab" d="M74.667 128v5.333H80l2.667-2.666v-5.334h-5.334z" stroke-width="2"/><path fill="#ddd7ff" stroke="#7854ab" d="M74.667 128H80v5.333M80 128l2.667-2.667" stroke-width="2"/><path fill="#ddd7ff" stroke="#7854ab" d="M74.667 122.667V128H80l2.667-2.667V120h-5.334z" stroke-width="2"/><path fill="#ddd7ff" stroke="#7854ab" d="M74.667 122.667H80V128M80 122.667L82.667 120" stroke-width="2"/><path fill="#ddd7ff" stroke="#7854ab" d="M74.667 117.333v5.334H80L82.667 120v-5.333h-5.334z" stroke-width="2"/><path fill="#ddd7ff" stroke="#7854ab" d="M74.667 117.333H80v5.334M80 117.333l2.667-2.666" stroke-width="2"/><path fill="#ddd7ff" stroke="#7854ab" d="M74.667 112v5.333H80l2.667-2.666v-5.334h-5.334z" stroke-width="2"/><path fill="#ddd7ff" stroke="#7854ab" d="M74.667 112H80v5.333M80 112l2.667-2.667M80 160v5.333h5.333L88 162.667v-5.334h-5.333z" stroke-width="2"/><path fill="#ddd7ff" stroke="#7854ab" d="M80 160h5.333v5.333M85.333 160L88 157.333" stroke-width="2"/><path fill="#ddd7ff" stroke="#7854ab" d="M80 154.667V160h5.333L88 157.333V152h-5.333z" stroke-width="2"/><path fill="#ddd7ff" stroke="#7854ab" d="M80 154.667h5.333V160M85.333 154.667L88 152" stroke-width="2"/><path fill="#ddd7ff" stroke="#7854ab" d="M80 149.333v5.334h5.333L88 152v-5.333h-5.333z" stroke-width="2"/><path fill="#ddd7ff" stroke="#7854ab" d="M80 149.333h5.333v5.334M85.333 149.333L88 146.667" stroke-width="2"/><path fill="#ddd7ff" stroke="#7854ab" d="M80 144v5.333h5.333L88 146.667v-5.334h-5.333z" stroke-width="2"/><path fill="#ddd7ff" stroke="#7854ab" d="M80 144h5.333v5.333M85.333 144L88 141.333" stroke-width="2"/><path fill="#ddd7ff" stroke="#7854ab" d="M80 138.667V144h5.333L88 141.333V136h-5.333z" stroke-width="2"/><path fill="#ddd7ff" stroke="#7854ab" d="M80 138.667h5.333V144M85.333 138.667L88 136" stroke-width="2"/><path fill="#ddd7ff" stroke="#7854ab" d="M80 133.333v5.334h5.333L88 136v-5.333h-5.333z" stroke-width="2"/><path fill="#ddd7ff" stroke="#7854ab" d="M80 133.333h5.333v5.334M85.333 133.333L88 130.667" stroke-width="2"/><path fill="#ddd7ff" stroke="#7854ab" d="M80 128v5.333h5.333L88 130.667v-5.334h-5.333z" stroke-width="2"/><path fill="#ddd7ff" stroke="#7854ab" d="M80 128h5.333v5.333M85.333 128L88 125.333" stroke-width="2"/><path fill="#ddd7ff" stroke="#7854ab" d="M80 122.667V128h5.333L88 125.333V120h-5.333z" stroke-width="2"/><path fill="#ddd7ff" stroke="#7854ab" d="M80 122.667h5.333V128M85.333 122.667L88 120" stroke-width="2"/><path fill="#ddd7ff" stroke="#7854ab" d="M80 117.333v5.334h5.333L88 120v-5.333h-5.333z" stroke-width="2"/><path fill="#ddd7ff" stroke="#7854ab" d="M80 117.333h5.333v5.334M85.333 117.333L88 114.667" stroke-width="2"/><path fill="#ddd7ff" stroke="#7854ab" d="M80 112v5.333h5.333L88 114.667v-5.334h-5.333z" stroke-width="2"/><path fill="#ddd7ff" stroke="#7854ab" d="M80 112h5.333v5.333M85.333 112L88 109.333M85.333 160v5.333h5.334l2.666-2.666v-5.334H88z" stroke-width="2"/><path fill="#ddd7ff" stroke="#7854ab" d="M85.333 160h5.334v5.333M90.667 160l2.666-2.667" stroke-width="2"/><path fill="#ddd7ff" stroke="#7854ab" d="M85.333 154.667V160h5.334l2.666-2.667V152H88z" stroke-width="2"/><path fill="#ddd7ff" stroke="#7854ab" d="M85.333 154.667h5.334V160M90.667 154.667L93.333 152" stroke-width="2"/><path fill="#ddd7ff" stroke="#7854ab" d="M85.333 149.333v5.334h5.334L93.333 152v-5.333H88z" stroke-width="2"/><path fill="#ddd7ff" stroke="#7854ab" d="M85.333 149.333h5.334v5.334M90.667 149.333l2.666-2.666" stroke-width="2"/><path fill="#ddd7ff" stroke="#7854ab" d="M85.333 144v5.333h5.334l2.666-2.666v-5.334H88z" stroke-width="2"/><path fill="#ddd7ff" stroke="#7854ab" d="M85.333 144h5.334v5.333M90.667 144l2.666-2.667" stroke-width="2"/><path fill="#ddd7ff" stroke="#7854ab" d="M85.333 138.667V144h5.334l2.666-2.667V136H88z" stroke-width="2"/><path fill="#ddd7ff" stroke="#7854ab" d="M85.333 138.667h5.334V144M90.667 138.667L93.333 136" stroke-width="2"/><path fill="#ddd7ff" stroke="#7854ab" d="M85.333 133.333v5.334h5.334L93.333 136v-5.333H88z" stroke-width="2"/><path fill="#ddd7ff" stroke="#7854ab" d="M85.333 133.333h5.334v5.334M90.667 133.333l2.666-2.666" stroke-width="2"/><path fill="#ddd7ff" stroke="#7854ab" d="M85.333 128v5.333h5.334l2.666-2.666v-5.334H88z" stroke-width="2"/><path fill="#ddd7ff" stroke="#7854ab" d="M85.333 128h5.334v5.333M90.667 128l2.666-2.667" stroke-width="2"/><path fill="#ddd7ff" stroke="#7854ab" d="M85.333 122.667V128h5.334l2.666-2.667V120H88z" stroke-width="2"/><path fill="#ddd7ff" stroke="#7854ab" d="M85.333 122.667h5.334V128M90.667 122.667L93.333 120" stroke-width="2"/><path fill="#ddd7ff" stroke="#7854ab" d="M85.333 117.333v5.334h5.334L93.333 120v-5.333H88z" stroke-width="2"/><path fill="#ddd7ff" stroke="#7854ab" d="M85.333 117.333h5.334v5.334M90.667 117.333l2.666-2.666" stroke-width="2"/><path fill="#ddd7ff" stroke="#7854ab" d="M85.333 112v5.333h5.334l2.666-2.666v-5.334H88z" stroke-width="2"/><path fill="#ddd7ff" stroke="#7854ab" d="M85.333 112h5.334v5.333M90.667 112l2.666-2.667M90.667 160v5.333H96l2.667-2.666v-5.334h-5.334z" stroke-width="2"/><path fill="#ddd7ff" stroke="#7854ab" d="M90.667 160H96v5.333M96 160l2.667-2.667" stroke-width="2"/><path fill="#ddd7ff" stroke="#7854ab" d="M90.667 154.667V160H96l2.667-2.667V152h-5.334z" stroke-width="2"/><path fill="#ddd7ff" stroke="#7854ab" d="M90.667 154.667H96V160M96 154.667L98.667 152" stroke-width="2"/><path fill="#ddd7ff" stroke="#7854ab" d="M90.667 149.333v5.334H96L98.667 152v-5.333h-5.334z" stroke-width="2"/><path fill="#ddd7ff" stroke="#7854ab" d="M90.667 149.333H96v5.334M96 149.333l2.667-2.666" stroke-width="2"/><path fill="#ddd7ff" stroke="#7854ab" d="M90.667 144v5.333H96l2.667-2.666v-5.334h-5.334z" stroke-width="2"/><path fill="#ddd7ff" stroke="#7854ab" d="M90.667 144H96v5.333M96 144l2.667-2.667" stroke-width="2"/><path fill="#ddd7ff" stroke="#7854ab" d="M90.667 138.667V144H96l2.667-2.667V136h-5.334z" stroke-width="2"/><path fill="#ddd7ff" stroke="#7854ab" d="M90.667 138.667H96V144M96 138.667L98.667 136" stroke-width="2"/><path fill="#ddd7ff" stroke="#7854ab" d="M90.667 133.333v5.334H96L98.667 136v-5.333h-5.334z" stroke-width="2"/><path fill="#ddd7ff" stroke="#7854ab" d="M90.667 133.333H96v5.334M96 133.333l2.667-2.666" stroke-width="2"/><path fill="#ddd7ff" stroke="#7854ab" d="M90.667 128v5.333H96l2.667-2.666v-5.334h-5.334z" stroke-width="2"/><path fill="#ddd7ff" stroke="#7854ab" d="M90.667 128H96v5.333M96 128l2.667-2.667" stroke-width="2"/><path fill="#ddd7ff" stroke="#7854ab" d="M90.667 122.667V128H96l2.667-2.667V120h-5.334z" stroke-width="2"/><path fill="#ddd7ff" stroke="#7854ab" d="M90.667 122.667H96V128M96 122.667L98.667 120" stroke-width="2"/><path fill="#ddd7ff" stroke="#7854ab" d="M90.667 117.333v5.334H96L98.667 120v-5.333h-5.334z" stroke-width="2"/><path fill="#ddd7ff" stroke="#7854ab" d="M90.667 117.333H96v5.334M96 117.333l2.667-2.666" stroke-width="2"/><path fill="#ddd7ff" stroke="#7854ab" d="M90.667 112v5.333H96l2.667-2.666v-5.334h-5.334z" stroke-width="2"/><path fill="#ddd7ff" stroke="#7854ab" d="M90.667 112H96v5.333M96 112l2.667-2.667M96 160v5.333h5.333l2.667-2.666v-5.334h-5.333z" stroke-width="2"/><path fill="#ddd7ff" stroke="#7854ab" d="M96 160h5.333v5.333M101.333 160l2.667-2.667" stroke-width="2"/><path fill="#ddd7ff" stroke="#7854ab" d="M96 154.667V160h5.333l2.667-2.667V152h-5.333z" stroke-width="2"/><path fill="#ddd7ff" stroke="#7854ab" d="M96 154.667h5.333V160M101.333 154.667L104 152" stroke-width="2"/><path fill="#ddd7ff" stroke="#7854ab" d="M96 149.333v5.334h5.333L104 152v-5.333h-5.333z" stroke-width="2"/><path fill="#ddd7ff" stroke="#7854ab" d="M96 149.333h5.333v5.334M101.333 149.333l2.667-2.666" stroke-width="2"/><path fill="#ddd7ff" stroke="#7854ab" d="M96 144v5.333h5.333l2.667-2.666v-5.334h-5.333z" stroke-width="2"/><path fill="#ddd7ff" stroke="#7854ab" d="M96 144h5.333v5.333M101.333 144l2.667-2.667" stroke-width="2"/><path fill="#ddd7ff" stroke="#7854ab" d="M96 138.667V144h5.333l2.667-2.667V136h-5.333z" stroke-width="2"/><path fill="#ddd7ff" stroke="#7854ab" d="M96 138.667h5.333V144M101.333 138.667L104 136" stroke-width="2"/><path fill="#ddd7ff" stroke="#7854ab" d="M96 133.333v5.334h5.333L104 136v-5.333h-5.333z" stroke-width="2"/><path fill="#ddd7ff" stroke="#7854ab" d="M96 133.333h5.333v5.334M101.333 133.333l2.667-2.666" stroke-width="2"/><path fill="#ddd7ff" stroke="#7854ab" d="M96 128v5.333h5.333l2.667-2.666v-5.334h-5.333z" stroke-width="2"/><path fill="#ddd7ff" stroke="#7854ab" d="M96 128h5.333v5.333M101.333 128l2.667-2.667" stroke-width="2"/><path fill="#ddd7ff" stroke="#7854ab" d="M96 122.667V128h5.333l2.667-2.667V120h-5.333z" stroke-width="2"/><path fill="#ddd7ff" stroke="#7854ab" d="M96 122.667h5.333V128M101.333 122.667L104 120" stroke-width="2"/><path fill="#ddd7ff" stroke="#7854ab" d="M96 117.333v5.334h5.333L104 120v-5.333h-5.333z" stroke-width="2"/><path fill="#ddd7ff" stroke="#7854ab" d="M96 117.333h5.333v5.334M101.333 117.333l2.667-2.666" stroke-width="2"/><path fill="#ddd7ff" stroke="#7854ab" d="M96 112v5.333h5.333l2.667-2.666v-5.334h-5.333z" stroke-width="2"/><path fill="#ddd7ff" stroke="#7854ab" d="M96 112h5.333v5.333M101.333 112l2.667-2.667M101.333 160v5.333h5.334l2.666-2.666v-5.334H104z" stroke-width="2"/><path fill="#ddd7ff" stroke="#7854ab" d="M101.333 160h5.334v5.333M106.667 160l2.666-2.667" stroke-width="2"/><path fill="#ddd7ff" stroke="#7854ab" d="M101.333 154.667V160h5.334l2.666-2.667V152H104z" stroke-width="2"/><path fill="#ddd7ff" stroke="#7854ab" d="M101.333 154.667h5.334V160M106.667 154.667l2.666-2.667" stroke-width="2"/><path fill="#ddd7ff" stroke="#7854ab" d="M101.333 149.333v5.334h5.334l2.666-2.667v-5.333H104z" stroke-width="2"/><path fill="#ddd7ff" stroke="#7854ab" d="M101.333 149.333h5.334v5.334M106.667 149.333l2.666-2.666" stroke-width="2"/><path fill="#ddd7ff" stroke="#7854ab" d="M101.333 144v5.333h5.334l2.666-2.666v-5.334H104z" stroke-width="2"/><path fill="#ddd7ff" stroke="#7854ab" d="M101.333 144h5.334v5.333M106.667 144l2.666-2.667" stroke-width="2"/><path fill="#ddd7ff" stroke="#7854ab" d="M101.333 138.667V144h5.334l2.666-2.667V136H104z" stroke-width="2"/><path fill="#ddd7ff" stroke="#7854ab" d="M101.333 138.667h5.334V144M106.667 138.667l2.666-2.667" stroke-width="2"/><path fill="#ddd7ff" stroke="#7854ab" d="M101.333 133.333v5.334h5.334l2.666-2.667v-5.333H104z" stroke-width="2"/><path fill="#ddd7ff" stroke="#7854ab" d="M101.333 133.333h5.334v5.334M106.667 133.333l2.666-2.666" stroke-width="2"/><path fill="#ddd7ff" stroke="#7854ab" d="M101.333 128v5.333h5.334l2.666-2.666v-5.334H104z" stroke-width="2"/><path fill="#ddd7ff" stroke="#7854ab" d="M101.333 128h5.334v5.333M106.667 128l2.666-2.667" stroke-width="2"/><path fill="#ddd7ff" stroke="#7854ab" d="M101.333 122.667V128h5.334l2.666-2.667V120H104z" stroke-width="2"/><path fill="#ddd7ff" stroke="#7854ab" d="M101.333 122.667h5.334V128M106.667 122.667l2.666-2.667" stroke-width="2"/><path fill="#ddd7ff" stroke="#7854ab" d="M101.333 117.333v5.334h5.334l2.666-2.667v-5.333H104z" stroke-width="2"/><path fill="#ddd7ff" stroke="#7854ab" d="M101.333 117.333h5.334v5.334M106.667 117.333l2.666-2.666" stroke-width="2"/><path fill="#ddd7ff" stroke="#7854ab" d="M101.333 112v5.333h5.334l2.666-2.666v-5.334H104z" stroke-width="2"/><path fill="#ddd7ff" stroke="#7854ab" d="M101.333 112h5.334v5.333M106.667 112l2.666-2.667M106.667 160v5.333H112l2.667-2.666v-5.334h-5.334z" stroke-width="2"/><path fill="#ddd7ff" stroke="#7854ab" d="M106.667 160H112v5.333M112 160l2.667-2.667" stroke-width="2"/><path fill="#ddd7ff" stroke="#7854ab" d="M106.667 154.667V160H112l2.667-2.667V152h-5.334z" stroke-width="2"/><path fill="#ddd7ff" stroke="#7854ab" d="M106.667 154.667H112V160M112 154.667l2.667-2.667" stroke-width="2"/><path fill="#ddd7ff" stroke="#7854ab" d="M106.667 149.333v5.334H112l2.667-2.667v-5.333h-5.334z" stroke-width="2"/><path fill="#ddd7ff" stroke="#7854ab" d="M106.667 149.333H112v5.334M112 149.333l2.667-2.666" stroke-width="2"/><path fill="#ddd7ff" stroke="#7854ab" d="M106.667 144v5.333H112l2.667-2.666v-5.334h-5.334z" stroke-width="2"/><path fill="#ddd7ff" stroke="#7854ab" d="M106.667 144H112v5.333M112 144l2.667-2.667" stroke-width="2"/><path fill="#ddd7ff" stroke="#7854ab" d="M106.667 138.667V144H112l2.667-2.667V136h-5.334z" stroke-width="2"/><path fill="#ddd7ff" stroke="#7854ab" d="M106.667 138.667H112V144M112 138.667l2.667-2.667" stroke-width="2"/><path fill="#ddd7ff" stroke="#7854ab" d="M106.667 133.333v5.334H112l2.667-2.667v-5.333h-5.334z" stroke-width="2"/><path fill="#ddd7ff" stroke="#7854ab" d="M106.667 133.333H112v5.334M112 133.333l2.667-2.666" stroke-width="2"/><path fill="#ddd7ff" stroke="#7854ab" d="M106.667 128v5.333H112l2.667-2.666v-5.334h-5.334z" stroke-width="2"/><path fill="#ddd7ff" stroke="#7854ab" d="M106.667 128H112v5.333M112 128l2.667-2.667" stroke-width="2"/><path fill="#ddd7ff" stroke="#7854ab" d="M106.667 122.667V128H112l2.667-2.667V120h-5.334z" stroke-width="2"/><path fill="#ddd7ff" stroke="#7854ab" d="M106.667 122.667H112V128M112 122.667l2.667-2.667" stroke-width="2"/><path fill="#ddd7ff" stroke="#7854ab" d="M106.667 117.333v5.334H112l2.667-2.667v-5.333h-5.334z" stroke-width="2"/><path fill="#ddd7ff" stroke="#7854ab" d="M106.667 117.333H112v5.334M112 117.333l2.667-2.666" stroke-width="2"/><path fill="#ddd7ff" stroke="#7854ab" d="M106.667 112v5.333H112l2.667-2.666v-5.334h-5.334z" stroke-width="2"/><path fill="#ddd7ff" stroke="#7854ab" d="M106.667 112H112v5.333M112 112l2.667-2.667M112 160v5.333h5.333l2.667-2.666v-5.334h-5.333z" stroke-width="2"/><path fill="#ddd7ff" stroke="#7854ab" d="M112 160h5.333v5.333M117.333 160l2.667-2.667" stroke-width="2"/><path fill="#ddd7ff" stroke="#7854ab" d="M112 154.667V160h5.333l2.667-2.667V152h-5.333z" stroke-width="2"/><path fill="#ddd7ff" stroke="#7854ab" d="M112 154.667h5.333V160M117.333 154.667L120 152" stroke-width="2"/><path fill="#ddd7ff" stroke="#7854ab" d="M112 149.333v5.334h5.333L120 152v-5.333h-5.333z" stroke-width="2"/><path fill="#ddd7ff" stroke="#7854ab" d="M112 149.333h5.333v5.334M117.333 149.333l2.667-2.666" stroke-width="2"/><path fill="#ddd7ff" stroke="#7854ab" d="M112 144v5.333h5.333l2.667-2.666v-5.334h-5.333z" stroke-width="2"/><path fill="#ddd7ff" stroke="#7854ab" d="M112 144h5.333v5.333M117.333 144l2.667-2.667" stroke-width="2"/><path fill="#ddd7ff" stroke="#7854ab" d="M112 138.667V144h5.333l2.667-2.667V136h-5.333z" stroke-width="2"/><path fill="#ddd7ff" stroke="#7854ab" d="M112 138.667h5.333V144M117.333 138.667L120 136" stroke-width="2"/><path fill="#ddd7ff" stroke="#7854ab" d="M112 133.333v5.334h5.333L120 136v-5.333h-5.333z" stroke-width="2"/><path fill="#ddd7ff" stroke="#7854ab" d="M112 133.333h5.333v5.334M117.333 133.333l2.667-2.666" stroke-width="2"/><path fill="#ddd7ff" stroke="#7854ab" d="M112 128v5.333h5.333l2.667-2.666v-5.334h-5.333z" stroke-width="2"/><path fill="#ddd7ff" stroke="#7854ab" d="M112 128h5.333v5.333M117.333 128l2.667-2.667" stroke-width="2"/><path fill="#ddd7ff" stroke="#7854ab" d="M112 122.667V128h5.333l2.667-2.667V120h-5.333z" stroke-width="2"/><path fill="#ddd7ff" stroke="#7854ab" d="M112 122.667h5.333V128M117.333 122.667L120 120" stroke-width="2"/><path fill="#ddd7ff" stroke="#7854ab" d="M112 117.333v5.334h5.333L120 120v-5.333h-5.333z" stroke-width="2"/><path fill="#ddd7ff" stroke="#7854ab" d="M112 117.333h5.333v5.334M117.333 117.333l2.667-2.666" stroke-width="2"/><path fill="#ddd7ff" stroke="#7854ab" d="M112 112v5.333h5.333l2.667-2.666v-5.334h-5.333z" stroke-width="2"/><path fill="#ddd7ff" stroke="#7854ab" d="M112 112h5.333v5.333M117.333 112l2.667-2.667M117.333 160v5.333h5.334l2.666-2.666v-5.334H120z" stroke-width="2"/><path fill="#ddd7ff" stroke="#7854ab" d="M117.333 160h5.334v5.333M122.667 160l2.666-2.667" stroke-width="2"/><path fill="#ddd7ff" stroke="#7854ab" d="M117.333 154.667V160h5.334l2.666-2.667V152H120z" stroke-width="2"/><path fill="#ddd7ff" stroke="#7854ab" d="M117.333 154.667h5.334V160M122.667 154.667l2.666-2.667" stroke-width="2"/><path fill="#ddd7ff" stroke="#7854ab" d="M117.333 149.333v5.334h5.334l2.666-2.667v-5.333H120z" stroke-width="2"/><path fill="#ddd7ff" stroke="#7854ab" d="M117.333 149.333h5.334v5.334M122.667 149.333l2.666-2.666" stroke-width="2"/><path fill="#ddd7ff" stroke="#7854ab" d="M117.333 144v5.333h5.334l2.666-2.666v-5.334H120z" stroke-width="2"/><path fill="#ddd7ff" stroke="#7854ab" d="M117.333 144h5.334v5.333M122.667 144l2.666-2.667" stroke-width="2"/><path fill="#ddd7ff" stroke="#7854ab" d="M117.333 138.667V144h5.334l2.666-2.667V136H120z" stroke-width="2"/><path fill="#ddd7ff" stroke="#7854ab" d="M117.333 138.667h5.334V144M122.667 138.667l2.666-2.667" stroke-width="2"/><path fill="#ddd7ff" stroke="#7854ab" d="M117.333 133.333v5.334h5.334l2.666-2.667v-5.333H120z" stroke-width="2"/><path fill="#ddd7ff" stroke="#7854ab" d="M117.333 133.333h5.334v5.334M122.667 133.333l2.666-2.666" stroke-width="2"/><path fill="#ddd7ff" stroke="#7854ab" d="M117.333 128v5.333h5.334l2.666-2.666v-5.334H120z" stroke-width="2"/><path fill="#ddd7ff" stroke="#7854ab" d="M117.333 128h5.334v5.333M122.667 128l2.666-2.667" stroke-width="2"/><path fill="#ddd7ff" stroke="#7854ab" d="M117.333 122.667V128h5.334l2.666-2.667V120H120z" stroke-width="2"/><path fill="#ddd7ff" stroke="#7854ab" d="M117.333 122.667h5.334V128M122.667 122.667l2.666-2.667" stroke-width="2"/><path fill="#ddd7ff" stroke="#7854ab" d="M117.333 117.333v5.334h5.334l2.666-2.667v-5.333H120z" stroke-width="2"/><path fill="#ddd7ff" stroke="#7854ab" d="M117.333 117.333h5.334v5.334M122.667 117.333l2.666-2.666" stroke-width="2"/><path fill="#ddd7ff" stroke="#7854ab" d="M117.333 112v5.333h5.334l2.666-2.666v-5.334H120z" stroke-width="2"/><path fill="#ddd7ff" stroke="#7854ab" d="M117.333 112h5.334v5.333M122.667 112l2.666-2.667" stroke-width="2"/><path fill="#ffbde0" stroke="#ca337c" d="M272 48v5.333h5.333L280 50.667v-5.334h-5.333z" stroke-width="2"/><path fill="#ffbde0" stroke="#ca337c" d="M272 48h5.333v5.333M277.333 48L280 45.333M284.8 48v5.333h5.333l2.667-2.666v-5.334h-5.333z" stroke-width="2"/><path fill="#ffbde0" stroke="#ca337c" d="M284.8 48h5.333v5.333M290.133 48l2.667-2.667M297.6 48v5.333h5.333l2.667-2.666v-5.334h-5.333z" stroke-width="2"/><path fill="#ffbde0" stroke="#ca337c" d="M297.6 48h5.333v5.333M302.933 48l2.667-2.667M310.4 48v5.333h5.333l2.667-2.666v-5.334h-5.333z" stroke-width="2"/><path fill="#ffbde0" stroke="#ca337c" d="M310.4 48h5.333v5.333M315.733 48l2.667-2.667M323.2 48v5.333h5.333l2.667-2.666v-5.334h-5.333z" stroke-width="2"/><path fill="#ffbde0" stroke="#ca337c" d="M323.2 48h5.333v5.333M328.533 48l2.667-2.667M336 48v5.333h5.333L344 50.667v-5.334h-5.333z" stroke-width="2"/><path fill="#ffbde0" stroke="#ca337c" d="M336 48h5.333v5.333M341.333 48L344 45.333M348.8 48v5.333h5.333l2.667-2.666v-5.334h-5.333z" stroke-width="2"/><path fill="#ffbde0" stroke="#ca337c" d="M348.8 48h5.333v5.333M354.133 48l2.667-2.667M361.6 48v5.333h5.333l2.667-2.666v-5.334h-5.333z" stroke-width="2"/><path fill="#ffbde0" stroke="#ca337c" d="M361.6 48h5.333v5.333M366.933 48l2.667-2.667M374.4 48v5.333h5.333l2.667-2.666v-5.334h-5.333z" stroke-width="2"/><path fill="#ffbde0" stroke="#ca337c" d="M374.4 48h5.333v5.333M379.733 48l2.667-2.667M387.2 48v5.333h5.333l2.667-2.666v-5.334h-5.333z" stroke-width="2"/><path fill="#ffbde0" stroke="#ca337c" d="M387.2 48h5.333v5.333M392.533 48l2.667-2.667M272 60.533v5.334h5.333L280 63.2v-5.333h-5.333z" stroke-width="2"/><path fill="#ffbde0" stroke="#ca337c" d="M272 60.533h5.333v5.334M277.333 60.533L280 57.867M284.8 60.533v5.334h5.333L292.8 63.2v-5.333h-5.333z" stroke-width="2"/><path fill="#ffbde0" stroke="#ca337c" d="M284.8 60.533h5.333v5.334M290.133 60.533l2.667-2.666M297.6 60.533v5.334h5.333L305.6 63.2v-5.333h-5.333z" stroke-width="2"/><path fill="#ffbde0" stroke="#ca337c" d="M297.6 60.533h5.333v5.334M302.933 60.533l2.667-2.666M310.4 60.533v5.334h5.333L318.4 63.2v-5.333h-5.333z" stroke-width="2"/><path fill="#ffbde0" stroke="#ca337c" d="M310.4 60.533h5.333v5.334M315.733 60.533l2.667-2.666M323.2 60.533v5.334h5.333L331.2 63.2v-5.333h-5.333z" stroke-width="2"/><path fill="#ffbde0" stroke="#ca337c" d="M323.2 60.533h5.333v5.334M328.533 60.533l2.667-2.666M336 60.533v5.334h5.333L344 63.2v-5.333h-5.333z" stroke-width="2"/><path fill="#ffbde0" stroke="#ca337c" d="M336 60.533h5.333v5.334M341.333 60.533L344 57.867M348.8 60.533v5.334h5.333L356.8 63.2v-5.333h-5.333z" stroke-width="2"/><path fill="#ffbde0" stroke="#ca337c" d="M348.8 60.533h5.333v5.334M354.133 60.533l2.667-2.666M361.6 60.533v5.334h5.333L369.6 63.2v-5.333h-5.333z" stroke-width="2"/><path fill="#ffbde0" stroke="#ca337c" d="M361.6 60.533h5.333v5.334M366.933 60.533l2.667-2.666M374.4 60.533v5.334h5.333L382.4 63.2v-5.333h-5.333z" stroke-width="2"/><path fill="#ffbde0" stroke="#ca337c" d="M374.4 60.533h5.333v5.334M379.733 60.533l2.667-2.666M387.2 60.533v5.334h5.333L395.2 63.2v-5.333h-5.333z" stroke-width="2"/><path fill="#ffbde0" stroke="#ca337c" d="M387.2 60.533h5.333v5.334M392.533 60.533l2.667-2.666M272 73.067V78.4h5.333L280 75.733V70.4h-5.333z" stroke-width="2"/><path fill="#ffbde0" stroke="#ca337c" d="M272 73.067h5.333V78.4M277.333 73.067L280 70.4M284.8 73.067V78.4h5.333l2.667-2.667V70.4h-5.333z" stroke-width="2"/><path fill="#ffbde0" stroke="#ca337c" d="M284.8 73.067h5.333V78.4M290.133 73.067L292.8 70.4M297.6 73.067V78.4h5.333l2.667-2.667V70.4h-5.333z" stroke-width="2"/><path fill="#ffbde0" stroke="#ca337c" d="M297.6 73.067h5.333V78.4M302.933 73.067L305.6 70.4M310.4 73.067V78.4h5.333l2.667-2.667V70.4h-5.333z" stroke-width="2"/><path fill="#ffbde0" stroke="#ca337c" d="M310.4 73.067h5.333V78.4M315.733 73.067L318.4 70.4M323.2 73.067V78.4h5.333l2.667-2.667V70.4h-5.333z" stroke-width="2"/><path fill="#ffbde0" stroke="#ca337c" d="M323.2 73.067h5.333V78.4M328.533 73.067L331.2 70.4M336 73.067V78.4h5.333L344 75.733V70.4h-5.333z" stroke-width="2"/><path fill="#ffbde0" stroke="#ca337c" d="M336 73.067h5.333V78.4M341.333 73.067L344 70.4M348.8 73.067V78.4h5.333l2.667-2.667V70.4h-5.333z" stroke-width="2"/><path fill="#ffbde0" stroke="#ca337c" d="M348.8 73.067h5.333V78.4M354.133 73.067L356.8 70.4M361.6 73.067V78.4h5.333l2.667-2.667V70.4h-5.333z" stroke-width="2"/><path fill="#ffbde0" stroke="#ca337c" d="M361.6 73.067h5.333V78.4M366.933 73.067L369.6 70.4M374.4 73.067V78.4h5.333l2.667-2.667V70.4h-5.333z" stroke-width="2"/><path fill="#ffbde0" stroke="#ca337c" d="M374.4 73.067h5.333V78.4M379.733 73.067L382.4 70.4M387.2 73.067V78.4h5.333l2.667-2.667V70.4h-5.333z" stroke-width="2"/><path fill="#ffbde0" stroke="#ca337c" d="M387.2 73.067h5.333V78.4M392.533 73.067L395.2 70.4M272 85.6v5.333h5.333L280 88.267v-5.334h-5.333z" stroke-width="2"/><path fill="#ffbde0" stroke="#ca337c" d="M272 85.6h5.333v5.333M277.333 85.6L280 82.933M284.8 85.6v5.333h5.333l2.667-2.666v-5.334h-5.333z" stroke-width="2"/><path fill="#ffbde0" stroke="#ca337c" d="M284.8 85.6h5.333v5.333M290.133 85.6l2.667-2.667M297.6 85.6v5.333h5.333l2.667-2.666v-5.334h-5.333z" stroke-width="2"/><path fill="#ffbde0" stroke="#ca337c" d="M297.6 85.6h5.333v5.333M302.933 85.6l2.667-2.667M310.4 85.6v5.333h5.333l2.667-2.666v-5.334h-5.333z" stroke-width="2"/><path fill="#ffbde0" stroke="#ca337c" d="M310.4 85.6h5.333v5.333M315.733 85.6l2.667-2.667M323.2 85.6v5.333h5.333l2.667-2.666v-5.334h-5.333z" stroke-width="2"/><path fill="#ffbde0" stroke="#ca337c" d="M323.2 85.6h5.333v5.333M328.533 85.6l2.667-2.667M336 85.6v5.333h5.333L344 88.267v-5.334h-5.333z" stroke-width="2"/><path fill="#ffbde0" stroke="#ca337c" d="M336 85.6h5.333v5.333M341.333 85.6L344 82.933M348.8 85.6v5.333h5.333l2.667-2.666v-5.334h-5.333z" stroke-width="2"/><path fill="#ffbde0" stroke="#ca337c" d="M348.8 85.6h5.333v5.333M354.133 85.6l2.667-2.667M361.6 85.6v5.333h5.333l2.667-2.666v-5.334h-5.333z" stroke-width="2"/><path fill="#ffbde0" stroke="#ca337c" d="M361.6 85.6h5.333v5.333M366.933 85.6l2.667-2.667M374.4 85.6v5.333h5.333l2.667-2.666v-5.334h-5.333z" stroke-width="2"/><path fill="#ffbde0" stroke="#ca337c" d="M374.4 85.6h5.333v5.333M379.733 85.6l2.667-2.667M387.2 85.6v5.333h5.333l2.667-2.666v-5.334h-5.333z" stroke-width="2"/><path fill="#ffbde0" stroke="#ca337c" d="M387.2 85.6h5.333v5.333M392.533 85.6l2.667-2.667M374.4 98.133v5.334h5.333l2.667-2.667v-5.333h-5.333z" stroke-width="2"/><path fill="#ffbde0" stroke="#ca337c" d="M374.4 98.133h5.333v5.334M379.733 98.133l2.667-2.666M387.2 98.133v5.334h5.333l2.667-2.667v-5.333h-5.333z" stroke-width="2"/><path fill="#ffbde0" stroke="#ca337c" d="M387.2 98.133h5.333v5.334M392.533 98.133l2.667-2.666" stroke-width="2"/></svg>
