<svg xmlns="http://www.w3.org/2000/svg" width="400" height="112" viewBox="0 0 400 112"><path fill="none" stroke="#000" d="M133.333 0v112M266.667 0v112M0 37.333h400" stroke-width="2"/><path fill="#ccfaff" stroke="#0c7f99" d="M138.667 96v5.333H144l2.667-2.666v-5.334h-5.334z" stroke-width="2"/><path fill="#ccfaff" stroke="#0c7f99" d="M138.667 96H144v5.333M144 96l2.667-2.667" stroke-width="2"/><path fill="#ccfaff" stroke="#0c7f99" d="M138.667 90.667V96H144l2.667-2.667V88h-5.334z" stroke-width="2"/><path fill="#ccfaff" stroke="#0c7f99" d="M138.667 90.667H144V96M144 90.667L146.667 88" stroke-width="2"/><path fill="#ccfaff" stroke="#0c7f99" d="M138.667 85.333v5.334H144L146.667 88v-5.333h-5.334z" stroke-width="2"/><path fill="#ccfaff" stroke="#0c7f99" d="M138.667 85.333H144v5.334M144 85.333l2.667-2.666" stroke-width="2"/><path fill="#ccfaff" stroke="#0c7f99" d="M138.667 80v5.333H144l2.667-2.666v-5.334h-5.334z" stroke-width="2"/><path fill="#ccfaff" stroke="#0c7f99" d="M138.667 80H144v5.333M144 80l2.667-2.667" stroke-width="2"/><path fill="#ccfaff" stroke="#0c7f99" d="M138.667 74.667V80H144l2.667-2.667V72h-5.334z" stroke-width="2"/><path fill="#ccfaff" stroke="#0c7f99" d="M138.667 74.667H144V80M144 74.667L146.667 72" stroke-width="2"/><path fill="#ccfaff" stroke="#0c7f99" d="M138.667 69.333v5.334H144L146.667 72v-5.333h-5.334z" stroke-width="2"/><path fill="#ccfaff" stroke="#0c7f99" d="M138.667 69.333H144v5.334M144 69.333l2.667-2.666" stroke-width="2"/><path fill="#ccfaff" stroke="#0c7f99" d="M138.667 64v5.333H144l2.667-2.666v-5.334h-5.334z" stroke-width="2"/><path fill="#ccfaff" stroke="#0c7f99" d="M138.667 64H144v5.333M144 64l2.667-2.667" stroke-width="2"/><path fill="#ccfaff" stroke="#0c7f99" d="M138.667 58.667V64H144l2.667-2.667V56h-5.334z" stroke-width="2"/><path fill="#ccfaff" stroke="#0c7f99" d="M138.667 58.667H144V64M144 58.667L146.667 56" stroke-width="2"/><path fill="#ccfaff" stroke="#0c7f99" d="M138.667 53.333v5.334H144L146.667 56v-5.333h-5.334z" stroke-width="2"/><path fill="#ccfaff" stroke="#0c7f99" d="M138.667 53.333H144v5.334M144 53.333l2.667-2.666" stroke-width="2"/><path fill="#ccfaff" stroke="#0c7f99" d="M138.667 48v5.333H144l2.667-2.666v-5.334h-5.334z" stroke-width="2"/><path fill="#ccfaff" stroke="#0c7f99" d="M138.667 48H144v5.333M144 48l2.667-2.667" stroke-width="2"/><path fill="#ffbde0" stroke="#ca337c" d="M272 48v5.333h5.333L280 50.667v-5.334h-5.333z" stroke-width="2"/><path fill="#ffbde0" stroke="#ca337c" d="M272 48h5.333v5.333M277.333 48L280 45.333M284.8 48v5.333h5.333l2.667-2.666v-5.334h-5.333z" stroke-width="2"/><path fill="#ffbde0" stroke="#ca337c" d="M284.8 48h5.333v5.333M290.133 48l2.667-2.667M297.6 48v5.333h5.333l2.667-2.666v-5.334h-5.333z" stroke-width="2"/><path fill="#ffbde0" stroke="#ca337c" d="M297.6 48h5.333v5.333M302.933 48l2.667-2.667M310.4 48v5.333h5.333l2.667-2.666v-5.334h-5.333z" stroke-width="2"/><path fill="#ffbde0" stroke="#ca337c" d="M310.4 48h5.333v5.333M315.733 48l2.667-2.667M323.2 48v5.333h5.333l2.667-2.666v-5.334h-5.333z" stroke-width="2"/><path fill="#ffbde0" stroke="#ca337c" d="M323.2 48h5.333v5.333M328.533 48l2.667-2.667M336 48v5.333h5.333L344 50.667v-5.334h-5.333z" stroke-width="2"/><path fill="#ffbde0" stroke="#ca337c" d="M336 48h5.333v5.333M341.333 48L344 45.333M348.8 48v5.333h5.333l2.667-2.666v-5.334h-5.333z" stroke-width="2"/><path fill="#ffbde0" stroke="#ca337c" d="M348.8 48h5.333v5.333M354.133 48l2.667-2.667M361.6 48v5.333h5.333l2.667-2.666v-5.334h-5.333z" stroke-width="2"/><path fill="#ffbde0" stroke="#ca337c" d="M361.6 48h5.333v5.333M366.933 48l2.667-2.667M374.4 48v5.333h5.333l2.667-2.666v-5.334h-5.333z" stroke-width="2"/><path fill="#ffbde0" stroke="#ca337c" d="M374.4 48h5.333v5.333M379.733 48l2.667-2.667M387.2 48v5.333h5.333l2.667-2.666v-5.334h-5.333z" stroke-width="2"/><path fill="#ffbde0" stroke="#ca337c" d="M387.2 48h5.333v5.333M392.533 48l2.667-2.667" stroke-width="2"/><path d="M149.333 48A114.667 2.667 0 0 0 264 50.667V48z" fill="none"/><path stroke="#000" d="M149.333 48A114.667 2.667 0 0 0 264 50.667M264 50.667l-4.508-9.668M264 50.667l-4.508 9.667" stroke-width="3" stroke-dasharray="0" fill="none"/></svg>
