<svg xmlns="http://www.w3.org/2000/svg" width="400" height="326.4" viewBox="0 0 400 326.4"><path fill="none" stroke="#000" d="M133.333 0v326.4M266.667 0v326.4M0 37.333h400" stroke-width="2"/><path fill="#ccfaff" stroke="#0c7f99" d="M151.467 96v5.333h5.333l2.667-2.666v-5.334h-5.334z" stroke-width="2"/><path fill="#ccfaff" stroke="#0c7f99" d="M151.467 96h5.333v5.333M156.8 96l2.667-2.667" stroke-width="2"/><path fill="#ccfaff" stroke="#0c7f99" d="M151.467 90.667V96h5.333l2.667-2.667V88h-5.334z" stroke-width="2"/><path fill="#ccfaff" stroke="#0c7f99" d="M151.467 90.667h5.333V96M156.8 90.667L159.467 88" stroke-width="2"/><path fill="#ccfaff" stroke="#0c7f99" d="M151.467 85.333v5.334h5.333L159.467 88v-5.333h-5.334z" stroke-width="2"/><path fill="#ccfaff" stroke="#0c7f99" d="M151.467 85.333h5.333v5.334M156.8 85.333l2.667-2.666" stroke-width="2"/><path fill="#ccfaff" stroke="#0c7f99" d="M151.467 80v5.333h5.333l2.667-2.666v-5.334h-5.334z" stroke-width="2"/><path fill="#ccfaff" stroke="#0c7f99" d="M151.467 80h5.333v5.333M156.8 80l2.667-2.667" stroke-width="2"/><path fill="#ccfaff" stroke="#0c7f99" d="M151.467 74.667V80h5.333l2.667-2.667V72h-5.334z" stroke-width="2"/><path fill="#ccfaff" stroke="#0c7f99" d="M151.467 74.667h5.333V80M156.8 74.667L159.467 72" stroke-width="2"/><path fill="#ccfaff" stroke="#0c7f99" d="M151.467 69.333v5.334h5.333L159.467 72v-5.333h-5.334z" stroke-width="2"/><path fill="#ccfaff" stroke="#0c7f99" d="M151.467 69.333h5.333v5.334M156.8 69.333l2.667-2.666" stroke-width="2"/><path fill="#ccfaff" stroke="#0c7f99" d="M151.467 64v5.333h5.333l2.667-2.666v-5.334h-5.334z" stroke-width="2"/><path fill="#ccfaff" stroke="#0c7f99" d="M151.467 64h5.333v5.333M156.8 64l2.667-2.667" stroke-width="2"/><path fill="#ccfaff" stroke="#0c7f99" d="M151.467 58.667V64h5.333l2.667-2.667V56h-5.334z" stroke-width="2"/><path fill="#ccfaff" stroke="#0c7f99" d="M151.467 58.667h5.333V64M156.8 58.667L159.467 56" stroke-width="2"/><path fill="#ccfaff" stroke="#0c7f99" d="M151.467 53.333v5.334h5.333L159.467 56v-5.333h-5.334z" stroke-width="2"/><path fill="#ccfaff" stroke="#0c7f99" d="M151.467 53.333h5.333v5.334M156.8 53.333l2.667-2.666" stroke-width="2"/><path fill="#ccfaff" stroke="#0c7f99" d="M151.467 48v5.333h5.333l2.667-2.666v-5.334h-5.334z" stroke-width="2"/><path fill="#ccfaff" stroke="#0c7f99" d="M151.467 48h5.333v5.333M156.8 48l2.667-2.667" stroke-width="2"/><path fill="#ccfaff" stroke="#000" d="M148.8 45.333L159.467 104" stroke-width="2"/><path fill="#ccfaff" stroke="#0c7f99" d="M164.267 96v5.333h5.333l2.667-2.666v-5.334h-5.334z" stroke-width="2"/><path fill="#ccfaff" stroke="#0c7f99" d="M164.267 96h5.333v5.333M169.6 96l2.667-2.667" stroke-width="2"/><path fill="#ccfaff" stroke="#0c7f99" d="M164.267 90.667V96h5.333l2.667-2.667V88h-5.334z" stroke-width="2"/><path fill="#ccfaff" stroke="#0c7f99" d="M164.267 90.667h5.333V96M169.6 90.667L172.267 88" stroke-width="2"/><path fill="#ccfaff" stroke="#0c7f99" d="M164.267 85.333v5.334h5.333L172.267 88v-5.333h-5.334z" stroke-width="2"/><path fill="#ccfaff" stroke="#0c7f99" d="M164.267 85.333h5.333v5.334M169.6 85.333l2.667-2.666" stroke-width="2"/><path fill="#ccfaff" stroke="#0c7f99" d="M164.267 80v5.333h5.333l2.667-2.666v-5.334h-5.334z" stroke-width="2"/><path fill="#ccfaff" stroke="#0c7f99" d="M164.267 80h5.333v5.333M169.6 80l2.667-2.667" stroke-width="2"/><path fill="#ccfaff" stroke="#0c7f99" d="M164.267 74.667V80h5.333l2.667-2.667V72h-5.334z" stroke-width="2"/><path fill="#ccfaff" stroke="#0c7f99" d="M164.267 74.667h5.333V80M169.6 74.667L172.267 72" stroke-width="2"/><path fill="#ccfaff" stroke="#0c7f99" d="M164.267 69.333v5.334h5.333L172.267 72v-5.333h-5.334z" stroke-width="2"/><path fill="#ccfaff" stroke="#0c7f99" d="M164.267 69.333h5.333v5.334M169.6 69.333l2.667-2.666" stroke-width="2"/><path fill="#ccfaff" stroke="#0c7f99" d="M164.267 64v5.333h5.333l2.667-2.666v-5.334h-5.334z" stroke-width="2"/><path fill="#ccfaff" stroke="#0c7f99" d="M164.267 64h5.333v5.333M169.6 64l2.667-2.667" stroke-width="2"/><path fill="#ccfaff" stroke="#0c7f99" d="M164.267 58.667V64h5.333l2.667-2.667V56h-5.334z" stroke-width="2"/><path fill="#ccfaff" stroke="#0c7f99" d="M164.267 58.667h5.333V64M169.6 58.667L172.267 56" stroke-width="2"/><path fill="#ccfaff" stroke="#0c7f99" d="M164.267 53.333v5.334h5.333L172.267 56v-5.333h-5.334z" stroke-width="2"/><path fill="#ccfaff" stroke="#0c7f99" d="M164.267 53.333h5.333v5.334M169.6 53.333l2.667-2.666" stroke-width="2"/><path fill="#ccfaff" stroke="#0c7f99" d="M164.267 48v5.333h5.333l2.667-2.666v-5.334h-5.334z" stroke-width="2"/><path fill="#ccfaff" stroke="#0c7f99" d="M164.267 48h5.333v5.333M169.6 48l2.667-2.667" stroke-width="2"/><path fill="#ccfaff" stroke="#000" d="M161.6 45.333L172.267 104" stroke-width="2"/><path fill="#ccfaff" stroke="#0c7f99" d="M177.067 96v5.333h5.333l2.667-2.666v-5.334h-5.334z" stroke-width="2"/><path fill="#ccfaff" stroke="#0c7f99" d="M177.067 96h5.333v5.333M182.4 96l2.667-2.667" stroke-width="2"/><path fill="#ccfaff" stroke="#0c7f99" d="M177.067 90.667V96h5.333l2.667-2.667V88h-5.334z" stroke-width="2"/><path fill="#ccfaff" stroke="#0c7f99" d="M177.067 90.667h5.333V96M182.4 90.667L185.067 88" stroke-width="2"/><path fill="#ccfaff" stroke="#0c7f99" d="M177.067 85.333v5.334h5.333L185.067 88v-5.333h-5.334z" stroke-width="2"/><path fill="#ccfaff" stroke="#0c7f99" d="M177.067 85.333h5.333v5.334M182.4 85.333l2.667-2.666" stroke-width="2"/><path fill="#ccfaff" stroke="#0c7f99" d="M177.067 80v5.333h5.333l2.667-2.666v-5.334h-5.334z" stroke-width="2"/><path fill="#ccfaff" stroke="#0c7f99" d="M177.067 80h5.333v5.333M182.4 80l2.667-2.667" stroke-width="2"/><path fill="#ccfaff" stroke="#0c7f99" d="M177.067 74.667V80h5.333l2.667-2.667V72h-5.334z" stroke-width="2"/><path fill="#ccfaff" stroke="#0c7f99" d="M177.067 74.667h5.333V80M182.4 74.667L185.067 72" stroke-width="2"/><path fill="#ccfaff" stroke="#0c7f99" d="M177.067 69.333v5.334h5.333L185.067 72v-5.333h-5.334z" stroke-width="2"/><path fill="#ccfaff" stroke="#0c7f99" d="M177.067 69.333h5.333v5.334M182.4 69.333l2.667-2.666" stroke-width="2"/><path fill="#ccfaff" stroke="#0c7f99" d="M177.067 64v5.333h5.333l2.667-2.666v-5.334h-5.334z" stroke-width="2"/><path fill="#ccfaff" stroke="#0c7f99" d="M177.067 64h5.333v5.333M182.4 64l2.667-2.667" stroke-width="2"/><path fill="#ccfaff" stroke="#0c7f99" d="M177.067 58.667V64h5.333l2.667-2.667V56h-5.334z" stroke-width="2"/><path fill="#ccfaff" stroke="#0c7f99" d="M177.067 58.667h5.333V64M182.4 58.667L185.067 56" stroke-width="2"/><path fill="#ccfaff" stroke="#0c7f99" d="M177.067 53.333v5.334h5.333L185.067 56v-5.333h-5.334z" stroke-width="2"/><path fill="#ccfaff" stroke="#0c7f99" d="M177.067 53.333h5.333v5.334M182.4 53.333l2.667-2.666" stroke-width="2"/><path fill="#ccfaff" stroke="#0c7f99" d="M177.067 48v5.333h5.333l2.667-2.666v-5.334h-5.334z" stroke-width="2"/><path fill="#ccfaff" stroke="#0c7f99" d="M177.067 48h5.333v5.333M182.4 48l2.667-2.667" stroke-width="2"/><path fill="#ccfaff" stroke="#000" d="M174.4 45.333L185.067 104" stroke-width="2"/><path fill="#ccfaff" stroke="#0c7f99" d="M189.867 96v5.333h5.333l2.667-2.666v-5.334h-5.334z" stroke-width="2"/><path fill="#ccfaff" stroke="#0c7f99" d="M189.867 96h5.333v5.333M195.2 96l2.667-2.667" stroke-width="2"/><path fill="#ccfaff" stroke="#0c7f99" d="M189.867 90.667V96h5.333l2.667-2.667V88h-5.334z" stroke-width="2"/><path fill="#ccfaff" stroke="#0c7f99" d="M189.867 90.667h5.333V96M195.2 90.667L197.867 88" stroke-width="2"/><path fill="#ccfaff" stroke="#0c7f99" d="M189.867 85.333v5.334h5.333L197.867 88v-5.333h-5.334z" stroke-width="2"/><path fill="#ccfaff" stroke="#0c7f99" d="M189.867 85.333h5.333v5.334M195.2 85.333l2.667-2.666" stroke-width="2"/><path fill="#ccfaff" stroke="#0c7f99" d="M189.867 80v5.333h5.333l2.667-2.666v-5.334h-5.334z" stroke-width="2"/><path fill="#ccfaff" stroke="#0c7f99" d="M189.867 80h5.333v5.333M195.2 80l2.667-2.667" stroke-width="2"/><path fill="#ccfaff" stroke="#0c7f99" d="M189.867 74.667V80h5.333l2.667-2.667V72h-5.334z" stroke-width="2"/><path fill="#ccfaff" stroke="#0c7f99" d="M189.867 74.667h5.333V80M195.2 74.667L197.867 72" stroke-width="2"/><path fill="#ccfaff" stroke="#0c7f99" d="M189.867 69.333v5.334h5.333L197.867 72v-5.333h-5.334z" stroke-width="2"/><path fill="#ccfaff" stroke="#0c7f99" d="M189.867 69.333h5.333v5.334M195.2 69.333l2.667-2.666" stroke-width="2"/><path fill="#ccfaff" stroke="#0c7f99" d="M189.867 64v5.333h5.333l2.667-2.666v-5.334h-5.334z" stroke-width="2"/><path fill="#ccfaff" stroke="#0c7f99" d="M189.867 64h5.333v5.333M195.2 64l2.667-2.667" stroke-width="2"/><path fill="#ccfaff" stroke="#0c7f99" d="M189.867 58.667V64h5.333l2.667-2.667V56h-5.334z" stroke-width="2"/><path fill="#ccfaff" stroke="#0c7f99" d="M189.867 58.667h5.333V64M195.2 58.667L197.867 56" stroke-width="2"/><path fill="#ccfaff" stroke="#0c7f99" d="M189.867 53.333v5.334h5.333L197.867 56v-5.333h-5.334z" stroke-width="2"/><path fill="#ccfaff" stroke="#0c7f99" d="M189.867 53.333h5.333v5.334M195.2 53.333l2.667-2.666" stroke-width="2"/><path fill="#ccfaff" stroke="#0c7f99" d="M189.867 48v5.333h5.333l2.667-2.666v-5.334h-5.334z" stroke-width="2"/><path fill="#ccfaff" stroke="#0c7f99" d="M189.867 48h5.333v5.333M195.2 48l2.667-2.667" stroke-width="2"/><path fill="#ccfaff" stroke="#000" d="M187.2 45.333L197.867 104" stroke-width="2"/><path fill="#ccfaff" stroke="#0c7f99" d="M202.667 96v5.333H208l2.667-2.666v-5.334h-5.334z" stroke-width="2"/><path fill="#ccfaff" stroke="#0c7f99" d="M202.667 96H208v5.333M208 96l2.667-2.667" stroke-width="2"/><path fill="#ccfaff" stroke="#0c7f99" d="M202.667 90.667V96H208l2.667-2.667V88h-5.334z" stroke-width="2"/><path fill="#ccfaff" stroke="#0c7f99" d="M202.667 90.667H208V96M208 90.667L210.667 88" stroke-width="2"/><path fill="#ccfaff" stroke="#0c7f99" d="M202.667 85.333v5.334H208L210.667 88v-5.333h-5.334z" stroke-width="2"/><path fill="#ccfaff" stroke="#0c7f99" d="M202.667 85.333H208v5.334M208 85.333l2.667-2.666" stroke-width="2"/><path fill="#ccfaff" stroke="#0c7f99" d="M202.667 80v5.333H208l2.667-2.666v-5.334h-5.334z" stroke-width="2"/><path fill="#ccfaff" stroke="#0c7f99" d="M202.667 80H208v5.333M208 80l2.667-2.667" stroke-width="2"/><path fill="#ccfaff" stroke="#0c7f99" d="M202.667 74.667V80H208l2.667-2.667V72h-5.334z" stroke-width="2"/><path fill="#ccfaff" stroke="#0c7f99" d="M202.667 74.667H208V80M208 74.667L210.667 72" stroke-width="2"/><path fill="#ccfaff" stroke="#0c7f99" d="M202.667 69.333v5.334H208L210.667 72v-5.333h-5.334z" stroke-width="2"/><path fill="#ccfaff" stroke="#0c7f99" d="M202.667 69.333H208v5.334M208 69.333l2.667-2.666" stroke-width="2"/><path fill="#ccfaff" stroke="#0c7f99" d="M202.667 64v5.333H208l2.667-2.666v-5.334h-5.334z" stroke-width="2"/><path fill="#ccfaff" stroke="#0c7f99" d="M202.667 64H208v5.333M208 64l2.667-2.667" stroke-width="2"/><path fill="#ccfaff" stroke="#0c7f99" d="M202.667 58.667V64H208l2.667-2.667V56h-5.334z" stroke-width="2"/><path fill="#ccfaff" stroke="#0c7f99" d="M202.667 58.667H208V64M208 58.667L210.667 56" stroke-width="2"/><path fill="#ccfaff" stroke="#0c7f99" d="M202.667 53.333v5.334H208L210.667 56v-5.333h-5.334z" stroke-width="2"/><path fill="#ccfaff" stroke="#0c7f99" d="M202.667 53.333H208v5.334M208 53.333l2.667-2.666" stroke-width="2"/><path fill="#ccfaff" stroke="#0c7f99" d="M202.667 48v5.333H208l2.667-2.666v-5.334h-5.334z" stroke-width="2"/><path fill="#ccfaff" stroke="#0c7f99" d="M202.667 48H208v5.333M208 48l2.667-2.667" stroke-width="2"/><path fill="#ccfaff" stroke="#000" d="M200 45.333L210.667 104" stroke-width="2"/><path fill="#ccfaff" stroke="#0c7f99" d="M215.467 96v5.333h5.333l2.667-2.666v-5.334h-5.334z" stroke-width="2"/><path fill="#ccfaff" stroke="#0c7f99" d="M215.467 96h5.333v5.333M220.8 96l2.667-2.667" stroke-width="2"/><path fill="#ccfaff" stroke="#0c7f99" d="M215.467 90.667V96h5.333l2.667-2.667V88h-5.334z" stroke-width="2"/><path fill="#ccfaff" stroke="#0c7f99" d="M215.467 90.667h5.333V96M220.8 90.667L223.467 88" stroke-width="2"/><path fill="#ccfaff" stroke="#0c7f99" d="M215.467 85.333v5.334h5.333L223.467 88v-5.333h-5.334z" stroke-width="2"/><path fill="#ccfaff" stroke="#0c7f99" d="M215.467 85.333h5.333v5.334M220.8 85.333l2.667-2.666" stroke-width="2"/><path fill="#ccfaff" stroke="#0c7f99" d="M215.467 80v5.333h5.333l2.667-2.666v-5.334h-5.334z" stroke-width="2"/><path fill="#ccfaff" stroke="#0c7f99" d="M215.467 80h5.333v5.333M220.8 80l2.667-2.667" stroke-width="2"/><path fill="#ccfaff" stroke="#0c7f99" d="M215.467 74.667V80h5.333l2.667-2.667V72h-5.334z" stroke-width="2"/><path fill="#ccfaff" stroke="#0c7f99" d="M215.467 74.667h5.333V80M220.8 74.667L223.467 72" stroke-width="2"/><path fill="#ccfaff" stroke="#0c7f99" d="M215.467 69.333v5.334h5.333L223.467 72v-5.333h-5.334z" stroke-width="2"/><path fill="#ccfaff" stroke="#0c7f99" d="M215.467 69.333h5.333v5.334M220.8 69.333l2.667-2.666" stroke-width="2"/><path fill="#ccfaff" stroke="#0c7f99" d="M215.467 64v5.333h5.333l2.667-2.666v-5.334h-5.334z" stroke-width="2"/><path fill="#ccfaff" stroke="#0c7f99" d="M215.467 64h5.333v5.333M220.8 64l2.667-2.667" stroke-width="2"/><path fill="#ccfaff" stroke="#0c7f99" d="M215.467 58.667V64h5.333l2.667-2.667V56h-5.334z" stroke-width="2"/><path fill="#ccfaff" stroke="#0c7f99" d="M215.467 58.667h5.333V64M220.8 58.667L223.467 56" stroke-width="2"/><path fill="#ccfaff" stroke="#0c7f99" d="M215.467 53.333v5.334h5.333L223.467 56v-5.333h-5.334z" stroke-width="2"/><path fill="#ccfaff" stroke="#0c7f99" d="M215.467 53.333h5.333v5.334M220.8 53.333l2.667-2.666" stroke-width="2"/><path fill="#ccfaff" stroke="#0c7f99" d="M215.467 48v5.333h5.333l2.667-2.666v-5.334h-5.334z" stroke-width="2"/><path fill="#ccfaff" stroke="#0c7f99" d="M215.467 48h5.333v5.333M220.8 48l2.667-2.667" stroke-width="2"/><path fill="#ccfaff" stroke="#000" d="M212.8 45.333L223.467 104" stroke-width="2"/><path fill="#ccfaff" stroke="#0c7f99" d="M228.267 96v5.333h5.333l2.667-2.666v-5.334h-5.334z" stroke-width="2"/><path fill="#ccfaff" stroke="#0c7f99" d="M228.267 96h5.333v5.333M233.6 96l2.667-2.667" stroke-width="2"/><path fill="#ccfaff" stroke="#0c7f99" d="M228.267 90.667V96h5.333l2.667-2.667V88h-5.334z" stroke-width="2"/><path fill="#ccfaff" stroke="#0c7f99" d="M228.267 90.667h5.333V96M233.6 90.667L236.267 88" stroke-width="2"/><path fill="#ccfaff" stroke="#0c7f99" d="M228.267 85.333v5.334h5.333L236.267 88v-5.333h-5.334z" stroke-width="2"/><path fill="#ccfaff" stroke="#0c7f99" d="M228.267 85.333h5.333v5.334M233.6 85.333l2.667-2.666" stroke-width="2"/><path fill="#ccfaff" stroke="#0c7f99" d="M228.267 80v5.333h5.333l2.667-2.666v-5.334h-5.334z" stroke-width="2"/><path fill="#ccfaff" stroke="#0c7f99" d="M228.267 80h5.333v5.333M233.6 80l2.667-2.667" stroke-width="2"/><path fill="#ccfaff" stroke="#0c7f99" d="M228.267 74.667V80h5.333l2.667-2.667V72h-5.334z" stroke-width="2"/><path fill="#ccfaff" stroke="#0c7f99" d="M228.267 74.667h5.333V80M233.6 74.667L236.267 72" stroke-width="2"/><path fill="#ccfaff" stroke="#0c7f99" d="M228.267 69.333v5.334h5.333L236.267 72v-5.333h-5.334z" stroke-width="2"/><path fill="#ccfaff" stroke="#0c7f99" d="M228.267 69.333h5.333v5.334M233.6 69.333l2.667-2.666" stroke-width="2"/><path fill="#ccfaff" stroke="#0c7f99" d="M228.267 64v5.333h5.333l2.667-2.666v-5.334h-5.334z" stroke-width="2"/><path fill="#ccfaff" stroke="#0c7f99" d="M228.267 64h5.333v5.333M233.6 64l2.667-2.667" stroke-width="2"/><path fill="#ccfaff" stroke="#0c7f99" d="M228.267 58.667V64h5.333l2.667-2.667V56h-5.334z" stroke-width="2"/><path fill="#ccfaff" stroke="#0c7f99" d="M228.267 58.667h5.333V64M233.6 58.667L236.267 56" stroke-width="2"/><path fill="#ccfaff" stroke="#0c7f99" d="M228.267 53.333v5.334h5.333L236.267 56v-5.333h-5.334z" stroke-width="2"/><path fill="#ccfaff" stroke="#0c7f99" d="M228.267 53.333h5.333v5.334M233.6 53.333l2.667-2.666" stroke-width="2"/><path fill="#ccfaff" stroke="#0c7f99" d="M228.267 48v5.333h5.333l2.667-2.666v-5.334h-5.334z" stroke-width="2"/><path fill="#ccfaff" stroke="#0c7f99" d="M228.267 48h5.333v5.333M233.6 48l2.667-2.667" stroke-width="2"/><path fill="#ccfaff" stroke="#000" d="M225.6 45.333L236.267 104" stroke-width="2"/><path fill="#ccfaff" stroke="#0c7f99" d="M241.067 96v5.333h5.333l2.667-2.666v-5.334h-5.334z" stroke-width="2"/><path fill="#ccfaff" stroke="#0c7f99" d="M241.067 96h5.333v5.333M246.4 96l2.667-2.667" stroke-width="2"/><path fill="#ccfaff" stroke="#0c7f99" d="M241.067 90.667V96h5.333l2.667-2.667V88h-5.334z" stroke-width="2"/><path fill="#ccfaff" stroke="#0c7f99" d="M241.067 90.667h5.333V96M246.4 90.667L249.067 88" stroke-width="2"/><path fill="#ccfaff" stroke="#0c7f99" d="M241.067 85.333v5.334h5.333L249.067 88v-5.333h-5.334z" stroke-width="2"/><path fill="#ccfaff" stroke="#0c7f99" d="M241.067 85.333h5.333v5.334M246.4 85.333l2.667-2.666" stroke-width="2"/><path fill="#ccfaff" stroke="#0c7f99" d="M241.067 80v5.333h5.333l2.667-2.666v-5.334h-5.334z" stroke-width="2"/><path fill="#ccfaff" stroke="#0c7f99" d="M241.067 80h5.333v5.333M246.4 80l2.667-2.667" stroke-width="2"/><path fill="#ccfaff" stroke="#0c7f99" d="M241.067 74.667V80h5.333l2.667-2.667V72h-5.334z" stroke-width="2"/><path fill="#ccfaff" stroke="#0c7f99" d="M241.067 74.667h5.333V80M246.4 74.667L249.067 72" stroke-width="2"/><path fill="#ccfaff" stroke="#0c7f99" d="M241.067 69.333v5.334h5.333L249.067 72v-5.333h-5.334z" stroke-width="2"/><path fill="#ccfaff" stroke="#0c7f99" d="M241.067 69.333h5.333v5.334M246.4 69.333l2.667-2.666" stroke-width="2"/><path fill="#ccfaff" stroke="#0c7f99" d="M241.067 64v5.333h5.333l2.667-2.666v-5.334h-5.334z" stroke-width="2"/><path fill="#ccfaff" stroke="#0c7f99" d="M241.067 64h5.333v5.333M246.4 64l2.667-2.667" stroke-width="2"/><path fill="#ccfaff" stroke="#0c7f99" d="M241.067 58.667V64h5.333l2.667-2.667V56h-5.334z" stroke-width="2"/><path fill="#ccfaff" stroke="#0c7f99" d="M241.067 58.667h5.333V64M246.4 58.667L249.067 56" stroke-width="2"/><path fill="#ccfaff" stroke="#0c7f99" d="M241.067 53.333v5.334h5.333L249.067 56v-5.333h-5.334z" stroke-width="2"/><path fill="#ccfaff" stroke="#0c7f99" d="M241.067 53.333h5.333v5.334M246.4 53.333l2.667-2.666" stroke-width="2"/><path fill="#ccfaff" stroke="#0c7f99" d="M241.067 48v5.333h5.333l2.667-2.666v-5.334h-5.334z" stroke-width="2"/><path fill="#ccfaff" stroke="#0c7f99" d="M241.067 48h5.333v5.333M246.4 48l2.667-2.667" stroke-width="2"/><path fill="#ccfaff" stroke="#000" d="M238.4 45.333L249.067 104" stroke-width="2"/><path fill="#ccfaff" stroke="#0c7f99" d="M253.867 96v5.333h5.333l2.667-2.666v-5.334h-5.334z" stroke-width="2"/><path fill="#ccfaff" stroke="#0c7f99" d="M253.867 96h5.333v5.333M259.2 96l2.667-2.667" stroke-width="2"/><path fill="#ccfaff" stroke="#0c7f99" d="M253.867 90.667V96h5.333l2.667-2.667V88h-5.334z" stroke-width="2"/><path fill="#ccfaff" stroke="#0c7f99" d="M253.867 90.667h5.333V96M259.2 90.667L261.867 88" stroke-width="2"/><path fill="#ccfaff" stroke="#0c7f99" d="M253.867 85.333v5.334h5.333L261.867 88v-5.333h-5.334z" stroke-width="2"/><path fill="#ccfaff" stroke="#0c7f99" d="M253.867 85.333h5.333v5.334M259.2 85.333l2.667-2.666" stroke-width="2"/><path fill="#ccfaff" stroke="#0c7f99" d="M253.867 80v5.333h5.333l2.667-2.666v-5.334h-5.334z" stroke-width="2"/><path fill="#ccfaff" stroke="#0c7f99" d="M253.867 80h5.333v5.333M259.2 80l2.667-2.667" stroke-width="2"/><path fill="#ccfaff" stroke="#0c7f99" d="M253.867 74.667V80h5.333l2.667-2.667V72h-5.334z" stroke-width="2"/><path fill="#ccfaff" stroke="#0c7f99" d="M253.867 74.667h5.333V80M259.2 74.667L261.867 72" stroke-width="2"/><path fill="#ccfaff" stroke="#0c7f99" d="M253.867 69.333v5.334h5.333L261.867 72v-5.333h-5.334z" stroke-width="2"/><path fill="#ccfaff" stroke="#0c7f99" d="M253.867 69.333h5.333v5.334M259.2 69.333l2.667-2.666" stroke-width="2"/><path fill="#ccfaff" stroke="#0c7f99" d="M253.867 64v5.333h5.333l2.667-2.666v-5.334h-5.334z" stroke-width="2"/><path fill="#ccfaff" stroke="#0c7f99" d="M253.867 64h5.333v5.333M259.2 64l2.667-2.667" stroke-width="2"/><path fill="#ccfaff" stroke="#0c7f99" d="M253.867 58.667V64h5.333l2.667-2.667V56h-5.334z" stroke-width="2"/><path fill="#ccfaff" stroke="#0c7f99" d="M253.867 58.667h5.333V64M259.2 58.667L261.867 56" stroke-width="2"/><path fill="#ccfaff" stroke="#0c7f99" d="M253.867 53.333v5.334h5.333L261.867 56v-5.333h-5.334z" stroke-width="2"/><path fill="#ccfaff" stroke="#0c7f99" d="M253.867 53.333h5.333v5.334M259.2 53.333l2.667-2.666" stroke-width="2"/><path fill="#ccfaff" stroke="#0c7f99" d="M253.867 48v5.333h5.333l2.667-2.666v-5.334h-5.334z" stroke-width="2"/><path fill="#ccfaff" stroke="#0c7f99" d="M253.867 48h5.333v5.333M259.2 48l2.667-2.667" stroke-width="2"/><path fill="#ccfaff" stroke="#000" d="M251.2 45.333L261.867 104" stroke-width="2"/><path fill="#ccfaff" stroke="#0c7f99" d="M138.667 224v5.333H144l2.667-2.666v-5.334h-5.334z" stroke-width="2"/><path fill="#ccfaff" stroke="#0c7f99" d="M138.667 224H144v5.333M144 224l2.667-2.667" stroke-width="2"/><path fill="#ccfaff" stroke="#0c7f99" d="M138.667 218.667V224H144l2.667-2.667V216h-5.334z" stroke-width="2"/><path fill="#ccfaff" stroke="#0c7f99" d="M138.667 218.667H144V224M144 218.667l2.667-2.667" stroke-width="2"/><path fill="#ccfaff" stroke="#0c7f99" d="M138.667 213.333v5.334H144l2.667-2.667v-5.333h-5.334z" stroke-width="2"/><path fill="#ccfaff" stroke="#0c7f99" d="M138.667 213.333H144v5.334M144 213.333l2.667-2.666" stroke-width="2"/><path fill="#ccfaff" stroke="#0c7f99" d="M138.667 208v5.333H144l2.667-2.666v-5.334h-5.334z" stroke-width="2"/><path fill="#ccfaff" stroke="#0c7f99" d="M138.667 208H144v5.333M144 208l2.667-2.667" stroke-width="2"/><path fill="#ccfaff" stroke="#0c7f99" d="M138.667 202.667V208H144l2.667-2.667V200h-5.334z" stroke-width="2"/><path fill="#ccfaff" stroke="#0c7f99" d="M138.667 202.667H144V208M144 202.667l2.667-2.667" stroke-width="2"/><path fill="#ccfaff" stroke="#0c7f99" d="M138.667 197.333v5.334H144l2.667-2.667v-5.333h-5.334z" stroke-width="2"/><path fill="#ccfaff" stroke="#0c7f99" d="M138.667 197.333H144v5.334M144 197.333l2.667-2.666" stroke-width="2"/><path fill="#ccfaff" stroke="#0c7f99" d="M138.667 192v5.333H144l2.667-2.666v-5.334h-5.334z" stroke-width="2"/><path fill="#ccfaff" stroke="#0c7f99" d="M138.667 192H144v5.333M144 192l2.667-2.667" stroke-width="2"/><path fill="#ccfaff" stroke="#0c7f99" d="M138.667 186.667V192H144l2.667-2.667V184h-5.334z" stroke-width="2"/><path fill="#ccfaff" stroke="#0c7f99" d="M138.667 186.667H144V192M144 186.667l2.667-2.667" stroke-width="2"/><path fill="#ccfaff" stroke="#0c7f99" d="M138.667 181.333v5.334H144l2.667-2.667v-5.333h-5.334z" stroke-width="2"/><path fill="#ccfaff" stroke="#0c7f99" d="M138.667 181.333H144v5.334M144 181.333l2.667-2.666" stroke-width="2"/><path fill="#ccfaff" stroke="#0c7f99" d="M138.667 176v5.333H144l2.667-2.666v-5.334h-5.334z" stroke-width="2"/><path fill="#ccfaff" stroke="#0c7f99" d="M138.667 176H144v5.333M144 176l2.667-2.667" stroke-width="2"/><path fill="#ccfaff" stroke="#000" d="M136 173.333L146.667 232" stroke-width="2"/><path fill="#ccfaff" stroke="#0c7f99" d="M151.467 224v5.333h5.333l2.667-2.666v-5.334h-5.334z" stroke-width="2"/><path fill="#ccfaff" stroke="#0c7f99" d="M151.467 224h5.333v5.333M156.8 224l2.667-2.667" stroke-width="2"/><path fill="#ccfaff" stroke="#0c7f99" d="M151.467 218.667V224h5.333l2.667-2.667V216h-5.334z" stroke-width="2"/><path fill="#ccfaff" stroke="#0c7f99" d="M151.467 218.667h5.333V224M156.8 218.667l2.667-2.667" stroke-width="2"/><path fill="#ccfaff" stroke="#0c7f99" d="M151.467 213.333v5.334h5.333l2.667-2.667v-5.333h-5.334z" stroke-width="2"/><path fill="#ccfaff" stroke="#0c7f99" d="M151.467 213.333h5.333v5.334M156.8 213.333l2.667-2.666" stroke-width="2"/><path fill="#ccfaff" stroke="#0c7f99" d="M151.467 208v5.333h5.333l2.667-2.666v-5.334h-5.334z" stroke-width="2"/><path fill="#ccfaff" stroke="#0c7f99" d="M151.467 208h5.333v5.333M156.8 208l2.667-2.667" stroke-width="2"/><path fill="#ccfaff" stroke="#0c7f99" d="M151.467 202.667V208h5.333l2.667-2.667V200h-5.334z" stroke-width="2"/><path fill="#ccfaff" stroke="#0c7f99" d="M151.467 202.667h5.333V208M156.8 202.667l2.667-2.667" stroke-width="2"/><path fill="#ccfaff" stroke="#0c7f99" d="M151.467 197.333v5.334h5.333l2.667-2.667v-5.333h-5.334z" stroke-width="2"/><path fill="#ccfaff" stroke="#0c7f99" d="M151.467 197.333h5.333v5.334M156.8 197.333l2.667-2.666" stroke-width="2"/><path fill="#ccfaff" stroke="#0c7f99" d="M151.467 192v5.333h5.333l2.667-2.666v-5.334h-5.334z" stroke-width="2"/><path fill="#ccfaff" stroke="#0c7f99" d="M151.467 192h5.333v5.333M156.8 192l2.667-2.667" stroke-width="2"/><path fill="#ccfaff" stroke="#0c7f99" d="M151.467 186.667V192h5.333l2.667-2.667V184h-5.334z" stroke-width="2"/><path fill="#ccfaff" stroke="#0c7f99" d="M151.467 186.667h5.333V192M156.8 186.667l2.667-2.667" stroke-width="2"/><path fill="#ccfaff" stroke="#0c7f99" d="M151.467 181.333v5.334h5.333l2.667-2.667v-5.333h-5.334z" stroke-width="2"/><path fill="#ccfaff" stroke="#0c7f99" d="M151.467 181.333h5.333v5.334M156.8 181.333l2.667-2.666" stroke-width="2"/><path fill="#ccfaff" stroke="#0c7f99" d="M151.467 176v5.333h5.333l2.667-2.666v-5.334h-5.334z" stroke-width="2"/><path fill="#ccfaff" stroke="#0c7f99" d="M151.467 176h5.333v5.333M156.8 176l2.667-2.667" stroke-width="2"/><path fill="#ccfaff" stroke="#000" d="M148.8 173.333L159.467 232" stroke-width="2"/><path fill="#ccfaff" stroke="#0c7f99" d="M164.267 224v5.333h5.333l2.667-2.666v-5.334h-5.334z" stroke-width="2"/><path fill="#ccfaff" stroke="#0c7f99" d="M164.267 224h5.333v5.333M169.6 224l2.667-2.667" stroke-width="2"/><path fill="#ccfaff" stroke="#0c7f99" d="M164.267 218.667V224h5.333l2.667-2.667V216h-5.334z" stroke-width="2"/><path fill="#ccfaff" stroke="#0c7f99" d="M164.267 218.667h5.333V224M169.6 218.667l2.667-2.667" stroke-width="2"/><path fill="#ccfaff" stroke="#0c7f99" d="M164.267 213.333v5.334h5.333l2.667-2.667v-5.333h-5.334z" stroke-width="2"/><path fill="#ccfaff" stroke="#0c7f99" d="M164.267 213.333h5.333v5.334M169.6 213.333l2.667-2.666" stroke-width="2"/><path fill="#ccfaff" stroke="#0c7f99" d="M164.267 208v5.333h5.333l2.667-2.666v-5.334h-5.334z" stroke-width="2"/><path fill="#ccfaff" stroke="#0c7f99" d="M164.267 208h5.333v5.333M169.6 208l2.667-2.667" stroke-width="2"/><path fill="#ccfaff" stroke="#0c7f99" d="M164.267 202.667V208h5.333l2.667-2.667V200h-5.334z" stroke-width="2"/><path fill="#ccfaff" stroke="#0c7f99" d="M164.267 202.667h5.333V208M169.6 202.667l2.667-2.667" stroke-width="2"/><path fill="#ccfaff" stroke="#0c7f99" d="M164.267 197.333v5.334h5.333l2.667-2.667v-5.333h-5.334z" stroke-width="2"/><path fill="#ccfaff" stroke="#0c7f99" d="M164.267 197.333h5.333v5.334M169.6 197.333l2.667-2.666" stroke-width="2"/><path fill="#ccfaff" stroke="#0c7f99" d="M164.267 192v5.333h5.333l2.667-2.666v-5.334h-5.334z" stroke-width="2"/><path fill="#ccfaff" stroke="#0c7f99" d="M164.267 192h5.333v5.333M169.6 192l2.667-2.667" stroke-width="2"/><path fill="#ccfaff" stroke="#0c7f99" d="M164.267 186.667V192h5.333l2.667-2.667V184h-5.334z" stroke-width="2"/><path fill="#ccfaff" stroke="#0c7f99" d="M164.267 186.667h5.333V192M169.6 186.667l2.667-2.667" stroke-width="2"/><path fill="#ccfaff" stroke="#0c7f99" d="M164.267 181.333v5.334h5.333l2.667-2.667v-5.333h-5.334z" stroke-width="2"/><path fill="#ccfaff" stroke="#0c7f99" d="M164.267 181.333h5.333v5.334M169.6 181.333l2.667-2.666" stroke-width="2"/><path fill="#ccfaff" stroke="#0c7f99" d="M164.267 176v5.333h5.333l2.667-2.666v-5.334h-5.334z" stroke-width="2"/><path fill="#ccfaff" stroke="#0c7f99" d="M164.267 176h5.333v5.333M169.6 176l2.667-2.667" stroke-width="2"/><path fill="#ccfaff" stroke="#000" d="M161.6 173.333L172.267 232" stroke-width="2"/><path fill="#ccfaff" stroke="#0c7f99" d="M177.067 224v5.333h5.333l2.667-2.666v-5.334h-5.334z" stroke-width="2"/><path fill="#ccfaff" stroke="#0c7f99" d="M177.067 224h5.333v5.333M182.4 224l2.667-2.667" stroke-width="2"/><path fill="#ccfaff" stroke="#0c7f99" d="M177.067 218.667V224h5.333l2.667-2.667V216h-5.334z" stroke-width="2"/><path fill="#ccfaff" stroke="#0c7f99" d="M177.067 218.667h5.333V224M182.4 218.667l2.667-2.667" stroke-width="2"/><path fill="#ccfaff" stroke="#0c7f99" d="M177.067 213.333v5.334h5.333l2.667-2.667v-5.333h-5.334z" stroke-width="2"/><path fill="#ccfaff" stroke="#0c7f99" d="M177.067 213.333h5.333v5.334M182.4 213.333l2.667-2.666" stroke-width="2"/><path fill="#ccfaff" stroke="#0c7f99" d="M177.067 208v5.333h5.333l2.667-2.666v-5.334h-5.334z" stroke-width="2"/><path fill="#ccfaff" stroke="#0c7f99" d="M177.067 208h5.333v5.333M182.4 208l2.667-2.667" stroke-width="2"/><path fill="#ccfaff" stroke="#0c7f99" d="M177.067 202.667V208h5.333l2.667-2.667V200h-5.334z" stroke-width="2"/><path fill="#ccfaff" stroke="#0c7f99" d="M177.067 202.667h5.333V208M182.4 202.667l2.667-2.667" stroke-width="2"/><path fill="#ccfaff" stroke="#0c7f99" d="M177.067 197.333v5.334h5.333l2.667-2.667v-5.333h-5.334z" stroke-width="2"/><path fill="#ccfaff" stroke="#0c7f99" d="M177.067 197.333h5.333v5.334M182.4 197.333l2.667-2.666" stroke-width="2"/><path fill="#ccfaff" stroke="#0c7f99" d="M177.067 192v5.333h5.333l2.667-2.666v-5.334h-5.334z" stroke-width="2"/><path fill="#ccfaff" stroke="#0c7f99" d="M177.067 192h5.333v5.333M182.4 192l2.667-2.667" stroke-width="2"/><path fill="#ccfaff" stroke="#0c7f99" d="M177.067 186.667V192h5.333l2.667-2.667V184h-5.334z" stroke-width="2"/><path fill="#ccfaff" stroke="#0c7f99" d="M177.067 186.667h5.333V192M182.4 186.667l2.667-2.667" stroke-width="2"/><path fill="#ccfaff" stroke="#0c7f99" d="M177.067 181.333v5.334h5.333l2.667-2.667v-5.333h-5.334z" stroke-width="2"/><path fill="#ccfaff" stroke="#0c7f99" d="M177.067 181.333h5.333v5.334M182.4 181.333l2.667-2.666" stroke-width="2"/><path fill="#ccfaff" stroke="#0c7f99" d="M177.067 176v5.333h5.333l2.667-2.666v-5.334h-5.334z" stroke-width="2"/><path fill="#ccfaff" stroke="#0c7f99" d="M177.067 176h5.333v5.333M182.4 176l2.667-2.667" stroke-width="2"/><path fill="#ccfaff" stroke="#000" d="M174.4 173.333L185.067 232" stroke-width="2"/><path fill="#ccfaff" stroke="#0c7f99" d="M189.867 224v5.333h5.333l2.667-2.666v-5.334h-5.334z" stroke-width="2"/><path fill="#ccfaff" stroke="#0c7f99" d="M189.867 224h5.333v5.333M195.2 224l2.667-2.667" stroke-width="2"/><path fill="#ccfaff" stroke="#0c7f99" d="M189.867 218.667V224h5.333l2.667-2.667V216h-5.334z" stroke-width="2"/><path fill="#ccfaff" stroke="#0c7f99" d="M189.867 218.667h5.333V224M195.2 218.667l2.667-2.667" stroke-width="2"/><path fill="#ccfaff" stroke="#0c7f99" d="M189.867 213.333v5.334h5.333l2.667-2.667v-5.333h-5.334z" stroke-width="2"/><path fill="#ccfaff" stroke="#0c7f99" d="M189.867 213.333h5.333v5.334M195.2 213.333l2.667-2.666" stroke-width="2"/><path fill="#ccfaff" stroke="#0c7f99" d="M189.867 208v5.333h5.333l2.667-2.666v-5.334h-5.334z" stroke-width="2"/><path fill="#ccfaff" stroke="#0c7f99" d="M189.867 208h5.333v5.333M195.2 208l2.667-2.667" stroke-width="2"/><path fill="#ccfaff" stroke="#0c7f99" d="M189.867 202.667V208h5.333l2.667-2.667V200h-5.334z" stroke-width="2"/><path fill="#ccfaff" stroke="#0c7f99" d="M189.867 202.667h5.333V208M195.2 202.667l2.667-2.667" stroke-width="2"/><path fill="#ccfaff" stroke="#0c7f99" d="M189.867 197.333v5.334h5.333l2.667-2.667v-5.333h-5.334z" stroke-width="2"/><path fill="#ccfaff" stroke="#0c7f99" d="M189.867 197.333h5.333v5.334M195.2 197.333l2.667-2.666" stroke-width="2"/><path fill="#ccfaff" stroke="#0c7f99" d="M189.867 192v5.333h5.333l2.667-2.666v-5.334h-5.334z" stroke-width="2"/><path fill="#ccfaff" stroke="#0c7f99" d="M189.867 192h5.333v5.333M195.2 192l2.667-2.667" stroke-width="2"/><path fill="#ccfaff" stroke="#0c7f99" d="M189.867 186.667V192h5.333l2.667-2.667V184h-5.334z" stroke-width="2"/><path fill="#ccfaff" stroke="#0c7f99" d="M189.867 186.667h5.333V192M195.2 186.667l2.667-2.667" stroke-width="2"/><path fill="#ccfaff" stroke="#0c7f99" d="M189.867 181.333v5.334h5.333l2.667-2.667v-5.333h-5.334z" stroke-width="2"/><path fill="#ccfaff" stroke="#0c7f99" d="M189.867 181.333h5.333v5.334M195.2 181.333l2.667-2.666" stroke-width="2"/><path fill="#ccfaff" stroke="#0c7f99" d="M189.867 176v5.333h5.333l2.667-2.666v-5.334h-5.334z" stroke-width="2"/><path fill="#ccfaff" stroke="#0c7f99" d="M189.867 176h5.333v5.333M195.2 176l2.667-2.667" stroke-width="2"/><path fill="#ccfaff" stroke="#000" d="M187.2 173.333L197.867 232" stroke-width="2"/><path fill="#ccfaff" stroke="#0c7f99" d="M202.667 224v5.333H208l2.667-2.666v-5.334h-5.334z" stroke-width="2"/><path fill="#ccfaff" stroke="#0c7f99" d="M202.667 224H208v5.333M208 224l2.667-2.667" stroke-width="2"/><path fill="#ccfaff" stroke="#0c7f99" d="M202.667 218.667V224H208l2.667-2.667V216h-5.334z" stroke-width="2"/><path fill="#ccfaff" stroke="#0c7f99" d="M202.667 218.667H208V224M208 218.667l2.667-2.667" stroke-width="2"/><path fill="#ccfaff" stroke="#0c7f99" d="M202.667 213.333v5.334H208l2.667-2.667v-5.333h-5.334z" stroke-width="2"/><path fill="#ccfaff" stroke="#0c7f99" d="M202.667 213.333H208v5.334M208 213.333l2.667-2.666" stroke-width="2"/><path fill="#ccfaff" stroke="#0c7f99" d="M202.667 208v5.333H208l2.667-2.666v-5.334h-5.334z" stroke-width="2"/><path fill="#ccfaff" stroke="#0c7f99" d="M202.667 208H208v5.333M208 208l2.667-2.667" stroke-width="2"/><path fill="#ccfaff" stroke="#0c7f99" d="M202.667 202.667V208H208l2.667-2.667V200h-5.334z" stroke-width="2"/><path fill="#ccfaff" stroke="#0c7f99" d="M202.667 202.667H208V208M208 202.667l2.667-2.667" stroke-width="2"/><path fill="#ccfaff" stroke="#0c7f99" d="M202.667 197.333v5.334H208l2.667-2.667v-5.333h-5.334z" stroke-width="2"/><path fill="#ccfaff" stroke="#0c7f99" d="M202.667 197.333H208v5.334M208 197.333l2.667-2.666" stroke-width="2"/><path fill="#ccfaff" stroke="#0c7f99" d="M202.667 192v5.333H208l2.667-2.666v-5.334h-5.334z" stroke-width="2"/><path fill="#ccfaff" stroke="#0c7f99" d="M202.667 192H208v5.333M208 192l2.667-2.667" stroke-width="2"/><path fill="#ccfaff" stroke="#0c7f99" d="M202.667 186.667V192H208l2.667-2.667V184h-5.334z" stroke-width="2"/><path fill="#ccfaff" stroke="#0c7f99" d="M202.667 186.667H208V192M208 186.667l2.667-2.667" stroke-width="2"/><path fill="#ccfaff" stroke="#0c7f99" d="M202.667 181.333v5.334H208l2.667-2.667v-5.333h-5.334z" stroke-width="2"/><path fill="#ccfaff" stroke="#0c7f99" d="M202.667 181.333H208v5.334M208 181.333l2.667-2.666" stroke-width="2"/><path fill="#ccfaff" stroke="#0c7f99" d="M202.667 176v5.333H208l2.667-2.666v-5.334h-5.334z" stroke-width="2"/><path fill="#ccfaff" stroke="#0c7f99" d="M202.667 176H208v5.333M208 176l2.667-2.667" stroke-width="2"/><path fill="#ccfaff" stroke="#000" d="M200 173.333L210.667 232" stroke-width="2"/><path fill="#ccfaff" stroke="#0c7f99" d="M215.467 224v5.333h5.333l2.667-2.666v-5.334h-5.334z" stroke-width="2"/><path fill="#ccfaff" stroke="#0c7f99" d="M215.467 224h5.333v5.333M220.8 224l2.667-2.667" stroke-width="2"/><path fill="#ccfaff" stroke="#0c7f99" d="M215.467 218.667V224h5.333l2.667-2.667V216h-5.334z" stroke-width="2"/><path fill="#ccfaff" stroke="#0c7f99" d="M215.467 218.667h5.333V224M220.8 218.667l2.667-2.667" stroke-width="2"/><path fill="#ccfaff" stroke="#0c7f99" d="M215.467 213.333v5.334h5.333l2.667-2.667v-5.333h-5.334z" stroke-width="2"/><path fill="#ccfaff" stroke="#0c7f99" d="M215.467 213.333h5.333v5.334M220.8 213.333l2.667-2.666" stroke-width="2"/><path fill="#ccfaff" stroke="#0c7f99" d="M215.467 208v5.333h5.333l2.667-2.666v-5.334h-5.334z" stroke-width="2"/><path fill="#ccfaff" stroke="#0c7f99" d="M215.467 208h5.333v5.333M220.8 208l2.667-2.667" stroke-width="2"/><path fill="#ccfaff" stroke="#0c7f99" d="M215.467 202.667V208h5.333l2.667-2.667V200h-5.334z" stroke-width="2"/><path fill="#ccfaff" stroke="#0c7f99" d="M215.467 202.667h5.333V208M220.8 202.667l2.667-2.667" stroke-width="2"/><path fill="#ccfaff" stroke="#0c7f99" d="M215.467 197.333v5.334h5.333l2.667-2.667v-5.333h-5.334z" stroke-width="2"/><path fill="#ccfaff" stroke="#0c7f99" d="M215.467 197.333h5.333v5.334M220.8 197.333l2.667-2.666" stroke-width="2"/><path fill="#ccfaff" stroke="#0c7f99" d="M215.467 192v5.333h5.333l2.667-2.666v-5.334h-5.334z" stroke-width="2"/><path fill="#ccfaff" stroke="#0c7f99" d="M215.467 192h5.333v5.333M220.8 192l2.667-2.667" stroke-width="2"/><path fill="#ccfaff" stroke="#0c7f99" d="M215.467 186.667V192h5.333l2.667-2.667V184h-5.334z" stroke-width="2"/><path fill="#ccfaff" stroke="#0c7f99" d="M215.467 186.667h5.333V192M220.8 186.667l2.667-2.667" stroke-width="2"/><path fill="#ccfaff" stroke="#0c7f99" d="M215.467 181.333v5.334h5.333l2.667-2.667v-5.333h-5.334z" stroke-width="2"/><path fill="#ccfaff" stroke="#0c7f99" d="M215.467 181.333h5.333v5.334M220.8 181.333l2.667-2.666" stroke-width="2"/><path fill="#ccfaff" stroke="#0c7f99" d="M215.467 176v5.333h5.333l2.667-2.666v-5.334h-5.334z" stroke-width="2"/><path fill="#ccfaff" stroke="#0c7f99" d="M215.467 176h5.333v5.333M220.8 176l2.667-2.667" stroke-width="2"/><path fill="#ccfaff" stroke="#000" d="M212.8 173.333L223.467 232" stroke-width="2"/><path fill="#ccfaff" stroke="#0c7f99" d="M228.267 224v5.333h5.333l2.667-2.666v-5.334h-5.334z" stroke-width="2"/><path fill="#ccfaff" stroke="#0c7f99" d="M228.267 224h5.333v5.333M233.6 224l2.667-2.667" stroke-width="2"/><path fill="#ccfaff" stroke="#0c7f99" d="M228.267 218.667V224h5.333l2.667-2.667V216h-5.334z" stroke-width="2"/><path fill="#ccfaff" stroke="#0c7f99" d="M228.267 218.667h5.333V224M233.6 218.667l2.667-2.667" stroke-width="2"/><path fill="#ccfaff" stroke="#0c7f99" d="M228.267 213.333v5.334h5.333l2.667-2.667v-5.333h-5.334z" stroke-width="2"/><path fill="#ccfaff" stroke="#0c7f99" d="M228.267 213.333h5.333v5.334M233.6 213.333l2.667-2.666" stroke-width="2"/><path fill="#ccfaff" stroke="#0c7f99" d="M228.267 208v5.333h5.333l2.667-2.666v-5.334h-5.334z" stroke-width="2"/><path fill="#ccfaff" stroke="#0c7f99" d="M228.267 208h5.333v5.333M233.6 208l2.667-2.667" stroke-width="2"/><path fill="#ccfaff" stroke="#0c7f99" d="M228.267 202.667V208h5.333l2.667-2.667V200h-5.334z" stroke-width="2"/><path fill="#ccfaff" stroke="#0c7f99" d="M228.267 202.667h5.333V208M233.6 202.667l2.667-2.667" stroke-width="2"/><path fill="#ccfaff" stroke="#0c7f99" d="M228.267 197.333v5.334h5.333l2.667-2.667v-5.333h-5.334z" stroke-width="2"/><path fill="#ccfaff" stroke="#0c7f99" d="M228.267 197.333h5.333v5.334M233.6 197.333l2.667-2.666" stroke-width="2"/><path fill="#ccfaff" stroke="#0c7f99" d="M228.267 192v5.333h5.333l2.667-2.666v-5.334h-5.334z" stroke-width="2"/><path fill="#ccfaff" stroke="#0c7f99" d="M228.267 192h5.333v5.333M233.6 192l2.667-2.667" stroke-width="2"/><path fill="#ccfaff" stroke="#0c7f99" d="M228.267 186.667V192h5.333l2.667-2.667V184h-5.334z" stroke-width="2"/><path fill="#ccfaff" stroke="#0c7f99" d="M228.267 186.667h5.333V192M233.6 186.667l2.667-2.667" stroke-width="2"/><path fill="#ccfaff" stroke="#0c7f99" d="M228.267 181.333v5.334h5.333l2.667-2.667v-5.333h-5.334z" stroke-width="2"/><path fill="#ccfaff" stroke="#0c7f99" d="M228.267 181.333h5.333v5.334M233.6 181.333l2.667-2.666" stroke-width="2"/><path fill="#ccfaff" stroke="#0c7f99" d="M228.267 176v5.333h5.333l2.667-2.666v-5.334h-5.334z" stroke-width="2"/><path fill="#ccfaff" stroke="#0c7f99" d="M228.267 176h5.333v5.333M233.6 176l2.667-2.667" stroke-width="2"/><path fill="#ccfaff" stroke="#000" d="M225.6 173.333L236.267 232" stroke-width="2"/><path fill="#ccfaff" stroke="#0c7f99" d="M241.067 224v5.333h5.333l2.667-2.666v-5.334h-5.334z" stroke-width="2"/><path fill="#ccfaff" stroke="#0c7f99" d="M241.067 224h5.333v5.333M246.4 224l2.667-2.667" stroke-width="2"/><path fill="#ccfaff" stroke="#0c7f99" d="M241.067 218.667V224h5.333l2.667-2.667V216h-5.334z" stroke-width="2"/><path fill="#ccfaff" stroke="#0c7f99" d="M241.067 218.667h5.333V224M246.4 218.667l2.667-2.667" stroke-width="2"/><path fill="#ccfaff" stroke="#0c7f99" d="M241.067 213.333v5.334h5.333l2.667-2.667v-5.333h-5.334z" stroke-width="2"/><path fill="#ccfaff" stroke="#0c7f99" d="M241.067 213.333h5.333v5.334M246.4 213.333l2.667-2.666" stroke-width="2"/><path fill="#ccfaff" stroke="#0c7f99" d="M241.067 208v5.333h5.333l2.667-2.666v-5.334h-5.334z" stroke-width="2"/><path fill="#ccfaff" stroke="#0c7f99" d="M241.067 208h5.333v5.333M246.4 208l2.667-2.667" stroke-width="2"/><path fill="#ccfaff" stroke="#0c7f99" d="M241.067 202.667V208h5.333l2.667-2.667V200h-5.334z" stroke-width="2"/><path fill="#ccfaff" stroke="#0c7f99" d="M241.067 202.667h5.333V208M246.4 202.667l2.667-2.667" stroke-width="2"/><path fill="#ccfaff" stroke="#0c7f99" d="M241.067 197.333v5.334h5.333l2.667-2.667v-5.333h-5.334z" stroke-width="2"/><path fill="#ccfaff" stroke="#0c7f99" d="M241.067 197.333h5.333v5.334M246.4 197.333l2.667-2.666" stroke-width="2"/><path fill="#ccfaff" stroke="#0c7f99" d="M241.067 192v5.333h5.333l2.667-2.666v-5.334h-5.334z" stroke-width="2"/><path fill="#ccfaff" stroke="#0c7f99" d="M241.067 192h5.333v5.333M246.4 192l2.667-2.667" stroke-width="2"/><path fill="#ccfaff" stroke="#0c7f99" d="M241.067 186.667V192h5.333l2.667-2.667V184h-5.334z" stroke-width="2"/><path fill="#ccfaff" stroke="#0c7f99" d="M241.067 186.667h5.333V192M246.4 186.667l2.667-2.667" stroke-width="2"/><path fill="#ccfaff" stroke="#0c7f99" d="M241.067 181.333v5.334h5.333l2.667-2.667v-5.333h-5.334z" stroke-width="2"/><path fill="#ccfaff" stroke="#0c7f99" d="M241.067 181.333h5.333v5.334M246.4 181.333l2.667-2.666" stroke-width="2"/><path fill="#ccfaff" stroke="#0c7f99" d="M241.067 176v5.333h5.333l2.667-2.666v-5.334h-5.334z" stroke-width="2"/><path fill="#ccfaff" stroke="#0c7f99" d="M241.067 176h5.333v5.333M246.4 176l2.667-2.667" stroke-width="2"/><path fill="#ccfaff" stroke="#000" d="M238.4 173.333L249.067 232" stroke-width="2"/><path fill="#ccfaff" stroke="#0c7f99" d="M253.867 224v5.333h5.333l2.667-2.666v-5.334h-5.334z" stroke-width="2"/><path fill="#ccfaff" stroke="#0c7f99" d="M253.867 224h5.333v5.333M259.2 224l2.667-2.667" stroke-width="2"/><path fill="#ccfaff" stroke="#0c7f99" d="M253.867 218.667V224h5.333l2.667-2.667V216h-5.334z" stroke-width="2"/><path fill="#ccfaff" stroke="#0c7f99" d="M253.867 218.667h5.333V224M259.2 218.667l2.667-2.667" stroke-width="2"/><path fill="#ccfaff" stroke="#0c7f99" d="M253.867 213.333v5.334h5.333l2.667-2.667v-5.333h-5.334z" stroke-width="2"/><path fill="#ccfaff" stroke="#0c7f99" d="M253.867 213.333h5.333v5.334M259.2 213.333l2.667-2.666" stroke-width="2"/><path fill="#ccfaff" stroke="#0c7f99" d="M253.867 208v5.333h5.333l2.667-2.666v-5.334h-5.334z" stroke-width="2"/><path fill="#ccfaff" stroke="#0c7f99" d="M253.867 208h5.333v5.333M259.2 208l2.667-2.667" stroke-width="2"/><path fill="#ccfaff" stroke="#0c7f99" d="M253.867 202.667V208h5.333l2.667-2.667V200h-5.334z" stroke-width="2"/><path fill="#ccfaff" stroke="#0c7f99" d="M253.867 202.667h5.333V208M259.2 202.667l2.667-2.667" stroke-width="2"/><path fill="#ccfaff" stroke="#0c7f99" d="M253.867 197.333v5.334h5.333l2.667-2.667v-5.333h-5.334z" stroke-width="2"/><path fill="#ccfaff" stroke="#0c7f99" d="M253.867 197.333h5.333v5.334M259.2 197.333l2.667-2.666" stroke-width="2"/><path fill="#ccfaff" stroke="#0c7f99" d="M253.867 192v5.333h5.333l2.667-2.666v-5.334h-5.334z" stroke-width="2"/><path fill="#ccfaff" stroke="#0c7f99" d="M253.867 192h5.333v5.333M259.2 192l2.667-2.667" stroke-width="2"/><path fill="#ccfaff" stroke="#0c7f99" d="M253.867 186.667V192h5.333l2.667-2.667V184h-5.334z" stroke-width="2"/><path fill="#ccfaff" stroke="#0c7f99" d="M253.867 186.667h5.333V192M259.2 186.667l2.667-2.667" stroke-width="2"/><path fill="#ccfaff" stroke="#0c7f99" d="M253.867 181.333v5.334h5.333l2.667-2.667v-5.333h-5.334z" stroke-width="2"/><path fill="#ccfaff" stroke="#0c7f99" d="M253.867 181.333h5.333v5.334M259.2 181.333l2.667-2.666" stroke-width="2"/><path fill="#ccfaff" stroke="#0c7f99" d="M253.867 176v5.333h5.333l2.667-2.666v-5.334h-5.334z" stroke-width="2"/><path fill="#ccfaff" stroke="#0c7f99" d="M253.867 176h5.333v5.333M259.2 176l2.667-2.667" stroke-width="2"/><path fill="#ccfaff" stroke="#000" d="M251.2 173.333L261.867 232" stroke-width="2"/><path fill="#ffbde0" stroke="#9e034e" d="M374.4 48v5.333h5.333l2.667-2.666v-5.334h-5.333z" stroke-width="2"/><path fill="#ffbde0" stroke="#9e034e" d="M374.4 48h5.333v5.333M379.733 48l2.667-2.667M387.2 48v5.333h5.333l2.667-2.666v-5.334h-5.333z" stroke-width="2"/><path fill="#ffbde0" stroke="#9e034e" d="M387.2 48h5.333v5.333M392.533 48l2.667-2.667M272 73.067V78.4h5.333L280 75.733V70.4h-5.333z" stroke-width="2"/><path fill="#ffbde0" stroke="#9e034e" d="M272 73.067h5.333V78.4M277.333 73.067L280 70.4M284.8 73.067V78.4h5.333l2.667-2.667V70.4h-5.333z" stroke-width="2"/><path fill="#ffbde0" stroke="#9e034e" d="M284.8 73.067h5.333V78.4M290.133 73.067L292.8 70.4M297.6 73.067V78.4h5.333l2.667-2.667V70.4h-5.333z" stroke-width="2"/><path fill="#ffbde0" stroke="#9e034e" d="M297.6 73.067h5.333V78.4M302.933 73.067L305.6 70.4M310.4 73.067V78.4h5.333l2.667-2.667V70.4h-5.333z" stroke-width="2"/><path fill="#ffbde0" stroke="#9e034e" d="M310.4 73.067h5.333V78.4M315.733 73.067L318.4 70.4M323.2 73.067V78.4h5.333l2.667-2.667V70.4h-5.333z" stroke-width="2"/><path fill="#ffbde0" stroke="#9e034e" d="M323.2 73.067h5.333V78.4M328.533 73.067L331.2 70.4M336 73.067V78.4h5.333L344 75.733V70.4h-5.333z" stroke-width="2"/><path fill="#ffbde0" stroke="#9e034e" d="M336 73.067h5.333V78.4M341.333 73.067L344 70.4M348.8 73.067V78.4h5.333l2.667-2.667V70.4h-5.333z" stroke-width="2"/><path fill="#ffbde0" stroke="#9e034e" d="M348.8 73.067h5.333V78.4M354.133 73.067L356.8 70.4M361.6 73.067V78.4h5.333l2.667-2.667V70.4h-5.333z" stroke-width="2"/><path fill="#ffbde0" stroke="#9e034e" d="M361.6 73.067h5.333V78.4M366.933 73.067L369.6 70.4M374.4 73.067V78.4h5.333l2.667-2.667V70.4h-5.333z" stroke-width="2"/><path fill="#ffbde0" stroke="#9e034e" d="M374.4 73.067h5.333V78.4M379.733 73.067L382.4 70.4M387.2 73.067V78.4h5.333l2.667-2.667V70.4h-5.333z" stroke-width="2"/><path fill="#ffbde0" stroke="#9e034e" d="M387.2 73.067h5.333V78.4M392.533 73.067L395.2 70.4M272 85.6v5.333h5.333L280 88.267v-5.334h-5.333z" stroke-width="2"/><path fill="#ffbde0" stroke="#9e034e" d="M272 85.6h5.333v5.333M277.333 85.6L280 82.933M284.8 85.6v5.333h5.333l2.667-2.666v-5.334h-5.333z" stroke-width="2"/><path fill="#ffbde0" stroke="#9e034e" d="M284.8 85.6h5.333v5.333M290.133 85.6l2.667-2.667M297.6 85.6v5.333h5.333l2.667-2.666v-5.334h-5.333z" stroke-width="2"/><path fill="#ffbde0" stroke="#9e034e" d="M297.6 85.6h5.333v5.333M302.933 85.6l2.667-2.667M310.4 85.6v5.333h5.333l2.667-2.666v-5.334h-5.333z" stroke-width="2"/><path fill="#ffbde0" stroke="#9e034e" d="M310.4 85.6h5.333v5.333M315.733 85.6l2.667-2.667M323.2 85.6v5.333h5.333l2.667-2.666v-5.334h-5.333z" stroke-width="2"/><path fill="#ffbde0" stroke="#9e034e" d="M323.2 85.6h5.333v5.333M328.533 85.6l2.667-2.667M336 85.6v5.333h5.333L344 88.267v-5.334h-5.333z" stroke-width="2"/><path fill="#ffbde0" stroke="#9e034e" d="M336 85.6h5.333v5.333M341.333 85.6L344 82.933M348.8 85.6v5.333h5.333l2.667-2.666v-5.334h-5.333z" stroke-width="2"/><path fill="#ffbde0" stroke="#9e034e" d="M348.8 85.6h5.333v5.333M354.133 85.6l2.667-2.667M361.6 85.6v5.333h5.333l2.667-2.666v-5.334h-5.333z" stroke-width="2"/><path fill="#ffbde0" stroke="#9e034e" d="M361.6 85.6h5.333v5.333M366.933 85.6l2.667-2.667M374.4 85.6v5.333h5.333l2.667-2.666v-5.334h-5.333z" stroke-width="2"/><path fill="#ffbde0" stroke="#9e034e" d="M374.4 85.6h5.333v5.333M379.733 85.6l2.667-2.667M387.2 85.6v5.333h5.333l2.667-2.666v-5.334h-5.333z" stroke-width="2"/><path fill="#ffbde0" stroke="#9e034e" d="M387.2 85.6h5.333v5.333M392.533 85.6l2.667-2.667M272 98.133v5.334h5.333L280 100.8v-5.333h-5.333z" stroke-width="2"/><path fill="#ffbde0" stroke="#9e034e" d="M272 98.133h5.333v5.334M277.333 98.133L280 95.467M284.8 98.133v5.334h5.333l2.667-2.667v-5.333h-5.333z" stroke-width="2"/><path fill="#ffbde0" stroke="#9e034e" d="M284.8 98.133h5.333v5.334M290.133 98.133l2.667-2.666M297.6 98.133v5.334h5.333l2.667-2.667v-5.333h-5.333z" stroke-width="2"/><path fill="#ffbde0" stroke="#9e034e" d="M297.6 98.133h5.333v5.334M302.933 98.133l2.667-2.666M310.4 98.133v5.334h5.333l2.667-2.667v-5.333h-5.333z" stroke-width="2"/><path fill="#ffbde0" stroke="#9e034e" d="M310.4 98.133h5.333v5.334M315.733 98.133l2.667-2.666M323.2 98.133v5.334h5.333l2.667-2.667v-5.333h-5.333z" stroke-width="2"/><path fill="#ffbde0" stroke="#9e034e" d="M323.2 98.133h5.333v5.334M328.533 98.133l2.667-2.666M336 98.133v5.334h5.333L344 100.8v-5.333h-5.333z" stroke-width="2"/><path fill="#ffbde0" stroke="#9e034e" d="M336 98.133h5.333v5.334M341.333 98.133L344 95.467M348.8 98.133v5.334h5.333l2.667-2.667v-5.333h-5.333z" stroke-width="2"/><path fill="#ffbde0" stroke="#9e034e" d="M348.8 98.133h5.333v5.334M354.133 98.133l2.667-2.666M361.6 98.133v5.334h5.333l2.667-2.667v-5.333h-5.333z" stroke-width="2"/><path fill="#ffbde0" stroke="#9e034e" d="M361.6 98.133h5.333v5.334M366.933 98.133l2.667-2.666M374.4 98.133v5.334h5.333l2.667-2.667v-5.333h-5.333z" stroke-width="2"/><path fill="#ffbde0" stroke="#9e034e" d="M374.4 98.133h5.333v5.334M379.733 98.133l2.667-2.666M387.2 98.133v5.334h5.333l2.667-2.667v-5.333h-5.333z" stroke-width="2"/><path fill="#ffbde0" stroke="#9e034e" d="M387.2 98.133h5.333v5.334M392.533 98.133l2.667-2.666M272 110.667V116h5.333l2.667-2.667V108h-5.333z" stroke-width="2"/><path fill="#ffbde0" stroke="#9e034e" d="M272 110.667h5.333V116M277.333 110.667L280 108M284.8 110.667V116h5.333l2.667-2.667V108h-5.333z" stroke-width="2"/><path fill="#ffbde0" stroke="#9e034e" d="M284.8 110.667h5.333V116M290.133 110.667L292.8 108M297.6 110.667V116h5.333l2.667-2.667V108h-5.333z" stroke-width="2"/><path fill="#ffbde0" stroke="#9e034e" d="M297.6 110.667h5.333V116M302.933 110.667L305.6 108M310.4 110.667V116h5.333l2.667-2.667V108h-5.333z" stroke-width="2"/><path fill="#ffbde0" stroke="#9e034e" d="M310.4 110.667h5.333V116M315.733 110.667L318.4 108M323.2 110.667V116h5.333l2.667-2.667V108h-5.333z" stroke-width="2"/><path fill="#ffbde0" stroke="#9e034e" d="M323.2 110.667h5.333V116M328.533 110.667L331.2 108M336 110.667V116h5.333l2.667-2.667V108h-5.333z" stroke-width="2"/><path fill="#ffbde0" stroke="#9e034e" d="M336 110.667h5.333V116M341.333 110.667L344 108M348.8 110.667V116h5.333l2.667-2.667V108h-5.333z" stroke-width="2"/><path fill="#ffbde0" stroke="#9e034e" d="M348.8 110.667h5.333V116M354.133 110.667L356.8 108M361.6 110.667V116h5.333l2.667-2.667V108h-5.333z" stroke-width="2"/><path fill="#ffbde0" stroke="#9e034e" d="M361.6 110.667h5.333V116M366.933 110.667L369.6 108M374.4 110.667V116h5.333l2.667-2.667V108h-5.333z" stroke-width="2"/><path fill="#ffbde0" stroke="#9e034e" d="M374.4 110.667h5.333V116M379.733 110.667L382.4 108M387.2 110.667V116h5.333l2.667-2.667V108h-5.333z" stroke-width="2"/><path fill="#ffbde0" stroke="#9e034e" d="M387.2 110.667h5.333V116M392.533 110.667L395.2 108M272 123.2v5.333h5.333l2.667-2.666v-5.334h-5.333z" stroke-width="2"/><path fill="#ffbde0" stroke="#9e034e" d="M272 123.2h5.333v5.333M277.333 123.2l2.667-2.667M284.8 123.2v5.333h5.333l2.667-2.666v-5.334h-5.333z" stroke-width="2"/><path fill="#ffbde0" stroke="#9e034e" d="M284.8 123.2h5.333v5.333M290.133 123.2l2.667-2.667M297.6 123.2v5.333h5.333l2.667-2.666v-5.334h-5.333z" stroke-width="2"/><path fill="#ffbde0" stroke="#9e034e" d="M297.6 123.2h5.333v5.333M302.933 123.2l2.667-2.667M310.4 123.2v5.333h5.333l2.667-2.666v-5.334h-5.333z" stroke-width="2"/><path fill="#ffbde0" stroke="#9e034e" d="M310.4 123.2h5.333v5.333M315.733 123.2l2.667-2.667M323.2 123.2v5.333h5.333l2.667-2.666v-5.334h-5.333z" stroke-width="2"/><path fill="#ffbde0" stroke="#9e034e" d="M323.2 123.2h5.333v5.333M328.533 123.2l2.667-2.667M336 123.2v5.333h5.333l2.667-2.666v-5.334h-5.333z" stroke-width="2"/><path fill="#ffbde0" stroke="#9e034e" d="M336 123.2h5.333v5.333M341.333 123.2l2.667-2.667M348.8 123.2v5.333h5.333l2.667-2.666v-5.334h-5.333z" stroke-width="2"/><path fill="#ffbde0" stroke="#9e034e" d="M348.8 123.2h5.333v5.333M354.133 123.2l2.667-2.667M361.6 123.2v5.333h5.333l2.667-2.666v-5.334h-5.333z" stroke-width="2"/><path fill="#ffbde0" stroke="#9e034e" d="M361.6 123.2h5.333v5.333M366.933 123.2l2.667-2.667M374.4 123.2v5.333h5.333l2.667-2.666v-5.334h-5.333z" stroke-width="2"/><path fill="#ffbde0" stroke="#9e034e" d="M374.4 123.2h5.333v5.333M379.733 123.2l2.667-2.667M387.2 123.2v5.333h5.333l2.667-2.666v-5.334h-5.333z" stroke-width="2"/><path fill="#ffbde0" stroke="#9e034e" d="M387.2 123.2h5.333v5.333M392.533 123.2l2.667-2.667M272 135.733v5.334h5.333L280 138.4v-5.333h-5.333z" stroke-width="2"/><path fill="#ffbde0" stroke="#9e034e" d="M272 135.733h5.333v5.334M277.333 135.733l2.667-2.666M284.8 135.733v5.334h5.333l2.667-2.667v-5.333h-5.333z" stroke-width="2"/><path fill="#ffbde0" stroke="#9e034e" d="M284.8 135.733h5.333v5.334M290.133 135.733l2.667-2.666M297.6 135.733v5.334h5.333l2.667-2.667v-5.333h-5.333z" stroke-width="2"/><path fill="#ffbde0" stroke="#9e034e" d="M297.6 135.733h5.333v5.334M302.933 135.733l2.667-2.666M310.4 135.733v5.334h5.333l2.667-2.667v-5.333h-5.333z" stroke-width="2"/><path fill="#ffbde0" stroke="#9e034e" d="M310.4 135.733h5.333v5.334M315.733 135.733l2.667-2.666M323.2 135.733v5.334h5.333l2.667-2.667v-5.333h-5.333z" stroke-width="2"/><path fill="#ffbde0" stroke="#9e034e" d="M323.2 135.733h5.333v5.334M328.533 135.733l2.667-2.666M336 135.733v5.334h5.333L344 138.4v-5.333h-5.333z" stroke-width="2"/><path fill="#ffbde0" stroke="#9e034e" d="M336 135.733h5.333v5.334M341.333 135.733l2.667-2.666M348.8 135.733v5.334h5.333l2.667-2.667v-5.333h-5.333z" stroke-width="2"/><path fill="#ffbde0" stroke="#9e034e" d="M348.8 135.733h5.333v5.334M354.133 135.733l2.667-2.666M361.6 135.733v5.334h5.333l2.667-2.667v-5.333h-5.333z" stroke-width="2"/><path fill="#ffbde0" stroke="#9e034e" d="M361.6 135.733h5.333v5.334M366.933 135.733l2.667-2.666M374.4 135.733v5.334h5.333l2.667-2.667v-5.333h-5.333z" stroke-width="2"/><path fill="#ffbde0" stroke="#9e034e" d="M374.4 135.733h5.333v5.334M379.733 135.733l2.667-2.666M387.2 135.733v5.334h5.333l2.667-2.667v-5.333h-5.333z" stroke-width="2"/><path fill="#ffbde0" stroke="#9e034e" d="M387.2 135.733h5.333v5.334M392.533 135.733l2.667-2.666M272 148.267v5.333h5.333l2.667-2.667V145.6h-5.333z" stroke-width="2"/><path fill="#ffbde0" stroke="#9e034e" d="M272 148.267h5.333v5.333M277.333 148.267L280 145.6M284.8 148.267v5.333h5.333l2.667-2.667V145.6h-5.333z" stroke-width="2"/><path fill="#ffbde0" stroke="#9e034e" d="M284.8 148.267h5.333v5.333M290.133 148.267l2.667-2.667M297.6 148.267v5.333h5.333l2.667-2.667V145.6h-5.333z" stroke-width="2"/><path fill="#ffbde0" stroke="#9e034e" d="M297.6 148.267h5.333v5.333M302.933 148.267l2.667-2.667M310.4 148.267v5.333h5.333l2.667-2.667V145.6h-5.333z" stroke-width="2"/><path fill="#ffbde0" stroke="#9e034e" d="M310.4 148.267h5.333v5.333M315.733 148.267l2.667-2.667M323.2 148.267v5.333h5.333l2.667-2.667V145.6h-5.333z" stroke-width="2"/><path fill="#ffbde0" stroke="#9e034e" d="M323.2 148.267h5.333v5.333M328.533 148.267l2.667-2.667M336 148.267v5.333h5.333l2.667-2.667V145.6h-5.333z" stroke-width="2"/><path fill="#ffbde0" stroke="#9e034e" d="M336 148.267h5.333v5.333M341.333 148.267L344 145.6M348.8 148.267v5.333h5.333l2.667-2.667V145.6h-5.333z" stroke-width="2"/><path fill="#ffbde0" stroke="#9e034e" d="M348.8 148.267h5.333v5.333M354.133 148.267l2.667-2.667M361.6 148.267v5.333h5.333l2.667-2.667V145.6h-5.333z" stroke-width="2"/><path fill="#ffbde0" stroke="#9e034e" d="M361.6 148.267h5.333v5.333M366.933 148.267l2.667-2.667M374.4 148.267v5.333h5.333l2.667-2.667V145.6h-5.333z" stroke-width="2"/><path fill="#ffbde0" stroke="#9e034e" d="M374.4 148.267h5.333v5.333M379.733 148.267l2.667-2.667M387.2 148.267v5.333h5.333l2.667-2.667V145.6h-5.333z" stroke-width="2"/><path fill="#ffbde0" stroke="#9e034e" d="M387.2 148.267h5.333v5.333M392.533 148.267l2.667-2.667M272 160.8v5.333h5.333l2.667-2.666v-5.334h-5.333z" stroke-width="2"/><path fill="#ffbde0" stroke="#9e034e" d="M272 160.8h5.333v5.333M277.333 160.8l2.667-2.667M284.8 160.8v5.333h5.333l2.667-2.666v-5.334h-5.333z" stroke-width="2"/><path fill="#ffbde0" stroke="#9e034e" d="M284.8 160.8h5.333v5.333M290.133 160.8l2.667-2.667M297.6 160.8v5.333h5.333l2.667-2.666v-5.334h-5.333z" stroke-width="2"/><path fill="#ffbde0" stroke="#9e034e" d="M297.6 160.8h5.333v5.333M302.933 160.8l2.667-2.667M310.4 160.8v5.333h5.333l2.667-2.666v-5.334h-5.333z" stroke-width="2"/><path fill="#ffbde0" stroke="#9e034e" d="M310.4 160.8h5.333v5.333M315.733 160.8l2.667-2.667M323.2 160.8v5.333h5.333l2.667-2.666v-5.334h-5.333z" stroke-width="2"/><path fill="#ffbde0" stroke="#9e034e" d="M323.2 160.8h5.333v5.333M328.533 160.8l2.667-2.667M336 160.8v5.333h5.333l2.667-2.666v-5.334h-5.333z" stroke-width="2"/><path fill="#ffbde0" stroke="#9e034e" d="M336 160.8h5.333v5.333M341.333 160.8l2.667-2.667M348.8 160.8v5.333h5.333l2.667-2.666v-5.334h-5.333z" stroke-width="2"/><path fill="#ffbde0" stroke="#9e034e" d="M348.8 160.8h5.333v5.333M354.133 160.8l2.667-2.667M361.6 160.8v5.333h5.333l2.667-2.666v-5.334h-5.333z" stroke-width="2"/><path fill="#ffbde0" stroke="#9e034e" d="M361.6 160.8h5.333v5.333M366.933 160.8l2.667-2.667M374.4 160.8v5.333h5.333l2.667-2.666v-5.334h-5.333z" stroke-width="2"/><path fill="#ffbde0" stroke="#9e034e" d="M374.4 160.8h5.333v5.333M379.733 160.8l2.667-2.667M387.2 160.8v5.333h5.333l2.667-2.666v-5.334h-5.333z" stroke-width="2"/><path fill="#ffbde0" stroke="#9e034e" d="M387.2 160.8h5.333v5.333M392.533 160.8l2.667-2.667M272 173.333v5.334h5.333L280 176v-5.333h-5.333z" stroke-width="2"/><path fill="#ffbde0" stroke="#9e034e" d="M272 173.333h5.333v5.334M277.333 173.333l2.667-2.666M284.8 173.333v5.334h5.333L292.8 176v-5.333h-5.333z" stroke-width="2"/><path fill="#ffbde0" stroke="#9e034e" d="M284.8 173.333h5.333v5.334M290.133 173.333l2.667-2.666M297.6 173.333v5.334h5.333L305.6 176v-5.333h-5.333z" stroke-width="2"/><path fill="#ffbde0" stroke="#9e034e" d="M297.6 173.333h5.333v5.334M302.933 173.333l2.667-2.666M310.4 173.333v5.334h5.333L318.4 176v-5.333h-5.333z" stroke-width="2"/><path fill="#ffbde0" stroke="#9e034e" d="M310.4 173.333h5.333v5.334M315.733 173.333l2.667-2.666M323.2 173.333v5.334h5.333L331.2 176v-5.333h-5.333z" stroke-width="2"/><path fill="#ffbde0" stroke="#9e034e" d="M323.2 173.333h5.333v5.334M328.533 173.333l2.667-2.666M336 173.333v5.334h5.333L344 176v-5.333h-5.333z" stroke-width="2"/><path fill="#ffbde0" stroke="#9e034e" d="M336 173.333h5.333v5.334M341.333 173.333l2.667-2.666M348.8 173.333v5.334h5.333L356.8 176v-5.333h-5.333z" stroke-width="2"/><path fill="#ffbde0" stroke="#9e034e" d="M348.8 173.333h5.333v5.334M354.133 173.333l2.667-2.666M361.6 173.333v5.334h5.333L369.6 176v-5.333h-5.333z" stroke-width="2"/><path fill="#ffbde0" stroke="#9e034e" d="M361.6 173.333h5.333v5.334M366.933 173.333l2.667-2.666M374.4 173.333v5.334h5.333L382.4 176v-5.333h-5.333z" stroke-width="2"/><path fill="#ffbde0" stroke="#9e034e" d="M374.4 173.333h5.333v5.334M379.733 173.333l2.667-2.666M387.2 173.333v5.334h5.333L395.2 176v-5.333h-5.333z" stroke-width="2"/><path fill="#ffbde0" stroke="#9e034e" d="M387.2 173.333h5.333v5.334M392.533 173.333l2.667-2.666M272 198.4v5.333h5.333l2.667-2.666v-5.334h-5.333z" stroke-width="2"/><path fill="#ffbde0" stroke="#9e034e" d="M272 198.4h5.333v5.333M277.333 198.4l2.667-2.667M284.8 198.4v5.333h5.333l2.667-2.666v-5.334h-5.333z" stroke-width="2"/><path fill="#ffbde0" stroke="#9e034e" d="M284.8 198.4h5.333v5.333M290.133 198.4l2.667-2.667M297.6 198.4v5.333h5.333l2.667-2.666v-5.334h-5.333z" stroke-width="2"/><path fill="#ffbde0" stroke="#9e034e" d="M297.6 198.4h5.333v5.333M302.933 198.4l2.667-2.667M310.4 198.4v5.333h5.333l2.667-2.666v-5.334h-5.333z" stroke-width="2"/><path fill="#ffbde0" stroke="#9e034e" d="M310.4 198.4h5.333v5.333M315.733 198.4l2.667-2.667M323.2 198.4v5.333h5.333l2.667-2.666v-5.334h-5.333z" stroke-width="2"/><path fill="#ffbde0" stroke="#9e034e" d="M323.2 198.4h5.333v5.333M328.533 198.4l2.667-2.667M336 198.4v5.333h5.333l2.667-2.666v-5.334h-5.333z" stroke-width="2"/><path fill="#ffbde0" stroke="#9e034e" d="M336 198.4h5.333v5.333M341.333 198.4l2.667-2.667M348.8 198.4v5.333h5.333l2.667-2.666v-5.334h-5.333z" stroke-width="2"/><path fill="#ffbde0" stroke="#9e034e" d="M348.8 198.4h5.333v5.333M354.133 198.4l2.667-2.667M361.6 198.4v5.333h5.333l2.667-2.666v-5.334h-5.333z" stroke-width="2"/><path fill="#ffbde0" stroke="#9e034e" d="M361.6 198.4h5.333v5.333M366.933 198.4l2.667-2.667M374.4 198.4v5.333h5.333l2.667-2.666v-5.334h-5.333z" stroke-width="2"/><path fill="#ffbde0" stroke="#9e034e" d="M374.4 198.4h5.333v5.333M379.733 198.4l2.667-2.667M387.2 198.4v5.333h5.333l2.667-2.666v-5.334h-5.333z" stroke-width="2"/><path fill="#ffbde0" stroke="#9e034e" d="M387.2 198.4h5.333v5.333M392.533 198.4l2.667-2.667M272 210.933v5.334h5.333L280 213.6v-5.333h-5.333z" stroke-width="2"/><path fill="#ffbde0" stroke="#9e034e" d="M272 210.933h5.333v5.334M277.333 210.933l2.667-2.666M284.8 210.933v5.334h5.333l2.667-2.667v-5.333h-5.333z" stroke-width="2"/><path fill="#ffbde0" stroke="#9e034e" d="M284.8 210.933h5.333v5.334M290.133 210.933l2.667-2.666M297.6 210.933v5.334h5.333l2.667-2.667v-5.333h-5.333z" stroke-width="2"/><path fill="#ffbde0" stroke="#9e034e" d="M297.6 210.933h5.333v5.334M302.933 210.933l2.667-2.666M310.4 210.933v5.334h5.333l2.667-2.667v-5.333h-5.333z" stroke-width="2"/><path fill="#ffbde0" stroke="#9e034e" d="M310.4 210.933h5.333v5.334M315.733 210.933l2.667-2.666M323.2 210.933v5.334h5.333l2.667-2.667v-5.333h-5.333z" stroke-width="2"/><path fill="#ffbde0" stroke="#9e034e" d="M323.2 210.933h5.333v5.334M328.533 210.933l2.667-2.666M336 210.933v5.334h5.333L344 213.6v-5.333h-5.333z" stroke-width="2"/><path fill="#ffbde0" stroke="#9e034e" d="M336 210.933h5.333v5.334M341.333 210.933l2.667-2.666M348.8 210.933v5.334h5.333l2.667-2.667v-5.333h-5.333z" stroke-width="2"/><path fill="#ffbde0" stroke="#9e034e" d="M348.8 210.933h5.333v5.334M354.133 210.933l2.667-2.666M361.6 210.933v5.334h5.333l2.667-2.667v-5.333h-5.333z" stroke-width="2"/><path fill="#ffbde0" stroke="#9e034e" d="M361.6 210.933h5.333v5.334M366.933 210.933l2.667-2.666M374.4 210.933v5.334h5.333l2.667-2.667v-5.333h-5.333z" stroke-width="2"/><path fill="#ffbde0" stroke="#9e034e" d="M374.4 210.933h5.333v5.334M379.733 210.933l2.667-2.666M387.2 210.933v5.334h5.333l2.667-2.667v-5.333h-5.333z" stroke-width="2"/><path fill="#ffbde0" stroke="#9e034e" d="M387.2 210.933h5.333v5.334M392.533 210.933l2.667-2.666M272 223.467v5.333h5.333l2.667-2.667V220.8h-5.333z" stroke-width="2"/><path fill="#ffbde0" stroke="#9e034e" d="M272 223.467h5.333v5.333M277.333 223.467L280 220.8M284.8 223.467v5.333h5.333l2.667-2.667V220.8h-5.333z" stroke-width="2"/><path fill="#ffbde0" stroke="#9e034e" d="M284.8 223.467h5.333v5.333M290.133 223.467l2.667-2.667M297.6 223.467v5.333h5.333l2.667-2.667V220.8h-5.333z" stroke-width="2"/><path fill="#ffbde0" stroke="#9e034e" d="M297.6 223.467h5.333v5.333M302.933 223.467l2.667-2.667M310.4 223.467v5.333h5.333l2.667-2.667V220.8h-5.333z" stroke-width="2"/><path fill="#ffbde0" stroke="#9e034e" d="M310.4 223.467h5.333v5.333M315.733 223.467l2.667-2.667M323.2 223.467v5.333h5.333l2.667-2.667V220.8h-5.333z" stroke-width="2"/><path fill="#ffbde0" stroke="#9e034e" d="M323.2 223.467h5.333v5.333M328.533 223.467l2.667-2.667M336 223.467v5.333h5.333l2.667-2.667V220.8h-5.333z" stroke-width="2"/><path fill="#ffbde0" stroke="#9e034e" d="M336 223.467h5.333v5.333M341.333 223.467L344 220.8M348.8 223.467v5.333h5.333l2.667-2.667V220.8h-5.333z" stroke-width="2"/><path fill="#ffbde0" stroke="#9e034e" d="M348.8 223.467h5.333v5.333M354.133 223.467l2.667-2.667M361.6 223.467v5.333h5.333l2.667-2.667V220.8h-5.333z" stroke-width="2"/><path fill="#ffbde0" stroke="#9e034e" d="M361.6 223.467h5.333v5.333M366.933 223.467l2.667-2.667M374.4 223.467v5.333h5.333l2.667-2.667V220.8h-5.333z" stroke-width="2"/><path fill="#ffbde0" stroke="#9e034e" d="M374.4 223.467h5.333v5.333M379.733 223.467l2.667-2.667M387.2 223.467v5.333h5.333l2.667-2.667V220.8h-5.333z" stroke-width="2"/><path fill="#ffbde0" stroke="#9e034e" d="M387.2 223.467h5.333v5.333M392.533 223.467l2.667-2.667M272 236v5.333h5.333l2.667-2.666v-5.334h-5.333z" stroke-width="2"/><path fill="#ffbde0" stroke="#9e034e" d="M272 236h5.333v5.333M277.333 236l2.667-2.667M284.8 236v5.333h5.333l2.667-2.666v-5.334h-5.333z" stroke-width="2"/><path fill="#ffbde0" stroke="#9e034e" d="M284.8 236h5.333v5.333M290.133 236l2.667-2.667M297.6 236v5.333h5.333l2.667-2.666v-5.334h-5.333z" stroke-width="2"/><path fill="#ffbde0" stroke="#9e034e" d="M297.6 236h5.333v5.333M302.933 236l2.667-2.667M310.4 236v5.333h5.333l2.667-2.666v-5.334h-5.333z" stroke-width="2"/><path fill="#ffbde0" stroke="#9e034e" d="M310.4 236h5.333v5.333M315.733 236l2.667-2.667M323.2 236v5.333h5.333l2.667-2.666v-5.334h-5.333z" stroke-width="2"/><path fill="#ffbde0" stroke="#9e034e" d="M323.2 236h5.333v5.333M328.533 236l2.667-2.667M336 236v5.333h5.333l2.667-2.666v-5.334h-5.333z" stroke-width="2"/><path fill="#ffbde0" stroke="#9e034e" d="M336 236h5.333v5.333M341.333 236l2.667-2.667M348.8 236v5.333h5.333l2.667-2.666v-5.334h-5.333z" stroke-width="2"/><path fill="#ffbde0" stroke="#9e034e" d="M348.8 236h5.333v5.333M354.133 236l2.667-2.667M361.6 236v5.333h5.333l2.667-2.666v-5.334h-5.333z" stroke-width="2"/><path fill="#ffbde0" stroke="#9e034e" d="M361.6 236h5.333v5.333M366.933 236l2.667-2.667M374.4 236v5.333h5.333l2.667-2.666v-5.334h-5.333z" stroke-width="2"/><path fill="#ffbde0" stroke="#9e034e" d="M374.4 236h5.333v5.333M379.733 236l2.667-2.667M387.2 236v5.333h5.333l2.667-2.666v-5.334h-5.333z" stroke-width="2"/><path fill="#ffbde0" stroke="#9e034e" d="M387.2 236h5.333v5.333M392.533 236l2.667-2.667M272 248.533v5.334h5.333L280 251.2v-5.333h-5.333z" stroke-width="2"/><path fill="#ffbde0" stroke="#9e034e" d="M272 248.533h5.333v5.334M277.333 248.533l2.667-2.666M284.8 248.533v5.334h5.333l2.667-2.667v-5.333h-5.333z" stroke-width="2"/><path fill="#ffbde0" stroke="#9e034e" d="M284.8 248.533h5.333v5.334M290.133 248.533l2.667-2.666M297.6 248.533v5.334h5.333l2.667-2.667v-5.333h-5.333z" stroke-width="2"/><path fill="#ffbde0" stroke="#9e034e" d="M297.6 248.533h5.333v5.334M302.933 248.533l2.667-2.666M310.4 248.533v5.334h5.333l2.667-2.667v-5.333h-5.333z" stroke-width="2"/><path fill="#ffbde0" stroke="#9e034e" d="M310.4 248.533h5.333v5.334M315.733 248.533l2.667-2.666M323.2 248.533v5.334h5.333l2.667-2.667v-5.333h-5.333z" stroke-width="2"/><path fill="#ffbde0" stroke="#9e034e" d="M323.2 248.533h5.333v5.334M328.533 248.533l2.667-2.666M336 248.533v5.334h5.333L344 251.2v-5.333h-5.333z" stroke-width="2"/><path fill="#ffbde0" stroke="#9e034e" d="M336 248.533h5.333v5.334M341.333 248.533l2.667-2.666M348.8 248.533v5.334h5.333l2.667-2.667v-5.333h-5.333z" stroke-width="2"/><path fill="#ffbde0" stroke="#9e034e" d="M348.8 248.533h5.333v5.334M354.133 248.533l2.667-2.666M361.6 248.533v5.334h5.333l2.667-2.667v-5.333h-5.333z" stroke-width="2"/><path fill="#ffbde0" stroke="#9e034e" d="M361.6 248.533h5.333v5.334M366.933 248.533l2.667-2.666M374.4 248.533v5.334h5.333l2.667-2.667v-5.333h-5.333z" stroke-width="2"/><path fill="#ffbde0" stroke="#9e034e" d="M374.4 248.533h5.333v5.334M379.733 248.533l2.667-2.666M387.2 248.533v5.334h5.333l2.667-2.667v-5.333h-5.333z" stroke-width="2"/><path fill="#ffbde0" stroke="#9e034e" d="M387.2 248.533h5.333v5.334M392.533 248.533l2.667-2.666M272 261.067v5.333h5.333l2.667-2.667V258.4h-5.333z" stroke-width="2"/><path fill="#ffbde0" stroke="#9e034e" d="M272 261.067h5.333v5.333M277.333 261.067L280 258.4M284.8 261.067v5.333h5.333l2.667-2.667V258.4h-5.333z" stroke-width="2"/><path fill="#ffbde0" stroke="#9e034e" d="M284.8 261.067h5.333v5.333M290.133 261.067l2.667-2.667M297.6 261.067v5.333h5.333l2.667-2.667V258.4h-5.333z" stroke-width="2"/><path fill="#ffbde0" stroke="#9e034e" d="M297.6 261.067h5.333v5.333M302.933 261.067l2.667-2.667M310.4 261.067v5.333h5.333l2.667-2.667V258.4h-5.333z" stroke-width="2"/><path fill="#ffbde0" stroke="#9e034e" d="M310.4 261.067h5.333v5.333M315.733 261.067l2.667-2.667M323.2 261.067v5.333h5.333l2.667-2.667V258.4h-5.333z" stroke-width="2"/><path fill="#ffbde0" stroke="#9e034e" d="M323.2 261.067h5.333v5.333M328.533 261.067l2.667-2.667M336 261.067v5.333h5.333l2.667-2.667V258.4h-5.333z" stroke-width="2"/><path fill="#ffbde0" stroke="#9e034e" d="M336 261.067h5.333v5.333M341.333 261.067L344 258.4M348.8 261.067v5.333h5.333l2.667-2.667V258.4h-5.333z" stroke-width="2"/><path fill="#ffbde0" stroke="#9e034e" d="M348.8 261.067h5.333v5.333M354.133 261.067l2.667-2.667M361.6 261.067v5.333h5.333l2.667-2.667V258.4h-5.333z" stroke-width="2"/><path fill="#ffbde0" stroke="#9e034e" d="M361.6 261.067h5.333v5.333M366.933 261.067l2.667-2.667M374.4 261.067v5.333h5.333l2.667-2.667V258.4h-5.333z" stroke-width="2"/><path fill="#ffbde0" stroke="#9e034e" d="M374.4 261.067h5.333v5.333M379.733 261.067l2.667-2.667M387.2 261.067v5.333h5.333l2.667-2.667V258.4h-5.333z" stroke-width="2"/><path fill="#ffbde0" stroke="#9e034e" d="M387.2 261.067h5.333v5.333M392.533 261.067l2.667-2.667M272 273.6v5.333h5.333l2.667-2.666v-5.334h-5.333z" stroke-width="2"/><path fill="#ffbde0" stroke="#9e034e" d="M272 273.6h5.333v5.333M277.333 273.6l2.667-2.667M284.8 273.6v5.333h5.333l2.667-2.666v-5.334h-5.333z" stroke-width="2"/><path fill="#ffbde0" stroke="#9e034e" d="M284.8 273.6h5.333v5.333M290.133 273.6l2.667-2.667M297.6 273.6v5.333h5.333l2.667-2.666v-5.334h-5.333z" stroke-width="2"/><path fill="#ffbde0" stroke="#9e034e" d="M297.6 273.6h5.333v5.333M302.933 273.6l2.667-2.667M310.4 273.6v5.333h5.333l2.667-2.666v-5.334h-5.333z" stroke-width="2"/><path fill="#ffbde0" stroke="#9e034e" d="M310.4 273.6h5.333v5.333M315.733 273.6l2.667-2.667M323.2 273.6v5.333h5.333l2.667-2.666v-5.334h-5.333z" stroke-width="2"/><path fill="#ffbde0" stroke="#9e034e" d="M323.2 273.6h5.333v5.333M328.533 273.6l2.667-2.667M336 273.6v5.333h5.333l2.667-2.666v-5.334h-5.333z" stroke-width="2"/><path fill="#ffbde0" stroke="#9e034e" d="M336 273.6h5.333v5.333M341.333 273.6l2.667-2.667M348.8 273.6v5.333h5.333l2.667-2.666v-5.334h-5.333z" stroke-width="2"/><path fill="#ffbde0" stroke="#9e034e" d="M348.8 273.6h5.333v5.333M354.133 273.6l2.667-2.667M361.6 273.6v5.333h5.333l2.667-2.666v-5.334h-5.333z" stroke-width="2"/><path fill="#ffbde0" stroke="#9e034e" d="M361.6 273.6h5.333v5.333M366.933 273.6l2.667-2.667M374.4 273.6v5.333h5.333l2.667-2.666v-5.334h-5.333z" stroke-width="2"/><path fill="#ffbde0" stroke="#9e034e" d="M374.4 273.6h5.333v5.333M379.733 273.6l2.667-2.667M387.2 273.6v5.333h5.333l2.667-2.666v-5.334h-5.333z" stroke-width="2"/><path fill="#ffbde0" stroke="#9e034e" d="M387.2 273.6h5.333v5.333M392.533 273.6l2.667-2.667M272 286.133v5.334h5.333L280 288.8v-5.333h-5.333z" stroke-width="2"/><path fill="#ffbde0" stroke="#9e034e" d="M272 286.133h5.333v5.334M277.333 286.133l2.667-2.666M284.8 286.133v5.334h5.333l2.667-2.667v-5.333h-5.333z" stroke-width="2"/><path fill="#ffbde0" stroke="#9e034e" d="M284.8 286.133h5.333v5.334M290.133 286.133l2.667-2.666M297.6 286.133v5.334h5.333l2.667-2.667v-5.333h-5.333z" stroke-width="2"/><path fill="#ffbde0" stroke="#9e034e" d="M297.6 286.133h5.333v5.334M302.933 286.133l2.667-2.666M310.4 286.133v5.334h5.333l2.667-2.667v-5.333h-5.333z" stroke-width="2"/><path fill="#ffbde0" stroke="#9e034e" d="M310.4 286.133h5.333v5.334M315.733 286.133l2.667-2.666M323.2 286.133v5.334h5.333l2.667-2.667v-5.333h-5.333z" stroke-width="2"/><path fill="#ffbde0" stroke="#9e034e" d="M323.2 286.133h5.333v5.334M328.533 286.133l2.667-2.666M336 286.133v5.334h5.333L344 288.8v-5.333h-5.333z" stroke-width="2"/><path fill="#ffbde0" stroke="#9e034e" d="M336 286.133h5.333v5.334M341.333 286.133l2.667-2.666M348.8 286.133v5.334h5.333l2.667-2.667v-5.333h-5.333z" stroke-width="2"/><path fill="#ffbde0" stroke="#9e034e" d="M348.8 286.133h5.333v5.334M354.133 286.133l2.667-2.666M361.6 286.133v5.334h5.333l2.667-2.667v-5.333h-5.333z" stroke-width="2"/><path fill="#ffbde0" stroke="#9e034e" d="M361.6 286.133h5.333v5.334M366.933 286.133l2.667-2.666M374.4 286.133v5.334h5.333l2.667-2.667v-5.333h-5.333z" stroke-width="2"/><path fill="#ffbde0" stroke="#9e034e" d="M374.4 286.133h5.333v5.334M379.733 286.133l2.667-2.666M387.2 286.133v5.334h5.333l2.667-2.667v-5.333h-5.333z" stroke-width="2"/><path fill="#ffbde0" stroke="#9e034e" d="M387.2 286.133h5.333v5.334M392.533 286.133l2.667-2.666M272 298.667V304h5.333l2.667-2.667V296h-5.333z" stroke-width="2"/><path fill="#ffbde0" stroke="#9e034e" d="M272 298.667h5.333V304M277.333 298.667L280 296M284.8 298.667V304h5.333l2.667-2.667V296h-5.333z" stroke-width="2"/><path fill="#ffbde0" stroke="#9e034e" d="M284.8 298.667h5.333V304M290.133 298.667L292.8 296M297.6 298.667V304h5.333l2.667-2.667V296h-5.333z" stroke-width="2"/><path fill="#ffbde0" stroke="#9e034e" d="M297.6 298.667h5.333V304M302.933 298.667L305.6 296M310.4 298.667V304h5.333l2.667-2.667V296h-5.333z" stroke-width="2"/><path fill="#ffbde0" stroke="#9e034e" d="M310.4 298.667h5.333V304M315.733 298.667L318.4 296M323.2 298.667V304h5.333l2.667-2.667V296h-5.333z" stroke-width="2"/><path fill="#ffbde0" stroke="#9e034e" d="M323.2 298.667h5.333V304M328.533 298.667L331.2 296M336 298.667V304h5.333l2.667-2.667V296h-5.333z" stroke-width="2"/><path fill="#ffbde0" stroke="#9e034e" d="M336 298.667h5.333V304M341.333 298.667L344 296M348.8 298.667V304h5.333l2.667-2.667V296h-5.333z" stroke-width="2"/><path fill="#ffbde0" stroke="#9e034e" d="M348.8 298.667h5.333V304M354.133 298.667L356.8 296M361.6 298.667V304h5.333l2.667-2.667V296h-5.333z" stroke-width="2"/><path fill="#ffbde0" stroke="#9e034e" d="M361.6 298.667h5.333V304M366.933 298.667L369.6 296M374.4 298.667V304h5.333l2.667-2.667V296h-5.333z" stroke-width="2"/><path fill="#ffbde0" stroke="#9e034e" d="M374.4 298.667h5.333V304M379.733 298.667L382.4 296M387.2 298.667V304h5.333l2.667-2.667V296h-5.333z" stroke-width="2"/><path fill="#ffbde0" stroke="#9e034e" d="M387.2 298.667h5.333V304M392.533 298.667L395.2 296M272 311.2v5.333h5.333l2.667-2.666v-5.334h-5.333z" stroke-width="2"/><path fill="#ffbde0" stroke="#9e034e" d="M272 311.2h5.333v5.333M277.333 311.2l2.667-2.667M284.8 311.2v5.333h5.333l2.667-2.666v-5.334h-5.333z" stroke-width="2"/><path fill="#ffbde0" stroke="#9e034e" d="M284.8 311.2h5.333v5.333M290.133 311.2l2.667-2.667M297.6 311.2v5.333h5.333l2.667-2.666v-5.334h-5.333z" stroke-width="2"/><path fill="#ffbde0" stroke="#9e034e" d="M297.6 311.2h5.333v5.333M302.933 311.2l2.667-2.667M310.4 311.2v5.333h5.333l2.667-2.666v-5.334h-5.333z" stroke-width="2"/><path fill="#ffbde0" stroke="#9e034e" d="M310.4 311.2h5.333v5.333M315.733 311.2l2.667-2.667M323.2 311.2v5.333h5.333l2.667-2.666v-5.334h-5.333z" stroke-width="2"/><path fill="#ffbde0" stroke="#9e034e" d="M323.2 311.2h5.333v5.333M328.533 311.2l2.667-2.667M336 311.2v5.333h5.333l2.667-2.666v-5.334h-5.333z" stroke-width="2"/><path fill="#ffbde0" stroke="#9e034e" d="M336 311.2h5.333v5.333M341.333 311.2l2.667-2.667M348.8 311.2v5.333h5.333l2.667-2.666v-5.334h-5.333z" stroke-width="2"/><path fill="#ffbde0" stroke="#9e034e" d="M348.8 311.2h5.333v5.333M354.133 311.2l2.667-2.667M361.6 311.2v5.333h5.333l2.667-2.666v-5.334h-5.333z" stroke-width="2"/><path fill="#ffbde0" stroke="#9e034e" d="M361.6 311.2h5.333v5.333M366.933 311.2l2.667-2.667M374.4 311.2v5.333h5.333l2.667-2.666v-5.334h-5.333z" stroke-width="2"/><path fill="#ffbde0" stroke="#9e034e" d="M374.4 311.2h5.333v5.333M379.733 311.2l2.667-2.667M387.2 311.2v5.333h5.333l2.667-2.666v-5.334h-5.333z" stroke-width="2"/><path fill="#ffbde0" stroke="#9e034e" d="M387.2 311.2h5.333v5.333M392.533 311.2l2.667-2.667" stroke-width="2"/><path d="M181.333 104A82.667 13.333 0 0 0 264 117.333V104z" fill="none"/><path stroke="#000" d="M181.333 104A82.667 13.333 0 0 0 264 117.333M264 117.333l-4.508-9.667M264 117.333l-4.508 9.668" stroke-width="3" stroke-dasharray="0" fill="none"/><path d="M181.333 237.333A82.667 13.333 0 0 0 264 250.667v-13.334z" fill="none"/><path stroke="#000" d="M181.333 237.333A82.667 13.333 0 0 0 264 250.667M264 250.667l-4.508-9.668M264 250.667l-4.508 9.667" stroke-width="3" stroke-dasharray="0" fill="none"/><path d="M181.333 370.667a82.667 8 0 0 0 82.667 8v-8z" fill="none"/><path stroke="#000" d="M181.333 370.667a82.667 8 0 0 0 82.667 8M264 378.667l-4.508-9.668M264 378.667l-4.508 9.667" stroke-width="3" stroke-dasharray="0" fill="none"/><path d="M181.333 498.667a82.667 8 0 0 0 82.667 8v-8z" fill="none"/><path stroke="#000" d="M181.333 498.667a82.667 8 0 0 0 82.667 8M264 506.667l-4.508-9.668M264 506.667l-4.508 9.667" stroke-width="3" stroke-dasharray="0" fill="none"/><path d="M181.333 626.667a82.667 8 0 0 0 82.667 8v-8z" fill="none"/><path stroke="#000" d="M181.333 626.667a82.667 8 0 0 0 82.667 8M264 634.667l-4.508-9.668M264 634.667l-4.508 9.667" stroke-width="3" stroke-dasharray="0" fill="none"/><path d="M181.333 760A82.667 8 0 0 0 264 768v-8z" fill="none"/><path stroke="#000" d="M181.333 760A82.667 8 0 0 0 264 768M264 768l-4.508-9.668M264 768l-4.508 9.668" stroke-width="3" stroke-dasharray="0" fill="none"/></svg>
