<svg xmlns="http://www.w3.org/2000/svg" width="400" height="176" viewBox="0 0 400 176"><path fill="none" stroke="#000" d="M133.333 0v176M266.667 0v176M0 37.333h400" stroke-width="2"/><path fill="#ddd7ff" stroke="#7854ab" d="M69.333 96v5.333h5.334l2.666-2.666v-5.334H72z" stroke-width="2"/><path fill="#ddd7ff" stroke="#7854ab" d="M69.333 96h5.334v5.333M74.667 96l2.666-2.667" stroke-width="2"/><path fill="#ddd7ff" stroke="#7854ab" d="M69.333 90.667V96h5.334l2.666-2.667V88H72z" stroke-width="2"/><path fill="#ddd7ff" stroke="#7854ab" d="M69.333 90.667h5.334V96M74.667 90.667L77.333 88" stroke-width="2"/><path fill="#ddd7ff" stroke="#7854ab" d="M69.333 85.333v5.334h5.334L77.333 88v-5.333H72z" stroke-width="2"/><path fill="#ddd7ff" stroke="#7854ab" d="M69.333 85.333h5.334v5.334M74.667 85.333l2.666-2.666" stroke-width="2"/><path fill="#ddd7ff" stroke="#7854ab" d="M69.333 80v5.333h5.334l2.666-2.666v-5.334H72z" stroke-width="2"/><path fill="#ddd7ff" stroke="#7854ab" d="M69.333 80h5.334v5.333M74.667 80l2.666-2.667" stroke-width="2"/><path fill="#ddd7ff" stroke="#7854ab" d="M69.333 74.667V80h5.334l2.666-2.667V72H72z" stroke-width="2"/><path fill="#ddd7ff" stroke="#7854ab" d="M69.333 74.667h5.334V80M74.667 74.667L77.333 72" stroke-width="2"/><path fill="#ddd7ff" stroke="#7854ab" d="M69.333 69.333v5.334h5.334L77.333 72v-5.333H72z" stroke-width="2"/><path fill="#ddd7ff" stroke="#7854ab" d="M69.333 69.333h5.334v5.334M74.667 69.333l2.666-2.666" stroke-width="2"/><path fill="#ddd7ff" stroke="#7854ab" d="M69.333 64v5.333h5.334l2.666-2.666v-5.334H72z" stroke-width="2"/><path fill="#ddd7ff" stroke="#7854ab" d="M69.333 64h5.334v5.333M74.667 64l2.666-2.667" stroke-width="2"/><path fill="#ddd7ff" stroke="#7854ab" d="M69.333 58.667V64h5.334l2.666-2.667V56H72z" stroke-width="2"/><path fill="#ddd7ff" stroke="#7854ab" d="M69.333 58.667h5.334V64M74.667 58.667L77.333 56" stroke-width="2"/><path fill="#ddd7ff" stroke="#7854ab" d="M69.333 53.333v5.334h5.334L77.333 56v-5.333H72z" stroke-width="2"/><path fill="#ddd7ff" stroke="#7854ab" d="M69.333 53.333h5.334v5.334M74.667 53.333l2.666-2.666" stroke-width="2"/><path fill="#ddd7ff" stroke="#7854ab" d="M69.333 48v5.333h5.334l2.666-2.666v-5.334H72z" stroke-width="2"/><path fill="#ddd7ff" stroke="#7854ab" d="M69.333 48h5.334v5.333M74.667 48l2.666-2.667M74.667 96v5.333H80l2.667-2.666v-5.334h-5.334z" stroke-width="2"/><path fill="#ddd7ff" stroke="#7854ab" d="M74.667 96H80v5.333M80 96l2.667-2.667" stroke-width="2"/><path fill="#ddd7ff" stroke="#7854ab" d="M74.667 90.667V96H80l2.667-2.667V88h-5.334z" stroke-width="2"/><path fill="#ddd7ff" stroke="#7854ab" d="M74.667 90.667H80V96M80 90.667L82.667 88" stroke-width="2"/><path fill="#ddd7ff" stroke="#7854ab" d="M74.667 85.333v5.334H80L82.667 88v-5.333h-5.334z" stroke-width="2"/><path fill="#ddd7ff" stroke="#7854ab" d="M74.667 85.333H80v5.334M80 85.333l2.667-2.666" stroke-width="2"/><path fill="#ddd7ff" stroke="#7854ab" d="M74.667 80v5.333H80l2.667-2.666v-5.334h-5.334z" stroke-width="2"/><path fill="#ddd7ff" stroke="#7854ab" d="M74.667 80H80v5.333M80 80l2.667-2.667" stroke-width="2"/><path fill="#ddd7ff" stroke="#7854ab" d="M74.667 74.667V80H80l2.667-2.667V72h-5.334z" stroke-width="2"/><path fill="#ddd7ff" stroke="#7854ab" d="M74.667 74.667H80V80M80 74.667L82.667 72" stroke-width="2"/><path fill="#ddd7ff" stroke="#7854ab" d="M74.667 69.333v5.334H80L82.667 72v-5.333h-5.334z" stroke-width="2"/><path fill="#ddd7ff" stroke="#7854ab" d="M74.667 69.333H80v5.334M80 69.333l2.667-2.666" stroke-width="2"/><path fill="#ddd7ff" stroke="#7854ab" d="M74.667 64v5.333H80l2.667-2.666v-5.334h-5.334z" stroke-width="2"/><path fill="#ddd7ff" stroke="#7854ab" d="M74.667 64H80v5.333M80 64l2.667-2.667" stroke-width="2"/><path fill="#ddd7ff" stroke="#7854ab" d="M74.667 58.667V64H80l2.667-2.667V56h-5.334z" stroke-width="2"/><path fill="#ddd7ff" stroke="#7854ab" d="M74.667 58.667H80V64M80 58.667L82.667 56" stroke-width="2"/><path fill="#ddd7ff" stroke="#7854ab" d="M74.667 53.333v5.334H80L82.667 56v-5.333h-5.334z" stroke-width="2"/><path fill="#ddd7ff" stroke="#7854ab" d="M74.667 53.333H80v5.334M80 53.333l2.667-2.666" stroke-width="2"/><path fill="#ddd7ff" stroke="#7854ab" d="M74.667 48v5.333H80l2.667-2.666v-5.334h-5.334z" stroke-width="2"/><path fill="#ddd7ff" stroke="#7854ab" d="M74.667 48H80v5.333M80 48l2.667-2.667M80 96v5.333h5.333L88 98.667v-5.334h-5.333z" stroke-width="2"/><path fill="#ddd7ff" stroke="#7854ab" d="M80 96h5.333v5.333M85.333 96L88 93.333" stroke-width="2"/><path fill="#ddd7ff" stroke="#7854ab" d="M80 90.667V96h5.333L88 93.333V88h-5.333z" stroke-width="2"/><path fill="#ddd7ff" stroke="#7854ab" d="M80 90.667h5.333V96M85.333 90.667L88 88" stroke-width="2"/><path fill="#ddd7ff" stroke="#7854ab" d="M80 85.333v5.334h5.333L88 88v-5.333h-5.333z" stroke-width="2"/><path fill="#ddd7ff" stroke="#7854ab" d="M80 85.333h5.333v5.334M85.333 85.333L88 82.667" stroke-width="2"/><path fill="#ddd7ff" stroke="#7854ab" d="M80 80v5.333h5.333L88 82.667v-5.334h-5.333z" stroke-width="2"/><path fill="#ddd7ff" stroke="#7854ab" d="M80 80h5.333v5.333M85.333 80L88 77.333" stroke-width="2"/><path fill="#ddd7ff" stroke="#7854ab" d="M80 74.667V80h5.333L88 77.333V72h-5.333z" stroke-width="2"/><path fill="#ddd7ff" stroke="#7854ab" d="M80 74.667h5.333V80M85.333 74.667L88 72" stroke-width="2"/><path fill="#ddd7ff" stroke="#7854ab" d="M80 69.333v5.334h5.333L88 72v-5.333h-5.333z" stroke-width="2"/><path fill="#ddd7ff" stroke="#7854ab" d="M80 69.333h5.333v5.334M85.333 69.333L88 66.667" stroke-width="2"/><path fill="#ddd7ff" stroke="#7854ab" d="M80 64v5.333h5.333L88 66.667v-5.334h-5.333z" stroke-width="2"/><path fill="#ddd7ff" stroke="#7854ab" d="M80 64h5.333v5.333M85.333 64L88 61.333" stroke-width="2"/><path fill="#ddd7ff" stroke="#7854ab" d="M80 58.667V64h5.333L88 61.333V56h-5.333z" stroke-width="2"/><path fill="#ddd7ff" stroke="#7854ab" d="M80 58.667h5.333V64M85.333 58.667L88 56" stroke-width="2"/><path fill="#ddd7ff" stroke="#7854ab" d="M80 53.333v5.334h5.333L88 56v-5.333h-5.333z" stroke-width="2"/><path fill="#ddd7ff" stroke="#7854ab" d="M80 53.333h5.333v5.334M85.333 53.333L88 50.667" stroke-width="2"/><path fill="#ddd7ff" stroke="#7854ab" d="M80 48v5.333h5.333L88 50.667v-5.334h-5.333z" stroke-width="2"/><path fill="#ddd7ff" stroke="#7854ab" d="M80 48h5.333v5.333M85.333 48L88 45.333M85.333 96v5.333h5.334l2.666-2.666v-5.334H88z" stroke-width="2"/><path fill="#ddd7ff" stroke="#7854ab" d="M85.333 96h5.334v5.333M90.667 96l2.666-2.667" stroke-width="2"/><path fill="#ddd7ff" stroke="#7854ab" d="M85.333 90.667V96h5.334l2.666-2.667V88H88z" stroke-width="2"/><path fill="#ddd7ff" stroke="#7854ab" d="M85.333 90.667h5.334V96M90.667 90.667L93.333 88" stroke-width="2"/><path fill="#ddd7ff" stroke="#7854ab" d="M85.333 85.333v5.334h5.334L93.333 88v-5.333H88z" stroke-width="2"/><path fill="#ddd7ff" stroke="#7854ab" d="M85.333 85.333h5.334v5.334M90.667 85.333l2.666-2.666" stroke-width="2"/><path fill="#ddd7ff" stroke="#7854ab" d="M85.333 80v5.333h5.334l2.666-2.666v-5.334H88z" stroke-width="2"/><path fill="#ddd7ff" stroke="#7854ab" d="M85.333 80h5.334v5.333M90.667 80l2.666-2.667" stroke-width="2"/><path fill="#ddd7ff" stroke="#7854ab" d="M85.333 74.667V80h5.334l2.666-2.667V72H88z" stroke-width="2"/><path fill="#ddd7ff" stroke="#7854ab" d="M85.333 74.667h5.334V80M90.667 74.667L93.333 72" stroke-width="2"/><path fill="#ddd7ff" stroke="#7854ab" d="M85.333 69.333v5.334h5.334L93.333 72v-5.333H88z" stroke-width="2"/><path fill="#ddd7ff" stroke="#7854ab" d="M85.333 69.333h5.334v5.334M90.667 69.333l2.666-2.666" stroke-width="2"/><path fill="#ddd7ff" stroke="#7854ab" d="M85.333 64v5.333h5.334l2.666-2.666v-5.334H88z" stroke-width="2"/><path fill="#ddd7ff" stroke="#7854ab" d="M85.333 64h5.334v5.333M90.667 64l2.666-2.667" stroke-width="2"/><path fill="#ddd7ff" stroke="#7854ab" d="M85.333 58.667V64h5.334l2.666-2.667V56H88z" stroke-width="2"/><path fill="#ddd7ff" stroke="#7854ab" d="M85.333 58.667h5.334V64M90.667 58.667L93.333 56" stroke-width="2"/><path fill="#ddd7ff" stroke="#7854ab" d="M85.333 53.333v5.334h5.334L93.333 56v-5.333H88z" stroke-width="2"/><path fill="#ddd7ff" stroke="#7854ab" d="M85.333 53.333h5.334v5.334M90.667 53.333l2.666-2.666" stroke-width="2"/><path fill="#ddd7ff" stroke="#7854ab" d="M85.333 48v5.333h5.334l2.666-2.666v-5.334H88z" stroke-width="2"/><path fill="#ddd7ff" stroke="#7854ab" d="M85.333 48h5.334v5.333M90.667 48l2.666-2.667M90.667 96v5.333H96l2.667-2.666v-5.334h-5.334z" stroke-width="2"/><path fill="#ddd7ff" stroke="#7854ab" d="M90.667 96H96v5.333M96 96l2.667-2.667" stroke-width="2"/><path fill="#ddd7ff" stroke="#7854ab" d="M90.667 90.667V96H96l2.667-2.667V88h-5.334z" stroke-width="2"/><path fill="#ddd7ff" stroke="#7854ab" d="M90.667 90.667H96V96M96 90.667L98.667 88" stroke-width="2"/><path fill="#ddd7ff" stroke="#7854ab" d="M90.667 85.333v5.334H96L98.667 88v-5.333h-5.334z" stroke-width="2"/><path fill="#ddd7ff" stroke="#7854ab" d="M90.667 85.333H96v5.334M96 85.333l2.667-2.666" stroke-width="2"/><path fill="#ddd7ff" stroke="#7854ab" d="M90.667 80v5.333H96l2.667-2.666v-5.334h-5.334z" stroke-width="2"/><path fill="#ddd7ff" stroke="#7854ab" d="M90.667 80H96v5.333M96 80l2.667-2.667" stroke-width="2"/><path fill="#ddd7ff" stroke="#7854ab" d="M90.667 74.667V80H96l2.667-2.667V72h-5.334z" stroke-width="2"/><path fill="#ddd7ff" stroke="#7854ab" d="M90.667 74.667H96V80M96 74.667L98.667 72" stroke-width="2"/><path fill="#ddd7ff" stroke="#7854ab" d="M90.667 69.333v5.334H96L98.667 72v-5.333h-5.334z" stroke-width="2"/><path fill="#ddd7ff" stroke="#7854ab" d="M90.667 69.333H96v5.334M96 69.333l2.667-2.666" stroke-width="2"/><path fill="#ddd7ff" stroke="#7854ab" d="M90.667 64v5.333H96l2.667-2.666v-5.334h-5.334z" stroke-width="2"/><path fill="#ddd7ff" stroke="#7854ab" d="M90.667 64H96v5.333M96 64l2.667-2.667" stroke-width="2"/><path fill="#ddd7ff" stroke="#7854ab" d="M90.667 58.667V64H96l2.667-2.667V56h-5.334z" stroke-width="2"/><path fill="#ddd7ff" stroke="#7854ab" d="M90.667 58.667H96V64M96 58.667L98.667 56" stroke-width="2"/><path fill="#ddd7ff" stroke="#7854ab" d="M90.667 53.333v5.334H96L98.667 56v-5.333h-5.334z" stroke-width="2"/><path fill="#ddd7ff" stroke="#7854ab" d="M90.667 53.333H96v5.334M96 53.333l2.667-2.666" stroke-width="2"/><path fill="#ddd7ff" stroke="#7854ab" d="M90.667 48v5.333H96l2.667-2.666v-5.334h-5.334z" stroke-width="2"/><path fill="#ddd7ff" stroke="#7854ab" d="M90.667 48H96v5.333M96 48l2.667-2.667M96 96v5.333h5.333L104 98.667v-5.334h-5.333z" stroke-width="2"/><path fill="#ddd7ff" stroke="#7854ab" d="M96 96h5.333v5.333M101.333 96L104 93.333" stroke-width="2"/><path fill="#ddd7ff" stroke="#7854ab" d="M96 90.667V96h5.333L104 93.333V88h-5.333z" stroke-width="2"/><path fill="#ddd7ff" stroke="#7854ab" d="M96 90.667h5.333V96M101.333 90.667L104 88" stroke-width="2"/><path fill="#ddd7ff" stroke="#7854ab" d="M96 85.333v5.334h5.333L104 88v-5.333h-5.333z" stroke-width="2"/><path fill="#ddd7ff" stroke="#7854ab" d="M96 85.333h5.333v5.334M101.333 85.333L104 82.667" stroke-width="2"/><path fill="#ddd7ff" stroke="#7854ab" d="M96 80v5.333h5.333L104 82.667v-5.334h-5.333z" stroke-width="2"/><path fill="#ddd7ff" stroke="#7854ab" d="M96 80h5.333v5.333M101.333 80L104 77.333" stroke-width="2"/><path fill="#ddd7ff" stroke="#7854ab" d="M96 74.667V80h5.333L104 77.333V72h-5.333z" stroke-width="2"/><path fill="#ddd7ff" stroke="#7854ab" d="M96 74.667h5.333V80M101.333 74.667L104 72" stroke-width="2"/><path fill="#ddd7ff" stroke="#7854ab" d="M96 69.333v5.334h5.333L104 72v-5.333h-5.333z" stroke-width="2"/><path fill="#ddd7ff" stroke="#7854ab" d="M96 69.333h5.333v5.334M101.333 69.333L104 66.667" stroke-width="2"/><path fill="#ddd7ff" stroke="#7854ab" d="M96 64v5.333h5.333L104 66.667v-5.334h-5.333z" stroke-width="2"/><path fill="#ddd7ff" stroke="#7854ab" d="M96 64h5.333v5.333M101.333 64L104 61.333" stroke-width="2"/><path fill="#ddd7ff" stroke="#7854ab" d="M96 58.667V64h5.333L104 61.333V56h-5.333z" stroke-width="2"/><path fill="#ddd7ff" stroke="#7854ab" d="M96 58.667h5.333V64M101.333 58.667L104 56" stroke-width="2"/><path fill="#ddd7ff" stroke="#7854ab" d="M96 53.333v5.334h5.333L104 56v-5.333h-5.333z" stroke-width="2"/><path fill="#ddd7ff" stroke="#7854ab" d="M96 53.333h5.333v5.334M101.333 53.333L104 50.667" stroke-width="2"/><path fill="#ddd7ff" stroke="#7854ab" d="M96 48v5.333h5.333L104 50.667v-5.334h-5.333z" stroke-width="2"/><path fill="#ddd7ff" stroke="#7854ab" d="M96 48h5.333v5.333M101.333 48L104 45.333M101.333 96v5.333h5.334l2.666-2.666v-5.334H104z" stroke-width="2"/><path fill="#ddd7ff" stroke="#7854ab" d="M101.333 96h5.334v5.333M106.667 96l2.666-2.667" stroke-width="2"/><path fill="#ddd7ff" stroke="#7854ab" d="M101.333 90.667V96h5.334l2.666-2.667V88H104z" stroke-width="2"/><path fill="#ddd7ff" stroke="#7854ab" d="M101.333 90.667h5.334V96M106.667 90.667L109.333 88" stroke-width="2"/><path fill="#ddd7ff" stroke="#7854ab" d="M101.333 85.333v5.334h5.334L109.333 88v-5.333H104z" stroke-width="2"/><path fill="#ddd7ff" stroke="#7854ab" d="M101.333 85.333h5.334v5.334M106.667 85.333l2.666-2.666" stroke-width="2"/><path fill="#ddd7ff" stroke="#7854ab" d="M101.333 80v5.333h5.334l2.666-2.666v-5.334H104z" stroke-width="2"/><path fill="#ddd7ff" stroke="#7854ab" d="M101.333 80h5.334v5.333M106.667 80l2.666-2.667" stroke-width="2"/><path fill="#ddd7ff" stroke="#7854ab" d="M101.333 74.667V80h5.334l2.666-2.667V72H104z" stroke-width="2"/><path fill="#ddd7ff" stroke="#7854ab" d="M101.333 74.667h5.334V80M106.667 74.667L109.333 72" stroke-width="2"/><path fill="#ddd7ff" stroke="#7854ab" d="M101.333 69.333v5.334h5.334L109.333 72v-5.333H104z" stroke-width="2"/><path fill="#ddd7ff" stroke="#7854ab" d="M101.333 69.333h5.334v5.334M106.667 69.333l2.666-2.666" stroke-width="2"/><path fill="#ddd7ff" stroke="#7854ab" d="M101.333 64v5.333h5.334l2.666-2.666v-5.334H104z" stroke-width="2"/><path fill="#ddd7ff" stroke="#7854ab" d="M101.333 64h5.334v5.333M106.667 64l2.666-2.667" stroke-width="2"/><path fill="#ddd7ff" stroke="#7854ab" d="M101.333 58.667V64h5.334l2.666-2.667V56H104z" stroke-width="2"/><path fill="#ddd7ff" stroke="#7854ab" d="M101.333 58.667h5.334V64M106.667 58.667L109.333 56" stroke-width="2"/><path fill="#ddd7ff" stroke="#7854ab" d="M101.333 53.333v5.334h5.334L109.333 56v-5.333H104z" stroke-width="2"/><path fill="#ddd7ff" stroke="#7854ab" d="M101.333 53.333h5.334v5.334M106.667 53.333l2.666-2.666" stroke-width="2"/><path fill="#ddd7ff" stroke="#7854ab" d="M101.333 48v5.333h5.334l2.666-2.666v-5.334H104z" stroke-width="2"/><path fill="#ddd7ff" stroke="#7854ab" d="M101.333 48h5.334v5.333M106.667 48l2.666-2.667M106.667 96v5.333H112l2.667-2.666v-5.334h-5.334z" stroke-width="2"/><path fill="#ddd7ff" stroke="#7854ab" d="M106.667 96H112v5.333M112 96l2.667-2.667" stroke-width="2"/><path fill="#ddd7ff" stroke="#7854ab" d="M106.667 90.667V96H112l2.667-2.667V88h-5.334z" stroke-width="2"/><path fill="#ddd7ff" stroke="#7854ab" d="M106.667 90.667H112V96M112 90.667L114.667 88" stroke-width="2"/><path fill="#ddd7ff" stroke="#7854ab" d="M106.667 85.333v5.334H112L114.667 88v-5.333h-5.334z" stroke-width="2"/><path fill="#ddd7ff" stroke="#7854ab" d="M106.667 85.333H112v5.334M112 85.333l2.667-2.666" stroke-width="2"/><path fill="#ddd7ff" stroke="#7854ab" d="M106.667 80v5.333H112l2.667-2.666v-5.334h-5.334z" stroke-width="2"/><path fill="#ddd7ff" stroke="#7854ab" d="M106.667 80H112v5.333M112 80l2.667-2.667" stroke-width="2"/><path fill="#ddd7ff" stroke="#7854ab" d="M106.667 74.667V80H112l2.667-2.667V72h-5.334z" stroke-width="2"/><path fill="#ddd7ff" stroke="#7854ab" d="M106.667 74.667H112V80M112 74.667L114.667 72" stroke-width="2"/><path fill="#ddd7ff" stroke="#7854ab" d="M106.667 69.333v5.334H112L114.667 72v-5.333h-5.334z" stroke-width="2"/><path fill="#ddd7ff" stroke="#7854ab" d="M106.667 69.333H112v5.334M112 69.333l2.667-2.666" stroke-width="2"/><path fill="#ddd7ff" stroke="#7854ab" d="M106.667 64v5.333H112l2.667-2.666v-5.334h-5.334z" stroke-width="2"/><path fill="#ddd7ff" stroke="#7854ab" d="M106.667 64H112v5.333M112 64l2.667-2.667" stroke-width="2"/><path fill="#ddd7ff" stroke="#7854ab" d="M106.667 58.667V64H112l2.667-2.667V56h-5.334z" stroke-width="2"/><path fill="#ddd7ff" stroke="#7854ab" d="M106.667 58.667H112V64M112 58.667L114.667 56" stroke-width="2"/><path fill="#ddd7ff" stroke="#7854ab" d="M106.667 53.333v5.334H112L114.667 56v-5.333h-5.334z" stroke-width="2"/><path fill="#ddd7ff" stroke="#7854ab" d="M106.667 53.333H112v5.334M112 53.333l2.667-2.666" stroke-width="2"/><path fill="#ddd7ff" stroke="#7854ab" d="M106.667 48v5.333H112l2.667-2.666v-5.334h-5.334z" stroke-width="2"/><path fill="#ddd7ff" stroke="#7854ab" d="M106.667 48H112v5.333M112 48l2.667-2.667M112 96v5.333h5.333L120 98.667v-5.334h-5.333z" stroke-width="2"/><path fill="#ddd7ff" stroke="#7854ab" d="M112 96h5.333v5.333M117.333 96L120 93.333" stroke-width="2"/><path fill="#ddd7ff" stroke="#7854ab" d="M112 90.667V96h5.333L120 93.333V88h-5.333z" stroke-width="2"/><path fill="#ddd7ff" stroke="#7854ab" d="M112 90.667h5.333V96M117.333 90.667L120 88" stroke-width="2"/><path fill="#ddd7ff" stroke="#7854ab" d="M112 85.333v5.334h5.333L120 88v-5.333h-5.333z" stroke-width="2"/><path fill="#ddd7ff" stroke="#7854ab" d="M112 85.333h5.333v5.334M117.333 85.333L120 82.667" stroke-width="2"/><path fill="#ddd7ff" stroke="#7854ab" d="M112 80v5.333h5.333L120 82.667v-5.334h-5.333z" stroke-width="2"/><path fill="#ddd7ff" stroke="#7854ab" d="M112 80h5.333v5.333M117.333 80L120 77.333" stroke-width="2"/><path fill="#ddd7ff" stroke="#7854ab" d="M112 74.667V80h5.333L120 77.333V72h-5.333z" stroke-width="2"/><path fill="#ddd7ff" stroke="#7854ab" d="M112 74.667h5.333V80M117.333 74.667L120 72" stroke-width="2"/><path fill="#ddd7ff" stroke="#7854ab" d="M112 69.333v5.334h5.333L120 72v-5.333h-5.333z" stroke-width="2"/><path fill="#ddd7ff" stroke="#7854ab" d="M112 69.333h5.333v5.334M117.333 69.333L120 66.667" stroke-width="2"/><path fill="#ddd7ff" stroke="#7854ab" d="M112 64v5.333h5.333L120 66.667v-5.334h-5.333z" stroke-width="2"/><path fill="#ddd7ff" stroke="#7854ab" d="M112 64h5.333v5.333M117.333 64L120 61.333" stroke-width="2"/><path fill="#ddd7ff" stroke="#7854ab" d="M112 58.667V64h5.333L120 61.333V56h-5.333z" stroke-width="2"/><path fill="#ddd7ff" stroke="#7854ab" d="M112 58.667h5.333V64M117.333 58.667L120 56" stroke-width="2"/><path fill="#ddd7ff" stroke="#7854ab" d="M112 53.333v5.334h5.333L120 56v-5.333h-5.333z" stroke-width="2"/><path fill="#ddd7ff" stroke="#7854ab" d="M112 53.333h5.333v5.334M117.333 53.333L120 50.667" stroke-width="2"/><path fill="#ddd7ff" stroke="#7854ab" d="M112 48v5.333h5.333L120 50.667v-5.334h-5.333z" stroke-width="2"/><path fill="#ddd7ff" stroke="#7854ab" d="M112 48h5.333v5.333M117.333 48L120 45.333M117.333 96v5.333h5.334l2.666-2.666v-5.334H120z" stroke-width="2"/><path fill="#ddd7ff" stroke="#7854ab" d="M117.333 96h5.334v5.333M122.667 96l2.666-2.667" stroke-width="2"/><path fill="#ddd7ff" stroke="#7854ab" d="M117.333 90.667V96h5.334l2.666-2.667V88H120z" stroke-width="2"/><path fill="#ddd7ff" stroke="#7854ab" d="M117.333 90.667h5.334V96M122.667 90.667L125.333 88" stroke-width="2"/><path fill="#ddd7ff" stroke="#7854ab" d="M117.333 85.333v5.334h5.334L125.333 88v-5.333H120z" stroke-width="2"/><path fill="#ddd7ff" stroke="#7854ab" d="M117.333 85.333h5.334v5.334M122.667 85.333l2.666-2.666" stroke-width="2"/><path fill="#ddd7ff" stroke="#7854ab" d="M117.333 80v5.333h5.334l2.666-2.666v-5.334H120z" stroke-width="2"/><path fill="#ddd7ff" stroke="#7854ab" d="M117.333 80h5.334v5.333M122.667 80l2.666-2.667" stroke-width="2"/><path fill="#ddd7ff" stroke="#7854ab" d="M117.333 74.667V80h5.334l2.666-2.667V72H120z" stroke-width="2"/><path fill="#ddd7ff" stroke="#7854ab" d="M117.333 74.667h5.334V80M122.667 74.667L125.333 72" stroke-width="2"/><path fill="#ddd7ff" stroke="#7854ab" d="M117.333 69.333v5.334h5.334L125.333 72v-5.333H120z" stroke-width="2"/><path fill="#ddd7ff" stroke="#7854ab" d="M117.333 69.333h5.334v5.334M122.667 69.333l2.666-2.666" stroke-width="2"/><path fill="#ddd7ff" stroke="#7854ab" d="M117.333 64v5.333h5.334l2.666-2.666v-5.334H120z" stroke-width="2"/><path fill="#ddd7ff" stroke="#7854ab" d="M117.333 64h5.334v5.333M122.667 64l2.666-2.667" stroke-width="2"/><path fill="#ddd7ff" stroke="#7854ab" d="M117.333 58.667V64h5.334l2.666-2.667V56H120z" stroke-width="2"/><path fill="#ddd7ff" stroke="#7854ab" d="M117.333 58.667h5.334V64M122.667 58.667L125.333 56" stroke-width="2"/><path fill="#ddd7ff" stroke="#7854ab" d="M117.333 53.333v5.334h5.334L125.333 56v-5.333H120z" stroke-width="2"/><path fill="#ddd7ff" stroke="#7854ab" d="M117.333 53.333h5.334v5.334M122.667 53.333l2.666-2.666" stroke-width="2"/><path fill="#ddd7ff" stroke="#7854ab" d="M117.333 48v5.333h5.334l2.666-2.666v-5.334H120z" stroke-width="2"/><path fill="#ddd7ff" stroke="#7854ab" d="M117.333 48h5.334v5.333M122.667 48l2.666-2.667" stroke-width="2"/><path fill="#ccfaff" stroke="#0c7f99" d="M138.667 96v5.333H144l2.667-2.666v-5.334h-5.334z" stroke-width="2"/><path fill="#ccfaff" stroke="#0c7f99" d="M138.667 96H144v5.333M144 96l2.667-2.667" stroke-width="2"/><path fill="#ccfaff" stroke="#0c7f99" d="M138.667 90.667V96H144l2.667-2.667V88h-5.334z" stroke-width="2"/><path fill="#ccfaff" stroke="#0c7f99" d="M138.667 90.667H144V96M144 90.667L146.667 88" stroke-width="2"/><path fill="#ccfaff" stroke="#0c7f99" d="M138.667 85.333v5.334H144L146.667 88v-5.333h-5.334z" stroke-width="2"/><path fill="#ccfaff" stroke="#0c7f99" d="M138.667 85.333H144v5.334M144 85.333l2.667-2.666" stroke-width="2"/><path fill="#ccfaff" stroke="#0c7f99" d="M138.667 80v5.333H144l2.667-2.666v-5.334h-5.334z" stroke-width="2"/><path fill="#ccfaff" stroke="#0c7f99" d="M138.667 80H144v5.333M144 80l2.667-2.667" stroke-width="2"/><path fill="#ccfaff" stroke="#0c7f99" d="M138.667 74.667V80H144l2.667-2.667V72h-5.334z" stroke-width="2"/><path fill="#ccfaff" stroke="#0c7f99" d="M138.667 74.667H144V80M144 74.667L146.667 72" stroke-width="2"/><path fill="#ccfaff" stroke="#0c7f99" d="M138.667 69.333v5.334H144L146.667 72v-5.333h-5.334z" stroke-width="2"/><path fill="#ccfaff" stroke="#0c7f99" d="M138.667 69.333H144v5.334M144 69.333l2.667-2.666" stroke-width="2"/><path fill="#ccfaff" stroke="#0c7f99" d="M138.667 64v5.333H144l2.667-2.666v-5.334h-5.334z" stroke-width="2"/><path fill="#ccfaff" stroke="#0c7f99" d="M138.667 64H144v5.333M144 64l2.667-2.667" stroke-width="2"/><path fill="#ccfaff" stroke="#0c7f99" d="M138.667 58.667V64H144l2.667-2.667V56h-5.334z" stroke-width="2"/><path fill="#ccfaff" stroke="#0c7f99" d="M138.667 58.667H144V64M144 58.667L146.667 56" stroke-width="2"/><path fill="#ccfaff" stroke="#0c7f99" d="M138.667 53.333v5.334H144L146.667 56v-5.333h-5.334z" stroke-width="2"/><path fill="#ccfaff" stroke="#0c7f99" d="M138.667 53.333H144v5.334M144 53.333l2.667-2.666" stroke-width="2"/><path fill="#ccfaff" stroke="#0c7f99" d="M138.667 48v5.333H144l2.667-2.666v-5.334h-5.334z" stroke-width="2"/><path fill="#ccfaff" stroke="#0c7f99" d="M138.667 48H144v5.333M144 48l2.667-2.667M151.467 96v5.333h5.333l2.667-2.666v-5.334h-5.334z" stroke-width="2"/><path fill="#ccfaff" stroke="#0c7f99" d="M151.467 96h5.333v5.333M156.8 96l2.667-2.667" stroke-width="2"/><path fill="#ccfaff" stroke="#0c7f99" d="M151.467 90.667V96h5.333l2.667-2.667V88h-5.334z" stroke-width="2"/><path fill="#ccfaff" stroke="#0c7f99" d="M151.467 90.667h5.333V96M156.8 90.667L159.467 88" stroke-width="2"/><path fill="#ccfaff" stroke="#0c7f99" d="M151.467 85.333v5.334h5.333L159.467 88v-5.333h-5.334z" stroke-width="2"/><path fill="#ccfaff" stroke="#0c7f99" d="M151.467 85.333h5.333v5.334M156.8 85.333l2.667-2.666" stroke-width="2"/><path fill="#ccfaff" stroke="#0c7f99" d="M151.467 80v5.333h5.333l2.667-2.666v-5.334h-5.334z" stroke-width="2"/><path fill="#ccfaff" stroke="#0c7f99" d="M151.467 80h5.333v5.333M156.8 80l2.667-2.667" stroke-width="2"/><path fill="#ccfaff" stroke="#0c7f99" d="M151.467 74.667V80h5.333l2.667-2.667V72h-5.334z" stroke-width="2"/><path fill="#ccfaff" stroke="#0c7f99" d="M151.467 74.667h5.333V80M156.8 74.667L159.467 72" stroke-width="2"/><path fill="#ccfaff" stroke="#0c7f99" d="M151.467 69.333v5.334h5.333L159.467 72v-5.333h-5.334z" stroke-width="2"/><path fill="#ccfaff" stroke="#0c7f99" d="M151.467 69.333h5.333v5.334M156.8 69.333l2.667-2.666" stroke-width="2"/><path fill="#ccfaff" stroke="#0c7f99" d="M151.467 64v5.333h5.333l2.667-2.666v-5.334h-5.334z" stroke-width="2"/><path fill="#ccfaff" stroke="#0c7f99" d="M151.467 64h5.333v5.333M156.8 64l2.667-2.667" stroke-width="2"/><path fill="#ccfaff" stroke="#0c7f99" d="M151.467 58.667V64h5.333l2.667-2.667V56h-5.334z" stroke-width="2"/><path fill="#ccfaff" stroke="#0c7f99" d="M151.467 58.667h5.333V64M156.8 58.667L159.467 56" stroke-width="2"/><path fill="#ccfaff" stroke="#0c7f99" d="M151.467 53.333v5.334h5.333L159.467 56v-5.333h-5.334z" stroke-width="2"/><path fill="#ccfaff" stroke="#0c7f99" d="M151.467 53.333h5.333v5.334M156.8 53.333l2.667-2.666" stroke-width="2"/><path fill="#ccfaff" stroke="#0c7f99" d="M151.467 48v5.333h5.333l2.667-2.666v-5.334h-5.334z" stroke-width="2"/><path fill="#ccfaff" stroke="#0c7f99" d="M151.467 48h5.333v5.333M156.8 48l2.667-2.667M164.267 96v5.333h5.333l2.667-2.666v-5.334h-5.334z" stroke-width="2"/><path fill="#ccfaff" stroke="#0c7f99" d="M164.267 96h5.333v5.333M169.6 96l2.667-2.667" stroke-width="2"/><path fill="#ccfaff" stroke="#0c7f99" d="M164.267 90.667V96h5.333l2.667-2.667V88h-5.334z" stroke-width="2"/><path fill="#ccfaff" stroke="#0c7f99" d="M164.267 90.667h5.333V96M169.6 90.667L172.267 88" stroke-width="2"/><path fill="#ccfaff" stroke="#0c7f99" d="M164.267 85.333v5.334h5.333L172.267 88v-5.333h-5.334z" stroke-width="2"/><path fill="#ccfaff" stroke="#0c7f99" d="M164.267 85.333h5.333v5.334M169.6 85.333l2.667-2.666" stroke-width="2"/><path fill="#ccfaff" stroke="#0c7f99" d="M164.267 80v5.333h5.333l2.667-2.666v-5.334h-5.334z" stroke-width="2"/><path fill="#ccfaff" stroke="#0c7f99" d="M164.267 80h5.333v5.333M169.6 80l2.667-2.667" stroke-width="2"/><path fill="#ccfaff" stroke="#0c7f99" d="M164.267 74.667V80h5.333l2.667-2.667V72h-5.334z" stroke-width="2"/><path fill="#ccfaff" stroke="#0c7f99" d="M164.267 74.667h5.333V80M169.6 74.667L172.267 72" stroke-width="2"/><path fill="#ccfaff" stroke="#0c7f99" d="M164.267 69.333v5.334h5.333L172.267 72v-5.333h-5.334z" stroke-width="2"/><path fill="#ccfaff" stroke="#0c7f99" d="M164.267 69.333h5.333v5.334M169.6 69.333l2.667-2.666" stroke-width="2"/><path fill="#ccfaff" stroke="#0c7f99" d="M164.267 64v5.333h5.333l2.667-2.666v-5.334h-5.334z" stroke-width="2"/><path fill="#ccfaff" stroke="#0c7f99" d="M164.267 64h5.333v5.333M169.6 64l2.667-2.667" stroke-width="2"/><path fill="#ccfaff" stroke="#0c7f99" d="M164.267 58.667V64h5.333l2.667-2.667V56h-5.334z" stroke-width="2"/><path fill="#ccfaff" stroke="#0c7f99" d="M164.267 58.667h5.333V64M169.6 58.667L172.267 56" stroke-width="2"/><path fill="#ccfaff" stroke="#0c7f99" d="M164.267 53.333v5.334h5.333L172.267 56v-5.333h-5.334z" stroke-width="2"/><path fill="#ccfaff" stroke="#0c7f99" d="M164.267 53.333h5.333v5.334M169.6 53.333l2.667-2.666" stroke-width="2"/><path fill="#ccfaff" stroke="#0c7f99" d="M164.267 48v5.333h5.333l2.667-2.666v-5.334h-5.334z" stroke-width="2"/><path fill="#ccfaff" stroke="#0c7f99" d="M164.267 48h5.333v5.333M169.6 48l2.667-2.667M177.067 96v5.333h5.333l2.667-2.666v-5.334h-5.334z" stroke-width="2"/><path fill="#ccfaff" stroke="#0c7f99" d="M177.067 96h5.333v5.333M182.4 96l2.667-2.667" stroke-width="2"/><path fill="#ccfaff" stroke="#0c7f99" d="M177.067 90.667V96h5.333l2.667-2.667V88h-5.334z" stroke-width="2"/><path fill="#ccfaff" stroke="#0c7f99" d="M177.067 90.667h5.333V96M182.4 90.667L185.067 88" stroke-width="2"/><path fill="#ccfaff" stroke="#0c7f99" d="M177.067 85.333v5.334h5.333L185.067 88v-5.333h-5.334z" stroke-width="2"/><path fill="#ccfaff" stroke="#0c7f99" d="M177.067 85.333h5.333v5.334M182.4 85.333l2.667-2.666" stroke-width="2"/><path fill="#ccfaff" stroke="#0c7f99" d="M177.067 80v5.333h5.333l2.667-2.666v-5.334h-5.334z" stroke-width="2"/><path fill="#ccfaff" stroke="#0c7f99" d="M177.067 80h5.333v5.333M182.4 80l2.667-2.667" stroke-width="2"/><path fill="#ccfaff" stroke="#0c7f99" d="M177.067 74.667V80h5.333l2.667-2.667V72h-5.334z" stroke-width="2"/><path fill="#ccfaff" stroke="#0c7f99" d="M177.067 74.667h5.333V80M182.4 74.667L185.067 72" stroke-width="2"/><path fill="#ccfaff" stroke="#0c7f99" d="M177.067 69.333v5.334h5.333L185.067 72v-5.333h-5.334z" stroke-width="2"/><path fill="#ccfaff" stroke="#0c7f99" d="M177.067 69.333h5.333v5.334M182.4 69.333l2.667-2.666" stroke-width="2"/><path fill="#ccfaff" stroke="#0c7f99" d="M177.067 64v5.333h5.333l2.667-2.666v-5.334h-5.334z" stroke-width="2"/><path fill="#ccfaff" stroke="#0c7f99" d="M177.067 64h5.333v5.333M182.4 64l2.667-2.667" stroke-width="2"/><path fill="#ccfaff" stroke="#0c7f99" d="M177.067 58.667V64h5.333l2.667-2.667V56h-5.334z" stroke-width="2"/><path fill="#ccfaff" stroke="#0c7f99" d="M177.067 58.667h5.333V64M182.4 58.667L185.067 56" stroke-width="2"/><path fill="#ccfaff" stroke="#0c7f99" d="M177.067 53.333v5.334h5.333L185.067 56v-5.333h-5.334z" stroke-width="2"/><path fill="#ccfaff" stroke="#0c7f99" d="M177.067 53.333h5.333v5.334M182.4 53.333l2.667-2.666" stroke-width="2"/><path fill="#ccfaff" stroke="#0c7f99" d="M177.067 48v5.333h5.333l2.667-2.666v-5.334h-5.334z" stroke-width="2"/><path fill="#ccfaff" stroke="#0c7f99" d="M177.067 48h5.333v5.333M182.4 48l2.667-2.667M189.867 96v5.333h5.333l2.667-2.666v-5.334h-5.334z" stroke-width="2"/><path fill="#ccfaff" stroke="#0c7f99" d="M189.867 96h5.333v5.333M195.2 96l2.667-2.667" stroke-width="2"/><path fill="#ccfaff" stroke="#0c7f99" d="M189.867 90.667V96h5.333l2.667-2.667V88h-5.334z" stroke-width="2"/><path fill="#ccfaff" stroke="#0c7f99" d="M189.867 90.667h5.333V96M195.2 90.667L197.867 88" stroke-width="2"/><path fill="#ccfaff" stroke="#0c7f99" d="M189.867 85.333v5.334h5.333L197.867 88v-5.333h-5.334z" stroke-width="2"/><path fill="#ccfaff" stroke="#0c7f99" d="M189.867 85.333h5.333v5.334M195.2 85.333l2.667-2.666" stroke-width="2"/><path fill="#ccfaff" stroke="#0c7f99" d="M189.867 80v5.333h5.333l2.667-2.666v-5.334h-5.334z" stroke-width="2"/><path fill="#ccfaff" stroke="#0c7f99" d="M189.867 80h5.333v5.333M195.2 80l2.667-2.667" stroke-width="2"/><path fill="#ccfaff" stroke="#0c7f99" d="M189.867 74.667V80h5.333l2.667-2.667V72h-5.334z" stroke-width="2"/><path fill="#ccfaff" stroke="#0c7f99" d="M189.867 74.667h5.333V80M195.2 74.667L197.867 72" stroke-width="2"/><path fill="#ccfaff" stroke="#0c7f99" d="M189.867 69.333v5.334h5.333L197.867 72v-5.333h-5.334z" stroke-width="2"/><path fill="#ccfaff" stroke="#0c7f99" d="M189.867 69.333h5.333v5.334M195.2 69.333l2.667-2.666" stroke-width="2"/><path fill="#ccfaff" stroke="#0c7f99" d="M189.867 64v5.333h5.333l2.667-2.666v-5.334h-5.334z" stroke-width="2"/><path fill="#ccfaff" stroke="#0c7f99" d="M189.867 64h5.333v5.333M195.2 64l2.667-2.667" stroke-width="2"/><path fill="#ccfaff" stroke="#0c7f99" d="M189.867 58.667V64h5.333l2.667-2.667V56h-5.334z" stroke-width="2"/><path fill="#ccfaff" stroke="#0c7f99" d="M189.867 58.667h5.333V64M195.2 58.667L197.867 56" stroke-width="2"/><path fill="#ccfaff" stroke="#0c7f99" d="M189.867 53.333v5.334h5.333L197.867 56v-5.333h-5.334z" stroke-width="2"/><path fill="#ccfaff" stroke="#0c7f99" d="M189.867 53.333h5.333v5.334M195.2 53.333l2.667-2.666" stroke-width="2"/><path fill="#ccfaff" stroke="#0c7f99" d="M189.867 48v5.333h5.333l2.667-2.666v-5.334h-5.334z" stroke-width="2"/><path fill="#ccfaff" stroke="#0c7f99" d="M189.867 48h5.333v5.333M195.2 48l2.667-2.667M202.667 96v5.333H208l2.667-2.666v-5.334h-5.334z" stroke-width="2"/><path fill="#ccfaff" stroke="#0c7f99" d="M202.667 96H208v5.333M208 96l2.667-2.667" stroke-width="2"/><path fill="#ccfaff" stroke="#0c7f99" d="M202.667 90.667V96H208l2.667-2.667V88h-5.334z" stroke-width="2"/><path fill="#ccfaff" stroke="#0c7f99" d="M202.667 90.667H208V96M208 90.667L210.667 88" stroke-width="2"/><path fill="#ccfaff" stroke="#0c7f99" d="M202.667 85.333v5.334H208L210.667 88v-5.333h-5.334z" stroke-width="2"/><path fill="#ccfaff" stroke="#0c7f99" d="M202.667 85.333H208v5.334M208 85.333l2.667-2.666" stroke-width="2"/><path fill="#ccfaff" stroke="#0c7f99" d="M202.667 80v5.333H208l2.667-2.666v-5.334h-5.334z" stroke-width="2"/><path fill="#ccfaff" stroke="#0c7f99" d="M202.667 80H208v5.333M208 80l2.667-2.667" stroke-width="2"/><path fill="#ccfaff" stroke="#0c7f99" d="M202.667 74.667V80H208l2.667-2.667V72h-5.334z" stroke-width="2"/><path fill="#ccfaff" stroke="#0c7f99" d="M202.667 74.667H208V80M208 74.667L210.667 72" stroke-width="2"/><path fill="#ccfaff" stroke="#0c7f99" d="M202.667 69.333v5.334H208L210.667 72v-5.333h-5.334z" stroke-width="2"/><path fill="#ccfaff" stroke="#0c7f99" d="M202.667 69.333H208v5.334M208 69.333l2.667-2.666" stroke-width="2"/><path fill="#ccfaff" stroke="#0c7f99" d="M202.667 64v5.333H208l2.667-2.666v-5.334h-5.334z" stroke-width="2"/><path fill="#ccfaff" stroke="#0c7f99" d="M202.667 64H208v5.333M208 64l2.667-2.667" stroke-width="2"/><path fill="#ccfaff" stroke="#0c7f99" d="M202.667 58.667V64H208l2.667-2.667V56h-5.334z" stroke-width="2"/><path fill="#ccfaff" stroke="#0c7f99" d="M202.667 58.667H208V64M208 58.667L210.667 56" stroke-width="2"/><path fill="#ccfaff" stroke="#0c7f99" d="M202.667 53.333v5.334H208L210.667 56v-5.333h-5.334z" stroke-width="2"/><path fill="#ccfaff" stroke="#0c7f99" d="M202.667 53.333H208v5.334M208 53.333l2.667-2.666" stroke-width="2"/><path fill="#ccfaff" stroke="#0c7f99" d="M202.667 48v5.333H208l2.667-2.666v-5.334h-5.334z" stroke-width="2"/><path fill="#ccfaff" stroke="#0c7f99" d="M202.667 48H208v5.333M208 48l2.667-2.667M215.467 96v5.333h5.333l2.667-2.666v-5.334h-5.334z" stroke-width="2"/><path fill="#ccfaff" stroke="#0c7f99" d="M215.467 96h5.333v5.333M220.8 96l2.667-2.667" stroke-width="2"/><path fill="#ccfaff" stroke="#0c7f99" d="M215.467 90.667V96h5.333l2.667-2.667V88h-5.334z" stroke-width="2"/><path fill="#ccfaff" stroke="#0c7f99" d="M215.467 90.667h5.333V96M220.8 90.667L223.467 88" stroke-width="2"/><path fill="#ccfaff" stroke="#0c7f99" d="M215.467 85.333v5.334h5.333L223.467 88v-5.333h-5.334z" stroke-width="2"/><path fill="#ccfaff" stroke="#0c7f99" d="M215.467 85.333h5.333v5.334M220.8 85.333l2.667-2.666" stroke-width="2"/><path fill="#ccfaff" stroke="#0c7f99" d="M215.467 80v5.333h5.333l2.667-2.666v-5.334h-5.334z" stroke-width="2"/><path fill="#ccfaff" stroke="#0c7f99" d="M215.467 80h5.333v5.333M220.8 80l2.667-2.667" stroke-width="2"/><path fill="#ccfaff" stroke="#0c7f99" d="M215.467 74.667V80h5.333l2.667-2.667V72h-5.334z" stroke-width="2"/><path fill="#ccfaff" stroke="#0c7f99" d="M215.467 74.667h5.333V80M220.8 74.667L223.467 72" stroke-width="2"/><path fill="#ccfaff" stroke="#0c7f99" d="M215.467 69.333v5.334h5.333L223.467 72v-5.333h-5.334z" stroke-width="2"/><path fill="#ccfaff" stroke="#0c7f99" d="M215.467 69.333h5.333v5.334M220.8 69.333l2.667-2.666" stroke-width="2"/><path fill="#ccfaff" stroke="#0c7f99" d="M215.467 64v5.333h5.333l2.667-2.666v-5.334h-5.334z" stroke-width="2"/><path fill="#ccfaff" stroke="#0c7f99" d="M215.467 64h5.333v5.333M220.8 64l2.667-2.667" stroke-width="2"/><path fill="#ccfaff" stroke="#0c7f99" d="M215.467 58.667V64h5.333l2.667-2.667V56h-5.334z" stroke-width="2"/><path fill="#ccfaff" stroke="#0c7f99" d="M215.467 58.667h5.333V64M220.8 58.667L223.467 56" stroke-width="2"/><path fill="#ccfaff" stroke="#0c7f99" d="M215.467 53.333v5.334h5.333L223.467 56v-5.333h-5.334z" stroke-width="2"/><path fill="#ccfaff" stroke="#0c7f99" d="M215.467 53.333h5.333v5.334M220.8 53.333l2.667-2.666" stroke-width="2"/><path fill="#ccfaff" stroke="#0c7f99" d="M215.467 48v5.333h5.333l2.667-2.666v-5.334h-5.334z" stroke-width="2"/><path fill="#ccfaff" stroke="#0c7f99" d="M215.467 48h5.333v5.333M220.8 48l2.667-2.667M228.267 96v5.333h5.333l2.667-2.666v-5.334h-5.334z" stroke-width="2"/><path fill="#ccfaff" stroke="#0c7f99" d="M228.267 96h5.333v5.333M233.6 96l2.667-2.667" stroke-width="2"/><path fill="#ccfaff" stroke="#0c7f99" d="M228.267 90.667V96h5.333l2.667-2.667V88h-5.334z" stroke-width="2"/><path fill="#ccfaff" stroke="#0c7f99" d="M228.267 90.667h5.333V96M233.6 90.667L236.267 88" stroke-width="2"/><path fill="#ccfaff" stroke="#0c7f99" d="M228.267 85.333v5.334h5.333L236.267 88v-5.333h-5.334z" stroke-width="2"/><path fill="#ccfaff" stroke="#0c7f99" d="M228.267 85.333h5.333v5.334M233.6 85.333l2.667-2.666" stroke-width="2"/><path fill="#ccfaff" stroke="#0c7f99" d="M228.267 80v5.333h5.333l2.667-2.666v-5.334h-5.334z" stroke-width="2"/><path fill="#ccfaff" stroke="#0c7f99" d="M228.267 80h5.333v5.333M233.6 80l2.667-2.667" stroke-width="2"/><path fill="#ccfaff" stroke="#0c7f99" d="M228.267 74.667V80h5.333l2.667-2.667V72h-5.334z" stroke-width="2"/><path fill="#ccfaff" stroke="#0c7f99" d="M228.267 74.667h5.333V80M233.6 74.667L236.267 72" stroke-width="2"/><path fill="#ccfaff" stroke="#0c7f99" d="M228.267 69.333v5.334h5.333L236.267 72v-5.333h-5.334z" stroke-width="2"/><path fill="#ccfaff" stroke="#0c7f99" d="M228.267 69.333h5.333v5.334M233.6 69.333l2.667-2.666" stroke-width="2"/><path fill="#ccfaff" stroke="#0c7f99" d="M228.267 64v5.333h5.333l2.667-2.666v-5.334h-5.334z" stroke-width="2"/><path fill="#ccfaff" stroke="#0c7f99" d="M228.267 64h5.333v5.333M233.6 64l2.667-2.667" stroke-width="2"/><path fill="#ccfaff" stroke="#0c7f99" d="M228.267 58.667V64h5.333l2.667-2.667V56h-5.334z" stroke-width="2"/><path fill="#ccfaff" stroke="#0c7f99" d="M228.267 58.667h5.333V64M233.6 58.667L236.267 56" stroke-width="2"/><path fill="#ccfaff" stroke="#0c7f99" d="M228.267 53.333v5.334h5.333L236.267 56v-5.333h-5.334z" stroke-width="2"/><path fill="#ccfaff" stroke="#0c7f99" d="M228.267 53.333h5.333v5.334M233.6 53.333l2.667-2.666" stroke-width="2"/><path fill="#ccfaff" stroke="#0c7f99" d="M228.267 48v5.333h5.333l2.667-2.666v-5.334h-5.334z" stroke-width="2"/><path fill="#ccfaff" stroke="#0c7f99" d="M228.267 48h5.333v5.333M233.6 48l2.667-2.667M241.067 96v5.333h5.333l2.667-2.666v-5.334h-5.334z" stroke-width="2"/><path fill="#ccfaff" stroke="#0c7f99" d="M241.067 96h5.333v5.333M246.4 96l2.667-2.667" stroke-width="2"/><path fill="#ccfaff" stroke="#0c7f99" d="M241.067 90.667V96h5.333l2.667-2.667V88h-5.334z" stroke-width="2"/><path fill="#ccfaff" stroke="#0c7f99" d="M241.067 90.667h5.333V96M246.4 90.667L249.067 88" stroke-width="2"/><path fill="#ccfaff" stroke="#0c7f99" d="M241.067 85.333v5.334h5.333L249.067 88v-5.333h-5.334z" stroke-width="2"/><path fill="#ccfaff" stroke="#0c7f99" d="M241.067 85.333h5.333v5.334M246.4 85.333l2.667-2.666" stroke-width="2"/><path fill="#ccfaff" stroke="#0c7f99" d="M241.067 80v5.333h5.333l2.667-2.666v-5.334h-5.334z" stroke-width="2"/><path fill="#ccfaff" stroke="#0c7f99" d="M241.067 80h5.333v5.333M246.4 80l2.667-2.667" stroke-width="2"/><path fill="#ccfaff" stroke="#0c7f99" d="M241.067 74.667V80h5.333l2.667-2.667V72h-5.334z" stroke-width="2"/><path fill="#ccfaff" stroke="#0c7f99" d="M241.067 74.667h5.333V80M246.4 74.667L249.067 72" stroke-width="2"/><path fill="#ccfaff" stroke="#0c7f99" d="M241.067 69.333v5.334h5.333L249.067 72v-5.333h-5.334z" stroke-width="2"/><path fill="#ccfaff" stroke="#0c7f99" d="M241.067 69.333h5.333v5.334M246.4 69.333l2.667-2.666" stroke-width="2"/><path fill="#ccfaff" stroke="#0c7f99" d="M241.067 64v5.333h5.333l2.667-2.666v-5.334h-5.334z" stroke-width="2"/><path fill="#ccfaff" stroke="#0c7f99" d="M241.067 64h5.333v5.333M246.4 64l2.667-2.667" stroke-width="2"/><path fill="#ccfaff" stroke="#0c7f99" d="M241.067 58.667V64h5.333l2.667-2.667V56h-5.334z" stroke-width="2"/><path fill="#ccfaff" stroke="#0c7f99" d="M241.067 58.667h5.333V64M246.4 58.667L249.067 56" stroke-width="2"/><path fill="#ccfaff" stroke="#0c7f99" d="M241.067 53.333v5.334h5.333L249.067 56v-5.333h-5.334z" stroke-width="2"/><path fill="#ccfaff" stroke="#0c7f99" d="M241.067 53.333h5.333v5.334M246.4 53.333l2.667-2.666" stroke-width="2"/><path fill="#ccfaff" stroke="#0c7f99" d="M241.067 48v5.333h5.333l2.667-2.666v-5.334h-5.334z" stroke-width="2"/><path fill="#ccfaff" stroke="#0c7f99" d="M241.067 48h5.333v5.333M246.4 48l2.667-2.667M253.867 96v5.333h5.333l2.667-2.666v-5.334h-5.334z" stroke-width="2"/><path fill="#ccfaff" stroke="#0c7f99" d="M253.867 96h5.333v5.333M259.2 96l2.667-2.667" stroke-width="2"/><path fill="#ccfaff" stroke="#0c7f99" d="M253.867 90.667V96h5.333l2.667-2.667V88h-5.334z" stroke-width="2"/><path fill="#ccfaff" stroke="#0c7f99" d="M253.867 90.667h5.333V96M259.2 90.667L261.867 88" stroke-width="2"/><path fill="#ccfaff" stroke="#0c7f99" d="M253.867 85.333v5.334h5.333L261.867 88v-5.333h-5.334z" stroke-width="2"/><path fill="#ccfaff" stroke="#0c7f99" d="M253.867 85.333h5.333v5.334M259.2 85.333l2.667-2.666" stroke-width="2"/><path fill="#ccfaff" stroke="#0c7f99" d="M253.867 80v5.333h5.333l2.667-2.666v-5.334h-5.334z" stroke-width="2"/><path fill="#ccfaff" stroke="#0c7f99" d="M253.867 80h5.333v5.333M259.2 80l2.667-2.667" stroke-width="2"/><path fill="#ccfaff" stroke="#0c7f99" d="M253.867 74.667V80h5.333l2.667-2.667V72h-5.334z" stroke-width="2"/><path fill="#ccfaff" stroke="#0c7f99" d="M253.867 74.667h5.333V80M259.2 74.667L261.867 72" stroke-width="2"/><path fill="#ccfaff" stroke="#0c7f99" d="M253.867 69.333v5.334h5.333L261.867 72v-5.333h-5.334z" stroke-width="2"/><path fill="#ccfaff" stroke="#0c7f99" d="M253.867 69.333h5.333v5.334M259.2 69.333l2.667-2.666" stroke-width="2"/><path fill="#ccfaff" stroke="#0c7f99" d="M253.867 64v5.333h5.333l2.667-2.666v-5.334h-5.334z" stroke-width="2"/><path fill="#ccfaff" stroke="#0c7f99" d="M253.867 64h5.333v5.333M259.2 64l2.667-2.667" stroke-width="2"/><path fill="#ccfaff" stroke="#0c7f99" d="M253.867 58.667V64h5.333l2.667-2.667V56h-5.334z" stroke-width="2"/><path fill="#ccfaff" stroke="#0c7f99" d="M253.867 58.667h5.333V64M259.2 58.667L261.867 56" stroke-width="2"/><path fill="#ccfaff" stroke="#0c7f99" d="M253.867 53.333v5.334h5.333L261.867 56v-5.333h-5.334z" stroke-width="2"/><path fill="#ccfaff" stroke="#0c7f99" d="M253.867 53.333h5.333v5.334M259.2 53.333l2.667-2.666" stroke-width="2"/><path fill="#ccfaff" stroke="#0c7f99" d="M253.867 48v5.333h5.333l2.667-2.666v-5.334h-5.334z" stroke-width="2"/><path fill="#ccfaff" stroke="#0c7f99" d="M253.867 48h5.333v5.333M259.2 48l2.667-2.667M241.067 160v5.333h5.333l2.667-2.666v-5.334h-5.334z" stroke-width="2"/><path fill="#ccfaff" stroke="#0c7f99" d="M241.067 160h5.333v5.333M246.4 160l2.667-2.667" stroke-width="2"/><path fill="#ccfaff" stroke="#0c7f99" d="M241.067 154.667V160h5.333l2.667-2.667V152h-5.334z" stroke-width="2"/><path fill="#ccfaff" stroke="#0c7f99" d="M241.067 154.667h5.333V160M246.4 154.667l2.667-2.667" stroke-width="2"/><path fill="#ccfaff" stroke="#0c7f99" d="M241.067 149.333v5.334h5.333l2.667-2.667v-5.333h-5.334z" stroke-width="2"/><path fill="#ccfaff" stroke="#0c7f99" d="M241.067 149.333h5.333v5.334M246.4 149.333l2.667-2.666" stroke-width="2"/><path fill="#ccfaff" stroke="#0c7f99" d="M241.067 144v5.333h5.333l2.667-2.666v-5.334h-5.334z" stroke-width="2"/><path fill="#ccfaff" stroke="#0c7f99" d="M241.067 144h5.333v5.333M246.4 144l2.667-2.667" stroke-width="2"/><path fill="#ccfaff" stroke="#0c7f99" d="M241.067 138.667V144h5.333l2.667-2.667V136h-5.334z" stroke-width="2"/><path fill="#ccfaff" stroke="#0c7f99" d="M241.067 138.667h5.333V144M246.4 138.667l2.667-2.667" stroke-width="2"/><path fill="#ccfaff" stroke="#0c7f99" d="M241.067 133.333v5.334h5.333l2.667-2.667v-5.333h-5.334z" stroke-width="2"/><path fill="#ccfaff" stroke="#0c7f99" d="M241.067 133.333h5.333v5.334M246.4 133.333l2.667-2.666" stroke-width="2"/><path fill="#ccfaff" stroke="#0c7f99" d="M241.067 128v5.333h5.333l2.667-2.666v-5.334h-5.334z" stroke-width="2"/><path fill="#ccfaff" stroke="#0c7f99" d="M241.067 128h5.333v5.333M246.4 128l2.667-2.667" stroke-width="2"/><path fill="#ccfaff" stroke="#0c7f99" d="M241.067 122.667V128h5.333l2.667-2.667V120h-5.334z" stroke-width="2"/><path fill="#ccfaff" stroke="#0c7f99" d="M241.067 122.667h5.333V128M246.4 122.667l2.667-2.667" stroke-width="2"/><path fill="#ccfaff" stroke="#0c7f99" d="M241.067 117.333v5.334h5.333l2.667-2.667v-5.333h-5.334z" stroke-width="2"/><path fill="#ccfaff" stroke="#0c7f99" d="M241.067 117.333h5.333v5.334M246.4 117.333l2.667-2.666" stroke-width="2"/><path fill="#ccfaff" stroke="#0c7f99" d="M241.067 112v5.333h5.333l2.667-2.666v-5.334h-5.334z" stroke-width="2"/><path fill="#ccfaff" stroke="#0c7f99" d="M241.067 112h5.333v5.333M246.4 112l2.667-2.667M253.867 160v5.333h5.333l2.667-2.666v-5.334h-5.334z" stroke-width="2"/><path fill="#ccfaff" stroke="#0c7f99" d="M253.867 160h5.333v5.333M259.2 160l2.667-2.667" stroke-width="2"/><path fill="#ccfaff" stroke="#0c7f99" d="M253.867 154.667V160h5.333l2.667-2.667V152h-5.334z" stroke-width="2"/><path fill="#ccfaff" stroke="#0c7f99" d="M253.867 154.667h5.333V160M259.2 154.667l2.667-2.667" stroke-width="2"/><path fill="#ccfaff" stroke="#0c7f99" d="M253.867 149.333v5.334h5.333l2.667-2.667v-5.333h-5.334z" stroke-width="2"/><path fill="#ccfaff" stroke="#0c7f99" d="M253.867 149.333h5.333v5.334M259.2 149.333l2.667-2.666" stroke-width="2"/><path fill="#ccfaff" stroke="#0c7f99" d="M253.867 144v5.333h5.333l2.667-2.666v-5.334h-5.334z" stroke-width="2"/><path fill="#ccfaff" stroke="#0c7f99" d="M253.867 144h5.333v5.333M259.2 144l2.667-2.667" stroke-width="2"/><path fill="#ccfaff" stroke="#0c7f99" d="M253.867 138.667V144h5.333l2.667-2.667V136h-5.334z" stroke-width="2"/><path fill="#ccfaff" stroke="#0c7f99" d="M253.867 138.667h5.333V144M259.2 138.667l2.667-2.667" stroke-width="2"/><path fill="#ccfaff" stroke="#0c7f99" d="M253.867 133.333v5.334h5.333l2.667-2.667v-5.333h-5.334z" stroke-width="2"/><path fill="#ccfaff" stroke="#0c7f99" d="M253.867 133.333h5.333v5.334M259.2 133.333l2.667-2.666" stroke-width="2"/><path fill="#ccfaff" stroke="#0c7f99" d="M253.867 128v5.333h5.333l2.667-2.666v-5.334h-5.334z" stroke-width="2"/><path fill="#ccfaff" stroke="#0c7f99" d="M253.867 128h5.333v5.333M259.2 128l2.667-2.667" stroke-width="2"/><path fill="#ccfaff" stroke="#0c7f99" d="M253.867 122.667V128h5.333l2.667-2.667V120h-5.334z" stroke-width="2"/><path fill="#ccfaff" stroke="#0c7f99" d="M253.867 122.667h5.333V128M259.2 122.667l2.667-2.667" stroke-width="2"/><path fill="#ccfaff" stroke="#0c7f99" d="M253.867 117.333v5.334h5.333l2.667-2.667v-5.333h-5.334z" stroke-width="2"/><path fill="#ccfaff" stroke="#0c7f99" d="M253.867 117.333h5.333v5.334M259.2 117.333l2.667-2.666" stroke-width="2"/><path fill="#ccfaff" stroke="#0c7f99" d="M253.867 112v5.333h5.333l2.667-2.666v-5.334h-5.334z" stroke-width="2"/><path fill="#ccfaff" stroke="#0c7f99" d="M253.867 112h5.333v5.333M259.2 112l2.667-2.667" stroke-width="2"/><path fill="#ffbde0" stroke="#ca337c" d="M387.2 48v5.333h5.333l2.667-2.666v-5.334h-5.333z" stroke-width="2"/><path fill="#ffbde0" stroke="#ca337c" d="M387.2 48h5.333v5.333M392.533 48l2.667-2.667" stroke-width="2"/></svg>
